<?xml version="1.0" encoding="UTF-8"?>
<svg width="205px" height="60px" viewBox="0 0 205 60" version="1.1" xmlns="http://www.w3.org/2000/svg" xmlns:xlink="http://www.w3.org/1999/xlink">
    <title>Group</title>
    <g id="Page-1" stroke="none" stroke-width="1" fill="none" fill-rule="evenodd">
        <g id="Red-Button" transform="translate(-26.000000, -118.000000)" fill="#e82e89">
            <g id="Group" transform="translate(26.000000, 118.000000)">
                <path d="M159.864393,2.11869961 C163.948928,4.4350262 191.682021,-0.484454525 193.451489,0.0393504872 C195.106173,0.883969328 192.631601,18.4590114 191.118534,21.1629576 C190.58188,22.1199667 189.958765,22.3608495 188.523215,22.0223984 C187.010149,21.6657202 171.092391,23.5026308 156.85913,25.0718542 C156.85913,25.0718542 109.929769,28.0245458 102.714156,28.3579935 C100.250317,28.4736101 102.20985,27.382936 99.305657,27.8281583 C93.1181839,28.7768581 79.6673951,27.9663801 74.981361,28.8815742 C71.2232913,29.6169103 70.4171175,29.6435361 66.8307772,28.9864691 C63.7149036,28.4170527 43.6535793,28.6275571 41.3725011,29.834384 C40.8179585,30.1284291 40.4059273,30.0135272 40.4130827,29.627096 C40.4130827,29.627096 30.5879889,28.9706544 27.2188444,28.538745 C26.8375218,28.4896034 26.6170464,28.4352797 26.6103383,28.3982895 C26.5135914,28.0065868 26.102902,27.8164537 25.706076,28.0532266 C24.9829346,28.4845999 10.305101,29.1033366 10.0956121,27.9648612 C9.49130972,24.6920348 11.8801809,11.1798988 13.6461159,7.90518716 C15.4857961,4.49631016 24.7608194,8.95753979 32.5876219,7.13966028 C72.9350689,8.43306556 68.1454307,7.92060867 75.876679,6.64143657 C76.732046,7.8105763 80.1314519,4.97342089 82.1459919,6.98112968 C82.9889861,7.82205755 89.05765,7.90192595 90.4140433,7.05080345 C91.4064063,6.42871625 122.352269,7.65773718 125.833813,5.05305698 C132.138008,6.95128737 156.727948,2.55789987 159.864393,2.11869961 Z" id="Path" style="mix-blend-mode: multiply;"></path>
                <path d="M38.0524332,41.2576802 C33.4908151,39.1837459 2.59756403,43.4355284 0.624042937,42.9630392 C-1.22456276,42.2061166 1.46176689,26.6105136 3.13717914,24.2158824 C3.73053728,23.3683454 4.4251392,23.1570596 6.02603055,23.463659 C7.71354092,23.7866611 25.4488304,22.2224548 41.3077806,20.8887743 C41.3077806,20.8887743 93.6061705,18.4639088 101.647858,18.1981835 C104.393568,18.1057958 102.213973,19.0661132 105.449256,18.6829083 C112.342216,17.8664923 127.338543,18.6425663 132.558127,17.8496462 C136.744019,17.2124197 137.642461,17.192293 141.64272,17.7906848 C145.118182,18.3093679 167.478612,18.2066952 170.017138,17.1446806 C170.633935,16.8859597 171.093188,16.9896963 171.087243,17.3328251 C171.087243,17.3328251 182.040952,17.9569294 185.798209,18.3545864 C186.223278,18.3998049 186.469996,18.4490133 186.477428,18.4818189 C186.585924,18.8300902 187.045178,19.0006793 187.486596,18.7920535 C188.290661,18.4120405 204.648398,17.9242124 204.887686,18.9360434 C205.574336,21.8447471 202.967442,33.8329759 201.011529,36.7333452 C198.975358,39.7526126 188.619123,35.7522805 179.902229,37.3335989 C134.923206,36.0157006 140.264069,36.4908498 131.651659,37.5942704 C130.693469,36.5524711 126.916,39.0574887 124.662241,37.2663031 C123.719211,36.5160303 116.954367,36.4196528 115.445965,37.1697483 C114.342271,37.7179564 79.8432877,36.4967016 75.9732246,38.7949552 C68.9384759,37.0829464 41.5473651,40.8808591 38.0524332,41.2576802 Z" id="Path" style="mix-blend-mode: multiply;"></path>
                <path d="M42.6283765,58.0626852 C38.3618768,55.8724035 9.42484335,60.458903 7.57803139,59.9620611 C5.84885372,59.1631144 8.400964,42.6040586 9.97540999,40.0585216 C10.5329902,39.1575402 11.183881,38.931606 12.6821773,39.2531756 C14.2615478,39.591988 30.8718127,37.8893935 45.7246517,36.4360198 C45.7246517,36.4360198 94.7002365,33.7376084 102.230741,33.4363036 C104.801892,33.3317801 102.758849,34.3562166 105.789017,33.9417669 C112.245249,33.0587393 126.285407,33.8467536 131.174623,32.9926122 C135.095667,32.306366 135.936999,32.2828127 139.68121,32.9084424 C142.934321,33.4506133 163.872865,33.2882287 166.250023,32.1550914 C166.829018,31.8789398 167.258786,31.9879961 167.252817,32.3521395 C167.252817,32.3521395 177.507578,32.9884348 181.024818,33.4015513 C181.423249,33.4484802 181.653056,33.5001198 181.660517,33.5349609 C181.76199,33.9043482 182.191759,34.0842423 182.605113,33.8618633 C183.358701,33.4565683 198.676675,32.8997321 198.897528,33.9731417 C199.53472,37.0586276 197.065042,49.7888012 195.228079,52.8717984 C193.313519,56.0811838 183.625814,51.8601608 175.460207,53.559289 C133.346448,52.2678556 138.34639,52.7594535 130.279421,53.9510741 C129.384666,52.8477118 125.841611,55.5154595 123.735594,53.6197277 C122.85427,52.8256695 116.520254,52.7394554 115.106046,53.539202 C114.071318,54.12368 81.7707621,52.9098393 78.1417527,55.3583188 C71.5586799,53.5580446 45.9017821,57.6544572 42.6283765,58.0626852 Z" id="Path" style="mix-blend-mode: multiply;"></path>
            </g>
        </g>
    </g>
</svg>