<?xml version="1.0" encoding="UTF-8"?>
<svg width="153px" height="33px" viewBox="0 0 153 33" version="1.1" xmlns="http://www.w3.org/2000/svg" xmlns:xlink="http://www.w3.org/1999/xlink">
    <g id="Screens-+-UI-Kit" stroke="none" stroke-width="1" fill="none" fill-rule="evenodd">
        <g id="wallfair-uikit" transform="translate(-762.000000, -380.000000)" fill="#EFFF54">
            <g id="Group" transform="translate(762.000000, 380.453113)">
                <path d="M33.3700477,31.0018242 C30.2614161,29.6297252 10.2616864,32.2857446 8.93395579,31.9743789 C7.67330551,31.4887278 8.59057486,21.5492575 9.59370186,20.0249367 C9.94949392,19.4829026 10.403775,19.3724809 11.492336,19.5470657 C12.7722871,19.8060466 29.6963637,18.3930197 35.0215383,17.9929077 C35.32289,18.289602 36.1450342,17.2286915 36.3219001,17.5962994 C36.5939836,18.0199406 45.5740585,17.6486312 54.870704,17.3061156 C60.6884909,17.0931497 68.8673888,16.7947144 75.2991073,16.6806685 C77.1327754,16.6484846 75.6552414,17.2440063 77.8212612,17.0300583 C82.4363528,16.5743169 92.4044061,17.2337376 95.908536,16.7917533 C98.7287685,16.4364932 99.3268081,16.4287853 101.961794,16.8663808 C104.165501,17.2318102 119.13481,17.4353058 120.905182,16.8514672 C121.334374,16.6828044 121.633793,16.7682918 121.604352,16.9888584 C121.867874,17.0252625 131.742936,17.786367 131.763538,17.9705521 C131.80619,18.1947151 132.092738,18.3150796 132.408445,18.1862062 C132.967666,17.9563865 143.921705,17.9277597 143.979471,18.5823914 C144.144421,20.4447117 141.209084,28.084248 139.665772,29.8906757 C138.034413,31.8027897 131.694894,29.0512469 125.852829,29.9282586 C97.2148964,28.4348964 100.331029,28.8070012 94.4178906,29.4368353 C93.8375093,28.7582814 91.2862315,30.3300226 89.8792498,29.1454145 C89.3004875,28.659904 84.8888668,28.5145308 83.8747112,28.9827674 C83.4428212,29.1819031 77.5957584,28.9371312 71.5508302,28.8924253 C69.6631707,28.877729 59.5901091,28.7895921 58.1043897,29.6618703 C53.4090818,28.4924604 35.3062849,30.8167177 33.3700477,31.0018242" id="Fill-1"></path>
                <path d="M28.2701636,22.9455205 C24.6405054,20.8333618 2.64010107,25.4131193 0.950219086,24.9556854 C-0.500036622,24.2375904 -0.114421792,8.92002615 0.933563555,6.54598727 C1.3072536,5.70294478 1.8146683,5.52239863 3.06146988,5.76275485 C4.30989015,6.07553602 18.3287252,4.22017284 29.6985127,2.85548277 C30.0516755,3.30819655 30.9500834,1.65768561 31.1622255,2.22142268 C31.4845391,2.8693092 41.6591196,2.12726507 52.1947051,1.4882611 C57.0472785,1.19498085 63.5434741,0.680937998 75.3476082,0.318601605 C77.4241256,0.255439767 75.7407962,1.1864029 78.1989805,0.843155225 C83.4389094,0.109052022 94.7090488,1.08691599 98.692476,0.405939802 C101.903876,-0.143466745 102.58179,-0.162137357 105.543575,0.515982076 C107.904184,1.05635291 124.944856,1.44390073 127.003867,0.553064834 C127.503253,0.295407184 127.836162,0.42833536 127.787522,0.768993895 C127.787522,0.768993895 139.202464,2.07605409 139.218344,2.36022305 C139.238658,2.70806911 139.564739,2.89684032 139.93131,2.69737151 C140.583819,2.34394188 152.997999,2.41801017 153,3.4296563 C153.00627,6.30511875 148.943646,18.0702867 147.049053,20.8431562 C145.036504,23.781134 138.229848,19.4671153 131.595399,20.7834061 C99.5124245,18.2998896 101.830564,19.1590146 96.4983187,19.9484958 C95.8759811,18.8987529 92.9700813,21.3328811 91.4353377,19.5068066 C90.8091709,18.7596421 85.8695433,18.5370127 84.7301721,19.2741236 C84.4847927,19.4105086 82.7292595,19.4185759 80.1906727,19.3628423 C77.3992756,19.3043831 58.1582514,18.66493 55.9074921,20.524223 C50.9414818,18.8754852 33.5432189,22.0547309 28.2701636,22.9455205" id="Fill-4"></path>
            </g>
        </g>
    </g>
</svg>