<?xml version="1.0" encoding="UTF-8"?>
<svg preserveAspectRatio="none" width="216px" height="49px" viewBox="0 0 216 49" version="1.1" xmlns="http://www.w3.org/2000/svg" xmlns:xlink="http://www.w3.org/1999/xlink">
    <g id="Screens-+-UI-Kit" stroke="none" stroke-width="1" fill="none" fill-rule="evenodd">
        <g id="wallfair-uikit" transform="translate(-763.000000, -472.000000)" fill="#EFFF54">
            <g id="Group" transform="translate(763.342857, 472.047399)">
                <path d="M46.8925507,47.4232668 C42.5242122,45.3271726 14.4200168,49.3846544 12.5542516,48.908995 C10.7827496,48.1670875 12.0717228,32.9830045 13.4813458,30.6543679 C13.981315,29.8263268 14.6196838,29.6576405 16.149361,29.9243459 C17.9479851,30.3199794 41.7301843,28.1613615 49.2132728,27.5501283 C49.6367408,28.0033749 50.7920415,26.3826695 51.0405786,26.9442476 C51.4229182,27.5914253 64.0419776,27.0241926 77.1058913,26.5009468 C85.2812127,26.1756085 96.7744352,25.7197022 105.812471,25.5454794 C108.389194,25.4963136 106.312921,26.4060653 109.356674,26.0792265 C115.841934,25.3830108 129.849329,26.3903783 134.773433,25.7151787 C138.736505,25.1724637 139.576887,25.1606887 143.279645,25.8291837 C146.376357,26.3874339 167.411662,26.6983049 169.899439,25.806401 C170.502552,25.5487423 170.923303,25.6793376 170.881933,26.0162873 C171.252241,26.0719002 185.128963,27.2346053 185.157913,27.5159767 C185.217849,27.8584204 185.620514,28.0422959 186.064154,27.8454218 C186.849989,27.4943366 202.242918,27.4506047 202.324094,28.4506562 C202.555886,31.2956394 198.431065,42.9662164 196.26236,45.725815 C193.969926,48.6468658 185.061452,44.4434572 176.852014,45.7832287 C136.609168,43.5018862 140.988047,44.0703341 132.678735,45.0325034 C131.863167,43.995907 128.278038,46.3969856 126.300907,44.587313 C125.487613,43.8456203 119.288277,43.6235401 117.863156,44.3388442 C117.256252,44.6430549 109.039791,44.2691278 100.545284,44.2008326 C97.8926908,44.1783817 83.7377351,44.043739 81.6499594,45.3762793 C75.0519777,43.5898242 49.6134068,47.1404878 46.8925507,47.4232668" id="Fill-1"></path>
                <path d="M1.33527519,35.3378944 C-0.702665842,34.5111912 -0.160788792,16.876923 1.31187036,14.1438228 C1.83699035,13.1732744 2.55002408,12.9654216 4.30206552,13.2421305 C6.05638159,13.6022182 25.7560518,11.4662408 41.7332041,9.89514823 C42.2294787,10.4163327 43.4919472,8.51619033 43.7900554,9.16518978 C44.2429798,9.91106584 58.5405929,9.0567913 73.3455006,8.32114122 C80.1644763,7.98350382 89.2931171,7.3917146 105.880626,6.97457667 C108.798608,6.90186192 106.433145,7.97362851 109.887456,7.57846636 C117.250755,6.73333377 133.087879,7.85909471 138.685505,7.07512432 C143.198256,6.44262282 144.150881,6.42112837 148.312866,7.20180993 C151.630062,7.82390911 175.576105,8.27007157 178.469487,7.24450127 C179.171238,6.94787421 179.639051,7.10090709 179.570701,7.4930885 C179.570701,7.4930885 195.611306,8.99783492 195.633621,9.32498299 C195.662167,9.72543901 196.120385,9.94276091 196.635502,9.71312345 C197.552425,9.30623937 214.997188,9.39151012 215.00001,10.5561626 C215.008811,13.8665241 209.299895,27.4111141 206.637558,30.603366 C203.809466,33.985698 194.244558,29.0192059 184.921639,30.534579 C139.837721,27.6754432 143.095238,28.6645065 135.602213,29.5733928 C134.727686,28.3648815 130.644232,31.1671593 128.487566,29.0649003 C127.607658,28.2047309 120.666352,27.94843 119.065275,28.7970251 C118.72046,28.9540377 116.253535,28.9633251 112.686239,28.8991621 C108.763688,28.8318612 81.7256474,28.0956941 78.5628157,30.2361957 C71.5844352,28.3380947 47.1358959,31.9981852 39.7260469,33.0237023 C34.6255467,30.5920902 3.70994595,35.8645128 1.33527519,35.3378944 Z" id="Fill-4"></path>
                <path d="M42.6996388,27.2886079 C37.9910483,24.5206673 13.5941879,30.107439 11.1634118,29.4191578 C9.34354277,28.5228358 7.22510076,9.73921697 8.09637157,6.83509419 C8.40514809,5.80440311 8.97948577,5.58718648 10.5053103,5.8938994 C12.0744612,6.29737277 26.4076238,4.38219409 41.7627209,2.58571585 C42.2391173,3.14666726 43.1001315,1.12342015 43.4240687,1.8199934 C43.8878374,2.62199285 55.8730953,1.82202087 68.3017513,1.16329159 C80.5825421,0.511392422 92.5479255,0.0829392459 95.6381832,0.018692316 C98.0957833,-0.0312858715 96.1660724,1.09481834 99.0524253,0.703723978 C105.211844,-0.130997998 118.618758,1.23126953 123.295745,0.451930332 C127.078016,-0.179597327 127.882692,-0.192167642 131.420835,0.688326755 C134.139553,1.36617634 154.406843,2.1356242 156.863099,1.06241295 C157.448571,0.753092384 157.846871,0.922878798 157.792618,1.34167358 C157.768145,1.54939192 171.335278,2.93273353 171.363174,3.48665946 C171.382908,3.91476339 171.769626,4.15482231 172.206432,3.9140797 C172.974778,3.4907137 187.723829,3.79256431 187.709286,5.03850153 C187.662434,8.57078782 182.626887,22.9633092 180.371255,26.3404638 C177.971277,29.926357 170.116919,24.5155659 162.383247,26.0387705 C149.061026,24.7845067 146.319211,24.5125373 128.888705,23.4548167 L121.61022,24.514704 C120.836306,23.2149405 117.588702,26.1805475 115.713824,23.9019959 C114.949834,22.9753047 109.190588,22.6296263 107.911577,23.5225041 C107.636701,23.6862736 105.599283,23.6727419 102.649469,23.5698458 C98.677198,23.4336371 76.9731862,22.418459 74.5435875,24.670697 C68.6093007,22.5730632 48.793458,26.2487412 42.6996388,27.2886079" id="Fill-6"></path>
            </g>
        </g>
    </g>
</svg>