<?xml version="1.0" encoding="UTF-8"?>
<svg preserveAspectRatio="none" width="474px" height="68px" viewBox="0 0 474 68" version="1.1" xmlns="http://www.w3.org/2000/svg" xmlns:xlink="http://www.w3.org/1999/xlink">
    <g id="Screens-+-UI-Kit" stroke="none" stroke-width="1" fill="none" fill-rule="evenodd">
        <g id="Artboard" transform="translate(-356.000000, -1071.000000)" fill="#F1FF54">
            <g id="Group-25" transform="translate(317.000000, 494.000000)">
                <g id="Group-18" transform="translate(39.000000, 577.000000)">
                    <path d="M90.1795509,26.3658063 C80.5745302,24.4070789 16.2353327,29.1706806 12.0963142,28.7417515 C8.20708094,28.0302855 13.2105903,12.6137247 16.6158648,10.2231404 C17.8218588,9.37699359 19.2639779,9.15594139 22.6185148,9.42823085 C26.1545362,9.71515953 63.1246939,7.84426744 96.1861038,6.23541736 C96.1861038,6.23541736 205.289537,2.87425285 222.070027,2.46289082 C227.799475,2.3208904 223.285779,3.30757371 230.026075,2.86986109 C244.386772,1.93734288 275.728957,2.42336493 286.596564,1.54501184 C295.311725,0.839401517 297.187065,0.802803471 305.562674,1.31810395 C312.839619,1.76460011 359.524078,1.24783571 364.781276,0.154286104 C366.059473,-0.112147668 367.023488,-0.0184566713 367.023488,0.31970927 C367.023488,0.31970927 389.919812,0.731071302 397.780239,1.0531341 C398.670099,1.08973215 399.185281,1.1336498 399.202844,1.16585608 C399.444823,1.50694987 400.408838,1.66651735 401.322115,1.45278476 C402.986699,1.06338156 437.123356,0.278719459 437.660004,1.27125845 C439.207501,4.12444209 434.229361,15.9851367 430.260118,18.8793101 C426.125002,21.8920613 404.344906,18.1429575 386.206209,19.8630656 C292.240148,19.4004663 303.410228,19.7693746 285.470579,21.016636 C283.429366,20.0079939 275.639191,22.5464343 270.864,20.8233983 C268.865719,20.1016849 254.737245,20.1324272 251.616882,20.8995223 C249.333689,21.4602043 177.253102,20.8980583 169.261928,23.2344776 C154.50704,21.6783287 97.4623499,25.9295576 90.1795509,26.3658063" id="Fill-1" style="mix-blend-mode: multiply;"></path>
                    <path d="M104.432121,40.5384615 C95.0466771,38.3539817 26.3280545,40.7883301 21.3211834,40.1344824 C17.2489543,39.2547056 23.7602281,23.7074934 27.5456256,21.4137895 C28.8802709,20.5923653 30.419796,20.4651867 33.953484,20.8407376 C39.5457258,21.5514417 111.967794,20.1554693 111.967794,20.1554693 C112.927802,20.6387481 115.790265,19.0123579 116.324904,19.600372 C117.99321,20.9679163 235.346385,19.1066197 245.352322,19.0258239 C251.422617,18.9764487 246.618674,19.9160743 253.7641,19.5360346 C268.989593,18.7894213 302.160602,19.5061102 313.682649,18.6487767 C322.913946,17.9395689 324.902255,17.9246067 333.764768,18.4886813 C342.818502,18.9944033 390.953538,18.2597598 396.457974,17.1750009 C397.800425,16.8757571 398.828726,16.9819887 398.832628,17.3291115 C398.83458,17.40093 432.758765,17.6522948 432.912913,17.9231105 C433.174379,18.2672409 434.20268,18.4333212 435.162688,18.1924299 C436.930507,17.8348336 473.053736,16.5241457 473.631302,17.537086 C475.403024,20.412819 470.437129,32.6503947 466.243923,35.6323592 C461.957058,38.813321 438.378324,35.2418461 419.42402,37.1644876 L331.198893,37.3545074 L312.285564,38.546994 C310.127497,37.5116104 301.782062,40.1165278 296.755678,38.2657048 C294.62688,37.5325575 279.612121,37.4218372 276.285264,38.2013674 C273.401337,38.8028474 196.536305,37.2886737 188.651361,39.3684182 C174.618073,37.6268193 117.643939,40.1150315 104.432121,40.5384615" id="Fill-4" style="mix-blend-mode: multiply;"></path>
                    <path d="M97.2801263,52.2618741 C88.0165808,49.9422637 19.5127886,50.8686535 14.5521961,50.1284142 C10.5322037,49.1874813 17.582802,34.2198131 21.4369209,32.0689016 C22.7970833,31.3010305 24.3328765,31.2079553 27.8376854,31.6471542 C33.3778593,32.4542914 105.530868,32.6157189 105.530868,32.6157189 C106.467565,33.1058184 109.377181,31.5846193 109.88651,32.1692484 C111.49841,33.5304743 228.398227,34.180547 238.362344,34.3114341 C244.407944,34.392875 239.589807,35.204375 246.720415,34.9847756 C261.904668,34.5790255 294.90178,35.9693375 306.403642,35.3788912 C315.618401,34.8815202 317.599125,34.9076976 326.402128,35.6421197 C335.398324,36.3227327 383.345515,36.6179558 388.864223,35.6799315 C390.212676,35.416703 391.231335,35.5417729 391.223529,35.8791708 C391.221577,35.9489773 424.98561,36.9029989 425.130018,37.169136 C425.377852,37.5094425 426.396511,37.6912301 427.360528,37.4803565 C429.132447,37.169136 465.142602,36.6528591 465.681203,37.6476011 C467.339938,40.4791256 461.948074,52.266237 457.662684,55.075947 C453.27777,58.0747161 429.936446,54.1117453 410.993695,55.5834981 L323.154911,53.9197775 L304.284364,54.6818314 C302.172892,53.6289173 293.767986,55.9863396 288.830811,54.0841136 C286.738854,53.3249683 271.79463,52.903221 268.453743,53.5911054 C265.559739,54.1146539 189.09402,51.0344439 181.167219,52.888678 C167.259217,50.9021025 110.446577,52.1266241 97.2801263,52.2618741" id="Fill-6" style="mix-blend-mode: multiply;"></path>
                    <path d="M82.5471033,66.9243894 C72.5324716,64.8063275 5.61936085,68.4453458 1.37084744,67.9537819 C-2.64553873,67.1875206 3.08936916,52.0473542 6.70977361,49.7413414 C7.99330061,48.9259237 9.4992016,48.7321898 12.9733074,49.0560436 C16.4337586,49.3784516 50.4998918,48.3042401 89.5011668,47.1548481 C89.5011668,47.1548481 190.144899,45.9071434 220.401415,45.7697947 C226.358697,45.7437707 221.632274,46.6285856 228.650709,46.32931 C243.600483,45.6917228 276.139258,46.8035245 287.460824,46.1630458 C296.539145,45.6483495 298.489793,45.6469037 307.168231,46.3322016 C314.545585,46.9134035 363.210375,47.413642 368.722909,46.4507552 C370.063005,46.2165395 371.059786,46.3278642 371.048082,46.6632843 C371.941479,46.7225611 375.341461,46.8526809 376.244611,46.8888253 C376.599629,46.9018373 404.314449,47.9659285 404.439291,48.2117104 C404.67727,48.5514678 405.672101,48.7336355 406.62987,48.5413473 C408.37375,48.1914695 443.858005,48.1943611 444.378828,49.1876092 C445.874976,52.0386795 440.245403,63.6323574 436.008593,66.4010185 C431.602077,69.2781128 409.161812,65.0839165 390.221011,66.3778861 C390.221011,66.3778861 384.83917,66.2376458 376.763484,66.0294541 C295.795947,63.9330788 301.854663,64.6111478 285.560892,65.3629513 C283.47955,64.3248841 275.292676,66.6684871 270.400449,64.8728332 C268.350317,64.1210297 253.675585,63.8622358 250.406297,64.5576541 C248.075271,65.055001 172.946027,63.0959745 164.792315,65.2675301 C149.259297,63.4270572 88.7794267,66.6786075 82.5471033,66.9243894" id="Fill-8" style="mix-blend-mode: multiply;"></path>
                </g>
            </g>
        </g>
    </g>
</svg>