<?xml version="1.0" encoding="UTF-8"?>
<svg width="207px" height="46px" viewBox="0 0 207 46" version="1.1" xmlns="http://www.w3.org/2000/svg" xmlns:xlink="http://www.w3.org/1999/xlink">
    <g id="Screens-+-UI-Kit" stroke="none" stroke-width="1" fill="none" fill-rule="evenodd">
        <g id="wallfair-uikit" transform="translate(-766.000000, -419.000000)" fill="#EFFF54">
            <g id="Group" transform="translate(766.014602, 419.674086)">
                <path d="M38.1466937,43.7671662 C33.4126338,41.712994 2.95552908,45.6893261 0.933560238,45.2231799 C-0.986253576,44.4961106 0.410633736,29.6157093 1.93827159,27.3336453 C2.48009871,26.522165 3.1719123,26.3568524 4.82965555,26.6182238 C6.77886217,27.0059446 32.5521291,24.8904991 40.6617088,24.2914906 C41.1206299,24.7356723 42.3726535,23.1473809 42.6419983,23.6977275 C43.0563477,24.3319616 56.7318866,23.7760735 70.8895233,23.2632927 C79.7492902,22.9444611 92.204736,22.4976729 101.999445,22.3269346 C104.791893,22.2787521 102.541793,23.1703088 105.840372,22.8500068 C112.868583,22.1677153 128.04869,23.1549355 133.385045,22.4932399 C137.679909,21.9613792 138.590649,21.9498397 142.603405,22.6049648 C145.959377,23.1520501 168.755777,23.4567036 171.451833,22.5826377 C172.105439,22.3301323 172.561416,22.4581157 172.516582,22.7883263 C172.917893,22.842827 187.956387,23.982278 187.987761,24.258022 C188.052715,24.5936168 188.489091,24.7738148 188.969873,24.5808782 C189.821498,24.2368147 206.503139,24.1939574 206.59111,25.1740079 C206.842308,27.9620914 202.372154,39.3992568 200.021882,42.1036635 C197.537524,44.9662933 187.883224,40.8469529 178.986484,42.1599289 C135.37447,39.9242133 140.119953,40.4812922 131.114977,41.4242181 C130.231129,40.4083537 126.345849,42.7614107 124.203191,40.9879315 C123.321808,40.2610727 116.603457,40.0434341 115.059024,40.7444321 C114.401309,41.0425586 105.496959,40.6761101 96.291284,40.6091807 C93.4166129,40.5871789 78.0765912,40.4552291 75.814025,41.7611185 C68.6636541,40.0103925 41.0953424,43.4900429 38.1466937,43.7671662" id="Fill-1"></path>
                <path d="M40.7827173,31.2208488 C36.038066,28.3469376 7.27936753,34.5783899 5.07037147,33.955982 C3.17461238,32.9789052 3.67868405,12.1370438 5.04859954,8.90680509 C5.53708325,7.75971835 6.20037045,7.51405803 7.83017644,7.84109899 C9.46209836,8.26668505 27.7873729,5.74218302 42.6498402,3.8853159 C43.111491,4.50130142 44.2858803,2.25553183 44.5631903,3.02258132 C44.9845153,3.90412885 58.2846205,2.89446566 72.0566277,2.02500417 C78.3998609,1.62595206 86.8916198,0.926519067 102.321861,0.433505639 C105.036262,0.347564412 102.835832,1.61428047 106.049145,1.14724012 C112.898725,0.148381759 127.630933,1.47891349 132.838028,0.552342457 C137.035935,-0.19520819 137.922098,-0.220612381 141.793712,0.702071603 C144.879476,1.43732779 167.154865,1.96464518 169.846382,0.752528301 C170.499174,0.401946123 170.934349,0.582814999 170.870768,1.04633242 C170.870768,1.04633242 185.79226,2.82478538 185.813019,3.2114402 C185.839573,3.68473734 186.265822,3.94158911 186.745001,3.67018164 C187.597952,3.1892872 203.82564,3.29006831 203.828255,4.66656578 C203.836451,8.57906705 198.525832,24.5873564 196.049239,28.3602644 C193.418456,32.3578272 184.520867,26.4879528 175.848384,28.2789653 C133.909856,24.8997658 136.940104,26.0687352 129.969848,27.1429437 C129.156335,25.7146097 125.357773,29.0266091 123.351572,26.5419588 C122.533054,25.5253285 116.076024,25.2224076 114.58665,26.2253583 C114.265892,26.4109307 111.971078,26.4219075 108.652664,26.3460735 C105.003779,26.266531 79.852113,25.3964584 76.909944,27.9263075 C70.4184273,25.6829505 47.6756,30.0087949 40.7827173,31.2208488" id="Fill-4"></path>
            </g>
        </g>
    </g>
</svg>