<svg width="245" height="311" viewBox="0 0 245 311" fill="none" xmlns="http://www.w3.org/2000/svg">
<path d="M226.601 7.29126L150.99 7.69168C150.99 7.69168 149.922 39.3604 156.887 50.9929C163.852 62.6253 169.061 65.3973 169.061 65.3973C169.061 65.3973 167.315 72.1323 172.496 72.8078C177.678 73.4833 177.139 73.4031 177.139 73.4031L177.125 116.258L196.597 116.029L196.457 74.2383C196.457 74.2383 201.163 75.1414 202.636 73.264C204.11 71.3865 204.752 65.5654 204.752 65.5654C204.752 65.5654 220.873 56.2412 223.526 36.1453C226.18 16.0493 226.435 7.1274 226.435 7.1274L226.601 7.29126ZM156.088 116.337L156.038 128.63C156.038 128.63 167.08 124.036 170.636 123.116C174.192 122.196 181.08 123.292 181.08 123.292L184.367 125.701L175.844 132.107C175.844 132.107 178.791 134.193 179.411 134.052C180.031 133.912 217.612 132.296 217.612 132.296L217.759 116.499L156.088 116.337Z" fill="#FFD31A"/>
<path d="M150.231 7.90789C149.917 36.0828 155.656 59.5295 170.101 66.6055C167.804 67.717 168.155 73.1992 170.975 72.9802L173.282 72.7445C171.774 73.1309 170.829 69.5312 172.071 66.55C160.318 52.9992 156.988 31.258 157.748 7.86548L150.231 7.90789ZM178.345 73.4224L178.318 115.821L159.303 116.057L159.566 131.975L175.837 132.672L175.555 116.701L183.63 116.691L183.86 73.5695L178.345 73.4224Z" fill="#EA9C00"/>
<path d="M221.616 7.89958C222.152 34.4745 216.939 55.2404 197.822 66.0602C198.09 68.1263 198.178 69.8057 196.925 72.5469L192.672 72.6561C194.479 70.4772 193.976 68.5175 193.328 66.1197C203.579 59.851 215.226 42.2188 214.79 8.19753L221.616 7.89958Z" fill="#FFE98F"/>
<path d="M78.4008 125.414C78.4008 125.414 68.3008 134.679 66.2989 138.422C64.2971 142.164 61.8687 145.836 61.8687 145.836L56.589 157.253L57.8961 162.915L53.2415 169.857L61.4772 201.121L69.3127 201.755L72.1814 208.385L81.1111 209.138C82.0501 210.249 82.8197 242.964 81.0635 264.105C79.2617 285.792 81.7795 301.533 81.7795 301.533C82.5945 304.583 81.4399 308.625 88.019 308.771L126.048 308.894L130.299 307.652L154.996 306.675C161.286 298.996 156.112 292.168 148.44 285.525C151.729 256.303 152.607 224.092 149.754 187.257L146.025 165.067L167.179 150.661L155.649 128.798L155.78 122.097C155.78 122.097 153.31 126.481 149.96 126.543C145.836 126.618 130.215 122.358 123.369 122.047C104.51 121.191 89.5958 123.507 85.8655 123.99C79.681 124.791 77.9887 126.447 77.9887 126.447L78.4008 125.414Z" fill="#CEF6FE"/>
<path d="M188.872 50.2781C198.404 50.1184 206.001 42.2618 205.842 32.7298C205.682 23.1979 197.825 15.6002 188.293 15.76C178.761 15.9197 171.164 23.7764 171.323 33.3083C171.483 42.8402 179.34 50.4379 188.872 50.2781Z" fill="#FFD31A" stroke="#EA9C00" stroke-width="1.56582"/>
<path d="M188.814 46.8095C196.43 46.6818 202.501 40.4042 202.373 32.788C202.245 25.1717 195.968 19.101 188.351 19.2286C180.735 19.3563 174.665 25.6339 174.792 33.2501C174.92 40.8664 181.197 46.9371 188.814 46.8095Z" fill="#FFD31A" stroke="#EA9C00" stroke-width="0.782912"/>
<path d="M191.273 29.9327L192.628 34.6548L192.666 34.5347L194.436 26.2493L196.349 26.2187L198.745 26.1813L195.959 37.9341L194.87 42.509L191.046 42.5432L188.595 34.9132L187.542 39.5794L186.859 42.6543L182.935 42.6853L178.042 26.5378L182.221 26.4581L183.287 30.1643L184.571 34.7156L184.634 34.9538L186.485 26.3833L187.834 26.3587L190.23 26.3214L191.273 29.9327Z" fill="#FFE98F" stroke="#EA9C00" stroke-width="1.31443"/>
<path d="M197.211 7.32722C197.304 11.1848 197.407 13.8622 197.441 17.7732C199.609 19.2388 202.105 20.8831 203.157 22.6169C203.13 16.784 202.545 12.464 202.217 7.61887C200.822 7.5681 205.069 8.91854 197.943 7.64767L197.211 7.32722ZM198.062 19.2629C198.07 20.555 198.049 21.0155 198.039 22.3001C200.145 24.3474 203.115 29.3453 203.07 33.6588C203.182 37.6874 200.278 42.047 196.562 44.7752C196.378 46.2336 196.337 46.7931 196.091 47.9238C198.138 46.8781 199.857 44.412 201.763 41.8211C202.47 37.2206 203.32 33.0934 203.417 28.3217C203.429 27.7202 202.987 25.7528 202.992 25.1499C201.83 22.6957 200.469 21.1213 198.062 19.2629ZM201.784 45.0511C199.452 47.6912 196.916 48.9458 195.01 49.7168C193.209 57.4067 190.35 62.6096 185.053 66.695C186.617 67.0101 186.222 71.3099 185.12 72.9374L187.555 72.8593C188.632 70.2751 188.362 68.9623 188.434 66.4253C195.795 62.6978 196.21 56.7387 200.592 47.5502L201.784 45.0511Z" fill="#FFF3C5"/>
<path d="M198.222 23.8895C198.205 24.5574 198.226 25.1147 198.209 25.7777L199.302 25.7653L198.053 31.0169C197.925 34.8716 197.724 38.1609 197.372 41.6434C197.322 42.1264 197.269 42.6067 197.213 43.0838C197.201 43.1802 197.19 43.2751 197.178 43.3712C199.733 41.0152 201.468 36.5558 201.404 32.4351C201.19 29.0302 199.638 24.9503 198.221 23.8893L198.222 23.8895Z" fill="#FFF3C5"/>
<path d="M199.322 25.2584L199.32 25.5995C199.267 30.7616 199.045 35.9753 198.469 40.6934C198.419 41.1043 198.366 41.5129 198.311 41.9187C198.298 42.0006 198.287 42.0816 198.276 42.1632C200.668 39.7236 201.991 36.3688 201.936 32.8847C201.888 30.1143 200.963 27.2938 199.316 25.1162L199.322 25.2584Z" fill="#FFE98F"/>
<path d="M191.324 72.8752V115.69H194.443V72.8752H191.324ZM204.486 116.02V132.245H210.406V116.02H204.486Z" fill="#FFE98F"/>
<path d="M177.901 115.963H177.085C176.95 115.963 176.84 116.073 176.84 116.208V132.622C176.84 132.757 176.95 132.866 177.085 132.866H177.901C178.036 132.866 178.146 132.757 178.146 132.622V116.208C178.146 116.073 178.036 115.963 177.901 115.963Z" fill="#EA9C00"/>
<path d="M179.612 115.64H179.564C179.424 115.64 179.31 115.754 179.31 115.894V132.935C179.31 133.076 179.424 133.189 179.564 133.189H179.612C179.753 133.189 179.866 133.076 179.866 132.935V115.894C179.866 115.754 179.753 115.64 179.612 115.64Z" fill="#EA9C00"/>
<path d="M182.747 78.6603C182.323 78.6848 181.648 77.2169 181.077 77.5265C177.425 79.5077 176.015 81.7794 174.24 85.7946C172.465 89.8099 168.97 91.6064 169.162 95.0757C169.355 98.545 170.243 104.823 170.243 104.823L172.685 108.556L163.679 116.358L176.42 115.733L176.749 110.864C177.311 111.289 178.773 111.534 182.178 111.084C190.117 110.036 196.803 107.341 196.803 107.341L197.12 111.145C197.12 111.145 200.436 110.424 200.883 106.875C201.33 103.327 200.326 100.297 200.147 96.7043C199.968 93.1117 201.522 87.8906 201.371 86.1383C201.22 84.3861 200.264 81.0396 200.264 81.0396C197.732 79.7892 185.157 80.2997 185.157 80.2997C185.157 80.2997 185.036 78.5281 182.747 78.6603ZM174.127 122.585C166.996 122.579 155.571 129.918 155.571 129.918L138.316 136.219C138.316 136.219 136.488 139.78 140.048 148.615C143.609 157.45 149.908 162.675 149.908 162.675L166.886 150.388C166.886 150.388 182.447 144.473 194.759 144.635C207.071 144.797 206.58 134.872 206.58 134.872L171.384 134.003C171.384 134.003 178.161 130.927 182.461 128.094C186.761 125.261 181.862 123.119 174.804 122.608C174.584 122.592 174.357 122.585 174.127 122.585V122.585Z" fill="#FEFEFE"/>
<path d="M116.72 169.048L116.273 171.936L87.738 179.262L89.1896 185.699L117.704 179.342L119.623 188.226L148.667 183.991L146.879 164.989C146.879 164.989 137.55 169.418 134.95 170.246C132.35 171.073 116.72 169.048 116.72 169.048Z" fill="#FEFEFE"/>
<path d="M103.782 120.509C90.8801 120.574 76.6236 125.759 64.021 141.876L56.8121 157.17L58.2126 162.525L53.3967 169.609L62.0487 200.404L69.4046 201.537L71.137 207.627L81.6776 210.162C81.6776 210.162 82.4313 300.233 82.2562 301.279C82.0811 302.325 97.8856 302.163 97.8856 302.163L96.8791 269.063L95.5311 267.421C94.2367 241.199 93.0326 202.705 88.3665 186.554L77.0483 191.334L75.3725 185.816C74.9954 184.575 82.5163 181.458 86.2821 179.481C82.7472 164.991 81.0033 159.319 80.2061 154.97C81.9705 156.635 86.206 158.94 91.9067 162.167C102.748 168.305 119.321 168.991 130.06 169.827C140.798 170.664 148.799 162.651 148.799 162.651L141.081 151.768C134.433 155.629 129.076 157.877 121.384 159.278C111.169 158.355 98.6663 155.291 91.0319 148.946C86.6885 145.237 95.1051 139.154 102.493 137.486C114.276 134.826 124.046 125.659 123.287 123.711C119.862 122.36 112.61 120.464 103.782 120.509ZM155.527 124.01C154.48 126.057 152.594 128.02 148.75 129.786C141.576 131.165 135.295 128.874 129.508 127.656L135.013 137.016L155.726 129.373L155.527 124.01ZM132.078 209.426C132.066 209.551 132.062 210.036 132.059 210.696L132.166 210.622L132.078 209.426ZM130.962 210.696C129.949 213.689 124.391 216.733 119.158 219.774L121.424 286.546C127.622 289.983 131.545 294.351 132.233 300.045L133.347 300.013L132.472 267.785L131.701 267.642C131.701 267.642 130.941 219.121 130.962 210.696V210.696Z" fill="#92E1EE"/>
<path d="M158.541 298.845L131.729 300.177C131.729 300.177 120.458 304.075 103.213 302.375C101.105 302.168 99.2007 302.008 97.4712 301.885L99.0655 302.226L99.89 308.722L125.118 309L130.279 307.382L130.587 307.374C132.071 304.951 131.977 302.682 132.377 300.364L138.885 300.494L138.724 307.188L155.467 306.802C155.467 306.802 158.192 304.181 158.615 301.945C159.038 299.71 158.541 298.845 158.541 298.845L158.541 298.845Z" fill="#FEFEFE" stroke="#E5E5E5" stroke-opacity="0.462745" stroke-width="0.588762"/>
<path d="M131.95 302.789C131.46 306.736 128.206 308.646 124.301 308.538L87.0961 308.562C81.9798 307.929 81.48 300.409 81.3575 296.931C79.7256 266.797 85.4909 225.151 80.874 205.15C76.0162 183.912 67.4336 163.007 64.9935 148.294C61.1429 125.076 114.821 109.503 128.746 127.65C130.631 130.449 132.076 132.258 134.48 136.222M119.109 220.077C120.038 239.907 120.376 273.744 121.295 286.817L119.109 220.077ZM146.274 165.214C150.431 187.232 152.009 211.784 151.261 233.852C150.517 252.533 149.89 271.925 148.758 286.06L146.274 165.214Z" stroke="#33B9F1" stroke-width="4.47962" stroke-linecap="round" stroke-linejoin="round"/>
<path d="M116.254 172.653C107.625 172.951 84.3465 178.543 75.4866 184.661" stroke="#33B9F1" stroke-width="4.47962" stroke-linecap="round" stroke-linejoin="round"/>
<path d="M145.347 165.624C147.319 172.069 147.993 177.753 147.953 184.482C138.487 185.813 129.021 187.145 119.555 188.476L116.181 168.801" stroke="#33B9F1" stroke-width="4.40392" stroke-linecap="round" stroke-linejoin="round"/>
<path d="M117.112 179.624C106.513 180.015 86.5709 186.55 77.6836 191.586" stroke="#33B9F1" stroke-width="4.47962" stroke-linecap="round" stroke-linejoin="round"/>
<path d="M146.119 174.144C146.472 178.013 144.024 181.15 140.652 181.15C137.279 181.15 134.259 178.013 133.906 174.144C133.553 170.275 137.387 167.935 140.76 167.935C144.132 167.935 145.766 170.275 146.119 174.144Z" fill="#CEF6FE"/>
<path d="M134.979 170.249C134.466 171.373 134.23 172.726 134.363 174.182C134.719 178.081 137.584 181.242 140.764 181.242C143.943 181.242 146.232 178.081 145.876 174.182C145.596 171.11 143.759 168.497 141.437 167.526" stroke="#33B9F1" stroke-width="4.09666" stroke-linecap="round" stroke-linejoin="round"/>
<path d="M126.241 180.093C128.251 180.093 129.763 178.267 129.617 176.013C129.471 173.76 127.723 171.933 125.713 171.933C123.702 171.933 122.191 173.76 122.336 176.013C122.482 178.267 124.23 180.093 126.241 180.093Z" fill="#CEF6FE"/>
<path d="M126.389 179.692C124.547 179.692 122.944 177.997 122.809 175.906C122.674 173.815 124.057 172.12 125.899 172.12C127.741 172.12 129.344 173.815 129.479 175.906C129.615 177.997 128.231 179.692 126.389 179.692Z" stroke="#33B9F1" stroke-width="3.50038" stroke-linecap="round" stroke-linejoin="round"/>
<path d="M119.339 266.643C111.034 270.4 86.903 267.909 81.7559 266.922" stroke="#33B9F1" stroke-width="4.47962" stroke-linecap="round" stroke-linejoin="round"/>
<path d="M131.476 305.473C131.584 305.487 131.916 305.774 132.136 305.566C132.562 305.165 133.093 302.722 132.882 299.936C132.76 298.322 132.404 296.693 131.754 295.15C131.139 293.687 130.317 292.438 129.358 291.378C128.227 290.128 127.014 289.259 125.977 288.617C123.235 286.92 120.04 286.023 116.921 285.828C116.215 285.784 115.506 285.775 114.798 285.802C111.229 285.938 107.729 287.074 105.766 287.667C107.392 287.536 111.771 287.63 114.752 287.887C115.415 287.944 116.074 288.007 116.723 288.082C119.577 288.411 122.489 288.985 124.898 290.402C125.809 290.938 126.81 291.724 127.699 292.811C128.451 293.732 129.07 294.803 129.536 296.039C130.03 297.351 130.308 298.731 130.454 300.15C130.705 302.586 130.509 304.885 130.815 305.379C130.973 305.633 131.366 305.457 131.476 305.473V305.473Z" fill="#33B9F1"/>
<path d="M130.804 300.92C122.832 302.974 87.3496 302.243 82.2024 301.257" stroke="#33B9F1" stroke-width="4.47962" stroke-linecap="round" stroke-linejoin="round"/>
<path d="M157.833 299.27C154.516 300.124 141.199 300.18 132.523 300.252" stroke="#33B9F1" stroke-width="4.47962" stroke-linecap="round" stroke-linejoin="round"/>
<path d="M134.462 286.058C136.748 285.877 141.018 285.939 145.118 286.805C145.755 286.94 146.409 287.1 147.07 287.297C148.425 287.701 149.734 288.238 150.944 288.968C151.953 289.577 152.852 290.297 153.636 291.137C154.342 291.893 154.938 292.729 155.43 293.635C155.891 294.482 156.25 295.371 156.522 296.276C157.043 298.009 157.208 299.683 157.215 300.978C157.238 301.547 157.174 302.145 157.025 302.723C156.869 303.33 156.63 303.877 156.335 304.323C156.061 304.74 155.688 305.124 155.241 305.381C154.855 305.602 154.433 305.718 153.973 305.705C142.196 305.922 129.341 306.143 128.327 307.094C128.144 307.266 128.341 307.554 128.343 307.647C128.346 307.739 128.168 308.039 128.36 308.199C129.432 309.085 142.276 308.499 154.043 307.978C154.954 307.92 155.734 307.604 156.374 307.178C157.099 306.695 157.643 306.074 158.047 305.513C158.488 304.9 158.87 304.185 159.155 303.396C159.425 302.646 159.603 301.842 159.656 301.032C159.725 299.543 159.605 297.594 159.041 295.552C158.744 294.478 158.332 293.405 157.78 292.37C157.188 291.261 156.454 290.231 155.57 289.307C154.587 288.279 153.461 287.425 152.221 286.742C150.742 285.928 149.173 285.395 147.626 285.072C146.87 284.913 146.129 284.808 145.423 284.742C140.945 284.329 136.566 285.549 134.46 286.058H134.462Z" fill="#33B9F1"/>
<path d="M149.459 266.663C146.142 267.517 129.651 268.821 121.747 266.526" stroke="#33B9F1" stroke-width="4.47962" stroke-linecap="round" stroke-linejoin="round"/>
<path d="M80.6183 209.6L71.8421 208.56L56.8652 156.988L64.3908 141.299" stroke="#33B9F1" stroke-width="4.47962" stroke-linecap="round" stroke-linejoin="round"/>
<path d="M69.5709 201.129L62.3198 200.431C62.3198 200.431 53.485 168.394 53.3123 169.043L58.3677 161.984" stroke="#33B9F1" stroke-width="4.47962" stroke-linecap="round" stroke-linejoin="round"/>
<path d="M187.384 79.4506C185.496 79.4443 184.198 79.6399 184.416 80.2172C185.113 82.0645 185.964 83.7719 185.964 83.7719C184.763 82.4937 192.719 82.8854 193.998 82.9353C197.052 83.0544 199.759 82.4018 198.547 80.4421C198.547 80.4421 191.538 79.4624 187.384 79.4506ZM185.727 86.2157C186.628 83.9693 184.438 78.6001 178.555 91.0485C177.072 94.1863 173.715 98.5224 173.715 98.5224C173.457 101.248 173.258 105.672 173.846 109.108C174.048 111.316 170.84 114.02 169.171 115.956L176.689 116.174L177.358 111.583C177.79 111.702 178.615 111.75 180.097 111.643C185.047 111.285 190.979 110.703 192.631 109.853C194.283 109.003 196.171 107.829 196.171 107.829L196.517 111.475C198.456 109.933 200.136 107.886 200.709 106.748C201.285 105.603 201.957 103.158 201.417 103.467C200.624 103.92 200.53 104.102 196.28 103.875C194.347 103.772 183.965 110.463 180.684 108.391C177.402 106.319 183.192 102.533 183.192 102.533C182.157 101.053 182.319 97.7943 184.103 93.099L185.727 86.2157ZM196.517 111.475C196.505 111.483 196.495 111.494 196.483 111.503L196.594 112.276L196.517 111.475ZM179.942 123.913C179.912 124.617 179.937 126.504 176.449 128.049C172.961 129.593 163.884 134.28 163.884 134.28C163.884 134.28 170.334 134.293 174.98 132.351C179.625 130.408 189.228 124.785 179.942 123.913ZM205.883 134.112L190.108 134.742C190.108 134.742 193.64 137.176 185.244 139.106C176.002 140.24 168.604 139.334 161.058 141.616C160.168 141.952 140.716 150.607 140.716 150.607C140.716 150.607 144.918 157.244 146.65 159.828C148.381 162.412 149.894 163.252 149.894 163.252L167.489 149.909C167.489 149.909 182.914 147.188 188.279 146.086C193.645 144.984 196.943 144.61 198.266 144.585C199.589 144.56 203.645 144.405 204.827 140.289C206.009 136.174 205.883 134.112 205.883 134.112Z" fill="#CEF6FE"/>
<path d="M110.213 134.369L100.715 138.521L90.4643 140.995L79.6351 141.627L68.8664 140.323L58.7893 137.215L49.5685 132.48L41.3683 126.292L34.3531 118.825L28.6871 110.256L24.535 100.758L22.061 90.507L21.4296 79.6779L22.7339 68.909L25.8413 58.832L30.5765 49.6112L36.7649 41.411L44.2313 34.3958L52.8008 28.7299L62.2985 24.5777L72.5495 22.1037L83.3786 21.4723L94.1474 22.7766L104.224 25.884L113.445 30.6192L121.645 36.8076L128.661 44.274L134.327 52.8436L138.479 62.3412L140.953 72.5921L141.584 83.4212L140.28 94.1901L137.172 104.267L132.437 113.488L126.249 121.688L118.782 128.703L110.213 134.369Z" fill="#CAEFFE" fill-opacity="0.25"/>
<path d="M27.2602 53.9603L25.5777 57.5639L24.1345 61.2699L22.9369 65.0623L21.9897 68.925L21.2973 72.8413L20.8625 76.7945L20.6872 80.7677L20.772 84.7438L21.1168 88.7059L21.72 92.6369L22.579 96.5201L23.6901 100.339L25.0486 104.077L26.6486 107.718L28.4834 111.246L30.545 114.647L32.8246 117.906L35.3125 121.009L37.998 123.942L40.8696 126.694L43.915 129.252L47.1212 131.605L50.4744 133.743L53.9603 135.658L57.564 137.34L61.27 138.783L65.0624 139.981L68.925 140.928L72.8413 141.621L76.7945 142.055L80.7677 142.231L84.7439 142.146L88.7059 141.801L92.637 141.198L96.5202 140.339L100.339 139.228L104.077 137.869L107.718 136.269L111.246 134.434L114.647 132.373L117.906 130.093L121.009 127.605L123.942 124.92L126.694 122.048L129.252 119.003L131.605 115.797L133.743 112.444L135.658 108.958L137.34 105.354L138.784 101.648L139.981 97.8557L140.928 93.9931L141.621 90.0768L142.056 86.1236L142.231 82.1505L142.146 78.1743L141.801 74.2122L141.198 70.2811L140.339 66.398L139.228 62.5793L137.87 58.8414L136.27 55.2005L134.435 51.6719L132.373 48.2709L130.094 45.012L127.606 41.9092L124.92 38.9758L122.049 36.2243L119.003 33.6665L115.797 31.3133L112.444 29.1749L108.958 27.2603L105.354 25.5778L101.648 24.1347L97.8559 22.937L93.9933 21.9899L90.077 21.2974L86.1237 20.8626L82.1505 20.6873L78.1744 20.7722L74.2123 21.1169L70.2813 21.7201L66.3981 22.5791L62.5793 23.6902L58.8415 25.0487L55.2005 26.6487L51.6719 28.4834L48.2709 30.545L45.0121 32.8247L41.9092 35.3125L38.9758 37.998L36.2242 40.8696L33.6664 43.915L31.3132 47.1212L29.1747 50.4744L27.2602 53.9603Z" stroke="#33B9F1" stroke-width="5.02405" stroke-linecap="round"/>
<path d="M60.2254 114.55L60.5161 114.679L61.0795 115.054L61.6185 115.576L62.1309 116.239L62.6075 116.964L63.2535 118.136L63.6365 118.942L64.1197 120.064L64.5099 121.064L65.0545 122.557L65.3049 123.075L65.7614 123.769L66.2913 124.378L66.8815 124.935L67.3087 125.299L68.2767 126.045L68.8192 126.42L69.4252 126.801L70.4216 127.36L71.1396 127.72L71.879 128.049L72.6251 128.334L73.7501 128.685L75.5601 128.959L78.6581 128.895L79.34 128.899L80.0174 128.949L81.017 129.14L81.6648 129.353L83.5924 130.102L84.5798 130.392L85.5849 130.62L86.6078 130.794L87.9903 130.937L89.3723 131.011L90.7445 131.019L92.786 130.937L95.8258 130.706L98.2216 130.447L100.296 130.166L102.315 129.832L104.309 129.435L109.596 128.243L110.908 127.885L111.881 127.563L112.831 127.176L113.751 126.72L114.635 126.193L115.481 125.598L116.543 124.719L117.298 124.006L118.242 122.983L118.905 122.175L119.705 121.046L120.248 120.157L120.743 119.246L121.324 117.988L121.698 117.018L122.112 115.691L122.427 114.35L122.652 112.998L122.803 111.635L122.907 109.918L122.749 102.81L122.32 97.849L122.201 95.8576L122.155 93.4806L122.174 92.4433L122.177 91.3951L122.155 90.351L122.107 89.3047L122.013 88.2709L121.837 87.2653L121.406 85.983L117.254 77.266L116.588 75.6815L116.379 75.0258L116.142 74.0279L115.984 73.0065L115.662 69.9453L115.466 68.9326L115.25 68.2792L114.954 67.6652L114.367 66.8331L113.905 66.3261L112.425 64.8769L111.714 64.1191L111.044 63.3174L110.235 62.1844L109.512 60.9971L109.022 60.0716L107.575 56.8815L106.782 55.3419L105.864 53.8792L105.451 53.3293L104.789 52.5396L103.832 51.5471L102.563 50.3711L100.998 49.0271L99.4008 47.7308L98.0165 46.6797L96.8779 45.8792L95.7165 45.1262L94.3294 44.3236L96.1676 44.9328L93.5601 44.6816L91.5176 44.525L89.8132 44.4485L88.1181 44.4501L86.7652 44.5221L85.0517 44.7207L83.7038 44.9822L82.3745 45.3463L81.0716 45.8051L79.7931 46.3215L75.6677 48.1779L74.0639 48.8542L72.7725 49.3525L68.8691 50.7655L67.263 51.4206L65.9879 51.991L63.827 53.0907L62.3373 53.9697L60.9132 54.9486L59.5913 56.0512L58.8426 56.776L58.1249 57.5307L57.4461 58.3107L56.8084 59.1266L56.2183 59.9835L55.6738 60.8645L54.8837 62.3974L54.4743 63.3466L54.1085 64.3184L53.7921 65.3074L53.4261 66.6379L53.003 68.6605L52.7972 70.0267L52.6497 71.4067L52.5596 72.791L52.5168 74.1684L52.5167 75.8793L52.5629 77.5804L52.6466 79.2735L52.7853 80.9628L53.1306 83.6884L53.6091 86.3834L53.9094 87.7174L54.2626 89.042L54.5658 90.029L55.0216 91.3259L56.2884 94.5058L56.4538 95.0353L56.4123 95.126L56.0805 94.9632L54.5501 94.0278L53.6409 93.5717L52.0423 92.9237L50.4007 92.3801L49.0696 92.0259L47.7123 91.783L46.338 91.6834L44.9726 91.7248L43.6257 91.9087L42.6404 92.1786L42.0191 92.4557L41.4458 92.8208L41.1773 93.0322L40.4458 93.7475L39.8338 94.576L39.336 95.482L39.0669 96.1167L38.8416 96.7711L38.6668 97.4385L38.5055 98.4404L38.4752 99.1034L38.5417 100.08L38.6518 100.718L38.9039 101.656L39.1161 102.274L39.4947 103.194L40.0624 104.413L40.5278 105.317L41.2118 106.51L41.762 107.409L42.3165 108.299L42.8946 109.177L43.4803 110.042L44.1032 110.861L44.935 111.906L46.0323 113.135L47.0011 114.035L48.3362 115.045L49.5164 115.747L50.4386 116.215L51.7183 116.732L53.0072 117.076L53.9629 117.154L54.9124 117.087L55.8695 116.89L56.4976 116.651L57.1136 116.325L57.4142 116.136L58.0056 115.724L58.5771 115.299L59.6556 114.523L59.9331 114.47L60.2254 114.55Z" fill="#F1B67F"/>
<path d="M94.8217 85.1382C96.1403 86.7073 94.2707 88.5319 92.9683 89.569C91.5737 90.667 89.8214 91.1877 88.111 91.5539C86.8731 91.7565 85.4983 92.0425 84.3259 91.4373C83.7634 91.2021 82.834 90.5857 83.3804 89.9752C84.4869 88.2807 86.3463 86.367 88.2365 85.6396C93.4591 83.9277 90.1035 84.8384 94.8217 85.1382Z" fill="#FEFEFE"/>
<path d="M116.583 78.8479C116.727 78.2613 116.296 77.6779 115.732 77.5339C115.273 77.3992 114.901 77.0522 114.429 77.0117C113.178 76.9924 111.611 76.7081 110.508 77.3659C109.572 77.8868 108.471 78.8005 107.598 79.4159C106.922 80.0043 106.53 81.082 106.179 81.9332C105.922 82.4596 106.595 82.4385 106.91 82.5623C108.693 83.0841 110.595 82.8443 112.364 82.3896C113.827 81.996 115.247 81.2053 116.096 79.9147C116.322 79.5943 116.525 79.2413 116.583 78.8479Z" fill="#FEFEFE"/>
<path d="M88.827 86.5815L88.7691 86.7053L88.7195 86.8327L88.6783 86.9631L88.6458 87.0959L88.622 87.2305L88.607 87.3664L88.601 87.503L88.6039 87.6396L88.6158 87.7758L88.6365 87.911L88.666 88.0444L88.7042 88.1757L88.7509 88.3042L88.8059 88.4294L88.869 88.5506L88.9399 88.6676L89.0182 88.7796L89.1037 88.8862L89.1961 88.9871L89.2948 89.0817L89.3994 89.1696L89.5097 89.2505L89.6249 89.324L89.7448 89.3898L89.8686 89.4476L89.996 89.4972L90.1264 89.5384L90.2592 89.571L90.3938 89.5947L90.5297 89.6097L90.6662 89.6157L90.8029 89.6128L90.9391 89.6009L91.0742 89.5802L91.2077 89.5507L91.339 89.5125L91.4675 89.4658L91.5926 89.4108L91.7139 89.3477L91.8308 89.2769L91.9429 89.1985L92.0495 89.113L92.1503 89.0207L92.2449 88.922L92.3329 88.8173L92.4137 88.7071L92.4873 88.5918L92.5531 88.472L92.6109 88.3481L92.6605 88.2207L92.7017 88.0904L92.7342 87.9576L92.758 87.823L92.773 87.6871L92.779 87.5505L92.7761 87.4138L92.7642 87.2776L92.7435 87.1425L92.714 87.009L92.6758 86.8777L92.6291 86.7492L92.5741 86.6241L92.511 86.5028L92.4402 86.3859L92.3618 86.2739L92.2763 86.1672L92.184 86.0664L92.0853 85.9718L91.9806 85.8839L91.8703 85.803L91.7551 85.7295L91.6353 85.6637L91.5114 85.6058L91.384 85.5562L91.2536 85.5151L91.1209 85.4825L90.9862 85.4587L90.8504 85.4438L90.7138 85.4377L90.5771 85.4406L90.4409 85.4525L90.3058 85.4732L90.1723 85.5028L90.041 85.541L89.9126 85.5876L89.7874 85.6427L89.6661 85.7057L89.5492 85.7766L89.4372 85.8549L89.3305 85.9405L89.2297 86.0328L89.1351 86.1315L89.0472 86.2362L88.9663 86.3464L88.8928 86.4617L88.827 86.5815Z" fill="#2B452F"/>
<path d="M110.127 78.3806L110.069 78.5044L110.02 78.6318L109.978 78.7622L109.946 78.8949L109.922 79.0296L109.907 79.1655L109.901 79.302L109.904 79.4387L109.916 79.5749L109.937 79.71L109.966 79.8435L110.004 79.9748L110.051 80.1033L110.106 80.2284L110.169 80.3497L110.24 80.4666L110.318 80.5786L110.404 80.6853L110.496 80.7862L110.595 80.8807L110.699 80.9686L110.81 81.0495L110.925 81.123L111.045 81.1888L111.169 81.2467L111.296 81.2963L111.426 81.3375L111.559 81.37L111.694 81.3938L111.83 81.4088L111.966 81.4148L112.103 81.4119L112.239 81.4L112.374 81.3793L112.508 81.3497L112.639 81.3116L112.768 81.2649L112.893 81.2099L113.014 81.1468L113.131 81.0759L113.243 80.9976L113.35 80.9121L113.45 80.8197L113.545 80.721L113.633 80.6163L113.714 80.5061L113.787 80.3909L113.853 80.2711L113.911 80.1472L113.961 80.0198L114.002 79.8894L114.034 79.7566L114.058 79.622L114.073 79.4861L114.079 79.3496L114.076 79.2129L114.064 79.0767L114.044 78.9416L114.014 78.8081L113.976 78.6768L113.929 78.5483L113.874 78.4232L113.811 78.3019L113.74 78.185L113.662 78.073L113.576 77.9663L113.484 77.8654L113.385 77.7709L113.281 77.683L113.17 77.6021L113.055 77.5285L112.935 77.4627L112.811 77.4049L112.684 77.3553L112.554 77.3141L112.421 77.2816L112.286 77.2578L112.15 77.2428L112.014 77.2368L111.877 77.2397L111.741 77.2516L111.606 77.2723L111.472 77.3018L111.341 77.34L111.213 77.3867L111.087 77.4417L110.966 77.5048L110.849 77.5757L110.737 77.654L110.631 77.7395L110.53 77.8318L110.435 77.9306L110.347 78.0352L110.266 78.1455L110.193 78.2607L110.127 78.3806Z" fill="#2B452F"/>
<path d="M64.8442 77.9887L64.9001 77.2982L64.8727 76.594L64.7749 75.8819L64.4012 74.4597L63.3472 71.3586L63.1312 70.3525L62.9914 69.0034L62.983 68.3265L63.0219 67.6491L63.1536 66.638L63.4232 65.2996L63.6764 64.2966L63.9921 63.3072L64.3718 62.3401L64.8141 61.4038L65.3237 60.5006L65.8845 59.6362L66.4978 58.8067L67.3875 57.7478L68.102 56.9929L69.1089 56.0338L69.9168 55.3776L70.4843 54.9905L71.0808 54.6446L72.0112 54.2005L73.6416 53.6154L75.3067 53.197L76.67 52.9856L80.7397 52.5289L82.0924 52.2929L83.0963 52.053L84.4161 51.6521L85.7018 51.1676L86.6453 50.7358L87.8671 50.0702L89.0148 49.3093L90.3786 48.2424L91.4086 47.3134L92.372 46.3068L93.2454 45.2381L94.0312 44.109L94.7212 42.9096L95.1471 41.9568L95.4845 40.9765L95.7151 39.9692L95.8623 38.9465L95.8851 37.9188L95.7981 37.2454L95.5109 36.272L95.0845 35.3357L94.5554 34.4448L94.1376 33.9002L93.4106 33.1652L92.6152 32.5116L91.4857 31.707L90.303 30.9871L88.4781 29.9844L86.4173 28.7284L85.1664 28.1424L84.5179 27.9125L83.5166 27.6463L82.4925 27.448L81.4647 27.2996L80.0818 27.1644L77.3066 26.976L76.6197 26.9711L75.9415 27.0307L74.9394 27.2344L73.6215 27.6218L72.6566 27.9762L70.4321 28.9307L69.4726 29.3088L68.4967 29.6438L67.5057 29.9347L66.1747 30.2572L64.8384 30.5176L60.7633 31.096L58.4037 31.5453L57.4057 31.8056L56.7518 32.0235L56.1161 32.2859L55.5004 32.5954L54.6239 33.1454L53.8136 33.7829L53.066 34.5014L51.2131 36.5386L49.9958 37.7653L48.709 38.9188L45.5102 41.5935L44.2289 42.7653L42.0417 44.9804L40.194 47.0437L38.5475 48.8119L37.8846 49.6005L37.4753 50.1546L37.0957 50.7334L36.578 51.6308L35.6698 53.4939L34.751 55.7457L34.4264 56.7313L34.1746 57.7421L34.0054 58.7669L33.805 60.4891L33.5492 61.8516L33.1907 63.1797L32.34 65.7961L32.167 66.4601L31.9708 67.4737L31.757 69.1842L31.468 72.6456L31.4577 74.0143L31.5899 75.7212L31.9293 78.1069L32.4217 80.4593L32.9922 82.4466L33.8092 84.7028L34.3283 85.9771L34.9401 87.2205L36.8833 90.5025L37.8489 92.3282L38.5763 93.8998L39.5837 96.3461L39.7144 96.4079L39.8599 96.2857L40.1383 95.9095L41.2701 93.5797L41.6076 92.9741L41.9883 92.3997L42.6578 91.6209L43.1762 91.1803L43.754 90.8148L44.3765 90.5269L45.0266 90.3039L45.6905 90.1372L46.364 90.0275L47.0445 89.9732L47.7305 89.9738L48.7569 90.0584L49.4318 90.1728L50.4284 90.4294L51.4061 90.7715L52.046 91.0469L52.6638 91.3516L53.5643 91.8616L54.4287 92.4317L55.2543 93.0558L56.5419 94.2092L57.263 94.9656L57.7136 95.4939L58.3333 96.3254L58.9111 97.2057L59.995 99.104L57.8982 95.3795L58.1443 92.4145L58.3986 90.3979L58.6259 89.0458L58.7959 88.3801L59.0144 87.7248L59.5539 86.4588L60.2105 85.254L60.9802 84.1094L62.6217 82.2663L63.3041 81.4445L63.7103 80.8668L64.0628 80.2662L64.4919 79.3194L64.7043 78.6649L64.8442 77.9887Z" fill="#484848"/>
<path d="M112.85 106.085C112.85 106.085 112.123 107.813 112.559 109.286C112.995 110.759 113.532 111.575 113.532 111.575C113.532 111.575 110.438 114.052 107.578 113.325C104.717 112.597 103.323 109.784 103.323 109.784L101.845 108.671L112.85 106.085Z" fill="#71524B"/>
<path d="M105.994 109.35C103.86 109.188 101.416 108.807 99.9948 108.272C100.126 107.935 102.138 107.767 102.516 107.45C105.249 107.202 107.33 106.334 109.573 105.61C110.172 105.399 111.676 104.722 112.249 104.462C112.932 103.919 113.225 104.317 113.159 105.152C113.213 105.877 112.781 106.775 112.233 107.282C110.307 108.74 108.231 109.143 105.994 109.35L105.994 109.35Z" fill="#FEFEFE"/>
<path d="M44.1768 103.446L43.8088 102.657L43.2765 101.235L42.7456 99.3569L42.4071 97.6745L42.2334 96.1828L42.2164 95.5407L42.2489 94.6807L42.4477 93.1104L41.8281 93.261L41.2387 94.3766L40.7043 95.56L40.2508 96.7929L39.9502 97.8446L39.7898 98.7056L39.7354 99.5754L39.7856 100.443L39.9049 101.298L40.1299 102.351L40.3805 103.18L40.7858 104.186L41.2759 105.161L41.941 106.294L42.9024 107.751L44.9389 110.586L45.7601 111.616L46.6097 112.609L47.2244 113.241L47.8744 113.83L48.7304 114.503L49.8186 115.238L50.5862 115.674L51.3886 116.026L52.4294 116.339L53.7092 116.595L54.7936 116.705L55.6571 116.697L56.5055 116.568L57.3329 116.315L58.1447 115.954L58.9221 115.494L59.6039 114.927L60.0173 114.429L60.3192 113.864L60.4898 113.258L60.5048 112.84L60.3751 112.228L60.2901 112.037L60.0583 111.683L59.593 111.253L59.2226 111.055L58.6068 110.914L55.8007 110.746L53.4245 110.493L52.3647 110.263L51.1306 109.837L50.3366 109.473L49.3696 108.958L48.6307 108.487L47.9191 107.972L47.2434 107.408L46.4556 106.643L45.8666 105.996L45.3219 105.306L44.8262 104.585L44.4884 104.022L44.1768 103.446Z" fill="#E1A272"/>
<path d="M59.4922 110.856L60.6318 110.804L62.2777 112.752L63.3333 113.898L64.6099 115.156L65.8561 116.344L66.8276 117.177L68.0572 118.08L69.1696 118.794L71.0564 119.929L72.5863 120.8L74.1281 121.615L75.8951 122.491L77.6526 123.35L79.0507 123.967L83.5657 125.658L87.6653 126.728L90.2508 127.27L92.2206 127.608L93.3148 127.747L94.1968 127.821L96.3787 127.88L102.19 127.823L103.683 127.738L104.763 127.587L106.046 127.319L111.913 125.942L112.276 125.903L112.367 125.965L112.377 126.099L112.316 126.404L112.16 126.742L111.948 127.08L111.387 127.661L110.669 128.087L109.65 128.466L108.804 128.724L107.762 129.055L106.755 129.408L105.561 129.788L101.043 130.504L91.5949 130.785L90.3167 130.81L87.5182 130.546L86.7294 130.404L85.9707 130.296L84.5779 130.193L83.1332 130.201L77.1181 128.857L75.6118 128.483L74.2908 128.162L72.9118 127.744L71.9381 127.354L68.5659 125.53L67.6475 124.975L66.7956 124.337L66.0157 123.61L65.4404 122.973L64.6636 121.918L63.7908 120.433L62.9503 118.763L62.109 117.268L61.1963 115.698L60.4826 114.272L59.9796 112.812L59.4922 110.856Z" fill="#E1A272"/>
<path d="M96.9981 45.371L98.5935 46.4214L98.6928 46.4974L100.164 47.744L101.635 48.9907L101.718 49.0719L103.045 50.4819L104.371 51.8918L104.442 51.977L105.599 53.5139L106.757 55.0509L106.82 55.1456L107.696 56.6369L108.572 58.1282L108.573 58.1295L109.81 60.2515L111.027 62.34L111.972 63.7125L111.99 63.738L112.726 64.881L113.568 65.4351L114.324 65.8618L114.392 65.9088L115.06 66.5116L115.122 66.5617L116.205 67.617L116.362 67.7925L116.471 68.0014L117.053 69.3988L117.11 69.6432L117.32 71.0327L117.325 71.1506L117.265 72.162L117.186 73.1073L117.186 73.1108L117.194 74.2186L117.217 75.2574L117.231 76.2573L117.389 77.4581L117.929 78.6611L118.699 79.796L119.658 80.8839L119.714 80.9534L120.553 82.0607L120.678 82.2871L121.296 83.8004L121.321 83.8711L121.834 85.5389L121.866 85.6778L122.188 87.6842L122.198 87.771L122.265 89.7333L122.267 89.8124L122.297 91.7578L122.495 93.8422L122.488 94.0509L122.44 94.2541L122.353 94.4442L122.231 94.6136L122.078 94.7559L121.901 94.8657L121.705 94.9387L121.499 94.9722L121.29 94.9646L121.087 94.9166L120.897 94.8299L120.727 94.7078L120.585 94.5549L120.475 94.3772L120.402 94.1816L120.369 93.9754L120.302 91.8451L120.301 91.77L120.38 89.8281L120.174 87.9591L119.877 86.0655L119.397 84.5013L118.888 83.1258L118.183 82.1372L117.183 81.0245L117.076 80.8795L116.357 79.546L116.307 79.4518L115.687 78.083L115.615 77.8346L115.42 76.4745L115.414 76.4103L115.292 75.3535L115.289 75.2903L115.311 74.2185L115.311 74.2151L115.325 73.1079L115.242 72.1568L115.241 72.1484L115.193 71.1362L115.128 69.9774L114.784 68.8846L113.768 68.1204L113.058 67.7092L112.362 67.2266L112.309 67.1911L111.354 66.4584L111.088 66.181L110.24 64.8969L109.267 63.5151L109.226 63.4491L107.961 61.3434L106.697 59.2386L105.807 57.7572L104.944 56.3237L103.84 54.8181L102.735 53.311L101.485 51.9059L100.237 50.503L98.8448 49.2545L97.4557 48.0089L95.9258 46.9731L94.3438 45.9025L94.1995 45.7842L94.081 45.6399L93.9923 45.4756L93.9381 45.2969L93.9197 45.1111L93.938 44.9253L93.9922 44.7466L94.0801 44.582L94.1985 44.4377L94.3427 44.3192L94.5071 44.2305L94.6857 44.1763L94.8715 44.1579L95.0573 44.1762L95.2361 44.2303L95.4007 44.3182L96.9802 45.3582L96.9981 45.371Z" fill="#A47559"/>
<path d="M122.84 97.7329L122.842 97.7477L123.187 101.339L123.189 101.373L123.415 104.997L123.417 105.049L123.454 108.626L123.452 108.701L123.23 112.151L123.218 112.254L122.666 115.497L122.632 115.636L121.68 118.594L121.587 118.799L119.695 121.937L119.55 122.123L116.89 124.768L116.753 124.883L113.557 127.041L113.439 127.11L109.94 128.792L109.837 128.835L106.261 130.051L106.163 130.079L103.372 130.691L103.296 130.705L100.079 131.123L100.022 131.129L96.484 131.357L96.4363 131.359L92.6809 131.399L92.6384 131.398L88.7691 131.254L88.7283 131.252L84.8487 130.925L84.8064 130.921L81.0202 130.416L80.9732 130.408L77.3841 129.728L77.328 129.715L74.0396 128.862L73.968 128.84L71.0839 127.817L70.9867 127.776L68.6103 126.586L68.4729 126.5L66.7073 125.146L66.5699 125.013L64.3272 122.287L64.2563 122.187L62.3911 119.051L62.3511 118.977L60.7918 115.582L60.7709 115.533L59.4439 112.026L59.4332 111.997L58.2642 108.523L58.2325 108.388L58.2277 108.249L58.2502 108.112L58.299 107.981L58.3723 107.863L58.4672 107.761L58.5802 107.68L58.7069 107.623L58.8423 107.591L58.9813 107.586L59.1185 107.609L59.2487 107.657L59.367 107.731L59.4685 107.826L59.5497 107.939L59.6073 108.065L60.7991 111.515L62.176 114.957L63.7814 118.255L65.6529 121.267L67.8178 123.854L69.4438 125.098L71.7025 126.224L74.5041 127.209L77.7309 128.036L81.2704 128.696L85.0133 129.183L88.8522 129.494L92.6802 129.625L96.3904 129.575L99.8748 129.343L103.023 128.928L105.726 128.333L109.194 127.135L112.563 125.47L115.6 123.36L118.085 120.834L119.842 117.886L120.731 115.101L121.246 111.978L121.438 108.617L121.376 105.105L121.129 101.526L120.769 97.9604L120.37 94.4899L120.367 94.2851L120.404 94.0835L120.48 93.893L120.591 93.7209L120.733 93.5738L120.902 93.4574L121.09 93.3763L121.291 93.3333L121.496 93.3301L121.697 93.3669L121.888 93.4425L122.06 93.5538L122.207 93.6965L122.323 93.8651L122.404 94.0533L122.447 94.2536L122.836 97.698L122.84 97.7329Z" fill="#A47559"/>
<path d="M114.087 70.2846L113.367 70.3503L112.559 70.5605L111.604 70.7503L111.051 70.8562L110.421 71.0023L109.725 71.2041L109.257 71.3718L108.666 71.6672L108.026 72.1017L107.258 72.7368L106.607 73.3197L106.148 73.8276L105.838 74.2179L105.595 74.6334L105.397 75.0845L105.239 75.6916L105.196 76.246L105.216 76.8211L105.29 77.5771L105.486 78.3859L105.746 79.3444L106.163 80.5118L106.639 81.7291L107.655 84.0048L109.126 86.6352L111.009 89.3495L113.008 91.3334L113.055 91.3922L113.388 91.8181L113.461 91.9355L113.798 92.576L113.889 92.8457L113.948 93.6688L113.961 93.8382L113.865 94.6839L113.847 94.8298L113.608 95.7309L113.564 95.8649L113.151 96.7466L113.081 96.8717L112.443 97.7147L112.377 97.7946L111.54 98.4342L111.508 98.4642L110.313 99.2563L110.298 99.2689L109.295 99.931L109.256 99.9554L109.213 99.9714L109.169 99.9795L109.123 99.9782L109.079 99.9678L109.037 99.949L109 99.9226L108.969 99.8891L108.945 99.8505L108.929 99.8078L108.921 99.763L108.922 99.7174L108.932 99.6729L108.951 99.6313L108.978 99.5943L109.011 99.5636L109.9 98.7687L110.825 97.7145L111.382 96.908L111.886 96.1225L112.189 95.3483L112.317 94.5709L112.264 93.7952L112.051 93.1709L111.81 92.7974L111.581 92.4663L109.938 90.2288L109.896 90.1757L107.931 87.4234L107.885 87.3486L106.492 84.6117L106.48 84.5876L105.319 82.3468L105.304 82.3137L104.748 81.0851L104.732 81.0413L104.311 79.8237L104.296 79.7754L104.012 78.7755L104.002 78.7343L103.832 77.8685L103.821 77.8116L103.67 76.9654L103.663 76.8947L103.619 76.2229L103.621 76.1248L103.665 75.4706L103.679 75.3718L103.785 74.6813L103.803 74.6124L103.902 74.055L103.926 73.9851L104.061 73.4098L104.107 73.3096L104.3 72.7316L104.357 72.6354L104.717 71.9005L104.798 71.7931L105.345 70.9478L105.436 70.8504L106.226 69.9645L106.372 69.8417L107.139 69.2292L107.315 69.1189L108.009 68.7272L108.131 68.6698L108.669 68.4148L108.761 68.3799L109.503 68.0897L109.571 68.0679L110.283 67.8218L110.386 67.7959L111.067 67.6278L111.203 67.6045L112.337 67.5191L112.501 67.5071L113.451 67.677L113.587 67.6813L114.377 67.8683L114.467 67.8791L115.456 68.083L115.678 68.1409L115.885 68.241L116.068 68.3795L116.22 68.5511L116.337 68.7491L116.412 68.9661L116.443 69.1935L116.43 69.4227L116.372 69.6449L116.272 69.8515L116.133 70.0347L115.962 70.1873L115.764 70.3035L115.547 70.3788L115.32 70.4104L115.09 70.397L114.097 70.2872L114.087 70.2846Z" fill="#A47559"/>
<path d="M109.184 84.438L111.137 84.3497L113.396 84.3928L115.364 83.9443L115.405 83.9326L115.448 83.9293L115.49 83.9344L115.531 83.9479L115.568 83.9689L115.601 83.9968L115.626 84.0308L115.646 84.0691L115.657 84.1103L115.661 84.153L115.655 84.1955L115.642 84.2363L115.621 84.2736L115.593 84.3061L115.559 84.3318L115.521 84.3511L113.707 85.3667L113.587 85.3969L111.296 86.0248L111.186 86.0317L109.075 85.9319L108.87 85.9027L107.339 85.3636L107.22 85.3163L107.112 85.2467L107.02 85.1573L106.948 85.0517L106.896 84.9342L106.87 84.809L106.868 84.6808L106.891 84.5548L106.939 84.4357L107.008 84.3282L107.098 84.2362L107.203 84.1635L107.321 84.1123L107.446 84.0855L107.574 84.0838L107.7 84.1071L109.168 84.4336L109.184 84.438Z" fill="#A47559"/>
<path d="M113.125 91.1571L114.304 92.4865L115.311 92.8736L116.363 93.2294L117.419 93.5713L118.628 93.7982L118.687 93.8073L118.742 93.8274L118.793 93.8582L118.836 93.8981L118.871 93.946L118.895 93.9997L118.91 94.0568L118.912 94.1157L118.903 94.1741L118.883 94.2295L118.852 94.28L118.812 94.3236L118.764 94.3579L118.711 94.3828L118.654 94.3972L118.595 94.3997L117.346 94.4912L117.302 94.4868L116.143 94.4961L116.086 94.4849L114.946 94.3052L114.917 94.2977L113.642 94.0298L113.452 93.9492L113.289 93.8246L111.768 92.513L111.738 92.482L110.851 90.9762L110.782 90.8861L110.732 90.7842L110.703 90.6747L110.695 90.5614L110.71 90.4489L110.747 90.3415L110.803 90.2432L110.878 90.158L110.968 90.089L111.07 90.0389L111.18 90.0096L111.293 90.0023L111.405 90.0172L111.513 90.0538L111.611 90.1106L111.696 90.1855L113.11 91.1469L113.125 91.1571Z" fill="#A47559"/>
<path d="M102.074 93.517L101.487 94.042L100.938 94.5784L100.668 95.1788L100.49 95.9297L100.484 96.694L100.411 97.62L100.451 98.9929L100.458 99.0176L100.459 99.0438L100.456 99.0692L100.447 99.0936L100.434 99.116L100.416 99.1352L100.396 99.1507L100.373 99.1618L100.348 99.1688L100.322 99.1695L100.296 99.1663L100.272 99.1576L100.249 99.1444L100.23 99.1272L100.215 99.1066L100.204 99.0832L99.3384 97.9487L99.3112 97.8404L98.9624 96.9056L98.9587 96.877L98.7693 95.9675L98.7886 95.6704L99.0435 94.6464L99.1437 94.405L99.702 93.6461L99.9051 93.425L100.75 92.9422L100.842 92.8858L101.704 92.6791L101.793 92.6457L102.902 92.6429L102.935 92.6368L102.97 92.638L103.003 92.6458L103.034 92.6599L103.062 92.6798L103.085 92.705L103.103 92.7341L103.115 92.766L103.121 92.7994L103.12 92.8336L103.112 92.8669L103.098 92.898L103.078 92.9258L103.053 92.9489L103.024 92.9669L102.992 92.9792L102.084 93.5117L102.074 93.517Z" fill="#A47559"/>
<path d="M104.021 97.8594L104.247 97.8076L105.69 97.6778L105.952 97.6882L106.667 98.2172L106.768 98.2462L106.862 98.2945L106.944 98.3599L107.012 98.4403L107.063 98.5323L107.095 98.6325L107.107 98.737L107.098 98.8418L107.069 98.9428L107.021 99.0363L106.955 99.1185L106.875 99.1864L106.783 99.2373L106.683 99.2693L106.578 99.2811L106.473 99.2722L105.617 99.513L104.441 99.6909L103.713 99.5081L103.618 99.5324L103.521 99.5376L103.424 99.5236L103.332 99.4912L103.248 99.4413L103.175 99.3762L103.117 99.2981L103.075 99.2101L103.05 99.1154L103.045 99.0181L103.059 98.9214L103.092 98.8294L103.141 98.7455L103.207 98.6727L103.285 98.6142L103.373 98.5719L104.015 97.8663L104.021 97.8594Z" fill="#A47559"/>
<path d="M95.4851 90.7732L95.4442 90.8609L95.0208 91.7707L94.9707 91.8449L94.3993 92.7044L94.3288 92.782L93.5604 93.5457L93.4613 93.6251L92.4882 94.207L92.3863 94.2629L91.0632 94.6862L90.993 94.7123L89.6524 94.9248L89.6147 94.9329L87.9486 95.1334L87.8947 95.1376L87.8412 95.1312L87.7899 95.1144L87.7428 95.088L87.7018 95.0529L87.6684 95.0105L87.644 94.9624L87.6289 94.9107L87.6247 94.8569L87.6312 94.8033L87.648 94.752L87.6744 94.7049L87.7095 94.6639L87.7519 94.6305L87.8 94.6062L87.8516 94.5911L89.4665 94.2113L90.6617 93.6969L91.773 93.0342L92.5809 92.425L93.2974 91.7755L93.9348 91.0912L94.4655 90.3514L95.2884 89.0993L95.3057 89.0633L95.3296 89.0313L95.3593 89.0042L95.3936 88.9837L95.4313 88.9702L95.4709 88.9646L95.5109 88.9668L95.5496 88.9768L95.5857 88.994L95.6176 89.018L95.6447 89.0476L95.6653 89.082L95.6787 89.1197L95.6843 89.1593L95.6822 89.1992L95.6722 89.238L95.4857 90.7568L95.4851 90.7732Z" fill="#A47559"/>
<path d="M83.3679 88.7219C83.8072 87.9973 84.1723 87.2188 84.7742 86.6088C85.2317 85.9854 85.8616 85.5372 86.4792 85.0866C87.0681 84.7364 87.6661 84.3902 88.296 84.1173C89.0404 83.9656 89.782 83.7459 90.5498 83.8025C91.4255 83.8073 92.3137 83.8545 93.1456 84.1535C93.9768 84.3442 94.7624 84.6974 95.543 85.0252C95.6944 85.6687 94.7223 85.2377 94.359 85.2834C93.2372 85.1833 92.0934 85.1038 90.9842 85.3502C90.2322 85.5044 89.4816 85.6915 88.7513 85.9213C87.6521 86.4655 86.5258 86.9843 85.5665 87.7607C84.9468 88.2298 84.4837 88.8685 83.9793 89.4531C83.6041 89.9202 83.2835 90.4307 82.8834 90.8774C82.2292 90.9721 82.7023 90.2008 82.8393 89.8989C83.0157 89.5067 83.1922 89.1145 83.368 88.722L83.3679 88.7219Z" fill="#A47559"/>
<path d="M106.089 79.704L106.149 79.5903L106.797 78.2969L106.912 78.1627L107.819 77.1603L107.916 77.0821L108.78 76.4518L108.899 76.3818L110.03 75.822L110.229 75.7515L111.664 75.451L111.835 75.4287L113.023 75.5252L113.178 75.5357L114.567 76.0042L114.632 76.0195L115.578 76.4487L115.651 76.4787L115.716 76.5223L115.771 76.5779L115.815 76.643L115.845 76.7156L115.86 76.7925L115.86 76.8709L115.845 76.9479L115.815 77.0204L115.771 77.0857L115.716 77.1412L115.65 77.1843L115.577 77.2134L115.501 77.2287L115.422 77.2287L115.345 77.2134L114.352 77.0532L112.996 77.0506L111.981 77.2217L110.746 77.5333L109.768 78.0035L108.981 78.5138L108.02 79.2328L107.146 80.1867L106.345 81.4145L106.319 81.464L106.285 81.5075L106.242 81.5428L106.194 81.5703L106.141 81.5876L106.086 81.5941L106.031 81.5897L105.977 81.5746L105.928 81.5494L105.884 81.5149L105.849 81.4723L105.821 81.4242L105.803 81.3716L105.797 81.3164L105.801 81.2611L105.816 81.2078L106.084 79.7176L106.089 79.704Z" fill="#A47559"/>
<path d="M93.7439 79.0091L92.7827 78.4884L91.6044 78.1165L90.0284 77.6862L88.4395 77.771L86.6527 78.0426L85.9088 78.2326L84.4859 78.8429L83.3981 79.23L82.0083 80.0574L80.8896 80.9573L79.7092 81.8788L78.7306 82.8949L78.3641 83.3241L77.564 84.4555L76.8951 85.9559L76.8869 85.9783L76.8744 85.9986L76.858 86.0155L76.8391 86.0302L76.8176 86.0404L76.7946 86.0465L76.7709 86.0478L76.7471 86.0437L76.7247 86.0355L76.7044 86.0231L76.6875 86.0066L76.6728 85.9877L76.6625 85.9662L76.6564 85.9432L76.6552 85.9195L76.6593 85.8958L76.8048 84.2291L76.8247 84.1709L77.1319 82.727L77.1586 82.672L77.3511 82.061L77.391 81.995L78.0039 80.6436L78.0951 80.5266L78.9917 79.1406L79.1071 79.0274L80.2877 77.9322L80.4371 77.8196L82.0201 76.686L82.2281 76.5739L83.4092 75.9503L83.5787 75.8872L85.2529 75.537L85.4124 75.4983L86.3608 75.3675L86.5506 75.3468L88.4334 75.4793L88.5941 75.4846L90.318 75.9105L90.5235 75.9564L92.1855 76.6626L92.3063 76.7169L93.3374 77.5721L93.4034 77.6153L94.2055 78.4473L94.2409 78.4782L95.0709 79.7404L95.0787 79.7488L95.0839 79.7586L95.0874 79.7691L95.0895 79.7804L95.088 79.7917L95.0845 79.8023L95.0788 79.8121L95.0724 79.8206L95.064 79.8283L95.0542 79.8335L95.0436 79.837L95.0324 79.8391L95.0211 79.8377L95.0105 79.8341L95.0007 79.8285L94.9922 79.8221L93.757 79.0204L93.7439 79.0091Z" fill="#A47559"/>
<path d="M85.951 68.5723L85.9526 68.572L89.0257 67.9503L89.0632 67.9457L91.9455 67.5433L93.9102 67.1027L95.5303 66.5774L96.7388 65.9434L97.9278 65.2898L99.3347 64.4899L99.3562 64.4739L101.422 63.1931L101.444 63.1788L102.701 62.498L102.731 62.4796L103.87 62.0084L103.928 61.9847L103.99 61.9726L104.053 61.9728L104.115 61.9852L104.173 62.0094L104.225 62.0447L104.27 62.0894L104.305 62.1419L104.328 62.2003L104.341 62.2623L104.34 62.3253L104.328 62.3871L104.303 62.4453L104.268 62.4976L104.224 62.542L104.171 62.5769L103.158 63.2474L102.037 64.0837L100.165 65.5928L99.0003 66.7685L98.9175 66.8254L97.722 67.6177L97.6749 67.6445L96.3676 68.3497L96.1956 68.4211L94.407 68.9451L94.2765 68.9755L92.1871 69.1811L92.1493 69.1857L89.2497 69.435L86.1583 69.8234L83.2172 70.0025L83.1533 70.0068L83.0898 69.9986L83.029 69.978L82.9736 69.9461L82.9253 69.9039L82.886 69.8531L82.8576 69.7956L82.8409 69.7337L82.8366 69.6698L82.8448 69.6062L82.8653 69.5455L82.8973 69.4898L82.9396 69.4416L82.9903 69.4023L83.0478 69.3738L83.1097 69.3572L85.9224 68.5804L85.951 68.5723Z" fill="#A47559"/>
<path d="M89.0965 62.6997L91.0832 62.233L93.1142 61.6645L94.5991 61.2745L95.6199 60.8069L96.4798 60.4878L97.4515 59.9473L98.7952 58.963L98.8386 58.9274L98.8882 58.901L98.942 58.8849L98.9977 58.8792L99.0536 58.8845L99.1073 58.9006L99.1568 58.9269L99.2003 58.9623L99.2359 59.0057L99.2623 59.0553L99.2784 59.109L99.2841 59.1648L99.2788 59.2206L99.2627 59.2744L99.2363 59.324L99.2008 59.3674L98.1898 60.7505L98.1165 60.8123L97.2064 61.592L97.141 61.6332L96.3289 62.2164L96.2483 62.2547L95.1153 62.651L95.0535 62.6729L93.5403 63.1841L93.4836 63.1982L91.342 63.5539L91.2776 63.565L89.194 63.5916L89.1732 63.5932L87.1329 63.527L87.0876 63.5258L87.0435 63.5161L87.0022 63.4977L86.9652 63.4717L86.9346 63.4386L86.9104 63.4005L86.8947 63.3582L86.8867 63.3137L86.8878 63.2685L86.8977 63.2243L86.9159 63.183L86.942 63.1462L86.9751 63.1156L87.0132 63.0914L87.0555 63.0757L87.1 63.0677L89.0777 62.7049L89.0965 62.6997Z" fill="#A47559"/>
<path d="M93.5586 100.034L93.5347 100.095L93.1713 101.179L93.1481 101.222L92.8763 101.932L92.8414 101.985L92.4199 102.606L92.3839 102.652L91.9154 103.245L91.8709 103.293L91.3586 103.87L91.3021 103.921L90.7011 104.478L90.6386 104.525L89.9047 104.991L89.8443 105.028L89.0287 105.44L88.9818 105.464L87.8733 105.86L87.8357 105.877L86.946 106.187L86.9102 106.2L86.0037 106.424L85.9687 106.434L85.0747 106.564L85.0424 106.571L84.1629 106.643L84.137 106.647L83.0843 106.556L83.052 106.556L83.0203 106.55L82.9903 106.539L82.9632 106.521L82.9399 106.499L82.9215 106.473L82.9086 106.443L82.9017 106.412L82.9015 106.379L82.9072 106.348L82.9189 106.318L82.9363 106.291L82.9585 106.267L82.9849 106.249L83.0144 106.236L83.0458 106.229L84.0355 105.897L84.8514 105.648L85.6601 105.331L86.4852 104.98L87.3073 104.607L88.2768 104.026L89.0057 103.584L89.686 103.103L90.2927 102.676L90.7993 102.247L91.2716 101.739L91.694 101.194L92.1584 100.662L92.7542 99.7552L93.508 98.5775L93.5108 98.569L93.5158 98.5613L93.5214 98.5549L93.5294 98.5496L93.538 98.5458L93.5465 98.5451L93.5549 98.5444L93.5627 98.5458L93.5711 98.5487L93.5789 98.5536L93.5852 98.5593L93.5905 98.5672L93.5944 98.5759L93.5951 98.5843L93.5957 98.5928L93.5943 98.6005L93.5588 100.016L93.5586 100.034Z" fill="#A47559"/>
<path d="M73.9268 109.387L74.9694 109.839L75.8381 110.182L76.6903 110.515L77.5238 110.875L78.3585 111.266L79.3859 111.7L81.0541 112.34L81.0872 112.35L81.1177 112.365L81.1442 112.387L81.1661 112.413L81.1827 112.443L81.1935 112.476L81.198 112.509L81.1953 112.544L81.1859 112.577L81.1702 112.607L81.1487 112.634L81.1224 112.656L81.0925 112.672L81.06 112.683L81.0262 112.688L80.9919 112.685L79.1807 112.695L79.1324 112.684L77.988 112.502L77.9519 112.49L77.0167 112.264L76.9763 112.249L76.0915 111.894L76.0484 111.874L75.2249 111.383L75.1894 111.365L74.419 110.776L74.3926 110.76L73.5317 109.982L73.5161 109.972L72.7468 109.164L72.7246 109.144L72.7059 109.121L72.6928 109.094L72.6854 109.065L72.6831 109.035L72.6871 109.006L72.6968 108.978L72.7118 108.952L72.7316 108.93L72.7551 108.911L72.7819 108.898L72.8108 108.89L72.8402 108.888L72.8698 108.892L72.8981 108.902L72.9239 108.917L73.9153 109.383L73.9268 109.387Z" fill="#A47559"/>
<path d="M93.8518 106.36L93.4728 106.955L93.4584 107.563L93.4701 108.262L93.5849 108.811L93.8119 109.372L94.1342 110.041L94.1405 110.052L94.3498 110.759L94.3739 110.811L94.3875 110.866L94.3899 110.924L94.381 110.98L94.3613 111.034L94.3314 111.083L94.2925 111.125L94.2462 111.159L94.1942 111.183L94.1386 111.196L94.0814 111.199L94.0247 111.19L93.9709 111.17L93.922 111.141L93.8799 111.102L93.8463 111.055L93.3334 110.535L92.867 109.944L92.8514 109.916L92.4598 109.347L92.4068 109.219L92.1631 108.51L92.1399 108.275L92.2788 107.404L92.3023 107.281L92.6672 106.631L92.7361 106.495L93.2748 105.875L93.3285 105.817L94.0079 105.436L94.0431 105.412L94.0822 105.394L94.1238 105.384L94.1669 105.383L94.2092 105.39L94.2494 105.405L94.2858 105.428L94.3164 105.458L94.3409 105.493L94.3586 105.532L94.3687 105.574L94.3699 105.617L94.3626 105.659L94.3474 105.699L94.3244 105.736L94.2946 105.766L93.8557 106.353L93.8518 106.36Z" fill="#A47559"/>
<path d="M111.33 104.291C113.328 103.432 115.223 102.026 115.504 102.141C114.853 102.722 114.332 103.43 113.715 104.04C112.815 104.669 111.959 105.39 110.965 105.868C109.919 106.308 108.885 106.794 107.77 107.034C105.855 107.638 103.234 107.944 101.254 108.184C99.8029 108.31 98.1678 107.917 96.7293 108.133C96.0078 107.421 96.1202 107.763 96.6082 107.679C102.364 107.25 105.261 106.84 111.33 104.291Z" fill="#A47559"/>
<path d="M57.563 99.1217L57.0193 98.0955L56.4756 97.0692L55.9318 96.043L55.3249 95.5697L54.4794 94.7861L53.6339 94.0025L52.7885 93.2189L52.3118 93.1039L51.4835 92.7646L50.6552 92.4252L49.8269 92.0857L49.2662 92.0897L48.4718 92.0707L47.637 92.0632L47.5828 92.0615L46.7004 92.0125L46.1657 92.1758L45.5016 92.4016L44.7853 92.6685L44.7165 92.6921L43.9121 92.9352L43.585 93.2517L43.0471 93.7064L42.4895 94.2039L42.4576 94.2321L41.8162 94.7629L41.6504 95.3528L41.6074 95.4338L41.1326 96.2488L40.9205 96.9817L40.7102 97.9955L40.7168 99.2624L40.7168 99.2659L40.7195 100.476L40.8905 101.573L41.1069 102.642L41.8103 104.022L42.5717 105.454L43.5191 106.819L43.5268 106.831L44.505 108.278L45.5482 109.584L46.5588 110.829L47.709 111.953L47.716 111.96L48.8313 113.067L49.8086 113.751L50.903 114.36L52.0994 114.981L53.4478 115.458L54.7891 115.566L56.084 115.429L56.9913 115.028L57.9884 114.463L57.7598 114.541L57.9533 114.175L58.1883 113.743L58.2108 113.702L58.5036 113.301L58.6402 113.065L58.8455 112.639L59.011 112.217L59.0111 112.216L59.1239 111.829L59.1767 111.674L59.2589 111.532L59.3671 111.409L59.4972 111.309L59.6445 111.237L59.8029 111.195L59.9664 111.184L60.1289 111.206L60.284 111.259L60.4258 111.341L60.549 111.449L60.6487 111.579L60.7209 111.727L60.7631 111.885L60.7736 112.049L60.7521 112.211L60.6808 112.608L60.6378 113.078L60.6335 113.098L60.5985 113.612L60.587 113.653L60.5248 114.175L60.4243 114.408L60.2247 114.862L60.0218 115.268L60.0182 115.275L59.8022 115.681L59.7797 115.721L59.5753 116.071L59.387 116.313L59.1422 116.498L58.0943 117.092L57.9903 117.144L56.8623 117.642L56.5126 117.736L54.9273 117.903L54.7104 117.906L53.1083 117.777L52.812 117.714L51.2429 117.158L51.094 117.094L49.8107 116.427L49.7812 116.411L48.6197 115.765L48.5181 115.702L47.4092 114.927L47.2552 114.798L46.0717 113.623L44.8767 112.455L44.7861 112.356L43.7301 111.055L43.7245 111.047L42.6495 109.701L42.5947 109.626L41.5944 108.147L40.6117 106.731L40.5394 106.614L39.7406 105.112L39.7309 105.093L38.9509 103.561L38.8468 103.262L38.5936 102.011L38.5837 101.96L38.395 100.748L38.3811 100.571L38.3782 99.2736L38.3709 97.8817L38.3968 97.6308L38.6656 96.3744L38.6975 96.2557L39.0107 95.2974L39.1118 95.072L39.5866 94.257L40.0172 93.355L40.1499 93.1417L40.3251 92.9618L40.9665 92.4309L41.5186 91.938L41.545 91.9143L42.148 91.4089L42.2132 91.3582L42.8881 90.8693L43.2361 90.6968L44.0405 90.4537L44.7278 90.1959L44.7678 90.1814L45.5457 89.9242L45.6595 89.8928L46.5124 89.7036L46.8305 89.6776L47.7129 89.7266L48.514 89.7326L48.5344 89.7331L49.3997 89.7561L49.4705 89.7601L50.3727 89.8391L50.7142 89.922L51.5425 90.2614L52.3707 90.6007L53.199 90.9402L54.0273 91.2795L54.3789 91.504L55.2243 92.2876L56.0698 93.0712L56.9153 93.8547L57.7607 94.6383L57.9991 94.9486L58.5429 95.9748L59.0866 97.0011L59.6303 98.0273L60.174 99.0535L60.2609 99.2656L60.3048 99.4906L60.304 99.7199L60.2584 99.9446L60.1699 100.156L60.0418 100.346L59.8792 100.508L59.688 100.635L59.4759 100.721L59.2508 100.765L59.0216 100.764L58.7969 100.719L58.5853 100.63L58.3952 100.502L58.2337 100.339L58.1069 100.148L57.5687 99.1325L57.563 99.1217Z" fill="#A47559"/>
<path d="M54.1535 107.586L54.1157 107.517L53.907 107.036L53.886 106.976L53.7084 106.363L53.6962 106.31L53.5201 105.336L53.5162 105.212L53.5743 104.151L53.6359 103.951L53.8492 103.487L53.9533 103.351L54.2952 102.966L54.4044 102.883L55.0639 102.405L54.8426 102.591L54.749 102.722L54.5933 102.522L54.4244 102.303L53.7393 101.41L53.7353 101.405L53.1223 100.575L52.4008 99.92L52.1014 99.6983L52.0227 99.6307L51.6843 99.304L51.2116 99.0085L49.946 98.3775L48.8066 98.1325L48.2302 98.1461L47.6245 98.2734L46.8322 98.621L46.6002 98.8269L46.315 99.1259L46.1392 99.3773L45.8949 99.8219L45.6038 100.505L45.5085 100.964L45.5015 101.563L45.6135 102.006L45.8611 102.721L46.2253 103.512L46.5704 104.172L46.6134 104.269L46.636 104.373L46.6379 104.479L46.6191 104.583L46.5802 104.682L46.5229 104.772L46.4491 104.848L46.3619 104.909L46.2648 104.952L46.1609 104.975L46.0547 104.977L45.9501 104.958L45.8512 104.919L45.7618 104.862L45.6854 104.788L45.6245 104.701L45.2392 104.052L45.23 104.034L44.7832 103.245L44.7616 103.198L44.4145 102.457L44.3913 102.389L44.178 101.762L44.1527 101.594L44.1005 100.856L44.1114 100.715L44.1924 100.111L44.2303 99.9757L44.4986 99.1956L44.5323 99.1206L44.7926 98.5707L44.8447 98.4839L45.0796 98.1231L45.1576 98.027L45.5172 97.6339L45.6059 97.5534L46.0047 97.2348L46.1784 97.1309L47.06 96.7433L47.2461 96.687L48.1092 96.5393L48.2686 96.5271L49.0126 96.5535L49.1806 96.5753L50.4041 96.8964L50.5888 96.9666L51.9751 97.7497L52.0424 97.7904L52.6069 98.1866L52.7098 98.2714L53.0393 98.6072L53.3114 98.7962L53.3597 98.8353L54.1569 99.5208L54.2606 99.6335L54.9233 100.519L55.631 101.463L55.6635 101.51L55.8807 101.868L55.9455 101.996L56.1029 102.468L56.1507 102.723L56.1351 102.909L56.1153 103.073L56.0569 103.227L56.0083 103.3L55.9 103.452L55.7545 103.568L55.0193 103.919L54.7287 104.161L54.5581 104.455L54.4757 105.245L54.6013 106.138L54.7578 106.695L54.9609 107.144L55.1321 107.377L55.1757 107.457L55.2019 107.546L55.2106 107.637L55.2014 107.728L55.1746 107.816L55.1312 107.897L55.0728 107.968L55.0017 108.026L54.9209 108.07L54.8329 108.096L54.7415 108.105L54.6501 108.095L54.5624 108.069L54.4815 108.025L54.4106 107.967L54.3524 107.896L54.1563 107.59L54.1535 107.586Z" fill="#A47559"/>
<path d="M72.9677 25.5395L73.6777 25.7645L75.2479 26.3017L76.7426 26.6244L78.684 26.7589L80.6616 26.9537L80.7048 26.9606L82.6767 27.2709L84.663 27.5044L84.9336 27.5972L87.2651 28.7094L87.5059 28.8789L89.4008 30.5781L89.5835 30.7991L90.5609 32.42L90.6356 32.5598L91.4376 34.4744L91.5197 34.7766L91.83 37.7564L91.8355 37.9216L91.6998 40.2526L91.6649 40.4687L91.2054 41.7462L91.2011 41.7589L90.6727 43.2037L90.6479 43.2752L90.3155 43.8426L90.0026 44.3758L90.0027 44.3758L89.9497 44.4797L89.8776 44.5712L89.789 44.6469L89.6876 44.7043L89.5768 44.7403L89.4611 44.7539L89.3449 44.7447L89.2327 44.7131L89.1288 44.6602L89.0374 44.5881L88.9617 44.4994L88.9042 44.3979L88.8682 44.2871L88.8545 44.1714L88.8637 44.0552L88.8953 43.9431L89.0295 43.3335L89.0316 43.3272L89.1837 42.6875L89.4935 41.2643L89.7268 40.0451L89.8108 37.9049L89.4638 35.1722L88.6851 33.5073L87.7642 32.1154L86.1564 30.5384L84.1564 29.4224L82.3621 28.9484L80.433 28.5286L78.4935 28.2112L76.5393 27.8364L76.4535 27.819L74.9318 27.2984L74.8651 27.2748L73.3402 26.4749L73.2917 26.4499L72.7421 25.9086L72.1959 25.3616L72.1903 25.3574L72.1861 25.3525L72.1829 25.347L72.1809 25.341L72.1795 25.3346L72.1795 25.3276L72.1816 25.3212L72.1844 25.3163L72.1887 25.3107L72.1936 25.3065L72.1991 25.3033L72.2051 25.3012L72.2115 25.2998L72.2185 25.2998L72.2249 25.302L72.2298 25.3048L72.9592 25.5361L72.9677 25.5395Z" fill="#71574F"/>
<path d="M92.4201 44.2241L93.2417 43.0207L94.0858 41.2384L94.4272 39.2719L94.3057 36.9318L93.877 35.1055L93.463 34.1848L92.7428 33.0895L92.1406 32.1479L91.157 31.3299L91.1159 31.2968L91.0818 31.2565L91.057 31.21L91.0409 31.1599L91.0352 31.1075L91.04 31.055L91.0548 31.0043L91.0793 30.9576L91.1125 30.9167L91.1527 30.8826L91.1992 30.8578L91.2493 30.8417L91.3017 30.836L91.3543 30.8408L91.4048 30.8556L91.4515 30.8801L92.6445 31.4896L92.7343 31.5694L93.6006 32.376L93.6083 32.3844L94.5572 33.3599L94.609 33.4324L95.3037 34.3268L95.3726 34.4689L96.3062 36.3344L96.3653 36.59L96.7431 39.1896L96.7342 39.4903L96.387 41.783L96.2853 42.1063L95.2989 44.1248L95.1936 44.3018L94.139 45.7301L93.9963 45.8926L92.7545 45.8858L92.7094 45.9205L92.6585 45.9458L92.6036 45.9608L92.5468 45.9647L92.4904 45.9575L92.4364 45.9395L92.387 45.9112L92.344 45.8737L92.3093 45.8287L92.284 45.7777L92.269 45.7228L92.2651 45.666L92.2723 45.6096L92.2903 45.5556L92.3186 45.5062L92.356 45.4631L92.4206 44.2354L92.4201 44.2241Z" fill="#71574F"/>
<path d="M85.006 46.9737L84.9131 46.096L84.7709 44.7177L84.6866 43.5433L84.501 41.6999L84.2692 40.4012L84.0505 39.6685L83.7053 38.872L83.2431 38.0262L82.5588 37.1033L81.8126 36.2724L81.1833 35.6044L80.4875 34.9797L79.8736 34.5411L79.1785 34.0661L78.4071 33.581L78.3559 33.558L78.3102 33.5255L78.2717 33.4845L78.2427 33.4367L78.2221 33.3846L78.2127 33.3292L78.2144 33.2731L78.227 33.2184L78.25 33.1672L78.2826 33.1215L78.3235 33.083L78.3713 33.0539L78.4234 33.0334L78.4788 33.024L78.5349 33.0257L78.5896 33.0383L79.5175 33.1255L79.5572 33.1408L80.4288 33.3469L80.4884 33.3766L81.2422 33.7054L81.3014 33.7424L82.194 34.2177L82.2603 34.2684L83.0881 34.8353L83.1528 34.8955L84.0425 35.7327L84.1218 35.8241L84.9134 36.8197L84.9834 36.923L85.5704 37.8493L85.6341 37.9747L86.0667 38.9778L86.1166 39.1237L86.3246 39.9827L86.3484 40.0998L86.5011 41.4546L86.5098 41.5423L86.5365 43.4611L86.5379 43.5055L86.4736 44.7239L86.473 44.7648L86.2201 46.1662L86.2177 46.2024L85.9569 47.0791L85.9533 47.1076L85.3346 48.1026L85.3331 48.1068L85.3317 48.1111L85.3296 48.1139L85.3259 48.1171L85.3218 48.1195L85.3174 48.1212L85.3126 48.1222L85.3091 48.1222L85.3049 48.1208L85.3006 48.1194L85.2978 48.1172L85.2946 48.1136L85.2922 48.1095L85.2905 48.105L85.2895 48.1002L85.2895 48.0967L85.0059 46.9855L85.006 46.9737Z" fill="#71574F"/>
<path d="M79.6524 47.6309L79.2373 46.4884L78.6025 45.1854L77.8096 43.7018L77.1265 42.417L76.4417 41.331L76.0788 40.8613L75.6763 40.4216L75.4021 40.1591L74.9506 39.7923L74.4719 39.4613L73.9595 39.1577L72.8617 38.6543L71.6539 38.2327L70.2445 37.7825L69.0217 37.4594L67.5525 37.2468L65.8614 37.2073L64.0073 37.3146L63.9171 37.3127L63.8291 37.2933L63.7465 37.257L63.6726 37.2054L63.6102 37.1403L63.5619 37.0643L63.5289 36.9803L63.5132 36.8915L63.515 36.8013L63.5345 36.7133L63.5707 36.6307L63.6224 36.5568L63.6875 36.4944L63.7635 36.4461L63.8475 36.4132L63.9363 36.3974L65.8031 36.2162L65.8402 36.2154L67.5704 36.1647L67.6124 36.1662L69.1456 36.177L69.2009 36.1835L70.5226 36.273L70.586 36.2861L72.1047 36.568L72.1679 36.5865L73.4512 36.9941L73.5155 37.0183L74.7585 37.4978L74.8398 37.5368L75.4376 37.8325L75.4989 37.8688L76.07 38.2099L76.138 38.2579L76.674 38.6503L76.737 38.7035L77.0692 38.9942L77.1135 39.0373L77.587 39.5033L77.6325 39.5539L78.0801 40.043L78.1231 40.0975L78.9845 41.1182L79.0415 41.2046L79.9092 42.4971L79.9563 42.5848L80.6961 44.1993L80.7323 44.2793L81.2135 45.7438L81.2448 45.8352L81.5552 47.1063L81.577 47.1928L81.5422 48.9045L81.5545 49.0235L81.5434 49.1425L81.5092 49.2572L81.4533 49.363L81.3778 49.4559L81.2857 49.5323L81.1806 49.5898L81.0663 49.6251L80.9473 49.6374L80.8282 49.6263L80.7135 49.5921L80.6078 49.5362L80.5149 49.4607L80.4385 49.3686L80.381 49.2635L80.3457 49.1492L79.6586 47.6472L79.6524 47.6309Z" fill="#71574F"/>
<path d="M79.6454 48.4348L78.4961 47.3764L77.5855 46.5907L76.7029 45.9801L75.6661 45.4013L74.5152 44.8932L73.407 44.4831L72.3667 44.1726L71.6553 44.051L71.1558 44.021L70.4466 44.046L69.771 44.1257L68.6282 44.3558L65.2756 45.1212L65.2323 45.1321L64.0407 45.3337L63.9855 45.3435L62.4635 45.51L62.3814 45.5185L61.226 45.5366L61.1394 45.5367L60.2032 45.4313L60.1343 45.4245L59.4444 45.2675L59.3817 45.2555L58.7126 45.0295L58.6635 45.0157L58.0152 44.7385L57.9672 44.7205L57.3421 44.3954L57.3034 44.3769L56.7151 43.9915L56.6813 43.9716L56.1136 43.4675L56.0886 43.4491L55.6179 42.9481L55.5845 42.9162L55.5584 42.8779L55.5393 42.8358L55.5292 42.7907L55.5282 42.7443L55.5361 42.6987L55.5529 42.6555L55.5778 42.6164L55.6097 42.5829L55.6479 42.5569L55.6899 42.5378L55.7351 42.5277L55.7814 42.5266L55.827 42.5347L55.8701 42.5514L55.9093 42.5763L56.4953 42.905L57.1588 43.196L57.7718 43.4472L58.3949 43.6574L59.0331 43.8L59.6762 43.8881L60.3508 43.9287L61.1807 43.9124L62.2467 43.8091L63.681 43.5263L64.8011 43.2314L68.094 42.2463L68.1344 42.2368L69.3735 41.9317L69.4618 41.9157L70.2185 41.7915L70.3044 41.7828L71.1098 41.7083L71.209 41.7064L71.8427 41.6948L71.9757 41.7053L72.8532 41.79L73.01 41.822L74.149 42.1045L74.233 42.1307L75.4271 42.5264L75.4983 42.5539L76.7251 43.0446L76.839 43.0993L78.0174 43.7178L78.1532 43.8024L79.2333 44.5731L79.368 44.6831L80.2793 45.5993L80.4009 45.7303L81.2831 47.1982L81.3549 47.2995L81.3086 49.113L81.3114 49.1187L81.3131 49.1249L81.3138 49.1298L81.3131 49.1354L81.3109 49.1418L81.3081 49.1467L81.3046 49.1502L81.2995 49.1542L81.2938 49.1569L81.2876 49.1586L81.2827 49.1593L81.277 49.1586L81.2707 49.1564L81.2658 49.1536L81.2623 49.1501L81.2583 49.145L79.6607 48.4435L79.6454 48.4348Z" fill="#71574F"/>
<path d="M68.5143 30.4976L68.4856 30.51L67.425 31.0626L67.3942 31.0743L66.167 31.6003L66.1106 31.616L65.2346 31.9011L65.1605 31.9163L64.4495 32.0689L64.3789 32.0773L63.4786 32.1819L63.402 32.1849L61.0094 32.198L60.0955 32.2776L59.0777 32.4854L58.5059 32.6812L57.8569 32.9525L56.9326 33.4204L56.2302 33.8346L55.2877 34.4666L54.3272 35.1776L53.4011 35.9338L52.3141 36.9058L50.332 38.5347L50.2581 38.6003L50.1726 38.6498L50.0794 38.682L49.9815 38.6954L49.8829 38.6895L49.7874 38.6644L49.6987 38.6212L49.6201 38.5615L49.5546 38.4875L49.5051 38.402L49.4729 38.3087L49.4595 38.211L49.4655 38.1125L49.4906 38.0169L49.5338 37.9282L49.5935 37.8496L51.0881 35.7291L51.1288 35.6879L52.2021 34.6279L52.2336 34.5999L53.1585 33.7743L53.1945 33.7459L54.1638 32.9695L54.2025 32.9414L55.1938 32.2322L55.2445 32.1999L55.9945 31.7356L56.0529 31.7031L57.04 31.1886L57.1098 31.1556L57.8293 30.8546L57.9008 30.8278L58.5887 30.6047L58.7039 30.5747L59.7804 30.3725L59.892 30.3574L60.901 30.2896L60.9758 30.2867L63.4057 30.3083L64.2344 30.271L64.887 30.2028L65.6913 30.0631L66.9473 29.7707L68.0753 29.4835L69.9662 29.2134L69.9708 29.212L69.9757 29.2113L69.9814 29.2121L69.9856 29.2135L69.9898 29.2149L69.9933 29.2184L69.9965 29.2221L69.9989 29.2262L70.0006 29.2307L70.0013 29.2356L69.9999 29.2398L69.9985 29.244L69.997 29.2483L69.9935 29.2518L69.9898 29.255L69.9857 29.2574L68.5299 30.4873L68.5143 30.4976Z" fill="#71574F"/>
<path d="M55.557 37.6598L53.8131 38.1406L52.4449 38.5335L51.6518 38.8183L50.7075 39.1914L50.2007 39.4213L49.2274 39.982L48.6585 40.3872L48.0685 40.8389L47.1929 41.5855L44.7186 43.877L44.6523 43.9342L43.5387 44.7458L43.4901 44.7805L42.6881 45.266L42.6434 45.2934L41.7742 45.7111L41.7227 45.7371L40.8054 46.0735L40.7554 46.093L39.8043 46.3327L39.7682 46.3437L38.3983 46.5205L38.3339 46.5312L38.2686 46.5291L38.2049 46.5142L38.1454 46.4873L38.0924 46.4492L38.0477 46.4015L38.0131 46.346L37.9899 46.285L37.9792 46.2206L37.9813 46.1554L37.9961 46.0917L38.023 46.0322L38.061 45.979L38.1087 45.9343L38.1643 45.8997L38.2252 45.8765L39.4812 45.3482L40.3322 44.9602L41.1406 44.5178L41.9039 44.0235L42.6215 43.5115L43.6285 42.6824L45.9842 40.3198L45.9963 40.3085L46.8477 39.4474L46.8869 39.4121L47.4828 38.8785L47.5279 38.8438L48.1681 38.3549L48.258 38.2962L49.3191 37.6797L49.4117 37.6327L49.9854 37.3828L50.0501 37.3577L51.0745 37.0221L51.1343 37.0029L52.001 36.8129L52.0445 36.8019L53.4744 36.547L53.5314 36.5363L55.3888 36.4495L55.4318 36.444L58.2955 36.3589L58.3841 36.36L58.4707 36.3784L58.5521 36.4133L58.6251 36.4635L58.6869 36.527L58.7345 36.6015L58.7667 36.6841L58.7828 36.7712L58.7818 36.8597L58.7633 36.9463L58.7284 37.0277L58.6783 37.1007L58.6148 37.1625L58.5402 37.2101L58.4576 37.2423L58.3705 37.2585L55.5835 37.6542L55.557 37.6598Z" fill="#71574F"/>
<path d="M39.6138 50.861L38.8977 51.5801L38.1618 52.2149L37.605 52.7105L37.0571 53.2567L36.7077 53.6952L36.4067 54.1895L36.1515 54.7191L36.0165 55.0745L35.8185 55.6971L35.6664 56.3428L35.5785 56.9402L35.5564 57.4987L35.6171 58.036L36.2619 59.6485L36.2635 59.8892L36.2181 60.1256L36.1275 60.3486L35.995 60.5496L35.8259 60.7209L35.6266 60.856L35.4051 60.9502L35.1693 60.9987L34.9286 61.0003L34.6921 60.9549L34.4691 60.8643L34.2681 60.7318L34.0968 60.5627L33.9617 60.3634L33.8676 60.1418L33.8191 59.906L34.1096 58.1565L34.1064 58.1181L34.1032 57.5158L34.1025 57.4538L34.1148 56.8284L34.1199 56.762L34.1847 56.0876L34.1972 56.0151L34.3477 55.2926L34.3675 55.2206L34.5964 54.5364L34.6207 54.4726L34.814 54.0577L34.8487 53.9878L35.2015 53.4278L35.2412 53.365L35.6395 52.8679L35.6753 52.8216L36.084 52.3618L36.121 52.3216L36.683 51.7583L36.7151 51.7283L37.3113 51.215L37.3409 51.1897L38.1616 50.6166L38.1775 50.6052L39.093 50.1416L39.0956 50.1399L40.0045 49.9975L40.01 49.9944L40.016 49.9923L40.0224 49.9909L40.028 49.9916L40.0344 49.9938L40.0393 49.9966L40.0449 50.0008L40.0491 50.0058L40.0523 50.0113L40.0544 50.0173L40.0557 50.0236L40.055 50.0293L40.0529 50.0356L40.0501 50.0405L40.0458 50.0462L40.0409 50.0504L39.617 50.855L39.6138 50.861Z" fill="#71574F"/>
<path d="M39.3317 57.7158L38.4058 58.5809L37.4678 59.3974L36.552 60.2048L35.8193 60.9296L35.3166 61.5141L34.7472 62.3045L34.3666 62.9727L34.1351 63.4991L33.9313 64.0659L33.7378 64.8514L33.6411 65.4518L33.5402 66.2935L33.4595 67.1667L33.308 69.3663L33.3023 69.4216L33.1145 70.7402L33.1036 70.8009L32.9147 71.6684L32.8936 71.7454L32.5433 72.8171L32.5144 72.8922L32.0316 73.9276L32.0046 73.9822L31.5102 74.7537L31.4899 74.7888L30.1291 76.6217L30.1262 76.6266L28.941 78.0969L28.9047 78.1433L28.8599 78.1814L28.8086 78.2104L28.7529 78.2293L28.6944 78.2363L28.6357 78.2318L28.5789 78.216L28.5263 78.1895L28.48 78.1532L28.4419 78.1084L28.4129 78.0572L28.394 78.0014L28.387 77.943L28.3914 77.8842L28.4072 77.8275L28.4337 77.7749L29.2595 76.0798L30.2801 74.0637L30.6325 73.2729L31.0481 72.2849L31.3748 71.2898L31.551 70.492L31.7215 69.2301L31.8693 67.0487L31.8706 67.0301L31.9525 66.1365L31.9541 66.1149L32.0596 65.2293L32.0642 65.1965L32.1697 64.5365L32.1815 64.4775L32.3805 63.6162L32.4015 63.544L32.6023 62.9208L32.6209 62.8718L32.8565 62.2622L32.8898 62.1912L33.2666 61.4195L33.3128 61.3423L33.8759 60.4368L33.9311 60.3631L34.4638 59.6962L34.5195 59.6351L35.2691 58.8724L35.3261 58.8198L36.3269 58.0021L36.3784 57.9624L37.4951 57.2779L37.5516 57.241L38.7945 56.7884L38.835 56.7665L40.008 56.7431L40.0141 56.7411L40.0204 56.7397L40.0275 56.7397L40.0338 56.7418L40.0401 56.744L40.0458 56.7482L40.05 56.7532L40.0535 56.7584L40.0563 56.7659L40.0577 56.7722L40.0577 56.7793L40.0555 56.7856L40.052 56.7926L40.0477 56.7983L40.0428 56.8025L40.0375 56.806L39.3364 57.7061L39.3317 57.7158Z" fill="#71574F"/>
<path d="M33.0557 80.7343L33.4715 82.6311L33.7644 83.663L34.156 84.6621L34.5372 85.4117L34.9694 86.1234L36.9442 89.0627L36.9643 89.096L37.4949 90.075L37.5134 90.1105L38.0597 91.3269L38.078 91.3708L38.456 92.4184L38.4715 92.4639L38.7904 93.7599L38.7979 93.7927L38.949 95.1111L38.9523 95.1283L39.0292 96.7446L39.0315 96.781L39.0268 96.817L39.0152 96.8514L38.9971 96.8829L38.9733 96.9106L38.9442 96.9321L38.9118 96.9482L38.8763 96.957L38.8399 96.9592L38.804 96.9545L38.7696 96.943L38.7381 96.925L38.7105 96.9012L38.689 96.8721L38.6728 96.8396L38.664 96.8042L38.2121 95.2595L37.8114 94.0213L37.4069 92.7923L37.0064 91.8044L36.4179 90.6568L35.8752 89.73L33.9956 86.7187L33.9677 86.6697L33.6145 85.8577L33.5939 85.8127L33.3392 84.9668L33.3278 84.9332L33.0828 83.8595L33.0777 83.8386L32.8612 82.7699L32.8577 82.7557L32.5287 80.8318L32.5273 80.8255L32.3428 78.2936L32.3428 78.29L32.3428 78.2865L32.3442 78.2823L32.3464 78.2795L32.3485 78.2766L32.3509 78.2745L32.3537 78.273L32.3569 78.2724L32.3603 78.2721L32.3638 78.2721L32.3681 78.2735L32.3709 78.2757L32.3737 78.2778L32.3758 78.2802L32.3773 78.283L32.3779 78.2862L33.0445 80.7065L33.0557 80.7343Z" fill="#71574F"/>
<path d="M40.0908 84.1737L40.0809 84.1289L39.6554 82.8189L39.6486 82.7734L39.3435 81.3688L39.3366 81.2614L39.2423 79.6442L39.2474 79.5389L39.3026 78.0929L39.3189 77.9868L39.5329 76.4475L39.5577 76.3481L39.923 74.8588L39.95 74.7778L40.4048 73.4812L40.4316 73.415L40.8056 72.6071L40.8098 72.598L41.141 71.9529L41.5475 71.2143L41.5796 71.1467L42.7676 69.3663L43.1389 68.5432L43.5699 67.6615L44.5287 66.4781L44.5487 66.433L44.577 66.3925L44.613 66.3588L44.6549 66.3327L44.701 66.3151L44.7497 66.3067L44.799 66.3078L44.8473 66.3185L44.8924 66.3385L44.9329 66.3668L44.9665 66.4027L44.9926 66.4445L45.0102 66.4907L45.0186 66.5393L45.0175 66.5886L45.0068 66.6369L45.0758 68.1648L45.0715 68.1774L44.8473 69.183L44.8158 69.2618L44.4116 70.1418L44.3916 70.1829L43.6134 72.2012L43.3754 72.9422L43.3712 72.9514L43.1119 73.6284L42.7776 74.4424L42.3163 75.6149L41.8381 76.9728L41.4527 78.3699L41.2239 79.691L41.1424 81.2024L41.1797 82.5627L41.2418 83.8931L41.1332 85.6652L41.1346 85.6716L41.1346 85.6786L41.1324 85.685L41.1303 85.6913L41.1261 85.6969L41.1211 85.7011L41.1157 85.7043L41.1096 85.7064L41.1033 85.7078L41.0962 85.7078L41.0899 85.7056L41.0836 85.7035L41.0779 85.6993L41.0737 85.6943L41.0705 85.6889L41.0685 85.6828L40.0974 84.1919L40.0908 84.1737Z" fill="#71574F"/>
<path d="M39.5328 67.2762L39.5377 67.2506L39.6255 66.1955L39.6352 66.1541L39.7774 65.2974L39.7918 65.251L39.978 64.4001L39.9961 64.3532L40.2532 63.5209L40.2777 63.4682L40.6231 62.6691L40.6594 62.6037L41.2211 61.6463L41.2635 61.5828L41.8717 60.6516L41.9376 60.5703L42.3701 60.0494L42.4291 59.989L42.927 59.5211L42.9984 59.4597L43.5524 59.0472L43.629 58.9933L44.4406 58.5425L44.5001 58.5077L45.1457 58.2516L45.1966 58.2259L46.0897 57.975L46.1381 57.9544L47.1065 57.8137L47.1336 57.8038L48.087 57.6965L48.1499 57.6834L48.2139 57.6827L48.2769 57.6947L48.3364 57.7187L48.3901 57.7538L48.4358 57.7987L48.4725 57.8514L48.4982 57.9101L48.5113 57.973L48.5119 58.0371L48.4999 58.1001L48.4759 58.1595L48.4408 58.2132L48.3959 58.2589L48.3433 58.2956L48.2845 58.3213L47.4545 58.7735L46.6725 59.2931L45.9273 59.8007L45.4134 60.1792L44.726 60.6958L44.2692 61.0806L43.8443 61.4887L43.4309 61.913L42.8217 62.6669L42.2474 63.5719L41.8464 64.2592L41.4612 64.947L41.0915 65.6811L40.7911 66.4474L40.4783 67.4233L39.9358 68.3769L39.9322 68.391L39.9266 68.4044L39.9181 68.4156L39.9075 68.4262L39.8953 68.4336L39.8819 68.4385L39.8671 68.4406L39.853 68.4406L39.8389 68.437L39.8255 68.4313L39.8143 68.4228L39.8037 68.4122L39.7963 68.4001L39.7914 68.3867L39.7893 68.3719L39.7893 68.3578L39.5375 67.289L39.5328 67.2762Z" fill="#71574F"/>
<path d="M51.5927 59.0191L51.5938 59.0185L51.9242 58.6882L51.9299 58.6856L52.3669 58.3733L52.3847 58.3654L52.8721 58.0735L52.8941 58.0643L53.542 57.8149L53.5494 57.8121L54.2422 57.5496L54.2672 57.5407L54.921 57.3112L54.944 57.3033L55.5332 56.8973L55.6058 56.8792L56.4083 56.6911L56.4634 56.6814L57.2301 56.5717L57.3223 56.5621L58.0955 56.6183L58.1175 56.6179L58.8072 56.6491L58.8826 56.65L59.5166 56.7453L59.5307 56.7453L60.133 56.8257L60.1727 56.8297L60.7398 56.9435L61.2588 57.0919L61.2793 57.094L61.875 57.2571L61.9787 57.2832L62.0752 57.3291L62.161 57.393L62.2326 57.4724L62.2871 57.5643L62.323 57.6649L62.3383 57.7707L62.3329 57.8774L62.3068 57.981L62.2609 58.0776L62.1972 58.1633L62.1178 58.2349L62.0259 58.2894L61.9252 58.3253L61.8195 58.3406L61.7128 58.3352L61.0954 58.3159L60.5674 58.3434L60.5583 58.3426L59.9809 58.308L59.413 58.301L58.7863 58.3239L58.1757 58.4009L57.4357 58.5437L56.7632 58.6567L56.0074 58.7963L55.3651 58.7511L54.7249 58.9437L54.0515 59.1821L53.4075 59.4208L52.8792 59.552L52.374 59.6658L51.9149 59.7036L51.1357 59.7705L51.1155 59.7771L51.0948 59.7803L51.0733 59.7786L51.0526 59.7731L51.0339 59.7637L51.017 59.751L51.0023 59.7356L50.9915 59.7174L50.985 59.6972L50.9817 59.6763L50.9834 59.6549L50.9889 59.6341L50.9983 59.6154L51.011 59.5985L51.0264 59.5838L51.0446 59.573L51.5882 59.0208L51.5927 59.0191Z" fill="#71574F"/>
<path d="M66.861 52.8624L65.7173 52.5901L64.5377 52.369L63.1006 52.1726L61.9803 52.0935L60.712 52.0857L55.0563 52.7565L54.9819 52.7599L53.5353 52.7431L53.4389 52.7399L52.3589 52.6043L52.2603 52.592L51.6021 52.4396L51.5279 52.4238L51.0897 52.2812L51.0193 52.2605L50.3834 51.9852L50.288 51.9473L49.4973 51.4881L49.4042 51.4375L48.6907 50.9077L48.6122 50.8511L47.9736 50.2696L47.9103 50.211L47.3465 49.5869L47.2918 49.5222L46.8319 48.843L46.7887 48.7773L46.5338 47.9501L46.5094 47.9013L46.5804 46.9559L46.5784 46.9498L46.577 46.9435L46.5777 46.9379L46.5798 46.9315L46.5827 46.9266L46.5855 46.9217L46.5906 46.9177L46.5961 46.9147L46.6021 46.9127L46.6085 46.9113L46.6141 46.912L46.6205 46.9141L46.6254 46.917L46.6303 46.9198L46.6342 46.9249L46.6373 46.9304L47.3605 47.5054L47.9137 48.0842L48.3849 48.6529L48.9233 49.1827L49.5462 49.6388L50.2468 49.9987L51.0599 50.2834L51.6382 50.4074L52.0212 50.4691L52.6181 50.5314L53.6075 50.5497L54.9195 50.4971L60.6049 50.2886L60.6671 50.2859L62.013 50.2568L62.1067 50.2608L63.311 50.4008L63.395 50.4128L64.8856 50.7769L64.9664 50.7968L66.1512 51.2851L66.2265 51.3127L67.266 51.9849L67.3074 52.0052L68.0987 52.9563L68.1037 52.9591L68.1079 52.9641L68.1114 52.9694L68.1138 52.9752L68.1152 52.9815L68.1145 52.9872L68.1138 52.9928L68.1117 52.9992L68.1088 53.0041L68.1039 53.0083L68.0986 53.0119L68.0928 53.0143L68.0864 53.0157L68.0794 53.0157L68.0738 53.015L68.0674 53.0128L66.8731 52.8634L66.861 52.8624Z" fill="#71574F"/>
<path d="M74.8928 50.8401L74.2279 50.4166L73.6152 50.0313L72.9405 49.5986L72.6246 49.5853L72.5619 49.5505L72.2935 49.3786L71.1718 48.7819L70.8536 48.637L70.7448 48.6118L69.5932 47.9052L68.9731 47.6923L68.3424 47.5865L68.3229 47.5856L68.3046 47.5806L68.287 47.5735L68.271 47.5626L68.2572 47.5489L68.2473 47.5325L68.2402 47.5148L68.2376 47.4954L68.2385 47.476L68.2435 47.4576L68.2506 47.44L68.2615 47.4241L68.2752 47.4102L68.2916 47.4003L68.3094 47.3933L68.328 47.3893L68.9601 47.1936L69.0054 47.1945L69.7177 47.1313L69.7917 47.147L71.1766 47.2412L71.6073 47.1783L71.7933 47.229L73.1692 47.6194L73.3122 47.6907L73.5892 47.8485L73.9163 48.133L74.0879 48.2474L74.6588 48.872L74.6925 48.9023L75.1225 49.5134L75.1553 49.5477L75.5464 50.2972L75.5882 50.353L75.5812 51.0753L75.584 51.081L75.5857 51.0872L75.5864 51.0921L75.5857 51.0977L75.5836 51.1041L75.5807 51.109L75.5772 51.1125L75.5721 51.1164L75.5665 51.1193L75.5603 51.121L75.5553 51.1217L75.5497 51.1209L75.5434 51.1188L75.5384 51.116L75.5349 51.1124L75.531 51.1074L74.8982 50.8417L74.8928 50.8401Z" fill="#71574F"/>
<path d="M59.7838 63.5045L58.6843 63.8377L57.6266 64.1611L56.1949 64.6556L55.3315 65.0621L54.4162 65.6062L53.7588 66.0575L53.1708 66.5278L52.6556 67.0327L52.0656 67.7385L51.6665 68.3197L51.234 69.0813L50.7733 69.9868L50.0817 70.9835L48.2128 73.0624L48.205 73.0751L48.1944 73.0857L48.1824 73.0934L48.1695 73.0993L48.1554 73.1028L48.1413 73.1027L48.1279 73.1006L48.1145 73.0949L48.1019 73.0871L48.0913 73.0765L48.0836 73.0645L48.0776 73.0516L48.0741 73.0375L48.0742 73.0234L48.0763 73.01L48.082 72.9967L48.6104 70.2481L48.6139 70.2411L49.0161 69.0813L49.0266 69.062L49.5532 68.1219L49.5783 68.0782L50.0849 67.2829L50.1216 67.2268L50.5752 66.5959L50.619 66.5386L51.2513 65.7629L51.3054 65.7029L51.8661 65.1067L51.9376 65.041L52.5651 64.4977L52.6266 64.4514L53.3221 63.9452L53.3744 63.9104L54.3162 63.3117L54.4057 63.2619L55.3736 62.7829L55.5116 62.7284L57.1011 62.2717L57.2266 62.2411L58.4414 62.1672L58.5347 62.1563L59.7376 62.3473L59.7851 62.3464L60.9535 62.9125L60.9605 62.9126L60.9669 62.9147L60.9739 62.9182L60.9796 62.9225L60.9838 62.9274L60.9873 62.9345L60.9897 62.9421L60.9897 62.9491L60.9897 62.9562L60.9875 62.9625L60.984 62.9696L60.9797 62.9752L60.9748 62.9794L60.9678 62.983L60.9616 62.9847L60.9545 62.9846L59.7994 63.4977L59.7838 63.5045Z" fill="#71574F"/>
<path d="M51.7517 76.9908L51.2001 78.1956L50.8531 79.2541L50.6738 79.9945L50.5485 80.5378L50.4255 81.082L50.2689 81.8307L50.0311 83.2305L49.9588 83.8366L49.8784 84.6627L49.5698 86.4508L49.5618 86.5555L49.5334 86.6565L49.486 86.7501L49.4212 86.8327L49.3415 86.9009L49.2497 86.9518L49.1497 86.9839L49.0455 86.9964L48.9408 86.9883L48.8398 86.96L48.7462 86.9127L48.6637 86.8479L48.5953 86.7683L48.5445 86.6765L48.5124 86.5765L48.4999 86.4723L48.1128 84.666L48.1139 84.5993L48.1257 83.6893L48.1294 83.6428L48.1886 82.9795L48.1961 82.9244L48.4306 81.4641L48.4421 81.4061L48.6386 80.6241L48.6488 80.5841L48.8345 80.0204L48.8448 79.9862L49.0703 79.4403L49.0811 79.4089L49.4322 78.7018L49.4532 78.6504L50.0414 77.6382L50.0677 77.586L50.8424 76.4488L50.8655 76.4116L52.283 75.2235L52.2866 75.22L52.2903 75.2168L52.2944 75.2146L52.299 75.2132L52.304 75.2125L52.3096 75.2132L52.3139 75.2147L52.3188 75.2175L52.3223 75.221L52.3255 75.2247L52.3277 75.2289L52.3291 75.2335L52.3298 75.2384L52.329 75.2441L52.3276 75.2483L52.3248 75.2532L51.7564 76.972L51.7517 76.9908Z" fill="#71574F"/>
<path d="M60.4393 69.5181L59.9911 70.0895L59.4267 70.8024L58.7747 71.7605L58.063 72.8015L57.5332 73.5013L56.8493 74.3772L56.7994 74.4539L56.7355 74.5195L56.6599 74.5711L56.5759 74.6075L56.4864 74.6265L56.3949 74.6276L56.3049 74.6108L56.2199 74.5768L56.1432 74.5269L56.0776 74.463L56.026 74.3874L55.9896 74.3034L55.9706 74.2139L55.9695 74.1224L55.9863 74.0324L56.0203 73.9474L56.3488 72.8738L56.3596 72.8526L56.6926 72.0235L56.6962 72.0165L57.2586 70.8557L57.2844 70.8138L57.9373 69.7819L57.981 69.7207L58.601 68.9151L58.6459 68.862L59.2438 68.2779L59.3235 68.2011L61.44 67.5206L61.4426 67.5188L61.4455 67.5175L61.4487 67.5169L61.4521 67.5166L61.4556 67.5166L61.4577 67.5173L61.4605 67.5194L61.4627 67.5219L61.4645 67.5245L61.4657 67.5274L61.4664 67.5306L61.4667 67.534L61.4666 67.5375L61.4659 67.5396L61.4638 67.5424L61.4614 67.5446L60.4496 69.4992L60.4393 69.5181Z" fill="#71574F"/>
<path d="M60.7412 77.2529L60.3569 78.2891L59.5327 80.3039L58.7814 81.9906L58.3302 82.7681L57.7101 83.3336L57.6804 83.3999L57.6384 83.4592L57.5855 83.509L57.5242 83.5483L57.4566 83.5748L57.3849 83.5868L57.3122 83.5847L57.2413 83.5685L57.175 83.5388L57.1157 83.4968L57.0659 83.4439L57.0267 83.3826L57.0015 83.3143L56.9895 83.2426L56.9916 83.17L57.0078 83.0991L56.8581 82.2621L56.8624 82.2494L57.0131 81.3219L57.0277 81.2833L57.6651 79.528L57.6816 79.4895L58.6732 77.4913L58.7025 77.4322L59.3924 76.4822L59.4301 76.4199L60.7107 75.7359L60.722 75.7215L60.7359 75.7093L60.7521 75.7008L60.7696 75.6956L60.7876 75.6937L60.8059 75.6952L60.8229 75.7009L60.839 75.7087L60.8535 75.7201L60.8656 75.7338L60.8741 75.75L60.8793 75.7675L60.8812 75.7856L60.8798 75.8039L60.8741 75.8208L60.8663 75.837L60.7445 77.2373L60.7412 77.2529Z" fill="#71574F"/>
<path d="M59.0109 88.5064L59.0616 90.243L59.1643 91.9752L59.3266 93.8982L59.4453 95.1519L59.6005 96.4288L59.4745 99.8454L59.4776 99.888L59.4722 99.9304L59.4588 99.9711L59.4377 100.008L59.4098 100.041L59.3757 100.066L59.3375 100.086L59.2965 100.097L59.2538 100.1L59.2114 100.095L59.1709 100.081L59.1338 100.06L59.1014 100.032L59.0757 99.9982L59.0566 99.96L59.045 99.919L57.785 96.7143L57.778 96.6647L57.6321 95.3362L57.6277 95.2861L57.5929 93.9816L57.5914 93.9404L57.7053 91.9749L57.7058 91.938L57.9411 90.1867L57.9435 90.1596L58.2924 88.4342L58.2949 88.4145L58.7827 87.205L58.7848 87.1951L58.789 87.186L58.794 87.1782L58.8011 87.1712L58.8092 87.1662L58.818 87.1628L58.8279 87.1614L58.837 87.1621L58.8469 87.1643L58.8561 87.1685L58.8638 87.1735L58.8708 87.1806L58.8758 87.1887L58.8793 87.1975L58.8806 87.2074L58.8799 87.2165L59.0137 88.4911L59.0109 88.5064Z" fill="#71574F"/>
<path d="M107.594 117.269L108.15 117.183L108.838 117.038L109.468 116.84L110.196 116.65L110.717 116.543L111.278 116.436L111.764 116.312L112.135 116.171L112.472 116.023L112.878 115.79L113.253 115.558L113.283 115.527L113.32 115.504L113.36 115.488L113.403 115.48L113.446 115.481L113.488 115.489L113.528 115.506L113.564 115.53L113.595 115.56L113.619 115.596L113.635 115.636L113.643 115.679L113.643 115.722L113.635 115.764L113.618 115.804L113.594 115.84L113.426 116.269L113.398 116.299L113.113 116.737L113.087 116.761L112.814 117.132L112.737 117.186L112.386 117.477L112.334 117.504L111.839 117.859L111.738 117.899L111.119 118.17L111.017 118.195L110.435 118.29L110.378 118.298L109.625 118.271L109.624 118.271L108.932 118.217L108.864 118.22L108.134 118.066L108.113 118.064L107.541 117.918L107.508 117.915L106.973 117.745L106.928 117.733L106.885 117.712L106.848 117.684L106.816 117.649L106.793 117.608L106.778 117.563L106.771 117.517L106.773 117.47L106.785 117.424L106.806 117.381L106.834 117.344L106.87 117.312L106.91 117.289L106.955 117.273L107.001 117.266L107.048 117.269L107.588 117.269L107.594 117.269Z" fill="#A47559"/>
<path d="M119.834 100.522L119.777 99.9923L119.498 99.6267L119.161 99.2198L118.834 98.9507L118.436 98.727L117.929 98.4841L117.921 98.4828L117.464 98.1651L117.425 98.1458L117.391 98.1194L117.362 98.0869L117.341 98.0495L117.326 98.0085L117.32 97.9657L117.323 97.9225L117.335 97.8807L117.354 97.8421L117.38 97.8077L117.413 97.7792L117.451 97.7585L117.492 97.7436L117.534 97.7365L117.578 97.7403L117.619 97.7523L118.168 97.8168L118.722 97.9453L118.744 97.9542L119.244 98.1047L119.335 98.1554L119.814 98.4585L119.939 98.5862L120.268 99.1655L120.313 99.2496L120.404 99.8049L120.428 99.9176L120.403 100.538L120.398 100.597L120.178 101.143L120.169 101.174L120.154 101.202L120.134 101.228L120.109 101.249L120.08 101.264L120.049 101.274L120.017 101.278L119.984 101.274L119.953 101.265L119.924 101.25L119.899 101.23L119.878 101.205L119.862 101.176L119.852 101.146L119.848 101.113L119.851 101.081L119.833 100.528L119.834 100.522Z" fill="#A47559"/>
<path d="M108.545 43.7212L108.895 44.2746L109.275 44.8326L109.683 45.3927L110.117 45.9526L110.576 46.5098L111.056 47.0621L111.557 47.607L112.076 48.1422L112.61 48.6654L113.158 49.1743L113.718 49.6668L114.286 50.1408L114.861 50.5943L115.44 51.0252L116.02 51.4318L116.599 51.8123L117.174 52.165L117.744 52.4886L118.305 52.7815L118.856 53.0426L119.393 53.2707L119.914 53.4648L120.418 53.6241L120.903 53.748L121.365 53.8358L121.803 53.8873L122.216 53.9022L122.601 53.8804L122.956 53.822L123.281 53.7273L123.574 53.5967L123.834 53.4307L124.059 53.2301L124.248 52.9957L124.402 52.7285L124.518 52.4297L124.597 52.1005L124.638 51.7423L124.642 51.3568L124.607 50.9455L124.534 50.5101L124.425 50.0527L124.278 49.575L124.094 49.0792L123.875 48.5674L123.622 48.0418L123.334 47.5046L123.015 46.9581L122.664 46.4047L122.284 45.8468L121.876 45.2867L121.442 44.7268L120.984 44.1695L120.504 43.6172L120.003 43.0723L119.484 42.5372L118.95 42.014L118.401 41.505L117.842 41.0125L117.273 40.5385L116.699 40.0851L116.12 39.6542L115.54 39.2476L114.961 38.8671L114.385 38.5143L113.816 38.1907L113.255 37.8978L112.704 37.6368L112.167 37.4087L111.645 37.2145L111.141 37.0552L110.657 36.9314L110.195 36.8435L109.757 36.792L109.344 36.7772L108.959 36.799L108.603 36.8574L108.278 36.952L107.986 37.0826L107.726 37.2486L107.501 37.4492L107.311 37.6836L107.158 37.9508L107.042 38.2497L106.963 38.5788L106.921 38.937L106.918 39.3225L106.953 39.7339L107.025 40.1692L107.135 40.6267L107.282 41.1043L107.466 41.6001L107.685 42.1119L107.938 42.6375L108.225 43.1747L108.545 43.7212Z" fill="#FEFEFE"/>
<path d="M125.057 60.7464L125.067 61.0586L125.094 61.3791L125.136 61.7066L125.194 62.0398L125.267 62.3772L125.356 62.7173L125.46 63.0588L125.577 63.4001L125.709 63.7397L125.854 64.0763L126.012 64.4084L126.182 64.7345L126.363 65.0533L126.554 65.3634L126.756 65.6635L126.966 65.9522L127.184 66.2284L127.409 66.4909L127.64 66.7385L127.876 66.9702L128.116 67.185L128.359 67.3819L128.604 67.5602L128.85 67.719L129.096 67.8578L129.34 67.9758L129.583 68.0726L129.822 68.1477L130.057 68.201L130.286 68.232L130.509 68.2407L130.725 68.2271L130.933 68.1912L131.132 68.1332L131.321 68.0532L131.499 67.9517L131.665 67.8291L131.82 67.6859L131.961 67.5227L132.089 67.3403L132.203 67.1394L132.303 66.9208L132.387 66.6855L132.457 66.4345L132.511 66.169L132.548 65.8899L132.57 65.5986L132.576 65.2962L132.566 64.9841L132.54 64.6636L132.497 64.336L132.44 64.0029L132.366 63.6655L132.277 63.3253L132.174 62.9839L132.056 62.6426L131.924 62.303L131.779 61.9663L131.621 61.6343L131.451 61.3082L131.27 60.9893L131.079 60.6793L130.878 60.3792L130.668 60.0905L130.45 59.8143L130.225 59.5518L129.993 59.3042L129.757 59.0725L129.517 58.8577L129.274 58.6608L129.029 58.4825L128.783 58.3236L128.537 58.1849L128.293 58.0669L128.05 57.9701L127.811 57.8949L127.577 57.8417L127.347 57.8107L127.124 57.8019L126.908 57.8156L126.7 57.8515L126.501 57.9095L126.313 57.9895L126.135 58.091L125.968 58.2136L125.814 58.3568L125.672 58.5199L125.544 58.7024L125.43 58.9033L125.33 59.1219L125.246 59.3571L125.176 59.6081L125.123 59.8737L125.085 60.1527L125.063 60.4441L125.057 60.7464Z" fill="#FEFEFE"/>
<path d="M97.7516 107.921C97.7374 107.999 98.3113 108.298 100.031 109.107C100.03 109.107 100.079 109.13 100.079 109.13C100.612 109.381 101.339 109.746 102.052 110.231C102.672 110.653 103.316 111.189 103.835 111.861C104.614 112.874 105.578 113.557 106.59 113.95C107.059 114.133 107.52 114.245 107.949 114.303C108.376 114.36 108.771 114.363 109.111 114.325C109.741 114.26 110.291 114.148 110.777 113.997C111.228 113.857 111.619 113.685 111.964 113.492C112.009 113.466 112.053 113.44 112.098 113.415C112.476 113.189 112.815 112.924 113.122 112.62C113.416 112.33 113.672 112.012 113.904 111.671C113.965 111.583 114.021 111.486 114.063 111.383C114.105 111.28 114.134 111.172 114.145 111.059C114.156 110.946 114.149 110.837 114.126 110.734C114.104 110.632 114.069 110.541 114.03 110.461C113.991 110.381 113.947 110.309 113.904 110.245C113.861 110.181 113.815 110.119 113.772 110.062C113.681 109.941 113.602 109.841 113.519 109.719C113.439 109.6 113.364 109.472 113.301 109.324C113.236 109.173 113.18 108.998 113.144 108.787C113.106 108.57 113.089 108.315 113.104 108.011C113.119 107.696 113.168 107.333 113.262 106.916C113.357 106.474 113.488 106.013 113.613 105.604C113.755 105.14 113.891 104.733 113.991 104.409C113.998 104.385 114.005 104.362 114.012 104.34C114.358 103.201 114.286 102.929 114.202 102.888C114.145 102.86 113.816 102.941 113.246 104.024C113.235 104.045 113.223 104.067 113.212 104.09C113.054 104.397 112.867 104.807 112.683 105.281C112.521 105.699 112.355 106.186 112.232 106.674C112.119 107.139 112.052 107.563 112.027 107.95C112.003 108.324 112.019 108.66 112.067 108.965C112.115 109.262 112.193 109.522 112.29 109.754C112.385 109.98 112.496 110.17 112.605 110.333C112.71 110.489 112.818 110.626 112.895 110.727C112.935 110.78 112.967 110.823 112.993 110.861C113.019 110.899 113.034 110.925 113.045 110.945C113.054 110.963 113.056 110.971 113.056 110.97C113.056 110.969 113.056 110.96 113.056 110.956C113.057 110.952 113.059 110.954 113.052 110.97C113.046 110.987 113.032 111.016 113.004 111.058C112.805 111.356 112.595 111.619 112.361 111.854C112.116 112.099 111.847 112.31 111.546 112.488C111.511 112.509 111.475 112.529 111.439 112.55C111.163 112.703 110.842 112.84 110.461 112.951C110.051 113.072 109.571 113.162 109.005 113.21C108.76 113.229 108.457 113.219 108.115 113.164C107.773 113.109 107.403 113.011 107.024 112.857C106.21 112.526 105.424 111.97 104.759 111.138C104.127 110.341 103.361 109.741 102.658 109.301C101.84 108.79 101.036 108.451 100.438 108.245C100.419 108.238 100.402 108.232 100.384 108.226C98.4638 107.576 97.7659 107.844 97.7518 107.921L97.7516 107.921Z" fill="#A47559"/>
<path d="M134.634 204.534C134.287 205.338 132.919 207.644 131.806 209.165C131.8 209.174 131.735 209.262 131.728 209.271C130.806 210.53 129.507 212.143 128.134 213.518C127.062 214.591 125.466 215.859 123.498 216.981C121.12 218.337 118.678 219.035 118.351 219.593C118.199 219.852 118.508 220.241 118.539 220.371C118.569 220.495 118.461 220.996 118.727 221.149C119.384 221.525 122.114 220.768 124.767 219.083C126.911 217.721 128.489 216.164 129.626 214.976C131.191 213.339 132.295 211.729 133.095 210.09C133.115 210.049 133.135 210.007 133.156 209.964C134.202 207.76 134.501 205.741 134.634 204.535L134.634 204.534Z" fill="#33B9F1"/>
<path d="M121.038 143.378C114.901 141.591 96.1175 132.816 89.7288 136.362" stroke="#33B9F1" stroke-width="4.47962" stroke-linecap="round" stroke-linejoin="round"/>
<path d="M201.545 134.687C203.248 143.316 189.934 144.077 174.593 144.34" stroke="#33B9F1" stroke-width="4.47962" stroke-linecap="round" stroke-linejoin="round"/>
<path d="M176.984 79.9598V73.7659M196.485 73.7659V79.8037V73.7659ZM196.485 107.872V116.029V107.872ZM176.984 116.029V109.658V116.029Z" stroke="#EA9C00" stroke-opacity="0.996078" stroke-width="4.71007" stroke-linecap="round" stroke-linejoin="round"/>
<path d="M184.461 80.2387C188.024 79.7695 192.623 79.8711 196.101 80.0235C201.818 80.2741 201.245 87.7662 201.245 87.7662C200.318 93.7342 200.729 98.1311 201.42 102.506C201.705 107.643 200.436 110.091 198.597 110.057M196.654 106.762C193.763 106.686 194.336 110.726 181.202 111.89C177.861 111.623 176.409 108.216 176.203 104.151C176.282 101.173 178.047 100.035 178.103 96.94L196.654 106.762Z" stroke="#33B9F1" stroke-width="4.47927" stroke-linecap="square" stroke-linejoin="round"/>
<path d="M122.077 122.297L150.733 126.408L155.383 122.367M169.608 95.2036C168.669 100.724 171.477 104.687 172.059 108.841C170.892 110.89 167.803 112.805 163.164 116.239L169.608 95.2036Z" stroke="#33B9F1" stroke-width="4.47962" stroke-linecap="round" stroke-linejoin="round"/>
<path d="M203.359 116.042H202.301C202.168 116.042 202.059 116.15 202.059 116.284V132.545C202.059 132.679 202.168 132.788 202.301 132.788H203.359C203.493 132.788 203.601 132.679 203.601 132.545V116.284C203.601 116.15 203.493 116.042 203.359 116.042Z" fill="#FFF3C5"/>
<path d="M155.892 128.564V116.214H212.275H218.094V132.642H171.706" stroke="#EA9C00" stroke-opacity="0.996078" stroke-width="4.71007" stroke-linecap="round" stroke-linejoin="round"/>
<path d="M157.527 129.197C157.495 129.112 157.498 128.794 157.335 128.683C156.926 128.406 155.185 128.892 152.146 129.958C150.455 130.551 148.356 131.327 146.317 132.095C144.354 132.834 142.528 133.535 141.042 134.111C140.533 134.308 139.54 134.694 139.031 134.891C138.577 135.067 138.213 135.207 137.938 135.31C137.835 135.348 137.739 135.384 137.651 135.418C137.639 135.422 137.624 135.429 137.607 135.436C135.501 136.365 133.353 137.122 130.951 138.036C128.572 138.942 126.354 139.857 124.37 140.992C123.292 141.61 122.341 142.261 121.508 142.961C120.538 143.776 119.782 144.614 119.198 145.456C118.946 145.818 118.731 146.175 118.549 146.52C118.188 147.203 117.934 147.898 117.761 148.582C117.366 150.139 117.424 151.516 117.445 152.272C117.596 151.494 117.971 150.253 118.683 148.936C118.991 148.364 119.343 147.812 119.747 147.261C119.95 146.983 120.175 146.697 120.429 146.405C121.015 145.727 121.728 145.044 122.629 144.362C123.405 143.774 124.286 143.213 125.302 142.662C127.187 141.641 129.283 140.789 131.655 139.887C133.993 138.999 136.229 138.195 138.384 137.234C138.459 137.204 138.542 137.172 138.631 137.137C138.9 137.034 139.257 136.904 139.715 136.744C140.258 136.553 140.942 136.318 141.746 136.043C143.233 135.534 145.118 134.893 147.082 134.21C149.159 133.488 151.234 132.752 152.931 132.111C156.013 130.945 157.592 130.191 157.719 129.711C157.77 129.519 157.559 129.283 157.527 129.197L157.527 129.197Z" fill="#33B9F1"/>
<path d="M79.3761 140.793C79.3212 141.595 73.2363 156.912 93.9032 163.277C113.196 169.219 127.699 170.457 132.621 170.304C142.417 169.998 167.071 149.77 167.071 149.77C174.51 149 184.074 145.468 190.969 145.048C200.629 144.459 206.576 144.411 205.941 134.673L165.067 134.489C165.067 134.489 192.803 128.17 181.169 123.383C172.767 119.926 156.437 129.427 156.437 129.427" stroke="#33B9F1" stroke-width="4.71007" stroke-linecap="round" stroke-linejoin="round"/>
<path d="M138.055 136.709C136.462 144.287 142.802 156.123 148.61 162.073" stroke="#33B9F1" stroke-width="4.47962" stroke-linecap="round" stroke-linejoin="round"/>
<path d="M199.128 7.46681C199.221 11.3243 199.32 15.079 199.355 18.9899C201.522 20.4555 202.903 22.4664 203.955 24.2001L204.581 7.46208L199.128 7.46681ZM199.361 20.1463C199.369 21.4384 199.363 22.5235 199.353 23.8082C201.42 26.2855 202.746 29.4714 202.801 32.6973C202.868 36.7257 200.987 40.8153 198.024 43.5462C197.841 45.0046 197.478 46.2003 197.233 47.331C198.971 46.194 200.953 44.4119 202.86 41.8211C203.566 37.2206 203.859 32.8307 203.956 28.059C203.968 27.4575 203.988 27.0956 203.992 26.4926C202.97 23.9687 201.096 21.8564 199.36 20.1463H199.361ZM202.449 44.198C200.114 46.8332 198.675 47.5597 197 48.7625C195.2 56.4524 192.14 62.706 186.843 66.7914C187.211 69.3469 187.318 71.3099 186.216 72.9374L188.652 72.8593C189.728 70.2751 189.458 68.9623 189.531 66.4253C196.891 62.6978 200.632 54.2146 202.449 44.1981V44.198Z" fill="#FFE98F"/>
<path d="M150.016 7.20451C148.891 62.3631 169.641 66.1421 172.664 66.2186H202.094C205.692 66.7544 228.189 54.2786 226.445 7.20451H150.016ZM169.043 66.316C169.043 68.4279 168.395 73.3003 173.231 73.3003H200.44C206.095 73.3003 205.36 68.4279 205.36 66.316H169.043Z" stroke="#EA9C00" stroke-opacity="0.996078" stroke-width="4.71007" stroke-linecap="round" stroke-linejoin="round"/>
<path d="M175.788 99.1272C175.954 99.1551 180.195 94.3093 180.414 91.1451C187.794 85.5404 185.509 79.5405 182.16 77.9141C179.82 76.8552 176.682 79.6478 174.523 84.788C173.429 87.3942 169.247 92.7728 169.461 95.6363" stroke="#33B9F1" stroke-width="4.47962" stroke-linecap="round" stroke-linejoin="round"/>
<path d="M183.607 101.626C188.411 98.1807 195.333 95.4526 197.798 95.4195" stroke="#33B9F1" stroke-width="4.47962" stroke-linecap="round" stroke-linejoin="round"/>
<path d="M202.118 67.1249C202.686 67.0773 202.664 72.8958 199.982 73.863C197.957 74.5938 204.249 72.1128 204.249 72.1128L205.085 67.041L202.118 67.1249Z" fill="#EA9C00"/>
<path d="M226.787 7.30757L227.008 12.8388L237.485 12.8047C237.485 12.8047 238.055 19.348 235.613 20.0637C233.172 20.7794 230.333 22.7969 228.262 28.7916C226.19 34.7863 225.884 39.4859 225.844 39.7858C225.804 40.0857 223.874 42.2498 222.801 43.0609C221.728 43.872 218.661 51.5298 218.661 51.5298C218.661 51.5298 224.974 48.8409 226.939 45.3852C228.903 41.9294 230.711 32.1178 231.598 29.8958C232.485 27.6738 234.905 23.0593 236.665 22.6674C238.425 22.2755 240.627 21.3587 240.627 21.3587C240.627 21.3587 241.756 19.2628 241.761 15.4697C241.767 11.6766 241.079 7.65517 240.882 7.34504C240.685 7.03491 226.787 7.30754 226.787 7.30754V7.30757Z" fill="#FFD31A"/>
<path d="M237.878 14.3794C237.408 16.6587 236.95 18.9508 235.099 19.9204C237.058 19.9029 239.309 19.5858 238.597 22.3124L241.425 18.6248C240.495 16.985 239.199 15.6714 237.878 14.3794ZM226.391 39.398C226.178 39.3915 225.824 39.7554 225.236 40.9066C223.602 44.1101 221.902 43.5374 221.902 43.5374L219.065 50.7905C219.065 50.7905 219.32 51.5328 221.599 50.4286C223.878 49.3244 227.64 44.4464 227.64 44.4464L226.7 40.5972C226.7 40.5972 226.77 39.4095 226.391 39.398Z" fill="#EA9C00" fill-opacity="0.996078"/>
<path d="M238.706 6.89399C238.376 6.8918 238.025 6.91411 237.655 6.95824L236.03 11.6469L238.16 12.4789L242.234 10.8086C242.309 8.08159 241.017 6.90838 238.706 6.89399ZM231.8 22.82L228.577 29.2389L230.934 33.6632L234.346 25.6531L231.8 22.82Z" fill="#FFE98F"/>
<path d="M226.882 7.18214L241.363 7.13789C241.363 7.13789 243.704 21.8261 238.717 22.5554C230.096 23.8162 231.155 39.4617 227.761 44.7621C224.116 50.4546 218.19 51.9062 218.19 51.9062" stroke="#EA9C00" stroke-opacity="0.996078" stroke-width="4.71007" stroke-linecap="round" stroke-linejoin="round"/>
<path d="M227.097 12.5702L237.678 12.4339C237.678 12.4339 238.985 19.2832 234.5 20.3061C228.551 21.6629 227.824 32.974 226.497 38.287C226.049 40.0787 225.365 42.5139 222.035 43.4952" stroke="#EA9C00" stroke-opacity="0.996078" stroke-width="4.71007" stroke-linecap="round" stroke-linejoin="round"/>
<path d="M149.188 7.30757L148.967 12.8388L138.49 12.8047C138.49 12.8047 137.92 19.348 140.362 20.0637C142.804 20.7794 145.642 22.7969 147.713 28.7916C149.785 34.7863 150.091 39.4859 150.131 39.7858C150.171 40.0857 152.101 42.2498 153.174 43.0609C154.247 43.872 157.314 51.5298 157.314 51.5298C157.314 51.5298 151.002 48.8409 149.037 45.3852C147.072 41.9294 145.264 32.1178 144.377 29.8958C143.49 27.6738 141.07 23.0593 139.31 22.6674C137.55 22.2755 135.348 21.3587 135.348 21.3587C135.348 21.3587 134.219 19.2628 134.214 15.4697C134.208 11.6766 134.896 7.65517 135.093 7.34504C135.29 7.03491 149.188 7.30754 149.188 7.30754V7.30757Z" fill="#FFD31A"/>
<path d="M138.097 14.3794C138.568 16.6587 139.025 18.9508 140.876 19.9204C138.917 19.9029 136.666 19.5858 137.378 22.3124L134.55 18.6248C135.48 16.985 136.776 15.6714 138.097 14.3794ZM149.585 39.398C149.797 39.3915 150.151 39.7554 150.739 40.9066C152.374 44.1101 154.073 43.5374 154.073 43.5374L157.563 51.68C157.563 51.68 156.655 51.5328 154.376 50.4286C152.097 49.3244 148.335 44.4464 148.335 44.4464L149.275 40.5972C149.275 40.5972 149.205 39.4095 149.585 39.398Z" fill="#EA9C00" fill-opacity="0.996078"/>
<path d="M137.269 6.89399C137.599 6.8918 137.95 6.91411 138.321 6.95824L139.945 11.6469L137.815 12.4789L133.741 10.8086C133.666 8.08159 134.958 6.90838 137.269 6.89399ZM144.175 22.82L147.398 29.2389L145.042 33.6632L141.629 25.6531L144.175 22.82Z" fill="#FFE98F"/>
<path d="M149.094 7.18214L134.612 7.13789C134.612 7.13789 132.272 21.8261 137.258 22.5554C145.879 23.8162 144.82 39.4617 148.214 44.7621C151.859 50.4546 156.669 51.7324 156.669 51.7324" stroke="#EA9C00" stroke-opacity="0.996078" stroke-width="4.71007" stroke-linecap="round" stroke-linejoin="round"/>
<path d="M148.878 12.5702L138.297 12.4339C138.297 12.4339 136.991 19.2832 141.476 20.3061C147.424 21.6629 148.151 32.974 149.479 38.287C149.926 40.0787 150.134 42.3504 153.464 43.3317" stroke="#EA9C00" stroke-opacity="0.996078" stroke-width="4.71007" stroke-linecap="round" stroke-linejoin="round"/>
<path d="M198.146 26.4644L198.217 27.2832L198.472 26.4789L198.146 26.4644Z" fill="#FFF3C5"/>
<path d="M158.931 7.80692C158.036 36.0707 162.608 53.4775 172.391 66.4794C172.74 67.3852 170.752 68.491 172.854 72.6811L174.892 72.6583C172.975 70.1743 173.636 67.4582 174.28 66.6034C166.793 56.9356 160.871 37.4246 161.576 7.87838L158.931 7.80692Z" fill="#EA9C00"/>
<path d="M164.129 7.26711C162.818 33.4653 166.926 53.4354 176.208 66.6625C176.557 67.5683 174.667 68.491 176.768 72.6811L177.71 72.6583C175.793 70.1743 176.078 67.4582 176.722 66.6034C169.235 56.9355 163.352 35.261 164.933 7.1506L164.129 7.26711Z" fill="#EA9C00"/>
<path d="M224.618 7.26711C226.683 45.8327 211.276 60.2976 201.575 66.6625C201.226 67.5683 203.116 68.491 201.015 72.6811L200.073 72.6583C201.99 70.1742 201.705 67.4582 201.062 66.6033C212.579 60.2909 226.427 36.7842 223.319 7.40278L224.618 7.26711Z" fill="#EA9C00"/>
</svg>
