<svg width="341" height="388" viewBox="0 0 341 388" fill="none" xmlns="http://www.w3.org/2000/svg">
<path d="M253.32 173.639L264.135 180.313C274.898 182.866 283.324 187.931 285.489 199.721C282.802 227.409 275.888 239.061 269.936 254.359C269.936 254.359 265.815 320.739 266.053 340.74C266.291 360.741 264.729 377.335 264.729 377.335C264.729 377.335 264.565 386.129 257.16 385.999C249.755 385.868 212.63 385.218 212.63 385.218L185.463 385.424C183.158 377.384 177.434 369.393 191.317 361.12C191.317 361.12 186.576 296.756 186.902 273.806C187.227 250.856 185.963 239.647 185.963 239.647C185.963 239.647 175.291 251.049 165.027 242.531C158.754 237.325 153.685 232.575 159.611 219.526C165.536 206.478 180.223 187.198 191.843 179.002C203.463 170.806 214.646 170.04 214.646 170.04C214.646 170.04 242.682 169.368 253.32 173.639V173.639Z" fill="#CEF6FE"/>
<path d="M181.334 375.666L210.644 376.735C210.644 376.735 223.014 380.832 241.828 378.727C244.128 378.469 246.206 378.268 248.094 378.108L246.357 378.503L245.55 385.612L217.993 386.279L212.332 384.586L211.996 384.581C210.34 381.956 210.409 379.475 209.939 376.949L202.831 377.185L203.103 384.495L184.807 384.315C184.807 384.315 181.793 381.49 181.298 379.054C180.804 376.618 181.334 375.665 181.334 375.665L181.334 375.666Z" fill="#FEFEFE" stroke="#E5E5E5" stroke-opacity="0.462745" stroke-width="0.549262"/>
<path d="M224.056 169.863C227.066 169.8 230.482 170.004 234.242 170.659C249.285 173.277 264.146 179.736 264.146 179.736C264.146 179.736 285.894 183.855 285.411 198.636C284.928 213.417 278.804 230.973 278.804 230.973L270.32 253.841C270.32 253.841 269.709 256.197 257.605 254.983C245.501 253.769 241.425 252.088 241.425 252.088L245.59 242.831C245.59 242.831 260.21 244.586 263.644 241.803C267.63 238.572 272.547 206.633 272.547 206.633C272.547 206.633 275.276 189.519 265.487 191.5C232.433 198.187 202.982 176.394 203.569 173.649C203.569 173.649 215.027 170.05 224.056 169.863ZM210.787 193.073C214.684 202.961 216.199 206.947 218.195 213.711C218.416 215.925 222.821 222.589 222.821 222.589L211.359 221.586L210.092 218.763C210.092 218.763 214.98 215.114 213.955 212.841C212.929 210.567 210.923 206.211 210.657 205.132C210.391 204.053 209.584 199.735 209.584 199.735L210.787 193.073ZM203.997 221.698L205.973 224.274L204.355 226.137C204.355 226.137 203.47 230.416 203.321 234.118C203.171 237.819 207.257 242.012 207.257 242.012L196.792 240.845L196.382 249.34L186.665 246.487L185.617 237.996L201.996 222.315L203.997 221.698ZM178.583 227.459L189.219 236.897C189.219 236.897 186.721 240.73 181.056 243.629C175.392 246.528 174.148 246.888 170.888 246.379C164.098 245.321 157.323 234.444 158.994 234.348C158.994 234.348 165.723 236.639 171.073 233.614C176.424 230.588 178.583 227.459 178.583 227.459ZM269.253 259.729C269.253 259.729 268.764 261.67 268.403 268.874C268.042 276.078 265.594 334.241 265.594 334.241L264.662 378.153L252.436 378.222L252.526 341.381L253.917 340.888C253.917 340.888 255.947 262.883 255.076 261.42L269.253 259.729ZM212.386 291.377C214.575 295.017 221.516 297.565 221.516 297.565L221.352 362.521L211.528 370.533L211.445 341.476L213.158 341.307L212.386 291.377Z" fill="#92E1EE"/>
<path d="M263.787 179.408C248.456 167.523 205.582 167.382 189.893 180.015M222.044 297.855C221.319 320.581 222.28 347.523 221.464 362.509L222.044 297.855ZM186.367 237.484C186.577 255.115 187.122 284.788 187.384 300.588C188.487 321.974 189.709 345.867 191.17 362.041L186.367 237.484ZM210.573 379.537C211.173 384.049 213.934 385.917 218.239 385.737L259.264 385.224C264.896 384.425 265.333 375.804 265.416 371.82C266.761 337.282 266.367 295.963 268.553 270.003C268.973 265.023 269.388 259.8 269.773 254.474L210.573 379.537Z" stroke="#33B9F1" stroke-width="4.29895" stroke-linecap="round" stroke-linejoin="round"/>
<path d="M201.884 241.03L206.233 241.753L201.776 242.337L201.884 241.03ZM207.488 241.998L240.992 252.479L240.994 252.904C239.826 252.663 238.851 252.428 238.186 252.206C233.617 250.682 222.015 246.709 222.015 246.709L215.554 249.383C215.554 249.383 212.564 250.014 210.258 247.738C207.951 245.462 207.667 244.462 207.633 243.795C207.607 243.287 207.53 242.451 207.488 241.998H207.488ZM197.095 242.035L197.233 248.057L200.865 248.968C200.865 248.968 235.974 255.902 235.925 256.348C235.878 256.774 259.991 257.823 261.679 257.873L263.219 260.622L236.191 259.725L236.233 268.189L196.911 267.864L196.278 258.54L187.635 258.67L186.932 250.743L197.328 250.949L197.095 242.035Z" fill="#FEFEFE"/>
<path d="M223.096 259.642C220.633 259.674 218.609 257.704 218.577 255.24C218.544 252.776 220.515 250.753 222.979 250.72C225.443 250.688 227.466 252.659 227.498 255.122C227.531 257.586 225.56 259.61 223.096 259.642Z" fill="#CEF6FE" stroke="#33B9F1" stroke-width="3.29556" stroke-linecap="round" stroke-linejoin="round"/>
<path d="M236.376 253.617L236.261 268.481L196.755 268.025L196.577 241.608L206.502 241.741" stroke="#33B9F1" stroke-width="4.29895" stroke-linecap="round" stroke-linejoin="round"/>
<path d="M205.85 261.352C202.629 261.394 199.981 258.567 199.935 255.036C199.888 251.506 202.461 248.61 205.681 248.567C208.901 248.525 211.549 251.352 211.596 254.883C211.642 258.413 209.07 261.309 205.85 261.352Z" fill="#CEF6FE" stroke="#33B9F1" stroke-width="3.16505" stroke-linecap="round" stroke-linejoin="round"/>
<path d="M209.184 219.291C223.209 250.182 236.299 281.833 248.76 313.997L243.556 315.52C232.241 284.831 219.63 252.999 205.669 221.427" fill="#3FB93F"/>
<path d="M209.184 219.291C223.209 250.182 236.299 281.833 248.76 313.997L243.556 315.52C232.241 284.831 219.63 252.999 205.669 221.427" stroke="#3FB93F" stroke-width="5.17732"/>
<path d="M215.885 221.52C215.885 221.52 211.939 221.48 209.281 223.173C206.623 224.866 202.214 226.528 203.093 231.789C203.971 237.05 207.872 242.325 207.872 242.325L207.841 245.849C207.841 245.849 213.594 250.616 215.54 249.953C217.486 249.29 219.432 245.918 221.307 246.63C223.181 247.343 225.006 248.002 225.006 248.002L241.107 252.195C241.107 252.195 245.663 246.586 245.623 241.268C245.582 235.95 242.083 227.047 242.083 227.047C242.083 227.047 224.229 224.503 222.03 223.665C219.83 222.827 215.885 221.52 215.885 221.52H215.885Z" fill="#FEFEFE"/>
<path d="M203.553 232.771C205.22 232.19 209.497 233.006 211.122 235.727C212.942 238.775 210.701 241.773 210.701 241.773C210.701 241.773 214.226 245.019 215.543 242.393C217.441 238.609 224.052 238.84 226.687 238.632C229.321 238.423 245.035 241.695 245.035 241.695L241.4 252.157C241.4 252.157 225.657 248.973 225.317 248.538C224.976 248.103 219.975 245.694 217.454 248.088C214.933 250.482 213.126 249.458 211.424 248.639C209.721 247.821 206.79 245.488 207.167 243.811C207.543 242.135 207.691 241.129 206.709 239.975C205.727 238.821 203.553 232.771 203.553 232.771Z" fill="#CEF6FE"/>
<path d="M217.271 221.445C222.195 224.825 235.9 224.267 239.645 224.863C243.922 225.543 251.348 225.344 251.97 226.071C253.173 218.107 254.193 210.439 256.453 201.771M264.18 179.605C264.18 179.605 288.281 184.358 285.572 203.254C282.864 222.149 271.685 252.521 270.399 253.733C263.77 259.981 224.169 248.488 224.774 247.899L264.18 179.605Z" stroke="#33B9F1" stroke-width="4.29895" stroke-linecap="round" stroke-linejoin="round"/>
<path d="M198.206 193.104C198.206 193.104 204.748 188.559 207.073 190.286C209.399 192.013 211.424 193.759 210.761 195.756C210.098 197.752 209.008 200.169 209.008 200.169L211.895 208.542L213.752 212.97C213.752 212.97 214.123 216.127 208.175 219.313C202.227 222.5 201.044 223.291 201.044 223.291L187.21 235.968C187.21 235.968 178.871 232.486 177.394 224.117C175.917 215.747 176.758 212.697 176.758 212.697L187.81 204.14C187.81 204.14 186.099 202.128 187.948 199.149C189.798 196.17 198.206 193.104 198.206 193.104H198.206Z" fill="#FEFEFE"/>
<path d="M207.593 192.543C208.358 192.53 209.084 192.697 209.629 193.179C211.291 194.646 209.663 197.552 209.663 197.552L208.526 198.619C208.526 198.619 205.653 196.324 203.664 195.974C201.675 195.624 198.656 196.354 198.656 196.354C198.656 196.354 202.628 194.253 203.628 193.71C204.3 193.346 206.028 192.569 207.593 192.543H207.593ZM207.58 199.171L211.777 208.28C211.777 208.28 217.446 213.93 211.87 217.588C206.294 221.245 201.241 222.356 201.241 222.356L188.756 237.655C188.756 237.655 180.711 232.358 179.109 226.799L192.003 215.685C192.003 215.685 195.431 213.744 198.87 212.632C202.309 211.52 207.022 209.099 207.806 207.188C208.808 204.746 207.58 199.171 207.58 199.171H207.58Z" fill="#CEF6FE"/>
<path d="M192.127 200.954C193.745 200.399 196.129 198.975 199.389 197.312C201.816 196.074 203.283 194.668 205.404 195.831C206.624 196.5 209.135 199.021 210.126 202.176C210.905 204.656 211.348 206.673 211.835 208.126C212.323 209.579 215.221 211.112 213.009 215.797C210.797 220.482 201.668 222.618 201.668 222.618L201.665 222.611L201.692 222.782C196.375 228.601 188.918 241.594 175.675 246.313C168.612 248.83 151.166 236.941 160.27 217.704C167.246 202.965 177.513 191.768 186.358 183.716" stroke="#33B9F1" stroke-width="4.29895" stroke-linecap="round" stroke-linejoin="round"/>
<path d="M194.912 198.445C174.586 166.539 155.456 150.475 131.64 126.703L133.387 125.169C157.272 144.476 175.286 161.404 198.388 196.782" fill="#3FB93F"/>
<path d="M194.912 198.445C174.586 166.539 155.456 150.475 131.64 126.703L133.387 125.169C157.272 144.476 175.286 161.404 198.388 196.782" stroke="#3FB93F" stroke-width="5.17732"/>
<path d="M113 108.228C113 108.228 87.3556 135.657 71.0344 144.161C49.098 155.591 17.8736 134.964 36.116 111.558C21.608 96.6011 37.48 68.7814 64.1603 75.7234C86.0916 81.4296 113 108.228 113 108.228Z" fill="#4DDF4D"/>
<path d="M111.262 108.232L92.1227 127.092C96.8778 120.488 103.982 112.371 97.8489 110.978C84.6171 107.973 56.9368 110.539 43.0945 111.631C39.7557 111.894 34.3721 117.608 32.6479 119.722C32.8175 117.189 35.9116 111.635 35.7185 110.738C35.5242 109.835 32.2999 103.514 32.2225 101.364C34.6323 105.708 40.5461 110.671 44.4561 110.445C58.3647 109.642 89.2112 107.783 95.9595 106.031C107.6 103.009 73.0598 80.8431 63.297 76.8408C87.4629 78.1271 111.262 108.232 111.262 108.232Z" fill="#43C343"/>
<path d="M113.018 108.181C113.018 108.181 87.3736 135.61 71.0524 144.114C49.116 155.544 17.8917 134.917 36.134 111.511C21.626 96.5543 37.498 68.7346 64.1784 75.6766C86.1097 81.3829 113.018 108.181 113.018 108.181Z" stroke="#3FB93F" stroke-width="5.5726"/>
<path d="M114.624 106.808C114.624 106.808 89.2698 82.8318 82.2117 67.7484C72.7254 47.4756 96.6354 19.3454 118.62 36.4779C135.177 23.5134 161.864 38.5665 152.267 62.8132C144.378 82.744 114.624 106.808 114.624 106.808Z" fill="#4DDF4D"/>
<path d="M114.787 105.22L97.4982 87.3571C103.738 91.8328 111.288 98.4851 113.288 92.9075C117.604 80.874 117.656 55.5262 117.877 42.8542C117.93 39.7977 112.653 34.7651 110.674 33.1477C113.227 33.3526 118.561 36.2896 119.489 36.1309C120.424 35.9711 127.142 33.1487 129.329 33.1203C124.693 35.2371 119.094 40.5441 118.948 44.1219C118.429 56.8489 117.356 85.0763 118.486 91.2781C120.434 101.976 146.222 70.8457 151.217 62.0022C147.595 84.0623 114.787 105.22 114.787 105.22Z" fill="#43C343"/>
<path d="M114.67 106.826C114.67 106.826 89.3157 82.8491 82.2576 67.7657C72.7713 47.4929 96.6813 19.3628 118.665 36.4953C135.223 23.5307 161.91 38.5838 152.313 62.8306C144.424 82.7614 114.67 106.826 114.67 106.826Z" stroke="#3FB93F" stroke-width="5.36987"/>
<path d="M117.539 107.857C117.539 107.857 141.433 83.272 156.388 76.1786C176.489 66.6447 204.065 88.3225 186.958 109.531C199.62 124.736 184.527 150.311 160.664 141.994C141.049 135.157 117.539 107.857 117.539 107.857Z" fill="#4DDF4D"/>
<path d="M119.106 107.963C128.607 96.9428 150.555 75.5363 164.783 74.1975C150.418 83.9038 132.116 99.7452 136.267 102.157C146.999 108.393 168.156 109.189 180.668 109.02C183.686 108.98 188.701 103.862 190.315 101.951C190.091 104.36 187.145 109.47 187.294 110.339C187.444 111.214 190.173 117.456 190.183 119.515C188.132 115.213 182.939 110.098 179.407 110.067C166.843 109.956 139.246 108.117 133.112 109.364C122.531 111.517 152.784 136.541 161.474 140.981C139.72 138.226 119.106 107.963 119.106 107.963Z" fill="#43C343"/>
<path d="M117.521 107.901C117.521 107.901 141.415 83.3156 156.371 76.2222C176.472 66.6883 204.047 88.3661 186.941 109.574C199.602 124.779 184.509 150.354 160.647 142.037C141.032 135.201 117.521 107.901 117.521 107.901Z" stroke="#3FB93F" stroke-width="5.17732"/>
<path d="M115.186 109.294C115.186 109.294 141.015 133.62 148.635 148.987C158.878 169.642 137.12 198.572 114.912 181.219C99.5116 194.592 72.8471 179.399 80.9171 154.542C87.5505 134.111 115.186 109.294 115.186 109.294Z" fill="#4DDF4D"/>
<path d="M115.11 110.919C126.188 121.422 132.978 128.043 139.77 139.079C133.847 133.681 128.571 129.681 122.599 127.474C114.772 124.583 114.871 161.74 115.306 174.695C115.411 177.82 120.789 182.926 122.792 184.565C120.305 184.374 114.979 181.411 114.086 181.58C113.187 181.75 106.814 184.684 104.693 184.729C109.082 182.531 114.243 177.065 114.202 173.407C114.053 160.393 117.358 132.388 112.079 128.641C105.813 124.195 83.5214 152.586 80.1136 166.456C74.7121 146.327 115.11 110.919 115.11 110.919Z" fill="#43C343"/>
<path d="M115.141 109.277C115.141 109.277 140.969 133.602 148.59 148.97C158.832 169.625 137.075 198.555 114.867 181.201C99.4661 194.575 72.8017 179.381 80.8717 154.525C87.5051 134.093 115.141 109.277 115.141 109.277Z" stroke="#3FB93F" stroke-width="5.34892"/>
<path d="M222.251 339.389C231.378 343.374 259.525 341.54 265.134 340.388" stroke="#33B9F1" stroke-width="4.17908" stroke-linecap="round" stroke-linejoin="round"/>
<path d="M210.997 382.517C210.879 382.535 210.52 382.853 210.277 382.629C209.806 382.196 209.191 379.536 209.381 376.489C209.491 374.723 209.857 372.938 210.544 371.244C211.196 369.637 212.075 368.261 213.108 367.088C214.325 365.707 215.638 364.74 216.761 364.024C219.732 362.13 223.21 361.104 226.615 360.846C227.385 360.788 228.16 360.768 228.934 360.787C232.834 360.884 236.675 362.075 238.827 362.694C237.049 362.576 232.266 362.741 229.014 363.064C228.29 363.136 227.571 363.215 226.863 363.306C223.751 363.706 220.578 364.376 217.966 365.958C216.979 366.556 215.896 367.43 214.941 368.631C214.132 369.647 213.471 370.826 212.98 372.183C212.459 373.623 212.175 375.135 212.036 376.688C211.798 379.353 212.045 381.861 211.717 382.405C211.549 382.685 211.117 382.498 210.997 382.517V382.517Z" fill="#33B9F1"/>
<path d="M211.665 377.534C220.404 379.662 259.156 378.354 264.765 377.202" stroke="#33B9F1" stroke-width="4.17908" stroke-linecap="round" stroke-linejoin="round"/>
<path d="M182.113 376.12C185.749 377.006 200.299 376.875 209.777 376.829" stroke="#33B9F1" stroke-width="4.17908" stroke-linecap="round" stroke-linejoin="round"/>
<path d="M207.455 361.35C204.955 361.186 200.291 361.315 195.825 362.32C195.131 362.476 194.418 362.661 193.699 362.885C192.225 363.346 190.802 363.952 189.491 364.767C188.398 365.447 187.426 366.246 186.581 367.175C185.821 368.011 185.183 368.932 184.658 369.929C184.167 370.862 183.787 371.838 183.503 372.831C182.959 374.731 182.803 376.562 182.813 377.977C182.797 378.598 182.875 379.251 183.045 379.881C183.224 380.541 183.494 381.135 183.822 381.619C184.128 382.071 184.541 382.484 185.033 382.758C185.458 382.994 185.921 383.116 186.422 383.094C199.292 383.162 213.338 383.218 214.46 384.243C214.662 384.428 214.451 384.746 214.449 384.847C214.447 384.947 214.647 385.273 214.438 385.45C213.279 386.433 199.24 385.978 186.377 385.578C185.381 385.529 184.525 385.195 183.819 384.738C183.02 384.221 182.417 383.55 181.967 382.943C181.476 382.28 181.049 381.505 180.726 380.646C180.42 379.831 180.214 378.955 180.145 378.071C180.048 376.446 180.151 374.315 180.738 372.076C181.047 370.899 181.482 369.72 182.07 368.581C182.7 367.361 183.487 366.226 184.44 365.203C185.499 364.066 186.717 363.117 188.062 362.353C189.666 361.442 191.372 360.838 193.058 360.462C193.881 360.278 194.689 360.152 195.459 360.071C200.346 359.554 205.147 360.824 207.454 361.35L207.455 361.35Z" fill="#33B9F1"/>
<path d="M190.793 340.378C194.429 341.263 212.463 342.45 221.064 339.829" stroke="#33B9F1" stroke-width="4.17908" stroke-linecap="round" stroke-linejoin="round"/>
<path d="M205.491 281.444C205.881 282.317 207.409 284.817 208.647 286.462C208.654 286.472 208.726 286.567 208.733 286.577C209.758 287.938 211.201 289.683 212.721 291.165C213.907 292.322 215.669 293.684 217.835 294.882C220.453 296.329 223.131 297.056 223.496 297.661C223.666 297.941 223.334 298.371 223.302 298.513C223.269 298.655 223.403 299.191 223.107 299.366C222.395 299.786 219.402 298.999 216.479 297.195C214.118 295.739 212.371 294.061 211.112 292.778C209.379 291.014 208.149 289.27 207.252 287.492C207.229 287.447 207.207 287.401 207.184 287.354C206.009 284.961 205.654 282.76 205.491 281.444V281.444Z" fill="#33B9F1"/>
<path d="M196.664 259.477L186.483 259.39M268.926 260.79L237.388 260.223L268.926 260.79Z" stroke="#33B9F1" stroke-width="4.29895" stroke-linecap="round" stroke-linejoin="round"/>
<path d="M196.362 251.449L186.996 251.362" stroke="#33B9F1" stroke-width="4.29895" stroke-linecap="round" stroke-linejoin="round"/>
<path d="M260.352 232.487C260.156 232.307 259.806 232.046 259.278 231.716C258.89 231.474 258.441 231.218 258.043 230.98C257.961 230.931 257.881 230.882 257.805 230.835C257.023 230.348 256.307 229.861 255.435 229.303C255.307 229.221 255.175 229.138 255.04 229.053C254.386 228.646 253.603 228.238 252.789 227.814C251.836 227.318 251.143 226.953 251.015 226.617C250.925 226.381 251.093 225.972 251.108 225.849C251.187 225.756 251.376 225.352 251.625 225.269C251.977 225.151 252.764 225.468 253.755 226.017C254.612 226.493 255.367 226.991 256.063 227.437C256.205 227.529 256.344 227.619 256.478 227.709C257.372 228.305 258.154 228.912 258.814 229.643C258.88 229.716 258.947 229.794 259.013 229.875C259.343 230.279 259.64 230.736 259.869 231.188C260.175 231.792 260.286 232.23 260.353 232.487H260.352Z" fill="#33B9F1"/>
<path d="M227.649 244.406C226.927 246.839 225.221 248.071 224.282 247.541C219.586 244.888 216.386 250.159 215.674 250.101C211.586 249.763 205.858 246.1 207.706 243.387C208.683 241.953 205.022 239.227 204.189 237.223C202.518 233.533 203.352 227.348 205.026 225.848C208.36 222.861 215.041 220.426 217.212 221.405C217.212 221.405 226.038 225.179 227.9 234.519" stroke="#33B9F1" stroke-width="4.29895" stroke-linecap="round" stroke-linejoin="round"/>
<path d="M240.521 225.393C245.816 235.898 245.04 247.685 241.398 252.089" stroke="#33B9F1" stroke-width="4.29895" stroke-linecap="round" stroke-linejoin="round"/>
<path d="M198.652 192.55C202.087 190.741 208.045 188.505 210.32 193.861C211.59 196.85 209.2 199.457 209.2 199.457" stroke="#33B9F1" stroke-width="4.39407" stroke-linecap="square" stroke-linejoin="round"/>
<path d="M167.655 219.668C168.305 218.953 169.668 217.092 171.553 215.378C174.75 212.471 181.218 207.985 186.745 203.945C186.72 203.86 186.696 203.775 186.673 203.691C186.504 203.057 186.381 202.358 186.368 201.597C186.352 200.631 186.515 199.657 186.887 198.732C187.275 197.768 187.849 196.96 188.507 196.344C189.663 195.263 190.869 194.968 191.178 195.201C191.326 195.313 191.338 195.624 191.37 195.709C191.405 195.801 191.586 196.032 191.562 196.216C191.513 196.595 190.698 197.01 189.891 197.797C189.423 198.254 188.976 198.812 188.642 199.5C188.322 200.157 188.138 200.871 188.115 201.604C188.097 202.179 188.181 202.723 188.337 203.207C188.412 203.442 188.509 203.682 188.627 203.924C188.712 204.097 188.73 204.297 188.679 204.491C188.629 204.686 188.512 204.862 188.348 204.992C182.875 209.339 176.579 214.645 172.819 217.037C170.67 218.404 168.516 219.229 167.655 219.668H167.655Z" fill="#33B9F1"/>
<path d="M177.051 212.932C174.394 221.096 179.586 231.67 188.474 236.61" stroke="#33B9F1" stroke-width="4.29895" stroke-linecap="round" stroke-linejoin="round"/>
<path d="M200.314 222.957C194.341 220.652 191.305 214.482 191.036 211.931" stroke="#33B9F1" stroke-width="4.29895" stroke-linecap="round" stroke-linejoin="round"/>
<path d="M206.408 238.403C207.977 235.1 207.966 235.248 208.569 232.165" stroke="#33B9F1" stroke-width="4.29895" stroke-linecap="round" stroke-linejoin="round"/>
<path d="M208.277 244.605C211.157 242.351 211.081 242.479 212.997 239.99" stroke="#33B9F1" stroke-width="4.29895" stroke-linecap="round" stroke-linejoin="round"/>
<path d="M254.756 197.493L266.502 195.913L277.466 192.373L287.471 187.067L296.34 180.189L303.897 171.931L309.963 162.488L314.363 152.052L316.918 140.818L317.452 128.979L315.872 117.233L312.332 106.269L307.026 96.2638L300.148 87.3945L291.89 79.8381L282.447 73.7717L272.011 69.3723L260.777 66.8171L248.938 66.2831L237.192 67.863L226.228 71.4027L216.223 76.7084L207.353 83.587L199.797 91.8446L193.731 101.288L189.331 111.724L186.776 122.958L186.242 134.797L187.822 146.543L191.361 157.507L196.667 167.512L203.546 176.382L211.804 183.938L221.247 190.004L231.682 194.404L242.917 196.959L254.756 197.493Z" fill="#CAEFFE" fill-opacity="0.25"/>
<path d="M315.595 113.034L316.685 117.24L317.498 121.508L318.03 125.821L318.279 130.159L318.243 134.504L317.923 138.837L317.321 143.14L316.439 147.395L315.28 151.582L313.849 155.685L312.154 159.686L310.2 163.567L307.997 167.312L305.553 170.905L302.88 174.331L299.989 177.574L296.891 180.621L293.601 183.459L290.132 186.076L286.5 188.461L282.719 190.602L278.806 192.492L274.778 194.122L270.653 195.485L266.447 196.575L262.178 197.388L257.866 197.92L253.528 198.169L249.183 198.133L244.849 197.814L240.546 197.211L236.292 196.329L232.104 195.17L228.001 193.74L224 192.044L220.119 190.09L216.374 187.887L212.781 185.444L209.355 182.77L206.112 179.879L203.065 176.781L200.227 173.491L197.61 170.023L195.225 166.39L193.084 162.609L191.194 158.697L189.564 154.669L188.201 150.543L187.111 146.337L186.298 142.069L185.766 137.756L185.517 133.418L185.553 129.073L185.872 124.74L186.475 120.437L187.357 116.182L188.516 111.994L189.946 107.891L191.642 103.891L193.595 100.01L195.799 96.2645L198.242 92.6715L200.915 89.246L203.807 86.0027L206.905 82.9555L210.195 80.1174L213.663 77.5005L217.296 75.1161L221.077 72.9743L224.989 71.0844L229.017 69.4545L233.143 68.0915L237.349 67.0013L241.617 66.1885L245.93 65.6566L250.268 65.4078L254.613 65.4434L258.946 65.763L263.249 66.3653L267.504 67.2479L271.692 68.4067L275.795 69.837L279.795 71.5326L283.677 73.4862L287.422 75.6895L291.015 78.133L294.44 80.8062L297.684 83.6977L300.731 86.7952L303.569 90.0854L306.186 93.5541L308.57 97.1866L310.712 100.967L312.602 104.88L314.232 108.908L315.595 113.034Z" stroke="#33B9F1" stroke-width="4.68698" stroke-linecap="round"/>
<path d="M274.064 168.774L273.514 169.506L273.003 170.305L272.314 171.594L271.908 172.48L271.396 173.713L270.984 174.811L270.411 176.451L270.145 177.019L269.656 177.784L269.086 178.457L268.449 179.075L267.987 179.478L266.941 180.307L266.353 180.724L265.697 181.149L264.616 181.774L263.837 182.178L263.034 182.548L262.223 182.87L260.999 183.27L259.026 183.595L255.64 183.57L254.896 183.584L254.156 183.648L253.067 183.871L252.362 184.114L250.267 184.96L249.193 185.29L248.098 185.554L246.983 185.759L245.475 185.935L243.966 186.036L242.467 186.064L240.236 186.004L236.912 185.795L234.291 185.547L232.02 185.27L229.81 184.933L227.626 184.529L221.833 183.303L220.394 182.931L219.327 182.593L218.284 182.184L217.272 181.699L216.298 181.136L215.366 180.498L214.193 179.553L213.357 178.785L212.311 177.681L211.576 176.808L210.685 175.586L210.079 174.623L209.525 173.634L208.873 172.268L208.451 171.214L207.979 169.77L207.616 168.31L207.35 166.836L207.166 165.349L207.028 163.475L207.098 155.708L207.495 150.282L207.596 148.104L207.613 145.507L207.577 144.374L207.559 143.229L207.567 142.088L207.605 140.944L207.692 139.814L207.871 138.713L208.323 137.305L212.733 127.723L213.438 125.982L213.656 125.263L213.901 124.169L214.059 123.051L214.367 119.702L214.566 118.593L214.793 117.876L215.107 117.201L215.737 116.284L216.234 115.723L217.83 114.119L218.597 113.281L219.316 112.395L220.184 111.146L220.957 109.838L221.478 108.82L223.014 105.314L223.858 103.621L224.84 102.01L225.283 101.403L225.994 100.531L227.026 99.4329L228.395 98.1299L230.085 96.6391L231.812 95.2L233.309 94.0318L234.541 93.1408L235.799 92.3015L237.303 91.4047L235.304 92.0968L238.149 91.7848L240.378 91.5843L242.239 91.4762L244.091 91.4536L245.57 91.5128L247.444 91.7051L248.921 91.9714L250.378 92.35L251.808 92.8325L253.212 93.3782L257.746 95.3469L259.508 96.0626L260.926 96.5884L265.21 98.0758L266.974 98.7684L268.375 99.3733L270.752 100.543L272.392 101.482L273.962 102.531L275.422 103.717L276.25 104.498L277.045 105.312L277.798 106.154L278.506 107.037L279.163 107.964L279.771 108.919L280.656 110.582L281.117 111.613L281.531 112.669L281.89 113.745L282.309 115.194L282.801 117.397L283.045 118.887L283.226 120.392L283.345 121.903L283.411 123.407L283.436 125.276L283.41 127.135L283.343 128.986L283.216 130.834L282.878 133.816L282.394 136.767L282.085 138.229L281.718 139.681L281.401 140.764L280.922 142.187L279.584 145.679L279.41 146.26L279.457 146.359L279.817 146.176L281.476 145.132L282.462 144.621L284.199 143.89L285.985 143.272L287.434 142.866L288.913 142.581L290.413 142.453L291.905 142.478L293.38 142.66L294.46 142.941L295.143 143.234L295.774 143.625L296.071 143.852L296.88 144.623L297.56 145.519L298.117 146.502L298.42 147.191L298.676 147.903L298.877 148.629L299.067 149.722L299.11 150.446L299.051 151.514L298.94 152.212L298.678 153.241L298.455 153.919L298.055 154.929L297.452 156.269L296.957 157.264L296.227 158.577L295.639 159.566L295.046 160.547L294.427 161.515L293.799 162.468L293.131 163.371L292.237 164.525L291.056 165.883L290.011 166.881L288.567 168.003L287.287 168.787L286.287 169.311L284.896 169.895L283.493 170.289L282.45 170.388L281.412 170.328L280.363 170.126L279.674 169.874L278.996 169.528L278.665 169.325L278.013 168.884L277.382 168.427L276.193 167.596L275.889 167.542L275.571 167.633L275.255 167.779L274.645 168.196L274.064 168.774Z" fill="#F1B67F"/>
<path d="M237.353 136C235.935 137.733 238.004 139.7 239.441 140.814C240.981 141.993 242.902 142.537 244.776 142.912C246.132 143.116 247.638 143.408 248.91 142.73C249.521 142.465 250.527 141.779 249.922 141.12C248.688 139.284 246.63 137.221 244.554 136.453C238.824 134.658 242.503 135.605 237.353 136Z" fill="#FEFEFE"/>
<path d="M213.489 129.441C213.323 128.803 213.786 128.159 214.399 127.994C214.899 127.84 215.301 127.455 215.816 127.404C217.182 127.365 218.89 127.032 220.105 127.735C221.134 128.29 222.35 129.273 223.313 129.932C224.06 130.566 224.504 131.737 224.899 132.662C225.187 133.233 224.452 133.22 224.109 133.36C222.169 133.956 220.088 133.721 218.149 133.25C216.545 132.841 214.982 131.997 214.036 130.6C213.785 130.253 213.559 129.87 213.489 129.441Z" fill="#FEFEFE"/>
<path d="M244.09 137.905L244.128 138.05L244.156 138.197L244.174 138.345L244.183 138.494L244.181 138.643L244.17 138.792L244.15 138.94L244.119 139.086L244.08 139.23L244.03 139.371L243.972 139.509L243.905 139.642L243.829 139.771L243.745 139.895L243.653 140.012L243.554 140.124L243.447 140.229L243.334 140.326L243.215 140.416L243.09 140.498L242.96 140.572L242.826 140.637L242.687 140.693L242.546 140.74L242.401 140.777L242.254 140.805L242.106 140.823L241.957 140.832L241.808 140.831L241.659 140.82L241.511 140.799L241.364 140.769L241.22 140.729L241.079 140.679L240.942 140.621L240.808 140.554L240.68 140.478L240.556 140.394L240.438 140.302L240.327 140.203L240.222 140.097L240.125 139.983L240.035 139.864L239.953 139.739L239.879 139.609L239.814 139.475L239.758 139.336L239.711 139.195L239.674 139.05L239.646 138.903L239.628 138.755L239.619 138.606L239.62 138.457L239.631 138.308L239.652 138.16L239.682 138.014L239.722 137.87L239.771 137.729L239.83 137.591L239.897 137.458L239.972 137.329L240.056 137.205L240.148 137.088L240.248 136.976L240.354 136.871L240.467 136.774L240.587 136.684L240.711 136.602L240.841 136.528L240.976 136.463L241.114 136.407L241.256 136.36L241.401 136.323L241.547 136.295L241.696 136.277L241.845 136.268L241.994 136.269L242.143 136.28L242.291 136.301L242.437 136.331L242.581 136.371L242.722 136.42L242.86 136.479L242.993 136.546L243.122 136.622L243.245 136.706L243.363 136.797L243.475 136.897L243.579 137.003L243.677 137.116L243.767 137.236L243.849 137.361L243.923 137.49L243.988 137.625L244.044 137.763L244.09 137.905Z" fill="#2B452F"/>
<path d="M220.703 129.253L220.74 129.397L220.768 129.544L220.787 129.692L220.795 129.841L220.794 129.991L220.783 130.14L220.762 130.288L220.732 130.434L220.692 130.578L220.643 130.719L220.585 130.856L220.517 130.99L220.442 131.118L220.358 131.242L220.266 131.36L220.166 131.471L220.06 131.576L219.947 131.674L219.828 131.763L219.703 131.845L219.573 131.919L219.438 131.984L219.3 132.04L219.158 132.087L219.013 132.124L218.867 132.152L218.719 132.171L218.569 132.179L218.42 132.178L218.271 132.167L218.123 132.146L217.977 132.116L217.833 132.076L217.692 132.027L217.554 131.969L217.421 131.901L217.292 131.826L217.169 131.742L217.051 131.65L216.94 131.55L216.835 131.444L216.737 131.331L216.647 131.212L216.565 131.087L216.492 130.957L216.427 130.822L216.371 130.684L216.324 130.542L216.286 130.397L216.258 130.251L216.24 130.102L216.232 129.953L216.233 129.804L216.244 129.655L216.265 129.507L216.295 129.361L216.335 129.217L216.384 129.076L216.442 128.938L216.509 128.805L216.585 128.676L216.669 128.553L216.761 128.435L216.86 128.323L216.967 128.219L217.08 128.121L217.199 128.031L217.324 127.949L217.454 127.876L217.588 127.811L217.727 127.755L217.869 127.708L218.013 127.67L218.16 127.642L218.308 127.624L218.457 127.616L218.607 127.617L218.756 127.628L218.904 127.648L219.05 127.679L219.194 127.719L219.335 127.768L219.472 127.826L219.606 127.893L219.735 127.969L219.858 128.053L219.976 128.145L220.087 128.244L220.192 128.351L220.29 128.464L220.38 128.583L220.461 128.708L220.535 128.838L220.6 128.972L220.656 129.111L220.703 129.253Z" fill="#2B452F"/>
<path d="M270.044 125.456L270.432 123.896L271.539 120.494L271.76 119.391L271.894 117.915L271.893 117.176L271.841 116.436L271.683 115.334L271.369 113.875L271.078 112.783L270.719 111.707L270.29 110.656L269.793 109.639L269.224 108.66L268.598 107.724L267.916 106.826L266.929 105.682L266.138 104.868L265.024 103.835L264.132 103.129L263.506 102.715L262.85 102.345L261.827 101.874L260.037 101.258L258.212 100.825L256.72 100.613L252.267 100.173L250.786 99.9349L249.686 99.6872L248.239 99.2682L246.827 98.7574L245.79 98.2993L244.446 97.5897L243.181 96.775L241.676 95.6291L240.537 94.629L239.47 93.5432L238.501 92.3882L237.626 91.1661L236.855 89.8657L236.376 88.8309L235.993 87.7649L235.727 86.6677L235.551 85.5526L235.512 84.4302L235.597 83.6933L235.897 82.6257L236.349 81.5968L236.914 80.6159L237.363 80.015L238.146 79.2016L239.006 78.476L240.228 77.5808L241.51 76.7774L243.489 75.6556L245.722 74.2539L247.081 73.5957L247.786 73.3352L248.876 73.0299L249.992 72.7986L251.112 72.6217L252.621 72.4541L255.65 72.2083L256.401 72.1931L257.142 72.2484L258.24 72.4566L259.685 72.8608L260.745 73.2341L263.188 74.2449L264.242 74.644L265.313 74.996L266.4 75.2996L267.859 75.6327L269.322 75.898L273.782 76.4712L276.367 76.9281L277.461 77.1981L278.178 77.4267L278.876 77.7043L279.553 78.0335L280.519 78.6217L281.413 79.3066L282.24 80.0806L284.294 82.2796L285.641 83.6021L287.064 84.8438L290.597 87.7198L292.013 88.9814L294.435 91.3699L296.483 93.5974L298.307 95.5054L299.043 96.3573L299.498 96.9568L299.921 97.5836L300.499 98.5565L301.518 100.579L302.554 103.026L302.923 104.098L303.213 105.198L303.412 106.315L303.656 108.194L303.955 109.679L304.366 111.124L305.333 113.971L305.532 114.693L305.76 115.798L306.019 117.664L306.384 121.441L306.415 122.936L306.295 124.802L305.959 127.414L305.455 129.991L304.86 132.17L304 134.646L303.451 136.046L302.801 137.413L300.725 141.027L299.696 143.035L298.924 144.762L297.859 147.449L297.717 147.519L297.557 147.387L297.247 146.98L295.977 144.451L295.6 143.795L295.175 143.173L294.433 142.331L293.86 141.858L293.224 141.467L292.539 141.161L291.826 140.927L291.098 140.754L290.361 140.644L289.617 140.595L288.867 140.605L287.747 140.712L287.012 140.847L285.927 141.142L284.863 141.529L284.168 141.84L283.498 142.181L282.521 142.751L281.585 143.387L280.692 144.08L279.302 145.359L278.525 146.196L278.041 146.779L277.376 147.696L276.757 148.667L275.6 150.756L277.837 146.657L277.526 143.421L277.219 141.222L276.951 139.748L276.756 139.023L276.508 138.31L275.9 136.935L275.166 135.628L274.308 134.389L272.489 132.399L271.731 131.511L271.279 130.886L270.885 130.235L270.403 129.207L270.161 128.495L269.999 127.758L269.928 127.005L269.948 126.235L270.044 125.456Z" fill="#484848"/>
<path d="M217.959 159.143C217.959 159.143 218.778 161.021 218.323 162.636C217.868 164.251 217.293 165.15 217.293 165.15C217.293 165.15 220.708 167.812 223.823 166.976C226.937 166.14 228.42 163.047 228.42 163.047L230.018 161.809L217.959 159.143Z" fill="#71524B"/>
<path d="M225.496 162.611C227.824 162.404 230.489 161.952 232.034 161.347C231.886 160.981 229.685 160.826 229.268 160.485C226.279 160.254 223.993 159.335 221.532 158.577C220.875 158.355 219.222 157.636 218.592 157.361C217.838 156.778 217.524 157.217 217.608 158.128C217.559 158.921 218.044 159.896 218.65 160.441C220.775 162.007 223.049 162.417 225.496 162.611L225.496 162.611Z" fill="#FEFEFE"/>
<path d="M294.448 150.784L294.794 148.941L294.962 147.309L294.971 146.607L294.924 145.668L294.684 143.956L295.363 144.111L296.023 145.322L296.624 146.607L297.137 147.947L297.48 149.092L297.668 150.03L297.74 150.979L297.698 151.928L297.58 152.864L297.349 154.018L297.087 154.926L296.659 156.031L296.137 157.104L295.427 158.351L294.398 159.957L292.214 163.083L291.331 164.22L290.418 165.317L289.755 166.016L289.054 166.669L288.128 167.417L286.95 168.235L286.118 168.722L285.246 169.119L284.114 169.475L282.719 169.774L281.536 169.909L280.593 169.913L279.664 169.785L278.756 169.52L277.864 169.138L277.008 168.645L276.255 168.037L275.797 167.498L275.459 166.885L275.264 166.226L275.241 165.769L275.374 165.099L275.464 164.888L275.712 164.499L276.214 164.022L276.616 163.801L277.287 163.638L280.35 163.414L282.942 163.104L284.097 162.837L285.439 162.353L286.301 161.945L287.35 161.368L288.15 160.843L288.92 160.27L289.65 159.644L290.5 158.797L291.134 158.082L291.719 157.32L292.251 156.526L292.611 155.906L292.944 155.271L293.334 154.404L293.895 152.844L294.448 150.784Z" fill="#E1A272"/>
<path d="M272.166 166.966L270.79 168.359L269.445 169.674L268.396 170.598L267.066 171.603L265.861 172.398L263.816 173.665L262.157 174.639L260.484 175.552L258.567 176.534L256.659 177.497L255.14 178.192L250.232 180.104L245.769 181.333L242.952 181.961L240.805 182.359L239.612 182.527L238.649 182.62L236.267 182.716L229.917 182.738L228.285 182.666L227.102 182.516L225.697 182.242L219.268 180.822L218.871 180.785L218.773 180.854L218.764 181L218.834 181.333L219.01 181.7L219.246 182.066L219.868 182.693L220.658 183.148L221.777 183.547L222.705 183.816L223.847 184.163L224.953 184.535L226.263 184.933L231.209 185.649L241.535 185.821L242.931 185.83L245.985 185.501L246.844 185.335L247.672 185.206L249.192 185.073L250.77 185.061L257.322 183.506L258.962 183.076L260.401 182.707L261.901 182.23L262.959 181.79L266.617 179.748L267.612 179.128L268.534 178.419L269.375 177.615L269.995 176.91L270.828 175.747L271.76 174.111L272.654 172.275L273.552 170.629L274.527 168.902L275.286 167.333L275.814 165.732L276.319 163.587L275.073 163.546L273.303 165.699L272.166 166.966Z" fill="#E1A272"/>
<path d="M234.403 92.5874L232.675 93.7579L232.568 93.8423L230.978 95.2254L229.389 96.6085L229.299 96.6984L227.87 98.2578L226.442 99.8172L226.366 99.9113L225.124 101.607L223.881 103.303L223.814 103.407L222.878 105.049L221.942 106.691L221.941 106.692L220.62 109.028L219.321 111.327L218.308 112.84L218.289 112.868L217.502 114.128L216.589 114.745L215.77 115.222L215.696 115.274L214.976 115.943L214.908 115.998L213.74 117.167L213.571 117.361L213.455 117.59L212.84 119.125L212.781 119.393L212.572 120.914L212.567 121.043L212.648 122.147L212.748 123.179L212.748 123.182L212.755 124.393L212.745 125.528L212.744 126.621L212.588 127.935L212.015 129.257L211.191 130.508L210.159 131.71L210.098 131.787L209.198 133.008L209.065 133.257L208.411 134.92L208.385 134.997L207.848 136.826L207.815 136.979L207.493 139.175L207.484 139.27L207.438 141.415L207.437 141.501L207.432 143.627L207.246 145.907L207.257 146.135L207.312 146.356L207.41 146.563L207.545 146.746L207.714 146.899L207.91 147.017L208.125 147.094L208.351 147.127L208.579 147.116L208.8 147.061L209.006 146.963L209.19 146.827L209.343 146.658L209.46 146.462L209.537 146.248L209.571 146.022L209.613 143.694L209.614 143.612L209.499 141.491L209.697 139.447L209.995 137.374L210.496 135.658L211.033 134.148L211.789 133.058L212.865 131.828L212.98 131.668L213.745 130.201L213.799 130.097L214.457 128.593L214.532 128.32L214.725 126.832L214.731 126.762L214.849 125.605L214.851 125.536L214.812 124.366L214.812 124.362L214.781 123.153L214.858 122.112L214.858 122.103L214.896 120.997L214.95 119.73L215.311 118.531L216.41 117.682L217.179 117.222L217.933 116.685L217.99 116.645L219.023 115.831L219.31 115.524L220.218 114.109L221.26 112.586L221.305 112.513L222.656 110.194L224.006 107.877L224.958 106.246L225.879 104.667L227.064 103.006L228.25 101.344L229.595 99.7911L230.938 98.2405L232.441 96.8565L233.941 95.4758L235.597 94.3222L237.31 93.1299L237.466 92.9985L237.593 92.8392L237.688 92.6584L237.745 92.4624L237.762 92.2592L237.739 92.0565L237.678 91.8621L237.579 91.6835L237.448 91.5276L237.289 91.4002L237.108 91.3057L236.912 91.249L236.709 91.2316L236.506 91.2542L236.311 91.3159L236.133 91.4144L234.422 92.5732L234.403 92.5874Z" fill="#A47559"/>
<path d="M206.925 150.162L206.923 150.179L206.598 154.107L206.596 154.144L206.401 158.106L206.4 158.164L206.411 162.071L206.414 162.154L206.707 165.919L206.721 166.032L207.371 169.567L207.41 169.717L208.493 172.935L208.597 173.158L210.709 176.559L210.87 176.761L213.815 179.612L213.966 179.735L217.488 182.047L217.618 182.121L221.465 183.908L221.578 183.953L225.502 185.23L225.61 185.259L228.668 185.888L228.751 185.901L232.271 186.312L232.334 186.318L236.202 186.516L236.254 186.517L240.357 186.507L240.404 186.506L244.629 186.292L244.673 186.289L248.907 185.877L248.953 185.871L253.082 185.265L253.133 185.256L257.044 184.461L257.105 184.447L260.685 183.467L260.763 183.442L263.899 182.283L264.005 182.237L266.584 180.902L266.733 180.806L268.642 179.302L268.79 179.155L271.201 176.144L271.277 176.034L273.27 172.581L273.312 172.5L274.967 168.769L274.989 168.715L276.388 164.865L276.4 164.833L277.627 161.021L277.659 160.873L277.663 160.721L277.636 160.571L277.581 160.43L277.499 160.301L277.394 160.192L277.269 160.105L277.13 160.044L276.982 160.011L276.83 160.008L276.68 160.034L276.539 160.089L276.411 160.171L276.301 160.276L276.214 160.401L276.153 160.54L274.901 164.326L273.446 168.106L271.739 171.732L269.738 175.049L267.41 177.906L265.652 179.289L263.201 180.551L260.154 181.668L256.641 182.618L252.784 183.39L248.702 183.976L244.512 184.37L240.332 184.569L236.278 184.568L232.469 184.364L229.023 183.956L226.062 183.345L222.256 182.086L218.551 180.316L215.203 178.055L212.453 175.331L210.491 172.135L209.479 169.106L208.872 165.701L208.613 162.032L208.631 158.195L208.849 154.281L209.191 150.381L209.577 146.584L209.577 146.36L209.534 146.141L209.449 145.933L209.325 145.747L209.167 145.588L208.981 145.464L208.774 145.378L208.554 145.334L208.331 145.333L208.111 145.376L207.904 145.462L207.717 145.586L207.559 145.744L207.434 145.929L207.348 146.136L207.304 146.356L206.929 150.124L206.925 150.162Z" fill="#A47559"/>
<path d="M216.092 120.05L216.88 120.112L217.766 120.33L218.811 120.523L219.417 120.631L220.108 120.782L220.871 120.992L221.385 121.169L222.035 121.483L222.74 121.948L223.588 122.631L224.308 123.258L224.817 123.807L225.161 124.229L225.432 124.679L225.654 125.169L225.836 125.83L225.891 126.435L225.878 127.064L225.808 127.891L225.605 128.777L225.334 129.828L224.896 131.109L224.393 132.446L223.317 134.947L221.748 137.841L219.73 140.834L217.574 143.03L217.523 143.095L217.165 143.565L217.088 143.694L216.729 144.399L216.633 144.695L216.581 145.595L216.569 145.78L216.686 146.702L216.707 146.862L216.982 147.842L217.031 147.988L217.496 148.946L217.574 149.081L218.283 149.993L218.356 150.079L219.28 150.766L219.315 150.798L220.632 151.646L220.649 151.66L221.754 152.369L221.797 152.395L221.844 152.412L221.893 152.42L221.943 152.418L221.991 152.406L222.036 152.385L222.076 152.355L222.109 152.318L222.135 152.276L222.152 152.229L222.16 152.18L222.158 152.13L222.146 152.082L222.125 152.037L222.096 151.996L222.059 151.963L221.076 151.108L220.051 149.969L219.431 149.096L218.868 148.246L218.527 147.404L218.375 146.557L218.422 145.708L218.646 145.023L218.903 144.612L219.15 144.247L220.912 141.779L220.957 141.72L223.064 138.685L223.113 138.603L224.596 135.593L224.609 135.566L225.844 133.102L225.86 133.065L226.45 131.715L226.467 131.667L226.909 130.331L226.925 130.278L227.221 129.181L227.232 129.136L227.405 128.188L227.415 128.126L227.569 127.199L227.575 127.122L227.613 126.387L227.61 126.28L227.552 125.566L227.535 125.458L227.41 124.705L227.39 124.63L227.273 124.023L227.246 123.947L227.09 123.32L227.038 123.211L226.82 122.583L226.756 122.479L226.351 121.681L226.262 121.565L225.652 120.649L225.551 120.544L224.675 119.588L224.514 119.455L223.668 118.797L223.473 118.679L222.71 118.262L222.575 118.201L221.984 117.93L221.883 117.893L221.069 117.587L220.994 117.564L220.212 117.305L220.099 117.278L219.353 117.105L219.204 117.081L217.965 117.004L217.785 116.993L216.749 117.193L216.601 117.199L215.741 117.415L215.643 117.428L214.565 117.665L214.323 117.731L214.099 117.844L213.901 117.998L213.737 118.187L213.613 118.405L213.533 118.643L213.502 118.892L213.52 119.143L213.587 119.384L213.699 119.609L213.853 119.807L214.043 119.971L214.261 120.095L214.499 120.174L214.748 120.206L214.998 120.188L216.082 120.053L216.092 120.05Z" fill="#A47559"/>
<path d="M221.652 135.442L219.518 135.373L217.05 135.453L214.894 134.991L214.849 134.979L214.802 134.976L214.756 134.982L214.712 134.998L214.671 135.021L214.636 135.052L214.609 135.09L214.588 135.132L214.576 135.177L214.573 135.224L214.579 135.27L214.594 135.314L214.618 135.355L214.649 135.39L214.686 135.417L214.729 135.438L216.725 136.521L216.856 136.553L219.368 137.206L219.488 137.212L221.793 137.072L222.017 137.037L223.682 136.426L223.811 136.373L223.927 136.295L224.027 136.196L224.105 136.08L224.159 135.951L224.186 135.814L224.186 135.674L224.159 135.536L224.106 135.407L224.028 135.29L223.929 135.191L223.812 135.113L223.683 135.059L223.546 135.032L223.406 135.032L223.269 135.059L221.67 135.437L221.652 135.442Z" fill="#A47559"/>
<path d="M217.444 142.839L216.175 144.308L215.08 144.745L213.936 145.149L212.788 145.538L211.47 145.803L211.406 145.814L211.346 145.837L211.291 145.871L211.244 145.915L211.207 145.968L211.181 146.027L211.166 146.09L211.164 146.154L211.175 146.218L211.198 146.278L211.232 146.333L211.276 146.38L211.329 146.417L211.388 146.443L211.451 146.458L211.515 146.46L212.881 146.542L212.928 146.536L214.195 146.53L214.257 146.517L215.5 146.304L215.531 146.296L216.921 145.985L217.126 145.894L217.303 145.755L218.946 144.3L218.978 144.266L219.925 142.608L220 142.509L220.053 142.397L220.083 142.277L220.09 142.153L220.072 142.03L220.03 141.914L219.967 141.807L219.884 141.715L219.784 141.641L219.672 141.588L219.552 141.557L219.429 141.551L219.306 141.569L219.189 141.61L219.082 141.674L218.99 141.757L217.46 142.827L217.444 142.839Z" fill="#A47559"/>
<path d="M229.551 145.258L230.199 145.823L230.807 146.401L231.11 147.053L231.316 147.871L231.333 148.706L231.426 149.716L231.402 151.217L231.395 151.244L231.394 151.272L231.398 151.3L231.408 151.327L231.423 151.351L231.442 151.372L231.465 151.388L231.49 151.4L231.518 151.407L231.546 151.408L231.574 151.404L231.6 151.394L231.625 151.379L231.645 151.36L231.662 151.337L231.674 151.312L232.603 150.06L232.631 149.941L232.999 148.915L233.002 148.884L233.196 147.887L233.171 147.563L232.877 146.448L232.764 146.186L232.144 145.365L231.919 145.126L230.989 144.611L230.887 144.551L229.943 144.337L229.845 144.302L228.633 144.315L228.597 144.309L228.559 144.31L228.523 144.319L228.489 144.335L228.459 144.358L228.434 144.385L228.415 144.417L228.402 144.452L228.396 144.489L228.398 144.526L228.407 144.563L228.423 144.596L228.445 144.627L228.473 144.651L228.505 144.671L228.54 144.684L229.54 145.252L229.551 145.258Z" fill="#A47559"/>
<path d="M227.486 150.03L227.238 149.976L225.66 149.855L225.373 149.87L224.6 150.459L224.49 150.492L224.389 150.546L224.3 150.619L224.227 150.707L224.172 150.809L224.139 150.919L224.128 151.033L224.139 151.147L224.172 151.257L224.226 151.359L224.299 151.447L224.387 151.521L224.488 151.575L224.598 151.608L224.713 151.62L224.827 151.609L225.766 151.859L227.053 152.037L227.846 151.826L227.95 151.852L228.057 151.856L228.162 151.839L228.262 151.803L228.353 151.747L228.432 151.675L228.494 151.588L228.539 151.492L228.564 151.388L228.569 151.282L228.552 151.176L228.515 151.076L228.46 150.985L228.387 150.907L228.301 150.844L228.204 150.799L227.493 150.037L227.486 150.03Z" fill="#A47559"/>
<path d="M236.709 142.166L236.755 142.261L237.231 143.249L237.286 143.329L237.923 144.26L238.001 144.343L238.852 145.167L238.961 145.252L240.032 145.874L240.145 145.933L241.596 146.377L241.673 146.404L243.141 146.617L243.182 146.625L245.005 146.82L245.064 146.824L245.122 146.816L245.178 146.797L245.229 146.768L245.274 146.729L245.309 146.682L245.335 146.629L245.351 146.573L245.355 146.514L245.347 146.455L245.328 146.399L245.298 146.348L245.26 146.304L245.213 146.268L245.16 146.242L245.103 146.227L243.333 145.835L242.02 145.29L240.797 144.582L239.905 143.928L239.113 143.229L238.407 142.491L237.817 141.69L236.9 140.334L236.88 140.295L236.854 140.26L236.821 140.231L236.783 140.209L236.742 140.195L236.698 140.19L236.655 140.193L236.613 140.204L236.574 140.223L236.539 140.25L236.51 140.283L236.488 140.321L236.474 140.362L236.468 140.405L236.471 140.449L236.483 140.491L236.708 142.148L236.709 142.166Z" fill="#A47559"/>
<path d="M249.917 139.75C249.427 138.965 249.017 138.12 248.35 137.462C247.842 136.788 247.147 136.307 246.466 135.824C245.818 135.45 245.159 135.08 244.467 134.791C243.652 134.636 242.839 134.407 242.001 134.479C241.044 134.497 240.074 134.562 239.17 134.9C238.264 135.121 237.411 135.518 236.563 135.887C236.407 136.592 237.463 136.107 237.861 136.152C239.085 136.027 240.333 135.923 241.548 136.177C242.372 136.334 243.195 136.528 243.996 136.768C245.205 137.347 246.442 137.897 247.502 138.732C248.185 139.235 248.7 139.927 249.26 140.558C249.676 141.063 250.034 141.616 250.478 142.098C251.194 142.192 250.666 141.356 250.512 141.029C250.313 140.603 250.115 140.177 249.917 139.75L249.917 139.75Z" fill="#A47559"/>
<path d="M224.966 130.226L224.898 130.102L224.172 128.698L224.044 128.554L223.039 127.472L222.932 127.387L221.979 126.711L221.848 126.637L220.605 126.041L220.386 125.967L218.813 125.66L218.627 125.638L217.33 125.76L217.161 125.774L215.65 126.306L215.58 126.323L214.552 126.806L214.473 126.84L214.403 126.888L214.343 126.95L214.296 127.021L214.265 127.101L214.249 127.185L214.25 127.271L214.268 127.355L214.302 127.434L214.35 127.504L214.412 127.564L214.484 127.61L214.564 127.641L214.648 127.657L214.734 127.656L214.818 127.638L215.9 127.449L217.381 127.426L218.493 127.599L219.846 127.921L220.922 128.421L221.788 128.967L222.849 129.739L223.818 130.768L224.711 132.098L224.739 132.152L224.777 132.199L224.824 132.237L224.878 132.266L224.935 132.284L224.996 132.29L225.056 132.285L225.114 132.267L225.168 132.239L225.215 132.201L225.253 132.154L225.283 132.101L225.301 132.043L225.308 131.983L225.302 131.922L225.285 131.864L224.971 130.24L224.966 130.226Z" fill="#A47559"/>
<path d="M238.442 129.289L239.485 128.706L240.766 128.283L242.482 127.79L244.219 127.86L246.175 128.131L246.99 128.328L248.554 128.974L249.748 129.381L251.278 130.265L252.513 131.232L253.816 132.222L254.899 133.318L255.306 133.781L256.196 135.006L256.949 136.635L256.958 136.66L256.972 136.682L256.99 136.7L257.011 136.716L257.034 136.727L257.06 136.733L257.086 136.734L257.112 136.729L257.136 136.72L257.158 136.706L257.176 136.688L257.192 136.667L257.203 136.643L257.209 136.618L257.21 136.592L257.205 136.566L257.022 134.748L257 134.684L256.643 133.111L256.613 133.052L256.394 132.387L256.35 132.315L255.661 130.848L255.56 130.721L254.56 129.22L254.432 129.098L253.127 127.919L252.962 127.798L251.216 126.582L250.987 126.463L249.688 125.798L249.502 125.732L247.668 125.373L247.493 125.333L246.455 125.204L246.248 125.184L244.193 125.356L244.017 125.364L242.14 125.854L241.916 125.907L240.111 126.703L239.98 126.764L238.865 127.713L238.794 127.761L237.93 128.682L237.891 128.716L237.003 130.107L236.994 130.116L236.989 130.127L236.985 130.138L236.983 130.151L236.985 130.163L236.989 130.175L236.995 130.185L237.002 130.194L237.012 130.203L237.022 130.208L237.034 130.212L237.046 130.214L237.059 130.212L237.07 130.208L237.081 130.202L237.09 130.195L238.428 129.301L238.442 129.289Z" fill="#A47559"/>
<path d="M246.805 117.775L246.803 117.775L243.437 117.14L243.396 117.135L240.242 116.737L238.089 116.284L236.311 115.733L234.982 115.058L233.674 114.361L232.125 113.508L232.102 113.49L229.826 112.121L229.802 112.106L228.419 111.38L228.386 111.36L227.135 110.862L227.071 110.837L227.003 110.825L226.934 110.826L226.867 110.84L226.804 110.867L226.747 110.907L226.699 110.956L226.662 111.014L226.637 111.078L226.625 111.146L226.626 111.215L226.64 111.282L226.668 111.345L226.707 111.402L226.756 111.45L226.814 111.487L227.931 112.205L229.167 113.103L231.234 114.724L232.524 115.992L232.615 116.053L233.932 116.901L233.984 116.93L235.422 117.682L235.611 117.757L237.573 118.304L237.716 118.335L240.001 118.53L240.043 118.534L243.214 118.765L246.597 119.145L249.812 119.298L249.882 119.302L249.952 119.292L250.018 119.269L250.078 119.233L250.13 119.186L250.172 119.13L250.202 119.067L250.22 118.999L250.223 118.929L250.213 118.86L250.19 118.794L250.154 118.733L250.108 118.681L250.052 118.639L249.988 118.609L249.92 118.591L246.837 117.783L246.805 117.775Z" fill="#A47559"/>
<path d="M243.284 111.405L241.107 110.923L238.88 110.332L237.253 109.927L236.131 109.431L235.187 109.095L234.117 108.518L232.635 107.462L232.587 107.424L232.533 107.396L232.474 107.379L232.413 107.373L232.352 107.38L232.293 107.398L232.24 107.428L232.193 107.467L232.154 107.515L232.126 107.57L232.109 107.628L232.104 107.69L232.111 107.75L232.129 107.809L232.159 107.863L232.198 107.91L233.322 109.406L233.403 109.473L234.409 110.311L234.481 110.355L235.376 110.981L235.465 111.021L236.708 111.438L236.776 111.461L238.437 111.998L238.499 112.012L240.844 112.37L240.914 112.381L243.191 112.38L243.213 112.382L245.441 112.28L245.491 112.278L245.539 112.267L245.584 112.246L245.624 112.217L245.657 112.181L245.683 112.139L245.699 112.092L245.707 112.044L245.705 111.994L245.694 111.946L245.674 111.901L245.645 111.861L245.608 111.828L245.566 111.803L245.519 111.786L245.471 111.778L243.305 111.41L243.284 111.405Z" fill="#A47559"/>
<path d="M238.947 152.255L238.974 152.322L239.387 153.5L239.413 153.546L239.72 154.319L239.759 154.376L240.228 155.049L240.268 155.098L240.788 155.739L240.838 155.791L241.406 156.414L241.468 156.468L242.133 157.069L242.202 157.119L243.01 157.617L243.077 157.657L243.974 158.096L244.025 158.121L245.242 158.538L245.283 158.556L246.26 158.882L246.299 158.895L247.292 159.126L247.331 159.137L248.309 159.267L248.345 159.274L249.307 159.339L249.335 159.343L250.484 159.229L250.519 159.229L250.554 159.222L250.586 159.209L250.615 159.19L250.641 159.165L250.66 159.136L250.674 159.103L250.681 159.069L250.681 159.034L250.674 158.999L250.661 158.966L250.642 158.937L250.617 158.912L250.588 158.892L250.555 158.879L250.521 158.872L249.435 158.523L248.54 158.263L247.652 157.928L246.746 157.556L245.842 157.161L244.775 156.54L243.972 156.068L243.222 155.551L242.553 155.094L241.993 154.633L241.47 154.085L241.001 153.495L240.486 152.921L239.822 151.939L238.981 150.663L238.978 150.654L238.973 150.645L238.966 150.639L238.958 150.633L238.948 150.629L238.939 150.628L238.93 150.627L238.921 150.629L238.912 150.632L238.904 150.638L238.897 150.644L238.891 150.653L238.887 150.662L238.886 150.672L238.886 150.681L238.887 150.689L238.947 152.235L238.947 152.255Z" fill="#A47559"/>
<path d="M260.528 162.19L259.396 162.699L258.452 163.086L257.526 163.463L256.62 163.868L255.714 164.307L254.598 164.796L252.784 165.519L252.749 165.53L252.715 165.547L252.687 165.571L252.663 165.6L252.646 165.633L252.634 165.669L252.63 165.706L252.633 165.743L252.644 165.779L252.662 165.812L252.685 165.841L252.714 165.864L252.747 165.882L252.783 165.894L252.82 165.898L252.857 165.895L254.836 165.88L254.889 165.867L256.136 165.651L256.176 165.638L257.194 165.378L257.238 165.36L258.2 164.96L258.246 164.938L259.139 164.39L259.177 164.369L260.011 163.715L260.039 163.697L260.968 162.834L260.985 162.823L261.814 161.929L261.838 161.907L261.858 161.882L261.872 161.852L261.88 161.82L261.882 161.788L261.877 161.756L261.866 161.725L261.849 161.697L261.827 161.673L261.802 161.653L261.772 161.639L261.74 161.632L261.708 161.629L261.676 161.634L261.645 161.645L261.617 161.662L260.541 162.185L260.528 162.19Z" fill="#A47559"/>
<path d="M238.718 159.17L239.14 159.814L239.165 160.478L239.162 161.243L239.045 161.843L238.805 162.459L238.462 163.196L238.455 163.208L238.237 163.982L238.211 164.04L238.197 164.101L238.196 164.163L238.206 164.225L238.228 164.284L238.262 164.337L238.305 164.382L238.356 164.418L238.413 164.444L238.474 164.458L238.536 164.459L238.598 164.449L238.657 164.427L238.71 164.393L238.755 164.351L238.791 164.299L239.344 163.724L239.845 163.071L239.862 163.04L240.281 162.414L240.337 162.273L240.593 161.495L240.615 161.238L240.451 160.288L240.424 160.153L240.016 159.449L239.938 159.302L239.341 158.632L239.282 158.57L238.534 158.163L238.495 158.137L238.452 158.118L238.406 158.108L238.359 158.107L238.313 158.115L238.27 158.133L238.23 158.158L238.197 158.191L238.171 158.23L238.152 158.273L238.142 158.319L238.141 158.366L238.149 158.412L238.167 158.455L238.192 158.495L238.225 158.528L238.713 159.163L238.718 159.17Z" fill="#A47559"/>
<path d="M219.593 157.161C217.398 156.251 215.308 154.742 215.003 154.872C215.722 155.498 216.301 156.264 216.985 156.921C217.977 157.596 218.923 158.371 220.015 158.879C221.164 159.345 222.3 159.86 223.522 160.107C225.623 160.739 228.491 161.036 230.658 161.269C232.244 161.386 234.025 160.933 235.6 161.148C236.378 160.36 236.26 160.735 235.725 160.65C229.431 160.265 226.26 159.859 219.593 157.161Z" fill="#A47559"/>
<path d="M278.257 150.74L278.836 149.611L279.416 148.482L279.995 147.353L280.651 146.828L281.564 145.959L282.476 145.091L283.388 144.223L283.907 144.091L284.807 143.708L285.707 143.325L286.607 142.942L287.22 142.939L288.088 142.906L288.999 142.886L289.059 142.884L290.022 142.817L290.608 142.988L291.337 143.225L292.123 143.507L292.199 143.531L293.081 143.785L293.443 144.126L294.037 144.615L294.654 145.151L294.689 145.181L295.397 145.752L295.587 146.394L295.635 146.482L296.165 147.365L296.408 148.163L296.652 149.267L296.663 150.652L296.663 150.655L296.677 151.977L296.507 153.178L296.285 154.349L295.537 155.867L294.726 157.442L293.71 158.948L293.702 158.961L292.654 160.555L291.533 161.997L290.447 163.372L289.207 164.616L289.199 164.624L287.997 165.85L286.939 166.61L285.752 167.291L284.454 167.987L282.988 168.528L281.524 168.665L280.108 168.534L279.111 168.109L278.013 167.506L278.264 167.588L278.047 167.191L277.784 166.722L277.759 166.678L277.434 166.244L277.281 165.988L277.051 165.525L276.864 165.067L276.864 165.066L276.735 164.645L276.675 164.476L276.583 164.322L276.463 164.189L276.32 164.082L276.158 164.006L275.984 163.962L275.805 163.953L275.628 163.979L275.459 164.039L275.306 164.13L275.173 164.251L275.066 164.394L274.989 164.556L274.945 164.73L274.936 164.909L274.962 165.086L275.045 165.518L275.099 166.032L275.104 166.053L275.15 166.614L275.163 166.659L275.238 167.228L275.351 167.481L275.576 167.974L275.803 168.415L275.807 168.423L276.049 168.863L276.074 168.906L276.303 169.285L276.512 169.547L276.782 169.746L277.935 170.38L278.05 170.435L279.289 170.963L279.673 171.06L281.407 171.22L281.644 171.22L283.392 171.056L283.715 170.983L285.421 170.354L285.583 170.281L286.975 169.534L287.007 169.517L288.267 168.794L288.377 168.723L289.577 167.86L289.744 167.718L291.02 166.417L292.308 165.124L292.406 165.014L293.541 163.577L293.547 163.569L294.702 162.083L294.761 162.001L295.832 160.371L296.885 158.809L296.963 158.68L297.814 157.028L297.824 157.007L298.654 155.322L298.763 154.994L299.022 153.624L299.032 153.567L299.221 152.241L299.234 152.047L299.218 150.63L299.206 149.109L299.174 148.836L298.862 147.467L298.826 147.338L298.47 146.295L298.356 146.051L297.826 145.167L297.342 144.188L297.194 143.957L297 143.763L296.292 143.192L295.682 142.661L295.652 142.636L294.986 142.092L294.915 142.038L294.17 141.514L293.788 141.33L292.905 141.076L292.151 140.804L292.107 140.789L291.253 140.519L291.128 140.487L290.194 140.292L289.846 140.268L288.883 140.335L288.008 140.353L287.985 140.354L287.04 140.391L286.963 140.397L285.979 140.496L285.607 140.591L284.707 140.974L283.807 141.357L282.907 141.739L282.007 142.122L281.626 142.372L280.714 143.241L279.801 144.109L278.889 144.977L277.977 145.845L277.721 146.188L277.141 147.317L276.562 148.445L275.983 149.574L275.404 150.703L275.312 150.936L275.267 151.183L275.271 151.433L275.324 151.678L275.424 151.908L275.567 152.114L275.747 152.288L275.957 152.424L276.191 152.515L276.437 152.56L276.687 152.556L276.932 152.503L277.162 152.403L277.368 152.26L277.542 152.08L277.678 151.87L278.251 150.752L278.257 150.74Z" fill="#A47559"/>
<path d="M282.104 159.938L282.144 159.862L282.365 159.333L282.387 159.268L282.573 158.596L282.585 158.538L282.764 157.47L282.766 157.336L282.687 156.177L282.617 155.96L282.377 155.456L282.262 155.309L281.883 154.893L281.762 154.804L281.035 154.291L281.279 154.491L281.383 154.632L281.551 154.412L281.732 154.17L282.468 153.185L282.472 153.18L283.13 152.264L283.908 151.538L284.232 151.292L284.317 151.217L284.682 150.855L285.194 150.525L286.568 149.818L287.809 149.534L288.439 149.54L289.103 149.671L289.973 150.039L290.23 150.26L290.545 150.583L290.741 150.855L291.014 151.337L291.342 152.08L291.453 152.579L291.469 153.233L291.353 153.719L291.093 154.504L290.707 155.374L290.339 156.099L290.293 156.206L290.27 156.319L290.27 156.435L290.292 156.549L290.336 156.657L290.4 156.754L290.481 156.836L290.577 156.901L290.684 156.947L290.798 156.97L290.914 156.971L291.028 156.949L291.135 156.905L291.232 156.841L291.315 156.759L291.38 156.663L291.792 155.949L291.801 155.93L292.278 155.061L292.301 155.009L292.67 154.195L292.694 154.121L292.918 153.432L292.943 153.248L292.99 152.441L292.976 152.287L292.878 151.629L292.835 151.481L292.531 150.633L292.493 150.552L292.201 149.955L292.142 149.86L291.881 149.47L291.794 149.366L291.396 148.942L291.297 148.855L290.857 148.513L290.666 148.402L289.697 147.991L289.493 147.932L288.548 147.783L288.374 147.772L287.561 147.812L287.378 147.838L286.046 148.206L285.845 148.286L284.342 149.161L284.269 149.206L283.658 149.647L283.547 149.742L283.192 150.113L282.897 150.324L282.845 150.367L281.984 151.127L281.873 151.252L281.161 152.228L280.402 153.27L280.367 153.322L280.135 153.717L280.066 153.857L279.901 154.375L279.852 154.654L279.872 154.858L279.896 155.036L279.962 155.203L280.016 155.282L280.136 155.447L280.297 155.571L281.105 155.944L281.426 156.205L281.617 156.524L281.718 157.386L281.594 158.362L281.431 158.973L281.216 159.467L281.032 159.724L280.985 159.812L280.958 159.909L280.95 160.009L280.961 160.109L280.992 160.204L281.04 160.292L281.105 160.368L281.184 160.431L281.273 160.478L281.369 160.505L281.469 160.513L281.569 160.502L281.664 160.471L281.752 160.423L281.829 160.358L281.891 160.279L282.101 159.942L282.104 159.938Z" fill="#A47559"/>
<path d="M260.369 70.5766L259.597 70.8327L257.889 71.4421L256.261 71.8161L254.142 71.991L251.984 72.2323L251.937 72.2404L249.788 72.6078L247.621 72.8916L247.327 72.9968L244.796 74.2453L244.535 74.434L242.489 76.3176L242.293 76.5616L241.248 78.3465L241.169 78.5002L240.32 80.6034L240.235 80.9348L239.939 84.1946L239.935 84.3751L240.117 86.9196L240.158 87.1552L240.679 88.5442L240.684 88.558L241.282 90.1288L241.31 90.2066L241.681 90.8216L242.03 91.3996L242.03 91.3996L242.09 91.5123L242.17 91.6112L242.268 91.6927L242.379 91.7539L242.501 91.7917L242.628 91.8049L242.754 91.7932L242.876 91.7571L242.989 91.6977L243.088 91.6176L243.169 91.5197L243.231 91.408L243.269 91.2864L243.282 91.1598L243.27 91.033L243.234 90.9109L243.079 90.247L243.076 90.2401L242.901 89.5434L242.542 87.9931L242.269 86.6645L242.147 84.3277L242.487 81.3374L243.313 79.5073L244.299 77.9735L246.033 76.2275L248.202 74.9795L250.155 74.4359L252.257 73.9495L254.371 73.5749L256.501 73.1373L256.594 73.117L258.249 72.5264L258.321 72.4997L259.976 71.6038L260.028 71.5758L260.621 70.9766L261.21 70.3712L261.216 70.3665L261.221 70.361L261.224 70.355L261.226 70.3484L261.227 70.3415L261.227 70.3338L261.225 70.3268L261.222 70.3215L261.217 70.3154L261.212 70.3109L261.206 70.3075L261.199 70.3053L261.192 70.3039L261.184 70.304L261.177 70.3064L261.172 70.3096L260.379 70.5728L260.369 70.5766Z" fill="#71574F"/>
<path d="M239.388 91.2686L238.473 89.9657L237.525 88.0308L237.124 85.8875L237.223 83.3292L237.665 81.3279L238.104 80.3161L238.875 79.1092L239.519 78.0718L240.582 77.164L240.626 77.1273L240.663 77.0828L240.689 77.0317L240.706 76.9767L240.712 76.9193L240.706 76.862L240.689 76.8069L240.661 76.7563L240.625 76.712L240.58 76.6754L240.529 76.6489L240.474 76.632L240.417 76.6266L240.359 76.6325L240.304 76.6495L240.254 76.677L238.959 77.3599L238.862 77.4484L237.927 78.342L237.919 78.3514L236.897 79.4307L236.841 79.5106L236.095 80.4977L236.022 80.654L235.029 82.7054L234.968 82.9855L234.592 85.8309L234.607 86.1592L235.019 88.6588L235.135 89.0107L236.241 91.2016L236.359 91.3934L237.531 92.9385L237.69 93.1141L239.046 93.0887L239.096 93.126L239.152 93.153L239.212 93.1685L239.274 93.172L239.336 93.1633L239.395 93.1428L239.448 93.1112L239.494 93.0697L239.532 93.0199L239.559 92.9639L239.574 92.9037L239.578 92.8416L239.569 92.7801L239.549 92.7213L239.517 92.6677L239.475 92.6213L239.387 91.281L239.388 91.2686Z" fill="#71574F"/>
<path d="M247.527 94.1658L247.616 93.2056L247.751 91.6978L247.826 90.4136L248.003 88.397L248.237 86.975L248.466 86.1714L248.831 85.2963L249.324 84.3656L250.058 83.3475L250.861 82.429L251.539 81.6903L252.291 80.9978L252.955 80.5098L253.707 79.9808L254.543 79.4398L254.599 79.414L254.648 79.3778L254.69 79.3325L254.721 79.2798L254.742 79.2226L254.752 79.1619L254.749 79.1007L254.735 79.0411L254.709 78.9855L254.673 78.936L254.627 78.8946L254.575 78.8635L254.517 78.8418L254.457 78.8324L254.396 78.835L254.336 78.8496L253.324 78.9582L253.28 78.9754L252.331 79.2132L252.266 79.2465L251.448 79.6166L251.384 79.6578L250.415 80.1899L250.344 80.2463L249.447 80.8775L249.378 80.9442L248.418 81.8716L248.332 81.9725L247.482 83.0716L247.407 83.1854L246.779 84.2059L246.711 84.3437L246.253 85.4458L246.201 85.606L245.986 86.5473L245.961 86.6756L245.814 88.1578L245.806 88.2538L245.804 90.3504L245.803 90.3989L245.891 91.7291L245.892 91.7738L246.189 93.301L246.192 93.3406L246.49 94.2945L246.494 94.3257L247.184 95.4038L247.186 95.4084L247.187 95.413L247.19 95.416L247.194 95.4195L247.198 95.422L247.203 95.4238L247.208 95.4248L247.212 95.4248L247.217 95.4232L247.221 95.4216L247.224 95.4192L247.228 95.4151L247.23 95.4106L247.232 95.4058L247.233 95.4005L247.233 95.3967L247.527 94.1786L247.527 94.1658Z" fill="#71574F"/>
<path d="M253.385 94.8066L253.822 93.5525L254.496 92.12L255.341 90.4878L256.069 89.0743L256.802 87.8781L257.191 87.3597L257.625 86.8736L257.92 86.5829L258.408 86.1757L258.926 85.8072L259.482 85.4681L260.674 84.9024L261.987 84.4244L263.521 83.9124L264.852 83.5417L266.454 83.2883L268.301 83.2209L270.328 83.3114L270.426 83.3081L270.522 83.2856L270.612 83.2448L270.692 83.1873L270.759 83.1153L270.811 83.0315L270.846 82.9393L270.861 82.8421L270.858 82.7436L270.836 82.6477L270.795 82.558L270.737 82.4781L270.665 82.4108L270.582 82.3591L270.489 82.3243L270.392 82.3084L268.35 82.1373L268.31 82.137L266.419 82.1065L266.373 82.1087L264.698 82.1426L264.638 82.1505L263.195 82.2673L263.126 82.2825L261.471 82.6123L261.402 82.6334L260.006 83.0973L259.936 83.1246L258.585 83.6663L258.497 83.71L257.848 84.0417L257.782 84.0822L257.163 84.4631L257.089 84.5165L256.509 84.953L256.441 85.012L256.082 85.3343L256.035 85.382L255.524 85.8979L255.475 85.9538L254.993 86.4946L254.947 86.5548L254.021 87.6822L253.959 87.7775L253.03 89.202L252.98 89.2984L252.195 91.0728L252.157 91.1608L251.652 92.7675L251.619 92.8679L251.298 94.261L251.276 94.3558L251.338 96.2252L251.327 96.3554L251.341 96.4853L251.38 96.6101L251.442 96.7248L251.526 96.8253L251.628 96.9074L251.743 96.9687L251.869 97.0056L251.999 97.0173L252.129 97.0035L252.254 96.9644L252.368 96.9019L252.469 96.8181L252.551 96.7163L252.612 96.6007L252.649 96.4753L253.378 94.8245L253.385 94.8066Z" fill="#71574F"/>
<path d="M253.404 95.6848L254.644 94.512L255.628 93.6405L256.583 92.9608L257.707 92.3135L258.957 91.7419L260.162 91.278L261.294 90.9238L262.07 90.7807L262.615 90.7407L263.39 90.7579L264.129 90.8352L265.381 91.0701L269.055 91.858L269.102 91.8693L270.407 92.0724L270.467 92.0824L272.132 92.2423L272.222 92.2504L273.485 92.2536L273.579 92.2524L274.601 92.1238L274.676 92.1154L275.427 91.934L275.495 91.92L276.223 91.6634L276.277 91.6476L276.981 91.3355L277.033 91.3151L277.711 90.9509L277.753 90.9302L278.39 90.5006L278.427 90.4785L279.04 89.9196L279.067 89.8991L279.574 89.345L279.61 89.3097L279.638 89.2675L279.658 89.2212L279.669 89.1718L279.669 89.1211L279.66 89.0714L279.641 89.0244L279.613 88.982L279.578 88.9459L279.536 88.9181L279.489 88.8978L279.44 88.8874L279.389 88.887L279.34 88.8964L279.293 88.9153L279.25 88.9431L278.615 89.3106L277.894 89.638L277.228 89.9213L276.55 90.1598L275.855 90.3248L275.154 90.4303L274.418 90.4844L273.511 90.4785L272.345 90.381L270.774 90.0927L269.546 89.7867L265.934 88.7579L265.89 88.7481L264.532 88.4326L264.435 88.4164L263.607 88.2916L263.513 88.2833L262.632 88.2136L262.523 88.2129L261.831 88.2093L261.686 88.2227L260.728 88.3278L260.558 88.3651L259.317 88.6901L259.226 88.72L257.927 89.1694L257.85 89.2005L256.517 89.7542L256.393 89.8155L255.115 90.5082L254.967 90.6026L253.799 91.4601L253.653 91.5822L252.671 92.5963L252.54 92.7411L251.597 94.3574L251.52 94.4691L251.597 96.4496L251.594 96.4559L251.592 96.4627L251.591 96.4681L251.592 96.4742L251.595 96.4811L251.598 96.4865L251.602 96.4903L251.607 96.4944L251.614 96.4974L251.62 96.4992L251.626 96.4998L251.632 96.499L251.639 96.4965L251.644 96.4934L251.648 96.4895L251.652 96.4838L253.387 95.6945L253.404 95.6848Z" fill="#71574F"/>
<path d="M265.306 75.9289L265.338 75.9421L266.504 76.5305L266.538 76.5429L267.886 77.0998L267.948 77.1162L268.909 77.4151L268.991 77.4306L269.769 77.587L269.847 77.5953L270.832 77.6965L270.915 77.6987L273.529 77.6786L274.529 77.7524L275.644 77.9647L276.271 78.1704L276.984 78.4575L278.001 78.9554L278.774 79.3977L279.813 80.0747L280.872 80.8376L281.895 81.6503L283.096 82.6966L285.285 84.4475L285.367 84.5181L285.461 84.5709L285.563 84.6048L285.67 84.6181L285.778 84.6101L285.882 84.5814L285.978 84.5329L286.063 84.4665L286.134 84.3847L286.187 84.2907L286.221 84.1883L286.234 84.0813L286.226 83.9738L286.197 83.8697L286.148 83.7735L286.082 83.6885L284.419 81.3934L284.374 81.349L283.186 80.2065L283.151 80.1763L282.129 79.2877L282.089 79.2571L281.019 78.4229L280.976 78.3928L279.883 77.6322L279.827 77.5977L279.001 77.1013L278.937 77.0667L277.851 76.5187L277.775 76.4837L276.984 76.1652L276.906 76.137L276.151 75.9031L276.025 75.8721L274.846 75.6666L274.724 75.6517L273.62 75.5922L273.539 75.5901L270.884 75.6487L269.978 75.6199L269.265 75.5548L268.384 75.4137L267.008 75.1124L265.771 74.8148L263.702 74.547L263.697 74.5455L263.691 74.5448L263.685 74.5457L263.68 74.5473L263.676 74.5489L263.672 74.5529L263.669 74.5569L263.666 74.5615L263.664 74.5663L263.664 74.5717L263.665 74.5763L263.667 74.5809L263.668 74.5855L263.672 74.5893L263.676 74.5928L263.681 74.5953L265.289 75.918L265.306 75.9289Z" fill="#71574F"/>
<path d="M279.564 83.5669L281.476 84.067L282.977 84.4766L283.847 84.7763L284.884 85.1703L285.441 85.4142L286.513 86.0128L287.14 86.4471L287.791 86.9322L288.758 87.7352L291.494 90.2029L291.567 90.2645L292.796 91.1351L292.849 91.1723L293.733 91.6911L293.782 91.7205L294.737 92.1643L294.794 92.1919L295.801 92.5462L295.856 92.5669L296.898 92.815L296.938 92.8264L298.437 92.9999L298.507 93.0106L298.579 93.0074L298.648 92.9903L298.713 92.96L298.77 92.9177L298.818 92.8649L298.855 92.8037L298.88 92.7368L298.891 92.6663L298.887 92.595L298.87 92.5257L298.84 92.461L298.798 92.4035L298.745 92.3554L298.684 92.3184L298.617 92.2938L297.237 91.7348L296.302 91.3232L295.412 90.8515L294.571 90.3225L293.78 89.7735L292.668 88.8822L290.06 86.3351L290.047 86.3229L289.105 85.3945L289.061 85.3565L288.403 84.7821L288.353 84.7448L287.646 84.2199L287.547 84.1571L286.379 83.4989L286.277 83.4489L285.647 83.1841L285.576 83.1576L284.452 82.8057L284.386 82.7857L283.437 82.5906L283.389 82.5791L281.823 82.3213L281.761 82.3104L279.731 82.2423L279.684 82.2369L276.554 82.1852L276.457 82.1876L276.363 82.209L276.274 82.2483L276.195 82.3042L276.129 82.3744L276.078 82.4565L276.044 82.5472L276.027 82.6425L276.03 82.7393L276.051 82.8336L276.091 82.922L276.146 83.001L276.217 83.0676L276.299 83.1186L276.39 83.1525L276.485 83.169L279.535 83.5612L279.564 83.5669Z" fill="#71574F"/>
<path d="M297.172 97.7592L297.964 98.5345L298.777 99.2174L299.393 99.7508L299.999 100.34L300.387 100.814L300.723 101.349L301.01 101.924L301.162 102.311L301.388 102.988L301.563 103.691L301.668 104.342L301.7 104.952L301.641 105.54L300.96 107.311L300.962 107.574L301.015 107.832L301.117 108.074L301.265 108.292L301.452 108.476L301.671 108.621L301.915 108.721L302.173 108.77L302.436 108.769L302.694 108.716L302.936 108.613L303.154 108.466L303.338 108.278L303.483 108.059L303.583 107.815L303.632 107.557L303.29 105.65L303.293 105.608L303.288 104.95L303.287 104.882L303.265 104.199L303.259 104.127L303.178 103.391L303.163 103.312L302.989 102.525L302.966 102.446L302.706 101.702L302.678 101.633L302.461 101.182L302.422 101.107L302.029 100.5L301.985 100.432L301.542 99.8945L301.503 99.8444L301.049 99.348L301.008 99.3046L300.386 98.6973L300.351 98.665L299.692 98.1128L299.66 98.0856L298.755 97.4713L298.737 97.4591L297.73 96.9659L297.727 96.964L296.732 96.8215L296.726 96.8182L296.72 96.816L296.713 96.8146L296.707 96.8155L296.7 96.8179L296.694 96.821L296.688 96.8258L296.684 96.8312L296.68 96.8373L296.678 96.8439L296.677 96.8508L296.678 96.857L296.68 96.8639L296.683 96.8692L296.688 96.8753L296.694 96.8798L297.168 97.7527L297.172 97.7592Z" fill="#71574F"/>
<path d="M297.579 105.244L298.603 106.176L299.639 107.054L300.651 107.923L301.462 108.704L302.02 109.335L302.653 110.191L303.078 110.915L303.339 111.487L303.57 112.103L303.792 112.959L303.907 113.613L304.029 114.531L304.13 115.484L304.327 117.885L304.334 117.945L304.558 119.383L304.571 119.449L304.79 120.394L304.814 120.478L305.212 121.644L305.245 121.725L305.787 122.849L305.817 122.909L306.368 123.744L306.391 123.782L307.904 125.765L307.907 125.771L309.223 127.36L309.264 127.41L309.313 127.451L309.37 127.482L309.431 127.502L309.495 127.508L309.559 127.503L309.621 127.485L309.678 127.455L309.728 127.415L309.769 127.365L309.8 127.309L309.82 127.248L309.826 127.184L309.821 127.119L309.803 127.058L309.773 127.001L308.846 125.161L307.702 122.973L307.306 122.114L306.838 121.041L306.467 119.958L306.263 119.089L306.058 117.713L305.865 115.332L305.864 115.312L305.761 114.337L305.759 114.313L305.631 113.347L305.626 113.312L305.501 112.592L305.487 112.528L305.257 111.59L305.233 111.511L305.005 110.833L304.984 110.78L304.718 110.117L304.68 110.04L304.258 109.203L304.206 109.119L303.578 108.138L303.517 108.058L302.925 107.337L302.863 107.271L302.033 106.449L301.971 106.392L300.865 105.513L300.809 105.471L299.579 104.739L299.517 104.699L298.152 104.223L298.108 104.2L296.826 104.191L296.819 104.189L296.812 104.187L296.805 104.187L296.798 104.19L296.791 104.192L296.785 104.197L296.78 104.202L296.776 104.208L296.773 104.216L296.772 104.223L296.772 104.231L296.775 104.238L296.778 104.246L296.783 104.252L296.789 104.256L296.794 104.26L297.573 105.233L297.579 105.244Z" fill="#71574F"/>
<path d="M304.766 130.3L304.339 132.378L304.034 133.51L303.62 134.607L303.215 135.431L302.753 136.215L300.638 139.455L300.616 139.491L300.051 140.568L300.031 140.607L299.452 141.944L299.432 141.992L299.034 143.142L299.018 143.192L298.688 144.613L298.681 144.649L298.535 146.091L298.531 146.11L298.47 147.877L298.469 147.916L298.474 147.956L298.487 147.993L298.508 148.027L298.534 148.057L298.566 148.08L298.602 148.097L298.641 148.106L298.68 148.108L298.72 148.103L298.757 148.09L298.791 148.07L298.821 148.043L298.844 148.011L298.861 147.975L298.87 147.937L299.342 146.243L299.762 144.884L300.186 143.536L300.609 142.451L301.236 141.188L301.815 140.168L303.825 136.851L303.855 136.797L304.229 135.905L304.251 135.856L304.517 134.928L304.529 134.891L304.781 133.715L304.787 133.692L305.008 132.521L305.011 132.506L305.343 130.399L305.344 130.392L305.51 127.623L305.51 127.62L305.509 127.616L305.508 127.611L305.505 127.608L305.503 127.605L305.5 127.603L305.497 127.601L305.494 127.601L305.49 127.6L305.486 127.6L305.482 127.602L305.479 127.604L305.476 127.607L305.473 127.609L305.472 127.612L305.471 127.616L304.778 130.27L304.766 130.3Z" fill="#71574F"/>
<path d="M297.13 134.159L297.14 134.11L297.586 132.672L297.593 132.623L297.906 131.084L297.912 130.966L297.992 129.198L297.985 129.083L297.904 127.504L297.884 127.389L297.628 125.71L297.6 125.602L297.179 123.98L297.149 123.892L296.633 122.482L296.603 122.41L296.183 121.533L296.178 121.523L295.807 120.823L295.352 120.022L295.316 119.949L293.993 118.021L293.575 117.127L293.092 116.17L292.027 114.891L292.005 114.842L291.973 114.798L291.933 114.762L291.887 114.734L291.837 114.715L291.783 114.707L291.729 114.709L291.677 114.721L291.628 114.744L291.584 114.775L291.548 114.815L291.52 114.861L291.501 114.912L291.493 114.965L291.495 115.019L291.507 115.071L291.454 116.741L291.459 116.755L291.718 117.851L291.754 117.936L292.208 118.892L292.23 118.936L293.109 121.13L293.38 121.936L293.385 121.946L293.678 122.682L294.055 123.566L294.576 124.841L295.118 126.317L295.559 127.838L295.828 129.278L295.939 130.928L295.917 132.415L295.869 133.869L296.013 135.803L296.011 135.81L296.011 135.818L296.014 135.825L296.016 135.832L296.021 135.838L296.026 135.842L296.033 135.846L296.039 135.848L296.046 135.849L296.054 135.849L296.061 135.847L296.068 135.844L296.074 135.84L296.078 135.834L296.082 135.828L296.084 135.822L297.123 134.179L297.13 134.159Z" fill="#71574F"/>
<path d="M297.496 115.691L297.491 115.663L297.379 114.512L297.368 114.467L297.201 113.533L297.184 113.482L296.968 112.555L296.948 112.504L296.655 111.599L296.628 111.542L296.239 110.674L296.198 110.603L295.571 109.565L295.524 109.496L294.846 108.488L294.773 108.4L294.293 107.837L294.227 107.772L293.677 107.268L293.598 107.202L292.986 106.759L292.902 106.701L292.009 106.22L291.943 106.183L291.235 105.913L291.178 105.885L290.199 105.624L290.146 105.602L289.086 105.463L289.056 105.452L288.013 105.349L287.944 105.335L287.874 105.335L287.806 105.349L287.741 105.377L287.683 105.416L287.634 105.465L287.594 105.523L287.567 105.588L287.554 105.657L287.554 105.727L287.568 105.796L287.595 105.86L287.634 105.918L287.684 105.968L287.742 106.007L287.806 106.034L288.72 106.516L289.581 107.073L290.403 107.616L290.97 108.022L291.728 108.577L292.233 108.991L292.703 109.43L293.161 109.888L293.837 110.703L294.477 111.683L294.925 112.428L295.356 113.174L295.77 113.971L296.11 114.804L296.465 115.865L297.072 116.899L297.076 116.915L297.082 116.929L297.092 116.941L297.103 116.953L297.117 116.961L297.132 116.966L297.148 116.968L297.163 116.968L297.178 116.964L297.193 116.957L297.205 116.948L297.217 116.936L297.225 116.923L297.23 116.908L297.232 116.892L297.231 116.876L297.491 115.705L297.496 115.691Z" fill="#71574F"/>
<path d="M284.203 106.844L284.201 106.843L283.836 106.487L283.829 106.484L283.348 106.15L283.328 106.141L282.791 105.829L282.767 105.82L282.056 105.556L282.048 105.554L281.287 105.277L281.26 105.267L280.542 105.026L280.517 105.018L279.867 104.583L279.788 104.564L278.908 104.37L278.848 104.36L278.009 104.251L277.908 104.242L277.064 104.315L277.04 104.315L276.287 104.359L276.205 104.361L275.513 104.474L275.498 104.474L274.841 104.571L274.798 104.576L274.18 104.708L273.615 104.878L273.593 104.88L272.944 105.067L272.831 105.097L272.727 105.149L272.634 105.22L272.557 105.307L272.499 105.409L272.461 105.519L272.446 105.635L272.453 105.751L272.483 105.864L272.535 105.969L272.605 106.062L272.693 106.139L272.794 106.197L272.905 106.235L273.021 106.25L273.137 106.242L273.811 106.212L274.388 106.235L274.398 106.234L275.029 106.188L275.649 106.172L276.334 106.188L277.002 106.263L277.813 106.409L278.549 106.522L279.377 106.664L280.078 106.605L280.78 106.807L281.519 107.057L282.226 107.309L282.805 107.445L283.358 107.562L283.86 107.596L284.713 107.658L284.735 107.665L284.758 107.668L284.781 107.666L284.803 107.66L284.824 107.649L284.842 107.635L284.858 107.618L284.869 107.598L284.876 107.576L284.88 107.553L284.877 107.53L284.871 107.507L284.861 107.487L284.846 107.469L284.829 107.453L284.809 107.441L284.208 106.846L284.203 106.844Z" fill="#71574F"/>
<path d="M267.434 100.338L268.68 100.024L269.965 99.7653L271.532 99.53L272.755 99.4275L274.14 99.4007L280.329 100.052L280.41 100.055L281.99 100.016L282.095 100.011L283.273 99.8471L283.381 99.8323L284.098 99.6562L284.178 99.6379L284.655 99.4758L284.732 99.4523L285.422 99.1424L285.526 99.0995L286.383 98.5865L286.484 98.5299L287.256 97.9408L287.341 97.8778L288.03 97.2335L288.099 97.1685L288.706 96.4786L288.764 96.4071L289.257 95.6585L289.303 95.5861L289.57 94.6788L289.596 94.6251L289.505 93.5933L289.507 93.5867L289.508 93.5797L289.507 93.5736L289.505 93.5667L289.502 93.5613L289.499 93.556L289.493 93.5518L289.487 93.5485L289.48 93.5464L289.473 93.5449L289.467 93.5458L289.46 93.5482L289.455 93.5514L289.45 93.5546L289.445 93.5602L289.442 93.5663L288.66 94.2049L288.064 94.8451L287.558 95.4732L286.977 96.0598L286.303 96.5669L285.543 96.9702L284.659 97.2929L284.029 97.4368L283.611 97.5096L282.96 97.5863L281.88 97.6205L280.446 97.582L274.231 97.436L274.164 97.4339L272.693 97.4215L272.59 97.4272L271.277 97.5975L271.185 97.6118L269.562 98.031L269.474 98.0539L268.187 98.6044L268.105 98.6356L266.979 99.3849L266.934 99.4077L266.083 100.458L266.078 100.461L266.073 100.467L266.07 100.473L266.067 100.479L266.066 100.486L266.066 100.492L266.067 100.498L266.07 100.505L266.073 100.51L266.078 100.515L266.084 100.519L266.091 100.521L266.098 100.523L266.105 100.523L266.111 100.522L266.118 100.519L267.421 100.339L267.434 100.338Z" fill="#71574F"/>
<path d="M258.631 98.2441L259.351 97.7718L260.015 97.3421L260.746 96.8597L261.09 96.8406L261.158 96.8016L261.449 96.61L262.666 95.942L263.012 95.7791L263.13 95.7501L264.378 94.9615L265.052 94.7201L265.74 94.5954L265.761 94.5941L265.781 94.5884L265.8 94.5804L265.817 94.5683L265.832 94.5531L265.843 94.5351L265.85 94.5155L265.853 94.4944L265.852 94.4731L265.846 94.4532L265.838 94.4341L265.826 94.4168L265.811 94.4018L265.793 94.3913L265.773 94.3838L265.753 94.3797L265.059 94.1751L265.01 94.1767L264.231 94.1178L264.15 94.1361L262.639 94.2589L262.167 94.1964L261.965 94.2544L260.467 94.7007L260.312 94.7808L260.012 94.9571L259.658 95.2726L259.473 95.4L258.858 96.0906L258.822 96.1242L258.361 96.798L258.325 96.836L257.909 97.6603L257.864 97.7219L257.882 98.5109L257.879 98.5171L257.877 98.5239L257.876 98.5293L257.877 98.5355L257.88 98.5424L257.883 98.5477L257.887 98.5515L257.892 98.5557L257.899 98.5587L257.905 98.5605L257.911 98.5612L257.917 98.5603L257.924 98.5579L257.929 98.5547L257.933 98.5508L257.937 98.5452L258.625 98.2459L258.631 98.2441Z" fill="#71574F"/>
<path d="M275.319 111.862L276.525 112.21L277.685 112.548L279.256 113.068L280.205 113.5L281.213 114.081L281.938 114.564L282.587 115.07L283.157 115.614L283.812 116.376L284.256 117.006L284.739 117.831L285.256 118.814L286.026 119.893L288.097 122.137L288.106 122.151L288.118 122.162L288.131 122.17L288.145 122.177L288.161 122.18L288.176 122.18L288.19 122.178L288.205 122.171L288.219 122.162L288.23 122.151L288.238 122.138L288.245 122.123L288.248 122.108L288.248 122.092L288.246 122.078L288.239 122.063L287.622 119.068L287.618 119.061L287.162 117.799L287.151 117.778L286.562 116.759L286.534 116.712L285.969 115.85L285.928 115.789L285.423 115.107L285.375 115.045L284.673 114.206L284.613 114.142L283.992 113.498L283.913 113.428L283.219 112.843L283.151 112.793L282.384 112.25L282.327 112.213L281.289 111.573L281.191 111.52L280.126 111.01L279.975 110.953L278.232 110.477L278.094 110.445L276.766 110.382L276.664 110.371L275.353 110.597L275.301 110.597L274.032 111.232L274.025 111.232L274.018 111.235L274.01 111.239L274.004 111.243L274 111.249L273.996 111.257L273.993 111.265L273.993 111.273L273.994 111.28L273.996 111.287L274 111.295L274.005 111.301L274.01 111.305L274.018 111.309L274.025 111.311L274.032 111.311L275.302 111.855L275.319 111.862Z" fill="#71574F"/>
<path d="M284.288 126.48L284.907 127.788L285.302 128.939L285.508 129.745L285.653 130.337L285.795 130.93L285.977 131.746L286.257 133.271L286.345 133.932L286.444 134.834L286.807 136.783L286.818 136.897L286.85 137.007L286.903 137.109L286.975 137.198L287.063 137.271L287.164 137.325L287.274 137.359L287.388 137.371L287.502 137.361L287.612 137.329L287.714 137.276L287.803 137.204L287.877 137.116L287.931 137.015L287.964 136.905L287.977 136.791L288.373 134.812L288.371 134.739L288.345 133.745L288.341 133.694L288.266 132.971L288.257 132.911L287.98 131.319L287.967 131.255L287.741 130.404L287.729 130.36L287.518 129.747L287.506 129.71L287.252 129.117L287.24 129.083L286.846 128.315L286.823 128.26L286.165 127.162L286.136 127.106L285.273 125.874L285.247 125.834L283.682 124.557L283.678 124.553L283.674 124.549L283.669 124.547L283.664 124.545L283.659 124.545L283.653 124.546L283.648 124.547L283.643 124.55L283.639 124.554L283.635 124.558L283.633 124.563L283.632 124.568L283.631 124.573L283.632 124.58L283.633 124.584L283.637 124.59L284.282 126.459L284.288 126.48Z" fill="#71574F"/>
<path d="M274.689 118.441L275.187 119.059L275.814 119.829L276.54 120.867L277.333 121.994L277.921 122.751L278.681 123.698L278.737 123.781L278.807 123.851L278.891 123.907L278.983 123.945L279.081 123.965L279.181 123.965L279.279 123.945L279.372 123.907L279.455 123.851L279.525 123.78L279.581 123.697L279.619 123.605L279.639 123.507L279.638 123.407L279.619 123.309L279.581 123.216L279.206 122.048L279.194 122.025L278.818 121.124L278.814 121.116L278.183 119.856L278.154 119.811L277.426 118.693L277.378 118.627L276.689 117.756L276.639 117.698L275.977 117.069L275.889 116.986L273.567 116.273L273.564 116.271L273.561 116.27L273.558 116.269L273.554 116.269L273.55 116.269L273.548 116.27L273.545 116.272L273.542 116.275L273.541 116.278L273.539 116.281L273.539 116.284L273.538 116.288L273.538 116.292L273.539 116.294L273.542 116.297L273.544 116.3L274.678 118.42L274.689 118.441Z" fill="#71574F"/>
<path d="M274.471 126.895L274.905 128.022L275.835 130.211L276.68 132.043L277.184 132.886L277.87 133.495L277.903 133.567L277.95 133.631L278.008 133.684L278.076 133.726L278.15 133.754L278.228 133.767L278.308 133.763L278.385 133.744L278.457 133.711L278.521 133.664L278.575 133.606L278.617 133.538L278.643 133.463L278.655 133.385L278.652 133.305L278.633 133.228L278.785 132.312L278.78 132.298L278.602 131.287L278.585 131.245L277.864 129.336L277.845 129.295L276.733 127.126L276.701 127.062L275.933 126.034L275.891 125.966L274.482 125.238L274.47 125.222L274.454 125.209L274.436 125.2L274.417 125.194L274.398 125.193L274.378 125.194L274.359 125.201L274.342 125.21L274.326 125.222L274.313 125.238L274.304 125.255L274.298 125.275L274.297 125.294L274.298 125.314L274.305 125.333L274.314 125.35L274.467 126.878L274.471 126.895Z" fill="#71574F"/>
<path d="M276.523 139.164L276.492 141.062L276.405 142.956L276.256 145.059L276.144 146.431L275.993 147.828L276.179 151.558L276.177 151.605L276.183 151.651L276.198 151.695L276.222 151.736L276.253 151.771L276.291 151.798L276.333 151.819L276.378 151.831L276.424 151.834L276.471 151.827L276.515 151.812L276.555 151.788L276.59 151.757L276.617 151.72L276.638 151.678L276.65 151.633L277.98 148.113L277.987 148.059L278.127 146.606L278.131 146.551L278.151 145.125L278.152 145.08L277.999 142.935L277.998 142.894L277.716 140.985L277.713 140.955L277.307 139.075L277.304 139.054L276.753 137.739L276.751 137.729L276.746 137.719L276.741 137.71L276.733 137.703L276.724 137.697L276.714 137.694L276.703 137.692L276.693 137.693L276.683 137.696L276.673 137.701L276.664 137.706L276.657 137.714L276.651 137.723L276.648 137.733L276.646 137.743L276.647 137.753L276.52 139.148L276.523 139.164Z" fill="#71574F"/>
<path d="M223.862 171.286L223.253 171.2L222.5 171.051L221.808 170.844L221.01 170.647L220.439 170.537L219.825 170.428L219.293 170.3L218.885 170.151L218.515 169.995L218.068 169.746L217.655 169.498L217.621 169.465L217.581 169.44L217.537 169.422L217.49 169.415L217.443 169.416L217.397 169.426L217.353 169.444L217.314 169.471L217.282 169.505L217.256 169.545L217.238 169.589L217.23 169.635L217.231 169.682L217.241 169.729L217.26 169.772L217.286 169.811L217.476 170.277L217.507 170.309L217.825 170.784L217.854 170.809L218.157 171.211L218.242 171.269L218.63 171.581L218.687 171.611L219.233 171.991L219.344 172.033L220.024 172.32L220.136 172.346L220.773 172.441L220.836 172.449L221.657 172.409L221.658 172.409L222.414 172.341L222.488 172.343L223.284 172.164L223.307 172.161L223.929 171.993L223.965 171.99L224.546 171.796L224.596 171.783L224.642 171.759L224.683 171.728L224.717 171.689L224.742 171.644L224.758 171.595L224.765 171.544L224.761 171.493L224.747 171.443L224.724 171.397L224.693 171.356L224.654 171.322L224.609 171.297L224.56 171.281L224.509 171.274L224.458 171.277L223.869 171.285L223.862 171.286Z" fill="#A47559"/>
<path d="M210.249 153.166L210.304 152.587L210.603 152.183L210.966 151.734L211.319 151.435L211.751 151.185L212.301 150.912L212.31 150.911L212.804 150.557L212.847 150.536L212.884 150.506L212.914 150.47L212.938 150.429L212.952 150.384L212.958 150.337L212.955 150.29L212.942 150.245L212.92 150.203L212.891 150.166L212.855 150.135L212.813 150.113L212.768 150.097L212.722 150.09L212.674 150.095L212.629 150.108L212.031 150.187L211.427 150.335L211.403 150.345L210.859 150.517L210.76 150.574L210.241 150.912L210.107 151.053L209.755 151.69L209.708 151.783L209.616 152.391L209.592 152.514L209.628 153.192L209.634 153.256L209.883 153.849L209.893 153.883L209.91 153.914L209.932 153.942L209.959 153.964L209.991 153.98L210.025 153.991L210.06 153.994L210.096 153.99L210.13 153.979L210.161 153.963L210.188 153.94L210.211 153.913L210.228 153.881L210.239 153.848L210.242 153.812L210.239 153.777L210.251 153.172L210.249 153.166Z" fill="#A47559"/>
<path d="M220.545 92.7937L220.079 93.4116L219.586 94.027L219.069 94.6372L218.53 95.2397L217.971 95.8318L217.395 96.4111L216.803 96.975L216.199 97.5211L215.585 98.0471L214.964 98.5507L214.338 99.0298L213.71 99.4823L213.083 99.9063L212.459 100.3L211.841 100.662L211.232 100.99L210.635 101.283L210.051 101.54L209.484 101.759L208.936 101.941L208.409 102.083L207.905 102.186L207.427 102.248L206.976 102.27L206.556 102.252L206.166 102.193L205.81 102.095L205.488 101.956L205.202 101.779L204.953 101.563L204.743 101.309L204.571 101.02L204.44 100.695L204.349 100.336L204.299 99.9456L204.29 99.5244L204.322 99.0746L204.394 98.598L204.508 98.0967L204.662 97.5727L204.855 97.0285L205.087 96.4662L205.356 95.8883L205.662 95.2973L206.003 94.6957L206.378 94.0861L206.786 93.4711L207.223 92.8533L207.689 92.2354L208.182 91.6201L208.699 91.0098L209.238 90.4073L209.797 89.8152L210.374 89.2359L210.965 88.672L211.569 88.1259L212.183 87.5999L212.805 87.0963L213.431 86.6172L214.058 86.1647L214.686 85.7407L215.309 85.347L215.927 84.9854L216.536 84.6573L217.133 84.3642L217.717 84.1072L218.284 83.8876L218.832 83.7063L219.359 83.5641L219.863 83.4615L220.341 83.3989L220.792 83.3767L221.212 83.395L221.602 83.4537L221.958 83.5524L222.28 83.6909L222.566 83.8685L222.815 84.0844L223.025 84.3378L223.197 84.6275L223.328 84.9522L223.419 85.3107L223.469 85.7014L223.478 86.1225L223.447 86.5724L223.374 87.049L223.26 87.5503L223.106 88.0743L222.913 88.6185L222.681 89.1808L222.412 89.7587L222.106 90.3497L221.765 90.9513L221.39 91.5609L220.983 92.1759L220.545 92.7937Z" fill="#FEFEFE"/>
<path d="M203.899 110.838L203.84 111.203L203.765 111.573L203.673 111.946L203.564 112.32L203.441 112.695L203.301 113.068L203.148 113.437L202.98 113.802L202.799 114.161L202.606 114.512L202.401 114.854L202.186 115.184L201.961 115.503L201.726 115.808L201.484 116.098L201.236 116.371L200.981 116.628L200.722 116.866L200.459 117.085L200.194 117.283L199.928 117.46L199.661 117.615L199.395 117.748L199.132 117.857L198.872 117.942L198.616 118.004L198.366 118.041L198.122 118.054L197.886 118.042L197.659 118.006L197.441 117.945L197.233 117.861L197.037 117.752L196.854 117.621L196.683 117.467L196.526 117.29L196.383 117.093L196.256 116.875L196.144 116.638L196.048 116.382L195.969 116.109L195.906 115.819L195.861 115.515L195.833 115.197L195.822 114.867L195.829 114.526L195.853 114.175L195.894 113.817L195.953 113.452L196.028 113.082L196.12 112.709L196.228 112.335L196.352 111.96L196.491 111.587L196.645 111.218L196.813 110.853L196.993 110.494L197.187 110.143L197.391 109.801L197.607 109.471L197.832 109.152L198.066 108.847L198.308 108.557L198.557 108.284L198.812 108.027L199.071 107.789L199.334 107.57L199.599 107.372L199.865 107.195L200.132 107.04L200.397 106.907L200.661 106.798L200.921 106.713L201.177 106.651L201.427 106.614L201.671 106.601L201.907 106.613L202.134 106.649L202.352 106.71L202.559 106.794L202.755 106.903L202.939 107.034L203.11 107.188L203.267 107.365L203.409 107.562L203.537 107.78L203.649 108.017L203.745 108.273L203.824 108.546L203.886 108.836L203.932 109.14L203.96 109.458L203.971 109.788L203.964 110.129L203.94 110.48L203.899 110.838Z" fill="#FEFEFE"/>
<path d="M234.48 160.931C234.496 161.016 233.874 161.351 232.007 162.26C232.007 162.26 231.955 162.285 231.955 162.285C231.376 162.568 230.587 162.977 229.815 163.517C229.144 163.987 228.448 164.581 227.891 165.323C227.055 166.441 226.01 167.201 224.911 167.645C224.402 167.851 223.9 167.981 223.431 168.05C222.966 168.119 222.534 168.127 222.163 168.091C221.473 168.029 220.871 167.914 220.337 167.756C219.843 167.61 219.413 167.428 219.034 167.222C218.984 167.195 218.935 167.167 218.886 167.14C218.47 166.898 218.096 166.614 217.756 166.286C217.431 165.973 217.147 165.63 216.888 165.261C216.82 165.165 216.758 165.06 216.71 164.949C216.662 164.836 216.629 164.719 216.615 164.596C216.602 164.472 216.609 164.353 216.632 164.24C216.654 164.129 216.691 164.029 216.733 163.941C216.774 163.853 216.821 163.773 216.868 163.703C216.914 163.632 216.963 163.563 217.009 163.501C217.107 163.367 217.192 163.257 217.28 163.122C217.366 162.991 217.446 162.85 217.513 162.688C217.582 162.522 217.64 162.33 217.677 162.099C217.715 161.862 217.73 161.582 217.71 161.251C217.688 160.906 217.629 160.511 217.521 160.056C217.411 159.575 217.261 159.074 217.118 158.628C216.957 158.124 216.803 157.681 216.689 157.328C216.68 157.303 216.672 157.278 216.664 157.253C216.27 156.014 216.344 155.715 216.436 155.669C216.498 155.638 216.858 155.722 217.496 156.897C217.509 156.92 217.522 156.944 217.535 156.968C217.712 157.301 217.923 157.747 218.13 158.262C218.313 158.717 218.501 159.247 218.643 159.778C218.773 160.284 218.852 160.746 218.885 161.169C218.916 161.577 218.904 161.944 218.856 162.278C218.808 162.603 218.727 162.889 218.624 163.143C218.523 163.391 218.405 163.6 218.288 163.78C218.175 163.953 218.059 164.104 217.977 164.215C217.933 164.273 217.9 164.32 217.872 164.362C217.844 164.404 217.827 164.433 217.816 164.455C217.806 164.475 217.804 164.484 217.804 164.483C217.804 164.482 217.805 164.471 217.804 164.467C217.803 164.463 217.801 164.465 217.808 164.483C217.815 164.501 217.831 164.532 217.863 164.578C218.084 164.901 218.317 165.185 218.577 165.438C218.847 165.703 219.144 165.929 219.475 166.119C219.514 166.142 219.554 166.163 219.593 166.186C219.897 166.349 220.25 166.494 220.667 166.61C221.118 166.735 221.643 166.827 222.262 166.872C222.53 166.888 222.861 166.873 223.233 166.808C223.606 166.744 224.01 166.63 224.422 166.457C225.306 166.084 226.157 165.466 226.871 164.547C227.55 163.667 228.378 163 229.14 162.51C230.026 161.939 230.899 161.558 231.55 161.324C231.57 161.316 231.589 161.31 231.608 161.303C233.697 160.565 234.463 160.847 234.48 160.932L234.48 160.931Z" fill="#A47559"/>
</svg>
