<svg width="512" height="512" viewBox="0 0 512 512" fill="none" xmlns="http://www.w3.org/2000/svg">
<g id="Frame">
<g id="Rectangle">
<path id="Vector" d="M509.5 2.5H2.5V509.5H509.5V2.5Z" stroke="white" stroke-width="5" stroke-miterlimit="10"/>
</g>
<g id="Mouth">
<g id="layer1">
<g id="g298999">
<path id="abColor_1" d="M195.47 250.32C192.19 253.52 196.05 259.5 197.6 258.95C208.24 258.2 235.45 256.48 240.77 235.39C263.61 172.33 226.92 169.68 205.48 169.81C197.97 175.96 187.84 178.81 182.95 188.25C182.12 203.82 179.11 221.34 195.32 219.74C195.32 219.74 187.39 228.87 189.69 234.62C191.99 240.37 192.19 240.14 194 240.8C193.55 241.67 199.33 246.56 195.47 250.32Z" fill="white"/>
<path id="path13904-1" d="M196.82 221.46L197.82 226.63L216.45 225L223.45 218.22C211.79 222.54 213.45 218.5 206.08 218.41C202.91 220.27 199.78 221.54 196.82 221.46Z" fill="#FFFFF2"/>
<path id="path295891-72-2" d="M237.56 206.39C241.12 205.88 242.56 206.78 245.48 210.39M194.94 258.39C206.3 254.6 210.42 267.39 209.19 267.04C216.65 261.28 225.92 266.12 227.13 268.42C232.81 263.16 238.72 265.42 239.53 266.48L194.94 258.39ZM215.44 225.2C212.12 226.2 207.38 227.11 206 225.92L205.67 218.92L215.44 225.2ZM200.67 226.51C191.74 233.02 197.67 239.61 223.46 219.73L200.67 226.51ZM194.25 221.78C182.6 239.41 193.66 244.28 209.39 237.88L194.25 221.78ZM203.81 202.1C204.41 209.45 203.31 214.24 206.98 217.29C220.93 223.36 237.22 217.01 241.62 208.55L203.81 202.1ZM194.85 197.55C191.77 195.6 187.56 194.17 187.33 190.89L203.61 202C211.69 197.42 221.77 194 229.68 188.33C226.08 193.84 221.85 194.88 217.68 196.4L194.85 197.55ZM206.27 167C202.82 176.18 183.35 181.65 182.15 188.48C180.89 199.48 179.88 215.77 187.72 218.1C197.48 222.93 205.5 217.73 206.15 217.01L206.27 167ZM205.01 226.21C203.15 226.47 198.94 226.93 197.68 225.96L197.36 220.39L205.01 226.21Z" stroke="#999999" stroke-width="3" stroke-linecap="round" stroke-linejoin="round"/>
</g>
</g>
</g>
</g>
</svg>
