<svg width="512" height="512" viewBox="0 0 512 512" fill="none" xmlns="http://www.w3.org/2000/svg">
<g id="Frame">
<g id="Rectangle">
<path id="Vector" d="M509.5 2.5H2.5V509.5H509.5V2.5Z" stroke="white" stroke-width="5" stroke-miterlimit="10"/>
</g>
<g id="Mouth">
<g id="layer1">
<g id="g300826">
<path id="abColor_1" d="M207.31 167.85C206.22 167.85 205.17 167.91 204.16 167.99C200.04 168.31 188.29 177.1 186.24 180.27C179.56 190.64 182.24 190.27 181.66 193.48C184.24 200.92 179 210.54 195.16 212.35C195.16 212.61 195.16 212.89 195.1 213.18C193.116 213.332 191.12 213.235 189.16 212.89C188.89 213.49 188.75 220.89 190.16 221.25C192.042 221.516 193.94 221.653 195.84 221.66C196.058 222.171 196.402 222.618 196.84 222.96C198.13 226.5 200.12 229.73 202.67 231.3C200.85 230.77 191.59 239.46 202.67 241.7C196.77 244.3 197.24 248.58 199.51 252.7C199.3 252.7 199.09 252.7 198.86 252.7C197.12 252.7 193.65 254.53 194.5 259.53C196.19 269.53 206.33 266.9 208.08 267.58C220.67 269.11 228.84 267.03 237.8 256.74C250.67 239.74 249.8 203.32 247.8 187.83C247.72 174.69 223.63 167.67 207.31 167.83V167.85Z" fill="white"/>
<path id="path434979" d="M204 232.53C204 232.53 217.82 233.92 223.78 229.77C229.74 225.62 234.11 219.77 234.84 213.11C235.57 206.45 234.38 207.92 234.38 207.92L228.16 211.28C228.04 211.28 228.67 218.45 227.86 219.16C225.1 221.59 221.5 221.08 221.06 221.22C219.4 221.76 212.51 224.44 211.13 224.15C206.13 223.09 212.45 218.39 206.85 218.72L204.36 224.92C201.77 226.31 203.58 229.73 204 232.53Z" fill="#A37070"/>
<path id="path445115" d="M192 221.89C192 221.89 194.71 227.57 194.73 229.63C194.75 231.69 194.62 237.15 194.65 236.71C194.65 236.03 200.9 231.71 202.38 231.71C202.82 230.99 202.65 225.85 202.46 223.95L192 221.89ZM196.93 241.29L194.52 251.1C194.52 251.1 200.83 252.96 200.07 250.84C198.44 246.36 202.72 242.16 203.07 242.58L196.93 241.29Z" fill="#CCCCCC"/>
<path id="path13904-3" d="M189.85 213.669L190.19 220.669L195.76 222.579C201.6 225.329 205.08 222.269 206.96 218.049C207.96 227.549 221.07 222.529 226.76 218.619L226.87 212.019C214.31 215.429 211.87 213.019 205.16 211.189C202.23 212.879 192.56 213.769 189.85 213.709V213.669Z" fill="#FFFFF2"/>
<path id="path295891-72-0" d="M195.34 214C195.43 215.18 194.19 223.51 197.34 223.53H204.04C206.6 223.07 204.95 217.79 204.88 212.73M194.71 251.81C205.1 248.34 207.65 264.68 206.52 264.37C215.33 255.25 222.8 261.37 223.86 263.57C226.44 254.89 235.48 253.57 237.06 255.72L194.71 251.81ZM201.55 232.28C204.29 230.79 203.55 227.01 202.62 223.51L201.55 232.28ZM236.29 204.93C233.29 228.93 224.45 232.93 203.02 232.29C193.57 231.99 192.96 242.08 203.43 241.42L236.29 204.93ZM237.57 192.19C240.83 191.73 242.17 192.55 244.81 195.87L237.57 192.19ZM202.69 196.3C203.24 203.02 202.23 207.41 205.59 210.19C225.14 219.09 240.59 203.03 241.77 193.88L202.69 196.3ZM194.5 192.12C191.67 190.33 187.83 189.03 187.61 186.03L202.55 196.19C209.94 191.99 219.17 188.87 226.41 183.68C223.11 188.68 219.24 189.68 215.41 191.06L194.5 192.12ZM205 164.13C201.84 172.53 184 177.54 182.93 183.79C181.78 193.85 180.86 208.79 188.03 210.89C196.95 215.31 204.29 210.55 204.9 209.89L205 164.13ZM194.5 221L190.15 221.2C188.88 221.06 189.15 214.99 189.54 213.09L194.5 221ZM221.06 220.29L226.6 219.41C229.12 218.46 227.6 215.51 227.01 211.5L221.06 220.29ZM207.71 212.38C207.71 212.38 208.71 224.04 210.54 223.86L218.35 223.07C221.45 222.28 219.19 216.84 218.56 212.75L207.71 212.38Z" stroke="#999999" stroke-width="3" stroke-linecap="round" stroke-linejoin="round"/>
</g>
</g>
</g>
</g>
</svg>
