<svg width="512" height="512" viewBox="0 0 512 512" fill="none" xmlns="http://www.w3.org/2000/svg">
<g id="Mouth6">
<g id="Rectangle">
<path id="Vector" d="M509.5 2.5H2.5V509.5H509.5V2.5Z" stroke="white" stroke-width="5" stroke-miterlimit="10"/>
</g>
<g id="Mouth">
<g id="layer1">
<g id="g300907">
<path id="abColor_3" d="M232.47 226.65C232.47 227.98 188.68 235.45 187.93 224.75C187.57 219.67 187.46 218.57 190.15 218C191.788 217.649 193.396 217.171 194.96 216.57L194.81 212.76C170.41 211.62 182.15 191.37 182.2 180.86C216.98 153.35 218.4 170.73 238.83 178.74C249.51 208.74 241.77 224.07 232.47 226.65V226.65Z" fill="white"/>
<path id="path13904-9" d="M195.37 214.59L195.27 218.59L218.33 216.41L218.01 214.04C209.39 213.54 211.38 213.64 203.52 211.32C200.52 213.03 198.12 214.63 195.37 214.56V214.59Z" fill="#FFFFF2"/>
<path id="path90947" d="M194.91 213.821C195 215.021 194.39 219.621 196.4 219.201C197.371 218.908 198.389 218.803 199.4 218.891C201.62 219.061 201.22 218.161 201.14 213.031M226.51 218.001C222.43 215.071 219.12 215.641 216.05 219.101L226.51 218.001ZM216.05 219.761C212.81 217.591 206.76 217.591 203.51 221.191L216.05 219.761ZM203.51 219.291C201.26 218.941 194.14 217.971 191.9 221.141L203.51 219.291ZM210.29 213.271C210.38 214.471 209.24 218.111 211.29 217.971L216.29 217.641C218.89 216.901 218.73 217.891 218.29 213.561L210.29 213.271ZM201.39 212.561C201.5 213.721 200.22 218.761 202.77 218.611L207.09 218.351C209.87 218.511 209.68 218.141 209.58 213.181L201.39 212.561Z" stroke="#999999" stroke-width="3" stroke-linecap="round" stroke-linejoin="bevel"/>
<path id="abColor_4" d="M193.27 248.7C203.8 245.19 207.62 257.04 206.48 256.7C213.4 251.36 221.99 255.84 223.11 257.98C228.38 253.1 233.86 255.2 234.61 256.18M199 229.25C195.47 229.47 188.92 228.43 187.91 224.7C185.91 217.46 192.72 216.13 194.01 217.53M201.37 196.53C201.93 203.33 200.9 207.78 204.3 210.6C225.97 220.7 236.13 204.53 236.3 196.03M193 192.29C190.14 190.48 186.25 189.16 186 186.12L201.13 196.41C208.62 192.16 217.97 189 225.3 183.74C221.96 188.85 218.04 189.81 214.18 191.22M204.79 163.58C202.09 172.15 182.33 176.27 181.24 183.85C180.07 194.04 179.13 209.15 186.4 211.31C195.4 215.79 202.88 210.97 203.49 210.31M233.18 193.71C236.48 193.25 237.84 194.07 240.52 197.44L233.18 193.71Z" stroke="#999999" stroke-width="3" stroke-linecap="round" stroke-linejoin="round"/>
</g>
</g>
</g>
</g>
</svg>
