<svg width="512" height="512" viewBox="0 0 512 512" fill="none" xmlns="http://www.w3.org/2000/svg">
<g id="Frame">
<g id="Rectangle">
<path id="Vector" d="M509.5 2.5H2.5V509.5H509.5V2.5Z" stroke="white" stroke-width="5" stroke-miterlimit="10"/>
</g>
<g id="Mouth">
<g id="layer1">
<g id="g300983">
<path id="abColor_1" d="M194.11 219.48C194.11 219.48 195.34 230.58 196.2 230.57C197.06 230.56 199.88 230.87 199.88 230.87C199.88 230.87 192.46 273.01 195.32 275.53C210.16 288.62 237.19 273.47 242.72 247.44C245.55 234.12 259.23 207.97 237.05 181.68C232.708 177.507 227.362 174.527 221.529 173.029C215.696 171.531 209.575 171.566 203.76 173.13C203.76 173.13 185 180.33 183.11 188.75C179 207.08 176.32 219.36 194.11 219.48Z" fill="white"/>
<path id="path13904-2" d="M193.89 221.07L194.74 229.48C198.82 229.48 203.43 230.41 205.74 227.15C214.46 231.92 211.18 230.07 219.15 229.55L219.45 220.39L205.39 218.25C201.806 220.039 197.866 221.003 193.86 221.07H193.89Z" fill="#FFFFF2"/>
<path id="path505954" d="M232.38 216.15L219.89 220.69L220.76 224.16C228.75 222.42 229.55 219.06 232.38 216.15ZM192.74 228.91C192.19 236.99 192.74 255.02 192.81 269.31C192.05 276.13 194.81 278.16 196.67 274.39C200.05 267.59 193.79 269.96 201.05 260.27C204.93 255.1 190.35 252.35 205.72 241.4C200.99 240.75 200.58 239.63 198.41 234.4C198.41 234.4 193.89 228.95 192.74 228.93V228.91Z" fill="#CCCCCC"/>
<path id="path295891-72" d="M203.86 170C198.41 179.75 184.58 181.52 181.32 188.53C180.08 199.31 179.09 215.3 186.78 217.59C196.35 222.33 204.22 217.23 204.86 216.51M194 257.47C205.14 253.74 209.19 266.29 208 265.95C215.33 260.3 224.42 265.04 225.61 267.31C231.18 262.14 236.98 264.37 237.77 265.4L194 257.47ZM207.36 219.83C207.36 219.83 206.5 230.47 208.95 230.5L216.17 230.58C220.65 230.7 219.57 225.36 219.55 219.81L207.36 219.83ZM194.26 220.74C194.35 222.01 193.26 230.56 196.6 230.66L201.02 230.79C205.46 230.42 204.53 224.79 204.45 219.4L194.26 220.74ZM236.64 209.56C232.99 221.94 224.26 224.24 221.47 224.4L236.64 209.56ZM236.22 199C239.72 198.51 241.16 199.39 243.99 202.95L236.22 199ZM198.24 233.15C198.16 238.83 201.09 241.15 210.86 240.6L198.24 233.15ZM202.53 202C203.12 209.21 202.03 213.91 205.63 216.9C226.63 226.44 238.63 210.13 239.47 201.48L202.53 202ZM193.74 197.48C190.74 195.57 186.59 194.16 186.36 190.95L202.36 201.84C210.29 197.34 220.18 193.99 227.94 188.43C224.41 193.83 220.25 194.86 216.17 196.35L193.74 197.48Z" stroke="#999999" stroke-width="3" stroke-linecap="round" stroke-linejoin="round"/>
</g>
</g>
</g>
</g>
</svg>
