<svg width="512" height="512" viewBox="0 0 512 512" fill="none" xmlns="http://www.w3.org/2000/svg">
<g id="Frame">
<g id="Rectangle">
<path id="Vector" d="M509.5 2.5H2.5V509.5H509.5V2.5Z" stroke="white" stroke-width="5" stroke-miterlimit="10"/>
</g>
<g id="Mouth">
<g id="layer1">
<g id="g300784">
<path id="abColor_1" d="M207.67 168.21C203.16 168.56 190.26 178.21 188.02 181.68C180.68 193.07 183.67 192.68 183.02 196.19C185.86 204.35 180.11 214.91 197.84 216.89C203.79 219.89 201.84 229.2 200.84 230.24C198.64 232.41 193.35 232.91 196.49 237.75C245.68 261.5 264.94 217.19 255.63 189.95C248.82 172.62 222.73 167.06 207.67 168.21Z" fill="white"/>
<path id="path421838" d="M243.89 211.26C244.47 212.51 239.35 226.26 237.78 225.36V214.59L243.89 211.26Z" fill="#A37070"/>
<path id="path13904" d="M199.24 218.3L201.05 225.3L199.64 231.91C213.11 233.91 229.5 231.99 236.69 227.54L236.9 214.12C225.75 219.88 217 218.04 208.57 215.23C205.35 217.1 202.21 218.37 199.24 218.3Z" fill="#FFFFF2"/>
<path id="path234945" d="M200.8 258.91C210.34 254.57 213.85 266.36 212.74 265.98C221.17 257.34 233.44 260.21 234.45 262.7C234.21 253.7 245.23 250.47 246.86 251.7M236.88 225.63C236.22 221.83 235.45 221.03 237.37 215.46L236.88 225.63ZM199.81 230.24L201.68 225.24L199.88 217.42L199.81 230.24ZM201.61 224.2C210.46 225.2 223.98 225.2 234.18 221.64L201.61 224.2ZM245.74 208.45C243.26 219.21 240.37 224.86 237.92 226.67C231.12 231.67 213.61 232.53 199.15 231.37C191.72 230.77 193.66 241.64 207.36 242.11L245.74 208.45ZM205.92 199.35C206.52 206.72 205.41 211.54 209.1 214.6C230.55 224.36 251.75 206.16 253.04 196.12L205.92 199.35ZM196.92 194.76C193.82 192.76 189.6 191.37 189.36 188.07L205.76 199.22C213.87 194.62 224 191.22 231.94 185.49C228.32 191.03 224.07 192.08 219.89 193.6L196.92 194.76ZM208.43 164C204.96 173.22 185.43 178.72 184.2 185.58C182.94 196.58 181.93 212.98 189.8 215.33C199.6 220.18 207.65 214.95 208.31 214.23L208.43 164ZM249.13 194.23C252.71 193.73 254.19 194.62 257.13 198.23L249.13 194.23Z" stroke="#999999" stroke-width="3" stroke-linecap="round" stroke-linejoin="round"/>
</g>
</g>
</g>
</g>
</svg>
