
<svg width="512" height="512" viewBox="0 0 512 512" fill="none" xmlns="http://www.w3.org/2000/svg">
<g id="Frame">
<g id="Rectangle">
<path id="Vector" d="M509.5 2.5H2.5V509.5H509.5V2.5Z" stroke="white" stroke-width="5" stroke-miterlimit="10"/>
</g>
<g id="Mouth">
<g id="layer1">
<g id="g298999">
<path id="abColor_1" d="M198.21 249.5C194.85 252.78 198.8 258.89 200.39 258.34C211.29 257.57 239.15 255.81 244.6 234.21C267.99 169.64 230.41 166.92 208.46 167.06C200.77 173.35 190.4 176.26 185.39 185.94C184.55 201.89 181.46 219.83 198.05 218.18C198.05 218.18 189.94 227.53 192.29 233.43C194.64 239.33 194.86 239.08 196.7 239.75C196.24 240.64 202.16 245.65 198.21 249.5Z" fill="white"/>
<path id="path13904-1" d="M199.6 220L200.6 225.29L219.66 223.64L226.86 216.64C214.92 221.06 216.59 216.93 209.08 216.83C205.83 218.73 202.63 220 199.6 220Z" fill="#FFFFF2"/>
<path id="path295891-72-2" d="M241.33 204.5C244.98 203.99 246.48 204.9 249.44 208.62M197.67 257.76C209.3 253.88 213.52 266.97 212.26 266.62C219.9 260.72 229.39 265.67 230.63 268.03C236.44 262.65 242.5 264.97 243.33 266.03L197.67 257.76ZM218.66 223.76C215.26 224.76 210.41 225.76 208.99 224.51L208.66 217.36L218.66 223.76ZM203.49 225.13C194.35 231.8 200.49 238.54 226.83 218.18L203.49 225.13ZM196.93 220.28C185 238.34 196.32 243.28 212.42 236.77L196.93 220.28ZM206.71 200.14C207.33 207.66 206.2 212.57 209.95 215.68C224.24 221.9 240.95 215.4 245.43 206.73L206.71 200.14ZM197.54 195.46C194.38 193.46 190.08 192 189.84 188.65L206.55 200C214.82 195.31 225.15 191.81 233.24 186C229.56 191.65 225.24 192.71 220.96 194.27L197.54 195.46ZM209.27 164.13C205.74 173.53 185.8 179.13 184.58 186.13C183.28 197.38 182.25 214.07 190.28 216.46C200.28 221.4 208.48 216.08 209.15 215.34L209.27 164.13ZM208 224.78C206.1 225.04 201.79 225.52 200.49 224.52L200.17 218.82L208 224.78Z" stroke="#999999" stroke-width="3" stroke-linecap="round" stroke-linejoin="round"/>
</g>
</g>
</g>
</g>
</svg>
