<svg width="512" height="512" viewBox="0 0 512 512" fill="none" xmlns="http://www.w3.org/2000/svg">
<g id="Frame">
<g id="Rectangle">
<path id="Vector" d="M509.5 2.5H2.5V509.5H509.5V2.5Z" stroke="white" stroke-width="5" stroke-miterlimit="10"/>
</g>
<g id="Mouth">
<g id="layer1">
<g id="g8786">
<path id="abColor_1" d="M200.4 215C197.99 220.12 204.64 222.14 202.87 230.46C195.54 233.79 190.43 234.46 211.19 243.85C254.68 253.78 256.95 210.85 253.84 188.39C253.74 172.98 223.62 165.23 205.84 166.61C201.32 166.96 186.13 177.55 183.84 181.04C176.49 192.44 181.74 191.04 181.05 194.63C181.2 208.5 181.56 215.13 200.33 215H200.4Z" fill="white"/>
<path id="path13904-6" d="M200.06 216.19L199.54 220.19C212.09 224.38 226.95 222.98 237.11 216.83L238.58 210.75C227.41 216.52 214.01 217.18 205.58 214.37C202.34 216.22 203 216.26 200.06 216.19Z" fill="#FFFFF2"/>
<path id="path295871" d="M246.41 205.431C246.41 205.431 240.73 225.601 227.08 229.371C218.812 231.65 210.184 232.329 201.66 231.371C201.66 231.371 203.84 224.371 203.66 222.301C199.94 224.351 234.81 219.481 237.72 216.021L239.12 210.101L246.41 205.431Z" fill="#D47575"/>
<path id="path295883" d="M202 221.09C207.69 223.66 226.29 222.09 237.13 216.28C238.66 215.45 238.4 211.84 238.62 210.82" stroke="#969696" stroke-width="3" stroke-linecap="round" stroke-linejoin="round"/>
<path id="path295891" d="M251.02 189.36C254.6 188.85 256.08 189.75 259.02 193.36M198.44 257.11C207.1 253.8 210.68 267.65 209.79 267.24C217 258.47 230.67 264.41 231.89 266.77C238.12 259 244.27 262.9 245.02 263.53L198.44 257.11ZM201.72 231.09C200.19 230.03 192.65 235.8 201.5 240.89C208.03 244.64 216.15 243.69 216.16 243.96L201.72 231.09ZM203 198C203.6 205.39 202.49 210.21 206.19 213.28C212.28 218.33 224.1 215.28 230.77 212.91C236.71 210.78 250.58 203.98 254.48 190.59L203 198ZM194 193.43C190.89 191.43 186.66 190.03 186.43 186.74L202.85 197.91C210.98 193.29 221.12 189.91 229.08 184.15C225.46 189.7 221.2 190.74 217.01 192.27L194 193.43ZM205.66 163.57C199.91 175.47 186.01 175.07 181.26 184.28C179.99 195.33 178.64 206.9 187.16 212.79C196.97 217.64 204.75 213.7 205.41 212.97L205.66 163.57ZM199 215.74C200 215.84 196.68 221.29 202.58 221.97C205.41 225.04 202.58 230.04 201.98 231.2C209.55 234.69 225.36 232.2 232.07 227.94C240.34 222.65 245.07 208.08 247.72 202.64L199 215.74Z" stroke="#999999" stroke-width="3" stroke-linecap="round" stroke-linejoin="round"/>
</g>
</g>
</g>
</g>
</svg>
