<svg width="512" height="512" viewBox="0 0 512 512" fill="none" xmlns="http://www.w3.org/2000/svg">
<g id="Frame">
<g id="Rectangle">
<path id="Vector" d="M509.5 2.5H2.5V509.5H509.5V2.5Z" stroke="white" stroke-width="5" stroke-miterlimit="10"/>
</g>
<g id="Mouth">
<g id="layer1">
<g id="g300868">
<path id="abColor_1" d="M192.6 215.46C191.99 220.88 191.84 222.24 197.12 225.26C193.85 234.66 191.12 233.45 196.42 242.51C188.29 246.1 190.22 254.32 194.35 259.4C204.13 263.4 226.5 257.4 231.13 252.21C245.88 240.84 246.35 206.56 244.32 191.35C244.23 177.57 217.32 170.65 201.43 171.88C197.43 172.2 185.84 180.88 183.83 183.94C177.27 194.13 179.94 193.76 179.33 196.94C181.86 204.25 176.72 213.7 192.6 215.47V215.46Z" fill="white"/>
<path id="path295891-72-1" d="M242.92 191.87C246.13 191.42 247.45 192.22 250.04 195.49M192.69 244.05C202.9 240.64 206.61 252.14 205.49 251.83C212.21 246.65 220.49 251 221.63 253.07L192.69 244.05ZM197.56 224.76C190.35 235.76 198.56 243.35 197.44 243.04L197.56 224.76ZM191.67 217.11C191.6 222.32 194.97 225.49 203.92 224.99L191.67 217.11ZM200 199.69C200.54 206.29 199.55 210.61 202.85 213.34C208.3 217.86 218.85 215.16 224.85 213.02C230.16 211.11 242.55 205.02 246.04 193.02L200 199.69ZM191.98 195.53C189.2 193.78 185.42 192.53 185.21 189.53L199.89 199.53C207.15 195.41 216.22 192.34 223.33 187.24C220.09 192.24 216.28 193.13 212.54 194.5L191.98 195.53ZM201.71 169.67C195.22 179.42 183.76 178.91 180.59 187.35C179.46 197.23 178.59 211.88 185.59 213.98C194.36 218.32 201.59 213.65 202.16 212.98L201.71 169.67Z" stroke="#999999" stroke-width="3" stroke-linecap="round" stroke-linejoin="round"/>
</g>
</g>
</g>
</g>
</svg>
