<svg width="15" height="21" viewBox="0 0 15 21" fill="none" xmlns="http://www.w3.org/2000/svg">
<path d="M6.61105 15.6603L3.51399 14.611L2.60609 14.6058L1.01801 19.2433C0.967404 19.391 1.08516 19.542 1.23822 19.5257L3.46431 19.2888C3.5265 19.2822 3.58832 19.304 3.63303 19.3485L5.2333 20.939C5.34331 21.0484 5.52789 21.0043 5.57845 20.8566L7.17694 16.1888L6.61105 15.6603Z" fill="#0083FD"/>
<path d="M7.17702 16.1888L7.50001 15.2457L2.92823 13.6655L2.6062 14.6059C3.90441 15.5474 5.47631 16.1238 7.17702 16.1888Z" fill="#0072FC"/>
<path d="M8.38881 15.6603L11.4859 14.611L12.3938 14.6058L13.9819 19.2433C14.0325 19.391 13.9147 19.5421 13.7617 19.5257L11.5356 19.2888C11.4734 19.2822 11.4116 19.3041 11.3669 19.3485L9.76664 20.9391C9.65663 21.0484 9.47205 21.0043 9.42149 20.8566L7.823 16.1888L8.38881 15.6603Z" fill="#0083FD"/>
<path d="M7.823 16.1888L7.5 15.2457L12.0718 13.6655L12.3938 14.6059C11.0956 15.5474 9.52371 16.1238 7.823 16.1888Z" fill="#0072FC"/>
<path d="M7.5 14.6059C0.00936222 14.6059 0.00314774 7.36591 0.00936237 7.23864C0.206253 3.20717 3.48463 0 7.5 0C11.5154 0 14.7937 3.20717 14.9906 7.23864C14.9969 7.36591 14.9906 14.6059 7.5 14.6059Z" fill="#FF9838"/>
<path d="M7.5 14.4772C3.48463 14.4772 0.206374 11.2701 0.009443 7.23865C0.00322838 7.36592 0 7.49401 0 7.62284C0 11.8328 3.35787 15.2457 7.5 15.2457C11.6421 15.2457 15 11.8328 15 7.62284C15 7.49401 14.9968 7.36592 14.9906 7.23865C14.7936 11.2701 11.5154 14.4772 7.5 14.4772Z" fill="#FF8709"/>
<path d="M13.4084 7.62285C13.4084 10.1943 10.7631 13.2589 7.49996 13.2589C4.23684 13.2589 1.59155 10.0257 1.59155 7.62285C1.59155 7.49378 1.59555 7.36568 1.60346 7.23862C1.79837 4.10109 4.36384 1.61768 7.49996 1.61768C10.6361 1.61768 13.2016 4.10109 13.3965 7.23862C13.4044 7.36568 13.4084 7.49378 13.4084 7.62285Z" fill="#CE7430"/>
<path d="M7.49996 12.8596C4.36388 12.8596 1.7989 10.3761 1.60394 7.23865C1.59603 7.36571 1.59155 7.49372 1.59155 7.62284C1.59155 10.9394 4.23684 13.628 7.49996 13.628C10.7631 13.628 13.4084 10.9394 13.4084 7.62284C13.4084 7.49372 13.4039 7.36571 13.396 7.23865C13.201 10.3761 10.636 12.8596 7.49996 12.8596Z" fill="#BC672E"/>
<path d="M7.50743 11.1899C6.23493 11.1899 5.42525 10.2984 5.2694 9.24057C5.25524 9.14434 5.25076 8.93783 5.25076 8.93783C5.35911 8.65724 5.62795 8.45856 5.94244 8.45856C6.35264 8.45856 6.6852 8.79653 6.6852 9.2135C6.6852 9.67431 7.05405 10.0492 7.50743 10.0492C7.96082 10.0492 8.3297 9.67431 8.3297 9.2135C8.3297 9.07495 8.29636 8.94419 8.23741 8.82902C8.23741 8.82902 8.18164 8.11715 7.54722 8.11715C6.91083 8.11715 6.86821 7.23827 6.86821 7.23827C6.99763 7.01658 7.23548 6.86798 7.50747 6.86798C7.96086 6.86798 8.32974 6.4931 8.32974 6.03229C8.32974 5.57148 7.96086 5.19659 7.50747 5.19659C7.05409 5.19659 6.68524 5.57148 6.68524 6.03229C6.68524 6.44925 6.35268 6.78722 5.94248 6.78722C5.53227 6.78722 5.19971 6.44925 5.19971 6.03229C5.19971 4.73898 6.23497 3.68677 7.50743 3.68677C8.77993 3.68677 9.81519 4.73898 9.81519 6.03229C9.81519 6.64555 9.58251 7.20451 9.20204 7.62291C9.5014 7.9521 9.70926 8.36833 9.78432 8.82955C9.78432 8.82955 9.78662 9.0827 9.76503 9.21161C9.58089 10.3117 8.77993 11.1899 7.50743 11.1899Z" fill="#FFAA5C"/>
<path d="M7.50738 7.60935C7.23539 7.60935 6.99822 7.4603 6.86884 7.23865C6.80307 7.35128 6.76465 7.48236 6.76465 7.62284C6.76465 8.03981 7.09717 8.37777 7.50742 8.37777C7.82448 8.37777 8.0997 8.56144 8.23683 8.82931C8.29579 8.71414 8.32968 8.58367 8.32968 8.44512C8.32964 7.98423 7.96076 7.60935 7.50738 7.60935Z" fill="#EA9957"/>
<path d="M7.50747 10.7906C6.40139 10.7906 5.47493 9.99542 5.25144 8.93808C5.21847 9.02347 5.19971 9.11617 5.19971 9.2135C5.19971 10.5068 6.23497 11.5591 7.50747 11.5591C8.77998 11.5591 9.81523 10.5068 9.81523 9.2135C9.81523 9.0827 9.80406 8.95461 9.78372 8.82959C9.60261 9.94054 8.65112 10.7906 7.50747 10.7906Z" fill="#EA9957"/>
</svg>
