<svg width="15" height="21" viewBox="0 0 15 21" fill="none" xmlns="http://www.w3.org/2000/svg">
<path d="M6.67138 15.7005L3.34091 14.5298L2.60609 14.6059L1.01801 19.2433C0.967404 19.391 1.08516 19.5421 1.23822 19.5258L3.46431 19.2889C3.5265 19.2823 3.58832 19.3041 3.63303 19.3486L5.2333 20.9391C5.34331 21.0484 5.52789 21.0044 5.57845 20.8567L7.17694 16.1889L6.67138 15.7005Z" fill="#98DB7C"/>
<path d="M7.17702 16.1889L7.50001 15.2457L2.92823 13.6655L2.6062 14.6059C3.90441 15.5474 5.47631 16.1238 7.17702 16.1889Z" fill="#82D361"/>
<path d="M8.32848 15.7005L11.659 14.5298L12.3938 14.6059L13.9819 19.2433C14.0325 19.391 13.9147 19.5421 13.7617 19.5258L11.5356 19.2889C11.4734 19.2823 11.4116 19.3041 11.3669 19.3486L9.76664 20.9391C9.65663 21.0484 9.47205 21.0044 9.42149 20.8567L7.823 16.1889L8.32848 15.7005Z" fill="#98DB7C"/>
<path d="M7.823 16.1889L7.5 15.2457L12.0718 13.6655L12.3938 14.6059C11.0956 15.5474 9.52371 16.1238 7.823 16.1889Z" fill="#82D361"/>
<path d="M7.5 14.7426C0.00936222 14.7426 0.00314774 7.36592 0.00936237 7.23865C0.206253 3.20718 3.48463 0 7.5 0C11.5127 0 14.7894 3.20291 14.9902 7.23057C14.9967 7.36051 14.9902 14.7426 7.5 14.7426Z" fill="#E0E0E0"/>
<path d="M7.5 14.4773C3.48463 14.4773 0.206374 11.2701 0.009443 7.23865C0.00322838 7.36592 0 7.49401 0 7.62284C0 11.8328 3.35787 15.2457 7.5 15.2457C11.6421 15.2457 15 11.8328 15 7.62284C15 7.49397 14.9968 7.36592 14.9906 7.23865C14.7936 11.2701 11.5154 14.4773 7.5 14.4773Z" fill="#CECECE"/>
<path d="M7.5001 13.1509C1.59169 13.1509 1.59568 7.3657 1.60359 7.23863C1.79854 4.10109 4.36397 1.61768 7.5001 1.61768C10.6362 1.61768 13.2016 4.10109 13.3966 7.23863C13.4045 7.3657 13.3966 13.1509 7.5001 13.1509Z" fill="#9E9E9E"/>
<path d="M7.49996 12.8596C4.36388 12.8596 1.7989 10.3761 1.60394 7.23865C1.59603 7.36571 1.59155 7.49376 1.59155 7.62284C1.59155 10.9394 4.23684 13.628 7.49996 13.628C10.7631 13.628 13.4084 10.9394 13.4084 7.62284C13.4084 7.49372 13.4039 7.36571 13.396 7.23865C13.201 10.3761 10.636 12.8596 7.49996 12.8596Z" fill="#898989"/>
<path d="M9.20077 11.1899H5.81412C5.40392 11.1899 5.08717 10.4641 5.11805 10.2983C5.20372 9.83764 5.40537 9.40362 5.70646 9.0419L8.08936 6.1795C8.31232 5.91166 8.21285 5.62308 8.17701 5.54096C8.13347 5.44117 7.99808 5.20784 7.68267 5.19701C7.67355 5.19668 7.66406 5.19651 7.65458 5.19651C7.21153 5.19651 6.85112 5.56287 6.85112 6.01318C6.85112 6.4301 6.51856 6.76811 6.10835 6.76811C5.69814 6.76811 5.36558 6.43014 5.36558 6.01318C5.36558 4.73037 6.39241 3.68665 7.65458 3.68665C7.68069 3.68665 7.70668 3.6871 7.73255 3.688C8.52229 3.71507 9.21284 4.19061 9.53499 4.92893C9.86194 5.67828 9.74253 6.53116 9.22337 7.15477L6.84051 10.0172C6.83175 10.0277 6.82315 10.0384 6.81476 10.0492H9.20081C9.4728 10.0492 9.71065 10.1978 9.84007 10.4195C9.90577 10.5321 9.61098 11.1899 9.20077 11.1899Z" fill="#E0E0E0"/>
<path d="M9.2007 10.7906H5.81406C5.49485 10.7906 5.22347 10.5856 5.11842 10.2983C5.08755 10.4642 5.07129 10.6335 5.07129 10.8041C5.07129 11.2211 5.40385 11.559 5.81406 11.559H9.2007C9.61091 11.559 9.94347 11.2211 9.94347 10.8041C9.94347 10.6636 9.90501 10.5325 9.83928 10.4199C9.70986 10.6416 9.47269 10.7906 9.2007 10.7906Z" fill="#CECECE"/>
</svg>
