<svg width="15" height="21" viewBox="0 0 15 21" fill="none" xmlns="http://www.w3.org/2000/svg">
<path d="M3.42525 14.5652L2.60613 14.6058L1.01801 19.2433C0.967404 19.391 1.08516 19.542 1.23822 19.5257L3.46431 19.2888C3.5265 19.2822 3.58832 19.3041 3.63303 19.3485L5.2333 20.939C5.34331 21.0484 5.52789 21.0043 5.57845 20.8566L7.17694 16.1888L6.7056 15.7238L3.42525 14.5652Z" fill="#FF4755"/>
<path d="M7.17702 16.1889L7.50001 15.2457L2.92823 13.6655L2.6062 14.6059C3.90441 15.5474 5.47631 16.1238 7.17702 16.1889Z" fill="#FC2B3A"/>
<path d="M11.5747 14.5652L12.3938 14.6058L13.9819 19.2433C14.0325 19.391 13.9147 19.542 13.7617 19.5257L11.5356 19.2888C11.4734 19.2822 11.4116 19.3041 11.3669 19.3485L9.76664 20.939C9.65663 21.0484 9.47205 21.0043 9.42149 20.8566L7.823 16.1888L8.29434 15.7238L11.5747 14.5652Z" fill="#FF4755"/>
<path d="M7.823 16.1889L7.5 15.2457L12.0718 13.6655L12.3938 14.6059C11.0956 15.5474 9.52371 16.1238 7.823 16.1889Z" fill="#FC2B3A"/>
<path d="M7.50002 14.7704C2.09808e-05 14.7704 0.00316885 7.36588 0.00938347 7.23861C0.206274 3.20718 3.48465 0 7.50002 0C11.5154 0 14.7938 3.20718 14.9907 7.23865C14.9969 7.36592 15 14.7704 7.50002 14.7704Z" fill="#FFE27A"/>
<path d="M7.5 14.4773C3.48463 14.4773 0.206374 11.2701 0.009443 7.23865C0.00322838 7.36592 0 7.49401 0 7.62284C0 11.8328 3.35787 15.2457 7.5 15.2457C11.6421 15.2457 15 11.8328 15 7.62284C15 7.49397 14.9968 7.36592 14.9906 7.23865C14.7936 11.2701 11.5154 14.4773 7.5 14.4773Z" fill="#F9CF58"/>
<path d="M7.50005 13.1301C1.60355 13.1301 1.59564 7.23691 1.60355 7.10984C1.7985 3.97231 4.36393 1.48889 7.50005 1.48889C10.6362 1.48889 13.2016 3.97231 13.3966 7.10984C13.4045 7.23687 13.3966 13.1301 7.50005 13.1301Z" fill="#FFBA57"/>
<path d="M7.49996 12.8596C4.36388 12.8596 1.7989 10.3761 1.60394 7.23865C1.59603 7.36571 1.59155 7.49376 1.59155 7.62284C1.59155 10.9394 4.23684 13.628 7.49996 13.628C10.7631 13.628 13.4084 10.9394 13.4084 7.62284C13.4084 7.49372 13.4039 7.36571 13.396 7.23865C13.201 10.3761 10.636 12.8596 7.49996 12.8596Z" fill="#FFAC3E"/>
<path d="M7.83692 11.1899C7.42672 11.1899 7.09415 10.8519 7.09415 10.435V10.0357V6.20415C7.09415 6.20415 6.64973 6.65717 6.11797 6.38535C5.70337 6.17343 5.70337 5.62796 5.70337 5.62796L6.61914 4.05681C6.75287 3.82737 6.99581 3.68665 7.2582 3.68665H7.83692C8.24713 3.68665 8.57969 4.02461 8.57969 4.44158V10.0357V10.435C8.57969 10.8519 8.24713 11.1899 7.83692 11.1899Z" fill="#FFE27A"/>
<path d="M6.99209 5.61095C6.79496 5.94921 6.37579 6.09588 6.0262 5.92751C5.88472 5.85939 5.77564 5.75352 5.70312 5.62851C5.49687 5.98313 5.60853 6.43935 5.95195 6.65488C6.3061 6.87719 6.77934 6.74446 6.99144 6.38045L7.09419 6.20412V5.6393C7.09419 5.58261 7.02054 5.56214 6.99209 5.61095Z" fill="#F9CF58"/>
<path d="M7.83701 10.7906C7.4268 10.7906 7.09424 10.4526 7.09424 10.0356V10.8041C7.09424 11.221 7.4268 11.559 7.83701 11.559C8.24721 11.559 8.57978 11.221 8.57978 10.8041V10.0356C8.57978 10.4526 8.24721 10.7906 7.83701 10.7906Z" fill="#F9CF58"/>
</svg>
