<svg width="213" height="158" viewBox="0 0 213 158" fill="none" xmlns="http://www.w3.org/2000/svg">
<g id="Hair3">
<g id="layer1">
<g id="g154583">
<path id="abColor_3" d="M212.017 141.4L207.747 130.05L208.857 112.14L204.467 103.56C203.537 93.3 203.787 80.91 198.977 77.65C197.977 63.65 194.797 57.18 190.267 55.34C189.757 35.6 185.667 36.55 182.367 30.26C179.267 38.61 175.547 58.86 173.607 68.73C172.327 60.6 165.827 56.95 158.257 54.46C147.917 42.01 134.077 28.99 135.417 26.84C140.997 17.68 146.677 16.7 153.147 9.03C148.517 7.62 142.737 4.03 140.557 7.35L123.377 2L116.697 3.84L100.777 6.68L86.9367 4.18L57.6667 12.39L54.9567 17.69L49.2767 23.69C33.9167 29.69 42.0767 35.97 30.2067 37.43C30.2067 37.43 23.2067 42.98 21.9667 49.76C20.9631 54.2795 18.9533 58.5146 16.0867 62.15L17.8167 68.15C17.8167 68.15 17.9567 80.78 15.3467 86.37C12.7367 91.96 7.75674 104.18 7.75674 104.18C7.64674 109.4 9.93674 113.57 5.75674 120.58C5.18674 126.58 6.75673 132.58 2.30673 138.58C2.24673 148.77 6.89673 150.24 13.4667 148.18C16.3467 158.85 22.1667 154.81 28.2267 154.46C30.9467 152.12 28.5867 143.38 31.8867 142.93C39.5867 141.93 36.6567 129.57 36.2467 129.44C36.2467 129.44 37.9967 126.96 41.1267 119.33C44.2567 111.7 41.1867 103.84 43.7467 102.03C46.3067 100.22 49.3867 88.69 49.3867 88.69C49.3867 88.69 54.0167 86.26 51.0867 95.39C48.1567 104.52 53.6667 114.08 53.6667 114.08C53.6667 114.08 54.1567 126.01 56.2167 128.89C58.2767 131.77 56.9667 145.71 62.6867 147.28C69.4767 149.16 76.9767 156.45 75.8167 151.46C76.8167 151.65 86.5467 139.46 83.1467 132.81C81.4667 129.52 78.0267 130.42 81.8867 121.46C86.1067 111.68 82.7367 112.02 82.2267 105.81C81.7167 99.6 88.0167 92.11 88.0167 92.11L85.8167 85.93L88.3767 78.81C88.3767 78.81 90.0267 81.32 91.5667 87.81C93.1067 94.3 103.487 98.53 104.277 99.94C105.067 101.35 102.277 106.6 106.277 110.35L116.957 120.47C115.097 121.81 120.857 128.84 126.367 131.65C126.757 138.19 138.597 144.58 138.597 144.58C142.527 150.1 142.967 156.19 152.857 150.44C160.857 145.79 151.327 139.77 152.317 138.5L153.527 131.5C153.527 131.5 162.527 134.61 164.977 142.38C167.427 150.15 175.327 152.38 179.427 148.38C183.527 144.38 184.207 149.02 184.207 149.02C184.207 149.02 187.207 153.9 191.847 150.48C196.487 147.06 197.367 144.48 197.367 144.48C197.367 144.48 200.667 153.48 212.837 142.41" fill="white"/>
<path id="Grey" d="M174.417 63.5001C174.527 63.5001 173.737 65.6001 173.797 65.5801C172.797 68.3101 172.667 69.2001 174.357 70.5801C185.917 79.9201 181.627 82.9701 185.297 93.8001C187.037 98.9301 191.057 103.73 193.177 108.73C194.707 113.26 189.567 120.64 196.807 129.31C196.807 131.95 191.887 143.62 200.457 145.66C211.117 148.2 196.457 125.05 196.997 119.54C197.457 115.03 195.947 106.72 193.997 102.12C190.907 95.1201 187.327 92.4801 187.997 83.3701C187.677 78.8001 184.807 70.8701 178.857 67.9601C177.957 63.7001 179.277 61.3601 175.447 58.7001L174.417 63.5001ZM158.797 54.1201C144.797 36.2001 137.427 30.1201 136.217 25.5701L132.707 24.2701C127.957 28.1601 135.287 40.5301 142.137 56.2701C143.287 58.9101 150.497 60.7401 151.237 61.6801C148.927 67.8101 152.637 74.8601 156.307 77.0801C160.537 77.2501 168.217 86.8301 169.837 86.0801C168.927 78.6801 155.707 75.5701 157.487 64.7901C158.557 59.9501 164.627 61.1901 171.107 65.1701C172.107 56.9201 164.257 56.6101 158.797 54.1701V54.1201ZM32.0867 36.7201C30.0101 38.1665 27.831 39.4599 25.5667 40.5901C22.9067 41.7701 21.3167 52.5101 19.5167 57.1101C17.7167 61.7101 14.7867 62.4001 14.7867 62.4001L16.8967 72.9501C16.8967 72.9501 15.9667 86.2301 12.2867 92.6201C8.60668 99.0101 9.58669 108.97 9.75669 112.35C9.92669 115.73 7.26669 118.35 4.75669 122.96C2.24669 127.57 4.05667 135.42 4.05667 135.42C4.05667 135.42 2.31668 138.33 2.87668 144.74C3.43668 151.15 14.1867 149.58 14.1867 149.58C9.80668 149.82 17.5967 126.11 17.4867 127.82C17.3767 129.53 11.4267 110.43 24.1367 97.1701C24.4367 92.3201 29.1367 70.5801 36.4467 73.1701C39.1067 65.8201 40.8567 56.2701 46.1467 55.3201L40.6367 55.8301C33.6367 49.1501 43.2067 46.5601 46.1967 41.9501C31.7567 43.8401 42.7267 30.8901 49.0167 27.5301C51.1267 26.0801 41.7867 30.1001 41.7867 30.1001C41.1467 26.6101 33.3467 38.4301 32.0867 36.7201ZM96.5567 4.58008C95.3423 4.62727 94.1435 4.8704 93.0067 5.30008C88.0067 8.56008 87.1767 14.7201 80.6467 15.8001C73.9667 18.8001 73.4867 28.9301 65.7167 30.8601C59.5467 37.2701 63.4567 40.5601 58.5067 45.0401C56.5667 49.3201 55.6767 49.8301 52.8967 53.8501C50.7567 57.7301 52.3167 64.2001 52.8967 67.9901C50.9667 73.7001 46.7167 76.6201 47.0067 83.0701C46.6167 96.6401 41.0067 97.1701 39.0867 102.25C37.4767 106.88 37.0867 107.17 37.8867 112.31C38.5467 116.81 36.4867 122.7 32.6267 124.75C29.2467 131.58 34.7767 137.31 30.0867 144.12C28.8167 150.73 37.9167 141.29 36.7567 138.78C35.1667 132.84 38.3867 126.78 40.9467 121.98C42.8267 119.17 46.8767 99.3601 49.4967 99.1901L51.8167 94.5901C55.3167 91.6501 56.0367 78.4101 57.6767 74.4501C60.7467 69.5301 58.6767 67.4501 57.1667 61.7001C56.5867 55.1101 65.1667 46.8301 64.9267 40.2601C64.9267 34.7601 70.8167 31.0101 75.9267 32.3501C78.2667 28.2601 76.4967 21.6801 82.0367 19.4301C86.9667 18.4301 93.1167 18.8301 94.1067 12.3001C94.4067 9.42008 103.347 5.24008 96.6367 4.58008H96.5567ZM112.287 49.0901C112.177 49.0901 112.117 49.0901 112.097 49.0901C113.417 52.5601 114.097 65.2701 114.017 67.9801C126.797 74.4301 125.727 76.5301 128.527 87.6601C130.157 93.3201 139.627 96.9901 140.057 98.2701C141.057 102.14 141.267 107.97 143.257 111.49C158.327 121.64 149.877 123.21 153.937 130.08C163.017 133.37 163.657 141.08 167.117 147.08C168.987 150.08 174.387 152.58 177.347 149.25C167.457 146.4 170.157 137.91 166.237 132.63C156.807 127.37 156.917 125.19 153.887 114.23C152.887 110.51 146.237 115.01 142.707 100C142.177 97.7501 138.047 89.5401 132.387 86.6001C128.307 84.4901 134.777 78.0501 126.257 70.7201C123.117 68.0301 120.557 68.0301 118.717 61.3401C115.907 51.1501 113.047 49.2601 112.287 49.0601V49.0901ZM89.8267 75.7601C87.1867 83.2201 84.5067 86.9701 86.9767 92.9201C90.2767 96.6501 95.9767 94.6301 96.1167 101.08L106.167 111.84C108.857 125.71 114.037 114.32 115.987 121.07C118.917 131.24 122.787 134.07 127.257 132.13C127.767 142.13 133.257 141.22 139.347 144.49C140.887 150.49 142.347 157.19 150.547 150.16C142.047 150.79 144.687 141.89 141.797 141.33C135.927 137.76 129.187 135.48 128.577 130.19C128.577 130.19 118.977 125.36 118.757 117.32C118.557 109.58 112.977 122.1 110.757 109.09C109.297 100.45 104.357 101.54 101.447 97.7401C98.5367 93.9401 101.327 92.7401 89.7867 75.7401L89.8267 75.7601ZM55.4767 77.7601C50.8667 83.0501 55.7767 82.7601 50.5467 96.3801C49.5467 98.8701 49.4067 106.53 52.3867 111.38C54.8867 115.43 53.2167 117.97 53.4767 122.43C53.6867 125.91 56.6167 127.81 57.5367 130.89C60.5367 140.89 52.5367 142.89 64.5367 147.21C67.0967 148.14 73.3367 152.72 74.5367 151.08C69.1867 148.82 70.2267 144.15 68.4367 143.56C59.9867 140.75 64.6467 132.46 60.4367 128.21C54.2367 122.02 61.0167 116.29 57.1567 109.06C53.2967 101.83 63.0167 91.8401 55.4767 77.7501V77.7601ZM173.017 93.8901C171.607 93.9701 171.647 101.1 171.737 102.22C172.227 106.94 175.087 108.52 177.837 112.13C180.267 115.27 180.217 117.99 179.927 121.93C179.799 126.048 180.772 130.125 182.747 133.74C184.987 138.56 183.457 144.84 187.667 148.74C188.667 149.96 190.457 149.45 191.317 148.33C186.907 145.45 186.317 143.33 187.157 137.91C188.367 130.47 180.347 131.6 183.797 118.66C185.857 110.93 173.977 106.29 173.497 94.0801C173.367 93.957 173.195 93.8889 173.017 93.8901V93.8901Z" fill="#CCCCCC"/>
<path id="abColor_4" d="M195.797 143.92C203.587 152.6 216.497 145.67 209.067 134.35C203.447 126.61 213.497 112.93 205.217 105.46C200.657 96.2399 206.697 85.2199 197.917 76.9399C198.077 65.7799 197.917 59.4899 189.627 53.8299C190.557 44.6199 188.307 35.0999 183.037 30.9799M153.287 131.11C160.717 133.01 164.997 136.28 165.877 144.7C169.487 157.58 186.027 151.41 183.347 136.97C181.667 129.15 177.437 132.88 179.987 120.87C182.057 111.15 169.987 109.39 171.557 100.54C172.407 95.8699 170.067 83.2899 160.667 78.5999C156.257 78.3699 152.157 76.5299 151.147 67.5999C151.427 57.5999 139.487 64.5199 139.237 48.5999C138.537 45.1799 136.117 42.4299 133.727 40.0199M86.3768 87.2199C85.9868 95.0999 94.7068 89.7099 95.8668 99.5299C96.3068 109.21 107.177 102.01 106.867 115.26C106.627 124.65 116.007 114.13 116.457 121.39C117.227 133.68 126.897 128.39 127.097 134.53C127.437 144.78 139.677 140.07 139.727 146.71C139.817 158.21 159.787 154.06 154.727 142.45C149.047 136.58 156.427 128.54 152.727 120.38C149.317 114 139.517 113.27 141.837 104.03C141.077 95.5399 131.447 92.5099 127.617 88.0299C128.957 78.4299 121.487 69.3599 113.387 68.2999C115.277 60.1399 112.977 48.2999 103.997 45.3599M45.7968 54.7599C38.1868 57.4799 38.3067 67.3199 36.6967 72.2899C20.9367 75.8099 27.8468 91.8399 22.3668 98.5199C16.1368 105.88 13.5567 112.79 15.9467 120.66C18.9967 130.66 11.8568 135.08 12.4568 141.43C12.6068 149.03 18.7368 159.84 27.4568 154.43C33.1368 151.92 25.7268 147.93 35.1868 141.8C41.1268 139.06 32.4968 130.33 38.8768 126.38C45.4268 118.38 39.0667 107.8 47.7767 101.85M43.3668 43.1799C34.4568 43.8899 27.1368 51.9599 26.1168 58.1799C26.4768 65.8999 15.2567 66.2899 16.0567 80.8099C17.4967 94.2099 10.5267 92.4599 8.55675 102.27C7.60675 109.44 11.0368 115.02 5.34676 122.18C1.42676 127.11 7.46675 133.94 2.43675 139.3C0.196753 146.51 6.96675 151.58 13.7668 149.23M67.7668 15.4599C60.5968 15.4599 51.9568 18.1099 49.7668 25.7899C39.2068 26.3199 38.4768 39.2299 28.1268 39.3499C19.6268 43.8799 25.2768 53.7699 16.8968 60.4699C14.6368 62.0799 15.8967 70.9499 17.5267 72.0699M101.527 8.3499C94.0067 -0.520102 80.5267 8.1199 72.5267 9.0699C66.2867 10.2899 56.7568 10.1499 54.4568 18.1799M183.587 144.21C187.007 157.11 199.477 149.13 194.777 136.44C202.087 128.51 189.777 124.44 193.197 117.3C196.627 106.68 185.807 100.44 184.317 91.8799C185.637 81.3799 180.527 71.4099 174.047 70.7899C174.337 60.9099 163.927 55.3599 157.717 54.7899C154.397 40.2199 149.807 42.2399 144.627 39.7899C143.547 36.6499 138.437 29.7899 135.087 27.7299M85.6468 66.9399C89.1568 73.4499 89.9568 81.2599 84.5668 86.8599C93.2868 94.7599 77.8568 101.42 83.7868 109.52C89.3668 117.15 74.4868 125.03 82.7268 132.93C88.6768 138.65 80.0968 150.04 75.7868 152.06C68.8668 155.31 67.8868 147.38 64.3468 147.59C52.9968 144.72 62.2867 133.94 54.5567 126.42C50.0867 122.06 56.9968 117.62 52.4868 111.58C46.4868 103.58 50.0568 99.8599 50.1468 92.6899C44.4668 86.1999 55.5368 71.9399 58.5468 67.6899C49.8968 50.3199 65.1968 52.0599 63.8268 42.6899C64.5868 37.2199 70.8268 28.8799 76.2268 32.6899C73.8268 24.2099 84.8868 15.1899 90.2268 18.8299C91.3268 13.9799 96.3768 3.6499 101.907 9.1799C107.167 0.7999 113.577 5.7799 116.987 4.5799C127.437 -2.1001 128.877 8.9299 142.987 5.6699C150.347 4.5899 149.257 6.3799 153.127 8.6699" stroke="#999999" stroke-width="3" stroke-linecap="round" stroke-linejoin="round"/>
</g>
</g>
</g>
</svg>
