<svg width="224" height="160" viewBox="0 0 224 160" fill="none" xmlns="http://www.w3.org/2000/svg">
<path d="M171.21 113.271C183.31 128.981 180.21 138.08 171.5 147.01C170.44 143.51 169.64 140.371 167.99 136.111C171.28 130.671 168.86 123.11 167.22 118.84L171.21 113.271Z" fill="#FF0000"/>
<path d="M159 68.0003C158.55 68.0003 148.24 54.8103 148.32 54.2103C148.68 51.6703 130.24 35.7403 130.16 35.8103C130.6 35.2503 118.71 19.6303 117.52 19.9103C119.89 15.0003 127.49 8.00031 129 6.60031C128 4.24031 120.28 1.83031 117.39 5.45031C115.02 8.45031 105.56 1.82031 105.56 1.82031L92.0002 4.67031C82.8002 3.36031 74.0002 0.490313 62.0002 11.3403C55.1102 9.59031 48.2202 8.34031 41.3602 11.9603C41.3602 11.9603 30.9402 29.5403 28.5102 23.9603C27.9702 27.5303 21.0802 25.7503 15.5102 33.9603C15.5102 33.9603 7.7802 40.3103 12.0502 46.7303C9.5402 50.9603 4.30019 55.2503 9.59019 64.5203C8.6583 68.5252 7.51335 72.4775 6.1602 76.3603C6.1602 76.3603 -2.33981 88.6803 1.48019 92.5603C5.30019 96.4403 13.1402 100.13 13.1402 100.13C13.1402 100.13 17.8302 94.1303 27.3602 97.1303C36.2802 99.8903 41.8202 92.5103 41.8202 92.5103L48.6602 83.2503C57.1502 86.8303 72.5202 103.8 80.6602 94.6503C91.4202 105.07 97.1202 97.5203 112.93 96.4503C118.31 96.2003 117.74 106.37 136.63 99.6203C147.06 104.51 154.46 114.12 169.08 112.48C175.44 96.8303 170.62 80.1903 170.27 72.4803C170.27 72.4803 173.65 58.3803 172.2 53.9303C170.81 60.2703 171.81 49.6503 163.58 31.3803C161.58 43.3203 159.8 48.7603 159.07 68.0203L159 68.0003ZM202.87 105.81C198.46 96.6503 193.65 101 188.74 108.86C183.74 100.09 178.88 104.99 174 113.18C180.6 124.84 182.43 136.85 171.32 149.83C172.52 156.65 178.89 156.09 187.25 152.7C192.56 155.56 196.62 162.7 206.66 149.6C219.5 156.6 218.66 137.88 214.58 134.66C224.7 129.21 222.46 111.16 209.44 117.72C218.2 101.21 208.79 105.55 202.9 105.85L202.87 105.81Z" fill="white"/>
<path d="M15.3702 35.3007C5.63025 42.0707 6.70025 56.8407 8.97025 66.8707C5.97025 78.0507 -3.21974 92.2207 5.27026 100.731C1.13026 107.621 14.9702 108.951 25.9002 97.8007C43.2102 97.3907 46.5102 88.3107 47.3402 84.6207L41.0003 79.5707C39.1503 82.5707 20.1402 93.7207 13.1502 90.2707C1.32025 84.4307 15.5403 65.8907 21.7703 57.7007C13.9703 53.7007 15.8903 39.2507 32.5203 32.5007C32.3403 11.4407 65.8402 10.9107 62.6802 10.0307C48.0002 6.81073 36.4703 14.8007 28.2803 24.1507C21.3503 28.4207 20.1402 31.1007 15.3702 35.3007ZM57.8903 51.3007C52.1555 51.2887 46.4317 51.8008 40.7902 52.8307L42.8402 58.0607C58.5002 53.9207 73.8403 53.3107 87.2103 62.8407L110.86 64.8407C104.05 60.4007 97.8603 58.5207 88.9603 58.4207C85.1703 54.8907 72.9003 51.3407 57.8903 51.3207V51.3007ZM41.2803 68.4207C38.3903 75.4207 43.0402 77.5107 51.2302 83.3107C61.9802 96.4507 70.7802 99.6407 78.1502 95.4407C90.4702 98.7907 98.3003 101.641 110.89 96.8307C112.69 102.051 122.89 107.501 136.36 104.301C152.55 116.031 161.82 116.301 165.2 116.131C163.35 115.341 168.64 112.461 166.9 111.761C156.43 107.521 146.33 104.521 138.21 97.3307C129.04 96.9807 119.63 97.9607 111.64 91.1407C101.93 93.6607 95.3103 96.9407 82.1303 88.3107C73.0403 91.3107 62.4302 86.3107 54.9802 80.3907C54.2402 82.0807 40.1603 72.7007 41.2803 68.3907V68.4207ZM179.73 108.561C174.46 110.291 175.54 109.901 174.05 113.821C176.94 124.351 184.51 133.931 170.98 147.821C172.59 156.251 179.45 155.691 187.37 153.291C196.93 159.851 202.22 155.411 206.43 149.071C201.43 151.011 196.9 151.411 192.95 145.271C183.95 148.991 182.21 138.711 187.38 133.441C185.95 130.201 180.16 130.251 185.46 118.321C182.26 120.731 176.96 112.261 179.73 108.591V108.561Z" fill="#CCCCCC"/>
<path d="M9.1901 65.3406C1.07011 82.7306 -1.4499 98.7106 5.9701 105.041M4.0001 79.0006C5.8201 76.4106 11.0501 53.1206 41.3901 56.0006L4.0001 79.0006ZM8.3401 50.3806C9.0501 47.2106 19.7901 28.3206 46.5701 33.0706L8.3401 50.3806ZM48.1901 33.5806C49.0601 30.2606 69.8201 20.2106 87.6601 32.2506L48.1901 33.5806ZM152.92 77.1306C170.15 87.8006 168.38 95.9006 171.38 105.321L152.92 77.1306ZM43.2601 60.1206C44.1201 56.7906 69.6601 50.9506 87.4901 62.9906C96.4301 61.9906 106.39 64.0506 115.76 67.6506L43.2601 60.1206ZM135.54 77.8706C139.54 78.4906 145.72 83.8706 148.45 90.6906C163.13 96.6906 164.63 100.891 169.14 112.691L135.54 77.8706ZM169.92 148.061C174.31 161.281 183.34 154.471 187.49 152.061C194.23 164.611 206.17 153.861 206.41 150.451C219.54 160.351 221.41 134.051 213.7 135.021C231.29 122.231 216.79 115.161 208.7 118.461C215.57 116.331 217.83 96.0506 201.97 106.801C198.47 92.7406 189.19 106.171 188.17 108.671C181.49 99.7606 177.38 106.031 174.06 114.451L169.92 148.061ZM163.59 31.0506C176.72 62.1706 170.65 66.3506 169.97 72.8806C175.03 82.7506 175.48 98.7206 170.28 109.881L163.59 31.0506ZM130.28 7.09059C127.22 0.710592 119.28 3.63059 116.67 6.84059C112.57 4.73059 103.51 -1.73941 92.2701 4.99059C90.9801 1.89059 76.1001 -0.299407 65.6601 10.7006C52.0001 7.55059 34.5401 12.9106 28.1401 24.5006C15.2201 27.9606 2.4801 53.3206 8.8601 65.5806L130.28 7.09059ZM112.86 18.3606C115.96 21.2706 114.86 20.2006 122.39 24.1406C125.68 25.8706 127.84 32.4306 128.8 35.6606C130.44 39.2106 134.46 39.2706 137.28 41.6606C139.55 42.7906 147.41 50.3806 148.4 55.8306C157.91 62.1106 156.9 61.8306 159.7 69.9406L112.86 18.3606ZM167.89 112.941C166.89 115.941 141.64 107.231 136.79 99.3706C133.7 101.621 126.06 104.571 110.88 95.8106C105.88 102.901 85.7301 101.541 79.9801 95.3906C70.5201 99.1906 58.1901 95.3306 52.0901 84.3906C35.6101 79.9906 37.6801 66.3206 43.3301 60.3406C41.8001 52.0006 35.7301 43.9306 48.0001 34.5006C46.6401 17.6406 56.8501 16.0206 64.7501 11.5006L167.89 112.941ZM6.6801 106.231C15.3901 107.891 23.3101 99.1506 25.8101 97.5306C43.4201 95.9706 43.9101 88.8106 47.9501 83.3406L6.6801 106.231Z" stroke="#999999" stroke-width="3" stroke-linecap="round" stroke-linejoin="round"/>
<path d="M171.94 113.94C180.65 123.07 181.78 139.35 172.58 147.5" stroke="#800000" stroke-width="3" stroke-linecap="round" stroke-linejoin="round"/>
</svg>
