<svg width="184" height="139" viewBox="0 0 184 139" fill="none" xmlns="http://www.w3.org/2000/svg">
<path d="M82.5601 101.75C84.6101 102.75 77.1901 129.12 66.4401 134.6C64.4401 135.6 55.2901 137.28 54.0401 134.41C58.3201 132.46 58.6101 115.57 54.6101 117.67C53.5101 122.59 44.1901 129.67 41.8801 126.79C40.8801 125.08 44.3101 117.06 44.1901 115.01C42.0801 109.9 36.6201 102.59 31.8601 100.01C24.3501 106.57 13.2201 107.15 8.70006 101.35C19.1601 94.9201 21.1901 103.94 16.4201 67.5001C11.2701 66.7201 3.72006 66.5001 2.81006 59.0901C21.0901 61.3801 20.2101 45.1901 26.5401 30.5001C33.0401 22.6101 44.7601 24.7901 42.9201 25.0501C48.3001 26.7501 48.0501 30.3201 48.9201 16.2501C53.3101 13.9201 65.2101 12.6801 68.1901 10.8501C78.3401 -0.149888 83.8301 4.48011 98.6101 6.02011C114.55 -1.89989 122.67 6.34011 132.2 13.7301C130.97 13.3501 119.2 24.4201 119.9 27.9601C131.38 35.8201 124.34 47.0301 157.9 68.2201C154.9 69.3701 162.14 33.3501 161.9 36.2201C164.9 39.9001 168.59 43.4401 169.59 47.8701C171.39 56.7201 166.39 64.9301 170.76 73.5701C172.19 76.4001 179.01 75.4501 179.46 77.7501C178.07 85.0701 170.32 81.7501 166.62 80.3201C165.77 93.9801 182.83 87.6201 180.81 92.4601C175.57 99.8601 166.59 98.4601 159.16 97.0901C156.5 96.5301 153.16 92.2401 150.16 89.4101C145.23 93.4901 138.37 92.9501 132.39 89.4101C127.209 91.8262 121.304 92.1836 115.87 90.4101C107.73 103.18 95.9701 108.41 82.5601 101.68V101.75Z" fill="white"/>
<path d="M132.23 45.7302C130.79 42.0502 123.73 29.9302 122.79 30.5602L119.79 28.6202L115.79 28.1902C123.55 33.6302 121.34 41.5602 126.73 48.5702C137.35 54.7602 141.9 57.5702 144.99 67.6702C149.99 66.8402 153.81 68.8102 157.99 70.0202C157.99 70.0202 160.1 67.5002 154.24 64.9102C138.6 59.7702 148.4 48.1302 132.23 45.7302ZM53.8 16.1602C53.8 16.1602 46.04 20.8602 44.47 23.3702C42.9 25.8802 35.94 27.6702 35.94 27.6702C35.94 27.6702 43.94 26.9502 46.08 31.3702C51.47 43.6502 39.51 43.8102 41.97 55.2702L49 45.3402L45.19 52.0602C51.55 45.2902 58.19 48.5002 59 45.9302C60.2 41.9302 51.47 47.7702 56.12 30.8802L51.8 40.3902C50.8 35.5602 52.64 30.9902 59.24 25.7102C56.34 26.8902 52.5 28.2902 49.62 24.6402C46.74 20.9902 53.77 16.1602 53.77 16.1602H53.8ZM23.26 41.0002C19.44 57.9102 2.59 61.0002 2.53 59.2402C2.53 59.2402 1.36 62.5902 5.86 63.8302C10.36 65.0702 17.25 67.8302 17.25 67.8302C15.82 74.9602 23.08 93.9302 17.48 97.3002C14.48 98.8302 8.25 102.12 8.25 102.12C15.6 108.2 22.41 104.96 31.84 100.12L31.73 97.4602C32.2668 100.481 33.7028 103.269 35.85 105.46C42.42 111.71 46.4 115.37 44.13 120.13C41.86 124.89 39.54 128.79 42.37 128.4C45.2 128.01 55.06 118.68 55.06 118.68C55.06 118.68 57.06 131.19 58.06 125.89C59.24 119.5 55.19 97.5802 54 91.6302C52.721 85.2577 50.3204 79.1631 46.91 73.6302C43.69 68.7402 41.48 60.6302 41.48 60.6302C41.48 60.6302 45.82 78.8802 44.38 85.5002C42.94 92.1202 38.69 98.1101 35.27 91.0901C31.85 84.0701 31.55 86.9702 31.55 86.9702C31.55 86.9702 31.46 87.7302 31.38 88.3802V87.4501C30.75 86.7601 28.38 89.3602 24.88 86.6102C20.44 83.1002 22.88 70.0802 24.45 65.3102C26.02 60.5402 30.2 54.7802 30.2 54.7802C31.48 51.9102 29.46 50.0402 23.39 55.5702C21.1 54.7502 20.48 51.6802 23.26 41.0002ZM116.56 51.4302C118.04 64.3602 118.72 84.3502 133.01 77.5402C129.15 74.4802 124.59 74.6902 124.23 67.2202C123.8 58.2102 117 51.1602 116.56 51.4202V51.4302ZM106.4 87.5402C109.094 86.9564 111.641 85.8339 113.89 84.2402C105.81 82.3502 101.89 76.1102 101.6 71.0802C92.74 73.1502 100 87.7202 106.4 87.5402ZM113.89 84.2402C114.388 84.5331 114.902 84.7969 115.43 85.0302L114.98 83.4202C114.98 83.4202 114.57 83.7702 113.89 84.2402V84.2402ZM115.43 85.0302L116.95 90.4802C116.95 90.4802 133.57 93.6602 133.86 82.0002C126.2 86.8402 120.09 87.0602 115.43 85.0002V85.0302ZM136.56 80.4501C137.09 84.3801 136.11 83.4502 133.56 88.1402L126.67 91.6702L126.6 94.9702C136.06 96.8102 145.32 95.2402 149.69 92.9002C149.69 92.9002 152.98 97.9702 157.33 99.1402C160.147 99.8314 163.071 99.9672 165.94 99.5401C165.48 99.3001 165.01 99.0602 164.56 98.8102C171.68 100.48 178.02 97.8101 180.1 95.1501C168.99 96.8601 160.64 93.8602 154.1 82.9702L151.33 88.6502L150.73 88.0502H148.2C150.72 86.7802 151.74 85.3402 149.12 84.9902C143.65 86.4702 138.74 84.9101 136.56 80.4501V80.4501ZM80.72 87.6502C78.55 87.6502 79.17 94.0002 79.11 95.3502C78.87 99.9402 73.28 125.54 73.28 125.54L83.45 102.31C83.45 102.31 104.96 107.37 111.92 95.4902C111.92 95.4902 104.86 99.3202 97.34 99.1602C87.43 98.9502 80.34 88.3302 81.19 87.7302C81.0391 87.6768 80.8801 87.6498 80.72 87.6502V87.6502Z" fill="#CCCCCC"/>
<path d="M138.07 90.1398C142.15 92.8198 153.6 90.5598 153.67 78.8498C153.67 76.5598 141.32 89.9298 140.42 65.3698M159.49 70.9998C155.36 63.2098 148.65 68.5198 145.78 59.3298C143.39 51.6698 136.34 50.1398 130.38 46.5398C129.61 34.4398 119.71 28.6898 115.46 27.3998L159.49 70.9998ZM166.78 80.3198C167.71 83.1998 179.45 86.1198 179.34 77.0298C179.34 74.3598 165.34 82.5498 169.08 57.2298C171.69 44.4498 166.77 41.3098 160.78 34.1098L166.78 80.3198ZM131.78 12.7598C120.38 3.1998 111.29 -2.49019 98.25 6.51981C88.39 7.07981 81.96 -2.41019 67.59 11.3298C55.69 14.0598 49.2 13.7998 43.53 25.7598C35.61 26.2798 23.97 28.5498 22.01 40.2698C16.95 70.5398 -1.07003 53.2698 2.00997 60.3998C5.08997 67.5298 17.19 68.8498 18.09 66.0998L131.78 12.7598ZM166.72 79.8198C168.91 98.2998 182.46 87.8198 182.03 91.0398C180.55 102.27 162.93 100.59 157.38 94.2498L166.72 79.8198ZM83 101C94.25 111 118.86 99.9998 115.74 83.5798C115 79.9998 100.83 99.9998 97.76 74.9998L83 101ZM117.11 90.4798C124.53 94.1098 139.18 87.7098 134.93 76.8698C133.65 73.6298 120.8 90.3098 119.35 64.3398C118.74 53.4298 114.35 49.5198 108.61 47.5398L117.11 90.4798ZM52.17 97.4098C53.17 88.7298 49.57 79.1398 45.34 70.9098C37.98 56.5998 45.22 46.9098 51.18 43.3298C52 31.1898 56.44 28.4998 61 25.9998L52.17 97.4098ZM32.12 97.9998C31.61 105.17 16.03 109.45 8.62998 102.77C2.91998 97.6198 26.05 107.95 17.22 77.5898C15.15 65.2298 21.72 59.5898 27.22 54.7998L32.12 97.9998ZM55.36 110.45C56.36 118.45 48.51 129.91 41.25 127.91C36.95 126.73 53.59 117.5 36.92 106.81C31.29 102.14 31.26 92.3098 31.64 88.4398L55.36 110.45ZM82.75 101.09C80.7 112.66 69.54 143.09 55.28 135.93C49.59 133.07 62.94 130.18 55.13 118.87L82.75 101.09Z" stroke="#999999" stroke-width="3" stroke-linecap="round" stroke-linejoin="round"/>
</svg>
