<svg xmlns="http://www.w3.org/2000/svg" viewBox="0 0 512 512"><defs><style>.cls-1,.cls-2{fill:#fff;}.cls-1{stroke:#fff;stroke-miterlimit:10;stroke-width:5px;}.cls-3{fill:#ccc;}.cls-4{fill:none;stroke:#999;stroke-linecap:round;stroke-linejoin:round;stroke-width:3px;}</style></defs><g id="Rectangle"><rect class="cls-1" x="2.5" y="2.5" width="507" height="507"/></g><g id="Hair"><g id="layer1"><g id="g45110"><path id="path41555" class="cls-2" d="M238.56,134.75c2.05,1-5.37,27.37-16.12,32.85-2,1-11.15,2.68-12.4-.19,4.28-1.95,4.57-18.84.57-16.74-1.1,4.92-10.42,12-12.73,9.12-1-1.71,2.43-9.73,2.31-11.78-2.11-5.11-7.57-12.42-12.33-15-7.51,6.56-18.64,7.14-23.16,1.34,10.46-6.43,12.49,2.59,7.72-33.85-5.15-.78-12.7-1-13.61-8.41,18.28,2.29,17.4-13.9,23.73-28.59,6.5-7.89,18.22-5.71,16.38-5.45,5.38,1.7,5.13,5.27,6-8.8,4.39-2.33,16.29-3.57,19.27-5.4,10.15-11,15.64-6.37,30.42-4.83,15.94-7.92,24.06.32,33.59,7.71-1.23-.38-13,10.69-12.3,14.23,11.48,7.86,4.44,19.07,38,40.26-3,1.15,4.24-34.87,4-32,3,3.68,6.69,7.22,7.69,11.65,1.8,8.85-3.2,17.06,1.17,25.7,1.43,2.83,8.25,1.88,8.7,4.18-1.39,7.32-9.14,4-12.84,2.57-.85,13.66,16.21,7.3,14.19,12.14-5.24,7.4-14.22,6-21.65,4.63-2.66-.56-6-4.85-9-7.68-4.93,4.08-11.79,3.54-17.77,0a22.54,22.54,0,0,1-16.52,1c-8.14,12.77-19.9,18-33.31,11.27Z"/><path id="path318145" class="cls-3" d="M288.23,78.73c-1.44-3.68-8.5-15.8-9.44-15.17l-3-1.94-4-.43c7.76,5.44,5.55,13.37,10.94,20.38,10.62,6.19,15.17,9,18.26,19.1,5-.83,8.82,1.14,13,2.35,0,0,2.11-2.52-3.75-5.11C294.6,92.77,304.4,81.13,288.23,78.73ZM209.8,49.16s-7.76,4.7-9.33,7.21-8.53,4.3-8.53,4.3,8-.72,10.14,3.7c5.39,12.28-6.57,12.44-4.11,23.9L205,78.34l-3.81,6.72c6.36-6.77,13-3.56,13.81-6.13,1.2-4-7.53,1.84-2.88-15.05l-4.32,9.51c-1-4.83.84-9.4,7.44-14.68-2.9,1.18-6.74,2.58-9.62-1.07s4.15-8.48,4.15-8.48ZM179.26,74c-3.82,16.91-20.67,20-20.73,18.24,0,0-1.17,3.35,3.33,4.59s11.39,4,11.39,4c-1.43,7.13,5.83,26.1.23,29.47-3,1.53-9.23,4.82-9.23,4.82,7.35,6.08,14.16,2.84,23.59-2l-.11-2.66a15.24,15.24,0,0,0,4.12,8c6.57,6.25,10.55,9.91,8.28,14.67s-4.59,8.66-1.76,8.27,12.69-9.72,12.69-9.72,2,12.51,3,7.21c1.18-6.39-2.87-28.31-4.06-34.26a54.89,54.89,0,0,0-7.09-18c-3.22-4.89-5.43-13-5.43-13s4.34,18.25,2.9,24.87-5.69,12.61-9.11,5.59-3.72-4.12-3.72-4.12-.09.76-.17,1.41l0-.93c-.63-.69-3,1.91-6.5-.84-4.44-3.51-2-16.53-.43-21.3s5.75-10.53,5.75-10.53c1.28-2.87-.74-4.74-6.81.79C177.1,87.75,176.48,84.68,179.26,74Zm93.3,10.43c1.48,12.93,2.16,32.92,16.45,26.11-3.86-3.06-8.42-2.85-8.78-10.32C279.8,91.21,273,84.16,272.56,84.42ZM262.4,120.54a20.44,20.44,0,0,0,7.49-3.3c-8.08-1.89-12-8.13-12.29-13.16C248.74,106.15,256,120.72,262.4,120.54Zm7.49-3.3a14.9,14.9,0,0,0,1.54.79l-.45-1.61S270.57,116.77,269.89,117.24Zm1.54.79,1.52,5.45s16.62,3.18,16.91-8.48C282.2,119.84,276.09,120.06,271.43,118Zm21.13-4.58c.53,3.93-.45,3-3,7.69l-6.89,3.53-.07,3.3c9.46,1.84,18.72.27,23.09-2.07,0,0,3.29,5.07,7.64,6.24a22.33,22.33,0,0,0,8.61.4c-.46-.24-.93-.48-1.38-.73,7.12,1.67,13.46-1,15.54-3.66-11.11,1.71-19.46-1.29-26-12.18l-2.77,5.68-.6-.6H304.2c2.52-1.27,3.54-2.71.92-3.06C299.65,119.47,294.74,117.91,292.56,113.45Zm-55.84,7.2c-2.17,0-1.55,6.35-1.61,7.7-.24,4.59-5.83,30.19-5.83,30.19l10.17-23.23s21.51,5.06,28.47-6.82c0,0-7.06,3.83-14.58,3.67-9.91-.21-17-10.83-16.15-11.43A1.4,1.4,0,0,0,236.72,120.65Z"/><path id="path296035" class="cls-4" d="M315.49,104c-4.13-7.79-10.84-2.48-13.71-11.67-2.39-7.66-9.44-9.19-15.4-12.79-.77-12.1-10.67-17.85-14.92-19.14m51.32,52.92c.93,2.88,12.67,5.8,12.56-3.29,0-2.67-14,5.52-10.26-19.8,2.61-12.78-2.31-15.92-8.3-23.12m-29-21.35c-11.4-9.56-20.49-15.25-33.53-6.24-9.86.56-16.29-8.93-30.66,4.81-11.9,2.73-18.39,2.47-24.06,14.43-7.92.52-19.56,2.79-21.52,14.51-5.06,30.27-23.08,13-20,20.13s15.18,8.45,16.08,5.7m148.63,13.72c2.19,18.48,15.74,8,15.31,11.22-1.48,11.23-19.1,9.55-24.65,3.21M239,134c11.25,10,35.86-1,32.74-17.42C271,113,256.83,133,253.76,108m19.35,15.48c7.42,3.63,22.07-2.77,17.82-13.61-1.28-3.24-14.13,13.44-15.58-12.53-.61-10.91-5-14.82-10.74-16.8m-56.44,49.87c1-8.68-2.6-18.27-6.83-26.5-7.36-14.31-.12-24,5.84-27.58C208,64.19,212.44,61.5,217,59m-28.88,72c-.51,7.17-16.09,11.45-23.49,4.77-5.71-5.15,17.42,5.18,8.59-25.18-2.07-12.36,4.5-18,10-22.79m28.14,55.65c1,8-6.85,19.46-14.11,17.46-4.3-1.18,12.34-10.41-4.33-21.1-5.63-4.67-5.66-14.5-5.28-18.37m51.11,12.65c-2.05,11.57-13.21,42-27.47,34.84-5.69-2.86,7.66-5.75-.15-17.06m82.94-28.73c4.08,2.68,15.53.42,15.6-11.29,0-2.29-12.35,11.08-13.25-13.48"/></g></g></g></svg>