<?xml version="1.0" encoding="UTF-8" standalone="no"?>
<svg
   inkscape:version="1.1.1 (3bf5ae0, 2021-09-20)"
   id="svg8"
   version="1.1"
   viewBox="0 0 145.52083 145.52084"
   height="550"
   width="550"
   xmlns:inkscape="http://www.inkscape.org/namespaces/inkscape"
   xmlns:sodipodi="http://sodipodi.sourceforge.net/DTD/sodipodi-0.dtd"
   xmlns="http://www.w3.org/2000/svg"
   xmlns:svg="http://www.w3.org/2000/svg"
   xmlns:rdf="http://www.w3.org/1999/02/22-rdf-syntax-ns#"
   xmlns:cc="http://creativecommons.org/ns#"
   xmlns:dc="http://purl.org/dc/elements/1.1/">
  <defs
     id="defs2" />
  <sodipodi:namedview
     borderlayer="true"
     units="px"
     showgrid="false"
     inkscape:document-rotation="0"
     inkscape:current-layer="layer1"
     inkscape:document-units="px"
     inkscape:cy="277.85714"
     inkscape:cx="242.14286"
     inkscape:zoom="0.7"
     inkscape:pageshadow="2"
     inkscape:pageopacity="0"
     borderopacity="1.0"
     bordercolor="#666666"
     pagecolor="#585858"
     id="base"
     inkscape:pagecheckerboard="1"
     inkscape:snap-global="false"
     fit-margin-top="0"
     fit-margin-left="0"
     fit-margin-right="0"
     fit-margin-bottom="0"
     inkscape:window-width="1280"
     inkscape:window-height="967"
     inkscape:window-x="0"
     inkscape:window-y="1"
     inkscape:window-maximized="1" />
  <metadata
     id="metadata5">
    <rdf:RDF>
      <cc:Work
         rdf:about="">
        <dc:format>image/svg+xml</dc:format>
        <dc:type
           rdf:resource="http://purl.org/dc/dcmitype/StillImage" />
      </cc:Work>
    </rdf:RDF>
  </metadata>
  <g
     id="layer1"
     inkscape:groupmode="layer"
     inkscape:label="Layer 1"
     transform="translate(-65.996687,-92.135335)">
    <g
       id="g91633"
       inkscape:label="hair8"
       style="display:inline"
       transform="translate(14.590257,87.857439)">
      <path
         style="opacity:1;vector-effect:none;fill:#97acff;fill-opacity:1;stroke:none;stroke-width:0.132292;stroke-linecap:butt;stroke-linejoin:miter;stroke-miterlimit:4;stroke-dasharray:none;stroke-dashoffset:0;stroke-opacity:1"
         d="m 179.33191,112.28881 c 0,0 1.3896,-29.972792 0.76846,-30.971919 -0.62115,-0.999125 -5.51991,-10.815381 -5.51991,-10.815381 -1.85677,2.661862 -4.08373,10.31819 -2.84878,11.831162 3.60905,4.421571 1.57152,7.638601 -1.45988,4.179246 L 149.74976,63.09269 c -2.0313,-3.732214 -0.79355,-3.786424 2.41347,-1.625005 l 4.7616,-5.284917 C 137.42677,53.942292 123.77186,53.608469 106.04327,59.143532 92.555888,63.135259 98.039801,65.881773 93.033735,70.0287 l -3.787206,18.857951 c 0,0 -14.143426,2.264114 -17.839917,7.401918 -3.696491,5.137801 -3.832559,6.860091 -0.657659,8.359821 3.174899,1.49972 18.066697,-0.96758 18.066697,-0.96758 0,0 -0.355283,-4.41212 0.967592,-7.276132 1.322871,-2.864008 2.358498,-3.280063 2.358498,-3.280063 0,0 16.71358,-1.819026 28.22638,2.854333 11.51279,4.673362 17.72652,6.424672 21.40034,6.521432 3.67381,0.0968 21.04506,-3.19299 21.04506,-3.19299 z"
         id="path73850"
         sodipodi:nodetypes="cscssccccccsscscsscc" />
      <path
         id="path68952"
         style="display:inline;opacity:1;vector-effect:none;fill:#fff6f1;fill-opacity:1;stroke:none;stroke-width:0.132292;stroke-linecap:butt;stroke-linejoin:miter;stroke-miterlimit:4;stroke-dasharray:none;stroke-dashoffset:0;stroke-opacity:1"
         d="m 171.28959,40.86495 c -0.58547,-0.01723 -1.31822,0.09152 -2.23759,0.368969 -1.87118,0.652624 -3.63359,6.950919 -5.26221,9.016503 -1.62862,2.065581 -13.2364,12.811622 -13.2364,12.811622 -1.35636,4.428961 19.62755,23.583371 20.49384,23.520011 0.86629,-0.06336 3.07859,-20.110998 4.70721,-25.97826 1.62862,-5.867265 -1.23225,-12.336402 -1.88568,-15.795934 -0.26514,-1.419892 -0.0421,-3.868322 -2.57917,-3.942911 z m -75.226412,5.992915 c -1.711138,-0.01288 -2.486081,3.339878 -2.690276,4.333068 -0.297008,1.444644 -0.534971,5.493504 -1.02009,8.002612 -0.485122,2.50911 0.856795,8.91522 0.856795,8.91522 0,0 2.073664,-1.900881 4.024042,-4.777486 1.950379,-2.876606 7.945251,-3.877802 7.945251,-3.877802 0,0 -2.33169,-3.763505 -6.168097,-9.953914 -1.198878,-1.934503 -2.169835,-2.635842 -2.947625,-2.641698 z" />
      <path
         id="path59701"
         style="display:inline;opacity:1;vector-effect:none;fill:#cccccc;fill-opacity:1;stroke:none;stroke-width:0.132292;stroke-linecap:butt;stroke-linejoin:miter;stroke-miterlimit:4;stroke-dasharray:none;stroke-dashoffset:0;stroke-opacity:1"
         d="m 101.88904,57.411892 c -1.04944,0.53857 -9.694038,5.318961 -9.694038,5.318961 l 1.177533,4.844693 c 0,0 2.401112,-2.620436 6.237518,-4.857097 3.836397,-2.23666 5.177977,-3.060276 5.177977,-3.060276 z m 45.61576,1.320239 c -0.82432,0.05788 0.84731,3.700079 1.19166,4.413684 0.41582,0.861711 16.76184,19.743766 20.84575,23.272996 4.08392,3.529232 3.72743,0.994772 3.72743,0.994772 l -2.33681,-5.601208 c 0,0 -1.57383,-1.355865 -2.94504,-4.61264 -1.3712,-3.256777 0.51986,-4.486029 0.51986,-4.486031 0,0 -1.71298,0.221935 -2.2872,-4.010607 -0.49491,-3.647874 0.0455,-5.695752 0.20464,-6.194454 l -3.39772,10.185942 c 0,0 -2.29163,-1.793087 -4.47467,-4.295862 -2.18304,-2.502776 -4.38582,-7.356462 -3.97495,-8.845455 l -2.18798,1.869136 c 0,0 -1.56934,-0.138936 -4.01474,-2.204517 -0.4203,-0.35502 -0.69915,-0.497771 -0.87023,-0.485756 z m -54.294875,34.33537 c 0,0 -8.806601,7.577649 -1.757514,12.317069 7.049088,4.73943 10.137879,-1.43195 10.137879,-1.43195 0,0 8.16799,6.27314 14.22704,3.28249 6.05905,-2.99066 7.49463,-3.37086 7.49463,-3.37086 l 19.02365,0.11369 c 0,0 0.81659,0.48822 2.77192,0.76068 1.95533,0.27246 6.45039,1.82479 9.65316,0.43718 3.20278,-1.38761 8.83098,-3.06028 8.83098,-3.06028 l 11.21224,7.25486 -10.41539,-9.852626 c 0,0 -19.72134,4.124636 -21.0876,3.890196 -1.36625,-0.23443 -17.69715,-4.916744 -21.90977,-7.330813 -4.21262,-2.414072 -28.181223,-3.009636 -28.181225,-3.009636 z"
         sodipodi:nodetypes="cccsccsssccscsccsccsscscsccsscccssc" />
      <path
         style="font-variation-settings:normal;opacity:1;fill:#ffd31a;fill-opacity:1;stroke:#ea9c00;stroke-width:1.31236;stroke-linecap:round;stroke-linejoin:round;stroke-miterlimit:4;stroke-dasharray:none;stroke-dashoffset:0;stroke-opacity:1;paint-order:normal;stop-color:#000000;stop-opacity:1"
         d="m 125.21714,68.608213 c 0,6.782485 -5.40637,13.56026 -12.07548,15.138581 -6.66911,1.578321 -12.07548,-2.640483 -12.07548,-9.422964 0,-6.782479 5.40638,-13.560247 12.07548,-15.138572 6.66911,-1.578327 12.07548,2.640474 12.07548,9.422955 z"
         id="path178014"
         sodipodi:nodetypes="sssss" />
      <path
         d="m 104.31137,66.002502 4.03283,-0.43651 -0.49748,7.81044 3.47922,-7.928391 4.61501,-0.704299 0.17779,7.73734 3.40487,-8.12513 4.01408,-0.43447 -6.52189,14.5901 -4.16415,0.45072 -0.21138,-8.71866 -4.59988,9.23943 -4.16415,0.45071 z"
         style="font-size:13.4469px;line-height:1.25;font-family:'Arial Black';-inkscape-font-specification:'Arial Black, ';letter-spacing:0px;word-spacing:0px;fill:#ffe98f;fill-opacity:1;stroke:#ea9c00;stroke-width:0.79375;stroke-linecap:round;stroke-linejoin:round;stroke-miterlimit:4;stroke-dasharray:none;stroke-opacity:1"
         id="path234532"
         sodipodi:nodetypes="cccccccccccccc" />
      <path
         id="path181521"
         style="opacity:1;vector-effect:none;fill:#000000;fill-opacity:0.192655;stroke:none;stroke-width:0.500001;stroke-linecap:butt;stroke-linejoin:miter;stroke-miterlimit:4;stroke-dasharray:none;stroke-dashoffset:0;stroke-opacity:0.187855"
         d="m 433.375,173.53125 c 0,0 -33.95641,9.3145 -55.28516,20.49805 -21.32874,11.18352 -21.08582,18.94317 -28.77539,32.52148 -7.68958,13.5783 -13.2832,64.75391 -13.2832,64.75391 l 57.33777,-9.45948 c -1.28591,-44.11723 6.82018,-77.62313 40.00598,-108.31396 z m -83.39453,134.23633 c 0,0 -68.06179,11.60203 -80.5957,17.88281 -12.63466,6.33127 -19.88104,21.94838 -0.34375,26.99219 15.0225,3.87825 64.95703,-5.14844 64.95703,-5.14844 0,0 -1.90472,-13.20788 1.58789,-23.0293 3.49259,-9.82142 14.39453,-16.69726 14.39453,-16.69726 z"
         transform="matrix(0.26458333,0,0,0.26458333,0.53904794,11.120167)"
         sodipodi:nodetypes="cssccccsscsc" />
      <path
         id="path68102"
         style="font-variation-settings:normal;opacity:1;vector-effect:none;fill:none;fill-opacity:1;stroke:#5b6799;stroke-width:2.11667;stroke-linecap:round;stroke-linejoin:round;stroke-miterlimit:4;stroke-dasharray:none;stroke-dashoffset:0;stroke-opacity:1;-inkscape-stroke:none;paint-order:stroke fill markers;stop-color:#000000;stop-opacity:1"
         d="m 151.81288,61.239324 c 0,0 -4.40142,-4.30521 -3.94674,-0.37385 0.3767,3.25711 20.91793,25.32847 24.81792,27.41932 2.9552,0.2698 1.17486,-2.54596 -0.87258,-6.00685 m -82.54454,6.10156 c 0,0 0.4408,-16.9238 7.30101,-23.56598 11.09418,-10.741588 46.81876,-11.41017 59.83107,-7.76571 m 17.39789,13.44576 c 3.31937,4.23504 6.34611,10.26408 5.88931,15.25637 l -0.97024,28.183086 M 72.56054,99.958613 c 8.31502,-10.399919 39.08773,-8.076349 50.05713,-3.701799 10.07261,4.016896 18.62916,8.210326 25.16535,5.859476 l 16.4112,-2.999466 m 14.35167,14.707556 c -7.64645,-13.07296 -31.38092,-29.586276 -63.61549,-28.349696 -10.58804,1.24817 -32.87321,2.97616 -42.38394,9.65588 -11.38411,11.583976 4.40326,11.094696 15.23855,8.611856"
         sodipodi:nodetypes="cscccscccccscccccc" />
      <path
         id="path255794"
         style="font-variation-settings:normal;opacity:1;vector-effect:none;fill:none;fill-opacity:1;stroke:#999999;stroke-width:2.11667;stroke-linecap:round;stroke-linejoin:round;stroke-miterlimit:4;stroke-dasharray:none;stroke-dashoffset:0;stroke-opacity:1;-inkscape-stroke:none;stop-color:#000000;stop-opacity:1"
         d="m 92.001462,94.681775 c -1.405602,0.795934 -4.586436,5.033084 -2.159176,8.904005 3.05312,4.45034 9.914454,3.04702 12.277744,-0.36028 5.21008,6.71019 15.7208,3.47164 19.6788,0.81542 M 92.904652,66.52256 c -1.674807,-6.434615 0.299455,-9.516793 -0.007,-14.120436 -0.34716,-5.214406 4.658714,-7.711183 7.309848,-1.3691 1.0222,2.445317 1.13358,4.346409 3.82599,6.990096 m 65.35236,10.726094 c 0.0166,3.10131 -1.88951,10.498492 -3.36409,10.378842 -0.83322,-0.0676 0.72621,0.351583 -1.02546,-0.821657 -2.37891,-1.59336 -0.38231,-13.004885 1.39983,-17.394495 2.06846,-5.09484 4.12738,-9.86921 4.12738,-9.86921 m 0.726,33.593812 c 0,0 1.72371,-13.842612 4.23668,-22.902162 2.3103,-8.32886 -1.33757,-11.87797 -1.03562,-16.46806 0.34302,-5.21468 -5.45758,-7.71624 -7.95239,-1.31105 -3.05028,7.83132 -15.22104,18.90261 -15.22104,18.90261"
         sodipodi:nodetypes="cccccssccsssccsssc" />
    </g>
  </g>
</svg>
