<?xml version="1.0" encoding="UTF-8" standalone="no"?>
<svg
   inkscape:version="1.1.1 (3bf5ae0, 2021-09-20)"
   id="svg8"
   version="1.1"
   viewBox="0 0 145.52083 145.52084"
   height="550"
   width="550"
   xmlns:inkscape="http://www.inkscape.org/namespaces/inkscape"
   xmlns:sodipodi="http://sodipodi.sourceforge.net/DTD/sodipodi-0.dtd"
   xmlns="http://www.w3.org/2000/svg"
   xmlns:svg="http://www.w3.org/2000/svg"
   xmlns:rdf="http://www.w3.org/1999/02/22-rdf-syntax-ns#"
   xmlns:cc="http://creativecommons.org/ns#"
   xmlns:dc="http://purl.org/dc/elements/1.1/">
  <defs
     id="defs2" />
  <sodipodi:namedview
     borderlayer="true"
     units="px"
     showgrid="false"
     inkscape:document-rotation="0"
     inkscape:current-layer="layer1"
     inkscape:document-units="px"
     inkscape:cy="277.85714"
     inkscape:cx="242.14286"
     inkscape:zoom="0.7"
     inkscape:pageshadow="2"
     inkscape:pageopacity="0"
     borderopacity="1.0"
     bordercolor="#666666"
     pagecolor="#585858"
     id="base"
     inkscape:pagecheckerboard="1"
     inkscape:snap-global="false"
     fit-margin-top="0"
     fit-margin-left="0"
     fit-margin-right="0"
     fit-margin-bottom="0"
     inkscape:window-width="1280"
     inkscape:window-height="967"
     inkscape:window-x="0"
     inkscape:window-y="1"
     inkscape:window-maximized="1" />
  <metadata
     id="metadata5">
    <rdf:RDF>
      <cc:Work
         rdf:about="">
        <dc:format>image/svg+xml</dc:format>
        <dc:type
           rdf:resource="http://purl.org/dc/dcmitype/StillImage" />
      </cc:Work>
    </rdf:RDF>
  </metadata>
  <g
     id="layer1"
     inkscape:groupmode="layer"
     inkscape:label="Layer 1"
     transform="translate(-65.996687,-92.135335)">
    <g
       id="g53230"
       inkscape:label="hair5"
       style="display:inline"
       transform="translate(7.5537855,104.08952)">
      <path
         style="fill:#ffffff;fill-opacity:1;stroke:none;stroke-width:0.264583px;stroke-linecap:butt;stroke-linejoin:miter;stroke-opacity:1"
         d="m 92.172093,95.53078 c -7.231709,1.236705 -10.980301,4.80344 -3.602345,-14.426083 -16.631652,3.089629 -4.002782,-16.345975 -2.656747,-18.819643 -20.21041,-3.848832 -0.0939,-15.990372 4.701724,-22.81013 -16.221861,-2.44976 -2.680865,-10.217737 16.421685,-14.679251 -14.364807,-7.686001 6.37626,-9.475884 16.71838,-6.47703 8.54605,-8.048979 15.52094,-3.233916 18.73378,-0.87648 8.33552,-8.616113 18.04369,2.615517 16.1117,2.469562 6.53886,-1.548187 20.53303,1.515009 18.46262,10.008093 7.83414,1.550956 7.17176,9.781544 5.58632,15.86816 4.02061,8.216346 1.20684,11.795533 -1.26241,18.296762 2.54918,7.578527 -0.57482,12.292533 -2.74625,15.299366 -0.0818,3.057972 -0.0808,11.241142 -2.03121,12.402177 -5.55084,2.368848 -15.77987,0.190369 -20.95977,-3.065874 -6.2335,1.412517 -4.35579,1.834044 -11.19972,-0.628544 -6.05946,1.148754 -4.26356,1.387829 -10.08761,-0.505992 -2.84931,10.823696 -9.68072,4.644928 -10.45037,5.343889 -1.73399,6.589601 -8.28436,12.839798 -11.49316,4.305607 C 103.26772,113.3332 91.107237,109.41239 92.172093,95.53078 Z"
         id="path46286"
         sodipodi:nodetypes="ccccccccccccccccccc" />
      <path
         id="path373409"
         style="opacity:1;vector-effect:none;fill:#cccccc;fill-opacity:1;stroke:none;stroke-width:0.500001;stroke-linecap:butt;stroke-linejoin:miter;stroke-miterlimit:4;stroke-dasharray:none;stroke-dashoffset:0;stroke-opacity:1"
         d="m 416.39844,84.355469 c -24.46829,0.274755 -42.97755,5.989364 -21.71485,26.664061 -54.96917,21.89962 -122.63807,44.7536 -52.89257,57.28125 -46.36802,40.89169 -82.74024,85.5889 -16.59571,81.92578 -14.07646,23.1307 -52.35691,98.40141 10.62696,72.84766 -25.28336,56.34319 -23.90392,78.00132 14.93164,50.93359 -5.49494,80.55919 45.28008,58.30387 72.42382,13.5293 18.92136,28.91917 40.48522,-5.71917 40.03907,-20.13477 0.25176,8.32693 -30.40885,25.87641 -36.91407,2.53907 -44.55697,37.59744 -74.15375,34.95032 -68.62695,-3.23243 3.79457,-26.21539 -42.73565,27.45377 -8.66211,-48.63867 12.71388,-28.39242 -60.70396,10.06182 -12.04883,-66.9082 18.87607,-29.86099 -58.36703,-3.22831 17.625,-78.11914 13.86418,-13.66327 -58.0972,-26.48038 58.85743,-53.95313 18.01991,-4.2329 -53.68843,-26.187317 54.94921,-29.982418 -10.33231,-1.888948 -32.96715,-4.965652 -51.99804,-4.751953 z M 642.81118,165.5252 c -4.34987,-18.04719 -26.95533,51.54733 -36.60191,54.76172 -16.15887,5.38439 -16.97254,-27.82293 -6.65388,-28.06185 0,0 -9.82002,18.0465 -15.54786,5.24627 -7.74574,-17.30968 -14.337,-21.44404 -14.34933,-21.41079 0,0 8.10168,29.16966 0.76758,35.875 -7.3341,6.70534 17.28676,14.22335 17.32422,26.84375 0.0378,12.62039 1.68359,14.27343 1.68359,14.27343 0,0 23.08807,7.44874 28.02735,16.54883 4.93931,9.1001 9.9707,21.00196 9.9707,21.00196 l 18.24219,6.99218 -0.20508,-8.21484 c 0,0 12.05277,-33.46981 9.87827,-28.99926 -13.27537,27.29286 -16.65964,-12.09638 -12.64855,-32.95277 1.79624,-9.33988 -8.09923,23.25253 -11.71015,3.30417 -3.61092,-19.94836 11.82286,-65.2078 11.82286,-65.2078 z m -135.0143,166.23652 c -9.03066,16.73878 -21.76873,34.69103 -35.94532,16.93359 l -4.93359,18.72852 c -0.51689,2.156 26.37543,14.10515 38.78906,-14.78321 4.79728,4.9883 30.47001,8.72049 40.19141,-0.50781 16.32638,6.12609 26.20235,8.90099 39.78125,6.00977 10.50996,7.69201 52.80378,16.95337 84.60351,4.4707 l 4.62891,-11.46289 c -14.76847,8.79414 -37.46238,12.9594 -39.6875,-7.55273 -4.09943,4.8077 -38.28646,16.47576 -36.43555,-5.55469 -36.2863,22.69922 -48.82383,3.87417 -46.89844,-2.81055 -21.45432,15.44477 -38.47783,4.04325 -44.09374,-3.4707 z"
         transform="matrix(0.26458333,0,0,0.26458333,0.41303757,-5.1971803)"
         sodipodi:nodetypes="sccccccccssssscscscscsccscccsssccccccccccccc" />
      <path
         id="path36882"
         style="font-variation-settings:normal;opacity:1;vector-effect:none;fill:none;fill-opacity:1;stroke:#999999;stroke-width:2.11667;stroke-linecap:round;stroke-linejoin:round;stroke-miterlimit:4;stroke-dasharray:none;stroke-dashoffset:0;stroke-opacity:1;-inkscape-stroke:none;stop-color:#000000;stop-opacity:1"
         d="m 169.875,38.005011 c 0,0 -3.74166,11.87728 -4.75192,19.42376 -0.61008,4.55722 0.42227,12.33568 0.42227,12.33568 4.26382,-2.53307 4.24411,-13.05407 6.36617,-19.58111 m -20.76085,1.32729 c 0,0 7.10543,-3.13283 10.49268,-9.97528 1.91592,-3.87028 5.00847,-9.71529 6.22718,-11.54888 1.21871,-1.83359 5.02985,-3.75612 6.17373,2.72303 1.14388,6.47914 1.30361,18.74047 1.40579,20.29949 0.21038,3.20977 -1.0196,10.43445 -4.31894,21.09314 m -19.78093,-31.88009 c 0.90166,3.2955 0.76987,7.40525 -1.26997,9.82083 3.24689,0.72032 6.98579,7.07191 5.7224,9.96597 5.32467,0.61047 9.81002,5.36492 9.96314,9.25 4.88817,1.26794 4.27747,0.928024 6.34636,5.173494 m -27.98957,11.158793 c 6.28877,4.836782 12.45637,1.440986 14.55972,-2.769041 m -24.64846,2.588868 c 10.05948,5.60467 13.70186,-3.701027 12.28988,-9.240439 m -21.86431,14.594759 c 8.65052,5.269773 11.2488,-9.899616 9.23127,-14.811137 M 113.1858,94.962437 c -0.19842,13.032383 12.36707,2.725713 10.43326,-5.148412 2.76802,-2.76914 4.20002,-11.285874 0.26823,-19.290544 M 113.25335,92.227719 C 112.26441,107.44847 89.826822,117.81118 93.304827,93.377034 79.242049,105.83518 84.977317,86.251532 89.9616,79.76065 77.002441,87.664081 76.094047,72.45783 86.848975,61.115017 78.927171,63.743259 68.133851,57.449954 91.434143,39.256691 71.980003,39.142818 89.048891,26.453545 107.62757,25.073115 c -18.633248,-7.920137 12.70175,-10.063971 16.47868,-7.032994 9.92359,-7.65546 14.00965,-3.60038 18.57317,-0.50313 8.93672,-6.4793 12.61981,-2.17996 16.08617,2.56405 10.1042,-1.79375 17.46538,0.10786 18.76971,10.16918 7.91944,3.21552 6.51217,9.47595 4.67163,15.87783 2.73098,1.96628 5.25808,11.85835 -1.08852,18.78055 1.79867,4.74651 1.94478,9.63799 -2.69111,14.94896 1.38296,5.07324 0.76958,8.914948 -1.48792,11.176508 m -7.37084,-6.006658 c -1.80737,2.789412 -5.56809,5.877315 -11.63286,4.971775"
         sodipodi:nodetypes="cscccssssccccccccccccccccccccccccccccccc" />
    </g>
  </g>
</svg>
