<svg width="179" height="125" viewBox="0 0 179 125" fill="none" xmlns="http://www.w3.org/2000/svg">
<path d="M3.56012 121.79L11.0201 121.44C8.19012 108 10.0201 94.2602 14.1601 80.3602C14.9101 95.2502 14.4101 111.43 18.8301 122.56L29.4401 122.06C28.9301 108.24 32.3001 93.8702 42.4401 78.5302C42.5301 94.4402 41.3901 111.64 46.4401 122.24L66.6701 121.48C70.3801 105.61 72.2901 88.7202 82.2001 76.3202C94.7201 94.0902 93.6801 106.07 95.3101 119.18L110.52 117.39L111.7 78.7202C116.37 91.4402 121.56 104.29 120.39 115.55L133.85 115.96L135.71 85.2502C139.09 96.0802 142.98 107.17 142.28 115.82L177.11 114.17C177.02 68.1702 169.05 40.5702 157.62 21.0702C154.44 31.9302 151.26 42.7802 150.85 54.9902L114 16.4802C117.48 12.0802 120.28 8.9702 123.42 5.2102C90.4201 -4.9298 63.3101 4.6802 40.6301 15.2802C4.32012 32.2402 -0.459882 76.9302 3.56012 121.79Z" fill="url(#paint0_linear_104_461)"/>
<path d="M67.7503 5.62988C57.4203 7.46988 38.4403 14.4699 25.1303 24.4299C-6.86972 64.0699 7.92027 88.7099 3.03027 119.66L10.6503 120.78C9.47027 106.14 11.9203 91.4599 15.5303 76.4299C15.6403 93.2599 15.7403 110.5 18.3203 120.43L27.9003 121.52C27.7403 121.76 28.1303 78.8299 34.6103 50.7399C40.1903 26.5499 61.3703 7.04988 67.7503 5.62988Z" fill="url(#paint1_linear_104_461)"/>
<path d="M133.57 77.2106C135.29 80.7606 144.27 101.901 143.29 115.501L167.94 114.571C168.58 97.6306 166.87 78.1606 160.21 55.1206M168.82 114.601C173.44 114.011 176.23 115.001 176.94 113.971C177.14 52.7206 169.52 38.7006 157.63 20.8006L168.82 114.601ZM108.87 14.4206C124.25 27.1006 144.14 46.4206 153.55 62.0406L108.87 14.4206ZM124.55 5.91059C106.12 0.820593 74.3601 -3.40941 38.3601 16.3506C0.580082 31.0606 1.10008 91.3506 2.75008 121.061L10.7501 121.191C11.6201 112.411 6.44008 87.8006 18.5801 68.4406C13.7061 85.5993 13.3273 103.723 17.4801 121.071L28.8801 121.561C26.1701 113.241 33.8801 83.5606 44.4201 74.0006C41.2101 90.3606 40.6201 104.661 46.5401 123.001L67.1901 122.231C70.4301 94.3306 73.4801 86.2306 81.7401 74.2306C92.4101 87.5206 96.6701 101.761 95.5101 119.001L110.68 118.081C111.84 97.4306 110.68 93.5806 109.78 73.6806C122.67 96.4806 119.84 110.431 122.18 116.561L135.18 116.041C136.28 87.0406 136.24 77.3806 125.28 56.5106L124.55 5.91059Z" stroke="#999999" stroke-width="3" stroke-linecap="round" stroke-linejoin="round"/>
<defs>
<linearGradient id="paint0_linear_104_461" x1="89.5825" y1="80.1254" x2="90.1117" y2="135.691" gradientUnits="userSpaceOnUse">
<stop stop-color="white"/>
<stop offset="1" stop-color="white" stop-opacity="0"/>
</linearGradient>
<linearGradient id="paint1_linear_104_461" x1="35.4403" y1="71.2899" x2="35.7903" y2="134.57" gradientUnits="userSpaceOnUse">
<stop stop-color="#CCCCCC"/>
<stop offset="1" stop-color="#CCCCCC" stop-opacity="0"/>
</linearGradient>
</defs>
</svg>
