<svg width="213" height="157" viewBox="0 0 213 157" fill="none" xmlns="http://www.w3.org/2000/svg">
<path d="M212 140.56L207.73 129.21L208.84 111.3L204.45 102.72C203.52 92.4602 203.77 80.0702 198.96 76.8102C197.96 62.8102 194.78 56.3402 190.25 54.5002C189.74 34.7602 185.65 35.7102 182.35 29.4202C179.25 37.7702 175.53 58.0202 173.59 67.8902C172.31 59.7602 165.81 56.1102 158.24 53.6202C147.9 41.1702 134.06 28.1502 135.4 26.0002C140.98 16.8402 146.66 15.8602 153.13 8.19016C148.5 6.78016 142.72 3.19015 140.54 6.51015L123.36 1.16016L116.68 3.00016L100.76 5.84016L86.9199 3.34016L57.6499 11.5502L54.9399 16.8502L49.2599 22.8502C33.8999 28.8502 42.0599 35.1302 30.1899 36.5902C30.1899 36.5902 23.1899 42.1402 21.9499 48.9202C20.9463 53.4397 18.9365 57.6747 16.0699 61.3102L17.7999 67.3102C17.7999 67.3102 17.9399 79.9402 15.3299 85.5302C12.7199 91.1202 7.73989 103.34 7.73989 103.34C7.62989 108.56 9.91989 112.73 5.73989 119.74C5.16989 125.74 6.73988 131.74 2.28988 137.74C2.22988 147.93 6.87988 149.4 13.4499 147.34C16.3299 158.01 22.1499 153.97 28.2099 153.62C30.9299 151.28 28.5699 142.54 31.8699 142.09C39.5699 141.09 36.6399 128.73 36.2299 128.6C36.2299 128.6 37.9799 126.12 41.1099 118.49C44.2399 110.86 41.1699 103 43.7299 101.19C46.2899 99.3802 49.3699 87.8502 49.3699 87.8502C49.3699 87.8502 53.9999 85.4202 51.0699 94.5502C48.1399 103.68 53.6499 113.24 53.6499 113.24C53.6499 113.24 54.1399 125.17 56.1999 128.05C58.2599 130.93 56.9499 144.87 62.6699 146.44C69.4599 148.32 76.9599 155.61 75.7999 150.62C76.7999 150.81 86.5299 138.62 83.1299 131.97C81.4499 128.68 78.0099 129.58 81.8699 120.62C86.0899 110.84 82.7199 111.18 82.2099 104.97C81.6999 98.7602 87.9999 91.2702 87.9999 91.2702L85.7999 85.0901L88.3599 77.9702C88.3599 77.9702 90.0099 80.4802 91.5499 86.9702C93.0899 93.4602 103.47 97.6902 104.26 99.1002C105.05 100.51 102.26 105.76 106.26 109.51L116.94 119.63C115.08 120.97 120.84 128 126.35 130.81C126.74 137.35 138.58 143.74 138.58 143.74C142.51 149.26 142.95 155.35 152.84 149.6C160.84 144.95 151.31 138.93 152.3 137.66L153.51 130.66C153.51 130.66 162.51 133.77 164.96 141.54C167.41 149.31 175.31 151.54 179.41 147.54C183.51 143.54 184.19 148.18 184.19 148.18C184.19 148.18 187.19 153.06 191.83 149.64C196.47 146.22 197.35 143.64 197.35 143.64C197.35 143.64 200.65 152.64 212.82 141.57" fill="white"/>
<path d="M174.4 62.6602C174.51 62.6602 173.72 64.7602 173.78 64.7402C172.78 67.4702 172.65 68.3602 174.34 69.7402C185.9 79.0802 181.61 82.1302 185.28 92.9602C187.02 98.0902 191.04 102.89 193.16 107.89C194.69 112.42 189.55 119.8 196.79 128.47C196.79 131.11 191.87 142.78 200.44 144.82C211.1 147.36 196.44 124.21 196.98 118.7C197.44 114.19 195.93 105.88 193.98 101.28C190.89 94.2802 187.31 91.6402 187.98 82.5302C187.66 77.9602 184.79 70.0302 178.84 67.1202C177.94 62.8602 179.26 60.5202 175.43 57.8602L174.4 62.6602ZM158.78 53.2802C144.78 35.3602 137.41 29.2802 136.2 24.7302L132.69 23.4302C127.94 27.3202 135.27 39.6902 142.12 55.4302C143.27 58.0702 150.48 59.9002 151.22 60.8402C148.91 66.9702 152.62 74.0202 156.29 76.2402C160.52 76.4102 168.2 85.9902 169.82 85.2402C168.91 77.8402 155.69 74.7302 157.47 63.9502C158.54 59.1102 164.61 60.3502 171.09 64.3302C172.09 56.0802 164.24 55.7702 158.78 53.3302V53.2802ZM32.0698 35.8802C29.9932 37.3266 27.8141 38.62 25.5498 39.7502C22.8898 40.9302 21.2998 51.6702 19.4998 56.2702C17.6998 60.8702 14.7698 61.5602 14.7698 61.5602L16.8798 72.1102C16.8798 72.1102 15.9498 85.3902 12.2698 91.7802C8.58984 98.1702 9.56984 108.13 9.73984 111.51C9.90984 114.89 7.24984 117.51 4.73984 122.12C2.22984 126.73 4.03983 134.58 4.03983 134.58C4.03983 134.58 2.29984 137.49 2.85984 143.9C3.41984 150.31 14.1698 148.74 14.1698 148.74C9.78983 148.98 17.5798 125.27 17.4698 126.98C17.3598 128.69 11.4098 109.59 24.1198 96.3302C24.4198 91.4802 29.1198 69.7402 36.4298 72.3302C39.0898 64.9802 40.8398 55.4302 46.1298 54.4802L40.6198 54.9902C33.6198 48.3102 43.1898 45.7202 46.1798 41.1102C31.7398 43.0002 42.7098 30.0502 48.9998 26.6902C51.1098 25.2402 41.7698 29.2602 41.7698 29.2602C41.1298 25.7702 33.3298 37.5902 32.0698 35.8802ZM96.5398 3.74023C95.3254 3.78743 94.1267 4.03056 92.9898 4.46023C87.9898 7.72023 87.1598 13.8802 80.6298 14.9602C73.9498 17.9602 73.4698 28.0902 65.6998 30.0202C59.5298 36.4302 63.4398 39.7202 58.4898 44.2002C56.5498 48.4802 55.6598 48.9902 52.8798 53.0102C50.7398 56.8902 52.2998 63.3602 52.8798 67.1502C50.9498 72.8602 46.6998 75.7802 46.9898 82.2302C46.5998 95.8002 40.9898 96.3302 39.0698 101.41C37.4598 106.04 37.0698 106.33 37.8698 111.47C38.5298 115.97 36.4698 121.86 32.6098 123.91C29.2298 130.74 34.7598 136.47 30.0698 143.28C28.7998 149.89 37.8998 140.45 36.7398 137.94C35.1498 132 38.3698 125.94 40.9298 121.14C42.8098 118.33 46.8598 98.5202 49.4798 98.3502L51.7998 93.7502C55.2998 90.8102 56.0198 77.5702 57.6598 73.6102C60.7298 68.6902 58.6598 66.6102 57.1498 60.8602C56.5698 54.2702 65.1498 45.9902 64.9098 39.4202C64.9098 33.9202 70.7998 30.1702 75.9098 31.5102C78.2498 27.4202 76.4798 20.8402 82.0198 18.5902C86.9498 17.5902 93.0998 17.9902 94.0898 11.4602C94.3898 8.58023 103.33 4.40023 96.6198 3.74023H96.5398ZM112.27 48.2502C112.16 48.2502 112.1 48.2502 112.08 48.2502C113.4 51.7202 114.08 64.4302 114 67.1402C126.78 73.5902 125.71 75.6902 128.51 86.8202C130.14 92.4802 139.61 96.1502 140.04 97.4302C141.04 101.3 141.25 107.13 143.24 110.65C158.31 120.8 149.86 122.37 153.92 129.24C163 132.53 163.64 140.24 167.1 146.24C168.97 149.24 174.37 151.74 177.33 148.41C167.44 145.56 170.14 137.07 166.22 131.79C156.79 126.53 156.9 124.35 153.87 113.39C152.87 109.67 146.22 114.17 142.69 99.1602C142.16 96.9102 138.03 88.7002 132.37 85.7602C128.29 83.6502 134.76 77.2102 126.24 69.8802C123.1 67.1902 120.54 67.1902 118.7 60.5002C115.89 50.3102 113.03 48.4202 112.27 48.2202V48.2502ZM89.8098 74.9202C87.1698 82.3802 84.4898 86.1302 86.9598 92.0802C90.2598 95.8102 95.9598 93.7902 96.0998 100.24L106.15 111C108.84 124.87 114.02 113.48 115.97 120.23C118.9 130.4 122.77 133.23 127.24 131.29C127.75 141.29 133.24 140.38 139.33 143.65C140.87 149.65 142.33 156.35 150.53 149.32C142.03 149.95 144.67 141.05 141.78 140.49C135.91 136.92 129.17 134.64 128.56 129.35C128.56 129.35 118.96 124.52 118.74 116.48C118.54 108.74 112.96 121.26 110.74 108.25C109.28 99.6102 104.34 100.7 101.43 96.9002C98.5198 93.1002 101.31 91.9002 89.7698 74.9002L89.8098 74.9202ZM55.4598 76.9202C50.8498 82.2102 55.7598 81.9202 50.5298 95.5402C49.5298 98.0302 49.3898 105.69 52.3698 110.54C54.8698 114.59 53.1998 117.13 53.4598 121.59C53.6698 125.07 56.5998 126.97 57.5198 130.05C60.5198 140.05 52.5198 142.05 64.5198 146.37C67.0798 147.3 73.3198 151.88 74.5198 150.24C69.1698 147.98 70.2098 143.31 68.4198 142.72C59.9698 139.91 64.6298 131.62 60.4198 127.37C54.2198 121.18 60.9998 115.45 57.1398 108.22C53.2798 100.99 62.9998 91.0002 55.4598 76.9102V76.9202ZM173 93.0502C171.59 93.1302 171.63 100.26 171.72 101.38C172.21 106.1 175.07 107.68 177.82 111.29C180.25 114.43 180.2 117.15 179.91 121.09C179.782 125.208 180.755 129.285 182.73 132.9C184.97 137.72 183.44 144 187.65 147.9C188.65 149.12 190.44 148.61 191.3 147.49C186.89 144.61 186.3 142.49 187.14 137.07C188.35 129.63 180.33 130.76 183.78 117.82C185.84 110.09 173.96 105.45 173.48 93.2402C173.35 93.1172 173.178 93.0491 173 93.0502V93.0502Z" fill="#CCCCCC"/>
<path d="M85.6299 66.1001C89.1399 72.6101 89.9399 80.4201 84.5499 86.0201C93.2699 93.9201 77.8399 100.58 83.7699 108.68C89.3499 116.31 74.4699 124.19 82.7099 132.09C88.6599 137.81 80.0799 149.2 75.7699 151.22C68.8499 154.47 67.8699 146.54 64.3299 146.75C52.9799 143.88 62.2699 133.1 54.5399 125.58C50.0699 121.22 56.9799 116.78 52.4699 110.74C46.4699 102.74 50.0399 99.0201 50.1299 91.8501C44.4499 85.3601 55.5199 71.1001 58.5299 66.8501C49.8799 49.4801 65.1799 51.2201 63.8099 41.8501C64.5699 36.3801 70.8099 28.0401 76.2099 31.8501C73.8099 23.3701 84.8699 14.3501 90.2099 17.9901C91.3099 13.1401 96.3599 2.81006 101.89 8.34006C107.15 -0.0399442 113.56 4.94006 116.97 3.74006C127.42 -2.93994 128.86 8.09006 142.97 4.83006C150.33 3.75006 149.24 5.54006 153.11 7.83006M195.78 143.08C203.57 151.76 216.48 144.83 209.05 133.51C203.43 125.77 213.48 112.09 205.2 104.62C200.64 95.4 206.68 84.3801 197.9 76.1001C198.06 64.9401 197.9 58.6501 189.61 52.9901C190.54 43.7801 188.29 34.2601 183.02 30.1401L195.78 143.08ZM153.27 130.27C160.7 132.17 164.98 135.44 165.86 143.86C169.47 156.74 186.01 150.57 183.33 136.13C181.65 128.31 177.42 132.04 179.97 120.03C182.04 110.31 169.97 108.55 171.54 99.7001C172.39 95.0301 170.05 82.4501 160.65 77.7601C156.24 77.5301 152.14 75.6901 151.13 66.7601C151.41 56.7601 139.47 63.6801 139.22 47.7601C138.52 44.3401 136.1 41.5901 133.71 39.1801L153.27 130.27ZM86.3599 86.3801C85.9699 94.2601 94.6899 88.8701 95.8499 98.6901C96.2899 108.37 107.16 101.17 106.85 114.42C106.61 123.81 115.99 113.29 116.44 120.55C117.21 132.84 126.88 127.55 127.08 133.69C127.42 143.94 139.66 139.23 139.71 145.87C139.8 157.37 159.77 153.22 154.71 141.61C149.03 135.74 156.41 127.7 152.71 119.54C149.3 113.16 139.5 112.43 141.82 103.19C141.06 94.7001 131.43 91.6701 127.6 87.1901C128.94 77.5901 121.47 68.5201 113.37 67.4601C115.26 59.3001 112.96 47.4601 103.98 44.5201L86.3599 86.3801ZM45.7799 53.9201C38.1699 56.6401 38.2899 66.4801 36.6799 71.4501C20.9199 74.9701 27.8299 91 22.3499 97.68C16.1199 105.04 13.5399 111.95 15.9299 119.82C18.9799 129.82 11.8399 134.24 12.4399 140.59C12.5899 148.19 18.7199 159 27.4399 153.59C33.1199 151.08 25.7099 147.09 35.1699 140.96C41.1099 138.22 32.4799 129.49 38.8599 125.54C45.4099 117.54 39.0499 106.96 47.7599 101.01L45.7799 53.9201ZM43.3499 42.3401C34.4399 43.0501 27.1199 51.1201 26.0999 57.3401C26.4599 65.0601 15.2399 65.4501 16.0399 79.9701C17.4799 93.3701 10.5099 91.62 8.5399 101.43C7.5899 108.6 11.0199 114.18 5.32991 121.34C1.40991 126.27 7.44991 133.1 2.41991 138.46C0.179908 145.67 6.94991 150.74 13.7499 148.39L43.3499 42.3401ZM67.7499 14.6201C60.5799 14.6201 51.9399 17.2701 49.7499 24.9501C39.1899 25.4801 38.4599 38.3901 28.1099 38.5101C19.6099 43.0401 25.2599 52.9301 16.8799 59.6301C14.6199 61.2401 15.8799 70.1101 17.5099 71.2301L67.7499 14.6201ZM101.51 7.51005C93.9899 -1.35995 80.5099 7.28006 72.5099 8.23006C66.2699 9.45006 56.7399 9.31006 54.4399 17.3401L101.51 7.51005ZM183.57 143.37C186.99 156.27 199.46 148.29 194.76 135.6C202.07 127.67 189.76 123.6 193.18 116.46C196.61 105.84 185.79 99.6001 184.3 91.0401C185.62 80.5401 180.51 70.5701 174.03 69.9501C174.32 60.0701 163.91 54.5201 157.7 53.9501C154.38 39.3801 149.79 41.4001 144.61 38.9501C143.53 35.8101 138.42 28.9501 135.07 26.8901L183.57 143.37Z" stroke="#999999" stroke-width="3" stroke-linecap="round" stroke-linejoin="round"/>
</svg>
