<?xml version="1.0" encoding="UTF-8" standalone="no"?>
<svg
   inkscape:version="1.1.1 (3bf5ae0, 2021-09-20)"
   id="svg8"
   version="1.1"
   viewBox="0 0 145.52083 145.52084"
   height="550"
   width="550"
   xmlns:inkscape="http://www.inkscape.org/namespaces/inkscape"
   xmlns:sodipodi="http://sodipodi.sourceforge.net/DTD/sodipodi-0.dtd"
   xmlns="http://www.w3.org/2000/svg"
   xmlns:svg="http://www.w3.org/2000/svg"
   xmlns:rdf="http://www.w3.org/1999/02/22-rdf-syntax-ns#"
   xmlns:cc="http://creativecommons.org/ns#"
   xmlns:dc="http://purl.org/dc/elements/1.1/">
  <defs
     id="defs2" />
  <sodipodi:namedview
     borderlayer="true"
     units="px"
     showgrid="false"
     inkscape:document-rotation="0"
     inkscape:current-layer="layer1"
     inkscape:document-units="px"
     inkscape:cy="277.85714"
     inkscape:cx="242.14286"
     inkscape:zoom="0.7"
     inkscape:pageshadow="2"
     inkscape:pageopacity="0"
     borderopacity="1.0"
     bordercolor="#666666"
     pagecolor="#585858"
     id="base"
     inkscape:pagecheckerboard="1"
     inkscape:snap-global="false"
     fit-margin-top="0"
     fit-margin-left="0"
     fit-margin-right="0"
     fit-margin-bottom="0"
     inkscape:window-width="1280"
     inkscape:window-height="967"
     inkscape:window-x="0"
     inkscape:window-y="1"
     inkscape:window-maximized="1" />
  <metadata
     id="metadata5">
    <rdf:RDF>
      <cc:Work
         rdf:about="">
        <dc:format>image/svg+xml</dc:format>
        <dc:type
           rdf:resource="http://purl.org/dc/dcmitype/StillImage" />
      </cc:Work>
    </rdf:RDF>
  </metadata>
  <g
     id="layer1"
     inkscape:groupmode="layer"
     inkscape:label="Layer 1"
     transform="translate(-65.996687,-92.135335)">
    <g
       id="g66829"
       inkscape:label="hair6"
       style="display:inline"
       transform="translate(3.6074421,86.99324)">
      <path
         style="fill:#99d3ff;fill-opacity:1;stroke:none;stroke-width:0.264583px;stroke-linecap:butt;stroke-linejoin:miter;stroke-opacity:1"
         d="m 119.12357,40.198344 c -2.5383,1.736075 -5.11576,3.571216 -7.19912,5.856949 L 94.674157,66.132389 C 89.465478,64.78916 78.64512,66.680128 73.988648,68.837004 61.41518,74.766174 72.26617,87.073221 80.67436,91.64723 c 2.386295,0.499293 5.493392,4.487804 7.272033,5.089413 -2.166655,-4.541554 -3.067167,-8.833175 3.182564,-12.231019 -12.711057,-7.347125 0.485751,-19.198251 9.340093,-6.524268 0.65223,-1.057451 16.49073,1.061213 33.92529,6.48671 11.73274,3.62812 34.84952,11.207043 43.90959,19.788524 0.0349,1.55316 -2.35513,3.04631 -1.93383,3.76995 2.1643,6.57976 0.94144,7.48559 0.34697,9.47214 1.02211,3.58274 1.20071,3.1493 1.36725,6.71543 7.31004,1.76717 19.7896,2.23172 23.6146,-3.2779 1.822,-15.03822 -15.44235,-20.23332 -23.43157,-28.243435 0.93622,-5.645926 7.47718,-20.784662 4.46532,-26.704901 -1.5282,-2.086536 -6.38994,-6.93885 -8.56468,-7.846997 -0.35783,-2.595259 -2.55391,17.595861 -5.02087,16.769879 -1.22047,-0.408635 -17.82708,-19.130377 -17.79206,-21.592926 l 5.39633,-5.946016 c -13.50449,-8.738136 -25.36172,-6.295538 -37.62782,-7.17347 z"
         id="path53543"
         sodipodi:nodetypes="cccccccccccccccccsccc" />
      <path
         id="path449020"
         style="opacity:1;vector-effect:none;fill:#ffffff;fill-opacity:1;stroke:none;stroke-width:0.500001;stroke-linecap:butt;stroke-linejoin:miter;stroke-miterlimit:4;stroke-dasharray:none;stroke-dashoffset:0;stroke-opacity:1"
         d="m 646.48633,113.71289 c -5.63107,-0.0625 -11.14172,2.32417 -15.06836,9.39844 -5.46316,9.84247 -18.35411,31.68154 -23.48047,38.74609 -5.1264,7.06454 -34.83789,37.83789 -34.83789,37.83789 0,0 43.55635,71.07644 67.56055,84.17578 0,0 24.26517,-82.83431 22.78711,-110.32617 -1.47806,-27.49185 -2.73067,-56.49256 -10.38282,-58.76758 -2.15217,-0.63984 -4.37466,-1.04001 -6.57812,-1.06445 z m -249.82031,14.32227 c -5.09036,0.0109 -10.2651,2.64661 -12.39258,10.45507 -4.39223,16.12071 -12.64844,92.72657 -12.64844,92.72657 l 49.76953,-58.48828 c 0,0 -9.73634,-33.32473 -12.54101,-38.87891 -1.44616,-2.86388 -6.76874,-5.82601 -12.1875,-5.81445 z m -16.43114,164.3342 c -10.98807,-17.95849 -50.23543,-28.35818 -55.86723,1.70429 -1.99646,10.65711 15.03665,23.59822 15.03665,23.59823 0,0 -23.29212,25.21542 -12.15283,41.81026 11.13928,16.59484 32.12158,0.57841 32.12158,0.57841 0,0 11.37726,41.59033 40.24414,21.33789 28.86689,-20.25246 28.55078,-21.64258 28.55078,-21.64258 11.07851,19.85747 30.19447,19.00574 52.15039,10.83789 27.41658,13.32457 30.04729,-0.67257 52.1765,-4.06343 24.3522,16.834 57.76061,1.16207 51.06095,-17.91558 -6.34994,-18.0818 -169.16643,-56.13823 -203.32093,-56.24538 z"
         sodipodi:nodetypes="sssccsssssccsscscscscccsc"
         transform="scale(0.26458333)" />
      <path
         id="path520471"
         style="opacity:1;vector-effect:none;fill:#000000;fill-opacity:0.2;stroke:none;stroke-width:0.500001;stroke-linecap:butt;stroke-linejoin:miter;stroke-miterlimit:4;stroke-dasharray:none;stroke-dashoffset:0;stroke-opacity:1"
         d="m 620.58398,146.10352 -36.82031,44.13476 c 0,0 -9.9532,-7.94903 -14.66797,-4.93164 -4.71477,3.0174 3.63019,12.18805 22.60157,41.04492 18.97133,28.85687 51.29958,62.07175 60.29882,65.30469 8.99921,3.23295 -5.42578,-25.98242 -5.42578,-25.98242 0,0 -12.72229,-9.26805 -14.18164,-14.10547 -1.45931,-4.83742 3.63005,-17.33833 5.25781,-23.27734 1.62773,-5.939 8.68044,-52.3734 3.98438,-55.19922 -4.69606,-2.82581 -22.5625,42.19726 -22.5625,42.19726 -46.64823,-12.09042 13.4865,-56.35906 1.51562,-69.18554 z m -165.02343,5.86523 c -3.96535,0.0405 -7.5633,0.53903 -9.63867,1.9043 -6.64124,4.36884 -85.41016,93.74414 -85.41016,93.74414 l 49.875,7.34765 64.40234,-100.95703 c 0,0 -10.50475,-2.1281 -19.22851,-2.03906 z m -49.2793,16.14258 c -2.72209,-0.0313 -4.96728,1.06679 -6.68164,1.94531 -5.54203,0.44029 -22.19391,21.94432 -21.4707,28.64453 0.2939,2.72284 -2.73243,30.75 -2.73243,30.75 l 43.63086,-52.75586 c -4.95905,-6.63674 -9.24626,-8.54369 -12.74609,-8.58398 z M 343.25,261.32812 c -3.27161,-0.0618 -6.4845,-0.0621 -9.62695,0.004 -39.10615,0.82119 -67.33206,11.92455 -62.75391,43.00391 3.62224,24.59007 36.90927,35.5244 54.92969,55.94922 -1.26624,-10.08817 -4.30892,-18.55834 8.07226,-41.07422 -3.2101,-5.9487 -5.00414,-12.16501 -5.55664,-18.03711 4.69039,-9.95081 34.61293,-0.43006 45.08789,22.25586 19.22484,-4.43967 44.50173,-5.71086 54.52735,11.84765 1.61672,2.83147 31.48437,-11.93027 50.38476,11.76172 5.07695,6.36405 27.08661,-7.49723 43.9668,22.08594 l 9.28906,-4.45117 c 1.09089,0.4834 2.12359,0.89532 3.15821,1.31055 l -3.59571,0.86132 -10.07812,7.81446 c 20.51868,7.27854 37.09732,23.14735 56.91797,26.52539 23.974,4.0859 35.32205,15.61822 49.23632,22.46289 13.94161,6.85811 25.39413,11.23373 32.55079,18.84765 11.00183,-15.68624 -4.47646,-31.29381 0.0449,-38.16797 l 6.14648,-10.70898 c 2.28604,1.61041 4.5623,3.12044 6.85352,4.7832 l -6.78711,7.95118 c 3.12397,11.86981 7.68508,23.15417 1.76562,37.91015 1.82645,6.35449 4.11733,11.28411 5.14844,21.12891 9.8616,10.63587 168.83331,32.91907 34.7207,-74.06836 C 674.55745,364.92299 612.47867,326.08307 491.83008,288.55469 454.64779,276.98894 392.32412,262.25474 343.25,261.32812 Z m 3.85156,12.45508 c 0.0264,-6e-5 0.0576,0.01 0.084,0.01 -3.50196,0.65779 -6.84411,1.59417 -9.82617,2.88476 2.70715,-1.78866 5.92446,-2.88525 9.74218,-2.89453 z m 34.11328,17.78321 c 102.7492,15.07518 83.83849,16.88538 0.0723,0.16015 -0.0211,-0.0563 -0.0509,-0.10406 -0.0723,-0.16015 z"
         sodipodi:nodetypes="ccssscsssccsscccsscsccssssccccsscccccsscccccccssscccscccc"
         transform="scale(0.26458333)" />
      <path
         id="path480526"
         style="font-variation-settings:normal;opacity:1;vector-effect:none;fill:none;fill-opacity:1;stroke:#5b7e98;stroke-width:2.11667;stroke-linecap:round;stroke-linejoin:round;stroke-miterlimit:4;stroke-dasharray:none;stroke-dashoffset:0;stroke-opacity:1;-inkscape-stroke:none;stop-color:#000000;stop-opacity:1"
         d="m 171.10602,69.803219 c 1.70247,3.92116 3.07741,6.53124 1.09608,7.74057 -3.25652,0.66038 -16.54196,-17.36759 -19.86578,-22.34122 -5.71228,-8.5476 0.63666,-6.74118 1.77827,-5.07887 M 98.788629,62.133255 c 21.200421,-2.05749 62.553271,11.43663 80.058041,26.52207 M 95.343056,66.179669 c 5.203944,-6.50867 19.739004,-25.38273 24.287984,-25.99864 13.72035,-0.24485 26.18638,1.74545 37.28092,6.58096 m 17.53624,11.08794 c 2.44254,2.12356 4.79003,4.45805 7.04049,7.01383 2.73683,3.26528 -0.78169,20.717127 -3.33169,28.025517 M 86.645712,88.417905 c -4.63747,-3.41437 -5.185256,-4.702746 -5.191556,-7.148226 -0.005,-1.84524 1.50298,-3.12989 4.23133,-3.87244 m 14.24804,-0.39739 c 9.310974,0.91174 21.433844,3.49222 34.692514,7.63533 29.38486,9.18227 50.2488,21.471471 49.85178,28.784281 -0.1628,2.99864 -4.03452,3.24634 -6.50168,2.46373 M 87.122913,96.328346 c -11.8355,-7.62666 -18.838647,-15.286007 -18.853207,-21.109387 -0.02951,-11.80056 29.88977,-11.81448 66.826554,-0.0311 36.93678,11.78339 66.90385,30.901951 66.93336,42.702511 0.0172,6.87888 -11.00714,9.94262 -23.16413,5.98013"
         sodipodi:nodetypes="ccscccccccccccccssccsssc" />
      <path
         id="path137925"
         style="font-variation-settings:normal;opacity:1;fill:none;fill-opacity:1;stroke:#999999;stroke-width:2.11667;stroke-linecap:round;stroke-linejoin:round;stroke-miterlimit:4;stroke-dasharray:none;stroke-dashoffset:0;stroke-opacity:1;stop-color:#000000;stop-opacity:1"
         d="m 101.61133,79.506689 c -8.936324,-16.32785 -23.382515,-0.05571 -11.332235,5.100154 -5.121544,0.652001 -8.534654,18.857797 5.941917,10.022811 -2.749164,10.656786 14.976418,7.742056 16.894498,0.601915 2.57379,7.064811 11.28026,5.353521 13.66966,2.56911 4.66382,3.299711 9.67988,3.065581 13.76396,-1.4231 3.66403,2.49986 8.2244,3.16346 11.59379,0.0684 M 98.742639,59.555201 c 1.000146,-16.721265 0.718797,-24.131722 5.274811,-25.653992 5.76322,-1.925625 3.82386,4.062564 6.87257,10.915784 m 58.07862,12.473816 c -0.60845,4.4918 -1.80288,7.21744 -3.59038,11.07286 l -0.57856,-0.0727 c 0,0 -3.40519,-5.88954 0.94388,-14.43877 2.50204,-4.91843 4.88765,-13.92197 4.90083,-14.60526 m -0.88947,34.494485 4.7206,-18.417035 c 0,0 3.22792,-22.74389 -1.7839,-24.76129 -5.01179,-2.01736 -6.99868,4.292991 -7.44966,5.28294 -2.64366,5.803068 -10.97815,15.690735 -12.48032,16.201526"
         sodipodi:nodetypes="ccccccccsccccscccssc" />
    </g>
  </g>
</svg>
