<svg xmlns="http://www.w3.org/2000/svg" viewBox="0 0 512 512"><defs><style>.cls-1,.cls-2{fill:#fff;}.cls-1{stroke:#fff;stroke-miterlimit:10;stroke-width:5px;}.cls-3{fill:#ccc;}.cls-4{fill:none;stroke:#999;stroke-linecap:round;stroke-linejoin:round;stroke-width:3px;}</style></defs><g id="Rectangle"><rect class="cls-1" x="2.5" y="2.5" width="507" height="507"/></g><g id="Hair"><g id="layer1"><g id="g165544"><path id="path165536" class="cls-2" d="M202,47.49,180.88,60.36c-5.47-2.55-14.41,31.73-11.52,33.56,1,28.45-11.23,27.8-22.21,29.88,3.54,5.91,8.42,10.61,22.49,7,2.51,2-13.59,13.66-17.26,11.36,3.55,3.61,25.7,1.15,25.7,1.15l-5.8,6.34c43.5,5.33,48.31-42.64,45.93-35.54,7.24,20.44,53.3,43,70.61,34.65l-.56-8.68c-1.72,4.07,13.3,13.25,25.58,6.87-11.68-3.43-17.8-20.52-14.73-20.5,11.11,9.79,21.73,22.37,38.56,9l-14.34-7.59c7.63-2.09,24.21,2.43,23.89-6.45-4.66,1.19-26.88-1.4-20-23.31,1.77-12.35-5.33-19.72-9.28-30.49,0,0-4.83,33-5.49,29.42S300.52,77.31,298.8,74.69L285.06,59.77c-1,1.67-7.79-2-7.5-4.19.37-2.73,10.88-11.47,10.88-11.47-14.48-7.38-52.62-3-61.1,4.42-8.7-.56-18.35-4.36-25.34-1Z"/><path id="path191866" class="cls-3" d="M279.17,57.47l17.94,18.77c5.28,6.81,11.2,13,15,20.77l8,27.93s.81.54,6.9,1.44a31.36,31.36,0,0,0,12.34-1.11c0,.2-17.26-3-19.67-12-1.43-5.36-5.31-25-5-26.24l-1.88,9.36c-2.76-4-6.64-12.19-12.07-18.88Zm-65.32,3.27c-3.65,3.18-10.25,24-5.21,41.66,8,28-13.28,39.86-26,47.36-1.93,2.75,26.15-5.86,32.47-24.13C220,111.77,213.34,100.85,212,100Zm29.63,19.64c14.75,10,37.79,47.16,43.94,58.63l.62,6.44c1.77,5.21,12.68,7.15,22.91,4.62a42.12,42.12,0,0,1-4.82-.66c3.59-.72,6-2.32,5.79-2.53-16.27,1.32-30.51-30-31.2-31.24C269,94,243.48,80.38,243.48,80.38ZM170.72,81c-3.15,22.84,6.2,38-22.47,44.46a20.53,20.53,0,0,0,7.6,4.88c5.21,2.1,14.17-2.82,14.17-2.82l8-41.87C174.73,89.31,171.76,90.9,170.72,81Zm19.11,8c-9.91,10.39-7.33,23.83-6.8,30.08,2,23.34-16.67,21.36-20.09,25.63-1.08,1.13,29-.78,25.71-16.09C185.9,115.64,189.54,90,189.83,88.94Zm102.74,6.22,5.36,28.43s-.09,3.15,14,13.1,23.82-.07,23.82-.07-15.08,8.47-29.8-10.63C299.46,117.59,301,108.45,292.57,95.16Zm6.54,33.2c1.77,5.43,3.62,10.73,7.36,12.94,6.25,3.18,12.12,5.66,18.48,1.25C313.54,140.77,304.18,135.51,299.11,128.36Z"/><path id="path179585" class="cls-4" d="M216.62,111.32c4.9,36.07-41.77,42.73-46.26,38.89,15.37-12.58,20.71-11.69,16.4-32.59a38.42,38.42,0,0,1,5.76-29.95M215.34,60c-29-3.08-40.85,21.45-43.1,62.71C171.13,143,150,141.11,151.77,142.3c15.38,6.38,29.08,2.35,36.29-10.26m-17.69-2.54c-5.77,2.1-17,6.39-23.4-4.83-1.34-2.37,22.81,2.14,22.32-18.06-.74-30.08.34-43,25.41-56,6.69-3.45,19.5-7.38,33.32-3.51m60,101c-8.39-38.93-41.76-68.29-60.85-74.21m29.1-10.78c17.57,7.46,38.38,22.19,42.24,61.84.12,20.27,18.58,21,16.78,22.17-20.33,8.44-29.28-9-38.07-27.79M322.51,126c5,1.19,16.74,4.51,25.37-4,1.94-1.91-20.64,3.45-20.64-16.75,0-16-3.46-28.34-9.47-37.79M289.31,45.21c-13.7-6.1-47.29-7.43-62.93,3.72m72.34,76c2.78,6.17,23.9,26.06,38.85,11.16,3.68-3.67-18.51-1.44-21.47-20.75-8.39-38.94-32-57.67-51.09-63.59M226.53,49c-13.7,7.75-15.16,25.63-15.07,30.26-4.24,40.09,35.89,76.7,76.1,70-14.55-7.14-30.94-10.56-39.45-30.71"/></g></g></g></svg>