<svg width="184" height="158" viewBox="0 0 184 158" fill="none" xmlns="http://www.w3.org/2000/svg">
<path d="M26.4901 135.65C14.4201 137.65 8.16006 143.49 20.4901 112.1C-7.27994 117.1 13.8101 85.4199 16.0501 81.3799C-17.6899 75.0999 15.9001 55.2799 23.9001 44.1499C-3.17995 40.1499 19.4301 27.4699 51.3201 20.1499C27.3301 7.63994 62.0001 4.71994 79.2301 9.61994C93.5001 -3.52006 105.14 4.33994 110.51 8.18994C124.42 -5.88006 141.83 15.3999 138.61 15.1899C137.9 14.0199 155.34 14.0799 154.37 18.1899C148.85 23.1199 146.37 31.9999 141.44 37.6099C135 44.8999 126 49.6199 126.61 52.2899C128.31 52.6199 122.8 58.9499 125.61 63.8999C127.7 67.5699 132.17 75.4899 134.61 80.0399C142.71 83.1199 153.37 96.0399 159.11 97.8999C159.32 101.71 163.38 69.6399 166.51 62.3099C168.25 57.3799 167.97 54.3099 167.72 50.7799C169.12 38.2099 166.39 32.0099 166.72 30.9099C169.72 21.8399 183.48 48.2599 177.51 54.4499C184.23 67.8699 179.51 73.7099 175.4 84.3199C179.66 96.6899 174.4 104.38 170.82 109.32C170.68 114.32 170.68 127.67 167.43 129.57C158.16 133.43 141.08 129.88 132.43 124.57C122.02 126.88 125.16 127.57 113.73 123.57C103.61 125.44 106.61 125.83 96.8901 122.74C92.1301 140.41 80.7201 130.32 79.4401 131.46C76.5401 142.22 65.6101 152.46 60.2501 138.46C45.0001 164.71 24.7201 158.31 26.4901 135.65Z" fill="white"/>
<path d="M57.24 7.66016C46.43 7.78016 38.24 10.2502 47.65 19.1802C23.36 28.6402 -6.52997 38.5102 24.28 43.9202C3.80003 61.5802 -12.27 80.9202 16.95 79.3002C10.73 89.3002 -6.17997 121.8 21.64 110.76C10.47 135.09 11.08 144.45 28.24 132.76C25.81 167.55 48.24 157.94 60.24 138.6C68.6 151.09 78.13 136.13 77.93 129.9C78.04 133.5 64.5 141.08 61.62 131C41.94 147.24 28.87 146.09 31.31 129.6C32.98 118.28 12.43 141.46 27.48 108.6C33.1 96.3402 0.660032 112.94 22.16 79.7001C30.5 66.8101 -3.62997 78.3102 29.94 45.9602C36.07 40.0602 4.28003 34.5302 55.94 22.6602C63.94 20.8402 32.23 11.3502 80.22 9.72016C72.6298 8.40208 64.9437 7.71307 57.24 7.66016V7.66016ZM97.62 114.51C93.62 121.74 88 129.51 81.74 121.82L79.56 129.91C79.33 130.84 91.21 136 96.69 123.53C98.81 125.68 110.15 127.29 114.45 123.31C121.66 126 126 127.15 132 125.9C136.64 129.23 155.33 133.23 169.38 127.84L171.38 122.84C164.86 126.64 154.83 128.44 153.85 119.58C152.04 121.66 136.94 126.7 137.75 117.18C121.75 126.99 116.18 118.86 117.03 115.97C107.62 122.68 100.1 117.76 97.62 114.51V114.51Z" fill="#CCCCCC"/>
<path d="M155.72 118.5C152.72 123.05 146.42 128.09 136.3 126.61M125.3 48.6302C126.81 54.0102 126.59 60.7202 123.18 64.6302C128.6 65.8102 134.85 76.1802 132.74 80.9002C141.63 81.9002 149.45 87.7602 149.74 94.1002C157.91 96.1702 156.81 95.4902 160.26 102.42L125.3 48.6302ZM113.26 122.66C123.76 130.55 134.05 125.01 137.57 118.14L113.26 122.66ZM96.4101 122.36C113.21 131.51 119.29 116.36 116.93 107.28L96.4101 122.36ZM80.4001 131.13C94.8501 139.74 99.1901 114.97 95.8201 106.96L80.4001 131.13ZM61.5801 134.72C61.2501 155.99 82.2301 139.17 79.0001 126.32C83.6201 121.8 86.0001 107.89 79.4501 94.8302L61.5801 134.72ZM61.6901 130.26C60.0401 155.1 22.5801 172.02 28.3901 132.13C4.91011 152.47 14.4801 120.5 22.8001 109.91C1.17011 122.81 -0.34989 97.9902 17.6101 79.4702C4.38011 83.7602 -13.6399 73.4702 25.2601 43.7902C-7.2199 43.6102 21.2601 22.8902 52.2601 20.6402C21.1901 7.71016 73.5101 4.21016 79.8101 9.16016C96.3801 -3.32984 103.21 3.28016 110.81 8.34016C125.73 -2.23984 133.26 6.88016 139.05 14.6302C144.673 14.4782 150.235 15.8315 155.16 18.5502L61.6901 130.26ZM166.42 29.5502C180.2 32.7902 179.9 44.5902 176.82 55.0002C181.38 58.2102 185.6 74.3602 175.01 85.6602C178.01 93.4002 178.25 101.39 170.51 110.06C172.82 118.34 171.8 124.61 168.03 128.3L166.42 29.5502Z" stroke="#999999" stroke-width="3" stroke-linecap="round" stroke-linejoin="round"/>
</svg>
