<svg width="222" height="154" viewBox="0 0 222 154" fill="none" xmlns="http://www.w3.org/2000/svg">
<g id="Hair4">
<g id="layer1">
<g id="g39595">
<path id="abColor_3" d="M69.7504 9.99988C58.6904 8.36988 55.1304 12.8999 46.3704 15.5399C31.3704 13.5399 26.9304 23.9799 25.6504 30.4399C12.1704 33.1299 13.9504 37.0499 14.5104 48.3799C6.0804 54.2599 5.44041 58.6699 10.2504 67.3799C-2.13959 78.8399 1.98041 82.8099 11.5504 89.6399C1.40041 103.37 9.75041 113.72 22.5504 109.4C10.2804 118.49 25.6504 127.4 37.5504 122.61C40.8404 123.61 45.9604 128.24 49.4904 127.74C63.6404 135.35 71.2904 137.23 81.2304 127.93C90.1204 133.22 95.3904 129.63 103.61 128.55C114.61 132.8 122.72 122.93 132.16 121.46C140.67 130.63 150.44 129.36 158.22 130.23C159.66 132.56 167.34 133.17 168.38 133.84C168.84 134.16 172.84 139.42 175.03 141.24C175.59 144.98 176.26 151.36 183.03 152.41C198.71 145.07 198.54 137.31 198.75 132.84C214.63 129.64 214.3 123.51 206.42 114.25C222.87 109.37 213.68 101.91 211.16 93.8299C227.59 86.1199 217.16 75.5999 214.16 68.3699C223.85 53.9399 196.95 37.1699 198.72 37.4999C205.2 19.0599 179.79 9.74988 169.62 11.5599C154.19 -7.91012 138.49 5.07988 131.23 6.71988C103.78 -3.20012 106.41 6.62988 96.5604 7.64988C93.0604 7.64988 70.1204 3.84988 69.8204 9.95988L69.7504 9.99988Z" fill="white"/>
<path id="Grey" d="M17.7402 48.8896C17.7402 48.8896 17.5902 48.8897 17.3902 49.0797C5.18024 48.0097 4.46024 60.7197 8.47024 65.8297C5.97024 71.2397 2.23024 77.6297 3.70024 82.4697C14.3502 90.3097 7.50024 90.9296 7.70024 102.78C8.23024 111.78 19.5102 107.78 20.1802 108.98C20.7002 109.98 16.1802 117.13 22.1102 121.05C25.3302 123.2 35.1902 122.54 36.8002 123.77C40.7402 127.77 46.9203 125.38 49.9603 126.62C60.5603 133.52 68.4202 135.18 78.4802 130.34C80.3302 129.44 81.3202 128.34 80.3402 126.05C79.9171 125.032 79.391 124.06 78.7702 123.15C86.7702 129.58 92.1102 134.03 104.38 127.02C109.46 126.47 116.26 131.12 123.56 126.49C126.56 125.3 130.42 119.16 134.33 115.96C125.63 128.81 152.07 129.24 158.73 129.77C161.629 131.818 164.911 133.26 168.38 134.01C174.05 140.95 175.77 152.09 184.52 150.35C198.68 148.01 195.65 134.56 198.72 133.51C209.54 129.8 211.25 124.63 210.15 121.96C207.63 126.96 199.75 130.84 196.61 125.96C195.31 123.96 183.03 134.73 182.11 129.59C181.19 124.45 191.34 120.11 182.48 124.24C162.34 134.53 166.87 117.63 160.48 121.33C147.67 120.98 148.76 110.68 150.54 108.33C155.68 101.55 149.45 100.92 153.14 95.6597C158.82 87.5497 154.42 85.2496 153.2 78.9596C153.2 78.9596 153.36 86.6296 151.94 91.2696C150.52 95.9096 145.26 95.7496 145.26 95.7496C147.9 107.09 137.26 123.75 146.33 108.3C138.66 113.24 131.26 105.95 128.45 112.2C121.5 127.62 110.13 116.76 103.39 119.8C88.1002 126.71 85.2402 115.16 77.8302 116.56C65.2402 118.96 68.2903 102.97 65.2103 106.82C62.1303 110.67 66.5202 122.57 76.6702 122.13C72.5402 123.37 71.3502 122.47 66.1902 119.71C57.2502 129.48 51.8102 117.89 48.8002 118.13C35.9702 119.13 43.6602 104.71 38.4902 105.74C33.1702 106.81 26.6302 97.0796 30.9302 91.2096C32.4302 89.2096 23.6402 99.3496 22.9302 99.7696C16.1502 107.93 12.4002 99.8596 12.4502 93.6796C12.4502 92.5696 13.8602 90.2297 13.4502 89.1197C7.14024 83.1997 5.53025 75.9897 12.5502 66.7597C7.26025 58.2497 18.0602 48.9796 17.6902 48.9296L17.7402 48.8896Z" fill="#CCCCCC"/>
<path id="abColor_4" d="M170.37 12.9997C175.87 13.7697 188.55 22.8997 184.51 33.4897C190.19 34.6197 193.77 47.0497 189.61 53.5797M132.72 121.51C138.84 130.05 154.65 131.38 158.21 129.74C167.27 138.07 179.64 133.14 185.56 124.39M169.06 135.34C168.47 140 180.84 144.67 188.44 138.14M64.2802 112.4C63.5602 115.72 68.8002 123.7 77.9702 122.61C83.7002 133.49 97.4102 132.61 104.3 127.13C119.85 132.55 133.08 121.87 134.05 114.32C148.97 115.38 148.69 104.54 143.35 96.4097C154.58 95.4097 155.53 84.1097 150.66 77.7897M81.6602 128.68C69.0402 137.21 56.4002 134.33 50.5202 127.14C36.1802 128.64 35.6302 117.23 36.8002 110.07C22.8502 105.6 22.3002 96.5597 29.8802 91.0697M38.7902 46.4097C38.9202 37.1797 42.7102 30.9197 51.2502 28.5397C53.7202 19.9597 58.7702 17.1197 65.0902 17.1097C72.4102 1.23968 90.1502 5.40968 96.6902 8.25968C108.51 -1.84032 127.48 3.56968 130.97 7.25968C141.97 -0.170321 164.29 0.489679 169.49 12.4297C189.94 12.1297 205.69 25.7197 198.39 37.8597C203.26 40.7497 221.55 51.2997 212.84 69.3397C219.24 74.0497 221.2 79.5297 220.26 84.1797C219.32 88.8297 215.26 92.8897 209.79 94.2497C214.79 99.7197 222.32 112.25 206.58 114.06C219.15 127.06 203.87 135.06 197.96 132.68C198.18 142.59 191.69 150.22 182.22 152.22M37.4102 123C28.6602 126.24 9.4102 120.16 22.4102 110.14C13.4102 111.84 0.330196 107.38 12.2202 90.0297C5.2202 87.0897 -5.71981 77.5097 11.6802 66.2597C11.0902 69.2597 -3.3198 56.7897 14.9702 48.5397C13.5202 38.6097 14.1802 31.6397 25.0202 31.2597C24.4102 20.7297 38.5602 15.1797 46.7002 16.8797C52.8602 7.67968 65.2402 7.42968 69.4302 10.3597" stroke="#999999" stroke-width="3" stroke-linecap="round" stroke-linejoin="round"/>
</g>
</g>
</g>
</svg>
