<?xml version="1.0" encoding="UTF-8" standalone="no"?>
<svg
   inkscape:version="1.1.1 (3bf5ae0, 2021-09-20)"
   id="svg8"
   version="1.1"
   viewBox="0 0 145.52083 145.52084"
   height="550"
   width="550"
   xmlns:inkscape="http://www.inkscape.org/namespaces/inkscape"
   xmlns:sodipodi="http://sodipodi.sourceforge.net/DTD/sodipodi-0.dtd"
   xmlns="http://www.w3.org/2000/svg"
   xmlns:svg="http://www.w3.org/2000/svg"
   xmlns:rdf="http://www.w3.org/1999/02/22-rdf-syntax-ns#"
   xmlns:cc="http://creativecommons.org/ns#"
   xmlns:dc="http://purl.org/dc/elements/1.1/">
  <defs
     id="defs2" />
  <sodipodi:namedview
     borderlayer="true"
     units="px"
     showgrid="false"
     inkscape:document-rotation="0"
     inkscape:current-layer="layer1"
     inkscape:document-units="px"
     inkscape:cy="277.85714"
     inkscape:cx="242.14286"
     inkscape:zoom="0.7"
     inkscape:pageshadow="2"
     inkscape:pageopacity="0"
     borderopacity="1.0"
     bordercolor="#666666"
     pagecolor="#585858"
     id="base"
     inkscape:pagecheckerboard="1"
     inkscape:snap-global="false"
     fit-margin-top="0"
     fit-margin-left="0"
     fit-margin-right="0"
     fit-margin-bottom="0"
     inkscape:window-width="1280"
     inkscape:window-height="967"
     inkscape:window-x="0"
     inkscape:window-y="1"
     inkscape:window-maximized="1" />
  <metadata
     id="metadata5">
    <rdf:RDF>
      <cc:Work
         rdf:about="">
        <dc:format>image/svg+xml</dc:format>
        <dc:type
           rdf:resource="http://purl.org/dc/dcmitype/StillImage" />
      </cc:Work>
    </rdf:RDF>
  </metadata>
  <g
     id="layer1"
     inkscape:groupmode="layer"
     inkscape:label="Layer 1"
     transform="translate(-65.996687,-92.135335)">
    <g
       id="g15053"
       inkscape:label="hair"
       style="display:inline"
       transform="translate(5.7639046,98.816442)">
      <path
         style="opacity:1;vector-effect:none;fill:#ffffff;fill-opacity:1;stroke:none;stroke-width:0.132292;stroke-linecap:butt;stroke-linejoin:miter;stroke-miterlimit:4;stroke-dasharray:none;stroke-dashoffset:0;stroke-opacity:1"
         d="m 106.77302,48.81758 c 0,0 -3.94478,-3.455091 -5.28643,-6.547565 -1.34165,-3.092473 -2.710026,-6.054955 -5.131411,-5.425514 -2.421387,0.629441 -2.875735,1.491507 -3.410254,6.828076 -0.534522,5.336569 -0.459688,17.302805 -0.459688,17.302805 0,0 -4.266974,3.50423 -1.91359,7.047008 -1.383522,2.336603 -4.274551,4.706692 -1.357686,9.817925 -1.075087,4.376118 2.0686,6.773336 2.0686,6.773336 0,0 -0.486416,4.727655 1.619601,6.869131 2.106017,2.141477 3.255242,2.346726 3.255242,2.346726 0,0 -1.808788,7.338812 3.453017,8.969542 4.922949,1.52571 7.472619,-0.85522 7.472619,-0.85522 l 6.41961,-4.221371 c 4.68687,1.976931 7.98308,5.557581 12.49179,0.506293 0,0 2.57105,3.167738 8.392,1.409404 5.82095,-1.758336 8.02853,-4.495025 8.02853,-4.495025 0,0 0.86058,3.366138 6.62273,1.977263 5.76215,-1.388877 7.17072,-3.121143 7.17072,-3.121143 l 20.19148,2.135928 c 3.51038,-8.632856 0.81631,-8.173094 0.62539,-12.431478 0,0 2.7528,-9.256905 1.95635,-11.71309 -0.79644,-2.456188 -0.79109,-8.689033 -2.34655,-10.591041 -1.55546,-1.902007 -2.68331,-2.777755 -2.68331,-2.777755 0,0 2.08999,-6.944378 1.69444,-9.051641 -0.39554,-2.107264 0.7323,-10.09844 -0.28329,-11.651517 -1.0156,-1.553078 -2.13275,-6.793863 -2.49623,-7.436988 -0.36347,-0.643125 -1.22939,-2.339885 -2.81158,-1.525714 -1.58219,0.81417 -2.64055,2.442506 -3.21783,3.372987 -0.57728,0.930479 -4.5862,7.813287 -5.42006,8.805342 -0.83385,0.992055 -4.8588,4.515559 -4.8588,4.515559 -0.5546,-1.303846 -6.20142,-2.424189 -7.79868,-0.424188 -1.30449,1.633412 -6.52652,-2.004635 -6.52652,-2.004635 l -7.49935,1.573605 c -5.07686,-0.722475 -9.95672,-2.304935 -16.57019,3.680867 -3.80201,-0.967303 -7.60269,-1.653651 -11.39067,0.342088 z"
         id="path1120"
         sodipodi:nodetypes="csssccccscscccscscccsscsssssscscccc" />
      <path
         style="fill:#ffe99f;fill-opacity:1;stroke:none;stroke-width:0.74498px;stroke-linecap:butt;stroke-linejoin:miter;stroke-opacity:1"
         d="m 172.87609,68.332208 c -0.21731,0.233613 -0.3087,0.558053 -0.31457,0.938538 0.1074,-0.352236 0.21264,-0.67041 0.31457,-0.938538 z"
         id="path621550" />
      <path
         id="path621552"
         style="fill:#cccccc;fill-opacity:1;stroke:none;stroke-width:2.68886px;stroke-linecap:butt;stroke-linejoin:miter;stroke-opacity:1"
         d="m 645.99609,140.48633 -19.14257,46.01172 4.00976,-22.54883 c -18.35384,24.97336 -24.67083,45.12331 -37.2793,45.20703 -15.11814,3.35378 -13.05694,-11.67401 -20.85546,-17.5 -33.54679,-2.75174 -39.73318,-1.19348 -9.4375,16.0918 13.20597,3.30235 18.22757,18.7005 26.29296,29.59961 0,0 4.49552,3.71075 16.58204,11.19726 12.08647,7.48651 25.27539,25.86719 25.27539,25.86719 l 14.30273,9.86914 c -7.13802,-9.01658 -9.77348,-25.25337 -7.00781,-34.20117 0.26041,-2.60856 10.23242,-50.37305 10.23242,-50.37305 0,0 -8.30137,-17.95707 -7.92187,-27.32422 0.37995,-9.36715 4.94921,-31.89648 4.94921,-31.89648 z m -288.17187,4.67773 c -0.14676,0.004 -0.24651,0.12241 -0.28906,0.37305 -8.40062,19.2079 -8.47259,82.4386 -8.01368,80.52148 l 11.56641,-11.21679 16.63867,-15.90821 c -0.24124,0.42492 -10.07374,-31.27238 -11.48437,-37.75 -1.18026,-5.41834 -6.99932,-16.06163 -8.41797,-16.01953 z m 68.21484,33.20899 c -3.69253,-0.0348 -7.36954,0.47918 -10.86133,1.64843 -10.21194,2.11929 -14.63755,11.99019 -21.33593,18.15625 -9.10768,2.9177 -19.53493,3.85868 -26.3125,11.48047 -8.00717,4.84516 -6.89769,15.96184 -13.63282,20.79883 -7.87763,2.26509 -13.81345,10.40994 -12.96875,18.63281 4.0328,10.40725 -7.85886,16.28268 -8.4375,26.24219 -3.40499,8.42184 1.90301,15.81595 3.56446,23.7207 0.52548,7.93571 -10.95376,21.34316 -4.26009,26.29624 2.86694,11.02541 -2.22634,19.91031 6.64862,28.11848 -5.88237,10.29443 23.07316,-4.01403 25.04836,3.37354 -8.07632,20.88791 8.27214,35.82507 21.03576,32.23323 10.55207,-0.009 21.1454,-4.15868 29.40821,-10.42578 -7.88739,2.13207 -16.27542,2.21727 -24.35352,1.24218 -10.46634,-0.68521 -19.07241,-11.25839 -15.94531,-21.65429 5.88479,-8.75533 -13.39398,-35.75705 -2.44727,-54.90625 -8.48337,-15.54175 -7.5146,-40.10389 7.04297,-53.83594 7.46789,-11.82813 14.33689,-30.72998 29.02735,-33.92578 5.37853,-16.00094 22.4081,-24.81393 38.16015,-27.41211 1.46302,-1.96807 0.38396,-4.44056 -1.58008,-5.52539 -5.45026,-2.61582 -11.64656,-4.19979 -17.80078,-4.25781 z"
         transform="scale(0.26458333)"
         sodipodi:nodetypes="cccccccscccccccccccccscccccccccccccccccccs" />
      <path
         id="path4115"
         style="display:inline;fill:none;stroke:#999999;stroke-width:2.11667;stroke-linecap:round;stroke-linejoin:round;stroke-miterlimit:4;stroke-dasharray:none;stroke-opacity:1"
         d="m 177.55135,80.956999 c -1.40842,5.258904 1.13037,6.08671 0.64235,9.401535 -0.20697,1.405898 -1.84487,3.91428 -1.73773,5.216867 M 103.24099,55.488678 c -5.206123,2.012791 -5.000055,6.771966 -4.537337,9.880606 -4.87279,3.725587 -5.851003,11.037511 -2.203997,15.608077 -2.826657,5.270432 -0.494653,7.939509 0.480177,11.478849 m 2.843763,-38.852065 c 0,0 -0.48641,-3.405351 -1.951033,-9.043434 m 76.376857,14.79411 c 4.03677,2.948648 3.82799,6.238811 3.76516,10.685994 1.06358,3.434203 2.33477,4.777103 -0.37777,11.12167 M 155.87633,46.124707 c -1.68748,-3.520524 -6.05064,-1.908023 -7.50893,-0.140741 -2.26602,-1.160824 -7.26556,-4.731345 -13.46649,-1.018911 -0.71729,-1.711522 -11.46799,-2.388367 -17.23083,3.678372 -8.69691,-3.577039 -14.21613,3.318729 -13.28513,4.419655 -3.57299,-0.7285 -8.922418,2.090902 -9.946624,6.793345 0.59359,-0.635444 -6.87004,3.436343 -3.73032,8.071968 -3.244314,3.198332 -2.937191,7.402246 -1.504747,9.899888 m 17.430921,-28.41137 c 0,0 -1.56217,-2.47318 -3.13957,-4.450266 -3.10611,-3.893185 -3.890955,-7.379094 -5.326089,-8.161444 -1.76482,-0.962012 -3.629012,0.854714 -3.629012,0.854714 -2.769724,3.468333 -1.214223,14.508491 -2.137615,23.583374 m 53.822486,-8.896227 c 1.70921,1.608749 1.12284,1.015728 5.2585,3.193336 1.81393,0.955126 3.00679,4.576196 3.53672,6.359328 0.90843,1.957299 3.12414,1.989569 4.68338,3.315479 1.24929,0.624218 5.59062,4.814851 6.13481,7.819595 5.2475,3.465904 4.69241,3.290765 6.23525,7.78575 m -5.66409,-10.822948 c 2.88096,-5.281808 5.1952,-15.538359 4.75772,-20.993496 m -0.24489,-13.47192 c -2.17764,4.647236 -4.26166,9.53931 -4.63388,12.185886 -1.00389,7.137205 -0.6233,7.121086 -2.42451,19.993837 m 7.15067,8.819171 c -0.39027,-3.677953 1.38236,-12.361862 2.35791,-16.14919 0.94747,-6.411603 2.56082,-5.29863 1.89108,-12.136141 0.47862,-4.948505 0.61678,-9.482495 -0.92304,-13.043884 -1.15898,-2.407401 -1.29695,-7.294231 -4.60947,-6.060322 -2.96135,1.103121 -4.17659,6.779824 -7.78402,11.375857 -5.21358,6.642334 -8.36304,6.221319 -12.24806,13.246752 m 4.05344,40.857165 c -0.57102,1.647737 -8.51453,5.074602 -11.19232,0.737045 -1.7041,1.241482 -8.51286,7.583136 -16.88875,2.749953 -2.74085,3.908733 -8.5148,2.450903 -11.68957,-0.944135 -10.709,10.951728 -21.796642,5.244918 -17.703053,-3.371138 -1.97092,-0.403975 -5.678596,-4.198525 -4.927628,-9.433738 -2.242298,-0.89898 -1.995232,-3.875961 -1.991763,-6.177136 m 1.667012,-10.503489 c -2.405809,3.614753 -3.68112,7.276002 -1.643464,10.890755 -1.270519,1.240929 -2.890007,5.171411 -2.617456,6.915622 0.363546,2.326558 2.171224,2.925945 2.412762,5.090401 0.702963,-0.119795 -0.288637,1.514387 -1.001912,3.741259"
         sodipodi:nodetypes="cccccssssccccccccccccccccccccccccscccccccccccccsscccccc" />
    </g>
  </g>
</svg>
