<svg xmlns="http://www.w3.org/2000/svg" viewBox="0 0 512 512"><defs><style>.cls-1,.cls-2{fill:#fff;}.cls-1{stroke:#fff;stroke-miterlimit:10;stroke-width:5px;}.cls-3{fill:#ccc;}.cls-4{fill:none;stroke:#999;stroke-linecap:round;stroke-linejoin:round;stroke-width:3px;}</style></defs><g id="Rectangle"><rect class="cls-1" x="2.5" y="2.5" width="507" height="507"/></g><g id="Hair"><g id="layer1"><g id="g39595"><path id="path30406" class="cls-2" d="M205.75,12c-11.06-1.63-14.62,2.9-23.38,5.54-15-2-19.44,8.44-20.72,14.9-13.48,2.69-11.7,6.61-11.14,17.94-8.43,5.88-9.07,10.29-4.26,19-12.39,11.46-8.27,15.43,1.3,22.26-10.15,13.73-1.8,24.08,11,19.76-12.27,9.09,3.1,18,15,13.21,3.29,1,8.41,5.63,11.94,5.13,14.15,7.61,21.8,9.49,31.74.19,8.89,5.29,14.16,1.7,22.38.62,11,4.25,19.11-5.62,28.55-7.09,8.51,9.17,18.28,7.9,26.06,8.77,1.44,2.33,9.12,2.94,10.16,3.61.46.32,4.46,5.58,6.65,7.4.56,3.74,1.23,10.12,8,11.17,15.68-7.34,15.51-15.1,15.72-19.57,15.88-3.2,15.55-9.33,7.67-18.59,16.45-4.88,7.26-12.34,4.74-20.42,16.43-7.71,6-18.23,3-25.46,9.69-14.43-17.21-31.2-15.44-30.87,6.48-18.44-18.93-27.75-29.1-25.94-15.43-19.47-31.13-6.48-38.39-4.84-27.45-9.92-24.82-.09-34.67.93-3.5,0-26.44-3.8-26.74,2.31Z"/><path id="path201067" class="cls-3" d="M153.74,50.89s-.15,0-.35.19c-12.21-1.07-12.93,11.64-8.92,16.75-2.5,5.41-6.24,11.8-4.77,16.64,10.65,7.84,3.8,8.46,4,20.31.53,9,11.81,5,12.48,6.2.52,1-4,8.15,1.93,12.07,3.22,2.15,13.08,1.49,14.69,2.72,3.94,4,10.12,1.61,13.16,2.85,10.6,6.9,18.46,8.56,28.52,3.72,1.85-.9,2.84-2,1.86-4.29a16.17,16.17,0,0,0-1.57-2.9c8,6.43,13.34,10.88,25.61,3.87,5.08-.55,11.88,4.1,19.18-.53,3-1.19,6.86-7.33,10.77-10.53-8.7,12.85,17.74,13.28,24.4,13.81a26.39,26.39,0,0,0,9.65,4.24c5.67,6.94,7.39,18.08,16.14,16.34,14.16-2.34,11.13-15.79,14.2-16.84,10.82-3.71,12.53-8.88,11.43-11.55-2.52,5-10.4,8.88-13.54,4-1.3-2-13.58,8.77-14.5,3.63s9.23-9.48.37-5.35c-20.14,10.29-15.61-6.61-22-2.91-12.81-.35-11.72-10.65-9.94-13,5.14-6.78-1.09-7.41,2.6-12.67,5.68-8.11,1.28-10.41.06-16.7,0,0,.16,7.67-1.26,12.31s-6.68,4.48-6.68,4.48c2.64,11.34-8,28,1.07,12.55-7.67,4.94-15.07-2.35-17.88,3.9-6.95,15.42-18.32,4.56-25.06,7.6-15.29,6.91-18.15-4.64-25.56-3.24-12.59,2.4-9.54-13.59-12.62-9.74s1.31,15.75,11.46,15.31c-4.13,1.24-5.32.34-10.48-2.42-8.94,9.77-14.38-1.82-17.39-1.58-12.83,1-5.14-13.42-10.31-12.39-5.32,1.07-11.86-8.66-7.56-14.53,1.5-2-7.29,8.14-8,8.56-6.78,8.16-10.53.09-10.48-6.09,0-1.11,1.41-3.45,1-4.56-6.31-5.92-7.92-13.13-.9-22.36-5.29-8.51,5.51-17.78,5.14-17.83Z"/><path id="path275394" class="cls-4" d="M306.37,15c5.5.77,18.18,9.9,14.14,20.49,5.68,1.13,9.26,13.56,5.1,20.09m-56.89,67.93c6.12,8.54,21.93,9.87,25.49,8.23,9.06,8.33,21.43,3.4,27.35-5.35m-16.5,10.95c-.59,4.66,11.78,9.33,19.38,2.8M200.28,114.4c-.72,3.32,4.52,11.3,13.69,10.21,5.73,10.88,19.44,10,26.33,4.52,15.55,5.42,28.78-5.26,29.75-12.81,14.92,1.06,14.64-9.78,9.3-17.91,11.23-1,12.18-12.3,7.31-18.62m-69,50.89c-12.62,8.53-25.26,5.65-31.14-1.54-14.34,1.5-14.89-9.91-13.72-17.07-13.95-4.47-14.5-13.51-6.92-19m8.91-44.66c.13-9.23,3.92-15.49,12.46-17.87,2.47-8.58,7.52-11.42,13.84-11.43,7.32-15.87,25.06-11.7,31.6-8.85,11.82-10.1,30.79-4.69,34.28-1,11-7.43,33.32-6.77,38.52,5.17,20.45-.3,36.2,13.29,28.9,25.43,4.87,2.89,23.16,13.44,14.45,31.48,6.4,4.71,8.36,10.19,7.42,14.84s-5,8.71-10.47,10.07c5,5.47,12.53,18-3.21,19.81,12.57,13-2.71,21-8.62,18.62.22,9.91-6.27,17.54-15.74,19.54M173.41,125c-8.75,3.24-28-2.84-15-12.86-9,1.7-22.08-2.76-10.19-20.11-7-2.94-17.94-12.52-.54-23.77-.59,3-15-9.47,3.29-17.72-1.45-9.93-.79-16.9,10.05-17.28-.61-10.53,13.54-16.08,21.68-14.38,6.16-9.2,18.54-9.45,22.73-6.52"/></g></g></g></svg>