<svg xmlns="http://www.w3.org/2000/svg" viewBox="0 0 512 512"><defs><style>.cls-1,.cls-2{fill:#fff;}.cls-1{stroke:#fff;stroke-miterlimit:10;stroke-width:5px;}.cls-3{fill:#ccc;}.cls-4{fill:none;stroke:#999;stroke-linecap:round;stroke-linejoin:round;stroke-width:3px;}</style></defs><g id="Rectangle"><rect class="cls-1" x="2.5" y="2.5" width="507" height="507"/></g><g id="Hair"><g id="layer1"><g id="g154583"><path id="path13890" class="cls-2" d="M350,173.56l-4.27-11.35,1.11-17.91-4.39-8.58c-.93-10.26-.68-22.65-5.49-25.91-1-14-4.18-20.47-8.71-22.31-.51-19.74-4.6-18.79-7.9-25.08-3.1,8.35-6.82,28.6-8.76,38.47-1.28-8.13-7.78-11.78-15.35-14.27C285.9,74.17,272.06,61.15,273.4,59c5.58-9.16,11.26-10.14,17.73-17.81-4.63-1.41-10.41-5-12.59-1.68l-17.18-5.35L254.68,36l-15.92,2.84-13.84-2.5-29.27,8.21-2.71,5.3-5.68,6c-15.36,6-7.2,12.28-19.07,13.74,0,0-7,5.55-8.24,12.33a30.79,30.79,0,0,1-5.88,12.39l1.73,6s.14,12.63-2.47,18.22-7.59,17.81-7.59,17.81c-.11,5.22,2.18,9.39-2,16.4-.57,6,1,12-3.45,18-.06,10.19,4.59,11.66,11.16,9.6,2.88,10.67,8.7,6.63,14.76,6.28,2.72-2.34.36-11.08,3.66-11.53,7.7-1,4.77-13.36,4.36-13.49,0,0,1.75-2.48,4.88-10.11s.06-15.49,2.62-17.3,5.64-13.34,5.64-13.34,4.63-2.43,1.7,6.7,2.58,18.69,2.58,18.69.49,11.93,2.55,14.81.75,16.82,6.47,18.39c6.79,1.88,14.29,9.17,13.13,4.18,1,.19,10.73-12,7.33-18.65-1.68-3.29-5.12-2.39-1.26-11.35,4.22-9.78.85-9.44.34-15.65S226,124.27,226,124.27l-2.2-6.18,2.56-7.12s1.65,2.51,3.19,9,11.92,10.72,12.71,12.13-2,6.66,2,10.41l10.68,10.12c-1.86,1.34,3.9,8.37,9.41,11.18.39,6.54,12.23,12.93,12.23,12.93,3.93,5.52,4.37,11.61,14.26,5.86,8-4.65-1.53-10.67-.54-11.94l1.21-7s9,3.11,11.45,10.88,10.35,10,14.45,6,4.78.64,4.78.64,3,4.88,7.64,1.46,5.52-6,5.52-6,3.3,9,15.47-2.07"/><path id="path85115" class="cls-3" d="M312.4,95.66c.11,0-.68,2.1-.62,2.08-1,2.73-1.13,3.62.56,5,11.56,9.34,7.27,12.39,10.94,23.22,1.74,5.13,5.76,9.93,7.88,14.93,1.53,4.53-3.61,11.91,3.63,20.58,0,2.64-4.92,14.31,3.65,16.35,10.66,2.54-4-20.61-3.46-26.12.46-4.51-1.05-12.82-3-17.42-3.09-7-6.67-9.64-6-18.75-.32-4.57-3.19-12.5-9.14-15.41-.9-4.26.42-6.6-3.41-9.26Zm-15.62-9.38c-14-17.92-21.37-24-22.58-28.55l-3.51-1.3c-4.75,3.89,2.58,16.26,9.43,32,1.15,2.64,8.36,4.47,9.1,5.41-2.31,6.13,1.4,13.18,5.07,15.4,4.23.17,11.91,9.75,13.53,9-.91-7.4-14.13-10.51-12.35-21.29,1.07-4.84,7.14-3.6,13.62.38,1-8.25-6.85-8.56-12.31-11ZM170.07,68.88a52.18,52.18,0,0,1-6.52,3.87c-2.66,1.18-4.25,11.92-6.05,16.52s-4.73,5.29-4.73,5.29l2.11,10.55s-.93,13.28-4.61,19.67-2.7,16.35-2.53,19.73-2.49,6-5,10.61-.7,12.46-.7,12.46-1.74,2.91-1.18,9.32,11.31,4.84,11.31,4.84c-4.38.24,3.41-23.47,3.3-21.76s-6.06-17.39,6.65-30.65c.3-4.85,5-26.59,12.31-24,2.66-7.35,4.41-16.9,9.7-17.85l-5.51.51c-7-6.68,2.57-9.27,5.56-13.88C169.74,76,180.71,63.05,187,59.69c2.11-1.45-7.23,2.57-7.23,2.57C179.13,58.77,171.33,70.59,170.07,68.88Zm64.47-32.14a11.28,11.28,0,0,0-3.55.72c-5,3.26-5.83,9.42-12.36,10.5-6.68,3-7.16,13.13-14.93,15.06-6.17,6.41-2.26,9.7-7.21,14.18-1.94,4.28-2.83,4.79-5.61,8.81-2.14,3.88-.58,10.35,0,14.14-1.93,5.71-6.18,8.63-5.89,15.08-.39,13.57-6,14.1-7.92,19.18-1.61,4.63-2,4.92-1.2,10.06.66,4.5-1.4,10.39-5.26,12.44-3.38,6.83,2.15,12.56-2.54,19.37-1.27,6.61,7.83-2.83,6.67-5.34-1.59-5.94,1.63-12,4.19-16.8,1.88-2.81,5.93-22.62,8.55-22.79l2.32-4.6c3.5-2.94,4.22-16.18,5.86-20.14,3.07-4.92,1-7-.51-12.75-.58-6.59,8-14.87,7.76-21.44,0-5.5,5.89-9.25,11-7.91,2.34-4.09.57-10.67,6.11-12.92,4.93-1,11.08-.6,12.07-7.13.3-2.88,9.24-7.06,2.53-7.72Zm15.73,44.51c-.11,0-.17,0-.19,0,1.32,3.47,2,16.18,1.92,18.89,12.78,6.45,11.71,8.55,14.51,19.68,1.63,5.66,11.1,9.33,11.53,10.61,1,3.87,1.21,9.7,3.2,13.22,15.07,10.15,6.62,11.72,10.68,18.59,9.08,3.29,9.72,11,13.18,17,1.87,3,7.27,5.5,10.23,2.17-9.89-2.85-7.19-11.34-11.11-16.62-9.43-5.26-9.32-7.44-12.35-18.4-1-3.72-7.65.78-11.18-14.23-.53-2.25-4.66-10.46-10.32-13.4-4.08-2.11,2.39-8.55-6.13-15.88-3.14-2.69-5.7-2.69-7.54-9.38-2.81-10.19-5.67-12.08-6.43-12.28Zm-22.46,26.67c-2.64,7.46-5.32,11.21-2.85,17.16,3.3,3.73,9,1.71,9.14,8.16L244.15,144c2.69,13.87,7.87,2.48,9.82,9.23,2.93,10.17,6.8,13,11.27,11.06.51,10,6,9.09,12.09,12.36,1.54,6,3,12.7,11.2,5.67-8.5.63-5.86-8.27-8.75-8.83-5.87-3.57-12.61-5.85-13.22-11.14,0,0-9.6-4.83-9.82-12.87-.2-7.74-5.78,4.78-8-8.23-1.46-8.64-6.4-7.55-9.31-11.35s-.12-5-11.66-22Zm-34.35,2c-4.61,5.29.3,5-4.93,18.62-1,2.49-1.14,10.15,1.84,15,2.5,4.05.83,6.59,1.09,11.05.21,3.48,3.14,5.38,4.06,8.46,3,10-5,12,7,16.32,2.56.93,8.8,5.51,10,3.87-5.35-2.26-4.31-6.93-6.1-7.52-8.45-2.81-3.79-11.1-8-15.35-6.2-6.19.58-11.92-3.28-19.15S201,124,193.46,109.91ZM311,126.05c-1.41.08-1.37,7.21-1.28,8.33.49,4.72,3.35,6.3,6.1,9.91,2.43,3.14,2.38,5.86,2.09,9.8a23.14,23.14,0,0,0,2.82,11.81c2.24,4.82.71,11.1,4.92,15,1,1.22,2.79.71,3.65-.41-4.41-2.88-5-5-4.16-10.42,1.21-7.44-6.81-6.31-3.36-19.25,2.06-7.73-9.82-12.37-10.3-24.58A.69.69,0,0,0,311,126.05Z"/><path id="path2845" class="cls-4" d="M333.78,176.08c7.79,8.68,20.7,1.75,13.27-9.57-5.62-7.74,4.43-21.42-3.85-28.89-4.56-9.22,1.48-20.24-7.3-28.52.16-11.16,0-17.45-8.29-23.11.93-9.21-1.32-18.73-6.59-22.85M291.27,163.27c7.43,1.9,11.71,5.17,12.59,13.59,3.61,12.88,20.15,6.71,17.47-7.73-1.68-7.82-5.91-4.09-3.36-16.1,2.07-9.72-10-11.48-8.43-20.33.85-4.67-1.49-17.25-10.89-21.94-4.41-.23-8.51-2.07-9.52-11,.28-10-11.66-3.08-11.91-19-.7-3.42-3.12-6.17-5.51-8.58m-47.35,47.2c-.39,7.88,8.33,2.49,9.49,12.31.44,9.68,11.31,2.48,11,15.73-.24,9.39,9.14-1.13,9.59,6.13.77,12.29,10.44,7,10.64,13.14.34,10.25,12.58,5.54,12.63,12.18.09,11.5,20.06,7.35,15-4.26-5.68-5.87,1.7-13.91-2-22.07-3.41-6.38-13.21-7.11-10.89-16.35-.76-8.49-10.39-11.52-14.22-16,1.34-9.6-6.13-18.67-14.23-19.73,1.89-8.16-.41-20-9.39-22.94m-58.2,9.4c-7.61,2.72-7.49,12.56-9.1,17.53-15.76,3.52-8.85,19.55-14.33,26.23-6.23,7.36-8.81,14.27-6.42,22.14,3.05,10-4.09,14.42-3.49,20.77.15,7.6,6.28,18.41,15,13,5.68-2.51-1.73-6.5,7.73-12.63,5.94-2.74-2.69-11.47,3.69-15.42,6.55-8,.19-18.58,8.9-24.53m-4.41-58.67c-8.91.71-16.23,8.78-17.25,15,.36,7.72-10.86,8.11-10.06,22.63,1.44,13.4-5.53,11.65-7.5,21.46-.95,7.17,2.48,12.75-3.21,19.91-3.92,4.93,2.12,11.76-2.91,17.12-2.24,7.21,4.53,12.28,11.33,9.93m54-133.77c-7.17,0-15.81,2.65-18,10.33-10.56.53-11.29,13.44-21.64,13.56-8.5,4.53-2.85,14.42-11.23,21.12-2.26,1.61-1,10.48.63,11.6m84-63.72c-7.52-8.87-21-.23-29,.72-6.24,1.22-15.77,1.08-18.07,9.11M321.57,176.37c3.42,12.9,15.89,4.92,11.19-7.77,7.31-7.93-5-12-1.58-19.14,3.43-10.62-7.39-16.86-8.88-25.42,1.32-10.5-3.79-20.47-10.27-21.09.29-9.88-10.12-15.43-16.33-16-3.32-14.57-7.91-12.55-13.09-15-1.08-3.14-6.19-10-9.54-12.06M223.63,99.1c3.51,6.51,4.31,14.32-1.08,19.92,8.72,7.9-6.71,14.56-.78,22.66,5.58,7.63-9.3,15.51-1.06,23.41,5.95,5.72-2.63,17.11-6.94,19.13-6.92,3.25-7.9-4.68-11.44-4.47-11.35-2.87-2.06-13.65-9.79-21.17-4.47-4.36,2.44-8.8-2.07-14.84-6-8-2.43-11.72-2.34-18.89-5.68-6.49,5.39-20.75,8.4-25-8.65-17.37,6.65-15.63,5.28-25,.76-5.47,7-13.81,12.4-10-2.4-8.48,8.66-17.5,14-13.86,1.1-4.85,6.15-15.18,11.68-9.65,5.26-8.38,11.67-3.4,15.08-4.6,10.45-6.68,11.89,4.35,26,1.09,7.36-1.08,6.27.71,10.14,3"/></g></g></g></svg>