<svg xmlns="http://www.w3.org/2000/svg" viewBox="0 0 512 512"><defs><style>.cls-1,.cls-2{fill:#fff;}.cls-1{stroke:#fff;stroke-miterlimit:10;stroke-width:5px;}.cls-3{fill:#ccc;}.cls-4{fill:none;stroke:#999;stroke-linecap:round;stroke-linejoin:round;stroke-width:3px;}</style></defs><g id="Rectangle"><rect class="cls-1" x="2.5" y="2.5" width="507" height="507"/></g><g id="Hair"><g id="layer1"><g id="g53230"><path id="path46286" class="cls-2" d="M178.49,137.65c-12.07,2-18.33,7.84-6-23.55-27.77,5-6.68-26.68-4.44-30.72-33.74-6.28-.15-26.1,7.85-37.23-27.08-4-4.47-16.68,27.42-24C179.33,9.64,214,6.72,231.23,11.62c14.27-13.14,25.91-5.28,31.28-1.43,13.91-14.07,31.32,7.21,28.1,7-.71-1.17,16.73-1.11,15.76,3-5.52,4.93-8,13.81-12.93,19.42C287,46.9,278,51.62,278.61,54.29c1.7.33-3.81,6.66-1,11.61,2.09,3.67,6.56,11.59,9,16.14,8.1,3.08,18.76,16,24.5,17.86.21,3.81,4.27-28.26,7.4-35.59,1.74-4.93,1.46-8,1.21-11.53,1.4-12.57-1.33-18.77-1-19.87,3-9.07,16.76,17.35,10.79,23.54,6.72,13.42,2,19.26-2.11,29.87,4.26,12.37-1,20.06-4.58,25-.14,5-.14,18.35-3.39,20.25-9.27,3.86-26.35.31-35-5-10.41,2.31-7.27,3-18.7-1-10.12,1.87-7.12,2.26-16.84-.83-4.76,17.67-16.17,7.58-17.45,8.72-2.9,10.76-13.83,21-19.19,7C197,166.71,176.72,160.31,178.49,137.65Z"/><path id="path373409" class="cls-3" d="M209.24,9.66c-10.81.12-19,2.59-9.59,11.52-24.29,9.46-54.18,19.33-23.37,24.74-20.48,17.66-36.55,37-7.33,35.38-6.22,10-23.13,42.5,4.69,31.46-11.17,24.33-10.56,33.69,6.6,22-2.43,34.79,20,25.18,32,5.84,8.36,12.49,17.89-2.47,17.69-8.7.11,3.6-13.43,11.18-16.31,1.1-19.68,16.24-32.75,15.09-30.31-1.4,1.67-11.32-18.88,11.86-3.83-21,5.62-12.26-26.82,4.34-5.32-28.9,8.34-12.89-25.79-1.39,7.78-33.74,6.13-5.9-25.66-11.43,26-23.3,8-1.82-23.71-11.31,24.28-12.94A139.93,139.93,0,0,0,209.24,9.66Zm40.38,106.85c-4,7.23-9.62,15-15.88,7.31l-2.18,8.09c-.23.93,11.65,6.09,17.13-6.38,2.12,2.15,13.46,3.76,17.76-.22C273.66,128,278,129.15,284,127.9c4.64,3.33,23.33,7.33,37.38,1.94l2-5c-6.52,3.8-16.55,5.6-17.53-3.26-1.81,2.08-16.91,7.12-16.1-2.4-16,9.81-21.57,1.68-20.72-1.21C259.62,124.68,252.1,119.76,249.62,116.51Z"/><path id="path36882" class="cls-4" d="M277.3,50.63c1.51,5.38,1.29,12.09-2.12,16,5.42,1.18,11.67,11.55,9.56,16.27,8.89,1,16.71,6.86,17,13.2,8.17,2.07,7.07,1.39,10.52,8.32m-47,20.24c10.5,7.89,20.79,2.35,24.31-4.52m-41.16,4.22c16.8,9.15,22.88-6,20.52-15.08M232.4,133.13c14.45,8.61,18.79-16.16,15.42-24.17m-34.24,27.76c-.33,21.27,20.65,4.45,17.42-8.4,4.62-4.52,7-18.43.45-31.49m-17.76,35.43c-1.65,24.84-39.11,41.76-33.3,1.87-23.48,20.34-13.91-11.63-5.59-22.22-21.63,12.9-23.15-11.92-5.19-30.44-13.23,4.29-31.25-6,7.65-35.68-32.48-.18-4-20.9,27-23.15C173.19,9.71,225.51,6.21,231.81,11.16c16.57-12.49,23.4-5.88,31-.82,14.92-10.58,22.45-1.46,28.24,6.29a31.57,31.57,0,0,1,16.11,3.92m11.26,11C332.2,34.79,331.9,46.59,328.82,57c4.56,3.21,8.78,19.36-1.81,30.66,3,7.74,3.24,15.73-4.5,24.4,2.31,8.28,1.29,14.55-2.48,18.24m-12.31-9.8c-3,4.55-9.3,9.59-19.42,8.11"/></g></g></g></svg>