<?xml version="1.0" encoding="UTF-8" standalone="no"?>
<svg
   inkscape:version="1.1.1 (3bf5ae0, 2021-09-20)"
   id="svg8"
   version="1.1"
   viewBox="0 0 145.52083 145.52084"
   height="550"
   width="550"
   xmlns:inkscape="http://www.inkscape.org/namespaces/inkscape"
   xmlns:sodipodi="http://sodipodi.sourceforge.net/DTD/sodipodi-0.dtd"
   xmlns="http://www.w3.org/2000/svg"
   xmlns:svg="http://www.w3.org/2000/svg"
   xmlns:rdf="http://www.w3.org/1999/02/22-rdf-syntax-ns#"
   xmlns:cc="http://creativecommons.org/ns#"
   xmlns:dc="http://purl.org/dc/elements/1.1/">
  <defs
     id="defs2" />
  <sodipodi:namedview
     borderlayer="true"
     units="px"
     showgrid="false"
     inkscape:document-rotation="0"
     inkscape:current-layer="layer1"
     inkscape:document-units="px"
     inkscape:cy="277.85714"
     inkscape:cx="242.14286"
     inkscape:zoom="0.7"
     inkscape:pageshadow="2"
     inkscape:pageopacity="0"
     borderopacity="1.0"
     bordercolor="#666666"
     pagecolor="#585858"
     id="base"
     inkscape:pagecheckerboard="1"
     inkscape:snap-global="false"
     fit-margin-top="0"
     fit-margin-left="0"
     fit-margin-right="0"
     fit-margin-bottom="0"
     inkscape:window-width="1280"
     inkscape:window-height="967"
     inkscape:window-x="0"
     inkscape:window-y="1"
     inkscape:window-maximized="1" />
  <metadata
     id="metadata5">
    <rdf:RDF>
      <cc:Work
         rdf:about="">
        <dc:format>image/svg+xml</dc:format>
        <dc:type
           rdf:resource="http://purl.org/dc/dcmitype/StillImage" />
      </cc:Work>
    </rdf:RDF>
  </metadata>
  <g
     id="layer1"
     inkscape:groupmode="layer"
     inkscape:label="Layer 1"
     transform="translate(-65.996687,-92.135335)">
    <g
       id="g45110"
       inkscape:label="hair4"
       style="display:inline"
       transform="translate(6.7542198,89.534252)">
      <path
         style="display:inline;fill:#ffffff;fill-opacity:1;stroke:none;stroke-width:0.264583px;stroke-linecap:butt;stroke-linejoin:miter;stroke-opacity:1"
         d="m 126.35059,98.650313 c 1.24828,0.618228 -3.27165,16.677517 -9.82261,20.014277 -1.23254,0.6278 -6.79118,1.63246 -7.55111,-0.11839 2.60725,-1.18815 2.78099,-11.47739 0.34711,-10.19592 -0.67335,2.99787 -6.35379,7.31622 -7.75583,5.55387 -0.64525,-1.04004 1.47991,-5.92871 1.40725,-7.17763 -1.28699,-3.11338 -4.614492,-7.567884 -7.51777,-9.120449 -4.570046,3.997739 -11.352667,4.349979 -14.105162,0.819111 6.369846,-3.920807 7.606443,1.576418 4.701179,-20.622914 -3.137837,-0.479925 -7.737944,-0.593578 -8.291467,-5.128248 11.133836,1.394618 10.601389,-8.464621 14.45815,-17.420184 0.471816,-1.0468 -0.33999,-6.998707 -0.438404,-8.100908 0.876076,-3.443511 -1.37698,-11.122075 2.748527,-12.889522 7.339577,-2.153721 6.152977,11.733301 11.331377,12.307499 2.67311,-1.415829 9.92169,-2.170658 11.73957,-3.289742 6.18308,-6.668265 9.52948,-3.877479 18.53537,-2.941413 9.71386,-4.825532 15.54121,0.693177 21.34743,5.195853 3.69743,-1.029169 5.41335,-7.185145 6.8336,-9.588624 1.01498,-1.661742 5.16048,-5.985793 7.43834,-4.576609 1.87264,1.158505 1.70661,4.783852 2.02588,6.656885 0.5813,3.41022 2.23237,6.6914 2.29047,10.188522 0.0564,3.395721 -1.65991,6.688672 -1.51186,10.101434 1.85,2.242874 4.21701,4.837019 4.83039,7.537376 1.0947,5.389481 -1.95362,10.394058 0.71057,15.655295 0.87257,1.72316 5.0262,1.147699 5.29906,2.544712 -0.84381,4.464686 -5.56973,2.41092 -7.82387,1.567463 -0.51621,8.325088 9.88191,4.448356 8.64896,7.395955 -3.19309,4.509646 -8.66745,3.667976 -13.19209,2.821616 -1.61846,-0.342972 -3.66404,-2.953252 -5.49742,-4.678628 -3.00135,2.483786 -7.18099,2.157024 -10.82308,-0.01409 -3.18268,1.505216 -7.02908,1.700562 -10.06661,0.634592 -4.96005,7.779717 -12.12516,10.940168 -20.29595,6.868811 z"
         id="path41555"
         sodipodi:nodetypes="csccccccccccccccccsssccscccccccc" />
      <path
         id="path318145"
         style="opacity:1;vector-effect:none;fill:#cccccc;fill-opacity:1;stroke:none;stroke-width:0.500001;stroke-linecap:butt;stroke-linejoin:miter;stroke-miterlimit:4;stroke-dasharray:none;stroke-dashoffset:0;stroke-opacity:1"
         d="m 355.00586,139.08594 c 0,0 -4.65554,0.17011 -6.26953,8.23047 -1.614,8.06036 1.61392,16.6958 -0.82031,34.20507 -2.43422,17.50927 0.89843,23.87696 0.89843,23.87696 l 25.7461,-9.17774 c 0,0 -6.19165,-8.57023 -8.65235,-12.16015 -2.46069,-3.58991 -8.78562,-24.95919 -10.90234,-44.97461 z m 289.30469,19.04687 c -0.17466,-0.0102 -0.35868,0.0262 -0.55274,0.11133 0.12964,-0.0576 -28.54061,61.03192 -55.68945,56.16016 -12.62782,-2.26602 -8.65625,-23.17188 -8.65625,-23.17188 l -16.02149,13.20313 -9.20507,-0.98047 c 17.86359,12.52787 12.76864,30.79497 25.18359,46.93554 24.45899,14.25421 34.93819,20.82163 42.05859,43.96876 11.49642,-1.91078 20.31483,2.62372 29.85938,5.4121 0,0 4.86842,-5.78509 -8.62109,-11.74804 l 4.15234,-24.49805 c -3.49043,15.75778 -17.22428,-18.29293 -8.92383,-39.56445 8.00774,-20.5215 11.83053,-65.51223 6.41602,-65.82813 z m -232.98438,17.61328 c 0,0 -17.87509,10.82202 -21.5,16.61329 -3.62491,5.79124 -19.6328,9.88867 -19.63281,9.88867 0,0 18.46941,-1.65883 23.33789,8.53515 12.43283,28.27266 -15.12934,28.63432 -9.44531,55.03321 l 16.25195,-22.88086 -8.76562,15.48437 c 14.64421,-15.58195 29.98487,-8.20252 31.7832,-14.12109 2.7761,-9.13651 -17.33497,4.24447 -6.61524,-34.64258 l -9.95898,21.89648 c -2.29545,-11.13538 1.93538,-21.65702 17.125,-33.80859 -6.66769,2.70937 -15.50329,5.942 -22.14453,-2.45703 -6.64123,-8.39902 9.56445,-19.54102 9.56445,-19.54102 z m -70.34179,57.19336 c -8.79307,38.92962 -47.59216,46.12563 -47.73243,41.9961 0,0 -2.70009,7.72156 7.67188,10.5664 10.37197,2.84485 26.2207,9.17774 26.2207,9.17774 -3.29673,16.4281 13.43633,60.11906 0.5293,67.86914 -7.01167,3.52217 -21.2461,11.10937 -21.2461,11.10937 16.93547,13.98748 32.60157,6.52699 54.32032,-4.53906 l -0.25,-6.12695 c 1.4072,6.64665 4.18074,13.40588 9.48828,18.45898 15.11723,14.39252 24.28635,22.82106 19.0664,33.78906 -5.21994,10.96804 -10.57146,19.94906 -4.06054,19.03907 6.51088,-0.91004 29.22461,-22.36719 29.22461,-22.36719 0,0 4.59958,28.80971 6.86523,16.5957 2.72851,-14.70933 -6.61641,-65.18244 -9.35351,-78.88476 -2.75766,-13.80517 -8.88682,-30.1484 -16.31446,-41.42774 -7.42764,-11.27933 -12.51758,-30.03125 -12.51758,-30.03125 0,0 9.99124,42.02909 6.67969,57.25977 -3.31158,15.23069 -13.09599,29.04746 -20.97265,12.88281 -7.87668,-16.16464 -8.56055,-9.49609 -8.56055,-9.49609 0,0 -0.21977,1.74304 -0.40039,3.25 l -0.0879,-2.13672 c -1.45601,-1.58959 -6.97729,4.40189 -14.97657,-1.93164 -10.20906,-8.08316 -4.61122,-38.07787 -0.98632,-49.05078 3.6249,-10.97291 13.24609,-24.26172 13.24609,-24.26172 2.94508,-6.61134 -1.71417,-10.9108 -15.69531,1.82226 -5.13481,-1.88715 -6.55863,-8.95653 -0.1582,-33.5625 z m 214.8496,24.00586 c 3.416,29.78273 4.9721,75.80675 37.88477,60.13867 -8.87605,-7.06495 -19.3904,-6.57642 -20.20898,-23.76562 -0.98717,-20.72931 -16.66321,-36.96668 -17.67579,-36.37305 z m -23.38867,83.18164 c 7.79072,-1.57811 13.99752,-5.31126 17.25586,-7.59375 -18.60956,-4.35005 -27.64747,-18.72431 -28.30258,-30.31883 -20.40411,4.76252 -3.62279,38.3205 11.04672,37.91258 z m 17.25586,-7.59375 c 1.14055,0.66028 2.31151,1.27887 3.53906,1.8125 l -1.02929,-3.70117 c 0,0 -0.94329,0.79135 -2.50977,1.88867 z m 3.53906,1.8125 3.49415,12.55469 c 0,0 38.28776,7.31548 38.94921,-19.54101 -17.6523,11.16455 -31.71522,11.64999 -42.44336,6.98632 z m 48.64844,-10.55273 c 1.23736,9.06225 -1.02693,6.90862 -6.95703,17.70703 l -15.87695,8.125 -0.16016,7.61523 c 21.77297,4.22909 43.11307,0.61282 53.17224,-4.76568 0,0 7.57802,11.67534 17.58753,14.35748 10.00955,2.68214 19.84179,0.92188 19.84179,0.92188 -1.07972,-0.5393 -2.14343,-1.09704 -3.19336,-1.66797 16.39817,3.82711 31.00001,-2.21357 35.80079,-8.44141 -25.59372,3.94581 -44.81314,-2.9706 -59.79493,-28.04297 l -6.375,13.08008 c -0.46039,-0.45779 -0.92045,-0.91502 -1.37695,-1.37695 h -5.85742 c 5.7986,-2.93847 8.1519,-6.25237 2.12109,-7.04102 -12.6033,3.40416 -23.89062,-0.19973 -28.93164,-10.4707 z m -128.58203,16.58398 c -4.98202,0.0626 -3.56906,14.62763 -3.71094,17.72852 -0.55563,10.56654 -13.4082,69.5332 -13.4082,69.5332 l 23.41602,-53.50976 c 0,0 49.52631,11.66339 65.56054,-15.70118 0,0 -16.26215,8.8208 -33.57031,8.45313 -22.82305,-0.48482 -39.2167,-24.9438 -37.20313,-26.31445 -0.39128,-0.13243 -0.75184,-0.19363 -1.08398,-0.18946 z"
         transform="scale(0.26458333)"
         sodipodi:nodetypes="cssccscscsccccccccsscscccccscccscscscccccssscssscsscccssccssccsccccccccccccccccccscccccccccsccccscs" />
      <path
         id="path296035"
         style="font-variation-settings:normal;vector-effect:none;fill:none;fill-opacity:1;stroke:#999999;stroke-width:2.11667;stroke-linecap:round;stroke-linejoin:round;stroke-miterlimit:4;stroke-dasharray:none;stroke-dashoffset:0;stroke-opacity:1;-inkscape-stroke:none;stop-color:#000000"
         d="m 173.22576,79.906313 c -2.51907,-4.743194 -6.60453,-1.509367 -8.3547,-7.107536 -1.45979,-4.669382 -5.75009,-5.602102 -9.38468,-7.795071 -0.46616,-7.369481 -6.50129,-10.873409 -9.0879,-11.658709 m -54.20969,1.780969 c -2.3103,-8.32886 0.99183,-9.616777 0.34434,-14.17099 -0.978,-6.878903 4.74087,-8.933844 7.23568,-2.528653 0.91219,2.341957 3.61,6.485929 5.75698,9.110028 m 63.14195,11.689269 c 0.0166,3.10131 -2.46006,12.39815 -3.93464,12.2785 -0.83322,-0.0676 1.09024,-0.12333 -0.66143,-1.29657 -2.37891,-1.59336 -0.17579,-14.42963 1.60635,-18.81924 2.06846,-5.09484 4.12738,-9.86921 4.12738,-9.86921 m 0.63499,34.8035 c 0,0 1.81472,-15.0523 4.32769,-24.11185 2.3103,-8.32886 -1.33757,-11.87797 -1.03562,-16.46806 0.34302,-5.21468 -5.45758,-7.71624 -7.95239,-1.31105 -3.05028,7.83132 -16.60017,19.58362 -16.60017,19.58362 m 28.48212,31.569938 c 0.56671,1.754794 7.7249,3.532475 7.65539,-2.005739 -0.0204,-1.62539 -8.53974,3.366353 -6.24835,-12.05901 1.58677,-7.790718 -1.41162,-9.700465 -5.05897,-14.09196 M 157.8274,45.374312 c -6.9429,-5.824131 -13.9953,-10.245624 -21.94314,-4.751347 -6.00812,0.340386 -9.92322,-5.442666 -18.67621,2.928272 -7.25269,1.661705 -11.20944,1.507786 -14.66315,8.790266 -4.82599,0.320977 -11.91787,1.703735 -13.11163,8.843511 -3.08364,18.443048 -14.063853,7.912895 -12.163653,12.264796 1.89092,4.330665 9.249141,5.14895 9.796041,3.473556 m 90.559642,8.360303 c 1.32971,11.256391 9.58509,4.85415 9.32408,6.834574 -0.90196,6.843403 -11.6345,5.817331 -15.01856,1.953225 m -11.7421,-2.501845 c 2.49055,1.63385 9.46622,0.254708 9.50742,-6.877454 0.008,-1.395115 -7.52302,6.748013 -8.07392,-8.212919 m -35.0219,21.711088 c 6.85258,6.104592 21.84665,-0.624742 19.95085,-10.611734 -0.41606,-2.191813 -9.06829,10.001223 -10.93883,-5.252436 m 11.78736,9.434664 c 4.52431,2.20669 13.44989,-1.689483 10.85703,-8.294398 -0.77591,-1.976521 -8.6067,8.188427 -9.49123,-7.632663 -0.37174,-6.649186 -3.04827,-9.034366 -6.54327,-10.240857 m -34.38967,30.388855 c 0.62152,-5.290531 -1.57932,-11.131142 -4.15847,-16.145484 -4.48413,-8.718 -0.0762,-14.61271 3.55839,-16.805679 0.46616,-7.369481 3.20329,-9.012453 5.99836,-10.509294 M 95.63953,96.357631 c -0.31042,4.367299 -9.808116,6.976139 -14.315166,2.9074 -3.47699,-3.138856 10.61607,3.157189 5.23299,-15.339227 -1.25991,-7.533044 2.742996,-10.97522 6.093736,-13.889138 m 17.14793,33.908484 c 0.58713,4.87436 -4.17602,11.85407 -8.60046,10.63893 -2.61724,-0.71881 7.52128,-6.34728 -2.63518,-12.85565 -3.43286,-2.846941 -3.44807,-8.83924 -3.21782,-11.19313 m 31.14125,7.703821 c -1.25163,7.050049 -8.05175,25.595559 -16.73589,21.229979 -3.46699,-1.74287 4.66684,-3.50669 -0.0962,-10.39264"
         sodipodi:nodetypes="cscccssccsssccsssccsccccccssccscccccsccssccscccscccscccsc" />
    </g>
  </g>
</svg>
