<svg width="205" height="114" viewBox="0 0 205 114" fill="none" xmlns="http://www.w3.org/2000/svg">
<path d="M57.0002 8.4898L35.8802 21.3598C30.4102 18.8098 21.4702 53.0898 24.3602 54.9198C25.3602 83.3698 13.1301 82.7198 2.15015 84.7998C5.69015 90.7098 10.5702 95.4098 24.6402 91.7998C27.1502 93.7998 11.0502 105.46 7.38016 103.16C10.9302 106.77 33.0802 104.31 33.0802 104.31L27.2802 110.65C70.7802 115.98 75.5902 68.0098 73.2102 75.1098C80.4502 95.5498 126.51 118.11 143.82 109.76L143.26 101.08C141.54 105.15 156.56 114.33 168.84 107.95C157.16 104.52 151.04 87.4298 154.11 87.4498C165.22 97.2398 175.84 109.82 192.67 96.4498L178.33 88.8598C185.96 86.7698 202.54 91.2898 202.22 82.4098C197.56 83.5998 175.34 81.0098 182.22 59.0998C183.99 46.7498 176.89 39.3798 172.94 28.6098C172.94 28.6098 168.11 61.6098 167.45 58.0298C166.79 54.4498 155.52 38.3098 153.8 35.6898L140.06 20.7698C139.06 22.4398 132.27 18.7698 132.56 16.5798C132.93 13.8498 143.44 5.1098 143.44 5.1098C128.96 -2.2702 90.8201 2.1098 82.3401 9.5298C73.6401 8.9698 63.9902 5.1698 57.0002 8.5298V8.4898Z" fill="white"/>
<path d="M134.17 18.4697L152.11 37.2397C157.39 44.0497 163.31 50.2397 167.11 58.0097L175.11 85.9397C175.11 85.9397 175.92 86.4797 182.01 87.3797C186.156 87.834 190.351 87.4567 194.35 86.2697C194.35 86.4697 177.09 83.2697 174.68 74.2697C173.25 68.9097 169.37 49.2697 169.68 48.0297L167.8 57.3897C165.04 53.3897 161.16 45.1997 155.73 38.5097L134.17 18.4697ZM68.85 21.7397C65.2 24.9197 58.6 45.7397 63.64 63.3997C71.64 91.3997 50.36 103.26 37.64 110.76C35.71 113.51 63.79 104.9 70.11 86.6297C75 72.7697 68.34 61.8497 67 60.9997L68.85 21.7397ZM98.48 41.3797C113.23 51.3797 136.27 88.5397 142.42 100.01L143.04 106.45C144.81 111.66 155.72 113.6 165.95 111.07C164.332 110.943 162.723 110.722 161.13 110.41C164.72 109.69 167.13 108.09 166.92 107.88C150.65 109.2 136.41 77.8797 135.72 76.6397C124 54.9997 98.48 41.3797 98.48 41.3797V41.3797ZM25.72 41.9997C22.57 64.8397 31.92 79.9997 3.25 86.4597C5.38967 88.6304 7.98583 90.2974 10.85 91.3397C16.06 93.4397 25.02 88.5197 25.02 88.5197L33.02 46.6497C29.73 50.3097 26.76 51.8997 25.72 41.9997ZM44.83 49.9997C34.92 60.3897 37.5 73.8297 38.03 80.0797C40.03 103.42 21.36 101.44 17.94 105.71C16.86 106.84 46.94 104.93 43.65 89.6197C40.9 76.6397 44.54 50.9997 44.83 49.9397V49.9997ZM147.57 56.2197L152.93 84.6497C152.93 84.6497 152.84 87.7997 166.93 97.7497C181.02 107.7 190.75 97.6797 190.75 97.6797C190.75 97.6797 175.67 106.15 160.95 87.0497C154.46 78.5897 156 69.4497 147.57 56.1597V56.2197ZM154.11 89.4197C155.88 94.8497 157.73 100.15 161.47 102.36C167.72 105.54 173.59 108.02 179.95 103.61C168.54 101.77 159.18 96.5097 154.11 89.3597V89.4197Z" fill="#CCCCCC"/>
<path d="M81.53 9.99946C67.83 17.7495 66.37 35.6295 66.46 40.2595C62.22 80.3495 102.35 116.959 142.56 110.259C128.01 103.119 111.62 99.6995 103.11 79.5495M71.62 72.3195C76.52 108.389 29.85 115.049 25.36 111.209C40.73 98.6295 46.07 99.5195 41.76 78.6195C40.6248 73.4985 40.5502 68.1993 41.5409 63.0484C42.5315 57.8975 44.5663 53.004 47.52 48.6695L71.62 72.3195ZM70.34 20.9995C41.34 17.9195 29.49 42.4495 27.24 83.7095C26.13 103.999 5.00004 102.109 6.77004 103.299C22.15 109.679 35.85 105.649 43.06 93.0395L70.34 20.9995ZM25.37 90.4995C19.6 92.5995 8.37004 96.8895 1.97004 85.6695C0.63004 83.2995 24.78 87.8095 24.29 67.6095C23.55 37.5295 24.63 24.6095 49.7 11.6095C56.39 8.15946 69.2 4.22946 83.02 8.09946L25.37 90.4995ZM143.02 109.099C134.63 70.1695 101.26 40.8095 82.17 34.8895L143.02 109.099ZM111.27 24.1095C128.84 31.5695 149.65 46.2995 153.51 85.9495C153.63 106.219 172.09 106.949 170.29 108.119C149.96 116.559 141.01 99.1195 132.22 80.3295L111.27 24.1095ZM177.51 86.9995C182.51 88.1895 194.25 91.5095 202.88 82.9995C204.82 81.0895 182.24 86.4495 182.24 66.2495C182.24 50.2495 178.78 37.9095 172.77 28.4595L177.51 86.9995ZM144.31 6.20946C130.61 0.109457 97.02 -1.22054 81.38 9.92946L144.31 6.20946ZM153.72 85.9295C156.5 92.0995 177.62 111.989 192.57 97.0895C196.25 93.4195 174.06 95.6495 171.1 76.3395C162.71 37.3995 139.1 18.6695 120.01 12.7495L153.72 85.9295Z" stroke="#999999" stroke-width="3" stroke-linecap="round" stroke-linejoin="round"/>
</svg>
