<svg width="160" height="105" viewBox="0 0 160 105" fill="none" xmlns="http://www.w3.org/2000/svg">
<g id="Hair1">
<g id="layer1">
<g id="g15053">
<path id="abColor_3" d="M35.8402 11C33.6002 12.41 32.5802 16.32 30.7502 17.31C22.3702 21.83 17.1902 17.37 14.2302 29.84C14.2302 29.84 4.51017 37.45 8.48017 43.43C6.14017 47.43 1.26018 51.43 6.19018 60.01C5.62888 62.0516 5.6589 64.2107 6.27674 66.2359C6.89458 68.2612 8.07483 70.0693 9.68017 71.45C9.68017 71.45 8.86018 79.45 12.4102 83.05C15.9602 86.65 17.9102 87.05 17.9102 87.05C17.9102 87.05 14.9102 99.44 23.7402 102.2C32.0602 104.77 36.3602 100.75 36.3602 100.75L47.2002 93.63C55.1202 96.96 60.6802 103.01 68.2902 94.48C68.2902 94.48 72.6402 99.83 82.4702 96.86C92.3002 93.89 96.0002 89.21 96.0002 89.21C96.0002 89.21 97.4602 94.89 107.19 92.55C116.92 90.21 119.29 87.28 119.29 87.28L153.39 90.89C159.32 76.31 154.77 77.08 154.45 69.89C154.45 69.89 159.09 54.26 157.75 50.11C156.41 45.96 156.41 35.44 153.75 32.23C152.401 30.5187 150.884 28.9475 149.22 27.54C149.79 27.54 144.06 57.68 144.76 58.86C143.44 53.49 137.76 54.15 136.29 50.46C132.22 39.9 121.84 37.51 118.85 33.72C114.3 27.96 113.29 23.52 106.99 18.59C107.62 15.32 120.08 1.58998 119.84 5.58998C118.91 3.37998 109.37 1.48998 106.68 4.86998C104.47 7.62998 95.6802 1.47998 95.6802 1.47998L83.0102 4.13998C74.4402 2.91998 66.2002 0.249982 55.0102 10.36C48.5902 8.71998 42.1702 7.55998 35.7802 10.93L35.8402 11Z" fill="white"/>
<path id="Grey" d="M45.8803 8.24015C44.2228 8.22211 42.5738 8.47892 41.0003 9.00014C36.4403 10.0001 34.4603 14.3601 31.4703 17.1101C27.4003 18.4201 22.7403 18.8401 19.7103 22.2401C16.1403 24.4101 16.6303 29.3701 13.6203 31.5301C11.8557 32.0598 10.3227 33.1717 9.27121 34.6845C8.21972 36.1972 7.71179 38.0216 7.83026 39.8601C9.63026 44.5101 4.32026 47.1301 4.06026 51.5801C2.54026 55.3501 4.91026 58.6501 5.65026 62.1801C5.89026 65.7301 0.760262 71.7201 3.75026 73.9301C5.03026 78.8601 2.75026 82.8201 6.75026 86.4901C4.12026 91.0901 17.0603 84.7001 17.9403 88.0001C14.3303 97.3301 21.6303 104 27.3403 102.4C32.1053 102.289 36.7099 100.656 40.4803 97.7402C36.9226 98.62 33.2294 98.8101 29.6003 98.3001C24.9203 97.9901 21.0703 93.3001 22.4703 88.6201C25.1003 84.7101 16.4703 72.6201 21.3803 64.0901C17.5903 57.1501 18.0203 46.1701 24.5303 40.0901C27.8603 34.8001 30.9303 26.3601 37.5303 24.9301C39.9403 17.7801 47.5303 13.8501 54.5303 12.6801C54.6652 12.4778 54.7545 12.2486 54.7921 12.0083C54.8298 11.768 54.8148 11.5224 54.7482 11.2885C54.6817 11.0546 54.5651 10.8379 54.4066 10.6535C54.2481 10.469 54.0515 10.3212 53.8303 10.2201C51.3542 8.99407 48.6421 8.3186 45.8803 8.24015V8.24015Z" fill="#DFDFDF"/>
<path id="abColor_4" d="M29.8701 22.2501C21.0801 25.6501 21.4301 33.6801 22.2101 38.9301C13.9801 45.2201 12.3301 57.5701 18.4901 65.2901C13.7201 74.1901 17.6501 78.7001 19.3001 84.6701M149.78 28.7801C156.59 33.7801 156.24 39.3101 156.14 46.7801C157.93 52.5801 160.08 54.8501 155.5 65.5601M8.71015 43.2601C3.41015 35.4301 16.0101 28.5501 15.0101 29.6201C16.7401 21.6801 25.8001 16.9201 31.8001 18.1501C30.2401 16.2901 39.5501 4.69012 54.2401 10.6901C63.9701 0.480122 82.1201 1.59012 83.3301 4.48012C93.8001 -1.79988 102.25 4.20012 106.07 6.20012C108.54 3.22012 115.9 0.490122 118.75 6.44012L105.174 20C103.678 17.324 105.207 22.5396 105.666 19.5084M102.45 17.0001C105.34 19.7201 104.35 18.7201 111.33 22.4001C114.4 24.0101 116.41 30.1201 117.33 33.1401C118.86 36.4401 122.6 36.4901 125.23 38.7301C127.34 39.7901 134.68 46.8601 135.59 51.9401C144.46 57.7901 143.52 57.4901 146.12 65.0901M115.19 88.3901C114.19 91.1701 100.81 96.9601 96.2901 89.6301C93.4101 91.7301 81.9101 102.44 67.7701 94.2801C63.1401 100.88 53.3901 98.4201 48.0301 92.6801C29.9501 111.18 11.2201 101.54 18.1401 86.9901C14.8101 86.3101 8.55014 79.9001 9.81014 71.0601C6.03014 69.5401 6.45014 64.5201 6.45014 60.6301M9.27014 42.8901C5.20014 49.0001 3.05014 55.1801 6.49014 61.2801C4.35014 63.3801 1.61015 70.0201 2.07015 72.9601C2.69015 76.8901 5.74013 77.9001 6.15013 81.5601C7.33013 81.3501 5.66014 84.1101 4.45014 87.8701M155.35 65.2601C152.98 74.1401 157.26 75.5301 156.44 81.1301C156.09 83.5001 153.32 87.7401 153.5 89.9401L155.35 65.2601Z" stroke="#999999" stroke-width="3" stroke-linecap="round" stroke-linejoin="round"/>
</g>
</g>
</g>
</svg>
