<?xml version="1.0" encoding="UTF-8" standalone="no"?>
<svg
   inkscape:version="1.1.1 (3bf5ae0, 2021-09-20)"
   id="svg8"
   version="1.1"
   viewBox="0 0 145.52083 145.52084"
   height="550"
   width="550"
   xmlns:inkscape="http://www.inkscape.org/namespaces/inkscape"
   xmlns:sodipodi="http://sodipodi.sourceforge.net/DTD/sodipodi-0.dtd"
   xmlns="http://www.w3.org/2000/svg"
   xmlns:svg="http://www.w3.org/2000/svg"
   xmlns:rdf="http://www.w3.org/1999/02/22-rdf-syntax-ns#"
   xmlns:cc="http://creativecommons.org/ns#"
   xmlns:dc="http://purl.org/dc/elements/1.1/">
  <defs
     id="defs2" />
  <sodipodi:namedview
     borderlayer="true"
     units="px"
     showgrid="false"
     inkscape:document-rotation="0"
     inkscape:current-layer="layer1"
     inkscape:document-units="px"
     inkscape:cy="277.85714"
     inkscape:cx="242.14286"
     inkscape:zoom="0.7"
     inkscape:pageshadow="2"
     inkscape:pageopacity="0"
     borderopacity="1.0"
     bordercolor="#666666"
     pagecolor="#585858"
     id="base"
     inkscape:pagecheckerboard="1"
     inkscape:snap-global="false"
     fit-margin-top="0"
     fit-margin-left="0"
     fit-margin-right="0"
     fit-margin-bottom="0"
     inkscape:window-width="1280"
     inkscape:window-height="967"
     inkscape:window-x="0"
     inkscape:window-y="1"
     inkscape:window-maximized="1" />
  <metadata
     id="metadata5">
    <rdf:RDF>
      <cc:Work
         rdf:about="">
        <dc:format>image/svg+xml</dc:format>
        <dc:type
           rdf:resource="http://purl.org/dc/dcmitype/StillImage" />
      </cc:Work>
    </rdf:RDF>
  </metadata>
  <g
     id="layer1"
     inkscape:groupmode="layer"
     inkscape:label="Layer 1"
     transform="translate(-65.996687,-92.135335)">
    <g
       id="g56948"
       inkscape:label="hair7"
       style="display:inline"
       transform="translate(5.3932205,100.20653)">
      <path
         id="path27736"
         style="opacity:1;vector-effect:none;fill:#ffffff;fill-opacity:1;stroke:none;stroke-width:0.500001;stroke-linecap:butt;stroke-linejoin:miter;stroke-miterlimit:4;stroke-dasharray:none;stroke-dashoffset:0;stroke-opacity:1"
         d="m 640.23438,106.80469 c -8.83885,0.29834 -14.33303,17.66918 -14.78321,19.83008 -10.9076,21.12181 -53.82812,67.2207 -53.82812,67.2207 0,0 -8.68016,-1.12549 -3.31055,8.52539 5.36961,9.65089 75.88477,77.03906 75.88477,77.03906 0,0 12.75956,-73.15983 18.44726,-96.55664 5.68766,-23.39682 -5.29492,-51.03125 -5.29492,-51.03125 0,0 -1.00931,-16.49982 -12.51563,-23.66015 -1.61807,-1.00693 -3.15325,-1.41601 -4.5996,-1.36719 z m -277.61524,27.36914 c -2.6811,0.0419 -5.28468,1.13021 -7.22461,3.61328 -5.91218,7.56745 -5.46252,23.37382 -7.63281,30.03125 -2.17029,6.65743 -7.5773,24.4029 -4.13477,29.14453 3.44254,4.74164 3.90951,6.36942 12.25391,-0.88672 8.34439,-7.25614 28.04492,-31.51562 28.04492,-31.51562 0,0 -7.18335,-11.99716 -8.86719,-20.47461 -1.13133,-5.69579 -6.94959,-9.99782 -12.43945,-9.91211 z"
         transform="scale(0.26458333)" />
      <path
         id="path34473"
         style="opacity:1;vector-effect:none;fill:#cccccc;fill-opacity:1;stroke:none;stroke-width:0.500001;stroke-linecap:butt;stroke-linejoin:miter;stroke-miterlimit:4;stroke-dasharray:none;stroke-dashoffset:0;stroke-opacity:1"
         d="m 642.04688,154.84766 c -0.83234,-0.15969 -2.52912,5.3355 -4.29297,13.02539 2.93549,-4.22397 4.75781,-7.2461 4.75781,-7.2461 0.18335,-3.94878 -0.0136,-5.69273 -0.46484,-5.77929 z m -4.29297,13.02539 c -7.26493,10.45372 -21.5548,28.49493 -33.42774,27.95703 -16.59554,-0.75186 -3.32988,-28.68593 2.07031,-36.35938 l -33.93359,32.07227 c 0,0 -8.04365,-12.97769 -12.32812,-9.07422 -4.28448,3.90346 12.49776,25.40758 19.73828,33.59766 7.24055,8.19007 58.16748,59.03059 70.74023,68.87304 12.57275,9.84246 -0.39258,-13.31445 -0.39258,-13.31445 l -2.26562,-23.82812 -6.75391,-35.4668 c 0,0 -5.46247,11.99728 -8.69922,0.0234 -1.79804,-6.65158 1.85258,-29.66014 5.25196,-44.48047 z m -31.35743,-8.40235 1.97071,-1.86132 c -0.19872,-0.33196 -0.94426,0.40279 -1.97071,1.86132 z M 354.75,156.31055 c -2.4513,-0.0425 -4.73281,2.29398 -6.35352,8.77929 -3.70447,14.82358 -2.73063,34.84375 -0.46679,34.84375 2.26384,0 21.02929,-22.36523 21.02929,-22.36523 0,0 -0.16854,-5.65292 -4.93945,-13.05274 -2.68363,-4.16238 -6.11786,-8.15045 -9.26953,-8.20507 z m 311.72254,185.97257 -326.82382,12.4315 c 0.27146,-0.76025 -10.00266,10.42331 -6.00577,17.24531 5.61997,9.59233 26.58317,2.55324 45.45011,-6.05634 3.73092,8.21666 6.07602,11.69688 12.1909,14.38071 26.59153,11.67108 40.54446,-13.29316 40.46937,-13.56439 16.48146,19.80942 24.52353,7.4242 38.86771,0.98177 23.1332,6.60611 36.92034,10.76537 57.86654,-4.02973 9.70542,8.20187 37.80272,0.16893 54.49289,-5.21492 l 81.30073,-5.17023 z"
         transform="scale(0.26458333)"
         sodipodi:nodetypes="sccsssccssscccssscccssscssccscscccccc" />
      <path
         style="fill:#ff2d2d;fill-opacity:1;stroke:none;stroke-width:0.264583px;stroke-linecap:butt;stroke-linejoin:miter;stroke-opacity:1"
         d="M 89.927327,55.988002 101.98356,44.260081 c 25.45366,-3.057887 31.00042,-3.281228 57.62151,-2.873539 2.69054,-1.504185 -3.47102,5.11998 -7.94878,7.81167 -3.50691,-2.200258 -4.68993,-0.933872 -4.0665,-0.245181 0.9963,1.100591 19.523,25.695908 25.79389,27.371573 0.24979,0.06675 -1.61174,-3.046512 -1.34194,-5.872688 0.76587,-8.022659 3.68235,-22.363253 4.15964,-22.10466 l 4.06832,28.342762 c 10.9574,4.473064 10.31589,1.956489 28.29762,6.403882 -4.89401,6.09102 -20.97018,6.472686 -27.73103,7.101745 -36.20885,4.197649 -66.48896,2.580616 -98.75834,2.914582 0,0 -21.616088,-0.916782 -22.578228,-3.489284 -0.962139,-2.572501 7.494004,-4.146103 7.494004,-4.146103 l 19.435232,-5.4871 c -1.764792,-9.911656 2.017316,-15.391831 3.498369,-23.999738 z"
         id="path66872"
         sodipodi:nodetypes="ccccssscccccsccc" />
      <path
         style="opacity:1;vector-effect:none;fill:#cc2424;fill-opacity:1;stroke:none;stroke-width:0.132292;stroke-linecap:butt;stroke-linejoin:miter;stroke-miterlimit:4;stroke-dasharray:none;stroke-dashoffset:0;stroke-opacity:1"
         d="m 110.5835,43.457923 c 0,0 -7.21066,5.439105 -8.93982,14.704425 -1.729163,9.265319 2.59723,26.684838 2.59723,26.684838 -0.39095,0.985356 -10.500049,3.339538 -11.256561,8.65596 0,0 -34.254523,-2.094029 -33.78548,-4.468604 0.469043,-2.374572 27.66654,-10.044893 27.66654,-10.044893 0,0 1.218115,-20.708069 2.541233,-22.356825 1.32312,-1.648759 10.059926,-13.019839 11.796088,-12.751015 1.73615,0.268825 9.38077,-0.423886 9.38077,-0.423886 z"
         id="path42902"
         sodipodi:nodetypes="csccscssc" />
      <path
         id="path1755"
         style="font-variation-settings:normal;fill:none;fill-opacity:1;stroke:#991b1b;stroke-width:2.11667;stroke-linecap:round;stroke-linejoin:round;stroke-miterlimit:4;stroke-dasharray:none;stroke-dashoffset:0;stroke-opacity:1;stop-color:#000000"
         d="m 151.46914,49.393656 c 0,0 -4.40142,-4.30521 -3.94674,-0.37385 0.3767,3.25711 20.91793,25.32847 24.81792,27.41932 2.9552,0.2698 1.17486,-2.54596 -0.87258,-6.00685 m -12.30462,-28.22023 c -18.08788,-2.1887 -43.97912,-0.67794 -58.00863,2.7143 -1.176042,0.6638 -11.093072,9.86202 -11.927672,13.00886 -1.36855,6.49099 -2.06804,12.94841 -2.40303,20.88356 0,3.72033 17.645522,7.08388 44.026982,6.09747 26.38145,-0.9864 49.47584,-3.53762 49.47584,-7.25795 -1.33505,-9.95177 -0.87378,-17.42032 -4.00517,-29.8553 m 4.29251,29.01827 c 14.06785,4.66607 27.29887,4.64334 27.29889,7.27646 5e-5,4.66154 -33.35043,7.8778 -74.60981,9.11375 -41.259362,1.23595 -74.488142,0.20456 -74.488102,-4.45697 2e-5,-2.58452 15.08125,-3.87681 27.76458,-9.06415" />
      <path
         id="path275194"
         style="font-variation-settings:normal;vector-effect:none;fill:none;fill-opacity:1;stroke:#999999;stroke-width:2.11667;stroke-linecap:round;stroke-linejoin:round;stroke-miterlimit:4;stroke-dasharray:none;stroke-dashoffset:0;stroke-opacity:1;-inkscape-stroke:none;stop-color:#000000"
         d="m 169.04207,56.903546 c 0.0166,3.10131 -1.73549,10.847959 -3.21007,10.728309 -0.83322,-0.0676 1.09024,-0.12333 -0.66143,-1.29657 -2.37891,-1.59336 -0.90036,-12.879439 0.88178,-17.269049 2.06846,-5.09484 4.12738,-9.86921 4.12738,-9.86921 m 0.69449,33.432518 c 0,0 1.75522,-13.681318 4.26819,-22.740868 2.3103,-8.32886 -1.33757,-11.87797 -1.03562,-16.46806 0.34302,-5.21468 -5.45758,-7.71624 -7.95239,-1.31105 -3.05028,7.83132 -15.19654,19.050461 -15.19654,19.050461 m -49.83043,-8.174048 c -1.147488,-1.72551 -0.92438,-2.494143 -1.486892,-3.938343 -2.4948,-6.40519 -7.656809,-3.845319 -7.30985,1.3691 0.306954,4.613178 -2.53947,6.567766 -0.989054,11.397376 m 62.625226,43.206833 c -4.88365,3.04928 -11.46316,3.567338 -14.05029,1.025992 -5.35747,3.006107 -8.53961,4.649653 -15.38391,0.600361 -6.07804,6.668472 -9.32668,1.711465 -10.39945,-0.452515 -1.1674,0.323774 -3.47503,5.359327 -6.74162,4.847717 -5.75068,0.40367 -5.8719,-4.87167 -6.32859,-4.529629 -11.613426,7.555339 -14.323318,1.684461 -12.824885,-1.071726"
         sodipodi:nodetypes="cssccsssccsssccsccccc" />
    </g>
  </g>
</svg>
