<svg xmlns="http://www.w3.org/2000/svg" xmlns:xlink="http://www.w3.org/1999/xlink" viewBox="0 0 512 512"><defs><style>.cls-1{fill:#fff;stroke:#fff;stroke-miterlimit:10;stroke-width:5px;}.cls-2{fill:url(#Unbenannter_Verlauf_5);}.cls-3{fill:url(#Unbenannter_Verlauf_4);}.cls-4{fill:none;stroke:#999;stroke-linecap:round;stroke-linejoin:round;stroke-width:3px;}</style><linearGradient id="Unbenannter_Verlauf_5" x1="128.58" y1="473.16" x2="128.72" y2="458.46" gradientTransform="matrix(3.78, 0, 0, -3.78, -235.45, 1911.67)" gradientUnits="userSpaceOnUse"><stop offset="0" stop-color="#fff"/><stop offset="1" stop-color="#fff" stop-opacity="0"/></linearGradient><linearGradient id="Unbenannter_Verlauf_4" x1="429.11" y1="371.48" x2="429.46" y2="308.2" gradientTransform="matrix(1, 0, 0, -1, -232.67, 485.77)" gradientUnits="userSpaceOnUse"><stop offset="0" stop-color="#ccc"/><stop offset="1" stop-color="#ccc" stop-opacity="0"/></linearGradient></defs><g id="Rectangle"><rect class="cls-1" x="2.5" y="2.5" width="507" height="507"/></g><g id="Hair"><g id="layer1"><g id="g419608"><path id="path440561" class="cls-2" d="M164.56,164.79l7.46-.35c-2.83-13.44-1-27.18,3.14-41.08.75,14.89.25,31.07,4.67,42.2l10.61-.5c-.51-13.82,2.86-28.19,13-43.53.09,15.91-1.05,33.11,4,43.71l20.23-.76c3.71-15.87,5.62-32.76,15.53-45.16,12.52,17.77,11.48,29.75,13.11,42.86l15.21-1.79,1.18-38.67c4.67,12.72,9.86,25.57,8.69,36.83l13.46.41,1.86-30.71c3.38,10.83,7.27,21.92,6.57,30.57l34.83-1.65c-.09-46-8.06-73.6-19.49-93.1-3.18,10.86-6.36,21.71-6.77,33.92L275,59.48c3.48-4.4,6.28-7.51,9.42-11.27-33-10.14-60.11-.53-82.79,10.07C165.32,75.24,160.54,119.93,164.56,164.79Z"/><path id="path440426" class="cls-3" d="M228.75,48.63c-10.33,1.84-29.31,8.84-42.62,18.8-32,39.64-17.21,64.28-22.1,95.23l7.62,1.12c-1.18-14.64,1.27-29.32,4.88-44.35.11,16.83.21,34.07,2.79,44l9.58,1.09c-.16.24.23-42.69,6.71-70.78C201.19,69.55,222.37,50.05,228.75,48.63Z"/><path id="path420021" class="cls-4" d="M329.82,157.6c4.62-.59,7.41.4,8.12-.63.2-61.25-7.42-75.27-19.31-93.17m-48.76-6.38c15.38,12.68,35.27,32,44.68,47.62m-29-56.13c-18.43-5.09-50.19-9.32-86.19,10.44-37.78,14.71-37.26,75-35.61,104.71l8,.13c.87-8.78-4.31-33.39,7.83-52.75a104,104,0,0,0-1.1,52.63l11.4.49c-2.71-8.32,5-38,15.54-47.56-3.21,16.36-3.8,30.66,2.12,49l20.65-.77c3.24-27.9,6.29-36,14.55-48,10.67,13.29,14.93,27.53,13.77,44.77l15.17-.92c1.16-20.65,0-24.5-.9-44.4,12.89,22.8,10.06,36.75,12.4,42.88l13-.52c1.1-29,1.06-38.66-9.9-59.53m8.29,20.7c1.72,3.55,10.7,24.69,9.72,38.29l24.65-.93c.64-16.94-1.07-36.41-7.73-59.45"/></g></g></g></svg>