<?xml version="1.0" encoding="UTF-8" standalone="no"?>
<svg
   inkscape:version="1.1.1 (3bf5ae0, 2021-09-20)"
   id="svg8"
   version="1.1"
   viewBox="0 0 145.52083 145.52084"
   height="550"
   width="550"
   xmlns:inkscape="http://www.inkscape.org/namespaces/inkscape"
   xmlns:sodipodi="http://sodipodi.sourceforge.net/DTD/sodipodi-0.dtd"
   xmlns="http://www.w3.org/2000/svg"
   xmlns:svg="http://www.w3.org/2000/svg"
   xmlns:rdf="http://www.w3.org/1999/02/22-rdf-syntax-ns#"
   xmlns:cc="http://creativecommons.org/ns#"
   xmlns:dc="http://purl.org/dc/elements/1.1/">
  <defs
     id="defs2" />
  <sodipodi:namedview
     borderlayer="true"
     units="px"
     showgrid="false"
     inkscape:document-rotation="0"
     inkscape:current-layer="layer1"
     inkscape:document-units="px"
     inkscape:cy="277.85714"
     inkscape:cx="242.14286"
     inkscape:zoom="0.7"
     inkscape:pageshadow="2"
     inkscape:pageopacity="0"
     borderopacity="1.0"
     bordercolor="#666666"
     pagecolor="#585858"
     id="base"
     inkscape:pagecheckerboard="1"
     inkscape:snap-global="false"
     fit-margin-top="0"
     fit-margin-left="0"
     fit-margin-right="0"
     fit-margin-bottom="0"
     inkscape:window-width="1280"
     inkscape:window-height="967"
     inkscape:window-x="0"
     inkscape:window-y="1"
     inkscape:window-maximized="1" />
  <metadata
     id="metadata5">
    <rdf:RDF>
      <cc:Work
         rdf:about="">
        <dc:format>image/svg+xml</dc:format>
        <dc:type
           rdf:resource="http://purl.org/dc/dcmitype/StillImage" />
      </cc:Work>
    </rdf:RDF>
  </metadata>
  <g
     id="layer1"
     inkscape:groupmode="layer"
     inkscape:label="Layer 1"
     transform="translate(-65.996687,-92.135335)">
    <g
       id="g99347"
       inkscape:label="hair9"
       style="display:inline"
       transform="translate(-4.7863436,90.304721)">
      <path
         id="path239039"
         style="display:inline;opacity:1;vector-effect:none;fill:#ffffff;fill-opacity:1;stroke:none;stroke-width:0.500001;stroke-linecap:butt;stroke-linejoin:miter;stroke-miterlimit:4;stroke-dasharray:none;stroke-dashoffset:0;stroke-opacity:1"
         d="m 645.29883,113.76172 c -4.47515,0.0498 -9.82157,1.62229 -13.9961,3.20508 -8.9057,3.37662 -9.91603,17.98405 -12.6289,23.68359 -2.71287,5.69954 -53.56446,60.46875 -53.56445,60.46875 -1.53415,28.18633 75.41796,85.70898 75.41796,85.70898 0,0 14.93006,-79.9624 18.89649,-92.27148 3.96639,-12.30908 -1.72209,-41.47575 -3.79883,-46.64844 -2.07677,-5.17268 -1.70137,-14.84898 -1.43945,-26.24804 0.13914,-6.05576 -3.81489,-7.95483 -8.88672,-7.89844 z m -280.66797,18.69726 c -1.98817,0.0494 -4.23651,0.59266 -6.8418,1.65235 -10.42116,4.23873 -6.09765,19.92383 -6.09765,19.92383 0,0 -3.78097,8.76509 -6.17579,19.51757 -2.39478,10.75248 4.09766,28.95313 4.09766,28.95313 l 49.87891,-26.41406 c 0,0 -16.03253,-20.49939 -21.3086,-31.34766 -3.95705,-8.13621 -7.58823,-12.43334 -13.55273,-12.28516 z m 14.28711,135.53125 c -9.81588,-0.077 -20.15399,5.22839 -25.95508,13.50977 -8.43795,12.04564 17.43648,32.80882 17.43648,32.80882 l 107.24321,-1.36546 -0.56055,-16.09375 -3.01267,-19.6132 c 0,0 -27.63484,0.40837 -41.08694,-2.53719 -13.45205,-2.94557 -23.01172,10.65625 -23.01172,10.65625 0,0 -6.39922,-5.74666 -18.46679,-13.69727 -3.77112,-2.48456 -8.12418,-3.63297 -12.58594,-3.66797 z m -30.71094,80.80274 c -9.25497,-0.12714 -17.29964,6.6138 -18.85742,20.24414 3.23673,27.25239 13.09822,28.97524 25.7832,25.0957 12.68499,-3.87949 30.98242,-18.43945 30.98242,-18.43945 0,0 4.35887,39.63342 25.91211,22.91797 21.55325,-16.71545 22.30078,-17.41016 22.30078,-17.41016 0,0 10.06043,14.37268 29.50481,7.71109 10.61624,-3.6371 20.57301,-20.06484 28.48896,-13.5754 2.31698,1.89944 73.06588,4.01729 80.5042,-5.55732 11.10371,-14.2927 12.00512,-8.52221 11.81422,-8.54945 -62.54939,-8.42996 -161.56745,-9.53676 -212.10856,-4.26305 -6.18361,-8.39545 -17.12641,-8.07519 -24.32472,-8.17407 z"
         transform="scale(0.26458333)"
         sodipodi:nodetypes="sssccsssssscsccssssccccscssscscscsssccs" />
      <path
         id="path92331"
         style="opacity:1;vector-effect:none;fill:#39ff7a;fill-opacity:1;stroke:none;stroke-width:0.500001;stroke-linecap:butt;stroke-linejoin:miter;stroke-miterlimit:4;stroke-dasharray:none;stroke-dashoffset:0;stroke-opacity:1"
         d="m 498.46094,165.48242 c -18.37905,0.0247 -36.91719,1.26552 -52.92383,4.66992 -33.41552,5.45678 -94.16335,16.82019 -102.42578,47.21094 -20.6174,46.84192 -30.44826,82.70329 -17.97071,140.13477 -0.31188,-2.73189 25.36208,-13.08578 40.17774,-4.12696 40.64657,-3.98499 111.0956,-9.03155 173.81641,-0.1875 83.7688,11.81198 136.80468,28.78321 136.80468,28.78321 -0.79725,4.84278 3.74718,9.3757 -7.67773,22.61523 -4.1091,4.76179 0.83876,12.28494 2.7207,20.65039 1.15884,5.15135 -0.33361,16.14873 -3.10351,17.90039 l 0.70898,7.47266 c 0.22866,-2.55988 74.02656,-4.79161 85.59766,-18.72461 11.5711,-13.93304 11.88361,-21.75915 -9.0586,-30.71875 -20.94221,-8.95956 -69.59765,-23.11133 -69.59765,-23.11133 l 0.24218,-115.31445 c -1.05471,-20.42096 -16.95303,-32.5646 -21.01171,-50.74805 -1.61583,6.01811 -15.46062,58.68209 -11.35938,63.77539 16.11553,32.19484 -2.69668,16.43022 -3.96094,14.99219 L 561.5625,202.17773 c -5.01951,-3.26911 -13.26112,-23.71738 7.51562,-7.9707 9.32706,-3.44258 21.02421,-20.23399 22.18165,-20.92578 -0.40953,-0.0701 -46.04094,-7.86172 -92.79883,-7.79883 z m 92.79883,7.79883 c 0.002,3.2e-4 0.10156,0.0156 0.10156,0.0156 -4.2e-4,-0.0576 -0.0405,-0.0521 -0.10156,-0.0156 z m -170.1543,94.82031 c 30.11399,0.0516 59.24023,3.53321 59.24023,3.53321 l 1.61328,41.75781 -118.5371,4.87695 c -0.5886,-13.87005 -10.48415,-39.59859 -1.13672,-40.80859 11.37907,-7.36397 35.39831,-9.39949 58.82031,-9.35938 z"
         transform="scale(0.26458333)"
         sodipodi:nodetypes="sccccscssccssccccccccscccsccccs" />
      <path
         id="path263109"
         style="opacity:1;vector-effect:none;fill:#2dcc62;fill-opacity:1;stroke:none;stroke-width:0.500001;stroke-linecap:butt;stroke-linejoin:miter;stroke-miterlimit:4;stroke-dasharray:none;stroke-dashoffset:0;stroke-opacity:0.19"
         d="m 445.76367,169.51367 c 0,0 -47.6788,8.19627 -72.94726,21.09961 -25.26846,12.90335 -26.96173,16.28908 -39.66211,48.76758 -12.70037,32.4785 -7.64649,120.5332 -7.64649,120.5332 11.78164,-4.84214 24.56322,-16.41614 33.82383,-4.28583 l 26.84609,-3.40167 0.0182,-35.5405 c -24.46271,6.09411 -60.56722,-36.12018 -0.12363,-51.76809 0,0 2.09037,-27.16246 17.11914,-53.64649 15.0288,-26.48403 42.57226,-41.75781 42.57226,-41.75781 z M 675.94141,382.4375 c 1.09689,15.8434 -7.98237,21.2288 -9.33789,24.41211 -2.66839,6.26634 9.04432,18.58312 1.79492,36.48633 0,0 60.17902,-6.88622 66.73242,-9.74414 38.45851,-16.77154 -3.78267,-34.9301 -18.04688,-40.8711 -10.96376,-4.56638 -41.14257,-10.2832 -41.14257,-10.2832 z"
         transform="scale(0.26458333)"
         sodipodi:nodetypes="csscccccsccscsscs" />
      <path
         id="path248898"
         style="display:inline;opacity:1;vector-effect:none;fill:#cccccc;fill-opacity:1;stroke:none;stroke-width:0.500001;stroke-linecap:butt;stroke-linejoin:miter;stroke-miterlimit:4;stroke-dasharray:none;stroke-dashoffset:0;stroke-opacity:1"
         d="m 385.36897,170.07988 c -13.54797,7.18488 -29.82806,9.83125 -33.90217,27.10957 l 3.06836,4.6211 44.64062,-24.8086 c -6.06187,-1.62843 -13.80681,-6.92207 -13.80681,-6.92207 z m 208.79705,4.95723 -25.44532,20.45117 c 0,0 -12.19831,-8.11729 -12.40429,-3.16016 -0.2058,4.95717 28.13867,39.12891 28.13867,39.12891 0,0 58.93468,60.51622 66.83008,63.60547 7.89539,3.08925 -6.3418,-12.42773 -6.3418,-12.42773 l -2.80664,-25.28907 c 0,0 -11.24516,-15.37409 -10.64649,-17.43359 0.59868,-2.0595 2.43248,-20.23637 3.16211,-39.49023 0.72968,-19.2539 -4.49023,-14.99219 -4.49023,-14.99219 l -18.85938,41.47851 c 0,0 -11.91801,-8.30954 -17.69921,-21.74414 -5.78121,-13.4346 -0.16714,-28.09139 0.5625,-30.12695 z M 448.38086,269.8125 c -2.02968,-0.002 -4.15128,0.0234 -6.36133,0.084 -23.57386,0.64659 -41.31055,3.01758 -41.31055,3.01758 l 7.99024,9.57813 c 0,0 17.24851,-8.42969 28.64258,-7.87891 11.39403,0.55079 35.43554,21.67383 35.43554,21.67383 -13.32283,20.81561 -35.79708,14.36595 -60.11132,8.57422 -17.48338,7.75536 -28.08824,7.03865 -47.76563,4.85937 l 2.50586,6.75391 c 0,0 8.45743,0.19207 29.54297,-2.13086 21.08553,-2.32295 82.93945,-0.19141 82.93945,-0.19141 l -0.82422,-41.64648 c 0,0 -11.06331,-2.67307 -30.68359,-2.69336 z m 7.73437,79.33984 c -54.29325,0.26306 -83.91992,8.13086 -83.91992,8.13086 l 0.0937,4.35742 c 41.28443,-1.61315 100.50629,-3.31051 138.95508,-0.23828 60.89058,4.86544 152.59089,24.7854 156.96094,28.08399 l 0.23633,-10.50781 c 0,0 -129.20646,-28.01804 -194.68946,-29.64649 -6.13902,-0.15267 -12.02017,-0.2069 -17.63672,-0.17969 z m 212.08985,40.33399 -0.008,0.36523 c 0.22659,-0.078 0.22394,-0.2018 0.008,-0.36523 z"
         transform="scale(0.26458333)"
         sodipodi:nodetypes="cccccccccsccssccscscccsccccsccsssccsccsssccc" />
      <path
         id="path251711"
         style="font-variation-settings:normal;vector-effect:none;fill:none;fill-opacity:1;stroke:#239a49;stroke-width:2.22429;stroke-linecap:round;stroke-linejoin:round;stroke-miterlimit:4;stroke-dasharray:none;stroke-dashoffset:0;stroke-opacity:1;-inkscape-stroke:none;stop-color:#000000"
         d="m 95.70947,80.4069 0.16834,4.06673 c 10.27458,-1.99508 25.6096,-2.55223 31.47799,-1.45726 L 126.9282,71.8164 c -3.93014,-1.09489 -14.03111,-1.40841 -23.36537,-0.17024 m 69.69633,-14.90255 c 3.31937,4.23504 5.91807,9.85264 5.74587,14.85473 l -0.97024,28.18308 M 155.5612,45.98173 c -10.58557,-4.28075 -48.64825,-3.38589 -61.43686,7.5199 -9.11506,6.65829 -9.05954,25.87629 -7.90226,41.26621 M 96.8855,93.76911 c 9.78772,-0.82173 22.6804,-1.51367 26.47129,-1.48995 37.56606,0.2351 75.85199,12.60106 77.58853,17.126 3.63376,7.03351 -14.89387,9.10513 -23.69669,9.45018 m -26.91427,-67.4867 c 0,0 -4.40142,-4.30521 -3.94674,-0.37385 0.3767,3.25711 20.91793,25.32847 24.81792,27.41932 2.9552,0.2698 1.17486,-2.54596 -0.87258,-6.00685"
         sodipodi:nodetypes="ccccccscccccscccscc" />
      <path
         id="path246145"
         style="font-variation-settings:normal;vector-effect:none;fill:none;fill-opacity:1;stroke:#999999;stroke-width:2.11667;stroke-linecap:round;stroke-linejoin:round;stroke-miterlimit:4;stroke-dasharray:none;stroke-dashoffset:0;stroke-opacity:1;-inkscape-stroke:none;stop-color:#000000"
         d="m 92.60644,52.38141 c -2.4234,-8.22752 0.67088,-8.37566 0.37347,-12.96981 -0.34302,-5.21468 4.81504,-7.77429 7.30985,-1.3691 0.96318,2.47288 1.62627,5.50528 4.87477,7.88926 m 62.74276,12.94677 c 0.0166,3.10131 -2.0789,10.49097 -3.55348,10.37132 -0.83322,-0.0676 0.50612,-0.25639 -1.24555,-1.42963 -2.37891,-1.59336 0.0272,-12.38939 1.80931,-16.779 2.06846,-5.09484 4.12738,-9.86921 4.12738,-9.86921 m 0.73894,33.71368 c 0,0 1.71077,-13.96248 4.22374,-23.02203 2.31029,-8.32886 -1.33757,-11.87797 -1.03562,-16.46806 0.34302,-5.21468 -5.45758,-7.71624 -7.95239,-1.31105 -3.05028,7.83132 -15.20421,18.88031 -15.20421,18.88031 m -52.136,29.21801 c -4.69058,-3.33747 -6.23002,-10.28404 2.2276,-11.17062 4.92277,-0.51604 8.20744,4.89783 8.20744,4.89783 0,0 4.38588,-3.89038 8.37079,-2.98431 3.98491,0.90606 6.69267,3.7003 6.69267,3.7003 m -25.4127,18.32311 c -15.41163,-11.88408 -14.61225,22.0134 4.43649,4.60664 -3.62972,5.52978 7.62381,10.8469 12.59344,0.97466 1.06432,5.39037 10.57225,1.81093 13.8808,-1.41751 4.61058,2.51348 15.53337,1.05436 19.49041,-0.824656"
         sodipodi:nodetypes="cccccsscccssccsccccscscc" />
    </g>
  </g>
</svg>
