<svg xmlns="http://www.w3.org/2000/svg" viewBox="0 0 512 512"><defs><style>.cls-1,.cls-2{fill:#fff;}.cls-1{stroke:#fff;stroke-miterlimit:10;stroke-width:5px;}.cls-3{fill:#ccc;}.cls-4{fill:none;stroke:#999;stroke-linecap:round;stroke-linejoin:round;stroke-width:3px;}</style></defs><g id="Rectangle"><rect class="cls-1" x="2.5" y="2.5" width="507" height="507"/></g><g id="Hair"><g id="layer1"><g id="g15053"><path id="path1120" class="cls-2" d="M203.84,51c-2.24,1.41-3.26,5.32-5.09,6.31-8.38,4.52-13.56.06-16.52,12.53,0,0-9.72,7.61-5.75,13.59-2.34,4-7.22,8-2.29,16.58a11.18,11.18,0,0,0,3.49,11.44s-.82,8,2.73,11.6,5.5,4,5.5,4-3,12.39,5.83,15.15c8.32,2.57,12.62-1.45,12.62-1.45l10.84-7.12c7.92,3.33,13.48,9.38,21.09.85,0,0,4.35,5.35,14.18,2.38S264,129.21,264,129.21s1.46,5.68,11.19,3.34,12.1-5.27,12.1-5.27l34.1,3.61c5.93-14.58,1.38-13.81,1.06-21,0,0,4.64-15.63,3.3-19.78s-1.34-14.67-4-17.88a32.5,32.5,0,0,0-4.53-4.69c.57,0-5.16,30.14-4.46,31.32-1.32-5.37-7-4.71-8.47-8.4-4.07-10.56-14.45-12.95-17.44-16.74-4.55-5.76-5.56-10.2-11.86-15.13.63-3.27,13.09-17,12.85-13-.93-2.21-10.47-4.1-13.16-.72-2.21,2.76-11-3.39-11-3.39l-12.67,2.66c-8.57-1.22-16.81-3.89-28,6.22-6.42-1.64-12.84-2.8-19.23.57Z"/><path id="path621552" class="cls-3" d="M213.88,48.24A15,15,0,0,0,209,49c-4.56,1-6.54,5.36-9.53,8.11-4.07,1.31-8.73,1.73-11.76,5.13-3.57,2.17-3.08,7.13-6.09,9.29a8.15,8.15,0,0,0-5.79,8.33c1.8,4.65-3.51,7.27-3.77,11.72-1.52,3.77.85,7.07,1.59,10.6.24,3.55-4.89,9.54-1.9,11.75,1.28,4.93-1,8.89,3,12.56-2.63,4.6,10.31-1.79,11.19,1.51-3.61,9.33,3.69,16,9.4,14.4a22.33,22.33,0,0,0,13.14-4.66,28.69,28.69,0,0,1-10.88.56c-4.68-.31-8.53-5-7.13-9.68,2.63-3.91-6-16-1.09-24.53-3.79-6.94-3.36-17.92,3.15-24,3.33-5.29,6.4-13.73,13-15.16,2.41-7.15,10-11.08,17-12.25a1.68,1.68,0,0,0-.7-2.46A19.14,19.14,0,0,0,213.88,48.24Z"/><path id="path4115" class="cls-4" d="M323.35,105.26c-2.37,8.88,1.91,10.27,1.09,15.87-.35,2.37-3.12,6.61-2.94,8.81M197.87,62.25c-8.79,3.4-8.44,11.43-7.66,16.68-8.23,6.29-9.88,18.64-3.72,26.36-4.77,8.9-.84,13.41.81,19.38M317.78,68.78c6.81,5,6.46,10.53,6.36,18,1.79,5.8,3.94,8.07-.64,18.78M286.75,46.44c-2.85-5.95-10.21-3.22-12.68-.24-3.82-2-12.27-8-22.74-1.72-1.21-2.89-19.36-4-29.09,6.21-14.69-6-24,5.6-22.44,7.46-6-1.23-15.06,3.53-16.79,11.47,1-1.07-11.6,5.81-6.3,13.64A13.8,13.8,0,0,0,174.17,100m96.28-43c2.89,2.72,1.9,1.72,8.88,5.4,3.07,1.61,5.08,7.72,6,10.74,1.53,3.3,5.27,3.35,7.9,5.59,2.11,1.06,9.45,8.13,10.36,13.21,8.87,5.85,7.93,5.55,10.53,13.15m-30.93,23.3c-1,2.78-14.38,8.57-18.9,1.24-2.88,2.1-14.38,12.81-28.52,4.65-4.63,6.6-14.38,4.14-19.74-1.6-18.08,18.5-36.81,8.86-29.89-5.69-3.33-.68-9.59-7.09-8.33-15.93-3.78-1.52-3.36-6.54-3.36-10.43m2.82-17.74c-4.07,6.11-6.22,12.29-2.78,18.39-2.14,2.1-4.88,8.74-4.42,11.68.62,3.93,3.67,4.94,4.08,8.6,1.18-.21-.49,2.55-1.7,6.31"/></g></g></g></svg>