<?xml version="1.0" encoding="UTF-8" standalone="no"?>
<svg
   inkscape:version="1.1.1 (3bf5ae0, 2021-09-20)"
   id="svg8"
   version="1.1"
   viewBox="0 0 145.52083 145.52084"
   height="550"
   width="550"
   xmlns:inkscape="http://www.inkscape.org/namespaces/inkscape"
   xmlns:sodipodi="http://sodipodi.sourceforge.net/DTD/sodipodi-0.dtd"
   xmlns="http://www.w3.org/2000/svg"
   xmlns:svg="http://www.w3.org/2000/svg"
   xmlns:rdf="http://www.w3.org/1999/02/22-rdf-syntax-ns#"
   xmlns:cc="http://creativecommons.org/ns#"
   xmlns:dc="http://purl.org/dc/elements/1.1/">
  <defs
     id="defs2" />
  <sodipodi:namedview
     borderlayer="true"
     units="px"
     showgrid="false"
     inkscape:document-rotation="0"
     inkscape:current-layer="layer1"
     inkscape:document-units="px"
     inkscape:cy="277.85714"
     inkscape:cx="242.14286"
     inkscape:zoom="0.7"
     inkscape:pageshadow="2"
     inkscape:pageopacity="0"
     borderopacity="1.0"
     bordercolor="#666666"
     pagecolor="#585858"
     id="base"
     inkscape:pagecheckerboard="1"
     inkscape:snap-global="false"
     fit-margin-top="0"
     fit-margin-left="0"
     fit-margin-right="0"
     fit-margin-bottom="0"
     inkscape:window-width="1280"
     inkscape:window-height="967"
     inkscape:window-x="0"
     inkscape:window-y="1"
     inkscape:window-maximized="1" />
  <metadata
     id="metadata5">
    <rdf:RDF>
      <cc:Work
         rdf:about="">
        <dc:format>image/svg+xml</dc:format>
        <dc:type
           rdf:resource="http://purl.org/dc/dcmitype/StillImage" />
      </cc:Work>
    </rdf:RDF>
  </metadata>
  <g
     id="layer1"
     inkscape:groupmode="layer"
     inkscape:label="Layer 1"
     transform="translate(-65.996687,-92.135335)">
    <g
       id="g39595"
       transform="translate(7.3348418,98.297401)"
       inkscape:label="hair3"
       style="display:inline">
      <path
         style="fill:#ffffff;fill-opacity:1;stroke:none;stroke-width:0.264583px;stroke-linecap:butt;stroke-linejoin:miter;stroke-opacity:1"
         d="m 104.90572,23.746396 c -7.039197,-1.038798 -9.305554,1.84621 -14.880454,3.521956 -9.555765,-1.269747 -12.37273,5.375772 -13.183396,9.482191 -8.579123,1.714025 -7.446319,4.208655 -7.090611,11.417336 -5.368812,3.747288 -5.774376,6.552672 -2.713746,12.118824 -7.880444,7.295094 -5.262079,9.823487 0.831523,14.170073 -6.462591,8.736238 -1.149181,15.322965 6.992339,12.573582 -7.812077,5.786657 1.970825,11.45781 9.511594,8.40324 2.094031,0.635288 5.354148,3.587769 7.602635,3.270496 9.000896,4.839116 13.871716,6.034666 20.198416,0.11611 5.65972,3.365996 9.01406,1.081289 14.2417,0.396698 7.00202,2.701738 12.16308,-3.577525 18.17244,-4.511571 5.41687,5.838069 11.63,5.026749 16.58365,5.577929 0.91264,1.48351 5.8028,1.87602 6.4647,2.30079 0.29088,0.20308 2.84067,3.54972 4.23409,4.70903 0.35698,2.37894 0.77939,6.44269 5.08639,7.11076 9.97853,-4.67181 9.86982,-9.61415 10.00106,-12.45839 10.10643,-2.035843 9.89427,-5.938768 4.8833,-11.828545 10.46872,-3.103801 4.61989,-7.853644 3.01615,-12.999312 10.45519,-4.904219 3.82306,-11.599544 1.90495,-16.197136 6.17134,-9.186227 -10.94819,-19.859656 -9.8233,-19.651355 4.12423,-11.730575 -12.04478,-17.656162 -18.51647,-16.506757 -9.82515,-12.389195 -19.81209,-4.124517 -24.43166,-3.076875 -17.47007,-6.316225 -15.79823,-0.05838 -22.06933,0.590219 -2.22481,-0.01991 -16.8235,-2.420947 -17.01597,1.470707 z"
         id="path30406"
         sodipodi:nodetypes="ccccccccccccccccccccccccc" />
      <path
         id="path201067"
         style="fill:#cccccc;fill-opacity:1;stroke:none;stroke-width:0.999999px;stroke-linecap:butt;stroke-linejoin:miter;stroke-opacity:1"
         d="m 271.2168,183.42969 c -0.0765,-0.0112 -0.34505,0.13545 -0.84766,0.45703 -29.37025,-2.57203 -31.08521,27.99124 -21.45703,40.30078 -5.99272,13.01031 -14.98772,28.37638 -11.45703,40.00586 25.61064,18.87114 9.14174,20.34928 9.59961,48.85742 1.27271,21.7205 28.40057,11.99545 30,14.91992 1.26742,2.31742 -9.50976,19.59348 4.65625,29.03711 7.73911,5.1592 31.46481,3.56922 35.33008,6.53711 9.48396,9.62816 24.34447,3.86194 31.66796,6.84766 25.49214,16.59705 44.38802,20.60386 68.58399,8.95898 4.46241,-2.16653 6.83056,-4.68811 4.4707,-10.3125 -0.94013,-2.24067 -2.24128,-4.76651 -3.77929,-6.99218 19.20624,15.46636 32.08812,26.18885 61.60742,9.31835 12.22635,-1.33282 28.58483,9.85834 46.14062,-1.28125 7.12621,-2.86253 16.50176,-17.62458 25.91211,-25.32031 -20.94723,30.89313 42.65338,31.93348 58.68945,33.20313 7.11175,5.52521 15.38977,8.10495 23.19922,10.20312 13.65166,16.68851 17.77062,43.48752 38.82618,39.3125 34.06249,-5.62235 26.77397,-37.97772 34.15429,-40.50781 26.02398,-8.92146 30.14123,-21.36822 27.48828,-27.78516 -6.06685,11.97424 -24.99863,21.36174 -32.55664,9.52539 -3.12346,-4.89155 -32.67405,21.09604 -34.87109,8.72266 -2.22807,-12.54813 22.18328,-22.79832 0.87109,-12.85547 -48.44541,24.73939 -37.54932,-15.89674 -52.78857,-7.00099 -30.81487,-0.85099 -28.19172,-25.61049 -23.90413,-31.27372 12.34604,-16.30716 -2.62539,-17.81511 6.24153,-30.46162 13.67761,-19.50779 3.08466,-25.04518 0.16016,-40.18359 0,0 0.3654,18.46236 -3.04883,29.60742 -3.4142,11.14507 -16.0625,10.7832 -16.0625,10.7832 6.34644,27.27069 -19.19985,67.33451 2.57422,30.18555 -18.44988,11.88962 -36.24684,-5.64494 -43.0144,9.37484 -16.71032,37.08655 -44.05614,10.97187 -60.2781,18.29762 -36.77435,16.60713 -43.65675,-11.18082 -61.45946,-7.79746 -30.2979,5.758 -22.94753,-32.70389 -30.37109,-23.4414 -7.58014,9.45783 3.15325,37.88121 27.5625,36.84179 -9.93492,2.96718 -12.78939,0.80256 -25.20508,-5.83398 -21.49549,23.5 -34.57326,-4.38094 -41.82812,-3.80274 -30.861,2.45958 -12.35205,-32.26794 -24.78516,-29.78515 -12.80969,2.558 -28.53445,-20.83359 -18.18359,-34.95118 3.59183,-4.89891 -17.55059,19.58085 -19.15821,20.57813 -16.30044,19.63775 -25.32577,0.22741 -25.21289,-14.64648 0.0598,-2.68082 3.39029,-8.28657 2.3418,-10.97071 -15.16886,-14.24449 -19.05683,-31.58783 -2.16992,-53.79297 -12.71458,-20.46322 13.2646,-42.74684 12.36133,-42.8789 z"
         transform="matrix(0.26458333,0,0,0.26458333,0.0453553,-0.03869965)"
         sodipodi:nodetypes="sccccsscccscccccccscssccsscsccssssccsssccccs" />
      <path
         id="path275394"
         style="font-variation-settings:normal;opacity:1;vector-effect:none;fill:none;fill-opacity:1;stroke:#999999;stroke-width:2.11667;stroke-linecap:round;stroke-linejoin:round;stroke-miterlimit:4;stroke-dasharray:none;stroke-dashoffset:0;stroke-opacity:1;-inkscape-stroke:none;stop-color:#000000;stop-opacity:1"
         d="m 168.93957,25.658564 c 3.50009,0.4938 11.56885,6.303414 9.00281,13.039926 3.61225,0.723948 5.89313,8.633085 3.24352,12.788383 m -36.20355,43.227541 c 3.89172,5.434806 13.95427,6.282046 16.21742,5.240784 5.77044,5.301912 13.63841,2.165972 17.40939,-3.40719 m -10.50098,6.967772 c -0.37775,2.96929 7.4942,5.94392 12.33253,1.78357 m -79.0141,-16.383002 c -0.45967,2.1071 2.87141,7.18951 8.70829,6.49241 3.65041,6.923912 12.37613,6.354872 16.76152,2.87567 9.89222,3.454562 18.31222,-3.34708 18.93344,-8.14894 9.48982,0.67608 9.31522,-6.22407 5.91892,-11.39798 7.14542,-0.63623 7.75156,-7.831202 4.6502,-11.847808 m -43.90627,32.381998 c -8.02962,5.431572 -16.077396,3.598432 -19.820466,-0.97725 -9.12672,0.95684 -9.47204,-6.30632 -8.73099,-10.86581 -8.87462,-2.84205 -9.22886,-8.59677 -4.40269,-12.078868 m 5.67267,-28.423649 c 0.0813,-5.874068 2.49105,-9.853653 7.92969,-11.368958 1.56683,-5.463357 4.78047,-7.271427 8.806576,-7.276129 4.6582,-10.097929 15.94976,-7.442045 20.1077,-5.631263 7.52246,-6.426437 19.5992,-2.985148 21.81611,-0.638596 6.97791,-4.725595 21.20848,-4.303659 24.51476,3.289742 13.01627,-0.188052 23.03804,8.458414 18.39261,16.185569 3.10076,1.843355 14.7433,8.553204 9.19622,20.034648 4.07271,2.999936 5.32446,6.482821 4.7248,9.446647 -0.61636,3.046355 -3.18867,5.544343 -6.6641,6.405897 3.20696,3.48269 7.97263,11.4487 -2.041,12.60745 7.99642,8.28484 -1.72418,13.345512 -5.48804,11.852742 0.14085,6.3067 -3.98996,11.16068 -10.01722,12.43498 M 84.32593,95.671375 c -5.568578,2.059416 -17.807952,-1.806959 -9.5485,-8.182517 -5.761255,1.080448 -14.054553,-1.757568 -6.485366,-12.798074 -4.47515,-1.873264 -11.413916,-7.967678 -0.34282,-15.125877 -0.3758,1.925254 -9.54209,-6.026667 2.09211,-11.280538 -0.92148,-6.320154 -0.49821,-10.757825 6.39607,-10.998962 -0.38927,-6.69675 8.62064,-10.229914 13.80073,-9.14951 3.91789,-5.855932 11.799406,-6.013557 14.460906,-4.150878"
         sodipodi:nodetypes="ccccccccccccccccccccccccccscccccccccccc" />
    </g>
  </g>
</svg>
