<svg xmlns="http://www.w3.org/2000/svg" viewBox="0 0 512 512"><defs><style>.cls-1,.cls-3{fill:#fff;}.cls-1{stroke:#fff;stroke-miterlimit:10;stroke-width:5px;}.cls-2{fill:red;}.cls-4{fill:#ccc;}.cls-5,.cls-6{fill:none;stroke-linecap:round;stroke-linejoin:round;stroke-width:3px;}.cls-5{stroke:#999;}.cls-6{stroke:maroon;}</style></defs><g id="Rectangle"><rect class="cls-1" x="2.5" y="2.5" width="507" height="507"/></g><g id="Hair"><g id="layer1"><g id="g359841"><path id="path388505" class="cls-2" d="M325.21,155.27c12.1,15.71,9,24.81.29,33.74-1.06-3.5-1.86-6.64-3.51-10.9,3.29-5.44.87-13-.77-17.27Z"/><path id="path359833" class="cls-3" d="M313,110c-.45,0-10.76-13.19-10.68-13.79.36-2.54-18.08-18.47-18.16-18.4.44-.56-11.45-16.18-12.64-15.9C273.89,57,281.49,50,283,48.6c-1-2.36-8.72-4.77-11.61-1.15-2.37,3-11.83-3.63-11.83-3.63L246,46.67c-9.2-1.31-18-4.18-30,6.67-6.89-1.75-13.78-3-20.64.62,0,0-10.42,17.58-12.85,12-.54,3.57-7.43,1.79-13,10,0,0-7.73,6.35-3.46,12.77-2.51,4.23-7.75,8.52-2.46,17.79a115.57,115.57,0,0,1-3.43,11.84s-8.5,12.32-4.68,16.2,11.66,7.57,11.66,7.57,4.69-6,14.22-3c8.92,2.76,14.46-4.62,14.46-4.62l6.84-9.26c8.49,3.58,23.86,20.55,32,11.4,10.76,10.42,16.46,2.87,32.27,1.8,5.38-.25,4.81,9.92,23.7,3.17,10.43,4.89,17.83,14.5,32.45,12.86,6.36-15.65,1.54-32.29,1.19-40,0,0,3.38-14.1,1.93-18.55-1.39,6.34-.39-4.28-8.62-22.55-2,11.94-3.78,17.38-4.51,36.64Zm43.87,37.81c-4.41-9.16-9.22-4.81-14.13,3.05-5-8.77-9.86-3.87-14.74,4.32,6.6,11.66,8.43,23.67-2.68,36.65,1.2,6.82,7.57,6.26,15.93,2.87,5.31,2.86,9.37,10,19.41-3.1,12.84,7,12-11.72,7.92-14.94,10.12-5.45,7.88-23.5-5.14-16.94C372.2,143.21,362.79,147.55,356.9,147.85Z"/><path id="path359837" class="cls-4" d="M169.37,77.3c-9.74,6.77-8.67,21.54-6.4,31.57-3,11.18-12.19,25.35-3.7,33.86-4.14,6.89,9.7,8.22,20.63-2.93,17.31-.41,20.61-9.49,21.44-13.18L195,121.57c-1.85,3-20.86,14.15-27.85,10.7-11.83-5.84,2.39-24.38,8.62-32.57-7.8-4-5.88-18.45,10.75-25.2-.18-21.06,33.32-21.59,30.16-22.47C202,48.81,190.47,56.8,182.28,66.15,175.35,70.42,174.14,73.1,169.37,77.3Zm42.52,16a94.11,94.11,0,0,0-17.1,1.53l2.05,5.23c15.66-4.14,31-4.75,44.37,4.78l23.65,2c-6.81-4.44-13-6.32-21.9-6.42C239.17,96.89,226.9,93.34,211.89,93.32Zm-16.61,17.12c-2.89,7,1.76,9.09,9.95,14.89,10.75,13.14,19.55,16.33,26.92,12.13,12.32,3.35,20.15,6.2,32.74,1.39,1.8,5.22,12,10.67,25.47,7.47,16.19,11.73,25.46,12,28.84,11.83-1.85-.79,3.44-3.67,1.7-4.37-10.47-4.24-20.57-7.24-28.69-14.43-9.17-.35-18.58.63-26.57-6.19-9.71,2.52-16.33,5.8-29.51-2.83-9.09,3-19.7-2-27.15-7.92-.74,1.69-14.82-7.69-13.7-12Zm138.45,40.14c-5.27,1.73-4.19,1.34-5.68,5.26,2.89,10.53,10.46,20.11-3.07,34,1.61,8.43,8.47,7.87,16.39,5.47,9.56,6.56,14.85,2.12,19.06-4.22-5,1.94-9.53,2.34-13.48-3.8-9,3.72-10.74-6.56-5.57-11.83-1.43-3.24-7.22-3.19-1.92-15.12-3.2,2.41-8.5-6.06-5.73-9.73Z"/><path id="path372208" class="cls-5" d="M158,121c1.82-2.59,7.05-25.88,37.39-23m-33.05-5.62c.71-3.17,11.45-22.06,38.23-17.31m1.62.51c.87-3.32,21.63-13.37,39.47-1.33m65.26,44.88c17.23,10.67,15.46,18.77,18.46,28.19m-128.12-45.2c.86-3.33,26.4-9.17,44.23,2.87,8.94-1,18.9,1.06,28.27,4.66m19.78,10.22c4,.62,10.18,6,12.91,12.82,14.68,6,16.18,10.2,20.69,22m.78,35.37c4.39,13.22,13.42,6.41,17.57,4,6.74,12.55,18.68,1.8,18.92-1.61,13.13,9.9,15-16.4,7.29-15.43,17.59-12.79,3.09-19.86-5-16.56,6.87-2.13,9.13-22.41-6.73-11.66-3.5-14.06-12.78-.63-13.8,1.87-6.68-8.91-10.79-2.64-14.11,5.78M317.59,73.05c13.13,31.12,7.06,35.3,6.38,41.83,5.06,9.87,5.51,25.84.31,37m-40-102.79c-3.06-6.38-11-3.46-13.61-.25-4.1-2.11-13.16-8.58-24.4-1.85-1.29-3.1-16.17-5.29-26.61,5.71C206,49.55,188.54,54.91,182.14,66.5c-12.92,3.46-25.66,28.82-19.28,41.08m104-47.22c3.1,2.91,2,1.84,9.53,5.78,3.29,1.73,5.45,8.29,6.41,11.52,1.64,3.55,5.66,3.61,8.48,6,2.27,1.13,10.13,8.72,11.12,14.17,9.51,6.28,8.5,6,11.3,14.11m8.19,43c-1,3-26.25-5.71-31.1-13.57-3.09,2.25-10.73,5.2-25.91-3.56-5,7.09-25.15,5.73-30.9-.42-9.46,3.8-21.79-.06-27.89-11-16.48-4.4-14.41-18.07-8.76-24.05C195.8,94,189.73,85.93,202,76.5c-1.36-16.86,8.85-18.48,16.75-23m-58.07,94.73c8.71,1.66,16.63-7.08,19.13-8.7,17.61-1.56,18.1-8.72,22.14-14.19m-38.76-18c-8.12,17.39-10.64,33.37-3.22,39.7"/><path id="path360322" class="cls-6" d="M325.94,155.94c8.71,9.13,9.84,25.41.64,33.56"/></g></g></g></svg>