<svg xmlns="http://www.w3.org/2000/svg" viewBox="0 0 512 512"><defs><style>.cls-1,.cls-2{fill:#fff;}.cls-1{stroke:#fff;stroke-miterlimit:10;stroke-width:5px;}.cls-3{fill:#ccc;}.cls-4{fill:none;stroke:#999;stroke-linecap:round;stroke-linejoin:round;stroke-width:3px;}</style></defs><g id="Rectangle"><rect class="cls-1" x="2.5" y="2.5" width="507" height="507"/></g><g id="Hair"><g id="layer1"><g id="g473477"><path id="path473469" class="cls-2" d="M150.91,58.36l-3,9.29c-1.8,7.33-12.1-14.72-12.1-14.72-8,77.37,43,105.6,104.45,80.33,9.09,6.53,27.21-1.52,27.31-2.85,0,0,2.43,5.26,12.09,2.93s11.11-5,11.11-5L331.47,134c-10.06-14.65.09-20.95,1.63-29,5.44-28.37-10.72-31.21-16.46-35.17-.24.36-5.4,25-4.43,32C308.3,93.41,291,85.54,289.9,78.6c-.78-5.11-15.58-22.29-15.79-18.55.73-7,14-14.15,12.65-15.82-6.38-7.79-12.45-13.35-32.78-16.41-48.29-7.27-65.73,76.27-103.07,30.54Z"/><path id="path521110" class="cls-3" d="M136.57,55.29c-.83-.51,2.28,64,45.35,74.84,32,8.06,71.14-10.62,71.14-10.62s-9.21,5.3-2.84,8.89S269.39,125,269.39,125c4.78,3.92,11.51,4.14,21.44-.34,2.88,3.9,13.34,5.22,21.22-.34,5,5.63,10.13,8.85,17.92,9.59-8,5.43-19.81,2.37-24.06-3.49-7.27,1.74-10.8,2.37-15.66-1.49-7.91,2.42-16,6.08-22.92,1.67-11.91,4.49-20.8,5.59-26,2.57C178.48,158.8,129.31,130.93,136.57,55.29Z"/><path id="path473475" class="cls-4" d="M239.23,132.83a42,42,0,0,0,13.16-12.65m36.3-75c-58-54.67-89.36,33-119.13,27.94m99.6-14.89c14.92,6.06,14,13.73,22.56,22.25,10.06,7.31,18.41,17,22.13,27.82M289.6,128.11c-1,2.76-17.52,9.29-22,2-2.5,1.2-14,9.5-28.6,2.78a81.5,81.5,0,0,1-45,9.48c-62.95-4.89-62-74.09-58.48-89.34,1.09-4.63,6.27,9.77,11.66,15.37,2.59,2.71.67-10.62,3.34-12.33C168.68,85,208,81.63,215.79,66.87M316.16,70c24,3.69,17.61,37.26,13,46.93-2.48,5.23-5.06,10.17,2,16.6-5.08,4.67-20.7-2.71-20.43-7.26"/></g></g></g></svg>