<?xml version="1.0" encoding="UTF-8" standalone="no"?>
<svg
   inkscape:version="1.1.1 (3bf5ae0, 2021-09-20)"
   id="svg8"
   version="1.1"
   viewBox="0 0 145.52083 145.52084"
   height="550"
   width="550"
   xmlns:inkscape="http://www.inkscape.org/namespaces/inkscape"
   xmlns:sodipodi="http://sodipodi.sourceforge.net/DTD/sodipodi-0.dtd"
   xmlns="http://www.w3.org/2000/svg"
   xmlns:svg="http://www.w3.org/2000/svg"
   xmlns:rdf="http://www.w3.org/1999/02/22-rdf-syntax-ns#"
   xmlns:cc="http://creativecommons.org/ns#"
   xmlns:dc="http://purl.org/dc/elements/1.1/">
  <defs
     id="defs2" />
  <sodipodi:namedview
     borderlayer="true"
     units="px"
     showgrid="false"
     inkscape:document-rotation="0"
     inkscape:current-layer="layer1"
     inkscape:document-units="px"
     inkscape:cy="277.85714"
     inkscape:cx="242.14286"
     inkscape:zoom="0.7"
     inkscape:pageshadow="2"
     inkscape:pageopacity="0"
     borderopacity="1.0"
     bordercolor="#666666"
     pagecolor="#585858"
     id="base"
     inkscape:pagecheckerboard="1"
     inkscape:snap-global="false"
     fit-margin-top="0"
     fit-margin-left="0"
     fit-margin-right="0"
     fit-margin-bottom="0"
     inkscape:window-width="1280"
     inkscape:window-height="967"
     inkscape:window-x="0"
     inkscape:window-y="1"
     inkscape:window-maximized="1" />
  <metadata
     id="metadata5">
    <rdf:RDF>
      <cc:Work
         rdf:about="">
        <dc:format>image/svg+xml</dc:format>
        <dc:type
           rdf:resource="http://purl.org/dc/dcmitype/StillImage" />
      </cc:Work>
    </rdf:RDF>
  </metadata>
  <g
     id="layer1"
     inkscape:groupmode="layer"
     inkscape:label="Layer 1"
     transform="translate(-65.996687,-92.135335)">
    <g
       id="g154583"
       inkscape:label="hair1"
       style="display:inline"
       transform="translate(4.6301033,88.831711)">
      <path
         style="display:inline;vector-effect:none;fill:#ffffff;fill-opacity:1;stroke:none;stroke-width:0.132292;stroke-linecap:butt;stroke-linejoin:miter;stroke-miterlimit:4;stroke-dasharray:none;stroke-dashoffset:0;stroke-opacity:1"
         d="m 192.85774,115.0863 -2.37659,-6.32958 0.61798,-9.985083 -2.45089,-4.781251 c -0.51778,-5.719608 -0.37706,-12.629567 -3.056,-14.442484 -0.56839,-7.776756 -2.33432,-11.413298 -4.85572,-12.437994 -0.28804,-11.005367 -3.01323,-10.230135 -4.85206,-13.739331 -1.38681,6.445053 1.24018,-19.062168 -2.91687,-22.431939 -3.62147,-2.935618 -4.12512,-1.340461 -6.71246,4.31438 -1.96625,4.297387 -10.13415,11.190618 -6.04785,6.353965 -2.58146,-0.787345 -5.97087,-3.146587 -7.18772,-1.278991 l -9.57703,-2.986661 -3.71997,1.079635 -8.87609,1.581266 -7.71562,-1.393873 -16.3189,4.579448 -1.51015,2.952904 -7.592745,-9.563084 c 0,0 -4.978493,0.648483 -5.455275,4.403534 -0.476781,3.755051 -0.752202,16.153945 -0.752202,16.153945 0,0 -3.895183,3.091976 -4.590783,6.874216 -0.695603,3.782243 -3.278645,6.906072 -3.278645,6.906072 l 0.965483,3.354319 c 0,0 0.07785,7.04569 -1.377132,10.159224 -1.454984,3.113532 -4.23472,9.928926 -4.23472,9.928926 -0.05823,2.909677 1.215032,5.233083 -1.119709,9.145127 -0.315773,3.34548 0.572199,6.69096 -1.92016,10.03644 -0.03516,5.68404 2.55862,6.5035 6.216872,5.35327 1.610128,5.94997 4.850284,3.6982 8.227994,3.50017 1.520694,-1.30393 0.201968,-6.17494 2.041363,-6.42373 4.293268,-0.5807 2.663018,-7.45249 2.429492,-7.52097 0,0 0.976127,-1.38341 2.720663,-5.63781 1.744535,-4.25439 0.03611,-8.634125 1.46109,-9.645868 1.424974,-1.011745 3.143784,-7.435121 3.143784,-7.435121 0,0 2.58412,-1.353126 0.94893,3.735735 -1.63519,5.088858 1.43793,10.418596 1.43793,10.418596 0,0 0.27225,6.648728 1.42417,8.253708 1.11777,1.55739 0.41805,9.37725 3.60579,10.25625 3.78556,1.04385 7.96816,5.10885 7.31738,2.327 0.5456,0.10648 5.98601,-6.67985 4.08958,-10.39654 -0.93621,-1.83482 -2.85646,-1.33314 -0.70419,-6.3244 2.35247,-5.455522 0.47364,-5.267512 0.19066,-8.728135 -0.27681,-3.385084 3.20552,-7.666128 3.20552,-7.666128 l -1.22641,-3.442802 1.42628,-3.96753 c 0,0 0.91822,1.396305 1.77999,5.044044 0.86176,3.647739 6.64441,5.975426 7.08284,6.759159 0.43844,0.783735 -1.09866,3.716498 1.10109,5.806444 2.19976,2.089948 5.95173,5.639918 5.95173,5.639918 -1.03477,0.74678 2.17471,4.66745 5.24615,6.23599 0.22064,3.64099 6.81847,7.20356 6.81847,7.20356 2.19173,3.08181 2.43511,6.47527 7.95238,3.27039 4.46598,-2.59421 -0.85601,-5.95057 -0.30238,-6.65689 l 0.67277,-3.87995 c 0,0 5.01936,1.73197 6.3876,6.06667 1.36824,4.33471 5.76775,5.55386 8.05065,3.35747 2.2829,-2.19639 2.66843,0.358 2.66843,0.358 0,0 1.6706,2.71888 4.25588,0.81276 2.58527,-1.90612 3.07662,-3.33812 3.07662,-3.33812 0,0 1.84446,5.01202 8.62515,-1.15141"
         id="path13890"
         sodipodi:nodetypes="cccccccsscccccccccscsccscccccscsscscsscssscccssscccsccsscscc" />
      <path
         id="path85115"
         style="display:inline;opacity:1;vector-effect:none;fill:#cccccc;fill-opacity:1;stroke:none;stroke-width:0.500001;stroke-linecap:butt;stroke-linejoin:miter;stroke-miterlimit:4;stroke-dasharray:none;stroke-dashoffset:0;stroke-opacity:1"
         d="m 608.10173,163.49917 c -24.97268,42.25455 -30.77391,27.06856 -33.51189,30.97349 -1.22556,4.37959 -0.15266,7.78183 1.86133,10.84179 l -6.57617,-6.46093 c -10.00358,8.20306 -2.63463,23.57889 11.80078,56.71875 2.42275,5.56197 17.61623,9.42142 19.16992,11.41015 -4.87014,12.90302 2.95116,27.76647 10.68555,32.4375 8.91352,0.36057 25.09947,20.55083 28.51367,18.90625 -1.91076,-15.6029 -34.8107,-29.03429 -26.02734,-44.87109 4.32793,-7.40419 14.56025,-11.10787 21.91211,-10.23828 L 623.97852,252 c 2.63959,0.86821 5.33132,1.66331 7.23828,2.92188 4.53743,2.99456 12.90468,13.39396 16.74218,15.03124 0.22894,0.0977 0.40254,0.10852 0.53321,0.0508 -2.09588,5.7576 -2.47746,12.83632 1.0664,15.70117 24.35724,19.69031 15.32812,26.10256 23.05664,48.93164 3.65987,10.81078 12.14276,20.91715 16.59961,31.44922 3.22851,9.55694 -7.6031,25.10191 7.65625,43.37109 -0.0274,5.55058 -10.37144,30.15753 7.68555,34.44922 22.46298,5.33889 -8.46441,-43.43041 -7.28516,-55.03711 0.96575,-9.50517 -2.22037,-27.00731 -6.37109,-36.7168 -6.5108,-14.75729 -14.04901,-20.30158 -12.57031,-39.49414 -1.88122,-9.3558 -5.51395,-18.81411 -12.62891,-26.18359 -1.90919,-8.96032 -1.4769,-18.29385 -9.54101,-23.88086 -1.83583,1.2454 -4.26096,-3.63182 -5.48438,-0.54687 -8.51445,-8.69138 0.45928,-12.54541 0.0547,-14.80469 -0.69086,-3.09501 -5.93335,-6.02692 -6.88672,-9.03125 -3.76806,-11.87417 8.74162,-39.96553 1.25839,-50.94235 -7.50193,-11.00426 -6.99849,21.70954 -11.85745,9.21581 -4.79572,-24.25701 12.52554,-67.04722 4.9975,-55.1387 -1.18431,-27.96026 -20.10416,10.27676 -30.14047,22.15346 z M 357.02344,141.5957 c -10.22747,1.14621 -11.2578,18.08985 -11.25782,18.08985 l -0.11328,55.47461 c 0,0 -3.99979,4.90194 -9.59961,7.38867 -5.59983,2.48672 -8.9423,25.12155 -12.74218,34.8125 -3.79988,9.69094 -9.97266,11.15429 -9.97266,11.15429 l 4.45703,22.23438 c 0,0 -1.97028,27.976 -9.71289,41.43359 -7.74262,13.4576 -5.68659,34.44899 -5.34375,41.58008 0.34285,7.13107 -5.22689,12.72591 -10.54101,22.34375 -5.31412,9.61784 -1.48633,26.25781 -1.48633,26.25781 0,0 -3.65772,6.14249 -2.48633,19.63672 1.1714,13.4942 23.82812,10.20313 23.82812,10.20313 -9.21069,0.50906 7.19608,-49.44238 6.97071,-45.85938 -0.208,3.30693 -12.78101,-36.63937 14,-64.58008 0.62717,-10.207 10.44795,-56.00788 25.94336,-50.50195 5.59867,-15.47597 9.28759,-35.59629 20.42773,-37.5957 l -11.60547,1.05469 c -14.69909,-14.06408 5.41107,-19.51498 11.72071,-29.24219 -7.21932,3.2646 -14.28597,-3.57821 -16.20313,-8.48242 0.0808,-4.93898 17.61602,-18.90182 22.06055,-21.95313 4.44452,-3.05132 -15.23242,5.4043 -15.23242,5.4043 -0.59596,5.98518 -14.05119,-46.38688 -13.11133,-58.85352 z m 128.61133,5.09375 c -2.52329,0.20682 -5.12681,0.50807 -7.47461,1.51563 -10.42802,6.85642 -12.28154,19.83532 -26.04688,22.11328 -14.07474,6.26346 -15.08073,27.66212 -31.46094,31.73437 -12.9959,13.50186 -4.75372,20.43299 -15.17773,29.88282 -4.08677,9.02305 -5.96438,10.09263 -11.83399,18.5664 -4.49382,8.16131 -1.22448,21.79739 -0.0937,29.79883 -4.06968,12.02287 -13.03341,18.17614 -12.41016,31.75781 -0.82924,28.59611 -12.56246,29.72341 -16.69336,40.42969 -3.39023,9.7425 -4.11469,10.35421 -2.52539,21.18164 1.39199,9.48318 -2.95805,21.90388 -11.09766,26.20703 -7.11304,14.41066 4.5451,26.4829 -5.33398,40.81641 -2.68033,13.93557 16.49826,-5.96552 14.05664,-11.25391 -3.36429,-12.4984 3.42981,-25.22528 8.81445,-35.3789 3.96421,-5.9209 12.50563,-47.6712 18.0172,-48.02876 l 3.09808,-15.25998 c 7.37265,-6.19302 10.69278,-28.53086 14.13427,-36.87276 6.47856,-10.36924 2.10995,-14.75217 -1.07426,-26.85032 -1.21671,-13.8872 16.8873,-31.34334 16.36573,-45.19521 -0.0601,-11.57239 12.39402,-19.48062 23.11133,-16.64844 4.91913,-8.6301 1.19079,-22.49911 12.86718,-27.22656 10.39147,-2.20674 23.3443,-1.26743 25.43555,-15.0293 0.62555,-6.06974 19.458,-14.88065 5.32227,-16.25977 z m 107.66211,75.17188 c 3.9696,0.88654 8.30648,0.0542 11.94921,4.5 3.32342,4.05604 5.04995,9.31451 7.18164,14.29297 z m -74.51172,18.61328 c -0.22942,-0.0591 -0.36973,-0.0448 -0.40625,0.002 2.79507,7.31266 4.18258,34.07717 4.04687,39.79102 26.93061,13.59876 24.68611,18.02587 30.56641,41.47851 3.44976,11.92223 23.38737,19.65606 24.30273,22.3418 2.02685,8.15006 2.5437,20.43512 6.74805,27.84961 31.7557,21.40338 13.93744,24.7124 22.50586,39.17578 19.13155,6.9363 20.47338,23.10222 27.75781,35.89063 3.94881,6.25152 15.3194,11.58589 21.55664,4.57812 -20.82846,-6.01588 -15.1403,-23.9078 -23.39844,-35.03515 -19.8755,-11.0666 -19.63566,-15.66078 -26.02734,-38.76368 -2.16582,-7.82843 -16.11021,1.65409 -23.56836,-29.98047 -1.11582,-4.73289 -9.81668,-22.03226 -21.73828,-28.22656 -8.59014,-4.46332 5.04773,-18.03246 -12.92188,-33.46094 -6.61036,-5.67558 -11.9995,-5.68611 -15.88671,-19.77539 -5.92055,-21.45917 -11.93123,-25.45165 -13.53711,-25.86523 z m -47.33584,56.18768 c 0.098,12.5698 -7.44552,15.51364 -5.27837,27.81075 6.96251,7.84529 18.29683,11.94662 18.54963,25.53802 l 21.16462,22.6427 c 5.67806,29.24071 16.58116,5.22732 20.68917,19.46677 6.18131,21.42564 14.32579,27.43097 23.75375,23.28963 1.06171,21.01981 12.6311,19.16577 25.47852,26.03906 3.22836,12.62105 6.26352,26.77908 23.58789,11.96484 -17.91424,1.30965 -12.35024,-17.42351 -18.43555,-18.60351 -12.36084,-7.52696 -26.56776,-12.33631 -27.85156,-23.47852 0,0 -20.23816,-10.17569 -20.68554,-27.13086 -0.42987,-16.28903 -12.18415,10.07897 -16.78811,-17.33453 -3.0568,-18.20166 -13.47678,-15.90481 -19.61074,-23.91283 -6.16826,-8.05282 -0.25123,-10.55002 -24.57371,-46.29152 z m -72.37235,4.1902 c -0.57827,-0.12332 -9.53109,36.77917 -9.68651,37.65232 -2.33382,13.11083 -1.29513,20.31322 3.18441,33.15676 3.29714,9.45344 1.74725,13.87468 2.30208,23.28374 0.43193,7.32544 6.61685,11.31669 8.54297,17.8086 6.28657,21.18863 -10.41881,25.20345 14.70266,34.38967 5.39166,1.97158 18.54154,11.61861 21.10913,8.15888 -11.25981,-4.771 -9.0668,-14.59914 -12.83571,-15.85034 -17.81624,-5.91461 -7.983,-23.38597 -16.95299,-32.34744 -13.05074,-13.03834 1.23437,-25.10282 -6.90094,-40.33643 -8.24877,-15.44608 12.33425,-36.25402 -3.4651,-65.91576 z m 247.72772,34.00493 c -2.97029,0.16671 -2.8761,15.20611 -2.69141,17.55469 1.03438,9.95232 7.05646,13.27218 12.84961,20.88086 5.11759,6.62634 5.01477,12.35122 4.39844,20.66015 -0.30577,7.52565 1.79161,18.23241 5.93945,24.88672 4.73091,10.14992 1.49447,23.38512 10.38086,31.64063 2.14741,2.57238 5.87076,1.49123 7.67578,-0.85938 -9.29321,-6.07593 -10.61663,-10.54809 -8.75586,-21.95898 2.55651,-15.67725 -14.34555,-13.29653 -7.07812,-40.5625 4.34343,-16.2956 -20.70206,-26.06814 -21.69532,-51.78711 -0.37613,-0.33163 -0.71616,-0.47232 -1.02343,-0.45508 z"
         transform="scale(0.26458333)"
         sodipodi:nodetypes="ccccsccccccsscssccssccccccssccccccssccssscscsccccccsccsccccccccsccccccccccccsscsccscccccccccsssssssccccscccccsssccssssscssscsccccccsscs" />
      <path
         id="path7348"
         style="font-variation-settings:normal;display:inline;vector-effect:none;fill:none;fill-opacity:1;stroke:#999999;stroke-width:2.11667;stroke-linecap:round;stroke-linejoin:round;stroke-miterlimit:4;stroke-dasharray:none;stroke-dashoffset:0;stroke-opacity:1;-inkscape-stroke:none;stop-color:#000000"
         d="m 168.35691,41.273716 c 0,0 -0.40064,1.702924 -2.1544,7.914724 -1.75376,6.2118 -1.28508,18.059709 -1.28508,18.059709 0,0 3.33365,-1.959327 4.24832,-5.384529 m 14.65034,54.6251 c 4.34299,4.8423 11.53994,0.9748 7.39996,-5.334 -3.13591,-4.31404 2.46678,-11.942748 -2.14523,-16.104168 -2.54414,-5.14377 0.8252,-11.28416 -4.06973,-15.901674 0.0882,-6.219645 -0.0195,-9.729076 -4.62605,-12.883706 0.90691,-5.150409 -1.20086,-11.262736 -5.27929,-13.502486 m -14.975,56.589064 c 4.13991,1.05541 6.52841,2.88095 7.01416,7.57497 2.01335,7.18089 11.23486,3.73969 9.74377,-4.31054 -0.94067,-4.35711 -3.29686,-2.28149 -1.87422,-8.97416 1.15267,-5.422626 -5.59499,-6.401798 -4.70068,-11.335859 0.47191,-2.603611 -0.83125,-9.615769 -6.07216,-12.232185 -2.45499,-0.125309 -4.74493,-1.152719 -5.3074,-6.128279 0.15531,-5.594086 -6.4999,-1.718497 -6.64067,-10.615234 -0.38972,-1.910539 -1.7349,-3.439321 -3.06702,-4.785602 M 122.8189,84.861372 c -0.22106,4.389425 4.64422,1.387936 5.2911,6.858083 0.24372,5.3966 6.30151,1.384449 6.10939,8.773365 -0.13604,5.23198 5.09319,-0.62993 5.34672,3.41624 0.42916,6.84912 5.81544,3.90422 5.92802,7.32216 0.18839,5.71914 7.01322,3.09033 7.04185,6.79034 0.0496,6.41399 11.18327,4.10161 8.3817,-2.37532 -3.17066,-3.26746 0.94445,-7.75386 -1.11988,-12.30031 -1.89574,-3.558548 -7.3611,-3.963008 -6.06994,-9.114458 -0.42308,-4.73405 -5.79344,-6.42378 -7.92497,-8.94553 0.74635,-5.351301 -3.4157,-10.404086 -7.93653,-10.998028 1.056,-4.549884 -0.22532,-11.178182 -5.23075,-12.787408 m -32.44551,5.240781 c -4.246358,1.514185 -4.179453,7.000715 -5.073461,9.769205 -8.786011,1.966765 -4.937691,10.901994 -7.989776,14.622774 -3.475167,4.1038 -4.910857,7.956585 -3.576979,12.344454 1.699941,5.59205 -2.284025,8.03875 -1.950404,11.57733 0.08332,4.24164 3.501577,10.26693 8.381575,7.24196 3.167535,-1.3977 -0.964129,-3.61902 4.308751,-7.04062 3.314137,-1.52755 -1.497122,-6.39143 2.057977,-8.59683 3.649678,-4.4533 0.10363,-10.357277 4.962967,-13.674167 M 98.852189,60.27643 c -4.970543,0.39743 -9.050625,4.89702 -9.616819,8.350981 0.200826,4.303784 -6.053587,4.516496 -5.609245,12.61393 0.801463,7.467348 -3.086008,6.492756 -4.181741,11.962071 -0.527633,3.99987 1.380422,7.111538 -1.789748,11.099128 -2.184439,2.74769 1.181331,6.55738 -1.624685,9.54615 -1.24706,4.02047 2.52777,6.84385 6.31779,5.53308 M 112.45204,44.806615 c -3.9965,0.0063 -8.81201,1.478653 -10.03832,5.760765 -5.889968,0.295378 -6.295187,7.490079 -12.065796,7.56059 -4.738066,2.52354 -1.588657,8.040051 -6.257637,11.774215 -1.260874,0.89826 -0.560844,5.84214 0.350945,6.463549 M 131.28456,40.845655 c -4.19243,-4.948263 -11.72525,-0.126358 -16.16684,0.401044 -3.47596,0.679851 -8.79024,0.600406 -10.07295,5.08009 0,0 -4.93311,-6.281887 -6.180394,-7.597785 -1.247282,-1.315898 -2.63063,-3.889638 -5.518278,-0.812762 -2.887649,3.076876 -1.746197,10.304633 -1.806671,12.888045 -0.06047,2.583412 0.0076,6.821376 0.0076,6.821376 m 85.462413,59.024497 c 1.90929,7.19507 8.85655,2.74527 6.23641,-4.3297 4.08029,-4.42082 -2.76667,-6.70516 -0.87824,-10.67252 1.90991,-5.917778 -4.11914,-9.394728 -4.95187,-14.166838 0.73454,-5.85654 -2.11384,-11.413226 -5.72624,-11.757423 0.16281,-5.510182 -5.64199,-8.603177 -9.0996,-8.926919 -1.85387,-8.121939 -4.41336,-6.998701 -7.29891,-8.388263 -0.60034,-1.753097 -3.4507,-5.569665 -5.32058,-6.725478 3.995,1.152661 9.25991,-6.801953 11.16602,-9.96888 m -38.72626,31.862069 c 1.95412,3.630428 2.40138,7.983694 -0.59982,11.103754 4.86066,4.4066 -3.7443,8.114829 -0.43736,12.635273 3.10845,4.249125 -5.18586,8.644895 -0.59159,13.050805 3.31991,3.18379 -1.46594,9.53548 -3.86718,10.66334 -3.85651,1.8114 -4.40396,-2.61022 -6.3763,-2.49226 -6.33059,-1.59943 -1.15291,-7.61001 -5.45851,-11.80391 -2.49616,-2.4314 1.36066,-4.90601 -1.15356,-8.273147 -3.32274,-4.449913 -1.35488,-6.530452 -1.30627,-10.528222 -3.167923,-3.61798 3.00373,-11.56947 4.67967,-13.951969 -4.82099,-9.679337 3.70716,-8.711189 2.94832,-13.94518 0.42346,-3.05015 3.87819,-7.697119 6.90827,-5.567518 -1.33574,-4.728197 4.82902,-9.757969 7.81317,-7.728418 0.61242,-2.705479 3.42765,-8.466254 6.51133,-5.380907 2.93373,-4.669941 6.50371,-1.89718 8.40795,-2.562723 5.82659,-3.724337 6.62744,2.425613 14.4768,0.606825 4.1226,-0.554663 5.26957,2.8585 6.7713,2.312188 0,0 2.76811,-2.123996 3.7357,-4.36876 0.96758,-2.244764 3.26559,-9.6757 6.62192,-8.146942 3.35632,1.528757 3.43192,7.527702 3.9384,11.465711 0.50647,3.938009 -0.60474,13.933016 -1.05074,16.651888 -0.446,2.718873 -2.10906,7.421261 -2.23,10.807763 -0.12094,3.386502 -0.58206,7.508349 -0.58206,7.508349"
         sodipodi:nodetypes="cscccccccccccssccccccsssscccccccccscccccccccsccccccccccsssccccccccccccssscsscccccccccsssssc" />
    </g>
  </g>
</svg>
