<svg width="204" height="120" viewBox="0 0 204 120" fill="none" xmlns="http://www.w3.org/2000/svg">
<path d="M18.9101 33.3599L15.9101 42.6499C14.1101 49.9799 3.81007 27.9299 3.81007 27.9299C-4.18993 105.3 46.8101 133.53 108.26 108.26C117.35 114.79 135.47 106.74 135.57 105.41C135.57 105.41 138 110.67 147.66 108.34C157.32 106.01 158.77 103.34 158.77 103.34L199.47 109C189.41 94.3499 199.56 88.0499 201.1 79.9999C206.54 51.6299 190.38 48.7899 184.64 44.8299C184.4 45.1899 179.24 69.8299 180.21 76.8299C176.3 68.4099 159 60.5399 157.9 53.5999C157.12 48.4899 142.32 31.3099 142.11 35.0499C142.84 28.0499 156.11 20.8999 154.76 19.2299C148.38 11.4399 142.31 5.87993 121.98 2.81993C73.6901 -4.45007 56.2501 79.0899 18.9101 33.3599V33.3599Z" fill="white"/>
<path d="M4.57001 30.2896C3.74001 29.7796 6.85 94.2896 49.92 105.13C81.92 113.19 121.06 94.5096 121.06 94.5096C121.06 94.5096 111.85 99.8096 118.22 103.4C124.59 106.99 137.39 99.9996 137.39 99.9996C142.17 103.92 148.9 104.14 158.83 99.6596C161.71 103.56 172.17 104.88 180.05 99.3196C185.05 104.95 190.18 108.17 197.97 108.91C189.97 114.34 178.16 111.28 173.91 105.42C166.64 107.16 163.11 107.79 158.25 103.93C150.34 106.35 142.25 110.01 135.33 105.6C123.42 110.09 114.53 111.19 109.33 108.17C46.48 133.8 -2.68999 105.93 4.57001 30.2896Z" fill="#CCCCCC"/>
<path d="M184.16 44.9998C208.16 48.6898 201.77 82.2598 197.16 91.9298C194.68 97.1598 192.1 102.1 199.16 108.53C194.08 113.2 178.46 105.82 178.73 101.27M107.23 107.83C112.491 104.629 116.984 100.31 120.39 95.1798L107.23 107.83ZM156.69 20.1798C98.6901 -34.4902 67.3301 53.1798 37.5601 48.1198L156.69 20.1798ZM137.16 33.2298C152.08 39.2898 151.16 46.9598 159.72 55.4798C169.78 62.7898 178.13 72.4798 181.85 83.2998L137.16 33.2298ZM157.6 103.11C156.6 105.87 140.08 112.4 135.6 105.11C133.1 106.31 121.6 114.61 107 107.89C93.2211 115.304 77.5991 118.595 62.0001 117.37C-0.949936 112.48 6.77109e-05 43.2798 3.52007 28.0298C4.61007 23.3998 9.79006 37.7998 15.1801 43.3998C17.7701 46.1098 15.8501 32.7798 18.5201 31.0698C36.6801 59.9998 76.0001 56.6298 83.7901 41.8698L157.6 103.11Z" stroke="#999999" stroke-width="3" stroke-linecap="round" stroke-linejoin="round"/>
</svg>
