<?xml version="1.0" encoding="UTF-8"?>
<svg width="20px" height="25px" viewBox="0 0 20 25" version="1.1" xmlns="http://www.w3.org/2000/svg" xmlns:xlink="http://www.w3.org/1999/xlink">
    <g id="Screens-+-UI-Kit" stroke="none" stroke-width="1" fill="none" fill-rule="evenodd">
        <g id="wallet-v2" transform="translate(-241.000000, -1413.000000)" fill="#E2FF54" fill-rule="nonzero">
            <g id="Group-15" transform="translate(241.000000, 1184.000000)">
                <g id="Group-23" transform="translate(0.000000, 87.000000)">
                    <g id="stopwatch-2" transform="translate(0.000000, 142.870175)">
                        <path d="M17.4478459,6.88701986 L18.7339799,5.59466141 C18.9431074,5.38316606 19.024781,5.07490487 18.948235,4.78599685 C18.871689,4.49708882 18.6485526,4.27142597 18.3628792,4.1940133 C18.0772057,4.11660063 17.7723957,4.19919896 17.5632682,4.41069432 L16.2853786,5.71139056 C14.7206411,4.36378605 12.7769433,3.54717255 10.7286202,3.37680756 L10.7286202,1.66755929 L12.3775099,1.66755929 C12.8328383,1.66755929 13.2019548,1.29426343 13.2019548,0.833779644 C13.2019548,0.373295862 12.8328383,0 12.3775099,0 L7.43084072,0 C6.9755124,0 6.60639585,0.373295862 6.60639585,0.833779644 C6.60639585,1.29426343 6.9755124,1.66755929 7.43084072,1.66755929 L9.07973047,1.66755929 L9.07973047,3.37680756 C4.52895697,3.75688763 0.826571623,7.23739297 0.119864372,11.7997184 C-0.586842879,16.3620439 1.88573961,20.8208386 6.10357647,22.5901142 C10.3214133,24.3593899 15.1886562,22.9794659 17.8824273,19.2506633 C20.5761983,15.5218607 20.3966211,10.4129705 17.4478459,6.88701986 L17.4478459,6.88701986 Z M9.90417534,21.6782707 C5.35089205,21.6782707 1.65972663,17.9453121 1.65972663,13.3404743 C1.65972663,8.73563648 5.35089205,5.00267786 9.90417534,5.00267786 C14.4574586,5.00267786 18.148624,8.73563648 18.148624,13.3404743 C18.148624,15.5517954 17.280015,17.6725466 15.7338809,19.2361867 C14.1877469,20.7998269 12.0907391,21.6782707 9.90417534,21.6782707 L9.90417534,21.6782707 Z" id="Shape"></path>
                        <path d="M10.4316736,12.5644376 L10.4316736,8.00212162 C10.4316736,7.55137072 10.1098987,7.18596491 9.71296927,7.18596491 C9.31603981,7.18596491 8.99425287,7.55137072 8.99425287,8.00212162 L8.99425287,12.8990619 C8.99316043,13.1159988 9.0681574,13.324509 9.20268917,13.4785331 L11.3588023,15.9270033 C11.4937509,16.0815121 11.6774488,16.1684211 11.8690824,16.1684211 C12.0607159,16.1684211 12.2444138,16.0815121 12.3793625,15.9270033 C12.5154223,15.7737563 12.591954,15.56515 12.591954,15.347532 C12.591954,15.129914 12.5154223,14.9213077 12.3793625,14.7680607 L10.4316736,12.5644376 Z" id="Path"></path>
                    </g>
                </g>
            </g>
        </g>
    </g>
</svg>