<?xml version="1.0" encoding="UTF-8"?>
<svg width="16px" height="21px" viewBox="0 0 16 21" version="1.1" xmlns="http://www.w3.org/2000/svg" xmlns:xlink="http://www.w3.org/1999/xlink">
    <title>Shape</title>
    <g id="Screens-+-UI-Kit" stroke="none" stroke-width="1" fill="none" fill-rule="evenodd">
        <g id="wallet-v2" transform="translate(-790.000000, -426.000000)" fill="#0E0927" fill-rule="nonzero">
            <g id="Group-25" transform="translate(761.000000, 413.000000)">
                <g id="Group-14" transform="translate(29.657143, 13.517916)">
                    <path d="M14.5833203,7.5 L13.3333203,7.5 L13.3333203,5.83332031 C13.3333203,2.61679687 10.7165625,0 7.5,0 C4.2834375,0 1.66667969,2.61679687 1.66667969,5.83332031 L1.66667969,7.5 L0.416679688,7.5 C0.186367188,7.5 0,7.68636719 0,7.91667969 L0,18.3333594 C0,19.2525391 0.747460938,20 1.66667969,20 L13.3333594,20 C14.2525391,20 15,19.2525391 15,18.3333203 L15,7.91667969 C15,7.68636719 14.8136328,7.5 14.5833203,7.5 Z M8.74757812,16.2040234 C8.76058594,16.3216016 8.72277344,16.4396094 8.64382812,16.5279297 C8.56488281,16.6162109 8.45175781,16.6666797 8.33335938,16.6666797 L6.66667969,16.6666797 C6.54828125,16.6666797 6.43515625,16.6162109 6.35621094,16.5279297 C6.27726563,16.4396484 6.23941406,16.3216406 6.25246094,16.2040234 L6.5153125,13.8403516 C6.08847656,13.5298828 5.83335937,13.03875 5.83335937,12.5 C5.83335937,11.5808203 6.58082031,10.8333203 7.50003906,10.8333203 C8.41925781,10.8333203 9.16671875,11.5807812 9.16671875,12.5 C9.16671875,13.03875 8.91160156,13.5298828 8.48476563,13.8403516 L8.74757812,16.2040234 Z M10.8333203,7.5 L4.16667969,7.5 L4.16667969,5.83332031 C4.16667969,3.99535156 5.66203125,2.5 7.5,2.5 C9.33796875,2.5 10.8333203,3.99535156 10.8333203,5.83332031 L10.8333203,7.5 L10.8333203,7.5 Z" id="Shape"></path>
                </g>
            </g>
        </g>
    </g>
</svg>