<?xml version="1.0" encoding="UTF-8"?>
<svg width="17px" height="22px" viewBox="0 0 17 22" version="1.1" xmlns="http://www.w3.org/2000/svg" xmlns:xlink="http://www.w3.org/1999/xlink">
    <g id="Screens-+-UI-Kit" stroke="none" stroke-width="1" fill="none" fill-rule="evenodd">
        <g id="wallet-v2" transform="translate(-242.000000, -1271.000000)" fill="#E2FF54" fill-rule="nonzero">
            <g id="Group-15" transform="translate(241.000000, 1184.000000)">
                <g id="Group-23" transform="translate(0.000000, 87.000000)">
                    <g id="lock-2" transform="translate(1.798851, 0.000000)">
                        <path d="M15.7399285,8.08421053 L14.3907905,8.08421053 L14.3907905,6.28770526 C14.3907905,2.82063158 11.5664968,0 8.09482759,0 C4.62315841,0 1.79886463,2.82063158 1.79886463,6.28770526 L1.79886463,8.08421053 L0.449726697,8.08421053 C0.201148033,8.08421053 0,8.28509474 0,8.53334737 L0,19.7614316 C0,20.7522105 0.806742322,21.5578947 1.79886463,21.5578947 L14.3908327,21.5578947 C15.3829129,21.5578947 16.1896552,20.7522105 16.1896552,19.7613895 L16.1896552,8.53334737 C16.1896552,8.28509474 15.9885071,8.08421053 15.7399285,8.08421053 Z M9.44135156,17.4662316 C9.45539103,17.5929684 9.41457961,17.7201684 9.32937311,17.8153684 C9.24416662,17.9105263 9.12206964,17.9649263 8.99428098,17.9649263 L7.19541635,17.9649263 C7.06762769,17.9649263 6.94553071,17.9105263 6.86032422,17.8153684 C6.77511773,17.7202105 6.73426414,17.5930105 6.74834577,17.4662316 L7.03204418,14.9184421 C6.57135574,14.5837895 6.29600512,14.0544 6.29600512,13.4736842 C6.29600512,12.4829053 7.10274744,11.6771789 8.09486975,11.6771789 C9.08699205,11.6771789 9.89373437,12.4828632 9.89373437,13.4736842 C9.89373437,14.0544 9.61838376,14.5837895 9.15769531,14.9184421 L9.44135156,17.4662316 Z M11.6925147,8.08421053 L4.49714049,8.08421053 L4.49714049,6.28770526 C4.49714049,4.30656842 6.1110889,2.69473684 8.09482759,2.69473684 C10.0785663,2.69473684 11.6925147,4.30656842 11.6925147,6.28770526 L11.6925147,8.08421053 L11.6925147,8.08421053 Z" id="Shape"></path>
                    </g>
                </g>
            </g>
        </g>
    </g>
</svg>