<?xml version="1.0" encoding="UTF-8"?>
<svg width="12px" height="21px" viewBox="0 0 12 21" version="1.1" xmlns="http://www.w3.org/2000/svg" xmlns:xlink="http://www.w3.org/1999/xlink">
    <title>Path Copy</title>
    <g id="Wallet" stroke="none" stroke-width="1" fill="none" fill-rule="evenodd">
        <g id="alpacasino-wallet-01d" transform="translate(-1195.000000, -1128.000000)" fill="#FFD401" fill-rule="nonzero">
            <g id="Group" transform="translate(249.000000, 1019.500000)">
                <g id="Group-2-Copy-2" transform="translate(662.000000, 0.000000)">
                    <path d="M295.674183,118.18058 L286.584428,108.835485 C286.374193,108.61917 286.093548,108.5 285.794304,108.5 C285.495059,108.5 285.214414,108.61917 285.004179,108.835485 L284.334782,109.523528 C283.8992,109.971866 283.8992,110.700543 284.334782,111.148198 L291.967671,118.995646 L284.326313,126.851802 C284.116078,127.068117 284,127.356481 284,127.663966 C284,127.971793 284.116078,128.260156 284.326313,128.476642 L284.99571,129.164515 C285.206111,129.38083 285.48659,129.5 285.785834,129.5 C286.085079,129.5 286.365724,129.38083 286.575959,129.164515 L295.674183,119.810884 C295.884916,119.593885 296.000661,119.304156 296,118.996159 C296.000661,118.686966 295.884916,118.397407 295.674183,118.18058 Z" id="Path-Copy"></path>
                </g>
            </g>
        </g>
    </g>
</svg>