<svg width="512" height="512" viewBox="0 0 512 512" fill="none" xmlns="http://www.w3.org/2000/svg">
<g id="Body1">
<g id="Body1_2">
<g id="Body">
<g id="layer1">
<g id="g1218">
<g id="path1120-9">
<path id="abColor_1" d="M275.797 60.91C280.443 85.9899 324.704 103.53 312.223 98.1598C309.67 94.9698 317.388 67.57 317.388 67.57C317.388 67.57 320.811 55.9501 320.166 52.4301C319.52 48.9101 321.359 35.5402 319.696 32.9402C318.033 30.3402 316.214 21.5803 315.617 20.5103C315.021 19.4403 313.602 16.5903 311.02 17.9503C308.438 19.3103 306.697 22.0403 305.758 23.5903C304.819 25.1403 298.255 36.6602 296.886 38.3202C295.517 39.9802 288.934 45.8701 288.934 45.8701L275.797 60.91ZM211.132 57.4501C208.198 52.4501 211.445 56.8201 207.494 51.1701C207.494 51.1701 201.038 45.3901 198.847 40.1702C196.656 34.9502 194.416 30.0402 190.454 31.1002C186.493 32.1602 185.749 33.5902 184.879 42.5202C184.008 51.4501 184.126 71.45 184.126 71.45C184.4 71.39 181.592 71.51 183.568 77.8299C192.851 71.1 200.138 67.64 211.132 57.4501ZM179.069 117.57C174.109 131.96 179.294 147.569 179.744 160.499C176.496 161.499 179.744 167.739 180.291 171.849C177.494 176.049 178.687 180.279 181.084 184.519C179.401 190.049 178.951 195.669 183.705 201.679C182.12 206.679 181.142 211.559 185.153 214.989C185.505 223.609 185.661 232.469 191.569 234.449C189.564 239.229 186.503 243.449 190.591 251.389C188.948 255.699 186.111 259.839 191.276 265.119C189.916 271.239 184.801 274.889 192.01 286.608L191.921 295.868C190.043 301.098 187.823 306.428 188.86 310.708L189.427 325.958C183.441 328.388 178.883 340.818 174.941 353.788C183.373 360.788 215.348 385.478 262.436 384.498C306.54 383.578 336.178 360.698 344.962 353.368C348.141 347.778 339.709 337.688 338.418 336.048C336.833 316.878 334.681 313.808 331.737 311.178C330.691 298.988 330.27 286.919 325.125 273.909C326.582 264.429 321.653 260.439 319.08 254.419C320.762 245.739 318.043 242.349 317.065 236.849L319.403 223.699C322.973 217.469 322.279 210.699 318.933 203.629C325.829 197.279 322.367 190.169 321.741 183.269C323.912 176.689 321.741 170.559 320.762 164.269C324.841 160.969 321.173 155.189 319.98 150.199C325.937 138.269 322.504 134.2 321.437 128.2C323.482 124.29 324.577 117.72 322.132 116.62L316.762 73.9999C294.265 62 233.796 27.7602 187.383 74.8099C186.905 74.6741 186.404 74.6502 185.916 74.7399C178.717 76.1899 178.775 105.62 179.069 117.57Z" fill="white"/>
<path id="Vector" d="M274.379 61.3102C276.149 70.5702 282.624 78.3101 289.393 84.3101C295.489 89.6521 302.145 94.2871 309.24 98.13C310.697 98.9399 312.252 99.6 313.68 100.44L314.805 97.7C315.03 97.79 315.412 97.94 314.805 97.7L313.759 97.21C313.647 97.148 313.529 97.0977 313.407 97.06C313.025 96.95 313.191 96.78 313.26 97.13C313.436 98.02 313.397 97.03 313.328 97.13C313.26 97.23 313.387 97.43 313.328 97.06C313.328 96.91 313.26 96.77 313.231 96.63C313.201 96.49 313.231 96.87 313.231 96.48C313.231 96.09 313.231 95.75 313.231 95.38C313.231 91 314.326 86.56 315.265 82.3101C316.693 75.8701 318.571 69.5802 320.156 63.1802C320.843 60.553 321.35 57.8798 321.672 55.1803C321.907 52.9903 321.525 51.4703 321.564 49.3203C321.564 46.5303 321.809 43.7403 321.897 40.9504C322.126 38.4629 322.011 35.9549 321.555 33.5004C321.228 32.6332 320.829 31.7968 320.361 31.0004C319.868 29.7739 319.446 28.5183 319.099 27.2404C318.424 24.9505 317.975 22.5305 317.143 20.3105C316.312 18.0905 314.209 15.6205 311.568 16.1805C308.408 16.8505 306.07 20.2505 304.486 22.8705C302.129 26.7805 299.918 30.7904 297.531 34.6804C296.756 36.1052 295.784 37.4085 294.646 38.5504C292.856 40.3404 290.988 42.0403 289.119 43.7303L287.916 44.8103C286.498 46.0903 288.581 48.2003 290 46.9303C291.418 45.6603 292.582 44.5903 293.863 43.4003C295.497 42.0352 296.997 40.5114 298.343 38.8504C300.947 34.9784 303.357 30.9732 305.562 26.8505C306.479 25.1004 307.533 23.4284 308.711 21.8505C309.465 20.9305 311.264 18.7005 312.624 19.0805C313.446 19.3205 314.003 20.5005 314.365 21.2105C314.365 21.3005 314.287 20.9505 314.365 21.3405L314.512 21.7905C314.688 22.3505 314.835 22.9105 314.991 23.4705C315.343 24.7805 315.695 26.0905 316.067 27.3904C316.439 28.6904 316.889 30.1904 317.417 31.5404C317.632 32.0904 317.857 32.6404 318.121 33.1604C318.209 33.3304 318.317 33.4904 318.405 33.6504C318.581 33.9704 318.405 33.6504 318.522 33.8904C319.256 35.9704 318.943 38.6204 318.874 40.7804C318.786 43.5803 318.581 46.3703 318.532 49.1703C318.532 51.2603 318.855 52.8303 318.679 54.8003C318.38 57.3927 317.883 59.9572 317.192 62.4702C315.656 68.7002 313.827 74.8301 312.438 81.0901C311.308 85.5134 310.568 90.0315 310.228 94.59C310.046 95.9924 310.249 97.4188 310.814 98.71C311.313 99.5699 312.516 99.86 313.377 100.25C313.583 100.34 313.788 100.44 314.003 100.52C315.568 101.15 316.537 98.61 315.128 97.78C314.052 97.15 312.869 96.65 311.773 96.06C308.923 94.5266 306.139 92.88 303.42 91.12C296.035 86.36 288.875 80.7401 283.456 73.6701C280.376 69.8324 278.225 65.3068 277.176 60.4602C276.814 58.5702 273.987 59.3702 274.349 61.2602L274.379 61.3102Z" fill="black"/>
<path id="Vector_2" d="M212.394 56.7004C212.013 56.0504 211.631 55.4004 211.289 54.7004C211.289 54.6304 211.074 54.1904 211.142 54.4104C211.211 54.6304 211.142 54.3304 211.142 54.2804C211.007 53.818 210.809 53.3771 210.555 52.9704C209.943 51.9007 209.229 50.8958 208.423 49.9705C207.728 49.2505 206.975 48.5905 206.271 47.8705C203.756 45.4526 201.68 42.5986 200.138 39.4405C198.71 36.2006 197.204 31.7906 193.888 30.0806C191.697 28.9506 188.782 29.6306 186.884 31.0806C184.987 32.5306 184.439 34.9706 184.077 37.2106C183.162 43.7651 182.721 50.3796 182.756 57.0004C182.668 61.8404 182.629 66.7004 182.659 71.5403C182.662 71.7705 182.716 71.9968 182.817 72.2024C182.919 72.4079 183.064 72.5873 183.243 72.7269C183.422 72.8666 183.63 72.9628 183.85 73.0085C184.071 73.0541 184.299 73.0479 184.517 72.9903C184.642 72.9473 184.763 72.8938 184.879 72.8303C185.12 72.6764 185.313 72.4549 185.435 72.1922C185.557 71.9295 185.603 71.6366 185.567 71.3481C185.531 71.0597 185.414 70.7879 185.232 70.565C185.049 70.342 184.808 70.1773 184.537 70.0903C183.48 69.7803 183.294 70.1095 182.825 70.9695C181.729 72.9695 181.543 76.2903 182.15 78.3203C182.212 78.5409 182.323 78.7441 182.473 78.9148C182.623 79.0855 182.809 79.2192 183.017 79.3058C183.225 79.3924 183.45 79.4297 183.674 79.4149C183.898 79.4001 184.116 79.3335 184.312 79.2203C188.645 76.0603 193.174 73.2203 197.585 70.2203C202.714 66.7084 207.589 62.8216 212.169 58.5904C213.578 57.3004 211.494 55.1804 210.095 56.4704C205.615 60.6064 200.845 64.403 195.824 67.8303C191.501 70.8303 187.021 73.5803 182.825 76.6703L184.977 77.5603C184.418 76.1755 184.239 74.6613 184.458 73.1803C184.39 73.4303 184.595 72.9403 184.605 72.9203C184.605 73.1203 184.703 72.9203 184.468 73.0503C184.664 72.9303 184.762 73.0503 184.39 73.0503C184.82 72.9803 183.695 73.0503 183.754 73.0503L183.402 70.3103L183.735 70.1703L185.622 71.5003C185.564 62.0304 185.476 52.5004 186.327 43.0205C186.571 40.3505 186.61 37.0206 187.843 34.5806C188.099 33.9953 188.544 33.5184 189.105 33.2306C189.892 32.7619 190.786 32.5136 191.697 32.5106C193.076 32.6206 194.064 34.0006 194.758 35.1006C195.727 36.7314 196.571 38.4365 197.282 40.2005C198.729 43.3854 200.694 46.2966 203.092 48.8105C204.002 49.8105 204.95 50.8105 205.929 51.7105C206.652 52.4639 207.288 53.2993 207.826 54.2004C207.953 54.4104 208.081 54.6204 208.217 54.8204C208.354 55.0204 208.423 55.2704 208.315 54.9804C208.208 54.6904 208.315 55.0704 208.315 55.1604C208.705 56.2423 209.231 57.2676 209.88 58.2104C210.849 59.8604 213.382 58.3504 212.394 56.7004Z" fill="black"/>
</g>
<g id="path621552-0">
<path id="Shadow" d="M312.429 31.6904L304.144 52.0503L305.885 42.0504C297.943 53.0503 295.204 62.0502 289.746 62.0502C283.202 63.5302 284.092 56.8803 280.718 54.3003L275.827 60.7202C281.5 80.1701 294.949 89.14 310.883 97.56L312.292 95.29C309.201 91.29 308.066 84.1201 309.26 80.1601C309.406 79.0001 313.759 57.9003 313.759 57.9003C313.759 57.9003 310.169 49.9503 310.326 45.8103C310.482 41.6704 312.429 31.6904 312.429 31.6904ZM187.706 33.7604C187.637 33.7604 187.598 33.8204 187.579 33.9304C183.94 42.4304 184.253 77.5901 184.458 76.7401C185.652 75.5559 186.97 74.6215 188.341 73.7895C189.862 72.866 191.448 71.1198 193 70.2471C194.773 69.2503 197.466 67.1866 199 65.6927C197.965 61.7511 192.567 43.8203 191.951 40.9504C191.442 38.5504 188.322 33.7404 187.706 33.7604ZM204.452 315.848C207.249 313.578 208.237 305.729 204.08 301.179C201.517 298.369 206.829 292.749 206.193 288.999C205.596 285.469 203.434 281.479 203.61 277.689C203.777 274.049 206.613 270.919 207.044 267.559C206.339 257.979 203.65 258.189 206.339 253.359C207.846 245.619 203.933 238.699 204.608 234.359C209.382 229.359 214.957 225.689 206.672 215.689C206.056 215.089 207.552 210.969 204.97 209.339C200.079 206.269 197.712 184.969 200.207 179.969C201.478 177.429 209.988 167.869 214.204 164.02C215.485 162.86 215.485 161.55 216.326 160.44C222.704 157.01 232.329 158.37 236.241 164.01C237.66 165.34 246.365 164.24 248.341 164.01C250.845 163.74 263.561 162.55 265.458 160.68C267.679 158.51 260.666 147.68 260.372 143.26C260.079 138.84 257.369 140.06 264.197 136.89C269.244 135.7 285.031 134.41 284.376 128.4C283.818 128.65 286.841 122.07 283.681 116.6C272.922 97.75 178.042 74.5101 179.656 116.76C176.614 120.11 177.582 139.64 177.602 137.62C177.602 135.09 175.381 148.01 181.025 156.91C182.003 158.53 178.922 160.47 178.619 162.37C178.12 165.519 180.82 167.779 180.947 170.599C181.055 172.999 178.883 175.119 179.128 177.599C179.333 179.599 182.062 180.849 182.062 182.799C182.062 186.429 180.389 189.579 180.047 193.409C179.656 197.779 184.644 201.499 184.938 201.409C187.667 200.859 182.307 206.579 182.688 209.659C183.021 212.299 185.378 214.059 185.71 216.559C186.082 219.369 185.857 225.699 186.884 228.429C187.804 230.879 186.356 230.739 190.151 233.249C193.946 235.759 188.293 241.249 188.616 245.249C188.772 247.299 190.797 248.539 190.983 250.389C191.227 252.759 188.381 255.499 188.508 258.299C188.625 260.879 191.159 262.909 191.237 265.169C191.335 268.389 188.469 271.739 188.361 275.169C188.215 279.989 190.992 283.499 192.029 287.919C192.743 291.009 193.721 294.029 191.931 296.679C190.141 299.329 191.5 297.967 188.997 304.546C188.997 304.546 188.5 313.495 189.5 323.775C188.326 328.085 188.4 326.898 188.4 326.898L183.715 330.498L182.346 337.498C181.123 337.228 174.452 348.008 174.931 353.588C182.923 361.068 205.332 374.298 229.707 378.168C220.65 373.818 212.032 365.598 204.823 354.998C204.823 354.998 194.25 346.388 202.681 336.078C205.958 332.078 199.453 319.868 204.452 315.808V315.848Z" fill="black" fill-opacity="0.2"/>
</g>
<g id="path737212">
<path id="Vector_3" d="M197.546 58.7802C196.75 53.6812 195.682 48.6304 194.347 43.6503C193.878 41.7904 191.041 42.5804 191.521 44.4503C192.856 49.4263 193.92 54.474 194.709 59.5702C194.825 59.9447 195.078 60.2585 195.416 60.4452C195.754 60.6319 196.149 60.6767 196.519 60.5702C196.888 60.4561 197.2 60.2018 197.391 59.8595C197.582 59.5172 197.638 59.113 197.546 58.7302V58.7802Z" fill="black"/>
<path id="Vector_4" d="M208.53 51.4202C205.733 46.9003 202.221 42.8803 199.62 38.2303C197.742 34.8603 195.991 28.7204 191.198 29.1304C187.285 29.4704 185.182 32.6104 184.292 36.2003C183.089 41.0503 183.138 46.2003 183.109 51.2002C183.06 58.1202 183.187 65.0501 182.522 71.9401C182.336 73.8601 185.27 73.8501 185.456 71.9401C186.004 66.3101 186.014 60.6402 186.023 54.9402C185.906 49.9528 186.099 44.9628 186.601 40.0003C186.953 37.3203 187.393 33.9103 190.014 32.6004C190.339 32.3881 190.705 32.2492 191.086 32.193C191.468 32.1368 191.857 32.1645 192.228 32.2743C192.598 32.3841 192.941 32.5735 193.234 32.8298C193.527 33.086 193.763 33.4033 193.927 33.7604C195.032 35.5203 195.883 37.4603 196.861 39.2803C199.512 44.1303 203.151 48.2803 206.046 52.9802C207.024 54.6102 209.597 53.1002 208.579 51.4702L208.53 51.4202Z" fill="black"/>
<path id="Vector_5" d="M303.371 87.8302C306.707 85.0003 308.438 80.0003 309.846 76.0003C311.746 70.6177 313.093 65.0478 313.867 59.3805C314.282 56.7633 314.43 54.109 314.307 51.4605C314.16 49.5505 311.226 49.5305 311.372 51.4605C311.715 56.1805 310.795 61.0204 309.758 65.5904C308.682 70.8094 307.001 75.8785 304.75 80.6903C303.945 82.5804 302.77 84.2821 301.297 85.6903C299.84 86.9203 301.923 89.0402 303.371 87.8102V87.8302Z" fill="black"/>
<path id="Vector_6" d="M253.176 49.5692C248.971 47.6998 243.158 48.2782 238.499 48.719C232.228 49.3085 225.978 50.495 219.852 52.2595C217 53.0199 214.214 54.0465 211.539 55.3227C209.633 56.2973 210.752 59.0427 212.679 58.0594C217.398 55.6699 222.731 54.4045 227.832 53.367C233.615 52.0815 239.479 51.426 245.3 51.4146C247.556 51.3364 250.98 51.2732 253 52.029C254.831 52.8488 254.982 50.3886 253.155 49.578L253.176 49.5692Z" fill="black"/>
<path id="Vector_7" d="M281.077 58.3636C277.754 55.0942 272.018 53.5278 267.429 52.2508C261.252 50.5284 254.881 49.3715 248.417 48.7987C245.43 48.4752 242.41 48.4241 239.405 48.6463C237.24 48.8654 237.311 51.8345 239.499 51.6147C244.851 51.0939 250.379 51.845 255.604 52.7248C261.568 53.6203 267.382 55.1336 272.921 57.2325C275.094 57.9769 275.853 57.6757 277.5 59.1134C278.944 60.5422 280.444 57.496 279 56.0771L281.077 58.3636Z" fill="black"/>
<path id="Vector_8" d="M314.052 97.5207C313.642 93.2707 314.385 88.8408 315.031 84.6608C315.754 80.1808 316.713 75.7609 317.72 71.3509C318.239 69.0709 318.523 66.7609 319.217 64.5109C319.687 62.9809 320.293 61.511 320.674 59.941C321.099 58.1039 321.287 56.2179 321.232 54.331C321.232 52.961 320.978 51.581 320.978 50.211C320.978 48.471 321.291 46.6811 321.379 44.9311C321.692 39.2911 321.613 33.2911 319.422 28.0012C318.073 24.7712 317.808 20.4712 315.304 17.8713C312.292 14.7213 308.096 17.3513 305.993 20.1812C302.911 24.3212 301.17 29.4012 298.402 33.7611C295.213 38.7611 290.978 42.7611 286.508 46.5211C282.423 49.8857 279.004 54.0162 276.433 58.691C276.254 59.0334 276.211 59.4336 276.315 59.8073C276.418 60.1811 276.659 60.4993 276.988 60.6949C277.316 60.8905 277.705 60.9484 278.074 60.8562C278.444 60.7641 278.763 60.5292 278.966 60.201C281.152 56.1472 284.046 52.5375 287.506 49.551C291.042 46.7034 294.334 43.5519 297.346 40.1311C300.916 35.8311 303.352 30.9812 305.924 26.0312C306.78 24.2081 307.88 22.5152 309.191 21.0012C310.013 20.1412 311.548 19.0012 312.781 19.6412C314.013 20.2812 314.414 22.0412 314.786 23.1912C315.324 24.8912 315.764 26.6512 316.38 28.3112C318.386 33.3111 318.767 38.4711 318.532 43.8611C318.474 45.3711 318.366 46.8611 318.239 48.391C318.152 50.0171 318.169 51.6471 318.288 53.271C318.424 55.1104 318.319 56.9601 317.975 58.771C317.652 60.231 317.104 61.621 316.645 63.0409C315.988 65.0775 315.491 67.164 315.158 69.2809C314.815 71.4609 314.18 73.6209 313.749 75.7909C313.201 78.3575 312.716 80.9442 312.292 83.5508C311.548 88.0908 310.678 92.9407 311.118 97.5507C311.304 99.4507 314.238 99.4707 314.052 97.5507V97.5207Z" fill="black"/>
<path id="Vector_9" d="M177.396 118.369C177.572 120.369 176.809 122.439 176.203 124.369C175.422 126.497 174.845 128.697 174.481 130.939C174.05 135.081 175.137 139.24 177.533 142.609L177.151 141.149C176.291 144.049 175.391 147.249 175.899 150.309C176.306 151.835 176.904 153.301 177.68 154.669C177.988 155.411 178.199 156.191 178.306 156.989C178.423 157.989 177.905 158.249 177.445 159.209C177.05 160.022 176.745 160.877 176.535 161.759C176.192 163.297 176.239 164.899 176.672 166.413C177.106 167.927 177.91 169.303 179.01 170.409C180.34 171.789 182.414 169.659 181.084 168.289C180.496 167.713 180.028 167.023 179.707 166.258C179.386 165.494 179.219 164.671 179.215 163.839C179.247 162.758 179.507 161.697 179.978 160.729C180.526 159.549 181.387 158.729 181.269 157.369C181.074 154.949 180.115 153.179 179.157 151.049C178.071 148.629 179.157 145.159 179.851 142.399C180.174 141.109 179.656 140.679 179.069 139.629C178.576 138.682 178.204 137.674 177.963 136.629C177.484 134.962 177.423 133.214 177.5 131.478C177.823 127.008 180.712 122.939 180.291 118.369C180.135 116.459 177.2 116.449 177.357 118.369H177.396Z" fill="black"/>
<path id="Vector_10" d="M183.692 70.6017C183.572 72.6059 182.513 74.5379 181.629 76.3551C180.544 78.3414 179.65 80.4304 178.961 82.5926C177.925 86.6236 178.389 90.8995 180.263 94.5922L180.1 93.091C178.823 95.8291 177.462 98.8579 177.515 101.96C177.693 103.531 178.069 105.07 178.635 106.54C178.83 107.32 178.924 108.123 178.913 108.928C178.882 109.935 178.331 110.114 177.735 110.994C177.225 111.738 176.797 112.538 176.46 113.379C175.895 114.848 175.706 116.439 175.912 118.001C176.117 119.564 176.711 121.045 177.636 122.305C178.748 123.87 181.112 122.076 179.998 120.521C179.502 119.863 179.14 119.11 178.935 118.305C178.73 117.501 180.167 118.825 180.286 118.001C179 115.284 179.408 113.765 180.017 112.879C180.732 111.794 181.704 111.113 181.787 109.751C181.95 107.328 181.262 105.433 180.627 103.183C179.91 100.626 181.493 97.3584 182.586 94.7337C183.095 93.5067 182.645 93.0034 182.22 91.8767C181.871 90.8658 181.652 89.8127 181.568 88.7437C181.339 87.0229 181.535 85.2848 181.867 83.58C182.321 81.5483 183.784 80.4776 184 79.3553C184.25 78.0628 183.233 76.7326 183.5 74.2949C183.5 71.7651 183.78 68.6736 183.653 70.5958L183.692 70.6017Z" fill="black"/>
<path id="Vector_11" d="M268.608 186.279C268.39 189.824 269.085 193.365 270.623 196.549C271.34 198.131 272.236 199.621 273.293 200.989C273.791 201.635 274.327 202.249 274.898 202.829C275.135 203.122 275.42 203.373 275.739 203.569C276.022 203.699 275.739 203.929 275.739 203.299L276.463 201.999H277.93C278.36 202.199 278.047 202.069 277.812 201.799C277.578 201.529 277.333 201.209 277.079 200.919C276.564 200.281 275.953 199.73 275.269 199.289C274.874 199.027 274.403 198.911 273.934 198.958C273.465 199.005 273.025 199.214 272.687 199.549C271.643 200.697 270.779 202.002 270.124 203.419C269.047 205.648 268.57 208.13 268.742 210.61C268.914 213.089 269.729 215.478 271.102 217.529C272.029 218.967 273.094 220.307 274.281 221.529C274.534 221.874 274.83 222.183 275.162 222.449C274.673 222.189 275.553 221.539 275.807 221.189C276.697 219.979 276.883 220.139 275.964 219.969C275.512 219.882 275.053 219.845 274.594 219.859C270.183 220.089 271.122 225.409 272.188 228.259C273.058 230.575 274.176 232.785 275.524 234.849C276.554 236.629 277.909 238.19 279.514 239.449C281.079 240.529 282.547 237.929 280.991 236.859C280.759 236.697 280.546 236.51 280.356 236.299C280.013 235.949 279.69 235.569 279.377 235.189C278.711 234.341 278.1 233.449 277.548 232.519C276.255 230.486 275.238 228.282 274.526 225.969C274.256 225.169 274.13 224.325 274.154 223.479C274.176 223.273 274.243 223.075 274.35 222.899C274.262 223.059 274.35 222.899 274.545 222.899C274.642 222.878 274.742 222.878 274.839 222.899C275.022 222.908 275.205 222.928 275.387 222.959C275.964 223.039 276.472 223.239 277.02 222.959C277.224 222.825 277.395 222.645 277.52 222.433C277.644 222.221 277.72 221.982 277.739 221.736C277.759 221.489 277.723 221.241 277.634 221.011C277.545 220.781 277.405 220.575 277.226 220.409C276.326 219.349 275.269 218.409 274.438 217.299C272.989 215.476 272.023 213.303 271.631 210.989C271.49 209.443 271.653 207.883 272.112 206.403C272.571 204.922 273.315 203.55 274.301 202.369C274.484 202.166 274.651 201.949 274.8 201.719C275.054 201.229 274.379 201.919 274.095 202.009C273.812 202.099 273.734 201.799 273.959 202.099C274.037 202.209 274.565 202.679 274.81 202.939C275.213 203.472 275.65 203.977 276.12 204.449C277.617 205.739 279.133 203.969 278.39 202.449C277.942 201.741 277.379 201.115 276.727 200.599C276.034 199.887 275.411 199.107 274.868 198.269C272.466 194.824 271.292 190.642 271.543 186.419C271.728 184.499 268.794 184.509 268.608 186.419V186.279Z" fill="black"/>
<path id="Vector_12" d="M286.948 162.909C283.352 162.014 279.594 162.045 276.012 162.999C274.692 163.426 273.407 163.958 272.168 164.589C271.013 165.014 269.925 165.61 268.94 166.359C267.17 168.089 269.283 169.679 270.897 170.149C272.208 170.522 273.551 170.766 274.907 170.879C276.814 171.059 276.736 168.119 274.907 167.879C274.702 167.879 274.486 167.879 274.281 167.819L275.748 169.319C275.748 166.829 272.657 166.469 270.857 166.499C268.045 166.529 265.286 167.286 262.837 168.699C261.575 169.365 260.538 170.405 259.863 171.682C259.188 172.959 258.905 174.415 259.051 175.859C259.472 179.599 261.986 182.519 264.92 184.599C268.099 186.939 271.875 188.283 275.787 188.469C276.176 188.469 276.55 188.311 276.825 188.03C277.1 187.748 277.255 187.367 277.255 186.969C277.255 186.571 277.1 186.19 276.825 185.908C276.55 185.627 276.176 185.469 275.787 185.469C273.211 185.345 270.7 184.598 268.461 183.289C266.055 181.979 263.57 180.099 262.475 177.479C261.585 175.479 261.722 173.319 263.453 171.869C265.16 170.612 267.16 169.836 269.253 169.619C270.171 169.491 271.099 169.464 272.021 169.539C272.217 169.539 272.403 169.619 272.599 169.659C272.794 169.699 273.137 169.769 272.833 169.719C273.117 169.719 272.921 169.839 272.892 169.719C272.892 169.719 272.765 169.249 272.765 169.349C272.775 169.744 272.933 170.119 273.206 170.399C273.479 170.678 273.846 170.839 274.232 170.849C274.437 170.849 274.653 170.849 274.858 170.909V167.909C274.78 167.919 274.701 167.919 274.623 167.909C274.232 167.749 274.623 167.909 274.281 167.909C273.655 167.809 273.039 167.699 272.422 167.559L271.444 167.319C271.307 167.269 271.161 167.229 271.034 167.169C270.906 167.109 271.131 167.109 270.916 167.169C270.701 167.229 270.916 166.849 270.916 167.169C270.998 167.248 271.059 167.348 271.091 167.459C271.124 167.569 271.128 167.687 271.102 167.799C271.17 167.95 271.188 168.12 271.153 168.283C271.118 168.446 271.031 168.592 270.906 168.699C270.906 168.699 270.906 168.699 271.014 168.639C271.243 168.557 271.463 168.45 271.669 168.319C273.532 167.27 275.5 166.428 277.538 165.809C280.367 165.216 283.288 165.263 286.097 165.949C287.936 166.329 288.728 163.429 286.879 163.059L286.948 162.909Z" fill="black"/>
<path id="Vector_13" d="M193.332 297.178C193.763 294.439 194.633 291.619 194.682 288.829C194.731 286.039 192.432 284.419 191.464 282.069C190.49 279.629 190.336 276.928 191.024 274.389C191.533 272.479 192.432 270.719 192.98 268.829C193.665 266.579 193.802 264.549 192.462 262.539C191.742 261.709 191.194 260.74 190.848 259.689C190.656 258.53 190.806 257.34 191.278 256.269C192.051 254.489 193.528 252.969 193.528 250.889C193.528 248.639 191.572 246.829 190.838 244.829C190.105 242.829 191.239 241.079 191.904 239.339C192.452 237.939 193.606 235.759 193.137 234.179C192.834 233.179 191.308 232.249 190.623 231.429C189.946 230.629 189.392 229.729 188.98 228.759C188.225 226.77 187.814 224.662 187.767 222.529C187.679 221.279 187.63 220.009 187.571 218.749C187.605 217.369 187.48 215.989 187.199 214.639C186.554 212.429 184.216 210.959 184.265 208.539C184.285 207.184 184.689 205.864 185.429 204.739C186.075 203.739 187.199 202.989 186.564 201.679C186.248 201.148 185.888 200.646 185.488 200.179C184.734 199.187 184.058 198.138 183.463 197.039C182.064 194.349 182.142 190.969 182.808 188.039C182.984 187.289 183.199 186.549 183.443 185.829C183.825 185.069 184.088 184.252 184.226 183.409C184.226 182.569 183.541 181.929 183.042 181.319C182.275 180.453 181.642 179.471 181.164 178.409C180.973 178.027 180.873 177.604 180.873 177.174C180.873 176.745 180.973 176.322 181.164 175.939C182.318 173.769 183.776 171.199 182.455 168.769C181.536 167.079 179.003 168.589 179.922 170.279C180.841 171.969 178.602 174.039 178.142 175.439C177.447 177.579 178.465 179.959 179.658 181.689C180.162 182.477 180.735 183.217 181.37 183.899C181.702 184.249 181.37 183.959 181.37 183.949L181.428 184.039C181.272 183.329 181.135 183.279 181.018 183.869C180.646 184.583 180.389 185.353 180.255 186.149C179.416 189.045 179.215 192.095 179.668 195.079C180.206 197.429 181.275 199.617 182.788 201.469C183.023 201.789 183.629 202.959 183.991 203.119V201.719L183.747 202.009C183.492 202.285 183.266 202.586 183.072 202.909C182.655 203.535 182.307 204.205 182.035 204.909C181.481 206.15 181.242 207.512 181.34 208.872C181.437 210.232 181.868 211.544 182.592 212.689C183.214 213.49 183.774 214.339 184.265 215.229C184.764 216.329 184.588 217.949 184.646 219.159C184.862 223.659 184.92 228.519 187.581 232.339C188.185 233.213 188.873 234.024 189.635 234.759C189.874 235.006 190.129 235.237 190.398 235.449L190.271 234.859C190.271 235.019 190.271 235.049 190.271 234.929C190.109 235.337 189.994 235.763 189.928 236.199C189.312 238.119 188.412 239.949 187.855 241.889C187.18 244.209 188.109 246.279 189.254 248.259C189.684 248.999 190.535 249.999 190.584 250.899C190.477 251.686 190.17 252.431 189.694 253.059C188.473 254.858 187.827 256.999 187.845 259.189C187.886 260.447 188.276 261.668 188.97 262.709C189.498 263.539 190.447 264.469 190.584 265.479C190.848 267.479 189.469 269.859 188.794 271.659C187.833 274.036 187.467 276.62 187.728 279.179C187.889 280.826 188.326 282.432 189.019 283.929C189.733 285.349 190.975 286.499 191.542 287.979C191.762 289.081 191.708 290.222 191.386 291.299C191.083 293.009 190.721 294.709 190.457 296.419C190.163 298.309 192.99 299.128 193.283 297.218L193.332 297.178Z" fill="black"/>
<path id="Vector_14" d="M318.65 165.649C318.896 166.938 319.28 168.196 319.794 169.399C320.381 171.199 320.988 173.009 321.408 174.849C321.624 175.723 321.644 176.636 321.467 177.519C321.232 179.229 320.685 180.889 320.489 182.599C320.352 183.273 320.322 183.965 320.401 184.649C320.577 185.549 321.056 186.469 321.311 187.359C321.813 188.985 322.141 190.661 322.289 192.359C322.42 193.966 322.315 195.584 321.976 197.159C321.595 198.503 320.9 199.731 319.951 200.739C319.178 201.629 318.52 202.617 317.995 203.679C317.812 203.974 317.701 204.309 317.67 204.657C317.64 205.005 317.691 205.355 317.819 205.679C318.034 206.289 318.366 206.889 318.631 207.499C319.624 209.435 320.307 211.522 320.655 213.679C320.824 216.002 320.313 218.324 319.188 220.349C318.582 221.539 317.017 223.149 317.232 224.539C317.596 225.956 317.87 227.396 318.053 228.849C318.102 230.42 317.656 231.966 316.782 233.259C316.069 234.083 315.452 234.989 314.943 235.959C314.111 238.129 315.618 240.899 316.547 242.809C317.237 244.09 317.823 245.428 318.298 246.809C318.688 248.135 318.651 249.555 318.19 250.859C317.771 252.033 317.476 253.25 317.31 254.489C317.262 255.803 317.625 257.099 318.347 258.189C319.726 260.499 321.858 262.189 323.169 264.579C324.147 266.369 323.854 268.819 323.678 270.789C323.58 271.908 323.443 273.018 323.326 274.138C323.168 274.942 323.151 275.769 323.277 276.578C323.521 277.578 324.538 278.478 325.086 279.288C325.715 280.229 326.286 281.207 326.798 282.218C329.586 287.728 329.928 294.018 329.341 300.098C329.165 302.018 332.1 302.008 332.276 300.098C332.892 293.658 332.393 287.098 329.586 281.218C329.033 280.065 328.402 278.952 327.698 277.888C327.365 277.388 327.023 276.888 326.72 276.428C326.547 276.172 326.361 275.925 326.162 275.688C325.771 275.308 326.27 275.808 326.162 275.968C326.205 275.637 326.205 275.3 326.162 274.968C326.162 274.428 326.27 273.878 326.328 273.338C326.475 272.018 326.632 270.688 326.7 269.338C326.847 266.579 326.573 264.109 324.94 261.829C323.961 260.459 322.807 259.239 321.78 257.919C320.978 256.919 320.059 255.679 320.254 254.309C320.489 252.719 321.232 251.229 321.448 249.619C321.636 247.925 321.362 246.212 320.655 244.669C320.019 243.089 319.178 241.599 318.494 240.039C318.148 239.293 317.892 238.507 317.731 237.699C317.731 237.559 317.594 236.699 317.603 237.199C317.603 236.909 317.603 237.199 317.603 237.079C317.924 236.566 318.277 236.075 318.66 235.609C319.257 234.809 319.747 233.931 320.117 232.999C321.36 229.999 320.9 226.679 319.961 223.659L319.814 224.819C322.005 221.569 323.864 217.819 323.521 213.729C323.238 210.289 321.653 207.179 320.274 204.079L320.42 205.239C321.027 203.559 322.504 202.319 323.482 200.869C324.567 199.084 325.155 197.03 325.184 194.929C325.313 192.557 325.082 190.179 324.499 187.879C324.206 186.659 323.658 185.479 323.404 184.259C323.295 183.107 323.429 181.944 323.795 180.849C324.388 178.911 324.607 176.873 324.441 174.849C324.226 173.68 323.931 172.527 323.56 171.399C323.15 170.039 322.709 168.699 322.259 167.399C322.103 166.909 321.937 166.399 321.77 165.929C321.702 165.709 321.536 164.849 321.614 165.619C321.428 163.709 318.494 163.689 318.679 165.619L318.65 165.649Z" fill="#229AC0"/>
<path id="Vector_15" d="M190.5 296.955C191 299.485 189.786 300.629 189.072 303.259C188.715 304.632 188.437 308.557 188.664 309.959C188.892 311.36 188.227 315.003 189 316.184V319.22C189 322.257 189.089 323.219 189.5 325.799C189.833 327.869 191.058 322.798 190.07 324.818L191.341 324.068C188 318.828 189.5 323.269 188.759 324.978C187.609 325.505 186.528 326.177 185.541 326.978C184.397 327.978 184.093 329.148 183.585 330.518C183.101 331.833 182.468 333.085 181.697 334.248C180.178 336.19 178.866 338.292 177.784 340.518C176.581 343.408 175.263 349.589 174.5 352.619C174.5 354.138 176.5 354.644 176.5 355.15C177.175 352.45 179.34 344.858 180.249 342.238C181.168 340.056 182.412 338.032 183.937 336.238C184.557 335.387 185.094 334.476 185.541 333.518C185.874 332.798 186.177 332.058 186.46 331.318C186.634 330.736 186.85 330.168 187.106 329.618C187.855 328.865 188.747 328.276 189.727 327.888C190.129 327.688 190.53 327.488 190.95 327.318C191.097 327.258 191.263 327.218 191.4 327.148C191.899 327.148 191.537 327.078 191.4 327.148C191.656 327.154 191.909 327.088 192.132 326.958C192.354 326.827 192.537 326.637 192.662 326.408C193.826 324.028 193.278 321.328 192.838 318.828C192.427 316.528 191.586 313.568 192.985 311.469C193.119 311.241 193.19 310.98 193.19 310.714C193.19 310.447 193.119 310.186 192.985 309.959C192.349 309.017 191.944 307.934 191.803 306.8C191.661 305.665 191.788 304.512 192.173 303.439C193.017 301.396 192.603 298.979 193.315 297.15C193 295.436 192.276 297.524 192.173 297.15C192.069 296.777 193.039 294.982 192.711 294.786C192.383 294.591 193.972 295.331 193.603 295.423C193.234 295.515 192.914 295.75 192.711 296.079L190.5 296.955Z" fill="black"/>
<g id="Group 40">
<path id="Vector_16" d="M321 116.297C320.981 118.932 321.085 122.217 320.45 124.987C320.111 126.212 319.969 127.485 320.029 128.757C320.294 130.7 320.742 132.613 321.369 134.467C322.019 136.322 322.35 138.277 322.347 140.247C322.139 141.812 321.455 143.271 320.391 144.417C319.435 145.539 318.707 146.845 318.249 148.257C317.907 149.787 318.601 151.087 319.051 152.507C320.029 155.747 321.222 160.317 319.051 163.307C317.916 164.857 320.459 166.307 321.584 164.827C323.638 162.037 323.345 158.127 322.719 154.907C322.385 153.263 321.927 151.648 321.35 150.077C320.861 148.727 321.614 147.807 322.396 146.707C323.403 145.471 324.236 144.098 324.871 142.627C325.393 140.809 325.447 138.883 325.027 137.037C324.48 133.787 322 129.96 323 126.923C324.5 123.887 322.992 122.057 323.5 118.827C321.5 112.248 318.458 113.326 320 115.285L321 116.297Z" fill="black"/>
<path id="Vector_17" d="M315.602 70.7126C316.032 73.8074 314.748 77.4577 314.447 80.8231C314.244 82.3221 314.289 83.8415 314.582 85.3219C315.239 87.5526 316.116 89.7132 317.2 91.7733C318.312 93.8292 319.053 96.0621 319.388 98.3731C319.403 100.247 318.818 102.084 317.716 103.623C316.742 105.114 318.317 107.472 318 109.212C317.845 111.07 316.689 111.743 317.47 113.357C319.221 116.978 322 121.863 320.5 125.912C322.173 129.342 321.562 129.284 322.682 127.342C324.711 123.693 323.68 119.161 322.362 115.499C321.672 113.632 321.476 105.889 320.5 104.152C320.311 99.7845 319.733 107.104 320.5 105.67C321.517 104.036 322.357 102.544 322.879 100.702C323.204 98.4732 322.939 96.2049 322.109 94.1168C320.882 90.4054 317.196 86.3711 317.895 82.6266C319.205 78.7904 318.652 74.8597 318.718 70.978C317.639 68.1068 315.617 68.4809 315.585 70.7631L315.602 70.7126Z" fill="black"/>
<path id="Vector_18" d="M318.65 165.649C318.895 166.938 319.279 168.196 319.794 169.399C320.381 171.199 320.987 173.009 321.408 174.849C321.623 175.723 321.644 176.636 321.467 177.519C321.232 179.229 320.684 180.889 320.488 182.599C320.352 183.273 320.322 183.965 320.4 184.649C320.577 185.549 321.056 186.469 321.31 187.359C321.812 188.985 322.14 190.661 322.288 192.359C322.42 193.966 322.314 195.584 321.975 197.159C321.594 198.503 320.9 199.731 319.95 200.739C319.177 201.629 318.52 202.617 317.994 203.679C317.812 203.974 317.701 204.309 317.67 204.657C317.639 205.005 317.69 205.355 317.818 205.679C318.033 206.289 318.366 206.889 318.63 207.499C319.623 209.435 320.307 211.522 320.655 213.679C320.824 216.002 320.313 218.324 319.188 220.349C318.581 221.539 317.016 223.149 317.231 224.539C317.595 225.956 317.87 227.396 318.053 228.849C318.101 230.42 317.656 231.966 316.781 233.259C316.069 234.083 315.452 234.989 314.942 235.959C314.111 238.129 315.617 240.899 316.547 242.809C317.237 244.09 317.823 245.428 318.297 246.809C318.688 248.135 318.65 249.555 318.19 250.859C317.771 252.033 317.476 253.25 317.31 254.489C317.262 255.803 317.625 257.099 318.346 258.189C319.726 260.499 321.858 262.189 323.169 264.579C324.147 266.369 323.853 268.819 323.677 270.789C323.579 271.908 323.442 273.018 323.325 274.138C323.167 274.942 323.151 275.769 323.276 276.578C323.521 277.578 324.538 278.478 325.086 279.288C325.714 280.229 326.286 281.207 326.797 282.218C329.585 287.728 329.928 294.018 329.341 300.098C329.165 302.018 332.099 302.008 332.275 300.098C332.891 293.658 332.392 287.098 329.585 281.218C329.032 280.065 328.401 278.952 327.697 277.888C327.365 277.388 327.022 276.888 326.719 276.428C326.547 276.172 326.361 275.925 326.162 275.688C325.77 275.308 326.269 275.808 326.162 275.968C326.205 275.637 326.205 275.3 326.162 274.968C326.162 274.428 326.269 273.878 326.328 273.338C326.475 272.018 326.631 270.688 326.7 269.338C326.846 266.579 326.573 264.109 324.939 261.829C323.961 260.459 322.807 259.239 321.78 257.919C320.978 256.919 320.058 255.679 320.254 254.309C320.488 252.719 321.232 251.229 321.447 249.619C321.635 247.925 321.361 246.212 320.655 244.669C320.019 243.089 319.178 241.599 318.493 240.039C318.147 239.293 317.891 238.507 317.73 237.699C317.73 237.559 317.593 236.699 317.603 237.199C317.603 236.909 317.603 237.199 317.603 237.079C317.923 236.566 318.276 236.075 318.659 235.609C319.256 234.809 319.746 233.931 320.117 232.999C321.359 229.999 320.899 226.679 319.96 223.659L319.814 224.819C322.005 221.569 323.863 217.819 323.521 213.729C323.237 210.289 321.652 207.179 320.273 204.079L320.42 205.239C321.026 203.559 322.503 202.319 323.482 200.869C324.567 199.084 325.155 197.03 325.184 194.929C325.313 192.557 325.082 190.179 324.499 187.879C324.205 186.659 323.658 185.479 323.403 184.259C323.295 183.107 323.428 181.944 323.795 180.849C324.387 178.911 324.607 176.873 324.44 174.849C324.225 173.68 323.931 172.527 323.56 171.399C323.149 170.039 322.709 168.699 322.259 167.399C322.102 166.909 321.936 166.399 321.77 165.929C321.701 165.709 321.535 164.849 321.613 165.619C321.427 163.709 318.493 163.689 318.679 165.619L318.65 165.649Z" fill="black"/>
<path id="Vector_19" d="M329.404 301.108C329.003 305.136 328.397 309.889 330.464 313.357C332.112 316.189 335.071 318.143 336.14 321.457C336.693 323.17 336.425 325.178 336.247 326.945C335.973 328.814 335.907 330.719 336.051 332.609C336.443 335.825 338.519 338.47 340.194 340.808C341.032 341.906 341.754 343.131 342.342 344.452C343.04 346.338 343.375 348.396 343.322 350.467C343.322 350.904 343.463 351.322 343.714 351.631C343.964 351.94 344.304 352.113 344.659 352.113C345.013 352.113 345.353 351.94 345.604 351.631C345.855 351.322 345.995 350.904 345.995 350.467C346.07 347.019 345.242 343.632 343.634 340.808C342.182 338.382 340.31 336.418 339.179 333.696C337.762 330.403 339.392 326.265 339.116 322.72C338.813 318.79 336.523 316.31 334.358 313.708C333.181 312.534 332.318 310.951 331.881 309.164C331.426 306.552 331.881 303.676 332.112 301.053C332.326 298.957 329.653 298.968 329.439 301.053L329.404 301.108Z" fill="black"/>
</g>
</g>
</g>
</g>
</g>
</g>
</g>
</svg>
