<svg width="512" height="512" viewBox="0 0 512 512" fill="none" xmlns="http://www.w3.org/2000/svg">
<g id="Chip3">
<g id="Chip3_2">
<g id="g34501">
<path id="abColor_1" d="M466 256C466 372 372 466 256 466C140 466 46 372 46 256C46 140 140 46 256 46C372 46 466 140 466 256Z" fill="#29313D"/>
<path id="abColor_2" fill-rule="evenodd" clip-rule="evenodd" d="M255.84 127.52C222.979 127.48 191.367 140.109 167.58 162.78C116.2 211.57 114 293.15 162.68 344.64C174.258 356.902 188.142 366.758 203.536 373.643C218.931 380.528 235.533 384.307 252.391 384.763C269.249 385.219 286.031 382.344 301.775 376.301C317.519 370.259 331.916 361.168 344.14 349.55C395.52 300.77 397.71 219.18 349.04 167.69C337.098 154.951 322.659 144.81 306.624 137.898C290.588 130.987 273.301 127.454 255.84 127.52V127.52ZM255.84 391.86C237.422 391.935 219.186 388.212 202.271 380.923C185.356 373.635 170.126 362.938 157.53 349.5C106.19 295.18 108.53 209.12 162.7 157.66C175.594 145.406 190.781 135.817 207.388 129.443C223.996 123.07 241.698 120.037 259.48 120.518C277.262 120.999 294.775 124.985 311.013 132.248C327.252 139.51 341.897 149.906 354.11 162.84C405.45 217.15 403.11 303.21 348.94 354.67C323.852 378.59 290.504 391.911 255.84 391.86" fill="white"/>
<path id="abColor_2_2" fill-rule="evenodd" clip-rule="evenodd" d="M253 54.8699C219.32 54.8699 185.78 64.4099 156.54 80.9499L180.03 122.31C189.56 116.03 200.51 109.75 202.21 125C224.901 115.625 249.657 112.373 274 115.57L277.54 87.8499C265.9 86.5299 251.18 89.9999 255.8 73.9299C255.31 67.8599 256.72 59.8799 255.21 54.8299C254.49 54.8299 253.72 54.7699 253.02 54.8299L253 54.8699ZM352.43 79.5699C344.99 93.4999 337.2 107.43 329.62 121.36C339.47 127.36 357.99 134.21 343.18 144.84C362.444 160.022 377.43 179.95 386.67 202.67L412.9 192C409.562 183.378 405.732 174.954 401.43 166.77C409.91 161.46 418.84 156.24 427.05 150.86C418.48 156.07 409.84 161.62 401.33 166.61C409.81 161.29 418.7 156.06 426.93 150.67C418.37 155.88 409.73 161.46 401.22 166.45L426.87 150.57C408.57 120.907 382.94 96.4554 352.45 79.5699H352.43ZM123.9 149.16C118.109 156.198 112.921 163.711 108.39 171.62C99.3899 166.54 90.2999 161.06 81.3899 156.24C90.3199 161.43 99.5999 166.53 108.3 171.78C99.2999 166.72 90.1999 161.24 81.2999 156.44C90.2999 161.58 99.2999 166.72 108.3 171.87L81.2999 156.54C72.2999 172.12 65.9099 189.19 61.1199 206.44C57.8299 222.66 54.8999 239.2 55.1999 255.88L102.69 255.94C103.3 244.71 100.11 225.19 116.34 232.94C120.303 208.794 130.433 186.081 145.75 167L123.94 149.12L123.9 149.16ZM456.68 253L409.19 253.76C408.8 265.1 412.27 284.62 395.8 277.13C392.22 301.317 382.451 324.169 367.44 343.47L389.65 360.87C398.41 352.02 401.98 330.73 415.58 344.27C419.33 346.27 432.14 353.55 430.94 352.62C422.24 347.76 413.19 342.99 404.71 338.06C413.81 342.98 423.03 348.3 432.05 352.97C423.05 347.97 413.62 342.97 404.8 337.89L432.11 352.89C438.74 341.33 443.32 328.97 447.2 316.33C452.813 299.275 455.826 281.472 456.14 263.52C456.14 260 455.93 255.84 456.68 253.02V253ZM124.2 307.36L97.7999 317.58C100.897 326.286 104.857 334.661 109.62 342.58C100.76 347.92 91.4499 353.16 82.8599 358.58C91.7999 353.35 100.86 347.77 109.72 342.75C100.86 348.11 91.5599 353.35 82.9799 358.75C91.9099 353.51 100.98 347.93 109.82 342.89L82.9999 358.87C100.775 388.796 125.962 413.638 156.13 431C163.99 417.24 171.847 403.473 179.7 389.7C169.81 383.46 151.28 376.18 166.42 365.7C147.549 350.225 133.005 330.13 124.2 307.37V307.36ZM307.28 388.2C284.436 397.176 259.631 399.98 235.36 396.33C234.027 405.53 232.693 414.737 231.36 423.95C240.284 425.397 249.321 426.039 258.36 425.87C258.59 436.36 258.52 447.16 258.94 457.47C258.84 446.97 258.48 436.21 258.55 425.87C258.79 436.37 258.76 447.14 259.16 457.47C259.05 446.97 258.68 436.2 258.74 425.87L259.28 457.47C294.074 456.877 328.112 447.226 358.04 429.47L333.83 388.52C322.5 393.19 309.9 407.68 307.24 388.15L307.28 388.2Z" fill="white"/>
</g>
</g>
</g>
</svg>
