<svg width="512" height="512" viewBox="0 0 512 512" fill="none" xmlns="http://www.w3.org/2000/svg">
<g id="Chip1">
<g id="Chip1_2">
<g id="g25047">
<path id="abColor_1" d="M466 256C466 372 372 466 256 466C140 466 46 372 46 256C46 140 140 46 256 46C372 46 466 140 466 256Z" fill="#29313D"/>
<path id="abColor_2" fill-rule="evenodd" clip-rule="evenodd" d="M256 127.36C223.14 127.316 191.529 139.941 167.74 162.61C116.36 211.4 114.16 292.98 162.84 344.48C174.419 356.74 188.304 366.594 203.699 373.478C219.094 380.361 235.696 384.139 252.553 384.594C269.41 385.049 286.192 382.173 301.936 376.13C317.68 370.088 332.076 360.997 344.3 349.38C395.68 300.6 397.87 219.01 349.2 167.52C337.258 154.781 322.819 144.64 306.784 137.728C290.749 130.817 273.461 127.284 256 127.35V127.36ZM256 391.7C237.582 391.77 219.347 388.044 202.432 380.754C185.518 373.464 170.287 362.767 157.69 349.33C106.35 295.01 108.69 208.96 162.86 157.49C175.755 145.236 190.941 135.647 207.548 129.273C224.156 122.9 241.858 119.867 259.64 120.348C277.422 120.829 294.935 124.815 311.173 132.078C327.412 139.34 342.057 149.736 354.27 162.67C405.61 216.99 403.27 303.04 349.1 354.5C324.012 378.422 290.665 391.747 256 391.7Z" fill="white"/>
<path id="abColor_2_2" d="M328 377.7L358.78 429.43C377.136 418.487 393.638 404.699 407.67 388.58V388.58C408.32 387.81 408.96 387.03 409.6 386.25C410.787 384.85 411.96 383.433 413.12 382C414.04 380.84 414.95 379.66 415.85 378.48C417 376.98 418.14 375.48 419.25 373.92C420.083 372.773 420.893 371.613 421.68 370.44C422.807 368.82 423.91 367.18 424.99 365.52C425.72 364.39 426.43 363.25 427.13 362.1C428.21 360.37 429.25 358.63 430.28 356.87C430.92 355.75 431.55 354.63 432.16 353.49C433.16 351.66 434.16 349.81 435.16 347.94C435.71 346.86 436.24 345.78 436.77 344.69C437.73 342.737 438.66 340.77 439.56 338.79C440.03 337.73 440.49 336.67 440.94 335.6C441.82 333.6 442.663 331.557 443.47 329.47C443.88 328.42 444.27 327.37 444.66 326.31C445.2 324.94 445.71 323.56 446.22 322.17H446.14C453.165 301.984 456.942 280.81 457.33 259.44L397.04 258.44C397.04 258.91 397.04 259.37 397.04 259.83C396.98 262.097 396.867 264.36 396.7 266.62C396.533 268.88 396.31 271.133 396.03 273.38C395.763 275.633 395.43 277.877 395.03 280.11C394.64 282.35 394.21 284.57 393.72 286.79C393.23 289.01 392.72 291.22 392.09 293.41C391.46 295.6 390.84 297.79 390.14 299.96C389.44 302.13 388.68 304.29 387.87 306.43C387.06 308.57 386.19 310.69 385.27 312.8C384.35 314.91 383.39 316.99 382.36 319.06C381.33 321.13 380.26 323.17 379.13 325.19C378 327.21 376.82 329.19 375.58 331.19C374.34 333.19 373.06 335.12 371.72 337.05C370.38 338.98 368.98 340.87 367.53 342.74C366.08 344.61 364.58 346.45 363.03 348.26C361.48 350.07 359.87 351.84 358.21 353.59C356.55 355.34 354.83 357.04 353.07 358.72C351.31 360.4 349.74 361.8 348.07 363.28C346.4 364.76 344.62 366.18 342.85 367.57C341.08 368.96 339.29 370.29 337.47 371.57C335.65 372.85 333.8 374.11 331.92 375.31C330.63 376.14 329.31 376.91 328 377.7V377.7Z" fill="white"/>
<path id="abColor_2_3" d="M115.06 261.8L54.6099 264.25C55.4936 285.555 59.7463 306.585 67.2099 326.56V326.56L67.7499 327.92C68.7499 330.45 69.7499 332.92 70.7499 335.45L71.3299 336.78C72.5199 339.51 73.7699 342.2 75.0699 344.87L75.3599 345.45C83.7435 362.452 94.4789 378.19 107.25 392.2L107.36 392.1C121.751 407.848 138.546 421.217 157.12 431.71L186.65 379.32C184.85 378.32 183.07 377.26 181.32 376.16C179.32 374.9 177.34 373.583 175.38 372.21C173.42 370.836 171.503 369.433 169.63 368C167.74 366.52 165.88 365 164.06 363.42C162.24 361.84 160.44 360.21 158.68 358.53C156.92 356.85 155.21 355.12 153.53 353.34C151.85 351.56 150.23 349.77 148.67 347.94C147.11 346.11 145.6 344.25 144.14 342.35C142.68 340.45 141.29 338.55 139.94 336.6C138.59 334.65 137.31 332.69 136.07 330.69C134.83 328.69 133.65 326.69 132.52 324.69C131.39 322.69 130.32 320.59 129.3 318.51C128.28 316.43 127.3 314.32 126.41 312.2C125.52 310.08 124.64 307.95 123.84 305.8C123.04 303.65 122.29 301.48 121.59 299.3C120.89 297.12 120.26 294.92 119.67 292.72C119.08 290.52 118.56 288.3 118.08 286.07C117.6 283.84 117.18 281.61 116.81 279.37C116.44 277.13 116.12 274.88 115.81 272.63C115.5 270.38 115.34 268.12 115.18 265.86C115.09 264.54 115.06 263.21 115.01 261.86L115.06 261.8Z" fill="white"/>
<path id="abColor_2_4" d="M257.88 54.6801C247.17 54.5801 236.469 55.3392 225.88 56.9501V56.9501C200.415 60.8104 175.924 69.5103 153.73 82.5801L184.14 134.24C184.69 133.91 185.23 133.56 185.78 133.24C187.7 132.133 189.647 131.07 191.62 130.05C193.62 129.05 195.62 128.05 197.62 127.15C199.62 126.25 201.62 125.36 203.72 124.54C205.82 123.72 207.85 122.95 209.94 122.23C212.03 121.51 214.15 120.83 216.27 120.23C218.39 119.63 220.54 119.03 222.7 118.51C224.86 117.99 227.03 117.51 229.22 117.1C231.41 116.69 233.6 116.31 235.81 115.99C238.02 115.67 240.24 115.41 242.47 115.19C244.7 114.97 246.95 114.82 249.2 114.71C251.45 114.6 253.71 114.55 255.98 114.55C258.42 114.55 260.857 114.613 263.29 114.74C265.723 114.867 268.133 115.047 270.52 115.28C272.92 115.52 275.3 115.83 277.67 116.19C280.04 116.55 282.39 116.97 284.73 117.45C287.07 117.93 289.38 118.45 291.68 119.06C293.98 119.67 296.26 120.31 298.52 121.06C300.78 121.81 303.02 122.54 305.23 123.36C307.44 124.18 309.64 125.06 311.81 126C313.98 126.94 316.13 127.92 318.25 129C319.58 129.66 320.89 130.38 322.2 131.08L350.09 78.1701C331.206 68.1818 310.856 61.2555 289.8 57.6501V57.5001C279.245 55.7111 268.565 54.7681 257.86 54.6801H257.88Z" fill="white"/>
<path id="abColor_2_5" d="M238.24 437C236.004 433.516 234.852 429.447 234.928 425.309C235.005 421.17 236.307 417.147 238.67 413.748C241.033 410.349 244.351 407.727 248.204 406.214C252.057 404.701 256.272 404.364 260.317 405.247C264.361 406.129 268.053 408.191 270.925 411.172C273.798 414.152 275.722 417.918 276.455 421.992C277.187 426.066 276.695 430.266 275.041 434.061C273.386 437.855 270.644 441.074 267.16 443.31C264.847 444.794 262.264 445.809 259.559 446.295C256.853 446.782 254.079 446.73 251.393 446.145C248.708 445.559 246.164 444.449 243.907 442.88C241.65 441.311 239.725 439.313 238.24 437V437Z" fill="white"/>
<path id="abColor_2_6" d="M105.78 152.94C109.911 152.681 114.027 153.653 117.605 155.733C121.184 157.813 124.066 160.908 125.887 164.625C127.707 168.343 128.384 172.517 127.832 176.62C127.28 180.722 125.524 184.569 122.786 187.673C120.048 190.778 116.45 193.001 112.449 194.061C108.448 195.121 104.222 194.971 100.306 193.629C96.3895 192.288 92.9592 189.815 90.4484 186.524C87.9376 183.233 86.4591 179.271 86.1998 175.14C86.0276 172.397 86.3975 169.646 87.2883 167.046C88.1792 164.445 89.5735 162.046 91.3917 159.984C93.2099 157.923 95.4164 156.24 97.8851 155.031C100.354 153.822 103.036 153.112 105.78 152.94V152.94Z" fill="white"/>
<path id="abColor_2_7" d="M405.22 152.94C401.089 152.681 396.973 153.653 393.394 155.733C389.815 157.813 386.933 160.908 385.113 164.625C383.293 168.343 382.616 172.517 383.168 176.62C383.72 180.722 385.476 184.569 388.214 187.673C390.952 190.778 394.549 193.001 398.551 194.061C402.552 195.121 406.778 194.971 410.694 193.629C414.61 192.288 418.041 189.815 420.551 186.524C423.062 183.233 424.541 179.271 424.8 175.14C424.973 172.396 424.604 169.645 423.714 167.044C422.824 164.443 421.43 162.043 419.611 159.982C417.793 157.92 415.586 156.237 413.116 155.029C410.647 153.82 407.964 153.111 405.22 152.94V152.94Z" fill="white"/>
</g>
</g>
</g>
</svg>
