<svg width="512" height="512" viewBox="0 0 512 512" fill="none" xmlns="http://www.w3.org/2000/svg">
<g id="Clothes4">
<g id="Clothes4_2">
<g id="g443813">
<path id="path384905" d="M323.63 271.761C291.275 308.494 268.403 350.74 245.445 392.938C273.127 401.771 321.515 389.374 355.98 346.452L335.071 293.11L336.641 290.537C333.22 282.143 329.622 274.159 323.63 271.761ZM189.603 297.277L180.9 329.573L179.57 367.642C189.414 377.903 197.476 379.93 205.846 384.079C202.462 358.349 199.462 330.627 189.603 297.277Z" fill="#4D4D4D"/>
<path id="path393554" d="M319.922 266.605L251.85 295.872L215.834 311.263L197.931 328.496L205.277 382.367L246.502 394.777C244.749 386.978 297.501 299.374 322.407 271.771C323.114 270.987 319.922 266.605 319.922 266.605ZM304.378 360.277L296.358 368.835L299.67 372.639L303.338 370.46L306.644 377.1L318.562 377.152L304.378 360.277Z" fill="#F7FBFF"/>
<path id="path383860" d="M186.126 286.262L175.312 304.07L178.66 320.341L167.099 355.632C172.527 361.853 177.858 367.644 185.036 372.639C184.248 365.277 182.479 356.204 183.87 343.291L187.538 352.483C186.389 331.937 186.393 310.783 190.575 301.381L186.126 286.262ZM319.249 320.323C319.249 320.323 267.645 376.691 260.418 378.264C253.191 379.837 256.97 372.97 256.97 372.97L244.967 394.266C261.647 397.945 279.38 394.505 291.135 391.055C291.645 381.664 297.114 365.193 301.363 357.925C305.198 351.366 319.249 320.323 319.249 320.323Z" fill="#333333"/>
<path id="path405390" d="M320.848 267.967C320.848 267.967 312.208 274.353 310.814 275.445C309.42 276.536 289.711 296.41 281.879 305.708C274.046 315.005 259.023 318.785 260.206 318.926C261.389 319.067 279.989 317.213 279.475 319.138C278.962 321.063 274.174 330.924 273.358 332.462C272.541 334 254.557 360.743 250.429 374.29C247.128 385.125 239.271 388.9 236.251 389.98L230.215 387.182L217.776 380.64C217.953 376.966 218.366 363.086 219.153 355.664C220.65 341.54 225.374 319.89 225.869 318.488L242.156 324.269L247.612 323.964L200.013 291.353L188.786 279.649L185.687 285.354C185.687 285.354 195.968 321.922 198.096 332.147C200.224 342.372 204.893 383.372 204.893 383.372C213.7 389.469 237.855 395.005 244.29 394.357L244.714 394.539C244.714 394.539 244.868 394.251 244.871 394.244C244.998 394.215 245.171 394.205 245.274 394.166L244.984 394.032C245.815 392.468 277.49 332.813 282.722 325.607C288.024 318.305 322.333 272.181 322.333 272.181L320.848 267.967ZM215.824 319.268L220.264 319.894C217.161 340.102 214.174 360.222 213.664 378.477L213.183 378.224L213.155 376.252C213.155 376.252 208.276 375.57 206.579 368.303C204.882 361.037 203.886 328.705 203.892 326.582C203.901 323.177 215.778 318.972 215.824 319.268H215.824ZM305.358 365.937L298.659 370.35L296.789 368.224L286.172 377.845L310.966 377.463L303.621 369.597L305.358 365.937Z" fill="#E2E6EA"/>
<path id="path1201" d="M320.028 266.039C319.932 266.006 319.83 265.994 319.729 266.003C319.627 266.012 319.529 266.043 319.441 266.092C295.287 279.726 272.062 291.169 252.182 294.969C251.998 295.005 251.835 295.111 251.728 295.264C251.62 295.418 251.576 295.607 251.605 295.792C253.237 306.575 252.458 314.853 249.415 320.651C249.349 320.775 249.32 320.915 249.332 321.055C249.345 321.195 249.397 321.328 249.484 321.438C249.571 321.549 249.687 321.632 249.82 321.677C249.953 321.722 250.096 321.728 250.232 321.693C264.759 318.104 283.372 307.942 303.023 297.614C303.114 297.567 303.194 297.501 303.258 297.421L322.785 272.669C322.865 272.566 322.916 272.443 322.932 272.313C322.948 272.183 322.929 272.051 322.876 271.932L320.461 266.434C320.42 266.342 320.361 266.259 320.286 266.191C320.212 266.123 320.124 266.071 320.028 266.039L320.028 266.039ZM319.446 267.722L321.375 272.113L302.216 296.401C283.121 306.438 265.091 316.155 251.087 319.893C253.765 313.943 254.486 306.135 253.069 296.225C272.928 292.294 295.747 281.066 319.446 267.722ZM188.974 278.995C188.855 279.012 188.743 279.059 188.647 279.131C188.55 279.203 188.474 279.297 188.423 279.406L185.047 286.693C184.998 286.798 184.975 286.913 184.98 287.028C184.985 287.143 185.017 287.256 185.074 287.356L197.159 308.748C197.234 308.879 197.348 308.984 197.485 309.048C197.622 309.111 197.776 309.13 197.924 309.102C198.073 309.073 198.208 308.999 198.313 308.89C198.417 308.781 198.484 308.641 198.505 308.492L200.867 292.186C200.882 292.081 200.875 291.974 200.844 291.872C200.814 291.771 200.761 291.677 200.69 291.598L189.621 279.23C189.541 279.14 189.44 279.072 189.327 279.031C189.214 278.99 189.093 278.977 188.974 278.995L188.974 278.995ZM189.273 281.014L199.386 292.314L197.378 306.189L186.516 286.966L189.273 281.014ZM224.673 317.424C224.579 317.406 224.483 317.407 224.389 317.426C224.296 317.445 224.207 317.482 224.128 317.536C224.049 317.59 223.982 317.658 223.929 317.738C223.877 317.818 223.841 317.907 223.824 318.001C218.808 344.1 217.243 367.925 215.783 387.594C215.769 387.786 215.831 387.975 215.957 388.12C216.082 388.265 216.259 388.355 216.451 388.369C216.642 388.383 216.831 388.321 216.976 388.195C217.121 388.07 217.211 387.892 217.225 387.701C218.686 368.023 220.249 344.267 225.245 318.274C225.263 318.18 225.263 318.084 225.244 317.991C225.225 317.898 225.188 317.809 225.135 317.731C225.082 317.652 225.014 317.584 224.934 317.531C224.855 317.479 224.766 317.442 224.673 317.424ZM220.949 317.456C220.857 317.433 220.76 317.428 220.666 317.442C220.571 317.455 220.48 317.488 220.398 317.537C220.316 317.586 220.245 317.651 220.188 317.728C220.131 317.805 220.09 317.892 220.068 317.985C214.736 339.307 213.575 364.941 212.305 385.965C212.299 386.06 212.311 386.155 212.342 386.246C212.373 386.336 212.421 386.419 212.484 386.49C212.547 386.562 212.624 386.62 212.71 386.662C212.795 386.704 212.888 386.728 212.983 386.734C213.175 386.745 213.362 386.68 213.506 386.553C213.649 386.426 213.736 386.247 213.747 386.056C215.019 365.014 216.195 339.437 221.473 318.333C221.519 318.147 221.49 317.951 221.392 317.786C221.294 317.622 221.135 317.504 220.949 317.456ZM235.572 321.404C235.478 321.393 235.382 321.4 235.29 321.425C235.199 321.451 235.113 321.494 235.038 321.553C234.963 321.611 234.9 321.684 234.854 321.767C234.807 321.849 234.777 321.941 234.765 322.035C231.195 350.231 230.233 371.135 229.417 391.334C229.413 391.429 229.428 391.524 229.461 391.614C229.494 391.703 229.544 391.785 229.608 391.855C229.673 391.925 229.75 391.981 229.837 392.021C229.923 392.061 230.017 392.084 230.112 392.087C230.207 392.091 230.302 392.077 230.391 392.044C230.481 392.011 230.563 391.961 230.633 391.896C230.703 391.832 230.759 391.754 230.799 391.668C230.839 391.581 230.861 391.488 230.865 391.393C231.681 371.199 232.634 350.357 236.197 322.217C236.209 322.122 236.203 322.026 236.178 321.934C236.154 321.842 236.111 321.756 236.053 321.681C235.995 321.605 235.923 321.542 235.84 321.495C235.757 321.447 235.666 321.417 235.572 321.404ZM304.647 359.759C304.547 359.754 304.447 359.769 304.353 359.804C304.259 359.839 304.174 359.893 304.102 359.962L286.37 376.946C286.301 377.012 286.245 377.091 286.207 377.178C286.168 377.266 286.148 377.359 286.146 377.455C286.144 377.55 286.16 377.645 286.195 377.734C286.23 377.823 286.282 377.904 286.348 377.972C286.414 378.041 286.492 378.097 286.58 378.135C286.667 378.173 286.761 378.194 286.856 378.196C286.951 378.198 287.046 378.182 287.135 378.147C287.224 378.112 287.305 378.06 287.374 377.994L304.545 361.544L311.49 369.911L306.821 365.765C306.689 365.649 306.519 365.584 306.343 365.584C306.166 365.584 305.997 365.649 305.864 365.765L293.245 376.771C293.101 376.897 293.012 377.075 292.999 377.267C292.986 377.458 293.05 377.647 293.176 377.791C293.302 377.936 293.48 378.024 293.671 378.037C293.863 378.05 294.051 377.987 294.196 377.861L306.335 367.271L317.586 377.262L317.666 377.337C317.803 377.458 317.98 377.522 318.162 377.518C318.344 377.514 318.518 377.441 318.649 377.314C318.78 377.187 318.858 377.016 318.868 376.834C318.878 376.652 318.819 376.473 318.703 376.332L305.159 360.021C305.096 359.945 305.018 359.882 304.93 359.837C304.842 359.792 304.745 359.766 304.646 359.76L304.647 359.759Z" fill="#E9F5FF"/>
<path id="path366664" d="M217.776 301.423C217.776 301.423 202.969 287.917 199.63 292.981C197.732 295.858 197.699 308.836 198.239 312.91C198.865 317.635 200.205 321.609 204.712 320.581C207.004 320.057 218.069 316.135 218.069 316.135C216.983 311.253 216.902 306.349 217.776 301.423ZM229.548 301.723C229.548 301.723 247.029 289.28 251.556 293.906C254.296 296.707 255.804 311.305 253.384 315.572C250.963 319.838 250.597 324.801 245.359 323.777C242.695 323.257 229.207 316.363 229.207 316.363C230.469 311.505 230.563 306.625 229.548 301.723ZM217.924 303.595C217.924 303.595 216.171 313.501 218.662 315.925C220.855 318.384 223.487 317.013 227.364 317.191C229.763 317.301 229.644 314.355 229.952 310.508C230.26 306.661 229.316 302.847 229.316 302.847C229.384 300.56 218.788 297.359 217.924 303.595Z" fill="#00FFFF" stroke="#008080" stroke-width="2.78957" stroke-linecap="round" stroke-linejoin="round"/>
<path id="path376133" d="M324.366 270.511C323.956 270.399 323.336 270.426 322.897 270.783L322.833 270.837L322.774 270.901C287.548 310.255 265.645 352.841 244.766 392.942L244.19 394.059L245.37 394.47C247.084 395.071 249.447 395.247 252.155 395.373C254.864 395.499 257.887 395.544 260.693 395.726L261.211 395.758L261.564 395.373C288.336 366.292 314.628 339.755 334.277 294.729L353.97 346.681L356 345.911L335.607 292.1C335.64 292.022 335.681 291.965 335.714 291.887L335.581 292.031L335.57 292.014C335.794 291.792 336.067 291.6 336.168 291.33C336.331 290.898 336.362 290.463 336.345 290.016C336.309 289.124 336.057 288.148 335.671 287.056C334.9 284.873 333.572 282.256 332.076 279.737C330.58 277.218 328.921 274.813 327.465 273.091C326.737 272.23 326.071 271.541 325.419 271.061C325.093 270.821 324.776 270.623 324.366 270.51L324.366 270.511ZM324.056 272.766C324.094 272.79 324.088 272.776 324.131 272.808C324.531 273.102 325.142 273.702 325.809 274.491C327.143 276.069 328.76 278.409 330.206 280.844C331.652 283.278 332.935 285.825 333.625 287.778C333.97 288.755 334.155 289.594 334.175 290.102C334.186 290.345 334.156 290.488 334.138 290.54L333.866 290.685L333.711 291.048C314.173 337.419 287.613 363.897 260.308 393.535C257.586 393.376 254.751 393.32 252.257 393.204C250.169 393.107 248.697 392.862 247.406 392.59C268.004 353.02 289.655 311.323 324.057 272.765L324.056 272.766ZM186.243 284.375L185.063 285.962C185.063 285.962 182.564 289.327 179.982 293.361C178.69 295.379 177.376 297.564 176.333 299.607C175.29 301.649 174.501 303.512 174.313 305.11C174.248 305.665 174.31 306.242 174.42 307.055C174.53 307.867 174.706 308.869 174.938 310.046C175.404 312.4 176.099 315.448 176.947 318.953C177.021 319.258 177.149 319.709 177.225 320.021C177.2 320.071 177.153 320.149 177.129 320.203C177.076 320.322 177.019 320.452 176.958 320.614C176.835 320.937 176.683 321.365 176.504 321.886C176.145 322.926 175.678 324.344 175.136 326.021C174.052 329.375 172.68 333.75 171.327 338.095C168.619 346.785 166 355.357 166 355.357L168.073 355.993C168.073 355.993 170.694 347.424 173.4 338.742C174.752 334.4 176.124 330.028 177.204 326.689C177.593 325.483 177.884 324.614 178.181 323.729C179.724 329.885 181.413 336.489 183.294 343.47C187.965 360.81 192.713 377.486 192.713 377.486L192.841 377.94L206.198 384.699L206.033 382.759C203.08 348.306 197.486 313.775 186.949 286.224L186.243 284.375ZM185.581 289.05C195.33 315.43 200.746 348.108 203.66 380.98L194.679 376.439C194.557 376.008 189.998 359.996 185.394 342.904C183.061 334.243 180.746 325.421 179.058 318.445C178.213 314.957 177.525 311.925 177.07 309.624C176.843 308.474 176.674 307.508 176.573 306.766C176.473 306.024 176.459 305.464 176.472 305.361C176.593 304.326 177.275 302.538 178.267 300.595C179.259 298.652 180.541 296.512 181.809 294.531C183.72 291.545 184.776 290.158 185.581 289.05H185.581Z" fill="#1A1A1A"/>
<path id="path419646" d="M235.781 298.869C233.856 300.012 231.632 301.172 230.517 302.269L231.221 306.955C232.182 306.059 233.356 305.387 234.588 304.776C234.588 304.776 233.298 304.141 233.136 303.452C232.316 302.198 235.781 298.869 235.781 298.869ZM213.976 299.325C213.976 299.325 215.134 301.774 215.054 302.554C214.973 303.335 214.051 304.33 214.051 304.33C214.133 304.626 214.22 304.923 214.307 305.22C213.339 304.334 212.339 303.454 211.965 303.272C211.146 302.876 206.891 300.17 205.017 300.076C204.988 300.075 204.959 300.073 204.931 300.073C203.155 300.096 203.51 303.698 203.51 303.698C206.377 301.207 209.689 303.865 212.228 305.558C214.764 307.364 214.816 308.905 214.491 310.151C214.164 311.407 211.535 313.365 211.535 313.365L214.365 311.88C214.11 312.229 213.783 312.562 213.37 312.875C213.37 312.875 214.479 314.081 214.278 314.683C214.076 315.284 210.465 317.72 210.465 317.72C210.465 317.72 217.162 315.81 217.038 315.525C215.962 311.603 216.029 305.933 216.709 301.77L213.976 299.325ZM245.915 301.327C244.118 301.389 233.369 304.736 231.765 306.781C230.792 308.021 230.657 308.93 230.789 309.433C230.96 310.079 231.402 310.673 231.954 311.195L231.113 310.581L230.244 315.893C232.884 317.346 235.805 318.461 238.547 319.82C238.544 319.821 233.709 316.967 233.211 315.497C232.622 313.76 233.463 312.872 233.915 312.629L233.684 312.461C234.781 313.097 235.777 313.448 235.844 313.385C235.844 313.385 233.202 312.692 234.025 310.127C234.849 307.562 241.685 305.644 244.269 305.822C246.854 306.001 249.808 308.935 249.808 308.935C249.671 307.026 246.885 301.353 246.149 301.361C246.115 301.335 246.034 301.323 245.915 301.327V301.327Z" fill="#00A0A0"/>
<path id="path368141" d="M245.637 300.975C238.199 303.156 233.319 304.539 230.544 307.594L230.427 307.717L230.812 310.223L230.839 310.276C231.143 310.881 231.753 311.486 232.559 312.114C233.365 312.742 234.369 313.377 235.45 313.957C237.61 315.117 240.066 316.062 241.93 316.212L241.989 315.49C240.322 315.356 237.892 314.449 235.791 313.321C234.741 312.757 233.771 312.137 233.008 311.542C232.255 310.956 231.721 310.384 231.507 309.971L231.202 308.005C233.781 305.249 238.489 303.827 245.846 301.669L245.637 300.975ZM208.485 301.002L208.127 301.627C214.702 305.378 214.493 305.399 217.001 308.172L216.739 309.704C216.542 310.083 215.92 310.657 215.024 311.222C214.119 311.792 212.951 312.378 211.706 312.91C209.218 313.974 206.393 314.821 204.713 314.956L204.772 315.678C206.622 315.529 209.453 314.659 211.995 313.573C213.266 313.029 214.456 312.431 215.409 311.831C216.361 311.23 217.08 310.655 217.402 310.014L217.429 309.966L217.776 307.931L217.659 307.802C215 304.874 215.199 304.831 208.485 301.001L208.485 301.002Z" fill="#008080"/>
<path id="path375965" d="M280.598 382.376L280.67 377.226L322.804 376.826L313.7 381.808L280.598 382.376Z" fill="#1A1A1A"/>
<path id="path380777" d="M226.265 334.581C225.344 334.581 224.46 334.947 223.809 335.599C223.158 336.25 222.792 337.133 222.792 338.054C222.791 338.976 223.157 339.859 223.809 340.511C224.46 341.162 225.343 341.529 226.265 341.529C226.721 341.529 227.173 341.439 227.595 341.264C228.016 341.09 228.399 340.834 228.722 340.511C229.045 340.189 229.3 339.806 229.475 339.384C229.65 338.962 229.739 338.511 229.739 338.054C229.739 337.133 229.373 336.249 228.721 335.598C228.07 334.947 227.186 334.581 226.265 334.581ZM223.39 372.23C222.468 372.23 221.585 372.596 220.933 373.247C220.281 373.898 219.915 374.782 219.915 375.703C219.915 376.16 220.005 376.611 220.179 377.033C220.354 377.455 220.61 377.838 220.933 378.16C221.255 378.483 221.638 378.739 222.06 378.913C222.481 379.088 222.933 379.178 223.39 379.178C224.311 379.178 225.194 378.811 225.846 378.16C226.497 377.508 226.863 376.625 226.863 375.703C226.863 374.782 226.497 373.899 225.845 373.248C225.194 372.596 224.311 372.23 223.39 372.23Z" fill="#CCCCCC"/>
<path id="circle383216" d="M226.265 335.341C225.545 335.341 224.855 335.627 224.347 336.136C223.838 336.645 223.552 337.335 223.552 338.055C223.552 338.774 223.838 339.465 224.347 339.974C224.855 340.483 225.545 340.769 226.265 340.769C226.621 340.769 226.974 340.699 227.304 340.562C227.633 340.426 227.932 340.226 228.184 339.974C228.436 339.722 228.636 339.423 228.773 339.094C228.909 338.764 228.979 338.411 228.979 338.055C228.979 337.698 228.909 337.345 228.773 337.016C228.636 336.687 228.436 336.388 228.184 336.136C227.932 335.884 227.633 335.684 227.304 335.547C226.974 335.411 226.621 335.341 226.265 335.341ZM223.39 372.991C222.67 372.991 221.98 373.277 221.471 373.786C220.962 374.294 220.676 374.984 220.676 375.704C220.676 376.06 220.746 376.413 220.882 376.743C221.019 377.072 221.219 377.371 221.471 377.623C221.723 377.875 222.022 378.075 222.351 378.211C222.68 378.348 223.033 378.418 223.39 378.418C223.746 378.418 224.099 378.348 224.429 378.211C224.758 378.075 225.057 377.875 225.309 377.623C225.561 377.371 225.761 377.072 225.897 376.743C226.034 376.413 226.104 376.06 226.104 375.704C226.104 374.984 225.818 374.294 225.309 373.786C224.8 373.277 224.109 372.991 223.39 372.991Z" fill="#F2F2F2"/>
</g>
</g>
</g>
</svg>
