<svg width="512" height="512" viewBox="0 0 512 512" fill="none" xmlns="http://www.w3.org/2000/svg">
<g id="Clothes5">
<g id="Clothes6">
<g id="g358061">
<path id="path351031" d="M204.749 287.578C213.938 309.576 235.647 337.597 240.416 342.499C259.881 322.039 288.066 302.045 317.076 257.876L318.051 259.285C301.716 289.822 268.194 317.251 240.979 345.792C227.411 332.818 214.407 313.059 201.78 291.517L204.749 287.578Z" fill="#CCCCCC"/>
<path id="path291716" d="M238.98 348.046C256.551 328.48 334.862 263.92 317.332 241.984C318.915 241.741 319.996 241.439 320.856 241.388C324.614 241.043 329.349 240.308 331.633 242.903C345.716 258.907 347.01 288.617 353 293.704C346.394 296.184 340.553 297.567 335.177 298.283C335.877 314.534 340.047 329.918 345.849 358.868C303.146 401.599 230.273 414.945 173.09 363.659C172.824 351.645 183.487 334.088 186.084 300.198C168.253 299.613 172.584 303.018 153 296.037C167.982 286.111 167.525 268.828 179.106 255.804C181.497 254.089 187.512 250.645 189.732 253.056C187.204 261.131 186.005 269.596 207.839 302.063C227.48 332.96 233.655 337.061 256.24 364.834L247.484 395.228" fill="#333333"/>
<path id="path333505" d="M319.33 241.782C318.242 241.775 317.352 241.937 317.352 241.937C329.742 259.501 283.51 303.475 283.378 304.03L292.515 297.48C292.515 297.48 317.656 270.052 320.126 267.358C325.486 260.749 328.811 255.11 322.496 242.635C321.703 241.965 320.418 241.789 319.33 241.782ZM187.602 252.793C179.288 252.697 173.447 256.473 170.663 268.35C170.663 268.35 174.879 262.36 179.373 262.454C188.891 262.654 193.442 297.379 193.434 297.377C199.947 296.465 206.359 296.445 211.534 307.32C202.694 288.802 182.489 280.13 189.771 252.977C189.03 252.861 188.306 252.801 187.602 252.793ZM343.72 278.879C342.584 279.51 338.65 282.292 334.186 282.859C327.899 283.657 325.649 286.12 324.858 287.008C319.573 292.934 345.871 291.707 347.195 290.502L343.72 278.879ZM168.672 279.578L160.152 292.299C160.152 292.299 175.165 292.786 178.911 292.276C182.656 291.766 180.813 289.35 178.544 288.394C176.275 287.437 168.672 279.578 168.672 279.578ZM293.536 297.91C295.743 302.025 294.712 302.268 299.5 309.774C307.612 310.105 319.701 311.108 330.681 309.788C333.827 329.637 342.234 355.929 336.871 366.947C336.871 366.947 346.049 360.517 345.904 359.581C345.76 358.65 335.494 306.968 335.385 306.42L334.616 298.88L293.536 297.91ZM200.583 300.13L186.508 300.48C185.533 323.446 175.305 348.019 172.919 363.368C182.382 371.628 191.915 379.174 202.488 383.032C193.856 373.883 191.535 368.923 192.859 347.15C203.861 352.259 227.196 355.983 251.129 367.093C252.637 367.793 242.908 395.022 236.085 394.407L247.06 396.128L255.103 369.721L256.193 365.786C224.312 347.49 198.952 348.925 184.565 337.215C184.578 336.777 184.558 336.351 184.446 336.023C192.537 334.624 189.516 315.042 200.583 300.13ZM297.299 312.586C298.832 315.851 284.121 324.564 281.357 325.036C281.357 325.036 276.325 330.7 284.773 329.324C288.657 328.692 305.466 326.691 305.045 324.89C304.638 323.143 297.729 313.204 297.299 312.586ZM194.83 318.728C192.483 323.911 195.187 332.458 187.27 335.153C187.27 335.153 198.419 336.404 202.984 337.52C207.549 338.636 214.576 334.566 214.957 333.157C215.338 331.748 205.103 326.145 202.077 324.984C199.052 323.823 195.195 319.731 194.83 318.728ZM256.547 330.713C252.193 334.611 241.606 345.402 241.122 345.447C240.73 345.483 233.331 336.385 229.228 333.09C232.319 336.171 248.794 358.863 235.238 352.467L256.232 364.519L261.329 347.464L269.419 345.469L257.025 396.384C263.245 395.642 268.723 397.268 277.294 394.691C269.04 383.926 271.405 359.366 273.47 343.468C273.47 343.468 305.566 337.617 306.213 337.529C306.819 337.447 308.467 333.918 309.173 333.602C291.442 336.078 273.688 338.8 262.768 342.902L262.561 343.343L262.757 342.686C262.757 342.686 256.632 344.022 252.586 348.034C252.247 348.37 251.709 347.552 251.221 346.143C251.018 345.558 266.265 339.749 266.097 339.001C249.466 342.016 249.563 339.558 256.547 330.713ZM309.24 333.581C309.219 333.584 309.197 333.591 309.174 333.601C309.216 333.595 309.258 333.589 309.3 333.583C309.281 333.578 309.261 333.578 309.24 333.581ZM305.746 342.912L300.309 388.219C306.444 387.757 324.997 375.828 324.997 375.828C324.997 375.828 316.743 376.325 314.067 371.67C308.302 361.641 305.515 342.467 305.746 342.912Z" fill="#1A1A1A" stroke="#1A1A1A" stroke-width="0.320599"/>
<path id="path273039" d="M335.638 280.121C334.568 280.132 333.565 280.549 332.793 281.306C332.022 282.062 331.528 283.112 331.392 284.284C331.233 285.657 331.576 287.092 332.347 288.275C333.117 289.458 334.252 290.292 335.501 290.593C336.75 290.893 338.011 290.637 339.007 289.879C340.003 289.122 340.652 287.925 340.811 286.553C340.89 285.873 340.846 285.171 340.682 284.486C340.518 283.801 340.238 283.147 339.856 282.561C339.475 281.975 339 281.469 338.458 281.072C337.917 280.674 337.32 280.392 336.702 280.243C336.349 280.159 335.992 280.118 335.638 280.121ZM172.361 282.494C171.173 282.526 169.983 283.066 169.027 284.006C168.072 284.945 167.422 286.215 167.209 287.56C166.985 288.974 167.26 290.358 167.974 291.409C168.689 292.459 169.784 293.09 171.019 293.162C171.63 293.198 172.257 293.095 172.865 292.86C173.472 292.625 174.048 292.263 174.559 291.793C175.07 291.323 175.506 290.755 175.842 290.122C176.179 289.489 176.41 288.803 176.521 288.103C176.745 286.689 176.47 285.304 175.755 284.253C175.041 283.203 173.946 282.572 172.711 282.5C172.595 282.493 172.478 282.491 172.361 282.494ZM292.261 318.405C291.191 318.415 290.187 318.832 289.416 319.588C288.644 320.345 288.15 321.395 288.014 322.567C287.935 323.246 287.979 323.949 288.142 324.634C288.306 325.318 288.587 325.972 288.969 326.558C289.35 327.144 289.825 327.65 290.367 328.048C290.908 328.446 291.505 328.727 292.123 328.876C293.372 329.177 294.634 328.92 295.629 328.163C296.625 327.405 297.274 326.208 297.433 324.836C297.512 324.156 297.469 323.454 297.305 322.769C297.141 322.084 296.86 321.43 296.478 320.844C296.097 320.259 295.622 319.752 295.08 319.355C294.539 318.957 293.942 318.676 293.324 318.527C292.971 318.442 292.615 318.401 292.261 318.405ZM201.22 325.445C200.033 325.477 198.843 326.017 197.887 326.956C196.932 327.895 196.282 329.164 196.069 330.509C195.958 331.209 195.968 331.91 196.1 332.57C196.231 333.231 196.481 333.838 196.835 334.359C197.188 334.879 197.639 335.301 198.162 335.602C198.684 335.903 199.268 336.076 199.879 336.112C201.114 336.184 202.387 335.691 203.419 334.742C204.45 333.793 205.156 332.466 205.38 331.052C205.605 329.638 205.329 328.254 204.615 327.203C203.901 326.152 202.806 325.522 201.571 325.45C201.455 325.443 201.338 325.441 201.22 325.445V325.445Z" fill="#E6E6E6" stroke="#CCCCCC" stroke-width="1.28239" stroke-linecap="round" stroke-linejoin="round"/>
<path id="path281446" d="M186.107 334.389L184.093 335.48C192.587 350.238 235.606 348.855 255.478 366.234C256.133 366.807 256.509 368.324 256.509 368.324L256.613 369.646L258.344 370.301L252.586 390.563L251.246 395.311L253.916 395.295L268.122 340.868L266.119 341.268L258.653 369.056C257.019 360.521 237.822 354.095 220.021 348.914C203.559 344.122 188.432 340.518 186.107 334.39V334.389ZM305.111 342.002C304.838 341.998 304.685 342.059 304.06 342.167L298.428 389.939L300.65 389.178L305.863 342.083C305.483 342.03 305.275 342.004 305.111 342.002ZM302.767 342.177C302.493 342.173 302.342 342.235 301.717 342.343L296.084 390.114L298.306 389.354L303.518 342.257C303.139 342.205 302.931 342.179 302.767 342.177ZM206.132 348.132C205.858 348.128 205.707 348.189 205.082 348.297L201.191 382.696L202.796 383.627L206.884 348.213C206.504 348.16 206.296 348.135 206.132 348.132ZM208.015 349.093C207.741 349.089 207.59 349.149 206.965 349.258L203.075 383.657L204.679 384.588L208.767 349.173C208.387 349.121 208.179 349.095 208.015 349.093Z" fill="#E6E6E6" stroke="#999999" stroke-width="0.320599"/>
<path id="path274880" d="M256.186 364.653L262.904 343.407M186.084 300.198C183.488 334.089 172.916 351.071 173.182 363.086C231.244 415.949 306.231 400.641 345.722 359.376C339.76 329.624 335.624 315.218 335.137 298.666M255.597 367.263L247.484 395.229M246.289 352.496C261.543 338.054 287.158 337.905 308.872 333.065C308.523 319.575 299.028 314.494 293.504 297.704C313.217 296.541 327.392 303.316 353 293.705C347.01 288.617 345.716 258.908 331.633 242.904C328.822 239.709 322.753 241.412 317.941 241.804L317.949 243.149C331.738 265.433 258.356 326.649 240.785 346.215L246.289 352.496ZM255.503 367.056C238.769 350.078 191.922 351.302 183.918 336.229C193.517 331.937 189.46 314.732 200.876 300.093C177.165 298.684 174.878 303.527 153.001 296.038C167.983 286.112 165.99 269.071 177.571 256.048C180.07 253.238 185.883 252.343 189.615 253.061C187.198 261.405 185.804 269.943 207.839 302.064C224.42 328.145 231.404 335.132 246.764 353.383C249.6 356.752 252.783 359.884 256.303 364.213L255.503 367.056Z" stroke="black" stroke-width="1.92359" stroke-linecap="round" stroke-linejoin="round"/>
<path id="path280487" d="M305.781 341.692L300.249 341.75L300.312 348.14L302.111 348.119L299.84 359.073C298.443 364.951 307.988 365.229 307.475 359.672L304.738 348.051L306.184 348.059L305.781 341.692ZM203.406 348.686L203.266 355.075L205.064 355.131L202.446 365.98C200.863 371.795 210.392 372.479 210.056 366.904L207.692 355.174L209.137 355.243L208.936 348.865L203.406 348.686ZM303.817 357.946C304.619 357.943 305.374 358.169 305.939 358.58C306.504 358.99 306.839 359.557 306.88 360.171C306.901 360.499 306.839 360.832 306.695 361.15C306.551 361.467 306.329 361.764 306.041 362.023C305.754 362.282 305.406 362.498 305.019 362.659C304.631 362.819 304.211 362.922 303.783 362.96C302.918 363.037 302.071 362.847 301.428 362.433C300.785 362.018 300.399 361.413 300.355 360.751C300.321 360.235 300.496 359.713 300.856 359.257C301.217 358.801 301.745 358.433 302.368 358.203C302.712 358.077 303.079 357.995 303.451 357.962C303.573 357.951 303.695 357.946 303.817 357.946ZM206.09 365.024C206.519 365.004 206.946 365.05 207.347 365.157C207.748 365.265 208.115 365.432 208.427 365.651C208.738 365.87 208.989 366.135 209.163 366.431C209.338 366.727 209.434 367.049 209.445 367.378C209.457 367.707 209.383 368.036 209.229 368.348C209.076 368.659 208.844 368.946 208.549 369.193C208.253 369.439 207.899 369.64 207.507 369.784C207.115 369.929 206.692 370.013 206.262 370.033C205.395 370.073 204.555 369.847 203.926 369.406C203.297 368.964 202.93 368.343 202.907 367.679C202.889 367.162 203.081 366.648 203.455 366.208C203.83 365.767 204.369 365.422 204.999 365.219C205.348 365.107 205.716 365.041 206.09 365.024ZM256.309 369.23L254.396 375.935L256.282 376.657L250.519 387.165C247.239 392.73 257.127 396.968 258.311 390.948L259.049 377.672L260.558 378.278L262.107 371.459L256.309 369.23ZM253.429 387.302C253.828 387.312 254.237 387.378 254.636 387.497C255.095 387.635 255.535 387.84 255.929 388.102C256.324 388.363 256.665 388.676 256.934 389.022C257.203 389.368 257.395 389.74 257.498 390.118C257.601 390.496 257.613 390.871 257.535 391.223C257.456 391.575 257.287 391.897 257.039 392.17C256.79 392.442 256.466 392.661 256.086 392.812C255.705 392.964 255.275 393.046 254.82 393.054C254.366 393.062 253.895 392.995 253.436 392.858C252.976 392.72 252.537 392.515 252.143 392.253C251.748 391.992 251.407 391.679 251.138 391.333C250.868 390.987 250.677 390.615 250.574 390.237C250.471 389.859 250.458 389.484 250.537 389.132C250.661 388.578 251.005 388.105 251.523 387.777C252.041 387.45 252.707 387.284 253.429 387.302Z" fill="#CCCCCC" stroke="#4D4D4D" stroke-width="0.641195"/>
<g id="path299398">
<path id="path299398_2" d="M188.309 255.84C188.128 254.918 179.006 251.808 173.481 266.607C167.501 282.626 165.365 287.722 158.025 295.116C173.263 299.359 185.773 295.608 204.654 297.914L205.873 300.55C193.03 307.522 195.692 332.231 187.992 336.438C196.775 346.622 230.692 345.963 253.946 362.509L256.219 364.884M318.73 243.477C322.421 242.875 331.635 240.886 339.197 262.873C343.851 276.406 345.108 284.789 348.038 292.455C334.832 299.076 315.112 296.015 293.221 294.611L291.144 297.27C295.948 315.15 306.268 320.273 306.392 331.168C303.64 333.068 264.647 333.816 245.001 350.708M270.453 340.987C265.565 359.685 261.156 378.125 257.374 396.228L270.453 340.987Z" stroke="black" stroke-width="1.28239"/>
</g>
</g>
</g>
</g>
</svg>
