<svg width="512" height="512" viewBox="0 0 512 512" fill="none" xmlns="http://www.w3.org/2000/svg">
<g id="Clothes2">
<g id="Clothes2_2">
<g id="g423807">
<path id="path268671" d="M319.08 257.577C314.574 278.829 300.744 290.283 284.811 299.528C257.975 321.871 233.422 346.194 231.086 389.794C248.302 397.503 310.592 395.92 353 347.677C344.137 331.354 335.247 315.126 328.148 292.466C326.962 275.809 323.831 264.475 319.08 257.577ZM185.138 268.992C185.138 268.992 167.905 292.56 172.923 300.518C177.942 308.476 180.627 309.621 180.627 309.621L176.909 316.399L180.183 320.838L169.335 360.617C180.258 371.794 191.893 376.682 203.033 380.72C207.233 353.116 203.91 326.642 190.239 305.613C185.733 297.403 185.658 282.881 185.138 268.992Z" fill="#FFB669"/>
<path id="path275553" d="M310.779 279.504L285.399 299.709L286.574 315.53L290.324 315.815C292.482 300.918 304.091 292.758 311.106 281.324L310.779 279.504ZM274.395 308.775L266.437 316.382C270.041 321.994 270.063 328.091 269.255 334.299L280.434 329.89C279.375 323.128 278.026 316.283 274.395 308.775ZM180.807 320.919C180.807 320.919 175.701 338.24 174.493 341.493C173.284 344.746 169.944 359.971 169.944 359.971L170.908 360.52C174.675 349.967 177.437 341.715 185.877 325.836L180.807 320.919ZM321.077 348.863L316.226 354.519C322.928 358.697 330.055 362.901 331.953 366.774L341.233 359.265C336.017 355.2 331.132 351.005 321.077 348.863ZM250.111 349.123L245.213 356.35C245.59 369.1 247.345 387.708 245.887 392.657C251.305 393.508 256.762 393.838 262.363 392.221C260.708 385.766 257.361 371.245 250.111 349.123Z" fill="#67673D"/>
<path id="path410850" d="M197.652 320.701C197.607 320.656 206.446 314.767 217.733 319.2C226.204 322.527 274.225 302.965 274.225 302.965L274.705 306.141C274.705 306.141 250.767 324.879 243.59 341.61C236.413 358.341 228.757 390.457 228.757 390.457L207.918 381.519C207.918 381.519 205.372 337.903 204.09 331.102C202.808 324.301 197.652 320.701 197.652 320.701Z" fill="white"/>
<path id="path278656" d="M182.508 272.629C177.939 276.573 173.175 288.848 178.524 300.619L181.311 303.238L178.577 298.013L182.221 299.688L178.7 292.795L183.126 295.508C181.39 293.973 180.034 291.441 179.015 288.031C180.749 289.345 182.561 291.101 184.14 291.515L180.028 285.719L184.51 287.739C183.542 285.702 182.115 285.836 181.658 281.377C181.658 281.377 184.853 283.323 185.533 283.702C186.214 284.08 182.812 278.258 182.373 277.895C181.934 277.532 185.182 279.493 185.182 279.493L183.041 275.771C183.041 275.771 184.976 276.887 185.488 277.159C185.999 277.431 184.416 273.941 184.416 273.941L182.508 272.629ZM314.589 276.901L312.042 277.969C312.042 277.969 306.632 283.617 307.294 283.424C307.955 283.231 313.15 280.43 313.15 280.43L307.548 285.052C307.548 285.052 313.969 282.749 313.367 283.066C312.765 283.383 306.821 289.872 307.706 289.596C308.591 289.321 313.282 287.294 313.282 287.294C311.587 292.377 309.975 291.876 308.324 294.015L314.03 292.745L307.766 298.502C309.699 298.4 312.249 296.794 314.597 295.681C312.527 299.407 310.3 302.029 307.894 303.397L313.714 301.306L307.845 308.484L312.493 307.412L307.968 312.836L311.872 310.46C321.129 298.042 318.835 282.598 314.589 276.901ZM179.997 310.358L178.948 312.422C178.948 312.422 178.591 318.944 178.911 318.461C179.23 317.977 181.028 313.374 181.028 313.374L179.978 319.349C179.978 319.349 182.841 314.393 182.629 314.922C182.416 315.451 182.181 322.793 182.599 322.136C183.016 321.479 184.919 317.64 184.919 317.64C186.645 321.777 185.326 322.34 185.448 324.593L188.424 320.678L187.576 327.733C188.766 326.615 189.52 324.21 190.417 322.227C191.149 325.71 191.166 328.582 190.373 330.759L192.966 326.263L193.162 334L195.565 330.79L195.656 336.685L196.856 333.055C195.939 320.158 185.894 311.644 179.997 310.358H179.997ZM313.2 312.485L309.641 315.353C302.094 328.878 306.396 343.889 311.353 348.978L313.737 347.587C313.737 347.587 314.232 346.908 314.86 346.031L315.988 346.59C315.988 346.59 322.512 346.883 322.026 346.569C321.54 346.254 316.919 344.501 316.919 344.501L322.904 345.492C322.904 345.492 317.921 342.678 318.452 342.885C318.982 343.092 326.327 343.256 325.666 342.845C325.004 342.434 321.147 340.569 321.147 340.569C325.267 338.803 325.843 340.115 328.094 339.972L324.151 337.034L331.215 337.813C330.085 336.634 327.67 335.905 325.678 335.027C329.155 334.261 332.027 334.215 334.212 334.987L329.691 332.438L337.426 332.166L334.192 329.795L340.086 329.647L336.444 328.482C326.775 329.265 319.623 335.16 316.136 340.552C314.416 341.433 311.352 342.993 311.755 342.707C312.31 342.313 317.351 335.1 316.509 335.49C315.668 335.88 311.283 338.504 311.283 338.504C312.296 333.244 313.961 333.528 315.317 331.191L309.826 333.198L315.281 326.668C313.378 327.023 311.06 328.951 308.879 330.362C310.442 326.397 312.305 323.507 314.512 321.834L309.015 324.671L313.893 316.784L309.426 318.456L313.2 312.485ZM285.79 336.301C283.346 336.282 280.809 336.541 278.217 337.149L274.481 339.784L281.26 337.796L278.424 341.632L287.348 339.112L283.108 343.616C285.323 341.954 288.615 340.957 292.857 340.545C290.901 342.254 288.41 343.952 287.545 345.684L295.324 342.235L291.883 346.961C294.503 346.3 294.688 344.622 300.024 345.094C300.024 345.094 296.296 348.589 295.691 349.291C295.084 349.993 303.404 347.129 303.935 346.704C304.303 346.409 302.224 348.648 300.88 350.086C293.56 349.674 281.48 353.618 274.771 364.659L274.097 368.95L277.251 363.041L278.01 367.534L282.228 359.818L282.512 365.707C282.842 363.096 284.351 360.204 286.9 357.065C286.776 359.535 286.287 362.358 286.909 364.106L289.718 356.538L290.69 362.037C291.984 359.825 290.944 358.573 294.836 355.291C294.836 355.291 294.818 356.602 294.811 357.987C290.551 361.745 286.764 367.105 285.163 373.979L285.861 378.265L287.015 371.668L289.138 375.699L290.739 367.055L292.846 372.56C292.345 369.976 292.878 366.758 294.32 362.981C294.972 365.366 295.387 368.201 296.522 369.668L296.832 361.602L299.471 366.523C300.01 364.018 298.632 363.152 301.307 358.82C301.307 358.82 302.756 363.465 303.107 364.277C303.458 365.088 304.506 356.811 304.362 356.18C304.218 355.548 306.544 361.619 306.544 361.619L306.435 354.729C306.435 354.729 307.627 360.213 307.899 360.812C308.171 361.411 308.937 354.033 308.937 354.033L308.128 351.531C306.799 351.606 305.247 351.961 303.583 352.585L303.587 351.536C305.582 350.873 308.081 349.951 308.081 349.951L310.076 348.042C307.152 342.936 297.563 336.39 285.79 336.301H285.79ZM315.155 342.239C314.886 342.758 314.656 343.265 314.464 343.756C313.331 344.559 312.315 345.29 312.315 345.29L315.155 342.239ZM257.716 342.862C252.976 342.866 248.954 344.781 247.013 348.573L245.452 351.43C245.452 351.43 250.982 355.091 250.867 354.523C250.752 353.956 249.698 349.624 249.698 349.624L253.169 353.419C253.169 353.419 251.378 349.292 251.625 348.778C251.894 348.218 258.092 353.525 256.425 351.589C256.882 350.66 254.666 347.164 254.348 346.937C258.458 348.638 257.932 349.964 259.605 351.468L258.944 346.596L263.33 352.186C263.382 350.554 262.215 348.319 261.448 346.281C264.427 348.229 266.469 350.248 267.446 352.349L266.105 347.336L271.711 352.672C271.379 351.41 271 350.137 269.509 348.602L275.372 352.81L273.656 349.394C268.622 345.022 262.761 342.858 257.716 342.862ZM306.266 347.953C306.266 347.953 304.629 349.242 303.206 350.399C302.797 350.306 302.361 350.23 301.901 350.174L306.266 347.953ZM300.985 353.003C300.985 353.003 300.949 353.352 300.906 353.783C300.841 353.816 300.776 353.851 300.711 353.885L300.985 353.003ZM298.574 353.69C298.599 353.689 298.644 354.278 298.693 355.058C298.395 355.248 298.097 355.446 297.799 355.651C298.233 354.686 298.545 353.92 298.563 353.734C298.566 353.704 298.57 353.69 298.574 353.69L298.574 353.69ZM179.934 358.621L174.967 363.067L181.466 360.533L177.279 366.089L184.431 362.05L181.729 367.99L188.104 363.473L185.313 370.451L190.488 364.299L189.925 371.899L193.431 366.402C193.431 366.402 193.689 372.146 193.366 372.854C193.043 373.562 197.572 368.155 197.9 367.689C198.227 367.222 196.866 373.687 196.866 373.687L200.423 368.402C200.423 368.402 201.599 372.5 201.369 373.032C201.138 373.563 203.112 370.345 203.112 370.345L203.098 365.157C196.697 361.602 189.535 359.112 179.934 358.621H179.934Z" fill="#2A972A"/>
<path id="path383034" d="M315.67 265.1C315.67 265.1 303.8 282.317 299.601 285.822C273.885 303.356 253.087 318.044 240.25 343.949C238.322 348.495 232.449 362.501 231.929 364.943C222.322 410.034 212.701 372.799 217.391 370.469C213.13 369.012 206.429 362.003 215.297 351.671L223 348.472C218.793 348.171 214.796 346.939 213.609 344.457C207.572 352.824 205.19 341.202 207.29 340.891L207.143 335.59C206.044 325.197 203.478 322.4 201.386 317.147L197.65 320.701C201.911 330.151 205.635 356.784 202.807 380.776L230.721 390.222C230.721 390.222 235.905 354.387 243.746 342.993C251.587 331.599 276.051 306.697 276.051 306.697C276.051 306.697 294.177 292.411 300.874 287.924C307.571 283.437 313.189 275.113 315.67 265.1L315.67 265.1Z" fill="#CCCCCC"/>
<path id="path279216" d="M315.334 270.823L313.374 272.768C313.374 272.768 310.474 280.032 311.015 279.605C311.556 279.178 315.323 274.635 315.323 274.635L311.862 281.019C311.862 281.019 316.952 276.477 316.513 276.996C316.074 277.516 312.994 285.759 313.711 285.172C314.428 284.584 318.018 280.949 318.018 280.949C318.352 286.296 316.67 286.435 315.941 289.037L320.755 285.722L317.104 293.408C318.858 292.589 320.621 290.142 322.38 288.231C321.858 292.461 320.775 295.726 319.056 297.896L323.67 293.776L320.919 302.631L324.826 299.897L322.663 306.622L325.393 302.955C329.322 287.972 321.406 274.513 315.334 270.823ZM181.533 308.667C181.05 308.672 180.595 308.705 180.171 308.764L179.899 311.063C179.899 311.063 181.821 317.304 181.954 316.74C182.086 316.176 182.18 311.237 182.18 311.237L183.263 317.207C183.263 317.207 184.235 311.565 184.219 312.135C184.202 312.705 186.521 319.675 186.685 318.914C186.85 318.153 187.307 313.894 187.307 313.894C190.357 317.178 189.315 318.162 190.209 320.233L191.646 315.532L193.292 322.444C194.022 320.983 193.897 318.465 194.053 316.294C195.945 319.309 196.954 321.998 196.962 324.315L197.841 319.2L194.053 312.853C189.635 309.952 184.915 308.635 181.533 308.667ZM301.522 312.481L298.933 316.247C295.572 331.367 303.988 344.518 310.195 347.976L312.081 345.959C312.081 345.959 314.704 338.59 314.18 339.038C313.655 339.485 310.062 344.167 310.062 344.167L313.281 337.657C313.281 337.657 308.366 342.387 308.786 341.851C309.205 341.315 311.971 332.962 311.277 333.577C310.582 334.19 307.131 337.958 307.131 337.958C306.596 332.628 308.272 332.425 308.902 329.798L304.218 333.292L307.576 325.475C305.854 326.36 304.185 328.869 302.499 330.845C302.861 326.599 303.82 323.296 305.456 321.062L301 325.353L303.417 316.4L299.615 319.281L301.522 312.481ZM333.187 335.051C324.082 334.98 316.39 339.575 313.735 343.472L315.256 345.216C315.256 345.216 321.171 347.987 320.842 347.51C320.514 347.033 316.917 343.644 316.917 343.644L322.065 346.851C322.065 346.851 318.54 342.344 318.951 342.738C319.362 343.133 326.084 346.097 325.631 345.464C325.177 344.831 322.329 341.631 322.329 341.631C326.811 341.578 326.84 343.01 328.974 343.739L326.457 339.517L332.684 342.942C332.092 341.42 330.141 339.821 328.638 338.247C332.142 338.871 334.812 339.929 336.534 341.479L333.335 337.391L340.585 340.105L338.506 336.675L344.007 338.797L341.089 336.325C338.398 335.456 335.737 335.071 333.187 335.051ZM294.928 344.624C288.697 344.692 281.467 346.625 275.339 351.816L273.343 355.673L278.204 351.067L277.503 355.568L283.945 349.586L282.351 355.261C283.49 352.888 285.837 350.623 289.248 348.452C288.349 350.755 286.992 353.279 287.029 355.133L292.089 348.843L291.27 354.368C293.196 352.679 292.607 351.163 297.338 349.281C297.338 349.281 295.729 353.872 295.528 354.734C295.325 355.595 301.104 349.575 301.365 348.983C301.627 348.39 299.873 354.651 299.873 354.651L303.895 349.055C303.895 349.055 301.581 354.169 301.442 354.812C301.303 355.455 306.319 349.989 306.319 349.989L307.161 347.498C304.566 345.79 300.09 344.567 294.928 344.624Z" fill="#1C801C"/>
<path id="path255679" d="M212.873 333.127C211.419 332.846 209.991 333.282 208.811 334.051C206.451 335.588 204.747 338.506 205.066 341.654C205.105 342.038 205.295 342.391 205.594 342.635C205.894 342.879 206.278 342.994 206.662 342.955C206.852 342.936 207.037 342.88 207.206 342.789C207.375 342.699 207.524 342.576 207.646 342.428C207.767 342.28 207.858 342.109 207.913 341.925C207.968 341.742 207.987 341.549 207.967 341.359C207.781 339.52 208.985 337.41 210.396 336.49C211.102 336.031 211.776 335.88 212.32 335.985C212.729 336.064 213.158 336.557 213.588 337.098C211.244 340.237 210.822 344.974 213.819 349.983C209.478 355.612 207.849 360.153 208.295 363.724C208.765 367.484 211.352 369.907 213.884 371.198C214.228 371.373 214.627 371.403 214.994 371.283C215.361 371.163 215.665 370.903 215.84 370.559C216.015 370.215 216.046 369.816 215.927 369.45C215.808 369.083 215.549 368.778 215.206 368.603C213.229 367.594 211.51 365.994 211.181 363.364C210.852 360.733 211.965 356.714 216.592 350.994C216.789 350.75 216.902 350.45 216.914 350.137C216.927 349.825 216.838 349.516 216.662 349.258C212.954 343.824 214.268 339.657 216.888 337.597C219.399 335.623 223.232 335.673 226.399 339.414C225.58 340.783 224.695 342.181 224.803 343.831C224.947 346.04 226.324 348.247 228.957 349.64C229.298 349.82 229.697 349.857 230.066 349.743C230.434 349.629 230.743 349.374 230.923 349.032C231.104 348.692 231.142 348.293 231.029 347.924C230.916 347.556 230.662 347.247 230.321 347.066C228.369 346.033 227.791 344.877 227.71 343.637C227.629 342.398 228.205 340.942 229.177 339.779C230.149 338.616 231.488 337.814 232.535 337.667C233.583 337.52 234.324 337.723 235.093 339.107C235.281 339.444 235.595 339.693 235.965 339.798C236.336 339.904 236.733 339.858 237.071 339.672C237.238 339.579 237.385 339.454 237.504 339.303C237.623 339.153 237.712 338.981 237.764 338.797C237.817 338.613 237.832 338.42 237.81 338.23C237.788 338.04 237.728 337.856 237.635 337.689C236.399 335.463 234.149 334.498 232.127 334.782C230.617 334.994 229.425 336.084 228.253 337.119C224.355 332.904 219.012 332.565 215.421 335.147C214.636 334.291 213.88 333.321 212.873 333.127Z" fill="#999999"/>
<path id="path316655" d="M302.236 285.824C304.155 287.356 303.074 287.67 305.684 288.585L306.768 287.51C304.514 288.241 304.739 286.552 302.236 285.824ZM300.387 287.669L298.585 289.138C300.791 291.539 301.149 290.71 303.699 292.075C302.558 290.082 301.131 290.677 300.387 287.669ZM295.23 292.075C297.149 293.607 297.208 295.019 299.818 295.934L301.292 293.72C299.039 294.451 297.733 292.804 295.23 292.075ZM293.416 293.201L291.246 295.271C293.452 297.673 294.142 296.961 296.693 298.327C294.74 295.955 293.674 295.982 293.416 293.201ZM288.935 298.096C290.853 299.628 292.351 301.537 294.961 302.453L296.436 300.237C294.182 300.969 291.437 298.825 288.935 298.096ZM286.255 298.718L284.291 301.282C286.496 303.684 289.257 304.418 291.808 305.784C289.855 303.412 286.513 301.498 286.255 298.718ZM283.545 306.307C285.64 308.302 287.202 310.694 290.173 312.037L292.132 309.591C289.41 310.216 286.409 307.419 283.545 306.307ZM275.51 311.582C274.816 314.287 270.951 315.668 268.648 317.701C271.382 316.756 274.224 316.467 276.781 314.445L275.51 311.582ZM277.425 320.111C274.377 320.491 270.784 322.472 268.296 321.201L269.6 324.05C272.809 323.473 274.907 321.534 277.425 320.111ZM279.255 323.739C277.921 326.192 273.836 326.588 271.106 327.997C273.988 327.749 276.815 328.162 279.788 326.826L279.255 323.739ZM325.11 349.842C326.368 352.335 324.371 355.92 323.976 358.967C325.412 356.455 327.361 354.366 327.953 351.16L325.11 349.842ZM332.169 354.999C330.125 357.293 328.725 361.15 326.017 361.832L328.874 363.117C330.909 360.57 331.211 357.729 332.169 354.999ZM335.935 356.525C336.546 359.25 333.734 362.238 332.607 365.096C334.612 363.011 337.013 361.461 338.37 358.497L335.935 356.525ZM245.338 364.833L245.649 367.951C248.807 368.434 250.918 366.145 253.676 365.551C249.021 366.484 247.168 366.894 245.338 364.833ZM255.4 366.764C254.065 369.217 251.129 369.389 248.399 370.798C251.281 370.549 253.135 370.599 256.109 369.262L255.4 366.764ZM246.134 372.68L246.447 375.798C249.619 376.283 251.736 373.971 254.514 373.391C249.828 374.329 247.969 374.747 246.134 372.68ZM257.552 374.372C256.33 376.883 252.267 377.463 249.603 378.994C252.471 378.616 255.315 378.902 258.225 377.432L257.552 374.372ZM246.282 380.828L246.593 383.946C249.816 384.438 255.091 382.497 257.935 381.966C253.148 382.923 248.135 382.915 246.282 380.828ZM260.381 385.254C259.047 387.707 252.472 387.832 249.741 389.241C252.623 388.992 257.941 389.678 260.915 388.342L260.381 385.254Z" fill="#4F3E1A"/>
<path id="path275911" d="M180.655 323.405C181.367 324.882 178.54 325.855 179.23 327.287C179.509 327.867 179.981 328.333 180.57 328.612C180.355 328.663 180.146 328.736 179.947 328.832C178.47 329.544 177.833 331.282 178.524 332.714C179.214 334.145 180.97 334.729 182.446 334.018C183.171 333.668 183.727 333.047 183.987 332.298C184.865 332.995 186.088 333.121 187.124 332.622C188.601 331.91 189.238 330.172 188.549 328.74C187.859 327.308 186.101 326.724 184.624 327.436C184.518 327.488 184.415 327.546 184.315 327.61C184.926 326.747 185.026 325.64 184.577 324.709C183.887 323.278 179.943 321.929 180.655 323.405L180.655 323.405ZM182.53 328.812C182.434 328.612 182.955 328.687 183.154 328.591C183.261 328.539 183.365 328.48 183.465 328.416C183.303 328.645 183.175 328.894 183.085 329.157C182.914 329.021 182.625 329.009 182.53 328.812L182.53 328.812ZM318.237 344.166C316.598 344.166 315.269 345.455 315.27 347.045C315.27 347.41 315.341 347.771 315.48 348.11C315.196 348.024 314.9 347.981 314.603 347.98C313.949 347.981 313.314 348.19 312.796 348.576C312.311 347.558 311.259 346.906 310.102 346.906C308.463 346.905 307.133 348.194 307.133 349.783C307.133 351.373 308.462 352.663 310.102 352.662C310.756 352.662 311.392 352.451 311.91 352.064C312.231 352.738 312.808 353.267 313.521 353.538C313.403 353.852 313.342 354.184 313.342 354.519C313.342 356.108 314.67 357.396 316.309 357.397C317.948 357.397 319.278 356.109 319.278 354.519C319.277 354.269 319.243 354.02 319.177 353.778C319.673 354.112 320.263 354.291 320.867 354.292C322.507 354.291 323.835 353.002 323.835 351.413C323.834 349.823 322.506 348.535 320.867 348.535C320.835 348.536 320.804 348.537 320.772 348.539C321.055 348.089 321.205 347.572 321.206 347.045C321.206 345.455 319.877 344.166 318.237 344.166V344.166ZM317.361 349.795H317.363C317.646 349.879 317.941 349.922 318.237 349.923C318.269 349.922 318.301 349.92 318.332 349.918C318.049 350.368 317.899 350.885 317.899 351.412C317.899 351.663 317.934 351.912 318.001 352.153C317.811 352.026 317.606 351.92 317.391 351.839C317.51 351.525 317.571 351.193 317.572 350.858C317.572 350.494 317.5 350.133 317.361 349.794L317.361 349.795ZM252.909 350.087C251.27 350.087 249.941 351.376 249.94 352.965C249.941 353.676 250.214 354.362 250.705 354.89C250.261 354.648 249.76 354.522 249.251 354.522C249.017 354.522 248.784 354.549 248.557 354.602C248.59 354.432 248.607 354.26 248.608 354.087C248.608 352.497 247.279 351.209 245.639 351.209C244.001 351.21 242.673 352.498 242.672 354.087C242.672 355.676 244 356.965 245.639 356.966C245.873 356.965 246.106 356.938 246.333 356.885C246.301 357.055 246.284 357.227 246.284 357.4C246.284 357.854 246.395 358.301 246.608 358.706C246.063 358.232 245.356 357.97 244.624 357.97C242.986 357.97 241.657 359.258 241.657 360.847C241.657 362.436 242.986 363.724 244.624 363.725C246.264 363.725 247.593 362.437 247.593 360.847C247.593 360.393 247.483 359.945 247.27 359.541C247.814 360.014 248.52 360.277 249.251 360.277C250.083 360.277 250.877 359.938 251.439 359.343C252.001 359.945 252.799 360.288 253.637 360.289C255.276 360.289 256.605 359 256.605 357.411C256.605 356.374 256.03 355.416 255.098 354.906C255.598 354.376 255.876 353.683 255.876 352.965C255.876 351.376 254.548 350.088 252.909 350.087H252.909ZM310.314 352.726C308.674 352.726 307.344 354.015 307.345 355.605C307.345 357.195 308.674 358.483 310.314 358.483C311.953 358.483 313.282 357.195 313.282 355.605C313.283 354.015 311.953 352.726 310.314 352.726Z" fill="#008000"/>
<path id="path254782" d="M318.195 256L317.959 257.472C317.959 257.472 314.223 279.854 298.759 288.44C290.669 292.932 278.361 303.388 267.173 314.497C255.986 325.605 245.98 337.271 242.578 344.449C239.23 351.515 236.143 362.863 233.863 372.483C231.582 382.103 230.123 389.979 230.123 389.979L231.557 390.242C231.557 390.242 233.004 382.397 235.276 372.816C237.547 363.234 240.657 351.903 243.895 345.072C247.08 338.352 257.068 326.587 268.2 315.534C273.403 310.367 278.839 305.442 283.982 301.106L287.077 327.054C280.069 330.048 269.169 332.471 259.398 337.63C249.434 342.889 240.684 351.121 238.844 365.68L240.289 365.862C242.066 351.801 250.355 344.053 260.08 338.919C269.805 333.785 280.915 331.402 288.162 328.21L288.657 327.989L285.325 300.074L285.083 300.101C290.533 295.57 295.571 291.878 299.468 289.714C314.771 281.218 318.475 261.778 318.926 259.257C324.987 266.676 327.001 278.649 326.911 290.531C326.819 302.714 324.687 314.474 323.16 320.747C322.684 320.766 322.08 320.775 321.059 320.687C319.792 320.578 318.19 320.392 316.384 320.15C312.772 319.667 308.338 318.965 304.047 318.253C299.755 317.541 295.605 316.817 292.558 316.276C291.035 316.005 289.789 315.779 288.936 315.625C288.51 315.549 288.179 315.492 287.964 315.454C287.856 315.434 287.78 315.419 287.727 315.411C287.7 315.405 287.682 315.405 287.652 315.4C287.644 315.399 287.641 315.401 287.62 315.4C287.6 315.398 287.254 315.459 287.254 315.459C287.254 315.459 287.328 316.818 287.329 316.818C287.33 316.819 287.374 316.827 287.383 316.829L287.727 315.416C287.732 315.417 287.771 315.427 287.77 315.427C287.769 315.427 287.845 316.787 287.845 316.787C287.845 316.786 287.503 316.847 287.485 316.846C287.468 316.844 287.46 316.846 287.457 316.846C287.444 316.844 287.463 316.847 287.485 316.851C287.528 316.859 287.605 316.87 287.71 316.889C287.922 316.926 288.251 316.984 288.678 317.061C289.53 317.214 290.78 317.44 292.305 317.711C295.355 318.253 299.504 318.981 303.804 319.694C308.104 320.407 312.551 321.104 316.19 321.591C318.01 321.834 319.625 322.026 320.93 322.139C322.234 322.251 323.191 322.3 323.858 322.209L324.347 322.139L324.466 321.661C325.869 316.023 327.639 305.379 328.087 294.148C335.31 317.507 343.373 330.951 351.129 347.309L352.446 346.685C344.25 329.401 335.804 315.912 328.351 290.36C328.425 277.799 326.418 264.847 319.21 257.092L318.195 256ZM185.232 266.951C185.066 267.013 184.969 267.103 184.899 267.177L184.861 267.215L184.829 267.263C181.281 272.362 177.126 278.861 174.227 284.759C172.777 287.708 171.638 290.502 171.051 292.932C170.464 295.363 170.383 297.471 171.33 299.015L171.347 299.043L171.363 299.07C176.163 305.571 176.991 305.775 179.595 308.743L180.041 308.351L176.285 317.045L176.618 317.394C177.674 318.502 178.702 319.621 179.772 320.667C175.268 340.685 170.978 346.809 169.036 359.727L170.476 359.942C172.343 347.524 176.512 341.085 180.944 321.881C188.653 329.347 196.397 336.413 200.788 354.246L202.202 353.897C196.951 332.575 186.825 325.888 178.005 316.733L186.882 296.185C187.706 301.072 188.935 305.723 190.944 309.323C202.45 329.943 204.93 344.299 202.11 380.286L203.561 380.405C206.389 344.32 203.822 329.41 192.218 308.614C188.635 302.194 187.392 291.571 186.952 282.772C186.731 278.373 186.7 274.43 186.64 271.655C186.61 270.267 186.572 269.177 186.495 268.43C186.457 268.057 186.429 267.789 186.312 267.495C186.254 267.349 186.191 267.124 185.829 266.969C185.647 266.891 185.398 266.891 185.232 266.952L185.232 266.951ZM185.092 269.633C185.125 270.244 185.164 270.77 185.183 271.68C185.243 274.436 185.273 278.41 185.495 282.846C185.696 286.859 186.13 291.252 186.806 295.496L185.785 295.05L180.422 307.463C177.96 304.701 177.119 304.398 172.572 298.247C171.979 297.274 171.925 295.53 172.47 293.276C173.015 291.018 174.111 288.296 175.533 285.404C178.123 280.134 181.8 274.455 185.092 269.633H185.092Z" fill="#E9902E"/>
<path id="path417727" opacity="0.391776" d="M186.116 265.969C184.737 266.038 178.284 277.058 173.933 285.38C170.02 292.866 169.57 299.292 170.811 298.723C173.738 302.251 176.212 305.966 179.592 309.307L176.096 316.983C177.671 318.896 178.53 319.509 179.706 320.462C175.98 338.468 171.169 345.011 169 359.825L174.054 365.162C174.054 365.162 180.315 343.611 180.856 341.501C181.665 338.342 187.045 335.283 190.092 337.445C193.007 339.514 200.363 352.802 200.775 354.187C196.482 334.526 188.405 329.918 181.11 321.642C181.095 321.416 180.682 315.265 181.027 313.376C181.377 311.451 185.248 307.083 186.779 308.452C188.165 309.692 195.274 315.717 197.135 317.766C195.469 315.24 189.202 303.741 188.526 297.43C187.525 288.086 186.301 265.979 186.323 266.106C186.278 266.009 186.208 265.964 186.116 265.969ZM328.521 290.715C328.521 299.603 326.523 310.321 324.426 322.508L291.176 317.371L285.452 299.613L288.648 327.257C286.451 327.959 255.17 337.985 248.147 347.215C241.831 355.517 239.433 367.178 239.433 367.178L236.002 391.899L259.087 393.077C259.087 393.077 252.687 361.225 259.478 350.973C266.268 340.72 288.986 329.423 288.986 329.423L289.064 327.11C289.064 327.11 288.934 327.155 288.925 327.158L289.899 322.023L325.215 326.694C327.059 323.469 327.932 320.694 328.181 318.062C333.574 332.85 337.881 343.232 344.988 356.064L352.889 347.51C344.689 332.263 331.597 303.78 328.521 290.715ZM197.141 317.773C197.361 318.107 197.501 318.288 197.535 318.27C197.468 318.153 197.332 317.985 197.141 317.773Z" fill="black"/>
</g>
</g>
</g>
</svg>
