<svg width="512" height="512" viewBox="0 0 512 512" fill="none" xmlns="http://www.w3.org/2000/svg">
<g id="Clothes5">
<g id="Clothes5_2">
<g id="g292537">
<path id="path256286" d="M319.348 256.895L316.029 266.279C316.219 291.459 304.585 308.786 295.182 327.596L247.891 400.068C261.566 401.54 271.543 402.572 283.147 400.402C310.83 395.225 335.677 378.875 354.845 357.672L340.312 325.651L355.357 315.386C350.74 292.09 333.022 275.607 319.348 256.895ZM193.482 263.614C185.803 284.415 167.386 289.443 156.6 309.593C169.217 310.152 175.197 320.666 194.749 327.499C184.412 332.834 171.994 334.724 164.639 344.992C170.651 355.285 176.016 366.913 182.909 375.391L216.891 393.219C216.788 393.372 205.942 358.106 199.568 336.364C193.891 317.002 194.915 267.274 195.561 267.048L193.482 263.614Z" fill="#FF00FF"/>
<path id="path275497" d="M195.371 307.858C195.993 336.926 209.718 364.805 216.898 393.278C227.704 397.611 233.256 399.02 247.402 400.712C262.41 373.556 291.575 336.495 305.864 307.421C278.299 318.97 226.613 333.322 195.371 307.858Z" fill="#F2F2F2"/>
<path id="path259535" d="M319.322 257.782L315.767 267.982C318.843 283.682 309.45 302.789 299.825 318.723C282.882 345.744 261.533 375.364 249 399.786L255.044 399.842C264.334 385.661 265.716 373.757 277.552 366.648C278.923 370.496 275.594 376.551 274.984 382.137C280.593 366.811 283.773 355.496 298.285 332.656C298.31 332.666 299.06 331.003 299.632 329.748L303.426 331.76C316.181 335.086 329.464 335.409 338.614 332.013C341.978 342.889 346.877 350.633 347.856 365.665L354.35 357.812L340.893 326.123C324.734 331.551 312.367 330.058 301.082 326.589C304.993 317.941 311.94 302.602 314.331 299.269C321.812 288.842 319.675 313.659 319.338 316.677C326.335 301.897 327.049 295.271 333.807 299.809C330.036 284.58 325.225 270.551 319.322 257.782V257.782ZM319.338 316.677C319.33 316.696 319.322 316.712 319.314 316.73C319.277 317.148 319.296 317.055 319.338 316.677ZM194.042 263.91C187.172 278.702 178.635 283.158 170.699 292.322C170.699 292.322 178.965 285.322 185.354 285.647C189.684 285.868 184.094 306.116 184.094 306.116C184.103 305.802 190.199 295.617 191.1 299.472C192.085 303.679 191.405 325.361 193.895 326.698L183.721 323.146L181.292 333.378C185.134 332 188.93 330.807 193.013 328.471L187.128 336.966C190.424 340.342 192.35 338.3 197.612 371.06L198.954 361.949C202.707 359.692 208.488 384.807 208.117 389.124L217.317 393.102C217.317 393.102 199.48 338.518 196.872 325.659C194.265 312.8 195.16 265.888 195.16 265.888L194.042 263.91ZM175.148 294.629C171.111 297.643 167.797 301.101 166.287 305.669L177.772 310.51C180.565 313.807 184.187 314.722 187.962 315.761C187.962 315.761 186.399 313.815 185.15 312.977C183.902 312.138 182.777 306.934 182.777 306.934C182.777 306.934 178.731 303.4 177.353 302.071C175.976 300.742 175.148 294.629 175.148 294.629ZM345.075 303.083L342.82 308.634L333.904 306.744L336.61 314.074C334.035 317.756 329.172 317.786 325.354 319.484C335.718 320.321 344.361 317.696 349.209 314.7C349.209 314.7 345.569 304.04 345.075 303.083ZM182.709 340.805L180.615 345.424L178.032 340.845C178.032 340.845 174.128 343.201 173.306 345.795C172.484 348.389 179.181 356.599 179.181 356.599C179.181 356.599 179.632 354.384 180.528 354.479C181.424 354.574 183.71 361.122 183.71 361.122C185.388 361.09 185.637 341.446 182.709 340.805ZM315.432 350.683C316.212 352.432 315.851 358.312 310.06 361.446C304.044 364.702 295.59 366.887 295.59 366.887L309.807 366.08L300.65 377.215C310.713 371.094 316.744 365.483 322.208 359.943L315.432 350.683ZM328.782 359.965C314.131 374.746 293.196 388.151 273.089 401.738C290.393 400.875 305.626 394.287 320.366 386.34C317.918 383.746 318.497 380.659 318.945 377.593C322.617 371.556 328.52 364.604 328.782 359.965Z" fill="#800080"/>
<path id="path289638" d="M195.389 307.238C195.389 307.238 195.711 316.331 197.206 325.223C198.7 334.115 217.233 393.202 217.233 393.202L223.618 396.225C220.082 389.833 205.756 338.941 208.067 340.344C209.092 340.966 220.412 345.726 221.13 344.347C221.13 344.347 209.387 334.842 209.972 330.804C210.557 326.767 216.281 328.444 216.281 328.444L213.86 318.389C206.118 315.542 200.294 311.641 195.389 307.238ZM223.618 396.225C224.013 396.938 224.276 397.107 224.364 396.579L223.618 396.225ZM306.028 307.668L293.292 312.958L287.864 323.3C287.864 323.3 292.381 321.917 291.394 322.979C291.378 322.133 280.638 332.729 271.711 337.197C273.635 336.681 292.469 324.683 288.634 332.772C285.094 340.239 253.485 389.269 253.485 389.269C252.895 391.15 296.895 325.833 299.585 319.661C300.837 316.788 306.028 307.668 306.028 307.668Z" fill="#E6E6E6"/>
<path id="ellipse254976" d="M174.506 298.978C173.515 298.987 172.597 299.246 171.867 299.78C169.745 301.335 170.77 304.046 173.235 306.549C175.7 309.052 178.671 310.4 180.793 308.846C182.915 307.292 182.636 304.003 180.171 301.499C178.554 299.856 176.397 298.96 174.506 298.978ZM342.618 306.568C341.657 306.584 340.614 306.827 339.572 307.321C336.398 308.827 334.45 312.086 335.22 314.6C335.991 317.115 338.888 317.037 342.063 315.532C345.237 314.026 347.486 311.664 346.715 309.149C346.197 307.46 344.583 306.536 342.618 306.568ZM179.3 343.484C178.234 343.488 177.21 343.896 176.408 344.734C174.509 346.719 175.01 349.813 176.997 352.324C178.984 354.836 181.703 355.813 183.603 353.828C185.502 351.843 185.433 348.199 183.446 345.687C182.298 344.235 180.76 343.479 179.3 343.484ZM315.038 356.272C314.041 356.266 312.947 356.509 311.855 357.027C308.681 358.532 306.733 361.791 307.503 364.306C308.274 366.82 311.171 366.743 314.346 365.237C317.52 363.732 319.769 361.368 318.998 358.853C318.492 357.203 316.942 356.284 315.038 356.272Z" fill="#F2F2F2" stroke="#B3B3B3" stroke-width="1.03273"/>
<path id="path259214" d="M318.641 256.012C318.512 256.036 318.393 256.096 318.296 256.185C318.2 256.274 318.131 256.389 318.097 256.516L315.439 266.4C315.41 266.506 315.407 266.617 315.429 266.724C318.752 282.66 308.196 304.872 293.521 328.56C278.847 352.249 260.158 377.424 247.593 399.644C247.535 399.748 247.504 399.866 247.504 399.985C247.503 400.105 247.534 400.222 247.592 400.326C247.65 400.431 247.735 400.518 247.837 400.581C247.939 400.643 248.055 400.678 248.174 400.682L273.685 401.721C273.837 401.727 273.987 401.684 274.112 401.597C292.32 388.951 314.282 378.016 329.081 359.787C329.18 359.665 329.234 359.514 329.236 359.357C329.238 359.2 329.187 359.048 329.091 358.923C321.259 348.619 313.186 338.281 300.111 328.91L300.455 327.152C311.606 331.129 326.126 331.917 339.737 326.211L353.764 357.978C353.841 358.143 353.98 358.271 354.15 358.335C354.32 358.399 354.509 358.394 354.676 358.321C354.842 358.248 354.974 358.112 355.042 357.943C355.109 357.774 355.109 357.586 355.039 357.417L341.078 325.81C346.226 323.473 351.225 320.28 355.795 315.751C355.874 315.672 355.933 315.576 355.967 315.469C356.001 315.363 356.009 315.249 355.99 315.139C353.686 302.111 346.226 289.733 338.498 279.43C330.77 269.128 322.733 260.861 319.33 256.284C319.253 256.179 319.147 256.097 319.025 256.049C318.903 256.001 318.77 255.988 318.641 256.012L318.641 256.012ZM319.094 258.181C322.856 263.027 330.072 270.518 337.383 280.263C344.971 290.38 352.198 302.477 354.515 315.011C337.747 331.379 315.429 331.354 300.157 325.656C300.063 325.621 299.962 325.607 299.861 325.615C299.76 325.623 299.663 325.653 299.575 325.702C299.487 325.751 299.41 325.819 299.351 325.901C299.292 325.983 299.251 326.076 299.232 326.175L298.661 329.049C298.635 329.181 298.648 329.318 298.699 329.443C298.749 329.568 298.834 329.675 298.944 329.753C311.881 338.933 319.815 349.063 327.606 359.304C313.117 376.898 291.665 387.75 273.526 400.317L249.434 399.341C261.923 377.472 280.192 352.715 294.704 329.29C309.349 305.65 320.126 283.444 316.796 266.719L319.094 258.181ZM193.581 262.55C193.442 262.559 193.31 262.608 193.2 262.693C193.09 262.777 193.008 262.892 192.964 263.023C189.699 272.665 184.709 277.421 178.366 283.219C172.022 289.016 164.364 295.803 156.104 309.274C156.041 309.375 156.006 309.491 156.001 309.609C155.995 309.727 156.021 309.845 156.074 309.951C156.127 310.057 156.206 310.148 156.304 310.215C156.402 310.282 156.515 310.323 156.633 310.333C156.633 310.333 168.048 311.421 174.454 317.751C176.823 320.092 179.942 321.817 183.064 323.287L180.381 333.274C180.382 333.289 180.384 333.305 180.386 333.32C174.866 335.402 169.169 337.961 164.205 344.624C164.13 344.723 164.083 344.841 164.07 344.965C164.056 345.089 164.076 345.214 164.128 345.328C171.613 361.722 175.273 368.369 182.807 375.526C182.843 375.561 182.882 375.592 182.925 375.619C193.8 382.159 206.129 389.507 216.46 393.265C216.583 393.31 216.716 393.319 216.844 393.292C216.972 393.265 217.09 393.202 217.184 393.111C217.278 393.019 217.344 392.903 217.375 392.776C217.406 392.649 217.401 392.516 217.359 392.391C217.359 392.391 213.039 379.41 208.379 364.393C203.72 349.376 198.719 332.282 197.384 324.253C194.693 308.064 195.837 291.711 195.837 291.711C195.838 291.693 195.838 291.676 195.837 291.659L195.76 266.215C195.76 266.112 195.737 266.01 195.693 265.917L194.249 262.941C194.189 262.817 194.093 262.714 193.974 262.644C193.855 262.575 193.718 262.542 193.581 262.55V262.55ZM193.586 264.771L194.367 266.38L194.444 291.664L194.45 291.613C194.45 291.613 193.286 308.078 196.012 324.479C197.386 332.745 202.384 349.776 207.048 364.809C211.458 379.023 215.116 389.999 215.55 391.307C205.719 387.506 194.125 380.725 183.737 374.478C176.458 367.552 172.893 361.096 165.598 345.148C171.154 337.892 177.526 335.614 183.809 333.361C187.927 331.885 192.004 330.409 195.627 327.481C195.728 327.398 195.803 327.289 195.845 327.165C195.887 327.042 195.893 326.909 195.863 326.782C195.833 326.655 195.768 326.539 195.676 326.447C195.583 326.355 195.466 326.292 195.339 326.263C195.339 326.263 191.991 325.5 187.808 323.919C183.626 322.338 178.635 319.925 175.431 316.759C169.095 310.498 159.633 309.361 157.908 309.177C165.826 296.545 173.118 289.903 179.307 284.247C185.316 278.754 190.216 273.665 193.586 264.771L193.586 264.771ZM184.349 323.873C185.347 324.31 186.378 324.863 187.32 325.219C190.756 326.518 192.515 326.898 193.519 327.147C190.406 329.336 186.986 330.743 183.336 332.051C182.9 332.207 182.441 332.467 182 332.626L184.349 323.873Z" fill="#1A1A1A"/>
<path id="ellipse259904" d="M172.241 299.544C172.111 299.616 171.986 299.695 171.867 299.781C169.745 301.335 170.642 304.01 173.108 306.514C175.573 309.017 178.672 310.401 180.793 308.846C181.337 308.448 181.74 307.918 181.976 307.292C179.789 308.524 176.892 307.282 174.586 304.942C172.83 303.158 171.584 301.286 172.241 299.544ZM345.637 307.522C346.082 309.993 343.956 312.321 340.988 313.73C338.727 314.803 336.549 315.363 335.12 314.169C335.146 314.317 335.179 314.46 335.221 314.601C335.991 317.116 338.812 317.148 341.987 315.642C345.161 314.137 347.486 311.664 346.715 309.15C346.518 308.506 346.151 307.951 345.637 307.522ZM178.043 343.694C177.428 343.898 176.872 344.252 176.408 344.734C174.509 346.719 174.835 350.129 176.822 352.64C178.809 355.151 181.703 355.813 183.603 353.829C183.631 353.798 183.778 353.255 183.805 353.223C182.101 354.33 179.33 353.761 177.647 350.794C175.7 347.743 176.082 345.493 178.043 343.694ZM317.919 357.226C318.363 359.697 316.239 362.025 313.271 363.434C311.01 364.507 308.832 365.068 307.403 363.875C307.429 364.022 307.462 364.166 307.504 364.306C308.274 366.821 311.095 366.854 314.27 365.348C317.444 363.842 319.769 361.37 318.998 358.855C318.801 358.211 318.432 357.655 317.919 357.226Z" fill="#B3B3B3"/>
<path id="path284938" d="M318.456 265.177L317.932 265.634C322.324 270.671 329.253 278.803 335.506 287.722C341.701 296.556 347.177 306.155 348.922 314.245C330.39 325.216 316.006 325.219 299.242 320.984L299.073 321.662C316.01 325.942 330.734 325.936 349.534 314.723L349.75 314.595L349.698 314.353C347.97 306.026 342.354 296.274 336.077 287.321C329.799 278.367 322.853 270.22 318.456 265.177L318.456 265.177ZM195.22 270.774C191.824 279.506 185.894 284.913 180.042 289.762C174.189 294.612 168.402 298.896 165.443 305.419L165.248 305.841L165.711 305.908C172.541 306.887 176.089 310.269 179.831 313.654C183.573 317.039 187.51 320.421 194.902 321.123L194.969 320.429C187.762 319.745 184.032 316.512 180.299 313.135C176.674 309.855 172.935 306.516 166.302 305.399C169.215 299.277 174.723 295.07 180.484 290.297C186.354 285.433 192.407 279.928 195.868 271.031L195.22 270.774ZM194.814 287.125C194.689 287.184 194.621 287.25 194.511 287.346C194.401 287.443 194.27 287.565 194.12 287.717C193.821 288.019 193.444 288.43 193.01 288.93C192.142 289.929 191.053 291.276 189.967 292.78C187.796 295.786 185.625 299.375 185.295 302.13L185.984 302.217C186.278 299.76 188.389 296.159 190.533 293.191C191.604 291.707 192.681 290.369 193.534 289.387C193.961 288.896 194.33 288.492 194.614 288.205C194.756 288.061 194.878 287.95 194.969 287.871C195.059 287.791 195.137 287.744 195.107 287.758L194.814 287.125ZM306.346 307.049C297.738 311.504 275.523 318.114 252.78 320.305C230.038 322.497 206.783 320.246 195.909 307.311L195.375 307.758C206.536 321.035 230.015 323.199 252.847 320.999C275.679 318.799 297.879 312.215 306.67 307.666L306.346 307.049ZM195.534 316.62L194.999 317.067C205.153 329.146 225.319 332.097 245.903 330.945C266.486 329.794 287.519 324.513 299.525 319.904L299.279 319.257C287.36 323.832 266.353 329.105 245.862 330.252C225.371 331.398 205.431 328.392 195.534 316.62H195.534ZM298.204 320.316C288.311 326.786 284.133 331.896 270.267 337.273L270.519 337.921C284.48 332.507 288.757 327.329 298.584 320.902L298.204 320.316ZM196.12 321.225L195.585 321.667C203.432 331.13 211.499 340.248 221.98 344.762L222.258 344.12C211.971 339.689 203.957 330.676 196.12 321.225ZM294.837 329.63L294.364 330.138C303.373 338.487 315.309 349.029 321.556 359.376C307.254 374.654 288.938 384.498 266.715 400.22L267.116 400.79C289.403 385.024 307.845 375.164 322.276 359.659L322.45 359.468L322.317 359.242C316.012 348.662 303.9 338.029 294.837 329.63L294.837 329.63ZM197.585 332.328C196.82 332.864 194.875 333.719 192.455 334.708C190.035 335.697 187.115 336.844 184.287 338.049C181.46 339.254 178.727 340.519 176.664 341.76C175.633 342.381 174.771 342.992 174.141 343.606C173.51 344.219 173.092 344.839 173.051 345.508C173.033 345.789 173.129 346.036 173.272 346.428C173.415 346.82 173.621 347.317 173.889 347.908C174.424 349.091 175.193 350.649 176.125 352.452C177.987 356.059 180.499 360.64 183.059 365.097C185.618 369.554 188.224 373.886 190.291 376.996C191.324 378.551 192.218 379.802 192.918 380.62C193.267 381.029 193.565 381.328 193.838 381.52C193.974 381.616 194.106 381.693 194.275 381.72C194.443 381.747 194.672 381.673 194.789 381.525L194.244 381.093C194.27 381.061 194.375 381.03 194.383 381.032C194.39 381.033 194.327 381.016 194.239 380.955C194.061 380.83 193.778 380.556 193.447 380.168C192.785 379.393 191.897 378.155 190.872 376.611C188.821 373.524 186.215 369.202 183.66 364.753C181.106 360.304 178.603 355.727 176.747 352.134C175.818 350.337 175.053 348.784 174.526 347.62C174.263 347.039 174.057 346.556 173.925 346.191C173.792 345.827 173.745 345.542 173.745 345.554C173.769 345.163 174.056 344.657 174.624 344.105C175.192 343.552 176.02 342.961 177.024 342.357C179.032 341.148 181.745 339.886 184.56 338.687C187.374 337.487 190.295 336.348 192.722 335.356C195.15 334.364 197.065 333.543 197.986 332.899L197.585 332.328ZM199.291 335.217L198.592 335.243C198.968 345.085 199.395 356.346 197.667 366.825L198.351 366.938C200.095 356.362 199.667 345.06 199.291 335.218V335.217ZM282.239 346.34C277.26 360.37 276.831 372.416 275.366 383.622L276.06 383.715C277.531 372.462 277.951 360.5 282.891 346.577L282.239 346.34Z" fill="#1A1A1A"/>
</g>
</g>
</g>
</svg>
