<svg width="512" height="512" viewBox="0 0 512 512" fill="none" xmlns="http://www.w3.org/2000/svg">
<g id="Clothes1">
<g id="Clothes1_2">
<g id="g193727">
<path id="path112131" d="M347.495 355.171C326.071 381.184 287.129 395.236 251.813 394.222C220.121 393.313 192.006 379.678 171.106 361.562C172.915 342.616 175.243 323.639 183.802 304.293C176.62 300.349 175.45 294.821 179.158 288.008C174.662 273.956 178.657 269.32 186.404 268.846C191.119 284.683 215.847 322.322 227.926 346.93C256.063 316.357 282.925 283.052 317.756 266.809C327.186 266.102 355.231 271.563 344.509 288.387L348.071 313.928C351.477 331.753 346.298 332.034 340.273 330.585C342.68 338.78 347.606 349.854 347.495 355.171Z" fill="#0274A4"/>
<path id="path117000" d="M185.786 267.815C177.445 269.06 175.886 276.244 179.447 287.912C174.062 297.394 178.927 301.5 184.128 305.431C173.626 329.067 175.752 342.526 171.157 360.901C174.495 365.009 178.197 366.992 181.731 369.955C183.102 351.139 182.484 336.447 189.52 318.235C192.368 308.641 209.512 333.803 209.436 333.578C207.514 323.387 199.544 311.863 193.038 300.852C186.557 289.883 190.476 286.627 193.856 286.269L185.786 267.815ZM299.305 284.255C276.977 302.43 260.132 320.474 241.812 342.261C241.905 342.006 242.013 341.748 242.073 341.502C242.541 339.592 241.622 338.895 240.447 338.893C239.41 338.891 238.175 339.43 237.519 340.155C235.847 342.005 233.198 345.641 233.216 345.629L236.875 348.543L232.105 354.747L232.463 358.865L233.819 362.618C234.404 364.048 278.722 315.33 279.366 313.59C286.498 305.992 301.282 303.135 313.79 306.624C329.845 308.971 340.959 328.573 339.979 328.749C341.875 330.062 343.602 332.393 346.149 329.749C351.995 319.039 333.863 297.764 322.469 295.499L331.393 296.71C315.017 281.52 329.497 280.776 338.828 284.577C343.493 287.024 343.738 286.393 344.819 282.043C342.303 274.276 319.24 268.453 299.305 284.255ZM217.662 338.278C216.488 338.288 215.512 338.996 215.765 340.887C216.21 344.214 219.491 348.817 219.491 348.817L224.205 345.626C224.222 345.64 222.101 341.711 220.636 339.692C220.043 338.874 218.765 338.269 217.662 338.278ZM301.842 340.668C293.694 340.796 282.426 362.372 282.596 367.012C282.775 371.915 277.016 392.382 277.016 392.382C293.174 390.442 310.059 383.071 324.825 374.57C325.279 369.309 320.537 358.582 317.967 347.701L312.989 357.605C308.758 356.804 306.852 344.546 306.594 344.073C305.261 341.64 303.627 340.64 301.842 340.668Z" fill="#02597D"/>
<path id="path134654" d="M202.031 300.131C223.239 307.284 248.499 304.658 275.979 296.68C256.217 313.87 242.03 330.969 227.66 348.071L202.031 300.131Z" fill="white"/>
<path id="path146632" d="M270.8 298.26C270.8 298.26 268.827 299.725 265.939 302.575C264.019 304.47 246.173 304.78 244.42 306.539C243.346 307.616 259.25 309.811 256.115 312.502C253.632 314.634 231.02 339.423 229.672 340.052C228.324 340.681 221.035 333.815 221.035 333.815L228.132 346.948C244.253 328.672 260.283 310.852 275.495 297.091L270.8 298.26Z" fill="#CDCDCD"/>
<path id="path168770" d="M276.683 295.608C264.763 300.436 249.244 303.008 235.131 303.554C221.018 304.1 208.281 302.593 202.048 299.426L201.716 300.085C208.223 303.393 220.976 304.839 235.158 304.29C249.339 303.742 264.919 301.173 276.961 296.295L276.683 295.608ZM271.469 300.642C259.253 304.773 244.501 306.683 231.689 306.881C225.284 306.98 219.36 306.65 214.488 305.965C209.616 305.279 205.787 304.22 203.614 302.927L203.237 303.565C205.539 304.934 209.386 305.943 214.178 306.635C214.326 308.622 214.394 310.173 214.548 312.084C213.128 311.817 211.639 311.587 210.442 311.238C210.405 309.474 210.336 307.969 210.136 305.528L209.4 305.588C209.594 307.951 209.656 309.403 209.695 311.086C209.257 310.947 208.534 310.915 208.135 310.764L207.878 311.456C208.361 311.639 209.2 311.68 209.733 311.844C209.733 311.898 209.744 311.958 209.744 312.013L210.486 312.002C210.486 312 210.486 311.999 210.486 311.996C211.711 312.345 213.172 312.588 214.603 312.852C220.302 313.903 226.9 314.543 234.024 314.51C238.451 314.491 241.347 313.817 245.395 313.496C245.395 313.501 245.395 313.507 245.395 313.513L246.131 313.551C246.133 313.517 246.129 313.465 246.131 313.431C248.166 313.259 250.131 313.15 251.917 312.918C251.916 312.929 251.919 312.946 251.917 312.956L252.648 313.054C252.657 312.994 252.646 312.915 252.654 312.853C254.82 312.556 258.22 312.582 259.825 312.214L259.662 311.495C259.43 311.548 258.86 311.536 258.615 311.587C258.799 309.511 258.733 306.719 258.893 304.825L258.157 304.765C257.986 306.784 258.068 309.66 257.878 311.653C256.612 311.905 254.241 311.901 252.681 312.116C252.851 310.056 252.788 307.603 252.888 305.779L252.757 305.773C259.31 304.754 265.806 303.339 271.704 301.345L271.469 300.642ZM252.146 305.915C252.054 307.836 252.117 310.245 251.944 312.182C250.16 312.416 248.176 312.526 246.131 312.7C246.217 310.819 246.319 308.448 246.153 306.723L245.417 306.794C245.577 308.458 245.482 310.883 245.394 312.765C243.025 312.955 241.295 313.262 238.741 313.354C238.742 311.443 238.744 309.068 238.866 307.301L238.13 307.246C238.004 309.077 238.005 311.498 238.005 313.42C236.467 313.468 235.573 313.767 234.018 313.774C233.168 313.777 232.401 313.669 231.553 313.66C231.451 311.799 231.652 309.558 231.559 307.612C231.611 307.611 231.648 307.617 231.7 307.617C238.214 307.517 245.215 306.963 252.146 305.916L252.146 305.915ZM214.925 306.723C216.156 306.888 217.854 306.832 219.2 306.952L219.053 306.957C219.138 309.024 219.357 311.07 219.533 313.109C217.863 312.93 216.799 312.501 215.301 312.242C215.136 310.282 215.07 308.721 214.925 306.723L214.925 306.723ZM219.795 306.984C223.306 307.276 226.755 307.604 230.822 307.568C230.919 309.412 230.718 311.662 230.817 313.627C228.929 313.597 227.148 313.477 225.319 313.376C225.305 311.428 225.224 309.293 225.145 307.399L224.403 307.431C224.482 309.316 224.563 311.425 224.578 313.343C223.156 313.256 221.623 313.276 220.275 313.141C220.098 311.081 219.88 309.03 219.795 306.984L219.795 306.984Z" fill="#4D4D4D"/>
<path id="path104747" d="M318.704 266.093C316.687 266.264 314.895 266.674 313.463 267.369C310.521 268.795 303.449 273.627 294.533 280.479C285.617 287.332 274.946 296.169 265.148 305.474C254.623 315.47 245.023 325.914 238.131 333.844C234.684 337.809 231.917 341.144 230.048 343.486C229.147 344.615 228.477 345.482 228.014 346.115L187.58 272.61L186.457 268.634C186.444 268.583 186.426 268.534 186.402 268.487C186.232 268.166 186.089 268.16 185.993 268.116C185.897 268.072 185.816 268.045 185.732 268.023C185.562 267.98 185.372 267.951 185.148 267.931C184.699 267.889 184.121 267.888 183.457 267.969C182.13 268.131 180.466 268.631 179.078 269.894C177.691 271.156 176.633 273.178 176.498 276.155C176.371 278.968 177.221 282.831 179.105 287.695C178.957 287.779 178.756 287.748 178.631 287.858C178.254 288.192 177.938 288.637 177.649 289.167C177.072 290.228 176.618 291.651 176.417 293.23C176.014 296.39 176.662 300.268 179.847 302.589C180.742 303.241 181.964 304.233 182.994 304.989C178.937 311.635 176.405 322.005 174.519 332.481C172.612 343.07 171.365 353.717 170.014 360.371C169.976 360.563 170.016 360.761 170.124 360.924C170.232 361.086 170.401 361.199 170.592 361.238C170.784 361.278 170.983 361.24 171.147 361.132C171.31 361.025 171.425 360.857 171.465 360.665C172.841 353.885 174.073 343.272 175.969 332.743C177.834 322.39 180.393 312.201 184.188 305.905C188.789 309.341 193.906 313.435 197.55 318.879C197.604 318.96 197.673 319.029 197.754 319.083C197.835 319.136 197.925 319.174 198.021 319.193C198.116 319.211 198.214 319.211 198.309 319.192C198.404 319.173 198.494 319.135 198.575 319.081C198.656 319.027 198.725 318.958 198.779 318.877C198.832 318.796 198.87 318.705 198.888 318.61C198.907 318.515 198.907 318.417 198.888 318.322C198.869 318.227 198.831 318.136 198.777 318.056C193.75 310.545 185.782 305.086 180.714 301.395C178.087 299.481 177.524 296.234 177.884 293.416C178.064 292.007 178.483 290.723 178.947 289.871C179.179 289.445 179.427 289.13 179.613 288.966C179.798 288.802 179.863 288.825 179.825 288.818C179.95 288.829 180.076 288.808 180.191 288.756C180.305 288.705 180.405 288.625 180.48 288.524C180.44 288.626 180.423 288.736 180.431 288.846C197.077 311.776 206.273 322.059 214.98 347.44C215.011 347.533 215.06 347.618 215.124 347.691C215.188 347.764 215.266 347.824 215.353 347.867C215.44 347.91 215.535 347.935 215.632 347.942C215.729 347.948 215.826 347.935 215.918 347.904C216.103 347.84 216.255 347.706 216.341 347.53C216.427 347.354 216.44 347.151 216.376 346.966C207.605 321.398 198.248 310.869 181.63 287.979C181.517 287.827 181.349 287.725 181.163 287.694C180.976 287.662 180.784 287.704 180.627 287.809C178.533 282.642 177.856 278.889 177.977 276.22C178.097 273.552 178.978 271.979 180.071 270.985C181.164 269.99 182.523 269.571 183.632 269.436C184.187 269.368 184.679 269.372 185.012 269.403C185.076 269.409 185.097 269.417 185.148 269.426L186.179 273.096C186.195 273.149 186.217 273.2 186.244 273.249L227.305 347.888C227.325 347.936 227.348 347.991 227.349 347.992C227.35 347.993 227.625 348.236 227.627 348.237C227.628 348.238 227.925 348.313 227.927 348.313C227.929 348.313 228.078 348.308 228.129 348.297C228.254 348.264 228.368 348.198 228.46 348.107C228.551 348.017 228.618 347.903 228.652 347.779C228.653 347.776 228.658 347.77 228.658 347.767C228.652 347.784 228.656 347.781 228.686 347.735C228.759 347.614 228.913 347.388 229.133 347.086C229.573 346.482 230.274 345.568 231.2 344.408C233.052 342.087 235.81 338.766 239.244 334.815C246.112 326.913 255.691 316.5 266.169 306.548C275.917 297.291 286.553 288.478 295.434 281.652C304.314 274.826 311.526 269.951 314.107 268.699C316.492 267.543 320.626 267.216 325.14 267.723C329.654 268.23 334.568 269.534 338.627 271.443C342.686 273.351 345.848 275.876 347.015 278.625C347.598 280 347.721 281.422 347.244 282.983C346.818 284.376 345.679 285.925 344.113 287.526C338.671 282.2 333.156 279.272 327.621 278.505C321.794 277.698 315.992 279.08 310.251 281.777C298.769 287.172 287.433 297.817 276.133 307.355C276.038 307.457 275.974 307.584 275.947 307.721C275.191 308.295 274.518 308.747 273.477 309.722C271.884 311.215 269.973 313.137 267.871 315.34C263.666 319.745 258.683 325.268 253.936 330.665C249.189 336.061 244.679 341.331 241.42 345.221C239.791 347.165 238.477 348.763 237.597 349.867C237.157 350.419 236.83 350.846 236.615 351.143C236.508 351.292 236.434 351.397 236.365 351.525C236.348 351.557 236.325 351.589 236.305 351.639C236.293 351.665 236.282 351.696 236.272 351.738C236.261 351.78 236.244 351.915 236.244 351.918C236.244 351.92 236.336 352.309 236.337 352.31C236.338 352.312 236.809 352.675 236.811 352.676C236.813 352.676 237.095 352.692 237.171 352.676C237.247 352.659 237.287 352.639 237.324 352.621C237.417 352.576 237.5 352.511 237.567 352.431C237.634 352.351 237.683 352.258 237.711 352.158C237.736 352.118 237.754 352.095 237.815 352.011C238 351.754 238.32 351.332 238.753 350.789C239.618 349.703 240.929 348.109 242.554 346.17C245.803 342.291 250.31 337.028 255.048 331.641C259.787 326.254 264.758 320.74 268.939 316.36C271.029 314.169 272.925 312.264 274.485 310.802C276.046 309.341 277.31 308.315 277.97 307.95C281.855 305.801 289.023 302.382 296.693 300.38C304.362 298.379 312.493 297.829 318.355 301.149C324.575 304.673 336.152 313.451 338.986 329.039C339.004 329.141 339.043 329.238 339.101 329.323C339.164 329.417 339.27 329.386 339.335 329.476C341.595 336.688 345.36 346.864 346.534 355.272C346.562 355.466 346.665 355.64 346.822 355.758C346.978 355.876 347.175 355.926 347.369 355.899C347.562 355.871 347.737 355.768 347.855 355.612C347.972 355.455 348.023 355.258 347.996 355.065C346.868 346.99 343.57 337.783 341.299 330.752C342.044 331.231 342.678 332.116 343.491 332.175C345.12 332.295 346.727 331.541 347.925 330.119C350.14 327.491 350.785 322.448 348.858 315.874C348.945 315.763 348.999 315.629 349.013 315.487C349.026 315.346 348.999 315.204 348.934 315.078C348.851 314.929 348.766 314.882 348.683 314.734C348.694 314.627 348.697 314.558 348.694 314.483C348.686 314.298 348.66 314.053 348.623 313.72C348.549 313.053 348.427 312.066 348.263 310.862C347.936 308.454 347.458 305.171 346.971 301.858C346.04 295.526 345.147 289.65 345.062 289.091C345.168 288.928 345.205 288.73 345.166 288.54C346.86 286.81 348.143 285.093 348.656 283.414C349.229 281.536 349.081 279.704 348.378 278.047C346.971 274.734 343.492 272.099 339.254 270.107C335.016 268.114 329.978 266.781 325.303 266.256C322.966 265.994 320.721 265.922 318.704 266.093L318.704 266.093ZM327.419 279.967C332.765 280.707 338.122 283.485 343.545 288.949C343.58 289.174 344.552 295.563 345.509 302.071C345.995 305.381 346.47 308.666 346.796 311.064C346.872 311.623 346.907 311.927 346.965 312.378C341.678 303.901 336.418 298.878 330.375 296.601C323.585 294.042 315.944 294.131 306.22 293.776C306.025 293.769 305.835 293.84 305.692 293.973C305.549 294.105 305.464 294.289 305.457 294.485C305.45 294.68 305.521 294.87 305.653 295.013C305.786 295.156 305.97 295.24 306.165 295.248C315.924 295.605 323.424 295.556 329.856 297.98C336.161 300.356 341.568 305.231 347.297 315.318C349.582 322.159 348.656 326.962 346.796 329.17C345.844 330.299 344.715 330.784 343.6 330.703C342.592 330.629 341.561 329.893 340.638 328.707C340.59 328.552 340.51 328.318 340.464 328.167C340.433 328.072 340.383 327.984 340.318 327.909C340.252 327.835 340.172 327.774 340.082 327.73C336.793 312.269 325.381 303.434 319.085 299.867C312.662 296.229 304.17 296.903 296.322 298.951C290.748 300.406 285.95 302.467 281.94 304.388C291.649 296.052 301.33 287.599 310.877 283.114C316.448 280.496 321.95 279.209 327.419 279.967H327.419ZM348.159 314.02C348.266 314.055 348.373 314.091 348.372 314.091C348.371 314.09 348.491 314.192 348.519 314.227C348.575 314.298 348.585 314.331 348.595 314.352C348.514 314.301 348.423 314.265 348.328 314.249C348.273 314.152 348.215 314.115 348.159 314.02ZM228.641 347.331C228.658 347.369 228.679 347.419 228.679 347.418C228.679 347.416 228.691 347.526 228.691 347.576C228.688 347.492 228.672 347.409 228.641 347.331L228.641 347.331ZM236.822 351.241C236.891 351.225 237.167 351.242 237.165 351.241C237.165 351.241 237.19 351.261 237.193 351.264C237.029 351.212 236.851 351.22 236.691 351.286C236.719 351.272 236.753 351.258 236.822 351.242L236.822 351.241ZM281.924 361.216C281.729 361.229 281.547 361.32 281.418 361.467C281.289 361.614 281.224 361.806 281.237 362.001C281.268 362.47 281.462 364.365 281.744 367.084C282.026 369.803 282.395 373.283 282.758 376.716C283.485 383.581 284.198 390.257 284.198 390.257C284.219 390.452 284.317 390.63 284.469 390.752C284.621 390.875 284.816 390.932 285.011 390.912C285.205 390.89 285.383 390.793 285.506 390.641C285.629 390.488 285.686 390.293 285.665 390.099C285.665 390.099 284.952 383.427 284.225 376.563C283.862 373.131 283.498 369.649 283.216 366.932C282.935 364.214 282.729 362.202 282.709 361.903C282.696 361.708 282.606 361.526 282.459 361.397C282.311 361.269 282.119 361.203 281.924 361.216Z" fill="#02425C"/>
<path id="path104966" d="M306.978 297.544C306.788 297.579 306.618 297.714 306.52 297.866L307.142 298.264C307.158 298.239 307.13 298.27 307.109 298.275C307.087 298.278 307.11 298.264 307.174 298.298C307.303 298.361 307.557 298.576 307.85 298.919C308.438 299.606 309.22 300.792 310.108 302.328C311.884 305.4 314.102 309.882 316.293 314.735C318.483 319.588 320.648 324.815 322.325 329.4C324.001 333.985 325.186 337.949 325.422 340.166L326.088 340.09C325.43 340.493 324.798 341.001 324.157 341.491C324.331 341.205 324.354 340.907 324.315 340.493C324.271 340.025 324.153 339.435 323.977 338.726C323.625 337.309 323.032 335.422 322.264 333.229C320.729 328.843 318.5 323.231 316.162 317.773C313.823 312.315 311.374 307.012 309.388 303.239C308.395 301.352 307.523 299.852 306.82 298.887C306.468 298.404 306.166 298.055 305.86 297.84C305.707 297.732 305.544 297.648 305.336 297.649C305.128 297.649 304.913 297.784 304.807 297.949L305.429 298.352C305.437 298.338 305.366 298.385 305.336 298.385C305.306 298.385 305.35 298.386 305.434 298.445C305.602 298.563 305.89 298.871 306.22 299.323C306.879 300.228 307.749 301.711 308.734 303.582C310.704 307.324 313.153 312.621 315.486 318.067C317.819 323.513 320.039 329.113 321.567 333.474C322.33 335.654 322.921 337.524 323.263 338.901C323.434 339.589 323.54 340.154 323.579 340.558C323.617 340.963 323.522 341.202 323.568 341.147L324.07 341.567C322.775 342.567 321.48 343.568 320.263 344.938C313.798 352.214 308.464 364.78 304.878 384.03L305.609 384.166C309.181 364.99 314.496 352.539 320.814 345.429C327.132 338.318 334.404 336.495 342.138 338.508L342.323 337.793C336.666 336.321 331.185 336.998 326.153 340.062C325.896 337.681 324.698 333.747 323.017 329.149C321.333 324.542 319.161 319.298 316.963 314.43C314.766 309.562 312.544 305.073 310.746 301.962C309.847 300.407 309.062 299.198 308.412 298.439C308.087 298.06 307.805 297.789 307.496 297.638C307.341 297.562 307.168 297.51 306.978 297.545L306.978 297.544ZM175.222 335.213L174.873 335.862C179.076 338.106 182.532 342.262 185.087 348.744C187.643 355.225 189.287 364.027 189.859 375.489L190.601 375.45C190.026 363.937 188.375 355.064 185.775 348.471C183.175 341.878 179.611 337.556 175.222 335.213V335.213ZM174.764 337.274L174.382 337.907C182.056 342.526 187.12 353.961 188.48 374.632L189.216 374.583C187.849 353.81 182.774 342.096 174.764 337.274V337.274ZM337.251 339.08C331.679 339.124 326.448 341.558 321.839 346.769C315.694 353.718 310.603 365.567 306.967 383.337L307.692 383.484C311.314 365.784 316.393 354.042 322.396 347.255C328.398 340.467 335.272 338.591 342.743 340.536L342.929 339.816C341.005 339.315 339.109 339.065 337.251 339.08V339.08Z" fill="#02425C"/>
<path id="path122538" d="M227.047 351.11C224.484 347.246 219.253 338.076 218.415 343.573C217.944 346.662 223.541 353.711 223.541 353.711L221.851 358.66C221.129 365.257 219.358 372.693 221.327 377.138C221.697 379.265 221.712 381.576 223.054 383.196L225.09 382.165C224.148 380.729 223.582 379.544 223.246 376.533L224.037 376.204C224.175 370.92 222.945 367.145 224.575 359.909C224.681 361.193 226.517 360.105 227.627 359.78C230.78 362.938 231.184 370.072 232.613 375.724L233.554 376.869L233.458 381.168L235.229 381.932L236.016 375.455C236.756 368.293 233.554 364.423 232.13 359.067C234.646 359.418 232.658 356.109 232.505 354.292L240.056 343.98C239.255 338.611 236.018 343.942 233.591 345.718L229.743 350.805L227.047 351.11Z" fill="white"/>
<path id="path128823" d="M235.138 344.528C233.411 346.086 230.19 350.714 230.19 350.714C230.19 350.714 231.624 353.704 231.94 353.854C232.256 354.004 232.23 353.676 232.23 353.676L230.848 350.5C230.848 350.5 235.955 344.188 236.624 344.062C237.832 343.096 238.945 343.923 239.122 344.902C239.122 344.902 240.949 342.419 239.168 341.871C236.845 341.896 236.105 343.629 235.138 344.528ZM218.842 342.612C218.057 342.628 218.37 343.652 218.815 345.068C219.181 347.524 221.198 351.417 223.407 353.656C223.191 354.298 222.272 354.966 222.229 355.865C221.929 356.972 221.686 358.248 222.317 359.287C222.433 360.282 221.821 361.229 221.946 362.236C221.99 363.124 223.104 363.752 223.886 363.382C224.539 362.814 224.435 361.836 224.506 361.051C224.904 359.965 223.736 359.73 225.802 360.174C226.975 360.422 226.874 360.309 227.702 359.297C227.733 359.26 227.76 359.225 227.785 359.191C228.008 359.576 229.473 362.141 230.08 364.315C230.738 366.67 232.963 375.439 232.963 375.439L233.78 376.612L233.47 381.233L234.468 381.23L234.698 375.142C234.698 375.142 232.209 368.937 231.46 364.569C230.711 360.201 232.151 359.507 232.151 359.507L232.112 359.129C232.112 359.129 230.455 358.899 228.684 358.458C227.931 358.271 227.648 358.362 227.571 358.528C227.325 358.465 227.009 358.424 226.777 358.3C226.161 357.86 225.547 357.154 225.715 356.346C225.321 356.836 224.746 356.601 224.544 356.053C224.2 354.899 224.761 353.741 224.799 352.584C224.378 352.977 223.998 352.385 223.76 352.095C222.451 350.682 221.162 349.193 220.402 347.399C219.691 345.897 219.579 344.217 219.122 342.641C219.017 342.62 218.924 342.61 218.843 342.612L218.842 342.612Z" fill="#CDCDCD"/>
<path id="path105806" d="M239.325 341.218C238.937 341.137 238.548 341.247 238.147 341.43C237.745 341.613 237.321 341.884 236.892 342.205C236.035 342.845 235.148 343.689 234.422 344.441C233.695 345.192 233.145 345.828 232.927 346.131C231.752 347.766 230.845 348.921 229.726 350.467C229.684 350.459 229.675 350.418 229.622 350.418C227.695 350.418 225.51 351.583 223.863 353.194C223.804 353.252 223.78 353.33 223.721 353.39C222.74 352.317 221.155 350.253 219.969 347.996C219.318 346.756 218.81 345.523 218.633 344.544C218.545 344.055 218.54 343.633 218.616 343.312C218.693 342.991 218.839 342.779 219.085 342.619C219.706 342.218 220.155 342.273 220.722 342.647C221.288 343.02 221.901 343.766 222.521 344.714C223.761 346.609 225.042 349.266 226.601 351.253L227.184 350.8C225.703 348.912 224.427 346.273 223.143 344.31C222.501 343.329 221.862 342.512 221.131 342.031C220.399 341.549 219.506 341.466 218.682 341.998C218.27 342.264 218.013 342.679 217.902 343.143C217.791 343.608 217.807 344.126 217.908 344.681C218.108 345.791 218.643 347.063 219.315 348.341C220.562 350.714 222.199 352.873 223.269 354.013C222.023 355.494 221.147 357.209 221.523 358.888L221.556 359.035L221.687 359.117C221.779 359.174 221.778 359.189 221.862 359.243C221.151 361.786 220.415 365.109 220.056 368.317C219.696 371.545 219.696 374.637 220.547 376.738V376.744C220.622 376.916 220.806 376.943 220.945 377.033C221.123 379.316 221.304 381.757 222.8 383.446L222.979 383.653L223.23 383.533C223.906 383.21 224.715 382.898 225.319 382.666L225.739 382.503L225.499 382.121C224.523 380.562 224.019 379.284 223.787 378.352C223.67 377.886 223.625 377.505 223.617 377.229C223.617 377.204 223.623 377.209 223.623 377.185C223.716 377.141 223.815 377.104 223.895 377.033C224.02 376.923 224.127 376.748 224.135 376.547C224.42 369.812 223.837 364.301 225.057 360.584C225.236 360.684 225.405 360.825 225.597 360.841C225.919 360.866 226.231 360.78 226.519 360.639C226.821 360.489 227.08 360.193 227.358 359.951C230.347 364.056 230.848 369.921 232.359 375.685L232.382 375.756L232.425 375.816C232.587 376.031 232.924 375.947 233.156 376.078C233.304 377.92 233.239 379.3 233.047 381.412L233.019 381.717L233.314 381.799C233.616 381.886 234.125 381.988 234.546 382.061C234.757 382.097 234.941 382.126 235.064 382.142C235.126 382.151 235.138 382.156 235.239 382.154C235.253 382.153 235.292 382.148 235.293 382.148C235.294 382.148 235.353 382.131 235.353 382.131C235.354 382.131 235.462 382.071 235.462 382.071C235.463 382.071 235.539 381.984 235.539 381.984C235.539 381.984 235.593 381.837 235.593 381.837C235.593 381.837 235.587 381.684 235.587 381.684C235.587 381.684 235.582 381.667 235.576 381.656C236.084 380.489 236.284 379.154 236.302 377.97C236.321 376.698 236.207 375.571 236.225 375.248L236.133 375.243C236.255 375.045 236.527 375.073 236.596 374.823C236.938 373.582 236.686 371.645 236.307 369.74C235.928 367.835 235.398 366.008 235.069 365.11C234.382 363.231 233.461 361.468 232.435 359.749C232.46 359.751 232.493 359.757 232.517 359.76C232.599 359.765 232.677 359.765 232.762 359.754C232.847 359.743 232.953 359.729 233.068 359.623C233.5 359.22 233.702 358.656 233.749 358.069C233.797 357.482 233.699 356.86 233.504 356.275C233.309 355.69 233.019 355.145 232.659 354.709C232.624 354.668 232.569 354.667 232.533 354.628C233.575 353.359 235.292 351.296 236.88 349.207C237.716 348.106 238.499 347.025 239.094 346.093C239.689 345.16 240.109 344.418 240.196 343.807C240.303 343.057 240.295 342.499 240.163 342.062C240.031 341.625 239.71 341.297 239.323 341.217L239.325 341.218ZM239.172 341.943C239.307 341.971 239.382 342.013 239.461 342.276C239.54 342.538 239.56 343.012 239.461 343.704C239.416 344.019 239.05 344.792 238.474 345.695C237.897 346.598 237.121 347.669 236.292 348.76C234.699 350.856 232.957 352.959 231.918 354.225C231.865 354.192 231.815 354.153 231.76 354.126C231.791 353.991 231.804 353.869 231.783 353.755C231.753 353.607 231.705 353.446 231.641 353.27C231.512 352.918 231.324 352.507 231.112 352.108C230.9 351.71 230.667 351.324 230.441 351.023C230.403 350.973 230.364 350.938 230.327 350.892C231.437 349.359 232.341 348.213 233.528 346.562C233.681 346.349 234.248 345.686 234.957 344.953C235.666 344.22 236.537 343.399 237.34 342.799C237.742 342.499 238.126 342.255 238.453 342.106C238.779 341.957 239.037 341.915 239.172 341.943L239.172 341.943ZM229.622 351.16C229.51 351.16 229.546 351.134 229.606 351.188C229.665 351.241 229.751 351.339 229.845 351.466C230.035 351.718 230.257 352.085 230.456 352.458C230.655 352.832 230.835 353.217 230.947 353.522C230.988 353.632 231.003 353.714 231.023 353.795C229.79 354.028 228.687 354.177 227.778 354.503C226.778 354.863 225.952 355.482 225.401 356.62C224.704 357.657 224.314 358.472 224.097 359.046C223.987 359.34 223.918 359.574 223.868 359.745C223.854 359.733 223.857 359.742 223.84 359.728C223.567 359.514 223.012 359.102 222.259 358.621C221.96 357.045 222.875 355.19 224.38 353.718C225.916 352.215 228.002 351.16 229.621 351.16L229.622 351.16ZM231.242 354.503L231.231 354.585C231.487 354.626 231.804 354.831 232.093 355.179C232.381 355.527 232.633 356.004 232.802 356.51C232.97 357.016 233.052 357.55 233.014 358.009C232.979 358.443 232.831 358.779 232.594 359.024C232.589 359.023 232.589 359.024 232.583 359.024C232.479 359.015 232.313 358.984 232.114 358.942C232.092 358.936 232.055 358.931 232.032 358.925C231.998 358.872 231.985 358.809 231.951 358.756L231.782 358.865C231.432 358.786 231.061 358.703 230.631 358.614C230.077 358.501 229.5 358.402 228.973 358.396C228.461 358.391 227.974 358.47 227.626 358.805C227.615 358.814 227.597 358.806 227.588 358.817C227.099 359.32 226.604 359.775 226.192 359.978C225.985 360.08 225.806 360.116 225.657 360.104C225.508 360.092 225.372 360.041 225.204 359.88L225.068 360.022L224.61 359.847C224.656 359.695 224.705 359.532 224.79 359.307C224.992 358.773 225.344 358.009 226.039 356.984L226.056 356.962L226.067 356.939C226.543 355.957 227.15 355.511 228.03 355.194C228.846 354.901 229.955 354.749 231.242 354.502L231.242 354.503ZM228.962 359.133C229.402 359.139 229.95 359.225 230.484 359.335C230.862 359.413 231.196 359.493 231.531 359.569C232.683 361.397 233.632 363.32 234.378 365.361C234.682 366.194 235.213 368.024 235.583 369.888C235.954 371.752 236.141 373.694 235.883 374.627C235.664 375.423 235.12 375.778 234.52 375.87C233.932 375.961 233.334 375.733 233.047 375.38C231.586 369.739 231.095 363.801 227.932 359.488C227.991 359.428 228.058 359.395 228.117 359.335C228.221 359.227 228.523 359.128 228.962 359.133ZM222.522 359.7C222.803 359.904 223.224 360.186 223.383 360.311C223.54 360.434 223.635 360.52 223.798 360.589C223.879 360.624 224.008 360.655 224.147 360.611C224.247 360.579 224.293 360.509 224.343 360.448C223.064 364.427 223.675 369.882 223.4 376.482C223.38 376.498 223.319 376.529 223.253 376.558L223.002 376.433C222.977 376.482 222.991 376.56 222.974 376.612C222.801 376.651 222.632 376.699 222.418 376.705C222.144 376.713 221.876 376.674 221.654 376.623C221.652 376.594 221.634 376.576 221.632 376.547L221.446 376.558C221.348 376.508 221.225 376.448 221.228 376.455C220.476 374.595 220.438 371.57 220.792 368.399C221.134 365.336 221.839 362.181 222.521 359.701L222.522 359.7ZM235.507 375.81C235.524 376.376 235.576 377.008 235.561 377.959C235.545 379.1 235.352 380.349 234.907 381.368C234.826 381.354 234.771 381.345 234.672 381.329C234.36 381.276 234.05 381.205 233.789 381.144C233.946 379.344 233.998 377.956 233.887 376.334C234.163 376.38 234.345 376.645 234.629 376.601C235.003 376.544 235.183 376.051 235.507 375.81L235.507 375.81ZM222.893 377.365C222.909 377.691 222.951 378.062 223.067 378.526C223.296 379.447 223.868 380.711 224.698 382.12C224.255 382.292 223.775 382.495 223.285 382.715C222.23 381.383 222.029 379.388 221.856 377.381C222.052 377.403 222.24 377.447 222.44 377.441C222.602 377.435 222.738 377.387 222.893 377.365V377.365Z" fill="#333333"/>
</g>
</g>
</g>
</svg>
