<svg width="512" height="512" viewBox="0 0 512 512" fill="none" xmlns="http://www.w3.org/2000/svg">
<g id="Clothes3">
<g id="Clothes3_2">
<g id="g468971">
<path id="path449977" d="M349.916 357.163C313.31 399.596 225.701 418.458 166.895 362.205C169.405 350.889 167.903 335.358 174.538 328.377C171.351 322.684 177.579 319.364 180.253 315.148C182.133 305.659 179.913 298.947 179.475 291.028C174.791 290.927 169.687 275.73 181.972 276.521C223.159 292.34 271.17 287.762 324.317 260.34C332.763 256.47 332.381 268.418 326.334 272.043C328.281 284.225 329.189 297.542 334.431 306.122C336.643 308.491 342.042 306.823 337.658 317.543C344.286 323.975 341.013 345.63 349.916 357.163Z" fill="#666666"/>
<path id="path463879" d="M327.132 272.491L292.736 288.848L321.974 280.808C321.879 281.221 328.953 309.548 328.28 310.222C324.96 313.544 315.11 321.157 315.11 321.157C315.11 321.157 327.433 313.652 330.094 314.685C332.754 315.717 330.599 322.608 330.599 322.608C330.599 322.608 315.462 337.57 316.768 336.562C318.074 335.554 324.279 331.264 327.209 330.698C330.138 330.133 328.802 324.575 332.039 332.849C335.276 341.123 340.069 368.28 340.069 368.28L350.077 357.769C339.818 340.523 343.339 323.227 337.361 317.137C341.018 309.041 337.376 308.457 335.065 306.503C331.167 299.434 329.037 285.873 327.132 272.491ZM182.059 275.7C171.579 276.869 173.109 286.038 179.465 291.056L180.291 314.697C178.01 318.435 173.399 319.344 174.71 327.446C168.935 328.084 169.26 350.986 166.537 362.765C187.837 383.558 214.836 394.89 240.197 396.765C239.582 396.521 239.066 395.781 232.888 387.846C222.146 374.047 217.102 358.875 218.264 359.048C218.18 357.758 229.373 351.692 237.286 352.452C232.879 352.678 226.077 348.59 228.844 342.063C229.596 340.288 209.654 331.867 205.72 324.606C201.766 317.308 201.907 298.113 201.907 298.113L221.353 299.741C216.826 298.84 195.95 286.23 203.294 282.923L182.059 275.7ZM221.353 299.741C221.594 299.789 221.801 299.811 221.942 299.79L221.353 299.741Z" fill="#575757"/>
<path id="path461222" d="M318.105 263.181C318.006 263.192 317.91 263.222 317.822 263.27C317.734 263.318 317.657 263.383 317.595 263.461C317.532 263.539 317.486 263.629 317.458 263.725C317.431 263.821 317.422 263.921 317.434 264.02C317.444 264.12 317.475 264.216 317.523 264.303C317.571 264.391 317.636 264.468 317.714 264.53C317.792 264.593 317.881 264.639 317.977 264.667C318.073 264.695 318.174 264.703 318.273 264.692C319.25 264.585 319.932 264.867 320.505 265.436C321.078 266.004 321.508 266.904 321.714 267.976C322.126 270.119 321.611 272.889 320.147 274.752C320.058 274.866 320.004 275.004 319.99 275.149C319.138 284.022 322.893 298.295 324.713 311.455C324.799 312.083 325.134 312.591 325.552 313.117C325.97 313.642 326.496 314.182 327.068 314.745C328.213 315.87 329.546 317.096 330.498 318.315C331.45 319.533 331.958 320.674 331.768 321.638C331.578 322.602 330.666 323.709 328.109 324.805C327.968 324.865 327.848 324.967 327.766 325.097C327.684 325.227 327.644 325.379 327.65 325.532C328.154 336.924 328.061 343.585 338.907 368.385C338.948 368.476 339.006 368.558 339.078 368.627C339.15 368.696 339.235 368.749 339.328 368.785C339.421 368.821 339.52 368.838 339.62 368.836C339.72 368.833 339.818 368.811 339.909 368.771C340.093 368.69 340.237 368.54 340.31 368.354C340.384 368.167 340.38 367.959 340.301 367.775C329.636 343.392 329.694 337.036 329.211 325.89C331.581 324.758 332.957 323.448 333.256 321.935C333.581 320.292 332.762 318.752 331.695 317.386C330.629 316.02 329.247 314.762 328.131 313.665C327.574 313.117 327.087 312.608 326.744 312.177C326.401 311.746 326.23 311.379 326.212 311.248C324.377 297.976 320.723 283.62 321.507 275.333C323.111 273.084 323.678 270.163 323.202 267.691C322.953 266.395 322.432 265.213 321.574 264.362C320.716 263.51 319.49 263.03 318.105 263.181H318.105ZM312.141 267.484C310.997 266.822 309.479 266.868 307.9 267.747C307.812 267.795 307.735 267.86 307.672 267.938C307.61 268.016 307.563 268.106 307.536 268.202C307.508 268.299 307.5 268.399 307.511 268.499C307.523 268.598 307.554 268.694 307.603 268.782C307.652 268.869 307.717 268.946 307.796 269.008C307.874 269.07 307.964 269.115 308.06 269.142C308.156 269.169 308.257 269.177 308.356 269.165C308.455 269.153 308.551 269.122 308.638 269.073C309.909 268.366 310.728 268.416 311.38 268.793C312.031 269.169 312.587 270.016 312.896 271.171C313.514 273.479 313.065 276.848 311.542 278.886C311.458 278.997 311.406 279.128 311.391 279.267C310.543 288.095 313.278 304.776 315.117 317.984C315.288 319.211 316.269 320.126 317.344 321.269C318.419 322.412 319.666 323.681 320.539 324.984C321.412 326.286 321.883 327.559 321.636 328.805C321.388 330.051 320.395 331.447 317.87 332.923C317.737 333.001 317.631 333.118 317.566 333.258C317.501 333.398 317.48 333.554 317.506 333.706C319.819 346.792 322.012 355.367 328.187 375.871C328.216 375.966 328.263 376.055 328.326 376.133C328.389 376.21 328.467 376.274 328.554 376.322C328.642 376.369 328.739 376.398 328.838 376.408C328.937 376.418 329.037 376.409 329.133 376.38C329.229 376.351 329.318 376.304 329.395 376.241C329.472 376.178 329.537 376.1 329.584 376.013C329.631 375.925 329.661 375.828 329.671 375.729C329.681 375.63 329.671 375.53 329.642 375.434C323.544 355.189 321.363 346.651 319.09 333.874C321.452 332.372 322.792 330.771 323.124 329.102C323.481 327.303 322.785 325.611 321.798 324.139C320.811 322.666 319.508 321.351 318.452 320.228C317.396 319.105 316.657 318.067 316.617 317.777C314.774 304.55 312.107 287.767 312.902 279.434C314.606 276.918 315.077 273.471 314.356 270.779C313.981 269.376 313.285 268.145 312.141 267.483L312.141 267.484ZM298.147 271.115C297.948 271.137 297.765 271.237 297.639 271.393C297.514 271.549 297.455 271.749 297.476 271.948C297.498 272.148 297.598 272.331 297.754 272.456C297.91 272.582 298.11 272.641 298.31 272.62C299.69 272.471 300.576 272.922 301.303 273.767C302.031 274.611 302.534 275.905 302.803 277.303C303.072 278.701 303.115 280.192 303.004 281.404C302.949 282.01 302.852 282.548 302.741 282.954C302.63 283.36 302.471 283.638 302.439 283.676C302.336 283.795 302.274 283.944 302.26 284.101C301.834 288.534 302.427 295.425 303.351 302.911C304.275 310.397 305.54 318.447 306.501 325.045C306.669 326.201 307.55 326.999 308.465 327.904C309.379 328.809 310.408 329.781 311.128 330.887C311.847 331.992 312.271 333.187 312.057 334.674C311.842 336.162 310.953 338.002 308.834 340.275C308.754 340.361 308.695 340.465 308.662 340.577C308.629 340.69 308.623 340.809 308.644 340.924C310.952 353.988 312.224 360.547 318.401 381.057C318.43 381.153 318.477 381.242 318.54 381.319C318.603 381.397 318.681 381.461 318.769 381.508C318.856 381.555 318.953 381.585 319.052 381.595C319.151 381.605 319.252 381.595 319.347 381.566C319.539 381.508 319.7 381.375 319.795 381.198C319.889 381.021 319.909 380.813 319.851 380.621C313.722 360.274 312.461 353.771 310.182 340.885C312.143 338.666 313.301 336.656 313.556 334.887C313.829 332.992 313.251 331.375 312.398 330.064C311.545 328.754 310.427 327.708 309.533 326.825C308.64 325.941 308.051 325.173 308 324.827C307.037 318.215 305.776 310.177 304.856 302.727C303.938 295.288 303.376 288.421 303.77 284.274C303.934 283.991 304.101 283.721 304.201 283.357C304.345 282.835 304.447 282.221 304.509 281.544C304.633 280.19 304.592 278.576 304.291 277.012C303.99 275.448 303.438 273.923 302.45 272.777C301.462 271.63 299.968 270.918 298.147 271.115H298.147ZM290.342 274.886C290.243 274.896 290.147 274.926 290.059 274.973C289.971 275.02 289.894 275.085 289.831 275.162C289.768 275.24 289.721 275.329 289.693 275.424C289.664 275.52 289.655 275.62 289.665 275.719C289.675 275.819 289.705 275.916 289.753 276.004C289.801 276.092 289.866 276.17 289.944 276.233C290.022 276.296 290.111 276.343 290.208 276.371C290.304 276.399 290.405 276.408 290.505 276.396C291.885 276.248 292.765 276.693 293.492 277.538C294.22 278.382 294.723 279.676 294.992 281.074C295.261 282.472 295.304 283.969 295.193 285.181C295.138 285.787 295.042 286.319 294.93 286.725C294.819 287.131 294.666 287.409 294.634 287.447C294.529 287.566 294.465 287.714 294.449 287.872C294.023 292.307 294.639 299.199 295.574 306.682C296.508 314.166 297.771 322.216 298.69 328.816C298.84 329.889 299.537 330.886 300.313 332.073C301.088 333.259 301.977 334.579 302.623 335.939C303.27 337.299 303.665 338.681 303.524 340.001C303.383 341.321 302.743 342.633 301.102 343.979C300.996 344.064 300.916 344.176 300.869 344.303C300.822 344.43 300.809 344.567 300.833 344.701C303.142 357.765 304.413 364.323 310.591 384.834C310.65 385.026 310.782 385.187 310.959 385.281C311.137 385.376 311.344 385.396 311.536 385.337C311.728 385.28 311.889 385.149 311.985 384.973C312.08 384.796 312.102 384.59 312.046 384.398C305.913 364.037 304.648 357.537 302.366 344.634C303.87 343.221 304.865 341.703 305.029 340.163C305.213 338.444 304.709 336.793 303.994 335.29C303.28 333.787 302.342 332.414 301.577 331.245C300.813 330.075 300.257 329.054 300.195 328.609C299.273 321.987 298.009 313.941 297.079 306.492C296.15 299.054 295.566 292.19 295.96 288.045C296.123 287.762 296.296 287.492 296.396 287.128C296.539 286.606 296.642 285.992 296.704 285.315C296.828 283.961 296.781 282.353 296.48 280.789C296.179 279.224 295.627 277.7 294.639 276.553C293.651 275.406 292.164 274.689 290.342 274.886H290.342ZM182.649 276.99C178.951 279.046 177.896 282.113 178.33 284.962C178.744 287.686 180.378 290.167 181.855 292.046C182.667 300.595 183.362 308.61 183.639 322.27C183.654 322.935 183.306 323.815 182.75 324.822C182.194 325.828 181.455 326.95 180.848 328.179C180.24 329.407 179.754 330.757 179.762 332.229C179.771 333.553 180.379 334.956 181.396 336.342C180.888 347.634 177.259 362.379 174.917 368.877C174.883 368.971 174.867 369.071 174.872 369.171C174.876 369.271 174.901 369.369 174.943 369.459C174.986 369.55 175.046 369.631 175.12 369.698C175.195 369.765 175.281 369.817 175.376 369.85C175.565 369.918 175.773 369.907 175.954 369.821C176.136 369.735 176.276 369.581 176.344 369.392C178.766 362.669 182.414 347.911 182.923 336.347C182.931 336.158 182.867 335.972 182.744 335.827C181.649 334.511 181.285 333.347 181.278 332.218C181.273 331.089 181.654 329.968 182.207 328.85C182.76 327.732 183.479 326.635 184.076 325.554C184.673 324.474 185.179 323.396 185.156 322.237C184.877 308.504 184.175 300.408 183.36 291.828C183.346 291.68 183.29 291.54 183.198 291.425C181.76 289.641 180.192 287.118 179.829 284.733C179.466 282.348 180.104 280.139 183.382 278.316C183.47 278.267 183.547 278.202 183.61 278.124C183.672 278.046 183.719 277.956 183.746 277.86C183.774 277.764 183.782 277.663 183.77 277.563C183.759 277.464 183.728 277.368 183.679 277.281C183.581 277.106 183.417 276.977 183.224 276.922C183.031 276.868 182.824 276.892 182.649 276.99H182.649ZM187.992 277.728C184.265 279.801 183.24 283.168 183.662 286.3C184.065 289.298 185.681 292.06 187.181 293.993C187.996 302.559 189.003 310.699 188.63 324.329C188.616 324.895 188.181 325.69 187.489 326.618C186.797 327.546 185.896 328.594 185.161 329.801C184.427 331.009 183.856 332.403 183.914 333.997C183.967 335.461 184.737 337.071 186.062 338.742C185.555 350.086 183.891 363.114 181.334 374.522C181.312 374.62 181.31 374.72 181.327 374.819C181.344 374.917 181.381 375.011 181.434 375.095C181.488 375.179 181.557 375.252 181.639 375.309C181.721 375.367 181.813 375.407 181.911 375.429C182.106 375.471 182.311 375.434 182.48 375.326C182.649 375.218 182.768 375.048 182.811 374.852C185.399 363.307 187.084 350.167 187.59 338.703C187.598 338.509 187.532 338.318 187.405 338.171C185.975 336.517 185.468 335.149 185.424 333.947C185.381 332.745 185.806 331.649 186.454 330.584C187.101 329.52 187.969 328.516 188.708 327.524C189.448 326.532 190.114 325.543 190.146 324.368C190.523 310.612 189.5 302.348 188.686 293.786C188.671 293.638 188.612 293.498 188.518 293.383C187.107 291.632 185.532 288.81 185.167 286.098C184.802 283.387 185.482 280.861 188.731 279.054C188.818 279.005 188.895 278.94 188.957 278.862C189.019 278.783 189.065 278.693 189.092 278.597C189.119 278.501 189.126 278.4 189.114 278.301C189.102 278.202 189.071 278.106 189.022 278.019C188.923 277.844 188.76 277.715 188.567 277.661C188.374 277.606 188.167 277.631 187.992 277.728H187.992ZM282.23 277.89C282.136 277.857 282.036 277.843 281.936 277.848C281.837 277.853 281.739 277.878 281.649 277.922C281.559 277.965 281.479 278.025 281.412 278.099C281.346 278.174 281.295 278.26 281.262 278.355C281.197 278.545 281.209 278.753 281.298 278.933C281.386 279.113 281.542 279.252 281.732 279.317C282.447 279.566 283.086 280.204 283.595 281.158C284.103 282.112 284.456 283.358 284.608 284.677C284.91 287.315 284.357 290.217 283.142 291.648C283.04 291.767 282.978 291.913 282.963 292.068C282.536 296.513 283.283 302.855 284.35 309.782C285.417 316.709 286.818 324.201 287.735 330.786C287.881 331.834 288.524 332.834 289.24 334.02C289.956 335.206 290.771 336.526 291.344 337.886C291.916 339.246 292.242 340.627 292.049 341.959C291.856 343.291 291.171 344.622 289.526 345.971C289.435 346.046 289.363 346.141 289.315 346.249C289.267 346.357 289.246 346.474 289.251 346.592C289.759 358.073 291.656 364.173 298.052 388.717C298.103 388.911 298.229 389.077 298.402 389.179C298.575 389.281 298.781 389.31 298.976 389.259C299.072 389.234 299.163 389.191 299.243 389.13C299.323 389.07 299.39 388.994 299.44 388.908C299.491 388.822 299.524 388.726 299.537 388.627C299.55 388.528 299.544 388.427 299.518 388.331C293.148 363.887 291.291 357.909 290.779 346.67C292.314 345.251 293.324 343.726 293.548 342.177C293.796 340.465 293.378 338.807 292.743 337.298C292.108 335.79 291.247 334.41 290.538 333.236C289.83 332.062 289.3 331.042 289.235 330.573C288.31 323.936 286.911 316.446 285.85 309.553C284.789 302.666 284.079 296.364 284.473 292.23C285.94 290.239 286.432 287.291 286.113 284.504C285.944 283.031 285.559 281.617 284.932 280.442C284.305 279.266 283.42 278.305 282.23 277.89H282.23ZM195.003 280.492C191.012 282.036 189.123 285.269 188.96 288.493C188.806 291.556 190.192 294.558 192.519 296.399C193.368 305.031 196.175 313.406 194.443 326.768C194.339 327.571 193.798 328.747 193.123 330.042C192.448 331.336 191.658 332.771 191.12 334.271C190.582 335.772 190.286 337.367 190.728 338.938C191.123 340.337 192.363 341.58 194.069 342.681C193.56 354.028 192.286 367.888 189.744 379.233C189.722 379.331 189.719 379.431 189.736 379.53C189.754 379.628 189.79 379.722 189.844 379.806C189.897 379.89 189.967 379.963 190.048 380.02C190.13 380.078 190.222 380.118 190.32 380.14C190.516 380.184 190.721 380.149 190.891 380.042C191.061 379.935 191.182 379.765 191.226 379.569C193.819 367.999 195.097 353.953 195.602 342.507C195.608 342.367 195.575 342.228 195.507 342.106C195.439 341.983 195.338 341.882 195.216 341.814C193.343 340.771 192.51 339.669 192.189 338.529C191.867 337.389 192.066 336.121 192.547 334.781C193.028 333.44 193.785 332.058 194.471 330.741C195.158 329.424 195.79 328.185 195.949 326.964C197.73 313.217 194.805 304.518 194.001 296.063C193.991 295.954 193.957 295.848 193.902 295.754C193.847 295.659 193.772 295.578 193.683 295.515C191.615 294.063 190.34 291.28 190.477 288.571C190.613 285.862 192.054 283.253 195.546 281.902C195.639 281.866 195.724 281.813 195.796 281.744C195.868 281.676 195.926 281.594 195.967 281.503C196.007 281.412 196.029 281.314 196.032 281.214C196.035 281.115 196.018 281.016 195.982 280.923C195.909 280.736 195.765 280.586 195.582 280.505C195.398 280.424 195.19 280.42 195.003 280.492ZM269.098 280.688C268.908 280.623 268.7 280.636 268.52 280.724C268.339 280.812 268.201 280.968 268.136 281.158C268.07 281.347 268.082 281.554 268.17 281.735C268.257 281.915 268.411 282.054 268.6 282.12C269.315 282.37 269.96 283.007 270.469 283.961C270.977 284.915 271.33 286.161 271.482 287.48C271.784 290.118 271.226 293.02 270.01 294.452C269.909 294.57 269.846 294.716 269.831 294.871C269.404 299.316 270.157 305.658 271.224 312.585C272.291 319.513 273.686 327.004 274.604 333.589C274.75 334.637 275.393 335.637 276.109 336.823C276.825 338.009 277.64 339.329 278.212 340.689C278.785 342.049 279.11 343.43 278.917 344.762C278.725 346.094 278.04 347.425 276.394 348.774C276.303 348.849 276.231 348.944 276.183 349.052C276.136 349.16 276.114 349.277 276.12 349.395C276.629 360.894 278.995 368.538 285.391 393.081C285.441 393.275 285.567 393.442 285.74 393.543C285.913 393.645 286.12 393.674 286.314 393.624C286.411 393.599 286.502 393.555 286.581 393.494C286.661 393.434 286.728 393.359 286.779 393.272C286.829 393.186 286.862 393.09 286.875 392.991C286.889 392.892 286.882 392.792 286.857 392.695C280.482 368.237 278.166 360.708 277.653 349.462C279.181 348.046 280.193 346.525 280.417 344.98C280.665 343.268 280.246 341.61 279.611 340.102C278.976 338.593 278.115 337.214 277.407 336.04C276.698 334.866 276.168 333.846 276.103 333.376C275.179 326.739 273.78 319.249 272.718 312.356C271.658 305.472 270.948 299.173 271.342 295.039C272.812 293.048 273.306 290.097 272.987 287.307C272.818 285.834 272.433 284.421 271.806 283.245C271.179 282.069 270.288 281.103 269.098 280.688ZM203.099 281.779C199.104 283.325 197.181 286.612 196.972 289.886C196.774 292.991 198.114 296.039 200.436 297.893C201.264 306.508 203.218 318.476 201.482 331.871C201.377 332.679 200.845 333.867 200.184 335.184C199.523 336.5 198.749 337.959 198.231 339.486C197.714 341.013 197.444 342.634 197.901 344.22C198.31 345.637 199.555 346.896 201.275 348.002C200.783 359.29 201.053 365.321 200.436 384.996C200.432 385.096 200.449 385.195 200.484 385.288C200.519 385.382 200.572 385.467 200.64 385.54C200.708 385.613 200.79 385.671 200.88 385.712C200.971 385.753 201.069 385.776 201.169 385.779C201.268 385.783 201.368 385.767 201.461 385.732C201.554 385.697 201.64 385.643 201.712 385.575C201.785 385.507 201.844 385.426 201.885 385.335C201.926 385.244 201.949 385.146 201.952 385.047C202.575 365.217 202.293 359.209 202.797 347.823C202.803 347.681 202.77 347.541 202.701 347.417C202.632 347.293 202.529 347.192 202.405 347.123C200.534 346.082 199.697 344.964 199.362 343.8C199.026 342.635 199.206 341.34 199.669 339.973C200.132 338.606 200.867 337.201 201.538 335.866C202.209 334.531 202.83 333.283 202.987 332.067C204.766 318.335 202.734 306.1 201.924 297.574C201.914 297.465 201.88 297.359 201.825 297.265C201.77 297.17 201.695 297.088 201.605 297.025C199.548 295.581 198.312 292.751 198.489 289.981C198.665 287.212 200.154 284.544 203.642 283.194C203.735 283.159 203.82 283.105 203.892 283.037C203.964 282.968 204.022 282.886 204.063 282.795C204.103 282.704 204.125 282.606 204.128 282.507C204.131 282.407 204.114 282.308 204.078 282.215C204.043 282.122 203.989 282.037 203.92 281.965C203.852 281.893 203.77 281.835 203.679 281.794C203.588 281.754 203.49 281.732 203.391 281.729C203.291 281.726 203.192 281.743 203.099 281.779ZM260.18 282.876C260.083 282.85 259.983 282.843 259.884 282.856C259.785 282.869 259.69 282.902 259.604 282.952C259.518 283.001 259.442 283.068 259.381 283.147C259.321 283.226 259.276 283.316 259.251 283.413C259.225 283.509 259.218 283.609 259.231 283.708C259.244 283.807 259.277 283.902 259.327 283.988C259.377 284.075 259.443 284.15 259.522 284.211C259.601 284.271 259.692 284.316 259.788 284.341C262.509 285.067 263.717 287.221 263.934 289.729C264.151 292.238 263.225 295.01 261.724 296.466C261.594 296.59 261.513 296.757 261.494 296.936C260.658 305.742 263.132 321.531 263.967 335.167C264.044 336.416 264.641 337.707 265.355 339.1C266.069 340.493 266.922 341.968 267.587 343.414C268.253 344.859 268.719 346.271 268.734 347.47C268.749 348.67 268.393 349.651 267.252 350.564C267.158 350.639 267.083 350.734 267.034 350.843C266.984 350.952 266.961 351.071 266.966 351.191C267.473 362.635 268.598 370.334 275.001 394.899C275.051 395.094 275.177 395.26 275.35 395.362C275.523 395.463 275.73 395.492 275.924 395.442C276.118 395.391 276.285 395.266 276.386 395.093C276.488 394.92 276.517 394.713 276.467 394.519C270.077 370.002 268.986 362.51 268.483 351.146C269.541 350.05 270.267 348.797 270.251 347.453C270.231 345.891 269.67 344.315 268.964 342.782C268.258 341.248 267.392 339.755 266.703 338.412C266.015 337.068 265.526 335.859 265.478 335.072C264.638 321.361 262.235 305.528 263.011 297.165C264.746 295.263 265.686 292.392 265.445 289.601C265.189 286.649 263.541 283.772 260.18 282.876ZM210.898 283.239C210.701 283.21 210.5 283.261 210.339 283.379C207.575 285.407 206.718 289.275 206.725 292.577C206.727 294.228 206.954 295.749 207.346 296.913C207.542 297.496 207.773 297.993 208.095 298.39C208.237 298.566 208.518 298.568 208.722 298.693C209.575 307.373 212.382 320.89 210.658 334.199C210.553 335.006 210.016 336.189 209.354 337.505C208.693 338.821 207.919 340.287 207.402 341.814C206.884 343.34 206.62 344.962 207.077 346.547C207.486 347.965 208.725 349.218 210.445 350.324C209.953 361.645 210.302 369.263 209.684 388.941C209.681 389.04 209.697 389.139 209.732 389.233C209.767 389.326 209.82 389.411 209.888 389.484C209.957 389.557 210.038 389.616 210.129 389.657C210.22 389.698 210.318 389.721 210.417 389.724C210.517 389.727 210.616 389.711 210.709 389.676C210.803 389.641 210.888 389.588 210.961 389.52C211.034 389.452 211.092 389.37 211.133 389.279C211.175 389.188 211.197 389.091 211.201 388.991C211.823 369.158 211.464 361.524 211.967 350.145C211.973 350.005 211.94 349.866 211.872 349.743C211.804 349.621 211.703 349.519 211.581 349.451C209.71 348.409 208.867 347.292 208.532 346.127C208.196 344.963 208.376 343.667 208.84 342.3C209.303 340.934 210.043 339.523 210.714 338.188C211.385 336.853 212 335.604 212.157 334.389C213.942 320.616 211 306.734 210.194 298.251C210.174 298.051 210.077 297.868 209.923 297.74C209.769 297.612 209.57 297.55 209.371 297.568C209.429 297.562 209.419 297.61 209.276 297.434C209.133 297.257 208.943 296.904 208.784 296.432C208.466 295.488 208.244 294.082 208.241 292.572C208.235 289.55 209.121 286.149 211.234 284.599C211.396 284.48 211.503 284.302 211.534 284.103C211.564 283.905 211.515 283.703 211.396 283.541C211.337 283.46 211.263 283.392 211.178 283.34C211.092 283.289 210.997 283.254 210.898 283.239L210.898 283.239ZM249.482 284.078C249.402 284.138 249.335 284.213 249.284 284.299C249.233 284.385 249.2 284.48 249.186 284.579C249.172 284.677 249.177 284.778 249.202 284.875C249.227 284.971 249.271 285.062 249.331 285.142C250.625 286.879 251.237 290.054 251.328 292.885C251.374 294.3 251.3 295.632 251.166 296.651C251.099 297.16 251.011 297.587 250.926 297.898C250.84 298.21 250.717 298.417 250.763 298.363C250.662 298.481 250.6 298.627 250.584 298.782C249.742 307.643 253.152 323.371 253.052 336.957C253.035 339.087 253.869 341.389 254.562 344.236C255.255 347.084 255.839 350.459 255.441 354.637C255.438 354.675 255.438 354.712 255.441 354.75C256.032 366.512 256.902 375.983 259.508 396.449C259.521 396.548 259.552 396.644 259.601 396.73C259.65 396.817 259.716 396.893 259.794 396.954C259.873 397.016 259.962 397.061 260.058 397.088C260.154 397.114 260.254 397.122 260.353 397.11C260.453 397.097 260.549 397.066 260.636 397.016C260.723 396.967 260.799 396.901 260.861 396.822C260.922 396.743 260.967 396.652 260.993 396.556C261.02 396.459 261.026 396.358 261.014 396.259C258.409 375.809 257.547 366.4 256.957 354.671L256.951 354.783C257.37 350.388 256.746 346.804 256.034 343.878C255.322 340.953 254.555 338.667 254.568 336.969C254.67 323.133 251.313 307.241 252.095 298.945C252.195 298.74 252.323 298.553 252.391 298.301C252.503 297.894 252.592 297.405 252.666 296.847C252.814 295.729 252.887 294.332 252.839 292.835C252.743 289.841 252.205 286.463 250.545 284.235C250.486 284.155 250.411 284.087 250.326 284.036C250.24 283.985 250.145 283.951 250.046 283.936C249.947 283.922 249.847 283.927 249.75 283.951C249.653 283.976 249.562 284.019 249.482 284.079L249.482 284.078ZM219.795 284.862C219.694 284.857 219.594 284.873 219.5 284.908C219.406 284.942 219.32 284.995 219.246 285.063C217.447 286.719 217.18 289.799 217.271 292.784C217.362 295.769 217.91 298.663 218.385 300.091L218.356 299.974C219.693 308.403 220.609 322.949 219.061 336.482C218.516 341.243 216.746 347.153 219.626 353.172L219.553 352.853C219.699 364.664 220.979 371.603 219.66 392.141C219.653 392.241 219.666 392.341 219.699 392.435C219.731 392.529 219.781 392.617 219.847 392.691C219.914 392.766 219.994 392.827 220.083 392.871C220.173 392.915 220.271 392.941 220.37 392.947C220.57 392.96 220.768 392.893 220.919 392.761C221.07 392.629 221.162 392.442 221.176 392.242C222.501 371.619 221.214 364.544 221.07 352.836C221.069 352.726 221.044 352.617 220.997 352.517C218.39 347.069 220.003 341.629 220.572 336.655C222.141 322.934 221.212 308.321 219.85 299.733C219.843 299.694 219.834 299.654 219.821 299.616C219.437 298.459 218.872 295.562 218.786 292.74C218.7 289.917 219.191 287.174 220.274 286.177C220.422 286.041 220.509 285.852 220.517 285.652C220.526 285.451 220.454 285.256 220.319 285.108C220.252 285.034 220.171 284.975 220.081 284.933C219.99 284.89 219.893 284.866 219.793 284.862L219.795 284.862ZM239.937 284.962C239.789 284.827 239.593 284.756 239.393 284.764C239.193 284.772 239.004 284.86 238.868 285.007C238.733 285.155 238.661 285.35 238.67 285.551C238.678 285.751 238.766 285.94 238.913 286.076C239.996 287.073 240.487 289.816 240.401 292.639C240.315 295.461 239.75 298.358 239.366 299.515C239.351 299.555 239.34 299.596 239.332 299.638C237.943 308.397 239.822 324.321 241.38 337.947C241.949 342.921 243.562 348.361 240.955 353.809C240.908 353.909 240.883 354.018 240.882 354.128C240.737 365.905 241.009 375.413 242.331 396.001C242.337 396.101 242.363 396.199 242.407 396.288C242.451 396.378 242.512 396.458 242.587 396.524C242.661 396.59 242.749 396.641 242.843 396.673C242.938 396.705 243.037 396.719 243.137 396.712C243.237 396.706 243.334 396.68 243.424 396.637C243.514 396.593 243.594 396.532 243.66 396.457C243.726 396.382 243.776 396.295 243.809 396.2C243.841 396.106 243.854 396.006 243.848 395.906C242.526 375.334 242.253 365.888 242.398 354.145L242.326 354.464C245.206 348.445 243.435 342.535 242.891 337.774C241.332 324.146 239.522 308.131 240.832 299.873L240.803 299.996C241.278 298.568 241.82 295.669 241.911 292.684C242.002 289.698 241.735 286.619 239.936 284.962L239.937 284.962ZM230.453 285.343C230.253 285.334 230.058 285.404 229.91 285.539C228.111 287.195 227.845 290.28 227.935 293.265C228.026 296.251 228.569 299.144 229.043 300.573L229.015 300.449C230.345 308.836 230.828 325.262 230.173 338.915C229.81 346.48 228.995 346.713 230.783 355.672C230.931 367.422 231.859 373.801 230.542 394.306C230.535 394.406 230.549 394.506 230.581 394.6C230.613 394.695 230.664 394.782 230.73 394.857C230.796 394.932 230.876 394.993 230.966 395.036C231.055 395.08 231.153 395.106 231.253 395.112C231.352 395.118 231.452 395.105 231.547 395.073C231.641 395.041 231.728 394.99 231.803 394.924C231.878 394.858 231.939 394.778 231.983 394.688C232.027 394.598 232.052 394.501 232.058 394.401C233.382 373.788 232.444 367.312 232.299 355.589C232.297 355.541 232.292 355.495 232.282 355.449C230.483 346.468 231.319 346.693 231.689 338.988C232.348 325.242 231.883 308.845 230.514 300.215C230.508 300.173 230.498 300.132 230.485 300.091C230.101 298.934 229.53 296.043 229.444 293.221C229.358 290.398 229.849 287.655 230.933 286.658C231.006 286.59 231.066 286.509 231.108 286.418C231.15 286.328 231.174 286.23 231.178 286.13C231.183 286.03 231.167 285.93 231.132 285.837C231.098 285.743 231.045 285.657 230.977 285.583C230.841 285.437 230.652 285.35 230.451 285.343H230.453Z" fill="#4D4D4D"/>
<path id="path448364" d="M325.686 259.024C324.248 259.162 322.859 259.868 321.955 261.139L322.234 260.898C275.524 283.953 229.449 293.106 184.283 276.514L184.339 276.537C181.543 275.255 179.239 275.051 177.457 275.698C175.675 276.345 174.525 277.844 174.027 279.603C173.037 283.106 174.352 287.745 177.642 290.664C177.657 290.798 177.707 290.926 177.787 291.034C177.81 291.042 177.832 291.048 177.854 291.057C178.012 291.279 178.19 291.51 178.397 292.064C178.675 292.805 178.949 293.792 179.197 294.928C179.693 297.202 180.091 300.09 180.316 302.996C180.541 305.903 180.594 308.831 180.411 311.188C180.32 312.366 180.17 313.403 179.964 314.203C179.757 315.003 179.473 315.56 179.27 315.77C177.415 317.681 176.015 318.719 174.995 319.927C173.975 321.135 173.437 322.554 173.474 324.756C173.485 325.52 174.428 326.366 174.906 327.15C173.024 327.949 171.681 329.723 170.81 332.158C169.833 334.89 169.27 338.348 168.841 342.027C167.983 349.387 167.64 357.678 166.043 362.203C166.01 362.297 165.996 362.397 166.001 362.496C166.006 362.596 166.031 362.694 166.075 362.784C166.118 362.873 166.178 362.954 166.253 363.02C166.327 363.087 166.414 363.138 166.508 363.171C166.602 363.204 166.701 363.219 166.801 363.213C166.901 363.208 166.998 363.183 167.088 363.14C167.178 363.097 167.258 363.036 167.325 362.962C167.392 362.888 167.443 362.801 167.476 362.707C169.236 357.716 169.504 349.477 170.351 342.206C170.775 338.571 171.336 335.187 172.237 332.667C173.084 330.297 174.21 328.878 175.644 328.381C176.066 328.902 176.033 329.358 176.562 329.914C178.344 331.787 180.719 333.811 183.209 335.739C185.699 337.666 188.3 339.494 190.538 340.942C192.777 342.39 194.608 343.449 195.719 343.896C195.906 343.971 196.114 343.969 196.298 343.89C196.483 343.811 196.629 343.663 196.704 343.477C196.779 343.29 196.776 343.082 196.698 342.897C196.619 342.713 196.471 342.567 196.285 342.492C195.429 342.147 193.567 341.09 191.366 339.666C189.166 338.242 186.584 336.439 184.132 334.541C181.68 332.644 179.352 330.648 177.659 328.868C175.965 327.088 175.002 325.439 174.99 324.733C174.957 322.758 175.31 321.9 176.154 320.901C176.997 319.901 178.43 318.805 180.355 316.822C180.89 316.271 181.19 315.514 181.43 314.584C181.669 313.654 181.826 312.542 181.922 311.305C182.114 308.831 182.057 305.845 181.827 302.879C181.597 299.913 181.191 296.972 180.674 294.604C180.431 293.489 180.164 292.529 179.869 291.711C229.628 311.505 286.773 296.885 326.28 273.125C326.271 273.361 326.249 273.554 326.251 273.83C326.262 274.948 326.373 276.398 326.559 278.076C326.93 281.433 327.618 285.71 328.511 289.977C329.405 294.244 330.502 298.496 331.706 301.816C332.308 303.476 332.932 304.901 333.597 306.001C334.262 307.101 334.945 307.928 335.908 308.222C337.739 308.782 338.46 309.554 338.672 310.516C338.884 311.478 338.524 312.855 337.564 314.483C335.644 317.739 331.505 321.84 326.861 325.774C322.216 329.707 317.062 333.507 313.075 336.315C309.087 339.123 306.271 340.936 306.271 340.936C306.154 341.011 306.06 341.116 305.999 341.24C305.938 341.365 305.912 341.503 305.924 341.641C305.933 341.741 305.961 341.837 306.007 341.925C306.053 342.014 306.116 342.092 306.193 342.156C306.269 342.22 306.357 342.268 306.452 342.298C306.547 342.328 306.647 342.338 306.747 342.33C306.747 342.33 309.937 340.376 313.947 337.551C317.958 334.727 323.141 330.912 327.84 326.932C331.662 323.695 334.497 320.49 336.809 317.432C340.646 321.234 341.971 329.407 343.07 337.652C343.637 341.911 344.185 346.151 345.14 349.782C346.094 353.414 347.444 356.479 349.778 358.281C349.937 358.404 350.138 358.459 350.337 358.434C350.537 358.409 350.718 358.305 350.841 358.147C350.964 357.988 351.019 357.787 350.994 357.587C350.969 357.388 350.866 357.207 350.707 357.084C348.819 355.626 347.523 352.884 346.606 349.396C345.689 345.908 345.137 341.717 344.569 337.456C343.469 329.201 342.338 320.732 337.844 316.335C338.075 315.993 338.671 315.583 338.868 315.25C339.925 313.456 340.499 311.756 340.155 310.192C339.81 308.627 338.482 307.425 336.35 306.773C336.06 306.685 335.476 306.173 334.895 305.212C334.314 304.251 333.709 302.899 333.127 301.295C331.964 298.089 330.878 293.884 329.994 289.663C329.11 285.443 328.428 281.201 328.064 277.908C327.881 276.262 327.778 274.853 327.767 273.818C327.761 273.301 327.781 272.876 327.818 272.582C327.854 272.288 327.96 272.115 327.879 272.224C330.015 269.366 331.028 266.955 331.236 264.95C331.445 262.945 330.797 261.338 329.703 260.329C328.609 259.319 327.124 258.887 325.686 259.025L325.686 259.024ZM325.849 260.563C326.879 260.467 327.941 260.759 328.68 261.441C329.419 262.123 329.895 263.171 329.726 264.793C329.562 266.371 328.662 268.531 326.749 271.143C287.099 295.393 228.796 310.501 178.777 289.763C178.731 289.716 178.715 289.622 178.665 289.579C175.813 287.075 174.692 282.831 175.487 280.017C175.885 278.61 176.691 277.591 177.977 277.124C179.263 276.657 181.141 276.742 183.707 277.919C183.725 277.927 183.744 277.935 183.762 277.942C229.411 294.711 275.982 285.418 322.905 262.259C323.019 262.204 323.117 262.121 323.191 262.018C323.816 261.14 324.818 260.659 325.848 260.563L325.849 260.563ZM293.867 344.88C264.257 351.976 235.195 355.383 207.542 348.483C207.346 348.435 207.14 348.466 206.968 348.57C206.796 348.674 206.672 348.842 206.624 349.037C206.576 349.231 206.606 349.437 206.709 349.609C206.812 349.781 206.978 349.905 207.172 349.955C235.182 356.943 264.498 353.48 294.22 346.357C294.317 346.334 294.409 346.291 294.489 346.233C294.57 346.174 294.638 346.1 294.69 346.015C294.742 345.929 294.777 345.835 294.792 345.736C294.808 345.637 294.803 345.536 294.779 345.439C294.732 345.244 294.61 345.076 294.439 344.971C294.268 344.866 294.062 344.834 293.867 344.88Z" fill="#1A1A1A"/>
</g>
</g>
</g>
</svg>
