<svg width="512" height="512" viewBox="0 0 512 512" fill="none" xmlns="http://www.w3.org/2000/svg">
<g id="Eyes4">
<g id="Eyes4_2">
<g id="layer1">
<g id="g95491">
<path id="path95479" d="M205.52 165.682C199.84 174.397 181.52 173.527 172.2 170.079C169.84 164.694 188.81 154.814 205.52 165.682ZM265.34 163.054C258.87 172.776 237.97 173.399 226.95 167.569C224.21 161.522 246.58 150.802 265.34 163.014V163.054Z" fill="white"/>
<path id="path148801" d="M236.94 164.536C236.88 169.614 241.05 172.242 246.27 172.302C251.49 172.361 255.78 169.822 255.84 164.743C255.868 162.267 254.899 159.881 253.146 158.11C251.394 156.34 249.001 155.33 246.495 155.302C243.989 155.275 241.574 156.232 239.782 157.964C237.99 159.695 236.968 162.059 236.94 164.536Z" fill="#333333"/>
<path id="path149038" d="M180.07 165.514C180.07 170.049 183.75 172.43 188.42 172.43C193.09 172.43 196.95 170.207 197 165.662C196.952 163.49 196.051 161.422 194.487 159.895C192.924 158.368 190.821 157.501 188.622 157.478C186.424 157.455 184.303 158.277 182.707 159.771C181.111 161.265 180.165 163.314 180.07 165.484V165.514Z" fill="#333333"/>
<path id="path95483" d="M202.86 169.743C197.19 172.49 177.12 172.322 172.7 170.731C172.528 168.834 172.595 166.922 172.9 165.04C172.58 161.681 186.77 133.561 204.22 162.6C204.31 164.092 205.06 168.321 202.86 169.743ZM266 169.032C251.74 172.233 234 171.117 227.24 169.862C226.88 167.94 226.806 165.976 227.02 164.033C228.26 147.957 258.1 134.055 265.91 162.659L266 169.032Z" stroke="black" stroke-width="3" stroke-linecap="round" stroke-linejoin="round"/>
<path id="path95485" d="M248.41 163.893C248.491 164.648 248.862 165.343 249.446 165.836C250.03 166.328 250.783 166.581 251.55 166.541C251.929 166.581 252.312 166.547 252.678 166.44C253.043 166.333 253.384 166.157 253.68 165.92C253.976 165.683 254.222 165.391 254.404 165.06C254.586 164.729 254.7 164.366 254.74 163.992C254.659 163.236 254.287 162.539 253.701 162.046C253.114 161.553 252.359 161.302 251.59 161.344C250.827 161.269 250.065 161.495 249.47 161.973C248.874 162.45 248.493 163.14 248.41 163.893Z" fill="white"/>
<path id="path149040" d="M190.35 164.932C190.413 165.612 190.744 166.242 191.271 166.685C191.798 167.128 192.479 167.35 193.17 167.303C193.854 167.372 194.537 167.171 195.071 166.743C195.606 166.315 195.946 165.696 196.02 165.02C195.953 164.341 195.622 163.713 195.096 163.27C194.569 162.828 193.889 162.605 193.2 162.649C192.516 162.583 191.834 162.785 191.3 163.212C190.767 163.639 190.425 164.257 190.35 164.932Z" fill="white"/>
<path id="path95487" d="M173.6 163.143C185.1 162.688 193.92 161.858 204.13 162.224C204.57 162.036 198.38 148.529 189.39 149.172C177.91 150.012 174.22 160.001 173.6 163.143ZM227.24 162.155C239.42 162.056 256.94 161.552 264.95 161.236C265.1 158.272 260.66 145.97 248.08 146C232.41 146.069 227.55 160.92 227.24 162.204V162.155Z" fill="white" stroke="black" stroke-width="3" stroke-linecap="round" stroke-linejoin="round"/>
<path id="path95489" d="M242.91 148.372C232.91 150.871 228.34 161.009 229.39 160.594C234.02 160.594 236.93 160.228 239.57 160.376C239.42 160.426 238.5 150.733 245.65 147.947C244.719 147.93 243.791 148.073 242.91 148.372ZM175.91 161.325L185.05 160.86C185.24 160.93 183.35 152.788 189.71 150.881C186.599 150.985 183.599 152.048 181.13 153.921C178.66 155.793 176.846 158.382 175.94 161.325H175.91ZM255.13 172.351C252.23 174.13 249.13 176.561 250.5 181.362C246.38 187.172 225.64 177.41 229.76 171.956C238.186 172.861 246.679 172.993 255.13 172.351Z" fill="#CCCCCC"/>
<path id="path95611" d="M250.03 182.864C234.73 185.275 228.15 176.333 227.2 168.923M183.71 183.319C174.15 182.548 173.6 173.32 173.09 170.207L183.71 183.319Z" stroke="black" stroke-width="3" stroke-linecap="round" stroke-linejoin="round"/>
</g>
</g>
</g>
</g>
</svg>
