<svg width="512" height="512" viewBox="0 0 512 512" fill="none" xmlns="http://www.w3.org/2000/svg">
<g id="Eyes9">
<g id="Eyes9_2">
<g id="layer1">
<g id="g78998">
<path id="path78990" d="M202.03 167.282C196.4 176.747 178.23 177.35 168.65 171.679C166.45 163.142 174.99 140.456 202.03 167.282ZM261.95 164.644C255.47 174.386 234.53 175.008 223.5 169.169C223.11 162.035 256.67 139.715 261.95 164.644Z" fill="white"/>
<path id="path78992" d="M173.67 165.76C173.61 172.429 178.42 176.105 184.55 176.184C190.68 176.263 195.79 172.696 195.86 166.027C195.32 160.276 188.18 159.654 184.79 155.445C178.67 155.376 173.67 159.071 173.67 165.76ZM229.28 163.073C229.2 169.94 234.6 174.247 241.66 174.317C248.72 174.386 254.77 170.216 254.84 163.349C254.91 156.482 250.14 151.7 243.08 151.621C238.66 156.374 231.08 159.308 229.28 163.073Z" fill="#333333"/>
<path id="path78996" d="M184.24 165.375C184.24 166.927 186.18 168.201 188.59 168.231C191 168.261 192.98 167.026 192.99 165.484C193 163.943 191.06 162.658 188.65 162.629C186.24 162.599 184.26 163.834 184.24 165.375ZM242.45 163.024C242.45 164.457 244.45 165.632 246.95 165.662C249.45 165.692 251.5 164.555 251.51 163.123C251.52 161.69 249.51 160.504 247.01 160.485C244.51 160.465 242.46 161.631 242.45 163.024Z" fill="white"/>
<path id="path83219" d="M205.67 158.528C207.67 166.432 201.48 167.42 188.73 158.874C184.73 156.216 178.66 151.898 168 155.722L205.67 158.528ZM218 157.945C216.58 165.296 221.49 168.586 233.62 158.172C237.01 155.208 250 147.956 260.02 152.412L218 157.945ZM168.47 169.12C174.83 178.121 192.21 176.036 201.31 169.624C201.572 168.236 201.572 166.812 201.31 165.424C185.49 161.344 178.14 143.49 168.44 169.12H168.47ZM262.03 164.644C255.55 174.386 234.61 175.009 223.58 169.169C223.321 168.012 223.342 166.81 223.64 165.662C233.36 161.551 246.87 138.174 262.03 164.674V164.644Z" stroke="black" stroke-width="3" stroke-linecap="round" stroke-linejoin="round"/>
</g>
</g>
</g>
</g>
</svg>
