<svg width="512" height="512" viewBox="0 0 512 512" fill="none" xmlns="http://www.w3.org/2000/svg">
<g id="Eyes6">
<g id="Eyes6_2">
<g id="layer1">
<g id="g21813">
<path id="path21805" d="M205.762 167.042C200.102 176.557 181.832 177.17 172.202 171.469C169.822 166.094 188.932 156.095 205.762 167.042ZM266.002 164.394C259.492 174.186 238.432 174.818 227.342 168.939C224.582 162.893 247.112 152.093 266.002 164.394Z" fill="#FFC6C6"/>
<path id="path21807" d="M183.832 165.55C183.832 168.218 185.732 169.69 188.182 169.72C190.632 169.75 192.682 168.327 192.712 165.659C192.778 165.049 192.714 164.432 192.525 163.848C192.336 163.263 192.025 162.725 191.613 162.266C191.2 161.807 190.696 161.438 190.131 161.183C189.566 160.928 188.954 160.793 188.333 160.785C187.712 160.777 187.096 160.898 186.525 161.139C185.954 161.38 185.44 161.736 185.017 162.185C184.593 162.634 184.269 163.165 184.065 163.744C183.861 164.324 183.782 164.939 183.832 165.55ZM241.292 163.792C241.292 166.44 243.292 168.1 246.062 168.129C248.832 168.159 251.122 166.548 251.152 163.9C251.167 162.608 250.661 161.364 249.747 160.44C248.833 159.516 247.585 158.989 246.277 158.975C244.97 158.961 243.71 159.46 242.775 160.363C241.84 161.267 241.307 162.5 241.292 163.792Z" fill="#333333"/>
<path id="path30400" d="M205.761 167.042C200.101 176.557 181.991 176.656 172.361 170.994C172.121 170.066 172.641 167.773 172.901 166.459C175.051 155.591 193.791 138.27 205.761 167.082V167.042ZM266.001 164.394C259.491 174.186 238.431 174.818 227.341 168.939C227.081 167.775 227.105 166.566 227.411 165.412C229.881 154.198 250.351 133.103 266.001 164.424V164.394Z" stroke="black" stroke-width="3" stroke-linecap="round" stroke-linejoin="round"/>
<path id="path22627-2" d="M189.392 166.686C189.392 166.948 189.497 167.2 189.684 167.385C189.872 167.57 190.126 167.674 190.392 167.674C190.523 167.683 190.655 167.665 190.779 167.622C190.904 167.58 191.018 167.514 191.117 167.428C191.215 167.341 191.296 167.237 191.353 167.12C191.41 167.003 191.444 166.876 191.452 166.746C191.452 166.484 191.346 166.232 191.159 166.047C190.971 165.862 190.717 165.758 190.452 165.758C190.32 165.75 190.189 165.767 190.064 165.81C189.94 165.852 189.825 165.918 189.726 166.005C189.628 166.091 189.548 166.196 189.49 166.313C189.433 166.43 189.399 166.557 189.392 166.686ZM247.912 164.829C247.937 165.067 248.056 165.285 248.243 165.437C248.43 165.589 248.671 165.661 248.912 165.639C249.029 165.653 249.148 165.644 249.262 165.612C249.376 165.58 249.483 165.526 249.576 165.454C249.668 165.381 249.746 165.291 249.804 165.189C249.861 165.087 249.898 164.975 249.912 164.859C249.889 164.619 249.771 164.398 249.583 164.244C249.396 164.09 249.154 164.016 248.912 164.038C248.793 164.023 248.673 164.032 248.558 164.064C248.443 164.096 248.335 164.15 248.242 164.224C248.148 164.298 248.071 164.389 248.014 164.493C247.958 164.597 247.923 164.711 247.912 164.829Z" fill="white"/>
<path id="abColor_1" d="M172.892 166.756C183.262 163.901 196.892 164.444 205.152 165.976C205.592 165.778 198.672 150.453 189.622 151.155C178.052 151.935 173.512 163.575 172.892 166.756ZM227.612 165.412C243.102 161.46 257.962 163.199 265.272 163.377C266.162 163.476 257.942 148.181 247.272 148.003C233.842 147.855 226.602 164.711 227.582 165.412H227.612Z" fill="white" stroke="black" stroke-width="3" stroke-linecap="round" stroke-linejoin="round"/>
<path id="shadow" d="M243.902 149.959C234.752 152.202 229.682 163.327 229.902 163.14C233.248 162.436 236.629 161.905 240.032 161.549C239.882 161.549 239.632 152.577 246.832 149.771C245.851 149.678 244.862 149.741 243.902 149.959ZM189.372 152.765C179.372 153.615 175.112 164.622 175.372 164.375C178.702 163.574 181.902 163.742 185.372 163.258C185.372 163.396 184.762 155.196 191.772 152.992C190.989 152.812 190.185 152.736 189.382 152.765H189.372Z" fill="#CCCCCC"/>
</g>
</g>
</g>
</g>
</svg>
