<svg width="512" height="512" viewBox="0 0 512 512" fill="none" xmlns="http://www.w3.org/2000/svg">
<g id="Eyes7">
<g id="Eyes7_2">
<g id="layer1">
<g id="g22629">
<path id="path22621" d="M202.729 168.054C197.079 177.569 178.799 178.181 169.159 172.471C166.989 163.855 187.479 133.976 202.729 168.054ZM262.979 165.416C256.469 175.217 235.409 175.85 224.309 169.971C221.819 161.078 245.429 130.31 262.979 165.416Z" fill="white"/>
<path id="path22623" d="M172.389 167.076C172.389 170.633 174.929 172.599 178.199 172.638C181.469 172.678 184.199 170.771 184.199 167.214C184.199 163.657 181.609 160.742 178.339 160.703C175.069 160.663 172.429 163.519 172.389 167.076ZM244.779 163.578C244.779 167.105 247.519 169.319 251.149 169.358C254.779 169.398 257.899 167.254 257.939 163.716C257.957 161.992 257.282 160.331 256.061 159.099C254.84 157.867 253.174 157.164 251.429 157.146C249.684 157.128 248.003 157.795 246.755 159.001C245.508 160.207 244.797 161.854 244.779 163.578Z" fill="black"/>
<path id="path22625" d="M202.729 168.054C197.079 177.569 178.949 177.668 169.319 172.007C169.089 171.068 169.609 168.776 169.869 167.462C172.009 156.593 190.759 139.263 202.729 168.094V168.054ZM262.979 165.416C256.469 175.218 235.409 175.85 224.309 169.971C224.045 168.807 224.066 167.598 224.369 166.444C226.849 155.22 247.369 134.115 262.979 165.456V165.416Z" stroke="black" stroke-width="3" stroke-miterlimit="15.12"/>
<path id="path22627" d="M173.129 165.13C173.129 166.048 174.289 166.819 175.739 166.839C177.189 166.859 178.369 166.118 178.369 165.189C178.369 164.26 177.219 163.499 175.769 163.48C174.319 163.46 173.139 164.201 173.129 165.13ZM251.799 162.165C251.799 162.976 252.939 163.657 254.369 163.667C255.799 163.677 256.969 163.035 256.979 162.215C256.989 161.395 255.839 160.723 254.399 160.713C252.959 160.703 251.809 161.345 251.799 162.165Z" fill="white"/>
</g>
</g>
</g>
</g>
</svg>
