<svg width="512" height="512" viewBox="0 0 512 512" fill="none" xmlns="http://www.w3.org/2000/svg">
<g id="Eyes5">
<g id="Eyes5_2">
<g id="layer1">
<g id="g89773">
<path id="path89765" d="M205.14 166.143C199.55 176.073 182.83 182.584 171.39 170.589C168.68 161.499 188.8 128.607 205.14 166.143ZM265 162.962C258.47 172.842 241.14 186.556 226.84 168.05C224.35 159.128 247.13 124.062 265 162.962Z" fill="white"/>
<path id="path89769" d="M205.14 166.143C198.57 178.593 178.38 181.952 171.54 168.781C166.76 153.496 195.04 131.245 205.14 166.143ZM263.68 162.319C261.23 181.092 234.81 182.347 226.68 166.113C227.45 143.803 260.45 135.751 263.68 162.319Z" stroke="black" stroke-width="3" stroke-miterlimit="15.12"/>
<path id="path94063" d="M175.76 163.574C175.69 170.115 181.41 174.867 188.14 174.937C191.336 174.937 194.401 173.682 196.661 171.449C198.92 169.217 200.19 166.188 200.19 163.031C200.19 159.873 198.92 156.845 196.661 154.612C194.401 152.379 191.336 151.125 188.14 151.125C181.41 151.046 175.82 157.053 175.75 163.574H175.76ZM232.5 162.724C232.42 169.641 238.5 174.69 245.61 174.769C247.284 174.782 248.945 174.467 250.495 173.843C252.046 173.218 253.456 172.296 254.644 171.131C255.833 169.965 256.775 168.578 257.418 167.051C258.061 165.523 258.391 163.885 258.39 162.23C258.398 158.875 257.057 155.654 254.663 153.275C252.268 150.896 249.016 149.554 245.62 149.544C238.49 149.465 232.62 155.798 232.5 162.724Z" fill="black"/>
<path id="path94065" d="M190.39 158.555C190.429 159.722 190.929 160.827 191.783 161.634C192.638 162.442 193.778 162.886 194.96 162.872C195.54 162.903 196.121 162.82 196.668 162.627C197.216 162.435 197.72 162.137 198.15 161.751C198.581 161.365 198.93 160.899 199.177 160.379C199.424 159.859 199.564 159.296 199.59 158.723C199.553 157.555 199.054 156.447 198.199 155.64C197.344 154.832 196.202 154.389 195.02 154.405C194.439 154.374 193.858 154.458 193.311 154.65C192.763 154.842 192.26 155.14 191.829 155.526C191.399 155.912 191.05 156.378 190.803 156.898C190.556 157.418 190.415 157.981 190.39 158.555ZM248 157.418C248.036 158.655 248.565 159.828 249.471 160.683C250.377 161.537 251.587 162.004 252.84 161.983C253.455 162.016 254.07 161.929 254.65 161.725C255.23 161.521 255.764 161.206 256.22 160.797C256.676 160.388 257.045 159.893 257.306 159.342C257.567 158.791 257.714 158.194 257.74 157.586C257.698 156.351 257.168 155.181 256.263 154.328C255.358 153.474 254.15 153.005 252.9 153.022C252.285 152.988 251.669 153.076 251.089 153.28C250.509 153.483 249.975 153.799 249.519 154.208C249.064 154.617 248.695 155.111 248.434 155.662C248.173 156.214 248.025 156.81 248 157.418Z" fill="white"/>
</g>
</g>
</g>
</g>
</svg>
