<svg width="512" height="512" viewBox="0 0 512 512" fill="none" xmlns="http://www.w3.org/2000/svg">
<g id="Eyes3">
<g id="Eyes3_2">
<g id="layer1">
<g id="g144220">
<path id="abColor_1" d="M206.75 164.629C190.07 174.865 182.38 170.251 173.21 166.101C175 158.394 181 148.129 189.14 147.763C197.28 147.397 206.75 164.629 206.75 164.629ZM267 161.665C250.56 173.324 237.7 170.044 228.46 165.459C225.52 166.299 231.75 147.812 245.85 145.421C254.65 143.939 260.53 152.506 267 161.665Z" fill="white"/>
<path id="Shadow" d="M245.07 146.468C235.95 146.468 230.91 158.591 230.91 158.591C234.23 157.781 239.29 158.591 242.23 158.157C242.28 158.157 242.56 148.78 248.95 146.3C247.655 146.274 246.358 146.333 245.07 146.478V146.468ZM188.9 148.938C179.78 148.938 175.23 160.469 175.23 160.469C178.53 159.668 182.8 159.718 186.23 159.234C186.18 159.115 188.03 150.183 195.46 149.353C194.53 149.185 189.77 148.938 188.91 148.938H188.9Z" fill="#CCCCCC"/>
<path id="path135005" d="M178.1 159.777C178.03 166.694 182.81 171.002 189.1 171.081C195.39 171.16 200.71 166.951 200.78 160.054L178.1 159.777ZM233.66 159.777C233.58 166.634 238.98 170.932 246.03 171.011C253.08 171.091 259.12 166.911 259.2 160.054L233.66 159.777Z" fill="#333333"/>
<path id="ellipse135009" d="M189.891 163.176C189.891 164.619 191.661 165.804 193.891 165.834C196.121 165.863 197.891 164.717 197.891 163.275C197.891 161.832 196.111 160.647 193.891 160.617C191.671 160.587 189.901 161.733 189.891 163.176ZM247.981 161.457C247.981 162.88 249.981 164.065 252.481 164.095C254.981 164.124 257.021 162.978 257.041 161.556C257.061 160.133 255.041 158.937 252.541 158.917C250.041 158.917 248.001 160.024 247.981 161.457Z" fill="white"/>
<path id="path135011" d="M228.89 160.093C240.89 158.928 253.09 159.105 263.81 158.414M175.02 161.161C182.49 160.568 195.27 161.161 204.78 160.479L175.02 161.161ZM207.07 163.65C199.18 173.007 183.29 172.75 173.52 166.871C173.29 165.883 172.81 166.032 173.08 164.678C175.25 153.464 193.28 132.359 207.08 163.69L207.07 163.65ZM266.33 161.289C259.86 171.021 238.94 171.644 227.91 165.804C227.65 164.65 227.674 163.45 227.98 162.307C230.44 151.161 250.78 130.195 266.33 161.319V161.289Z" stroke="black" stroke-width="3" stroke-miterlimit="15.12"/>
</g>
</g>
</g>
</g>
</svg>
