<svg width="512" height="512" viewBox="0 0 512 512" fill="none" xmlns="http://www.w3.org/2000/svg">
<g id="Eyes2">
<g id="Eyes2_2">
<g id="layer1">
<g id="g1062">
<path id="path621540" d="M206.728 163.248C201.078 172.763 182.788 173.375 173.158 167.664C170.998 159.019 191.498 129.17 206.728 163.248ZM266.998 160.59C260.488 170.391 239.428 171.024 228.318 165.145C225.838 156.272 249.448 125.504 266.998 160.59Z" fill="white"/>
<path id="path621542" d="M178.177 161.716C178.117 168.424 182.957 172.12 189.117 172.199C195.277 172.278 200.427 168.691 200.497 161.982C200.567 155.274 195.617 149.79 189.497 149.711C183.377 149.632 178.247 155.066 178.177 161.716ZM234.107 159.018C234.037 165.935 239.457 170.252 246.557 170.321C253.657 170.391 259.747 166.191 259.817 159.295C259.768 155.982 258.41 152.819 256.034 150.48C253.658 148.142 250.452 146.813 247.099 146.777C243.745 146.741 240.511 148.001 238.084 150.287C235.657 152.574 234.23 155.707 234.107 159.018Z" fill="#333333"/>
<path id="ellipse621546" d="M189.317 161.923C189.317 163.316 191.067 164.472 193.247 164.502C195.437 164.502 197.247 163.415 197.247 162.012C197.247 160.619 195.507 159.463 193.317 159.433C191.127 159.404 189.317 160.52 189.317 161.923ZM247.377 158.959C247.377 160.402 249.377 161.587 251.907 161.617C254.417 161.617 256.477 160.5 256.487 159.058C256.487 157.625 254.487 156.43 251.957 156.4C249.427 156.37 247.387 157.526 247.377 158.959Z" fill="white"/>
<path id="abColor_1" d="M174.678 159.868C187.378 155.511 196.588 155.649 203.858 157.892C203.938 157.892 198.918 146.865 190.528 147.33C178.878 147.933 176.118 158.179 174.678 159.868ZM230.408 156.608C243.108 152.25 253.628 153.772 263.748 154.74C263.828 154.74 257.388 143.961 248.468 144C235.748 144.059 230.848 156.716 230.408 156.608Z" fill="#FF1515" stroke="black" stroke-width="3" stroke-linecap="round" stroke-linejoin="round"/>
<path id="shadow" d="M246.517 145.403C237.347 145.403 232.387 154.296 232.387 154.296C235.727 153.486 239.227 152.685 242.187 152.32C242.187 152.32 242.787 148.229 249.187 145.729C248.309 145.542 247.415 145.433 246.517 145.403ZM190.457 148.595C181.277 148.595 176.327 157.487 176.327 157.487C179.647 156.687 183.077 155.64 186.517 155.155C186.517 155.037 186.217 150.304 193.697 149.474C192.638 149.112 191.555 148.818 190.457 148.595Z" fill="black" fill-opacity="0.3"/>
<path id="path621544" d="M206.728 163.248C201.078 172.763 182.948 172.862 173.318 167.2C173.078 166.212 173.598 163.969 173.858 162.655C176.008 151.787 194.758 134.456 206.728 163.287V163.248ZM266.998 160.59C260.488 170.392 239.428 171.024 228.318 165.145C228.063 163.98 228.087 162.772 228.388 161.618C230.868 150.393 251.388 129.289 266.998 160.63V160.59Z" stroke="black" stroke-width="3" stroke-miterlimit="15.12"/>
</g>
</g>
</g>
</g>
</svg>
