<svg width="512" height="512" viewBox="0 0 512 512" fill="none" xmlns="http://www.w3.org/2000/svg">
<g id="Eyes1">
<g id="Eyes1_2">
<g id="layer1">
<g id="g1088">
<path id="path1076" d="M207.636 163.057C201.986 172.572 183.706 173.185 174.066 167.474C171.916 158.858 192.406 128.979 207.636 163.057ZM267.906 160.409C261.396 170.211 240.336 170.843 229.236 164.964C226.746 156.081 250.356 125.314 267.906 160.409Z" fill="white"/>
<path id="path1078" d="M179.096 161.526C179.026 168.235 183.866 171.93 190.026 172.009C196.186 172.088 201.336 168.501 201.406 161.802C201.476 155.103 196.536 149.6 190.406 149.531C184.276 149.462 179.156 154.827 179.096 161.526ZM234.996 158.828C234.926 165.745 240.356 170.062 247.456 170.132C254.556 170.201 260.636 166.011 260.706 159.105C260.657 155.792 259.299 152.629 256.924 150.291C254.548 147.952 251.341 146.623 247.988 146.587C244.635 146.551 241.4 147.811 238.973 150.097C236.546 152.384 235.119 155.517 234.996 158.828Z" fill="#333333"/>
<path id="path1080" d="M207.636 163.057C201.986 172.572 183.856 172.671 174.226 167.01C173.996 166.071 174.516 163.779 174.776 162.465C176.916 151.596 195.666 134.266 207.636 163.097V163.057ZM267.906 160.409C261.396 170.211 240.336 170.843 229.236 164.964C228.972 163.801 228.993 162.591 229.296 161.437C231.776 150.213 252.296 129.108 267.906 160.449V160.409Z" stroke="black" stroke-width="3" stroke-miterlimit="15.12"/>
<path id="ellipse1082" d="M189.757 161.14C189.757 162.702 191.697 163.986 194.127 164.006C196.557 164.026 198.537 162.8 198.557 161.249C198.577 159.698 196.617 158.413 194.187 158.384C191.757 158.354 189.767 159.589 189.757 161.14ZM248.297 158.809C248.297 160.251 250.297 161.437 252.827 161.467C255.357 161.496 257.397 160.35 257.407 158.907C257.417 157.465 255.407 156.279 252.887 156.26C250.367 156.24 248.307 157.376 248.297 158.809Z" fill="white"/>
</g>
</g>
</g>
</g>
</svg>
