<svg width="512" height="512" viewBox="0 0 512 512" fill="none" xmlns="http://www.w3.org/2000/svg">
<g id="Eyes10">
<g id="Eyes10_2">
<g id="layer1">
<g id="g84670">
<path id="path84660" d="M203.75 168.432C187.07 178.668 179.38 174.064 170.21 169.904C172 162.197 185.81 148.789 196.07 151.517C202.07 153.117 203.75 168.432 203.75 168.432ZM264 165.468C247.56 177.127 234.7 173.846 225.47 169.262C222.47 170.102 228.59 150.38 242.85 149.224C251.28 148.552 257.43 156.516 264 165.468Z" fill="white"/>
<path id="path84662" d="M239.541 150.014C230.411 148.325 228.211 161.179 228.221 161.367C231.541 160.567 233.321 163.887 236.221 163.491C236.541 164.351 235.221 154.767 241.001 150.251C240.071 150.084 240.351 150.172 239.501 150.014H239.541ZM187.401 153.552C182.521 156.54 178.261 160.42 174.851 164.983C176.601 166.752 182.801 165.971 186.251 165.487C186.251 165.369 187.851 153.176 195.251 152.346C194.891 151.358 188.791 152.741 187.371 153.591L187.401 153.552Z" fill="#CCCCCC"/>
<path id="path84664" d="M175.95 165.596C175.89 172.512 179.86 174.805 186.11 174.884C192.36 174.963 197.72 170.764 197.79 163.857L175.95 165.596ZM231.47 162.375C231.39 169.232 236.03 174.726 243.08 174.795C250.13 174.864 256.17 170.694 256.25 163.837L231.47 162.375Z" fill="#333333"/>
<path id="path84666" d="M186.891 166.959C186.891 168.402 188.661 169.588 190.891 169.617C193.121 169.647 194.891 168.501 194.891 167.058C194.891 165.616 193.111 164.43 190.891 164.4C188.671 164.371 186.951 165.537 186.891 166.959ZM244.951 165.26C244.951 166.693 246.951 167.868 249.451 167.898C251.951 167.928 253.991 166.791 254.011 165.359C254.031 163.926 252.011 162.75 249.511 162.721C247.011 162.721 244.971 163.827 244.951 165.26Z" fill="white"/>
<path id="path84668" d="M223.45 159.371C231.45 166.011 248.52 165.299 261.6 162.454M171.63 165.833C179.63 165.536 193.11 166.771 205.33 160.092L171.63 165.833ZM204.07 167.453C196.18 176.81 180.29 176.553 170.52 170.684C170.29 169.696 169.81 169.834 170.08 168.481C176.81 159.904 201.39 133.168 204.08 167.493L204.07 167.453ZM263.33 165.131C256.86 174.863 235.95 175.486 224.95 169.647C224.69 168.492 224.714 167.293 225.02 166.149C234.02 138.484 249.3 148.907 263.37 165.161L263.33 165.131Z" stroke="black" stroke-width="3" stroke-linecap="round" stroke-linejoin="round"/>
</g>
</g>
</g>
</g>
</svg>
