<svg width="512" height="512" viewBox="0 0 512 512" fill="none" xmlns="http://www.w3.org/2000/svg">
<g id="Eyes8">
<g id="Eyes8_2">
<g id="layer1">
<g id="g64290">
<path id="path64282" d="M208.6 169.565C202.72 179.445 183.69 180.107 173.66 174.169C171.23 165.514 192.11 138.53 208.6 169.565ZM271.34 166.798C264.56 177.005 242.63 177.667 231.08 171.541C228.45 162.332 252.12 130.882 271.34 166.798Z" fill="white"/>
<path id="path64284" d="M178.89 167.974C178.95 174.95 183.89 178.843 190.27 178.843C196.65 178.843 202.05 175.197 202.12 168.221C202.19 161.246 196.82 159.22 190.47 160.129C183.86 161.117 178.83 161.601 178.89 167.935V167.974ZM237.1 165.168C236.53 172.322 242.67 176.857 250.1 176.936C257.53 177.015 263.82 172.638 263.9 165.455C263.98 158.271 259.18 158.815 251.8 159.101C244.42 159.388 237.52 159.981 237.1 165.168Z" fill="#333333"/>
<path id="path64288" d="M189.99 167.569C189.99 169.189 191.99 170.533 194.54 170.533C197.09 170.533 199.13 169.268 199.15 167.658C199.17 166.047 197.15 164.694 194.59 164.694C192.03 164.694 190 165.959 189.99 167.569ZM250.92 165.148C250.92 166.65 253.01 167.885 255.63 167.915C258.25 167.945 260.39 166.749 260.41 165.247C260.43 163.745 258.31 162.51 255.69 162.49C253.07 162.471 250.94 163.646 250.92 165.148Z" fill="white"/>
<path id="path77245" d="M246.71 153.854C244.63 155.485 245.83 158.874 245.85 158.903C239.85 160.148 235.08 163.32 231.57 165.296C234.29 158.558 238.41 156.917 246.71 153.854ZM190.54 155.04C187.81 157.016 187.42 160.227 188.21 159.842C182.21 161.087 179.84 163.132 176.33 165.098C179.03 159.862 181.23 156.018 190.54 155.04Z" fill="#CCCCCC"/>
<path id="path70740" d="M175.2 163.725C181.69 154.249 190.37 148.904 204.53 160.761L175.2 163.725ZM234.53 160.039C244.82 149.615 255 147.975 266.79 160.227L234.53 160.039ZM176.04 165.454C170.23 166.323 165.89 162.154 164.6 159.526L176.04 165.454ZM174.17 169.248C167.27 169.712 163.03 166.343 162.55 164.713L174.17 169.248ZM172.71 172.765C166.2 174.247 163.58 172.933 161 171.036L172.71 172.765ZM260.71 160.682C267.61 161.146 271.54 157.184 272.02 155.563L260.71 160.682ZM267.02 163.794C273.92 164.258 277.85 160.286 278.33 158.666L267.02 163.794ZM270.28 167.697C276.78 169.189 279.14 167.193 281.72 165.286L270.28 167.697ZM208.61 169.564C201.03 179.445 182.38 179.534 173.83 173.635C173.67 172.642 173.753 171.626 174.07 170.671C178.58 162.48 195.99 155.01 208.61 169.574V169.564ZM271.35 166.798C264.57 177.004 242.64 177.666 231.09 171.54C230.81 170.552 230.33 170.127 230.64 168.714C234.45 163.992 254.51 152.718 271.35 166.798Z" stroke="#FF9696" stroke-width="3" stroke-linecap="round" stroke-linejoin="round"/>
</g>
</g>
</g>
</g>
</svg>
