<svg width="512" height="512" viewBox="0 0 512 512" fill="none" xmlns="http://www.w3.org/2000/svg">
<g id="Glasses6">
<g id="Glasses6_2">
<g id="layer1">
<g id="g700125">
<g id="path708824">
<path d="M276.262 175.368L320.772 169.44L320.952 154.827L274.302 145.114" fill="#6F6F6F"/>
<path d="M276.262 175.368L320.772 169.44L320.952 154.827L274.302 145.114" stroke="black" stroke-linecap="round" stroke-linejoin="round"/>
</g>
<path id="rect706623" d="M207.351 153.137H220.141V165.369H207.351V153.137ZM189.351 141.122C176.671 139.453 158.271 143.257 160.651 162.691C158.031 177.305 170.871 183.608 182.821 184.221C186.871 184.162 201.021 173.501 209.981 170.033L210.761 165.448L207.391 165.349C207.181 158.591 207.311 152.139 208.581 152.831C204.691 143.938 197.581 141.122 189.351 141.122ZM255.611 138.287C241.361 136.311 222.701 144.63 222.451 160.785C222.451 178.569 241.201 186.355 255.611 183.411C270.001 183.411 281.661 173.313 281.661 160.854C281.661 148.394 270.011 138.287 255.621 138.287H255.611Z" fill="#6F6F6F" stroke="black" stroke-linecap="round" stroke-linejoin="round"/>
<g id="path703129">
<path d="M243.692 138.158C238.547 138.156 233.547 139.84 229.474 142.945C225.401 146.05 222.484 150.402 221.181 155.319C219.878 160.236 220.262 165.442 222.272 170.121C224.282 174.8 227.806 178.688 232.291 181.178C236.777 183.667 241.971 184.617 247.061 183.879C252.151 183.14 256.85 180.756 260.422 177.097C263.994 173.439 266.238 168.714 266.802 163.662C267.367 158.61 266.22 153.515 263.542 149.175L278.892 150.341C276.662 147.199 274.982 144.077 267.402 140.737L253.632 140.371C250.525 138.916 247.13 138.16 243.692 138.158ZM178.542 140.994C167.692 140.994 158.892 150.766 158.892 162.82C158.892 174.874 167.692 184.656 178.542 184.656C189.392 184.656 198.192 174.884 198.192 162.82C198.192 150.756 189.392 140.994 178.542 140.994ZM242.272 142.298C246.043 142.298 249.73 143.403 252.866 145.474C256.002 147.544 258.447 150.487 259.89 153.93C261.333 157.373 261.711 161.161 260.975 164.816C260.239 168.471 258.423 171.828 255.756 174.464C253.089 177.099 249.691 178.893 245.992 179.62C242.293 180.347 238.458 179.974 234.974 178.548C231.489 177.122 228.511 174.707 226.415 171.608C224.32 168.51 223.202 164.867 223.202 161.14C223.2 158.665 223.693 156.215 224.651 153.928C225.608 151.642 227.013 149.564 228.784 147.814C230.555 146.064 232.658 144.676 234.972 143.73C237.287 142.783 239.767 142.297 242.272 142.298ZM177.342 144.926C186.232 144.926 193.452 152.939 193.452 162.82C193.452 172.7 186.232 180.723 177.342 180.723C168.452 180.723 161.232 172.71 161.232 162.82C161.232 152.93 168.442 144.926 177.342 144.926ZM253.922 140.48C257.082 141.755 260.152 145.895 263.482 149.076L253.922 140.48Z" fill="#CCCCCC"/>
<path d="M253.922 140.48C257.082 141.755 260.152 145.895 263.482 149.076M243.692 138.158C238.547 138.156 233.547 139.84 229.474 142.945C225.401 146.05 222.484 150.402 221.181 155.319C219.878 160.236 220.262 165.442 222.272 170.121C224.282 174.8 227.806 178.688 232.291 181.178C236.777 183.667 241.971 184.617 247.061 183.879C252.151 183.14 256.85 180.756 260.422 177.097C263.994 173.439 266.238 168.714 266.802 163.662C267.367 158.61 266.22 153.515 263.542 149.175L278.892 150.341C276.662 147.199 274.982 144.077 267.402 140.737L253.632 140.371C250.525 138.916 247.13 138.16 243.692 138.158ZM178.542 140.994C167.692 140.994 158.892 150.766 158.892 162.82C158.892 174.874 167.692 184.656 178.542 184.656C189.392 184.656 198.192 174.884 198.192 162.82C198.192 150.756 189.392 140.994 178.542 140.994ZM242.272 142.298C246.043 142.298 249.73 143.403 252.866 145.474C256.002 147.544 258.447 150.487 259.89 153.93C261.333 157.373 261.711 161.161 260.975 164.816C260.239 168.471 258.423 171.828 255.756 174.464C253.089 177.099 249.691 178.893 245.992 179.62C242.293 180.347 238.458 179.974 234.974 178.548C231.489 177.122 228.511 174.707 226.415 171.608C224.32 168.51 223.202 164.867 223.202 161.14C223.2 158.665 223.693 156.215 224.651 153.928C225.608 151.642 227.013 149.564 228.784 147.814C230.555 146.064 232.658 144.676 234.972 143.73C237.287 142.783 239.767 142.297 242.272 142.298V142.298ZM177.342 144.926C186.232 144.926 193.452 152.939 193.452 162.82C193.452 172.7 186.232 180.723 177.342 180.723C168.452 180.723 161.232 172.71 161.232 162.82C161.232 152.93 168.442 144.926 177.342 144.926V144.926Z" stroke="black" stroke-linecap="round" stroke-linejoin="round"/>
</g>
<path id="path715595" d="M260.092 162.257C259.222 173.55 251.412 176.663 249.482 177.078C241.727 178.651 233.671 177.848 226.392 174.776C220.022 171.92 215.062 168.847 214.712 161.753C214.412 155.746 218.842 151.359 225.712 148.484C234.442 144.818 245.572 142.229 250.232 144.986C256.512 148.701 260.742 154.382 260.132 162.217L260.092 162.257Z" fill="url(#paint0_linear_179_101)" stroke="#999999" stroke-linecap="round" stroke-linejoin="round"/>
<path id="circle703127" d="M192.492 162.692C191.862 172.454 187.492 178.333 178.192 178.362C173.156 178.507 168.129 177.873 163.292 176.485C155.372 173.995 148.882 171.673 149.002 163.986C149.102 156.981 154.422 154.205 162.552 150.677C170.682 147.15 179.882 145.875 184.202 148.01C191.882 151.804 192.632 160.498 192.492 162.692Z" fill="url(#paint1_linear_179_101)" stroke="#999999" stroke-linecap="round" stroke-linejoin="round"/>
<path id="path716511" d="M186.632 140.995C196.992 140.995 205.382 150.618 205.382 162.475C205.399 166.326 204.48 170.124 202.702 173.551M274.652 157.693L286.032 158.552L285.752 163.621L274.702 163.315L274.652 157.693ZM252.652 138.169C264.912 138.169 274.842 148.287 274.842 160.775C274.908 166.17 273.001 171.408 269.472 175.524C265.943 179.641 261.028 182.361 255.632 183.184L252.652 138.169Z" stroke="black" stroke-linecap="round" stroke-linejoin="round"/>
<path id="path709706" d="M223.122 153.068C219.572 153.068 216.682 156.951 216.682 161.743C216.682 166.535 219.572 170.418 223.122 170.418C226.672 170.418 229.562 166.535 229.562 161.743C229.562 156.951 226.672 153.068 223.122 153.068ZM157.212 155.647C153.822 155.647 151.082 159.254 151.082 163.69C151.082 168.136 153.822 171.733 157.212 171.733C160.602 171.733 163.342 168.136 163.342 163.69C163.342 159.244 160.592 155.647 157.212 155.647Z" fill="#333333" stroke="black" stroke-linecap="round" stroke-linejoin="round"/>
<path id="ellipse710061" d="M225.392 153.345C224.653 153.405 223.968 153.75 223.484 154.304C223 154.858 222.755 155.578 222.802 156.309C222.755 157.04 223 157.759 223.484 158.314C223.968 158.868 224.653 159.212 225.392 159.273C226.132 159.215 226.82 158.871 227.306 158.317C227.792 157.762 228.039 157.041 227.992 156.309C228.039 155.577 227.792 154.855 227.306 154.301C226.82 153.746 226.132 153.403 225.392 153.345ZM160.012 157.06C159.39 156.963 158.754 157.056 158.188 157.329C157.623 157.601 157.155 158.038 156.849 158.581C156.543 159.124 156.414 159.747 156.478 160.365C156.542 160.984 156.797 161.568 157.208 162.038C157.619 162.509 158.167 162.843 158.776 162.996C159.386 163.149 160.029 163.113 160.617 162.893C161.206 162.673 161.712 162.28 162.067 161.767C162.422 161.254 162.608 160.645 162.602 160.024C162.646 159.294 162.4 158.575 161.917 158.022C161.433 157.468 160.749 157.123 160.012 157.06Z" fill="white"/>
</g>
</g>
</g>
</g>
<defs>
<linearGradient id="paint0_linear_179_101" x1="237.299" y1="160.728" x2="259.034" y2="160.69" gradientUnits="userSpaceOnUse">
<stop stop-color="white"/>
<stop offset="1" stop-color="#FFBFBF"/>
</linearGradient>
<linearGradient id="paint1_linear_179_101" x1="5364.5" y1="12044.6" x2="5622.49" y2="12066.2" gradientUnits="userSpaceOnUse">
<stop stop-color="white"/>
<stop offset="1" stop-color="#FFBFBF"/>
</linearGradient>
</defs>
</svg>
