<svg width="512" height="512" viewBox="0 0 512 512" fill="none" xmlns="http://www.w3.org/2000/svg">
<g id="Glasses4">
<g id="Glasses4_2">
<g id="layer1">
<g id="g8806">
<path id="path363125" d="M282.87 139L155 142.527L155.15 155.283C156.62 163.889 162.04 176.674 170.44 179.293L189.8 179.174C213.69 141.431 226.47 180.103 233.48 179.174H251.4C271.73 177.366 276.17 161.547 282.9 155.411L282.87 139ZM286.72 139.356V154.463L322.01 153.05C327.5 150.857 324.01 147.823 322.59 146.302L286.72 139.356Z" fill="black" stroke="black" stroke-width="3"/>
<path id="path296043" d="M254.26 139.672L238.98 176.773L235.8 176.645L251.11 139.721L254.26 139.672ZM270.04 139.672L254.76 176.773L242.81 176.645L258.12 139.721L270.04 139.672ZM190.11 141.776L175.87 176.773L172.69 176.645L186.96 141.826L190.11 141.776ZM204.11 141.776L189.87 176.773L179.67 176.645L193.94 141.826L204.11 141.776Z" fill="#F2F2F2"/>
</g>
</g>
</g>
</g>
</svg>
