<svg width="512" height="512" viewBox="0 0 512 512" fill="none" xmlns="http://www.w3.org/2000/svg">
<g id="Glasses7">
<g id="Glasses7_2">
<g id="layer1">
<g id="g621425">
<path id="path640547" opacity="0.94" d="M195.139 137.652C178.409 132.553 155.259 132.771 154.469 162.274C153.719 189.554 171.338 187.746 181.618 187.4C185.888 181.047 193.089 179.663 202.159 173.221C203.369 170.326 205.739 168.39 211.409 167.165C217.909 166.71 228.898 164.665 234.258 170.751C249.728 201.707 284.949 188.437 294.999 177.668C309.758 161.859 294.438 127.089 256.998 136.071C236.898 140.892 216.999 144.301 195.099 137.622L195.139 137.652Z" fill="#1A1A1A"/>
<path id="path643041" d="M298.659 179.486L322.719 169.131C324.649 164.783 323.609 161.553 322.949 158.173L301.379 147.601C290.189 135.409 278.599 132.03 270.809 132C255.479 133.551 246.029 137.197 237.869 138.304C217.359 142.898 193.869 133.798 193.869 133.798C178.799 131.239 165.949 131.437 161.049 141.466C170.739 134.421 182.139 134.391 194.269 137.335C194.269 137.335 207.899 141.288 217.979 141.9C228.059 142.513 242.699 140.804 256.869 136.792C265.277 134.388 274.253 134.787 282.409 137.928C282.249 137.691 298.709 143.195 300.979 159.27C303.509 177.164 283.429 186.194 275.329 188.003C250.439 193.506 237.449 179.782 237.719 175.721C237.719 175.721 237.069 173.103 233.199 169.605C229.329 166.107 215.359 167.056 211.589 166.888C207.819 166.72 202.229 172.441 202.229 172.441C214.609 170.781 232.289 166.513 243.529 185.147C247.839 192.755 270.029 193.486 275.229 191.886C283.789 189.257 291.509 187.558 298.679 179.496L298.659 179.486ZM159.249 183.23C164.189 191.718 172.089 191.263 179.709 191.668L180.239 187.973C169.649 188.566 163.979 186.323 159.249 183.23Z" fill="#010100"/>
<path id="path629665" d="M180.199 187.944C155.719 189.228 154.719 176.917 154.719 162.136C154.719 147.355 161.499 135.301 179.719 135.301C184.26 135.297 188.783 135.865 193.179 136.99C217.949 145.458 238.719 141.357 258.239 136.358C261.396 135.583 264.636 135.192 267.889 135.192C286.149 135.192 300.949 147.177 300.949 161.958C300.949 176.739 286.149 188.478 267.889 188.813C250.649 189.139 246.039 188.813 233.889 170.1C231.229 166.987 218.619 166.563 213.379 167.076C211.152 167.009 208.946 167.522 206.982 168.562C205.018 169.603 203.365 171.135 202.189 173.005L180.199 187.944ZM202.189 173.153C205.098 172.108 208.148 171.492 211.239 171.325C234.869 170.683 239.579 178.301 240.779 181.205C242.899 186.422 251.169 192.163 257.689 192.074C281.599 194.85 304.159 184.17 304.479 162.116C304.249 145.497 289.359 132.03 270.699 132.03C267.367 132.03 264.051 132.472 260.839 133.344C240.839 138.956 219.509 143.561 194.189 134.056C189.736 132.786 185.124 132.144 180.489 132.149C161.829 132.149 153.349 146.891 154.039 163.49C154.949 185.602 161.589 191.718 179.839 191.54C179.849 190.236 180.153 188.95 180.729 187.776L202.189 173.153ZM300.019 146.772L322.889 158.283C324.429 164.675 324.349 168.282 322.769 169.319L298.419 179.802C306.939 167.6 304.179 154.489 300.019 146.772Z" stroke="#EA9C00" stroke-width="3" stroke-linecap="round" stroke-linejoin="round"/>
<path id="path647615" d="M194.719 140.151C178.809 135.092 155.769 136.031 156.719 163.252C157.579 187.894 171.279 185.058 180.719 184.771C184.489 179.979 194.139 176.551 200.949 172.46C201.694 170.699 202.875 169.15 204.382 167.956C205.89 166.761 207.677 165.959 209.579 165.623C215.869 164.418 231.889 162.965 236.199 169.081C252.649 193.328 284.549 185.256 293.649 175.83C307.109 161.859 291.329 130.014 257.839 139.321C238.949 144.558 216.569 147.107 194.689 140.151H194.719Z" fill="url(#paint0_linear_179_92)"/>
<path id="ellipse656345" d="M278.959 171.383C290.391 171.383 299.659 162.89 299.659 152.413C299.659 141.936 290.391 133.442 278.959 133.442C267.526 133.442 258.259 141.936 258.259 152.413C258.259 162.89 267.526 171.383 278.959 171.383Z" fill="white" fill-opacity="0.31"/>
</g>
</g>
</g>
</g>
<defs>
<linearGradient id="paint0_linear_179_92" x1="238.129" y1="85.3454" x2="226.721" y2="170.349" gradientUnits="userSpaceOnUse">
<stop stop-color="#FFBD07"/>
<stop offset="1" stop-color="white" stop-opacity="0"/>
</linearGradient>
</defs>
</svg>
