<svg width="512" height="512" viewBox="0 0 512 512" fill="none" xmlns="http://www.w3.org/2000/svg">
<g id="Glasses5">
<g id="Glasses5_2">
<g id="layer1">
<g id="g679499">
<path id="rect679888" d="M186.44 182.172H161.93C161.02 182.175 160.119 182 159.277 181.657C158.436 181.315 157.671 180.811 157.027 180.176C156.384 179.541 155.873 178.786 155.525 177.955C155.177 177.124 154.999 176.234 155 175.335V147.847C154.997 146.947 155.175 146.056 155.522 145.224C155.869 144.392 156.38 143.636 157.024 143C157.668 142.363 158.433 141.859 159.275 141.516C160.117 141.173 161.019 140.997 161.93 141H201.18C205.02 141 208.11 145.94 208.08 149.715C209.5 147.244 231.22 146.523 231.91 149.715C231.98 145.97 235.07 141.04 238.91 141.04H278.17C279.081 141.037 279.983 141.212 280.825 141.555C281.667 141.899 282.432 142.403 283.076 143.039C283.72 143.676 284.231 144.431 284.578 145.263C284.925 146.095 285.103 146.987 285.1 147.887V151.118L288.9 151.434L321.21 155.455L325.01 166.027C323.74 168.853 319.81 168.399 317.2 165.375L288.9 169.268L285.1 169.387V175.374C285.101 176.273 284.923 177.164 284.575 177.995C284.227 178.825 283.717 179.58 283.073 180.215C282.429 180.851 281.664 181.354 280.823 181.697C279.982 182.039 279.08 182.214 278.17 182.212H238.9C237.991 182.214 237.09 182.039 236.249 181.696C235.408 181.354 234.644 180.85 234.001 180.215C233.358 179.579 232.848 178.825 232.501 177.994C232.155 177.163 231.977 176.273 231.98 175.374V167.075C232.98 160.158 207.41 158.647 208.18 167.272C204.3 174.021 191.05 177.173 186.44 182.172Z" fill="white" stroke="black" stroke-linecap="round" stroke-linejoin="round"/>
<path id="path695542" d="M162.331 142.374C158.501 142.374 156.271 143.796 156.271 147.581V174.663L272.721 142.225L239.431 142.077C235.591 142.077 232.371 147.205 232.301 150.97C231.611 147.818 208.851 148.993 207.441 151.454C207.441 147.67 204.581 142.828 200.741 142.789L162.331 142.374ZM321.33 159.17L280.441 155.692L234.221 177.805C234.843 178.786 235.707 179.595 236.732 180.157C237.756 180.718 238.909 181.014 240.081 181.016L276.981 180.888C280.811 180.888 282.98 177.726 283.9 174.05L284.061 169.347L284.321 168.092L318.041 163.498C319.641 165.948 320.331 167.391 323.661 165.741L321.33 159.17ZM207.421 166.897C208.421 161.769 212.421 161.739 215.721 160.514L215.431 156.503C195.931 162.49 178.711 173.981 164.081 181.204H186.26C190.78 176.353 203.241 173.408 207.421 166.897Z" fill="#F1F1F1"/>
<path id="rect680113" d="M274.17 145.18H242.89C239.842 145.18 237.37 147.622 237.37 150.634V172.539C237.37 175.551 239.842 177.993 242.89 177.993H274.17C277.219 177.993 279.69 175.551 279.69 172.539V150.634C279.69 147.622 277.219 145.18 274.17 145.18Z" fill="#FF0000" stroke="black" stroke-linecap="round" stroke-linejoin="round"/>
<path id="rect680153" d="M165.91 145.18H197.2C197.925 145.178 198.644 145.319 199.314 145.592C199.984 145.866 200.593 146.268 201.106 146.774C201.619 147.281 202.025 147.883 202.302 148.545C202.579 149.207 202.721 149.917 202.72 150.634V172.371C201.31 173.537 198.35 175.078 191.9 178.032H165.9C165.175 178.034 164.456 177.893 163.786 177.62C163.116 177.346 162.507 176.945 161.994 176.438C161.481 175.931 161.074 175.329 160.797 174.667C160.52 174.005 160.379 173.295 160.38 172.578V150.634C160.379 149.916 160.521 149.206 160.798 148.543C161.076 147.88 161.483 147.278 161.997 146.771C162.511 146.264 163.121 145.862 163.793 145.589C164.464 145.316 165.184 145.177 165.91 145.18Z" fill="#0000FF" stroke="black" stroke-linecap="round" stroke-linejoin="round"/>
<path id="path686886" d="M250.45 176.915L270.45 146.286L251.27 146.227L238.27 167.41C238.21 178.832 240.2 177.093 250.42 176.945L250.45 176.915Z" fill="#FF8F8F"/>
<path id="path693730" d="M173.48 176.915L193.48 146.286L174.3 146.227L161.3 167.41C161.24 178.832 163.23 177.093 173.46 176.945L173.48 176.915Z" fill="#8F8FFF"/>
</g>
</g>
</g>
</g>
</svg>
