<svg width="512" height="512" viewBox="0 0 512 512" fill="none" xmlns="http://www.w3.org/2000/svg">
<g id="Glasses1">
<g id="Glasses1_2">
<g id="layer1">
<g id="g1849">
<path id="path621540-2" d="M207.331 166.096C201.161 176.47 181.242 177.132 170.742 170.917C168.392 161.531 190.731 128.925 207.331 166.096ZM273.002 163.201C265.902 173.881 243.001 174.563 230.861 168.141C228.151 158.497 253.882 124.973 273.002 163.201Z" fill="white"/>
<path id="path530256" d="M276.442 135.278C276.442 135.278 285.772 131.83 285.552 148.479C285.332 165.127 283.302 184.957 283.302 184.957L240.012 185.54L234.012 171.293C234.012 171.293 251.632 173.16 257.692 171.638C263.752 170.117 274.592 166.491 274.592 166.491C274.592 166.491 270.592 153.399 264.282 150.524C260.207 148.602 256.454 146.076 253.152 143.034C253.152 143.034 261.652 136.009 267.692 136.009C270.611 136.111 273.532 135.866 276.392 135.278H276.442Z" fill="#CCCCCC"/>
<path id="path621542-7" d="M176.221 164.426C176.151 171.737 181.421 175.769 188.131 175.848C194.841 175.927 200.461 172.024 200.531 164.722C200.601 157.421 195.221 151.433 188.531 151.354C181.841 151.275 176.291 157.124 176.221 164.426ZM237.161 161.462C237.081 168.991 243.001 173.704 250.731 173.792C258.461 173.881 265.101 169.287 265.181 161.768C265.222 158.099 263.787 154.565 261.19 151.942C258.594 149.319 255.049 147.823 251.336 147.782C247.623 147.741 244.046 149.16 241.391 151.725C238.737 154.291 237.223 157.793 237.181 161.462H237.161Z" fill="#333333"/>
<path id="ellipse621546-0" d="M188.102 161.906C188.102 163.428 190.002 164.693 192.382 164.712C194.762 164.732 196.702 163.537 196.722 162.015C196.722 160.484 194.812 159.229 192.432 159.199C190.052 159.169 188.112 160.385 188.102 161.906ZM251.362 158.725C251.362 160.296 253.552 161.59 256.292 161.62C259.032 161.649 261.292 160.404 261.292 158.833C261.292 157.263 259.102 155.968 256.362 155.939C253.622 155.909 251.362 157.154 251.362 158.725Z" fill="white"/>
<path id="path621544-3" d="M207.331 166.096C201.161 176.47 181.411 176.579 170.911 170.354C170.661 169.366 171.231 166.846 171.511 165.414C173.851 153.557 194.281 134.685 207.331 166.105V166.096ZM273.001 163.201C265.901 173.881 243.001 174.563 230.861 168.141C230.571 166.873 230.595 165.554 230.931 164.297C233.631 152.075 255.931 129.073 273.001 163.181V163.201Z" stroke="#999999" stroke-width="3" stroke-miterlimit="15.12"/>
<path id="path1569" d="M279.602 131L165.002 132.877C159.292 133.678 154.902 135.841 155.002 142.827L155.772 182.349C156.822 189.611 160.472 191.31 166.342 192.091L177.162 192.318C177.184 189.708 178.157 187.194 179.902 185.234C179.032 185.234 169.492 185.629 164.032 184.542C158.302 183.406 160.132 180.215 160.132 180.215H186.632L182.792 183.179C184.353 182.395 186.005 181.802 187.712 181.41L196.992 174.899C215.342 168.684 229.392 169.356 234.722 184.384L242.612 192.486L281.902 192.417C284.722 190.688 287.842 189.907 289.512 184.404L290.632 149.635L325.002 146.512L324.792 139.023L289.082 137.561C286.806 134.341 283.44 132.031 279.592 131.049L279.602 131ZM275.672 138.035C282.832 138.361 282.672 141.641 283.142 144.665L160.652 144.349C160.422 142.264 160.852 141.533 164.262 139.912L275.672 138.035ZM282.882 149.457L283.142 154.97L160.662 154.614L160.852 149.605L282.882 149.457ZM282.932 159.159L283.332 164.1L160.702 164.831V159.555L282.932 159.159ZM283.112 168.842L283.062 174.711L237.452 174.771L233.852 169.119L283.112 168.842ZM199.752 169.228L198.112 173.654L195.112 174.217L160.022 174.316L160.532 169.504L199.752 169.228ZM239.752 179.681L283.172 179.819C283.172 179.819 281.682 183.465 279.762 184.463C277.842 185.461 241.762 184.612 241.762 184.612L239.752 179.681Z" fill="#008080"/>
<path id="path28071" d="M289.742 137.63L324.622 138.806V146.493L289.552 149.853L289.742 137.63ZM179.392 185.244L165.682 185.146C160.242 185.146 159.682 182.073 159.682 176.866V144.863C159.682 139.656 164.062 139.458 169.492 139.369L273.412 137.581C278.852 137.492 283.232 139.063 283.232 144.27V176.648C283.232 181.846 281.962 184.731 276.522 184.75L240.882 184.849C235.882 168.902 233.112 165.365 212.432 165.75C204.952 165.898 199.322 168.329 198.772 172.923L179.392 185.244ZM160.322 179.682H187.662H160.322ZM239.552 179.316L282.702 179.049C283.322 180.64 283.442 184.978 274.112 184.889L241.222 185.037L239.552 179.316ZM195.222 174.939L159.712 175.097L159.872 169.515L199.422 169.268L195.222 174.939ZM232.972 169.05L282.972 168.744V174.534L237.162 174.751L232.972 169.05ZM160.162 159.456L283.242 158.686V164.495L160.002 165.059L160.162 159.456ZM160.162 149.655L283.232 148.884V154.684L160.002 155.247L160.162 149.655ZM168.452 139.32L275.362 137.611C276.102 137.788 283.272 136.909 283.272 144.399L160.042 144.962C160.112 140.782 161.982 139.33 168.452 139.33V139.32ZM165.452 133.066L279.552 131.178C280.875 131.171 282.187 131.422 283.411 131.919C284.635 132.416 285.747 133.148 286.683 134.072C287.619 134.997 288.36 136.096 288.862 137.305C289.365 138.515 289.62 139.811 289.612 141.118V182.369C289.62 183.677 289.365 184.973 288.862 186.182C288.36 187.392 287.619 188.491 286.683 189.415C285.747 190.34 284.635 191.072 283.411 191.568C282.187 192.065 280.875 192.317 279.552 192.309L244.102 192.003C240.362 191.766 237.582 189.641 235.562 185.956C234.012 183.13 234.562 169.347 209.362 170.858C199.222 171.461 193.362 176.984 187.472 180.265C181.582 183.545 177.812 185.432 177.472 191.459L165.402 191.36C159.822 191.36 155.342 188.12 155.342 182.616V143.005C155.35 140.372 156.412 137.85 158.298 135.989C160.183 134.128 162.737 133.081 165.402 133.075L165.452 133.066Z" stroke="black" stroke-width="3" stroke-linecap="round" stroke-linejoin="round"/>
</g>
</g>
</g>
</g>
</svg>
