<svg width="512" height="512" viewBox="0 0 512 512" fill="none" xmlns="http://www.w3.org/2000/svg">
<g id="Glasses2">
<g id="Glasses2_2">
<g id="layer1">
<g id="g68370">
<path id="path60883" d="M206.035 159.291C196.485 174.399 171.585 173.519 158.755 163.155C156.125 152.286 186.235 115.817 206.035 159.291ZM277.705 159.884C267.705 175.772 241.475 174.843 227.975 163.945C225.215 152.523 256.875 114.157 277.705 159.884Z" fill="white"/>
<path id="path60885" d="M166.074 155.952C165.674 164.35 172.074 170.713 180.754 171.109C189.434 171.504 196.954 165.803 197.354 157.404C197.47 153.352 195.972 149.417 193.182 146.445C190.393 143.473 186.534 141.702 182.436 141.511C178.338 141.321 174.328 142.727 171.268 145.428C168.209 148.128 166.344 151.907 166.074 155.952ZM235.674 156.367C235.254 165.2 242.024 171.889 251.114 172.314C260.204 172.739 268.114 166.732 268.574 157.898C268.715 153.626 267.148 149.47 264.213 146.33C261.278 143.189 257.21 141.316 252.888 141.115C248.566 140.914 244.338 142.401 241.117 145.255C237.896 148.109 235.941 152.1 235.674 156.367Z" fill="#333333"/>
<path id="path60887" d="M206.034 159.291C197.224 175.387 171.334 177.472 158.754 163.155C158.49 161.727 158.572 160.257 158.994 158.867C162.504 145.311 188.374 120.511 205.994 159.291H206.034ZM277.704 159.884C268.444 176.8 241.214 179.003 227.974 163.945C227.702 162.441 227.792 160.894 228.234 159.43C231.924 145.182 259.124 119.088 277.704 159.884V159.884Z" stroke="#999999" stroke-width="3" stroke-miterlimit="15.12"/>
<path id="circle59194" d="M252.215 128C245.813 128 239.602 130.152 234.602 134.103C229.603 138.053 226.112 143.567 224.705 149.737C221.145 147.87 212.785 146.447 207.855 149.164C206.661 144.335 204.116 139.935 200.511 136.467C196.906 133 192.386 130.604 187.468 129.555C182.55 128.506 177.433 128.845 172.701 130.534C167.969 132.223 163.813 135.194 160.71 139.106C157.606 143.019 155.679 147.715 155.149 152.659C154.619 157.602 155.508 162.593 157.714 167.061C159.92 171.529 163.353 175.294 167.622 177.924C171.891 180.555 176.823 181.946 181.855 181.938C182.055 181.938 182.305 182.066 182.455 181.938C185.169 180.004 188.132 178.436 191.265 177.274C194.015 176.148 199.845 171.672 200.985 174.013C205.168 169.798 207.801 164.319 208.465 158.452C210.975 157.421 213.678 156.926 216.396 156.999C219.113 157.073 221.785 157.712 224.235 158.877C224.994 165.733 228.303 172.067 233.519 176.651C238.735 181.235 245.488 183.743 252.468 183.689C259.449 183.635 266.161 181.023 271.304 176.358C276.447 171.694 279.654 165.309 280.305 158.442L286.585 158.037L323.855 157.108C325.135 155.369 325.745 153.343 323.635 150.192L286.975 148.571L279.385 148.463C277.746 142.584 274.2 137.4 269.293 133.703C264.385 130.007 258.386 128.004 252.215 128ZM252.215 131.3C258.806 131.3 265.128 133.887 269.79 138.491C274.452 143.095 277.072 149.34 277.075 155.853C277.077 160.712 275.62 165.462 272.89 169.502C270.159 173.543 266.278 176.693 261.735 178.553C257.193 180.414 252.194 180.902 247.371 179.955C242.548 179.008 238.117 176.67 234.64 173.235C231.162 169.8 228.793 165.424 227.833 160.659C226.873 155.894 227.365 150.954 229.246 146.465C231.127 141.977 234.314 138.14 238.402 135.44C242.491 132.741 247.297 131.3 252.215 131.3ZM181.805 132.12C186.477 132.122 191.044 133.493 194.928 136.058C198.812 138.624 201.839 142.27 203.627 146.535C205.414 150.801 205.882 155.494 204.971 160.021C204.06 164.549 201.81 168.708 198.507 171.974C195.204 175.239 190.995 177.463 186.413 178.365C181.831 179.267 177.081 178.807 172.763 177.043C168.446 175.278 164.755 172.289 162.156 168.452C159.558 164.616 158.169 160.104 158.165 155.488C158.162 152.419 158.772 149.38 159.959 146.544C161.146 143.709 162.887 141.132 165.082 138.962C167.278 136.792 169.885 135.07 172.754 133.896C175.624 132.722 178.699 132.119 181.805 132.12Z" fill="#333333"/>
<path id="ellipse60891" d="M171.125 159.874C171.138 160.955 171.566 161.99 172.321 162.771C173.076 163.552 174.103 164.021 175.195 164.084C175.717 164.144 176.247 164.097 176.75 163.948C177.254 163.798 177.721 163.547 178.123 163.212C178.525 162.877 178.853 162.464 179.088 161.999C179.322 161.534 179.457 161.026 179.485 160.507C179.479 159.426 179.055 158.388 178.301 157.606C177.546 156.824 176.517 156.356 175.425 156.298C174.902 156.235 174.371 156.279 173.865 156.427C173.36 156.576 172.891 156.826 172.487 157.161C172.084 157.497 171.755 157.911 171.52 158.378C171.286 158.845 171.151 159.354 171.125 159.874ZM181.285 150.844C181.3 152.277 181.867 153.652 182.87 154.688C183.872 155.725 185.236 156.346 186.685 156.426C187.378 156.508 188.081 156.449 188.75 156.251C189.419 156.053 190.04 155.722 190.573 155.277C191.107 154.832 191.542 154.283 191.852 153.665C192.162 153.047 192.34 152.373 192.375 151.684C192.36 150.252 191.794 148.881 190.793 147.846C189.793 146.811 188.431 146.191 186.985 146.111C186.292 146.029 185.589 146.088 184.921 146.285C184.252 146.482 183.631 146.813 183.097 147.256C182.562 147.7 182.126 148.247 181.814 148.864C181.503 149.481 181.322 150.155 181.285 150.844ZM240.985 160.487C240.998 161.623 241.448 162.712 242.242 163.534C243.036 164.355 244.117 164.848 245.265 164.913C245.816 164.985 246.376 164.943 246.909 164.789C247.442 164.635 247.937 164.374 248.362 164.02C248.788 163.667 249.134 163.23 249.379 162.738C249.624 162.245 249.762 161.707 249.785 161.159C249.772 160.022 249.323 158.932 248.529 158.108C247.735 157.285 246.654 156.79 245.505 156.723C244.955 156.658 244.397 156.706 243.866 156.864C243.335 157.021 242.843 157.284 242.419 157.637C241.996 157.99 241.65 158.425 241.403 158.915C241.156 159.405 241.014 159.94 240.985 160.487ZM252.685 151.002C252.698 152.511 253.293 153.958 254.348 155.048C255.404 156.139 256.84 156.79 258.365 156.871C259.095 156.958 259.836 156.897 260.541 156.689C261.246 156.482 261.901 156.133 262.463 155.665C263.026 155.197 263.485 154.62 263.813 153.969C264.14 153.318 264.328 152.607 264.365 151.881C264.352 150.374 263.759 148.928 262.705 147.838C261.652 146.748 260.218 146.095 258.695 146.012C257.965 145.926 257.225 145.989 256.52 146.197C255.816 146.405 255.162 146.753 254.6 147.221C254.037 147.689 253.578 148.266 253.25 148.916C252.923 149.566 252.734 150.276 252.695 151.002H252.685Z" fill="white"/>
<path id="path60893" d="M181.575 133.572C178.672 133.57 175.798 134.132 173.115 135.228C170.433 136.324 167.995 137.931 165.942 139.958C163.889 141.985 162.26 144.392 161.148 147.041C160.037 149.691 159.465 152.531 159.465 155.398C159.465 158.266 160.037 161.106 161.148 163.755C162.26 166.405 163.889 168.812 165.942 170.839C167.995 172.866 170.433 174.473 173.115 175.569C175.798 176.664 178.672 177.227 181.575 177.224C187.351 177.103 192.849 174.751 196.89 170.672C200.932 166.593 203.195 161.112 203.195 155.403C203.195 149.695 200.932 144.214 196.89 140.135C192.849 136.056 187.351 133.704 181.575 133.582V133.572ZM181.575 134.906C187.075 134.906 192.351 137.065 196.24 140.908C200.13 144.751 202.315 149.964 202.315 155.398C202.312 160.833 200.126 166.043 196.237 169.886C192.348 173.728 187.075 175.888 181.575 175.891C178.851 175.891 176.154 175.361 173.638 174.331C171.122 173.301 168.835 171.791 166.909 169.889C164.984 167.986 163.456 165.727 162.414 163.24C161.371 160.754 160.835 158.09 160.835 155.398C160.834 152.707 161.369 150.042 162.411 147.555C163.453 145.068 164.98 142.809 166.907 140.905C168.833 139.002 171.12 137.493 173.636 136.464C176.153 135.434 178.851 134.905 181.575 134.906ZM251.995 132.841C245.834 132.841 239.925 135.259 235.569 139.564C231.212 143.868 228.765 149.706 228.765 155.794C228.765 161.881 231.212 167.719 235.569 172.023C239.925 176.328 245.834 178.746 251.995 178.746C258.156 178.746 264.064 176.328 268.421 172.023C272.777 167.719 275.225 161.881 275.225 155.794C275.225 149.706 272.777 143.868 268.421 139.564C264.064 135.259 258.156 132.841 251.995 132.841ZM251.995 134.244C254.859 134.243 257.696 134.8 260.343 135.882C262.989 136.965 265.394 138.552 267.42 140.553C269.445 142.554 271.052 144.93 272.147 147.546C273.243 150.161 273.806 152.963 273.805 155.794C273.806 158.624 273.243 161.428 272.148 164.043C271.052 166.659 269.446 169.036 267.42 171.038C265.395 173.04 262.99 174.628 260.343 175.712C257.697 176.795 254.86 177.353 251.995 177.353C249.13 177.353 246.293 176.795 243.646 175.712C240.999 174.628 238.595 173.04 236.569 171.038C234.544 169.036 232.938 166.659 231.842 164.043C230.747 161.428 230.184 158.624 230.185 155.794C230.184 152.963 230.747 150.161 231.842 147.546C232.938 144.93 234.544 142.554 236.57 140.553C238.595 138.552 241 136.965 243.647 135.882C246.294 134.8 249.13 134.243 251.995 134.244Z" fill="white"/>
<path id="circle60895" d="M205.554 155.32C205.556 158.422 204.938 161.495 203.737 164.362C202.536 167.229 200.775 169.833 198.554 172.027C196.334 174.221 193.697 175.961 190.796 177.148C187.894 178.335 184.785 178.945 181.644 178.944C175.303 178.944 169.221 176.455 164.737 172.024C160.253 167.594 157.734 161.585 157.734 155.32C157.734 149.054 160.253 143.045 164.737 138.615C169.221 134.184 175.303 131.695 181.644 131.695C187.986 131.695 194.067 134.184 198.551 138.615C203.035 143.045 205.554 149.054 205.554 155.32ZM277.214 155.705C277.214 162.295 274.565 168.616 269.848 173.276C265.132 177.936 258.735 180.554 252.064 180.554C248.762 180.554 245.491 179.912 242.44 178.663C239.389 177.414 236.616 175.584 234.281 173.276C231.945 170.969 230.093 168.229 228.829 165.214C227.565 162.199 226.914 158.968 226.914 155.705C226.914 152.442 227.565 149.21 228.829 146.195C230.093 143.181 231.945 140.441 234.281 138.134C236.616 135.826 239.389 133.996 242.44 132.747C245.491 131.498 248.762 130.855 252.064 130.855C258.735 130.855 265.132 133.474 269.848 138.134C274.565 142.794 277.214 149.114 277.214 155.705Z" fill="white" fill-opacity="0.4"/>
</g>
</g>
</g>
</g>
</svg>
