<svg width="512" height="512" viewBox="0 0 512 512" fill="none" xmlns="http://www.w3.org/2000/svg">
<g id="Glasses3">
<g id="Glasses3_2">
<g id="layer1">
<g id="g300686">
<path id="path258943" d="M254.708 127C248.469 127.001 242.416 129.099 237.545 132.951C232.674 136.803 229.276 142.179 227.908 148.194C224.438 146.376 216.298 144.982 211.498 147.64C210.339 142.935 207.863 138.648 204.354 135.267C200.844 131.887 196.443 129.55 191.654 128.524C186.864 127.499 181.879 127.825 177.268 129.466C172.657 131.107 168.606 133.997 165.579 137.805C162.551 141.613 160.67 146.186 160.148 151.001C159.627 155.816 160.487 160.679 162.631 165.034C164.774 169.388 168.114 173.059 172.27 175.627C176.425 178.195 181.227 179.556 186.128 179.554C186.318 179.554 186.568 179.673 186.718 179.554C189.362 177.671 192.247 176.142 195.298 175.009C197.978 173.913 203.658 169.565 204.758 171.838C208.849 167.724 211.423 162.373 212.068 156.641C214.514 155.639 217.146 155.157 219.793 155.229C222.44 155.3 225.042 155.923 227.428 157.056C228.197 163.707 231.429 169.841 236.501 174.278C241.574 178.715 248.128 181.142 254.902 181.09C261.677 181.039 268.192 178.513 273.195 173.999C278.197 169.485 281.333 163.303 281.998 156.641L288.108 156.246L319.598 153.104C320.838 151.415 322.168 149.745 320.108 146.642L287.988 147.215L280.988 146.781C279.374 141.112 275.937 136.117 271.196 132.549C266.455 128.98 260.668 127.033 254.708 127ZM254.708 130.221C259.497 130.221 264.178 131.624 268.16 134.253C272.141 136.882 275.244 140.618 277.076 144.99C278.909 149.361 279.387 154.172 278.452 158.812C277.517 163.452 275.211 167.715 271.824 171.06C268.437 174.405 264.122 176.682 259.425 177.604C254.728 178.526 249.86 178.051 245.437 176.239C241.013 174.427 237.233 171.359 234.574 167.424C231.915 163.489 230.496 158.863 230.498 154.132C230.497 150.991 231.122 147.88 232.339 144.978C233.555 142.076 235.339 139.439 237.587 137.218C239.836 134.997 242.505 133.236 245.443 132.036C248.381 130.835 251.529 130.218 254.708 130.221ZM186.128 131.011C190.677 131.011 195.124 132.344 198.906 134.841C202.689 137.338 205.637 140.888 207.378 145.04C209.118 149.193 209.574 153.762 208.686 158.17C207.799 162.578 205.608 166.628 202.392 169.806C199.175 172.984 195.077 175.148 190.615 176.025C186.154 176.902 181.529 176.452 177.327 174.732C173.124 173.012 169.532 170.099 167.005 166.362C164.477 162.625 163.128 158.231 163.128 153.737C163.128 147.71 165.552 141.929 169.865 137.668C174.178 133.406 180.028 131.011 186.128 131.011Z" fill="#1A1A1A" stroke="black" stroke-width="3" stroke-miterlimit="10"/>
<path id="circle261476" d="M209.569 153.756C209.569 159.901 207.098 165.795 202.7 170.14C198.303 174.485 192.338 176.926 186.119 176.926C179.901 176.923 173.939 174.481 169.544 170.136C165.148 165.791 162.679 159.9 162.679 153.756C162.679 147.614 165.148 141.723 169.544 137.38C173.94 133.037 179.902 130.596 186.119 130.596C189.198 130.595 192.247 131.193 195.092 132.357C197.937 133.52 200.522 135.226 202.7 137.376C204.877 139.527 206.605 142.081 207.783 144.891C208.962 147.702 209.569 150.714 209.569 153.756ZM279.939 154.26C279.939 157.514 279.29 160.737 278.03 163.743C276.769 166.75 274.922 169.481 272.593 171.783C270.264 174.084 267.499 175.909 264.456 177.154C261.414 178.4 258.152 179.041 254.859 179.041C249.898 179.041 245.049 177.587 240.924 174.864C236.799 172.14 233.585 168.27 231.687 163.741C229.789 159.212 229.293 154.229 230.261 149.422C231.23 144.615 233.62 140.2 237.128 136.734C240.637 133.269 245.106 130.91 249.972 129.955C254.838 129 259.881 129.492 264.463 131.369C269.046 133.246 272.962 136.424 275.717 140.5C278.471 144.577 279.941 149.369 279.939 154.27V154.26Z" fill="black" stroke="black" stroke-width="3" stroke-miterlimit="10"/>
<path id="path270272" d="M185.488 131.1C183.441 131.103 181.403 131.375 179.428 131.911L167.068 166.749C169.362 170.025 172.491 172.642 176.138 174.338L192.508 131.94C190.23 131.32 187.869 131.05 185.508 131.14L185.488 131.1ZM195.388 133.156L179.788 175.484C180.727 175.992 181.778 176.264 182.848 176.274C183.398 176.274 195.968 144.775 196.898 143.866L188.668 175.484L202.918 138.491C200.896 136.122 198.308 134.288 195.388 133.156ZM254.098 130.745C251.986 130.755 249.885 131.041 247.848 131.595L235.088 167.569C237.45 170.955 240.681 173.659 244.448 175.405L261.348 131.575C258.989 130.932 256.544 130.652 254.098 130.745ZM264.318 132.928L248.218 176.64C249.188 177.165 250.273 177.447 251.378 177.46C251.948 177.46 264.928 144.923 265.878 143.985L257.378 176.659L272.098 138.461C270.019 135.998 267.342 134.095 264.318 132.928Z" fill="#B3B3B3" stroke="black" stroke-width="3" stroke-miterlimit="10"/>
</g>
</g>
</g>
</g>
</svg>
