<svg width="512" height="512" viewBox="0 0 512 512" fill="none" xmlns="http://www.w3.org/2000/svg">
<g id="Hair3">
<g id="Hair3_2">
<g id="layer1">
<g id="g154583">
<path id="abColor_3" d="M349.017 171.734L344.747 160.52L345.857 142.824L341.467 134.346C340.537 124.209 340.787 111.967 335.977 108.746C334.977 94.9132 331.797 88.5205 327.267 86.7025C326.757 67.1984 322.667 68.1371 319.367 61.9223C316.267 70.1725 312.547 90.1805 310.607 99.9325C309.327 91.8997 302.827 88.2933 295.257 85.8331C284.917 73.5318 271.077 60.6674 272.417 58.5431C277.997 49.4926 283.677 48.5243 290.147 40.946C285.517 39.5528 279.737 36.0057 277.557 39.2861L260.377 34L253.697 35.818L237.777 38.6241L223.937 36.1539L194.667 44.2658L191.957 49.5025L186.277 55.4308C170.917 61.3591 179.077 67.564 167.207 69.0066C167.207 69.0066 160.207 74.4902 158.967 81.1892C157.964 85.6548 155.954 89.8392 153.087 93.4312L154.817 99.3594C154.817 99.3594 154.957 111.839 152.347 117.362C149.737 122.885 144.757 134.959 144.757 134.959C144.647 140.116 146.937 144.237 142.757 151.163C142.187 157.091 143.757 163.019 139.307 168.948C139.247 179.016 143.897 180.468 150.467 178.433C153.347 188.975 159.167 184.984 165.227 184.638C167.947 182.326 165.587 173.69 168.887 173.246C176.587 172.258 173.657 160.045 173.247 159.917C173.247 159.917 174.997 157.467 178.127 149.928C181.257 142.389 178.187 134.623 180.747 132.835C183.307 131.046 186.387 119.654 186.387 119.654C186.387 119.654 191.017 117.253 188.087 126.274C185.157 135.295 190.667 144.741 190.667 144.741C190.667 144.741 191.157 156.528 193.217 159.374C195.277 162.219 193.967 175.993 199.687 177.544C206.477 179.401 213.977 186.604 212.817 181.674C213.817 181.862 223.547 169.817 220.147 163.247C218.467 159.996 215.027 160.885 218.887 152.032C223.107 142.369 219.737 142.705 219.227 136.569C218.717 130.434 225.017 123.033 225.017 123.033L222.817 116.927L225.377 109.892C225.377 109.892 227.027 112.372 228.567 118.784C230.107 125.197 240.487 129.376 241.277 130.77C242.067 132.163 239.277 137.35 243.277 141.055L253.957 151.054C252.097 152.378 257.857 159.324 263.367 162.101C263.757 168.562 275.597 174.876 275.597 174.876C279.527 180.33 279.967 186.347 289.857 180.666C297.857 176.072 288.327 170.124 289.317 168.869L290.527 161.952C290.527 161.952 299.527 165.025 301.977 172.702C304.427 180.379 312.327 182.583 316.427 178.631C320.527 174.678 321.207 179.263 321.207 179.263C321.207 179.263 324.207 184.085 328.847 180.706C333.487 177.326 334.367 174.777 334.367 174.777C334.367 174.777 337.667 183.67 349.837 172.732" fill="white"/>
<path id="shadow" d="M311.417 94.7652C311.527 94.7652 310.737 96.8401 310.797 96.8203C309.797 99.5177 309.667 100.397 311.357 101.761C322.917 110.989 318.627 114.002 322.297 124.703C324.037 129.772 328.057 134.514 330.177 139.455C331.707 143.93 326.567 151.222 333.807 159.789C333.807 162.397 328.887 173.928 337.457 175.943C348.117 178.453 333.457 155.58 333.997 150.135C334.457 145.679 332.947 137.469 330.997 132.924C327.907 126.007 324.327 123.399 324.997 114.398C324.677 109.882 321.807 102.047 315.857 99.1719C314.957 94.9628 316.277 92.6507 312.447 90.0225L311.417 94.7652ZM295.797 85.4973C281.797 67.7914 274.427 61.7841 273.217 57.2885L269.707 56.004C264.957 59.8475 272.287 72.0697 279.137 87.6216C280.287 90.23 287.497 92.0381 288.237 92.9669C285.927 99.0236 289.637 105.989 293.307 108.183C297.537 108.351 305.217 117.816 306.837 117.075C305.927 109.764 292.707 106.691 294.487 96.0397C295.557 91.2576 301.627 92.4828 308.107 96.4152C309.107 88.2638 301.257 87.9575 295.797 85.5467V85.4973ZM169.087 68.3052C167.01 69.7343 164.831 71.0123 162.567 72.129C159.907 73.2949 158.317 83.9065 156.517 88.4515C154.717 92.9965 151.787 93.6783 151.787 93.6783L153.897 104.102C153.897 104.102 152.967 117.224 149.287 123.537C145.607 129.851 146.587 139.692 146.757 143.031C146.927 146.371 144.267 148.96 141.757 153.515C139.247 158.069 141.057 165.826 141.057 165.826C141.057 165.826 139.317 168.701 139.877 175.034C140.437 181.368 151.187 179.816 151.187 179.816C146.807 180.054 154.597 156.627 154.487 158.316C154.377 160.006 148.427 141.134 161.137 128.033C161.437 123.241 166.137 101.761 173.447 104.32C176.107 97.0574 177.857 87.6216 183.147 86.6829L177.637 87.1868C170.637 80.5867 180.207 78.0276 183.197 73.4727C168.757 75.3401 179.727 62.5449 186.017 59.225C188.127 57.7924 178.787 61.7643 178.787 61.7643C178.147 58.316 170.347 69.9948 169.087 68.3052ZM233.557 36.5493C232.342 36.5959 231.144 36.8362 230.007 37.2607C225.007 40.4817 224.177 46.5681 217.647 47.6352C210.967 50.5994 210.487 60.6083 202.717 62.5152C196.547 68.8486 200.457 72.0993 195.507 76.5258C193.567 80.7546 192.677 81.2585 189.897 85.2305C187.757 89.0641 189.317 95.4568 189.897 99.2015C187.967 104.843 183.717 107.728 184.007 114.101C183.617 127.509 178.007 128.033 176.087 133.052C174.477 137.627 174.087 137.913 174.887 142.992C175.547 147.438 173.487 153.258 169.627 155.283C166.247 162.032 171.777 167.693 167.087 174.422C165.817 180.953 174.917 171.625 173.757 169.145C172.167 163.276 175.387 157.289 177.947 152.546C179.827 149.77 183.877 130.197 186.497 130.029L188.817 125.484C192.317 122.579 193.037 109.497 194.677 105.584C197.747 100.723 195.677 98.668 194.167 92.9867C193.587 86.4754 202.167 78.2944 201.927 71.8029C201.927 66.3686 207.817 62.6635 212.927 63.9874C215.267 59.9463 213.497 53.445 219.037 51.2218C223.967 50.2338 230.117 50.629 231.107 44.1771C231.407 41.3315 240.347 37.2014 233.637 36.5493H233.557ZM249.287 80.5274C249.177 80.5274 249.117 80.5274 249.097 80.5274C250.417 83.9559 251.097 96.514 251.017 99.1916C263.797 105.565 262.727 107.639 265.527 118.636C267.157 124.229 276.627 127.855 277.057 129.12C278.057 132.943 278.267 138.704 280.257 142.182C295.327 152.21 286.877 153.762 290.937 160.549C300.017 163.8 300.657 171.418 304.117 177.346C305.987 180.31 311.387 182.781 314.347 179.49C304.457 176.674 307.157 168.286 303.237 163.069C293.807 157.872 293.917 155.718 290.887 144.889C289.887 141.213 283.237 145.66 279.707 130.829C279.177 128.606 275.047 120.494 269.387 117.589C265.307 115.504 271.777 109.141 263.257 101.899C260.117 99.241 257.557 99.241 255.717 92.631C252.907 82.5628 250.047 80.6953 249.287 80.4977V80.5274ZM226.827 106.879C224.187 114.249 221.507 117.955 223.977 123.834C227.277 127.519 232.977 125.523 233.117 131.896L243.167 142.527C245.857 156.232 251.037 144.978 252.987 151.647C255.917 161.696 259.787 164.492 264.257 162.575C264.767 172.455 270.257 171.556 276.347 174.787C277.887 180.716 279.347 187.335 287.547 180.389C279.047 181.012 281.687 172.218 278.797 171.665C272.927 168.138 266.187 165.885 265.577 160.658C265.577 160.658 255.977 155.886 255.757 147.942C255.557 140.294 249.977 152.665 247.757 139.81C246.297 131.274 241.357 132.351 238.447 128.596C235.537 124.841 238.327 123.656 226.787 106.859L226.827 106.879ZM192.477 108.855C187.867 114.082 192.777 113.795 187.547 127.252C186.547 129.712 186.407 137.281 189.387 142.073C191.887 146.075 190.217 148.584 190.477 152.991C190.687 156.429 193.617 158.307 194.537 161.35C197.537 171.23 189.537 173.206 201.537 177.475C204.097 178.394 210.337 182.919 211.537 181.298C206.187 179.066 207.227 174.451 205.437 173.868C196.987 171.092 201.647 162.901 197.437 158.702C191.237 152.586 198.017 146.924 194.157 139.781C190.297 132.637 200.017 122.766 192.477 108.845V108.855ZM310.017 124.792C308.607 124.871 308.647 131.916 308.737 133.022C309.227 137.686 312.087 139.247 314.837 142.814C317.267 145.916 317.217 148.604 316.927 152.497C316.799 156.565 317.772 160.593 319.747 164.166C321.987 168.928 320.457 175.133 324.667 178.986C325.667 180.192 327.457 179.688 328.317 178.581C323.907 175.736 323.317 173.641 324.157 168.286C325.367 160.935 317.347 162.051 320.797 149.266C322.857 141.628 310.977 137.044 310.497 124.98C310.367 124.858 310.195 124.791 310.017 124.792Z" fill="black" fill-opacity="0.2"/>
<path id="outline" d="M332.797 174.224C340.587 182.8 353.497 175.953 346.067 164.768C340.447 157.121 350.497 143.604 342.217 136.224C337.657 127.114 343.697 116.226 334.917 108.045C335.077 97.0179 334.917 90.8031 326.627 85.2107C327.557 76.1108 325.307 66.7046 320.037 62.6338M290.287 161.567C297.717 163.444 301.997 166.675 302.877 174.995C306.487 187.721 323.027 181.625 320.347 167.357C318.667 159.631 314.437 163.316 316.987 151.45C319.057 141.846 306.987 140.107 308.557 131.362C309.407 126.748 307.067 114.319 297.667 109.685C293.257 109.457 289.157 107.639 288.147 98.8162C288.427 88.9357 276.487 95.773 276.237 80.0432C275.537 76.6641 273.117 73.947 270.727 71.5658M223.377 118.202C222.987 125.988 231.707 120.662 232.867 130.365C233.307 139.929 244.177 132.815 243.867 145.907C243.627 155.184 253.007 144.79 253.457 151.963C254.227 164.106 263.897 158.88 264.097 164.946C264.437 175.074 276.677 170.42 276.727 176.981C276.817 188.343 296.787 184.243 291.727 172.772C286.047 166.972 293.427 159.028 289.727 150.965C286.317 144.662 276.517 143.94 278.837 134.811C278.077 126.422 268.447 123.428 264.617 119.002C265.957 109.517 258.487 100.555 250.387 99.5078C252.277 91.4453 249.977 79.7468 240.997 76.8419M182.797 86.1296C175.187 88.8171 175.307 98.5395 173.697 103.45C157.937 106.928 164.847 122.766 159.367 129.367C153.137 136.639 150.557 143.466 152.947 151.242C155.997 161.123 148.857 165.49 149.457 171.764C149.607 179.273 155.737 189.954 164.457 184.608C170.137 182.128 162.727 178.186 172.187 172.129C178.127 169.422 169.497 160.796 175.877 156.894C182.427 148.989 176.067 138.536 184.777 132.657M180.367 74.688C171.457 75.3895 164.137 83.3631 163.117 89.5087C163.477 97.1365 152.257 97.5218 153.057 111.868C154.497 125.108 147.527 123.379 145.557 133.072C144.607 140.156 148.037 145.669 142.347 152.744C138.427 157.615 144.467 164.363 139.437 169.659C137.197 176.783 143.967 181.793 150.767 179.471M204.767 47.2993C197.597 47.2993 188.957 49.9176 186.767 57.5058C176.207 58.0295 175.477 70.7852 165.127 70.9038C156.627 75.3796 162.277 85.1514 153.897 91.7714C151.637 93.3621 152.897 102.126 154.527 103.233M238.527 40.2743C231.007 31.5103 217.527 40.047 209.527 40.9857C203.287 42.1911 193.757 42.0527 191.457 49.9868M320.587 174.511C324.007 187.256 336.477 179.372 331.777 166.833C339.087 158.998 326.777 154.977 330.197 147.922C333.627 137.429 322.807 131.264 321.317 122.806C322.637 112.431 317.527 102.581 311.047 101.968C311.337 92.2061 300.927 86.7224 294.717 86.1593C291.397 71.7634 286.807 73.7592 281.627 71.3385C280.547 68.236 275.437 61.458 272.087 59.4226M222.647 98.164C226.157 104.596 226.957 112.313 221.567 117.846C230.287 125.652 214.857 132.232 220.787 140.235C226.367 147.774 211.487 155.56 219.727 163.365C225.677 169.017 217.097 180.271 212.787 182.267C205.867 185.478 204.887 177.643 201.347 177.85C189.997 175.015 199.287 164.363 191.557 156.933C187.087 152.625 193.997 148.238 189.487 142.271C183.487 134.366 187.057 130.691 187.147 123.606C181.467 117.194 192.537 103.104 195.547 98.9051C186.897 81.7427 202.197 83.4619 200.827 74.2039C201.587 68.7992 207.827 60.5589 213.227 64.3234C210.827 55.9447 221.887 47.0325 227.227 50.629C228.327 45.837 233.377 35.6304 238.907 41.0943C244.167 32.8145 250.577 37.735 253.987 36.5493C264.437 29.9491 265.877 40.8473 279.987 37.6263C287.347 36.5592 286.257 38.3278 290.127 40.5904" stroke="black" stroke-width="3" stroke-linecap="round" stroke-linejoin="round"/>
</g>
</g>
</g>
</g>
</svg>
