<svg width="512" height="512" viewBox="0 0 512 512" fill="none" xmlns="http://www.w3.org/2000/svg">
<g id="Hair4">
<g id="Hair4_2">
<g id="layer1">
<g id="g39595">
<path id="abColor_3" d="M205.413 11.9324C194.353 10.3218 190.793 14.7977 182.033 17.4062C167.033 15.4301 162.593 25.7453 161.313 32.1281C147.833 34.7859 149.613 38.6591 150.173 49.8537C141.743 55.6634 141.103 60.0207 145.913 68.6266C133.523 79.9497 137.643 83.8722 147.213 90.6206C137.063 104.187 145.413 114.413 158.213 110.144C145.943 119.126 161.313 127.929 173.213 123.197C176.503 124.185 181.623 128.759 185.153 128.265C199.303 135.784 206.953 137.642 216.893 128.453C225.783 133.68 231.053 130.133 239.273 129.066C250.273 133.265 258.383 123.513 267.823 122.06C276.333 131.121 286.103 129.866 293.883 130.725C295.323 133.028 303.003 133.63 304.043 134.292C304.503 134.609 308.503 139.806 310.693 141.604C311.253 145.299 311.923 151.603 318.693 152.64C334.373 145.388 334.203 137.721 334.413 133.304C350.293 130.143 349.963 124.086 342.083 114.936C358.533 110.115 349.343 102.744 346.823 94.7605C363.253 87.1427 352.823 76.7484 349.823 69.6048C359.513 55.3472 332.613 38.7777 334.383 39.1037C340.863 20.8841 315.453 11.6854 305.283 13.4737C289.853 -5.76359 274.153 7.07117 266.893 8.69157C239.443 -1.10988 242.073 8.60264 232.223 9.61045C228.723 9.61045 205.783 5.85587 205.483 11.8928L205.413 11.9324Z" fill="white"/>
<path id="shadow" d="M153.403 50.3574C153.403 50.3574 153.253 50.3574 153.053 50.5452C140.843 49.4879 140.123 62.046 144.133 67.095C141.633 72.4403 137.893 78.754 139.363 83.5361C150.013 91.2824 143.163 91.895 143.363 103.603C143.893 112.496 155.173 108.544 155.843 109.729C156.363 110.717 151.843 117.782 157.773 121.655C160.993 123.779 170.853 123.127 172.463 124.343C176.403 128.295 182.583 125.933 185.623 127.158C196.223 133.976 204.083 135.616 214.143 130.834C215.993 129.945 216.983 128.858 216.003 126.595C215.58 125.59 215.054 124.63 214.433 123.73C222.433 130.083 227.773 134.48 240.043 127.554C245.123 127.01 251.923 131.605 259.223 127.03C262.223 125.854 266.083 119.788 269.993 116.626C261.293 129.322 287.733 129.747 294.393 130.271C297.292 132.294 300.574 133.719 304.043 134.46C309.713 141.317 311.433 152.324 320.183 150.605C334.343 148.293 331.313 135.004 334.383 133.966C345.203 130.3 346.913 125.192 345.813 122.554C343.293 127.494 335.413 131.328 332.273 126.506C330.973 124.53 318.693 135.172 317.773 130.093C316.853 125.014 327.003 120.726 318.143 124.807C298.003 134.974 302.533 118.276 296.143 121.932C283.333 121.586 284.423 111.409 286.203 109.087C291.343 102.388 285.113 101.766 288.803 96.5685C294.483 88.5554 290.083 86.2829 288.863 80.0681C288.863 80.0681 289.023 87.6464 287.603 92.2309C286.183 96.8155 280.923 96.6574 280.923 96.6574C283.563 107.862 272.923 124.323 281.993 109.057C274.323 113.938 266.923 106.735 264.113 112.911C257.163 128.147 245.793 117.416 239.053 120.42C223.763 127.247 220.903 115.835 213.493 117.219C200.903 119.59 203.953 103.791 200.873 107.595C197.793 111.399 202.183 123.157 212.333 122.722C208.203 123.947 207.013 123.058 201.853 120.331C192.913 129.984 187.473 118.533 184.463 118.77C171.633 119.758 179.323 105.51 174.153 106.528C168.833 107.585 162.293 97.9715 166.593 92.1716C168.093 90.1956 159.303 100.214 158.593 100.629C151.813 108.692 148.063 100.718 148.113 94.6121C148.113 93.5154 149.523 91.2034 149.113 90.1066C142.803 84.2574 141.193 77.1335 148.213 68.0139C142.923 59.6056 153.723 50.4463 153.353 50.3969L153.403 50.3574Z" fill="black" fill-opacity="0.2"/>
<path id="outline" d="M306.033 14.8966C311.533 15.6574 324.213 24.6783 320.173 35.1417C325.853 36.2582 329.433 48.5397 325.273 54.9917M268.383 122.11C274.503 130.548 290.313 131.862 293.873 130.241C302.933 138.472 315.303 133.601 321.223 124.955M304.723 135.775C304.133 140.379 316.503 144.993 324.103 138.541M199.943 113.109C199.223 116.389 204.463 124.274 213.633 123.197C219.363 133.947 233.073 133.077 239.963 127.663C255.513 133.018 268.743 122.466 269.713 115.006C284.633 116.053 284.353 105.343 279.013 97.3098C290.243 96.3217 291.193 85.1568 286.323 78.9123M217.323 129.194C204.703 137.622 192.063 134.777 186.183 127.673C171.843 129.155 171.293 117.881 172.463 110.807C158.513 106.39 157.963 97.458 165.543 92.0336M174.453 47.9073C174.583 38.7876 178.373 32.6025 186.913 30.2509C189.383 21.7734 194.433 18.9674 200.753 18.9575C208.073 3.27716 225.813 7.39733 232.353 10.2133C244.173 0.233972 263.143 5.57932 266.633 9.22522C277.633 1.88401 299.953 2.53613 305.153 14.3334C325.603 14.037 341.353 27.4646 334.053 39.4595C338.923 42.315 357.213 52.7389 348.503 70.5633C354.903 75.217 356.863 80.6315 355.923 85.226C354.983 89.8204 350.923 93.8319 345.453 95.1756C350.453 100.58 357.983 112.96 342.243 114.749C354.813 127.593 339.533 135.498 333.623 133.146C333.843 142.938 327.353 150.477 317.883 152.453M173.073 123.582C164.323 126.783 145.073 120.776 158.073 110.876C149.073 112.555 135.993 108.149 147.883 91.006C140.883 88.1012 129.943 78.6357 147.343 67.5201C146.753 70.4843 132.343 58.1633 150.633 50.0119C149.183 40.2006 149.843 33.3139 160.683 32.9384C160.073 22.5342 174.223 17.0506 182.363 18.7302C188.523 9.6402 200.903 9.39319 205.093 12.2882" stroke="black" stroke-width="3" stroke-linecap="round" stroke-linejoin="round"/>
</g>
</g>
</g>
</g>
</svg>
