<svg width="512" height="512" viewBox="0 0 512 512" fill="none" xmlns="http://www.w3.org/2000/svg">
<g id="Hair1">
<g id="Hair1_2">
<g id="layer1">
<g id="g15053">
<path id="abColor_3" d="M203.821 50.4062C201.581 51.7994 200.561 55.6627 198.731 56.6408C190.351 61.1068 185.171 56.7001 182.211 69.0211C182.211 69.0211 172.491 76.5401 176.461 82.4487C174.121 86.4009 169.241 90.3531 174.171 98.8305C173.609 100.848 173.639 102.981 174.257 104.982C174.875 106.983 176.055 108.77 177.661 110.134C177.661 110.134 176.841 118.038 180.391 121.595C183.941 125.152 185.891 125.547 185.891 125.547C185.891 125.547 182.891 137.789 191.721 140.516C200.041 143.056 204.341 139.084 204.341 139.084L215.181 132.049C223.101 135.339 228.661 141.317 236.271 132.889C236.271 132.889 240.621 138.175 250.451 135.24C260.281 132.306 263.981 127.682 263.981 127.682C263.981 127.682 265.441 133.294 275.171 130.982C284.901 128.67 287.271 125.775 287.271 125.775L321.371 129.341C327.301 114.936 322.751 115.697 322.431 108.592C322.431 108.592 327.071 93.1492 325.731 89.0488C324.391 84.9484 324.391 74.5541 321.731 71.3825C320.382 69.6917 318.864 68.1393 317.201 66.7486C317.771 66.7486 312.041 96.5284 312.741 97.6943C311.421 92.3884 305.741 93.0405 304.271 89.3946C300.201 78.9608 289.821 76.5994 286.831 72.8547C282.281 67.1635 281.271 62.7766 274.971 57.9055C275.601 54.6746 288.061 41.1087 287.821 45.0609C286.891 42.8773 277.351 41.0099 274.661 44.3495C272.451 47.0765 263.661 41 263.661 41L250.991 43.6282C242.421 42.4228 234.181 39.7847 222.991 49.7739C216.571 48.1535 210.151 47.0073 203.761 50.3371L203.821 50.4062Z" fill="white"/>
<path id="shadow" d="M213.861 47.6791C212.203 47.6613 210.554 47.915 208.981 48.43C204.421 49.4181 202.441 53.726 199.451 56.4431C195.381 57.7374 190.721 58.1524 187.691 61.5118C184.121 63.6559 184.611 68.5566 181.601 70.6908C179.836 71.2141 178.303 72.3127 177.252 73.8074C176.2 75.3021 175.692 77.1047 175.811 78.9212C177.611 83.5156 172.301 86.1043 172.041 90.5012C170.521 94.2261 172.891 97.4867 173.631 100.974C173.871 104.482 168.741 110.4 171.731 112.584C173.011 117.455 170.731 121.368 174.731 124.994C172.101 129.539 185.041 123.225 185.921 126.486C182.311 135.704 189.611 142.295 195.321 140.714C200.086 140.604 204.69 138.991 208.461 136.11C204.903 136.979 201.21 137.167 197.581 136.663C192.901 136.357 189.051 131.723 190.451 127.098C193.081 123.235 184.451 111.29 189.361 102.862C185.571 96.0046 186.001 85.1558 192.511 79.1485C195.841 73.9217 198.911 65.5826 205.511 64.1696C207.921 57.1051 215.511 53.2221 222.511 52.066C222.646 51.8661 222.735 51.6396 222.773 51.4022C222.81 51.1648 222.795 50.9222 222.729 50.6911C222.662 50.4599 222.546 50.2459 222.387 50.0636C222.229 49.8813 222.032 49.7353 221.811 49.6354C219.335 48.424 216.623 47.7566 213.861 47.6791Z" fill="black" fill-opacity="0.2"/>
<path id="Outline" d="M197.851 61.5225C189.061 64.8818 189.411 72.8159 190.191 78.0031C181.961 84.218 180.311 96.4204 186.471 104.048C181.701 112.842 185.631 117.298 187.281 123.196M317.761 67.9744C324.571 72.9147 324.221 78.3786 324.121 85.7593C325.911 91.49 328.061 93.7329 323.481 104.315M176.691 82.2814C171.391 74.545 183.991 67.7472 182.991 68.8044C184.721 60.9593 193.781 56.2562 199.781 57.4715C198.221 55.6337 207.531 44.1723 222.221 50.1006C231.951 40.0126 250.101 41.1094 251.311 43.9648C261.781 37.7599 270.231 43.6882 274.051 45.6643C276.521 42.7199 283.881 40.0225 286.731 45.9014L273.155 59.2992C271.659 56.6552 273.188 61.8085 273.647 58.8135M270.431 56.3352C273.321 59.0227 272.331 58.0347 279.311 61.6707C282.381 63.2614 284.391 69.2984 285.311 72.2823C286.841 75.5429 290.581 75.5923 293.211 77.8055C295.321 78.8529 302.661 85.8384 303.571 90.8576C312.441 96.6377 311.501 96.3413 314.101 103.85M283.171 126.872C282.171 129.619 268.791 135.34 264.271 128.097C261.391 130.172 249.891 140.754 235.751 132.692C231.121 139.213 221.371 136.782 216.011 131.111C197.931 149.39 179.201 139.865 186.121 125.489C182.791 124.817 176.531 118.483 177.791 109.749C174.011 108.247 174.431 103.287 174.431 99.4438M177.251 81.9158C173.181 87.9528 171.031 94.0589 174.471 100.086C172.331 102.161 169.591 108.722 170.051 111.626C170.671 115.509 173.721 116.507 174.131 120.124C175.311 119.916 173.641 122.643 172.431 126.358M323.331 104.018C320.961 112.792 325.241 114.166 324.421 119.699C324.071 122.04 321.301 126.23 321.481 128.404L323.331 104.018Z" stroke="black" stroke-width="3" stroke-linecap="round" stroke-linejoin="round"/>
</g>
</g>
</g>
</g>
</svg>
