<svg width="512" height="512" viewBox="0 0 512 512" fill="none" xmlns="http://www.w3.org/2000/svg">
<g id="Hair9">
<g id="Hair9_2">
<g id="layer1">
<g id="g419608">
<path id="abColor_3" d="M164.374 163.435L171.834 163.09C169.004 149.81 170.834 136.234 174.974 122.501C175.724 137.213 175.224 153.199 179.644 164.196L190.254 163.702C189.744 150.047 193.114 135.849 203.254 120.692C203.344 136.412 202.204 153.407 207.254 163.88L227.484 163.129C231.194 147.449 233.104 130.761 243.014 118.509C255.534 136.066 254.494 147.903 256.124 160.857L271.334 159.088L272.514 120.88C277.184 133.448 282.374 146.145 281.204 157.27L294.664 157.675L296.524 127.332C299.904 138.033 303.794 148.99 303.094 157.537L337.924 155.906C337.834 110.456 329.864 83.1861 318.434 63.9191C315.254 74.6493 312.074 85.3697 311.664 97.4337L274.814 59.384C278.294 55.0366 281.094 51.9637 284.234 48.2487C251.234 38.2298 224.124 47.725 201.444 58.1983C165.134 74.9556 160.354 119.112 164.374 163.435Z" fill="url(#paint0_linear_179_84)"/>
<path id="Grey" d="M228.565 48.6641C218.235 50.4821 199.255 57.3984 185.945 67.2394C153.945 106.406 168.735 130.751 163.845 161.331L171.465 162.438C170.285 147.973 172.735 133.468 176.345 118.618C176.455 135.247 176.555 152.281 179.135 162.092L188.715 163.169C188.555 163.406 188.945 120.989 195.425 93.235C201.005 69.334 222.185 50.0671 228.565 48.6641Z" fill="black" fill-opacity="0.2"/>
<path id="abColor_4" d="M329.635 156.331C334.255 155.748 337.045 156.726 337.755 155.708C337.955 95.1905 330.335 81.338 318.445 63.6519M269.685 57.3482C285.065 69.8766 304.955 88.9657 314.365 104.399M285.365 48.9399C266.935 43.9107 235.175 39.7313 199.175 59.2551C161.395 73.7893 161.915 133.359 163.565 162.714L171.565 162.842C172.435 154.167 167.255 129.851 179.395 110.723C174.521 127.676 174.142 145.584 178.295 162.724L189.695 163.208C186.985 154.987 194.695 125.662 205.235 116.216C202.025 132.381 201.435 146.51 207.355 164.631L228.005 163.87C231.245 136.303 234.295 128.3 242.555 116.443C253.225 129.575 257.485 143.644 256.325 160.678L271.495 159.769C272.655 139.366 271.495 135.562 270.595 115.9C283.485 138.427 280.655 152.211 282.995 158.267L295.995 157.754C297.095 129.1 297.055 119.556 286.095 98.9352M294.385 119.388C296.105 122.895 305.085 143.783 304.105 157.22L328.755 156.301C329.395 139.564 327.685 120.326 321.025 97.5618" stroke="black" stroke-width="3" stroke-linecap="round" stroke-linejoin="round"/>
</g>
</g>
</g>
</g>
<defs>
<linearGradient id="paint0_linear_179_84" x1="250.396" y1="122.269" x2="250.913" y2="177.171" gradientUnits="userSpaceOnUse">
<stop stop-color="white"/>
<stop offset="1" stop-color="white" stop-opacity="0"/>
</linearGradient>
</defs>
</svg>
