<svg width="512" height="512" viewBox="0 0 512 512" fill="none" xmlns="http://www.w3.org/2000/svg">
<g id="Hair2">
<g id="Hair2_2">
<g id="layer1">
<g id="g473477">
<path id="abColor_3" d="M150.703 57.8235L147.703 67.0025C145.903 74.2449 135.603 52.4584 135.603 52.4584C127.603 128.904 178.603 156.796 240.053 131.828C249.143 138.28 267.263 130.327 267.363 129.012C267.363 129.012 269.793 134.21 279.453 131.907C289.113 129.605 290.563 126.967 290.563 126.967L331.263 132.56C321.203 118.085 331.353 111.86 332.893 103.906C338.333 75.8752 322.173 73.0691 316.433 69.1565C316.193 69.5122 311.033 93.8577 312.003 100.774C308.093 92.4547 290.793 84.6787 289.693 77.8216C288.913 72.7727 274.113 55.798 273.903 59.4933C274.633 52.577 287.903 45.5124 286.553 43.8624C280.173 36.1655 274.103 30.6719 253.773 27.6485C205.483 20.4654 188.043 103.007 150.703 57.8235Z" fill="white"/>
<path id="shadow" d="M136.363 54.7896C135.533 54.2857 138.643 118.025 181.713 128.735C213.713 136.699 252.853 118.242 252.853 118.242C252.853 118.242 243.643 123.479 250.013 127.026C256.383 130.573 269.183 123.666 269.183 123.666C273.963 127.54 280.693 127.757 290.623 123.331C293.503 127.184 303.963 128.488 311.843 122.995C316.843 128.557 321.973 131.739 329.763 132.47C321.763 137.835 309.953 134.812 305.703 129.022C298.433 130.741 294.903 131.363 290.043 127.55C282.133 129.941 274.043 133.557 267.123 129.2C255.213 133.636 246.323 134.723 241.123 131.739C178.273 157.063 129.103 129.526 136.363 54.7896Z" fill="black" fill-opacity="0.2"/>
<path id="Outline" d="M288.483 44.8005C230.483 -9.21618 199.123 77.4061 169.353 72.4066M268.953 57.6945C283.873 63.6821 282.953 71.2604 291.513 79.6786C301.573 86.9012 309.923 96.4754 313.643 107.166M289.393 126.739C288.393 129.466 271.873 135.918 267.393 128.715C264.893 129.901 253.393 138.102 238.793 131.462C225.014 138.788 209.392 142.04 193.793 140.829C130.843 135.997 131.793 67.6244 135.313 52.5566C136.403 47.982 141.583 62.2099 146.973 67.743C149.563 70.4206 147.643 57.2499 150.313 55.5603C168.473 84.1446 207.793 80.8149 215.583 66.2312M315.953 69.3238C339.953 72.9697 333.563 106.139 328.953 115.693C326.473 120.86 323.893 125.741 330.953 132.095C325.873 136.709 310.253 129.417 310.523 124.921M239.023 131.403C244.284 128.24 248.777 123.973 252.183 118.904L239.023 131.403Z" stroke="black" stroke-width="3" stroke-linecap="round" stroke-linejoin="round"/>
</g>
</g>
</g>
</g>
</svg>
