<svg width="512" height="512" viewBox="0 0 512 512" fill="none" xmlns="http://www.w3.org/2000/svg">
<g id="Hair8">
<g id="Hair8_2">
<g id="layer1">
<g id="g359841">
<path id="path388505" d="M324.717 154.118C336.817 169.64 333.717 178.632 325.007 187.455C323.947 183.997 323.147 180.894 321.497 176.685C324.787 171.31 322.367 163.841 320.727 159.622L324.717 154.118Z" fill="#FF0000"/>
<path id="abColor_3" d="M312.507 109.389C312.057 109.389 301.747 96.3567 301.827 95.7639C302.187 93.2542 283.747 77.5146 283.667 77.5838C284.107 77.0305 272.217 61.5972 271.027 61.8738C273.397 57.0225 280.997 50.1061 282.507 48.7229C281.507 46.3911 273.787 44.0099 270.897 47.5866C268.527 50.5508 259.067 44 259.067 44L245.507 46.8159C236.307 45.5216 227.507 42.6859 215.507 53.4062C208.617 51.6771 201.727 50.4421 194.867 54.0188C194.867 54.0188 184.447 71.3887 182.017 65.8754C181.477 69.4027 174.587 67.644 169.017 75.7559C169.017 75.7559 161.287 82.03 165.557 88.3733C163.047 92.5527 157.807 96.7915 163.097 105.951C162.165 109.908 161.02 113.813 159.667 117.649C159.667 117.649 151.167 129.822 154.987 133.656C158.807 137.489 166.647 141.135 166.647 141.135C166.647 141.135 171.337 135.207 180.867 138.171C189.787 140.898 195.327 133.606 195.327 133.606L202.167 124.457C210.657 127.994 226.027 144.761 234.167 135.721C244.927 146.016 250.627 138.556 266.437 137.499C271.817 137.252 271.247 147.301 290.137 140.631C300.567 145.463 307.967 154.958 322.587 153.338C328.947 137.875 324.127 121.433 323.777 113.816C323.777 113.816 327.157 99.8841 325.707 95.4872C324.317 101.751 325.317 91.2584 317.087 73.2067C315.087 85.004 313.307 90.379 312.577 109.409L312.507 109.389ZM356.377 146.747C351.967 137.697 347.157 141.995 342.247 149.761C337.247 141.096 332.387 145.937 327.507 154.029C334.107 165.55 335.937 177.416 324.827 190.241C326.027 196.98 332.397 196.426 340.757 193.077C346.067 195.903 350.127 202.957 360.167 190.014C373.007 196.93 372.167 178.434 368.087 175.252C378.207 169.868 375.967 152.033 362.947 158.515C371.707 142.202 362.297 146.49 356.407 146.787L356.377 146.747Z" fill="white"/>
<path id="Grey" d="M168.877 77.0799C159.137 83.769 160.207 98.3625 162.477 108.273C159.477 119.319 150.287 133.32 158.777 141.728C154.637 148.536 168.477 149.85 179.407 138.833C196.717 138.428 200.017 129.456 200.847 125.81L194.507 120.821C192.657 123.785 173.647 134.802 166.657 131.393C154.827 125.623 169.047 107.304 175.277 99.2122C167.477 95.26 169.397 80.9827 186.027 74.3134C185.847 53.5051 219.347 52.9814 216.187 52.1119C201.507 48.9304 189.977 56.8249 181.787 66.0632C174.857 70.2821 173.647 72.9301 168.877 77.0799ZM211.397 92.8887C205.662 92.8768 199.938 93.3828 194.297 94.4004L196.347 99.5679C212.007 95.4774 227.347 94.8747 240.717 104.291L264.367 106.267C257.557 101.88 251.367 100.022 242.467 99.9236C238.677 96.4358 226.407 92.9282 211.397 92.9084V92.8887ZM194.787 109.804C191.897 116.72 196.547 118.785 204.737 124.516C215.487 137.499 224.287 140.651 231.657 136.501C243.977 139.811 251.807 142.627 264.397 137.875C266.197 143.032 276.397 148.417 289.867 145.255C306.057 156.845 315.327 157.112 318.707 156.944C316.857 156.163 322.147 153.318 320.407 152.626C309.937 148.437 299.837 145.473 291.717 138.369C282.547 138.023 273.137 138.991 265.147 132.253C255.437 134.742 248.817 137.983 235.637 129.456C226.547 132.421 215.937 127.48 208.487 121.631C207.747 123.301 193.667 114.033 194.787 109.774V109.804ZM333.237 149.464C327.967 151.174 329.047 150.788 327.557 154.662C330.447 165.066 338.017 174.531 324.487 188.255C326.097 196.584 332.957 196.031 340.877 193.66C350.437 200.141 355.727 195.754 359.937 189.49C354.937 191.407 350.407 191.802 346.457 185.736C337.457 189.411 335.717 179.254 340.887 174.047C339.457 170.846 333.667 170.895 338.967 159.108C335.767 161.489 330.467 153.12 333.237 149.494V149.464Z" fill="black" fill-opacity="0.2"/>
<path id="abColor_4" d="M157.507 120.258C159.327 117.699 164.557 94.6875 194.897 97.5331M161.847 91.9802C162.557 88.8481 173.297 70.1839 200.077 74.8771M201.697 75.381C202.567 72.1007 223.327 62.1708 241.167 74.0669M306.427 118.411C323.657 128.953 321.887 136.956 324.887 146.264M196.767 101.604C197.627 98.3136 223.167 92.5434 240.997 104.44C249.937 103.451 259.897 105.487 269.267 109.044M289.047 119.142C293.047 119.754 299.227 125.07 301.957 131.808C316.637 137.737 318.137 141.887 322.647 153.546M317.097 72.8812C330.227 103.629 324.157 107.759 323.477 114.211C328.537 123.963 328.987 139.743 323.787 150.769M283.787 49.2076C280.727 42.9038 272.787 45.7889 270.177 48.9606C266.077 46.8758 257.017 40.4831 245.777 47.1327C244.487 44.0697 229.607 41.9059 219.167 52.7745C205.507 49.6621 188.047 54.958 181.647 66.4095C168.727 69.8282 155.987 94.8851 162.367 106.999M266.367 60.3429C269.467 63.2181 268.367 62.1609 275.897 66.0538C279.187 67.7632 281.347 74.2448 282.307 77.4362C283.947 80.9437 287.967 81.003 290.787 83.3644C293.057 84.4809 300.917 91.9802 301.907 97.3651C311.417 103.57 310.407 103.293 313.207 111.306M321.397 153.793C320.397 156.757 295.147 148.151 290.297 140.385C287.207 142.608 279.567 145.523 264.387 136.867C259.387 143.873 239.237 142.529 233.487 136.452C224.027 140.207 211.697 136.393 205.597 125.584C189.117 121.236 191.187 107.73 196.837 101.821C195.307 93.5809 189.237 85.6073 201.507 76.29C200.147 59.6315 210.357 58.0309 218.257 53.5649M160.187 147.163C168.897 148.803 176.817 140.167 179.317 138.567C196.927 137.025 197.417 129.951 201.457 124.546M162.697 106.761C154.577 123.944 152.057 139.733 159.477 145.987M323.427 188.493C327.817 201.555 336.847 194.826 340.997 192.445C347.737 204.845 359.677 194.224 359.917 190.854C373.047 200.636 374.917 174.65 367.207 175.609C384.797 162.972 370.297 155.986 362.207 159.247C369.077 157.142 371.337 137.104 355.477 147.726C351.977 133.834 342.697 147.103 341.677 149.574C334.997 140.77 330.887 146.965 327.567 155.285L323.427 188.493Z" stroke="black" stroke-width="3" stroke-linecap="round" stroke-linejoin="round"/>
<path id="path360322" d="M325.447 154.78C334.157 163.801 335.287 179.887 326.087 187.939" stroke="#800000" stroke-width="3" stroke-linecap="round" stroke-linejoin="round"/>
</g>
</g>
</g>
</g>
</svg>
