<svg width="512" height="512" viewBox="0 0 512 512" fill="none" xmlns="http://www.w3.org/2000/svg">
<g id="Hair6">
<g id="Hair6_2">
<g id="layer1">
<g id="g53230">
<path id="abColor_3" d="M178.487 136.054C166.417 138.03 160.157 143.8 172.487 112.785C144.717 117.725 165.807 86.4239 168.047 82.4322C134.307 76.2272 167.897 56.6441 175.897 45.6471C148.817 41.6949 171.427 29.1665 203.317 21.934C179.327 9.57347 213.997 6.68837 231.227 11.5298C245.497 -1.45316 257.137 6.31291 262.507 10.1169C276.417 -3.78495 293.827 17.2407 290.607 17.0332C289.897 15.8772 307.337 15.9365 306.367 19.9974C300.847 24.8685 298.367 33.6423 293.437 39.1853C286.997 46.3882 277.997 51.0518 278.607 53.6899C280.307 54.0159 274.797 60.2703 277.607 65.1611C279.697 68.7872 284.167 76.6126 286.607 81.1082C294.707 84.1514 305.367 96.917 311.107 98.7548C311.317 102.519 315.377 70.8325 318.507 63.5901C320.247 58.719 319.967 55.6857 319.717 52.1979C321.117 39.7781 318.387 33.6522 318.717 32.5654C321.717 23.6038 335.477 49.708 329.507 55.824C336.227 69.0837 331.507 74.8539 327.397 85.3371C331.657 97.5592 326.397 105.157 322.817 110.038C322.677 114.979 322.677 128.169 319.427 130.046C310.157 133.86 293.077 130.353 284.427 125.106C274.017 127.388 277.157 128.07 265.727 124.118C255.607 125.966 258.607 126.351 248.887 123.298C244.127 140.757 232.717 130.787 231.437 131.914C228.537 142.545 217.607 152.663 212.247 138.83C196.997 164.766 176.717 158.443 178.487 136.054Z" fill="white"/>
<path id="Grey" d="M209.237 9.59277C198.427 9.71134 190.237 12.1518 199.647 20.9751C175.357 30.322 145.467 40.0741 176.277 45.4194C155.797 62.8684 139.727 81.9772 168.947 80.3766C162.727 90.2571 145.817 122.369 173.637 111.461C162.467 135.5 163.077 144.748 180.237 133.198C177.807 167.572 200.237 158.077 212.237 138.968C220.597 151.309 230.127 136.527 229.927 130.372C230.037 133.929 216.497 141.418 213.617 131.459C193.937 147.505 180.867 146.368 183.307 130.075C184.977 118.891 164.427 141.794 179.477 109.326C185.097 97.213 152.657 113.615 174.157 80.7718C182.497 68.0359 148.367 79.3984 181.937 47.4351C188.067 41.6056 156.277 36.1417 207.937 24.4135C215.937 22.6153 184.227 13.2387 232.217 11.6282C224.627 10.3258 216.941 9.64506 209.237 9.59277ZM249.617 115.166C245.617 122.309 239.997 129.987 233.737 122.388L231.557 130.382C231.327 131.301 243.207 136.399 248.687 124.078C250.807 126.202 262.147 127.793 266.447 123.861C273.657 126.518 277.997 127.655 283.997 126.42C288.637 129.71 307.327 133.662 321.377 128.337L323.377 123.396C316.857 127.151 306.827 128.929 305.847 120.175C304.037 122.23 288.937 127.21 289.747 117.804C273.747 127.497 268.177 119.464 269.027 116.608C259.617 123.238 252.097 118.377 249.617 115.166Z" fill="black" fill-opacity="0.2"/>
<path id="abColor_4" d="M277.296 50.0729C278.806 55.3886 278.586 62.0184 275.176 65.8817C280.596 67.0476 286.846 77.2936 284.736 81.9572C293.626 82.9453 301.446 88.7352 301.736 94.9995C309.906 97.0447 308.806 96.3729 312.256 103.22M213.576 135.134C213.246 156.15 234.226 139.531 230.996 126.834C235.616 122.368 237.996 108.625 231.446 95.7208M213.686 130.727C212.036 155.27 174.576 171.988 180.386 132.575C156.906 152.672 166.476 121.084 174.796 110.621C153.166 123.366 151.646 98.843 169.606 80.5443C156.376 84.7831 138.356 74.616 177.256 45.2907C144.776 45.1129 173.256 24.6405 204.256 22.4174C173.186 9.64192 225.506 6.18375 231.806 11.0746C248.376 -1.26614 255.206 5.26486 262.806 10.2644C277.726 -0.189165 285.256 8.82184 291.046 16.4792C296.67 16.3291 302.232 17.6662 307.156 20.3524M318.416 31.2209C332.196 34.4222 331.896 46.0812 328.816 56.3668C333.376 59.5384 337.596 75.4954 327.006 86.6603C330.006 94.3078 330.246 102.202 322.506 110.769C324.816 118.95 323.796 125.145 320.026 128.791M307.716 119.108C304.716 123.603 298.416 128.583 288.296 127.121M265.256 123.218C275.756 131.014 286.046 125.54 289.566 118.752L265.256 123.218ZM248.406 122.922C265.206 131.962 271.286 116.993 268.926 108.022L248.406 122.922ZM232.396 131.587C246.846 140.094 251.186 115.62 247.816 107.706L232.396 131.587Z" stroke="black" stroke-width="3" stroke-linecap="round" stroke-linejoin="round"/>
</g>
</g>
</g>
</g>
</svg>
