<svg width="512" height="512" viewBox="0 0 512 512" fill="none" xmlns="http://www.w3.org/2000/svg">
<g id="Hair7">
<g id="Hair7_2">
<g id="layer1">
<g id="g165544">
<path id="abColor_3" d="M202.083 47.0992L180.963 59.8154C175.493 57.2959 166.553 91.1662 169.443 92.9744C170.443 121.084 158.213 120.442 147.233 122.497C150.773 128.337 155.653 132.98 169.723 129.414C172.233 131.39 156.133 142.91 152.463 140.638C156.013 144.205 178.163 141.774 178.163 141.774L172.363 148.038C215.863 153.305 220.673 105.908 218.293 112.923C225.533 133.119 271.593 155.409 288.903 147.159L288.343 138.583C286.623 142.604 301.643 151.674 313.923 145.371C302.243 141.982 296.123 125.096 299.193 125.116C310.303 134.789 320.923 147.218 337.753 134.008L323.413 126.509C331.043 124.444 347.623 128.91 347.303 120.136C342.643 121.312 320.423 118.753 327.303 97.1044C329.073 84.902 321.973 77.6201 318.023 66.9788C318.023 66.9788 313.193 99.5844 312.533 96.0472C311.873 92.51 300.603 76.5629 298.883 73.9742L285.143 59.2325C284.143 60.8825 277.353 57.2564 277.643 55.0926C278.013 52.3952 288.523 43.7596 288.523 43.7596C274.043 36.4678 235.903 40.7955 227.423 48.1268C218.723 47.5735 209.073 43.8189 202.083 47.1388V47.0992Z" fill="white"/>
<path id="Grey" d="M279.254 56.96L297.194 75.5056C302.474 82.2343 308.394 88.3503 312.194 96.0274L320.194 123.624C320.194 123.624 321.004 124.157 327.094 125.046C331.24 125.495 335.435 125.122 339.434 123.95C339.434 124.147 322.174 120.986 319.764 112.093C318.334 106.797 314.454 87.3919 314.764 86.1667L312.884 95.4148C310.124 91.4626 306.244 83.3705 300.814 76.7605L279.254 56.96ZM213.934 60.1909C210.284 63.3329 203.684 83.9041 208.724 101.353C216.724 129.018 195.444 140.737 182.724 148.147C180.794 150.864 208.874 142.357 215.194 124.305C220.084 110.611 213.424 99.8215 212.084 98.9817L213.934 60.1909ZM243.564 79.5962C258.314 89.4767 281.354 126.193 287.504 137.525L288.124 143.889C289.894 149.036 300.804 150.953 311.034 148.453C309.416 148.328 307.807 148.11 306.214 147.801C309.804 147.09 312.214 145.509 312.004 145.301C295.734 146.606 281.494 115.66 280.804 114.435C269.084 93.0534 243.564 79.5962 243.564 79.5962ZM170.804 80.2088C167.654 102.776 177.004 117.755 148.334 124.137C150.474 126.282 153.07 127.929 155.934 128.959C161.144 131.034 170.104 126.173 170.104 126.173L178.104 84.8032C174.814 88.4194 171.844 89.9904 170.804 80.2088ZM189.914 88.1131C180.004 98.379 182.584 111.658 183.114 117.834C185.114 140.895 166.444 138.938 163.024 143.157C161.944 144.274 192.024 142.387 188.734 127.26C185.984 114.435 189.624 89.1012 189.914 88.0539V88.1131ZM292.654 94.2588L298.014 122.349C298.014 122.349 297.924 125.461 312.014 135.292C326.104 145.124 335.834 135.223 335.834 135.223C335.834 135.223 320.754 143.592 306.034 124.72C299.544 116.361 301.084 107.331 292.654 94.1995V94.2588ZM299.194 127.062C300.964 132.427 302.814 137.664 306.554 139.847C312.804 142.989 318.674 145.44 325.034 141.082C313.624 139.264 304.264 134.067 299.194 127.003V127.062Z" fill="black" fill-opacity="0.2"/>
<path id="abColor_3_2" d="M216.704 110.167C221.604 145.806 174.934 152.387 170.444 148.593C185.814 136.163 191.154 137.042 186.844 116.392C185.709 111.332 185.634 106.096 186.625 101.007C187.615 95.9177 189.65 91.0827 192.604 86.7999M215.424 59.4606C186.424 56.4174 174.574 80.6543 172.324 121.421C171.214 141.469 150.084 139.601 151.854 140.777C167.234 147.081 180.934 143.099 188.144 130.64M170.454 128.13C164.684 130.205 153.454 134.444 147.054 123.358C145.714 121.016 169.864 125.472 169.374 105.514C168.634 75.7931 169.714 63.0275 194.784 50.1828C201.474 46.7741 214.284 42.891 228.104 46.7148M288.104 146.508C279.714 108.043 246.344 79.0339 227.254 73.1846M256.354 62.5334C273.924 69.9043 294.734 84.4582 298.594 123.634C298.714 143.662 317.174 144.383 315.374 145.539C295.044 153.879 286.094 136.647 277.304 118.082M322.594 124.672C327.594 125.848 339.334 129.128 347.964 120.72C349.904 118.832 327.324 124.128 327.324 104.17C327.324 88.361 323.864 76.1685 317.854 66.8315M289.394 44.8474C275.694 38.8203 242.104 37.5062 226.464 48.5229M298.804 123.615C301.584 129.711 322.704 149.363 337.654 134.641C341.334 131.015 319.144 133.218 316.184 114.139C307.794 75.6646 284.184 57.1585 265.094 51.3092M226.614 48.5921C212.914 56.2494 211.454 73.9158 211.544 78.4904C207.304 118.101 247.434 154.274 287.644 147.654C273.094 140.599 256.704 137.22 248.194 117.311" stroke="black" stroke-width="3" stroke-linecap="round" stroke-linejoin="round"/>
</g>
</g>
</g>
</g>
</svg>
