<svg width="512" height="512" viewBox="0 0 512 512" fill="none" xmlns="http://www.w3.org/2000/svg">
<g id="Hair5">
<g id="Hair5_2">
<g id="layer1">
<g id="g45110">
<path id="abColor_3" d="M237.901 133.561C239.951 134.549 232.531 160.604 221.781 166.018C219.781 167.006 210.631 168.666 209.381 165.83C213.661 163.904 213.951 147.215 209.951 149.29C208.851 154.152 199.531 161.147 197.221 158.301C196.221 156.612 199.651 148.688 199.531 146.662C197.421 141.613 191.961 134.391 187.201 131.841C179.691 138.323 168.561 138.896 164.041 133.165C174.501 126.812 176.531 135.724 171.761 99.7199C166.611 98.9493 159.061 98.7319 158.151 91.4104C176.431 93.6731 175.551 77.6766 181.881 63.1621C188.381 55.3664 200.101 57.5204 198.261 57.7773C203.641 59.457 203.391 62.9843 204.261 49.0824C208.651 46.7803 220.551 45.5551 223.531 43.747C233.681 32.8784 239.171 37.4531 253.951 38.9747C269.891 31.1494 278.011 39.2909 287.541 46.5926C286.311 46.2171 274.541 57.1548 275.241 60.6525C286.721 68.4186 279.681 79.4946 313.241 100.431C310.241 101.568 317.481 65.9781 317.241 68.8138C320.241 72.4498 323.931 75.9475 324.931 80.3245C326.731 89.0688 321.731 97.1807 326.101 105.717C327.531 108.514 334.351 107.575 334.801 109.847C333.411 117.08 325.661 113.8 321.961 112.387C321.111 125.883 338.171 119.599 336.151 124.382C330.911 131.693 321.931 130.31 314.501 128.956C311.841 128.403 308.501 124.164 305.501 121.368C300.571 125.399 293.711 124.866 287.731 121.368C282.551 123.755 276.646 124.108 271.211 122.356C263.071 134.974 251.311 140.141 237.901 133.491V133.561Z" fill="white"/>
<path id="shadow" d="M287.571 78.2098C286.131 74.5738 279.071 62.5986 278.131 63.2211L275.131 61.3043L271.131 60.8794C278.891 66.2544 276.681 74.0896 282.071 81.0158C292.691 87.1319 297.241 89.9083 300.331 99.8876C305.331 99.0675 309.151 101.014 313.331 102.209C313.331 102.209 315.441 99.7196 309.581 97.1606C293.941 92.082 303.741 80.5811 287.571 78.2098ZM209.141 48.9932C209.141 48.9932 201.381 53.637 199.811 56.117C198.241 58.597 191.281 60.3656 191.281 60.3656C191.281 60.3656 199.281 59.6542 201.421 64.0214C206.811 76.1546 194.851 76.3127 197.311 87.6358L204.341 77.8244L200.531 84.4641C206.891 77.775 213.531 80.9467 214.341 78.4074C215.541 74.4552 206.811 80.2254 211.461 63.5372L207.141 72.9336C206.141 68.1613 207.981 63.6459 214.581 58.429C211.681 59.5949 207.841 60.9782 204.961 57.3718C202.081 53.7654 209.111 48.9932 209.111 48.9932H209.141ZM178.601 73.5363C174.781 90.2442 157.931 93.2973 157.871 91.5583C157.871 91.5583 156.701 94.8683 161.201 96.0935C165.701 97.3186 172.591 100.046 172.591 100.046C171.161 107.09 178.421 125.834 172.821 129.163C169.821 130.675 163.591 133.926 163.591 133.926C170.941 139.933 177.751 136.732 187.181 131.95L187.071 129.322C187.608 132.306 189.044 135.061 191.191 137.226C197.761 143.401 201.741 147.018 199.471 151.721C197.201 156.424 194.881 160.277 197.711 159.892C200.541 159.506 210.401 150.288 210.401 150.288C210.401 150.288 212.401 162.648 213.401 157.412C214.581 151.098 210.531 129.44 209.341 123.561C208.062 117.265 205.662 111.243 202.251 105.776C199.031 100.945 196.821 92.9317 196.821 92.9317C196.821 92.9317 201.161 110.964 199.721 117.504C198.281 124.045 194.031 129.964 190.611 123.028C187.191 116.092 186.891 118.957 186.891 118.957C186.891 118.957 186.801 119.708 186.721 120.35V119.431C186.091 118.749 183.721 121.318 180.221 118.601C175.781 115.133 178.221 102.269 179.791 97.5558C181.361 92.8428 185.541 87.1516 185.541 87.1516C186.821 84.3159 184.801 82.4683 178.731 87.9322C176.441 87.122 175.821 84.0887 178.601 73.5363ZM271.901 83.8417C273.381 96.6171 274.061 116.368 288.351 109.64C284.491 106.616 279.931 106.824 279.571 99.4429C279.141 90.5406 272.341 83.5749 271.901 83.8318V83.8417ZM261.741 119.52C264.435 118.943 266.983 117.834 269.231 116.26C261.151 114.392 257.231 108.227 256.941 103.257C248.081 105.302 255.341 119.698 261.741 119.52ZM269.231 116.26C269.729 116.549 270.243 116.81 270.771 117.04L270.321 115.449C270.321 115.449 269.911 115.795 269.231 116.26ZM270.771 117.04L272.291 122.425C272.291 122.425 288.911 125.567 289.201 114.046C281.541 118.828 275.431 119.046 270.771 117.01V117.04ZM291.901 112.515C292.431 116.398 291.451 115.479 288.901 120.113L282.011 123.601L281.941 126.861C291.401 128.679 300.661 127.128 305.031 124.816C305.031 124.816 308.321 129.825 312.671 130.981C315.488 131.664 318.413 131.799 321.281 131.377C320.821 131.14 320.351 130.902 319.901 130.655C327.021 132.305 333.361 129.667 335.441 127.039C324.331 128.729 315.981 125.765 309.441 115.005L306.671 120.617L306.071 120.024H303.541C306.061 118.769 307.081 117.346 304.461 117.001C298.991 118.463 294.081 116.922 291.901 112.515ZM236.061 119.629C233.891 119.629 234.511 125.903 234.451 127.237C234.211 131.772 228.621 157.066 228.621 157.066L238.791 134.114C238.791 134.114 260.301 139.113 267.261 127.375C267.261 127.375 260.201 131.159 252.681 131.001C242.771 130.794 235.681 120.301 236.531 119.708C236.38 119.655 236.221 119.628 236.061 119.629Z" fill="black" fill-opacity="0.2"/>
<path id="outline" d="M314.832 103.178C310.702 95.4812 303.992 100.728 301.122 91.6476C298.732 84.0791 291.682 82.5674 285.722 79.0104C284.952 67.055 275.052 61.3737 270.802 60.0992M322.122 112.387C323.052 115.232 334.792 118.117 334.682 109.136C334.682 106.498 320.682 114.59 324.422 89.5727C327.032 76.9454 322.112 73.8429 316.122 66.729M287.122 45.6341C275.722 36.1884 266.632 30.5664 253.592 39.4687C243.732 40.022 237.302 30.6454 222.932 44.2212C211.032 46.9186 204.542 46.6617 198.872 58.4787C190.952 58.9925 179.312 61.2354 177.352 72.8153C172.292 102.724 154.272 85.66 157.352 92.7048C160.432 99.7496 172.532 101.054 173.432 98.3366M322.062 111.893C324.252 130.152 337.802 119.797 337.372 122.979C335.892 134.074 318.272 132.414 312.722 126.15M238.342 132.82C249.592 142.7 274.202 131.832 271.082 115.608C270.342 112.071 256.172 131.832 253.102 107.13M272.452 122.425C279.872 126.012 294.522 119.688 290.272 108.978C288.992 105.777 276.142 122.257 274.692 96.5977C274.082 85.8181 269.692 81.9548 263.952 79.9985M207.512 129.272C208.512 120.696 204.912 111.221 200.682 103.089C193.322 88.9502 200.562 79.376 206.522 75.8388C207.342 63.8439 211.782 61.186 216.342 58.7159M187.462 129.855C186.952 136.94 171.372 141.169 163.972 134.568C158.262 129.48 181.392 139.686 172.562 109.689C170.492 97.477 177.062 91.9044 182.562 87.1717M210.702 142.157C211.702 150.061 203.852 161.384 196.592 159.408C192.292 158.242 208.932 149.122 192.262 138.56C186.632 133.946 186.602 124.233 186.982 120.41M238.092 132.908C236.042 144.34 224.882 174.407 210.622 167.332C204.932 164.506 218.282 161.651 210.472 150.476M293.412 122.089C297.492 124.737 308.942 122.504 309.012 110.934C309.012 108.672 296.662 121.882 295.762 97.6154" stroke="black" stroke-width="3" stroke-linecap="round" stroke-linejoin="round"/>
</g>
</g>
</g>
</g>
</svg>
