<svg width="512" height="512" viewBox="0 0 512 512" fill="none" xmlns="http://www.w3.org/2000/svg">
<g id="Mouth1">
<g id="Mouth1_2">
<g id="layer1">
<g id="g298999">
<path id="abColor_2" d="M198.209 249.5C194.849 252.78 198.799 258.89 200.389 258.34C211.289 257.57 239.149 255.81 244.599 234.21C267.989 169.64 230.409 166.92 208.459 167.06C200.769 173.35 190.399 176.26 185.389 185.94C184.549 201.89 181.459 219.83 198.049 218.18C198.049 218.18 189.939 227.53 192.289 233.43C194.639 239.33 194.859 239.08 196.699 239.75C196.239 240.64 202.159 245.65 198.209 249.5V249.5Z" fill="white"/>
<path id="path13904-1" d="M199.599 220L200.599 225.29L219.659 223.64L226.859 216.64C214.919 221.06 216.589 216.93 209.079 216.83C205.829 218.73 202.629 220 199.599 220Z" fill="#FFFFF2"/>
<path id="abColor_2_2" d="M197.669 257.76C209.299 253.88 213.519 266.97 212.259 266.62C219.899 260.72 229.389 265.67 230.629 268.03C236.439 262.65 242.499 264.97 243.329 266.03M218.659 223.76C215.259 224.76 210.409 225.76 208.989 224.51L208.659 217.36M203.489 225.13C194.349 231.8 200.489 238.54 226.829 218.18M196.929 220.28C184.999 238.34 196.319 243.28 212.419 236.77M206.709 200.14C207.329 207.66 206.199 212.57 209.949 215.68C224.239 221.9 240.949 215.4 245.429 206.73M197.539 195.46C194.379 193.46 190.079 192 189.839 188.65L206.549 200C214.819 195.31 225.149 191.81 233.239 186C229.559 191.65 225.239 192.71 220.959 194.27M209.269 164.13C205.739 173.53 185.799 179.13 184.579 186.13C183.279 197.38 182.249 214.07 190.279 216.46C200.279 221.4 208.479 216.08 209.149 215.34M207.999 224.78C206.099 225.04 201.789 225.52 200.489 224.52L200.169 218.82M241.329 204.5C244.979 203.99 246.479 204.9 249.439 208.62" stroke="#999999" stroke-width="3" stroke-linecap="round" stroke-linejoin="round"/>
</g>
</g>
<g id="layer1_2">
<g id="g298999_2">
<path id="abColor_1" d="M198.209 249.5C194.849 252.78 198.799 258.89 200.389 258.34C211.289 257.57 239.149 255.81 244.599 234.21C267.989 169.64 230.409 166.92 208.459 167.06C200.769 173.35 190.399 176.26 185.389 185.94C184.549 201.89 181.459 219.83 198.049 218.18C198.049 218.18 189.939 227.53 192.289 233.43C194.639 239.33 194.859 239.08 196.699 239.75C196.239 240.64 202.159 245.65 198.209 249.5V249.5Z" fill="white"/>
<path id="path13904-1_2" d="M199.599 220L200.599 225.29L219.659 223.64L226.859 216.64C214.919 221.06 216.589 216.93 209.079 216.83C205.829 218.73 202.629 220 199.599 220Z" fill="#FFFFF2"/>
<path id="Outlines" d="M197.669 257.76C209.299 253.88 213.519 266.97 212.259 266.62C219.899 260.72 229.389 265.67 230.629 268.03C236.439 262.65 242.499 264.97 243.329 266.03M218.659 223.76C215.259 224.76 210.409 225.76 208.989 224.51L208.659 217.36M203.489 225.13C194.349 231.8 200.489 238.54 226.829 218.18M196.929 220.28C184.999 238.34 196.319 243.28 212.419 236.77M206.709 200.14C207.329 207.66 206.199 212.57 209.949 215.68C224.239 221.9 240.949 215.4 245.429 206.73M197.539 195.46C194.379 193.46 190.079 192 189.839 188.65L206.549 200C214.819 195.31 225.149 191.81 233.239 186C229.559 191.65 225.239 192.71 220.959 194.27M209.269 164.13C205.739 173.53 185.799 179.13 184.579 186.13C183.279 197.38 182.249 214.07 190.279 216.46C200.279 221.4 208.479 216.08 209.149 215.34M207.999 224.78C206.099 225.04 201.789 225.52 200.489 224.52L200.169 218.82M241.329 204.5C244.979 203.99 246.479 204.9 249.439 208.62" stroke="black" stroke-width="3" stroke-linecap="round" stroke-linejoin="round"/>
</g>
</g>
</g>
</g>
</svg>
