<svg width="512" height="512" viewBox="0 0 512 512" fill="none" xmlns="http://www.w3.org/2000/svg">
<g id="Mouth3">
<g id="Mouth3_2">
<g id="layer1">
<g id="g300784">
<path id="abColor_3" d="M207.573 168.21C203.063 168.56 190.163 178.21 187.923 181.68C180.583 193.07 183.573 192.68 182.923 196.19C185.763 204.351 180.013 214.911 197.743 216.891C203.693 219.891 201.743 229.201 200.743 230.241C198.543 232.411 193.253 232.911 196.393 237.751C245.583 261.501 264.843 217.191 255.533 189.95C248.723 172.62 222.633 167.06 207.573 168.21Z" fill="white"/>
<path id="path421838" d="M243.794 211.26C244.374 212.51 239.254 226.26 237.684 225.36V214.59L243.794 211.26Z" fill="#A37070"/>
<path id="path13904" d="M199.144 218.301L200.954 225.301L199.544 231.911C213.014 233.911 229.404 231.991 236.594 227.541L236.804 214.121C225.654 219.881 216.904 218.041 208.474 215.231C205.254 217.101 202.114 218.371 199.144 218.301Z" fill="#FFFFF2"/>
<path id="abColor_4" d="M236.783 225.631C236.123 221.831 235.353 221.031 237.273 215.46M199.713 230.241L201.583 225.241L199.783 217.421M201.513 224.201C210.363 225.201 223.883 225.201 234.083 221.641M245.643 208.45C243.163 219.211 240.273 224.861 237.823 226.671C231.023 231.671 213.513 232.531 199.053 231.371C191.623 230.771 193.563 241.641 207.263 242.111M205.823 199.35C206.423 206.72 205.313 211.54 209.003 214.6C230.453 224.361 251.653 206.16 252.943 196.12M196.823 194.76C193.723 192.76 189.503 191.37 189.263 188.07L205.663 199.22C213.773 194.62 223.903 191.22 231.843 185.49C228.223 191.03 223.973 192.08 219.793 193.6M208.333 164C204.863 173.22 185.333 178.72 184.103 185.58C182.843 196.58 181.833 212.98 189.703 215.33C199.503 220.181 207.553 214.95 208.213 214.23M200.703 258.911C210.243 254.571 213.753 266.361 212.643 265.981C221.073 257.341 233.343 260.211 234.353 262.701C234.113 253.701 245.133 250.471 246.763 251.701M249.033 194.23C252.613 193.73 254.093 194.62 257.033 198.23L249.033 194.23Z" stroke="black" stroke-width="3" stroke-linecap="round" stroke-linejoin="round"/>
</g>
</g>
</g>
</g>
</svg>
