<svg width="512" height="512" viewBox="0 0 512 512" fill="none" xmlns="http://www.w3.org/2000/svg">
<g id="Mouth5">
<g id="Mouth5_2">
<g id="layer1">
<g id="g8786">
<path id="abColor_3" d="M200.397 214.43C197.987 219.55 204.637 221.57 202.867 229.891C195.537 233.221 190.427 233.891 211.187 243.281C254.677 253.211 256.947 210.28 253.837 187.82C253.737 172.41 223.617 164.66 205.837 166.04C201.317 166.39 186.127 176.98 183.837 180.47C176.487 191.87 181.737 190.47 181.047 194.06C181.197 207.93 181.557 214.56 200.327 214.43H200.397Z" fill="white"/>
<path id="path13904-6" d="M200.057 215.621L199.537 219.621C212.087 223.811 226.947 222.411 237.107 216.261L238.577 210.181C227.407 215.951 214.007 216.611 205.577 213.801C202.337 215.651 202.997 215.691 200.057 215.621Z" fill="#FFFFF2"/>
<path id="path295871" d="M246.407 204.86C246.407 204.86 240.727 225.031 227.077 228.801C218.809 231.08 210.181 231.759 201.657 230.801C201.657 230.801 203.837 223.801 203.657 221.731C199.937 223.781 234.807 218.911 237.717 215.45L239.117 209.53L246.407 204.86Z" fill="#D47575"/>
<path id="path295883" d="M201.997 220.521C207.687 223.091 226.287 221.521 237.127 215.711C238.657 214.881 238.397 211.271 238.617 210.251" stroke="black" stroke-width="3" stroke-linecap="round" stroke-linejoin="round"/>
<path id="abColor_4" d="M198.437 256.541C207.097 253.231 210.677 267.081 209.787 266.671C216.997 257.901 230.667 263.841 231.887 266.201C238.117 258.431 244.267 262.331 245.017 262.961M201.717 230.521C200.187 229.461 192.647 235.231 201.497 240.321C208.027 244.071 216.147 243.121 216.157 243.391M202.997 197.43C203.597 204.82 202.487 209.64 206.187 212.711C212.277 217.761 224.097 214.711 230.767 212.341C236.707 210.21 250.577 203.41 254.477 190.02M193.997 192.86C190.887 190.86 186.657 189.46 186.427 186.17L202.847 197.34C210.977 192.72 221.117 189.34 229.077 183.58C225.457 189.13 221.197 190.17 217.007 191.7M205.657 163C199.907 174.9 186.007 174.5 181.257 183.71C179.987 194.76 178.637 206.33 187.157 212.221C196.967 217.071 204.747 213.131 205.407 212.401M198.997 215.171C199.997 215.271 196.677 220.721 202.577 221.401C205.407 224.471 202.577 229.471 201.977 230.631C209.547 234.121 225.357 231.631 232.067 227.371C240.337 222.081 245.067 207.51 247.717 202.07M251.017 188.79C254.597 188.28 256.077 189.18 259.017 192.79" stroke="black" stroke-width="3" stroke-linecap="round" stroke-linejoin="round"/>
</g>
</g>
</g>
</g>
</svg>
