<svg width="512" height="512" viewBox="0 0 512 512" fill="none" xmlns="http://www.w3.org/2000/svg">
<g id="Mouth7">
<g id="Mouth7_2">
<g id="layer1">
<g id="g298999">
<path id="abColor_3" d="M195.472 250.32C192.192 253.52 196.052 259.5 197.602 258.95C208.242 258.2 235.452 256.48 240.772 235.39C263.612 172.33 226.922 169.68 205.482 169.81C197.972 175.96 187.842 178.81 182.952 188.25C182.122 203.82 179.112 221.34 195.322 219.74C195.322 219.74 187.392 228.87 189.692 234.62C191.992 240.37 192.192 240.14 194.002 240.8C193.552 241.67 199.332 246.56 195.472 250.32V250.32Z" fill="white"/>
<path id="path13904-1" d="M196.823 221.46L197.823 226.63L216.453 225L223.453 218.22C211.793 222.54 213.453 218.5 206.083 218.41C202.913 220.27 199.783 221.54 196.823 221.46Z" fill="#FFFFF2"/>
<path id="abColor_4" d="M194.943 258.39C206.303 254.6 210.423 267.39 209.193 267.04C216.653 261.28 225.923 266.12 227.133 268.42C232.813 263.16 238.723 265.42 239.533 266.48M215.443 225.2C212.123 226.2 207.383 227.11 206.003 225.92L205.673 218.92M200.673 226.51C191.743 233.02 197.673 239.61 223.463 219.73M194.253 221.78C182.603 239.41 193.663 244.28 209.393 237.88M203.813 202.1C204.413 209.45 203.313 214.24 206.983 217.29C220.933 223.36 237.223 217.01 241.623 208.55M206.273 167C202.823 176.18 183.353 181.65 182.153 188.48C180.893 199.48 179.883 215.77 187.723 218.1C197.483 222.93 205.503 217.73 206.153 217.01M205.013 226.21C203.153 226.47 198.943 226.93 197.683 225.96L197.363 220.39M237.563 206.39C241.123 205.88 242.563 206.78 245.483 210.39M194.853 197.55C191.773 195.6 187.563 194.17 187.333 190.89L203.613 202C211.693 197.42 221.773 194 229.683 188.33C226.083 193.84 221.853 194.88 217.683 196.4L194.853 197.55Z" stroke="black" stroke-width="3" stroke-linecap="round" stroke-linejoin="round"/>
</g>
</g>
</g>
</g>
</svg>
