<svg width="512" height="512" viewBox="0 0 512 512" fill="none" xmlns="http://www.w3.org/2000/svg">
<g id="Mouth4">
<g id="Mouth4_2">
<g id="layer1">
<g id="g300826">
<path id="abColor_3" d="M207.311 167.85C206.221 167.85 205.171 167.91 204.161 167.99C200.041 168.31 188.291 177.1 186.241 180.27C179.561 190.64 182.241 190.27 181.661 193.48C184.241 200.92 179.001 210.54 195.161 212.35C195.161 212.61 195.161 212.89 195.101 213.18C193.117 213.332 191.121 213.235 189.161 212.89C188.891 213.49 188.751 220.89 190.161 221.25C192.043 221.516 193.941 221.653 195.841 221.66C196.059 222.171 196.403 222.618 196.841 222.96C198.131 226.5 200.121 229.73 202.671 231.3C200.851 230.77 191.591 239.46 202.671 241.7C196.771 244.3 197.241 248.58 199.511 252.7C199.301 252.7 199.091 252.7 198.861 252.7C197.121 252.7 193.651 254.53 194.501 259.53C196.191 269.53 206.331 266.9 208.081 267.58C220.671 269.11 228.841 267.03 237.801 256.74C250.671 239.74 249.801 203.32 247.801 187.83C247.721 174.69 223.631 167.67 207.311 167.83V167.85Z" fill="white"/>
<path id="path434979" d="M204.001 232.53C204.001 232.53 217.821 233.92 223.781 229.77C229.741 225.62 234.111 219.77 234.841 213.11C235.571 206.45 234.381 207.92 234.381 207.92L228.161 211.28C228.041 211.28 228.671 218.45 227.861 219.16C225.101 221.59 221.501 221.08 221.061 221.22C219.401 221.76 212.511 224.44 211.131 224.15C206.131 223.09 212.451 218.39 206.851 218.72L204.361 224.92C201.771 226.31 203.581 229.73 204.001 232.53Z" fill="#A37070"/>
<path id="abColor_3" d="M192.001 221.89C192.001 221.89 194.711 227.57 194.731 229.63C194.751 231.69 194.621 237.15 194.651 236.71C194.651 236.03 200.901 231.71 202.381 231.71C202.821 230.99 202.651 225.85 202.461 223.95L192.001 221.89ZM196.931 241.29L194.521 251.1C194.521 251.1 200.831 252.96 200.071 250.84C198.441 246.36 202.721 242.16 203.071 242.58L196.931 241.29Z" fill="white"/>
<path id="path13904-3" d="M189.851 213.67L190.191 220.67L195.761 222.58C201.601 225.33 205.081 222.27 206.961 218.05C207.961 227.551 221.071 222.53 226.761 218.62L226.871 212.02C214.311 215.43 211.871 213.02 205.161 211.19C202.231 212.88 192.561 213.77 189.851 213.71V213.67Z" fill="#FFFFF2"/>
<path id="abColor_4" d="M194.711 251.81C205.101 248.34 207.651 264.68 206.521 264.37C215.331 255.25 222.801 261.37 223.861 263.57C226.441 254.89 235.481 253.57 237.061 255.72M201.551 232.28C204.291 230.79 203.551 227.01 202.621 223.51M236.291 204.93C233.291 228.93 224.451 232.93 203.021 232.29C193.571 231.99 192.961 242.08 203.431 241.42M202.691 196.3C203.241 203.02 202.231 207.41 205.591 210.19C225.141 219.09 240.591 203.03 241.771 193.88M194.501 192.12C191.671 190.33 187.831 189.03 187.611 186.03L202.551 196.19C209.941 191.99 219.171 188.87 226.411 183.68C223.111 188.68 219.241 189.68 215.411 191.06M205.001 164.13C201.841 172.53 184.001 177.54 182.931 183.79C181.781 193.85 180.861 208.79 188.031 210.89C196.951 215.31 204.291 210.55 204.901 209.89M194.501 221L190.151 221.2C188.881 221.06 189.151 214.99 189.541 213.09M221.061 220.29L226.601 219.41C229.121 218.46 227.601 215.51 227.011 211.5M195.341 214C195.431 215.18 194.191 223.51 197.341 223.53H204.041C206.601 223.07 204.951 217.79 204.881 212.73M237.571 192.19C240.831 191.73 242.171 192.55 244.811 195.87L237.571 192.19ZM207.711 212.38C207.711 212.38 208.711 224.04 210.541 223.86L218.351 223.07C221.451 222.28 219.191 216.84 218.561 212.75L207.711 212.38Z" stroke="black" stroke-width="3" stroke-linecap="round" stroke-linejoin="round"/>
</g>
</g>
</g>
</g>
</svg>
