<svg width="512" height="512" viewBox="0 0 512 512" fill="none" xmlns="http://www.w3.org/2000/svg">
<g id="Mouth2">
<g id="Mouth2_2">
<g id="layer1">
<g id="g300868">
<path id="abColor_3" d="M192.602 215.458C191.992 220.878 191.842 222.237 197.122 225.257C193.852 234.657 191.122 233.447 196.422 242.506C188.292 246.096 190.222 254.316 194.352 259.396C204.132 263.395 226.502 257.396 231.132 252.206C245.882 240.837 246.352 206.558 244.322 191.349C244.232 177.57 217.322 170.65 201.432 171.88C197.432 172.2 185.842 180.88 183.832 183.939C177.272 194.129 179.942 193.759 179.332 196.939C181.862 204.248 176.722 213.698 192.602 215.468V215.458Z" fill="white"/>
<path id="abColor_4" d="M192.692 244.046C202.902 240.636 206.612 252.136 205.492 251.826C212.212 246.646 220.492 250.996 221.632 253.066M197.562 224.757C190.352 235.757 198.562 243.346 197.442 243.036M191.672 217.108C191.602 222.317 194.972 225.487 203.922 224.987M200.002 199.688C200.542 206.288 199.552 210.608 202.852 213.338C208.302 217.857 218.852 215.158 224.852 213.018C230.162 211.108 242.552 205.018 246.042 193.019M191.982 195.529C189.202 193.779 185.422 192.529 185.212 189.529L199.892 199.528C207.152 195.409 216.222 192.339 223.332 187.239C220.092 192.239 216.282 193.129 212.542 194.499M201.712 169.67C195.222 179.419 183.762 178.909 180.592 187.349C179.462 197.229 178.592 211.878 185.592 213.978C194.362 218.317 201.592 213.648 202.162 212.978M242.922 191.869C246.132 191.419 247.452 192.219 250.042 195.489" stroke="black" stroke-width="3" stroke-linecap="round" stroke-linejoin="round"/>
</g>
</g>
</g>
</g>
</svg>
