<svg width="512" height="512" viewBox="0 0 512 512" fill="none" xmlns="http://www.w3.org/2000/svg">
<g id="Mouth6">
<g id="Mouth6_2">
<g id="layer1">
<g id="g300907">
<path id="abColor_3" d="M232.467 226.65C232.467 227.98 188.677 235.45 187.927 224.75C187.567 219.67 187.457 218.57 190.147 218C191.785 217.649 193.393 217.171 194.957 216.57L194.807 212.76C170.407 211.62 182.147 191.37 182.197 180.86C216.977 153.35 218.397 170.73 238.827 178.74C249.507 208.74 241.767 224.07 232.467 226.65V226.65Z" fill="white"/>
<path id="path13904-9" d="M195.367 214.59L195.267 218.59L218.327 216.41L218.007 214.04C209.387 213.54 211.377 213.64 203.517 211.32C200.517 213.03 198.117 214.63 195.367 214.56V214.59Z" fill="#FFFFF2"/>
<path id="path90947" d="M194.907 213.821C194.997 215.021 194.387 219.621 196.397 219.201C197.368 218.908 198.386 218.803 199.397 218.891C201.617 219.061 201.217 218.161 201.137 213.031M226.507 218.001C222.427 215.071 219.117 215.641 216.047 219.101L226.507 218.001ZM216.047 219.761C212.807 217.591 206.757 217.591 203.507 221.191L216.047 219.761ZM203.507 219.291C201.257 218.941 194.137 217.971 191.897 221.141L203.507 219.291ZM210.287 213.271C210.377 214.471 209.237 218.111 211.287 217.971L216.287 217.641C218.887 216.901 218.727 217.891 218.287 213.561L210.287 213.271ZM201.387 212.561C201.497 213.721 200.217 218.761 202.767 218.611L207.087 218.351C209.867 218.511 209.677 218.141 209.577 213.181L201.387 212.561Z" stroke="black" stroke-width="3" stroke-linecap="round" stroke-linejoin="bevel"/>
<path id="abColor_4" d="M193.267 248.7C203.797 245.19 207.617 257.04 206.477 256.7C213.397 251.36 221.987 255.84 223.107 257.98C228.377 253.1 233.857 255.2 234.607 256.18M198.997 229.25C195.467 229.47 188.917 228.43 187.907 224.7C185.907 217.46 192.717 216.13 194.007 217.53M201.367 196.53C201.927 203.33 200.897 207.78 204.297 210.6C225.967 220.7 236.127 204.53 236.297 196.03M192.997 192.29C190.137 190.48 186.247 189.16 185.997 186.12L201.127 196.41C208.617 192.16 217.967 189 225.297 183.74C221.957 188.85 218.037 189.81 214.177 191.22M204.787 163.58C202.087 172.15 182.327 176.27 181.237 183.85C180.067 194.04 179.127 209.15 186.397 211.31C195.397 215.79 202.877 210.97 203.487 210.31M233.177 193.71C236.477 193.25 237.837 194.07 240.517 197.44L233.177 193.71Z" stroke="black" stroke-width="3" stroke-linecap="round" stroke-linejoin="round"/>
</g>
</g>
</g>
</g>
</svg>
