<svg width="512" height="512" viewBox="0 0 512 512" fill="none" xmlns="http://www.w3.org/2000/svg">
<g id="Mouth8">
<g id="Mouth8_2">
<g id="layer1">
<g id="g300983">
<path id="abColor_3" d="M194.108 219.479C194.108 219.479 195.338 230.578 196.198 230.568C197.058 230.558 199.878 230.868 199.878 230.868C199.878 230.868 192.458 273.007 195.318 275.527C210.158 288.616 237.188 273.467 242.718 247.438C245.548 234.118 259.228 207.969 237.048 181.68C232.706 177.507 227.359 174.527 221.527 173.029C215.694 171.531 209.573 171.566 203.758 173.13C203.758 173.13 184.998 180.33 183.108 188.75C178.998 207.079 176.318 219.359 194.108 219.479Z" fill="white"/>
<path id="path13904-2" d="M193.887 221.068L194.737 229.478C198.817 229.478 203.427 230.408 205.737 227.148C214.457 231.918 211.177 230.068 219.147 229.548L219.447 220.388L205.387 218.248C201.803 220.037 197.863 221.001 193.857 221.068H193.887Z" fill="#FFFFF2"/>
<path id="path505954" d="M232.378 216.148L219.888 220.688L220.758 224.158C228.748 222.418 229.548 219.058 232.378 216.148ZM192.738 228.908C192.188 236.988 192.738 255.017 192.808 269.307C192.048 276.126 194.808 278.156 196.668 274.386C200.048 267.587 193.788 269.957 201.048 260.267C204.928 255.097 190.348 252.347 205.718 241.398C200.988 240.748 200.578 239.628 198.408 234.398C198.408 234.398 193.888 228.948 192.738 228.928V228.908Z" fill="#CCCCCC"/>
<path id="abColor_4" d="M193.998 257.467C205.138 253.737 209.188 266.287 207.998 265.947C215.328 260.297 224.418 265.037 225.608 267.307C231.178 262.137 236.978 264.367 237.768 265.397M236.638 209.559C232.988 221.938 224.258 224.238 221.468 224.398M198.238 233.148C198.158 238.828 201.088 241.148 210.858 240.598M202.528 201.999C203.118 209.209 202.028 213.908 205.628 216.898C226.628 226.438 238.628 210.129 239.468 201.479M193.738 197.479C190.738 195.569 186.588 194.159 186.358 190.949L202.358 201.839C210.288 197.339 220.178 193.989 227.938 188.429C224.408 193.829 220.248 194.859 216.168 196.349M203.858 170C198.408 179.75 184.578 181.52 181.318 188.529C180.078 199.309 179.088 215.298 186.778 217.588C196.348 222.328 204.218 217.228 204.858 216.508M207.358 219.828C207.358 219.828 206.498 230.468 208.948 230.498L216.168 230.578C220.648 230.698 219.568 225.358 219.548 219.808L207.358 219.828ZM194.258 220.738C194.348 222.008 193.258 230.558 196.598 230.658L201.018 230.788C205.458 230.418 204.528 224.788 204.448 219.398L194.258 220.738ZM236.218 198.999C239.718 198.509 241.158 199.389 243.988 202.949L236.218 198.999Z" stroke="black" stroke-width="3" stroke-linecap="round" stroke-linejoin="round"/>
</g>
</g>
</g>
</g>
</svg>
