<?xml version="1.0" encoding="UTF-8"?>
<svg width="12px" height="11px" viewBox="0 0 12 11" version="1.1" xmlns="http://www.w3.org/2000/svg" xmlns:xlink="http://www.w3.org/1999/xlink">
    <title>cointelegraph-logo-vector</title>
    <g id="Page-1" stroke="none" stroke-width="1" fill="none" fill-rule="evenodd">
        <g id="cointelegraph-logo-vector" fill-rule="nonzero">
            <path d="M6.67944785,7.83746329 L4.76226994,8.67335286 L4.76226994,8.58899703 C4.39417178,8.68102157 3.98006135,8.73470255 3.59662577,8.75770869 C1.78680982,8.74237127 0.360429448,7.79145102 0.337423313,6.67181912 L0.337423313,6.25770869 C0.92791411,7.1166044 2.13957055,7.69942648 3.59662577,7.67642035 C4.08742331,7.69942648 4.59355828,7.62273936 5.01533742,7.50770869 L5.18404908,7.09359826 C4.68558282,7.24697249 4.13343558,7.34666575 3.59662577,7.34666575 C1.78680982,7.34666575 0.360429448,6.40341421 0.337423313,5.26077617 L0.337423313,4.92335286 C0.92791411,5.72089887 2.13957055,6.29605225 3.59662577,6.25770869 C4.25613497,6.29605225 4.89263804,6.15801544 5.43711656,5.92028538 L5.52147239,5.50617495 C4.99233129,5.78224857 4.30981595,5.94329151 3.60429448,5.92028538 C1.79447853,5.94329151 0.36809816,5.00003998 0.345092025,3.83439581 L0.345092025,3.49697249 C0.935582822,4.30985593 2.14723926,4.89267802 3.60429448,4.91568415 C4.43251534,4.89267802 5.21472393,4.67028538 5.85889571,4.33286206 L5.94325153,3.83439581 C5.36042945,4.26384366 4.50920245,4.54758599 3.60429448,4.58592955 C1.79447853,4.54758599 0.36809816,3.59666575 0.345092025,2.41568415 C0.360429448,1.28838354 1.79447853,0.345132003 3.60429448,0.329794579 C4.67791411,0.345132003 5.68251534,0.720898874 6.27300613,1.33439581 L6.33435583,1.43408906 L6.75613497,1.43408906 L6.69478528,1.33439581 C6.10429448,0.529181082 4.91564417,0 3.60429448,0 C1.59509202,-0.00762873345 0,1.08899703 0,2.40801544 L0,2.49237127 L0,6.74850624 C0.0690184049,8.03684979 1.62576687,9.08754799 3.58895706,9.08754799 C4.88496933,9.095132 6.05828221,8.58132832 6.67944785,7.83746329 Z" id="Shape" fill="#263238"></path>
            <path d="M5.89723926,10.7745799 L6.57208589,7.9064817 L4.63190184,8.75003998 L5.81288344,3.78071482 L3.54294479,3.78071482 L4.13343558,1.33439581 L11.3803681,1.33439581 L10.7898773,3.78071482 L8.42791411,3.78071482 L7.92177914,5.13040808 L10.5368098,4.03378231 L5.89723926,10.7745799 Z M7.07822086,7.32365961 L6.74079755,9.01077617 L9.52453988,4.80065348 L7.24693252,5.81292341 L8.25920245,3.45096022 L10.5368098,3.45096022 L10.958589,1.67948783 L4.37883436,1.67948783 L3.95705521,3.45096022 L6.23466258,3.45096022 L5.13803681,8.16721789 L7.07822086,7.32365961 Z" id="Shape_1_" fill="#FABF2C"></path>
        </g>
    </g>
</svg>