<?xml version="1.0" encoding="UTF-8"?>
<svg width="193px" height="37px" viewBox="0 0 193 37" version="1.1" xmlns="http://www.w3.org/2000/svg" xmlns:xlink="http://www.w3.org/1999/xlink">
    <g id="wallfair.io" stroke="none" stroke-width="1" fill="none" fill-rule="evenodd">
        <g id="Group-14-Copy" fill="#EFFF54">
            <path d="M39.9333493,21 C36.1293209,19.0511013 8.27687346,21.222922 6.24753107,20.6395872 C4.59700981,19.8546883 7.23610394,5.98413623 8.77036903,3.93779263 C9.31131611,3.20495333 9.9353033,3.09149005 11.3675477,3.42654044 C13.6341475,4.06059994 42.987644,2.8151736 42.987644,2.8151736 C43.3767463,3.24633406 44.5369354,1.79533895 44.7536306,2.31993976 C45.4298144,3.54000372 92.9944049,1.87943527 97.0499262,1.80735271 C99.5102864,1.76330226 97.5631932,2.60159566 100.459316,2.26254069 C106.630384,1.5964445 120.074975,2.23584345 124.744993,1.47096746 C128.486543,0.838242828 129.292428,0.824894207 132.884506,1.32813722 C136.554089,1.77932061 156.063772,1.12390332 158.294783,0.156128295 C158.838894,-0.110844125 159.255676,-0.0160689163 159.257258,0.293619091 C159.258049,0.357692472 173.007911,0.581949305 173.070389,0.823559345 C173.176364,1.13057763 173.593146,1.27874732 173.982249,1.06383452 C174.698766,0.744802481 189.339926,-0.424536719 189.57402,0.479164923 C190.292119,3.04476988 188.279385,13.962607 186.57983,16.6229872 C184.842315,19.460904 175.285583,16.2745882 167.603186,17.989886 L131.844528,18.1594134 L124.178738,19.2232985 C123.304049,18.299574 119.921548,20.6235689 117.884297,18.9723445 C117.021471,18.318262 110.935816,18.2194822 109.587403,18.9149454 C108.418514,19.45156 77.2642334,18.1006795 74.068375,19.9561378 C68.3805222,18.4023584 45.2882508,20.622234 39.9333493,21" id="Fill-4-Copy-3" style="mix-blend-mode: multiply;"></path>
            <path d="M35.9726651,36.2724568 C31.9321144,33.4467815 2.75304716,35.822305 0.60880107,34.955187 C-1.14208366,33.8135028 1.28467688,14.4262306 2.84498585,11.5911394 C3.39529598,10.5792897 4.04666184,10.432964 5.5583886,10.9377435 C7.952403,11.8809586 38.7299223,10.8425838 38.7299223,10.8425838 C39.1483933,11.4572334 40.3303046,9.44898349 40.5701787,10.192687 C41.3103685,11.9169378 91.1901032,10.7346962 95.4445965,10.7310762 C98.0260343,10.7314885 96.0026848,11.8592177 99.0351805,11.4534094 C105.495118,10.6689046 119.62136,11.8885392 124.503701,10.9299028 C128.414264,10.130568 129.260003,10.1300529 133.042705,10.9233212 C136.905713,11.6439928 157.365307,11.1958907 159.682526,9.89320749 C160.247402,9.53110609 160.686679,9.67449546 160.696428,10.108909 C160.698301,10.1987934 175.134704,10.8436153 175.206604,11.1836772 C175.325489,11.6174194 175.766964,11.8338125 176.169918,11.5457387 C176.91353,11.1145513 192.250855,9.82809859 192.519108,11.0991698 C193.336258,14.7150934 191.493628,29.9798922 189.774928,33.6703984 C188.021112,37.6059694 177.913083,32.9081946 169.891567,35.1297085 L132.366272,34.505329 L124.348041,35.812113 C123.406748,34.4933312 119.913658,37.6728276 117.734362,35.3096642 C116.812776,34.3686673 110.423132,34.0839207 109.024997,35.0270255 C107.811077,35.7508886 75.081178,33.1068631 71.7724842,35.6304278 C65.764109,33.3136299 41.5825501,35.8709732 35.9726651,36.2724568" id="Fill-6-Copy" style="mix-blend-mode: multiply;"></path>
        </g>
    </g>
</svg>