<?xml version="1.0" encoding="UTF-8"?>
<svg width="162px" height="104px" viewBox="0 0 162 104" version="1.1" xmlns="http://www.w3.org/2000/svg" xmlns:xlink="http://www.w3.org/1999/xlink">
    <defs>
        <path d="M9.66069568,9.64053019 C6.87453831,12.4209295 3.53703951,14.3134483 0,15.3254841 L10.7629778,20.5582007 C12.8162839,19.5161758 14.743174,18.1398711 16.460306,16.4262879 C18.1774381,14.7127046 19.556593,12.7897967 20.6007759,10.7407342 L15.3572225,0 C14.3432912,3.52952966 12.4470534,6.86013091 9.66069568,9.64053019 L9.66069568,9.64053019 Z" id="path-1"></path>
    </defs>
    <g id="wallfair.io" stroke="none" stroke-width="1" fill="none" fill-rule="evenodd">
        <g id="wallfair-pop-up" transform="translate(-83.000000, -99.000000)">
            <g id="Group-48" transform="translate(163.873288, 150.995759) scale(-1, 1) translate(-163.873288, -150.995759) translate(83.000000, 99.200000)">
                <g id="Group-45">
                    <g id="Group-44">
                        <g id="Group" transform="translate(114.797291, 52.947859)">
                            <path d="M23.7871583,0.794141482 C24.3232737,0.259134041 25.1923577,0.259134041 25.7284731,0.794141482 C25.8362572,0.901702769 25.925209,1.02625794 25.991923,1.16280879 L46.7221199,43.6261254 C47.1422372,44.4866157 46.9689413,45.5182444 46.2907834,46.1950009 C45.6126254,46.8717573 44.5788602,47.044695 43.7165879,46.6254459 L1.16513109,25.9382916 C1.02829744,25.8717156 0.903283982,25.7829475 0.795700283,25.6753863 C0.259584863,25.1403788 0.259584863,24.273091 0.795700283,23.7380835 L23.7871583,0.794141482 Z" id="Path" fill="#1C124C" fill-rule="nonzero"></path>
                            <g id="Oval" transform="translate(19.630260, 19.589977)">
                                <mask id="mask-2" fill="white">
                                    <use xlink:href="#path-1"></use>
                                </mask>
                                <use id="Mask" fill-opacity="0.096023" fill="#ACC4FF" fill-rule="nonzero" xlink:href="#path-1"></use>
                            </g>
                            <path d="M5.06378806,13.2642533 C6.17087842,11.7983808 7.45006264,10.3119159 8.89152394,8.87323366 C15.77648,2.00250657 23.7597114,-1.17055139 25.3243831,0.391086549 C26.8890548,1.95272449 23.7096259,9.91925718 16.8246698,16.7899843 C9.93971373,23.6607114 1.95648232,26.8337693 0.391810639,25.2721314 C-0.602286787,24.2800884 0.318685778,20.7023761 2.88827336,16.4631019 L5.06378806,13.2642533 Z" id="Path" fill="#0F002D" fill-rule="nonzero"></path>
                        </g>
                        <path d="M127.991016,62.2 C127.668809,62.2 127.350615,62.1376066 127.055322,62.010096 C125.774603,61.4570678 125.329114,59.9277067 125.617386,58.7172924 C123.593127,59.3341611 121.727004,60.4511981 120.214097,61.97409 L119.273973,61.0054181 C121.249086,59.0174275 123.769568,57.6562646 126.479278,57.094469 C126.839013,56.6742288 127.294782,56.2859088 127.838145,55.940064 C129.682286,54.7657407 131.964227,54.3354563 134.099315,54.7596972 L133.843222,56.0964304 C132.168834,55.7636942 130.387379,56.052338 128.893278,56.8880516 C129.919658,57.0187968 130.6525,57.5334357 130.893549,58.3389315 C131.006217,58.7155049 131.001034,59.1377879 130.877835,59.629955 C130.663115,60.4880553 130.200659,61.2126015 129.57572,61.6702096 C129.098888,62.0191188 128.539227,62.1999149 127.991016,62.2 L127.991016,62.2 Z M127.224574,58.3391869 C127.098617,58.5361558 126.996898,58.749468 126.932457,58.9786125 C126.835084,59.3242871 126.852469,59.7202679 126.979931,60.0650913 C127.051143,60.2575489 127.223404,60.6033086 127.577288,60.7561 C127.936772,60.9113599 128.426141,60.8341555 128.794819,60.5642382 C129.165001,60.2932144 129.444414,59.8419052 129.581738,59.2933883 C129.642752,59.0494328 129.653367,58.8671046 129.614168,58.7357635 C129.479267,58.2850502 128.651894,58.1629873 127.941201,58.2402768 C127.701239,58.2664088 127.462196,58.2994356 127.224574,58.3391869 L127.224574,58.3391869 Z" id="Shape" fill="#ACC4FF" fill-rule="nonzero" transform="translate(126.686644, 58.400000) rotate(85.000000) translate(-126.686644, -58.400000) "></path>
                        <path d="M113.261806,75.4 C112.643261,75.4 112.022904,75.1266895 111.492067,74.6155587 C111.212635,74.3463949 110.992157,74.0488146 110.797654,73.7863585 C110.710067,73.6681801 110.627433,73.5564655 110.544075,73.4532881 C109.673159,72.3728519 108.276238,71.7195168 106.89611,71.7524458 L106.85274,69.8015872 C108.841748,69.7568282 110.785573,70.6610333 112.043442,72.2216226 C112.151687,72.3558996 112.250268,72.4889571 112.345707,72.6177459 C112.509283,72.8386139 112.66392,73.0471641 112.826408,73.2037596 C113.014992,73.3853568 113.191978,73.4578005 113.281015,73.4476779 C113.432147,73.4306037 113.673042,73.2076623 113.905962,72.9921605 C114.089472,72.8221495 114.297385,72.6296979 114.537555,72.462126 C115.870688,71.5320656 117.8156,71.7836673 118.873288,73.0227723 L117.408955,74.2965136 C116.998445,73.8156287 116.153503,73.7065972 115.63668,74.0673524 C115.505964,74.1585778 115.363288,74.2905376 115.212397,74.4303028 C114.794275,74.8174011 114.273707,75.2992617 113.495693,75.3870723 C113.417771,75.3957314 113.339849,75.4 113.261806,75.4 L113.261806,75.4 Z" id="Path" fill="#FFD1D1" fill-rule="nonzero"></path>
                        <ellipse id="Oval" fill="#FFD1D1" fill-rule="nonzero" cx="153.532534" cy="35.2" rx="1.40239726" ry="1.4"></ellipse>
                        <path d="M62.1593845,71.4 C61.5933513,70.7585538 60.992449,70.134485 60.3732877,69.5450543 L61.6796993,68.2 C62.3380884,68.8267512 62.9770403,69.4902398 63.5787671,70.172272 L62.1593845,71.4 Z" id="Path" fill="#ACFFCE" fill-rule="nonzero"></path>
                        <path d="M1.78609678,69 C1.2200636,68.3585538 0.619161369,67.734485 0,67.1450543 L1.30641164,65.8 C1.9648007,66.4267512 2.60375261,67.0902398 3.20547945,67.772272 L1.78609678,69 Z" id="Path-Copy-8" fill="#ACC4FF" fill-rule="nonzero"></path>
                        <path d="M105.031162,24.2009797 C104.466089,23.5595398 103.866158,22.9355197 103.247952,22.3461786 L104.554542,20.9990272 C105.211916,21.6256831 105.849835,22.2891199 106.450541,22.9711455 L105.031162,24.2009797 Z" id="Path-Copy-5" fill="#E2FF54" fill-rule="nonzero" transform="translate(104.849246, 22.600003) rotate(41.000000) translate(-104.849246, -22.600003) "></path>
                        <path d="M93.4128613,23 C92.8468489,22.3585538 92.2459687,21.734485 91.6267123,21.1449377 L92.9333116,19.8 C93.5915586,20.4268678 94.2304871,21.0902398 94.8321918,21.7721554 L93.4128613,23 Z" id="Path" fill="#ACC4FF" fill-rule="nonzero"></path>
                        <path d="M108.673443,44.6 C108.441831,44.5236887 108.139718,44.5041896 107.819861,44.4836072 C107.238702,44.4461738 106.515595,44.3995926 105.873398,43.9599 C105.06867,43.40887 104.78158,42.5255127 104.550678,41.8156011 C104.405773,41.3698903 104.268911,40.9489746 104.047945,40.7048748 L105.439983,39.4 C105.937629,39.949706 106.15552,40.6196565 106.347623,41.210768 C106.516541,41.7302625 106.662393,42.1788621 106.930202,42.3621777 C107.146791,42.5105875 107.5142,42.534179 107.939334,42.5616221 C108.34223,42.5875006 108.798948,42.61699 109.256849,42.7679274 L108.673443,44.6 Z" id="Path" fill="#ACFFCE" fill-rule="nonzero"></path>
                        <path d="M88.4290753,69.4 C88.4063354,68.6149023 88.3637432,67.1534702 89.4238552,66.2584034 C89.8496566,65.8990744 90.3429558,65.738341 90.7394,65.6093201 L90.8642889,65.5684435 C91.6554927,65.3058198 92.1832025,65.0025606 92.525143,64.61381 C92.8589021,64.2344647 92.9935366,63.707288 92.8450656,63.3603788 L94.6143253,62.6 C95.0613025,63.6447069 94.8080355,64.9360003 93.9691862,65.8895485 C93.3922668,66.5452637 92.5980551,67.0251729 91.4696031,67.399695 L91.3343669,67.4440685 C91.0607663,67.5331773 90.8022054,67.6173423 90.6642019,67.7338227 C90.356672,67.9934319 90.334654,68.6932794 90.353664,69.3435685 L88.4290753,69.4 Z" id="Path" fill="#FAFF54" fill-rule="nonzero"></path>
                        <path d="M75.2050021,48.6 C75.1865259,47.9534489 75.1519198,46.7499167 76.0132608,46.0128028 C76.3592245,45.7168848 76.76003,45.5845161 77.0821409,45.4782636 L77.1836131,45.4446005 C77.8264662,45.2283222 78.2552304,44.9785793 78.5330571,44.6584317 C78.8042363,44.3460297 78.9136269,43.9118842 78.7929942,43.6261943 L80.2305177,43 C80.5936867,43.8603468 80.3879072,44.9237649 79.7063422,45.70904 C79.2375952,46.2490407 78.5922982,46.64426 77.6754309,46.95269 L77.5655515,46.9892329 C77.3432511,47.0626166 77.1331703,47.1319289 77.0210425,47.227854 C76.7711744,47.4416498 76.7532848,48.0179948 76.7687305,48.553527 L75.2050021,48.6 Z" id="Path-Copy-3" fill="#ACFFCE" fill-rule="nonzero"></path>
                        <path d="M79.751759,33.8 C78.9815331,32.1509531 78.8286002,30.2209856 79.2656336,28.4486955 C78.7313751,27.9459954 78.3250242,27.3147021 78.0823451,26.6908016 C77.5688931,25.3714084 77.5751255,23.9834387 77.629491,22.5587976 L77.6300663,22.543915 C77.6415722,22.2441237 77.6523111,21.9610631 77.6027397,21.7256656 L79.1029207,21.4 C79.1928586,21.8262445 79.1769421,22.2395519 79.1630391,22.6042235 L79.1624638,22.6190088 C79.1146183,23.8711872 79.1052218,25.0811497 79.5092716,26.1193304 C79.6090855,26.3760304 79.731336,26.6039379 79.8685441,26.8038312 C79.9789051,26.5830245 80.1001009,26.3677623 80.2319396,26.1591145 C80.8303436,25.2116883 81.5385333,24.6153156 82.3368528,24.3865326 C83.3834126,24.086644 84.7530972,24.5606489 85.1242592,25.7437644 C85.3845807,26.5736864 85.0816872,27.5291862 84.3139543,28.2996752 C83.5456462,29.0706506 82.5485618,29.4957279 81.5797629,29.4673246 C81.2542411,29.4575974 80.9438687,29.3985535 80.6509471,29.2998227 C80.4288827,30.5905207 80.5859386,31.951838 81.1379354,33.1335917 L79.751759,33.8 Z M81.0976646,27.8029087 C81.2817594,27.8708044 81.4608683,27.9066976 81.6250195,27.9115612 C82.164168,27.9277083 82.7707221,27.6592385 83.2351779,27.1932098 C83.5129502,26.9143319 83.7528487,26.5039426 83.6625272,26.2157266 C83.5780545,25.9467704 83.1194475,25.7795604 82.7538467,25.8842247 C82.3274563,26.006398 81.9135306,26.3813803 81.5235756,26.9987637 C81.3615338,27.2553664 81.2194357,27.5246144 81.0976646,27.8029087 Z" id="Shape" fill="#FAFF54" fill-rule="nonzero"></path>
                        <path d="M48.8771932,8.8 C48.502737,8.8 48.1329433,8.72775505 47.7897647,8.5801112 C46.3013621,7.93976269 45.7836316,6.16892357 46.1186508,4.76739119 C43.7661336,5.48166019 41.5973961,6.77507154 39.839152,8.53842005 L38.7465753,7.4167999 C41.0419771,5.11491602 43.971186,3.53883274 47.120309,2.88833248 C47.5383788,2.40173857 48.068057,1.95210491 48.6995329,1.551653 C50.8427238,0.191910338 53.4947089,-0.306313725 55.9760274,0.184912533 L55.6784052,1.73270891 C53.7324958,1.34743535 51.6621563,1.6816545 49.9257676,2.64932291 C51.1185878,2.80071207 51.9702692,3.39660973 52.2504071,4.32928912 C52.3813453,4.76532141 52.3753229,5.25428078 52.2321456,5.82415843 C51.9826053,6.8177483 51.4451563,7.65669651 50.7188765,8.18655854 C50.1647202,8.59055863 49.5143029,8.79990144 48.8771932,8.8 L48.8771932,8.8 Z M47.9864635,4.3295848 C47.8400807,4.55765413 47.7218672,4.80464711 47.646976,5.06997237 C47.5338135,5.47022715 47.5540176,5.92873127 47.7021488,6.32800045 C47.7849079,6.55084607 47.9851036,6.95119941 48.396374,7.12811577 C48.8141525,7.30789039 49.382879,7.21849588 49.8113424,6.90596007 C50.2415541,6.59214298 50.5662771,6.06957444 50.7258702,5.43444964 C50.7967789,5.15197483 50.8091151,4.94085792 50.7635587,4.78877885 C50.6067824,4.26690023 49.6452412,4.12556426 48.8193006,4.21505733 C48.5404255,4.24531545 48.2626188,4.28355698 47.9864635,4.3295848 L47.9864635,4.3295848 Z" id="Shape-Copy-4" fill="#FFD1D1" fill-rule="nonzero"></path>
                        <path d="M26.8059854,93.8 C26.3107063,93.2387346 25.7849169,92.6926744 25.2431507,92.1769225 L26.3862609,91 C26.9623513,91.5484073 27.5214342,92.1289598 28.0479452,92.725738 L26.8059854,93.8 Z" id="Path-Copy-9" fill="#ACFFCE" fill-rule="nonzero"></path>
                        <path d="M98.7460742,79.8 C98.5500948,79.741299 98.2944608,79.7262997 98.0238131,79.7104671 C97.532063,79.6816721 96.920203,79.6458405 96.3768056,79.3076154 C95.6958823,78.8837461 95.45296,78.2042405 95.2575811,77.6581547 C95.1349689,77.3153002 95.0191629,76.9915189 94.8321918,76.8037498 L96.0100699,75.8 C96.4311553,76.2228508 96.6155241,76.7381973 96.7780729,77.1928985 C96.9210037,77.5925096 97.0444166,77.9375862 97.2710241,78.0785982 C97.4542918,78.1927596 97.7651764,78.2109069 98.1249056,78.232017 C98.4658177,78.2519235 98.8522714,78.2746077 99.239726,78.3907134 L98.7460742,79.8 Z" id="Path-Copy-2" fill="#ACC4FF" fill-rule="nonzero"></path>
                    </g>
                    <g id="Group-33" transform="translate(135.217466, 72.372300)">
                        <ellipse id="Oval" fill="#E2FF54" transform="translate(2.577046, 7.796711) rotate(-11.000000) translate(-2.577046, -7.796711) " cx="2.57704575" cy="7.79671149" rx="1" ry="1"></ellipse>
                        <path d="M3.18842064,6.3482768 L3.65049153,4.09714769 C3.69089472,3.90448422 3.72749358,3.71054975 3.7602881,3.51534427 C3.79308262,3.32013879 3.82461482,3.13127098 3.85488468,2.94874084 L3.85488468,2.94874084 L3.88531071,2.94876687 C3.91082189,3.13134472 3.94014176,3.32026459 3.9732703,3.51552646 C4.00639883,3.71078833 4.04332954,3.90478571 4.08406242,4.09751858 L4.08406242,4.09751858 L4.57280488,6.34946105 L5.98000865,6.35066482 L6.85812098,1.39197714 L5.78560351,1.39105968 L5.4452953,3.71075146 C5.4100195,3.96934233 5.37601145,4.22793428 5.34327115,4.48652732 C5.31053085,4.74512035 5.27652714,5.00878331 5.24126002,5.27751619 L5.24126002,5.27751619 L5.21083399,5.27749016 C5.15989404,5.00868354 5.11022509,4.74368125 5.06182714,4.48248331 C5.0134292,4.22128536 4.96376676,3.96388959 4.91283982,3.71029598 L4.91283982,3.71029598 L4.37839975,1.38985591 L3.42758639,1.38904256 L2.8971155,3.70857167 C2.84662669,3.96714952 2.79740671,4.22699621 2.74945557,4.48811173 C2.70150443,4.74922726 2.65228662,5.01160945 2.60180214,5.27525831 L2.60180214,5.27525831 L2.57137612,5.27523228 C2.54072452,5.01151402 2.5075385,4.74906133 2.47181807,4.48787423 C2.43609764,4.22668713 2.40291379,3.96676995 2.37226653,3.70812269 L2.37226653,3.70812269 L2.02798913,1.3878453 L0.879406597,1.38686276 L1.80403639,6.34709256 L3.18842064,6.3482768 Z" id="W" fill="#FFFFFF" fill-rule="nonzero" transform="translate(3.868764, 3.868764) rotate(-45.000000) translate(-3.868764, -3.868764) "></path>
                    </g>
                </g>
                <path d="M113.95017,103.591519 C112.987527,102.491915 111.965582,101.4221 110.912584,100.411663 L113.134377,98.1058931 C114.254089,99.1803064 115.340745,100.317697 116.364092,101.486876 L113.95017,103.591519 Z" id="Path" fill="#ACC4FF" fill-rule="nonzero"></path>
            </g>
        </g>
    </g>
</svg>