<svg width="512" height="512" viewBox="0 0 512 512" fill="none" xmlns="http://www.w3.org/2000/svg">
<g id="Frame">
<g id="Rectangle">
<path id="Vector" d="M509.5 2.5H2.5V509.5H509.5V2.5Z" stroke="white" stroke-width="5" stroke-miterlimit="10"/>
</g>
<g id="Eyes">
<g id="layer1">
<g id="g1062">
<path id="path621540" d="M207.41 164.28C201.76 173.91 183.47 174.53 173.84 168.75C171.68 160 192.18 129.79 207.41 164.28ZM267.68 161.59C261.17 171.51 240.11 172.15 229 166.2C226.52 157.22 250.13 126.08 267.68 161.59Z" fill="white"/>
<path id="path621542" d="M178.86 162.73C178.8 169.52 183.64 173.26 189.8 173.34C195.96 173.42 201.11 169.79 201.18 163C201.25 156.21 196.3 150.66 190.18 150.58C184.06 150.5 178.93 156 178.86 162.73ZM234.79 160C234.72 167 240.14 171.37 247.24 171.44C254.34 171.51 260.43 167.26 260.5 160.28C260.45 156.927 259.093 153.725 256.717 151.359C254.341 148.992 251.135 147.647 247.781 147.611C244.428 147.574 241.193 148.849 238.766 151.163C236.339 153.478 234.913 156.648 234.79 160Z" fill="#333333"/>
<path id="ellipse621546" d="M190 162.94C190 164.35 191.75 165.52 193.93 165.55C196.12 165.55 197.93 164.45 197.93 163.03C197.93 161.62 196.19 160.45 194 160.42C191.81 160.39 190 161.52 190 162.94ZM248.06 159.94C248.06 161.4 250.06 162.6 252.59 162.63C255.1 162.63 257.16 161.5 257.17 160.04C257.17 158.59 255.17 157.38 252.64 157.35C250.11 157.32 248.07 158.49 248.06 159.94Z" fill="white"/>
<path id="path621572" d="M175.36 160.86C188.06 156.45 197.27 156.59 204.54 158.86C204.62 158.86 199.6 147.7 191.21 148.17C179.56 148.78 176.8 159.15 175.36 160.86ZM231.09 157.56C243.79 153.15 254.31 154.69 264.43 155.67C264.51 155.67 258.07 144.76 249.15 144.8C236.43 144.86 231.53 157.67 231.09 157.56Z" fill="white" stroke="#999999" stroke-width="3" stroke-linecap="round" stroke-linejoin="round"/>
<path id="path526843" d="M247.2 146.22C238.03 146.22 233.07 155.22 233.07 155.22C236.41 154.4 239.91 153.59 242.87 153.22C242.87 153.22 243.47 149.08 249.87 146.55C248.992 146.36 248.098 146.25 247.2 146.22ZM191.14 149.45C181.96 149.45 177.01 158.45 177.01 158.45C180.33 157.64 183.76 156.58 187.2 156.09C187.2 155.97 186.9 151.18 194.38 150.34C193.32 149.973 192.238 149.676 191.14 149.45Z" fill="#CCCCCC"/>
<path id="path621544" d="M207.41 164.28C201.76 173.91 183.63 174.01 174 168.28C173.76 167.28 174.28 165.01 174.54 163.68C176.69 152.68 195.44 135.14 207.41 164.32V164.28ZM267.68 161.59C261.17 171.51 240.11 172.15 229 166.2C228.745 165.021 228.769 163.798 229.07 162.63C231.55 151.27 252.07 129.91 267.68 161.63V161.59Z" stroke="#999999" stroke-width="3" stroke-miterlimit="15.12"/>
</g>
</g>
</g>
</g>
</svg>
