<svg width="512" height="512" viewBox="0 0 512 512" fill="none" xmlns="http://www.w3.org/2000/svg">
<g id="Frame">
<g id="Rectangle">
<path id="Vector" d="M509.5 2.5H2.5V509.5H509.5V2.5Z" stroke="white" stroke-width="5" stroke-miterlimit="10"/>
</g>
<g id="Eyes">
<g id="layer1">
<g id="g89773">
<path id="path89765" d="M205.69 166.47C200.1 176.52 183.38 183.11 171.94 170.97C169.23 161.77 189.35 128.48 205.69 166.47ZM265.55 163.25C259.02 173.25 241.69 187.13 227.39 168.4C224.9 159.37 247.68 123.88 265.55 163.25Z" fill="white"/>
<path id="path89769" d="M205.69 166.47C199.12 179.07 178.93 182.47 172.09 169.14C167.31 153.67 195.59 131.15 205.69 166.47ZM264.23 162.6C261.78 181.6 235.36 182.87 227.23 166.44C228 143.86 261 135.71 264.23 162.6Z" stroke="#999999" stroke-width="3" stroke-miterlimit="15.12"/>
<path id="path94063" d="M176.31 163.87C176.24 170.49 181.96 175.3 188.69 175.37C191.886 175.37 194.951 174.1 197.211 171.84C199.47 169.581 200.74 166.516 200.74 163.32C200.74 160.124 199.47 157.059 197.211 154.799C194.951 152.539 191.886 151.27 188.69 151.27C181.96 151.19 176.37 157.27 176.3 163.87H176.31ZM233.05 163.01C232.97 170.01 239.05 175.12 246.16 175.2C247.834 175.213 249.495 174.894 251.046 174.262C252.596 173.63 254.006 172.698 255.194 171.518C256.383 170.338 257.325 168.935 257.968 167.388C258.611 165.842 258.941 164.184 258.94 162.51C258.948 159.114 257.607 155.854 255.213 153.446C252.818 151.039 249.566 149.68 246.17 149.67C239.04 149.59 233.17 156 233.05 163.01Z" fill="#333333"/>
<path id="path94065" d="M190.94 158.791C190.979 159.972 191.48 161.091 192.334 161.908C193.188 162.724 194.328 163.174 195.51 163.161C196.091 163.191 196.671 163.107 197.219 162.912C197.767 162.718 198.27 162.416 198.701 162.026C199.131 161.635 199.48 161.163 199.727 160.637C199.974 160.111 200.115 159.541 200.14 158.961C200.104 157.778 199.604 156.658 198.749 155.841C197.894 155.023 196.753 154.574 195.57 154.591C194.99 154.56 194.409 154.644 193.861 154.839C193.314 155.034 192.81 155.335 192.38 155.725C191.949 156.116 191.6 156.588 191.353 157.114C191.106 157.64 190.966 158.21 190.94 158.791ZM248.55 157.641C248.587 158.893 249.115 160.08 250.021 160.944C250.927 161.809 252.138 162.282 253.39 162.261C254.005 162.294 254.62 162.205 255.201 161.999C255.781 161.793 256.315 161.474 256.77 161.06C257.226 160.646 257.595 160.145 257.856 159.588C258.117 159.03 258.265 158.426 258.29 157.811C258.248 156.56 257.718 155.376 256.813 154.512C255.908 153.649 254.701 153.174 253.45 153.191C252.835 153.157 252.22 153.246 251.64 153.452C251.059 153.658 250.526 153.977 250.07 154.391C249.614 154.805 249.245 155.306 248.984 155.863C248.723 156.421 248.576 157.025 248.55 157.641Z" fill="white"/>
</g>
</g>
</g>
</g>
</svg>
