<svg width="512" height="512" viewBox="0 0 512 512" fill="none" xmlns="http://www.w3.org/2000/svg">
<g id="Frame">
<g id="Rectangle">
<path id="Vector" d="M509.5 2.5H2.5V509.5H509.5V2.5Z" stroke="white" stroke-width="5" stroke-miterlimit="10"/>
</g>
<g id="Eyes">
<g id="layer1">
<g id="g78998">
<path id="path78990" d="M202.36 167.31C196.73 176.89 178.56 177.5 168.98 171.76C166.78 163.12 175.32 140.16 202.36 167.31ZM262.28 164.64C255.8 174.5 234.86 175.13 223.83 169.22C223.44 162 257 139.41 262.28 164.64Z" fill="white"/>
<path id="path78992" d="M174 165.77C173.94 172.52 178.75 176.24 184.88 176.32C191.01 176.4 196.12 172.79 196.19 166.04C195.65 160.22 188.51 159.59 185.12 155.33C179 155.26 174 159 174 165.77ZM229.61 163.05C229.53 170 234.93 174.36 241.99 174.43C249.05 174.5 255.1 170.28 255.17 163.33C255.24 156.38 250.47 151.54 243.41 151.46C238.99 156.27 231.41 159.24 229.61 163.05Z" fill="#333333"/>
<path id="path78996" d="M184.57 165.38C184.57 166.95 186.51 168.24 188.92 168.27C191.33 168.3 193.31 167.05 193.32 165.49C193.33 163.93 191.39 162.63 188.98 162.6C186.57 162.57 184.59 163.82 184.57 165.38ZM242.78 163C242.78 164.45 244.78 165.64 247.28 165.67C249.78 165.7 251.83 164.55 251.84 163.1C251.85 161.65 249.84 160.45 247.34 160.43C244.84 160.41 242.79 161.59 242.78 163Z" fill="white"/>
<path id="path83219" d="M206 158.45C208 166.45 201.81 167.45 189.06 158.8C185.06 156.11 178.99 151.74 168.33 155.61L206 158.45ZM218.33 157.86C216.91 165.3 221.82 168.63 233.95 158.09C237.34 155.09 250.33 147.75 260.35 152.26L218.33 157.86ZM168.8 169.17C175.16 178.28 192.54 176.17 201.64 169.68C201.902 168.275 201.902 166.835 201.64 165.43C185.82 161.3 178.47 143.23 168.77 169.17H168.8ZM262.36 164.64C255.88 174.5 234.94 175.13 223.91 169.22C223.651 168.048 223.672 166.832 223.97 165.67C233.69 161.51 247.2 137.85 262.36 164.67V164.64Z" stroke="#999999" stroke-width="3" stroke-linecap="round" stroke-linejoin="round"/>
</g>
</g>
</g>
</g>
</svg>
