<svg width="512" height="512" viewBox="0 0 512 512" fill="none" xmlns="http://www.w3.org/2000/svg">
<g id="Frame">
<g id="Rectangle">
<path id="Vector" d="M509.5 2.5H2.5V509.5H509.5V2.5Z" stroke="white" stroke-width="5" stroke-miterlimit="10"/>
</g>
<g id="Eyes">
<g id="layer1">
<g id="g64290">
<path id="path64282" d="M208.89 167.7C203.01 177.7 183.98 178.37 173.95 172.36C171.52 163.6 192.4 136.29 208.89 167.7ZM271.63 164.9C264.85 175.23 242.92 175.9 231.37 169.7C228.74 160.38 252.41 128.55 271.63 164.9Z" fill="white"/>
<path id="path64284" d="M179.18 166.09C179.24 173.15 184.18 177.09 190.56 177.09C196.94 177.09 202.34 173.4 202.41 166.34C202.48 159.28 197.11 157.23 190.76 158.15C184.15 159.15 179.12 159.64 179.18 166.05V166.09ZM237.39 163.25C236.82 170.49 242.96 175.08 250.39 175.16C257.82 175.24 264.11 170.81 264.19 163.54C264.27 156.27 259.47 156.82 252.09 157.11C244.71 157.4 237.81 158 237.39 163.25Z" fill="#333333"/>
<path id="path64288" d="M190.28 165.679C190.28 167.319 192.28 168.679 194.83 168.679C197.38 168.679 199.42 167.399 199.44 165.769C199.46 164.139 197.44 162.769 194.88 162.769C192.32 162.769 190.29 164.049 190.28 165.679ZM251.21 163.229C251.21 164.749 253.3 165.999 255.92 166.029C258.54 166.059 260.68 164.849 260.7 163.329C260.72 161.809 258.6 160.559 255.98 160.539C253.36 160.519 251.23 161.709 251.21 163.229Z" fill="white"/>
<path id="path77245" d="M247 151.8C244.92 153.45 246.12 156.88 246.14 156.91C240.14 158.17 235.37 161.38 231.86 163.38C234.58 156.56 238.7 154.9 247 151.8ZM190.83 153C188.1 155 187.71 158.25 188.5 157.86C182.5 159.12 180.13 161.19 176.62 163.18C179.32 157.88 181.52 153.99 190.83 153Z" fill="#CCCCCC"/>
<path id="path70740" d="M175.49 161.789C181.98 152.199 190.66 146.789 204.82 158.789L175.49 161.789ZM234.82 158.059C245.11 147.509 255.29 145.849 267.08 158.249L234.82 158.059ZM176.33 163.539C170.52 164.419 166.18 160.199 164.89 157.539L176.33 163.539ZM174.46 167.379C167.56 167.849 163.32 164.439 162.84 162.789L174.46 167.379ZM173 170.939C166.49 172.439 163.87 171.109 161.29 169.189L173 170.939ZM261 158.709C267.9 159.179 271.83 155.169 272.31 153.529L261 158.709ZM267.31 161.859C274.21 162.329 278.14 158.309 278.62 156.669L267.31 161.859ZM270.57 165.809C277.07 167.319 279.43 165.299 282.01 163.369L270.57 165.809ZM208.9 167.699C201.32 177.699 182.67 177.789 174.12 171.819C173.96 170.814 174.043 169.786 174.36 168.819C178.87 160.529 196.28 152.969 208.9 167.709V167.699ZM271.64 164.899C264.86 175.229 242.93 175.899 231.38 169.699C231.1 168.699 230.62 168.269 230.93 166.839C234.74 162.059 254.8 150.649 271.64 164.899Z" stroke="#999999" stroke-width="3" stroke-linecap="round" stroke-linejoin="round"/>
</g>
</g>
</g>
</g>
</svg>
