<svg width="512" height="512" viewBox="0 0 512 512" fill="none" xmlns="http://www.w3.org/2000/svg">
<g id="Frame">
<g id="Rectangle">
<path id="Vector" d="M509.5 2.5H2.5V509.5H509.5V2.5Z" stroke="white" stroke-width="5" stroke-miterlimit="10"/>
</g>
<g id="Eyes">
<g id="layer1">
<g id="g22629">
<path id="path22621" d="M203 168.67C197.35 178.3 179.07 178.92 169.43 173.14C167.26 164.42 187.75 134.18 203 168.67ZM263.25 166C256.74 175.92 235.68 176.56 224.58 170.61C222.09 161.61 245.7 130.47 263.25 166Z" fill="white"/>
<path id="path22623" d="M172.66 167.68C172.66 171.28 175.2 173.27 178.47 173.31C181.74 173.35 184.47 171.42 184.47 167.82C184.47 164.22 181.88 161.27 178.61 161.23C175.34 161.19 172.7 164.08 172.66 167.68ZM245.05 164.14C245.05 167.71 247.79 169.95 251.42 169.99C255.05 170.03 258.17 167.86 258.21 164.28C258.229 162.535 257.553 160.854 256.332 159.607C255.112 158.36 253.445 157.649 251.7 157.63C249.955 157.612 248.274 158.287 247.027 159.508C245.78 160.729 245.069 162.395 245.05 164.14Z" fill="#333333"/>
<path id="path22625" d="M203 168.67C197.35 178.3 179.22 178.4 169.59 172.67C169.36 171.72 169.88 169.4 170.14 168.07C172.28 157.07 191.03 139.53 203 168.71V168.67ZM263.25 166C256.74 175.92 235.68 176.56 224.58 170.61C224.316 169.432 224.337 168.209 224.64 167.04C227.12 155.68 247.64 134.32 263.25 166.04V166Z" stroke="#999999" stroke-width="3" stroke-miterlimit="15.12"/>
<path id="path22627" d="M173.4 165.71C173.4 166.64 174.56 167.42 176.01 167.44C177.46 167.46 178.64 166.71 178.64 165.77C178.64 164.83 177.49 164.06 176.04 164.04C174.59 164.02 173.41 164.77 173.4 165.71ZM252.07 162.71C252.07 163.53 253.21 164.22 254.64 164.23C256.07 164.24 257.24 163.59 257.25 162.76C257.26 161.93 256.11 161.25 254.67 161.24C253.23 161.23 252.08 161.88 252.07 162.71Z" fill="white"/>
</g>
</g>
</g>
</g>
</svg>
