<svg width="512" height="512" viewBox="0 0 512 512" fill="none" xmlns="http://www.w3.org/2000/svg">
<g id="Frame">
<g id="Rectangle">
<path id="Vector" d="M509.5 2.5H2.5V509.5H509.5V2.5Z" stroke="white" stroke-width="5" stroke-miterlimit="10"/>
</g>
<g id="Eyes">
<g id="layer1">
<g id="g21813">
<path id="path21805" d="M205.52 167.29C199.86 176.92 181.59 177.54 171.96 171.77C169.58 166.33 188.69 156.21 205.52 167.29ZM265.76 164.61C259.25 174.52 238.19 175.16 227.1 169.21C224.34 163.09 246.87 152.16 265.76 164.61Z" fill="#FFC6C6"/>
<path id="path21807" d="M183.59 165.78C183.59 168.48 185.49 169.97 187.94 170C190.39 170.03 192.44 168.59 192.47 165.89C192.536 165.273 192.472 164.648 192.283 164.057C192.093 163.466 191.783 162.92 191.37 162.456C190.958 161.992 190.453 161.618 189.889 161.36C189.324 161.102 188.711 160.965 188.09 160.957C187.47 160.95 186.854 161.072 186.283 161.316C185.712 161.56 185.198 161.92 184.774 162.374C184.351 162.828 184.027 163.366 183.823 163.952C183.619 164.539 183.539 165.161 183.59 165.78ZM241.05 164C241.05 166.68 243.05 168.36 245.82 168.39C248.59 168.42 250.88 166.79 250.91 164.11C250.925 162.803 250.419 161.543 249.505 160.608C248.591 159.673 247.343 159.14 246.035 159.125C244.728 159.111 243.468 159.616 242.533 160.53C241.598 161.445 241.065 162.693 241.05 164Z" fill="#333333"/>
<path id="path30400" d="M205.52 167.29C199.86 176.92 181.75 177.02 172.12 171.29C171.88 170.35 172.4 168.03 172.66 166.7C174.81 155.7 193.55 138.17 205.52 167.33V167.29ZM265.76 164.61C259.25 174.52 238.19 175.16 227.1 169.21C226.84 168.031 226.864 166.808 227.17 165.64C229.64 154.29 250.11 132.94 265.76 164.64V164.61Z" stroke="#999999" stroke-width="3" stroke-linecap="round" stroke-linejoin="round"/>
<path id="path22627-2" d="M189.15 166.93C189.15 167.196 189.255 167.45 189.443 167.638C189.63 167.825 189.885 167.93 190.15 167.93C190.281 167.939 190.413 167.921 190.537 167.878C190.662 167.835 190.777 167.768 190.875 167.681C190.974 167.593 191.054 167.487 191.111 167.369C191.169 167.25 191.202 167.122 191.21 166.99C191.21 166.725 191.105 166.471 190.917 166.283C190.729 166.096 190.475 165.99 190.21 165.99C190.079 165.982 189.947 166 189.822 166.043C189.698 166.086 189.583 166.153 189.485 166.24C189.386 166.328 189.306 166.434 189.249 166.552C189.191 166.67 189.158 166.799 189.15 166.93ZM247.67 165.05C247.695 165.291 247.814 165.512 248.002 165.666C248.189 165.819 248.429 165.893 248.67 165.87C248.787 165.884 248.907 165.875 249.021 165.843C249.134 165.811 249.241 165.756 249.334 165.683C249.427 165.61 249.504 165.519 249.562 165.415C249.62 165.312 249.656 165.198 249.67 165.08C249.647 164.838 249.529 164.614 249.342 164.459C249.154 164.303 248.913 164.228 248.67 164.25C248.551 164.235 248.431 164.244 248.316 164.276C248.201 164.308 248.093 164.364 248 164.438C247.907 164.513 247.829 164.606 247.773 164.711C247.716 164.816 247.681 164.931 247.67 165.05Z" fill="white"/>
<path id="path621572-5" d="M172.65 167.001C183.02 164.111 196.65 164.661 204.91 166.211C205.35 166.011 198.43 150.501 189.38 151.211C177.81 152.001 173.27 163.781 172.65 167.001ZM227.37 165.641C242.86 161.641 257.72 163.401 265.03 163.581C265.92 163.681 257.7 148.201 247.03 148.021C233.6 147.871 226.36 164.931 227.34 165.641H227.37Z" fill="white" stroke="#999999" stroke-width="3" stroke-linecap="round" stroke-linejoin="round"/>
<path id="path526843-6" d="M243.66 150C234.51 152.27 229.44 163.53 229.66 163.34C233.007 162.628 236.388 162.091 239.79 161.73C239.64 161.73 239.39 152.65 246.59 149.81C245.61 149.715 244.62 149.78 243.66 150ZM189.13 152.84C179.13 153.7 174.87 164.84 175.13 164.59C178.46 163.78 181.66 163.95 185.13 163.46C185.13 163.6 184.52 155.3 191.53 153.07C190.747 152.888 189.943 152.81 189.14 152.84H189.13Z" fill="#CCCCCC"/>
</g>
</g>
</g>
</g>
</svg>
