<svg width="512" height="512" viewBox="0 0 512 512" fill="none" xmlns="http://www.w3.org/2000/svg">
<g id="Frame">
<g id="Rectangle">
<path id="Vector" d="M509.5 2.5H2.5V509.5H509.5V2.5Z" stroke="white" stroke-width="5" stroke-miterlimit="10"/>
</g>
<g id="Eyes">
<g id="layer1">
<g id="g144220">
<path id="path344263" d="M207.5 165.38C190.82 175.74 183.13 171.07 173.96 166.87C175.75 159.07 181.75 148.68 189.89 148.31C198.03 147.94 207.5 165.38 207.5 165.38ZM267.75 162.38C251.31 174.18 238.45 170.86 229.21 166.22C226.27 167.07 232.5 148.36 246.6 145.94C255.4 144.44 261.28 153.11 267.75 162.38Z" fill="white"/>
<path id="path526843-9" d="M245.82 147C236.7 147 231.66 159.27 231.66 159.27C234.98 158.45 240.04 159.27 242.98 158.83C243.03 158.83 243.31 149.34 249.7 146.83C248.404 146.804 247.108 146.864 245.82 147.01V147ZM189.65 149.5C180.53 149.5 175.98 161.17 175.98 161.17C179.28 160.36 183.55 160.41 186.98 159.92C186.93 159.8 188.78 150.76 196.21 149.92C195.28 149.75 190.52 149.5 189.66 149.5H189.65Z" fill="#CCCCCC"/>
<path id="path135005" d="M178.85 160.47C178.78 167.47 183.56 171.83 189.85 171.91C196.14 171.99 201.46 167.73 201.53 160.75L178.85 160.47ZM234.41 160.47C234.33 167.41 239.73 171.76 246.78 171.84C253.83 171.92 259.87 167.69 259.95 160.75L234.41 160.47Z" fill="#333333"/>
<path id="ellipse135009" d="M190.64 163.91C190.64 165.37 192.41 166.57 194.64 166.6C196.87 166.63 198.64 165.47 198.64 164.01C198.64 162.55 196.86 161.35 194.64 161.32C192.42 161.29 190.65 162.45 190.64 163.91ZM248.73 162.17C248.73 163.61 250.73 164.81 253.23 164.84C255.73 164.87 257.77 163.71 257.79 162.27C257.81 160.83 255.79 159.62 253.29 159.6C250.79 159.6 248.75 160.72 248.73 162.17Z" fill="white"/>
<path id="path135011" d="M229.64 160.79C241.64 159.61 253.84 159.79 264.56 159.09M175.77 161.87C183.24 161.27 196.02 161.87 205.53 161.18L175.77 161.87ZM207.82 164.39C199.93 173.86 184.04 173.6 174.27 167.65C174.04 166.65 173.56 166.8 173.83 165.43C176 154.08 194.03 132.72 207.83 164.43L207.82 164.39ZM267.08 162C260.61 171.85 239.69 172.48 228.66 166.57C228.4 165.402 228.424 164.188 228.73 163.03C231.19 151.75 251.53 130.53 267.08 162.03V162Z" stroke="#999999" stroke-width="3" stroke-miterlimit="15.12"/>
</g>
</g>
</g>
</g>
</svg>
