<svg width="512" height="512" viewBox="0 0 512 512" fill="none" xmlns="http://www.w3.org/2000/svg">
<g id="Frame">
<g id="Rectangle">
<path id="Vector" d="M509.5 2.5H2.5V509.5H509.5V2.5Z" stroke="white" stroke-width="5" stroke-miterlimit="10"/>
</g>
<g id="Eyes">
<g id="layer1">
<g id="g95491">
<path id="path95479" d="M206.11 166C200.43 174.82 182.11 173.94 172.79 170.45C170.43 165 189.4 155 206.11 166ZM265.93 163.34C259.46 173.18 238.56 173.81 227.54 167.91C224.8 161.79 247.17 150.94 265.93 163.3V163.34Z" fill="white"/>
<path id="path148801" d="M237.53 164.84C237.47 169.98 241.64 172.64 246.86 172.7C252.08 172.76 256.37 170.19 256.43 165.05C256.458 162.543 255.489 160.129 253.736 158.337C251.984 156.545 249.591 155.523 247.085 155.495C244.579 155.467 242.164 156.436 240.372 158.188C238.58 159.941 237.558 162.333 237.53 164.84Z" fill="#333333"/>
<path id="path149038" d="M180.66 165.831C180.66 170.421 184.34 172.831 189.01 172.831C193.68 172.831 197.54 170.581 197.59 165.981C197.541 163.783 196.64 161.69 195.077 160.144C193.513 158.598 191.41 157.721 189.212 157.698C187.014 157.674 184.892 158.507 183.296 160.019C181.701 161.531 180.755 163.604 180.66 165.801V165.831Z" fill="#333333"/>
<path id="path95483" d="M203.45 170.11C197.78 172.89 177.71 172.72 173.29 171.11C173.118 169.189 173.185 167.254 173.49 165.35C173.17 161.95 187.36 133.49 204.81 162.88C204.9 164.39 205.65 168.67 203.45 170.11ZM266.59 169.39C252.33 172.63 234.59 171.5 227.83 170.23C227.469 168.285 227.395 166.297 227.61 164.33C228.85 148.06 258.69 133.99 266.5 162.94L266.59 169.39Z" stroke="#999999" stroke-width="3" stroke-linecap="round" stroke-linejoin="round"/>
<path id="path95485" d="M249 164.19C249.081 164.954 249.452 165.657 250.036 166.156C250.62 166.654 251.373 166.91 252.14 166.87C252.519 166.91 252.902 166.875 253.267 166.767C253.633 166.659 253.973 166.481 254.27 166.241C254.566 166.001 254.812 165.706 254.994 165.371C255.176 165.036 255.29 164.669 255.33 164.29C255.249 163.524 254.877 162.819 254.291 162.32C253.704 161.822 252.949 161.567 252.18 161.61C251.417 161.534 250.655 161.763 250.059 162.246C249.464 162.729 249.083 163.428 249 164.19Z" fill="white"/>
<path id="path149040" d="M190.94 165.241C191.004 165.93 191.334 166.566 191.861 167.015C192.388 167.463 193.07 167.688 193.76 167.641C194.444 167.711 195.128 167.507 195.662 167.074C196.196 166.641 196.537 166.014 196.61 165.331C196.544 164.643 196.212 164.007 195.686 163.559C195.16 163.111 194.48 162.886 193.79 162.931C193.107 162.863 192.424 163.068 191.891 163.5C191.357 163.933 191.016 164.558 190.94 165.241Z" fill="white"/>
<path id="path95487" d="M174.19 163.43C185.69 162.97 194.51 162.13 204.72 162.5C205.16 162.31 198.97 148.64 189.98 149.29C178.5 150.14 174.81 160.25 174.19 163.43ZM227.83 162.43C240.01 162.33 257.53 161.82 265.54 161.5C265.69 158.5 261.25 146.05 248.67 146.08C233 146.15 228.14 161.18 227.83 162.48V162.43Z" fill="white" stroke="#999999" stroke-width="3" stroke-linecap="round" stroke-linejoin="round"/>
<path id="path95489" d="M243.5 148.48C233.5 151.01 228.93 161.27 229.98 160.85C234.61 160.85 237.52 160.48 240.16 160.63C240.01 160.68 239.09 150.87 246.24 148.05C245.309 148.033 244.381 148.178 243.5 148.48ZM176.5 161.59L185.64 161.12C185.83 161.19 183.94 152.95 190.3 151.02C187.189 151.125 184.189 152.201 181.72 154.096C179.25 155.992 177.436 158.612 176.53 161.59H176.5ZM255.72 172.75C252.82 174.55 249.72 177.01 251.09 181.87C246.97 187.75 226.23 177.87 230.35 172.35C238.776 173.266 247.269 173.4 255.72 172.75Z" fill="#CCCCCC"/>
<path id="path95611" d="M250.62 183.39C235.32 185.83 228.74 176.78 227.79 169.28M184.3 183.85C174.74 183.07 174.19 173.73 173.68 170.58L184.3 183.85Z" stroke="#999999" stroke-width="3" stroke-linecap="round" stroke-linejoin="round"/>
</g>
</g>
</g>
</g>
</svg>
