<svg width="512" height="512" viewBox="0 0 512 512" fill="none" xmlns="http://www.w3.org/2000/svg">
<g id="Frame">
<g id="Rectangle">
<path id="Vector" d="M509.5 2.5H2.5V509.5H509.5V2.5Z" stroke="white" stroke-width="5" stroke-miterlimit="10"/>
</g>
<g id="Eyes">
<g id="layer1">
<g id="g84670">
<path id="path84660" d="M203.8 168.49C187.12 178.85 179.43 174.19 170.26 169.98C172.05 162.18 185.86 148.61 196.12 151.37C202.12 152.99 203.8 168.49 203.8 168.49ZM264.05 165.49C247.61 177.29 234.75 173.97 225.52 169.33C222.52 170.18 228.64 150.22 242.9 149.05C251.33 148.37 257.48 156.43 264.05 165.49Z" fill="white"/>
<path id="path84662" d="M239.59 149.849C230.46 148.139 228.26 161.149 228.27 161.339C231.59 160.529 233.37 163.889 236.27 163.489C236.59 164.359 235.27 154.659 241.05 150.089C240.12 149.919 240.4 150.009 239.55 149.849H239.59ZM187.45 153.429C182.57 156.454 178.311 160.381 174.9 164.999C176.65 166.789 182.85 165.999 186.3 165.509C186.3 165.389 187.9 153.049 195.3 152.209C194.94 151.209 188.84 152.609 187.42 153.469L187.45 153.429Z" fill="#CCCCCC"/>
<path id="path84664" d="M176 165.619C175.94 172.619 179.91 174.939 186.16 175.019C192.41 175.099 197.77 170.849 197.84 163.859L176 165.619ZM231.52 162.359C231.44 169.299 236.08 174.859 243.13 174.929C250.18 174.999 256.22 170.779 256.3 163.839L231.52 162.359Z" fill="#333333"/>
<path id="path84666" d="M186.94 167C186.94 168.46 188.71 169.66 190.94 169.69C193.17 169.72 194.94 168.56 194.94 167.1C194.94 165.64 193.16 164.44 190.94 164.41C188.72 164.38 187 165.56 186.94 167ZM245 165.28C245 166.73 247 167.92 249.5 167.95C252 167.98 254.04 166.83 254.06 165.38C254.08 163.93 252.06 162.74 249.56 162.71C247.06 162.71 245.02 163.83 245 165.28Z" fill="white"/>
<path id="path84668" d="M223.5 159.32C231.5 166.04 248.57 165.32 261.65 162.44M171.68 165.86C179.68 165.56 193.16 166.81 205.38 160.05L171.68 165.86ZM204.12 167.5C196.23 176.97 180.34 176.71 170.57 170.77C170.34 169.77 169.86 169.91 170.13 168.54C176.86 159.86 201.44 132.8 204.13 167.54L204.12 167.5ZM263.38 165.15C256.91 175 236 175.63 225 169.72C224.74 168.551 224.764 167.337 225.07 166.18C234.07 138.18 249.35 148.73 263.42 165.18L263.38 165.15Z" stroke="#999999" stroke-width="3" stroke-linecap="round" stroke-linejoin="round"/>
</g>
</g>
</g>
</g>
</svg>
