<svg width="512" height="512" viewBox="0 0 512 512" fill="none" xmlns="http://www.w3.org/2000/svg">
<g id="Frame">
<g id="Rectangle">
<path id="Vector" d="M509.5 2.5H2.5V509.5H509.5V2.5Z" stroke="white" stroke-width="5" stroke-miterlimit="10"/>
</g>
<g id="Hair">
<g id="layer1">
<g id="g45110">
<path id="abColor_3" d="M238.56 134.75C240.61 135.75 233.19 162.12 222.44 167.6C220.44 168.6 211.29 170.28 210.04 167.41C214.32 165.46 214.61 148.57 210.61 150.67C209.51 155.59 200.19 162.67 197.88 159.79C196.88 158.08 200.31 150.06 200.19 148.01C198.08 142.9 192.62 135.59 187.86 133.01C180.35 139.57 169.22 140.15 164.7 134.35C175.16 127.92 177.19 136.94 172.42 100.5C167.27 99.7201 159.72 99.5001 158.81 92.0901C177.09 94.3801 176.21 78.1901 182.54 63.5001C189.04 55.6101 200.76 57.7901 198.92 58.0501C204.3 59.7501 204.05 63.3201 204.92 49.2501C209.31 46.9201 221.21 45.6801 224.19 43.8501C234.34 32.8501 239.83 37.4801 254.61 39.0201C270.55 31.1001 278.67 39.3401 288.2 46.7301C286.97 46.3501 275.2 57.4201 275.9 60.9601C287.38 68.8201 280.34 80.0301 313.9 101.22C310.9 102.37 318.14 66.3501 317.9 69.2201C320.9 72.9001 324.59 76.4401 325.59 80.8701C327.39 89.7201 322.39 97.9301 326.76 106.57C328.19 109.4 335.01 108.45 335.46 110.75C334.07 118.07 326.32 114.75 322.62 113.32C321.77 126.98 338.83 120.62 336.81 125.46C331.57 132.86 322.59 131.46 315.16 130.09C312.5 129.53 309.16 125.24 306.16 122.41C301.23 126.49 294.37 125.95 288.39 122.41C283.209 124.826 277.304 125.184 271.87 123.41C263.73 136.18 251.97 141.41 238.56 134.68V134.75Z" fill="white"/>
<path id="path318145" d="M288.23 78.7302C286.79 75.0502 279.73 62.9302 278.79 63.5602L275.79 61.6202L271.79 61.1902C279.55 66.6302 277.34 74.5602 282.73 81.5702C293.35 87.7602 297.9 90.5702 300.99 100.67C305.99 99.8402 309.81 101.81 313.99 103.02C313.99 103.02 316.1 100.5 310.24 97.9102C294.6 92.7702 304.4 81.1302 288.23 78.7302ZM209.8 49.1602C209.8 49.1602 202.04 53.8602 200.47 56.3702C198.9 58.8802 191.94 60.6702 191.94 60.6702C191.94 60.6702 199.94 59.9502 202.08 64.3702C207.47 76.6502 195.51 76.8102 197.97 88.2702L205 78.3402L201.19 85.0602C207.55 78.2902 214.19 81.5002 215 78.9302C216.2 74.9302 207.47 80.7702 212.12 63.8802L207.8 73.3902C206.8 68.5602 208.64 63.9902 215.24 58.7102C212.34 59.8902 208.5 61.2902 205.62 57.6402C202.74 53.9902 209.77 49.1602 209.77 49.1602H209.8ZM179.26 74.0002C175.44 90.9102 158.59 94.0002 158.53 92.2402C158.53 92.2402 157.36 95.5902 161.86 96.8302C166.36 98.0702 173.25 100.83 173.25 100.83C171.82 107.96 179.08 126.93 173.48 130.3C170.48 131.83 164.25 135.12 164.25 135.12C171.6 141.2 178.41 137.96 187.84 133.12L187.73 130.46C188.267 133.481 189.703 136.269 191.85 138.46C198.42 144.71 202.4 148.37 200.13 153.13C197.86 157.89 195.54 161.79 198.37 161.4C201.2 161.01 211.06 151.68 211.06 151.68C211.06 151.68 213.06 164.19 214.06 158.89C215.24 152.5 211.19 130.58 210 124.63C208.721 118.258 206.32 112.163 202.91 106.63C199.69 101.74 197.48 93.6302 197.48 93.6302C197.48 93.6302 201.82 111.88 200.38 118.5C198.94 125.12 194.69 131.11 191.27 124.09C187.85 117.07 187.55 119.97 187.55 119.97C187.55 119.97 187.46 120.73 187.38 121.38V120.45C186.75 119.76 184.38 122.36 180.88 119.61C176.44 116.1 178.88 103.08 180.45 98.3102C182.02 93.5402 186.2 87.7802 186.2 87.7802C187.48 84.9102 185.46 83.0402 179.39 88.5702C177.1 87.7502 176.48 84.6802 179.26 74.0002ZM272.56 84.4302C274.04 97.3602 274.72 117.35 289.01 110.54C285.15 107.48 280.59 107.69 280.23 100.22C279.8 91.2102 273 84.1602 272.56 84.4202V84.4302ZM262.4 120.54C265.094 119.956 267.641 118.834 269.89 117.24C261.81 115.35 257.89 109.11 257.6 104.08C248.74 106.15 256 120.72 262.4 120.54ZM269.89 117.24C270.388 117.533 270.902 117.797 271.43 118.03L270.98 116.42C270.98 116.42 270.57 116.77 269.89 117.24ZM271.43 118.03L272.95 123.48C272.95 123.48 289.57 126.66 289.86 115C282.2 119.84 276.09 120.06 271.43 118V118.03ZM292.56 113.45C293.09 117.38 292.11 116.45 289.56 121.14L282.67 124.67L282.6 127.97C292.06 129.81 301.32 128.24 305.69 125.9C305.69 125.9 308.98 130.97 313.33 132.14C316.147 132.831 319.071 132.967 321.94 132.54C321.48 132.3 321.01 132.06 320.56 131.81C327.68 133.48 334.02 130.81 336.1 128.15C324.99 129.86 316.64 126.86 310.1 115.97L307.33 121.65L306.73 121.05H304.2C306.72 119.78 307.74 118.34 305.12 117.99C299.65 119.47 294.74 117.91 292.56 113.45ZM236.72 120.65C234.55 120.65 235.17 127 235.11 128.35C234.87 132.94 229.28 158.54 229.28 158.54L239.45 135.31C239.45 135.31 260.96 140.37 267.92 128.49C267.92 128.49 260.86 132.32 253.34 132.16C243.43 131.95 236.34 121.33 237.19 120.73C237.039 120.677 236.88 120.65 236.72 120.65Z" fill="#CCCCCC"/>
<path id="path296035" d="M294.07 123.14C298.15 125.82 309.6 123.56 309.67 111.85C309.67 109.56 297.32 122.93 296.42 98.3698M315.49 104C311.36 96.2098 304.65 101.52 301.78 92.3298C299.39 84.6698 292.34 83.1398 286.38 79.5398C285.61 67.4398 275.71 61.6898 271.46 60.3998L315.49 104ZM322.78 113.32C323.71 116.2 335.45 119.12 335.34 110.03C335.34 107.36 321.34 115.55 325.08 90.2298C327.69 77.4498 322.77 74.3098 316.78 67.1098L322.78 113.32ZM287.78 45.7598C276.38 36.1998 267.29 30.5098 254.25 39.5198C244.39 40.0798 237.96 30.5898 223.59 44.3298C211.69 47.0598 205.2 46.7998 199.53 58.7598C191.61 59.2798 179.97 61.5498 178.01 73.2698C172.95 103.54 154.93 86.2698 158.01 93.3998C161.09 100.53 173.19 101.85 174.09 99.0998L287.78 45.7598ZM322.72 112.82C324.91 131.3 338.46 120.82 338.03 124.04C336.55 135.27 318.93 133.59 313.38 127.25L322.72 112.82ZM239 134C250.25 144 274.86 133 271.74 116.58C271 113 256.83 133 253.76 108L239 134ZM273.11 123.48C280.53 127.11 295.18 120.71 290.93 109.87C289.65 106.63 276.8 123.31 275.35 97.3398C274.74 86.4298 270.35 82.5198 264.61 80.5398L273.11 123.48ZM208.17 130.41C209.17 121.73 205.57 112.14 201.34 103.91C193.98 89.5998 201.22 79.9098 207.18 76.3298C208 64.1898 212.44 61.4998 217 58.9998L208.17 130.41ZM188.12 131C187.61 138.17 172.03 142.45 164.63 135.77C158.92 130.62 182.05 140.95 173.22 110.59C171.15 98.2298 177.72 92.5898 183.22 87.7998L188.12 131ZM211.36 143.45C212.36 151.45 204.51 162.91 197.25 160.91C192.95 159.73 209.59 150.5 192.92 139.81C187.29 135.14 187.26 125.31 187.64 121.44L211.36 143.45ZM238.75 134.09C236.7 145.66 225.54 176.09 211.28 168.93C205.59 166.07 218.94 163.18 211.13 151.87L238.75 134.09Z" stroke="#999999" stroke-width="3" stroke-linecap="round" stroke-linejoin="round"/>
</g>
</g>
</g>
</g>
</svg>
