<svg width="512" height="512" viewBox="0 0 512 512" fill="none" xmlns="http://www.w3.org/2000/svg">
<g id="Hair8">
<g id="Rectangle">
<path id="Vector" d="M509.5 2.5H2.5V509.5H509.5V2.5Z" stroke="white" stroke-width="5" stroke-miterlimit="10"/>
</g>
<g id="Hair">
<g id="layer1">
<g id="g359841">
<path id="path388505" d="M325.21 155.271C337.31 170.981 334.21 180.08 325.5 189.01C324.44 185.51 323.64 182.371 321.99 178.111C325.28 172.671 322.86 165.11 321.22 160.84L325.21 155.271Z" fill="#FF0000"/>
<path id="abColor_3" d="M313 110C312.55 110 302.24 96.8103 302.32 96.2103C302.68 93.6703 284.24 77.7403 284.16 77.8103C284.6 77.2503 272.71 61.6303 271.52 61.9103C273.89 57.0003 281.49 50.0003 283 48.6003C282 46.2403 274.28 43.8303 271.39 47.4503C269.02 50.4503 259.56 43.8203 259.56 43.8203L246 46.6703C236.8 45.3603 228 42.4903 216 53.3403C209.11 51.5903 202.22 50.3403 195.36 53.9603C195.36 53.9603 184.94 71.5403 182.51 65.9603C181.97 69.5303 175.08 67.7503 169.51 75.9603C169.51 75.9603 161.78 82.3103 166.05 88.7303C163.54 92.9603 158.3 97.2503 163.59 106.52C162.658 110.525 161.513 114.477 160.16 118.36C160.16 118.36 151.66 130.68 155.48 134.56C159.3 138.44 167.14 142.13 167.14 142.13C167.14 142.13 171.83 136.13 181.36 139.13C190.28 141.89 195.82 134.51 195.82 134.51L202.66 125.25C211.15 128.83 226.52 145.8 234.66 136.65C245.42 147.07 251.12 139.52 266.93 138.45C272.31 138.2 271.74 148.37 290.63 141.62C301.06 146.51 308.46 156.12 323.08 154.48C329.44 138.83 324.62 122.19 324.27 114.48C324.27 114.48 327.65 100.38 326.2 95.9303C324.81 102.27 325.81 91.6503 317.58 73.3803C315.58 85.3203 313.8 90.7603 313.07 110.02L313 110ZM356.87 147.81C352.46 138.65 347.65 143 342.74 150.86C337.74 142.09 332.88 146.99 328 155.18C334.6 166.84 336.43 178.85 325.32 191.83C326.52 198.65 332.89 198.09 341.25 194.7C346.56 197.56 350.62 204.7 360.66 191.6C373.5 198.6 372.66 179.88 368.58 176.66C378.7 171.21 376.46 153.16 363.44 159.72C372.2 143.21 362.79 147.55 356.9 147.85L356.87 147.81Z" fill="white"/>
<path id="Grey" d="M169.37 77.3007C159.63 84.0707 160.7 98.8407 162.97 108.871C159.97 120.051 150.78 134.221 159.27 142.731C155.13 149.621 168.97 150.951 179.9 139.801C197.21 139.391 200.51 130.311 201.34 126.621L195 121.571C193.15 124.571 174.14 135.721 167.15 132.271C155.32 126.431 169.54 107.891 175.77 99.7007C167.97 95.7007 169.89 81.2507 186.52 74.5007C186.34 53.4407 219.84 52.9107 216.68 52.0307C202 48.8107 190.47 56.8007 182.28 66.1507C175.35 70.4207 174.14 73.1007 169.37 77.3007ZM211.89 93.3007C206.156 93.2887 200.432 93.8008 194.79 94.8307L196.84 100.061C212.5 95.9207 227.84 95.3107 241.21 104.841L264.86 106.841C258.05 102.401 251.86 100.521 242.96 100.421C239.17 96.8907 226.9 93.3407 211.89 93.3207V93.3007ZM195.28 110.421C192.39 117.421 197.04 119.511 205.23 125.311C215.98 138.451 224.78 141.641 232.15 137.441C244.47 140.791 252.3 143.641 264.89 138.831C266.69 144.051 276.89 149.501 290.36 146.301C306.55 158.031 315.82 158.301 319.2 158.131C317.35 157.341 322.64 154.461 320.9 153.761C310.43 149.521 300.33 146.521 292.21 139.331C283.04 138.981 273.63 139.961 265.64 133.141C255.93 135.661 249.31 138.941 236.13 130.311C227.04 133.311 216.43 128.311 208.98 122.391C208.24 124.081 194.16 114.701 195.28 110.391V110.421ZM333.73 150.561C328.46 152.291 329.54 151.901 328.05 155.821C330.94 166.351 338.51 175.931 324.98 189.821C326.59 198.251 333.45 197.691 341.37 195.291C350.93 201.851 356.22 197.411 360.43 191.071C355.43 193.011 350.9 193.411 346.95 187.271C337.95 190.991 336.21 180.711 341.38 175.441C339.95 172.201 334.16 172.251 339.46 160.321C336.26 162.731 330.96 154.261 333.73 150.591V150.561Z" fill="#CCCCCC"/>
<path id="abColor_4" d="M158 121.001C159.82 118.411 165.05 95.1206 195.39 98.0006M162.34 92.3806C163.05 89.2106 173.79 70.3206 200.57 75.0706M202.19 75.5806C203.06 72.2606 223.82 62.2106 241.66 74.2506M306.92 119.131C324.15 129.801 322.38 137.901 325.38 147.321M197.26 102.121C198.12 98.7906 223.66 92.9506 241.49 104.991C250.43 103.991 260.39 106.051 269.76 109.651M289.54 119.871C293.54 120.491 299.72 125.871 302.45 132.691C317.13 138.691 318.63 142.891 323.14 154.691M317.59 73.0506C330.72 104.171 324.65 108.351 323.97 114.881C329.03 124.751 329.48 140.721 324.28 151.881M284.28 49.0906C281.22 42.7106 273.28 45.6306 270.67 48.8406C266.57 46.7306 257.51 40.2606 246.27 46.9906C244.98 43.8906 230.1 41.7006 219.66 52.7006C206 49.5506 188.54 54.9106 182.14 66.5006C169.22 69.9606 156.48 95.3206 162.86 107.581M266.86 60.3606C269.96 63.2706 268.86 62.2006 276.39 66.1406C279.68 67.8706 281.84 74.4306 282.8 77.6606C284.44 81.2106 288.46 81.2706 291.28 83.6606C293.55 84.7906 301.41 92.3806 302.4 97.8306C311.91 104.111 310.9 103.831 313.7 111.941M321.89 154.941C320.89 157.941 295.64 149.231 290.79 141.371C287.7 143.621 280.06 146.571 264.88 137.811C259.88 144.901 239.73 143.541 233.98 137.391C224.52 141.191 212.19 137.331 206.09 126.391C189.61 121.991 191.68 108.321 197.33 102.341C195.8 94.0006 189.73 85.9306 202 76.5006C200.64 59.6406 210.85 58.0206 218.75 53.5006M160.68 148.231C169.39 149.891 177.31 141.151 179.81 139.531C197.42 137.971 197.91 130.811 201.95 125.341M163.19 107.341C155.07 124.731 152.55 140.711 159.97 147.041M323.92 190.061C328.31 203.281 337.34 196.471 341.49 194.061C348.23 206.611 360.17 195.861 360.41 192.451C373.54 202.351 375.41 176.051 367.7 177.021C385.29 164.231 370.79 157.161 362.7 160.461C369.57 158.331 371.83 138.051 355.97 148.801C352.47 134.741 343.19 148.171 342.17 150.671C335.49 141.761 331.38 148.031 328.06 156.451L323.92 190.061Z" stroke="#999999" stroke-width="3" stroke-linecap="round" stroke-linejoin="round"/>
<path id="path360322" d="M325.94 155.94C334.65 165.07 335.78 181.35 326.58 189.5" stroke="#800000" stroke-width="3" stroke-linecap="round" stroke-linejoin="round"/>
</g>
</g>
</g>
</g>
</svg>
