<svg width="512" height="512" viewBox="0 0 512 512" fill="none" xmlns="http://www.w3.org/2000/svg">
<g id="Frame">
<g id="Rectangle">
<path id="Vector" d="M509.5 2.5H2.5V509.5H509.5V2.5Z" stroke="white" stroke-width="5" stroke-miterlimit="10"/>
</g>
<g id="Hair">
<g id="layer1">
<g id="g53230">
<path id="abColor_3" d="M178.49 137.65C166.42 139.65 160.16 145.49 172.49 114.1C144.72 119.1 165.81 87.4199 168.05 83.3799C134.31 77.0999 167.9 57.2799 175.9 46.1499C148.82 42.1499 171.43 29.4699 203.32 22.1499C179.33 9.63994 214 6.71994 231.23 11.6199C245.5 -1.52006 257.14 6.33994 262.51 10.1899C276.42 -3.88006 293.83 17.3999 290.61 17.1899C289.9 16.0199 307.34 16.0799 306.37 20.1899C300.85 25.1199 298.37 33.9999 293.44 39.6099C287 46.8999 278 51.6199 278.61 54.2899C280.31 54.6199 274.8 60.9499 277.61 65.8999C279.7 69.5699 284.17 77.4899 286.61 82.0399C294.71 85.1199 305.37 98.0399 311.11 99.8999C311.32 103.71 315.38 71.6399 318.51 64.3099C320.25 59.3799 319.97 56.3099 319.72 52.7799C321.12 40.2099 318.39 34.0099 318.72 32.9099C321.72 23.8399 335.48 50.2599 329.51 56.4499C336.23 69.8699 331.51 75.7099 327.4 86.3199C331.66 98.6899 326.4 106.38 322.82 111.32C322.68 116.32 322.68 129.67 319.43 131.57C310.16 135.43 293.08 131.88 284.43 126.57C274.02 128.88 277.16 129.57 265.73 125.57C255.61 127.44 258.61 127.83 248.89 124.74C244.13 142.41 232.72 132.32 231.44 133.46C228.54 144.22 217.61 154.46 212.25 140.46C197 166.71 176.72 160.31 178.49 137.65Z" fill="white"/>
<path id="path373409" d="M209.24 9.66016C198.43 9.78016 190.24 12.2502 199.65 21.1802C175.36 30.6402 145.47 40.5102 176.28 45.9202C155.8 63.5802 139.73 82.9202 168.95 81.3002C162.73 91.3002 145.82 123.8 173.64 112.76C162.47 137.09 163.08 146.45 180.24 134.76C177.81 169.55 200.24 159.94 212.24 140.6C220.6 153.09 230.13 138.13 229.93 131.9C230.04 135.5 216.5 143.08 213.62 133C193.94 149.24 180.87 148.09 183.31 131.6C184.98 120.28 164.43 143.46 179.48 110.6C185.1 98.3402 152.66 114.94 174.16 81.7001C182.5 68.8102 148.37 80.3102 181.94 47.9602C188.07 42.0602 156.28 36.5302 207.94 24.6602C215.94 22.8402 184.23 13.3502 232.22 11.7202C224.63 10.4021 216.944 9.71307 209.24 9.66016ZM249.62 116.51C245.62 123.74 240 131.51 233.74 123.82L231.56 131.91C231.33 132.84 243.21 138 248.69 125.53C250.81 127.68 262.15 129.29 266.45 125.31C273.66 128 278 129.15 284 127.9C288.64 131.23 307.33 135.23 321.38 129.84L323.38 124.84C316.86 128.64 306.83 130.44 305.85 121.58C304.04 123.66 288.94 128.7 289.75 119.18C273.75 128.99 268.18 120.86 269.03 117.97C259.62 124.68 252.1 119.76 249.62 116.51Z" fill="#CCCCCC"/>
<path id="path36882" d="M307.72 120.5C304.72 125.05 298.42 130.09 288.3 128.61M277.3 50.6302C278.81 56.0102 278.59 62.7202 275.18 66.6302C280.6 67.8102 286.85 78.1802 284.74 82.9002C293.63 83.9002 301.45 89.7602 301.74 96.1002C309.91 98.1702 308.81 97.4902 312.26 104.42L277.3 50.6302ZM265.26 124.66C275.76 132.55 286.05 127.01 289.57 120.14L265.26 124.66ZM248.41 124.36C265.21 133.51 271.29 118.36 268.93 109.28L248.41 124.36ZM232.4 133.13C246.85 141.74 251.19 116.97 247.82 108.96L232.4 133.13ZM213.58 136.72C213.25 157.99 234.23 141.17 231 128.32C235.62 123.8 238 109.89 231.45 96.8302L213.58 136.72ZM213.69 132.26C212.04 157.1 174.58 174.02 180.39 134.13C156.91 154.47 166.48 122.5 174.8 111.91C153.17 124.81 151.65 99.9902 169.61 81.4702C156.38 85.7602 138.36 75.4702 177.26 45.7902C144.78 45.6102 173.26 24.8902 204.26 22.6402C173.19 9.71016 225.51 6.21016 231.81 11.1602C248.38 -1.32984 255.21 5.28016 262.81 10.3402C277.73 -0.239836 285.26 8.88016 291.05 16.6302C296.673 16.4782 302.235 17.8315 307.16 20.5502L213.69 132.26ZM318.42 31.5502C332.2 34.7902 331.9 46.5902 328.82 57.0002C333.38 60.2102 337.6 76.3602 327.01 87.6602C330.01 95.4002 330.25 103.39 322.51 112.06C324.82 120.34 323.8 126.61 320.03 130.3L318.42 31.5502Z" stroke="#999999" stroke-width="3" stroke-linecap="round" stroke-linejoin="round"/>
</g>
</g>
</g>
</g>
</svg>
