<svg width="512" height="512" viewBox="0 0 512 512" fill="none" xmlns="http://www.w3.org/2000/svg">
<g id="Hair9">
<g id="Rectangle">
<path id="Vector" d="M509.5 2.5H2.5V509.5H509.5V2.5Z" stroke="white" stroke-width="5" stroke-miterlimit="10"/>
</g>
<g id="Hair">
<g id="layer1">
<g id="g419608">
<path id="abColor_3" d="M164.56 164.79L172.02 164.44C169.19 151 171.02 137.26 175.16 123.36C175.91 138.25 175.41 154.43 179.83 165.56L190.44 165.06C189.93 151.24 193.3 136.87 203.44 121.53C203.53 137.44 202.39 154.64 207.44 165.24L227.67 164.48C231.38 148.61 233.29 131.72 243.2 119.32C255.72 137.09 254.68 149.07 256.31 162.18L271.52 160.39L272.7 121.72C277.37 134.44 282.56 147.29 281.39 158.55L294.85 158.96L296.71 128.25C300.09 139.08 303.98 150.17 303.28 158.82L338.11 157.17C338.02 111.17 330.05 83.5702 318.62 64.0702C315.44 74.9302 312.26 85.7802 311.85 97.9902L275 59.4802C278.48 55.0802 281.28 51.9702 284.42 48.2102C251.42 38.0702 224.31 47.6802 201.63 58.2802C165.32 75.2402 160.54 119.93 164.56 164.79Z" fill="url(#paint0_linear_201_423)"/>
<path id="Grey" d="M228.75 48.6299C218.42 50.4699 199.44 57.4699 186.13 67.4299C154.13 107.07 168.92 131.71 164.03 162.66L171.65 163.78C170.47 149.14 172.92 134.46 176.53 119.43C176.64 136.26 176.74 153.5 179.32 163.43L188.9 164.52C188.74 164.76 189.13 121.83 195.61 93.7399C201.19 69.5499 222.37 50.0499 228.75 48.6299Z" fill="url(#paint1_linear_201_423)"/>
<path id="abColor_4" d="M329.82 157.601C334.44 157.011 337.23 158.001 337.94 156.971C338.14 95.7206 330.52 81.7006 318.63 63.8006M269.87 57.4206C285.25 70.1006 305.14 89.4206 314.55 105.041M285.55 48.9106C267.12 43.8206 235.36 39.5906 199.36 59.3506C161.58 74.0606 162.1 134.351 163.75 164.061L171.75 164.191C172.62 155.411 167.44 130.801 179.58 111.441C174.706 128.599 174.327 146.723 178.48 164.071L189.88 164.561C187.17 156.241 194.88 126.561 205.42 117.001C202.21 133.361 201.62 147.661 207.54 166.001L228.19 165.231C231.43 137.331 234.48 129.231 242.74 117.231C253.41 130.521 257.67 144.761 256.51 162.001L271.68 161.081C272.84 140.431 271.68 136.581 270.78 116.681C283.67 139.481 280.84 153.431 283.18 159.561L296.18 159.041C297.28 130.041 297.24 120.381 286.28 99.5106M294.57 120.211C296.29 123.761 305.27 144.901 304.29 158.501L328.94 157.571C329.58 140.631 327.87 121.161 321.21 98.1206" stroke="#999999" stroke-width="3" stroke-linecap="round" stroke-linejoin="round"/>
</g>
</g>
</g>
</g>
<defs>
<linearGradient id="paint0_linear_201_423" x1="250.583" y1="123.125" x2="251.112" y2="178.691" gradientUnits="userSpaceOnUse">
<stop stop-color="white"/>
<stop offset="1" stop-color="white" stop-opacity="0"/>
</linearGradient>
<linearGradient id="paint1_linear_201_423" x1="196.44" y1="114.29" x2="196.79" y2="177.57" gradientUnits="userSpaceOnUse">
<stop stop-color="#CCCCCC"/>
<stop offset="1" stop-color="#CCCCCC" stop-opacity="0"/>
</linearGradient>
</defs>
</svg>
