<svg width="512" height="512" viewBox="0 0 512 512" fill="none" xmlns="http://www.w3.org/2000/svg">
<g id="Hair3">
<g id="Rectangle">
<path id="Vector" d="M509.5 2.5H2.5V509.5H509.5V2.5Z" stroke="white" stroke-width="5" stroke-miterlimit="10"/>
</g>
<g id="Hair">
<g id="layer1">
<g id="g154583">
<path id="abColor_3" d="M349.017 173.4L344.747 162.05L345.857 144.14L341.467 135.56C340.537 125.3 340.787 112.91 335.977 109.65C334.977 95.65 331.797 89.18 327.267 87.34C326.757 67.6 322.667 68.55 319.367 62.26C316.267 70.61 312.547 90.86 310.607 100.73C309.327 92.6 302.827 88.95 295.257 86.46C284.917 74.01 271.077 60.99 272.417 58.84C277.997 49.68 283.677 48.7 290.147 41.03C285.517 39.62 279.737 36.03 277.557 39.35L260.377 34L253.697 35.84L237.777 38.68L223.937 36.18L194.667 44.39L191.957 49.69L186.277 55.69C170.917 61.69 179.077 67.97 167.207 69.43C167.207 69.43 160.207 74.98 158.967 81.76C157.963 86.2795 155.953 90.5146 153.087 94.15L154.817 100.15C154.817 100.15 154.957 112.78 152.347 118.37C149.737 123.96 144.757 136.18 144.757 136.18C144.647 141.4 146.937 145.57 142.757 152.58C142.187 158.58 143.757 164.58 139.307 170.58C139.247 180.77 143.897 182.24 150.467 180.18C153.347 190.85 159.167 186.81 165.227 186.46C167.947 184.12 165.587 175.38 168.887 174.93C176.587 173.93 173.657 161.57 173.247 161.44C173.247 161.44 174.997 158.96 178.127 151.33C181.257 143.7 178.187 135.84 180.747 134.03C183.307 132.22 186.387 120.69 186.387 120.69C186.387 120.69 191.017 118.26 188.087 127.39C185.157 136.52 190.667 146.08 190.667 146.08C190.667 146.08 191.157 158.01 193.217 160.89C195.277 163.77 193.967 177.71 199.687 179.28C206.477 181.16 213.977 188.45 212.817 183.46C213.817 183.65 223.547 171.46 220.147 164.81C218.467 161.52 215.027 162.42 218.887 153.46C223.107 143.68 219.737 144.02 219.227 137.81C218.717 131.6 225.017 124.11 225.017 124.11L222.817 117.93L225.377 110.81C225.377 110.81 227.027 113.32 228.567 119.81C230.107 126.3 240.487 130.53 241.277 131.94C242.067 133.35 239.277 138.6 243.277 142.35L253.957 152.47C252.097 153.81 257.857 160.84 263.367 163.65C263.757 170.19 275.597 176.58 275.597 176.58C279.527 182.1 279.967 188.19 289.857 182.44C297.857 177.79 288.327 171.77 289.317 170.5L290.527 163.5C290.527 163.5 299.527 166.61 301.977 174.38C304.427 182.15 312.327 184.38 316.427 180.38C320.527 176.38 321.207 181.02 321.207 181.02C321.207 181.02 324.207 185.9 328.847 182.48C333.487 179.06 334.367 176.48 334.367 176.48C334.367 176.48 337.667 185.48 349.837 174.41" fill="white"/>
<path id="Grey" d="M311.417 95.5001C311.527 95.5001 310.737 97.6001 310.797 97.5801C309.797 100.31 309.667 101.2 311.357 102.58C322.917 111.92 318.627 114.97 322.297 125.8C324.037 130.93 328.057 135.73 330.177 140.73C331.707 145.26 326.567 152.64 333.807 161.31C333.807 163.95 328.887 175.62 337.457 177.66C348.117 180.2 333.457 157.05 333.997 151.54C334.457 147.03 332.947 138.72 330.997 134.12C327.907 127.12 324.327 124.48 324.997 115.37C324.677 110.8 321.807 102.87 315.857 99.9601C314.957 95.7001 316.277 93.3601 312.447 90.7001L311.417 95.5001ZM295.797 86.1201C281.797 68.2001 274.427 62.1201 273.217 57.5701L269.707 56.2701C264.957 60.1601 272.287 72.5301 279.137 88.2701C280.287 90.9101 287.497 92.7401 288.237 93.6801C285.927 99.8101 289.637 106.86 293.307 109.08C297.537 109.25 305.217 118.83 306.837 118.08C305.927 110.68 292.707 107.57 294.487 96.7901C295.557 91.9501 301.627 93.1901 308.107 97.1701C309.107 88.9201 301.257 88.6101 295.797 86.1701V86.1201ZM169.087 68.7201C167.01 70.1665 164.831 71.4599 162.567 72.5901C159.907 73.7701 158.317 84.5101 156.517 89.1101C154.717 93.7101 151.787 94.4001 151.787 94.4001L153.897 104.95C153.897 104.95 152.967 118.23 149.287 124.62C145.607 131.01 146.587 140.97 146.757 144.35C146.927 147.73 144.267 150.35 141.757 154.96C139.247 159.57 141.057 167.42 141.057 167.42C141.057 167.42 139.317 170.33 139.877 176.74C140.437 183.15 151.187 181.58 151.187 181.58C146.807 181.82 154.597 158.11 154.487 159.82C154.377 161.53 148.427 142.43 161.137 129.17C161.437 124.32 166.137 102.58 173.447 105.17C176.107 97.8201 177.857 88.2701 183.147 87.3201L177.637 87.8301C170.637 81.1501 180.207 78.5601 183.197 73.9501C168.757 75.8401 179.727 62.8901 186.017 59.5301C188.127 58.0801 178.787 62.1001 178.787 62.1001C178.147 58.6101 170.347 70.4301 169.087 68.7201ZM233.557 36.5801C232.342 36.6273 231.144 36.8704 230.007 37.3001C225.007 40.5601 224.177 46.7201 217.647 47.8001C210.967 50.8001 210.487 60.9301 202.717 62.8601C196.547 69.2701 200.457 72.5601 195.507 77.0401C193.567 81.3201 192.677 81.8301 189.897 85.8501C187.757 89.7301 189.317 96.2001 189.897 99.9901C187.967 105.7 183.717 108.62 184.007 115.07C183.617 128.64 178.007 129.17 176.087 134.25C174.477 138.88 174.087 139.17 174.887 144.31C175.547 148.81 173.487 154.7 169.627 156.75C166.247 163.58 171.777 169.31 167.087 176.12C165.817 182.73 174.917 173.29 173.757 170.78C172.167 164.84 175.387 158.78 177.947 153.98C179.827 151.17 183.877 131.36 186.497 131.19L188.817 126.59C192.317 123.65 193.037 110.41 194.677 106.45C197.747 101.53 195.677 99.4501 194.167 93.7001C193.587 87.1101 202.167 78.8301 201.927 72.2601C201.927 66.7601 207.817 63.0101 212.927 64.3501C215.267 60.2601 213.497 53.6801 219.037 51.4301C223.967 50.4301 230.117 50.8301 231.107 44.3001C231.407 41.4201 240.347 37.2401 233.637 36.5801H233.557ZM249.287 81.0901C249.177 81.0901 249.117 81.0901 249.097 81.0901C250.417 84.5601 251.097 97.2701 251.017 99.9801C263.797 106.43 262.727 108.53 265.527 119.66C267.157 125.32 276.627 128.99 277.057 130.27C278.057 134.14 278.267 139.97 280.257 143.49C295.327 153.64 286.877 155.21 290.937 162.08C300.017 165.37 300.657 173.08 304.117 179.08C305.987 182.08 311.387 184.58 314.347 181.25C304.457 178.4 307.157 169.91 303.237 164.63C293.807 159.37 293.917 157.19 290.887 146.23C289.887 142.51 283.237 147.01 279.707 132C279.177 129.75 275.047 121.54 269.387 118.6C265.307 116.49 271.777 110.05 263.257 102.72C260.117 100.03 257.557 100.03 255.717 93.3401C252.907 83.1501 250.047 81.2601 249.287 81.0601V81.0901ZM226.827 107.76C224.187 115.22 221.507 118.97 223.977 124.92C227.277 128.65 232.977 126.63 233.117 133.08L243.167 143.84C245.857 157.71 251.037 146.32 252.987 153.07C255.917 163.24 259.787 166.07 264.257 164.13C264.767 174.13 270.257 173.22 276.347 176.49C277.887 182.49 279.347 189.19 287.547 182.16C279.047 182.79 281.687 173.89 278.797 173.33C272.927 169.76 266.187 167.48 265.577 162.19C265.577 162.19 255.977 157.36 255.757 149.32C255.557 141.58 249.977 154.1 247.757 141.09C246.297 132.45 241.357 133.54 238.447 129.74C235.537 125.94 238.327 124.74 226.787 107.74L226.827 107.76ZM192.477 109.76C187.867 115.05 192.777 114.76 187.547 128.38C186.547 130.87 186.407 138.53 189.387 143.38C191.887 147.43 190.217 149.97 190.477 154.43C190.687 157.91 193.617 159.81 194.537 162.89C197.537 172.89 189.537 174.89 201.537 179.21C204.097 180.14 210.337 184.72 211.537 183.08C206.187 180.82 207.227 176.15 205.437 175.56C196.987 172.75 201.647 164.46 197.437 160.21C191.237 154.02 198.017 148.29 194.157 141.06C190.297 133.83 200.017 123.84 192.477 109.75V109.76ZM310.017 125.89C308.607 125.97 308.647 133.1 308.737 134.22C309.227 138.94 312.087 140.52 314.837 144.13C317.267 147.27 317.217 149.99 316.927 153.93C316.799 158.048 317.772 162.125 319.747 165.74C321.987 170.56 320.457 176.84 324.667 180.74C325.667 181.96 327.457 181.45 328.317 180.33C323.907 177.45 323.317 175.33 324.157 169.91C325.367 162.47 317.347 163.6 320.797 150.66C322.857 142.93 310.977 138.29 310.497 126.08C310.367 125.957 310.195 125.889 310.017 125.89V125.89Z" fill="#CCCCCC"/>
<path id="abColor_4" d="M332.797 175.92C340.587 184.6 353.497 177.67 346.067 166.35C340.447 158.61 350.497 144.93 342.217 137.46C337.657 128.24 343.697 117.22 334.917 108.94C335.077 97.7799 334.917 91.4899 326.627 85.8299C327.557 76.6199 325.307 67.0999 320.037 62.9799M290.287 163.11C297.717 165.01 301.997 168.28 302.877 176.7C306.487 189.58 323.027 183.41 320.347 168.97C318.667 161.15 314.437 164.88 316.987 152.87C319.057 143.15 306.987 141.39 308.557 132.54C309.407 127.87 307.067 115.29 297.667 110.6C293.257 110.37 289.157 108.53 288.147 99.5999C288.427 89.5999 276.487 96.5199 276.237 80.5999C275.537 77.1799 273.117 74.4299 270.727 72.0199M223.377 119.22C222.987 127.1 231.707 121.71 232.867 131.53C233.307 141.21 244.177 134.01 243.867 147.26C243.627 156.65 253.007 146.13 253.457 153.39C254.227 165.68 263.897 160.39 264.097 166.53C264.437 176.78 276.677 172.07 276.727 178.71C276.817 190.21 296.787 186.06 291.727 174.45C286.047 168.58 293.427 160.54 289.727 152.38C286.317 146 276.517 145.27 278.837 136.03C278.077 127.54 268.447 124.51 264.617 120.03C265.957 110.43 258.487 101.36 250.387 100.3C252.277 92.1399 249.977 80.2999 240.997 77.3599M182.797 86.7599C175.187 89.4799 175.307 99.3199 173.697 104.29C157.937 107.81 164.847 123.84 159.367 130.52C153.137 137.88 150.557 144.79 152.947 152.66C155.997 162.66 148.857 167.08 149.457 173.43C149.607 181.03 155.737 191.84 164.457 186.43C170.137 183.92 162.727 179.93 172.187 173.8C178.127 171.06 169.497 162.33 175.877 158.38C182.427 150.38 176.067 139.8 184.777 133.85M180.367 75.1799C171.457 75.8899 164.137 83.9599 163.117 90.1799C163.477 97.8999 152.257 98.2899 153.057 112.81C154.497 126.21 147.527 124.46 145.557 134.27C144.607 141.44 148.037 147.02 142.347 154.18C138.427 159.11 144.467 165.94 139.437 171.3C137.197 178.51 143.967 183.58 150.767 181.23M204.767 47.4599C197.597 47.4599 188.957 50.1099 186.767 57.7899C176.207 58.3199 175.477 71.2299 165.127 71.3499C156.627 75.8799 162.277 85.7699 153.897 92.4699C151.637 94.0799 152.897 102.95 154.527 104.07M238.527 40.3499C231.007 31.4799 217.527 40.1199 209.527 41.0699C203.287 42.2899 193.757 42.1499 191.457 50.1799M320.587 176.21C324.007 189.11 336.477 181.13 331.777 168.44C339.087 160.51 326.777 156.44 330.197 149.3C333.627 138.68 322.807 132.44 321.317 123.88C322.637 113.38 317.527 103.41 311.047 102.79C311.337 92.9099 300.927 87.3599 294.717 86.7899C291.397 72.2199 286.807 74.2399 281.627 71.7899C280.547 68.6499 275.437 61.7899 272.087 59.7299M222.647 98.9399C226.157 105.45 226.957 113.26 221.567 118.86C230.287 126.76 214.857 133.42 220.787 141.52C226.367 149.15 211.487 157.03 219.727 164.93C225.677 170.65 217.097 182.04 212.787 184.06C205.867 187.31 204.887 179.38 201.347 179.59C189.997 176.72 199.287 165.94 191.557 158.42C187.087 154.06 193.997 149.62 189.487 143.58C183.487 135.58 187.057 131.86 187.147 124.69C181.467 118.2 192.537 103.94 195.547 99.6899C186.897 82.3199 202.197 84.0599 200.827 74.6899C201.587 69.2199 207.827 60.8799 213.227 64.6899C210.827 56.2099 221.887 47.1899 227.227 50.8299C228.327 45.9799 233.377 35.6499 238.907 41.1799C244.167 32.7999 250.577 37.7799 253.987 36.5799C264.437 29.8999 265.877 40.9299 279.987 37.6699C287.347 36.5899 286.257 38.3799 290.127 40.6699" stroke="#999999" stroke-width="3" stroke-linecap="round" stroke-linejoin="round"/>
</g>
</g>
</g>
</g>
</svg>
