<svg width="512" height="512" viewBox="0 0 512 512" fill="none" xmlns="http://www.w3.org/2000/svg">
<g id="Frame">
<g id="Rectangle">
<path id="Vector" d="M509.5 2.5H2.5V509.5H509.5V2.5Z" stroke="white" stroke-width="5" stroke-miterlimit="10"/>
</g>
<g id="Hair">
<g id="layer1">
<g id="g154583">
<path id="abColor_3" d="M350 173.56L345.73 162.21L346.84 144.3L342.45 135.72C341.52 125.46 341.77 113.07 336.96 109.81C335.96 95.8102 332.78 89.3402 328.25 87.5002C327.74 67.7602 323.65 68.7102 320.35 62.4202C317.25 70.7702 313.53 91.0202 311.59 100.89C310.31 92.7602 303.81 89.1102 296.24 86.6202C285.9 74.1702 272.06 61.1502 273.4 59.0002C278.98 49.8402 284.66 48.8602 291.13 41.1902C286.5 39.7802 280.72 36.1902 278.54 39.5102L261.36 34.1602L254.68 36.0002L238.76 38.8402L224.92 36.3402L195.65 44.5502L192.94 49.8502L187.26 55.8502C171.9 61.8502 180.06 68.1302 168.19 69.5902C168.19 69.5902 161.19 75.1402 159.95 81.9202C158.946 86.4397 156.936 90.6747 154.07 94.3102L155.8 100.31C155.8 100.31 155.94 112.94 153.33 118.53C150.72 124.12 145.74 136.34 145.74 136.34C145.63 141.56 147.92 145.73 143.74 152.74C143.17 158.74 144.74 164.74 140.29 170.74C140.23 180.93 144.88 182.4 151.45 180.34C154.33 191.01 160.15 186.97 166.21 186.62C168.93 184.28 166.57 175.54 169.87 175.09C177.57 174.09 174.64 161.73 174.23 161.6C174.23 161.6 175.98 159.12 179.11 151.49C182.24 143.86 179.17 136 181.73 134.19C184.29 132.38 187.37 120.85 187.37 120.85C187.37 120.85 192 118.42 189.07 127.55C186.14 136.68 191.65 146.24 191.65 146.24C191.65 146.24 192.14 158.17 194.2 161.05C196.26 163.93 194.95 177.87 200.67 179.44C207.46 181.32 214.96 188.61 213.8 183.62C214.8 183.81 224.53 171.62 221.13 164.97C219.45 161.68 216.01 162.58 219.87 153.62C224.09 143.84 220.72 144.18 220.21 137.97C219.7 131.76 226 124.27 226 124.27L223.8 118.09L226.36 110.97C226.36 110.97 228.01 113.48 229.55 119.97C231.09 126.46 241.47 130.69 242.26 132.1C243.05 133.51 240.26 138.76 244.26 142.51L254.94 152.63C253.08 153.97 258.84 161 264.35 163.81C264.74 170.35 276.58 176.74 276.58 176.74C280.51 182.26 280.95 188.35 290.84 182.6C298.84 177.95 289.31 171.93 290.3 170.66L291.51 163.66C291.51 163.66 300.51 166.77 302.96 174.54C305.41 182.31 313.31 184.54 317.41 180.54C321.51 176.54 322.19 181.18 322.19 181.18C322.19 181.18 325.19 186.06 329.83 182.64C334.47 179.22 335.35 176.64 335.35 176.64C335.35 176.64 338.65 185.64 350.82 174.57" fill="white"/>
<path id="path85115" d="M312.4 95.6602C312.51 95.6602 311.72 97.7602 311.78 97.7402C310.78 100.47 310.65 101.36 312.34 102.74C323.9 112.08 319.61 115.13 323.28 125.96C325.02 131.09 329.04 135.89 331.16 140.89C332.69 145.42 327.55 152.8 334.79 161.47C334.79 164.11 329.87 175.78 338.44 177.82C349.1 180.36 334.44 157.21 334.98 151.7C335.44 147.19 333.93 138.88 331.98 134.28C328.89 127.28 325.31 124.64 325.98 115.53C325.66 110.96 322.79 103.03 316.84 100.12C315.94 95.8602 317.26 93.5202 313.43 90.8602L312.4 95.6602ZM296.78 86.2802C282.78 68.3602 275.41 62.2802 274.2 57.7302L270.69 56.4302C265.94 60.3202 273.27 72.6902 280.12 88.4302C281.27 91.0702 288.48 92.9002 289.22 93.8402C286.91 99.9702 290.62 107.02 294.29 109.24C298.52 109.41 306.2 118.99 307.82 118.24C306.91 110.84 293.69 107.73 295.47 96.9502C296.54 92.1102 302.61 93.3502 309.09 97.3302C310.09 89.0802 302.24 88.7702 296.78 86.3302V86.2802ZM170.07 68.8802C167.993 70.3266 165.814 71.62 163.55 72.7502C160.89 73.9302 159.3 84.6702 157.5 89.2702C155.7 93.8702 152.77 94.5602 152.77 94.5602L154.88 105.11C154.88 105.11 153.95 118.39 150.27 124.78C146.59 131.17 147.57 141.13 147.74 144.51C147.91 147.89 145.25 150.51 142.74 155.12C140.23 159.73 142.04 167.58 142.04 167.58C142.04 167.58 140.3 170.49 140.86 176.9C141.42 183.31 152.17 181.74 152.17 181.74C147.79 181.98 155.58 158.27 155.47 159.98C155.36 161.69 149.41 142.59 162.12 129.33C162.42 124.48 167.12 102.74 174.43 105.33C177.09 97.9802 178.84 88.4302 184.13 87.4802L178.62 87.9902C171.62 81.3102 181.19 78.7202 184.18 74.1102C169.74 76.0002 180.71 63.0502 187 59.6902C189.11 58.2402 179.77 62.2602 179.77 62.2602C179.13 58.7702 171.33 70.5902 170.07 68.8802ZM234.54 36.7402C233.325 36.7874 232.127 37.0306 230.99 37.4602C225.99 40.7202 225.16 46.8802 218.63 47.9602C211.95 50.9602 211.47 61.0902 203.7 63.0202C197.53 69.4302 201.44 72.7202 196.49 77.2002C194.55 81.4802 193.66 81.9902 190.88 86.0102C188.74 89.8902 190.3 96.3602 190.88 100.15C188.95 105.86 184.7 108.78 184.99 115.23C184.6 128.8 178.99 129.33 177.07 134.41C175.46 139.04 175.07 139.33 175.87 144.47C176.53 148.97 174.47 154.86 170.61 156.91C167.23 163.74 172.76 169.47 168.07 176.28C166.8 182.89 175.9 173.45 174.74 170.94C173.15 165 176.37 158.94 178.93 154.14C180.81 151.33 184.86 131.52 187.48 131.35L189.8 126.75C193.3 123.81 194.02 110.57 195.66 106.61C198.73 101.69 196.66 99.6102 195.15 93.8602C194.57 87.2702 203.15 78.9902 202.91 72.4202C202.91 66.9202 208.8 63.1702 213.91 64.5102C216.25 60.4202 214.48 53.8402 220.02 51.5902C224.95 50.5902 231.1 50.9902 232.09 44.4602C232.39 41.5802 241.33 37.4002 234.62 36.7402H234.54ZM250.27 81.2502C250.16 81.2502 250.1 81.2502 250.08 81.2502C251.4 84.7202 252.08 97.4302 252 100.14C264.78 106.59 263.71 108.69 266.51 119.82C268.14 125.48 277.61 129.15 278.04 130.43C279.04 134.3 279.25 140.13 281.24 143.65C296.31 153.8 287.86 155.37 291.92 162.24C301 165.53 301.64 173.24 305.1 179.24C306.97 182.24 312.37 184.74 315.33 181.41C305.44 178.56 308.14 170.07 304.22 164.79C294.79 159.53 294.9 157.35 291.87 146.39C290.87 142.67 284.22 147.17 280.69 132.16C280.16 129.91 276.03 121.7 270.37 118.76C266.29 116.65 272.76 110.21 264.24 102.88C261.1 100.19 258.54 100.19 256.7 93.5002C253.89 83.3102 251.03 81.4202 250.27 81.2202V81.2502ZM227.81 107.92C225.17 115.38 222.49 119.13 224.96 125.08C228.26 128.81 233.96 126.79 234.1 133.24L244.15 144C246.84 157.87 252.02 146.48 253.97 153.23C256.9 163.4 260.77 166.23 265.24 164.29C265.75 174.29 271.24 173.38 277.33 176.65C278.87 182.65 280.33 189.35 288.53 182.32C280.03 182.95 282.67 174.05 279.78 173.49C273.91 169.92 267.17 167.64 266.56 162.35C266.56 162.35 256.96 157.52 256.74 149.48C256.54 141.74 250.96 154.26 248.74 141.25C247.28 132.61 242.34 133.7 239.43 129.9C236.52 126.1 239.31 124.9 227.77 107.9L227.81 107.92ZM193.46 109.92C188.85 115.21 193.76 114.92 188.53 128.54C187.53 131.03 187.39 138.69 190.37 143.54C192.87 147.59 191.2 150.13 191.46 154.59C191.67 158.07 194.6 159.97 195.52 163.05C198.52 173.05 190.52 175.05 202.52 179.37C205.08 180.3 211.32 184.88 212.52 183.24C207.17 180.98 208.21 176.31 206.42 175.72C197.97 172.91 202.63 164.62 198.42 160.37C192.22 154.18 199 148.45 195.14 141.22C191.28 133.99 201 124 193.46 109.91V109.92ZM311 126.05C309.59 126.13 309.63 133.26 309.72 134.38C310.21 139.1 313.07 140.68 315.82 144.29C318.25 147.43 318.2 150.15 317.91 154.09C317.782 158.208 318.755 162.285 320.73 165.9C322.97 170.72 321.44 177 325.65 180.9C326.65 182.12 328.44 181.61 329.3 180.49C324.89 177.61 324.3 175.49 325.14 170.07C326.35 162.63 318.33 163.76 321.78 150.82C323.84 143.09 311.96 138.45 311.48 126.24C311.35 126.117 311.178 126.049 311 126.05Z" fill="#CCCCCC"/>
<path id="path2845" d="M223.63 99.1001C227.14 105.61 227.94 113.42 222.55 119.02C231.27 126.92 215.84 133.58 221.77 141.68C227.35 149.31 212.47 157.19 220.71 165.09C226.66 170.81 218.08 182.2 213.77 184.22C206.85 187.47 205.87 179.54 202.33 179.75C190.98 176.88 200.27 166.1 192.54 158.58C188.07 154.22 194.98 149.78 190.47 143.74C184.47 135.74 188.04 132.02 188.13 124.85C182.45 118.36 193.52 104.1 196.53 99.8501C187.88 82.4801 203.18 84.2201 201.81 74.8501C202.57 69.3801 208.81 61.0401 214.21 64.8501C211.81 56.3701 222.87 47.3501 228.21 50.9901C229.31 46.1401 234.36 35.8101 239.89 41.3401C245.15 32.9601 251.56 37.9401 254.97 36.7401C265.42 30.0601 266.86 41.0901 280.97 37.8301C288.33 36.7501 287.24 38.5401 291.11 40.8301M333.78 176.08C341.57 184.76 354.48 177.83 347.05 166.51C341.43 158.77 351.48 145.09 343.2 137.62C338.64 128.4 344.68 117.38 335.9 109.1C336.06 97.9401 335.9 91.6501 327.61 85.9901C328.54 76.7801 326.29 67.2601 321.02 63.1401L333.78 176.08ZM291.27 163.27C298.7 165.17 302.98 168.44 303.86 176.86C307.47 189.74 324.01 183.57 321.33 169.13C319.65 161.31 315.42 165.04 317.97 153.03C320.04 143.31 307.97 141.55 309.54 132.7C310.39 128.03 308.05 115.45 298.65 110.76C294.24 110.53 290.14 108.69 289.13 99.7601C289.41 89.7601 277.47 96.6801 277.22 80.7601C276.52 77.3401 274.1 74.5901 271.71 72.1801L291.27 163.27ZM224.36 119.38C223.97 127.26 232.69 121.87 233.85 131.69C234.29 141.37 245.16 134.17 244.85 147.42C244.61 156.81 253.99 146.29 254.44 153.55C255.21 165.84 264.88 160.55 265.08 166.69C265.42 176.94 277.66 172.23 277.71 178.87C277.8 190.37 297.77 186.22 292.71 174.61C287.03 168.74 294.41 160.7 290.71 152.54C287.3 146.16 277.5 145.43 279.82 136.19C279.06 127.7 269.43 124.67 265.6 120.19C266.94 110.59 259.47 101.52 251.37 100.46C253.26 92.3001 250.96 80.4601 241.98 77.5201L224.36 119.38ZM183.78 86.9201C176.17 89.6401 176.29 99.4801 174.68 104.45C158.92 107.97 165.83 124 160.35 130.68C154.12 138.04 151.54 144.95 153.93 152.82C156.98 162.82 149.84 167.24 150.44 173.59C150.59 181.19 156.72 192 165.44 186.59C171.12 184.08 163.71 180.09 173.17 173.96C179.11 171.22 170.48 162.49 176.86 158.54C183.41 150.54 177.05 139.96 185.76 134.01L183.78 86.9201ZM181.35 75.3401C172.44 76.0501 165.12 84.1201 164.1 90.3401C164.46 98.0601 153.24 98.4501 154.04 112.97C155.48 126.37 148.51 124.62 146.54 134.43C145.59 141.6 149.02 147.18 143.33 154.34C139.41 159.27 145.45 166.1 140.42 171.46C138.18 178.67 144.95 183.74 151.75 181.39L181.35 75.3401ZM205.75 47.6201C198.58 47.6201 189.94 50.2701 187.75 57.9501C177.19 58.4801 176.46 71.3901 166.11 71.5101C157.61 76.0401 163.26 85.9301 154.88 92.6301C152.62 94.2401 153.88 103.11 155.51 104.23L205.75 47.6201ZM239.51 40.5101C231.99 31.6401 218.51 40.2801 210.51 41.2301C204.27 42.4501 194.74 42.3101 192.44 50.3401L239.51 40.5101ZM321.57 176.37C324.99 189.27 337.46 181.29 332.76 168.6C340.07 160.67 327.76 156.6 331.18 149.46C334.61 138.84 323.79 132.6 322.3 124.04C323.62 113.54 318.51 103.57 312.03 102.95C312.32 93.0701 301.91 87.5201 295.7 86.9501C292.38 72.3801 287.79 74.4001 282.61 71.9501C281.53 68.8101 276.42 61.9501 273.07 59.8901L321.57 176.37Z" stroke="#999999" stroke-width="3" stroke-linecap="round" stroke-linejoin="round"/>
</g>
</g>
</g>
</g>
</svg>
