<svg width="512" height="512" viewBox="0 0 512 512" fill="none" xmlns="http://www.w3.org/2000/svg">
<g id="Hair4">
<g id="Rectangle">
<path id="Vector" d="M509.5 2.5H2.5V509.5H509.5V2.5Z" stroke="white" stroke-width="5" stroke-miterlimit="10"/>
</g>
<g id="Hair">
<g id="layer1">
<g id="g39595">
<path id="abColor_3" d="M205.75 11.9999C194.69 10.3699 191.13 14.8999 182.37 17.5399C167.37 15.5399 162.93 25.9799 161.65 32.4399C148.17 35.1299 149.95 39.0499 150.51 50.3799C142.08 56.2599 141.44 60.6699 146.25 69.3799C133.86 80.8399 137.98 84.8099 147.55 91.6399C137.4 105.37 145.75 115.72 158.55 111.4C146.28 120.49 161.65 129.4 173.55 124.61C176.84 125.61 181.96 130.24 185.49 129.74C199.64 137.35 207.29 139.23 217.23 129.93C226.12 135.22 231.39 131.63 239.61 130.55C250.61 134.8 258.72 124.93 268.16 123.46C276.67 132.63 286.44 131.36 294.22 132.23C295.66 134.56 303.34 135.17 304.38 135.84C304.84 136.16 308.84 141.42 311.03 143.24C311.59 146.98 312.26 153.36 319.03 154.41C334.71 147.07 334.54 139.31 334.75 134.84C350.63 131.64 350.3 125.51 342.42 116.25C358.87 111.37 349.68 103.91 347.16 95.8299C363.59 88.1199 353.16 77.5999 350.16 70.3699C359.85 55.9399 332.95 39.1699 334.72 39.4999C341.2 21.0599 315.79 11.7499 305.62 13.5599C290.19 -5.91012 274.49 7.07988 267.23 8.71988C239.78 -1.20012 242.41 8.62988 232.56 9.64988C229.06 9.64988 206.12 5.84988 205.82 11.9599L205.75 11.9999Z" fill="white"/>
<path id="Grey" d="M153.74 50.8896C153.74 50.8896 153.59 50.8897 153.39 51.0797C141.18 50.0097 140.46 62.7197 144.47 67.8297C141.97 73.2397 138.23 79.6297 139.7 84.4697C150.35 92.3097 143.5 92.9296 143.7 104.78C144.23 113.78 155.51 109.78 156.18 110.98C156.7 111.98 152.18 119.13 158.11 123.05C161.33 125.2 171.19 124.54 172.8 125.77C176.74 129.77 182.92 127.38 185.96 128.62C196.56 135.52 204.42 137.18 214.48 132.34C216.33 131.44 217.32 130.34 216.34 128.05C215.917 127.032 215.391 126.06 214.77 125.15C222.77 131.58 228.11 136.03 240.38 129.02C245.46 128.47 252.26 133.12 259.56 128.49C262.56 127.3 266.42 121.16 270.33 117.96C261.63 130.81 288.07 131.24 294.73 131.77C297.629 133.818 300.911 135.26 304.38 136.01C310.05 142.95 311.77 154.09 320.52 152.35C334.68 150.01 331.65 136.56 334.72 135.51C345.54 131.8 347.25 126.63 346.15 123.96C343.63 128.96 335.75 132.84 332.61 127.96C331.31 125.96 319.03 136.73 318.11 131.59C317.19 126.45 327.34 122.11 318.48 126.24C298.34 136.53 302.87 119.63 296.48 123.33C283.67 122.98 284.76 112.68 286.54 110.33C291.68 103.55 285.45 102.92 289.14 97.6597C294.82 89.5497 290.42 87.2496 289.2 80.9596C289.2 80.9596 289.36 88.6296 287.94 93.2696C286.52 97.9096 281.26 97.7496 281.26 97.7496C283.9 109.09 273.26 125.75 282.33 110.3C274.66 115.24 267.26 107.95 264.45 114.2C257.5 129.62 246.13 118.76 239.39 121.8C224.1 128.71 221.24 117.16 213.83 118.56C201.24 120.96 204.29 104.97 201.21 108.82C198.13 112.67 202.52 124.57 212.67 124.13C208.54 125.37 207.35 124.47 202.19 121.71C193.25 131.48 187.81 119.89 184.8 120.13C171.97 121.13 179.66 106.71 174.49 107.74C169.17 108.81 162.63 99.0796 166.93 93.2096C168.43 91.2096 159.64 101.35 158.93 101.77C152.15 109.93 148.4 101.86 148.45 95.6796C148.45 94.5696 149.86 92.2297 149.45 91.1197C143.14 85.1997 141.53 77.9897 148.55 68.7597C143.26 60.2497 154.06 50.9796 153.69 50.9296L153.74 50.8896Z" fill="#CCCCCC"/>
<path id="abColor_4" d="M306.37 14.9997C311.87 15.7697 324.55 24.8997 320.51 35.4897C326.19 36.6197 329.77 49.0497 325.61 55.5797M268.72 123.51C274.84 132.05 290.65 133.38 294.21 131.74C303.27 140.07 315.64 135.14 321.56 126.39M305.06 137.34C304.47 142 316.84 146.67 324.44 140.14M200.28 114.4C199.56 117.72 204.8 125.7 213.97 124.61C219.7 135.49 233.41 134.61 240.3 129.13C255.85 134.55 269.08 123.87 270.05 116.32C284.97 117.38 284.69 106.54 279.35 98.4097C290.58 97.4097 291.53 86.1097 286.66 79.7897M217.66 130.68C205.04 139.21 192.4 136.33 186.52 129.14C172.18 130.64 171.63 119.23 172.8 112.07C158.85 107.6 158.3 98.5597 165.88 93.0697M174.79 48.4097C174.92 39.1797 178.71 32.9197 187.25 30.5397C189.72 21.9597 194.77 19.1197 201.09 19.1097C208.41 3.23968 226.15 7.40968 232.69 10.2597C244.51 0.159678 263.48 5.56968 266.97 9.25968C277.97 1.82968 300.29 2.48968 305.49 14.4297C325.94 14.1297 341.69 27.7197 334.39 39.8597C339.26 42.7497 357.55 53.2997 348.84 71.3397C355.24 76.0497 357.2 81.5297 356.26 86.1797C355.32 90.8297 351.26 94.8897 345.79 96.2497C350.79 101.72 358.32 114.25 342.58 116.06C355.15 129.06 339.87 137.06 333.96 134.68C334.18 144.59 327.69 152.22 318.22 154.22M173.41 125C164.66 128.24 145.41 122.16 158.41 112.14C149.41 113.84 136.33 109.38 148.22 92.0297C141.22 89.0897 130.28 79.5097 147.68 68.2597C147.09 71.2597 132.68 58.7897 150.97 50.5397C149.52 40.6097 150.18 33.6397 161.02 33.2597C160.41 22.7297 174.56 17.1797 182.7 18.8797C188.86 9.67968 201.24 9.42968 205.43 12.3597" stroke="#999999" stroke-width="3" stroke-linecap="round" stroke-linejoin="round"/>
</g>
</g>
</g>
</g>
</svg>
