<svg width="512" height="512" viewBox="0 0 512 512" fill="none" xmlns="http://www.w3.org/2000/svg">
<g id="Hair7">
<g id="Rectangle">
<path id="Vector" d="M509.5 2.5H2.5V509.5H509.5V2.5Z" stroke="white" stroke-width="5" stroke-miterlimit="10"/>
</g>
<g id="Hair">
<g id="layer1">
<g id="g165544">
<path id="abColor_3" d="M202 47.4898L180.88 60.3598C175.41 57.8098 166.47 92.0898 169.36 93.9198C170.36 122.37 158.13 121.72 147.15 123.8C150.69 129.71 155.57 134.41 169.64 130.8C172.15 132.8 156.05 144.46 152.38 142.16C155.93 145.77 178.08 143.31 178.08 143.31L172.28 149.65C215.78 154.98 220.59 107.01 218.21 114.11C225.45 134.55 271.51 157.11 288.82 148.76L288.26 140.08C286.54 144.15 301.56 153.33 313.84 146.95C302.16 143.52 296.04 126.43 299.11 126.45C310.22 136.24 320.84 148.82 337.67 135.45L323.33 127.86C330.96 125.77 347.54 130.29 347.22 121.41C342.56 122.6 320.34 120.01 327.22 98.0998C328.99 85.7498 321.89 78.3798 317.94 67.6098C317.94 67.6098 313.11 100.61 312.45 97.0298C311.79 93.4498 300.52 77.3098 298.8 74.6898L285.06 59.7698C284.06 61.4398 277.27 57.7698 277.56 55.5798C277.93 52.8498 288.44 44.1098 288.44 44.1098C273.96 36.7298 235.82 41.1098 227.34 48.5298C218.64 47.9698 208.99 44.1698 202 47.5298V47.4898Z" fill="white"/>
<path id="Grey" d="M279.17 57.4697L297.11 76.2397C302.39 83.0497 308.31 89.2397 312.11 97.0097L320.11 124.94C320.11 124.94 320.92 125.48 327.01 126.38C331.156 126.834 335.351 126.457 339.35 125.27C339.35 125.47 322.09 122.27 319.68 113.27C318.25 107.91 314.37 88.2697 314.68 87.0297L312.8 96.3897C310.04 92.3897 306.16 84.1997 300.73 77.5097L279.17 57.4697ZM213.85 60.7397C210.2 63.9197 203.6 84.7397 208.64 102.4C216.64 130.4 195.36 142.26 182.64 149.76C180.71 152.51 208.79 143.9 215.11 125.63C220 111.77 213.34 100.85 212 99.9997L213.85 60.7397ZM243.48 80.3797C258.23 90.3797 281.27 127.54 287.42 139.01L288.04 145.45C289.81 150.66 300.72 152.6 310.95 150.07C309.332 149.943 307.723 149.722 306.13 149.41C309.72 148.69 312.13 147.09 311.92 146.88C295.65 148.2 281.41 116.88 280.72 115.64C269 93.9997 243.48 80.3797 243.48 80.3797V80.3797ZM170.72 80.9997C167.57 103.84 176.92 119 148.25 125.46C150.39 127.63 152.986 129.297 155.85 130.34C161.06 132.44 170.02 127.52 170.02 127.52L178.02 85.6497C174.73 89.3097 171.76 90.8997 170.72 80.9997ZM189.83 88.9997C179.92 99.3897 182.5 112.83 183.03 119.08C185.03 142.42 166.36 140.44 162.94 144.71C161.86 145.84 191.94 143.93 188.65 128.62C185.9 115.64 189.54 89.9997 189.83 88.9397V88.9997ZM292.57 95.2197L297.93 123.65C297.93 123.65 297.84 126.8 311.93 136.75C326.02 146.7 335.75 136.68 335.75 136.68C335.75 136.68 320.67 145.15 305.95 126.05C299.46 117.59 301 108.45 292.57 95.1597V95.2197ZM299.11 128.42C300.88 133.85 302.73 139.15 306.47 141.36C312.72 144.54 318.59 147.02 324.95 142.61C313.54 140.77 304.18 135.51 299.11 128.36V128.42Z" fill="#CCCCCC"/>
<path id="abColor_3_2" d="M216.62 111.319C221.52 147.389 174.85 154.049 170.36 150.209C185.73 137.629 191.07 138.519 186.76 117.619C185.625 112.498 185.55 107.199 186.541 102.048C187.531 96.8975 189.566 92.004 192.52 87.6695M215.34 59.9995C186.34 56.9195 174.49 81.4495 172.24 122.709C171.13 142.999 150 141.109 151.77 142.299C167.15 148.679 180.85 144.649 188.06 132.039M170.37 129.499C164.6 131.599 153.37 135.889 146.97 124.669C145.63 122.299 169.78 126.809 169.29 106.609C168.55 76.5295 169.63 63.6095 194.7 50.6095C201.39 47.1595 214.2 43.2295 228.02 47.0995M288.02 148.099C279.63 109.169 246.26 79.8095 227.17 73.8895M256.27 63.1095C273.84 70.5695 294.65 85.2995 298.51 124.949C298.63 145.219 317.09 145.949 315.29 147.119C294.96 155.559 286.01 138.119 277.22 119.329M322.51 125.999C327.51 127.189 339.25 130.509 347.88 121.999C349.82 120.089 327.24 125.449 327.24 105.249C327.24 89.2495 323.78 76.9095 317.77 67.4595M289.31 45.2095C275.61 39.1095 242.02 37.7795 226.38 48.9295M298.72 124.929C301.5 131.099 322.62 150.989 337.57 136.089C341.25 132.419 319.06 134.649 316.1 115.339C307.71 76.3995 284.1 57.6695 265.01 51.7495M226.53 48.9995C212.83 56.7495 211.37 74.6295 211.46 79.2595C207.22 119.349 247.35 155.959 287.56 149.259C273.01 142.119 256.62 138.699 248.11 118.549" stroke="#999999" stroke-width="3" stroke-linecap="round" stroke-linejoin="round"/>
</g>
</g>
</g>
</g>
</svg>
