<svg width="512" height="512" viewBox="0 0 512 512" fill="none" xmlns="http://www.w3.org/2000/svg">
<g id="Frame">
<g id="Rectangle">
<path id="Vector" d="M509.5 2.5H2.5V509.5H509.5V2.5Z" stroke="white" stroke-width="5" stroke-miterlimit="10"/>
</g>
<g id="Hair">
<g id="layer1">
<g id="g15053">
<path id="abColor_1" d="M203.84 51C201.6 52.41 200.58 56.32 198.75 57.31C190.37 61.83 185.19 57.37 182.23 69.84C182.23 69.84 172.51 77.45 176.48 83.43C174.14 87.43 169.26 91.43 174.19 100.01C173.629 102.052 173.659 104.211 174.277 106.236C174.895 108.261 176.075 110.069 177.68 111.45C177.68 111.45 176.86 119.45 180.41 123.05C183.96 126.65 185.91 127.05 185.91 127.05C185.91 127.05 182.91 139.44 191.74 142.2C200.06 144.77 204.36 140.75 204.36 140.75L215.2 133.63C223.12 136.96 228.68 143.01 236.29 134.48C236.29 134.48 240.64 139.83 250.47 136.86C260.3 133.89 264 129.21 264 129.21C264 129.21 265.46 134.89 275.19 132.55C284.92 130.21 287.29 127.28 287.29 127.28L321.39 130.89C327.32 116.31 322.77 117.08 322.45 109.89C322.45 109.89 327.09 94.26 325.75 90.11C324.41 85.96 324.41 75.44 321.75 72.23C320.401 70.5187 318.884 68.9475 317.22 67.54C317.79 67.54 312.06 97.68 312.76 98.86C311.44 93.49 305.76 94.15 304.29 90.46C300.22 79.9 289.84 77.51 286.85 73.72C282.3 67.96 281.29 63.52 274.99 58.59C275.62 55.32 288.08 41.59 287.84 45.59C286.91 43.38 277.37 41.49 274.68 44.87C272.47 47.63 263.68 41.48 263.68 41.48L251.01 44.14C242.44 42.92 234.2 40.25 223.01 50.36C216.59 48.72 210.17 47.56 203.78 50.93L203.84 51Z" fill="white"/>
<path id="path621552" d="M213.88 48.2401C212.223 48.2221 210.574 48.4789 209 49.0001C204.44 50.0001 202.46 54.3601 199.47 57.1101C195.4 58.4201 190.74 58.8401 187.71 62.2401C184.14 64.4101 184.63 69.3701 181.62 71.5301C179.856 72.0598 178.323 73.1717 177.271 74.6845C176.22 76.1972 175.712 78.0216 175.83 79.8601C177.63 84.5101 172.32 87.1301 172.06 91.5801C170.54 95.3501 172.91 98.6501 173.65 102.18C173.89 105.73 168.76 111.72 171.75 113.93C173.03 118.86 170.75 122.82 174.75 126.49C172.12 131.09 185.06 124.7 185.94 128C182.33 137.33 189.63 144 195.34 142.4C200.105 142.289 204.71 140.656 208.48 137.74C204.923 138.62 201.229 138.81 197.6 138.3C192.92 137.99 189.07 133.3 190.47 128.62C193.1 124.71 184.47 112.62 189.38 104.09C185.59 97.1501 186.02 86.1701 192.53 80.0901C195.86 74.8001 198.93 66.3601 205.53 64.9301C207.94 57.7801 215.53 53.8501 222.53 52.6801C222.665 52.4778 222.755 52.2486 222.792 52.0083C222.83 51.768 222.815 51.5224 222.748 51.2885C222.682 51.0546 222.565 50.8379 222.407 50.6535C222.248 50.469 222.051 50.3212 221.83 50.2201C219.354 48.9941 216.642 48.3186 213.88 48.2401V48.2401Z" fill="#CCCCCC"/>
<path id="path4115" d="M177.27 82.8901C173.2 89.0001 171.05 95.1801 174.49 101.28C172.35 103.38 169.61 110.02 170.07 112.96C170.69 116.89 173.74 117.9 174.15 121.56C175.33 121.35 173.66 124.11 172.45 127.87M323.35 105.26C320.98 114.14 325.26 115.53 324.44 121.13C324.09 123.5 321.32 127.74 321.5 129.94L323.35 105.26ZM197.87 62.2501C189.08 65.6501 189.43 73.6801 190.21 78.9301C181.98 85.2201 180.33 97.5701 186.49 105.29C181.72 114.19 185.65 118.7 187.3 124.67L197.87 62.2501ZM317.78 68.7801C324.59 73.7801 324.24 79.3101 324.14 86.7801C325.93 92.5801 328.08 94.8501 323.5 105.56L317.78 68.7801ZM286.75 46.4401C283.9 40.4901 276.54 43.2201 274.07 46.2001C270.25 44.2001 261.8 38.2001 251.33 44.4801C250.12 41.5901 231.97 40.4801 222.24 50.6901C207.55 44.6901 198.24 56.2901 199.8 58.1501C193.8 56.9201 184.74 61.6801 183.01 69.6201C184.01 68.5501 171.41 75.4301 176.71 83.2601C174.487 85.3718 173.031 88.1636 172.571 91.1948C172.111 94.226 172.674 97.3241 174.17 100L286.75 46.4401ZM270.45 57.0001C273.34 59.7201 272.35 58.7201 279.33 62.4001C282.4 64.0101 284.41 70.1201 285.33 73.1401C286.86 76.4401 290.6 76.4901 293.23 78.7301C295.34 79.7901 302.68 86.8601 303.59 91.9401C312.46 97.7901 311.52 97.4901 314.12 105.09L270.45 57.0001ZM283.19 128.39C282.19 131.17 268.81 136.96 264.29 129.63C261.41 131.73 249.91 142.44 235.77 134.28C231.14 140.88 221.39 138.42 216.03 132.68C197.95 151.18 179.22 141.54 186.14 126.99C182.81 126.31 176.55 119.9 177.81 111.06C174.03 109.54 174.45 104.52 174.45 100.63L283.19 128.39Z" stroke="#999999" stroke-width="3" stroke-linecap="round" stroke-linejoin="round"/>
</g>
</g>
</g>
</g>
</svg>
