<svg width="512" height="512" viewBox="0 0 512 512" fill="none" xmlns="http://www.w3.org/2000/svg">
<g id="Hair2">
<g id="Rectangle">
<path id="Vector" d="M509.5 2.5H2.5V509.5H509.5V2.5Z" stroke="white" stroke-width="5" stroke-miterlimit="10"/>
</g>
<g id="Hair">
<g id="layer1">
<g id="g473477">
<path id="abColor_3" d="M150.91 58.3599L147.91 67.6499C146.11 74.9799 135.81 52.9299 135.81 52.9299C127.81 130.3 178.81 158.53 240.26 133.26C249.35 139.79 267.47 131.74 267.57 130.41C267.57 130.41 270 135.67 279.66 133.34C289.32 131.01 290.77 128.34 290.77 128.34L331.47 134C321.41 119.35 331.56 113.05 333.1 105C338.54 76.6299 322.38 73.7899 316.64 69.8299C316.4 70.1899 311.24 94.8299 312.21 101.83C308.3 93.4099 291 85.5399 289.9 78.5999C289.12 73.4899 274.32 56.3099 274.11 60.0499C274.84 53.0499 288.11 45.8999 286.76 44.2299C280.38 36.4399 274.31 30.8799 253.98 27.8199C205.69 20.5499 188.25 104.09 150.91 58.3599V58.3599Z" fill="white"/>
<path id="Grey" d="M136.57 55.2896C135.74 54.7796 138.85 119.29 181.92 130.13C213.92 138.19 253.06 119.51 253.06 119.51C253.06 119.51 243.85 124.81 250.22 128.4C256.59 131.99 269.39 125 269.39 125C274.17 128.92 280.9 129.14 290.83 124.66C293.71 128.56 304.17 129.88 312.05 124.32C317.05 129.95 322.18 133.17 329.97 133.91C321.97 139.34 310.16 136.28 305.91 130.42C298.64 132.16 295.11 132.79 290.25 128.93C282.34 131.35 274.25 135.01 267.33 130.6C255.42 135.09 246.53 136.19 241.33 133.17C178.48 158.8 129.31 130.93 136.57 55.2896Z" fill="#CCCCCC"/>
<path id="abColor_4" d="M288.69 45.1798C230.69 -9.49017 199.33 78.1798 169.56 73.1198M269.16 58.2298C284.08 64.2898 283.16 71.9598 291.72 80.4798C301.78 87.7898 310.13 97.4798 313.85 108.3M289.6 128.11C288.6 130.87 272.08 137.4 267.6 130.11C265.1 131.31 253.6 139.61 239 132.89C225.221 140.304 209.599 143.595 194 142.37C131.05 137.48 132 68.2798 135.52 53.0298C136.61 48.3998 141.79 62.7998 147.18 68.3998C149.77 71.1098 147.85 57.7798 150.52 56.0698C168.68 84.9998 208 81.6298 215.79 66.8698M316.16 69.9998C340.16 73.6898 333.77 107.26 329.16 116.93C326.68 122.16 324.1 127.1 331.16 133.53C326.08 138.2 310.46 130.82 310.73 126.27M239.23 132.83C244.491 129.629 248.984 125.31 252.39 120.18L239.23 132.83Z" stroke="#999999" stroke-width="3" stroke-linecap="round" stroke-linejoin="round"/>
</g>
</g>
</g>
</g>
</svg>
