<svg width="512" height="512" viewBox="0 0 512 512" fill="none" xmlns="http://www.w3.org/2000/svg">
<g id="Frame">
<g id="Rectangle">
<path id="Vector" d="M509.5 2.5H2.5V509.5H509.5V2.5Z" stroke="white" stroke-width="5" stroke-miterlimit="10"/>
</g>
<g id="Body">
<g id="layer1">
<g id="g1218">
<g id="path1120-9">
<path id="abColor_1" d="M274.19 60.9098C278.94 85.9898 324.19 103.53 311.43 98.1598C308.82 94.9698 316.71 67.5698 316.71 67.5698C316.71 67.5698 320.21 55.9498 319.55 52.4298C318.89 48.9098 320.77 35.5398 319.07 32.9398C317.37 30.3398 315.51 21.5798 314.9 20.5098C314.29 19.4398 312.84 16.5898 310.2 17.9498C307.56 19.3098 305.78 22.0398 304.82 23.5898C303.86 25.1398 297.15 36.6598 295.75 38.3198C294.35 39.9798 287.62 45.8698 287.62 45.8698L274.19 60.9098ZM208.08 57.4498C205.08 52.4498 208.4 56.8198 204.36 51.1698C204.36 51.1698 197.76 45.3898 195.52 40.1698C193.28 34.9498 190.99 30.0398 186.94 31.0998C182.89 32.1598 182.13 33.5898 181.24 42.5198C180.35 51.4498 180.47 71.4498 180.47 71.4498C180.75 71.3898 177.88 71.5098 179.9 77.8298C189.39 71.0998 196.84 67.6398 208.08 57.4498ZM175.3 117.57C170.23 131.96 175.53 147.57 175.99 160.5C172.67 161.5 175.99 167.74 176.55 171.85C173.69 176.05 174.91 180.28 177.36 184.52C175.64 190.05 175.18 195.67 180.04 201.68C178.42 206.68 177.42 211.56 181.52 214.99C181.88 223.61 182.04 232.47 188.08 234.45C186.03 239.23 182.9 243.45 187.08 251.39C185.4 255.7 182.5 259.84 187.78 265.12C186.39 271.24 181.16 274.89 188.53 286.61L188.44 295.87C186.52 301.1 184.25 306.43 185.31 310.71L185.89 325.96C179.77 328.39 175.11 340.82 171.08 353.79C179.7 360.79 212.39 385.48 260.53 384.5C305.62 383.58 335.92 360.7 344.9 353.37C348.15 347.78 339.53 337.69 338.21 336.05C336.59 316.88 334.39 313.81 331.38 311.18C330.31 298.99 329.88 286.92 324.62 273.91C326.11 264.43 321.07 260.44 318.44 254.42C320.16 245.74 317.38 242.35 316.38 236.85L318.77 223.7C322.42 217.47 321.71 210.7 318.29 203.63C325.34 197.28 321.8 190.17 321.16 183.27C323.38 176.69 321.16 170.56 320.16 164.27C324.33 160.97 320.58 155.19 319.36 150.2C325.45 138.27 321.94 134.2 320.85 128.2C322.94 124.29 324.06 117.72 321.56 116.62L316.07 73.9998C293.07 61.9998 231.25 27.7598 183.8 74.8098C183.312 74.674 182.799 74.6501 182.3 74.7398C174.94 76.1898 175 105.62 175.3 117.57Z" fill="white"/>
<path id="Vector_2" d="M272.74 61.31C274.55 70.57 281.17 78.31 288.09 84.31C294.322 89.6522 301.127 94.2871 308.38 98.13C309.87 98.94 311.46 99.6 312.92 100.44L314.07 97.7C314.69 97.94 314.3 97.79 314.07 97.7L313 97.21C312.885 97.1481 312.765 97.0978 312.64 97.06C312.25 96.95 312.42 96.78 312.49 97.13C312.67 98.02 312.63 97.03 312.56 97.13C312.49 97.23 312.62 97.43 312.56 97.06C312.56 96.91 312.49 96.77 312.46 96.63C312.43 96.49 312.46 96.87 312.46 96.48C312.46 96.09 312.46 95.75 312.46 95.38C312.46 91 313.58 86.56 314.54 82.31C316 75.87 317.92 69.58 319.54 63.18C320.243 60.5528 320.761 57.8796 321.09 55.18C321.33 52.99 320.94 51.47 320.98 49.32C320.98 46.53 321.23 43.74 321.32 40.95C321.554 38.4626 321.437 35.9545 320.97 33.5C320.637 32.6329 320.228 31.7964 319.75 31C319.246 29.7735 318.815 28.5179 318.46 27.24C317.77 24.95 317.31 22.53 316.46 20.31C315.61 18.09 313.46 15.62 310.76 16.18C307.53 16.85 305.14 20.25 303.52 22.87C301.11 26.78 298.85 30.79 296.41 34.68C295.617 36.1048 294.624 37.4082 293.46 38.55C291.63 40.34 289.72 42.04 287.81 43.73L286.58 44.81C285.13 46.09 287.26 48.2 288.71 46.93C290.16 45.66 291.35 44.59 292.66 43.4C294.33 42.0349 295.864 40.5111 297.24 38.85C299.902 34.978 302.365 30.9728 304.62 26.85C305.558 25.1 306.635 23.428 307.84 21.85C308.61 20.93 310.45 18.7 311.84 19.08C312.68 19.32 313.25 20.5 313.62 21.21C313.62 21.3 313.54 20.95 313.62 21.34L313.77 21.79C313.95 22.35 314.1 22.91 314.26 23.47C314.62 24.78 314.98 26.09 315.36 27.39C315.74 28.69 316.2 30.19 316.74 31.54C316.96 32.09 317.19 32.64 317.46 33.16C317.55 33.33 317.66 33.49 317.75 33.65C317.93 33.97 317.75 33.65 317.87 33.89C318.62 35.97 318.3 38.62 318.23 40.78C318.14 43.58 317.93 46.37 317.88 49.17C317.88 51.26 318.21 52.83 318.03 54.8C317.724 57.3925 317.216 59.957 316.51 62.47C314.94 68.7 313.07 74.83 311.65 81.09C310.494 85.5134 309.738 90.0315 309.39 94.59C309.204 95.9924 309.412 97.4189 309.99 98.71C310.5 99.57 311.73 99.86 312.61 100.25C312.82 100.34 313.03 100.44 313.25 100.52C314.85 101.15 315.84 98.61 314.4 97.78C313.3 97.15 312.09 96.65 310.97 96.06C308.057 94.5267 305.21 92.88 302.43 91.12C294.88 86.36 287.56 80.74 282.02 73.67C278.872 69.8323 276.672 65.3066 275.6 60.46C275.23 58.57 272.34 59.37 272.71 61.26L272.74 61.31Z" fill="white"/>
<path id="Vector_3" d="M209.37 56.7001C208.98 56.0501 208.59 55.4001 208.24 54.7001C208.24 54.6301 208.02 54.1901 208.09 54.4101C208.16 54.6301 208.09 54.3301 208.09 54.2801C207.952 53.8177 207.75 53.3768 207.49 52.9701C206.865 51.9004 206.134 50.8955 205.31 49.9701C204.6 49.2501 203.83 48.5901 203.11 47.8701C200.539 45.4522 198.416 42.5982 196.84 39.4401C195.38 36.2001 193.84 31.7901 190.45 30.0801C188.21 28.9501 185.23 29.6301 183.29 31.0801C181.35 32.5301 180.79 34.9701 180.42 37.2101C179.485 43.7647 179.034 50.3793 179.07 57.0001C178.98 61.8401 178.94 66.7001 178.97 71.5401C178.973 71.7703 179.029 71.9966 179.132 72.2022C179.236 72.4078 179.385 72.5871 179.568 72.7268C179.751 72.8664 179.963 72.9626 180.189 73.0083C180.414 73.0539 180.647 73.0477 180.87 72.9901C180.998 72.9471 181.121 72.8936 181.24 72.8301C181.487 72.6762 181.684 72.4548 181.809 72.192C181.933 71.9293 181.98 71.6364 181.943 71.348C181.906 71.0595 181.788 70.7877 181.601 70.5648C181.414 70.3418 181.168 70.1771 180.89 70.0901C179.81 69.7801 178.72 70.7201 178.24 71.5801C177.12 73.5801 177.83 76.2901 178.45 78.3201C178.514 78.5407 178.627 78.744 178.78 78.9147C178.934 79.0854 179.124 79.2191 179.337 79.3057C179.55 79.3923 179.779 79.4296 180.008 79.4148C180.237 79.3999 180.46 79.3334 180.66 79.2201C185.09 76.0601 189.72 73.2201 194.23 70.2201C199.474 66.7081 204.457 62.8213 209.14 58.5901C210.58 57.3001 208.45 55.1801 207.02 56.4701C202.439 60.6061 197.563 64.4028 192.43 67.8301C188.01 70.8301 183.43 73.5801 179.14 76.6701L181.34 77.5601C180.769 76.1753 180.586 74.6612 180.81 73.1801C180.74 73.4301 180.95 72.9401 180.96 72.9201C180.96 73.1201 181.06 72.9201 180.82 73.0501C181.02 72.9301 181.12 73.0501 180.74 73.0501C181.18 72.9801 180.03 73.0501 180.09 73.0501L179.73 70.3101L180.07 70.1701L182 71.5001C181.94 62.0301 181.85 52.5001 182.72 43.0201C182.97 40.3501 183.01 37.0201 184.27 34.5801C184.532 33.9949 184.987 33.5179 185.56 33.2301C186.365 32.7615 187.279 32.5131 188.21 32.5101C189.62 32.6201 190.63 34.0001 191.34 35.1001C192.33 36.7309 193.193 38.436 193.92 40.2001C195.4 43.385 197.408 46.2962 199.86 48.8101C200.79 49.8101 201.76 50.8101 202.76 51.7101C203.499 52.4635 204.15 53.299 204.7 54.2001C204.83 54.4101 204.96 54.6201 205.1 54.8201C205.24 55.0201 205.31 55.2701 205.2 54.9801C205.09 54.6901 205.2 55.0701 205.2 55.1601C205.599 56.242 206.136 57.2673 206.8 58.2101C207.79 59.8601 210.38 58.3501 209.37 56.7001Z" fill="white"/>
<path id="Vector_4" d="M173.86 117.18C168.94 131.5 173.86 145.98 174.49 160.5L175.6 159.06C170.4 160.98 174.52 168.64 175.1 172.25L175.25 171.09C172.25 175.77 173.49 180.73 176.06 185.28L175.91 184.12C174.899 187.092 174.514 190.242 174.78 193.37C175.276 196.825 176.731 200.071 178.98 202.74L178.59 201.28C176.97 206.38 175.97 212.1 180.46 216.05L180 215C180.28 221.84 179.68 233.07 187.66 235.9L186.77 233.7C185.63 236.32 184.19 238.87 183.71 241.7C183.212 245.305 183.915 248.974 185.71 252.14L185.6 251C184.66 253.37 183.44 255.66 183.25 258.26C183.03 261.36 184.6 264.02 186.69 266.18L186.3 264.72C185.39 268.58 183.11 271.91 183.15 276C183.268 278.775 183.999 281.49 185.29 283.95C185.616 284.799 186.049 285.602 186.58 286.34C186.39 286.13 187.18 287.26 187 286.67C187 286.73 187 286.81 187 286.87C187.055 287.582 187.055 288.298 187 289.01L186.94 294.91C186.933 295.604 186.769 296.288 186.46 296.91C185.74 298.83 185.01 300.76 184.46 302.74C183.7 305.42 183.483 308.225 183.82 310.99C183.95 312.38 183.93 313.81 183.98 315.21L184.39 325.99L185.5 324.55C181.19 326.36 178.6 330.75 176.62 334.77C173.798 340.796 171.457 347.035 169.62 353.43C169.544 353.685 169.54 353.956 169.607 354.213C169.674 354.47 169.81 354.704 170 354.89C177.506 360.93 185.616 366.178 194.2 370.55C208.856 378.057 224.711 382.948 241.05 385C260.311 387.364 279.855 385.616 298.39 379.87C311.824 375.704 324.569 369.574 336.21 361.68C338.11 360.39 339.97 359.05 341.81 357.68C343.275 356.722 344.654 355.638 345.93 354.44C348.04 352.13 346.99 347.96 345.93 345.44C344.64 342.482 342.959 339.71 340.93 337.2C340.36 336.45 339.77 335.73 339.18 335L339.62 336.06C339.08 329.71 338.62 323.01 336.62 316.91C335.841 314.299 334.356 311.953 332.33 310.13L332.77 311.19C331.77 299.94 331.12 288.6 327.53 277.8C327.31 277.13 327.08 276.47 326.84 275.8C326.508 275.162 326.24 274.492 326.04 273.8C325.88 272.61 326.32 271.17 326.27 269.93C326.185 267.874 325.759 265.847 325.01 263.93C323.6 260.32 321.2 257.25 319.62 253.73L319.77 254.88C320.628 250.678 320.453 246.33 319.26 242.21C319.02 241.37 318.75 240.53 318.5 239.7C318.375 238.804 318.15 237.926 317.83 237.08C317.69 236.88 317.67 237.59 317.83 236.95L318.04 235.76L319.56 227.4C319.73 226.46 319.82 225.46 320.08 224.54C320.5 223.01 321.48 221.6 321.93 220.02C323.58 214.2 322.03 208.26 319.51 202.94L319.28 204.76C321.866 202.511 323.544 199.397 324 196C324.187 192.958 323.921 189.904 323.21 186.94C323.07 186.16 322.93 185.39 322.82 184.61C322.733 183.723 322.828 182.828 323.1 181.98C323.538 179.995 323.702 177.96 323.59 175.93C323.38 171.93 322.29 167.93 321.59 163.93L321.21 165.39C326.06 161.26 322.04 154.71 320.8 149.86L320.65 151.01C322.8 146.75 324.65 142.01 324.3 137.19C324.08 133.96 322.88 130.98 322.3 127.83L322.15 128.99C323.458 126.508 324.248 123.786 324.47 120.99C324.61 118.99 324.33 116.4 322.33 115.36L323.07 116.65L319.85 91.65L318 77.11C317.87 76.11 317.78 75.11 317.61 74.11C317.31 72.32 314.46 71.47 312.97 70.69C302.219 64.8811 291.024 59.9355 279.49 55.9C265.16 51.1 249.9 48.26 234.75 49.44C217.626 50.7874 201.365 57.5107 188.29 68.65C186.37 70.27 184.52 71.97 182.74 73.73L184.2 73.35C178.2 72.17 176.37 79.98 175.52 84.35C174.267 91.7193 173.672 99.1853 173.74 106.66C173.69 110.29 173.74 113.92 173.8 117.55C173.8 119.48 176.8 119.49 176.8 117.55C176.68 112 176.67 106.44 176.88 100.89C176.954 94.8786 177.624 88.8893 178.88 83.01C179.246 80.955 180.025 78.9956 181.17 77.25C181.463 76.8432 181.837 76.5025 182.27 76.25C182.92 76.03 183.56 76.38 184.21 76.2C185.11 75.95 185.91 74.79 186.58 74.2C192.517 68.55 199.256 63.8088 206.58 60.13C219.32 53.79 233.58 51.47 247.72 52.37C260.66 53.19 273.33 56.57 285.4 61.18C294.805 64.9158 303.984 69.1964 312.89 74C313.69 74.43 314.5 74.85 315.31 75.27L314.57 74L319.46 111.94C319.66 113.5 319.77 115.1 320.06 116.64C320.23 117.53 320.83 117.64 321.22 118.35C321.78 119.35 321.5 121 321.34 122.01C321.111 123.437 320.719 124.833 320.17 126.17C319.871 126.703 319.614 127.258 319.4 127.83C319.337 128.469 319.416 129.115 319.63 129.72C320.55 133.72 321.87 137.35 321.02 141.55C320.719 142.997 320.294 144.416 319.75 145.79C319.11 147.45 317.58 149.29 318.03 151.09C318.75 153.99 320.38 156.77 320.57 159.79C320.644 160.553 320.517 161.322 320.2 162.02C319.83 162.74 318.93 163.14 318.71 163.93C318.49 164.72 318.94 166.06 319.1 166.93C319.26 167.8 319.47 168.76 319.65 169.68C320.145 171.914 320.456 174.185 320.58 176.47C320.625 177.656 320.565 178.844 320.4 180.02C320.24 181.02 319.76 182.07 319.66 183.09C319.672 184.725 319.894 186.352 320.32 187.93C320.654 189.548 320.895 191.184 321.04 192.83C321.219 194.645 320.964 196.476 320.296 198.173C319.629 199.87 318.568 201.384 317.2 202.59C316.97 202.827 316.822 203.133 316.779 203.46C316.736 203.788 316.799 204.121 316.96 204.41C318.78 208.25 320.08 212.52 319.56 216.81C319.293 218.8 318.666 220.725 317.71 222.49C317.442 222.961 317.26 223.476 317.17 224.01L315.09 235.47C314.882 237.271 315.123 239.095 315.79 240.78C316.735 243.437 317.294 246.215 317.45 249.03C317.46 249.912 317.42 250.793 317.33 251.67C317.126 252.582 316.986 253.508 316.91 254.44C316.91 255.75 318.18 257.38 318.83 258.5C320.388 260.831 321.67 263.334 322.65 265.96C323.1 267.391 323.34 268.88 323.36 270.38C323.36 271.45 323.23 272.48 323.15 273.54C323.214 274.617 323.511 275.668 324.02 276.62C325.496 280.703 326.633 284.901 327.42 289.17C328.18 293.26 328.66 297.39 329.04 301.53C329.22 303.53 329.38 305.47 329.54 307.44C329.66 308.96 329.39 311.22 330.44 312.39C331.102 313.031 331.721 313.716 332.29 314.44C333.038 315.635 333.611 316.932 333.99 318.29C334.628 320.511 335.113 322.773 335.44 325.06C335.69 326.69 335.9 328.33 336.09 329.97C336.18 330.85 336.28 331.72 336.36 332.59C336.346 333.893 336.47 335.193 336.73 336.47C337.035 337.07 337.429 337.62 337.9 338.1C338.56 338.92 339.2 339.76 339.81 340.63C341.432 342.789 342.714 345.183 343.61 347.73C344.13 349.38 344.61 351.73 343.11 352.9C342.037 353.76 340.957 354.6 339.87 355.42C332.511 360.922 324.63 365.688 316.34 369.65C289.916 382.334 260.093 386.113 231.34 380.42C210.762 376.225 191.395 367.444 174.68 354.73C173.89 354.13 173.01 353.44 172.16 352.73L172.55 354.19C174.233 348.357 176.325 342.649 178.81 337.11C180.41 333.74 182.62 328.97 186.31 327.41C186.623 327.315 186.898 327.124 187.095 326.863C187.293 326.603 187.403 326.287 187.41 325.96L186.91 312.76C186.8 309.97 186.4 307.37 187.08 304.59C187.76 301.81 188.85 299.43 189.7 296.83C189.939 295.948 190.033 295.033 189.98 294.12C189.98 291.71 190.2 289.23 190.05 286.82C189.94 285.17 188.41 283.49 187.71 281.98C186.871 280.257 186.362 278.391 186.21 276.48C186.08 273.76 187.12 271.35 188.12 268.88C188.749 267.713 189.149 266.437 189.3 265.12C189.3 263.99 187.96 263.12 187.38 262.28C186.781 261.413 186.41 260.408 186.3 259.36C186.12 257.36 186.99 255.48 187.74 253.72C188.13 252.8 188.74 251.82 188.47 250.82C188.05 249.44 187.25 248.22 186.9 246.82C185.84 242.55 187.78 239.02 189.43 235.23C189.54 235.03 189.603 234.809 189.616 234.581C189.629 234.354 189.591 234.126 189.504 233.916C189.418 233.705 189.286 233.516 189.117 233.363C188.949 233.209 188.748 233.096 188.53 233.03C184.22 231.5 183.73 225.51 183.42 221.66C183.31 220.36 183.24 219.05 183.19 217.75C183.14 216.45 183.41 214.75 182.45 213.75C181.576 212.92 180.92 211.887 180.539 210.743C180.159 209.599 180.067 208.378 180.27 207.19C180.446 205.933 180.723 204.692 181.1 203.48C181.35 202.904 181.515 202.294 181.59 201.67C181.59 200.82 180.78 200.16 180.33 199.5C178.728 197.238 177.818 194.56 177.71 191.79C177.684 190.586 177.785 189.383 178.01 188.2C178.23 187.06 178.94 185.66 178.91 184.51C178.88 183.36 177.59 181.76 177.15 180.51C176.536 178.996 176.326 177.349 176.54 175.73C176.82 174.13 178.23 172.82 178.02 171.21C177.8 169.959 177.489 168.726 177.09 167.52C176.86 166.72 175.19 162.35 176.44 161.89C176.754 161.797 177.029 161.606 177.227 161.345C177.425 161.084 177.535 160.767 177.54 160.44C176.97 146.22 171.99 131.93 176.8 117.91C177.38 116.14 174.48 115.36 173.86 117.18Z" fill="white"/>
</g>
<g id="path621552-0">
<path id="abColor_2" d="M311.64 31.6899L303.17 52.0499L304.95 42.0499C296.83 53.0499 294.03 62.0499 288.45 62.0499C281.76 63.5299 282.67 56.8799 279.22 54.2999L274.22 60.7199C280.02 80.1699 293.77 89.1399 310.06 97.5599L311.5 95.2899C308.34 91.2899 307.18 84.1199 308.4 80.1599C308.55 78.9999 313 57.8999 313 57.8999C313 57.8999 309.33 49.9499 309.49 45.8099C309.65 41.6699 311.64 31.6899 311.64 31.6899ZM184.13 33.7599C184.06 33.7599 184.02 33.8199 184 33.9299C180.28 42.4299 180.6 77.5899 180.81 76.7399C184.93 72.7399 190.51 71.5899 194.69 67.6099C194.58 67.7899 189.1 43.8199 188.47 40.9499C187.95 38.5499 184.76 33.7399 184.13 33.7599V33.7599ZM201.25 315.85C204.11 313.58 205.12 305.73 200.87 301.18C198.25 298.37 203.68 292.75 203.03 289C202.42 285.47 200.21 281.48 200.39 277.69C200.56 274.05 203.46 270.92 203.9 267.56C203.18 257.98 200.43 258.19 203.18 253.36C204.72 245.62 200.72 238.7 201.41 234.36C206.29 229.36 211.99 225.69 203.52 215.69C202.89 215.09 204.42 210.97 201.78 209.34C196.78 206.27 194.36 184.97 196.91 179.97C198.21 177.43 206.91 167.87 211.22 164.02C212.53 162.86 212.53 161.55 213.39 160.44C219.91 157.01 229.75 158.37 233.75 164.01C235.2 165.34 244.1 164.24 246.12 164.01C248.68 163.74 261.68 162.55 263.62 160.68C265.89 158.51 258.72 147.68 258.42 143.26C258.12 138.84 255.35 140.06 262.33 136.89C267.49 135.7 283.63 134.41 282.96 128.4C282.39 128.65 285.48 122.07 282.25 116.6C271.25 97.7499 174.25 74.5099 175.9 116.76C172.79 120.11 173.78 139.64 173.8 137.62C173.8 135.09 171.53 148.01 177.3 156.91C178.3 158.53 175.15 160.47 174.84 162.37C174.33 165.52 177.09 167.78 177.22 170.6C177.33 173 175.11 175.12 175.36 177.6C175.57 179.6 178.36 180.85 178.36 182.8C178.36 186.43 176.65 189.58 176.3 193.41C175.9 197.78 181 201.5 181.3 201.41C184.09 200.86 178.61 206.58 179 209.66C179.34 212.3 181.75 214.06 182.09 216.56C182.47 219.37 182.24 225.7 183.29 228.43C184.23 230.88 182.75 230.74 186.63 233.25C190.51 235.76 184.73 241.25 185.06 245.25C185.22 247.3 187.29 248.54 187.48 250.39C187.73 252.76 184.82 255.5 184.95 258.3C185.07 260.88 187.66 262.91 187.74 265.17C187.84 268.39 184.91 271.74 184.8 275.17C184.65 279.99 187.49 283.5 188.55 287.92C189.28 291.01 190.28 294.03 188.45 296.68C186.62 299.33 184.18 301.95 185.45 305.4C185.45 305.4 185.96 312.18 184.76 316.49C183.56 320.8 184.84 326.9 184.84 326.9L180.05 330.5L178.65 337.5C177.4 337.23 170.58 348.01 171.07 353.59C179.24 361.07 202.15 374.3 227.07 378.17C217.81 373.82 209 365.6 201.63 355C201.63 355 190.82 346.39 199.44 336.08C202.79 332.08 196.14 319.87 201.25 315.81V315.85Z" fill="#999999"/>
<path id="Vector_5" d="M183.07 32.6997C181.51 34.6997 181.25 38.0697 180.89 40.4897C180.36 44.1297 180.04 47.7997 179.8 51.4897C179.35 58.4897 179.18 65.4897 179.2 72.4897C179.2 73.5597 179.2 74.6197 179.2 75.6897C179.129 76.3217 179.219 76.9613 179.46 77.5497C179.594 77.7753 179.784 77.9622 180.012 78.092C180.24 78.2218 180.498 78.2899 180.76 78.2897C181.42 78.2897 181.6 77.9497 182.06 77.5397C182.24 77.0597 182.26 77.0597 182.12 77.5397L182.43 77.2697C182.764 77.0353 183.078 76.7744 183.37 76.4897C184.705 75.5285 186.112 74.6726 187.58 73.9297C190.507 72.5448 193.24 70.7832 195.71 68.6897C196.89 67.5797 195.62 65.9397 194.25 66.1797L195.95 66.8697C196.25 67.2797 196.05 67.1897 195.95 66.8697C195.85 66.5497 195.82 66.3397 195.75 66.0697C195.52 65.1597 195.31 64.2497 195.09 63.3397C194.43 60.5697 193.79 57.7997 193.15 55.0197C192.05 50.2497 191.01 45.4497 189.88 40.6797C189.4 38.9515 188.647 37.3109 187.65 35.8197C186.99 34.7597 185.86 32.5497 184.46 32.3097C182.91 32.0597 181.66 34.2397 183.3 35.0597C185.02 35.9197 186.54 33.3297 184.81 32.4697L183.66 35.2097C183.29 35.1497 183.23 34.8597 183.58 35.2697C183.73 35.4497 183.89 35.6197 184.03 35.8097C184.572 36.5076 185.07 37.2391 185.52 37.9997C186.229 39.1205 186.759 40.3453 187.09 41.6297C187.51 43.4797 187.92 45.3297 188.34 47.1797C189.613 52.7397 190.9 58.2964 192.2 63.8497C192.44 64.8497 192.68 65.8497 192.93 66.8497C192.996 67.3692 193.152 67.8734 193.39 68.3397C193.566 68.6154 193.823 68.8299 194.125 68.9535C194.428 69.077 194.762 69.1037 195.08 69.0297L193.62 66.5297C191.336 68.4418 188.812 70.0455 186.11 71.2997C184.825 71.9642 183.58 72.7021 182.38 73.5097C181.79 73.9297 181.21 74.3697 180.65 74.8397C180.329 75.0892 180.028 75.3634 179.75 75.6597C179.61 75.8197 179.03 76.7897 179.51 75.9797L180.8 75.2397L182.09 75.9797C182.24 76.2197 182.26 76.9797 182.26 76.3897C182.26 76.1397 182.26 75.8897 182.26 75.6397C182.26 74.7697 182.26 73.8997 182.26 73.0297C182.26 70.1497 182.26 67.2697 182.33 64.3897C182.396 57.1587 182.834 49.9359 183.64 42.7497C183.84 41.1997 184.08 39.6397 184.4 38.0997C184.53 37.4497 184.69 36.7897 184.87 36.1497C184.96 35.8397 185.05 35.5297 185.15 35.2297C185.25 34.9297 185.63 34.3097 185.25 34.7997C185.519 34.5124 185.669 34.1335 185.669 33.7397C185.669 33.346 185.519 32.967 185.25 32.6797C185.108 32.534 184.937 32.4186 184.749 32.3404C184.561 32.2622 184.359 32.2228 184.156 32.2247C183.952 32.2265 183.751 32.2696 183.564 32.3512C183.378 32.4329 183.21 32.5514 183.07 32.6997V32.6997Z" fill="white"/>
</g>
<g id="path737212">
<path id="abColor_2_2" d="M194.19 58.7799C193.376 53.6808 192.284 48.63 190.92 43.6499C190.44 41.7899 187.54 42.5799 188.03 44.4499C189.395 49.4259 190.483 54.4736 191.29 59.5699C191.408 59.9443 191.667 60.2582 192.012 60.4449C192.358 60.6315 192.762 60.6764 193.14 60.5699C193.517 60.4558 193.836 60.2014 194.032 59.8591C194.227 59.5168 194.284 59.1127 194.19 58.7299V58.7799Z" fill="#999999"/>
<path id="Vector_6" d="M205.42 51.4199C202.56 46.8999 198.97 42.8799 196.31 38.2299C194.39 34.8599 192.6 28.7199 187.7 29.1299C183.7 29.4699 181.55 32.6099 180.64 36.1999C179.41 41.0499 179.46 46.1999 179.43 51.1999C179.38 58.1199 179.51 65.0499 178.83 71.9399C178.64 73.8599 181.64 73.8499 181.83 71.9399C182.39 66.3099 182.4 60.6399 182.41 54.9399C182.29 49.9524 182.488 44.9624 183 39.9999C183.36 37.3199 183.81 33.9099 186.49 32.5999C186.822 32.3877 187.196 32.2488 187.586 32.1925C187.976 32.1363 188.374 32.164 188.753 32.2738C189.131 32.3836 189.482 32.573 189.782 32.8293C190.081 33.0856 190.323 33.4028 190.49 33.7599C191.62 35.5199 192.49 37.4599 193.49 39.2799C196.2 44.1299 199.92 48.2799 202.88 52.9799C203.88 54.6099 206.51 53.0999 205.47 51.4699L205.42 51.4199Z" fill="#999999"/>
<path id="Vector_7" d="M302.38 87.83C305.79 85 307.56 80 309 76C310.942 70.6173 312.319 65.0474 313.11 59.38C313.535 56.7628 313.686 54.1085 313.56 51.46C313.41 49.55 310.41 49.53 310.56 51.46C310.91 56.18 309.97 61.02 308.91 65.59C307.81 70.8091 306.091 75.8782 303.79 80.69C302.967 82.5802 301.766 84.2818 300.26 85.69C298.77 86.92 300.9 89.04 302.38 87.81V87.83Z" fill="#999999"/>
<path id="Vector_8" d="M310.35 28.1899C307.979 33.0796 305.856 38.086 303.99 43.1899C302.912 46.5281 302.188 49.9704 301.83 53.4599C301.11 59.0999 300.54 64.7599 299.83 70.4599C299.2 75.6899 298.5 80.9099 297.77 86.1299C297.677 86.5206 297.737 86.9322 297.938 87.2801C298.138 87.6279 298.465 87.8856 298.85 87.9999C299.227 88.1035 299.629 88.0572 299.972 87.8707C300.315 87.6843 300.572 87.3722 300.69 86.9999C301.803 79.0599 302.803 71.1066 303.69 63.1399C303.98 60.5699 304.27 57.9899 304.58 55.4199C304.852 52.3003 305.387 49.2092 306.18 46.1799C308.04 40.5655 310.292 35.0887 312.92 29.7899C313.74 28.0499 311.15 26.5299 310.33 28.2699L310.35 28.1899Z" fill="#999999"/>
<path id="Vector_9" d="M313.3 97.5198C312.88 93.2698 313.64 88.8398 314.3 84.6598C315.04 80.1798 316.02 75.7598 317.05 71.3498C317.58 69.0698 317.87 66.7598 318.58 64.5098C319.06 62.9798 319.68 61.5098 320.07 59.9398C320.504 58.1027 320.696 56.2167 320.64 54.3298C320.64 52.9598 320.38 51.5798 320.38 50.2098C320.38 48.4698 320.7 46.6798 320.79 44.9298C321.11 39.2898 321.03 33.2898 318.79 27.9998C317.41 24.7698 317.14 20.4698 314.58 17.8698C311.5 14.7198 307.21 17.3498 305.06 20.1798C301.91 24.3198 300.13 29.3998 297.3 33.7598C294.04 38.7598 289.71 42.7598 285.14 46.5198C280.964 49.8844 277.468 54.015 274.84 58.6898C274.657 59.0322 274.613 59.4324 274.719 59.8062C274.825 60.1799 275.071 60.4981 275.407 60.6937C275.742 60.8894 276.141 60.9472 276.518 60.8551C276.895 60.763 277.222 60.5281 277.43 60.1998C279.664 56.146 282.623 52.5363 286.16 49.5498C289.776 46.7021 293.141 43.5506 296.22 40.1298C299.87 35.8298 302.36 30.9798 304.99 26.0298C305.865 24.2066 306.989 22.5138 308.33 20.9998C309.17 20.1398 310.74 18.9998 312 19.6398C313.26 20.2798 313.67 22.0398 314.05 23.1898C314.6 24.8898 315.05 26.6498 315.68 28.3098C317.73 33.3098 318.12 38.4698 317.88 43.8598C317.82 45.3698 317.71 46.8598 317.58 48.3898C317.492 50.0158 317.508 51.6459 317.63 53.2698C317.769 55.1092 317.661 56.9589 317.31 58.7698C316.98 60.2298 316.42 61.6198 315.95 63.0398C315.279 65.0764 314.771 67.1629 314.43 69.2798C314.08 71.4598 313.43 73.6198 312.99 75.7898C312.43 78.3565 311.933 80.9431 311.5 83.5498C310.74 88.0898 309.85 92.9398 310.3 97.5498C310.49 99.4498 313.49 99.4698 313.3 97.5498V97.5198Z" fill="#999999"/>
<path id="Vector_10" d="M322 117.71C321.55 120.52 320.49 123.23 319.84 126C319.494 127.225 319.348 128.498 319.41 129.77C319.681 131.713 320.139 133.625 320.78 135.48C321.444 137.334 321.783 139.29 321.78 141.26C321.567 142.825 320.868 144.284 319.78 145.43C318.803 146.552 318.059 147.857 317.59 149.27C317.24 150.8 317.95 152.1 318.41 153.52C319.41 156.76 320.63 161.33 318.41 164.32C317.25 165.87 319.85 167.32 321 165.84C323.1 163.05 322.8 159.14 322.16 155.92C321.819 154.276 321.351 152.661 320.76 151.09C320.26 149.74 321.03 148.82 321.83 147.72C322.859 146.484 323.711 145.111 324.36 143.64C324.894 141.821 324.949 139.896 324.52 138.05C323.96 134.8 321.87 131.37 322.46 128.05C323.05 124.73 324.35 121.78 324.87 118.55C325.17 116.66 322.28 115.85 321.98 117.75L322 117.71Z" fill="#999999"/>
<path id="Vector_11" d="M173.59 118.37C173.77 120.37 172.99 122.44 172.37 124.37C171.571 126.498 170.982 128.698 170.61 130.94C170.169 135.082 171.281 139.24 173.73 142.61L173.34 141.15C172.46 144.05 171.54 147.25 172.06 150.31C172.476 151.836 173.087 153.301 173.88 154.67C174.195 155.411 174.41 156.192 174.52 156.99C174.64 157.99 174.11 158.25 173.64 159.21C173.236 160.023 172.924 160.878 172.71 161.76C172.359 163.298 172.408 164.9 172.85 166.414C173.293 167.928 174.116 169.303 175.24 170.41C176.6 171.79 178.72 169.66 177.36 168.29C176.759 167.714 176.281 167.024 175.953 166.259C175.624 165.495 175.454 164.672 175.45 163.84C175.482 162.759 175.748 161.698 176.23 160.73C176.79 159.55 177.67 158.73 177.55 157.37C177.35 154.95 176.37 153.18 175.39 151.05C174.28 148.63 175.39 145.16 176.1 142.4C176.43 141.11 175.9 140.68 175.3 139.63C174.796 138.683 174.416 137.674 174.17 136.63C173.68 134.963 173.471 133.226 173.55 131.49C173.88 127.02 176.98 122.94 176.55 118.37C176.39 116.46 173.39 116.45 173.55 118.37H173.59Z" fill="#999999"/>
<path id="Vector_12" d="M266.84 186.28C266.617 189.824 267.327 193.365 268.9 196.55C269.633 198.131 270.549 199.622 271.63 200.99C272.139 201.636 272.687 202.25 273.27 202.83C273.513 203.123 273.804 203.373 274.13 203.57C274.42 203.7 274.13 203.93 274.13 203.3L274.87 202H276.37C276.81 202.2 276.49 202.07 276.25 201.8C276.01 201.53 275.76 201.21 275.5 200.92C274.974 200.281 274.35 199.731 273.65 199.29C273.245 199.028 272.764 198.911 272.285 198.958C271.805 199.006 271.356 199.214 271.01 199.55C269.943 200.697 269.06 202.003 268.39 203.42C267.289 205.649 266.801 208.13 266.977 210.61C267.153 213.09 267.986 215.478 269.39 217.53C270.338 218.968 271.426 220.308 272.64 221.53C272.898 221.874 273.201 222.184 273.54 222.45C273.04 222.19 273.94 221.54 274.2 221.19C275.11 219.98 275.3 220.14 274.36 219.97C273.899 219.883 273.429 219.846 272.96 219.86C268.45 220.09 269.41 225.41 270.5 228.26C271.389 230.576 272.533 232.786 273.91 234.85C274.964 236.63 276.349 238.191 277.99 239.45C279.59 240.53 281.09 237.93 279.5 236.86C279.263 236.698 279.045 236.51 278.85 236.3C278.5 235.95 278.17 235.57 277.85 235.19C277.168 234.342 276.544 233.45 275.98 232.52C274.657 230.487 273.618 228.283 272.89 225.97C272.614 225.169 272.485 224.326 272.51 223.48C272.532 223.274 272.6 223.075 272.71 222.9C272.62 223.06 272.71 222.9 272.91 222.9C273.009 222.878 273.111 222.878 273.21 222.9C273.398 222.909 273.585 222.929 273.77 222.96C274.36 223.04 274.88 223.24 275.44 222.96C275.648 222.826 275.823 222.646 275.951 222.434C276.078 222.222 276.155 221.983 276.175 221.737C276.196 221.49 276.159 221.242 276.068 221.012C275.977 220.782 275.834 220.576 275.65 220.41C274.73 219.35 273.65 218.41 272.8 217.3C271.319 215.477 270.331 213.304 269.93 210.99C269.786 209.443 269.953 207.884 270.422 206.403C270.891 204.923 271.652 203.551 272.66 202.37C272.847 202.167 273.018 201.95 273.17 201.72C273.43 201.23 272.74 201.92 272.45 202.01C272.16 202.1 272.08 201.8 272.31 202.1C272.39 202.21 272.93 202.68 273.18 202.94C273.592 203.473 274.04 203.977 274.52 204.45C276.05 205.74 277.6 203.97 276.84 202.45C276.382 201.741 275.807 201.116 275.14 200.6C274.431 199.888 273.795 199.107 273.24 198.27C270.784 194.825 269.584 190.642 269.84 186.42C270.03 184.5 267.03 184.51 266.84 186.42V186.28Z" fill="#999999"/>
<path id="Vector_13" d="M285.59 162.91C281.913 162.014 278.072 162.045 274.41 163C273.061 163.426 271.747 163.958 270.48 164.59C269.299 165.014 268.187 165.611 267.18 166.36C265.37 168.09 267.53 169.68 269.18 170.15C270.521 170.522 271.893 170.767 273.28 170.88C275.23 171.06 275.15 168.12 273.28 167.88C273.07 167.88 272.85 167.88 272.64 167.82L274.14 169.32C274.14 166.83 270.98 166.47 269.14 166.5C266.265 166.53 263.444 167.287 260.94 168.7C259.65 169.366 258.59 170.405 257.9 171.682C257.21 172.96 256.92 174.416 257.07 175.86C257.5 179.6 260.07 182.52 263.07 184.6C266.32 186.939 270.18 188.284 274.18 188.47C274.578 188.47 274.959 188.312 275.241 188.03C275.522 187.749 275.68 187.368 275.68 186.97C275.68 186.572 275.522 186.19 275.241 185.909C274.959 185.628 274.578 185.47 274.18 185.47C271.546 185.346 268.979 184.599 266.69 183.29C264.23 181.98 261.69 180.1 260.57 177.48C259.66 175.48 259.8 173.32 261.57 171.87C263.315 170.613 265.36 169.837 267.5 169.62C268.438 169.491 269.387 169.464 270.33 169.54C270.53 169.54 270.72 169.62 270.92 169.66C271.12 169.7 271.47 169.77 271.16 169.72C271.45 169.72 271.25 169.84 271.22 169.72C271.22 169.72 271.09 169.25 271.09 169.35C271.1 169.744 271.261 170.12 271.541 170.399C271.82 170.678 272.195 170.84 272.59 170.85C272.8 170.85 273.02 170.85 273.23 170.91V167.91C273.15 167.919 273.07 167.919 272.99 167.91C272.59 167.75 272.99 167.91 272.64 167.91C272 167.81 271.37 167.7 270.74 167.56L269.74 167.32C269.6 167.27 269.45 167.23 269.32 167.17C269.19 167.11 269.42 167.11 269.2 167.17C268.98 167.23 269.2 166.85 269.2 167.17C269.284 167.249 269.346 167.349 269.379 167.459C269.413 167.57 269.416 167.687 269.39 167.8C269.46 167.951 269.478 168.121 269.442 168.283C269.406 168.446 269.317 168.592 269.19 168.7C269.19 168.7 269.19 168.7 269.3 168.64C269.534 168.558 269.759 168.45 269.97 168.32C271.874 167.27 273.886 166.429 275.97 165.81C278.862 165.216 281.849 165.264 284.72 165.95C286.6 166.33 287.41 163.43 285.52 163.06L285.59 162.91Z" fill="#999999"/>
<path id="Vector_14" d="M188.86 297.18C189.3 294.44 190.19 291.62 190.24 288.83C190.29 286.04 187.94 284.42 186.95 282.07C185.955 279.63 185.796 276.929 186.5 274.39C187.02 272.48 187.94 270.72 188.5 268.83C189.2 266.58 189.34 264.55 187.97 262.54C187.235 261.71 186.673 260.741 186.32 259.69C186.124 258.531 186.277 257.341 186.76 256.27C187.55 254.49 189.06 252.97 189.06 250.89C189.06 248.64 187.06 246.83 186.31 244.83C185.56 242.83 186.72 241.08 187.4 239.34C187.96 237.94 189.14 235.76 188.66 234.18C188.35 233.18 186.79 232.25 186.09 231.43C185.398 230.63 184.832 229.73 184.41 228.76C183.638 226.771 183.219 224.663 183.17 222.53C183.08 221.28 183.03 220.01 182.97 218.75C183.005 217.37 182.877 215.99 182.59 214.64C181.93 212.43 179.54 210.96 179.59 208.54C179.611 207.185 180.024 205.865 180.78 204.74C181.44 203.74 182.59 202.99 181.94 201.68C181.618 201.149 181.25 200.647 180.84 200.18C180.07 199.188 179.378 198.138 178.77 197.04C177.34 194.35 177.42 190.97 178.1 188.04C178.28 187.29 178.5 186.55 178.75 185.83C179.14 185.069 179.41 184.253 179.55 183.41C179.55 182.57 178.85 181.93 178.34 181.32C177.556 180.453 176.908 179.472 176.42 178.41C176.224 178.028 176.122 177.604 176.122 177.175C176.122 176.745 176.224 176.322 176.42 175.94C177.6 173.77 179.09 171.2 177.74 168.77C176.8 167.08 174.21 168.59 175.15 170.28C176.09 171.97 173.8 174.04 173.33 175.44C172.62 177.58 173.66 179.96 174.88 181.69C175.396 182.478 175.981 183.218 176.63 183.9C176.97 184.25 176.63 183.96 176.63 183.95L176.69 184.04C176.53 183.33 176.39 183.28 176.27 183.87C175.89 184.583 175.627 185.353 175.49 186.15C174.633 189.046 174.428 192.095 174.89 195.08C175.441 197.429 176.533 199.618 178.08 201.47C178.32 201.79 178.94 202.96 179.31 203.12V201.72L179.06 202.01C178.8 202.285 178.569 202.587 178.37 202.91C177.944 203.535 177.588 204.206 177.31 204.91C176.744 206.15 176.5 207.513 176.6 208.873C176.699 210.232 177.14 211.545 177.88 212.69C178.516 213.49 179.088 214.34 179.59 215.23C180.1 216.33 179.92 217.95 179.98 219.16C180.2 223.66 180.26 228.52 182.98 232.34C183.598 233.214 184.302 234.025 185.08 234.76C185.324 235.007 185.585 235.238 185.86 235.45L185.73 234.86C185.73 235.02 185.73 235.05 185.73 234.93C185.564 235.338 185.447 235.764 185.38 236.2C184.75 238.12 183.83 239.95 183.26 241.89C182.57 244.21 183.52 246.28 184.69 248.26C185.13 249 186 250 186.05 250.9C185.941 251.687 185.627 252.432 185.14 253.06C183.892 254.859 183.232 257 183.25 259.19C183.292 260.449 183.691 261.669 184.4 262.71C184.94 263.54 185.91 264.47 186.05 265.48C186.32 267.48 184.91 269.86 184.22 271.66C183.238 274.037 182.863 276.622 183.13 279.18C183.296 280.827 183.742 282.434 184.45 283.93C185.18 285.35 186.45 286.5 187.03 287.98C187.254 289.083 187.199 290.224 186.87 291.3C186.56 293.01 186.19 294.71 185.92 296.42C185.62 298.31 188.51 299.13 188.81 297.22L188.86 297.18Z" fill="#999999"/>
<path id="Vector_15" d="M318 165.65C318.251 166.939 318.644 168.196 319.17 169.4C319.77 171.2 320.39 173.01 320.82 174.85C321.04 175.724 321.061 176.637 320.88 177.52C320.64 179.23 320.08 180.89 319.88 182.6C319.74 183.274 319.71 183.966 319.79 184.65C319.97 185.55 320.46 186.47 320.72 187.36C321.233 188.985 321.568 190.662 321.72 192.36C321.854 193.967 321.747 195.585 321.4 197.16C321.011 198.503 320.3 199.732 319.33 200.74C318.539 201.629 317.867 202.618 317.33 203.68C317.143 203.975 317.03 204.31 316.999 204.658C316.967 205.006 317.019 205.356 317.15 205.68C317.37 206.29 317.71 206.89 317.98 207.5C318.995 209.436 319.694 211.522 320.05 213.68C320.223 216.003 319.701 218.324 318.55 220.35C317.93 221.54 316.33 223.15 316.55 224.54C316.922 225.957 317.203 227.397 317.39 228.85C317.439 230.421 316.984 231.967 316.09 233.26C315.362 234.084 314.731 234.99 314.21 235.96C313.36 238.13 314.9 240.9 315.85 242.81C316.556 244.091 317.155 245.429 317.64 246.81C318.039 248.136 318.001 249.557 317.53 250.86C317.101 252.034 316.8 253.251 316.63 254.49C316.581 255.804 316.952 257.1 317.69 258.19C319.1 260.5 321.28 262.19 322.62 264.58C323.62 266.37 323.32 268.82 323.14 270.79C323.04 271.91 322.9 273.02 322.78 274.14C322.618 274.944 322.602 275.77 322.73 276.58C322.98 277.58 324.02 278.48 324.58 279.29C325.222 280.23 325.807 281.208 326.33 282.22C329.18 287.73 329.53 294.02 328.93 300.1C328.75 302.02 331.75 302.01 331.93 300.1C332.56 293.66 332.05 287.1 329.18 281.22C328.615 280.066 327.97 278.954 327.25 277.89C326.91 277.39 326.56 276.89 326.25 276.43C326.074 276.173 325.883 275.926 325.68 275.69C325.28 275.31 325.79 275.81 325.68 275.97C325.724 275.638 325.724 275.302 325.68 274.97C325.68 274.43 325.79 273.88 325.85 273.34C326 272.02 326.16 270.69 326.23 269.34C326.38 266.58 326.1 264.11 324.43 261.83C323.43 260.46 322.25 259.24 321.2 257.92C320.38 256.92 319.44 255.68 319.64 254.31C319.88 252.72 320.64 251.23 320.86 249.62C321.053 247.927 320.772 246.213 320.05 244.67C319.4 243.09 318.54 241.6 317.84 240.04C317.486 239.294 317.225 238.508 317.06 237.7C317.06 237.56 316.92 236.7 316.93 237.2C316.93 236.91 316.93 237.2 316.93 237.08C317.258 236.567 317.618 236.076 318.01 235.61C318.62 234.81 319.121 233.932 319.5 233C320.77 230 320.3 226.68 319.34 223.66L319.19 224.82C321.43 221.57 323.33 217.82 322.98 213.73C322.69 210.29 321.07 207.18 319.66 204.08L319.81 205.24C320.43 203.56 321.94 202.32 322.94 200.87C324.049 199.085 324.651 197.031 324.68 194.93C324.812 192.558 324.576 190.179 323.98 187.88C323.68 186.66 323.12 185.48 322.86 184.26C322.749 183.108 322.885 181.945 323.26 180.85C323.866 178.911 324.09 176.874 323.92 174.85C323.7 173.68 323.399 172.528 323.02 171.4C322.6 170.04 322.15 168.7 321.69 167.4C321.53 166.91 321.36 166.4 321.19 165.93C321.12 165.71 320.95 164.85 321.03 165.62C320.84 163.71 317.84 163.69 318.03 165.62L318 165.65Z" fill="#999999"/>
<path id="Vector_16" d="M186.12 296C184.77 298.33 183.19 300.63 182.46 303.26C182.094 304.633 182.026 306.069 182.259 307.47C182.491 308.872 183.02 310.209 183.81 311.39V309.88C182.25 312.17 182.59 315.07 183.01 317.65C183.35 319.72 184.49 322.8 183.48 324.82L184.78 324.07C183.845 324.178 182.944 324.489 182.14 324.98C180.964 325.506 179.859 326.178 178.85 326.98C177.68 327.98 177.37 329.15 176.85 330.52C176.356 331.835 175.708 333.087 174.92 334.25C173.367 336.191 172.026 338.293 170.92 340.52C169.69 343.41 169.39 346.58 168.61 349.61C168.13 351.48 171.03 352.28 171.51 350.41C172.2 347.71 172.51 344.86 173.44 342.24C174.379 340.057 175.651 338.033 177.21 336.24C177.844 335.389 178.393 334.478 178.85 333.52C179.19 332.8 179.5 332.06 179.79 331.32C179.967 330.738 180.188 330.169 180.45 329.62C181.216 328.867 182.128 328.278 183.13 327.89C183.54 327.69 183.95 327.49 184.38 327.32C184.53 327.26 184.7 327.22 184.84 327.15C184.98 327.08 185.35 327.15 184.84 327.15C185.102 327.156 185.361 327.09 185.588 326.959C185.815 326.829 186.003 326.639 186.13 326.41C187.32 324.03 186.76 321.33 186.31 318.83C185.89 316.53 185.03 313.57 186.46 311.47C186.598 311.242 186.67 310.981 186.67 310.715C186.67 310.449 186.598 310.188 186.46 309.96C185.81 309.019 185.396 307.935 185.251 306.801C185.107 305.666 185.237 304.514 185.63 303.44C186.493 301.397 187.545 299.439 188.77 297.59C188.953 297.248 188.997 296.847 188.891 296.474C188.785 296.1 188.539 295.782 188.203 295.586C187.868 295.39 187.469 295.333 187.092 295.425C186.715 295.517 186.388 295.752 186.18 296.08L186.12 296Z" fill="#999999"/>
<path id="Vector_17" d="M328.88 300C328.43 303.67 327.75 308 330.07 311.16C331.92 313.74 335.24 315.52 336.44 318.54C337.06 320.1 336.76 321.93 336.56 323.54C336.252 325.242 336.178 326.978 336.34 328.7C336.78 331.63 339.11 334.04 340.99 336.17C341.93 337.17 342.74 338.286 343.4 339.49C344.183 341.208 344.56 343.083 344.5 344.97C344.5 345.368 344.658 345.749 344.939 346.03C345.221 346.312 345.602 346.47 346 346.47C346.398 346.47 346.78 346.312 347.061 346.03C347.342 345.749 347.5 345.368 347.5 344.97C347.584 341.828 346.655 338.743 344.85 336.17C343.22 333.96 341.12 332.17 339.85 329.69C338.26 326.69 340.09 322.92 339.78 319.69C339.44 316.11 336.87 313.85 334.44 311.48C333.119 310.41 332.15 308.967 331.66 307.34C331.15 304.96 331.66 302.34 331.92 299.95C332.16 298.04 329.16 298.05 328.92 299.95L328.88 300Z" fill="#999999"/>
</g>
</g>
</g>
</g>
</g>
</svg>
