<svg width="55" height="35" viewBox="0 0 60 37" fill="none" xmlns="http://www.w3.org/2000/svg">
<path d="M14.333 13.4476C14.23 12.6213 14.6288 11.7423 15.0797 11.2048C15.5816 10.5757 16.4491 10.1276 17.1603 10.0909C17.2467 10.9527 16.9177 11.7962 16.4313 12.4242C15.9284 13.035 15.1318 13.5187 14.333 13.4476Z" fill="white"/>
<path d="M20.6029 20.3776C20.5843 20.4295 20.2953 21.3785 19.5883 22.3618C18.9719 23.2246 18.338 24.0698 17.3234 24.0875C16.3448 24.1052 16.0186 23.5351 14.8948 23.5351C13.7711 23.5351 13.4089 24.0698 12.4849 24.1052C11.5062 24.1394 10.7644 23.1893 10.148 22.3275C8.87917 20.5842 7.91912 17.4101 9.22395 15.27C9.85779 14.2006 11.0175 13.5278 12.2678 13.5101C13.2278 13.4935 14.1159 14.1144 14.6963 14.1144C15.2756 14.1144 16.3076 13.3897 17.5219 13.4593C17.9932 13.4935 19.3526 13.6316 20.2221 14.8557C20.1501 14.9088 18.6097 15.754 18.6282 17.5305C18.6456 19.6528 20.5843 20.3599 20.6029 20.3776Z" fill="white"/>
<path fill-rule="evenodd" clip-rule="evenodd" d="M22.8887 10.6515H28.062C30.7406 10.6515 32.604 12.4512 32.604 15.0709C32.604 17.7009 30.7017 19.5098 27.9949 19.5098H25.0301V24.1061H22.8887V10.6515ZM25.0302 17.7561H27.4885C29.3531 17.7561 30.4144 16.7776 30.4144 15.0801C30.4144 13.3838 29.3531 12.4133 27.4979 12.4133H25.0302V17.7561Z" fill="white"/>
<path fill-rule="evenodd" clip-rule="evenodd" d="M33.0068 17.6331C33.1213 15.8733 34.6745 14.5757 37.1677 14.5757C39.6138 14.5757 41.1764 15.8265 41.1764 17.7815V24.4989H39.191V22.8965H39.1437C38.5591 23.9807 37.2835 24.6666 35.9595 24.6666C33.9847 24.6666 32.604 23.4797 32.604 21.7291C32.604 20.024 33.9552 18.9775 36.3528 18.8474L39.1142 18.6899V17.939C39.1142 16.8548 38.3571 16.2066 37.091 16.2066C35.8922 16.2066 35.1445 16.7623 34.9626 17.6331H33.0068ZM36.5346 23.0815C37.9826 23.0815 39.1141 22.1183 39.1141 20.8492V20.08L36.6303 20.2283C35.3937 20.3117 34.6945 20.8401 34.6945 21.6732C34.6945 22.5257 35.4232 23.0815 36.5346 23.0815Z" fill="white"/>
<path d="M49.3749 14.5757H51.4637L47.8538 24.8904C47.0289 27.266 46.0764 28.0303 44.0791 28.0303C43.9143 28.0303 43.4189 28.0119 43.2734 27.9844V26.3536C43.4189 26.3903 43.7484 26.3903 43.9143 26.3903C44.8306 26.3903 45.3249 25.999 45.6273 24.9925C45.6273 24.9742 45.8011 24.3969 45.8011 24.3878L42.3198 14.5757H44.4639L46.9013 22.5516H46.9375L49.3749 14.5757Z" fill="white"/>
<path fill-rule="evenodd" clip-rule="evenodd" d="M59.0111 1.96621C59.432 2.77042 59.458 3.69972 59.4631 4.58443C59.4642 4.78201 59.4642 4.97959 59.4642 5.1783V31.8245C59.4642 32.0221 59.4642 32.2197 59.4631 32.4173C59.4579 33.3041 59.4282 34.2277 59.0111 35.0355C58.6757 35.685 58.1258 36.225 57.4644 36.5552C56.6351 36.9692 55.6946 36.9877 54.7966 36.9977C54.5953 37 54.3941 37 54.1928 37H5.87397C5.67272 37 5.47033 37 5.27024 36.9977C4.36488 36.9875 3.42812 36.9661 2.60234 36.5552C1.93939 36.2252 1.39213 35.6852 1.0545 35.0355C0.634536 34.2274 0.607742 33.3058 0.602567 32.4173C0.601801 32.2856 0.602056 32.1538 0.602312 32.0221C0.602439 31.9563 0.602567 31.8904 0.602567 31.8245V5.1783C0.602567 5.07721 0.602073 4.97588 0.601579 4.8744C0.598525 4.24797 0.595445 3.61597 0.708363 2.99927C0.839458 2.28268 1.17697 1.60221 1.70538 1.08557C2.23344 0.569264 2.92272 0.235974 3.65455 0.1067C4.28631 -0.00466106 4.93462 -0.00189059 5.5765 0.000852334C5.67584 0.00127685 5.77502 0.0017007 5.87397 0.0017007H54.1928C54.3941 0.0017007 54.5953 0.0017007 54.7966 0.00282973C55.704 0.00802326 56.6385 0.0325232 57.4644 0.446538C58.1267 0.778473 58.6714 1.31691 59.0111 1.96621ZM58.2072 32.4116C58.2084 32.2129 58.2084 32.0187 58.2084 31.8245H58.2085V5.17817C58.2085 4.98285 58.2085 4.78865 58.2073 4.59446C58.2071 4.55573 58.2069 4.5168 58.2068 4.47771C58.204 3.8217 58.2011 3.11969 57.8922 2.52608C57.6741 2.10687 57.3229 1.75947 56.8952 1.54608C56.2793 1.23851 55.5486 1.23765 54.8699 1.23685C54.8423 1.23681 54.8148 1.23678 54.7873 1.23673L54.1928 1.2356H5.87396L5.27713 1.23673L5.27599 1.23674C5.11652 1.23786 4.95591 1.239 4.7953 1.2435C4.24332 1.25897 3.67294 1.29724 3.17133 1.54619C2.74631 1.75721 2.39028 2.10687 2.17444 2.52393C1.92225 3.01134 1.88189 3.58161 1.86625 4.11925C1.86165 4.27732 1.8605 4.43538 1.85935 4.59345L1.8582 5.05522V31.9464L1.85935 32.4105C1.85964 32.4495 1.85986 32.4887 1.86008 32.5281C1.86379 33.1844 1.86773 33.8809 2.17444 34.4766C2.39063 34.8966 2.74378 35.2405 3.1703 35.4543C3.77416 35.7569 4.4815 35.7606 5.14812 35.7641C5.19088 35.7643 5.23348 35.7645 5.27587 35.7648C5.47481 35.766 5.6703 35.766 5.8658 35.766H54.1927C54.3905 35.766 54.5894 35.766 54.7872 35.7648C54.827 35.7646 54.867 35.7644 54.9071 35.7643C55.5752 35.7616 56.2873 35.7588 56.8928 35.4566C57.3193 35.2438 57.6752 34.8958 57.8921 34.4766C58.2007 33.8801 58.2038 33.1785 58.2067 32.5206C58.2068 32.4841 58.207 32.4478 58.2072 32.4116Z" fill="white"/>
<path d="M14.333 13.4476C14.23 12.6213 14.6288 11.7423 15.0797 11.2048C15.5816 10.5757 16.4491 10.1276 17.1603 10.0909C17.2467 10.9527 16.9177 11.7962 16.4313 12.4242C15.9284 13.035 15.1318 13.5187 14.333 13.4476Z" fill="white"/>
<path d="M20.6029 20.3776C20.5843 20.4295 20.2953 21.3785 19.5883 22.3618C18.9719 23.2246 18.338 24.0698 17.3234 24.0875C16.3448 24.1052 16.0186 23.5351 14.8948 23.5351C13.7711 23.5351 13.4089 24.0698 12.4849 24.1052C11.5062 24.1394 10.7644 23.1893 10.148 22.3275C8.87917 20.5842 7.91912 17.4101 9.22395 15.27C9.85779 14.2006 11.0175 13.5278 12.2678 13.5101C13.2278 13.4935 14.1159 14.1144 14.6963 14.1144C15.2756 14.1144 16.3076 13.3897 17.5219 13.4593C17.9932 13.4935 19.3526 13.6316 20.2221 14.8557C20.1501 14.9088 18.6097 15.754 18.6282 17.5305C18.6456 19.6528 20.5843 20.3599 20.6029 20.3776Z" fill="white"/>
<path fill-rule="evenodd" clip-rule="evenodd" d="M22.8887 10.6515H28.062C30.7406 10.6515 32.604 12.4512 32.604 15.0709C32.604 17.7009 30.7017 19.5098 27.9949 19.5098H25.0301V24.1061H22.8887V10.6515ZM25.0302 17.7561H27.4885C29.3531 17.7561 30.4144 16.7776 30.4144 15.0801C30.4144 13.3838 29.3531 12.4133 27.4979 12.4133H25.0302V17.7561Z" fill="white"/>
<path fill-rule="evenodd" clip-rule="evenodd" d="M33.0068 17.6331C33.1213 15.8733 34.6745 14.5757 37.1677 14.5757C39.6138 14.5757 41.1764 15.8265 41.1764 17.7815V24.4989H39.191V22.8965H39.1437C38.5591 23.9807 37.2835 24.6666 35.9595 24.6666C33.9847 24.6666 32.604 23.4797 32.604 21.7291C32.604 20.024 33.9552 18.9775 36.3528 18.8474L39.1142 18.6899V17.939C39.1142 16.8548 38.3571 16.2066 37.091 16.2066C35.8922 16.2066 35.1445 16.7623 34.9626 17.6331H33.0068ZM36.5346 23.0815C37.9826 23.0815 39.1141 22.1183 39.1141 20.8492V20.08L36.6303 20.2283C35.3937 20.3117 34.6945 20.8401 34.6945 21.6732C34.6945 22.5257 35.4232 23.0815 36.5346 23.0815Z" fill="white"/>
<path d="M51.4637 14.5757L47.8538 24.8904C47.0289 27.266 46.0764 28.0303 44.0791 28.0303C43.9143 28.0303 43.4189 28.0119 43.2734 27.9844V26.3536C43.4189 26.3903 43.7484 26.3903 43.9143 26.3903C44.8306 26.3903 45.3249 25.999 45.6273 24.9925C45.6273 24.9742 45.8011 24.3969 45.8011 24.3878L42.3198 14.5757H44.4639L46.9013 22.5516H46.9375L49.3749 14.5757H51.4637V14.5757Z" fill="white"/>
<path d="M16.7017 12.4039C16.1789 13.0094 15.3511 13.4888 14.5209 13.4184C14.4139 12.5993 14.8284 11.728 15.297 11.1952C15.8186 10.5715 16.7201 10.1273 17.4593 10.0909C17.5491 10.9452 17.2071 11.7814 16.7017 12.4039Z" fill="white"/>
<path d="M20.5048 20.6925C20.4864 20.7459 20.1997 21.7218 19.4985 22.7329C18.8871 23.6201 18.2584 24.4892 17.2521 24.5074C16.2815 24.5255 15.958 23.9393 14.8434 23.9393C13.7289 23.9393 13.3696 24.4892 12.4531 24.5255C11.4825 24.5608 10.7468 23.5838 10.1354 22.6976C8.8769 20.9049 7.9247 17.6411 9.21886 15.4405C9.84752 14.3408 10.9978 13.649 12.2378 13.6308C13.19 13.6138 14.0708 14.2522 14.6465 14.2522C15.2211 14.2522 16.2447 13.507 17.449 13.5785C17.9165 13.6138 19.2648 13.7558 20.1272 15.0145C20.0558 15.069 18.5279 15.9381 18.5463 17.7649C18.5636 19.9473 20.4864 20.6743 20.5048 20.6925Z" fill="white"/>
<path fill-rule="evenodd" clip-rule="evenodd" d="M22.8777 11.1054H27.9346C30.5529 11.1054 32.3744 12.8856 32.3744 15.4769C32.3744 18.0785 30.5149 19.8677 27.869 19.8677H24.9709V24.4142H22.8777V11.1054ZM24.9712 18.133H27.3741C29.1968 18.133 30.2342 17.1651 30.2342 15.486C30.2342 13.808 29.1968 12.8481 27.3834 12.8481H24.9712V18.133Z" fill="white"/>
<path fill-rule="evenodd" clip-rule="evenodd" d="M33.3155 17.5798C33.4272 15.828 34.9412 14.5363 37.3718 14.5363C39.7564 14.5363 41.2797 15.7814 41.2797 17.7275V24.4143H39.3442V22.8192H39.2981C38.7282 23.8985 37.4847 24.5813 36.194 24.5813C34.2688 24.5813 32.9229 23.3998 32.9229 21.6571C32.9229 19.9598 34.24 18.918 36.5774 18.7885L39.2693 18.6318V17.8842C39.2693 16.805 38.5313 16.1597 37.297 16.1597C36.1283 16.1597 35.3995 16.713 35.2222 17.5798H33.3155ZM36.7543 23.0033C38.1659 23.0033 39.269 22.0445 39.269 20.7812V20.0155L36.8476 20.1632C35.6421 20.2461 34.9605 20.7721 34.9605 21.6014C34.9605 22.45 35.6709 23.0033 36.7543 23.0033Z" fill="white"/>
<path d="M49.3323 14.7112L46.8453 22.6068H46.8084L44.3214 14.7112H42.1338L45.6858 24.4245C45.6858 24.4336 45.5085 25.005 45.5085 25.0232C45.1999 26.0195 44.6956 26.4069 43.7607 26.4069C43.5915 26.4069 43.2552 26.4069 43.1067 26.3705V27.9849C43.2552 28.0121 43.7607 28.0303 43.9288 28.0303C45.9668 28.0303 46.9385 27.2737 47.7802 24.9221L51.4635 14.7112H49.3323V14.7112Z" fill="white"/>
</svg>
