<svg width="55" height="31" viewBox="0 0 76 31" fill="none" xmlns="http://www.w3.org/2000/svg">
<path d="M35.5498 15.123V23.7508H32.8118V2.44519H40.0705C41.9102 2.44519 43.4788 3.05841 44.7623 4.28484C46.0743 5.51127 46.7303 7.00865 46.7303 8.77699C46.7303 10.5881 46.0743 12.0855 44.7623 13.2977C43.4931 14.5098 41.9244 15.1088 40.0705 15.1088H35.5498V15.123ZM35.5498 5.06918V12.4991H40.1276C41.2114 12.4991 42.1241 12.1283 42.8371 11.401C43.5644 10.6737 43.9352 9.7895 43.9352 8.79124C43.9352 7.80725 43.5644 6.93734 42.8371 6.21004C42.1241 5.45422 41.2256 5.08344 40.1276 5.08344H35.5498V5.06918Z" fill="white"/>
<path d="M53.8891 8.69141C55.9142 8.69141 57.5114 9.23332 58.6808 10.3171C59.8501 11.401 60.4348 12.8841 60.4348 14.7665V23.7508H57.8251V21.7258H57.711C56.5844 23.3943 55.0728 24.2214 53.1903 24.2214C51.5789 24.2214 50.2384 23.7508 49.1545 22.7953C48.0707 21.8399 47.5288 20.6562 47.5288 19.2301C47.5288 17.7185 48.0992 16.5206 49.2401 15.6364C50.381 14.738 51.9069 14.2959 53.8036 14.2959C55.4293 14.2959 56.7698 14.5954 57.8108 15.1943V14.5669C57.8108 13.6114 57.4401 12.8128 56.6842 12.1425C55.9284 11.4723 55.0443 11.1443 54.0317 11.1443C52.5058 11.1443 51.2937 11.786 50.4095 13.0837L47.9994 11.5721C49.3257 9.64688 51.2937 8.69141 53.8891 8.69141ZM50.3524 19.2729C50.3524 19.986 50.6519 20.5849 51.2651 21.0555C51.8641 21.5261 52.5771 21.7686 53.39 21.7686C54.5451 21.7686 55.5719 21.3407 56.4703 20.4851C57.3688 19.6294 57.8251 18.6312 57.8251 17.4761C56.9695 16.8058 55.7858 16.4635 54.2599 16.4635C53.1476 16.4635 52.2206 16.7345 51.4791 17.2621C50.7232 17.8183 50.3524 18.4886 50.3524 19.2729Z" fill="white"/>
<path d="M75.3231 9.16199L66.1962 30.1539H63.3725L66.7666 22.8096L60.7485 9.16199H63.729L68.0643 19.6294H68.1214L72.3426 9.16199H75.3231Z" fill="white"/>
<path d="M24.6589 13.3833C24.6589 12.4905 24.579 11.6363 24.4307 10.8149H12.9536V15.5209L19.5635 15.5224C19.2954 17.0882 18.4326 18.423 17.1106 19.3129V22.3661H21.0452C23.3426 20.2398 24.6589 17.0968 24.6589 13.3833Z" fill="#4285F4"/>
<path d="M17.112 19.3128C16.0168 20.0516 14.6064 20.4837 12.9564 20.4837C9.76911 20.4837 7.06526 18.336 6.09695 15.441H2.03833V18.5898C4.0491 22.58 8.18188 25.3181 12.9564 25.3181C16.2563 25.3181 19.0286 24.2328 21.0465 22.3647L17.112 19.3128Z" fill="#34A853"/>
<path d="M5.71485 13.1051C5.71485 12.2923 5.85032 11.5065 6.09704 10.7678V7.61902H2.03841C1.20701 9.26899 0.739258 11.1315 0.739258 13.1051C0.739258 15.0788 1.20844 16.9413 2.03841 18.5913L6.09704 15.4425C5.85032 14.7038 5.71485 13.918 5.71485 13.1051Z" fill="#FABB05"/>
<path d="M12.9564 5.72516C14.7575 5.72516 16.3704 6.3455 17.6439 7.55767L21.1307 4.07376C19.013 2.10149 16.2521 0.890747 12.9564 0.890747C8.18331 0.890747 4.0491 3.62882 2.03833 7.61899L6.09695 10.7678C7.06526 7.87283 9.76911 5.72516 12.9564 5.72516Z" fill="#E94235"/>
</svg>
