<svg width="34" height="15" viewBox="0 0 53 18" fill="none" xmlns="http://www.w3.org/2000/svg">
<path fill-rule="evenodd" clip-rule="evenodd" d="M37.4825 12.2298C37.4941 9.61798 35.3974 8.48327 33.7193 7.57506C32.5917 6.96479 31.653 6.4568 31.67 5.67164C31.6814 5.07529 32.2291 4.44426 33.4284 4.28495C34.024 4.20318 35.663 4.14324 37.5206 5.02343L38.2487 1.51448C37.2492 1.14007 35.9645 0.781494 34.3677 0.781494C30.2666 0.781494 27.3795 3.03284 27.3551 6.25412C27.3283 8.6362 29.415 9.96554 30.989 10.7589C32.6052 11.5706 33.1456 12.0889 33.1399 12.817C33.1293 13.9281 31.8503 14.4137 30.6574 14.4355C28.634 14.468 27.4346 13.8903 26.4825 13.4317L26.3938 13.389L25.6425 17.0185C26.6107 17.4773 28.4033 17.8756 30.2584 17.8991C34.6173 17.8989 37.4688 15.6716 37.4825 12.2298ZM20.2967 1.0825L20.2966 1.08261H15.9372L11.62 12.3523L9.87205 2.77073C9.66855 1.70235 8.85914 1.08261 7.95886 1.08261H0.899942L0.79834 1.56312C2.25006 1.88899 3.89426 2.41215 4.89383 2.96989C5.50405 3.31583 5.67797 3.6123 5.88147 4.42696L9.18712 17.6372H13.5746L20.2966 1.08261H20.2967V1.0825ZM52.1513 17.6373H48.3127L47.8129 15.165H42.4889L41.6243 17.6373H37.2688L43.4916 2.29612C43.7906 1.56189 44.4619 1.08261 45.2582 1.08261H48.8019L52.1513 17.6373ZM43.6826 11.7719L45.8677 5.55579L47.1247 11.7719H43.6826ZM22.7934 17.6372L26.2266 1.0825H22.0772L18.6431 17.6372H22.7934Z" fill="#1A2ADF"/>
</svg>
