<?xml version="1.0" encoding="UTF-8"?>
<svg width="37px" height="25px" viewBox="0 0 37 25" version="1.1" xmlns="http://www.w3.org/2000/svg" xmlns:xlink="http://www.w3.org/1999/xlink">
    <title>all-games</title>
    <g id="Screens-+-UI-Kit" stroke="none" stroke-width="1" fill="none" fill-rule="evenodd">
        <g id="games-overview" transform="translate(-109.000000, -838.000000)" fill="#FFFFFF" fill-rule="nonzero">
            <g id="Group-53" transform="translate(99.000000, 731.000000)">
                <g id="console" transform="translate(28.500000, 119.500000) rotate(-2.000000) translate(-28.500000, -119.500000) translate(11.000000, 108.000000)">
                    <path d="M34.9811878,15.9063117 C34.8939998,13.8999151 34.5452479,11.6754319 34.0221201,9.58180068 C33.4989923,7.57540408 32.8450825,5.69985944 32.0603908,4.26048797 C29.0088119,-1.10444207 25.6956691,-0.275713038 21.7286165,0.771102578 C20.4643909,1.0764238 19.1129774,1.42536234 17.7179699,1.55621429 L17.2820301,1.55621429 C15.8870226,1.42536234 14.5356091,1.0764238 13.2713835,0.771102578 C9.30433092,-0.232095721 5.99118809,-1.10444207 2.93960918,4.30410528 C2.15491746,5.74347676 1.45741371,7.6190214 0.977879877,9.625418 C0.454752063,11.7190492 0.106000187,13.9435324 0.0188122184,15.949929 C-0.0683757506,18.1744122 0.149594172,19.7882529 0.629128001,20.9223032 C1.10866183,21.9691188 1.80616558,22.6233786 2.72163926,22.8850825 C3.54992496,23.1031691 4.50899262,23.0159344 5.51165426,22.5797613 C7.21181966,21.8818842 9.17354896,20.3988954 11.0916843,18.6105854 C12.4430978,17.3020659 14.9715489,16.6478061 17.5,16.6478061 C20.0284511,16.6478061 22.5569022,17.3020659 23.9083157,18.6105854 C25.826451,20.3988954 27.7881803,21.8818842 29.4883457,22.5797613 C30.4910074,22.9723171 31.450075,23.1031691 32.2783607,22.8850825 C33.1502404,22.6233786 33.8913382,22.0127361 34.370872,20.8786859 C34.8504058,19.7882529 35.0683758,18.1744122 34.9811878,15.9063117 Z M32.8886765,20.2680434 C32.6271126,20.8786859 32.2783607,21.2276244 31.8424209,21.3584764 C31.3628871,21.4893283 30.7525713,21.4020937 30.0550675,21.1403898 C28.5292781,20.5297473 26.7419247,19.1776105 24.9981653,17.5201524 C23.3415939,15.8626944 20.420797,15.0339653 17.5,15.0339653 C14.579203,15.0339653 11.6584061,15.8626944 9.95824068,17.4329178 C8.17088732,19.0903759 6.38353395,20.48613 4.90133848,21.0531551 C4.20383473,21.314859 3.59351895,21.445711 3.11398512,21.2712417 C2.67804527,21.1403898 2.3292934,20.7914512 2.06772949,20.1808088 C1.71897761,19.3520798 1.54460168,17.9999429 1.63178964,15.9935463 C1.71897761,14.1180017 2.02413551,11.9807531 2.54726332,9.97435654 C3.02679715,8.09881189 3.63711293,6.3541192 4.37821067,5.04559968 C6.77587981,0.727485261 9.56589482,1.42536234 12.8790376,2.29770869 C14.2304512,2.64664722 15.6254587,2.99558576 17.1512481,3.12643771 C17.1948421,3.12643771 17.1948421,3.12643771 17.2384361,3.12643771 L17.7179699,3.12643771 C17.7615639,3.12643771 17.7615639,3.12643771 17.8051579,3.12643771 C19.3745413,2.99558576 20.7695488,2.64664722 22.1209624,2.29770869 C25.4341052,1.46897966 28.2241202,0.727485261 30.6217893,5.04559968 C31.3628871,6.3541192 31.9732029,8.05519457 32.4527367,9.97435654 C32.9322705,11.9807531 33.2810224,14.0743844 33.3682104,15.9935463 C33.4553983,17.9999429 33.2810224,19.3520798 32.8886765,20.2680434 Z" id="Shape"></path>
                    <path d="M13.4893534,7.40093481 C13.0534136,7.00837896 12.5302858,6.70305774 11.91997,6.65944042 C11.876376,6.09241529 11.6148121,5.52539017 11.2224662,5.13283431 L11.1788722,5.089217 C10.6993384,4.6094265 10.0890226,4.3477226 9.39151888,4.3477226 C8.69401513,4.3477226 8.04010537,4.65304382 7.60416552,5.089217 C7.21181966,5.48177285 6.90666177,6.04879798 6.86306778,6.65944042 C6.252752,6.70305774 5.72962419,6.96476164 5.29368434,7.3573175 L5.25009036,7.40093481 C4.77055653,7.88072531 4.50899262,8.49136775 4.50899262,9.18924483 C4.50899262,9.8871219 4.81415051,10.5413817 5.25009036,10.9775548 C5.6860302,11.413728 6.20915802,11.6754319 6.86306778,11.7190492 C6.90666177,12.3296917 7.16822568,12.8967168 7.60416552,13.2892727 C8.08369935,13.7690631 8.69401513,14.0307671 9.39151888,14.0307671 C10.0890226,14.0307671 10.7429324,13.7254458 11.1788722,13.2892727 C11.5712181,12.8530995 11.876376,12.3296917 11.91997,11.7190492 C12.5302858,11.6754319 13.0970076,11.413728 13.4893534,10.9775548 C13.9688873,10.4977643 14.2304512,9.8871219 14.2304512,9.18924483 C14.2304512,8.49136775 13.9252933,7.83710799 13.4893534,7.40093481 Z M12.3995038,9.84350459 C12.2251279,10.0179739 12.007158,10.1052085 11.745594,10.1052085 L11.1352783,10.1052085 C10.6993384,10.1052085 10.3069926,10.454147 10.3069926,10.9339375 L10.3069926,11.5009626 C10.3069926,11.7626665 10.2198046,11.9807531 10.0454287,12.1552224 C9.87105271,12.3296917 9.65308279,12.4169263 9.39151888,12.4169263 C9.12995498,12.4169263 8.91198505,12.3296917 8.73760912,12.1552224 C8.56323318,11.9807531 8.47604521,11.7626665 8.47604521,11.5009626 L8.47604521,10.8903202 C8.47604521,10.454147 8.12729333,10.0615912 7.6477595,10.0615912 L7.03744372,10.0615912 C6.77587981,10.0615912 6.55790989,9.97435654 6.38353395,9.79988727 C6.252752,9.66903532 6.12197005,9.45094873 6.12197005,9.18924483 C6.12197005,8.92754092 6.20915802,8.70945433 6.38353395,8.53498507 C6.38353395,8.53498507 6.38353395,8.53498507 6.42712794,8.49136775 C6.60150388,8.3605158 6.8194738,8.27328116 7.03744372,8.27328116 L7.6477595,8.27328116 C8.08369935,8.27328116 8.47604521,7.92434262 8.47604521,7.44455213 L8.47604521,6.83390969 C8.47604521,6.57220578 8.56323318,6.3541192 8.73760912,6.17964993 C8.91198505,6.00518066 9.12995498,5.91794602 9.39151888,5.91794602 C9.65308279,5.91794602 9.87105271,6.00518066 10.0454287,6.17964993 C10.0454287,6.17964993 10.0454287,6.17964993 10.0890226,6.22326725 C10.2198046,6.39773652 10.3069926,6.6158231 10.3069926,6.83390969 L10.3069926,7.44455213 C10.3069926,7.88072531 10.6557444,8.27328116 11.1352783,8.27328116 L11.745594,8.27328116 C12.007158,8.27328116 12.2251279,8.3605158 12.3995038,8.53498507 C12.5738798,8.70945433 12.6610677,8.92754092 12.6610677,9.18924483 C12.6610677,9.45094873 12.5738798,9.66903532 12.3995038,9.84350459 Z" id="Shape"></path>
                    <ellipse id="Oval" cx="25.0853533" cy="6.09241529" rx="1.52578946" ry="1.52660611"></ellipse>
                    <ellipse id="Oval" cx="25.0853533" cy="12.2860744" rx="1.52578946" ry="1.52660611"></ellipse>
                    <ellipse id="Oval" cx="21.9901804" cy="9.18924483" rx="1.52578946" ry="1.52660611"></ellipse>
                    <ellipse id="Oval" cx="28.1805262" cy="9.18924483" rx="1.52578946" ry="1.52660611"></ellipse>
                </g>
            </g>
        </g>
    </g>
</svg>