<?xml version="1.0" encoding="UTF-8"?>
<svg width="25px" height="25px" viewBox="0 0 33 33" version="1.1" xmlns="http://www.w3.org/2000/svg" xmlns:xlink="http://www.w3.org/1999/xlink">
    <title>card-icon</title>
    <g id="Screens-+-UI-Kit" stroke="none" stroke-width="1" fill="none" fill-rule="evenodd">
        <g id="games-overview" transform="translate(-549.000000, -837.000000)">
            <g id="Group-53" transform="translate(99.000000, 731.000000)">
                <g id="Group-52" transform="translate(76.500000, 0.000000)">
                    <g id="Group-20" transform="translate(355.500000, 0.000000)">
                        <g id="Group-62" transform="translate(19.000000, 107.000000)">
                            <g id="Group-14" fill-rule="nonzero">
                                <g id="playing-cards" fill="#FFFFFF">
                                    <path d="M29.8651624,7.97379452 L24.822635,6.58947162 L24.822635,2.14104368 C24.822635,1.88970709 24.6193791,1.68605346 24.3685333,1.68605346 C24.1176874,1.68605346 23.9144315,1.88970709 23.9144315,2.14104368 L23.9144315,24.9679824 C23.9144315,25.3927613 23.5694958,25.7383718 23.1454859,25.7383718 L7.85466924,25.7383718 C7.4306593,25.7383718 7.08572362,25.3927613 7.08572362,24.9679824 C7.08572362,22.6745757 7.08572362,20.9545207 7.08572362,19.8078174 C7.08572362,19.3959197 7.08572362,18.7780732 7.08572362,17.9542779 C7.08572362,17.7029413 6.88246767,17.4992877 6.63162187,17.4992877 C6.38077607,17.4992877 6.17752013,17.7029413 6.17752013,17.9542779 L6.17752013,24.9679217 C6.17752013,25.8945245 6.9298759,26.6483523 7.85472978,26.6483523 L19.6258946,26.6483523 L7.17799709,30.0666634 C7.0147021,30.1116771 6.84359657,30.0900802 6.69628596,30.0059374 C6.5490359,29.9218552 6.44326047,29.7853581 6.39845576,29.6216223 L0.931070766,9.63293151 C0.838555105,9.29496477 1.0378755,8.94450098 1.37524282,8.85180431 L6.17758067,7.53306067 L6.17758067,18.506052 C6.17758067,18.7573886 6.38083662,18.9610422 6.63168242,18.9610422 C6.88252822,18.9610422 7.08578416,18.7573886 7.08578416,18.506052 L7.08578416,1.68049119 C7.08578416,1.25565166 7.43071985,0.910041096 7.85472978,0.910041096 L23.1454859,0.910041096 C23.5694958,0.910041096 23.9144315,1.25565166 23.9144315,1.68049119 L23.9144315,2.54315264 C23.9144315,2.79448924 24.1176874,2.99814286 24.3685333,2.99814286 C24.6193791,2.99814286 24.822635,2.79448924 24.822635,2.54315264 L24.822635,1.68049119 C24.822635,0.753888454 24.0702187,0 23.1454253,0 L7.85466924,0 C6.9298759,0 6.17745958,0.753888454 6.17745958,1.68049119 L6.17745958,6.58947162 L1.13493218,7.97415851 C0.314642786,8.19965166 -0.169853501,9.05169667 0.0550782291,9.87346967 L5.52246323,29.8621605 C5.63144764,30.2603679 5.88865087,30.5921468 6.24660414,30.796589 C6.48249486,30.9312661 6.74351254,31 7.0078603,31 C7.14475684,31 7.28250104,30.9815577 7.41812609,30.9443092 L15.50035,28.7248669 L23.5821501,30.9444305 C23.7178357,30.9816184 23.854369,30.9993327 23.9887831,30.9993327 C24.6667267,30.9993327 25.2901176,30.5478004 25.4779946,29.8620391 L27.6964936,21.7515656 C27.7627924,21.5092074 27.6204467,21.2589022 27.3785618,21.1924736 C27.1365558,21.1262877 26.8868604,21.2686693 26.8205616,21.5110274 L24.6021232,29.621319 C24.5094864,29.959407 24.1593437,30.1591781 23.8219764,30.0667241 L17.2182472,28.2530724 L20.5420903,27.3403014 C20.9291061,27.2343796 21.2530926,26.9845597 21.4552587,26.6483523 L23.1454253,26.6483523 C24.0702792,26.6483523 24.822635,25.8945245 24.822635,24.9679217 L24.822635,7.533 L29.6248518,8.85131898 C29.9623402,8.94425832 30.1616,9.29490411 30.0689027,9.6331135 L27.3800149,19.4635108 C27.3137161,19.7058689 27.4560618,19.9561742 27.6979467,20.0226027 C27.7381498,20.0336438 27.7784741,20.0389217 27.8181928,20.0389217 C28.0176949,20.0389217 28.2006676,19.9061252 28.2559469,19.7040489 L30.9447742,9.87389432 C31.1700086,9.05212133 30.6858151,8.19977299 29.8651624,7.97379452 Z" id="Path" stroke="#FFFFFF" stroke-width="0.5"></path>
                                    <path d="M12.6848055,7.56720744 C12.9194248,7.47851468 13.0378545,7.21601566 12.9492744,6.98087671 L11.5656566,3.30740705 C11.564143,3.30322114 11.5624477,3.29897456 11.5607523,3.29484932 C11.4773187,3.09186301 11.2819339,2.96076517 11.0628752,2.96076517 C11.0626936,2.96076517 11.0624514,2.96076517 11.0622697,2.96076517 C10.8430294,2.96100783 10.647584,3.09253033 10.5645137,3.29594129 C10.5631816,3.29939922 10.5617285,3.30285714 10.560457,3.30637573 L9.16418498,6.97966341 C9.07487831,7.21443836 9.19258148,7.47730137 9.42695853,7.56678278 C9.4801187,7.58710568 9.53473201,7.5966908 9.58849765,7.5966908 C9.77147038,7.5966908 9.94390795,7.48506654 10.0129314,7.30349511 L10.2493065,6.68173581 L11.8659087,6.68173581 L12.0996198,7.3022818 C12.1881393,7.53729941 12.4502468,7.65596086 12.6848055,7.56720744 L12.6848055,7.56720744 Z M10.5952109,5.77169472 L11.061301,4.54558708 L11.5231527,5.77169472 L10.5952109,5.77169472 Z" id="Shape"></path>
                                    <path d="M19.4344379,23.3408845 C19.4359516,23.3450098 19.4376469,23.3491957 19.4392817,23.3533209 C19.5227153,23.5564286 19.7181002,23.6875264 19.9372194,23.6875264 L19.9377038,23.6875264 C20.1570046,23.6873444 20.35245,23.5557613 20.4355809,23.3523503 C20.4369129,23.3488924 20.4383661,23.3454344 20.4396376,23.3419159 L21.8359096,19.6686282 C21.9252163,19.4338532 21.8075131,19.1709902 21.5731361,19.0815088 C21.3390617,18.9919061 21.0764093,19.1098395 20.9871632,19.3447965 L20.7507881,19.9665558 L19.1341859,19.9665558 L18.9004748,19.3460098 C18.8120158,19.1109315 18.5500294,18.9923914 18.315289,19.0810235 C18.0806698,19.1697162 17.9622401,19.4322153 18.0508202,19.6673542 L19.4344379,23.3408845 Z M20.4048836,20.8765969 L19.9387936,22.1027045 L19.4769419,20.8765969 L20.4048836,20.8765969 Z" id="Shape"></path>
                                </g>
                                <path d="M17.6875,10 C17.0479997,10.0007438 16.4372621,10.2658699 16,10.7325573 C15.3512588,10.0401217 14.345407,9.81425795 13.4629374,10.1628607 C12.5804679,10.5114634 12.0004671,11.3637879 12,12.3126809 C12,14.615361 15.71375,16.8755378 15.875,16.9642948 C15.9542331,17.0119017 16.0532669,17.0119017 16.1325,16.9642948 C16.28625,16.8755378 20,14.615361 20,12.3126809 C19.9986221,11.0359937 18.9640873,10.001378 17.6875,10 Z M16,16.455505 C15.35375,16.0429727 12.5,14.1153219 12.5,12.3126809 C12.5006581,11.5225528 13.0130074,10.823879 13.7663536,10.5857961 C14.5196998,10.3477132 15.3404622,10.6250787 15.795,11.2713494 C15.8418301,11.3378275 15.9180627,11.3773756 15.999375,11.3773756 C16.0806873,11.3773756 16.1569199,11.3378275 16.20375,11.2713494 C16.6579313,10.6239371 17.47939,10.3457375 18.2334575,10.583958 C18.9875249,10.8221784 19.5001172,11.5218234 19.5,12.3126809 C19.5,14.1140718 16.64625,16.0417226 16,16.455505 Z" id="Shape" stroke="#FFFFFF" stroke-width="0.5"></path>
                            </g>
                            <g id="love" transform="translate(12.000000, 10.000000)"></g>
                        </g>
                    </g>
                </g>
            </g>
        </g>
    </g>
</svg>