<?xml version="1.0" encoding="UTF-8"?>
<svg width="25px" height="25px" viewBox="0 0 36 36" version="1.1" xmlns="http://www.w3.org/2000/svg" xmlns:xlink="http://www.w3.org/1999/xlink">
    <title>casino-icon</title>
    <g id="Screens-+-UI-Kit" stroke="none" stroke-width="1" fill="none" fill-rule="evenodd">
        <g id="games-overview" transform="translate(-288.000000, -838.000000)" fill-rule="nonzero">
            <g id="Group-53" transform="translate(99.000000, 731.000000)">
                <g id="Group-52" transform="translate(76.500000, 0.000000)">
                    <g id="Group-23" transform="translate(100.500000, 0.000000)">
                        <g id="casino-icon" transform="translate(12.000000, 107.000000)">
                            <g id="poker-chip" fill="#0E0927">
                                <path d="M18.4190429,10.2889687 C18.2014879,10.1624062 17.9330249,10.1615625 17.7147668,10.287 C17.4017942,10.4668594 10.0498573,14.7474141 10.0498573,19.5513047 C10.0498573,22.0614609 12.0920894,24.1036875 14.6023388,24.1036875 C14.9728994,24.1036875 15.3403661,24.0585469 15.6965122,23.9704453 L15.5669917,24.9340781 C15.5399907,25.1350312 15.6010946,25.3379531 15.734623,25.4906016 C15.8681514,25.6433203 16.061096,25.7308594 16.2638848,25.7308594 L19.8117039,25.7308594 C20.014563,25.7308594 20.2074374,25.6433203 20.3409658,25.4906016 C20.4744239,25.3379531 20.535598,25.1351016 20.508597,24.9340781 L20.3879363,24.0366094 C20.7414103,24.1232344 21.1059239,24.1676016 21.4733203,24.1676016 C23.9834994,24.1676016 26.0257314,22.125375 26.0257314,19.6152187 C26.0257314,14.7748359 18.7296247,10.4698828 18.4190429,10.2889687 L18.4190429,10.2889687 Z M21.47325,22.7614219 C20.9141745,22.7614219 20.3654354,22.6130625 19.8865192,22.3323047 C19.6544794,22.19625 19.365414,22.2044766 19.14139,22.3535391 C18.9175067,22.5024609 18.7982523,22.7660625 18.8340427,23.0325469 L19.007721,24.3246094 L17.0678678,24.3246094 L17.250898,22.9628672 C17.2867587,22.6959609 17.1670824,22.4320781 16.9426365,22.2832266 C16.718261,22.1344453 16.4284925,22.1267812 16.1966635,22.2636797 C15.7158488,22.5474609 15.1645784,22.6974375 14.6024091,22.6974375 C12.8675947,22.6974375 11.4562298,21.286125 11.4562298,19.5513047 C11.4562298,16.0832812 16.6551181,12.6 18.0664126,11.7184922 C20.1824052,13.0351641 24.6194292,16.4520703 24.6194292,19.6153594 C24.6194292,21.3501094 23.2080644,22.7614219 21.47325,22.7614219 L21.47325,22.7614219 Z" id="Shape"></path>
                                <path d="M30.7279137,5.27203125 C27.3281079,1.87235156 22.8079714,0 17.9999648,0 C13.1920286,0 8.67182181,1.87235156 5.27201595,5.27203125 C1.87228042,8.67185156 0,13.1920312 0,18 C0,22.8079688 1.87228042,27.3281484 5.27208627,30.7279687 C8.67182181,34.1276484 13.1920286,36 17.9999648,36 C22.8079714,36 27.3281079,34.1276484 30.7279137,30.7279687 C34.1276493,27.3281484 36,22.8079688 36,18 C36,13.1920312 34.127579,8.67185156 30.7279137,5.27203125 L30.7279137,5.27203125 Z M33.3816763,24.2260312 L30.1755885,22.4803125 C30.6991549,21.061125 30.9730322,19.5459609 30.9745088,17.9891016 C30.9759854,16.4370937 30.7066083,14.9268516 30.1888781,13.5124453 L33.3816763,11.7740391 C34.1630178,13.6975078 34.5936275,15.7994297 34.5936275,18.0000703 C34.5936275,20.2007109 34.1630178,22.3025625 33.3816763,24.2260312 Z M17.9878003,29.5678125 L17.9766202,29.5678125 C14.8911229,29.5678125 11.99182,28.3676484 9.81191099,26.1878203 C5.30597815,21.682125 5.31329092,14.3433281 9.82815378,9.8285625 C12.0886439,7.56815625 15.0567853,6.43767188 18.0230985,6.43767188 C20.9814661,6.43767188 23.9380758,7.56239063 26.1880187,9.81225 C28.3705997,11.99475 29.5710192,14.8982344 29.5681415,17.9877656 C29.5651831,21.0778594 28.3589977,23.9842266 26.1716353,26.1714375 C23.9844135,28.3586484 21.0779384,29.5648594 17.9878003,29.5678125 Z M32.7958108,10.49175 L29.6308574,12.2150391 C29.0134204,10.9733203 28.1915071,9.82694531 27.182415,8.81782031 C26.161299,7.79674219 25.0105219,6.9823125 23.7823982,6.37439062 L25.5085638,3.20428125 C28.6398362,4.79988281 31.2004313,7.36052344 32.7958108,10.49175 L32.7958108,10.49175 Z M24.2264381,2.6184375 L22.4841,5.81828906 C19.5985085,4.76564063 16.4095777,4.77021094 13.5231425,5.83150781 L11.7734916,2.6184375 C13.6970317,1.83691406 15.7991722,1.40625 17.9999648,1.40625 C20.2007574,1.40625 22.302898,1.83691406 24.2264381,2.6184375 Z M10.4912956,3.20428125 L12.2263209,6.3905625 C11.0015723,7.00003125 9.85346722,7.81453125 8.83382782,8.83413281 C7.81200865,9.85591406 6.99614243,11.0067891 6.38622918,12.2344453 L3.18077429,10.5378047 C4.77446624,7.385625 7.34476475,4.80761719 10.4912956,3.20428125 Z M2.59919802,11.8210781 L5.82841941,13.5303047 C4.7696145,16.4148047 4.7658878,19.600875 5.81773152,22.4839687 L2.6181831,24.2261016 C1.83691192,22.3026328 1.40630219,20.2006406 1.40630219,18 C1.40630219,15.8172891 1.82988041,13.7316797 2.59919802,11.8210781 L2.59919802,11.8210781 Z M3.2041189,25.50825 L6.37399435,23.7822891 C6.98193878,25.0103672 7.79639869,26.1611016 8.81751471,27.1821797 C9.82660685,28.1912344 10.9730244,29.0131875 12.2147189,29.6305313 L10.4912253,32.7956484 C7.36009344,31.2001875 4.79949842,28.6394766 3.2041189,25.50825 L3.2041189,25.50825 Z M11.7734916,33.3815625 L13.5121733,30.1884609 C14.922835,30.7047656 16.4287737,30.9739922 17.9765499,30.9739922 L17.989066,30.9739922 C19.5459832,30.9725156 21.0612738,30.6986484 22.4804436,30.1751016 L24.2264381,33.3815625 C22.302898,34.1630859 20.2007574,34.59375 17.9999648,34.59375 C15.7991722,34.59375 13.697102,34.1630859 11.7734916,33.3815625 Z M25.5086341,32.7956484 L23.7762808,29.6142891 C25.0146002,28.9953281 26.158416,28.1734453 27.1661019,27.1657969 C28.1737877,26.1581484 28.995701,25.014375 29.6146849,23.7761016 L32.7958108,25.5081797 C31.2004313,28.6394766 28.6398362,31.2001875 25.5086341,32.7956484 L25.5086341,32.7956484 Z" id="Shape"></path>
                            </g>
                            <g id="poker-chip" fill="#FFFFFF">
                                <path d="M18.4190429,10.2889687 C18.2014879,10.1624062 17.9330249,10.1615625 17.7147668,10.287 C17.4017942,10.4668594 10.0498573,14.7474141 10.0498573,19.5513047 C10.0498573,22.0614609 12.0920894,24.1036875 14.6023388,24.1036875 C14.9728994,24.1036875 15.3403661,24.0585469 15.6965122,23.9704453 L15.5669917,24.9340781 C15.5399907,25.1350312 15.6010946,25.3379531 15.734623,25.4906016 C15.8681514,25.6433203 16.061096,25.7308594 16.2638848,25.7308594 L19.8117039,25.7308594 C20.014563,25.7308594 20.2074374,25.6433203 20.3409658,25.4906016 C20.4744239,25.3379531 20.535598,25.1351016 20.508597,24.9340781 L20.3879363,24.0366094 C20.7414103,24.1232344 21.1059239,24.1676016 21.4733203,24.1676016 C23.9834994,24.1676016 26.0257314,22.125375 26.0257314,19.6152187 C26.0257314,14.7748359 18.7296247,10.4698828 18.4190429,10.2889687 L18.4190429,10.2889687 Z M21.47325,22.7614219 C20.9141745,22.7614219 20.3654354,22.6130625 19.8865192,22.3323047 C19.6544794,22.19625 19.365414,22.2044766 19.14139,22.3535391 C18.9175067,22.5024609 18.7982523,22.7660625 18.8340427,23.0325469 L19.007721,24.3246094 L17.0678678,24.3246094 L17.250898,22.9628672 C17.2867587,22.6959609 17.1670824,22.4320781 16.9426365,22.2832266 C16.718261,22.1344453 16.4284925,22.1267812 16.1966635,22.2636797 C15.7158488,22.5474609 15.1645784,22.6974375 14.6024091,22.6974375 C12.8675947,22.6974375 11.4562298,21.286125 11.4562298,19.5513047 C11.4562298,16.0832812 16.6551181,12.6 18.0664126,11.7184922 C20.1824052,13.0351641 24.6194292,16.4520703 24.6194292,19.6153594 C24.6194292,21.3501094 23.2080644,22.7614219 21.47325,22.7614219 L21.47325,22.7614219 Z" id="Shape"></path>
                                <path d="M30.7279137,5.27203125 C27.3281079,1.87235156 22.8079714,0 17.9999648,0 C13.1920286,0 8.67182181,1.87235156 5.27201595,5.27203125 C1.87228042,8.67185156 0,13.1920312 0,18 C0,22.8079688 1.87228042,27.3281484 5.27208627,30.7279687 C8.67182181,34.1276484 13.1920286,36 17.9999648,36 C22.8079714,36 27.3281079,34.1276484 30.7279137,30.7279687 C34.1276493,27.3281484 36,22.8079688 36,18 C36,13.1920312 34.127579,8.67185156 30.7279137,5.27203125 L30.7279137,5.27203125 Z M33.3816763,24.2260312 L30.1755885,22.4803125 C30.6991549,21.061125 30.9730322,19.5459609 30.9745088,17.9891016 C30.9759854,16.4370937 30.7066083,14.9268516 30.1888781,13.5124453 L33.3816763,11.7740391 C34.1630178,13.6975078 34.5936275,15.7994297 34.5936275,18.0000703 C34.5936275,20.2007109 34.1630178,22.3025625 33.3816763,24.2260312 Z M17.9878003,29.5678125 L17.9766202,29.5678125 C14.8911229,29.5678125 11.99182,28.3676484 9.81191099,26.1878203 C5.30597815,21.682125 5.31329092,14.3433281 9.82815378,9.8285625 C12.0886439,7.56815625 15.0567853,6.43767188 18.0230985,6.43767188 C20.9814661,6.43767188 23.9380758,7.56239063 26.1880187,9.81225 C28.3705997,11.99475 29.5710192,14.8982344 29.5681415,17.9877656 C29.5651831,21.0778594 28.3589977,23.9842266 26.1716353,26.1714375 C23.9844135,28.3586484 21.0779384,29.5648594 17.9878003,29.5678125 Z M32.7958108,10.49175 L29.6308574,12.2150391 C29.0134204,10.9733203 28.1915071,9.82694531 27.182415,8.81782031 C26.161299,7.79674219 25.0105219,6.9823125 23.7823982,6.37439062 L25.5085638,3.20428125 C28.6398362,4.79988281 31.2004313,7.36052344 32.7958108,10.49175 L32.7958108,10.49175 Z M24.2264381,2.6184375 L22.4841,5.81828906 C19.5985085,4.76564063 16.4095777,4.77021094 13.5231425,5.83150781 L11.7734916,2.6184375 C13.6970317,1.83691406 15.7991722,1.40625 17.9999648,1.40625 C20.2007574,1.40625 22.302898,1.83691406 24.2264381,2.6184375 Z M10.4912956,3.20428125 L12.2263209,6.3905625 C11.0015723,7.00003125 9.85346722,7.81453125 8.83382782,8.83413281 C7.81200865,9.85591406 6.99614243,11.0067891 6.38622918,12.2344453 L3.18077429,10.5378047 C4.77446624,7.385625 7.34476475,4.80761719 10.4912956,3.20428125 Z M2.59919802,11.8210781 L5.82841941,13.5303047 C4.7696145,16.4148047 4.7658878,19.600875 5.81773152,22.4839687 L2.6181831,24.2261016 C1.83691192,22.3026328 1.40630219,20.2006406 1.40630219,18 C1.40630219,15.8172891 1.82988041,13.7316797 2.59919802,11.8210781 L2.59919802,11.8210781 Z M3.2041189,25.50825 L6.37399435,23.7822891 C6.98193878,25.0103672 7.79639869,26.1611016 8.81751471,27.1821797 C9.82660685,28.1912344 10.9730244,29.0131875 12.2147189,29.6305313 L10.4912253,32.7956484 C7.36009344,31.2001875 4.79949842,28.6394766 3.2041189,25.50825 L3.2041189,25.50825 Z M11.7734916,33.3815625 L13.5121733,30.1884609 C14.922835,30.7047656 16.4287737,30.9739922 17.9765499,30.9739922 L17.989066,30.9739922 C19.5459832,30.9725156 21.0612738,30.6986484 22.4804436,30.1751016 L24.2264381,33.3815625 C22.302898,34.1630859 20.2007574,34.59375 17.9999648,34.59375 C15.7991722,34.59375 13.697102,34.1630859 11.7734916,33.3815625 Z M25.5086341,32.7956484 L23.7762808,29.6142891 C25.0146002,28.9953281 26.158416,28.1734453 27.1661019,27.1657969 C28.1737877,26.1581484 28.995701,25.014375 29.6146849,23.7761016 L32.7958108,25.5081797 C31.2004313,28.6394766 28.6398362,31.2001875 25.5086341,32.7956484 L25.5086341,32.7956484 Z" id="Shape"></path>
                            </g>
                        </g>
                    </g>
                </g>
            </g>
        </g>
    </g>
</svg>