<?xml version="1.0" encoding="UTF-8"?>
<svg width="20px" height="25px" viewBox="0 0 28 33" version="1.1" xmlns="http://www.w3.org/2000/svg" xmlns:xlink="http://www.w3.org/1999/xlink">
    <title>instant-win</title>
    <g id="Screens-+-UI-Kit" stroke="none" stroke-width="1" fill="none" fill-rule="evenodd">
        <g id="games-overview" transform="translate(-640.000000, -836.000000)" fill="#FFFFFF" fill-rule="nonzero">
            <g id="Group-53" transform="translate(99.000000, 731.000000)">
                <g id="Group-52" transform="translate(76.500000, 0.000000)">
                    <g id="Group-28" transform="translate(448.000000, 0.000000)">
                        <g id="badge-3" transform="translate(16.500000, 105.000000)">
                            <path d="M14.0416009,19.25 C8.63115196,19.25 4.22736334,14.9325 4.22736334,9.625 C4.22736334,4.3175 8.63115196,0 14.0416009,0 C19.4520499,0 23.8558386,4.3175 23.8558386,9.625 C23.8558386,14.9325 19.4520499,19.25 14.0416009,19.25 Z M14.0416009,1.375 C9.40227063,1.375 5.62939728,5.0765 5.62939728,9.625 C5.62939728,14.1735 9.40227063,17.875 14.0416009,17.875 C18.6809313,17.875 22.4538046,14.174875 22.4538046,9.625 C22.4538046,5.075125 18.6809313,1.375 14.0416009,1.375 Z" id="Shape"></path>
                            <path d="M17.0742004,15.125 C16.9578315,15.125 16.8414627,15.096125 16.7349082,15.03975 L14.0416009,13.5795 L11.3482937,15.03975 C11.112752,15.167625 10.823933,15.151125 10.6052157,14.999875 C10.3864985,14.848625 10.2743357,14.587375 10.3177988,14.3275 L10.8393554,11.187 L8.63395602,8.969125 C8.45028958,8.784875 8.38719805,8.515375 8.46991805,8.270625 C8.55404009,8.025875 8.76995332,7.8485 9.0293296,7.81 L12.0493107,7.35625 L13.4078816,4.521 C13.6378152,4.037 14.4453867,4.037 14.6753203,4.521 L16.0338912,7.35625 L19.0538723,7.81 C19.3146506,7.8485 19.5305638,8.02725 19.6132838,8.270625 C19.6960038,8.515375 19.6329123,8.784875 19.4492459,8.969125 L17.2438465,11.187 L17.7654031,14.3275 C17.8088662,14.587375 17.6967034,14.848625 17.4779861,14.999875 C17.3574112,15.08375 17.2172078,15.125 17.0742004,15.125 L17.0742004,15.125 Z M14.0416009,12.106875 C14.1579698,12.106875 14.2757406,12.13575 14.3808932,12.192125 L16.15026,13.151875 L15.8039576,11.066 C15.7689068,10.850125 15.8376064,10.6315 15.9946342,10.47475 L17.4948105,8.966375 L15.4534491,8.65975 C15.2221135,8.62675 15.0230247,8.481 14.9248823,8.273375 L14.0416009,6.430875 L13.1583196,8.273375 C13.0601772,8.481 12.8610884,8.62675 12.6297528,8.661125 L10.5883913,8.966375 L12.0885677,10.47475 C12.2441934,10.630125 12.3142951,10.850125 12.2792443,11.066 L11.9329419,13.151875 L13.7023087,12.192125 C13.8074613,12.13575 13.9252321,12.106875 14.0416009,12.106875 L14.0416009,12.106875 Z" id="Shape"></path>
                            <path d="M7.97780414,33 C7.96939194,33 7.96238177,33 7.95396956,33 C7.69459328,32.99175 7.46185565,32.844625 7.3482909,32.616375 L5.32655795,28.587625 L0.746113057,28.873625 C0.485334743,28.8805 0.242782871,28.765 0.105383544,28.5505 C-0.0320157823,28.336 -0.0348198502,28.06375 0.0955693066,27.84375 L7.16182038,15.83175 C7.35389903,15.503125 7.78151939,15.390375 8.11940957,15.580125 C8.45449568,15.769875 8.56946246,16.190625 8.37598178,16.51925 L1.96448055,27.42025 L5.70510712,27.1865 C5.9855139,27.17275 6.25470442,27.319875 6.37808341,27.56875 L8.02687533,30.855 L13.3854491,21.76625 C13.5817338,21.437625 14.0107562,21.327625 14.3430382,21.514625 C14.6781244,21.70575 14.7930911,22.125125 14.5996105,22.455125 L8.58488484,32.657625 C8.46010382,32.869375 8.22736618,33 7.97780414,33 L7.97780414,33 Z" id="Path"></path>
                            <path d="M20.0072554,33 C19.7576933,33 19.5249557,32.869375 19.4001747,32.65625 L11.2080903,18.682125 C11.0160117,18.352125 11.1351846,17.93275 11.4716727,17.744375 C11.8025527,17.55875 12.2357812,17.672875 12.4264578,18.002875 L14.6024145,21.769 L19.9595862,30.856375 L21.6238005,27.56325 C21.7499836,27.31575 22.0233802,27.168625 22.2967768,27.182375 L26.0374034,27.416125 L19.6455306,16.5495 C19.4520499,16.220875 19.5670167,15.800125 19.9035049,15.610375 C20.238591,15.41925 20.6676134,15.532 20.8624961,15.862 L27.9063146,27.841 C28.0353017,28.061 28.0310956,28.331875 27.8936963,28.54775 C27.756297,28.763625 27.5137451,28.8805 27.2529668,28.870875 L22.6711199,28.5835 L20.6353666,32.615 C20.5203998,32.841875 20.2876622,32.987625 20.0282859,32.995875 C20.0226777,33 20.0142655,33 20.0072554,33 L20.0072554,33 Z" id="Path"></path>
                        </g>
                    </g>
                </g>
            </g>
        </g>
    </g>
</svg>