<?xml version="1.0" encoding="UTF-8"?>
<svg width="22px" height="25px" viewBox="0 0 28 31" version="1.1" xmlns="http://www.w3.org/2000/svg" xmlns:xlink="http://www.w3.org/1999/xlink">
    <title>keno-icon</title>
    <g id="Screens-+-UI-Kit" stroke="none" stroke-width="1" fill="none" fill-rule="evenodd">
        <g id="games-overview" transform="translate(-727.000000, -835.000000)" fill="#FFFFFF" fill-rule="nonzero">
            <g id="Group-53" transform="translate(99.000000, 731.000000)">
                <g id="Group-52" transform="translate(76.500000, 0.000000)">
                    <g id="Group-34" transform="translate(535.500000, 0.000000)">
                        <g id="keno" transform="translate(16.000000, 104.000000)">
                            <path d="M4.06514928,11.5691758 L6.07783386,11.5691758 C6.3230262,11.5691758 6.5218084,11.3659199 6.5218084,11.1150742 C6.5218084,10.8642285 6.3230262,10.6609727 6.07783386,10.6609727 L4.06514928,10.6609727 C3.81995694,10.6609727 3.62117474,10.8642285 3.62117474,11.1150742 C3.62117474,11.3659199 3.81995694,11.5691758 4.06514928,11.5691758 Z" id="Path"></path>
                            <path d="M4.06514928,14.8247207 L6.07783386,14.8247207 C6.3230262,14.8247207 6.5218084,14.6214648 6.5218084,14.3706191 C6.5218084,14.1197734 6.3230262,13.9165176 6.07783386,13.9165176 L4.06514928,13.9165176 C3.81995694,13.9165176 3.62117474,14.1197734 3.62117474,14.3706191 C3.62117474,14.6214648 3.81995694,14.8247207 4.06514928,14.8247207 Z" id="Path"></path>
                            <path d="M4.06514928,18.0802051 L6.07783386,18.0802051 C6.3230262,18.0802051 6.5218084,17.8769492 6.5218084,17.6261035 C6.5218084,17.3752578 6.3230262,17.172002 6.07783386,17.172002 L4.06514928,17.172002 C3.81995694,17.172002 3.62117474,17.3752578 3.62117474,17.6261035 C3.62117474,17.8769492 3.81995694,18.0802051 4.06514928,18.0802051 Z" id="Path"></path>
                            <path d="M4.06514928,21.3358105 L6.07783386,21.3358105 C6.3230262,21.3358105 6.5218084,21.1325547 6.5218084,20.881709 C6.5218084,20.6308633 6.3230262,20.4276074 6.07783386,20.4276074 L4.06514928,20.4276074 C3.81995694,20.4276074 3.62117474,20.6308633 3.62117474,20.881709 C3.62117474,21.1325547 3.81995694,21.3358105 4.06514928,21.3358105 Z" id="Path"></path>
                            <path d="M4.06514928,24.5912949 L6.07783386,24.5912949 C6.3230262,24.5912949 6.5218084,24.3880391 6.5218084,24.1371934 C6.5218084,23.8863477 6.3230262,23.6830918 6.07783386,23.6830918 L4.06514928,23.6830918 C3.81995694,23.6830918 3.62117474,23.8863477 3.62117474,24.1371934 C3.62117474,24.3880391 3.81995694,24.5912949 4.06514928,24.5912949 Z" id="Path"></path>
                            <path d="M4.06514928,27.8468398 L6.07783386,27.8468398 C6.3230262,27.8468398 6.5218084,27.643584 6.5218084,27.3927383 C6.5218084,27.1418926 6.3230262,26.9386367 6.07783386,26.9386367 L4.06514928,26.9386367 C3.81995694,26.9386367 3.62117474,27.1418926 3.62117474,27.3927383 C3.62117474,27.643584 3.81995694,27.8468398 4.06514928,27.8468398 Z" id="Path"></path>
                            <path d="M10.4664334,11.5691758 L12.479118,11.5691758 C12.7243103,11.5691758 12.9230925,11.3659199 12.9230925,11.1150742 C12.9230925,10.8642285 12.7243103,10.6609727 12.479118,10.6609727 L10.4664334,10.6609727 C10.2212411,10.6609727 10.0224589,10.8642285 10.0224589,11.1150742 C10.0224589,11.3659199 10.2212411,11.5691758 10.4664334,11.5691758 Z" id="Path"></path>
                            <path d="M10.4664334,14.8247207 L12.479118,14.8247207 C12.7243103,14.8247207 12.9230925,14.6214648 12.9230925,14.3706191 C12.9230925,14.1197734 12.7243103,13.9165176 12.479118,13.9165176 L10.4664334,13.9165176 C10.2212411,13.9165176 10.0224589,14.1197734 10.0224589,14.3706191 C10.0224589,14.6214648 10.2212411,14.8247207 10.4664334,14.8247207 Z" id="Path"></path>
                            <path d="M10.4664334,18.0802051 L12.479118,18.0802051 C12.7243103,18.0802051 12.9230925,17.8769492 12.9230925,17.6261035 C12.9230925,17.3752578 12.7243103,17.172002 12.479118,17.172002 L10.4664334,17.172002 C10.2212411,17.172002 10.0224589,17.3752578 10.0224589,17.6261035 C10.0224589,17.8769492 10.2212411,18.0802051 10.4664334,18.0802051 Z" id="Path"></path>
                            <path d="M10.4664334,21.3358105 L12.479118,21.3358105 C12.7243103,21.3358105 12.9230925,21.1325547 12.9230925,20.881709 C12.9230925,20.6308633 12.7243103,20.4276074 12.479118,20.4276074 L10.4664334,20.4276074 C10.2212411,20.4276074 10.0224589,20.6308633 10.0224589,20.881709 C10.0224589,21.1325547 10.2212411,21.3358105 10.4664334,21.3358105 Z" id="Path"></path>
                            <path d="M10.4664334,24.5912949 L12.479118,24.5912949 C12.7243103,24.5912949 12.9230925,24.3880391 12.9230925,24.1371934 C12.9230925,23.8863477 12.7243103,23.6830918 12.479118,23.6830918 L10.4664334,23.6830918 C10.2212411,23.6830918 10.0224589,23.8863477 10.0224589,24.1371934 C10.0224589,24.3880391 10.2212411,24.5912949 10.4664334,24.5912949 Z" id="Path"></path>
                            <path d="M10.4664334,27.8468398 L12.479118,27.8468398 C12.7243103,27.8468398 12.9230925,27.643584 12.9230925,27.3927383 C12.9230925,27.1418926 12.7243103,26.9386367 12.479118,26.9386367 L10.4664334,26.9386367 C10.2212411,26.9386367 10.0224589,27.1418926 10.0224589,27.3927383 C10.0224589,27.643584 10.2212411,27.8468398 10.4664334,27.8468398 Z" id="Path"></path>
                            <path d="M16.8676583,11.5691758 L18.8803429,11.5691758 C19.1255352,11.5691758 19.3243174,11.3659199 19.3243174,11.1150742 C19.3243174,10.8642285 19.1255352,10.6609727 18.8803429,10.6609727 L16.8676583,10.6609727 C16.622466,10.6609727 16.4236838,10.8642285 16.4236838,11.1150742 C16.4236838,11.3659199 16.622466,11.5691758 16.8676583,11.5691758 Z" id="Path"></path>
                            <path d="M16.8676583,14.8247207 L18.8803429,14.8247207 C19.1255352,14.8247207 19.3243174,14.6214648 19.3243174,14.3706191 C19.3243174,14.1197734 19.1255352,13.9165176 18.8803429,13.9165176 L16.8676583,13.9165176 C16.622466,13.9165176 16.4236838,14.1197734 16.4236838,14.3706191 C16.4236838,14.6214648 16.622466,14.8247207 16.8676583,14.8247207 Z" id="Path"></path>
                            <path d="M11.0849195,1.70572656 C10.8993974,1.76488086 10.7730718,1.94052734 10.7730718,2.13924219 L10.7730718,6.09028906 C10.7730718,6.34113477 10.971854,6.54439063 11.2170463,6.54439063 C11.4622387,6.54439063 11.6610209,6.34113477 11.6610209,6.09028906 L11.6610209,3.59593945 L13.4637351,6.26599609 C13.5958027,6.46113867 13.8153037,6.54402734 14.0232614,6.47778906 C14.235718,6.40985547 14.372995,6.20544922 14.3729358,5.95254492 L14.3367666,2.12743555 C14.3343988,1.87810352 14.1360902,1.67769336 13.8929105,1.67769336 L13.8885299,1.67769336 C13.6433376,1.68011523 13.4465089,1.88542969 13.4488768,2.1361543 L13.4729698,4.68136328 L11.5823486,1.88119141 C11.4720061,1.7176543 11.2704417,1.64657227 11.0849195,1.70572656 L11.0849195,1.70572656 Z" id="Path"></path>
                            <path d="M3.68149608,1.67769336 C3.43630374,1.67769336 3.23752154,1.88094922 3.23752154,2.13179492 L3.23752154,6.09028906 C3.23752154,6.34113477 3.43630374,6.54439063 3.68149608,6.54439063 C3.92668842,6.54439063 4.12547062,6.34113477 4.12547062,6.09028906 L4.12547062,4.96944531 L5.59248089,6.41706055 C5.67867115,6.50206836 5.78972398,6.54439063 5.90065842,6.54439063 C6.01697975,6.54439063 6.13312349,6.49789063 6.2202017,6.40555664 C6.39045113,6.22512695 6.38541942,5.93758984 6.20895434,5.76351758 L4.45288704,4.03054492 L6.06380426,2.51602539 C6.24429471,2.3463125 6.25613404,2.05901758 6.09020595,1.87441016 C5.92433706,1.68974219 5.64350837,1.67769336 5.46289952,1.84740625 L4.12547062,3.10484375 L4.12547062,2.13179492 C4.12547062,1.88094922 3.92668842,1.67769336 3.68149608,1.67769336 Z" id="Path"></path>
                            <path d="M9.19554147,2.62894531 C9.44073381,2.62894531 9.63951601,2.42568945 9.63951601,2.17484375 C9.63951601,1.92399805 9.44073381,1.72074219 9.19554147,1.72074219 L7.57971093,1.72074219 C7.33451859,1.72074219 7.13573639,1.92399805 7.13573639,2.17484375 L7.13573639,6.09713086 C7.13573639,6.34797656 7.33451859,6.55123242 7.57971093,6.55123242 L9.19554147,6.55123242 C9.44073381,6.55123242 9.63951601,6.34797656 9.63951601,6.09713086 C9.63951601,5.84628516 9.44073381,5.6430293 9.19554147,5.6430293 L8.02368547,5.6430293 L8.02368547,4.59011914 L9.07637871,4.59011914 C9.32157105,4.59011914 9.52035325,4.38686328 9.52035325,4.13601758 C9.52035325,3.88517188 9.32157105,3.68191602 9.07637871,3.68191602 L8.02368547,3.68191602 L8.02368547,2.62894531 L9.19554147,2.62894531 Z" id="Path"></path>
                            <path d="M17.3289775,1.70269922 C16.0171807,1.70269922 14.9499843,2.79423828 14.9499843,4.13595703 C14.9499843,5.47767578 16.0172399,6.56927539 17.3289775,6.56927539 C18.640715,6.56927539 19.7079706,5.47767578 19.7079706,4.13595703 C19.7079706,2.79423828 18.6407742,1.70269922 17.3289775,1.70269922 Z M17.3289775,5.66113281 C16.5067958,5.66113281 15.8378742,4.97695312 15.8378742,4.13601758 C15.8378742,3.29508203 16.5067958,2.61096289 17.3289775,2.61096289 C18.1511591,2.61096289 18.8200807,3.29514258 18.8200807,4.13601758 C18.8200215,4.97695312 18.1511591,5.66113281 17.3289775,5.66113281 Z" id="Shape"></path>
                            <path d="M27.9599182,9.65268555 C27.8779309,9.3329375 27.6791487,9.06495703 27.4001551,8.89815039 L25.6564599,7.85559375 C25.0805361,7.51114258 24.3379739,7.7103418 24.0012044,8.29946289 L23.0136275,10.0275313 L22.7903971,10.4181191 L22.7903971,0.454101563 C22.7903971,0.203255859 22.5916149,0 22.3464225,0 L21.4671753,0 C21.221983,0 21.0232008,0.203255859 21.0232008,0.454101563 C21.0232008,0.704947266 21.221983,0.908203125 21.4671753,0.908203125 L21.902448,0.908203125 L21.902448,7.5078125 L0.88794908,7.5078125 L0.88794908,0.908203125 L21.5874325,0.908203125 C21.8326249,0.908203125 22.0314071,0.704947266 22.0314071,0.454101563 C22.0314071,0.203255859 21.8326249,0 21.5874325,0 L0.44397454,0 C0.198782201,0 0,0.203255859 0,0.454101563 L0,25.1679434 C0,25.4187891 0.198782201,25.6220449 0.44397454,25.6220449 C0.689166879,25.6220449 0.88794908,25.4187891 0.88794908,25.1679434 L0.88794908,8.41601563 L21.902448,8.41601563 L21.902448,11.9718125 L18.9288841,17.1748477 C18.912901,17.1730918 18.8967403,17.172002 18.8803429,17.172002 L16.8676583,17.172002 C16.622466,17.172002 16.4236838,17.3752578 16.4236838,17.6261035 C16.4236838,17.8769492 16.622466,18.0802051 16.8676583,18.0802051 L18.4114466,18.0802051 L15.2311682,23.6450078 C15.2031682,23.6939297 15.182331,23.7571406 15.174813,23.8109063 L14.6323945,27.7542637 C14.5565636,28.3006992 15.1591851,28.7229531 15.6444789,28.4218535 C15.6663224,28.4083516 15.4919292,28.5312617 18.9344486,26.080082 C18.982457,26.045752 19.0356748,25.9863555 19.0640892,25.9365859 L21.902448,20.9701074 L21.902448,30.0917969 L0.88794908,30.0917969 L0.88794908,27.1279668 C0.88794908,26.8771211 0.689166879,26.6738652 0.44397454,26.6738652 C0.198782201,26.6738652 0,26.8771211 0,27.1279668 L0,30.5458984 C0,30.7967441 0.198782201,31 0.44397454,31 L22.3464225,31 C22.5916149,31 22.7903971,30.7967441 22.7903971,30.5458984 L22.7903971,19.4165352 L23.8644603,17.5371602 C23.9881812,17.3206445 23.9169085,17.0424922 23.7052214,16.9159492 C23.4935935,16.7893457 23.2217035,16.8623047 23.0978642,17.0787598 L18.5215523,25.0862656 L16.2218233,23.7113066 C16.4667789,23.2826348 23.1180503,11.6444355 23.5561643,10.8779121 L25.8558933,12.2529316 L24.053771,15.4062129 C23.9300501,15.6227285 24.0013228,15.9008809 24.2130099,16.0274238 C24.4246969,16.1541484 24.6965869,16.0811289 24.8203671,15.8646133 L26.8465485,12.3192305 L27.8341254,10.5911621 C27.9972121,10.3057441 28.0419055,9.97249414 27.9599182,9.65268555 Z M15.5833288,27.3599219 L15.961891,24.6079453 L17.8568928,25.7408984 L15.5833288,27.3599219 Z M27.0675294,10.1327617 L26.3040116,11.4687891 L24.0042235,10.0938301 L24.7677413,8.75786328 C24.8574241,8.60104688 25.0550816,8.54800781 25.2083416,8.63967578 L26.9520368,9.68223242 C27.0262694,9.72661328 27.0791911,9.7979375 27.1010347,9.88306641 C27.122819,9.96813477 27.1109205,10.0568359 27.0675294,10.1327617 Z" id="Shape"></path>
                        </g>
                    </g>
                </g>
            </g>
        </g>
    </g>
</svg>