<?xml version="1.0" encoding="UTF-8"?>
<svg width="25px" height="25px" viewBox="0 0 34 34" version="1.1" xmlns="http://www.w3.org/2000/svg" xmlns:xlink="http://www.w3.org/1999/xlink">
    <title>roulette</title>
    <g id="Screens-+-UI-Kit" stroke="none" stroke-width="1" fill="none" fill-rule="evenodd">
        <g id="games-overview" transform="translate(-457.000000, -836.000000)" fill="#FFFFFF" fill-rule="nonzero">
            <g id="Group-53" transform="translate(99.000000, 731.000000)">
                <g id="Group-52" transform="translate(76.500000, 0.000000)">
                    <g id="Group-21" transform="translate(268.500000, 0.000000)">
                        <g id="roulette-2" transform="translate(13.000000, 105.000000)">
                            <path d="M17,0 C7.61129764,0 0,7.61129764 0,17 C0,26.3887024 7.61129764,34 17,34 C26.3887024,34 34,26.3887024 34,17 C33.9891053,7.61570741 26.3842926,0.0108947422 17,0 Z M30.6405182,23.8935394 L27.6908875,22.1913605 C28.3541718,20.832367 28.7500152,19.3584595 28.8568878,17.8500519 L32.2568359,17.8500519 C32.1437378,19.9548187 31.5932922,22.0131531 30.6405182,23.8935394 Z M16.1499481,28.8568878 L16.1499481,32.2568359 C14.0446625,32.1437378 11.9860687,31.5930328 10.1056824,30.6399994 L11.8083801,27.6911469 C13.167633,28.3546905 14.6415405,28.7502746 16.1499481,28.8568878 L16.1499481,28.8568878 Z M17.8500519,28.8568878 C19.3584595,28.7502746 20.832367,28.3546905 22.1916199,27.6911469 L23.8943176,30.6399994 C22.0139313,31.5930328 19.9553375,32.1437378 17.8500519,32.2568359 L17.8500519,28.8568878 Z M17,27.2001037 C11.3666229,27.2001037 6.79989627,22.6333771 6.79989627,17 C6.79989627,11.3666229 11.3666229,6.79989627 17,6.79989627 C22.6333771,6.79989627 27.2001037,11.3666229 27.2001037,17 C27.1938781,22.6307831 22.6307831,27.1938781 17,27.2001037 Z M1.74316406,17.8500519 L5.1431122,17.8500519 C5.24972537,19.3584595 5.64530946,20.832367 6.30859375,22.1913605 L3.35948183,23.8935394 C2.4067078,22.0131531 1.85626221,19.9548187 1.74316406,17.8500519 Z M3.35948183,10.1064606 L6.30911252,11.8086395 C5.64556885,13.167633 5.24972537,14.6415405 5.1431122,16.1499481 L1.74316406,16.1499481 C1.85626221,14.0451813 2.4067078,11.9868469 3.35948183,10.1064606 Z M17.8500519,5.1431122 L17.8500519,1.74316406 C19.9553375,1.85626221 22.0139313,2.4067078 23.8943176,3.36000059 L22.1916199,6.30885313 C20.832367,5.64530946 19.3584595,5.24972537 17.8500519,5.1431122 Z M16.1499481,5.1431122 C14.6415405,5.24972537 13.167633,5.64530946 11.8083801,6.30885313 L10.1056824,3.36000059 C11.9860687,2.40696718 14.0446625,1.85626221 16.1499481,1.74316406 L16.1499481,5.1431122 Z M28.8568878,16.1499481 C28.7502746,14.6415405 28.3546905,13.167633 27.6914063,11.8086395 L30.6407776,10.1064606 C31.5935517,11.9868469 32.1439972,14.0451813 32.2568359,16.1499481 L28.8568878,16.1499481 Z M29.7933197,8.63229373 L26.8499146,10.3313599 C25.9993439,9.07949826 24.9197235,7.99987793 23.6678619,7.14930723 L25.3679657,4.20616152 C27.1303253,5.36334229 28.6363983,6.8696747 29.7933197,8.63229373 Z M8.63255312,4.20616152 L10.3321381,7.14956662 C9.08027647,8.00013731 8.00065614,9.07949826 7.15034483,10.3313599 L4.20668028,8.63229373 C5.36360167,6.8696747 6.86993408,5.36334229 8.63255312,4.20616152 Z M4.20668028,25.3677063 L7.15008545,23.6686401 C8.00065614,24.9205017 9.08027647,26.0001221 10.3321381,26.8504334 L8.63255312,29.7938385 C6.86993408,28.6366577 5.36360167,27.1303253 4.20668028,25.3677063 L4.20668028,25.3677063 Z M25.3674469,29.7938385 L23.6673432,26.8504334 C24.9192047,26.0001221 25.9988251,24.9205017 26.8493957,23.6686401 L29.7928009,25.3677063 C28.6361389,27.1303253 27.1298065,28.6366577 25.3674469,29.7938385 Z" id="Shape"></path>
                            <path d="M22.1000519,15.2998963 C21.5031738,15.3071594 20.9553223,15.6308899 20.6614227,16.1499481 L19.3934784,16.1499481 C19.1369324,15.4298554 18.5701446,14.863327 17.8500519,14.6065216 L17.8500519,13.3388367 C18.3691101,13.0444184 18.6928406,12.4965668 18.7001037,11.8999481 C18.7001037,10.9611816 17.9390259,10.2001037 17,10.2001037 C16.0612335,10.2001037 15.3001557,10.9611816 15.3001557,11.8999481 C15.3074188,12.4965668 15.6311493,13.0446777 16.1502075,13.3388367 L16.1502075,14.6065216 C15.4301147,14.863327 14.863327,15.4298554 14.606781,16.1499481 L13.3388367,16.1499481 C13.0446777,15.6308899 12.4968262,15.3071594 11.9002075,15.2998963 C10.961441,15.2998963 10.2001037,16.0612335 10.2001037,17 C10.2001037,17.9387665 10.961441,18.7001037 11.9002075,18.7001037 C12.4968262,18.6928406 13.0446777,18.3691101 13.3388367,17.8500519 L14.606781,17.8500519 C14.863327,18.5701446 15.4301147,19.136673 16.1502075,19.3934784 L16.1502075,20.6611633 C15.6311493,20.9555816 15.3074188,21.5034332 15.3001557,22.1000519 C15.3001557,23.0388184 16.0612335,23.7998963 17,23.7998963 C17.9390259,23.7998963 18.7001037,23.0388184 18.7001037,22.1000519 C18.6928406,21.5034332 18.3691101,20.9553223 17.8500519,20.6611633 L17.8500519,19.3934784 C18.5701446,19.136673 19.1369324,18.5701446 19.3934784,17.8500519 L20.6614227,17.8500519 C20.9555816,18.3691101 21.5034332,18.6928406 22.1000519,18.7001037 C23.0388184,18.7001037 23.7998963,17.9387665 23.7998963,17 C23.7998963,16.0612335 23.0388184,15.2998963 22.1000519,15.2998963 L22.1000519,15.2998963 Z M17,17.8500519 C16.5304871,17.8500519 16.1499481,17.4695129 16.1499481,17 C16.1499481,16.5304871 16.5304871,16.1499481 17,16.1499481 C17.4695129,16.1499481 17.8500519,16.5304871 17.8500519,17 C17.8495331,17.4692535 17.4692535,17.8495331 17,17.8500519 Z" id="Shape"></path>
                        </g>
                    </g>
                </g>
            </g>
        </g>
    </g>
</svg>