<?xml version="1.0" encoding="UTF-8"?>
<svg width="25px" height="25px" viewBox="0 0 33 33" version="1.1" xmlns="http://www.w3.org/2000/svg" xmlns:xlink="http://www.w3.org/1999/xlink">
    <title>slot-icon</title>
    <g id="Screens-+-UI-Kit" stroke="none" stroke-width="1" fill="none" fill-rule="evenodd">
        <g id="games-overview" transform="translate(-373.000000, -842.000000)" fill="#FFFFFF" fill-rule="nonzero">
            <g id="Group-53" transform="translate(99.000000, 731.000000)">
                <g id="Group-52" transform="translate(76.500000, 0.000000)">
                    <g id="Group-22" transform="translate(184.500000, 0.000000)">
                        <g id="slot-machine" transform="translate(13.000000, 111.000000)">
                            <path d="M8.12109375,13.2773437 L5.80078125,13.2773437 C5.44480664,13.2773437 5.15625,13.5659004 5.15625,13.921875 C5.15625,14.2778496 5.44480664,14.5664062 5.80078125,14.5664062 L7.20437695,14.5664062 L5.6604668,18.8600156 C5.54000391,19.1949785 5.71396289,19.564166 6.04886133,19.6846289 C6.12091992,19.7105391 6.19452539,19.7228496 6.26690625,19.7228496 C6.53109961,19.7228496 6.77892187,19.5591387 6.87347461,19.2962344 L8.7275332,14.1399844 C8.79856055,13.9425 8.76897656,13.7228437 8.64825586,13.5512051 C8.52766406,13.379502 8.33095312,13.2773437 8.12109375,13.2773437 L8.12109375,13.2773437 Z" id="XMLID_195_"></path>
                            <path d="M15.5976562,13.2773437 L13.2773437,13.2773437 C12.9213691,13.2773437 12.6328125,13.5659004 12.6328125,13.921875 C12.6328125,14.2778496 12.9213691,14.5664062 13.2773437,14.5664062 L14.6809395,14.5664062 L13.1370293,18.8600156 C13.0165664,19.1949785 13.1905254,19.564166 13.5254238,19.6846289 C13.5974824,19.7105391 13.6710879,19.7228496 13.7434687,19.7228496 C14.0076621,19.7228496 14.2554844,19.5591387 14.3500371,19.2962344 L16.2040957,14.1399844 C16.275123,13.9425 16.2455391,13.7228437 16.1248184,13.5512051 C16.0042266,13.379502 15.8075156,13.2773437 15.5976562,13.2773437 L15.5976562,13.2773437 Z" id="XMLID_196_"></path>
                            <path d="M20.7539062,14.5664062 L22.157502,14.5664062 L20.6135918,18.8600156 C20.4931289,19.1949785 20.6670879,19.564166 21.0019863,19.6846289 C21.0740449,19.7105391 21.1476504,19.7228496 21.2200312,19.7228496 C21.4842246,19.7228496 21.7320469,19.5591387 21.8265996,19.2962344 L23.6806582,14.1399844 C23.7516855,13.9425 23.7221016,13.7228437 23.6013809,13.5512051 C23.4806602,13.3795664 23.2840137,13.2773437 23.0741543,13.2773437 L20.7538418,13.2773437 C20.3978672,13.2773437 20.1093105,13.5659004 20.1093105,13.921875 C20.1093105,14.2778496 20.3979316,14.5664062 20.7539062,14.5664062 L20.7539062,14.5664062 Z" id="XMLID_197_"></path>
                            <path d="M25.6523437,10.4414062 L3.22265625,10.4414062 C2.86668164,10.4414062 2.578125,10.7299629 2.578125,11.0859375 L2.578125,21.9140625 C2.578125,22.2700371 2.86668164,22.5585937 3.22265625,22.5585937 L25.6523437,22.5585937 C26.0083184,22.5585937 26.296875,22.2700371 26.296875,21.9140625 L26.296875,11.0859375 C26.296875,10.7299629 26.0083184,10.4414062 25.6523437,10.4414062 Z M3.8671875,11.7304687 L10.0546875,11.7304687 L10.0546875,21.2695312 L3.8671875,21.2695312 L3.8671875,11.7304687 Z M11.34375,11.7304687 L17.53125,11.7304687 L17.53125,21.2695312 L11.34375,21.2695312 L11.34375,11.7304687 Z M25.0078125,21.2695312 L18.8203125,21.2695312 L18.8203125,11.7304687 L25.0078125,11.7304687 L25.0078125,21.2695312 Z" id="XMLID_200_"></path>
                            <path d="M33,2.19140625 C33,0.983039062 32.0169609,0 30.8085938,0 C29.6002266,0 28.6171875,0.983039063 28.6171875,2.19140625 C28.6171875,3.17554102 29.2693242,4.01008008 30.1640625,4.28593945 L30.1640625,14.4899004 C30.1640625,15.2188008 29.5930078,15.81525 28.875,15.8593359 L28.875,8.5078125 C28.875,8.15183789 28.5864434,7.86328125 28.2304688,7.86328125 L25.8534375,7.86328125 C24.0559688,3.14086523 19.5262031,0 14.4375,0 C9.34879687,0 4.81903125,3.14086523 3.0215625,7.86328125 L0.64453125,7.86328125 C0.288556641,7.86328125 0,8.15183789 0,8.5078125 L0,24.4921875 C0,24.8481621 0.288556641,25.1367188 0.64453125,25.1367188 L2.578125,25.1367188 L2.578125,32.3554688 C2.578125,32.7114434 2.86668164,33 3.22265625,33 L25.6523438,33 C26.0083184,33 26.296875,32.7114434 26.296875,32.3554688 L26.296875,25.1367188 L28.2304688,25.1367188 C28.5864434,25.1367188 28.875,24.8481621 28.875,24.4921875 L28.875,17.1505898 C30.3041191,17.1056016 31.453125,15.9298477 31.453125,14.4899648 L31.453125,4.28593945 C32.3478633,4.01008008 33,3.17554102 33,2.19140625 Z M25.0078125,31.7109375 L3.8671875,31.7109375 L3.8671875,25.1367187 L25.0078125,25.1367187 L25.0078125,31.7109375 Z M27.5859375,23.8476562 L1.2890625,23.8476562 L1.2890625,9.15234375 L11.5370449,9.15234375 C11.8930195,9.15234375 12.1815762,8.86378711 12.1815762,8.5078125 C12.1815762,8.15183789 11.8930195,7.86328125 11.5370449,7.86328125 L4.41291211,7.86328125 C6.13194141,3.89612695 10.052625,1.2890625 14.4375,1.2890625 C18.822375,1.2890625 22.7430586,3.89612695 24.4620879,7.86328125 L17.3378906,7.86328125 C16.981916,7.86328125 16.6933594,8.15183789 16.6933594,8.5078125 C16.6933594,8.86378711 16.981916,9.15234375 17.3378906,9.15234375 L27.5859375,9.15234375 L27.5859375,23.8476562 Z M30.8085938,3.09375 C30.3110156,3.09375 29.90625,2.68898438 29.90625,2.19140625 C29.90625,1.69382813 30.3110156,1.2890625 30.8085938,1.2890625 C31.3061719,1.2890625 31.7109375,1.69382813 31.7109375,2.19140625 C31.7109375,2.68898438 31.3061719,3.09375 30.8085938,3.09375 Z" id="XMLID_1924_"></path>
                            <path d="M7.24021289,29.0683594 L21.6347227,29.0683594 C21.9906973,29.0683594 22.2792539,28.7798027 22.2792539,28.4238281 C22.2792539,28.0678535 21.9906973,27.7792969 21.6347227,27.7792969 L7.24021289,27.7792969 C6.88423828,27.7792969 6.59568164,28.0678535 6.59568164,28.4238281 C6.59568164,28.7798027 6.88430273,29.0683594 7.24021289,29.0683594 Z" id="XMLID_1927_"></path>
                        </g>
                    </g>
                </g>
            </g>
        </g>
    </g>
</svg>