<svg width="124" height="160" viewBox="0 0 124 160" fill="none" xmlns="http://www.w3.org/2000/svg">
<path d="M29.6821 12.282H29.6935C29.6678 12.2934 29.655 12.3049 29.6821 12.282Z" fill="white"/>
<path d="M21.2445 83.5786C22.7727 84.9128 25.2998 87.9144 24.1609 92.566C23.1737 92.5194 21.4618 92.2604 20.0882 91.111C18.9391 90.1522 18.2129 88.7249 17.9213 86.8625C18.345 86.6257 18.7268 86.3209 19.0514 85.9604C19.8665 85.0554 20.5096 84.3599 21.0141 83.8463C21.0958 83.762 21.1687 83.6703 21.2445 83.5786Z" fill="#EF5685"/>
<path d="M33.4352 154.058C33.4352 153.641 33.4541 153.238 33.4935 152.851C33.5839 152.089 33.7239 151.359 34.1132 150.919C34.453 150.442 35.1719 150.25 35.9899 150.264C36.8502 150.324 37.7017 150.474 38.5301 150.713C37.8213 150.133 37.0158 149.681 36.1504 149.38C36.0672 149.352 35.9797 149.33 35.8937 149.307C35.8529 147.519 35.5933 143.654 34.1847 141.102C34.4428 140.957 34.7038 140.83 34.9619 140.689C35.2783 140.544 35.5977 140.417 35.9141 140.291C36.226 140.182 36.5445 140.094 36.8678 140.026C37.4591 139.881 38.0745 139.864 38.673 139.975C38.9387 140.031 39.1957 140.123 39.4371 140.247C39.5507 140.304 39.659 140.37 39.7609 140.446C39.8046 140.484 39.86 140.519 39.8936 140.555C39.9271 140.592 39.9898 140.653 39.9548 140.609L40.3427 140.743C41.464 143.526 42.3028 146.415 42.8464 149.365C43.1369 150.991 43.2804 152.639 43.2751 154.29V154.747V154.824C43.265 154.923 43.245 155.021 43.2153 155.115C43.1512 155.316 43.042 155.5 42.896 155.652C42.7429 155.819 42.5526 155.947 42.3404 156.026C42.2374 156.067 42.1296 156.096 42.0196 156.111C41.9642 156.122 41.9073 156.111 41.8519 156.127H41.5326C39.7827 156.141 38.0329 156.192 36.283 156.236L34.9707 156.268C34.8773 156.268 34.7169 156.276 34.679 156.268C34.6271 156.272 34.5749 156.272 34.523 156.268C34.4195 156.257 34.318 156.233 34.2211 156.195C34.0189 156.11 33.8416 155.974 33.7059 155.802C33.5703 155.63 33.4806 155.426 33.4454 155.21C33.4293 155.153 33.4366 155.093 33.425 155.035L33.4323 154.702L33.4352 154.058Z" fill="#EFD9AB"/>
<path d="M17.621 150.713C17.0144 150.192 16.292 149.824 15.5139 149.639C15.5868 148.163 15.7502 144.328 15.6597 141.177L16.0972 140.938C16.2066 140.881 18.8459 139.563 21.8454 141.441C22.1916 144.463 22.1774 147.515 21.8032 150.534L21.618 151.711L21.3774 152.875L21.0857 154.015C20.9677 154.433 20.7629 154.82 20.4844 155.153C20.206 155.486 19.8604 155.757 19.47 155.948C19.2106 156.071 18.9346 156.157 18.6505 156.202C18.5056 156.223 18.3595 156.236 18.2131 156.24H17.586L12.5683 156.291H11.9413C11.8101 156.291 11.7955 156.291 11.7445 156.291C11.6988 156.288 11.6534 156.282 11.6088 156.272C11.429 156.241 11.2633 156.155 11.1349 156.026C10.9927 155.894 10.8912 155.725 10.8421 155.537C10.793 155.35 10.7985 155.153 10.8579 154.968C10.8784 154.893 10.9037 154.819 10.9337 154.747L11.0358 154.482L11.2603 153.966C11.4207 153.63 11.6045 153.308 11.7897 152.997C12.1495 152.387 12.6261 151.853 13.1925 151.427C14.3211 150.57 15.8712 150.592 17.621 150.713Z" fill="#EFD9AB"/>
<path d="M4.31635 89.9702L4.1574 91.1255L5.30355 91.3539C6.12944 91.5009 6.96691 91.5735 7.80584 91.5707C9.4259 91.5707 11.5243 91.2957 13.1385 90.1332C14.0934 89.4489 14.8078 88.4815 15.18 87.3687C15.2164 87.3687 15.2514 87.3833 15.2879 87.3877C15.355 87.3877 15.4191 87.3877 15.4847 87.3993C15.8887 89.8131 16.9007 91.7089 18.512 93.0402C20.6614 94.8168 23.2657 95.0554 24.5081 95.0554C24.9266 95.0554 25.1891 95.0277 25.2285 95.0248L26.0232 94.9361L26.2726 94.178C27.4012 90.7472 26.9229 87.8372 25.8351 85.5631C37.6232 84.8953 44.5599 80.1608 51.2808 75.5704C52.4473 74.773 53.646 73.9699 54.8534 73.1857C55.5565 73.1429 56.2618 73.1531 56.9634 73.2162C57.7557 73.2851 58.5397 73.4278 59.3053 73.6425C60.0287 73.8599 60.7208 74.1699 61.3643 74.565C61.9591 74.9544 62.4845 75.4402 62.9187 76.0025L63.4233 76.6369L64.2282 76.5379C64.7124 76.4866 65.1997 76.4691 65.6864 76.4855C66.1964 76.5027 66.7048 76.5513 67.2088 76.631C68.2042 76.7808 69.1746 77.0652 70.0931 77.4764C71.9047 78.2904 73.4086 79.66 74.386 81.3859C75.4068 83.1071 75.9565 85.1543 76.2365 87.2465C76.4812 89.39 76.5164 91.552 76.3415 93.7023L76.2978 94.277L76.6856 94.7862C76.9392 95.1217 77.1654 95.4769 77.3622 95.8483C77.5747 96.2405 77.7608 96.6464 77.9193 97.0632C78.2272 97.8759 78.3982 98.7338 78.4253 99.6022C78.462 100.449 78.3261 101.295 78.0257 102.089C77.7691 102.901 77.2762 103.64 76.7658 104.366L76.2059 105.16L76.6433 106.052C76.6958 106.164 76.8154 106.414 76.8883 106.625C76.9612 106.836 77.0429 107.076 77.1187 107.303C77.2476 107.773 77.345 108.251 77.4104 108.734C77.5467 109.707 77.5467 110.694 77.4104 111.667C77.2715 112.649 77.0059 113.609 76.62 114.523C76.4596 114.996 76.1826 115.428 75.9697 115.883C75.7232 116.32 75.4316 116.746 75.1676 117.181L74.7652 117.845L74.9722 118.55C75.0507 118.846 75.1097 119.146 75.1487 119.449C75.1886 119.788 75.2096 120.128 75.2114 120.468C75.2151 121.15 75.1283 121.829 74.9533 122.487C74.7866 123.146 74.531 123.78 74.1936 124.37C73.8534 124.971 73.4506 125.534 72.992 126.051L72.8608 127.974C72.8068 127.896 72.8433 127.945 72.8418 127.949C72.8524 127.968 72.8612 127.988 72.8681 128.009C72.8895 128.056 72.9071 128.105 72.9206 128.155C72.9518 128.27 72.968 128.39 72.9687 128.51C72.9674 128.791 72.9063 129.069 72.7893 129.324C72.6454 129.643 72.4601 129.941 72.2381 130.212L71.8386 130.648L71.3836 131.069L70.7566 131.651L70.8601 132.441C70.933 133.078 70.9462 133.721 70.8995 134.36C70.8645 134.987 70.7488 135.607 70.5553 136.205C70.3857 136.729 70.1191 137.217 69.7694 137.642C69.5102 137.91 69.2043 138.128 68.8667 138.286C68.1376 138.084 67.395 137.934 66.6444 137.839C65.7008 137.718 64.7484 137.68 63.798 137.724C63.3212 137.746 62.8458 137.794 62.3704 137.856L61.6603 137.974C61.5277 138.001 61.393 138.016 61.2578 138.019C60.7373 138.034 60.2308 137.85 59.8419 137.504C59.7346 137.411 59.6369 137.307 59.5503 137.194C59.4249 137.039 59.3024 136.883 59.1857 136.723C58.9466 136.407 58.7278 136.078 58.5179 135.748C58.1048 135.098 57.7626 134.405 57.4971 133.682C56.9824 132.265 56.8788 130.797 57.293 129.438L57.4563 128.9L57.1792 128.38C56.5761 127.213 56.0952 125.988 55.7443 124.722C55.384 123.44 55.1578 122.123 55.0692 120.794C54.9685 119.476 55.0366 118.151 55.2719 116.851C55.46 115.541 55.9281 114.309 56.4268 113.094L56.5726 112.733L56.5303 112.402C56.4393 111.584 56.4067 110.762 56.4326 109.94C56.4575 109.099 56.5364 108.262 56.6688 107.431C56.8175 106.597 57.0506 105.779 57.3644 104.991C57.6677 104.174 58.146 103.443 58.6768 102.649C57.7993 103.054 57.0195 103.642 56.3903 104.374C55.752 105.131 55.2413 105.986 54.8782 106.906C54.5137 107.821 54.2658 108.777 54.1403 109.754C54.0265 110.619 53.9992 111.493 54.0587 112.364C53.5089 113.666 53.016 115.005 52.7915 116.404C52.7346 116.705 52.6909 117.007 52.6457 117.309C52.373 117.724 51.5622 118.744 49.9028 119.295C50.0048 119.019 50.0953 118.737 50.1696 118.451C50.3235 117.842 50.3976 117.216 50.3898 116.588C50.3858 116.273 50.363 115.958 50.3213 115.646C50.2848 115.421 50.2527 115.224 50.1944 114.994C50.3694 114.274 50.4455 113.533 50.4204 112.792C50.3943 111.908 50.2436 111.033 49.9728 110.191C49.4553 108.599 48.6144 107.131 47.5026 105.877C48.227 107.29 48.6519 108.837 48.7508 110.421C48.7943 111.163 48.7314 111.907 48.5641 112.631C48.4183 113.339 48.1019 113.976 47.7782 114.569L47.5857 114.936L47.7505 115.466C47.798 115.638 47.8345 115.813 47.8598 115.99C47.8876 116.196 47.9022 116.404 47.9036 116.612C47.9132 117.454 47.7053 118.285 47.2999 119.023C47.0947 119.4 46.8504 119.755 46.5708 120.081L45.9875 120.8L46.4804 121.596C46.6344 121.848 46.7666 122.114 46.8755 122.389C46.9948 122.683 47.0923 122.985 47.1672 123.294C47.3102 123.893 47.3379 124.513 47.2488 125.122C47.1661 125.725 46.959 126.304 46.6408 126.823C46.511 127.103 46.282 127.338 46.1027 127.597C45.8971 127.845 45.6492 128.069 45.429 128.309L44.888 128.9L45.0805 129.586C45.334 130.549 45.4557 131.542 45.4421 132.537C45.4411 133.501 45.2566 134.457 44.8982 135.352C44.5553 136.198 43.9795 136.93 43.2373 137.464C42.6803 137.923 41.976 138.213 41.2425 138.457C41.0408 138.305 40.8261 138.171 40.6009 138.057C40.1533 137.825 39.6759 137.654 39.182 137.551C38.2517 137.37 37.2937 137.388 36.3706 137.602C35.9351 137.693 35.506 137.812 35.0859 137.958C34.6835 138.115 34.2825 138.278 33.896 138.457C33.5096 138.636 33.1392 138.84 32.7791 139.051L32.12 139.464C32.027 139.45 31.935 139.431 31.8444 139.406C31.646 139.356 31.4534 139.285 31.2698 139.195C30.9534 139.038 30.6905 138.792 30.5145 138.486C30.3471 138.127 30.2581 137.737 30.2534 137.341C30.2534 137.114 30.2797 136.874 30.2928 136.637L30.4386 135.892L30.5757 135.165L30.0391 134.664C29.8548 134.484 29.6851 134.289 29.5316 134.082C29.3631 133.857 29.2115 133.621 29.0781 133.374C28.8146 132.889 28.6403 132.36 28.5634 131.814C28.4814 131.269 28.5001 130.715 28.6188 130.177C28.742 129.612 28.9381 129.066 29.2021 128.552L29.6775 127.533L28.7296 126.916C28.542 126.79 28.3646 126.65 28.1988 126.496C28.0152 126.327 27.8437 126.145 27.6855 125.952C27.3744 125.574 27.1307 125.145 26.9652 124.684C26.7947 124.231 26.7082 123.75 26.71 123.266C26.7077 122.758 26.7735 122.253 26.9054 121.763L27.0352 120.996L26.6356 120.609C26.2418 120.219 25.8854 119.794 25.5712 119.337C25.2349 118.863 24.9333 118.364 24.6685 117.846C24.1352 116.801 23.7986 115.666 23.6755 114.5C23.5391 113.302 23.6629 112.089 24.0386 110.944C24.1844 110.341 24.476 109.8 24.7327 109.228C25.0097 108.67 25.3816 108.162 25.7082 107.618C25.3028 108.095 24.8435 108.547 24.4687 109.064C24.1202 109.598 23.7149 110.111 23.4611 110.714C22.8513 111.895 22.5008 113.193 22.4331 114.52C22.3897 115.233 22.4185 115.949 22.5191 116.656C22.0996 116.45 21.7246 116.163 21.4153 115.813C21.0919 115.448 20.8441 115.022 20.6862 114.561C20.5753 114.338 20.5506 114.065 20.4733 113.819C20.4251 113.56 20.4033 113.286 20.3624 113.02L20.0825 112.097L19.6231 111.974C18.9738 111.776 18.3517 111.499 17.7712 111.147C17.1593 110.784 16.5967 110.344 16.0972 109.838C15.5848 109.322 15.1659 108.72 14.8592 108.061C14.5165 107.396 14.3794 106.647 14.2759 105.879C14.1767 106.638 14.1038 107.449 14.2759 108.245C14.4138 109.063 14.6931 109.85 15.1012 110.573C15.5134 111.308 16.0187 111.987 16.6046 112.594C17.0258 113.03 17.4818 113.432 17.9681 113.795C17.9899 113.969 18.0133 114.14 18.0468 114.312C18.1503 114.683 18.2014 115.058 18.3632 115.422C18.6319 116.176 19.0439 116.871 19.5765 117.469C20.1103 118.071 20.758 118.561 21.4823 118.913C21.8352 119.086 22.202 119.229 22.5789 119.34C22.8185 119.411 23.0619 119.468 23.308 119.511C23.432 119.823 23.5661 120.132 23.7163 120.434C23.9208 120.863 24.1511 121.279 24.406 121.68C24.291 122.215 24.2377 122.762 24.2471 123.31C24.2505 124.074 24.3887 124.831 24.6554 125.547C24.9146 126.262 25.2927 126.928 25.7738 127.517C26.0101 127.807 26.267 128.08 26.5423 128.334L26.5992 128.383C26.4284 128.806 26.2985 129.245 26.2113 129.693C26.0366 130.51 26.0104 131.352 26.134 132.179C26.2002 132.646 26.3151 133.104 26.4767 133.547C26.8033 137.462 24.3667 138.916 23.2482 139.367C20.0737 137.347 17.1238 137.947 15.7531 138.424C12.2898 135.223 11.0562 126.493 10.8724 123.238L10.852 122.886L10.6508 122.595C7.26922 117.773 7.35088 104.466 7.35233 104.332V104.003L7.19192 103.712C4.69984 99.2617 5.10086 95.0263 5.10524 94.9826L5.14607 94.5912L4.95066 94.2435C2.03425 89.1031 3.62807 81.4717 4.94046 77.1199C5.70029 78.7636 6.68042 80.2966 7.85395 81.6769C6.34325 83.321 4.86462 85.9138 4.31635 89.9702Z" fill="white"/>
<path d="M49.703 125.472C49.8361 124.56 49.7955 123.632 49.5834 122.736C49.5207 122.482 49.4463 122.23 49.3647 121.981C50.4773 121.797 51.5423 121.394 52.4983 120.797C52.4983 120.848 52.4983 120.9 52.4983 120.951C52.6554 123.802 53.3681 126.595 54.5967 129.173C54.4342 129.836 54.35 130.515 54.3459 131.197C53.471 131.287 52.2796 131.214 51.7736 130.285L51.3522 129.509L50.4773 129.655C50.4656 129.655 49.0934 129.85 47.9983 129.18C48.2637 128.818 48.5612 128.486 48.7697 128.073C49.2537 127.278 49.5711 126.393 49.703 125.472Z" fill="white"/>
<path d="M15.5722 84.9229C15.2655 84.8895 14.9714 84.7824 14.7152 84.6109C14.459 84.4393 14.2482 84.2084 14.1009 83.9379C13.3324 82.5484 13.0962 81.3946 13.436 80.6903C13.7641 80.0138 14.0805 79.733 14.2686 79.6981C14.4567 79.6631 14.7673 79.8537 14.8708 79.9469L15.1391 80.1942L15.5154 80.2713C16.8286 80.4908 18.1591 80.5911 19.4904 80.571C19.6917 80.9814 19.7821 81.5546 19.2294 82.1206C18.6986 82.6633 18.0337 83.3791 17.1967 84.303C16.9968 84.5304 16.7444 84.7056 16.4614 84.8136C16.1783 84.9216 15.8731 84.9591 15.5722 84.9229Z" fill="#EF5685"/>
<path d="M63.7761 150.122C63.2269 149.294 62.3995 148.689 61.443 148.417C61.3817 148.399 61.3146 148.395 61.2534 148.38C61.7157 145.751 61.5625 142.738 61.3803 140.843C61.6511 140.836 61.9211 140.81 62.1881 140.763L62.7626 140.675C63.1476 140.63 63.534 140.595 63.9292 140.582C64.7124 140.553 65.4966 140.594 66.2725 140.704C66.7567 140.775 67.2367 140.872 67.7103 140.995C67.5995 144.113 67.477 147.231 67.4026 150.35L67.3297 152.982L67.2933 154.292C67.2954 154.448 67.2837 154.604 67.2583 154.757C67.2389 154.883 67.2036 155.005 67.1533 155.121C67.0582 155.358 66.9142 155.573 66.7305 155.751C66.5469 155.929 66.3277 156.066 66.0873 156.154C65.968 156.2 65.8437 156.231 65.717 156.247C65.5539 156.267 65.3897 156.274 65.2255 156.269L63.9132 156.278L58.6345 156.308H58.477H58.3909C58.3337 156.307 58.2766 156.3 58.2203 156.289C58.1095 156.269 58.0016 156.235 57.8995 156.188C57.6924 156.086 57.5128 155.936 57.376 155.751C57.2451 155.564 57.1616 155.348 57.1325 155.121C57.1182 155.001 57.1182 154.88 57.1325 154.76C57.1617 154.571 57.1908 154.381 57.2288 154.191C57.5393 152.687 58.2087 151.226 59.2542 150.529C60.3129 149.77 61.8206 150.119 63.7761 150.122Z" fill="#EFD9AB"/>
<path d="M6.99054 89.058C7.78234 85.23 9.52781 83.2628 10.8708 82.2764C11.0538 83.2835 11.4106 84.2514 11.9251 85.1368C12.1775 85.5912 12.5082 85.9975 12.9021 86.3372C12.7163 87.051 12.2874 87.6781 11.6889 88.1108C10.4057 89.0405 8.38312 89.1496 6.99054 89.058Z" fill="#EF5685"/>
<path d="M49.8735 73.529C43.1803 78.1005 36.2495 82.8147 24.2834 83.1406C23.6503 82.3682 22.9217 81.6789 22.1151 81.0891C22.1066 80.8586 22.0778 80.6292 22.029 80.4038C29.3521 79.541 36.4332 75.5922 40.9434 71.7932C42.3229 70.6293 43.9021 69.1117 44.5889 67.7542H44.9272L44.9433 66.5248C44.9621 65.0868 44.6293 63.666 43.9736 62.3854C46.5459 57.5287 44.9637 53.1856 44.0625 51.3872C44.2638 51.1269 44.4456 50.8521 44.6064 50.5652C44.6268 50.5288 44.6371 50.4895 44.656 50.4531C48.5071 49.4259 53.2726 45.3156 55.629 43.2816C55.8755 43.0706 56.1365 42.8451 56.3581 42.6632C62.6211 45.5222 71.6693 46.0518 78.2312 46.0024C93.6342 45.8685 95.9747 49.1 101.608 60.3397C105.895 68.8949 113.914 72.9761 118.135 74.6072C114.609 76.2076 107.177 78.2722 96.781 74.2172C83.246 68.9415 64.9834 63.9698 54.8401 70.2466C53.1413 71.2913 51.4804 72.4262 49.8735 73.529Z" fill="#EF5685"/>
<path d="M3.26057 12.1087C2.67729 10.7614 2.38564 9.3443 2.52271 8.013C2.52271 7.67254 2.64521 7.35681 2.69916 7.02798C2.82165 6.71807 2.89018 6.38925 3.05934 6.09534C3.35103 5.47588 3.73827 4.90589 4.20694 4.40612C4.39211 4.17766 4.61089 3.97849 4.85584 3.8154C5.07002 3.67476 5.30904 3.57601 5.56016 3.5244C5.96619 3.43976 6.38797 3.47205 6.7763 3.61752C6.85583 3.71167 6.92569 3.81355 6.98483 3.92161C7.19258 4.33141 7.31273 4.7798 7.33771 5.23837C7.35526 5.5024 7.35526 5.76729 7.33771 6.03133C7.32021 6.35142 7.31876 6.67151 7.32313 6.99161C7.33829 7.6315 7.3997 8.26946 7.50687 8.90053C7.72641 10.1513 8.17104 11.3521 8.81925 12.4448C9.45418 13.503 10.2535 14.4538 11.1874 15.2617C10.4872 14.2934 9.91022 13.2421 9.4696 12.132C9.06725 11.0494 8.83461 9.91133 8.77988 8.75795C8.76035 8.18922 8.7818 7.61983 8.84405 7.05417C8.85863 6.93195 8.8805 6.80973 8.898 6.68752C8.97091 6.84174 9.04382 6.99888 9.11235 7.15456C9.8225 8.63427 10.5822 10.0994 11.4542 11.5311C11.899 12.2606 12.3818 12.9663 12.9008 13.6452C13.2635 14.1062 13.6608 14.5391 14.0892 14.9401C14.025 15.1162 13.9434 15.2893 13.8967 15.4668C13.5234 16.7879 13.4243 18.1643 13.7392 19.4374C14.0433 18.2388 14.5402 17.0974 15.2106 16.0575C15.8387 15.1065 16.6365 14.2785 17.5641 13.6147C18.4842 12.9832 19.4598 12.5132 20.256 12.4943C20.6492 12.4684 21.0431 12.5342 21.4065 12.6864C21.6042 12.7636 21.7933 12.8611 21.9708 12.9774C22.1414 13.0807 22.3675 13.2684 22.4622 13.3237L22.5628 13.2509C22.4938 13.6839 22.4796 14.1238 22.5205 14.5604C23.4057 13.6656 24.2019 12.8799 24.9995 12.3415C25.784 11.7799 26.5437 11.6141 27.1868 11.6752C27.4785 11.729 27.5499 11.7537 27.703 11.908C27.8561 12.0622 27.9947 12.4332 28.0603 12.8624L28.0821 13.0268C28.1024 13.2427 28.1586 13.4536 28.2484 13.651C28.4398 14.0705 28.7793 14.4051 29.2021 14.5909C29.4923 14.7201 29.8097 14.7767 30.1268 14.7559C30.4439 14.7351 30.7511 14.6376 31.0219 14.4716L31.2231 14.3509C31.5679 14.1269 31.9542 13.974 32.3591 13.9013C33.1553 13.731 33.9252 13.9784 34.2635 14.4163C34.4604 14.6663 34.5736 14.9717 34.5872 15.2893C34.6043 15.7011 34.5449 16.1125 34.4122 16.5028C34.3028 16.8899 34.1163 17.2512 33.8639 17.5649C33.6052 17.8476 33.2924 18.0756 32.9438 18.2356C32.5426 18.4058 32.1159 18.5085 31.681 18.5397C31.2292 18.5793 30.7743 18.5637 30.3263 18.4932L29.1991 18.2924L28.8871 19.3109C28.8002 19.9238 28.592 20.5133 28.2746 21.0452C28.1298 21.2697 27.9262 21.4504 27.6859 21.5678C27.4456 21.6853 27.1777 21.735 26.9112 21.7116C26.2769 21.6868 25.5653 21.4089 24.9106 21.0452C24.24 20.6657 23.6118 20.216 23.0368 19.7037C23.4698 20.3674 23.9729 20.983 24.5373 21.5399C25.1205 22.0971 25.7767 22.6282 26.6648 22.9265C27.1427 23.0856 27.6526 23.1246 28.1492 23.04C28.6736 22.9381 29.1648 22.7093 29.5797 22.3736C30.0283 21.9889 30.414 21.5368 30.723 21.0336C31.108 21.0583 31.4943 21.0583 31.8793 21.0336C32.5929 20.9884 33.2941 20.8257 33.9543 20.552C34.6588 20.2464 35.2878 19.7911 35.7975 19.2177C36.2758 18.6447 36.6329 17.981 36.8474 17.2666C37.0817 16.5685 37.1807 15.8323 37.1391 15.0973C37.114 14.7503 37.0444 14.408 36.932 14.0788C37.056 13.9333 37.177 13.7878 37.2936 13.6423C37.8136 12.9637 38.2969 12.258 38.7416 11.5282C39.5924 10.1093 40.3711 8.6486 41.0748 7.15165C41.4063 6.45811 41.7266 5.7607 42.0357 5.0594C42.0357 5.10451 42.0357 5.15252 42.0357 5.2049C42.0425 5.54402 42.0757 5.8821 42.1349 6.2161C42.1874 6.49546 42.2253 6.77628 42.2603 7.05854C42.3221 7.62424 42.343 8.19362 42.323 8.76231C42.2688 9.91562 42.0366 11.0537 41.6347 12.1364C41.1936 13.2465 40.6161 14.2978 39.9155 15.266C40.8494 14.4581 41.6487 13.5073 42.2836 12.4492C42.9324 11.3567 43.3771 10.1558 43.596 8.9049C43.7025 8.27373 43.7639 7.63581 43.7797 6.99597C43.7797 6.67587 43.7797 6.35578 43.7652 6.03569C43.7476 5.77166 43.7476 5.50676 43.7652 5.24273C43.7887 4.78394 43.909 4.33527 44.118 3.92598C44.204 3.774 44.3073 3.63241 44.4257 3.50404C44.4947 3.5086 44.5633 3.51686 44.6313 3.52877C44.8825 3.58038 45.1215 3.67913 45.3356 3.81977C45.5806 3.98286 45.7994 4.18202 45.9846 4.41049C46.4532 4.91025 46.8405 5.48025 47.1322 6.09971C47.2999 6.3907 47.3699 6.72243 47.4923 7.03234C47.5448 7.36117 47.6644 7.6769 47.6688 8.01736C47.8146 9.35157 47.5098 10.7658 46.9309 12.1131C45.7644 14.8223 43.7229 17.2666 41.5239 19.4855L40.6796 20.3366L41.5239 21.2387C41.7679 21.5104 41.9921 21.7992 42.1947 22.103C42.4089 22.4308 42.6036 22.7709 42.778 23.1214C43.4818 24.5404 43.8077 26.1163 43.7243 27.6973C43.68 28.4939 43.5489 29.2832 43.3335 30.0515L43.179 30.6655L43.5508 31.1616C44.0445 31.8393 44.4671 32.5658 44.8122 33.3295C45.1619 34.0906 45.4227 34.8893 45.5894 35.7099C45.7394 36.4947 45.7606 37.2986 45.6521 38.0902C45.5573 38.8686 45.2394 39.5816 44.8792 40.2727L44.6357 40.7412L44.7436 41.2155C44.839 41.6719 44.885 42.1373 44.8807 42.6035C44.8785 43.0691 44.8172 43.5326 44.6984 43.9829C44.5886 44.4 44.4049 44.7942 44.156 45.1468C43.9314 45.5004 43.5931 45.755 43.2548 46.0198L42.5665 46.5465L42.7328 47.3686C42.7596 47.5229 42.7747 47.679 42.778 47.8356C42.7819 48.0185 42.7712 48.2015 42.7459 48.3827C42.6985 48.7398 42.5852 49.0851 42.4119 49.4012C42.2382 49.7219 42.0086 50.0091 41.7339 50.2494C41.4383 50.5118 41.1117 50.737 40.7613 50.9202L39.653 51.5473L40.1532 52.3591C40.3748 52.7883 40.532 53.2477 40.6198 53.7225C40.7232 54.2282 40.7502 54.7466 40.7 55.2604C40.6521 55.7945 40.4995 56.3141 40.2509 56.7895C40.0147 57.2959 39.6312 57.7251 39.2141 58.147C39.7752 57.9096 40.2919 57.579 40.7423 57.1693C41.2195 56.7333 41.6082 56.2096 41.887 55.627C42.143 55.094 42.3269 54.5293 42.4338 53.948C43.0171 55.7914 43.3437 58.6679 41.4772 61.7583L41.0398 62.4858L41.5516 63.155C41.5808 63.1972 42.3842 64.3103 42.4557 66.1799V66.5189C41.9745 68.6723 28.5444 79.7723 16.2546 77.8837C15.7683 77.5229 15.1946 77.2975 14.5923 77.2305C13.6022 76.6587 9.7452 74.2303 8.86591 70.6147L8.76238 70.3397C6.56195 66.0737 8.56552 63.2642 8.65301 63.1463L9.13715 62.4712L8.71718 61.7539C8.0025 60.6015 7.54731 59.3078 7.38315 57.9625C7.21899 56.6172 7.34977 55.2524 7.76643 53.9625C7.87367 54.537 8.05553 55.0951 8.30742 55.6227C8.58677 56.2053 8.97589 56.729 9.45357 57.1649C9.90352 57.5745 10.4197 57.9051 10.9803 58.1427C10.5647 57.7207 10.1812 57.2915 9.94498 56.7852C9.69658 56.3095 9.54353 55.7901 9.4944 55.256C9.44564 54.7422 9.47267 54.2241 9.57461 53.7181C9.6637 53.2436 9.82085 52.7845 10.0412 52.3548L10.5297 51.5269L9.42149 50.8998C9.07088 50.717 8.7442 50.4917 8.44886 50.2291C8.17413 49.9887 7.94454 49.7015 7.77081 49.3808C7.59752 49.0648 7.4843 48.7195 7.43687 48.3623C7.41182 48.1811 7.40061 47.9982 7.40334 47.8153C7.40695 47.6586 7.42254 47.5025 7.44999 47.3482L7.61623 46.5261L6.9265 45.9995C6.5882 45.7405 6.25135 45.4858 6.02678 45.1265C5.77786 44.7738 5.59415 44.3796 5.48433 43.9625C5.3655 43.5122 5.30426 43.0488 5.30206 42.5832C5.29805 42.117 5.34351 41.6517 5.43768 41.1951L5.54704 40.7208L5.30206 40.2523C4.94334 39.5626 4.62544 38.8497 4.53066 38.0698C4.42215 37.2782 4.44334 36.4743 4.59337 35.6895C4.7596 34.869 5.01989 34.0703 5.36913 33.3092C5.71521 32.5456 6.13833 31.8192 6.63194 31.1413L7.00379 30.6451L6.84921 30.0311C6.63383 29.2628 6.5028 28.4735 6.45842 27.677C6.37311 26.0958 6.69912 24.5194 7.4048 23.1011C7.57856 22.7502 7.77334 22.4101 7.98808 22.0826C8.19064 21.7789 8.41481 21.49 8.65885 21.2183L9.50316 20.3163L8.65885 19.4651C6.46862 17.2623 4.42714 14.8179 3.26057 12.1087ZM34.507 23.782C33.6291 23.782 32.7709 24.0418 32.041 24.5284C31.311 25.0151 30.7421 25.7068 30.4061 26.5161C30.0702 27.3253 29.9823 28.2159 30.1535 29.075C30.3248 29.9341 30.7475 30.7233 31.3683 31.3427C31.9891 31.9621 32.78 32.3839 33.641 32.5548C34.5021 32.7257 35.3946 32.638 36.2057 32.3027C37.0167 31.9675 37.71 31.3999 38.1977 30.6715C38.6855 29.9432 38.9458 29.0869 38.9458 28.2109C38.9458 27.6291 38.8309 27.0529 38.6076 26.5154C38.3844 25.9779 38.0572 25.4895 37.6447 25.0782C37.2322 24.6669 36.7425 24.3407 36.2036 24.1183C35.6648 23.8959 35.0873 23.7816 34.5041 23.782H34.507ZM12.7258 50.4328C14.6331 53.5217 18.3282 57.2027 25.0972 57.2027C31.8662 57.2027 35.5627 53.5217 37.4701 50.4328C38.7343 48.3856 39.0435 45.8627 38.345 43.3281C35.8223 34.2287 26.7785 32.314 25.103 32.314C23.4276 32.314 14.3852 34.2287 11.8625 43.3281C11.1495 45.8641 11.4586 48.3871 12.7229 50.4328H12.7258ZM15.6859 32.6442C16.5639 32.6442 17.4222 32.3845 18.1521 31.8977C18.8821 31.411 19.4511 30.7192 19.787 29.9098C20.1229 29.1005 20.2107 28.2099 20.0393 27.3507C19.8679 26.4916 19.445 25.7024 18.8241 25.0831C18.2032 24.4637 17.4122 24.042 16.551 23.8713C15.6899 23.7006 14.7973 23.7885 13.9863 24.1239C13.1752 24.4594 12.4821 25.0273 11.9945 25.7558C11.507 26.4843 11.2469 27.3407 11.2472 28.2168C11.247 28.7984 11.3617 29.3743 11.5847 29.9117C11.8077 30.449 12.1347 30.9372 12.5469 31.3484C12.9592 31.7596 13.4486 32.0857 13.9872 32.308C14.5258 32.5304 15.103 32.6446 15.6859 32.6442Z" fill="white"/>
<path d="M25.0942 45.5935C25.7183 46.5902 26.6982 47.517 27.9158 47.8211C28.1945 47.8863 28.4777 47.9306 28.7631 47.9535C28.6727 48.4813 28.434 48.9728 28.0748 49.3706C27.4609 50.021 26.4591 50.3513 25.0942 50.3513C23.7293 50.3513 22.7275 50.021 22.1136 49.3706C21.7548 48.9727 21.5166 48.4812 21.4268 47.9535C21.7117 47.9307 21.9944 47.8864 22.2726 47.8211C23.4989 47.5184 24.4715 46.5916 25.0942 45.5935Z" fill="#EFD9AB"/>
<path d="M25.0942 33.9683C26.4824 33.9683 34.523 35.7753 36.7395 43.769C37.3227 45.8554 37.0763 47.9142 36.0556 49.5656C34.3699 52.2951 31.0977 55.5499 25.0942 55.5499C19.0908 55.5499 15.8201 52.2951 14.1329 49.5656C13.1122 47.9142 12.8701 45.8569 13.4505 43.769C15.6669 35.7753 23.7075 33.9683 25.0942 33.9683ZM18.2946 47.194C18.4805 47.3171 18.6755 47.4261 18.8779 47.5199C18.9012 48.2707 19.1054 49.7809 20.2719 51.0409C21.3729 52.2311 22.9959 52.8364 25.0928 52.8364C27.1897 52.8364 28.8127 52.2311 29.9151 51.0409C31.0816 49.7809 31.2858 48.2765 31.3091 47.5199C31.5112 47.4255 31.7061 47.3166 31.8924 47.194C33.0196 46.4388 33.7224 45.1934 33.6131 43.9348C32.7921 44.8529 32.1053 45.6444 31.2304 46.0722C30.3554 46.5 29.3084 46.4185 28.505 46.0722C27.7015 45.7259 27.1751 45.0304 26.8441 44.1298C26.6263 43.5316 26.4794 42.9099 26.4066 42.2776C26.7779 42.1732 27.1335 42.0195 27.4638 41.8208C28.1769 41.3726 28.8258 40.6204 28.8127 39.7212C27.9961 39.9671 27.3894 39.9613 26.8062 39.9846H25.084H23.3619C22.7786 39.9628 22.1705 39.9657 21.3568 39.7183C21.3466 40.616 21.9941 41.3654 22.7057 41.8135C23.0357 42.0133 23.3913 42.1675 23.7629 42.2718C23.6908 42.9052 23.544 43.5279 23.3254 44.1269C22.9944 45.0275 22.4505 45.7274 21.6631 46.0693C20.8756 46.4112 19.7951 46.4738 18.9391 46.0693C18.0832 45.6648 17.3774 44.85 16.5564 43.9319C16.4646 45.1905 17.1674 46.4359 18.2946 47.194Z" fill="#EFD9AB"/>
<path d="M37.0297 30.5113C36.863 30.5113 36.7001 30.462 36.5614 30.3696C36.4228 30.2772 36.3148 30.1458 36.251 29.9922C36.1872 29.8385 36.1705 29.6694 36.2031 29.5063C36.2356 29.3431 36.3159 29.1933 36.4337 29.0757C36.5516 28.958 36.7018 28.878 36.8653 28.8455C37.0288 28.8131 37.1982 28.8297 37.3522 28.8934C37.5063 28.957 37.6379 29.0648 37.7305 29.2031C37.8231 29.3414 37.8726 29.504 37.8726 29.6703C37.8727 29.7808 37.8511 29.8903 37.8088 29.9924C37.7665 30.0945 37.7044 30.1873 37.6261 30.2654C37.5478 30.3435 37.4548 30.4055 37.3525 30.4477C37.2501 30.4899 37.1404 30.5115 37.0297 30.5113Z" fill="white"/>
<path d="M33.0678 30.1912C32.6257 30.1912 32.1935 30.0604 31.8258 29.8153C31.4582 29.5702 31.1717 29.2218 31.0025 28.8143C30.8333 28.4067 30.789 27.9582 30.8753 27.5256C30.9616 27.0929 31.1745 26.6955 31.4871 26.3835C31.7997 26.0716 32.198 25.8591 32.6317 25.7731C33.0653 25.687 33.5148 25.7312 33.9232 25.9C34.3317 26.0688 34.6808 26.3547 34.9265 26.7215C35.1721 27.0883 35.3032 27.5196 35.3032 27.9607C35.3032 28.5523 35.0677 29.1196 34.6485 29.5379C34.2293 29.9562 33.6607 30.1912 33.0678 30.1912Z" fill="white"/>
<path d="M18.2115 28.8308C18.3783 28.8305 18.5415 28.8796 18.6803 28.9719C18.8191 29.0642 18.9274 29.1956 18.9913 29.3493C19.0553 29.503 19.0721 29.6722 19.0397 29.8355C19.0072 29.9988 18.9269 30.1487 18.8089 30.2664C18.691 30.3841 18.5406 30.4643 18.377 30.4967C18.2134 30.5291 18.0438 30.5123 17.8897 30.4485C17.7356 30.3846 17.604 30.2766 17.5115 30.1381C17.419 29.9996 17.3698 29.8368 17.3701 29.6703C17.3701 29.4477 17.4587 29.2341 17.6165 29.0767C17.7743 28.9193 17.9883 28.8308 18.2115 28.8308Z" fill="white"/>
<path d="M11.9237 78.4571C11.7484 78.6716 11.59 78.8992 11.4498 79.138C10.8399 79.38 10.2589 79.6889 9.71744 80.059C8.35694 78.5226 5.60823 74.8095 6.0209 70.2976C6.15505 70.6381 6.30378 70.9829 6.48168 71.3394C7.36681 74.7309 10.0907 77.1549 11.9237 78.4571Z" fill="#EF5685"/>
<path d="M14.2495 25.7302C14.6915 25.7311 15.1232 25.8626 15.4903 26.1082C15.8573 26.3539 16.1432 26.7025 16.3117 27.1102C16.4802 27.5178 16.5239 27.9661 16.4371 28.3985C16.3504 28.8309 16.1371 29.2279 15.8243 29.5394C15.5115 29.8509 15.1132 30.0629 14.6796 30.1486C14.2461 30.2343 13.7969 30.1899 13.3887 30.021C12.9805 29.852 12.6316 29.5661 12.3862 29.1994C12.1407 28.8327 12.0097 28.4017 12.0097 27.9607C12.0099 27.6675 12.068 27.3772 12.1807 27.1064C12.2934 26.8355 12.4584 26.5895 12.6664 26.3824C12.8744 26.1753 13.1213 26.0111 13.3929 25.8992C13.6646 25.7872 13.9556 25.7298 14.2495 25.7302Z" fill="white"/>
<path d="M18.3647 51.8034C18.8969 51.0948 17.6545 49.3299 17.6545 49.3299C15.1756 46.8565 16.5726 43.9465 16.5726 43.9465C16.4647 45.2051 17.1675 46.4505 18.2932 47.2057C18.4794 47.3285 18.6743 47.4374 18.8765 47.5316C18.8998 48.2809 19.104 49.7926 20.2691 51.0526C21.3715 52.2428 22.9945 52.8481 25.0914 52.8481C27.1883 52.8481 28.8113 52.2428 29.9137 51.0526C31.0802 49.7926 31.2829 48.2882 31.3077 47.5316C31.5099 47.4375 31.7049 47.3285 31.891 47.2057C33.0182 46.4505 33.7211 45.2051 33.6117 43.9465C33.6117 43.9465 35.0159 46.8565 32.5297 49.3299C32.5297 49.3299 31.2873 51.1021 31.8196 51.8034C32.3518 52.5047 36.2379 49.5176 37.0268 45.6576C37.1022 47.0284 36.7623 48.3902 36.0513 49.5656C34.3656 52.2952 31.0934 55.5485 25.0899 55.5485C19.0865 55.5485 15.8143 52.2952 14.1286 49.5656C13.419 48.3896 13.0791 47.0283 13.1531 45.6576C13.9478 49.522 17.8354 52.5076 18.3647 51.8034Z" fill="#D1B990"/>
<path d="M36.7395 44.6056C34.5216 36.6119 26.481 34.8034 25.0943 34.8034C23.7075 34.8034 15.667 36.6119 13.4505 44.6056C13.2899 45.1822 13.1921 45.7744 13.1589 46.3719C13.1142 45.4942 13.2127 44.6151 13.4505 43.769C15.667 35.7753 23.7075 33.9668 25.0943 33.9668C26.481 33.9668 34.5216 35.7753 36.7395 43.769C36.9773 44.6151 37.0758 45.4942 37.0311 46.3719C36.9971 45.7744 36.8994 45.1823 36.7395 44.6056Z" fill="white"/>
<path d="M22.2726 47.8225C23.4989 47.5184 24.4716 46.5916 25.0942 45.595C25.7183 46.5916 26.6982 47.5184 27.9158 47.8225C28.1945 47.8878 28.4777 47.9321 28.7631 47.9549C28.6727 48.4828 28.434 48.9742 28.0748 49.3721C27.4609 50.0225 26.4576 50.3527 25.0942 50.3527C23.7308 50.3527 22.7275 50.0225 22.1136 49.3721C21.755 48.9738 21.5164 48.4826 21.4254 47.9549C21.7107 47.9323 21.9939 47.888 22.2726 47.8225ZM25.0942 49.5001C26.7682 49.5001 27.0307 48.4365 27.0307 48.4365C26.1441 48.6737 25.0942 47.9738 25.0942 47.9738C25.0942 47.9738 24.0458 48.6737 23.1577 48.4365C23.1577 48.4365 23.4216 49.5001 25.0942 49.5001Z" fill="#D1B990"/>
<path d="M40.681 20.3322C40.681 20.3322 50.8652 8.80158 43.5858 4.24023C43.5858 4.24023 45.0542 11.2052 39.9184 15.266C39.9184 15.266 39.2782 18.1018 40.681 20.3322Z" fill="#D2C8DB"/>
<path d="M9.50896 20.3322C9.50896 20.3322 0.236234 8.80158 7.51414 4.24023C7.51414 4.24023 6.04717 11.2052 11.1815 15.266C11.1815 15.266 11.5417 17.6144 9.50896 20.3322Z" fill="#D2C8DB"/>
<path d="M68.9075 145.512C67.2476 145.17 65.5275 145.259 63.9118 145.77C62.2962 146.281 60.839 147.197 59.6799 148.431C60.2794 145.477 60.3491 142.441 59.8855 139.463L66.8062 139.754C67.7628 139.794 68.9075 139.956 69.3041 140.826C69.4718 141.196 69.4572 141.619 69.4397 142.026C69.3755 143.522 69.3109 145.019 69.2458 146.516C69.1714 146.132 68.9862 145.905 68.9075 145.512Z" fill="#D1B990"/>
<path d="M38.3873 143.416C36.9039 143.918 35.6627 144.956 34.908 146.326C34.033 144.323 33.1581 142.319 32.2832 140.314C34.1663 139.622 36.1642 139.296 38.17 139.351C39.0449 139.375 39.9548 139.486 40.6854 139.968C41.3518 140.404 42.6452 142.06 42.2267 142.942C41.954 143.524 41.1841 143.144 40.6795 143.116C39.9034 143.073 39.1259 143.174 38.3873 143.416Z" fill="#D1B990"/>
<path d="M18.9231 142.851C17.1837 142.971 15.5469 143.717 14.3166 144.949C14.2962 143.069 14.2768 141.19 14.2583 139.31L20.2297 139.567C21.0171 139.601 21.8424 139.646 22.5088 140.063C23.2292 140.513 23.6477 141.338 23.795 142.173C23.8518 142.492 24.0735 143.765 23.8212 144.034C23.5019 144.373 22.8588 143.726 22.4899 143.548C21.3802 143.016 20.1522 142.776 18.9231 142.851Z" fill="#D1B990"/>
<path d="M57.3877 71.5896C57.3877 71.5896 49.2888 86.7068 27.6811 89.0842C27.6811 89.0842 28.7485 93.0825 27.0308 97.4518C27.0308 97.4518 18.3311 98.2797 14.5427 91.6654C14.5427 91.6654 8.33364 96.3897 3.27221 94.0282L2.48624 87.4139L3.27221 81.7395L4.01007 76.1902L4.59335 75.1717L7.90785 79.6822L8.94463 81.6173C8.94463 81.6173 7.36103 83.2774 6.98336 84.9274C6.60568 86.5773 5.42307 89.7666 5.42307 89.7666L5.97135 90.238C5.97135 90.238 10.8374 90.3835 11.9165 89.074C12.9955 87.7646 13.277 86.8145 13.277 86.8145L15.7195 85.6708L16.4573 86.6893L19.6391 91.7672L21.4196 93.6587L24.4366 93.423L25.087 92.55V86.8086L24.4366 84.9172L40.8429 79.672L51.7503 72.2487L57.3877 71.5896Z" fill="#D2C8DB"/>
<path d="M55.2369 127.203L56.7198 133.474L48.4941 130.747C47.94 130.564 47.3276 130.337 47.0695 129.819C46.8289 129.348 46.947 128.782 47.0695 128.268L48.465 122.483C48.5977 121.932 48.7391 121.361 49.0949 120.92C50.1317 119.639 52.6223 118.962 53.5628 120.16C54.674 121.577 54.8169 125.425 55.2369 127.203Z" fill="#D2C8DB"/>
<path d="M19.2235 119.125C19.0856 121.725 19.3587 124.331 20.0328 126.846C20.5753 128.869 21.3787 130.846 21.5391 132.934C21.6995 135.022 21.0667 137.338 19.3197 138.499C20.8727 140.635 24.4964 140.16 26.1923 138.134C27.8882 136.109 28.0617 133.212 27.7117 130.596C27.327 127.731 26.4222 124.959 25.0417 122.418C23.6696 119.895 21.8526 117.644 20.0459 115.41C18.7846 113.851 16.4077 109.537 14.5047 109.077C14.5047 110.915 15.2601 112.914 16.0504 114.559C16.4806 115.461 19.2585 118.425 19.2235 119.125Z" fill="#D2C8DB"/>
<path d="M57.8966 136.675L59.3038 138.732L67.4522 139.448C68.5444 139.544 71.3792 139.495 70.9388 137.689C70.6647 136.56 67.8576 135.764 66.9025 135.506C65.3396 135.081 63.7064 134.977 62.1021 135.201C61.7579 135.25 57.7216 136.423 57.8966 136.675Z" fill="#D2C8DB"/>
<path d="M34.5041 32.6443C33.6261 32.6443 32.7679 32.3845 32.0379 31.8977C31.3079 31.411 30.739 30.7192 30.403 29.9099C30.0671 29.1005 29.9793 28.2099 30.1507 27.3507C30.3221 26.4916 30.745 25.7024 31.3659 25.0831C31.9868 24.4637 32.7779 24.042 33.639 23.8713C34.5002 23.7006 35.3927 23.7885 36.2037 24.1239C37.0148 24.4594 37.708 25.0273 38.1955 25.7558C38.6831 26.4843 38.9432 27.3408 38.9429 28.2168C38.9429 28.7983 38.8281 29.3742 38.605 29.9114C38.3819 30.4487 38.0549 30.9368 37.6427 31.348C37.2305 31.7591 36.7412 32.0852 36.2026 32.3077C35.6641 32.5301 35.0869 32.6444 34.5041 32.6443ZM33.0678 25.736C32.6256 25.736 32.1934 25.8669 31.8258 26.1119C31.4582 26.357 31.1717 26.7054 31.0025 27.113C30.8333 27.5205 30.789 27.969 30.8753 28.4017C30.9615 28.8343 31.1744 29.2318 31.4871 29.5437C31.7997 29.8556 32.198 30.0681 32.6317 30.1541C33.0653 30.2402 33.5147 30.196 33.9232 30.0272C34.3317 29.8584 34.6808 29.5725 34.9264 29.2057C35.1721 28.8389 35.3032 28.4077 35.3032 27.9665C35.304 27.6731 35.2467 27.3825 35.1347 27.1112C35.0227 26.8399 34.8582 26.5933 34.6505 26.3856C34.4429 26.1778 34.1962 26.013 33.9246 25.9006C33.653 25.7881 33.3618 25.7302 33.0678 25.7302V25.736ZM37.0297 28.8366C36.8629 28.8366 36.6999 28.886 36.5613 28.9784C36.4227 29.0709 36.3146 29.2023 36.2509 29.3561C36.1871 29.5098 36.1705 29.679 36.2032 29.8422C36.2358 30.0053 36.3162 30.1552 36.4342 30.2727C36.5523 30.3903 36.7026 30.4703 36.8662 30.5026C37.0298 30.5348 37.1993 30.518 37.3533 30.4541C37.5072 30.3902 37.6388 30.2822 37.7312 30.1437C37.8237 30.0052 37.8728 29.8425 37.8726 29.6761C37.8733 29.5652 37.8521 29.4553 37.8101 29.3527C37.768 29.2501 37.706 29.1568 37.6277 29.0782C37.5493 28.9996 37.4561 28.9373 37.3535 28.8948C37.2509 28.8523 37.1408 28.8306 37.0297 28.8308V28.8366Z" fill="#3A2033"/>
<path d="M3.59884 17.4759C2.5375 16.1235 1.65259 14.6421 0.965324 13.0673C0.278511 11.4668 -0.147293 9.6292 0.048111 7.74791C0.211426 5.86372 1.13448 4.06974 2.3652 2.73698C2.6981 2.34398 3.0861 2.00095 3.51719 1.7185C3.98295 1.41949 4.50005 1.20887 5.04247 1.09723C6.12754 0.865826 7.25974 1.0278 8.23594 1.55409C8.72473 1.81096 9.16135 2.15633 9.52353 2.57257C9.70592 2.7794 9.87032 3.00136 10.0149 3.23604C10.1331 3.45574 10.2964 3.76419 10.3562 3.91551C10.6755 4.643 11.0094 5.36321 11.3492 6.0776C12.0185 7.5005 12.7593 8.88885 13.5686 10.2374C13.9636 10.8851 14.392 11.5121 14.8518 12.1157C14.9976 12.3063 15.1581 12.4882 15.317 12.6628C15.5324 12.3801 15.7662 12.1118 16.0169 11.8597C16.5247 11.3266 17.1037 10.8659 17.7376 10.4905C18.4367 10.0635 19.2232 9.79892 20.0387 9.71649C20.6666 9.6582 21.2998 9.72615 21.9009 9.91634C22.502 10.1065 23.0589 10.4151 23.5384 10.8237C23.979 10.2148 24.5655 9.72571 25.2444 9.40114C25.9232 9.07658 26.6727 8.92689 27.4245 8.96573C28.2761 8.99192 29.3303 9.51134 29.8538 10.297C30.1708 10.7566 30.396 11.2729 30.5173 11.8175C30.9573 11.6169 31.42 11.4703 31.8953 11.381C32.6536 11.2327 33.4362 11.2635 34.1803 11.4712C34.6109 11.5956 35.0193 11.7866 35.3906 12.0372C35.8281 11.4741 36.2277 10.8732 36.617 10.2388C37.4219 8.91626 38.151 7.51512 38.8349 6.08633C39.1761 5.37194 39.5101 4.65173 39.828 3.92424C39.8892 3.77874 40.0511 3.46447 40.1707 3.24477C40.3153 3.01044 40.4791 2.78852 40.6606 2.5813C41.0236 2.16536 41.4607 1.82005 41.9497 1.56282C42.9259 1.03653 44.0581 0.874556 45.1431 1.10595C45.6852 1.21735 46.2018 1.428 46.667 1.72723C47.0988 2.00931 47.4873 2.35237 47.8204 2.74571C49.0511 4.07847 49.9742 5.87245 50.136 7.75664C50.3329 9.63793 49.9056 11.4712 49.2203 13.076C48.5325 14.6506 47.6476 16.1319 46.5868 17.4846C46.0983 18.1786 45.5208 18.7781 44.99 19.4284C44.6823 19.7689 44.363 20.0963 44.0466 20.428C44.118 20.5269 44.1924 20.6273 44.2595 20.7321C44.5352 21.1491 44.785 21.5825 45.0075 22.0299C45.9012 23.8273 46.3151 25.8244 46.2091 27.828C46.1727 28.6132 46.0589 29.393 45.8693 30.156C46.3311 30.8408 46.7354 31.5625 47.0782 32.3137C47.511 33.2563 47.832 34.246 48.0348 35.2629C48.2352 36.3186 48.2613 37.3998 48.112 38.4639C47.9725 39.3787 47.6807 40.2639 47.2488 41.0828C47.3326 41.5916 47.3726 42.1066 47.3684 42.6222C47.3644 43.3041 47.2733 43.9828 47.0971 44.6417C46.9095 45.3354 46.6004 45.9905 46.1843 46.5768C45.9242 46.9534 45.6125 47.2919 45.2583 47.5822V47.6069C48.376 46.248 52.1994 42.951 54.0076 41.4015C55.5022 40.1124 55.7297 39.9101 56.3772 40.0018C56.6171 40.0448 56.8479 40.1285 57.0596 40.2491C62.8924 43.0529 71.7787 43.5737 78.2036 43.5184C95.2165 43.3919 98.1708 47.9416 103.826 59.2322C109.177 69.8913 121.362 73.0719 121.483 73.1024L124 73.7368L121.929 75.2951C121.524 75.6021 111.782 82.7256 95.8741 76.5231C79.7843 70.2492 66.9681 68.333 59.1711 70.952C59.451 71.0073 59.731 71.0538 60.011 71.1251C60.982 71.3892 61.9137 71.7806 62.7816 72.2891C63.4462 72.6976 64.0512 73.1955 64.5796 73.7688C64.9733 73.7412 65.3437 73.7339 65.7374 73.7368C66.3615 73.7467 66.9844 73.7953 67.6024 73.8823C68.8544 74.0555 70.077 74.3982 71.2363 74.9008C73.6039 75.9254 75.5862 77.6706 76.8999 79.887C78.2225 82.0534 78.8816 84.4716 79.2331 86.8403C79.5393 89.0228 79.5422 91.2052 79.4154 93.3571C79.6453 93.689 79.8566 94.0334 80.0482 94.3887C80.3272 94.9052 80.5708 95.4399 80.7773 95.9892C81.2049 97.1146 81.4428 98.3029 81.4816 99.5059C81.5302 100.732 81.337 101.955 80.9129 103.107C80.6225 103.94 80.2229 104.732 79.7245 105.461L79.7493 105.522C79.8703 105.826 79.9593 106.132 80.0599 106.437C80.2339 107.048 80.366 107.67 80.4551 108.298C80.6335 109.553 80.6364 110.826 80.4638 112.081C80.2923 113.324 79.9599 114.539 79.4751 115.697C79.2681 116.288 78.9443 116.816 78.676 117.373C78.4952 117.7 78.2984 118.015 78.0928 118.329C78.1409 118.572 78.1773 118.802 78.2123 119.056C78.2708 119.524 78.3009 119.994 78.3027 120.465C78.3094 121.408 78.1918 122.347 77.9528 123.26C77.721 124.175 77.368 125.056 76.9029 125.879C76.6137 126.409 76.2765 126.912 75.8952 127.38V127.392C75.9868 127.754 76.0329 128.126 76.0323 128.499C76.0288 129.207 75.8752 129.907 75.5817 130.552C75.3168 131.133 74.9734 131.674 74.561 132.161C74.3598 132.381 74.16 132.598 73.9529 132.812L73.9033 132.857C73.9297 133.439 73.9194 134.022 73.8727 134.603C73.8098 135.477 73.6354 136.339 73.3536 137.169C73.0458 138.073 72.5638 138.909 71.9348 139.628C71.4343 140.157 70.8413 140.591 70.1849 140.907C70.1266 144.078 70.0828 147.248 69.9895 150.418L69.921 153.05L69.8874 154.36C69.886 154.643 69.8617 154.925 69.8145 155.204C69.7641 155.513 69.678 155.815 69.5579 156.104C69.3228 156.684 68.9664 157.207 68.5125 157.638C68.0586 158.069 67.5176 158.398 66.9258 158.604C66.6313 158.709 66.3262 158.78 66.0159 158.818C65.7419 158.848 65.4661 158.86 65.1906 158.853H63.8782L58.5995 158.821H58.4288L58.1853 158.808C58.0226 158.798 57.8609 158.776 57.7012 158.744C57.3804 158.679 57.0692 158.574 56.7752 158.431C56.1868 158.145 55.682 157.713 55.3092 157.176C54.9363 156.639 54.7081 156.015 54.6463 155.365C54.6176 155.048 54.6274 154.728 54.6754 154.412C54.7133 154.168 54.7571 153.926 54.8125 153.685C55.0228 152.704 55.388 151.762 55.8945 150.896C56.4224 150.023 57.1952 149.173 58.2276 148.69C58.4167 148.604 58.6116 148.532 58.8109 148.474L58.6811 148.447C59.3067 145.583 58.9728 141.819 58.7759 140.191C58.4719 140.02 58.1882 139.816 57.9301 139.582C57.7151 139.384 57.5175 139.168 57.3396 138.937C57.1937 138.752 57.0479 138.568 56.9167 138.375C56.6382 137.997 56.3801 137.601 56.1322 137.198C55.6283 136.378 55.2138 135.506 54.8956 134.597C54.7887 134.293 54.6972 133.983 54.6215 133.67C54.3562 133.7 54.0894 133.716 53.8224 133.718C52.4779 133.718 51.0182 133.343 50.031 132.161H49.9683C49.2573 132.161 48.5507 132.051 47.8729 131.837C47.8831 132.08 47.8904 132.324 47.8904 132.574C47.8843 133.86 47.6319 135.133 47.1467 136.324C46.6333 137.569 45.7856 138.648 44.6969 139.443C44.1836 139.868 43.6033 140.142 43.0273 140.424C44.2802 143.107 45.1946 145.935 45.7497 148.843C46.0996 150.652 46.2618 152.493 46.2339 154.335V154.862L46.2135 155.111C46.1831 155.444 46.1121 155.773 46.002 156.09C45.7229 156.867 45.2305 157.55 44.581 158.061C43.9315 158.572 43.1511 158.891 42.3288 158.981C42.1669 159.001 42.0036 159.001 41.8418 159.007H41.5049C39.7551 158.992 38.0052 158.94 36.2554 158.898L34.943 158.864L34.5799 158.853C34.4135 158.847 34.2478 158.828 34.0841 158.798C33.755 158.739 33.4353 158.637 33.1333 158.493C32.5377 158.208 32.0322 157.765 31.6721 157.213C31.312 156.66 31.1113 156.02 31.0919 155.361C31.0882 155.201 31.094 155.041 31.1094 154.882L31.1458 154.562L31.2348 153.899C31.2989 153.445 31.3806 152.979 31.4929 152.506C31.6033 152.01 31.7768 151.531 32.0091 151.079C32.2546 150.574 32.6098 150.129 33.0488 149.778C33.1534 149.697 33.264 149.624 33.3798 149.56C33.3463 147.568 33.0138 143.725 31.7451 141.927C31.5601 141.899 31.3766 141.862 31.1954 141.815C30.8158 141.718 30.4478 141.581 30.0974 141.406C29.3412 141.024 28.7159 140.427 28.3008 139.689C28.0952 139.29 27.9479 138.864 27.8634 138.423C27.0533 139.8 25.8373 140.894 24.3812 141.556C24.5731 142.934 24.6855 144.321 24.718 145.711C24.7726 147.446 24.6858 149.181 24.4585 150.901L24.2572 152.198L23.9962 153.49L23.6652 154.772C23.5171 155.295 23.2962 155.795 23.009 156.257C22.4269 157.195 21.5767 157.938 20.568 158.39C20.0666 158.616 19.5352 158.768 18.9902 158.843C18.7213 158.877 18.4505 158.895 18.1795 158.895L17.5524 158.888L12.5347 158.838H11.9077C11.829 158.838 11.6307 158.83 11.4702 158.816C11.3076 158.802 11.1462 158.775 10.9876 158.736C10.3451 158.582 9.76186 158.243 9.30917 157.763C8.86598 157.292 8.56481 156.706 8.44023 156.072C8.31566 155.438 8.37272 154.782 8.60487 154.179C8.64871 154.056 8.70286 153.936 8.76673 153.821L8.92129 153.516L9.26398 152.916C9.50474 152.515 9.77731 152.133 10.0791 151.774C10.6969 151.023 11.4724 150.415 12.351 149.995C12.5587 149.902 12.772 149.822 12.9897 149.755C13.0684 148.214 13.3295 142.334 13.0101 139.182C9.3223 134.526 8.48966 125.631 8.34384 123.734C4.98122 118.496 4.80041 106.81 4.79604 104.651C2.5052 100.388 2.47749 96.4126 2.53728 95.1482C-1.6784 87.1575 2.78954 75.2049 3.63093 73.1112C3.22118 70.4791 3.56385 67.4891 5.45369 64.3813C5.6131 63.6898 5.85801 63.0207 6.18279 62.3895C3.61198 57.5342 5.19411 53.1926 6.09528 51.3942C5.89318 51.1342 5.71088 50.8594 5.54992 50.5722C5.23919 50.0009 5.03421 49.3784 4.94478 48.7345C4.89989 48.4175 4.88039 48.0973 4.88644 47.7772C4.88644 47.7131 4.88644 47.6535 4.89519 47.5938C4.54092 47.3031 4.22881 46.9648 3.96777 46.5884C3.55204 46.002 3.2435 45.3469 3.05639 44.6533C2.87954 43.9945 2.78838 43.3158 2.78516 42.6338C2.78114 42.1183 2.82066 41.6034 2.90329 41.0945C2.47202 40.2753 2.18027 39.3902 2.04002 38.4755C1.89126 37.4114 1.91786 36.3301 2.11877 35.2746C2.3215 34.2577 2.64252 33.2679 3.07535 32.3253C3.4181 31.5741 3.82243 30.8524 4.2842 30.1676C4.09389 29.4048 3.98006 28.625 3.94443 27.8396C3.83845 25.836 4.25232 23.839 5.14601 22.0416C5.368 21.5938 5.61784 21.1604 5.89407 20.7437C5.96552 20.639 6.03989 20.5386 6.1055 20.4396C5.79053 20.1079 5.47119 19.7805 5.16351 19.4401C4.6648 18.7693 4.08733 18.1699 3.59884 17.4759ZM29.6818 12.2816C29.6482 12.3049 29.6672 12.2932 29.6934 12.2816H29.6818ZM96.7797 74.2126C107.175 78.2676 114.608 76.2073 118.134 74.6025C113.912 72.9715 105.893 68.8903 101.606 60.335C95.9733 49.0954 93.6329 45.8639 78.2298 45.9977C71.6679 46.0472 62.6139 45.5176 56.3567 42.6586C56.1424 42.8404 55.8814 43.066 55.6276 43.2769C53.2712 45.3139 48.5058 49.4213 44.6546 50.4485C44.6357 50.4849 44.6255 50.5241 44.6051 50.5605C44.4442 50.8475 44.2624 51.1223 44.0611 51.3826C44.9623 53.1809 46.5401 57.524 43.9722 62.3807C44.6279 63.6614 44.9607 65.0822 44.9419 66.5201L44.9259 67.7496H44.5876C43.9007 69.1071 42.3215 70.6275 40.942 71.7886C36.4318 75.5875 29.3508 79.5363 22.0276 80.3991C22.0764 80.6246 22.1052 80.8539 22.1137 81.0844C22.9203 81.6742 23.6489 82.3636 24.282 83.1359C36.2481 82.81 43.1789 78.0959 49.8721 73.5244C51.4761 72.4259 53.1399 71.291 54.8373 70.242C64.982 63.9652 83.2446 68.9368 96.7797 74.2126ZM19.0456 85.9659C18.721 86.3264 18.3392 86.6311 17.9155 86.868C18.2072 88.7303 18.9363 90.1576 20.0824 91.1165C21.456 92.2601 23.168 92.5191 24.1552 92.5714C25.2999 87.9155 22.7728 84.9183 21.2388 83.5841C21.1629 83.6757 21.0929 83.7674 21.0025 83.8576C20.5024 84.3698 19.8608 85.0609 19.0456 85.9659ZM19.4831 80.5708C18.1517 80.5909 16.8213 80.4905 15.508 80.2711L15.1318 80.194L14.8635 79.9466C14.7599 79.8535 14.4596 79.6556 14.2612 79.6978C14.0629 79.74 13.7567 80.0136 13.4286 80.6901C13.0888 81.3943 13.3251 82.5481 14.0936 83.9376C14.2408 84.2082 14.4516 84.4391 14.7078 84.6106C14.9641 84.7822 15.2581 84.8892 15.5649 84.9227C15.8653 84.9596 16.1702 84.923 16.4532 84.8161C16.7362 84.7091 16.9889 84.5349 17.1893 84.3086C18.0263 83.3789 18.6913 82.6631 19.2221 82.1262C19.782 81.5544 19.6916 80.9811 19.4904 80.5708H19.4831ZM57.2142 154.188C57.1763 154.377 57.1471 154.568 57.1179 154.757C57.1036 154.877 57.1036 154.998 57.1179 155.118C57.147 155.344 57.2305 155.561 57.3614 155.748C57.4982 155.933 57.6778 156.083 57.8849 156.184C57.987 156.232 58.0949 156.266 58.2057 156.286C58.262 156.297 58.3191 156.303 58.3764 156.305H58.4624H58.6199L63.8986 156.275L65.211 156.266C65.3751 156.271 65.5393 156.263 65.7024 156.244C65.8291 156.228 65.9535 156.197 66.0728 156.151C66.3131 156.063 66.5323 155.926 66.7159 155.748C66.8996 155.57 67.0436 155.355 67.1387 155.118C67.1891 155.002 67.2244 154.879 67.2437 154.754C67.2691 154.6 67.2808 154.444 67.2787 154.289L67.3152 152.979L67.3881 150.347C67.4624 147.228 67.5849 144.11 67.6958 140.992C67.2221 140.869 66.7422 140.771 66.258 140.701C65.482 140.591 64.6978 140.55 63.9146 140.578C63.5238 140.591 63.1374 140.626 62.7481 140.671L62.1735 140.76C61.9065 140.806 61.6365 140.833 61.3657 140.84C61.5479 142.732 61.7011 145.748 61.2388 148.377C61.3001 148.392 61.3671 148.396 61.4284 148.413C62.3849 148.686 63.2124 149.291 63.7615 150.119C61.8031 150.119 60.2954 149.761 59.2279 150.523C58.1999 151.224 57.5306 152.679 57.2142 154.188ZM50.4802 129.649L51.3551 129.503L51.7765 130.279C52.2825 131.208 53.4739 131.281 54.3488 131.191C54.3529 130.509 54.4371 129.829 54.5996 129.167C53.3711 126.588 52.6583 123.796 52.5012 120.945C52.5012 120.894 52.5012 120.842 52.5012 120.791C51.5452 121.388 50.4802 121.79 49.3676 121.975C49.4492 122.224 49.5236 122.476 49.5863 122.73C49.7984 123.626 49.839 124.554 49.7059 125.465C49.5777 126.385 49.2647 127.269 48.7857 128.064C48.5772 128.477 48.2797 128.809 48.0143 129.171C49.1022 129.844 50.4743 129.651 50.486 129.649H50.4802ZM33.4454 155.208C33.4806 155.424 33.5703 155.628 33.706 155.8C33.8416 155.973 34.0189 156.108 34.2212 156.193C34.318 156.231 34.4196 156.255 34.523 156.266C34.5749 156.27 34.6271 156.27 34.679 156.266C34.7184 156.266 34.8788 156.266 34.9707 156.266L36.2831 156.234C38.0329 156.19 39.7828 156.139 41.5326 156.125H41.852C41.9074 156.116 41.9642 156.125 42.0197 156.109C42.1297 156.094 42.2374 156.065 42.3405 156.024C42.5482 155.948 42.7353 155.824 42.8873 155.663C43.0333 155.511 43.1425 155.327 43.2066 155.127C43.2363 155.032 43.2563 154.934 43.2664 154.836V154.758V154.302C43.2717 152.65 43.1282 151.002 42.8377 149.377C42.2973 146.425 41.4614 143.534 40.3427 140.749L39.9548 140.615C39.9898 140.658 39.9257 140.586 39.8936 140.561C39.8615 140.536 39.8046 140.49 39.7609 140.452C39.6591 140.376 39.5507 140.309 39.4372 140.252C39.1957 140.128 38.9387 140.037 38.6731 139.98C38.0745 139.869 37.4591 139.887 36.8678 140.031C36.5446 140.099 36.226 140.188 35.9142 140.296C35.5977 140.423 35.2784 140.551 34.9619 140.695C34.7038 140.84 34.4428 140.965 34.1847 141.108C35.5933 143.66 35.8529 147.524 35.8937 149.313C35.9798 149.336 36.0673 149.358 36.1504 149.385C37.0158 149.687 37.8213 150.138 38.5302 150.718C37.7017 150.479 36.8502 150.329 35.99 150.27C35.1719 150.255 34.453 150.447 34.1133 150.925C33.7239 151.361 33.5839 152.089 33.4935 152.857C33.4541 153.244 33.4396 153.647 33.4352 154.063V154.706L33.4279 155.039C33.4381 155.092 33.4308 155.153 33.4454 155.208ZM13.1895 151.425C12.6231 151.852 12.1465 152.385 11.7867 152.995C11.6015 153.306 11.4177 153.628 11.2573 153.964L11.0328 154.481L10.9307 154.745C10.9007 154.817 10.8754 154.891 10.8549 154.967C10.7955 155.151 10.79 155.348 10.8391 155.536C10.8882 155.723 10.9898 155.893 11.1319 156.024C11.257 156.155 11.4196 156.243 11.5971 156.277C11.6417 156.288 11.6871 156.294 11.7327 156.296C11.7881 156.296 11.7983 156.305 11.9296 156.296H12.5566L17.5743 156.245H18.2013C18.3477 156.241 18.4938 156.229 18.6388 156.208C18.9228 156.163 19.1989 156.077 19.4583 155.953C19.8486 155.762 20.1943 155.492 20.4727 155.159C20.7511 154.826 20.956 154.438 21.074 154.021L21.3656 152.88L21.6062 151.716L21.7914 150.539C22.1656 147.521 22.1798 144.469 21.8337 141.447C18.8342 139.569 16.1948 140.887 16.0855 140.943L15.648 141.182C15.7457 144.334 15.5824 148.166 15.5022 149.644C16.2802 149.83 17.0026 150.198 17.6093 150.718C15.8711 150.591 14.321 150.57 13.1909 151.425H13.1895ZM4.90102 77.1211C3.58864 81.4729 2.00064 89.1042 4.91122 94.2447L5.10664 94.5924L5.0658 94.9838C5.0658 95.0274 4.66041 99.2629 7.15248 103.714L7.3129 104.005V104.333C7.3129 104.467 7.22978 117.774 10.6114 122.596L10.8126 122.887L10.833 123.239C11.0167 126.487 12.2504 135.23 15.7136 138.425C17.0858 137.948 20.0343 137.348 23.2088 139.368C24.3272 138.912 26.7639 137.459 26.4373 133.548C26.2757 133.105 26.1608 132.647 26.0946 132.18C25.971 131.353 25.9972 130.511 26.1719 129.694C26.2591 129.246 26.389 128.807 26.5598 128.384L26.5029 128.335C26.2275 128.081 25.9707 127.808 25.7344 127.518C25.2533 126.929 24.8752 126.263 24.616 125.548C24.3493 124.832 24.2111 124.075 24.2077 123.311C24.1983 122.763 24.2516 122.216 24.3666 121.681C24.1117 121.28 23.8813 120.864 23.6769 120.436C23.5311 120.133 23.3852 119.825 23.2686 119.512C23.0225 119.469 22.779 119.412 22.5395 119.342C22.1626 119.23 21.7958 119.087 21.4429 118.914C20.7185 118.563 20.0709 118.072 19.537 117.47C19.0045 116.872 18.5925 116.177 18.3238 115.423C18.162 115.06 18.1109 114.684 18.0074 114.313C17.9738 114.141 17.9505 113.97 17.9286 113.797C17.4424 113.433 16.9864 113.031 16.5652 112.595C15.9792 111.988 15.474 111.309 15.0618 110.574C14.6537 109.851 14.3744 109.064 14.2365 108.246C14.0702 107.45 14.1431 106.645 14.2365 105.88C14.3444 106.65 14.4814 107.399 14.8197 108.063C15.1265 108.722 15.5454 109.323 16.0578 109.839C16.5573 110.345 17.1199 110.785 17.7318 111.149C18.3123 111.5 18.9344 111.777 19.5837 111.975L20.043 112.099L20.323 113.021C20.3638 113.287 20.3857 113.561 20.4338 113.82C20.5111 114.066 20.5359 114.339 20.6467 114.562C20.8047 115.023 21.0525 115.449 21.3758 115.815C21.6852 116.165 22.0602 116.451 22.4797 116.657C22.3791 115.95 22.3503 115.234 22.3937 114.521C22.4614 113.194 22.8119 111.896 23.4217 110.715C23.6754 110.113 24.0808 109.599 24.4293 109.065C24.8041 108.549 25.2634 108.096 25.6688 107.619C25.3422 108.163 24.9703 108.671 24.6933 109.229C24.441 109.801 24.1406 110.342 23.9991 110.945C23.6235 112.09 23.4997 113.303 23.636 114.501C23.7592 115.667 24.0958 116.802 24.6291 117.847C24.8938 118.365 25.1955 118.864 25.5317 119.339C25.846 119.795 26.2024 120.22 26.5962 120.61L26.9958 120.997L26.866 121.764C26.734 122.254 26.6683 122.76 26.6706 123.267C26.6688 123.751 26.7552 124.232 26.9258 124.686C27.0913 125.146 27.335 125.575 27.6461 125.953C27.8042 126.146 27.9757 126.328 28.1594 126.497C28.3251 126.651 28.5026 126.791 28.6902 126.918L29.638 127.534L29.1627 128.553C28.8986 129.067 28.7026 129.614 28.5794 130.178C28.4607 130.716 28.4419 131.271 28.524 131.815C28.6008 132.361 28.7752 132.89 29.0387 133.375C29.1721 133.622 29.3237 133.859 29.4922 134.083C29.6457 134.29 29.8154 134.485 29.9997 134.665L30.5363 135.166L30.3992 135.893L30.2534 136.638C30.2403 136.875 30.2155 137.115 30.214 137.342C30.2187 137.738 30.3077 138.129 30.475 138.488C30.6511 138.793 30.9139 139.04 31.2304 139.196C31.414 139.286 31.6066 139.357 31.8049 139.407C31.8955 139.432 31.9876 139.451 32.0805 139.465L32.7396 139.052C33.0998 138.841 33.4848 138.656 33.8566 138.458C34.2285 138.261 34.6441 138.116 35.0465 137.959C35.4666 137.813 35.8957 137.694 36.3312 137.603C37.2543 137.389 38.2123 137.371 39.1426 137.552C39.6365 137.655 40.1139 137.826 40.5615 138.058C40.7867 138.173 41.0014 138.307 41.2031 138.458C41.9322 138.214 42.6409 137.924 43.1979 137.465C43.94 136.931 44.5159 136.199 44.8588 135.354C45.2171 134.458 45.4017 133.502 45.4027 132.538C45.4162 131.543 45.2946 130.55 45.0411 129.587L44.8486 128.901L45.3896 128.31C45.6098 128.07 45.8577 127.846 46.0633 127.598C46.2426 127.34 46.4716 127.104 46.6013 126.824C46.9196 126.305 47.1266 125.726 47.2094 125.124C47.2985 124.514 47.2708 123.894 47.1278 123.295C47.0529 122.986 46.9554 122.684 46.8361 122.39C46.7271 122.115 46.5949 121.849 46.4409 121.597L45.9481 120.801L46.5313 120.082C46.8109 119.756 47.0553 119.401 47.2604 119.024C47.6658 118.286 47.8737 117.455 47.8642 116.613C47.8628 116.405 47.8482 116.197 47.8204 115.991C47.7951 115.814 47.7586 115.639 47.711 115.467L47.5463 114.937L47.7387 114.571C48.0625 113.977 48.3833 113.34 48.5247 112.633C48.692 111.909 48.7549 111.164 48.7114 110.423C48.6125 108.838 48.1876 107.292 47.4631 105.879C48.5903 107.129 49.4458 108.598 49.9756 110.194C50.2465 111.035 50.3972 111.911 50.4233 112.794C50.4483 113.535 50.3723 114.276 50.1973 114.997C50.2556 115.227 50.2877 115.423 50.3241 115.649C50.3658 115.961 50.3887 116.275 50.3927 116.59C50.4004 117.218 50.3264 117.845 50.1725 118.454C50.0981 118.745 50.0077 119.021 49.9056 119.298C51.5651 118.746 52.3758 117.726 52.6485 117.312C52.6908 117.009 52.7346 116.708 52.7943 116.407C53.0189 115.007 53.5118 113.669 54.0615 112.366C54.0021 111.496 54.0294 110.621 54.1432 109.756C54.2687 108.78 54.5166 107.823 54.881 106.909C55.2442 105.989 55.7549 105.134 56.3932 104.377C57.0266 103.645 57.811 103.058 58.6928 102.656C58.1664 103.45 57.6881 104.181 57.3804 104.998C57.0666 105.786 56.8335 106.604 56.6848 107.438C56.5524 108.269 56.4734 109.106 56.4486 109.947C56.4226 110.769 56.4553 111.591 56.5463 112.409L56.5886 112.74L56.4428 113.101C55.9441 114.316 55.476 115.551 55.2879 116.858C55.0526 118.158 54.9845 119.483 55.0852 120.801C55.1738 122.13 55.4 123.447 55.7603 124.729C56.1112 125.995 56.592 127.22 57.1952 128.387L57.4723 128.907L57.309 129.445C56.8948 130.804 56.9983 132.272 57.5131 133.689C57.7786 134.412 58.1208 135.105 58.5338 135.755C58.7438 136.085 58.9626 136.414 59.2017 136.73C59.3184 136.89 59.4408 137.046 59.5663 137.201C59.6529 137.314 59.7506 137.418 59.8579 137.511C60.2468 137.857 60.7533 138.041 61.2738 138.026C61.409 138.023 61.5437 138.008 61.6763 137.981L62.3864 137.863C62.8618 137.801 63.3372 137.753 63.814 137.731C64.7644 137.687 65.7168 137.725 66.6604 137.846C67.411 137.941 68.1536 138.091 68.8827 138.293C69.2203 138.135 69.5262 137.917 69.7854 137.649C70.1351 137.224 70.4017 136.736 70.5713 136.212C70.7648 135.614 70.8805 134.994 70.9155 134.367C70.9622 133.727 70.949 133.085 70.8761 132.448L70.7726 131.658L71.3996 131.076L71.8546 130.655L72.2541 130.219C72.4761 129.948 72.6614 129.65 72.8053 129.331C72.9223 129.076 72.9834 128.798 72.9847 128.517C72.984 128.397 72.9678 128.277 72.9365 128.162C72.9231 128.112 72.9055 128.063 72.884 128.016C72.8772 127.995 72.8684 127.975 72.8578 127.956C72.8578 127.956 72.8228 127.903 72.8768 127.981L73.008 126.058C73.4666 125.541 73.8694 124.978 74.2096 124.377C74.547 123.787 74.8026 123.153 74.9693 122.494C75.1443 121.836 75.2311 121.157 75.2274 120.475C75.2256 120.135 75.2046 119.795 75.1647 119.456C75.1257 119.153 75.0667 118.853 74.9882 118.557L74.7812 117.852L75.1836 117.188C75.4476 116.752 75.7392 116.331 75.9856 115.89C76.1985 115.435 76.4756 115.003 76.636 114.53C77.0219 113.616 77.2875 112.656 77.4264 111.674C77.5627 110.701 77.5627 109.714 77.4264 108.741C77.361 108.258 77.2636 107.78 77.1347 107.31C77.0589 107.083 76.9889 106.848 76.9043 106.632C76.8197 106.417 76.7118 106.171 76.6593 106.059L76.2219 105.167L76.7818 104.373C77.2922 103.645 77.7851 102.908 78.0417 102.096C78.3421 101.302 78.478 100.456 78.4413 99.6092C78.4142 98.7408 78.2432 97.8829 77.9353 97.0702C77.7768 96.6534 77.5907 96.2475 77.3782 95.8553C77.1814 95.4839 76.9552 95.1287 76.7016 94.7932L76.3137 94.284L76.3575 93.7092C76.5324 91.559 76.4972 89.3969 76.2525 87.2535C75.9725 85.1613 75.4242 83.1141 74.402 81.3929C73.4251 79.6638 71.9199 78.2915 70.1062 77.4761C69.1877 77.0649 68.2173 76.7805 67.2218 76.6308C66.7179 76.551 66.2094 76.5024 65.6995 76.4853C65.2128 76.4688 64.7255 76.4863 64.2413 76.5376L63.4363 76.6366L62.9318 76.0022C62.497 75.4403 61.9711 74.955 61.3759 74.5661C60.7324 74.1711 60.0403 73.861 59.3169 73.6437C58.5513 73.429 57.7673 73.2862 56.975 73.2174C56.2734 73.1543 55.5681 73.1441 54.865 73.1868C53.6576 73.9696 52.4575 74.7742 51.2924 75.5715C44.5715 80.162 37.6348 84.8965 25.8467 85.5643C26.9389 87.8384 27.4172 90.7484 26.2842 94.1792L26.0348 94.9372L25.2401 95.026C25.2007 95.026 24.9382 95.0565 24.5197 95.0565C23.2773 95.0565 20.673 94.8179 18.5236 93.0414C16.9196 91.7101 15.8988 89.8143 15.4964 87.4005C15.4307 87.4005 15.3666 87.4005 15.2995 87.3888C15.263 87.3888 15.228 87.3743 15.1916 87.3699C14.8194 88.4827 14.105 89.4501 13.1501 90.1344C11.5359 91.2983 9.4375 91.5719 7.81744 91.5719C6.97852 91.5746 6.14104 91.5021 5.31515 91.3551L4.169 91.1266L4.32794 89.9714C4.88351 85.9222 6.35485 83.3295 7.86555 81.6781C6.67458 80.3007 5.67769 78.7676 4.90248 77.1211H4.90102ZM12.9022 86.3325C12.5083 85.9929 12.1776 85.5865 11.9252 85.1322C11.4107 84.2467 11.0539 83.2788 10.8709 82.2717C9.5279 83.2581 7.78243 85.2253 6.99062 89.0533C8.38321 89.145 10.4043 89.0359 11.689 88.1061C12.2875 87.6734 12.7164 87.0463 12.9022 86.3325ZM6.02094 70.2929C5.60826 74.8033 8.35406 78.5178 9.71748 80.0543C10.2589 79.6841 10.8399 79.3752 11.4498 79.1333C11.59 78.8945 11.7485 78.6669 11.9237 78.4524C10.0908 77.1429 7.36684 74.7262 6.48171 71.3346C6.30381 70.9825 6.15509 70.6377 6.02094 70.2972V70.2929ZM8.66466 21.2297C8.42062 21.5014 8.19643 21.7902 7.99387 22.094C7.77913 22.4215 7.58435 22.7616 7.41059 23.1124C6.70491 24.5308 6.3789 26.1071 6.46422 27.6883C6.5086 28.4849 6.63964 29.2742 6.85502 30.0425L7.00958 30.6565L6.63775 31.1526C6.14414 31.8306 5.72102 32.557 5.37494 33.3205C5.0257 34.0817 4.76541 34.8804 4.59918 35.7009C4.44915 36.4857 4.42796 37.2896 4.53647 38.0812C4.63126 38.8596 4.94915 39.5726 5.30787 40.2637L5.55283 40.7322L5.44347 41.2065C5.3493 41.6631 5.30386 42.1284 5.30787 42.5945C5.31007 43.0601 5.37132 43.5236 5.49014 43.9739C5.59996 44.391 5.78367 44.7852 6.03259 45.1378C6.25716 45.4914 6.59401 45.746 6.93231 46.0108L7.62204 46.5375L7.4558 47.3596C7.42835 47.5139 7.41274 47.67 7.40913 47.8266C7.4064 48.0096 7.41763 48.1924 7.44268 48.3737C7.49011 48.7308 7.60331 49.0761 7.7766 49.3922C7.95033 49.7129 8.17995 50.0001 8.45467 50.2404C8.75002 50.503 9.07669 50.7283 9.4273 50.9112L10.5355 51.5383L10.047 52.3661C9.82667 52.7959 9.66949 53.255 9.5804 53.7295C9.47846 54.2354 9.45145 54.7536 9.50021 55.2674C9.54934 55.8015 9.70238 56.3209 9.95079 56.7965C10.187 57.3029 10.5705 57.7321 10.9861 58.154C10.4255 57.9164 9.90933 57.5858 9.45937 57.1763C8.9817 56.7403 8.59258 56.2167 8.31322 55.634C8.06134 55.1065 7.87946 54.5484 7.77222 53.9739C7.35557 55.2638 7.2248 56.6286 7.38896 57.9739C7.55312 59.3192 8.00829 60.6128 8.72298 61.7653L9.13712 62.4709L8.64861 63.1359C8.56111 63.2537 6.55754 66.0633 8.75797 70.3293L8.86152 70.6042C9.73644 74.2199 13.5978 76.6482 14.5879 77.22C15.1902 77.287 15.7639 77.5125 16.2502 77.8733C28.54 79.7648 41.9701 68.6618 42.4513 66.5085V66.1695C42.3798 64.2998 41.5764 63.1868 41.5472 63.1446L41.0354 62.4753L41.4728 61.7478C43.3393 58.6575 43.0112 55.7824 42.4294 53.9375C42.3225 54.5189 42.1386 55.0835 41.8826 55.6166C41.6038 56.1992 41.2151 56.7228 40.7379 57.1588C40.2875 57.5685 39.7708 57.8991 39.2097 58.1366C39.6267 57.7146 40.0103 57.2854 40.2465 56.7791C40.4951 56.3036 40.6477 55.7841 40.6956 55.2499C40.7458 54.7361 40.7188 54.2178 40.6154 53.712C40.5276 53.2372 40.3704 52.7779 40.1488 52.3487L39.6617 51.5208L40.77 50.8937C41.1204 50.7106 41.447 50.4853 41.7426 50.223C42.0173 49.9827 42.2469 49.6954 42.4207 49.3747C42.594 49.0587 42.7072 48.7134 42.7546 48.3562C42.7799 48.175 42.7906 47.9921 42.7867 47.8092C42.7834 47.6526 42.7683 47.4964 42.7415 47.3421L42.5752 46.5201L43.2635 45.9934C43.6018 45.7344 43.9401 45.4798 44.1647 45.1204C44.4136 44.7678 44.5973 44.3736 44.7071 43.9564C44.826 43.5061 44.8872 43.0427 44.8894 42.5771C44.8937 42.1108 44.8477 41.6455 44.7523 41.189L44.6444 40.7147L44.8879 40.2462C45.2481 39.5566 45.566 38.8436 45.6608 38.0638C45.7693 37.2722 45.7481 36.4682 45.5981 35.6834C45.4314 34.8628 45.1706 34.0641 44.8209 33.3031C44.4758 32.5393 44.0532 31.8129 43.5595 31.1352L43.1877 30.639L43.3422 30.025C43.5576 29.2568 43.6887 28.4674 43.733 27.6709C43.8164 26.0898 43.4905 24.5139 42.7867 23.095C42.6124 22.7444 42.4176 22.4043 42.2034 22.0765C42.0008 21.7728 41.7767 21.4839 41.5326 21.2122L40.6883 20.3102L41.5326 19.459C43.7301 17.2402 45.7614 14.8031 46.9396 12.0866C47.5229 10.7393 47.8146 9.32219 47.6775 7.99089C47.6775 7.65043 47.5536 7.3347 47.5011 7.00587C47.3786 6.69596 47.3086 6.36714 47.1409 6.07324C46.845 5.46099 46.4554 4.89845 45.986 4.40584C45.8008 4.17737 45.582 3.9782 45.3371 3.81512C45.1229 3.67448 44.8839 3.57573 44.6328 3.52412C44.5647 3.51221 44.4961 3.50395 44.4272 3.49939C44.3087 3.62777 44.2054 3.76935 44.1195 3.92133C43.9104 4.33062 43.7902 4.7793 43.7666 5.23808C43.749 5.50211 43.749 5.76701 43.7666 6.03104C43.7826 6.35114 43.7841 6.67123 43.7812 6.99133C43.7653 7.63117 43.7039 8.26908 43.5974 8.90025C43.3785 10.1512 42.9338 11.3521 42.285 12.4446C41.6501 13.5027 40.8508 14.4535 39.9169 15.2614C40.6175 14.2932 41.195 13.2419 41.6361 12.1318C42.038 11.049 42.2702 9.91098 42.3244 8.75767C42.3444 8.18898 42.3235 7.61958 42.2617 7.05389C42.2267 6.77162 42.1888 6.49081 42.1363 6.21146C42.0771 5.87745 42.044 5.53937 42.0372 5.20025C42.0372 5.15515 42.0372 5.10714 42.0372 5.05476C41.728 5.75605 41.4077 6.45347 41.0762 7.14701C40.3725 8.64395 39.5938 10.1047 38.7431 11.5236C38.2983 12.2534 37.815 12.9591 37.2951 13.6376C37.1784 13.7831 37.0574 13.9286 36.9334 14.0741C37.0459 14.4034 37.1154 14.7457 37.1405 15.0926C37.1821 15.8277 37.0832 16.5639 36.8489 17.262C36.6343 17.9764 36.2772 18.64 35.799 19.2131C35.2892 19.7864 34.6602 20.2418 33.9558 20.5473C33.2955 20.821 32.5943 20.9838 31.8808 21.0289C31.4957 21.0537 31.1094 21.0537 30.7244 21.0289C30.4155 21.5322 30.0298 21.9843 29.5812 22.3689C29.1662 22.7046 28.675 22.9335 28.1507 23.0353C27.654 23.1199 27.1441 23.0809 26.6662 22.9218C25.7782 22.6308 25.1205 22.0925 24.5387 21.5352C23.9743 20.9784 23.4713 20.3628 23.0382 19.6991C23.6132 20.2114 24.2414 20.6611 24.912 21.0406C25.5667 21.4043 26.2783 21.6822 26.9126 21.7069C27.1792 21.7303 27.4471 21.6806 27.6874 21.5632C27.9277 21.4458 28.1312 21.265 28.2761 21.0406C28.5934 20.5087 28.8016 19.9191 28.8885 19.3062L29.2006 18.2877L30.3278 18.4885C30.7757 18.5591 31.2307 18.5747 31.6824 18.5351C32.1173 18.5039 32.544 18.4011 32.9452 18.231C33.2938 18.071 33.6067 17.8429 33.8654 17.5603C34.1177 17.2465 34.3042 16.8853 34.4137 16.4981C34.5464 16.1078 34.6057 15.6965 34.5886 15.2847C34.575 14.967 34.4618 14.6617 34.2649 14.4117C33.9266 13.9752 33.1567 13.7264 32.3605 13.8966C31.9556 13.9694 31.5693 14.1222 31.2246 14.3462L31.0233 14.467C30.7525 14.6329 30.4453 14.7305 30.1282 14.7513C29.8111 14.7721 29.4937 14.7154 29.2035 14.5863C28.7807 14.4005 28.4412 14.0659 28.2498 13.6464C28.16 13.449 28.1038 13.238 28.0836 13.0222L28.0617 12.8578C28.0034 12.4213 27.8546 12.0663 27.7045 11.9033C27.5543 11.7404 27.4784 11.7244 27.1882 11.6705C26.5452 11.6152 25.7854 11.7753 25.0009 12.3369C24.2018 12.8752 23.4057 13.6609 22.522 14.5557C22.481 14.1192 22.4952 13.6793 22.5643 13.2463L22.4636 13.319C22.3689 13.2637 22.1428 13.076 21.9722 12.9727C21.7947 12.8565 21.6056 12.7589 21.4079 12.6817C21.0445 12.5295 20.6506 12.4638 20.2574 12.4897C19.4539 12.5086 18.4857 12.9785 17.5655 13.61C16.637 14.275 15.8387 15.1045 15.2105 16.0573C14.5382 17.0963 14.0394 18.2373 13.7334 19.4357C13.4184 18.1626 13.5176 16.7862 13.8909 15.4651C13.9448 15.2876 14.0192 15.1144 14.0833 14.9384C13.6549 14.5374 13.2577 14.1045 12.8949 13.6435C12.3759 12.9645 11.8931 12.2589 11.4484 11.5294C10.5734 10.0977 9.81663 8.63253 9.10648 7.15283C9.03358 6.99714 8.96067 6.84001 8.89214 6.68578C8.87463 6.808 8.85276 6.93021 8.83818 7.05243C8.77594 7.61809 8.7545 8.18748 8.77402 8.75621C8.82876 9.90959 9.0614 11.0477 9.46375 12.1303C9.90437 13.2404 10.4814 14.2917 11.1815 15.2599C10.2477 14.452 9.44832 13.5012 8.81339 12.4431C8.16517 11.3504 7.72054 10.1496 7.501 8.89879C7.39383 8.26772 7.33243 7.62976 7.31726 6.98987C7.31726 6.66978 7.31728 6.34968 7.33186 6.02959C7.34941 5.76556 7.34941 5.50066 7.33186 5.23663C7.30688 4.77806 7.18671 4.32967 6.97897 3.91987C6.91983 3.81181 6.84996 3.70993 6.77043 3.61578C6.3821 3.47031 5.96033 3.43802 5.5543 3.52267C5.30317 3.57428 5.06417 3.67303 4.84999 3.81366C4.60504 3.97675 4.38625 4.17592 4.20108 4.40438C3.73241 4.90415 3.34517 5.47414 3.05347 6.09361C2.88432 6.3846 2.81579 6.71633 2.6933 7.02624C2.63934 7.35507 2.52123 7.6708 2.51686 8.01126C2.37104 9.34548 2.6758 10.7597 3.2547 12.107C4.42126 14.8162 6.46277 17.2605 8.66174 19.4794L9.50603 20.3305L8.66466 21.2297Z" fill="#3A2033"/>
<path d="M25.0942 32.314C26.7697 32.314 35.8135 34.2287 38.3362 43.3281C39.0405 45.8627 38.7314 48.3856 37.4613 50.4328C35.554 53.5217 31.8589 57.2028 25.0884 57.2028C18.318 57.2028 14.6243 53.5217 12.717 50.4328C11.4527 48.3871 11.1436 45.8641 11.8421 43.3281C14.3764 34.2287 23.4188 32.314 25.0942 32.314ZM14.1329 49.5656C15.8201 52.2951 19.0908 55.5499 25.0942 55.5499C31.0977 55.5499 34.3699 52.2951 36.0556 49.5656C37.0763 47.9142 37.3184 45.8554 36.7395 43.769C34.523 35.7754 26.4825 33.9683 25.0942 33.9683C23.706 33.9683 15.6669 35.7754 13.4505 43.769C12.8701 45.8569 13.1136 47.9215 14.1329 49.5656Z" fill="#3A2033"/>
<path d="M18.9566 46.0693C19.8126 46.4796 20.8785 46.4156 21.6806 46.0693C22.4826 45.7231 23.0119 45.0276 23.3429 44.127C23.5615 43.5279 23.7083 42.9053 23.7804 42.2719C23.4088 42.1675 23.0532 42.0133 22.7232 41.8135C22.0116 41.3654 21.3641 40.6161 21.3743 39.7184C22.188 39.9657 22.7946 39.9628 23.3794 39.9846H25.1015H26.8236C27.4069 39.9614 28.0135 39.9672 28.8301 39.7213C28.8433 40.6205 28.1944 41.3727 27.4813 41.8208C27.151 42.0196 26.7954 42.1732 26.4241 42.2777C26.4969 42.91 26.6437 43.5316 26.8616 44.1299C27.1926 45.0305 27.7365 45.7303 28.5225 46.0723C29.3084 46.4142 30.3919 46.4767 31.2479 46.0723C32.1038 45.6678 32.8096 44.853 33.6306 43.9349C33.7399 45.1934 33.0371 46.4389 31.9099 47.194C31.7236 47.3167 31.5287 47.4256 31.3266 47.52C31.3033 48.2707 31.0977 49.781 29.9326 51.041C28.8301 52.2312 27.2072 52.8364 25.1103 52.8364C23.0134 52.8364 21.3904 52.2312 20.2894 51.041C19.1229 49.781 18.9187 48.2765 18.8954 47.52C18.693 47.4261 18.498 47.3172 18.3121 47.194C17.1849 46.4389 16.4821 45.1934 16.5914 43.9349C17.3949 44.8501 18.0803 45.6416 18.9566 46.0693ZM22.1137 49.3765C22.7276 50.0269 23.7308 50.3571 25.0942 50.3571C26.4576 50.3571 27.4609 50.0269 28.0748 49.3765C28.434 48.9787 28.6727 48.4872 28.7631 47.9594C28.4777 47.9365 28.1945 47.8922 27.9158 47.8269C26.6909 47.5229 25.7183 46.596 25.0942 45.5994C24.4716 46.596 23.4989 47.5229 22.2726 47.8269C21.9944 47.8923 21.7117 47.9366 21.4268 47.9594C21.5166 48.4871 21.7548 48.9786 22.1137 49.3765Z" fill="#3A2033"/>
<path d="M15.686 23.782C16.5639 23.782 17.4221 24.0417 18.152 24.5284C18.882 25.0151 19.4509 25.7068 19.7869 26.516C20.1228 27.3253 20.2107 28.2158 20.0395 29.075C19.8682 29.9341 19.4455 30.7233 18.8247 31.3427C18.2039 31.9621 17.413 32.3839 16.5519 32.5548C15.6909 32.7257 14.7984 32.6379 13.9873 32.3027C13.1763 31.9675 12.483 31.3998 11.9953 30.6715C11.5075 29.9432 11.2472 29.0869 11.2472 28.2109C11.247 27.6293 11.3617 27.0532 11.5847 26.5158C11.8077 25.9784 12.1346 25.4901 12.5469 25.0788C12.9591 24.6675 13.4485 24.3412 13.9871 24.1187C14.5257 23.8962 15.103 23.7818 15.686 23.782ZM18.2116 30.5112C18.3784 30.5115 18.5414 30.4624 18.6802 30.3702C18.819 30.278 18.9273 30.1467 18.9913 29.9931C19.0553 29.8395 19.0722 29.6703 19.0399 29.5071C19.0075 29.3439 18.9274 29.1939 18.8095 29.0761C18.6917 28.9584 18.5415 28.8781 18.378 28.8455C18.2145 28.813 18.0449 28.8296 17.8909 28.8932C17.7368 28.9568 17.605 29.0646 17.5124 29.2029C17.4197 29.3412 17.3702 29.5039 17.3702 29.6703C17.3702 29.893 17.4588 30.1067 17.6165 30.2644C17.7743 30.4221 17.9883 30.5109 18.2116 30.5112ZM14.2496 30.1911C14.6916 30.1903 15.1233 30.0587 15.4904 29.8131C15.8574 29.5675 16.1433 29.2188 16.3118 28.8112C16.4803 28.4036 16.524 27.9552 16.4372 27.5228C16.3505 27.0905 16.1372 26.6934 15.8244 26.3819C15.5116 26.0704 15.1133 25.8584 14.6798 25.7727C14.2463 25.687 13.797 25.7315 13.3888 25.9004C12.9806 26.0693 12.6317 26.3552 12.3863 26.7219C12.1408 27.0886 12.0098 27.5197 12.0098 27.9607C12.0098 28.2539 12.0678 28.5443 12.1804 28.8152C12.293 29.0861 12.4581 29.3322 12.6661 29.5394C12.8742 29.7466 13.1211 29.9108 13.3928 30.0226C13.6646 30.1344 13.9557 30.1917 14.2496 30.1911Z" fill="#3A2033"/>
</svg>
