<svg width="43" height="100" viewBox="0 0 43 100" fill="none" xmlns="http://www.w3.org/2000/svg">
<g clip-path="url(#clip0_3441_13564)">
<path d="M19.658 43.3667C21.4298 46.279 25.1306 51.1814 30.9843 53.4531C31.4964 53.6567 32.0672 53.6538 32.5773 53.445C34.128 52.8053 36.8082 51.1994 38.2197 47.4987C37.9733 47.5437 37.7213 47.5492 37.4731 47.5149C36.9305 47.4337 36.4256 47.1882 36.0256 46.8113C35.6315 46.4345 35.3648 45.9433 35.2628 45.4066C35.2229 45.1658 35.2075 44.9215 35.217 44.6776L35.2233 44.0722V42.8588C35.2149 42.0487 35.1996 41.2367 35.1775 40.4229C35.1325 38.799 35.0661 37.1751 34.9879 35.5512L34.8603 33.1153L34.7902 31.8965C34.7839 31.79 34.7768 31.6835 34.7705 31.5762C33.4093 32.9006 31.3068 34.1483 28.199 34.1483C24.4478 34.1483 22.1566 32.3322 20.8736 30.7561L20.8044 32.0192L20.6319 34.5768C20.5034 36.281 20.348 37.9843 20.1548 39.685C20.0111 40.9092 19.8502 42.1425 19.658 43.3667Z" fill="white"/>
<path d="M38.3906 60.0733C39.1776 60.0733 39.8156 59.4327 39.8156 58.6424C39.8156 57.8522 39.1776 57.2116 38.3906 57.2116C37.6036 57.2116 36.9656 57.8522 36.9656 58.6424C36.9656 59.4327 37.6036 60.0733 38.3906 60.0733Z" fill="#F9E313"/>
<path d="M31.7157 67.3448C33.3909 67.3448 34.7489 65.9812 34.7489 64.2991C34.7489 62.617 33.3909 61.2533 31.7157 61.2533C30.0404 61.2533 28.6824 62.617 28.6824 64.2991C28.6824 65.9812 30.0404 67.3448 31.7157 67.3448Z" fill="#F9E313"/>
<path d="M21.2473 59.0132C21.2473 59.2962 21.3309 59.5728 21.4875 59.8081C21.644 60.0434 21.8666 60.2268 22.127 60.3351C22.3874 60.4434 22.6739 60.4718 22.9503 60.4165C23.2267 60.3613 23.4806 60.2251 23.6799 60.0249C23.8792 59.8248 24.0149 59.5699 24.0699 59.2923C24.1249 59.0148 24.0967 58.7271 23.9888 58.4656C23.881 58.2042 23.6983 57.9807 23.464 57.8235C23.2296 57.6663 22.9541 57.5823 22.6723 57.5823C22.2946 57.5831 21.9326 57.734 21.6655 58.0022C21.3984 58.2704 21.248 58.6339 21.2473 59.0132Z" fill="#F9E313"/>
<path d="M32.9473 54.348C32.5768 54.5011 32.18 54.5799 31.7793 54.5799C31.3877 54.5793 30.9996 54.5058 30.6346 54.3633C25.064 52.1981 21.4144 47.8821 19.4117 44.8328C19.3658 45.0854 19.3155 45.3371 19.2661 45.5888C21.1592 48.9359 25.0883 54.5979 30.985 56.8858C31.4974 57.0897 32.0684 57.0871 32.579 56.8786C33.9869 56.2967 38.2394 53.1283 39.3364 48.427C39.2466 48.2664 39.1621 48.1194 39.0741 47.9759C37.5206 51.9248 34.6293 53.6533 32.9473 54.348Z" fill="#EF5685"/>
<path d="M37.146 26.7261C37.7417 26.6729 38.5728 26.5321 39.2233 26.2317C39.2809 26.1769 39.333 26.1164 39.3787 26.0513C39.5245 25.8442 39.6322 25.6126 39.6968 25.3674C39.7553 25.1381 39.7885 24.903 39.7956 24.6664C38.836 25.1933 37.7291 25.3214 37.0391 25.3449C37.1224 25.8003 37.1582 26.2632 37.146 26.7261Z" fill="#EF5685"/>
<path d="M38.8764 56.285C39.4576 56.4059 39.9734 56.7389 40.3241 57.2196C40.6748 57.7003 40.8355 58.2945 40.775 58.8873C40.7145 59.4802 40.4372 60.0294 39.9967 60.4287C39.5562 60.828 38.9838 61.049 38.3903 61.049C37.7969 61.049 37.2245 60.828 36.784 60.4287C36.3435 60.0294 36.0662 59.4802 36.0057 58.8873C35.9452 58.2945 36.1059 57.7003 36.4566 57.2196C36.8073 56.7389 37.3231 56.4059 37.9043 56.285V53.5605C36.1298 55.8809 33.9509 57.3658 32.9473 57.7808C32.708 57.8782 32.4575 57.9452 32.2016 57.9802V60.3096C33.2142 60.434 34.1414 60.9415 34.7941 61.7289C35.4467 62.5162 35.7756 63.5239 35.7135 64.5463C35.6515 65.5688 35.2033 66.5289 34.4603 67.2309C33.7174 67.9329 32.7357 68.3237 31.7155 68.3237C30.6954 68.3237 29.7136 67.9329 28.9707 67.2309C28.2277 66.5289 27.7795 65.5688 27.7175 64.5463C27.6555 63.5239 27.9843 62.5162 28.637 61.7289C29.2896 60.9415 30.2168 60.434 31.2294 60.3096V57.964C31.026 57.9283 30.8265 57.873 30.6337 57.7989C27.6382 56.636 25.153 54.6891 23.1583 52.596V56.6558C23.7398 56.7766 24.2559 57.1096 24.6069 57.5905C24.9579 58.0713 25.1188 58.6658 25.0583 59.2589C24.9979 59.852 24.7205 60.4015 24.2798 60.801C23.8391 61.2006 23.2665 61.4218 22.6727 61.4218C22.079 61.4218 21.5063 61.2006 21.0656 60.801C20.625 60.4015 20.3476 59.852 20.2871 59.2589C20.2267 58.6658 20.3875 58.0713 20.7385 57.5905C21.0895 57.1096 21.6056 56.7766 22.1871 56.6558V51.5134C20.9862 50.1086 19.9042 48.6054 18.9525 47.0197C18.7352 47.9713 18.456 48.9077 18.1169 49.8227C17.9554 50.2497 17.7639 50.6645 17.5437 51.0641C17.3092 51.471 17.0415 51.886 16.6039 52.2487C16.3634 52.4491 16.0803 52.5914 15.7764 52.6646C15.4498 52.737 15.1096 52.7173 14.7935 52.6078C14.2924 52.4364 13.8377 52.1511 13.4646 51.7741C12.7252 51.0163 12.3864 50.06 12.2067 49.1479C12.0439 48.247 12.0019 47.3282 12.0818 46.4161C12.1461 45.6585 12.2663 44.9068 12.4412 44.167C12.0595 44.3008 11.6641 44.3916 11.2624 44.4376C9.39178 44.6181 4.97303 47.0955 4.91283 51.1083L4.90745 51.4503L4.6379 51.6659C4.53817 51.7498 3.63699 52.5545 4.15182 53.7292L4.36116 54.2055L3.9811 54.5601C3.9236 54.6151 2.48693 56.0279 3.08262 58.3366L3.14551 58.5829L3.04399 58.8147C3.02962 58.8472 1.57497 62.3134 3.5705 65.9374L3.72324 66.2144L3.62621 66.5157C3.62621 66.5238 3.10868 68.4356 5.20035 71.5246L5.42048 71.8503L5.27223 72.2112C5.23898 72.3014 4.41148 74.6182 7.30819 78.0843L7.58402 78.4145L7.43039 78.8178C7.39804 78.908 6.60828 81.2465 9.71523 83.7708L9.87875 83.9034L9.94614 84.1036C10.4485 85.3212 11.3102 86.3551 12.4152 87.0664C13.5491 87.7881 15.7234 87.3217 17.125 86.8661C16.8761 86.4574 16.6389 86.0433 16.4206 85.6202C16.1171 85.0274 15.8439 84.4195 15.6021 83.7987C15.3892 83.566 15.1726 83.3377 14.9732 83.0932C14.7566 82.7919 14.5077 82.5158 14.3236 82.191C13.9159 81.5607 13.5916 80.8799 13.3586 80.1656C13.0081 79.0816 12.8884 77.9358 13.0073 76.8023C13.0378 76.5696 13.0702 76.3512 13.1187 76.1221C13.0612 76.0689 13.0028 76.0174 12.9471 75.9606C12.7755 75.7827 12.6175 75.5922 12.4745 75.3904C11.8728 74.5565 11.6042 73.5265 11.7215 72.5035C11.7504 72.255 11.7984 72.0092 11.8653 71.7682C11.9057 71.6293 11.9462 71.5029 11.9974 71.3703C11.9875 71.3496 11.9758 71.3288 11.9668 71.3072C11.8934 71.126 11.8334 70.9396 11.7871 70.7496C11.6928 70.3734 11.6735 69.9822 11.7305 69.5984C11.8397 68.8917 12.2179 68.2552 12.7853 67.823C12.4448 68.385 12.3226 69.0445 12.4592 69.5921C12.5212 69.8599 12.6367 70.1122 12.7988 70.3337C12.8772 70.4436 12.9631 70.5479 13.0558 70.6459C13.1519 70.7433 13.2606 70.8326 13.3568 70.9238L13.6263 71.3153L13.4278 71.7258C13.3617 71.867 13.3079 72.0137 13.2669 72.1642C13.2212 72.328 13.1881 72.4951 13.1681 72.6641C13.09 73.3296 13.2659 74.0001 13.6605 74.5406C13.744 74.6858 13.8815 74.804 13.9893 74.9384C14.1124 75.0638 14.2589 75.1766 14.3847 75.2993L14.7638 75.6602L14.6201 76.1203C14.5418 76.3983 14.4862 76.6822 14.4538 76.9692C14.3579 77.8961 14.4565 78.8328 14.7431 79.7191C14.9384 80.3141 15.2103 80.8809 15.5518 81.4052C15.7036 81.6813 15.922 81.9168 16.1035 82.1748C16.3047 82.4202 16.5302 82.6484 16.7405 82.8875L16.8609 83.0237L16.9112 83.1564C17.1473 83.7724 17.4172 84.3748 17.7198 84.9607C18.0179 85.5498 18.3518 86.1199 18.7198 86.6676C19.4467 87.7503 20.3371 88.7273 21.3749 89.2686L21.7801 89.4797V95.2428L21.7055 95.4034C21.4873 95.8747 21.3274 96.3709 21.2293 96.8812C21.1394 97.3702 21.1718 97.8501 21.3191 98.0594C21.2068 98.1424 21.8708 98.2985 22.3901 98.3698C22.9355 98.4474 23.5007 98.4952 24.0631 98.5186C24.6185 98.5451 25.175 98.5393 25.7298 98.5015C25.9807 98.4857 26.2301 98.4504 26.4755 98.3959C26.507 98.3887 26.5375 98.3788 26.5654 98.3698C26.6552 98.0423 26.595 97.5668 26.4207 97.0959C26.24 96.6117 25.9985 96.1527 25.702 95.73L25.5869 95.5667L25.5645 95.3863L24.8223 89.3669C24.319 89.0268 23.7886 88.729 23.2365 88.4765C22.8935 88.3238 22.5359 88.2068 22.1691 88.1274C21.8052 88.0624 21.4108 88.0173 21.0523 88.1833C21.3479 87.9126 21.7783 87.8143 22.1799 87.762C22.5911 87.7214 23.0054 87.7232 23.4162 87.7674C24.1467 87.8544 24.8682 88.0054 25.5726 88.2185C25.8326 88.2194 26.092 88.1922 26.3462 88.1373C26.5878 88.0896 26.8186 87.9979 27.0272 87.8666C27.1815 87.7683 27.3002 87.6228 27.3659 87.4516C27.4423 87.2974 27.4252 87.061 27.4109 86.8201L27.3812 86.3194L27.7667 86.0803C28.014 85.9202 28.2401 85.7292 28.4396 85.5119C28.6326 85.3054 28.7889 85.0671 28.9015 84.8074C29.0022 84.5741 29.0415 84.3187 29.0156 84.0658C29.0093 83.814 28.8961 83.5551 28.7802 83.2962L28.5672 82.7314L28.8988 82.4436C29.3176 82.0645 29.6893 81.6358 30.0057 81.1671C30.3371 80.6848 30.6056 80.1617 30.8044 79.6108C31.0089 79.0508 31.1165 78.4597 31.1225 77.8633C31.1539 77.2552 31.0093 76.6535 30.8395 76.0517C31.1198 76.603 31.3921 77.1912 31.4855 77.8317C31.6046 78.4759 31.6137 79.1358 31.5125 79.7831C31.4127 80.4397 31.2294 81.0807 30.9671 81.6903C30.7664 82.158 30.5259 82.6075 30.2483 83.0337C30.3691 83.3234 30.4429 83.6307 30.4666 83.944C30.4897 84.2242 30.4739 84.5062 30.4199 84.7821C34.7461 83.6426 35.7704 78.7799 35.8108 78.5571L35.8836 78.1962L36.2214 78.0392C38.2592 77.101 38.2951 73.8215 38.2951 73.7891V73.5247L38.4649 73.3199C40.951 70.3427 40.3859 63.0514 40.3796 62.9783L40.367 62.833L40.4119 62.6941C42.1775 57.1764 40.4443 52.5663 40.4263 52.5193L40.3841 52.4093L40.3778 52.2911C40.3393 51.4579 40.1903 50.6335 39.9348 49.8399C39.6558 50.6319 39.2994 51.3944 38.871 52.1161L38.8764 56.285Z" fill="white"/>
<path d="M10.3794 43.125C10.0307 42.4538 8.90494 41.2114 7.10438 40.2515C6.23914 39.7896 5.67579 39.0886 5.47723 38.2234C5.43973 38.0667 5.35755 37.9244 5.24074 37.8138C5.12393 37.7032 4.97756 37.6293 4.81953 37.6009C4.64697 37.5606 4.46652 37.5709 4.2996 37.6306C4.13269 37.6902 3.98633 37.7967 3.87792 37.9375C2.97405 39.1446 3.17711 40.8849 3.17891 40.902L3.26876 41.5786L2.60208 41.7167C2.10612 41.8186 2.01897 42.0306 1.98662 42.11C1.72696 42.7415 2.34601 44.158 2.84736 44.9158L3.34153 45.6637L2.51223 45.9993C1.84735 46.27 1.49335 46.5848 1.46011 46.9385C1.38823 47.6963 2.49427 48.8845 3.60569 49.7803C4.36671 46.0985 7.93278 43.7177 10.3794 43.125Z" fill="white"/>
<path d="M17.9759 88.1337C17.1232 88.4438 16.2429 88.671 15.3469 88.8121L16.63 94.4164L16.4233 94.6871C16.0801 95.1463 15.2948 96.541 15.7881 97.4495C16.0819 97.9908 17.9516 98.1839 19.7854 98.0738C19.7587 97.9451 19.7389 97.815 19.7261 97.6841C19.7041 97.33 19.7258 96.9746 19.7908 96.6259C19.901 96.0429 20.0786 95.4749 20.32 94.9334V90.3458C19.364 89.7549 18.6138 88.9709 17.9759 88.1337Z" fill="#EFD9AB"/>
<path d="M34.5566 14.5945C34.2971 14.5943 34.0434 14.6714 33.8275 14.8161C33.6117 14.9607 33.4434 15.1663 33.344 15.407C33.2446 15.6477 33.2185 15.9125 33.269 16.1681C33.3195 16.4237 33.4444 16.6585 33.6278 16.8428C33.8112 17.0271 34.0449 17.1526 34.2994 17.2035C34.5539 17.2544 34.8177 17.2284 35.0575 17.1287C35.2972 17.029 35.5021 16.8602 35.6463 16.6436C35.7905 16.4269 35.8675 16.1722 35.8675 15.9117C35.8675 15.5625 35.7294 15.2276 35.4836 14.9806C35.2378 14.7336 34.9043 14.5948 34.5566 14.5945Z" fill="white"/>
<path d="M41.0024 6.55612C41.342 5.7604 41.5172 4.92589 41.4355 4.13829C41.4355 3.9371 41.3636 3.75125 41.3321 3.55728C41.2602 3.37685 41.2198 3.18017 41.121 3.00605C40.9497 2.6406 40.7227 2.30425 40.448 2.00915C40.3393 1.87439 40.2109 1.75697 40.0671 1.66091C39.9414 1.57911 39.8015 1.52187 39.6547 1.4922C39.4166 1.44191 39.1691 1.46068 38.9413 1.54633C38.895 1.60253 38.8541 1.66294 38.8191 1.72677C38.6969 1.96866 38.6265 2.23357 38.6124 2.50444C38.602 2.66035 38.602 2.81677 38.6124 2.97267C38.6223 3.16123 38.6232 3.34978 38.6214 3.53924C38.6125 3.91666 38.5764 4.29295 38.5136 4.66516C38.3858 5.40349 38.1255 6.11238 37.7454 6.75731C37.3728 7.38177 36.9039 7.94297 36.3563 8.42002C36.7673 7.84847 37.106 7.22782 37.3644 6.57236C37.6002 5.93344 37.7366 5.26186 37.7687 4.58125C37.78 4.24577 37.7674 3.90991 37.731 3.57623C37.7229 3.50315 37.7094 3.43188 37.6996 3.3588C37.6564 3.44902 37.6169 3.53924 37.5729 3.63487C37.1589 4.51884 36.7007 5.38122 36.2 6.21871C35.9393 6.64899 35.6562 7.06517 35.3518 7.46552C35.1392 7.73775 34.9061 7.99321 34.6546 8.22966C34.6932 8.33341 34.7364 8.43626 34.7678 8.54091C34.9861 9.32129 35.0445 10.1323 34.8577 10.8866C34.6775 10.1793 34.385 9.50575 33.9915 8.89186C33.6229 8.32998 33.1549 7.84073 32.6105 7.44837C32.0715 7.07577 31.5036 6.79881 31.0328 6.78798C30.8019 6.77203 30.5705 6.81065 30.3572 6.90075C30.2416 6.94687 30.1309 7.00429 30.0265 7.07217C29.9259 7.13351 29.7947 7.24448 29.7381 7.27696L29.6788 7.23456C29.7204 7.49071 29.7289 7.75119 29.704 8.00952C29.1855 7.48175 28.7156 7.01713 28.2493 6.70047C27.7893 6.36847 27.3436 6.27374 26.9663 6.30712C26.7965 6.33779 26.7533 6.35313 26.6635 6.44425C26.5447 6.60999 26.4724 6.80473 26.4541 7.00811L26.4416 7.10464C26.4296 7.23187 26.3969 7.35625 26.3445 7.47273C26.2319 7.7203 26.0328 7.91774 25.7848 8.02757C25.6145 8.1037 25.4284 8.13707 25.2424 8.12481C25.0564 8.11255 24.8762 8.05503 24.7174 7.9572L24.5997 7.88593C24.3974 7.75344 24.1707 7.66323 23.933 7.62069C23.4667 7.51964 23.0147 7.6667 22.8162 7.92382C22.7019 8.07059 22.6357 8.24928 22.6266 8.43536C22.6165 8.67843 22.6512 8.92129 22.729 9.15168C22.7929 9.38174 22.9023 9.59651 23.0507 9.78321C23.2023 9.94973 23.3856 10.0841 23.5898 10.1784C23.8248 10.2796 24.075 10.3406 24.3301 10.3588C24.595 10.3821 24.8617 10.373 25.1244 10.3317L25.7929 10.2054L25.9725 10.8054C26.0238 11.1672 26.146 11.5152 26.3319 11.8293C26.4166 11.9621 26.536 12.069 26.677 12.1383C26.818 12.2077 26.9752 12.2369 27.1316 12.2227C27.5045 12.2083 27.9214 12.0423 28.305 11.8293C28.6987 11.6054 29.0673 11.3399 29.4048 11.0372C29.1504 11.4285 28.8552 11.7914 28.5242 12.1198C28.1828 12.4482 27.7974 12.7622 27.2762 12.9381C26.996 13.0324 26.6969 13.0554 26.4056 13.0049C26.0983 12.9446 25.8105 12.8095 25.5673 12.6115C25.3039 12.3875 25.0769 12.1236 24.8944 11.8293C24.6685 11.8442 24.4419 11.8442 24.216 11.8293C23.7975 11.8036 23.3863 11.7075 22.9995 11.5452C22.5873 11.3648 22.2194 11.0963 21.9213 10.7585C21.6406 10.42 21.431 10.0282 21.3049 9.60638C21.1681 9.1943 21.1101 8.75991 21.1342 8.32619C21.1498 8.12194 21.1905 7.92043 21.2555 7.72625C21.1836 7.63603 21.1127 7.55483 21.0435 7.46822C20.7388 7.06788 20.4554 6.65171 20.1944 6.22141C19.694 5.38374 19.2358 4.52137 18.8215 3.63758C18.628 3.22799 18.4403 2.8166 18.2582 2.4034C18.2582 2.42956 18.2582 2.45753 18.2582 2.48459C18.2542 2.68456 18.235 2.88393 18.2007 3.08094C18.1692 3.24604 18.1468 3.41203 18.127 3.57893C18.0906 3.91261 18.078 4.24848 18.0893 4.58396C18.1214 5.26457 18.2578 5.93615 18.4936 6.57507C18.7529 7.22936 19.0921 7.84879 19.5035 8.41912C18.9559 7.94206 18.487 7.38086 18.1144 6.7564C17.7343 6.11147 17.474 5.40259 17.3462 4.66426C17.2833 4.29204 17.2473 3.91576 17.2384 3.53834C17.2384 3.34888 17.2384 3.16033 17.2474 2.97177C17.2578 2.81587 17.2578 2.65944 17.2474 2.50354C17.2333 2.23267 17.1629 1.96776 17.0407 1.72587C16.9903 1.63635 16.93 1.55283 16.861 1.47686C16.8203 1.47969 16.7798 1.48482 16.7397 1.4922C16.5929 1.5217 16.4529 1.57895 16.3273 1.66091C16.1835 1.75697 16.0551 1.87439 15.9464 2.00915C15.6714 2.30398 15.4443 2.64039 15.2734 3.00605C15.1895 3.18428 15.1189 3.36853 15.0623 3.55728C15.0308 3.75125 14.9607 3.9371 14.9589 4.13829C14.8763 4.92589 15.0488 5.7622 15.3911 6.55612C16.0784 8.15478 17.2779 9.59646 18.5619 10.9064L19.0569 11.4089L18.5619 11.9412C18.4188 12.1018 18.2873 12.2725 18.1683 12.4518C18.0413 12.6459 17.9261 12.8474 17.8233 13.0554C17.4099 13.8925 17.2189 14.8226 17.2689 15.7556C17.2948 16.2257 17.3713 16.6915 17.4972 17.145L17.587 17.5058L17.3687 17.799C17.0797 18.1989 16.8319 18.6273 16.6292 19.0774C16.424 19.5268 16.2712 19.9985 16.1737 20.483C16.0858 20.9462 16.0734 21.4206 16.1368 21.8877C16.1891 22.2443 16.2983 22.5901 16.4603 22.9117C17.3975 23.6133 18.4826 24.0896 19.632 24.3037C21.3031 19.1352 26.4514 17.5031 28.1972 17.5031C29.943 17.5031 35.1371 19.1505 36.7822 24.3696C37.3923 24.3696 38.7589 24.2794 39.6879 23.5721L39.66 23.4512L39.8038 23.1742C40.014 22.7673 40.2009 22.3469 40.253 21.8877C40.316 21.4205 40.3036 20.9462 40.2162 20.483C40.1187 19.9985 39.9659 19.5268 39.7607 19.0774C39.558 18.627 39.3099 18.1987 39.0203 17.799L38.8029 17.5058L38.8927 17.145C39.0193 16.6916 39.0961 16.2257 39.1219 15.7556C39.1719 14.8226 38.9809 13.8925 38.5675 13.0554C38.464 12.8476 38.3485 12.6461 38.2216 12.4518C38.1032 12.2723 37.972 12.1016 37.8289 11.9412L37.333 11.4089L37.8289 10.9064C39.121 9.59646 40.315 8.15478 41.0024 6.55612ZM22.6733 18.6724C22.158 18.6724 21.6542 18.5189 21.2257 18.2314C20.7972 17.9439 20.4633 17.5353 20.2661 17.0573C20.0688 16.5792 20.0172 16.0531 20.1178 15.5456C20.2183 15.0381 20.4665 14.5719 20.8309 14.206C21.1953 13.8401 21.6596 13.591 22.165 13.49C22.6704 13.3891 23.1943 13.4409 23.6704 13.6389C24.1465 13.8369 24.5535 14.1722 24.8398 14.6025C25.1261 15.0327 25.2789 15.5386 25.2789 16.056C25.2789 16.7492 25.005 17.4139 24.5174 17.9045C24.0297 18.395 23.3681 18.6712 22.6778 18.6724H22.6733ZM33.7103 18.6724C33.195 18.6724 32.6912 18.5189 32.2627 18.2314C31.8342 17.9439 31.5002 17.5353 31.303 17.0573C31.1058 16.5792 31.0542 16.0531 31.1548 15.5456C31.2553 15.0381 31.5035 14.5719 31.8679 14.206C32.2323 13.8401 32.6965 13.591 33.202 13.49C33.7074 13.3891 34.2313 13.4409 34.7074 13.6389C35.1835 13.8369 35.5905 14.1722 35.8768 14.6025C36.1631 15.0327 36.3159 15.5386 36.3159 16.056C36.3159 16.7492 36.042 17.4139 35.5543 17.9045C35.0666 18.395 34.4051 18.6712 33.7148 18.6724H33.7103Z" fill="white"/>
<path d="M21.1961 16.4241C21.0983 16.4241 21.0028 16.4532 20.9215 16.5078C20.8403 16.5623 20.7769 16.6398 20.7395 16.7304C20.7021 16.8211 20.6923 16.9209 20.7114 17.0171C20.7305 17.1134 20.7775 17.2018 20.8466 17.2712C20.9158 17.3406 21.0038 17.3878 21.0997 17.407C21.1955 17.4261 21.2949 17.4163 21.3852 17.3788C21.4755 17.3412 21.5527 17.2776 21.607 17.196C21.6613 17.1144 21.6902 17.0185 21.6902 16.9203C21.6904 16.8551 21.6777 16.7906 21.6529 16.7303C21.6281 16.67 21.5917 16.6153 21.5458 16.5692C21.4999 16.5231 21.4453 16.4866 21.3853 16.4617C21.3253 16.4368 21.261 16.424 21.1961 16.4241Z" fill="white"/>
<path d="M23.5207 14.5945C23.2612 14.5943 23.0075 14.6714 22.7917 14.8161C22.5758 14.9607 22.4075 15.1663 22.3081 15.407C22.2087 15.6477 22.1826 15.9125 22.2331 16.1681C22.2836 16.4237 22.4085 16.6585 22.5919 16.8428C22.7753 17.0271 23.0091 17.1526 23.2636 17.2035C23.518 17.2544 23.7818 17.2284 24.0216 17.1287C24.2613 17.029 24.4663 16.8602 24.6104 16.6436C24.7546 16.4269 24.8316 16.1722 24.8316 15.9117C24.8316 15.5625 24.6935 15.2276 24.4477 14.9806C24.2019 14.7336 23.8684 14.5948 23.5207 14.5945Z" fill="white"/>
<path d="M32.2322 16.4241C32.1345 16.4241 32.0389 16.4532 31.9577 16.5078C31.8764 16.5623 31.8131 16.6398 31.7757 16.7304C31.7383 16.8211 31.7285 16.9209 31.7475 17.0171C31.7666 17.1134 31.8137 17.2018 31.8828 17.2712C31.9519 17.3406 32.0399 17.3878 32.1358 17.407C32.2317 17.4261 32.331 17.4163 32.4213 17.3788C32.5116 17.3412 32.5888 17.2776 32.6431 17.196C32.6974 17.1144 32.7264 17.0185 32.7264 16.9203C32.7265 16.8551 32.7138 16.7906 32.689 16.7303C32.6642 16.67 32.6278 16.6153 32.5819 16.5692C32.536 16.5231 32.4815 16.4866 32.4215 16.4617C32.3615 16.4368 32.2971 16.424 32.2322 16.4241Z" fill="white"/>
<path d="M14.4243 50.8368C14.6475 51.0712 14.9223 51.2498 15.2267 51.3582C15.4324 51.425 15.5573 51.4042 15.7972 51.231C16.0218 51.056 16.2464 50.7547 16.4351 50.429C16.6304 50.0851 16.8012 49.7279 16.9464 49.3599C17.1404 48.8709 17.3058 48.3675 17.4603 47.8497C17.0659 47.4464 16.8314 46.887 16.7146 46.316C16.6051 45.7212 16.571 45.1149 16.613 44.5116C16.6505 43.9097 16.7292 43.311 16.8484 42.7199C16.9167 42.3798 16.9958 42.0469 17.0838 41.7112C16.129 42.3547 15.1368 42.9403 14.1125 43.4651C13.7912 44.4609 13.582 45.4898 13.489 46.5325C13.4126 47.3197 13.4376 48.1136 13.5636 48.8944C13.6939 49.6504 13.9679 50.364 14.4243 50.8368Z" fill="white"/>
<path d="M16.5878 39.1653C16.3616 39.3715 16.1514 39.5947 15.9589 39.8329C15.5991 40.2887 15.2818 40.7767 15.011 41.2908C15.6884 40.884 16.3066 40.4789 16.7684 40.1595C16.6794 39.8341 16.619 39.5014 16.5878 39.1653Z" fill="white"/>
<path d="M28.1962 20.2196C27.4774 20.2196 23.3219 21.1614 22.1764 25.3241C21.8781 26.4067 22.0029 27.4704 22.5268 28.3247C23.3992 29.7448 25.0901 31.439 28.198 31.439C31.3058 31.439 32.9968 29.7448 33.8692 28.3247C34.393 27.4713 34.517 26.4058 34.2187 25.3241C33.0705 21.1569 28.9132 20.2196 28.1962 20.2196ZM32.1846 27.2566C32.0751 27.3294 31.9604 27.394 31.8413 27.4496C31.827 27.8917 31.7075 28.783 31.0237 29.5246C30.375 30.2337 29.4262 30.5946 28.1962 30.5946C26.9662 30.5946 26.0147 30.2337 25.3678 29.5346C24.6849 28.7912 24.5645 27.8998 24.5511 27.4595C24.432 27.4039 24.3173 27.3393 24.2078 27.2665C23.5465 26.8208 23.135 26.0864 23.1988 25.343C23.6804 25.8843 24.0829 26.3517 24.596 26.6061C25.109 26.8605 25.7236 26.8109 26.1944 26.6061C26.6652 26.4013 26.9743 25.9908 27.1692 25.4603C27.295 25.1069 27.3795 24.7399 27.4208 24.3669C27.2026 24.3052 26.9938 24.2142 26.7999 24.0962C26.383 23.8319 26.0021 23.388 26.0093 22.8575C26.4882 23.0019 26.844 22.9992 27.1872 23.0127H28.1962H29.207C29.5502 22.9992 29.906 23.0019 30.3831 22.8557C30.3894 23.3853 30.0093 23.8274 29.5924 24.0926C29.3989 24.2104 29.1903 24.3015 28.9725 24.3633C29.0129 24.7371 29.0973 25.1047 29.2241 25.4585C29.419 25.989 29.7353 26.4049 30.1989 26.6043C30.6625 26.8037 31.2951 26.8434 31.7964 26.6043C32.2978 26.3652 32.7129 25.8825 33.1945 25.3412C33.2574 26.0837 32.8458 26.8145 32.1846 27.2566Z" fill="#EFD9AB"/>
<path d="M25.5062 6.65805H25.499C25.5143 6.66437 25.5233 6.67158 25.5062 6.65805Z" fill="white"/>
<path d="M37.9591 29.0609C38.1193 28.9184 38.2537 28.749 38.3562 28.5602C38.4571 28.3741 38.5235 28.1711 38.5521 27.9612C38.5669 27.8542 38.5732 27.7462 38.5709 27.6382C38.5702 27.5879 38.5669 27.5376 38.5611 27.4875C38.0592 27.6068 37.5483 27.6841 37.0336 27.7185C36.9035 28.4159 36.6484 29.0838 36.2807 29.6898C35.9798 30.1786 35.6374 30.6404 35.2573 31.0701C35.3071 31.3273 35.344 31.5869 35.3678 31.8478L35.5008 33.063L35.7542 35.4989C35.9171 37.1228 36.0645 38.7488 36.1962 40.3769C36.2603 41.1913 36.3178 42.0072 36.3687 42.8246L36.4334 44.0533C36.4568 44.4422 36.4523 44.9456 36.5107 45.1558C36.5738 45.4219 36.7172 45.662 36.9213 45.8432C37.1072 46.001 37.3318 46.1057 37.5718 46.1464L37.7749 45.7404C38.7219 43.853 37.7668 41.5732 37.7569 41.5507L37.6221 41.234L37.7776 40.9255C39.0678 38.4075 37.8935 36.7493 37.8423 36.6798L37.5557 36.2874L37.8018 35.8643C38.2237 35.1832 38.4925 34.418 38.5893 33.6218C38.6861 32.8257 38.6087 32.018 38.3625 31.255C38.2995 31.5986 38.1917 31.9322 38.0417 32.2474C37.8784 32.5916 37.6502 32.9008 37.3697 33.1577C37.105 33.3998 36.8012 33.5948 36.4712 33.7342C36.7181 33.5041 36.9239 33.2331 37.0795 32.9331C37.2257 32.6528 37.3152 32.3461 37.3427 32.0309C37.3719 31.7277 37.3561 31.4219 37.296 31.1233C37.2459 30.8435 37.1551 30.5727 37.0264 30.3195L36.7407 29.8305L37.3903 29.4606C37.5953 29.351 37.7863 29.2168 37.9591 29.0609Z" fill="white"/>
<path d="M19.3731 25.2519C18.3946 25.0632 17.457 24.7028 16.6031 24.1873C16.5932 24.3109 16.5869 24.4363 16.5887 24.5482C16.5901 24.8223 16.6257 25.095 16.6947 25.3602C16.7037 25.3963 16.7208 25.4269 16.7315 25.4612C17.259 25.8492 18.1997 26.4726 19.2563 26.8587C19.23 26.3203 19.2692 25.7808 19.3731 25.2519Z" fill="#EF5685"/>
<path d="M28.1961 26.3183C27.8304 26.9074 27.2598 27.4541 26.541 27.6337C26.3776 27.6718 26.2115 27.6978 26.0442 27.7113C26.0973 28.0227 26.2372 28.3126 26.4476 28.5476C26.807 28.9319 27.3964 29.1268 28.1961 29.1268C28.9957 29.1268 29.5842 28.9319 29.9436 28.5476C30.1543 28.3129 30.2942 28.0228 30.347 27.7113C30.18 27.6978 30.0142 27.6719 29.8511 27.6337C29.1323 27.4541 28.5617 26.9074 28.1961 26.3183Z" fill="#EFD9AB"/>
<path d="M19.3983 27.9359C18.8664 27.7773 18.3505 27.5688 17.8574 27.3134L17.8475 27.3585C17.832 27.448 17.823 27.5384 17.8205 27.6292C17.819 27.7372 17.8256 27.8452 17.8403 27.9522C17.8685 28.1622 17.9349 28.3653 18.0362 28.5512C18.1384 28.7401 18.2728 28.9096 18.4333 29.0519C18.6069 29.2065 18.7985 29.3394 19.0038 29.448L19.6534 29.8179L19.3677 30.3068C19.2395 30.5602 19.1487 30.831 19.0982 31.1107C19.038 31.4092 19.0223 31.7151 19.0514 32.0183C19.079 32.3335 19.1685 32.6401 19.3147 32.9204C19.4375 33.1651 19.5982 33.3886 19.7909 33.5826L19.9391 31.9452L20.0398 30.6749L20.0856 30.0389C20.0847 29.9272 20.1014 29.8161 20.135 29.7096L20.1161 29.6807C19.7842 29.1421 19.5417 28.5528 19.3983 27.9359Z" fill="white"/>
<path d="M17.9087 43.0104L17.9518 42.9923C17.959 43.0113 18.1073 43.3604 18.3894 43.9333C18.4271 43.7375 18.4613 43.5408 18.4972 43.3442C18.3445 43.0735 18.2088 42.8317 18.0929 42.6116C18.0309 42.7442 17.9662 42.8768 17.9087 43.0104Z" fill="#EF5685"/>
<path d="M17.4657 47.8307C17.6975 47.0603 17.897 46.2709 18.0749 45.4733C17.8206 44.9988 17.6122 44.5811 17.4531 44.2491C17.4127 44.3754 17.3633 44.5008 17.3327 44.6289C17.1786 45.1672 17.0926 45.7228 17.0767 46.2826C17.0776 46.8122 17.1719 47.3589 17.4657 47.8307Z" fill="white"/>
<path d="M18.773 41.797C18.8928 41.0494 19.006 40.299 19.1126 39.546C19.3435 37.8662 19.5376 36.1791 19.7047 34.4884L19.7802 33.6584C19.5025 33.53 19.2469 33.3583 19.0228 33.1496C18.7428 32.8923 18.5149 32.5833 18.3516 32.2393C18.2051 31.9314 18.0991 31.6057 18.0362 31.2704C18.021 31.3191 17.9994 31.3606 17.9859 31.4138C17.8457 31.909 17.7722 32.4209 17.7676 32.9358C17.7665 33.9678 18.0518 34.9797 18.5915 35.8579L18.8359 36.2657L18.5466 36.6789C18.4596 36.8141 18.3839 36.9562 18.3201 37.1038C18.2471 37.271 18.187 37.4435 18.1404 37.6199C18.048 37.9783 18.0048 38.3477 18.012 38.7178C18.0266 39.0961 18.087 39.4711 18.1917 39.8347C18.2312 40.0206 18.3166 40.1956 18.3714 40.3832C18.4459 40.5637 18.534 40.7441 18.613 40.9191L18.7802 41.2962L18.6391 41.538C18.6795 41.6156 18.7245 41.7031 18.773 41.797Z" fill="white"/>
<path d="M28.1964 18.4802C26.6007 18.4802 21.7974 20.0211 20.4308 24.9759C20.0184 26.4726 20.199 27.9621 20.9403 29.1692C21.8558 30.6614 24.0167 33.1649 28.1964 33.1649C32.3762 33.1649 34.5361 30.6614 35.4526 29.1692C36.1938 27.9603 36.3744 26.4717 35.962 24.9759C34.5981 20.0211 29.7912 18.4802 28.1964 18.4802ZM34.6952 28.8318C33.6925 30.4647 31.7517 32.4098 28.1964 32.4098C24.6411 32.4098 22.6995 30.4647 21.6977 28.8318C21.031 27.7447 20.8675 26.4049 21.2386 25.0598C22.5639 20.2512 27.3159 19.2398 28.1964 19.2398C29.077 19.2398 33.829 20.2512 35.1543 25.0598C35.5245 26.4058 35.3618 27.7456 34.6952 28.8318Z" fill="#EF5685"/>
<path d="M32.143 29.982C31.8303 29.5643 32.559 28.5187 32.559 28.5187C34.0172 27.0554 33.1933 25.3367 33.1933 25.3367C33.2571 26.0801 32.8456 26.8145 32.1843 27.2602C32.0749 27.333 31.9602 27.3976 31.8411 27.4532C31.8267 27.8953 31.7072 28.7867 31.0235 29.5282C30.3748 30.2338 29.426 30.5946 28.196 30.5946C26.9659 30.5946 26.0144 30.2338 25.3675 29.5355C24.6847 28.7912 24.5643 27.8998 24.5508 27.4605C24.4318 27.4048 24.317 27.3403 24.2076 27.2674C23.5463 26.8217 23.1348 26.0873 23.1986 25.3439C23.1986 25.3439 22.3747 27.0581 23.8329 28.5259C23.8329 28.5259 24.5616 29.5716 24.2489 29.9893C23.9362 30.407 21.6586 28.636 21.1941 26.3625C21.1507 27.1716 21.35 27.9752 21.7664 28.6694C22.7547 30.2798 24.673 32.2005 28.1951 32.2005C31.7171 32.2005 33.6345 30.2798 34.6237 28.6694C35.0401 27.9752 35.2395 27.1716 35.1961 26.3625C34.7333 28.6333 32.453 30.3979 32.143 29.982Z" fill="#D1B990"/>
<path d="M21.3667 25.7346C22.6668 21.0162 27.3866 19.9498 28.1952 19.9498C29.0039 19.9498 33.7236 21.0162 35.0237 25.7346C35.1164 26.075 35.173 26.4243 35.1926 26.7766C35.2195 26.2596 35.1624 25.7416 35.0237 25.2429C33.7227 20.5254 29.0039 19.459 28.1952 19.459C27.3866 19.459 22.6659 20.5254 21.3667 25.2429C21.2281 25.7416 21.1711 26.2596 21.1978 26.7766C21.217 26.4242 21.2736 26.0749 21.3667 25.7346Z" fill="white"/>
<path d="M29.8511 27.6337C29.1323 27.4532 28.5617 26.9119 28.1961 26.3183C27.8304 26.9074 27.2598 27.4541 26.541 27.6337C26.3776 27.6718 26.2115 27.6978 26.0442 27.7113C26.0973 28.0229 26.2375 28.3129 26.4485 28.5476C26.8079 28.9319 27.3964 29.1268 28.1961 29.1268C28.9957 29.1268 29.5842 28.9319 29.9436 28.5476C30.1542 28.3127 30.2944 28.0227 30.3479 27.7113C30.1806 27.6979 30.0145 27.672 29.8511 27.6337ZM28.1961 28.6261C27.214 28.6261 27.0604 27.9945 27.0604 27.9945C27.5806 28.1344 28.1961 27.7239 28.1961 27.7239C28.1961 27.7239 28.8106 28.1371 29.3317 27.9945C29.3317 27.9954 29.1772 28.6234 28.1961 28.6234V28.6261Z" fill="#D1B990"/>
<path d="M19.0541 11.4089C19.0541 11.4089 13.0819 4.60381 17.347 1.91171C17.347 1.91171 16.4863 6.02203 19.498 8.41912C19.5034 8.41912 19.8762 10.0927 19.0541 11.4089Z" fill="#D2C8DB"/>
<path d="M37.3366 11.4089C37.3366 11.4089 42.7751 4.60381 38.5047 1.91171C38.5047 1.91171 39.3654 6.02203 36.3537 8.41912C36.3555 8.41912 36.1444 9.80486 37.3366 11.4089Z" fill="#D2C8DB"/>
<path d="M22.199 87.6745C23.0373 87.43 23.9897 87.8125 24.5189 88.5099C24.9142 89.0304 25.0894 89.6827 25.2565 90.3142L26.9169 96.6051C27.0885 97.2529 27.2512 97.9782 26.9268 98.5637C26.4722 99.3829 25.3554 99.4749 24.4209 99.4659C23.7084 99.4596 22.9834 99.4506 22.3014 99.2476C21.6195 99.0446 20.9663 98.6161 20.6545 97.9764C20.3283 97.3043 20.4146 96.5131 20.508 95.7706C20.7219 94.07 21.2358 92.1529 21.163 90.4414C21.128 89.6114 20.6069 87.6745 22.199 87.6745Z" fill="#EFD9AB"/>
<path d="M25.5815 92.0906C25.918 91.4095 25.9836 90.6252 25.765 89.8972C25.5463 89.1693 25.0598 88.5522 24.4043 88.1715C23.7489 87.7908 22.9736 87.6749 22.2361 87.8476C21.4987 88.0202 20.8543 88.4683 20.4341 89.1008C20.5886 89.7034 20.6488 90.704 21.001 91.2155C21.2706 91.6034 21.7198 91.4203 22.1044 91.3463C23.3164 91.1163 24.586 91.3283 25.5815 92.0906Z" fill="#D1B990"/>
<path d="M20.8906 92.8647C20.8753 92.0617 20.8582 91.2407 20.6022 90.4838C20.4014 89.8855 20.0602 89.3444 19.6072 88.9065C19.1543 88.4685 18.603 88.1465 17.9999 87.9677C17.3969 87.7889 16.7598 87.7584 16.1426 87.879C15.5254 87.9996 14.9461 88.2677 14.4539 88.6605C14.5599 89.1251 14.594 90.169 14.9462 90.5082C15.2571 90.8077 15.8519 90.556 16.2194 90.5217C17.4126 90.4089 18.639 90.8068 19.6004 91.5078C19.905 91.7297 20.8843 92.4452 20.8906 92.8647Z" fill="#D1B990"/>
<path d="M23.8531 56.322C24.1112 55.1302 24.1953 53.9069 24.1029 52.6908C24.0995 52.5853 24.0625 52.4837 23.9973 52.401C23.9321 52.3182 23.8422 52.2587 23.7408 52.2311C23.6394 52.2035 23.5318 52.2094 23.434 52.2478C23.3361 52.2862 23.2531 52.3551 23.1972 52.4445C22.4703 53.4865 23.0732 54.7387 22.6797 55.8565C22.641 55.948 22.6375 56.0505 22.6697 56.1445C22.7018 56.2384 22.7675 56.3171 22.854 56.3653C22.8441 56.4086 22.8378 56.4555 22.827 56.4952C22.7955 56.6199 22.8132 56.752 22.8766 56.8639C22.9399 56.9757 23.0438 57.0586 23.1666 57.0952C24.2161 57.4245 25.1703 58.4331 24.8145 59.6041C24.4587 60.7752 23.0175 61.2461 22.0507 60.4675C21.5682 60.0778 20.8764 60.7634 21.3634 61.1577C22.8126 62.3305 24.9726 61.8596 25.6761 60.0841C26.3015 58.4927 25.2745 56.9698 23.8531 56.322Z" fill="#D2C8DB"/>
<path d="M38.2602 52.9136C38.0571 52.7936 37.6986 52.8441 37.5962 53.0886C37.1407 54.1712 36.3608 55.0274 35.4857 55.787C35.0535 56.1614 34.6034 56.5088 34.1487 56.8588C33.7148 57.1899 33.2718 57.5138 32.7363 57.6356C32.6674 57.5914 32.5871 57.5685 32.5054 57.5697C32.3772 57.5718 32.2549 57.624 32.1643 57.7151C32.0738 57.8062 32.0221 57.9291 32.0202 58.0578L32.0687 59.9921C32.0721 60.0625 32.0898 60.1315 32.1207 60.1948C32.1516 60.2581 32.1951 60.3144 32.2484 60.3602C32.2416 60.4662 32.2703 60.5714 32.3298 60.6592C32.3894 60.747 32.4765 60.8123 32.5773 60.8446C34.5441 61.515 35.793 63.6414 35.0302 65.6614C34.8378 66.1671 34.5192 66.6147 34.1049 66.9612C33.6906 67.3077 33.1946 67.5413 32.6644 67.6398C31.571 67.8464 30.4793 67.4116 29.7435 66.596C29.323 66.1305 28.6374 66.8216 29.0561 67.2862C30.5835 68.9723 33.2305 69.114 34.9035 67.5641C36.4426 66.1395 36.633 63.6522 35.4947 61.9318C34.8987 61.041 34.0405 60.3594 33.04 59.9822L33.005 58.5757C33.589 58.4467 34.0984 58.1119 34.571 57.7538C35.0912 57.3586 35.6115 56.9599 36.1074 56.5331C37.0625 55.714 37.9403 54.7558 38.4345 53.5812C38.5369 53.3385 38.5073 53.0589 38.2602 52.9136Z" fill="#D2C8DB"/>
<path d="M19.4423 46.6579C19.4612 46.0417 18.5025 46.0453 18.4719 46.6678C18.4031 48.1753 17.931 49.6363 17.1053 50.8972C16.7459 51.4385 16.259 51.9419 15.6067 52.0998C14.9005 52.2703 14.3874 51.8743 13.9975 51.323C13.9463 51.2463 13.8762 51.1842 13.794 51.1427C13.7118 51.1013 13.6203 51.082 13.5285 51.0867C13.4562 50.7899 13.4045 50.4884 13.3739 50.1845C13.2949 49.5178 13.2185 48.8511 13.1403 48.1843C13.1098 47.9227 12.9391 47.6972 12.6551 47.6972C12.4161 47.6972 12.1385 47.9209 12.1691 48.1843C12.2373 48.7678 12.3053 49.3512 12.373 49.9346C12.4368 50.484 12.4799 51.0506 12.6551 51.5783C12.8073 52.0308 13.0578 52.4437 13.3885 52.787C13.7192 53.1303 14.1218 53.3954 14.5671 53.5631C15.4656 53.9105 16.4962 53.7905 17.3308 53.3241C18.2195 52.8288 18.7855 51.9564 19.0874 51.0018C19.4818 49.7568 19.4028 48.4343 19.5959 47.1559C19.6141 47.0666 19.6096 46.9741 19.5828 46.8871C19.5559 46.8 19.5076 46.7212 19.4423 46.6579Z" fill="#D2C8DB"/>
<path d="M40.9772 49.6432C40.9638 49.3888 40.7643 49.1425 40.492 49.1551C40.2405 49.166 39.9907 49.3699 40.006 49.6432C40.0091 49.6982 40.0091 49.7533 40.006 49.8083C40.0006 49.8209 39.9835 49.9229 39.979 49.9382C39.9646 49.9915 39.9458 50.0447 39.926 50.097C39.9134 50.1286 39.9134 50.1268 39.926 50.0916C39.9125 50.1214 39.8981 50.1511 39.8838 50.1818C39.7636 50.404 39.6304 50.6188 39.4849 50.8251L38.7912 51.8635C38.701 51.8986 38.6236 51.9606 38.5696 52.0413C38.5156 52.122 38.4876 52.2174 38.4893 52.3146C38.4893 52.3398 38.4893 52.3642 38.4947 52.3894C38.4854 52.458 38.4906 52.5278 38.51 52.5942C38.554 53.1942 38.607 53.7959 38.6097 54.3986C38.6097 55.0427 38.4013 55.7329 38.6403 56.3554C38.7301 56.6008 38.9673 56.7704 39.2378 56.6955C39.4723 56.6315 39.6717 56.3428 39.5774 56.0956C39.4741 55.8249 39.4947 55.5615 39.5244 55.2836C39.5621 54.966 39.581 54.6463 39.581 54.3264C39.572 53.7472 39.5226 53.168 39.4804 52.5897L40.3851 51.2365C40.6951 50.7511 41.0051 50.2332 40.9772 49.6432Z" fill="#D2C8DB"/>
<path d="M6.96052 78.5002C6.96052 78.5002 8.00187 81.9853 10.8483 81.9853C10.8483 81.9853 12.7917 80.4516 10.8483 76.7581C10.8483 76.7581 10.9174 73.2035 12.5832 72.019C12.5832 72.019 11.6111 73.6916 12.93 74.9456C14.249 76.1997 13.7629 77.0017 13.7629 77.0017L14.4539 80.5915L16.887 84.4943L18.2751 87.605L16.3317 87.7728L12.9992 88.1337L11.4035 86.9987L9.66765 84.9778L8.27949 83.0264C8.27949 83.0264 5.92008 80.2378 6.96052 78.5002Z" fill="#D2C8DB"/>
<path d="M18.2753 87.6005C18.2753 87.6005 21.8845 83.5136 27.7147 87.2775L27.1136 88.6714H25.5629C25.5629 88.6714 21.9689 87.4985 20.4343 90.0697C20.4343 90.0697 18.1001 88.9429 18.2753 87.6005Z" fill="#D2C8DB"/>
<path d="M30.1443 82.3985C30.1443 82.3985 32.1569 78.705 30.8388 76.0562C30.8388 76.0562 33.9619 77.6594 32.5738 80.8657C32.5738 80.8657 36.4606 79.8201 35.6969 75.6385C35.6969 75.6385 38.8901 75.2199 39.7922 72.8508L38.4903 76.8203L36.9467 77.6215L36.5298 78.493L35.767 81.0714L34.3779 82.8839L31.7157 85.1141H29.7283L30.1443 82.3985Z" fill="#D2C8DB"/>
<path d="M39.5062 27.3468C39.4391 27.2374 39.3325 27.1581 39.2087 27.1255C39.0849 27.0929 38.9533 27.1095 38.8414 27.1718C38.7712 27.2141 38.6972 27.2497 38.6203 27.2782C38.7488 27.2412 38.6015 27.2845 38.5736 27.2944C38.5458 27.3044 38.508 27.3188 38.4748 27.3296C38.3147 27.3846 38.1507 27.4271 37.9842 27.4568C37.9513 27.4645 37.918 27.4702 37.8845 27.474L37.8369 27.4785C37.7551 27.4866 37.6733 27.492 37.5925 27.4938C37.4644 27.495 37.3363 27.489 37.2088 27.4758C37.198 27.4758 37.1882 27.4758 37.1774 27.4758C37.1468 27.4758 37.1163 27.4758 37.0875 27.4758C37.0237 27.4759 36.9606 27.4886 36.9017 27.5132C36.8428 27.5378 36.7893 27.5738 36.7443 27.6192C36.6706 27.6986 36.6245 27.8 36.6131 27.9079C36.0599 28.9841 35.433 30.0204 34.7371 31.0096C34.796 31.0702 34.8331 31.1488 34.8426 31.233C34.8521 31.3171 34.8335 31.4021 34.7897 31.4744C34.7458 31.5468 34.6792 31.6024 34.6004 31.6326C34.5216 31.6628 34.435 31.6658 34.3543 31.6411C32.5879 33.2885 30.2034 34.151 27.7954 34.1086C26.6186 34.0935 25.4564 33.8449 24.3758 33.3769C23.1619 32.841 22.3147 32.0543 21.568 31.0204C21.5752 30.9113 21.586 30.803 21.5941 30.6947C21.6291 30.1733 20.9651 30.0939 20.719 30.4385C20.4494 30.5288 20.2562 30.8202 20.4575 31.1224C20.4952 31.1801 20.5357 31.2352 20.5743 31.292C20.2796 35.3632 19.8028 39.4164 19.1439 43.4515C19.0424 44.0659 19.9795 44.3302 20.081 43.7114C20.6962 39.9697 21.1538 36.2076 21.4539 32.4251C22.0845 33.1465 22.8561 33.7299 23.7208 34.1393C24.9429 34.7111 26.2673 35.0293 27.6148 35.0748C30.3528 35.1747 33.0196 34.187 35.0372 32.3259C35.1209 32.2544 35.1735 32.1529 35.1838 32.043C35.194 31.9331 35.1611 31.8235 35.092 31.7377C35.1404 31.7429 35.1893 31.7398 35.2367 31.7286C35.251 34.8204 35.3678 37.9104 35.6059 40.9931C35.67 41.8285 35.7428 42.6636 35.8243 43.4984C35.8881 44.1624 35.906 44.877 36.154 45.5049C36.5511 46.5117 37.7901 47.1342 38.6761 46.3069C39.1352 45.8784 38.446 45.19 37.9887 45.6167C37.455 46.1157 37.0156 45.1034 36.9411 44.738C36.8198 44.139 36.7955 43.5102 36.7389 42.9021C36.6143 41.5506 36.5113 40.1974 36.4298 38.8423C36.2693 36.1719 36.1935 33.4987 36.2025 30.8229C36.2031 30.7485 36.1865 30.675 36.154 30.6081C36.6032 29.9099 37.0318 29.1989 37.4119 28.4619C38.0773 28.4773 38.736 28.3246 39.3274 28.018C39.4395 27.9526 39.5213 27.8452 39.5548 27.7194C39.5883 27.5937 39.5708 27.4597 39.5062 27.3468Z" fill="#D2C8DB"/>
<path d="M22.6776 13.4451C22.1623 13.4451 21.6585 13.5986 21.23 13.8861C20.8015 14.1735 20.4676 14.5822 20.2704 15.0602C20.0732 15.5383 20.0216 16.0643 20.1221 16.5719C20.2226 17.0794 20.4708 17.5456 20.8352 17.9115C21.1996 18.2774 21.6639 18.5265 22.1693 18.6275C22.6747 18.7284 23.1986 18.6766 23.6747 18.4786C24.1509 18.2806 24.5578 17.9452 24.8441 17.515C25.1304 17.0847 25.2832 16.5789 25.2832 16.0614C25.2832 15.3676 25.0087 14.7021 24.5201 14.2114C24.0314 13.7208 23.3687 13.4451 22.6776 13.4451ZM21.196 17.4147C21.0983 17.4147 21.0028 17.3856 20.9215 17.3311C20.8402 17.2766 20.7769 17.1991 20.7395 17.1084C20.7021 17.0177 20.6923 16.918 20.7114 16.8217C20.7304 16.7255 20.7775 16.637 20.8466 16.5677C20.9157 16.4983 21.0038 16.451 21.0996 16.4319C21.1955 16.4127 21.2948 16.4225 21.3851 16.4601C21.4754 16.4976 21.5526 16.5612 21.6069 16.6428C21.6612 16.7244 21.6902 16.8204 21.6902 16.9185C21.6905 16.9839 21.678 17.0486 21.6533 17.1091C21.6287 17.1696 21.5923 17.2245 21.5464 17.2708C21.5004 17.3171 21.4458 17.3538 21.3857 17.3788C21.3256 17.4038 21.2611 17.4166 21.196 17.4165V17.4147ZM23.5204 17.2262C23.2609 17.2263 23.0071 17.1492 22.7913 17.0046C22.5754 16.8599 22.4071 16.6542 22.3077 16.4135C22.2083 16.1727 22.1823 15.9078 22.2329 15.6522C22.2835 15.3966 22.4084 15.1619 22.5919 14.9776C22.7754 14.7933 23.0093 14.6679 23.2638 14.6171C23.5184 14.5663 23.7822 14.5924 24.0219 14.6922C24.2616 14.792 24.4665 14.961 24.6106 15.1778C24.7547 15.3945 24.8315 15.6493 24.8313 15.9099C24.8315 16.0829 24.7978 16.2542 24.732 16.4142C24.6663 16.5741 24.5697 16.7194 24.448 16.8418C24.3262 16.9642 24.1816 17.0613 24.0225 17.1276C23.8633 17.1939 23.6927 17.228 23.5204 17.228V17.2262Z" fill="#3A2033"/>
<path d="M31.7953 26.598C31.294 26.8407 30.6686 26.8028 30.1978 26.598C29.727 26.3932 29.4179 25.9827 29.223 25.4522C29.0962 25.0984 29.0118 24.7308 28.9714 24.357C29.1892 24.2952 29.3978 24.2041 29.5913 24.0863C30.0082 23.8211 30.3883 23.379 30.382 22.8494C29.9049 22.9956 29.5491 22.9929 29.2059 23.0064H28.196H27.187C26.8438 22.9929 26.488 22.9956 26.0091 22.8512C26.0019 23.3817 26.3829 23.8256 26.7997 24.0899C26.9936 24.2079 27.2024 24.2989 27.4206 24.3606C27.3793 24.7336 27.2948 25.1006 27.169 25.454C26.9741 25.9845 26.6578 26.4004 26.1942 26.5998C25.7306 26.7992 25.098 26.8388 24.5958 26.5998C24.0935 26.3607 23.6802 25.878 23.1986 25.3367C23.1348 26.0801 23.5463 26.8145 24.2076 27.2602C24.3171 27.333 24.4318 27.3976 24.5509 27.4532C24.5643 27.8953 24.6847 28.7867 25.3676 29.5282C26.0145 30.2319 26.966 30.5883 28.196 30.5883C29.426 30.5883 30.3775 30.2274 31.0235 29.5282C31.7073 28.7848 31.8268 27.8935 31.8411 27.4532C31.9602 27.3976 32.0749 27.333 32.1844 27.2602C32.8456 26.8145 33.2572 26.0801 33.1934 25.3367C32.7109 25.8789 32.3093 26.3454 31.7953 26.598ZM29.9435 28.5476C29.5841 28.9319 28.9956 29.1268 28.196 29.1268C27.3963 29.1268 26.8078 28.9319 26.4475 28.5476C26.2371 28.3126 26.0973 28.0227 26.0441 27.7113C26.2114 27.6978 26.3775 27.6718 26.541 27.6337C27.2598 27.4532 27.8303 26.9119 28.196 26.3183C28.5617 26.9074 29.1322 27.4541 29.851 27.6337C30.0142 27.6719 30.1799 27.6978 30.347 27.7113C30.2942 28.0228 30.1543 28.3129 29.9435 28.5476Z" fill="#3A2033"/>
<path d="M33.7147 13.4451C33.1994 13.4451 32.6956 13.5986 32.2671 13.8861C31.8387 14.1735 31.5047 14.5822 31.3075 15.0602C31.1103 15.5383 31.0587 16.0643 31.1592 16.5719C31.2597 17.0794 31.5079 17.5456 31.8723 17.9115C32.2367 18.2774 32.701 18.5265 33.2064 18.6275C33.7118 18.7284 34.2358 18.6766 34.7119 18.4786C35.188 18.2806 35.5949 17.9452 35.8812 17.515C36.1675 17.0847 36.3203 16.5789 36.3203 16.0614C36.3203 15.3676 36.0458 14.7021 35.5572 14.2114C35.0685 13.7208 34.4058 13.4451 33.7147 13.4451ZM32.2322 17.4147C32.1345 17.4147 32.039 17.3856 31.9577 17.3311C31.8764 17.2766 31.8131 17.1991 31.7757 17.1084C31.7383 17.0177 31.7285 16.918 31.7476 16.8217C31.7666 16.7255 31.8137 16.637 31.8828 16.5677C31.9519 16.4983 32.04 16.451 32.1358 16.4319C32.2317 16.4127 32.3311 16.4225 32.4214 16.4601C32.5117 16.4976 32.5888 16.5612 32.6431 16.6428C32.6974 16.7244 32.7264 16.8204 32.7264 16.9185C32.7268 16.9839 32.7142 17.0486 32.6895 17.1091C32.6649 17.1696 32.6285 17.2245 32.5826 17.2708C32.5366 17.3171 32.482 17.3538 32.4219 17.3788C32.3618 17.4038 32.2973 17.4166 32.2322 17.4165V17.4147ZM34.5566 17.2262C34.2971 17.2263 34.0434 17.1492 33.8275 17.0046C33.6116 16.8599 33.4434 16.6542 33.344 16.4135C33.2446 16.1727 33.2185 15.9078 33.2691 15.6522C33.3197 15.3966 33.4446 15.1619 33.6282 14.9776C33.8117 14.7933 34.0455 14.6679 34.3 14.6171C34.5546 14.5663 34.8184 14.5924 35.0581 14.6922C35.2979 14.792 35.5027 14.961 35.6468 15.1778C35.7909 15.3945 35.8677 15.6493 35.8675 15.9099C35.8677 16.0829 35.834 16.2542 35.7682 16.4142C35.7025 16.5741 35.6059 16.7194 35.4842 16.8418C35.3624 16.9642 35.2178 17.0613 35.0587 17.1276C34.8995 17.1939 34.7289 17.228 34.5566 17.228V17.2262Z" fill="#3A2033"/>
<path d="M40.803 9.72274C41.4254 8.92487 41.9444 8.05089 42.3475 7.12176C42.75 6.17447 42.9998 5.09276 42.8866 3.98218C42.7914 2.8698 42.2496 1.81064 41.5281 1.02485C41.3326 0.793942 41.1051 0.592495 40.8524 0.426703C40.5792 0.250732 40.2762 0.126582 39.9584 0.0604191C39.3218 -0.0751403 38.6579 0.0207794 38.0851 0.331072C37.7981 0.483748 37.5418 0.688724 37.3295 0.935532C37.223 1.05779 37.1268 1.18876 37.042 1.32708C36.9719 1.45699 36.8766 1.63923 36.8416 1.72764C36.6547 2.15708 36.4588 2.582 36.2594 3.00422C35.8578 3.84686 35.4301 4.67416 34.9575 5.45454C34.7262 5.83725 34.4749 6.20736 34.2045 6.56331C34.1147 6.67608 34.0248 6.78344 33.935 6.88629C33.8087 6.71943 33.6719 6.56091 33.5253 6.41175C33.2275 6.09573 32.8876 5.8225 32.5154 5.59979C32.1061 5.34759 31.6454 5.19153 31.1677 5.14329C30.799 5.10835 30.4272 5.14817 30.0742 5.26038C29.7212 5.37258 29.3943 5.55489 29.1128 5.79646C28.8535 5.43649 28.5084 5.14766 28.109 4.95646C27.7097 4.76525 27.2689 4.6778 26.8271 4.70212C26.3284 4.71746 25.7103 5.0242 25.403 5.48792C25.2167 5.75907 25.0846 6.06392 25.014 6.38558C24.7557 6.26728 24.4842 6.18065 24.2053 6.12756C23.7609 6.03934 23.302 6.05726 22.8657 6.17989C22.613 6.25315 22.3734 6.36612 22.1559 6.5146C21.8985 6.17308 21.6586 5.81867 21.4371 5.45273C20.9617 4.65871 20.5262 3.84121 20.1325 3.00332C19.933 2.5811 19.7372 2.15618 19.5503 1.72674C19.5143 1.63652 19.4191 1.45609 19.3499 1.32617C19.2648 1.18784 19.1683 1.05687 19.0615 0.934629C18.8496 0.687696 18.5937 0.482693 18.3068 0.330172C17.734 0.0198791 17.0701 -0.0760406 16.4334 0.0595188C16.1156 0.125504 15.8125 0.249667 15.5394 0.425802C15.2866 0.591322 15.059 0.792802 14.8638 1.02395C14.145 1.80974 13.5996 2.8689 13.5053 3.98128C13.3894 5.09186 13.64 6.17357 14.0444 7.12086C14.4475 8.04998 14.9665 8.92396 15.5889 9.72183C15.8755 10.1314 16.2178 10.486 16.5251 10.8694C16.7048 11.0706 16.8926 11.2646 17.0776 11.4594C17.0363 11.5181 16.9959 11.5776 16.9537 11.6399C16.7918 11.886 16.6451 12.1418 16.5143 12.4058C15.991 13.4669 15.7485 14.6453 15.8099 15.8278C15.8314 16.2906 15.8982 16.7503 16.0093 17.2C15.7391 17.6043 15.502 18.03 15.3004 18.4729C15.0469 19.0292 14.8588 19.6133 14.7398 20.2132C14.6213 20.838 14.6058 21.478 14.694 22.1078C14.7753 22.6492 14.9463 23.1731 15.1998 23.6578C15.1511 23.9581 15.1277 24.262 15.1297 24.5662C15.1324 24.9684 15.1862 25.3686 15.2897 25.7571C15.4009 26.167 15.5834 26.554 15.8288 26.9002C15.9801 27.1223 16.1615 27.3221 16.3678 27.4938C16.3678 27.529 16.3678 27.5642 16.3678 27.6012C16.3636 27.79 16.3747 27.9789 16.4011 28.1659C16.455 28.5456 16.5767 28.9124 16.7605 29.2486C16.8548 29.4182 16.9617 29.5804 17.0803 29.7339C17.0201 29.8566 16.9644 29.9784 16.9078 30.1083C16.7828 30.4038 16.6765 30.7069 16.5898 31.0159C16.4154 31.6376 16.3247 32.28 16.3202 32.9258C16.3162 34.0757 16.5962 35.2087 17.1352 36.2233C17.0857 36.3198 17.0453 36.4145 16.9941 36.5174C16.8925 36.7529 16.8092 36.996 16.7452 37.2445C16.7452 37.2581 16.7452 37.2725 16.7371 37.286C15.9438 37.692 15.3418 38.2983 14.8368 38.9226C14.2792 39.6421 13.8098 40.4263 13.4388 41.2583C13.2717 41.63 13.1207 42.008 12.9815 42.3897C12.6104 42.5655 12.228 42.7162 11.8368 42.8407C11.3363 41.3909 9.38034 39.8022 7.79362 38.9614C7.29855 38.697 7.00744 38.3488 6.90322 37.8968C6.80388 37.4682 6.58343 37.0775 6.26832 36.7717C5.95322 36.4659 5.55688 36.2579 5.12691 36.1728C4.6829 36.0717 4.21926 36.1017 3.79187 36.2592C3.36447 36.4168 2.99156 36.695 2.71809 37.0605C1.83667 38.2378 1.701 39.6768 1.70459 40.4807C1.22558 40.6861 0.845452 41.0714 0.645278 41.5542C0.184356 42.6756 0.775558 44.1516 1.22929 45.0213C0.330808 45.5888 0.0612616 46.2789 0.0145404 46.8031C-0.151679 48.5723 1.92293 50.3694 3.11072 51.2463C2.68754 51.8851 2.36678 52.8071 2.66148 53.8726C2.15458 54.5116 1.79764 55.2571 1.6172 56.0536C1.43676 56.8502 1.43745 57.6774 1.61923 58.4737C1.2832 59.3948 0.288578 62.7698 2.1709 66.4128C2.04871 67.1869 1.98222 69.233 3.81063 72.0704C3.59769 73.0132 3.39464 75.5167 5.95531 78.7465C5.75585 79.7389 5.63905 82.265 8.65076 84.8001C9.27744 86.2445 10.3176 87.4692 11.6391 88.3186C12.2833 88.7282 13.0686 88.8879 13.8763 88.9095L15.065 94.1042C14.6212 94.8034 13.6715 96.6078 14.5134 98.1568C15.1423 99.3179 17.0767 99.5868 18.73 99.5868C19.4085 99.5842 20.0863 99.5445 20.7605 99.4677C20.9133 99.5383 21.0721 99.5951 21.2349 99.6373C21.5466 99.7184 21.8629 99.7807 22.1819 99.824C22.7859 99.909 23.3937 99.9635 24.0032 99.9873C24.6164 100.016 25.2308 100.01 25.8433 99.9675C26.1761 99.9455 26.5066 99.8966 26.8316 99.8213C27.0595 99.7694 27.2767 99.6778 27.4731 99.5507C27.5617 99.4901 27.641 99.4169 27.7085 99.3333C27.7518 99.2761 27.7909 99.2158 27.8253 99.1528C27.846 99.1104 27.8478 99.0987 27.8595 99.0707L27.9691 98.7721C28.1838 97.9529 28.0131 97.2186 27.7894 96.5943C27.5842 96.0439 27.3145 95.5199 26.9861 95.0335L26.3194 89.6267C26.43 89.6105 26.5405 89.5907 26.6546 89.5663C27.0696 89.4814 27.4656 89.3206 27.8226 89.0918C28.2319 88.8215 28.5462 88.4289 28.7211 87.9694C28.8275 87.6886 28.877 87.3892 28.8666 87.0889C29.0943 86.9132 29.307 86.7188 29.5028 86.5079C29.5261 86.4827 29.5477 86.4547 29.5702 86.4285C34.9817 85.8132 36.758 80.6239 37.148 79.203C39.3555 77.9399 39.6889 74.9736 39.7392 74.0606C42.2487 70.7676 41.9135 64.1132 41.839 63.0071C43.564 57.4695 42.1085 52.9027 41.8228 52.1061C41.6584 49.3319 40.5649 47.4581 39.7563 46.4332C39.7662 46.3939 39.7729 46.3537 39.776 46.3132C39.7875 46.2011 39.7743 46.0877 39.7374 45.9812C39.7183 45.9252 39.6939 45.8711 39.6646 45.8197C39.6404 45.7811 39.6134 45.7443 39.5838 45.7097C39.5555 45.6779 39.5255 45.6478 39.4939 45.6194C39.4714 45.5999 39.4477 45.5818 39.4229 45.5653L39.4041 45.5545C39.936 43.7736 39.4598 42.0107 39.2127 41.2962C40.3304 38.8739 39.6799 37.0289 39.263 36.2296C40.7716 33.3634 39.8434 30.8003 39.3151 29.7393C39.4331 29.5859 39.5398 29.424 39.6341 29.2549C39.8179 28.9187 39.9396 28.5519 39.9935 28.1723C40.0201 27.9852 40.0316 27.7964 40.0276 27.6075C40.0276 27.5705 40.0276 27.5353 40.0276 27.5001C40.2337 27.3281 40.4151 27.1284 40.5667 26.9065C40.812 26.5603 40.9945 26.1734 41.1058 25.7634C41.209 25.3749 41.2624 24.9747 41.2648 24.5726C41.2672 24.2683 41.2441 23.9644 41.1956 23.6641C41.4492 23.1794 41.6202 22.6555 41.7015 22.1141C41.7892 21.4843 41.7737 20.8444 41.6557 20.2196C41.5358 19.6198 41.3477 19.0359 41.095 18.4793C40.8931 18.0365 40.6561 17.6108 40.3861 17.2063C40.497 16.7565 40.5635 16.2969 40.5847 15.8341C40.6473 14.6516 40.4046 13.4728 39.8803 12.4121C39.7501 12.1479 39.6037 11.8921 39.4418 11.6462C39.3996 11.5848 39.3591 11.5253 39.3169 11.4657C39.5029 11.2709 39.6898 11.0769 39.8704 10.8757C40.1777 10.4869 40.5164 10.1323 40.803 9.72274ZM25.5063 6.65533C25.5261 6.66887 25.5144 6.66165 25.4991 6.65533H25.5063ZM16.7317 25.4648C16.721 25.4305 16.7039 25.3999 16.6949 25.3638C16.6259 25.0986 16.5903 24.8259 16.5889 24.5518C16.5889 24.4363 16.5889 24.3109 16.6032 24.1909C17.4572 24.7064 18.3948 25.0668 19.3733 25.2555C19.2689 25.7864 19.2297 26.3281 19.2565 26.8686C18.1999 26.4789 17.2573 25.8555 16.7317 25.4675V25.4648ZM37.024 30.3113C37.1526 30.5645 37.2435 30.8354 37.2935 31.1152C37.3537 31.4137 37.3694 31.7196 37.3403 32.0227C37.3127 32.338 37.2232 32.6446 37.077 32.9249C36.9214 33.225 36.7157 33.4959 36.4687 33.7261C36.7987 33.5866 37.1026 33.3917 37.3672 33.1496C37.6477 32.8926 37.8759 32.5835 38.0393 32.2393C38.1892 31.9241 38.2971 31.5904 38.36 31.2469C38.6063 32.0098 38.6837 32.8176 38.5868 33.6137C38.49 34.4098 38.2212 35.1751 37.7994 35.8561L37.5532 36.2792L37.8398 36.6717C37.891 36.7411 39.0653 38.3993 37.7751 40.9173L37.6197 41.2258L37.7545 41.5425C37.7643 41.5651 38.7194 43.8449 37.7724 45.7322L37.5694 46.1382C37.3294 46.0975 37.1047 45.9928 36.9189 45.8351C36.7147 45.6539 36.5713 45.4138 36.5083 45.1476C36.4499 44.9374 36.4543 44.434 36.431 44.0452L36.3663 42.8164C36.3154 41.999 36.2579 41.1831 36.1938 40.3688C36.0644 38.7395 35.917 37.1134 35.7517 35.4907L35.4984 33.0548L35.3654 31.8396C35.3415 31.5787 35.3046 31.3191 35.2549 31.0619C35.635 30.6323 35.9773 30.1704 36.2782 29.6816C36.6459 29.0757 36.901 28.4078 37.0312 27.7103C37.5458 27.6759 38.0567 27.5986 38.5586 27.4794C38.5644 27.5294 38.5677 27.5797 38.5685 27.63C38.5708 27.738 38.5644 27.846 38.5496 27.953C38.521 28.163 38.4546 28.366 38.3537 28.5521C38.2513 28.7408 38.1169 28.9102 37.9566 29.0528C37.7828 29.2075 37.5909 29.3405 37.3852 29.4488L36.7356 29.8187L37.024 30.3113ZM35.4525 29.1737C34.5361 30.6659 32.3761 33.1694 28.1964 33.1694C24.0166 33.1694 21.8558 30.6659 20.9402 29.1737C20.199 27.9666 20.0184 26.4771 20.4308 24.9804C21.7974 20.0184 26.6007 18.4847 28.1964 18.4847C29.7921 18.4847 34.5954 20.0256 35.962 24.9804C36.3744 26.4762 36.1938 27.9648 35.4525 29.1737ZM20.6276 34.5696L20.8001 32.0119L20.8692 30.7489C22.1523 32.325 24.4434 34.1411 28.1946 34.1411C31.3024 34.1411 33.4058 32.8933 34.7661 31.5689C34.7724 31.6763 34.7796 31.7828 34.7859 31.8892L34.8559 33.1081L34.9835 35.5439C35.0617 37.1679 35.1282 38.7918 35.1731 40.4157C35.1947 41.2276 35.2099 42.0396 35.2189 42.8516V44.065L35.2126 44.6704C35.2032 44.9143 35.2185 45.1585 35.2585 45.3993C35.3604 45.936 35.6272 46.4272 36.0213 46.804C36.4212 47.181 36.9262 47.4265 37.4687 47.5077C37.7169 47.542 37.9689 47.5365 38.2154 47.4915C36.8039 51.1904 34.1237 52.7981 32.5729 53.4377C32.0628 53.6465 31.4921 53.6494 30.9799 53.4458C25.1263 51.1742 21.4254 46.2717 19.6536 43.3595C19.8459 42.1316 20.0067 40.902 20.1478 39.6705C20.3454 37.9771 20.5009 36.2783 20.6294 34.5696H20.6276ZM18.6132 40.9191C18.5341 40.7387 18.446 40.5582 18.3715 40.3832C18.314 40.2028 18.2286 40.0223 18.1918 39.8347C18.0871 39.4711 18.0267 39.096 18.0121 38.7178C18.0049 38.3476 18.0481 37.9782 18.1405 37.6198C18.1871 37.4434 18.2472 37.2709 18.3202 37.1038C18.384 36.9562 18.4597 36.814 18.5467 36.6789L18.836 36.2657L18.5916 35.8579C18.0519 34.9796 17.7666 33.9677 17.7677 32.9357C17.7724 32.4209 17.8458 31.909 17.986 31.4138C17.9995 31.3651 18.0211 31.319 18.0363 31.2703C18.0992 31.6057 18.2052 31.9314 18.3517 32.2393C18.515 32.5832 18.7429 32.8923 19.0229 33.1496C19.247 33.3582 19.5027 33.53 19.7803 33.6584L19.7048 34.4884C19.5377 36.1791 19.3454 37.8661 19.1127 39.546C19.0085 40.2984 18.8953 41.0487 18.7731 41.7969C18.7246 41.7067 18.6832 41.6165 18.641 41.538L18.7821 41.2962L18.6132 40.9191ZM18.4955 43.3442C18.4595 43.5408 18.4254 43.7375 18.3876 43.9333C18.1055 43.3604 17.9573 43.0113 17.9501 42.9923L17.9069 43.0104C17.9644 42.8768 18.0291 42.7397 18.0866 42.6116C18.2088 42.8317 18.3445 43.0771 18.4973 43.3442H18.4955ZM20.0804 30.0434L20.0346 30.6794L19.9357 31.9479L19.7875 33.5853C19.5948 33.3913 19.4341 33.1678 19.3113 32.9231C19.165 32.6428 19.0756 32.3362 19.048 32.0209C19.0189 31.7178 19.0346 31.4119 19.0947 31.1133C19.1452 30.8337 19.236 30.5629 19.3643 30.3095L19.65 29.8205L19.0004 29.4506C18.7951 29.3421 18.6035 29.2091 18.4299 29.0546C18.2693 28.9123 18.1349 28.7428 18.0327 28.5539C17.9314 28.3679 17.865 28.1649 17.8369 27.9548C17.8222 27.8478 17.8156 27.7399 17.8171 27.6318C17.8196 27.5411 17.8286 27.4506 17.8441 27.3612L17.8539 27.3161C18.3471 27.5715 18.8629 27.7799 19.3948 27.9386C19.5381 28.5571 19.7809 29.1479 20.1136 29.6879L20.1325 29.7168C20.0988 29.8223 20.0819 29.9325 20.0822 30.0434H20.0804ZM17.331 44.6289C17.3661 44.5008 17.411 44.3753 17.4514 44.249C17.6105 44.581 17.8189 44.9987 18.0732 45.4733C17.8935 46.2708 17.6958 47.0602 17.464 47.8307C17.1702 47.3588 17.0749 46.8121 17.0749 46.2826C17.0915 45.7226 17.1781 45.167 17.3328 44.6289H17.331ZM15.9527 39.8302C16.1452 39.5919 16.3555 39.3688 16.5817 39.1626C16.6126 39.498 16.6728 39.8301 16.7614 40.155C16.2996 40.4734 15.6832 40.8767 15.004 41.2863C15.2757 40.7727 15.5939 40.2853 15.9545 39.8302H15.9527ZM13.4837 46.5361C13.5767 45.4934 13.7859 44.4645 14.1073 43.4687C15.1321 42.9446 16.1249 42.3595 17.0803 41.7166C16.9905 42.0522 16.9132 42.3851 16.8449 42.7253C16.7257 43.3164 16.647 43.915 16.6095 44.517C16.5675 45.1203 16.6016 45.7266 16.7111 46.3213C16.8288 46.8888 17.0624 47.4482 17.4568 47.855C17.3023 48.3684 17.1369 48.8763 16.9429 49.3653C16.7977 49.7333 16.6269 50.0905 16.4316 50.4344C16.2421 50.7601 16.0183 51.0659 15.7937 51.2364C15.5538 51.4096 15.4289 51.4304 15.2232 51.3636C14.9188 51.2551 14.644 51.0765 14.4208 50.8422C13.9644 50.3694 13.6904 49.6558 13.5583 48.9034C13.4319 48.1208 13.4068 47.3251 13.4837 46.5361ZM1.45751 46.9384C1.49075 46.5848 1.84475 46.269 2.50963 45.9993L3.33893 45.6637L2.84476 44.9158C2.34431 44.1579 1.72436 42.7415 1.98402 42.11C2.01637 42.0306 2.10352 41.8186 2.59948 41.7166L3.26616 41.5786L3.17631 40.902C3.17631 40.8848 2.97146 39.1445 3.87533 37.9374C3.98374 37.7967 4.13009 37.6902 4.297 37.6305C4.46392 37.5709 4.64438 37.5606 4.81694 37.6009C4.97497 37.6292 5.12133 37.7032 5.23814 37.8138C5.35495 37.9243 5.43713 38.0667 5.47463 38.2234C5.67319 39.0886 6.23654 39.7896 7.10178 40.2515C8.89875 41.2114 10.0281 42.4537 10.3768 43.1249C7.93019 43.7177 4.36411 46.1021 3.60399 49.7803C2.49526 48.8844 1.38922 47.6963 1.4611 46.9384H1.45751ZM20.3194 94.9342C20.0779 95.4758 19.9003 96.0438 19.7902 96.6267C19.7252 96.9754 19.7035 97.3309 19.7255 97.685C19.7382 97.8159 19.758 97.946 19.7848 98.0747C17.951 98.1848 16.0812 97.9908 15.7874 97.4504C15.2942 96.5419 16.0794 95.1472 16.4226 94.688L16.6293 94.4173L15.3463 88.813C16.2422 88.6719 17.1226 88.4447 17.9752 88.1345C18.6105 88.9718 19.3607 89.7585 20.3194 90.3467V94.9342ZM39.9369 49.8398C40.1924 50.6335 40.3413 51.4578 40.3798 52.291L40.3861 52.4092L40.4283 52.5193C40.4463 52.5662 42.1795 57.1763 40.414 62.6941L40.369 62.833L40.3816 62.9782C40.3879 63.0513 40.9531 70.3445 38.467 73.3199L38.2971 73.5247V73.789C38.2971 73.8215 38.2612 77.1009 36.2234 78.0392L35.8856 78.1962L35.8128 78.557C35.7688 78.779 34.7445 83.6417 30.4219 84.7821C30.476 84.5062 30.4917 84.2241 30.4687 83.9439C30.4449 83.6307 30.3712 83.3234 30.2503 83.0336C30.528 82.6074 30.7684 82.158 30.9691 81.6903C31.2314 81.0806 31.4147 80.4396 31.5145 79.7831C31.6157 79.1358 31.6066 78.4759 31.4875 77.8317C31.3977 77.1911 31.1218 76.6029 30.8415 76.0517C31.0113 76.6534 31.156 77.2552 31.1245 77.8633C31.1185 78.4597 31.0109 79.0507 30.8065 79.6108C30.6076 80.1617 30.3392 80.6847 30.0077 81.167C29.6913 81.6358 29.3197 82.0644 28.9008 82.4436L28.5693 82.7314L28.7822 83.2962C28.8981 83.5551 29.0113 83.814 29.0176 84.0657C29.0435 84.3186 29.0042 84.574 28.9035 84.8073C28.7909 85.067 28.6347 85.3053 28.4417 85.5119C28.2422 85.7292 28.016 85.9201 27.7687 86.0803L27.3833 86.3194L27.4129 86.8201C27.4273 87.0591 27.4444 87.2955 27.368 87.4516C27.3023 87.6228 27.1835 87.7683 27.0293 87.8666C26.8206 87.9979 26.5898 88.0896 26.3482 88.1372C26.094 88.1921 25.8346 88.2194 25.5746 88.2184C24.8703 88.0053 24.1487 87.8544 23.4182 87.7673C23.0074 87.7232 22.5931 87.7213 22.1819 87.7619C21.7803 87.8143 21.3499 87.9081 21.0543 88.1833C21.4137 88.0173 21.8073 88.0624 22.1711 88.1273C22.5379 88.2068 22.8956 88.3238 23.2385 88.4765C23.7907 88.729 24.3211 89.0268 24.8244 89.3669L25.5665 95.3862L25.589 95.5667L25.7031 95.7318C25.9996 96.1545 26.2412 96.6135 26.4219 97.0977C26.5962 97.5686 26.6591 98.044 26.5665 98.3715C26.5378 98.3806 26.5072 98.3905 26.4767 98.3977C26.2312 98.4522 25.9819 98.4874 25.7309 98.5033C25.1762 98.5411 24.6197 98.5468 24.0643 98.5204C23.5018 98.4969 22.9367 98.4491 22.3913 98.3715C21.872 98.3003 21.208 98.1442 21.3203 98.0612C21.1729 97.8519 21.1406 97.3719 21.2304 96.8829C21.3286 96.3727 21.4885 95.8764 21.7066 95.4052L21.7812 95.2446V89.4815L21.376 89.2704C20.3355 88.7291 19.4479 87.7484 18.721 86.6694C18.353 86.1216 18.019 85.5516 17.721 84.9625C17.4184 84.3765 17.1484 83.7741 16.9123 83.1581L16.862 83.0255L16.7416 82.8893C16.5314 82.6502 16.3059 82.422 16.1046 82.1766C15.9249 81.9185 15.7048 81.6831 15.5529 81.407C15.2114 80.8827 14.9396 80.3158 14.7443 79.7208C14.4576 78.8346 14.3591 77.8979 14.455 76.971C14.4873 76.684 14.5429 76.4 14.6212 76.1221L14.765 75.6619L14.3858 75.3011C14.2555 75.1793 14.1162 75.0665 13.9905 74.9402C13.8826 74.8058 13.7452 74.6876 13.6616 74.5423C13.2671 74.0019 13.0911 73.3313 13.1692 72.6658C13.1893 72.4969 13.2223 72.3298 13.2681 72.166C13.3091 72.0155 13.3629 71.8688 13.4289 71.7276L13.6275 71.3171L13.3579 70.9255C13.2618 70.8353 13.1531 70.7451 13.0569 70.6476C12.9642 70.5497 12.8783 70.4454 12.8 70.3355C12.6379 70.114 12.5223 69.8617 12.4603 69.5939C12.3238 69.0463 12.446 68.3868 12.7865 67.8247C12.2191 68.257 11.8409 68.8935 11.7317 69.6002C11.6747 69.9839 11.6939 70.3752 11.7883 70.7514C11.8345 70.9414 11.8946 71.1278 11.968 71.3089C11.977 71.3306 11.9886 71.3513 11.9985 71.3721C11.9473 71.5047 11.9087 71.631 11.8664 71.77C11.7996 72.0109 11.7515 72.2568 11.7227 72.5052C11.6053 73.5282 11.8739 74.5583 12.4756 75.3922C12.6186 75.5939 12.7766 75.7845 12.9482 75.9624C13.0039 76.0192 13.0623 76.0706 13.1198 76.1239C13.0713 76.353 13.039 76.5749 13.0084 76.8041C12.8896 77.9375 13.0093 79.0834 13.3597 80.1674C13.5927 80.8816 13.9171 81.5625 14.3247 82.1928C14.5044 82.5194 14.7578 82.7955 14.9743 83.095C15.1738 83.3395 15.3903 83.5677 15.6032 83.8005C15.845 84.4212 16.1182 85.0292 16.4217 85.622C16.6401 86.0451 16.8773 86.4592 17.1262 86.8679C15.7245 87.3235 13.5502 87.7899 12.4163 87.0682C11.3113 86.3569 10.4497 85.323 9.94728 84.1054L9.8799 83.9051L9.71636 83.7725C6.60941 81.2464 7.39918 78.9098 7.43153 78.8196L7.58516 78.4163L7.30933 78.0861C4.41262 74.6199 5.24282 72.3013 5.27337 72.2129L5.42162 71.8521L5.20149 71.5264C3.10981 68.4373 3.62466 66.5256 3.62735 66.5175L3.72438 66.2161L3.57165 65.9392C1.57611 62.3151 3.03255 58.849 3.04512 58.8165L3.14665 58.5846L3.08376 58.3383C2.49076 56.0297 3.92744 54.6169 3.98225 54.5618L4.3623 54.2073L4.15296 53.7309C3.63813 52.5581 4.53931 51.7515 4.63904 51.6676L4.90859 51.452L4.91397 51.1101C4.97597 47.0972 9.39292 44.6144 11.2636 44.4394C11.6653 44.3933 12.0606 44.3026 12.4424 44.1688C12.2674 44.9085 12.1473 45.6603 12.083 46.4179C12.003 47.33 12.045 48.2488 12.2079 49.1497C12.3876 50.0582 12.7272 51.0181 13.4657 51.7759C13.8388 52.1529 14.2936 52.4382 14.7946 52.6095C15.1108 52.719 15.4509 52.7387 15.7775 52.6664C16.0815 52.5932 16.3646 52.4509 16.605 52.2505C17.0426 51.8896 17.3104 51.4728 17.5449 51.0659C17.765 50.6663 17.9566 50.2514 18.1181 49.8245C18.4572 48.9094 18.7363 47.9731 18.9537 47.0214C19.9053 48.6072 20.9873 50.1103 22.1882 51.5152V56.6576C21.607 56.7783 21.0911 57.1112 20.7403 57.5919C20.3895 58.0726 20.2287 58.6669 20.2892 59.2598C20.3496 59.8526 20.6269 60.4019 21.0674 60.8012C21.5079 61.2006 22.0803 61.4217 22.6739 61.4217C23.2674 61.4217 23.8398 61.2006 24.2803 60.8012C24.7208 60.4019 24.9981 59.8526 25.0585 59.2598C25.119 58.6669 24.9582 58.0726 24.6074 57.5919C24.2566 57.1112 23.7407 56.7783 23.1595 56.6576V52.5978C25.1532 54.6908 27.6393 56.6377 30.6349 57.8007C30.8277 57.8748 31.0272 57.9301 31.2306 57.9657V60.3114C30.2182 60.4357 29.2912 60.9432 28.6387 61.7304C27.9863 62.5175 27.6575 63.5249 27.7195 64.5472C27.7815 65.5694 28.2296 66.5293 28.9724 67.2311C29.7152 67.9329 30.6967 68.3237 31.7166 68.3237C32.7366 68.3237 33.718 67.9329 34.4608 67.2311C35.2036 66.5293 35.6518 65.5694 35.7138 64.5472C35.7758 63.5249 35.447 62.5175 34.7946 61.7304C34.1421 60.9432 33.2151 60.4357 32.2027 60.3114V57.982C32.4586 57.9469 32.7091 57.88 32.9485 57.7826C33.9521 57.3676 36.1309 55.8826 37.9054 53.5622V56.2868C37.3243 56.4076 36.8084 56.7406 36.4577 57.2213C36.107 57.7021 35.9463 58.2963 36.0068 58.8891C36.0673 59.4819 36.3446 60.0311 36.7851 60.4304C37.2256 60.8298 37.798 61.0508 38.3915 61.0508C38.9849 61.0508 39.5573 60.8298 39.9978 60.4304C40.4383 60.0311 40.7157 59.4819 40.7762 58.8891C40.8366 58.2963 40.676 57.7021 40.3253 57.2213C39.9745 56.7406 39.4587 56.4076 38.8776 56.2868V52.1187C39.3058 51.3964 39.6618 50.6334 39.9405 49.8407L39.9369 49.8398ZM22.6689 57.5814C22.951 57.5812 23.2268 57.6651 23.4614 57.8223C23.6961 57.9796 23.879 58.2032 23.987 58.4648C24.095 58.7265 24.1233 59.0145 24.0683 59.2923C24.0134 59.5701 23.8775 59.8253 23.6781 60.0256C23.4786 60.2259 23.2244 60.3622 22.9478 60.4175C22.6711 60.4727 22.3843 60.4442 22.1237 60.3358C21.8631 60.2273 21.6405 60.0436 21.4838 59.808C21.3272 59.5725 21.2437 59.2955 21.2439 59.0123C21.2446 58.6325 21.3955 58.2685 21.6634 58.0003C21.9313 57.7322 22.2943 57.5818 22.6725 57.5823L22.6689 57.5814ZM31.7122 61.2515C32.3123 61.2513 32.8991 61.4298 33.3982 61.7645C33.8973 62.0992 34.2863 62.5751 34.5161 63.1318C34.7459 63.6885 34.806 64.3012 34.689 64.8923C34.5719 65.4834 34.2829 66.0263 33.8585 66.4524C33.4342 66.8786 32.8934 67.1688 32.3048 67.2863C31.7161 67.4038 31.106 67.3434 30.5515 67.1127C29.997 66.882 29.5232 66.4913 29.1898 65.9902C28.8565 65.489 28.6787 64.8999 28.6789 64.2972C28.6803 63.4893 29.0009 62.715 29.5702 62.1442C30.1395 61.5733 30.9112 61.2526 31.7157 61.2524L31.7122 61.2515ZM38.387 57.2097C38.669 57.2095 38.9448 57.2934 39.1794 57.4506C39.414 57.6078 39.5969 57.8313 39.705 58.0929C39.813 58.3545 39.8414 58.6425 39.7865 58.9202C39.7316 59.198 39.5958 59.4532 39.3965 59.6536C39.1971 59.8539 38.943 59.9903 38.6664 60.0457C38.3898 60.101 38.103 60.0727 37.8424 59.9643C37.5818 59.856 37.3591 59.6725 37.2024 59.437C37.0456 59.2015 36.962 58.9247 36.962 58.6415C36.9621 58.4532 36.9992 58.2668 37.071 58.0929C37.1429 57.9191 37.2481 57.7611 37.3808 57.6281C37.5134 57.495 37.6709 57.3895 37.8442 57.3176C38.0174 57.2457 38.2031 57.2087 38.3906 57.2088L38.387 57.2097ZM39.3322 48.4261C38.2342 53.1274 33.9826 56.2958 32.5747 56.8777C32.0642 57.0862 31.4932 57.0888 30.9808 56.8849C25.084 54.597 21.155 48.9349 19.2619 45.5879C19.3113 45.3362 19.3616 45.0845 19.4074 44.8318C21.4101 47.8812 25.0571 52.199 30.6304 54.3624C30.9953 54.5049 31.3834 54.5783 31.775 54.579C32.1757 54.579 32.5725 54.5002 32.9431 54.3471C34.625 53.6524 37.5164 51.9239 39.0689 47.9795C39.1615 48.1194 39.2486 48.2664 39.3358 48.427L39.3322 48.4261ZM39.6916 25.3656C39.627 25.6107 39.5193 25.8423 39.3735 26.0494C39.3278 26.1146 39.2757 26.1751 39.2181 26.2299C38.5676 26.5303 37.7365 26.671 37.1408 26.7243C37.1531 26.2611 37.1173 25.7979 37.0339 25.3421C37.7194 25.3187 38.8308 25.1906 39.7904 24.6637C39.7852 24.9007 39.7539 25.1364 39.697 25.3665L39.6916 25.3656ZM37.8326 11.9412C37.9757 12.1016 38.1069 12.2723 38.2253 12.4518C38.3522 12.6461 38.4677 12.8476 38.5712 13.0554C38.9846 13.8925 39.1755 14.8226 39.1255 15.7556C39.0998 16.2257 39.023 16.6916 38.8964 17.1449L38.8066 17.5058L39.024 17.799C39.3136 18.1987 39.5617 18.627 39.7644 19.0774C39.9695 19.5268 40.1224 19.9984 40.2199 20.483C40.3073 20.9462 40.3197 21.4205 40.2567 21.8877C40.201 22.3469 40.0141 22.7673 39.8075 23.1742L39.6637 23.4512L39.6916 23.572C38.7625 24.2766 37.396 24.3687 36.7859 24.3696C35.139 19.1487 29.9574 17.5031 28.2 17.5031C26.4425 17.5031 21.3005 19.1369 19.6311 24.3055C18.4818 24.0914 17.3967 23.6151 16.4595 22.9135C16.2975 22.5918 16.1883 22.2461 16.136 21.8895C16.0726 21.4223 16.085 20.948 16.1729 20.4848C16.2704 20.0002 16.4232 19.5286 16.6284 19.0792C16.8311 18.629 17.0789 18.2007 17.3679 17.8008L17.5862 17.5076L17.4963 17.1467C17.3705 16.6933 17.294 16.2274 17.2681 15.7574C17.2181 14.8244 17.4091 13.8943 17.8225 13.0572C17.9253 12.8492 18.0405 12.6477 18.1675 12.4536C18.2865 12.2743 18.418 12.1036 18.561 11.943L19.0561 11.4107L18.561 10.9082C17.2726 9.59823 16.0776 8.15656 15.3903 6.5579C15.0507 5.76218 14.8755 4.92767 14.9581 4.14007C14.9581 3.93888 15.03 3.75303 15.0615 3.55906C15.1181 3.37031 15.1887 3.18605 15.2726 3.00783C15.4435 2.64216 15.6706 2.30575 15.9456 2.01093C16.0543 1.87616 16.1827 1.75875 16.3265 1.66269C16.4521 1.58073 16.592 1.52348 16.7389 1.49398C16.779 1.48659 16.8195 1.48147 16.8602 1.47864C16.9292 1.5546 16.9895 1.63813 17.0399 1.72764C17.1621 1.96954 17.2325 2.23445 17.2466 2.50532C17.257 2.66122 17.257 2.81765 17.2466 2.97355C17.2367 3.16211 17.2358 3.35066 17.2376 3.54012C17.2465 3.91754 17.2825 4.29382 17.3454 4.66603C17.4732 5.40436 17.7335 6.11325 18.1136 6.75818C18.4866 7.38206 18.9558 7.94265 19.5036 8.41909C19.0925 7.84754 18.7539 7.22689 18.4955 6.57143C18.2596 5.93252 18.1233 5.26094 18.0911 4.58033C18.0799 4.24485 18.0925 3.90898 18.1289 3.5753C18.1486 3.4084 18.1711 3.2424 18.2026 3.0773C18.2369 2.88029 18.2561 2.68093 18.2601 2.48096C18.2601 2.4539 18.2601 2.42593 18.2601 2.39976C18.4398 2.81296 18.6275 3.22435 18.8234 3.63394C19.2377 4.51773 19.6959 5.3801 20.1963 6.21778C20.4573 6.64807 20.7407 7.06425 21.0454 7.46458C21.1145 7.5548 21.1855 7.6369 21.2574 7.72261C21.1924 7.91679 21.1517 8.11831 21.1361 8.32256C21.112 8.75628 21.1699 9.19066 21.3068 9.60275C21.4329 10.0245 21.6425 10.4164 21.9232 10.7548C22.2213 11.0927 22.5892 11.3612 23.0014 11.5415C23.3882 11.7039 23.7994 11.7999 24.2179 11.8257C24.4438 11.8406 24.6704 11.8406 24.8963 11.8257C25.0775 12.1227 25.304 12.3894 25.5674 12.616C25.8106 12.814 26.0984 12.9491 26.4057 13.0094C26.6969 13.0599 26.9961 13.0369 27.2763 12.9426C27.7975 12.7622 28.1829 12.4527 28.5243 12.1243C28.8553 11.7959 29.1505 11.433 29.4048 11.0417C29.0683 11.3426 28.7009 11.6066 28.3087 11.8293C27.925 12.044 27.5081 12.2082 27.1353 12.2227C26.9783 12.2375 26.8203 12.2087 26.6786 12.1393C26.5369 12.0699 26.417 11.9626 26.332 11.8293C26.1461 11.5152 26.0239 11.1672 25.9726 10.8053L25.7929 10.2054L25.1317 10.3245C24.869 10.3658 24.6023 10.3748 24.3374 10.3516C24.0823 10.3333 23.8321 10.2723 23.597 10.1711C23.3929 10.0768 23.2096 9.94248 23.058 9.77596C22.9096 9.58927 22.8002 9.37449 22.7363 9.14444C22.6585 8.91404 22.6238 8.67118 22.6339 8.42811C22.6429 8.24203 22.7092 8.06334 22.8234 7.91658C23.022 7.65946 23.474 7.5124 23.9403 7.61345C24.178 7.65599 24.4047 7.7462 24.6069 7.87869L24.7246 7.94996C24.8835 8.04778 25.0637 8.10531 25.2497 8.11757C25.4356 8.12983 25.6218 8.09646 25.792 8.02033C26.04 7.9105 26.2392 7.71305 26.3518 7.46549C26.4041 7.349 26.4369 7.22463 26.4488 7.0974L26.4614 7.00086C26.4796 6.79748 26.552 6.60275 26.6708 6.437C26.7606 6.34679 26.8037 6.33055 26.9735 6.29988C27.3509 6.2665 27.7966 6.36122 28.2566 6.69322C28.7256 7.01079 29.1928 7.47451 29.7112 8.00228C29.7361 7.74395 29.7277 7.48347 29.6861 7.22731L29.7454 7.26972C29.802 7.23724 29.9331 7.12627 30.0338 7.06492C30.1381 6.99704 30.2489 6.93962 30.3644 6.89351C30.5778 6.80341 30.8092 6.76478 31.0401 6.78073C31.5109 6.79156 32.0787 7.06853 32.6178 7.44113C33.1621 7.83348 33.6302 8.32273 33.9988 8.88461C34.3923 9.4985 34.6848 10.172 34.8649 10.8793C35.0446 10.1269 34.9907 9.31585 34.7751 8.53366C34.7436 8.42901 34.7005 8.32617 34.6619 8.22242C34.9134 7.98597 35.1465 7.73051 35.3591 7.45827C35.6634 7.05793 35.9466 6.64174 36.2073 6.21146C36.708 5.37398 37.1662 4.5116 37.5801 3.62763C37.6242 3.53741 37.6637 3.44719 37.7068 3.35156C37.7167 3.42464 37.7302 3.49591 37.7383 3.56899C37.7747 3.90266 37.7873 4.23853 37.776 4.57401C37.7439 5.25463 37.6075 5.9262 37.3717 6.56512C37.1132 7.22058 36.7746 7.84123 36.3636 8.41277C36.9072 7.93687 37.3726 7.37787 37.7428 6.75638C38.1229 6.11145 38.3832 5.40256 38.511 4.66423C38.5738 4.29202 38.6099 3.91573 38.6188 3.53831C38.6188 3.34885 38.6188 3.1603 38.6098 2.97175C38.5994 2.81584 38.5994 2.65942 38.6098 2.50352C38.6251 2.23201 38.6971 1.96676 38.821 1.72494C38.856 1.66111 38.8969 1.6007 38.9431 1.5445C39.171 1.45886 39.4184 1.44008 39.6565 1.49037C39.8034 1.52004 39.9433 1.57728 40.0689 1.65908C40.2127 1.75514 40.3412 1.87256 40.4499 2.00732C40.7245 2.30242 40.9516 2.63877 41.1229 3.00422C41.2217 3.17834 41.2621 3.37231 41.334 3.55545C41.3655 3.74942 41.4355 3.93527 41.4373 4.13645C41.5191 4.92405 41.3475 5.76038 41.0043 6.55429C40.3169 8.15295 39.1228 9.59463 37.8344 10.9046L37.3385 11.4071L37.8326 11.9412Z" fill="#3A2033"/>
<path d="M28.1963 19.2398C27.3158 19.2398 22.5637 20.2512 21.2385 25.0598C20.8674 26.4049 21.0309 27.7447 21.6976 28.8318C22.6994 30.4647 24.6401 32.4098 28.1963 32.4098C31.7525 32.4098 33.6923 30.4647 34.695 28.8318C35.3617 27.7492 35.5243 26.4058 35.1542 25.0598C33.8289 20.2512 29.0768 19.2398 28.1963 19.2398ZM33.8675 28.3202C32.9951 29.7403 31.3033 31.4346 28.1963 31.4346C25.0894 31.4346 23.3975 29.7403 22.5251 28.3202C22.0013 27.4659 21.8764 26.4004 22.1747 25.3196C23.322 21.157 27.4757 20.2151 28.1945 20.2151C28.9133 20.2151 33.0688 21.157 34.2143 25.3196C34.5153 26.4013 34.3914 27.4668 33.8675 28.3202Z" fill="#3A2033"/>
</g>
<defs>
<clipPath id="clip0_3441_13564">
<rect width="42.9134" height="100" fill="white"/>
</clipPath>
</defs>
</svg>
