<svg width="79" height="100" viewBox="0 0 79 100" fill="none" xmlns="http://www.w3.org/2000/svg">
<path d="M19.3194 7.14343H19.3267C19.3104 7.15067 19.3023 7.15791 19.3194 7.14343Z" fill="white"/>
<path d="M13.9809 52.2643C14.9479 53.1087 16.5469 55.0083 15.8263 57.952C15.2016 57.9226 14.1184 57.7587 13.2492 57.0312C12.5222 56.4244 12.0627 55.5211 11.8781 54.3425C12.1462 54.1926 12.3878 53.9998 12.5932 53.7716C13.109 53.1989 13.5159 52.7588 13.8351 52.4337C13.8868 52.3803 13.9329 52.3223 13.9809 52.2643Z" fill="#EF5685"/>
<path d="M21.6945 96.8676C21.6945 96.6043 21.7065 96.3492 21.7314 96.1043C21.7886 95.6218 21.8772 95.1596 22.1236 94.8815C22.3385 94.5794 22.7934 94.4579 23.3111 94.4671C23.8554 94.5046 24.3942 94.5996 24.9184 94.7507C24.4699 94.3836 23.9602 94.0981 23.4126 93.9073C23.36 93.8898 23.3046 93.876 23.2502 93.8612C23.2243 92.7296 23.0601 90.2839 22.1688 88.6689C22.3321 88.5768 22.4972 88.4967 22.6606 88.4073C22.8608 88.3153 23.0629 88.2352 23.2631 88.155C23.4604 88.0864 23.662 88.0304 23.8665 87.9875C24.2407 87.896 24.6301 87.8851 25.0088 87.9552C25.1769 87.991 25.3395 88.0489 25.4923 88.1274C25.5642 88.1634 25.6327 88.2056 25.6971 88.2536C25.7248 88.2775 25.7599 88.2996 25.7811 88.3226C25.8023 88.3457 25.842 88.3843 25.8198 88.3567L26.0653 88.4414C26.7748 90.2029 27.3056 92.0309 27.6495 93.8981C27.8334 94.9268 27.9242 95.97 27.9208 97.0149V97.3041V97.3529C27.9144 97.4154 27.9017 97.4771 27.883 97.537C27.8424 97.6642 27.7733 97.7804 27.6809 97.8768C27.5841 97.9823 27.4636 98.0633 27.3294 98.1135C27.2642 98.1395 27.196 98.1575 27.1264 98.1669C27.0913 98.1742 27.0553 98.1669 27.0203 98.177H26.8182C25.711 98.1862 24.6037 98.2184 23.4965 98.2461L22.6661 98.2663C22.607 98.2663 22.5055 98.2718 22.4816 98.2663C22.4487 98.2691 22.4157 98.2691 22.3828 98.2663C22.3174 98.2597 22.2531 98.2442 22.1918 98.2203C22.0638 98.1663 21.9517 98.0808 21.8658 97.9718C21.78 97.8627 21.7233 97.7338 21.701 97.5969C21.6908 97.561 21.6954 97.5232 21.688 97.4864L21.6927 97.2755L21.6945 96.8676Z" fill="#EFD9AB"/>
<path d="M11.6882 94.7508C11.3043 94.4215 10.8472 94.1886 10.3549 94.0712C10.4011 93.1375 10.5044 90.7103 10.4472 88.7158L10.724 88.5648C10.7932 88.5289 12.4633 87.6947 14.3612 88.8834C14.5802 90.7958 14.5713 92.7273 14.3345 94.6375L14.2173 95.3824L14.0651 96.1191L13.8805 96.841C13.8059 97.1051 13.6762 97.3505 13.5001 97.5612C13.3239 97.7719 13.1052 97.9432 12.8582 98.0638C12.694 98.1422 12.5194 98.1965 12.3396 98.2249C12.2479 98.2383 12.1555 98.2463 12.0628 98.2489H11.6661L8.49108 98.2811H8.09433C8.01129 98.2811 8.00206 98.2811 7.96977 98.2811C7.94088 98.2795 7.91217 98.2755 7.88396 98.2691C7.77019 98.2497 7.66534 98.1953 7.58408 98.1135C7.49411 98.0301 7.42984 97.9228 7.39879 97.8043C7.36774 97.6857 7.3712 97.5608 7.40877 97.4441C7.42173 97.3964 7.43776 97.3497 7.45675 97.3041L7.52133 97.1365L7.66343 96.8097C7.76493 96.5969 7.88119 96.3935 7.99837 96.1964C8.22604 95.8103 8.52765 95.4727 8.88599 95.2029C9.60016 94.6605 10.581 94.6743 11.6882 94.7508Z" fill="#EFD9AB"/>
<path d="M3.26936 56.3093L3.16879 57.0404L3.89402 57.185C4.41661 57.278 4.94653 57.3239 5.47736 57.3222C6.50247 57.3222 7.83021 57.1482 8.85163 56.4125C9.45589 55.9794 9.90791 55.3672 10.1434 54.6629C10.1665 54.6629 10.1886 54.6722 10.2117 54.6749C10.2541 54.6749 10.2947 54.6749 10.3362 54.6823C10.5918 56.2099 11.2322 57.4097 12.2517 58.2522C13.6118 59.3765 15.2597 59.5275 16.0458 59.5275C16.3107 59.5275 16.4767 59.51 16.5017 59.5082L17.0045 59.452L17.1623 58.9723C17.8765 56.801 17.5738 54.9594 16.8855 53.5202C24.3445 53.0976 28.7338 50.1013 32.9864 47.1962C33.7246 46.6916 34.483 46.1833 35.247 45.687C35.6919 45.66 36.1382 45.6664 36.5822 45.7064C37.0835 45.7499 37.5796 45.8403 38.064 45.9762C38.5217 46.1137 38.9597 46.3099 39.3668 46.5599C39.7432 46.8064 40.0756 47.1139 40.3504 47.4697L40.6697 47.8712L41.179 47.8085C41.4854 47.7761 41.7937 47.765 42.1017 47.7754C42.4244 47.7862 42.7461 47.817 43.065 47.8675C43.6949 47.9622 44.3089 48.1422 44.89 48.4025C46.0363 48.9176 46.988 49.7844 47.6064 50.8766C48.2523 51.9659 48.6002 53.2615 48.7773 54.5856C48.9322 55.9421 48.9544 57.3104 48.8438 58.6712L48.8161 59.0349L49.0615 59.3572C49.222 59.5695 49.3651 59.7943 49.4897 60.0293C49.6241 60.2775 49.7419 60.5344 49.8421 60.7982C50.037 61.3125 50.1452 61.8554 50.1623 62.405C50.1855 62.9412 50.0995 63.4766 49.9095 63.9786C49.7471 64.4924 49.4352 64.9602 49.1123 65.4197L48.758 65.9224L49.0348 66.4869C49.068 66.5578 49.1436 66.7162 49.1898 66.8497C49.2359 66.9832 49.2876 67.1351 49.3356 67.2788C49.4171 67.5761 49.4788 67.8785 49.5201 68.1839C49.6064 68.7997 49.6064 69.4245 49.5201 70.0402C49.4322 70.6618 49.2642 71.2693 49.02 71.8478C48.9185 72.147 48.7432 72.4205 48.6085 72.7087C48.4526 72.9849 48.268 73.2547 48.101 73.5301L47.8463 73.9499L47.9774 74.3965C48.027 74.5836 48.0643 74.7737 48.089 74.9656C48.1143 75.1795 48.1275 75.3947 48.1287 75.6101C48.131 76.0415 48.0761 76.4712 47.9654 76.8882C47.8599 77.3053 47.6982 77.7061 47.4847 78.0797C47.2694 78.4599 47.0145 78.8164 46.7244 79.1432L46.6413 80.3605C46.6072 80.3108 46.6302 80.3421 46.6293 80.3449C46.636 80.3569 46.6416 80.3695 46.6459 80.3826C46.6595 80.4123 46.6706 80.4431 46.6791 80.4747C46.6989 80.548 46.7092 80.6235 46.7096 80.6994C46.7088 80.8773 46.6701 81.0531 46.5961 81.215C46.505 81.4167 46.3878 81.6056 46.2473 81.7767L45.9945 82.0529L45.7066 82.3191L45.3099 82.6874L45.3754 83.1874C45.4215 83.5906 45.4299 83.9972 45.4003 84.4019C45.3781 84.7988 45.305 85.1912 45.1825 85.5695C45.0752 85.9011 44.9065 86.2097 44.6852 86.4792C44.5212 86.6484 44.3277 86.7864 44.1141 86.8862C43.6527 86.7585 43.1828 86.664 42.7079 86.6035C42.1108 86.5272 41.5081 86.5029 40.9068 86.5308C40.6051 86.5446 40.3043 86.575 40.0035 86.6146L39.5541 86.6892C39.4702 86.706 39.385 86.7156 39.2995 86.7177C38.9701 86.7271 38.6496 86.6105 38.4035 86.3917C38.3357 86.3326 38.2738 86.2669 38.219 86.1956C38.1397 86.0971 38.0621 85.9986 37.9883 85.8973C37.837 85.6975 37.6986 85.4894 37.5657 85.2803C37.3044 84.8687 37.0879 84.4304 36.9199 83.9728C36.5941 83.076 36.5286 82.1469 36.7907 81.2868L36.894 80.9462L36.7187 80.6174C36.3371 79.879 36.0328 79.1033 35.8108 78.3025C35.5828 77.4908 35.4396 76.6576 35.3836 75.8164C35.3198 74.9826 35.3629 74.144 35.5118 73.321C35.6309 72.4923 35.927 71.7124 36.2426 70.9436L36.3349 70.7152L36.3081 70.5052C36.2505 69.988 36.2299 69.4674 36.2463 68.9473C36.262 68.4155 36.3119 67.8852 36.3958 67.3598C36.4899 66.8316 36.6373 66.3142 36.8359 65.8156C37.0278 65.2981 37.3305 64.8359 37.6663 64.3331C37.1111 64.5893 36.6176 64.9618 36.2195 65.4252C35.8156 65.904 35.4925 66.4451 35.2627 67.0274C35.0321 67.6062 34.8752 68.2116 34.7958 68.8294C34.7238 69.377 34.7065 69.9303 34.7442 70.4813C34.3963 71.3054 34.0844 72.1526 33.9423 73.0384C33.9063 73.229 33.8787 73.4196 33.8501 73.6111C33.6775 73.8735 33.1645 74.519 32.1145 74.868C32.1791 74.693 32.2363 74.5144 32.2833 74.3339C32.3807 73.9484 32.4276 73.5519 32.4227 73.1544C32.4202 72.9551 32.4057 72.7562 32.3793 72.5586C32.3562 72.4159 32.3359 72.2916 32.299 72.1461C32.4098 71.69 32.4579 71.221 32.442 70.752C32.4255 70.193 32.3302 69.639 32.1588 69.1066C31.8314 68.099 31.2993 67.1696 30.5957 66.3764C31.0541 67.2706 31.323 68.2495 31.3856 69.252C31.4131 69.7215 31.3733 70.1925 31.2675 70.6507C31.1752 71.0982 30.975 71.5015 30.7701 71.8772L30.6483 72.1093L30.7526 72.4444C30.7827 72.5534 30.8058 72.6641 30.8218 72.7759C30.8394 72.9066 30.8486 73.0382 30.8495 73.17C30.8555 73.7029 30.724 74.2284 30.4675 74.6958C30.3377 74.9345 30.183 75.1588 30.0061 75.3652L29.6371 75.8201L29.9489 76.3238C30.0464 76.4837 30.13 76.6515 30.199 76.8256C30.2745 77.0117 30.3362 77.2032 30.3835 77.3983C30.474 77.7774 30.4915 78.1702 30.4352 78.5558C30.3828 78.9372 30.2518 79.3037 30.0504 79.6322C29.9683 79.809 29.8234 79.9581 29.71 80.122C29.5799 80.2786 29.423 80.4204 29.2837 80.5723L28.9414 80.9462L29.0632 81.3808C29.2236 81.9901 29.3005 82.6182 29.292 83.2481C29.2914 83.8585 29.1746 84.4631 28.9478 85.0299C28.7308 85.5653 28.3665 86.0285 27.8969 86.366C27.5444 86.6569 27.0987 86.8402 26.6346 86.9949C26.507 86.8987 26.3711 86.814 26.2286 86.7416C25.9454 86.5945 25.6434 86.4866 25.3309 86.4212C24.7422 86.307 24.136 86.3179 23.5519 86.4534C23.2764 86.511 23.0048 86.5864 22.739 86.679C22.4844 86.7785 22.2306 86.8816 21.9861 86.9949C21.7416 87.1081 21.5072 87.237 21.2793 87.3705L20.8623 87.6321C20.8035 87.6233 20.7452 87.611 20.6879 87.5952C20.5624 87.5635 20.4405 87.5187 20.3244 87.4617C20.1241 87.3627 19.9578 87.2066 19.8464 87.0133C19.7405 86.7861 19.6842 86.5391 19.6812 86.2886C19.6812 86.145 19.6978 85.993 19.7062 85.8429L19.7984 85.3715L19.8852 84.9111L19.5456 84.5944C19.429 84.4802 19.3216 84.3571 19.2245 84.226C19.1179 84.0838 19.022 83.934 18.9376 83.7776C18.7708 83.4706 18.6605 83.1363 18.6118 82.7905C18.5599 82.446 18.5718 82.0949 18.6469 81.7546C18.7249 81.3973 18.8489 81.0516 19.016 80.7261L19.3168 80.0815L18.717 79.6911C18.5983 79.6112 18.486 79.5223 18.3812 79.425C18.265 79.3179 18.1564 79.2029 18.0564 79.0806C17.8595 78.8413 17.7053 78.57 17.6006 78.2786C17.4927 77.9916 17.438 77.6874 17.4391 77.3808C17.4377 77.0597 17.4793 76.7398 17.5627 76.4296L17.6449 75.9444L17.3921 75.6995C17.1428 75.4528 16.9173 75.1833 16.7185 74.8947C16.5057 74.5941 16.3149 74.2787 16.1473 73.9509C15.8099 73.2892 15.5969 72.5714 15.519 71.833C15.4327 71.0751 15.5111 70.3076 15.7487 69.5826C15.841 69.2014 16.0255 68.8589 16.1879 68.497C16.3633 68.1434 16.5985 67.822 16.8052 67.4777C16.5487 67.7797 16.2581 68.0661 16.0209 68.3929C15.8004 68.7309 15.5439 69.0559 15.3834 69.4371C14.9975 70.1848 14.7757 71.006 14.7329 71.8459C14.7054 72.2972 14.7236 72.7501 14.7873 73.1977C14.5218 73.0671 14.2846 72.886 14.0888 72.6645C13.8842 72.4331 13.7274 72.1637 13.6275 71.8717C13.5574 71.7308 13.5417 71.5577 13.4928 71.4021C13.4623 71.2382 13.4485 71.0651 13.4226 70.8966L13.2455 70.3128L12.9548 70.2345C12.544 70.1095 12.1503 69.9338 11.783 69.7115C11.3958 69.4817 11.0398 69.2032 10.7238 68.8828C10.3995 68.556 10.1345 68.1756 9.94041 67.7585C9.72358 67.3377 9.63684 66.8635 9.57133 66.3773C9.50859 66.858 9.46246 67.3709 9.57133 67.8745C9.65862 68.3921 9.83532 68.8906 10.0936 69.3478C10.3544 69.8131 10.6741 70.243 11.0449 70.6268C11.3114 70.9032 11.5999 71.1575 11.9076 71.3874C11.9214 71.4969 11.9362 71.6056 11.9574 71.7143C12.0229 71.9491 12.0552 72.1866 12.1576 72.4168C12.3277 72.8939 12.5883 73.3338 12.9253 73.7124C13.2631 74.0931 13.6729 74.4036 14.1313 74.6258C14.3546 74.7353 14.5867 74.8258 14.8251 74.8965C14.9767 74.9413 15.1307 74.9772 15.2865 75.0043C15.3649 75.2022 15.4498 75.3974 15.5448 75.589C15.6742 75.8603 15.8199 76.1235 15.9813 76.3772C15.9085 76.716 15.8747 77.062 15.8807 77.4085C15.8828 77.892 15.9703 78.3714 16.139 78.8246C16.3031 79.277 16.5423 79.6984 16.8467 80.0714C16.9963 80.255 17.1588 80.4276 17.333 80.588L17.369 80.6193C17.2609 80.8871 17.1787 81.1646 17.1235 81.448C17.013 81.9654 16.9964 82.4984 17.0746 83.0216C17.1165 83.3169 17.1892 83.607 17.2915 83.8872C17.4982 86.365 15.9563 87.2849 15.2486 87.5704C13.2399 86.2923 11.3733 86.6717 10.506 86.9737C8.31463 84.9479 7.53403 79.4232 7.41777 77.3633L7.40486 77.1405L7.27753 76.9563C5.13781 73.9048 5.18948 65.4832 5.1904 65.3985V65.1904L5.0889 65.0062C3.51202 62.1895 3.76577 59.5091 3.76854 59.4815L3.79437 59.2338L3.67073 59.0137C1.82535 55.7605 2.83385 50.931 3.66427 48.1769C4.14506 49.2171 4.76524 50.1872 5.5078 51.0608C4.5519 52.1013 3.61629 53.7421 3.26936 56.3093Z" fill="white"/>
<path d="M31.9879 78.7768C32.0722 78.2001 32.0465 77.6128 31.9123 77.0457C31.8726 76.8845 31.8255 76.7252 31.7739 76.5678C32.4779 76.4509 33.1518 76.1962 33.7567 75.8182C33.7567 75.8505 33.7567 75.8836 33.7567 75.9158C33.8561 77.72 34.3071 79.4874 35.0845 81.1193C34.9817 81.5386 34.9284 81.9684 34.9258 82.4001C34.3722 82.4572 33.6183 82.4112 33.2982 81.8228L33.0315 81.332L32.4779 81.4241C32.4705 81.4241 31.6023 81.5474 30.9093 81.1239C31.0772 80.8946 31.2655 80.6847 31.3974 80.4232C31.7036 79.9198 31.9045 79.3597 31.9879 78.7768Z" fill="white"/>
<path d="M10.3918 53.1151C10.1977 53.0939 10.0116 53.0262 9.84949 52.9176C9.68736 52.8091 9.55399 52.6629 9.4608 52.4917C8.97454 51.6124 8.82507 50.8822 9.04006 50.4365C9.24766 50.0083 9.44788 49.8306 9.56691 49.8085C9.68594 49.7864 9.88247 49.907 9.94798 49.966L10.1178 50.1225L10.3558 50.1713C11.1868 50.3102 12.0286 50.3737 12.8711 50.361C12.9984 50.6207 13.0556 50.9835 12.7059 51.3416C12.37 51.6851 11.9493 52.1381 11.4197 52.7228C11.2932 52.8667 11.1335 52.9776 10.9544 53.046C10.7753 53.1143 10.5822 53.138 10.3918 53.1151Z" fill="#EF5685"/>
<path d="M40.8929 94.3769C40.5454 93.8531 40.0219 93.4703 39.4166 93.2977C39.3779 93.2867 39.3354 93.2839 39.2967 93.2747C39.5892 91.6108 39.4923 89.7038 39.3769 88.505C39.5483 88.5005 39.7192 88.4835 39.8881 88.4543L40.2516 88.3982C40.4952 88.3696 40.7397 88.3475 40.9898 88.3392C41.4854 88.3213 41.9816 88.3472 42.4726 88.4166C42.7789 88.4614 43.0826 88.5229 43.3823 88.6007C43.3122 90.574 43.2347 92.5473 43.1876 94.5215L43.1415 96.1872L43.1184 97.0159C43.1198 97.1146 43.1124 97.2132 43.0963 97.3105C43.084 97.3898 43.0617 97.4671 43.0299 97.5407C42.9697 97.6908 42.8785 97.8266 42.7623 97.9393C42.6461 98.0519 42.5075 98.1389 42.3554 98.1945C42.2799 98.2234 42.2012 98.2432 42.121 98.2534C42.0178 98.2657 41.9139 98.2703 41.8101 98.2673L40.9796 98.2728L37.6395 98.2921H37.5399H37.4854C37.4492 98.291 37.4131 98.287 37.3775 98.2801C37.3073 98.2674 37.2391 98.2458 37.1745 98.2157C37.0434 98.1515 36.9298 98.0568 36.8432 97.9394C36.7604 97.8209 36.7075 97.6841 36.6891 97.5407C36.6801 97.4649 36.6801 97.3882 36.6891 97.3124C36.7076 97.1927 36.726 97.0721 36.75 96.9524C36.9466 96.0003 37.3701 95.0758 38.0316 94.6347C38.7015 94.1541 39.6556 94.375 40.8929 94.3769Z" fill="#EFD9AB"/>
<path d="M4.96157 55.732C5.46259 53.3094 6.56705 52.0645 7.41684 51.4402C7.53264 52.0776 7.75836 52.6901 8.08395 53.2505C8.24364 53.538 8.45291 53.7952 8.70215 54.0101C8.5846 54.4619 8.31319 54.8587 7.93448 55.1326C7.12251 55.7209 5.84274 55.79 4.96157 55.732Z" fill="#EF5685"/>
<path d="M32.0961 45.9043C27.861 48.7974 23.4754 51.7808 15.9038 51.9871C15.5032 51.4983 15.0422 51.062 14.5318 50.6888C14.5264 50.5429 14.5082 50.3978 14.4773 50.2551C19.1111 49.709 23.5917 47.21 26.4456 44.8058C27.3184 44.0692 28.3177 43.1088 28.7523 42.2497H28.9663L28.9765 41.4716C28.9884 40.5616 28.7778 39.6624 28.3629 38.8519C29.9905 35.7783 28.9894 33.0297 28.4192 31.8916C28.5466 31.7269 28.6616 31.553 28.7633 31.3714C28.7763 31.3484 28.7827 31.3235 28.7947 31.3005C31.2315 30.6504 34.2469 28.0492 35.738 26.7619C35.8939 26.6284 36.0591 26.4856 36.1993 26.3705C40.1623 28.1799 45.8876 28.5151 50.0397 28.4838C59.786 28.3991 61.2669 30.4441 64.8313 37.5573C67.544 42.9716 72.6179 45.5544 75.2891 46.5866C73.058 47.5995 68.3551 48.9061 61.7772 46.3398C53.2128 43.001 41.657 39.8547 35.2388 43.827C34.1638 44.4881 33.1129 45.2063 32.0961 45.9043Z" fill="#EF5685"/>
<path d="M2.60114 7.03385C2.23206 6.18119 2.04752 5.28434 2.13425 4.44181C2.13425 4.22635 2.21177 4.02653 2.24591 3.81843C2.32341 3.6223 2.36678 3.4142 2.47381 3.2282C2.65838 2.83617 2.90341 2.47544 3.19996 2.15916C3.31713 2.01457 3.45556 1.88853 3.61056 1.78531C3.74608 1.69631 3.89732 1.63382 4.05622 1.60116C4.31314 1.54759 4.58002 1.56803 4.82574 1.66009C4.87607 1.71967 4.92027 1.78414 4.95769 1.85253C5.08915 2.11188 5.16517 2.39565 5.18098 2.68586C5.19209 2.85295 5.19209 3.02059 5.18098 3.18769C5.1699 3.39026 5.16899 3.59284 5.17175 3.79541C5.18135 4.20037 5.2202 4.60412 5.28801 5.0035C5.42693 5.79506 5.70827 6.555 6.11843 7.24655C6.52019 7.9162 7.02597 8.51792 7.61688 9.02922C7.17386 8.41643 6.80876 7.75113 6.52995 7.04859C6.27536 6.36343 6.12815 5.64319 6.09352 4.91326C6.08117 4.55334 6.09474 4.19299 6.13412 3.83501C6.14335 3.75766 6.15719 3.68031 6.16826 3.60297C6.2144 3.70057 6.26053 3.80002 6.3039 3.89854C6.75325 4.83499 7.23396 5.76224 7.78573 6.6683C8.06714 7.12996 8.37267 7.57654 8.70104 8.00621C8.93057 8.29797 9.18196 8.57193 9.45304 8.82572C9.41244 8.93714 9.36076 9.04671 9.33124 9.15905C9.09503 9.99513 9.03229 10.8662 9.23159 11.6719C9.42397 10.9133 9.73838 10.191 10.1626 9.53289C10.5601 8.931 11.0648 8.40699 11.6518 7.98688C12.234 7.58725 12.8513 7.28983 13.3551 7.27786C13.6039 7.26147 13.8532 7.30309 14.0831 7.39941C14.2082 7.44828 14.3279 7.51 14.4402 7.58357C14.5481 7.64895 14.6912 7.76773 14.7511 7.80272L14.8148 7.75668C14.7711 8.0307 14.7621 8.30913 14.788 8.5854C15.3481 8.01911 15.8519 7.52188 16.3566 7.18118C16.853 6.82576 17.3337 6.72078 17.7406 6.75946C17.9252 6.79353 17.9704 6.80918 18.0673 6.90678C18.1642 7.00439 18.2518 7.23919 18.2933 7.51082L18.3072 7.61487C18.32 7.75147 18.3555 7.88498 18.4124 8.0099C18.5335 8.2754 18.7483 8.48713 19.0158 8.60473C19.1994 8.68646 19.4003 8.72231 19.6009 8.70915C19.8016 8.69599 19.996 8.63423 20.1673 8.52922L20.2946 8.4528C20.5128 8.31104 20.7572 8.2143 21.0134 8.16827C21.5172 8.06054 22.0044 8.21707 22.2185 8.49423C22.343 8.65243 22.4147 8.84568 22.4233 9.04671C22.4341 9.30731 22.3965 9.56766 22.3126 9.81466C22.2433 10.0597 22.1253 10.2883 21.9656 10.4868C21.8019 10.6657 21.604 10.8101 21.3834 10.9113C21.1295 11.019 20.8595 11.084 20.5844 11.1038C20.2985 11.1288 20.0106 11.1189 19.7272 11.0743L19.014 10.9472L18.8165 11.5918C18.7615 11.9797 18.6298 12.3528 18.429 12.6894C18.3373 12.8314 18.2085 12.9458 18.0565 13.0201C17.9044 13.0945 17.7349 13.1259 17.5662 13.1111C17.1649 13.0955 16.7146 12.9196 16.3003 12.6894C15.876 12.4492 15.4785 12.1646 15.1147 11.8404C15.3887 12.2605 15.707 12.65 16.0641 13.0025C16.4332 13.3551 16.8484 13.6912 17.4103 13.88C17.7127 13.9807 18.0354 14.0053 18.3496 13.9518C18.6814 13.8873 18.9922 13.7425 19.2548 13.5301C19.5386 13.2866 19.7827 13.0005 19.9782 12.682C20.2218 12.6977 20.4662 12.6977 20.7099 12.682C21.1614 12.6535 21.605 12.5505 22.0228 12.3772C22.4686 12.1839 22.8666 11.8957 23.1891 11.5329C23.4917 11.1702 23.7177 10.7502 23.8535 10.2981C24.0017 9.85627 24.0643 9.39034 24.038 8.92517C24.0221 8.70561 23.9781 8.48898 23.907 8.28061C23.9854 8.18853 24.062 8.09645 24.1358 8.00437C24.4648 7.57494 24.7706 7.12833 25.052 6.66645C25.5903 5.76848 26.0831 4.84406 26.5283 3.8967C26.7381 3.45779 26.9408 3.01642 27.1364 2.5726C27.1364 2.60114 27.1364 2.63153 27.1364 2.66468C27.1407 2.87929 27.1617 3.09325 27.1991 3.30463C27.2324 3.48142 27.2563 3.65914 27.2785 3.83777C27.3176 4.19578 27.3308 4.55612 27.3182 4.91602C27.2839 5.64591 27.137 6.36615 26.8826 7.05135C26.6035 7.75392 26.2381 8.41921 25.7948 9.03198C26.3857 8.52068 26.8915 7.91896 27.2932 7.24932C27.7038 6.55793 27.9851 5.79793 28.1237 5.00626C28.191 4.60682 28.2299 4.20311 28.2399 3.79817C28.2399 3.5956 28.2399 3.39303 28.2307 3.19045C28.2196 3.02336 28.2196 2.85571 28.2307 2.68862C28.2456 2.39827 28.3217 2.11432 28.454 1.8553C28.5084 1.75911 28.5737 1.66951 28.6487 1.58827C28.6923 1.59116 28.7357 1.59638 28.7788 1.60392C28.9377 1.63658 29.0889 1.69908 29.2244 1.78808C29.3794 1.89129 29.5179 2.01734 29.635 2.16192C29.9316 2.4782 30.1766 2.83893 30.3612 3.23097C30.4673 3.41512 30.5116 3.62506 30.5891 3.82119C30.6223 4.02929 30.698 4.22911 30.7007 4.44457C30.793 5.28894 30.6002 6.18396 30.2339 7.03662C29.4957 8.75114 28.2039 10.2981 26.8125 11.7023L26.2783 12.241L26.8125 12.8118C26.9669 12.9838 27.1088 13.1666 27.237 13.3588C27.3725 13.5663 27.4957 13.7815 27.606 14.0034C28.0514 14.9014 28.2576 15.8987 28.2049 16.8993C28.1768 17.4034 28.0939 17.9029 27.9576 18.3891L27.8598 18.7777L28.0951 19.0917C28.4074 19.5206 28.6749 19.9803 28.8932 20.4637C29.1145 20.9453 29.2795 21.4508 29.385 21.9701C29.4799 22.4668 29.4933 22.9755 29.4247 23.4765C29.3647 23.9691 29.1635 24.4203 28.9356 24.8577L28.7815 25.1542L28.8498 25.4544C28.9102 25.7432 28.9393 26.0377 28.9366 26.3328C28.9352 26.6275 28.8964 26.9208 28.8212 27.2057C28.7517 27.4697 28.6355 27.7192 28.478 27.9424C28.3359 28.1661 28.1218 28.3273 27.9078 28.4948L27.4722 28.8282L27.5774 29.3484C27.5944 29.4461 27.604 29.5449 27.606 29.644C27.6085 29.7598 27.6017 29.8755 27.5857 29.9902C27.5557 30.2162 27.4841 30.4348 27.3744 30.6348C27.2645 30.8377 27.1192 31.0195 26.9454 31.1716C26.7584 31.3376 26.5517 31.4802 26.33 31.5961L25.6287 31.9929L25.9452 32.5068C26.0854 32.7784 26.1849 33.0691 26.2405 33.3695C26.3059 33.6896 26.323 34.0177 26.2912 34.3428C26.2609 34.6809 26.1643 35.0097 26.007 35.3106C25.8575 35.631 25.6149 35.9026 25.351 36.1697C25.706 36.0194 26.033 35.8102 26.318 35.5509C26.6199 35.275 26.8659 34.9436 27.0423 34.5749C27.2043 34.2375 27.3206 33.8802 27.3883 33.5123C27.7574 34.6789 27.964 36.4993 26.783 38.4551L26.5062 38.9155L26.8301 39.3391C26.8485 39.3658 27.3569 40.0702 27.4021 41.2534V41.4679C27.0976 42.8307 18.5997 49.8555 10.8232 48.6603C10.5155 48.4319 10.1525 48.2892 9.77136 48.2468C9.14485 47.885 6.70434 46.3482 6.14795 44.06L6.08245 43.8859C4.69011 41.1862 5.95788 39.4081 6.01325 39.3335L6.31959 38.9063L6.05385 38.4523C5.60163 37.723 5.31361 36.9043 5.20973 36.0529C5.10586 35.2015 5.18861 34.3378 5.45226 33.5215C5.52011 33.885 5.63519 34.2382 5.79457 34.5721C5.97133 34.9409 6.21755 35.2722 6.5198 35.5481C6.80452 35.8073 7.13115 36.0165 7.48586 36.1669C7.22289 35.8999 6.98022 35.6282 6.83075 35.3078C6.67357 35.0068 6.57673 34.6781 6.54564 34.3401C6.51479 34.0149 6.53189 33.687 6.59639 33.3668C6.65277 33.0665 6.75221 32.7759 6.89165 32.504L7.20075 31.9801L6.49951 31.5832C6.27766 31.4675 6.07095 31.3249 5.88407 31.1587C5.71023 31.0066 5.56495 30.8248 5.45502 30.6219C5.34538 30.4219 5.27373 30.2033 5.24372 29.9773C5.22787 29.8626 5.22078 29.7469 5.22251 29.6311C5.22479 29.532 5.23466 29.4332 5.25203 29.3355L5.35721 28.8153L4.92078 28.482C4.70672 28.318 4.49357 28.1569 4.35148 27.9295C4.19397 27.7063 4.07773 27.4568 4.00824 27.1928C3.93305 26.9079 3.8943 26.6146 3.89291 26.3199C3.89037 26.0249 3.91914 25.7305 3.97872 25.4415L4.04792 25.1413L3.89291 24.8448C3.66592 24.4083 3.46478 23.9572 3.4048 23.4636C3.33614 22.9626 3.34955 22.4539 3.44448 21.9572C3.54966 21.4379 3.71437 20.9325 3.93535 20.4508C4.15433 19.9676 4.42206 19.5079 4.7344 19.0788L4.96969 18.7648L4.87188 18.3762C4.73559 17.89 4.65269 17.3905 4.6246 16.8864C4.57062 15.8857 4.77691 14.8881 5.22343 13.9905C5.33338 13.7684 5.45663 13.5532 5.5925 13.3459C5.72068 13.1537 5.86252 12.9709 6.01694 12.799L6.55118 12.2281L6.01694 11.6894C4.63106 10.2953 3.33929 8.74837 2.60114 7.03385ZM22.3725 14.4214C21.817 14.4214 21.274 14.5858 20.8121 14.8938C20.3502 15.2018 19.9903 15.6395 19.7777 16.1517C19.5651 16.6638 19.5095 17.2274 19.6178 17.7711C19.7262 18.3148 19.9937 18.8143 20.3865 19.2063C20.7793 19.5982 21.2798 19.8652 21.8246 19.9733C22.3694 20.0815 22.9342 20.026 23.4474 19.8138C23.9606 19.6017 24.3992 19.2424 24.7079 18.7815C25.0165 18.3206 25.1812 17.7787 25.1812 17.2243C25.1812 16.8561 25.1085 16.4914 24.9672 16.1512C24.826 15.8111 24.6189 15.502 24.3579 15.2417C24.0969 14.9814 23.7871 14.775 23.4461 14.6342C23.1051 14.4935 22.7397 14.4212 22.3707 14.4214H22.3725ZM8.59032 31.2876C9.7972 33.2425 12.1353 35.5721 16.4184 35.5721C20.7016 35.5721 23.0406 33.2425 24.2474 31.2876C25.0474 29.9921 25.243 28.3954 24.8011 26.7914C23.2048 21.0327 17.4823 19.8209 16.4221 19.8209C15.3619 19.8209 9.64034 21.0327 8.04409 26.7914C7.59289 28.3963 7.7885 29.993 8.58848 31.2876H8.59032ZM10.4634 20.03C11.0189 20.03 11.562 19.8656 12.0239 19.5575C12.4858 19.2495 12.8458 18.8117 13.0583 18.2995C13.2709 17.7873 13.3265 17.2236 13.218 16.6799C13.1096 16.1362 12.842 15.6367 12.4491 15.2448C12.0562 14.8528 11.5557 14.586 11.0108 14.4779C10.4659 14.3699 9.90111 14.4255 9.38791 14.6378C8.87471 14.8501 8.43612 15.2095 8.12762 15.6705C7.81911 16.1316 7.65453 16.6736 7.65471 17.228C7.65459 17.5961 7.72716 17.9605 7.86828 18.3006C8.0094 18.6407 8.21629 18.9497 8.47714 19.2099C8.73798 19.4701 9.04766 19.6765 9.38848 19.8172C9.72929 19.9579 10.0945 20.0302 10.4634 20.03Z" fill="white"/>
<path d="M16.4168 28.2251C16.8117 28.8558 17.4317 29.4424 18.2022 29.6348C18.3785 29.6761 18.5577 29.7041 18.7383 29.7186C18.6811 30.0527 18.5301 30.3637 18.3028 30.6155C17.9143 31.0271 17.2804 31.2361 16.4168 31.2361C15.5531 31.2361 14.9193 31.0271 14.5308 30.6155C14.3037 30.3637 14.153 30.0526 14.0962 29.7186C14.2765 29.7042 14.4554 29.6762 14.6314 29.6348C15.4074 29.4433 16.0228 28.8568 16.4168 28.2251Z" fill="#EFD9AB"/>
<path d="M16.4167 20.8679C17.2951 20.8679 22.3828 22.0116 23.7853 27.0704C24.1544 28.3908 23.9984 29.6937 23.3526 30.7389C22.2859 32.4663 20.2154 34.5261 16.4167 34.5261C12.618 34.5261 10.5484 32.4663 9.48085 30.7389C8.83496 29.6937 8.68179 28.3917 9.04902 27.0704C10.4515 22.0116 15.5392 20.8679 16.4167 20.8679ZM12.1142 29.238C12.2318 29.3159 12.3552 29.3848 12.4833 29.4442C12.498 29.9193 12.6272 30.8751 13.3654 31.6725C14.062 32.4258 15.0889 32.8088 16.4158 32.8088C17.7426 32.8088 18.7696 32.4258 19.4671 31.6725C20.2053 30.8751 20.3344 29.923 20.3492 29.4442C20.4771 29.3845 20.6004 29.3156 20.7183 29.238C21.4315 28.7601 21.8763 27.9719 21.8071 27.1754C21.2876 27.7564 20.853 28.2573 20.2994 28.528C19.7458 28.7987 19.0833 28.7472 18.5749 28.528C18.0665 28.3089 17.7334 27.8687 17.5239 27.2988C17.3861 26.9202 17.2932 26.5268 17.2471 26.1266C17.4821 26.0605 17.707 25.9632 17.9161 25.8375C18.3673 25.5539 18.7779 25.0778 18.7696 24.5088C18.2529 24.6644 17.869 24.6607 17.4999 24.6754H16.4102H15.3205C14.9515 24.6616 14.5667 24.6634 14.0518 24.5069C14.0454 25.075 14.4551 25.5493 14.9053 25.8329C15.1141 25.9593 15.3392 26.0569 15.5743 26.1229C15.5287 26.5238 15.4358 26.9178 15.2975 27.2969C15.088 27.8669 14.7439 28.3098 14.2456 28.5262C13.7474 28.7426 13.0636 28.7822 12.522 28.5262C11.9804 28.2702 11.5338 27.7546 11.0144 27.1735C10.9562 27.97 11.401 28.7582 12.1142 29.238Z" fill="#EFD9AB"/>
<path d="M23.9691 18.6801C23.8636 18.6801 23.7605 18.6489 23.6728 18.5904C23.5851 18.5319 23.5168 18.4488 23.4764 18.3516C23.436 18.2543 23.4255 18.1473 23.446 18.0441C23.4666 17.9408 23.5174 17.846 23.592 17.7715C23.6666 17.6971 23.7616 17.6464 23.8651 17.6259C23.9685 17.6054 24.0758 17.6159 24.1732 17.6562C24.2707 17.6965 24.354 17.7647 24.4126 17.8522C24.4712 17.9397 24.5024 18.0426 24.5024 18.1479C24.5026 18.2178 24.4889 18.2871 24.4621 18.3517C24.4353 18.4163 24.3961 18.475 24.3465 18.5245C24.297 18.5739 24.2381 18.6131 24.1734 18.6398C24.1086 18.6665 24.0392 18.6802 23.9691 18.6801Z" fill="white"/>
<path d="M21.462 18.4775C21.1822 18.4775 20.9087 18.3947 20.6761 18.2396C20.4435 18.0845 20.2622 17.8641 20.1552 17.6061C20.0481 17.3482 20.0201 17.0644 20.0747 16.7906C20.1292 16.5167 20.264 16.2652 20.4618 16.0678C20.6596 15.8704 20.9116 15.7359 21.186 15.6815C21.4604 15.627 21.7448 15.655 22.0033 15.7618C22.2617 15.8686 22.4827 16.0496 22.6381 16.2817C22.7935 16.5138 22.8765 16.7868 22.8765 17.0659C22.8765 17.4403 22.7274 17.7994 22.4622 18.0641C22.1969 18.3288 21.8371 18.4775 21.462 18.4775Z" fill="white"/>
<path d="M12.0615 17.6166C12.167 17.6164 12.2703 17.6475 12.3581 17.7059C12.446 17.7643 12.5144 17.8474 12.5549 17.9447C12.5954 18.042 12.6061 18.1491 12.5855 18.2524C12.565 18.3557 12.5141 18.4506 12.4395 18.5251C12.3649 18.5996 12.2697 18.6503 12.1662 18.6708C12.0627 18.6913 11.9554 18.6807 11.8579 18.6403C11.7604 18.5999 11.6771 18.5316 11.6186 18.4439C11.56 18.3562 11.5289 18.2532 11.5291 18.1479C11.5291 18.007 11.5851 17.8718 11.685 17.7722C11.7848 17.6726 11.9203 17.6166 12.0615 17.6166Z" fill="white"/>
<path d="M8.08301 49.0231C7.9721 49.1588 7.87184 49.3029 7.78313 49.454C7.39721 49.6071 7.02956 49.8026 6.68698 50.0369C5.82611 49.0645 4.08685 46.7146 4.34797 43.8593C4.43285 44.0747 4.52696 44.293 4.63953 44.5185C5.1996 46.6649 6.92319 48.199 8.08301 49.0231Z" fill="#EF5685"/>
<path d="M9.55458 15.6544C9.83422 15.6549 10.1074 15.7382 10.3397 15.8936C10.5719 16.049 10.7528 16.2697 10.8594 16.5277C10.9661 16.7856 10.9937 17.0694 10.9388 17.343C10.8839 17.6167 10.749 17.8679 10.551 18.0651C10.3531 18.2622 10.1011 18.3964 9.82675 18.4506C9.55244 18.5048 9.26818 18.4767 9.00988 18.3698C8.75157 18.2629 8.53083 18.082 8.37553 17.8499C8.22022 17.6178 8.13733 17.345 8.13733 17.0659C8.13745 16.8804 8.17421 16.6966 8.24551 16.5253C8.31681 16.3539 8.42125 16.1982 8.55287 16.0671C8.68448 15.936 8.8407 15.8321 9.01258 15.7613C9.18446 15.6904 9.36863 15.6541 9.55458 15.6544Z" fill="white"/>
<path d="M12.1585 32.155C12.4953 31.7066 11.7092 30.5897 11.7092 30.5897C10.1406 29.0243 11.0245 27.1827 11.0245 27.1827C10.9563 27.9792 11.401 28.7674 12.1133 29.2453C12.2311 29.323 12.3544 29.392 12.4824 29.4516C12.4972 29.9258 12.6263 30.8825 13.3636 31.6799C14.0611 32.4331 15.0881 32.8162 16.4149 32.8162C17.7417 32.8162 18.7687 32.4331 19.4662 31.6799C20.2044 30.8825 20.3326 29.9304 20.3483 29.4516C20.4763 29.392 20.5996 29.3231 20.7174 29.2453C21.4306 28.7674 21.8754 27.9792 21.8062 27.1827C21.8062 27.1827 22.6947 29.0243 21.1215 30.5897C21.1215 30.5897 20.3354 31.7112 20.6722 32.155C21.009 32.5989 23.4679 30.7085 23.9671 28.2656C24.0148 29.1332 23.7997 29.995 23.3498 30.7389C22.2832 32.4663 20.2127 34.5252 16.414 34.5252C12.6153 34.5252 10.5447 32.4663 9.47811 30.7389C9.02908 29.9946 8.81405 29.1331 8.86083 28.2656C9.3637 30.7112 11.8236 32.6007 12.1585 32.155Z" fill="#D1B990"/>
<path d="M23.7854 27.5999C22.382 22.541 17.2943 21.3965 16.4168 21.3965C15.5393 21.3965 10.4516 22.541 9.04912 27.5999C8.94747 27.9648 8.8856 28.3395 8.86459 28.7177C8.83631 28.1623 8.89863 27.6059 9.04912 27.0704C10.4516 22.0116 15.5393 20.867 16.4168 20.867C17.2943 20.867 22.382 22.0116 23.7854 27.0704C23.9359 27.6059 23.9982 28.1623 23.9699 28.7177C23.9484 28.3396 23.8865 27.9649 23.7854 27.5999Z" fill="white"/>
<path d="M14.6314 29.6358C15.4074 29.4433 16.0228 28.8568 16.4168 28.226C16.8117 28.8568 17.4317 29.4433 18.2022 29.6358C18.3785 29.6771 18.5577 29.7051 18.7383 29.7195C18.6811 30.0536 18.5301 30.3646 18.3028 30.6164C17.9143 31.028 17.2795 31.237 16.4168 31.237C15.5541 31.237 14.9193 31.028 14.5308 30.6164C14.3039 30.3644 14.1529 30.0535 14.0953 29.7195C14.2759 29.7052 14.4551 29.6772 14.6314 29.6358ZM16.4168 30.6974C17.476 30.6974 17.6421 30.0243 17.6421 30.0243C17.0811 30.1744 16.4168 29.7315 16.4168 29.7315C16.4168 29.7315 15.7534 30.1744 15.1915 30.0243C15.1915 30.0243 15.3585 30.6974 16.4168 30.6974Z" fill="#D1B990"/>
<path d="M26.2794 12.2383C26.2794 12.2383 32.7235 4.94096 28.1174 2.05426C28.1174 2.05426 29.0466 6.46211 25.7968 9.03205C25.7968 9.03205 25.3918 10.8267 26.2794 12.2383Z" fill="#D2C8DB"/>
<path d="M6.55498 12.2383C6.55498 12.2383 0.687587 4.94096 5.29274 2.05426C5.29274 2.05426 4.36451 6.46211 7.6133 9.03205C7.6133 9.03205 7.84121 10.5182 6.55498 12.2383Z" fill="#D2C8DB"/>
<path d="M44.1397 91.4599C43.0894 91.2433 42.001 91.2994 40.9787 91.6228C39.9564 91.9463 39.0344 92.5262 38.3009 93.307C38.6803 91.4377 38.7243 89.5159 38.431 87.6312L42.8101 87.8154C43.4154 87.8412 44.1397 87.9434 44.3907 88.494C44.4968 88.7279 44.4876 88.9958 44.4765 89.2537C44.4359 90.2002 44.395 91.1474 44.3538 92.0952C44.3067 91.8522 44.1895 91.7085 44.1397 91.4599Z" fill="#D1B990"/>
<path d="M24.828 90.1329C23.8894 90.4508 23.104 91.1078 22.6264 91.9745C22.0728 90.7069 21.5192 89.4387 20.9656 88.1698C22.1571 87.7322 23.4213 87.5253 24.6905 87.5602C25.2441 87.5759 25.8199 87.6459 26.2821 87.9507C26.7038 88.2269 27.5222 89.2748 27.2574 89.8328C27.0849 90.2011 26.5977 89.9608 26.2784 89.9433C25.7873 89.9157 25.2954 89.98 24.828 90.1329Z" fill="#D1B990"/>
<path d="M12.512 89.7757C11.4114 89.8515 10.3757 90.3233 9.59721 91.1035C9.58429 89.9138 9.572 88.7242 9.56031 87.5345L13.3387 87.6975C13.837 87.7186 14.3592 87.7472 14.7809 88.0115C15.2367 88.296 15.5015 88.8181 15.5947 89.3466C15.6307 89.5483 15.7709 90.354 15.6113 90.5243C15.4092 90.7389 15.0023 90.3291 14.7689 90.2168C14.0667 89.8797 13.2897 89.7278 12.512 89.7757Z" fill="#D1B990"/>
<path d="M36.8506 44.6769C36.8506 44.6769 31.726 54.244 18.0535 55.7485C18.0535 55.7485 18.729 58.2789 17.642 61.0441C17.642 61.0441 12.1373 61.568 9.74011 57.382C9.74011 57.382 5.81129 60.3719 2.60864 58.8774L2.11131 54.6915L2.60864 51.1004L3.07552 47.5884L3.4446 46.9439L5.54187 49.7984L6.1979 51.023C6.1979 51.023 5.19587 52.0736 4.95689 53.1178C4.71791 54.162 3.9696 56.1804 3.9696 56.1804L4.31654 56.4787C4.31654 56.4787 7.39556 56.5708 8.07835 55.7421C8.76114 54.9134 8.93921 54.3121 8.93921 54.3121L10.4847 53.5883L10.9516 54.2329L12.9649 57.4465L14.0915 58.6435L16.0006 58.4944L16.4121 57.9419V54.3084L16.0006 53.1114L26.3817 49.7919L33.2835 45.094L36.8506 44.6769Z" fill="#D2C8DB"/>
<path d="M35.4898 79.8726L36.4282 83.8412L31.2233 82.1156C30.8727 81.9996 30.4852 81.856 30.3219 81.5282C30.1696 81.2298 30.2444 80.8716 30.3219 80.5466L31.2049 76.8855C31.2888 76.5365 31.3783 76.1756 31.6035 75.8966C32.2595 75.0853 33.8355 74.6572 34.4306 75.415C35.1337 76.3118 35.2241 78.7474 35.4898 79.8726Z" fill="#D2C8DB"/>
<path d="M12.702 74.7603C12.6147 76.4059 12.7875 78.0549 13.2141 79.6469C13.5573 80.9268 14.0657 82.1782 14.1672 83.4995C14.2687 84.8209 13.8683 86.2868 12.7629 87.0216C13.7456 88.3733 16.0384 88.0722 17.1115 86.7905C18.1846 85.5087 18.2944 83.6754 18.073 82.0198C17.8295 80.2065 17.257 78.4526 16.3835 76.844C15.5153 75.2474 14.3656 73.8229 13.2224 72.4095C12.4243 71.4224 10.9203 68.6922 9.71616 68.4012C9.71616 69.5642 10.1941 70.8294 10.6942 71.8708C10.9664 72.4417 12.7241 74.3174 12.702 74.7603Z" fill="#D2C8DB"/>
<path d="M37.1724 85.8669L38.0628 87.1689L43.2188 87.622C43.9099 87.6827 45.7036 87.6514 45.425 86.5087C45.2515 85.7942 43.4753 85.2905 42.8709 85.1275C41.882 84.8584 40.8486 84.7926 39.8334 84.9341C39.6157 84.9655 37.0617 85.7076 37.1724 85.8669Z" fill="#D2C8DB"/>
<path d="M22.371 20.03C21.8155 20.03 21.2724 19.8656 20.8105 19.5576C20.3486 19.2495 19.9886 18.8117 19.7761 18.2995C19.5635 17.7873 19.5079 17.2237 19.6164 16.6799C19.7248 16.1362 19.9924 15.6368 20.3853 15.2448C20.7782 14.8529 21.2788 14.586 21.8236 14.4779C22.3685 14.3699 22.9333 14.4255 23.4465 14.6378C23.9597 14.8501 24.3983 15.2095 24.7068 15.6706C25.0153 16.1316 25.1799 16.6736 25.1797 17.228C25.1797 17.5961 25.107 17.9605 24.9659 18.3005C24.8247 18.6405 24.6178 18.9494 24.357 19.2096C24.0962 19.4698 23.7865 19.6762 23.4458 19.817C23.105 19.9577 22.7398 20.0301 22.371 20.03ZM21.4622 15.6581C21.1824 15.6581 20.9089 15.7408 20.6763 15.896C20.4437 16.0511 20.2624 16.2715 20.1554 16.5295C20.0483 16.7874 20.0203 17.0712 20.0749 17.345C20.1294 17.6188 20.2642 17.8704 20.462 18.0678C20.6598 18.2652 20.9118 18.3996 21.1862 18.4541C21.4606 18.5086 21.745 18.4806 22.0035 18.3738C22.2619 18.2669 22.4828 18.086 22.6383 17.8539C22.7937 17.6217 22.8767 17.3488 22.8767 17.0696C22.8771 16.884 22.8409 16.7 22.77 16.5283C22.6992 16.3566 22.5951 16.2006 22.4637 16.0691C22.3323 15.9377 22.1762 15.8334 22.0043 15.7622C21.8325 15.691 21.6482 15.6544 21.4622 15.6544V15.6581ZM23.9691 17.6203C23.8636 17.6203 23.7605 17.6515 23.6727 17.71C23.585 17.7686 23.5167 17.8517 23.4763 17.949C23.436 18.0463 23.4255 18.1534 23.4461 18.2567C23.4668 18.3599 23.5177 18.4548 23.5923 18.5292C23.667 18.6036 23.7621 18.6542 23.8656 18.6746C23.9692 18.695 24.0764 18.6844 24.1739 18.6439C24.2713 18.6035 24.3545 18.5352 24.413 18.4475C24.4715 18.3599 24.5026 18.2569 24.5024 18.1516C24.5029 18.0814 24.4895 18.0119 24.4629 17.9469C24.4363 17.882 24.3971 17.8229 24.3475 17.7732C24.2979 17.7234 24.2389 17.684 24.174 17.6571C24.1091 17.6302 24.0394 17.6165 23.9691 17.6166V17.6203Z" fill="#3A2033"/>
<path d="M2.81533 10.4305C2.14376 9.57463 1.58383 8.63712 1.14896 7.64047C0.714371 6.6276 0.444939 5.46463 0.568581 4.27404C0.671921 3.08161 1.25599 1.94627 2.03474 1.10282C2.24538 0.854105 2.49089 0.637016 2.76366 0.458265C3.05838 0.269033 3.38557 0.135737 3.7288 0.0650836C4.41538 -0.0813597 5.1318 0.0211489 5.74949 0.354215C6.05878 0.516777 6.33505 0.735349 6.56422 0.998772C6.67963 1.12967 6.78365 1.27014 6.87517 1.41865C6.94991 1.5577 7.05325 1.7529 7.09109 1.84867C7.29315 2.30906 7.50444 2.76486 7.71943 3.21697C8.14295 4.11746 8.61165 4.99609 9.12376 5.84952C9.37373 6.25946 9.64475 6.65623 9.93573 7.03827C10.028 7.15889 10.1295 7.27399 10.2301 7.38449C10.3664 7.20555 10.5143 7.03576 10.673 6.87621C10.9943 6.53883 11.3606 6.24726 11.7617 6.00974C12.2041 5.73948 12.7017 5.57205 13.2178 5.51988C13.6151 5.48299 14.0157 5.52599 14.3961 5.64635C14.7765 5.76671 15.1288 5.96198 15.4322 6.22061C15.711 5.83524 16.0822 5.52571 16.5117 5.32031C16.9412 5.11491 17.4155 5.02017 17.8912 5.04475C18.43 5.06132 19.0971 5.39005 19.4284 5.88727C19.6289 6.17815 19.7714 6.50485 19.8482 6.84951C20.1266 6.72257 20.4194 6.62981 20.7201 6.57327C21.1999 6.4794 21.6951 6.49895 22.166 6.63036C22.4384 6.70911 22.6969 6.82997 22.9318 6.98855C23.2086 6.6322 23.4614 6.25191 23.7078 5.85045C24.2171 5.01344 24.6785 4.12672 25.1112 3.22249C25.3271 2.77038 25.5384 2.31459 25.7396 1.85419C25.7783 1.76211 25.8807 1.56322 25.9564 1.42418C26.0479 1.27589 26.1516 1.13544 26.2664 1.0043C26.4961 0.741062 26.7727 0.522529 27.0821 0.359739C27.6998 0.0266734 28.4162 -0.0758351 29.1028 0.0706081C29.4458 0.141105 29.7727 0.274417 30.067 0.46379C30.3402 0.642305 30.5861 0.859417 30.7968 1.10835C31.5756 1.9518 32.1596 3.08714 32.2621 4.27957C32.3866 5.47016 32.1163 6.63036 31.6826 7.646C31.2474 8.64247 30.6875 9.57993 30.0162 10.436C29.7071 10.8752 29.3417 11.2546 29.0059 11.6662C28.8112 11.8817 28.6091 12.0888 28.4089 12.2988C28.4541 12.3614 28.5012 12.4249 28.5436 12.4912C28.7181 12.7551 28.8761 13.0294 29.017 13.3126C29.5824 14.4501 29.8443 15.7139 29.7773 16.982C29.7543 17.4789 29.6822 17.9724 29.5623 18.4552C29.8545 18.8886 30.1103 19.3454 30.3272 19.8208C30.6011 20.4173 30.8042 21.0437 30.9325 21.6872C31.0593 22.3553 31.0758 23.0396 30.9814 23.713C30.893 24.2919 30.7084 24.8521 30.4351 25.3704C30.4882 25.6924 30.5135 26.0183 30.5108 26.3446C30.5083 26.7762 30.4506 27.2057 30.3392 27.6227C30.2204 28.0617 30.0249 28.4763 29.7616 28.8473C29.597 29.0857 29.3998 29.2999 29.1757 29.4836V29.4993C31.1484 28.6392 33.5677 26.5527 34.7118 25.5721C35.6576 24.7562 35.8015 24.6282 36.2112 24.6862C36.363 24.7135 36.509 24.7664 36.643 24.8428C40.3338 26.6172 45.9566 26.9468 50.022 26.9118C60.787 26.8317 62.6564 29.711 66.2346 36.8564C69.6209 43.6022 77.3309 45.615 77.4074 45.6344L79 46.0358L77.6898 47.022C77.4333 47.2163 71.2688 51.7245 61.2032 47.7992C51.0222 43.8287 42.9127 42.616 37.979 44.2734C38.1562 44.3084 38.3334 44.3379 38.5105 44.383C39.125 44.5501 39.7145 44.7978 40.2636 45.1196C40.6842 45.3782 41.067 45.6933 41.4013 46.0561C41.6504 46.0386 41.8848 46.034 42.1339 46.0358C42.5288 46.0421 42.923 46.0728 43.314 46.1279C44.1063 46.2375 44.8798 46.4544 45.6134 46.7725C47.1115 47.4209 48.3658 48.5254 49.1971 49.928C50.034 51.2991 50.451 52.8295 50.6734 54.3285C50.8672 55.7097 50.869 57.0909 50.7888 58.4528C50.9343 58.6628 51.0679 58.8808 51.1892 59.1056C51.3657 59.4325 51.5198 59.7709 51.6505 60.1185C51.9211 60.8307 52.0717 61.5827 52.0962 62.3441C52.1269 63.1199 52.0047 63.8942 51.7364 64.623C51.5526 65.1505 51.2997 65.6515 50.9844 66.1129L51 66.1515C51.0766 66.344 51.1329 66.5374 51.1966 66.7307C51.3067 67.1171 51.3903 67.5106 51.4466 67.9084C51.5595 68.7023 51.5614 69.5081 51.4522 70.3025C51.3436 71.089 51.1334 71.8581 50.8266 72.5907C50.6956 72.9645 50.4907 73.2988 50.3209 73.6514C50.2065 73.8586 50.082 74.0575 49.9519 74.2564C49.9823 74.4102 50.0054 74.5556 50.0275 74.7168C50.0645 75.0125 50.0836 75.3101 50.0847 75.6081C50.089 76.2049 50.0145 76.7996 49.8633 77.377C49.7167 77.9565 49.4933 78.5139 49.199 79.0344C49.016 79.37 48.8026 79.688 48.5614 79.9847V79.992C48.6193 80.2211 48.6485 80.4565 48.6481 80.6928C48.6459 81.141 48.5487 81.5838 48.363 81.992C48.1954 82.3593 47.9781 82.702 47.7171 83.0104C47.5898 83.1494 47.4634 83.2866 47.3324 83.422L47.301 83.4505C47.3176 83.8189 47.3112 84.1879 47.2816 84.5555C47.2418 85.1087 47.1314 85.6545 46.9531 86.1798C46.7584 86.7519 46.4534 87.2806 46.0554 87.7359C45.7387 88.0707 45.3635 88.345 44.9481 88.5453C44.9112 90.5517 44.8835 92.5581 44.8245 94.5645L44.7811 96.2303L44.7599 97.059C44.759 97.238 44.7436 97.4166 44.7138 97.593C44.6819 97.7887 44.6274 97.9799 44.5514 98.163C44.4026 98.5298 44.1771 98.8607 43.8899 99.1335C43.6027 99.4063 43.2604 99.6148 42.8859 99.7449C42.6996 99.8111 42.5065 99.8565 42.3102 99.8803C42.1368 99.8994 41.9623 99.9068 41.7879 99.9024H40.9575L37.6174 99.8821H37.5094L37.3553 99.8738C37.2524 99.8676 37.15 99.8541 37.049 99.8333C36.846 99.7927 36.649 99.7262 36.4631 99.6354C36.0907 99.4543 35.7713 99.1808 35.5354 98.841C35.2995 98.5013 35.1551 98.1067 35.1159 97.6952C35.0978 97.4942 35.104 97.2917 35.1344 97.0921C35.1584 96.9374 35.1861 96.7846 35.2211 96.6317C35.3542 96.0109 35.5853 95.415 35.9058 94.8666C36.2398 94.3141 36.7288 93.7763 37.3821 93.4706C37.5017 93.4166 37.625 93.371 37.7511 93.3344L37.669 93.3169C38.0649 91.5047 37.8536 89.1226 37.729 88.0923C37.5366 87.9842 37.3571 87.8547 37.1938 87.7065C37.0578 87.5814 36.9327 87.445 36.8201 87.2985C36.7279 87.1816 36.6356 87.0647 36.5526 86.9431C36.3763 86.7037 36.213 86.4532 36.0562 86.1982C35.7374 85.6788 35.4751 85.1268 35.2737 84.5518C35.2061 84.3593 35.1482 84.1636 35.1003 83.9653C34.9324 83.9844 34.7636 83.9945 34.5946 83.9957C33.7439 83.9957 32.8203 83.7581 32.1956 83.0104H32.156C31.7061 83.01 31.2589 82.9407 30.83 82.8051C30.8365 82.9588 30.8411 83.1135 30.8411 83.2719C30.8373 84.0856 30.6776 84.891 30.3706 85.6448C30.0457 86.4326 29.5093 87.1158 28.8204 87.619C28.4956 87.8879 28.1284 88.061 27.764 88.2396C28.5567 89.9376 29.1353 91.7272 29.4866 93.5673C29.708 94.7124 29.8106 95.8772 29.7929 97.0433V97.3767L29.78 97.5341C29.7608 97.7453 29.7159 97.9534 29.6462 98.1538C29.4696 98.6455 29.1581 99.0778 28.7471 99.4013C28.3361 99.7248 27.8423 99.9265 27.322 99.9834C27.2196 99.9963 27.1162 99.9963 27.0138 100H26.8007C25.6934 99.9908 24.5862 99.9576 23.479 99.9309L22.6486 99.9098L22.4188 99.9024C22.3135 99.8985 22.2086 99.8868 22.1051 99.8674C21.8969 99.8303 21.6945 99.7656 21.5035 99.675C21.1266 99.4946 20.8067 99.2143 20.5789 98.8646C20.351 98.5149 20.224 98.1094 20.2117 97.6925C20.2094 97.5914 20.2131 97.4902 20.2228 97.3895L20.2459 97.187L20.3022 96.7671C20.3428 96.4798 20.3944 96.1852 20.4655 95.8859C20.5354 95.5721 20.6451 95.2686 20.7921 94.9826C20.9475 94.6629 21.1722 94.3817 21.45 94.1594C21.5162 94.1081 21.5862 94.0619 21.6594 94.0213C21.6382 92.7607 21.4278 90.3289 20.6251 89.1908C20.508 89.173 20.3919 89.1493 20.2772 89.1199C20.0371 89.0585 19.8042 88.9718 19.5825 88.8611C19.104 88.6194 18.7083 88.2412 18.4457 87.7746C18.3156 87.5221 18.2224 87.2524 18.1689 86.9735C17.6563 87.8448 16.8868 88.5371 15.9655 88.956C16.0869 89.8278 16.1581 90.7058 16.1787 91.5858C16.2132 92.6832 16.1583 93.7817 16.0144 94.8702L15.8871 95.6907L15.7219 96.5083L15.5125 97.3196C15.4188 97.6508 15.279 97.9672 15.0973 98.2597C14.7289 98.8534 14.191 99.3235 13.5527 99.6096C13.2354 99.7524 12.8992 99.8489 12.5543 99.896C12.3842 99.9178 12.2129 99.9289 12.0413 99.9291L11.6446 99.9245L8.46957 99.8932H8.07283C8.023 99.8932 7.89751 99.8877 7.79602 99.8794C7.69309 99.8701 7.591 99.8532 7.49061 99.8287C7.0841 99.7308 6.71503 99.5168 6.42859 99.2127C6.14816 98.9147 5.95759 98.5439 5.87876 98.1427C5.79993 97.7416 5.83604 97.3264 5.98293 96.9448C6.01067 96.8666 6.04493 96.7908 6.08535 96.7183L6.18315 96.5249L6.39999 96.1455C6.55233 95.8913 6.7248 95.6496 6.91577 95.4227C7.30668 94.947 7.79739 94.5626 8.35332 94.2966C8.48476 94.2377 8.61973 94.1869 8.75745 94.1447C8.80728 93.1695 8.97244 89.4486 8.77038 87.4532C6.43689 84.5067 5.91003 78.8779 5.81776 77.6771C3.69004 74.3623 3.57564 66.9664 3.57287 65.6C2.12332 62.9021 2.10579 60.3864 2.14362 59.5863C-0.523872 54.5292 2.30325 46.9649 2.83564 45.6399C2.57636 43.9742 2.7932 42.0819 3.989 40.1151C4.08987 39.6775 4.24483 39.254 4.45035 38.8545C2.82365 35.7818 3.82475 33.0342 4.39497 31.8961C4.26709 31.7315 4.15174 31.5576 4.04989 31.3758C3.85327 31.0143 3.72357 30.6203 3.66698 30.2129C3.63859 30.0122 3.62624 29.8096 3.63007 29.607C3.63007 29.5665 3.63007 29.5287 3.6356 29.491C3.41144 29.307 3.21395 29.0929 3.04877 28.8547C2.78572 28.4836 2.59049 28.069 2.47209 27.63C2.36019 27.2131 2.30251 26.7836 2.30048 26.352C2.29793 26.0257 2.32294 25.6998 2.37521 25.3778C2.10233 24.8593 1.91772 24.2992 1.82898 23.7203C1.73485 23.0469 1.75169 22.3626 1.87881 21.6946C2.00709 21.051 2.21022 20.4246 2.48409 19.8281C2.70097 19.3527 2.95681 18.896 3.249 18.4626C3.12858 17.9798 3.05655 17.4863 3.034 16.9893C2.96694 15.7213 3.22883 14.4574 3.79431 13.3199C3.93478 13.0366 4.09286 12.7623 4.26765 12.4986C4.31287 12.4323 4.35992 12.3688 4.40144 12.3061C4.20214 12.0962 4.00008 11.889 3.80539 11.6736C3.48983 11.2491 3.12443 10.8697 2.81533 10.4305ZM19.3195 7.14324C19.2983 7.15797 19.3103 7.15061 19.3269 7.14324H19.3195ZM61.7761 46.3369C68.354 48.9032 73.057 47.5993 75.288 46.5837C72.6168 45.5515 67.543 42.9687 64.8302 37.5544C61.2659 30.4412 59.785 28.3961 50.0386 28.4809C45.8865 28.5122 40.1575 28.177 36.1983 26.3676C36.0626 26.4827 35.8975 26.6254 35.7369 26.759C34.2458 28.0481 31.2305 30.6475 28.7937 31.2976C28.7817 31.3206 28.7752 31.3454 28.7623 31.3685C28.6605 31.5501 28.5455 31.724 28.4181 31.8887C28.9884 33.0268 29.9867 35.7754 28.3619 38.849C28.7767 39.6595 28.9874 40.5587 28.9754 41.4687L28.9653 42.2468H28.7512C28.3166 43.1059 27.3174 44.0681 26.4445 44.8029C23.5906 47.2071 19.11 49.7061 14.4763 50.2522C14.5071 50.3948 14.5253 50.54 14.5307 50.6859C15.0411 51.0591 15.5022 51.4954 15.9028 51.9842C23.4744 51.7779 27.8599 48.7945 32.0951 45.9014C33.11 45.2062 34.1628 44.488 35.2368 43.8241C41.656 39.8518 53.2117 42.9981 61.7761 46.3369ZM12.5894 53.7751C12.384 54.0033 12.1424 54.1961 11.8743 54.346C12.0588 55.5246 12.5202 56.4279 13.2454 57.0347C14.1146 57.7585 15.1978 57.9224 15.8225 57.9555C16.5468 55.009 14.9478 53.1121 13.9771 52.2678C13.9291 52.3258 13.8848 52.3838 13.8276 52.4409C13.5112 52.765 13.1052 53.2024 12.5894 53.7751ZM12.8662 50.3608C12.0238 50.3735 11.1819 50.31 10.3509 50.1711L10.1129 50.1223L9.94311 49.9658C9.8776 49.9069 9.68752 49.7816 9.56204 49.8083C9.43655 49.835 9.24279 50.0081 9.03519 50.4363C8.8202 50.882 8.96968 51.6122 9.45594 52.4915C9.54913 52.6628 9.68249 52.8089 9.84463 52.9175C10.0068 53.026 10.1928 53.0938 10.3869 53.1149C10.577 53.1383 10.7699 53.1152 10.949 53.0475C11.1281 52.9797 11.288 52.8695 11.4148 52.7263C11.9444 52.1379 12.3652 51.6849 12.701 51.3451C13.0553 50.9833 12.9981 50.6205 12.8708 50.3608H12.8662ZM36.7408 96.9503C36.7168 97.07 36.6984 97.1907 36.6799 97.3104C36.6708 97.3862 36.6708 97.4629 36.6799 97.5387C36.6983 97.6821 36.7512 97.8189 36.834 97.9374C36.9205 98.0547 37.0342 98.1495 37.1652 98.2137C37.2298 98.2437 37.2981 98.2654 37.3682 98.2781C37.4038 98.2849 37.4399 98.2889 37.4762 98.2901H37.5306H37.6303L40.9704 98.2707L41.8008 98.2652C41.9047 98.2683 42.0086 98.2637 42.1118 98.2514C42.192 98.2411 42.2707 98.2214 42.3461 98.1925C42.4982 98.1368 42.6369 98.0499 42.7531 97.9372C42.8693 97.8246 42.9605 97.6888 43.0206 97.5387C43.0525 97.4651 43.0748 97.3878 43.0871 97.3085C43.1032 97.2111 43.1106 97.1125 43.1092 97.0139L43.1323 96.1852L43.1784 94.5194C43.2255 92.5452 43.303 90.572 43.3731 88.5987C43.0734 88.5209 42.7697 88.4594 42.4633 88.4146C41.9723 88.3452 41.4761 88.3193 40.9806 88.3372C40.7333 88.3455 40.4888 88.3676 40.2424 88.3961L39.8789 88.4523C39.7099 88.4815 39.5391 88.4984 39.3677 88.5029C39.483 89.7 39.5799 91.6088 39.2874 93.2727C39.3262 93.2819 39.3686 93.2846 39.4074 93.2957C40.0126 93.4683 40.5362 93.851 40.8837 94.3749C39.6445 94.3749 38.6904 94.1483 38.015 94.6308C37.3645 95.0747 36.941 95.9955 36.7408 96.9503ZM32.4798 81.4202L33.0334 81.3281L33.3001 81.8189C33.6203 82.4073 34.3741 82.4533 34.9277 82.3962C34.9303 81.9646 34.9836 81.5347 35.0864 81.1154C34.3091 79.4836 33.858 77.7161 33.7587 75.912C33.7587 75.8798 33.7587 75.8466 33.7587 75.8144C33.1537 76.1923 32.4798 76.4471 31.7758 76.5639C31.8275 76.7214 31.8745 76.8807 31.9142 77.0418C32.0484 77.6089 32.0741 78.1963 31.9899 78.7729C31.9088 79.3546 31.7107 79.914 31.4077 80.4174C31.2757 80.6789 31.0875 80.8889 30.9195 81.1182C31.6079 81.5436 32.4761 81.422 32.4835 81.4202H32.4798ZM21.701 97.5958C21.7232 97.7327 21.78 97.8616 21.8658 97.9707C21.9517 98.0797 22.0638 98.1652 22.1918 98.2192C22.2531 98.2431 22.3174 98.2586 22.3828 98.2652C22.4157 98.268 22.4487 98.268 22.4815 98.2652C22.5065 98.2652 22.608 98.2652 22.6661 98.2652L23.4965 98.245C24.6037 98.2173 25.711 98.1851 26.8182 98.1759H27.0203C27.0553 98.1704 27.0913 98.1759 27.1264 98.1658C27.196 98.1563 27.2642 98.1384 27.3294 98.1124C27.4608 98.0639 27.5792 97.9857 27.6754 97.884C27.7677 97.7876 27.8368 97.6713 27.8774 97.5442C27.8962 97.4843 27.9089 97.4226 27.9153 97.3601V97.3113V97.0221C27.9186 95.9772 27.8278 94.934 27.644 93.9053C27.302 92.037 26.7732 90.2078 26.0653 88.4449L25.8198 88.3602C25.842 88.3878 25.8014 88.3418 25.7811 88.3261C25.7608 88.3105 25.7248 88.281 25.6971 88.2571C25.6327 88.2091 25.5641 88.1669 25.4923 88.1309C25.3395 88.0524 25.1769 87.9945 25.0088 87.9587C24.63 87.8886 24.2407 87.8996 23.8665 87.991C23.662 88.0339 23.4604 88.0899 23.2631 88.1586C23.0628 88.2387 22.8608 88.3197 22.6606 88.4109C22.4972 88.5029 22.3321 88.5821 22.1688 88.6724C23.0601 90.2874 23.2243 92.7331 23.2502 93.8647C23.3046 93.8795 23.36 93.8933 23.4125 93.9108C23.9602 94.1017 24.4699 94.3872 24.9184 94.7542C24.3942 94.6032 23.8554 94.5081 23.311 94.4706C22.7934 94.4614 22.3385 94.583 22.1235 94.885C21.8772 95.1612 21.7886 95.6216 21.7314 96.1078C21.7065 96.3527 21.6973 96.6078 21.6945 96.8711V97.2781L21.6899 97.489C21.6963 97.5221 21.6917 97.5608 21.701 97.5958ZM8.88387 95.2017C8.52552 95.4716 8.22392 95.8092 7.99624 96.1953C7.87906 96.3923 7.76279 96.5958 7.6613 96.8085L7.51921 97.1354L7.45462 97.303C7.43563 97.3486 7.4196 97.3953 7.40664 97.4429C7.36906 97.5596 7.36561 97.6846 7.39666 97.8031C7.4277 97.9217 7.49198 98.029 7.58195 98.1124C7.66111 98.1948 7.76395 98.2508 7.8763 98.2726C7.90451 98.279 7.93321 98.283 7.9621 98.2846C7.99716 98.2846 8.00362 98.2901 8.08666 98.2846H8.48342L11.6584 98.2523H12.0552C12.1478 98.2497 12.2402 98.2417 12.332 98.2284C12.5117 98.2 12.6864 98.1457 12.8505 98.0672C13.0975 97.9466 13.3162 97.7754 13.4924 97.5647C13.6685 97.354 13.7982 97.1085 13.8729 96.8444L14.0574 96.1225L14.2096 95.3859L14.3268 94.641C14.5636 92.7308 14.5726 90.7992 14.3536 88.8869C12.4556 87.6982 10.7855 88.5324 10.7163 88.5683L10.4395 88.7193C10.5013 90.7138 10.398 93.1392 10.3473 94.0747C10.8396 94.192 11.2967 94.425 11.6805 94.7542C10.5807 94.6741 9.59987 94.6603 8.88479 95.2017H8.88387ZM3.6393 48.1776C2.80888 50.9317 1.80406 55.7613 3.64575 59.0145L3.7694 59.2345L3.74356 59.4822C3.74356 59.5098 3.48705 62.1903 5.06393 65.007L5.16543 65.1911V65.3992C5.16543 65.484 5.11284 73.9056 7.25256 76.9571L7.37988 77.1412L7.39281 77.3641C7.50906 79.4193 8.28966 84.9524 10.481 86.9744C11.3493 86.6724 13.215 86.293 15.2237 87.5711C15.9314 87.2829 17.4732 86.363 17.2665 83.8879C17.1642 83.6077 17.0916 83.3176 17.0497 83.0224C16.9715 82.4991 16.988 81.9661 17.0986 81.4487C17.1538 81.1653 17.236 80.8878 17.344 80.62L17.308 80.5887C17.1338 80.4283 16.9713 80.2557 16.8218 80.0721C16.5173 79.6992 16.2781 79.2777 16.1141 78.8254C15.9453 78.3721 15.8579 77.8927 15.8557 77.4092C15.8498 77.0627 15.8835 76.7167 15.9563 76.3779C15.795 76.1242 15.6492 75.861 15.5199 75.5897C15.4276 75.3982 15.3353 75.203 15.2615 75.005C15.1058 74.978 14.9517 74.942 14.8001 74.8973C14.5617 74.8265 14.3296 74.736 14.1063 74.6265C13.6479 74.4043 13.2381 74.0939 12.9003 73.7131C12.5633 73.3345 12.3027 72.8946 12.1327 72.4175C12.0302 72.1873 11.9979 71.9498 11.9324 71.715C11.9112 71.6063 11.8964 71.4977 11.8826 71.3881C11.5749 71.1583 11.2864 70.9039 11.0199 70.6275C10.6491 70.2437 10.3294 69.8138 10.0686 69.3485C9.81036 68.8913 9.63364 68.3928 9.54636 67.8753C9.44118 67.3716 9.4873 66.8624 9.54636 66.3781C9.61464 66.8652 9.70137 67.3394 9.91544 67.7592C10.1095 68.1763 10.3746 68.5567 10.6988 68.8835C11.0149 69.2039 11.3709 69.4824 11.758 69.7123C12.1254 69.9345 12.519 70.1102 12.9299 70.2353L13.2205 70.3135L13.3977 70.8973C13.4235 71.0658 13.4373 71.2389 13.4678 71.4028C13.5167 71.5585 13.5324 71.7316 13.6025 71.8724C13.7025 72.1645 13.8592 72.4339 14.0639 72.6653C14.2596 72.8867 14.4969 73.0679 14.7623 73.1984C14.6987 72.7508 14.6804 72.2979 14.7079 71.8467C14.7507 71.0067 14.9725 70.1855 15.3584 69.4379C15.5189 69.0566 15.7754 68.7316 15.996 68.3937C16.2331 68.0668 16.5237 67.7804 16.7803 67.4784C16.5736 67.8228 16.3383 68.1441 16.163 68.4977C16.0033 68.8596 15.8133 69.2021 15.7238 69.5834C15.4861 70.3083 15.4077 71.0759 15.494 71.8338C15.5719 72.5721 15.7849 73.2899 16.1224 73.9516C16.2899 74.2794 16.4808 74.5948 16.6935 74.8954C16.8924 75.1841 17.1179 75.4535 17.3671 75.7002L17.6199 75.9451L17.5378 76.4304C17.4543 76.7405 17.4127 77.0604 17.4141 77.3816C17.413 77.6881 17.4677 77.9923 17.5756 78.2793C17.6804 78.5708 17.8345 78.8421 18.0314 79.0814C18.1315 79.2036 18.24 79.3187 18.3562 79.4257C18.4611 79.523 18.5734 79.612 18.6921 79.6918L19.2918 80.0823L18.991 80.7268C18.824 81.0523 18.6999 81.398 18.6219 81.7553C18.5469 82.0956 18.535 82.4467 18.5869 82.7912C18.6355 83.137 18.7458 83.4713 18.9126 83.7783C18.997 83.9347 19.0929 84.0846 19.1995 84.2268C19.2967 84.3578 19.404 84.481 19.5206 84.5951L19.8602 84.9118L19.7735 85.3722L19.6812 85.8437C19.6729 85.9938 19.6572 86.1457 19.6563 86.2893C19.6592 86.5399 19.7155 86.7869 19.8214 87.014C19.9328 87.2074 20.0992 87.3634 20.2994 87.4624C20.4156 87.5194 20.5374 87.5642 20.6629 87.596C20.7203 87.6117 20.7785 87.624 20.8373 87.6328L21.2544 87.3713C21.4823 87.2378 21.7259 87.1208 21.9611 86.9956C22.1964 86.8704 22.4594 86.7792 22.7141 86.6798C22.9799 86.5871 23.2514 86.5118 23.527 86.4542C24.1111 86.3187 24.7172 86.3077 25.3059 86.4219C25.6184 86.4874 25.9205 86.5952 26.2037 86.7424C26.3462 86.8147 26.482 86.8995 26.6097 86.9956C27.071 86.8409 27.5194 86.6577 27.8719 86.3667C28.3415 86.0292 28.7059 85.566 28.9228 85.0306C29.1496 84.4638 29.2664 83.8592 29.267 83.2489C29.2756 82.619 29.1986 81.9908 29.0382 81.3815L28.9164 80.9469L29.2587 80.573C29.398 80.4211 29.5549 80.2793 29.685 80.1228C29.7985 79.9589 29.9433 79.8097 30.0255 79.6329C30.2268 79.3045 30.3578 78.938 30.4102 78.5565C30.4666 78.1709 30.449 77.7781 30.3586 77.3991C30.3112 77.2039 30.2495 77.0125 30.174 76.8263C30.1051 76.6523 30.0214 76.4844 29.924 76.3245L29.6121 75.8208L29.9812 75.3659C30.1581 75.1596 30.3127 74.9352 30.4425 74.6965C30.699 74.2291 30.8306 73.7037 30.8245 73.1708C30.8237 73.0389 30.8144 72.9073 30.7968 72.7767C30.7808 72.6648 30.7577 72.5541 30.7276 72.4452L30.6234 72.11L30.7452 71.878C30.95 71.5023 31.153 71.099 31.2425 70.6515C31.3483 70.1932 31.3881 69.7222 31.3606 69.2528C31.298 68.2503 31.0291 67.2714 30.5708 66.3771C31.284 67.1682 31.8253 68.0981 32.1606 69.1082C32.332 69.6407 32.4273 70.1946 32.4438 70.7537C32.4597 71.2227 32.4116 71.6917 32.3008 72.1478C32.3377 72.2933 32.358 72.4176 32.3811 72.5603C32.4075 72.7578 32.4219 72.9568 32.4245 73.156C32.4294 73.5536 32.3825 73.9501 32.2851 74.3356C32.2381 74.5197 32.1809 74.6947 32.1163 74.8696C33.1663 74.5206 33.6793 73.8752 33.8519 73.6128C33.8786 73.4212 33.9063 73.2306 33.9441 73.04C34.0862 72.1542 34.3981 71.3071 34.7459 70.483C34.7083 69.932 34.7256 69.3786 34.7976 68.8311C34.877 68.2132 35.0339 67.6078 35.2645 67.0291C35.4943 66.4468 35.8174 65.9056 36.2213 65.4269C36.6221 64.9635 37.1185 64.5919 37.6764 64.3376C37.3433 64.8403 37.0407 65.3026 36.846 65.8201C36.6474 66.3186 36.4999 66.836 36.4059 67.3642C36.322 67.8896 36.2721 68.4199 36.2564 68.9517C36.24 69.4718 36.2606 69.9925 36.3182 70.5097L36.345 70.7196L36.2527 70.948C35.9371 71.7168 35.641 72.4986 35.5219 73.3255C35.373 74.1484 35.3299 74.987 35.3937 75.8208C35.4497 76.662 35.5929 77.4952 35.8209 78.307C36.0429 79.1077 36.3471 79.8835 36.7288 80.6218L36.9041 80.9506L36.8008 81.2913C36.5387 82.1513 36.6042 83.0804 36.93 83.9772C37.098 84.4348 37.3145 84.8731 37.5758 85.2848C37.7087 85.4938 37.8471 85.7019 37.9984 85.9017C38.0722 86.003 38.1497 86.1015 38.2291 86.2C38.2839 86.2714 38.3458 86.3371 38.4136 86.3962C38.6597 86.6149 38.9802 86.7315 39.3096 86.7221C39.3951 86.72 39.4803 86.7104 39.5642 86.6936L40.0136 86.619C40.3144 86.5794 40.6152 86.549 40.9169 86.5352C41.5182 86.5073 42.1209 86.5316 42.718 86.6079C43.1929 86.6684 43.6628 86.7629 44.1242 86.8906C44.3378 86.7908 44.5313 86.6529 44.6953 86.4836C44.9166 86.2141 45.0853 85.9055 45.1926 85.5739C45.315 85.1956 45.3882 84.8032 45.4104 84.4063C45.44 84.0016 45.4316 83.595 45.3855 83.1918L45.32 82.6918L45.7167 82.3235L46.0046 82.0574L46.2574 81.7811C46.3979 81.61 46.5151 81.4211 46.6062 81.2194C46.6802 81.0575 46.7189 80.8818 46.7197 80.7038C46.7193 80.6279 46.709 80.5524 46.6892 80.4791C46.6807 80.4476 46.6696 80.4168 46.656 80.387C46.6517 80.374 46.6461 80.3613 46.6394 80.3493C46.6394 80.3493 46.6173 80.3152 46.6514 80.3649L46.7345 79.1477C47.0246 78.8208 47.2795 78.4643 47.4948 78.0841C47.7083 77.7105 47.87 77.3097 47.9755 76.8926C48.0862 76.4757 48.1411 76.0459 48.1388 75.6146C48.1376 75.3991 48.1244 75.184 48.0991 74.97C48.0744 74.7781 48.0371 74.588 47.9875 74.4009L47.8564 73.9544L48.1111 73.5345C48.2781 73.2582 48.4627 72.9921 48.6186 72.7131C48.7533 72.4249 48.9286 72.1515 49.0301 71.8522C49.2743 71.2737 49.4423 70.6662 49.5302 70.0447C49.6165 69.4289 49.6165 68.8041 49.5302 68.1883C49.4889 67.8829 49.4272 67.5805 49.3457 67.2832C49.2977 67.1396 49.2534 66.9904 49.1999 66.8541C49.1464 66.7178 49.0781 66.5622 49.0449 66.4913L48.7681 65.9269L49.1224 65.4241C49.4453 64.9637 49.7572 64.4969 49.9196 63.9831C50.1096 63.481 50.1956 62.9456 50.1724 62.4094C50.1553 61.8599 50.0471 61.3169 49.8522 60.8026C49.752 60.5388 49.6342 60.282 49.4998 60.0338C49.3752 59.7987 49.232 59.5739 49.0716 59.3616L48.8262 59.0393L48.8539 58.6756C48.9645 57.3148 48.9423 55.9465 48.7874 54.59C48.6103 53.2659 48.2634 51.9704 47.6165 50.8811C46.9984 49.7868 46.046 48.9183 44.8983 48.4023C44.3171 48.1421 43.7031 47.9621 43.0732 47.8673C42.7543 47.8168 42.4326 47.7861 42.1099 47.7752C41.802 47.7648 41.4937 47.7759 41.1872 47.8084L40.6779 47.871L40.3587 47.4695C40.0835 47.1139 39.7508 46.8067 39.3742 46.5607C38.967 46.3107 38.5291 46.1144 38.0713 45.9769C37.5869 45.841 37.0908 45.7507 36.5895 45.7071C36.1456 45.6672 35.6992 45.6607 35.2543 45.6878C34.4904 46.1832 33.731 46.6924 32.9938 47.1969C28.7411 50.1021 24.3518 53.0983 16.8928 53.521C17.5839 54.9602 17.8866 56.8018 17.1696 58.973L17.0118 59.4527L16.509 59.5089C16.4841 59.5089 16.318 59.5282 16.0532 59.5282C15.267 59.5282 13.6191 59.3772 12.2591 58.2529C11.2441 57.4104 10.5982 56.2106 10.3436 54.683C10.302 54.683 10.2615 54.683 10.219 54.6757C10.1959 54.6757 10.1738 54.6665 10.1507 54.6637C9.91523 55.3679 9.4632 55.9801 8.85895 56.4132C7.83753 57.1498 6.50979 57.3229 5.48468 57.3229C4.95384 57.3247 4.42393 57.2788 3.90134 57.1857L3.1761 57.0412L3.27667 56.3101C3.62822 53.7475 4.55921 52.1066 5.51512 51.0615C4.76153 50.1899 4.13074 49.2196 3.64022 48.1776H3.6393ZM8.7021 54.0072C8.45286 53.7922 8.24359 53.535 8.0839 53.2475C7.75831 52.6871 7.53259 52.0746 7.41679 51.4372C6.56699 52.0615 5.46253 53.3064 4.96151 55.729C5.84267 55.7871 7.12154 55.718 7.93443 55.1296C8.31313 54.8557 8.58454 54.4589 8.7021 54.0072ZM4.34793 43.8563C4.08681 46.7108 5.82423 49.0616 6.68694 50.0339C7.02953 49.7996 7.39718 49.6042 7.7831 49.4511C7.87181 49.2999 7.97207 49.1559 8.08298 49.0201C6.92316 48.1914 5.19956 46.662 4.63949 44.5156C4.52692 44.2928 4.43282 44.0745 4.34793 43.8591V43.8563ZM6.02077 12.8061C5.86635 12.9781 5.72449 13.1609 5.59632 13.3531C5.46044 13.5604 5.33719 13.7756 5.22724 13.9976C4.78072 14.8953 4.57443 15.8929 4.62842 16.8936C4.6565 17.3976 4.73942 17.8972 4.8757 18.3834L4.9735 18.772L4.73823 19.086C4.42589 19.515 4.15816 19.9747 3.93917 20.458C3.71819 20.9396 3.55349 21.4451 3.4483 21.9644C3.35337 22.4611 3.33997 22.9698 3.40862 23.4708C3.4686 23.9634 3.66975 24.4146 3.89673 24.852L4.05173 25.1485L3.98254 25.4487C3.92295 25.7376 3.8942 26.0321 3.89673 26.3271C3.89812 26.6218 3.93687 26.9151 4.01207 27.2C4.08156 27.464 4.1978 27.7135 4.35531 27.9367C4.4974 28.1604 4.71055 28.3216 4.92461 28.4891L5.36104 28.8225L5.25585 29.3427C5.23848 29.4403 5.22861 29.5392 5.22632 29.6383C5.22459 29.7541 5.2317 29.8698 5.24755 29.9845C5.27756 30.2105 5.34919 30.4291 5.45884 30.6291C5.56877 30.832 5.71406 31.0138 5.88789 31.1659C6.07478 31.3321 6.28148 31.4747 6.50333 31.5904L7.20457 31.9872L6.89548 32.5112C6.75603 32.7831 6.65659 33.0737 6.6002 33.374C6.53571 33.6942 6.51862 34.0221 6.54947 34.3472C6.58055 34.6853 6.67739 35.014 6.83457 35.315C6.98405 35.6354 7.22672 35.9071 7.48968 36.1741C7.13497 36.0237 6.80834 35.8145 6.52363 35.5553C6.22137 35.2794 5.97515 34.948 5.79839 34.5793C5.63902 34.2454 5.52393 33.8922 5.45607 33.5287C5.19243 34.345 5.10969 35.2087 5.21356 36.0601C5.31743 36.9115 5.60545 37.7302 6.05766 38.4595L6.31972 38.9061L6.0106 39.3269C5.95525 39.4015 4.68747 41.1795 6.07981 43.8793L6.14532 44.0534C6.69894 46.3415 9.14223 47.8783 9.76873 48.2402C10.1499 48.2826 10.5129 48.4253 10.8206 48.6536C18.597 49.8507 27.095 42.8241 27.3995 41.4613V41.2468C27.3543 40.0635 26.8459 39.3591 26.8274 39.3324L26.5036 38.9089L26.7804 38.4485C27.9614 36.4927 27.7538 34.6732 27.3856 33.5056C27.318 33.8736 27.2016 34.2309 27.0396 34.5682C26.8632 34.937 26.6173 35.2683 26.3153 35.5443C26.0303 35.8036 25.7034 36.0128 25.3484 36.1631C25.6122 35.896 25.8549 35.6244 26.0044 35.3039C26.1617 35.0031 26.2583 34.6742 26.2886 34.3362C26.3203 34.0111 26.3032 33.683 26.2378 33.3629C26.1823 33.0624 26.0828 32.7717 25.9426 32.5001L25.6344 31.9762L26.3356 31.5793C26.5574 31.4634 26.764 31.3209 26.9511 31.1548C27.1249 31.0028 27.2702 30.821 27.3801 30.618C27.4898 30.418 27.5614 30.1995 27.5914 29.9735C27.6074 29.8588 27.6142 29.743 27.6117 29.6272C27.6096 29.5281 27.6001 29.4293 27.5831 29.3317L27.4779 28.8114L27.9134 28.4781C28.1275 28.3142 28.3416 28.153 28.4837 27.9256C28.6412 27.7024 28.7574 27.453 28.8269 27.189C28.9021 26.904 28.9408 26.6107 28.9422 26.3161C28.9449 26.021 28.9159 25.7265 28.8555 25.4376L28.7872 25.1374L28.9413 24.8409C29.1692 24.4045 29.3704 23.9533 29.4303 23.4597C29.499 22.9588 29.4856 22.45 29.3907 21.9533C29.2852 21.434 29.1202 20.9286 28.8989 20.4469C28.6805 19.9635 28.4131 19.5038 28.1007 19.0749L27.8654 18.7609L27.9632 18.3724C28.0995 17.8861 28.1824 17.3866 28.2105 16.8825C28.2633 15.8819 28.0571 14.8846 27.6117 13.9866C27.5014 13.7647 27.3782 13.5495 27.2426 13.342C27.1145 13.1498 26.9726 12.967 26.8182 12.7951L26.284 12.2242L26.8182 11.6855C28.2087 10.2813 29.494 8.73899 30.2395 7.01986C30.6086 6.1672 30.7931 5.27034 30.7064 4.42782C30.7064 4.21235 30.628 4.01253 30.5948 3.80443C30.5173 3.60831 30.473 3.40021 30.3669 3.21421C30.1796 2.82674 29.9331 2.47073 29.6361 2.15898C29.5189 2.01439 29.3805 1.88834 29.2255 1.78513C29.09 1.69613 28.9387 1.63363 28.7798 1.60097C28.7368 1.59343 28.6933 1.58821 28.6497 1.58532C28.5748 1.66656 28.5094 1.75617 28.455 1.85235C28.3228 2.11137 28.2467 2.39532 28.2318 2.68567C28.2206 2.85277 28.2206 3.02041 28.2318 3.1875C28.2419 3.39008 28.2428 3.59265 28.241 3.79523C28.2309 4.20016 28.1921 4.60387 28.1247 5.00331C27.9862 5.79498 27.7048 6.55498 27.2943 7.24637C26.8925 7.91601 26.3868 8.51773 25.7959 9.02904C26.2392 8.41627 26.6046 7.75098 26.8837 7.0484C27.138 6.3632 27.2849 5.64296 27.3192 4.91308C27.3319 4.55317 27.3186 4.19283 27.2795 3.83482C27.2574 3.65619 27.2334 3.47847 27.2002 3.30168C27.1627 3.0903 27.1417 2.87635 27.1374 2.66173C27.1374 2.63318 27.1374 2.6028 27.1374 2.56965C26.9418 3.01347 26.7391 3.45484 26.5294 3.89375C26.0841 4.84111 25.5914 5.76553 25.0531 6.66351C24.7717 7.12539 24.4658 7.57199 24.1369 8.00142C24.063 8.0935 23.9865 8.18558 23.908 8.27766C23.9792 8.48603 24.0232 8.70266 24.039 8.92222C24.0654 9.3874 24.0028 9.85333 23.8545 10.2951C23.7188 10.7472 23.4928 11.1672 23.1902 11.5299C22.8676 11.8927 22.4696 12.1809 22.0239 12.3743C21.6061 12.5475 21.1624 12.6505 20.7109 12.6791C20.4673 12.6947 20.2229 12.6947 19.9792 12.6791C19.7837 12.9976 19.5397 13.2837 19.2558 13.5271C18.9933 13.7396 18.6824 13.8844 18.3507 13.9488C18.0364 14.0024 17.7138 13.9777 17.4114 13.877C16.8494 13.6929 16.4333 13.3522 16.0652 12.9995C15.708 12.6471 15.3897 12.2575 15.1157 11.8375C15.4796 12.1617 15.877 12.4463 16.3014 12.6864C16.7157 12.9166 17.1659 13.0925 17.5673 13.1082C17.736 13.123 17.9055 13.0915 18.0575 13.0172C18.2096 12.9429 18.3384 12.8285 18.43 12.6864C18.6308 12.3498 18.7626 11.9767 18.8175 11.5888L19.015 10.9443L19.7282 11.0714C20.0117 11.116 20.2996 11.1259 20.5854 11.1008C20.8606 11.0811 21.1306 11.0161 21.3845 10.9084C21.605 10.8071 21.803 10.6628 21.9667 10.4839C22.1264 10.2853 22.2444 10.0567 22.3136 9.81171C22.3976 9.56472 22.4351 9.30437 22.4243 9.04377C22.4157 8.84274 22.3441 8.64949 22.2195 8.49129C22.0054 8.21505 21.5183 8.0576 21.0145 8.16533C20.7583 8.21135 20.5139 8.30809 20.2957 8.44985L20.1684 8.52628C19.997 8.63129 19.8026 8.69305 19.602 8.70621C19.4013 8.71936 19.2005 8.68352 19.0169 8.60179C18.7493 8.48418 18.5345 8.27245 18.4134 8.00695C18.3566 7.88203 18.321 7.74853 18.3082 7.61193L18.2944 7.50788C18.2575 7.23164 18.1634 7.00697 18.0683 6.90384C17.9733 6.80071 17.9253 6.79058 17.7417 6.75651C17.3348 6.72152 16.8541 6.82281 16.3577 7.17823C15.852 7.51893 15.3482 8.01616 14.7891 8.58245C14.7631 8.30618 14.7721 8.02776 14.8158 7.75373L14.7522 7.79977C14.6922 7.76478 14.5492 7.646 14.4412 7.58062C14.3289 7.50705 14.2092 7.44533 14.0841 7.39646C13.8542 7.30014 13.605 7.25852 13.3561 7.27492C12.8477 7.28689 12.2351 7.5843 11.6529 7.98393C11.0653 8.40477 10.5602 8.92974 10.1627 9.53271C9.7373 10.1903 9.42165 10.9123 9.22803 11.6708C9.02872 10.8651 9.09148 9.99403 9.32768 9.15794C9.36182 9.04561 9.40887 8.93603 9.44947 8.82462C9.1784 8.57082 8.92701 8.29686 8.69748 8.00511C8.36911 7.57544 8.06359 7.12885 7.78218 6.66719C7.22856 5.76113 6.74968 4.83389 6.30033 3.89744C6.2542 3.79891 6.20807 3.69947 6.1647 3.60186C6.15363 3.67921 6.13979 3.75655 6.13056 3.8339C6.09118 4.19188 6.07761 4.55223 6.08997 4.91216C6.1246 5.64209 6.2718 6.36232 6.5264 7.04748C6.80521 7.75002 7.1703 8.41532 7.61332 9.02811C7.02241 8.51681 6.51663 7.91509 6.11487 7.24545C5.70471 6.55389 5.42337 5.79396 5.28445 5.00239C5.21664 4.60301 5.17779 4.19927 5.16819 3.79431C5.16819 3.59173 5.1682 3.38916 5.17743 3.18658C5.18853 3.01949 5.18853 2.85184 5.17743 2.68475C5.16162 2.39454 5.08559 2.11077 4.95413 1.85143C4.91671 1.78304 4.87251 1.71856 4.82218 1.65898C4.57646 1.56692 4.30958 1.54648 4.05266 1.60005C3.89376 1.63271 3.74253 1.69521 3.607 1.78421C3.45201 1.88742 3.31357 2.01347 3.1964 2.15805C2.89985 2.47434 2.65482 2.83506 2.47025 3.2271C2.36321 3.41126 2.31985 3.6212 2.24234 3.81733C2.20821 4.02543 2.13347 4.22524 2.1307 4.44071C2.03843 5.28508 2.23127 6.18009 2.59758 7.03275C3.33573 8.74727 4.6275 10.2942 6.01892 11.6984L6.55315 12.2371L6.02077 12.8061Z" fill="#3A2033"/>
<path d="M16.4166 19.821C17.4768 19.821 23.1993 21.0328 24.7956 26.7914C25.2413 28.3954 25.0456 29.9921 24.242 31.2877C23.0351 33.2425 20.697 35.5721 16.4129 35.5721C12.1289 35.5721 9.79173 33.2425 8.58485 31.2877C7.78488 29.993 7.58927 28.3964 8.03123 26.7914C9.63487 21.0328 15.3565 19.821 16.4166 19.821ZM9.48079 30.7389C10.5483 32.4663 12.6179 34.5261 16.4166 34.5261C20.2154 34.5261 22.2859 32.4663 23.3525 30.7389C23.9984 29.6938 24.1516 28.3908 23.7852 27.0704C22.3828 22.0116 17.295 20.8679 16.4166 20.8679C15.5382 20.8679 10.4515 22.0116 9.04896 27.0704C8.68173 28.3918 8.83583 29.6984 9.48079 30.7389Z" fill="#3A2033"/>
<path d="M12.5331 28.5262C13.0747 28.7858 13.7492 28.7453 14.2567 28.5262C14.7642 28.307 15.0991 27.8669 15.3085 27.2969C15.4468 26.9178 15.5398 26.5237 15.5854 26.1229C15.3502 26.0569 15.1252 25.9593 14.9164 25.8328C14.4661 25.5492 14.0565 25.075 14.0629 24.5069C14.5778 24.6634 14.9616 24.6616 15.3316 24.6754H16.4213H17.511C17.8801 24.6607 18.2639 24.6644 18.7806 24.5087C18.7889 25.0778 18.3783 25.5538 17.9271 25.8374C17.7181 25.9632 17.4931 26.0605 17.2582 26.1266C17.3043 26.5268 17.3972 26.9202 17.535 27.2988C17.7444 27.8687 18.0886 28.3116 18.5859 28.528C19.0833 28.7444 19.7688 28.784 20.3105 28.528C20.8521 28.272 21.2987 27.7564 21.8181 27.1754C21.8873 27.9718 21.4426 28.7601 20.7294 29.2379C20.6115 29.3155 20.4882 29.3845 20.3603 29.4442C20.3455 29.9193 20.2154 30.8751 19.4782 31.6725C18.7806 32.4257 17.7537 32.8088 16.4268 32.8088C15.1 32.8088 14.0731 32.4257 13.3764 31.6725C12.6383 30.8751 12.5091 29.923 12.4943 29.4442C12.3663 29.3848 12.2429 29.3159 12.1253 29.2379C11.412 28.7601 10.9673 27.9718 11.0365 27.1754C11.5449 27.7545 11.9786 28.2555 12.5331 28.5262ZM14.5307 30.6191C14.9192 31.0307 15.554 31.2398 16.4167 31.2398C17.2794 31.2398 17.9142 31.0307 18.3027 30.6191C18.53 30.3674 18.681 30.0564 18.7382 29.7223C18.5576 29.7078 18.3784 29.6798 18.2021 29.6385C17.427 29.446 16.8116 28.8595 16.4167 28.2288C16.0227 28.8595 15.4073 29.446 14.6313 29.6385C14.4553 29.6799 14.2764 29.7079 14.0961 29.7223C14.1529 30.0563 14.3037 30.3673 14.5307 30.6191Z" fill="#3A2033"/>
<path d="M10.4638 14.4214C11.0193 14.4214 11.5623 14.5858 12.0242 14.8938C12.4861 15.2018 12.8461 15.6396 13.0587 16.1517C13.2712 16.6639 13.3269 17.2275 13.2185 17.7712C13.1101 18.3149 12.8426 18.8143 12.4498 19.2063C12.057 19.5983 11.5566 19.8652 11.0117 19.9734C10.4669 20.0815 9.90218 20.026 9.38897 19.8139C8.87575 19.6017 8.43709 19.2425 8.12847 18.7816C7.81985 18.3206 7.65513 17.7787 7.65513 17.2244C7.65501 16.8562 7.72757 16.4917 7.86868 16.1516C8.00979 15.8115 8.21666 15.5024 8.4775 15.2421C8.73833 14.9818 9.048 14.7754 9.38882 14.6346C9.72964 14.4937 10.0949 14.4213 10.4638 14.4214ZM12.0619 18.6801C12.1674 18.6803 12.2706 18.6493 12.3584 18.5909C12.4463 18.5325 12.5148 18.4495 12.5553 18.3522C12.5958 18.255 12.6065 18.1479 12.586 18.0446C12.5655 17.9413 12.5148 17.8464 12.4403 17.7719C12.3657 17.6974 12.2707 17.6466 12.1672 17.626C12.0637 17.6054 11.9564 17.6159 11.8589 17.6561C11.7614 17.6964 11.6781 17.7646 11.6195 17.8521C11.5608 17.9397 11.5295 18.0426 11.5295 18.1479C11.5295 18.2889 11.5856 18.4241 11.6854 18.5239C11.7852 18.6237 11.9206 18.6799 12.0619 18.6801ZM9.55494 18.4776C9.83458 18.477 10.1078 18.3938 10.34 18.2383C10.5723 18.0829 10.7532 17.8622 10.8598 17.6042C10.9664 17.3463 10.994 17.0625 10.9391 16.7889C10.8843 16.5153 10.7493 16.264 10.5514 16.0669C10.3535 15.8697 10.1014 15.7356 9.82711 15.6813C9.5528 15.6271 9.26854 15.6552 9.01024 15.7621C8.75194 15.869 8.53119 16.05 8.37589 16.282C8.22059 16.5141 8.13769 16.7869 8.13769 17.066C8.13769 17.2516 8.17437 17.4354 8.24563 17.6068C8.31689 17.7782 8.42132 17.934 8.55296 18.0651C8.6846 18.1962 8.84086 18.3001 9.0128 18.3709C9.18473 18.4417 9.36896 18.4779 9.55494 18.4776Z" fill="#3A2033"/>
</svg>
