<svg width="120" height="28" viewBox="0 0 120 28" fill="none" xmlns="http://www.w3.org/2000/svg">
  <path fill-rule="evenodd" clip-rule="evenodd" d="M22.1727 26.6104C19.3259 25.1735 2.07067 28.2892 0.74527 27.978C-0.392186 27.4895 -0.0897426 17.0685 0.732207 15.4534C1.0253 14.8799 1.42327 14.757 2.40115 14.9205C3.38031 15.1333 14.3755 13.8711 23.293 12.9427C23.5699 13.2507 24.2746 12.1278 24.441 12.5113C24.6938 12.9521 32.6738 12.4472 40.937 12.0125C44.743 11.813 49.838 11.4633 59.0962 11.2168C60.7248 11.1738 59.4045 11.8071 61.3325 11.5736C65.4423 11.0742 74.2816 11.7395 77.4059 11.2762C79.9246 10.9024 80.4563 10.8897 82.7793 11.351C84.6307 11.7187 97.996 11.9823 99.6109 11.3763C100.003 11.201 100.264 11.2914 100.226 11.5232C100.226 11.5232 109.178 12.4124 109.191 12.6057C109.207 12.8424 109.463 12.9708 109.75 12.8351C110.262 12.5946 119.998 12.645 120 13.3333C120.005 15.2895 116.819 23.2937 115.333 25.1801C113.754 27.1789 108.416 24.244 103.212 25.1395C78.049 23.4499 79.8671 24.0344 75.685 24.5715C75.1969 23.8573 72.9177 25.5133 71.714 24.271C71.2229 23.7627 67.3487 23.6112 66.455 24.1127C66.2626 24.2055 64.8857 24.211 62.8946 24.173C60.7053 24.1333 45.6143 23.6982 43.849 24.9632C39.9541 23.8415 26.3084 26.0044 22.1727 26.6104Z" fill="#F1FF54"/>
  <path fill-rule="evenodd" clip-rule="evenodd" d="M26.0661 15.7371C23.0809 14.1409 7.61364 17.3627 6.07257 16.9658C4.9188 16.4489 3.57574 5.61653 4.12811 3.94175C4.32387 3.34735 4.68799 3.22209 5.65534 3.39897C6.65016 3.63165 15.7372 2.52718 25.4721 1.49116C25.7741 1.81466 26.32 0.647868 26.5253 1.04958C26.8194 1.51208 34.4178 1.05075 42.2974 0.670861C50.0833 0.294916 57.6691 0.0478304 59.6283 0.0107797C61.1864 -0.0180423 59.963 0.631373 61.7929 0.405832C65.6979 -0.0755455 74.1976 0.710064 77.1628 0.260625C79.5607 -0.103572 80.0708 -0.110822 82.314 0.396953C84.0376 0.787863 96.8868 1.2316 98.444 0.612685C98.8152 0.434303 99.0677 0.532217 99.0333 0.773733C99.0178 0.893522 107.619 1.69128 107.637 2.01073C107.649 2.25761 107.894 2.39605 108.171 2.25722C108.659 2.01307 118.009 2.18714 118 2.90566C117.97 4.94271 114.778 13.2428 113.348 15.1903C111.826 17.2583 106.847 14.1379 101.944 15.0164C93.4976 14.293 91.7593 14.1362 80.7086 13.5262L76.0942 14.1374C75.6035 13.3879 73.5446 15.0981 72.356 13.7841C71.8716 13.2497 68.2203 13.0503 67.4094 13.5652C67.2352 13.6597 65.9435 13.6519 64.0734 13.5925C61.555 13.514 47.795 12.9286 46.2546 14.2274C42.4924 13.0177 29.9294 15.1374 26.0661 15.7371Z" fill="#F1FF54"/>
</svg>
