<svg width="126" height="49" viewBox="0 0 126 49" fill="none" xmlns="http://www.w3.org/2000/svg">
<g filter="url(#filter0_d_0_5365)">
<path fill-rule="evenodd" clip-rule="evenodd" d="M61.2634 22.7948V27.1329C61.2634 27.3297 61.0923 27.4722 60.9241 27.4722C60.7274 27.4722 60.5848 27.324 60.5848 27.1329V22.8091C60.5848 21.3464 59.7579 19.8837 58.1242 19.8837C56.0314 19.8837 55.1275 21.7128 55.2487 23.5874C55.2487 23.6172 55.2568 23.7068 55.2634 23.7791L55.2634 23.7792C55.2678 23.8281 55.2715 23.8691 55.2715 23.8783V27.1344C55.2715 27.2997 55.1603 27.4523 54.9864 27.4794C54.7583 27.515 54.5801 27.3582 54.5801 27.1444V12.8953C54.5801 12.7243 54.7284 12.556 54.9194 12.556C55.1104 12.556 55.2587 12.7271 55.2587 12.8953V20.96C55.8289 19.9136 56.891 19.2065 58.1071 19.2065C60.1058 19.2065 61.252 20.96 61.252 22.8133L61.2634 22.7948ZM50.4829 19.6727C50.4829 19.5045 50.3403 19.3334 50.1436 19.3334L48.3316 19.3277V16.6974C48.3316 16.4836 48.1534 16.3268 47.9253 16.3624C47.7514 16.3895 47.6402 16.5421 47.6402 16.7074V19.3334H45.8867C45.6957 19.3334 45.5474 19.5016 45.5474 19.6727C45.5474 19.8637 45.69 20.012 45.8867 20.012H47.6402V27.1729C47.6402 27.3411 47.7885 27.5122 47.9795 27.5122C48.1705 27.5122 48.3188 27.3439 48.3188 27.1729V20.012H50.1436C50.3346 20.012 50.4829 19.8694 50.4829 19.6727ZM41.865 23.3907C41.865 23.5832 41.7039 23.74 41.5115 23.74H34.7042C34.8752 25.4222 36.1398 26.9562 37.9204 26.9562C39.0416 27.0054 40.1058 26.4598 40.7203 25.5206C40.8201 25.3866 40.9669 25.301 41.1537 25.3823C41.2554 25.4266 41.3278 25.5194 41.3461 25.6289C41.3636 25.734 41.3353 25.7958 41.3081 25.8552L41.3033 25.8656C40.6191 27.0602 39.2547 27.6476 37.9175 27.6476C35.628 27.6476 33.9971 25.599 33.9971 23.4078C33.9971 21.2166 35.6294 19.168 37.9175 19.168C40.2056 19.168 41.8622 21.2067 41.8665 23.395L41.865 23.3907ZM41.1537 23.0642C41.0054 21.382 39.7181 19.8481 37.9375 19.8481C36.1569 19.8481 34.8909 21.382 34.7213 23.0642H41.1537ZM73.1045 23.7614C73.297 23.7614 73.4581 23.6046 73.4581 23.4121L73.4595 23.4164C73.4552 21.2281 71.7944 19.1894 69.5063 19.1894C67.2182 19.1894 65.5858 21.238 65.5858 23.4292C65.5858 25.6204 67.2168 27.669 69.5063 27.669C70.8435 27.669 72.2078 27.0816 72.8921 25.887L72.8969 25.8766C72.9241 25.8172 72.9524 25.7554 72.9349 25.6503C72.9166 25.5408 72.8442 25.448 72.7424 25.4037C72.5557 25.3224 72.4088 25.408 72.309 25.542C71.6946 26.4812 70.6304 27.0268 69.5091 26.9776C67.7285 26.9776 66.464 25.4436 66.293 23.7614H73.1045ZM72.7253 23.0856C72.5771 21.4034 71.2897 19.8694 69.5091 19.8694C67.7285 19.8694 66.4626 21.4034 66.293 23.0856H72.7253ZM81.5114 20.0391C81.7081 20.012 81.8293 19.8922 81.8293 19.6727L81.8279 19.6699C81.8279 19.4774 81.6326 19.3519 81.4615 19.3562C80.2953 19.3562 79.172 20.2615 78.6131 21.2095V19.6984C78.6131 19.4845 78.4349 19.3277 78.2068 19.3633C78.0329 19.3904 77.9217 19.543 77.9217 19.7083V27.1287C77.9217 27.3425 78.0999 27.4993 78.328 27.4637C78.5019 27.4366 78.6131 27.2841 78.6131 27.1187V23.8626C78.6131 21.9637 79.5127 20.3299 81.5114 20.0391ZM93.009 23.4135C93.009 23.606 92.8479 23.7628 92.6554 23.7628H85.8481C86.0192 25.445 87.2837 26.979 89.0643 26.979C90.1856 27.0282 91.2498 26.4826 91.8642 25.5434C91.964 25.4094 92.1108 25.3238 92.2976 25.4051C92.3994 25.4494 92.4718 25.5422 92.4901 25.6517C92.5076 25.7568 92.4792 25.8186 92.452 25.878L92.4473 25.8884C91.763 27.0831 90.3987 27.6704 89.0615 27.6704C86.7719 27.6704 85.141 25.6218 85.141 23.4306C85.141 21.2395 86.7733 19.1908 89.0615 19.1908C91.3496 19.1908 93.0061 21.2295 93.0104 23.4178L93.009 23.4135ZM89.0814 19.8709C90.862 19.8709 92.1493 21.4048 92.2976 23.0871H85.8652C86.0349 21.4048 87.3008 19.8709 89.0814 19.8709ZM104.016 19.7597V27.1971C104.016 27.3938 103.845 27.5364 103.677 27.5364C103.48 27.5364 103.338 27.3881 103.338 27.1971V25.7715C102.779 26.8934 101.777 27.6961 100.511 27.6961C98.489 27.6961 97.3657 25.9426 97.3657 24.0893V19.7269C97.3657 19.5558 97.5139 19.3876 97.705 19.3876C97.896 19.3876 98.0443 19.5587 98.0443 19.7269V24.0893C98.0443 25.5519 98.8711 27.0146 100.505 27.0146C102.794 27.0146 103.332 24.8719 103.332 22.5068V19.7155C103.332 19.5187 103.529 19.3163 103.77 19.3876C103.918 19.4375 104.016 19.58 104.016 19.7326V19.7597ZM121.238 27.1272V22.7649L121.25 22.7392C121.25 20.8859 120.104 19.1752 118.105 19.1752C116.691 19.1752 115.596 20.079 115.038 21.345C114.6 20.0519 113.526 19.1752 112.139 19.1752C110.923 19.1752 109.861 19.8595 109.291 20.9059V19.6627C109.291 19.4489 109.113 19.2921 108.885 19.3277C108.711 19.3548 108.6 19.5073 108.6 19.6727V27.1287C108.6 27.3425 108.778 27.4993 109.006 27.4637C109.173 27.4366 109.284 27.2841 109.284 27.1187V23.8398C109.299 23.8242 109.294 23.7736 109.289 23.7272C109.286 23.7054 109.284 23.6846 109.284 23.6687C109.207 21.4989 110.061 19.8666 112.132 19.8666C113.766 19.8666 114.593 21.3022 114.593 22.7649V27.1272C114.593 27.3183 114.735 27.4665 114.932 27.4665C115.1 27.4665 115.271 27.324 115.271 27.1272V23.7628C115.271 22.0578 116.05 19.8666 118.098 19.8666C119.732 19.8666 120.559 21.3022 120.559 22.7649V27.1272C120.559 27.3183 120.702 27.4665 120.898 27.4665C121.067 27.4665 121.238 27.324 121.238 27.1272Z" fill="#3C3C3B"/>
<g opacity="0.6">
<mask id="mask0_0_5365" style="mask-type:alpha" maskUnits="userSpaceOnUse" x="4" y="14" width="25" height="14">
<path fill-rule="evenodd" clip-rule="evenodd" d="M4.18311 14.8733H28.8497V27.7715H4.18311V14.8733Z" fill="white"/>
</mask>
<g mask="url(#mask0_0_5365)">
<path d="M16.5188 14.8733L4.18311 20.4836L16.5188 27.7715L28.8497 20.4836L16.5188 14.8733Z" fill="#010101"/>
</g>
</g>
<g opacity="0.45">
<mask id="mask1_0_5365" style="mask-type:alpha" maskUnits="userSpaceOnUse" x="4" y="0" width="13" height="28">
<path fill-rule="evenodd" clip-rule="evenodd" d="M4.18311 0.016161H16.5188V27.7715H4.18311V0.016161Z" fill="white"/>
</mask>
<g mask="url(#mask1_0_5365)">
<path d="M4.18311 20.4836L16.5188 27.7715V0.016161L4.18311 20.4836Z" fill="#010101"/>
</g>
</g>
<g opacity="0.8">
<mask id="mask2_0_5365" style="mask-type:alpha" maskUnits="userSpaceOnUse" x="16" y="0" width="13" height="28">
<path fill-rule="evenodd" clip-rule="evenodd" d="M16.5188 0.016161H28.8545V27.7715H16.5188V0.016161Z" fill="white"/>
</mask>
<g mask="url(#mask2_0_5365)">
<path d="M16.5188 0.016161V27.7715L28.8497 20.4836L16.5188 0.016161Z" fill="#010101"/>
</g>
</g>
<g opacity="0.45">
<mask id="mask3_0_5365" style="mask-type:alpha" maskUnits="userSpaceOnUse" x="4" y="22" width="13" height="19">
<path fill-rule="evenodd" clip-rule="evenodd" d="M4.18311 22.8207H16.5188V40.1994H4.18311V22.8207Z" fill="white"/>
</mask>
<g mask="url(#mask3_0_5365)">
<path d="M4.18311 22.8207L16.5188 40.1994V30.1087L4.18311 22.8207Z" fill="#010101"/>
</g>
</g>
<g opacity="0.8">
<mask id="mask4_0_5365" style="mask-type:alpha" maskUnits="userSpaceOnUse" x="16" y="22" width="13" height="19">
<path fill-rule="evenodd" clip-rule="evenodd" d="M16.5188 22.8207H28.8594V40.1994H16.5188V22.8207Z" fill="white"/>
</mask>
<g mask="url(#mask4_0_5365)">
<path d="M16.5188 30.1087V40.1994L28.8594 22.8207L16.5188 30.1087Z" fill="#010101"/>
</g>
</g>
</g>
<defs>
<filter id="filter0_d_0_5365" x="0.183105" y="0.016161" width="125.067" height="48.1832" filterUnits="userSpaceOnUse" color-interpolation-filters="sRGB">
<feFlood flood-opacity="0" result="BackgroundImageFix"/>
<feColorMatrix in="SourceAlpha" type="matrix" values="0 0 0 0 0 0 0 0 0 0 0 0 0 0 0 0 0 0 127 0" result="hardAlpha"/>
<feOffset dy="4"/>
<feGaussianBlur stdDeviation="2"/>
<feComposite in2="hardAlpha" operator="out"/>
<feColorMatrix type="matrix" values="0 0 0 0 0 0 0 0 0 0 0 0 0 0 0 0 0 0 0.25 0"/>
<feBlend mode="normal" in2="BackgroundImageFix" result="effect1_dropShadow_0_5365"/>
<feBlend mode="normal" in="SourceGraphic" in2="effect1_dropShadow_0_5365" result="shape"/>
</filter>
</defs>
</svg>
