<svg width="202" height="53" viewBox="0 0 202 53" fill="none" xmlns="http://www.w3.org/2000/svg">
<rect x="0.529297" y="12.4092" width="198.536" height="40" transform="rotate(-3.58354 0.529297 12.4092)" fill="#BF0808"/>
<path d="M26.6746 40.0448L34.7691 39.5117C35.9365 39.4348 36.4939 38.7988 36.4239 37.7351L36.4171 37.6313C36.347 36.5676 35.7144 36.0621 34.5469 36.139L28.2685 36.5525L27.4928 24.7741C27.4159 23.6066 26.8334 23.0717 25.7179 23.1452L25.173 23.1811C24.1353 23.2494 23.6021 23.8578 23.679 25.0252L24.5385 38.075C24.6274 39.424 25.4293 40.1269 26.6746 40.0448ZM37.2366 22.7252C37.3135 23.8927 38.1656 24.5662 39.4109 24.4841C40.7081 24.3987 41.4126 23.6227 41.3357 22.4553C41.2588 21.2878 40.4327 20.6126 39.1614 20.6963C37.8902 20.7801 37.1597 21.5578 37.2366 22.7252ZM38.4267 37.6292C38.5156 38.9783 39.2157 39.3231 40.2016 39.2581L40.5648 39.2342C41.5247 39.171 42.1719 38.7114 42.0848 37.3883L41.4662 27.9967C41.3774 26.6476 40.6755 26.2769 39.7156 26.3401L39.3264 26.3658C38.3924 26.4273 37.721 26.9145 37.8081 28.2376L38.4267 37.6292ZM59.9396 24.8517C57.8382 24.9902 56.6162 26.2171 55.8557 27.7264C55.1288 26.1848 53.7391 25.2601 51.6376 25.3986C49.7956 25.5199 48.6395 26.5601 47.8671 27.8877C47.4706 26.2202 46.4591 25.896 45.5511 25.9558C44.8247 26.0036 44.1949 26.3317 44.2034 26.4614L44.9108 37.2022C44.9997 38.5512 45.6999 38.896 46.6857 38.831L47.0749 38.8054C48.0089 38.7439 48.6561 38.2844 48.5689 36.9612L48.128 30.2677C48.5871 29.3255 49.4784 28.6154 50.5161 28.5471C51.969 28.4514 52.7535 29.2856 52.868 31.0239L53.2388 36.6537C53.3276 38.0027 54.0538 38.3458 55.0137 38.2825L55.4028 38.2569C56.3368 38.1954 56.984 37.7359 56.8969 36.4127L56.456 29.7192C56.9151 28.777 57.8063 28.0669 58.8441 27.9986C60.3229 27.9012 61.1074 28.7354 61.2168 30.3958L61.5927 36.1034C61.6815 37.4525 62.3817 37.7972 63.3676 37.7323L63.7567 37.7067C64.6907 37.6452 65.3379 37.1856 65.2508 35.8625L64.8372 29.5841C64.6407 26.6006 63.1567 24.6399 59.9396 24.8517ZM66.7527 20.7812C66.8296 21.9486 67.6817 22.6221 68.927 22.5401C70.2242 22.4546 70.9288 21.6787 70.8519 20.5112C70.775 19.3437 69.9488 18.6686 68.6776 18.7523C67.4063 18.836 66.6759 19.6137 66.7527 20.7812ZM67.9428 35.6852C68.0317 37.0343 68.7319 37.379 69.7177 37.3141L70.0809 37.2901C71.0409 37.2269 71.6881 36.7674 71.6009 35.4442L70.9823 26.0526C70.8935 24.7035 70.1916 24.3328 69.2317 24.3961L68.8425 24.4217C67.9085 24.4832 67.2371 24.9704 67.3243 26.2935L67.9428 35.6852ZM79.7473 36.914C80.9667 36.8337 81.8767 36.409 82.4099 35.8006C82.7993 35.3841 82.9761 34.9035 82.9403 34.3587C82.877 33.3987 82.0645 32.9311 81.9382 32.9916C81.6334 33.5067 81.1385 33.9041 80.4121 33.9519C79.4002 34.0186 78.9701 33.4216 78.8881 32.1763L78.5326 26.7799L80.7638 26.633C81.8016 26.5646 82.2378 26.0669 82.1797 25.1848L82.1643 24.9513C82.1096 24.1211 81.6395 23.7091 80.6018 23.7775L78.3966 23.9227L78.2906 22.3142C78.2018 20.9651 77.5258 20.5927 76.5659 20.656L76.2286 20.6782C75.1909 20.7465 74.6318 21.3566 74.7104 22.55L74.8163 24.1585L74.1418 24.203C73.13 24.2696 72.6954 24.7933 72.7518 25.6494L72.7655 25.857C72.8202 26.6872 73.3179 27.1234 74.3557 27.0551L75.0043 27.0123L75.387 32.8237C75.5767 35.7035 76.9713 37.0969 79.7473 36.914ZM83.6862 30.0363C83.9511 34.0576 86.8184 36.4483 90.9435 36.1766C92.7076 36.0604 94.0311 35.5824 94.9275 34.9501C95.7996 34.3455 96.2447 33.5866 96.1986 32.8861C96.1029 31.4333 94.3284 31.3938 94.3059 31.4474C93.8018 32.4968 92.7668 33.3988 90.8729 33.5235C89.005 33.6465 87.5599 32.6734 87.0614 31.0386L86.9562 30.6287L95.7252 30.0511C96.3998 30.0067 96.5591 29.6574 96.5441 29.0331L96.5287 28.7996C96.2843 25.0896 93.5693 22.6368 89.8074 22.8845C85.9937 23.1357 83.4316 26.1707 83.6862 30.0363ZM93.103 28.2175L86.8765 28.6276C86.9938 26.848 88.209 25.5173 89.9472 25.4028C91.6855 25.2883 92.8779 26.3823 93.103 28.2175ZM104.196 35.3038C106.064 35.1807 107.403 34.1545 108.162 32.6193C108.182 32.9306 108.227 33.2143 108.272 33.498C108.466 34.4753 109.108 34.7196 109.938 34.665L110.301 34.641C111.261 34.5778 111.882 34.12 111.795 32.7969L110.908 19.332C110.753 16.9712 109.522 16.479 108.432 16.5508C107.706 16.5986 107.078 16.9527 107.085 17.0564L107.519 23.6462C106.72 22.6044 105.213 21.8699 103.397 21.9895C99.8945 22.2201 97.6802 24.9977 97.9451 29.019C98.2065 32.9884 100.771 35.5293 104.196 35.3038ZM107.902 29.0667C108.021 30.8828 106.649 32.1978 104.911 32.3123C103.017 32.437 101.567 30.9952 101.422 28.79C101.271 26.5069 102.5 24.9929 104.472 24.863C106.029 24.7605 107.118 25.4705 107.745 26.6799L107.902 29.0667ZM118.009 27.6714C118.272 31.6667 121.148 34.1872 125.17 33.9223C129.191 33.6575 131.763 30.7782 131.503 26.8347C131.244 22.8913 128.34 20.3466 124.345 20.6097C120.324 20.8746 117.753 23.7798 118.009 27.6714ZM128.261 27.0483C128.402 29.2017 127.029 30.9076 125.006 31.0409C122.956 31.1758 121.372 29.6647 121.226 27.4595C121.083 25.2802 122.457 23.6003 124.507 23.4653C126.556 23.3303 128.114 24.8172 128.261 27.0483ZM135.213 31.2545C135.3 32.5776 136.054 32.9449 136.988 32.8833L137.377 32.8577C138.337 32.7945 138.96 32.3626 138.871 31.0135L138.333 22.8412L139.838 22.7421C140.901 22.6721 141.339 22.2003 141.283 21.3441L141.269 21.1366C141.211 20.2545 140.713 19.8183 139.65 19.8883L138.015 19.996L137.971 19.3214C137.875 17.8686 138.329 17.2394 139.392 17.1693C140.119 17.1215 140.79 17.4161 141.175 17.7294C141.232 17.8038 141.914 17.0814 141.856 16.1993C141.823 15.7064 141.585 15.2531 141.094 14.9206C140.55 14.5657 139.701 14.335 138.507 14.4136C135.887 14.5861 134.238 16.0497 134.468 19.5521L134.513 20.2267L133.475 20.295C132.411 20.3651 131.973 20.8369 132.028 21.6671L132.043 21.9006C132.102 22.7827 132.599 23.2189 133.663 23.1488L134.675 23.0822L135.213 31.2545ZM145.098 30.6034C145.185 31.9266 145.939 32.2938 146.873 32.2323L147.262 32.2067C148.222 32.1435 148.845 31.7116 148.756 30.3625L148.217 22.1902L149.722 22.0911C150.786 22.021 151.224 21.5492 151.167 20.6931L151.154 20.4855C151.096 19.6034 150.598 19.1672 149.534 19.2373L147.9 19.3449L147.855 18.6704C147.76 17.2175 148.213 16.5884 149.277 16.5183C150.003 16.4705 150.674 16.765 151.06 17.0784C151.117 17.1528 151.799 16.4304 151.741 15.5483C151.708 15.0554 151.47 14.602 150.979 14.2696C150.434 13.9146 149.585 13.6839 148.392 13.7625C145.772 13.9351 144.122 15.3987 144.353 18.9011L144.397 19.5756L143.36 19.644C142.296 19.714 141.858 20.1858 141.913 21.016L141.928 21.2495C141.986 22.1316 142.484 22.5678 143.548 22.4978L144.559 22.4311L145.098 30.6034ZM152.067 25.5324C152.332 29.5537 155.2 31.9444 159.325 31.6727C161.089 31.5565 162.412 31.0785 163.309 30.4462C164.181 29.8416 164.626 29.0827 164.58 28.3822C164.484 26.9294 162.71 26.8899 162.687 26.9435C162.183 27.9929 161.148 28.8949 159.254 29.0196C157.386 29.1427 155.941 28.1695 155.443 26.5348L155.337 26.1248L164.106 25.5472C164.781 25.5028 164.94 25.1536 164.925 24.5292L164.91 24.2957C164.665 20.5857 161.95 18.1329 158.189 18.3806C154.375 18.6318 151.813 21.6668 152.067 25.5324ZM161.484 23.7136L155.258 24.1237C155.375 22.3441 156.59 21.0134 158.328 20.8989C160.067 20.7844 161.259 21.8784 161.484 23.7136ZM173.231 17.3899C171.648 17.4941 170.644 18.4722 170.251 20.0094C170.176 19.6756 170.104 19.3677 170.011 19.1393C169.526 18.1029 168.675 17.8463 167.923 17.8959C167.17 17.9454 166.566 18.2718 166.575 18.4015L167.282 29.1422C167.371 30.4913 168.071 30.8361 169.057 30.7711L169.446 30.7455C170.38 30.684 171.028 30.2244 170.94 28.9013L170.691 25.1135C170.524 22.571 171.199 20.9631 172.964 20.8469C173.664 20.8008 174.254 21.0486 174.665 21.3602C174.72 21.4087 175.802 20.8163 175.706 19.3635C175.621 18.0663 174.684 17.2942 173.231 17.3899ZM179.736 24.7262L180.125 24.7006C180.67 24.6647 180.878 24.2602 180.982 23.4716L181.471 15.0753C181.687 13.6019 180.852 12.7971 179.477 12.8876L178.803 12.9321C177.506 13.0175 176.784 13.9249 177.165 15.359L178.751 23.6186C178.984 24.3849 179.243 24.7587 179.736 24.7262ZM180.067 30.1502L180.508 30.1211C181.702 30.0425 182.233 29.4082 182.158 28.2667L182.134 27.9035C182.059 26.762 181.449 26.2029 180.255 26.2815L179.814 26.3105C178.673 26.3857 178.115 27.0217 178.19 28.1632L178.214 28.5264C178.29 29.668 178.926 30.2254 180.067 30.1502Z" fill="white"/>
</svg>
