<svg width="500" height="93" viewBox="0 0 620 93" fill="none" xmlns="http://www.w3.org/2000/svg">
<path d="M15.4388 93L0 9.62012H19.2779L25.0159 48.6244C25.5112 52.9628 26.0891 57.3425 26.6671 61.8049C27.245 66.1433 27.8229 70.523 28.3183 74.9853H28.8136C29.6805 70.5643 30.4648 66.1433 31.2492 61.8049C32.1161 57.3838 32.9417 52.9628 33.8086 48.6244L42.7664 9.62012H58.7418L67.6997 48.6244C68.5666 52.8802 69.3509 57.2186 70.1352 61.6809C71.0021 66.0193 71.8277 70.4403 72.6946 74.9853H73.1899C73.7679 70.4817 74.3458 66.0193 74.8412 61.6809C75.4191 57.3425 76.0383 53.0041 76.6162 48.6244L82.3542 9.62012H100.352L85.5327 93H61.8791L53.7057 55.1527C53.0452 51.9298 52.3847 48.6657 51.8068 45.4429C51.3114 42.1375 50.816 38.9146 50.4032 35.8571H49.9491C49.4538 38.9146 48.8759 42.1375 48.2979 45.4429C47.8026 48.6657 47.1834 51.9298 46.5229 55.1527L38.7209 93H15.4388Z" fill="white"/>
<path d="M131.065 50.8143L129.001 58.4994H146.752L144.853 50.8143C143.656 46.6411 142.5 42.2201 141.385 37.5098C140.271 32.8409 139.156 28.2959 138.083 23.9575H137.588C136.556 28.3785 135.482 32.9648 134.409 37.6338C133.377 42.2201 132.262 46.6411 131.065 50.8143ZM100.931 93L126.979 9.62012H149.6L175.648 93H155.71L150.591 73.1673H125.162L120.043 93H100.931Z" fill="white"/>
<path d="M184.316 93V9.62012H203.099V77.1339H236.041V93H184.316Z" fill="white"/>
<path d="M249.994 93V9.62012H268.777V77.1339H301.718V93H249.994Z" fill="white"/>
<path d="M315.67 93V9.62012H368.178V25.4863H334.452V44.7818H363.307V60.648H334.452V93H315.67Z" fill="white"/>
<path d="M396.786 50.8143L394.722 58.4994H412.473L410.574 50.8143C409.376 46.6411 408.221 42.2201 407.106 37.5098C405.992 32.8409 404.877 28.2959 403.804 23.9575H403.308C402.276 28.3785 401.203 32.9648 400.13 37.6338C399.098 42.2201 397.983 46.6411 396.786 50.8143ZM366.651 93L392.699 9.62012H415.321L441.369 93H421.43L416.312 73.1673H390.924L385.805 93H366.651Z" fill="white"/>
<path d="M450.037 93V9.62012H468.82V93H450.037Z" fill="white"/>
<path d="M488.016 93V9.62012H518.026C522.443 9.62012 526.571 10.0333 530.41 10.901C534.332 11.7687 537.717 13.2148 540.648 15.2394C543.538 17.1813 545.849 19.8257 547.542 23.1725C549.234 26.4779 550.101 30.651 550.101 35.5679C550.101 41.7243 548.739 46.7651 546.014 50.7729C543.372 54.6982 539.781 57.6317 535.281 59.615L554.188 93H533.094L517.118 62.9618H506.757V93H488.016ZM506.798 48.0046H516.499C521.453 48.0046 525.168 46.9717 527.727 44.9471C530.369 42.7985 531.69 39.6997 531.69 35.6092C531.69 31.5187 530.369 28.6678 527.727 27.0564C525.168 25.445 521.411 24.6186 516.499 24.6186H506.798V48.0046Z" fill="white"/>
<circle cx="580" cy="80" r="15" fill="#F2FF54"/>
</svg>
