<svg width="730" height="93" viewBox="0 0 730 93" fill="none" xmlns="http://www.w3.org/2000/svg">
<path d="M15.4388 93L0 9.62012H19.2779L25.0159 48.6244C25.5112 52.9628 26.0891 57.3425 26.6671 61.8049C27.245 66.1433 27.8229 70.523 28.3183 74.9853H28.8136C29.6805 70.5643 30.4648 66.1433 31.2492 61.8049C32.1161 57.3838 32.9417 52.9628 33.8086 48.6244L42.7664 9.62012H58.7418L67.6997 48.6244C68.5666 52.8802 69.3509 57.2186 70.1352 61.6809C71.0021 66.0193 71.8277 70.4403 72.6946 74.9853H73.1899C73.7679 70.4817 74.3458 66.0193 74.8412 61.6809C75.4191 57.3425 76.0383 53.0041 76.6162 48.6244L82.3542 9.62012H100.352L85.5327 93H61.8791L53.7057 55.1527C53.0452 51.9298 52.3847 48.6657 51.8068 45.4429C51.3114 42.1375 50.816 38.9146 50.4032 35.8571H49.9491C49.4538 38.9146 48.8759 42.1375 48.2979 45.4429C47.8026 48.6657 47.1834 51.9298 46.5229 55.1527L38.7209 93H15.4388Z" fill="white"/>
<path d="M131.065 50.8143L129.001 58.4994H146.752L144.853 50.8143C143.656 46.6411 142.5 42.2201 141.385 37.5098C140.271 32.8409 139.156 28.2959 138.083 23.9575H137.588C136.556 28.3785 135.482 32.9648 134.409 37.6338C133.377 42.2201 132.262 46.6411 131.065 50.8143ZM100.931 93L126.979 9.62012H149.6L175.648 93H155.71L150.591 73.1673H125.162L120.043 93H100.931Z" fill="white"/>
<path d="M184.316 93V9.62012H203.099V77.1339H236.041V93H184.316Z" fill="white"/>
<path d="M249.994 93V9.62012H268.777V77.1339H301.718V93H249.994Z" fill="white"/>
<path d="M315.67 93V9.62012H368.178V25.4863H334.452V44.7818H363.307V60.648H334.452V93H315.67Z" fill="white"/>
<path d="M396.786 50.8143L394.722 58.4994H412.473L410.574 50.8143C409.376 46.6411 408.221 42.2201 407.106 37.5098C405.992 32.8409 404.877 28.2959 403.804 23.9575H403.308C402.276 28.3785 401.203 32.9648 400.13 37.6338C399.098 42.2201 397.983 46.6411 396.786 50.8143ZM366.651 93L392.699 9.62012H415.321L441.369 93H421.43L416.312 73.1673H390.924L385.805 93H366.651Z" fill="white"/>
<path d="M450.037 93V9.62012H468.82V93H450.037Z" fill="white"/>
<path d="M488.016 93V9.62012H518.026C522.443 9.62012 526.571 10.0333 530.41 10.901C534.332 11.7687 537.717 13.2148 540.648 15.2394C543.538 17.1813 545.849 19.8257 547.542 23.1725C549.234 26.4779 550.101 30.651 550.101 35.5679C550.101 41.7243 548.739 46.7651 546.014 50.7729C543.372 54.6982 539.781 57.6317 535.281 59.615L554.188 93H533.094L517.118 62.9618H506.757V93H488.016ZM506.798 48.0046H516.499C521.453 48.0046 525.168 46.9717 527.727 44.9471C530.369 42.7985 531.69 39.6997 531.69 35.6092C531.69 31.5187 530.369 28.6678 527.727 27.0564C525.168 25.445 521.411 24.6186 516.499 24.6186H506.798V48.0046Z" fill="white"/>
<path d="M706.265 28.3372C705.852 26.6844 705.48 25.1557 705.191 23.7922C704.985 22.8005 704.778 21.8915 704.572 21.0652H703.499C703.292 21.8915 703.086 22.8005 702.838 23.7509C702.508 25.1144 702.095 26.6018 701.682 28.2545C701.27 29.9072 700.774 31.7252 700.238 33.7085C700.072 34.287 699.907 34.8654 699.742 35.4852H706.223C706.636 35.4852 707.049 35.4852 707.462 35.4852C707.668 35.4852 707.874 35.4852 708.04 35.4852C707.874 34.9067 707.751 34.2869 707.585 33.7498C707.131 31.8079 706.677 30.0312 706.265 28.3372Z" fill="#E2FF54"/>
<path d="M716.956 0.736816H583.002C576.025 0.736816 570.411 6.10817 570.411 12.6777V51.8473C570.411 58.4582 576.067 63.7882 583.002 63.7882H716.956C723.933 63.7882 729.547 58.4169 729.547 51.8473V12.6777C729.547 6.10817 723.933 0.736816 716.956 0.736816ZM606.408 47.9221C605.541 47.9221 604.715 47.9221 603.972 47.9221C603.807 47.9221 603.642 47.8808 603.559 47.8394C603.477 47.7981 603.394 47.7155 603.353 47.5915C603.311 47.4676 603.229 47.3023 603.188 47.0544C602.568 44.6579 601.949 42.3854 601.413 40.1956H590.597C590.597 40.1956 590.597 40.1956 590.597 40.2369C589.978 42.592 589.276 45.1538 588.533 47.9221C587.749 47.9221 586.923 47.9221 586.098 47.9221C585.272 47.9221 584.446 47.9221 583.621 47.9221C583.538 47.9221 583.456 47.8808 583.414 47.8394C583.373 47.7981 583.291 47.7155 583.291 47.6328C583.249 47.5502 583.249 47.4263 583.291 47.3023C583.538 46.3933 583.827 45.319 584.199 44.0382C584.57 42.7573 584.942 41.3112 585.355 39.7824C585.767 38.2123 586.18 36.6009 586.634 34.8656C587.088 33.1302 587.542 31.4362 587.997 29.7008C588.451 27.9654 588.905 26.3127 589.317 24.66C589.73 23.0486 590.143 21.5198 590.515 20.1563C590.886 18.7928 591.216 17.5946 591.505 16.603C593.033 16.603 594.56 16.603 596.211 16.603C597.821 16.603 599.266 16.603 600.504 16.603C600.628 16.603 600.711 16.6443 600.752 16.6856C600.793 16.7269 600.876 16.7682 600.917 16.8509C600.959 16.8922 601 17.0161 601.041 17.0988C601.495 18.9168 602.032 20.7761 602.568 22.7594C603.105 24.7013 603.642 26.7259 604.178 28.8331C604.715 30.9403 605.293 33.0889 605.871 35.3614C606.449 37.5926 607.068 39.9064 607.646 42.2615C607.852 43.1705 608.059 44.0795 608.306 45.0298C608.554 45.9388 608.76 46.8891 608.967 47.8808C608.059 47.9221 607.274 47.9221 606.408 47.9221ZM632.538 41.683C632.538 42.3855 632.538 43.0879 632.538 43.8729C632.538 44.6166 632.538 45.3604 632.538 46.0628C632.538 46.7652 632.538 47.3849 632.538 47.9634H614.333C614.292 47.9634 614.21 47.9634 614.168 47.9221C614.127 47.8808 614.044 47.8394 614.003 47.7981C613.962 47.7568 613.921 47.7155 613.879 47.6328C613.838 47.5915 613.838 47.5089 613.838 47.4676C613.838 45.1124 613.838 42.7573 613.838 40.4022C613.838 38.0471 613.838 35.6919 613.838 33.4194C613.838 31.1056 613.838 28.8744 613.838 26.7259C613.838 24.5774 613.838 22.5528 613.838 20.6521C613.838 19.9911 613.838 19.3713 613.838 18.7102C613.838 18.0904 613.838 17.4293 613.838 16.8096C614.746 16.8096 615.613 16.8096 616.439 16.8096C617.306 16.8096 618.172 16.8096 618.998 16.8096C619.081 16.8096 619.163 16.8509 619.246 16.8922C619.328 16.9335 619.37 17.0161 619.411 17.0575C619.452 17.1401 619.493 17.2227 619.493 17.3054C619.493 19.4539 619.493 21.5611 619.493 23.7097C619.493 25.8582 619.493 28.0068 619.493 30.1966C619.493 32.3452 619.493 34.535 619.493 36.6836C619.493 38.8321 619.493 40.9806 619.493 43.0879H627.46C627.46 42.84 627.46 42.5507 627.46 42.2615C627.46 41.7244 627.46 41.2285 627.46 40.7327C627.46 40.2369 627.46 39.7824 627.46 39.3692C628.038 39.3692 628.534 39.3692 629.029 39.3692C629.525 39.3692 630.02 39.3692 630.515 39.3692C631.011 39.3692 631.506 39.3692 632.043 39.3692C632.125 39.3692 632.208 39.4106 632.29 39.4519C632.373 39.4932 632.414 39.5758 632.455 39.6171C632.497 39.6998 632.538 39.7824 632.538 39.8651C632.538 40.3609 632.538 40.9806 632.538 41.683ZM658.049 28.7505C658.049 30.1553 657.843 31.4775 657.471 32.6344C657.1 33.7913 656.481 34.7416 655.655 35.5267C654.829 36.3117 653.756 36.9315 652.476 37.3446C651.197 37.7578 649.669 38.0057 647.894 38.0057C647.027 38.0057 646.16 38.0057 645.294 38.0057C644.633 38.0057 643.973 38.0057 643.312 38.0057C643.312 39.8237 643.312 41.6417 643.312 43.501C643.312 44.2861 643.312 45.0711 643.312 45.8149C643.312 46.5586 643.312 47.261 643.312 47.9221C642.445 47.9221 641.578 47.9221 640.753 47.9221C639.886 47.9221 639.019 47.9221 638.152 47.9221C637.987 47.9221 637.904 47.8808 637.781 47.7981C637.698 47.7155 637.657 47.5915 637.657 47.4263C637.657 45.0298 637.657 42.6747 637.657 40.4022C637.657 38.1297 637.657 35.8572 637.657 33.5847C637.657 31.3122 637.657 29.0397 637.657 26.7259C637.657 25.0732 637.657 23.3378 637.657 21.6438C637.037 21.6438 636.418 21.6438 635.84 21.6438C635.675 21.6438 635.593 21.6025 635.469 21.5198C635.386 21.4372 635.345 21.3132 635.345 21.1479C635.345 20.3629 635.345 19.6605 635.345 18.9581C635.345 18.297 635.345 17.5533 635.345 16.7682C637.368 16.7682 639.514 16.7682 641.702 16.7682C643.89 16.7682 645.954 16.7682 647.812 16.7682C649.174 16.7682 650.412 16.8922 651.486 17.1401C652.6 17.388 653.55 17.7599 654.375 18.2144C655.201 18.6689 655.903 19.2886 656.398 20.0324C656.935 20.7761 657.347 21.6438 657.636 22.5941C657.925 23.5857 658.049 24.66 658.049 25.8995V28.7505ZM686.12 23.751C686.12 25.9409 686.12 28.0894 686.12 30.2379C686.12 32.3865 686.12 34.535 686.12 36.6836C686.12 38.8321 686.12 40.9806 686.12 43.1705C686.12 43.9969 686.12 44.8232 686.12 45.6496C686.12 46.4759 686.12 47.2197 686.12 47.9221C685.253 47.9221 684.386 47.9221 683.56 47.9221C682.693 47.9221 681.827 47.9221 680.96 47.9221C680.877 47.9221 680.795 47.8808 680.712 47.8394C680.629 47.7981 680.588 47.7155 680.547 47.6742C680.506 47.5915 680.464 47.5089 680.464 47.4263C680.464 44.8645 680.464 42.3441 680.464 39.7824C680.464 38.1297 680.464 36.4357 680.464 34.7416H669.731C669.731 36.6009 669.731 38.4189 669.731 40.2369C669.731 42.7986 669.731 45.319 669.731 47.8808C668.865 47.8808 667.998 47.8808 667.172 47.8808C666.305 47.8808 665.438 47.8808 664.571 47.8808C664.489 47.8808 664.406 47.8394 664.324 47.7981C664.241 47.7568 664.2 47.6742 664.159 47.6328C664.117 47.5502 664.076 47.4676 664.076 47.3849C664.076 44.4927 664.076 41.6417 664.076 38.7495C664.076 35.8572 664.076 32.9649 664.076 30.0727C664.076 27.1804 664.076 24.2881 664.076 21.4372C664.076 20.6521 664.076 19.8671 664.076 19.082C664.076 18.297 664.076 17.5533 664.076 16.7682C664.984 16.7682 665.851 16.7682 666.677 16.7682C667.544 16.7682 668.41 16.7682 669.236 16.7682C669.401 16.7682 669.484 16.8096 669.608 16.8922C669.69 16.9748 669.731 17.0988 669.731 17.2641C669.731 19.8258 669.731 22.3462 669.731 24.9079C669.731 26.5606 669.731 28.2133 669.731 29.9074H678.153C678.565 29.9074 678.978 29.9074 679.391 29.9074C679.763 29.9074 680.093 29.9074 680.464 29.9074C680.464 28.0894 680.464 26.2714 680.464 24.4534C680.464 21.8917 680.464 19.3713 680.464 16.8096C681.373 16.8096 682.239 16.8096 683.065 16.8096C683.932 16.8096 684.799 16.8096 685.624 16.8096C685.666 16.8096 685.748 16.8096 685.79 16.8509C685.831 16.8922 685.913 16.9335 685.955 16.9748C685.996 17.0162 686.037 17.0575 686.078 17.1401C686.12 17.1814 686.12 17.2641 686.12 17.3054C686.12 19.4126 686.12 21.5611 686.12 23.751ZM714.314 47.9221C713.447 47.9221 712.622 47.9221 711.879 47.9221C711.714 47.9221 711.548 47.8808 711.466 47.8394C711.383 47.7981 711.301 47.7155 711.259 47.5915C711.218 47.4676 711.136 47.3023 711.094 47.0544C710.475 44.6579 709.856 42.3854 709.319 40.1956H698.504C698.504 40.1956 698.504 40.1956 698.504 40.2369C697.885 42.592 697.183 45.1538 696.44 47.9221C695.655 47.9221 694.83 47.9221 694.004 47.9221C693.179 47.9221 692.353 47.9221 691.527 47.9221C691.445 47.9221 691.362 47.8808 691.321 47.8394C691.28 47.7981 691.197 47.7155 691.197 47.6328C691.156 47.5502 691.156 47.4263 691.197 47.3023C691.445 46.3933 691.734 45.319 692.105 44.0382C692.477 42.7573 692.848 41.3112 693.261 39.7824C693.674 38.2123 694.087 36.6009 694.541 34.8656C694.995 33.1302 695.449 31.4362 695.903 29.7008C696.357 27.9654 696.811 26.3127 697.224 24.66C697.637 23.0486 698.05 21.5198 698.421 20.1563C698.793 18.7928 699.123 17.5946 699.412 16.603C700.939 16.603 702.467 16.603 704.118 16.603C705.728 16.603 707.173 16.603 708.411 16.603C708.535 16.603 708.617 16.6443 708.659 16.6856C708.7 16.7269 708.783 16.7682 708.824 16.8509C708.865 16.8922 708.906 17.0161 708.948 17.0988C709.402 18.9168 709.938 20.7761 710.475 22.7594C711.012 24.7013 711.548 26.7259 712.085 28.8331C712.622 30.9403 713.2 33.0889 713.778 35.3614C714.355 37.5926 714.975 39.9064 715.553 42.2615C715.759 43.1705 715.965 44.0795 716.213 45.0298C716.461 45.9388 716.667 46.8891 716.874 47.8808C716.007 47.9221 715.181 47.9221 714.314 47.9221Z" fill="#E2FF54"/>
<path d="M651.403 22.6767C651.032 22.3048 650.578 22.0156 650 21.8916C649.422 21.7264 648.679 21.6851 647.812 21.6851C646.491 21.6851 645.17 21.6851 643.849 21.6851C643.684 21.6851 643.519 21.6851 643.354 21.6851C643.354 22.1396 643.354 22.5527 643.354 22.9659C643.354 23.627 643.354 24.2881 643.354 24.9905C643.354 27.0151 643.354 29.081 643.354 31.0643C643.354 31.7254 643.354 32.4278 643.354 33.0889C643.973 33.0889 644.592 33.0889 645.211 33.0889C646.202 33.0889 647.11 33.0889 647.894 33.0889C648.679 33.0889 649.339 33.0062 649.876 32.841C650.454 32.6757 650.908 32.4278 651.279 32.0972C651.651 31.7667 651.94 31.3535 652.105 30.8164C652.311 30.2792 652.394 29.6595 652.394 28.9157V25.6516C652.394 24.9492 652.311 24.3294 652.188 23.8336C651.981 23.3791 651.733 23.0072 651.403 22.6767Z" fill="#E2FF54"/>
<path d="M598.317 28.3372C597.904 26.6844 597.533 25.1557 597.244 23.7922C597.038 22.8005 596.831 21.8915 596.625 21.0652H595.551C595.345 21.8915 595.139 22.8005 594.891 23.7509C594.561 25.1144 594.148 26.6018 593.735 28.2545C593.322 29.9072 592.827 31.7252 592.29 33.7085C592.125 34.287 591.96 34.8654 591.795 35.4852H598.276C598.689 35.4852 599.102 35.4852 599.514 35.4852C599.721 35.4852 599.927 35.4852 600.092 35.4852C599.927 34.9067 599.803 34.2869 599.638 33.7498C599.184 31.8079 598.73 30.0312 598.317 28.3372Z" fill="#E2FF54"/>
</svg>
