<?xml version="1.0" encoding="UTF-8"?>
<svg width="307px" height="40px" viewBox="0 0 307 40" version="1.1" xmlns="http://www.w3.org/2000/svg" xmlns:xlink="http://www.w3.org/1999/xlink">
    <title>Group 10</title>
    <g id="👋-01-Signup" stroke="none" stroke-width="1" fill="none" fill-rule="evenodd">
        <g id="wallfair-signup-04-desktop" transform="translate(-542.000000, -297.000000)">
            <g id="Group-10" transform="translate(542.779520, 297.696640)">
                <g id="Group-19">
                    <g id="Group-2" transform="translate(245.890652, 25.463360)" fill="#E2FF54">
                        <ellipse id="Oval" cx="6.66491422" cy="6.72" rx="6.66491422" ry="6.72"></ellipse>
                    </g>
                    <path d="M16.87104,36.30336 L20.26752,19.82208 C20.56448,18.41152 20.8336,16.99168 21.07488,15.56256 C21.31616,14.13344 21.54816,12.75072 21.77088,11.4144 L21.77088,11.4144 L21.9936,11.4144 C22.1792,12.75072 22.39264,14.13344 22.63392,15.56256 C22.8752,16.99168 23.14432,18.41152 23.44128,19.82208 L23.44128,19.82208 L27.0048,36.30336 L37.3056,36.30336 L43.76448,0 L35.9136,0 L33.408,16.9824 C33.14816,18.87552 32.8976,20.76864 32.65632,22.66176 C32.41504,24.55488 32.16448,26.48512 31.90464,28.45248 L31.90464,28.45248 L31.68192,28.45248 C31.31072,26.48512 30.9488,24.5456 30.59616,22.63392 C30.24352,20.72224 29.8816,18.8384 29.5104,16.9824 L29.5104,16.9824 L25.6128,0 L18.6528,0 L14.7552,16.9824 C14.384,18.87552 14.02208,20.77792 13.66944,22.6896 C13.3168,24.60128 12.95488,26.52224 12.58368,28.45248 L12.58368,28.45248 L12.36096,28.45248 C12.13824,26.52224 11.89696,24.60128 11.63712,22.6896 C11.37728,20.77792 11.136,18.87552 10.91328,16.9824 L10.91328,16.9824 L8.40768,0 L0,0 L6.73728,36.30336 L16.87104,36.30336 Z M52.31424,36.30336 L54.54144,27.67296 L65.62176,27.67296 L67.84896,36.30336 L76.53504,36.30336 L65.17632,0 L55.32096,0 L43.96224,36.30336 L52.31424,36.30336 Z M63.95136,21.26976 L56.21184,21.26976 L57.10272,17.92896 C57.6224,16.11008 58.11424,14.18912 58.57824,12.16608 C59.04224,10.14304 59.49696,8.1664 59.9424,6.23616 L59.9424,6.23616 L60.16512,6.23616 C60.64768,8.12928 61.13024,10.09664 61.6128,12.13824 C62.09536,14.17984 62.59648,16.11008 63.11616,17.92896 L63.11616,17.92896 L63.95136,21.26976 Z M102.84672,36.30336 L102.84672,29.39904 L88.48128,29.39904 L88.48128,0 L80.29632,0 L80.29632,36.30336 L102.84672,36.30336 Z M131.49696,36.30336 L131.49696,29.39904 L117.13152,29.39904 L117.13152,0 L108.94656,0 L108.94656,36.30336 L131.49696,36.30336 Z M145.78176,36.30336 L145.78176,22.21632 L158.36544,22.21632 L158.36544,15.312 L145.78176,15.312 L145.78176,6.90432 L160.48128,6.90432 L160.48128,0 L137.5968,0 L137.5968,36.30336 L145.78176,36.30336 Z M168.14016,36.30336 L170.36736,27.67296 L181.44768,27.67296 L183.67488,36.30336 L192.36096,36.30336 L181.00224,0 L171.14688,0 L159.78816,36.30336 L168.14016,36.30336 Z M179.77728,21.26976 L172.03776,21.26976 L172.92864,17.92896 C173.44832,16.11008 173.94016,14.18912 174.40416,12.16608 C174.86816,10.14304 175.32288,8.1664 175.76832,6.23616 L175.76832,6.23616 L175.99104,6.23616 C176.4736,8.12928 176.95616,10.09664 177.43872,12.13824 C177.92128,14.17984 178.4224,16.11008 178.94208,17.92896 L178.94208,17.92896 L179.77728,21.26976 Z M204.3072,36.30336 L204.3072,0 L196.12224,0 L196.12224,36.30336 L204.3072,36.30336 Z M220.87488,36.30336 L220.87488,23.21856 L225.38496,23.21856 L232.34496,36.30336 L241.53216,36.30336 L233.29152,21.77088 C235.25888,20.91712 236.8272,19.6272 237.99648,17.90112 C239.16576,16.17504 239.7504,13.97568 239.7504,11.30304 C239.7504,9.15008 239.3792,7.34976 238.6368,5.90208 C237.8944,4.4544 236.89216,3.2944 235.63008,2.42208 C234.368,1.54976 232.89248,0.928 231.20352,0.5568 C229.51456,0.1856 227.70496,0 225.77472,0 L225.77472,0 L212.68992,0 L212.68992,36.30336 L220.87488,36.30336 Z M225.10656,16.704 L220.87488,16.704 L220.87488,6.51456 L225.10656,6.51456 C227.25952,6.51456 228.90208,6.8672 230.03424,7.57248 C231.1664,8.27776 231.73248,9.52128 231.73248,11.30304 C231.73248,13.0848 231.1664,14.4304 230.03424,15.33984 C228.90208,16.24928 227.25952,16.704 225.10656,16.704 L225.10656,16.704 Z" id="WALLFAIR" fill="#FFFFFF" fill-rule="nonzero"></path>
                </g>
                <path d="M252.42248,13.30336 C254.64248,13.30336 256.27748,12.74236 257.32748,11.62036 C258.37748,10.49836 258.90248,8.97136 258.90248,7.03936 C258.90248,5.07136 258.37748,3.52336 257.32748,2.39536 C256.27748,1.26736 254.64248,0.70336 252.42248,0.70336 L252.42248,0.70336 L248.55248,0.70336 L248.55248,13.30336 L252.42248,13.30336 Z M252.38648,12.04336 L250.06448,12.04336 L250.06448,1.96336 L252.38648,1.96336 C253.61048,1.96336 254.58548,2.16736 255.31148,2.57536 C256.03748,2.98336 256.55648,3.56536 256.86848,4.32136 C257.18048,5.07736 257.33648,5.98336 257.33648,7.03936 C257.33648,8.07136 257.18048,8.96236 256.86848,9.71236 C256.55648,10.46236 256.03748,11.03836 255.31148,11.44036 C254.58548,11.84236 253.61048,12.04336 252.38648,12.04336 L252.38648,12.04336 Z M271.306032,13.30336 L271.306032,12.06136 L265.024032,12.06136 L265.024032,7.56136 L270.766032,7.56136 L270.766032,6.33736 L265.024032,6.33736 L265.024032,1.94536 L271.306032,1.94536 L271.306032,0.70336 L263.512032,0.70336 L263.512032,13.30336 L271.306032,13.30336 Z M277.607583,13.30336 L277.607583,3.42136 L281.819583,11.50336 L282.953583,11.50336 L287.165583,3.40336 L287.165583,13.30336 L288.677583,13.30336 L288.677583,0.70336 L286.895583,0.70336 L282.395583,9.48736 L277.859583,0.70336 L276.095583,0.70336 L276.095583,13.30336 L277.607583,13.30336 Z M299.497135,13.51936 C300.745135,13.51936 301.834135,13.24636 302.764135,12.70036 C303.694135,12.15436 304.417135,11.38936 304.933135,10.40536 C305.449135,9.42136 305.707135,8.28736 305.707135,7.00336 C305.707135,5.71936 305.449135,4.58836 304.933135,3.61036 C304.417135,2.63236 303.694135,1.86736 302.764135,1.31536 C301.834135,0.76336 300.745135,0.48736 299.497135,0.48736 C298.261135,0.48736 297.178135,0.76336 296.248135,1.31536 C295.318135,1.86736 294.592135,2.63236 294.070135,3.61036 C293.548135,4.58836 293.287135,5.71936 293.287135,7.00336 C293.287135,8.28736 293.548135,9.42136 294.070135,10.40536 C294.592135,11.38936 295.318135,12.15436 296.248135,12.70036 C297.178135,13.24636 298.261135,13.51936 299.497135,13.51936 Z M299.497135,12.18736 C298.573135,12.18736 297.760135,11.98036 297.058135,11.56636 C296.356135,11.15236 295.810135,10.55836 295.420135,9.78436 C295.030135,9.01036 294.835135,8.08336 294.835135,7.00336 C294.835135,5.92336 295.030135,4.99936 295.420135,4.23136 C295.810135,3.46336 296.356135,2.87236 297.058135,2.45836 C297.760135,2.04436 298.573135,1.83736 299.497135,1.83736 C300.421135,1.83736 301.234135,2.04436 301.936135,2.45836 C302.638135,2.87236 303.184135,3.46336 303.574135,4.23136 C303.964135,4.99936 304.159135,5.92336 304.159135,7.00336 C304.159135,8.08336 303.964135,9.01036 303.574135,9.78436 C303.184135,10.55836 302.638135,11.15236 301.936135,11.56636 C301.234135,11.98036 300.421135,12.18736 299.497135,12.18736 Z" id="DEMO" fill="#FFFFFF" fill-rule="nonzero"></path>
            </g>
        </g>
    </g>
</svg>