<?xml version="1.0" encoding="UTF-8"?>
<svg width="139px" height="37px" viewBox="0 0 139 37" version="1.1" xmlns="http://www.w3.org/2000/svg" xmlns:xlink="http://www.w3.org/1999/xlink">
    <title>Group 33 Copy 3</title>
    <g id="00-Title" stroke="none" stroke-width="1" fill="none" fill-rule="evenodd">
        <g id="Group-33-Copy-3">
            <g id="Group-2" transform="translate(132.000000, 23.000000)" fill="#E2FF54">
                <circle id="Oval" cx="3.5" cy="3.5" r="3.5"></circle>
            </g>
            <path d="M9.193,29 L10.962,20.416 C11.1166667,19.6813333 11.2568333,18.9418333 11.3825,18.1975 C11.5081667,17.4531667 11.629,16.733 11.745,16.037 L11.745,16.037 L11.861,16.037 C11.9576667,16.733 12.0688333,17.4531667 12.1945,18.1975 C12.3201667,18.9418333 12.4603333,19.6813333 12.615,20.416 L12.615,20.416 L14.471,29 L19.836,29 L23.2,10.092 L19.111,10.092 L17.806,18.937 C17.6706667,19.923 17.5401667,20.909 17.4145,21.895 C17.2888333,22.881 17.1583333,23.8863333 17.023,24.911 L17.023,24.911 L16.907,24.911 C16.7136667,23.8863333 16.5251667,22.8761667 16.3415,21.8805 C16.1578333,20.8848333 15.9693333,19.9036667 15.776,18.937 L15.776,18.937 L13.746,10.092 L10.121,10.092 L8.091,18.937 C7.89766667,19.923 7.70916667,20.9138333 7.5255,21.9095 C7.34183333,22.9051667 7.15333333,23.9056667 6.96,24.911 L6.96,24.911 L6.844,24.911 C6.728,23.9056667 6.60233333,22.9051667 6.467,21.9095 C6.33166667,20.9138333 6.206,19.923 6.09,18.937 L6.09,18.937 L4.785,10.092 L0.406,10.092 L3.915,29 L9.193,29 Z M27.653,29 L28.813,24.505 L34.584,24.505 L35.744,29 L40.268,29 L34.352,10.092 L29.219,10.092 L23.303,29 L27.653,29 Z M33.714,21.17 L29.683,21.17 L30.147,19.43 C30.4176667,18.4826667 30.6738333,17.4821667 30.9155,16.4285 C31.1571667,15.3748333 31.394,14.3453333 31.626,13.34 L31.626,13.34 L31.742,13.34 C31.9933333,14.326 32.2446667,15.3506667 32.496,16.414 C32.7473333,17.4773333 33.0083333,18.4826667 33.279,19.43 L33.279,19.43 L33.714,21.17 Z M53.972,29 L53.972,25.404 L46.49,25.404 L46.49,10.092 L42.227,10.092 L42.227,29 L53.972,29 Z M68.894,29 L68.894,25.404 L61.412,25.404 L61.412,10.092 L57.149,10.092 L57.149,29 L68.894,29 Z M76.334,29 L76.334,21.663 L82.888,21.663 L82.888,18.067 L76.334,18.067 L76.334,13.688 L83.99,13.688 L83.99,10.092 L72.071,10.092 L72.071,29 L76.334,29 Z M87.979,29 L89.139,24.505 L94.91,24.505 L96.07,29 L100.594,29 L94.678,10.092 L89.545,10.092 L83.629,29 L87.979,29 Z M94.04,21.17 L90.009,21.17 L90.473,19.43 C90.7436667,18.4826667 90.9998333,17.4821667 91.2415,16.4285 C91.4831667,15.3748333 91.72,14.3453333 91.952,13.34 L91.952,13.34 L92.068,13.34 C92.3193333,14.326 92.5706667,15.3506667 92.822,16.414 C93.0733333,17.4773333 93.3343333,18.4826667 93.605,19.43 L93.605,19.43 L94.04,21.17 Z M106.816,29 L106.816,10.092 L102.553,10.092 L102.553,29 L106.816,29 Z M115.445,29 L115.445,22.185 L117.794,22.185 L121.419,29 L126.204,29 L121.912,21.431 C122.936667,20.9863333 123.7535,20.3145 124.3625,19.4155 C124.9715,18.5165 125.276,17.371 125.276,15.979 C125.276,14.8576667 125.082667,13.92 124.696,13.166 C124.309333,12.412 123.787333,11.8078333 123.13,11.3535 C122.472667,10.8991667 121.704167,10.5753333 120.8245,10.382 C119.944833,10.1886667 119.002333,10.092 117.997,10.092 L117.997,10.092 L111.182,10.092 L111.182,29 L115.445,29 Z M117.649,18.792 L115.445,18.792 L115.445,13.485 L117.649,13.485 C118.770333,13.485 119.625833,13.6686667 120.2155,14.036 C120.805167,14.4033333 121.1,15.051 121.1,15.979 C121.1,16.907 120.805167,17.6078333 120.2155,18.0815 C119.625833,18.5551667 118.770333,18.792 117.649,18.792 L117.649,18.792 Z" id="WALLFAIR" fill="#02061E" fill-rule="nonzero"></path>
        </g>
    </g>
</svg>