<svg width="118" height="26" viewBox="0 0 118 26" fill="none" xmlns="http://www.w3.org/2000/svg">
<path fill-rule="evenodd" clip-rule="evenodd" d="M47.8906 10.1187C47.5008 9.29825 46.8883 8.69655 46.1643 8.25895C45.4403 7.76665 44.5493 7.54785 43.6027 7.54785C42.2105 7.54785 40.8741 8.04016 39.649 9.02475L39.3705 7.82135H36.5862V22.8091H39.816V17.1204C40.2058 17.5032 40.707 17.8315 41.2639 17.9956C41.8207 18.2143 42.3776 18.3238 42.9902 18.3238C44.0482 18.3238 45.0506 18.1049 45.8858 17.6673C46.7212 17.2845 47.3894 16.6827 47.8349 15.8622C48.3361 15.0418 48.5588 14.1118 48.5588 13.0178C48.5588 11.9239 48.3361 10.9392 47.8906 10.1187ZM45.2176 13.0725C45.2176 13.893 44.9392 14.5495 44.3824 15.0418C43.8254 15.5341 43.1572 15.8075 42.322 15.8075C41.7094 15.8075 41.2082 15.6434 40.7627 15.37C40.3729 15.0964 40.0387 14.7136 39.8717 14.2212V11.7598C40.1502 11.2674 40.4842 10.8845 40.9297 10.6657C41.3752 10.3923 41.9321 10.2828 42.5447 10.2828C43.2686 10.2828 43.9369 10.5016 44.438 11.0486C44.9392 11.5957 45.2176 12.2521 45.2176 13.0725Z" fill="#212121"/>
<path fill-rule="evenodd" clip-rule="evenodd" d="M52.5123 8.31251C51.6213 8.75011 50.9532 9.40651 50.4519 10.1723C50.0064 10.9928 49.728 11.9227 49.728 12.962C49.728 14.0559 50.0064 14.9859 50.4519 15.8064C50.9532 16.6269 51.6213 17.2286 52.5123 17.6662C53.4033 18.1038 54.4057 18.3226 55.5195 18.3226C56.6332 18.3226 57.6912 18.049 58.5265 17.6115C59.4175 17.1738 60.0301 16.5175 60.5312 15.697C61.0324 14.8765 61.2552 14.0013 61.2552 12.962C61.2552 11.9227 61.0324 11.0475 60.5312 10.227C60.0301 9.40651 59.3619 8.75011 58.5265 8.31251C57.6355 7.82022 56.6332 7.60141 55.5195 7.60141C54.4057 7.60141 53.4033 7.87492 52.5123 8.31251ZM55.5195 15.697C54.7956 15.697 54.183 15.4782 53.7375 14.9311C53.2363 14.3842 53.0136 13.7278 53.0136 12.962C53.0136 12.1416 53.2363 11.4851 53.6818 10.9381C54.183 10.4458 54.7398 10.1723 55.4638 10.1723C56.2434 10.1723 56.8002 10.4458 57.3015 10.9928C57.747 11.4851 57.9697 12.1416 57.9697 12.962C57.9697 13.7278 57.747 14.4389 57.3015 14.9311C56.856 15.4235 56.2434 15.697 55.5195 15.697Z" fill="#212121"/>
<path d="M66.4903 0.0534534V18.0497H63.2605V0.0534534H66.4903Z" fill="#212121"/>
<path d="M79.7433 8.09412L73.1723 22.8631H70.0539L72.504 17.5572L67.8264 8.09412H71.5017L74.1747 14.0017L76.8477 8.09412H79.7433Z" fill="#212121"/>
<path fill-rule="evenodd" clip-rule="evenodd" d="M92.1053 18.049V8.09372H89.0982L88.7641 8.85952C88.43 8.47662 87.9287 8.14842 87.2605 7.92961C86.5922 7.71082 85.8683 7.60141 85.0331 7.60141C84.1421 7.60141 83.3068 7.82022 82.5271 8.31251C81.6919 8.80482 81.0793 9.46121 80.5782 10.2817C80.077 11.1022 79.8542 12.0321 79.8542 13.0168C79.8542 14.0013 80.1327 14.8765 80.5782 15.697C81.0793 16.5175 81.6919 17.1738 82.4715 17.6115C83.2511 18.1038 84.1421 18.3226 85.0331 18.3226C85.9241 18.3226 86.7037 18.1585 87.3719 17.8303C88.0402 17.5021 88.4856 17.0645 88.8197 16.5722V17.9944C88.8197 18.7055 88.5413 19.3072 87.9845 19.6901C87.4276 20.073 86.7593 20.2917 85.9241 20.2917C85.2559 20.2917 84.6433 20.1276 84.1978 19.9089C83.7523 19.6901 83.2511 19.3619 82.8056 18.9242L80.9122 21.1123C81.4135 21.5499 81.859 21.8781 82.3044 22.1516C82.6942 22.3703 83.1954 22.5892 83.8079 22.808C84.4205 22.9721 85.1444 23.0814 85.9798 23.0814C87.0935 23.0814 88.0958 22.8627 89.0425 22.4251C89.9891 21.9875 90.7131 21.3858 91.2699 20.62C91.8269 19.8542 92.1053 18.979 92.1053 18.049ZM88.8197 11.7586V14.2202C88.2629 15.2047 87.3162 15.697 86.0354 15.7517C85.2559 15.7517 84.5876 15.4782 84.0307 14.9311C83.4739 14.3842 83.1954 13.6731 83.1954 12.9073C83.1954 12.0868 83.4739 11.4304 84.0307 10.9381C84.5876 10.4458 85.2559 10.1723 86.0354 10.1723C86.7037 10.1723 87.2605 10.3364 87.7617 10.6099C88.2629 10.8834 88.597 11.2663 88.8197 11.7586Z" fill="#212121"/>
<path fill-rule="evenodd" clip-rule="evenodd" d="M96.8397 8.25895C95.9487 8.75124 95.2805 9.35295 94.7793 10.1734C94.2782 10.9939 94.0554 11.9239 94.0554 12.8537C94.0554 14.0025 94.2782 14.9323 94.7793 15.7529C95.2805 16.5734 95.9487 17.175 96.8397 17.6127C97.7307 18.0502 98.7331 18.269 99.8469 18.269C100.961 18.269 102.019 17.9956 102.854 17.5579C103.745 17.1204 104.413 16.4639 104.859 15.6434C105.36 14.8229 105.583 13.9477 105.583 12.9084C105.583 11.8691 105.304 10.9939 104.859 10.1734C104.357 9.35295 103.689 8.69655 102.854 8.25895C101.963 7.76665 100.961 7.54785 99.8469 7.54785C98.7331 7.54785 97.7307 7.82135 96.8397 8.25895ZM99.7911 15.6981C99.0672 15.6981 98.4547 15.4793 98.0092 14.9323C97.5637 14.3853 97.341 13.7289 97.2852 12.9632C97.2852 12.1973 97.508 11.4862 98.0092 10.9939C98.5104 10.5016 99.0672 10.2281 99.7911 10.2281C100.515 10.2281 101.128 10.5016 101.573 10.9939C102.019 11.4862 102.241 12.1426 102.241 12.9632C102.241 13.7289 102.019 14.44 101.573 14.9323C101.128 15.4246 100.515 15.6981 99.7911 15.6981Z" fill="#212121"/>
<path d="M116.999 8.42192C117.667 8.96891 117.945 9.68001 118 10.5552V18.049H114.715V11.7586C114.659 10.774 114.158 10.2817 113.212 10.2817C112.488 10.2817 111.875 10.6099 111.43 11.321C110.984 12.0321 110.761 12.9073 110.761 13.9466V18.049H107.531V8.09372H110.483L110.706 9.68001C111.095 9.02361 111.597 8.53132 112.265 8.14842C112.933 7.76552 113.713 7.60141 114.604 7.60141C115.55 7.60141 116.386 7.87492 116.999 8.42192Z" fill="#212121"/>
<path d="M22.7758 7.93086C22.2189 7.60266 21.495 7.60266 20.8825 7.93086L16.5389 10.4471L13.5875 12.0881L9.24399 14.6042C8.68712 14.9324 7.96319 14.9324 7.35064 14.6042L3.89807 12.635C3.3412 12.3068 2.95139 11.7052 2.95139 11.0488V7.16505C2.95139 6.50866 3.28552 5.90696 3.89807 5.57876L7.29495 3.66427C7.85182 3.33607 8.57574 3.33607 9.18829 3.66427L12.5852 5.57876C13.142 5.90696 13.5319 6.50866 13.5319 7.16505V9.68125L16.4832 7.98556V5.46937C16.4832 4.81296 16.1492 4.21126 15.5366 3.88306L9.24399 0.272875C8.68712 -0.0553241 7.96319 -0.0553241 7.35064 0.272875L0.946673 3.88306C0.33412 4.21126 0 4.81296 0 5.46937V12.7445C0 13.4008 0.33412 14.0026 0.946673 14.3308L7.35064 17.941C7.9075 18.2691 8.63143 18.2691 9.24399 17.941L13.5875 15.4794L16.5389 13.7838L20.8825 11.3222C21.4394 10.994 22.1633 10.994 22.7758 11.3222L26.1727 13.2367C26.7295 13.5649 27.1194 14.1667 27.1194 14.8231V18.7067C27.1194 19.3632 26.7853 19.9648 26.1727 20.293L22.7758 22.2622C22.2189 22.5904 21.495 22.5904 20.8825 22.2622L17.4857 20.3477C16.9287 20.0196 16.5389 19.4178 16.5389 18.7614V16.2453L13.5875 17.941V20.4571C13.5875 21.1135 13.9217 21.7152 14.5342 22.0434L20.9382 25.6536C21.495 25.9818 22.2189 25.9818 22.8315 25.6536L29.2355 22.0434C29.7923 21.7152 30.1822 21.1135 30.1822 20.4571V13.182C30.1822 12.5256 29.848 11.924 29.2355 11.5958L22.7758 7.93086Z" fill="#8247E5"/>
</svg>
