<svg width="165" height="54" viewBox="0 0 165 54" fill="none" xmlns="http://www.w3.org/2000/svg">
<g style="mix-blend-mode:multiply">
<path fill-rule="evenodd" clip-rule="evenodd" d="M-99.9074 21.1221C-107.039 19.1851 -143.967 25.3764 -146.33 25.1961C-148.949 24.6977 -151.295 11.0383 -149.816 8.65857C-149.317 7.85515 -148.448 7.6311 -146.208 7.70137C-145.307 7.77693 -141.98 7.35667 -137.471 6.87011C-127.4 5.78166 -119.424 4.73563 -99.7231 2.93922C-99.0567 3.32635 -97.6554 1.78714 -97.2182 2.2843C-97.0599 2.42615 -95.8264 2.44471 -93.7799 2.39566C-86.4969 2.21933 -78.8286 1.74736 -73.7764 1.54982C-56.4903 0.876336 -37.113 0.0132644 -19.7229 6.72719e-06C-16.0767 -0.0026448 -18.9762 0.779556 -14.6825 0.526335C-3.82878 -0.117986 15.2839 1.26876 21.2767 0.864404C26.8773 0.486562 28.0919 0.505122 33.3096 1.34433C38.6644 2.0271 67.4468 3.45892 70.9726 3.01214C71.8422 2.82653 72.4282 2.979 72.3503 3.2826C72.9387 3.3754 92.3822 5.58677 92.3964 5.93545C92.4484 6.25231 93.0061 6.46575 93.6441 6.3239C94.802 6.00306 116.519 7.77826 116.495 8.69436C116.427 11.3088 109.004 21.4522 105.682 23.7259C103.914 24.9323 100.138 24.3225 95.355 23.4528C90.5792 22.5844 84.714 21.602 79.1678 21.8128C76.0225 21.4601 60.5064 20.0044 54.3317 19.563C26.8962 17.6022 29.7673 17.8355 18.3678 18.4175C17.2335 17.4457 12.3041 19.502 9.54396 17.7626C8.41913 17.0533 -0.206156 16.7152 -2.14626 17.3423C-2.56925 17.4789 -5.62001 17.3476 -10.0437 17.2654C-12.4092 17.2203 -47.8319 16.1783 -52.2415 18.1166C-61.0794 16.4899 -91.0624 20.0495 -99.9074 21.1221" fill="#F1FF54"/>
</g>
<g style="mix-blend-mode:multiply">
<path fill-rule="evenodd" clip-rule="evenodd" d="M54.553 9.1758C59.6427 10.398 107.488 7.64311 113.019 8.61009C115.856 9.41393 110.229 23.2292 107.971 25.0198C106.313 26.3354 106.268 25.0605 94.3659 25.2171C81.34 25.3894 66.7259 26.1157 52.6986 27.2721C51.9822 26.8866 50.3681 28.4154 49.9157 27.922C49.0533 27.1892 25.6383 29.06 24.0925 29.185C2.39055 30.9269 -13.9342 32.8687 -35.2497 35.3723C-39.2437 35.8407 -36.3549 34.7027 -40.9686 35.5144C-50.0688 37.1116 -72.8311 39.0232 -80.2371 40.7071C-86.0832 42.0346 -87.3816 42.1741 -93.4233 42.4253C-99.578 42.6832 -131.08 47.2984 -134.254 48.7653C-135.039 49.1284 -135.746 49.1323 -135.878 48.8363C-136.24 48.8653 -158.451 51.4334 -158.602 51.2715C-158.906 51.0005 -159.648 50.9479 -160.193 51.236C-161.456 51.803 -184.854 55.9038 -185.604 55.0947C-187.76 52.7674 -188.822 41.8925 -187.246 38.9903C-185.592 35.9512 -168.822 36.9761 -156.983 33.6804C-84.9263 24.1343 -103.871 27.1813 -86.1893 23.5278C-84.3867 24.2514 -79.7352 21.3716 -75.6941 22.5464C-74.0282 23.0319 -63.9147 21.9767 -61.933 21.0584C-61.08 20.6638 -47.5923 19.381 -33.704 18.0352C-30.193 17.6957 -5.75063 15.471 -3.03612 14.1817C5.69886 14.7882 46.8666 9.74941 54.553 9.1758" fill="#F1FF54"/>
</g>
<g style="mix-blend-mode:multiply">
<path fill-rule="evenodd" clip-rule="evenodd" d="M-122.077 47.6535C-132.621 45.8716 -181.131 54.0333 -183.933 53.9999C-185.606 53.8344 -186.924 50.3899 -187.528 46.6901C-189.124 36.8747 -186.504 36.8196 -182.163 36.7285C-182.163 36.7285 -144.744 32.1255 -120.89 29.9485C-120.028 30.3064 -118.112 28.7618 -117.56 29.2326C-117.358 29.3648 -115.736 29.3635 -113.038 29.2313C-87.7558 27.9767 -40.637 25.3211 -15.2678 25.2005C-10.4544 25.1774 -14.2478 25.9472 -8.59059 25.6559C2.91884 25.0607 16.8326 25.5687 29.2845 25.6123C46.1127 25.6701 42.505 24.5655 54.7524 25.8253C59.3496 26.2987 99.7513 27.6085 104.403 27.0248C105.51 26.8349 106.304 26.9786 106.25 27.2737C106.835 27.3365 132.867 29.2891 132.956 29.6098C133.09 29.919 133.864 30.1204 134.665 29.9741C135.391 29.8946 142.922 30.0472 150.287 30.5078C157.651 30.9671 164.862 31.5226 164.965 31.969C165.553 34.5283 158.582 44.5207 154.732 46.7811C152.701 47.9755 147.491 47.4021 140.87 46.6233C121.266 44.318 129.092 45.8203 108.29 44.5489C50.5665 41.0223 46.2325 42.1281 36.6175 42.5374C35.0099 41.6022 28.5136 43.624 24.7014 42.0306C23.1103 41.3674 11.5374 41.1044 8.96851 41.7317C6.6182 42.1679 -50.3578 40.8157 -58.2501 43.3328C-71.4682 41.6958 -119.727 47.4072 -122.077 47.6535" fill="#F1FF54"/>
</g>
</svg>
