<svg width="127" height="66" viewBox="0 0 127 66" fill="none" xmlns="http://www.w3.org/2000/svg">
<g style="mix-blend-mode:multiply">
<path fill-rule="evenodd" clip-rule="evenodd" d="M-64.7168 27.5986C-68.4353 25.8779 -105.316 23.3954 -109.405 21.8727C-111.461 20.7957 -105.301 8.11806 -103.337 6.63882C-101.893 5.55197 -102.031 6.7823 -92.9283 7.90814C-82.9657 9.13933 -71.7165 10.0084 -60.8568 10.4009C-60.3623 10.8483 -58.9242 9.55178 -58.6456 10.0746C-58.0866 10.8715 -39.9672 11.584 -38.7709 11.6297C-21.9761 12.2824 -9.25726 12.1663 7.34558 12.0453C10.4564 12.0234 8.09835 12.8076 11.7285 12.522C18.8881 11.9625 36.5149 12.5658 42.3935 11.7411C47.0336 11.0919 48.0432 11.0971 52.6872 11.5034C57.4183 11.9156 82.0792 10.8571 84.6992 9.78727C85.347 9.52234 85.887 9.59436 85.9477 9.89308C86.2285 9.90417 103.523 9.81725 103.616 9.98898C103.812 10.2821 104.371 10.4123 104.825 10.1937C105.866 9.78403 124.274 8.35104 124.736 9.20921C126.067 11.6778 125.408 22.2461 123.813 24.8671C122.141 27.6112 109.483 24.8276 100.005 26.7263C43.7324 28.176 58.5999 27.2785 44.6142 28.8945C43.3365 28.0056 39.3982 30.2753 36.4733 28.7125C35.2678 28.0672 27.4082 27.9969 25.7721 28.6672C25.0679 28.9552 14.6029 28.7419 3.82373 28.5464C1.09887 28.4962 -17.8522 28.0137 -20.0977 28.962C-26.6809 27.4423 -58.7743 27.8715 -64.7168 27.5986" fill="#DBDBD7"/>
</g>
<g style="mix-blend-mode:multiply">
<path fill-rule="evenodd" clip-rule="evenodd" d="M-75.6111 23.9519C-79.3421 25.7172 -116.194 28.6191 -120.293 30.1902C-122.358 31.2921 -116.339 43.9204 -114.393 45.3799C-112.962 46.4522 -113.088 45.2214 -103.986 43.9913C-94.0255 42.6459 -82.7837 41.6488 -71.9359 41.1333C-71.4374 40.6796 -70.0149 41.962 -69.7313 41.4353C-69.1647 40.6308 -51.0645 39.713 -49.8694 39.6539C-33.0924 38.8109 -20.3934 38.784 -3.81612 38.7181C-0.71004 38.7051 -3.0565 37.9462 0.565338 38.1913C7.70864 38.6711 25.3159 37.8683 31.1773 38.628C35.8039 39.226 36.8121 39.2094 41.4535 38.7501C46.182 38.2841 70.7957 39.0665 73.4008 40.1085C74.0449 40.3665 74.5848 40.2883 74.6485 39.9884C74.929 39.9742 92.1976 39.8664 92.2924 39.6934C92.4905 39.3976 93.0503 39.2609 93.5017 39.4747C94.5362 39.8733 112.902 41.1012 113.373 40.2365C114.728 37.749 114.18 27.1714 112.615 24.5642C110.973 21.8346 98.3048 24.7652 88.8601 22.9703C32.6854 22.1521 47.5218 22.8836 33.5734 21.4225C32.2883 22.3272 28.3794 20.0983 25.4426 21.6965C24.232 22.3564 16.3833 22.5153 14.7565 21.8624C14.0563 21.5819 3.60443 21.9134 -7.161 22.2306C-9.88239 22.3116 -28.8108 23.0083 -31.0431 22.0837C-37.6325 23.6801 -69.6744 23.6117 -75.6111 23.9519" fill="#DBDBD7"/>
</g>
<g style="mix-blend-mode:multiply">
<path fill-rule="evenodd" clip-rule="evenodd" d="M56.0969 54.3554C66.5223 54.3554 80.144 52.6978 81.7537 52.5209C82.7016 52.2591 83.1375 48.4992 83.1382 44.5015C83.1361 33.8962 81.6222 33.969 79.1145 34.09C79.1145 34.09 57.1403 31.039 43.2037 29.906C42.7407 30.3332 41.493 28.7734 41.2192 29.3061C41.1153 29.458 40.1815 29.5383 38.6158 29.5325C23.943 29.4605 -3.43266 28.9863 -18.0491 30.1347C-20.8224 30.3524 -18.5663 30.9867 -21.8505 30.9594C-28.5324 30.9008 -36.4949 32.1464 -43.6595 32.8203C-53.3421 33.7298 -51.3687 32.3637 -58.3014 34.3314C-60.9037 35.0706 -84.0402 38.51 -86.7727 38.1184C-87.4278 37.9706 -87.8717 38.1646 -87.8129 38.4783C-88.1439 38.5752 -102.947 41.9801 -102.969 42.3285C-103.017 42.6667 -103.443 42.9216 -103.918 42.8052C-104.344 42.7565 -108.665 43.2995 -112.862 44.1643C-117.058 45.0277 -121.157 45.9865 -121.175 46.4704C-121.273 49.2444 -116.323 59.608 -113.894 61.838C-112.613 63.0164 -109.667 62.139 -105.929 60.9706C-94.8587 57.5112 -99.2236 59.5162 -87.3667 57.1052C-54.4659 50.4162 -51.8671 51.3837 -46.2933 51.3383C-45.4555 50.2545 -41.5259 52.0952 -39.4807 50.1947C-38.6269 49.4034 -31.989 48.5385 -30.4512 49.0818C-29.0572 49.4311 -12.2542 57.6133 8.96375 55.7103C30.1817 53.8072 32.0551 54.3554 39.0001 54.3554" fill="#DBDBD7"/>
</g>
</svg>
