<svg width="109" height="49" viewBox="0 0 109 49" fill="none" xmlns="http://www.w3.org/2000/svg">
<g style="mix-blend-mode:multiply">
<path fill-rule="evenodd" clip-rule="evenodd" d="M20.7621 37.9565C18.0975 36.5905 2.19562 40.2694 1.08724 39.9842C0.0143318 39.5071 -0.317074 28.68 0.33022 26.9853C0.559654 26.3827 0.915444 26.2447 1.81545 26.391C2.87949 26.6212 16.4261 24.4141 20.6934 23.768C20.9693 24.0781 21.5202 22.8936 21.7031 23.2857C21.9691 23.7348 29.198 22.9745 36.6862 22.233C41.3724 21.7704 47.9606 21.1211 53.1545 20.7415C54.6353 20.6336 53.5036 21.3389 55.2338 21.0205C58.9203 20.3422 67.0602 20.6616 69.8489 20.0425C72.0933 19.5446 72.5766 19.5125 74.7568 19.8827C76.5801 20.1918 88.719 19.8174 90.089 19.1131C90.4182 18.913 90.6698 18.9939 90.6698 19.2345C90.887 19.2635 98.9627 19.6971 98.9993 19.8962C99.058 20.1379 99.3029 20.2572 99.5446 20.1047C99.9724 19.8329 108.836 19.3662 108.954 20.0746C109.288 22.0898 107.738 30.5003 106.684 32.5227C105.57 34.6635 100.141 31.9284 95.5067 33.1129C72.1643 32.6306 74.7269 32.9106 70.0085 33.8296C69.4654 33.116 67.57 34.9238 66.3032 33.6937C65.7822 33.1896 62.1955 33.2073 61.4252 33.7559C61.0971 33.9893 56.3377 33.9561 51.4398 34.148C49.9102 34.2071 41.747 34.512 40.6386 35.5181C36.7117 34.4353 22.3094 37.6785 20.7621 37.9565" fill="#EFFF54"/>
</g>
<g style="mix-blend-mode:multiply">
<path fill-rule="evenodd" clip-rule="evenodd" d="M17.1142 26.8913C14.8622 25.563 2.44297 29.2498 1.43172 28.9865C0.540808 28.5407 -0.32078 18.1866 0.118104 16.5552C0.274848 15.9758 0.555977 15.8402 1.2952 15.9688C2.0405 16.1463 10.0294 14.5149 16.5186 13.2863C16.7552 13.5825 17.1587 12.4437 17.3215 12.8186C17.5541 13.2474 23.3951 12.4716 29.4525 11.7556C32.2426 11.4265 35.969 10.904 42.7808 10.3405C43.9792 10.2418 43.0701 10.9159 44.4696 10.6178C47.4528 9.98053 54.0502 10.3365 56.3094 9.76912C58.1306 9.3114 58.522 9.28048 60.2856 9.65843C61.6913 9.95959 71.5894 9.76114 72.719 9.10398C72.99 8.9165 73.1922 8.99727 73.1882 9.22863C73.1882 9.22863 79.8928 9.80302 79.9221 9.99449C79.9585 10.2288 80.1608 10.3475 80.359 10.2029C80.7119 9.94662 87.908 9.66142 87.9808 10.3445C88.1881 12.2861 86.6682 20.3406 85.7672 22.2642C84.8095 24.3026 80.5612 21.5732 76.8115 22.6412C58.0518 21.8305 59.4554 22.348 56.4226 23.0251C55.9878 22.3331 54.477 24.0552 53.4587 22.8636C53.043 22.3759 50.166 22.359 49.5583 22.8875C49.4258 22.9862 48.4095 23.0391 46.9351 23.07C45.314 23.1059 34.1235 23.1937 32.9515 24.51C29.9581 23.5307 20.1055 26.1474 17.1142 26.8913" fill="#EFFF54"/>
</g>
<g style="mix-blend-mode:multiply">
<path fill-rule="evenodd" clip-rule="evenodd" d="M25.0801 17.8948C23.0321 16.5002 13.1916 20.2923 12.163 19.9818C11.3782 19.5387 9.77875 9.21429 10.0256 7.58348C10.113 7.00471 10.3414 6.86806 10.9822 6.99366C11.6446 7.17151 17.4788 5.69946 23.7388 4.26359C23.9568 4.56001 24.2335 3.41654 24.394 3.79233C24.6162 4.22239 29.5256 3.43462 34.6233 2.71216C39.6603 1.99774 44.576 1.41596 45.8473 1.29136C46.8584 1.19289 46.1065 1.87114 47.2811 1.5717C49.7878 0.932644 55.3669 1.2994 57.2646 0.733692C58.7993 0.275498 59.1305 0.245354 60.623 0.630196C61.7699 0.926615 70.1539 0.767855 71.1249 0.103676C71.3543 -0.084224 71.525 -0.00182958 71.5188 0.231286C71.5168 0.34684 77.1627 0.720629 77.1956 1.02609C77.2203 1.26222 77.389 1.3838 77.5598 1.23811C77.8601 0.98188 83.9514 0.723643 83.9936 1.41294C84.1108 3.3673 82.5916 11.4701 81.7924 13.4023C80.9418 15.4542 77.495 12.6889 74.366 13.754C68.826 13.4445 67.6853 13.3732 60.4594 13.2908L57.5002 14.0866C57.1309 13.3903 55.9069 15.1236 55.046 13.9178C54.6952 13.4275 52.3079 13.4023 51.8152 13.9329C51.7082 14.0314 50.8678 14.0826 49.6479 14.1107C48.0053 14.1499 39.0195 14.2142 38.1051 15.5295C35.5778 14.5408 27.5518 17.1443 25.0801 17.8948" fill="#EFFF54"/>
</g>
<g style="mix-blend-mode:multiply">
<path fill-rule="evenodd" clip-rule="evenodd" d="M16.0147 48.3425C13.8581 46.9873 5.73658 49.7469 -0.564997 48.7961C-2.86194 48.45 -4.58466 47.7073 -4.91437 47.445C-5.56176 46.7783 -2.38792 42.2572 -0.458768 38.617C0.638595 36.5439 0.813973 35.5231 1.43431 36.2085C2.43647 37.1632 8.16481 35.9245 16.2983 34.8485C16.5368 35.1503 17.0489 34.0358 17.2033 34.4126C17.5921 35.1661 39.3881 32.7418 44.946 32.2359C46.2468 32.1175 45.2647 32.7951 46.781 32.4657C50.0079 31.7644 57.1694 31.8572 59.5896 31.1411C61.5318 30.5661 61.9527 30.5444 63.8838 30.7841C65.8501 31.0277 76.1302 29.9201 77.2166 29.0966C77.4921 28.8875 77.7116 28.9378 77.7337 29.1657C77.883 29.1735 85.0013 28.9221 85.0414 29.0621C85.1176 29.284 85.3481 29.3767 85.5375 29.2051C85.8962 28.9526 93.4966 27.5186 93.692 28.1666C94.2492 30.0286 94.0067 38.1248 93.3142 40.1555C92.5776 42.3105 87.2832 40.3567 83.3207 41.8933C61.0618 43.493 66.0004 42.7898 60.3492 44.2327C59.8301 43.5788 58.1956 45.3758 56.999 44.2406C56.5109 43.7771 53.276 43.8974 52.6045 44.4497C52.0113 44.8728 35.4656 44.8491 33.9043 46.3325C30.7996 45.3649 18.7857 47.8266 16.0147 48.3425" fill="#EFFF54"/>
</g>
</svg>
