<svg width="155" height="53" viewBox="0 0 155 53" fill="none" xmlns="http://www.w3.org/2000/svg">
<g style="mix-blend-mode:multiply">
<path fill-rule="evenodd" clip-rule="evenodd" d="M69.8964 1.71478C73.8182 2.90127 110.685 0.226871 114.946 1.16559C117.133 1.94595 112.797 15.3575 111.057 17.0958C109.779 18.373 109.745 17.1354 100.574 17.2874C90.5368 17.4547 79.2761 18.1597 68.4675 19.2823C67.9155 18.9081 66.6718 20.3922 66.3232 19.9132C65.6587 19.2018 47.6165 21.018 46.4254 21.1393C29.7032 22.8303 17.1244 24.7154 0.699928 27.1459C-2.37761 27.6005 -0.151611 26.4958 -3.70667 27.2838C-10.7187 28.8343 -28.258 30.69 -33.9646 32.3248C-38.4692 33.6135 -39.4696 33.7489 -44.125 33.9928C-48.8675 34.2431 -73.141 38.7234 -75.5867 40.1475C-76.1913 40.5 -76.736 40.5038 -76.8377 40.2165C-77.1173 40.2446 -94.2316 42.7376 -94.3478 42.5805C-94.5821 42.3174 -95.154 42.2663 -95.5734 42.546C-96.5466 43.0965 -114.576 47.0774 -115.153 46.292C-116.815 44.0327 -117.634 33.4755 -116.419 30.6581C-115.144 27.7078 -102.222 28.7027 -93.1005 25.5034C-37.5777 16.2362 -52.1756 19.1942 -38.5509 15.6475C-37.1619 16.3499 -33.5778 13.5542 -30.464 14.6947C-29.1803 15.166 -21.3875 14.1417 -19.8606 13.2502C-19.2033 12.8671 -8.81048 11.6218 1.891 10.3153C4.59633 9.98576 23.4301 7.82605 25.5218 6.57442C32.2524 7.1632 63.9737 2.27163 69.8964 1.71478" fill="#DBDBD7"/>
</g>
<g style="mix-blend-mode:multiply">
<path fill-rule="evenodd" clip-rule="evenodd" d="M61.0348 49.9395C64.7658 48.1742 101.618 45.2723 105.717 43.7012C107.781 42.5994 101.762 29.971 99.8163 28.5116C98.3862 27.4393 98.5112 28.67 89.41 29.9001C79.4492 31.2455 68.2074 32.2426 57.3596 32.7581C56.8611 33.2118 55.4386 31.9294 55.155 32.4561C54.5884 33.2606 36.4882 34.1784 35.2931 34.2375C18.5161 35.0805 5.81711 35.1075 -10.7602 35.1733C-13.8663 35.1864 -11.5198 35.9452 -15.1416 35.7001C-22.2849 35.2204 -39.8922 36.0232 -45.7536 35.2634C-50.3802 34.6654 -51.3883 34.682 -56.0298 35.1413C-60.7583 35.6074 -85.372 34.8249 -87.9771 33.7829C-88.6212 33.5249 -89.1611 33.6031 -89.2248 33.903C-89.5053 33.9172 -106.774 34.025 -106.869 34.198C-107.067 34.4938 -107.627 34.6305 -108.078 34.4167C-109.112 34.0181 -127.479 32.7902 -127.949 33.6549C-129.304 36.1424 -128.756 46.72 -127.191 49.3272C-125.549 52.0569 -112.881 49.1262 -103.436 50.9212C-47.2617 51.7393 -62.0981 51.0079 -48.1497 52.4689C-46.8646 51.5642 -42.9557 53.7931 -40.0189 52.1949C-38.8083 51.535 -30.9596 51.3761 -29.3328 52.029C-28.6326 52.3095 -18.1807 51.978 -7.4153 51.6608C-4.6939 51.5798 14.2345 50.8831 16.4668 51.8077C23.0562 50.2113 55.0981 50.2798 61.0348 49.9395" fill="#DBDBD7"/>
</g>
<g style="mix-blend-mode:multiply">
<path fill-rule="evenodd" clip-rule="evenodd" d="M-66.204 39.0682C-74.3282 37.3383 -111.707 45.2615 -113.866 45.2291C-115.155 45.0685 -116.171 41.7246 -116.637 38.1329C-117.866 28.6043 -115.847 28.5508 -112.502 28.4624C-112.502 28.4624 -83.6693 23.9939 -65.2895 21.8805C-64.6248 22.2279 -63.1489 20.7285 -62.7233 21.1855C-62.5675 21.3138 -61.3179 21.3126 -59.2389 21.1843C-39.758 19.9663 -3.45115 17.3883 16.0968 17.2712C19.8057 17.2488 16.8827 17.9961 21.2418 17.7134C30.1103 17.1355 40.8314 17.6287 50.426 17.671C63.3928 17.7271 60.6129 16.6548 70.05 17.8778C73.5923 18.3373 104.723 19.6089 108.307 19.0422C109.16 18.8579 109.772 18.9974 109.731 19.2838C110.182 19.3448 130.24 21.2403 130.309 21.5517C130.412 21.8518 131.008 22.0473 131.626 21.9054C132.185 21.8282 137.988 21.9764 143.663 22.4234C149.337 22.8693 154.893 23.4086 154.973 23.842C155.426 26.3265 150.054 36.0269 147.088 38.2213C145.523 39.3808 141.508 38.8241 136.407 38.0681C121.301 35.8301 127.332 37.2885 111.303 36.0543C66.8246 32.6307 63.4851 33.7042 56.0763 34.1015C54.8376 33.1936 49.832 35.1564 46.8946 33.6096C45.6685 32.9657 36.7512 32.7104 34.7718 33.3194C32.9608 33.7429 -10.9414 32.4302 -17.0228 34.8737C-27.2078 33.2845 -64.393 38.829 -66.204 39.0682" fill="#DBDBD7"/>
</g>
</svg>
