<svg xmlns="http://www.w3.org/2000/svg" width="355" height="52" viewBox="0 0 355 52">
    <g fill="none" fill-rule="evenodd">
        <g fill="#F1FF54">
            <g>
                <g>
                    <g>
                        <path d="M67.54 20.162c-7.194-1.498-55.38 2.145-58.48 1.817-2.913-.544.834-12.333 3.384-14.161.904-.647 1.984-.816 4.496-.608 2.648.22 30.337-1.211 55.098-2.442 0 0 81.713-2.57 94.28-2.885 4.291-.108.91.646 5.959.312 10.755-.714 34.229-.342 42.368-1.014 6.527-.54 7.932-.567 14.205-.173 5.45.341 40.414-.054 44.351-.89.957-.204 1.68-.132 1.68.126 0 0 17.148.315 23.035.561.666.028 1.052.062 1.065.087.181.26.903.382 1.587.219 1.247-.298 26.813-.898 27.215-.139 1.16 2.182-2.569 11.252-5.542 13.465-3.097 2.304-19.409-.563-32.994.752-70.375-.353-62.01-.071-75.445.883-1.529-.772-7.363 1.17-10.94-.148-1.496-.552-12.078-.529-14.415.058-1.71.429-55.694-.001-61.68 1.786-11.05-1.19-53.773 2.06-59.227 2.394" style="mix-blend-mode:multiply" transform="translate(-1129.000000, -23.000000) translate(1032.000000, 23.000000) translate(194.000000, 0.000000) translate(-97.000000, 0.000000)"/>
                        <path d="M78.214 31c-7.03-1.67-58.496.191-62.246-.309-3.05-.673 1.827-12.562 4.662-14.316 1-.628 2.153-.725 4.8-.438 4.188.544 58.428-.524 58.428-.524.719.37 2.863-.874 3.263-.424 1.25 1.045 89.14-.378 96.634-.44 4.547-.038.949.68 6.3.39 11.403-.57 36.247-.023 44.876-.678 6.914-.543 8.403-.554 15.04-.123 6.781.387 42.832-.175 46.954-1.004 1.006-.229 1.776-.148 1.779.118.001.055 25.409.247 25.524.454.196.263.966.39 1.685.206 1.324-.274 28.378-1.276 28.81-.501 1.328 2.199-2.391 11.557-5.532 13.837-3.21 2.433-20.87-.298-35.065 1.172l-66.076.145-14.165.912c-1.617-.792-7.867 1.2-11.631-.215-1.595-.56-12.84-.645-15.331-.05-2.16.46-59.728-.697-65.633.893-10.51-1.332-53.181.571-63.076.895" style="mix-blend-mode:multiply" transform="translate(-1129.000000, -23.000000) translate(1032.000000, 23.000000) translate(194.000000, 0.000000) translate(-97.000000, 0.000000)"/>
                        <path d="M72.857 39.965C65.92 38.191 14.614 38.9 10.9 38.333c-3.011-.719 2.27-12.165 5.156-13.81 1.019-.587 2.169-.658 4.794-.322 4.15.617 58.188.74 58.188.74.701.375 2.88-.788 3.262-.341 1.207 1.041 88.759 1.538 96.221 1.638 4.528.062.92.683 6.26.515 11.372-.31 36.085.753 44.7.301 6.9-.38 8.384-.36 14.977.202 6.738.52 42.648.746 46.781.029 1.01-.202 1.773-.106 1.767.152-.001.053 25.286.783 25.394.986.186.26.949.4 1.67.238 1.328-.238 28.297-.632 28.7.128 1.243 2.166-2.795 11.18-6.005 13.328-3.284 2.293-20.765-.737-34.952.388l-65.787-1.272-14.133.583c-1.581-.806-7.876.997-11.574-.458-1.566-.58-12.759-.903-15.26-.377-2.168.4-59.437-1.955-65.374-.537-10.416-1.519-52.966-.582-62.827-.479" style="mix-blend-mode:multiply" transform="translate(-1129.000000, -23.000000) translate(1032.000000, 23.000000) translate(194.000000, 0.000000) translate(-97.000000, 0.000000)"/>
                        <path d="M61.823 51.177c-7.5-1.62-57.614 1.164-60.796.788-3.008-.586 1.287-12.164 3.998-13.928.962-.623 2.09-.771 4.691-.524 2.592.247 28.106-.574 57.315-1.453 0 0 75.377-.955 98.038-1.06 4.461-.02.921.657 6.178.428 11.196-.487 35.566.363 44.045-.127 6.8-.393 8.26-.395 14.76.13 5.525.444 41.973.826 46.101.09 1.004-.179 1.75-.094 1.742.163.669.045 3.215.145 3.892.172.265.01 21.022.824 21.116 1.012.178.26.923.399 1.64.252 1.307-.268 27.882-.265 28.272.494 1.12 2.18-3.095 11.046-6.268 13.163-3.3 2.2-20.107-1.007-34.293-.017 0 0-4.03-.108-10.079-.267-60.64-1.603-56.102-1.084-68.306-.51-1.558-.793-7.69.999-11.354-.374-1.535-.575-12.526-.773-14.974-.241-1.746.38-58.014-1.118-64.12.542-11.634-1.407-56.93 1.08-61.598 1.267" style="mix-blend-mode:multiply" transform="translate(-1129.000000, -23.000000) translate(1032.000000, 23.000000) translate(194.000000, 0.000000) translate(-97.000000, 0.000000)"/>
                    </g>
                </g>
            </g>
        </g>
    </g>
</svg>
