<svg width="20" height="20" viewBox="0 0 20 20" fill="none" xmlns="http://www.w3.org/2000/svg">
<path d="M19.1395 4.65074C19.0526 4.56306 18.9492 4.49353 18.8352 4.44619C18.7212 4.39885 18.5989 4.37465 18.4755 4.375H17.8125V2.8125C17.8122 2.56395 17.7134 2.32565 17.5376 2.1499C17.3618 1.97414 17.1236 1.87528 16.875 1.875H3.38387C2.65217 1.87501 1.95045 2.16568 1.43306 2.68306C0.915679 3.20045 0.62501 3.90217 0.625 4.63387V15.3661C0.62501 16.0978 0.915679 16.7995 1.43306 17.3169C1.95045 17.8343 2.65217 18.125 3.38387 18.125H18.4386C18.6865 18.1245 18.9242 18.026 19.0999 17.8509C19.2755 17.6759 19.3748 17.4385 19.3761 17.1905L19.4129 5.3157C19.4137 5.19228 19.3899 5.06993 19.343 4.95577C19.2961 4.84161 19.2269 4.73793 19.1395 4.65074ZM18.1271 16.875H3.38387C2.98369 16.875 2.5999 16.716 2.31694 16.4331C2.03397 16.1501 1.875 15.7663 1.875 15.3661V4.63387C1.875 4.23369 2.03397 3.8499 2.31694 3.56694C2.5999 3.28397 2.98369 3.125 3.38387 3.125H16.5625V4.375H3.4375V5.625H18.162L18.1271 16.875Z" fill="#00092B"/>
<path d="M15.3125 10.3125H16.5625V11.5625H15.3125V10.3125Z" fill="#00092B"/>
</svg>
