<svg width="512" height="512" viewBox="0 0 512 512" fill="none" xmlns="http://www.w3.org/2000/svg">
<g id="Frame">
<g id="Rectangle">
<path id="Vector" d="M509.5 2.5H2.5V509.5H509.5V2.5Z" stroke="white" stroke-width="5" stroke-miterlimit="10"/>
</g>
<g id="Glasses">
<g id="layer1">
<g id="g8806">
<path id="path363125" d="M283 139.61L155.13 143.18L155.28 156.09C156.75 164.8 162.17 177.74 170.57 180.39L189.93 180.27C213.82 142.07 226.6 181.21 233.61 180.27H251.53C271.86 178.44 276.3 162.43 283.03 156.22L283 139.61ZM286.85 139.97V155.26L322.14 153.83C327.63 151.61 324.14 148.54 322.72 147L286.85 139.97Z" fill="black" stroke="black" stroke-width="3"/>
<path id="path296043" d="M254.39 140.29L239.11 177.84L235.93 177.71L251.24 140.34L254.39 140.29ZM270.17 140.29L254.89 177.84L242.94 177.71L258.25 140.34L270.17 140.29ZM190.24 142.42L176 177.84L172.82 177.71L187.09 142.47L190.24 142.42ZM204.24 142.42L190 177.84L179.8 177.71L194.07 142.47L204.24 142.42Z" fill="#F2F2F2"/>
</g>
</g>
</g>
</g>
</svg>
