<svg width="512" height="512" viewBox="0 0 512 512" fill="none" xmlns="http://www.w3.org/2000/svg">
<g id="Frame">
<g id="Rectangle">
<path id="Vector" d="M509.5 2.5H2.5V509.5H509.5V2.5Z" stroke="white" stroke-width="5" stroke-miterlimit="10"/>
</g>
<g id="Glasses">
<g id="layer1">
<g id="g679499">
<path id="rect679888" d="M186.72 182.8H162.21C161.3 182.803 160.399 182.625 159.557 182.279C158.716 181.932 157.951 181.423 157.307 180.78C156.664 180.137 156.153 179.373 155.805 178.532C155.457 177.691 155.279 176.79 155.28 175.88V148.06C155.277 147.149 155.455 146.247 155.802 145.405C156.15 144.563 156.66 143.798 157.304 143.154C157.948 142.51 158.713 141.999 159.555 141.652C160.397 141.305 161.299 141.127 162.21 141.13H201.46C205.3 141.13 208.39 146.13 208.36 149.95C209.78 147.45 231.5 146.72 232.19 149.95C232.26 146.16 235.35 141.17 239.19 141.17H278.45C279.361 141.167 280.263 141.345 281.105 141.692C281.947 142.039 282.712 142.55 283.356 143.194C284 143.838 284.511 144.603 284.858 145.445C285.205 146.287 285.383 147.189 285.38 148.1V151.37L289.18 151.69L321.49 155.76L325.29 166.46C324.02 169.32 320.09 168.86 317.48 165.8L289.18 169.74L285.38 169.86V175.92C285.381 176.83 285.203 177.731 284.855 178.572C284.507 179.413 283.997 180.177 283.353 180.82C282.709 181.463 281.944 181.972 281.103 182.319C280.262 182.665 279.36 182.843 278.45 182.84H239.18C238.271 182.843 237.37 182.665 236.529 182.319C235.688 181.972 234.924 181.462 234.281 180.819C233.638 180.176 233.128 179.412 232.781 178.571C232.435 177.73 232.257 176.829 232.26 175.92V167.52C233.26 160.52 207.69 158.99 208.46 167.72C204.58 174.55 191.33 177.74 186.72 182.8Z" fill="white" stroke="black" stroke-linecap="round" stroke-linejoin="round"/>
<path id="path695542" d="M162.61 142.52C158.78 142.52 156.55 143.96 156.55 147.79V175.2L273 142.37L239.71 142.22C235.87 142.22 232.65 147.41 232.58 151.22C231.89 148.03 209.13 149.22 207.72 151.71C207.72 147.88 204.86 142.98 201.02 142.94L162.61 142.52ZM321.61 159.52L280.72 156L234.5 178.38C235.122 179.373 235.986 180.192 237.011 180.76C238.036 181.328 239.188 181.628 240.36 181.63L277.26 181.5C281.09 181.5 283.26 178.3 284.18 174.58L284.34 169.82L284.6 168.55L318.32 163.9C319.92 166.38 320.61 167.84 323.94 166.17L321.61 159.52ZM207.7 167.34C208.7 162.15 212.7 162.12 216 160.88L215.71 156.82C196.21 162.88 178.99 174.51 164.36 181.82H186.54C191.06 176.91 203.52 173.93 207.7 167.34Z" fill="#F1F1F1"/>
<path id="rect680113" d="M274.45 145.36H243.17C240.122 145.36 237.65 147.832 237.65 150.88V173.05C237.65 176.099 240.122 178.57 243.17 178.57H274.45C277.499 178.57 279.97 176.099 279.97 173.05V150.88C279.97 147.832 277.499 145.36 274.45 145.36Z" fill="#FF0000" stroke="black" stroke-linecap="round" stroke-linejoin="round"/>
<path id="rect680153" d="M166.19 145.36H197.48C198.205 145.359 198.924 145.501 199.594 145.778C200.264 146.055 200.873 146.461 201.386 146.974C201.899 147.487 202.306 148.096 202.583 148.766C202.86 149.437 203.001 150.155 203 150.88V172.88C201.59 174.06 198.63 175.62 192.18 178.61H166.18C165.455 178.612 164.736 178.47 164.066 178.193C163.396 177.916 162.787 177.509 162.274 176.997C161.761 176.484 161.355 175.875 161.078 175.204C160.801 174.534 160.659 173.816 160.66 173.09V150.88C160.659 150.154 160.801 149.435 161.079 148.764C161.356 148.093 161.764 147.484 162.278 146.971C162.791 146.458 163.402 146.051 164.073 145.775C164.745 145.499 165.464 145.358 166.19 145.36Z" fill="#0000FF" stroke="black" stroke-linecap="round" stroke-linejoin="round"/>
<path id="path686886" d="M250.73 177.48L270.73 146.48L251.55 146.42L238.55 167.86C238.49 179.42 240.48 177.66 250.7 177.51L250.73 177.48Z" fill="#FF8F8F"/>
<path id="path693730" d="M173.76 177.48L193.76 146.48L174.58 146.42L161.58 167.86C161.52 179.42 163.51 177.66 173.74 177.51L173.76 177.48Z" fill="#8F8FFF"/>
</g>
</g>
</g>
</g>
</svg>
