<svg width="512" height="512" viewBox="0 0 512 512" fill="none" xmlns="http://www.w3.org/2000/svg">
<g id="Frame">
<g id="Rectangle">
<path id="Vector" d="M509.5 2.5H2.5V509.5H509.5V2.5Z" stroke="white" stroke-width="5" stroke-miterlimit="10"/>
</g>
<g id="Glasses">
<g id="layer1">
<g id="g1849">
<path id="path621540-2" d="M207.78 166.62C201.61 177.12 181.69 177.79 171.19 171.5C168.84 162 191.18 129 207.78 166.62ZM273.45 163.69C266.35 174.5 243.45 175.19 231.31 168.69C228.6 158.93 254.33 125 273.45 163.69Z" fill="white"/>
<path id="path530256" d="M276.89 135.43C276.89 135.43 286.22 131.94 286 148.79C285.78 165.64 283.75 185.71 283.75 185.71L240.46 186.3L234.46 171.88C234.46 171.88 252.08 173.77 258.14 172.23C264.2 170.69 275.04 167.02 275.04 167.02C275.04 167.02 271.04 153.77 264.73 150.86C260.656 148.915 256.902 146.359 253.6 143.28C253.6 143.28 262.1 136.17 268.14 136.17C271.059 136.273 273.98 136.025 276.84 135.43H276.89Z" fill="#CCCCCC"/>
<path id="path621542-7" d="M176.67 164.93C176.6 172.33 181.87 176.41 188.58 176.49C195.29 176.57 200.91 172.62 200.98 165.23C201.05 157.84 195.67 151.78 188.98 151.7C182.29 151.62 176.74 157.54 176.67 164.93ZM237.61 161.93C237.53 169.55 243.45 174.32 251.18 174.41C258.91 174.5 265.55 169.85 265.63 162.24C265.671 158.527 264.235 154.95 261.639 152.295C259.043 149.641 255.498 148.126 251.785 148.085C248.072 148.044 244.495 149.48 241.84 152.076C239.185 154.673 237.671 158.217 237.63 161.93H237.61Z" fill="#333333"/>
<path id="ellipse621546-0" d="M188.55 162.38C188.55 163.92 190.45 165.2 192.83 165.22C195.21 165.24 197.15 164.03 197.17 162.49C197.17 160.94 195.26 159.67 192.88 159.64C190.5 159.61 188.56 160.84 188.55 162.38ZM251.81 159.16C251.81 160.75 254 162.06 256.74 162.09C259.48 162.12 261.74 160.86 261.74 159.27C261.74 157.68 259.55 156.37 256.81 156.34C254.07 156.31 251.81 157.57 251.81 159.16Z" fill="white"/>
<path id="path621544-3" d="M207.78 166.62C201.61 177.12 181.86 177.23 171.36 170.93C171.11 169.93 171.68 167.38 171.96 165.93C174.3 153.93 194.73 134.83 207.78 166.63V166.62ZM273.45 163.69C266.35 174.5 243.45 175.19 231.31 168.69C231.02 167.407 231.044 166.072 231.38 164.8C234.08 152.43 256.38 129.15 273.45 163.67V163.69Z" stroke="#999999" stroke-width="3" stroke-miterlimit="15.12"/>
<path id="path1569" d="M280.05 131.1L165.45 133C159.74 133.81 155.35 136 155.45 143.07L156.22 183.07C157.27 190.42 160.92 192.14 166.79 192.93L177.61 193.16C177.633 190.519 178.605 187.974 180.35 185.99C179.48 185.99 169.94 186.39 164.48 185.29C158.75 184.14 160.58 180.91 160.58 180.91H187.08L183.24 183.91C184.802 183.117 186.454 182.516 188.16 182.12L197.44 175.53C215.79 169.24 229.84 169.92 235.17 185.13L243.06 193.33L282.35 193.26C285.17 191.51 288.29 190.72 289.96 185.15L291.08 149.96L325.45 146.8L325.24 139.22L289.53 137.74C287.255 134.481 283.888 132.144 280.04 131.15L280.05 131.1ZM276.12 138.22C283.28 138.55 283.12 141.87 283.59 144.93L161.1 144.61C160.87 142.5 161.3 141.76 164.71 140.12L276.12 138.22ZM283.33 149.78L283.59 155.36L161.11 155L161.3 149.93L283.33 149.78ZM283.38 159.6L283.78 164.6L161.15 165.34V160L283.38 159.6ZM283.56 169.4L283.51 175.34L237.9 175.4L234.3 169.68L283.56 169.4ZM200.2 169.79L198.56 174.27L195.56 174.84L160.47 174.94L160.98 170.07L200.2 169.79ZM240.2 180.37L283.62 180.51C283.62 180.51 282.13 184.2 280.21 185.21C278.29 186.22 242.21 185.36 242.21 185.36L240.2 180.37Z" fill="#008080"/>
<path id="path28071" d="M290.19 137.81L325.07 139V146.78L290 150.18L290.19 137.81ZM179.84 186L166.13 185.9C160.69 185.9 160.13 182.79 160.13 177.52V145.13C160.13 139.86 164.51 139.66 169.94 139.57L273.86 137.76C279.3 137.67 283.68 139.26 283.68 144.53V177.3C283.68 182.56 282.41 185.48 276.97 185.5L241.33 185.6C236.33 169.46 233.56 165.88 212.88 166.27C205.4 166.42 199.77 168.88 199.22 173.53L179.84 186ZM160.77 180.37H188.11H160.77ZM240 180L283.15 179.73C283.77 181.34 283.89 185.73 274.56 185.64L241.67 185.79L240 180ZM195.67 175.57L160.16 175.73L160.32 170.08L199.87 169.83L195.67 175.57ZM233.42 169.61L283.42 169.3V175.16L237.61 175.38L233.42 169.61ZM160.61 159.9L283.69 159.12V165L160.45 165.57L160.61 159.9ZM160.61 149.98L283.68 149.2V155.07L160.45 155.64L160.61 149.98ZM168.9 139.52L275.81 137.79C276.55 137.97 283.72 137.08 283.72 144.66L160.49 145.23C160.56 141 162.43 139.53 168.9 139.53V139.52ZM165.9 133.19L280 131.28C281.323 131.272 282.635 131.527 283.859 132.03C285.083 132.532 286.196 133.273 287.131 134.209C288.067 135.144 288.808 136.257 289.311 137.481C289.813 138.705 290.068 140.017 290.06 141.34V183.09C290.068 184.413 289.813 185.725 289.311 186.949C288.808 188.173 288.067 189.285 287.131 190.221C286.196 191.157 285.083 191.898 283.859 192.4C282.635 192.903 281.323 193.158 280 193.15L244.55 192.84C240.81 192.6 238.03 190.45 236.01 186.72C234.46 183.86 235.01 169.91 209.81 171.44C199.67 172.05 193.81 177.64 187.92 180.96C182.03 184.28 178.26 186.19 177.92 192.29L165.85 192.19C160.27 192.19 155.79 188.91 155.79 183.34V143.25C155.798 140.585 156.861 138.032 158.746 136.149C160.631 134.265 163.185 133.205 165.85 133.2L165.9 133.19Z" stroke="black" stroke-width="3" stroke-linecap="round" stroke-linejoin="round"/>
</g>
</g>
</g>
</g>
</svg>
