<svg width="512" height="512" viewBox="0 0 512 512" fill="none" xmlns="http://www.w3.org/2000/svg">
<g id="Frame">
<g id="Rectangle">
<path id="Vector" d="M509.5 2.5H2.5V509.5H509.5V2.5Z" stroke="white" stroke-width="5" stroke-miterlimit="10"/>
</g>
<g id="Glasses">
<g id="layer1">
<g id="g68370">
<path id="path60883" d="M206.57 159.85C197.02 175.14 172.12 174.25 159.29 163.76C156.66 152.76 186.77 115.85 206.57 159.85ZM278.24 160.45C268.24 176.53 242.01 175.59 228.51 164.56C225.75 153 257.41 114.17 278.24 160.45Z" fill="white"/>
<path id="path60885" d="M166.61 156.47C166.21 164.97 172.61 171.41 181.29 171.81C189.97 172.21 197.49 166.44 197.89 157.94C198.006 153.839 196.508 149.856 193.718 146.848C190.928 143.84 187.069 142.047 182.971 141.855C178.873 141.662 174.863 143.085 171.804 145.819C168.744 148.552 166.879 152.376 166.61 156.47ZM236.21 156.89C235.79 165.83 242.56 172.6 251.65 173.03C260.74 173.46 268.65 167.38 269.11 158.44C269.251 154.116 267.684 149.91 264.749 146.731C261.814 143.553 257.746 141.657 253.424 141.453C249.102 141.25 244.874 142.755 241.653 145.643C238.432 148.532 236.477 152.572 236.21 156.89Z" fill="#333333"/>
<path id="path60887" d="M206.57 159.85C197.76 176.14 171.87 178.25 159.29 163.76C159.025 162.315 159.108 160.828 159.53 159.42C163.04 145.7 188.91 120.6 206.53 159.85H206.57ZM278.24 160.45C268.98 177.57 241.75 179.8 228.51 164.56C228.238 163.038 228.327 161.472 228.77 159.99C232.46 145.57 259.66 119.16 278.24 160.45V160.45Z" stroke="#999999" stroke-width="3" stroke-miterlimit="15.12"/>
<path id="circle59194" d="M252.75 128.18C246.348 128.18 240.137 130.358 235.138 134.357C230.138 138.355 226.648 143.935 225.24 150.18C221.68 148.29 213.32 146.85 208.39 149.6C207.197 144.713 204.652 140.259 201.047 136.75C197.442 133.24 192.922 130.816 188.004 129.754C183.086 128.692 177.968 129.036 173.236 130.745C168.504 132.455 164.349 135.461 161.245 139.421C158.141 143.381 156.214 148.134 155.684 153.137C155.155 158.141 156.043 163.192 158.249 167.714C160.455 172.236 163.889 176.046 168.158 178.709C172.427 181.371 177.359 182.779 182.39 182.77C182.59 182.77 182.84 182.9 182.99 182.77C185.705 180.813 188.667 179.226 191.8 178.05C194.55 176.91 200.38 172.38 201.52 174.75C205.703 170.483 208.337 164.938 209 159C211.511 157.957 214.213 157.456 216.931 157.53C219.649 157.604 222.32 158.252 224.77 159.43C225.53 166.37 228.838 172.78 234.054 177.42C239.271 182.059 246.023 184.598 253.004 184.543C259.985 184.488 266.697 181.844 271.839 177.123C276.982 172.402 280.189 165.941 280.84 158.99L287.12 158.58L324.39 157.64C325.67 155.88 326.28 153.83 324.17 150.64L287.51 149L279.92 148.89C278.281 142.941 274.736 137.693 269.828 133.953C264.92 130.212 258.921 128.184 252.75 128.18ZM252.75 131.52C259.342 131.52 265.663 134.138 270.325 138.798C274.987 143.458 277.607 149.779 277.61 156.37C277.612 161.287 276.156 166.095 273.425 170.184C270.695 174.274 266.813 177.462 262.271 179.345C257.728 181.228 252.729 181.722 247.906 180.764C243.083 179.806 238.653 177.439 235.175 173.962C231.697 170.486 229.329 166.056 228.369 161.234C227.408 156.411 227.9 151.412 229.782 146.869C231.663 142.326 234.849 138.443 238.938 135.711C243.026 132.978 247.833 131.52 252.75 131.52ZM182.34 132.35C187.012 132.352 191.579 133.739 195.463 136.336C199.348 138.933 202.375 142.623 204.162 146.94C205.95 151.257 206.418 156.006 205.506 160.589C204.595 165.172 202.346 169.381 199.043 172.686C195.739 175.99 191.531 178.241 186.949 179.154C182.366 180.068 177.616 179.602 173.299 177.816C168.981 176.031 165.29 173.005 162.692 169.122C160.093 165.239 158.704 160.672 158.7 156C158.697 152.895 159.307 149.819 160.494 146.949C161.681 144.079 163.422 141.471 165.618 139.275C167.813 137.078 170.42 135.336 173.29 134.148C176.159 132.96 179.234 132.349 182.34 132.35Z" fill="#333333"/>
<path id="ellipse60891" d="M171.66 160.44C171.674 161.533 172.101 162.581 172.856 163.372C173.612 164.162 174.639 164.637 175.73 164.7C176.253 164.761 176.782 164.714 177.286 164.562C177.789 164.411 178.256 164.158 178.658 163.818C179.06 163.479 179.389 163.061 179.623 162.59C179.857 162.119 179.992 161.605 180.02 161.08C180.014 159.986 179.59 158.936 178.836 158.144C178.081 157.352 177.052 156.879 175.96 156.82C175.437 156.756 174.906 156.801 174.4 156.951C173.895 157.102 173.426 157.355 173.022 157.694C172.619 158.034 172.29 158.453 172.055 158.925C171.821 159.398 171.686 159.913 171.66 160.44ZM181.82 151.3C181.836 152.751 182.402 154.142 183.405 155.191C184.407 156.24 185.771 156.869 187.22 156.95C187.913 157.033 188.616 156.973 189.285 156.773C189.954 156.573 190.575 156.237 191.109 155.787C191.642 155.337 192.078 154.781 192.387 154.156C192.697 153.53 192.875 152.847 192.91 152.15C192.895 150.702 192.329 149.313 191.329 148.266C190.328 147.219 188.966 146.591 187.52 146.51C186.827 146.427 186.125 146.487 185.456 146.686C184.787 146.886 184.166 147.22 183.632 147.669C183.097 148.118 182.661 148.672 182.349 149.297C182.038 149.921 181.858 150.603 181.82 151.3ZM241.52 161.06C241.533 162.21 241.983 163.312 242.777 164.144C243.572 164.975 244.652 165.474 245.8 165.54C246.351 165.613 246.911 165.57 247.444 165.414C247.977 165.259 248.472 164.994 248.898 164.636C249.323 164.279 249.669 163.837 249.914 163.338C250.159 162.839 250.297 162.295 250.32 161.74C250.307 160.589 249.858 159.486 249.064 158.653C248.27 157.819 247.189 157.318 246.04 157.25C245.49 157.185 244.932 157.234 244.401 157.393C243.871 157.552 243.378 157.818 242.954 158.175C242.531 158.533 242.185 158.973 241.938 159.469C241.691 159.965 241.549 160.507 241.52 161.06ZM253.22 151.46C253.233 152.987 253.828 154.452 254.883 155.555C255.939 156.659 257.375 157.319 258.9 157.4C259.63 157.489 260.371 157.426 261.076 157.216C261.781 157.007 262.436 156.654 262.999 156.18C263.561 155.706 264.021 155.122 264.348 154.463C264.675 153.804 264.863 153.085 264.9 152.35C264.887 150.825 264.294 149.362 263.241 148.258C262.187 147.155 260.753 146.494 259.23 146.41C258.5 146.323 257.76 146.386 257.055 146.597C256.351 146.807 255.697 147.16 255.135 147.634C254.572 148.107 254.113 148.691 253.785 149.349C253.458 150.007 253.269 150.726 253.23 151.46H253.22Z" fill="white"/>
<path id="path60893" d="M182.11 133.82C179.207 133.817 176.333 134.387 173.65 135.496C170.968 136.605 168.53 138.231 166.477 140.283C164.424 142.335 162.795 144.771 161.683 147.452C160.572 150.133 160 153.007 160 155.91C160 158.813 160.572 161.687 161.683 164.368C162.795 167.05 164.424 169.486 166.477 171.537C168.53 173.589 170.968 175.215 173.65 176.324C176.333 177.433 179.207 178.003 182.11 178C187.886 177.877 193.384 175.496 197.425 171.368C201.467 167.24 203.73 161.692 203.73 155.915C203.73 150.138 201.467 144.59 197.425 140.462C193.384 136.334 187.886 133.953 182.11 133.83V133.82ZM182.11 135.17C187.611 135.17 192.886 137.355 196.775 141.245C200.665 145.134 202.85 150.409 202.85 155.91C202.847 161.41 200.661 166.684 196.772 170.573C192.884 174.461 187.61 176.647 182.11 176.65C179.386 176.65 176.689 176.114 174.173 175.071C171.657 174.029 169.37 172.501 167.445 170.575C165.519 168.65 163.991 166.363 162.949 163.847C161.906 161.331 161.37 158.634 161.37 155.91C161.369 153.186 161.904 150.489 162.946 147.972C163.988 145.455 165.516 143.168 167.442 141.242C169.368 139.316 171.655 137.788 174.172 136.746C176.688 135.704 179.386 135.169 182.11 135.17ZM252.53 133.08C246.369 133.08 240.46 135.528 236.104 139.884C231.747 144.24 229.3 150.149 229.3 156.31C229.3 162.471 231.747 168.38 236.104 172.736C240.46 177.093 246.369 179.54 252.53 179.54C258.691 179.54 264.6 177.093 268.956 172.736C273.313 168.38 275.76 162.471 275.76 156.31C275.76 150.149 273.313 144.24 268.956 139.884C264.6 135.528 258.691 133.08 252.53 133.08ZM252.53 134.5C255.395 134.499 258.231 135.062 260.878 136.158C263.525 137.253 265.929 138.86 267.955 140.885C269.98 142.911 271.587 145.315 272.682 147.962C273.778 150.609 274.341 153.446 274.34 156.31C274.341 159.175 273.778 162.012 272.683 164.659C271.587 167.307 269.981 169.712 267.956 171.739C265.93 173.765 263.525 175.372 260.879 176.469C258.232 177.566 255.395 178.13 252.53 178.13C249.665 178.13 246.828 177.566 244.181 176.469C241.535 175.372 239.13 173.765 237.104 171.739C235.079 169.712 233.473 167.307 232.377 164.659C231.282 162.012 230.719 159.175 230.72 156.31C230.719 153.446 231.282 150.609 232.378 147.962C233.473 145.315 235.08 142.911 237.105 140.885C239.131 138.86 241.535 137.253 244.182 136.158C246.829 135.062 249.665 134.499 252.53 134.5Z" fill="white"/>
<path id="circle60895" d="M206.09 155.83C206.091 158.971 205.474 162.08 204.273 164.982C203.072 167.883 201.31 170.52 199.09 172.74C196.869 174.961 194.233 176.722 191.332 177.923C188.43 179.124 185.32 179.742 182.18 179.74C175.839 179.74 169.757 177.221 165.273 172.737C160.789 168.253 158.27 162.172 158.27 155.83C158.27 149.489 160.789 143.407 165.273 138.923C169.757 134.439 175.839 131.92 182.18 131.92C188.521 131.92 194.603 134.439 199.087 138.923C203.571 143.407 206.09 149.489 206.09 155.83ZM277.75 156.22C277.75 162.891 275.1 169.288 270.384 174.004C265.667 178.721 259.27 181.37 252.6 181.37C249.297 181.37 246.027 180.72 242.976 179.456C239.924 178.192 237.152 176.339 234.816 174.004C232.481 171.669 230.628 168.896 229.364 165.845C228.101 162.793 227.45 159.523 227.45 156.22C227.45 152.918 228.101 149.647 229.364 146.596C230.628 143.544 232.481 140.772 234.816 138.437C237.152 136.101 239.924 134.249 242.976 132.985C246.027 131.721 249.297 131.07 252.6 131.07C259.27 131.07 265.667 133.72 270.384 138.437C275.1 143.153 277.75 149.55 277.75 156.22Z" fill="white" fill-opacity="0.4"/>
</g>
</g>
</g>
</g>
</svg>
