<svg width="512" height="512" viewBox="0 0 512 512" fill="none" xmlns="http://www.w3.org/2000/svg">
<g id="Frame">
<g id="Rectangle">
<path id="Vector" d="M509.5 2.5H2.5V509.5H509.5V2.5Z" stroke="white" stroke-width="5" stroke-miterlimit="10"/>
</g>
<g id="Glasses">
<g id="layer1">
<g id="g621425">
<path id="path640547" opacity="0.94" d="M195.42 138.47C178.69 133.31 155.54 133.53 154.75 163.39C154 191 171.62 189.17 181.9 188.82C186.17 182.39 193.37 180.99 202.44 174.47C203.65 171.54 206.02 169.58 211.69 168.34C218.19 167.88 229.18 165.81 234.54 171.97C250.01 203.3 285.23 189.87 295.28 178.97C310.04 162.97 294.72 127.78 257.28 136.87C237.18 141.75 217.28 145.2 195.38 138.44L195.42 138.47Z" fill="#1A1A1A"/>
<path id="path643041" d="M298.94 180.81L323 170.33C324.93 165.93 323.89 162.66 323.23 159.24L301.66 148.54C290.47 136.2 278.88 132.78 271.09 132.75C255.76 134.32 246.31 138.01 238.15 139.13C217.64 143.78 194.15 134.57 194.15 134.57C179.08 131.98 166.23 132.18 161.33 142.33C171.02 135.2 182.42 135.17 194.55 138.15C194.55 138.15 208.18 142.15 218.26 142.77C228.34 143.39 242.98 141.66 257.15 137.6C265.558 135.166 274.534 135.571 282.69 138.75C282.53 138.51 298.99 144.08 301.26 160.35C303.79 178.46 283.71 187.6 275.61 189.43C250.72 195 237.73 181.11 238 177C238 177 237.35 174.35 233.48 170.81C229.61 167.27 215.64 168.23 211.87 168.06C208.1 167.89 202.51 173.68 202.51 173.68C214.89 172 232.57 167.68 243.81 186.54C248.12 194.24 270.31 194.98 275.51 193.36C284.07 190.7 291.79 188.98 298.96 180.82L298.94 180.81ZM159.53 184.6C164.47 193.19 172.37 192.73 179.99 193.14L180.52 189.4C169.93 190 164.26 187.73 159.53 184.6Z" fill="#010100"/>
<path id="path629665" d="M180.48 189.37C156 190.67 155 178.21 155 163.25C155 148.29 161.78 136.09 180 136.09C184.541 136.086 189.064 136.661 193.46 137.8C218.23 146.37 239 142.22 258.52 137.16C261.677 136.376 264.917 135.98 268.17 135.98C286.43 135.98 301.23 148.11 301.23 163.07C301.23 178.03 286.43 189.91 268.17 190.25C250.93 190.58 246.32 190.25 234.17 171.31C231.51 168.16 218.9 167.73 213.66 168.25C211.433 168.183 209.227 168.701 207.263 169.754C205.299 170.807 203.646 172.358 202.47 174.25L180.48 189.37ZM202.47 174.4C205.38 173.342 208.429 172.719 211.52 172.55C235.15 171.9 239.86 179.61 241.06 182.55C243.18 187.83 251.45 193.64 257.97 193.55C281.88 196.36 304.44 185.55 304.76 163.23C304.53 146.41 289.64 132.78 270.98 132.78C267.649 132.78 264.332 133.228 261.12 134.11C241.12 139.79 219.79 144.45 194.47 134.83C190.017 133.545 185.405 132.896 180.77 132.9C162.11 132.9 153.63 147.82 154.32 164.62C155.23 187 161.87 193.19 180.12 193.01C180.13 191.69 180.434 190.388 181.01 189.2L202.47 174.4ZM300.3 147.7L323.17 159.35C324.71 165.82 324.63 169.47 323.05 170.52L298.7 181.13C307.22 168.78 304.46 155.51 300.3 147.7Z" stroke="#EA9C00" stroke-width="3" stroke-linecap="round" stroke-linejoin="round"/>
<path id="path647615" d="M195 141C179.09 135.88 156.05 136.83 157 164.38C157.86 189.32 171.56 186.45 181 186.16C184.77 181.31 194.42 177.84 201.23 173.7C201.976 171.917 203.156 170.349 204.664 169.141C206.171 167.932 207.958 167.12 209.86 166.78C216.15 165.56 232.17 164.09 236.48 170.28C252.93 194.82 284.83 186.65 293.93 177.11C307.39 162.97 291.61 130.74 258.12 140.16C239.23 145.46 216.85 148.04 194.97 141H195Z" fill="url(#paint0_linear_104_372)"/>
<path id="ellipse656345" d="M279.24 172.61C290.672 172.61 299.94 164.014 299.94 153.41C299.94 142.806 290.672 134.21 279.24 134.21C267.808 134.21 258.54 142.806 258.54 153.41C258.54 164.014 267.808 172.61 279.24 172.61Z" fill="white" fill-opacity="0.31"/>
</g>
</g>
</g>
</g>
<defs>
<linearGradient id="paint0_linear_104_372" x1="238.41" y1="85.5312" x2="226.73" y2="171.526" gradientUnits="userSpaceOnUse">
<stop stop-color="#FFBD07"/>
<stop offset="1" stop-color="white" stop-opacity="0"/>
</linearGradient>
</defs>
</svg>
