<svg width="512" height="512" viewBox="0 0 512 512" fill="none" xmlns="http://www.w3.org/2000/svg">
<g id="Frame">
<g id="Rectangle">
<path id="Vector" d="M509.5 2.5H2.5V509.5H509.5V2.5Z" stroke="white" stroke-width="5" stroke-miterlimit="10"/>
</g>
<g id="Glasses">
<g id="layer1">
<g id="g700125">
<g id="path708824">
<path d="M276.31 175.891L320.82 169.891L321 155.101L274.35 145.271" fill="#6F6F6F"/>
<path d="M276.31 175.891L320.82 169.891L321 155.101L274.35 145.271" stroke="black" stroke-linecap="round" stroke-linejoin="round"/>
</g>
<path id="rect706623" d="M207.4 153.39H220.19V165.77H207.4V153.39ZM189.4 141.23C176.72 139.54 158.32 143.39 160.7 163.06C158.08 177.85 170.92 184.23 182.87 184.85C186.92 184.79 201.07 174 210.03 170.49L210.81 165.85L207.44 165.75C207.23 158.91 207.36 152.38 208.63 153.08C204.74 144.08 197.63 141.23 189.4 141.23ZM255.66 138.36C241.41 136.36 222.75 144.78 222.5 161.13C222.5 179.13 241.25 187.01 255.66 184.03C270.05 184.03 281.71 173.81 281.71 161.2C281.71 148.59 270.06 138.36 255.67 138.36H255.66Z" fill="#6F6F6F" stroke="black" stroke-linecap="round" stroke-linejoin="round"/>
<g id="path703129">
<path d="M243.74 138.23C238.595 138.229 233.595 139.932 229.522 143.075C225.449 146.218 222.533 150.622 221.23 155.599C219.926 160.576 220.31 165.844 222.32 170.58C224.331 175.315 227.854 179.251 232.34 181.77C236.825 184.29 242.019 185.251 247.109 184.504C252.199 183.757 256.898 181.343 260.47 177.641C264.042 173.938 266.286 169.156 266.851 164.043C267.415 158.929 266.268 153.773 263.59 149.38L278.94 150.56C276.71 147.38 275.03 144.22 267.45 140.84L253.68 140.47C250.573 138.997 247.178 138.232 243.74 138.23ZM178.59 141.1C167.74 141.1 158.94 150.99 158.94 163.19C158.94 175.39 167.74 185.29 178.59 185.29C189.44 185.29 198.24 175.4 198.24 163.19C198.24 150.98 189.44 141.1 178.59 141.1ZM242.32 142.42C246.092 142.42 249.779 143.539 252.915 145.634C256.051 147.73 258.495 150.708 259.938 154.193C261.382 157.677 261.759 161.512 261.024 165.211C260.288 168.91 258.471 172.308 255.804 174.975C253.137 177.642 249.74 179.458 246.04 180.194C242.341 180.93 238.507 180.552 235.022 179.109C231.538 177.665 228.559 175.221 226.464 172.085C224.368 168.949 223.25 165.262 223.25 161.49C223.249 158.986 223.741 156.505 224.699 154.191C225.657 151.877 227.061 149.774 228.832 148.003C230.604 146.232 232.706 144.827 235.021 143.869C237.335 142.912 239.815 142.419 242.32 142.42ZM177.39 145.08C186.28 145.08 193.5 153.19 193.5 163.19C193.5 173.19 186.28 181.31 177.39 181.31C168.5 181.31 161.28 173.2 161.28 163.19C161.28 153.18 168.49 145.08 177.39 145.08ZM253.97 140.58C257.13 141.87 260.2 146.06 263.53 149.28L253.97 140.58Z" fill="#CCCCCC"/>
<path d="M253.97 140.58C257.13 141.87 260.2 146.06 263.53 149.28M243.74 138.23C238.595 138.229 233.595 139.932 229.522 143.075C225.449 146.218 222.533 150.622 221.23 155.599C219.926 160.576 220.31 165.844 222.32 170.58C224.331 175.315 227.854 179.251 232.34 181.77C236.825 184.29 242.019 185.251 247.109 184.504C252.199 183.757 256.898 181.343 260.47 177.641C264.042 173.938 266.286 169.156 266.851 164.043C267.415 158.929 266.268 153.773 263.59 149.38L278.94 150.56C276.71 147.38 275.03 144.22 267.45 140.84L253.68 140.47C250.573 138.997 247.178 138.232 243.74 138.23ZM178.59 141.1C167.74 141.1 158.94 150.99 158.94 163.19C158.94 175.39 167.74 185.29 178.59 185.29C189.44 185.29 198.24 175.4 198.24 163.19C198.24 150.98 189.44 141.1 178.59 141.1ZM242.32 142.42C246.092 142.42 249.779 143.539 252.915 145.634C256.051 147.73 258.495 150.708 259.938 154.193C261.382 157.677 261.759 161.512 261.024 165.211C260.288 168.91 258.471 172.308 255.804 174.975C253.137 177.642 249.74 179.458 246.04 180.194C242.341 180.93 238.507 180.552 235.022 179.109C231.538 177.665 228.559 175.221 226.464 172.085C224.368 168.949 223.25 165.262 223.25 161.49C223.249 158.986 223.741 156.505 224.699 154.191C225.657 151.877 227.061 149.774 228.832 148.003C230.604 146.232 232.706 144.827 235.021 143.869C237.335 142.912 239.815 142.419 242.32 142.42V142.42ZM177.39 145.08C186.28 145.08 193.5 153.19 193.5 163.19C193.5 173.19 186.28 181.31 177.39 181.31C168.5 181.31 161.28 173.2 161.28 163.19C161.28 153.18 168.49 145.08 177.39 145.08V145.08Z" stroke="black" stroke-linecap="round" stroke-linejoin="round"/>
</g>
<path id="path715595" d="M260.14 162.62C259.27 174.05 251.46 177.2 249.53 177.62C241.776 179.213 233.72 178.4 226.44 175.29C220.07 172.4 215.11 169.29 214.76 162.11C214.46 156.03 218.89 151.59 225.76 148.68C234.49 144.97 245.62 142.35 250.28 145.14C256.56 148.9 260.79 154.65 260.18 162.58L260.14 162.62Z" fill="url(#paint0_linear_104_358)" stroke="#999999" stroke-linecap="round" stroke-linejoin="round"/>
<path id="circle703127" d="M192.54 163.061C191.91 172.941 187.54 178.891 178.24 178.921C173.205 179.067 168.177 178.426 163.34 177.021C155.42 174.501 148.93 172.151 149.05 164.371C149.15 157.281 154.47 154.471 162.6 150.901C170.73 147.331 179.93 146.041 184.25 148.201C191.93 152.041 192.68 160.841 192.54 163.061Z" fill="url(#paint1_linear_104_358)" stroke="#999999" stroke-linecap="round" stroke-linejoin="round"/>
<path id="path716511" d="M186.68 141.1C197.04 141.1 205.43 150.84 205.43 162.84C205.447 166.738 204.528 170.582 202.75 174.05M274.7 158L286.08 158.87L285.8 164L274.75 163.69L274.7 158ZM252.7 138.24C264.96 138.24 274.89 148.48 274.89 161.12C274.956 166.58 273.05 171.881 269.52 176.048C265.991 180.214 261.077 182.967 255.68 183.8L252.7 138.24Z" stroke="black" stroke-linecap="round" stroke-linejoin="round"/>
<path id="path709706" d="M223.17 153.32C219.62 153.32 216.73 157.25 216.73 162.1C216.73 166.95 219.62 170.88 223.17 170.88C226.72 170.88 229.61 166.95 229.61 162.1C229.61 157.25 226.72 153.32 223.17 153.32ZM157.26 155.93C153.87 155.93 151.13 159.58 151.13 164.07C151.13 168.57 153.87 172.21 157.26 172.21C160.65 172.21 163.39 168.57 163.39 164.07C163.39 159.57 160.64 155.93 157.26 155.93Z" fill="#333333" stroke="black" stroke-linecap="round" stroke-linejoin="round"/>
<path id="ellipse710061" d="M225.44 153.601C224.702 153.662 224.017 154.011 223.532 154.571C223.048 155.132 222.803 155.861 222.85 156.601C222.803 157.34 223.048 158.069 223.532 158.63C224.017 159.191 224.702 159.539 225.44 159.601C226.18 159.542 226.868 159.194 227.354 158.633C227.841 158.072 228.087 157.342 228.04 156.601C228.087 155.859 227.841 155.129 227.354 154.568C226.868 154.007 226.18 153.659 225.44 153.601ZM160.06 157.361C159.439 157.262 158.802 157.357 158.237 157.633C157.671 157.908 157.204 158.35 156.898 158.9C156.592 159.45 156.462 160.08 156.526 160.706C156.59 161.332 156.845 161.923 157.256 162.399C157.668 162.875 158.215 163.214 158.825 163.368C159.435 163.523 160.077 163.487 160.666 163.265C161.254 163.042 161.76 162.644 162.115 162.125C162.47 161.606 162.657 160.99 162.65 160.361C162.695 159.622 162.449 158.894 161.965 158.334C161.481 157.774 160.798 157.424 160.06 157.361Z" fill="white"/>
</g>
</g>
</g>
</g>
<defs>
<linearGradient id="paint0_linear_104_358" x1="237.348" y1="161.073" x2="259.083" y2="161.035" gradientUnits="userSpaceOnUse">
<stop stop-color="white"/>
<stop offset="1" stop-color="#FFBFBF"/>
</linearGradient>
<linearGradient id="paint1_linear_104_358" x1="5364.55" y1="12188.7" x2="5622.59" y2="12210.1" gradientUnits="userSpaceOnUse">
<stop stop-color="white"/>
<stop offset="1" stop-color="#FFBFBF"/>
</linearGradient>
</defs>
</svg>
