<svg width="512" height="512" viewBox="0 0 512 512" fill="none" xmlns="http://www.w3.org/2000/svg">
<g id="Frame">
<g id="Rectangle">
<path id="Vector" d="M509.5 2.5H2.5V509.5H509.5V2.5Z" stroke="white" stroke-width="5" stroke-miterlimit="10"/>
</g>
<g id="Glasses">
<g id="layer1">
<g id="g300686">
<path id="path258943" d="M254.71 127C248.471 127.001 242.418 129.125 237.547 133.023C232.676 136.922 229.277 142.363 227.91 148.45C224.44 146.61 216.3 145.2 211.5 147.89C210.341 143.128 207.865 138.789 204.355 135.367C200.846 131.946 196.445 129.581 191.655 128.543C186.866 127.505 181.88 127.835 177.269 129.496C172.658 131.157 168.608 134.082 165.58 137.936C162.553 141.79 160.671 146.418 160.15 151.292C159.629 156.165 160.489 161.086 162.632 165.494C164.776 169.901 168.116 173.617 172.271 176.215C176.427 178.814 181.229 180.192 186.13 180.19C186.32 180.19 186.57 180.31 186.72 180.19C189.364 178.284 192.249 176.737 195.3 175.59C197.98 174.48 203.66 170.08 204.76 172.38C208.85 168.217 211.424 162.801 212.07 157C214.516 155.985 217.148 155.498 219.795 155.57C222.442 155.642 225.044 156.273 227.43 157.42C228.199 164.151 231.431 170.359 236.503 174.85C241.575 179.341 248.13 181.797 254.904 181.744C261.678 181.692 268.194 179.136 273.197 174.568C278.199 169.999 281.335 163.742 282 157L288.11 156.6L319.6 153.42C320.84 151.71 322.17 150.02 320.11 146.88L287.99 147.46L280.99 147.02C279.375 141.283 275.938 136.227 271.198 132.616C266.457 129.004 260.67 127.033 254.71 127ZM254.71 130.26C259.499 130.26 264.18 131.68 268.161 134.341C272.143 137.001 275.246 140.783 277.078 145.208C278.91 149.632 279.389 154.5 278.454 159.197C277.519 163.893 275.212 168.207 271.826 171.593C268.439 174.978 264.124 177.283 259.427 178.216C254.73 179.149 249.862 178.668 245.438 176.834C241.015 175 237.234 171.896 234.575 167.913C231.916 163.93 230.498 159.249 230.5 154.46C230.499 151.281 231.124 148.133 232.34 145.195C233.557 142.258 235.34 139.589 237.589 137.342C239.837 135.094 242.507 133.312 245.445 132.097C248.382 130.881 251.531 130.257 254.71 130.26ZM186.13 131.06C190.679 131.06 195.126 132.409 198.908 134.936C202.691 137.463 205.639 141.056 207.379 145.258C209.12 149.461 209.576 154.086 208.688 158.547C207.801 163.009 205.61 167.107 202.394 170.323C199.177 173.54 195.079 175.731 190.617 176.618C186.156 177.506 181.531 177.05 177.328 175.309C173.126 173.568 169.534 170.62 167.006 166.838C164.479 163.056 163.13 158.609 163.13 154.06C163.13 147.96 165.553 142.11 169.867 137.797C174.18 133.483 180.03 131.06 186.13 131.06Z" fill="#1A1A1A" stroke="black" stroke-width="3" stroke-miterlimit="10"/>
<path id="circle261476" d="M209.57 154.08C209.57 160.299 207.1 166.264 202.702 170.661C198.304 175.059 192.34 177.53 186.12 177.53C179.903 177.527 173.941 175.055 169.545 170.658C165.149 166.26 162.68 160.297 162.68 154.08C162.68 147.863 165.15 141.901 169.546 137.505C173.941 133.109 179.904 130.64 186.12 130.64C189.199 130.638 192.248 131.244 195.093 132.421C197.938 133.599 200.524 135.325 202.701 137.502C204.879 139.678 206.606 142.263 207.785 145.107C208.964 147.952 209.57 151.001 209.57 154.08ZM279.94 154.59C279.94 157.883 279.291 161.145 278.031 164.187C276.771 167.23 274.923 169.995 272.594 172.324C270.266 174.653 267.501 176.5 264.458 177.761C261.415 179.021 258.154 179.67 254.86 179.67C249.899 179.67 245.05 178.199 240.925 175.442C236.801 172.686 233.586 168.769 231.688 164.185C229.79 159.602 229.294 154.559 230.263 149.693C231.231 144.828 233.621 140.359 237.129 136.852C240.638 133.345 245.108 130.957 249.973 129.99C254.839 129.024 259.882 129.522 264.465 131.422C269.047 133.322 272.964 136.538 275.718 140.663C278.473 144.789 279.942 149.639 279.94 154.6V154.59Z" fill="black" stroke="black" stroke-width="3" stroke-miterlimit="10"/>
<path id="path270272" d="M185.49 131.15C183.443 131.152 181.405 131.428 179.43 131.97L167.07 167.23C169.363 170.545 172.493 173.194 176.14 174.91L192.51 132C190.232 131.372 187.871 131.099 185.51 131.19L185.49 131.15ZM195.39 133.23L179.79 176.07C180.728 176.585 181.78 176.86 182.85 176.87C183.4 176.87 195.97 144.99 196.9 144.07L188.67 176.07L202.92 138.63C200.898 136.232 198.31 134.376 195.39 133.23ZM254.1 130.79C251.988 130.8 249.886 131.089 247.85 131.65L235.09 168.06C237.452 171.486 240.682 174.223 244.45 175.99L261.35 131.63C258.991 130.98 256.546 130.696 254.1 130.79ZM264.32 133L248.22 177.24C249.189 177.772 250.275 178.057 251.38 178.07C251.95 178.07 264.93 145.14 265.88 144.19L257.38 177.26L272.1 138.6C270.02 136.107 267.344 134.181 264.32 133Z" fill="#B3B3B3" stroke="black" stroke-width="3" stroke-miterlimit="10"/>
</g>
</g>
</g>
</g>
</svg>
