<?xml version="1.0" encoding="UTF-8"?>
<svg width="24px" height="24px" viewBox="0 0 24 24" version="1.1" xmlns="http://www.w3.org/2000/svg" xmlns:xlink="http://www.w3.org/1999/xlink">
    <title>Group 11</title>
    <g id="💣-05-Create-bet" stroke="none" stroke-width="1" fill="none" fill-rule="evenodd">
        <g id="wallfair-create-bet-02" transform="translate(-29.000000, -425.000000)">
            <g id="Group-11" transform="translate(29.416464, 426.000000)">
                <g id="Add-Alt.9" transform="translate(0.000000, -0.000000)">
                    <path d="M11.5835359,11 L11.5835359,7 M11.5835359,11 L11.5835359,15 M11.5835359,11 L15.5835359,11 M11.5835359,11 L7.58353592,11 M11.5835359,22 C5.50840592,22 0.583535918,17.0751 0.583535918,11 C0.583535918,4.92487 5.50840592,0 11.5835359,0 C17.6586359,0 22.5835359,4.92487 22.5835359,11 C22.5835359,17.0751 17.6586359,22 11.5835359,22 Z" id="Shape" stroke="#120E27" stroke-width="1.5" stroke-linecap="round" stroke-linejoin="round"></path>
                    <path d="M21.3737438,14.7252549 C21.8185512,12.9598883 22.1007763,12.1635182 22.5894684,10.5923971 C22.8355821,9.49053433 21.6057578,6.03492794 21.3737438,4.57547257 C21.203248,3.50316103 20.5238092,-0.954382088 19.4387718,0.275764435 C18.251252,1.62111822 19.1483007,0.551165861 19.0058228,0.610327581 C17.0056777,1.45328703 15.4917125,1.48023858 13.515379,1.54608291 C13.1450735,1.55914881 13.4248179,2.31803526 12.9930241,2.07289186 C12.1414034,1.59313947 10.0422715,2.39595085 9.34347904,1.63619234 C8.79189839,1.03822706 8.67171234,1.05477567 8.11836486,1.51405872 C7.5546304,1.98013846 4.62019892,1.19772606 4.30962011,0.155727904 C4.23283311,-0.102318621 4.16846789,-0.0241102144 4.16087177,0.275764435 C4.12743014,0.290034747 3.17497587,0.437270124 3.16366673,0.610327581 C3.1400505,0.906126063 2.09919485,2.76697027 2.04538868,2.55313328 C1.9220512,2.15453982 0.626244332,4.6925635 0.570127348,5.5573041 C0.408647394,8.044745 1.32533969,9.69593321 1.51195862,12.3030935 C1.70768862,15.0327669 3.03488013,14.8296235 4.16087177,16.6245373 C10.8579876,17.4427203 7.39490491,17.3806511 9.05782501,18.8416869 C9.21103195,17.9369708 9.67705091,20.1659189 10.0271756,18.5677204 C10.1714957,17.9077768 11.1072178,17.7489174 11.3011641,18.4018283 C11.3846375,18.6823018 12.6307048,18.3508172 13.9141528,18.0335722 C14.2385957,17.9525965 16.4952251,17.2559013 16.7613601,18.1804607 C17.5469424,16.5841342 18.7310051,16.6525449 19.4387718,16.3123314 L21.3737438,14.7252549 Z" id="Fill-4-Copy" fill="#F1FF54" style="mix-blend-mode: multiply;" transform="translate(11.586502, 9.581433) scale(-1, -1) translate(-11.586502, -9.581433) "></path>
                    <path d="M15.1234437,21.6003246 C16.411869,21.6003246 19.2328101,19.0064383 19.4317487,18.9080247 C19.5488901,18.7623904 21.1276157,18.8340864 21.1276157,16.6097329 C21.1272366,10.7089019 20.9401476,10.749431 20.6302376,10.8167432 C20.6302376,10.8167432 17.9145738,9.11913751 16.1922254,8.48872827 C16.1350056,8.72644914 15.9808142,7.85858389 15.9469763,8.15496592 C15.9341274,8.23946709 15.8187312,8.28414974 15.6252316,8.28092815 C13.8119079,8.24089151 10.4287083,7.97700149 8.62234571,8.61601922 C8.27961299,8.73713706 8.55842897,9.09007063 8.15255596,9.07486516 C7.32678202,9.0422671 6.34273403,9.73529834 5.4573122,10.1102841 C4.26069174,10.6163333 4.50456716,9.8562148 3.64779351,10.9510734 C3.32620102,11.3623429 0.466888159,13.27607 0.12919382,13.0581614 C0.0482322736,12.9759049 -0.00662199305,13.0838931 0.000644964062,13.2584211 C-0.0121404469,13.2752685 1.73954056,18.0204493 4.34453981,19.315844 C6.31235147,20.2943828 9.90531942,21.0558763 15.1234437,21.6003246 Z" id="Fill-6" fill="#F1FF54" style="mix-blend-mode: multiply;"></path>
                </g>
            </g>
        </g>
    </g>
</svg>