<svg width="24" height="24" xmlns="http://www.w3.org/2000/svg"><g fill="none" fill-rule="evenodd"><path d="M12 12V8m0 4v4m0-4h4m-4 0H8m4 11C5.925 23 1 18.075 1 12S5.925 1 12 1s11 4.925 11 11-4.925 11-11 11z" stroke="#120E27" stroke-width="1.5" stroke-linecap="round" stroke-linejoin="round"/><path d="M2.216 5.438C1.77 7.203 1.489 7.999 1 9.57c-.246 1.102.984 4.558 1.216 6.017.17 1.073.85 5.53 1.935 4.3 1.187-1.345.29-.275.433-.334 2-.843 3.514-.87 5.49-.936.37-.013.09-.772.522-.527.852.48 2.951-.323 3.65.437.552.598.672.581 1.225.122.564-.466 3.498.316 3.809 1.358.077.258.141.18.149-.12.033-.014.985-.161.997-.334.023-.296 1.064-2.157 1.118-1.943.123.398 1.42-2.14 1.475-3.004.162-2.488-.755-4.14-.941-6.746-.196-2.73-1.523-2.527-2.65-4.322-6.697-.818-3.233-.756-4.896-2.217-.154.905-.62-1.324-.97.274-.144.66-1.08.819-1.274.166-.083-.28-1.33.051-2.613.368-.324.081-2.58.778-2.847-.147-.785 1.597-1.97 1.528-2.677 1.869L2.216 5.438z" fill="#F1FF54" style="mix-blend-mode:multiply"/><path d="M15.54 22.6c1.288 0 4.11-2.594 4.308-2.692.117-.146 1.696-.074 1.696-2.298 0-5.901-.187-5.86-.497-5.793 0 0-2.716-1.698-4.438-2.328-.058.237-.212-.63-.246-.334-.012.084-.128.13-.321.126-1.814-.04-5.197-.304-7.003.335-.343.121-.064.474-.47.459-.826-.033-1.81.66-2.695 1.035-1.197.506-.953-.254-1.81.841-.321.411-3.18 2.325-3.518 2.107-.081-.082-.136.026-.129.2-.013.017 1.739 4.762 4.344 6.058 1.968.978 5.56 1.74 10.779 2.284z" fill="#F1FF54" style="mix-blend-mode:multiply"/></g></svg>