<svg width="41" height="35" xmlns="http://www.w3.org/2000/svg"><g transform="rotate(-14 41.05 1.16)" fill="none" fill-rule="evenodd"><circle fill="#0E0927" fill-rule="nonzero" cx="14.5" cy="18.879" r="1"/><circle fill="#0E0927" fill-rule="nonzero" cx="14.5" cy="15.175" r="1"/><circle fill="#0E0927" fill-rule="nonzero" cx="14.5" cy="11.357" r="1"/><path d="M16.501 6.527H2.359a.423.423 0 00-.426.42v3.484c2.288.422 3.946 2.394 3.946 4.692s-1.658 4.27-3.946 4.691V23.3c0 .232.19.42.426.42H26.64a.423.423 0 00.426-.42v-3.485c-2.1-.387-3.67-2.08-3.913-4.132a10.005 10.005 0 002.176.508 2.892 2.892 0 002.259 1.792c.807.13 1.403.815 1.411 1.622v3.685c0 1.286-1.056 2.33-2.359 2.33H2.36C1.056 25.618 0 24.574 0 23.288v-3.685c.009-.81.61-1.496 1.421-1.622 1.422-.223 2.463-1.442 2.446-2.864.017-1.425-1.03-2.645-2.456-2.864A1.658 1.658 0 010 10.632V6.947c0-1.286 1.056-2.329 2.359-2.329h14.276c-.107.64-.15 1.28-.134 1.91z" fill="#0E0927" fill-rule="nonzero"/><path d="M26.258 6.667l1.33-5.336m-1.33 5.336l-1.33 5.337m1.33-5.337l5.337 1.33m-5.337-1.33l-5.337-1.33" stroke="#0E0927" stroke-width="1.76" stroke-linecap="round" stroke-linejoin="round"/></g></svg>