<svg width="80" height="81" viewBox="0 0 80 81" fill="none" xmlns="http://www.w3.org/2000/svg">
<rect x="1" y="1.3335" width="78" height="78" rx="39" fill="#FFD31A" stroke="#EA9C00" stroke-width="2"/>
<rect y="0.333496" width="80" height="80" rx="40" fill="url(#paint0_linear_199_6300)"/>
<rect x="8.5" y="8.8335" width="63" height="63" rx="31.5" stroke="#FFE98F"/>
<rect x="10.5" y="10.8335" width="59" height="59" rx="29.5" stroke="#F1AF0A"/>
<path d="M31.4597 28.985L30.7189 20.5185L31.4597 28.985ZM48.3924 27.5035L47.6517 19.0371L48.3924 27.5035ZM60.4569 43.5105L22.358 46.8437L60.4569 43.5105ZM29.8189 58.9879L55.2182 56.7657C58.7252 56.4589 61.3193 53.3673 61.0125 49.8603L59.1607 28.6942C58.8538 25.1873 55.7624 22.5931 52.2554 22.9L26.856 25.1221C23.3491 25.4289 20.7549 28.5206 21.0617 32.0275L22.9135 53.1936C23.2204 56.7005 26.312 59.2947 29.8189 58.9879Z" stroke="white" stroke-linecap="round" stroke-linejoin="round"/>
<path d="M63 12.3335L61 16.3335L67 22.3335L70 29.3335L73 26.3335C73 26.3335 73 24.3335 69 19.3335C65 14.3335 63 12.3335 63 12.3335ZM59 19.3335L19 61.3335L27 67.3335L36 70.3335L67 32.3335L63 24.3335L59 19.3335ZM17 62.3335L14 65.3335C15.558 66.8586 19.5919 70.3335 25 73.3335L35 72.3335L29 70.3335L22 66.3335C20.2851 66.483 18.1387 63.3781 17 62.3335Z" fill="url(#paint1_linear_199_6300)"/>
<defs>
<linearGradient id="paint0_linear_199_6300" x1="40" y1="154.619" x2="40.0001" y2="-56.8094" gradientUnits="userSpaceOnUse">
<stop stop-color="#EA9C00"/>
<stop offset="1" stop-color="#EA9C00" stop-opacity="0"/>
</linearGradient>
<linearGradient id="paint1_linear_199_6300" x1="151.921" y1="-49.0247" x2="108.698" y2="88.8517" gradientUnits="userSpaceOnUse">
<stop stop-color="#FFE98F"/>
<stop offset="1" stop-color="#FFE98F" stop-opacity="0"/>
</linearGradient>
</defs>
</svg>
