<svg width="23" height="43" viewBox="0 0 23 43" fill="none" xmlns="http://www.w3.org/2000/svg">
<path d="M14.5177 5.8816C15.0533 8.73801 20.1552 10.7357 18.7166 10.1241C18.4223 9.76076 19.3119 6.64012 19.3119 6.64012C19.3119 6.64012 19.7065 5.3167 19.6321 4.9158C19.5577 4.5149 19.7696 2.99217 19.578 2.69605C19.3863 2.39993 19.1766 1.40224 19.1078 1.28037C19.039 1.15851 18.8755 0.833916 18.5779 0.988809C18.2802 1.1437 18.0795 1.45463 17.9713 1.63116C17.863 1.80769 17.1065 3.11973 16.9486 3.30879C16.7908 3.49785 16.032 4.16867 16.032 4.16867L14.5177 5.8816ZM7.06384 5.48754C6.72559 4.91808 7.09992 5.41579 6.64441 4.7723C6.64441 4.7723 5.90026 4.114 5.6477 3.51949C5.39514 2.92497 5.13694 2.36576 4.6803 2.48649C4.22367 2.60721 4.13798 2.77008 4.03763 3.78713C3.93728 4.80419 3.95081 7.08202 3.95081 7.08202C3.98238 7.07519 3.65879 7.08886 3.88654 7.80865C4.95654 7.04216 5.79653 6.6481 7.06384 5.48754ZM3.36789 12.3347C2.79625 13.9736 3.39383 15.7515 3.44569 17.2241C3.07136 17.338 3.44569 18.0487 3.50883 18.5168C3.18637 18.9951 3.32392 19.4769 3.60016 19.9598C3.40623 20.5896 3.35436 21.2297 3.90233 21.9142C3.71967 22.4836 3.60693 23.0394 4.0692 23.4301C4.10979 24.4118 4.12783 25.4209 4.80884 25.6464C4.5777 26.1908 4.22479 26.6714 4.69609 27.5757C4.50667 28.0666 4.17969 28.5381 4.77501 29.1395C4.61829 29.8365 4.02861 30.2522 4.85958 31.587L4.84943 32.6416C4.63295 33.2373 4.37701 33.8443 4.49652 34.3318L4.56192 36.0686C3.87189 36.3454 3.34647 37.7611 2.89209 39.2383C3.86399 40.0355 7.54979 42.8475 12.9776 42.7359C18.0615 42.6311 21.4778 40.0252 22.4903 39.1904C22.8567 38.5538 21.8848 37.4046 21.736 37.2178C21.5533 35.0345 21.3053 34.6849 20.9659 34.3853C20.8453 32.997 20.7968 31.6223 20.2037 30.1406C20.3717 29.0609 19.8035 28.6064 19.5069 27.9208C19.7009 26.9322 19.3874 26.5461 19.2747 25.9197L19.5441 24.4221C19.9557 23.7125 19.8756 22.9415 19.49 22.1363C20.2849 21.413 19.8858 20.6033 19.8136 19.8174C20.0639 19.068 19.8136 18.3698 19.7009 17.6535C20.171 17.2776 19.7482 16.6193 19.6107 16.051C20.2973 14.6923 19.9016 14.2287 19.7787 13.5454C20.0143 13.1001 20.1406 12.3518 19.8587 12.2265L19.2397 7.37245C16.6465 6.00575 9.67626 2.10609 4.32627 7.4647C4.27121 7.44923 4.2134 7.4465 4.15714 7.45673C3.3273 7.62187 3.33407 10.9737 3.36789 12.3347Z" fill="#FFD401"/>
<path d="M14.3542 5.92742C14.5583 6.98206 15.3047 7.86358 16.0849 8.54693C16.7876 9.15535 17.5549 9.68324 18.3726 10.1209C18.5406 10.2132 18.7199 10.2883 18.8845 10.384L19.0142 10.0719C19.0401 10.0822 19.0841 10.0993 19.0142 10.0719L18.8935 10.0161C18.8806 10.0091 18.867 10.0034 18.853 9.99905C18.809 9.98652 18.8282 9.96716 18.836 10.007C18.8563 10.1084 18.8518 9.99563 18.8439 10.007C18.836 10.0184 18.8507 10.0412 18.8439 9.99905C18.8439 9.98197 18.836 9.96602 18.8327 9.95008C18.8293 9.93413 18.8327 9.97741 18.8327 9.93299C18.8327 9.88858 18.8327 9.84985 18.8327 9.80771C18.8327 9.30887 18.9589 8.80319 19.0672 8.31915C19.2318 7.58568 19.4483 6.8693 19.6309 6.1404C19.7102 5.84118 19.7686 5.53672 19.8057 5.22926C19.8328 4.97984 19.7888 4.80672 19.7933 4.56186C19.7933 4.2441 19.8215 3.92634 19.8316 3.60858C19.858 3.32528 19.8448 3.03964 19.7922 2.76009C19.7546 2.66132 19.7086 2.56605 19.6546 2.47536C19.5977 2.33566 19.5492 2.19266 19.5092 2.04712C19.4314 1.78631 19.3795 1.51069 19.2837 1.25785C19.1878 1.00501 18.9454 0.723701 18.641 0.78748C18.2768 0.863788 18.0073 1.25102 17.8247 1.54942C17.5529 1.99473 17.2981 2.45144 17.023 2.89448C16.9337 3.05675 16.8216 3.20519 16.6904 3.33524C16.4841 3.53911 16.2687 3.73272 16.0534 3.9252L15.9147 4.0482C15.7512 4.19398 15.9914 4.4343 16.1548 4.28965C16.3183 4.14501 16.4525 4.02315 16.6002 3.88762C16.7885 3.73214 16.9615 3.55859 17.1166 3.36941C17.4168 2.92842 17.6945 2.47226 17.9487 2.00271C18.0545 1.80339 18.1759 1.61296 18.3118 1.43325C18.3986 1.32847 18.606 1.07449 18.7628 1.11777C18.8575 1.1451 18.9217 1.27949 18.9635 1.36036C18.9635 1.37061 18.9544 1.33074 18.9635 1.37516L18.9804 1.42641C19.0007 1.49019 19.0176 1.55397 19.0356 1.61775C19.0762 1.76695 19.1168 1.91615 19.1596 2.06421C19.2025 2.21227 19.2543 2.3831 19.3152 2.53686C19.34 2.5995 19.366 2.66214 19.3964 2.72136C19.4066 2.74073 19.419 2.75895 19.4291 2.77717C19.4494 2.81362 19.4291 2.77717 19.4426 2.8045C19.5272 3.0414 19.4911 3.34321 19.4832 3.58922C19.4731 3.90812 19.4494 4.22587 19.4438 4.54477C19.4438 4.7828 19.481 4.96162 19.4607 5.18598C19.4262 5.48124 19.3689 5.77331 19.2893 6.05953C19.1123 6.76908 18.9014 7.46724 18.7413 8.1802C18.611 8.68398 18.5258 9.19856 18.4865 9.71774C18.4656 9.87746 18.489 10.0399 18.5542 10.187C18.6117 10.2849 18.7504 10.3179 18.8496 10.3624C18.8733 10.3726 18.8969 10.384 18.9217 10.3931C19.1021 10.4649 19.2138 10.1756 19.0514 10.0811C18.9274 10.0093 18.7909 9.95235 18.6647 9.88516C18.3362 9.71052 18.0152 9.52298 17.7018 9.32253C16.8505 8.78041 16.0252 8.14034 15.4006 7.33512C15.0456 6.89803 14.7976 6.3826 14.6767 5.83061C14.635 5.61535 14.3091 5.70647 14.3508 5.92172L14.3542 5.92742Z" fill="black"/>
<path d="M7.20922 5.40241C7.16525 5.32838 7.12128 5.25435 7.08182 5.17463C7.08182 5.16666 7.05701 5.11654 7.0649 5.1416C7.0728 5.16665 7.0649 5.13249 7.0649 5.12679C7.04933 5.07412 7.02656 5.02391 6.99725 4.97759C6.92673 4.85576 6.84439 4.74131 6.75146 4.63592C6.67141 4.55392 6.58459 4.47875 6.50341 4.39675C6.21351 4.12137 5.97417 3.79631 5.79647 3.43664C5.63185 3.06763 5.45822 2.56537 5.07599 2.37061C4.82344 2.24191 4.48744 2.31936 4.2687 2.4845C4.04997 2.64965 3.98683 2.92754 3.94511 3.18266C3.8397 3.92918 3.78882 4.68252 3.7929 5.43658C3.78275 5.98781 3.77824 6.54133 3.78163 7.09257C3.782 7.11878 3.78825 7.14456 3.79993 7.16797C3.8116 7.19138 3.82839 7.21181 3.84902 7.22771C3.86965 7.24362 3.89358 7.25458 3.91902 7.25978C3.94445 7.26497 3.97072 7.26426 3.99585 7.25771C4.01023 7.25281 4.02419 7.24672 4.03757 7.23949C4.06538 7.22196 4.08764 7.19673 4.10169 7.16681C4.11574 7.13689 4.121 7.10353 4.11685 7.07068C4.11269 7.03783 4.0993 7.00687 4.07825 6.98148C4.05721 6.95609 4.02939 6.93733 3.99811 6.92742C3.87634 6.89212 3.85492 6.92961 3.8008 7.02755C3.67452 7.25534 3.65309 7.63355 3.723 7.86475C3.73019 7.88988 3.74292 7.91303 3.76024 7.93247C3.77756 7.95191 3.79901 7.96713 3.82299 7.977C3.84697 7.98686 3.87285 7.99111 3.89869 7.98942C3.92453 7.98774 3.94965 7.98016 3.97217 7.96725C4.47166 7.60736 4.99369 7.2839 5.50219 6.94223C6.09345 6.54224 6.65528 6.09957 7.18329 5.61767C7.34565 5.47075 7.10549 5.2293 6.94426 5.37622C6.42775 5.84727 5.87796 6.27968 5.29924 6.67003C4.80088 7.0117 4.28449 7.3249 3.80079 7.67683L4.04884 7.77819C3.98446 7.62048 3.9638 7.44803 3.98909 7.27935C3.98119 7.30782 4.00487 7.25201 4.006 7.24974C4.006 7.27251 4.01727 7.24974 3.99021 7.26454C4.01276 7.25088 4.02404 7.26454 3.98119 7.26454C4.0308 7.25657 3.90114 7.26454 3.90791 7.26454L3.86732 6.95248L3.90565 6.93653L4.12326 7.08801C4.11649 6.00945 4.10635 4.92407 4.20444 3.84437C4.23263 3.54028 4.23714 3.16102 4.3792 2.88312C4.40868 2.81647 4.46007 2.76215 4.52465 2.72937C4.61538 2.676 4.71844 2.64771 4.82344 2.64737C4.98241 2.6599 5.09629 2.81707 5.17634 2.94235C5.28801 3.12808 5.38527 3.32228 5.46724 3.5232C5.63405 3.88593 5.8605 4.21749 6.13697 4.5038C6.24183 4.6177 6.3512 4.73159 6.46395 4.83409C6.54731 4.9199 6.6207 5.01505 6.68268 5.11768C6.69734 5.1416 6.712 5.16552 6.72778 5.18829C6.74357 5.21107 6.75146 5.23955 6.73906 5.20652C6.72665 5.17349 6.73906 5.21677 6.73906 5.22702C6.78398 5.35024 6.84463 5.46701 6.91946 5.57439C7.03108 5.76231 7.3231 5.59033 7.20922 5.40241Z" fill="black"/>
<path d="M18.7403 2.55371L17.7853 4.87255L17.986 3.73363C17.0705 4.98644 16.7548 6.01147 16.1256 6.01147C15.3713 6.18003 15.4739 5.42265 15.0849 5.1288L14.5212 5.85999C15.1751 8.07519 16.7254 9.09679 18.5621 10.0558L18.7245 9.79723C18.3682 9.34166 18.2374 8.52506 18.375 8.07405C18.3919 7.94193 18.8936 5.53882 18.8936 5.53882C18.8936 5.53882 18.4798 4.63338 18.4979 4.16186C18.5159 3.69035 18.7403 2.55371 18.7403 2.55371ZM4.36353 2.78947C4.35564 2.78947 4.35113 2.7963 4.34887 2.80883C3.92944 3.77691 3.96552 7.78134 3.9892 7.68454C4.12673 7.54966 4.27869 7.44324 4.4367 7.34848C4.61209 7.2433 4.79494 7.04443 4.97381 6.94503C5.17814 6.8315 5.48853 6.59646 5.66543 6.42632C5.54614 5.9774 4.9239 3.93522 4.85287 3.60835C4.79424 3.33501 4.43457 2.78719 4.36353 2.78947ZM6.29381 34.9172C6.61628 34.6587 6.73015 33.7646 6.25097 33.2464C5.95556 32.9264 6.56779 32.2863 6.49451 31.8592C6.42573 31.4572 6.17655 31.0027 6.19685 30.5711C6.21601 30.1565 6.54299 29.8 6.5926 29.4174C6.51142 28.3263 6.20136 28.3502 6.51142 27.8001C6.68505 26.9186 6.23406 26.1305 6.31185 25.6362C6.86207 25.0667 7.50475 24.6487 6.54976 23.5098C6.47872 23.4415 6.65123 22.9722 6.35357 22.7866C5.78982 22.4369 5.51697 20.011 5.80448 19.4416C5.95105 19.1523 6.93198 18.0635 7.41793 17.625C7.56563 17.4929 7.56563 17.3437 7.6626 17.2173C8.39773 16.8266 9.50719 16.9815 9.95819 17.6239C10.1217 17.7753 11.1251 17.6501 11.3529 17.6239C11.6415 17.5931 13.1073 17.4576 13.326 17.2446C13.582 16.9975 12.7736 15.764 12.7397 15.2606C12.7059 14.7572 12.3936 14.8962 13.1806 14.5351C13.7624 14.3996 15.5822 14.2527 15.5066 13.5682C15.4423 13.5967 15.7907 12.8473 15.4266 12.2243C14.1863 10.0774 3.24956 7.43056 3.4356 12.2425C3.08495 12.624 3.19657 14.8483 3.19883 14.6183C3.19883 14.3301 2.94288 15.8016 3.59345 16.8152C3.7062 16.9997 3.35104 17.2207 3.31608 17.4371C3.25858 17.7958 3.56977 18.0532 3.58443 18.3744C3.59683 18.6478 3.34653 18.8892 3.37472 19.1717C3.39839 19.3994 3.71297 19.5418 3.71297 19.7639C3.71297 20.1773 3.52016 20.5361 3.4807 20.9723C3.4356 21.47 4.01063 21.8937 4.04445 21.8834C4.35902 21.8208 3.74115 22.4722 3.78513 22.823C3.82346 23.1237 4.09519 23.3242 4.13352 23.6089C4.17637 23.9289 4.15043 24.6499 4.26882 24.9608C4.37481 25.2398 4.20794 25.2239 4.64541 25.5097C5.08288 25.7956 4.43118 26.4209 4.46839 26.8764C4.48643 27.1099 4.71982 27.2511 4.74124 27.4618C4.76943 27.7318 4.44133 28.0438 4.45599 28.3627C4.46952 28.6566 4.76154 28.8878 4.77056 29.1452C4.78184 29.5119 4.45148 29.8934 4.43908 30.2841C4.42216 30.833 4.74237 31.2328 4.86189 31.7362C4.9442 32.0881 5.05694 32.4321 4.85061 32.7339C4.64428 33.0357 4.80091 32.8806 4.51236 33.6299C4.51236 33.6299 4.4551 34.6492 4.57037 35.82C4.43507 36.3109 4.44358 36.1757 4.44358 36.1757L3.90351 36.5857L3.74566 37.383C3.60472 37.3522 2.83577 38.58 2.89102 39.2155C3.81219 40.0674 6.39529 41.5742 9.20502 42.0149C8.16095 41.5195 7.16763 40.5833 6.33666 39.3761C6.33666 39.3761 5.11783 38.3955 6.08974 37.2212C6.46745 36.7657 5.71766 35.375 6.29381 34.9126V34.9172Z" fill="black" fill-opacity="0.2"/>
<path d="M5.49768 5.63889C5.40589 5.05815 5.28281 4.4829 5.12899 3.91571C5.07487 3.70387 4.74789 3.79384 4.80314 4.00682C4.95701 4.57355 5.07972 5.14844 5.1707 5.72886C5.18399 5.77151 5.2132 5.80726 5.25214 5.82852C5.29108 5.84978 5.33669 5.85489 5.37929 5.84276C5.42182 5.82976 5.4578 5.80079 5.47983 5.7618C5.50185 5.72282 5.50824 5.67679 5.49768 5.63319V5.63889Z" fill="black"/>
<path d="M6.76413 4.80113C6.44167 4.28634 6.0369 3.82849 5.73698 3.2989C5.5205 2.91508 5.31868 2.21578 4.7662 2.26248C4.3152 2.3012 4.07279 2.65882 3.97019 3.0677C3.83151 3.62007 3.83714 4.20661 3.83376 4.77607C3.82812 5.5642 3.84278 6.35348 3.76611 7.13819C3.74469 7.35686 4.08294 7.35572 4.10436 7.13819C4.1675 6.49698 4.16863 5.85121 4.16976 5.20203C4.15627 4.634 4.17849 4.06567 4.23628 3.50048C4.27687 3.19525 4.32761 2.80688 4.62978 2.65768C4.66724 2.63351 4.70937 2.61769 4.75337 2.61129C4.79737 2.60489 4.84221 2.60804 4.8849 2.62055C4.9276 2.63306 4.96715 2.65462 5.00093 2.68381C5.03471 2.713 5.06193 2.74913 5.08078 2.7898C5.20819 2.99025 5.30628 3.2112 5.41903 3.41848C5.72458 3.97086 6.14401 4.44351 6.47775 4.9788C6.5905 5.16444 6.88703 4.99247 6.76977 4.80682L6.76413 4.80113Z" fill="black"/>
<path d="M17.6965 8.94785C18.081 8.62554 18.2806 8.05608 18.4429 7.60051C18.6619 6.98746 18.8172 6.3531 18.9063 5.70763C18.9542 5.40955 18.9712 5.10724 18.9571 4.80561C18.9401 4.58807 18.6019 4.5858 18.6188 4.80561C18.6583 5.34318 18.5523 5.89441 18.4328 6.4149C18.3087 7.0093 18.1149 7.58664 17.8555 8.13466C17.7627 8.34994 17.6272 8.54374 17.4575 8.70412C17.2895 8.84421 17.5296 9.08566 17.6965 8.94557V8.94785Z" fill="black"/>
<path d="M11.9104 4.59021C11.4257 4.37729 10.7557 4.44317 10.2187 4.49338C9.49576 4.56051 8.77542 4.69564 8.06922 4.89661C7.74048 4.98321 7.41935 5.10013 7.11101 5.24549C6.89125 5.35649 7.02028 5.66917 7.24241 5.55718C7.78639 5.28503 8.40108 5.14091 8.98904 5.02275C9.65566 4.87633 10.3316 4.80168 11.0026 4.80039C11.2626 4.79147 11.6574 4.78428 11.8902 4.87036C12.1012 4.96372 12.1186 4.68353 11.908 4.59121L11.9104 4.59021Z" fill="black"/>
<path d="M15.1265 5.59159C14.7435 5.21923 14.0823 5.04082 13.5533 4.89539C12.8413 4.69922 12.1069 4.56746 11.3618 4.50222C11.0175 4.46537 10.6694 4.45955 10.323 4.48486C10.0734 4.50981 10.0817 4.84797 10.3339 4.82294C10.9507 4.76362 11.588 4.84917 12.1903 4.94937C12.8778 5.05136 13.5478 5.22371 14.1863 5.46276C14.4368 5.54755 14.5243 5.51324 14.7142 5.67698C14.8807 5.83971 15.0536 5.49277 14.8871 5.33117L15.1265 5.59159Z" fill="black"/>
<path d="M18.9277 10.0514C18.8803 9.56735 18.966 9.06281 19.0404 8.58675C19.1239 8.07651 19.2344 7.57311 19.3505 7.07085C19.4103 6.81117 19.4429 6.54808 19.523 6.29183C19.5771 6.11757 19.647 5.95015 19.691 5.77134C19.74 5.56211 19.7616 5.34731 19.7553 5.13241C19.7553 4.97637 19.726 4.8192 19.726 4.66317C19.726 4.465 19.762 4.26113 19.7722 4.06182C19.8083 3.41947 19.7992 2.73612 19.5467 2.13363C19.3911 1.76576 19.3606 1.27603 19.072 0.97991C18.7247 0.621151 18.241 0.920687 17.9986 1.243C17.6435 1.71451 17.4428 2.29308 17.1237 2.78965C16.7561 3.35911 16.2679 3.81468 15.7526 4.24291C15.2818 4.62612 14.8876 5.09655 14.5913 5.62897C14.5706 5.66797 14.5658 5.71355 14.5777 5.75612C14.5896 5.79869 14.6174 5.83492 14.6552 5.85721C14.6931 5.87949 14.738 5.88607 14.7805 5.87558C14.8231 5.86509 14.8599 5.83834 14.8833 5.80095C15.1353 5.33925 15.4689 4.92814 15.8676 4.588C16.2753 4.26367 16.6548 3.90475 17.0019 3.51514C17.4135 3.02541 17.6942 2.47303 17.9907 1.90927C18.0894 1.70163 18.2161 1.50883 18.3673 1.33639C18.462 1.23844 18.639 1.10861 18.7811 1.1815C18.9232 1.25439 18.9694 1.45484 19.0122 1.58581C19.0743 1.77943 19.125 1.97988 19.196 2.16894C19.4272 2.7384 19.4711 3.32608 19.4441 3.93996C19.4373 4.11194 19.4249 4.28163 19.4103 4.45589C19.4003 4.64108 19.4022 4.82673 19.4159 5.01168C19.4316 5.22117 19.4194 5.43184 19.3798 5.63809C19.3426 5.80437 19.2795 5.96268 19.2265 6.1244C19.1508 6.35635 19.0935 6.59399 19.0551 6.83509C19.0156 7.08337 18.9423 7.32938 18.8927 7.57653C18.8296 7.86885 18.7736 8.16345 18.7247 8.46033C18.639 8.9774 18.5387 9.52977 18.5894 10.0548C18.6109 10.2712 18.9491 10.2735 18.9277 10.0548V10.0514Z" fill="black"/>
<path d="M3.17527 12.4258C3.19556 12.6536 3.10762 12.8893 3.03771 13.1091C2.94767 13.3515 2.88121 13.6021 2.83927 13.8574C2.78956 14.3292 2.91491 14.8028 3.19105 15.1865L3.14708 15.0202C3.04786 15.3505 2.94413 15.715 3.00276 16.0635C3.04962 16.2373 3.1186 16.4042 3.20797 16.56C3.24351 16.6445 3.26777 16.7334 3.28013 16.8243C3.29366 16.9382 3.2339 16.9678 3.18091 17.0771C3.13534 17.1697 3.10017 17.2671 3.07605 17.3675C3.03649 17.5427 3.04194 17.7252 3.09186 17.8976C3.14179 18.07 3.23454 18.2267 3.36131 18.3527C3.51465 18.5099 3.75368 18.2673 3.60034 18.1112C3.53261 18.0457 3.47865 17.967 3.44165 17.88C3.40465 17.7929 3.38538 17.6992 3.38498 17.6044C3.38861 17.4813 3.41861 17.3605 3.47293 17.2502C3.53607 17.1158 3.63529 17.0224 3.62176 16.8676C3.59921 16.5919 3.48871 16.3903 3.37822 16.1478C3.25307 15.8721 3.37822 15.4769 3.45827 15.1626C3.49548 15.0157 3.43572 14.9667 3.36807 14.8471C3.31124 14.7392 3.26841 14.6244 3.24066 14.5054C3.18545 14.3156 3.17832 14.1164 3.18725 13.9188C3.22446 13.4097 3.55749 12.9463 3.50901 12.4258C3.49097 12.2083 3.15272 12.2071 3.17076 12.4258H3.17527Z" fill="black"/>
<path d="M3.90101 6.98567C3.88718 7.21393 3.76513 7.43398 3.6633 7.64094C3.5382 7.86716 3.43518 8.10509 3.35571 8.35134C3.23634 8.81045 3.28982 9.29744 3.50578 9.71801L3.48704 9.54704C3.33978 9.85888 3.18296 10.2038 3.18908 10.5572C3.20955 10.736 3.25292 10.9113 3.3181 11.0788C3.34068 11.1676 3.35145 11.259 3.35014 11.3508C3.34657 11.4654 3.28307 11.4858 3.21439 11.5861C3.15556 11.6708 3.10629 11.7619 3.06749 11.8576C3.0023 12.025 2.98053 12.2062 3.00425 12.3841C3.02796 12.5621 3.09636 12.7308 3.20296 12.8743C3.3312 13.0525 3.60367 12.8482 3.47526 12.6711C3.41805 12.5962 3.37639 12.5104 3.35276 12.4188C3.32913 12.3272 3.4947 12.4779 3.5084 12.3841C3.36025 12.0747 3.40728 11.9016 3.4774 11.8007C3.55984 11.6772 3.67185 11.5996 3.68152 11.4444C3.70024 11.1685 3.62098 10.9527 3.54781 10.6964C3.46507 10.4052 3.64764 10.0331 3.77358 9.73413C3.83224 9.59438 3.78044 9.53706 3.73134 9.40874C3.69119 9.29359 3.66593 9.17366 3.65619 9.0519C3.62985 8.85592 3.65244 8.65796 3.69069 8.46379C3.743 8.2324 3.91164 8.11046 3.9366 7.98264C3.96533 7.83543 3.84811 7.68394 3.87896 7.4063C3.87897 7.11817 3.91126 6.76607 3.89655 6.985L3.90101 6.98567Z" fill="black"/>
<path d="M13.6891 20.1603C13.6639 20.564 13.744 20.9673 13.9214 21.33C14.004 21.5101 14.1073 21.6799 14.2292 21.8357C14.2866 21.9092 14.3483 21.9792 14.4141 22.0452C14.4415 22.0786 14.4742 22.1071 14.511 22.1295C14.5437 22.1443 14.511 22.1705 14.511 22.0988L14.5945 21.9507H14.7636C14.8132 21.9735 14.7771 21.9587 14.7501 21.9279C14.723 21.8972 14.6948 21.8607 14.6655 21.8277C14.6062 21.755 14.5358 21.6923 14.4569 21.6421C14.4113 21.6123 14.357 21.599 14.303 21.6043C14.2489 21.6097 14.1982 21.6335 14.1593 21.6717C14.039 21.8024 13.9393 21.9511 13.8639 22.1124C13.7397 22.3663 13.6847 22.6489 13.7045 22.9314C13.7243 23.2138 13.8183 23.4858 13.9766 23.7194C14.0834 23.8832 14.2062 24.0358 14.343 24.175C14.3722 24.2143 14.4063 24.2495 14.4445 24.2798C14.3881 24.2502 14.4896 24.1761 14.5189 24.1363C14.6215 23.9985 14.643 24.0167 14.537 23.9973C14.4849 23.9875 14.432 23.9833 14.3791 23.9848C13.8706 24.011 13.9789 24.6169 14.1018 24.9415C14.202 25.2053 14.3309 25.457 14.4862 25.692C14.605 25.8948 14.7612 26.0726 14.9462 26.2159C15.1266 26.3389 15.2958 26.0428 15.1165 25.921C15.0898 25.9026 15.0652 25.8812 15.0432 25.8572C15.0038 25.8173 14.9665 25.774 14.9305 25.7308C14.8536 25.6342 14.7832 25.5326 14.7196 25.4267C14.5705 25.1952 14.4533 24.9442 14.3712 24.6807C14.3401 24.5896 14.3256 24.4935 14.3284 24.3971C14.3309 24.3736 14.3386 24.3511 14.3509 24.331C14.3408 24.3493 14.3509 24.331 14.3735 24.331C14.3846 24.3286 14.3962 24.3286 14.4073 24.331C14.4285 24.3321 14.4496 24.3343 14.4704 24.3379C14.537 24.347 14.5956 24.3698 14.6587 24.3379C14.6822 24.3227 14.7019 24.3022 14.7163 24.278C14.7307 24.2538 14.7394 24.2267 14.7417 24.1986C14.7439 24.1705 14.7398 24.1422 14.7295 24.116C14.7192 24.0898 14.7031 24.0663 14.6824 24.0474C14.5787 23.9267 14.4569 23.8197 14.3611 23.6932C14.1941 23.4856 14.0827 23.2382 14.0375 22.9746C14.0212 22.7985 14.0401 22.6209 14.093 22.4522C14.1459 22.2836 14.2316 22.1274 14.3453 21.9928C14.3664 21.9697 14.3856 21.945 14.4028 21.9188C14.4321 21.863 14.3543 21.9416 14.3216 21.9518C14.2889 21.9621 14.2799 21.9279 14.3058 21.9621C14.3149 21.9746 14.3757 22.0282 14.4039 22.0578C14.4504 22.1185 14.5009 22.1759 14.555 22.2297C14.7275 22.3767 14.9023 22.1751 14.8166 22.002C14.765 21.9213 14.7002 21.85 14.6249 21.7913C14.545 21.7102 14.4733 21.6213 14.4107 21.5259C14.1338 21.1336 13.9985 20.6572 14.0273 20.1763C14.0488 19.9576 13.7105 19.9587 13.6891 20.1763V20.1603Z" fill="black"/>
<path d="M15.803 17.4988C15.3884 17.3968 14.9553 17.4003 14.5424 17.509C14.3903 17.5576 14.2421 17.6182 14.0993 17.6901C13.9662 17.7385 13.8408 17.8064 13.7272 17.8917C13.5232 18.0887 13.7667 18.2698 13.9527 18.3233C14.1039 18.3658 14.2587 18.3936 14.415 18.4065C14.6349 18.427 14.6259 18.0921 14.415 18.0648C14.3913 18.0648 14.3665 18.0648 14.3429 18.058L14.512 18.2288C14.512 17.9452 14.1557 17.9042 13.9482 17.9076C13.6241 17.9111 13.306 17.9973 13.0237 18.1582C12.8782 18.2341 12.7588 18.3524 12.6809 18.4979C12.6031 18.6434 12.5705 18.8092 12.5873 18.9737C12.6358 19.3996 12.9256 19.7322 13.2638 19.9691C13.6303 20.2355 14.0655 20.3887 14.5165 20.4098C14.5614 20.4098 14.6044 20.3918 14.6361 20.3598C14.6678 20.3278 14.6856 20.2843 14.6856 20.239C14.6856 20.1937 14.6678 20.1502 14.6361 20.1182C14.6044 20.0862 14.5614 20.0682 14.5165 20.0682C14.2195 20.0541 13.9301 19.969 13.672 19.8199C13.3946 19.6707 13.1082 19.4566 12.982 19.1582C12.8794 18.9304 12.8952 18.6844 13.0947 18.5192C13.2915 18.3761 13.5221 18.2877 13.7633 18.263C13.8691 18.2483 13.976 18.2453 14.0824 18.2539C14.105 18.2539 14.1264 18.263 14.1489 18.2675C14.1715 18.2721 14.2109 18.2801 14.176 18.2744C14.2087 18.2744 14.1861 18.288 14.1828 18.2744C14.1828 18.2744 14.1681 18.2208 14.1681 18.2322C14.1692 18.2772 14.1874 18.32 14.2189 18.3518C14.2504 18.3836 14.2927 18.4019 14.3372 18.4031C14.3609 18.4031 14.3857 18.4031 14.4094 18.4099V18.0682C14.4004 18.0693 14.3913 18.0693 14.3823 18.0682C14.3372 18.05 14.3823 18.0682 14.3429 18.0682C14.2707 18.0568 14.1997 18.0443 14.1286 18.0284L14.0159 18.001C14.0001 17.9953 13.9832 17.9908 13.9685 17.984C13.9539 17.9771 13.9798 17.9771 13.955 17.984C13.9302 17.9908 13.955 17.9475 13.955 17.984C13.9645 17.993 13.9714 18.0043 13.9752 18.0169C13.979 18.0295 13.9794 18.0429 13.9764 18.0557C13.9843 18.0729 13.9864 18.0923 13.9823 18.1108C13.9782 18.1293 13.9682 18.146 13.9539 18.1582C13.9539 18.1582 13.9539 18.1582 13.9663 18.1514C13.9927 18.142 14.018 18.1298 14.0418 18.1149C14.2565 17.9954 14.4833 17.8996 14.7183 17.8291C15.0444 17.7615 15.3811 17.7669 15.7049 17.845C15.9169 17.8883 16.0082 17.558 15.7951 17.5159L15.803 17.4988Z" fill="black"/>
<path d="M5.01195 32.791C5.06156 32.479 5.16191 32.1578 5.16755 31.84C5.17319 31.5223 4.90822 31.3378 4.7966 31.0701C4.68437 30.7923 4.66652 30.4847 4.74586 30.1955C4.80449 29.9779 4.90822 29.7775 4.97136 29.5622C5.05029 29.306 5.06607 29.0748 4.91161 28.8458C4.82868 28.7513 4.76541 28.6409 4.72557 28.5212C4.70348 28.3893 4.72075 28.2537 4.77518 28.1317C4.86425 27.929 5.0345 27.7559 5.0345 27.519C5.0345 27.2627 4.809 27.0566 4.72444 26.8288C4.63988 26.601 4.77067 26.4017 4.84734 26.2035C4.91048 26.0441 5.04352 25.7958 4.9894 25.6159C4.95445 25.502 4.77856 25.3961 4.69964 25.3027C4.62164 25.2116 4.55778 25.109 4.51022 24.9986C4.4232 24.772 4.37589 24.5319 4.37041 24.289C4.36026 24.1467 4.35462 24.002 4.34786 23.8585C4.35177 23.7013 4.33739 23.5442 4.30501 23.3904C4.2306 23.1387 3.96112 22.9713 3.96676 22.6957C3.96907 22.5413 4.01568 22.391 4.10093 22.2629C4.17535 22.149 4.30501 22.0636 4.23173 21.9144C4.19538 21.8539 4.15388 21.7967 4.1077 21.7435C4.02088 21.6306 3.94285 21.511 3.87431 21.3859C3.71308 21.0796 3.7221 20.6946 3.79877 20.3609C3.81906 20.2755 3.84387 20.1912 3.87205 20.1092C3.91599 20.0226 3.94641 19.9296 3.96225 19.8336C3.96225 19.7379 3.88333 19.665 3.82582 19.5956C3.73738 19.4969 3.66438 19.3851 3.60935 19.2641C3.58728 19.2206 3.57577 19.1724 3.57577 19.1235C3.57577 19.0746 3.58728 19.0263 3.60935 18.9828C3.74239 18.7357 3.91039 18.443 3.75818 18.1662C3.65219 17.9737 3.36017 18.1457 3.46615 18.3382C3.57214 18.5307 3.31394 18.7664 3.26095 18.9259C3.1809 19.1696 3.29816 19.4407 3.43571 19.6377C3.49382 19.7274 3.55986 19.8117 3.63302 19.8894C3.67136 19.9293 3.63302 19.8962 3.63302 19.8951L3.63979 19.9053C3.62175 19.8245 3.60596 19.8188 3.59243 19.886C3.54962 19.9672 3.51993 20.0549 3.50449 20.1456C3.4078 20.4754 3.38469 20.8228 3.43684 21.1627C3.49893 21.4303 3.6221 21.6795 3.79651 21.8905C3.82357 21.9269 3.89347 22.0602 3.93519 22.0784V21.9189L3.907 21.952C3.87765 21.9833 3.85158 22.0177 3.82921 22.0545C3.78114 22.1257 3.74106 22.2021 3.70969 22.2823C3.6459 22.4235 3.61836 22.5787 3.62959 22.7336C3.64082 22.8885 3.69047 23.038 3.77396 23.1683C3.84565 23.2595 3.91012 23.3562 3.96676 23.4576C4.02426 23.5829 4.00397 23.7674 4.01073 23.9052C4.03554 24.4177 4.0423 24.9712 4.34898 25.4063C4.41866 25.5059 4.49798 25.5982 4.58576 25.6819C4.61329 25.7101 4.64268 25.7363 4.6737 25.7605L4.65905 25.6933C4.65905 25.7115 4.65905 25.715 4.65905 25.7013C4.64035 25.7478 4.62711 25.7963 4.61958 25.8459C4.54855 26.0646 4.44482 26.273 4.38055 26.494C4.30276 26.7582 4.40987 26.994 4.54179 27.2195C4.5914 27.3037 4.68949 27.4176 4.69513 27.5201C4.68283 27.6098 4.64745 27.6946 4.59252 27.7661C4.45181 27.971 4.37737 28.2149 4.37943 28.4643C4.38414 28.6076 4.42911 28.7467 4.50909 28.8652C4.56997 28.9597 4.67934 29.0656 4.69513 29.1807C4.72557 29.4085 4.56659 29.6795 4.48879 29.8845C4.37807 30.1553 4.33583 30.4496 4.3659 30.741C4.38455 30.9286 4.43489 31.1116 4.51473 31.282C4.59703 31.4437 4.74023 31.5747 4.80562 31.7432C4.8309 31.8688 4.8247 31.9988 4.78758 32.1214C4.75263 32.3161 4.71091 32.5097 4.68047 32.7045C4.64664 32.9197 4.97249 33.0131 5.00632 32.7956L5.01195 32.791Z" fill="black"/>
<path d="M19.4576 17.8105C19.486 17.9573 19.5302 18.1005 19.5895 18.2376C19.6572 18.4426 19.7271 18.6487 19.7756 18.8583C19.8004 18.9579 19.8027 19.0618 19.7823 19.1624C19.7553 19.3571 19.6921 19.5462 19.6696 19.741C19.6538 19.8177 19.6504 19.8966 19.6594 19.9744C19.6797 20.0769 19.735 20.1817 19.7643 20.2831C19.8222 20.4682 19.86 20.6592 19.8771 20.8525C19.8922 21.0356 19.8801 21.2199 19.841 21.3992C19.7971 21.5522 19.717 21.6922 19.6076 21.807C19.5184 21.9083 19.4426 22.0208 19.3821 22.1418C19.361 22.1754 19.3482 22.2136 19.3447 22.2532C19.3412 22.2928 19.347 22.3327 19.3618 22.3696C19.3866 22.4391 19.4249 22.5074 19.4554 22.5769C19.5699 22.7974 19.6487 23.035 19.6888 23.2807C19.7082 23.5453 19.6494 23.8097 19.5196 24.0404C19.4497 24.1759 19.2693 24.3593 19.2941 24.5176C19.3361 24.679 19.3677 24.8429 19.3889 25.0085C19.3944 25.1874 19.343 25.3634 19.2423 25.5107C19.1601 25.6046 19.089 25.7078 19.0303 25.8182C18.9345 26.0654 19.1081 26.3808 19.2152 26.5984C19.2948 26.7444 19.3623 26.8967 19.417 27.054C19.4621 27.2051 19.4577 27.3668 19.4046 27.5152C19.3563 27.649 19.3223 27.7876 19.3032 27.9286C19.2977 28.0784 19.3395 28.226 19.4227 28.35C19.5817 28.6131 19.8274 28.8056 19.9785 29.0778C20.0913 29.2817 20.0575 29.5607 20.0372 29.7851C20.0259 29.9126 20.0101 30.0391 19.9966 30.1666C19.9784 30.2582 19.9765 30.3523 19.9909 30.4445C20.0191 30.5584 20.1364 30.6609 20.1995 30.7532C20.2719 30.8602 20.3378 30.9717 20.3968 31.0869C20.7182 31.7144 20.7576 32.4308 20.69 33.1232C20.6697 33.3419 21.0079 33.3408 21.0282 33.1232C21.0993 32.3898 21.0418 31.6427 20.7182 30.973C20.6544 30.8416 20.5817 30.7149 20.5006 30.5937C20.4622 30.5368 20.4228 30.4798 20.3878 30.4274C20.3679 30.3982 20.3465 30.37 20.3235 30.3431C20.2784 30.2999 20.3359 30.3568 20.3235 30.375C20.3285 30.3372 20.3285 30.2989 20.3235 30.2611C20.3235 30.1996 20.3359 30.137 20.3427 30.0755C20.3596 29.9252 20.3777 29.7737 20.3856 29.6199C20.4025 29.3056 20.3709 29.0243 20.1826 28.7646C20.0699 28.6086 19.9368 28.4696 19.8184 28.3193C19.726 28.2054 19.62 28.0642 19.6425 27.9081C19.6696 27.7271 19.7553 27.5574 19.7801 27.374C19.8018 27.1812 19.7702 26.986 19.6888 26.8102C19.6155 26.6303 19.5185 26.4606 19.4396 26.2829C19.3997 26.198 19.3702 26.1085 19.3516 26.0164C19.3516 26.0005 19.3359 25.9025 19.337 25.9594C19.337 25.9264 19.337 25.9595 19.337 25.9458C19.3739 25.8873 19.4146 25.8314 19.4588 25.7784C19.5276 25.6873 19.5841 25.5873 19.6268 25.4811C19.7699 25.1394 19.717 24.7613 19.6087 24.4174L19.5918 24.5495C19.8444 24.1793 20.0586 23.7522 20.0191 23.2864C19.9864 22.8946 19.8038 22.5404 19.6448 22.1874L19.6617 22.3195C19.7316 22.1281 19.9019 21.9869 20.0146 21.8218C20.1397 21.6185 20.2075 21.3846 20.2108 21.1452C20.2257 20.8751 20.1991 20.6042 20.1319 20.3423C20.098 20.2034 20.0349 20.069 20.0056 19.93C19.9931 19.7988 20.0085 19.6664 20.0507 19.5416C20.119 19.3209 20.1443 19.0888 20.1251 18.8583C20.1003 18.7251 20.0664 18.5938 20.0236 18.4654C19.9763 18.3105 19.9255 18.1579 19.8737 18.0098C19.8556 17.954 19.8365 17.8959 19.8173 17.8424C19.8094 17.8173 19.7902 17.7194 19.7993 17.8071C19.7778 17.5895 19.4396 17.5873 19.461 17.8071L19.4576 17.8105Z" fill="#229AC0"/>
<path d="M4.68562 32.7653C4.74325 33.0535 4.60334 33.1838 4.52103 33.4833C4.47981 33.6397 4.44779 34.0867 4.47403 34.2464C4.50028 34.4061 4.42367 34.8209 4.51272 34.9555V35.3013C4.51272 35.6471 4.523 35.7567 4.57035 36.0505C4.60869 36.2863 4.74991 35.7088 4.63603 35.9388L4.78261 35.8534C4.39745 35.2566 4.57035 35.7623 4.48495 35.9571C4.35235 36.017 4.22772 36.0935 4.114 36.1848C3.98208 36.2987 3.94713 36.432 3.8885 36.588C3.8328 36.7378 3.75975 36.8804 3.67089 37.0128C3.49578 37.2339 3.34459 37.4733 3.21989 37.7269C3.08121 38.0561 2.92925 38.7601 2.84131 39.1052C2.84131 39.2781 3.07184 39.3357 3.07184 39.3933C3.14964 39.0858 3.39917 38.2212 3.50402 37.9228C3.60992 37.6742 3.75331 37.4437 3.92909 37.2395C4.00052 37.1425 4.06244 37.0388 4.114 36.9297C4.15234 36.8477 4.18729 36.7634 4.21998 36.6791C4.23996 36.6128 4.26484 36.5481 4.2944 36.4855C4.38077 36.3997 4.4836 36.3327 4.59657 36.2885C4.6428 36.2657 4.68903 36.2429 4.73751 36.2236C4.75442 36.2167 4.77359 36.2122 4.78937 36.2042C4.84688 36.2042 4.80516 36.1962 4.78937 36.2042C4.81891 36.2049 4.84807 36.1973 4.8737 36.1825C4.89933 36.1676 4.92047 36.146 4.93482 36.1199C5.06899 35.8489 5.00585 35.5413 4.95512 35.2566C4.90776 34.9947 4.8108 34.6575 4.97203 34.4184C4.98755 34.3924 4.99575 34.3627 4.99575 34.3324C4.99575 34.3021 4.98755 34.2723 4.97203 34.2464C4.89878 34.1392 4.85204 34.0158 4.83576 33.8866C4.81948 33.7574 4.83412 33.6261 4.87845 33.5038C4.97578 33.2711 4.92804 32.9959 5.0101 32.7876C4.97379 32.5924 4.89037 32.8302 4.87845 32.7876C4.86653 32.7451 4.97829 32.5407 4.94046 32.5184C4.90262 32.4961 5.08582 32.5805 5.04327 32.5909C5.00073 32.6014 4.96387 32.6282 4.94046 32.6656L4.68562 32.7653Z" fill="black"/>
<path d="M19.7286 12.1899C19.7263 12.4901 19.7384 12.8642 19.6651 13.1797C19.6261 13.3192 19.6097 13.4642 19.6167 13.6091C19.6471 13.8304 19.6989 14.0482 19.7711 14.2594C19.846 14.4706 19.8842 14.6933 19.8839 14.9177C19.8599 15.096 19.781 15.2621 19.6584 15.3926C19.5482 15.5204 19.4643 15.6691 19.4114 15.8299C19.372 16.0042 19.452 16.1523 19.5039 16.314C19.6167 16.683 19.7542 17.2035 19.5039 17.544C19.3731 17.7206 19.6663 17.8857 19.7959 17.7171C20.0327 17.3994 19.9989 16.9541 19.9267 16.5873C19.8882 16.4001 19.8355 16.2162 19.7689 16.0372C19.7125 15.8835 19.7993 15.7787 19.8895 15.6534C20.0056 15.5127 20.1016 15.3563 20.1748 15.1887C20.235 14.9816 20.2412 14.7623 20.1928 14.5521C20.1297 14.1819 19.8439 13.746 19.9591 13.4002C20.132 13.0544 19.9581 12.8459 20.0168 12.4781C19.7862 11.7288 19.4355 11.8515 19.6133 12.0746L19.7286 12.1899Z" fill="black"/>
<path d="M19.1064 6.9981C19.1559 7.35058 19.0079 7.76632 18.9732 8.14961C18.9498 8.32034 18.955 8.49339 18.9887 8.662C19.0645 8.91605 19.1656 9.16213 19.2905 9.39676C19.4188 9.63092 19.5041 9.88523 19.5428 10.1484C19.5445 10.3619 19.4771 10.571 19.35 10.7463C19.2377 10.9162 19.4193 11.1847 19.3828 11.3829C19.3649 11.5945 19.2316 11.6711 19.3217 11.855C19.5236 12.2673 19.8438 12.8238 19.6709 13.2849C19.8638 13.6755 19.7934 13.669 19.9224 13.4478C20.1563 13.0322 20.0375 12.516 19.8856 12.099C19.806 11.8864 19.7834 11.0045 19.6709 10.8066C19.6491 10.3092 19.5826 11.1428 19.6709 10.9795C19.7882 10.7934 19.885 10.6234 19.9452 10.4137C19.9827 10.1598 19.9521 9.90149 19.8565 9.66367C19.7149 9.24097 19.2901 8.78149 19.3707 8.35502C19.5217 7.9181 19.4579 7.47042 19.4655 7.02834C19.3412 6.70132 19.1081 6.74392 19.1044 7.00386L19.1064 6.9981Z" fill="black"/>
<path d="M19.4576 17.811C19.486 17.9578 19.5302 18.101 19.5895 18.2381C19.6572 18.4431 19.7271 18.6492 19.7756 18.8588C19.8004 18.9583 19.8027 19.0623 19.7823 19.1629C19.7553 19.3576 19.6921 19.5467 19.6696 19.7414C19.6538 19.8182 19.6504 19.897 19.6594 19.9749C19.6797 20.0774 19.735 20.1822 19.7643 20.2836C19.8222 20.4687 19.86 20.6596 19.8771 20.853C19.8922 21.0361 19.8801 21.2203 19.841 21.3997C19.7971 21.5527 19.717 21.6927 19.6076 21.8074C19.5184 21.9088 19.4426 22.0213 19.3821 22.1423C19.361 22.1759 19.3482 22.2141 19.3447 22.2537C19.3412 22.2933 19.347 22.3332 19.3618 22.3701C19.3866 22.4395 19.4249 22.5079 19.4554 22.5774C19.5699 22.7979 19.6487 23.0355 19.6888 23.2812C19.7082 23.5458 19.6494 23.8102 19.5196 24.0409C19.4497 24.1764 19.2693 24.3598 19.2941 24.5181C19.3361 24.6795 19.3677 24.8434 19.3889 25.0089C19.3944 25.1879 19.343 25.3639 19.2423 25.5112C19.1601 25.6051 19.089 25.7083 19.0303 25.8187C18.9345 26.0659 19.1081 26.3813 19.2152 26.5989C19.2948 26.7449 19.3623 26.8972 19.417 27.0544C19.4621 27.2055 19.4577 27.3673 19.4046 27.5157C19.3563 27.6495 19.3223 27.7881 19.3032 27.9291C19.2977 28.0789 19.3395 28.2265 19.4227 28.3505C19.5817 28.6136 19.8274 28.8061 19.9785 29.0783C20.0913 29.2822 20.0575 29.5612 20.0372 29.7856C20.0259 29.9131 20.0101 30.0395 19.9966 30.1671C19.9784 30.2587 19.9765 30.3528 19.9909 30.445C20.0191 30.5589 20.1364 30.6614 20.1995 30.7536C20.2719 30.8607 20.3378 30.9722 20.3968 31.0873C20.7182 31.7149 20.7576 32.4313 20.69 33.1237C20.6697 33.3424 21.0079 33.3413 21.0282 33.1237C21.0993 32.3903 21.0418 31.6431 20.7182 30.9735C20.6544 30.8421 20.5817 30.7154 20.5006 30.5942C20.4622 30.5373 20.4228 30.4803 20.3878 30.4279C20.3679 30.3987 20.3465 30.3705 20.3235 30.3436C20.2784 30.3004 20.3359 30.3573 20.3235 30.3755C20.3285 30.3377 20.3285 30.2994 20.3235 30.2616C20.3235 30.2001 20.3359 30.1375 20.3427 30.076C20.3596 29.9257 20.3777 29.7742 20.3856 29.6204C20.4025 29.3061 20.3709 29.0248 20.1826 28.7651C20.0699 28.6091 19.9368 28.4701 19.8184 28.3198C19.726 28.2059 19.62 28.0647 19.6425 27.9086C19.6696 27.7275 19.7553 27.5578 19.7801 27.3745C19.8018 27.1816 19.7702 26.9865 19.6888 26.8107C19.6155 26.6308 19.5185 26.4611 19.4396 26.2834C19.3997 26.1985 19.3702 26.109 19.3516 26.0169C19.3516 26.0009 19.3359 25.903 19.337 25.9599C19.337 25.9269 19.337 25.9599 19.337 25.9463C19.3739 25.8878 19.4146 25.8319 19.4588 25.7789C19.5276 25.6877 19.5841 25.5878 19.6268 25.4816C19.7699 25.1399 19.717 24.7618 19.6087 24.4178L19.5918 24.55C19.8444 24.1798 20.0586 23.7527 20.0191 23.2869C19.9864 22.8951 19.8038 22.5409 19.6448 22.1878L19.6617 22.32C19.7316 22.1286 19.9019 21.9874 20.0146 21.8222C20.1397 21.6189 20.2075 21.3851 20.2108 21.1457C20.2257 20.8756 20.1991 20.6047 20.1319 20.3428C20.098 20.2038 20.0349 20.0695 20.0056 19.9305C19.9931 19.7993 20.0085 19.6669 20.0507 19.5421C20.119 19.3214 20.1443 19.0893 20.1251 18.8588C20.1003 18.7256 20.0664 18.5943 20.0236 18.4659C19.9763 18.311 19.9255 18.1583 19.8737 18.0103C19.8556 17.9545 19.8365 17.8964 19.8173 17.8429C19.8094 17.8178 19.7902 17.7199 19.7993 17.8076C19.7778 17.59 19.4396 17.5877 19.461 17.8076L19.4576 17.811Z" fill="black"/>
<path d="M20.6974 33.2386C20.6512 33.6973 20.5813 34.2386 20.8196 34.6337C21.0096 34.9562 21.3507 35.1787 21.4739 35.5562C21.5376 35.7512 21.5068 35.98 21.4862 36.1813C21.4546 36.394 21.447 36.6111 21.4636 36.8263C21.5088 37.1926 21.7482 37.4939 21.9413 37.7601C22.0378 37.8852 22.121 38.0247 22.1888 38.1752C22.2692 38.3899 22.3079 38.6243 22.3018 38.8602C22.3018 38.9099 22.318 38.9576 22.3469 38.9928C22.3758 39.028 22.415 39.0477 22.4559 39.0477C22.4967 39.0477 22.5359 39.028 22.5648 38.9928C22.5937 38.9576 22.6099 38.9099 22.6099 38.8602C22.6186 38.4675 22.5231 38.0818 22.3377 37.7601C22.1703 37.4839 21.9546 37.2601 21.8242 36.9501C21.6608 36.575 21.8488 36.1038 21.817 35.7C21.7821 35.2525 21.5181 34.9699 21.2685 34.6737C21.1328 34.5399 21.0333 34.3596 20.9829 34.1561C20.9306 33.8586 20.9829 33.5311 21.0096 33.2323C21.0343 32.9936 20.7262 32.9948 20.7015 33.2323L20.6974 33.2386Z" fill="black"/>
<path d="M6.96719 17.5795C6.31592 18.6763 4.2088 18.7469 3.0976 18.0886C2.84977 17.0955 5.21164 13.6514 6.96719 17.5795ZM13.9145 17.2743C13.1641 18.4041 10.7365 18.477 9.45701 17.7993C9.16999 16.7754 11.8915 13.2288 13.9145 17.2743Z" fill="#FFD401"/>
<path d="M3.67733 17.4032C3.66926 18.1765 4.22717 18.6025 4.93723 18.6116C5.64729 18.6207 6.24092 18.2073 6.24899 17.4351C6.25706 16.6629 5.68763 16.0285 4.98103 16.0205C4.27443 16.0126 3.68425 16.631 3.67733 17.4032ZM10.1209 17.0923C10.1128 17.8895 10.7387 18.3872 11.5572 18.3952C12.3756 18.4032 13.0764 17.9203 13.0845 17.1242C13.0788 16.7423 12.9223 16.3777 12.6484 16.1081C12.3745 15.8386 12.0049 15.6854 11.6184 15.6812C11.2319 15.6771 10.859 15.8223 10.5792 16.0859C10.2995 16.3494 10.135 16.7106 10.1209 17.0923Z" fill="#333333"/>
<path d="M6.96713 17.5794C6.31585 18.6762 4.22602 18.6876 3.11598 18.035C3.08946 17.9268 3.1494 17.6626 3.17937 17.5111C3.42605 16.2583 5.58735 14.2606 6.96713 17.584V17.5794ZM13.9144 17.2742C13.164 18.404 10.7364 18.4769 9.45695 17.7992C9.42654 17.6651 9.42891 17.5257 9.46386 17.3927C9.74973 16.0988 12.1151 13.6661 13.9144 17.2788V17.2742Z" stroke="black" stroke-width="0.3" stroke-miterlimit="15.12"/>
<path d="M4.90625 17.3586C4.90625 17.5385 5.12987 17.6866 5.40998 17.6888C5.69008 17.6911 5.91832 17.5499 5.92062 17.3711C5.92293 17.1923 5.697 17.0442 5.41689 17.0408C5.13679 17.0374 4.9074 17.1797 4.90625 17.3586ZM11.6541 17.0898C11.6541 17.2561 11.8847 17.3927 12.1763 17.3961C12.4679 17.3996 12.7031 17.2674 12.7042 17.1012C12.7054 16.9349 12.4737 16.7982 12.1832 16.7959C11.8927 16.7936 11.6553 16.9246 11.6541 17.0898Z" fill="#FFD401"/>
<path d="M6.50561 18.7782C5.98575 18.8181 4.49877 19.9171 4.24057 20.3123C3.39449 21.6096 3.73915 21.5651 3.66422 21.9649C3.99159 22.8943 3.32879 24.097 5.37251 24.3225C6.05837 24.6641 5.83359 25.7245 5.71832 25.8429C5.46473 26.0901 4.85495 26.147 5.2169 26.6982C10.887 29.4032 13.1071 24.3566 12.0339 21.2542C11.2489 19.2805 8.24157 18.6472 6.50561 18.7782Z" fill="#FFD401"/>
<path d="M10.6809 23.6812C10.7477 23.8235 10.1575 25.3895 9.97656 25.287V24.0604L10.6809 23.6812Z" fill="#A37070"/>
<path d="M5.53418 24.4834L5.74282 25.2806L5.58029 26.0335C7.13297 26.2612 9.02223 26.0426 9.85102 25.5358L9.87522 24.0073C8.58997 24.6633 7.58136 24.4538 6.60964 24.1337C6.23848 24.3467 5.87653 24.4914 5.53418 24.4834Z" fill="#FFFFF2"/>
<path d="M9.87285 25.318C9.79677 24.8852 9.70801 24.7941 9.92933 24.1597M5.59981 25.843L5.81536 25.2736L5.60788 24.3829M5.80729 25.1551C6.82743 25.269 8.38587 25.269 9.56162 24.8636M10.8941 23.3613C10.6083 24.5868 10.2751 25.2303 9.99272 25.4364C9.20889 26.0059 7.19052 26.1038 5.52373 25.9717C4.66728 25.9034 4.8909 27.1414 6.47009 27.1949M6.3041 22.3249C6.37327 23.1643 6.24532 23.7132 6.67066 24.0618C9.14319 25.1733 11.5869 23.1005 11.7356 21.957M5.26668 21.8021C4.90934 21.5744 4.42291 21.416 4.39524 21.0402L6.28566 22.3101C7.22049 21.7862 8.38818 21.399 9.30341 20.7464C8.88614 21.3773 8.39624 21.4969 7.91442 21.67M6.59343 18.2988C6.19344 19.3489 3.94223 19.9753 3.80045 20.7566C3.65521 22.0094 3.53879 23.8772 4.44596 24.1449C5.5756 24.6973 6.50352 24.1016 6.5796 24.0196M5.71392 29.1083C6.81359 28.614 7.21819 29.9568 7.09024 29.9135C8.06196 28.9295 9.47632 29.2564 9.59274 29.54C9.56507 28.5149 10.8353 28.1471 11.0232 28.2871M11.2849 21.7418C11.6976 21.6848 11.8682 21.7862 12.2071 22.1973L11.2849 21.7418Z" stroke="black" stroke-width="0.3" stroke-linecap="round" stroke-linejoin="round"/>
<path d="M10.2142 14.2139C10.4505 14.3278 9.59522 17.3311 8.35608 17.9552C8.12554 18.0691 7.07082 18.2605 6.92673 17.9336C7.42009 17.7115 7.45352 15.7879 6.99244 16.027C6.86564 16.5874 5.79133 17.3937 5.52506 17.0657C5.40979 16.871 5.80516 15.9576 5.79133 15.7241C5.54811 15.1421 4.91874 14.3095 4.37006 14.0157C3.50439 14.7628 2.22144 14.8289 1.70042 14.1683C2.90614 13.436 3.14014 14.4633 2.5903 10.3131C1.99666 10.2242 1.12638 10.1992 1.02148 9.35525C3.12861 9.61607 3.02717 7.77216 3.75683 6.09909C4.50608 5.20048 5.85704 5.44877 5.64494 5.47838C6.26509 5.67199 6.23627 6.07859 6.33656 4.47613C6.84259 4.21076 8.21429 4.06954 8.5578 3.86111C9.72778 2.6083 10.3606 3.13562 12.0643 3.31102C13.9017 2.40899 14.8377 3.34746 15.9362 4.18912C15.7944 4.14584 14.4377 5.40663 14.5184 5.8098C15.8417 6.70499 15.0302 7.98172 18.8986 10.3951C18.5528 10.5261 19.3874 6.42368 19.3597 6.75055C19.7055 7.16967 20.1308 7.57285 20.2461 8.07739C20.4536 9.08533 19.8773 10.0204 20.381 11.0044C20.5458 11.3267 21.332 11.2185 21.3838 11.4805C21.2236 12.3142 20.3303 11.936 19.9038 11.7732C19.8058 13.3289 21.7723 12.6046 21.5394 13.1558C20.9354 13.9986 19.9003 13.8392 19.0439 13.6831C18.7372 13.6194 18.3522 13.1308 18.0064 12.8085C17.4382 13.2731 16.6474 13.2116 15.9581 12.8085C15.3609 13.0836 14.6802 13.1243 14.0538 12.9223C13.1155 14.3767 11.76 14.9724 10.2142 14.2059V14.2139Z" fill="#FFD401"/>
<path d="M15.9394 7.8336C15.7734 7.41448 14.9596 6.03411 14.8512 6.10586L14.5054 5.88491L14.0443 5.83594C14.9388 6.45551 14.6841 7.35867 15.3054 8.15705C16.5296 8.86204 17.054 9.18208 17.4102 10.3324C17.9866 10.2379 18.4269 10.4622 18.9087 10.6C18.9087 10.6 19.1519 10.313 18.4764 10.018C16.6736 9.43264 17.8033 8.10694 15.9394 7.8336ZM6.89879 4.46582C6.89879 4.46582 6.0043 5.00111 5.82333 5.28698C5.64235 5.57285 4.84008 5.77671 4.84008 5.77671C4.84008 5.77671 5.76223 5.69471 6.00891 6.19812C6.63021 7.59671 5.25159 7.61493 5.53515 8.92013L6.3455 7.78918L5.90632 8.55454C6.63944 7.78349 7.40482 8.14908 7.49819 7.85638C7.63652 7.40081 6.63021 8.06594 7.16622 6.14231L6.66825 7.22542C6.55298 6.67532 6.76508 6.15484 7.52586 5.55349C7.19158 5.68788 6.74894 5.84733 6.41696 5.43162C6.08499 5.01592 6.89533 4.46582 6.89533 4.46582H6.89879ZM3.37846 7.29489C2.93813 9.2208 0.995845 9.57273 0.988929 9.37228C0.988929 9.37228 0.854064 9.75382 1.37278 9.89504C1.89149 10.0363 2.68569 10.3506 2.68569 10.3506C2.52086 11.1627 3.35771 13.3232 2.71221 13.707C2.3664 13.8813 1.64827 14.256 1.64827 14.256C2.4955 14.9484 3.28048 14.5794 4.36747 14.0282L4.35479 13.7252C4.41667 14.0692 4.58219 14.3868 4.82971 14.6364C5.58703 15.3482 6.0458 15.765 5.78414 16.3072C5.52247 16.8493 5.25505 17.2935 5.58126 17.249C5.90747 17.2046 7.04403 16.142 7.04403 16.142C7.04403 16.142 7.27457 17.5668 7.38984 16.9632C7.52586 16.2354 7.05902 13.7389 6.92184 13.0612C6.77442 12.3355 6.4977 11.6413 6.10459 11.0112C5.73342 10.4543 5.47867 9.53059 5.47867 9.53059C5.47867 9.53059 5.97894 11.6091 5.81295 12.3631C5.64697 13.117 5.15707 13.7993 4.76285 12.9997C4.36863 12.2002 4.33405 12.5305 4.33405 12.5305C4.33405 12.5305 4.32367 12.6171 4.31445 12.6911V12.5852C4.24183 12.5066 3.96864 12.8027 3.5652 12.4895C3.0534 12.0897 3.33466 10.6069 3.51563 10.0636C3.69661 9.52034 4.17843 8.86432 4.17843 8.86432C4.32598 8.53745 4.09313 8.32448 3.39345 8.9543C3.12948 8.86091 3.05801 8.51126 3.37846 7.29489ZM14.1331 8.48278C14.3037 9.95541 14.3821 12.2321 16.0293 11.4565C15.5843 11.108 15.0587 11.1319 15.0172 10.2811C14.9677 9.25497 14.1838 8.45203 14.1331 8.48165V8.48278ZM12.962 12.5954C13.2725 12.5289 13.5661 12.4011 13.8253 12.2196C12.894 12.0043 12.4421 11.2936 12.4087 10.7208C11.3874 10.9565 12.2242 12.6159 12.962 12.5954ZM13.8253 12.2196C13.8827 12.2529 13.942 12.283 14.0028 12.3095L13.951 12.1262C13.951 12.1262 13.9037 12.166 13.8253 12.2196ZM14.0028 12.3095L14.1781 12.9303C14.1781 12.9303 16.0938 13.2924 16.1273 11.9645C15.2443 12.5157 14.54 12.5407 14.0028 12.3061V12.3095ZM16.4385 11.7879C16.4996 12.2355 16.3866 12.1296 16.0927 12.6638L15.2985 13.0658L15.2904 13.4416C16.3809 13.6512 17.4482 13.4724 17.952 13.2059C17.952 13.2059 18.3312 13.7833 18.8326 13.9166C19.1573 13.9953 19.4944 14.0108 19.8251 13.9621C19.7721 13.9348 19.7179 13.9075 19.666 13.879C20.4867 14.0692 21.2176 13.7651 21.4573 13.4621C20.1767 13.6569 19.2142 13.3152 18.4603 12.0749L18.141 12.7218L18.0719 12.6535H17.7802C18.0707 12.5089 18.1883 12.3449 17.8863 12.305C17.2557 12.4736 16.6898 12.2959 16.4385 11.7879ZM10.0018 12.6079C9.75171 12.6079 9.82318 13.3312 9.81626 13.4849C9.7886 14.0077 9.14424 16.9233 9.14424 16.9233L10.3165 14.2776C10.3165 14.2776 12.796 14.8539 13.5983 13.5009C13.5983 13.5009 12.7844 13.9371 11.9176 13.9188C10.7753 13.8949 9.95804 12.6854 10.056 12.6171C10.0386 12.611 10.0203 12.6079 10.0018 12.6079Z" fill="black" fill-opacity="0.2"/>
<path d="M19.0818 10.7119C18.6058 9.82466 17.8323 10.4294 17.5015 9.38276C17.226 8.51035 16.4134 8.33609 15.7264 7.92608C15.6376 6.54799 14.4964 5.89311 14.0065 5.74619M19.9222 11.7733C20.0294 12.1014 21.3826 12.4339 21.3699 11.3986C21.3699 11.0946 19.7562 12.0273 20.1873 9.14358C20.4881 7.68805 19.921 7.33043 19.2305 6.51041M15.8877 4.07881C14.5737 2.99001 13.5259 2.34196 12.0227 3.36813C10.8862 3.43191 10.145 2.35108 8.48859 3.91595C7.11688 4.22687 6.36878 4.19726 5.71521 5.55941C4.80227 5.61863 3.46054 5.87717 3.23461 7.21198C2.65134 10.6595 0.57419 8.69257 0.92922 9.50462C1.28425 10.3167 2.67901 10.467 2.78275 10.1538M19.9152 11.7164C20.1677 13.8211 21.7296 12.6275 21.68 12.9943C21.5094 14.2733 19.4784 14.0819 18.8386 13.3599M10.2649 14.1286C11.5617 15.2675 14.3985 14.0147 14.0388 12.1446C13.9535 11.7369 12.3201 14.0147 11.9663 11.1674M14.1967 12.9305C15.052 13.3439 16.7407 12.615 16.2508 11.3804C16.1033 11.0114 14.6221 12.9111 14.4549 9.95335C14.3846 8.71079 13.8786 8.26548 13.2169 8.03997M6.71113 13.7198C6.8264 12.7312 6.41143 11.639 5.92384 10.7016C5.07546 9.07183 5.91001 7.96822 6.59702 7.56049C6.69154 6.17784 7.20333 5.87147 7.72896 5.58674M4.39998 13.787C4.34119 14.6036 2.5453 15.091 1.6923 14.3302C1.03412 13.7437 3.7003 14.9202 2.68247 11.4624C2.44386 10.0547 3.20118 9.41237 3.83516 8.86683M7.07884 15.2049C7.19411 16.116 6.28925 17.4212 5.45239 17.1935C4.95673 17.0591 6.87482 16.0078 4.95328 14.7903C4.30431 14.2585 4.30085 13.1389 4.34465 12.6981M10.2361 14.1389C9.99977 15.4566 8.71336 18.9223 7.06962 18.1069C6.41374 17.7811 7.95259 17.452 7.05233 16.1639M16.6128 12.8918C17.0831 13.197 18.4029 12.9396 18.411 11.6059C18.411 11.3451 16.9874 12.8678 16.8837 10.0707" stroke="black" stroke-width="0.3" stroke-linecap="round" stroke-linejoin="round"/>
</svg>
