<svg width="14" height="26" viewBox="0 0 14 26" fill="none" xmlns="http://www.w3.org/2000/svg">
<path d="M8.51079 3.7288C8.83213 5.44265 11.8933 6.64125 11.0301 6.27429C10.8535 6.0563 11.3873 4.18392 11.3873 4.18392C11.3873 4.18392 11.624 3.38986 11.5794 3.14932C11.5347 2.90878 11.6619 1.99514 11.5469 1.81747C11.4319 1.6398 11.3061 1.04118 11.2648 0.968065C11.2236 0.894946 11.1255 0.700191 10.9469 0.793127C10.7683 0.886063 10.6479 1.07262 10.5829 1.17854C10.518 1.28446 10.064 2.07168 9.96933 2.18511C9.87462 2.29855 9.41933 2.70104 9.41933 2.70104L8.51079 3.7288ZM4.03845 3.49237C3.8355 3.15069 4.0601 3.44931 3.78679 3.06322C3.78679 3.06322 3.3403 2.66824 3.18877 2.31153C3.03723 1.95482 2.88231 1.6193 2.60833 1.69173C2.33435 1.76417 2.28293 1.86189 2.22272 2.47212C2.16252 3.08235 2.17063 4.44906 2.17063 4.44906C2.18958 4.44496 1.99542 4.45316 2.13207 4.88504C2.77407 4.42514 3.27806 4.1887 4.03845 3.49237ZM1.82088 7.60067C1.4779 8.58402 1.83644 9.65073 1.86756 10.5343C1.64296 10.6026 1.86756 11.029 1.90545 11.3099C1.71197 11.5969 1.7945 11.886 1.96024 12.1757C1.84388 12.5536 1.81276 12.9376 2.14154 13.3483C2.03195 13.69 1.9643 14.0235 2.24167 14.2579C2.26602 14.8469 2.27684 15.4524 2.68545 15.5877C2.54677 15.9143 2.33502 16.2027 2.6178 16.7453C2.50415 17.0398 2.30796 17.3227 2.66516 17.6835C2.57112 18.1017 2.21731 18.3512 2.71589 19.152L2.7098 19.7848C2.57992 20.1422 2.42635 20.5065 2.49806 20.7989L2.5373 21.841C2.12328 22.0071 1.80803 22.8565 1.5354 23.7428C2.11854 24.2211 4.33002 25.9083 7.58669 25.8414C10.637 25.7785 12.6868 24.215 13.2943 23.7141C13.5142 23.3321 12.931 22.6426 12.8417 22.5305C12.7322 21.2206 12.5833 21.0108 12.3797 20.831C12.3073 19.998 12.2782 19.1732 11.9224 18.2842C12.0232 17.6364 11.6822 17.3637 11.5043 16.9523C11.6207 16.3592 11.4326 16.1275 11.3649 15.7517L11.5266 14.8531C11.7736 14.4274 11.7255 13.9647 11.4942 13.4816C11.9711 13.0477 11.7316 12.5618 11.6883 12.0903C11.8385 11.6406 11.6883 11.2218 11.6207 10.7919C11.9028 10.5664 11.6491 10.1714 11.5665 9.83045C11.9785 9.01521 11.7411 8.73709 11.6673 8.32708C11.8087 8.05989 11.8845 7.61092 11.7154 7.53576L11.344 4.62331C9.78802 3.80329 5.6059 1.46349 2.39591 4.67866C2.36287 4.66938 2.32818 4.66774 2.29443 4.67388C1.79653 4.77297 1.80059 6.78407 1.82088 7.60067Z" fill="#FFD401"/>
<path d="M8.41268 3.75615C8.53513 4.38893 8.98297 4.91784 9.45111 5.32785C9.87271 5.69291 10.3331 6.00964 10.8237 6.27224C10.9245 6.3276 11.0321 6.3727 11.1309 6.4301L11.2087 6.24286C11.2242 6.24901 11.2506 6.25926 11.2087 6.24286L11.1363 6.20938C11.1285 6.20514 11.1204 6.20171 11.1119 6.19913C11.0855 6.19161 11.097 6.17999 11.1018 6.20391C11.1139 6.26473 11.1112 6.19708 11.1065 6.20391C11.1018 6.21074 11.1106 6.22441 11.1065 6.19913C11.1065 6.18888 11.1018 6.17931 11.0997 6.16974C11.0977 6.16017 11.0997 6.18614 11.0997 6.15949C11.0997 6.13284 11.0997 6.10961 11.0997 6.08432C11.0997 5.78501 11.1755 5.48161 11.2405 5.19118C11.3392 4.75111 11.4691 4.32128 11.5787 3.88393C11.6262 3.7044 11.6613 3.52173 11.6836 3.33725C11.6998 3.1876 11.6734 3.08373 11.6761 2.93681C11.6761 2.74615 11.693 2.5555 11.6991 2.36484C11.715 2.19486 11.707 2.02348 11.6754 1.85575C11.6529 1.79649 11.6253 1.73933 11.5929 1.68491C11.5588 1.60109 11.5296 1.51529 11.5056 1.42797C11.459 1.27148 11.4278 1.10611 11.3703 0.954407C11.3128 0.802703 11.1674 0.633915 10.9847 0.672183C10.7662 0.717968 10.6045 0.950307 10.495 1.12934C10.3319 1.39654 10.179 1.67056 10.014 1.93638C9.96034 2.03375 9.89313 2.12281 9.81439 2.20084C9.69059 2.32316 9.56138 2.43933 9.43217 2.55482L9.34896 2.62862C9.25087 2.71609 9.39496 2.86027 9.49306 2.77349C9.59115 2.6867 9.67165 2.61358 9.76027 2.53226C9.87326 2.43898 9.97702 2.33485 10.0701 2.22134C10.2502 1.95674 10.4168 1.68305 10.5694 1.40132C10.6328 1.28173 10.7057 1.16747 10.7872 1.05964C10.8393 0.996775 10.9638 0.844388 11.0578 0.870355C11.1146 0.886755 11.1532 0.967391 11.1782 1.01591C11.1782 1.02206 11.1728 0.998141 11.1782 1.02479L11.1884 1.05554C11.2005 1.09381 11.2107 1.13208 11.2215 1.17035C11.2459 1.25986 11.2702 1.34938 11.2959 1.43822C11.3216 1.52706 11.3528 1.62956 11.3893 1.72181C11.4042 1.75939 11.4197 1.79698 11.438 1.83251C11.4441 1.84413 11.4515 1.85506 11.4576 1.866C11.4698 1.88786 11.4576 1.866 11.4657 1.8824C11.5165 2.02453 11.4948 2.20562 11.4901 2.35323C11.484 2.54456 11.4698 2.73522 11.4664 2.92656C11.4664 3.06938 11.4887 3.17666 11.4766 3.31128C11.4559 3.48844 11.4215 3.66368 11.3737 3.83541C11.2675 4.26114 11.141 4.68004 11.0449 5.10781C10.9668 5.41009 10.9156 5.71883 10.8921 6.03034C10.8795 6.12617 10.8935 6.22365 10.9326 6.31188C10.9671 6.37065 11.0504 6.39046 11.1099 6.41711C11.1241 6.42326 11.1383 6.4301 11.1532 6.43556C11.2614 6.47862 11.3284 6.30505 11.231 6.24833C11.1566 6.20528 11.0747 6.17111 10.9989 6.13079C10.8019 6.02601 10.6093 5.91349 10.4212 5.79322C9.91046 5.46794 9.41526 5.0839 9.04048 4.60077C8.82751 4.33851 8.67871 4.02925 8.60616 3.69806C8.58113 3.56891 8.38562 3.62358 8.41066 3.75273L8.41268 3.75615Z" fill="black"/>
<path d="M4.12563 3.44113C4.09925 3.39671 4.07286 3.35229 4.04919 3.30446C4.04919 3.29968 4.0343 3.26961 4.03904 3.28464C4.04377 3.29968 4.03904 3.27918 4.03904 3.27576C4.02969 3.24416 4.01603 3.21403 3.99845 3.18624C3.95613 3.11314 3.90673 3.04447 3.85097 2.98123C3.80294 2.93203 3.75085 2.88693 3.70214 2.83773C3.5282 2.6725 3.3846 2.47747 3.27798 2.26167C3.17921 2.04026 3.07503 1.7389 2.84569 1.62205C2.69416 1.54483 2.49256 1.5913 2.36132 1.69038C2.23008 1.78947 2.1922 1.95621 2.16717 2.10928C2.10391 2.55719 2.07339 3.00919 2.07584 3.46163C2.06975 3.79237 2.06704 4.12448 2.06907 4.45522C2.0693 4.47095 2.07305 4.48642 2.08005 4.50047C2.08706 4.51451 2.09713 4.52677 2.10951 4.53631C2.12189 4.54585 2.13625 4.55243 2.15151 4.55555C2.16677 4.55867 2.18253 4.55824 2.19761 4.55431C2.20624 4.55137 2.21461 4.54771 2.22264 4.54337C2.23933 4.53286 2.25268 4.51772 2.26111 4.49977C2.26954 4.48182 2.2727 4.4618 2.27021 4.44209C2.26771 4.42238 2.25968 4.40381 2.24705 4.38857C2.23442 4.37334 2.21773 4.36208 2.19896 4.35614C2.1259 4.33495 2.11305 4.35745 2.08058 4.41621C2.00481 4.55289 1.99195 4.77981 2.0339 4.91853C2.03821 4.93361 2.04585 4.9475 2.05624 4.95916C2.06663 4.97083 2.07951 4.97996 2.09389 4.98588C2.10828 4.9918 2.12381 4.99435 2.13931 4.99334C2.15481 4.99232 2.16989 4.98778 2.1834 4.98004C2.48309 4.7641 2.79631 4.57003 3.10141 4.36502C3.45617 4.12503 3.79327 3.85942 4.11007 3.57028C4.20749 3.48213 4.06339 3.33726 3.96665 3.42541C3.65675 3.70804 3.32687 3.96749 2.97964 4.2017C2.68063 4.4067 2.37079 4.59463 2.08057 4.80578L2.2294 4.8666C2.19077 4.77197 2.17838 4.6685 2.19355 4.56729C2.18881 4.58438 2.20302 4.55089 2.2037 4.54952C2.2037 4.56319 2.21046 4.54952 2.19423 4.55841C2.20776 4.55021 2.21452 4.55841 2.18881 4.55841C2.21858 4.55362 2.14078 4.55841 2.14484 4.55841L2.12049 4.37117L2.14349 4.3616L2.27405 4.45249C2.26999 3.80536 2.2639 3.15412 2.32276 2.50631C2.33967 2.32385 2.34238 2.09629 2.42762 1.92956C2.44531 1.88956 2.47614 1.85697 2.51489 1.8373C2.56933 1.80528 2.63116 1.78831 2.69416 1.7881C2.78955 1.79562 2.85787 1.88992 2.9059 1.96509C2.9729 2.07653 3.03126 2.19305 3.08044 2.3136C3.18053 2.53124 3.3164 2.73018 3.48228 2.90197C3.54519 2.9703 3.61081 3.03864 3.67846 3.10014C3.72848 3.15162 3.77252 3.20871 3.80971 3.27029C3.8185 3.28464 3.82729 3.29899 3.83677 3.31266C3.84624 3.32633 3.85097 3.34341 3.84353 3.32359C3.83609 3.30378 3.84353 3.32974 3.84353 3.33589C3.87049 3.40983 3.90687 3.47989 3.95177 3.54432C4.01874 3.65707 4.19396 3.55388 4.12563 3.44113Z" fill="black"/>
<path d="M11.0442 1.73206L10.4712 3.12336L10.5916 2.44001C10.0423 3.19169 9.85291 3.80671 9.47542 3.80671C9.02284 3.90784 9.0844 3.45342 8.85101 3.27711L8.51276 3.71582C8.90513 5.04494 9.83532 5.65791 10.9373 6.23329L11.0348 6.07817C10.821 5.80483 10.7425 5.31486 10.825 5.04426C10.8352 4.96499 11.1362 3.52312 11.1362 3.52312C11.1362 3.52312 10.8879 2.97985 10.8988 2.69695C10.9096 2.41404 11.0442 1.73206 11.0442 1.73206ZM2.41817 1.87351C2.41343 1.87351 2.41073 1.87761 2.40937 1.88513C2.15772 2.46597 2.17936 4.86864 2.19357 4.81055C2.27609 4.72963 2.36726 4.66577 2.46207 4.60892C2.5673 4.54581 2.67701 4.42648 2.78434 4.36685C2.90693 4.29873 3.09317 4.15771 3.19931 4.05562C3.12774 3.78627 2.75439 2.56096 2.71177 2.36484C2.67659 2.20083 2.46079 1.87214 2.41817 1.87351ZM3.57634 21.1502C3.76982 20.995 3.83814 20.4586 3.55063 20.1477C3.37339 19.9557 3.74073 19.5716 3.69675 19.3154C3.65549 19.0741 3.50598 18.8015 3.51816 18.5425C3.52966 18.2937 3.72584 18.0799 3.75561 17.8503C3.7069 17.1956 3.52086 17.21 3.7069 16.8799C3.81108 16.351 3.54048 15.8781 3.58716 15.5815C3.91729 15.2399 4.3029 14.9891 3.7299 14.3057C3.68728 14.2647 3.79079 13.9832 3.61219 13.8718C3.27394 13.662 3.11023 12.2065 3.28274 11.8648C3.37068 11.6912 3.95924 11.0379 4.25081 10.7748C4.33943 10.6956 4.33943 10.606 4.39761 10.5302C4.83869 10.2958 5.50436 10.3887 5.77496 10.7742C5.87305 10.865 6.47514 10.7899 6.61179 10.7742C6.78498 10.7557 7.66443 10.6744 7.79567 10.5466C7.94923 10.3983 7.46418 9.65824 7.44389 9.3562C7.42359 9.05416 7.2362 9.13753 7.7084 8.92091C8.05747 8.83959 9.14934 8.75143 9.10402 8.34074C9.06546 8.35782 9.2745 7.90818 9.05599 7.53439C8.31184 6.24627 1.74979 4.65816 1.86141 7.54532C1.65102 7.77424 1.71799 9.10883 1.71934 8.97079C1.71934 8.7979 1.56578 9.68079 1.95612 10.289C2.02377 10.3997 1.81067 10.5322 1.7897 10.6621C1.7552 10.8773 1.94191 11.0318 1.95071 11.2245C1.95815 11.3885 1.80797 11.5334 1.82488 11.7028C1.83908 11.8395 2.02783 11.9249 2.02783 12.0582C2.02783 12.3062 1.91215 12.5215 1.88847 12.7832C1.86141 13.0818 2.20642 13.336 2.22672 13.3299C2.41546 13.2923 2.04474 13.6832 2.07112 13.8936C2.09412 14.0741 2.25716 14.1943 2.28016 14.3652C2.30587 14.5572 2.29031 14.9897 2.36134 15.1763C2.42493 15.3437 2.32481 15.3342 2.58729 15.5057C2.84978 15.6772 2.45876 16.0524 2.48108 16.3257C2.49191 16.4658 2.63194 16.5505 2.6448 16.6769C2.66171 16.8389 2.46485 17.0261 2.47364 17.2175C2.48176 17.3938 2.65697 17.5325 2.66239 17.6869C2.66915 17.907 2.47094 18.1359 2.46349 18.3703C2.45335 18.6997 2.64547 18.9395 2.71718 19.2416C2.76657 19.4527 2.83422 19.6591 2.71042 19.8402C2.58662 20.0213 2.68059 19.9282 2.50747 20.3778C2.50747 20.3778 2.47311 20.9893 2.54227 21.6918C2.46109 21.9864 2.4662 21.9053 2.4662 21.9053L2.14216 22.1513L2.04745 22.6296C1.96288 22.6112 1.50151 23.3478 1.53466 23.7291C2.08736 24.2403 3.63722 25.1443 5.32306 25.4088C4.69662 25.1115 4.10062 24.5498 3.60204 23.8255C3.60204 23.8255 2.87075 23.2371 3.45389 22.5326C3.68052 22.2592 3.23065 21.4249 3.57634 21.1474V21.1502Z" fill="black" fill-opacity="0.2"/>
<path d="M3.09871 3.58331C3.04363 3.23487 2.96978 2.88972 2.87749 2.5494C2.84502 2.4223 2.64883 2.47628 2.68198 2.60407C2.7743 2.9441 2.84793 3.28904 2.90252 3.63729C2.91049 3.66288 2.92802 3.68433 2.95138 3.69709C2.97475 3.70984 3.00211 3.71291 3.02767 3.70563C3.05319 3.69783 3.07478 3.68045 3.08799 3.65706C3.10121 3.63367 3.10504 3.60605 3.09871 3.57989V3.58331Z" fill="black"/>
<path d="M3.85848 3.08031C3.665 2.77144 3.42214 2.49673 3.24219 2.17897C3.1123 1.94868 2.99121 1.5291 2.65972 1.55712C2.38912 1.58036 2.24368 1.79493 2.18211 2.04025C2.0989 2.37168 2.10229 2.7236 2.10026 3.06528C2.09687 3.53816 2.10567 4.01172 2.05967 4.48255C2.04681 4.61375 2.24976 4.61307 2.26262 4.48255C2.3005 4.09782 2.30118 3.71036 2.30185 3.32085C2.29376 2.98003 2.30709 2.63904 2.34177 2.29992C2.36612 2.11679 2.39656 1.88376 2.57787 1.79424C2.60034 1.77974 2.62562 1.77025 2.65202 1.76641C2.67842 1.76257 2.70533 1.76446 2.73094 1.77196C2.75656 1.77947 2.78029 1.79241 2.80056 1.80992C2.82083 1.82743 2.83716 1.84911 2.84847 1.87351C2.92491 1.99378 2.98377 2.12635 3.05142 2.25072C3.23475 2.58215 3.48641 2.86574 3.68665 3.18691C3.7543 3.2983 3.93222 3.19511 3.86186 3.08373L3.85848 3.08031Z" fill="black"/>
<path d="M10.4179 5.56843C10.6486 5.37504 10.7683 5.03336 10.8657 4.76002C10.9971 4.3922 11.0903 4.01158 11.1438 3.6243C11.1725 3.44545 11.1827 3.26407 11.1742 3.08308C11.1641 2.95256 10.9611 2.9512 10.9713 3.08308C10.995 3.40562 10.9314 3.73637 10.8597 4.04866C10.7852 4.4053 10.669 4.7517 10.5133 5.08052C10.4576 5.20968 10.3763 5.32596 10.2745 5.42219C10.1737 5.50624 10.3178 5.65111 10.4179 5.56706V5.56843Z" fill="black"/>
<path d="M6.9463 2.95384C6.65548 2.8261 6.25347 2.86562 5.93124 2.89575C5.49751 2.93602 5.0653 3.01711 4.64158 3.13768C4.44434 3.18964 4.25166 3.2598 4.06666 3.34701C3.9348 3.41361 4.01222 3.60122 4.14549 3.53402C4.47188 3.37074 4.8407 3.28427 5.19347 3.21337C5.59345 3.12552 5.99902 3.08073 6.40161 3.07995C6.55762 3.0746 6.79446 3.07029 6.93415 3.12194C7.06076 3.17795 7.07122 3.00984 6.94488 2.95444L6.9463 2.95384Z" fill="black"/>
<path d="M8.8759 3.55482C8.64611 3.3314 8.24939 3.22436 7.93196 3.1371C7.50479 3.0194 7.06413 2.94034 6.6171 2.9012C6.41053 2.87909 6.20163 2.8756 5.9938 2.89078C5.84405 2.90575 5.849 3.10865 6.00032 3.09363C6.37044 3.05804 6.75279 3.10936 7.11418 3.16949C7.52666 3.23068 7.92871 3.33409 8.3118 3.47752C8.46211 3.52839 8.5146 3.50781 8.62853 3.60606C8.72841 3.70369 8.83214 3.49553 8.73228 3.39857L8.8759 3.55482Z" fill="black"/>
<path d="M11.1566 6.23064C11.1281 5.94022 11.1796 5.63749 11.2242 5.35185C11.2743 5.04571 11.3406 4.74367 11.4102 4.44231C11.4461 4.28651 11.4657 4.12865 11.5138 3.9749C11.5462 3.87035 11.5882 3.76989 11.6146 3.66261C11.6439 3.53707 11.6569 3.40819 11.6531 3.27925C11.6531 3.18563 11.6355 3.09133 11.6355 2.99771C11.6355 2.8788 11.6572 2.75649 11.6633 2.6369C11.6849 2.25149 11.6795 1.84148 11.528 1.47999C11.4346 1.25926 11.4163 0.965422 11.2432 0.787751C11.0348 0.572495 10.7446 0.752217 10.5991 0.945605C10.386 1.22851 10.2656 1.57565 10.0742 1.8736C9.85362 2.21527 9.5607 2.48861 9.25154 2.74555C8.96902 2.97547 8.73253 3.25773 8.55474 3.57719C8.54234 3.60059 8.5394 3.62794 8.54656 3.65348C8.55371 3.67902 8.57039 3.70076 8.59309 3.71413C8.61579 3.7275 8.64274 3.73145 8.66827 3.72515C8.69379 3.71886 8.71591 3.70281 8.72996 3.68038C8.88112 3.40336 9.08129 3.15669 9.32054 2.95261C9.56513 2.75801 9.79281 2.54265 10.0011 2.30889C10.248 2.01505 10.4165 1.68362 10.5944 1.34537C10.6536 1.22078 10.7296 1.1051 10.8203 1.00164C10.8772 0.942872 10.9834 0.86497 11.0686 0.908704C11.1539 0.952438 11.1816 1.07271 11.2073 1.15129C11.2445 1.26746 11.2749 1.38773 11.3176 1.50117C11.4562 1.84284 11.4826 2.19545 11.4664 2.56378C11.4623 2.66697 11.4549 2.76879 11.4461 2.87334C11.4401 2.98445 11.4413 3.09584 11.4495 3.20681C11.4589 3.33251 11.4516 3.45891 11.4278 3.58266C11.4055 3.68243 11.3676 3.77741 11.3358 3.87445C11.2905 4.01362 11.2561 4.1562 11.233 4.30086C11.2093 4.44983 11.1654 4.59743 11.1356 4.74572C11.0977 4.92111 11.0641 5.09787 11.0348 5.276C10.9834 5.58624 10.9232 5.91767 10.9536 6.23269C10.9665 6.36253 11.1694 6.3639 11.1566 6.23269V6.23064Z" fill="black"/>
<path d="M1.70506 7.65534C1.71724 7.79201 1.66447 7.93346 1.62253 8.06534C1.56851 8.21074 1.52863 8.3611 1.50347 8.5143C1.47364 8.79736 1.54885 9.08152 1.71453 9.31177L1.68815 9.212C1.62862 9.41017 1.56638 9.62885 1.60156 9.83795C1.62967 9.94222 1.67106 10.0424 1.72468 10.1359C1.74601 10.1866 1.76057 10.2399 1.76798 10.2944C1.7761 10.3628 1.74024 10.3805 1.70845 10.4461C1.68111 10.5017 1.66 10.5601 1.64553 10.6204C1.6218 10.7255 1.62506 10.835 1.65502 10.9384C1.68498 11.0419 1.74063 11.1359 1.81669 11.2115C1.90869 11.3058 2.05211 11.1602 1.9601 11.0666C1.91947 11.0273 1.88709 10.9801 1.86489 10.9278C1.84269 10.8756 1.83113 10.8194 1.83089 10.7625C1.83307 10.6887 1.85107 10.6162 1.88366 10.55C1.92154 10.4694 1.98108 10.4133 1.97296 10.3204C1.95943 10.155 1.89313 10.0341 1.82683 9.88852C1.75174 9.72315 1.82683 9.48603 1.87486 9.29742C1.89719 9.20927 1.86133 9.17989 1.82074 9.10813C1.78664 9.0434 1.76095 8.9745 1.7443 8.90313C1.71117 8.7892 1.7069 8.66973 1.71225 8.55111C1.73458 8.24566 1.9344 7.96763 1.90531 7.65534C1.89448 7.52482 1.69153 7.52413 1.70236 7.65534H1.70506Z" fill="black"/>
<path d="M2.14051 4.39114C2.13221 4.5281 2.05898 4.66013 1.99788 4.78431C1.92282 4.92004 1.86101 5.0628 1.81333 5.21055C1.74171 5.48601 1.77379 5.7782 1.90337 6.03055L1.89213 5.92796C1.80377 6.11507 1.70968 6.32204 1.71335 6.53406C1.72564 6.64135 1.75166 6.74655 1.79076 6.847C1.80431 6.90029 1.81077 6.95517 1.80998 7.01022C1.80784 7.079 1.76974 7.09123 1.72854 7.15137C1.69324 7.20222 1.66368 7.25688 1.64039 7.31432C1.60129 7.41472 1.58822 7.52346 1.60245 7.63023C1.61668 7.73699 1.65772 7.83823 1.72168 7.92431C1.79862 8.03126 1.9621 7.90866 1.88506 7.8024C1.85073 7.75745 1.82573 7.70596 1.81156 7.651C1.79738 7.59603 1.89672 7.68648 1.90495 7.63022C1.81605 7.44456 1.84427 7.34073 1.88634 7.28016C1.93581 7.20606 2.00301 7.15951 2.00882 7.0664C2.02005 6.90086 1.97249 6.77139 1.92859 6.61759C1.87894 6.44288 1.98849 6.21958 2.06405 6.04022C2.09925 5.95637 2.06816 5.92198 2.0387 5.84498C2.01462 5.7759 1.99946 5.70394 1.99362 5.63089C1.97781 5.5133 1.99137 5.39452 2.01432 5.27802C2.0457 5.13918 2.14689 5.06602 2.16186 4.98933C2.1791 4.901 2.10877 4.81011 2.12728 4.64352C2.12728 4.47064 2.14666 4.25939 2.13783 4.39074L2.14051 4.39114Z" fill="black"/>
<path d="M8.01346 12.296C7.99836 12.5382 8.04641 12.7802 8.15281 12.9978C8.2024 13.1059 8.26439 13.2077 8.3375 13.3012C8.37193 13.3453 8.40898 13.3873 8.44844 13.4269C8.46488 13.447 8.48455 13.4641 8.50662 13.4775C8.52624 13.4864 8.50662 13.5021 8.50662 13.459L8.55668 13.3702H8.65816C8.68792 13.3839 8.66627 13.375 8.65004 13.3565C8.6338 13.3381 8.61689 13.3162 8.5993 13.2964C8.56372 13.2528 8.52147 13.2152 8.47415 13.185C8.44678 13.1671 8.41422 13.1592 8.38178 13.1624C8.34934 13.1656 8.31895 13.1799 8.29556 13.2028C8.22338 13.2812 8.1636 13.3704 8.11831 13.4672C8.04382 13.6195 8.01083 13.7891 8.02272 13.9586C8.03461 14.1281 8.09095 14.2913 8.18596 14.4314C8.25006 14.5297 8.32372 14.6213 8.40582 14.7048C8.4233 14.7283 8.44377 14.7495 8.46671 14.7676C8.43288 14.7499 8.49377 14.7055 8.51136 14.6815C8.57292 14.5989 8.58577 14.6098 8.52218 14.5982C8.49097 14.5923 8.45922 14.5897 8.42747 14.5907C8.12237 14.6064 8.18732 14.9699 8.26105 15.1647C8.32119 15.323 8.39856 15.474 8.49174 15.615C8.56302 15.7366 8.65671 15.8433 8.76775 15.9293C8.87599 16.0031 8.97746 15.8255 8.8699 15.7524C8.85385 15.7413 8.8391 15.7285 8.82593 15.7141C8.80225 15.6902 8.77993 15.6642 8.75828 15.6382C8.71216 15.5803 8.6699 15.5194 8.63177 15.4558C8.54229 15.3169 8.47197 15.1663 8.42274 15.0082C8.40405 14.9535 8.39534 14.8959 8.39703 14.838C8.39852 14.824 8.40314 14.8104 8.41056 14.7984C8.40447 14.8093 8.41056 14.7984 8.42409 14.7984C8.43078 14.7969 8.4377 14.7969 8.44438 14.7984C8.45708 14.799 8.46973 14.8004 8.48227 14.8025C8.52218 14.808 8.55736 14.8216 8.59524 14.8025C8.60934 14.7934 8.62116 14.7811 8.62979 14.7666C8.63841 14.7521 8.64362 14.7358 8.64499 14.7189C8.64636 14.7021 8.64387 14.6851 8.63771 14.6694C8.63154 14.6537 8.62187 14.6396 8.60945 14.6282C8.54721 14.5558 8.47415 14.4916 8.41665 14.4157C8.31646 14.2911 8.24961 14.1427 8.22249 13.9845C8.21275 13.8789 8.22407 13.7723 8.25579 13.6711C8.28751 13.5699 8.33899 13.4762 8.40718 13.3955C8.41982 13.3816 8.43136 13.3668 8.44168 13.3511C8.45927 13.3176 8.41259 13.3647 8.39297 13.3709C8.37335 13.377 8.36794 13.3565 8.3835 13.377C8.38891 13.3846 8.42544 13.4167 8.44235 13.4344C8.47022 13.4709 8.50051 13.5053 8.533 13.5376C8.63651 13.6258 8.74136 13.5048 8.68995 13.401C8.65898 13.3525 8.62009 13.3098 8.57495 13.2745C8.52701 13.2259 8.48395 13.1725 8.44641 13.1153C8.2803 12.8799 8.19911 12.5941 8.2164 12.3055C8.22926 12.1743 8.02631 12.175 8.01346 12.3055V12.296Z" fill="black"/>
<path d="M9.28208 10.699C9.03335 10.6378 8.77347 10.6399 8.52575 10.7051C8.43446 10.7343 8.34557 10.7706 8.25989 10.8138C8.18 10.8428 8.10477 10.8836 8.03664 10.9347C7.91419 11.053 8.06032 11.1616 8.17194 11.1937C8.26263 11.2192 8.3555 11.2359 8.44931 11.2436C8.58122 11.2559 8.57581 11.055 8.44931 11.0386C8.4351 11.0386 8.42022 11.0386 8.40601 11.0345L8.50749 11.137C8.50749 10.9669 8.29371 10.9423 8.16924 10.9443C7.97473 10.9464 7.78391 10.9981 7.6145 11.0946C7.52722 11.1402 7.45555 11.2112 7.40885 11.2985C7.36214 11.3858 7.34258 11.4852 7.3527 11.5839C7.38179 11.8395 7.55565 12.039 7.7586 12.1812C7.97846 12.341 8.23958 12.4329 8.51019 12.4456C8.5371 12.4456 8.56291 12.4348 8.58194 12.4156C8.60097 12.3964 8.61167 12.3703 8.61167 12.3431C8.61167 12.3159 8.60097 12.2899 8.58194 12.2706C8.56291 12.2514 8.5371 12.2406 8.51019 12.2406C8.332 12.2322 8.15834 12.1811 8.00349 12.0917C7.83707 12.0021 7.66524 11.8737 7.58947 11.6946C7.52791 11.558 7.53738 11.4104 7.65712 11.3113C7.7752 11.2254 7.91354 11.1724 8.05829 11.1575C8.12172 11.1487 8.18591 11.1469 8.24974 11.152C8.26327 11.152 8.27612 11.1575 8.28965 11.1602C8.30318 11.163 8.32686 11.1678 8.30589 11.1643C8.32551 11.1643 8.31198 11.1725 8.30995 11.1643C8.30995 11.1643 8.30115 11.1322 8.30115 11.1391C8.30184 11.166 8.31275 11.1917 8.33163 11.2108C8.35052 11.2298 8.37593 11.2409 8.40263 11.2416C8.41683 11.2416 8.43172 11.2416 8.44592 11.2457V11.0407C8.44053 11.0413 8.43508 11.0413 8.42969 11.0407C8.40263 11.0297 8.42969 11.0407 8.40601 11.0407C8.36271 11.0338 8.32009 11.0263 8.27747 11.0167L8.20982 11.0003C8.20035 10.9969 8.19021 10.9942 8.18141 10.9901C8.17262 10.986 8.18818 10.986 8.17329 10.9901C8.15841 10.9942 8.17329 10.9682 8.17329 10.9901C8.17898 10.9955 8.18316 11.0023 8.18541 11.0099C8.18767 11.0174 8.18792 11.0255 8.18615 11.0331C8.19088 11.0435 8.19211 11.0551 8.18967 11.0662C8.18722 11.0773 8.18123 11.0873 8.17262 11.0946C8.17262 11.0946 8.17262 11.0946 8.18006 11.0905C8.19591 11.0849 8.2111 11.0776 8.22538 11.0687C8.35421 10.997 8.49029 10.9395 8.63128 10.8972C8.82692 10.8566 9.02897 10.8599 9.22322 10.9067C9.3504 10.9327 9.4052 10.7345 9.27734 10.7092L9.28208 10.699Z" fill="black"/>
<path d="M2.80747 19.8744C2.83723 19.6871 2.89744 19.4944 2.90082 19.3038C2.90421 19.1131 2.74523 19.0024 2.67825 18.8418C2.61091 18.6751 2.60021 18.4905 2.64781 18.317C2.68299 18.1865 2.74523 18.0662 2.78311 17.9371C2.83047 17.7833 2.83994 17.6446 2.74726 17.5072C2.6975 17.4505 2.65954 17.3843 2.63563 17.3125C2.62238 17.2333 2.63274 17.152 2.6654 17.0788C2.71884 16.9571 2.821 16.8533 2.821 16.7111C2.821 16.5574 2.6857 16.4337 2.63496 16.297C2.58422 16.1603 2.66269 16.0408 2.7087 15.9219C2.74658 15.8262 2.82641 15.6772 2.79394 15.5692C2.77296 15.5009 2.66743 15.4374 2.62007 15.3813C2.57328 15.3267 2.53496 15.2651 2.50642 15.1989C2.45421 15.063 2.42583 14.9189 2.42254 14.7731C2.41645 14.6877 2.41307 14.6009 2.40901 14.5148C2.41135 14.4205 2.40273 14.3263 2.3833 14.234C2.33865 14.083 2.17697 13.9825 2.18035 13.8171C2.18173 13.7245 2.2097 13.6343 2.26085 13.5575C2.3055 13.4891 2.3833 13.4379 2.33933 13.3484C2.31752 13.3121 2.29262 13.2778 2.26491 13.2459C2.21282 13.1781 2.166 13.1064 2.12488 13.0313C2.02814 12.8475 2.03355 12.6165 2.07955 12.4163C2.09173 12.365 2.10661 12.3145 2.12352 12.2653C2.14989 12.2133 2.16814 12.1575 2.17764 12.0999C2.17764 12.0425 2.13029 11.9987 2.09579 11.9571C2.04272 11.8978 1.99892 11.8308 1.9659 11.7582C1.95266 11.7321 1.94576 11.7032 1.94576 11.6738C1.94576 11.6445 1.95266 11.6155 1.9659 11.5894C2.04573 11.4411 2.14653 11.2655 2.0552 11.0995C1.99161 10.984 1.81639 11.0872 1.87998 11.2026C1.94358 11.3181 1.78866 11.4596 1.75686 11.5553C1.70883 11.7015 1.77919 11.8641 1.86172 11.9823C1.89659 12.0362 1.93621 12.0867 1.98011 12.1334C2.00311 12.1573 1.98011 12.1375 1.98011 12.1368L1.98417 12.1429C1.97334 12.0944 1.96387 12.091 1.95575 12.1313C1.93006 12.1801 1.91225 12.2327 1.90299 12.2871C1.84497 12.485 1.83111 12.6934 1.8624 12.8974C1.89965 13.0579 1.97355 13.2074 2.0782 13.334C2.09444 13.3559 2.13638 13.4358 2.16141 13.4468V13.3511L2.1445 13.3709C2.12688 13.3897 2.11124 13.4103 2.09782 13.4324C2.06898 13.4751 2.04493 13.521 2.02611 13.5691C1.98784 13.6538 1.97131 13.747 1.97805 13.8399C1.98479 13.9328 2.01458 14.0225 2.06467 14.1007C2.10768 14.1554 2.14636 14.2135 2.18035 14.2743C2.21485 14.3495 2.20267 14.4602 2.20673 14.5429C2.22162 14.8504 2.22568 15.1825 2.40968 15.4435C2.45149 15.5033 2.49908 15.5587 2.55175 15.6089C2.56827 15.6258 2.5859 15.6415 2.60452 15.656L2.59572 15.6157C2.59572 15.6267 2.59572 15.6287 2.59572 15.6205C2.58451 15.6484 2.57656 15.6775 2.57204 15.7073C2.52942 15.8385 2.46719 15.9635 2.42863 16.0961C2.38195 16.2546 2.44621 16.3961 2.52537 16.5314C2.55513 16.582 2.61399 16.6503 2.61737 16.7118C2.60999 16.7656 2.58876 16.8165 2.55581 16.8594C2.47138 16.9824 2.42672 17.1287 2.42795 17.2783C2.43078 17.3643 2.45776 17.4477 2.50575 17.5188C2.54228 17.5756 2.6079 17.6391 2.61737 17.7081C2.63563 17.8448 2.54025 18.0074 2.49357 18.1304C2.42713 18.2929 2.40179 18.4695 2.41983 18.6443C2.43102 18.7569 2.46123 18.8667 2.50913 18.9689C2.55851 19.0659 2.64443 19.1445 2.68367 19.2457C2.69884 19.321 2.69511 19.399 2.67284 19.4725C2.65187 19.5894 2.62684 19.7056 2.60857 19.8224C2.58828 19.9516 2.78379 20.0076 2.80408 19.8771L2.80747 19.8744Z" fill="black"/>
<path d="M11.4745 10.8862C11.4915 10.9743 11.5181 11.0602 11.5537 11.1425C11.5943 11.2655 11.6362 11.3892 11.6653 11.5149C11.6802 11.5746 11.6816 11.637 11.6694 11.6974C11.6531 11.8142 11.6152 11.9276 11.6017 12.0445C11.5922 12.0906 11.5902 12.1379 11.5956 12.1846C11.6078 12.2461 11.6409 12.309 11.6585 12.3698C11.6933 12.4809 11.7159 12.5954 11.7262 12.7115C11.7353 12.8213 11.728 12.9318 11.7045 13.0395C11.6782 13.1313 11.6301 13.2152 11.5645 13.2841C11.511 13.3449 11.4655 13.4124 11.4292 13.485C11.4166 13.5052 11.4089 13.5281 11.4068 13.5519C11.4047 13.5756 11.4082 13.5996 11.417 13.6217C11.4319 13.6634 11.4549 13.7044 11.4732 13.746C11.5419 13.8784 11.5891 14.0209 11.6132 14.1684C11.6249 14.3271 11.5896 14.4858 11.5117 14.6242C11.4698 14.7055 11.3616 14.8155 11.3764 14.9105C11.4016 15.0073 11.4206 15.1057 11.4333 15.205C11.4366 15.3124 11.4058 15.418 11.3453 15.5064C11.296 15.5627 11.2534 15.6246 11.2181 15.6909C11.1606 15.8391 11.2648 16.0284 11.3291 16.159C11.3768 16.2465 11.4173 16.338 11.4502 16.4323C11.4772 16.523 11.4746 16.62 11.4427 16.7091C11.4137 16.7893 11.3933 16.8725 11.3818 16.9571C11.3785 17.0469 11.4037 17.1355 11.4536 17.21C11.5489 17.3678 11.6964 17.4833 11.7871 17.6466C11.8547 17.7689 11.8344 17.9364 11.8222 18.071C11.8155 18.1475 11.806 18.2234 11.7979 18.2999C11.787 18.3548 11.7858 18.4113 11.7945 18.4666C11.8114 18.535 11.8818 18.5965 11.9197 18.6518C11.9631 18.7161 12.0027 18.7829 12.038 18.852C12.2309 19.2286 12.2545 19.6584 12.2139 20.0739C12.2018 20.2051 12.4047 20.2044 12.4169 20.0739C12.4595 19.6338 12.425 19.1855 12.2309 18.7837C12.1926 18.7049 12.149 18.6289 12.1003 18.5562C12.0773 18.522 12.0536 18.4878 12.0326 18.4564C12.0207 18.4388 12.0078 18.4219 11.9941 18.4058C11.967 18.3798 12.0015 18.414 11.9941 18.4249C11.9971 18.4023 11.9971 18.3793 11.9941 18.3566C11.9941 18.3197 12.0015 18.2821 12.0056 18.2452C12.0157 18.155 12.0266 18.0641 12.0313 17.9719C12.0414 17.7833 12.0225 17.6145 11.9095 17.4587C11.8419 17.3651 11.762 17.2817 11.691 17.1915C11.6355 17.1232 11.5719 17.0384 11.5855 16.9448C11.6017 16.8362 11.6531 16.7343 11.668 16.6243C11.681 16.5086 11.6621 16.3915 11.6132 16.2861C11.5692 16.1781 11.5111 16.0763 11.4637 15.9697C11.4398 15.9187 11.4221 15.865 11.4109 15.8098C11.4109 15.8002 11.4015 15.7414 11.4021 15.7756C11.4021 15.7558 11.4021 15.7756 11.4021 15.7674C11.4243 15.7323 11.4487 15.6988 11.4752 15.6669C11.5165 15.6123 11.5504 15.5523 11.576 15.4886C11.6619 15.2836 11.6301 15.0567 11.5652 14.8503L11.555 14.9296C11.7066 14.7075 11.8351 14.4513 11.8114 14.1718C11.7918 13.9367 11.6822 13.7242 11.5868 13.5123L11.597 13.5916C11.6389 13.4768 11.7411 13.3921 11.8087 13.293C11.8838 13.171 11.9244 13.0307 11.9264 12.8871C11.9354 12.725 11.9194 12.5625 11.8791 12.4053C11.8588 12.3219 11.8209 12.2413 11.8033 12.1579C11.7958 12.0792 11.805 11.9998 11.8304 11.9249C11.8714 11.7924 11.8865 11.6532 11.875 11.5149C11.8601 11.435 11.8398 11.3562 11.8141 11.2791C11.7857 11.1862 11.7553 11.0946 11.7242 11.0058C11.7133 10.9723 11.7018 10.9375 11.6903 10.9054C11.6856 10.8903 11.6741 10.8316 11.6795 10.8842C11.6667 10.7536 11.4637 10.7523 11.4766 10.8842L11.4745 10.8862Z" fill="#229AC0"/>
<path d="M2.61147 19.859C2.64605 20.0319 2.5621 20.1101 2.51271 20.2898C2.48798 20.3837 2.46877 20.6519 2.48452 20.7477C2.50026 20.8435 2.4543 21.0924 2.50773 21.1731V21.3806C2.50773 21.5881 2.51389 21.6538 2.54231 21.8301C2.56531 21.9716 2.65004 21.6251 2.58172 21.7631L2.66966 21.7119C2.43857 21.3538 2.54231 21.6572 2.49107 21.7741C2.41151 21.81 2.33673 21.8559 2.2685 21.9107C2.18935 21.9791 2.16838 22.059 2.1332 22.1526C2.09978 22.2425 2.05595 22.3281 2.00263 22.4075C1.89757 22.5402 1.80685 22.6838 1.73203 22.836C1.64882 23.0335 1.55765 23.4559 1.50488 23.6629C1.50489 23.7667 1.6432 23.8013 1.6432 23.8358C1.68988 23.6513 1.8396 23.1326 1.90251 22.9535C1.96605 22.8044 2.05208 22.6661 2.15755 22.5435C2.20041 22.4853 2.23756 22.4231 2.2685 22.3576C2.2915 22.3084 2.31247 22.2579 2.33209 22.2073C2.34407 22.1675 2.359 22.1287 2.37674 22.0911C2.42856 22.0397 2.49026 21.9994 2.55804 21.9729C2.58578 21.9593 2.61351 21.9456 2.6426 21.934C2.65275 21.9299 2.66425 21.9271 2.67372 21.9224C2.70822 21.9224 2.68319 21.9176 2.67372 21.9224C2.69145 21.9227 2.70894 21.9182 2.72432 21.9093C2.7397 21.9004 2.75238 21.8874 2.76099 21.8718C2.84149 21.7091 2.80361 21.5246 2.77317 21.3538C2.74475 21.1966 2.68658 20.9944 2.78332 20.8509C2.79263 20.8353 2.79755 20.8174 2.79755 20.7993C2.79755 20.7811 2.79263 20.7632 2.78332 20.7477C2.73936 20.6834 2.71132 20.6093 2.70155 20.5318C2.69178 20.4543 2.70057 20.3755 2.72717 20.3021C2.78557 20.1625 2.75692 19.9974 2.80616 19.8724C2.78437 19.7553 2.73432 19.898 2.72717 19.8724C2.72001 19.8469 2.78707 19.7242 2.76437 19.7109C2.74167 19.6975 2.85159 19.7481 2.82606 19.7544C2.80054 19.7607 2.77842 19.7767 2.76437 19.7992L2.61147 19.859Z" fill="black"/>
<path d="M11.6371 7.5137C11.6357 7.6938 11.643 7.91828 11.599 8.10756C11.5755 8.19128 11.5657 8.27829 11.5699 8.36519C11.5882 8.49798 11.6192 8.62866 11.6626 8.75538C11.7075 8.88211 11.7304 9.01574 11.7302 9.15036C11.7158 9.25733 11.6685 9.35702 11.5949 9.43532C11.5288 9.51202 11.4785 9.60121 11.4468 9.69772C11.4231 9.80228 11.4711 9.89111 11.5022 9.98815C11.5699 10.2096 11.6524 10.5218 11.5022 10.7262C11.4238 10.8321 11.5997 10.9312 11.6775 10.83C11.8195 10.6394 11.7992 10.3722 11.7559 10.1522C11.7328 10.0398 11.7012 9.92948 11.6612 9.82209C11.6274 9.72984 11.6795 9.66697 11.7336 9.5918C11.8032 9.50738 11.8608 9.41353 11.9048 9.313C11.9409 9.18873 11.9446 9.05715 11.9156 8.931C11.8777 8.70891 11.7062 8.44737 11.7754 8.23989C11.8791 8.0324 11.7748 7.90732 11.81 7.68659C11.6716 7.23705 11.4612 7.31068 11.5679 7.44453L11.6371 7.5137Z" fill="black"/>
<path d="M11.2638 4.39863C11.2935 4.61012 11.2047 4.85956 11.1839 5.08954C11.1698 5.19197 11.173 5.2958 11.1932 5.39697C11.2386 5.5494 11.2993 5.69705 11.3743 5.83782C11.4512 5.97832 11.5024 6.13091 11.5256 6.28883C11.5266 6.4169 11.4862 6.5424 11.4099 6.64756C11.3426 6.74949 11.4515 6.91059 11.4296 7.02953C11.4189 7.15645 11.3389 7.20244 11.3929 7.31275C11.5141 7.56018 11.7062 7.89405 11.6025 8.1707C11.7182 8.4051 11.676 8.40115 11.7534 8.26844C11.8937 8.01909 11.8225 7.70938 11.7313 7.45915C11.6836 7.33159 11.67 6.80244 11.6025 6.68373C11.5894 6.38528 11.5495 6.88544 11.6025 6.78747C11.6729 6.67584 11.7309 6.57383 11.7671 6.44796C11.7896 6.29567 11.7712 6.14067 11.7138 5.99797C11.6289 5.74435 11.374 5.46866 11.4224 5.21278C11.513 4.95063 11.4747 4.68202 11.4793 4.41677C11.4047 4.22056 11.2648 4.24612 11.2626 4.40208L11.2638 4.39863Z" fill="black"/>
<path d="M11.4745 10.8862C11.4915 10.9743 11.5181 11.0602 11.5537 11.1425C11.5943 11.2655 11.6362 11.3892 11.6653 11.5149C11.6802 11.5746 11.6816 11.637 11.6694 11.6974C11.6531 11.8142 11.6152 11.9276 11.6017 12.0445C11.5922 12.0906 11.5902 12.1379 11.5956 12.1846C11.6078 12.2461 11.6409 12.309 11.6585 12.3698C11.6933 12.4809 11.7159 12.5954 11.7262 12.7115C11.7353 12.8213 11.728 12.9318 11.7045 13.0395C11.6782 13.1313 11.6301 13.2152 11.5645 13.2841C11.511 13.3449 11.4655 13.4124 11.4292 13.485C11.4166 13.5052 11.4089 13.5281 11.4068 13.5519C11.4047 13.5756 11.4082 13.5996 11.417 13.6217C11.4319 13.6634 11.4549 13.7044 11.4732 13.746C11.5419 13.8784 11.5891 14.0209 11.6132 14.1684C11.6249 14.3271 11.5896 14.4858 11.5117 14.6242C11.4698 14.7055 11.3616 14.8155 11.3764 14.9105C11.4016 15.0073 11.4206 15.1057 11.4333 15.205C11.4366 15.3124 11.4058 15.418 11.3453 15.5064C11.296 15.5627 11.2534 15.6246 11.2181 15.6909C11.1606 15.8391 11.2648 16.0284 11.3291 16.159C11.3768 16.2465 11.4173 16.338 11.4502 16.4323C11.4772 16.523 11.4746 16.62 11.4427 16.7091C11.4137 16.7893 11.3933 16.8725 11.3818 16.9571C11.3785 17.0469 11.4037 17.1355 11.4536 17.21C11.5489 17.3678 11.6964 17.4833 11.7871 17.6466C11.8547 17.7689 11.8344 17.9364 11.8222 18.071C11.8155 18.1475 11.806 18.2234 11.7979 18.2999C11.787 18.3548 11.7858 18.4113 11.7945 18.4666C11.8114 18.535 11.8818 18.5965 11.9197 18.6518C11.9631 18.7161 12.0027 18.7829 12.038 18.852C12.2309 19.2286 12.2545 19.6584 12.2139 20.0739C12.2018 20.2051 12.4047 20.2044 12.4169 20.0739C12.4595 19.6338 12.425 19.1855 12.2309 18.7837C12.1926 18.7049 12.149 18.6289 12.1003 18.5562C12.0773 18.522 12.0536 18.4878 12.0326 18.4564C12.0207 18.4388 12.0078 18.4219 11.9941 18.4058C11.967 18.3798 12.0015 18.414 11.9941 18.4249C11.9971 18.4023 11.9971 18.3793 11.9941 18.3566C11.9941 18.3197 12.0015 18.2821 12.0056 18.2452C12.0157 18.155 12.0266 18.0641 12.0313 17.9719C12.0414 17.7833 12.0225 17.6145 11.9095 17.4587C11.8419 17.3651 11.762 17.2817 11.691 17.1915C11.6355 17.1232 11.5719 17.0384 11.5855 16.9448C11.6017 16.8362 11.6531 16.7343 11.668 16.6243C11.681 16.5086 11.6621 16.3915 11.6132 16.2861C11.5692 16.1781 11.5111 16.0763 11.4637 15.9697C11.4398 15.9187 11.4221 15.865 11.4109 15.8098C11.4109 15.8002 11.4015 15.7414 11.4021 15.7756C11.4021 15.7558 11.4021 15.7756 11.4021 15.7674C11.4243 15.7323 11.4487 15.6988 11.4752 15.6669C11.5165 15.6123 11.5504 15.5523 11.576 15.4886C11.6619 15.2836 11.6301 15.0567 11.5652 14.8503L11.555 14.9296C11.7066 14.7075 11.8351 14.4513 11.8114 14.1718C11.7918 13.9367 11.6822 13.7242 11.5868 13.5123L11.597 13.5916C11.6389 13.4768 11.7411 13.3921 11.8087 13.293C11.8838 13.171 11.9244 13.0307 11.9264 12.8871C11.9354 12.725 11.9194 12.5625 11.8791 12.4053C11.8588 12.3219 11.8209 12.2413 11.8033 12.1579C11.7958 12.0792 11.805 11.9998 11.8304 11.9249C11.8714 11.7924 11.8865 11.6532 11.875 11.5149C11.8601 11.435 11.8398 11.3562 11.8141 11.2791C11.7857 11.1862 11.7553 11.0946 11.7242 11.0058C11.7133 10.9723 11.7018 10.9375 11.6903 10.9054C11.6856 10.8903 11.6741 10.8316 11.6795 10.8842C11.6667 10.7536 11.4637 10.7523 11.4766 10.8842L11.4745 10.8862Z" fill="black"/>
<path d="M12.2183 20.1429C12.1906 20.4182 12.1487 20.7429 12.2917 20.98C12.4057 21.1735 12.6103 21.307 12.6842 21.5335C12.7225 21.6505 12.704 21.7878 12.6916 21.9085C12.6727 22.0362 12.6681 22.1664 12.6781 22.2955C12.7052 22.5153 12.8488 22.6961 12.9647 22.8558C13.0226 22.9309 13.0725 23.0146 13.1132 23.1049C13.1614 23.2337 13.1846 23.3743 13.181 23.5159C13.181 23.5457 13.1907 23.5743 13.208 23.5954C13.2254 23.6165 13.2489 23.6284 13.2734 23.6284C13.2979 23.6284 13.3214 23.6165 13.3388 23.5954C13.3561 23.5743 13.3659 23.5457 13.3659 23.5159C13.371 23.2802 13.3138 23.0488 13.2025 22.8558C13.1021 22.6901 12.9727 22.5558 12.8944 22.3698C12.7964 22.1448 12.9092 21.862 12.8901 21.6197C12.8691 21.3512 12.7107 21.1817 12.561 21.004C12.4796 20.9237 12.4199 20.8155 12.3897 20.6934C12.3582 20.5149 12.3897 20.3184 12.4057 20.1391C12.4205 19.9959 12.2356 19.9966 12.2208 20.1391L12.2183 20.1429Z" fill="black"/>
<path d="M3.98002 10.7473C3.58926 11.4053 2.32499 11.4477 1.65827 11.0527C1.50957 10.4569 2.92669 8.3904 3.98002 10.7473ZM8.1484 10.5641C7.69815 11.242 6.24161 11.2858 5.47392 10.8792C5.3017 10.2648 6.93461 8.13688 8.1484 10.5641Z" fill="#FFD401"/>
<path d="M2.00616 10.6414C2.00131 11.1054 2.33606 11.3609 2.76209 11.3664C3.18813 11.3719 3.54431 11.1238 3.54915 10.6605C3.55399 10.1972 3.21233 9.81657 2.78837 9.81179C2.36441 9.807 2.01031 10.1781 2.00616 10.6414ZM5.87229 10.4548C5.86745 10.9332 6.243 11.2318 6.73405 11.2366C7.22509 11.2414 7.6456 10.9516 7.65044 10.474C7.64701 10.2448 7.55313 10.0261 7.38881 9.86434C7.22448 9.70261 7.00272 9.6107 6.7708 9.60821C6.53888 9.60571 6.31515 9.69283 6.1473 9.85098C5.97945 10.0091 5.88077 10.2258 5.87229 10.4548Z" fill="#333333"/>
<path d="M3.97993 10.7473C3.58917 11.4053 2.33527 11.4122 1.66924 11.0206C1.65334 10.9557 1.6893 10.7972 1.70728 10.7063C1.85529 9.95458 3.15207 8.75598 3.97993 10.75V10.7473ZM8.14831 10.5641C7.69806 11.242 6.24152 11.2858 5.47383 10.8792C5.45558 10.7987 5.457 10.715 5.47798 10.6352C5.6495 9.85891 7.06869 8.39927 8.14831 10.5669V10.5641Z" stroke="black" stroke-width="0.3" stroke-miterlimit="15.12"/>
<path d="M2.74341 10.6147C2.74341 10.7227 2.87758 10.8115 3.04565 10.8129C3.21371 10.8142 3.35065 10.7295 3.35203 10.6222C3.35341 10.5149 3.21786 10.4261 3.04979 10.424C2.88173 10.422 2.7441 10.5074 2.74341 10.6147ZM6.79213 10.4534C6.79213 10.5532 6.93045 10.6352 7.10543 10.6372C7.28041 10.6393 7.4215 10.56 7.42219 10.4603C7.42288 10.3605 7.28387 10.2785 7.10958 10.2771C6.93529 10.2758 6.79282 10.3543 6.79213 10.4534Z" fill="#FFD401"/>
<path d="M3.70307 11.4669C3.39115 11.4908 2.49897 12.1502 2.34405 12.3873C1.8364 13.1657 2.0432 13.139 1.99824 13.3789C2.19466 13.9365 1.79698 14.6581 3.02321 14.7934C3.43473 14.9984 3.29986 15.6346 3.2307 15.7057C3.07854 15.854 2.71268 15.8881 2.92985 16.2189C6.33191 17.8418 7.66396 14.8139 7.02007 12.9525C6.54908 11.7682 4.74465 11.3883 3.70307 11.4669Z" fill="#FFD401"/>
<path d="M6.20822 14.4087C6.24833 14.4941 5.89423 15.4337 5.78564 15.3722V14.6362L6.20822 14.4087Z" fill="#A37070"/>
<path d="M3.12012 14.8898L3.2453 15.3682L3.14778 15.8199C4.07939 15.9565 5.21295 15.8253 5.71022 15.5212L5.72474 14.6042C4.95359 14.9978 4.34843 14.8721 3.7654 14.68C3.54269 14.8078 3.32553 14.8946 3.12012 14.8898Z" fill="#FFFFF2"/>
<path d="M5.72327 15.3907C5.67762 15.131 5.62437 15.0763 5.75716 14.6957M3.15944 15.7057L3.28878 15.364L3.16429 14.8297M3.28394 15.293C3.89602 15.3613 4.83108 15.3613 5.53653 15.118M6.33604 14.2167C6.16452 14.952 5.96464 15.3381 5.79519 15.4618C5.3249 15.8034 4.11388 15.8622 3.1138 15.7829C2.59993 15.7419 2.7341 16.4847 3.68162 16.5169M3.58202 13.5948C3.62352 14.0985 3.54675 14.4278 3.80196 14.637C5.28547 15.3039 6.7517 14.0602 6.84092 13.3741M2.95957 13.2812C2.74517 13.1445 2.4533 13.0495 2.43671 12.824L3.57096 13.586C4.13186 13.2716 4.83247 13.0393 5.38161 12.6477C5.13124 13.0263 4.83731 13.098 4.54821 13.2019M3.75562 11.1792C3.51563 11.8092 2.1649 12.1851 2.07983 12.6539C1.99269 13.4056 1.92284 14.5263 2.46714 14.6868C3.14492 15.0183 3.70167 14.6609 3.74732 14.6117M3.22792 17.6649C3.88772 17.3683 4.13047 18.174 4.05371 18.148C4.63674 17.5576 5.48535 17.7537 5.5552 17.9239C5.53861 17.3089 6.30077 17.0881 6.4135 17.1722M6.5705 13.245C6.8181 13.2108 6.92046 13.2716 7.12379 13.5183L6.5705 13.245Z" stroke="black" stroke-width="0.3" stroke-linecap="round" stroke-linejoin="round"/>
<path d="M5.92848 8.72819C6.07026 8.79653 5.55708 10.5985 4.8136 10.973C4.67527 11.0413 4.04244 11.1561 3.95599 10.96C4.252 10.8268 4.27206 9.67258 3.99541 9.81609C3.91934 10.1523 3.27475 10.6361 3.11499 10.4393C3.04583 10.3224 3.28305 9.7744 3.27475 9.63432C3.12882 9.28512 2.7512 8.78559 2.42199 8.60929C1.90258 9.05757 1.13281 9.0972 0.820204 8.70086C1.54363 8.26146 1.68403 8.87785 1.35413 6.38772C0.997949 6.33441 0.475779 6.31938 0.412842 5.81302C1.67712 5.9695 1.61625 4.86316 2.05405 3.85932C2.5036 3.32015 3.31417 3.46912 3.18691 3.48689C3.559 3.60306 3.54171 3.84702 3.60188 2.88554C3.9055 2.72632 4.72853 2.64159 4.93463 2.51653C5.63662 1.76485 6.01632 2.08124 7.03853 2.18648C8.14096 1.64526 8.70256 2.20834 9.36167 2.71334C9.2766 2.68737 8.46256 3.44384 8.51098 3.68575C9.30495 4.22286 8.81805 4.9889 11.1391 6.43692C10.9316 6.5155 11.4324 4.05407 11.4158 4.25019C11.6233 4.50167 11.8785 4.74357 11.9476 5.0463C12.0721 5.65106 11.7263 6.21209 12.0285 6.80251C12.1274 6.9959 12.5991 6.93098 12.6302 7.08815C12.5341 7.58836 11.9981 7.36149 11.7422 7.26377C11.6834 8.19723 12.8633 7.76262 12.7236 8.09336C12.3612 8.59904 11.7401 8.50337 11.2263 8.40975C11.0423 8.37148 10.8113 8.07833 10.6038 7.88494C10.2628 8.16374 9.78839 8.12684 9.37481 7.88494C9.01651 8.05004 8.6081 8.07447 8.23226 7.95327C7.66928 8.82591 6.85594 9.1833 5.92848 8.72341V8.72819Z" fill="#FFD401"/>
<path d="M9.36377 4.90006C9.26418 4.64859 8.7759 3.82037 8.71088 3.86342L8.5034 3.73085L8.22675 3.70147C8.76345 4.07321 8.6106 4.61511 8.98338 5.09413C9.71788 5.51713 10.0326 5.70915 10.2463 6.39933C10.5921 6.34262 10.8563 6.47724 11.1454 6.55992C11.1454 6.55992 11.2913 6.38772 10.886 6.21073C9.80433 5.85949 10.4821 5.06407 9.36377 4.90006ZM3.93942 2.87939C3.93942 2.87939 3.40273 3.20057 3.29414 3.37209C3.18556 3.54361 2.70419 3.66593 2.70419 3.66593C2.70419 3.66593 3.25749 3.61673 3.40549 3.91877C3.77827 4.75793 2.9511 4.76886 3.12124 5.55198L3.60745 4.87341L3.34394 5.33262C3.78381 4.87 4.24304 5.08935 4.29906 4.91373C4.38206 4.64039 3.77827 5.03947 4.09988 3.88529L3.8011 4.53515C3.73194 4.2051 3.85919 3.8928 4.31566 3.53199C4.11509 3.61263 3.84951 3.7083 3.65033 3.45888C3.45114 3.20945 3.93735 2.87939 3.93735 2.87939H3.93942ZM1.82722 4.57684C1.56303 5.73238 0.397653 5.94354 0.393504 5.82327C0.393504 5.82327 0.312585 6.05219 0.623812 6.13693C0.935039 6.22166 1.41156 6.41027 1.41156 6.41027C1.31266 6.8975 1.81478 8.19381 1.42747 8.4241C1.21998 8.52866 0.789108 8.75348 0.789108 8.75348C1.29745 9.16896 1.76844 8.94755 2.42063 8.61681L2.41302 8.43504C2.45015 8.64145 2.54946 8.83198 2.69797 8.98172C3.15236 9.40881 3.42763 9.65892 3.27063 9.98419C3.11363 10.3095 2.95318 10.576 3.1489 10.5493C3.34463 10.5227 4.02656 9.88511 4.02656 9.88511C4.02656 9.88511 4.16489 10.74 4.23405 10.3778C4.31566 9.94114 4.03556 8.44324 3.95325 8.03664C3.8648 7.60118 3.69877 7.1847 3.4629 6.80661C3.2402 6.47245 3.08735 5.91826 3.08735 5.91826C3.08735 5.91826 3.38751 7.16537 3.28792 7.61775C3.18833 8.07013 2.89439 8.47945 2.65786 7.99974C2.42132 7.52003 2.40057 7.7182 2.40057 7.7182C2.40057 7.7182 2.39435 7.77014 2.38882 7.81455V7.751C2.34525 7.70385 2.18133 7.88152 1.93927 7.6936C1.63219 7.45374 1.80094 6.56402 1.90953 6.23806C2.01811 5.91211 2.30721 5.5185 2.30721 5.5185C2.39573 5.32237 2.25603 5.19459 1.83622 5.57248C1.67784 5.51645 1.63495 5.30666 1.82722 4.57684ZM8.28001 5.28957C8.38236 6.17315 8.4294 7.53916 9.41772 7.0738C9.15075 6.8647 8.83537 6.87905 8.81048 6.36858C8.78074 5.75288 8.31044 5.27112 8.28001 5.28889V5.28957ZM7.57732 7.75715C7.76362 7.71726 7.93983 7.64055 8.09535 7.53165C7.53652 7.40249 7.2654 6.97608 7.24535 6.63236C6.63258 6.77381 7.13469 7.76945 7.57732 7.75715ZM8.09535 7.53165C8.12976 7.55167 8.16532 7.56969 8.20185 7.58563L8.17073 7.47561C8.17073 7.47561 8.14237 7.49953 8.09535 7.53165ZM8.20185 7.58563L8.30698 7.95806C8.30698 7.95806 9.45644 8.17536 9.4765 7.37858C8.94672 7.70932 8.52415 7.72435 8.20185 7.58358V7.58563ZM9.66324 7.27266C9.69989 7.54121 9.63212 7.47766 9.45575 7.79815L8.97923 8.03938L8.97439 8.26488C9.62866 8.39062 10.2691 8.28333 10.5713 8.12343C10.5713 8.12343 10.7989 8.46989 11.0997 8.54984C11.2945 8.59707 11.4968 8.60636 11.6952 8.57717C11.6634 8.56077 11.6309 8.54437 11.5998 8.52729C12.0922 8.64141 12.5307 8.45895 12.6745 8.27718C11.9062 8.39404 11.3287 8.18903 10.8763 7.44486L10.6848 7.83301L10.6433 7.792H10.4683C10.6426 7.70522 10.7131 7.60682 10.5319 7.5829C10.1536 7.68403 9.81401 7.57743 9.66324 7.27266ZM5.80125 7.76467C5.65117 7.76467 5.69405 8.1986 5.6899 8.29085C5.6733 8.60451 5.28669 10.3539 5.28669 10.3539L5.99006 8.76646C5.99006 8.76646 7.47773 9.11224 7.9591 8.30042C7.9591 8.30042 7.47081 8.56214 6.95072 8.55121C6.26533 8.53686 5.77497 7.81114 5.83376 7.77014C5.82332 7.76649 5.81232 7.76464 5.80125 7.76467Z" fill="black" fill-opacity="0.2"/>
<path d="M11.2492 6.62687C10.9635 6.09454 10.4994 6.4574 10.301 5.8294C10.1357 5.30595 9.64806 5.2014 9.23586 4.95539C9.18261 4.12854 8.49791 3.73561 8.20397 3.64746M11.7533 7.26375C11.8177 7.46056 12.6296 7.66009 12.622 7.03893C12.622 6.85647 11.6538 7.41614 11.9124 5.68589C12.0929 4.81257 11.7527 4.598 11.3384 4.10599M9.33269 2.64703C8.54424 1.99375 7.91557 1.60492 7.0137 2.22062C6.33176 2.25889 5.88705 1.61039 4.8932 2.54931C4.07018 2.73587 3.62132 2.7181 3.22917 3.53539C2.68141 3.57092 1.87637 3.72604 1.74081 4.52693C1.39086 6.59543 0.144563 5.41529 0.357581 5.90252C0.570599 6.38975 1.40745 6.47995 1.4697 6.29203M11.7492 7.22958C11.9007 8.49242 12.8378 7.77626 12.8081 7.9963C12.7057 8.76371 11.4871 8.6489 11.1032 8.21566M5.95898 8.67692C6.73705 9.36027 8.43912 8.60859 8.22333 7.48652C8.17215 7.24188 7.19213 8.60859 6.97981 6.90021M8.31809 7.95804C8.83127 8.20609 9.84448 7.76875 9.55055 7.028C9.46202 6.80659 8.57329 7.94642 8.47301 6.17176C8.43082 5.42622 8.1272 5.15903 7.73021 5.02373M3.82673 8.4316C3.89589 7.83845 3.64691 7.18312 3.35436 6.62072C2.84533 5.64284 3.34606 4.98068 3.75826 4.73604C3.81497 3.90645 4.12205 3.72263 4.43743 3.55179M2.44004 8.47192C2.40477 8.96188 1.32723 9.25435 0.815432 8.79787C0.420519 8.44595 2.02023 9.15185 1.40953 7.0772C1.26637 6.23257 1.72076 5.84716 2.10115 5.51984M4.04736 9.32269C4.11652 9.86937 3.5736 10.6525 3.07148 10.5158C2.77409 10.4352 3.92494 9.80445 2.77201 9.07395C2.38263 8.75482 2.38056 8.08309 2.40684 7.81863M5.94169 8.68307C5.79991 9.47371 5.02807 11.5531 4.04182 11.0639C3.64829 10.8684 4.5716 10.6709 4.03145 9.89807M9.76771 7.9348C10.0499 8.11794 10.8418 7.9635 10.8466 7.1633C10.8466 7.00681 9.99249 7.92045 9.93025 6.24214" stroke="black" stroke-width="0.3" stroke-linecap="round" stroke-linejoin="round"/>
</svg>
