<svg width="29" height="28" viewBox="0 0 29 28" fill="none" xmlns="http://www.w3.org/2000/svg">
<path d="M28.3387 14C28.3387 21.7333 21.9962 28 14.1693 28C6.34246 28 0 21.7333 0 14C0 6.26667 6.34246 0 14.1693 0C21.9962 0 28.3387 6.26667 28.3387 14Z" fill="#FFD401"/>
<path fill-rule="evenodd" clip-rule="evenodd" d="M14.1583 5.43448C11.941 5.43179 9.8081 6.27371 8.20309 7.78514C4.73632 11.0378 4.58788 16.4765 7.87247 19.9091C8.65366 20.7266 9.59046 21.3837 10.6292 21.8427C11.6679 22.3017 12.7881 22.5536 13.9255 22.584C15.063 22.6144 16.1953 22.4227 17.2576 22.0199C18.3199 21.617 19.2913 21.011 20.1161 20.2365C23.5829 16.9845 23.7307 11.5451 20.4467 8.11248C19.641 7.26321 18.6667 6.58711 17.5848 6.12636C16.5028 5.6656 15.3364 5.43008 14.1583 5.43448V5.43448ZM14.1583 23.0571C12.9155 23.0621 11.6851 22.8139 10.5438 22.328C9.40252 21.8421 8.37486 21.129 7.52498 20.2331C4.06092 16.6118 4.21881 10.8745 7.87382 7.44381C8.74385 6.62686 9.76852 5.9876 10.8891 5.56269C12.0096 5.13778 13.2041 4.93557 14.4039 4.96765C15.6037 4.99974 16.7853 5.26548 17.881 5.74965C18.9766 6.23382 19.9648 6.92689 20.7888 7.78914C24.2529 11.4098 24.095 17.1471 20.44 20.5778C18.7472 22.1725 16.4971 23.0605 14.1583 23.0571" fill="#00092B"/>
<path fill-rule="evenodd" clip-rule="evenodd" d="M20.6798 2.24345L19.138 5.02412C20.709 5.88278 22.0294 7.12703 22.9719 8.63679L25.6984 6.97012C24.4725 5.00879 22.7182 3.33945 20.6798 2.24412V2.24345ZM25.7025 6.97678C24.797 7.53478 23.8706 8.08745 22.9786 8.64812C23.8854 8.08879 24.8152 7.53745 25.7025 6.97545V6.97678ZM25.7106 6.98945C24.8044 7.54612 23.8767 8.09812 22.9847 8.65612C23.8888 8.10012 24.826 7.54745 25.7106 6.98812V6.98945ZM27.7098 13.8001L24.5055 13.8501C24.5346 15.6239 24.099 17.375 23.2411 18.9335L26.052 20.4568C26.498 19.6881 26.8077 18.8674 27.0675 18.0268C27.4524 16.8711 27.6587 15.6646 27.6795 14.4481C27.6828 14.2288 27.672 13.9755 27.7098 13.8001ZM23.2384 18.9335C24.158 19.4435 25.1202 19.9701 26.048 20.4588L23.2384 18.9335ZM23.233 18.9434C24.152 19.4548 25.1128 19.9814 26.0405 20.4721L23.233 18.9434ZM19.4241 22.8348C17.8823 23.736 16.1298 24.2256 14.3387 24.2554L14.3933 27.4281C16.7407 27.3896 19.0373 26.7474 21.057 25.5648C20.5136 24.655 19.9693 23.7459 19.4241 22.8374V22.8348ZM14.3326 24.2554C14.3407 25.2994 14.3562 26.3888 14.3852 27.4281L14.3326 24.2554ZM14.3211 24.2554C14.3286 25.2988 14.3407 26.3888 14.3704 27.4274C14.3542 26.3723 14.3378 25.3161 14.3211 24.2588V24.2554ZM5.25345 19.2375L2.4965 20.8581C3.69723 22.8526 5.39687 24.5085 7.43215 25.6668L9.02249 22.9128C7.46601 22.0286 6.16757 20.7616 5.25345 19.2348V19.2375ZM5.24737 19.2275C4.33379 19.7701 3.38984 20.3048 2.49515 20.8521C3.40941 20.3095 4.34728 19.7728 5.24737 19.2275ZM5.2413 19.2175C4.32704 19.7588 3.38309 20.2934 2.48705 20.8388C3.40199 20.2974 4.33986 19.7621 5.2413 19.2175V19.2175ZM2.3791 7.36879C1.77184 8.40479 1.34271 9.53879 1.01749 10.6848C0.793479 11.7688 0.593084 12.8755 0.612651 13.9915L3.81695 13.9961C3.81757 12.2223 4.28244 10.4787 5.16641 8.93479L2.3791 7.36879ZM2.38652 7.35545C3.29133 7.88279 4.24877 8.42212 5.16843 8.93012L2.38652 7.35545ZM2.39394 7.34212C3.29943 7.87079 4.25552 8.40878 5.17383 8.91945L2.39394 7.34212ZM14.1565 0.591452C11.8081 0.58063 9.49835 1.18147 7.45981 2.33345L9.04476 5.09079C10.6023 4.21629 12.3631 3.75682 14.1545 3.75745C14.1545 2.7019 14.1545 1.64679 14.1545 0.592119L14.1565 0.591452Z" fill="#00092B"/>
</svg>
