<?xml version="1.0" encoding="UTF-8"?>
<svg width="53px" height="22px" viewBox="0 0 53 22" version="1.1" xmlns="http://www.w3.org/2000/svg" xmlns:xlink="http://www.w3.org/1999/xlink">
    <title>apple-pay</title>
    <g id="Screens-+-UI-Kit" stroke="none" stroke-width="1" fill="none" fill-rule="evenodd">
        <g id="Events" transform="translate(-724.000000, -2409.000000)" fill="#FFFFFF" fill-rule="nonzero">
            <g id="Group-44" transform="translate(549.000000, 2342.000000)">
                <g id="Group-32" transform="translate(31.000000, 65.000000)">
                    <g id="apple-pay" transform="translate(144.000000, 2.000000)">
                        <g id="Group">
                            <path d="M10.016826,2.83699751 C10.6408177,2.07325282 11.0641963,1.04786987 10.9526066,0 C10.0391854,0.0444673631 8.92453001,0.589724347 8.2792141,1.3539755 C7.69973408,2.00852698 7.18691806,3.07685791 7.32066015,4.08076688 C8.34587811,4.16777705 9.37037146,3.57926821 10.016826,2.83699751" id="Path"></path>
                            <path d="M10.9409093,4.27676767 C9.4518382,4.18996008 8.18573956,5.10371881 7.47458776,5.10371881 C6.76312542,5.10371881 5.67414188,4.32052598 4.49634201,4.3415948 C2.9633803,4.36367655 1.54097319,5.2117978 0.763053866,6.56070868 C-0.836985918,9.25923948 0.340813956,13.2621125 1.89675612,15.4598537 C2.65231608,16.5471263 3.56304585,17.7444024 4.76289454,17.7013532 C5.89659679,17.6577974 6.34098903,16.9829875 7.71898797,16.9829875 C9.09605527,16.9829875 9.49634988,17.7013532 10.6964056,17.6795753 C11.940973,17.6577974 12.7189958,16.5916949 13.4745558,15.5033081 C14.341395,14.263793 14.6962463,13.0670233 14.7185021,13.0012846 C14.6961428,12.9795067 12.3187012,12.0870194 12.2966524,9.41097549 C12.2741895,7.17028634 14.1632447,6.10438642 14.2521646,6.03834378 C13.1855404,4.49464762 11.5187331,4.32052598 10.9409093,4.27676767" id="Path"></path>
                        </g>
                        <g id="Group" transform="translate(17.653168, 1.244276)">
                            <path d="M6.25358113,0 C9.49009817,0 11.7437351,2.18305378 11.7437351,5.36140668 C11.7437351,8.55110432 9.44361969,10.7455028 6.17242494,10.7455028 L2.5890273,10.7455028 L2.5890273,16.3217507 L0,16.3217507 L0,0 L6.25358113,0 Z M2.58892379,8.61897022 L5.55961291,8.61897022 C7.81376743,8.61897022 9.09663558,7.43141814 9.09663558,5.37275142 C9.09663558,3.31428729 7.81376743,2.13787737 5.57120665,2.13787737 L2.58892379,2.13787737 L2.58892379,8.61897022 Z" id="Shape"></path>
                            <path d="M12.4202092,12.9399014 C12.4202092,10.8585452 14.0500615,9.58043768 16.940112,9.42211766 L20.2689649,9.22986468 L20.2689649,8.31377623 C20.2689649,6.99039103 19.3557507,6.19858835 17.8302421,6.19858835 C16.3849581,6.19858835 15.4833377,6.87714613 15.2639883,7.94051374 L12.9059041,7.94051374 C13.044615,5.79129162 14.9170041,4.20778754 17.922578,4.20778754 C20.8700796,4.20778754 22.7541661,5.73477046 22.7541661,8.12132067 L22.7541661,16.3217507 L20.3613007,16.3217507 L20.3613007,14.3649841 L20.3037461,14.3649841 C19.5987017,15.6884706 18.0611853,16.5253484 16.4661143,16.5253484 C14.0848427,16.5253484 12.4202092,15.0774749 12.4202092,12.9399014 L12.4202092,12.9399014 Z M20.2688614,11.8653916 L20.2688614,10.9266137 L17.2749848,11.1075219 C15.7838433,11.209422 14.9400881,11.8541482 14.9400881,12.8721368 C14.9400881,13.9126123 15.818521,14.5913727 17.1594614,14.5913727 C18.904837,14.5911701 20.2688614,13.4148614 20.2688614,11.8653916 Z" id="Shape"></path>
                            <path d="M25.0130823,20.699203 L25.0130823,18.719747 C25.197754,18.7649234 25.613783,18.7649234 25.8219528,18.7649234 C26.9778074,18.7649234 27.6021096,18.2899633 27.9833574,17.068377 C27.9833574,17.0456875 28.2032244,16.3444402 28.2032244,16.3330954 L23.8108528,4.42262872 L26.5154034,4.42262872 L29.5905397,14.1048653 L29.6365006,14.1048653 L32.7116369,4.42262872 L35.3468322,4.42262872 L30.7921482,16.9437873 C29.752231,19.828291 28.5500015,20.7557242 26.0301225,20.7557242 C25.8219528,20.7557242 25.1976505,20.7330347 25.0130823,20.699203 L25.0130823,20.699203 Z" id="Path"></path>
                        </g>
                    </g>
                </g>
            </g>
        </g>
    </g>
</svg>