<svg width="19" height="18" xmlns="http://www.w3.org/2000/svg"><g fill="#FF5858" fill-rule="nonzero"><path d="M9.5 12.649c-.531 0-.977.461-.977 1.012 0 .55.446 1.012.977 1.012.511 0 .976-.462.953-.988.023-.579-.418-1.036-.953-1.036z"/><path d="M18.538 16.235a3.564 3.564 0 00.007-3.497L12.43 1.761C11.824.656 10.73 0 9.504 0c-1.227 0-2.32.66-2.926 1.757L.454 12.747a3.593 3.593 0 00.012 3.517C1.076 17.348 2.165 18 3.383 18h12.218c1.222 0 2.32-.66 2.937-1.765zm-1.328-.793c-.34.607-.942.967-1.613.967H3.379a1.81 1.81 0 01-1.593-.947 1.976 1.976 0 01-.004-1.93L7.906 2.545c.332-.603.926-.96 1.598-.96.668 0 1.265.36 1.597.964l6.12 10.985a1.95 1.95 0 01-.011 1.907z"/><path d="M9.258 5.545c-.465.138-.754.575-.754 1.105.023.32.043.644.066.964l.2 3.63c.023.413.331.713.73.713.398 0 .71-.32.73-.737 0-.25 0-.482.024-.737.043-.78.09-1.562.132-2.343.024-.506.067-1.012.09-1.518a1.29 1.29 0 00-.09-.506.97.97 0 00-1.128-.57z"/></g></svg>