<svg width="20" height="23" viewBox="0 0 20 23" fill="none" xmlns="http://www.w3.org/2000/svg">
<path fill-rule="evenodd" clip-rule="evenodd" d="M16.8889 9.6582V11.8083C16.8889 14.5634 17.9279 17.1759 19.8145 19.1645C19.9994 19.3594 20.0513 19.6469 19.9465 19.8952C19.8417 20.1436 19.6004 20.3047 19.3333 20.3047H13.2663C12.9565 21.8407 11.6098 23 10 23C8.39029 23 7.04345 21.8407 6.73376 20.3047H0.666717C0.399606 20.3047 0.158274 20.1436 0.053474 19.8952C-0.0513257 19.6469 0.000629693 19.3594 0.185518 19.1645C2.07213 17.1759 3.11115 14.5634 3.11115 11.8083V9.6582C3.11115 6.52162 5.17381 3.86324 8.00003 2.99494V2.02148C8.00003 0.906838 8.89722 0 10 0C11.1028 0 12 0.906838 12 2.02148V2.99494C14.8262 3.86324 16.8889 6.52167 16.8889 9.6582ZM10 1.34766C9.63242 1.34766 9.33336 1.64994 9.33336 2.02148V2.72802C9.55278 2.70663 9.77513 2.69531 10 2.69531C10.2249 2.69531 10.4473 2.70663 10.6667 2.72802V2.02148C10.6667 1.64994 10.3676 1.34766 10 1.34766ZM10 21.6523C9.13091 21.6523 8.38989 21.089 8.11469 20.3047H11.8853C11.6101 21.089 10.8691 21.6523 10 21.6523ZM4.44448 11.8083C4.44448 14.4106 3.62186 16.9 2.1036 18.957H17.8965C16.3782 16.9 15.5556 14.4106 15.5556 11.8083V9.6582C15.5556 6.56196 13.0633 4.04297 10 4.04297C6.9367 4.04297 4.44448 6.56196 4.44448 9.6582V11.8083Z" fill="#FFD401"/>
</svg>
