<svg xmlns="http://www.w3.org/2000/svg" width="30" height="24" viewBox="0 0 30 24">
    <g fill="none" fill-rule="evenodd">
        <g>
            <g>
                <g>
                    <g>
                        <g>
                            <g>
                                <path fill="#FFF" d="M1.07 0.783L23.804 1.015 24.455 5.377 21.334 7.702 21.206 10.782 24.636 13.246 24.239 17.195 13.332 17.348 2.013 17.347 0.803 16.369 0.919 12.759 3.353 11.212 4.157 8.573 2.561 6.037 0.307 5.251z" transform="translate(-245.000000, -870.000000) translate(-0.191647, 856.000000) translate(241.000000, 14.000000) translate(5.000000, 0.000000) translate(14.500000, 12.000000) rotate(-14.000000) translate(-14.500000, -12.000000) translate(1.786691, 2.868132) translate(0.000000, -0.000000)"/>
                                <g fill="#0E0927" fill-rule="nonzero" transform="translate(-245.000000, -870.000000) translate(-0.191647, 856.000000) translate(241.000000, 14.000000) translate(5.000000, 0.000000) translate(14.500000, 12.000000) rotate(-14.000000) translate(-14.500000, -12.000000) translate(1.786691, 2.868132) translate(0.000000, -0.000000)">
                                    <circle cx="12.713" cy="12.403" r="1"/>
                                    <circle cx="12.713" cy="9.182" r="1"/>
                                    <circle cx="12.713" cy="5.861" r="1"/>
                                    <path d="M23.359 18.264H2.068C.926 18.264 0 17.357 0 16.238v-3.204c.008-.706.535-1.302 1.246-1.412 1.247-.193 2.16-1.254 2.144-2.49.015-1.24-.902-2.3-2.153-2.49C.527 6.531.004 5.933 0 5.23V2.026C0 .906.926 0 2.068 0h21.29c1.143 0 2.069.907 2.069 2.026V5.23c-.005.707-.533 1.305-1.246 1.411-1.247.194-2.16 1.254-2.145 2.49-.015 1.24.903 2.301 2.153 2.491.708.113 1.23.71 1.238 1.412v3.204c0 1.119-.926 2.026-2.068 2.026zM1.695 13.216v3.03c0 .202.167.366.373.366h21.29c.207 0 .374-.164.374-.366v-3.03c-2.006-.367-3.46-2.081-3.46-4.08s1.454-3.713 3.46-4.08v-3.03c0-.202-.167-.366-.373-.366H2.068c-.206 0-.373.164-.373.366v3.03c2.006.367 3.46 2.081 3.46 4.08s-1.454 3.713-3.46 4.08z"/>
                                </g>
                            </g>
                        </g>
                    </g>
                </g>
            </g>
        </g>
    </g>
</svg>
