<svg width="31" height="25" xmlns="http://www.w3.org/2000/svg"><g fill="none" fill-rule="evenodd"><path fill="#FFF" d="M1.505 7.08l23.482-5.606 1.769 4.235-2.63 3.15.642 3.141 4.154 1.606.585 4.088-11.199 2.957-11.662 2.907-1.493-.677-.79-3.674 2.118-2.186.165-2.871L4.363 12l-2.52-.214z"/><g transform="rotate(-14 26.834 2.445)" fill="#0E0927" fill-rule="nonzero"><circle cx="13.5" cy="12.903" r="1"/><circle cx="13.5" cy="9.552" r="1"/><circle cx="13.5" cy="6.097" r="1"/><path d="M24.804 19H2.196C.983 19 0 18.057 0 16.893v-3.334c.008-.734.568-1.354 1.323-1.468C2.647 11.889 3.617 10.786 3.6 9.5c.016-1.29-.958-2.393-2.286-2.59C.56 6.794.004 6.172 0 5.44V2.108C0 .943.983 0 2.196 0h22.608C26.017 0 27 .943 27 2.107v3.334c-.005.735-.566 1.358-1.323 1.468-1.324.202-2.294 1.305-2.277 2.591-.016 1.29.958 2.393 2.286 2.59.752.118 1.306.738 1.314 1.47v3.333C27 18.057 26.017 19 24.804 19zM1.8 13.75V16.9c0 .21.177.38.396.38h22.608c.219 0 .396-.17.396-.38V13.75c-2.13-.382-3.674-2.166-3.674-4.245S23.07 5.641 25.2 5.26V2.107c0-.21-.177-.38-.396-.38H2.196a.388.388 0 00-.396.38V5.26c2.13.381 3.674 2.165 3.674 4.244 0 2.08-1.544 3.863-3.674 4.245z"/></g></g></svg>