<svg width="158" height="147" viewBox="0 0 158 147" fill="none" xmlns="http://www.w3.org/2000/svg">
<path d="M52.9194 84.7711L80.5 69.8712L108.081 84.7711L80.5 101.573L52.9194 84.7711Z" stroke="white" stroke-width="4"/>
<path d="M50.5 119.5L81.2184 137.465L109 121" stroke="white" stroke-width="4" stroke-linecap="round"/>
<path d="M50 119L50.5918 85.9655" stroke="white" stroke-width="4" stroke-linecap="round"/>
<path d="M109.253 120.724V85.9655" stroke="white" stroke-width="4" stroke-linecap="round"/>
<path d="M80.8193 137.103L81 126" stroke="white" stroke-width="4" stroke-linecap="round"/>
<ellipse cx="80.591" cy="114.448" rx="1.59099" ry="1.44828" fill="white"/>
<path d="M5.9194 28.7711L33.5 13.8712L61.0806 28.7711L33.5 45.5731L5.9194 28.7711Z" stroke="white" stroke-width="4"/>
<path d="M3.5 63.5L34.2184 81.4655L62 65" stroke="white" stroke-width="4" stroke-linecap="round"/>
<path d="M3 63L3.5918 29.9655" stroke="white" stroke-width="4" stroke-linecap="round"/>
<path d="M62.2529 64.7241V29.9655" stroke="white" stroke-width="4" stroke-linecap="round"/>
<path d="M33.8193 81.1034L34 70" stroke="white" stroke-width="4" stroke-linecap="round"/>
<ellipse cx="33.591" cy="58.4483" rx="1.59099" ry="1.44828" fill="white"/>
<path d="M98.9194 29.7711L126.5 14.8712L154.081 29.7711L126.5 46.5731L98.9194 29.7711Z" stroke="white" stroke-width="4"/>
<path d="M96.5 64.5L127.218 82.4655L155 66" stroke="white" stroke-width="4" stroke-linecap="round"/>
<path d="M96 64L96.5918 30.9655" stroke="white" stroke-width="4" stroke-linecap="round"/>
<path d="M155.253 65.7241V30.9655" stroke="white" stroke-width="4" stroke-linecap="round"/>
<path d="M126.819 82.1034L127 71" stroke="white" stroke-width="4" stroke-linecap="round"/>
<ellipse cx="126.591" cy="59.4483" rx="1.59099" ry="1.44828" fill="white"/>
<line x1="112.057" y1="57.7048" x2="95.7048" y2="76.9429" stroke="white" stroke-linecap="round"/>
<line x1="47.7069" y1="56.0172" x2="67.0172" y2="76.2931" stroke="white" stroke-linecap="round"/>
</svg>
