<svg xmlns="http://www.w3.org/2000/svg" width="25" height="23" viewBox="0 0 25 23">
    <g fill="none" fill-rule="evenodd">
        <g>
            <g>
                <g>
                    <path fill="#FFF" d="M3 1h17c1.105 0 2 .895 2 2v11c0 1.105-.895 2-2 2H9.82l-3.94 3.5-.26-3.5H3c-1.105 0-2-.895-2-2V3c0-1.105.895-2 2-2z" transform="translate(-55.000000, -833.000000) translate(0.000000, 813.000000) translate(56.000000, 21.000000)"/>
                    <path stroke="#120E27" stroke-linecap="round" stroke-width="1.95" d="M5.111 6.368H17.89M5.11 10.19h7.667M3.194 0h16.612C21.57 0 23 1.426 23 3.184v10.19c0 1.758-1.43 3.184-3.194 3.184h-9.584l-5.09 4.439c-.008.007-.02.001-.02-.01v-4.43H3.193C1.43 16.558 0 15.133 0 13.374V3.184C0 1.426 1.43 0 3.194 0z" transform="translate(-55.000000, -833.000000) translate(0.000000, 813.000000) translate(56.000000, 21.000000)"/>
                </g>
            </g>
        </g>
    </g>
</svg>
