<svg width="224" height="297" xmlns="http://www.w3.org/2000/svg" xmlns:xlink="http://www.w3.org/1999/xlink"><defs><path d="M19.342 19.342A44.705 44.705 0 0 1 0 30.748l21.55 10.498a44.885 44.885 0 0 0 11.406-8.29 44.886 44.886 0 0 0 8.29-11.407L30.748 0a44.697 44.697 0 0 1-11.406 19.342z" id="a"/></defs><g fill="none" fill-rule="evenodd"><path d="M46.374 190.593a2.748 2.748 0 0 0-4.414.74L.455 276.528a4.5 4.5 0 0 0 6.017 6.017l85.195-41.505a2.748 2.748 0 0 0 .74-4.414l-46.033-46.033z" fill="#1C124C" fill-rule="nonzero"/><use fill-opacity=".1" fill="#ACC4FF" fill-rule="nonzero" xlink:href="#a" transform="matrix(-1 0 0 1 54.697 228.304)"/><path d="M83.861 215.612a84.07 84.07 0 0 0-7.663-8.81c-13.785-13.784-29.769-20.15-32.901-17.017-3.133 3.133 3.233 19.116 17.017 32.9 13.785 13.786 29.769 20.152 32.902 17.019 1.99-1.99.146-9.169-4.999-17.674l-4.356-6.418z" fill="#0F002D" fill-rule="nonzero"/><g transform="rotate(91 -85.89 140.803)"><ellipse fill="#E2FF54" transform="rotate(-11 15.563 5.667)" cx="15.563" cy="5.667" rx="1.222" ry="1.167"/><path d="m10.56 12.085-2.6-3.724c-.22-.32-.449-.636-.685-.949l-.685-.907.044-.042c.302.215.62.434.95.657.333.222.668.438 1.007.647l3.98 2.42 2.046-1.93L8.69.246l-1.56 1.47 2.875 3.652c.325.403.65.804.979 1.204.328.4.661.809 1 1.226l-.044.042a410.18 410.18 0 0 1-1.37-.887c-.45-.292-.896-.577-1.339-.855L5.086 3.646 3.704 4.95l2.598 3.912c.303.424.608.848.918 1.273.31.424.62.851.929 1.283l-.044.041c-.428-.32-.857-.634-1.289-.944-.43-.31-.856-.62-1.277-.933L1.67 6.87 0 8.445l8.547 5.539 2.012-1.899z" fill="#FFF" fill-rule="nonzero"/></g><g transform="translate(32)" fill-rule="nonzero"><path d="M73.775 38c-2.428-5.054-2.91-10.968-1.533-16.4a14.97 14.97 0 0 1-3.73-5.386c-1.619-4.044-1.6-8.297-1.428-12.663l.002-.045c.036-.92.07-1.787-.086-2.508L71.73 0c.283 1.306.233 2.573.189 3.69l-.002.046c-.15 3.837-.18 7.545 1.093 10.726.315.787.7 1.486 1.133 2.098.348-.677.73-1.336 1.146-1.976 1.886-2.903 4.119-4.73 6.635-5.432 3.3-.919 7.617.534 8.788 4.16.82 2.543-.135 5.471-2.555 7.832-2.422 2.363-5.565 3.665-8.62 3.578a10.337 10.337 0 0 1-2.928-.513c-.7 3.955-.204 8.127 1.536 11.749L73.775 38zm4.243-18.378c.58.208 1.145.318 1.662.333 1.7.05 3.612-.773 5.076-2.202.876-.854 1.632-2.112 1.347-2.995-.266-.824-1.712-1.337-2.864-1.016-1.344.374-2.65 1.524-3.879 3.416-.51.786-.958 1.611-1.342 2.464z" fill="#FAFF54"/><path d="M53.752 204.265a5.872 5.872 0 0 1 2.376-.187c3.453.448 5.576 3.817 5.719 6.924a32.316 32.316 0 0 0 10.718-11.544l2.923 1.681a35.594 35.594 0 0 1-14.59 14.356c-.574 1.257-1.4 2.504-2.465 3.709-3.615 4.09-8.793 6.694-14.208 7.144l-.307-3.389c4.247-.352 8.322-2.271 11.33-5.308-2.552.392-4.665-.34-5.798-2.11-.53-.828-.809-1.846-.852-3.114-.077-2.21.534-4.269 1.717-5.798.904-1.167 2.122-1.986 3.437-2.364zm4.5 8.751c.166-.56.263-1.142.26-1.737a4.5 4.5 0 0 0-.863-2.579c-.303-.413-.955-1.126-1.91-1.25-.969-.125-2.09.397-2.788 1.3-.701.905-1.06 2.182-1.012 3.595.022.628.122 1.073.306 1.362.635.99 2.704.715 4.355.04a31.478 31.478 0 0 0 1.651-.73zM153.984 68c-2.87-1.268-5.117-4.42-3.908-7.502.444-1.13 1.212-1.873 1.829-2.47l.197-.192c.785-.774 1.059-1.53 1.056-1.765-.124-.12-.534-.339-.81-.485-.757-.403-1.7-.904-2.431-1.875-.747-.99-1.059-2.293-.857-3.573.202-1.28.899-2.424 1.913-3.138l2.789 3.955a.372.372 0 0 0 .073-.067.35.35 0 0 0-.049-.087c.097.12.543.357.838.514.747.398 1.77.942 2.507 1.982 1.838 2.598.506 5.882-1.63 7.985l-.226.22c-.25.243-.63.61-.69.763 0 .208.51.936 1.357 1.31L153.984 68z" fill="#ACC4FF"/><path d="M83.984 245c-2.87-1.268-5.117-4.42-3.908-7.502.444-1.13 1.212-1.873 1.829-2.47l.197-.192c.785-.774 1.059-1.53 1.056-1.765-.124-.12-.534-.339-.81-.485-.757-.403-1.7-.904-2.431-1.875-.747-.99-1.059-2.293-.857-3.573.202-1.28.899-2.424 1.913-3.138l2.789 3.955a.372.372 0 0 0 .073-.067.35.35 0 0 0-.049-.087c.097.12.543.357.838.514.747.398 1.77.942 2.507 1.982 1.838 2.598.506 5.882-1.63 7.985l-.226.22c-.25.243-.63.61-.69.763 0 .208.51.936 1.357 1.31L83.984 245z" fill="#FFD1D1"/><circle fill="#ACFFCE" cx="72.5" cy="279.5" r="3.5"/><path d="M132.544 176c-.578-.19-1.332-.24-2.13-.291-1.45-.094-3.255-.21-4.858-1.31-2.009-1.377-2.725-3.585-3.301-5.36-.362-1.114-.704-2.167-1.255-2.777l3.474-3.262c1.242 1.374 1.786 3.05 2.265 4.527.422 1.299.786 2.42 1.454 2.878.54.371 1.458.43 2.519.5 1.005.064 2.145.137 3.288.515l-1.456 4.58zM179.016 148c-.046-1.616-.133-4.625 2.017-6.468.864-.74 1.864-1.07 2.668-1.336l.253-.084c1.604-.541 2.674-1.166 3.368-1.966.677-.78.95-1.866.649-2.58l3.587-1.566c.907 2.15.393 4.81-1.308 6.773-1.17 1.35-2.78 2.338-5.069 3.109l-.274.091c-.555.184-1.079.357-1.359.597-.623.534-.668 1.975-.63 3.314l-3.902.116zM29.016 203c-.046-1.616-.133-4.625 2.017-6.468.864-.74 1.864-1.07 2.668-1.336l.253-.084c1.604-.541 2.674-1.166 3.368-1.966.677-.78.95-1.866.649-2.58L41.558 189c.907 2.15.393 4.81-1.308 6.773-1.17 1.35-2.78 2.338-5.069 3.109l-.274.091c-.555.184-1.079.357-1.359.597-.623.534-.668 1.975-.63 3.314l-3.902.116z" fill="#ACFFCE"/><path d="M33.283 135c-.934 0-1.857-.18-2.714-.55-3.714-1.6-5.006-6.028-4.17-9.532a37.583 37.583 0 0 0-15.672 9.428L8 131.542a41.41 41.41 0 0 1 20.899-11.321c1.043-1.217 2.365-2.34 3.94-3.342 5.35-3.4 11.968-4.645 18.161-3.417l-.743 3.87c-4.856-.963-10.023-.128-14.357 2.291 2.977.379 5.103 1.869 5.802 4.2.327 1.09.312 2.313-.046 3.737-.622 2.484-1.964 4.582-3.776 5.906-1.383 1.01-3.007 1.534-4.597 1.534zm-2.223-11.176a6.91 6.91 0 0 0-.847 1.85c-.282 1.002-.232 2.148.138 3.146.206.557.706 1.558 1.732 2 1.043.45 2.462.226 3.532-.555 1.073-.785 1.884-2.091 2.282-3.679.177-.706.208-1.234.094-1.614-.391-1.305-2.79-1.658-4.852-1.434a36.71 36.71 0 0 0-2.079.286z" fill="#FFD1D1"/><path d="M129.796 97c-1.235 0-2.473-.537-3.533-1.54-.558-.53-.998-1.114-1.387-1.63-.175-.232-.34-.451-.506-.654-1.739-2.122-4.528-3.406-7.283-3.34L117 86.002c3.971-.088 7.852 1.688 10.364 4.754.216.264.413.525.603.778.327.434.635.843.96 1.151.376.357.73.499.908.48.301-.034.782-.472 1.247-.896.367-.334.782-.712 1.261-1.04 2.662-1.828 6.545-1.334 8.657 1.1l-2.924 2.502c-.82-.944-2.506-1.158-3.538-.45-.261.18-.546.439-.847.713-.835.76-1.874 1.707-3.428 1.88a4.292 4.292 0 0 1-.467.025z" fill="#FAFF54"/><path d="M3.9 156a65.013 65.013 0 0 0-3.9-4.058L2.853 149A69.031 69.031 0 0 1 7 153.314L3.9 156z" fill="#ACC4FF"/><path d="M170.225 296.012a65.017 65.017 0 0 0-3.054-4.728l3.362-2.343a69.237 69.237 0 0 1 3.247 5.026l-3.555 2.045z" fill="#ACFFCE"/><path d="M71.768 135c-.49-.147-1.127-.184-1.803-.224-1.227-.072-2.754-.161-4.11-1.007-1.7-1.06-2.306-2.758-2.793-4.124-.306-.857-.595-1.666-1.062-2.136L64.94 125c1.05 1.057 1.51 2.345 1.916 3.482.357 1 .665 1.862 1.23 2.214.458.286 1.234.331 2.132.384.85.05 1.815.107 2.782.397L71.768 135z" fill="#ACC4FF"/><path d="M42.016 168c-.046-1.616-.133-4.625 2.017-6.468.864-.74 1.864-1.07 2.668-1.336l.253-.084c1.604-.541 2.674-1.166 3.368-1.966.677-.78.95-1.866.649-2.58L54.558 154c.907 2.15.393 4.81-1.308 6.773-1.17 1.35-2.78 2.338-5.069 3.109l-.274.091c-.555.184-1.079.357-1.359.597-.623.534-.668 1.975-.63 3.314l-3.902.116z" fill="#FAFF54"/></g></g></svg>