<svg width="292" height="311" xmlns="http://www.w3.org/2000/svg" xmlns:xlink="http://www.w3.org/1999/xlink"><defs><path d="M24.11 24.101A55.73 55.73 0 0 1 0 38.314l26.861 13.082a55.95 55.95 0 0 0 14.22-10.33 55.931 55.931 0 0 0 10.333-14.214L38.327 0A55.691 55.691 0 0 1 24.11 24.101z" id="a"/></defs><g fill="none" fill-rule="evenodd"><g><path d="M234.194 84.855a3.427 3.427 0 0 1 5.502.922l51.737 106.158a5.607 5.607 0 0 1-1.076 6.422 5.612 5.612 0 0 1-6.425 1.076l-106.197-51.718a3.424 3.424 0 0 1-.922-5.5l57.38-57.36z" fill="#1C124C" fill-rule="nonzero"/><use fill-opacity=".096" fill="#ACC4FF" fill-rule="nonzero" xlink:href="#a" transform="translate(223.82 131.845)"/><path d="M187.465 116.03a104.768 104.768 0 0 1 9.553-10.977c17.183-17.177 37.107-25.11 41.012-21.206 3.905 3.904-4.03 23.82-21.213 40.998-17.183 17.176-37.107 25.11-41.012 21.205-2.48-2.48-.182-11.424 6.23-22.023l5.43-7.997z" fill="#0F002D" fill-rule="nonzero"/><path d="M195.32 100.57a5.872 5.872 0 0 1 .27-2.367c1.098-3.304 4.81-4.745 7.887-4.292a32.316 32.316 0 0 0-9.286-12.724l2.208-2.549A35.594 35.594 0 0 1 207.706 95.7c1.125.803 2.191 1.851 3.17 3.127 3.327 4.329 4.895 9.909 4.303 15.31l-3.385-.346c.464-4.235-.642-8.602-3.049-12.134-.102 2.58-1.224 4.514-3.178 5.289-.913.362-1.966.441-3.219.242-2.183-.347-4.088-1.339-5.364-2.793-.973-1.109-1.545-2.461-1.664-3.824zm9.448-2.746a5.978 5.978 0 0 0-1.656-.587 4.5 4.5 0 0 0-2.695.355c-.464.219-1.288.723-1.591 1.636-.309.927-.01 2.127.743 2.985.755.861 1.94 1.458 3.336 1.68.62.098 1.077.085 1.396-.041 1.093-.434 1.217-2.518.87-4.268a31.478 31.478 0 0 0-.403-1.76z" fill="#ACC4FF" fill-rule="nonzero"/><path d="M170.995 139c-1.543 0-3.092-.683-4.417-1.961-.697-.673-1.247-1.417-1.733-2.073-.218-.296-.424-.575-.632-.833-2.174-2.7-5.66-4.334-9.105-4.252l-.108-4.877c4.964-.112 9.815 2.149 12.955 6.05.27.336.516.668.754.99.408.553.794 1.074 1.2 1.465.47.454.912.636 1.134.61.377-.042.979-.6 1.56-1.139.458-.425.977-.906 1.576-1.325 3.327-2.325 8.181-1.696 10.821 1.402l-3.655 3.184c-1.024-1.202-3.133-1.475-4.423-.573-.326.228-.682.558-1.059.908-1.043.968-2.342 2.172-4.284 2.392a5.27 5.27 0 0 1-.584.032z" fill="#FFD1D1" fill-rule="nonzero"/><circle fill="#FFD1D1" fill-rule="nonzero" cx="271.5" cy="38.5" r="3.5"/><path d="M43.458 129A74.301 74.301 0 0 0 39 124.363L42.26 121a78.893 78.893 0 0 1 4.74 4.93L43.458 129z" fill="#ACFFCE" fill-rule="nonzero"/><path d="M82.458 233A74.301 74.301 0 0 0 78 228.363L81.26 225a78.893 78.893 0 0 1 4.74 4.93L82.458 233z" fill="#ACC4FF" fill-rule="nonzero"/><path d="M147.721 10.32a74.3 74.3 0 0 0-.322-6.425l4.667-.399c.212 2.26.328 4.559.342 6.83l-4.687-.007z" fill="#E2FF54" fill-rule="nonzero"/><path d="M121.458 8A74.305 74.305 0 0 0 117 3.362L120.26 0A79.128 79.128 0 0 1 125 4.93L121.458 8z" fill="#ACC4FF" fill-rule="nonzero"/><path d="M159.544 62c-.578-.19-1.332-.24-2.13-.291-1.45-.094-3.255-.21-4.858-1.31-2.009-1.377-2.725-3.585-3.301-5.36-.362-1.114-.704-2.167-1.255-2.777L151.474 49c1.242 1.374 1.786 3.05 2.265 4.527.422 1.299.786 2.42 1.454 2.878.54.371 1.458.43 2.519.5 1.005.064 2.145.137 3.288.515L159.544 62z" fill="#ACFFCE" fill-rule="nonzero"/><path d="M109.02 124c-.057-1.963-.163-5.616 2.482-7.854 1.063-.898 2.294-1.3 3.284-1.623l.311-.102c1.975-.656 3.292-1.415 4.145-2.386.833-.949 1.17-2.267.799-3.134l4.415-1.901c1.116 2.612.484 5.84-1.61 8.224-1.44 1.64-3.422 2.839-6.238 3.775l-.338.111c-.682.223-1.328.433-1.672.725-.768.649-.823 2.398-.775 4.024l-4.803.141z" fill="#FAFF54" fill-rule="nonzero"/><path d="M76.016 72c-.046-1.616-.133-4.625 2.017-6.468.864-.74 1.864-1.07 2.668-1.336l.253-.084c1.604-.541 2.674-1.166 3.368-1.966.677-.78.95-1.866.649-2.58L88.558 58c.907 2.15.393 4.81-1.308 6.773-1.17 1.35-2.78 2.338-5.069 3.109l-.274.091c-.555.184-1.079.357-1.359.597-.623.534-.668 1.975-.63 3.314L76.017 72z" fill="#ACFFCE" fill-rule="nonzero"/><path d="M87.363 35c-1.922-4.123-2.304-8.948-1.213-13.378a12.229 12.229 0 0 1-2.953-4.395c-1.281-3.298-1.266-6.768-1.13-10.33l.001-.037c.029-.75.056-1.457-.068-2.046L85.744 4c.225 1.066.185 2.099.15 3.01l-.001.038c-.12 3.13-.143 6.155.865 8.75.25.642.554 1.212.897 1.712.275-.552.578-1.09.907-1.612 1.493-2.369 3.26-3.86 5.253-4.432 2.612-.75 6.03.436 6.957 3.393.65 2.075-.107 4.464-2.023 6.39-1.917 1.928-4.406 2.99-6.823 2.92a7.966 7.966 0 0 1-2.319-.42c-.554 3.227-.162 6.63 1.216 9.585L87.363 35zm3.36-14.993c.459.17.906.26 1.316.272 1.345.04 2.859-.63 4.018-1.796.693-.697 1.292-1.723 1.067-2.444-.211-.672-1.356-1.09-2.268-.828-1.064.305-2.097 1.242-3.07 2.786-.405.641-.76 1.315-1.064 2.01z" fill="#FAFF54" fill-rule="nonzero"/><path d="M25.283 311c-.934 0-1.857-.18-2.714-.55-3.714-1.6-5.006-6.028-4.17-9.532a37.583 37.583 0 0 0-15.672 9.428L0 307.542a41.41 41.41 0 0 1 20.899-11.321c1.043-1.217 2.365-2.34 3.94-3.342 5.35-3.4 11.968-4.645 18.161-3.417l-.743 3.87c-4.856-.963-10.023-.128-14.357 2.291 2.977.379 5.103 1.869 5.802 4.2.327 1.09.312 2.313-.046 3.737-.622 2.484-1.964 4.582-3.776 5.906-1.383 1.01-3.007 1.534-4.597 1.534zm-2.223-11.176a6.91 6.91 0 0 0-.847 1.85c-.282 1.002-.232 2.148.138 3.146.206.557.706 1.558 1.732 2 1.043.45 2.462.226 3.532-.555 1.073-.785 1.884-2.091 2.282-3.679.177-.706.208-1.234.094-1.614-.391-1.305-2.79-1.658-4.852-1.434a36.71 36.71 0 0 0-2.079.286z" fill="#FFD1D1" fill-rule="nonzero"/><path d="M144.9 295a65.013 65.013 0 0 0-3.9-4.058l2.853-2.942a69.03 69.03 0 0 1 4.147 4.314L144.9 295z" fill="#ACFFCE" fill-rule="nonzero"/><path d="M134.768 150c-.49-.147-1.127-.184-1.803-.224-1.227-.072-2.754-.161-4.11-1.007-1.7-1.06-2.306-2.758-2.793-4.124-.306-.857-.595-1.666-1.062-2.136l2.94-2.509c1.05 1.057 1.51 2.345 1.916 3.482.357 1 .665 1.862 1.23 2.214.458.286 1.234.331 2.132.384.85.05 1.815.107 2.782.397L134.768 150z" fill="#ACC4FF" fill-rule="nonzero"/><ellipse fill="#E2FF54" transform="rotate(-11 244.7 138.423)" cx="244.701" cy="138.423" rx="1.488" ry="1.5"/><path d="m238.621 146.689-3.157-4.797a36.76 36.76 0 0 0-.833-1.222l-.833-1.17.054-.053c.367.278.752.56 1.155.846.403.287.81.565 1.223.833l4.836 3.117 2.486-2.485-7.201-10.318-1.895 1.894 3.493 4.702c.394.52.79 1.037 1.19 1.552.398.515.803 1.041 1.215 1.579l-.054.053c-.564-.385-1.12-.765-1.666-1.141a131.1 131.1 0 0 0-1.625-1.102l-5.038-3.157-1.68 1.679 3.158 5.038c.367.546.738 1.093 1.115 1.64.376.546.752 1.096 1.128 1.652l-.054.053a98.027 98.027 0 0 0-1.565-1.215c-.524-.399-1.04-.8-1.551-1.203l-4.703-3.493-2.028 2.029 10.385 7.134 2.445-2.445z" fill="#FFF" fill-rule="nonzero"/></g><path d="M172.713 209.479a126.931 126.931 0 0 0-7.58-7.95l5.544-5.764a134.776 134.776 0 0 1 8.06 8.452l-6.024 5.262z" fill="#ACC4FF" fill-rule="nonzero"/></g></svg>