
<svg width="20px" height="20px" viewBox="0 0 20 20" version="1.1" xmlns="http://www.w3.org/2000/svg" xmlns:xlink="http://www.w3.org/1999/xlink">
    <g id="My-Wallet" stroke="none" stroke-width="1" fill="none" fill-rule="evenodd" stroke-linecap="round">
        <g id="wallfair-2.0-mobile-responsive-my-wallet-03a" transform="translate(-345.000000, -248.000000)" stroke="#ffd401" stroke-width="1.5">
            <g id="Group-2" transform="translate(30.000000, 228.000000)">
                <g id="Stack" transform="translate(316.000000, 21.000000)">
                    <path d="M4,14 L2,14 C0.89,14 0,13.1 0,12 L0,2 C0,0.89 0.89,0 2,0 L12,0 C13.1,0 14,0.89 14,2 L14,4 M6,18 L16,18 C17.1,18 18,17.1 18,16 L18,6 C18,4.89 17.1,4 16,4 L6,4 C4.89,4 4,4.89 4,6 L4,16 C4,17.1 4.89,18 6,18 Z" id="Shape"></path>
                </g>
            </g>
        </g>
    </g>
</svg>