<svg width="24" height="24" viewBox="0 0 24 24" fill="none" xmlns="http://www.w3.org/2000/svg">
<path d="M2.74246 1.25754C2.33241 0.847487 1.66759 0.847487 1.25754 1.25754C0.847487 1.66759 0.847487 2.33241 1.25754 2.74246L2.74246 1.25754ZM11.2575 12.7425C11.6676 13.1525 12.3324 13.1525 12.7425 12.7425C13.1525 12.3324 13.1525 11.6676 12.7425 11.2575L11.2575 12.7425ZM21.2575 22.7425C21.6676 23.1525 22.3324 23.1525 22.7425 22.7425C23.1525 22.3324 23.1525 21.6676 22.7425 21.2575L21.2575 22.7425ZM12.7425 11.2575C12.3324 10.8475 11.6676 10.8475 11.2575 11.2575C10.8475 11.6676 10.8475 12.3324 11.2575 12.7425L12.7425 11.2575ZM11.2575 11.2575C10.8475 11.6676 10.8475 12.3324 11.2575 12.7425C11.6676 13.1525 12.3324 13.1525 12.7425 12.7425L11.2575 11.2575ZM22.7425 2.74246C23.1525 2.33241 23.1525 1.66759 22.7425 1.25754C22.3324 0.847487 21.6676 0.847487 21.2575 1.25754L22.7425 2.74246ZM1.25754 21.2575C0.847487 21.6676 0.847487 22.3324 1.25754 22.7425C1.66759 23.1525 2.33241 23.1525 2.74246 22.7425L1.25754 21.2575ZM1.25754 2.74246L11.2575 12.7425L12.7425 11.2575L2.74246 1.25754L1.25754 2.74246ZM22.7425 21.2575L12.7425 11.2575L11.2575 12.7425L21.2575 22.7425L22.7425 21.2575ZM12.7425 12.7425L22.7425 2.74246L21.2575 1.25754L11.2575 11.2575L12.7425 12.7425ZM21.2575 1.25754L1.25754 21.2575L2.74246 22.7425L22.7425 2.74246L21.2575 1.25754Z" fill="red"/>
</svg>
