<svg width="19" height="19" xmlns="http://www.w3.org/2000/svg"><g fill="none" fill-rule="evenodd"><g fill="#0E0927" fill-rule="nonzero"><path d="M.92 6.291l.48.351zM2.76 3.898l-.48-.352zM11.24 3.898l-.48.35zM13.08 6.291l.48-.351zM10 9.83a.593.593 0 00-.6-.586c-.331 0-.6.262-.6.585H10zM5.2 9.83a.593.593 0 00-.6-.586c-.331 0-.6.262-.6.585h1.2z"/><path d="M13.5 10.5c.168 0 .335-.006.5-.018v6.372l-.006.153c-.076 1.063-.947 1.913-2.037 1.988L11.8 19v-1.17a.992.992 0 00.993-.863l.007-.113v-6.389c.23.023.464.035.7.035zM2.28 3.546l.96.703L1.799 6.12l5.209.001c.166.411.37.803.608 1.171l-6.417-.001.001 9.562.007.113a.988.988 0 00.876.856l.117.006h9.6V19H2.2l-.157-.005C.953 18.92.083 18.07.006 17.007L0 16.854V7.228l.007-.174c.029-.345.143-.678.332-.971L.44 5.94l1.84-2.394zM6.5 3.5c0 .226.01.45.032.67H3.4l-.061.01a.201.201 0 00-.07.04l-.029.029-.96-.703c.235-.305.589-.5.974-.539L3.4 3h3.118a7.102 7.102 0 00-.018.5z"/><path d="M8.8 9.83c0 .97-.806 1.755-1.8 1.755v1.171c1.657 0 3-1.31 3-2.927H8.8zM7 11.585c-.994 0-1.8-.786-1.8-1.756H4c0 1.617 1.343 2.927 3 2.927v-1.17zM13.5.5a.5.5 0 01.492.41L14 1l-.001 2.5H17a.5.5 0 01.09.992L17 4.5h-3.001L14 7a.5.5 0 01-.992.09L13 7l-.001-2.5H10a.5.5 0 01-.09-.992L10 3.5h2.999L13 1a.5.5 0 01.5-.5z"/></g></g></svg>