<?xml version="1.0" encoding="UTF-8"?>
<svg width="19px" height="19px" viewBox="0 0 19 19" version="1.1" xmlns="http://www.w3.org/2000/svg" xmlns:xlink="http://www.w3.org/1999/xlink">
    <title>Group 23 Copy 2</title>
    <g id="💰-06-Wallet" stroke="none" stroke-width="1" fill="none" fill-rule="evenodd">
        <g id="Group-23-Copy">
            <g id="Group-7" transform="translate(0.000000, 0.500000)" fill="#0E0927" fill-rule="nonzero">
                <g id="Group-3" transform="translate(0.000000, 2.500000)">
                    <polygon id="Path" points="0.92 3.29105951 1.4 3.64227902 1.4 3.64227902"></polygon>
                    <polygon id="Path" points="2.76 0.897560976 2.28 0.546341463 2.28 0.546341463"></polygon>
                    <polygon id="Path" points="11.24 0.897560976 10.76 1.24878049 10.76 1.24878049"></polygon>
                    <polygon id="Path" points="13.08 3.29105951 13.56 2.93984 13.56 2.93984"></polygon>
                    <path d="M10,6.82926829 C10,6.50598244 9.73136,6.24390244 9.4,6.24390244 C9.06864,6.24390244 8.8,6.50598244 8.8,6.82926829 L10,6.82926829 Z" id="Path"></path>
                    <path d="M5.2,6.82926829 C5.2,6.50598244 4.93136,6.24390244 4.6,6.24390244 C4.268632,6.24390244 4,6.50598244 4,6.82926829 L5.2,6.82926829 Z" id="Path"></path>
                    <path d="M13.5,7.5 C13.6682499,7.5 13.8351134,7.49406409 14.0003924,7.48239027 L14,13.8536351 L13.9944763,14.0069431 C13.9175782,15.0701764 13.0469309,15.9195885 11.9571166,15.994611 L11.8,16 L11.8,14.8292683 C12.3128686,14.8292683 12.7355118,14.4526734 12.7932728,13.9674416 L12.8,13.8536585 L12.8002498,7.46546213 C13.0304033,7.48830485 13.2638359,7.5 13.5,7.5 Z M2.28,0.546341463 L3.24,1.24878049 L1.799,3.121 L7.00765513,3.12210209 C7.17387103,3.5332563 7.37801023,3.92501745 7.61573658,4.29304942 L1.199,4.292 L1.2,13.8536351 L1.20672769,13.9674416 C1.26004897,14.4153478 1.62429438,14.7706878 2.08337827,14.8227051 L2.2,14.8292449 L11.8,14.8292449 L11.8,15.9999766 L2.2,15.9999766 L2.04288528,15.994611 C0.953083208,15.9195885 0.0824230907,15.0701764 0.00552382806,14.0069431 L0,13.8536585 L0,4.22764488 L0.00719185937,4.05423578 C0.0358687656,3.70907508 0.149761609,3.37573017 0.339093016,3.08281776 L0.44,2.93986341 L2.28,0.546341463 Z M6.5,0.5 C6.5,0.726267084 6.51073546,0.950026767 6.5317248,1.17079748 L3.4,1.17073171 L3.33893274,1.18004842 C3.31292306,1.18818669 3.28881337,1.20146398 3.26816985,1.21911628 L3.24,1.24878049 L2.28,0.546341463 C2.51502222,0.240626125 2.86898647,0.0467275158 3.25423609,0.0074131995 L3.4,0 L6.5175448,0.000527741594 C6.5059139,0.165505965 6.5,0.33206235 6.5,0.5 Z" id="Combined-Shape"></path>
                    <path d="M8.799984,6.82929171 C8.799984,7.79912585 7.994064,8.58538927 6.999984,8.58538927 L6.999984,9.75612098 C8.656864,9.75612098 9.999984,8.44576 9.999984,6.82929171 L8.799984,6.82929171 Z" id="Path"></path>
                    <path d="M6.999984,8.58538927 C6.005904,8.58538927 5.199984,7.79912585 5.199984,6.82929171 L3.999984,6.82929171 C3.999984,8.44576 5.343104,9.75612098 6.999984,9.75612098 L6.999984,8.58538927 Z" id="Path"></path>
                </g>
                <path d="M13.5,0 C13.7454599,0 13.9496084,0.176875161 13.9919443,0.410124368 L14,0.5 L13.999,3 L17,3 C17.2761424,3 17.5,3.22385763 17.5,3.5 C17.5,3.74545989 17.3231248,3.94960837 17.0898756,3.99194433 L17,4 L13.999,4 L14,6.5 C14,6.77614237 13.7761424,7 13.5,7 C13.2545401,7 13.0503916,6.82312484 13.0080557,6.58987563 L13,6.5 L12.999,4 L10,4 C9.72385763,4 9.5,3.77614237 9.5,3.5 C9.5,3.25454011 9.67687516,3.05039163 9.91012437,3.00805567 L10,3 L12.999,3 L13,0.5 C13,0.223857625 13.2238576,0 13.5,0 Z" id="Shape"></path>
            </g>
            <g id="Group-4" transform="translate(8.000000, 0.000000)">
                <g id="Add.31" transform="translate(3.000000, 3.000000)"></g>
            </g>
        </g>
    </g>
</svg>