<?xml version="1.0" encoding="utf-8"?>
<!-- Generator: Adobe Illustrator 21.1.0, SVG Export Plug-In . SVG Version: 6.00 Build 0)  -->
<svg version="1.1" id="Layer_1" xmlns="http://www.w3.org/2000/svg" xmlns:xlink="http://www.w3.org/1999/xlink" x="0px" y="0px"
	 width="1000px" height="1000px" viewBox="0 0 1000 1000" enable-background="new 0 0 1000 1000" xml:space="preserve">
<g>
	<path fill="#FF3F1F" d="M762.8,659.2c33.4,34.8,42.7,67.5,36.4,112.6c-1,6.9,8,10.6,12.1,4.9c13.6-18.6,32.3-48.6,45.1-86.9
		c24.4-72.8-6.4-124.5-53.4-150.3C791.8,578.2,778.2,618.2,762.8,659.2z"/>
</g>
<g>
	<path fill="#FFFFFF" d="M754.8,267.2c31,32.9,63.2,78.7,66.1,129.2c6,104-44.1,229.1-60.9,267.8c-3.4,7.9-10.5,13.6-18.9,15.4
		c-30.7,6.6-61.3,6.5-92-0.2c-8.4-1.8-15.4-7.6-18.8-15.5c-16.7-38.9-66.3-164.1-60-268.1c3.1-50.5,35.5-96.2,66.6-128.9
		c7.6,5.2,27.1,15.8,58.9,15.8C727.6,282.9,747.2,272.3,754.8,267.2z"/>
</g>
<g>
	<path fill="#C7CED3" d="M690.8,220.3c11.6,9,29.9,24.3,48.6,44.2c32.1,34.1,65.5,81.6,68.5,133.9c6.2,107.8-45.7,237.5-63.2,277.7
		c-0.2,0.5-0.5,1-0.7,1.5c-14.9,6.1-53,6-86,3.6c35.2,2.4,69.1-106.7,87.8-214.2c17.6-100.8-14.5-194.7-61.3-243.1
		C686.4,222.1,688.4,220.9,690.8,220.3z"/>
</g>
<g>
	<polygon fill="#88B0D1" points="706.5,222.7 698.9,178.7 693,178.6 685.3,222.7 	"/>
	<path fill="#003187" d="M706.5,224.7C706.5,224.7,706.5,224.7,706.5,224.7l-21.3,0c-0.6,0-1.2-0.3-1.5-0.7
		c-0.4-0.5-0.5-1.1-0.4-1.6l7.8-44c0.2-1,1-1.7,2-1.7c0,0,0,0,0,0l5.9,0c1,0,1.8,0.7,2,1.7l7.6,44.1c0.1,0.6-0.1,1.2-0.4,1.6
		C707.7,224.5,707.1,224.7,706.5,224.7z M687.6,220.7l16.5,0l-6.9-40.1l-2.5,0L687.6,220.7z"/>
</g>
<g>
	<path fill="#C61700" d="M856.5,689.9c-12.8,38.3-31.6,68.4-45.1,86.9c-4.1,5.7-13.1,2-12.1-4.9c0.2-1.1,0.3-2.3,0.4-3.4
		c13.4-18.7,30.9-47.7,43.2-84.2c22.1-65.9-1-114.5-40.5-142.3c0.3-0.8,0.5-1.7,0.7-2.5C850.1,565.4,880.9,617,856.5,689.9z"/>
</g>
<g>
	<path fill="#FF3F1F" d="M587.5,539.1c-47.1,25.7-78.1,77.2-53.9,150.1c12.7,38.4,31.3,68.5,44.8,87.1c4.1,5.7,13.1,2.1,12.1-4.9
		c-6.1-45.1,3.3-77.8,36.8-112.5C611.8,620.3,598.5,580.4,587.5,539.1z"/>
</g>
<g>
	<path fill="#FF9088" d="M563,750.6c-33.5-81.8-34-138.4-0.7-191.9c0,0-35.9,28.1-37.1,82.9C524.1,693.4,563,750.6,563,750.6z"/>
</g>
<g>
	<path fill="#C61700" d="M570.9,551.6c15,38.6,30.8,81.3,23.8,107.4c-7,26.1-30.6,63.5-6.6,118.6c0,0,3.1-4.2,1.5-14.9
		c-2.7-17.7,1.6-47.6,9.2-63.5c13.1-27.1,29.6-39.5,29.6-39.5l-37.8-109.5L570.9,551.6z"/>
</g>
<g>
	<path fill="#88B0D1" d="M737.4,708.3l0,6.7c0,6.1-4.2,11.5-10.4,13.1c-21.3,5.6-42.7,5.6-64-0.1c-6.1-1.6-10.3-7-10.3-13.2l0-6.7
		L737.4,708.3z"/>
</g>
<g>
	<path fill="#88B0D1" d="M748.7,678.4l0,13.9c0,7.7-5.4,14.6-13.1,16.6c-27,7.1-54,7-81-0.2c-7.8-2.1-13.1-8.9-13.1-16.7l0-13.9
		C677.2,686.6,712.9,686.7,748.7,678.4z"/>
</g>
<g>
	<path fill="#6590A8" d="M739.1,680.2l0,11.8c0,7.7-5.4,14.6-13.1,16.6c-19.4,5.1-38.9,6.5-58.3,4.2c-3-0.7-4.7-2.9-6.7-3.9
		c28.8,5.9,40.7-8.7,40.6-24.4C701.6,684.5,725,683.3,739.1,680.2z"/>
</g>
<g>
	<path fill="#6590A8" d="M727.7,710.6l-0.3,7.7c-0.2,5-3.8,9.3-8.9,10.5c-12.7,2.8-25.4,3.2-37.9,1.3c-1.9-0.5-9.9-1.4-11.1-2.2
		c18.5,4.6,26.5-4.3,26.8-14.5C696.3,713.3,718.4,712.3,727.7,710.6z"/>
</g>
<g>
	<path fill="#FF3F1F" d="M707.2,224c11.1,8.6,29.2,23.6,47.6,43.2c-7.6,5.1-27.1,15.7-59,15.6c-31.9,0-51.4-10.7-58.9-15.8
		c18.5-19.5,36.6-34.4,47.8-43C691.3,218.8,700.5,218.9,707.2,224z"/>
</g>
<g>
	<path fill="#003187" d="M802.8,331.1c1.1,1.2,1.9,2.4,2.7,3.7c0.8,1.3,1.5,2.7,2.1,4c0.6,1.4,1.2,2.8,1.7,4.3
		c0.5,1.5,0.9,2.9,1.1,4.5c0.1,0.6-0.3,1.1-0.9,1.2c-0.4,0.1-0.8-0.1-1-0.4c-1-1.2-1.7-2.5-2.5-3.8c-0.8-1.3-1.4-2.7-2.1-4
		c-0.7-1.4-1.2-2.7-1.8-4.2c-0.5-1.4-1-2.9-1.3-4.4c-0.1-0.6,0.3-1.1,0.8-1.2C802.2,330.7,802.6,330.9,802.8,331.1z"/>
</g>
<g>
	<path fill="#003187" d="M795.9,322.9c-3.4-4.7-6.7-9.4-10-14.1c-3.3-4.7-6.6-9.4-10.1-13.9c-7-9.1-14.5-17.8-22.4-26.2l2.6,0.3
		c-8.9,5.9-18.8,9.8-29,12.4c-5.1,1.3-10.3,2.1-15.5,2.8c-5.2,0.6-10.4,0.8-15.7,0.9c-5.2-0.1-10.5-0.3-15.7-0.9
		c-5.2-0.6-10.4-1.5-15.5-2.8c-10.2-2.6-20.1-6.5-28.9-12.4l2.6-0.3c-9.8,10.4-19,21.2-27.4,32.7c-4.2,5.7-8.2,11.6-11.9,17.7
		c-0.9,1.5-1.9,3-2.7,4.6c-0.9,1.5-1.8,3.1-2.6,4.6c-0.9,1.6-1.7,3.1-2.5,4.7l-1.2,2.4l-0.6,1.2l-0.3,0.6l-0.1,0.3l-0.1,0.1l0,0.1
		c-0.1,0.2-0.3,0.5-0.5,0.7l0.4-0.6c-3.5,7.3-6.7,14.8-9.2,22.5l-1.8,5.8l-0.9,2.9c-0.3,1-0.5,2-0.8,2.9c-1,3.9-1.8,7.9-2.4,11.9
		c-0.6,4-1.1,8-1.3,12l-0.3,6.1c-0.1,2-0.2,4.1-0.2,6.1c-0.2,8.1,0,16.3,0.4,24.4c1.7,32.6,7.3,65,14.9,96.7
		c3.9,15.9,8.2,31.7,13.1,47.3c4.8,15.6,10.1,31.1,15.8,46.5c2.8,7.7,5.8,15.3,8.8,22.9c1.5,3.8,3.1,7.6,4.7,11.4l2.4,5.6
		c0.8,1.8,1.6,3.4,2.7,5c2.2,3.1,5.1,5.6,8.4,7.4c1.7,0.9,3.4,1.6,5.3,2.1c0.5,0.1,0.9,0.2,1.4,0.3l1.5,0.3l3,0.6
		c8,1.6,16,2.7,24.1,3.4c16.2,1.3,32.5,0.7,48.6-1.7c4-0.6,8-1.3,12-2.1l1.5-0.3l1.4-0.3c0.9-0.3,1.8-0.5,2.7-0.9
		c1.8-0.7,3.4-1.6,5-2.7c3.1-2.1,5.7-5,7.5-8.3c0.2-0.4,0.5-0.8,0.6-1.3c0.2-0.4,0.4-0.9,0.6-1.3l1.2-2.8l2.4-5.6
		c12.6-30.2,23.6-61.1,32.9-92.5c9.2-31.4,16.6-63.4,20.9-95.8c2.1-16.2,3.4-32.5,3.5-48.8c0-8.1-0.1-16.3-0.6-24.4
		c-0.3-4-0.7-8.1-1.3-12.1c-0.6-4-1.2-8-1.9-12c-0.1-0.5,0.3-1.1,0.8-1.2c0.5-0.1,1,0.2,1.1,0.7c2.8,7.8,4.5,16,5.3,24.3
		c0.2,2.1,0.3,4.2,0.4,6.2l0.3,6.2c0.1,2.1,0.1,4.1,0.1,6.2c0,2.1,0.1,4.1,0,6.2c-0.3,16.5-1.6,33-3.7,49.3
		c-4.4,32.7-11.8,64.8-21,96.4c-9.3,31.6-20.3,62.6-33,92.9l-2.4,5.7l-1.2,2.8c-0.2,0.5-0.4,1-0.7,1.5c-0.2,0.5-0.5,1-0.8,1.5
		c-2.1,3.9-5.2,7.2-8.8,9.8c-1.8,1.3-3.8,2.3-5.8,3.1c-1,0.4-2.1,0.7-3.1,1l-1.6,0.4l-1.5,0.3c-4,0.8-8.1,1.6-12.2,2.2
		c-16.4,2.5-33,3.1-49.5,1.7c-8.3-0.7-16.5-1.8-24.6-3.4l-3-0.6l-1.5-0.3c-0.5-0.1-1.1-0.3-1.6-0.4c-2.1-0.6-4.2-1.4-6.1-2.4
		c-3.9-2.1-7.3-5.1-9.9-8.7c-1.3-1.8-2.4-3.8-3.2-5.8l-2.4-5.7c-1.6-3.8-3.1-7.6-4.7-11.4c-3.1-7.6-6-15.3-8.9-23
		c-5.7-15.4-11-31-15.9-46.7c-4.9-15.7-9.3-31.6-13.2-47.5c-7.7-32-13.3-64.6-15-97.5c-0.4-8.2-0.5-16.5-0.4-24.7
		c0-2.1,0.1-4.1,0.2-6.2l0.3-6.2c0.3-4.2,0.7-8.3,1.4-12.4c0.7-4.1,1.5-8.2,2.5-12.2c0.3-1,0.5-2,0.8-3l0.9-3l1.8-6
		c2.5-7.9,5.8-15.6,9.4-23l0.4-0.6c-0.2,0.1-0.3,0.4-0.4,0.5l0-0.1l0.1-0.2l0.2-0.3l0.3-0.6l0.6-1.2l1.2-2.4
		c0.8-1.6,1.7-3.2,2.6-4.8c0.9-1.6,1.8-3.2,2.7-4.7c0.9-1.6,1.8-3.1,2.8-4.7c3.8-6.2,7.8-12.2,12.1-18c8.5-11.7,17.9-22.7,27.8-33.1
		c0.7-0.7,1.8-0.8,2.6-0.3l0,0c8.3,5.6,17.9,9.4,27.6,11.9c4.9,1.2,9.9,2.1,14.9,2.7c5,0.6,10.1,0.8,15.2,0.9
		c5.1-0.1,10.2-0.2,15.2-0.8c5-0.6,10-1.4,15-2.7c9.8-2.5,19.4-6.2,27.7-11.8l0,0c0.8-0.6,1.9-0.4,2.6,0.3
		c8,8.5,15.6,17.3,22.7,26.6c3.5,4.6,7,9.3,10.2,14.2c3.2,4.9,6.1,10,8.5,15.3c0.2,0.5,0,1.1-0.5,1.3
		C796.7,323.4,796.1,323.3,795.9,322.9z"/>
</g>
<g>
	<path fill="#003187" d="M695.3,716.2c-13.8,0-27.6-1.8-41.3-5.5c-8.6-2.3-14.6-9.9-14.6-18.6l0-13.9c0-1.1,0.9-2,2-2c0,0,0,0,0,0
		c1.1,0,2,0.9,2,2l0,13.9c0,6.9,4.8,12.9,11.6,14.7c26.5,7.1,53.4,7.1,80,0.1c6.8-1.8,11.6-7.8,11.6-14.7l0-13.9c0-1.1,0.9-2,2-2
		c0,0,0,0,0,0c1.1,0,2,0.9,2,2l0,13.9c0,8.7-6,16.3-14.6,18.5C722.5,714.4,708.9,716.2,695.3,716.2z"/>
</g>
<g>
	<path fill="#003187" d="M695.2,734.3c-10.9,0-21.9-1.4-32.7-4.3c-7-1.9-11.8-8.1-11.8-15.1l0-6.7c0-1.1,0.9-2,2-2c0,0,0,0,0,0
		c1.1,0,2,0.9,2,2l0,6.7c0,5.2,3.6,9.8,8.8,11.2c20.9,5.6,42.1,5.6,63,0.1c5.2-1.4,8.9-6,8.9-11.2l0-6.7c0-1.1,0.9-2,2-2
		c0,0,0,0,0,0c1.1,0,2,0.9,2,2l0,6.7c0,7-4.9,13.2-11.9,15C716.8,732.9,706,734.3,695.2,734.3z"/>
</g>
<g>
	
		<ellipse transform="matrix(1.864874e-03 -1 1 1.864874e-03 279.7972 1109.2054)" fill="#FF3F1F" cx="695.5" cy="414.4" rx="72.8" ry="72.8"/>
</g>
<g>
	<path fill="#003187" d="M628.8,446c-4.9-7.9-7.3-17.1-7.9-26.4c-0.6-9.3,0.4-18.7,3.2-27.5c2.8-8.9,7.2-17.2,13-24.5
		c5.8-7.3,13-13.4,21-18.1c8-4.7,17-7.8,26.2-9.2c9.2-1.4,18.7-1.1,27.8,1c9.1,2,17.8,5.8,25.5,11c7.7,5.2,14.5,11.9,19.8,19.6
		c5.3,7.7,9.1,16.4,11.3,25.4c2.1,9.1,2.6,18.5,1.2,27.8c-1.3,9.2-4.4,18.2-9,26.3c-4.6,8.1-10.7,15.3-17.9,21.2
		c-7.2,5.9-15.5,10.4-24.4,13.3c-8.9,2.9-18.2,4-27.5,3.5c-9.3-0.5-18.5-2.9-26.9-6.8c-8.4-3.9-16.1-9.6-21.8-16.8
		c-0.3-0.4-0.3-1.1,0.2-1.4c0.4-0.3,0.9-0.3,1.3,0c6.8,5.8,14.1,10.8,22.1,14.5c8,3.7,16.6,5.8,25.4,6.3c8.8,0.5,17.6-0.6,26-3.3
		c8.3-2.7,16.2-7,23-12.6c6.8-5.6,12.5-12.4,16.8-20c4.3-7.6,7.1-16.1,8.4-24.8c1.2-8.7,0.8-17.6-1.2-26.1
		c-2-8.5-5.6-16.7-10.6-23.8c-5-7.2-11.3-13.5-18.5-18.4c-7.2-4.9-15.4-8.5-24-10.4c-8.5-1.9-17.5-2.3-26.1-1
		c-8.7,1.3-17.1,4.2-24.7,8.6c-7.6,4.4-14.4,10.2-19.9,17c-5.5,6.8-9.7,14.7-12.4,23.1c-2.6,8.4-3.6,17.3-3.1,26
		c0.6,8.8,2.8,17.3,5.7,25.8l0,0c0.2,0.5-0.1,1.1-0.6,1.3C629.5,446.6,629,446.4,628.8,446z"/>
</g>
<g>
	
		<ellipse transform="matrix(1.864874e-03 -1 1 1.864874e-03 279.7972 1109.2054)" fill="#00C8DD" cx="695.5" cy="414.4" rx="51.7" ry="51.7"/>
</g>
<g>
	<path fill="#009DA5" d="M746.4,406.5c-7-19.1-25.1-33.1-46.8-33.8c-28.6-1-52.5,21.3-53.5,49.9c-0.1,3.4,0.1,6.7,0.6,9.9
		c-2.3-6.1-3.4-12.8-3.1-19.7c1-28.6,25-50.9,53.5-49.9C722.3,363.7,742.6,382.5,746.4,406.5z"/>
</g>
<g>
	<path fill="#003187" d="M695.4,467.2c-6.5,0.5-13.1-0.5-19.3-2.7c-6.2-2.2-11.9-5.8-16.8-10.2c-4.9-4.4-9-9.7-11.9-15.6
		c-3-5.9-4.9-12.3-5.6-18.9c-0.6-6.6-0.1-13.3,1.7-19.6c1.7-6.4,4.7-12.4,8.6-17.7c7.8-10.7,19.7-18.3,32.7-20.9
		c13-2.6,26.9-0.2,38.2,6.6c11.4,6.7,20.1,17.8,24,30.4c1.9,6.3,2.6,13,2.2,19.5c-0.4,6.6-2.2,13-4.9,19c-0.3,0.8-0.7,1.5-1.1,2.2
		c-0.4,0.7-0.8,1.5-1.2,2.2c-0.9,1.4-1.7,2.8-2.7,4.1l-1.5,2l-1.6,1.9c-1,1.3-2.3,2.4-3.4,3.5c-4.8,4.5-10.5,7.9-16.6,10.1
		c-0.5,0.2-1.1-0.1-1.3-0.6c-0.2-0.5,0-1,0.5-1.2l0,0c5.5-2.9,10.6-6.5,14.9-10.9c4.2-4.4,7.9-9.4,10.4-14.9
		c2.5-5.5,4.1-11.5,4.4-17.6c0.3-6.1-0.3-12.2-2.1-18c-3.6-11.6-11.7-21.7-22.2-27.9c-10.4-6.2-23.2-8.3-35-5.9
		c-5.9,1.2-11.6,3.5-16.7,6.8c-5.1,3.3-9.6,7.4-13.2,12.3c-3.6,4.9-6.3,10.4-7.9,16.2c-1.6,5.8-2.2,12-1.6,18c0.6,6,2.3,12,5.1,17.4
		c2.7,5.4,6.5,10.3,11,14.4c4.5,4.1,9.7,7.3,15.4,9.7c5.6,2.4,11.6,3.7,17.9,4.4l0,0c0.6,0.1,1,0.5,0.9,1.1
		C696.3,466.8,695.9,467.1,695.4,467.2z"/>
</g>
<g>
	<path fill="#78F2FF" d="M738.2,413.6c0,23.4-19,42.3-42.4,42.3c-19.7,0-36.2-13.5-40.9-31.7c-0.4-1.4,1.6-2.1,2.2-0.8
		c7.1,13.4,21.2,22.5,37.4,22.6c19.1,0,35.3-12.6,40.6-30c0.3-0.9,0.5-2.1,0.8-3.4c0.2-1.4,2.3-1.3,2.4,0.1
		C738.2,413,738.2,413.3,738.2,413.6z"/>
</g>
<g>
	<path fill="#003187" d="M695.7,343.6C695.7,343.6,695.7,343.6,695.7,343.6c-1.1,0-2-0.9-2-2l0.1-58.8c0-1.1,0.9-2,2-2c0,0,0,0,0,0
		c1.1,0,2,0.9,2,2l-0.1,58.8C697.7,342.7,696.8,343.6,695.7,343.6z"/>
</g>
<g>
	<path fill="#003187" d="M696.2,611c0.4,6.1,0.7,12.3,0.8,18.4c0.1,6.1,0.2,12.3,0.2,18.4l0.1,9.2l0,9.2c0,6.1-0.1,12.3-0.2,18.4
		c0,1.1-0.9,2-2,2c-1.1,0-1.9-0.9-2-2c-0.1-6.1-0.2-12.3-0.1-18.4l0-9.2l0.1-9.2c0.1-6.1,0.1-12.3,0.3-18.4
		c0.2-6.1,0.4-12.3,0.9-18.4c0-0.6,0.5-1,1.1-0.9C695.7,610.1,696.1,610.5,696.2,611z"/>
</g>
<g>
	<path fill="#003187" d="M697.4,487.3l0.1,12.9l0,12.9c0,8.6,0,17.2-0.1,25.9l-0.2,25.9c-0.1,8.6-0.2,17.2-1.1,25.9
		c-0.1,0.6-0.5,1-1.1,0.9c-0.5,0-0.9-0.4-0.9-0.9c-0.8-8.6-1-17.2-1-25.9l-0.1-25.9c0-8.6,0-17.2,0-25.9l0.1-12.9l0.2-12.9
		c0-1.1,0.9-2,2-2C696.5,485.3,697.4,486.2,697.4,487.3z"/>
</g>
<g>
	<path fill="#003187" d="M622.8,413.3c-0.1,0-0.3,0-0.4,0c-17.4-3.8-35.1-9-52.6-15.5c-1-0.4-1.6-1.5-1.2-2.6c0.4-1,1.5-1.6,2.6-1.2
		c17.3,6.5,34.8,11.6,52,15.4c1.1,0.2,1.8,1.3,1.5,2.4C624.5,412.6,623.7,413.3,622.8,413.3z"/>
</g>
<g>
	<path fill="#003187" d="M768.3,413.6c-0.9,0-1.8-0.6-2-1.6c-0.2-1.1,0.5-2.1,1.5-2.4c17.3-3.7,34.9-8.8,52.3-15.2
		c1-0.4,2.2,0.1,2.6,1.2c0.4,1-0.1,2.2-1.2,2.6c-17.5,6.5-35.3,11.7-52.8,15.4C768.6,413.6,768.4,413.6,768.3,413.6z"/>
</g>
<g>
	
		<ellipse transform="matrix(1.864874e-03 -1 1 1.864874e-03 379.7093 976.2352)" fill="#003187" cx="678.9" cy="297.9" rx="3.9" ry="3.9"/>
</g>
<g>
	
		<ellipse transform="matrix(1.864874e-03 -1 1 1.864874e-03 9.2793 1344.5986)" fill="#003187" cx="678.2" cy="667.7" rx="3.9" ry="3.9"/>
</g>
<g>
	
		<ellipse transform="matrix(1.864874e-03 -1 1 1.864874e-03 42.8942 1378.4021)" fill="#003187" cx="711.9" cy="667.7" rx="3.9" ry="3.9"/>
</g>
<g>
	
		<ellipse transform="matrix(1.864874e-03 -1 1 1.864874e-03 413.3242 1010.0388)" fill="#003187" cx="712.6" cy="298" rx="3.9" ry="3.9"/>
</g>
<g>
	<path fill="#003187" d="M535.8,692.6c1,2.2,2,4.5,2.9,6.7c1,2.2,1.9,4.5,2.9,6.7c2,4.5,3.9,8.9,6,13.4c4.1,8.9,8.6,17.6,13.4,26
		c4.9,8.5,10.1,16.7,15.7,24.7c0.7,1,1.4,2,2.1,3c0.7,1,1.5,2.1,2,2.6c0.6,0.6,1.3,0.9,2.1,1.1c0.8,0.2,1.7,0.1,2.5-0.2
		c1.6-0.6,2.8-2,3-3.6c0.1-0.4,0-0.8,0-1.3l-0.2-1.8l-0.4-3.7c-1.1-9.9-1.4-19.9-0.6-29.8c0.8-10,2.8-19.9,6.2-29.3
		c3.4-9.5,8.1-18.3,13.7-26.6c5.6-8.2,12.1-15.8,19-23c0.8-0.8,2-0.8,2.8,0c0.8,0.8,0.8,2,0.1,2.8l0,0c-6.7,7-13,14.5-18.3,22.5
		c-5.4,8-9.9,16.6-13.1,25.7c-3.2,9.1-5.2,18.6-5.9,28.2c-0.8,9.6-0.4,19.3,0.7,29l0.4,3.6l0.2,1.8c0,0.8,0.1,1.6,0,2.4
		c-0.2,1.6-0.9,3.2-2,4.5c-1.1,1.2-2.4,2.2-4,2.7c-1.5,0.5-3.2,0.7-4.8,0.3c-1.6-0.3-3.1-1.1-4.3-2.3c-1.2-1.3-1.7-2.2-2.5-3.2
		c-0.7-1-1.4-2-2.1-3c-5.6-8.1-10.9-16.5-15.7-25.1c-4.9-8.6-9.3-17.4-13.4-26.4c-1-2.2-2-4.5-2.9-6.8c-0.9-2.3-1.8-4.6-2.7-6.9
		c-0.8-2.3-1.6-4.7-2.4-7c-0.7-2.4-1.4-4.7-2.1-7.1c-0.1-0.5,0.2-1.1,0.7-1.2C535.1,691.9,535.5,692.1,535.8,692.6L535.8,692.6z"/>
</g>
<g>
	<path fill="#003187" d="M525.3,657.8c-2.8-11.7-2.5-24-0.7-35.9c0.9-6,2.3-11.9,4.1-17.7c1.9-5.8,4.2-11.4,7-16.8
		c2.8-5.4,6.1-10.5,9.7-15.3c3.7-4.8,7.7-9.4,12-13.6c4.3-4.2,9-8.1,13.9-11.6c4.9-3.5,10-6.7,15.3-9.5c1-0.5,2.2-0.2,2.7,0.8
		c0.5,1,0.2,2.2-0.8,2.7l0,0c-10.2,5.7-19.7,12.6-28,20.8c-4.2,4-8,8.5-11.5,13.1c-3.5,4.7-6.6,9.6-9.3,14.7c-2.7,5.1-5,10.5-6.8,16
		c-1.8,5.5-3.2,11.2-4.1,17c-0.9,5.8-1.4,11.6-1.5,17.4c-0.1,5.8,0,11.7,0.1,17.6l0,0c0,0.6-0.4,1-1,1
		C525.8,658.6,525.4,658.2,525.3,657.8z"/>
</g>
<g>
	<path fill="#003187" d="M794.3,704.2c3.2,6.9,5.6,14.2,6.9,21.7c1.4,7.5,1.9,15.1,1.8,22.7c-0.1,7.6-0.7,15.2-1.7,22.6
		c-0.1,0.5-0.1,1-0.1,1.3l0,0.5c0,0.2,0,0.3,0.1,0.5c0,0.7,0.3,1.2,0.6,1.8c0.7,1,1.9,1.9,3.2,2.1c1.3,0.2,2.6,0,3.6-0.8l0.4-0.3
		l0.3-0.4c0.1-0.1,0.2-0.2,0.3-0.4l0.4-0.6l1.6-2.3c17.2-24.3,31.1-50.9,41-79c2.5-7,4.7-14.1,6.3-21.3c1.6-7.2,2.8-14.5,3.4-21.8
		c1.1-14.7-0.2-29.6-4.7-43.6c-4.4-14-11.7-27-21.3-38.2c-9.6-11.1-21.4-20.3-34.3-27.5l0,0c-1-0.5-1.3-1.8-0.8-2.7
		c0.5-1,1.7-1.3,2.7-0.8c13.3,7.3,25.5,16.7,35.6,28.2c10,11.5,17.8,25,22.4,39.6c4.6,14.6,6,30.1,4.9,45.2
		c-1.2,15.2-4.8,30.1-9.9,44.3c-10.1,28.5-24.3,55.3-41.8,79.9l-1.7,2.3l-0.4,0.6c-0.1,0.2-0.4,0.4-0.6,0.7l-0.6,0.7l-0.7,0.6
		c-1,0.8-2.1,1.3-3.3,1.6c-0.6,0.1-1.2,0.2-1.8,0.2c-0.3,0-0.6,0-0.9,0l-0.9-0.1c-2.4-0.4-4.5-1.9-5.9-4c-0.6-1.1-1.1-2.3-1.2-3.5
		c0-0.3-0.1-0.6-0.1-0.9l0-0.9c0-0.7,0.1-1,0.2-1.5c1-7.4,1.6-14.7,1.7-22.1c0.2-14.8-2.1-29.4-6.6-43.6l0,0
		c-0.2-0.5,0.1-1.1,0.7-1.3C793.6,703.5,794.1,703.7,794.3,704.2z"/>
</g>
<g>
	<path fill="#003187" d="M764.2,657.9c2,1.9,3.9,4,5.8,6.1c1.8,2.1,3.6,4.3,5.3,6.5c1.7,2.2,3.3,4.5,4.8,6.9
		c1.5,2.4,2.9,4.8,4.2,7.3c0.3,0.5,0.1,1.1-0.4,1.4c-0.4,0.2-1,0.1-1.3-0.3c-1.7-2.2-3.4-4.4-5.1-6.5c-1.7-2.1-3.5-4.2-5.3-6.3
		c-1.8-2.1-3.6-4.1-5.4-6.2l-5.5-6.1c-0.7-0.8-0.7-2.1,0.2-2.8C762.3,657.1,763.5,657.1,764.2,657.9L764.2,657.9z"/>
</g>
<g>
	
		<ellipse transform="matrix(1.864874e-03 -1 1 1.864874e-03 528.2114 862.1771)" fill="#88B0D1" cx="696" cy="166.5" rx="12.4" ry="12.4"/>
</g>
<g>
	<path fill="#003187" d="M709.4,166.5c0.2,1.3,0.2,2.7-0.1,4c-0.3,1.3-0.8,2.7-1.5,3.9c-0.7,1.2-1.6,2.3-2.7,3.3
		c-1.1,0.9-2.3,1.7-3.6,2.3c-1.3,0.6-2.7,0.9-4.1,1.1c-1.4,0.1-2.9,0.1-4.3-0.2c-1.4-0.3-2.8-0.8-4.1-1.5c-1.3-0.7-2.4-1.6-3.5-2.6
		c-1-1-1.8-2.2-2.5-3.5c-0.7-1.3-1.1-2.7-1.4-4.1c-0.2-1.4-0.3-2.8-0.1-4.3c0.2-1.4,0.6-2.8,1.1-4.1c0.6-1.3,1.4-2.5,2.3-3.5
		c1-1,2-1.9,3.2-2.6c1.2-0.7,2.5-1.2,3.8-1.5c1.3-0.3,2.7-0.3,4-0.2c0.6,0.1,0.9,0.6,0.9,1.1c0,0.5-0.4,0.8-0.8,0.9l-0.1,0
		c-1.1,0.2-2.2,0.4-3.2,0.9c-1,0.4-1.9,1-2.8,1.6c-0.8,0.7-1.6,1.4-2.2,2.2c-0.6,0.8-1.1,1.7-1.5,2.7c-1.5,3.8-0.4,8.4,2.5,11.1
		c2.8,2.8,7.3,3.8,11,2.3c0.9-0.4,1.8-0.8,2.7-1.4c0.8-0.6,1.6-1.3,2.2-2.1c0.6-0.8,1.2-1.7,1.6-2.7c0.4-1,0.7-2,1-3.2l0-0.1
		c0.1-0.5,0.7-0.9,1.2-0.8C709,165.8,709.3,166.1,709.4,166.5z"/>
</g>
<g>
	
		<ellipse transform="matrix(0.224 -0.9746 0.9746 0.224 148.6287 970.7372)" fill="#78F2FF" cx="683.9" cy="392" rx="12.7" ry="12.7"/>
</g>
<g>
	
		<ellipse transform="matrix(0.224 -0.9746 0.9746 0.224 173.4666 994.9998)" fill="#78F2FF" cx="711.5" cy="388.6" rx="7.4" ry="7.4"/>
</g>
<g>
	<path fill="#C61700" d="M690.8,220.3c0.2,0.1,0.3,0.3,0.5,0.4c11.6,9.1,29.7,24.2,48.1,43.8c2.3,2.4,4.6,5,6.9,7.5
		c-5.2,2.6-14.8,6-23.6,8c-12.2-21.9-26.5-39.2-40.8-54.1C683.7,224.2,688.4,220.9,690.8,220.3z"/>
</g>
<g>
	<path fill="#003187" d="M696,284.8c-0.1,0-0.2,0-0.3,0c-32.8-0.1-52.9-11.3-60.1-16.2c-0.5-0.3-0.8-0.9-0.9-1.4
		c-0.1-0.6,0.1-1.2,0.5-1.6c18.4-19.3,36.2-34.2,48-43.2c2.2-1.7,4.7-2.9,7.4-3.6c6.1-1.6,12.6-0.2,17.6,3.7c0,0,0,0,0,0
		c11.7,9.1,29.6,24,47.8,43.4c0.4,0.4,0.6,1,0.5,1.6s-0.4,1.1-0.9,1.4c-2.7,1.8-5.6,3.5-8.7,5c-6.5,3.2-13.7,5.8-21.4,7.6
		C716.5,283.7,706.5,284.8,696,284.8z M640,266.6c8.2,5.1,26.8,14.2,55.8,14.2c0.1,0,0.2,0,0.3,0c10.1,0,19.8-1.1,28.9-3.3
		c7.4-1.8,14.3-4.2,20.5-7.3c2.2-1.1,4.3-2.2,6.2-3.4c-17.5-18.4-34.4-32.5-45.7-41.3c-4-3.1-9.3-4.2-14.2-2.9
		c-2.2,0.6-4.2,1.5-6,2.9C674.5,234.2,657.5,248.3,640,266.6z"/>
</g>
<g>
	
		<ellipse transform="matrix(1 -8.406434e-03 8.406434e-03 1 -5.4108 4.5467)" fill="#FF9088" cx="538.1" cy="645.9" rx="6.6" ry="13"/>
</g>
<path fill="#CFF6FF" d="M587.4,348.5c-41.2,4.6-51,1.6-51,1.6s2.7-14-14.3-13.3s-88-0.4-88-0.4s-10.4-2.4-10.7,15.4
	c-0.3,17.8-3.3,17.7-3.3,17.7s-14.1-0.9-12.8,32.2c1.3,33.1,12.1,32,12.1,32l4.4,27.7c0,0,2.6,5.7,17.6,5.3c3.1-0.1,8.1-0.1,14.1,0
	c-4.6,2.3-7.4,3.8-7.4,3.8c12.1,28.3,34.9,32.6,59.1,34.5c24.2,2,62.6,5.9,78.4,26.7c15.8,20.9,35.9,36.3,71.2,13.7
	c35.2-22.6,19.1-52.4,4.9-59.3c-14.2-6.9-28.4,3.1-28.4,3.1S616,464,598.9,455.5c-5.3-2.6-11.5-5.4-18-7.9l0,0
	c5.5-11.2-0.7-19.7-5.7-21.3c-5-1.6,6.4-20.7,6.4-20.7l55.7-5.8c0,0,44.5-2.9,36.3-37.9C665.6,326.7,628.6,344,587.4,348.5z"/>
<path fill="#95E2EF" d="M515.2,467.5c7.3-1.8,10-23.5,9.7-65.4s-0.8-61.7-13.8-63.8c0,0,20.1-1.7,23.8,5.2s5.8,83.3,1.4,102.6
	c-1.9,8.4-2.8,13.9-4.8,17.1C528.7,467.2,521.2,467.6,515.2,467.5z"/>
<path fill="#95E2EF" d="M538.7,380.4c3.3-17.1,24.6-29,45.8-31.5l-48,1.3L538.7,380.4z"/>
<path fill="#95E2EF" d="M534.4,463.3c15.3-16.5,60.4-12.7,94,20.9c0,0-37.5-46.7-71.8-44.8c-19.3-2.2-20-3.1-20-3.1L534.4,463.3z"/>
<path fill="#95E2EF" d="M563.9,423.1c4.5-7.1,0.7-16.6,0.7-16.6l14.8,0.3c0,0-5.6,16.9-2.8,21.1L563.9,423.1z"/>
<path fill="#FFFFFF" d="M540.5,419.5c17.1,0.7,34.7,6.8,34.7,6.8c11.2,4.6,8.1,18.7,4.5,19.8l0,0c-11.5-4.6-27.1-8.3-42.5-8.9
	L540.5,419.5z"/>
<path fill="#CFF6FF" d="M538.7,437.3c20.1-1.8,25.1-14.2,25.1-14.2s13.6,1.4,17.2,8.3c3.7,6.9-0.6,15.1-0.6,15.1L538.7,437.3z"/>
<path fill="#95E2EF" d="M654,485.5c-8-1.5-15.9-0.8-20.2,0.9l0.2,4c9.8-1,22.3,8.3,27,21.2C664.8,501.6,663.3,491.9,654,485.5z"/>
<path fill="#95E2EF" d="M656.8,545.5c-1,0.8-2,1.5-2.9,2.1c9.3-5.4,24.1-17,24.1-35.9c0-4.9-1.1-9-2.9-12.4
	C679.1,511,678,528.9,656.8,545.5z"/>
<path fill="#FFFFFF" d="M661.1,511.7c-6.5,17.4-29.1,35.7-55.6,39.4c0,0,25.6,11.9,48.4-3.4c-4.3,2.5-7.4,3.7-7.4,3.7
	C663.2,538.4,665.4,523.5,661.1,511.7z"/>
<path fill="#FFFFFF" d="M652.8,484.8c0.4,0.2,0.8,0.5,1.2,0.8c8.4,1.6,16.8,5.8,21.1,13.8c-0.4-1.3-0.9-2.5-1.5-3.6
	C668.1,484.5,652.8,484.8,652.8,484.8z"/>
<path fill="#CFF6FF" d="M654,485.5c9.3,6.4,10.9,16.1,7.1,26.2c4.3,11.8,2.1,26.7-14.6,39.6c0,0,3.1-1.2,7.4-3.7
	c1-0.7,2-1.4,2.9-2.1c21.2-16.7,22.3-34.5,18.3-46.1C670.8,491.3,662.4,487.2,654,485.5z"/>
<path fill="#95E2EF" d="M640.5,398.7c18.6-4,30.4-10.6,33.1-22.2C670,389.7,656.5,395.2,640.5,398.7z"/>
<path fill="#95E2EF" d="M565.5,406c21.9-1.2,41.4-2.3,57.5-4.4c0.8-1.3,3.4-5.7,5.1-12.4C608.3,397,584.5,402.8,565.5,406z"/>
<path fill="#95E2EF" d="M674.3,364.8c0.1,0.9,0.2,1.8,0.2,2.6c-0.3-18-13.9-24.3-13.9-24.3c0.7,0.8,1.2,1.5,1.8,2.3
	C668.7,349.1,673.2,355.3,674.3,364.8z"/>
<path fill="#FFFFFF" d="M622.7,402c6-1,12.1-2,17.8-3.3c-5.3,1.1-11.2,2.1-17.5,2.9C622.8,401.9,622.7,402,622.7,402z"/>
<path fill="#FFFFFF" d="M662.4,345.5c-12.4-7.1-31.8-4.9-46.9-0.6c0,0,12.8,13.2,14,27.4c0.5,6.6-0.2,12.3-1.4,17
	C655.5,378.4,675,363.4,662.4,345.5z"/>
<path fill="#FFFFFF" d="M674.5,367.5c0,2.5-0.2,5.1-0.7,8.1c-0.1,0.3-0.1,0.7-0.2,1C674.3,373.9,674.6,370.9,674.5,367.5z"/>
<path fill="#CFF6FF" d="M674.5,367.5c0-0.9-0.1-1.7-0.2-2.6c-1.1-9.6-5.6-15.7-11.9-19.4c12.6,17.9-6.8,32.9-34.3,43.8
	c-1.7,6.7-4.3,11.1-5.1,12.4c6.4-0.8,12.2-1.8,17.5-2.9c15.9-3.5,29.5-9,33.1-22.2c0.1-0.3,0.1-0.7,0.2-1
	C674.3,372.6,674.5,370,674.5,367.5z"/>
<path fill="#CAF0FF" d="M494.9,342.5c0.1,0,0.2,0.1,0.3,0.1c-0.1,0-0.2,0-0.3,0C494.9,342.5,494.9,342.5,494.9,342.5z"/>
<path fill="#FFAF6E" d="M540.2,356.9c0-0.6-0.1-1.3-0.2-1.9c0.1,1.1,0.2,2.3,0.3,3.4C540.3,358,540.3,357.5,540.2,356.9z"/>
<path fill="#FFAF6E" d="M593.9,240.3c0.4,6.1,2.7,10.2,4.7,12.8c2,2.5,2.5,6,1.4,9l-4.8,12.2c0,0,4,7.5,4,16.3
	c0,5.5-4.1,12.9-5.8,20.1c-2.9,12.5-6.1,26.9-14.1,36.9c-0.4,0-0.8,0.1-1.2,0.1l0,0c-10.8,0.9-22.7,1.4-36.1,1.2
	c0,0-1.5-0.1-2.8-0.2c-0.3-0.6-0.7-1.2-1.1-1.7c-0.2-0.2-0.4-0.4-0.6-0.6c-0.2-0.2-0.4-0.4-0.6-0.6c-0.9-5.1-4.6-8.8-8.8-8.8
	l-18.2-0.3l-5.5-0.1l-1.3,0l-17.7-0.3c-2.5-1.9-4.5-3.7-5.8-5.5c-0.2-0.3-0.4-0.5-0.5-0.8c-5.8-9.6-6.9-28-6.9-28
	c0,0.1-0.1,0.1-0.2,0.1c-0.4,0.4-1,0.8-1.5,1.2c-0.1,0.1-0.3,0.2-0.4,0.3c-0.1,0.1-0.3,0.2-0.4,0.3c-0.5,0.3-1,0.6-1.5,0.8
	c-0.3,0.1-0.6,0.2-0.9,0.4c-0.8,0.3-1.7,0.6-2.6,0.7c-0.2,0-0.4,0.1-0.6,0.1c-0.4,0-0.8,0.1-1.2,0c-0.2,0-0.3,0-0.5,0
	c-0.5,0-1-0.1-1.5-0.2c-0.2,0-0.4-0.1-0.6-0.2c-0.2-0.1-0.4-0.1-0.6-0.2c-0.3-0.1-0.5-0.2-0.7-0.3c-0.1-0.1-0.3-0.1-0.4-0.2
	c0,0,0,0,0,0c-0.2-0.1-0.4-0.2-0.5-0.3l0,0c-0.2-0.1-0.4-0.2-0.6-0.3c-0.1,0-0.1-0.1-0.2-0.1c-0.2-0.1-0.3-0.2-0.5-0.3
	c-5.8-4.2-14.4-20.3-14.4-34.2c0-13.5,14.9-22.1,27.3-12.1c4.3,3.5,7.1,8.5,8.1,13.9l0.8,4.2c0,0,8.2-39.9,31.7-64.6
	c23.5-24.7,65.5-11.2,65.5-11.2C584,204.1,592.6,221.6,593.9,240.3z"/>
<path fill="#FFFFFF" d="M573.5,275c10.2-7.6,16.8-7.3,22.8-2.4c0,0-0.2,5.5-8,7C581.4,280.8,573.5,275,573.5,275z"/>
<path fill="#FFFFFF" d="M527.6,276c10.7-7.1,17.9-6.5,24.5-1.5c0,0-2.4,6.8-10.8,6.7C532.1,281.2,527.6,276,527.6,276z"/>
<g>
	<path fill="#542314" d="M445.6,223.8c-0.6,2.7-1,5.4-1,8c0,2.6,0.4,5.3,1,7.9c0.6,2.7,1.4,5.4,1.9,8.3c0.5,2.9,0.7,6.1,0.1,9.2
		c-0.2,1.1-1.3,1.8-2.4,1.5c-1-0.2-1.7-1.2-1.6-2.2l0,0c0.3-2.5,0.1-5.1-0.4-7.7c-0.5-2.6-1.2-5.4-1.7-8.3c-0.5-2.9-0.8-5.9-0.5-8.9
		c0.3-3,1.3-5.9,2.6-8.5c0.3-0.5,0.9-0.7,1.4-0.4C445.5,222.8,445.7,223.3,445.6,223.8L445.6,223.8z"/>
</g>
<path fill="#190F0A" d="M575.8,199.7c-5.1,5.6-19.1,7.8-26.6,6.3c-10.2-2.1-17.8-5-27.1,0.1c-8.5,4.7-18.1,11.7-17.6,26.8
	c0.5,15-14.3,15.3-17.7,21.7c-5.7,10.7-6.6,18.8-6.6,18.8s-9.4-21.1-23.2-19.2c-9.4,1.3-12.5,7.1-12.5,7.1s2.8-11,0.2-18.8
	c-2.6-7.9-2.6-24.4,3.6-34.9c5-8.6,2.2-11.9,13.2-19c0,0,0.2-14.9,28.3-25.1c11.8-4.3,20.5-9.5,27-10.1c8.9-0.8,14.2,3.9,22.9,3.1
	c14.9-1.4,15.4-2.4,24.9,3.4c4.6,2.8,15.6,9.6,19.6,17.7C588.3,186.5,585.1,196.6,575.8,199.7z"/>
<path fill="#EA8B44" d="M504.3,336.5L504.3,336.5l-1.2,0l-17.7-0.3l-0.4,0c-5.2-4-7.7-6.8-7.7-6.8s-6.1-13.9-5.3-27.3
	c0.1-2.1,0.4-4.2,1-6.3C478.2,310.6,489.6,325.2,504.3,336.5z"/>
<path fill="#EA8B44" d="M472.2,297.6c-19.5-8.5-31.1-30.8-17.2-42.8c0,0-17.1,2.5-12.1,21.2c5,18.7,12.8,34.7,23.6,29.4
	C475.1,301.1,472.2,297.6,472.2,297.6"/>
<path fill="none" stroke="#30BBF2" stroke-width="4" stroke-linecap="round" stroke-linejoin="round" stroke-miterlimit="10" d="
	M445.5,335.7c-26.5-29.1-37.4-70.9-25.3-111.2c18.4-61.2,82.9-95.8,144.1-77.5c61.2,18.4,95.8,82.9,77.4,144.1
	c-6.4,21.2-18.3,39.3-33.8,53"/>
<ellipse transform="matrix(0.8972 -0.4416 0.4416 0.8972 -31.2981 293.7827)" fill="#FFFFFF" cx="615.4" cy="214.1" rx="8.9" ry="20.6"/>
<g>
	<path fill="#99532C" d="M598.6,260.5c-2.9-1.2-5.8-2.2-8.7-2.5c-1.4-0.2-2.9-0.2-4.3,0c-0.7,0.1-1.5,0.2-2.1,0.4
		c-0.7,0.2-1.3,0.4-1.9,0.7c-1.2,0.6-2.4,1.5-3.2,2.7c-0.8,1.2-1.3,2.5-1.5,4c-0.1,0.4-0.1,0.7-0.1,1.1l0,1.2c0,0.8,0,1.7,0,2.5
		c0.1,1.7,0.2,3.3,0.4,5c0.4,3.3,0.9,6.7,1.7,10c0.7,3.3,1.5,6.6,2.4,9.9l0.7,2.4c0.3,1,0.4,2.2,0.3,3.3c-0.2,1.1-0.6,2.2-1.2,3.1
		c-0.3,0.5-0.7,0.9-1.1,1.3c-0.4,0.4-0.8,0.7-1.2,0.9c-3,2.2-6.6,3.6-10.2,3.5c-0.4,0-0.7-0.3-0.7-0.7c0-0.3,0.2-0.6,0.5-0.6l0,0
		c3.2-0.8,6.1-2.5,8.4-4.7c0.7-0.6,1-1,1.3-1.5c0.3-0.5,0.4-1.1,0.4-1.7c0-0.6-0.1-1.2-0.3-1.8c-0.3-0.8-0.6-1.7-0.8-2.5
		c-2.1-6.7-3.5-13.6-4.1-20.6c-0.2-1.8-0.3-3.5-0.3-5.3c0-0.9-0.1-1.8-0.1-2.7l0-1.3c0-0.5,0-1,0.1-1.5c0.5-4,2.8-7.7,6.1-10.2
		c0.8-0.6,1.7-1.1,2.7-1.6c0.9-0.4,1.9-0.7,2.8-1c1.9-0.5,4-0.7,5.9-0.5c4,0.3,7.7,1.8,10.7,4.2c1.1,0.9,1.3,2.4,0.4,3.5
		C600.9,260.6,599.7,260.9,598.6,260.5L598.6,260.5z"/>
</g>
<g>
	<path fill="#99532C" d="M552.8,302.3c-0.8-1.2-1.1-2.8-0.9-4.3c0.1-1.5,0.8-3,1.8-4.3c1-1.2,2.4-2.1,3.9-2.6
		c1.5-0.4,3.1-0.3,4.4,0.2c0.5,0.2,0.8,0.8,0.6,1.4c-0.1,0.3-0.4,0.5-0.7,0.6l-0.1,0c-1.1,0.3-2.1,0.6-2.9,1.1
		c-0.8,0.5-1.5,1.1-2.1,1.8c-0.6,0.7-1,1.5-1.4,2.4c-0.3,0.9-0.5,1.9-0.6,3.1l0,0.1c-0.1,0.6-0.6,1-1.1,0.9
		C553.3,302.7,553,302.5,552.8,302.3z"/>
</g>
<g>
	<path fill="#99532C" d="M519,266c1.3-3.9,4.1-7.3,7.5-9.8c3.5-2.4,7.8-3.9,12.2-3.8c2.2,0,4.4,0.4,6.4,1.2c1,0.4,2,0.8,2.9,1.3
		c0.5,0.2,0.9,0.5,1.4,0.8l0.7,0.4c0.3,0.2,0.5,0.3,0.7,0.5c1.8,1.4,3.2,2.9,4.4,4.7c0.3,0.4,0.6,0.9,0.8,1.4
		c0.3,0.5,0.4,0.9,0.6,1.4c0.4,0.9,0.7,1.8,1,2.7c0.1,0.4-0.1,0.9-0.5,1c-0.3,0.1-0.7,0-0.9-0.2c-0.7-0.7-1.3-1.5-1.9-2.2
		c-0.3-0.4-0.6-0.8-0.9-1.1c-0.3-0.3-0.6-0.6-0.9-0.9c-1.2-1.2-2.7-2.4-4.1-3.1c-0.2-0.1-0.3-0.2-0.5-0.2l-0.6-0.2
		c-0.4-0.2-0.8-0.3-1.2-0.4c-0.8-0.3-1.7-0.5-2.5-0.6c-1.7-0.3-3.3-0.4-5-0.3c-3.3,0.1-6.5,0.9-9.6,2.3c-3.1,1.4-6,3.5-8.9,6.1l0,0
		c-0.3,0.3-0.9,0.3-1.2-0.1C519,266.5,519,266.2,519,266z"/>
</g>
<g>
	<path fill="#99532C" d="M451,277.8c-0.2-0.8-0.5-1.5-0.7-2.3c-0.1-0.8-0.2-1.6-0.3-2.5l0-1.3c0-0.2,0-0.4,0-0.6l0.1-0.6
		c0.1-0.4,0.2-0.9,0.3-1.3l0.5-1.3c0.8-1.6,2.2-3.1,4-3.9c1.8-0.8,3.8-0.9,5.6-0.5c0.9,0.2,1.8,0.6,2.6,1c0.7,0.5,1.6,0.9,2.2,1.6
		c0.3,0.3,0.7,0.6,1,0.9l0.8,1c0.6,0.7,1,1.4,1.4,2.1c0.8,1.5,1.3,3,1.8,4.6c0.5,1.6,0.7,3.1,0.9,4.8c0.1,0.8-0.3,1.5-1,1.8l0,0
		c-0.6,0.3-1.2,0.6-1.7,1c-0.5,0.4-0.9,1-1.2,1.6c-0.3,0.6-0.6,1.3-0.7,2.1c-0.1,0.7-0.2,1.6-0.2,2.3l0,0.1c0,0.6-0.4,1-1,1
		c-0.5,0-0.9-0.3-1-0.8c-0.3-1-0.3-1.9-0.3-2.9c0-1,0.2-2,0.5-3c0.3-1,0.9-1.9,1.6-2.7c0.7-0.8,1.6-1.4,2.6-1.9l-1,1.8
		c-0.5-2.7-1.5-5.5-2.8-7.9c-0.3-0.6-0.7-1.2-1.1-1.6l-0.6-0.7l-0.7-0.6c-0.4-0.5-1-0.7-1.5-1.1c-0.5-0.2-1.1-0.5-1.6-0.6
		c-1.1-0.3-2.2-0.3-3.2,0.1c-1,0.4-1.9,1.1-2.5,2.1l-0.4,0.8c-0.1,0.3-0.2,0.6-0.3,0.9l-0.2,0.5l-0.1,0.5l-0.2,1
		c-0.1,0.7-0.1,1.4-0.1,2.1c0.1,0.7,0.1,1.4,0.2,2.1l0,0.1c0,0.5-0.4,1-0.9,1.1C451.5,278.6,451.1,278.2,451,277.8z"/>
</g>
<g>
	<path fill="#542314" d="M567.9,195.4c3.1-3.7,5.4-8,6.3-12.6c0.4-2.3,0.6-4.6,0.3-6.9c-0.3-2.2-0.9-4.5-2-6.3
		c-1-1.8-2.7-3.3-4.6-4.6c-1.9-1.3-4.1-2.4-6.3-3.6c-2.2-1.2-4.5-2.4-6.6-3.9c-2.1-1.5-4.2-3.4-5.5-5.7c-0.3-0.5-0.1-1.1,0.3-1.4
		c0.4-0.3,1-0.2,1.3,0.2c3.2,3.5,7.6,5.5,12.2,7.5c2.3,1,4.6,2.1,6.9,3.5c2.2,1.5,4.5,3.3,5.9,5.9c1.4,2.5,2.1,5.2,2.4,7.9
		c0.2,2.7,0,5.5-0.7,8.1c-1.3,5.2-4.5,9.8-8.3,13.2c-0.4,0.4-1,0.3-1.4-0.1C567.6,196.3,567.6,195.8,567.9,195.4z"/>
</g>
<g>
	<path fill="#542314" d="M559,198.9c0.4-1.3,0.9-2.5,1.3-3.8l0.5-1.9c0.2-0.6,0.4-1.2,0.5-1.9c0.2-1.3,0.6-2.5,0.6-3.8
		c0-0.6,0.2-1.3,0.2-1.9c0-0.6,0-1.2,0-1.9c-0.2-2.5-0.7-4.9-1.8-7.2c-0.5-1.1-1.1-2.2-1.9-3.3c-0.7-1-1.6-2.1-2.4-3l-0.1-0.1
		c-0.4-0.4-0.4-1,0-1.4c0.3-0.3,0.8-0.4,1.2-0.1c2.7,1.5,4.7,3.7,6.2,6.3c1.5,2.6,2.4,5.6,2.6,8.6c0.1,3-0.3,6-1.3,8.8
		c-0.5,1.4-1.2,2.7-1.8,4c-0.8,1.2-1.5,2.4-2.4,3.6c-0.3,0.4-1,0.5-1.4,0.2c-0.4-0.3-0.5-0.7-0.4-1.1L559,198.9z"/>
</g>
<g>
	<path fill="#542314" d="M527.7,165.5c7.4,1.1,14.3,5,19.3,10.7c2.5,2.9,4.5,6.3,5.5,10.1c1.1,3.8,1.1,7.9-0.2,11.7l0,0
		c-0.3,1-1.4,1.5-2.4,1.2c-0.7-0.2-1.1-0.8-1.3-1.4l0,0c-0.9-3.8-3.1-7.2-6.2-9.8c-3-2.6-6.8-4.3-10.7-5.1c-0.5-0.1-1-0.2-1.5-0.2
		c-0.5-0.1-1-0.1-1.6-0.2c-1.1-0.1-2.3-0.2-3.4-0.4c-2.2-0.3-4.5-0.9-6.6-1.6c-2.2-0.8-4.3-1.8-6.2-3.2c-1.9-1.4-3.5-3.2-4.6-5.3
		c-0.2-0.5,0-1,0.4-1.2c0.4-0.2,0.9-0.1,1.2,0.3c2.3,3.4,6.2,5.3,10.1,6.4c2,0.5,4.1,0.9,6.2,1.1c1,0.1,2.1,0.2,3.2,0.2
		c0.5,0,1.1,0,1.7,0.1c0.6,0,1.2,0.1,1.8,0.2c2.3,0.3,4.6,1.1,6.8,2c2.2,1,4.2,2.2,6,3.7c1.8,1.6,3.4,3.4,4.7,5.4
		c1.2,2.1,2.1,4.4,2.5,6.8l0,0l-3.7-0.2c0.9-3.1,1-6.4,0.2-9.6c-0.8-3.2-2.3-6.3-4.4-8.9c-2.1-2.7-4.7-5-7.6-6.9
		c-2.9-1.9-6.1-3.3-9.5-4.1c-0.5-0.1-0.8-0.6-0.7-1.1C526.8,165.8,527.3,165.5,527.7,165.5z"/>
</g>
<g>
	<path fill="#542314" d="M538.1,198.8c-0.7-0.7-1.3-1.3-1.8-2l-1.6-1.9c-0.5-0.6-1.1-1.3-1.6-1.9c-0.5-0.7-1.1-1.3-1.7-2l-0.1-0.2
		c-0.3-0.5-0.2-1.1,0.2-1.4c0.2-0.2,0.5-0.2,0.8-0.2c1.1,0.2,2.1,0.6,3,1.1c0.9,0.5,1.7,1.2,2.4,2c0.7,0.8,1.3,1.7,1.7,2.7
		c0.4,1,0.6,2.1,0.5,3.1c0,0.6-0.6,1-1.2,1C538.6,199.2,538.4,199.1,538.1,198.8L538.1,198.8z"/>
</g>
<g>
	<path fill="#542314" d="M523,197.7c-2-2.4-5-3.7-8.2-4.7c-1.6-0.5-3.2-0.9-4.9-1.3c-1.7-0.4-3.4-0.8-5.1-1.3c-3.4-1-7-2.1-10.2-4.3
		c-1.6-1.1-3-2.6-4-4.3c-1-1.7-1.5-3.7-1.5-5.6c0-0.6,0.4-1,1-1c0.5,0,0.9,0.3,1,0.7l0,0c0.4,1.6,1.1,3,2,4.2c0.9,1.2,2.1,2.2,3.5,3
		c2.7,1.6,6,2.5,9.3,3.4c3.3,0.9,6.8,1.7,10.2,3.1c1.7,0.7,3.4,1.5,5,2.6c1.5,1.1,3,2.6,3.8,4.4c0.2,0.5,0,1.1-0.5,1.3
		C523.8,198.2,523.3,198,523,197.7L523,197.7z"/>
</g>
<g>
	<path fill="#542314" d="M509.6,203.7c-1.5-0.6-2.9-1.1-4.4-1.5c-1.5-0.4-3-0.7-4.6-1c-1.6-0.3-3.2-0.4-4.8-0.6l-4.9-0.5l0,0
		c-0.6-0.1-1-0.6-0.9-1.1c0-0.4,0.3-0.7,0.7-0.9c1.7-0.6,3.5-0.8,5.2-1c0.9-0.1,1.8-0.1,2.7,0c0.9,0,1.8,0.1,2.7,0.2
		c1.8,0.3,3.6,0.7,5.2,1.5c1.7,0.8,3.3,1.9,4.4,3.4c0.4,0.4,0.3,1.1-0.2,1.4C510.4,203.8,510,203.9,509.6,203.7L509.6,203.7z"/>
</g>
<g>
	<path fill="#542314" d="M503.7,212.1c-2.4-0.6-4.7-1-7-0.8c-2.3,0.1-4.5,0.7-6.6,1.7c-2.1,0.9-4.2,2.2-6.2,3.6c-2,1.4-4,3-6.1,4.5
		c-0.5,0.3-1.1,0.2-1.4-0.2c-0.3-0.4-0.2-0.8,0-1.2c1.5-2.1,3.3-4.1,5.3-5.8c2-1.8,4.2-3.3,6.8-4.5c0.6-0.3,1.3-0.6,2-0.7
		c0.7-0.2,1.3-0.4,2-0.5c0.7-0.1,1.4-0.3,2.1-0.3c0.7-0.1,1.4-0.1,2.1,0c2.8,0.1,5.6,1.1,7.8,2.6c0.5,0.3,0.6,0.9,0.3,1.4
		C504.5,212.1,504.1,212.2,503.7,212.1L503.7,212.1z"/>
</g>
<g>
	<path fill="#542314" d="M502.3,222.1c-0.8,0.8-1.7,1.4-2.5,2c-0.8,0.6-1.7,1.2-2.5,1.7c-0.8,0.6-1.7,1.1-2.5,1.7
		c-0.8,0.5-1.7,1.1-2.7,1.6l-0.2,0.1c-0.5,0.3-1.1,0-1.4-0.5c-0.1-0.3-0.1-0.6,0-0.8c0.4-1.2,1.1-2.2,1.9-3.1
		c0.8-0.9,1.7-1.6,2.6-2.3c1-0.6,2-1.2,3.1-1.6c1.1-0.4,2.2-0.7,3.4-0.7c0.6,0,1.1,0.4,1.1,1C502.7,221.6,502.6,221.9,502.3,222.1
		L502.3,222.1z"/>
</g>
<g>
	<path fill="#542314" d="M484.6,195.3c-1.9,0.3-3.7,0.6-5.5,1.2c-1.7,0.7-3.3,1.5-4.9,2.6c-1.5,1.1-3,2.3-4.5,3.5
		c-1.4,1.3-2.8,2.7-4.2,4.1l-0.1,0.1c-0.4,0.4-1,0.4-1.4,0c-0.3-0.3-0.4-0.7-0.2-1.1c0.8-2.1,2-3.8,3.3-5.5c1.4-1.7,3-3.2,4.8-4.4
		c1.8-1.2,3.9-2.1,6.1-2.6c2.2-0.5,4.5-0.4,6.7,0.2c0.5,0.1,0.9,0.7,0.7,1.2c-0.1,0.4-0.4,0.7-0.8,0.7L484.6,195.3z"/>
</g>
<g>
	<path fill="#542314" d="M496,237c-0.7,0.9-1.4,1.6-2.2,2.3c-0.7,0.8-1.4,1.5-2.2,2.2c-0.7,0.7-1.5,1.5-2.3,2.2
		c-0.8,0.7-1.6,1.5-2.5,2.1l-0.1,0.1c-0.5,0.3-1.1,0.2-1.5-0.2c-0.2-0.3-0.2-0.6-0.2-0.9c0.3-1.2,0.8-2.3,1.4-3.3
		c0.6-1,1.4-1.9,2.2-2.8c0.8-0.9,1.8-1.6,2.8-2.2c1-0.6,2.2-1.1,3.5-1.3c0.6-0.1,1.1,0.3,1.2,0.9C496.4,236.4,496.3,236.7,496,237
		L496,237z"/>
</g>
<g>
	<path fill="#542314" d="M481.5,230c-1.2,1.4-2.5,2.6-3.6,3.9c-1.1,1.3-2.1,2.7-3.1,4.2c-1,1.4-1.8,2.9-2.7,4.5
		c-0.8,1.6-1.6,3.2-2.4,4.8l0,0.1c-0.2,0.5-0.8,0.7-1.3,0.5c-0.4-0.2-0.6-0.5-0.6-0.9c0-2,0.4-3.9,1.1-5.8c0.6-1.9,1.5-3.6,2.6-5.3
		c0.5-0.8,1.1-1.6,1.8-2.4c0.3-0.4,0.7-0.7,1-1.1l0.5-0.5l0.6-0.5c1.5-1.3,3.2-2.4,5-3.1c0.5-0.2,1.1,0,1.3,0.6
		C481.9,229.2,481.8,229.6,481.5,230L481.5,230z"/>
</g>
<g>
	<path fill="#542314" d="M486.4,255.9c-0.6,1.7-1.2,3.4-1.7,5.1c-0.5,1.7-1,3.4-1.5,5.2c-0.5,1.7-0.9,3.5-1.3,5.2l-1.3,5.1l0,0.1
		c-0.3,1.1-1.3,1.7-2.4,1.5c-1-0.2-1.6-1.2-1.5-2.2c0.2-1.9,0.6-3.7,1.1-5.6c0.5-1.8,1.1-3.6,1.8-5.3c0.7-1.8,1.4-3.5,2.3-5.1
		c0.8-1.7,1.8-3.3,2.8-4.8c0.3-0.5,0.9-0.6,1.4-0.3C486.4,254.9,486.6,255.4,486.4,255.9L486.4,255.9z"/>
</g>
<g>
	<path fill="#542314" d="M542.7,157.3c-1.8,0.5-3.6,0.8-5.5,0.8c-1.9,0-3.8-0.2-5.6-0.6c-3.6-0.8-6.8-2-9.9-2.1
		c-3.2-0.1-6.5,0.4-9.5,1.5c-3.1,1.1-6,2.7-8.8,4.6l0,0c-0.9,0.6-2.2,0.4-2.8-0.6c-0.6-0.9-0.4-2.1,0.4-2.7c2.9-2.2,6.1-4.2,9.7-5.4
		c3.6-1.3,7.4-1.8,11.2-1.6c2,0.1,3.8,0.6,5.6,1.1c1.8,0.5,3.4,1.1,5,1.7c3.2,1.1,6.4,1.6,9.8,1.3l0,0c0.6,0,1,0.4,1.1,0.9
		C543.5,156.8,543.2,157.2,542.7,157.3z"/>
</g>
<g>
	<path fill="#542314" d="M516.3,163.8c-3.3-1.2-6.6-1.8-10-2c-3.4-0.1-6.8,0.3-10,1.2c-3.2,0.9-6.3,2.6-9.8,3.9
		c-1.7,0.7-3.6,1.2-5.6,1.4c-2,0.2-4,0-5.9-0.7c-0.5-0.2-0.8-0.8-0.6-1.3c0.2-0.4,0.6-0.7,1.1-0.6l0,0c3.3,0.5,6.4-0.6,9.5-2.1
		c3.1-1.5,6.3-3.3,10.1-4.4c3.7-1.1,7.6-1.4,11.4-1c3.8,0.4,7.5,1.7,10.7,3.7c0.5,0.3,0.6,0.9,0.3,1.4
		C517.2,163.8,516.7,164,516.3,163.8L516.3,163.8z"/>
</g>
<g>
	<path fill="#542314" d="M474.9,176.1c-0.8,0.2-1.7,0.3-2.5,0.6c-0.8,0.3-1.6,0.5-2.4,0.9c-1.5,0.7-2.8,1.7-3.9,2.9
		c-1.1,1.2-1.9,2.6-2.5,4.1l-0.4,1.2c-0.1,0.4-0.2,0.8-0.3,1.2c-0.1,0.4-0.1,0.8-0.2,1.2c0,0.4-0.1,0.8-0.1,1.1l0,0c0,1.1-0.9,2-2,2
		c-1.1,0-2-0.9-2-2c0-0.1,0-0.1,0-0.2c0.1-0.6,0.1-1.1,0.2-1.6c0.1-0.5,0.2-1,0.4-1.5c0.1-0.5,0.3-1,0.5-1.4l0.6-1.4
		c0.9-1.8,2.1-3.5,3.6-4.9c1.5-1.3,3.2-2.5,5.1-3.1c0.9-0.4,1.9-0.6,2.8-0.8c0.9-0.2,1.9-0.3,2.8-0.4c0.5-0.1,1,0.3,1.1,0.8
		c0.1,0.5-0.3,1-0.7,1.1L474.9,176.1z"/>
</g>
<g>
	<path fill="#542314" d="M470.6,188.1c-3.7,0.3-7.1,1.5-9.9,3.5c-2.9,2-5.2,4.8-6.7,7.9l-0.5,1.2c-0.2,0.4-0.4,0.9-0.5,1.3
		c-0.4,0.9-0.7,1.8-1.2,2.7c-0.9,1.8-1.8,3.6-3,5.3c-1.2,1.7-2.5,3.3-4.2,4.6c-1.7,1.3-3.7,2.2-5.8,2.5c-0.6,0.1-1.1-0.3-1.1-0.9
		c-0.1-0.5,0.2-0.9,0.7-1.1l0,0c1.7-0.6,3.1-1.6,4.3-2.8c1.2-1.2,2.3-2.7,3.2-4.2c0.9-1.6,1.7-3.2,2.4-4.9c0.4-0.9,0.7-1.7,1-2.6
		l0.5-1.3c0.2-0.5,0.4-1,0.6-1.5c1.8-3.8,4.7-7.1,8.3-9.3c3.6-2.2,7.9-3.1,12-2.5c0.5,0.1,0.9,0.6,0.8,1.1
		C471.5,187.8,471.1,188.1,470.6,188.1L470.6,188.1z"/>
</g>
<g>
	<path fill="#542314" d="M474.6,209c-1.6,2.7-3.7,5-5.8,7.2c-2.1,2.2-4.1,4.2-5.9,6.4c-1.8,2.2-3.2,4.5-4.3,7.1
		c-1.1,2.6-1.8,5.3-2.4,8.2l0,0c-0.1,0.5-0.6,0.9-1.2,0.8c-0.5-0.1-0.8-0.5-0.8-0.9c-0.2-3.1,0.1-6.3,1.1-9.3
		c0.9-3.1,2.6-5.9,4.6-8.4c1-1.2,2.1-2.4,3.2-3.5c1.1-1.1,2.2-2.1,3.4-3c2.3-2,4.5-3.8,6.6-5.8l0,0c0.4-0.4,1-0.4,1.4,0
		C474.8,208.1,474.9,208.6,474.6,209z"/>
</g>
<path fill="#FFFFFF" d="M555.1,323.8c0,0,4.5,5.2,11.7,5.1s9.1-8.5,9.1-8.5l-20.6,0.8L555.1,323.8z"/>
<g>
	<path fill="#99532C" d="M543.1,317.4c1.7,0.3,3.2,0.7,4.9,0.9c1.6,0.3,3.2,0.6,4.9,0.8c3.2,0.5,6.5,0.7,9.7,0.8
		c3.2,0.1,6.5-0.1,9.6-0.5c1.6-0.2,3.2-0.5,4.7-0.9c0.8-0.2,1.5-0.4,2.3-0.6c0.4-0.1,0.7-0.2,1.1-0.4l0.5-0.2
		c0.2-0.1,0.2-0.1,0.4-0.2l0.5-0.2c0.5-0.2,1,0.1,1.2,0.6c0.1,0.3,0,0.7-0.2,1c-0.2,0.2-0.4,0.5-0.6,0.6l-0.6,0.4
		c-0.4,0.3-0.8,0.5-1.2,0.7c-0.8,0.4-1.6,0.8-2.4,1.1c-0.8,0.4-1.6,0.6-2.5,0.9c-0.8,0.2-1.7,0.5-2.5,0.7c-3.4,0.7-6.9,1.1-10.4,1
		c-3.5-0.1-6.9-0.5-10.3-1.3c-1.7-0.3-3.3-0.9-5-1.4c-1.6-0.5-3.2-1.2-4.8-1.9c-0.5-0.2-0.7-0.8-0.5-1.3
		C542.1,317.6,542.6,317.4,543.1,317.4L543.1,317.4z"/>
</g>
<g>
	<path fill="#99532C" d="M541.1,237c3.8-0.1,7.6,0.5,11.3,1.2c3.7,0.7,7.2,1.5,10.7,1.8c0.9,0,1.7,0.1,2.6,0.1
		c0.9,0,1.7-0.1,2.5-0.2c1.7-0.2,3.4-0.6,5.1-1.1c3.5-1,7.4-2.1,11.3-1.8c0.6,0.1,1,0.5,0.9,1.1c0,0.5-0.4,0.8-0.9,0.9l0,0
		c-3.5,0.5-6.7,1.9-10.3,3.2c-1.8,0.6-3.7,1.2-5.7,1.5c-1,0.1-2,0.2-3,0.2c-1,0-2,0-3-0.1c-3.9-0.3-7.6-1.3-11.2-2.3
		c-3.5-1-7-1.9-10.6-2.6c-0.5-0.1-0.9-0.6-0.8-1.2C540.2,237.3,540.6,237,541.1,237z"/>
</g>
<g>
	<path fill="#99532C" d="M553.6,228.4c1.9,0.4,3.8,0.7,5.7,0.9c1.9,0.2,3.8,0.4,5.7,0.4c3.8,0,7.6-0.2,11.1-1.2l0.1,0
		c0.5-0.2,1.1,0.2,1.3,0.7c0.1,0.4,0,0.8-0.3,1c-1.7,1.5-3.8,2.3-5.9,2.9c-2.1,0.5-4.2,0.7-6.4,0.6c-2.1-0.1-4.2-0.4-6.3-0.9
		c-2-0.6-4-1.4-5.8-2.5c-0.5-0.3-0.6-0.9-0.3-1.4C552.8,228.5,553.2,228.3,553.6,228.4L553.6,228.4z"/>
</g>
<g>
	<path fill="#99532C" d="M560.1,334.8c0.6,0,1.1,0,1.6,0.1c0.5,0,1,0.1,1.4,0c0.9,0,1.8-0.1,2.7-0.2c0.9-0.1,1.7-0.3,2.6-0.6
		c0.9-0.2,1.8-0.6,2.7-0.9l0.3-0.1c0.5-0.2,1.1,0.1,1.3,0.7c0.1,0.3,0.1,0.5-0.1,0.8c-0.6,1.2-1.5,2.1-2.6,2.8
		c-1.1,0.7-2.3,1.1-3.6,1.3c-1.3,0.1-2.6,0.1-3.8-0.3c-0.6-0.1-1.2-0.4-1.7-0.7c-0.5-0.3-1-0.7-1.5-1c-0.4-0.4-0.5-1-0.1-1.5
		c0.2-0.2,0.5-0.4,0.7-0.4L560.1,334.8z"/>
</g>
<g>
	<path fill="#99532C" d="M498.9,302.9c1,1,1.9,2,2.8,2.9c0.9,0.9,1.9,1.8,2.8,2.6c1,0.8,1.9,1.6,3,2.4l3.1,2.3l0.1,0.1
		c0.5,0.3,0.5,1,0.2,1.4c-0.2,0.3-0.5,0.4-0.9,0.4c-1.6-0.1-3.1-0.5-4.4-1.2c-1.4-0.7-2.7-1.5-3.8-2.5c-1.1-1-2.1-2.2-2.9-3.5
		c-0.8-1.3-1.4-2.6-1.8-4.1c-0.1-0.6,0.2-1.1,0.7-1.3C498.2,302.6,498.6,302.7,498.9,302.9L498.9,302.9z"/>
</g>
<g>
	<path fill="#99532C" d="M533.5,285.4c0.8,0,1.7,0.1,2.5,0.2c0.8,0,1.6,0.1,2.3,0.1c1.5,0,3-0.2,4.4-0.5c1.4-0.4,2.6-0.9,3.8-1.7
		c0.6-0.4,1.2-0.9,1.7-1.3c0.6-0.5,1.1-1.1,1.6-1.6l0.2-0.2c0.4-0.4,1-0.4,1.4,0c0.3,0.3,0.4,0.6,0.3,0.9c-0.4,2-1.5,3.6-2.9,5
		c-1.4,1.4-3.2,2.3-5.1,2.8c-1,0.2-1.9,0.4-2.9,0.4c-1,0.1-1.9-0.1-2.8-0.2c-0.9-0.1-1.8-0.5-2.7-0.7c-0.8-0.4-1.7-0.7-2.4-1.2
		c-0.5-0.3-0.7-0.9-0.4-1.4c0.2-0.3,0.5-0.5,0.9-0.5L533.5,285.4z"/>
</g>
<g>
	<path fill="#99532C" d="M577,279c0.9,0.9,1.6,1.6,2.6,2.2c1,0.6,2,1,3.1,1.4c1.1,0.3,2.4,0.6,3.6,0.8c1.2,0.2,2.6,0.3,3.9,0.4
		l0.1,0c0.6,0.1,1,0.6,0.9,1.1c0,0.4-0.3,0.7-0.6,0.8c-1.4,0.6-2.9,0.9-4.4,1.1c-1.5,0.1-3,0-4.6-0.3c-1.5-0.4-3-1.1-4.4-2.1
		c-1.3-1-2.3-2.4-2.9-3.9c-0.3-0.8,0.1-1.6,0.8-2c0.6-0.2,1.2-0.1,1.6,0.3L577,279z"/>
</g>
<g>
	<path fill="#99532C" d="M536.2,314.9c-0.4,0.4-0.8,0.7-1.2,1c-0.3,0.3-0.7,0.6-0.9,1c-0.3,0.3-0.4,0.6-0.6,0.9
		c0,0.2-0.1,0.3-0.2,0.5c-0.1,0.2-0.1,0.3-0.1,0.5c-0.1,0.7-0.2,1.5-0.1,2.4c0.1,0.9,0.2,2,0.3,3l0,0.2c0.1,0.6-0.4,1.1-0.9,1.1
		c-0.3,0-0.6-0.1-0.8-0.3c-1-0.9-1.7-1.9-2.1-3.2c-0.4-1.2-0.6-2.7-0.3-4.2c0.1-0.4,0.2-0.7,0.4-1.1c0.2-0.3,0.4-0.7,0.6-1
		c0.5-0.6,1-1.2,1.6-1.6c0.6-0.5,1.2-0.6,1.9-0.9c0.6-0.2,1.3-0.2,1.9-0.3c0.6,0,1,0.4,1.1,1c0,0.3-0.1,0.6-0.3,0.8L536.2,314.9z"/>
</g>
<g>
	<path fill="#99532C" d="M589.3,321c0-0.5,0-1,0.1-1.5c0-0.5,0-0.9,0-1.3c0-0.8-0.2-1.5-0.4-2.1c-0.2-0.6-0.5-1.2-1-1.9
		c-0.4-0.6-1.1-1.3-1.7-2l-0.2-0.2c-0.4-0.4-0.3-1.1,0.1-1.4c0.2-0.2,0.5-0.2,0.7-0.2c1.3,0.1,2.4,0.5,3.5,1.3
		c1,0.8,1.9,1.9,2.3,3.2c0.4,1.3,0.4,2.7,0.1,3.9c-0.1,0.6-0.5,1.1-0.7,1.7c-0.3,0.5-0.7,1-1.1,1.4c-0.4,0.4-1.1,0.4-1.5,0
		c-0.2-0.2-0.3-0.5-0.3-0.7L589.3,321z"/>
</g>
<g>
	<path fill="#99532C" d="M517.6,303.5c1.1,0,2.2,0.1,3.3,0.2c1.1,0,2.1,0,3.2,0c1-0.1,2.1,0,3.1-0.2c0.5-0.1,1-0.1,1.5-0.2l1.5-0.3
		c2-0.5,3.8-1.2,5.6-2.2l0.7-0.4l0.6-0.4c0.4-0.3,0.8-0.6,1.2-0.9c0.8-0.6,1.6-1.4,2.2-2.1l0.1-0.1c0.4-0.4,1-0.4,1.4,0
		c0.3,0.3,0.4,0.7,0.3,1.1c-0.9,2.4-2.5,4.3-4.5,5.8c-0.5,0.4-1,0.7-1.5,1c-0.5,0.3-1.1,0.6-1.6,0.9c-0.6,0.3-1.1,0.5-1.7,0.7
		c-0.6,0.2-1.2,0.4-1.8,0.5l-1.8,0.3c-0.6,0.1-1.2,0.1-1.8,0.1c-1.2,0.1-2.4,0-3.6-0.1c-1.2-0.1-2.3-0.4-3.5-0.6
		c-1.1-0.4-2.2-0.7-3.3-1.2c-0.5-0.2-0.8-0.8-0.6-1.3C516.7,303.8,517.1,303.5,517.6,303.5L517.6,303.5z"/>
</g>
<g>
	<path fill="#99532C" d="M589.8,305.6c-1.8,0-3.6-0.3-5.3-1.2c-1.7-0.8-3.2-2-4.3-3.5c-1.2-1.4-2-3.1-2.6-4.8
		c-0.6-1.7-0.9-3.4-0.7-5.3c0-0.6,0.5-1,1.1-0.9c0.4,0,0.7,0.3,0.8,0.6l0.1,0.1c0.6,1.4,1.3,2.8,2,4.1c0.7,1.3,1.5,2.5,2.4,3.7
		c0.9,1.1,1.9,2.1,3,3c1.1,0.9,2.5,1.5,3.9,2.3l0.1,0.1c0.5,0.3,0.7,0.9,0.4,1.4C590.5,305.4,590.1,305.6,589.8,305.6z"/>
</g>
<ellipse transform="matrix(0.5129 -0.8585 0.8585 0.5129 28.3612 600.6263)" fill="#18330C" cx="543.4" cy="275.3" rx="4.1" ry="4.1"/>
<ellipse transform="matrix(0.5129 -0.8585 0.8585 0.5129 50.9363 637.7192)" fill="#18330C" cx="587.4" cy="274" rx="4.1" ry="4.1"/>
<ellipse transform="matrix(0.2094 -0.9778 0.9778 0.2094 146.7418 790.8262)" fill="#99532C" cx="562.4" cy="304.7" rx="2.5" ry="4.3"/>
<g>
	<path fill="#99532C" d="M552.8,276.2c-2.2-1.1-4.4-2.1-6.7-2.7c-2.2-0.6-4.4-0.8-6.7-0.5c-2.2,0.3-4.4,1-6.7,1.9l-0.8,0.3
		c-0.2,0.1-0.5,0.2-0.7,0.4c-0.5,0.3-1,0.6-1.6,0.9l-3.2,2l0,0c-0.4,0.3-1,0.1-1.3-0.3c-0.2-0.3-0.2-0.8,0.1-1.1
		c0.8-1,1.7-1.9,2.7-2.8c0.5-0.5,1-0.9,1.5-1.3c0.3-0.2,0.6-0.4,0.9-0.6c0.3-0.2,0.6-0.4,0.9-0.5c2.3-1.4,4.9-2.5,7.7-2.9
		c1.4-0.2,2.8-0.2,4.3,0c0.7,0.1,1.4,0.2,2.1,0.4c0.3,0.1,0.7,0.2,1,0.3l1,0.4c2.6,1,4.8,2.7,6.6,4.6c0.3,0.4,0.3,1,0,1.3
		C553.6,276.4,553.2,276.4,552.8,276.2L552.8,276.2z"/>
</g>
<g>
	<path fill="#99532C" d="M575.3,271.9c1.4-1.3,3.2-2.3,5-3c1.9-0.7,3.9-1,5.9-0.8c2,0.1,4,0.7,5.7,1.5c1.8,0.8,3.3,2,4.6,3.4
		c0.3,0.4,0.3,1-0.1,1.3c-0.3,0.2-0.7,0.3-1,0.2l0,0c-1.6-0.7-3.2-1.3-4.8-1.7c-1.6-0.4-3.1-0.7-4.7-0.7c-1.5,0-3.1,0.2-4.6,0.6
		c-1.5,0.4-3,1-4.5,1.7l-0.1,0c-0.8,0.3-1.7,0-2-0.8C574.6,273,574.8,272.3,575.3,271.9z"/>
</g>
<path fill="none" stroke="#99532C" stroke-width="4" stroke-linecap="round" stroke-linejoin="round" stroke-miterlimit="10" d="
	M485.4,336.3c-2.5-1.9-4.5-3.7-5.8-5.5c-0.2-0.3-0.4-0.5-0.5-0.8c-5.8-9.6-6.9-28-6.9-28c0,0.1-0.1,0.1-0.2,0.1
	c-0.4,0.4-1,0.8-1.5,1.2c-0.1,0.1-0.3,0.2-0.4,0.3c-0.1,0.1-0.3,0.2-0.4,0.3c-0.5,0.3-1,0.6-1.5,0.8c-0.3,0.1-0.6,0.2-0.9,0.4
	c-0.8,0.3-1.7,0.6-2.6,0.7c-0.2,0-0.4,0.1-0.6,0.1c-0.4,0-0.8,0.1-1.2,0c-0.2,0-0.3,0-0.5,0c-0.5,0-1-0.1-1.5-0.2
	c-0.2,0-0.4-0.1-0.6-0.2c-0.2-0.1-0.4-0.1-0.6-0.2c-0.3-0.1-0.5-0.2-0.7-0.3c-0.1-0.1-0.3-0.1-0.4-0.2c0,0,0,0,0,0
	c-0.2-0.1-0.4-0.2-0.5-0.3l0,0c-0.2-0.1-0.4-0.2-0.6-0.3c-0.1,0-0.1-0.1-0.2-0.1c-0.2-0.1-0.3-0.2-0.5-0.3
	c-5.8-4.2-14.4-20.3-14.4-34.2c0-13.5,14.9-22.1,27.3-12.1c4.3,3.5,7.1,8.5,8.1,13.9l0.8,4.2"/>
<path fill="none" stroke="#99532C" stroke-width="4" stroke-linecap="round" stroke-linejoin="round" stroke-miterlimit="10" d="
	M575.8,199.7c8.2,4.3,16.8,21.8,18.1,40.6c0.4,6.1,2.7,10.2,4.7,12.8c2,2.5,2.5,6,1.4,9l-3.2,8.1c-1,2.4-1,5.1-0.1,7.5
	c1.1,3,2.5,7.7,2.5,12.8c0,5.5-4.1,12.9-5.8,20.1c-2.9,12.3-6,26.8-13.7,36.9"/>
<g>
	<path fill="#99532C" d="M470.2,302.2c0-2.1,0.3-4,0.6-5.8c0.4-1.9,0.9-3.6,1.5-5.4c0.2-0.5,0.7-0.8,1.3-0.6
		c0.5,0.2,0.7,0.6,0.7,1.1l0,0c-0.3,1.7-0.4,3.5-0.5,5.3c0,1.8,0.1,3.5,0.4,5.1c0.2,1.1-0.5,2.1-1.6,2.4c-1.1,0.2-2.1-0.5-2.4-1.6
		C470.2,302.5,470.2,302.3,470.2,302.2L470.2,302.2z"/>
</g>
<g>
	<path fill="#542314" d="M573.6,199.6c0.1-0.7,0.2-1,0.5-1.3c0.2-0.2,0.5-0.4,0.8-0.5l0.8-0.5c0.3-0.2,0.5-0.4,0.7-0.5l1.5-1.1
		c0.4-0.4,0.9-0.8,1.3-1.2c1.7-1.6,3-3.6,3.6-5.8c0.7-2.2,0.6-4.7,0.2-7.2c-0.4-2.4-1.4-4.9-2.7-6.9l0-0.1c-0.3-0.5-0.2-1.1,0.3-1.4
		c0.4-0.3,0.9-0.2,1.2,0.1c2,2.1,3.4,4.7,4.2,7.5c0.9,2.8,1.1,5.8,0.5,8.8c-0.6,3-2.1,5.8-4.2,8c-0.6,0.5-1.1,1-1.7,1.5
		c-0.6,0.4-1.2,0.8-1.9,1.2c-0.3,0.2-0.6,0.4-0.9,0.6l-1,0.4c-0.3,0.1-0.6,0.3-1,0.4c-0.4,0.1-0.8,0-1.3-0.4c-0.6-0.4-0.9-1-0.8-1.7
		L573.6,199.6z"/>
</g>
<line fill="none" stroke="#003187" stroke-width="4" stroke-miterlimit="10" x1="647.6" y1="389.9" x2="647.6" y2="389.9"/>
<g>
	<path fill="#30BBF2" d="M632.1,485.5c3.5-1.1,7.1-2.2,10.9-2.7c3.7-0.6,7.5-0.8,11.4-0.3c3.8,0.4,7.6,1.5,11,3.4
		c3.4,1.9,6.5,4.5,8.7,7.7c2.3,3.2,3.8,6.9,4.6,10.6c0.8,3.8,0.9,7.7,0.5,11.5c-0.9,7.6-4.2,14.8-9,20.7c-2.4,2.9-5.2,5.6-8.2,7.7
		c-2.9,2.3-6,4.4-9.1,6.4l-4.9,2.7l-5.1,2.3c-1.8,0.6-3.6,1.2-5.3,1.8c-1.8,0.4-3.7,0.9-5.5,1.2c-7.5,1.1-15.4,0.4-22.4-2.6
		c-1.7-0.8-3.5-1.6-5.1-2.6c-0.8-0.5-1.6-1-2.4-1.5l-2.3-1.7c-0.8-0.5-1.4-1.2-2.1-1.9c-0.7-0.7-1.4-1.3-2-2l-3.7-4.2l-3.5-4
		c-0.6-0.7-1.2-1.3-1.8-1.9l-1.9-1.9c-2.4-2.6-5.2-4.8-7.9-7.1c-5.6-4.3-11.7-7.9-18.2-10.8c-13.1-5.5-27.4-7.5-41.8-8.4
		c-7.2-0.5-14.4-0.8-21.7-1.2c-1.8-0.1-3.6-0.1-5.5-0.4l-1.4-0.1l-1.4-0.3c-0.9-0.2-1.9-0.3-2.8-0.6c-3.7-0.8-7.2-2.2-10.6-3.8
		l-2.5-1.3l-2.4-1.4c-0.8-0.5-1.6-1-2.4-1.5c-0.8-0.5-1.6-1-2.3-1.6c-1.5-1.2-3-2.3-4.3-3.6c-1.4-1.2-2.7-2.7-3.9-4.1
		c-4.9-5.7-8.5-12.6-10.3-20c-0.3-1.1,0.4-2.2,1.5-2.4c1.1-0.3,2.2,0.4,2.4,1.5l0,0c1.6,6.7,4.9,13,9.4,18.3
		c1.2,1.3,2.3,2.6,3.6,3.7c1.2,1.2,2.6,2.3,4,3.4c0.7,0.5,1.4,1,2.1,1.5c0.7,0.5,1.4,1,2.2,1.4l2.3,1.3l2.3,1.2
		c3.2,1.5,6.4,2.8,9.8,3.5c3.4,0.8,6.7,1.1,10.4,1.2c7.2,0.4,14.5,0.7,21.7,1.2c3.6,0.2,7.3,0.6,10.9,0.9l5.5,0.7
		c1.8,0.2,3.6,0.6,5.4,0.9c7.2,1.4,14.4,3.3,21.3,6.2c6.8,2.9,13.2,6.8,19.1,11.3c2.8,2.4,5.7,4.7,8.3,7.4l2,2
		c0.7,0.6,1.3,1.3,1.9,2l3.6,4.2l3.5,4c0.5,0.7,1.2,1.2,1.9,1.8c0.6,0.6,1.2,1.2,1.9,1.7l2,1.6c0.7,0.5,1.5,0.9,2.2,1.4
		c1.4,1,3,1.6,4.6,2.4c6.3,2.7,13.4,3.4,20.2,2.3c1.7-0.3,3.4-0.7,5.1-1.1c1.7-0.6,3.3-1.1,5-1.7l4.8-2.1l4.6-2.5
		c3-1.9,6-3.8,8.7-6.1c2.9-2.1,5.4-4.5,7.6-7.1c4.4-5.3,7.3-11.8,8.1-18.6c0.4-3.4,0.3-6.8-0.4-10.1c-0.7-3.3-2-6.5-4-9.2
		c-1.9-2.7-4.5-5-7.4-6.5c-2.9-1.6-6.2-2.5-9.6-2.9c-3.4-0.4-6.9-0.2-10.3,0.3c-3.4,0.5-6.8,1.5-10.2,2.6l-0.1,0
		c-1.1,0.3-2.2-0.3-2.5-1.3C630.5,486.9,631.1,485.8,632.1,485.5z"/>
</g>
<g>
	<path fill="#30BBF2" d="M580.4,444.2c3.2,1.3,6.4,2.7,9.6,4.1c1.6,0.7,3.2,1.5,4.7,2.3c1.5,0.8,3.1,1.6,4.6,2.6
		c6.1,3.6,11.8,7.7,17,12.5c5.2,4.8,9.9,10.1,14,15.8c4.1,5.7,7.6,11.9,9.7,18.7c0.2,0.5-0.1,1.1-0.7,1.3c-0.4,0.1-0.9-0.1-1.2-0.4
		l0,0c-3.6-5.9-7.1-11.6-11.2-17.1c-4-5.4-8.6-10.4-13.7-14.9c-5.1-4.5-10.5-8.5-16.4-12c-1.4-0.9-3-1.7-4.4-2.5
		c-1.5-0.8-3-1.6-4.5-2.3c-3.1-1.4-6.2-2.8-9.3-4.3l-0.1-0.1c-1-0.5-1.4-1.7-1-2.7C578.3,444.2,579.4,443.8,580.4,444.2z"/>
</g>
<g>
	<path fill="#30BBF2" d="M536.7,348.2l5.1,0.3l-0.1,0c12.7,0.2,25.5-0.2,38.2-1.2c0.1,0,0.2,0,0.3,0l0,0l-0.3,0l4.4-0.4l4.4-0.4
		c2.9-0.3,5.9-0.6,8.8-1c5.9-0.7,11.7-1.6,17.6-2.5l-1,0.4l0,0c0.4-0.3,0.9-0.5,1.4-0.5l0,0l-0.5,0l12.9-2.1l6.4-1.1
		c2.1-0.4,4.4-0.7,6.6-0.9c2.2-0.2,4.5-0.4,6.8-0.3c2.3,0.1,4.6,0.5,6.9,1c1.1,0.3,2.2,0.6,3.3,1l0.8,0.3l0.8,0.3
		c0.6,0.2,1.1,0.4,1.6,0.7c2.1,1.1,4.1,2.4,5.8,4.1c3.4,3.2,6,7.3,7.6,11.6c0.8,2.2,1.4,4.4,1.7,6.7c0.3,2.3,0.4,4.6,0.3,7
		c-0.3,4.7-1.8,9.3-4.4,13.3c-2.6,4-6.4,7.1-10.6,9.2c-1.1,0.5-2.1,1-3.1,1.4l-3.1,1.2c-2.1,0.8-4.2,1.4-6.3,2.1
		c-2.1,0.6-4.2,1.2-6.4,1.8c-2.1,0.5-4.3,1.1-6.4,1.5c-8.6,1.9-17.3,3.2-26,4.2c-8.7,1-17.4,1.7-26.1,2.1
		c-8.7,0.4-17.4,0.9-26.2-0.2c-0.6-0.1-0.9-0.6-0.9-1.1c0.1-0.5,0.4-0.8,0.9-0.9c8.7-1.3,17.3-1.3,26-1.8c8.6-0.5,17.3-1.2,25.9-2.2
		c8.6-1,17.1-2.4,25.5-4.2c2.1-0.4,4.2-1,6.3-1.5c2.1-0.5,4.1-1.2,6.2-1.7c2-0.7,4.1-1.3,6.1-2c2-0.8,4.1-1.5,5.8-2.4
		c3.6-1.8,6.7-4.4,8.9-7.7c2.2-3.3,3.5-7.2,3.7-11.2c0.1-2,0.1-4-0.2-6.1c-0.3-2-0.8-4-1.5-5.9c-1.4-3.8-3.6-7.3-6.5-10.1
		c-1.4-1.4-3.1-2.5-4.8-3.4c-1.7-0.8-3.8-1.5-5.7-2.1c-3.9-1.1-8-1.2-12.2-0.7c-2.1,0.2-4.2,0.5-6.3,0.9l-6.4,1.1l-12.9,2.1
		c-0.2,0-0.3,0-0.5,0l0,0l0,0l1.4-0.5l0,0c-0.3,0.2-0.6,0.4-0.9,0.4l0,0c-5.9,0.9-11.8,1.8-17.7,2.5c-3,0.4-5.9,0.7-8.9,1l-4.5,0.4
		l-4.5,0.4c-0.1,0-0.2,0-0.3,0l0,0l0,0l0.3,0c-12.8,1-25.7,1.4-38.6,1.2l0,0l-0.1,0l-5.1-0.3c-1.1-0.1-1.9-1-1.8-2
		c0.1-1.1,1-1.9,2-1.8L536.7,348.2z"/>
</g>
<path fill="none" stroke="#30BBF2" stroke-width="4" stroke-linecap="round" stroke-linejoin="round" stroke-miterlimit="10" d="
	M621,401.9c15.3-10.5,10.1-51.5-9.4-56.4"/>
<g>
	<path fill="#30BBF2" d="M488.5,432.4c1.4,7,1.9,14.1,2.4,21.1c0.1,1.7,0.2,3.7,0.5,5.1c0.3,1.5,0.9,2.9,1.7,4.1
		c0.8,1.2,1.9,2.2,3.1,2.8c0.6,0.3,1.3,0.4,1.9,0.5l0.5,0c0.2,0,0.4,0,0.6,0l1.3,0l21.3,0.2l2.7,0c0.5,0,0.8,0,1.1,0
		c0.3-0.1,0.6-0.1,0.9-0.2c0.6-0.2,1.2-0.4,1.8-0.8c0.6-0.4,1.1-0.8,1.6-1.4c1-1.1,1.7-2.4,2.1-3.8c0.2-0.7,0.4-1.4,0.5-2.2l0.3-2.6
		c1.8-14,3-28.1,3.5-42.3c0.6-14.1,0.6-28.3-0.2-42.4c-0.1-1.1,0.8-2,1.9-2.1c1.1-0.1,2,0.8,2.1,1.9c0.9,14.2,1.1,28.5,0.6,42.8
		c-0.5,14.3-1.7,28.5-3.5,42.6l-0.3,2.7c-0.1,1-0.3,2-0.7,3c-0.6,2-1.6,3.8-3.1,5.4c-0.7,0.8-1.5,1.5-2.5,2.1
		c-0.9,0.6-1.9,1.1-3,1.3c-0.5,0.2-1.1,0.2-1.7,0.3c-0.6,0-1.2,0.1-1.6,0l-2.7,0l-21.3-0.4l-1.3,0c-0.2,0-0.4,0-0.7,0l-0.8-0.1
		c-1.1-0.1-2.2-0.4-3.2-0.9c-2-1-3.6-2.5-4.8-4.2c-1.2-1.7-1.9-3.7-2.3-5.6c-0.2-1-0.3-2-0.3-2.9l-0.2-2.7
		c-0.4-7.1-0.8-14.2-0.4-21.4c0-0.6,0.5-1,1.1-0.9C488.1,431.6,488.4,431.9,488.5,432.4L488.5,432.4z"/>
</g>
<g>
	<path fill="#30BBF2" d="M486,413.6c-0.3-4-0.5-7.9-0.6-11.9c-0.1-4-0.1-7.9-0.1-11.9c0-4,0.2-7.9,0.4-11.9c0.2-4,0.4-7.9,0.8-11.9
		l2.3,2.3l0,0l0,0c-1.2,0.1-2.2-0.8-2.3-2c0-0.1,0-0.3,0-0.4l1.1-11.3l0.6-5.6l0.2-1.4c0.1-0.5,0.2-1,0.3-1.6c0.1-0.5,0.3-1,0.4-1.6
		c0.1-0.3,0.2-0.5,0.3-0.8l0.2-0.4l0.1-0.2l0.1-0.2c0.1-0.1,0.1-0.2,0.2-0.3l0,0l-0.3,0.7c0.2-0.7,0.3-0.6,0.3-0.8l0.2-0.5
		c0.2-0.3,0.3-0.6,0.5-1c0.4-0.6,0.8-1.2,1.3-1.8c1-1.2,2.2-2.1,3.6-2.8c1.4-0.7,3-1.1,4.6-1.1l3.8,0.1l15.2,0.2l7.6,0.1
		c3.2,0.1,6.2,1.8,8.1,4.1c1.9,2.3,3,5.1,3.3,8c0.3,2.5,0.5,5.1,0.8,7.6l0-0.1l0.1,0.6l0,0.5l0.1,0.9l0.1,1.9l0.3,3.7l0.6,7.5
		c0.1,1.1-0.7,2.1-1.8,2.1c-1.1,0.1-2.1-0.7-2.1-1.8l0-0.1l-1.1-14.7l0-0.1c-0.2-2.5-0.5-5-0.8-7.5c-0.3-2.2-1.1-4.3-2.4-5.9
		c-1.3-1.6-3.2-2.6-5.1-2.6l-7.6-0.1l-15.2-0.2l-3.8-0.1c-1,0-1.9,0.2-2.8,0.7c-0.9,0.4-1.7,1.1-2.4,1.9c-0.3,0.4-0.7,0.8-0.9,1.3
		c-0.1,0.2-0.3,0.5-0.4,0.7l-0.2,0.4c-0.1,0.1-0.1,0.4,0,0l-0.3,0.7l0,0c0-0.1,0.1-0.1,0.1-0.2l0-0.1l0,0l-0.1,0.1l-0.1,0.3
		c-0.1,0.2-0.1,0.4-0.2,0.6c-0.1,0.4-0.2,0.8-0.3,1.2c-0.1,0.4-0.1,0.8-0.2,1.2l-0.1,1.4l-0.5,5.6l-1.1,11.2l-2.3-2.3l0,0
		c1.2-0.1,2.2,0.8,2.3,2c0,0.1,0,0.2,0,0.4c-0.3,3.9-0.6,7.8-0.9,11.8c-0.3,3.9-0.5,7.9-0.7,11.8l-0.6,11.8l-0.6,11.8
		c0,0.6-0.5,1-1.1,0.9C486.5,414.5,486.1,414.1,486,413.6L486,413.6z"/>
</g>
<path fill="none" stroke="#30BBF2" stroke-width="4" stroke-linecap="round" stroke-linejoin="round" stroke-miterlimit="10" d="
	M505.1,337.5l-3.5,0l0,0l-1.3,0l-18.8-0.3l-0.4,0l-41.9-0.6l-5-0.1c-4.6-0.1-8.6,3.9-9.7,9.6c-1.4,7.8-2.6,15.7-3.5,23.6"/>
<path fill="none" stroke="#30BBF2" stroke-width="4" stroke-linecap="round" stroke-linejoin="round" stroke-miterlimit="10" d="
	M420.2,433.6c0.7,7.8,1.6,15.7,2.8,23.6c0.9,5.7,4.8,9.9,9.4,9.9l70.9,1"/>
<path fill="#FFFFFF" d="M452.1,399.4c-0.4,11.6,1,23.3,4,34.9l-36.7-0.5c-5.1-0.1-9.5-4-10.3-9.4c-2.5-15.5-2.5-30.9,0.4-45.8
	c1-5.3,5.5-9.1,10.6-9l36.9,0.5c-1.6,5.2-2.8,10.4-3.6,15.6L452.1,399.4z"/>
<g>
	<path fill="#30BBF2" d="M453.1,399.4c0.2,5.8,0.7,11.6,1.6,17.4c0.4,2.9,1,5.7,1.6,8.5c0.6,2.8,1.2,5.7,1.8,8.5l0,0l0,0.1
		c0.2,1.1-0.4,2.1-1.5,2.4c-0.2,0-0.3,0-0.5,0l-18.7-0.3l-9.4-0.1l-4.7-0.1l-2.3,0c-0.8,0-1.5,0-2.5-0.1c-3.8-0.3-7.2-2.5-9.2-5.5
		c-1-1.5-1.7-3.3-2.1-5.1c-0.2-0.9-0.2-1.6-0.4-2.4c-0.1-0.8-0.2-1.6-0.3-2.4c-0.8-6.3-1.2-12.6-1.2-19c0.1-6.3,0.5-12.7,1.5-19
		c0.1-0.8,0.2-1.6,0.4-2.3l0.2-1.2c0.1-0.4,0.1-0.8,0.3-1.2c0.4-1.8,1.2-3.5,2.3-5c2.1-3,5.7-5,9.5-5.2l37.6,0.5l0,0l0.1,0
		c1.1,0,1.9,0.9,1.9,1.9c0,0.2,0,0.4-0.1,0.6c-1.8,4.9-3.4,10-4.5,15.2c-0.1,0.5-0.7,0.9-1.2,0.8c-0.5-0.1-0.8-0.6-0.8-1.1
		c0.5-5.4,1.4-10.8,2.7-16.1l1.9,2.6l0,0l-37.4-0.5c-2.5,0.1-4.9,1.4-6.4,3.5c-0.8,1-1.3,2.2-1.6,3.5c-0.1,0.3-0.1,0.7-0.2,1.1
		l-0.2,1.1c-0.1,0.8-0.3,1.5-0.4,2.3c-1,6.1-1.4,12.2-1.5,18.4c0,6.2,0.4,12.3,1.2,18.4c0.1,0.8,0.2,1.5,0.3,2.3
		c0.1,0.7,0.2,1.6,0.3,2.2c0.2,1.3,0.7,2.5,1.4,3.6c1.4,2.1,3.8,3.6,6.3,3.8l37.3,0.6l-2,2.5l0,0c-0.8-2.9-1.5-5.8-2-8.7
		c-0.5-2.9-0.9-5.9-1.1-8.9c-0.5-5.9-0.5-11.9,0.1-17.9c0.1-0.6,0.5-1,1.1-0.9C452.8,398.5,453.1,398.9,453.1,399.4z"/>
</g>
<path fill="none" stroke="#30BBF2" stroke-width="4" stroke-linecap="round" stroke-linejoin="round" stroke-miterlimit="10" d="
	M436.9,369.8l10,0.1l15.1,0.2c5.6,0.1,10,6.5,9.9,14.4l-0.5,35.6c-0.1,7.9-4.7,14.2-10.3,14.1l-15.1-0.2l-10-0.1"/>
<path fill="none" stroke="#30BBF2" stroke-width="4" stroke-linecap="round" stroke-linejoin="round" stroke-miterlimit="10" d="
	M580.5,406.5c0,0-5,8-5.3,19.8"/>
<line fill="none" stroke="#30BBF2" stroke-width="4" stroke-linecap="round" stroke-linejoin="round" stroke-miterlimit="10" x1="579.7" y1="446.1" x2="579.7" y2="446.1"/>
<path fill="none" stroke="#30BBF2" stroke-width="4" stroke-linecap="round" stroke-linejoin="round" stroke-miterlimit="10" d="
	M540.5,419.5c17.1,0.7,34.7,6.8,34.7,6.8c11.2,4.6,8.1,18.7,4.5,19.8l0,0c-11.5-4.6-27.1-8.3-42.5-8.9"/>
<g>
	<path fill="#99532C" d="M547.8,318.3c1.7,0.4,3.3,1.1,4.7,2c1.4,0.9,2.6,2,3.8,3c1.2,1,2.2,1.8,3.4,2.4c1.2,0.6,2.3,1,3.7,1.1
		c2.7,0.3,5.5-0.1,7.7-1.3c2.3-1.2,3.9-3.4,5-6l0,0c0.3-0.8,1.2-1.1,2-0.8c0.7,0.3,1.1,1,0.9,1.7c-0.4,1.6-1,3.3-2,4.8
		c-1,1.5-2.3,2.8-3.9,3.7c-1.5,1-3.3,1.5-5,1.9c-1.7,0.3-3.5,0.4-5.2,0.2c-1.7-0.2-3.5-0.7-5.1-1.5c-1.6-0.8-3-2-4.1-3
		c-2.3-2.2-4.3-3.9-6.8-5.3l0,0c-0.7-0.4-1-1.3-0.6-2.1C546.5,318.4,547.1,318.2,547.8,318.3z"/>
</g>
<path fill="none" stroke="#30BBF2" stroke-width="4" stroke-linecap="round" stroke-linejoin="round" stroke-miterlimit="10" d="
	M603.7,550.2c40.6,2.4,80.1-53,47.6-66.1"/>
<ellipse transform="matrix(0.9958 -9.116842e-02 9.116842e-02 0.9958 -20.4861 58.2847)" fill="#FFFFFF" cx="627.7" cy="253.4" rx="5.7" ry="10.4"/>
<path fill="none" stroke="#30BBF2" stroke-width="4" stroke-linecap="round" stroke-linejoin="round" stroke-miterlimit="10" d="
	M565,516.9c22.4-2.7,47-48,24.4-66.5"/>
<path opacity="0.25" fill="#CAF0FF" d="M641.7,291.1c-6.4,21.2-18.3,39.3-33.8,53c-8.7,1.3-18.1,2.6-28.6,3.4
	c-0.4,0-0.8,0.1-1.2,0.1l0,0c-10.8,0.9-22.7,1.4-36.1,1.2c0,0-1.5-0.1-2.8-0.2c-0.3-0.6-0.7-1.2-1.1-1.7c-0.2-0.2-0.4-0.4-0.6-0.6
	c-0.2-0.2-0.4-0.4-0.6-0.6c-0.9-5.1-4.6-8.8-8.8-8.8l-18.2-0.3l-5.5-0.1l-1.3,0l-17.7-0.3l-0.4,0l-39.5-0.6
	c-26.5-29.1-37.4-70.9-25.3-111.2c18.4-61.2,82.9-95.8,144.1-77.5C625.4,165.4,660.1,229.9,641.7,291.1z"/>
</svg>
