<svg width="118" height="42" viewBox="0 0 118 42" xmlns="http://www.w3.org/2000/svg" xmlns:xlink="http://www.w3.org/1999/xlink">
    <defs>
        <path id="b" d="M.03.02h24.666v12.898H.029z"/>
        <path id="d" d="M.03 0h12.335v27.755H.029z"/>
        <path id="f" d="M0 0h12.336v27.755H0z"/>
        <path id="h" d="M.03.015h12.335v17.378H.029z"/>
        <path id="j" d="M0 .015h12.34v17.378H0z"/>
        <filter id="a">
            <feColorMatrix in="SourceGraphic" values="0 0 0 0 1.000000 0 0 0 0 1.000000 0 0 0 0 1.000000 0 0 0 1.000000 0"/>
        </filter>
    </defs>
    <g filter="url(#a)" transform="translate(-733 -312)" fill="none" fill-rule="evenodd">
        <path d="M770.865 335.39c0 .193-.16.35-.353.35h-6.808c.171 1.682 1.436 3.216 3.216 3.216a3.18 3.18 0 0 0 2.8-1.435c.1-.134.247-.22.434-.139a.328.328 0 0 1 .192.247c.019.111-.014.174-.043.237-.684 1.194-2.048 1.782-3.385 1.782-2.29 0-3.92-2.049-3.92-4.24 0-2.191 1.632-4.24 3.92-4.24 2.288 0 3.944 2.039 3.949 4.227m-.713-.33c-.148-1.683-1.436-3.217-3.216-3.217-1.781 0-3.047 1.534-3.217 3.216h6.433zm8.99-3.732c.196 0 .339.171.339.34 0 .196-.148.339-.34.339h-1.824v7.16c0 .172-.148.34-.34.34a.35.35 0 0 1-.339-.34v-7.16h-1.753a.331.331 0 0 1-.34-.34c0-.17.149-.339.34-.339h1.753v-2.626c0-.165.112-.317.285-.345.229-.035.407.122.407.335v2.63l1.812.006zm11.12 3.462v4.338c0 .197-.172.34-.34.34a.331.331 0 0 1-.34-.34v-4.324c0-1.463-.826-2.925-2.46-2.925-2.093 0-2.996 1.829-2.875 3.703 0 .05.023.268.023.291v3.256a.342.342 0 0 1-.285.345c-.229.036-.407-.12-.407-.335v-14.249c0-.17.148-.339.34-.339a.35.35 0 0 1 .339.34v8.064c.57-1.046 1.632-1.753 2.848-1.753 1.999 0 3.145 1.753 3.145 3.606m12.206.6c0 .192-.16.348-.353.348h-6.812c.171 1.683 1.436 3.217 3.216 3.217a3.18 3.18 0 0 0 2.8-1.436c.1-.134.247-.22.434-.138a.328.328 0 0 1 .192.246c.019.112-.014.174-.043.237-.684 1.195-2.048 1.782-3.386 1.782-2.29 0-3.92-2.049-3.92-4.24 0-2.191 1.632-4.24 3.92-4.24 2.289 0 3.95 2.04 3.954 4.227m-.735-.33c-.148-1.683-1.435-3.217-3.216-3.217-1.78 0-3.046 1.534-3.216 3.217h6.432zm9.104-3.413c0 .22-.12.339-.317.366-2 .29-2.899 1.925-2.899 3.824v3.256a.342.342 0 0 1-.285.345c-.228.035-.406-.121-.406-.335v-7.42c0-.166.111-.319.285-.346.228-.035.406.122.406.335v1.512c.56-.949 1.682-1.854 2.849-1.854.17-.004.366.121.366.314m11.181 3.744c0 .192-.161.349-.353.349h-6.808c.171 1.682 1.436 3.216 3.216 3.216a3.18 3.18 0 0 0 2.8-1.436c.1-.134.247-.22.434-.138a.328.328 0 0 1 .192.247c.019.11-.014.174-.043.236-.684 1.195-2.048 1.782-3.385 1.782-2.29 0-3.92-2.048-3.92-4.24 0-2.19 1.631-4.24 3.92-4.24 2.288 0 3.944 2.04 3.949 4.228m-.713-.33c-.149-1.683-1.436-3.217-3.216-3.217-1.781 0-3.047 1.534-3.217 3.216h6.433zm11.718-3.328v7.437c0 .197-.17.34-.339.34a.331.331 0 0 1-.34-.34v-1.426c-.558 1.122-1.56 1.925-2.826 1.925-2.022 0-3.145-1.753-3.145-3.607v-4.362c0-.171.148-.34.34-.34a.35.35 0 0 1 .338.34v4.362c0 1.463.827 2.926 2.461 2.926 2.29 0 2.827-2.143 2.827-4.508v-2.792c0-.196.197-.399.438-.327.148.05.246.192.246.345m17.222 3.032v4.362c0 .197-.171.34-.34.34a.331.331 0 0 1-.339-.34v-4.362c0-1.463-.827-2.898-2.46-2.898-2.05 0-2.828 2.19-2.828 3.896v3.364c0 .197-.17.34-.339.34a.331.331 0 0 1-.34-.34v-4.362c0-1.463-.826-2.898-2.46-2.898-2.071 0-2.925 1.632-2.848 3.802 0 .05.023.148 0 .17v3.28a.343.343 0 0 1-.278.345c-.228.035-.406-.121-.406-.335v-7.456c0-.166.11-.318.285-.345.228-.036.406.12.406.335v1.243c.57-1.047 1.632-1.73 2.848-1.73 1.388 0 2.461.876 2.899 2.169.559-1.266 1.653-2.17 3.068-2.17 1.998 0 3.145 1.71 3.145 3.564" fill="#3C3C3B" fill-rule="nonzero"/>
        <g transform="translate(733.154 326.854)" opacity=".6">
            <mask id="c" fill="#fff">
                <use xlink:href="#b"/>
            </mask>
            <path fill="#010101" fill-rule="nonzero" mask="url(#c)" d="M12.365.02.029 5.63l12.336 7.288 12.33-7.288z"/>
        </g>
        <g transform="translate(733.154 312.016)" opacity=".45">
            <mask id="e" fill="#fff">
                <use xlink:href="#d"/>
            </mask>
            <path fill="#010101" fill-rule="nonzero" mask="url(#e)" d="m.03 20.467 12.335 7.288V0z"/>
        </g>
        <g transform="translate(745.519 312.016)" opacity=".8">
            <mask id="g" fill="#fff">
                <use xlink:href="#f"/>
            </mask>
            <path fill="#010101" fill-rule="nonzero" mask="url(#g)" d="M0 0v27.755l12.33-7.288z"/>
        </g>
        <g transform="translate(733.154 334.806)" opacity=".45">
            <mask id="i" fill="#fff">
                <use xlink:href="#h"/>
            </mask>
            <path fill="#010101" fill-rule="nonzero" mask="url(#i)" d="m.03.015 12.335 17.378V7.303z"/>
        </g>
        <g transform="translate(745.519 334.806)" opacity=".8">
            <mask id="k" fill="#fff">
                <use xlink:href="#j"/>
            </mask>
            <path fill="#010101" fill-rule="nonzero" mask="url(#k)" d="M0 7.303v10.09L12.34.015z"/>
        </g>
    </g>
</svg>
