<?xml version="1.0" encoding="UTF-8"?>
<svg width="60px" height="61px" viewBox="0 0 60 61" version="1.1" xmlns="http://www.w3.org/2000/svg" xmlns:xlink="http://www.w3.org/1999/xlink">
    <title>Group 28</title>
    <defs>
        <rect id="path-1" x="0" y="0" width="60" height="60" rx="30"></rect>
        <polygon id="path-3" points="-3.11558151e-15 0 99 0 99 21 -3.11558151e-15 21"></polygon>
        <polygon id="path-5" points="0 0 131 0 131 24 0 24"></polygon>
        <rect id="path-7" x="0" y="0" width="55" height="50"></rect>
    </defs>
    <g id="Stream" stroke="none" stroke-width="1" fill="none" fill-rule="evenodd">
        <g id="wallfair-2.0-events" transform="translate(-337.000000, -225.000000)">
            <g id="Group-28" transform="translate(337.000000, 225.500000)">
                <g id="Group-15" transform="translate(0.000000, 0.000000)">
                    <mask id="mask-2" fill="white">
                        <use xlink:href="#path-1"></use>
                    </mask>
                    <use id="Mask" fill="#FFFFFF" xlink:href="#path-1"></use>
                    <g mask="url(#mask-2)">
                        <g transform="translate(-45.000000, -4.500000)">
                            <g id="Group-3" stroke-width="1" fill="none" transform="translate(14.000000, 0.000000)">
                                <mask id="mask-4" fill="white">
                                    <use xlink:href="#path-3"></use>
                                </mask>
                                <g id="Clip-2"></g>
                                <path d="M18.6916656,17.6017172 C16.0450056,15.9876004 2.34077932,21.1470292 1.46382108,20.996776 C0.492151358,20.5813702 -0.378668168,9.19858759 0.170307686,7.21546668 C0.355345874,6.54595622 0.678066504,6.35924456 1.50942291,6.4177991 C1.843544,6.48077286 3.07830119,6.13055039 4.7515375,5.72508779 C8.4891335,4.81804474 11.4488675,3.94635538 18.7600683,2.44934767 C19.0073706,2.77195007 19.5274068,1.48927409 19.6896441,1.90357512 C19.7484003,2.02178901 20.2061725,2.03725625 20.9656183,1.99637855 C23.6684036,1.84943978 26.514133,1.45613001 28.3890697,1.2915144 C34.8040192,0.730274609 41.9950768,0.0110480274 48.4486124,-5.60599532e-06 C49.801759,-0.00220960547 48.7257312,0.64962401 50.3191643,0.438606687 C54.3470335,-0.0983274436 61.4398717,1.05729622 63.6638378,0.720331385 C65.7422288,0.405462605 66.1929853,0.420929843 68.1293091,1.12026998 C70.1164964,1.68924339 80.7978477,2.88243034 82.1062694,2.51011182 C82.4289901,2.35543944 82.6464757,2.48249175 82.6175361,2.73549158 C82.8358987,2.81282777 90.051511,4.65563874 90.0567728,4.94620186 C90.0760659,5.21024971 90.283028,5.38812295 90.5198067,5.26990906 C90.9495163,5.0025468 99.0087624,6.48187766 99,7.24529635 C98.9745611,9.42396735 96.2200352,17.8768131 94.987032,19.7715498 C94.3310672,20.7769203 92.929688,20.268711 91.1547245,19.5439604 C89.3823919,18.8203146 87.2057816,18.0016558 85.1475606,18.1773194 C83.9803292,17.8834419 78.2222214,16.6703685 75.9307295,16.3024692 C65.7492444,14.6684659 66.8147487,14.8629112 62.5843022,15.3479196 C62.1633622,14.5380992 60.3340273,16.2516483 59.3097401,14.8021471 C58.892308,14.2110776 55.6914105,13.9293529 54.9714277,14.4519246 C54.8144522,14.5657193 53.6822991,14.4563438 52.0406333,14.3878461 C51.1627981,14.3502828 38.0171942,13.4819078 36.3807901,15.0971294 C33.1009663,13.7415364 21.9741203,16.7079318 18.6916656,17.6017172" id="Fill-1" fill="#F1FF54" style="mix-blend-mode: multiply;" mask="url(#mask-4)"></path>
                            </g>
                            <path d="M90.0128583,7.64647978 C91.9016806,8.66498513 109.657484,6.36923678 111.70983,7.17505103 C112.762673,7.84491839 110.674475,19.3576469 109.836747,20.8497737 C109.221131,21.9461196 109.204517,20.8837604 104.787646,21.0142255 C99.9536599,21.1578469 94.5302915,21.7630298 89.3246624,22.7267179 C89.0588282,22.4054885 88.4598267,23.6794425 88.2919314,23.2683127 C87.9718809,22.6576481 79.2824241,24.216652 78.7087818,24.3208048 C70.6550535,25.7723668 64.596831,27.3905734 56.6865133,29.4769197 C55.2043125,29.8672188 56.2763941,28.9188796 54.5642117,29.595325 C51.1870674,30.926289 42.7398345,32.5192796 39.9914233,33.9226024 C37.821901,35.0288154 37.3400765,35.1450281 35.0979745,35.3544301 C32.8138987,35.5693139 21.1233131,39.4152954 19.9454226,40.6377211 C19.6542292,40.9403126 19.3918927,40.9436016 19.3429233,40.6969238 C19.2082572,40.7210434 10.9656468,42.8611106 10.9096817,42.7262601 C10.796877,42.5004128 10.5214238,42.456559 10.3194247,42.6966587 C9.85071696,43.1691838 1.1673813,46.586494 0.889304692,45.9122413 C0.0891785964,43.9728054 -0.305200496,34.91041 0.279809732,32.4918709 C0.893676966,29.9593119 7.11717142,30.8133653 11.5104321,28.0670188 C38.2512583,20.1119328 31.2206421,22.65107 37.7825506,19.6065174 C38.4515085,20.2095076 40.1776821,17.8096064 41.677372,18.7886433 C42.2956115,19.193195 46.0487713,18.3139255 46.7841878,17.5486761 C47.1007404,17.2197723 52.1061194,16.1508351 57.2601557,15.0292732 C58.5630932,14.7464159 67.6338124,12.892495 68.6411842,11.818076 C71.882788,12.3234915 87.1603869,8.1244866 90.0128583,7.64647978" id="Fill-4" fill="#F1FF54" style="mix-blend-mode: multiply;"></path>
                            <g id="Group-8" stroke-width="1" fill="none" transform="translate(0.000000, 21.000000)">
                                <mask id="mask-6" fill="white">
                                    <use xlink:href="#path-5"></use>
                                </mask>
                                <g id="Clip-7"></g>
                                <path d="M24.4642999,18.7112395 C20.551561,17.2263052 2.54912413,24.0277108 1.50944851,24 C0.888434215,23.8620054 0.399123794,20.9915599 0.174965544,17.9083701 C-0.417265785,9.72893686 0.555249579,9.68296697 2.16622346,9.60706319 C2.16622346,9.60706319 16.0526962,5.77125005 24.9047665,3.957043 C25.224868,4.25531275 25.93572,2.96815583 26.1406896,3.3605035 C26.2156998,3.47061742 26.8175255,3.46954835 27.8188238,3.35943443 C37.2011985,2.3138867 54.6872864,0.100917576 64.1019328,0.000425258831 C65.8882212,-0.0188179509 64.4804725,0.622622374 66.5798845,0.379944118 C70.8511022,-0.116103067 76.0145919,0.307247548 80.6355662,0.343595833 C86.8805976,0.391703857 85.5417536,-0.528763009 90.0868456,0.521060989 C91.7928905,0.915546789 106.786199,2.00706441 108.512305,1.52063883 C108.923116,1.36241688 109.217924,1.48215241 109.197863,1.72803787 C109.415043,1.78042216 119.075653,3.40754245 119.108797,3.67480925 C119.158513,3.93245445 119.445471,4.100298 119.742895,3.97842434 C120.012408,3.91214217 122.806972,4.03936117 125.540482,4.4231563 C128.273119,4.80588236 130.949063,5.26878846 130.98744,5.64082385 C131.205493,7.77361293 128.618515,16.1005774 127.189833,17.9842738 C126.436243,18.9795754 124.502551,18.5017024 122.045532,17.8527786 C114.770419,15.9316648 117.674882,17.1835425 109.954942,16.1240969 C88.5334376,13.1852311 86.9250804,14.1067671 83.3568648,14.4477995 C82.7602724,13.6684495 80.349481,15.3532994 78.9347546,14.025518 C78.3442677,13.4728102 74.0495003,13.2536514 73.0961736,13.7764253 C72.2239625,14.1399082 51.0798213,13.0131113 48.1509365,15.1106212 C43.2456213,13.7464914 25.336511,18.5059786 24.4642999,18.7112395" id="Fill-6" fill="#F1FF54" style="mix-blend-mode: multiply;" mask="url(#mask-6)"></path>
                            </g>
                            <path d="M107.972256,26 C110.116585,27.3376277 125.952899,25.6968334 127.746196,26.5096242 C128.684015,27.1985405 126.784975,38.4070135 125.909561,40.0239023 C125.594933,40.60633 125.243034,40.6921729 124.455162,40.3661872 C122.457313,39.5370971 110.116585,40.5183139 106.780481,40.8703783 C106.546459,40.5302667 105.944938,41.7396734 105.806258,41.3202385 C105.121529,39.6979167 79.3497085,44.2128178 76.4617114,44.7420011 C75.0844523,44.9930101 76.1063456,44.1628333 74.5071995,44.6778906 C71.1086891,45.7721158 63.4934602,46.5327489 60.9590954,47.6791318 C58.9326436,48.5951514 58.484536,48.6494824 56.4164805,48.6799077 C54.020795,48.7146795 43.4404286,51.6289911 42.3708642,52.7286494 C42.098706,53.0079104 41.8594842,52.9937844 41.8178804,52.7471219 C41.7182046,52.7579881 34.1003754,54.3238058 34.0605051,54.2151439 C33.9582291,53.9858673 33.7060061,53.9271899 33.5196557,54.15212 C33.1564892,54.477019 25.2162306,57.5782291 24.9484062,56.9045254 C24.1787359,54.9714306 23.6812238,46.0350775 24.2368078,43.6586422 C24.8235948,41.142033 30.7252672,42.2036596 34.7816377,39.77398 C60.370575,33.4346459 51.4829632,36.5249897 59.3798845,33.3640156 C59.9753389,34.0029475 61.6550923,31.7960247 63.0115495,32.8956829 C63.5680003,33.3455431 67.0583858,32.7761549 67.7734511,32.0959315 C68.6280625,31.2842272 86.59137,29.9715917 88.1619134,28.3590494 C90.475258,28.9523433 96.1281744,27.9244019 107.972256,26" id="Fill-9" fill="#F1FF54" style="mix-blend-mode: multiply;"></path>
                            <path d="M38.7785155,56.3734926 C36.948082,54.6331755 26.771785,57.8993991 25.8934579,57.5293505 C25.1705948,56.9906031 24.7402145,45.684528 25.1732298,43.9278852 C25.3260587,43.3064212 25.5667203,43.173639 26.1859408,43.3543098 C26.5293667,43.4827385 38.664333,41.5856949 39.1368729,41.525834 C39.3151733,41.8697616 39.7315004,40.6681918 39.8430479,41.091571 C39.926489,41.338633 41.2070898,41.3397213 43.1077895,41.3179538 C43.9861165,41.3059816 52.3811663,40.8205648 61.3919233,41.3059816 C62.4046344,41.3604005 61.5658321,41.9350643 62.7708968,41.8262265 C65.7861935,41.5530435 70.6345587,42.9929682 72.7671367,42.7720273 C76.1012662,42.4280998 73.8351824,43.1725506 81.4924375,44.6853966 C83.7989243,45.1414272 86.0518331,45.5158294 86.5770727,45.3101258 C86.8388141,45.1751669 86.9925214,45.3101258 86.9442134,45.5560994 C86.9442134,45.5560994 92.4170691,47.7589773 92.395111,48.0278068 C92.3749094,48.2846641 92.5171984,48.4675117 92.712187,48.3652041 C93.2690464,48.1486168 99.1116778,49.9433528 98.9983736,50.662771 C98.6698793,52.7470157 95.3945978,60.7291831 94.2281795,62.4999748 C92.996765,64.3698089 90.348609,60.3732833 87.2006849,60.648643 C86.7386849,60.4886514 83.5371828,59.3785054 83.0707912,59.2413697 C72.9884751,56.2613896 74.1425969,56.8208161 70.9744713,57.0657013 C70.7250264,56.2287382 69.2784218,57.8896037 68.6161632,56.4268231 C68.3500301,55.8412755 66.037395,55.3362679 65.4708741,55.8499826 C65.2319691,56.0665699 62.1692427,55.4298685 58.9721323,55.0750571 C57.8654403,54.9520703 52.6306112,54.4394441 51.8480218,55.4037474 C49.3764095,53.9083154 40.9532533,55.9054899 38.7785155,56.3734926" id="Fill-11" fill="#F1FF54" style="mix-blend-mode: multiply;"></path>
                            <path d="M87.2279388,48 C88.2371903,49.537485 97.0172413,49.6313525 97.9705688,50.8138673 C98.3594147,51.5960965 94.7732951,62.7997766 94.4001779,63.5981899 C94.1528894,64.12579 93.9938559,64.1646317 93.7124888,63.7816091 C92.907709,62.6897251 87.3520199,62.5570158 85.7337223,62.5915418 C85.642846,62.2333348 85.305555,63.373771 85.2566216,62.9454331 C85.0809856,61.3798957 72.9734631,63.2140884 71.0737984,63.4946119 C70.396595,63.596032 70.8728219,62.8720654 70.0925088,63.2227198 C68.60004,63.8927396 64.590996,63.8884239 63.3973704,64.6965476 C62.4152071,65.3600937 62.1967544,65.3946197 61.1368219,65.1594115 C60.0934918,64.9295979 54.6706219,66.4282412 54.148083,67.3399428 C54.0274971,67.5805457 53.8972993,67.5287568 53.8588516,67.2827592 C53.8588516,67.2827592 49.9301983,67.7672018 49.8908768,67.6237032 C49.8262148,67.3841792 49.6846574,67.2935485 49.6016454,67.4845204 C49.4478547,67.7747544 45.4248297,69.5377372 45.2369604,68.8364282 C44.7048096,66.8447108 43.8843013,58.078349 44.0136253,55.8730021 C44.1499398,53.5273934 47.2694443,55.5018478 49.2608592,53.7064969 C50.13467,53.5284724 57.464195,52.0244344 59.6137696,51.6975165 L61.750237,50.4977388 C62.0953923,51.1904162 62.8573553,49.2148829 63.6324255,50.4383973 C63.9461236,50.9357871 65.7339405,50.7458943 66.0887077,50.1611105 C66.2669651,49.8665607 72.6938436,49.4954065 72.9961821,49.4630384 C73.7432904,49.3864338 76.2353988,49.2181197 76.6705566,48.4682586 C78.1455492,49.4457754 82.6316939,48.4294169 87.2279388,48" id="Fill-13" fill="#F1FF54" style="mix-blend-mode: multiply;"></path>
                        </g>
                    </g>
                </g>
                <g id="tribune" transform="translate(0.000000, 7.500000)">
                    <mask id="mask-8" fill="white">
                        <use xlink:href="#path-7"></use>
                    </mask>
                    <g id="Mask"></g>
                    <circle id="Oval" fill="#FFFFFF" mask="url(#mask-8)" cx="30.5" cy="24.5" r="8.5"></circle>
                    <g mask="url(#mask-8)" fill="#000000" fill-rule="nonzero" id="Shape">
                        <g transform="translate(8.000000, 2.000000)">
                            <path d="M43.9285714,17.3444416 L38.5714286,17.3444416 L38.5714286,12.518313 C38.5714286,11.0705612 38.0142857,9.70952698 37.0024286,8.68596917 L35.3114286,6.97517364 C35.5144286,6.54375313 35.625,6.06940736 35.625,5.57612822 C35.625,4.70591619 35.2917143,3.88918006 34.6861429,3.2766641 L32.3871429,0.950751089 C31.134,-0.31691703 29.0947143,-0.31691703 27.8415714,0.950751089 C26.5884286,2.21870827 26.5884286,4.28186668 27.8415714,5.54982385 L30.1404286,7.87559234 C30.7458571,8.48796377 31.553,8.82529559 32.4132857,8.82529559 C32.9008571,8.82529559 33.3697143,8.71342977 33.7961429,8.50805337 L35.4871429,10.2189934 C36.0942857,10.8330992 36.4285714,11.6496908 36.4285714,12.518313 L36.4285714,17.3445861 L30.5134286,17.3445861 C28.7814286,14.7320711 25.8362857,13.0087016 22.5,13.0087016 C19.1637143,13.0087016 16.2185714,14.7320711 14.4865714,17.3445861 L8.57142857,17.3445861 L8.57142857,12.518313 C8.57142857,11.6496908 8.90571429,10.8330992 9.51285714,10.2189934 L11.2038571,8.50805337 C11.6302857,8.71342977 12.0991429,8.82529559 12.5867143,8.82529559 C13.447,8.82529559 14.2541429,8.48796377 14.8595714,7.87559234 L17.1585714,5.54967933 C18.4117143,4.28186668 18.4117143,2.21870827 17.1585714,0.950895619 C15.9052857,-0.31691703 13.8661429,-0.31691703 12.6128571,0.950751089 L10.3137143,3.2766641 C9.70828571,3.88903553 9.375,4.70577166 9.375,5.57598369 C9.375,6.06926283 9.48557143,6.54375313 9.68857143,6.97502911 L7.99757143,8.68568011 C6.98571429,9.70938245 6.42857143,11.0704166 6.42857143,12.5181685 L6.42857143,17.3444416 L1.07142857,17.3444416 C0.479714286,17.3444416 0,17.8296271 0,18.4284127 L0,35.771951 C0,36.0594202 0.112857143,36.3350379 0.313857143,36.5385354 L4.34471429,40.6165794 L6.37714286,67.6211911 C3.97228571,68.1537823 2.16671429,70.3254824 2.16671429,72.9160289 C2.16671429,73.5148145 2.64642857,74 3.23814286,74 L41.8095714,74 C42.4012857,74 42.881,73.5148145 42.881,72.9160289 C42.881,70.3256269 41.0751429,68.1552276 38.6704286,67.6224919 L40.7068571,40.5644042 L44.6861429,36.5385354 C44.8871429,36.3351824 45,36.0595647 45,35.771951 L45,18.4284127 C45,17.8297716 44.5202857,17.3444416 43.9285714,17.3444416 Z M33.1708571,6.34256808 C32.9701429,6.54548748 32.7011429,6.6573533 32.4132857,6.6573533 C32.1254286,6.6573533 31.8564286,6.54563201 31.6555714,6.34242355 L29.3567143,4.0167996 C28.939,3.59405085 28.939,2.90623503 29.3567143,2.48363082 C29.7744286,2.06131566 30.4542857,2.06131566 30.8718571,2.48363082 L33.1708571,4.80954383 C33.3715714,5.01260776 33.4821429,5.28490131 33.4821429,5.57612822 C33.4821429,5.86735513 33.3715714,6.13950416 33.1708571,6.34256808 L33.1708571,6.34256808 Z M11.829,4.80954383 L14.1278571,2.48377534 C14.3367143,2.27247324 14.6111429,2.16682218 14.8855714,2.16682218 C15.1598571,2.16682218 15.4342857,2.27247324 15.6431429,2.48363082 C16.0608571,2.90637956 16.0608571,3.59419538 15.6431429,4.01665507 L13.3442857,6.34242355 C13.1435714,6.54548748 12.8744286,6.6573533 12.5865714,6.6573533 C12.2987143,6.6573533 12.0297143,6.54563201 11.829,6.34242355 C11.6282857,6.13950416 11.5178571,5.86735513 11.5178571,5.57598369 C11.5178571,5.28490131 11.6282857,5.01260776 11.829,4.80954383 Z M22.5,15.1764993 C26.6355714,15.1764993 30,18.5804578 30,22.7642973 C30,26.9481369 26.6355714,30.3520953 22.5,30.3520953 C18.3644286,30.3520953 15,26.9481369 15,22.7642973 C15,18.5804578 18.3644286,15.1764993 22.5,15.1764993 Z M40.5544286,71.8320577 L4.493,71.8320577 C4.93514286,70.5703153 6.12685714,69.6641154 7.52371429,69.6641154 C7.822,69.6641154 8.10685714,69.5383748 8.30957143,69.3169556 C8.51228571,69.095681 8.61471429,68.7988174 8.59214286,68.497907 L6.537,41.1918067 L38.5104286,41.1918067 L36.5307143,67.4961731 L11.8095714,67.4961731 C11.2178571,67.4961731 10.7381429,67.9813586 10.7381429,68.5801443 C10.7381429,69.1789299 11.2178571,69.6641154 11.8095714,69.6641154 L37.5238571,69.6641154 C38.9207143,69.6641154 40.1122857,70.5703153 40.5544286,71.8320577 L40.5544286,71.8320577 Z M39.199,39.0238645 L5.80085714,39.0238645 L3.658,36.8559222 L41.3418571,36.8559222 L39.199,39.0238645 Z M42.8571429,34.6879799 L2.14285714,34.6879799 L2.14285714,19.5123839 L13.41,19.5123839 C13.0531429,20.5301605 12.8571429,21.6242487 12.8571429,22.7642973 C12.8571429,28.1436848 17.1828571,32.5200376 22.5,32.5200376 C27.8171429,32.5200376 32.1428571,28.1436848 32.1428571,22.7642973 C32.1428571,21.6242487 31.9467143,20.5301605 31.59,19.5123839 L42.8571429,19.5123839 L42.8571429,34.6879799 Z"></path>
                            <path d="M22.5,28.184153 C25.454,28.184153 27.8571429,25.752878 27.8571429,22.7642973 C27.8571429,19.7757166 25.454,17.3444416 22.5,17.3444416 C19.546,17.3444416 17.1428571,19.7757166 17.1428571,22.7642973 C17.1428571,25.752878 19.546,28.184153 22.5,28.184153 Z M22.5,19.5123839 C24.2724286,19.5123839 25.7142857,20.9712645 25.7142857,22.7642973 C25.7142857,24.5573301 24.2724286,26.0162107 22.5,26.0162107 C20.7275714,26.0162107 19.2857143,24.5573301 19.2857143,22.7642973 C19.2857143,20.9712645 20.7275714,19.5123839 22.5,19.5123839 Z"></path>
                        </g>
                    </g>
                </g>
            </g>
        </g>
    </g>
</svg>