<?xml version="1.0" encoding="UTF-8"?>
<svg width="78px" height="79px" viewBox="0 0 78 79" version="1.1" xmlns="http://www.w3.org/2000/svg" xmlns:xlink="http://www.w3.org/1999/xlink">
    <title>Group 13</title>
    <defs>
        <filter x="-20.0%" y="-20.0%" width="140.0%" height="140.0%" filterUnits="objectBoundingBox" id="filter-1">
            <feOffset dx="0" dy="2" in="SourceAlpha" result="shadowOffsetOuter1"></feOffset>
            <feGaussianBlur stdDeviation="2" in="shadowOffsetOuter1" result="shadowBlurOuter1"></feGaussianBlur>
            <feColorMatrix values="0 0 0 0 0   0 0 0 0 0   0 0 0 0 0  0 0 0 0.5 0" type="matrix" in="shadowBlurOuter1" result="shadowMatrixOuter1"></feColorMatrix>
            <feMerge>
                <feMergeNode in="shadowMatrixOuter1"></feMergeNode>
                <feMergeNode in="SourceGraphic"></feMergeNode>
            </feMerge>
        </filter>
        <rect id="path-2" x="0" y="0" width="60" height="60" rx="30"></rect>
        <polygon id="path-4" points="-3.11558151e-15 0 99 0 99 21 -3.11558151e-15 21"></polygon>
        <polygon id="path-6" points="0 0 131 0 131 24 0 24"></polygon>
    </defs>
    <g id="Stream" stroke="none" stroke-width="1" fill="none" fill-rule="evenodd">
        <g id="wallfair-2.0-events" transform="translate(-167.000000, -216.000000)">
            <g id="Group-13" transform="translate(176.000000, 225.500000)" filter="url(#filter-1)">
                <g id="Group-15">
                    <mask id="mask-3" fill="white">
                        <use xlink:href="#path-2"></use>
                    </mask>
                    <use id="Mask" fill="#FFFFFF" xlink:href="#path-2"></use>
                    <g mask="url(#mask-3)">
                        <g transform="translate(-45.000000, -4.500000)">
                            <g id="Group-3" stroke-width="1" fill="none" transform="translate(14.000000, 0.000000)">
                                <mask id="mask-5" fill="white">
                                    <use xlink:href="#path-4"></use>
                                </mask>
                                <g id="Clip-2"></g>
                                <path d="M18.6916656,17.6017172 C16.0450056,15.9876004 2.34077932,21.1470292 1.46382108,20.996776 C0.492151358,20.5813702 -0.378668168,9.19858759 0.170307686,7.21546668 C0.355345874,6.54595622 0.678066504,6.35924456 1.50942291,6.4177991 C1.843544,6.48077286 3.07830119,6.13055039 4.7515375,5.72508779 C8.4891335,4.81804474 11.4488675,3.94635538 18.7600683,2.44934767 C19.0073706,2.77195007 19.5274068,1.48927409 19.6896441,1.90357512 C19.7484003,2.02178901 20.2061725,2.03725625 20.9656183,1.99637855 C23.6684036,1.84943978 26.514133,1.45613001 28.3890697,1.2915144 C34.8040192,0.730274609 41.9950768,0.0110480274 48.4486124,-5.60599532e-06 C49.801759,-0.00220960547 48.7257312,0.64962401 50.3191643,0.438606687 C54.3470335,-0.0983274436 61.4398717,1.05729622 63.6638378,0.720331385 C65.7422288,0.405462605 66.1929853,0.420929843 68.1293091,1.12026998 C70.1164964,1.68924339 80.7978477,2.88243034 82.1062694,2.51011182 C82.4289901,2.35543944 82.6464757,2.48249175 82.6175361,2.73549158 C82.8358987,2.81282777 90.051511,4.65563874 90.0567728,4.94620186 C90.0760659,5.21024971 90.283028,5.38812295 90.5198067,5.26990906 C90.9495163,5.0025468 99.0087624,6.48187766 99,7.24529635 C98.9745611,9.42396735 96.2200352,17.8768131 94.987032,19.7715498 C94.3310672,20.7769203 92.929688,20.268711 91.1547245,19.5439604 C89.3823919,18.8203146 87.2057816,18.0016558 85.1475606,18.1773194 C83.9803292,17.8834419 78.2222214,16.6703685 75.9307295,16.3024692 C65.7492444,14.6684659 66.8147487,14.8629112 62.5843022,15.3479196 C62.1633622,14.5380992 60.3340273,16.2516483 59.3097401,14.8021471 C58.892308,14.2110776 55.6914105,13.9293529 54.9714277,14.4519246 C54.8144522,14.5657193 53.6822991,14.4563438 52.0406333,14.3878461 C51.1627981,14.3502828 38.0171942,13.4819078 36.3807901,15.0971294 C33.1009663,13.7415364 21.9741203,16.7079318 18.6916656,17.6017172" id="Fill-1" fill="#F1FF54" style="mix-blend-mode: multiply;" mask="url(#mask-5)"></path>
                            </g>
                            <path d="M90.0128583,7.64647978 C91.9016806,8.66498513 109.657484,6.36923678 111.70983,7.17505103 C112.762673,7.84491839 110.674475,19.3576469 109.836747,20.8497737 C109.221131,21.9461196 109.204517,20.8837604 104.787646,21.0142255 C99.9536599,21.1578469 94.5302915,21.7630298 89.3246624,22.7267179 C89.0588282,22.4054885 88.4598267,23.6794425 88.2919314,23.2683127 C87.9718809,22.6576481 79.2824241,24.216652 78.7087818,24.3208048 C70.6550535,25.7723668 64.596831,27.3905734 56.6865133,29.4769197 C55.2043125,29.8672188 56.2763941,28.9188796 54.5642117,29.595325 C51.1870674,30.926289 42.7398345,32.5192796 39.9914233,33.9226024 C37.821901,35.0288154 37.3400765,35.1450281 35.0979745,35.3544301 C32.8138987,35.5693139 21.1233131,39.4152954 19.9454226,40.6377211 C19.6542292,40.9403126 19.3918927,40.9436016 19.3429233,40.6969238 C19.2082572,40.7210434 10.9656468,42.8611106 10.9096817,42.7262601 C10.796877,42.5004128 10.5214238,42.456559 10.3194247,42.6966587 C9.85071696,43.1691838 1.1673813,46.586494 0.889304692,45.9122413 C0.0891785964,43.9728054 -0.305200496,34.91041 0.279809732,32.4918709 C0.893676966,29.9593119 7.11717142,30.8133653 11.5104321,28.0670188 C38.2512583,20.1119328 31.2206421,22.65107 37.7825506,19.6065174 C38.4515085,20.2095076 40.1776821,17.8096064 41.677372,18.7886433 C42.2956115,19.193195 46.0487713,18.3139255 46.7841878,17.5486761 C47.1007404,17.2197723 52.1061194,16.1508351 57.2601557,15.0292732 C58.5630932,14.7464159 67.6338124,12.892495 68.6411842,11.818076 C71.882788,12.3234915 87.1603869,8.1244866 90.0128583,7.64647978" id="Fill-4" fill="#F1FF54" style="mix-blend-mode: multiply;"></path>
                            <g id="Group-8" stroke-width="1" fill="none" transform="translate(0.000000, 21.000000)">
                                <mask id="mask-7" fill="white">
                                    <use xlink:href="#path-6"></use>
                                </mask>
                                <g id="Clip-7"></g>
                                <path d="M24.4642999,18.7112395 C20.551561,17.2263052 2.54912413,24.0277108 1.50944851,24 C0.888434215,23.8620054 0.399123794,20.9915599 0.174965544,17.9083701 C-0.417265785,9.72893686 0.555249579,9.68296697 2.16622346,9.60706319 C2.16622346,9.60706319 16.0526962,5.77125005 24.9047665,3.957043 C25.224868,4.25531275 25.93572,2.96815583 26.1406896,3.3605035 C26.2156998,3.47061742 26.8175255,3.46954835 27.8188238,3.35943443 C37.2011985,2.3138867 54.6872864,0.100917576 64.1019328,0.000425258831 C65.8882212,-0.0188179509 64.4804725,0.622622374 66.5798845,0.379944118 C70.8511022,-0.116103067 76.0145919,0.307247548 80.6355662,0.343595833 C86.8805976,0.391703857 85.5417536,-0.528763009 90.0868456,0.521060989 C91.7928905,0.915546789 106.786199,2.00706441 108.512305,1.52063883 C108.923116,1.36241688 109.217924,1.48215241 109.197863,1.72803787 C109.415043,1.78042216 119.075653,3.40754245 119.108797,3.67480925 C119.158513,3.93245445 119.445471,4.100298 119.742895,3.97842434 C120.012408,3.91214217 122.806972,4.03936117 125.540482,4.4231563 C128.273119,4.80588236 130.949063,5.26878846 130.98744,5.64082385 C131.205493,7.77361293 128.618515,16.1005774 127.189833,17.9842738 C126.436243,18.9795754 124.502551,18.5017024 122.045532,17.8527786 C114.770419,15.9316648 117.674882,17.1835425 109.954942,16.1240969 C88.5334376,13.1852311 86.9250804,14.1067671 83.3568648,14.4477995 C82.7602724,13.6684495 80.349481,15.3532994 78.9347546,14.025518 C78.3442677,13.4728102 74.0495003,13.2536514 73.0961736,13.7764253 C72.2239625,14.1399082 51.0798213,13.0131113 48.1509365,15.1106212 C43.2456213,13.7464914 25.336511,18.5059786 24.4642999,18.7112395" id="Fill-6" fill="#F1FF54" style="mix-blend-mode: multiply;" mask="url(#mask-7)"></path>
                            </g>
                            <path d="M107.972256,26 C110.116585,27.3376277 125.952899,25.6968334 127.746196,26.5096242 C128.684015,27.1985405 126.784975,38.4070135 125.909561,40.0239023 C125.594933,40.60633 125.243034,40.6921729 124.455162,40.3661872 C122.457313,39.5370971 110.116585,40.5183139 106.780481,40.8703783 C106.546459,40.5302667 105.944938,41.7396734 105.806258,41.3202385 C105.121529,39.6979167 79.3497085,44.2128178 76.4617114,44.7420011 C75.0844523,44.9930101 76.1063456,44.1628333 74.5071995,44.6778906 C71.1086891,45.7721158 63.4934602,46.5327489 60.9590954,47.6791318 C58.9326436,48.5951514 58.484536,48.6494824 56.4164805,48.6799077 C54.020795,48.7146795 43.4404286,51.6289911 42.3708642,52.7286494 C42.098706,53.0079104 41.8594842,52.9937844 41.8178804,52.7471219 C41.7182046,52.7579881 34.1003754,54.3238058 34.0605051,54.2151439 C33.9582291,53.9858673 33.7060061,53.9271899 33.5196557,54.15212 C33.1564892,54.477019 25.2162306,57.5782291 24.9484062,56.9045254 C24.1787359,54.9714306 23.6812238,46.0350775 24.2368078,43.6586422 C24.8235948,41.142033 30.7252672,42.2036596 34.7816377,39.77398 C60.370575,33.4346459 51.4829632,36.5249897 59.3798845,33.3640156 C59.9753389,34.0029475 61.6550923,31.7960247 63.0115495,32.8956829 C63.5680003,33.3455431 67.0583858,32.7761549 67.7734511,32.0959315 C68.6280625,31.2842272 86.59137,29.9715917 88.1619134,28.3590494 C90.475258,28.9523433 96.1281744,27.9244019 107.972256,26" id="Fill-9" fill="#F1FF54" style="mix-blend-mode: multiply;"></path>
                            <path d="M38.7785155,56.3734926 C36.948082,54.6331755 26.771785,57.8993991 25.8934579,57.5293505 C25.1705948,56.9906031 24.7402145,45.684528 25.1732298,43.9278852 C25.3260587,43.3064212 25.5667203,43.173639 26.1859408,43.3543098 C26.5293667,43.4827385 38.664333,41.5856949 39.1368729,41.525834 C39.3151733,41.8697616 39.7315004,40.6681918 39.8430479,41.091571 C39.926489,41.338633 41.2070898,41.3397213 43.1077895,41.3179538 C43.9861165,41.3059816 52.3811663,40.8205648 61.3919233,41.3059816 C62.4046344,41.3604005 61.5658321,41.9350643 62.7708968,41.8262265 C65.7861935,41.5530435 70.6345587,42.9929682 72.7671367,42.7720273 C76.1012662,42.4280998 73.8351824,43.1725506 81.4924375,44.6853966 C83.7989243,45.1414272 86.0518331,45.5158294 86.5770727,45.3101258 C86.8388141,45.1751669 86.9925214,45.3101258 86.9442134,45.5560994 C86.9442134,45.5560994 92.4170691,47.7589773 92.395111,48.0278068 C92.3749094,48.2846641 92.5171984,48.4675117 92.712187,48.3652041 C93.2690464,48.1486168 99.1116778,49.9433528 98.9983736,50.662771 C98.6698793,52.7470157 95.3945978,60.7291831 94.2281795,62.4999748 C92.996765,64.3698089 90.348609,60.3732833 87.2006849,60.648643 C86.7386849,60.4886514 83.5371828,59.3785054 83.0707912,59.2413697 C72.9884751,56.2613896 74.1425969,56.8208161 70.9744713,57.0657013 C70.7250264,56.2287382 69.2784218,57.8896037 68.6161632,56.4268231 C68.3500301,55.8412755 66.037395,55.3362679 65.4708741,55.8499826 C65.2319691,56.0665699 62.1692427,55.4298685 58.9721323,55.0750571 C57.8654403,54.9520703 52.6306112,54.4394441 51.8480218,55.4037474 C49.3764095,53.9083154 40.9532533,55.9054899 38.7785155,56.3734926" id="Fill-11" fill="#F1FF54" style="mix-blend-mode: multiply;"></path>
                            <path d="M87.2279388,48 C88.2371903,49.537485 97.0172413,49.6313525 97.9705688,50.8138673 C98.3594147,51.5960965 94.7732951,62.7997766 94.4001779,63.5981899 C94.1528894,64.12579 93.9938559,64.1646317 93.7124888,63.7816091 C92.907709,62.6897251 87.3520199,62.5570158 85.7337223,62.5915418 C85.642846,62.2333348 85.305555,63.373771 85.2566216,62.9454331 C85.0809856,61.3798957 72.9734631,63.2140884 71.0737984,63.4946119 C70.396595,63.596032 70.8728219,62.8720654 70.0925088,63.2227198 C68.60004,63.8927396 64.590996,63.8884239 63.3973704,64.6965476 C62.4152071,65.3600937 62.1967544,65.3946197 61.1368219,65.1594115 C60.0934918,64.9295979 54.6706219,66.4282412 54.148083,67.3399428 C54.0274971,67.5805457 53.8972993,67.5287568 53.8588516,67.2827592 C53.8588516,67.2827592 49.9301983,67.7672018 49.8908768,67.6237032 C49.8262148,67.3841792 49.6846574,67.2935485 49.6016454,67.4845204 C49.4478547,67.7747544 45.4248297,69.5377372 45.2369604,68.8364282 C44.7048096,66.8447108 43.8843013,58.078349 44.0136253,55.8730021 C44.1499398,53.5273934 47.2694443,55.5018478 49.2608592,53.7064969 C50.13467,53.5284724 57.464195,52.0244344 59.6137696,51.6975165 L61.750237,50.4977388 C62.0953923,51.1904162 62.8573553,49.2148829 63.6324255,50.4383973 C63.9461236,50.9357871 65.7339405,50.7458943 66.0887077,50.1611105 C66.2669651,49.8665607 72.6938436,49.4954065 72.9961821,49.4630384 C73.7432904,49.3864338 76.2353988,49.2181197 76.6705566,48.4682586 C78.1455492,49.4457754 82.6316939,48.4294169 87.2279388,48" id="Fill-13" fill="#F1FF54" style="mix-blend-mode: multiply;"></path>
                        </g>
                    </g>
                </g>
                <g id="Group-42" transform="translate(11.000000, 11.500000)">
                    <path d="M15.8333333,1.26913595 C17.8847337,4.64596963 18.9104339,7.19583396 18.9104339,8.91872892 C18.9104339,11.5030714 20.9214476,21.0961623 25.1432046,20.5618667 C29.3649615,20.0275711 32.9500992,20.1099187 34.8064931,15.5180767 C36.044089,12.4568486 35.8782359,10.4800799 34.3089338,9.58777033 L26.9956242,2.425025 L21.1297047,0.791666667 L15.8333333,1.26913595 Z" id="Path-2" fill="#FFFFFF"></path>
                    <polygon id="Path-3" fill="#FFFFFF" points="1.58333333 22.1666667 7.53951475 25.5631465 18.4595433 27.0229939 23.1045971 28.9559864 26.125 32.166217 25.4877256 36.2390697 19.2441707 37.2083333 13.4034709 35.8831508 7.53951475 32.8982052 3.55330885 27.6533201"></polygon>
                    <g id="basketball-ball-variant" fill="#000000" fill-rule="nonzero" stroke="#120E27" stroke-width="0.5">
                        <path d="M19,0 C8.52353788,0 0,8.52353788 0,19 C0,20.2152071 0.11961661,21.4035615 0.338344126,22.5562751 L0.267062391,22.6417155 C0.301238565,22.6705211 0.334438277,22.6949327 0.368614452,22.7232501 C2.10427588,31.4230394 9.79733272,38 19,38 C29.4764621,38 38,29.4764621 38,19 C38,8.52353788 29.4764621,0 19,0 Z M35.1824185,12.3273461 C35.1570305,18.4912632 29.6595488,19.8055813 27.3487512,20.0843612 C29.2748227,13.4424658 28.726051,7.06665639 28.3051958,4.18169904 C31.3620105,6.10874704 33.7851012,8.95269298 35.1824185,12.3273461 Z M26.6373985,3.25064241 C26.9562134,4.89842224 28.1601912,12.3205108 25.8196115,20.005756 C21.3659677,18.8252133 20.7341967,15.5818943 19.8910217,11.1668208 C19.3202796,8.17591736 18.6748381,4.82469935 16.622803,1.65900915 C17.4010433,1.55306301 18.1934423,1.49349882 19,1.49349882 C21.7365351,1.49349882 24.3280656,2.12575804 26.6373985,3.25064241 Z M15.0199404,1.9553654 C17.1940333,5.02682701 17.8482629,8.43028574 18.4243756,11.4470655 C19.2612036,15.8308922 20.0579967,19.9808562 25.3450509,21.4294378 C24.9549543,22.5040343 24.4911348,23.576678 23.9404101,24.63321 C12.9747405,19.321256 6.2464282,10.7879535 4.78368794,8.80329427 C7.21898448,5.4164354 10.8323826,2.93280399 15.0199404,1.9553654 Z M3.91463665,10.1312828 C5.96276596,12.8097184 12.6730137,20.8020608 23.2100164,25.9358105 C22.7979494,26.6227516 22.3443828,27.2984634 21.84834,27.9605047 C18.9638709,26.5280347 16.2546767,26.3063778 13.6294583,26.0925326 C9.99701922,25.7961764 6.24349882,25.4793144 1.73907904,21.9079042 C1.57991572,20.9617124 1.49301059,19.9911091 1.49301059,19 C1.49349882,15.764981 2.37866173,12.7345308 3.91463665,10.1312828 Z M2.26880974,24.1552318 C6.47345565,27.0016189 10.0424247,27.2984634 13.508377,27.5816374 C16.0047024,27.7852297 18.3770172,27.9819868 20.8904307,29.1596002 C18.8652482,31.5294737 16.221477,33.668414 12.7901891,35.3645287 C7.77849728,33.4560335 3.86093124,29.3124165 2.26880974,24.1552318 Z M14.8026776,35.994835 C17.9185682,34.2547795 20.358747,32.1509919 22.2643129,29.8558177 C23.0645236,30.298155 24.6327218,31.3307637 25.0413712,32.8174273 C25.284022,33.6986843 25.0638298,34.6512231 24.400812,35.6506321 C22.6993268,36.2037979 20.8850601,36.5069894 19.0004882,36.5069894 C17.5533714,36.5065012 16.1477541,36.3268322 14.8026776,35.994835 Z M26.4299003,34.8470038 C26.6774334,34.0243345 26.6994038,33.2109415 26.4792116,32.4141484 C25.9577809,30.5281118 24.2343252,29.2728698 23.1939048,28.6659986 C23.6958064,27.9810104 24.1542553,27.28284 24.5721811,26.5744167 C27.1861702,27.7471477 30.0193751,28.7304451 33.0610546,29.4159215 C31.3410165,31.7316014 29.0639069,33.6068969 26.4299003,34.8470038 Z M33.959888,28.0845154 C30.8483914,27.4293093 27.9580635,26.4469884 25.2986689,25.2644928 C25.9187224,24.0653973 26.4323415,22.8467725 26.8566142,21.6291243 C28.1680029,21.5339192 31.8414534,21.0437352 34.3260613,18.5107925 C35.1604481,17.660294 35.7697605,16.6623497 36.1608336,15.5345359 C36.3868846,16.6550262 36.5069894,17.8135985 36.5069894,19 C36.5065012,22.3243653 35.5749563,25.4348854 33.959888,28.0845154 Z" id="Shape"></path>
                    </g>
                </g>
            </g>
        </g>
    </g>
</svg>