<svg width="40" height="39" viewBox="0 0 40 39" fill="none" xmlns="http://www.w3.org/2000/svg">
<path fill-rule="evenodd" clip-rule="evenodd" d="M9.61133 37.6957L32.8559 35.662C36.0654 35.3813 38.4394 32.552 38.1586 29.3425L36.4639 9.97205C36.1831 6.76266 33.3539 4.38853 30.1444 4.66932L6.89982 6.70296C3.69043 6.98374 1.31631 9.81311 1.59709 13.0225L3.29179 32.393C3.57258 35.6024 6.40194 37.9765 9.61133 37.6957Z" fill="white"/>
<path d="M11.1129 10.2381L10.435 2.48993M26.6092 8.88236L25.9313 1.13418M37.6502 23.5314L2.78339 26.5818M9.61134 37.6957L32.8559 35.6621C36.0654 35.3813 38.4394 32.552 38.1586 29.3425L36.4639 9.97205C36.1831 6.76266 33.3539 4.38853 30.1444 4.66933L6.89983 6.70296C3.69044 6.98375 1.31632 9.81311 1.5971 13.0225L3.2918 32.393C3.57259 35.6024 6.40195 37.9765 9.61134 37.6957Z" stroke="#0E0927" stroke-width="2.1" stroke-linecap="round" stroke-linejoin="round"/>
</svg>
