<svg width="141" height="125" viewBox="0 0 141 125" fill="none" xmlns="http://www.w3.org/2000/svg">
<g clip-path="url(#clip0)">
<mask id="path-1-inside-1" fill="white">
<path d="M130.358 12.3245C116.75 -1.85787 92.2677 -1.8667 78.6494 12.303L72.3206 18.4517L65.2432 11.3743C50.3249 -3.5442 26.0505 -3.5442 11.1323 11.3743C-3.71063 25.6157 -3.71091 51.2438 11.1323 65.4852L11.8491 66.202L10.4486 67.6029C5.10963 72.7253 5.1099 81.9425 10.4486 87.0649L10.5705 87.1868C13.135 89.7513 16.5338 91.1762 20.1547 91.2139C20.1925 94.8348 21.6177 98.2334 24.1819 100.798L24.3038 100.92C26.9182 103.533 30.4059 104.972 34.1038 104.949C34.1939 108.49 35.6116 111.807 38.1259 114.321L38.2479 114.443C43.3706 119.782 52.5874 119.782 57.7099 114.443L59.5512 112.602L67.7892 120.84C73.0887 126.139 81.7117 126.139 87.0115 120.84C89.6088 118.243 90.9297 114.847 90.9813 111.436C98.0253 111.472 104.24 105.389 104.348 98.3399C114.4 98.2315 120.475 86.9441 115.094 78.4912L130.275 64.1348C144.543 50.5394 144.579 25.9665 130.358 12.3245ZM24.1813 81.3359C22.1389 83.4647 18.4634 83.4647 16.421 81.3359L16.2991 81.214C14.1704 79.1713 14.1704 75.4964 16.2991 73.4537L23.8962 65.8564C26.0365 63.7164 29.5178 63.7178 31.6581 65.8581L31.7786 65.9786C33.9179 68.1178 33.9181 71.5986 31.7797 73.7381L24.1813 81.3359ZM37.9147 95.0693C35.8723 97.1983 32.1968 97.198 30.1544 95.0693L30.0325 94.9473C27.9037 92.9047 27.904 89.2295 30.0325 87.1868L42.4504 74.7691C44.4942 72.6398 48.1681 72.6401 50.2124 74.7707L50.3329 74.8913C52.4617 76.9339 52.4614 80.6092 50.3329 82.6518L37.9147 95.0693ZM56.7837 103.668L51.8585 108.592C49.8147 110.722 46.1408 110.721 44.0965 108.591L43.9754 108.47C41.8472 106.427 41.8478 102.752 43.976 100.71L48.9012 95.7853C50.945 93.656 54.6188 93.6563 56.6631 95.7869L56.7837 95.9075C58.9127 97.9496 58.9124 101.625 56.7837 103.668ZM107.447 88.7032C105.626 90.5233 102.665 90.5238 100.844 88.7032L92.6365 80.4953C91.021 78.8798 88.4013 78.8798 86.7856 80.4953C85.1699 82.1107 85.1699 84.7304 86.7856 86.3461L94.5341 94.0945C99.3167 99.2917 92.2048 106.396 87.0132 101.616L79.3055 93.9081C77.6901 92.2926 75.0704 92.2926 73.4547 93.9081C71.839 95.5235 71.839 98.1432 73.4547 99.7589L81.1223 107.427C81.1356 107.44 81.1469 107.455 81.1604 107.469C83.234 109.542 83.234 112.916 81.1604 114.99C79.0868 117.064 75.7131 117.063 73.6395 114.99L65.0032 106.354C67.9001 101.181 66.9179 94.2038 62.6329 90.0555L62.5123 89.935C61.1057 88.5283 59.4469 87.4673 57.6395 86.7863C61.5439 81.5422 60.9156 73.5963 56.1818 69.039L56.0613 68.9185C52.2526 65.0075 46.0854 63.8077 41.0813 65.9207C40.4511 63.7983 39.3001 61.7992 37.6276 60.1264L37.507 60.0058C32.1413 54.6404 23.411 54.6407 18.0448 60.0058L17.6992 60.3514L16.9826 59.6349C5.29029 47.9426 5.29029 28.918 16.9826 17.2257C28.6752 5.53367 47.6997 5.53367 59.3918 17.2257L66.385 24.2187L53.1228 37.1036C47.2011 42.5951 47.1186 52.6888 52.9487 58.2765C58.7389 64.0664 68.1602 64.0664 73.9501 58.2765L78.5244 53.7021C78.6681 53.5584 78.9026 53.5584 79.0466 53.7021L107.446 82.1016C109.257 83.8389 109.257 86.9653 107.447 88.7032ZM124.547 58.164L109.469 72.4222L84.8979 47.8507C81.6808 44.4977 75.8915 44.4977 72.6744 47.8507L68.1 52.4251C65.5361 54.9888 61.3644 54.9888 58.8004 52.4245C56.2169 49.9455 56.2547 45.4809 58.8834 43.0436L84.4365 18.217C112.043 -7.2961 149.938 30.4783 124.547 58.164Z"/>
</mask>
<path d="M130.358 12.3245C116.75 -1.85787 92.2677 -1.8667 78.6494 12.303L72.3206 18.4517L65.2432 11.3743C50.3249 -3.5442 26.0505 -3.5442 11.1323 11.3743C-3.71063 25.6157 -3.71091 51.2438 11.1323 65.4852L11.8491 66.202L10.4486 67.6029C5.10963 72.7253 5.1099 81.9425 10.4486 87.0649L10.5705 87.1868C13.135 89.7513 16.5338 91.1762 20.1547 91.2139C20.1925 94.8348 21.6177 98.2334 24.1819 100.798L24.3038 100.92C26.9182 103.533 30.4059 104.972 34.1038 104.949C34.1939 108.49 35.6116 111.807 38.1259 114.321L38.2479 114.443C43.3706 119.782 52.5874 119.782 57.7099 114.443L59.5512 112.602L67.7892 120.84C73.0887 126.139 81.7117 126.139 87.0115 120.84C89.6088 118.243 90.9297 114.847 90.9813 111.436C98.0253 111.472 104.24 105.389 104.348 98.3399C114.4 98.2315 120.475 86.9441 115.094 78.4912L130.275 64.1348C144.543 50.5394 144.579 25.9665 130.358 12.3245ZM24.1813 81.3359C22.1389 83.4647 18.4634 83.4647 16.421 81.3359L16.2991 81.214C14.1704 79.1713 14.1704 75.4964 16.2991 73.4537L23.8962 65.8564C26.0365 63.7164 29.5178 63.7178 31.6581 65.8581L31.7786 65.9786C33.9179 68.1178 33.9181 71.5986 31.7797 73.7381L24.1813 81.3359ZM37.9147 95.0693C35.8723 97.1983 32.1968 97.198 30.1544 95.0693L30.0325 94.9473C27.9037 92.9047 27.904 89.2295 30.0325 87.1868L42.4504 74.7691C44.4942 72.6398 48.1681 72.6401 50.2124 74.7707L50.3329 74.8913C52.4617 76.9339 52.4614 80.6092 50.3329 82.6518L37.9147 95.0693ZM56.7837 103.668L51.8585 108.592C49.8147 110.722 46.1408 110.721 44.0965 108.591L43.9754 108.47C41.8472 106.427 41.8478 102.752 43.976 100.71L48.9012 95.7853C50.945 93.656 54.6188 93.6563 56.6631 95.7869L56.7837 95.9075C58.9127 97.9496 58.9124 101.625 56.7837 103.668ZM107.447 88.7032C105.626 90.5233 102.665 90.5238 100.844 88.7032L92.6365 80.4953C91.021 78.8798 88.4013 78.8798 86.7856 80.4953C85.1699 82.1107 85.1699 84.7304 86.7856 86.3461L94.5341 94.0945C99.3167 99.2917 92.2048 106.396 87.0132 101.616L79.3055 93.9081C77.6901 92.2926 75.0704 92.2926 73.4547 93.9081C71.839 95.5235 71.839 98.1432 73.4547 99.7589L81.1223 107.427C81.1356 107.44 81.1469 107.455 81.1604 107.469C83.234 109.542 83.234 112.916 81.1604 114.99C79.0868 117.064 75.7131 117.063 73.6395 114.99L65.0032 106.354C67.9001 101.181 66.9179 94.2038 62.6329 90.0555L62.5123 89.935C61.1057 88.5283 59.4469 87.4673 57.6395 86.7863C61.5439 81.5422 60.9156 73.5963 56.1818 69.039L56.0613 68.9185C52.2526 65.0075 46.0854 63.8077 41.0813 65.9207C40.4511 63.7983 39.3001 61.7992 37.6276 60.1264L37.507 60.0058C32.1413 54.6404 23.411 54.6407 18.0448 60.0058L17.6992 60.3514L16.9826 59.6349C5.29029 47.9426 5.29029 28.918 16.9826 17.2257C28.6752 5.53367 47.6997 5.53367 59.3918 17.2257L66.385 24.2187L53.1228 37.1036C47.2011 42.5951 47.1186 52.6888 52.9487 58.2765C58.7389 64.0664 68.1602 64.0664 73.9501 58.2765L78.5244 53.7021C78.6681 53.5584 78.9026 53.5584 79.0466 53.7021L107.446 82.1016C109.257 83.8389 109.257 86.9653 107.447 88.7032ZM124.547 58.164L109.469 72.4222L84.8979 47.8507C81.6808 44.4977 75.8915 44.4977 72.6744 47.8507L68.1 52.4251C65.5361 54.9888 61.3644 54.9888 58.8004 52.4245C56.2169 49.9455 56.2547 45.4809 58.8834 43.0436L84.4365 18.217C112.043 -7.2961 149.938 30.4783 124.547 58.164Z" fill="#0e0927" stroke="#0e0927" stroke-width="4" mask="url(#path-1-inside-1)"/>
</g>
<defs>
<clipPath id="clip0">
<rect width="141" height="141" fill="#0e0927" transform="translate(0 -8)"/>
</clipPath>
</defs>
</svg>
