<?xml version="1.0" encoding="utf-8"?>
<svg version="1.1" xmlns="http://www.w3.org/2000/svg" xmlns:xlink="http://www.w3.org/1999/xlink" x="0px" y="0px"
     viewBox="0 0 1000 1000" enable-background="new 0 0 1000 1000" xml:space="preserve">
<g><path d="M970.8,25.3c-9.8-9.2-22.5-15.3-37-15.3c-2.6,0-4.9,1.2-7.5,1.5l-702.9,1.3c-30.2,0.1-54.8,24.6-54.9,54.9c-0.1,30.3,24.4,54.8,54.7,54.7l576.9-1.1L26.4,895c-21.8,21.8-21.8,57.1-0.2,78.7c21.7,21.7,57,21.6,78.8-0.1l773.7-773.7l-1.1,576.8c-0.1,30.3,24.4,54.7,54.7,54.7c30.2,0,54.8-24.6,54.9-54.9l1.4-702.8c0.4-2.6,1.5-4.8,1.5-7.5c0-14.5-6.1-27.3-15.3-37c-0.7-0.8-0.9-1.7-1.6-2.4C972.4,26.1,971.6,25.9,970.8,25.3z"/></g>
</svg>