<svg width="26" height="30" viewBox="0 0 26 30" fill="none" xmlns="http://www.w3.org/2000/svg">
<path d="M23.5155 15.1884L14.3605 9.07764V16.5327C14.3635 16.8147 14.2547 17.0863 14.0579 17.2883C13.8612 17.4902 13.5925 17.6061 13.3106 17.6104H12.1995C12.0585 17.6112 11.9188 17.5839 11.7883 17.5303C11.6579 17.4767 11.5394 17.3978 11.4397 17.2981C11.34 17.1983 11.2611 17.0799 11.2075 16.9494C11.1538 16.819 11.1266 16.6793 11.1274 16.5383V9.08874L1.97237 15.1995C1.66185 15.4064 1.40724 15.6869 1.23114 16.0159C1.05504 16.3449 0.962891 16.7123 0.962891 17.0855C0.962891 17.4587 1.05504 17.826 1.23114 18.1551C1.40724 18.4841 1.66185 18.7645 1.97237 18.9715L11.4773 25.31C11.8493 25.5574 12.2861 25.6895 12.7328 25.6895C13.1796 25.6895 13.6163 25.5574 13.9883 25.31L23.4932 18.9715C23.8073 18.7668 24.0657 18.4874 24.2453 18.1583C24.4249 17.8293 24.52 17.4608 24.5222 17.0859C24.5244 16.711 24.4336 16.3414 24.2579 16.0103C24.0822 15.6791 23.8271 15.3967 23.5155 15.1884V15.1884Z" stroke="#FFD401" stroke-linecap="round" stroke-linejoin="round"/>
<path d="M24.5269 17.0771C24.5272 17.4502 24.435 17.8175 24.2586 18.1461C24.0822 18.4748 23.8269 18.7546 23.5158 18.9604L14.0109 25.2989C13.6389 25.5463 13.2021 25.6783 12.7554 25.6783C12.3086 25.6783 11.8718 25.5463 11.4999 25.2989L1.99494 18.9604C1.68382 18.7546 1.4286 18.4748 1.25215 18.1461C1.07571 17.8175 0.983534 17.4502 0.983888 17.0771V17.0771V20.2881C0.983534 20.6611 1.07571 21.0284 1.25215 21.357C1.4286 21.6857 1.68382 21.9655 1.99494 22.1713L11.4999 28.5098C11.8718 28.7572 12.3086 28.8893 12.7554 28.8893C13.2021 28.8893 13.6389 28.7572 14.0109 28.5098L23.5158 22.1713C23.8269 21.9655 24.0822 21.6857 24.2586 21.357C24.435 21.0284 24.5272 20.6611 24.5269 20.2881V17.0771Z" stroke="#FFD401" stroke-linecap="round" stroke-linejoin="round"/>
<path d="M14.3601 13.5493V16.538C14.3616 16.819 14.2521 17.0892 14.0555 17.29C13.8589 17.4907 13.5911 17.6058 13.3101 17.6102H12.1991C12.0581 17.6109 11.9183 17.5837 11.7879 17.5301C11.6575 17.4764 11.539 17.3975 11.4393 17.2978C11.3396 17.1981 11.2606 17.0796 11.207 16.9492C11.1534 16.8188 11.1262 16.679 11.1269 16.538V13.5493C9.26038 14.0604 7.91602 15.4436 7.91602 17.0769C7.91602 19.1434 10.0714 20.8211 12.7324 20.8211C15.3933 20.8211 17.5487 19.1545 17.5487 17.0769C17.571 15.4436 16.2266 14.0604 14.3601 13.5493Z" stroke="#FFD401" stroke-linecap="round" stroke-linejoin="round"/>
<path d="M16.4997 4.85553C16.4997 5.59607 16.2801 6.31999 15.8686 6.93572C15.4572 7.55145 14.8725 8.03135 14.1883 8.31474C13.5041 8.59813 12.7513 8.67228 12.025 8.52781C11.2987 8.38334 10.6315 8.02673 10.1079 7.50309C9.58426 6.97945 9.22765 6.3123 9.08318 5.58599C8.9387 4.85969 9.01285 4.10685 9.29624 3.42269C9.57963 2.73852 10.0595 2.15376 10.6753 1.74234C11.291 1.33092 12.0149 1.11133 12.7555 1.11133C13.7485 1.11133 14.7008 1.5058 15.403 2.20798C16.1052 2.91015 16.4997 3.86251 16.4997 4.85553Z" stroke="#FFD401" stroke-linecap="round" stroke-linejoin="round"/>
<path d="M11.1499 8.23877V16.5383C11.1484 16.8192 11.2579 17.0895 11.4544 17.2902C11.651 17.491 11.9189 17.606 12.1999 17.6104H13.3109C13.4519 17.6112 13.5917 17.5839 13.7221 17.5303C13.8525 17.4767 13.971 17.3977 14.0707 17.298C14.1704 17.1983 14.2493 17.0798 14.3029 16.9494C14.3566 16.819 14.3838 16.6793 14.3831 16.5383V8.23877C13.8812 8.47651 13.3329 8.59985 12.7776 8.59985C12.2223 8.59985 11.674 8.47651 11.1721 8.23877H11.1499Z" stroke="#FFD401" stroke-linecap="round" stroke-linejoin="round"/>
</svg>
