<svg width="16" height="18" viewBox="0 0 16 18" fill="none" xmlns="http://www.w3.org/2000/svg">
<path d="M14.3094 9.11279L8.81639 5.44635V9.91941C8.81818 10.0886 8.75291 10.2515 8.63486 10.3727C8.51681 10.4939 8.35558 10.5634 8.18643 10.566H7.5198C7.4352 10.5665 7.35135 10.5501 7.2731 10.518C7.19486 10.4858 7.12376 10.4384 7.06394 10.3786C7.00412 10.3188 6.95675 10.2477 6.92457 10.1694C6.8924 10.0912 6.87607 10.0073 6.87651 9.92274V5.45301L1.38352 9.11945C1.19721 9.24363 1.04444 9.41189 0.938782 9.6093C0.833121 9.8067 0.777832 10.0271 0.777832 10.2511C0.777832 10.475 0.833121 10.6954 0.938782 10.8928C1.04444 11.0902 1.19721 11.2585 1.38352 11.3826L7.0865 15.1857C7.30967 15.3342 7.57173 15.4134 7.83978 15.4134C8.10783 15.4134 8.3699 15.3342 8.59307 15.1857L14.296 11.3826C14.4845 11.2598 14.6395 11.0922 14.7473 10.8948C14.855 10.6973 14.9121 10.4762 14.9134 10.2513C14.9148 10.0264 14.8603 9.80464 14.7549 9.60594C14.6494 9.40725 14.4964 9.2378 14.3094 9.11279V9.11279Z" stroke="#FFD401" stroke-linecap="round" stroke-linejoin="round"/>
<path d="M14.9158 10.2461C14.916 10.4699 14.8607 10.6903 14.7549 10.8875C14.649 11.0847 14.4959 11.2525 14.3092 11.376L8.60622 15.1791C8.38306 15.3276 8.12098 15.4068 7.85293 15.4068C7.58489 15.4068 7.32281 15.3276 7.09964 15.1791L1.39667 11.376C1.21 11.2525 1.05687 11.0847 0.951 10.8875C0.84513 10.6903 0.789827 10.4699 0.79004 10.2461V10.2461V12.1726C0.789827 12.3965 0.84513 12.6168 0.951 12.814C1.05687 13.0112 1.21 13.1791 1.39667 13.3026L7.09964 17.1057C7.32281 17.2542 7.58489 17.3334 7.85293 17.3334C8.12098 17.3334 8.38306 17.2542 8.60622 17.1057L14.3092 13.3026C14.4959 13.1791 14.649 13.0112 14.7549 12.814C14.8607 12.6168 14.916 12.3965 14.9158 12.1726V10.2461Z" stroke="#FFD401" stroke-linecap="round" stroke-linejoin="round"/>
<path d="M8.81638 8.12952V9.92273C8.81728 10.0913 8.75162 10.2535 8.63366 10.3739C8.51571 10.4944 8.35498 10.5634 8.18641 10.566H7.51979C7.43519 10.5665 7.35134 10.5501 7.27309 10.518C7.19484 10.4858 7.12375 10.4384 7.06392 10.3786C7.0041 10.3188 6.95673 10.2477 6.92456 10.1694C6.89239 10.0912 6.87606 10.0073 6.8765 9.92273V8.12952C5.75657 8.43616 4.94995 9.2661 4.94995 10.246C4.94995 11.486 6.2432 12.4926 7.83977 12.4926C9.43633 12.4926 10.7296 11.4926 10.7296 10.246C10.7429 9.2661 9.93631 8.43616 8.81638 8.12952Z" stroke="#FFD401" stroke-linecap="round" stroke-linejoin="round"/>
<path d="M10.0995 2.91321C10.0995 3.35753 9.96774 3.79188 9.72089 4.16132C9.47404 4.53076 9.12318 4.8187 8.71269 4.98873C8.30219 5.15877 7.85048 5.20326 7.4147 5.11658C6.97892 5.02989 6.57863 4.81593 6.26444 4.50175C5.95026 4.18756 5.7363 3.78727 5.64961 3.35149C5.56293 2.9157 5.60742 2.464 5.77745 2.0535C5.94749 1.643 6.23544 1.29215 6.60488 1.0453C6.97431 0.798444 7.40866 0.666687 7.85298 0.666687C8.44879 0.666687 9.02021 0.903371 9.44151 1.32468C9.86282 1.74598 10.0995 2.31739 10.0995 2.91321Z" stroke="#FFD401" stroke-linecap="round" stroke-linejoin="round"/>
<path d="M6.88966 4.94305V9.92275C6.88876 10.0913 6.95442 10.2535 7.07238 10.3739C7.19033 10.4944 7.35106 10.5634 7.51962 10.566H8.18625C8.27085 10.5665 8.3547 10.5501 8.43295 10.518C8.51119 10.4858 8.58229 10.4384 8.64211 10.3786C8.70194 10.3188 8.7493 10.2477 8.78148 10.1694C8.81365 10.0912 8.82998 10.0073 8.82954 9.92275V4.94305C8.52845 5.0857 8.19944 5.15971 7.86627 5.15971C7.5331 5.15971 7.20408 5.0857 6.90299 4.94305H6.88966Z" stroke="#FFD401" stroke-linecap="round" stroke-linejoin="round"/>
</svg>
