<svg width="80" height="80" viewBox="0 0 80 80" fill="none" xmlns="http://www.w3.org/2000/svg">
<rect x="1" y="1" width="78" height="78" rx="39" fill="#FFD31A" stroke="#EA9C00" stroke-width="2"/>
<rect width="80" height="80" rx="40" fill="url(#paint0_linear_307_1176)"/>
<rect x="8.5" y="8.5" width="63" height="63" rx="31.5" stroke="#FFE98F"/>
<rect x="10.5" y="10.5" width="59" height="59" rx="29.5" stroke="#F1AF0A"/>
<path d="M43.3681 46.5485C43.3681 46.5485 58.554 35.5493 56.8696 22.9609C56.8529 22.7471 56.7684 22.5443 56.6286 22.3822C56.4733 22.2377 56.2739 22.1502 56.0628 22.1339C43.807 20.4044 33.1 36.0006 33.1 36.0006C23.8108 34.8843 24.4863 36.7434 20.2483 46.9609C19.4372 48.9086 20.7517 49.5801 22.193 49.0316L26.814 47.2805L32.3858 52.9982L30.6798 57.7463C30.1463 59.2276 30.7982 60.5771 32.6977 59.7458C42.6453 55.3928 44.4567 56.088 43.3681 46.5485V46.5485ZM45.5388 33.7744C44.9198 33.1325 44.5738 32.2742 44.5738 31.3809C44.5738 30.4876 44.9198 29.6293 45.5388 28.9874C45.8414 28.6743 46.2035 28.4255 46.6037 28.2555C47.0039 28.0856 47.434 27.998 47.8686 27.998C48.3031 27.998 48.7333 28.0856 49.1335 28.2555C49.5337 28.4255 49.8958 28.6743 50.1984 28.9874C50.8174 29.6293 51.1634 30.4876 51.1634 31.3809C51.1634 32.2742 50.8174 33.1325 50.1984 33.7744C49.8958 34.0874 49.5337 34.3363 49.1335 34.5062C48.7333 34.6762 48.3031 34.7638 47.8686 34.7638C47.434 34.7638 47.0039 34.6762 46.6037 34.5062C46.2035 34.3363 45.8414 34.0874 45.5388 33.7744Z" fill="white"/>
<path d="M63 12L61 16L67 22L70 29L73 26C73 26 73 24 69 19C65 14 63 12 63 12ZM59 19L19 61L27 67L36 70L67 32L63 24L59 19ZM17 62L14 65C15.558 66.5251 19.5919 70 25 73L35 72L29 70L22 66C20.2851 66.1496 18.1387 63.0446 17 62Z" fill="url(#paint1_linear_307_1176)"/>
<defs>
<linearGradient id="paint0_linear_307_1176" x1="40" y1="154.286" x2="40.0001" y2="-57.1429" gradientUnits="userSpaceOnUse">
<stop stop-color="#EA9C00"/>
<stop offset="1" stop-color="#EA9C00" stop-opacity="0"/>
</linearGradient>
<linearGradient id="paint1_linear_307_1176" x1="151.921" y1="-49.3582" x2="108.698" y2="88.5182" gradientUnits="userSpaceOnUse">
<stop stop-color="#FFE98F"/>
<stop offset="1" stop-color="#FFE98F" stop-opacity="0"/>
</linearGradient>
</defs>
</svg>
