<?xml version="1.0" encoding="UTF-8"?>
<svg width="50px" height="19px" viewBox="0 0 50 19" version="1.1" xmlns="http://www.w3.org/2000/svg" xmlns:xlink="http://www.w3.org/1999/xlink">
    <title>google-pay</title>
    <g id="Screens-+-UI-Kit" stroke="none" stroke-width="1" fill="none" fill-rule="evenodd">
        <g id="Events" transform="translate(-580.000000, -2409.000000)" fill-rule="nonzero">
            <g id="Group-44" transform="translate(549.000000, 2342.000000)">
                <g id="Group-32" transform="translate(31.000000, 65.000000)">
                    <g id="google-pay" transform="translate(0.000000, 2.000000)">
                        <g id="Pay_Typeface_3_" transform="translate(21.500977, 1.009284)" fill="#FFFFFF">
                            <path d="M1.83554688,8.23146692 L1.83554688,13.8333665 L0,13.8333665 L0,0 L4.86611328,0 C6.09941406,0 7.15097656,0.39819 8.01142578,1.19447542 C8.89101562,1.99076084 9.33076172,2.96296868 9.33076172,4.11109894 C9.33076172,5.2870363 8.89101562,6.25924414 8.01142578,7.04626053 C7.16054687,7.83327692 6.10898437,8.22219789 4.86611328,8.22219789 L1.83554688,8.22219789 L1.83554688,8.23146692 Z M1.83554687,1.70370463 L1.83554687,6.52776229 L4.90439453,6.52776229 C5.63095703,6.52776229 6.24287109,6.28705123 6.72080078,5.81480357 C7.20839844,5.3425559 7.45693359,4.76853806 7.45693359,4.12036797 C7.45693359,3.48146692 7.20839844,2.91662352 6.72080078,2.44447044 C6.24277344,1.95368471 5.64052734,1.71297366 4.90439453,1.71297366 L1.83554687,1.71297366 L1.83554687,1.70370463 Z" id="Letter_p_3_"></path>
                            <path d="M14.1299805,4.05557934 C15.4875,4.05557934 16.5583008,4.40742419 17.3421875,5.11111388 C18.1261719,5.81480357 18.5180664,6.77774238 18.5180664,8.00002489 L18.5180664,13.8333665 L16.7685547,13.8333665 L16.7685547,12.5185829 L16.6920898,12.5185829 C15.9368164,13.6019245 14.9234375,14.1389608 13.6615234,14.1389608 C12.58125,14.1389608 11.6825195,13.8333665 10.955957,13.2130035 C10.2293945,12.5926405 9.86611328,11.8240676 9.86611328,10.8982049 C9.86611328,9.91672806 10.2485352,9.13898071 11.0133789,8.56486828 C11.7782227,7.98158141 12.8011719,7.6945252 14.0726562,7.6945252 C15.1625,7.6945252 16.0612305,7.88898568 16.759082,8.27781207 L16.759082,7.87044762 C16.759082,7.25008463 16.5105469,6.73158639 16.0038086,6.29641485 C15.4970703,5.8612433 14.9043945,5.64824476 14.2255859,5.64824476 C13.2026367,5.64824476 12.3900391,6.06487824 11.7972656,6.90750881 L10.181543,5.92603194 C11.0707031,4.67594233 12.3900391,4.05557934 14.1299805,4.05557934 Z M11.759082,10.9259174 C11.759082,11.3888961 11.9598633,11.777817 12.3708984,12.0833167 C12.7724609,12.388911 13.2504883,12.5462954 13.7954102,12.5462954 C14.5698242,12.5462954 15.2581055,12.2685082 15.8604492,11.7129338 C16.462793,11.1573595 16.7686523,10.5091894 16.7686523,9.75924912 C16.1950195,9.32407758 15.4015625,9.10181 14.3786133,9.10181 C13.6329102,9.10181 13.0115234,9.27773242 12.5143555,9.62030824 C12.0076172,9.98142211 11.759082,10.4166882 11.759082,10.9259174 Z" id="Letter_a_3_"></path>
                            <polygon id="Letter_y_3_" points="28.4990234 4.36107903 22.3804688 17.990716 20.4875 17.990716 22.762793 13.222178 18.728418 4.36107903 20.7264648 4.36107903 23.6328125 11.1573595 23.6710938 11.1573595 26.5008789 4.36107903"></polygon>
                        </g>
                        <path d="M15.8824219,6.44348978 L8.18837891,6.44348978 L8.18837891,9.49905418 L12.6195312,9.5 C12.4398437,10.5166614 11.8614258,11.3833157 10.9751953,11.9611169 L10.9751953,11.9616844 C10.9754883,11.9614952 10.9758789,11.961306 10.9761719,11.9611169 L10.8963867,13.7873997 L13.6138672,13.9426087 C13.6134766,13.9428924 13.6130859,13.9432707 13.612793,13.9435545 L13.6128906,13.9435545 C15.1530273,12.5630364 16.0354492,10.5222417 16.0354492,8.11115868 C16.0353516,7.53146592 15.9818359,6.97683738 15.8824219,6.44348978 Z" id="Path" fill="#0085F7"></path>
                        <path d="M10.9760742,11.9611169 C10.9757812,11.961306 10.9753906,11.9614952 10.9750977,11.9616844 C10.2410156,12.4409311 9.29580078,12.721272 8.19023437,12.721272 C6.05351562,12.721272 4.24091797,11.3268503 3.59179687,9.44722327 L3.59150391,9.44722327 C3.59160156,9.44750702 3.59169922,9.44788535 3.59179687,9.44816909 L1.32314453,9.10020211 L0.871386719,11.4922741 C2.21953125,14.0826845 4.98984375,15.8601631 8.19033203,15.8601631 C10.4019531,15.8601631 12.2600586,15.1559059 13.612793,13.9434599 C13.6131836,13.9431762 13.6135742,13.9428924 13.6138672,13.9425141 L10.9760742,11.9611169 Z" id="Path" fill="#00A94B"></path>
                        <path d="M3.33554687,7.93050716 C3.33554687,7.40273989 3.42636719,6.89256486 3.59179687,6.41293981 L2.88339844,4.36845642 L0.870898437,4.36845642 C0.313574219,5.43978615 0,6.64901635 0,7.93050716 C0,9.21199797 0.314550781,10.4212282 0.870898437,11.4925579 L0.871289062,11.4922741 L3.59179687,9.44807451 C3.59169922,9.44779076 3.59160156,9.44750702 3.59150391,9.44712869 C3.42626953,8.96788196 3.33554687,8.45799068 3.33554687,7.93050716 Z" id="Path" fill="#FFBB00"></path>
                        <path d="M8.19023437,0 C4.99042969,0 2.21894531,1.77776229 0.870898437,4.368551 L3.59169922,6.41303439 C4.24082031,4.53340734 6.05341797,3.13898568 8.19013672,3.13898568 C9.39755859,3.13898568 10.4789062,3.5418102 11.3326172,4.32882659 L13.6701172,2.06680472 C12.2504883,0.786070568 10.3996094,0 8.19023437,0 Z" id="Path" fill="#FF4031"></path>
                    </g>
                </g>
            </g>
        </g>
    </g>
</svg>