<svg width="60" height="60" viewBox="0 0 60 60" fill="none" xmlns="http://www.w3.org/2000/svg">
<rect x="1" y="1" width="58" height="58" rx="29" fill="#FFD31A" stroke="#EA9C00" stroke-width="2"/>
<rect width="60" height="60" rx="30" fill="url(#paint0_linear_147_4216)"/>
<rect x="6.5" y="6.5" width="47" height="47" rx="23.5" stroke="#FFE98F"/>
<rect x="8" y="8" width="44" height="44" rx="22" stroke="#F1AF0A"/>
<path d="M42 23.9999V20.3999H18V23.9999H42ZM42 31.1999V27.5999H18V31.1999H42ZM42 38.3999V34.7999H18V38.3999H42Z" fill="white"/>
<path d="M47.25 9L45.75 12L50.25 16.5L52.5 21.75L54.75 19.5C54.75 19.5 54.75 18 51.75 14.25C48.75 10.5 47.25 9 47.25 9ZM44.25 14.25L14.25 45.75L20.25 50.25L27 52.5L50.25 24L47.25 18L44.25 14.25ZM12.75 46.5L10.5 48.75C11.6685 49.8938 14.6939 52.5 18.75 54.75L26.25 54L21.75 52.5L16.5 49.5C15.2138 49.6122 13.6041 47.2835 12.75 46.5Z" fill="url(#paint1_linear_147_4216)"/>
<defs>
<linearGradient id="paint0_linear_147_4216" x1="30" y1="115.714" x2="30.0001" y2="-42.8571" gradientUnits="userSpaceOnUse">
<stop stop-color="#EA9C00"/>
<stop offset="1" stop-color="#EA9C00" stop-opacity="0"/>
</linearGradient>
<linearGradient id="paint1_linear_147_4216" x1="113.941" y1="-37.0186" x2="81.5233" y2="66.3887" gradientUnits="userSpaceOnUse">
<stop stop-color="#FFE98F"/>
<stop offset="1" stop-color="#FFE98F" stop-opacity="0"/>
</linearGradient>
</defs>
</svg>
