<svg width="22" height="20" viewBox="0 0 22 20" fill="none" xmlns="http://www.w3.org/2000/svg">
<mask id="mask0_0_6504" style="mask-type:alpha" maskUnits="userSpaceOnUse" x="0" y="0" width="22" height="20">
<rect width="22" height="20" fill="white"/>
</mask>
<g mask="url(#mask0_0_6504)">
<path fill-rule="evenodd" clip-rule="evenodd" d="M20.7716 7.73783H18.6288V5.80737C18.6288 5.22827 18.4059 4.68386 18.0012 4.27444L17.3248 3.59012C17.406 3.41755 17.4502 3.22781 17.4502 3.0305C17.4502 2.68242 17.3169 2.35572 17.0747 2.11071L16.1551 1.18035C15.6538 0.673282 14.8381 0.673282 14.3368 1.18035C13.8356 1.68753 13.8356 2.5128 14.3368 3.01998L15.2564 3.95029C15.4985 4.19523 15.8214 4.33017 16.1655 4.33017C16.3605 4.33017 16.5481 4.28542 16.7187 4.20327L17.3951 4.88765C17.6379 5.13329 17.7716 5.45993 17.7716 5.80737V7.73788H15.4056C14.7128 6.69288 13.5347 6.00353 12.2002 6.00353C10.8657 6.00353 9.68762 6.69288 8.99482 7.73788H6.62877V5.80737C6.62877 5.45993 6.76248 5.13329 7.00534 4.88765L7.68174 4.20327C7.85231 4.28542 8.03985 4.33017 8.23488 4.33017C8.579 4.33017 8.90185 4.19523 9.14402 3.95029L10.0636 3.01992C10.5649 2.5128 10.5649 1.68753 10.0636 1.18041C9.56231 0.673282 8.74665 0.673282 8.24534 1.18035L7.32568 2.11071C7.08351 2.35566 6.9502 2.68236 6.9502 3.03044C6.9502 3.22775 6.99442 3.41755 7.07562 3.59006L6.39922 4.27432C5.99448 4.6838 5.77162 5.22822 5.77162 5.80732V7.73783H3.62877C3.39208 7.73783 3.2002 7.9319 3.2002 8.17141V15.1088C3.2002 15.2238 3.24534 15.3341 3.32574 15.4155L4.93808 17.0467L5.75105 27.8485C4.78911 28.0616 4.06688 28.9302 4.06688 29.9665C4.06688 30.206 4.25877 30.4 4.49545 30.4H19.924C20.1607 30.4 20.3526 30.206 20.3526 29.9665C20.3526 28.9303 19.6303 28.0621 18.6684 27.849L19.4829 17.0258L21.0747 15.4155C21.1551 15.3341 21.2002 15.2239 21.2002 15.1088V8.17141C21.2002 7.93196 21.0083 7.73783 20.7716 7.73783ZM16.4685 3.33708C16.3883 3.41824 16.2807 3.46299 16.1655 3.46299C16.0504 3.46299 15.9428 3.4183 15.8624 3.33702L14.9429 2.40677C14.7758 2.23767 14.7758 1.96254 14.9429 1.7935C15.11 1.62458 15.3819 1.62458 15.5489 1.7935L16.4685 2.72387C16.5488 2.80509 16.5931 2.91401 16.5931 3.0305C16.5931 3.14699 16.5488 3.25585 16.4685 3.33708ZM8.85134 1.79356L7.9318 2.72387C7.85151 2.80509 7.80734 2.91401 7.80734 3.03044C7.80734 3.14699 7.85151 3.25585 7.9318 3.33702C8.01208 3.4183 8.11968 3.46299 8.23482 3.46299C8.34997 3.46299 8.45762 3.41824 8.53791 3.33702L9.45745 2.40671C9.62454 2.23773 9.62454 1.9626 9.45745 1.7935C9.37391 1.70904 9.26414 1.66678 9.15442 1.66678C9.04465 1.66678 8.93488 1.70904 8.85134 1.79356ZM12.2002 6.87065C13.8544 6.87065 15.2002 8.23223 15.2002 9.90577C15.2002 11.5793 13.8544 12.9409 12.2002 12.9409C10.546 12.9409 9.2002 11.5793 9.2002 9.90577C9.2002 8.23223 10.546 6.87065 12.2002 6.87065ZM4.9974 29.5329H19.422C19.2451 29.0282 18.7685 28.6657 18.2097 28.6657H7.92402C7.68734 28.6657 7.49545 28.4716 7.49545 28.2321C7.49545 27.9926 7.68734 27.7985 7.92402 27.7985H17.8125L18.6044 17.2768H5.815L6.63705 28.1992C6.64608 28.3196 6.60511 28.4383 6.52402 28.5268C6.44294 28.6154 6.329 28.6657 6.20968 28.6657C5.65094 28.6657 5.17425 29.0282 4.9974 29.5329ZM18.8798 16.4096H5.52054L4.6634 15.5424H19.7369L18.8798 16.4096ZM4.05734 14.6752H20.3431V8.605H15.8362C15.9789 9.01211 16.0573 9.44975 16.0573 9.90577C16.0573 12.0575 14.3271 13.8081 12.2002 13.8081C10.0733 13.8081 8.34305 12.0575 8.34305 9.90577C8.34305 9.44975 8.42145 9.01211 8.5642 8.605H4.05734V14.6752Z" fill="white"/>
<path fill-rule="evenodd" clip-rule="evenodd" d="M14.3433 9.90574C14.3433 11.1012 13.3821 12.0737 12.2005 12.0737C11.0189 12.0737 10.0576 11.1012 10.0576 9.90574C10.0576 8.7103 11.0189 7.73779 12.2005 7.73779C13.3821 7.73779 14.3433 8.7103 14.3433 9.90574ZM13.4862 9.90574C13.4862 9.18852 12.9094 8.60497 12.2005 8.60497C11.4915 8.60497 10.9148 9.18852 10.9148 9.90574C10.9148 10.6229 11.4915 11.2065 12.2005 11.2065C12.9094 11.2065 13.4862 10.6229 13.4862 9.90574Z" fill="white"/>
</g>
</svg>
