<svg width="21" height="21" viewBox="0 0 21 21" fill="none" xmlns="http://www.w3.org/2000/svg">
<path fill-rule="evenodd" clip-rule="evenodd" d="M10.5 1C5.26177 1 1 5.26177 1 10.5C1 11.1076 1.05981 11.7018 1.16917 12.2781L1.13353 12.3209C1.14269 12.3286 1.15171 12.3357 1.16074 12.3428L1.16076 12.3428L1.16078 12.3428L1.1608 12.3428C1.1686 12.3489 1.1764 12.3551 1.18431 12.3616C2.05214 16.7115 5.89867 20 10.5 20C15.7382 20 20 15.7382 20 10.5C20 5.26177 15.7382 1 10.5 1ZM18.5912 7.16367C18.5785 10.2456 15.8298 10.9028 14.6744 11.0422C15.6374 7.72123 15.363 4.53333 15.1526 3.09085C16.681 4.05437 17.8926 5.47635 18.5912 7.16367ZM13.9098 11.0029C15.0801 7.16026 14.4781 3.44921 14.3187 2.62532C13.164 2.06288 11.8683 1.74675 10.5 1.74675C10.0967 1.74675 9.70052 1.77653 9.3114 1.8295C10.3374 3.41235 10.6601 5.08796 10.9455 6.58341C11.3671 8.79095 11.683 10.4126 13.9098 11.0029ZM8.50997 1.97768C9.59702 3.51341 9.92413 5.21514 10.2122 6.72353C10.6306 8.91545 11.029 10.9904 13.6725 11.7147C13.4775 12.252 13.2456 12.7883 12.9702 13.3166C7.48737 10.6606 4.12321 6.39398 3.39184 5.40165C4.60949 3.70822 6.41619 2.4664 8.50997 1.97768ZM12.605 13.9679C7.33651 11.401 3.98138 7.40486 2.95732 6.06564C2.18933 7.36727 1.74675 8.88249 1.74651 10.5C1.74651 10.9956 1.78996 11.4809 1.86954 11.954C4.12175 13.7397 5.99851 13.8981 7.81473 14.0463C9.12734 14.1532 10.4819 14.264 11.9242 14.9803C12.1722 14.6492 12.399 14.3114 12.605 13.9679ZM2.1344 13.0776C4.23673 14.5008 6.02121 14.6492 7.75419 14.7908C9.00235 14.8926 10.1885 14.991 11.4452 15.5798C10.4326 16.7647 9.11074 17.8342 7.39509 18.6823C4.88925 17.728 2.93047 15.6562 2.1344 13.0776ZM12.1322 15.9279C11.1794 17.0755 9.95928 18.1274 8.40134 18.9974C9.07388 19.1634 9.77669 19.2533 10.5002 19.2535C11.4425 19.2535 12.3497 19.1019 13.2004 18.8253C13.5319 18.3256 13.642 17.8493 13.5207 17.4087C13.3164 16.6654 12.5323 16.1491 12.1322 15.9279ZM14.215 18.4235C14.3387 18.0122 14.3497 17.6055 14.2396 17.2071C13.9789 16.2641 13.1172 15.6364 12.597 15.333C12.8479 14.9905 13.0771 14.6414 13.2861 14.2872C14.5931 14.8736 16.0097 15.3652 17.5305 15.708C16.6705 16.8658 15.532 17.8034 14.215 18.4235ZM13.6493 13.6322C14.979 14.2235 16.4242 14.7147 17.9799 15.0423C18.7875 13.7174 19.2533 12.1622 19.2535 10.5C19.2535 9.9068 19.1934 9.32751 19.0804 8.76727C18.8849 9.33117 18.5802 9.83015 18.163 10.2554C16.9207 11.5219 15.084 11.767 14.4283 11.8146C14.2162 12.4234 13.9594 13.0327 13.6493 13.6322Z" fill="white"/>
<path d="M1.16917 12.2781L1.24596 12.3422L1.27623 12.3059L1.26742 12.2595L1.16917 12.2781ZM1.13353 12.3209L1.05674 12.2568L0.993004 12.3332L1.06909 12.3973L1.13353 12.3209ZM1.16074 12.3428L1.22613 12.267L1.22254 12.2641L1.16074 12.3428ZM1.16076 12.3428L1.09544 12.4185L1.09668 12.4195L1.16076 12.3428ZM1.16078 12.3428L1.09661 12.4197L1.10086 12.4229L1.16078 12.3428ZM1.1608 12.3428L1.22261 12.2642L1.22073 12.2628L1.1608 12.3428ZM1.18431 12.3616L1.28237 12.3421L1.27543 12.3073L1.24811 12.2846L1.18431 12.3616ZM14.6744 11.0422L14.5783 11.0143L14.5362 11.1596L14.6864 11.1415L14.6744 11.0422ZM18.5912 7.16367L18.6912 7.16409L18.6913 7.14399L18.6836 7.12542L18.5912 7.16367ZM15.1526 3.09085L15.2059 3.00626L15.0223 2.8905L15.0536 3.10528L15.1526 3.09085ZM14.3187 2.62532L14.4169 2.60633L14.4074 2.55729L14.3625 2.53542L14.3187 2.62532ZM13.9098 11.0029L13.8842 11.0995L13.9774 11.1242L14.0055 11.032L13.9098 11.0029ZM9.3114 1.8295L9.29791 1.73042L9.14178 1.75167L9.22749 1.8839L9.3114 1.8295ZM10.9455 6.58341L10.8473 6.60215L10.8473 6.60217L10.9455 6.58341ZM10.2122 6.72353L10.3104 6.70478L10.3104 6.70477L10.2122 6.72353ZM8.50997 1.97768L8.59159 1.91991L8.55274 1.86501L8.48724 1.8803L8.50997 1.97768ZM13.6725 11.7147L13.7665 11.7488L13.8035 11.6469L13.6989 11.6183L13.6725 11.7147ZM12.9702 13.3166L12.9266 13.4066L13.014 13.4489L13.0589 13.3628L12.9702 13.3166ZM3.39184 5.40165L3.31065 5.34327L3.26815 5.40237L3.31135 5.46098L3.39184 5.40165ZM2.95732 6.06564L3.03676 6.0049L2.94661 5.88701L2.87119 6.01482L2.95732 6.06564ZM12.605 13.9679L12.6908 14.0193L12.7469 13.9258L12.6488 13.878L12.605 13.9679ZM1.74651 10.5L1.64651 10.5V10.5H1.74651ZM1.86954 11.954L1.77093 11.9705L1.7773 12.0084L1.80741 12.0323L1.86954 11.954ZM7.81473 14.0463L7.8066 14.1459L7.80661 14.1459L7.81473 14.0463ZM11.9242 14.9803L11.8797 15.0698L11.9543 15.1069L12.0042 15.0402L11.9242 14.9803ZM7.75419 14.7908L7.74605 14.8905L7.74606 14.8905L7.75419 14.7908ZM2.1344 13.0776L2.19046 12.9948L1.95497 12.8354L2.03885 13.1071L2.1344 13.0776ZM11.4452 15.5798L11.5212 15.6448L11.6065 15.545L11.4876 15.4892L11.4452 15.5798ZM7.39509 18.6823L7.35951 18.7757L7.40029 18.7912L7.43941 18.7719L7.39509 18.6823ZM8.40134 18.9974L8.35258 18.9101L8.1312 19.0337L8.37738 19.0945L8.40134 18.9974ZM12.1322 15.9279L12.1805 15.8404L12.1081 15.8003L12.0552 15.864L12.1322 15.9279ZM10.5002 19.2535L10.5002 19.3535H10.5002V19.2535ZM13.2004 18.8253L13.2313 18.9204L13.2645 18.9096L13.2837 18.8806L13.2004 18.8253ZM13.5207 17.4087L13.4243 17.4352L13.4243 17.4353L13.5207 17.4087ZM14.2396 17.2071L14.336 17.1804L14.336 17.1804L14.2396 17.2071ZM14.215 18.4235L14.1192 18.3947L14.0545 18.6096L14.2575 18.514L14.215 18.4235ZM12.597 15.333L12.5163 15.2739L12.4507 15.3634L12.5466 15.4194L12.597 15.333ZM13.2861 14.2872L13.327 14.196L13.2454 14.1594L13.2 14.2364L13.2861 14.2872ZM17.5305 15.708L17.6108 15.7676L17.7025 15.6442L17.5525 15.6104L17.5305 15.708ZM17.9799 15.0423L17.9593 15.1401L18.0285 15.1547L18.0653 15.0943L17.9799 15.0423ZM13.6493 13.6322L13.5605 13.5863L13.5118 13.6805L13.6087 13.7236L13.6493 13.6322ZM19.2535 10.5L19.3535 10.5V10.5H19.2535ZM19.0804 8.76727L19.1784 8.74749L19.106 8.38831L18.9859 8.73451L19.0804 8.76727ZM18.163 10.2554L18.0916 10.1854L18.0916 10.1854L18.163 10.2554ZM14.4283 11.8146L14.4211 11.7148L14.3555 11.7196L14.3339 11.7817L14.4283 11.8146ZM1.1 10.5C1.1 5.317 5.317 1.1 10.5 1.1V0.9C5.20654 0.9 0.9 5.20654 0.9 10.5H1.1ZM1.26742 12.2595C1.15916 11.689 1.1 11.101 1.1 10.5H0.9C0.9 11.1142 0.960458 11.7146 1.07093 12.2968L1.26742 12.2595ZM1.21032 12.3849L1.24596 12.3422L1.09239 12.2141L1.05674 12.2568L1.21032 12.3849ZM1.22254 12.2641C1.21333 12.2569 1.20563 12.2508 1.19798 12.2444L1.06909 12.3973C1.07976 12.4063 1.0901 12.4144 1.09895 12.4214L1.22254 12.2641ZM1.22607 12.2671L1.22606 12.267L1.09543 12.4185L1.09545 12.4185L1.22607 12.2671ZM1.22486 12.266L1.22484 12.266L1.09668 12.4195L1.0967 12.4196L1.22486 12.266ZM1.22073 12.2628L1.22071 12.2627L1.10086 12.4229L1.10088 12.4229L1.22073 12.2628ZM1.24811 12.2846C1.23905 12.2771 1.23025 12.2702 1.22259 12.2642L1.09901 12.4214C1.10695 12.4277 1.11375 12.433 1.12051 12.4386L1.24811 12.2846ZM10.5 19.9C5.94737 19.9 2.14108 16.6462 1.28237 12.3421L1.08624 12.3812C1.9632 16.7768 5.84996 20.1 10.5 20.1V19.9ZM19.9 10.5C19.9 15.683 15.683 19.9 10.5 19.9V20.1C15.7935 20.1 20.1 15.7935 20.1 10.5H19.9ZM10.5 1.1C15.683 1.1 19.9 5.317 19.9 10.5H20.1C20.1 5.20654 15.7935 0.9 10.5 0.9V1.1ZM14.6864 11.1415C15.2707 11.071 16.2652 10.8691 17.1176 10.2891C17.9754 9.70533 18.6847 8.74103 18.6912 7.16409L18.4912 7.16326C18.485 8.66827 17.8136 9.57353 17.0051 10.1237C16.1911 10.6776 15.2334 10.874 14.6624 10.9429L14.6864 11.1415ZM15.0536 3.10528C15.2631 4.54121 15.5357 7.71294 14.5783 11.0143L14.7704 11.07C15.7391 7.72953 15.4629 4.52544 15.2515 3.07641L15.0536 3.10528ZM18.6836 7.12542C17.9769 5.41873 16.7516 3.98067 15.2059 3.00626L15.0993 3.17544C16.6104 4.12808 17.8082 5.53396 18.4988 7.20193L18.6836 7.12542ZM14.2205 2.64432C14.3789 3.46266 14.9773 7.15445 13.8141 10.9737L14.0055 11.032C15.1829 7.16606 14.5774 3.43576 14.4169 2.60633L14.2205 2.64432ZM10.5 1.84675C11.8527 1.84675 13.1335 2.15925 14.2749 2.71522L14.3625 2.53542C13.1945 1.9665 11.8838 1.64675 10.5 1.64675V1.84675ZM9.32489 1.92859C9.70998 1.87617 10.1017 1.84675 10.5 1.84675V1.64675C10.0918 1.64675 9.69106 1.6769 9.29791 1.73042L9.32489 1.92859ZM11.0437 6.56467C10.7586 5.07058 10.4333 3.37647 9.39531 1.77511L9.22749 1.8839C10.2415 3.44823 10.5617 5.10534 10.8473 6.60215L11.0437 6.56467ZM13.9354 10.9062C12.8473 10.6178 12.2348 10.0817 11.8386 9.3519C11.4375 8.61322 11.2554 7.67295 11.0437 6.56465L10.8473 6.60217C11.0572 7.70141 11.2439 8.67573 11.6628 9.44734C12.0866 10.2278 12.7455 10.7977 13.8842 11.0995L13.9354 10.9062ZM10.3104 6.70477C10.0227 5.1983 9.69284 3.4757 8.59159 1.91991L8.42835 2.03546C9.50119 3.55112 9.82554 5.23198 10.114 6.74229L10.3104 6.70477ZM13.6989 11.6183C12.4038 11.2634 11.6652 10.5814 11.1957 9.72156C10.7223 8.85462 10.5203 7.80441 10.3104 6.70478L10.114 6.74228C10.3225 7.83457 10.5289 8.9178 11.0202 9.81741C11.5153 10.7242 12.2978 11.4417 13.6461 11.8112L13.6989 11.6183ZM13.0589 13.3628C13.3364 12.8304 13.5701 12.29 13.7665 11.7488L13.5785 11.6806C13.3849 12.2141 13.1547 12.7463 12.8815 13.2704L13.0589 13.3628ZM3.31135 5.46098C4.04669 6.4587 7.42249 10.7403 12.9266 13.4066L13.0138 13.2266C7.55225 10.5809 4.19974 6.32926 3.47234 5.34232L3.31135 5.46098ZM8.48724 1.8803C6.36927 2.37467 4.54205 3.63072 3.31065 5.34327L3.47303 5.46003C4.67694 3.78571 6.46311 2.55814 8.5327 2.07507L8.48724 1.8803ZM2.87788 6.12638C3.90625 7.47123 7.2727 11.4812 12.5612 14.0578L12.6488 13.878C7.40031 11.3209 4.05652 7.33849 3.03676 6.0049L2.87788 6.12638ZM1.84651 10.5C1.84675 8.90099 2.28422 7.40323 3.04344 6.11646L2.87119 6.01482C2.09444 7.3313 1.64675 8.864 1.64651 10.5L1.84651 10.5ZM1.96815 11.9374C1.88944 11.4694 1.84651 10.9897 1.84651 10.5H1.64651C1.64651 11.0014 1.69047 11.4923 1.77093 11.9705L1.96815 11.9374ZM7.82286 13.9466C6.01098 13.7988 4.1596 13.642 1.93167 11.8756L1.80741 12.0323C4.0839 13.8373 5.98604 13.9974 7.8066 14.1459L7.82286 13.9466ZM11.9686 14.8907C10.5072 14.1649 9.13463 14.0535 7.82285 13.9466L7.80661 14.1459C9.12005 14.2529 10.4567 14.3631 11.8797 15.0698L11.9686 14.8907ZM12.5193 13.9165C12.315 14.257 12.0901 14.592 11.8441 14.9203L12.0042 15.0402C12.2543 14.7065 12.483 14.3658 12.6908 14.0193L12.5193 13.9165ZM7.76233 14.6912C6.03168 14.5498 4.26988 14.4025 2.19046 12.9948L2.07835 13.1604C4.20357 14.5991 6.01075 14.7487 7.74605 14.8905L7.76233 14.6912ZM11.4876 15.4892C10.2125 14.8918 9.00922 14.7928 7.76232 14.6911L7.74606 14.8905C8.99548 14.9924 10.1645 15.0902 11.4028 15.6704L11.4876 15.4892ZM7.43941 18.7719C9.16705 17.9179 10.4998 16.8401 11.5212 15.6448L11.3692 15.5148C10.3655 16.6894 9.05443 17.7505 7.35078 18.5926L7.43941 18.7719ZM2.03885 13.1071C2.84406 15.7153 4.82511 17.8106 7.35951 18.7757L7.43068 18.5888C4.95339 17.6454 3.01687 15.5971 2.22996 13.0481L2.03885 13.1071ZM8.4501 19.0847C10.0189 18.2087 11.2485 17.1488 12.2091 15.9918L12.0552 15.864C11.1103 17.0022 9.8997 18.0461 8.35258 18.9101L8.4501 19.0847ZM10.5003 19.1535C9.78501 19.1533 9.09023 19.0645 8.4253 18.9003L8.37738 19.0945C9.05752 19.2624 9.76836 19.3532 10.5002 19.3535L10.5003 19.1535ZM13.1695 18.7302C12.3284 19.0036 11.4317 19.1535 10.5002 19.1535V19.3535C11.4533 19.3535 12.3709 19.2002 13.2313 18.9204L13.1695 18.7302ZM13.4243 17.4353C13.5356 17.8395 13.4382 18.2859 13.1171 18.77L13.2837 18.8806C13.6256 18.3653 13.7484 17.8592 13.6171 17.3822L13.4243 17.4353ZM12.0838 16.0154C12.2799 16.1238 12.5685 16.3038 12.8322 16.5461C13.0965 16.7891 13.329 17.0887 13.4243 17.4352L13.6171 17.3822C13.508 16.9854 13.2463 16.6551 12.9675 16.3989C12.688 16.1419 12.3845 15.9532 12.1805 15.8404L12.0838 16.0154ZM14.1432 17.2337C14.2479 17.6125 14.238 18 14.1192 18.3947L14.3107 18.4523C14.4395 18.0244 14.4515 17.5984 14.336 17.1804L14.1432 17.2337ZM12.5466 15.4194C13.0629 15.7205 13.8936 16.3309 14.1432 17.2337L14.336 17.1804C14.0642 16.1972 13.1714 15.5523 12.6473 15.2466L12.5466 15.4194ZM13.2 14.2364C12.9927 14.5878 12.7652 14.9341 12.5163 15.2739L12.6776 15.3921C12.9306 15.0469 13.1616 14.695 13.3722 14.338L13.2 14.2364ZM17.5525 15.6104C16.0387 15.2693 14.6284 14.7798 13.327 14.196L13.2452 14.3784C14.5577 14.9673 15.9807 15.4612 17.5085 15.8055L17.5525 15.6104ZM14.2575 18.514C15.5896 17.8868 16.741 16.9386 17.6108 15.7676L17.4503 15.6483C16.6 16.793 15.4743 17.72 14.1724 18.333L14.2575 18.514ZM18.0005 14.9444C16.4523 14.6184 15.0139 14.1295 13.69 13.5409L13.6087 13.7236C14.9442 14.3174 16.3961 14.8109 17.9593 15.1401L18.0005 14.9444ZM19.1535 10.5C19.1533 12.1432 18.6928 13.6806 17.8946 14.9902L18.0653 15.0943C18.8821 13.7543 19.3532 12.1811 19.3535 10.5L19.1535 10.5ZM18.9824 8.78704C19.0941 9.34091 19.1535 9.91357 19.1535 10.5H19.3535C19.3535 9.90003 19.2928 9.31412 19.1784 8.74749L18.9824 8.78704ZM18.2344 10.3254C18.6623 9.88928 18.9747 9.37747 19.1749 8.80003L18.9859 8.73451C18.7951 9.28488 18.4982 9.77101 18.0916 10.1854L18.2344 10.3254ZM14.4355 11.9143C15.0957 11.8664 16.965 11.6196 18.2344 10.3254L18.0916 10.1854C16.8765 11.4242 15.0723 11.6675 14.4211 11.7148L14.4355 11.9143ZM13.7382 13.6782C14.0505 13.0741 14.3092 12.4604 14.5227 11.8475L14.3339 11.7817C14.1232 12.3864 13.8682 12.9913 13.5605 13.5863L13.7382 13.6782Z" fill="white"/>
</svg>
