<svg width="21" height="20" viewBox="0 0 21 20" fill="none" xmlns="http://www.w3.org/2000/svg">
<path d="M4.95199 5.42251C4.98232 5.76913 5.28789 6.02553 5.6345 5.99521C5.98112 5.96488 6.23752 5.65931 6.2072 5.3127L4.95199 5.42251ZM5.85858 1.32792C5.82825 0.981301 5.52268 0.724897 5.17607 0.755222C4.82945 0.785547 4.57305 1.09112 4.60337 1.43773L5.85858 1.32792ZM12.9216 4.72527C12.9519 5.07188 13.2574 5.32829 13.6041 5.29796C13.9507 5.26764 14.2071 4.96207 14.1768 4.61545L12.9216 4.72527ZM13.8281 0.630671C13.7978 0.284055 13.4922 0.0276512 13.1456 0.0579762C12.799 0.0883011 12.5426 0.393872 12.5729 0.740487L13.8281 0.630671ZM19.2823 12.8317C19.6289 12.8014 19.8853 12.4958 19.855 12.1492C19.8247 11.8026 19.5191 11.5462 19.1725 11.5765L19.2823 12.8317ZM1.24096 13.1453C0.894345 13.1757 0.637941 13.4812 0.668266 13.8278C0.698591 14.1745 1.00416 14.4309 1.35078 14.4005L1.24096 13.1453ZM6.2072 5.3127L5.85858 1.32792L4.60337 1.43773L4.95199 5.42251L6.2072 5.3127ZM14.1768 4.61545L13.8281 0.630671L12.5729 0.740487L12.9216 4.72527L14.1768 4.61545ZM19.1725 11.5765L1.24096 13.1453L1.35078 14.4005L19.2823 12.8317L19.1725 11.5765ZM4.8623 20.1162L16.8166 19.0704L16.7068 17.8152L4.75248 18.861L4.8623 20.1162ZM16.8166 19.0704C18.8138 18.8956 20.2912 17.135 20.1164 15.1378L18.8612 15.2476C18.9753 16.5516 18.0108 17.7011 16.7068 17.8152L16.8166 19.0704ZM20.1164 15.1378L19.2449 5.17587L17.9897 5.28568L18.8612 15.2476L20.1164 15.1378ZM19.2449 5.17587C19.0702 3.17871 17.3095 1.70132 15.3123 1.87605L15.4221 3.13126C16.7261 3.01718 17.8756 3.98175 17.9897 5.28568L19.2449 5.17587ZM15.3123 1.87605L3.35799 2.92192L3.4678 4.17713L15.4221 3.13126L15.3123 1.87605ZM3.35799 2.92192C1.36083 3.09665 -0.116553 4.85732 0.0581761 6.85449L1.31338 6.74467C1.1993 5.44074 2.16387 4.29121 3.4678 4.17713L3.35799 2.92192ZM0.0581761 6.85449L0.929733 16.8164L2.18494 16.7066L1.31338 6.74467L0.0581761 6.85449ZM0.929733 16.8164C1.10447 18.8137 2.86514 20.291 4.8623 20.1162L4.75248 18.861C3.44854 18.9751 2.29902 18.0106 2.18494 16.7066L0.929733 16.8164Z" fill="white"/>
</svg>
