<svg width="18" height="21" viewBox="0 0 18 21" fill="none" xmlns="http://www.w3.org/2000/svg">
<path fill-rule="evenodd" clip-rule="evenodd" d="M9.30173 0.0824414L17.6983 5.02482C17.885 5.13471 18 5.33781 18 5.55762V15.4424C18 15.6622 17.885 15.8653 17.6983 15.9752L9.30173 20.9176C9.11502 21.0275 8.88498 21.0275 8.69827 20.9176L0.301727 15.9752C0.115018 15.8653 0 15.6622 0 15.4424V5.55762C0 5.33781 0.115018 5.13471 0.301727 5.02482L8.69827 0.0824414C8.88498 -0.0274805 9.11502 -0.0274805 9.30173 0.0824414ZM9 19.6743L16.7931 15.0872V5.91281L9 1.32567L1.20691 5.91281V15.0872L9 19.6743Z" fill="white"/>
<path d="M6.13418 7.90784C5.80091 7.90784 5.53072 8.1833 5.53072 8.52307V10.9824L4.42893 8.28645C4.33524 8.05717 4.1155 7.90784 3.8719 7.90784H3.22552C2.89226 7.90784 2.62207 8.1833 2.62207 8.52307V12.477C2.65176 13.2924 3.79957 13.2918 3.82898 12.477V10.0177L4.93077 12.7136C5.02446 12.9429 5.2442 13.0922 5.48779 13.0922H6.13418C6.46744 13.0922 6.73763 12.8168 6.73763 12.477V8.52307C6.73763 8.1833 6.46744 7.90784 6.13418 7.90784Z" fill="white"/>
<path d="M6.13418 7.90784C5.80091 7.90784 5.53072 8.1833 5.53072 8.52307V10.9824L4.42893 8.28645C4.33524 8.05717 4.1155 7.90784 3.8719 7.90784H3.22552C2.89226 7.90784 2.62207 8.1833 2.62207 8.52307V12.477C2.65176 13.2924 3.79957 13.2918 3.82898 12.477V10.0177L4.93077 12.7136C5.02446 12.9429 5.2442 13.0922 5.48779 13.0922H6.13418C6.46744 13.0922 6.73763 12.8168 6.73763 12.477V8.52307C6.73763 8.1833 6.46744 7.90784 6.13418 7.90784Z" stroke="#0E0927"/>
<path d="M7.79297 8.52307V12.477C7.82266 13.2924 8.97047 13.2918 8.99988 12.477V11.4447H10.2926C11.0924 11.4145 11.0918 10.2443 10.2926 10.2143H8.99988V9.13831H10.939C11.7388 9.10804 11.7382 7.93782 10.939 7.90784H8.39642C8.06316 7.90784 7.79297 8.1833 7.79297 8.52307Z" fill="white"/>
<path d="M7.79297 8.52307V12.477C7.82266 13.2924 8.97047 13.2918 8.99988 12.477V11.4447H10.2926C11.0924 11.4145 11.0918 10.2443 10.2926 10.2143H8.99988V9.13831H10.939C11.7388 9.10804 11.7382 7.93782 10.939 7.90784H8.39642C8.06316 7.90784 7.79297 8.1833 7.79297 8.52307Z" stroke="#0E0927"/>
<path d="M12.5547 9.13831H13.244V12.477C13.2737 13.2924 14.4215 13.2918 14.4509 12.477V9.13831H15.1402C15.94 9.10804 15.9394 7.93782 15.1402 7.90784H12.5547C11.7549 7.93811 11.7555 9.10832 12.5547 9.13831Z" fill="white"/>
<path d="M12.5547 9.13831H13.244V12.477C13.2737 13.2924 14.4215 13.2918 14.4509 12.477V9.13831H15.1402C15.94 9.10804 15.9394 7.93782 15.1402 7.90784H12.5547C11.7549 7.93811 11.7555 9.10832 12.5547 9.13831Z" stroke="#0E0927"/>
</svg>
