<svg width="21" height="22" viewBox="0 0 21 22" fill="none" xmlns="http://www.w3.org/2000/svg">
<g clip-path="url(#clip0_103_287)">
<path d="M14.5892 1.63163L2.75676 4.36022C1.79138 4.58284 1.18926 5.5459 1.41188 6.51127L4.14047 18.3437C4.36309 19.309 5.32615 19.9112 6.29152 19.6886L18.1239 16.96C19.0893 16.7373 19.6914 15.7743 19.4688 14.8089L16.7402 2.97651C16.5176 2.01113 15.5545 1.40901 14.5892 1.63163Z" stroke="white"/>
<path d="M5.43457 13.5139L7.66837 10.4441C7.82485 10.2291 8.05375 10.0778 8.31294 10.018L10.9689 9.40549C11.1954 9.35327 11.3996 9.2309 11.5525 9.05582L14.4132 5.77905" stroke="white" stroke-linecap="round"/>
<path d="M7.25439 14.6519L7.56443 15.9964" stroke="white" stroke-linecap="round"/>
<path d="M9.35449 11.4771L10.2537 15.3763" stroke="white" stroke-linecap="round"/>
<path d="M12.0439 10.8569L12.9431 14.7563" stroke="white" stroke-linecap="round"/>
<path d="M14.4277 8.60693L15.6994 14.1214" stroke="white" stroke-linecap="round"/>
</g>
<defs>
<clipPath id="clip0_103_287">
<rect width="19.3183" height="19.8703" fill="white" transform="translate(0.692871 0.673828)"/>
</clipPath>
</defs>
</svg>
