<svg width="25" height="24" viewBox="0 0 25 24" fill="none" xmlns="http://www.w3.org/2000/svg">
<path fill-rule="evenodd" clip-rule="evenodd" d="M21.3303 10.5115C21.3697 10.9993 21.1248 11.4532 20.691 11.6959L16.8984 13.818C16.8239 13.8597 16.776 13.9345 16.7703 14.0181L16.4788 18.2772C16.4455 18.7642 16.1351 19.1781 15.6687 19.3573C15.4053 19.4587 15.1228 19.4731 14.8587 19.4072C14.6552 19.3565 14.4626 19.2582 14.2976 19.1154L10.9798 16.243C10.9146 16.1865 10.8256 16.1643 10.7415 16.1836L6.46363 17.1621C5.97445 17.274 5.46688 17.1093 5.13926 16.7321C4.81163 16.3549 4.73189 15.8438 4.93111 15.3981L6.67326 11.5007C6.70748 11.4242 6.70029 11.3356 6.65414 11.2638L4.30171 7.60955C4.03263 7.19162 4.02941 6.6759 4.29331 6.26367C4.5572 5.85143 5.03326 5.62829 5.53582 5.68134L9.93027 6.14504C10.0166 6.15413 10.1012 6.12161 10.1567 6.05807L12.9807 2.82101C13.3037 2.45079 13.8092 2.29683 14.2999 2.41918C14.7906 2.54153 15.1646 2.91477 15.276 3.39327L16.2498 7.57721C16.2689 7.65939 16.3284 7.72783 16.4088 7.76027L20.5066 9.41398C20.9753 9.60308 21.2909 10.0236 21.3303 10.5115ZM15.4227 18.2616L15.7142 14.0024C15.7428 13.5843 15.9822 13.2102 16.3546 13.0019L20.1473 10.8797C20.2742 10.8087 20.279 10.6904 20.2751 10.6428C20.2713 10.5952 20.2475 10.4786 20.1104 10.4233L16.0126 8.76961C15.6103 8.60726 15.313 8.2651 15.2174 7.85424L14.2436 3.67026L14.2436 3.67023C14.211 3.53017 14.0962 3.48735 14.0484 3.47543C14.0005 3.46349 13.8791 3.44746 13.7846 3.55578L10.9605 6.79284C10.6832 7.11072 10.26 7.27324 9.82853 7.22771L5.43411 6.76406C5.28706 6.74852 5.21131 6.84032 5.18562 6.88054C5.15986 6.9207 5.10855 7.02737 5.18727 7.14972L7.53969 10.804C7.77072 11.1629 7.80646 11.6055 7.6354 11.9882L5.89326 15.8855C5.83493 16.016 5.90293 16.1156 5.93488 16.1523C5.96682 16.189 6.05657 16.271 6.19976 16.2383L10.4777 15.2597C10.6876 15.2118 10.904 15.2155 11.1085 15.2665C11.3131 15.3175 11.5058 15.4158 11.6687 15.5567L14.9865 18.4291C15.0975 18.5253 15.2153 18.495 15.2607 18.4776C15.3062 18.4601 15.413 18.4041 15.4227 18.2616Z" fill="white"/>
<path d="M20.1081 4.59798C19.9193 4.3807 19.587 4.34979 19.3659 4.52891L18.6426 5.11465C18.4215 5.29377 18.3952 5.61516 18.584 5.83243C18.659 5.91873 18.7566 5.97564 18.8609 6.00165C19.0193 6.04112 19.1929 6.00946 19.3262 5.90152L20.0494 5.31578C20.2706 5.13663 20.2969 4.81525 20.1081 4.59798Z" fill="white"/>
<path d="M9.1979 2.75652L8.83432 1.89981C8.72317 1.63792 8.41524 1.5092 8.14653 1.61232C7.87787 1.71554 7.75018 2.01164 7.86135 2.27362L8.22494 3.13033C8.29195 3.28832 8.43044 3.39778 8.5888 3.43726C8.69314 3.46328 8.80608 3.45886 8.91277 3.41783C9.18141 3.31465 9.30911 3.01855 9.1979 2.75652Z" fill="white"/>
<path d="M3.71297 11.5439C3.69024 11.2628 3.43685 11.0489 3.14693 11.0661L2.19902 11.1224C1.9091 11.1396 1.69254 11.3815 1.71527 11.6625C1.73351 11.8887 1.90114 12.0714 2.11692 12.1252C2.16934 12.1382 2.22463 12.1437 2.28131 12.1403L3.22922 12.084C3.5191 12.0668 3.73567 11.825 3.71297 11.5439Z" fill="white"/>
<path d="M10.1721 18.976C9.88935 18.9055 9.60505 19.0694 9.53707 19.342L9.31478 20.2336C9.24681 20.5062 9.4209 20.7844 9.70361 20.8549C9.98632 20.9254 10.2706 20.7615 10.3386 20.4889L10.5609 19.5973C10.6289 19.3246 10.4548 19.0465 10.1721 18.976Z" fill="white"/>
<path d="M20.8976 15.7851L20.0871 15.2904C19.8392 15.1392 19.515 15.209 19.363 15.4465C19.2109 15.6841 19.2886 15.9992 19.5365 16.1505L20.347 16.6453C20.3955 16.6748 20.4469 16.6959 20.4993 16.709C20.7151 16.7628 20.9489 16.6802 21.0711 16.4891C21.2232 16.2516 21.1455 15.9364 20.8976 15.7851Z" fill="white"/>
</svg>
