<svg width="27" height="18" viewBox="0 0 27 18" fill="none" xmlns="http://www.w3.org/2000/svg">
<path fill-rule="evenodd" clip-rule="evenodd" d="M25.5311 7.14574C25.9742 8.68798 26.2911 10.332 26.408 11.8207C26.5316 13.5039 26.4115 14.7089 26.0835 15.5316C25.7565 16.3868 25.2217 16.8598 24.5805 17.0769C23.9707 17.2605 23.2546 17.1881 22.4993 16.9224C21.2178 16.4479 19.7215 15.3968 18.2497 14.1177C17.2115 13.1803 15.3155 12.7598 13.4366 12.8254C11.5577 12.891 9.6957 13.4428 8.72539 14.4503C7.3464 15.829 5.92708 16.9819 4.68177 17.5446C3.94799 17.8948 3.23755 17.9845 2.61638 17.8439C1.92928 17.6732 1.39397 17.2051 1.01046 16.4396C0.624677 15.6093 0.42082 14.4157 0.427885 12.7604C0.440609 11.2672 0.642048 9.60505 0.976464 8.03566C1.28075 6.53222 1.75041 5.12037 2.29617 4.03038C4.41175 -0.0453486 6.88075 0.488205 9.83296 1.12618L9.88223 1.13683C9.96683 1.15416 10.052 1.17173 10.1376 1.1894C11.0108 1.36966 11.9358 1.56059 12.883 1.61618L13.2069 1.60487C14.1479 1.48335 15.0574 1.22835 15.9159 0.987619C16.0001 0.964016 16.0838 0.94055 16.167 0.91736C19.0878 0.0365054 21.5283 -0.665316 23.9352 3.24228C24.5557 4.29154 25.0903 5.66832 25.5311 7.14574ZM24.2166 15.9538C24.5371 15.8453 24.7873 15.5769 24.9658 15.1163C25.2336 14.4255 25.3281 13.4162 25.2112 11.9274C25.0966 10.5035 24.7831 8.95677 24.3747 7.47822C23.9685 6.0645 23.4709 4.81623 22.8862 3.86308C21.0089 0.743884 18.9741 1.32925 16.5616 2.02331L16.4978 2.04167C15.5025 2.33604 14.4749 2.63154 13.3121 2.76951L13.2473 2.77177L12.891 2.78421L12.8262 2.78648C11.6889 2.72883 10.6432 2.50573 9.6299 2.2815C7.1452 1.71922 5.05378 1.27301 3.38408 4.54411C2.86732 5.53572 2.45905 6.84808 2.15137 8.25427C1.81469 9.75884 1.64339 11.355 1.62727 12.751C1.61454 14.2443 1.77921 15.2445 2.05988 15.8513C2.2701 16.2983 2.53832 16.5486 2.86567 16.6345C3.22655 16.7517 3.67669 16.6386 4.18823 16.4261C5.27496 15.9662 6.56696 14.8826 7.85216 13.6046C9.07484 12.3936 11.2238 11.7019 13.3943 11.6261C15.5648 11.5503 17.7568 12.0904 19.0309 13.2791C20.3697 14.4655 21.733 15.4239 22.8827 15.8381C23.4078 16.0145 23.8636 16.0635 24.2166 15.9538Z" fill="white"/>
<path fill-rule="evenodd" clip-rule="evenodd" d="M9.0311 5.54766C9.48576 5.56423 9.88243 5.77755 10.2166 6.05795C10.5519 6.37077 10.7956 6.84904 10.8137 7.36765C10.8318 7.88625 10.6533 8.34682 10.3094 8.71581C10.0292 9.05012 9.6148 9.2593 9.16239 9.30755C9.14584 9.76246 8.93266 10.1593 8.65242 10.4936C8.33978 10.8291 7.86177 11.0729 7.34344 11.091C6.82512 11.1091 6.36479 10.9305 5.99599 10.5864C5.66184 10.306 5.45276 9.89143 5.40451 9.43878C4.91745 9.42334 4.52191 9.24243 4.18664 8.92962C3.85136 8.6168 3.60762 8.13853 3.58951 7.61992C3.5714 7.10132 3.74992 6.64075 4.09382 6.27176L4.12509 6.23822C4.43885 5.93519 4.82081 5.72714 5.27322 5.67889C5.28976 5.22398 5.50182 4.79469 5.78319 4.49279C6.09583 4.15735 6.57384 3.91349 7.09217 3.89539C7.61049 3.87729 8.07082 4.05593 8.43962 4.40003L8.47315 4.43131C8.7749 4.71284 8.98399 5.12742 9.0311 5.54766ZM8.99071 8.11279C9.18508 8.10601 9.3448 8.03553 9.46985 7.90135C9.59491 7.76717 9.65404 7.60285 9.64725 7.40837C9.64046 7.21389 9.57001 7.05409 9.4359 6.92896C9.30179 6.80384 9.13754 6.74467 8.94317 6.75145L8.48963 6.76729C8.13328 6.77974 7.86393 6.49707 7.85261 6.17294L7.83677 5.71916C7.83111 5.5571 7.76066 5.3973 7.65894 5.27104L7.62542 5.23976C7.49131 5.11463 7.32706 5.05546 7.13269 5.06225C6.93832 5.06904 6.7786 5.13952 6.65355 5.2737C6.5285 5.40787 6.46936 5.5722 6.47616 5.76668L6.492 6.22046C6.50445 6.577 6.22195 6.84648 5.89799 6.85779L5.44445 6.87363C5.28248 6.87929 5.12276 6.94977 4.99658 7.05153L4.96531 7.08508C4.84026 7.21926 4.78113 7.38358 4.78792 7.57806C4.79471 7.77254 4.89756 7.93121 4.99814 8.02505C5.13225 8.15018 5.29649 8.20935 5.49086 8.20256L5.9444 8.18672C6.30075 8.17428 6.5701 8.45694 6.58142 8.78107L6.59727 9.23485C6.60406 9.42933 6.67451 9.58913 6.80862 9.71426C6.94273 9.83938 7.10697 9.89855 7.30134 9.89177C7.49571 9.88498 7.65543 9.8145 7.78048 9.68032C7.90554 9.54614 7.96467 9.38182 7.95788 9.18734L7.94316 8.76597C7.93071 8.40943 8.21322 8.13995 8.53717 8.12863L8.99071 8.11279Z" fill="white"/>
<ellipse cx="18.7994" cy="4.78455" rx="1.13453" ry="1.13514" transform="rotate(-2 18.7994 4.78455)" fill="white"/>
<ellipse cx="18.9606" cy="9.38721" rx="1.13453" ry="1.13514" transform="rotate(-2 18.9606 9.38721)" fill="white"/>
<ellipse cx="16.5797" cy="7.16627" rx="1.13453" ry="1.13514" transform="rotate(-2 16.5797 7.16627)" fill="white"/>
<ellipse cx="21.1803" cy="7.00574" rx="1.13453" ry="1.13514" transform="rotate(-2 21.1803 7.00574)" fill="white"/>
</svg>
