<svg width="28" height="20" viewBox="0 0 28 20" fill="none" xmlns="http://www.w3.org/2000/svg">
<path d="M3.60465 4.8709L2.86576 3.99847C2.63987 3.73177 2.25449 3.70907 2.00499 3.94778C1.75558 4.18658 1.73655 4.59651 1.96249 4.8633L2.70139 5.73573C2.83761 5.89663 3.03171 5.96872 3.21913 5.94834C3.34263 5.93492 3.46317 5.8813 3.5622 5.78642C3.81162 5.54767 3.83065 5.13774 3.60465 4.8709Z" fill="white"/>
<path d="M22.8123 1.22125L23.5512 0.348814C23.7771 0.0821162 24.1625 0.0594084 24.412 0.298121C24.6614 0.536919 24.6804 0.946854 24.4545 1.21364L23.7156 2.08607C23.5794 2.24697 23.3853 2.31906 23.1979 2.29869C23.0744 2.28526 22.9538 2.23164 22.8548 2.13676C22.6054 1.89801 22.5863 1.48808 22.8123 1.22125Z" fill="white"/>
<path d="M3.60465 15.4808L2.86576 16.3532C2.63987 16.6199 2.25449 16.6426 2.00499 16.4039C1.75558 16.1651 1.73655 15.7552 1.96249 15.4884L2.70139 14.616C2.83761 14.4551 3.03171 14.383 3.21913 14.4033C3.34263 14.4168 3.46317 14.4704 3.5622 14.5653C3.81162 14.804 3.83065 15.2139 3.60465 15.4808Z" fill="white"/>
<path d="M3.45106 10.0816C3.42983 9.72511 3.13999 9.45818 2.80358 9.4855L1.70367 9.57489C1.36726 9.6022 1.11181 9.91349 1.13303 10.27C1.15006 10.5569 1.34105 10.7857 1.59022 10.85C1.65075 10.8656 1.71474 10.8715 1.78051 10.8661L2.88042 10.7767C3.21678 10.7494 3.47225 10.4382 3.45106 10.0816Z" fill="white"/>
<path d="M24.548 4.77303C24.5692 4.41652 24.859 4.14959 25.1954 4.1769L26.2954 4.26629C26.6318 4.29361 26.8872 4.6049 26.866 4.96141C26.849 5.24834 26.658 5.47715 26.4088 5.54141C26.3483 5.55702 26.2843 5.56289 26.2185 5.55753L25.1186 5.46814C24.7822 5.44082 24.5268 5.12963 24.548 4.77303Z" fill="white"/>
<path d="M14.4172 19.4859C19.484 19.4859 23.5636 15.2419 23.5636 10.0416C23.5636 4.84125 19.484 0.597252 14.4172 0.597252C9.35046 0.597252 5.27084 4.84125 5.27084 10.0416C5.27084 15.2419 9.35046 19.4859 14.4172 19.4859Z" stroke="white" stroke-width="0.972"/>
<g clip-path="url(#clip0_0_6533)">
<ellipse cx="18.5873" cy="12.7833" rx="0.962267" ry="1.00586" fill="white"/>
<path d="M11.2296 7.10329L12.0884 10.8206L12.2734 11.8556L12.4628 10.8426L13.1939 7.10329H14.6254L15.3961 10.8206L15.5943 11.8556L15.7925 10.8602L16.6602 7.10329H18.0388L16.2109 13.5953H14.9161L14.1321 9.79877L13.903 8.54352L13.674 9.79877L12.89 13.5953H11.6304L9.78936 7.10329H11.2296Z" fill="white"/>
</g>
<defs>
<clipPath id="clip0_0_6533">
<rect width="9.8927" height="11.2379" fill="white" transform="translate(9.65723 5.47644)"/>
</clipPath>
</defs>
</svg>
