<svg width="100%" height="100%"
  xmlns="http://www.w3.org/2000/svg" viewBox="0 0 199.943 199.943">
  <g fill="#E82E89">
    <path d="M99.972.004C44.85.004 0 44.847 0 99.968c0 55.125 44.847 99.972 99.972 99.972s99.972-44.847 99.972-99.972C199.943 44.847 155.093.004 99.972.004zm0 190.953c-50.168 0-90.996-40.813-90.996-90.989 0-50.172 40.828-90.992 90.996-90.992 50.175 0 91.003 40.817 91.003 90.992s-40.828 90.989-91.003 90.989z"/>
    <path d="M99.324 67.354a6.729 6.729 0 00-6.725 6.728v75.979c0 3.722 3.017 6.739 6.725 6.739a6.739 6.739 0 006.739-6.739V74.082c0-3.718-3.021-6.728-6.739-6.728z"/>
    <circle cx="99.746" cy="48.697" r="8.178"/>
  </g>
</svg>
