<svg width="33" height="32" viewBox="0 0 33 32" fill="none" xmlns="http://www.w3.org/2000/svg">
<path d="M16.3409 31C24.8135 31 31.6818 24.2843 31.6818 16C31.6818 7.71573 24.8135 1 16.3409 1C7.86836 1 1 7.71573 1 16C1 24.2843 7.86836 31 16.3409 31Z" fill="white" stroke="#1E1E1C" stroke-miterlimit="10"/>
<path d="M16.3665 27.6287C22.9437 27.6287 28.2755 22.4153 28.2755 15.9843C28.2755 9.5533 22.9437 4.33994 16.3665 4.33994C9.78937 4.33994 4.45752 9.5533 4.45752 15.9843C4.45752 22.4153 9.78937 27.6287 16.3665 27.6287Z" fill="white"/>
<path d="M7.40194 23.7336C5.53846 21.6732 4.40625 18.9667 4.40625 16C4.40625 9.55529 9.74975 4.33054 16.3409 4.33054C19.5451 4.33054 22.4542 5.56616 24.5999 7.57641" stroke="#020203" stroke-miterlimit="10"/>
<path d="M25.3184 23.6897C23.131 26.1296 19.9204 27.6694 16.341 27.6694C13.7205 27.6694 11.2957 26.8415 9.32642 25.4428" stroke="#1E1E1C" stroke-miterlimit="10"/>
<path d="M26.7584 10.3017C27.7239 11.9858 28.2755 13.9301 28.2755 16C28.2755 18.2078 27.6501 20.2714 26.5596 22.0307" stroke="#020203" stroke-miterlimit="10"/>
<path d="M24.1382 21.4443C25.2063 21.4443 26.0722 20.5976 26.0722 19.5532C26.0722 18.5088 25.2063 17.6621 24.1382 17.6621C23.07 17.6621 22.2041 18.5088 22.2041 19.5532C22.2041 20.5976 23.07 21.4443 24.1382 21.4443Z" fill="#F2FF54"/>
<path d="M7.19023 10.8756H9.22692C9.29748 10.885 9.34239 10.9321 9.35842 10.9791L11.4657 19.0922C11.4817 19.1267 11.5202 19.1142 11.5266 19.0922L13.9835 10.9321C13.9963 10.8976 14.0284 10.8756 14.0669 10.8756L16.3377 10.8725C16.3762 10.8725 16.4082 10.8944 16.4211 10.9289L18.8394 19.0922C18.8523 19.1204 18.8876 19.1142 18.8972 19.0922L20.9948 10.9321C21.0076 10.8976 21.0397 10.8725 21.0782 10.8725H23.256C23.3169 10.8725 23.3586 10.9321 23.3394 10.9854L20.1384 21.2373C20.1256 21.2718 20.0615 21.3063 20.023 21.3063H17.6271C17.5982 21.3094 17.5148 21.2593 17.4988 21.2248L15.2151 14.0556C15.1894 13.9772 15.0772 13.9772 15.0483 14.0556L12.7422 21.2404C12.7294 21.2749 12.6684 21.3063 12.63 21.3063H10.2437C10.2052 21.3063 10.1378 21.2655 10.125 21.231L7.05232 11.045C7.03307 10.9885 7.08439 10.8756 7.19023 10.8756Z" fill="#020203" stroke="#020203" stroke-miterlimit="10"/>
</svg>
