<svg width="30" height="24" viewBox="0 0 30 24" fill="none" xmlns="http://www.w3.org/2000/svg">
<path d="M3.33355 10.963C4.56085 10.963 5.55578 9.96808 5.55578 8.74078C5.55578 7.51348 4.56085 6.51855 3.33355 6.51855C2.10625 6.51855 1.11133 7.51348 1.11133 8.74078C1.11133 9.96808 2.10625 10.963 3.33355 10.963Z" stroke="#FFD401" stroke-linecap="round" stroke-linejoin="round"/>
<path d="M26.667 10.963C27.8943 10.963 28.8893 9.96808 28.8893 8.74078C28.8893 7.51348 27.8943 6.51855 26.667 6.51855C25.4397 6.51855 24.4448 7.51348 24.4448 8.74078C24.4448 9.96808 25.4397 10.963 26.667 10.963Z" stroke="#FFD401" stroke-linecap="round" stroke-linejoin="round"/>
<path d="M15.0009 6.51845C16.535 6.51845 17.7787 5.2748 17.7787 3.74067C17.7787 2.20654 16.535 0.962891 15.0009 0.962891C13.4668 0.962891 12.2231 2.20654 12.2231 3.74067C12.2231 5.2748 13.4668 6.51845 15.0009 6.51845Z" stroke="#FFD401" stroke-linecap="round" stroke-linejoin="round"/>
<path d="M24.6988 9.75941L24.5599 9.82885L20.9545 12.0453C20.8297 12.1223 20.6908 12.1738 20.546 12.1968C20.4012 12.2198 20.2532 12.214 20.1106 12.1795C19.968 12.1451 19.8337 12.0828 19.7153 11.9962C19.597 11.9096 19.4969 11.8004 19.421 11.6749L16.3944 6.13672C15.9734 6.39036 15.4912 6.52441 14.9997 6.52441C14.5082 6.52441 14.026 6.39036 13.605 6.13672L10.5784 11.6749C10.5024 11.8004 10.4024 11.9096 10.284 11.9962C10.1656 12.0828 10.0313 12.1451 9.88873 12.1795C9.74617 12.214 9.59819 12.2198 9.45335 12.1968C9.3085 12.1738 9.16965 12.1223 9.0448 12.0453L5.43949 9.82885L5.30059 9.75941C5.14793 10.056 4.93017 10.3141 4.66358 10.5146C4.397 10.715 4.08851 10.8525 3.76123 10.9168C3.76755 10.9904 3.78514 11.0626 3.81333 11.1309L6.40591 17.9886C6.48226 18.2058 6.62388 18.3941 6.81138 18.5278C6.99889 18.6614 7.22312 18.7338 7.45337 18.7351H22.5228C22.7531 18.7338 22.9773 18.6614 23.1648 18.5278C23.3523 18.3941 23.4939 18.2058 23.5703 17.9886L26.1629 11.1309C26.1911 11.0626 26.2086 10.9904 26.215 10.9168C25.8919 10.8493 25.588 10.7103 25.3256 10.5101C25.0632 10.3098 24.849 10.0533 24.6988 9.75941V9.75941Z" stroke="#FFD401" stroke-linecap="round" stroke-linejoin="round"/>
<path d="M23.0205 23.1852H6.97886C6.80986 23.185 6.64313 23.1464 6.49134 23.0721C6.33955 22.9978 6.2067 22.8898 6.10291 22.7565C5.99912 22.6231 5.92711 22.4678 5.89237 22.3024C5.85764 22.137 5.86109 21.9659 5.90246 21.8021L6.48116 19.5799C6.54167 19.3402 6.68038 19.1275 6.87533 18.9755C7.07029 18.8236 7.31037 18.7409 7.55756 18.7407H22.4881C22.7353 18.7409 22.9754 18.8236 23.1703 18.9755C23.3653 19.1275 23.504 19.3402 23.5645 19.5799L24.1432 21.8021C24.1857 21.9698 24.1885 22.1451 24.1512 22.314C24.114 22.483 24.0379 22.6409 23.9288 22.7752C23.8198 22.9096 23.6809 23.0166 23.5232 23.0877C23.3655 23.1589 23.1934 23.1923 23.0205 23.1852V23.1852Z" stroke="#FFD401" stroke-linecap="round" stroke-linejoin="round"/>
</svg>
