<svg width="18" height="15" viewBox="0 0 18 15" fill="none" xmlns="http://www.w3.org/2000/svg">
<path d="M2.00008 6.77775C2.73646 6.77775 3.33342 6.1808 3.33342 5.44442C3.33342 4.70804 2.73646 4.11108 2.00008 4.11108C1.2637 4.11108 0.666748 4.70804 0.666748 5.44442C0.666748 6.1808 1.2637 6.77775 2.00008 6.77775Z" stroke="#FFD401" stroke-linecap="round" stroke-linejoin="round"/>
<path d="M16.0001 6.77775C16.7365 6.77775 17.3334 6.1808 17.3334 5.44442C17.3334 4.70804 16.7365 4.11108 16.0001 4.11108C15.2637 4.11108 14.6667 4.70804 14.6667 5.44442C14.6667 6.1808 15.2637 6.77775 16.0001 6.77775Z" stroke="#FFD401" stroke-linecap="round" stroke-linejoin="round"/>
<path d="M8.99992 4.11111C9.92039 4.11111 10.6666 3.36491 10.6666 2.44444C10.6666 1.52396 9.92039 0.777771 8.99992 0.777771C8.07944 0.777771 7.33325 1.52396 7.33325 2.44444C7.33325 3.36491 8.07944 4.11111 8.99992 4.11111Z" stroke="#FFD401" stroke-linecap="round" stroke-linejoin="round"/>
<path d="M14.8194 6.05557L14.736 6.09724L12.5728 7.42711C12.4979 7.47329 12.4146 7.50418 12.3277 7.518C12.2408 7.53183 12.152 7.5283 12.0665 7.50764C11.9809 7.48698 11.9003 7.44959 11.8293 7.39763C11.7583 7.34566 11.6983 7.28016 11.6527 7.20488L9.83671 3.88196C9.58411 4.03414 9.2948 4.11457 8.9999 4.11457C8.705 4.11457 8.41569 4.03414 8.16309 3.88196L6.34712 7.20488C6.30154 7.28016 6.24151 7.34566 6.1705 7.39763C6.09948 7.44959 6.01888 7.48698 5.93334 7.50764C5.8478 7.5283 5.75901 7.53183 5.67211 7.518C5.5852 7.50418 5.50189 7.47329 5.42698 7.42711L3.26379 6.09724L3.18045 6.05557C3.08886 6.2335 2.9582 6.3884 2.79825 6.50866C2.6383 6.62893 2.4532 6.71144 2.25684 6.75002C2.26063 6.79419 2.27118 6.83751 2.2881 6.87849L3.84365 10.9931C3.88946 11.1234 3.97442 11.2364 4.08693 11.3166C4.19943 11.3968 4.33397 11.4402 4.47212 11.441H13.5138C13.6519 11.4402 13.7865 11.3968 13.899 11.3166C14.0115 11.2364 14.0965 11.1234 14.1423 10.9931L15.6978 6.87849C15.7147 6.83751 15.7253 6.79419 15.7291 6.75002C15.5352 6.70952 15.3529 6.62613 15.1955 6.50596C15.038 6.38579 14.9095 6.2319 14.8194 6.05557V6.05557Z" stroke="#FFD401" stroke-linecap="round" stroke-linejoin="round"/>
<path d="M13.8124 14.1111H4.18736C4.08597 14.1111 3.98592 14.0878 3.89485 14.0433C3.80378 13.9987 3.72407 13.9339 3.66179 13.8539C3.59952 13.7739 3.55631 13.6807 3.53547 13.5815C3.51463 13.4823 3.5167 13.3796 3.54152 13.2813L3.88875 11.9479C3.92505 11.8041 4.00827 11.6765 4.12525 11.5853C4.24222 11.4942 4.38627 11.4446 4.53459 11.4445H13.4929C13.6412 11.4446 13.7853 11.4942 13.9022 11.5853C14.0192 11.6765 14.1024 11.8041 14.1387 11.9479L14.486 13.2813C14.5115 13.3819 14.5131 13.4871 14.4908 13.5884C14.4685 13.6898 14.4228 13.7846 14.3573 13.8652C14.2919 13.9458 14.2086 14.01 14.114 14.0527C14.0194 14.0954 13.9161 14.1154 13.8124 14.1111V14.1111Z" stroke="#FFD401" stroke-linecap="round" stroke-linejoin="round"/>
</svg>
