<svg width="25" height="31" viewBox="0 0 25 31" fill="none" xmlns="http://www.w3.org/2000/svg">
<path d="M8.09851 19.6122L8.32132 19.7255C8.4781 19.8052 8.62803 19.8787 8.7794 19.9439C9.77809 20.374 10.8839 20.6153 12.0504 20.6153C13.2154 20.6153 14.3208 20.3749 15.319 19.9444C15.4709 19.8786 15.6232 19.8044 15.7786 19.7259L16.0015 19.6131L16.0001 19.6076C17.834 18.6033 19.2136 16.9309 19.7798 14.945L19.8832 14.5821H20.2606H20.3834C21.2767 14.5821 21.9709 13.8872 21.9709 13.0741V12.4267C21.9709 11.7233 21.4518 11.1122 20.7259 10.9593L20.2801 10.8654L20.3322 10.4128C20.3637 10.1395 20.3841 9.87115 20.3847 9.60191L20.3815 9.52877L20.381 9.51703L20.3811 9.50528C20.3819 9.30434 20.3755 9.10703 20.3505 8.8984L20.3469 8.86872V8.86176C20.2233 7.58871 19.7779 6.40958 19.0929 5.40677L8.09851 19.6122ZM8.09851 19.6122L8.09969 19.6076C6.26524 18.6033 4.88529 16.9313 4.31962 14.9451L4.21622 14.5821H3.83874H3.716C2.82268 14.5821 2.12847 13.8868 2.12847 13.0741V12.4267C2.12847 11.7103 2.67335 11.0942 3.43307 10.9627L3.89038 10.8835L3.84542 10.4216C3.8246 10.2076 3.81739 9.98853 3.82117 9.76259L3.82135 9.75221L3.82109 9.74184C3.81973 9.68683 3.81826 9.66454 3.81716 9.64775C3.81612 9.6318 3.8154 9.62082 3.8154 9.59147C3.8154 6.22396 6.05975 3.38151 9.1342 2.47354L9.24074 2.44208L9.32393 2.36846C9.43863 2.26696 9.52983 2.18832 9.60533 2.13214L9.60534 2.13214L9.60746 2.13054C9.75737 2.01775 10.1353 1.84024 10.562 1.67738C10.7646 1.60009 10.9608 1.53259 11.1204 1.48388C11.2003 1.45948 11.2677 1.44082 11.32 1.42815C11.3415 1.42295 11.3578 1.41942 11.3695 1.41705C11.3941 1.42398 11.4542 1.44692 11.561 1.52297C11.7071 1.62689 11.8852 1.78938 12.114 2.01884L12.2605 2.1658H12.468H12.4946H12.6968L12.8184 2.04818L12.8422 2.067L12.9732 2.17054L13.1401 2.17465C14.9395 2.21888 16.5772 2.90005 17.8402 4.00461L8.09851 19.6122ZM7.45807 20.5462C7.45809 20.5462 7.45811 20.5462 7.45813 20.5462H7.60052C7.75082 22.8727 9.68539 24.7127 12.0495 24.7127C14.4136 24.7127 16.3481 22.8731 16.4988 20.5462H16.6413C20.493 20.5462 23.5989 23.6079 23.5989 27.3631V30.4141H0.5V27.3631C0.5 23.608 3.60585 20.5466 7.45807 20.5462ZM20.7345 11.1562L20.2548 11.0305L20.1251 11.5091C20.099 11.6056 20.0689 11.6993 20.0344 11.8069L20.0259 11.8335L19.992 11.9392L20.0061 12.0493C20.0439 12.3463 20.0704 12.6337 20.0704 12.9217C20.0704 13.224 20.0472 13.5249 20.0099 13.8277L19.9303 14.4733L20.5746 14.3841C21.2148 14.2955 21.7439 13.7632 21.7439 13.0746V12.4271C21.7439 11.7923 21.2902 11.3018 20.7345 11.1562ZM4.0743 11.6115L4.06444 11.035L3.4951 11.1264C2.87247 11.2264 2.3559 11.7477 2.3559 12.4271V13.0746C2.3559 13.7624 2.88469 14.2954 3.52465 14.3841L4.17 14.4735L4.08942 13.827C4.05174 13.5247 4.02851 13.2244 4.02851 12.9217C4.02851 12.6667 4.04962 12.4132 4.08254 12.1538L4.08732 12.116L4.08635 12.0781C4.08487 12.0204 4.08328 11.965 4.08172 11.9108C4.07882 11.8098 4.07603 11.7127 4.0743 11.6115ZM4.65234 10.9965L4.49666 11.1069L4.84586 11.8741L4.35185 11.797C4.35184 11.797 4.35183 11.7971 4.35182 11.7971C4.29586 12.1555 4.25549 12.5302 4.25549 12.9213C4.25549 13.1961 4.27297 13.4656 4.30308 13.7294C4.35314 14.1869 4.44857 14.6276 4.57972 15.0533C5.53836 18.1701 8.52895 20.4356 12.0508 20.4356C15.5703 20.4356 18.5611 18.1693 19.5195 15.0529C19.6509 14.6274 19.7462 14.1864 19.798 13.7303L19.7983 13.7271C19.8263 13.4661 19.8443 13.197 19.8443 12.9213C19.8443 12.5302 19.8039 12.1558 19.7479 11.7978L19.7478 11.7968C19.6869 11.4124 19.5929 11.043 19.478 10.6872L19.3675 10.3452L19.008 10.341C18.9413 10.3402 18.8716 10.3375 18.7962 10.3323C17.3604 10.226 14.6338 9.70538 12.2339 9.20242C11.0406 8.95233 9.93883 8.70896 9.13533 8.52809C8.73364 8.43767 8.40664 8.3629 8.18018 8.31076C8.06695 8.2847 7.97887 8.26429 7.91916 8.25042L7.85129 8.23462L7.83407 8.23059L7.82977 8.22959L7.82872 8.22934L7.82847 8.22928L7.71435 8.71609L7.8284 8.22927L7.46298 8.14366L7.27874 8.47064C7.07123 8.83892 6.67299 9.29178 6.17746 9.75571C5.68937 10.2127 5.13686 10.6528 4.65234 10.9965ZM17.8403 4.0047C18.3149 4.42005 18.7385 4.88874 19.0929 5.40665L17.8403 4.0047Z" stroke="#0E0927"/>
<path d="M8.58154 20.4036C8.62021 21.3042 8.99473 22.1161 9.59136 22.7123C10.2213 23.3427 11.0881 23.7307 12.0494 23.7307C13.0102 23.7307 13.8775 23.3422 14.5078 22.7123C15.1044 22.1161 15.479 21.3042 15.5176 20.4036C14.4579 20.8608 13.2849 21.1158 12.0503 21.1158C10.8143 21.1158 9.64082 20.8599 8.58154 20.4036Z" fill="white"/>
<path d="M10.9703 11.7874C10.915 11.7199 10.8327 11.6812 10.746 11.6812H5.57953C5.48826 11.6812 5.40373 11.7231 5.34753 11.7954C5.29313 11.8678 5.27514 11.9609 5.29942 12.0486L5.97563 14.463C6.01115 14.5888 6.1249 14.6743 6.25484 14.6743H10.2626C10.4007 14.6743 10.5189 14.5772 10.5468 14.4414L10.8233 13.0561C10.8858 12.9689 11.0094 12.8736 11.1996 12.8012C11.4343 12.709 11.7481 12.6564 12.0597 12.6573C12.3681 12.6564 12.6761 12.7081 12.9059 12.799C13.0925 12.8714 13.2125 12.9649 13.2736 13.053L13.5524 14.4414C13.5785 14.5772 13.6976 14.6743 13.8361 14.6743H17.8439C17.9743 14.6743 18.0876 14.5888 18.1227 14.463L18.7984 12.0486C18.8227 11.9604 18.8047 11.8678 18.7503 11.7954C18.6954 11.7231 18.6105 11.6812 18.5197 11.6812H13.3532C13.2665 11.6812 13.1842 11.7199 13.1289 11.7874C13.074 11.8548 13.0515 11.942 13.0686 12.0274L13.1113 12.2392C12.7917 12.1165 12.4266 12.0607 12.0597 12.0598C11.6856 12.0607 11.312 12.1183 10.9869 12.2433L11.0301 12.0274C11.0467 11.9416 11.0252 11.8543 10.9703 11.7874ZM10.282 12.8102C10.2653 12.8399 10.2442 12.866 10.2307 12.8988L10.2626 12.9109L10.0252 14.0947H6.47424L5.96079 12.2594H10.3921L10.282 12.8102ZM18.1379 12.2599L17.624 14.0952H14.0739L13.8366 12.9123L13.8689 12.9001C13.8554 12.8655 13.8334 12.8385 13.8163 12.8071L13.7071 12.2599H18.1379Z" fill="#E82E89"/>
</svg>
