<svg width="39" height="31" viewBox="0 0 39 31" fill="none" xmlns="http://www.w3.org/2000/svg">
<path d="M19.5056 12.9314C16.8737 12.9314 14.9165 11.9482 14.265 10.3038C13.7212 8.92561 14.1312 7.28994 15.4225 5.69817C16.6352 4.20295 18.5052 2.89792 20.6892 2.02596C22.3993 1.34126 24.1558 0.981354 25.7699 0.981354C28.4018 0.981354 30.359 1.96451 31.0105 3.60896C32.1011 6.37409 29.2801 10.0112 24.5862 11.8868C22.8762 12.5686 21.1197 12.9314 19.5056 12.9314ZM25.7699 2.14885C24.3012 2.14885 22.693 2.48242 21.1197 3.11153C19.1188 3.91034 17.4146 5.09247 16.324 6.43846C15.312 7.68789 14.963 8.90513 15.344 9.87073C15.8122 11.0529 17.3652 11.761 19.5027 11.761C20.9713 11.761 22.5796 11.4274 24.1529 10.7983C28.1052 9.21822 30.7487 6.12244 29.9257 4.03909C29.4604 2.85696 27.9074 2.14885 25.7699 2.14885Z" fill="#0E0927"/>
<path d="M20.39 15.1669C17.758 15.1669 15.8008 14.1838 15.1494 12.5393L14.2653 10.3038C14.146 10.0024 14.2915 9.663 14.591 9.54303C14.8906 9.42306 15.2279 9.56936 15.3471 9.87075C15.8154 11.0529 17.3683 11.761 19.5059 11.761C20.9745 11.761 22.5828 11.4274 24.1561 10.7983C28.1084 9.21824 30.7519 6.12246 29.9289 4.0391C29.8097 3.73772 29.9551 3.3983 30.2546 3.27833C30.5542 3.15836 30.8915 3.30466 31.0108 3.60605L31.8948 5.84449C32.4387 7.22266 32.0286 8.85833 30.7374 10.4501C29.5247 11.9453 27.6547 13.2503 25.4706 14.1223C23.7606 14.807 22.004 15.1669 20.39 15.1669ZM16.3301 12.3228C16.8943 13.3762 18.3862 13.9965 20.39 13.9965C21.8586 13.9965 23.4669 13.6629 25.0402 13.0338C27.041 12.235 28.7453 11.0529 29.8358 9.70689C30.7636 8.55987 31.1329 7.43919 30.8944 6.51748C30.0481 8.56865 27.7419 10.6227 24.5865 11.8839C22.8765 12.5656 21.1199 12.9285 19.5059 12.9285C18.2786 12.9314 17.1997 12.7178 16.3301 12.3228Z" fill="#0E0927"/>
<path d="M33.2993 27.9275C31.409 27.9275 29.254 27.3218 27.2357 26.2274C25.168 25.1067 23.4638 23.591 22.4314 21.9612C21.3321 20.229 21.114 18.5553 21.8119 17.2532C22.5273 15.9218 24.0774 15.1874 26.1801 15.1874C28.0704 15.1874 30.2254 15.7901 32.2437 16.8874C36.6903 19.3014 39.0721 23.2428 37.6675 25.8617C36.955 27.193 35.402 27.9275 33.2993 27.9275ZM26.1801 16.3549C24.5485 16.3549 23.33 16.8845 22.8356 17.8062C22.3441 18.7191 22.5506 19.9715 23.4114 21.3292C24.3392 22.7922 25.8921 24.1645 27.7883 25.1945C29.6408 26.2011 31.601 26.7541 33.3023 26.7541C34.9338 26.7541 36.1523 26.2245 36.6467 25.3028C37.7053 23.3306 35.4369 19.9452 31.694 17.9145C29.8386 16.9108 27.8814 16.3549 26.1801 16.3549Z" fill="#0E0927"/>
<path d="M32.1651 30.0459C30.2748 30.0459 28.1198 29.4432 26.1015 28.3459C24.0338 27.2252 22.3296 25.7095 21.2971 24.0797C20.1978 22.3475 19.9797 20.6738 20.6806 19.3717L21.8177 17.2532C21.9689 16.9694 22.3237 16.864 22.6058 17.0162C22.8879 17.1683 22.9926 17.5253 22.8414 17.8091L22.8385 17.8121C22.3499 18.725 22.5564 19.9774 23.4143 21.3321C24.342 22.7952 25.895 24.1675 27.7912 25.1975C29.6437 26.204 31.6038 26.757 33.3051 26.757C34.9337 26.757 36.1523 26.2304 36.6467 25.3086L36.6496 25.3057C36.8037 25.0219 37.1556 24.9166 37.4377 25.0687C37.7198 25.2209 37.8274 25.5778 37.6733 25.8617L36.5362 27.9801C35.8178 29.3115 34.2648 30.0459 32.1651 30.0459ZM21.5938 20.1529C21.2448 21.0424 21.4804 22.2012 22.2743 23.4506C23.202 24.9136 24.755 26.2859 26.6512 27.3159C28.5037 28.3225 30.4609 28.8755 32.1622 28.8755C33.6629 28.8755 34.8145 28.4278 35.3729 27.6378C34.7651 27.828 34.0671 27.9275 33.2993 27.9275C31.409 27.9275 29.254 27.3218 27.2357 26.2274C25.168 25.1067 23.4638 23.591 22.4313 21.9612C22.0416 21.3468 21.7625 20.7381 21.5938 20.1529Z" fill="#0E0927"/>
<path d="M10.4409 23.5471C10.0977 23.5471 9.74581 23.5354 9.39973 23.512C7.05572 23.3569 4.87747 22.6927 3.26632 21.6452C1.55048 20.5304 0.660566 19.0995 0.756537 17.6219C0.936846 14.8801 4.4267 12.8904 9.05366 12.8904C9.39682 12.8904 9.74872 12.9021 10.0948 12.9255C12.4388 13.0806 14.6171 13.7448 16.2282 14.7924C17.944 15.9072 18.834 17.338 18.738 18.8157C18.5577 21.5574 15.0678 23.5471 10.4409 23.5471ZM9.05656 14.0608C5.18865 14.0608 2.05651 15.6585 1.91982 17.7009C1.85293 18.7367 2.55381 19.7901 3.90031 20.665C5.3486 21.6071 7.32909 22.2041 9.47826 22.3474C9.79816 22.3679 10.1239 22.3796 10.4409 22.3796C14.3088 22.3796 17.4409 20.782 17.5776 18.7396C17.6445 17.7038 16.9436 16.6504 15.5971 15.7755C14.1488 14.8333 12.1683 14.2364 10.0192 14.093C9.69637 14.0696 9.37356 14.0608 9.05656 14.0608Z" fill="#0E0927"/>
<path d="M10.2838 25.9524C9.94065 25.9524 9.59166 25.9407 9.24268 25.9173C4.20275 25.5808 0.407542 22.9941 0.602392 20.0242L0.759435 17.6219C0.779793 17.3 1.05898 17.0571 1.37888 17.0776C1.69879 17.0981 1.94308 17.379 1.91981 17.7009V17.7038C1.85292 18.7396 2.55671 19.7901 3.9003 20.665C5.34859 21.6072 7.32908 22.2041 9.47824 22.3475C9.79815 22.3679 10.1239 22.3796 10.4409 22.3796C14.3088 22.3796 17.4409 20.782 17.5776 18.7396C17.598 18.4178 17.8742 18.1749 18.1971 18.1954C18.517 18.2159 18.7612 18.4938 18.738 18.8186V18.8216L18.5809 21.2209C18.4006 23.9597 14.9108 25.9494 10.2838 25.9524ZM1.75986 20.3519C1.87328 22.4938 5.23517 24.4776 9.31829 24.7498C9.6411 24.7702 9.95519 24.7761 10.2809 24.7819C13.9831 24.7819 17.0105 23.3189 17.3828 21.4053C15.9257 22.7249 13.4189 23.5501 10.4409 23.5501C10.0977 23.5501 9.7458 23.5384 9.39972 23.515C7.05571 23.3599 4.87746 22.6957 3.26631 21.6481C2.6585 21.2502 2.15538 20.8142 1.75986 20.3519Z" fill="#0E0927"/>
<path d="M23.9088 8.80274C23.7139 8.80274 23.522 8.70325 23.4115 8.52476L21.8061 5.89423L20.7796 6.54967C20.5091 6.72231 20.1485 6.6433 19.9769 6.36825C19.8053 6.09613 19.8838 5.7333 20.1572 5.56066L21.6811 4.58628C21.812 4.50143 21.9719 4.47509 22.1231 4.5102C22.2744 4.54532 22.4052 4.64188 22.4867 4.77355L24.4003 7.91029C24.5689 8.18534 24.4817 8.54524 24.2083 8.71495C24.1182 8.77348 24.0135 8.80274 23.9088 8.80274Z" fill="#E82E89"/>
<path d="M29.0069 23.8105C28.8876 23.8105 28.7684 23.7754 28.6637 23.6993C28.4049 23.5091 28.3467 23.1433 28.5357 22.8829L30.3417 20.387L29.3471 19.6818C29.0854 19.4945 29.0214 19.1317 29.2075 18.8654C29.3936 18.6021 29.7543 18.5377 30.0189 18.725L31.4963 19.7725C31.6242 19.8632 31.7086 20.0008 31.7348 20.1558C31.7609 20.3109 31.7231 20.4689 31.6301 20.5947L29.4751 23.5706C29.3646 23.7286 29.1872 23.8105 29.0069 23.8105Z" fill="#E82E89"/>
<path d="M8.89957 20.6357C8.67564 20.6357 8.46334 20.504 8.36737 20.2875C8.03293 19.5326 8.24814 18.0432 9.21075 17.6131C9.98434 17.2678 10.2373 17.0191 10.313 16.9196C10.2839 16.8933 10.2344 16.8552 10.1588 16.8113C9.1555 16.2232 7.36695 16.8757 7.09649 17.1244C6.86383 17.341 6.49449 17.338 6.27637 17.1069C6.05826 16.8757 6.05244 16.5217 6.27637 16.2964C6.84056 15.7287 9.23402 14.9153 10.7463 15.8019C11.4035 16.1881 11.5228 16.6475 11.5053 16.9635C11.4704 17.6014 10.8917 18.1486 9.68479 18.6869C9.53356 18.7542 9.43468 19.0205 9.39979 19.2868L12.6337 18.2714C12.942 18.1749 13.2677 18.3475 13.3637 18.6548C13.4596 18.962 13.2881 19.2926 12.9827 19.3892L9.07407 20.6152C9.0159 20.6269 8.95774 20.6357 8.89957 20.6357Z" fill="#E82E89"/>
</svg>
