<svg width="82" height="61" viewBox="0 0 82 61" fill="none"
  xmlns="http://www.w3.org/2000/svg">
  <path d="M8.12327 15.4157L5.81965 12.7862C5.11541 11.9824 3.91395 11.914 3.13609 12.6334C2.35853 13.3532 2.29919 14.5887 3.0036 15.3928L5.30722 18.0222C5.73191 18.5072 6.33703 18.7244 6.92134 18.663C7.30636 18.6226 7.68218 18.461 7.99092 18.175C8.7685 17.4554 8.82783 16.2199 8.12327 15.4157Z" fill="black"/>
  <path d="M68.0037 4.41568L70.3073 1.78622C71.0115 0.982403 72.213 0.913963 72.9909 1.63343C73.7684 2.35316 73.8278 3.58868 73.1234 4.39277L70.8197 7.02223C70.395 7.50718 69.7899 7.72445 69.2056 7.66303C68.8206 7.62257 68.4448 7.46097 68.136 7.17501C67.3585 6.45542 67.2991 5.2199 68.0037 4.41568Z" fill="black"/>
  <path d="M8.12327 47.3932L5.81965 50.0226C5.11541 50.8264 3.91395 50.8949 3.13609 50.1754C2.35853 49.4557 2.29919 48.2202 3.0036 47.4161L5.30722 44.7866C5.73191 44.3017 6.33703 44.0844 6.92134 44.1458C7.30636 44.1863 7.68218 44.3479 7.99092 44.6338C8.7685 45.3534 8.82783 46.5889 8.12327 47.3932Z" fill="black"/>
  <path d="M7.64433 31.1205C7.57817 30.0459 6.67453 29.2414 5.62572 29.3238L2.19661 29.5932C1.1478 29.6755 0.351406 30.6137 0.417565 31.6882C0.470645 32.553 1.06611 33.2427 1.84291 33.4363C2.03161 33.4834 2.23112 33.5011 2.43617 33.4849L5.86529 33.2155C6.91395 33.1331 7.71042 32.1952 7.64433 31.1205Z" fill="black"/>
  <path d="M73.4172 15.1205C73.4834 14.0459 74.387 13.2414 75.4358 13.3238L78.8649 13.5932C79.9137 13.6755 80.7101 14.6137 80.644 15.6882C80.5909 16.553 79.9954 17.2427 79.2186 17.4363C79.0299 17.4834 78.8304 17.5011 78.6254 17.4849L75.1962 17.2155C74.1476 17.1331 73.3511 16.1952 73.4172 15.1205Z" fill="black"/>
  <circle cx="41.833" cy="31" r="28.5" stroke="black" stroke-width="3"/>
  <circle cx="41.833" cy="31" r="28.5" stroke="#EFFF54" stroke-width="4"/>
  <path d="M36.6949 26.8335H33.2635C32.9501 26.8343 32.6498 26.9593 32.4285 27.1813C32.2072 27.4032 32.0829 27.7039 32.083 28.0173V39.1676C32.0829 39.481 32.2072 39.7816 32.4285 40.0036C32.6498 40.2255 32.9501 40.3506 33.2635 40.3513H36.6949C37.0086 40.3507 37.3093 40.2257 37.5312 40.0039C37.7531 39.782 37.878 39.4813 37.8787 39.1676V28.0173C37.878 27.7035 37.7531 27.4028 37.5312 27.181C37.3093 26.9591 37.0086 26.8342 36.6949 26.8335Z" fill="black"/>
  <path d="M53.4073 30.7155C53.4073 30.1805 53.195 29.6673 52.8171 29.2885C52.7849 29.2536 52.7502 29.2211 52.7133 29.1912C53.1318 29.0139 53.4762 28.6974 53.6883 28.2953C53.9003 27.8932 53.967 27.4303 53.8769 26.9847C53.7869 26.5392 53.5457 26.1384 53.1942 25.8502C52.8427 25.562 52.4024 25.4041 51.9479 25.4031H44.91C44.949 25.335 44.9846 25.2734 45.0171 25.2118C45.2196 24.8848 45.3808 24.534 45.4971 24.1674C45.6522 23.6592 45.7469 23.1345 45.7792 22.6042C45.8242 21.8379 45.7153 21.0705 45.4591 20.3469C45.2029 19.6234 44.8045 18.9584 44.2873 18.3912C44.0925 18.1699 43.8552 17.9901 43.5894 17.8625C43.3236 17.7349 43.0348 17.6621 42.7403 17.6485C42.338 17.6331 41.9447 17.7702 41.6392 18.0324C41.3337 18.2946 41.1385 18.6626 41.0928 19.0626C41.0901 19.0775 41.089 19.0928 41.0895 19.108V21.9491L39.2084 26.7166C39.0544 27.1044 38.8226 27.4564 38.5273 27.7512V38.7393C38.9917 38.8672 39.4641 38.9636 39.9414 39.028C40.1188 39.0517 40.2976 39.0636 40.4765 39.0636H50.0149C50.4863 39.063 50.9385 38.8766 51.2733 38.5447C51.4381 38.3799 51.5687 38.1842 51.6578 37.9688C51.7468 37.7535 51.7925 37.5226 51.7922 37.2896C51.7933 36.8595 51.6364 36.444 51.3511 36.122C51.7268 36.0431 52.0725 35.8596 52.3485 35.5927C52.6245 35.3258 52.8194 34.9865 52.9109 34.6136C53.0024 34.2408 52.9868 33.8497 52.8657 33.4854C52.7447 33.1211 52.5232 32.7984 52.2268 32.5545C52.5788 32.3929 52.8771 32.1338 53.0864 31.8079C53.2956 31.4819 53.407 31.1029 53.4073 30.7155Z" fill="black"/>
</svg>
