<svg width="75" height="77" viewBox="0 0 75 77" fill="none" xmlns="http://www.w3.org/2000/svg">
<path d="M37.9264 73.5457C56.9525 73.5457 72.3762 57.6655 72.3762 38.0764C72.3762 18.4872 56.9525 2.60699 37.9264 2.60699C18.9003 2.60699 3.47656 18.4872 3.47656 38.0764C3.47656 57.6655 18.9003 73.5457 37.9264 73.5457Z" fill="#131125"/>
<path d="M37.9263 2.04428C18.5984 2.04428 2.92993 18.1764 2.92993 38.0763C2.92993 57.9762 18.5984 74.1084 37.9263 74.1084C57.2541 74.1084 72.9226 57.9762 72.9226 38.0763C72.9226 18.1764 57.2541 2.04428 37.9263 2.04428ZM62.3318 60.0633L56.9481 54.9135C56.1267 55.8966 55.2343 56.8155 54.2794 57.6611L59.2812 63.2042C54.5791 67.4441 48.6768 70.3069 42.1666 71.183L41.6288 63.6237C40.4207 63.808 39.1847 63.9042 37.9263 63.9042C36.6678 63.9042 35.4318 63.808 34.2237 63.6237L33.6859 71.183C27.1757 70.3077 21.2734 67.4441 16.5713 63.2042L21.5731 57.6611C20.6183 56.8155 19.7258 55.8966 18.9044 54.9135L13.5207 60.0633C9.40265 55.222 6.62212 49.1451 5.77198 42.4421L13.114 41.8885C12.935 40.6446 12.8416 39.372 12.8416 38.0763C12.8416 36.7807 12.935 35.508 13.114 34.2642L5.77198 33.7105C6.62212 27.0076 9.40265 20.9307 13.5207 16.0894L18.9044 21.2392C19.7258 20.2561 20.6183 19.3372 21.5731 18.4915L16.5713 12.9485C21.2734 8.70856 27.1757 5.84574 33.6859 4.96962L34.2237 12.5289C35.4318 12.3447 36.6678 12.2484 37.9263 12.2484C39.1847 12.2484 40.4207 12.3447 41.6288 12.5289L42.1666 4.96962C48.6768 5.84492 54.5791 8.70856 59.2812 12.9485L54.2794 18.4915C55.2343 19.3372 56.1267 20.2561 56.9481 21.2392L62.3318 16.0894C66.4499 20.9307 69.2304 27.0076 70.0805 33.7105L62.7385 34.2642C62.9175 35.508 63.0109 36.7807 63.0109 38.0763C63.0109 39.372 62.9175 40.6438 62.7385 41.8885L70.0805 42.4421C69.2304 49.1443 66.4499 55.2212 62.3318 60.0633Z" fill="#F6F6F6"/>
<path d="M26.3301 32.196C22.793 35.9464 22.6451 41.7938 25.8276 45.7204C23.6008 41.4952 23.8277 35.9308 26.5427 31.9706L26.3301 32.196Z" fill="#F6F6F6"/>
<path d="M37.9261 13.6025C24.8193 13.6025 14.1566 24.5816 14.1566 38.0755C14.1566 51.5694 24.8201 62.5485 37.9261 62.5485C51.033 62.5485 61.6957 51.5694 61.6957 38.0755C61.6957 24.5816 51.0322 13.6025 37.9261 13.6025ZM41.5672 14.8916C41.5672 14.8916 41.6743 14.9113 41.8604 14.9459C42.0466 14.9829 42.3151 15.024 42.6323 15.0939C42.9487 15.1713 43.3202 15.2519 43.7133 15.3555C43.9091 15.4123 44.1112 15.4715 44.3158 15.5316C44.5211 15.5916 44.7305 15.6492 44.9342 15.7249C45.3441 15.8705 45.7588 16.0013 46.1335 16.1642C46.5122 16.3172 46.8662 16.4571 47.1594 16.6019C47.455 16.7409 47.7035 16.8519 47.8737 16.9383C48.0423 17.0272 48.139 17.0782 48.139 17.0782L47.3176 18.763C47.3176 18.763 47.2289 18.7161 47.0739 18.6338C46.9173 18.554 46.6888 18.4528 46.4171 18.3245C46.1479 18.1904 45.8219 18.0629 45.4743 17.9222C45.13 17.7725 44.748 17.6532 44.3717 17.5191C44.1839 17.4484 43.9914 17.3965 43.8028 17.3406C43.6142 17.2855 43.4289 17.2312 43.2491 17.1785C42.8871 17.0839 42.546 17.0091 42.2551 16.9375C41.9627 16.8725 41.7166 16.8355 41.5448 16.8018C41.373 16.7705 41.2748 16.7524 41.2748 16.7524L41.5672 14.8916ZM42.5803 57.2177H38.0372H33.4941C35.45 54.3121 36.7788 51.1063 37.6241 47.6692C33.8536 50.2573 28.716 49.8871 25.3339 46.5052C21.4403 42.6124 21.3484 36.2056 25.1301 32.1968L37.6385 18.9349L50.5192 31.8135C54.4128 35.7063 54.5047 42.113 50.723 46.1218C47.4303 49.6123 42.2895 50.1331 38.4439 47.6404C39.2884 51.0882 40.6196 54.3039 42.5803 57.2177ZM33.4973 15.0364C33.6842 15.0018 33.9503 14.9533 34.2707 14.894C34.5903 14.8332 34.9682 14.797 35.3709 14.7402C35.5723 14.7098 35.7816 14.6966 35.9942 14.6801C36.2067 14.6637 36.4232 14.6464 36.639 14.63C37.0712 14.6069 37.5051 14.6036 37.9102 14.5913C38.3161 14.6012 38.6948 14.611 39.02 14.6193C39.3444 14.6365 39.6144 14.6629 39.803 14.676C39.9916 14.6908 40.1002 14.6999 40.1002 14.6999L39.9276 16.5772C39.9276 16.5772 39.5297 16.5476 38.9337 16.5031C38.6349 16.4957 38.2857 16.4867 37.9118 16.4768C37.5378 16.4892 37.1391 16.4916 36.7404 16.513C36.5415 16.5286 36.3425 16.5443 36.1476 16.5599C35.9518 16.5755 35.7593 16.5871 35.5739 16.6158C35.2039 16.6685 34.8556 16.7006 34.5615 16.7565C34.2675 16.8108 34.0222 16.8561 33.8504 16.8873C33.6778 16.9161 33.582 16.9424 33.582 16.9424L33.2048 15.0972C33.2056 15.0964 33.3103 15.0684 33.4973 15.0364ZM25.7286 18.2332C25.8884 18.1279 26.1145 17.974 26.3989 17.812C26.6826 17.6483 27.0046 17.441 27.3697 17.2575C27.5503 17.1621 27.7373 17.0634 27.9274 16.9638C28.1168 16.8626 28.3181 16.7779 28.5139 16.6833C28.712 16.5928 28.9078 16.4966 29.1044 16.4118C29.3025 16.3312 29.4983 16.2522 29.6868 16.1749C30.0624 16.0137 30.4243 15.8968 30.7319 15.7883C30.8861 15.7348 31.0276 15.6862 31.1522 15.6426C31.2792 15.6056 31.3903 15.5727 31.4814 15.5464C31.6636 15.4929 31.7682 15.4625 31.7682 15.4625L32.2612 17.2781C32.2612 17.2781 32.1653 17.306 31.9975 17.3546C31.9137 17.3793 31.8122 17.4089 31.6947 17.4426C31.5797 17.4829 31.4502 17.5282 31.308 17.5767C31.0252 17.6762 30.692 17.7832 30.3476 17.9321C30.1742 18.002 29.9944 18.0752 29.8115 18.1493C29.6309 18.2274 29.4503 18.3154 29.269 18.3993C29.0884 18.4857 28.903 18.5631 28.7296 18.656C28.5546 18.7482 28.3837 18.8386 28.2167 18.9267C27.8803 19.0937 27.5847 19.2862 27.3234 19.4359C27.0613 19.5848 26.8536 19.7271 26.7073 19.8234C26.5603 19.9204 26.4764 19.9755 26.4764 19.9755L25.4761 18.3961C25.4785 18.3985 25.5696 18.3385 25.7286 18.2332ZM19.5986 24.0921C19.7097 23.9341 19.8815 23.7178 20.0804 23.4537C20.2762 23.1863 20.5263 22.8927 20.7931 22.5776C21.0528 22.2551 21.362 21.9425 21.6585 21.6167C21.9589 21.2951 22.2817 20.9973 22.5733 20.7052C22.8801 20.4313 23.1662 20.1754 23.4123 19.9566C23.9228 19.5428 24.264 19.2672 24.264 19.2672L25.3618 20.776C25.3618 20.776 25.0486 21.0294 24.578 21.4102C24.3519 21.6118 24.089 21.8479 23.8062 22.0996C23.5385 22.3686 23.2413 22.6418 22.9648 22.9379C22.6924 23.2373 22.4071 23.5253 22.169 23.8223C21.9237 24.1126 21.6928 24.3825 21.513 24.6285C21.3301 24.872 21.1711 25.0702 21.0696 25.2158C20.9689 25.3623 20.9106 25.4453 20.9106 25.4453L19.426 24.3413C19.426 24.3413 19.4892 24.2509 19.5986 24.0921ZM16.1509 31.0575C16.2556 30.7399 16.3778 30.3705 16.5081 29.974C16.6607 29.5866 16.8077 29.1662 16.9835 28.7582C17.3311 27.9404 17.7202 27.1416 18.0446 26.5617C18.2076 26.2721 18.3402 26.0286 18.4377 25.8616C18.5399 25.6971 18.5983 25.6033 18.5983 25.6033L20.1491 26.6061C20.1491 26.6061 20.0956 26.6925 20.0013 26.843C19.911 26.9969 19.7896 27.2206 19.6402 27.4872C19.3413 28.0202 18.9842 28.7549 18.6638 29.5059C18.5016 29.8811 18.3674 30.2677 18.2267 30.6239C18.1069 30.9884 17.9942 31.3281 17.8983 31.6193C17.7338 32.2108 17.6243 32.6057 17.6243 32.6057L15.8521 32.1294C15.8529 32.1302 15.9727 31.7016 16.1509 31.0575ZM15.2273 40.4159C15.2129 40.2218 15.1921 39.9437 15.1674 39.6097C15.1346 39.2766 15.1362 38.8858 15.1234 38.4679C15.1034 38.05 15.129 37.6041 15.1362 37.1591C15.1378 36.9361 15.153 36.7132 15.1706 36.4943C15.1865 36.2755 15.2025 36.06 15.2185 35.8519C15.2528 35.4348 15.312 35.049 15.3495 34.7166C15.3671 34.5504 15.3927 34.3991 15.4166 34.2658C15.4398 34.1317 15.4598 34.0149 15.4766 33.9195C15.5101 33.727 15.5293 33.6175 15.5293 33.6175L17.3279 33.9738C17.3279 33.9738 17.3103 34.0749 17.2799 34.2518C17.2647 34.3398 17.2456 34.4476 17.2248 34.5702C17.2016 34.6927 17.1784 34.8326 17.1625 34.9856C17.1289 35.2916 17.073 35.6462 17.0418 36.0296C17.0274 36.2221 17.0131 36.4195 16.9979 36.621C16.9811 36.8226 16.9667 37.0274 16.9659 37.2323C16.9595 37.6428 16.9347 38.0533 16.9539 38.4383C16.9659 38.8233 16.9635 39.1828 16.9947 39.4896C17.017 39.7965 17.0362 40.0523 17.049 40.2316C17.0658 40.4102 17.081 40.5122 17.081 40.5122L15.2608 40.7219C15.2616 40.7203 15.2449 40.6101 15.2273 40.4159ZM17.5748 48.6835C17.4893 48.51 17.3598 48.264 17.2312 47.9563C17.1641 47.8041 17.0914 47.6388 17.0146 47.4636C16.9771 47.3764 16.9379 47.2859 16.898 47.1946C16.862 47.1008 16.8253 47.0045 16.7877 46.9075C16.6383 46.5183 16.4737 46.1054 16.3427 45.6801C16.2732 45.4686 16.2045 45.2572 16.1365 45.0491C16.0782 44.8377 16.0207 44.6295 15.9648 44.4288C15.9112 44.2273 15.8513 44.0339 15.8098 43.8472C15.7682 43.6605 15.7283 43.4836 15.6915 43.3207C15.6164 42.9949 15.5573 42.7226 15.5285 42.5293C15.4949 42.3368 15.4758 42.2274 15.4758 42.2274L17.2783 41.8959C17.2783 41.8959 17.2959 41.9971 17.3263 42.1739C17.3518 42.3516 17.4078 42.6017 17.4765 42.9011C17.51 43.0509 17.546 43.2129 17.5851 43.3849C17.6227 43.5568 17.6794 43.7337 17.7282 43.9196C17.7793 44.1047 17.832 44.2955 17.8856 44.4897C17.9487 44.6814 18.0118 44.8755 18.0757 45.0696C18.1956 45.4612 18.3474 45.8405 18.4848 46.1983C18.5192 46.288 18.5527 46.376 18.5855 46.4624C18.6222 46.5471 18.6582 46.6294 18.6934 46.71C18.7637 46.8704 18.8308 47.0226 18.8923 47.1625C19.0106 47.4455 19.1304 47.6709 19.2087 47.8313C19.2878 47.9909 19.3334 48.0822 19.3334 48.0822L17.7114 48.9567C17.7106 48.9567 17.661 48.858 17.5748 48.6835ZM22.6572 55.5239C22.5142 55.3955 22.3224 55.1989 22.0859 54.9694C21.8462 54.7432 21.5857 54.4594 21.3061 54.1558C21.0193 53.8588 20.7452 53.5133 20.4591 53.1777C20.1763 52.8396 19.919 52.4801 19.6649 52.1535C19.4292 51.8129 19.2087 51.4954 19.0201 51.2231C18.6686 50.6596 18.4345 50.2844 18.4345 50.2844L19.9981 49.303C19.9981 49.303 20.2139 49.6485 20.5367 50.1668C20.71 50.4177 20.913 50.7097 21.1295 51.0232C21.3644 51.3226 21.5993 51.6541 21.8606 51.9651C22.1243 52.2728 22.3752 52.5928 22.6396 52.8643C22.8969 53.1431 23.1358 53.4056 23.3571 53.6129C23.5753 53.8235 23.751 54.0053 23.8829 54.1229C24.0147 54.2405 24.0898 54.3072 24.0898 54.3072L22.8817 55.7238C22.8817 55.7246 22.8002 55.6514 22.6572 55.5239ZM30.0688 60.1324C30.0688 60.1324 29.6653 59.9687 29.0604 59.7235C28.764 59.5861 28.418 59.4249 28.0481 59.253C27.6869 59.0613 27.297 58.8655 26.9183 58.6491C26.1616 58.2139 25.4265 57.7393 24.8968 57.351C24.6323 57.1568 24.4118 56.9948 24.2576 56.8813C24.1082 56.7611 24.0235 56.692 24.0235 56.692L25.1405 55.1981C25.1405 55.1981 25.2188 55.2615 25.3562 55.3725C25.4985 55.477 25.7014 55.6259 25.9443 55.8044C26.4317 56.1614 27.1077 56.5974 27.8036 56.9981C28.1519 57.1972 28.5107 57.3757 28.8423 57.5534C29.1827 57.7113 29.5007 57.8594 29.7731 57.9861C30.3292 58.2115 30.7 58.362 30.7 58.362L30.0688 60.1324ZM38.022 61.5605C37.8327 61.5654 37.5618 61.5514 37.2374 61.5457C37.0752 61.5399 36.8994 61.5383 36.7133 61.53C36.5279 61.5152 36.3321 61.5004 36.1292 61.4848C35.927 61.4667 35.7169 61.4568 35.5052 61.4313C35.2934 61.4042 35.0785 61.3754 34.8636 61.3474C34.0038 61.2347 33.1537 61.0537 32.5217 60.8958C32.2037 60.8267 31.9448 60.7411 31.7618 60.6901C31.5797 60.6367 31.475 60.6062 31.475 60.6062L31.992 58.7972C31.992 58.7972 32.0878 58.8252 32.2556 58.8737C32.4234 58.9206 32.6607 59.0004 32.954 59.0629C33.5348 59.2077 34.3163 59.3747 35.1073 59.4784C35.3046 59.5047 35.5028 59.5302 35.6969 59.5557C35.8919 59.5795 36.0852 59.5878 36.2714 59.6042C36.4576 59.619 36.6382 59.633 36.8091 59.647C36.9801 59.6552 37.1423 59.6561 37.2917 59.661C37.5906 59.6667 37.8399 59.6799 38.014 59.6758C38.1882 59.6709 38.2881 59.6692 38.2881 59.6692L38.3201 61.5539C38.3201 61.5531 38.2114 61.5555 38.022 61.5605ZM46.2382 59.9201C46.0608 59.9892 45.8075 60.0888 45.5031 60.2072C45.1971 60.3216 44.8343 60.4359 44.4484 60.5675C44.0577 60.6819 43.6398 60.8045 43.2187 60.9114C42.3742 61.1163 41.5201 61.2783 40.8745 61.3581C40.5517 61.3984 40.2824 61.4354 40.0938 61.4544C39.9045 61.4692 39.7966 61.4774 39.7966 61.4774L39.6448 59.5985C39.6448 59.5985 39.7439 59.5911 39.9181 59.5779C40.0914 59.5598 40.3383 59.5253 40.6348 59.4891C41.2276 59.4158 42.0122 59.2661 42.7873 59.0794C43.174 58.9807 43.5567 58.8688 43.9163 58.7635C44.2702 58.6417 44.6042 58.5381 44.8847 58.4328C45.1643 58.3242 45.3968 58.2329 45.5598 58.1687C45.7236 58.107 45.8139 58.0626 45.8139 58.0626L46.5146 59.805C46.5146 59.805 46.4171 59.8527 46.2382 59.9201ZM53.4683 55.1603C53.4332 55.1981 53.3781 55.2491 53.3069 55.3141C53.1655 55.4441 52.9642 55.63 52.7221 55.8538C52.4776 56.0742 52.1796 56.3153 51.8663 56.5818C51.5419 56.8327 51.1984 57.1058 50.8428 57.36C50.4825 57.6085 50.1301 57.8676 49.7785 58.079C49.6052 58.1876 49.4374 58.2937 49.2792 58.3933C49.1186 58.4904 48.9628 58.5751 48.8205 58.6565C48.5353 58.8161 48.3004 58.9568 48.1278 59.0382C47.9576 59.1246 47.8601 59.174 47.8601 59.174L47.0508 57.4834C47.0508 57.4834 47.1402 57.4382 47.2968 57.3592C47.4558 57.2852 47.6708 57.1552 47.9337 57.0088C48.0639 56.9331 48.2077 56.8566 48.3555 56.7669C48.5017 56.6748 48.656 56.5777 48.815 56.4773C49.1385 56.284 49.4621 56.0438 49.7937 55.8159C50.1213 55.5823 50.4369 55.3306 50.7358 55.0994C51.0234 54.8534 51.2982 54.6321 51.5236 54.4289C51.7465 54.2233 51.9319 54.0522 52.0621 53.9321C52.1276 53.872 52.178 53.8251 52.2107 53.7906C52.2443 53.7568 52.2619 53.7387 52.2619 53.7387L53.5235 55.1052C53.5235 55.1043 53.5043 55.1241 53.4683 55.1603ZM58.4158 48.2204C58.395 48.2681 58.363 48.3372 58.3183 48.4236C58.2312 48.5963 58.1058 48.844 57.9563 49.1409C57.8053 49.4371 57.6072 49.7703 57.4066 50.1331C57.1925 50.4884 56.9608 50.8644 56.7187 51.2346C56.4654 51.5966 56.2281 51.97 55.9716 52.2942C55.847 52.4595 55.7271 52.6191 55.6129 52.7705C55.4994 52.9227 55.3804 53.0559 55.2773 53.1851C55.0648 53.4376 54.8962 53.6565 54.7635 53.7955C54.6341 53.9386 54.5606 54.0201 54.5606 54.0201L53.2175 52.7392C53.2175 52.7392 53.2854 52.6644 53.4044 52.5327C53.5275 52.4052 53.6817 52.2028 53.8774 51.97C53.9725 51.8516 54.0828 51.729 54.1874 51.5883C54.2929 51.4493 54.4032 51.302 54.5182 51.1499C54.7547 50.8512 54.9729 50.5057 55.2062 50.1734C55.4291 49.8328 55.6424 49.4856 55.8398 49.1582C56.0244 48.8234 56.2081 48.5174 56.3464 48.2443C56.4846 47.9711 56.5996 47.7433 56.6795 47.5837C56.7211 47.5047 56.7498 47.4414 56.769 47.3969C56.789 47.3533 56.7994 47.3295 56.7994 47.3295L58.4493 48.148C58.4485 48.148 58.4373 48.1735 58.4158 48.2204ZM60.5347 40.9482C60.4852 41.2789 60.4269 41.6647 60.3645 42.0777C60.2798 42.4865 60.2055 42.9266 60.1009 43.3594C59.9922 43.7913 59.8963 44.2264 59.7701 44.6246C59.7109 44.8245 59.6534 45.0178 59.5999 45.2013C59.5448 45.3847 59.4808 45.5534 59.4281 45.7113C59.3162 46.0256 59.2347 46.2913 59.158 46.4706C59.0861 46.6516 59.0454 46.7544 59.0454 46.7544L57.3483 46.047C57.3483 46.047 57.3859 45.9524 57.4522 45.7862C57.5233 45.6216 57.5976 45.3765 57.7007 45.0877C57.7494 44.9421 57.8085 44.7867 57.8589 44.618C57.9084 44.4494 57.9611 44.2709 58.0155 44.0874C58.1329 43.7213 58.2192 43.3207 58.3199 42.9234C58.4166 42.5252 58.4837 42.1205 58.5628 41.7445C58.6203 41.3636 58.6738 41.0091 58.7194 40.7047C58.7833 40.0926 58.8257 39.6846 58.8257 39.6846L60.6506 39.8401C60.6498 39.8401 60.6034 40.2835 60.5347 40.9482ZM59.7181 31.1224C59.7317 31.1726 59.7525 31.2467 59.7781 31.3404C59.83 31.5288 59.9035 31.797 59.9922 32.1187C60.0737 32.442 60.1536 32.8245 60.2463 33.2317C60.3286 33.6414 60.3981 34.0823 60.4748 34.5216C60.5267 34.9642 60.5914 35.406 60.6282 35.8231C60.6578 36.2402 60.6921 36.6293 60.7081 36.9633C60.7249 37.6321 60.7353 38.0771 60.7353 38.0771H58.904C58.904 38.0771 58.8936 37.6666 58.8784 37.0505C58.864 36.7428 58.8312 36.3849 58.8049 36.0016C58.7713 35.6182 58.7106 35.2127 58.6643 34.8046C58.5931 34.4007 58.5292 33.9951 58.4541 33.6192C58.3678 33.2449 58.2959 32.8936 58.2208 32.5958C58.1393 32.2997 58.0714 32.0537 58.0235 31.8809C57.9995 31.7946 57.9811 31.7263 57.9683 31.6802C57.9563 31.6341 57.9468 31.6103 57.9468 31.6103L59.6942 31.0468C59.695 31.0459 59.7046 31.0723 59.7181 31.1224ZM55.9453 23.6849C56.0627 23.8379 56.2321 24.0559 56.4167 24.3315C56.6028 24.6054 56.8321 24.9172 57.0455 25.2734C57.1549 25.4495 57.2684 25.6313 57.3835 25.8164C57.4977 26.0023 57.6 26.1989 57.7094 26.3914C57.8157 26.5855 57.9292 26.7756 58.0275 26.9714C58.1249 27.1663 58.2208 27.3596 58.3135 27.5456C58.5061 27.9141 58.6515 28.2753 58.7881 28.5796C58.9263 28.8824 59.0246 29.1423 59.0933 29.325C59.1628 29.5068 59.2028 29.6104 59.2028 29.6104L57.4945 30.2907C57.4945 30.2907 57.4578 30.1953 57.3938 30.0283C57.3307 29.8605 57.2412 29.6219 57.1134 29.3431C56.9879 29.0642 56.8553 28.731 56.6771 28.3929C56.5916 28.2218 56.5038 28.0449 56.4151 27.8648C56.3248 27.6854 56.2201 27.511 56.1226 27.3317C56.022 27.1548 55.9277 26.9738 55.823 26.8027C55.7167 26.6324 55.6129 26.4654 55.5122 26.3034C55.3172 25.9751 55.1047 25.6888 54.9345 25.4363C54.7651 25.1821 54.6093 24.9822 54.5007 24.8415C54.3928 24.7 54.3313 24.6194 54.3313 24.6194L55.7631 23.4438C55.7615 23.4438 55.8286 23.531 55.9453 23.6849ZM53.4516 23.5491C53.4516 23.5491 53.1767 23.2522 52.7636 22.8063C52.5471 22.594 52.2946 22.3464 52.0237 22.0807C51.7385 21.8323 51.4453 21.5534 51.1329 21.2984C50.8165 21.0483 50.5128 20.7817 50.2028 20.5662C49.8984 20.3433 49.6164 20.131 49.3607 19.9714C49.1082 19.8069 48.9012 19.6646 48.751 19.5724C48.6 19.4828 48.5137 19.4318 48.5137 19.4318L49.4398 17.8054C49.4398 17.8054 49.5333 17.8605 49.6978 17.9584C49.8608 18.0579 50.087 18.2126 50.361 18.3919C50.6383 18.5663 50.9451 18.7967 51.2759 19.0394C51.6123 19.2738 51.9438 19.5626 52.2874 19.8349C52.6262 20.1129 52.9458 20.4148 53.255 20.6863C53.549 20.9751 53.8231 21.2441 54.0588 21.4752C54.507 21.9598 54.8059 22.2823 54.8059 22.2823L53.4516 23.5491Z" fill="#F6F6F6"/>
<path d="M50.0247 45.7204C53.2072 41.7939 53.0594 35.9465 49.5222 32.1968L49.3088 31.9714C52.0246 35.9308 52.2508 41.4952 50.0247 45.7204Z" fill="#F6F6F6"/>
<path d="M38.2721 58.7643C49.4805 58.7643 58.5668 49.4091 58.5668 37.869C58.5668 26.3288 49.4805 16.9737 38.2721 16.9737C27.0637 16.9737 17.9774 26.3288 17.9774 37.869C17.9774 49.4091 27.0637 58.7643 38.2721 58.7643Z" fill="white"/>
<g clip-path="url(#clip0_3082:2554)">
<path d="M33.2569 20.9509C34.0036 22.1286 35.4491 23.5321 38.1055 23.5321C40.762 23.5321 42.2081 22.1286 42.9548 20.9509C43.4054 20.2395 43.5149 19.3506 43.2566 18.4497C42.276 15.0021 38.7191 14.2222 38.1055 14.2222C37.492 14.2222 33.9364 15.0021 32.9544 18.4497C32.6981 19.3506 32.8057 20.2389 33.2569 20.9509ZM34.3359 18.5205C34.6999 18.9171 35.0029 19.258 35.39 19.4427C35.777 19.6274 36.2406 19.5922 36.5953 19.4427C36.95 19.2931 37.184 18.9928 37.3308 18.6047C37.4251 18.3465 37.4877 18.0785 37.5175 17.8061C37.3531 17.7609 37.1958 17.6945 37.0496 17.6087C36.7347 17.4155 36.4478 17.091 36.4534 16.7004C36.8143 16.8064 37.0832 16.804 37.3414 16.8143H38.1024H38.8641C39.1229 16.8046 39.3918 16.8064 39.752 16.6992C39.7564 17.0867 39.4695 17.4101 39.1547 17.6032C39.0087 17.6893 38.8515 17.7559 38.6873 17.8012C38.7181 18.0742 38.7818 18.3426 38.8771 18.6011C39.024 18.9892 39.263 19.2931 39.6127 19.439C39.9624 19.585 40.439 19.614 40.818 19.439C41.1969 19.2641 41.5087 18.9135 41.8721 18.5169C41.9206 19.0618 41.6095 19.5971 41.1111 19.9228C41.0287 19.9762 40.9421 20.0231 40.8522 20.0633C40.8416 20.3872 40.7514 21.0387 40.2355 21.5825C39.7483 22.0965 39.0302 22.3569 38.1024 22.3569C37.1746 22.3569 36.4572 22.0965 35.9693 21.5825C35.4541 21.0375 35.3639 20.3872 35.3533 20.0639C35.2634 20.0233 35.1769 19.9761 35.0944 19.9228C34.5985 19.6007 34.288 19.0637 34.3371 18.5205H34.3359Z" fill="#EFD9AB"/>
<path d="M30.0689 19.4191L30.3732 19.6462L30.2998 20.001C30.288 20.0674 30.2814 20.1346 30.2798 20.202C30.2781 20.2809 30.2828 20.3599 30.2942 20.4381C30.3155 20.5916 30.3657 20.74 30.4423 20.8759C30.5193 21.0131 30.6206 21.1361 30.7416 21.2392C30.8725 21.3523 31.0171 21.4494 31.1722 21.5286L31.6619 21.7993L31.4466 22.1565C31.3485 22.3416 31.2789 22.5396 31.24 22.7444C31.1951 22.9626 31.1832 23.1859 31.2045 23.4074C31.2255 23.638 31.2932 23.8623 31.4037 24.0674C31.5082 24.286 31.6781 24.4706 31.8623 24.6529C31.6289 24.5457 31.3844 24.4216 31.1865 24.2291C30.975 24.0408 30.8028 23.8147 30.6793 23.563C30.5695 23.3381 30.4896 23.1004 30.4416 22.8558C30.4304 22.8903 30.4149 22.9242 30.4043 22.9594C30.2977 23.321 30.2435 23.6954 30.2431 24.0716C30.2378 24.445 30.2907 24.8169 30.3999 25.1748C30.4958 25.5381 30.6737 25.8754 30.861 26.2078L31.0359 26.519L30.9948 26.5795C31.6519 27.2111 33.2157 28.5898 34.9742 29.2957C35.0373 29.0538 35.1358 28.822 35.2667 28.6073C35.757 27.9195 37.5585 27.8359 38.0992 27.8268L38.1054 28.1835L38.1123 27.8268C38.6524 27.8359 40.4538 27.9195 40.9442 28.6073C41.0751 28.8221 41.1737 29.0539 41.2373 29.2957C42.9977 28.5898 44.5595 27.2117 45.2198 26.5795L45.1781 26.519L45.3535 26.2078C45.5402 25.8754 45.7182 25.5369 45.814 25.1748C45.9236 24.817 45.9764 24.445 45.9708 24.0716C45.9705 23.6954 45.9163 23.321 45.8097 22.9594C45.7991 22.9242 45.7835 22.8909 45.7723 22.8558C45.7246 23.1005 45.6447 23.3382 45.5346 23.563C45.4116 23.8148 45.2396 24.041 45.0281 24.2291C44.8296 24.4198 44.5857 24.5439 44.3523 24.6529C44.539 24.4712 44.7064 24.286 44.8103 24.0674C44.9208 23.8623 44.9884 23.638 45.0094 23.4074C45.0314 23.1859 45.0194 22.9625 44.974 22.7444C44.9351 22.5396 44.8655 22.3416 44.7674 22.1565L44.5521 21.7993L45.0418 21.5286C45.1969 21.4496 45.3415 21.3524 45.4724 21.2392C45.5933 21.136 45.6948 21.013 45.7723 20.8759C45.8486 20.74 45.8986 20.5916 45.9198 20.4381C45.931 20.3599 45.936 20.281 45.9347 20.202C45.9331 20.1346 45.9262 20.0674 45.9142 20.001L45.8408 19.6462L46.1457 19.4191C46.295 19.3071 46.4444 19.1975 46.5439 19.0449C46.6538 18.8932 46.7352 18.7236 46.7841 18.5442C46.8363 18.35 46.8633 18.1503 46.8644 17.9496C46.8657 17.7484 46.8448 17.5476 46.8022 17.3508L46.7543 17.1461L46.8619 16.9439C47.0212 16.646 47.1618 16.3384 47.2035 16.003C47.2518 15.6607 47.2425 15.313 47.1762 14.9736C47.1024 14.6189 46.9872 14.2735 46.8327 13.9443C46.6792 13.6149 46.4916 13.3017 46.2726 13.0094L46.1077 12.7951L46.1762 12.5305C46.2714 12.1989 46.3294 11.8583 46.3492 11.5145C46.3864 10.8326 46.2422 10.153 45.9304 9.54123C45.8529 9.38901 45.7658 9.2416 45.6697 9.09983C45.5803 8.96853 45.4813 8.84367 45.3735 8.72625L45.0001 8.33753L45.3735 7.97C46.3454 7.01273 47.2465 5.95858 47.7648 4.79C48.0212 4.20873 48.1531 3.5984 48.0915 3.02259C48.0915 2.87606 48.0367 2.73983 48.0131 2.59875C47.9596 2.46494 47.9285 2.32325 47.8538 2.1961C47.7245 1.92961 47.5532 1.68445 47.346 1.46952C47.2303 1.34842 47.1594 1.26971 47.0592 1.21522C46.9642 1.15612 46.8587 1.11503 46.748 1.09412C46.5686 1.05733 46.382 1.0712 46.2104 1.13408C46.1752 1.17474 46.1444 1.21876 46.1183 1.26547C46.0259 1.44202 45.9726 1.63553 45.9621 1.83342C45.9543 1.94732 45.9543 2.06161 45.9621 2.17552C45.9696 2.31357 45.9702 2.45162 45.9683 2.58967C45.9617 2.86568 45.9346 3.14088 45.8875 3.41313C45.7907 3.95265 45.5942 4.47064 45.3075 4.94197C45.0267 5.39842 44.6732 5.8086 44.2602 6.15718C44.5703 5.73966 44.8256 5.28607 45.02 4.80695C45.1981 4.34077 45.3009 3.85058 45.3249 3.35379C45.334 3.10863 45.3246 2.86316 45.2969 2.61933C45.2907 2.56605 45.2807 2.51338 45.2727 2.4607C45.2403 2.52791 45.2104 2.59572 45.1781 2.66233C44.8654 3.3083 44.5196 3.9386 44.142 4.55083C43.9455 4.86556 43.7319 5.16993 43.5023 5.46269C43.342 5.66158 43.1662 5.84821 42.9765 6.02094C43.0051 6.09663 43.0387 6.17171 43.0617 6.24861C43.2266 6.81837 43.2702 7.41174 43.1314 7.96152C42.996 7.44437 42.7754 6.95199 42.4781 6.50352C42.1999 6.09341 41.8471 5.73617 41.437 5.44937C41.0301 5.17751 40.6019 4.97467 40.246 4.96498C40.072 4.9537 39.8977 4.98211 39.737 5.04793C39.6498 5.08113 39.5663 5.12314 39.4881 5.17327C39.4122 5.21747 39.3126 5.2986 39.2709 5.32282L39.2261 5.29134C39.2572 5.47869 39.2635 5.66916 39.2448 5.85807C38.8534 5.47177 38.4981 5.13149 38.1477 4.9008C37.8005 4.6586 37.4632 4.58897 37.1801 4.6138C37.0513 4.6362 37.019 4.6471 36.9518 4.71371C36.8845 4.78031 36.8192 4.94076 36.7937 5.12604L36.7844 5.19627C36.7751 5.28945 36.7501 5.3805 36.7103 5.46572C36.6257 5.64661 36.4758 5.79098 36.289 5.87139C36.1153 5.94611 35.9213 5.96354 35.7365 5.92104C35.647 5.90067 35.5614 5.86632 35.4832 5.81932L35.3948 5.76785C35.2423 5.67095 35.0713 5.60485 34.8921 5.57349C34.5399 5.50023 34.1989 5.6074 34.0495 5.79571C33.9632 5.90282 33.9132 6.03335 33.9064 6.16929C33.8988 6.3468 33.925 6.52416 33.9836 6.69243C34.0321 6.85946 34.1147 7.01532 34.2262 7.15078C34.3407 7.27264 34.4791 7.37104 34.6332 7.4402C34.8112 7.51374 35.0004 7.55814 35.1932 7.57159C35.3931 7.58862 35.5943 7.5817 35.7925 7.551L36.2903 7.46442L36.4284 7.90279C36.4672 8.16723 36.5594 8.42158 36.6997 8.65117C36.7636 8.748 36.8535 8.82598 36.9597 8.87668C37.0659 8.92737 37.1843 8.94884 37.3021 8.93877C37.5833 8.92787 37.8976 8.80799 38.1876 8.65117C38.4843 8.48736 38.7624 8.29332 39.017 8.07232C38.8252 8.35868 38.6027 8.62437 38.3531 8.8649C38.0955 9.1071 37.8049 9.33415 37.4116 9.46252C37.2003 9.53125 36.9748 9.54809 36.7551 9.51156C36.5231 9.46763 36.3058 9.36887 36.1223 9.22395C35.9238 9.05818 35.7531 8.86329 35.6164 8.64632C35.4461 8.65753 35.2752 8.65753 35.1049 8.64632C34.7892 8.62752 34.4789 8.55732 34.187 8.43864C33.8753 8.30724 33.5971 8.11089 33.3719 7.86343C33.1601 7.6163 33.002 7.33001 32.907 7.02181C32.8037 6.72052 32.7599 6.40288 32.7782 6.08573C32.7897 5.93645 32.8204 5.78918 32.8697 5.64736C32.8149 5.58681 32.7614 5.52203 32.7092 5.45906C32.4798 5.16616 32.2662 4.86179 32.0695 4.5472C31.6918 3.93509 31.3462 3.30478 31.034 2.65869C30.8872 2.35958 30.7453 2.05886 30.6084 1.75652C30.6084 1.7759 30.6084 1.79588 30.6084 1.81707C30.6051 1.96324 30.5906 2.10897 30.5648 2.25302C30.5412 2.37411 30.5244 2.49521 30.5088 2.61631C30.4818 2.86018 30.4724 3.10561 30.4808 3.35076C30.5051 3.84751 30.608 4.33766 30.7857 4.80392C30.9807 5.28295 31.2361 5.73651 31.5461 6.15415C31.1329 5.80562 30.7792 5.39544 30.4983 4.93894C30.2118 4.46758 30.0155 3.94959 29.9189 3.4101C29.8716 3.13786 29.8443 2.86267 29.8374 2.58664C29.8374 2.44859 29.8374 2.31054 29.8443 2.17249C29.8521 2.05858 29.8521 1.9443 29.8443 1.83039C29.8337 1.6326 29.7807 1.43914 29.6887 1.26245C29.6505 1.19705 29.6048 1.13611 29.5524 1.0808C29.5219 1.08261 29.4916 1.08624 29.4616 1.0917C29.351 1.11272 29.2454 1.1538 29.1504 1.2128C29.0422 1.28308 28.9455 1.36881 28.8636 1.4671C28.6566 1.68219 28.4853 1.92732 28.3558 2.19368C28.2811 2.32083 28.2507 2.46251 28.1965 2.59633C28.1729 2.73801 28.12 2.87424 28.1187 3.02017C28.0565 3.59598 28.189 4.20631 28.4448 4.78757C28.9631 5.95616 29.8642 7.01031 30.8368 7.96758L31.2101 8.33511L30.8368 8.72382C30.7285 8.84108 30.6293 8.96595 30.54 9.09741C30.444 9.23932 30.357 9.38672 30.2792 9.53881C29.9673 10.1505 29.8232 10.8302 29.8611 11.5121C29.8803 11.8558 29.9381 12.1965 30.0334 12.5281L30.1019 12.7927L29.9376 13.007C29.7184 13.2991 29.5308 13.6124 29.3776 13.9419C29.2226 14.271 29.1071 14.6164 29.0335 14.9712C28.9674 15.3106 28.9582 15.6582 29.0061 16.0005C29.0478 16.3366 29.1884 16.6436 29.3477 16.9415L29.4554 17.1437L29.4074 17.3483C29.3645 17.5452 29.3436 17.7459 29.3452 17.9472C29.346 18.1479 29.373 18.3477 29.4255 18.5417C29.4744 18.7212 29.5558 18.8907 29.6657 19.0425C29.7696 19.1951 29.9189 19.3047 30.0689 19.4191ZM42.2652 9.83065C42.6535 9.83065 43.0331 9.94269 43.356 10.1526C43.6788 10.3625 43.9305 10.6608 44.079 11.0099C44.2276 11.359 44.2665 11.7431 44.1908 12.1136C44.115 12.4842 43.928 12.8246 43.6535 13.0917C43.3789 13.3589 43.0291 13.5408 42.6483 13.6145C42.2674 13.6883 41.8727 13.6504 41.514 13.5058C41.1552 13.3613 40.8486 13.1164 40.6329 12.8023C40.4172 12.4881 40.302 12.1188 40.302 11.741C40.3016 11.4897 40.3522 11.2408 40.4508 11.0085C40.5495 10.7763 40.6942 10.5653 40.8769 10.3876C41.0595 10.2099 41.2763 10.069 41.515 9.97301C41.7537 9.87703 42.0095 9.82783 42.2677 9.82823L42.2652 9.83065ZM38.1029 13.5114C38.8441 13.5114 42.844 14.3373 43.9603 18.262C44.2714 19.3561 44.1352 20.4448 43.5764 21.3276C42.7319 22.6596 41.0973 24.2478 38.1004 24.2478C35.1036 24.2478 33.4714 22.6596 32.6276 21.3276C32.0676 20.4448 31.932 19.3561 32.2431 18.262C33.3644 14.333 37.3643 13.509 38.1054 13.509L38.1029 13.5114ZM33.9406 9.83065C34.3289 9.83065 34.7085 9.94269 35.0313 10.1526C35.3542 10.3625 35.6058 10.6608 35.7544 11.0099C35.903 11.359 35.9419 11.7431 35.8661 12.1136C35.7904 12.4842 35.6034 12.8246 35.3288 13.0917C35.0543 13.3589 34.7045 13.5408 34.3236 13.6145C33.9428 13.6883 33.5481 13.6504 33.1893 13.5058C32.8306 13.3613 32.524 13.1164 32.3083 12.8023C32.0925 12.4881 31.9774 12.1188 31.9774 11.741C31.977 11.4897 32.0275 11.2408 32.1262 11.0085C32.2248 10.7763 32.3696 10.5653 32.5522 10.3876C32.7348 10.2099 32.9517 10.069 33.1904 9.97301C33.4291 9.87703 33.6848 9.82783 33.9431 9.82823L33.9406 9.83065Z" fill="white"/>
<path d="M40.5597 29.5997L40.541 29.5391H40.5441C40.5017 29.3567 40.4336 29.1809 40.3419 29.0166C40.1552 28.7532 39.0351 28.5595 38.1017 28.5425C37.1715 28.5601 36.0526 28.7538 35.8647 29.0166C35.7732 29.181 35.7052 29.3568 35.6625 29.5391L35.6438 29.5997C35.5501 29.9572 35.5338 30.3298 35.5959 30.6938L35.6332 30.7023L35.6164 30.7852C35.6456 30.904 35.6895 31.0188 35.7471 31.1273C36.0837 31.7534 36.8753 32.0713 38.0986 32.0713C39.322 32.0713 40.1135 31.7534 40.4508 31.1273C40.5078 31.0186 40.5517 30.9038 40.5815 30.7852L40.564 30.7023L40.6014 30.6938C40.6655 30.3302 40.6513 29.9576 40.5597 29.5997Z" fill="#EF5685"/>
<path d="M45.7724 28.0545C45.7624 27.867 45.7341 27.6809 45.6877 27.4986C45.663 27.4041 45.6318 27.3112 45.5944 27.2207C44.8135 27.9564 43.2043 29.3199 41.3705 30.0138C41.3844 30.175 41.3857 30.3369 41.3742 30.4982C43.5602 29.8516 45.2808 28.4759 45.7724 28.0545Z" fill="#EF5685"/>
<path d="M34.5785 12.5935C34.7742 12.5936 34.9656 12.5372 35.1284 12.4315C35.2911 12.3258 35.4181 12.1755 35.493 11.9996C35.568 11.8237 35.5877 11.6301 35.5496 11.4433C35.5115 11.2565 35.4173 11.0849 35.2789 10.9502C35.1406 10.8155 34.9643 10.7238 34.7724 10.6866C34.5804 10.6494 34.3815 10.6684 34.2006 10.7413C34.0198 10.8141 33.8653 10.9375 33.7565 11.0958C33.6478 11.2542 33.5897 11.4403 33.5897 11.6307C33.5897 11.886 33.6939 12.1308 33.8793 12.3113C34.0647 12.4918 34.3162 12.5933 34.5785 12.5935V12.5935Z" fill="white"/>
<path d="M32.8256 12.7309C32.8995 12.7309 32.9717 12.7096 33.0331 12.6697C33.0945 12.6298 33.1423 12.573 33.1706 12.5067C33.1988 12.4403 33.2062 12.3672 33.1918 12.2968C33.1774 12.2263 33.1418 12.1615 33.0896 12.1107C33.0374 12.0599 32.9709 12.0253 32.8985 12.0113C32.826 11.9973 32.751 12.0045 32.6827 12.032C32.6145 12.0595 32.5562 12.1061 32.5152 12.1658C32.4742 12.2255 32.4523 12.2958 32.4523 12.3676C32.4523 12.464 32.4916 12.5564 32.5616 12.6245C32.6316 12.6926 32.7266 12.7309 32.8256 12.7309Z" fill="white"/>
<path d="M47.9341 55.9945L47.7811 55.7178L47.9516 55.4472C50.6895 51.2693 49.5315 46.5889 49.5197 46.5423L49.473 46.3607L49.5539 46.1893C50.8961 43.352 49.3622 40.5868 49.3467 40.5583L49.2029 40.3046L49.3411 40.0485C49.804 39.2008 49.1612 37.7004 48.8744 37.1955L48.7742 37.0187L48.819 36.8201C49.3299 34.584 47.5272 32.4564 46.4986 31.4567C46.4942 31.6087 46.4849 31.7594 46.4675 31.9102C46.4324 32.2278 46.3602 32.5404 46.2522 32.842C46.146 33.1351 46.0013 33.4135 45.8216 33.6703C45.9144 33.3849 45.9685 33.089 45.9827 32.79C45.9959 32.5 45.975 32.2095 45.9205 31.9241C45.8667 31.6438 45.7876 31.3686 45.684 31.1019C45.5877 30.8464 45.4658 30.6008 45.32 30.3686L45.2279 30.1452L45.3349 29.9103C45.3972 29.7795 45.4594 29.6505 45.5173 29.5185C45.5608 29.3841 45.6249 29.2539 45.6554 29.1177C45.6604 29.1014 45.6616 29.085 45.6666 29.0687C44.7662 29.7517 43.1421 30.8046 41.1863 31.2944C41.162 31.3489 41.1384 31.404 41.1092 31.4579C40.9593 31.732 40.7495 31.9708 40.4944 32.1572C40.681 33.4057 41.5914 39.5326 41.6144 41.492V41.5332L41.6051 41.5731C41.5752 41.7051 40.8378 44.8209 38.2536 45.8993L38.1092 45.9598L37.9649 45.8993C35.3806 44.8209 34.6438 41.7051 34.6133 41.5731L34.6046 41.5332V41.492C34.6258 39.5326 35.538 33.4051 35.7247 32.1566C35.4693 31.9705 35.2593 31.7317 35.1099 31.4573C35.0813 31.404 35.057 31.3489 35.0334 31.2944C33.077 30.8046 31.4529 29.751 30.5531 29.0687C30.5574 29.085 30.5587 29.1014 30.5637 29.1177C30.5942 29.2539 30.6582 29.3841 30.7018 29.5185C30.7578 29.6505 30.8263 29.7795 30.8841 29.9103L30.9912 30.1452L30.8997 30.3686C30.7537 30.6008 30.6316 30.8464 30.535 31.1019C30.4314 31.3686 30.3523 31.6438 30.2986 31.9241C30.2438 32.2095 30.2229 32.5 30.2364 32.79C30.2505 33.089 30.3047 33.3849 30.3975 33.6703C30.2176 33.4135 30.0727 33.1351 29.9663 32.842C29.8582 32.5404 29.786 32.2278 29.751 31.9102C29.7336 31.76 29.7242 31.6075 29.7205 31.4567C28.6913 32.457 26.8886 34.5846 27.3995 36.8201L27.4449 37.0187L27.3435 37.1961C27.0572 37.7004 26.4144 39.1978 26.8774 40.0485L27.0174 40.3052L26.8718 40.5589C26.8568 40.5856 25.323 43.3508 26.6652 46.1899L26.7461 46.3607L26.6988 46.5423C26.687 46.5889 25.5289 51.2724 28.2675 55.4472L28.4461 55.7196L28.2812 56" fill="white"/>
<path d="M37.5473 53.1978C37.3861 53.1906 37.225 53.1809 37.0632 53.1657C36.7117 53.1334 36.3626 53.0802 36.0178 53.0065C35.6642 52.9328 35.3178 52.8297 34.9823 52.6983C34.8087 52.6291 34.6393 52.5501 34.4752 52.4615C34.3918 52.4173 34.3084 52.3665 34.2263 52.3132C34.1481 52.2618 34.0729 52.2062 34.001 52.1467C33.63 52.0002 33.2732 51.8215 32.9351 51.6127C32.5384 51.3671 32.1684 51.0831 31.8306 50.765C32.6572 51.0779 33.5408 51.2234 34.4273 51.1925V51.1925L34.7222 51.3378C34.7222 51.3378 34.7963 51.3941 34.8405 51.4231C34.8958 51.4577 34.9525 51.4928 35.0141 51.5255C35.1389 51.5933 35.2678 51.6539 35.3999 51.7071C35.6778 51.8157 35.9649 51.9005 36.258 51.9608C36.5587 52.0248 36.8631 52.0711 37.1696 52.0995C37.4807 52.1279 37.7919 52.1388 38.1067 52.1419C38.4216 52.1419 38.7346 52.1279 39.0445 52.0995C39.3509 52.0715 39.6554 52.0254 39.9561 51.9614C40.2488 51.9006 40.5357 51.8155 40.8136 51.7071C40.9458 51.6538 41.0748 51.5931 41.2 51.5255C41.2622 51.4928 41.3176 51.4577 41.373 51.4231C41.4172 51.3941 41.4918 51.3378 41.4918 51.3378L41.7862 51.1925C42.6726 51.2235 43.5562 51.078 44.3829 50.765C44.045 51.0831 43.675 51.3671 43.2783 51.6127C42.9402 51.8215 42.5835 52.0002 42.2124 52.1467C42.1407 52.2064 42.0654 52.262 41.9871 52.3132C41.9044 52.3665 41.821 52.4173 41.7382 52.4615C41.5744 52.5502 41.4053 52.6293 41.2317 52.6983C40.8962 52.83 40.5495 52.9331 40.1956 53.0065C39.8508 53.0802 39.5017 53.1334 39.1503 53.1657C38.9885 53.1809 38.8273 53.1906 38.6661 53.1978" fill="white"/>
<path d="M30.6165 27.2207C30.5797 27.3114 30.5485 27.4043 30.5232 27.4986C30.4771 27.6807 30.4489 27.8666 30.4392 28.0539C30.9308 28.4777 32.6551 29.851 34.8374 30.5C34.8254 30.3387 34.8264 30.1768 34.8405 30.0157C33.0067 29.3193 31.3975 27.9564 30.6165 27.2207Z" fill="#EF5685"/>
<path d="M38.1055 32.7845C37.4378 32.7845 36.8747 32.6931 36.4055 32.5211C36.161 34.1681 35.3663 39.6313 35.3346 41.4557C35.4211 41.7893 36.1205 44.2506 38.1055 45.18C40.0968 44.2476 40.7906 41.7893 40.8765 41.4563C40.8454 39.632 40.0507 34.1687 39.8055 32.5211C39.337 32.6931 38.7732 32.7845 38.1055 32.7845Z" fill="#EF5685"/>
<path d="M36.0802 4.86749H36.0743C36.0838 4.87342 36.0941 4.87936 36.0802 4.86749Z" fill="white"/>
<path d="M42.9032 12.5935C43.0989 12.5936 43.2903 12.5372 43.4531 12.4315C43.6158 12.3258 43.7428 12.1755 43.8177 11.9996C43.8927 11.8237 43.9124 11.6301 43.8743 11.4433C43.8362 11.2565 43.742 11.0849 43.6037 10.9502C43.4653 10.8155 43.289 10.7238 43.0971 10.6866C42.9051 10.6494 42.7062 10.6684 42.5253 10.7413C42.3445 10.8141 42.19 10.9375 42.0812 11.0958C41.9725 11.2542 41.9144 11.4403 41.9144 11.6307C41.9144 11.886 42.0186 12.1308 42.204 12.3113C42.3894 12.4918 42.6409 12.5933 42.9032 12.5935V12.5935Z" fill="white"/>
<path d="M41.1502 12.7309C41.2241 12.7309 41.2962 12.7096 41.3576 12.6697C41.419 12.6298 41.4669 12.573 41.4951 12.5067C41.5234 12.4403 41.5308 12.3672 41.5164 12.2968C41.502 12.2263 41.4664 12.1615 41.4142 12.1107C41.362 12.0599 41.2955 12.0253 41.2231 12.0113C41.1506 11.9973 41.0756 12.0045 41.0073 12.032C40.9391 12.0595 40.8808 12.1061 40.8398 12.1658C40.7988 12.2255 40.7769 12.2958 40.7769 12.3676C40.7769 12.464 40.8162 12.5564 40.8862 12.6245C40.9562 12.6926 41.0512 12.7309 41.1502 12.7309Z" fill="white"/>
<path d="M38.1055 21.2906C38.7091 21.2906 39.1527 21.1483 39.4241 20.8668C39.5831 20.6952 39.6886 20.4831 39.7283 20.2553C39.6026 20.2457 39.4777 20.2267 39.355 20.1983C38.813 20.0675 38.3824 19.6679 38.1067 19.2374C37.8311 19.6679 37.4005 20.0675 36.8585 20.1983C36.7357 20.2267 36.6109 20.2458 36.4851 20.2553C36.5251 20.4831 36.6308 20.6952 36.79 20.8668C37.0588 21.1483 37.5025 21.2906 38.1055 21.2906Z" fill="#EFD9AB"/>
<path d="M41.083 21.9161C40.8471 21.6133 41.3941 20.8462 41.3941 20.8462C42.4937 19.7763 41.8726 18.5205 41.8726 18.5205C41.9212 19.0655 41.6101 19.6007 41.1116 19.9265C41.0292 19.9798 40.9427 20.0268 40.8527 20.0669C40.8422 20.3909 40.7519 21.0424 40.2361 21.5861C39.7489 22.0996 39.0308 22.3605 38.103 22.3605C37.1752 22.3605 36.4577 22.0996 35.9699 21.5861C35.4546 21.0412 35.3638 20.3909 35.3538 20.0669C35.2639 20.0268 35.1773 19.9798 35.0949 19.9265C34.5971 19.6007 34.286 19.0637 34.3333 18.5205C34.3333 18.5205 33.711 19.7763 34.8118 20.8462C34.8118 20.8462 35.3619 21.6103 35.1229 21.9161C34.884 22.2219 33.169 20.9304 32.8206 19.2653C32.7878 19.8566 32.9383 20.4438 33.2524 20.9509C33.9992 22.1286 35.4447 23.5321 38.1011 23.5321C40.7575 23.5321 42.2043 22.1286 42.9504 20.9509C43.2644 20.4438 43.4146 19.8565 43.3816 19.2653C43.0369 20.9328 41.317 22.22 41.083 21.9161Z" fill="#D1B990"/>
<path d="M32.9544 18.8136C33.9351 15.3623 37.492 14.5855 38.1055 14.5855C38.7191 14.5855 42.2747 15.3648 43.2566 18.8136C43.3263 19.0624 43.368 19.3178 43.3811 19.5753C43.4029 19.197 43.3608 18.8178 43.2566 18.4527C42.2759 15.0015 38.7191 14.2246 38.1055 14.2246C37.492 14.2246 33.9364 15.0039 32.9544 18.4527C32.8498 18.818 32.8067 19.1973 32.8269 19.5759C32.8412 19.3181 32.884 19.0625 32.9544 18.8136V18.8136Z" fill="white"/>
<path d="M39.3538 20.1989C38.8118 20.0682 38.3812 19.6685 38.1055 19.238C37.8298 19.6685 37.3992 20.0682 36.8572 20.1989C36.7345 20.2273 36.6097 20.2464 36.4839 20.2559C36.5238 20.4837 36.6296 20.6958 36.7888 20.8674C37.0601 21.1483 37.5038 21.2912 38.1068 21.2912C38.7097 21.2912 39.154 21.1489 39.4253 20.8674C39.5843 20.6957 39.6898 20.4836 39.7296 20.2559C39.603 20.2464 39.4773 20.2274 39.3538 20.1989V20.1989ZM38.1055 20.9225C37.365 20.9225 37.2493 20.4641 37.2493 20.4641C37.6419 20.5659 38.1055 20.2643 38.1055 20.2643C38.1055 20.2643 38.5697 20.5671 38.9624 20.4641C38.9624 20.4641 38.846 20.9225 38.1055 20.9225V20.9225Z" fill="#D1B990"/>
<path d="M31.2109 8.33873C31.2109 8.33873 26.7057 3.36467 29.9259 1.39685C29.9259 1.39685 29.2763 4.40127 31.5481 6.15293C31.5481 6.15414 31.83 7.37782 31.2109 8.33873Z" fill="#D2C8DB"/>
<path d="M45.0002 8.33873C45.0002 8.33873 49.1021 3.36467 45.8825 1.39685C45.8825 1.39685 46.5316 4.40127 44.2603 6.15293C44.2603 6.15414 44.101 7.16772 45.0002 8.33873Z" fill="#D2C8DB"/>
<path d="M45.6529 28.6388C44.7186 29.6674 43.5286 30.4454 42.1968 30.8984C41.7058 31.065 41.1775 31.2266 40.7905 31.5814C40.6281 31.7298 40.4669 31.9326 40.4084 32.1451C40.3213 32.4594 40.4669 32.8366 40.5217 33.1539C40.7967 34.7396 41.0493 36.3296 41.2379 37.9275C41.3287 38.6989 41.4053 39.4721 41.4632 40.2465C41.4924 40.6346 41.559 41.0524 41.4818 41.4381C41.4047 41.8238 41.1825 42.1592 41.0008 42.4965C40.3468 43.7075 39.6001 45.7873 37.9685 45.9477C37.9181 45.9006 37.864 45.8573 37.8067 45.8182C37.3561 45.3414 36.9562 44.8215 36.6132 44.2663C36.5936 44.2287 36.5665 44.1953 36.5336 44.1679C36.5006 44.1405 36.4624 44.1198 36.4212 44.1069C36.38 44.0939 36.3365 44.089 36.2933 44.0925C36.2501 44.096 36.2081 44.1077 36.1696 44.1271C35.7464 43.4284 35.465 42.6572 35.3407 41.8553C35.2698 41.403 34.5635 41.5955 34.6338 42.0454C34.9114 43.8189 35.9132 45.3865 37.3718 46.4654C37.3774 46.4703 37.3824 46.4763 37.3886 46.4812C37.4135 46.4999 37.4359 46.5205 37.4614 46.5387C37.4638 46.54 37.4663 46.541 37.4689 46.5417C37.4932 46.5589 37.5185 46.5747 37.5448 46.5889C37.5802 46.6241 37.6126 46.661 37.6487 46.6955C37.8204 46.8596 38.0668 46.7984 38.195 46.6507C38.4496 46.6084 38.6966 46.5303 38.9281 46.4188C39.5814 46.107 40.0718 45.5621 40.4563 44.9735C40.8969 44.3002 41.2491 43.567 41.6299 42.861C42.0107 42.155 42.2721 41.5737 42.2279 40.7672C42.1352 39.0719 41.9168 37.3765 41.6679 35.6975C41.5434 34.871 41.4109 34.047 41.2696 33.2235C41.2118 32.8856 40.9934 32.4031 41.2653 32.1288C41.4843 31.9078 41.8085 31.7903 42.0985 31.688C43.6703 31.1346 45.0443 30.3753 46.1681 29.145C46.4842 28.8041 45.9671 28.2955 45.6529 28.6388Z" fill="#D2C8DB"/>
<path d="M40.0096 53.9008C40.0096 53.9008 43.4943 52.8715 44.3816 50.768L42.4053 51.8373L40.4483 52.4107L39.3426 52.5633L37.4969 52.6783L36.0832 52.4488L34.6289 51.5703L31.8287 50.768C31.8287 50.768 31.881 52.2212 33.805 52.7927" fill="#D2C8DB"/>
<path d="M35.0975 19.9265C35.18 19.9798 35.2665 20.027 35.3564 20.0676C35.3669 20.3909 35.4572 21.0424 35.9724 21.5861C36.4603 22.1002 37.1777 22.3605 38.1055 22.3605C39.0333 22.3605 39.7514 22.1002 40.2386 21.5861C40.7545 21.0412 40.8447 20.3909 40.8553 20.0669C40.9452 20.0268 41.0318 19.9798 41.1142 19.9265C41.612 19.6007 41.9231 19.0637 41.8752 18.5205C41.5118 18.9171 41.2081 19.258 40.8211 19.4427C40.434 19.6274 39.9711 19.5923 39.6158 19.4427C39.2604 19.2931 39.0271 18.9928 38.8802 18.6047C38.7849 18.3463 38.7212 18.0778 38.6904 17.8049C38.8546 17.7595 39.0118 17.6929 39.1578 17.6069C39.4726 17.4137 39.7595 17.0904 39.7551 16.7029C39.3949 16.8101 39.126 16.8082 38.8672 16.8179H38.1055H37.3445C37.0863 16.8076 36.8174 16.81 36.4565 16.7041C36.4509 17.0922 36.7378 17.4167 37.0526 17.6123C37.1988 17.6982 37.3562 17.7646 37.5206 17.8097C37.4908 18.0821 37.4281 18.3502 37.3339 18.6083C37.1871 18.9965 36.9481 19.3004 36.5984 19.4463C36.2487 19.5922 35.772 19.6213 35.3931 19.4463C35.0141 19.2713 34.703 18.9208 34.339 18.5242C34.2879 19.0637 34.5984 19.6007 35.0975 19.9265ZM36.8573 20.1989C37.3992 20.0682 37.8299 19.6685 38.1055 19.238C38.3812 19.6685 38.8118 20.0682 39.3538 20.1989C39.4765 20.2273 39.6014 20.2463 39.7271 20.2559C39.6874 20.4837 39.5819 20.6958 39.4228 20.8674C39.1515 21.1483 38.7079 21.2912 38.1043 21.2912C37.5007 21.2912 37.0576 21.149 36.7863 20.8674C36.6271 20.6958 36.5214 20.4837 36.4814 20.2559C36.608 20.2465 36.7337 20.2275 36.8573 20.1989Z" fill="#3A2033"/>
<path d="M33.9432 13.6488C34.3315 13.6488 34.7111 13.5368 35.0339 13.3269C35.3568 13.117 35.6084 12.8186 35.757 12.4696C35.9056 12.1205 35.9445 11.7364 35.8687 11.3658C35.793 10.9953 35.606 10.6549 35.3314 10.3877C35.0569 10.1206 34.7071 9.93863 34.3262 9.86492C33.9454 9.79121 33.5507 9.82904 33.1919 9.97363C32.8332 10.1182 32.5266 10.3631 32.3108 10.6772C32.0951 10.9914 31.98 11.3607 31.98 11.7385C31.98 12.2452 32.1868 12.7311 32.555 13.0893C32.9232 13.4476 33.4225 13.6488 33.9432 13.6488V13.6488ZM34.5785 10.6686C34.7743 10.6684 34.9657 10.7247 35.1286 10.8303C35.2915 10.936 35.4185 11.0863 35.4936 11.2622C35.5686 11.4382 35.5884 11.6318 35.5503 11.8186C35.5122 12.0055 35.418 12.1771 35.2796 12.3119C35.1412 12.4466 34.9649 12.5384 34.7729 12.5756C34.5809 12.6127 34.3819 12.5936 34.201 12.5207C34.0202 12.4478 33.8656 12.3243 33.7569 12.1659C33.6482 12.0075 33.5903 11.8212 33.5904 11.6307C33.5906 11.3757 33.6947 11.1312 33.88 10.9508C34.0652 10.7704 34.3165 10.6689 34.5785 10.6686V10.6686ZM32.8256 12.0061C32.8995 12.0061 32.9717 12.0274 33.0331 12.0674C33.0945 12.1073 33.1423 12.164 33.1706 12.2304C33.1988 12.2968 33.2062 12.3698 33.1918 12.4403C33.1774 12.5108 33.1418 12.5755 33.0896 12.6263C33.0374 12.6771 32.9709 12.7117 32.8985 12.7257C32.826 12.7398 32.751 12.7326 32.6827 12.7051C32.6145 12.6776 32.5562 12.631 32.5152 12.5713C32.4742 12.5115 32.4523 12.4413 32.4523 12.3694C32.4523 12.2731 32.4916 12.1807 32.5616 12.1125C32.6316 12.0444 32.7266 12.0061 32.8256 12.0061Z" fill="#3A2033"/>
<path d="M32.2481 18.2596C31.937 19.3537 32.0733 20.4423 32.6327 21.3251C33.4765 22.6572 35.1112 24.2454 38.1055 24.2454C41.0998 24.2454 42.7345 22.6572 43.5814 21.3251C44.1415 20.4423 44.2765 19.3537 43.9654 18.2596C42.849 14.3348 38.8491 13.5089 38.108 13.5089C37.3669 13.5089 33.3645 14.333 32.2481 18.2596ZM38.1055 14.2222C38.7191 14.2222 42.2747 15.0021 43.2566 18.4497C43.513 19.3506 43.4053 20.2395 42.9548 20.9509C42.2081 22.1286 40.7613 23.5321 38.1055 23.5321C35.4497 23.5321 34.0023 22.1286 33.2568 20.9509C32.8057 20.2389 32.6968 19.3506 32.9544 18.4497C33.9351 15.0021 37.492 14.2222 38.1055 14.2222V14.2222Z" fill="#3A2033"/>
<path d="M42.2678 13.6488C42.6561 13.6488 43.0357 13.5368 43.3585 13.3269C43.6814 13.117 43.933 12.8186 44.0816 12.4696C44.2302 12.1205 44.2691 11.7364 44.1933 11.3658C44.1176 10.9953 43.9306 10.6549 43.656 10.3877C43.3815 10.1206 43.0316 9.93863 42.6508 9.86492C42.27 9.79121 41.8752 9.82904 41.5165 9.97363C41.1578 10.1182 40.8512 10.3631 40.6354 10.6772C40.4197 10.9914 40.3046 11.3607 40.3046 11.7385C40.3046 12.2452 40.5114 12.7311 40.8796 13.0893C41.2478 13.4476 41.7471 13.6488 42.2678 13.6488V13.6488ZM42.9031 10.6686C43.0989 10.6685 43.2903 10.7249 43.4531 10.8306C43.6159 10.9364 43.7428 11.0867 43.8177 11.2627C43.8927 11.4386 43.9123 11.6322 43.8742 11.819C43.836 12.0058 43.7418 12.1774 43.6034 12.3121C43.465 12.4468 43.2886 12.5385 43.0966 12.5756C42.9047 12.6127 42.7057 12.5936 42.5249 12.5207C42.344 12.4477 42.1895 12.3242 42.0809 12.1658C41.9722 12.0074 41.9142 11.8212 41.9144 11.6307C41.9145 11.3756 42.0188 11.131 42.2042 10.9506C42.3896 10.7702 42.6409 10.6688 42.9031 10.6686V10.6686ZM41.1502 12.0061C41.2241 12.0061 41.2963 12.0274 41.3577 12.0674C41.4191 12.1073 41.4669 12.164 41.4952 12.2304C41.5234 12.2968 41.5308 12.3698 41.5164 12.4403C41.502 12.5108 41.4664 12.5755 41.4142 12.6263C41.362 12.6771 41.2955 12.7117 41.2231 12.7257C41.1506 12.7398 41.0756 12.7326 41.0073 12.7051C40.9391 12.6776 40.8808 12.631 40.8398 12.5713C40.7988 12.5115 40.7769 12.4413 40.7769 12.3694C40.7769 12.2731 40.8162 12.1807 40.8862 12.1125C40.9562 12.0444 41.0512 12.0061 41.1502 12.0061Z" fill="#3A2033"/>
<path d="M49.0298 55.7814C51.56 51.7144 50.8344 47.416 50.6272 46.4654C51.8549 43.6802 50.8189 41.0833 50.4331 40.2834C50.9265 39.0016 50.2159 37.4086 49.9309 36.8546C50.5992 33.2168 46.6808 30.1513 46.5084 30.0205L46.4462 30.0968C46.4748 30.0362 46.5053 29.9757 46.5315 29.9151C46.59 29.745 46.6653 29.5827 46.7076 29.4053C46.8097 29.0538 46.8674 28.6914 46.8793 28.3263C46.8872 27.955 46.8424 27.5844 46.7461 27.225C46.6979 27.0434 46.6355 26.8657 46.5595 26.6933C46.5227 26.6164 46.4879 26.545 46.4493 26.4723C46.6251 26.1548 46.7643 25.8194 46.8644 25.4721C47.0025 25.0164 47.0696 24.5431 47.0635 24.068C47.0621 23.5969 46.994 23.1283 46.8613 22.6754C46.7952 22.4488 46.715 22.2264 46.6211 22.0093C46.5794 21.9149 46.5371 21.8277 46.4916 21.7362C46.5812 21.6238 46.6619 21.505 46.7331 21.3808C46.8708 21.1345 46.9617 20.866 47.0013 20.5882C47.0213 20.4515 47.0298 20.3134 47.0268 20.1753C47.0268 20.1475 47.0268 20.122 47.023 20.0966C47.1798 19.9711 47.3178 19.825 47.4331 19.6625C47.6172 19.4095 47.7539 19.1268 47.837 18.8275C47.9148 18.5432 47.9552 18.2504 47.9571 17.9562C47.959 17.7331 47.9413 17.5103 47.9042 17.2902C48.0954 16.9359 48.2246 16.553 48.2862 16.1573C48.3521 15.6974 48.3403 15.23 48.2514 14.7738C48.1617 14.3354 48.0197 13.9086 47.8283 13.5023C47.6764 13.1784 47.4976 12.8672 47.2937 12.5716C47.3774 12.243 47.4277 11.9072 47.4437 11.569C47.491 10.7044 47.308 9.84259 46.9123 9.0671C46.8137 8.87405 46.7032 8.68701 46.5812 8.50702C46.5495 8.46222 46.519 8.41923 46.4873 8.37624C46.6273 8.23335 46.7685 8.09166 46.9048 7.94514C47.1394 7.6648 47.3945 7.40565 47.6111 7.10654C48.0804 6.52305 48.4718 5.88402 48.776 5.20472C49.0796 4.51265 49.2682 3.72188 49.1811 2.90993C49.1095 2.09677 48.7013 1.32296 48.1568 0.748352C48.0094 0.579382 47.8375 0.432129 47.6466 0.311195C47.4406 0.182174 47.2119 0.0912424 46.972 0.0429656C46.492 -0.0562081 45.9914 0.013747 45.5595 0.240354C45.3431 0.351996 45.15 0.501888 44.9901 0.682357C44.9094 0.771498 44.8365 0.867097 44.7723 0.968143C44.7201 1.0632 44.6479 1.19641 44.6217 1.2612C44.4805 1.57545 44.333 1.88606 44.1818 2.19485C43.8857 2.80745 43.5582 3.4052 43.2005 3.98588C43.026 4.26538 42.8366 4.5358 42.633 4.79601C42.5664 4.87836 42.4973 4.95707 42.427 5.03215C42.331 4.9102 42.2271 4.79432 42.1159 4.68521C41.891 4.45538 41.6347 4.25673 41.3542 4.09486C41.0453 3.91046 40.6975 3.79641 40.3368 3.76124C39.9499 3.72556 39.5603 3.79604 39.2124 3.96469C39.0596 4.03877 38.9167 4.13067 38.7868 4.23836C38.5924 3.97639 38.3338 3.76588 38.0345 3.62597C37.7352 3.48606 37.4047 3.42121 37.0731 3.43731C36.696 3.44821 36.2299 3.67224 35.9984 4.01191C35.8579 4.20993 35.7584 4.43265 35.7053 4.66765C35.5107 4.58093 35.3059 4.5175 35.0955 4.47874C34.7602 4.41432 34.414 4.4276 34.085 4.51749C33.8944 4.57028 33.7136 4.65202 33.5492 4.75968C33.3582 4.51749 33.1758 4.25471 33.0066 3.98406C32.6489 3.40339 32.3214 2.80563 32.0253 2.19304C31.8747 1.88424 31.7272 1.57363 31.586 1.25938C31.5592 1.19459 31.487 1.06139 31.4347 0.966329C31.3705 0.865431 31.2979 0.769844 31.2176 0.680538C31.0574 0.500052 30.8641 0.350163 30.6476 0.238536C30.2148 0.0117609 29.7132 -0.0577779 29.2325 0.0423596C28.9927 0.0906363 28.764 0.181568 28.558 0.310589C28.3673 0.431522 28.1956 0.578782 28.0484 0.74775C27.5039 1.32235 27.0951 2.09616 27.0235 2.90932C26.9364 3.72128 27.1256 4.51204 27.4292 5.20411C27.7331 5.88353 28.1245 6.52259 28.5941 7.10593C28.81 7.40504 29.0658 7.66419 29.2998 7.94453C29.436 8.09106 29.5773 8.23274 29.7173 8.37564C29.6862 8.41862 29.6551 8.46161 29.6233 8.50642C29.5014 8.6864 29.3909 8.87344 29.2923 9.06649C28.8974 9.84223 28.7144 10.7038 28.7609 11.5684C28.7769 11.9066 28.8271 12.2424 28.9108 12.571C28.707 12.8666 28.5282 13.1778 28.3763 13.5017C28.1855 13.9083 28.0435 14.3349 27.9532 14.7732C27.8642 15.2294 27.8526 15.6968 27.9189 16.1567C27.9804 16.5524 28.1093 16.9352 28.3004 17.2896C28.2634 17.5097 28.246 17.7325 28.2481 17.9556C28.2497 18.2498 28.2901 18.5427 28.3682 18.8269C28.451 19.1262 28.5876 19.4088 28.7715 19.6619C28.8868 19.8244 29.0248 19.9705 29.1815 20.096C29.1815 20.1214 29.1815 20.1468 29.1778 20.1747C29.1748 20.3128 29.1833 20.4509 29.2033 20.5876C29.2429 20.8654 29.3338 21.1339 29.4715 21.3802C29.5427 21.5044 29.6234 21.6232 29.7129 21.7356C29.6675 21.8253 29.6252 21.9173 29.5835 22.0087C29.4896 22.2258 29.4094 22.4482 29.3433 22.6747C29.2108 23.1278 29.1428 23.5963 29.1411 24.0674C29.1351 24.5425 29.2025 25.0158 29.3408 25.4715C29.4406 25.8188 29.5798 26.1543 29.7559 26.4717C29.7173 26.5444 29.6824 26.6158 29.6457 26.6927C29.57 26.8652 29.5076 27.0429 29.459 27.2244C29.3628 27.5838 29.318 27.9544 29.3259 28.3257C29.338 28.6909 29.3959 29.0532 29.4983 29.4047C29.5399 29.5821 29.6152 29.7444 29.6737 29.9145C29.6999 29.9751 29.7304 30.0356 29.759 30.0962L29.6968 30.0205C29.5263 30.1513 25.6085 33.2168 26.2743 36.8546C25.9899 37.4086 25.2787 39.0016 25.7728 40.2834C25.387 41.0833 24.3509 43.6826 25.578 46.4654C25.3726 47.416 24.6446 51.7144 27.1753 55.7814H49.0298ZM36.0737 4.86625C36.0886 4.87594 36.0799 4.87109 36.0687 4.86625H36.0737ZM29.6681 19.0412C29.5582 18.8895 29.4769 18.7199 29.4279 18.5405C29.3754 18.3464 29.3485 18.1466 29.3477 17.9459C29.3461 17.7447 29.3669 17.5439 29.4099 17.3471L29.4578 17.1424L29.3501 16.9402C29.1908 16.6423 29.0502 16.3347 29.0085 15.9993C28.9607 15.657 28.9699 15.3094 29.0359 14.97C29.1096 14.6151 29.2251 14.2697 29.38 13.9406C29.5332 13.6111 29.7209 13.2979 29.9401 13.0058L30.1043 12.7914L30.0359 12.5268C29.9406 12.1953 29.8828 11.8546 29.8635 11.5108C29.8257 10.829 29.9697 10.1492 30.2817 9.53756C30.3594 9.38547 30.4465 9.23807 30.5424 9.09616C30.6318 8.9647 30.731 8.83983 30.8392 8.72258L31.2126 8.33386L30.8392 7.96633C29.8666 7.00906 28.9656 5.95491 28.4472 4.78632C28.1915 4.20506 28.059 3.59473 28.1212 3.01892C28.1212 2.87239 28.1753 2.73616 28.199 2.59508C28.2531 2.46127 28.2836 2.31959 28.3583 2.19243C28.4877 1.92607 28.6591 1.68094 28.866 1.46585C28.948 1.36756 29.0447 1.28183 29.1529 1.21155C29.2479 1.15256 29.3534 1.11148 29.464 1.09045C29.494 1.085 29.5244 1.08136 29.5549 1.07955C29.6073 1.13486 29.653 1.1958 29.6912 1.2612C29.7831 1.4379 29.8361 1.63135 29.8467 1.82914C29.8546 1.94305 29.8546 2.05733 29.8467 2.17124C29.8393 2.30929 29.8386 2.44734 29.8399 2.58539C29.8468 2.86142 29.874 3.13661 29.9214 3.40885C30.018 3.94834 30.2142 4.46633 30.5007 4.9377C30.7817 5.39419 31.1354 5.80437 31.5486 6.1529C31.2386 5.73526 30.9831 5.2817 30.7882 4.80267C30.6104 4.33641 30.5076 3.84627 30.4833 3.34951C30.4749 3.10436 30.4842 2.85893 30.5113 2.61506C30.5269 2.49396 30.5437 2.37287 30.5673 2.25177C30.593 2.10772 30.6076 1.96199 30.6109 1.81582C30.6109 1.79584 30.6109 1.77586 30.6109 1.75527C30.7478 2.05761 30.8896 2.35834 31.0365 2.65744C31.3487 3.30353 31.6943 3.93384 32.0719 4.54595C32.2687 4.86054 32.4822 5.16491 32.7116 5.45781C32.7639 5.51836 32.8174 5.58314 32.8722 5.64611C32.8229 5.78793 32.7922 5.93521 32.7807 6.08448C32.7624 6.40163 32.8061 6.71927 32.9095 7.02056C33.0045 7.32876 33.1626 7.61505 33.3743 7.86219C33.5995 8.10964 33.8778 8.306 34.1895 8.4374C34.4814 8.55607 34.7916 8.62627 35.1073 8.64508C35.2776 8.65628 35.4485 8.65628 35.6188 8.64508C35.7556 8.86205 35.9263 9.05693 36.1247 9.22271C36.3083 9.36762 36.5256 9.46639 36.7576 9.51031C36.9772 9.54685 37.2027 9.53 37.4141 9.46127C37.8073 9.3329 38.0986 9.10343 38.3556 8.86366C38.6051 8.62312 38.8277 8.35743 39.0195 8.07108C38.7649 8.29207 38.4868 8.48611 38.19 8.64992C37.9 8.80674 37.5858 8.92662 37.3045 8.93752C37.1867 8.94759 37.0683 8.92612 36.9622 8.87543C36.856 8.82474 36.7661 8.74675 36.7022 8.64992C36.5619 8.42033 36.4697 8.16598 36.4309 7.90154V7.90154L36.2927 7.46317L35.7949 7.54975C35.5968 7.58045 35.3956 7.58737 35.1957 7.57034C35.0029 7.55689 34.8136 7.51249 34.6357 7.43895C34.4816 7.36979 34.3432 7.27139 34.2287 7.14953C34.1171 7.01407 34.0346 6.85821 33.986 6.69118C33.9274 6.52291 33.9012 6.34555 33.9088 6.16804C33.9157 6.0321 33.9657 5.90157 34.052 5.79446C34.2013 5.60615 34.5423 5.49898 34.8945 5.57225C35.0738 5.60361 35.2448 5.6697 35.3973 5.7666L35.4857 5.81807C35.5639 5.86507 35.6494 5.89942 35.7389 5.91979C35.9238 5.96229 36.1178 5.94486 36.2915 5.87014C36.4783 5.78973 36.6282 5.64536 36.7128 5.46447C36.7526 5.37925 36.7776 5.2882 36.7868 5.19503L36.7962 5.12479C36.8217 4.93951 36.8876 4.78269 36.9542 4.71246C37.0208 4.64222 37.0538 4.63495 37.1826 4.61255C37.467 4.58773 37.8048 4.65736 38.1502 4.89955C38.5036 5.13206 38.8558 5.47052 39.2472 5.85682C39.2659 5.66791 39.2597 5.47745 39.2286 5.29009L39.2734 5.32157C39.3151 5.29735 39.4146 5.21622 39.4906 5.17202C39.5688 5.12189 39.6522 5.07989 39.7395 5.04669C39.9002 4.98086 40.0745 4.95245 40.2485 4.96373C40.6044 4.97161 41.0325 5.17444 41.4395 5.44812C41.8495 5.73492 42.2023 6.09216 42.4805 6.50227C42.7778 6.95074 42.9985 7.44312 43.1339 7.96027C43.2727 7.41049 43.2291 6.81712 43.0642 6.24736C43.0406 6.17046 43.0076 6.09538 42.979 6.0197C43.1686 5.84696 43.3444 5.66033 43.5048 5.46144C43.7344 5.16869 43.9479 4.86431 44.1445 4.54958C44.5221 3.93735 44.8679 3.30705 45.1805 2.66108C45.2129 2.59447 45.2428 2.52666 45.2751 2.45945C45.2832 2.51213 45.2932 2.5648 45.2994 2.61809C45.3271 2.86191 45.3364 3.10739 45.3274 3.35254C45.3034 3.84933 45.2005 4.33952 45.0225 4.8057C44.828 5.28482 44.5728 5.73841 44.2627 6.15593C44.6757 5.80735 45.0292 5.39718 45.31 4.94073C45.5966 4.46939 45.7931 3.95141 45.8899 3.41188C45.9371 3.13963 45.9641 2.86443 45.9708 2.58842C45.9708 2.45037 45.9708 2.31232 45.9646 2.17427C45.9568 2.06036 45.9568 1.94608 45.9646 1.83217C45.9751 1.63429 46.0283 1.44077 46.1208 1.26423C46.1468 1.21752 46.1777 1.1735 46.2129 1.13284C46.3845 1.06995 46.571 1.05609 46.7505 1.09287C46.8611 1.11379 46.9667 1.15487 47.0616 1.21397C47.16 1.26846 47.2327 1.34718 47.3485 1.46827C47.5557 1.68321 47.727 1.92837 47.8563 2.19485C47.9309 2.32201 47.9621 2.46369 48.0156 2.5975C48.0392 2.73919 48.0921 2.87542 48.094 3.02134C48.1562 3.59716 48.0237 4.20748 47.7673 4.78875C47.2489 5.95733 46.3479 7.01148 45.3759 7.96875L45.0026 8.33628L45.3759 8.725C45.4838 8.84243 45.5828 8.96728 45.6721 9.09858C45.7683 9.24035 45.8553 9.38777 45.9328 9.53998C46.2446 10.1517 46.3889 10.8314 46.3516 11.5133C46.3318 11.857 46.2738 12.1977 46.1786 12.5293L46.1102 12.7938L46.2751 13.0082C46.494 13.3004 46.6817 13.6137 46.8351 13.9431C46.9896 14.2723 47.1049 14.6176 47.1786 14.9724C47.245 15.3118 47.2542 15.6594 47.206 16.0017C47.1643 16.3377 47.0237 16.6447 46.8644 16.9426L46.7567 17.1449L46.8046 17.3495C46.8473 17.5464 46.8682 17.7471 46.8669 17.9483C46.8657 18.149 46.8388 18.3488 46.7866 18.5429C46.7376 18.7224 46.6563 18.8919 46.5464 19.0437C46.4468 19.1962 46.2975 19.3058 46.1482 19.4178L45.8432 19.6449L45.9167 19.9997C45.9287 20.0661 45.9355 20.1333 45.9372 20.2007C45.9385 20.2797 45.9335 20.3587 45.9223 20.4369C45.9011 20.5904 45.8511 20.7387 45.7748 20.8746C45.6973 21.0118 45.5958 21.1347 45.4749 21.2379C45.344 21.3512 45.1994 21.4484 45.0443 21.5273L44.5545 21.798L44.7698 22.1552C44.8679 22.3403 44.9375 22.5384 44.9764 22.7432C45.0219 22.9612 45.0339 23.1847 45.0119 23.4062C44.9909 23.6368 44.9232 23.8611 44.8128 24.0661C44.7088 24.2847 44.539 24.4694 44.3548 24.6516C44.5881 24.5445 44.8321 24.4204 45.0306 24.2278C45.242 24.0397 45.414 23.8135 45.5371 23.5618C45.6472 23.337 45.7271 23.0993 45.7748 22.8546C45.786 22.8897 45.8015 22.923 45.8121 22.9581C45.9187 23.3198 45.973 23.6941 45.9733 24.0704C45.9789 24.4437 45.926 24.8157 45.8165 25.1736C45.7207 25.5369 45.5433 25.8741 45.356 26.2065L45.1805 26.5178L45.2222 26.5783C44.5651 27.2104 43.0032 28.5885 41.2397 29.2945C41.1762 29.0526 41.0775 28.8208 40.9467 28.6061C40.4563 27.9182 38.6549 27.8347 38.1147 27.8256L38.1079 28.1822L38.1017 27.8256C37.5609 27.8347 35.7595 27.9182 35.2691 28.6061C35.1382 28.8207 35.0397 29.0526 34.9767 29.2945C33.2181 28.5885 31.6544 27.2098 30.9973 26.5783L31.0384 26.5178L30.8635 26.2065C30.6768 25.8741 30.4982 25.5357 30.4024 25.1736C30.2931 24.8157 30.2403 24.4437 30.2456 24.0704C30.2459 23.6941 30.3002 23.3198 30.4068 22.9581C30.4173 22.923 30.4329 22.8891 30.4441 22.8546C30.4921 23.0992 30.5719 23.3368 30.6818 23.5618C30.8053 23.8134 30.9775 24.0396 31.1889 24.2278C31.3868 24.4185 31.6314 24.5427 31.8647 24.6516C31.678 24.47 31.5106 24.2847 31.4061 24.0661C31.2957 23.8611 31.228 23.6368 31.207 23.4062C31.1856 23.1847 31.1976 22.9613 31.2425 22.7432C31.2813 22.5384 31.351 22.3403 31.4491 22.1552L31.6644 21.798L31.1746 21.5273C31.0196 21.4482 30.875 21.351 30.744 21.2379C30.6231 21.1349 30.5218 21.0119 30.4447 20.8746C30.3682 20.7388 30.318 20.5904 30.2966 20.4369C30.2853 20.3587 30.2805 20.2797 30.2823 20.2007C30.2838 20.1333 30.2905 20.0662 30.3022 19.9997L30.3757 19.6449L30.0714 19.4178C29.917 19.3034 29.7677 19.1938 29.6681 19.0412ZM41.3667 30.0138C43.2005 29.3199 44.8097 27.9552 45.5906 27.2207C45.628 27.3112 45.6592 27.4041 45.6839 27.4986C45.7303 27.6809 45.7586 27.867 45.7686 28.0545C45.277 28.4783 43.5564 29.8515 41.3704 30.5C41.382 30.3381 41.3807 30.1756 41.3667 30.0138V30.0138ZM40.5845 30.7852C40.5547 30.9038 40.5109 31.0186 40.4538 31.1273C40.1166 31.7534 39.3257 32.0712 38.1017 32.0712C36.8777 32.0712 36.0868 31.7534 35.7501 31.1273C35.6926 31.0188 35.6487 30.9039 35.6194 30.7852L35.6363 30.7022L35.5989 30.6938C35.5369 30.3298 35.5532 29.9572 35.6468 29.5997L35.6655 29.5391C35.7082 29.3568 35.7762 29.181 35.8677 29.0166C36.0544 28.7538 37.1745 28.56 38.1048 28.5425C39.0382 28.5594 40.1539 28.7532 40.3449 29.0166C40.4367 29.1809 40.5047 29.3567 40.5472 29.5391H40.544L40.5627 29.5997C40.6564 29.9572 40.6727 30.3298 40.6106 30.6938L40.5733 30.7022L40.5845 30.7852ZM40.8726 41.4563C40.7867 41.7893 40.0929 44.2475 38.1017 45.18C36.1166 44.2506 35.4172 41.7893 35.3307 41.4556C35.3625 39.6313 36.1571 34.168 36.4016 32.5211C36.8708 32.6931 37.434 32.7845 38.1017 32.7845C38.7694 32.7845 39.3331 32.6931 39.8017 32.5211C40.0487 34.1674 40.8434 39.6307 40.8745 41.4575L40.8726 41.4563ZM34.8329 30.4982C32.6506 29.8491 30.9264 28.4741 30.4348 28.052C30.4445 27.8648 30.4726 27.6789 30.5188 27.4968C30.544 27.4024 30.5752 27.3096 30.6121 27.2189C31.393 27.9546 33.0022 29.3175 34.836 30.012C34.8219 30.1737 34.8209 30.3363 34.8329 30.4982ZM28.4342 55.7178L28.2556 55.4454C25.5176 51.2675 26.6751 46.5871 26.6869 46.5405L26.7342 46.3589L26.6533 46.1881C25.311 43.3508 26.8449 40.5856 26.8599 40.5571L27.0055 40.3034L26.8655 40.0467C26.4025 39.199 27.0453 37.6986 27.3315 37.1942L27.433 37.0168L27.3875 36.8182C26.8767 34.5828 28.6793 32.4551 29.7086 31.4549C29.7123 31.6068 29.7216 31.7576 29.7391 31.9084C29.7741 32.226 29.8463 32.5386 29.9544 32.8402C30.0607 33.1333 30.2057 33.4117 30.3856 33.6685C30.2928 33.3831 30.2386 33.0872 30.2244 32.7881C30.211 32.4982 30.2319 32.2076 30.2867 31.9223C30.3404 31.642 30.4195 31.3668 30.5231 31.1001C30.6197 30.8446 30.7418 30.599 30.8878 30.3668V30.3668L30.9792 30.1434L30.8722 29.9085C30.81 29.7777 30.7478 29.6487 30.6899 29.5167C30.6463 29.3823 30.5822 29.2521 30.5517 29.1159C30.5468 29.0995 30.5455 29.0832 30.5412 29.0668C31.441 29.7492 33.0651 30.8028 35.0215 31.2926C35.0451 31.3471 35.0694 31.4022 35.098 31.4555C35.2474 31.7299 35.4574 31.9687 35.7128 32.1548C35.5261 33.4033 34.6157 39.5308 34.5927 41.4902V41.5313L34.6014 41.5713C34.6319 41.7033 35.3687 44.8191 37.9529 45.8975L38.0973 45.958L38.2417 45.8975C40.8259 44.8191 41.5633 41.7033 41.5932 41.5713L41.6025 41.5313V41.4902C41.5814 39.5308 40.6691 33.4039 40.4824 32.1554C40.7376 31.9689 40.9474 31.7302 41.0972 31.4561C41.1265 31.4022 41.1501 31.3471 41.1744 31.2926C43.1302 30.8028 44.7543 29.7498 45.6547 29.0668C45.6497 29.0832 45.6485 29.0995 45.6435 29.1159C45.613 29.2521 45.5489 29.3823 45.5054 29.5167C45.4493 29.6487 45.3809 29.7777 45.323 29.9085L45.216 30.1434L45.3081 30.3668C45.4539 30.599 45.5758 30.8446 45.6721 31.1001C45.7757 31.3668 45.8548 31.642 45.9086 31.9223C45.9631 32.2077 45.984 32.4982 45.9708 32.7881C45.9566 33.0872 45.9024 33.3831 45.8096 33.6685C45.9893 33.4117 46.1341 33.1333 46.2402 32.8402C46.3483 32.5386 46.4205 32.226 46.4555 31.9084C46.473 31.7582 46.4823 31.6056 46.4867 31.4549C47.5153 32.4545 49.318 34.5822 48.8071 36.8182L48.7623 37.0168L48.8625 37.1936C49.1493 37.6986 49.7921 39.196 49.3292 40.0467L49.191 40.3028L49.3348 40.5565C49.3503 40.5837 50.8842 43.349 49.542 46.1875L49.4611 46.3589L49.5078 46.5405C49.5196 46.5871 50.6776 51.2705 47.9396 55.4454L47.7691 55.716L28.4342 55.7178ZM38.6518 53.196C38.8129 53.1887 38.9741 53.179 39.1359 53.1639C39.4873 53.1316 39.8365 53.0784 40.1813 53.0046C40.5351 52.9313 40.8818 52.8282 41.2173 52.6965C41.3909 52.6274 41.56 52.5484 41.7239 52.4597C41.8079 52.4155 41.8912 52.3647 41.9728 52.3114C42.0511 52.2601 42.1263 52.2045 42.198 52.1449C42.5691 51.9984 42.9259 51.8196 43.264 51.6108C43.6606 51.3653 44.0307 51.0813 44.3685 50.7631C43.5418 51.0761 42.6582 51.2216 41.7718 51.1906V51.1906L41.4774 51.3359C41.4774 51.3359 41.4028 51.3922 41.3586 51.4213C41.3032 51.4558 41.2472 51.4909 41.1856 51.5236C41.0605 51.5913 40.9314 51.652 40.7992 51.7053C40.5213 51.8137 40.2345 51.8987 39.9417 51.9596C39.641 52.0236 39.3365 52.0697 39.0301 52.0976C38.7189 52.1261 38.4078 52.137 38.0923 52.14C37.7812 52.14 37.4645 52.1261 37.1552 52.0976C36.8488 52.0692 36.5443 52.0229 36.2436 51.959C35.9505 51.8987 35.6634 51.8138 35.3855 51.7053C35.2534 51.6521 35.1245 51.5914 34.9997 51.5236C34.9375 51.4909 34.8814 51.4558 34.8261 51.4213C34.7819 51.3922 34.7078 51.3359 34.7078 51.3359L34.4129 51.1906C33.5264 51.2215 32.6428 51.0761 31.8162 50.7631C32.154 51.0813 32.5241 51.3653 32.9207 51.6108C33.2588 51.8196 33.6156 51.9984 33.9866 52.1449C34.0585 52.2044 34.1337 52.26 34.2119 52.3114C34.2953 52.3647 34.3787 52.4155 34.4608 52.4597C34.6249 52.5483 34.7943 52.6273 34.9679 52.6965C35.3034 52.8279 35.6498 52.931 36.0034 53.0046C36.3482 53.0784 36.6973 53.1316 37.0488 53.1639C37.2106 53.179 37.3717 53.1887 37.5329 53.196" fill="#0E0927"/>
<rect x="28.5312" y="55.4062" width="19.25" height="0.84375" fill="white"/>
</g>
<defs>
<clipPath id="clip0_3082:2554">
<rect width="27" height="56" fill="white" transform="translate(25)"/>
</clipPath>
</defs>
</svg>
