<svg width="60" height="65" viewBox="0 0 60 65" fill="none" xmlns="http://www.w3.org/2000/svg">
<path d="M60 34.2714C60 50.8428 46.5714 64.2714 30 64.2714C13.4286 64.2714 0 50.8428 0 34.2714C0 17.7 13.4286 4.27142 30 4.27142C46.5714 4.27142 60 17.7 60 34.2714Z" fill="#FFD401"/>
<path fill-rule="evenodd" clip-rule="evenodd" d="M30 15.8943C25.3057 15.888 20.7897 17.6916 17.3914 20.93C10.0514 27.9 9.73715 39.5543 16.6914 46.9114C18.3456 48.6628 20.3291 50.0705 22.5283 51.0538C24.7276 52.0373 27.0993 52.577 29.5076 52.642C31.9157 52.707 34.3131 52.2961 36.5621 51.4328C38.8113 50.5695 40.868 49.271 42.6143 47.6114C49.9543 40.6428 50.2671 28.9871 43.3143 21.6314C41.6083 19.8116 39.5454 18.3627 37.2547 17.3754C34.964 16.3881 32.4944 15.8834 30 15.8928V15.8943ZM30 53.6571C27.3687 53.6671 24.7637 53.1348 22.3474 52.0934C19.931 51.052 17.7553 49.5238 15.9557 47.6043C8.62143 39.8443 8.95572 27.5514 16.6943 20.1986C18.5363 18.448 20.7057 17.0781 23.0783 16.1676C25.4507 15.2571 27.9797 14.8237 30.52 14.8926C33.0603 14.9613 35.562 15.5307 37.8819 16.5681C40.2016 17.6057 42.2939 19.0908 44.0386 20.9386C51.3729 28.6986 51.0386 40.9914 43.3 48.3428C39.716 51.7603 34.952 53.6637 30 53.6571Z" fill="white"/>
<path d="M40.2856 51.6571L44.6828 59.0471C47.3051 57.4838 49.6625 55.5141 51.6671 53.2114C51.7599 53.1014 51.8514 52.99 51.9428 52.8785C52.1124 52.6785 52.2799 52.4761 52.4456 52.2714C52.5771 52.1057 52.7071 51.9371 52.8356 51.7685C52.9999 51.5543 53.1628 51.34 53.3214 51.1171C53.4404 50.9533 53.5561 50.7875 53.6685 50.62C53.8295 50.3885 53.9871 50.1543 54.1414 49.9171C54.2456 49.7557 54.3471 49.5928 54.4471 49.4285C54.6014 49.1814 54.7499 48.9328 54.8971 48.6814C54.9885 48.5214 55.0785 48.3614 55.1656 48.1985C55.3085 47.9371 55.4514 47.6728 55.5942 47.4057C55.6728 47.2514 55.7485 47.0971 55.8242 46.9414C55.9614 46.6624 56.0942 46.3814 56.2228 46.0985C56.2899 45.9471 56.3556 45.7957 56.4199 45.6428C56.5456 45.3571 56.6661 45.0653 56.7814 44.7671C56.8399 44.6171 56.8956 44.4671 56.9514 44.3157C57.0285 44.12 57.1014 43.9228 57.1742 43.7243H57.1628C58.1664 40.8405 58.7059 37.8157 58.7614 34.7628L50.1485 34.62C50.1485 34.6871 50.1485 34.7528 50.1485 34.8185C50.1399 35.1424 50.1238 35.4657 50.0999 35.7885C50.0761 36.1114 50.0442 36.4333 50.0042 36.7543C49.9661 37.0761 49.9185 37.3967 49.8614 37.7157C49.8056 38.0357 49.7442 38.3528 49.6742 38.67C49.6042 38.9871 49.5314 39.3028 49.4414 39.6157C49.3514 39.9285 49.2628 40.2414 49.1628 40.5514C49.0628 40.8614 48.9542 41.17 48.8385 41.4757C48.7228 41.7814 48.5985 42.0843 48.4671 42.3857C48.3356 42.6871 48.1985 42.9843 48.0514 43.28C47.9042 43.5757 47.7514 43.8671 47.5899 44.1557C47.4285 44.4443 47.2599 44.7271 47.0828 45.0128C46.9056 45.2985 46.7228 45.5743 46.5314 45.85C46.3399 46.1257 46.1399 46.3957 45.9328 46.6628C45.7256 46.93 45.5114 47.1928 45.2899 47.4514C45.0685 47.71 44.8385 47.9628 44.6014 48.2128C44.3642 48.4628 44.1185 48.7057 43.8671 48.9457C43.6156 49.1857 43.3914 49.3857 43.1528 49.5971C42.9142 49.8085 42.6599 50.0114 42.4071 50.21C42.1542 50.4085 41.8985 50.5985 41.6385 50.7814C41.3785 50.9643 41.1142 51.1443 40.8456 51.3157C40.6614 51.4343 40.4728 51.5443 40.2856 51.6571Z" fill="white"/>
<path d="M9.86564 35.1L1.22998 35.45C1.35622 38.4936 1.96375 41.498 3.02998 44.3514L3.10712 44.5457C3.24998 44.9071 3.39284 45.26 3.53569 45.6214L3.61855 45.8114C3.78855 46.2014 3.96712 46.5857 4.15284 46.9671L4.19427 47.05C5.39192 49.479 6.92554 51.7271 8.74992 53.7286L8.76564 53.7143C10.8215 55.964 13.2208 57.8739 15.8742 59.3729L20.0928 51.8886C19.8356 51.7457 19.5814 51.5943 19.3314 51.4371C19.0456 51.2571 18.7628 51.069 18.4828 50.8729C18.2028 50.6767 17.9291 50.4761 17.6614 50.2714C17.3914 50.06 17.1256 49.8429 16.8656 49.6171C16.6056 49.3914 16.3485 49.1586 16.0971 48.9186C15.8456 48.6786 15.6014 48.4314 15.3614 48.1771C15.1214 47.9229 14.8899 47.6671 14.6671 47.4057C14.4442 47.1443 14.2285 46.8786 14.0199 46.6071C13.8114 46.3357 13.6128 46.0643 13.4199 45.7857C13.2271 45.5071 13.0442 45.2271 12.8671 44.9414C12.6899 44.6557 12.5214 44.37 12.3599 44.0843C12.1985 43.7986 12.0456 43.4986 11.8999 43.2014C11.7542 42.9043 11.6142 42.6029 11.4871 42.3C11.3599 41.9971 11.2342 41.6929 11.1199 41.3857C11.0056 41.0786 10.8985 40.7686 10.7985 40.4571C10.6985 40.1457 10.6085 39.8314 10.5242 39.5171C10.4399 39.2029 10.3656 38.8857 10.2971 38.5671C10.2285 38.2486 10.1685 37.93 10.1156 37.61C10.0628 37.29 10.0171 36.9686 9.97278 36.6471C9.92849 36.3257 9.90564 36.0029 9.88278 35.68C9.86992 35.4914 9.86564 35.3014 9.85849 35.1086L9.86564 35.1Z" fill="white"/>
<path d="M30.2685 5.5114C28.7385 5.4971 27.2098 5.60554 25.697 5.83569C22.0592 6.38714 18.5605 7.62999 15.3899 9.49712L19.7342 16.8771C19.8127 16.83 19.8899 16.78 19.9685 16.7343C20.2427 16.5761 20.5209 16.4243 20.8027 16.2786C21.0885 16.1357 21.3742 15.9928 21.6599 15.8643C21.9456 15.7357 22.2313 15.6086 22.5313 15.4914C22.8313 15.3743 23.1213 15.2643 23.4199 15.1614C23.7185 15.0586 24.0213 14.9614 24.3242 14.8757C24.627 14.79 24.9342 14.7043 25.2427 14.63C25.5513 14.5557 25.8613 14.4871 26.1742 14.4286C26.487 14.37 26.7999 14.3157 27.1156 14.27C27.4313 14.2243 27.7485 14.1871 28.067 14.1557C28.3856 14.1243 28.707 14.1028 29.0285 14.0871C29.3499 14.0714 29.6727 14.0643 29.997 14.0643C30.3456 14.0643 30.6938 14.0733 31.0413 14.0914C31.389 14.1096 31.7333 14.1353 32.0742 14.1686C32.417 14.2028 32.757 14.2471 33.0956 14.2986C33.4342 14.35 33.7699 14.41 34.1042 14.4786C34.4385 14.5471 34.7685 14.6214 35.097 14.7086C35.4256 14.7957 35.7513 14.8871 36.0742 14.9943C36.397 15.1014 36.717 15.2057 37.0328 15.3228C37.3485 15.44 37.6627 15.5657 37.9727 15.7C38.2827 15.8343 38.5899 15.9743 38.8927 16.1286C39.0827 16.2228 39.2699 16.3257 39.457 16.4257L43.4413 8.86711C40.7437 7.4402 37.8366 6.45074 34.8285 5.93569V5.91426C33.3207 5.65867 31.7949 5.52396 30.2656 5.5114H30.2685Z" fill="white"/>
<path d="M27.4629 60.1286C27.1435 59.6309 26.9789 59.0497 26.9898 58.4584C27.0008 57.8671 27.1868 57.2924 27.5243 56.8069C27.8619 56.3213 28.3359 55.9469 28.8863 55.7306C29.4368 55.5144 30.0389 55.4664 30.6168 55.5924C31.1945 55.7184 31.7219 56.013 32.1322 56.4389C32.5426 56.8647 32.8175 57.4026 32.9222 57.9846C33.0268 58.5666 32.9565 59.1666 32.7202 59.7087C32.4838 60.2507 32.092 60.7106 31.5943 61.03C31.2639 61.2421 30.8949 61.387 30.5085 61.4566C30.1219 61.526 29.7256 61.5187 29.3419 61.435C28.9583 61.3513 28.5949 61.1929 28.2725 60.9687C27.95 60.7446 27.675 60.459 27.4629 60.1286Z" fill="white"/>
<path d="M8.54003 19.5485C9.13032 19.5115 9.71818 19.6504 10.2295 19.9475C10.7407 20.2447 11.1525 20.6868 11.4125 21.2178C11.6725 21.749 11.7692 22.3453 11.6903 22.9314C11.6115 23.5174 11.3606 24.067 10.9695 24.5104C10.5783 24.954 10.0645 25.2715 9.49275 25.423C8.92118 25.5744 8.31746 25.553 7.75803 25.3613C7.1986 25.1697 6.70856 24.8164 6.34988 24.3463C5.99119 23.8761 5.77998 23.3101 5.74293 22.72C5.71833 22.3281 5.77118 21.9351 5.89843 21.5637C6.02571 21.1921 6.22489 20.8494 6.48463 20.5548C6.74438 20.2604 7.05958 20.02 7.41226 19.8473C7.76489 19.6745 8.14818 19.5731 8.54003 19.5485Z" fill="white"/>
<path d="M51.3171 19.5485C50.727 19.5115 50.1391 19.6504 49.6278 19.9475C49.1166 20.2447 48.7048 20.6868 48.4448 21.2178C48.1847 21.749 48.088 22.3453 48.1668 22.9314C48.2457 23.5174 48.4966 24.067 48.8877 24.5104C49.279 24.954 49.7928 25.2715 50.3644 25.423C50.9361 25.5744 51.5398 25.553 52.0993 25.3613C52.6587 25.1697 53.1487 24.8164 53.5074 24.3463C53.8661 23.8761 54.0773 23.3101 54.1143 22.72C54.1391 22.328 54.0864 21.935 53.9593 21.5634C53.832 21.1918 53.6328 20.849 53.3731 20.5545C53.1133 20.26 52.798 20.0196 52.4453 19.847C52.0924 19.6743 51.7091 19.573 51.3171 19.5485Z" fill="white"/>
<path d="M32.2568 6.40142C32.9205 9.98426 39.2435 12.49 37.4605 11.7228C37.0958 11.2671 38.1982 7.35285 38.1982 7.35285C38.1982 7.35285 38.6873 5.69286 38.5951 5.19C38.5029 4.68715 38.7656 2.77716 38.5281 2.40573C38.2905 2.0343 38.0306 0.78289 37.9453 0.630033C37.8601 0.477176 37.6575 0.0700331 37.2886 0.264319C36.9196 0.458604 36.6709 0.848604 36.5368 1.07003C36.4026 1.29146 35.4651 2.93716 35.2695 3.1743C35.0738 3.41145 34.1333 4.25286 34.1333 4.25286L32.2568 6.40142ZM23.0189 5.90715C22.5996 5.19286 23.0636 5.81715 22.4991 5.01C22.4991 5.01 21.5768 4.18429 21.2638 3.43859C20.9508 2.69288 20.6308 1.99145 20.0649 2.14288C19.4989 2.2943 19.3928 2.49859 19.2683 3.7743C19.1441 5.05 19.1608 7.90713 19.1608 7.90713C19.1999 7.89856 18.7989 7.9157 19.0812 8.81855C20.4072 7.85713 21.4482 7.36285 23.0189 5.90715ZM18.4383 14.4957C17.7299 16.5514 18.4705 18.7813 18.5348 20.6284C18.0709 20.7713 18.5348 21.6627 18.6131 22.2498C18.2133 22.8498 18.3839 23.4541 18.7262 24.0598C18.4859 24.8498 18.4216 25.6527 19.1008 26.5113C18.8743 27.2256 18.7346 27.9227 19.3075 28.4127C19.3578 29.6441 19.3802 30.9098 20.2242 31.1927C19.9378 31.8756 19.5003 32.4784 20.0845 33.6127C19.8496 34.2284 19.4445 34.8198 20.1822 35.5741C19.9881 36.4484 19.2572 36.9698 20.2871 38.644L20.2745 39.9668C20.0062 40.714 19.6891 41.4754 19.8371 42.0868L19.9182 44.2654C19.0629 44.6126 18.4118 46.3883 17.8486 48.2411C19.0532 49.2411 23.6211 52.7683 30.3479 52.6283C36.6486 52.4968 40.8826 49.2283 42.1373 48.1811C42.5915 47.3826 41.3871 45.9411 41.2025 45.7068C40.9762 42.9683 40.6688 42.5297 40.2482 42.154C40.0986 40.4126 40.0386 38.6884 39.3035 36.8298C39.5118 35.4756 38.8075 34.9056 38.4401 34.0456C38.6803 32.8056 38.2919 32.3213 38.1522 31.5356L38.4861 29.657C38.9962 28.767 38.8969 27.7998 38.4191 26.7898C39.4042 25.8827 38.9095 24.867 38.8201 23.8813C39.1303 22.9413 38.8201 22.0656 38.6803 21.167C39.2631 20.6956 38.7391 19.8698 38.5685 19.157C39.4195 17.4528 38.9291 16.8714 38.7768 16.0143C39.0688 15.4557 39.2253 14.5171 38.8759 14.36L38.1088 8.2714C34.8949 6.55713 26.2565 1.66575 19.6261 8.38712C19.5579 8.36772 19.4862 8.3643 19.4165 8.37712C18.3881 8.58426 18.3965 12.7886 18.4383 14.4957Z" fill="white"/>
<path d="M32.0543 6.45859C32.3071 7.78143 33.2321 8.88715 34.1991 9.74429C35.07 10.5074 36.0208 11.1696 37.0344 11.7186C37.2425 11.8343 37.4647 11.9286 37.6687 12.0486L37.8294 11.6571C37.8615 11.67 37.9161 11.6914 37.8294 11.6571L37.68 11.5871C37.664 11.5783 37.6471 11.5711 37.6297 11.5657C37.5751 11.55 37.5988 11.5257 37.6087 11.5757C37.6338 11.7028 37.6283 11.5614 37.6184 11.5757C37.6087 11.59 37.6268 11.6186 37.6184 11.5657C37.6184 11.5443 37.6087 11.5243 37.6044 11.5043C37.6003 11.4843 37.6044 11.5386 37.6044 11.4828C37.6044 11.4271 37.6044 11.3786 37.6044 11.3257C37.6044 10.7 37.761 10.0657 37.8951 9.45857C38.0991 8.53857 38.3674 7.64002 38.5938 6.72573C38.692 6.35042 38.7644 5.96853 38.8104 5.58289C38.844 5.27003 38.7894 5.05289 38.795 4.74575C38.795 4.34718 38.83 3.9486 38.8425 3.55005C38.8753 3.19469 38.8588 2.8364 38.7935 2.48576C38.747 2.36188 38.69 2.24239 38.6231 2.12862C38.5527 1.9534 38.4924 1.77403 38.4428 1.59148C38.3464 1.26435 38.2821 0.918632 38.1634 0.60149C38.0447 0.284347 37.7443 -0.0685102 37.367 0.0114898C36.9155 0.107204 36.5815 0.592918 36.3553 0.967204C36.0185 1.52578 35.7027 2.09862 35.3617 2.65433C35.251 2.85788 35.1121 3.04406 34.9495 3.20719C34.6938 3.4629 34.427 3.70575 34.16 3.94718L33.9881 4.10146C33.7855 4.28432 34.0831 4.58575 34.2858 4.40432C34.4884 4.22289 34.6547 4.07003 34.8377 3.90003C35.0711 3.70502 35.2854 3.48733 35.4777 3.25005C35.8497 2.6969 36.194 2.12473 36.509 1.53578C36.64 1.28576 36.7905 1.0469 36.9588 0.82149C37.0665 0.690061 37.3235 0.37149 37.5178 0.425775C37.6353 0.460061 37.7148 0.628633 37.7665 0.730061C37.7665 0.742918 37.7554 0.692918 37.7665 0.748633L37.7875 0.812918C37.8127 0.892918 37.8337 0.972918 37.856 1.05292C37.9063 1.24006 37.9565 1.4272 38.0097 1.6129C38.0628 1.79862 38.1271 2.0129 38.2025 2.20576C38.2333 2.28433 38.2654 2.3629 38.3031 2.43719C38.3157 2.46148 38.3311 2.48433 38.3437 2.50719C38.3688 2.5529 38.3437 2.50719 38.3604 2.54148C38.4653 2.83862 38.4205 3.21719 38.4107 3.52576C38.3981 3.92575 38.3688 4.32432 38.3618 4.72432C38.3618 5.02289 38.408 5.24718 38.3828 5.5286C38.3401 5.89895 38.2691 6.2653 38.1704 6.6243C37.951 7.5143 37.6897 8.39 37.4913 9.28429C37.3298 9.91619 37.2241 10.5616 37.1755 11.2128C37.1495 11.4132 37.1785 11.617 37.2593 11.8014C37.3305 11.9243 37.5024 11.9657 37.6254 12.0214C37.6548 12.0343 37.6841 12.0486 37.7148 12.06C37.9384 12.15 38.0768 11.7871 37.8755 11.6686C37.7218 11.5786 37.5528 11.5071 37.3963 11.4228C36.9891 11.2038 36.5914 10.9686 36.203 10.7171C35.148 10.0371 34.1251 9.23429 33.351 8.22429C32.911 7.67605 32.6037 7.02953 32.4538 6.33716C32.4021 6.06716 31.9983 6.18145 32.05 6.45145L32.0543 6.45859Z" fill="black"/>
<path d="M23.1993 5.80004C23.1448 5.70719 23.0903 5.61433 23.0413 5.51433C23.0413 5.50433 23.0106 5.44147 23.0205 5.4729C23.0302 5.50433 23.0205 5.46147 23.0205 5.45433C23.001 5.38827 22.9729 5.32529 22.9366 5.26719C22.8492 5.11437 22.7472 4.97081 22.6319 4.83863C22.5328 4.73577 22.4252 4.64149 22.3245 4.53863C21.9652 4.19321 21.6686 3.7855 21.4483 3.33434C21.2443 2.8715 21.0292 2.2415 20.5555 1.99721C20.2425 1.83579 19.826 1.93293 19.555 2.14007C19.2839 2.34721 19.2056 2.69579 19.1539 3.01579C19.0233 3.95214 18.9602 4.89707 18.9653 5.8429C18.9528 6.53433 18.9472 7.22861 18.9513 7.92003C18.9518 7.95291 18.9596 7.98524 18.974 8.01461C18.9885 8.04397 19.0093 8.0696 19.0349 8.08954C19.0605 8.1095 19.09 8.12324 19.1216 8.12977C19.1532 8.13629 19.1858 8.1354 19.2169 8.12717C19.2346 8.12103 19.2519 8.11339 19.2685 8.10431C19.303 8.08233 19.3306 8.05069 19.348 8.01316C19.3655 7.97563 19.3719 7.93379 19.3668 7.89257C19.3616 7.85137 19.345 7.81254 19.3189 7.7807C19.2929 7.74884 19.2583 7.72531 19.2196 7.71289C19.0688 7.6686 19.0422 7.71563 18.975 7.83849C18.8186 8.1242 18.792 8.5986 18.8786 8.8886C18.8876 8.92011 18.9033 8.94914 18.9249 8.97353C18.9463 8.99791 18.9729 9.01701 19.0026 9.02939C19.0323 9.04176 19.0643 9.04709 19.0965 9.04497C19.1285 9.04286 19.1596 9.03334 19.1875 9.01717C19.8065 8.56574 20.4535 8.16003 21.0838 7.73146C21.8165 7.22976 22.5128 6.6745 23.1672 6.07004C23.3683 5.88576 23.0708 5.5829 22.8709 5.76719C22.2308 6.35804 21.5493 6.90041 20.8322 7.39003C20.2145 7.8186 19.5746 8.21146 18.975 8.65289L19.2825 8.78003C19.2028 8.5822 19.177 8.36589 19.2085 8.15431C19.1986 8.19003 19.228 8.12003 19.2295 8.11717C19.2295 8.14574 19.2433 8.11717 19.2099 8.13574C19.2378 8.1186 19.2518 8.13574 19.1986 8.13574C19.2602 8.12574 19.0995 8.13574 19.1079 8.13574L19.0575 7.74431L19.105 7.72431L19.3748 7.91431C19.3663 6.56147 19.3538 5.20006 19.4753 3.84577C19.5103 3.46434 19.5159 2.98864 19.6919 2.64007C19.7285 2.55646 19.7922 2.48833 19.8722 2.44721C19.9846 2.38026 20.1123 2.34479 20.2425 2.34436C20.4395 2.36007 20.5806 2.55721 20.6799 2.71436C20.8182 2.94733 20.9388 3.19091 21.0403 3.44291C21.247 3.8979 21.5278 4.31379 21.8703 4.67291C22.0003 4.81577 22.1359 4.95863 22.2756 5.0872C22.3789 5.19483 22.4699 5.31417 22.5468 5.4429C22.5649 5.4729 22.583 5.5029 22.6026 5.53147C22.6222 5.56004 22.6319 5.59576 22.6166 5.55433C22.6012 5.5129 22.6166 5.56719 22.6166 5.58004C22.6723 5.7346 22.7475 5.88107 22.8402 6.01576C22.9785 6.25147 23.3405 6.03576 23.1993 5.80004Z" fill="black"/>
<path d="M37.4897 2.22719L36.3063 5.13575L36.555 3.70719C35.4203 5.27861 35.029 6.56431 34.2493 6.56431C33.3145 6.77573 33.4417 5.82575 32.9595 5.45718L32.2608 6.37431C33.0714 9.15286 34.9927 10.4343 37.269 11.6371L37.4701 11.3128C37.0287 10.7414 36.8665 9.71715 37.037 9.15143C37.058 8.98572 37.6798 5.97145 37.6798 5.97145C37.6798 5.97145 37.167 4.83575 37.1893 4.24432C37.2117 3.65291 37.4897 2.22719 37.4897 2.22719ZM19.6721 2.52291C19.6624 2.52291 19.6568 2.53148 19.654 2.54719C19.1343 3.76148 19.179 8.78429 19.2083 8.66286C19.3787 8.49369 19.567 8.36021 19.7628 8.24135C19.9803 8.10942 20.2068 7.85996 20.4285 7.73529C20.6817 7.59289 21.0664 7.29808 21.2857 7.08466C21.1378 6.52158 20.3667 3.96003 20.2787 3.55005C20.206 3.20719 19.7603 2.52005 19.6721 2.52291ZM22.0644 42.8211C22.4641 42.4968 22.6053 41.3756 22.0113 40.7256C21.6453 40.3241 22.404 39.5213 22.3131 38.9856C22.228 38.4813 21.9191 37.9113 21.9443 37.3698C21.968 36.8498 22.3733 36.4027 22.4347 35.9227C22.3341 34.5541 21.9498 34.5841 22.3341 33.8941C22.5493 32.7884 21.9904 31.7998 22.0868 31.1798C22.7687 30.4656 23.5651 29.9413 22.3817 28.5127C22.2935 28.427 22.5074 27.8384 22.1385 27.6056C21.4398 27.167 21.1017 24.1241 21.458 23.4098C21.6397 23.047 22.8553 21.6813 23.4575 21.1314C23.6407 20.9657 23.6407 20.7786 23.7608 20.62C24.6718 20.13 26.0468 20.3243 26.6058 21.13C26.8084 21.32 28.0521 21.1628 28.3343 21.13C28.6921 21.0914 30.5085 20.9214 30.7797 20.6543C31.0968 20.3443 30.095 18.7971 30.0531 18.1657C30.0111 17.5343 29.6241 17.7086 30.5994 17.2557C31.3204 17.0857 33.5758 16.9014 33.4821 16.0428C33.4025 16.0786 33.8343 15.1386 33.383 14.3571C31.8458 11.6643 18.2915 8.34429 18.5221 14.38C18.0875 14.8586 18.226 17.6486 18.2287 17.36C18.2287 16.9986 17.9115 18.8443 18.7178 20.1157C18.8575 20.3471 18.4174 20.6243 18.374 20.8957C18.3028 21.3457 18.6884 21.6684 18.7065 22.0713C18.722 22.4141 18.4118 22.717 18.4467 23.0713C18.476 23.357 18.8658 23.5356 18.8658 23.8141C18.8658 24.3327 18.627 24.7827 18.5781 25.3298C18.5221 25.9541 19.2348 26.4856 19.2767 26.4727C19.6665 26.3941 18.9008 27.2113 18.9554 27.6513C19.0028 28.0284 19.3395 28.2798 19.3871 28.637C19.4403 29.0384 19.4081 29.9427 19.5548 30.3327C19.6861 30.6827 19.4794 30.6627 20.0215 31.0213C20.5637 31.3798 19.756 32.1641 19.8021 32.7356C19.8245 33.0284 20.1137 33.2056 20.1403 33.4698C20.1753 33.8084 19.7685 34.1998 19.7867 34.5998C19.8035 34.9684 20.1654 35.2584 20.1765 35.5813C20.1905 36.0413 19.7811 36.5198 19.7658 37.0098C19.7448 37.6984 20.1417 38.1998 20.2898 38.8313C20.3918 39.2727 20.5315 39.7041 20.2758 40.0827C20.0201 40.4613 20.2143 40.2667 19.8567 41.2066C19.8567 41.2066 19.7857 42.485 19.9285 43.9536C19.7608 44.5693 19.7714 44.3997 19.7714 44.3997L19.1021 44.914L18.9064 45.914C18.7317 45.8754 17.7788 47.4154 17.8473 48.2126C18.9888 49.2811 22.1903 51.1711 25.6724 51.724C24.3784 51.1026 23.1474 49.9283 22.1175 48.414C22.1175 48.414 20.607 47.184 21.8115 45.7111C22.2797 45.1397 21.3504 43.3954 22.0644 42.8154V42.8211Z" fill="black" fill-opacity="0.2"/>
<path d="M21.0781 6.0972C20.9642 5.36877 20.8117 4.64723 20.6211 3.93578C20.5539 3.67007 20.1488 3.78293 20.2172 4.05007C20.4079 4.76093 20.5601 5.48201 20.6728 6.21006C20.6892 6.26354 20.7255 6.30838 20.7737 6.33506C20.8219 6.36171 20.8785 6.36813 20.9312 6.35291C20.9839 6.33661 21.0287 6.30027 21.0559 6.25137C21.0832 6.20247 21.0911 6.14474 21.0781 6.09005V6.0972Z" fill="black"/>
<path d="M22.6472 5.04578C22.2476 4.40006 21.7459 3.82577 21.3742 3.1615C21.1059 2.68007 20.8558 1.80293 20.1711 1.8615C19.6122 1.91007 19.3118 2.35865 19.1846 2.8715C19.0126 3.56435 19.0196 4.30006 19.0155 5.01435C19.0085 6.0029 19.0266 6.9929 18.9316 7.97717C18.9051 8.25146 19.3243 8.25003 19.3509 7.97717C19.4291 7.1729 19.4305 6.3629 19.4319 5.54862C19.4152 4.83613 19.4428 4.12327 19.5143 3.41436C19.5646 3.0315 19.6275 2.54436 20.0021 2.35722C20.0485 2.3269 20.1006 2.30706 20.1552 2.29903C20.2098 2.29099 20.2653 2.29495 20.3182 2.31063C20.3711 2.32633 20.4202 2.35337 20.4621 2.38999C20.5039 2.4266 20.5376 2.47192 20.5609 2.52293C20.7189 2.77436 20.8405 3.0515 20.9802 3.3115C21.3589 4.00435 21.8786 4.5972 22.2923 5.26863C22.4321 5.50149 22.7995 5.28577 22.6542 5.05292L22.6472 5.04578Z" fill="black"/>
<path d="M36.1961 10.2472C36.6725 9.84289 36.9198 9.1286 37.1211 8.55717C37.3924 7.78823 37.585 6.99253 37.6954 6.18292C37.7548 5.80903 37.7758 5.42984 37.7583 5.05149C37.7374 4.77863 37.3181 4.77577 37.3391 5.05149C37.388 5.72577 37.2567 6.41719 37.1085 7.07004C36.9548 7.81562 36.7147 8.53977 36.3931 9.22717C36.2781 9.49719 36.1103 9.74029 35.8998 9.94146C35.6917 10.1172 35.9893 10.42 36.1961 10.2443V10.2472Z" fill="black"/>
<path d="M29.0252 4.78133C28.4245 4.51426 27.5942 4.59691 26.9285 4.65988C26.0326 4.74408 25.1399 4.91358 24.2646 5.16565C23.8573 5.27428 23.4593 5.42093 23.0772 5.60326C22.8048 5.74248 22.9648 6.13469 23.24 5.99421C23.9142 5.65285 24.6759 5.47209 25.4046 5.32388C26.2308 5.14022 27.0686 5.04659 27.9 5.04496C28.2223 5.03378 28.7116 5.02475 29 5.13273C29.2616 5.24983 29.2832 4.89838 29.0223 4.78258L29.0252 4.78133Z" fill="black"/>
<path d="M33.011 6.03771C32.5363 5.57065 31.7169 5.34687 31.0613 5.16445C30.1789 4.9184 29.2687 4.75313 28.3453 4.6713C27.9186 4.62508 27.4872 4.61778 27.0579 4.64953C26.7486 4.68083 26.7587 5.10498 27.0713 5.07358C27.8359 4.99918 28.6256 5.10648 29.372 5.23217C30.224 5.3601 31.0546 5.57628 31.8459 5.87613C32.1563 5.98247 32.2647 5.93944 32.5 6.14483C32.7063 6.34894 32.9206 5.91377 32.7143 5.71107L33.011 6.03771Z" fill="black"/>
<path d="M37.7218 11.6316C37.6631 11.0244 37.7692 10.3916 37.8615 9.79442C37.9649 9.15443 38.1018 8.523 38.2458 7.893C38.3198 7.56729 38.3604 7.2373 38.4595 6.91587C38.5266 6.6973 38.6132 6.4873 38.6678 6.26302C38.7285 6.00057 38.7552 5.73114 38.7474 5.46159C38.7474 5.26589 38.7111 5.06874 38.7111 4.87303C38.7111 4.62446 38.7558 4.36874 38.7684 4.11874C38.8131 3.31303 38.8019 2.4559 38.4889 1.70019C38.2961 1.23877 38.2584 0.624487 37.9006 0.253059C37.4702 -0.196941 36.8708 0.178773 36.5704 0.583059C36.1302 1.17449 35.8815 1.90019 35.4861 2.52304C35.0305 3.23733 34.4255 3.80874 33.7868 4.34589C33.2034 4.82654 32.7148 5.41662 32.3476 6.08444C32.3219 6.13336 32.3159 6.19053 32.3306 6.24393C32.3455 6.29732 32.3799 6.34277 32.4268 6.37072C32.4736 6.39867 32.5294 6.40693 32.5821 6.39377C32.6348 6.38062 32.6805 6.34706 32.7095 6.30016C33.0218 5.72104 33.4352 5.20537 33.9294 4.77874C34.4346 4.37193 34.9049 3.92173 35.3351 3.43303C35.8451 2.81876 36.1931 2.1259 36.5606 1.41876C36.6829 1.15832 36.8399 0.916487 37.0274 0.700201C37.1446 0.577344 37.3641 0.414487 37.5401 0.505916C37.7162 0.597344 37.7735 0.848773 37.8266 1.01306C37.9034 1.2559 37.9664 1.50733 38.0544 1.74447C38.3408 2.45876 38.3954 3.1959 38.3618 3.96589C38.3534 4.1816 38.3381 4.39446 38.3198 4.61303C38.3075 4.84532 38.3098 5.07819 38.3268 5.31017C38.3462 5.57293 38.3312 5.83719 38.2821 6.09587C38.2359 6.30444 38.1578 6.50302 38.0921 6.70587C37.9984 6.9968 37.9274 7.29489 37.8796 7.59729C37.8308 7.90872 37.7399 8.21729 37.6785 8.52729C37.6002 8.89396 37.5308 9.26347 37.4702 9.63586C37.3641 10.2844 37.2396 10.9773 37.3025 11.6358C37.3291 11.9073 37.7484 11.9101 37.7218 11.6358V11.6316Z" fill="black"/>
<path d="M18.1994 14.61C18.2245 14.8957 18.1155 15.1914 18.029 15.4671C17.9174 15.771 17.835 16.0854 17.783 16.4057C17.7214 16.9974 17.8767 17.5914 18.219 18.0727L18.1644 17.8641C18.0415 18.2784 17.913 18.7356 17.9855 19.1727C18.0437 19.3907 18.1291 19.6001 18.24 19.7956C18.284 19.9016 18.3141 20.013 18.3294 20.127C18.3461 20.2699 18.2721 20.307 18.2064 20.4441C18.15 20.5603 18.1064 20.6824 18.0764 20.8084C18.0274 21.0281 18.0341 21.257 18.096 21.4733C18.158 21.6896 18.2728 21.8861 18.43 22.0441C18.62 22.2413 18.9163 21.937 18.7263 21.7413C18.6423 21.6591 18.5754 21.5604 18.5295 21.4511C18.4837 21.342 18.4598 21.2244 18.4593 21.1056C18.4638 20.9511 18.501 20.7996 18.5683 20.6613C18.6465 20.4927 18.7695 20.3756 18.7527 20.1813C18.7248 19.8356 18.5878 19.5827 18.451 19.2784C18.2958 18.9327 18.451 18.437 18.5501 18.0427C18.5963 17.8584 18.5223 17.797 18.4384 17.647C18.368 17.5117 18.3148 17.3677 18.2804 17.2184C18.212 16.9803 18.2033 16.7306 18.2143 16.4826C18.2604 15.844 18.6731 15.2629 18.613 14.61C18.5907 14.3371 18.1714 14.3357 18.1938 14.61H18.1994Z" fill="black"/>
<path d="M19.0988 7.78599C19.0817 8.07232 18.9304 8.34832 18.8041 8.6079C18.6491 8.89168 18.5214 9.1901 18.423 9.49899C18.275 10.0748 18.3412 10.6857 18.609 11.2132L18.5857 10.9988C18.4032 11.3899 18.2088 11.8226 18.2164 12.2659C18.2418 12.4901 18.2955 12.71 18.3764 12.92C18.4042 13.0314 18.4177 13.1461 18.4161 13.2613C18.4117 13.405 18.333 13.4306 18.2478 13.5563C18.175 13.6626 18.1138 13.7769 18.0657 13.897C17.985 14.1069 17.958 14.3341 17.9874 14.5574C18.0167 14.7806 18.1015 14.9921 18.2337 15.1721C18.3925 15.3957 18.7302 15.1394 18.5711 14.9173C18.5002 14.8233 18.4485 14.7157 18.4192 14.6009C18.39 14.4859 18.5952 14.675 18.6122 14.5574C18.4285 14.1693 18.4868 13.9521 18.5738 13.8256C18.676 13.6707 18.8148 13.5733 18.8267 13.3787C18.85 13.0326 18.7517 12.762 18.661 12.4404C18.5585 12.0751 18.7847 11.6084 18.9408 11.2334C19.0135 11.0581 18.9492 10.9862 18.8885 10.8253C18.8387 10.6809 18.8074 10.5304 18.7954 10.3777C18.7627 10.1319 18.7907 9.88358 18.8381 9.64003C18.903 9.34979 19.112 9.19685 19.1428 9.03652C19.1785 8.85188 19.0332 8.66185 19.0714 8.31359C19.0714 7.95219 19.1114 7.51056 19.0932 7.78515L19.0988 7.78599Z" fill="black"/>
<path d="M31.2298 24.3113C31.1985 24.8177 31.2978 25.3236 31.5176 25.7784C31.62 26.0044 31.748 26.2173 31.899 26.4127C31.9702 26.505 32.0466 26.5927 32.1282 26.6756C32.1622 26.7174 32.2028 26.7533 32.2483 26.7813C32.2889 26.7999 32.2483 26.8327 32.2483 26.7427L32.3518 26.557H32.5613C32.6229 26.5856 32.5782 26.567 32.5446 26.5284C32.511 26.4899 32.4762 26.4442 32.4398 26.4027C32.3663 26.3116 32.279 26.2329 32.1813 26.1699C32.1248 26.1324 32.0575 26.1159 31.9905 26.1226C31.9235 26.1293 31.8608 26.1592 31.8123 26.207C31.6633 26.371 31.5399 26.5574 31.4463 26.7599C31.2925 27.0783 31.2243 27.4329 31.2489 27.7872C31.2733 28.1413 31.3898 28.4826 31.586 28.7756C31.7185 28.981 31.8706 29.1724 32.0402 29.347C32.0763 29.3963 32.1186 29.4404 32.1659 29.4784C32.096 29.4413 32.2218 29.3484 32.2582 29.2984C32.3853 29.1256 32.4119 29.1484 32.2805 29.1242C32.216 29.1117 32.1505 29.1064 32.0849 29.1084C31.4546 29.1413 31.5888 29.9013 31.7412 30.3084C31.8653 30.6393 32.0252 30.955 32.2176 31.2499C32.3649 31.5042 32.5583 31.7272 32.7878 31.907C33.0113 32.0613 33.2209 31.6899 32.9988 31.537C32.9656 31.5139 32.9352 31.4872 32.9079 31.457C32.859 31.407 32.8129 31.3527 32.7682 31.2984C32.6729 31.1773 32.5856 31.0499 32.5069 30.917C32.322 30.6266 32.1768 30.3117 32.075 29.9813C32.0365 29.867 32.0185 29.7464 32.022 29.6256C32.025 29.5962 32.0346 29.5679 32.0499 29.5427C32.0373 29.5656 32.0499 29.5427 32.0779 29.5427C32.0918 29.5397 32.106 29.5397 32.1198 29.5427C32.146 29.544 32.1722 29.5469 32.198 29.5513C32.2805 29.5627 32.3532 29.5913 32.4315 29.5513C32.4605 29.5322 32.4849 29.5064 32.5028 29.4762C32.5206 29.4459 32.5313 29.4117 32.5342 29.3766C32.537 29.3413 32.5319 29.3059 32.5192 29.273C32.5065 29.2402 32.4865 29.2107 32.4608 29.187C32.3322 29.0356 32.1813 28.9013 32.0625 28.7427C31.8556 28.4823 31.7175 28.1719 31.6615 27.8413C31.6413 27.6204 31.6648 27.3976 31.7302 27.1862C31.7958 26.9746 31.902 26.7786 32.0429 26.6099C32.069 26.5809 32.0929 26.5499 32.1142 26.517C32.1506 26.447 32.0542 26.5456 32.0136 26.5584C31.973 26.5713 31.9619 26.5284 31.994 26.5713C32.0052 26.587 32.0806 26.6542 32.1156 26.6913C32.1732 26.7674 32.2358 26.8396 32.3029 26.907C32.5166 27.0913 32.7332 26.8384 32.627 26.6213C32.563 26.5202 32.4828 26.4307 32.3895 26.357C32.2905 26.2553 32.2015 26.1439 32.124 26.0242C31.7809 25.532 31.6132 24.9346 31.6489 24.3313C31.6755 24.057 31.2562 24.0584 31.2298 24.3313V24.3113Z" fill="black"/>
<path d="M33.8498 20.9727C33.3361 20.8449 32.7992 20.8493 32.2875 20.9856C32.0989 21.0466 31.9153 21.1226 31.7383 21.2127C31.5733 21.2734 31.4179 21.3587 31.2772 21.4656C31.0243 21.7127 31.3262 21.9399 31.5568 22.007C31.7441 22.0603 31.9359 22.0951 32.1296 22.1113C32.4021 22.137 32.3909 21.717 32.1296 21.6827C32.1003 21.6827 32.0695 21.6827 32.0402 21.6741L32.2498 21.8884C32.2498 21.5327 31.8082 21.4813 31.5511 21.4856C31.1493 21.49 30.7552 21.598 30.4053 21.7999C30.2251 21.895 30.0769 22.0436 29.9805 22.226C29.8841 22.4084 29.8436 22.6164 29.8645 22.8227C29.9246 23.357 30.2838 23.7741 30.7029 24.0713C31.1571 24.4056 31.6965 24.5976 32.2553 24.6241C32.3109 24.6241 32.3643 24.6016 32.4036 24.5614C32.4429 24.5213 32.4651 24.4667 32.4651 24.4099C32.4651 24.353 32.4429 24.2986 32.4036 24.2584C32.3643 24.2181 32.3109 24.1956 32.2553 24.1956C31.8873 24.178 31.5286 24.0711 31.2088 23.8841C30.8651 23.697 30.5101 23.4284 30.3536 23.0541C30.2265 22.7684 30.2461 22.4599 30.4933 22.2527C30.7372 22.0733 31.0229 21.9624 31.3219 21.9313C31.4531 21.913 31.5856 21.9091 31.7173 21.9199C31.7453 21.9199 31.7719 21.9313 31.7999 21.937C31.8278 21.9427 31.8768 21.9527 31.8333 21.9456C31.8739 21.9456 31.8459 21.9627 31.8418 21.9456C31.8418 21.9456 31.8236 21.8784 31.8236 21.8927C31.8251 21.9491 31.8476 22.0029 31.8866 22.0427C31.9256 22.0826 31.9781 22.1056 32.0332 22.107C32.0625 22.107 32.0933 22.107 32.1226 22.1156V21.687C32.1115 21.6884 32.1002 21.6884 32.0891 21.687C32.0332 21.6641 32.0891 21.687 32.0402 21.687C31.9508 21.6727 31.8628 21.657 31.7746 21.637L31.6349 21.6027C31.6153 21.5956 31.5945 21.5899 31.5763 21.5813C31.5581 21.5727 31.5902 21.5727 31.5595 21.5813C31.5288 21.5899 31.5595 21.5356 31.5595 21.5813C31.5712 21.5927 31.5799 21.607 31.5845 21.6227C31.5892 21.6386 31.5898 21.6553 31.5861 21.6713C31.5958 21.693 31.5983 21.7173 31.5933 21.7404C31.5883 21.7637 31.5759 21.7846 31.5581 21.7999C31.5581 21.7999 31.5581 21.7999 31.5735 21.7913C31.6062 21.7796 31.6376 21.7643 31.6671 21.7456C31.9332 21.5957 32.2143 21.4756 32.5055 21.387C32.9096 21.3023 33.3269 21.3091 33.7282 21.407C33.9909 21.4613 34.1041 21.047 33.8399 20.9941L33.8498 20.9727Z" fill="black"/>
<path d="M20.4761 40.1541C20.5375 39.7627 20.662 39.3599 20.669 38.9613C20.676 38.5627 20.3475 38.3313 20.2093 37.9956C20.0701 37.647 20.048 37.2611 20.1463 36.8984C20.219 36.6256 20.3476 36.3741 20.4258 36.1041C20.5236 35.7827 20.5431 35.4927 20.3517 35.2056C20.249 35.087 20.1706 34.9486 20.1211 34.7984C20.0938 34.633 20.1153 34.4629 20.1827 34.3099C20.293 34.0556 20.504 33.8384 20.504 33.5413C20.504 33.2199 20.2246 32.9613 20.1198 32.6756C20.015 32.3899 20.1771 32.1399 20.2721 31.8913C20.3504 31.6913 20.5153 31.3799 20.4481 31.1541C20.4048 31.0113 20.1868 30.8784 20.089 30.7613C19.9924 30.647 19.9133 30.5184 19.8543 30.3799C19.7464 30.0957 19.6878 29.7946 19.681 29.4899C19.6684 29.3113 19.6614 29.1299 19.6531 28.9499C19.658 28.7527 19.6401 28.5557 19.6 28.3627C19.5077 28.047 19.1738 27.837 19.1807 27.4913C19.1835 27.2977 19.2414 27.1091 19.347 26.9484C19.4393 26.8056 19.6 26.6984 19.5091 26.5113C19.4641 26.4354 19.4127 26.3637 19.3554 26.297C19.2478 26.1554 19.1511 26.0054 19.0661 25.8484C18.8664 25.4641 18.8775 24.9813 18.9725 24.5627C18.9977 24.4556 19.0284 24.35 19.0634 24.2471C19.1178 24.1384 19.1555 24.0219 19.1751 23.9014C19.1751 23.7814 19.0774 23.69 19.0061 23.6029C18.8965 23.479 18.806 23.3389 18.7378 23.1871C18.7104 23.1324 18.6963 23.072 18.6963 23.0107C18.6963 22.9493 18.7104 22.8889 18.7378 22.8343C18.9027 22.5243 19.1108 22.1571 18.9223 21.81C18.7908 21.5686 18.429 21.7843 18.5604 22.0257C18.6917 22.2671 18.3717 22.5629 18.306 22.7629C18.2068 23.0686 18.3521 23.4086 18.5226 23.6557C18.5947 23.7683 18.6764 23.8739 18.7671 23.9714C18.8147 24.0214 18.7671 23.98 18.7671 23.9786L18.7756 23.9914C18.7531 23.89 18.7336 23.8829 18.7168 23.9671C18.6638 24.069 18.627 24.179 18.6078 24.2927C18.488 24.7064 18.4594 25.1421 18.524 25.5684C18.601 25.9041 18.7535 26.2167 18.9697 26.4813C19.0033 26.527 19.09 26.6941 19.1417 26.717V26.517L19.1067 26.5584C19.0703 26.5979 19.038 26.6409 19.0103 26.687C18.9507 26.7764 18.901 26.8723 18.8621 26.9727C18.7831 27.15 18.749 27.3447 18.7628 27.5389C18.7768 27.7331 18.8384 27.9207 18.9418 28.0841C19.0307 28.1986 19.1105 28.3199 19.1807 28.447C19.252 28.6041 19.2268 28.8356 19.2353 29.0084C19.266 29.6513 19.2744 30.3456 19.6544 30.8913C19.7408 31.0161 19.8391 31.132 19.9478 31.237C19.982 31.2723 20.0184 31.3053 20.0568 31.3356L20.0387 31.2513C20.0387 31.2741 20.0387 31.2784 20.0387 31.2613C20.0155 31.3196 19.9991 31.3806 19.9898 31.4427C19.9018 31.717 19.7733 31.9784 19.6935 32.2556C19.5971 32.587 19.73 32.8827 19.8934 33.1656C19.9548 33.2713 20.0764 33.4141 20.0834 33.5427C20.0683 33.6551 20.0244 33.7616 19.9563 33.8513C19.7818 34.1083 19.6897 34.4143 19.6921 34.727C19.698 34.9069 19.7537 35.0811 19.8528 35.2299C19.9284 35.3484 20.0638 35.4813 20.0834 35.6256C20.1211 35.9113 19.9241 36.2513 19.8277 36.5084C19.6906 36.848 19.6381 37.2173 19.6754 37.5827C19.6985 37.818 19.761 38.0476 19.8598 38.2613C19.9618 38.4641 20.1394 38.6284 20.2204 38.8399C20.2517 38.9974 20.244 39.1604 20.198 39.3141C20.1547 39.5584 20.103 39.8013 20.0653 40.0456C20.0234 40.3156 20.4273 40.4327 20.4691 40.1599L20.4761 40.1541Z" fill="black"/>
<path d="M38.3786 21.3641C38.4137 21.5484 38.4686 21.728 38.542 21.8998C38.6259 22.157 38.7126 22.4156 38.7726 22.6784C38.8034 22.8034 38.8063 22.9337 38.781 23.0598C38.7474 23.3041 38.6693 23.5413 38.6413 23.7856C38.6217 23.8818 38.6174 23.9808 38.6287 24.0784C38.6539 24.207 38.7223 24.3384 38.7587 24.4656C38.8304 24.6978 38.8773 24.9373 38.8984 25.1798C38.9172 25.4094 38.9022 25.6406 38.8537 25.8656C38.7993 26.0576 38.7 26.2331 38.5644 26.377C38.454 26.5041 38.36 26.6453 38.285 26.797C38.2589 26.8391 38.243 26.8871 38.2386 26.9367C38.2343 26.9864 38.2416 27.0364 38.2599 27.0827C38.2906 27.1698 38.338 27.2556 38.3759 27.3427C38.5177 27.6193 38.6153 27.9174 38.665 28.2256C38.6892 28.5574 38.6162 28.8891 38.4554 29.1784C38.3689 29.3484 38.1453 29.5784 38.176 29.777C38.228 29.9794 38.2672 30.1851 38.2933 30.3927C38.3003 30.6171 38.2366 30.838 38.1117 31.0227C38.0099 31.1406 37.9217 31.27 37.849 31.4084C37.7302 31.7184 37.9454 32.1141 38.0782 32.387C38.1767 32.5701 38.2604 32.7613 38.3283 32.9584C38.384 33.148 38.3787 33.3508 38.3129 33.537C38.253 33.7047 38.2109 33.8786 38.1872 34.0556C38.1803 34.2433 38.2322 34.4284 38.3353 34.5841C38.5323 34.9141 38.8369 35.1556 39.0242 35.497C39.1639 35.7527 39.122 36.1027 39.0969 36.3841C39.0829 36.5441 39.0633 36.7027 39.0466 36.8627C39.024 36.9776 39.0216 37.0956 39.0396 37.2113C39.0744 37.3541 39.2197 37.4827 39.298 37.5984C39.3879 37.7327 39.4694 37.8724 39.5426 38.017C39.9409 38.8041 39.9897 39.7027 39.9059 40.5713C39.8807 40.8456 40.3 40.8441 40.3252 40.5713C40.4132 39.6513 40.3419 38.7141 39.9409 37.8741C39.8619 37.7093 39.7717 37.5504 39.6712 37.3984C39.6236 37.327 39.5747 37.2556 39.5314 37.1898C39.5067 37.1531 39.4802 37.1178 39.4517 37.0841C39.3959 37.0298 39.4672 37.1013 39.4517 37.1241C39.4579 37.0767 39.4579 37.0287 39.4517 36.9813C39.4517 36.9041 39.4672 36.8256 39.4754 36.7484C39.4964 36.5598 39.5189 36.3698 39.5286 36.177C39.5496 35.7827 39.5104 35.4298 39.2772 35.1041C39.1373 34.9084 38.9724 34.7341 38.8257 34.5456C38.7112 34.4027 38.5799 34.2256 38.6077 34.0298C38.6413 33.8027 38.7474 33.5898 38.7783 33.3598C38.8052 33.118 38.766 32.8731 38.665 32.6527C38.5742 32.427 38.454 32.2141 38.3563 31.9913C38.3069 31.8847 38.2703 31.7726 38.2473 31.657C38.2473 31.637 38.2277 31.5141 38.229 31.5856C38.229 31.5441 38.229 31.5856 38.229 31.5684C38.2749 31.4951 38.3253 31.425 38.38 31.3584C38.4653 31.2441 38.5353 31.1187 38.5882 30.9856C38.7657 30.557 38.7 30.0827 38.5659 29.6513L38.5449 29.817C38.8579 29.3527 39.1234 28.817 39.0744 28.2327C39.034 27.7413 38.8076 27.297 38.6106 26.8541L38.6314 27.0198C38.7182 26.7798 38.9292 26.6027 39.0689 26.3956C39.2239 26.1406 39.3079 25.8473 39.312 25.547C39.3304 25.2081 39.2974 24.8684 39.2142 24.5398C39.1723 24.3656 39.094 24.197 39.0577 24.0227C39.0422 23.8581 39.0613 23.6921 39.1136 23.5356C39.1983 23.2587 39.2296 22.9676 39.2059 22.6784C39.1752 22.5114 39.133 22.3467 39.08 22.1856C39.0214 21.9913 38.9584 21.7998 38.8942 21.6141C38.8719 21.5441 38.8482 21.4713 38.8243 21.4041C38.8146 21.3727 38.7909 21.2498 38.802 21.3598C38.7754 21.087 38.3563 21.0841 38.3827 21.3598L38.3786 21.3641Z" fill="#229AC0"/>
<path d="M20.0714 40.1221C20.1428 40.4836 19.9694 40.647 19.8674 41.0227C19.8164 41.2188 19.7766 41.7796 19.8091 41.9798C19.8416 42.1801 19.7466 42.7004 19.8571 42.8691V43.303C19.8571 43.7367 19.8698 43.8741 19.9285 44.2427C19.9761 44.5384 20.1511 43.8141 20.0099 44.1027L20.1915 43.9956C19.7142 43.247 19.9285 43.8813 19.8226 44.1256C19.6584 44.2007 19.5039 44.2967 19.3629 44.4113C19.1995 44.5541 19.1561 44.7213 19.0835 44.917C19.0144 45.1048 18.9239 45.2837 18.8138 45.4498C18.5968 45.7271 18.4094 46.0274 18.2548 46.3456C18.0829 46.7584 17.8946 47.6414 17.7856 48.0743C17.7856 48.2911 18.0714 48.3634 18.0714 48.4357C18.1678 48.05 18.4771 46.9656 18.6069 46.5913C18.7382 46.2794 18.9159 45.9903 19.1338 45.7341C19.2224 45.6124 19.2991 45.4823 19.3629 45.3456C19.4105 45.2427 19.4538 45.137 19.4942 45.0313C19.5191 44.948 19.5499 44.8668 19.5865 44.7884C19.6935 44.6807 19.8209 44.5967 19.9609 44.5413C20.0184 44.5127 20.0756 44.4841 20.1356 44.4598C20.1566 44.4513 20.1804 44.4456 20.1999 44.4356C20.2712 44.4356 20.2195 44.4256 20.1999 44.4356C20.2365 44.4363 20.2726 44.4268 20.3045 44.4083C20.3362 44.3897 20.3624 44.3626 20.3802 44.3298C20.5465 43.9898 20.4682 43.6041 20.4054 43.247C20.3466 42.9184 20.2265 42.4956 20.4264 42.1956C20.4455 42.163 20.4556 42.1257 20.4556 42.0877C20.4556 42.0497 20.4455 42.0124 20.4264 41.9798C20.3355 41.8454 20.2776 41.6906 20.2575 41.5286C20.2372 41.3664 20.2554 41.2018 20.3104 41.0484C20.4309 40.7566 20.3718 40.4113 20.4735 40.1501C20.4285 39.9053 20.3251 40.2034 20.3104 40.1501C20.2955 40.0967 20.4341 39.8403 20.3872 39.8123C20.3404 39.7844 20.5674 39.8901 20.5146 39.9034C20.4619 39.9166 20.4162 39.9501 20.3872 39.997L20.0714 40.1221Z" fill="black"/>
<path d="M38.7142 14.3139C38.7115 14.6903 38.7263 15.1596 38.6356 15.5553C38.5872 15.7303 38.5669 15.9123 38.5755 16.0939C38.6133 16.3716 38.6773 16.6447 38.7669 16.9096C38.8598 17.1746 38.907 17.4539 38.9066 17.7353C38.8769 17.959 38.7792 18.1673 38.6272 18.331C38.4906 18.4914 38.3866 18.6779 38.3212 18.8796C38.2723 19.0981 38.3715 19.2839 38.4358 19.4867C38.5755 19.9496 38.7459 20.6024 38.4358 21.0296C38.2736 21.251 38.6369 21.4581 38.7976 21.2467C39.091 20.8481 39.0492 20.2896 38.9598 19.8296C38.912 19.5947 38.8466 19.3641 38.7642 19.1396C38.6943 18.9467 38.8019 18.8153 38.9136 18.6581C39.0575 18.4817 39.1765 18.2854 39.2672 18.0753C39.3418 17.8156 39.3495 17.5404 39.2895 17.2767C39.2113 16.8124 38.857 16.2657 38.9999 15.832C39.2142 15.3981 38.9988 15.1367 39.0713 14.6753C38.7856 13.7354 38.351 13.8894 38.5713 14.1693L38.7142 14.3139Z" fill="black"/>
<path d="M37.9434 7.80175C38.0047 8.24386 37.8212 8.76532 37.7784 9.24609C37.7492 9.46025 37.7558 9.67729 37.7975 9.88879C37.8914 10.2074 38.0167 10.5161 38.1715 10.8104C38.3305 11.1041 38.4362 11.4231 38.4842 11.7532C38.4862 12.021 38.4027 12.2833 38.2452 12.5031C38.1061 12.7163 38.3311 13.0531 38.2858 13.3017C38.2637 13.567 38.0985 13.6631 38.2101 13.8938C38.4604 14.411 38.8572 15.109 38.6429 15.6873C38.8821 16.1774 38.7948 16.1691 38.9547 15.8917C39.2445 15.3704 39.0974 14.723 38.9091 14.1998C38.8104 13.9331 38.7824 12.827 38.6429 12.5788C38.6159 11.9549 38.5335 13.0004 38.6429 12.7957C38.7884 12.5623 38.9082 12.3491 38.9829 12.086C39.0294 11.7675 38.9915 11.4435 38.8729 11.1452C38.6975 10.615 38.1709 10.0387 38.2709 9.50373C38.4581 8.9557 38.3791 8.39417 38.3884 7.83966C38.2344 7.42949 37.9455 7.48292 37.9409 7.80896L37.9434 7.80175Z" fill="black"/>
<path d="M38.3786 21.3641C38.4137 21.5483 38.4686 21.728 38.542 21.8998C38.6259 22.157 38.7126 22.4156 38.7726 22.6784C38.8034 22.8033 38.8063 22.9337 38.781 23.0598C38.7474 23.3041 38.6693 23.5413 38.6413 23.7856C38.6217 23.8818 38.6174 23.9807 38.6287 24.0784C38.6539 24.207 38.7223 24.3384 38.7587 24.4656C38.8304 24.6978 38.8773 24.9373 38.8984 25.1798C38.9172 25.4094 38.9022 25.6406 38.8537 25.8656C38.7993 26.0576 38.7 26.233 38.5644 26.377C38.454 26.5041 38.36 26.6453 38.285 26.797C38.2589 26.8391 38.243 26.887 38.2386 26.9367C38.2343 26.9864 38.2416 27.0364 38.2599 27.0827C38.2906 27.1698 38.338 27.2556 38.3759 27.3427C38.5177 27.6193 38.6153 27.9174 38.665 28.2256C38.6892 28.5574 38.6162 28.8891 38.4554 29.1784C38.3689 29.3484 38.1453 29.5784 38.176 29.777C38.228 29.9794 38.2672 30.1851 38.2933 30.3927C38.3003 30.6171 38.2366 30.838 38.1117 31.0227C38.0099 31.1404 37.9217 31.2698 37.849 31.4084C37.7302 31.7184 37.9454 32.1141 38.0782 32.387C38.1767 32.57 38.2604 32.7611 38.3283 32.9584C38.384 33.1478 38.3787 33.3507 38.3129 33.537C38.253 33.7047 38.2109 33.8786 38.1872 34.0556C38.1803 34.2433 38.2322 34.4284 38.3353 34.5841C38.5323 34.9141 38.8369 35.1556 39.0242 35.497C39.1639 35.7527 39.122 36.1027 39.0969 36.3841C39.0829 36.544 39.0633 36.7026 39.0466 36.8626C39.024 36.9774 39.0216 37.0956 39.0396 37.2111C39.0744 37.354 39.2197 37.4826 39.298 37.5983C39.3879 37.7327 39.4694 37.8724 39.5426 38.0168C39.9409 38.804 39.9897 39.7025 39.9059 40.5711C39.8807 40.8454 40.3 40.844 40.3252 40.5711C40.4132 39.6511 40.3419 38.714 39.9409 37.874C39.8619 37.7093 39.7717 37.5503 39.6712 37.3983C39.6236 37.3268 39.5747 37.2554 39.5314 37.1897C39.5067 37.1531 39.4802 37.1178 39.4517 37.084C39.3959 37.0297 39.4672 37.1011 39.4517 37.124C39.4579 37.0767 39.4579 37.0286 39.4517 36.9811C39.4517 36.904 39.4672 36.8254 39.4754 36.7483C39.4964 36.5597 39.5189 36.3697 39.5286 36.1768C39.5496 35.7827 39.5104 35.4298 39.2772 35.1041C39.1373 34.9084 38.9724 34.7341 38.8257 34.5456C38.7112 34.4027 38.5799 34.2256 38.6077 34.0298C38.6413 33.8027 38.7474 33.5898 38.7783 33.3598C38.8052 33.1178 38.766 32.8731 38.665 32.6527C38.5742 32.427 38.454 32.2141 38.3563 31.9913C38.3069 31.8847 38.2703 31.7724 38.2473 31.657C38.2473 31.637 38.2277 31.5141 38.229 31.5856C38.229 31.5441 38.229 31.5856 38.229 31.5684C38.2749 31.4951 38.3253 31.425 38.38 31.3584C38.4653 31.2441 38.5353 31.1187 38.5882 30.9856C38.7657 30.557 38.7 30.0827 38.5659 29.6513L38.5449 29.817C38.8579 29.3527 39.1234 28.817 39.0744 28.2327C39.034 27.7413 38.8076 27.297 38.6106 26.8541L38.6314 27.0198C38.7182 26.7798 38.9292 26.6027 39.0689 26.3956C39.2239 26.1406 39.3079 25.8471 39.312 25.547C39.3304 25.2081 39.2974 24.8684 39.2142 24.5398C39.1723 24.3656 39.094 24.197 39.0577 24.0227C39.0422 23.8581 39.0613 23.692 39.1136 23.5356C39.1983 23.2587 39.2296 22.9676 39.2059 22.6784C39.1752 22.5114 39.133 22.3467 39.08 22.1856C39.0214 21.9913 38.9584 21.7998 38.8942 21.6141C38.8719 21.5441 38.8482 21.4713 38.8243 21.4041C38.8146 21.3727 38.7909 21.2498 38.802 21.3598C38.7754 21.087 38.3563 21.0841 38.3827 21.3598L38.3786 21.3641Z" fill="black"/>
<path d="M39.9148 40.7154C39.8576 41.2908 39.771 41.9698 40.0663 42.4653C40.3017 42.8698 40.7244 43.149 40.8771 43.6224C40.9561 43.8671 40.9178 44.154 40.8924 44.4064C40.8533 44.6734 40.8438 44.9456 40.8644 45.2156C40.9204 45.675 41.217 46.0528 41.4563 46.3868C41.576 46.5437 41.6791 46.7187 41.7631 46.9074C41.8628 47.1768 41.9107 47.4708 41.9031 47.7667C41.9031 47.8291 41.9233 47.8888 41.9591 47.933C41.9948 47.9771 42.0434 48.0018 42.0941 48.0018C42.1447 48.0018 42.1933 47.9771 42.2291 47.933C42.265 47.8888 42.285 47.8291 42.285 47.7667C42.2957 47.2741 42.1774 46.7903 41.9477 46.3868C41.7403 46.0403 41.4728 45.7597 41.3113 45.3708C41.1088 44.9004 41.3417 44.3093 41.3023 43.8028C41.259 43.2414 40.9318 42.8871 40.6226 42.5154C40.4544 42.3477 40.3311 42.1216 40.2687 41.8663C40.2037 41.4931 40.2687 41.0823 40.3017 40.7076C40.3323 40.4081 39.9504 40.4097 39.9198 40.7076L39.9148 40.7154Z" fill="black"/>
<path d="M38.5694 41.7813C38.5694 41.7813 36.3065 41.1297 32.8231 42.5388C30.2984 43.2356 28.0554 45.2391 25.4524 45.2847L24.8057 44.341C24.8057 44.341 31.3265 42.4798 31.7382 41.4881C33.9715 39.0627 35.5554 40.0767 38.5894 40.0767C38.3104 41.0024 38.4369 41.4307 38.5694 41.7813Z" fill="#CCCCCC"/>
<path d="M47.6818 31.4986C45.9824 35.1724 41.4444 34.1961 38.6257 33.6616C38.756 34.0351 38.7218 33.8806 38.6191 34.4031C39.5398 36.5887 40.0707 36.4039 38.0557 36.8299C31.1741 38.153 31.7571 40.7567 25.4182 43.277L24.2891 43.54L24.8979 44.3683L23.5797 45.3933C23.8977 46.507 25.1011 48.1763 26.6518 48.33C26.9154 47.3161 26.148 45.5744 25.2162 44.4614C27.8317 44.4829 32.0171 40.7157 35.733 40.1743C43.0884 39.1024 45.7424 45.8906 55.5142 38.3974C49.5462 37.3567 53.3931 35.1179 52.7397 34.264C51.3492 32.4469 48.1598 34.3261 47.6818 31.4986ZM19.9555 38.6181C18.7792 40.0187 20.3922 43.5011 21.219 43.8799C21.2814 43.9086 22.026 43.1696 22.026 43.1696C21.4851 42.6306 20.5222 41.3496 20.2085 40.2609C20.3982 39.7886 20.5009 39.249 19.9555 38.6181ZM21.0167 43.9886C20.1205 44.8251 19.3732 45.6933 19.2268 46.6449C20.6645 46.69 21.4355 46.2239 21.9158 45.6819L21.0167 43.9886Z" fill="#EF356D"/>
<path d="M47.6821 31.2714C47.5935 31.2713 47.513 31.3228 47.4758 31.4033C46.6705 33.1446 44.9311 33.7453 42.983 33.8507C41.0348 33.9561 40.1095 33.5437 38.6987 33.2761C38.5273 33.2437 38.4671 33.2661 38.5245 33.431C38.556 33.752 38.551 34.143 38.5504 34.404C38.8773 34.9977 39.327 35.7744 39.1984 36.1416C39.1415 36.2603 38.9098 36.3701 38.601 36.5001C35.6343 36.7033 32.7567 38.0078 30.579 39.962C29.5024 40.8923 28.4848 41.8116 25.3468 43.0607L24.2374 43.3193C24.0791 43.3563 24.01 43.543 24.1061 43.6741L24.7737 44.5821C24.8117 44.6336 24.8695 44.6666 24.9331 44.6731C24.9897 44.679 25.0474 44.6806 25.1047 44.6831C25.5005 45.173 25.867 45.784 26.1195 46.388C26.3763 47.0016 26.4713 47.5768 26.4324 48.0224C25.8293 47.8897 25.2673 47.5496 24.82 47.0676C24.311 46.5191 23.944 45.8443 23.7974 45.3313C23.7631 45.211 23.638 45.1413 23.5177 45.1753C23.397 45.2096 23.3271 45.3353 23.3617 45.4558C23.5331 46.0564 23.9273 46.773 24.4871 47.3763C25.0471 47.9794 25.78 48.4718 26.6298 48.556C26.741 48.567 26.8434 48.4954 26.8715 48.3873C27.0344 47.7607 26.861 46.9844 26.5381 46.2124C26.3115 45.671 26.006 45.1334 25.6621 44.6636C26.9144 44.5238 28.326 43.7837 29.8378 42.9937C31.6507 42.0466 33.7644 40.671 35.6267 40.3997C39.236 39.8737 41.6007 41.539 44.5237 42.0878C47.4468 42.6368 50.7325 42.3497 55.6521 38.5773C55.8084 38.457 55.7473 38.2083 55.5531 38.1741C54.0787 37.917 53.2288 37.582 52.7917 37.2514C52.3545 36.921 52.3011 36.6354 52.3578 36.298C52.4147 35.9606 52.631 35.5828 52.8118 35.226C52.9023 35.0476 52.9844 34.8746 53.0234 34.6917C53.0625 34.5088 53.0484 34.2948 52.9195 34.1266C52.5351 33.6241 52.0164 33.3737 51.484 33.2427C50.9517 33.1117 50.3985 33.0887 49.8931 33.0344C49.3877 32.9801 48.9363 32.8936 48.6008 32.6776C48.2654 32.4616 48.0177 32.1228 47.9057 31.4608C47.8875 31.3516 47.793 31.2714 47.6821 31.2714ZM47.6158 31.9827C47.7823 32.462 48.0201 32.8424 48.3557 33.0586C48.7961 33.3421 49.3187 33.4293 49.8441 33.4858C50.3695 33.5423 50.9038 33.5673 51.3755 33.6833C51.8473 33.7994 52.2485 33.9957 52.5594 34.4017C52.5938 34.4468 52.603 34.4894 52.5801 34.5966C52.5573 34.7037 52.4925 34.8533 52.4074 35.0211C52.2373 35.3568 51.9878 35.7638 51.9105 36.223C51.8333 36.682 51.9774 37.205 52.5178 37.6137C52.982 37.9646 53.8005 38.25 54.9544 38.4936C50.3631 41.8856 47.3551 42.158 44.6075 41.642C41.7701 41.1091 39.308 39.4051 35.5618 39.951C33.583 40.2394 31.4377 41.6463 29.6275 42.592C27.9755 43.4553 26.4657 44.191 25.3085 44.22C25.2744 44.181 25.0883 44.3233 25.0537 44.2858C24.9877 44.2148 25.0357 44.0133 24.9473 44.0527L24.6754 43.6828L25.4701 43.498C25.4811 43.4954 25.4918 43.4921 25.5023 43.488C28.6921 42.2197 29.8017 41.2328 30.8757 40.3047C31.8597 39.4546 32.8165 38.6497 35.431 37.6304C37.5677 36.9497 39.4583 37.2791 41.287 37.8158C43.3843 38.4314 45.3841 39.3381 47.5001 39.2361C47.6253 39.2301 47.7218 39.1236 47.7157 38.9984C47.7095 38.8733 47.6031 38.7767 47.478 38.7828C45.5071 38.878 43.5615 37.9703 41.4148 37.3807C40.4433 37.1138 41.131 37.1647 39.2343 36.7994C39.1673 36.7866 39.0977 36.7981 39.029 36.7984C39.2563 36.674 39.4271 36.5253 39.5237 36.3234C39.6534 36.0526 39.6163 35.7403 39.4903 35.3941C39.4048 35.1596 39.268 34.8886 39.0967 34.5788C40.624 35.5461 41.7178 35.7516 44.0907 35.8867C44.2157 35.8937 44.3227 35.7981 44.3297 35.6731C44.3371 35.5478 44.2414 35.4404 44.1161 35.4334C41.5788 35.2888 40.8145 35.128 38.9484 33.9487C38.957 33.9077 38.9638 33.8683 38.9665 33.8293C38.9677 33.8126 38.9613 33.7966 38.9605 33.7797C40.3624 34.0456 41.1164 34.4057 43.0078 34.3033C44.8754 34.2023 46.6431 33.5804 47.6158 31.9827ZM19.9541 38.391V38.3911C19.8877 38.3917 19.8247 38.4213 19.782 38.4721C19.1015 39.2823 19.2497 40.5751 19.6207 41.7028C19.8061 42.2667 20.055 42.7947 20.315 43.2141C20.4847 43.4876 20.6543 43.6918 20.8318 43.8563C19.939 44.6938 19.1615 45.5777 19.0027 46.6103C18.982 46.7447 19.0835 46.867 19.2195 46.8714C20.7088 46.9181 21.568 46.4161 22.0854 45.8323C22.1684 45.7384 22.1597 45.5951 22.066 45.5121C21.9723 45.4291 21.829 45.4378 21.7458 45.5316C21.3395 45.9901 20.705 46.3718 19.5377 46.4013C19.7617 45.64 20.3825 44.8907 21.1714 44.1541C21.1921 44.1346 21.209 44.1111 21.221 44.0853C21.2553 44.08 21.3121 44.0914 21.3281 44.0846C21.3584 44.0714 21.3775 44.0593 21.397 44.0464C21.4361 44.0204 21.4737 43.9907 21.5163 43.9553C21.6014 43.8846 21.7023 43.793 21.8008 43.7008C21.9981 43.5166 22.1858 43.3306 22.1858 43.3306C22.275 43.242 22.275 43.0978 22.1858 43.0091C21.6817 42.5067 20.7437 41.2388 20.4417 40.2278C20.5237 40.0024 20.6034 39.7617 20.5843 39.4831C20.562 39.1606 20.4251 38.815 20.1268 38.4701C20.0837 38.4197 20.0205 38.3908 19.9541 38.391ZM19.9494 39.1223C20.0091 39.2526 20.1235 39.3977 20.1315 39.5147C20.147 39.7377 20.0873 39.9546 19.9983 40.1761C19.9795 40.2231 19.9768 40.275 19.9908 40.3236C20.302 41.4031 21.1411 42.5294 21.7204 43.1486C21.6493 43.2181 21.608 43.2606 21.4914 43.3694C21.4018 43.4531 21.3128 43.5331 21.2424 43.5924C21.1143 43.5046 20.9105 43.3146 20.7001 42.9751C20.462 42.5911 20.226 42.0907 20.052 41.5616C19.7618 40.6796 19.6868 39.7543 19.9494 39.1223Z" fill="#591328"/>
<path d="M22.8895 42.782C21.5177 42.782 20.4014 43.8984 20.4014 45.2701C20.4014 46.6418 21.5177 47.7576 22.8895 47.7576C24.2612 47.7576 25.3777 46.6418 25.3777 45.2701C25.3777 43.8984 24.2612 42.782 22.8895 42.782ZM22.8895 43.161C24.0565 43.161 24.9987 44.103 24.9987 45.2701C24.9987 46.4371 24.0565 47.3786 22.8895 47.3786C21.7224 47.3786 20.7802 46.4371 20.7802 45.2701C20.7802 44.103 21.7224 43.161 22.8895 43.161Z" fill="#EA9C00"/>
<path d="M22.6451 43.0357C21.4249 43.0357 20.4358 44.025 20.4358 45.2451C20.4358 46.4654 21.4249 47.4546 22.6451 47.4546C23.8654 47.4546 24.8545 46.4654 24.8545 45.2451C24.8545 44.025 23.8654 43.0357 22.6451 43.0357Z" fill="#FFE98F"/>
<path d="M23.056 43.0068C22.9427 43.0083 22.8703 43.0233 22.8473 43.0264C24.2658 43.2883 24.7787 44.332 24.8454 44.9554C24.8945 45.4207 24.7045 46.0737 24.6144 46.2771C24.4787 46.5881 23.9054 47.3224 22.9385 47.4463L23.3577 47.4C24.3338 47.2903 25.2118 46.3464 25.1257 45.0355C25.1055 44.7307 25.0044 44.3957 24.8838 44.143C24.8275 44.0898 24.5764 43.6204 24.093 43.328C23.6375 43.0523 23.2721 43.0045 23.056 43.007V43.0068ZM22.9385 47.4463L22.8625 47.4546C22.8883 47.4521 22.9135 47.4494 22.9385 47.4463ZM22.6453 43.4758C21.6681 43.4758 20.876 44.268 20.876 45.2451C20.876 46.2224 21.6681 47.0145 22.6453 47.0145C23.6225 47.0145 24.4147 46.2224 24.4147 45.2451C24.4147 44.268 23.6225 43.4758 22.6453 43.4758ZM21.4288 44.1815L21.7054 44.2281L21.9261 44.2654L22.0138 45.2597L22.0165 45.2744L22.2398 44.7493L22.4113 44.3478L22.6878 44.3944L22.8433 44.421L22.9363 45.4498L22.947 45.4233L23.1597 44.9167L23.3351 44.5047L23.6104 44.5513L23.8364 44.5898L23.0094 46.4576L22.8565 46.4323L22.5801 46.3858L22.535 45.9364L22.479 45.3754L22.0843 46.302L21.93 46.2753L21.6548 46.2288L21.4288 44.1815Z" fill="#FFD31A"/>
<path d="M21.926 44.2654L22.0137 45.2598L22.0165 45.2744L22.2397 44.7493L22.2026 44.3133L21.926 44.2654ZM22.8433 44.421L22.9363 45.4498L22.947 45.4231L23.1597 44.9168L23.1197 44.4676L22.8433 44.421ZM23.8363 44.5897L23.0096 46.4576L23.286 46.5041L24.1129 44.6364L23.8363 44.5897ZM22.4792 45.3754L22.0843 46.302L22.3595 46.3484L22.5349 45.9364L22.4792 45.3754Z" fill="#FFB41D"/>
<path d="M22.9486 42.9853C22.9475 42.9853 22.9469 42.9853 22.9459 42.9854L22.8288 42.9946C22.785 42.9966 22.7413 42.9999 22.6972 43.0046C22.6969 43.0046 22.6962 43.0049 22.6958 43.0049L22.3819 43.0291C22.377 43.0296 22.3756 43.0316 22.376 43.0344C21.1638 43.1824 20.2865 44.2806 20.4169 45.499C20.5392 46.649 21.515 47.505 22.6463 47.505C22.726 47.505 22.8058 47.5011 22.8856 47.4919L23.1578 47.4629C23.1616 47.465 23.1659 47.466 23.1703 47.466H23.173C23.2198 47.461 23.2658 47.4543 23.3113 47.4466L23.4492 47.432C23.4602 47.431 23.4689 47.4233 23.472 47.4133C24.5442 47.1494 25.2865 46.1249 25.1658 44.9974C25.0438 43.8581 24.0845 43.0067 22.9663 42.9921C22.9615 42.988 22.9552 42.9854 22.9486 42.9853ZM23.0082 43.0467C23.3108 43.0569 23.6008 43.1291 23.8638 43.2529L23.6659 43.2617C23.6652 43.2617 23.6645 43.262 23.6638 43.262C23.46 43.158 23.2393 43.0846 23.0082 43.0469V43.0467ZM22.6489 43.0703C23.7536 43.0703 24.7055 43.9064 24.8252 45.0284C24.8876 45.6107 24.7188 46.181 24.3519 46.6369C23.985 47.0916 23.4612 47.3774 22.8802 47.4386C22.8799 47.4386 22.8792 47.4386 22.8789 47.4387H22.8788C22.8009 47.4466 22.7229 47.4506 22.6463 47.4506C21.5416 47.4506 20.5898 46.6143 20.4702 45.4923C20.3428 44.2947 21.2108 43.2149 22.4082 43.0833C22.4096 43.0834 22.4109 43.0836 22.4123 43.0836H22.415L22.542 43.073C22.5778 43.0713 22.6133 43.0701 22.649 43.0701L22.6489 43.0703ZM23.9199 43.2804C24.1748 43.4093 24.4025 43.5869 24.5896 43.8021L24.3575 43.8104C24.1845 43.6071 23.9765 43.4357 23.744 43.305L23.9199 43.2804ZM22.6576 43.4689C22.6045 43.4689 22.5513 43.4711 22.4988 43.4759C22.3925 43.4839 22.2888 43.5037 22.1863 43.5303C22.1358 43.545 22.0853 43.5609 22.0362 43.5809C21.9869 43.6007 21.939 43.6234 21.8939 43.6513C21.8872 43.6553 21.8859 43.6633 21.8899 43.6699C21.8926 43.6751 21.9006 43.6779 21.9059 43.6751C21.955 43.658 22.0042 43.6407 22.0533 43.6247C22.1025 43.6089 22.1518 43.5941 22.2009 43.5809C22.3006 43.5543 22.4016 43.537 22.5053 43.529C22.6078 43.521 22.7115 43.5197 22.8138 43.5304C22.9162 43.5397 23.0172 43.5596 23.1169 43.5876C23.3149 43.6434 23.5025 43.7337 23.6686 43.8547C23.8348 43.9757 23.9796 44.1259 24.094 44.2961C24.3253 44.6364 24.425 45.0604 24.3772 45.4686C24.3532 45.6733 24.292 45.8727 24.199 46.0549C24.1512 46.1466 24.0966 46.233 24.0355 46.3154C23.973 46.3979 23.9066 46.4761 23.8375 46.5533C23.832 46.5586 23.8335 46.5666 23.8388 46.5719C23.836 46.5771 23.8442 46.5773 23.8495 46.5733V46.5731C23.9319 46.508 24.0062 46.4309 24.0728 46.3484L24.1206 46.2847C24.1286 46.274 24.1352 46.2633 24.1432 46.2514L24.1645 46.2183C24.1712 46.2076 24.179 46.1956 24.1856 46.185L24.2058 46.1504L24.2256 46.1159L24.2349 46.0986L24.2442 46.0813C24.3412 45.8926 24.405 45.6864 24.4303 45.4764C24.4822 45.055 24.3799 44.615 24.1419 44.2627C24.0236 44.0859 23.8733 43.9317 23.7006 43.8067C23.529 43.6819 23.3336 43.5901 23.1289 43.5329C23.0266 43.505 22.9215 43.485 22.8165 43.4757C22.7639 43.4711 22.7108 43.4687 22.6576 43.4687V43.4689ZM24.6143 43.8311C24.7993 44.0516 24.9422 44.31 25.0292 44.595L24.7936 44.608C24.709 44.3299 24.5726 44.0763 24.3965 43.8574L24.6143 43.8311ZM21.5085 43.8991C21.5065 43.8993 21.504 43.8999 21.5016 43.9009L21.5018 43.901C21.4818 43.9103 21.4632 43.9236 21.4459 43.9356C21.4286 43.9489 21.4113 43.9634 21.3968 43.9781C21.3808 43.9927 21.3662 44.0087 21.3529 44.026C21.3395 44.0433 21.3262 44.0604 21.3169 44.0804C21.3129 44.087 21.3156 44.0951 21.3236 44.0991C21.3276 44.1019 21.3329 44.1004 21.3369 44.0977C21.3555 44.0857 21.3713 44.0724 21.3873 44.0579C21.4033 44.0431 21.4193 44.0299 21.4339 44.0153C21.4486 44.0006 21.4632 43.9847 21.4778 43.9701C21.4925 43.9541 21.5056 43.9381 21.5189 43.9209C21.5229 43.9141 21.5218 43.9063 21.5162 43.9023C21.5138 43.8999 21.5112 43.8989 21.5085 43.8991ZM21.4246 44.1546C21.4176 44.1556 21.4113 44.1594 21.407 44.165C21.4028 44.1706 21.4008 44.1776 21.4015 44.1846L21.6272 46.2321C21.6278 46.2381 21.6303 46.2437 21.6345 46.248C21.6386 46.2523 21.6439 46.2553 21.6499 46.2563L21.925 46.3026C21.9253 46.3026 21.9255 46.3026 21.9258 46.3026L22.079 46.3293L22.3542 46.3754C22.3603 46.3766 22.3666 46.3756 22.372 46.3727C22.3775 46.3697 22.3819 46.365 22.3843 46.3594L22.5176 46.0459L22.5523 46.3881C22.5529 46.3943 22.5553 46.4 22.5595 46.4044C22.5636 46.409 22.569 46.412 22.575 46.413L22.8516 46.4591L23.0043 46.4847C23.0045 46.4847 23.0045 46.4847 23.0046 46.4847L23.2809 46.5314C23.287 46.5326 23.2932 46.5316 23.2988 46.5286C23.3042 46.5257 23.3085 46.521 23.3109 46.5154L24.1379 44.6473C24.1396 44.6434 24.1403 44.6393 24.1402 44.635C24.14 44.6309 24.1389 44.6269 24.1369 44.6231C24.1349 44.6194 24.132 44.6163 24.1286 44.6139C24.1252 44.6114 24.1213 44.6097 24.1172 44.6091L23.8408 44.5623H23.8406L23.8403 44.5621C23.8402 44.5621 23.84 44.5621 23.84 44.5621L23.6159 44.5244C23.6153 44.5243 23.6148 44.5241 23.6142 44.524L23.339 44.4771C23.3329 44.4763 23.3268 44.4774 23.3215 44.4806C23.316 44.4836 23.3119 44.4883 23.3096 44.494L23.1772 44.8046L23.1468 44.465C23.1463 44.459 23.1438 44.4533 23.1396 44.4489C23.1356 44.4444 23.13 44.4414 23.124 44.4403L22.8475 44.3934L22.6922 44.3674C22.6916 44.3674 22.691 44.3673 22.6905 44.3673L22.4158 44.3206C22.4095 44.3194 22.4032 44.3206 22.3978 44.3236C22.3922 44.3267 22.3879 44.3316 22.3856 44.3373L22.2576 44.6369L22.2296 44.3111C22.2292 44.305 22.2268 44.2991 22.2226 44.2944C22.2185 44.2899 22.2129 44.2867 22.2069 44.2857L21.9303 44.2383L21.7093 44.2007L21.4328 44.1546C21.43 44.1541 21.4272 44.1541 21.4245 44.1546H21.4246ZM21.4598 44.2149L21.7008 44.2556L21.9002 44.2889L21.9859 45.262C21.9862 45.2629 21.9863 45.2639 21.9866 45.2647L21.9888 45.2796C21.9896 45.2856 21.9925 45.291 21.9969 45.2953C22.0012 45.2994 22.0069 45.3021 22.0129 45.3029C22.0189 45.3036 22.025 45.3021 22.0302 45.2991C22.0355 45.296 22.0395 45.2913 22.0416 45.2856L22.2653 44.76L22.4279 44.3789L22.683 44.4217C22.6833 44.4217 22.6835 44.4217 22.6838 44.4217L22.8173 44.4447L22.9086 45.4523C22.9092 45.4583 22.9119 45.464 22.916 45.4684C22.9203 45.4729 22.9259 45.4759 22.9319 45.4767C22.938 45.4777 22.9442 45.4766 22.9495 45.4736C22.9549 45.4706 22.959 45.4659 22.9615 45.4603L22.9722 45.4334L23.1819 44.9336C23.1842 44.9304 23.1858 44.9267 23.1866 44.9229L23.3518 44.5354L23.6056 44.5784L23.796 44.6111L22.9922 46.4269L22.861 46.405L22.6052 46.3621L22.5619 45.935C22.5618 45.9346 22.5618 45.9341 22.5618 45.9337V45.9334C22.5616 45.9329 22.5616 45.9323 22.5615 45.9317L22.5062 45.3727C22.5055 45.3666 22.5028 45.361 22.4985 45.3566C22.4943 45.3523 22.4888 45.3494 22.4828 45.3486V45.3484C22.4768 45.3476 22.4706 45.3486 22.4652 45.3516C22.4599 45.3544 22.4558 45.359 22.4533 45.3646L22.0666 46.2714L21.9372 46.249C21.9362 46.2487 21.9353 46.2484 21.9345 46.2483L21.6799 46.2056L21.4598 44.2149ZM21.1859 44.2571C21.1825 44.2571 21.1786 44.2591 21.176 44.2627C21.0763 44.393 20.9992 44.5406 20.946 44.6974C20.9328 44.736 20.9208 44.7759 20.91 44.8157C20.9008 44.8556 20.8902 44.8954 20.8823 44.9367C20.8676 45.0177 20.8556 45.1001 20.8529 45.1826C20.845 45.3474 20.8623 45.5137 20.9009 45.6746C20.9393 45.8354 21.0032 45.9896 21.0923 46.1277C21.0963 46.1344 21.1042 46.1359 21.1109 46.1319C21.1162 46.1279 21.1189 46.1211 21.1162 46.1146C21.0485 45.9683 20.9939 45.8167 20.958 45.6611C20.9408 45.5827 20.9275 45.5043 20.9208 45.4246C20.9128 45.3449 20.9116 45.265 20.9142 45.1853C20.9169 45.1056 20.9262 45.0257 20.9395 44.9473C20.946 44.9074 20.9553 44.8689 20.9633 44.8303C20.974 44.7917 20.9833 44.7533 20.9966 44.7147C21.0445 44.5619 21.1149 44.417 21.196 44.2787C21.2 44.272 21.1973 44.264 21.1908 44.26C21.1896 44.258 21.1879 44.2573 21.1859 44.257V44.2571ZM21.9563 44.2984L22.1768 44.3366L22.2118 44.7444L22.0329 45.1643L21.9563 44.2984ZM22.8738 44.4543L23.0942 44.4913L23.131 44.9121L22.9536 45.3363L22.8738 44.4543ZM25.0369 44.62C25.0729 44.7433 25.0986 44.8717 25.1126 45.004C25.1272 45.141 25.1286 45.2766 25.118 45.4093L24.8856 45.4236C24.8949 45.2914 24.8926 45.1576 24.8782 45.0231C24.8648 44.8976 24.841 44.7756 24.8082 44.6577L25.0369 44.62ZM23.8529 44.6206L24.073 44.6573L23.2689 46.4733L23.0489 46.4361L23.8529 44.6206ZM25.116 45.4346C25.0893 45.7279 25.004 46.0071 24.8706 46.2587L24.65 46.2731C24.7766 46.0241 24.8549 45.7546 24.8812 45.4764L25.116 45.4346ZM22.462 45.4856L22.5063 45.932L22.3422 46.3179L22.1228 46.2809L22.462 45.4856ZM24.8556 46.2863C24.7206 46.5324 24.5395 46.7511 24.3225 46.9294C24.2845 46.9337 24.2813 46.9403 24.2323 46.9426L24.1485 46.9466C24.1416 46.947 24.1345 46.9473 24.1276 46.9476C24.2229 46.8637 24.3118 46.771 24.393 46.67C24.4802 46.562 24.5562 46.4477 24.621 46.3284C24.6213 46.3284 24.6215 46.3284 24.6218 46.3284H24.6232L24.8556 46.2863ZM21.3289 46.4201C21.3255 46.4201 21.3222 46.4216 21.3196 46.4241C21.3129 46.4294 21.313 46.4361 21.3168 46.4414V46.4416C21.3833 46.528 21.4616 46.605 21.5468 46.6741L21.6119 46.7233C21.6346 46.7393 21.6572 46.7539 21.6798 46.7699C21.7023 46.7859 21.7262 46.7991 21.7502 46.8124C21.774 46.8257 21.7968 46.8403 21.822 46.8523C21.919 46.9041 22.0213 46.9454 22.125 46.9773L22.1649 46.9891C22.1782 46.9931 22.1915 46.9971 22.2049 46.9999L22.2846 47.0184C22.3112 47.0239 22.339 47.0277 22.3656 47.0331C22.3789 47.0359 22.3922 47.0384 22.4069 47.0397L22.448 47.0451C22.5025 47.0531 22.557 47.0531 22.6129 47.0557C22.6408 47.0557 22.6675 47.0557 22.6953 47.0543C22.7086 47.0543 22.7232 47.0543 22.7365 47.053L22.7778 47.0503C22.8322 47.0463 22.8868 47.041 22.9412 47.0317C22.9958 47.0224 23.049 47.0117 23.1022 46.997C23.1553 46.9837 23.2072 46.9666 23.259 46.948C23.3109 46.9293 23.3613 46.908 23.4105 46.8841C23.5089 46.8363 23.6033 46.7777 23.6858 46.706C23.691 46.7007 23.6923 46.6927 23.6872 46.6873C23.6832 46.682 23.6766 46.6807 23.6699 46.6846C23.6233 46.7111 23.5768 46.7377 23.5303 46.763C23.4825 46.7869 23.4359 46.8121 23.3868 46.8334C23.2898 46.8773 23.19 46.9131 23.0876 46.9397C23.0358 46.953 22.9839 46.9637 22.932 46.9717C22.8802 46.981 22.827 46.9863 22.7739 46.989L22.734 46.9917C22.7208 46.9931 22.7075 46.9917 22.6942 46.9931C22.6676 46.9931 22.641 46.9944 22.6145 46.9944C22.5612 46.9917 22.508 46.9904 22.4562 46.9837L22.4163 46.9797C22.403 46.9784 22.3898 46.9757 22.3765 46.9731C22.3498 46.9691 22.3246 46.9651 22.298 46.9599L22.2209 46.9426C22.2076 46.9399 22.1956 46.9359 22.1823 46.9319L22.1438 46.9213C22.0428 46.8907 21.943 46.8521 21.8488 46.803C21.7543 46.7539 21.6639 46.698 21.5802 46.6329C21.4965 46.5677 21.4153 46.4973 21.3382 46.4241C21.3355 46.4214 21.3322 46.4201 21.3289 46.4201ZM24.2775 46.9656C24.0226 47.1641 23.7216 47.3084 23.39 47.3786C23.635 47.2933 23.8625 47.1661 24.0636 47.0017C24.066 47.0017 24.0683 47.0011 24.07 47.0011C24.0979 46.9931 24.1259 46.9904 24.1525 46.9864L24.2362 46.9744C24.2553 46.9717 24.2676 46.9686 24.2775 46.9656Z" fill="#EA9C00"/>
<path d="M21.8689 4.42845L18.8518 6.24505C18.0703 5.88512 16.7932 10.7237 17.2061 10.982C17.3489 14.9977 15.6018 14.906 14.0332 15.1996C14.5389 16.0338 15.2361 16.6971 17.2461 16.1877C17.6046 16.47 15.3046 18.1157 14.7803 17.7911C15.2875 18.3007 18.4518 17.9534 18.4518 17.9534L17.6232 18.8483C23.8375 19.6007 24.5246 12.8297 24.1846 13.8318C25.2189 16.717 31.7989 19.9013 34.2718 18.7227L34.1918 17.4976C33.9461 18.072 36.0918 19.3677 37.8461 18.4673C36.1775 17.9831 35.3032 15.5708 35.7418 15.5737C37.3289 16.9556 38.8461 18.7311 41.2503 16.844L39.2018 15.7727C40.2918 15.4777 42.6603 16.1157 42.6146 14.8623C41.9489 15.0303 38.7746 14.6647 39.7575 11.572C40.0103 9.82885 38.9961 8.78858 38.4318 7.26839C38.4318 7.26839 37.7418 11.9263 37.6475 11.421C37.5532 10.9157 35.9432 8.63755 35.6975 8.26773L33.7346 6.16178C33.5918 6.39749 32.6218 5.87948 32.6632 5.57036C32.7161 5.18502 34.2175 3.95136 34.2175 3.95136C32.1489 2.90968 26.7003 3.52792 25.4889 4.57525C24.2461 4.4962 22.8675 3.95983 21.8689 4.4341V4.42845Z" fill="#4B93FF"/>
<path d="M32.8935 5.83712L35.4564 8.4865C36.2107 9.44774 37.0564 10.3215 37.5992 11.4182L38.7421 15.3606C38.7421 15.3606 38.8578 15.4367 39.7278 15.5637C40.3201 15.6278 40.9194 15.5746 41.4907 15.4071C41.4907 15.4353 39.025 14.9837 38.6807 13.7133C38.4764 12.9567 37.9221 10.1845 37.9664 10.0095L37.6978 11.3307C37.3035 10.7661 36.7492 9.61005 35.9735 8.66577L32.8935 5.83712ZM23.5621 6.29868C23.0407 6.74754 22.0978 9.68628 22.8178 12.179C23.9607 16.1311 20.9207 17.8053 19.1035 18.8638C18.8278 19.252 22.8392 18.0367 23.7421 15.4578C24.4407 13.5016 23.4892 11.9602 23.2978 11.8402L23.5621 6.29868ZM27.795 9.07087C29.9021 10.4824 33.1935 15.7276 34.0721 17.3464L34.1607 18.2556C34.4135 18.9908 35.9721 19.2647 37.4335 18.9076C37.2024 18.8897 36.9725 18.8586 36.745 18.8144C37.2578 18.7128 37.6021 18.487 37.5721 18.4573C35.2478 18.6437 33.2135 14.2228 33.115 14.0478C31.4407 10.9933 27.795 9.07087 27.795 9.07087ZM17.4007 9.15838C16.9507 12.3823 18.2864 14.5221 14.1907 15.4338C14.4964 15.7403 14.8672 15.9756 15.2764 16.1227C16.0207 16.4191 17.3007 15.7247 17.3007 15.7247L18.4435 9.81472C17.9735 10.3313 17.5492 10.5558 17.4007 9.15838ZM20.1307 10.2876C18.715 11.7541 19.0835 13.6511 19.1592 14.5334C19.445 17.8278 16.7778 17.5483 16.2892 18.151C16.135 18.3106 20.4321 18.041 19.9621 15.88C19.5692 14.0478 20.0892 10.4287 20.1307 10.2791V10.2876ZM34.8078 11.1655L35.5735 15.1784C35.5735 15.1784 35.5607 15.623 37.5735 17.0274C39.5864 18.432 40.9764 17.0176 40.9764 17.0176C40.9764 17.0176 38.8221 18.2131 36.7192 15.5171C35.7921 14.323 36.0121 13.033 34.8078 11.1571V11.1655ZM35.7421 15.8517C35.995 16.6181 36.2592 17.3663 36.7935 17.6781C37.6864 18.127 38.525 18.4771 39.4335 17.8546C37.8035 17.5948 36.4664 16.8524 35.7421 15.8433V15.8517Z" fill="black" fill-opacity="0.2"/>
<path d="M23.9577 13.4381C24.6577 18.5294 17.9905 19.4694 17.3491 18.9274C19.5448 17.1518 20.3077 17.2774 19.692 14.3274C19.5298 13.6046 19.5191 12.8566 19.6607 12.1296C19.8021 11.4025 20.0928 10.7118 20.5148 10.0999M23.7748 6.19433C19.632 5.75959 17.9391 9.22199 17.6177 15.0458C17.4591 17.9097 14.4405 17.643 14.6934 17.811C16.8905 18.7116 18.8477 18.1427 19.8777 16.3627M17.3505 16.0043C16.5263 16.3007 14.922 16.9061 14.0077 15.3224C13.8163 14.988 17.2663 15.6246 17.1963 12.7733C17.0905 8.52753 17.2448 6.70387 20.8263 4.86893C21.782 4.38196 23.612 3.82724 25.5863 4.37349M34.1577 18.6296C32.9591 13.1347 28.192 8.9905 25.4648 8.1549M39.0848 15.5103C39.7991 15.6781 41.4763 16.1468 42.7091 14.9456C42.9863 14.676 39.7605 15.4326 39.7605 12.5814C39.7605 10.323 39.2663 8.58117 38.4077 7.2473M34.342 4.10671C32.3848 3.2457 27.5863 3.05797 25.352 4.6318M35.6863 15.3591C36.0834 16.2301 39.1005 19.0376 41.2363 16.9344C41.762 16.4164 38.592 16.7311 38.1691 14.0056C36.9705 8.50919 33.5977 5.86544 30.8705 5.02984M25.3734 4.64167C23.4163 5.73559 23.2077 8.25934 23.2205 8.91287C22.6148 14.5716 28.3477 19.7391 34.092 18.7934C32.0134 17.7856 29.672 17.3028 28.4563 14.4587M29.622 6.6333C32.132 7.68627 35.1048 9.76542 35.6563 15.362C35.6734 18.2231 38.3105 18.3261 38.0534 18.4913C35.1491 19.6826 33.8705 17.221 32.6148 14.5687L29.622 6.6333Z" stroke="black" stroke-width="0.3" stroke-linecap="round" stroke-linejoin="round"/>
<path d="M33.0502 17.9857L15.8572 18.461L15.8773 20.1796C16.075 21.339 16.8037 23.0616 17.9332 23.4143L20.5363 23.3983C23.7485 18.3131 25.4669 23.5234 26.4093 23.3983H28.8189C31.5523 23.1547 32.1493 21.0234 33.0542 20.1968L33.0502 17.9857ZM33.5679 18.0336V20.069L38.3129 19.8787C39.051 19.5831 38.5817 19.1744 38.3909 18.9694L33.5679 18.0336Z" fill="black" stroke="black" stroke-width="0.3"/>
<path d="M29.2033 18.0763L27.1489 23.0748L26.7213 23.0576L28.7797 18.0828L29.2033 18.0763ZM31.325 18.0763L29.2706 23.0748L27.6637 23.0576L29.7223 18.0828L31.325 18.0763ZM20.5779 18.3597L18.6632 23.0748L18.2356 23.0576L20.1543 18.3664L20.5779 18.3597ZM22.4603 18.3597L20.5456 23.0748L19.1742 23.0576L21.0929 18.3664L22.4603 18.3597Z" fill="#F2F2F2"/>
<path d="M21.9604 22.2943C21.3161 22.3436 19.4732 23.7057 19.1532 24.1956C18.1047 25.8033 18.5318 25.7481 18.439 26.2436C18.8447 27.3954 18.0232 28.886 20.5561 29.1654C21.4061 29.5888 21.1275 30.903 20.9847 31.0497C20.6704 31.356 19.9147 31.4266 20.3632 32.1099C27.3904 35.4621 30.1418 29.2077 28.8118 25.3629C27.839 22.9167 24.1118 22.1319 21.9604 22.2943Z" fill="white"/>
<path d="M27.1348 28.3707C27.2177 28.5471 26.4862 30.488 26.262 30.361V28.8409L27.1348 28.3707Z" fill="#A37070"/>
<path d="M20.7561 29.3644L21.0147 30.3524L20.8132 31.2854C22.7375 31.5677 25.079 31.2967 26.1061 30.6687L26.1361 28.7744C24.5432 29.5874 23.2932 29.3277 22.089 28.9311C21.629 29.195 21.1804 29.3743 20.7561 29.3644Z" fill="#FFFFF2"/>
<path d="M27.3991 27.9741C27.0448 29.4928 26.6319 30.2904 26.2819 30.5458C25.3105 31.2516 22.8091 31.373 20.7434 31.2093C19.6819 31.1246 19.9591 32.6588 21.9162 32.7253M21.7105 26.6897C21.7962 27.7298 21.6377 28.4103 22.1648 28.8421C25.2291 30.2198 28.2577 27.6508 28.4419 26.2337M20.4248 26.0417C19.9819 25.7594 19.3791 25.5633 19.3448 25.0974L21.6877 26.6713C22.8462 26.022 24.2934 25.5421 25.4277 24.7333C24.9105 25.5153 24.3034 25.6634 23.7062 25.878M22.0691 21.7C21.5734 23.0014 18.7834 23.7777 18.6077 24.746C18.4277 26.2987 18.2834 28.6136 19.4077 28.9453C20.8077 29.6298 21.9577 28.8916 22.0519 28.79M20.9791 35.0966C22.3419 34.484 22.8434 36.1481 22.6848 36.0944C23.8891 34.8748 25.6419 35.28 25.7862 35.6314C25.7519 34.3611 27.3262 33.9053 27.5591 34.0788M26.1334 30.399C26.0391 29.8627 25.9291 29.7497 26.2034 28.9636L26.1334 30.399ZM20.8377 31.0497L21.1048 30.344L20.8477 29.2403L20.8377 31.0497ZM21.0948 30.1973C22.3591 30.3384 24.2905 30.3384 25.7477 29.8358L21.0948 30.1973ZM27.8834 25.967C28.3948 25.8964 28.6062 26.022 29.0262 26.5316L27.8834 25.967Z" stroke="black" stroke-width="0.3" stroke-linecap="round" stroke-linejoin="round"/>
</svg>
