<?xml version="1.0" encoding="UTF-8"?>
<svg width="24px" height="17px" viewBox="0 0 24 17" version="1.1" xmlns="http://www.w3.org/2000/svg" xmlns:xlink="http://www.w3.org/1999/xlink">
    <title>Group 33</title>
    <g id="⚙️-00-Settings" stroke="none" stroke-width="1" fill="none" fill-rule="evenodd">
        <g id="wallfair-mobile-settings-menu-01" transform="translate(-62.000000, -583.000000)">
            <g id="Group-22" transform="translate(32.000000, 552.000000)">
                <g id="Group-33" transform="translate(31.000000, 32.000000)">
                    <rect id="Rectangle" fill="#FFFFFF" x="1" y="1" width="20" height="14" rx="1"></rect>
                    <g id="Mail.6" stroke="#120E27" stroke-width="1.65">
                        <path d="M20.9,1.07142857 L11.73084,9.01017857 C11.31405,9.37092857 10.68595,9.37092857 10.26916,9.01017857 L1.1,1.07142857 M7.7,7.5 L0.55,14.4642857 M21.45,14.4642857 L14.3,7.5 M2.2,15 L19.8,15 C21.01506,15 22,14.0406429 22,12.8571429 L22,2.14285714 C22,0.959389286 21.01506,0 19.8,0 L2.2,0 C0.984973,0 0,0.959389286 0,2.14285714 L0,12.8571429 C0,14.0406429 0.984973,15 2.2,15 Z" id="Shape"></path>
                    </g>
                </g>
            </g>
        </g>
    </g>
</svg>