<svg width="60" height="60" viewBox="0 0 60 60" fill="none"
  xmlns="http://www.w3.org/2000/svg">
  <rect width="60" height="60" rx="30" fill="white"/>
  <mask id="mask0" style="mask-type:alpha" maskUnits="userSpaceOnUse" x="0" y="0" width="60" height="60">
    <rect width="60" height="60" rx="30" fill="white"/>
  </mask>
  <g mask="url(#mask0)">
    <mask id="mask1" style="mask-type:alpha" maskUnits="userSpaceOnUse" x="-31" y="-5" width="99" height="22">
      <path fill-rule="evenodd" clip-rule="evenodd" d="M-31 -4.5H68V16.5H-31V-4.5Z" fill="white"/>
    </mask>
    <g mask="url(#mask1)">
      <g style="mix-blend-mode:multiply">
        <path fill-rule="evenodd" clip-rule="evenodd" d="M-12.3083 13.1017C-14.955 11.4876 -28.6592 16.647 -29.5362 16.4968C-30.5078 16.0814 -31.3787 4.69859 -30.8297 2.71547C-30.6447 2.04596 -30.3219 1.85925 -29.4906 1.9178C-29.1565 1.98078 -27.9217 1.63056 -26.2485 1.22509C-22.5109 0.31805 -19.5511 -0.553639 -12.2399 -2.05065C-11.9926 -1.72804 -11.4726 -3.01072 -11.3104 -2.59642C-11.2516 -2.47821 -10.7938 -2.46274 -10.0344 -2.50362C-7.3316 -2.65055 -4.48587 -3.04386 -2.61093 -3.20848C3.80402 -3.76972 10.9951 -4.48895 17.4486 -4.49999C18.8018 -4.5022 17.7257 -3.85037 19.3192 -4.06139C23.347 -4.59832 30.4399 -3.4427 32.6638 -3.77966C34.7422 -4.09453 35.193 -4.07906 37.1293 -3.37972C39.1165 -2.81075 49.7979 -1.61756 51.1063 -1.98988C51.429 -2.14455 51.6465 -2.0175 51.6175 -1.7645C51.8359 -1.68717 59.0515 0.155644 59.0568 0.446208C59.0761 0.710256 59.283 0.888128 59.5198 0.769915C59.9495 0.502553 68.0088 1.98188 68 2.7453C67.9746 4.92397 65.22 13.3768 63.987 15.2716C63.3311 16.2769 61.9297 15.7687 60.1547 15.044C58.3824 14.3203 56.2058 13.5017 54.1476 13.6773C52.9803 13.3834 47.2222 12.1704 44.9307 11.8025C34.7492 10.1685 35.8148 10.3629 31.5843 10.8479C31.1634 10.0381 29.334 11.7517 28.3097 10.3022C27.8923 9.71108 24.6914 9.42936 23.9714 9.95193C23.8145 10.0657 22.6823 9.95635 21.0406 9.88785C20.1628 9.85029 7.0172 8.98191 5.38079 10.5971C2.10097 9.24154 -9.02588 12.2079 -12.3083 13.1017Z" fill="#F1FF54"/>
      </g>
    </g>
    <g style="mix-blend-mode:multiply">
      <path fill-rule="evenodd" clip-rule="evenodd" d="M45.0129 3.14648C46.9017 4.16499 64.6575 1.86924 66.7098 2.67505C67.7627 3.34492 65.6745 14.8576 64.8367 16.3498C64.2211 17.4461 64.2045 16.3838 59.7876 16.5142C54.9537 16.6578 49.5303 17.263 44.3247 18.2267C44.0588 17.9055 43.4598 19.1794 43.2919 18.7683C42.9719 18.1576 34.2824 19.7167 33.7088 19.8208C25.6551 21.2724 19.5968 22.8906 11.6865 24.9769C10.2043 25.3672 11.2764 24.4189 9.56421 25.0953C6.18707 26.4263 -2.26016 28.0193 -5.00858 29.4226C-7.1781 30.5288 -7.65992 30.645 -9.90203 30.8544C-12.1861 31.0693 -23.8767 34.9153 -25.0546 36.1377C-25.3458 36.4403 -25.6081 36.4436 -25.6571 36.1969C-25.7917 36.221 -34.0344 38.3611 -34.0903 38.2263C-34.2031 38.0004 -34.4786 37.9566 -34.6806 38.1967C-35.1493 38.6692 -43.8326 42.0865 -44.1107 41.4122C-44.9108 39.4728 -45.3052 30.4104 -44.7202 27.9919C-44.1063 25.4593 -37.8828 26.3134 -33.4896 23.567C-6.74874 15.6119 -13.7794 18.1511 -7.21745 15.1065C-6.54849 15.7095 -4.82232 13.3096 -3.32263 14.2886C-2.70439 14.6932 1.04877 13.8139 1.78419 13.0487C2.10074 12.7198 7.10612 11.6508 12.2602 10.5293C13.5631 10.2464 22.6338 8.3925 23.6412 7.31808C26.8828 7.82349 42.1604 3.62449 45.0129 3.14648Z" fill="#F1FF54"/>
    </g>
    <mask id="mask2" style="mask-type:alpha" maskUnits="userSpaceOnUse" x="-45" y="16" width="131" height="25">
      <path fill-rule="evenodd" clip-rule="evenodd" d="M-45 16.5H86V40.5H-45V16.5Z" fill="white"/>
    </mask>
    <g mask="url(#mask2)">
      <g style="mix-blend-mode:multiply">
        <path fill-rule="evenodd" clip-rule="evenodd" d="M-20.5357 35.2112C-24.4484 33.7263 -42.4509 40.5277 -43.4905 40.4999C-44.1115 40.362 -44.6009 37.4916 -44.825 34.4084C-45.4172 26.2289 -44.4447 26.183 -42.8338 26.1071C-42.8338 26.1071 -28.9473 22.2712 -20.0952 20.457C-19.7751 20.7553 -19.0643 19.4682 -18.8593 19.8605C-18.7843 19.9706 -18.1825 19.9695 -17.1812 19.8594C-7.79878 18.8139 9.68731 16.6009 19.102 16.5004C20.8882 16.4812 19.4805 17.1226 21.5799 16.8799C25.8511 16.3839 31.0146 16.8072 35.6356 16.8436C41.8806 16.8917 40.5418 15.9712 45.0869 17.0211C46.7929 17.4155 61.7862 18.5071 63.5123 18.0206C63.9231 17.8624 64.2179 17.9822 64.1979 18.228C64.4151 18.2804 74.0757 19.9075 74.1088 20.1748C74.1585 20.4325 74.4455 20.6003 74.7429 20.4784C75.0124 20.4121 77.807 20.5394 80.5405 20.9232C83.2731 21.3059 85.9491 21.7688 85.9875 22.1408C86.2055 24.2736 83.6185 32.6006 82.1898 34.4843C81.4363 35.4796 79.5026 35.0017 77.0456 34.3528C69.7704 32.4317 72.6749 33.6835 64.955 32.6241C43.5335 29.6852 41.9251 30.6068 38.3569 30.9478C37.7603 30.1684 35.3495 31.8533 33.9348 30.5255C33.3443 29.9728 29.0495 29.7537 28.0962 30.2764C27.224 30.6399 6.07984 29.5131 3.15096 31.6106C-1.75436 30.2465 -19.6635 35.006 -20.5357 35.2112Z" fill="#F1FF54"/>
      </g>
    </g>
    <g style="mix-blend-mode:multiply">
      <path fill-rule="evenodd" clip-rule="evenodd" d="M62.9723 21.5C65.1166 22.8376 80.9529 21.1968 82.7462 22.0096C83.684 22.6985 81.785 33.907 80.9096 35.5239C80.5949 36.1063 80.243 36.1922 79.4552 35.8662C77.4573 35.0371 65.1166 36.0183 61.7805 36.3704C61.5465 36.0303 60.9449 37.2397 60.8063 36.8202C60.1215 35.1979 34.3497 39.7128 31.4617 40.242C30.0845 40.493 31.1063 39.6628 29.5072 40.1779C26.1087 41.2721 18.4935 42.0327 15.9591 43.1791C13.9326 44.0952 13.4845 44.1495 11.4165 44.1799C9.0208 44.2147 -1.55957 47.129 -2.62914 48.2286C-2.90129 48.5079 -3.14052 48.4938 -3.18212 48.2471C-3.2818 48.258 -10.8996 49.8238 -10.9395 49.7151C-11.0418 49.4859 -11.294 49.4272 -11.4803 49.6521C-11.8435 49.977 -19.7838 53.0782 -20.0516 52.4045C-20.8213 50.4714 -21.3188 41.5351 -20.7632 39.1586C-20.1764 36.642 -14.2747 37.7037 -10.2184 35.274C15.3706 28.9346 6.48296 32.025 14.3799 28.864C14.9753 29.5029 16.6551 27.296 18.0116 28.3957C18.568 28.8455 22.0584 28.2762 22.7735 27.5959C23.6281 26.7842 41.5914 25.4716 43.1619 23.859C45.4753 24.4523 51.1282 23.4244 62.9723 21.5Z" fill="#F1FF54"/>
    </g>
    <g style="mix-blend-mode:multiply">
      <path fill-rule="evenodd" clip-rule="evenodd" d="M-6.22148 51.8735C-8.05192 50.1332 -18.2282 53.3994 -19.1065 53.0294C-19.8294 52.4906 -20.2598 41.1845 -19.8268 39.4279C-19.6739 38.8064 -19.4333 38.6736 -18.8141 38.8543C-18.4706 38.9827 -6.33567 37.0857 -5.86313 37.0258C-5.68483 37.3698 -5.2685 36.1682 -5.15695 36.5916C-5.07351 36.8386 -3.79291 36.8397 -1.89221 36.818C-1.01388 36.806 7.38116 36.3206 16.3919 36.806C17.4046 36.8604 16.5658 37.4351 17.7709 37.3262C20.7862 37.053 25.6346 38.493 27.7671 38.272C31.1013 37.9281 28.8352 38.6726 36.4924 40.1854C38.7989 40.6414 41.0518 41.0158 41.5771 40.8101C41.8388 40.6752 41.9925 40.8101 41.9442 41.0561C41.9442 41.0561 47.4171 43.259 47.3951 43.5278C47.3749 43.7847 47.5172 43.9675 47.7122 43.8652C48.2691 43.6486 54.1117 45.4434 53.9984 46.1628C53.6699 48.247 50.3946 56.2292 49.2282 58C47.9968 59.8698 45.3486 55.8733 42.2007 56.1486C41.7387 55.9887 38.5372 54.8785 38.0708 54.7414C27.9885 51.7614 29.1426 52.3208 25.9745 52.5657C25.725 51.7287 24.2784 53.3896 23.6162 51.9268C23.35 51.3413 21.0374 50.8363 20.4709 51.35C20.232 51.5666 17.1692 50.9299 13.9721 50.5751C12.8654 50.4521 7.63061 49.9394 6.84802 50.9037C4.37641 49.4083 -4.04675 51.4055 -6.22148 51.8735Z" fill="#F1FF54"/>
    </g>
    <g style="mix-blend-mode:multiply">
      <path fill-rule="evenodd" clip-rule="evenodd" d="M42.2279 43.5C43.2372 45.0375 52.0172 45.1314 52.9706 46.3139C53.3594 47.0961 49.7733 58.2998 49.4002 59.0982C49.1529 59.6258 48.9939 59.6646 48.7125 59.2816C47.9077 58.1897 42.352 58.057 40.7337 58.0915C40.6428 57.7333 40.3056 58.8738 40.2566 58.4454C40.081 56.8799 27.9735 58.7141 26.0738 58.9946C25.3966 59.096 25.8728 58.3721 25.0925 58.7227C23.6 59.3927 19.591 59.3884 18.3974 60.1965C17.4152 60.8601 17.1968 60.8946 16.1368 60.6594C15.0935 60.4296 9.67062 61.9282 9.14808 62.8399C9.0275 63.0805 8.8973 63.0288 8.85885 62.7828C8.85885 62.7828 4.9302 63.2672 4.89088 63.1237C4.82621 62.8842 4.68466 62.7935 4.60165 62.9845C4.44785 63.2748 0.42483 65.0377 0.23696 64.3364C-0.29519 62.3447 -1.1157 53.5783 -0.986375 51.373C-0.85006 49.0274 2.26944 51.0018 4.26086 49.2065C5.13467 49.0285 12.4642 47.5244 14.6138 47.1975L16.7502 45.9977C17.0954 46.6904 17.8574 44.7149 18.6324 45.9384C18.9461 46.4358 20.7339 46.2459 21.0887 45.6611C21.267 45.3666 27.6938 44.9954 27.9962 44.963C28.7433 44.8864 31.2354 44.7181 31.6706 43.9683C33.1455 44.9458 37.6317 43.9294 42.2279 43.5Z" fill="#F1FF54"/>
    </g>
  </g>
  <rect x="14.5085" y="16.804" width="24.5" height="32.5" rx="3.25" transform="rotate(-12.5649 14.5085 16.804)" fill="white" stroke="black" stroke-width="1.5"/>
  <rect x="18.9845" y="19.6483" width="6" height="6" rx="1.5" transform="rotate(-12.5649 18.9845 19.6483)" fill="#E4FF1C" stroke="black"/>
  <line x1="27.9867" y1="18.6666" x2="35.7951" y2="16.9263" stroke="black" stroke-linecap="round"/>
  <line x1="28.639" y1="21.5946" x2="36.4474" y2="19.8542" stroke="black" stroke-linecap="round"/>
  <path d="M22.0859 35.8618L28.4303 34.4478" stroke="black" stroke-linecap="round"/>
  <path d="M33.3105 33.3601L39.1668 32.0548" stroke="black" stroke-linecap="round"/>
  <path d="M34.0718 36.7764L39.928 35.4711" stroke="black" stroke-linecap="round"/>
  <path d="M22.8472 39.2781L29.1915 37.864" stroke="black" stroke-linecap="round"/>
  <path d="M20.563 29.0295L37.6439 25.2225" stroke="black" stroke-linecap="round"/>
  <path d="M21.3242 32.4458L38.4051 28.6388" stroke="black" stroke-linecap="round"/>
</svg>
