<svg width="24" height="24" viewBox="0 0 24 24" fill="none"
  xmlns="http://www.w3.org/2000/svg">
  <path d="M0.799988 4C0.799988 2.23269 2.23268 0.800003 3.99999 0.800003H15.2C16.9674 0.800003 18.4 2.23269 18.4 4V15.2H23.2V18.4C23.2 21.051 21.051 23.2 18.4 23.2H5.59999C2.94903 23.2 0.799988 21.051 0.799988 18.4V4ZM18.4 16.8V21.6C20.1673 21.6 21.6 20.1674 21.6 18.4V16.8H18.4ZM16.8 21.6V4C16.8 3.11636 16.0837 2.4 15.2 2.4H3.99999C3.11634 2.4 2.39999 3.11636 2.39999 4V18.4C2.39999 20.1674 3.83268 21.6 5.59999 21.6H16.8ZM5.59999 6.4C5.59999 5.95818 5.95816 5.6 6.39999 5.6H12.8C13.2417 5.6 13.6 5.95818 13.6 6.4C13.6 6.84183 13.2417 7.2 12.8 7.2H6.39999C5.95816 7.2 5.59999 6.84183 5.59999 6.4ZM5.59999 11.2C5.59999 10.7582 5.95816 10.4 6.39999 10.4H12.8C13.2417 10.4 13.6 10.7582 13.6 11.2C13.6 11.6418 13.2417 12 12.8 12H6.39999C5.95816 12 5.59999 11.6418 5.59999 11.2ZM5.59999 16C5.59999 15.5582 5.95816 15.2 6.39999 15.2H9.59999C10.0418 15.2 10.4 15.5582 10.4 16C10.4 16.4418 10.0418 16.8 9.59999 16.8H6.39999C5.95816 16.8 5.59999 16.4418 5.59999 16Z" fill="#212121"/>
</svg>
