<svg width="32" height="32" viewBox="0 0 32 32" fill="none" xmlns="http://www.w3.org/2000/svg">
<path d="M16 30.25C24.0081 30.25 30.5 23.7581 30.5 15.75C30.5 7.74187 24.0081 1.25 16 1.25C7.99187 1.25 1.5 7.74187 1.5 15.75C1.5 23.7581 7.99187 30.25 16 30.25Z" fill="white" stroke="#1D1D1B" stroke-width="2" stroke-miterlimit="10"/>
<path d="M16.0757 27.0426C22.2923 27.0426 27.3319 22.003 27.3319 15.7864C27.3319 9.56973 22.2923 4.53015 16.0757 4.53015C9.85904 4.53015 4.81946 9.56973 4.81946 15.7864C4.81946 22.003 9.85904 27.0426 16.0757 27.0426Z" fill="white"/>
<path d="M7.60259 23.2774C5.67001 21.0973 4.65585 18.254 4.77248 15.3429C4.88911 12.4319 6.12749 9.67887 8.22829 7.66035C10.3291 5.64183 13.1294 4.51437 16.0428 4.51407C18.9561 4.51377 21.7567 5.64065 23.8579 7.65874" stroke="black" stroke-miterlimit="10"/>
<path d="M24.5398 23.238C22.6846 25.3533 20.1061 26.6993 17.3099 27.0123C14.5137 27.3252 11.7014 26.5824 9.42444 24.9296" stroke="#1D1D1B" stroke-miterlimit="10"/>
<path d="M25.8982 10.2932C26.8694 12.0318 27.3635 13.9963 27.3305 15.9875C27.2975 17.9787 26.7385 19.9258 25.7102 21.6312" stroke="black" stroke-miterlimit="10"/>
<path d="M20.693 22.277C21.7026 22.277 22.5211 21.4585 22.5211 20.4489C22.5211 19.4394 21.7026 18.6209 20.693 18.6209C19.6834 18.6209 18.865 19.4394 18.865 20.4489C18.865 21.4585 19.6834 22.277 20.693 22.277Z" fill="#E82E89"/>
<path d="M10.8463 8.27114C10.8463 8.2028 10.8735 8.13726 10.9218 8.08893C10.9701 8.04061 11.0357 8.01346 11.104 8.01346H16.7063C19.6561 8.01346 21.76 9.58381 21.76 12.5608C21.76 15.4893 19.6167 17.1082 16.7063 17.1082H14.0719C14.0036 17.1082 13.938 17.1353 13.8897 17.1836C13.8414 17.232 13.8142 17.2975 13.8142 17.3659V22.0193C13.8142 22.0877 13.7871 22.1532 13.7387 22.2015C13.6904 22.2498 13.6249 22.277 13.5565 22.277H11.104C11.0357 22.277 10.9701 22.2498 10.9218 22.2015C10.8735 22.1532 10.8463 22.0877 10.8463 22.0193V8.27114ZM16.7245 14.5222C17.9705 14.5222 18.7921 13.7371 18.7921 12.5699C18.7921 11.4028 17.9705 10.5994 16.7245 10.5994H14.0719C14.0381 10.5994 14.0046 10.6061 13.9733 10.619C13.942 10.632 13.9136 10.6509 13.8897 10.6749C13.8658 10.6988 13.8468 10.7272 13.8338 10.7585C13.8209 10.7897 13.8142 10.8232 13.8142 10.8571V14.2524C13.8142 14.2863 13.8209 14.3198 13.8338 14.351C13.8468 14.3823 13.8658 14.4107 13.8897 14.4346C13.9136 14.4586 13.942 14.4775 13.9733 14.4905C14.0046 14.5034 14.0381 14.5101 14.0719 14.5101L16.7245 14.5222Z" fill="black"/>
</svg>
