<svg id="Capa_1" enable-background="new 0 0 512.008 512.008" height="512" viewBox="0 0 512.008 512.008" width="512" xmlns="http://www.w3.org/2000/svg"><g id="XMLID_929_"><g id="XMLID_17_"><path id="XMLID_18_" d="m332.338 179.68c1.953 1.953 4.512 2.929 7.071 2.929s5.119-.976 7.071-2.929l36.459-36.459c3.905-3.905 3.905-10.237 0-14.143-3.905-3.905-10.237-3.905-14.143 0l-36.459 36.459c-3.904 3.906-3.904 10.238.001 14.143z"/><path id="XMLID_41_" d="m296.429 304.217c-9.362-13.956-20.562-27.907-33.203-41.281l42.14-42.14c3.905-3.905 3.905-10.237 0-14.143-3.905-3.905-10.237-3.905-14.143 0l-42.14 42.14c-13.374-12.641-27.326-23.842-41.281-33.203 6.935-38.064-4.274-78.814-33.642-108.182-3.905-3.905-10.237-3.905-14.143 0-3.905 3.905-3.905 10.237 0 14.143 22.566 22.566 32.305 53.171 29.229 82.681-7.404-4.089-14.734-7.602-21.904-10.474-31.67-12.687-57.239-11.547-71.998 3.212-4.38 4.38-7.53 9.701-9.495 15.808-.02-.04-.032-.064-.032-.064l-84.609 266.339c-2.873 9.043-.489 18.829 6.22 25.538 4.829 4.829 11.252 7.417 17.845 7.417 2.567 0 5.159-.393 7.693-1.197l266.34-84.609-.017-.055c6.086-1.966 11.394-5.106 15.762-9.473 14.758-14.758 15.898-40.327 3.211-71.998-2.872-7.169-6.385-14.5-10.474-21.903 29.51-3.075 60.115 6.663 82.681 29.229 1.953 1.953 4.512 2.929 7.071 2.929s5.119-.976 7.071-2.929c3.905-3.905 3.905-10.237 0-14.143-29.369-29.368-70.119-40.576-108.182-33.642zm4.479 98.314c-6.717 6.716-19.688 7.946-36.526 3.46-18.805-5.009-41.273-16.927-63.264-33.557-4.405-3.332-10.677-2.461-14.008 1.944-3.332 4.405-2.46 10.677 1.944 14.008 20.502 15.504 40.423 26.685 58.501 33.269l-220.644 70.094c-2.767.88-4.657-.617-5.341-1.301s-2.18-2.573-1.301-5.34l70.099-220.664c6.583 18.085 17.753 38.009 33.263 58.519 3.331 4.405 9.603 5.275 14.008 1.944s5.275-9.603 1.944-14.008c-16.63-21.991-28.547-44.459-33.557-63.264-4.485-16.837-3.256-29.809 3.46-36.525 11.466-11.466 40.741-6.843 75.463 13.654-4.781 14.95-13.09 29.008-24.932 40.85-3.905 3.905-3.905 10.237 0 14.143 1.953 1.953 4.512 2.929 7.071 2.929s5.119-.976 7.071-2.929c12.81-12.811 22.161-27.789 28.064-43.763 10.71 7.594 21.721 16.579 32.714 26.945l-38.733 38.733c-3.905 3.905-3.905 10.237 0 14.143 1.953 1.953 4.512 2.929 7.071 2.929s5.119-.976 7.071-2.929l38.732-38.732c10.367 10.993 19.352 22.004 26.945 32.714-15.974 5.903-30.953 15.253-43.763 28.064-3.905 3.905-3.905 10.237 0 14.143 3.905 3.905 10.237 3.905 14.143 0 11.842-11.842 25.899-20.152 40.85-24.932 20.497 34.719 25.121 63.994 13.655 75.459z"/><path id="XMLID_44_" d="m510.012 269.448-18.925-25.36 10.162-29.967c1.223-3.604.292-7.591-2.399-10.283-2.691-2.691-6.677-3.62-10.283-2.399l-29.967 10.162-25.36-18.925c-3.051-2.276-7.129-2.623-10.521-.896-3.392 1.728-5.508 5.232-5.459 9.038l.404 31.641-25.835 18.271c-3.108 2.198-4.698 5.969-4.103 9.729.596 3.759 3.273 6.855 6.909 7.985l30.217 9.393 9.393 30.217c1.13 3.635 4.226 6.313 7.985 6.909.523.083 1.047.124 1.566.124 3.213 0 6.271-1.551 8.163-4.227l18.271-25.835 31.641.404c3.779.033 7.31-2.068 9.038-5.459 1.726-3.393 1.379-7.472-.897-10.522zm-44.784-4.49c-3.309-.037-6.393 1.538-8.292 4.225l-9.607 13.584-4.939-15.888c-.977-3.143-3.438-5.604-6.581-6.581l-15.888-4.939 13.584-9.607c2.688-1.9 4.267-5.001 4.225-8.292l-.212-16.637 13.334 9.951c2.638 1.967 6.076 2.512 9.192 1.456l15.757-5.343-5.343 15.757c-1.057 3.117-.513 6.554 1.456 9.192l9.951 13.334z"/><path id="XMLID_47_" d="m69.903 71.528 26.448 8.221 8.221 26.448c1.13 3.635 4.226 6.313 7.985 6.909.523.083 1.047.124 1.566.124 3.213 0 6.271-1.551 8.163-4.227l15.992-22.613 27.694.354c3.782.03 7.31-2.068 9.038-5.459 1.728-3.392 1.381-7.47-.896-10.521l-16.564-22.197 8.895-26.229c1.223-3.604.292-7.591-2.399-10.282s-6.676-3.622-10.283-2.399l-26.229 8.895-22.197-16.566c-3.051-2.276-7.129-2.624-10.521-.896s-5.508 5.232-5.459 9.038l.354 27.694-22.614 15.992c-3.108 2.198-4.698 5.969-4.103 9.729.596 3.759 3.274 6.855 6.909 7.985zm35.648-20.413c2.688-1.9 4.268-5.001 4.225-8.292l-.162-12.69 10.171 7.59c2.638 1.968 6.075 2.514 9.192 1.456l12.02-4.076-4.076 12.019c-1.057 3.117-.513 6.554 1.456 9.192l7.591 10.171-12.69-.162c-3.295-.028-6.392 1.538-8.292 4.225l-7.328 10.362-3.767-12.119c-.977-3.143-3.438-5.604-6.581-6.581l-12.12-3.767z"/><path id="XMLID_1698_" d="m442.985 96.956c21.191 0 38.431-17.24 38.431-38.431s-17.24-38.431-38.431-38.431-38.431 17.24-38.431 38.431 17.24 38.431 38.431 38.431zm0-56.862c10.163 0 18.431 8.268 18.431 18.431s-8.268 18.431-18.431 18.431-18.431-8.268-18.431-18.431 8.269-18.431 18.431-18.431z"/><path id="XMLID_1699_" d="m443.187 390.571c1.86-1.86 2.92-4.44 2.92-7.07s-1.06-5.21-2.92-7.07-4.44-2.93-7.08-2.93c-2.63 0-5.21 1.07-7.07 2.93s-2.93 4.44-2.93 7.07 1.07 5.21 2.93 7.07c1.87 1.86 4.44 2.93 7.07 2.93 2.64-.001 5.21-1.071 7.08-2.93z"/><path id="XMLID_1804_" d="m490.664 420.75h-13.75v-13.75c0-5.523-4.477-10-10-10s-10 4.477-10 10v13.75h-13.75c-5.523 0-10 4.477-10 10s4.477 10 10 10h13.75v13.75c0 5.523 4.477 10 10 10s10-4.477 10-10v-13.75h13.75c5.523 0 10-4.477 10-10s-4.477-10-10-10z"/><path id="XMLID_1805_" d="m277.765 100.729h13.75v13.75c0 5.523 4.477 10 10 10s10-4.477 10-10v-13.75h13.75c5.523 0 10-4.477 10-10s-4.477-10-10-10h-13.75v-13.75c0-5.523-4.477-10-10-10s-10 4.477-10 10v13.75h-13.75c-5.523 0-10 4.477-10 10s4.477 10 10 10z"/><path id="XMLID_1807_" d="m161.207 340.81c-2.63 0-5.21 1.07-7.07 2.93s-2.93 4.44-2.93 7.07 1.07 5.21 2.93 7.07 4.44 2.93 7.07 2.93 5.21-1.07 7.07-2.93 2.93-4.44 2.93-7.07-1.07-5.21-2.93-7.07-4.44-2.93-7.07-2.93z"/></g></g></svg>