<svg width="16" height="26" xmlns="http://www.w3.org/2000/svg"><g fill="none" fill-rule="evenodd"><path fill="#FFF" d="M1 1h14v24H1z"/><path d="M3.26 0C1.46 0 0 1.489 0 3.326v19.348C0 24.511 1.46 26 3.26 26h9.48c1.8 0 3.26-1.489 3.26-3.326V3.326C16 1.489 14.54 0 12.74 0H3.26zM1.777 3.326c0-.835.663-1.512 1.481-1.512h9.482c.818 0 1.481.677 1.481 1.512v19.348c0 .835-.663 1.512-1.481 1.512H3.259c-.818 0-1.481-.677-1.481-1.512V3.326zm2.666 1.209c-.654 0-1.185.541-1.185 1.21 0 .667.53 1.208 1.185 1.208s1.186-.54 1.186-1.209c0-.668-.531-1.21-1.186-1.21zm2.37 1.21c0-.669.531-1.21 1.186-1.21.655 0 1.185.541 1.185 1.21 0 .667-.53 1.208-1.185 1.208a1.197 1.197 0 01-1.185-1.209zm4.742-1.21c-.655 0-1.186.541-1.186 1.21 0 .667.531 1.208 1.186 1.208.654 0 1.185-.54 1.185-1.209 0-.668-.53-1.21-1.185-1.21zM3.259 9.372c0-.668.53-1.21 1.185-1.21s1.186.542 1.186 1.21c0 .668-.531 1.21-1.186 1.21a1.197 1.197 0 01-1.185-1.21zM8 8.162c-.655 0-1.185.542-1.185 1.21 0 .668.53 1.21 1.185 1.21s1.185-.542 1.185-1.21c0-.668-.53-1.21-1.185-1.21zm2.37 1.21c0-.668.531-1.21 1.186-1.21.654 0 1.185.542 1.185 1.21 0 .668-.53 1.21-1.185 1.21a1.197 1.197 0 01-1.186-1.21zM4.444 20.256c-.654 0-1.185.541-1.185 1.21 0 .667.53 1.208 1.185 1.208s1.186-.541 1.186-1.209-.531-1.21-1.186-1.21zm2.37 1.21c0-.669.531-1.21 1.186-1.21.655 0 1.185.541 1.185 1.21 0 .667-.53 1.208-1.185 1.208a1.197 1.197 0 01-1.185-1.209zm4.742-1.21c-.655 0-1.186.541-1.186 1.21 0 .667.531 1.208 1.186 1.208.654 0 1.185-.541 1.185-1.209s-.53-1.21-1.185-1.21zM3.259 13c0-.668.53-1.21 1.185-1.21S5.63 12.333 5.63 13c0 .668-.531 1.21-1.186 1.21A1.197 1.197 0 013.26 13zM8 11.79c-.655 0-1.185.542-1.185 1.21 0 .668.53 1.21 1.185 1.21s1.185-.542 1.185-1.21c0-.668-.53-1.21-1.185-1.21z" fill="#120E27"/></g></svg>