<?xml version="1.0" encoding="UTF-8"?>
<svg width="16px" height="26px" viewBox="0 0 16 26" version="1.1" xmlns="http://www.w3.org/2000/svg" xmlns:xlink="http://www.w3.org/1999/xlink">
    <title>Group 17</title>
    <g id="⚙️-00-Settings" stroke="none" stroke-width="1" fill="none" fill-rule="evenodd">
        <g id="wallfair-mobile-settings-menu-01" transform="translate(-65.000000, -486.000000)">
            <g id="Group-21" transform="translate(32.000000, 460.000000)">
                <g id="Group-17" transform="translate(33.000000, 26.000000)">
                    <rect id="Rectangle" fill="#FFFFFF" x="1" y="1" width="14" height="24"></rect>
                    <path d="M3.25925926,0 C1.4592237,0 0,1.48891721 0,3.3255814 L0,22.6744186 C0,24.511107 1.4592237,26 3.25925926,26 L12.7407407,26 C14.5408,26 16,24.511107 16,22.6744186 L16,3.3255814 C16,1.48891721 14.5408,0 12.7407407,0 L3.25925926,0 Z M1.77777778,3.3255814 C1.77777778,2.49072744 2.44105481,1.81395349 3.25925926,1.81395349 L12.7407407,1.81395349 C13.5589926,1.81395349 14.2222222,2.49072744 14.2222222,3.3255814 L14.2222222,22.6744186 C14.2222222,23.5093209 13.5589926,24.1860465 12.7407407,24.1860465 L3.25925926,24.1860465 C2.44105481,24.1860465 1.77777778,23.5093209 1.77777778,22.6744186 L1.77777778,3.3255814 Z M4.44444444,4.53488372 C3.78989037,4.53488372 3.25925926,5.07631256 3.25925926,5.74418605 C3.25925926,6.41205953 3.78989037,6.95348837 4.44444444,6.95348837 C5.09899852,6.95348837 5.62962963,6.41205953 5.62962963,5.74418605 C5.62962963,5.07631256 5.09899852,4.53488372 4.44444444,4.53488372 Z M6.81481481,5.74418605 C6.81481481,5.07631256 7.34542222,4.53488372 8,4.53488372 C8.65457778,4.53488372 9.18518519,5.07631256 9.18518519,5.74418605 C9.18518519,6.41205953 8.65457778,6.95348837 8,6.95348837 C7.34542222,6.95348837 6.81481481,6.41205953 6.81481481,5.74418605 Z M11.5555556,4.53488372 C10.9009778,4.53488372 10.3703704,5.07631256 10.3703704,5.74418605 C10.3703704,6.41205953 10.9009778,6.95348837 11.5555556,6.95348837 C12.2101333,6.95348837 12.7407407,6.41205953 12.7407407,5.74418605 C12.7407407,5.07631256 12.2101333,4.53488372 11.5555556,4.53488372 Z M3.25925926,9.37209302 C3.25925926,8.70421953 3.78989037,8.1627907 4.44444444,8.1627907 C5.09899852,8.1627907 5.62962963,8.70421953 5.62962963,9.37209302 C5.62962963,10.0399786 5.09899852,10.5813953 4.44444444,10.5813953 C3.78989037,10.5813953 3.25925926,10.0399786 3.25925926,9.37209302 Z M8,8.1627907 C7.34542222,8.1627907 6.81481481,8.70421953 6.81481481,9.37209302 C6.81481481,10.0399786 7.34542222,10.5813953 8,10.5813953 C8.65457778,10.5813953 9.18518519,10.0399786 9.18518519,9.37209302 C9.18518519,8.70421953 8.65457778,8.1627907 8,8.1627907 Z M10.3703704,9.37209302 C10.3703704,8.70421953 10.9009778,8.1627907 11.5555556,8.1627907 C12.2101333,8.1627907 12.7407407,8.70421953 12.7407407,9.37209302 C12.7407407,10.0399786 12.2101333,10.5813953 11.5555556,10.5813953 C10.9009778,10.5813953 10.3703704,10.0399786 10.3703704,9.37209302 Z M4.44444444,20.255814 C3.78989037,20.255814 3.25925926,20.7972186 3.25925926,21.4651163 C3.25925926,22.133014 3.78989037,22.6744186 4.44444444,22.6744186 C5.09899852,22.6744186 5.62962963,22.133014 5.62962963,21.4651163 C5.62962963,20.7972186 5.09899852,20.255814 4.44444444,20.255814 Z M6.81481481,21.4651163 C6.81481481,20.7972186 7.34542222,20.255814 8,20.255814 C8.65457778,20.255814 9.18518519,20.7972186 9.18518519,21.4651163 C9.18518519,22.133014 8.65457778,22.6744186 8,22.6744186 C7.34542222,22.6744186 6.81481481,22.133014 6.81481481,21.4651163 Z M11.5555556,20.255814 C10.9009778,20.255814 10.3703704,20.7972186 10.3703704,21.4651163 C10.3703704,22.133014 10.9009778,22.6744186 11.5555556,22.6744186 C12.2101333,22.6744186 12.7407407,22.133014 12.7407407,21.4651163 C12.7407407,20.7972186 12.2101333,20.255814 11.5555556,20.255814 Z M3.25925926,13 C3.25925926,12.3321023 3.78989037,11.7906977 4.44444444,11.7906977 C5.09899852,11.7906977 5.62962963,12.3321023 5.62962963,13 C5.62962963,13.6678977 5.09899852,14.2093023 4.44444444,14.2093023 C3.78989037,14.2093023 3.25925926,13.6678977 3.25925926,13 Z M8,11.7906977 C7.34542222,11.7906977 6.81481481,12.3321023 6.81481481,13 C6.81481481,13.6678977 7.34542222,14.2093023 8,14.2093023 C8.65457778,14.2093023 9.18518519,13.6678977 9.18518519,13 C9.18518519,12.3321023 8.65457778,11.7906977 8,11.7906977 Z" id="Shape" fill="#120E27"></path>
                </g>
            </g>
        </g>
    </g>
</svg>