<?xml version="1.0" encoding="UTF-8"?>
<svg width="15px" height="15px" viewBox="0 0 15 15" version="1.1" xmlns="http://www.w3.org/2000/svg" xmlns:xlink="http://www.w3.org/1999/xlink">
    <title>Group 46</title>
    <g id="Screens-+-UI-Kit" stroke="none" stroke-width="1" fill="none" fill-rule="evenodd">
        <g id="Events" transform="translate(-1227.000000, -727.000000)" fill="#000000" fill-rule="nonzero">
            <g id="Group-5" transform="translate(1199.105509, 713.674813)">
                <g id="Group-3" transform="translate(23.894491, 11.325187)">
                    <g id="Group-50" transform="translate(4.000000, 0.000000)">
                        <g id="Group-52" transform="translate(0.000000, 2.000000)">
                            <path d="M7.5,15 C7.09549457,15 6.76757813,14.6720836 6.76757813,14.2675781 L6.76757813,0.732421875 C6.76757813,0.327916443 7.09549457,0 7.5,0 C7.90450543,0 8.23242188,0.327916443 8.23242188,0.732421875 L8.23242188,14.2675781 C8.23242188,14.6720836 7.90450543,15 7.5,15 Z" id="Path"></path>
                            <path d="M14.2675781,8.23242188 L0.732421875,8.23242188 C0.327916443,8.23242188 0,7.90450543 0,7.5 C0,7.09549457 0.327916443,6.76757813 0.732421875,6.76757813 L14.2675781,6.76757813 C14.6720836,6.76757813 15,7.09549457 15,7.5 C15,7.90450543 14.6720836,8.23242188 14.2675781,8.23242188 Z" id="Path"></path>
                        </g>
                    </g>
                </g>
            </g>
        </g>
    </g>
</svg>