<svg width="118" height="26" viewBox="0 0 118 26" xmlns="http://www.w3.org/2000/svg">
    <defs>
        <filter id="a">
            <feColorMatrix in="SourceGraphic" values="0 0 0 0 1.000000 0 0 0 0 1.000000 0 0 0 0 1.000000 0 0 0 1.000000 0"/>
        </filter>
    </defs>
    <g filter="url(#a)" transform="translate(-590 -320)" fill="none" fill-rule="evenodd">
        <g fill-rule="nonzero">
            <path d="M636.164 328.259c.724.438 1.337 1.04 1.727 1.86.445.82.668 1.805.668 2.899s-.223 2.024-.724 2.844a4.124 4.124 0 0 1-1.95 1.805c-.834.438-1.837.657-2.895.657-.612 0-1.17-.11-1.726-.328a3.538 3.538 0 0 1-1.448-.876v5.69h-3.23V327.82h2.785l.278 1.204c1.225-.985 2.562-1.477 3.954-1.477.946 0 1.837.219 2.561.711zm-1.782 6.783c.557-.493.836-1.149.836-1.97 0-.82-.279-1.476-.78-2.023-.501-.547-1.17-.766-1.893-.766-.613 0-1.17.11-1.615.383-.446.219-.78.601-1.058 1.094v2.461c.167.493.5.875.89 1.149.446.273.947.438 1.56.438.835 0 1.503-.274 2.06-.766zM640.452 330.172c.501-.765 1.17-1.422 2.06-1.86a6.756 6.756 0 0 1 3.008-.71c1.113 0 2.116.218 3.007.71.835.438 1.503 1.095 2.004 1.915.502.82.724 1.696.724 2.735 0 1.04-.222 1.915-.724 2.735-.5.82-1.113 1.477-2.004 1.914-.836.438-1.894.712-3.007.712-1.114 0-2.117-.22-3.008-.657-.89-.437-1.559-1.04-2.06-1.86a5.837 5.837 0 0 1-.724-2.844c0-1.04.279-1.97.724-2.79zm3.286 4.76c.445.546 1.058.765 1.782.765.723 0 1.336-.273 1.782-.766.445-.492.668-1.203.668-1.969 0-.82-.223-1.477-.668-1.97-.502-.546-1.059-.82-1.838-.82-.724 0-1.28.274-1.782.766-.446.547-.668 1.204-.668 2.024 0 .766.222 1.422.724 1.97zM656.49 320.053v17.997h-3.23v-17.997zM669.743 328.094l-6.57 14.77h-3.119l2.45-5.307-4.678-9.463h3.676l2.673 5.908 2.673-5.908zM682.105 328.094v9.955c0 .93-.278 1.805-.835 2.571-.557.766-1.28 1.368-2.227 1.805a7.149 7.149 0 0 1-3.063.656c-.836 0-1.56-.109-2.172-.273a10.009 10.009 0 0 1-1.504-.656c-.445-.274-.89-.602-1.392-1.04l1.894-2.188c.445.438.946.766 1.392.985a4.01 4.01 0 0 0 1.726.383c.835 0 1.504-.219 2.06-.602.557-.383.836-.984.836-1.696v-1.422c-.334.492-.78.93-1.448 1.258-.668.329-1.448.493-2.339.493-.89 0-1.782-.22-2.561-.712-.78-.437-1.393-1.094-1.894-1.914-.445-.82-.724-1.696-.724-2.68 0-.985.223-1.915.724-2.735.501-.82 1.114-1.477 1.95-1.97a4.582 4.582 0 0 1 2.505-.71c.835 0 1.56.109 2.228.328.668.218 1.17.547 1.503.93l.334-.766h3.007zm-3.285 6.126v-2.461a2.369 2.369 0 0 0-1.058-1.15 3.506 3.506 0 0 0-1.727-.437c-.78 0-1.447.274-2.004.766-.557.492-.836 1.149-.836 1.97 0 .765.279 1.476.836 2.023a2.76 2.76 0 0 0 2.004.82c1.281-.054 2.228-.546 2.785-1.53zM684.78 330.173c.5-.82 1.169-1.422 2.06-1.914a6.755 6.755 0 0 1 3.007-.711c1.114 0 2.116.219 3.007.711.835.438 1.503 1.094 2.005 1.914.445.82.723 1.696.723 2.735 0 1.04-.222 1.915-.723 2.735a4.49 4.49 0 0 1-2.005 1.915c-.836.438-1.893.711-3.007.711s-2.116-.219-3.007-.656c-.891-.438-1.56-1.04-2.06-1.86-.502-.82-.725-1.75-.725-2.9 0-.93.223-1.86.724-2.68zm3.23 4.76c.445.546 1.057.765 1.781.765s1.336-.273 1.782-.766c.445-.492.668-1.203.668-1.969 0-.82-.223-1.477-.668-1.97-.446-.491-1.058-.765-1.782-.765s-1.28.274-1.782.766c-.501.492-.724 1.203-.724 1.97.056.765.279 1.421.724 1.968zM706.999 328.422c.668.547.946 1.258 1.001 2.133v7.494h-3.285v-6.29c-.056-.985-.557-1.477-1.504-1.477-.723 0-1.336.328-1.781 1.039-.446.711-.669 1.586-.669 2.626v4.102h-3.23v-9.955h2.952l.223 1.586a4.154 4.154 0 0 1 1.559-1.532c.668-.382 1.448-.547 2.339-.547.946 0 1.782.274 2.395.82z" fill="#212121"/>
            <path d="M612.776 327.93c-.557-.327-1.281-.327-1.893 0l-4.344 2.517-2.951 1.641-4.344 2.516c-.557.328-1.28.328-1.893 0l-3.453-1.969c-.557-.328-.947-.93-.947-1.586v-3.884c0-.656.335-1.258.947-1.586l3.397-1.915c.557-.328 1.28-.328 1.893 0l3.397 1.915c.557.328.947.93.947 1.586v2.516l2.951-1.695v-2.517c0-.656-.334-1.258-.946-1.586l-6.293-3.61c-.557-.328-1.28-.328-1.893 0l-6.404 3.61c-.613.328-.947.93-.947 1.586v7.275c0 .657.334 1.259.947 1.587l6.404 3.61c.556.328 1.28.328 1.893 0l4.344-2.462 2.95-1.695 4.345-2.462c.556-.328 1.28-.328 1.893 0l3.397 1.915c.557.328.946.93.946 1.586v3.884c0 .656-.334 1.258-.946 1.586l-3.397 1.97c-.557.327-1.281.327-1.893 0l-3.397-1.915c-.557-.328-.947-.93-.947-1.587v-2.516l-2.951 1.696v2.516c0 .656.334 1.258.946 1.586l6.404 3.61c.557.329 1.28.329 1.894 0l6.404-3.61c.556-.328.946-.93.946-1.586v-7.275c0-.656-.334-1.258-.946-1.586l-6.46-3.665z" fill="#8247E5"/>
        </g>
    </g>
</svg>
