<svg width="27" height="26" viewBox="0 0 27 26" fill="none" xmlns="http://www.w3.org/2000/svg">
<path d="M24.2427 9.29688C23.9133 9.29691 23.5873 9.36297 23.2838 9.49115C22.9804 9.61933 22.7057 9.80704 22.4761 10.0432L22.1122 10.4182L21.7446 10.0432C21.5149 9.80708 21.2402 9.61943 20.9368 9.49129C20.6333 9.36315 20.3073 9.29714 19.9779 9.29714C19.6485 9.29714 19.3225 9.36315 19.019 9.49129C18.7156 9.61943 18.4409 9.80708 18.2112 10.0432C17.7429 10.5268 17.481 11.1736 17.481 11.8469C17.481 12.5201 17.7429 13.167 18.2112 13.6506L22.1122 17.6302L26.0094 13.6506C26.4778 13.167 26.7397 12.5201 26.7397 11.8469C26.7397 11.1736 26.4778 10.5268 26.0094 10.0432C25.7797 9.80704 25.5051 9.61933 25.2016 9.49115C24.8982 9.36297 24.5721 9.29691 24.2427 9.29688Z" fill="#FFD401"/>
<path d="M0.814453 25.9632H2.6663V21.3335C2.66778 20.1061 3.15601 18.9294 4.02392 18.0615C4.89182 17.1936 6.06853 16.7054 7.29593 16.7039H12.8515C14.0789 16.7054 15.2556 17.1936 16.1235 18.0615C16.9914 18.9294 17.4796 20.1061 17.4811 21.3335V25.9632H19.333V21.3335C19.331 19.6151 18.6475 17.9677 17.4324 16.7526C16.2173 15.5375 14.5699 14.854 12.8515 14.8521H7.29593C5.57754 14.854 3.93009 15.5375 2.715 16.7526C1.49991 17.9677 0.816414 19.6151 0.814453 21.3335V25.9632Z" fill="#FFD401"/>
<path d="M10.0743 1.88896C10.9899 1.88896 11.885 2.16048 12.6463 2.66919C13.4077 3.1779 14.0011 3.90095 14.3515 4.74691C14.7019 5.59286 14.7936 6.52373 14.6149 7.42179C14.4363 8.31985 13.9954 9.14477 13.3479 9.79223C12.7004 10.4397 11.8755 10.8806 10.9775 11.0593C10.0794 11.2379 9.14853 11.1462 8.30258 10.7958C7.45662 10.4454 6.73357 9.85201 6.22486 9.09068C5.71615 8.32934 5.44463 7.43425 5.44463 6.51859C5.44463 5.29074 5.93239 4.11317 6.80062 3.24495C7.66884 2.37672 8.8464 1.88896 10.0743 1.88896ZM10.0743 0.0371094C8.79234 0.0371094 7.53921 0.417242 6.47334 1.12944C5.40747 1.84163 4.57672 2.8539 4.08615 4.03824C3.59558 5.22257 3.46723 6.52578 3.71732 7.78307C3.96741 9.04035 4.58471 10.1952 5.49116 11.1017C6.39761 12.0081 7.5525 12.6254 8.80978 12.8755C10.0671 13.1256 11.3703 12.9973 12.5546 12.5067C13.7389 12.0161 14.7512 11.1854 15.4634 10.1195C16.1756 9.05363 16.5557 7.80051 16.5557 6.51859C16.5557 4.7996 15.8729 3.15101 14.6574 1.93549C13.4418 0.719978 11.7933 0.0371094 10.0743 0.0371094Z" fill="#FFD401"/>
</svg>
