<svg width="17" height="16" viewBox="0 0 17 16" fill="none" xmlns="http://www.w3.org/2000/svg">
<path d="M14.946 5.77777C14.7483 5.77779 14.5527 5.81743 14.3706 5.89434C14.1886 5.97125 14.0238 6.08387 13.886 6.22555L13.6676 6.45055L13.4471 6.22555C13.3093 6.0839 13.1445 5.9713 12.9624 5.89442C12.7803 5.81754 12.5847 5.77793 12.3871 5.77793C12.1895 5.77793 11.9938 5.81754 11.8118 5.89442C11.6297 5.9713 11.4649 6.0839 11.3271 6.22555C11.0461 6.51571 10.8889 6.90382 10.8889 7.30777C10.8889 7.71172 11.0461 8.09983 11.3271 8.38999L13.6676 10.7778L16.006 8.38999C16.287 8.09983 16.4441 7.71172 16.4441 7.30777C16.4441 6.90382 16.287 6.51571 16.006 6.22555C15.8682 6.08387 15.7034 5.97125 15.5213 5.89434C15.3392 5.81743 15.1436 5.77779 14.946 5.77777Z" fill="#FFD401"/>
<path d="M0.888916 15.7778H2.00003V13C2.00091 12.2635 2.29385 11.5575 2.81459 11.0368C3.33534 10.516 4.04136 10.2231 4.7778 10.2222H8.11114C8.84758 10.2231 9.55361 10.516 10.0743 11.0368C10.5951 11.5575 10.888 12.2635 10.8889 13V15.7778H12V13C11.9988 11.9689 11.5888 10.9805 10.8597 10.2514C10.1306 9.52236 9.14217 9.11226 8.11114 9.11108H4.7778C3.74677 9.11226 2.7583 9.52236 2.02924 10.2514C1.30019 10.9805 0.890092 11.9689 0.888916 13V15.7778Z" fill="#FFD401"/>
<path d="M6.44456 1.33334C6.99395 1.33334 7.531 1.49625 7.98781 1.80148C8.44461 2.10671 8.80064 2.54054 9.01089 3.04811C9.22113 3.55568 9.27614 4.1142 9.16896 4.65304C9.06178 5.19187 8.79722 5.68682 8.40874 6.0753C8.02026 6.46378 7.52531 6.72834 6.98647 6.83552C6.44764 6.9427 5.88912 6.88769 5.38155 6.67745C4.87397 6.46721 4.44014 6.11117 4.13492 5.65437C3.82969 5.19757 3.66678 4.66051 3.66678 4.11112C3.66678 3.37441 3.95943 2.66787 4.48037 2.14693C5.0013 1.626 5.70784 1.33334 6.44456 1.33334ZM6.44456 0.222229C5.67541 0.222229 4.92353 0.450308 4.284 0.877625C3.64448 1.30494 3.14603 1.9123 2.85169 2.6229C2.55735 3.33351 2.48034 4.11543 2.63039 4.8698C2.78044 5.62417 3.15082 6.31711 3.6947 6.86098C4.23857 7.40485 4.9315 7.77523 5.68587 7.92528C6.44024 8.07534 7.22217 7.99832 7.93277 7.70398C8.64337 7.40964 9.25073 6.91119 9.67805 6.27167C10.1054 5.63214 10.3334 4.88027 10.3334 4.11112C10.3334 3.07972 9.92372 2.09057 9.19441 1.36126C8.46511 0.63195 7.47595 0.222229 6.44456 0.222229Z" fill="#FFD401"/>
</svg>
