<svg width="24" height="24" viewBox="0 0 24 24" fill="none" xmlns="http://www.w3.org/2000/svg">
<path d="M22.9167 1.08314C22.7917 0.958761 22.6339 0.872648 22.4616 0.834922C22.2894 0.797196 22.11 0.809426 21.9445 0.870175L1.57411 8.27758C1.39843 8.34422 1.24718 8.46272 1.14045 8.61735C1.03372 8.77199 0.976562 8.95543 0.976562 9.14332C0.976562 9.33121 1.03372 9.51466 1.14045 9.66929C1.24718 9.82392 1.39843 9.94243 1.57411 10.0091L10.463 13.5646L14.0186 22.4535C14.0854 22.6215 14.1999 22.7662 14.3479 22.8699C14.496 22.9735 14.6712 23.0316 14.8519 23.0368C15.039 23.033 15.2206 22.9726 15.3726 22.8635C15.5247 22.7544 15.6401 22.6017 15.7037 22.4257L23.1111 2.05536C23.1742 1.89154 23.1894 1.71317 23.155 1.54103C23.1206 1.36889 23.0379 1.21009 22.9167 1.08314ZM14.8519 19.5183L12.2686 13.0368L16.7037 8.60166L15.3982 7.2961L10.926 11.7683L4.48152 9.14795L20.713 3.28684L14.8519 19.5183Z" fill="#FFD401"/>
</svg>
