<svg width="15" height="15" viewBox="0 0 15 15" fill="none" xmlns="http://www.w3.org/2000/svg">
<path d="M13.95 1.04998C13.875 0.975354 13.7803 0.923686 13.6769 0.901051C13.5736 0.878415 13.4659 0.885754 13.3666 0.922203L1.14442 5.36665C1.03901 5.40663 0.948262 5.47773 0.884224 5.57051C0.820186 5.66329 0.785889 5.77336 0.785889 5.88609C0.785889 5.99883 0.820186 6.10889 0.884224 6.20167C0.948262 6.29445 1.03901 6.36555 1.14442 6.40554L6.47775 8.53887L8.61108 13.8722C8.65117 13.973 8.71987 14.0598 8.80872 14.122C8.89757 14.1842 9.00268 14.219 9.11108 14.2222C9.22335 14.2199 9.33229 14.1836 9.42353 14.1182C9.51477 14.0527 9.58404 13.9611 9.6222 13.8555L14.0666 1.63331C14.1045 1.53502 14.1136 1.428 14.093 1.32472C14.0723 1.22143 14.0227 1.12615 13.95 1.04998ZM9.11108 12.1111L7.56108 8.2222L10.2222 5.56109L9.43886 4.77776L6.75553 7.46109L2.88886 5.88887L12.6278 2.3722L9.11108 12.1111Z" fill="#FFD401"/>
</svg>
