<?xml version="1.0" encoding="UTF-8"?>
<svg width="15px" height="15px" viewBox="0 0 15 15" version="1.1" xmlns="http://www.w3.org/2000/svg" xmlns:xlink="http://www.w3.org/1999/xlink">
    <title>circle2017</title>
    <g id="Screens-+-UI-Kit" stroke="none" stroke-width="1" fill="none" fill-rule="evenodd">
        <g id="Events" transform="translate(-1152.000000, -727.000000)" fill="#FFFFFF" fill-rule="nonzero">
            <g id="Group-50-Copy" transform="translate(851.000000, 712.000000)">
                <g id="search-5" transform="translate(301.000000, 15.000000)">
                    <path d="M6.7326186,0 C3.0223517,0 0,3.02132524 0,6.73034587 C0,10.4393382 3.0223517,13.4665154 6.7326186,13.4665154 C8.3173862,13.4665154 9.77488287,12.9113496 10.9268049,11.9895506 L13.73121,14.7915291 C14.0255744,15.0736054 14.4914644,15.0688434 14.7799975,14.7808091 C15.0685306,14.4927747 15.0739417,14.0270504 14.7921786,13.7323945 L11.9877732,10.9289459 C12.9106528,9.77564405 13.4666985,8.31640451 13.4666985,6.73034587 C13.4666985,3.02132524 10.4428855,0 6.7326186,0 L6.7326186,0 Z M6.7326186,1.49596223 C9.63413756,1.49596223 11.968775,3.82981823 11.968775,6.73034587 C11.968775,9.63087351 9.63413756,11.9705531 6.7326186,11.9705531 C3.83109963,11.9705531 1.49646223,9.63087351 1.49646223,6.73034587 C1.49646223,3.82981823 3.83109963,1.49596223 6.7326186,1.49596223 Z" id="circle2017"></path>
                </g>
            </g>
        </g>
    </g>
</svg>