<?xml version="1.0" encoding="UTF-8"?>
<svg width="24px" height="19px" viewBox="0 0 24 19" version="1.1" xmlns="http://www.w3.org/2000/svg" xmlns:xlink="http://www.w3.org/1999/xlink">
    <title>Shape Copy</title>
    <g id="🌎-00-Mobile-Menu" stroke="none" stroke-width="1" fill="none" fill-rule="evenodd" stroke-linecap="round">
        <g id="wallfair-home-mobile-menu-01" transform="translate(-194.000000, -677.000000)" stroke="#000000" stroke-width="1.8">
            <g id="Group-10-Copy-3" transform="translate(128.000000, 659.000000)">
                <g id="Group-5" transform="translate(67.000000, 15.000000)">
                    <path d="M3.6,17.2 L0,17.2 M3.6,17.2 C3.6,19.18828 5.21178,20.8 7.2,20.8 C9.18828,20.8 10.8,19.18828 10.8,17.2 M3.6,17.2 C3.6,15.21172 5.21178,13.6 7.2,13.6 C9.18828,13.6 10.8,15.21172 10.8,17.2 M21.6,17.2 L10.8,17.2 M10.8,7.6 L0,7.6 M10.8,7.6 C10.8,9.58822 12.41172,11.2 14.4,11.2 C16.38828,11.2 18,9.58822 18,7.6 M10.8,7.6 C10.8,5.61178 12.41172,4 14.4,4 C16.38828,4 18,5.61178 18,7.6 M21.6,7.6 L18,7.6" id="Shape-Copy"></path>
                </g>
            </g>
        </g>
    </g>
</svg>