<svg width="25px" height="25px" viewBox="0 0 25 25" version="1.1" xmlns="http://www.w3.org/2000/svg" xmlns:xlink="http://www.w3.org/1999/xlink">
    <g id="Home-" stroke="none" stroke-width="1" fill="none" fill-rule="evenodd">
        <g id="wallfair-mobile-responsive-home-01" transform="translate(-350.000000, -3656.000000)" fill="#02061E" fill-rule="nonzero">
            <g id="Group-26" transform="translate(-6.808353, 3642.000000)">
                <g id="Group-24" transform="translate(339.877827, 14.000000)">
                    <g id="shuttle" transform="translate(16.930525, 0.000000)">
                        <path d="M24.9707068,1.86629575 C24.9165564,0.87323298 24.1267618,0.0835386092 23.1336957,0.0293395892 C21.1298878,-0.0801326657 17.2087954,0.0263610845 13.4593826,1.96566062 C11.5480063,2.95432887 9.52652261,4.63054342 7.91329074,6.56452071 C7.8934177,6.58834875 7.87408177,6.61232327 7.85435521,6.63620013 L4.19322365,6.9190116 C3.59058714,6.96559346 3.05381974,7.28146144 2.72051907,7.78556115 L0.222766019,11.563477 C-0.0300170975,11.9457998 -0.0702026307,12.4242649 0.115197697,12.8433551 C0.300646852,13.2624942 0.68170141,13.554583 1.13458211,13.6247487 L4.21910255,14.1024814 C4.20821388,14.1624421 4.19727638,14.222354 4.18726662,14.2823147 C4.08458111,14.8965702 4.28809666,15.5281109 4.73174886,15.9717128 L9.02823177,20.2682302 C9.39605391,20.6360512 9.89307522,20.8388336 10.4023524,20.8388336 C10.5072352,20.8388336 10.6127039,20.8301911 10.7176843,20.8126618 C10.7776452,20.8026521 10.8375573,20.7917146 10.8975182,20.780826 L11.3752524,23.865385 C11.4454184,24.3182642 11.7375082,24.6993663 12.156551,24.884766 C12.3309162,24.9619142 12.5154376,25 12.699129,25 C12.9570878,25 13.2132401,24.9248538 13.4364822,24.7772469 L17.2144106,22.2794533 C17.7185608,21.9461049 18.034381,21.4093393 18.0808654,20.8067537 L18.3636778,17.1456831 C18.3875547,17.1259566 18.4115782,17.1066207 18.4354063,17.0867478 C20.3694388,15.4735213 22.0457078,13.4520443 23.0343305,11.5406255 C24.9737341,7.79107871 25.0800329,3.86995051 24.9707068,1.86629575 Z M16.4065496,21.0574852 L12.7927324,23.446783 L12.3271076,20.4406905 C13.8544508,19.9916199 15.365339,19.2723843 16.8047428,18.3088624 L16.6205143,20.6938634 C16.6090397,20.8426422 16.5310124,20.9752101 16.4065496,21.0574852 L16.4065496,21.0574852 Z M10.0640224,19.232443 L5.76749069,14.9359256 C5.65787159,14.826258 5.60718801,14.6722058 5.63204152,14.5238177 C5.75977585,13.7600021 5.95826211,13.0329052 6.20396515,12.3479468 L12.6506426,18.7946028 C11.8279867,19.0892795 11.0911217,19.2650601 10.4761317,19.3678917 C10.3274989,19.3925987 10.1736415,19.3420618 10.0640224,19.232443 Z M4.30606541,8.37950429 L6.69102553,8.19527645 C5.72745164,9.63467547 5.00821361,11.1455586 4.55914149,12.6728968 L1.55308783,12.2073223 L3.94244248,8.59346835 C4.02476668,8.46895709 4.15733499,8.39097886 4.30606541,8.37950429 L4.30606541,8.37950429 Z M17.497223,15.9618007 C16.3139715,16.94876 15.1653879,17.6626246 14.1066968,18.1791754 L6.82051768,10.8930205 C7.4971776,9.51099428 8.3230074,8.36016842 9.03814387,7.50284735 C10.5310633,5.71305899 12.3878498,4.16907051 14.1324292,3.26673006 C17.5735414,1.48680495 21.1990772,1.39095569 23.0539594,1.49193188 C23.2994671,1.50531074 23.4947307,1.7005737 23.5081096,1.94612944 C23.6092327,3.80100545 23.5131878,7.42648044 21.7332567,10.8676299 C20.8309621,12.6121548 19.2869685,14.4688863 17.497223,15.9618007 Z" id="Shape"></path>
                        <path d="M17.1250552,11.5352545 C18.0626525,11.5351568 19.0006405,11.1782245 19.7144586,10.4644088 C20.4061576,9.7727609 20.7870168,8.85313537 20.7870168,7.87501395 C20.7870168,6.89689254 20.4061087,5.977267 19.7144586,5.28561915 C18.286627,3.85774352 15.9633857,3.85784118 14.5356518,5.28561915 C13.8439528,5.977267 13.4630447,6.89689254 13.4630447,7.87501395 C13.4630447,8.85313537 13.8440016,9.7727609 14.5356518,10.4644088 C15.2496164,11.178371 16.187116,11.5353521 17.1250552,11.5352545 Z M15.5713448,6.32135754 C15.9996649,5.89298997 16.5623112,5.6788306 17.1249575,5.6788306 C17.6876526,5.6788306 18.2502989,5.89298997 18.6786191,6.32135754 C19.0936092,6.73634625 19.3221247,7.28810204 19.3221247,7.87496512 C19.3221247,8.46182821 19.0936092,9.01363282 18.6786191,9.42862154 C17.8219788,10.2853079 16.4279851,10.285259 15.5712959,9.42862154 C15.1563058,9.01363282 14.9277415,8.46187703 14.9277415,7.87501395 C14.9277415,7.28815087 15.1563547,6.73634625 15.5713448,6.32135754 Z" id="Shape"></path>
                        <path d="M0.747131075,20.6023599 C0.934582183,20.6023599 1.12203329,20.5308758 1.26500199,20.3878099 L3.65626094,17.9965589 C3.942296,17.7105248 3.942296,17.2468058 3.65626094,16.9607717 C3.37027471,16.6747376 2.90650534,16.6747376 2.62047028,16.9607717 L0.229260158,19.3520227 C-0.0567749009,19.6380568 -0.0567749009,20.1017758 0.229260158,20.3878099 C0.372228859,20.5308269 0.559679967,20.6023599 0.747131075,20.6023599 Z" id="Path"></path>
                        <path d="M5.84771527,19.1522187 C5.56172904,18.8661846 5.09795967,18.8661846 4.81192461,19.1522187 L0.214562897,23.749614 C-0.0714721615,24.0356481 -0.0714721615,24.4993671 0.214562897,24.7854012 C0.357580427,24.9284182 0.544982706,24.9999023 0.732433814,24.9999023 C0.919884922,24.9999023 1.10733603,24.9284182 1.25030473,24.7853523 L5.84766644,20.1880059 C6.13375033,19.9019718 6.13375033,19.4382528 5.84771527,19.1522187 Z" id="Path"></path>
                        <path d="M7.00337894,21.3436657 L4.61211999,23.7349167 C4.32608493,24.0209509 4.32608493,24.4846699 4.61211999,24.770704 C4.75513752,24.913721 4.94258863,24.985254 5.12999091,24.985254 C5.31739319,24.985254 5.50489312,24.9137698 5.64786183,24.770704 L8.03912078,22.379453 C8.32515583,22.0934189 8.32515583,21.6296999 8.03912078,21.3436657 C7.75313454,21.0576316 7.28936517,21.0576316 7.00337894,21.3436657 Z" id="Path"></path>
                    </g>
                </g>
            </g>
        </g>
    </g>
</svg>