<svg width="60" height="60" viewBox="0 0 60 60" fill="none" xmlns="http://www.w3.org/2000/svg">
<rect x="1" y="1" width="58" height="58" rx="29" fill="#FFD31A" stroke="#EA9C00" stroke-width="2"/>
<rect width="60" height="60" rx="30" fill="url(#paint0_linear_524_1436)"/>
<rect x="6.5" y="6.5" width="47" height="47" rx="23.5" stroke="#FFE98F"/>
<rect x="8" y="8" width="44" height="44" rx="22" stroke="#F1AF0A"/>
<path d="M47.25 9L45.75 12L50.25 16.5L52.5 21.75L54.75 19.5C54.75 19.5 54.75 18 51.75 14.25C48.75 10.5 47.25 9 47.25 9ZM44.25 14.25L14.25 45.75L20.25 50.25L27 52.5L50.25 24L47.25 18L44.25 14.25ZM12.75 46.5L10.5 48.75C11.6685 49.8938 14.6939 52.5 18.75 54.75L26.25 54L21.75 52.5L16.5 49.5C15.2138 49.6122 13.6041 47.2835 12.75 46.5Z" fill="url(#paint1_linear_524_1436)"/>
<path d="M30 15.15C33.8553 15.15 37.3571 16.6308 39.997 19.0409L35.964 23.0739C34.3624 21.6922 32.2819 20.85 30 20.85C24.9469 20.85 20.85 24.9469 20.85 30C20.85 35.0531 24.9469 39.15 30 39.15C33.9831 39.15 37.3615 36.6005 38.6186 33.0501L38.6895 32.85H38.4773H30.15V27.15H43.35V27.2122H43.5H44.5846C44.7561 28.1157 44.85 29.0471 44.85 30C44.85 38.2009 38.2009 44.85 30 44.85C21.7991 44.85 15.15 38.2009 15.15 30C15.15 21.7991 21.7991 15.15 30 15.15Z" fill="#FFC107" stroke="black" stroke-width="0.3"/>
<path d="M39.998 19.0409L35.9649 23.0739C34.3634 21.6922 32.2829 20.85 30.001 20.85C26.2265 20.85 22.9918 23.1369 21.5936 26.3987L16.9239 22.9741C19.4308 18.318 24.3435 15.15 30.001 15.15C33.8562 15.15 37.3581 16.6308 39.998 19.0409Z" fill="#FF3D00" stroke="black" stroke-width="0.3"/>
<path d="M39.8286 41.1088L35.4088 37.3688C33.8443 38.5262 31.9483 39.1511 30.0001 39.1495M39.8286 41.1088L30.0002 38.9995M39.8286 41.1088C37.2086 43.4287 33.774 44.8495 30.0002 44.8495C24.2736 44.8495 19.3148 41.6009 16.8372 36.8512M30.0001 39.1495L30.0002 38.9995M30.0001 39.1495C30.0002 39.1495 30.0002 39.1495 30.0002 39.1495V38.9995M30.0001 39.1495C26.1055 39.1495 22.7886 36.7114 21.4684 33.283M30.0002 38.9995C26.1542 38.9995 22.8803 36.582 21.5924 33.1874L21.4684 33.283M21.4684 33.283C21.4496 33.2343 21.4312 33.1853 21.4133 33.1361L21.538 33.04M21.4684 33.283L16.8372 36.8512M16.8372 36.8512C16.818 36.8144 16.799 36.7775 16.7801 36.7405L16.6465 36.8088L16.738 36.9276L16.8372 36.8512Z" fill="#4CAF50" stroke="black" stroke-width="0.3"/>
<path d="M40.0795 40.9056C40.0749 40.9094 40.0704 40.9131 40.066 40.9166L35.6527 37.182C37.0097 36.1124 38.0384 34.6806 38.6186 33.0503L38.6898 32.85H38.4773H30.15V27.15H43.35V27.2123H43.5H44.5846C44.7561 28.1157 44.85 29.0471 44.85 30C44.85 33.7132 43.5453 36.5353 42.2812 38.3927C41.649 39.3215 41.0274 40.0084 40.5853 40.4438C40.3642 40.6615 40.1885 40.8158 40.0795 40.9056Z" fill="#1976D2" stroke="black" stroke-width="0.3"/>
<defs>
<linearGradient id="paint0_linear_524_1436" x1="30" y1="115.714" x2="30.0001" y2="-42.8571" gradientUnits="userSpaceOnUse">
<stop stop-color="#EA9C00"/>
<stop offset="1" stop-color="#EA9C00" stop-opacity="0"/>
</linearGradient>
<linearGradient id="paint1_linear_524_1436" x1="113.941" y1="-37.0186" x2="81.5233" y2="66.3887" gradientUnits="userSpaceOnUse">
<stop stop-color="#FFE98F"/>
<stop offset="1" stop-color="#FFE98F" stop-opacity="0"/>
</linearGradient>
</defs>
</svg>
