<svg width="60" height="60" viewBox="0 0 60 60" fill="none" xmlns="http://www.w3.org/2000/svg">
<rect x="1" y="1" width="58" height="58" rx="29" fill="#FFD31A" stroke="#EA9C00" stroke-width="2"/>
<rect width="60" height="60" rx="30" fill="url(#paint0_linear_524_1449)"/>
<rect x="6.5" y="6.5" width="47" height="47" rx="23.5" stroke="#FFE98F"/>
<rect x="8" y="8" width="44" height="44" rx="22" stroke="#F1AF0A"/>
<path d="M47.25 9L45.75 12L50.25 16.5L52.5 21.75L54.75 19.5C54.75 19.5 54.75 18 51.75 14.25C48.75 10.5 47.25 9 47.25 9ZM44.25 14.25L14.25 45.75L20.25 50.25L27 52.5L50.25 24L47.25 18L44.25 14.25ZM12.75 46.5L10.5 48.75C11.6685 49.8938 14.6939 52.5 18.75 54.75L26.25 54L21.75 52.5L16.5 49.5C15.2138 49.6122 13.6041 47.2835 12.75 46.5Z" fill="url(#paint1_linear_524_1449)"/>
<path d="M35.5481 38.3132C36.4213 37.971 37.264 37.5556 38.0673 37.0712L38.2579 36.9563L38.0799 36.8227C37.8614 36.6589 37.6472 36.4894 37.4375 36.3144L37.3639 36.253L37.2772 36.294C32.2782 38.6608 26.7828 38.6611 21.7221 36.2937L21.6352 36.2531L21.5618 36.3149C21.3535 36.4907 21.1396 36.6599 20.9207 36.8222L20.7407 36.9556L20.9326 37.0712C21.7345 37.5543 22.5756 37.9689 23.447 38.3106C23.0015 39.1853 22.4901 40.0249 21.9172 40.8221C19.4245 40.0346 16.8897 38.8408 14.2748 36.8973C13.7447 31.0809 14.8367 25.184 18.8296 19.1329C20.808 18.2087 22.8988 17.5475 25.0486 17.1662C25.3125 17.6481 25.6127 18.2641 25.8187 18.7587L25.8638 18.8671L25.9799 18.8494C28.3054 18.4931 30.6529 18.493 33.0228 18.8494L33.1386 18.8668L33.1836 18.7588C33.3899 18.2634 33.6838 17.6477 33.9444 17.1663C36.0922 17.5474 38.1812 18.207 40.1586 19.1283C43.6227 24.3164 45.3464 30.1603 44.7251 36.8973C42.1101 38.8433 39.5729 40.0372 37.0777 40.8246C36.5065 40.0317 35.9959 39.1915 35.5481 38.3132ZM21.4134 30.1906C21.4134 31.9955 22.7187 33.5112 24.3504 33.5112C26.0093 33.5112 27.2893 31.9954 27.2873 30.1916C27.3145 28.3816 26.0076 26.8675 24.3504 26.8675C22.6909 26.8675 21.4134 28.3867 21.4134 30.1906ZM31.7126 30.1906C31.7126 31.9955 33.0178 33.5112 34.6495 33.5112C36.3086 33.5112 37.5859 31.9952 37.5865 30.1917C37.6137 28.3817 36.3068 26.8675 34.6495 26.8675C32.99 26.8675 31.7126 28.3867 31.7126 30.1906Z" fill="#5865F2" stroke="black" stroke-width="0.3"/>
<defs>
<linearGradient id="paint0_linear_524_1449" x1="30" y1="115.714" x2="30.0001" y2="-42.8571" gradientUnits="userSpaceOnUse">
<stop stop-color="#EA9C00"/>
<stop offset="1" stop-color="#EA9C00" stop-opacity="0"/>
</linearGradient>
<linearGradient id="paint1_linear_524_1449" x1="113.941" y1="-37.0186" x2="81.5233" y2="66.3887" gradientUnits="userSpaceOnUse">
<stop stop-color="#FFE98F"/>
<stop offset="1" stop-color="#FFE98F" stop-opacity="0"/>
</linearGradient>
</defs>
</svg>
