<svg width="60" height="60" viewBox="0 0 60 60" fill="none" xmlns="http://www.w3.org/2000/svg">
<rect x="1" y="1" width="58" height="58" rx="29" fill="#FFD31A" stroke="#EA9C00" stroke-width="2"/>
<rect width="60" height="60" rx="30" fill="url(#paint0_linear_524_1460)"/>
<rect x="6.5" y="6.5" width="47" height="47" rx="23.5" stroke="#FFE98F"/>
<rect x="8" y="8" width="44" height="44" rx="22" stroke="#F1AF0A"/>
<path d="M47.25 9L45.75 12L50.25 16.5L52.5 21.75L54.75 19.5C54.75 19.5 54.75 18 51.75 14.25C48.75 10.5 47.25 9 47.25 9ZM44.25 14.25L14.25 45.75L20.25 50.25L27 52.5L50.25 24L47.25 18L44.25 14.25ZM12.75 46.5L10.5 48.75C11.6685 49.8938 14.6939 52.5 18.75 54.75L26.25 54L21.75 52.5L16.5 49.5C15.2138 49.6122 13.6041 47.2835 12.75 46.5Z" fill="url(#paint1_linear_524_1460)"/>
<path d="M24.1484 38.7375V38.5875H23.9984H18.15V21.3752L19.7405 17.15H41.85V32.1562L35.3917 38.5875H30.5449H30.4829L30.439 38.6313L27.2112 41.85H24.1484V38.7375ZM21.8172 19.0226H21.6672V19.1726V34.9343V35.0843H21.8172H26.5793V38.1923V38.5535L26.8352 38.2986L30.062 35.0842H35.9992H36.0611L36.105 35.0405L39.9243 31.2356L39.9684 31.1916V31.1294V19.1726V19.0226H39.8184H21.8172ZM29.85 23.6728V29.8938H27.968V23.6728H29.85ZM35.8493 23.6728V29.8938H33.9677V23.6728H35.8493Z" fill="#5A3E85" stroke="black" stroke-width="0.3"/>
<defs>
<linearGradient id="paint0_linear_524_1460" x1="30" y1="115.714" x2="30.0001" y2="-42.8571" gradientUnits="userSpaceOnUse">
<stop stop-color="#EA9C00"/>
<stop offset="1" stop-color="#EA9C00" stop-opacity="0"/>
</linearGradient>
<linearGradient id="paint1_linear_524_1460" x1="113.941" y1="-37.0186" x2="81.5233" y2="66.3887" gradientUnits="userSpaceOnUse">
<stop stop-color="#FFE98F"/>
<stop offset="1" stop-color="#FFE98F" stop-opacity="0"/>
</linearGradient>
</defs>
</svg>
