<svg width="17" height="16" xmlns="http://www.w3.org/2000/svg">
    <path d="M3.805 16a.913.913 0 0 1-.53-.17.88.88 0 0 1-.35-.915l1.093-4.732L.31 6.99a.876.876 0 0 1-.265-.943.9.9 0 0 1 .777-.61l4.908-.438L7.669.54A.904.904 0 0 1 8.5 0c.363 0 .689.212.832.538l1.94 4.46 4.907.438a.9.9 0 0 1 .778.61.876.876 0 0 1-.265.943l-3.709 3.194 1.094 4.73a.879.879 0 0 1-.351.917.915.915 0 0 1-.993.043L8.5 13.389l-4.232 2.485a.918.918 0 0 1-.463.126zM8.5 12.32c.16 0 .32.042.463.125l3.994 2.346-1.032-4.466a.878.878 0 0 1 .286-.864l3.502-3.017-4.633-.413a.901.901 0 0 1-.751-.538l-1.83-4.208-1.83 4.209a.899.899 0 0 1-.749.536l-4.634.413 3.502 3.016c.251.216.36.547.286.866L4.043 14.79l3.994-2.345a.918.918 0 0 1 .463-.126z" fill="#000" fill-rule="nonzero"/>
</svg>
