<?xml version="1.0" encoding="UTF-8"?>
<svg width="25px" height="23px" viewBox="0 0 25 23" version="1.1" xmlns="http://www.w3.org/2000/svg" xmlns:xlink="http://www.w3.org/1999/xlink">
    <title>Group 35</title>
    <g id="⚙️-00-Settings" stroke="none" stroke-width="1" fill="none" fill-rule="evenodd">
        <g id="wallfair-mobile-settings-menu-01" transform="translate(-62.000000, -766.000000)">
            <g id="Group-25" transform="translate(32.000000, 736.000000)">
                <g id="Group-35" transform="translate(31.000000, 31.000000)">
                    <path d="M3,1 L20,1 C21.1045695,1 22,1.8954305 22,3 L22,14 C22,15.1045695 21.1045695,16 20,16 L9.81968965,16 L9.81968965,16 L5.87959018,19.5 L5.6206727,16 L3,16 C1.8954305,16 1,15.1045695 1,14 L1,3 C1,1.8954305 1.8954305,1 3,1 Z" id="Rectangle" fill="#FFFFFF"></path>
                    <path d="M5.11111111,6.36827726 L17.8888889,6.36827726 M5.11111111,10.1892436 L12.7777778,10.1892436 M3.19444444,0 L19.8055556,0 C21.5697833,0 23,1.42558981 23,3.18413863 L23,13.3733823 C23,15.1319183 21.5697833,16.5575209 19.8055556,16.5575209 L10.2222222,16.5575209 L5.13229667,20.996847 C5.12404222,21.0039794 5.11111111,20.998248 5.11111111,20.9872945 L5.11111111,16.5575209 L3.19444444,16.5575209 C1.43020389,16.5575209 0,15.1319183 0,13.3733823 L0,3.18413863 C0,1.42558981 1.43020389,0 3.19444444,0 Z" id="Shape" stroke="#120E27" stroke-width="1.95" stroke-linecap="round"></path>
                </g>
            </g>
        </g>
    </g>
</svg>