<svg width="25" height="23" xmlns="http://www.w3.org/2000/svg"><g fill="none" fill-rule="evenodd"><path d="M4 2h17a2 2 0 012 2v11a2 2 0 01-2 2H10.82l-3.94 3.5-.26-3.5H4a2 2 0 01-2-2V4a2 2 0 012-2z" fill="#FFF"/><path d="M6.111 7.368H18.89M6.11 11.19h7.667M4.194 1h16.612A3.19 3.19 0 0124 4.184v10.19a3.19 3.19 0 01-3.194 3.184h-9.584l-5.09 4.439a.013.013 0 01-.02-.01v-4.43H4.193A3.19 3.19 0 011 14.374V4.184A3.19 3.19 0 014.194 1z" stroke="#120E27" stroke-width="1.95" stroke-linecap="round"/></g></svg>