<svg width="13" height="14" viewBox="0 0 13 14" fill="none" xmlns="http://www.w3.org/2000/svg">
<g clip-path="url(#clip0)">
<path d="M3.08502 5.82649H1.22637C1.0566 5.82691 0.893931 5.89466 0.774049 6.01487C0.654167 6.13508 0.586867 6.29794 0.586914 6.46771V12.5074C0.586867 12.6772 0.654167 12.8401 0.774049 12.9603C0.893931 13.0805 1.0566 13.1482 1.22637 13.1487H3.08502C3.25497 13.1483 3.41785 13.0806 3.53802 12.9604C3.65819 12.8403 3.72587 12.6774 3.72624 12.5074V6.46771C3.72587 6.29776 3.65819 6.13488 3.53802 6.01471C3.41785 5.89454 3.25497 5.82686 3.08502 5.82649Z" fill="#1F1D38"/>
<path d="M12.1371 7.92932C12.1371 7.63949 12.0221 7.36151 11.8174 7.15634C11.8 7.13743 11.7812 7.11981 11.7612 7.10364C11.9879 7.00757 12.1745 6.83614 12.2893 6.61836C12.4042 6.40057 12.4403 6.14979 12.3915 5.90846C12.3427 5.66712 12.2121 5.45003 12.0217 5.29392C11.8313 5.13781 11.5928 5.05226 11.3466 5.05175H7.53445C7.55553 5.01486 7.57485 4.98148 7.59242 4.9481C7.70212 4.77101 7.78945 4.581 7.85242 4.38243C7.93646 4.10716 7.98776 3.82295 8.00526 3.53567C8.02959 3.12062 7.97063 2.7049 7.83184 2.31298C7.69306 1.92107 7.47726 1.56088 7.19715 1.25364C7.09162 1.13378 6.96305 1.03638 6.81908 0.967265C6.67511 0.898149 6.5187 0.858726 6.35918 0.851345C6.14126 0.842978 5.92822 0.917248 5.76273 1.05928C5.59724 1.20131 5.49152 1.40062 5.46674 1.61729C5.46529 1.6254 5.4647 1.63365 5.46499 1.64189V3.1808L4.44607 5.76324C4.36263 5.97326 4.23708 6.16397 4.07715 6.32364V12.2755C4.32866 12.3448 4.58456 12.397 4.84309 12.4319C4.93918 12.4447 5.03602 12.4512 5.13296 12.4512H10.2996C10.5549 12.4509 10.7998 12.3499 10.9812 12.1701C11.0705 12.0809 11.1412 11.9749 11.1895 11.8582C11.2377 11.7415 11.2624 11.6165 11.2623 11.4903C11.2629 11.2573 11.1779 11.0322 11.0234 10.8578C11.2269 10.8151 11.4141 10.7157 11.5636 10.5711C11.7131 10.4266 11.8187 10.2427 11.8683 10.0408C11.9178 9.83884 11.9093 9.627 11.8438 9.42967C11.7782 9.23233 11.6582 9.05753 11.4977 8.9254C11.6884 8.83789 11.8499 8.69754 11.9633 8.52099C12.0766 8.34445 12.137 8.13911 12.1371 7.92932Z" fill="#1F1D38"/>
</g>
<defs>
<clipPath id="clip0">
<rect width="13" height="13" fill="white" transform="translate(0 0.5)"/>
</clipPath>
</defs>
</svg>
