<svg width="80" height="81" viewBox="0 0 80 81" fill="none" xmlns="http://www.w3.org/2000/svg">
<rect x="1" y="1.3335" width="78" height="78" rx="39" fill="#FFD31A" stroke="#EA9C00" stroke-width="2"/>
<rect y="0.333496" width="80" height="80" rx="40" fill="url(#paint0_linear_199_6290)"/>
<rect x="8.5" y="8.8335" width="63" height="63" rx="31.5" stroke="#FFE98F"/>
<rect x="10.5" y="10.8335" width="59" height="59" rx="29.5" stroke="#F1AF0A"/>
<path d="M59.961 32.3237C59.4527 32.3238 58.9497 32.4257 58.4815 32.6235C58.0133 32.8212 57.5896 33.1109 57.2352 33.4752L56.6738 34.0538L56.1066 33.4752C55.7522 33.1109 55.3284 32.8214 54.8603 32.6237C54.3921 32.426 53.889 32.3241 53.3808 32.3241C52.8726 32.3241 52.3696 32.426 51.9014 32.6237C51.4332 32.8214 51.0095 33.1109 50.6551 33.4752C49.9324 34.2213 49.5283 35.2193 49.5283 36.2581C49.5283 37.2968 49.9324 38.2949 50.6551 39.041L56.6738 45.1811L62.6867 39.041C63.4094 38.2949 63.8135 37.2968 63.8135 36.2581C63.8135 35.2193 63.4094 34.2213 62.6867 33.4752C62.3324 33.1109 61.9086 32.8212 61.4404 32.6235C60.9723 32.4257 60.4692 32.3238 59.961 32.3237Z" fill="white"/>
<path d="M23.8145 58.0382H26.6717V50.8952C26.6739 49.0015 27.4272 47.1859 28.7663 45.8469C30.1054 44.5078 31.9209 43.7545 33.8147 43.7522H42.3863C44.28 43.7545 46.0956 44.5078 47.4346 45.8469C48.7737 47.1859 49.527 49.0015 49.5293 50.8952V58.0382H52.3865V50.8952C52.3835 48.2439 51.3289 45.7021 49.4541 43.8274C47.5794 41.9526 45.0376 40.898 42.3863 40.895H33.8147C31.1634 40.898 28.6215 41.9526 26.7468 43.8274C24.872 45.7021 23.8175 48.2439 23.8145 50.8952V58.0382Z" fill="white"/>
<path d="M38.1028 20.8943C39.5155 20.8943 40.8965 21.3132 42.0712 22.0981C43.2459 22.883 44.1614 23.9986 44.702 25.3038C45.2427 26.609 45.3841 28.0452 45.1085 29.4308C44.8329 30.8165 44.1526 32.0892 43.1536 33.0882C42.1547 34.0872 40.8819 34.7675 39.4963 35.0431C38.1107 35.3187 36.6745 35.1772 35.3692 34.6366C34.064 34.096 32.9484 33.1804 32.1636 32.0058C31.3787 30.8311 30.9597 29.4501 30.9597 28.0373C30.9597 26.1429 31.7123 24.326 33.0519 22.9865C34.3915 21.6469 36.2083 20.8943 38.1028 20.8943ZM38.1028 18.0371C36.1249 18.0371 34.1915 18.6236 32.5469 19.7224C30.9024 20.8213 29.6207 22.3831 28.8638 24.2104C28.1069 26.0377 27.9088 28.0484 28.2947 29.9883C28.6806 31.9281 29.633 33.71 31.0315 35.1085C32.4301 36.5071 34.212 37.4595 36.1518 37.8454C38.0917 38.2312 40.1024 38.0332 41.9297 37.2763C43.757 36.5194 45.3188 35.2377 46.4176 33.5931C47.5165 31.9486 48.103 30.0152 48.103 28.0373C48.103 25.3851 47.0494 22.8415 45.174 20.9661C43.2986 19.0907 40.755 18.0371 38.1028 18.0371Z" fill="white"/>
<path d="M63 12.3335L61 16.3335L67 22.3335L70 29.3335L73 26.3335C73 26.3335 73 24.3335 69 19.3335C65 14.3335 63 12.3335 63 12.3335ZM59 19.3335L19 61.3335L27 67.3335L36 70.3335L67 32.3335L63 24.3335L59 19.3335ZM17 62.3335L14 65.3335C15.558 66.8586 19.5919 70.3335 25 73.3335L35 72.3335L29 70.3335L22 66.3335C20.2851 66.483 18.1387 63.3781 17 62.3335Z" fill="url(#paint1_linear_199_6290)"/>
<defs>
<linearGradient id="paint0_linear_199_6290" x1="40" y1="154.619" x2="40.0001" y2="-56.8094" gradientUnits="userSpaceOnUse">
<stop stop-color="#EA9C00"/>
<stop offset="1" stop-color="#EA9C00" stop-opacity="0"/>
</linearGradient>
<linearGradient id="paint1_linear_199_6290" x1="151.921" y1="-49.0247" x2="108.698" y2="88.8517" gradientUnits="userSpaceOnUse">
<stop stop-color="#FFE98F"/>
<stop offset="1" stop-color="#FFE98F" stop-opacity="0"/>
</linearGradient>
</defs>
</svg>
