<svg width="35" height="45" viewBox="0 0 35 45" fill="none" xmlns="http://www.w3.org/2000/svg">
<path d="M6.40274 19.3109C6.47306 19.954 6.60726 20.5741 6.79213 21.1741C8.14144 25.5606 12.3541 28.7561 17.3221 28.7561C22.287 28.7561 26.5001 25.5594 27.8488 21.1731C28.0339 20.5737 28.1679 19.9532 28.2408 19.3118L28.2411 19.3086C28.2807 18.9392 28.306 18.5603 28.306 18.1735C28.306 17.6263 28.2495 17.1 28.1701 16.5924L28.17 16.5914C28.0845 16.0518 27.9523 15.532 27.79 15.0295L27.6795 14.6874L27.3201 14.6832C27.2197 14.6821 27.1152 14.678 27.0027 14.6702C24.9217 14.5162 20.9871 13.7643 17.5405 13.042C15.8238 12.6823 14.239 12.3322 13.0833 12.072C12.5055 11.942 12.0352 11.8344 11.7093 11.7594C11.5464 11.7219 11.4197 11.6925 11.3337 11.6726L11.2359 11.6498L11.2111 11.644L11.2049 11.6425L11.2033 11.6422L11.203 11.6421C11.2029 11.6421 11.2029 11.6421 11.0888 12.1289L11.2029 11.6421L10.8374 11.5565L10.6532 11.8834C10.3383 12.4423 9.7463 13.1115 9.02912 13.7829C8.31938 14.4474 7.51735 15.0862 6.81394 15.5852L6.65825 15.6956L6.61576 15.8817L6.61407 15.8891C6.56412 16.1079 6.5098 16.3458 6.47155 16.5912M6.40274 19.3109C6.36023 18.9388 6.33566 18.5595 6.33566 18.1735C6.33566 17.6263 6.39217 17.0995 6.47155 16.5912M6.40274 19.3109C6.40269 19.3105 6.40265 19.3101 6.4026 19.3097L6.89964 19.2554M6.40274 19.3109C6.40278 19.3113 6.40283 19.3118 6.40288 19.3122L6.89964 19.2554M6.47155 16.5912L6.96556 16.6683M6.47155 16.5912C6.47154 16.5912 6.47153 16.5913 6.47152 16.5914L6.96556 16.6683M6.96556 16.6683C7.00111 16.4402 7.05216 16.2166 7.10322 15.993L6.89964 19.2554M6.96556 16.6683C6.88866 17.1608 6.83566 17.6604 6.83566 18.1735C6.83566 18.5387 6.85893 18.8993 6.89964 19.2554M10.7204 28.9151C10.7204 28.9151 10.7205 28.9151 10.7205 28.9151H11.1336C11.2395 32.2411 13.9691 34.9041 17.3202 34.9041C20.6714 34.9041 23.4009 32.2417 23.5074 28.9151H23.9206C29.574 28.9151 34.1404 33.4101 34.1404 38.9325V43.5368H0.5V38.9325C0.5 33.4102 5.06632 28.9157 10.7204 28.9151ZM11.8622 28.149L11.536 27.9832L11.5377 27.9765C8.85223 26.5062 6.82878 24.0568 5.99878 21.1426L5.89539 20.7795H5.51791H5.34147C3.94468 20.7795 2.84081 19.6901 2.84081 18.3932V17.4626C2.84081 16.3155 3.71176 15.348 4.89747 15.1427L5.35478 15.0635L5.30982 14.6016C5.27897 14.2846 5.26842 13.9613 5.27397 13.6295L5.27414 13.6191L5.27389 13.6088C5.27231 13.545 5.27031 13.5108 5.26868 13.4827C5.26696 13.4531 5.26564 13.4304 5.26564 13.3872C5.26564 8.44691 8.55824 4.27773 13.0678 2.94594L13.1743 2.91448L13.2575 2.84086C13.4218 2.69551 13.5594 2.57654 13.6764 2.48948L13.6764 2.48949L13.6785 2.48789C13.9218 2.30489 14.4924 2.0404 15.1042 1.80694C15.3992 1.69435 15.686 1.59564 15.9208 1.52396C16.0384 1.48807 16.1396 1.45998 16.2202 1.44046C16.2605 1.43071 16.2933 1.42367 16.3188 1.41892C16.3281 1.41721 16.3359 1.4159 16.3422 1.41491C16.4083 1.42086 16.5334 1.46056 16.745 1.61113C16.9708 1.77183 17.2376 2.01653 17.5678 2.34768L17.7143 2.49464H17.9219H17.96H18.1622L18.3076 2.35406C18.3375 2.32515 18.3595 2.30415 18.3811 2.28539C18.3959 2.27264 18.4077 2.26336 18.4172 2.25657L18.4249 2.26497L18.4564 2.2899L18.5954 2.39977L18.7263 2.50331L18.8932 2.50741C21.5327 2.5723 23.9355 3.57171 25.7881 5.192C26.4832 5.80028 27.1046 6.48767 27.6252 7.24846C28.6319 8.72229 29.286 10.456 29.4659 12.3277V12.3352L29.4694 12.3649C29.5069 12.6768 29.5162 12.9701 29.515 13.2642L29.515 13.276L29.5155 13.2877L29.5202 13.3977C29.5196 13.7971 29.4893 14.193 29.4433 14.5928L29.3912 15.0454L29.837 15.1393C30.9727 15.3785 31.8002 16.3394 31.8002 17.4626V18.3932C31.8002 19.6907 30.6964 20.7795 29.2996 20.7795H29.1231H28.7458L28.6423 21.1424C27.8116 24.0562 25.7887 26.5063 23.104 27.9765L23.106 27.9846L22.7792 28.1498C22.5544 28.2635 22.3313 28.3721 22.1074 28.4692C20.6455 29.0999 19.0268 29.4519 17.3215 29.4519C15.6145 29.4519 13.9956 29.0987 12.5333 28.469C12.3094 28.3725 12.089 28.2643 11.8622 28.149ZM29.7488 15.848L29.2692 15.7223L29.1395 16.2008C29.1005 16.3445 29.0559 16.4837 29.0067 16.6371L28.994 16.6767L28.9602 16.7824L28.9742 16.8924C29.0291 17.3238 29.0684 17.7471 29.0684 18.1742C29.0684 18.6199 29.0342 19.0615 28.9798 19.5031L28.9002 20.1487L29.5445 20.0596C30.3666 19.9458 31.0365 19.2646 31.0365 18.3939V17.4633C31.0365 16.6622 30.4637 16.0353 29.7488 15.848ZM5.63782 16.2946L5.62797 15.7181L5.05862 15.8095C4.2584 15.938 3.60514 16.605 3.60514 17.4633V18.3939C3.60514 19.2636 4.27475 19.9457 5.09643 20.0596L5.74179 20.149L5.6612 19.5025C5.60621 19.0613 5.57197 18.6205 5.57197 18.1742C5.57197 17.7957 5.60331 17.4216 5.65137 17.0428L5.65615 17.0051L5.65518 16.9671C5.6531 16.8857 5.65083 16.8068 5.6486 16.7291C5.6444 16.5831 5.64033 16.4411 5.63782 16.2946Z" stroke="#0E0927"/>
<path d="M12.3354 28.9288C12.391 30.2233 12.9294 31.3905 13.787 32.2475C14.6924 33.1535 15.9384 33.7113 17.3202 33.7113C18.7013 33.7113 19.9479 33.1529 20.854 32.2475C21.7116 31.3905 22.25 30.2233 22.3056 28.9288C20.7823 29.5861 19.0961 29.9525 17.3215 29.9525C15.5449 29.9525 13.8581 29.5848 12.3354 28.9288Z" fill="white"/>
<path d="M15.7691 16.5436C15.6896 16.4467 15.5714 16.3911 15.4466 16.3911H8.02029C7.8891 16.3911 7.76759 16.4512 7.68681 16.5552C7.60861 16.6593 7.58276 16.7931 7.61766 16.9191L8.58966 20.3896C8.64071 20.5705 8.80422 20.6933 8.991 20.6933H14.7519C14.9503 20.6933 15.1203 20.5537 15.1603 20.3586L15.5578 18.3674C15.6476 18.242 15.8254 18.105 16.0987 18.001C16.4361 17.8685 16.8872 17.7929 17.3351 17.7941C17.7784 17.7929 18.2211 17.8672 18.5514 17.9977C18.8196 18.1018 18.9921 18.2362 19.08 18.3629L19.4807 20.3586C19.5182 20.5537 19.6894 20.6933 19.8885 20.6933H25.6494C25.8368 20.6933 25.9997 20.5705 26.0501 20.3896L27.0215 16.9191C27.0564 16.7924 27.0305 16.6593 26.9523 16.5552C26.8735 16.4512 26.7513 16.3911 26.6208 16.3911H19.1944C19.0697 16.3911 18.9514 16.4467 18.8719 16.5436C18.7931 16.6405 18.7608 16.7659 18.7853 16.8887L18.8467 17.1931C18.3872 17.0167 17.8624 16.9365 17.3351 16.9352C16.7974 16.9365 16.2603 17.0193 15.7931 17.1989L15.8551 16.8887C15.879 16.7653 15.848 16.6399 15.7691 16.5436ZM14.7797 18.0139C14.7558 18.0565 14.7254 18.094 14.706 18.1412L14.7519 18.1586L14.4107 19.8603H9.30638L8.56833 17.2222H14.938L14.7797 18.0139ZM26.0721 17.2228L25.3334 19.8609H20.2304L19.8891 18.1606L19.9357 18.1431C19.9163 18.0934 19.8846 18.0546 19.8601 18.0094L19.703 17.2228H26.0721Z" fill="#E82E89"/>
</svg>
