<svg width="47" height="46" viewBox="0 0 47 46" fill="none" xmlns="http://www.w3.org/2000/svg">
<path d="M23.5 45C35.9264 45 46 35.1503 46 23C46 10.8497 35.9264 1 23.5 1C11.0736 1 1 10.8497 1 23C1 35.1503 11.0736 45 23.5 45Z" fill="white" stroke="#1E1E1C" stroke-miterlimit="10"/>
<path d="M23.5376 40.0554C33.1841 40.0554 41.0042 32.4091 41.0042 22.977C41.0042 13.5448 33.1841 5.89856 23.5376 5.89856C13.8911 5.89856 6.07108 13.5448 6.07108 22.977C6.07108 32.4091 13.8911 40.0554 23.5376 40.0554Z" fill="white"/>
<path d="M10.3895 34.3427C7.65639 31.3207 5.99582 27.3512 5.99582 23C5.99582 13.5478 13.833 5.8848 23.5 5.8848C28.1995 5.8848 32.4661 7.69705 35.6132 10.6454" stroke="#020203" stroke-miterlimit="10"/>
<path d="M36.6669 34.2783C33.4587 37.8568 28.7498 40.1152 23.5 40.1152C19.6567 40.1152 16.1004 38.9009 13.212 36.8494" stroke="#1E1E1C" stroke-miterlimit="10"/>
<path d="M38.7791 14.6425C40.195 17.1125 41.0041 19.9642 41.0041 23C41.0041 26.2381 40.0868 29.2647 38.4874 31.845" stroke="#020203" stroke-miterlimit="10"/>
<path d="M34.9358 30.9849C36.5024 30.9849 37.7724 29.7432 37.7724 28.2114C37.7724 26.6796 36.5024 25.4378 34.9358 25.4378C33.3692 25.4378 32.0992 26.6796 32.0992 28.2114C32.0992 29.7432 33.3692 30.9849 34.9358 30.9849Z" fill="#F2FF54"/>
<path d="M10.079 15.4842H13.0662C13.1697 15.498 13.2355 15.567 13.259 15.636L16.3497 27.5352C16.3732 27.5858 16.4296 27.5674 16.439 27.5352L20.0424 15.567C20.0613 15.5164 20.1083 15.4842 20.1647 15.4842L23.4953 15.4796C23.5517 15.4796 23.5988 15.5118 23.6176 15.5624L27.1645 27.5352C27.1833 27.5766 27.2351 27.5674 27.2492 27.5352L30.3257 15.567C30.3445 15.5164 30.3916 15.4796 30.448 15.4796H33.6422C33.7315 15.4796 33.7927 15.567 33.7645 15.6452L29.0697 30.6814C29.0509 30.732 28.9568 30.7826 28.9004 30.7826H25.3864C25.344 30.7872 25.2217 30.7136 25.1982 30.663L21.8488 20.1482C21.8112 20.0332 21.6466 20.0332 21.6042 20.1482L18.2219 30.686C18.2031 30.7366 18.1137 30.7826 18.0573 30.7826H14.5574C14.5009 30.7826 14.4021 30.7228 14.3833 30.6722L9.87675 15.7326C9.84852 15.6498 9.92379 15.4842 10.079 15.4842Z" fill="#020203" stroke="#020203" stroke-miterlimit="10"/>
</svg>
