<?xml version="1.0" encoding="UTF-8"?>
<svg width="16px" height="15px" viewBox="0 0 16 15" version="1.1" xmlns="http://www.w3.org/2000/svg" xmlns:xlink="http://www.w3.org/1999/xlink">
    <title>Group 48</title>
    <g id="Screens-+-UI-Kit" stroke="none" stroke-width="1" fill="none" fill-rule="evenodd">
        <g id="Group-49-Copy" transform="translate(-23.894491, -8.100453)">
            <g id="Group-48" transform="translate(23.894491, 8.100453)">
                <g id="Group-47" transform="translate(1.000000, 1.000000)" fill="#FFFFFF">
                    <rect id="Rectangle" x="0" y="0" width="12" height="13" rx="1"></rect>
                    <rect id="Rectangle-Copy-4" x="1" y="2" width="12" height="11" rx="1"></rect>
                    <rect id="Rectangle-Copy-4" x="3" y="6.5" width="12" height="3" rx="1"></rect>
                </g>
                <path d="M15.3846154,6.6 L11.0769231,6.6 C9.71745292,6.6 8.61538462,7.6745166 8.61538462,9 C8.61538462,10.3254834 9.71745292,11.4 11.0769231,11.4 L13.5384615,11.4 L13.5384615,13.2 C13.5380208,13.5311927 13.2627617,13.7995703 12.9230769,13.8 L3.07692308,13.8 C2.05743305,13.799735 1.23104099,12.9940028 1.23076923,12 L1.23076923,3 C1.23104099,2.00599722 2.05743305,1.20026496 3.07692308,1.2 L11.6923077,1.2 C12.0321752,1.2 12.3076923,1.46862915 12.3076923,1.8 L12.3076923,2.4 L3.07692308,2.4 C2.73705554,2.4 2.46153846,2.66862915 2.46153846,3 C2.46153846,3.33137085 2.73705554,3.6 3.07692308,3.6 L12.9230769,3.6 C13.2627617,3.60042971 13.5380208,3.86880731 13.5384615,4.2 L13.5384615,4.8126 C13.5384615,5.14397085 13.8139786,5.4126 14.1538462,5.4126 C14.4937137,5.4126 14.7692308,5.14397085 14.7692308,4.8126 L14.7692308,4.2 C14.8260144,3.42065185 14.310994,2.71046843 13.5384615,2.50284 L13.5384615,1.8 C13.5381898,0.805997222 12.7117977,0.000264961437 11.6923077,0 L3.07692308,0 C1.37776834,0.000430567826 0.000441608027,1.34332413 0,3 L0,12 C0.000441608027,13.6566759 1.37776834,14.9995694 3.07692308,15 L12.9230769,15 C13.9422156,14.9989088 14.7681116,14.1936602 14.7692308,13.2 L14.7692308,11.4 L15.3846154,11.4 C15.7244829,11.4 16,11.1313708 16,10.8 L16,7.2 C16,6.86862915 15.7244829,6.6 15.3846154,6.6 Z M14.7692308,10.2 L11.0769231,10.2 C10.397188,10.2 9.84615385,9.6627417 9.84615385,9 C9.84615385,8.3372583 10.397188,7.8 11.0769231,7.8 L14.7692308,7.8 L14.7692308,10.2 Z" id="Shape" fill="#0E0927" fill-rule="nonzero"></path>
            </g>
        </g>
    </g>
</svg>