<svg width="26" height="24" viewBox="0 0 16 14" fill="none" xmlns="http://www.w3.org/2000/svg">
<path d="M15.0121 3.02295C14.9453 2.95554 14.8657 2.90208 14.7781 2.86568C14.6904 2.82929 14.5964 2.81069 14.5015 2.81095H13.9918V1.60968C13.9916 1.41859 13.9156 1.23538 13.7805 1.10026C13.6454 0.965137 13.4622 0.889131 13.2711 0.888916H2.89889C2.33635 0.888924 1.79686 1.11239 1.39908 1.51017C1.00131 1.90794 0.77784 2.44744 0.777832 3.00997V11.2611C0.77784 11.8236 1.00131 12.3631 1.39908 12.7609C1.79686 13.1587 2.33635 13.3821 2.89889 13.3821H14.4731C14.6638 13.3818 14.8466 13.306 14.9816 13.1714C15.1166 13.0369 15.1929 12.8543 15.1939 12.6637L15.2223 3.53418C15.2229 3.43929 15.2046 3.34522 15.1685 3.25746C15.1324 3.16969 15.0792 3.08998 15.0121 3.02295ZM14.2337 12.4211H2.89889C2.59123 12.4211 2.29617 12.2989 2.07862 12.0814C1.86107 11.8638 1.73885 11.5688 1.73885 11.2611V3.00997C1.73885 2.70231 1.86107 2.40725 2.07862 2.1897C2.29617 1.97215 2.59123 1.84993 2.89889 1.84993H13.0308V2.81095H2.94012V3.77197H14.2605L14.2337 12.4211Z" fill="#FFD401"/>
</svg>
