<svg width="18" height="21" xmlns="http://www.w3.org/2000/svg"><path d="M1.183 4.32l.617.46-.617-.46zm2.366-3.142L2.93.718l.618.46zm10.902 0l-.617.461.617-.461zm2.366 3.142l.617-.461-.617.46zm-3.96 4.643a.77.77 0 00-.771-.768.77.77 0 00-.772.768h1.543zm-6.171 0a.77.77 0 00-.772-.768.77.77 0 00-.771.768h1.543zm9.771-3.414v12.634H18V5.549h-1.543zm-1.286 13.914H2.83V21H15.17v-1.537zm-13.628-1.28V5.549H0v12.634h1.543zM1.8 4.78L4.166 1.64 2.93.717.566 3.86 1.8 4.78zm2.571-3.243h9.258V0H4.37v1.537zm9.463.102L16.2 4.78l1.234-.921L15.07.717l-1.235.922zm-.205-.102c.08 0 .157.038.205.102L15.07.717A1.803 1.803 0 0013.629 0v1.537zm-9.463.102a.257.257 0 01.205-.102V0c-.566 0-1.1.266-1.44.717l1.235.922zM2.829 19.463c-.71 0-1.286-.573-1.286-1.28H0A2.823 2.823 0 002.829 21v-1.537zm13.628-1.28c0 .707-.575 1.28-1.286 1.28V21A2.823 2.823 0 0018 18.183h-1.543zM18 5.549a2.81 2.81 0 00-.566-1.69L16.2 4.78c.167.221.257.49.257.768H18zm-16.457 0c0-.277.09-.547.257-.768L.566 3.859A2.81 2.81 0 000 5.549h1.543zm-.654.085h16.222V4.098H.889v1.536zm10.425 3.33A2.31 2.31 0 019 11.267v1.537a3.85 3.85 0 003.857-3.842h-1.543zM9 11.267a2.31 2.31 0 01-2.314-2.305H5.143A3.85 3.85 0 009 12.805v-1.537z" fill="#FFF" fill-rule="nonzero"/></svg>