<svg width="20" height="23" xmlns="http://www.w3.org/2000/svg"><g fill="none" fill-rule="evenodd"><path fill="#FFF" d="M1 5.544h18v15.07l-1.629 1.545H2.63l-1.543-1.545z"/><path d="M1.314 4.73L2 5.237l-.686-.505zm2.629-3.44L3.257.785l.686.505zm12.114 0l-.686.505.686-.505zm2.629 3.44l.685-.504-.685.505zm-4.4 5.087a.85.85 0 00-.857-.841.85.85 0 00-.858.841h1.715zm-6.857 0a.85.85 0 00-.858-.841.85.85 0 00-.857.841H7.43zm10.857-3.74v13.838H20V6.077h-1.714zm-1.429 15.24H3.143V23h13.714v-1.683zM1.714 19.915V6.077H0v13.838h1.714zM2 5.235l2.629-3.44L3.257.785.63 4.226 2 5.236zm2.857-3.552h10.286V0H4.857v1.683zm10.514.112L18 5.235l1.371-1.009-2.628-3.44-1.372 1.01zm-.228-.112c.09 0 .174.041.228.112l1.372-1.01a2.013 2.013 0 00-1.6-.785v1.683zm-10.514.112a.288.288 0 01.228-.112V0c-.63 0-1.222.291-1.6.785l1.372 1.01zM3.143 21.317c-.79 0-1.429-.628-1.429-1.402H0C0 21.619 1.407 23 3.143 23v-1.683zm15.143-1.402c0 .774-.64 1.402-1.429 1.402V23C18.593 23 20 21.619 20 19.915h-1.714zM20 6.077c0-.667-.22-1.317-.629-1.85L18 5.235c.185.243.286.538.286.841H20zm-18.286 0c0-.303.1-.598.286-.841L.629 4.226A3.048 3.048 0 000 6.077h1.714zm-.726.094h18.024V4.488H.988V6.17zM12.57 9.817c0 1.394-1.15 2.524-2.571 2.524v1.683c2.367 0 4.286-1.883 4.286-4.207H12.57zM10 12.341c-1.42 0-2.571-1.13-2.571-2.524H5.714c0 2.324 1.919 4.207 4.286 4.207v-1.683z" fill="#0E0927" fill-rule="nonzero"/></g></svg>