<svg width="263" height="34" viewBox="0 0 263 34" fill="none" xmlns="http://www.w3.org/2000/svg">
<path d="M5.74756 33.8786L0.189941 3.43567H7.12955L9.1951 17.6766C9.3734 19.2606 9.58143 20.8596 9.7895 22.4889C9.99753 24.0729 10.2056 25.672 10.3839 27.3012H10.5622C10.8743 25.6871 11.1566 24.0729 11.439 22.4889C11.751 20.8747 12.0482 19.2606 12.3603 17.6766L15.5849 3.43567H21.3357L24.5603 17.6766C24.8724 19.2304 25.1547 20.8144 25.437 22.4436C25.7491 24.0276 26.0463 25.6418 26.3584 27.3012H26.5367C26.7447 25.6569 26.9528 24.0276 27.1311 22.4436C27.3391 20.8596 27.562 19.2756 27.7701 17.6766L29.8356 3.43567H36.3144L30.9798 33.8786H22.465L19.5228 20.0601C19.285 18.8834 19.0473 17.6916 18.8392 16.515C18.6609 15.3081 18.4826 14.1314 18.334 13.0151H18.1705C17.9922 14.1314 17.7842 15.3081 17.5761 16.515C17.3978 17.6916 17.1749 18.8834 16.9371 20.0601L14.1286 33.8786H5.74756Z" fill="white"/>
<path d="M47.162 18.4761L46.419 21.282H52.809L52.1254 18.4761C51.6945 16.9524 51.2784 15.3383 50.877 13.6185C50.476 11.9138 50.0746 10.2544 49.6883 8.67041H49.5101C49.1387 10.2846 48.752 11.9591 48.3658 13.6638C47.9943 15.3383 47.5929 16.9524 47.162 18.4761ZM36.3145 33.8786L45.6911 3.43567H53.8342L63.2109 33.8786H56.0337L54.1909 26.6375H45.0371L43.1943 33.8786H36.3145Z" fill="white"/>
<path d="M66.5396 33.8786V3.43567H73.301V28.0857H85.1594V33.8786H66.5396Z" fill="white"/>
<path d="M90.1821 33.8786V3.43567H96.9436V28.0857H108.802V33.8786H90.1821Z" fill="white"/>
<path d="M113.824 33.8786V3.43567H132.726V9.22859H120.585V16.2736H130.972V22.0665H120.585V33.8786H113.824Z" fill="white"/>
<path d="M143.024 18.4761L142.281 21.282H148.671L147.988 18.4761C147.556 16.9524 147.141 15.3383 146.739 13.6185C146.338 11.9138 145.937 10.2544 145.55 8.67041H145.372C145 10.2846 144.614 11.9591 144.228 13.6638C143.856 15.3383 143.455 16.9524 143.024 18.4761ZM132.176 33.8786L141.553 3.43567H149.696L159.073 33.8786H151.895L150.053 26.6375H140.914L139.071 33.8786H132.176Z" fill="white"/>
<path d="M162.193 33.8786V3.43567H168.955V33.8786H162.193Z" fill="white"/>
<path d="M175.865 33.8786V3.43567H186.668C188.258 3.43567 189.744 3.58653 191.126 3.90333C192.537 4.22014 193.756 4.74813 194.811 5.48733C195.851 6.19634 196.683 7.16184 197.293 8.38379C197.902 9.59063 198.214 11.1143 198.214 12.9095C198.214 15.1573 197.724 16.9977 196.743 18.461C195.792 19.8942 194.499 20.9652 192.879 21.6894L199.685 33.8786H192.092L186.341 22.9113H182.611V33.8786H175.865ZM182.626 17.4503H186.118C187.901 17.4503 189.239 17.0731 190.16 16.3339C191.111 15.5495 191.586 14.4181 191.586 12.9246C191.586 11.4311 191.111 10.3902 190.16 9.80185C189.239 9.21351 187.886 8.91178 186.118 8.91178H182.626V17.4503Z" fill="white"/>
<path d="M254.43 10.2695C254.281 9.66601 254.147 9.10787 254.043 8.61004C253.969 8.24796 253.894 7.91607 253.82 7.61438H253.434C253.359 7.91607 253.285 8.24796 253.196 8.59496C253.077 9.09279 252.929 9.63585 252.78 10.2393C252.632 10.8427 252.453 11.5065 252.26 12.2306C252.2 12.4418 252.141 12.653 252.082 12.8793H254.415C254.563 12.8793 254.712 12.8793 254.861 12.8793C254.935 12.8793 255.009 12.8793 255.069 12.8793C255.009 12.6681 254.965 12.4418 254.905 12.2457C254.741 11.5367 254.578 10.888 254.43 10.2695Z" fill="#E82E89"/>
<path d="M258.278 0.192261H210.057C207.546 0.192261 205.525 2.1534 205.525 4.55201V18.8533C205.525 21.267 207.561 23.213 210.057 23.213H258.278C260.789 23.213 262.81 21.2519 262.81 18.8533V4.55201C262.81 2.1534 260.789 0.192261 258.278 0.192261ZM218.483 17.4201C218.171 17.4201 217.874 17.4201 217.606 17.4201C217.547 17.4201 217.487 17.4051 217.457 17.3899C217.428 17.3749 217.398 17.3447 217.383 17.2994C217.368 17.2542 217.339 17.1938 217.324 17.1033C217.101 16.2283 216.878 15.3986 216.685 14.5991H212.791C212.791 14.5991 212.791 14.5991 212.791 14.6142C212.569 15.4741 212.316 16.4094 212.048 17.4201C211.766 17.4201 211.469 17.4201 211.172 17.4201C210.875 17.4201 210.577 17.4201 210.28 17.4201C210.25 17.4201 210.221 17.4051 210.206 17.3899C210.191 17.3749 210.161 17.3447 210.161 17.3145C210.146 17.2843 210.146 17.2391 210.161 17.1938C210.25 16.8619 210.354 16.4697 210.488 16.0021C210.622 15.5344 210.756 15.0064 210.904 14.4482C211.053 13.875 211.201 13.2866 211.365 12.6531C211.528 12.0194 211.692 11.4009 211.855 10.7673C212.019 10.1337 212.182 9.5303 212.331 8.92688C212.479 8.33854 212.628 7.78036 212.762 7.28253C212.895 6.7847 213.014 6.34722 213.118 5.98518C213.668 5.98518 214.218 5.98518 214.812 5.98518C215.392 5.98518 215.912 5.98518 216.358 5.98518C216.402 5.98518 216.432 6.00026 216.447 6.01534C216.462 6.03042 216.492 6.0455 216.506 6.07569C216.521 6.09077 216.536 6.13601 216.551 6.1662C216.714 6.82997 216.908 7.50883 217.101 8.23295C217.294 8.94196 217.487 9.68116 217.68 10.4505C217.874 11.2199 218.082 12.0044 218.29 12.8341C218.498 13.6487 218.721 14.4935 218.929 15.3534C219.003 15.6853 219.077 16.0172 219.166 16.3641C219.256 16.696 219.33 17.043 219.404 17.4051C219.077 17.4201 218.795 17.4201 218.483 17.4201ZM227.889 15.1422C227.889 15.3987 227.889 15.6551 227.889 15.9417C227.889 16.2133 227.889 16.4848 227.889 16.7413C227.889 16.9977 227.889 17.224 227.889 17.4352H221.336C221.321 17.4352 221.292 17.4352 221.276 17.4201C221.262 17.4051 221.232 17.3899 221.217 17.3749C221.202 17.3598 221.188 17.3447 221.172 17.3145C221.158 17.2994 221.158 17.2693 221.158 17.2542C221.158 16.3943 221.158 15.5344 221.158 14.6745C221.158 13.8147 221.158 12.9547 221.158 12.125C221.158 11.2802 221.158 10.4656 221.158 9.68116C221.158 8.89672 221.158 8.15752 221.158 7.46355C221.158 7.22221 221.158 6.99592 221.158 6.75454C221.158 6.52825 221.158 6.28687 221.158 6.06061C221.485 6.06061 221.797 6.06061 222.094 6.06061C222.406 6.06061 222.718 6.06061 223.015 6.06061C223.045 6.06061 223.075 6.07569 223.104 6.09077C223.134 6.10585 223.149 6.13601 223.164 6.15112C223.179 6.18128 223.193 6.21144 223.193 6.24163C223.193 7.02608 223.193 7.79544 223.193 8.57992C223.193 9.36436 223.193 10.1488 223.193 10.9484C223.193 11.7328 223.193 12.5324 223.193 13.3168C223.193 14.1013 223.193 14.8857 223.193 15.6551H226.061C226.061 15.5646 226.061 15.459 226.061 15.3534C226.061 15.1573 226.061 14.9762 226.061 14.7952C226.061 14.6142 226.061 14.4482 226.061 14.2974C226.269 14.2974 226.448 14.2974 226.626 14.2974C226.805 14.2974 226.983 14.2974 227.161 14.2974C227.34 14.2974 227.518 14.2974 227.711 14.2974C227.741 14.2974 227.77 14.3125 227.8 14.3276C227.83 14.3426 227.845 14.3728 227.859 14.3879C227.874 14.4181 227.889 14.4482 227.889 14.4784C227.889 14.6595 227.889 14.8857 227.889 15.1422ZM237.073 10.4204C237.073 10.9333 236.998 11.416 236.865 11.8384C236.731 12.2608 236.508 12.6078 236.211 12.8944C235.913 13.181 235.527 13.4073 235.066 13.5582C234.606 13.709 234.056 13.7995 233.417 13.7995C233.105 13.7995 232.793 13.7995 232.481 13.7995C232.243 13.7995 232.006 13.7995 231.768 13.7995C231.768 14.4633 231.768 15.1271 231.768 15.8059C231.768 16.0926 231.768 16.3792 231.768 16.6508C231.768 16.9223 231.768 17.1788 231.768 17.4201C231.456 17.4201 231.143 17.4201 230.846 17.4201C230.534 17.4201 230.222 17.4201 229.91 17.4201C229.851 17.4201 229.821 17.4051 229.777 17.3749C229.747 17.3447 229.732 17.2994 229.732 17.2391C229.732 16.3641 229.732 15.5042 229.732 14.6745C229.732 13.8448 229.732 13.0151 229.732 12.1854C229.732 11.3557 229.732 10.526 229.732 9.68116C229.732 9.07774 229.732 8.44413 229.732 7.82563C229.509 7.82563 229.286 7.82563 229.078 7.82563C229.018 7.82563 228.989 7.81055 228.944 7.78036C228.914 7.7502 228.9 7.70493 228.9 7.64457C228.9 7.35796 228.9 7.10151 228.9 6.84505C228.9 6.60368 228.9 6.33215 228.9 6.0455C229.628 6.0455 230.4 6.0455 231.188 6.0455C231.976 6.0455 232.719 6.0455 233.388 6.0455C233.878 6.0455 234.323 6.09077 234.71 6.18128C235.111 6.27179 235.453 6.40758 235.75 6.57352C236.047 6.73946 236.3 6.96572 236.478 7.23729C236.672 7.50883 236.82 7.82563 236.924 8.1726C237.028 8.53464 237.073 8.92688 237.073 9.37944V10.4204ZM247.178 8.59499C247.178 9.39455 247.178 10.179 247.178 10.9634C247.178 11.7479 247.178 12.5324 247.178 13.3168C247.178 14.1013 247.178 14.8857 247.178 15.6853C247.178 15.987 247.178 16.2887 247.178 16.5904C247.178 16.8921 247.178 17.1637 247.178 17.4201C246.865 17.4201 246.553 17.4201 246.256 17.4201C245.944 17.4201 245.632 17.4201 245.32 17.4201C245.29 17.4201 245.261 17.4051 245.231 17.3899C245.201 17.3749 245.186 17.3447 245.171 17.3296C245.157 17.2994 245.141 17.2693 245.141 17.2391C245.141 16.3038 245.141 15.3835 245.141 14.4482C245.141 13.8448 245.141 13.2263 245.141 12.6078H241.278C241.278 13.2866 241.278 13.9504 241.278 14.6142C241.278 15.5495 241.278 16.4697 241.278 17.4051C240.966 17.4051 240.654 17.4051 240.357 17.4051C240.045 17.4051 239.732 17.4051 239.42 17.4051C239.391 17.4051 239.361 17.3899 239.331 17.3749C239.302 17.3598 239.287 17.3296 239.272 17.3145C239.257 17.2843 239.242 17.2542 239.242 17.224C239.242 16.168 239.242 15.1271 239.242 14.0711C239.242 13.0151 239.242 11.9591 239.242 10.9031C239.242 9.84711 239.242 8.7911 239.242 7.7502C239.242 7.46355 239.242 7.17694 239.242 6.89029C239.242 6.60368 239.242 6.33215 239.242 6.0455C239.569 6.0455 239.881 6.0455 240.178 6.0455C240.491 6.0455 240.802 6.0455 241.1 6.0455C241.159 6.0455 241.189 6.06061 241.234 6.09077C241.263 6.12093 241.278 6.1662 241.278 6.22655C241.278 7.16186 241.278 8.08209 241.278 9.01739C241.278 9.62081 241.278 10.2242 241.278 10.8428H244.31C244.458 10.8428 244.607 10.8428 244.755 10.8428C244.889 10.8428 245.008 10.8428 245.141 10.8428C245.141 10.179 245.141 9.51522 245.141 8.85145C245.141 7.91614 245.141 6.99592 245.141 6.06061C245.469 6.06061 245.78 6.06061 246.078 6.06061C246.39 6.06061 246.702 6.06061 246.999 6.06061C247.014 6.06061 247.044 6.06061 247.059 6.07569C247.073 6.09077 247.103 6.10585 247.118 6.12093C247.133 6.13604 247.148 6.15112 247.162 6.18128C247.178 6.19636 247.178 6.22656 247.178 6.24163C247.178 7.011 247.178 7.79544 247.178 8.59499ZM257.327 17.4201C257.015 17.4201 256.718 17.4201 256.45 17.4201C256.391 17.4201 256.331 17.4051 256.302 17.3899C256.272 17.3749 256.242 17.3447 256.227 17.2994C256.212 17.2542 256.183 17.1938 256.168 17.1033C255.945 16.2283 255.722 15.3986 255.529 14.5991H251.636C251.636 14.5991 251.636 14.5991 251.636 14.6142C251.413 15.4741 251.16 16.4094 250.893 17.4201C250.61 17.4201 250.313 17.4201 250.016 17.4201C249.719 17.4201 249.421 17.4201 249.124 17.4201C249.094 17.4201 249.065 17.4051 249.05 17.3899C249.035 17.3749 249.005 17.3447 249.005 17.3145C248.99 17.2843 248.99 17.2391 249.005 17.1938C249.094 16.8619 249.198 16.4697 249.332 16.0021C249.466 15.5344 249.599 15.0064 249.748 14.4482C249.897 13.875 250.045 13.2866 250.209 12.6531C250.372 12.0194 250.536 11.4009 250.699 10.7673C250.863 10.1337 251.026 9.5303 251.175 8.92688C251.323 8.33854 251.472 7.78036 251.606 7.28253C251.74 6.7847 251.858 6.34722 251.962 5.98518C252.512 5.98518 253.062 5.98518 253.656 5.98518C254.236 5.98518 254.756 5.98518 255.202 5.98518C255.246 5.98518 255.276 6.00026 255.291 6.01534C255.306 6.03042 255.336 6.0455 255.35 6.07569C255.365 6.09077 255.38 6.13601 255.395 6.1662C255.559 6.82997 255.751 7.50883 255.945 8.23295C256.138 8.94196 256.331 9.68116 256.524 10.4505C256.718 11.2199 256.926 12.0044 257.134 12.8341C257.342 13.6487 257.565 14.4935 257.773 15.3534C257.847 15.6853 257.921 16.0172 258.01 16.3641C258.1 16.696 258.174 17.043 258.248 17.4051C257.936 17.4201 257.639 17.4201 257.327 17.4201Z" fill="#E82E89"/>
<path d="M234.68 8.20268C234.547 8.0669 234.383 7.96131 234.175 7.91603C233.967 7.85572 233.7 7.84064 233.388 7.84064C232.912 7.84064 232.436 7.84064 231.961 7.84064C231.902 7.84064 231.842 7.84064 231.783 7.84064C231.783 8.00658 231.783 8.15741 231.783 8.30827C231.783 8.54965 231.783 8.79102 231.783 9.04748C231.783 9.78668 231.783 10.541 231.783 11.2651C231.783 11.5065 231.783 11.7629 231.783 12.0043C232.006 12.0043 232.228 12.0043 232.451 12.0043C232.808 12.0043 233.135 12.0043 233.417 12.0043C233.7 12.0043 233.937 11.9741 234.13 11.9138C234.339 11.8534 234.502 11.7629 234.636 11.6422C234.769 11.5215 234.873 11.3707 234.933 11.1746C235.007 10.9784 235.037 10.7522 235.037 10.4806V9.28885C235.037 9.0324 235.007 8.8061 234.963 8.62508C234.888 8.45913 234.799 8.32335 234.68 8.20268Z" fill="#E82E89"/>
<path d="M215.57 10.2695C215.422 9.66601 215.288 9.10787 215.184 8.61004C215.11 8.24796 215.036 7.91607 214.961 7.61438H214.575C214.501 7.91607 214.426 8.24796 214.337 8.59496C214.218 9.09279 214.07 9.63585 213.921 10.2393C213.772 10.8427 213.594 11.5065 213.401 12.2306C213.341 12.4418 213.282 12.653 213.223 12.8793H215.556C215.704 12.8793 215.853 12.8793 216.001 12.8793C216.076 12.8793 216.15 12.8793 216.209 12.8793C216.15 12.6681 216.105 12.4418 216.046 12.2457C215.883 11.5367 215.719 10.888 215.57 10.2695Z" fill="#E82E89"/>
</svg>
