<svg width="29" height="23" viewBox="0 0 29 23" fill="none" xmlns="http://www.w3.org/2000/svg">
<path d="M24 1L24.4885 1.10661L24.6209 0.5H24V1ZM19.4235 21.97V22.47H19.8261L19.912 22.0766L19.4235 21.97ZM15.551 21.97L15.0613 22.0708L15.1435 22.47H15.551V21.97ZM12.4765 7.03863L12.9663 6.93779L11.9877 6.93337L12.4765 7.03863ZM9.26122 21.97L9.26513 22.4699L9.66569 22.4668L9.75002 22.0752L9.26122 21.97ZM5.41225 22L4.92293 22.1028L5.00705 22.5032L5.41615 22.5L5.41225 22ZM1 1V0.5H0.384029L0.510684 1.10281L1 1ZM4.52041 1L5.01273 0.91272L4.93956 0.5H4.52041V1ZM7.40714 17.2833L6.91482 17.3705L7.89699 17.3835L7.40714 17.2833ZM10.7398 1V0.5H10.3318L10.25 0.899745L10.7398 1ZM14.401 1L14.8919 0.904675L14.8133 0.5H14.401V1ZM17.5459 17.1931L17.0551 17.2885L18.038 17.2816L17.5459 17.1931ZM20.4561 1V0.5H20.038L19.964 0.911558L20.4561 1ZM23.5115 0.893388L18.935 21.8633L19.912 22.0766L24.4885 1.10661L23.5115 0.893388ZM19.4235 21.47H15.551V22.47H19.4235V21.47ZM16.0407 21.8691L12.9663 6.93779L11.9868 7.13947L15.0613 22.0708L16.0407 21.8691ZM11.9877 6.93337L8.77243 21.8647L9.75002 22.0752L12.9653 7.14388L11.9877 6.93337ZM9.25732 21.47L5.40834 21.5L5.41615 22.5L9.26513 22.4699L9.25732 21.47ZM5.90156 21.8972L1.48932 0.897191L0.510684 1.10281L4.92293 22.1028L5.90156 21.8972ZM1 1.5H4.52041V0.5H1V1.5ZM4.02809 1.08728L6.91482 17.3705L7.89947 17.196L5.01273 0.91272L4.02809 1.08728ZM7.89699 17.3835L11.2296 1.10026L10.25 0.899745L6.9173 17.183L7.89699 17.3835ZM10.7398 1.5H14.401V0.5H10.7398V1.5ZM13.9102 1.09532L17.0551 17.2885L18.0367 17.0978L14.8919 0.904675L13.9102 1.09532ZM18.038 17.2816L20.9482 1.08844L19.964 0.911558L17.0538 17.1047L18.038 17.2816ZM20.4561 1.5H24V0.5H20.4561V1.5Z" fill="#F1FF54"/>
<path d="M27.1 19.1999C27.1 20.4702 26.0703 21.4999 24.8 21.4999V22.4999C26.6225 22.4999 28.1 21.0224 28.1 19.1999H27.1ZM24.8 21.4999C23.5297 21.4999 22.5 20.4702 22.5 19.1999H21.5C21.5 21.0224 22.9775 22.4999 24.8 22.4999V21.4999ZM22.5 19.1999C22.5 17.9296 23.5297 16.8999 24.8 16.8999V15.8999C22.9775 15.8999 21.5 17.3774 21.5 19.1999H22.5ZM24.8 16.8999C26.0703 16.8999 27.1 17.9296 27.1 19.1999H28.1C28.1 17.3774 26.6225 15.8999 24.8 15.8999V16.8999Z" fill="#F1FF54"/>
</svg>
