<svg width="203" height="50" viewBox="0 0 203 50" fill="none" xmlns="http://www.w3.org/2000/svg">
<circle cx="198" cy="42" r="5" fill="#F2FF54"/>
<path d="M6.075 47L0.63 17.66H7.425L9.45 31.385C9.63 32.915 9.825 34.46 10.035 36.02C10.245 37.55 10.44 39.095 10.62 40.655H10.8C11.1 39.095 11.385 37.55 11.655 36.02C11.955 34.46 12.255 32.915 12.555 31.385L15.705 17.66H21.33L24.48 31.385C24.78 32.885 25.065 34.415 25.335 35.975C25.635 37.505 25.935 39.065 26.235 40.655H26.415C26.625 39.065 26.82 37.505 27 35.975C27.21 34.445 27.42 32.915 27.63 31.385L29.655 17.66H36L30.78 47H22.455L19.575 33.68C19.335 32.54 19.11 31.4 18.9 30.26C18.72 29.09 18.555 27.965 18.405 26.885H18.225C18.045 27.965 17.85 29.09 17.64 30.26C17.46 31.4 17.25 32.54 17.01 33.68L14.265 47H6.075ZM45.9564 32.15L45.2364 34.85H51.4914L50.8164 32.15C50.3964 30.68 49.9914 29.12 49.6014 27.47C49.2114 25.82 48.8214 24.23 48.4314 22.7H48.2514C47.8914 24.26 47.5164 25.865 47.1264 27.515C46.7664 29.135 46.3764 30.68 45.9564 32.15ZM35.3364 47L44.5164 17.66H52.4814L61.6614 47H54.6414L52.8414 40.025H43.8864L42.0864 47H35.3364ZM63.8673 47V17.66H70.4823V41.42H82.0923V47H63.8673ZM86.1584 47V17.66H92.7734V41.42H104.383V47H86.1584ZM108.449 47V17.66H126.944V23.24H115.064V30.035H125.234V35.615H115.064V47H108.449ZM136.175 32.15L135.455 34.85H141.71L141.035 32.15C140.615 30.68 140.21 29.12 139.82 27.47C139.43 25.82 139.04 24.23 138.65 22.7H138.47C138.11 24.26 137.735 25.865 137.345 27.515C136.985 29.135 136.595 30.68 136.175 32.15ZM125.555 47L134.735 17.66H142.7L151.88 47H144.86L143.06 40.025H134.105L132.305 47H125.555ZM154.086 47V17.66H160.701V47H154.086ZM166.621 47V17.66H177.196C178.756 17.66 180.211 17.81 181.561 18.11C182.941 18.41 184.141 18.92 185.161 19.64C186.181 20.33 186.991 21.26 187.591 22.43C188.191 23.6 188.491 25.055 188.491 26.795C188.491 28.955 188.011 30.74 187.051 32.15C186.121 33.53 184.861 34.565 183.271 35.255L189.931 47H182.506L176.881 36.425H173.236V47H166.621ZM173.236 31.16H176.656C178.396 31.16 179.716 30.8 180.616 30.08C181.546 29.33 182.011 28.235 182.011 26.795C182.011 25.355 181.546 24.35 180.616 23.78C179.716 23.21 178.396 22.925 176.656 22.925H173.236V31.16Z" fill="white"/>
</svg>
