<svg width="203" height="60" viewBox="0 0 203 60" fill="none" xmlns="http://www.w3.org/2000/svg">
<circle cx="198" cy="42" r="5" fill="#F2FF54"/>
<path d="M6.075 47L0.63 17.66H7.425L9.45 31.385C9.63 32.915 9.825 34.46 10.035 36.02C10.245 37.55 10.44 39.095 10.62 40.655H10.8C11.1 39.095 11.385 37.55 11.655 36.02C11.955 34.46 12.255 32.915 12.555 31.385L15.705 17.66H21.33L24.48 31.385C24.78 32.885 25.065 34.415 25.335 35.975C25.635 37.505 25.935 39.065 26.235 40.655H26.415C26.625 39.065 26.82 37.505 27 35.975C27.21 34.445 27.42 32.915 27.63 31.385L29.655 17.66H36L30.78 47H22.455L19.575 33.68C19.335 32.54 19.11 31.4 18.9 30.26C18.72 29.09 18.555 27.965 18.405 26.885H18.225C18.045 27.965 17.85 29.09 17.64 30.26C17.46 31.4 17.25 32.54 17.01 33.68L14.265 47H6.075ZM45.9564 32.15L45.2364 34.85H51.4914L50.8164 32.15C50.3964 30.68 49.9914 29.12 49.6014 27.47C49.2114 25.82 48.8214 24.23 48.4314 22.7H48.2514C47.8914 24.26 47.5164 25.865 47.1264 27.515C46.7664 29.135 46.3764 30.68 45.9564 32.15ZM35.3364 47L44.5164 17.66H52.4814L61.6614 47H54.6414L52.8414 40.025H43.8864L42.0864 47H35.3364ZM63.8673 47V17.66H70.4823V41.42H82.0923V47H63.8673ZM86.1584 47V17.66H92.7734V41.42H104.383V47H86.1584ZM108.449 47V17.66H126.944V23.24H115.064V30.035H125.234V35.615H115.064V47H108.449ZM136.175 32.15L135.455 34.85H141.71L141.035 32.15C140.615 30.68 140.21 29.12 139.82 27.47C139.43 25.82 139.04 24.23 138.65 22.7H138.47C138.11 24.26 137.735 25.865 137.345 27.515C136.985 29.135 136.595 30.68 136.175 32.15ZM125.555 47L134.735 17.66H142.7L151.88 47H144.86L143.06 40.025H134.105L132.305 47H125.555ZM154.086 47V17.66H160.701V47H154.086ZM166.621 47V17.66H177.196C178.756 17.66 180.211 17.81 181.561 18.11C182.941 18.41 184.141 18.92 185.161 19.64C186.181 20.33 186.991 21.26 187.591 22.43C188.191 23.6 188.491 25.055 188.491 26.795C188.491 28.955 188.011 30.74 187.051 32.15C186.121 33.53 184.861 34.565 183.271 35.255L189.931 47H182.506L176.881 36.425H173.236V47H166.621ZM173.236 31.16H176.656C178.396 31.16 179.716 30.8 180.616 30.08C181.546 29.33 182.011 28.235 182.011 26.795C182.011 25.355 181.546 24.35 180.616 23.78C179.716 23.21 178.396 22.925 176.656 22.925H173.236V31.16Z" fill="white"/>
<path d="M0.845 15.392V6.552H2.405L2.535 7.189H2.587C2.83833 6.96367 3.12 6.77733 3.432 6.63C3.75267 6.474 4.082 6.396 4.42 6.396C4.81 6.396 5.161 6.474 5.473 6.63C5.785 6.786 6.04933 7.007 6.266 7.293C6.48267 7.579 6.64733 7.92567 6.76 8.333C6.88133 8.73167 6.942 9.178 6.942 9.672C6.942 10.2267 6.864 10.7207 6.708 11.154C6.56067 11.5787 6.357 11.9427 6.097 12.246C5.84567 12.5407 5.55533 12.766 5.226 12.922C4.90533 13.078 4.57167 13.156 4.225 13.156C3.94767 13.156 3.679 13.0997 3.419 12.987C3.159 12.8657 2.91633 12.6967 2.691 12.48L2.756 13.507V15.392H0.845ZM3.783 11.596C4.11233 11.596 4.394 11.4487 4.628 11.154C4.862 10.8507 4.979 10.3653 4.979 9.698C4.979 8.53667 4.60633 7.956 3.861 7.956C3.48833 7.956 3.12 8.151 2.756 8.541V11.18C2.92933 11.336 3.10267 11.4443 3.276 11.505C3.44933 11.5657 3.61833 11.596 3.783 11.596ZM11.0661 13.156C10.6588 13.156 10.2645 13.0823 9.88315 12.935C9.50182 12.779 9.16382 12.558 8.86915 12.272C8.58315 11.986 8.35348 11.635 8.18015 11.219C8.00682 10.7943 7.92015 10.3133 7.92015 9.776C7.92015 9.23867 8.00682 8.762 8.18015 8.346C8.35348 7.92133 8.58315 7.566 8.86915 7.28C9.16382 6.994 9.50182 6.77733 9.88315 6.63C10.2645 6.474 10.6588 6.396 11.0661 6.396C11.4735 6.396 11.8635 6.474 12.2361 6.63C12.6175 6.77733 12.9511 6.994 13.2371 7.28C13.5318 7.566 13.7658 7.92133 13.9391 8.346C14.1125 8.762 14.1991 9.23867 14.1991 9.776C14.1991 10.3133 14.1125 10.7943 13.9391 11.219C13.7658 11.635 13.5318 11.986 13.2371 12.272C12.9511 12.558 12.6175 12.779 12.2361 12.935C11.8635 13.0823 11.4735 13.156 11.0661 13.156ZM11.0661 11.609C11.4561 11.609 11.7508 11.4443 11.9501 11.115C12.1495 10.7857 12.2491 10.3393 12.2491 9.776C12.2491 9.21267 12.1495 8.76633 11.9501 8.437C11.7508 8.10767 11.4561 7.943 11.0661 7.943C10.6675 7.943 10.3685 8.10767 10.1691 8.437C9.97848 8.76633 9.88315 9.21267 9.88315 9.776C9.88315 10.3393 9.97848 10.7857 10.1691 11.115C10.3685 11.4443 10.6675 11.609 11.0661 11.609ZM16.4855 13L14.8735 6.552H16.7715L17.3955 9.542C17.4475 9.86267 17.4952 10.179 17.5385 10.491C17.5819 10.803 17.6295 11.1237 17.6815 11.453H17.7335C17.7942 11.1237 17.8505 10.7987 17.9025 10.478C17.9632 10.1573 18.0325 9.84533 18.1105 9.542L18.8255 6.552H20.4765L21.2045 9.542C21.2825 9.86267 21.3519 10.179 21.4125 10.491C21.4732 10.803 21.5382 11.1237 21.6075 11.453H21.6595C21.7202 11.1237 21.7679 10.803 21.8025 10.491C21.8459 10.179 21.8979 9.86267 21.9585 9.542L22.5695 6.552H24.3375L22.7905 13H20.5545L19.9695 10.426C19.9002 10.1227 19.8395 9.81933 19.7875 9.516C19.7355 9.21267 19.6792 8.88767 19.6185 8.541H19.5665C19.5059 8.88767 19.4495 9.21267 19.3975 9.516C19.3542 9.81933 19.3022 10.1227 19.2415 10.426L18.6695 13H16.4855ZM28.2837 13.156C27.8244 13.156 27.3954 13.0823 26.9967 12.935C26.5981 12.779 26.2514 12.558 25.9567 12.272C25.6621 11.9773 25.4324 11.622 25.2677 11.206C25.1031 10.79 25.0207 10.3133 25.0207 9.776C25.0207 9.256 25.1074 8.788 25.2807 8.372C25.4541 7.94733 25.6794 7.592 25.9567 7.306C26.2427 7.01133 26.5677 6.786 26.9317 6.63C27.2957 6.474 27.6727 6.396 28.0627 6.396C28.5221 6.396 28.9207 6.474 29.2587 6.63C29.6054 6.786 29.8914 7.00267 30.1167 7.28C30.3507 7.55733 30.5241 7.88667 30.6367 8.268C30.7494 8.64067 30.8057 9.048 30.8057 9.49C30.8057 9.66333 30.7971 9.828 30.7797 9.984C30.7624 10.14 30.7451 10.257 30.7277 10.335H26.8667C26.9534 10.803 27.1441 11.1497 27.4387 11.375C27.7421 11.5917 28.1104 11.7 28.5437 11.7C29.0031 11.7 29.4667 11.557 29.9347 11.271L30.5717 12.428C30.2424 12.6533 29.8741 12.831 29.4667 12.961C29.0681 13.091 28.6737 13.156 28.2837 13.156ZM26.8537 9.074H29.1807C29.1807 8.71 29.0984 8.41533 28.9337 8.19C28.7691 7.96467 28.4917 7.852 28.1017 7.852C27.7984 7.852 27.5297 7.95167 27.2957 8.151C27.0704 8.35033 26.9231 8.658 26.8537 9.074ZM32.1263 13V6.552H33.6863L33.8163 7.683H33.8683C34.1023 7.241 34.3839 6.916 34.7132 6.708C35.0426 6.5 35.3719 6.396 35.7013 6.396C35.8833 6.396 36.0306 6.409 36.1433 6.435C36.2646 6.45233 36.3729 6.48267 36.4683 6.526L36.1563 8.177C36.0349 8.14233 35.9223 8.11633 35.8183 8.099C35.7143 8.08167 35.5929 8.073 35.4543 8.073C35.2116 8.073 34.9559 8.15967 34.6873 8.333C34.4273 8.50633 34.2106 8.814 34.0373 9.256V13H32.1263ZM40.065 13.156C39.6057 13.156 39.1767 13.0823 38.778 12.935C38.3793 12.779 38.0327 12.558 37.738 12.272C37.4433 11.9773 37.2137 11.622 37.049 11.206C36.8843 10.79 36.802 10.3133 36.802 9.776C36.802 9.256 36.8887 8.788 37.062 8.372C37.2353 7.94733 37.4607 7.592 37.738 7.306C38.024 7.01133 38.349 6.786 38.713 6.63C39.077 6.474 39.454 6.396 39.844 6.396C40.3033 6.396 40.702 6.474 41.04 6.63C41.3867 6.786 41.6727 7.00267 41.898 7.28C42.132 7.55733 42.3053 7.88667 42.418 8.268C42.5307 8.64067 42.587 9.048 42.587 9.49C42.587 9.66333 42.5783 9.828 42.561 9.984C42.5437 10.14 42.5263 10.257 42.509 10.335H38.648C38.7347 10.803 38.9253 11.1497 39.22 11.375C39.5233 11.5917 39.8917 11.7 40.325 11.7C40.7843 11.7 41.248 11.557 41.716 11.271L42.353 12.428C42.0237 12.6533 41.6553 12.831 41.248 12.961C40.8493 13.091 40.455 13.156 40.065 13.156ZM38.635 9.074H40.962C40.962 8.71 40.8797 8.41533 40.715 8.19C40.5503 7.96467 40.273 7.852 39.883 7.852C39.5797 7.852 39.311 7.95167 39.077 8.151C38.8517 8.35033 38.7043 8.658 38.635 9.074ZM46.2085 13.156C45.8098 13.156 45.4458 13.078 45.1165 12.922C44.7958 12.766 44.5185 12.545 44.2845 12.259C44.0592 11.9643 43.8815 11.609 43.7515 11.193C43.6302 10.777 43.5695 10.3047 43.5695 9.776C43.5695 9.24733 43.6432 8.775 43.7905 8.359C43.9465 7.943 44.1458 7.592 44.3885 7.306C44.6398 7.01133 44.9258 6.786 45.2465 6.63C45.5758 6.474 45.9095 6.396 46.2475 6.396C46.6115 6.396 46.9105 6.45667 47.1445 6.578C47.3785 6.69933 47.6082 6.864 47.8335 7.072L47.7555 6.084V3.887H49.6665V13H48.1065L47.9765 12.363H47.9245C47.6992 12.5883 47.4348 12.779 47.1315 12.935C46.8282 13.0823 46.5205 13.156 46.2085 13.156ZM46.7025 11.596C46.9105 11.596 47.0968 11.5527 47.2615 11.466C47.4348 11.3793 47.5995 11.2277 47.7555 11.011V8.372C47.5822 8.216 47.4045 8.10767 47.2225 8.047C47.0405 7.98633 46.8628 7.956 46.6895 7.956C46.3862 7.956 46.1175 8.10333 45.8835 8.398C45.6495 8.684 45.5325 9.13467 45.5325 9.75C45.5325 10.3913 45.6322 10.8593 45.8315 11.154C46.0395 11.4487 46.3298 11.596 46.7025 11.596ZM57.3422 13.156C57.0562 13.156 56.7659 13.0867 56.4712 12.948C56.1852 12.8007 55.9165 12.5883 55.6652 12.311H55.6132L55.4572 13H53.9622V3.887H55.8732V6.123L55.8212 7.111C56.0725 6.88567 56.3412 6.71233 56.6272 6.591C56.9219 6.461 57.2209 6.396 57.5242 6.396C57.9142 6.396 58.2652 6.474 58.5772 6.63C58.8892 6.786 59.1535 7.007 59.3702 7.293C59.5955 7.57033 59.7645 7.91267 59.8772 8.32C59.9985 8.71867 60.0592 9.165 60.0592 9.659C60.0592 10.2137 59.9812 10.7077 59.8252 11.141C59.6779 11.5743 59.4742 11.9427 59.2142 12.246C58.9629 12.5407 58.6725 12.766 58.3432 12.922C58.0225 13.078 57.6889 13.156 57.3422 13.156ZM56.9002 11.596C57.2295 11.596 57.5112 11.4487 57.7452 11.154C57.9792 10.8507 58.0962 10.3653 58.0962 9.698C58.0962 8.53667 57.7235 7.956 56.9782 7.956C56.5969 7.956 56.2285 8.151 55.8732 8.541V11.18C56.0465 11.336 56.2199 11.4443 56.3932 11.505C56.5665 11.5657 56.7355 11.596 56.9002 11.596ZM62.0278 15.522C61.8284 15.522 61.6594 15.509 61.5208 15.483C61.3821 15.4657 61.2478 15.4353 61.1178 15.392L61.4558 13.936C61.5164 13.9533 61.5858 13.9707 61.6638 13.988C61.7418 14.0053 61.8154 14.014 61.8848 14.014C62.2054 14.014 62.4524 13.936 62.6258 13.78C62.7991 13.624 62.9291 13.4203 63.0158 13.169L63.1068 12.831L60.6238 6.552H62.5478L63.4708 9.321C63.5661 9.61567 63.6528 9.91467 63.7308 10.218C63.8088 10.5213 63.8911 10.8333 63.9778 11.154H64.0298C64.0991 10.8507 64.1684 10.5473 64.2378 10.244C64.3158 9.932 64.3938 9.62433 64.4718 9.321L65.2518 6.552H67.0848L64.8488 13.065C64.6928 13.4723 64.5281 13.8277 64.3548 14.131C64.1901 14.443 63.9951 14.6987 63.7698 14.898C63.5531 15.106 63.3018 15.262 63.0158 15.366C62.7384 15.47 62.4091 15.522 62.0278 15.522Z" fill="white"/>
</svg>
