<svg width="17" height="19" xmlns="http://www.w3.org/2000/svg"><g fill-rule="nonzero" fill="none"><g fill="#0E0927"><path d="M.92 3.291l.48.351zM2.76.898L2.28.546zM11.24.898l-.48.35zM13.08 3.291l.48-.351zM6.824 9.751C5.249 9.662 4 8.388 4 6.83l.008-.095a.596.596 0 01.592-.49c.331 0 .6.262.6.585 0 .97.806 1.756 1.8 1.756S8.8 7.8 8.8 6.83c0-.323.269-.585.6-.585.331 0 .6.262.6.585l-.005.172C9.904 8.538 8.598 9.756 7 9.756z"/><path d="M10.6 0c.392 0 .763.16 1.026.437l.094.11 1.84 2.393-.252.183v.001l.252-.184c.25.325.4.712.433 1.114l.007.174V7c-.409 0-.81.035-1.2.102v-2.81H1.199l.001 9.562.007.113a.988.988 0 00.876.856l.117.006 4.849.001c.047.401.129.792.24 1.17H2.2l-.157-.005C.953 15.92.083 15.07.006 14.007L0 13.854V4.228l.007-.174c.029-.345.143-.678.332-.971L.44 2.94 2.28.546l.96.703L1.799 3.12h10.4L10.76 1.249a.2.2 0 00-.099-.069l-.061-.01H3.4l-.061.01a.201.201 0 00-.07.04l-.029.029-.96-.703c.235-.305.589-.5.974-.539L3.4 0h7.2z"/></g><path d="M16 17.242a.5.5 0 01.09.992l-.09.008h-5a.5.5 0 01-.09-.992l.09-.008h5zM13.5 9.5a.5.5 0 01.492.41L14 10l-.001 4.959 1.642-1.694a.5.5 0 01.775.626l-.057.07-2.52 2.6-.072.055-.095.047-.121.028h-.103l-.067-.012-.1-.036-.085-.053-.055-.049-2.5-2.58a.5.5 0 01.65-.755l.068.059L13 14.957 13 10a.5.5 0 01.5-.5z" fill="#120E27"/></g></svg>