<?xml version="1.0" encoding="UTF-8" standalone="no"?>
<svg
   inkscape:version="1.1.1 (3bf5ae0, 2021-09-20)"
   id="svg8"
   version="1.1"
   viewBox="0 0 46.340735 45.98165"
   height="173.78891"
   width="175.14609"
   xmlns:inkscape="http://www.inkscape.org/namespaces/inkscape"
   xmlns:sodipodi="http://sodipodi.sourceforge.net/DTD/sodipodi-0.dtd"
   xmlns="http://www.w3.org/2000/svg"
   xmlns:svg="http://www.w3.org/2000/svg"
   xmlns:rdf="http://www.w3.org/1999/02/22-rdf-syntax-ns#"
   xmlns:cc="http://creativecommons.org/ns#"
   xmlns:dc="http://purl.org/dc/elements/1.1/">
  <defs
     id="defs2" />
  <sodipodi:namedview
     borderlayer="true"
     units="px"
     showgrid="false"
     inkscape:document-rotation="0"
     inkscape:current-layer="layer1"
     inkscape:document-units="px"
     inkscape:cy="63.892149"
     inkscape:cx="108.33886"
     inkscape:zoom="1.979899"
     inkscape:pageshadow="2"
     inkscape:pageopacity="0"
     borderopacity="1.0"
     bordercolor="#666666"
     pagecolor="#585858"
     id="base"
     inkscape:pagecheckerboard="1"
     inkscape:snap-global="false"
     fit-margin-top="0"
     fit-margin-left="0"
     fit-margin-right="0"
     fit-margin-bottom="0"
     inkscape:window-width="1280"
     inkscape:window-height="967"
     inkscape:window-x="0"
     inkscape:window-y="1"
     inkscape:window-maximized="1" />
  <metadata
     id="metadata5">
    <rdf:RDF>
      <cc:Work
         rdf:about="">
        <dc:format>image/svg+xml</dc:format>
        <dc:type
           rdf:resource="http://purl.org/dc/dcmitype/StillImage" />
      </cc:Work>
    </rdf:RDF>
  </metadata>
  <g
     id="layer1"
     inkscape:groupmode="layer"
     inkscape:label="Layer 1"
     transform="translate(-130.28797,-110.81275)">
    <g
       id="g116619"
       inkscape:label="izq"
       transform="matrix(1.0200483,0,0,1.0200483,43.410022,-7.3256515)">
      <path
         style="vector-effect:none;fill:#333333;fill-opacity:1;stroke:none;stroke-width:0.132292;stroke-linecap:butt;stroke-linejoin:miter;stroke-miterlimit:4;stroke-dasharray:none;stroke-dashoffset:0;stroke-opacity:1"
         d="m 107.96693,128.84921 7.46831,5.99601 -5.98346,-4.45553 -1.47861,-1.07767 c -0.85738,-0.46063 -0.25615,0.42202 -0.006,-0.46281 z"
         id="path2136471"
         sodipodi:nodetypes="cccccc" />
      <path
         id="path2116209"
         style="vector-effect:none;fill:#333333;fill-opacity:1;stroke:none;stroke-width:0.132292;stroke-linecap:butt;stroke-linejoin:miter;stroke-miterlimit:4;stroke-dasharray:none;stroke-dashoffset:0;stroke-opacity:1"
         d="m 107.73872,128.68566 1.01648,0.69195 -0.30541,0.61443 -0.90538,-0.1788 c -0.0124,-0.20721 -0.55351,-0.72025 0.19431,-1.12758 z m -10.722876,9.26661 c 0.149357,-5.2e-4 0.319114,0.0239 0.518848,0.0848 l 0.182403,1.50534 -1.132231,0.33538 -0.644393,-1.59525 c 0.360521,-0.10757 0.627354,-0.329 1.075373,-0.33022 z m 17.695056,1.63195 1.32033,1.70067 -0.709,0.94413 -2.34404,-1.10795 c 0.30043,-0.40173 0.9462,-1.25591 1.73271,-1.53685 z m -5.32991,1.54254 1.23351,1.73116 -0.7095,0.94413 -2.41536,-0.97255 c 0.30041,-0.40173 1.10485,-1.4218 1.89135,-1.70274 z" />
      <path
         style="vector-effect:none;fill:#ff0008;fill-opacity:1;stroke:none;stroke-width:0.132292;stroke-linecap:butt;stroke-linejoin:miter;stroke-miterlimit:4;stroke-dasharray:none;stroke-dashoffset:0;stroke-opacity:1"
         d="m 87.147706,118.36956 c -0.43161,0.61046 4.91179,4.36675 6.38097,4.07769 0.35308,-0.0695 1.42135,-0.61669 1.42135,-0.61669 0,0 0.82388,-4.14015 -2.41821,-5.57417 -3.63432,-1.60749 -5.38427,2.11089 -5.38411,2.11317 z"
         id="path1993908"
         sodipodi:nodetypes="cscsc" />
      <path
         style="vector-effect:none;fill:#4c699b;fill-opacity:1;stroke:none;stroke-width:0.132292;stroke-linecap:butt;stroke-linejoin:miter;stroke-miterlimit:4;stroke-dasharray:none;stroke-dashoffset:0;stroke-opacity:1"
         d="m 103.86147,127.87528 c 1.00576,0.0271 1.57173,0.79852 2.0579,1.70497 0.26228,0.19984 1.05345,0.68551 1.32082,1.63791 1.14166,0.3833 1.74572,1.37148 1.49805,2.12099 1.29744,0.72266 1.16201,1.64878 1.14841,1.96203 0.88044,-0.51943 2.29731,1.39061 2.20246,1.83464 1.24883,-0.17838 1.63044,0.86732 1.89727,1.53439 0.65155,0.19076 0.68651,0.66727 0.97284,1.02729 l -1.39003,1.49902 c -0.79417,0.0835 -0.98081,0.13012 -1.78183,-0.51891 -1.64674,-0.10854 -2.32181,-1.20397 -3.18702,-1.70158 -0.35024,0.12741 -1.62531,-1.33045 -1.45458,-1.19262 0.50153,0.40489 -2.0774,0.16541 -2.32242,-0.3689 -0.32552,-0.71001 -1.84886,-7.23055 -1.81706,-7.93218 0.0318,-0.70162 0.85519,-1.60705 0.85519,-1.60705 z"
         id="path1996614"
         sodipodi:nodetypes="cccccccccccccsc" />
      <path
         style="vector-effect:none;fill:#3d557e;fill-opacity:1;stroke:none;stroke-width:0.132292;stroke-linecap:butt;stroke-linejoin:miter;stroke-miterlimit:4;stroke-dasharray:none;stroke-dashoffset:0;stroke-opacity:1"
         d="m 104.32393,130.14782 c 0.27761,-0.054 1.27569,0.51711 2.04769,1.80809 0.32572,0.54468 0.0835,0.51334 0.40308,1.0653 0.7813,1.34955 -0.31012,1.94535 -0.27664,2.04003 0.0602,0.17032 0.34444,0.97323 -0.171,0.76729 -0.11463,0.89611 1.20778,0.84594 0.59295,1.86332 -0.25218,0.006 -1.42123,-0.23438 -1.64192,0.0862 1.21585,-0.61206 2.77054,0.90375 2.86591,1.49333 0.762,0.37482 0.44819,1.15127 1.44193,1.95061 l -2.05971,1.79824 c -0.62226,-0.0786 -1.35131,-0.40357 -2.1391,-1.12601 -0.9483,-0.26809 -2.49464,-0.88996 -2.95929,-2.11318 -2.04537,-0.82674 -2.17558,-1.08646 -2.30973,-1.92014 -0.0971,-0.23808 -1.332104,-0.87601 -1.317464,-2.00015 -1.31943,-0.20294 -1.50225,-1.12744 -1.6418,-1.88586 0,0 -1.10773,-1.56594 0.68393,-2.3464 1.87766,-0.81792 5.036304,0.5534 6.119124,1.23652 1.23771,0.78083 0.4598,-2.71282 0.362,-2.71722 z"
         id="path1998302"
         sodipodi:nodetypes="cssscccccccccccsscc" />
      <path
         style="vector-effect:none;fill:#4c699b;fill-opacity:1;stroke:none;stroke-width:0.132292;stroke-linecap:butt;stroke-linejoin:miter;stroke-miterlimit:4;stroke-dasharray:none;stroke-dashoffset:0;stroke-opacity:1"
         d="m 105.3303,128.64633 c 0.0887,0.59878 1.05739,0.9872 1.53321,0.8009 l 0.69186,0.34204 0.36644,-1.01426 -0.96967,-0.62141 c -0.4283,-0.63947 -0.80794,-1.35161 -1.55835,-1.35461 -0.69128,-0.71627 -1.51883,-1.41409 -2.22773,-1.21914 -0.76414,-0.36221 -1.47075,-0.92739 -2.42483,-0.6773 -0.830584,-0.64933 -1.979214,-0.73495 -2.758174,-0.56893 0,0 -1.10999,0.24455 -0.48427,1.22494 0.62571,0.98039 7.831514,3.08777 7.831514,3.08777 z"
         id="path2004609"
         sodipodi:nodetypes="cccccccccsc" />
      <path
         id="path2002465"
         style="display:inline;vector-effect:none;fill:#3d557e;fill-opacity:1;stroke:none;stroke-width:0.132292;stroke-linecap:butt;stroke-linejoin:miter;stroke-miterlimit:4;stroke-dasharray:none;stroke-dashoffset:0;stroke-opacity:1"
         d="m 96.84573,132.95196 c 0.26659,1.00256 0.46276,1.96947 0.0966,2.65163 1.04727,0.98007 0.12385,0.72303 0.59794,2.64655 l -1.72239,0.24382 c -0.18281,-1.01847 -1.67145,-1.20706 -1.36917,-2.52802 -0.62149,-0.95997 -0.99542,-1.66489 -0.87043,-2.34176 -1.44471,-1.91242 -0.92177,-3.06512 -0.96041,-3.51688 -0.76354,-0.75218 -0.47895,-1.29937 -0.6826,-2.0556 -1.49628,0.0459 -2.44522,-2.58087 -2.02798,-2.24186 -0.41693,-0.002 -2.13301,-0.29722 -2.17011,-1.97193 0,0 -2.16857,-1.97817 -2.34619,-2.80811 -0.32098,-1.49979 1.02378,-1.37343 1.04305,-1.35239 0.34637,0.36777 1.80888,-0.39422 1.6371,-0.11397 -0.0699,0.11404 5.67081,2.61802 6.09777,2.55311 1.90511,0.78112 2.08811,1.667 2.34326,1.90049 0.81594,0.0855 1.5776,0.34663 2.39841,1.36014 1.32337,-0.0122 2.22406,0.75279 2.57426,1.2907 1.57094,0.19537 2.65648,1.66987 2.60339,1.91653 1.51161,0.534 1.74021,2.30643 1.56013,2.49361 1.02296,1.52031 0.68048,1.23485 0.91709,2.11637 0.25483,0.66695 0.61555,1.08446 -0.3461,1.70943 -1.00201,-0.0966 -1.25962,-0.438 -1.49815,-1.46957 -0.18074,-0.20961 -0.39,-0.18161 -1.00605,-0.64275 -2.63636,-0.5781 -4.16709,0.58627 -6.86942,0.16046 z"
         sodipodi:nodetypes="ccccccccccscsccccccccccc" />
      <path
         style="vector-effect:none;fill:#3d557e;fill-opacity:1;stroke:none;stroke-width:0.132292;stroke-linecap:butt;stroke-linejoin:miter;stroke-miterlimit:4;stroke-dasharray:none;stroke-dashoffset:0;stroke-opacity:1"
         d="m 103.25746,128.67748 c 1.00576,0.0271 1.57173,0.79852 2.0579,1.70497 0.26228,0.19984 0.91077,0.9649 1.17814,1.9173 0.17316,1.30983 0.9835,1.81676 1.09174,2.01939 0.0769,0.23921 0.0899,1.41321 1.44083,1.62004 0.62113,1.51156 2.19015,2.2299 2.20246,1.83464 0.63506,2.08711 1.60453,1.2312 1.87459,1.88634 0.16172,1.02587 0.61925,0.67472 0.96528,0.93296 l -0.49921,0.6034 c -0.79417,0.0835 -0.98081,0.13012 -1.78183,-0.51891 -1.48821,-0.0813 -2.28155,-0.91049 -3.09731,-1.68018 -0.97718,0.0616 -1.29129,-1.02407 -1.63526,-1.23928 -0.0165,0.0141 -1.2629,-0.93829 -0.69733,-2.41157 -0.32552,-0.71001 -3.98699,-4.36042 -3.95519,-5.06205 0.0318,-0.70162 0.85519,-1.60705 0.85519,-1.60705 z"
         id="path93462"
         sodipodi:nodetypes="cccccccccccccsc" />
      <path
         id="path82852"
         style="display:inline;vector-effect:none;fill:#4c699b;fill-opacity:1;stroke:none;stroke-width:0.132292;stroke-linecap:butt;stroke-linejoin:miter;stroke-miterlimit:4;stroke-dasharray:none;stroke-dashoffset:0;stroke-opacity:1"
         d="m 96.84573,132.95196 c 0.26659,1.00256 0.46276,1.96947 0.0966,2.65163 1.04727,0.98007 0.12385,0.72303 0.59794,2.64655 l -0.65464,-0.0174 c -0.18281,-1.01847 -1.509757,-1.66204 -1.207477,-2.983 -0.842555,-0.33257 -1.001506,-1.16491 -0.617076,-2.47073 -1.44471,-1.91242 -0.762312,-3.38342 -0.800952,-3.83518 -0.76354,-0.75218 0.06059,-1.513 -0.143059,-2.26923 -1.39365,0.15099 -1.204874,-2.16652 -1.121302,-2.16918 -0.552751,-0.13317 -1.734116,-0.97609 -1.010467,-1.9161 -0.06571,0.0458 -2.681764,-0.86274 -3.82107,-2.07595 -0.497847,-0.53013 -3.169452,-0.16988 -2.773237,0.51646 -0.320978,-1.49979 1.02378,-1.37343 1.04305,-1.35239 0.198222,0.44081 5.405185,2.76833 5.552477,2.89127 0.102689,0.0857 2.037394,-0.32564 2.464354,-0.39055 1.90511,0.78112 1.806149,1.60542 2.061299,1.83891 0.81594,0.0855 1.5776,0.34663 2.39841,1.36014 1.32337,-0.0122 2.22406,0.75279 2.57426,1.2907 1.57094,0.19537 2.65648,1.66987 2.60339,1.91653 1.51161,0.534 1.74021,2.30643 1.56013,2.49361 1.02296,1.52031 0.68048,1.23485 0.91709,2.11637 0.25483,0.66695 0.61555,1.08446 -0.3461,1.70943 -1.00201,-0.0966 -1.25962,-0.438 -1.49815,-1.46957 -0.16226,-0.007 -1.31636,-0.008 -1.44666,-0.93605 -0.82185,0.43709 -1.92886,-0.0596 -1.94203,-0.19246 -0.76523,0.24473 -2.129075,-0.22205 -2.113611,-0.92375 -0.387642,0.13003 -1.387659,0.17249 -1.642705,-0.8045 -0.229005,0.6589 0.395552,1.84895 -0.730464,2.37444 z"
         sodipodi:nodetypes="ccccccccccsccscccccccccccccc" />
      <path
         style="vector-effect:none;fill:#ea9c00;fill-opacity:1;stroke:none;stroke-width:0.118919;stroke-linecap:butt;stroke-linejoin:miter;stroke-miterlimit:4;stroke-dasharray:none;stroke-dashoffset:0;stroke-opacity:1"
         d="m 87.374816,118.92108 c 0,0 -0.56585,0.50157 -0.86003,1.03023 -0.29508,0.53029 0.20682,1.9463 0.97277,1.70651 0.40834,-0.12784 0.90582,-0.86948 0.73297,-1.66419 -0.17288,-0.79471 -0.84571,-1.07255 -0.84571,-1.07255 z"
         id="path2076644"
         sodipodi:nodetypes="csssc" />
      <path
         style="vector-effect:none;fill:#ab0000;fill-opacity:1;stroke:none;stroke-width:0.132292;stroke-linecap:butt;stroke-linejoin:miter;stroke-miterlimit:4;stroke-dasharray:none;stroke-dashoffset:0;stroke-opacity:1"
         d="m 87.109356,118.40009 c -0.0834,1.19072 5.85531,3.97383 7.32632,3.66329 0.35207,-0.0743 0.51435,-0.23282 0.51435,-0.23282 0,0 0.52852,-2.65591 -0.92685,-4.45009 -0.36172,-0.44593 -1.07188,1.96018 -1.20392,2.65341 -0.23386,1.22781 -4.49939,-0.18046 -5.44398,-2.05785 -0.29037,0.37346 -0.18797,0.36055 -0.26592,0.42406 z"
         id="path2071300"
         sodipodi:nodetypes="cscsscc" />
      <path
         style="vector-effect:none;fill:#ffd31a;fill-opacity:1;stroke:none;stroke-width:0.118919;stroke-linecap:butt;stroke-linejoin:miter;stroke-miterlimit:4;stroke-dasharray:none;stroke-dashoffset:0;stroke-opacity:1"
         d="m 87.123186,118.71812 c -0.10106,-0.0825 -0.44422,0.42605 -0.59577,1.07095 -0.1384,0.58894 -0.0147,1.16727 0.20152,1.53649 0.21627,0.36921 1.14715,-0.55219 0.97993,-1.3481 -0.16723,-0.79593 -0.46608,-1.28508 -0.58568,-1.25934 z"
         id="path2087226"
         sodipodi:nodetypes="csssc" />
      <path
         style="vector-effect:none;fill:#ffffff;fill-opacity:1;stroke:none;stroke-width:0.118919;stroke-linecap:butt;stroke-linejoin:miter;stroke-miterlimit:4;stroke-dasharray:none;stroke-dashoffset:0;stroke-opacity:1"
         d="m 87.063796,118.76542 c -0.0538,-0.0575 -0.23955,0.21155 -0.44517,0.83447 -0.18964,0.5745 -0.15178,1.10621 0.0645,1.47543 0.21627,0.36921 1.02462,-0.52525 0.85177,-1.31996 -0.17288,-0.79471 -0.47108,-0.98994 -0.47108,-0.98994 z"
         id="path2076526"
         sodipodi:nodetypes="csssc" />
      <path
         style="vector-effect:none;fill:#333333;fill-opacity:1;stroke:none;stroke-width:0.132292;stroke-linecap:butt;stroke-linejoin:miter;stroke-miterlimit:4;stroke-dasharray:none;stroke-dashoffset:0;stroke-opacity:1"
         d="m 88.007346,120.2176 c 1.27392,1.26063 3.18713,2.03756 3.89774,1.95234 1.04028,-0.12476 1.91342,0.12449 2.53671,-0.0918 l 0.45104,0.24462 c -1.13365,-0.073 -2.30497,0.25382 -2.936,0.32283 -0.8583,0.0939 -2.9925,-0.48937 -4.40276,-1.2262 0.25563,-0.23768 0.4004,-0.64812 0.45324,-1.20181 z"
         id="path2094672"
         sodipodi:nodetypes="csccsccc" />
      <path
         style="vector-effect:none;fill:#ab0000;fill-opacity:1;stroke:none;stroke-width:0.132292;stroke-linecap:butt;stroke-linejoin:miter;stroke-miterlimit:4;stroke-dasharray:none;stroke-dashoffset:0;stroke-opacity:1"
         d="m 86.664496,122.47624 c 0,0 -0.34131,0.11006 -0.1647,0.61211 0.17661,0.50205 0.8601,0.70475 0.94679,0.71938 0.41444,0.0699 0.20244,-0.73451 -0.19672,-1.03179 -0.33571,-0.25002 -0.58537,-0.2997 -0.58537,-0.2997 z"
         id="path2107283"
         sodipodi:nodetypes="csssc" />
      <path
         style="vector-effect:none;fill:#1a1a1a;fill-opacity:1;stroke:none;stroke-width:0.132292;stroke-linecap:butt;stroke-linejoin:miter;stroke-miterlimit:4;stroke-dasharray:none;stroke-dashoffset:0;stroke-opacity:1"
         d="m 89.045726,120.22208 -0.18191,1.85666 c -0.61515,0.29786 -1.0933,0.79885 -1.84868,0.88881 l 0.16902,0.38844 c 0.69178,-0.20556 1.31139,-0.62548 1.9396,-1.01988 l 2.69933,-0.78059 -0.54965,-0.31325 -1.71312,0.52237 0.0212,-1.23946 z"
         id="path2101323"
         sodipodi:nodetypes="cccccccccc" />
      <path
         style="vector-effect:none;fill:#ff0008;fill-opacity:1;stroke:none;stroke-width:0.132292;stroke-linecap:butt;stroke-linejoin:miter;stroke-miterlimit:4;stroke-dasharray:none;stroke-dashoffset:0;stroke-opacity:1"
         d="m 92.644406,116.3474 10.234354,7.78011 -8.046414,-5.54354 -1.35449,-0.96263 c -0.90354,-0.36178 -0.98276,-0.3667 -0.83345,-1.27394 z"
         id="path2122053"
         sodipodi:nodetypes="ccccc" />
      <path
         style="vector-effect:none;fill:#ab0000;fill-opacity:1;stroke:none;stroke-width:0.132292;stroke-linecap:butt;stroke-linejoin:miter;stroke-miterlimit:4;stroke-dasharray:none;stroke-dashoffset:0;stroke-opacity:1"
         d="m 93.678036,117.98771 6.368284,5.22625 -4.717274,-3.19921 -1.04019,-0.89798 c -0.90354,-0.36178 -0.76013,-0.22182 -0.61082,-1.12906 z"
         id="path2126888"
         sodipodi:nodetypes="ccccc" />
      <path
         style="vector-effect:none;fill:#4c699b;fill-opacity:1;stroke:none;stroke-width:0.132292;stroke-linecap:butt;stroke-linejoin:miter;stroke-miterlimit:4;stroke-dasharray:none;stroke-dashoffset:0;stroke-opacity:1"
         d="m 113.13644,137.33324 6.19321,5.14935 -4.73018,-3.58813 -1.4633,-1.09837 c -0.85082,-0.47264 -0.26206,0.41838 2.7e-4,-0.46285 z"
         id="path2132120"
         sodipodi:nodetypes="ccccc" />
      <path
         style="vector-effect:none;fill:#4c699b;fill-opacity:1;stroke:none;stroke-width:0.132292;stroke-linecap:butt;stroke-linejoin:miter;stroke-miterlimit:4;stroke-dasharray:none;stroke-dashoffset:0;stroke-opacity:1"
         d="m 108.30068,131.92382 4.9034,3.77613 -3.44037,-2.21491 -1.4633,-1.09837 c -0.85082,-0.47264 -0.26206,0.41838 2.7e-4,-0.46285 z"
         id="path2136469"
         sodipodi:nodetypes="ccccc" />
      <path
         style="vector-effect:none;fill:#3d557e;fill-opacity:1;stroke:none;stroke-width:0.132292;stroke-linecap:butt;stroke-linejoin:miter;stroke-miterlimit:4;stroke-dasharray:none;stroke-dashoffset:0;stroke-opacity:1"
         d="m 100.81851,138.42212 6.08925,6.41746 -4.85219,-4.67173 -1.30029,-1.28722 c -0.778611,-0.58398 -0.31653,0.37885 0.0632,-0.45851 z"
         id="path2136473"
         sodipodi:nodetypes="cccccc" />
      <path
         style="vector-effect:none;fill:#3d557e;fill-opacity:1;stroke:none;stroke-width:0.132292;stroke-linecap:butt;stroke-linejoin:miter;stroke-miterlimit:4;stroke-dasharray:none;stroke-dashoffset:0;stroke-opacity:1"
         d="m 107.19364,142.20992 4.24252,4.27719 -3.00546,-2.53146 -1.30029,-1.28722 c -0.77861,-0.58398 -0.31653,0.37885 0.0632,-0.45851 z"
         id="path2140650"
         sodipodi:nodetypes="cccccc" />
      <path
         style="vector-effect:none;fill:#4c699b;fill-opacity:1;stroke:none;stroke-width:0.132292;stroke-linecap:butt;stroke-linejoin:miter;stroke-miterlimit:4;stroke-dasharray:none;stroke-dashoffset:0;stroke-opacity:1"
         d="m 96.64226,135.75243 8.28378,10.67913 -7.19555,-8.83695 -1.18921,-1.39049 c -0.72757,-0.64646 -0.34682,0.35134 0.10095,-0.4517 z"
         id="path2140652"
         sodipodi:nodetypes="ccccc" />
      <path
         style="vector-effect:none;fill:#3d557e;fill-opacity:1;stroke:none;stroke-width:0.132292;stroke-linecap:butt;stroke-linejoin:miter;stroke-miterlimit:4;stroke-dasharray:none;stroke-dashoffset:0;stroke-opacity:1"
         d="m 111.1542,141.43369 12.0628,9.90907 -10.59977,-8.34785 -1.4633,-1.09837 c -0.85082,-0.47264 -0.26206,0.41838 2.7e-4,-0.46285 z"
         id="path2140654"
         sodipodi:nodetypes="ccccc" />
      <path
         style="vector-effect:none;fill:#ffffff;fill-opacity:1;stroke:none;stroke-width:0.227844;stroke-linecap:butt;stroke-linejoin:miter;stroke-miterlimit:4;stroke-dasharray:none;stroke-dashoffset:0;stroke-opacity:1"
         d="m 113.50122,144.3214 16.92807,16.53624 -9.6834,-8.79839 z"
         id="path2140656"
         sodipodi:nodetypes="cccc" />
      <path
         style="vector-effect:none;fill:#ffffff;fill-opacity:1;stroke:none;stroke-width:0.227844;stroke-linecap:butt;stroke-linejoin:miter;stroke-miterlimit:4;stroke-dasharray:none;stroke-dashoffset:0;stroke-opacity:1"
         d="m 114.71915,136.64486 14.70878,12.49002 -6.93845,-5.49181 z"
         id="path2141269"
         sodipodi:nodetypes="cccc" />
      <path
         style="vector-effect:none;fill:#ffffff;fill-opacity:1;stroke:none;stroke-width:0.227844;stroke-linecap:butt;stroke-linejoin:miter;stroke-miterlimit:4;stroke-dasharray:none;stroke-dashoffset:0;stroke-opacity:1"
         d="m 107.58037,144.92793 13.05364,14.21096 -5.87524,-5.72911 z"
         id="path2141484"
         sodipodi:nodetypes="cccc" />
      <path
         style="vector-effect:none;fill:#ffffff;fill-opacity:1;stroke:none;stroke-width:0.227844;stroke-linecap:butt;stroke-linejoin:miter;stroke-miterlimit:4;stroke-dasharray:none;stroke-dashoffset:0;stroke-opacity:1"
         d="m 97.637636,139.24539 13.053644,14.21096 -6.67955,-6.78231 z"
         id="path2141486"
         sodipodi:nodetypes="cccc" />
      <path
         style="vector-effect:none;fill:#ffffff;fill-opacity:1;stroke:none;stroke-width:0.227844;stroke-linecap:butt;stroke-linejoin:miter;stroke-miterlimit:4;stroke-dasharray:none;stroke-dashoffset:0;stroke-opacity:1"
         d="m 106.62787,125.8004 15.02742,12.10478 -7.61652,-5.71005 z"
         id="path2141587"
         sodipodi:nodetypes="cccc" />
    </g>
  </g>
</svg>
