<?xml version="1.0" encoding="UTF-8" standalone="no"?>
<svg
   inkscape:version="1.1.1 (3bf5ae0, 2021-09-20)"
   id="svg8"
   version="1.1"
   viewBox="0 0 71.653272 74.759885"
   height="282.55704"
   width="270.81552"
   sodipodi:docname="alpaca in cannon.svg"
   xmlns:inkscape="http://www.inkscape.org/namespaces/inkscape"
   xmlns:sodipodi="http://sodipodi.sourceforge.net/DTD/sodipodi-0.dtd"
   xmlns:xlink="http://www.w3.org/1999/xlink"
   xmlns="http://www.w3.org/2000/svg"
   xmlns:svg="http://www.w3.org/2000/svg"
   xmlns:rdf="http://www.w3.org/1999/02/22-rdf-syntax-ns#"
   xmlns:cc="http://creativecommons.org/ns#"
   xmlns:dc="http://purl.org/dc/elements/1.1/">
  <defs
     id="defs2">
    <linearGradient
       inkscape:collect="always"
       xlink:href="#linearGradient1575544"
       id="linearGradient1587060"
       gradientUnits="userSpaceOnUse"
       x1="299.91559"
       y1="235.38164"
       x2="332.56287"
       y2="195.61546" />
    <linearGradient
       inkscape:collect="always"
       id="linearGradient1575544">
      <stop
         style="stop-color:#597cb9;stop-opacity:1;"
         offset="0"
         id="stop1575540" />
      <stop
         style="stop-color:#8580b9;stop-opacity:1"
         offset="1"
         id="stop1575542" />
    </linearGradient>
    <radialGradient
       inkscape:collect="always"
       xlink:href="#linearGradient1167603"
       id="radialGradient1167423"
       gradientUnits="userSpaceOnUse"
       gradientTransform="matrix(-0.91553228,-0.11327278,-0.14747828,1.1919998,434.65018,267.17047)"
       cx="122.59342"
       cy="-37.616005"
       fx="122.59342"
       fy="-37.616005"
       r="17.44968" />
    <linearGradient
       inkscape:collect="always"
       id="linearGradient1167603">
      <stop
         style="stop-color:#b2e5fe;stop-opacity:1"
         offset="0"
         id="stop1167597" />
      <stop
         style="stop-color:#b2e5fe;stop-opacity:1"
         offset="0.32564655"
         id="stop1167599" />
      <stop
         style="stop-color:#374d73;stop-opacity:1"
         offset="1"
         id="stop1167601" />
    </linearGradient>
    <linearGradient
       inkscape:collect="always"
       xlink:href="#linearGradient1602287"
       id="linearGradient1575546"
       x1="308.66772"
       y1="226.75961"
       x2="336.38562"
       y2="200.23082"
       gradientUnits="userSpaceOnUse" />
    <linearGradient
       inkscape:collect="always"
       id="linearGradient1602287">
      <stop
         style="stop-color:#597cb9;stop-opacity:1;"
         offset="0"
         id="stop1602283" />
      <stop
         style="stop-color:#98a5dc;stop-opacity:1"
         offset="1"
         id="stop1602285" />
    </linearGradient>
    <linearGradient
       inkscape:collect="always"
       xlink:href="#linearGradient1596664"
       id="linearGradient1587163"
       gradientUnits="userSpaceOnUse"
       x1="306.18112"
       y1="218.48386"
       x2="340.41153"
       y2="211.02837" />
    <linearGradient
       inkscape:collect="always"
       id="linearGradient1596664">
      <stop
         style="stop-color:#3d557e;stop-opacity:1"
         offset="0"
         id="stop1596660" />
      <stop
         style="stop-color:#597cb9;stop-opacity:0.45270407"
         offset="1"
         id="stop1596662" />
    </linearGradient>
    <linearGradient
       inkscape:collect="always"
       xlink:href="#linearGradient1455839"
       id="linearGradient1455841"
       x1="326.61594"
       y1="192.68364"
       x2="318.57721"
       y2="198.52412"
       gradientUnits="userSpaceOnUse" />
    <linearGradient
       inkscape:collect="always"
       id="linearGradient1455839">
      <stop
         style="stop-color:#ffffff;stop-opacity:1;"
         offset="0"
         id="stop1455835" />
      <stop
         style="stop-color:#ffffff;stop-opacity:0;"
         offset="1"
         id="stop1455837" />
    </linearGradient>
    <linearGradient
       inkscape:collect="always"
       xlink:href="#linearGradient1455839"
       id="linearGradient1406679"
       x1="334.58801"
       y1="194.76102"
       x2="329.32458"
       y2="198.63312"
       gradientUnits="userSpaceOnUse" />
  </defs>
  <sodipodi:namedview
     borderlayer="true"
     units="px"
     showgrid="false"
     inkscape:document-rotation="0"
     inkscape:current-layer="layer1"
     inkscape:document-units="px"
     inkscape:cy="72.225907"
     inkscape:cx="132.32998"
     inkscape:zoom="0.98994949"
     inkscape:pageshadow="2"
     inkscape:pageopacity="0"
     borderopacity="1.0"
     bordercolor="#666666"
     pagecolor="#585858"
     id="base"
     inkscape:pagecheckerboard="1"
     inkscape:snap-global="false"
     fit-margin-top="0"
     fit-margin-left="0"
     fit-margin-right="0"
     fit-margin-bottom="0"
     inkscape:window-width="1280"
     inkscape:window-height="967"
     inkscape:window-x="0"
     inkscape:window-y="1"
     inkscape:window-maximized="1" />
  <metadata
     id="metadata5">
    <rdf:RDF>
      <cc:Work
         rdf:about="">
        <dc:format>image/svg+xml</dc:format>
        <dc:type
           rdf:resource="http://purl.org/dc/dcmitype/StillImage" />
      </cc:Work>
    </rdf:RDF>
  </metadata>
  <g
     id="layer1"
     inkscape:groupmode="layer"
     inkscape:label="Layer 1"
     transform="translate(-100.48723,-100.86563)">
    <g
       id="g1918584"
       style="display:inline"
       transform="translate(-180.33396,-75.298392)">
      <path
         style="opacity:1;vector-effect:none;fill:url(#linearGradient1587060);fill-opacity:1;stroke:none;stroke-width:0.132292;stroke-linecap:butt;stroke-linejoin:miter;stroke-miterlimit:4;stroke-dasharray:none;stroke-dashoffset:0;stroke-opacity:1"
         d="m 287.94278,214.61655 c -0.71658,2.2939 3.1265,1.83088 3.53209,0.93129 l 0.89955,1.70341 c -2.1509,1.20042 -2.99536,2.96218 -2.32291,5.37571 -2.08261,1.62485 -4.63942,2.41847 -4.12736,8.59154 -2.37922,0.92952 -4.21276,6.35696 -3.09026,9.51002 0,0 12.99591,9.58718 24.64517,10.16966 11.64923,0.58247 26.70337,-8.91856 26.98665,-8.82522 3.18185,1.04844 3.8421,-4.25308 3.71162,-4.28831 3.14668,0.66611 4.92787,-1.06839 5.28295,-4.42243 -0.10157,-1.65938 -0.11581,-2.5712 -1.73919,-3.72789 0.94268,-1.89236 0.76062,-2.77969 0.45434,-3.88804 -0.11388,-3.77853 -4.12436,0.4582 -3.81201,1.53101 -2.19986,-0.95347 -4.21546,-0.95505 -5.86298,0.94484 -1.99843,-1.75377 -5.36814,0.95929 -7.11414,1.2972 0.059,-2.17397 4.91306,-5.07924 1.92612,-6.92658 7.58599,-1.91164 -0.48588,-4.43689 -5.41342,-2.41835 0.25433,-0.98986 -0.42289,-13.78591 -5.80111,-5.79252 1.98119,-5.00372 -2.49594,-4.29987 -3.49994,-3.73943 0.5169,-4.21918 -0.62204,-10.20007 -1.96463,-12.8795 4.4455,-2.15018 2.19173,-7.65367 13.33666,-6.45045 1.71717,0.31787 4.34034,-0.11046 5.93516,-0.38933 3.3072,-0.57831 1.75397,-3.17506 -0.99111,-1.60583 0.2392,0.7196 0.49433,-1.97995 0.32208,-2.7365 -1.23856,-5.44001 -10.76849,-5.30409 -9.73913,2.46243 0.0394,0.2975 -28.63061,19.27622 -28.63061,19.27622 z"
         id="path1587037"
         sodipodi:nodetypes="ccccccsscccccccccccccscsscc" />
      <path
         style="vector-effect:none;fill:url(#radialGradient1167423);fill-opacity:1;stroke:none;stroke-width:0.115764;stroke-linecap:butt;stroke-linejoin:miter;stroke-miterlimit:4;stroke-dasharray:none;stroke-dashoffset:0;stroke-opacity:1"
         d="m 334.04823,197.20071 -0.2264,7.89624 c -0.0237,0.82813 -1.75733,-0.0795 -1.7779,0.65287 6.86892,1.9813 2.06091,10.62795 0.59059,11.91726 -1.26974,1.11343 -2.36681,1.47038 -4.53715,2.04346 -0.27414,0.9921 -3.18766,-1.73669 -8.57795,3.03353 1.33973,-5.29552 -4.73004,-3.6536 -5.47361,-3.75655 -4.22027,-5.60395 -2.53088,-11.35036 -1.33045,-12.3305 -4.61186,1.63486 3.77504,-4.00399 -0.34663,-11.85796 0.54199,-1.42501 1.47558,-0.33602 3.94291,-2.14362 2.4542,-2.63505 2.12413,0.29619 4.49364,-1.13325 8.80177,0.005 8.21881,-1.34129 8.39453,-0.59729 1.07382,0.65328 3.97733,-1.84098 4.84842,6.27581 z"
         id="path1167379"
         sodipodi:nodetypes="cscsccccccccc" />
      <path
         style="font-variation-settings:normal;opacity:1;fill:#333333;fill-opacity:1;stroke:#4d4d4d;stroke-width:0.79375;stroke-linecap:round;stroke-linejoin:round;stroke-miterlimit:4;stroke-dasharray:none;stroke-dashoffset:0;stroke-opacity:1;stop-color:#000000;stop-opacity:1"
         d="m 342.0024,225.88595 c 0,0 0.81805,-7.22076 0.93657,-7.83297 0.12034,-0.62159 1.61457,-1.33368 2.96855,-0.67391 0.34488,0.16805 1.96844,5.42856 1.96844,5.42856 l -1.98432,0.63666 3.08231,-0.89742 c 0,0 1.13861,-0.13086 2.23301,1.81516 1.09077,1.93957 1.33452,7.21514 -0.31221,8.27321 -0.7405,0.4758 -8.12773,1.37153 -8.12773,1.37153 0,0 -2.21981,-2.9327 -2.04783,-4.54806 0.17198,-1.61537 1.28321,-3.57276 1.28321,-3.57276 z"
         id="path1746521"
         sodipodi:nodetypes="csscccsscsc" />
      <path
         style="opacity:1;vector-effect:none;fill:url(#linearGradient1575546);fill-opacity:1;stroke:none;stroke-width:0.132292;stroke-linecap:butt;stroke-linejoin:miter;stroke-miterlimit:4;stroke-dasharray:none;stroke-dashoffset:0;stroke-opacity:1"
         d="m 287.94278,214.61655 c -0.71658,2.2939 3.1265,1.83088 3.53209,0.93129 l 0.89955,1.70341 c -2.1509,1.20042 -2.99536,2.96218 -2.32291,5.37571 -2.08261,1.62485 -4.63942,2.41847 -4.12736,8.59154 -2.37922,0.92952 -4.21276,6.35696 -3.09026,9.51002 0,0 12.99591,9.58718 24.64517,10.16966 11.64923,0.58247 26.70337,-8.91856 26.98665,-8.82522 3.18185,1.04844 3.8421,-4.25308 3.71162,-4.28831 3.14668,0.66611 4.92787,-1.06839 5.28295,-4.42243 -0.10157,-1.65938 -0.11581,-2.5712 -1.73919,-3.72789 0.94268,-1.89236 0.76062,-2.77969 0.45434,-3.88804 -0.11388,-3.77853 -4.12436,0.4582 -3.81201,1.53101 -2.19986,-0.95347 -4.21546,-0.95505 -5.86298,0.94484 -1.99843,-1.75377 -5.36814,0.95929 -7.11414,1.2972 0.059,-2.17397 4.91306,-5.07924 1.92612,-6.92658 7.58599,-1.91164 -0.48588,-4.43689 -5.41342,-2.41835 0.25433,-0.98986 -0.42289,-13.78591 -5.80111,-5.79252 1.98119,-5.00372 -2.49594,-4.29987 -3.49994,-3.73943 0.5169,-4.21918 -0.62204,-10.20007 -1.96463,-12.8795 4.4455,-2.15018 2.19173,-7.65367 13.33666,-6.45045 1.29916,1.70464 4.20142,0.0602 5.93516,-0.38933 3.24991,-0.84268 1.75397,-3.17506 -0.99111,-1.60583 0.2392,0.7196 0.49433,-1.97995 0.32208,-2.7365 -1.23856,-5.44001 -10.76849,-5.30409 -9.73913,2.46243 0.0394,0.2975 -28.63061,19.27622 -28.63061,19.27622 z"
         id="path1367609"
         sodipodi:nodetypes="ccccccsscccccccccccccscsscc" />
      <path
         style="vector-effect:none;fill:#ffffff;fill-opacity:1;stroke:none;stroke-width:0.115764;stroke-linecap:butt;stroke-linejoin:miter;stroke-miterlimit:4;stroke-dasharray:none;stroke-dashoffset:0;stroke-opacity:1"
         d="m 332.0661,215.96318 c -2.2449,1.48548 -4.75301,1.87493 -8.03166,-0.9447 -0.005,-0.7262 0.0815,-1.62999 0.50049,-1.76298 -0.61761,-1.20624 0.53238,-1.75791 0.97104,-2.38007 2.25002,2.16499 1.98189,3.71625 6.49538,2.97506 1.10358,0.28166 1.11557,0.98291 0.0648,2.11269 z"
         id="path1167381"
         sodipodi:nodetypes="ccccccc" />
      <path
         id="path1167383"
         style="font-variation-settings:normal;vector-effect:none;fill:#000000;fill-opacity:0;stroke:#808080;stroke-width:0.347291;stroke-linecap:round;stroke-linejoin:round;stroke-miterlimit:4;stroke-dasharray:none;stroke-dashoffset:0;stroke-opacity:1;-inkscape-stroke:none;stop-color:#000000"
         d="m 324.5065,213.19911 c -0.70399,0.46147 -0.57183,1.85943 -0.29567,2.05612 m 1.46719,-4.51771 c -1.25639,0.35225 -2.12379,3.09729 0.70557,3.97907"
         sodipodi:nodetypes="cccc" />
      <path
         style="vector-effect:none;fill:#3e2e12;fill-opacity:1;stroke:#3e2e12;stroke-width:0.115764;stroke-linecap:round;stroke-linejoin:round;stroke-miterlimit:4;stroke-dasharray:none;stroke-dashoffset:0;stroke-opacity:1"
         d="m 333.9254,208.82866 c -0.23271,-0.2501 -1.81939,-1.09085 -2.21598,-0.96321 -0.2207,0.1764 -0.2969,0.33816 0.0105,0.5029 0.68769,-0.17153 1.69772,0.22276 2.26345,0.53514 l 0.24632,0.10327 c -0.1136,-0.12489 -0.21057,-0.14082 -0.30429,-0.1781 z"
         id="path1167385"
         sodipodi:nodetypes="cccccc" />
      <path
         style="font-variation-settings:normal;vector-effect:none;fill:#597cb9;fill-opacity:1;stroke:none;stroke-width:0.311028;stroke-linecap:round;stroke-linejoin:round;stroke-miterlimit:4;stroke-dasharray:none;stroke-dashoffset:0;stroke-opacity:1;-inkscape-stroke:none;stop-color:#000000"
         d="m 313.58651,198.48769 c 3.90516,-0.23276 7.18828,-3.9346 7.42215,-4.42885 0.12131,-2.89889 -2.75338,-1.0326 -3.34146,1.56147 -1.50131,-0.7445 -3.14703,1.70964 -4.08069,2.86738 z"
         id="path1167387"
         sodipodi:nodetypes="cccc" />
      <path
         style="mix-blend-mode:normal;fill:none;fill-opacity:1;stroke:#758ec9;stroke-width:0.347291;stroke-linecap:round;stroke-linejoin:round;stroke-miterlimit:4;stroke-dasharray:none;stroke-dashoffset:0;stroke-opacity:1"
         d="m 332.28011,215.66975 c -2.2435,2.34762 -6.96323,1.6411 -8.73865,-1.19042 -1.60396,-2.55807 1.24093,-5.54259 2.01712,-4.08558 1.49912,2.81404 3.43483,4.40285 6.3064,3.41548 0.65106,-0.15115 1.39829,0.83099 0.41512,1.86053 z"
         id="path1007300"
         sodipodi:nodetypes="cssccc" />
      <path
         style="mix-blend-mode:normal;fill:none;fill-opacity:1;stroke:#758ec9;stroke-width:0.347291;stroke-linecap:round;stroke-linejoin:round;stroke-miterlimit:4;stroke-dasharray:none;stroke-dashoffset:0;stroke-opacity:1"
         d="m 327.92381,205.231 c 0.21159,-0.0341 8.32846,-0.50606 7.73606,6.12196 -0.28567,3.19613 -2.84651,8.52252 -8.78086,8.25304"
         id="path1167391"
         sodipodi:nodetypes="csc" />
      <path
         style="font-variation-settings:normal;vector-effect:none;fill:#597cb9;fill-opacity:1;stroke:none;stroke-width:0.286995;stroke-linecap:round;stroke-linejoin:round;stroke-miterlimit:4;stroke-dasharray:none;stroke-dashoffset:0;stroke-opacity:1;-inkscape-stroke:none;stop-color:#000000"
         d="m 333.17285,196.7934 c -3.00562,-0.42349 -3.53066,-3.00291 -3.98872,-3.52523 0.12881,-2.0626 1.31782,-2.34002 2.23548,1.0095 1.23885,-1.24901 1.5011,3.12848 1.75324,2.51573 z"
         id="path1167395"
         sodipodi:nodetypes="cccc" />
      <path
         style="opacity:1;vector-effect:none;fill:url(#linearGradient1587163);fill-opacity:1;stroke:none;stroke-width:0.132292;stroke-linecap:butt;stroke-linejoin:miter;stroke-miterlimit:4;stroke-dasharray:none;stroke-dashoffset:0;stroke-opacity:1"
         d="m 287.94278,214.61655 c -0.71658,2.2939 3.1265,1.83088 3.53209,0.93129 l 0.89955,1.70341 c -2.1509,1.20042 -2.99536,2.96218 -2.32291,5.37571 -2.08261,1.62485 -4.63942,2.41847 -4.12736,8.59154 -2.37922,0.92952 -4.21276,6.35696 -3.09026,9.51002 0,0 12.99591,9.58718 24.64517,10.16966 11.64923,0.58247 26.70337,-8.91856 26.98665,-8.82522 3.18185,1.04844 3.69992,-5.3546 3.56944,-5.38983 3.14668,0.66611 4.64724,-0.65652 5.00232,-4.01056 -0.10157,-1.65938 0.307,-1.88155 -1.31638,-3.03824 0.94268,-1.89236 0.75687,-1.73564 0.45059,-2.84399 -0.11388,-3.77853 -4.19544,0.9898 -3.88309,2.06261 -2.19986,-0.95347 -4.29778,-0.94546 -5.9453,0.95443 -1.99843,-1.75377 -5.34569,0.79646 -7.09169,1.13437 0.059,-2.17397 2.49595,-5.35223 -0.49099,-7.19957 7.47609,-2.06412 -0.38667,-5.09999 -4.15622,-1.47488 0.25433,-0.98986 -0.42289,-13.78591 -5.80111,-5.79252 1.98119,-5.00372 -2.49594,-4.29987 -3.49994,-3.73943 0.5169,-4.21918 0.67257,-12.29296 -0.67002,-14.97239 4.4455,-2.15018 2.37453,-7.65098 13.51946,-6.44776 0.75815,0.81116 1.71685,0.62749 3.49295,-0.006 2.925,-1.04366 1.34418,-1.84631 -0.33687,-1.83358 0.2392,0.7196 0.91633,-1.35444 0.5391,-2.03248 -1.7945,-3.22539 -9.79805,-4.50217 -8.35098,1.60037 0.0692,0.292 -28.63061,19.27622 -28.63061,19.27622 z"
         id="path1587142"
         sodipodi:nodetypes="ccccccsscccccccccccccscsscc" />
      <g
         id="g1167413"
         transform="matrix(-0.87506505,0,0,0.87506505,420.80085,156.43106)">
        <path
           id="path1167401"
           style="opacity:1;vector-effect:none;fill:#ffffff;fill-opacity:1;stroke:none;stroke-width:0.136248;stroke-linecap:butt;stroke-linejoin:miter;stroke-miterlimit:4;stroke-dasharray:none;stroke-dashoffset:0;stroke-opacity:1"
           d="m 114.07161,44.684465 c -1.96432,0.526192 -3.23274,2.821723 -4.37147,10.60488 8.85624,4.099149 10.94923,-1.627908 10.68637,-1.479554 -0.18127,-2.064355 0.4421,-3.036986 -0.84252,-5.591951 -0.63402,-0.191926 -2.71473,0.0403 -5.47238,-3.533375 z"
           sodipodi:nodetypes="ccccc" />
        <path
           id="path1167403"
           style="fill:#333333;fill-opacity:1;stroke-width:2.059;stroke-linecap:round;stroke-linejoin:round;stop-color:#000000"
           d="m 116.10977,48.082613 c 1.67243,-1.04e-4 3.02825,2.038663 3.02829,4.553674 -3e-5,1.898102 -0.35112,2.936594 -1.44891,3.620444 -0.3568,0.222258 -1.38148,0.361996 -1.79171,0.36197 -0.76712,4.8e-5 -1.2553,0.142391 -1.78891,-0.564688 -0.62973,-0.834455 -1.02702,-2.056315 -1.02704,-3.417726 3e-5,-2.515011 1.35585,-4.553778 3.02828,-4.553674 z m -1.06586,0.875934 c -0.41795,0.03807 -0.95672,0.733922 -1.29226,1.669012 -0.39248,1.093778 -0.37315,2.132119 0.0432,2.319242 0.41634,0.18767 1.07236,-0.547519 1.46498,-1.641769 0.39258,-1.094128 0.37304,-2.132634 -0.0436,-2.319242 -0.0527,-0.02371 -0.11042,-0.03284 -0.17228,-0.02724 z m 2.32917,5.194089 c -0.46872,-1.15e-4 -0.84879,0.424927 -0.84894,0.94939 -1.1e-4,0.524663 0.38005,0.950014 0.84894,0.949902 0.46873,-1.69e-4 0.84859,-0.425439 0.84849,-0.949902 -1.5e-4,-0.524263 -0.37994,-0.949223 -0.84849,-0.94939 z"
           sodipodi:nodetypes="ccscscccscscccccccc" />
        <path
           id="path1167405"
           style="opacity:1;vector-effect:none;fill:#333333;fill-opacity:1;stroke:none;stroke-width:0.144424;stroke-linecap:butt;stroke-linejoin:miter;stroke-miterlimit:4;stroke-dasharray:none;stroke-dashoffset:0;stroke-opacity:1"
           d="m 114.01558,44.227382 c -1.94639,0.963777 -3.44549,3.604867 -4.55206,11.168092 7.88891,3.651415 10.67216,-0.16402 11.41133,-1.424492 0.25694,0.0068 1.0934,-0.09743 1.05637,-0.274475 -0.30774,-0.142812 -0.79117,-0.128394 -1.16919,-2.041632 -0.14333,-0.839149 -0.47382,-2.264076 -0.69097,-2.991243 -0.70446,-1.313274 -3.72942,-0.967545 -6.05548,-4.43625 z m 6.01436,9.51012 c 0.24093,-0.251057 -1.99499,5.301391 -10.22612,1.473176 0.6421,-4.07479 2.19237,-9.293608 3.89041,-9.989206 1.14412,1.712555 4.68808,2.553785 5.48181,3.678888 0.41141,1.237063 0.74672,3.643296 0.8539,4.837142 z"
           sodipodi:nodetypes="cccccccccccc" />
        <path
           id="path1167407"
           style="opacity:1;vector-effect:none;fill:#ffffff;fill-opacity:1;stroke:none;stroke-width:0.0911333;stroke-linecap:butt;stroke-linejoin:miter;stroke-miterlimit:4;stroke-dasharray:none;stroke-dashoffset:0;stroke-opacity:1"
           d="m 104.15863,43.867215 c 0.8515,0.800565 1.36907,3.210815 1.8742,9.828506 -4.27867,3.79599 -5.65729,-1.671284 -5.53029,-1.533902 0.0991,-2.163014 0.18509,-3.592099 0.54592,-5.033021 1.2333,0.126295 2.22402,-2.588446 3.11017,-3.261583 z"
           sodipodi:nodetypes="ccccc" />
        <path
           id="path1167409"
           style="fill:#333333;fill-opacity:1;stroke-width:1.458;stroke-linecap:round;stroke-linejoin:round;stop-color:#000000"
           d="m 103.18571,47.322429 c -0.93782,-8.5e-5 -1.69814,1.82291 -1.69814,4.071742 0,1.533527 0.35357,2.869032 0.87586,3.563442 0.24363,0.323903 0.59461,0.115648 0.89291,0.11562 0.32349,3.3e-5 0.55523,0.175835 0.81256,-0.200602 0.4887,-0.714907 0.81496,-2.005316 0.81496,-3.47846 0,-2.248837 -0.76031,-4.071833 -1.69815,-4.071742 z m -0.33576,0.713334 c 0.16127,0.305325 0.10026,1.146688 -0.11174,1.964442 -0.24798,0.956552 -0.63414,1.579239 -0.86251,1.390829 -0.22857,-0.188048 -0.21274,-1.116576 0.0354,-2.073506 0.24808,-0.956818 0.63437,-1.579458 0.86268,-1.390506 0.0289,0.02382 0.0523,0.06354 0.0762,0.108721 z m 0.98963,4.842336 c 0.26287,-1.01e-4 0.47599,0.379955 0.47607,0.848913 6e-5,0.469134 -0.21311,0.849471 -0.47607,0.849369 -0.26283,-1.52e-4 -0.47585,-0.380413 -0.47579,-0.849369 9e-5,-0.468778 0.21307,-0.848761 0.47579,-0.848913 z"
           sodipodi:nodetypes="ccscsccsscscssccccc" />
        <path
           id="path1167411"
           style="opacity:1;vector-effect:none;fill:#333333;fill-opacity:1;stroke:none;stroke-width:0.0960469;stroke-linecap:butt;stroke-linejoin:miter;stroke-miterlimit:4;stroke-dasharray:none;stroke-dashoffset:0;stroke-opacity:1"
           d="m 104.17004,43.413585 c 0.8412,1.174869 1.506,3.967828 1.98987,10.380416 -3.8011,3.518549 -5.54925,0.250667 -5.77438,-1.441969 -0.12271,0.0062 -0.522192,-0.09022 -0.50451,-0.254177 0.14697,-0.132248 0.37785,-0.118898 0.5584,-1.890638 0.10005,-1.135502 0.24082,-2.164702 0.41323,-3.074716 1.20784,-0.545823 3.49074,-3.302562 3.31739,-3.718916 z m -2.92695,4.313756 c -0.22075,1.264616 -0.37915,2.75491 -0.45403,4.408479 -0.11506,-0.23249 1.15169,5.030209 5.08285,1.485115 -0.58394,-5.95754 -1.18854,-8.266974 -1.68668,-9.283384 -1.05095,2.087181 -2.73551,3.143584 -2.94214,3.38979 z"
           sodipodi:nodetypes="cccccccccccc" />
      </g>
      <path
         style="opacity:1;vector-effect:none;fill:#ff0008;fill-opacity:1;stroke:none;stroke-width:0.132292;stroke-linecap:butt;stroke-linejoin:miter;stroke-miterlimit:4;stroke-dasharray:none;stroke-dashoffset:0;stroke-opacity:1"
         d="m 322.17026,183.23856 c -2.38875,-1.82829 -3.09315,-2.52835 -7.2749,-5.68369 -9.3658,-6.91168 -38.65883,13.4419 -33.46104,27.91239 1.64145,4.29255 3.85601,7.40646 6.11431,10.43041 10.12295,-9.18185 19.61669,-18.7363 32.04294,-26.74569 -0.29302,-1.10498 -0.42075,-4.34664 2.57869,-5.91342 z"
         id="path1497111"
         sodipodi:nodetypes="cccccc" />
      <path
         style="opacity:1;vector-effect:none;fill:#ab0000;fill-opacity:1;stroke:none;stroke-width:0.132292;stroke-linecap:butt;stroke-linejoin:miter;stroke-miterlimit:4;stroke-dasharray:none;stroke-dashoffset:0;stroke-opacity:1"
         d="m 292.64725,208.94093 c -7.27241,-4.01625 -7.15257,-18.56993 -3.78652,-22.12735 -5.81484,5.6568 -9.57937,12.65991 -7.42641,18.65368 1.64145,4.29255 3.85601,7.40646 6.11431,10.43041 10.12295,-9.18185 19.61762,-18.72073 32.04387,-26.73012 -0.0498,-0.47146 -0.0939,-0.62755 -0.13135,-1.13868 -13.78798,9.3649 -25.00938,21.70464 -26.81388,20.91206 z"
         id="path1733512"
         sodipodi:nodetypes="cccccccc" />
      <g
         id="g1516741"
         style="display:inline">
        <path
           style="opacity:1;vector-effect:none;fill:#ea9c00;fill-opacity:1;stroke:none;stroke-width:0.132292;stroke-linecap:butt;stroke-linejoin:miter;stroke-miterlimit:4;stroke-dasharray:none;stroke-dashoffset:0;stroke-opacity:1"
           d="m 321.87881,192.32008 c 2.89752,1.39585 4.07504,5.29299 3.536,12.27425 -2.00291,2.25572 -6.85077,2.80937 -9.8458,2.66347 l 0.31276,0.49352 c 3.71919,0.58784 8.36528,-0.13815 10.92454,-2.89314 0.41181,-8.50585 -1.43982,-13.17421 -4.9275,-12.5381 z"
           id="path1311009"
           sodipodi:nodetypes="cccccc" />
        <path
           id="path1313102"
           style="opacity:1;vector-effect:none;fill:#ffd31a;fill-opacity:1;stroke:none;stroke-width:0.500001;stroke-linecap:butt;stroke-linejoin:miter;stroke-miterlimit:4;stroke-dasharray:none;stroke-dashoffset:0;stroke-opacity:1"
           d="m 1246.3965,720.32812 c -6.0207,0.0387 -11.3439,2.1997 -11.0391,5.74805 l -0.709,8.65235 2.295,39.55664 c 6.2563,0.70076 12.4613,0.99624 18.9589,3.61523 6.9198,-0.71509 7.9256,-2.2241 8.834,-8.53516 1.9313,-13.41739 -0.2462,-37.17997 -1.9977,-42.02309 -2.0465,-5.65883 -9.933,-7.05521 -16.3421,-7.01402 z m 0.6094,3.35743 c 3.6005,-0.0552 7.9126,0.8051 11.4531,4.08593 3.6763,7.85628 2.7434,40.05875 2.3125,42.19532 -0.6174,7.48573 -18.3811,1.93555 -18.9531,-1.14453 -2.4584,-3.99615 -2.8619,-43.5289 -2.2566,-42.41939 -0.2612,-1.12783 3.3587,-2.65469 7.4441,-2.71733 z"
           transform="scale(0.26458333)"
           sodipodi:nodetypes="sccccssssccccs" />
        <path
           style="vector-effect:none;fill:#ea9c00;fill-opacity:1;stroke:none;stroke-width:0.132292;stroke-linecap:butt;stroke-linejoin:miter;stroke-miterlimit:4;stroke-dasharray:none;stroke-dashoffset:0;stroke-opacity:1"
           d="m 315.48847,191.77208 c -2.62292,0.40052 -5.08058,2.36492 -5.11673,2.60295 -0.11885,0.78258 -1.45644,5.58023 -0.72399,8.61103 0.88028,3.64253 2.33536,6.97124 2.35538,6.42236 -0.56431,0.55748 4.79316,0.73975 6.80417,0.4047 0,0 -2.39278,0.46455 -3.693,-2.83283 -1.30021,-3.29739 -2.31235,-6.91565 -1.91198,-9.46831 0.40034,-2.55266 2.28615,-5.7399 2.28615,-5.7399 z"
           id="path1338260"
           sodipodi:nodetypes="cssccssc" />
        <path
           style="vector-effect:none;fill:#ea9c00;fill-opacity:1;stroke:none;stroke-width:0.132292;stroke-linecap:butt;stroke-linejoin:miter;stroke-miterlimit:4;stroke-dasharray:none;stroke-dashoffset:0;stroke-opacity:1"
           d="m 327.6883,191.01535 c -0.90649,0.18053 -1.0714,0.40383 -1.51948,0.6799 -0.39408,0.24281 -1.17522,0.13627 -1.90069,-0.22186 1.15553,0.62094 1.95589,1.64745 2.39178,3.09018 0.0997,-0.54964 0.14472,-2.37022 0.31616,-2.74646 0.33636,-0.73819 0.71175,-0.81017 0.71223,-0.80176 z"
           id="path1337784"
           sodipodi:nodetypes="csccsc" />
        <path
           id="path1311300"
           style="vector-effect:none;fill:#ffd31a;fill-opacity:1;stroke:none;stroke-width:0.136627;stroke-linecap:butt;stroke-linejoin:miter;stroke-miterlimit:4;stroke-dasharray:none;stroke-dashoffset:0;stroke-opacity:1"
           d="m 321.27084,191.1537 c -3.00906,0.0233 -6.71224,0.56004 -7.6285,1.44591 -1.62933,1.65152 -1.92029,12.61961 1.17359,16.50959 2.16495,1.25689 10.13076,0.82334 12.40647,-3.88504 0.55745,-7.20029 0.0499,-12.41221 -2.94658,-13.85186 -0.75632,-0.15811 -1.82753,-0.22769 -3.00498,-0.2186 z m -0.38553,1.0971 c 0.91099,-0.002 1.78843,0.0699 2.51976,0.22324 3.00173,1.57264 3.59556,5.86778 3.37085,12.35376 -2.78781,3.13967 -9.11154,3.33033 -10.92957,2.7802 -2.99167,-3.77165 -2.29743,-12.39994 -0.72192,-14.00121 0.88599,-0.85893 3.43281,-1.35012 5.76088,-1.35599 z"
           sodipodi:nodetypes="sccccscccccc" />
        <path
           style="vector-effect:none;fill:#333333;fill-opacity:1;stroke:none;stroke-width:0.132292;stroke-linecap:butt;stroke-linejoin:miter;stroke-miterlimit:4;stroke-dasharray:none;stroke-dashoffset:0;stroke-opacity:1"
           d="m 311.58394,196.69781 -5.68056,5.32786 -14.57919,13.67398 0.88677,1.29788 19.73218,-10.00527 c -0.61275,-3.19263 -0.8128,-6.5852 -0.3592,-10.29445 z"
           id="path1490751"
           sodipodi:nodetypes="cccccc" />
        <path
           style="vector-effect:none;fill:#4d4d4d;fill-opacity:1;stroke:none;stroke-width:0.132292;stroke-linecap:butt;stroke-linejoin:miter;stroke-miterlimit:4;stroke-dasharray:none;stroke-dashoffset:0;stroke-opacity:1"
           d="m 304.71293,203.1422 -5.55947,5.21429 1.78592,4.21526 5.1617,-2.61725 z"
           id="path1339002"
           sodipodi:nodetypes="ccccc" />
        <path
           id="path1339521"
           style="vector-effect:none;fill:url(#linearGradient1455841);fill-opacity:1;stroke:none;stroke-width:0.136627;stroke-linecap:butt;stroke-linejoin:miter;stroke-miterlimit:4;stroke-dasharray:none;stroke-dashoffset:0;stroke-opacity:1"
           d="m 321.00966,192.22032 c 0.91099,-0.002 1.36941,0.15724 2.10075,0.31058 2.83043,1.42641 3.31916,5.489 3.32073,12.1959 -2.7878,3.13967 -8.79983,3.27047 -10.61786,2.72034 -2.99167,-3.77165 -2.26436,-12.23908 -0.68885,-13.84035 0.88598,-0.85893 3.55716,-1.3806 5.88523,-1.38647 z"
           sodipodi:nodetypes="cccccc" />
        <path
           style="opacity:1;vector-effect:none;fill:#ea9c00;fill-opacity:1;stroke:none;stroke-width:0.132292;stroke-linecap:butt;stroke-linejoin:miter;stroke-miterlimit:4;stroke-dasharray:none;stroke-dashoffset:0;stroke-opacity:1"
           d="m 327.95938,192.11585 c 0.79267,-1.12015 4.78586,-0.70798 5.2487,0.35667 0.8468,1.94785 0.82739,9.99761 0.75999,11.11663 -0.13197,2.19127 -4.74366,0.52409 -4.74436,0.52126 0,0 3.03959,0.81714 3.60386,-0.1726 0.6899,-1.21009 -0.0185,-10.11694 -0.43788,-10.98055 -0.6461,-1.33054 -4.64226,-1.02963 -4.43031,-0.84141 z"
           id="path1314524"
           sodipodi:nodetypes="csscssc" />
        <path
           id="path1355406"
           style="vector-effect:none;fill:url(#linearGradient1406679);fill-opacity:1;stroke:none;stroke-width:0.132292;stroke-linecap:butt;stroke-linejoin:miter;stroke-miterlimit:4;stroke-dasharray:none;stroke-dashoffset:0;stroke-opacity:1"
           d="m 329.34167,191.6667 c 0.95257,-0.0172 2.34302,0.11628 3.27977,0.98433 0.97269,2.07864 0.73428,10.37378 0.62027,10.93908 -0.16335,1.9806 -4.47728,0.6328 -4.62863,-0.18213 -0.34665,0.43584 -1.05547,-11.1282 -0.62894,-11.31306 0.0243,-0.0868 0.27789,-0.40871 1.35753,-0.42822 z"
           sodipodi:nodetypes="sccccs" />
      </g>
      <path
         style="opacity:1;vector-effect:none;fill:#1a1a1a;fill-opacity:1;stroke:none;stroke-width:0.132292;stroke-linecap:butt;stroke-linejoin:miter;stroke-miterlimit:4;stroke-dasharray:none;stroke-dashoffset:0;stroke-opacity:1"
         d="m 306.12087,198.91557 4.54142,15.36373 -1.75414,1.4799 -13.82001,-7.01864 1.7432,-1.73707 10.47084,5.28794 -3.28074,-11.64617 z"
         id="path1496389"
         sodipodi:nodetypes="cccccccc" />
      <path
         style="opacity:1;vector-effect:none;fill:#ab0000;fill-opacity:1;stroke:none;stroke-width:0.132292;stroke-linecap:butt;stroke-linejoin:miter;stroke-miterlimit:4;stroke-dasharray:none;stroke-dashoffset:0;stroke-opacity:1"
         d="m 332.70428,217.75242 c 0,0 -5.66719,1.69325 -6.17517,2.0827 -0.508,0.38944 -0.41539,2.48569 -0.41539,2.48569 0,0 2.95002,2.28588 4.83907,0.58925 1.88907,-1.69664 2.69073,-5.00186 1.75149,-5.15764 z"
         id="path1496823" />
      <path
         style="opacity:1;vector-effect:none;fill:#1a1a1a;fill-opacity:1;stroke:none;stroke-width:0.132292;stroke-linecap:butt;stroke-linejoin:miter;stroke-miterlimit:4;stroke-dasharray:none;stroke-dashoffset:0;stroke-opacity:1"
         d="m 328.03189,219.99428 -0.29897,2.41796 c -3.59032,-0.34074 -6.57141,-1.18633 -9.27502,-2.26187 -1.36089,-0.54138 -2.65148,-1.14103 -3.91408,-1.76387 -1.29922,-0.6409 -2.56879,-1.30637 -3.85483,-1.9582 l 1.05037,-1.72711 c 0.9446,0.53667 1.88145,1.08516 2.82955,1.61649 1.11893,0.62706 2.25352,1.23021 3.43501,1.76179 2.90454,1.30683 6.09252,2.18112 10.02797,1.91481 z"
         id="path1627560"
         sodipodi:nodetypes="ccssccssc" />
      <path
         style="opacity:1;vector-effect:none;fill:#333333;fill-opacity:1;stroke:none;stroke-width:0.132292;stroke-linecap:butt;stroke-linejoin:miter;stroke-miterlimit:4;stroke-dasharray:none;stroke-dashoffset:0;stroke-opacity:1"
         d="m 327.76156,220.16789 -0.12966,2.01327 c -3.57339,-0.33913 -6.43431,-1.12339 -9.12777,-2.19168 -1.21779,-0.483 -2.32616,-0.98912 -3.46117,-1.54072 l -0.057,-1.7438 c 1.07814,0.59618 2.05892,1.05523 3.20018,1.55509 2.83339,1.24098 5.75953,2.16606 9.57538,1.90784 z"
         id="path1496825"
         sodipodi:nodetypes="ccsccscc" />
      <path
         style="opacity:1;vector-effect:none;fill:#ff0008;fill-opacity:1;stroke:none;stroke-width:0.132292;stroke-linecap:butt;stroke-linejoin:miter;stroke-miterlimit:4;stroke-dasharray:none;stroke-dashoffset:0;stroke-opacity:1"
         d="m 332.50321,218.15541 c 0,0 -1.05153,0.337 -2.37821,0.75577 0.29794,1.70476 -0.12611,2.46502 -1.17912,4.07223 0.82449,0.18081 0.98118,0.36775 1.72117,-0.29686 1.88907,-1.69664 2.7754,-4.37536 1.83616,-4.53114 z"
         id="path1615376"
         sodipodi:nodetypes="cccsc" />
      <path
         style="opacity:1;vector-effect:none;fill:#1a1a1a;fill-opacity:1;stroke:none;stroke-width:0.132292;stroke-linecap:butt;stroke-linejoin:miter;stroke-miterlimit:4;stroke-dasharray:none;stroke-dashoffset:0;stroke-opacity:1"
         d="m 310.75238,217.20922 1.89169,-2.59067 -2.12719,-2.71936 -3.45798,3.74548 z"
         id="path1634951"
         sodipodi:nodetypes="ccccc" />
      <ellipse
         style="opacity:1;fill:#800000;fill-opacity:1;stroke:none;stroke-width:0.343199;stroke-linecap:round;stroke-linejoin:round;stroke-miterlimit:4;stroke-dasharray:none;stroke-dashoffset:0;stroke-opacity:1;paint-order:normal;stop-color:#000000;stop-opacity:1"
         id="path1715157"
         cx="387.39243"
         cy="336.61783"
         rx="1.7117474"
         ry="1.89683"
         transform="matrix(0.93928759,-0.34313091,-0.23237147,0.97262711,0,0)" />
      <path
         id="path1724818"
         style="opacity:1;fill:#3d557e;fill-opacity:1;stroke:none;stroke-width:0.253274;stroke-linecap:round;stroke-linejoin:round;stroke-miterlimit:4;stroke-dasharray:none;stroke-dashoffset:0;stroke-opacity:1;paint-order:normal;stop-color:#000000;stop-opacity:1"
         d="m 284.9356,196.39641 a 1.2003685,2.255473 37.291788 0 0 0.0855,-0.0169 1.2003685,2.255473 37.291788 0 0 0.0945,-0.0254 1.2003685,2.255473 37.291788 0 0 0.0959,-0.032 1.2003685,2.255473 37.291788 0 0 0.0337,-0.0122 1.2003685,2.255473 37.291788 0 0 0.0332,-0.0136 1.2003685,2.255473 37.291788 0 0 0.0337,-0.0141 1.2003685,2.255473 37.291788 0 0 0.0337,-0.0146 1.2003685,2.255473 37.291788 0 0 0.0342,-0.016 1.2003685,2.255473 37.291788 0 0 0.0337,-0.016 1.2003685,2.255473 37.291788 0 0 0.0342,-0.0174 1.2003685,2.255473 37.291788 0 0 0.0342,-0.0179 1.2003685,2.255473 37.291788 0 0 0.0347,-0.0183 1.2003685,2.255473 37.291788 0 0 0.0342,-0.0197 1.2003685,2.255473 37.291788 0 0 0.0342,-0.0197 1.2003685,2.255473 37.291788 0 0 0.0346,-0.0207 1.2003685,2.255473 37.291788 0 0 0.0342,-0.0216 1.2003685,2.255473 37.291788 0 0 0.0346,-0.0221 1.2003685,2.255473 37.291788 0 0 0.0347,-0.023 1.2003685,2.255473 37.291788 0 0 0.0342,-0.0235 1.2003685,2.255473 37.291788 0 0 0.0342,-0.024 1.2003685,2.255473 37.291788 0 0 0.0346,-0.0249 1.2003685,2.255473 37.291788 0 0 0.0342,-0.0254 1.2003685,2.255473 37.291788 0 0 0.0337,-0.0263 1.2003685,2.255473 37.291788 0 0 0.0342,-0.0268 1.2003685,2.255473 37.291788 0 0 0.0342,-0.0273 1.2003685,2.255473 37.291788 0 0 0.0337,-0.0277 1.2003685,2.255473 37.291788 0 0 0.0337,-0.0287 1.2003685,2.255473 37.291788 0 0 0.0333,-0.0292 1.2003685,2.255473 37.291788 0 0 0.0332,-0.0296 1.2003685,2.255473 37.291788 0 0 0.0332,-0.0301 1.2003685,2.255473 37.291788 0 0 0.0328,-0.031 1.2003685,2.255473 37.291788 0 0 0.0327,-0.031 1.2003685,2.255473 37.291788 0 0 0.0323,-0.032 1.2003685,2.255473 37.291788 0 0 0.0323,-0.032 1.2003685,2.255473 37.291788 0 0 0.0318,-0.0329 1.2003685,2.255473 37.291788 0 0 0.0318,-0.0334 1.2003685,2.255473 37.291788 0 0 0.0313,-0.0334 1.2003685,2.255473 37.291788 0 0 0.0313,-0.0343 1.2003685,2.255473 37.291788 0 0 0.0309,-0.0343 1.2003685,2.255473 37.291788 0 0 0.0304,-0.0353 1.2003685,2.255473 37.291788 0 0 0.0299,-0.0353 1.2003685,2.255473 37.291788 0 0 0.0299,-0.0357 1.2003685,2.255473 37.291788 0 0 0.0295,-0.0362 1.2003685,2.255473 37.291788 0 0 0.029,-0.0362 1.2003685,2.255473 37.291788 0 0 0.0285,-0.0367 1.2003685,2.255473 37.291788 0 0 0.028,-0.0372 1.2003685,2.255473 37.291788 0 0 0.028,-0.0376 1.2003685,2.255473 37.291788 0 0 0.0276,-0.0376 1.2003685,2.255473 37.291788 0 0 0.0266,-0.0381 1.2003685,2.255473 37.291788 0 0 0.0266,-0.0381 1.2003685,2.255473 37.291788 0 0 0.0261,-0.0386 1.2003685,2.255473 37.291788 0 0 0.0256,-0.0386 1.2003685,2.255473 37.291788 0 0 0.0252,-0.039 1.2003685,2.255473 37.291788 0 0 0.0243,-0.039 1.2003685,2.255473 37.291788 0 0 0.0243,-0.039 1.2003685,2.255473 37.291788 0 0 0.0238,-0.0395 1.2003685,2.255473 37.291788 0 0 0.0229,-0.0395 1.2003685,2.255473 37.291788 0 0 0.0229,-0.0395 1.2003685,2.255473 37.291788 0 0 0.0219,-0.04 1.2003685,2.255473 37.291788 0 0 0.0214,-0.0395 1.2003685,2.255473 37.291788 0 0 0.0209,-0.04 1.2003685,2.255473 37.291788 0 0 0.0204,-0.04 1.2003685,2.255473 37.291788 0 0 0.0195,-0.04 1.2003685,2.255473 37.291788 0 0 0.019,-0.04 1.2003685,2.255473 37.291788 0 0 0.0185,-0.04 1.2003685,2.255473 37.291788 0 0 0.018,-0.04 1.2003685,2.255473 37.291788 0 0 0.017,-0.04 1.2003685,2.255473 37.291788 0 0 0.017,-0.04 1.2003685,2.255473 37.291788 0 0 0.0156,-0.04 1.2003685,2.255473 37.291788 0 0 0.0156,-0.04 1.2003685,2.255473 37.291788 0 0 0.0148,-0.0395 1.2003685,2.255473 37.291788 0 0 0.0143,-0.0395 1.2003685,2.255473 37.291788 0 0 0.0134,-0.0395 1.2003685,2.255473 37.291788 0 0 0.0129,-0.039 1.2003685,2.255473 37.291788 0 0 0.0124,-0.039 1.2003685,2.255473 37.291788 0 0 0.0114,-0.039 1.2003685,2.255473 37.291788 0 0 0.0109,-0.0386 1.2003685,2.255473 37.291788 0 0 0.01,-0.0386 1.2003685,2.255473 37.291788 0 0 0.009,-0.0386 1.2003685,2.255473 37.291788 0 0 0.0238,-0.11005 1.2003685,2.255473 37.291788 0 0 0.0156,-0.0974 0.97010348,1.8228088 37.291788 0 0 -0.75371,-0.047 0.97010348,1.8228088 37.291788 0 0 -1.65562,1.96581 0.97010348,1.8228088 37.291788 0 0 0.0451,0.79526 z" />
      <ellipse
         style="opacity:1;fill:#800000;fill-opacity:1;stroke:none;stroke-width:0.334012;stroke-linecap:round;stroke-linejoin:round;stroke-miterlimit:4;stroke-dasharray:none;stroke-dashoffset:0;stroke-opacity:1;paint-order:normal;stop-color:#000000;stop-opacity:1"
         id="ellipse1724901"
         cx="415.51242"
         cy="288.63678"
         rx="1.6840044"
         ry="1.8262399"
         transform="matrix(0.97994133,-0.1992862,-0.38065854,0.92471567,0,0)" />
      <path
         id="path1724903"
         style="opacity:1;fill:#3d557e;fill-opacity:1;stroke:none;stroke-width:0.245971;stroke-linecap:round;stroke-linejoin:round;stroke-miterlimit:4;stroke-dasharray:none;stroke-dashoffset:0;stroke-opacity:1;paint-order:normal;stop-color:#000000;stop-opacity:1"
         d="m 296.33097,185.82217 a 1.1633956,2.194888 47.002977 0 0 0.0856,-0.004 1.1633956,2.194888 47.002977 0 0 0.0957,-0.0111 1.1633956,2.194888 47.002977 0 0 0.098,-0.0171 1.1633956,2.194888 47.002977 0 0 0.0346,-0.007 1.1633956,2.194888 47.002977 0 0 0.0344,-0.009 1.1633956,2.194888 47.002977 0 0 0.0349,-0.009 1.1633956,2.194888 47.002977 0 0 0.0349,-0.009 1.1633956,2.194888 47.002977 0 0 0.0356,-0.0105 1.1633956,2.194888 47.002977 0 0 0.0352,-0.0105 1.1633956,2.194888 47.002977 0 0 0.0358,-0.0118 1.1633956,2.194888 47.002977 0 0 0.0358,-0.0122 1.1633956,2.194888 47.002977 0 0 0.0364,-0.0127 1.1633956,2.194888 47.002977 0 0 0.0361,-0.014 1.1633956,2.194888 47.002977 0 0 0.0361,-0.014 1.1633956,2.194888 47.002977 0 0 0.0367,-0.0148 1.1633956,2.194888 47.002977 0 0 0.0365,-0.0158 1.1633956,2.194888 47.002977 0 0 0.0369,-0.0162 1.1633956,2.194888 47.002977 0 0 0.0371,-0.0171 1.1633956,2.194888 47.002977 0 0 0.0367,-0.0176 1.1633956,2.194888 47.002977 0 0 0.0367,-0.018 1.1633956,2.194888 47.002977 0 0 0.0374,-0.0188 1.1633956,2.194888 47.002977 0 0 0.037,-0.0194 1.1633956,2.194888 47.002977 0 0 0.0366,-0.0203 1.1633956,2.194888 47.002977 0 0 0.0372,-0.0208 1.1633956,2.194888 47.002977 0 0 0.0373,-0.0212 1.1633956,2.194888 47.002977 0 0 0.0368,-0.0217 1.1633956,2.194888 47.002977 0 0 0.037,-0.0225 1.1633956,2.194888 47.002977 0 0 0.0366,-0.023 1.1633956,2.194888 47.002977 0 0 0.0366,-0.0236 1.1633956,2.194888 47.002977 0 0 0.0367,-0.024 1.1633956,2.194888 47.002977 0 0 0.0365,-0.0249 1.1633956,2.194888 47.002977 0 0 0.0364,-0.025 1.1633956,2.194888 47.002977 0 0 0.036,-0.0258 1.1633956,2.194888 47.002977 0 0 0.036,-0.0258 1.1633956,2.194888 47.002977 0 0 0.0357,-0.0269 1.1633956,2.194888 47.002977 0 0 0.0358,-0.0273 1.1633956,2.194888 47.002977 0 0 0.0354,-0.0274 1.1633956,2.194888 47.002977 0 0 0.0355,-0.0283 1.1633956,2.194888 47.002977 0 0 0.035,-0.0283 1.1633956,2.194888 47.002977 0 0 0.0347,-0.0292 1.1633956,2.194888 47.002977 0 0 0.0343,-0.0294 1.1633956,2.194888 47.002977 0 0 0.0344,-0.0298 1.1633956,2.194888 47.002977 0 0 0.0338,-0.0303 1.1633956,2.194888 47.002977 0 0 0.0334,-0.0304 1.1633956,2.194888 47.002977 0 0 0.033,-0.0309 1.1633956,2.194888 47.002977 0 0 0.0326,-0.0314 1.1633956,2.194888 47.002977 0 0 0.0328,-0.0317 1.1633956,2.194888 47.002977 0 0 0.0323,-0.0318 1.1633956,2.194888 47.002977 0 0 0.0314,-0.0325 1.1633956,2.194888 47.002977 0 0 0.0314,-0.0325 1.1633956,2.194888 47.002977 0 0 0.031,-0.033 1.1633956,2.194888 47.002977 0 0 0.0305,-0.0331 1.1633956,2.194888 47.002977 0 0 0.0301,-0.0336 1.1633956,2.194888 47.002977 0 0 0.0293,-0.0337 1.1633956,2.194888 47.002977 0 0 0.0294,-0.0337 1.1633956,2.194888 47.002977 0 0 0.0289,-0.0342 1.1633956,2.194888 47.002977 0 0 0.0279,-0.0343 1.1633956,2.194888 47.002977 0 0 0.0279,-0.0343 1.1633956,2.194888 47.002977 0 0 0.027,-0.0349 1.1633956,2.194888 47.002977 0 0 0.0266,-0.0345 1.1633956,2.194888 47.002977 0 0 0.0261,-0.035 1.1633956,2.194888 47.002977 0 0 0.0256,-0.0351 1.1633956,2.194888 47.002977 0 0 0.0248,-0.0352 1.1633956,2.194888 47.002977 0 0 0.0242,-0.0352 1.1633956,2.194888 47.002977 0 0 0.0238,-0.0353 1.1633956,2.194888 47.002977 0 0 0.0233,-0.0354 1.1633956,2.194888 47.002977 0 0 0.0223,-0.0356 1.1633956,2.194888 47.002977 0 0 0.0223,-0.0356 1.1633956,2.194888 47.002977 0 0 0.0209,-0.0358 1.1633956,2.194888 47.002977 0 0 0.0209,-0.0358 1.1633956,2.194888 47.002977 0 0 0.0201,-0.0354 1.1633956,2.194888 47.002977 0 0 0.0196,-0.0355 1.1633956,2.194888 47.002977 0 0 0.0187,-0.0356 1.1633956,2.194888 47.002977 0 0 0.0182,-0.0352 1.1633956,2.194888 47.002977 0 0 0.0177,-0.0353 1.1633956,2.194888 47.002977 0 0 0.0167,-0.0354 1.1633956,2.194888 47.002977 0 0 0.0162,-0.0351 1.1633956,2.194888 47.002977 0 0 0.0153,-0.0352 1.1633956,2.194888 47.002977 0 0 0.0147,-0.0353 1.1633956,2.194888 47.002977 0 0 0.0391,-0.10107 1.1633956,2.194888 47.002977 0 0 0.0291,-0.0902 0.94022303,1.7738458 47.002977 0 0 -0.72712,-0.14839 0.94022303,1.7738458 47.002977 0 0 -1.89551,1.63614 0.94022303,1.7738458 47.002977 0 0 -0.0707,0.76031 z" />
      <ellipse
         style="opacity:1;fill:#ff656a;fill-opacity:1;stroke:none;stroke-width:0.241978;stroke-linecap:round;stroke-linejoin:round;stroke-miterlimit:4;stroke-dasharray:none;stroke-dashoffset:0;stroke-opacity:1;paint-order:normal;stop-color:#000000;stop-opacity:1"
         id="path1741773"
         cx="308.89328"
         cy="178.48024"
         rx="3.3188498"
         ry="1.58763" />
    </g>
  </g>
</svg>
