<?xml version="1.0" encoding="UTF-8" standalone="no"?>
<svg
   inkscape:version="1.1.1 (3bf5ae0, 2021-09-20)"
   id="svg8"
   version="1.1"
   viewBox="0 0 46.340735 45.98165"
   height="173.78891"
   width="175.14609"
   xmlns:inkscape="http://www.inkscape.org/namespaces/inkscape"
   xmlns:sodipodi="http://sodipodi.sourceforge.net/DTD/sodipodi-0.dtd"
   xmlns="http://www.w3.org/2000/svg"
   xmlns:svg="http://www.w3.org/2000/svg"
   xmlns:rdf="http://www.w3.org/1999/02/22-rdf-syntax-ns#"
   xmlns:cc="http://creativecommons.org/ns#"
   xmlns:dc="http://purl.org/dc/elements/1.1/">
  <defs
     id="defs2" />
  <sodipodi:namedview
     borderlayer="true"
     units="px"
     showgrid="false"
     inkscape:document-rotation="0"
     inkscape:current-layer="layer1"
     inkscape:document-units="px"
     inkscape:cy="41.668793"
     inkscape:cx="98.742411"
     inkscape:zoom="1.979899"
     inkscape:pageshadow="2"
     inkscape:pageopacity="0"
     borderopacity="1.0"
     bordercolor="#666666"
     pagecolor="#585858"
     id="base"
     inkscape:pagecheckerboard="1"
     inkscape:snap-global="false"
     fit-margin-top="0"
     fit-margin-left="0"
     fit-margin-right="0"
     fit-margin-bottom="0"
     inkscape:window-width="1280"
     inkscape:window-height="967"
     inkscape:window-x="0"
     inkscape:window-y="1"
     inkscape:window-maximized="1" />
  <metadata
     id="metadata5">
    <rdf:RDF>
      <cc:Work
         rdf:about="">
        <dc:format>image/svg+xml</dc:format>
        <dc:type
           rdf:resource="http://purl.org/dc/dcmitype/StillImage" />
      </cc:Work>
    </rdf:RDF>
  </metadata>
  <g
     id="layer1"
     inkscape:groupmode="layer"
     inkscape:label="Layer 1"
     transform="translate(-130.28797,-110.81275)">
    <g
       id="g904"
       transform="translate(-116.66166,-93.227893)"
       style="display:inline"
       inkscape:label="der">
      <path
         style="opacity:1;vector-effect:none;fill:#3d557e;fill-opacity:1;stroke:none;stroke-width:0.132292;stroke-linecap:butt;stroke-linejoin:miter;stroke-miterlimit:4;stroke-dasharray:none;stroke-dashoffset:0;stroke-opacity:1"
         d="m 272.72107,215.58043 -7.46831,5.99601 5.98346,-4.45553 1.47861,-1.07767 c 0.85738,-0.46063 0.25615,0.42202 0.006,-0.46281 z"
         id="path850"
         sodipodi:nodetypes="cccccc" />
      <path
         id="path852"
         style="opacity:1;vector-effect:none;fill:#333333;fill-opacity:1;stroke:none;stroke-width:0.500001;stroke-linecap:butt;stroke-linejoin:miter;stroke-miterlimit:4;stroke-dasharray:none;stroke-dashoffset:0;stroke-opacity:1"
         d="m 1024.041,819.67773 -3.8418,2.61524 1.1543,2.32226 3.4219,-0.67578 c 0.047,-0.78315 2.092,-2.7222 -0.7344,-4.26172 z m 40.5274,35.02344 c -0.5645,-0.002 -1.2061,0.0904 -1.961,0.32031 l -0.6894,5.68946 4.2793,1.26758 2.4355,-6.0293 c -1.3626,-0.40655 -2.3711,-1.24345 -4.0644,-1.24805 z m -66.87895,6.16797 -4.99023,6.42774 2.67969,3.56835 8.85939,-4.1875 c -1.1355,-1.51835 -3.5762,-4.74677 -6.54885,-5.80859 z m 20.14455,5.83008 -4.6621,6.54297 2.6816,3.56836 9.1289,-3.67578 c -1.1354,-1.51835 -4.1758,-5.37373 -7.1484,-6.43555 z"
         transform="scale(0.26458333)" />
      <path
         style="opacity:1;vector-effect:none;fill:#ff0008;fill-opacity:1;stroke:none;stroke-width:0.132292;stroke-linecap:butt;stroke-linejoin:miter;stroke-miterlimit:4;stroke-dasharray:none;stroke-dashoffset:0;stroke-opacity:1"
         d="m 291.53519,206.55697 c 0.43161,0.61046 -4.91179,4.36675 -6.38097,4.07769 -0.35308,-0.0695 -1.42135,-0.61669 -1.42135,-0.61669 0,0 -0.82388,-4.14015 2.41821,-5.57417 3.63432,-1.60749 5.38427,2.11089 5.38411,2.11317 z"
         id="path854"
         sodipodi:nodetypes="cscsc" />
      <path
         style="opacity:1;vector-effect:none;fill:#3d557e;fill-opacity:1;stroke:none;stroke-width:0.132292;stroke-linecap:butt;stroke-linejoin:miter;stroke-miterlimit:4;stroke-dasharray:none;stroke-dashoffset:0;stroke-opacity:1"
         d="m 274.82143,216.06269 c -1.00576,0.0271 -1.57173,0.79852 -2.0579,1.70497 -0.26228,0.19984 -1.05345,0.68551 -1.32082,1.63791 -1.14166,0.3833 -1.74572,1.37148 -1.49805,2.12099 -1.29744,0.72266 -1.16201,1.64878 -1.14841,1.96203 -0.88044,-0.51943 -2.29731,1.39061 -2.20246,1.83464 -1.24883,-0.17838 -1.63044,0.86732 -1.89727,1.53439 -0.65155,0.19076 -0.68651,0.66727 -0.97284,1.02729 l 1.39003,1.49902 c 0.79417,0.0835 0.98081,0.13012 1.78183,-0.51891 1.64674,-0.10854 2.67332,-0.87742 3.53853,-1.37503 0,0 3.89368,-1.29781 4.21921,-2.00781 0.32552,-0.71001 1.05514,-7.11081 1.02334,-7.81244 -0.0318,-0.70162 -0.85519,-1.60705 -0.85519,-1.60705 z"
         id="path856"
         sodipodi:nodetypes="ccccccccccc" />
      <path
         style="opacity:1;vector-effect:none;fill:#4c699b;fill-opacity:1;stroke:none;stroke-width:0.132292;stroke-linecap:butt;stroke-linejoin:miter;stroke-miterlimit:4;stroke-dasharray:none;stroke-dashoffset:0;stroke-opacity:1"
         d="m 273.7416,223.16551 c -0.60059,-0.11682 -1.6397,1.89386 -1.53842,2.60127 0.25218,0.006 0.9809,-0.1219 1.20159,0.19871 -1.21585,-0.61206 -2.77054,0.90375 -2.86591,1.49333 -0.762,0.37482 -0.44819,1.15127 -1.44193,1.95061 l 2.05971,1.79824 c 0.62226,-0.0786 1.35131,-0.40357 2.1391,-1.12601 0.9483,-0.26809 2.49464,-0.88996 2.95929,-2.11318 2.04537,-0.82674 2.17558,-1.08646 2.30973,-1.92014 0.0971,-0.23808 1.3321,-0.87601 1.31746,-2.00015 1.31943,-0.20294 1.50225,-1.12744 1.6418,-1.88586 0,0 1.10773,-1.56594 -0.68393,-2.3464 -1.87766,-0.81792 -5.0363,0.5534 -6.11912,1.23652 -1.23771,0.78083 -1.07717,2.11746 -0.97937,2.11306 z"
         id="path858"
         sodipodi:nodetypes="cccccccccccssc" />
      <path
         style="opacity:1;vector-effect:none;fill:#3d557e;fill-opacity:1;stroke:none;stroke-width:0.132292;stroke-linecap:butt;stroke-linejoin:miter;stroke-miterlimit:4;stroke-dasharray:none;stroke-dashoffset:0;stroke-opacity:1"
         d="m 273.3526,216.83374 c -0.0887,0.59878 -1.05739,0.9872 -1.53321,0.8009 l -0.69186,0.34204 -0.36644,-1.01426 0.96967,-0.62141 c 0.4283,-0.63947 0.80794,-1.35161 1.55835,-1.35461 0.69128,-0.71627 1.51883,-1.41409 2.22773,-1.21914 0.76414,-0.36221 1.47075,-0.92739 2.42483,-0.6773 0.83058,-0.64933 1.97921,-0.73495 2.75817,-0.56893 0,0 1.10999,0.24455 0.48427,1.22494 -0.62571,0.98039 -7.83151,3.08777 -7.83151,3.08777 z"
         id="path860"
         sodipodi:nodetypes="cccccccccsc" />
      <path
         id="path862"
         style="display:inline;opacity:1;vector-effect:none;fill:#4c699b;fill-opacity:1;stroke:none;stroke-width:0.132292;stroke-linecap:butt;stroke-linejoin:miter;stroke-miterlimit:4;stroke-dasharray:none;stroke-dashoffset:0;stroke-opacity:1"
         d="m 281.78614,221.03294 c -0.26659,1.00256 -0.46276,1.96947 -0.0966,2.65163 -1.04727,0.98007 -0.12385,0.72303 -0.59794,2.64655 l 1.72239,0.24382 c 0.18281,-1.01847 1.67145,-1.20706 1.36917,-2.52802 0.62149,-0.95997 0.99542,-1.66489 0.87043,-2.34176 1.44471,-1.91242 0.92177,-3.06512 0.96041,-3.51688 0.76354,-0.75218 0.47895,-1.29937 0.6826,-2.0556 1.49628,0.0459 2.44522,-2.58087 2.02798,-2.24186 0.41693,-0.002 2.13301,-0.29722 2.17011,-1.97193 0,0 2.16857,-1.97817 2.34619,-2.80811 0.32098,-1.49979 -1.02378,-1.37343 -1.04305,-1.35239 -0.34637,0.36777 -1.80888,-0.39422 -1.6371,-0.11397 0.0699,0.11404 -5.67081,2.61802 -6.09777,2.55311 -1.90511,0.78112 -2.08811,1.667 -2.34326,1.90049 -0.81594,0.0855 -1.5776,0.34663 -2.39841,1.36014 -1.32337,-0.0122 -2.22406,0.75279 -2.57426,1.2907 -1.57094,0.19537 -2.65648,1.66987 -2.60339,1.91653 -1.51161,0.534 -1.74021,2.30643 -1.56013,2.49361 -1.02296,1.52031 -0.68048,1.23485 -0.91709,2.11637 -0.25483,0.66695 -0.61555,1.08446 0.3461,1.70943 1.00201,-0.0966 1.25962,-0.438 1.49815,-1.46957 0.18074,-0.20961 0.39,-0.18161 1.00605,-0.64275 2.63636,-0.5781 4.16709,0.58627 6.86942,0.16046 z"
         sodipodi:nodetypes="ccccccccccscsccccccccccc" />
      <path
         style="opacity:1;vector-effect:none;fill:#ea9c00;fill-opacity:1;stroke:none;stroke-width:0.118919;stroke-linecap:butt;stroke-linejoin:miter;stroke-miterlimit:4;stroke-dasharray:none;stroke-dashoffset:0;stroke-opacity:1"
         d="m 291.30808,207.10849 c 0,0 0.56585,0.50157 0.86003,1.03023 0.29508,0.53029 -0.20682,1.9463 -0.97277,1.70651 -0.40834,-0.12784 -0.90582,-0.86948 -0.73297,-1.66419 0.17288,-0.79471 0.84571,-1.07255 0.84571,-1.07255 z"
         id="path864"
         sodipodi:nodetypes="csssc" />
      <path
         style="opacity:1;vector-effect:none;fill:#ab0000;fill-opacity:1;stroke:none;stroke-width:0.132292;stroke-linecap:butt;stroke-linejoin:miter;stroke-miterlimit:4;stroke-dasharray:none;stroke-dashoffset:0;stroke-opacity:1"
         d="m 291.57354,206.5875 c 0.0834,1.19072 -5.85531,3.97383 -7.32632,3.66329 -0.35207,-0.0743 -0.51435,-0.23282 -0.51435,-0.23282 0,0 -0.52852,-2.65591 0.92685,-4.45009 0.36172,-0.44593 1.07188,1.96018 1.20392,2.65341 0.23386,1.22781 4.49939,-0.18046 5.44398,-2.05785 0.29037,0.37346 0.18797,0.36055 0.26592,0.42406 z"
         id="path866"
         sodipodi:nodetypes="cscsscc" />
      <path
         style="opacity:1;vector-effect:none;fill:#ffd31a;fill-opacity:1;stroke:none;stroke-width:0.118919;stroke-linecap:butt;stroke-linejoin:miter;stroke-miterlimit:4;stroke-dasharray:none;stroke-dashoffset:0;stroke-opacity:1"
         d="m 291.55971,206.90553 c 0.10106,-0.0825 0.44422,0.42605 0.59577,1.07095 0.1384,0.58894 0.0147,1.16727 -0.20152,1.53649 -0.21627,0.36921 -1.14715,-0.55219 -0.97993,-1.3481 0.16723,-0.79593 0.46608,-1.28508 0.58568,-1.25934 z"
         id="path868"
         sodipodi:nodetypes="csssc" />
      <path
         style="opacity:1;vector-effect:none;fill:#ffffff;fill-opacity:1;stroke:none;stroke-width:0.118919;stroke-linecap:butt;stroke-linejoin:miter;stroke-miterlimit:4;stroke-dasharray:none;stroke-dashoffset:0;stroke-opacity:1"
         d="m 291.6191,206.95283 c 0.0538,-0.0575 0.23955,0.21155 0.44517,0.83447 0.18964,0.5745 0.15178,1.10621 -0.0645,1.47543 -0.21627,0.36921 -1.02462,-0.52525 -0.85177,-1.31996 0.17288,-0.79471 0.47108,-0.98994 0.47108,-0.98994 z"
         id="path870"
         sodipodi:nodetypes="csssc" />
      <path
         style="opacity:1;vector-effect:none;fill:#333333;fill-opacity:1;stroke:none;stroke-width:0.132292;stroke-linecap:butt;stroke-linejoin:miter;stroke-miterlimit:4;stroke-dasharray:none;stroke-dashoffset:0;stroke-opacity:1"
         d="m 290.67555,208.40501 c -1.27392,1.26063 -3.18713,2.03756 -3.89774,1.95234 -1.04028,-0.12476 -1.91342,0.12449 -2.53671,-0.0918 l -0.45104,0.24462 c 1.13365,-0.073 2.30497,0.25382 2.936,0.32283 0.8583,0.0939 2.9925,-0.48937 4.40276,-1.2262 -0.25563,-0.23768 -0.4004,-0.64812 -0.45324,-1.20181 z"
         id="path872"
         sodipodi:nodetypes="csccsccc" />
      <path
         style="opacity:1;vector-effect:none;fill:#ab0000;fill-opacity:1;stroke:none;stroke-width:0.132292;stroke-linecap:butt;stroke-linejoin:miter;stroke-miterlimit:4;stroke-dasharray:none;stroke-dashoffset:0;stroke-opacity:1"
         d="m 292.0184,210.66365 c 0,0 0.34131,0.11006 0.1647,0.61211 -0.17661,0.50205 -0.8601,0.70475 -0.94679,0.71938 -0.41444,0.0699 -0.20244,-0.73451 0.19672,-1.03179 0.33571,-0.25002 0.58537,-0.2997 0.58537,-0.2997 z"
         id="path874"
         sodipodi:nodetypes="csssc" />
      <path
         style="opacity:1;vector-effect:none;fill:#1a1a1a;fill-opacity:1;stroke:none;stroke-width:0.132292;stroke-linecap:butt;stroke-linejoin:miter;stroke-miterlimit:4;stroke-dasharray:none;stroke-dashoffset:0;stroke-opacity:1"
         d="m 289.63717,208.40949 0.18191,1.85666 c 0.61515,0.29786 1.0933,0.79885 1.84868,0.88881 l -0.16902,0.38844 c -0.69178,-0.20556 -1.31139,-0.62548 -1.9396,-1.01988 l -2.69933,-0.78059 0.54965,-0.31325 1.71312,0.52237 -0.0212,-1.23946 z"
         id="path876"
         sodipodi:nodetypes="cccccccccc" />
      <path
         style="opacity:1;vector-effect:none;fill:#ff0008;fill-opacity:1;stroke:none;stroke-width:0.132292;stroke-linecap:butt;stroke-linejoin:miter;stroke-miterlimit:4;stroke-dasharray:none;stroke-dashoffset:0;stroke-opacity:1"
         d="m 286.03849,204.53481 -10.23435,7.78011 8.04641,-5.54354 1.35449,-0.96263 c 0.90354,-0.36178 0.98276,-0.3667 0.83345,-1.27394 z"
         id="path878"
         sodipodi:nodetypes="ccccc" />
      <path
         style="opacity:1;vector-effect:none;fill:#ab0000;fill-opacity:1;stroke:none;stroke-width:0.132292;stroke-linecap:butt;stroke-linejoin:miter;stroke-miterlimit:4;stroke-dasharray:none;stroke-dashoffset:0;stroke-opacity:1"
         d="m 285.00486,206.17512 -6.36828,5.22625 4.71727,-3.19921 1.04019,-0.89798 c 0.90354,-0.36178 0.76013,-0.22182 0.61082,-1.12906 z"
         id="path880"
         sodipodi:nodetypes="ccccc" />
      <path
         style="opacity:1;vector-effect:none;fill:#3d557e;fill-opacity:1;stroke:none;stroke-width:0.132292;stroke-linecap:butt;stroke-linejoin:miter;stroke-miterlimit:4;stroke-dasharray:none;stroke-dashoffset:0;stroke-opacity:1"
         d="m 265.54646,225.52065 -6.19321,5.14935 4.73018,-3.58813 1.4633,-1.09837 c 0.85082,-0.47264 0.26206,0.41838 -2.7e-4,-0.46285 z"
         id="path882"
         sodipodi:nodetypes="ccccc" />
      <path
         style="opacity:1;vector-effect:none;fill:#3d557e;fill-opacity:1;stroke:none;stroke-width:0.132292;stroke-linecap:butt;stroke-linejoin:miter;stroke-miterlimit:4;stroke-dasharray:none;stroke-dashoffset:0;stroke-opacity:1"
         d="m 270.38222,220.11123 -4.9034,3.77613 3.44037,-2.21491 1.4633,-1.09837 c 0.85082,-0.47264 0.26206,0.41838 -2.7e-4,-0.46285 z"
         id="path884"
         sodipodi:nodetypes="ccccc" />
      <path
         style="opacity:1;vector-effect:none;fill:#4c699b;fill-opacity:1;stroke:none;stroke-width:0.132292;stroke-linecap:butt;stroke-linejoin:miter;stroke-miterlimit:4;stroke-dasharray:none;stroke-dashoffset:0;stroke-opacity:1"
         d="m 278.14786,226.44746 -6.08925,6.41746 4.85219,-4.67173 1.30029,-1.28722 c 0.77861,-0.58398 0.31653,0.37885 -0.0632,-0.45851 z"
         id="path886"
         sodipodi:nodetypes="cccccc" />
      <path
         style="opacity:1;vector-effect:none;fill:#4c699b;fill-opacity:1;stroke:none;stroke-width:0.132292;stroke-linecap:butt;stroke-linejoin:miter;stroke-miterlimit:4;stroke-dasharray:none;stroke-dashoffset:0;stroke-opacity:1"
         d="m 271.91447,230.26066 -4.24252,4.27719 3.00546,-2.53146 1.30029,-1.28722 c 0.77861,-0.58398 0.31653,0.37885 -0.0632,-0.45851 z"
         id="path888"
         sodipodi:nodetypes="cccccc" />
      <path
         style="opacity:1;vector-effect:none;fill:#4c699b;fill-opacity:1;stroke:none;stroke-width:0.132292;stroke-linecap:butt;stroke-linejoin:miter;stroke-miterlimit:4;stroke-dasharray:none;stroke-dashoffset:0;stroke-opacity:1"
         d="m 283.86148,222.36754 -8.28378,10.67913 7.19555,-8.83695 1.18921,-1.39049 c 0.72757,-0.64646 0.34682,0.35134 -0.10095,-0.4517 z"
         id="path890"
         sodipodi:nodetypes="ccccc" />
      <path
         style="opacity:1;vector-effect:none;fill:#3d557e;fill-opacity:1;stroke:none;stroke-width:0.132292;stroke-linecap:butt;stroke-linejoin:miter;stroke-miterlimit:4;stroke-dasharray:none;stroke-dashoffset:0;stroke-opacity:1"
         d="m 271.24126,225.96126 -12.0628,9.90907 10.59977,-8.34785 1.4633,-1.09837 c 0.85082,-0.47264 0.26206,0.41838 -2.7e-4,-0.46285 z"
         id="path892"
         sodipodi:nodetypes="ccccc" />
      <path
         style="opacity:1;vector-effect:none;fill:#ffffff;fill-opacity:1;stroke:none;stroke-width:0.227844;stroke-linecap:butt;stroke-linejoin:miter;stroke-miterlimit:4;stroke-dasharray:none;stroke-dashoffset:0;stroke-opacity:1"
         d="m 265.18168,232.50881 -18.23205,17.51348 11.64504,-10.02236 z"
         id="path894"
         sodipodi:nodetypes="cccc" />
      <path
         style="opacity:1;vector-effect:none;fill:#ffffff;fill-opacity:1;stroke:none;stroke-width:0.227844;stroke-linecap:butt;stroke-linejoin:miter;stroke-miterlimit:4;stroke-dasharray:none;stroke-dashoffset:0;stroke-opacity:1"
         d="m 263.96375,224.83227 -14.70878,12.49002 6.53781,-4.95965 z"
         id="path896"
         sodipodi:nodetypes="cccc" />
      <path
         style="opacity:1;vector-effect:none;fill:#ffffff;fill-opacity:1;stroke:none;stroke-width:0.227844;stroke-linecap:butt;stroke-linejoin:miter;stroke-miterlimit:4;stroke-dasharray:none;stroke-dashoffset:0;stroke-opacity:1"
         d="m 271.10253,233.11534 -13.05364,14.21096 5.87524,-5.72911 z"
         id="path898"
         sodipodi:nodetypes="cccc" />
      <path
         style="opacity:1;vector-effect:none;fill:#ffffff;fill-opacity:1;stroke:none;stroke-width:0.227844;stroke-linecap:butt;stroke-linejoin:miter;stroke-miterlimit:4;stroke-dasharray:none;stroke-dashoffset:0;stroke-opacity:1"
         d="m 281.04526,227.4328 -13.05364,14.21096 6.67955,-6.78231 z"
         id="path900"
         sodipodi:nodetypes="cccc" />
      <path
         style="opacity:1;vector-effect:none;fill:#ffffff;fill-opacity:1;stroke:none;stroke-width:0.227844;stroke-linecap:butt;stroke-linejoin:miter;stroke-miterlimit:4;stroke-dasharray:none;stroke-dashoffset:0;stroke-opacity:1"
         d="m 271.10256,215.45126 -15.02742,12.10478 7.61652,-5.71005 z"
         id="path902"
         sodipodi:nodetypes="cccc" />
    </g>
  </g>
</svg>
