<?xml version="1.0" encoding="UTF-8" standalone="no"?>
<svg
   inkscape:version="1.1.1 (3bf5ae0, 2021-09-20)"
   id="svg8"
   version="1.1"
   viewBox="0 0 18.516709 12.30867"
   height="46.520958"
   width="69.984413"
   sodipodi:docname="slider.svg"
   xmlns:inkscape="http://www.inkscape.org/namespaces/inkscape"
   xmlns:sodipodi="http://sodipodi.sourceforge.net/DTD/sodipodi-0.dtd"
   xmlns:xlink="http://www.w3.org/1999/xlink"
   xmlns="http://www.w3.org/2000/svg"
   xmlns:svg="http://www.w3.org/2000/svg"
   xmlns:rdf="http://www.w3.org/1999/02/22-rdf-syntax-ns#"
   xmlns:cc="http://creativecommons.org/ns#"
   xmlns:dc="http://purl.org/dc/elements/1.1/">
  <defs
     id="defs2">
    <linearGradient
       inkscape:collect="always"
       xlink:href="#linearGradient1984447"
       id="linearGradient1984449"
       x1="312.93167"
       y1="139.98975"
       x2="311.62204"
       y2="128.02196"
       gradientUnits="userSpaceOnUse"
       gradientTransform="translate(-200.07464,5.5624115)" />
    <linearGradient
       inkscape:collect="always"
       id="linearGradient1984447">
      <stop
         style="stop-color:#6a4ea6;stop-opacity:1;"
         offset="0"
         id="stop1984443" />
      <stop
         style="stop-color:#6a4ea6;stop-opacity:0;"
         offset="1"
         id="stop1984445" />
    </linearGradient>
  </defs>
  <sodipodi:namedview
     borderlayer="true"
     units="px"
     showgrid="false"
     inkscape:document-rotation="0"
     inkscape:current-layer="layer1"
     inkscape:document-units="px"
     inkscape:cy="40.446429"
     inkscape:cx="41.25"
     inkscape:zoom="5.6"
     inkscape:pageshadow="2"
     inkscape:pageopacity="0"
     borderopacity="1.0"
     bordercolor="#666666"
     pagecolor="#585858"
     id="base"
     inkscape:pagecheckerboard="1"
     inkscape:snap-global="false"
     fit-margin-top="0"
     fit-margin-left="0"
     fit-margin-right="0"
     fit-margin-bottom="0"
     inkscape:window-width="1280"
     inkscape:window-height="967"
     inkscape:window-x="0"
     inkscape:window-y="1"
     inkscape:window-maximized="1" />
  <metadata
     id="metadata5">
    <rdf:RDF>
      <cc:Work
         rdf:about="">
        <dc:format>image/svg+xml</dc:format>
        <dc:type
           rdf:resource="http://purl.org/dc/dcmitype/StillImage" />
      </cc:Work>
    </rdf:RDF>
  </metadata>
  <g
     id="layer1"
     inkscape:groupmode="layer"
     inkscape:label="Layer 1"
     transform="translate(-100.35474,-129.9171)">
    <rect
       style="font-variation-settings:normal;fill:#6a4ea6;fill-opacity:1;stroke:none;stroke-width:0.416398;stroke-linecap:round;stroke-linejoin:round;stroke-miterlimit:4;stroke-dasharray:none;stroke-dashoffset:0;stroke-opacity:1;paint-order:normal;stop-color:#000000"
       id="rect1966365"
       width="18.51671"
       height="12.30867"
       x="100.35474"
       y="129.9171"
       ry="0.77974182" />
    <rect
       style="font-variation-settings:normal;fill:#8d68dd;fill-opacity:1;stroke:none;stroke-width:0.396875;stroke-linecap:round;stroke-linejoin:round;stroke-miterlimit:4;stroke-dasharray:none;stroke-dashoffset:0;stroke-opacity:1;paint-order:normal;stop-color:#000000"
       id="rect1941474"
       width="17.648558"
       height="11.731581"
       x="100.78883"
       y="130.20563"
       ry="0.74318379" />
    <rect
       style="font-variation-settings:normal;fill:url(#linearGradient1984449);fill-opacity:1;stroke:none;stroke-width:0.416398;stroke-linecap:round;stroke-linejoin:round;stroke-miterlimit:4;stroke-dasharray:none;stroke-dashoffset:0;stroke-opacity:1;paint-order:normal;stop-color:#000000"
       id="rect1984342"
       width="18.51671"
       height="12.30867"
       x="100.35474"
       y="129.9171"
       ry="0.77974182" />
    <path
       id="path1957533"
       style="fill:#cac0dd;stroke-width:0.286368;stroke-linecap:round;stroke-linejoin:round;stop-color:#000000"
       inkscape:transform-center-x="0.58118491"
       inkscape:transform-center-y="-3.431535e-06"
       d="m 104.26937,140.04811 v -7.95338 l -3.48715,3.97669 z m 10.68745,0 v -7.95338 l 3.48716,3.97669 z" />
    <path
       id="path1986673"
       style="fill:#9b7cdd;fill-opacity:1;stroke-width:0.431847;stroke-linecap:round;stroke-linejoin:round;stop-color:#000000"
       d="m 107.30036,132.05264 c -0.20548,0 -0.37109,0.16563 -0.37109,0.3711 v 7.0625 c 0,0.20546 0.16658,0.36914 0.37109,0.36914 h 0.0977 c 0.20626,0 0.36914,-0.16288 0.36914,-0.36914 v -7.0625 c 0,-0.20451 -0.16367,-0.3711 -0.36914,-0.3711 z m 2.11719,0 c -0.20548,0 -0.3711,0.16562 -0.3711,0.3711 v 7.0625 c 0,0.20547 0.16659,0.36914 0.3711,0.36914 h 0.0957 c 0.20451,0 0.37109,-0.16367 0.37109,-0.36914 v -7.0625 c 0,-0.20547 -0.16561,-0.3711 -0.37109,-0.3711 z m 2.11523,0 c -0.20548,0 -0.36914,0.1666 -0.36914,0.3711 v 7.0625 c 0,0.20625 0.16287,0.36914 0.36914,0.36914 h 0.0977 c 0.2045,0 0.37109,-0.16367 0.37109,-0.36914 v -7.0625 c 0,-0.20547 -0.16562,-0.3711 -0.37109,-0.3711 z"
       sodipodi:nodetypes="sssssssssssssssssssssssssss" />
    <path
       id="path1986087"
       style="vector-effect:none;fill:#6a4ea6;fill-opacity:1;stroke:none;stroke-width:0.132292;stroke-linecap:butt;stroke-linejoin:miter;stroke-miterlimit:4;stroke-dasharray:none;stroke-dashoffset:0;stroke-opacity:1"
       d="m 100.54835,131.00592 0.0175,0.55345 0.46302,-0.27233 10.20402,-0.0915 z m 18.0852,1.42471 -2.22983,0.13281 2.27737,0.14056 z m 0.0723,1.33016 -16.09204,0.11627 9.59167,-0.0305 5.75003,0.01 z m -18.04694,3.7517 0.12763,0.17829 5.27823,-0.015 12.15689,-0.047 z m 17.8294,3.07785 -6.05648,0.15917 4.30102,0.18603 1.76474,0.40876 z" />
    <path
       id="rect1959597"
       style="fill:#6a4ea6;fill-opacity:1;stroke-width:0.431847;stroke-linecap:round;stroke-linejoin:round;stop-color:#000000"
       d="m 111.6811,132.27572 h 0.0974 c 0.14656,0 0.26455,0.11799 0.26455,0.26455 v 7.06229 c 0,0.14656 -0.11799,0.26456 -0.26455,0.26456 h -0.0974 c -0.14657,0 -0.26456,-0.118 -0.26456,-0.26456 v -7.06229 c 0,-0.14656 0.11799,-0.26455 0.26456,-0.26455 z m -2.1167,0 h 0.0974 c 0.14657,0 0.26456,0.11799 0.26456,0.26455 v 7.06229 c 0,0.14656 -0.11799,0.26456 -0.26456,0.26456 h -0.0974 c -0.14656,0 -0.26455,-0.118 -0.26455,-0.26456 v -7.06229 c 0,-0.14656 0.11799,-0.26455 0.26455,-0.26455 z m -2.11669,0 h 0.0974 c 0.14656,0 0.26455,0.11799 0.26455,0.26455 v 7.06229 c 0,0.14656 -0.11799,0.26456 -0.26455,0.26456 h -0.0974 c -0.14657,0 -0.26456,-0.118 -0.26456,-0.26456 v -7.06229 c 0,-0.14656 0.11799,-0.26455 0.26456,-0.26455 z"
       sodipodi:nodetypes="sssssssssssssssssssssssssss" />
  </g>
</svg>
