<svg width="512" height="512" viewBox="0 0 512 512" fill="none" xmlns="http://www.w3.org/2000/svg">
<g id="Frame">
<g id="Rectangle">
<path id="Vector" d="M509.5 2.5H2.5V509.5H509.5V2.5Z" stroke="white" stroke-width="5" stroke-miterlimit="10"/>
</g>
<g id="Eyes">
<g id="layer1">
<g id="g1088">
<path id="path1076" d="M207.64 163.68C201.99 173.31 183.71 173.93 174.07 168.15C171.92 159.43 192.41 129.19 207.64 163.68ZM267.91 161C261.4 170.92 240.34 171.56 229.24 165.61C226.75 156.62 250.36 125.48 267.91 161Z" fill="white"/>
<path id="path1078" d="M179.1 162.13C179.03 168.92 183.87 172.66 190.03 172.74C196.19 172.82 201.34 169.19 201.41 162.41C201.48 155.63 196.54 150.06 190.41 149.99C184.28 149.92 179.16 155.35 179.1 162.13ZM235 159.4C234.93 166.4 240.36 170.77 247.46 170.84C254.56 170.91 260.64 166.67 260.71 159.68C260.661 156.327 259.303 153.126 256.927 150.759C254.551 148.393 251.345 147.048 247.992 147.011C244.638 146.974 241.403 148.249 238.976 150.564C236.55 152.878 235.123 156.049 235 159.4Z" fill="#333333"/>
<path id="path1080" d="M207.64 163.68C201.99 173.31 183.86 173.41 174.23 167.68C174 166.73 174.52 164.41 174.78 163.08C176.92 152.08 195.67 134.54 207.64 163.72V163.68ZM267.91 161C261.4 170.92 240.34 171.56 229.24 165.61C228.976 164.432 228.997 163.209 229.3 162.04C231.78 150.68 252.3 129.32 267.91 161.04V161Z" stroke="#999999" stroke-width="3" stroke-miterlimit="15.12"/>
<path id="ellipse1082" d="M189.76 161.74C189.76 163.32 191.7 164.62 194.13 164.64C196.56 164.66 198.54 163.42 198.56 161.85C198.58 160.28 196.62 158.98 194.19 158.95C191.76 158.92 189.77 160.17 189.76 161.74ZM248.3 159.38C248.3 160.84 250.3 162.04 252.83 162.07C255.36 162.1 257.4 160.94 257.41 159.48C257.42 158.02 255.41 156.82 252.89 156.8C250.37 156.78 248.31 157.93 248.3 159.38Z" fill="white"/>
</g>
</g>
</g>
</g>
</svg>
