<svg xmlns="http://www.w3.org/2000/svg" viewBox="0 0 512 512"><defs><style>.cls-1,.cls-2{fill:#fff;}.cls-1{stroke:#fff;stroke-miterlimit:10;stroke-width:5px;}.cls-3{fill:#fffff2;}.cls-4,.cls-5{fill:none;stroke:#999;stroke-linecap:round;stroke-width:3px;}.cls-4{stroke-linejoin:bevel;}.cls-5{stroke-linejoin:round;}</style></defs><g id="Rectangle"><rect class="cls-1" x="2.5" y="2.5" width="507" height="507"/></g><g id="Mouth"><g id="layer1"><g id="g300907"><path id="path476892" class="cls-2" d="M232.47,226.65c0,1.33-43.79,8.8-44.54-1.9-.36-5.08-.47-6.18,2.22-6.75a32.24,32.24,0,0,0,4.81-1.43l-.15-3.81c-24.4-1.14-12.66-21.39-12.61-31.9,34.78-27.51,36.2-10.13,56.63-2.12,10.68,30,2.94,45.33-6.36,47.91Z"/><path id="path13904-9" class="cls-3" d="M195.37,214.59l-.1,4,23.06-2.18-.32-2.37c-8.62-.5-6.63-.4-14.49-2.72-3,1.71-5.4,3.31-8.15,3.24Z"/><path id="path90947" class="cls-4" d="M226.51,218c-4.08-2.93-7.39-2.36-10.46,1.1m0,.66c-3.24-2.17-9.29-2.17-12.54,1.43m0-1.9c-2.25-.35-9.37-1.32-11.61,1.85m18.39-7.87c.09,1.2-1.05,4.84,1,4.7l5-.33c2.6-.74,2.44.25,2-4.08m-16.9-1c.11,1.16-1.17,6.2,1.38,6.05l4.32-.26c2.78.16,2.59-.21,2.49-5.17m-14.67.64c.09,1.2-.52,5.8,1.49,5.38a8,8,0,0,1,3-.31c2.22.17,1.82-.73,1.74-5.86"/><path id="path295891-72-6" class="cls-5" d="M193.27,248.7c10.53-3.51,14.35,8.34,13.21,8,6.92-5.34,15.51-.86,16.63,1.28,5.27-4.88,10.75-2.78,11.5-1.8m-1.43-62.47c3.3-.46,4.66.36,7.34,3.73M199,229.25c-3.53.22-10.08-.82-11.09-4.55-2-7.24,4.81-8.57,6.1-7.17m7.36-21c.56,6.8-.47,11.25,2.93,14.07,21.67,10.1,31.83-6.07,32-14.57M193,192.29c-2.86-1.81-6.75-3.13-7-6.17l15.13,10.29c7.49-4.25,16.84-7.41,24.17-12.67-3.34,5.11-7.26,6.07-11.12,7.48m-9.39-27.64c-2.7,8.57-22.46,12.69-23.55,20.27-1.17,10.19-2.11,25.3,5.16,27.46,9,4.48,16.48-.34,17.09-1"/></g></g></g></svg>