<svg width="71" height="108" viewBox="0 0 71 108" fill="none" xmlns="http://www.w3.org/2000/svg">
<g id="Mouth1">
<g id="layer1">
<g id="g298999">
<path id="abColor_3" d="M16.21 87.4997C12.85 90.7797 16.8 96.8897 18.39 96.3397C29.29 95.5697 57.15 93.8097 62.6 72.2097C85.99 7.63968 48.41 4.91967 26.46 5.05967C18.77 11.3497 8.40002 14.2597 3.39002 23.9397C2.55002 39.8897 -0.539975 57.8297 16.05 56.1797C16.05 56.1797 7.94002 65.5297 10.29 71.4297C12.64 77.3297 12.86 77.0797 14.7 77.7497C14.24 78.6397 20.16 83.6497 16.21 87.4997V87.4997Z" fill="white"/>
<path id="path13904-1" d="M17.6001 57.9996L18.6001 63.2896L37.6601 61.6396L44.8601 54.6396C32.9201 59.0596 34.5901 54.9297 27.0801 54.8297C23.8301 56.7297 20.6301 57.9996 17.6001 57.9996Z" fill="#FFFFF2"/>
<path id="abColor_4" d="M15.6701 95.7599C27.3001 91.8799 31.5201 104.97 30.2601 104.62C37.9001 98.7199 47.3901 103.67 48.6301 106.03C54.4401 100.65 60.5001 102.97 61.3301 104.03M36.6601 61.7599C33.2601 62.7599 28.4101 63.7599 26.9901 62.5099L26.6601 55.3599M21.4901 63.1299C12.3501 69.7999 18.4901 76.5399 44.8301 56.1799M14.9301 58.2799C3.00007 76.3399 14.3201 81.2799 30.4201 74.7699M24.7101 38.1399C25.3301 45.6599 24.2001 50.5699 27.9501 53.6799C42.2401 59.8999 58.9501 53.3999 63.4301 44.7299M15.5401 33.4599C12.3801 31.4599 8.08008 29.9999 7.84008 26.6499L24.5501 37.9999C32.8201 33.3099 43.1501 29.8099 51.2401 23.9999C47.5601 29.6499 43.2401 30.7099 38.9601 32.2699M27.2701 2.12988C23.7401 11.5299 3.80008 17.1299 2.58008 24.1299C1.28008 35.3799 0.250081 52.0699 8.28008 54.4599C18.2801 59.3999 26.4801 54.0799 27.1501 53.3399M26.0001 62.7799C24.1001 63.0399 19.7901 63.5199 18.4901 62.5199L18.1701 56.8199M59.3301 42.4999C62.9801 41.9899 64.4801 42.8999 67.4401 46.6199" stroke="#999999" stroke-width="3" stroke-linecap="round" stroke-linejoin="round"/>
</g>
</g>
</g>
</svg>
