<svg width="74" height="93" viewBox="0 0 74 93" fill="none" xmlns="http://www.w3.org/2000/svg">
<g id="Mouth2">
<g id="layer1">
<g id="g300868">
<path id="abColor_3" d="M14.5999 47.46C13.9899 52.88 13.8399 54.24 19.1199 57.26C15.8499 66.66 13.1199 65.45 18.4199 74.51C10.2899 78.1 12.2199 86.32 16.3499 91.4C26.1299 95.4 48.4999 89.4 53.1299 84.21C67.8799 72.84 68.3499 38.56 66.3199 23.35C66.2299 9.57002 39.3199 2.65002 23.4299 3.88002C19.4299 4.20002 7.83991 12.88 5.82991 15.94C-0.730088 26.13 1.93991 25.76 1.32991 28.94C3.85991 36.25 -1.28008 45.7 14.5999 47.47V47.46Z" fill="white"/>
<path id="abColor_4" d="M14.6899 76.0499C24.8999 72.6399 28.6099 84.1399 27.4899 83.8299C34.2099 78.6499 42.4899 82.9999 43.6299 85.0699M19.5599 56.7599C12.3499 67.7599 20.5599 75.3499 19.4399 75.0399M13.6699 49.1099C13.5999 54.3199 16.9699 57.4899 25.9199 56.9899M21.9999 31.6899C22.5399 38.2899 21.5499 42.6099 24.8499 45.3399C30.2999 49.8599 40.8499 47.1599 46.8499 45.0199C52.1599 43.1099 64.5499 37.0199 68.0399 25.0199M13.9799 27.5299C11.1999 25.7799 7.41994 24.5299 7.20994 21.5299L21.8899 31.5299C29.1499 27.4099 38.2199 24.3399 45.3299 19.2399C42.0899 24.2399 38.2799 25.1299 34.5399 26.4999M23.7099 1.66992C17.2199 11.4199 5.75993 10.9099 2.58993 19.3499C1.45993 29.2299 0.58993 43.8799 7.58993 45.9799C16.3599 50.3199 23.5899 45.6499 24.1599 44.9799M64.9199 23.8699C68.1299 23.4199 69.4499 24.2199 72.0399 27.4899" stroke="#999999" stroke-width="3" stroke-linecap="round" stroke-linejoin="round"/>
</g>
</g>
</g>
</svg>
