<svg width="66" height="98" viewBox="0 0 66 98" fill="none" xmlns="http://www.w3.org/2000/svg">
<path d="M54.4699 64.6499C54.4699 65.9799 10.6799 73.4499 9.92993 62.7499C9.56993 57.6699 9.45994 56.5699 12.1499 55.9999C13.788 55.6489 15.3962 55.1708 16.9599 54.5699L16.8099 50.7599C-7.59006 49.6199 4.14994 29.3699 4.19994 18.8599C38.9799 -8.6501 40.3999 8.72991 60.8299 16.7399C71.5099 46.7399 63.7699 62.0699 54.4699 64.6499V64.6499Z" fill="white"/>
<path d="M17.37 52.5903L17.27 56.5903L40.33 54.4103L40.01 52.0403C31.39 51.5403 33.38 51.6403 25.52 49.3203C22.52 51.0303 20.12 52.6303 17.37 52.5603V52.5903Z" fill="#FFFFF2"/>
<path d="M16.9099 51.8206C16.9999 53.0206 16.3899 57.6205 18.3999 57.2005C19.3712 56.9079 20.3893 56.8027 21.3999 56.8905C23.6199 57.0605 23.2199 56.1605 23.1399 51.0305M48.5099 56.0005C44.4299 53.0705 41.1199 53.6406 38.0499 57.1006L48.5099 56.0005ZM38.0499 57.7605C34.8099 55.5905 28.7599 55.5906 25.5099 59.1906L38.0499 57.7605ZM25.5099 57.2905C23.2599 56.9405 16.1399 55.9705 13.8999 59.1405L25.5099 57.2905ZM32.2899 51.2706C32.3799 52.4706 31.2399 56.1106 33.2899 55.9706L38.2899 55.6405C40.8899 54.9005 40.7299 55.8905 40.2899 51.5605L32.2899 51.2706ZM23.3899 50.5605C23.4999 51.7205 22.2199 56.7605 24.7699 56.6105L29.0899 56.3506C31.8699 56.5106 31.6799 56.1405 31.5799 51.1805L23.3899 50.5605Z" stroke="#999999" stroke-width="3" stroke-linecap="round" stroke-linejoin="bevel"/>
<path d="M26.7899 1.58008C24.0899 10.1501 4.32995 14.2701 3.23995 21.8501C2.06995 32.0401 1.12993 47.1501 8.39993 49.3101C17.3999 53.7901 24.8799 48.9701 25.4899 48.3101M15.2699 86.7001C25.7999 83.1901 29.6199 95.0401 28.4799 94.7001C35.3999 89.3601 43.9899 93.8401 45.1099 95.9801C50.3799 91.1001 55.8599 93.2001 56.6099 94.1801L15.2699 86.7001ZM55.1799 31.7101C58.4799 31.2501 59.8399 32.0701 62.5199 35.4401L55.1799 31.7101ZM20.9999 67.2501C17.4699 67.4701 10.9199 66.4301 9.90994 62.7001C7.90994 55.4601 14.7199 54.1301 16.0099 55.5301L20.9999 67.2501ZM23.3699 34.5301C23.9299 41.3301 22.8999 45.7801 26.2999 48.6001C47.9699 58.7001 58.1299 42.5301 58.2999 34.0301L23.3699 34.5301ZM14.9999 30.2901C12.1399 28.4801 8.24994 27.1601 7.99994 24.1201L23.1299 34.4101C30.6199 30.1601 39.9699 27.0001 47.2999 21.7401C43.9599 26.8501 40.0399 27.8101 36.1799 29.2201L14.9999 30.2901Z" stroke="#999999" stroke-width="3" stroke-linecap="round" stroke-linejoin="round"/>
</svg>
