<svg width="78" height="106" viewBox="0 0 78 106" fill="none" xmlns="http://www.w3.org/2000/svg">
<g id="Mouth3">
<g id="layer1">
<g id="g300784">
<path id="abColor_3" d="M26.6702 6.21021C22.1602 6.56021 9.26017 16.2102 7.02017 19.6802C-0.31983 31.0702 2.67017 30.6802 2.02017 34.1902C4.86017 42.3502 -0.889838 52.9102 16.8402 54.8902C22.7902 57.8902 20.8402 67.2002 19.8402 68.2402C17.6402 70.4102 12.3502 70.9102 15.4902 75.7502C64.6802 99.5002 83.9402 55.1902 74.6302 27.9502C67.8202 10.6202 41.7302 5.06021 26.6702 6.21021Z" fill="white"/>
<path id="path421838" d="M62.8903 49.2598C63.4703 50.5098 58.3503 64.2598 56.7803 63.3598V52.5898L62.8903 49.2598Z" fill="#A37070"/>
<path id="path13904" d="M18.2402 56.3001L20.0502 63.3001L18.6402 69.9101C32.1102 71.9101 48.5002 69.9901 55.6902 65.5401L55.9002 52.1201C44.7502 57.8801 36.0002 56.0401 27.5702 53.2301C24.3502 55.1001 21.2102 56.3701 18.2402 56.3001Z" fill="#FFFFF2"/>
<path id="abColor_4" d="M55.8802 63.63C55.2202 59.83 54.4502 59.03 56.3702 53.46M18.8102 68.24L20.6802 63.24L18.8802 55.42M20.6102 62.2C29.4602 63.2 42.9802 63.2 53.1802 59.64M64.7402 46.45C62.2602 57.21 59.3702 62.86 56.9202 64.67C50.1202 69.67 32.6102 70.53 18.1502 69.37C10.7202 68.77 12.6602 79.64 26.3602 80.11M24.9202 37.35C25.5202 44.72 24.4102 49.54 28.1002 52.6C49.5502 62.36 70.7502 44.16 72.0402 34.12M15.9202 32.76C12.8202 30.76 8.60016 29.37 8.36016 26.07L24.7602 37.22C32.8702 32.62 43.0002 29.22 50.9402 23.49C47.3202 29.03 43.0702 30.08 38.8902 31.6M27.4302 2C23.9602 11.22 4.43016 16.72 3.20016 23.58C1.94016 34.58 0.930162 50.98 8.80016 53.33C18.6002 58.18 26.6502 52.95 27.3102 52.23M19.8002 96.91C29.3402 92.57 32.8502 104.36 31.7402 103.98C40.1702 95.34 52.4402 98.21 53.4502 100.7C53.2102 91.7 64.2302 88.47 65.8602 89.7M68.1302 32.23C71.7102 31.73 73.1902 32.62 76.1302 36.23L68.1302 32.23Z" stroke="#999999" stroke-width="3" stroke-linecap="round" stroke-linejoin="round"/>
</g>
</g>
</g>
</svg>
