<svg width="74" height="93" viewBox="0 0 74 93" fill="none" xmlns="http://www.w3.org/2000/svg">
<path d="M14.6 47.46C13.99 52.88 13.84 54.24 19.12 57.26C15.85 66.66 13.12 65.45 18.42 74.51C10.29 78.1 12.22 86.32 16.35 91.4C26.13 95.4 48.5 89.4 53.13 84.21C67.88 72.84 68.35 38.56 66.32 23.35C66.23 9.57002 39.32 2.65002 23.43 3.88002C19.43 4.20002 7.84003 12.88 5.83003 15.94C-0.729966 26.13 1.94003 25.76 1.33003 28.94C3.86003 36.25 -1.27996 45.7 14.6 47.47V47.46Z" fill="white"/>
<path d="M64.9201 23.8699C68.1301 23.4199 69.45 24.2199 72.04 27.4899M14.6901 76.0499C24.9001 72.6399 28.6101 84.1399 27.4901 83.8299C34.2101 78.6499 42.4901 82.9999 43.6301 85.0699L14.6901 76.0499ZM19.5601 56.7599C12.3501 67.7599 20.5601 75.3499 19.4401 75.0399L19.5601 56.7599ZM13.6701 49.1099C13.6001 54.3199 16.9701 57.4899 25.9201 56.9899L13.6701 49.1099ZM22.0001 31.6899C22.5401 38.2899 21.5501 42.6099 24.8501 45.3399C30.3001 49.8599 40.8501 47.1599 46.8501 45.0199C52.1601 43.1099 64.55 37.0199 68.04 25.0199L22.0001 31.6899ZM13.9801 27.5299C11.2001 25.7799 7.42006 24.5299 7.21006 21.5299L21.8901 31.5299C29.1501 27.4099 38.2201 24.3399 45.3301 19.2399C42.0901 24.2399 38.2801 25.1299 34.5401 26.4999L13.9801 27.5299ZM23.7101 1.66992C17.2201 11.4199 5.76005 10.9099 2.59005 19.3499C1.46005 29.2299 0.590052 43.8799 7.59005 45.9799C16.3601 50.3199 23.5901 45.6499 24.1601 44.9799L23.7101 1.66992Z" stroke="#999999" stroke-width="3" stroke-linecap="round" stroke-linejoin="round"/>
</svg>
