<svg xmlns="http://www.w3.org/2000/svg" viewBox="0 0 512 512"><defs><style>.cls-1,.cls-2{fill:#fff;}.cls-1{stroke:#fff;stroke-miterlimit:10;stroke-width:5px;}.cls-3{fill:#a37070;}.cls-4{fill:#fffff2;}.cls-5{fill:none;stroke:#999;stroke-linecap:round;stroke-linejoin:round;stroke-width:3px;}</style></defs><g id="Rectangle"><rect class="cls-1" x="2.5" y="2.5" width="507" height="507"/></g><g id="Mouth"><g id="layer1"><g id="g300784"><path id="path414317" class="cls-2" d="M207.67,168.21c-4.51.35-17.41,10-19.65,13.47-7.34,11.39-4.35,11-5,14.51,2.84,8.16-2.91,18.72,14.82,20.7,5.95,3,4,12.31,3,13.35-2.2,2.17-7.49,2.67-4.35,7.51,49.19,23.75,68.45-20.56,59.14-47.8C248.82,172.62,222.73,167.06,207.67,168.21Z"/><path id="path421838" class="cls-3" d="M243.89,211.26c.58,1.25-4.54,15-6.11,14.1V214.59Z"/><path id="path13904" class="cls-4" d="M199.24,218.3l1.81,7-1.41,6.61c13.47,2,29.86.08,37.05-4.37l.21-13.42c-11.15,5.76-19.9,3.92-28.33,1.11C205.35,217.1,202.21,218.37,199.24,218.3Z"/><path id="path234945" class="cls-5" d="M236.88,225.63c-.66-3.8-1.43-4.6.49-10.17m-37.56,14.78,1.87-5-1.8-7.82m1.73,6.78c8.85,1,22.37,1,32.57-2.56m11.56-13.19c-2.48,10.76-5.37,16.41-7.82,18.22-6.8,5-24.31,5.86-38.77,4.7-7.43-.6-5.49,10.27,8.21,10.74m-1.44-42.76c.6,7.37-.51,12.19,3.18,15.25,21.45,9.76,42.65-8.44,43.94-18.48m-56.12-1.36c-3.1-2-7.32-3.39-7.56-6.69l16.4,11.15c8.11-4.6,18.24-8,26.18-13.73-3.62,5.54-7.87,6.59-12.05,8.11M208.43,164c-3.47,9.22-23,14.72-24.23,21.58-1.26,11-2.27,27.4,5.6,29.75,9.8,4.85,17.85-.38,18.51-1.1m40.82-20c3.58-.5,5.06.39,8,4m-56.33,60.68c9.54-4.34,13.05,7.45,11.94,7.07,8.43-8.64,20.7-5.77,21.71-3.28-.24-9,10.78-12.23,12.41-11"/></g></g></g></svg>