<svg width="69" height="107" viewBox="0 0 69 107" fill="none" xmlns="http://www.w3.org/2000/svg">
<path d="M27.31 5.84983C26.22 5.84983 25.17 5.90983 24.16 5.98983C20.04 6.30983 8.29003 15.0998 6.24003 18.2698C-0.43997 28.6398 2.24003 28.2698 1.66003 31.4798C4.24003 38.9198 -0.999971 48.5398 15.16 50.3498C15.16 50.6098 15.16 50.8898 15.1 51.1798C13.1157 51.332 11.1201 51.2346 9.16003 50.8898C8.89003 51.4898 8.75003 58.8898 10.16 59.2498C12.0418 59.5159 13.9396 59.6529 15.84 59.6598C16.0579 60.1708 16.402 60.6182 16.84 60.9598C18.13 64.4998 20.12 67.7298 22.67 69.2998C20.85 68.7698 11.59 77.4598 22.67 79.6998C16.77 82.2998 17.24 86.5798 19.51 90.6998C19.3 90.6998 19.09 90.6998 18.86 90.6998C17.12 90.6998 13.65 92.5298 14.5 97.5298C16.19 107.53 26.33 104.9 28.08 105.58C40.67 107.11 48.84 105.03 57.8 94.7398C70.67 77.7398 69.8 41.3198 67.8 25.8298C67.72 12.6898 43.63 5.66982 27.31 5.82982V5.84983Z" fill="white"/>
<path d="M24 70.5301C24 70.5301 37.82 71.9201 43.78 67.7701C49.74 63.6201 54.11 57.7701 54.84 51.1101C55.57 44.4501 54.38 45.9201 54.38 45.9201L48.16 49.2801C48.04 49.2801 48.67 56.4501 47.86 57.1601C45.1 59.5901 41.5 59.0801 41.06 59.2201C39.4 59.7601 32.51 62.4401 31.13 62.1501C26.13 61.0901 32.45 56.3901 26.85 56.7201L24.36 62.9201C21.77 64.3101 23.58 67.7301 24 70.5301V70.5301Z" fill="#A37070"/>
<path d="M12 59.8896C12 59.8896 14.71 65.5697 14.73 67.6297C14.75 69.6897 14.62 75.1497 14.65 74.7097C14.65 74.0297 20.9 69.7097 22.38 69.7097C22.82 68.9897 22.65 63.8496 22.46 61.9496L12 59.8896ZM16.93 79.2896L14.52 89.0997C14.52 89.0997 20.83 90.9596 20.07 88.8396C18.44 84.3596 22.72 80.1597 23.07 80.5797L16.93 79.2896Z" fill="#CCCCCC"/>
<path d="M9.8501 51.6694L10.1901 58.6694L15.7601 60.5795C21.6001 63.3295 25.0801 60.2695 26.9601 56.0495C27.9601 65.5495 41.0701 60.5294 46.7601 56.6194L46.8701 50.0195C34.3101 53.4295 31.8701 51.0195 25.1601 49.1895C22.2301 50.8795 12.5601 51.7695 9.8501 51.7095V51.6694Z" fill="#FFFFF2"/>
<path d="M15.3401 51.9999C15.4301 53.1799 14.1901 61.5099 17.3401 61.5299H24.0401C26.6001 61.0699 24.9501 55.7899 24.8801 50.7299M14.7101 89.8099C25.1001 86.3399 27.6501 102.68 26.5201 102.37C35.3301 93.2499 42.8001 99.3699 43.8601 101.57C46.4401 92.8899 55.4801 91.5699 57.0601 93.7199L14.7101 89.8099ZM21.5501 70.2799C24.2901 68.7899 23.5501 65.0099 22.6201 61.5099L21.5501 70.2799ZM56.2901 42.9299C53.2901 66.9299 44.4501 70.9299 23.0201 70.2899C13.5701 69.9899 12.9601 80.0799 23.4301 79.4199L56.2901 42.9299ZM57.5701 30.1899C60.8301 29.7299 62.1701 30.5499 64.8101 33.8699L57.5701 30.1899ZM22.6901 34.2999C23.2401 41.0199 22.2301 45.4099 25.5901 48.1899C45.1401 57.0899 60.5901 41.0299 61.7701 31.8799L22.6901 34.2999ZM14.5001 30.1199C11.6701 28.3299 7.83008 27.0299 7.61008 24.0299L22.5501 34.1899C29.9401 29.9899 39.1701 26.8699 46.4101 21.6799C43.1101 26.6799 39.2401 27.6799 35.4101 29.0599L14.5001 30.1199ZM25.0001 2.12988C21.8401 10.5299 4.00007 15.5399 2.93007 21.7899C1.78007 31.8499 0.860074 46.7899 8.03007 48.8899C16.9501 53.3099 24.2901 48.5499 24.9001 47.8899L25.0001 2.12988ZM14.5001 58.9999L10.1501 59.1999C8.88007 59.0599 9.15007 52.9899 9.54007 51.0899L14.5001 58.9999ZM41.0601 58.2899L46.6001 57.4099C49.1201 56.4599 47.6001 53.5099 47.0101 49.4999L41.0601 58.2899ZM27.7101 50.3799C27.7101 50.3799 28.7101 62.0399 30.5401 61.8599L38.3501 61.0699C41.4501 60.2799 39.1901 54.8399 38.5601 50.7499L27.7101 50.3799Z" stroke="#999999" stroke-width="3" stroke-linecap="round" stroke-linejoin="round"/>
</svg>
