<svg xmlns="http://www.w3.org/2000/svg" viewBox="0 0 512 512"><defs><style>.cls-1,.cls-2{fill:#fff;}.cls-1{stroke:#fff;stroke-miterlimit:10;stroke-width:5px;}.cls-3{fill:#a37070;}.cls-4{fill:#ccc;}.cls-5{fill:#fffff2;}.cls-6{fill:none;stroke:#999;stroke-linecap:round;stroke-linejoin:round;stroke-width:3px;}</style></defs><g id="Rectangle"><rect class="cls-1" x="2.5" y="2.5" width="507" height="507"/></g><g id="Mouth"><g id="layer1"><g id="g300826"><path id="path450069-7" class="cls-2" d="M207.31,167.85c-1.09,0-2.14.06-3.15.14-4.12.32-15.87,9.11-17.92,12.28-6.68,10.37-4,10-4.58,13.21,2.58,7.44-2.66,17.06,13.5,18.87,0,.26,0,.54-.06.83a23.79,23.79,0,0,1-5.94-.29c-.27.6-.41,8,1,8.36a41.66,41.66,0,0,0,5.68.41,3.28,3.28,0,0,0,1,1.3c1.29,3.54,3.28,6.77,5.83,8.34-1.82-.53-11.08,8.16,0,10.4-5.9,2.6-5.43,6.88-3.16,11-.21,0-.42,0-.65,0-1.74,0-5.21,1.83-4.36,6.83,1.69,10,11.83,7.37,13.58,8.05,12.59,1.53,20.76-.55,29.72-10.84,12.87-17,12-53.42,10-68.91-.08-13.14-24.17-20.16-40.49-20Z"/><path id="path434979" class="cls-3" d="M204,232.53s13.82,1.39,19.78-2.76,10.33-10,11.06-16.66-.46-5.19-.46-5.19l-6.22,3.36c-.12,0,.51,7.17-.3,7.88-2.76,2.43-6.36,1.92-6.8,2.06-1.66.54-8.55,3.22-9.93,2.93-5-1.06,1.32-5.76-4.28-5.43l-2.49,6.2c-2.59,1.39-.78,4.81-.36,7.61Z"/><path id="path445115" class="cls-4" d="M192,221.89s2.71,5.68,2.73,7.74-.11,7.52-.08,7.08c0-.68,6.25-5,7.73-5,.44-.72.27-5.86.08-7.76Zm4.93,19.4-2.41,9.81s6.31,1.86,5.55-.26c-1.63-4.48,2.65-8.68,3-8.26Z"/><path id="path13904-3" class="cls-5" d="M189.85,213.67l.34,7,5.57,1.91c5.84,2.75,9.32-.31,11.2-4.53,1,9.5,14.11,4.48,19.8.57l.11-6.6c-12.56,3.41-15,1-21.71-.83-2.93,1.69-12.6,2.58-15.31,2.52Z"/><path id="path295891-72-0" class="cls-6" d="M194.71,251.81c10.39-3.47,12.94,12.87,11.81,12.56,8.81-9.12,16.28-3,17.34-.8,2.58-8.68,11.62-10,13.2-7.85m-35.51-23.44c2.74-1.49,2-5.27,1.07-8.77m33.67-18.58c-3,24-11.84,28-33.27,27.36-9.45-.3-10.06,9.79.41,9.13m34.14-49.23c3.26-.46,4.6.36,7.24,3.68m-42.12.43c.55,6.72-.46,11.11,2.9,13.89,19.55,8.9,35-7.16,36.18-16.31m-47.27-1.76c-2.83-1.79-6.67-3.09-6.89-6.09l14.94,10.16c7.39-4.2,16.62-7.32,23.86-12.51-3.3,5-7.17,6-11,7.38M205,164.13c-3.16,8.4-21,13.41-22.07,19.66-1.15,10.06-2.07,25,5.1,27.1,8.92,4.42,16.26-.34,16.87-1M194.5,221l-4.35.2c-1.27-.14-1-6.21-.61-8.11m31.52,7.2,5.54-.88c2.52-.95,1-3.9.41-7.91m-19.3.88s1,11.66,2.83,11.48l7.81-.79c3.1-.79.84-6.23.21-10.32M195.34,214c.09,1.18-1.15,9.51,2,9.53l6.7,0c2.56-.46.91-5.74.84-10.8"/></g></g></g></svg>