<svg width="69" height="105" viewBox="0 0 69 105" fill="none" xmlns="http://www.w3.org/2000/svg">
<path d="M16.47 85.3197C13.19 88.5197 17.05 94.4997 18.6 93.9497C29.24 93.1997 56.45 91.4797 61.77 70.3897C84.61 7.32967 47.92 4.67967 26.48 4.80967C18.97 10.9597 8.84001 13.8097 3.95001 23.2497C3.12001 38.8197 0.110023 56.3397 16.32 54.7397C16.32 54.7397 8.39002 63.8697 10.69 69.6197C12.99 75.3697 13.19 75.1397 15 75.7997C14.55 76.6697 20.33 81.5597 16.47 85.3197V85.3197Z" fill="white"/>
<path d="M17.8201 56.4597L18.8201 61.6297L37.4501 59.9997L44.4501 53.2197C32.7901 57.5397 34.4501 53.4997 27.0801 53.4097C23.9101 55.2697 20.7801 56.5397 17.8201 56.4597Z" fill="#FFFFF2"/>
<path d="M58.56 41.39C62.12 40.88 63.56 41.78 66.48 45.39M15.94 93.39C27.3 89.6 31.42 102.39 30.19 102.04C37.65 96.28 46.92 101.12 48.13 103.42C53.81 98.16 59.72 100.42 60.53 101.48L15.94 93.39ZM36.44 60.2C33.12 61.2 28.38 62.11 27 60.92L26.67 53.92L36.44 60.2ZM21.67 61.51C12.74 68.02 18.67 74.61 44.46 54.73L21.67 61.51ZM15.25 56.78C3.59999 74.41 14.66 79.28 30.39 72.88L15.25 56.78ZM24.81 37.1C25.41 44.45 24.31 49.24 27.98 52.29C41.93 58.36 58.22 52.01 62.62 43.55L24.81 37.1ZM15.85 32.55C12.77 30.6 8.55999 29.17 8.32999 25.89L24.61 37C32.69 32.42 42.77 29 50.68 23.33C47.08 28.84 42.85 29.88 38.68 31.4L15.85 32.55ZM27.27 2C23.82 11.18 4.34998 16.65 3.14998 23.48C1.88998 34.48 0.879986 50.77 8.71999 53.1C18.48 57.93 26.5 52.73 27.15 52.01L27.27 2ZM26.01 61.21C24.15 61.47 19.94 61.93 18.68 60.96L18.36 55.39L26.01 61.21Z" stroke="#999999" stroke-width="3" stroke-linecap="round" stroke-linejoin="round"/>
</svg>
