<svg xmlns="http://www.w3.org/2000/svg" viewBox="0 0 512 512"><defs><style>.cls-1,.cls-2{fill:#fff;}.cls-1{stroke:#fff;stroke-miterlimit:10;stroke-width:5px;}.cls-3{fill:#fffff2;}.cls-4{fill:none;stroke:#999;stroke-linecap:round;stroke-linejoin:round;stroke-width:3px;}</style></defs><g id="Rectangle"><rect class="cls-1" x="2.5" y="2.5" width="507" height="507"/></g><g id="Mouth"><g id="layer1"><g id="g298999"><path id="path481552" class="cls-2" d="M198.21,249.5c-3.36,3.28.59,9.39,2.18,8.84,10.9-.77,38.76-2.53,44.21-24.13,23.39-64.57-14.19-67.29-36.14-67.15-7.69,6.29-18.06,9.2-23.07,18.88-.84,15.95-3.93,33.89,12.66,32.24,0,0-8.11,9.35-5.76,15.25s2.57,5.65,4.41,6.32c-.46.89,5.46,5.9,1.51,9.75Z"/><path id="path13904-1" class="cls-3" d="M199.6,220l1,5.29,19.06-1.65,7.2-7c-11.94,4.42-10.27.29-17.78.19C205.83,218.73,202.63,220,199.6,220Z"/><path id="path295891-72-2" class="cls-4" d="M197.67,257.76c11.63-3.88,15.85,9.21,14.59,8.86,7.64-5.9,17.13-.95,18.37,1.41,5.81-5.38,11.87-3.06,12.7-2m-24.67-42.27c-3.4,1-8.25,2-9.67.75l-.33-7.15m-5.17,7.77c-9.14,6.67-3,13.41,23.34-6.95m-29.9,2.1c-11.93,18.06-.61,23,15.49,16.49m-5.71-36.63c.62,7.52-.51,12.43,3.24,15.54,14.29,6.22,31-.28,35.48-8.95m-47.89-11.27c-3.16-2-7.46-3.46-7.7-6.81L206.55,200c8.27-4.69,18.6-8.19,26.69-14-3.68,5.65-8,6.71-12.28,8.27m-11.69-30.14c-3.53,9.4-23.47,15-24.69,22-1.3,11.25-2.33,27.94,5.7,30.33,10,4.94,18.2-.38,18.87-1.12M208,224.78c-1.9.26-6.21.74-7.51-.26l-.32-5.7m41.16-14.32c3.65-.51,5.15.4,8.11,4.12"/></g></g></g></svg>