<svg width="72" height="113" viewBox="0 0 72 113" fill="none" xmlns="http://www.w3.org/2000/svg">
<g id="Mouth8">
<g id="layer1">
<g id="g300983">
<path id="abColor_3" d="M16.1101 51.4804C16.1101 51.4804 17.3401 62.5804 18.2001 62.5704C19.0601 62.5604 21.8801 62.8704 21.8801 62.8704C21.8801 62.8704 14.4601 105.01 17.3201 107.53C32.1601 120.62 59.1901 105.47 64.7201 79.4404C67.5501 66.1204 81.2301 39.9704 59.0501 13.6804C54.7084 9.50721 49.3619 6.52705 43.5291 5.029C37.6963 3.53095 31.5754 3.56588 25.7601 5.13039C25.7601 5.13039 7.0001 12.3304 5.1101 20.7504C1.0001 39.0804 -1.6799 51.3604 16.1101 51.4804Z" fill="white"/>
<path id="path13904-2" d="M15.8899 53.07L16.7399 61.48C20.8199 61.48 25.4299 62.41 27.7399 59.15C36.4599 63.92 33.1799 62.07 41.1499 61.55L41.4499 52.39L27.3899 50.25C23.8053 52.039 19.8655 53.0026 15.8599 53.07H15.8899Z" fill="#FFFFF2"/>
<path id="path505954" d="M54.38 48.1504L41.89 52.6904L42.76 56.1604C50.75 54.4204 51.55 51.0604 54.38 48.1504ZM14.74 60.9104C14.19 68.9904 14.74 87.0204 14.81 101.31C14.05 108.13 16.81 110.16 18.67 106.39C22.05 99.5904 15.79 101.96 23.05 92.2704C26.93 87.1004 12.35 84.3504 27.72 73.4004C22.99 72.7504 22.58 71.6304 20.41 66.4004C20.41 66.4004 15.89 60.9504 14.74 60.9304V60.9104Z" fill="#CCCCCC"/>
<path id="abColor_4" d="M16.0001 89.47C27.1401 85.74 31.1901 98.29 30.0001 97.95C37.3301 92.3 46.4201 97.04 47.6101 99.31C53.1801 94.14 58.9801 96.37 59.7701 97.4M58.6401 41.56C54.9901 53.94 46.2601 56.24 43.4701 56.4M20.2401 65.15C20.1601 70.83 23.0901 73.15 32.8601 72.6M24.5301 34C25.1201 41.21 24.0301 45.91 27.6301 48.9C48.6301 58.44 60.6301 42.13 61.4701 33.48M15.7401 29.48C12.7401 27.57 8.59012 26.16 8.36012 22.95L24.3601 33.84C32.2901 29.34 42.1801 25.99 49.9401 20.43C46.4101 25.83 42.2501 26.86 38.1701 28.35M25.8601 2C20.4101 11.75 6.58013 13.52 3.32013 20.53C2.08013 31.31 1.09012 47.3 8.78012 49.59C18.3501 54.33 26.2201 49.23 26.8601 48.51M29.3601 51.83C29.3601 51.83 28.5001 62.47 30.9501 62.5L38.1701 62.58C42.6501 62.7 41.5701 57.36 41.5501 51.81L29.3601 51.83ZM16.2601 52.74C16.3501 54.01 15.2601 62.56 18.6001 62.66L23.0201 62.79C27.4601 62.42 26.5301 56.79 26.4501 51.4L16.2601 52.74ZM58.2201 31C61.7201 30.51 63.1601 31.39 65.9901 34.95L58.2201 31Z" stroke="#999999" stroke-width="3" stroke-linecap="round" stroke-linejoin="round"/>
</g>
</g>
</g>
</svg>
