<svg width="69" height="105" viewBox="0 0 69 105" fill="none" xmlns="http://www.w3.org/2000/svg">
<g id="Mouth7">
<g id="layer1">
<g id="g298999">
<path id="abColor_3" d="M16.47 85.3197C13.19 88.5197 17.05 94.4997 18.6 93.9497C29.24 93.1997 56.45 91.4797 61.77 70.3897C84.61 7.32967 47.92 4.67967 26.48 4.80967C18.97 10.9597 8.84001 13.8097 3.95001 23.2497C3.12001 38.8197 0.110023 56.3397 16.32 54.7397C16.32 54.7397 8.39002 63.8697 10.69 69.6197C12.99 75.3697 13.19 75.1397 15 75.7997C14.55 76.6697 20.33 81.5597 16.47 85.3197V85.3197Z" fill="white"/>
<path id="path13904-1" d="M17.8203 56.4597L18.8203 61.6297L37.4503 59.9997L44.4503 53.2197C32.7903 57.5397 34.4503 53.4997 27.0803 53.4097C23.9103 55.2697 20.7803 56.5397 17.8203 56.4597Z" fill="#FFFFF2"/>
<path id="abColor_4" d="M15.9402 93.39C27.3002 89.6 31.4202 102.39 30.1902 102.04C37.6502 96.28 46.9202 101.12 48.1302 103.42C53.8102 98.16 59.7202 100.42 60.5302 101.48M36.4402 60.2C33.1202 61.2 28.3802 62.11 27.0002 60.92L26.6702 53.92M21.6702 61.51C12.7402 68.02 18.6702 74.61 44.4602 54.73M15.2502 56.78C3.60023 74.41 14.6602 79.28 30.3902 72.88M24.8102 37.1C25.4102 44.45 24.3102 49.24 27.9802 52.29C41.9302 58.36 58.2202 52.01 62.6202 43.55M27.2702 2C23.8202 11.18 4.35022 16.65 3.15022 23.48C1.89022 34.48 0.88023 50.77 8.72023 53.1C18.4802 57.93 26.5002 52.73 27.1502 52.01M26.0102 61.21C24.1502 61.47 19.9402 61.93 18.6802 60.96L18.3602 55.39M58.5602 41.39C62.1202 40.88 63.5602 41.78 66.4802 45.39M15.8502 32.55C12.7702 30.6 8.56023 29.17 8.33023 25.89L24.6102 37C32.6902 32.42 42.7702 29 50.6802 23.33C47.0802 28.84 42.8502 29.88 38.6802 31.4L15.8502 32.55Z" stroke="#999999" stroke-width="3" stroke-linecap="round" stroke-linejoin="round"/>
</g>
</g>
</g>
</svg>
