<svg xmlns="http://www.w3.org/2000/svg" viewBox="0 0 512 512"><defs><style>.cls-1,.cls-2{fill:#fff;}.cls-1{stroke:#fff;stroke-miterlimit:10;stroke-width:5px;}.cls-3{fill:none;stroke:#999;stroke-linecap:round;stroke-linejoin:round;stroke-width:3px;}</style></defs><g id="Rectangle"><rect class="cls-1" x="2.5" y="2.5" width="507" height="507"/></g><g id="Mouth"><g id="layer1"><g id="g300868"><path id="path450069" class="cls-2" d="M192.6,215.46c-.61,5.42-.76,6.78,4.52,9.8-3.27,9.4-6,8.19-.7,17.25-8.13,3.59-6.2,11.81-2.07,16.89,9.78,4,32.15-2,36.78-7.19,14.75-11.37,15.22-45.65,13.19-60.86-.09-13.78-27-20.7-42.89-19.47-4,.32-15.59,9-17.6,12.06-6.56,10.19-3.89,9.82-4.5,13,2.53,7.31-2.61,16.76,13.27,18.53Z"/><path id="path295891-72-1" class="cls-3" d="M192.69,244.05c10.21-3.41,13.92,8.09,12.8,7.78,6.72-5.18,15-.83,16.14,1.24m-24.07-28.31c-7.21,11,1,18.59-.12,18.28m-5.77-25.93c-.07,5.21,3.3,8.38,12.25,7.88M200,199.69c.54,6.6-.45,10.92,2.85,13.65,5.45,4.52,16,1.82,22-.32,5.31-1.91,17.7-8,21.19-20m-54.06,2.51c-2.78-1.75-6.56-3-6.77-6l14.68,10c7.26-4.12,16.33-7.19,23.44-12.29-3.24,5-7.05,5.89-10.79,7.26m-10.83-24.83c-6.49,9.75-17.95,9.24-21.12,17.68-1.13,9.88-2,24.53,5,26.63,8.77,4.34,16-.33,16.57-1m40.76-21.11c3.21-.45,4.53.35,7.12,3.62"/></g></g></g></svg>