<svg width="78" height="106" viewBox="0 0 78 106" fill="none" xmlns="http://www.w3.org/2000/svg">
<path d="M26.67 6.21021C22.16 6.56021 9.26005 16.2102 7.02005 19.6802C-0.319952 31.0702 2.67005 30.6802 2.02005 34.1902C4.86005 42.3502 -0.88996 52.9102 16.84 54.8902C22.79 57.8902 20.84 67.2002 19.84 68.2402C17.64 70.4102 12.35 70.9102 15.49 75.7502C64.68 99.5002 83.9401 55.1902 74.6301 27.9502C67.8201 10.6202 41.73 5.06021 26.67 6.21021Z" fill="white"/>
<path d="M62.89 49.2598C63.47 50.5098 58.35 64.2598 56.78 63.3598V52.5898L62.89 49.2598Z" fill="#A37070"/>
<path d="M18.24 56.3001L20.05 63.3001L18.64 69.9101C32.11 71.9101 48.5 69.9901 55.69 65.5401L55.9 52.1201C44.75 57.8801 36 56.0401 27.57 53.2301C24.35 55.1001 21.21 56.3701 18.24 56.3001Z" fill="#FFFFF2"/>
<path d="M19.8 96.91C29.34 92.57 32.85 104.36 31.74 103.98C40.17 95.34 52.44 98.21 53.45 100.7C53.21 91.7 64.23 88.47 65.86 89.7M55.88 63.63C55.22 59.83 54.45 59.03 56.37 53.46L55.88 63.63ZM18.81 68.24L20.68 63.24L18.88 55.42L18.81 68.24ZM20.61 62.2C29.46 63.2 42.98 63.2 53.18 59.64L20.61 62.2ZM64.74 46.45C62.26 57.21 59.37 62.86 56.92 64.67C50.12 69.67 32.61 70.53 18.15 69.37C10.72 68.77 12.66 79.64 26.36 80.11L64.74 46.45ZM24.92 37.35C25.52 44.72 24.41 49.54 28.1 52.6C49.55 62.36 70.75 44.16 72.04 34.12L24.92 37.35ZM15.92 32.76C12.82 30.76 8.60004 29.37 8.36004 26.07L24.76 37.22C32.87 32.62 43 29.22 50.94 23.49C47.32 29.03 43.07 30.08 38.89 31.6L15.92 32.76ZM27.43 2C23.96 11.22 4.43003 16.72 3.20003 23.58C1.94003 34.58 0.93004 50.98 8.80004 53.33C18.6 58.18 26.65 52.95 27.31 52.23L27.43 2ZM68.13 32.23C71.71 31.73 73.19 32.62 76.13 36.23L68.13 32.23Z" stroke="#999999" stroke-width="3" stroke-linecap="round" stroke-linejoin="round"/>
</svg>
