<svg width="83" height="107" viewBox="0 0 83 107" fill="none" xmlns="http://www.w3.org/2000/svg">
<path d="M22.4 53.0002C19.99 58.1202 26.64 60.1402 24.87 68.4602C17.54 71.7902 12.4301 72.4602 33.1901 81.8502C76.6801 91.7802 78.95 48.8502 75.84 26.3902C75.74 10.9802 45.62 3.23021 27.84 4.61021C23.32 4.96021 8.13005 15.5502 5.84005 19.0402C-1.50995 30.4402 3.74005 29.0402 3.05005 32.6302C3.20005 46.5002 3.56005 53.1302 22.3301 53.0002H22.4Z" fill="white"/>
<path d="M22.06 54.19L21.54 58.19C34.09 62.38 48.95 60.98 59.11 54.83L60.58 48.75C49.41 54.52 36.01 55.18 27.58 52.37C24.34 54.22 25 54.26 22.06 54.19Z" fill="#FFFFF2"/>
<path d="M68.4102 43.4307C68.4102 43.4307 62.7302 63.6007 49.0802 67.3707C40.8115 69.6501 32.1835 70.329 23.6602 69.3707C23.6602 69.3707 25.8402 62.3707 25.6602 60.3007C21.9402 62.3507 56.8102 57.4807 59.7202 54.0207L61.1201 48.1007L68.4102 43.4307Z" fill="#D47575"/>
<path d="M24 59.0903C29.69 61.6603 48.29 60.0903 59.13 54.2803C60.66 53.4503 60.4 49.8403 60.62 48.8203" stroke="#969696" stroke-width="3" stroke-linecap="round" stroke-linejoin="round"/>
<path d="M73.0201 27.3603C76.6001 26.8503 78.0801 27.7503 81.0201 31.3603M20.4401 95.1103C29.1001 91.8003 32.6801 105.65 31.7901 105.24C39.0001 96.4703 52.6701 102.41 53.8901 104.77C60.1201 97.0003 66.2701 100.9 67.0201 101.53L20.4401 95.1103ZM23.7201 69.0903C22.1901 68.0303 14.6501 73.8003 23.5001 78.8903C30.0301 82.6403 38.1501 81.6903 38.1601 81.9603L23.7201 69.0903ZM25.0001 36.0003C25.6001 43.3903 24.4901 48.2103 28.1901 51.2803C34.2801 56.3303 46.1001 53.2803 52.7701 50.9103C58.7101 48.7803 72.5801 41.9803 76.4801 28.5903L25.0001 36.0003ZM16.0001 31.4303C12.8901 29.4303 8.66007 28.0303 8.43007 24.7403L24.8501 35.9103C32.9801 31.2903 43.1201 27.9103 51.0801 22.1503C47.4601 27.7003 43.2001 28.7403 39.0101 30.2703L16.0001 31.4303ZM27.6601 1.57031C21.9101 13.4703 8.01007 13.0703 3.26007 22.2803C1.99007 33.3303 0.640081 44.9003 9.16008 50.7903C18.9701 55.6403 26.7501 51.7003 27.4101 50.9703L27.6601 1.57031ZM21.0001 53.7403C22.0001 53.8403 18.6801 59.2903 24.5801 59.9703C27.4101 63.0403 24.5801 68.0403 23.9801 69.2003C31.5501 72.6903 47.3601 70.2003 54.0701 65.9403C62.3401 60.6503 67.0701 46.0803 69.7201 40.6403L21.0001 53.7403Z" stroke="#999999" stroke-width="3" stroke-linecap="round" stroke-linejoin="round"/>
</svg>
