<svg xmlns="http://www.w3.org/2000/svg" viewBox="0 0 512 512"><defs><style>.cls-1,.cls-2{fill:#fff;}.cls-1{stroke:#fff;stroke-miterlimit:10;stroke-width:5px;}.cls-3{fill:#fffff2;}.cls-4{fill:#d47575;}.cls-5,.cls-6{fill:none;stroke-linecap:round;stroke-linejoin:round;stroke-width:3px;}.cls-5{stroke:#969696;}.cls-6{stroke:#999;}</style></defs><g id="Rectangle"><rect class="cls-1" x="2.5" y="2.5" width="507" height="507"/></g><g id="Mouth"><g id="layer1"><g id="g8786"><path id="path450069-5" class="cls-2" d="M200.4,215c-2.41,5.12,4.24,7.14,2.47,15.46-7.33,3.33-12.44,4,8.32,13.39,43.49,9.93,45.76-33,42.65-55.46-.1-15.41-30.22-23.16-48-21.78-4.52.35-19.71,10.94-22,14.43-7.35,11.4-2.1,10-2.79,13.59.15,13.87.51,20.5,19.28,20.37Z"/><path id="path13904-6" class="cls-3" d="M200.06,216.19l-.52,4c12.55,4.19,27.41,2.79,37.57-3.36l1.47-6.08c-11.17,5.77-24.57,6.43-33,3.62C202.34,216.22,203,216.26,200.06,216.19Z"/><path id="path295871" class="cls-4" d="M246.41,205.43s-5.68,20.17-19.33,23.94a67.34,67.34,0,0,1-25.42,2s2.18-7,2-9.07c-3.72,2.05,31.15-2.82,34.06-6.28l1.4-5.92Z"/><path id="path295883" class="cls-5" d="M202,221.09c5.69,2.57,24.29,1,35.13-4.81,1.53-.83,1.27-4.44,1.49-5.46"/><path id="path295891" class="cls-6" d="M198.44,257.11c8.66-3.31,12.24,10.54,11.35,10.13,7.21-8.77,20.88-2.83,22.1-.47,6.23-7.77,12.38-3.87,13.13-3.24m-43.3-32.44c-1.53-1.06-9.07,4.71-.22,9.8,6.53,3.75,14.65,2.8,14.66,3.07M203,198c.6,7.39-.51,12.21,3.19,15.28,6.09,5.05,17.91,2,24.58-.37,5.94-2.13,19.81-8.93,23.71-22.32M194,193.43c-3.11-2-7.34-3.4-7.57-6.69l16.42,11.17c8.13-4.62,18.27-8,26.23-13.76-3.62,5.55-7.88,6.59-12.07,8.12m-11.35-28.7c-5.75,11.9-19.65,11.5-24.4,20.71-1.27,11.05-2.62,22.62,5.9,28.51,9.81,4.85,17.59.91,18.25.18M199,215.74c1,.1-2.32,5.55,3.58,6.23,2.83,3.07,0,8.07-.6,9.23,7.57,3.49,23.38,1,30.09-3.26,8.27-5.29,13-19.86,15.65-25.3m3.3-13.28c3.58-.51,5.06.39,8,4"/></g></g></g></svg>