<svg xmlns="http://www.w3.org/2000/svg" viewBox="0 0 512 512"><defs><style>.cls-1,.cls-2{fill:#fff;}.cls-1{stroke:#fff;stroke-miterlimit:10;stroke-width:5px;}.cls-3{fill:#fffff2;}.cls-4{fill:#ccc;}.cls-5{fill:none;stroke:#999;stroke-linecap:round;stroke-linejoin:round;stroke-width:3px;}</style></defs><g id="Rectangle"><rect class="cls-1" x="2.5" y="2.5" width="507" height="507"/></g><g id="Mouth"><g id="layer1"><g id="g300983"><path id="path492343" class="cls-2" d="M194.11,219.48s1.23,11.1,2.09,11.09,3.68.3,3.68.3-7.42,42.14-4.56,44.66c14.84,13.09,41.87-2.06,47.4-28.09,2.83-13.32,16.51-39.47-5.67-65.76a34.94,34.94,0,0,0-33.29-8.55s-18.76,7.2-20.65,15.62C179,207.08,176.32,219.36,194.11,219.48Z"/><path id="path13904-2" class="cls-3" d="M193.89,221.07l.85,8.41c4.08,0,8.69.93,11-2.33,8.72,4.77,5.44,2.92,13.41,2.4l.3-9.16-14.06-2.14a26.83,26.83,0,0,1-11.53,2.82Z"/><path id="path505954" class="cls-4" d="M232.38,216.15l-12.49,4.54.87,3.47C228.75,222.42,229.55,219.06,232.38,216.15Zm-39.64,12.76c-.55,8.08,0,26.11.07,40.4-.76,6.82,2,8.85,3.86,5.08,3.38-6.8-2.88-4.43,4.38-14.12,3.88-5.17-10.7-7.92,4.67-18.87-4.73-.65-5.14-1.77-7.31-7,0,0-4.52-5.45-5.67-5.47Z"/><path id="path295891-72" class="cls-5" d="M194,257.47c11.14-3.73,15.19,8.82,14,8.48,7.33-5.65,16.42-.91,17.61,1.36,5.57-5.17,11.37-2.94,12.16-1.91m-30.41-45.57s-.86,10.64,1.59,10.67l7.22.08c4.48.12,3.4-5.22,3.38-10.77m-25.29.93c.09,1.27-1,9.82,2.34,9.92l4.42.13c4.44-.37,3.51-6,3.43-11.39m32.19-9.84c-3.65,12.38-12.38,14.68-15.17,14.84M236.22,199c3.5-.49,4.94.39,7.77,3.95m-45.75,30.2c-.08,5.68,2.85,8,12.62,7.45M202.53,202c.59,7.21-.5,11.91,3.1,14.9,21,9.54,33-6.77,33.84-15.42m-45.73-4c-3-1.91-7.15-3.32-7.38-6.53l16,10.89c7.93-4.5,17.82-7.85,25.58-13.41-3.53,5.4-7.69,6.43-11.77,7.92M203.86,170c-5.45,9.75-19.28,11.52-22.54,18.53-1.24,10.78-2.23,26.77,5.46,29.06,9.57,4.74,17.44-.36,18.08-1.08"/></g></g></g></svg>