<svg width="71" height="108" viewBox="0 0 71 108" fill="none" xmlns="http://www.w3.org/2000/svg">
<g id="Mouth">
<g id="layer1">
<g id="g298999">
<path id="abColor_1" d="M16.21 87.4997C12.85 90.7797 16.8 96.8897 18.39 96.3397C29.29 95.5697 57.15 93.8097 62.6 72.2097C85.99 7.63968 48.41 4.91967 26.46 5.05967C18.77 11.3497 8.40002 14.2597 3.39002 23.9397C2.55002 39.8897 -0.539975 57.8297 16.05 56.1797C16.05 56.1797 7.94002 65.5297 10.29 71.4297C12.64 77.3297 12.86 77.0797 14.7 77.7497C14.24 78.6397 20.16 83.6497 16.21 87.4997V87.4997Z" fill="white"/>
<path id="path13904-1" d="M17.5999 57.9996L18.5999 63.2896L37.6599 61.6396L44.8598 54.6396C32.9198 59.0596 34.5898 54.9297 27.0798 54.8297C23.8298 56.7297 20.6299 57.9996 17.5999 57.9996Z" fill="#FFFFF2"/>
<path id="path295891-72-2" d="M59.33 42.4999C62.98 41.9899 64.48 42.8999 67.44 46.6199M15.67 95.7599C27.3 91.8799 31.52 104.97 30.26 104.62C37.9 98.7199 47.39 103.67 48.63 106.03C54.44 100.65 60.5 102.97 61.33 104.03L15.67 95.7599ZM36.66 61.7599C33.26 62.7599 28.41 63.7599 26.99 62.5099L26.66 55.3599L36.66 61.7599ZM21.49 63.1299C12.35 69.7999 18.49 76.5399 44.83 56.1799L21.49 63.1299ZM14.93 58.2799C2.99995 76.3399 14.32 81.2799 30.42 74.7699L14.93 58.2799ZM24.71 38.1399C25.33 45.6599 24.2 50.5699 27.95 53.6799C42.24 59.8999 58.95 53.3999 63.43 44.7299L24.71 38.1399ZM15.54 33.4599C12.38 31.4599 8.07996 29.9999 7.83996 26.6499L24.55 37.9999C32.82 33.3099 43.15 29.8099 51.24 23.9999C47.56 29.6499 43.24 30.7099 38.96 32.2699L15.54 33.4599ZM27.27 2.12988C23.74 11.5299 3.79996 17.1299 2.57996 24.1299C1.27996 35.3799 0.249959 52.0699 8.27996 54.4599C18.28 59.3999 26.48 54.0799 27.15 53.3399L27.27 2.12988ZM26 62.7799C24.1 63.0399 19.79 63.5199 18.49 62.5199L18.17 56.8199L26 62.7799Z" stroke="#999999" stroke-width="3" stroke-linecap="round" stroke-linejoin="round"/>
</g>
</g>
</g>
</svg>
