<svg xmlns="http://www.w3.org/2000/svg" viewBox="0 0 512 512"><defs><style>.cls-1,.cls-2{fill:#fff;}.cls-1{stroke:#fff;stroke-miterlimit:10;stroke-width:5px;}.cls-3{fill:#fffff2;}.cls-4{fill:none;stroke:#999;stroke-linecap:round;stroke-linejoin:round;stroke-width:3px;}</style></defs><g id="Rectangle"><rect class="cls-1" x="2.5" y="2.5" width="507" height="507"/></g><g id="Mouth"><g id="layer1"><g id="g298999"><path id="path481552" class="cls-2" d="M195.47,250.32c-3.28,3.2.58,9.18,2.13,8.63,10.64-.75,37.85-2.47,43.17-23.56,22.84-63.06-13.85-65.71-35.29-65.58-7.51,6.15-17.64,9-22.53,18.44-.83,15.57-3.84,33.09,12.37,31.49,0,0-7.93,9.13-5.63,14.88s2.5,5.52,4.31,6.18c-.45.87,5.33,5.76,1.47,9.52Z"/><path id="path13904-1" class="cls-3" d="M196.82,221.46l1,5.17L216.45,225l7-6.78c-11.66,4.32-10,.28-17.37.19C202.91,220.27,199.78,221.54,196.82,221.46Z"/><path id="path295891-72-2" class="cls-4" d="M194.94,258.39c11.36-3.79,15.48,9,14.25,8.65,7.46-5.76,16.73-.92,17.94,1.38,5.68-5.26,11.59-3,12.4-1.94M215.44,225.2c-3.32,1-8.06,1.91-9.44.72l-.33-7m-5,7.59c-8.93,6.51-3,13.1,22.79-6.78m-29.21,2.05c-11.65,17.63-.59,22.5,15.14,16.1m-5.58-35.78c.6,7.35-.5,12.14,3.17,15.19,13.95,6.07,30.24-.28,34.64-8.74m-46.77-11c-3.08-1.95-7.29-3.38-7.52-6.66L203.61,202c8.08-4.58,18.16-8,26.07-13.67-3.6,5.51-7.83,6.55-12,8.07M206.27,167c-3.45,9.18-22.92,14.65-24.12,21.48-1.26,11-2.27,27.29,5.57,29.62,9.76,4.83,17.78-.37,18.43-1.09m-1.14,9.2c-1.86.26-6.07.72-7.33-.25l-.32-5.57m40.2-14c3.56-.51,5,.39,7.92,4"/></g></g></g></svg>