<svg width="69" height="107" viewBox="0 0 69 107" fill="none" xmlns="http://www.w3.org/2000/svg">
<g id="Mouth4">
<g id="layer1">
<g id="g300826">
<path id="abColor_3" d="M27.3098 5.84983C26.2198 5.84983 25.1698 5.90983 24.1598 5.98983C20.0398 6.30983 8.28979 15.0998 6.23979 18.2698C-0.440214 28.6398 2.23978 28.2698 1.65978 31.4798C4.23978 38.9198 -1.00022 48.5398 15.1598 50.3498C15.1598 50.6098 15.1598 50.8898 15.0998 51.1798C13.1155 51.332 11.1199 51.2346 9.15978 50.8898C8.88978 51.4898 8.74978 58.8898 10.1598 59.2498C12.0415 59.5159 13.9393 59.6529 15.8398 59.6598C16.0576 60.1708 16.4017 60.6182 16.8398 60.9598C18.1298 64.4998 20.1198 67.7298 22.6698 69.2998C20.8498 68.7698 11.5898 77.4598 22.6698 79.6998C16.7698 82.2998 17.2398 86.5798 19.5098 90.6998C19.2998 90.6998 19.0898 90.6998 18.8598 90.6998C17.1198 90.6998 13.6498 92.5298 14.4998 97.5298C16.1898 107.53 26.3298 104.9 28.0798 105.58C40.6698 107.11 48.8398 105.03 57.7998 94.7398C70.6698 77.7398 69.7998 41.3198 67.7998 25.8298C67.7198 12.6898 43.6298 5.66982 27.3098 5.82982V5.84983Z" fill="white"/>
<path id="path434979" d="M23.9997 70.5301C23.9997 70.5301 37.8197 71.9201 43.7797 67.7701C49.7397 63.6201 54.1097 57.7701 54.8397 51.1101C55.5697 44.4501 54.3797 45.9201 54.3797 45.9201L48.1597 49.2801C48.0397 49.2801 48.6697 56.4501 47.8597 57.1601C45.0997 59.5901 41.4997 59.0801 41.0597 59.2201C39.3997 59.7601 32.5097 62.4401 31.1297 62.1501C26.1297 61.0901 32.4497 56.3901 26.8497 56.7201L24.3597 62.9201C21.7697 64.3101 23.5797 67.7301 23.9997 70.5301V70.5301Z" fill="#A37070"/>
<path id="path445115" d="M12 59.8896C12 59.8896 14.71 65.5697 14.73 67.6297C14.75 69.6897 14.62 75.1497 14.65 74.7097C14.65 74.0297 20.9 69.7097 22.38 69.7097C22.82 68.9897 22.65 63.8496 22.46 61.9496L12 59.8896ZM16.93 79.2896L14.52 89.0997C14.52 89.0997 20.83 90.9596 20.07 88.8396C18.44 84.3596 22.72 80.1597 23.07 80.5797L16.93 79.2896Z" fill="#CCCCCC"/>
<path id="path13904-3" d="M9.84961 51.6694L10.1896 58.6694L15.7596 60.5795C21.5996 63.3295 25.0796 60.2695 26.9596 56.0495C27.9596 65.5495 41.0696 60.5294 46.7596 56.6194L46.8696 50.0195C34.3096 53.4295 31.8696 51.0195 25.1596 49.1895C22.2296 50.8795 12.5596 51.7695 9.84961 51.7095V51.6694Z" fill="#FFFFF2"/>
<path id="abColor_4" d="M14.7097 89.8099C25.0997 86.3399 27.6497 102.68 26.5197 102.37C35.3297 93.2499 42.7997 99.3699 43.8597 101.57C46.4397 92.8899 55.4797 91.5699 57.0597 93.7199M21.5497 70.2799C24.2897 68.7899 23.5497 65.0099 22.6197 61.5099M56.2897 42.9299C53.2897 66.9299 44.4497 70.9299 23.0197 70.2899C13.5697 69.9899 12.9597 80.0799 23.4297 79.4199M22.6897 34.2999C23.2397 41.0199 22.2297 45.4099 25.5897 48.1899C45.1397 57.0899 60.5897 41.0299 61.7697 31.8799M14.4997 30.1199C11.6697 28.3299 7.82971 27.0299 7.60971 24.0299L22.5497 34.1899C29.9397 29.9899 39.1697 26.8699 46.4097 21.6799C43.1097 26.6799 39.2397 27.6799 35.4097 29.0599M24.9997 2.12988C21.8397 10.5299 3.9997 15.5399 2.9297 21.7899C1.7797 31.8499 0.859708 46.7899 8.02971 48.8899C16.9497 53.3099 24.2897 48.5499 24.8997 47.8899M14.4997 58.9999L10.1497 59.1999C8.8797 59.0599 9.1497 52.9899 9.5397 51.0899M41.0597 58.2899L46.5997 57.4099C49.1197 56.4599 47.5997 53.5099 47.0097 49.4999M15.3397 51.9999C15.4297 53.1799 14.1897 61.5099 17.3397 61.5299H24.0397C26.5997 61.0699 24.9497 55.7899 24.8797 50.7299M57.5697 30.1899C60.8297 29.7299 62.1697 30.5499 64.8097 33.8699L57.5697 30.1899ZM27.7097 50.3799C27.7097 50.3799 28.7097 62.0399 30.5397 61.8599L38.3497 61.0699C41.4497 60.2799 39.1897 54.8399 38.5597 50.7499L27.7097 50.3799Z" stroke="#999999" stroke-width="3" stroke-linecap="round" stroke-linejoin="round"/>
</g>
</g>
</g>
</svg>
