<svg width="66" height="98" viewBox="0 0 66 98" fill="none" xmlns="http://www.w3.org/2000/svg">
<g id="Mouth6">
<g id="layer1">
<g id="g300907">
<path id="abColor_3" d="M54.4702 64.6499C54.4702 65.9799 10.6802 73.4499 9.93018 62.7499C9.57018 57.6699 9.46018 56.5699 12.1502 55.9999C13.7882 55.6489 15.3964 55.1708 16.9602 54.5699L16.8102 50.7599C-7.58982 49.6199 4.15018 29.3699 4.20018 18.8599C38.9802 -8.6501 40.4002 8.72991 60.8302 16.7399C71.5102 46.7399 63.7702 62.0699 54.4702 64.6499V64.6499Z" fill="white"/>
<path id="path13904-9" d="M17.37 52.5903L17.27 56.5903L40.33 54.4103L40.01 52.0403C31.39 51.5403 33.38 51.6403 25.52 49.3203C22.52 51.0303 20.12 52.6303 17.37 52.5603V52.5903Z" fill="#FFFFF2"/>
<path id="path90947" d="M16.9104 51.8206C17.0004 53.0206 16.3904 57.6205 18.4004 57.2005C19.3717 56.9079 20.3898 56.8027 21.4004 56.8905C23.6204 57.0605 23.2204 56.1605 23.1404 51.0305M48.5104 56.0005C44.4304 53.0705 41.1204 53.6406 38.0504 57.1006L48.5104 56.0005ZM38.0504 57.7605C34.8104 55.5905 28.7604 55.5906 25.5104 59.1906L38.0504 57.7605ZM25.5104 57.2905C23.2604 56.9405 16.1404 55.9705 13.9004 59.1405L25.5104 57.2905ZM32.2904 51.2706C32.3804 52.4706 31.2404 56.1106 33.2904 55.9706L38.2904 55.6405C40.8904 54.9005 40.7304 55.8905 40.2904 51.5605L32.2904 51.2706ZM23.3904 50.5605C23.5004 51.7205 22.2204 56.7605 24.7704 56.6105L29.0904 56.3506C31.8704 56.5106 31.6804 56.1405 31.5804 51.1805L23.3904 50.5605Z" stroke="#999999" stroke-width="3" stroke-linecap="round" stroke-linejoin="bevel"/>
<path id="abColor_4" d="M15.2701 86.7001C25.8001 83.1901 29.6201 95.0401 28.4801 94.7001C35.4001 89.3601 43.9901 93.8401 45.1101 95.9801C50.3801 91.1001 55.8601 93.2001 56.6101 94.1801M21.0001 67.2501C17.4701 67.4701 10.9201 66.4301 9.91007 62.7001C7.91007 55.4601 14.7201 54.1301 16.0101 55.5301M23.3701 34.5301C23.9301 41.3301 22.9001 45.7801 26.3001 48.6001C47.9701 58.7001 58.1301 42.5301 58.3001 34.0301M15.0001 30.2901C12.1401 28.4801 8.25006 27.1601 8.00006 24.1201L23.1301 34.4101C30.6201 30.1601 39.9701 27.0001 47.3001 21.7401C43.9601 26.8501 40.0401 27.8101 36.1801 29.2201M26.7901 1.58008C24.0901 10.1501 4.33007 14.2701 3.24007 21.8501C2.07007 32.0401 1.13006 47.1501 8.40006 49.3101C17.4001 53.7901 24.8801 48.9701 25.4901 48.3101M55.1801 31.7101C58.4801 31.2501 59.8401 32.0701 62.5201 35.4401L55.1801 31.7101Z" stroke="#999999" stroke-width="3" stroke-linecap="round" stroke-linejoin="round"/>
</g>
</g>
</g>
</svg>
