<?xml version="1.0" encoding="UTF-8" standalone="no"?>
<svg
   inkscape:version="1.1.1 (3bf5ae0, 2021-09-20)"
   id="svg8"
   version="1.1"
   viewBox="0 0 97.895831 39.687502"
   height="150"
   width="370"
   xmlns:inkscape="http://www.inkscape.org/namespaces/inkscape"
   xmlns:sodipodi="http://sodipodi.sourceforge.net/DTD/sodipodi-0.dtd"
   xmlns="http://www.w3.org/2000/svg"
   xmlns:svg="http://www.w3.org/2000/svg"
   xmlns:rdf="http://www.w3.org/1999/02/22-rdf-syntax-ns#"
   xmlns:cc="http://creativecommons.org/ns#"
   xmlns:dc="http://purl.org/dc/elements/1.1/">
  <defs
     id="defs2" />
  <sodipodi:namedview
     borderlayer="true"
     units="px"
     showgrid="false"
     inkscape:document-rotation="0"
     inkscape:current-layer="layer1"
     inkscape:document-units="px"
     inkscape:cy="121.72338"
     inkscape:cx="245.97214"
     inkscape:zoom="0.98994949"
     inkscape:pageshadow="2"
     inkscape:pageopacity="0"
     borderopacity="1.0"
     bordercolor="#666666"
     pagecolor="#585858"
     id="base"
     inkscape:pagecheckerboard="1"
     inkscape:snap-global="false"
     fit-margin-top="0"
     fit-margin-left="0"
     fit-margin-right="0"
     fit-margin-bottom="0"
     inkscape:window-width="1280"
     inkscape:window-height="967"
     inkscape:window-x="0"
     inkscape:window-y="1"
     inkscape:window-maximized="1" />
  <metadata
     id="metadata5">
    <rdf:RDF>
      <cc:Work
         rdf:about="">
        <dc:format>image/svg+xml</dc:format>
        <dc:type
           rdf:resource="http://purl.org/dc/dcmitype/StillImage" />
      </cc:Work>
    </rdf:RDF>
  </metadata>
  <g
     id="layer1"
     inkscape:groupmode="layer"
     inkscape:label="Layer 1"
     transform="translate(-94.52741,-158.56634)">
    <g
       id="g1849"
       inkscape:label="eyes5"
       style="display:inline"
       transform="translate(14.421157,66.337567)">
      <path
         id="path621540-2"
         style="display:inline;fill:#ffffff;fill-opacity:1;stroke:none;stroke-width:2.08389;stroke-linecap:butt;stroke-linejoin:miter;stroke-miterlimit:4;stroke-dasharray:none;stroke-dashoffset:0;stroke-opacity:1"
         d="m 111.0161,114.50423 c -3.40285,5.79731 -14.40315,6.1683 -20.200756,2.69306 -1.297887,-5.24718 11.034076,-23.444287 20.200756,-2.69306 z m 36.2672,-1.61751 c -3.92046,5.97014 -16.59407,6.35218 -23.27357,2.77334 -1.49532,-5.4036 12.71251,-24.143179 23.27357,-2.77334 z" />
      <path
         style="opacity:1;vector-effect:none;fill:#cccccc;fill-opacity:1;stroke:none;stroke-width:0.132292;stroke-linecap:butt;stroke-linejoin:miter;stroke-miterlimit:4;stroke-dasharray:none;stroke-dashoffset:0;stroke-opacity:1"
         d="m 149.18062,97.282441 c 0,0 5.15218,-1.927411 5.02842,7.375399 -0.12376,9.3028 -1.23902,20.38934 -1.23902,20.38934 l -23.90337,0.3251 -3.28839,-7.96488 c 0,0 9.73064,1.04475 13.0772,0.197 3.34655,-0.84776 9.33246,-2.87619 9.33246,-2.87619 0,0 -2.19642,-7.32167 -5.69541,-8.92493 -3.499,-1.60326 -6.14597,-4.18423 -6.14597,-4.18423 0,0 4.69553,-3.928405 8.03219,-3.928405 3.33667,0 4.80189,-0.408204 4.80189,-0.408204 z"
         id="path530256"
         sodipodi:nodetypes="cscccscscsc" />
      <path
         id="path621542-7"
         style="display:inline;vector-effect:none;fill:#333333;stroke-width:1.45032;stroke-linecap:round;stroke-linejoin:round;paint-order:stroke fill markers;stop-color:#000000"
         d="m 93.838116,113.57398 c -0.03991,4.08199 2.871977,6.33638 6.579954,6.38176 3.70792,0.0453 6.80782,-2.13543 6.84773,-6.21742 0.0399,-4.082 -2.93361,-7.42792 -6.64156,-7.4733 -3.70797,-0.0454 -6.746209,3.22694 -6.786124,7.30896 z m 33.654184,-1.64524 c -0.046,4.20368 3.22063,6.84055 7.49261,6.88728 4.27198,0.0467 7.93163,-2.51436 7.97762,-6.71804 0.046,-4.20368 -3.37986,-7.64935 -7.65184,-7.69608 -4.27201,-0.0467 -7.77241,3.32313 -7.81839,7.52684 z" />
      <path
         id="ellipse621546-0"
         style="display:inline;vector-effect:none;fill:#ffffff;stroke-width:1.38926;stroke-linecap:round;stroke-linejoin:round;paint-order:stroke fill markers;stop-color:#000000"
         d="m 100.39713,112.16367 a 2.3806011,1.5415476 0.80297828 0 0 2.36535,1.57061 2.3806011,1.5415476 0.80297828 0 0 2.39549,-1.51235 2.3806011,1.5415476 0.80297828 0 0 -2.36534,-1.57061 2.3806011,1.5415476 0.80297828 0 0 -2.3955,1.51235 z m 34.93422,-1.77685 a 2.742677,1.5875299 0.62676187 0 0 2.72515,1.61743 2.742677,1.5875299 0.62676187 0 0 2.75987,-1.55744 2.742677,1.5875299 0.62676187 0 0 -2.72514,-1.61743 2.742677,1.5875299 0.62676187 0 0 -2.75988,1.55744 z" />
      <path
         id="path621544-3"
         style="display:inline;fill:none;fill-opacity:1;stroke:#999999;stroke-width:2.11667;stroke-linecap:butt;stroke-linejoin:miter;stroke-miterlimit:4;stroke-dasharray:none;stroke-dashoffset:0;stroke-opacity:1"
         d="m 111.0161,114.50423 c -3.40285,5.79731 -14.308712,5.85679 -20.106318,2.38155 -0.140057,-0.56639 0.172693,-1.96249 0.32912,-2.76538 1.292482,-6.63527 12.573398,-17.174322 19.777088,0.38383 z m 36.2672,-1.61751 c -3.92046,5.97014 -16.59407,6.35218 -23.27357,2.77334 -0.16136,-0.58327 -0.13993,-1.32197 0.0402,-2.14874 1.48909,-6.83307 13.81217,-19.687745 23.23325,-0.6246 z" />
      <path
         id="path1569"
         style="display:inline;opacity:1;vector-effect:none;fill:#008080;fill-opacity:1;stroke:none;stroke-width:0.500001;stroke-linecap:butt;stroke-linejoin:miter;stroke-miterlimit:4;stroke-dasharray:none;stroke-dashoffset:0;stroke-opacity:1"
         d="m 570.42383,358.64844 -239.16602,4.04687 c -11.91316,1.68076 -21.0759,6.31163 -20.84765,21.01563 L 312,467.10547 c 2.1947,15.33727 9.81486,18.9231 22.0625,20.57031 l 22.58203,0.48633 c 0.41647,-6.78362 2.52695,-11.53246 5.73047,-14.9668 -1.82891,0.076 -21.73847,0.84075 -33.13477,-1.45312 -11.94628,-2.40454 -8.12304,-9.14453 -8.12304,-9.14453 l 55.29883,-0.084 -8.02344,6.25195 c 3.0956,-1.64156 6.56834,-2.82911 10.27344,-3.73828 l 19.36328,-13.76757 c 38.2984,-13.11111 67.61867,-11.70469 78.75781,20.04882 l 16.45508,17.10352 82.0039,-0.14844 c 5.89671,-3.6449 12.3987,-5.28977 15.87696,-16.92773 l 2.33593,-73.43164 71.74414,-6.60547 -0.4414,-15.81641 -74.5293,-3.08398 c -4.92181,-6.53495 -9.93469,-10.77439 -19.80859,-13.75 z m -8.19727,14.86133 c 14.93908,0.68292 14.62848,7.60218 15.58399,14.0039 l -255.63477,-0.67578 c -0.47801,-4.40028 0.40959,-5.94644 7.54102,-9.36523 z m 15.05469,24.11328 0.54297,11.65039 -255.63477,-0.67578 0.39649,-10.56836 z m 0.10547,20.49414 0.82031,10.33984 -255.92578,1.54688 0.0273,-10.97266 z m 0.37109,20.44922 -0.11914,12.41211 -95.17383,0.11914 -7.52734,-11.9375 z m -173.98242,0.8164 -3.42578,9.36328 -6.33789,1.18555 -73.23828,0.20313 1.07031,-10.16016 z m 83.40039,22.08789 90.60938,0.28711 c 0,0 -3.10862,7.70558 -7.11719,9.82227 -4.00857,2.11653 -79.27149,0.30469 -79.27149,0.30469 z"
         transform="scale(0.26458333)"
         sodipodi:nodetypes="cccccccscccccccccccccscccccccccccccccccccccccccccccscc" />
      <path
         id="path28071"
         style="vector-effect:none;fill:none;stroke:#000000;stroke-width:1.32292;stroke-linecap:round;stroke-linejoin:round;stop-color:#000000"
         d="m 156.52411,98.598144 19.25952,0.671133 v 4.299173 l -19.35039,1.85839 z m -60.933566,26.605686 -7.5704,-0.053 c -3.003864,-0.021 -3.305616,-1.71529 -3.305616,-4.62434 v -17.88961 c 0,-2.909061 2.418761,-3.018686 5.422283,-3.067516 19.126949,-0.33338 38.254279,-0.667 57.381359,-1.00054 3.00347,-0.0524 5.42228,0.82663 5.42228,3.735676 v 18.09573 c 0,2.90905 -0.70254,4.52024 -3.70646,4.52919 l -19.67612,0.0586 c -2.77043,-8.91705 -4.29491,-10.89097 -15.71135,-10.6738 -4.12902,0.0785 -7.24118,1.44108 -7.54433,4.00407 m -21.23018,3.77947 15.09659,-0.007 m 28.62359,-0.18944 23.83008,-0.15204 c 0.33805,0.88982 0.40831,3.33183 -4.74539,3.26292 l -18.16251,0.0845 m -25.3944,-5.64253 -19.608763,0.0894 0.09087,-3.12453 21.837053,-0.13677 m 18.52854,-0.11821 27.59358,-0.17605 v 3.24084 l -25.29596,0.11768 m -42.513542,-8.54461 67.959172,-0.43103 v 3.24084 l -68.050043,0.31472 z m 0.02138,-5.48025 67.959172,-0.43103 v 3.24084 l -68.050043,0.31472 z m 4.578345,-5.775986 59.030057,-0.95505 c 0.40853,0.0971 4.37215,-0.3941 4.37215,3.793766 l -68.050045,0.31472 c 0.03938,-2.33858 1.070625,-3.154616 4.647838,-3.153436 z m -1.672907,-3.49701 63.041344,-1.05833 c 3.0764,-0.0517 5.55385,2.47701 5.55385,5.553856 v 23.05721 c 0,3.07683 -2.47714,5.58107 -5.55385,5.55385 l -19.57317,-0.17318 c -2.06485,-0.12979 -3.60339,-1.31866 -4.72053,-3.3775 -0.85585,-1.5773 -0.57248,-9.28046 -14.46262,-8.44018 -5.60158,0.33887 -8.8456,3.42769 -12.09091,5.25896 -3.178506,1.79356 -5.335008,2.89076 -5.524028,6.25872 l -6.670086,-0.056 c -3.076728,-0.0258 -5.553855,-1.81422 -5.553855,-4.89105 v -22.13251 c 0,-3.076846 2.477452,-5.502206 5.553855,-5.553856 z"
         sodipodi:nodetypes="cccccccsscssssccccccccccccccccccccccccccccccccccssscsssccsssc" />
    </g>
  </g>
</svg>
