<svg xmlns="http://www.w3.org/2000/svg" viewBox="0 0 512 512"><defs><style>.cls-1,.cls-2,.cls-4{fill:#fff;}.cls-1{stroke:#fff;stroke-miterlimit:10;stroke-width:5px;}.cls-3{fill:#333;}.cls-4,.cls-6{stroke:#999;stroke-width:3px;}.cls-4{stroke-linecap:round;stroke-linejoin:round;}.cls-5{fill:#ccc;}.cls-6{fill:none;stroke-miterlimit:15.12;}</style></defs><g id="Rectangle"><rect class="cls-1" x="2.5" y="2.5" width="507" height="507"/></g><g id="Eyes"><g id="layer1"><g id="g1062"><path id="path621540" class="cls-2" d="M207.41,164.28c-5.65,9.63-23.94,10.25-33.57,4.47C171.68,160,192.18,129.79,207.41,164.28Zm60.27-2.69c-6.51,9.92-27.57,10.56-38.68,4.61C226.52,157.22,250.13,126.08,267.68,161.59Z"/><path id="path621542" class="cls-3" d="M178.86,162.73c-.06,6.79,4.78,10.53,10.94,10.61s11.31-3.55,11.38-10.34-4.88-12.34-11-12.42S178.93,156,178.86,162.73ZM234.79,160c-.07,7,5.35,11.37,12.45,11.44s13.19-4.18,13.26-11.16a12.86,12.86,0,0,0-25.71-.28Z"/><path id="ellipse621546" class="cls-2" d="M190,162.94c0,1.41,1.75,2.58,3.93,2.61h0c2.19,0,4-1.1,4-2.52h0c0-1.41-1.74-2.58-3.93-2.61S190,161.52,190,162.94Zm58.06-3c0,1.46,2,2.66,4.53,2.69h0c2.51,0,4.57-1.13,4.58-2.59h0c0-1.45-2-2.66-4.53-2.69s-4.57,1.14-4.58,2.59Z"/><path id="path621572" class="cls-4" d="M175.36,160.86c12.7-4.41,21.91-4.27,29.18-2,.08,0-4.94-11.16-13.33-10.69C179.56,148.78,176.8,159.15,175.36,160.86Zm55.73-3.3c12.7-4.41,23.22-2.87,33.34-1.89.08,0-6.36-10.91-15.28-10.87C236.43,144.86,231.53,157.67,231.09,157.56Z"/><path id="path526843" class="cls-5" d="M247.2,146.22c-9.17,0-14.13,9-14.13,9,3.34-.82,6.84-1.63,9.8-2,0,0,.6-4.14,7-6.67A15,15,0,0,0,247.2,146.22Zm-56.06,3.23c-9.18,0-14.13,9-14.13,9,3.32-.81,6.75-1.87,10.19-2.36,0-.12-.3-4.91,7.18-5.75A25.86,25.86,0,0,0,191.14,149.45Z"/><path id="path621544" class="cls-6" d="M207.41,164.28c-5.65,9.63-23.78,9.73-33.41,4-.24-1,.28-3.27.54-4.6,2.15-11,20.9-28.54,32.87.64Zm60.27-2.69c-6.51,9.92-27.57,10.56-38.68,4.61a7.75,7.75,0,0,1,.07-3.57c2.48-11.36,23-32.72,38.61-1Z"/></g></g></g></svg>