<?xml version="1.0" encoding="UTF-8" standalone="no"?>
<svg
   inkscape:version="1.1.1 (3bf5ae0, 2021-09-20)"
   id="svg8"
   version="1.1"
   viewBox="0 0 97.895831 39.687502"
   height="150"
   width="370"
   xmlns:inkscape="http://www.inkscape.org/namespaces/inkscape"
   xmlns:sodipodi="http://sodipodi.sourceforge.net/DTD/sodipodi-0.dtd"
   xmlns="http://www.w3.org/2000/svg"
   xmlns:svg="http://www.w3.org/2000/svg"
   xmlns:rdf="http://www.w3.org/1999/02/22-rdf-syntax-ns#"
   xmlns:cc="http://creativecommons.org/ns#"
   xmlns:dc="http://purl.org/dc/elements/1.1/">
  <defs
     id="defs2" />
  <sodipodi:namedview
     borderlayer="true"
     units="px"
     showgrid="false"
     inkscape:document-rotation="0"
     inkscape:current-layer="layer1"
     inkscape:document-units="px"
     inkscape:cy="121.72338"
     inkscape:cx="245.97214"
     inkscape:zoom="0.98994949"
     inkscape:pageshadow="2"
     inkscape:pageopacity="0"
     borderopacity="1.0"
     bordercolor="#666666"
     pagecolor="#585858"
     id="base"
     inkscape:pagecheckerboard="1"
     inkscape:snap-global="false"
     fit-margin-top="0"
     fit-margin-left="0"
     fit-margin-right="0"
     fit-margin-bottom="0"
     inkscape:window-width="1280"
     inkscape:window-height="967"
     inkscape:window-x="0"
     inkscape:window-y="1"
     inkscape:window-maximized="1" />
  <metadata
     id="metadata5">
    <rdf:RDF>
      <cc:Work
         rdf:about="">
        <dc:format>image/svg+xml</dc:format>
        <dc:type
           rdf:resource="http://purl.org/dc/dcmitype/StillImage" />
      </cc:Work>
    </rdf:RDF>
  </metadata>
  <g
     id="layer1"
     inkscape:groupmode="layer"
     inkscape:label="Layer 1"
     transform="translate(-94.52741,-158.56634)">
    <g
       id="g8806"
       style="display:inline"
       transform="translate(-10.176387,-169.11561)"
       inkscape:label="eyes8">
      <path
         id="path363125"
         style="font-variation-settings:normal;vector-effect:none;fill:#000000;fill-opacity:1;stroke:#000000;stroke-width:5.04404;stroke-linecap:butt;stroke-linejoin:miter;stroke-miterlimit:4;stroke-dasharray:none;stroke-dashoffset:0;stroke-opacity:1;-inkscape-stroke:none;stop-color:#000000"
         d="m 576.40156,376.26079 -245.28854,6.84129 0.29101,24.77344 c 2.82153,16.7008 13.21551,41.52728 29.33172,46.61398 l 37.12753,-0.2395 c 45.83339,-73.27706 70.34427,1.81123 83.80078,0 h 34.36914 c 38.9994,-3.5116 47.51397,-34.21206 60.4254,-46.13023 z m 7.38242,0.68988 0.0295,29.32563 67.69631,-2.73919 c 10.52333,-4.25658 3.77934,-10.14288 1.10351,-13.09375 z"
         sodipodi:nodetypes="cccccccccccccc"
         transform="matrix(0.26458333,0,0,0.26458333,22.911552,237.63345)" />
      <path
         id="path296043"
         style="vector-effect:none;fill:#f2f2f2;fill-opacity:1;stroke:none;stroke-width:0.222429;stroke-linecap:butt;stroke-linejoin:miter;stroke-miterlimit:4;stroke-dasharray:none;stroke-dashoffset:0;stroke-opacity:1"
         d="m 160.88658,337.53312 -7.75333,19.05715 -1.6164,-0.0651 7.77218,-18.96911 z m 8.00743,0 -7.75333,19.05715 -6.06496,-0.0651 7.77217,-18.96911 z m -40.56569,1.07976 -7.22478,17.97739 -1.6164,-0.0651 7.24363,-17.88935 z m 7.11771,0 -7.22478,17.97739 -5.17524,-0.0651 7.24362,-17.88935 z" />
    </g>
  </g>
</svg>
