<svg width="98" height="31" viewBox="0 0 98 31" fill="none" xmlns="http://www.w3.org/2000/svg">
<path d="M35.52 21.2899C29.86 30.9199 11.59 31.5399 1.95998 25.7699C-0.420022 20.3299 18.69 10.2099 35.52 21.2899ZM95.76 18.6099C89.25 28.5199 68.19 29.1599 57.1 23.2099C54.34 17.0899 76.87 6.15992 95.76 18.6099V18.6099Z" fill="#FFC6C6"/>
<path d="M13.59 19.7803C13.59 22.4803 15.49 23.9703 17.94 24.0003C20.39 24.0303 22.44 22.5903 22.47 19.8903C22.5359 19.2728 22.4721 18.6484 22.2828 18.057C22.0934 17.4656 21.7827 16.9203 21.3704 16.456C20.9581 15.9916 20.4534 15.6185 19.8886 15.3604C19.3238 15.1023 18.7114 14.9651 18.0904 14.9574C17.4695 14.9497 16.8538 15.0717 16.2828 15.3157C15.7118 15.5597 15.198 15.9202 14.7744 16.3743C14.3507 16.8283 14.0265 17.3657 13.8226 17.9522C13.6187 18.5388 13.5394 19.1614 13.59 19.7803V19.7803ZM71.05 18.0003C71.05 20.6803 73.05 22.3603 75.82 22.3903C78.59 22.4203 80.88 20.7903 80.91 18.1103C80.9246 16.8028 80.4192 15.543 79.5049 14.6082C78.5907 13.6733 77.3425 13.1399 76.035 13.1253C74.7275 13.1107 73.4677 13.6161 72.5329 14.5304C71.598 15.4446 71.0646 16.6928 71.05 18.0003V18.0003Z" fill="#333333"/>
<path d="M35.52 21.2901C29.86 30.9201 11.75 31.0201 2.12003 25.2901C1.88003 24.3501 2.40003 22.0301 2.66003 20.7001C4.81003 9.70013 23.55 -7.82986 35.52 21.3301V21.2901ZM95.76 18.6101C89.25 28.5201 68.19 29.1601 57.1 23.2101C56.8399 22.0314 56.8639 20.8077 57.17 19.6401C59.64 8.29013 80.11 -13.0599 95.76 18.6401V18.6101Z" stroke="#999999" stroke-width="3" stroke-linecap="round" stroke-linejoin="round"/>
<path d="M19.1499 20.9305C19.1499 21.1957 19.2553 21.45 19.4428 21.6376C19.6303 21.8251 19.8847 21.9305 20.1499 21.9305C20.2813 21.9386 20.413 21.9207 20.5374 21.8778C20.6619 21.8349 20.7766 21.7679 20.8751 21.6806C20.9736 21.5932 21.0538 21.4873 21.1113 21.3689C21.1688 21.2505 21.2023 21.1219 21.2099 20.9905C21.2099 20.7253 21.1046 20.4709 20.917 20.2834C20.7295 20.0958 20.4751 19.9905 20.2099 19.9905C20.0785 19.9824 19.9468 20.0003 19.8224 20.0431C19.698 20.086 19.5832 20.1531 19.4847 20.2404C19.3862 20.3277 19.306 20.4336 19.2485 20.552C19.1911 20.6705 19.1575 20.7991 19.1499 20.9305ZM77.6699 19.0505C77.6952 19.2912 77.8143 19.5123 78.0015 19.6658C78.1887 19.8193 78.4289 19.8928 78.6699 19.8705C78.7875 19.8844 78.9066 19.875 79.0205 19.8429C79.1345 19.8107 79.2409 19.7563 79.3338 19.683C79.4267 19.6096 79.5042 19.5186 79.5619 19.4152C79.6195 19.3118 79.6563 19.1981 79.6699 19.0805C79.6471 18.8379 79.529 18.6143 79.3415 18.4587C79.1541 18.3031 78.9125 18.2282 78.6699 18.2505C78.5514 18.2352 78.431 18.2439 78.3159 18.2762C78.2008 18.3084 78.0934 18.3635 78.0001 18.4382C77.9068 18.5128 77.8294 18.6055 77.7727 18.7107C77.716 18.8159 77.681 18.9315 77.6699 19.0505V19.0505Z" fill="white"/>
<path d="M2.6499 21.0005C13.0199 18.1105 26.6499 18.6605 34.9099 20.2105C35.3499 20.0105 28.4299 4.50052 19.3799 5.21052C7.80991 6.00052 3.2699 17.7805 2.6499 21.0005ZM57.3699 19.6405C72.8599 15.6405 87.7199 17.4005 95.0299 17.5805C95.9199 17.6805 87.6999 2.20051 77.0299 2.02051C63.5999 1.87051 56.3599 18.9305 57.3399 19.6405H57.3699Z" fill="white" stroke="#999999" stroke-width="3" stroke-linecap="round" stroke-linejoin="round"/>
<path d="M73.6601 3.99983C64.5101 6.26983 59.4401 17.5298 59.6601 17.3398C63.0066 16.628 66.3878 16.0906 69.7901 15.7298C69.6401 15.7298 69.3901 6.64983 76.5901 3.80983C75.6095 3.71538 74.6202 3.77953 73.6601 3.99983V3.99983ZM19.1301 6.83983C9.13008 7.69983 4.87008 18.8398 5.13008 18.5898C8.46008 17.7798 11.6601 17.9498 15.1301 17.4598C15.1301 17.5998 14.5201 9.29984 21.5301 7.06984C20.7471 6.88771 19.9434 6.81036 19.1401 6.83983H19.1301Z" fill="#CCCCCC"/>
</svg>
