<svg width="96" height="36" viewBox="0 0 96 36" fill="none" xmlns="http://www.w3.org/2000/svg">
<path d="M35.69 22.4701C30.1 32.5201 13.38 39.1101 1.94001 26.9701C-0.76999 17.7701 19.35 -15.5199 35.69 22.4701ZM95.55 19.2501C89.02 29.2501 71.69 43.1301 57.39 24.4001C54.9 15.3701 77.68 -20.1199 95.55 19.2501Z" fill="white"/>
<path d="M35.6901 22.4704C29.1201 35.0704 8.93007 38.4704 2.09007 25.1404C-2.68993 9.67043 25.5901 -12.8496 35.6901 22.4704ZM94.2301 18.6004C91.7801 37.6004 65.3601 38.8704 57.2301 22.4404C58.0001 -0.139563 91.0001 -8.28956 94.2301 18.6004Z" stroke="#999999" stroke-width="3" stroke-miterlimit="15.12"/>
<path d="M6.31004 19.8697C6.24004 26.4897 11.96 31.2997 18.69 31.3697C21.8859 31.3697 24.9509 30.1001 27.2107 27.8403C29.4705 25.5805 30.7401 22.5156 30.7401 19.3197C30.7401 16.1238 29.4705 13.0589 27.2107 10.7991C24.9509 8.53924 21.8859 7.26969 18.69 7.26969C11.96 7.18969 6.37005 13.2697 6.30005 19.8697H6.31004ZM63.05 19.0097C62.97 26.0097 69.05 31.1197 76.16 31.1997C77.8344 31.2129 79.4949 30.8943 81.0455 30.2624C82.5961 29.6305 84.0062 28.6976 85.1944 27.5178C86.3826 26.338 87.3254 24.9345 87.9682 23.3884C88.6111 21.8423 88.9414 20.1841 88.94 18.5097C88.948 15.114 87.6074 11.8541 85.2128 9.44637C82.8183 7.03869 79.5657 5.68028 76.17 5.66969C69.04 5.58969 63.17 11.9997 63.05 19.0097V19.0097Z" fill="#333333"/>
<path d="M20.9402 14.7905C20.9793 15.9718 21.4796 17.0908 22.3339 17.9076C23.1881 18.7245 24.3283 19.1743 25.5102 19.1605C26.0906 19.1915 26.6714 19.1071 27.219 18.9123C27.7666 18.7176 28.2702 18.4162 28.7007 18.0257C29.1312 17.6352 29.4801 17.1632 29.7271 16.6371C29.9742 16.111 30.1146 15.5412 30.1402 14.9605C30.1036 13.7784 29.6041 12.6579 28.7493 11.8405C27.8945 11.0231 26.7528 10.5742 25.5702 10.5905C24.9898 10.5596 24.409 10.6439 23.8614 10.8387C23.3138 11.0335 22.8101 11.3349 22.3797 11.7254C21.9492 12.1159 21.6003 12.5878 21.3532 13.1139C21.1062 13.64 20.9658 14.2099 20.9402 14.7905V14.7905ZM78.5502 13.6405C78.5868 14.8925 79.1155 16.0796 80.0215 16.9444C80.9275 17.8092 82.1379 18.2821 83.3902 18.2605C84.005 18.2942 84.6205 18.2053 85.2007 17.9992C85.781 17.7931 86.3145 17.4738 86.7704 17.0598C87.2262 16.6458 87.5953 16.1454 87.8562 15.5876C88.1171 15.0298 88.2646 14.4258 88.2902 13.8105C88.2484 12.5603 87.7182 11.3762 86.8133 10.5125C85.9084 9.64873 84.701 9.17414 83.4502 9.19054C82.8353 9.1569 82.2199 9.24572 81.6396 9.45184C81.0594 9.65797 80.5258 9.97729 80.07 10.3913C79.6141 10.8053 79.2451 11.3057 78.9842 11.8634C78.7233 12.4212 78.5758 13.0253 78.5502 13.6405V13.6405Z" fill="white"/>
</svg>
