<svg xmlns="http://www.w3.org/2000/svg" viewBox="0 0 512 512"><defs><style>.cls-1,.cls-2{fill:#fff;}.cls-1{stroke:#fff;stroke-miterlimit:10;stroke-width:5px;}.cls-3{fill:#333;}.cls-4{fill:none;stroke:#999;stroke-miterlimit:15.12;stroke-width:3px;}</style></defs><g id="Rectangle"><rect class="cls-1" x="2.5" y="2.5" width="507" height="507"/></g><g id="Eyes"><g id="layer1"><g id="g22629"><path id="path22621" class="cls-2" d="M203,168.67c-5.65,9.63-23.93,10.25-33.57,4.47C167.26,164.42,187.75,134.18,203,168.67ZM263.25,166c-6.51,9.92-27.57,10.56-38.67,4.61C222.09,161.61,245.7,130.47,263.25,166Z"/><path id="path22623" class="cls-3" d="M172.66,167.68c0,3.6,2.54,5.59,5.81,5.63s6-1.89,6-5.49-2.59-6.55-5.86-6.59S172.7,164.08,172.66,167.68Zm72.39-3.54c0,3.57,2.74,5.81,6.37,5.85s6.75-2.13,6.79-5.71a6.58,6.58,0,0,0-13.16-.14Z"/><path id="path22625" class="cls-4" d="M203,168.67c-5.65,9.63-23.78,9.73-33.41,4-.23-.95.29-3.27.55-4.6,2.14-11,20.89-28.54,32.86.64ZM263.25,166c-6.51,9.92-27.57,10.56-38.67,4.61a7.6,7.6,0,0,1,.06-3.57c2.48-11.36,23-32.72,38.61-1Z"/><path id="path22627" class="cls-2" d="M173.4,165.71c0,.93,1.16,1.71,2.61,1.73s2.63-.73,2.63-1.67-1.15-1.71-2.6-1.73-2.63.73-2.64,1.67Zm78.67-3c0,.82,1.14,1.51,2.57,1.52s2.6-.64,2.61-1.47-1.14-1.51-2.58-1.52-2.59.64-2.6,1.47Z"/></g></g></g></svg>