<svg xmlns="http://www.w3.org/2000/svg" viewBox="0 0 512 512"><defs><style>.cls-1,.cls-2{fill:#fff;}.cls-1{stroke:#fff;stroke-miterlimit:10;stroke-width:5px;}.cls-3{fill:#ccc;}.cls-4{fill:#333;}.cls-5{fill:none;stroke:#999;stroke-miterlimit:15.12;stroke-width:3px;}</style></defs><g id="Rectangle"><rect class="cls-1" x="2.5" y="2.5" width="507" height="507"/></g><g id="Eyes"><g id="layer1"><g id="g144220"><path id="path344263" class="cls-2" d="M207.5,165.38c-16.68,10.36-24.37,5.69-33.54,1.49,1.79-7.8,7.79-18.19,15.93-18.56S207.5,165.38,207.5,165.38Zm60.25-3c-16.44,11.8-29.3,8.48-38.54,3.84-2.94.85,3.29-17.86,17.39-20.28,8.8-1.5,14.68,7.17,21.15,16.44Z"/><path id="path526843-9" class="cls-3" d="M245.82,147c-9.12,0-14.16,12.27-14.16,12.27,3.32-.82,8.38,0,11.32-.44.05,0,.33-9.49,6.72-12a29,29,0,0,0-3.88.18Zm-56.17,2.5c-9.12,0-13.67,11.67-13.67,11.67,3.3-.81,7.57-.76,11-1.25-.05-.12,1.8-9.16,9.23-10-.93-.17-5.69-.42-6.55-.42Z"/><path id="path135005" class="cls-4" d="M178.85,160.47c-.07,7,4.71,11.36,11,11.44s11.61-4.18,11.68-11.16Zm55.56,0c-.08,6.94,5.32,11.29,12.37,11.37s13.09-4.15,13.17-11.09Z"/><path id="ellipse135009" class="cls-2" d="M190.64,163.91c0,1.46,1.77,2.66,4,2.69s4-1.13,4-2.59-1.78-2.66-4-2.69S190.65,162.45,190.64,163.91Zm58.09-1.74c0,1.44,2,2.64,4.5,2.67s4.54-1.13,4.56-2.57-2-2.65-4.5-2.67h0c-2.5,0-4.54,1.12-4.56,2.57Z"/><path id="path135011" class="cls-5" d="M175.77,161.87c7.47-.6,20.25,0,29.76-.69m2.29,3.21c-7.89,9.47-23.78,9.21-33.55,3.26-.23-1-.71-.85-.44-2.22,2.17-11.35,20.2-32.71,34-1ZM267.08,162c-6.47,9.85-27.39,10.48-38.42,4.57a7.49,7.49,0,0,1,.07-3.54c2.46-11.28,22.8-32.5,38.35-1Zm-37.44-1.21c12-1.18,24.2-1,34.92-1.7"/></g></g></g></svg>