<svg width="97" height="32" viewBox="0 0 97 32" fill="none" xmlns="http://www.w3.org/2000/svg">
<path d="M35.0001 21.6702C29.3501 31.3002 11.0701 31.9202 1.43006 26.1402C-0.739942 17.4202 19.7501 -12.8198 35.0001 21.6702ZM95.2501 19.0002C88.7401 28.9202 67.6801 29.5602 56.5801 23.6102C54.0901 14.6102 77.7001 -16.5298 95.2501 19.0002Z" fill="white"/>
<path d="M4.66016 20.6802C4.66016 24.2802 7.20015 26.2702 10.4702 26.3102C13.7402 26.3502 16.4702 24.4203 16.4702 20.8203C16.4702 17.2203 13.8802 14.2702 10.6102 14.2302C7.34015 14.1902 4.70016 17.0802 4.66016 20.6802ZM77.0502 17.1403C77.0502 20.7103 79.7902 22.9503 83.4202 22.9903C87.0502 23.0303 90.1701 20.8602 90.2101 17.2802C90.2287 15.5351 89.5533 13.8541 88.3324 12.607C87.1115 11.3599 85.4453 10.6488 83.7001 10.6303C81.955 10.6117 80.274 11.2871 79.0269 12.508C77.7798 13.7288 77.0687 15.3951 77.0502 17.1403V17.1403Z" fill="#333333"/>
<path d="M35 21.6703C29.35 31.3003 11.22 31.4003 1.58997 25.6703C1.35997 24.7203 1.87998 22.4003 2.13998 21.0703C4.27998 10.0703 23.03 -7.4697 35 21.7103V21.6703ZM95.25 19.0003C88.74 28.9203 67.68 29.5603 56.58 23.6103C56.3162 22.4324 56.3368 21.2086 56.64 20.0403C59.12 8.68029 79.64 -12.6797 95.25 19.0403V19.0003Z" stroke="#999999" stroke-width="3" stroke-miterlimit="15.12"/>
<path d="M5.40015 18.7103C5.40015 19.6403 6.56015 20.4203 8.01015 20.4403C9.46015 20.4603 10.6402 19.7103 10.6402 18.7703C10.6402 17.8303 9.49015 17.0603 8.04015 17.0403C6.59015 17.0203 5.41015 17.7703 5.40015 18.7103V18.7103ZM84.0702 15.7103C84.0702 16.5303 85.2102 17.2203 86.6402 17.2303C88.0702 17.2403 89.2402 16.5903 89.2502 15.7603C89.2602 14.9303 88.1102 14.2503 86.6702 14.2403C85.2302 14.2303 84.0802 14.8803 84.0702 15.7103Z" fill="white"/>
</svg>
