<svg width="98" height="31" viewBox="0 0 98 31" fill="none" xmlns="http://www.w3.org/2000/svg">
<path d="M35.41 21.2801C29.76 30.9101 11.47 31.5301 1.83996 25.7501C-0.32004 17.0001 20.18 -13.2099 35.41 21.2801ZM95.68 18.5901C89.17 28.5101 68.11 29.1501 57 23.2001C54.52 14.2201 78.13 -16.9199 95.68 18.5901Z" fill="white"/>
<path d="M6.85993 19.7298C6.79993 26.5198 11.6399 30.2598 17.7999 30.3398C23.9599 30.4198 29.1099 26.7898 29.1799 19.9998C29.2499 13.2098 24.2999 7.65977 18.1799 7.57977C12.0599 7.49977 6.92993 12.9998 6.85993 19.7298ZM62.7899 16.9998C62.7199 23.9998 68.1399 28.3698 75.2399 28.4398C82.3399 28.5098 88.4299 24.2598 88.4999 17.2798C88.4504 13.9266 87.0929 10.7255 84.717 8.3588C82.3411 5.99212 79.1347 4.64715 75.7814 4.61063C72.4281 4.57411 69.1931 5.84893 66.7662 8.1633C64.3394 10.4777 62.9125 13.6485 62.7899 16.9998Z" fill="#333333"/>
<path d="M18 19.9397C18 21.3497 19.75 22.5197 21.93 22.5497C24.12 22.5497 25.93 21.4497 25.93 20.0297C25.93 18.6197 24.19 17.4497 22 17.4197C19.81 17.3897 18 18.5197 18 19.9397ZM76.06 16.9397C76.06 18.3997 78.06 19.5997 80.59 19.6297C83.1 19.6297 85.16 18.4997 85.17 17.0397C85.17 15.5897 83.17 14.3797 80.64 14.3497C78.11 14.3197 76.07 15.4897 76.06 16.9397Z" fill="white"/>
<path d="M3.35986 17.8599C16.0599 13.4499 25.2699 13.5899 32.5399 15.8599C32.6199 15.8599 27.5999 4.69991 19.2099 5.16991C7.55987 5.77991 4.79986 16.1499 3.35986 17.8599ZM59.0899 14.5599C71.7899 10.1499 82.3099 11.6899 92.4299 12.6699C92.5099 12.6699 86.0699 1.75991 77.1499 1.79991C64.4299 1.85991 59.5299 14.6699 59.0899 14.5599Z" fill="white" stroke="#999999" stroke-width="3" stroke-linecap="round" stroke-linejoin="round"/>
<path d="M75.2 3.21973C66.03 3.21973 61.07 12.2197 61.07 12.2197C64.41 11.3997 67.91 10.5897 70.87 10.2197C70.87 10.2197 71.47 6.07973 77.87 3.54973C76.9917 3.35998 76.0981 3.24953 75.2 3.21973V3.21973ZM19.14 6.44972C9.96001 6.44972 5.01001 15.4497 5.01001 15.4497C8.33001 14.6397 11.76 13.5797 15.2 13.0897C15.2 12.9697 14.9 8.17972 22.38 7.33972C21.3205 6.97313 20.2382 6.67584 19.14 6.44972Z" fill="#CCCCCC"/>
<path d="M35.4099 21.2801C29.7599 30.9101 11.6299 31.0101 1.99991 25.2801C1.75991 24.2801 2.2799 22.0101 2.5399 20.6801C4.6899 9.68012 23.4399 -7.85986 35.4099 21.3201V21.2801ZM95.6799 18.5901C89.1699 28.5101 68.1099 29.1501 56.9999 23.2001C56.7451 22.0209 56.769 20.7985 57.0699 19.6301C59.5499 8.27013 80.0699 -13.0899 95.6799 18.6301V18.5901Z" stroke="#999999" stroke-width="3" stroke-miterlimit="15.12"/>
</svg>
