<svg xmlns="http://www.w3.org/2000/svg" viewBox="0 0 512 512"><defs><style>.cls-1,.cls-2{fill:#fff;}.cls-1{stroke:#fff;stroke-miterlimit:10;stroke-width:5px;}.cls-3{fill:#333;}.cls-4{fill:none;stroke:#999;stroke-miterlimit:15.12;stroke-width:3px;}</style></defs><g id="Rectangle"><rect class="cls-1" x="2.5" y="2.5" width="507" height="507"/></g><g id="Eyes"><g id="layer1"><g id="g1088"><path id="path1076" class="cls-2" d="M207.64,163.68c-5.65,9.63-23.93,10.25-33.57,4.47C171.92,159.43,192.41,129.19,207.64,163.68ZM267.91,161c-6.51,9.92-27.57,10.56-38.67,4.61C226.75,156.62,250.36,125.48,267.91,161Z"/><path id="path1078" class="cls-3" d="M179.1,162.13c-.07,6.79,4.77,10.53,10.93,10.61s11.31-3.55,11.38-10.33-4.87-12.35-11-12.42S179.16,155.35,179.1,162.13ZM235,159.4c-.07,7,5.36,11.37,12.46,11.44s13.18-4.17,13.25-11.16A12.86,12.86,0,0,0,235,159.4Z"/><path id="path1080" class="cls-4" d="M207.64,163.68c-5.65,9.63-23.78,9.73-33.41,4-.23-.95.29-3.27.55-4.6,2.14-11,20.89-28.54,32.86.64ZM267.91,161c-6.51,9.92-27.57,10.56-38.67,4.61a7.6,7.6,0,0,1,.06-3.57c2.48-11.36,23-32.72,38.61-1Z"/><path id="ellipse1082" class="cls-2" d="M189.76,161.74c0,1.58,1.94,2.88,4.37,2.9s4.41-1.22,4.43-2.79-1.94-2.87-4.37-2.9S189.77,160.17,189.76,161.74Zm58.54-2.36c0,1.46,2,2.66,4.53,2.69s4.57-1.13,4.58-2.59-2-2.66-4.52-2.68S248.31,157.93,248.3,159.38Z"/></g></g></g></svg>