<svg width="97" height="30" viewBox="0 0 97 30" fill="none" xmlns="http://www.w3.org/2000/svg">
<path d="M35.8 21.4899C19.12 31.8499 11.43 27.1899 2.26001 22.9799C4.05001 15.1799 17.86 1.60991 28.12 4.36991C34.12 5.98991 35.8 21.4899 35.8 21.4899ZM96.05 18.4899C79.61 30.2899 66.75 26.9699 57.52 22.3299C54.52 23.1799 60.64 3.21991 74.9 2.04991C83.33 1.36991 89.48 9.42992 96.05 18.4899Z" fill="white"/>
<path d="M71.5899 2.84921C62.4599 1.13921 60.2599 14.1492 60.2699 14.3392C63.5899 13.5292 65.3699 16.8892 68.2699 16.4892C68.5899 17.3592 67.2699 7.6592 73.0499 3.0892C72.1199 2.9192 72.3999 3.00921 71.5499 2.84921H71.5899ZM19.4499 6.4292C14.5699 9.45399 10.3106 13.3806 6.8999 17.9992C8.6499 19.7892 14.8499 18.9992 18.2999 18.5092C18.2999 18.3892 19.8999 6.04921 27.2999 5.20921C26.9399 4.20921 20.8399 5.60921 19.4199 6.46921L19.4499 6.4292Z" fill="#CCCCCC"/>
<path d="M7.99994 18.6194C7.93994 25.6194 11.9099 27.9394 18.1599 28.0194C24.4099 28.0994 29.7699 23.8494 29.8399 16.8594L7.99994 18.6194ZM63.5199 15.3594C63.4399 22.2994 68.0799 27.8594 75.1299 27.9294C82.1799 27.9994 88.2199 23.7794 88.2999 16.8394L63.5199 15.3594Z" fill="#333333"/>
<path d="M18.9399 20C18.9399 21.46 20.7099 22.66 22.9399 22.69C25.1699 22.72 26.9399 21.56 26.9399 20.1C26.9399 18.64 25.1599 17.44 22.9399 17.41C20.7199 17.38 18.9999 18.56 18.9399 20ZM76.9999 18.28C76.9999 19.73 78.9999 20.92 81.4999 20.95C83.9999 20.98 86.0399 19.83 86.0599 18.38C86.0799 16.93 84.0599 15.74 81.5599 15.71C79.0599 15.71 77.0199 16.83 76.9999 18.28Z" fill="white"/>
<path d="M55.4999 12.3196C63.4999 19.0396 80.5699 18.3196 93.6499 15.4396M3.67993 18.8596C11.6799 18.5596 25.1599 19.8096 37.3799 13.0496L3.67993 18.8596ZM36.1199 20.4996C28.2299 29.9696 12.3399 29.7096 2.56994 23.7696C2.33994 22.7696 1.85994 22.9096 2.12994 21.5396C8.85994 12.8596 33.4399 -14.2004 36.1299 20.5396L36.1199 20.4996ZM95.3799 18.1496C88.9099 27.9996 67.9999 28.6296 56.9999 22.7196C56.74 21.5509 56.764 20.337 57.0699 19.1796C66.0699 -8.82043 81.35 1.72957 95.42 18.1796L95.3799 18.1496Z" stroke="#999999" stroke-width="3" stroke-linecap="round" stroke-linejoin="round"/>
</svg>
