<svg width="98" height="42" viewBox="0 0 98 42" fill="none" xmlns="http://www.w3.org/2000/svg">
<path d="M35.1099 21.9998C29.4299 30.8197 11.1099 29.9397 1.78987 26.4497C-0.57013 20.9997 18.3999 10.9998 35.1099 21.9998ZM94.9299 19.3397C88.4599 29.1797 67.5599 29.8098 56.5399 23.9098C53.7999 17.7898 76.1699 6.93975 94.9299 19.2998V19.3397Z" fill="white"/>
<path d="M66.5299 20.8397C66.4699 25.9797 70.6399 28.6397 75.8599 28.6997C81.0799 28.7597 85.3699 26.1897 85.4299 21.0497C85.4578 18.5434 84.4889 16.1287 82.7363 14.3368C80.9838 12.5449 78.5912 11.5226 76.0849 11.4947C73.5786 11.4669 71.1639 12.4358 69.372 14.1883C67.5801 15.9409 66.5578 18.3334 66.5299 20.8397Z" fill="#333333"/>
<path d="M9.65991 21.8306C9.65991 26.4206 13.3399 28.8306 18.0099 28.8306C22.6799 28.8306 26.5399 26.5806 26.5899 21.9806C26.5414 19.7826 25.6403 17.6896 24.0769 16.144C22.5135 14.5983 20.4104 13.7211 18.212 13.6977C16.0137 13.6744 13.8924 14.5067 12.2965 16.0187C10.7006 17.5308 9.75509 19.6042 9.65991 21.8006V21.8306Z" fill="#333333"/>
<path d="M32.45 26.1102C26.78 28.8902 6.70998 28.7202 2.28998 27.1102C2.1178 25.1893 2.185 23.2545 2.48999 21.3502C2.16999 17.9502 16.36 -10.5098 33.81 18.8802C33.9 20.3902 34.65 24.6702 32.45 26.1102ZM95.59 25.3902C81.33 28.6302 63.59 27.5002 56.83 26.2302C56.4694 24.2847 56.3953 22.297 56.61 20.3302C57.85 4.06017 87.69 -10.0098 95.5 18.9402L95.59 25.3902Z" stroke="#999999" stroke-width="3" stroke-linecap="round" stroke-linejoin="round"/>
<path d="M78 20.1899C78.0809 20.9537 78.4516 21.6573 79.0357 22.1559C79.6199 22.6545 80.373 22.91 81.14 22.8699C81.5189 22.9101 81.902 22.8753 82.2674 22.7673C82.6328 22.6594 82.9734 22.4805 83.2696 22.2409C83.5659 22.0013 83.812 21.7057 83.9939 21.3709C84.1759 21.0362 84.2901 20.6688 84.33 20.2899C84.2491 19.5244 83.8769 18.8192 83.2906 18.3204C82.7043 17.8215 81.9486 17.5672 81.18 17.6099C80.4169 17.5342 79.6549 17.7628 79.0594 18.2459C78.4639 18.729 78.0832 19.4277 78 20.1899V20.1899Z" fill="white"/>
<path d="M19.9399 21.2406C20.0036 21.9296 20.3342 22.5664 20.8612 23.0148C21.3881 23.4633 22.0696 23.6879 22.7599 23.6406C23.4439 23.7106 24.1277 23.5068 24.6618 23.0739C25.1959 22.641 25.5368 22.0142 25.6099 21.3306C25.5438 20.6425 25.2125 20.0073 24.6861 19.5593C24.1598 19.1113 23.4797 18.8858 22.7899 18.9305C22.1065 18.8632 21.4241 19.068 20.8906 19.5004C20.3571 19.9328 20.0156 20.558 19.9399 21.2406V21.2406Z" fill="white"/>
<path d="M3.18994 19.4301C14.6899 18.9701 23.5099 18.1301 33.7199 18.5001C34.1599 18.3101 27.9699 4.64012 18.9799 5.29012C7.49994 6.14012 3.80994 16.2501 3.18994 19.4301ZM56.8299 18.4301C69.0099 18.3301 86.5299 17.8201 94.5399 17.5001C94.6899 14.5001 90.2499 2.05013 77.6699 2.08013C61.9999 2.15013 57.1399 17.1801 56.8299 18.4801V18.4301Z" fill="white" stroke="#999999" stroke-width="3" stroke-linecap="round" stroke-linejoin="round"/>
<path d="M72.5 4.4802C62.5 7.0102 57.93 17.2702 58.98 16.8502C63.61 16.8502 66.52 16.4802 69.16 16.6302C69.01 16.6802 68.09 6.87021 75.24 4.05021C74.3086 4.03292 73.3813 4.17843 72.5 4.4802ZM5.5 17.5902L14.64 17.1202C14.83 17.1902 12.94 8.95021 19.3 7.02021C16.189 7.12544 13.1888 8.20107 10.7195 10.0965C8.25033 11.9919 6.43577 14.6121 5.53 17.5902H5.5ZM84.72 28.7502C81.82 30.5502 78.72 33.0102 80.09 37.8702C75.97 43.7502 55.23 33.8702 59.35 28.3502C67.7762 29.2657 76.2691 29.3996 84.72 28.7502V28.7502Z" fill="#CCCCCC"/>
<path d="M79.6199 39.3903C64.3199 41.8303 57.7399 32.7803 56.7899 25.2803M13.2999 39.8503C3.73994 39.0703 3.18993 29.7303 2.67993 26.5803L13.2999 39.8503Z" stroke="#999999" stroke-width="3" stroke-linecap="round" stroke-linejoin="round"/>
</svg>
