<svg width="98" height="28" viewBox="0 0 98 28" fill="none" xmlns="http://www.w3.org/2000/svg">
<path d="M36.36 18.3101C30.73 27.8901 12.56 28.5001 2.97998 22.7601C0.779985 14.1201 9.31999 -8.83989 36.36 18.3101ZM96.28 15.6401C89.8 25.5001 68.86 26.1301 57.83 20.2201C57.44 13.0001 91 -9.58989 96.28 15.6401V15.6401Z" fill="white"/>
<path d="M8.00007 16.77C7.94007 23.52 12.7501 27.24 18.8801 27.32C25.0101 27.4 30.1201 23.7899 30.1901 17.0399C29.6501 11.2199 22.5101 10.59 19.1201 6.32996C13.0001 6.25996 8.00007 9.99996 8.00007 16.77ZM63.6101 14.05C63.5301 21 68.9301 25.3599 75.9901 25.4299C83.0501 25.4999 89.1001 21.28 89.1701 14.33C89.2401 7.37996 84.4701 2.53996 77.4101 2.45996C72.9901 7.26996 65.4101 10.24 63.6101 14.05Z" fill="#333333"/>
<path d="M18.5701 16.38C18.5701 17.95 20.5101 19.2399 22.9201 19.2699C25.3301 19.2999 27.3101 18.05 27.3201 16.49C27.3301 14.93 25.3901 13.63 22.9801 13.6C20.5701 13.57 18.5901 14.82 18.5701 16.38ZM76.7801 13.9999C76.7801 15.4499 78.7801 16.6399 81.2801 16.6699C83.7801 16.6999 85.8301 15.55 85.8401 14.1C85.8501 12.65 83.8401 11.4499 81.3401 11.4299C78.8401 11.4099 76.7901 12.5899 76.7801 13.9999Z" fill="white"/>
<path d="M40.0001 9.45C42.0001 17.45 35.8101 18.45 23.0601 9.80001C19.0601 7.11001 12.9901 2.74001 2.33008 6.61001L40.0001 9.45ZM52.3301 8.86001C50.9101 16.3 55.8201 19.63 67.9501 9.09C71.3401 6.09 84.3301 -1.25 94.3501 3.26L52.3301 8.86001ZM2.80008 20.17C9.16008 29.28 26.5401 27.17 35.6401 20.68C35.9023 19.2755 35.9023 17.8345 35.6401 16.43C19.8201 12.3 12.4701 -5.77 2.77008 20.17H2.80008ZM96.3601 15.64C89.8801 25.5 68.9401 26.13 57.9101 20.22C57.6514 19.0483 57.672 17.8323 57.9701 16.67C67.6901 12.51 81.2001 -11.15 96.3601 15.67V15.64Z" stroke="#999999" stroke-width="3" stroke-linecap="round" stroke-linejoin="round"/>
</svg>
