<svg xmlns="http://www.w3.org/2000/svg" viewBox="0 0 512 512"><defs><style>.cls-1,.cls-2{fill:#fff;}.cls-1{stroke:#fff;stroke-miterlimit:10;stroke-width:5px;}.cls-3{fill:#333;}.cls-4{fill:none;stroke:#999;stroke-linecap:round;stroke-linejoin:round;stroke-width:3px;}</style></defs><g id="Rectangle"><rect class="cls-1" x="2.5" y="2.5" width="507" height="507"/></g><g id="Eyes"><g id="layer1"><g id="g78998"><path id="path78990" class="cls-2" d="M202.36,167.31c-5.63,9.58-23.8,10.19-33.38,4.45C166.78,163.12,175.32,140.16,202.36,167.31Zm59.92-2.67c-6.48,9.86-27.42,10.49-38.45,4.58C223.44,162,257,139.41,262.28,164.64Z"/><path id="path78992" class="cls-3" d="M174,165.77c-.06,6.75,4.75,10.47,10.88,10.55s11.24-3.53,11.31-10.28c-.54-5.82-7.68-6.45-11.07-10.71C179,155.26,174,159,174,165.77Zm55.61-2.72c-.08,6.95,5.32,11.31,12.38,11.38s13.11-4.15,13.18-11.1-4.7-11.79-11.76-11.87c-4.42,4.81-12,7.78-13.8,11.59Z"/><path id="path78996" class="cls-2" d="M184.57,165.38c0,1.57,1.94,2.86,4.35,2.89s4.39-1.22,4.4-2.78-1.93-2.86-4.34-2.89S184.59,163.82,184.57,165.38ZM242.78,163c0,1.45,2,2.64,4.5,2.67s4.55-1.12,4.56-2.57-2-2.65-4.5-2.67S242.79,161.59,242.78,163Z"/><path id="path83219" class="cls-4" d="M206,158.45c2,8-4.19,9-16.94.35-4-2.69-10.07-7.06-20.73-3.19m50,2.25c-1.42,7.44,3.49,10.77,15.62.23,3.39-3,16.38-10.34,26.4-5.83m-91.55,16.91c6.36,9.11,23.74,7,32.84.51a11.58,11.58,0,0,0,0-4.25c-15.82-4.13-23.17-22.2-32.87,3.74Zm93.56-4.53c-6.48,9.86-27.42,10.49-38.45,4.58a7.65,7.65,0,0,1,.06-3.55c9.72-4.16,23.23-27.82,38.39-1Z"/></g></g></g></svg>