<svg width="125" height="31" viewBox="0 0 125 31" fill="none" xmlns="http://www.w3.org/2000/svg">
<path d="M49.89 20.6996C44.01 30.6996 24.98 31.3696 14.95 25.3596C12.52 16.5996 33.4 -10.7104 49.89 20.6996ZM112.63 17.8996C105.85 28.2296 83.92 28.8996 72.37 22.6996C69.74 13.3796 93.41 -18.4504 112.63 17.8996V17.8996Z" fill="white"/>
<path d="M20.18 19.09C20.24 26.15 25.18 30.09 31.56 30.09C37.94 30.09 43.34 26.4 43.41 19.34C43.48 12.28 38.11 10.23 31.76 11.15C25.15 12.15 20.12 12.64 20.18 19.05V19.09ZM78.39 16.25C77.82 23.49 83.96 28.08 91.39 28.16C98.82 28.24 105.11 23.81 105.19 16.54C105.27 9.26999 100.47 9.82 93.09 10.11C85.71 10.4 78.81 11 78.39 16.25V16.25Z" fill="#333333"/>
<path d="M31.28 18.6793C31.28 20.3193 33.28 21.6793 35.83 21.6793C38.38 21.6793 40.42 20.3993 40.44 18.7693C40.46 17.1393 38.44 15.7693 35.88 15.7693C33.32 15.7693 31.29 17.0493 31.28 18.6793ZM92.21 16.2293C92.21 17.7493 94.3 18.9993 96.92 19.0293C99.54 19.0593 101.68 17.8493 101.7 16.3293C101.72 14.8093 99.6 13.5593 96.98 13.5393C94.36 13.5193 92.23 14.7093 92.21 16.2293V16.2293Z" fill="white"/>
<path d="M88.0001 4.7998C85.9201 6.4498 87.1201 9.87981 87.1401 9.90981C81.1401 11.1698 76.3701 14.3798 72.8601 16.3798C75.5801 9.55981 79.7001 7.8998 88.0001 4.7998ZM31.8301 5.9998C29.1001 7.9998 28.7101 11.2498 29.5001 10.8598C23.5001 12.1198 21.1301 14.1898 17.6201 16.1798C20.3201 10.8798 22.5201 6.9898 31.8301 5.9998Z" fill="#CCCCCC"/>
<path d="M16.4901 14.7891C22.9801 5.19911 31.6601 -0.210887 45.8201 11.7891L16.4901 14.7891ZM75.8201 11.0591C86.1101 0.509117 96.29 -1.15088 108.08 11.2491L75.8201 11.0591ZM17.33 16.5391C11.52 17.4191 7.18005 13.1991 5.89005 10.5391L17.33 16.5391ZM15.4601 20.3791C8.56005 20.8491 4.32004 17.4391 3.84004 15.7891L15.4601 20.3791ZM14 23.9391C7.49005 25.4391 4.87004 24.1091 2.29004 22.1891L14 23.9391ZM102 11.7091C108.9 12.1791 112.83 8.16912 113.31 6.52912L102 11.7091ZM108.31 14.8591C115.21 15.3291 119.14 11.3091 119.62 9.66912L108.31 14.8591ZM111.57 18.8091C118.07 20.3191 120.43 18.2991 123.01 16.3691L111.57 18.8091ZM49.9 20.6991C42.32 30.6991 23.67 30.7891 15.12 24.8191C14.9604 23.8143 15.0427 22.7858 15.36 21.8191C19.87 13.5291 37.28 5.96913 49.9 20.7091V20.6991ZM112.64 17.8991C105.86 28.2291 83.9301 28.8991 72.3801 22.6991C72.1001 21.6991 71.62 21.2691 71.93 19.8391C75.74 15.0591 95.8001 3.64911 112.64 17.8991Z" stroke="#999999" stroke-width="3" stroke-linecap="round" stroke-linejoin="round"/>
</svg>
