<svg xmlns="http://www.w3.org/2000/svg" viewBox="0 0 512 512"><defs><style>.cls-1,.cls-2{fill:#fff;}.cls-1{stroke:#fff;stroke-miterlimit:10;stroke-width:5px;}.cls-3{fill:#333;}.cls-4{fill:#ccc;}.cls-5{fill:none;stroke:#999;stroke-linecap:round;stroke-linejoin:round;stroke-width:3px;}</style></defs><g id="Rectangle"><rect class="cls-1" x="2.5" y="2.5" width="507" height="507"/></g><g id="Eyes"><g id="layer1"><g id="g64290"><path id="path64282" class="cls-2" d="M208.89,167.7c-5.88,10-24.91,10.67-34.94,4.66C171.52,163.6,192.4,136.29,208.89,167.7Zm62.74-2.8c-6.78,10.33-28.71,11-40.26,4.8C228.74,160.38,252.41,128.55,271.63,164.9Z"/><path id="path64284" class="cls-3" d="M179.18,166.09c.06,7.06,5,11,11.38,11s11.78-3.69,11.85-10.75-5.3-9.11-11.65-8.19c-6.61,1-11.64,1.49-11.58,7.9Zm58.21-2.84c-.57,7.24,5.57,11.83,13,11.91s13.72-4.35,13.8-11.62-4.72-6.72-12.1-6.43S237.81,158,237.39,163.25Z"/><path id="path64288" class="cls-2" d="M190.28,165.68c0,1.64,2,3,4.55,3s4.59-1.28,4.61-2.91-2-3-4.56-3S190.29,164.05,190.28,165.68Zm60.93-2.45c0,1.52,2.09,2.77,4.71,2.8s4.76-1.18,4.78-2.7-2.1-2.77-4.72-2.79S251.23,161.71,251.21,163.23Z"/><path id="path77245" class="cls-4" d="M247,151.8c-2.08,1.65-.88,5.08-.86,5.11-6,1.26-10.77,4.47-14.28,6.47,2.72-6.82,6.84-8.48,15.14-11.58ZM190.83,153c-2.73,2-3.12,5.25-2.33,4.86-6,1.26-8.37,3.33-11.88,5.32,2.7-5.3,4.9-9.19,14.21-10.18Z"/><path id="path70740" class="cls-5" d="M175.49,161.79c6.49-9.59,15.17-15,29.33-3m30-.73c10.29-10.55,20.47-12.21,32.26.19m-90.75,5.29c-5.81.88-10.15-3.34-11.44-6m9.57,9.84c-6.9.47-11.14-2.94-11.62-4.59M173,170.94c-6.51,1.5-9.13.17-11.71-1.75M261,158.71c6.9.47,10.83-3.54,11.31-5.18m-5,8.33c6.9.47,10.83-3.55,11.31-5.19m-8.05,9.14c6.5,1.51,8.86-.51,11.44-2.44m-73.11,4.33c-7.58,10-26.23,10.09-34.78,4.12a6.4,6.4,0,0,1,.24-3c4.51-8.29,21.92-15.85,34.54-1.11Zm62.74-2.8c-6.78,10.33-28.71,11-40.26,4.8-.28-1-.76-1.43-.45-2.86,3.81-4.78,23.87-16.19,40.71-1.94Z"/></g></g></g></svg>