<svg xmlns="http://www.w3.org/2000/svg" viewBox="0 0 512 512"><defs><style>.cls-1,.cls-5,.cls-6{fill:#fff;}.cls-1{stroke:#fff;stroke-miterlimit:10;stroke-width:5px;}.cls-2{fill:#ffc6c6;}.cls-3{fill:#333;}.cls-4{fill:none;}.cls-4,.cls-6{stroke:#999;stroke-linecap:round;stroke-linejoin:round;stroke-width:3px;}.cls-7{fill:#ccc;}</style></defs><g id="Rectangle"><rect class="cls-1" x="2.5" y="2.5" width="507" height="507"/></g><g id="Eyes"><g id="layer1"><g id="g21813"><path id="path21805" class="cls-2" d="M205.52,167.29c-5.66,9.63-23.93,10.25-33.56,4.48C169.58,166.33,188.69,156.21,205.52,167.29Zm60.24-2.68c-6.51,9.91-27.57,10.55-38.66,4.6C224.34,163.09,246.87,152.16,265.76,164.61Z"/><path id="path21807" class="cls-3" d="M183.59,165.78c0,2.7,1.9,4.19,4.35,4.22s4.5-1.41,4.53-4.11a4.46,4.46,0,1,0-8.88-.11ZM241.05,164c0,2.68,2,4.36,4.77,4.39s5.06-1.6,5.09-4.28a4.93,4.93,0,0,0-9.86-.11Z"/><path id="path30400" class="cls-4" d="M205.52,167.29c-5.66,9.63-23.77,9.73-33.4,4-.24-.94.28-3.26.54-4.59,2.15-11,20.89-28.53,32.86.63Zm60.24-2.68c-6.51,9.91-27.57,10.55-38.66,4.6a7.61,7.61,0,0,1,.07-3.57c2.47-11.35,22.94-32.7,38.59-1Z"/><path id="path22627-2" class="cls-5" d="M189.15,166.93a1,1,0,0,0,1,1,1,1,0,0,0,1.06-.94,1,1,0,0,0-1-1A1,1,0,0,0,189.15,166.93Zm58.52-1.88a.92.92,0,0,0,1,.82.9.9,0,0,0,1-.79.92.92,0,0,0-1-.83.89.89,0,0,0-1,.8Z"/><path id="path621572-5" class="cls-6" d="M172.65,167c10.37-2.89,24-2.34,32.26-.79.44-.2-6.48-15.71-15.53-15C177.81,152,173.27,163.78,172.65,167Zm54.72-1.36c15.49-4,30.35-2.24,37.66-2.06.89.1-7.33-15.38-18-15.56-13.43-.15-20.67,16.91-19.69,17.62Z"/><path id="path526843-6" class="cls-7" d="M243.66,150c-9.15,2.27-14.22,13.53-14,13.34a98.71,98.71,0,0,1,10.13-1.61c-.15,0-.4-9.08,6.8-11.92a9.17,9.17,0,0,0-2.93.19Zm-54.53,2.84c-10,.86-14.26,12-14,11.75,3.33-.81,6.53-.64,10-1.13,0,.14-.61-8.16,6.4-10.39a9.08,9.08,0,0,0-2.39-.23Z"/></g></g></g></svg>