<svg xmlns="http://www.w3.org/2000/svg" viewBox="0 0 512 512"><defs><style>.cls-1,.cls-2{fill:#fff;}.cls-1{stroke:#fff;stroke-miterlimit:10;stroke-width:5px;}.cls-3{fill:none;stroke:#999;stroke-miterlimit:15.12;stroke-width:3px;}.cls-4{fill:#333;}</style></defs><g id="Rectangle"><rect class="cls-1" x="2.5" y="2.5" width="507" height="507"/></g><g id="Eyes"><g id="layer1"><g id="g89773"><path id="path89765" class="cls-2" d="M205.69,166.47c-5.59,10.05-22.31,16.64-33.75,4.5C169.23,161.77,189.35,128.48,205.69,166.47Zm59.86-3.22c-6.53,10-23.86,23.88-38.16,5.15C224.9,159.37,247.68,123.88,265.55,163.25Z"/><path id="path89769" class="cls-3" d="M205.69,166.47c-6.57,12.6-26.76,16-33.6,2.67C167.31,153.67,195.59,131.15,205.69,166.47Zm58.54-3.87c-2.45,19-28.87,20.27-37,3.84C228,143.86,261,135.71,264.23,162.6Z"/><path id="path94063" class="cls-4" d="M176.31,163.87c-.07,6.62,5.65,11.43,12.38,11.5a12.05,12.05,0,1,0,0-24.1c-6.73-.08-12.32,6-12.39,12.6Zm56.74-.86c-.08,7,6,12.11,13.11,12.19a12.68,12.68,0,0,0,12.78-12.69,12.81,12.81,0,0,0-12.77-12.84c-7.13-.08-13,6.33-13.12,13.34Z"/><path id="path94065" class="cls-2" d="M190.94,158.79a4.52,4.52,0,0,0,4.57,4.37,4.4,4.4,0,0,0,4.63-4.2,4.51,4.51,0,0,0-4.57-4.37A4.4,4.4,0,0,0,190.94,158.79Zm57.61-1.15a4.76,4.76,0,0,0,4.84,4.62,4.65,4.65,0,0,0,4.9-4.45,4.78,4.78,0,0,0-4.84-4.62,4.65,4.65,0,0,0-4.9,4.45Z"/></g></g></g></svg>