<?xml version="1.0" encoding="UTF-8" standalone="no"?>
<svg
   inkscape:version="1.1.1 (3bf5ae0, 2021-09-20)"
   id="svg8"
   version="1.1"
   viewBox="0 0 97.895831 39.687502"
   height="150"
   width="370"
   xmlns:inkscape="http://www.inkscape.org/namespaces/inkscape"
   xmlns:sodipodi="http://sodipodi.sourceforge.net/DTD/sodipodi-0.dtd"
   xmlns="http://www.w3.org/2000/svg"
   xmlns:svg="http://www.w3.org/2000/svg"
   xmlns:rdf="http://www.w3.org/1999/02/22-rdf-syntax-ns#"
   xmlns:cc="http://creativecommons.org/ns#"
   xmlns:dc="http://purl.org/dc/elements/1.1/">
  <defs
     id="defs2" />
  <sodipodi:namedview
     borderlayer="true"
     units="px"
     showgrid="false"
     inkscape:document-rotation="0"
     inkscape:current-layer="layer1"
     inkscape:document-units="px"
     inkscape:cy="121.72338"
     inkscape:cx="245.97214"
     inkscape:zoom="0.98994949"
     inkscape:pageshadow="2"
     inkscape:pageopacity="0"
     borderopacity="1.0"
     bordercolor="#666666"
     pagecolor="#585858"
     id="base"
     inkscape:pagecheckerboard="1"
     inkscape:snap-global="false"
     fit-margin-top="0"
     fit-margin-left="0"
     fit-margin-right="0"
     fit-margin-bottom="0"
     inkscape:window-width="1280"
     inkscape:window-height="967"
     inkscape:window-x="0"
     inkscape:window-y="1"
     inkscape:window-maximized="1" />
  <metadata
     id="metadata5">
    <rdf:RDF>
      <cc:Work
         rdf:about="">
        <dc:format>image/svg+xml</dc:format>
        <dc:type
           rdf:resource="http://purl.org/dc/dcmitype/StillImage" />
      </cc:Work>
    </rdf:RDF>
  </metadata>
  <g
     id="layer1"
     inkscape:groupmode="layer"
     inkscape:label="Layer 1"
     transform="translate(-94.52741,-158.56634)">
    <g
       id="g234914"
       transform="translate(-244.4007,-475.57308)"
       inkscape:label="eyes4"
       style="display:inline">
      <path
         id="path356093"
         style="opacity:1;vector-effect:none;fill:#ffffff;fill-opacity:1;stroke:none;stroke-width:0.132292;stroke-linecap:butt;stroke-linejoin:miter;stroke-miterlimit:4;stroke-dasharray:none;stroke-dashoffset:0;stroke-opacity:1"
         d="m 403.95336,656.24666 c 0,0 -4.25717,1.20388 -2.73746,3.17441 1.51971,1.97054 3.39584,2.21765 5.76698,2.01489 2.37115,-0.20275 7.98468,-4.02345 7.98468,-4.02345 z m 7.54905,-10.46096 c -0.10432,-0.0792 -3.37558,-2.2034 -7.87577,-0.0317 -1.69712,0.819 -5.52874,7.74954 -3.30673,8.59815 4.27386,1.63223 14.62691,-2.91795 14.06847,-0.69065 0.7315,-5.14821 1.46115,-4.57551 -2.88597,-7.8758 z m -29.35206,11.24286 c -3.48854,6.00699 -14.76586,6.3914 -20.70947,2.79047 -1.33057,-5.43695 11.31195,-24.29219 20.70947,-2.79047 z" />
      <path
         id="path621532-4"
         style="display:inline;vector-effect:none;fill:#333333;fill-opacity:1;stroke-width:1.49479;stroke-linecap:round;stroke-linejoin:round;paint-order:stroke fill markers;stop-color:#000000"
         d="m 364.65362,656.06467 c -0.0409,4.22963 2.8658,6.88277 6.66713,6.92979 3.80133,0.047 7.05779,-2.52988 7.09871,-6.75951 0.0409,-4.22962 -3.00749,-7.69655 -6.80882,-7.74358 -3.80135,-0.047 -6.9161,3.34365 -6.95702,7.5733 z"
         sodipodi:nodetypes="sssss" />
      <ellipse
         style="font-variation-settings:normal;display:inline;vector-effect:none;fill:#ffffff;fill-opacity:1;stroke:none;stroke-width:1.43186;stroke-linecap:round;stroke-linejoin:round;stroke-miterlimit:4;stroke-dasharray:none;stroke-dashoffset:0;stroke-opacity:1;-inkscape-stroke:none;paint-order:stroke fill markers;stop-color:#000000"
         id="ellipse621536-54"
         cx="-380.41861"
         cy="651.41138"
         rx="2.4405503"
         ry="1.5973071"
         transform="matrix(-0.9999235,-0.01236888,-0.0096741,0.9999532,0,0)" />
      <path
         id="path167937"
         style="font-variation-settings:normal;display:inline;opacity:1;vector-effect:none;fill:none;fill-opacity:1;stroke:#999999;stroke-width:2.11667;stroke-linecap:round;stroke-linejoin:round;stroke-miterlimit:4;stroke-dasharray:none;stroke-dashoffset:0;stroke-opacity:1;-inkscape-stroke:none;stop-color:#000000;stop-opacity:1"
         d="m 396.65614,651.22654 c 0.74071,-1.51199 2.99925,-4.03713 6.0436,-5.33956 m -4.55033,13.93136 c 3.65361,1.53991 5.03569,1.41526 8.0133,1.98058 m -9.92291,-5.31453 c 7.23675,-2.70998 11.61128,-3.29603 17.88458,-2.34292 m -17.88171,2.91023 c 7.53702,-1.70525 12.08196,-1.62201 18.16848,0.17168 m -32.2608,-0.19482 c -3.48854,6.00699 -14.76586,6.3914 -20.70947,2.79047 -0.14358,-0.58687 -0.12451,-1.33013 0.0358,-2.162 1.32503,-6.87525 12.29045,-19.80926 20.67359,-0.62846 z" />
    </g>
  </g>
</svg>
