<?xml version="1.0" encoding="UTF-8" standalone="no"?>
<svg
   inkscape:version="1.1.1 (3bf5ae0, 2021-09-20)"
   id="svg8"
   version="1.1"
   viewBox="0 0 97.895831 39.687502"
   height="150"
   width="370"
   xmlns:inkscape="http://www.inkscape.org/namespaces/inkscape"
   xmlns:sodipodi="http://sodipodi.sourceforge.net/DTD/sodipodi-0.dtd"
   xmlns="http://www.w3.org/2000/svg"
   xmlns:svg="http://www.w3.org/2000/svg"
   xmlns:rdf="http://www.w3.org/1999/02/22-rdf-syntax-ns#"
   xmlns:cc="http://creativecommons.org/ns#"
   xmlns:dc="http://purl.org/dc/elements/1.1/">
  <defs
     id="defs2" />
  <sodipodi:namedview
     borderlayer="true"
     units="px"
     showgrid="false"
     inkscape:document-rotation="0"
     inkscape:current-layer="layer1"
     inkscape:document-units="px"
     inkscape:cy="121.72338"
     inkscape:cx="245.97214"
     inkscape:zoom="0.98994949"
     inkscape:pageshadow="2"
     inkscape:pageopacity="0"
     borderopacity="1.0"
     bordercolor="#666666"
     pagecolor="#585858"
     id="base"
     inkscape:pagecheckerboard="1"
     inkscape:snap-global="false"
     fit-margin-top="0"
     fit-margin-left="0"
     fit-margin-right="0"
     fit-margin-bottom="0"
     inkscape:window-width="1280"
     inkscape:window-height="967"
     inkscape:window-x="0"
     inkscape:window-y="1"
     inkscape:window-maximized="1" />
  <metadata
     id="metadata5">
    <rdf:RDF>
      <cc:Work
         rdf:about="">
        <dc:format>image/svg+xml</dc:format>
        <dc:type
           rdf:resource="http://purl.org/dc/dcmitype/StillImage" />
      </cc:Work>
    </rdf:RDF>
  </metadata>
  <g
     id="layer1"
     inkscape:groupmode="layer"
     inkscape:label="Layer 1"
     transform="translate(-94.52741,-158.56634)">
    <g
       id="g144220"
       transform="translate(-247.15792,-204.12954)"
       inkscape:label="eyes3"
       style="display:inline">
      <path
         id="path344263"
         style="display:inline;opacity:1;vector-effect:none;fill:#ffffff;fill-opacity:1;stroke:none;stroke-width:0.132292;stroke-linecap:butt;stroke-linejoin:miter;stroke-miterlimit:4;stroke-dasharray:none;stroke-dashoffset:0;stroke-opacity:1"
         d="m 382.3545,386.57972 c -10.10435,6.27735 -14.76678,3.45042 -20.31936,0.90054 1.08179,-4.72203 4.71782,-11.01693 9.65181,-11.24277 4.94746,-0.22645 10.66755,10.34223 10.66755,10.34223 z m 36.49728,-1.84289 c -9.95587,7.14985 -17.74649,5.13708 -23.34364,2.32529 -1.78394,0.51665 1.98866,-10.81913 10.53005,-12.28129 5.33139,-0.91265 8.89597,4.34039 12.81359,9.956 z"
         sodipodi:nodetypes="ccacccsc" />
      <path
         id="path526843-9"
         style="display:inline;vector-effect:none;fill:#cccccc;fill-opacity:1;stroke:none;stroke-width:0.132292;stroke-linecap:butt;stroke-linejoin:miter;stroke-miterlimit:4;stroke-dasharray:none;stroke-dashoffset:0;stroke-opacity:1"
         d="m 405.5655,375.43545 c -5.52262,0.0188 -8.57644,7.42917 -8.57644,7.42917 2.0113,-0.49257 5.0757,-0.0207 6.85827,-0.2621 0.03,-0.0192 0.20107,-5.75428 4.06938,-7.27848 -0.56375,-0.1017 -1.83199,0.10964 -2.35121,0.11141 z m -34.02657,1.51502 c -5.52261,0.0188 -8.28346,7.06502 -8.28346,7.06502 1.99997,-0.48703 4.58597,-0.46058 6.6579,-0.75285 -0.025,-0.0737 1.09499,-5.55209 5.59626,-6.06179 -0.56376,-0.1017 -3.45148,-0.25215 -3.9707,-0.25038 z"
         sodipodi:nodetypes="scccsscccs" />
      <path
         id="path135005"
         style="display:inline;vector-effect:none;fill:#333333;stroke-width:1.49202;stroke-linecap:round;stroke-linejoin:round;paint-order:stroke fill markers;stop-color:#000000"
         d="m 364.99802,383.60561 c -0.0408,4.23047 2.85462,6.88415 6.64112,6.93118 3.7865,0.047 7.03025,-2.53039 7.07101,-6.76086 z m 33.65705,-0.01 c -0.046,4.20368 3.22063,6.84055 7.49261,6.88728 4.27198,0.0467 7.93163,-2.51436 7.97762,-6.71804 z" />
      <path
         id="ellipse135009"
         style="display:inline;vector-effect:none;fill:#ffffff;stroke-width:1.42921;stroke-linecap:round;stroke-linejoin:round;paint-order:stroke fill markers;stop-color:#000000"
         transform="matrix(-0.99992287,-0.01241979,-0.00963444,0.99995359,0,0)"
         d="m -375.83966,381.03943 a 2.4310315,1.5976259 0 0 1 -2.43103,1.59762 2.4310315,1.5976259 0 0 1 -2.43103,-1.59762 2.4310315,1.5976259 0 0 1 2.43103,-1.59763 2.4310315,1.5976259 0 0 1 2.43103,1.59763 z m -35.18094,-1.49233 a 2.7426937,1.5875264 0.16526969 0 1 -2.74061,1.58347 2.7426937,1.5875264 0.16526969 0 1 -2.74476,-1.59159 2.7426937,1.5875264 0.16526969 0 1 2.74062,-1.58348 2.7426937,1.5875264 0.16526969 0 1 2.74475,1.5916 z" />
      <path
         id="path135011"
         style="font-variation-settings:normal;display:inline;opacity:1;vector-effect:none;fill:none;fill-opacity:1;stroke:#999999;stroke-width:2.11667;stroke-linecap:butt;stroke-linejoin:miter;stroke-miterlimit:4;stroke-dasharray:none;stroke-dashoffset:0;stroke-opacity:1;-inkscape-stroke:none;stop-color:#000000;stop-opacity:1"
         d="m 363.1286,384.45676 c 4.52592,-0.36399 12.27129,0.009 18.02983,-0.41982 m 1.38732,1.94349 c -4.77814,5.73773 -14.40217,5.5792 -20.32259,1.97755 -0.14302,-0.58698 -0.43012,-0.51693 -0.27049,-1.34897 1.31986,-6.87662 12.24251,-19.81321 20.59294,-0.62858 z m 35.90032,-1.42638 c -3.92046,5.97014 -16.59407,6.35218 -23.27357,2.77334 -0.16136,-0.58327 -0.13993,-1.32197 0.0402,-2.14874 1.48909,-6.83307 13.81217,-19.68774 23.23325,-0.6246 z m -22.67924,-0.73135 c 7.2878,-0.71504 14.65654,-0.60094 21.15341,-1.02745" />
    </g>
  </g>
</svg>
