<svg xmlns="http://www.w3.org/2000/svg" viewBox="0 0 512 512"><defs><style>.cls-1,.cls-2{fill:#fff;}.cls-1{stroke:#fff;stroke-miterlimit:10;stroke-width:5px;}.cls-3{fill:#ccc;}.cls-4{fill:#333;}.cls-5{fill:none;stroke:#999;stroke-linecap:round;stroke-linejoin:round;stroke-width:3px;}</style></defs><g id="Rectangle"><rect class="cls-1" x="2.5" y="2.5" width="507" height="507"/></g><g id="Eyes"><g id="layer1"><g id="g84670"><path id="path84660" class="cls-2" d="M203.8,168.49c-16.68,10.36-24.37,5.7-33.54,1.49,1.79-7.8,15.6-21.37,25.86-18.61,6,1.62,7.68,17.12,7.68,17.12Zm60.25-3c-16.44,11.8-29.3,8.48-38.53,3.84-3,.85,3.12-19.11,17.38-20.28,8.43-.68,14.58,7.38,21.15,16.44Z"/><path id="path84662" class="cls-3" d="M239.59,149.85c-9.13-1.71-11.33,11.3-11.32,11.49,3.32-.81,5.1,2.55,8,2.15.32.87-1-8.83,4.78-13.4-.93-.17-.65-.08-1.5-.24Zm-52.14,3.58A45.21,45.21,0,0,0,174.9,165c1.75,1.79,7.95,1,11.4.51,0-.12,1.6-12.46,9-13.3-.36-1-6.46.4-7.88,1.26Z"/><path id="path84664" class="cls-4" d="M176,165.62c-.06,7,3.91,9.32,10.16,9.4s11.61-4.17,11.68-11.16Zm55.52-3.26c-.08,6.94,4.56,12.5,11.61,12.57s13.09-4.15,13.17-11.09Z"/><path id="path84666" class="cls-2" d="M186.94,167c0,1.46,1.77,2.66,4,2.69s4-1.13,4-2.59-1.78-2.66-4-2.69S187,165.56,186.94,167ZM245,165.28c0,1.45,2,2.64,4.5,2.67s4.54-1.12,4.56-2.57-2-2.64-4.5-2.67h0c-2.5,0-4.54,1.12-4.56,2.57Z"/><path id="path84668" class="cls-5" d="M171.68,165.86c8-.3,21.48.95,33.7-5.81m-1.26,7.45c-7.89,9.47-23.78,9.21-33.55,3.27-.23-1-.71-.86-.44-2.23,6.73-8.68,31.31-35.74,34-1Zm59.26-2.35C256.91,175,236,175.63,225,169.72a7.49,7.49,0,0,1,.07-3.54c9-28,24.28-17.45,38.35-1Zm-39.88-5.83c8,6.72,25.07,6,38.15,3.12"/></g></g></g></svg>