<svg width="97" height="38" viewBox="0 0 97 38" fill="none" xmlns="http://www.w3.org/2000/svg">
<path d="M35.5 21.38C18.82 31.74 11.13 27.07 1.95996 22.87C3.74996 15.07 9.74995 4.68 17.89 4.31C26.03 3.94 35.5 21.38 35.5 21.38ZM95.75 18.38C79.31 30.18 66.45 26.86 57.21 22.22C54.27 23.07 60.5 4.36 74.6 1.94C83.4 0.440002 89.28 9.11 95.75 18.38Z" fill="white"/>
<path d="M73.82 3.00041C64.7 3.00041 59.66 15.2704 59.66 15.2704C62.98 14.4504 68.04 15.2704 70.98 14.8304C71.03 14.8304 71.31 5.34041 77.7 2.83041C76.4041 2.80363 75.1078 2.86376 73.82 3.0104V3.00041ZM17.65 5.50041C8.52998 5.50041 3.97998 17.1704 3.97998 17.1704C7.27998 16.3604 11.55 16.4104 14.98 15.9204C14.93 15.8004 16.78 6.7604 24.21 5.9204C23.28 5.7504 18.52 5.50041 17.66 5.50041H17.65Z" fill="#CCCCCC"/>
<path d="M6.84988 16.4702C6.77988 23.4702 11.5599 27.8302 17.8499 27.9102C24.1399 27.9902 29.4599 23.7302 29.5299 16.7502L6.84988 16.4702ZM62.4099 16.4702C62.3299 23.4102 67.7299 27.7602 74.7799 27.8402C81.8299 27.9202 87.8699 23.6902 87.9499 16.7502L62.4099 16.4702Z" fill="#333333"/>
<path d="M18.6399 19.9101C18.6399 21.3701 20.4099 22.5701 22.6399 22.6001C24.8699 22.6301 26.6399 21.4701 26.6399 20.0101C26.6399 18.5501 24.8599 17.3501 22.6399 17.3201C20.4199 17.2901 18.6499 18.4501 18.6399 19.9101ZM76.7299 18.1701C76.7299 19.6101 78.7299 20.8101 81.2299 20.8401C83.7299 20.8701 85.7699 19.7101 85.7899 18.2701C85.8099 16.8301 83.7899 15.6201 81.2899 15.6001C78.7899 15.6001 76.7499 16.7201 76.7299 18.1701V18.1701Z" fill="white"/>
<path d="M57.6399 16.7902C69.6399 15.6102 81.8399 15.7902 92.5599 15.0902M3.7699 17.8702C11.2399 17.2702 24.0199 17.8702 33.5299 17.1802L3.7699 17.8702ZM35.8199 20.3902C27.9299 29.8602 12.0399 29.6002 2.2699 23.6502C2.0399 22.6502 1.55989 22.8002 1.82989 21.4302C3.99989 10.0802 22.0299 -11.2798 35.8299 20.4302L35.8199 20.3902ZM95.0799 18.0002C88.6099 27.8502 67.6899 28.4802 56.6599 22.5702C56.4 21.4015 56.424 20.1876 56.7299 19.0302C59.1899 7.75017 79.5299 -13.4698 95.0799 18.0302V18.0002Z" stroke="#999999" stroke-width="3" stroke-miterlimit="15.12"/>
</svg>
