<svg width="98" height="32" viewBox="0 0 98 32" fill="none" xmlns="http://www.w3.org/2000/svg">
<path d="M35.6401 21.6802C29.9901 31.3102 11.7101 31.9302 2.07008 26.1502C-0.0799251 17.4302 20.4101 -12.8098 35.6401 21.6802ZM95.9101 19.0002C89.4001 28.9202 68.3401 29.5602 57.2401 23.6102C54.7501 14.6202 78.3601 -16.5198 95.9101 19.0002Z" fill="white"/>
<path d="M7.10012 20.1302C7.03012 26.9202 11.8701 30.6602 18.0301 30.7402C24.1901 30.8202 29.3401 27.1902 29.4101 20.4102C29.4801 13.6302 24.5401 8.06017 18.4101 7.99017C12.2801 7.92017 7.16012 13.3502 7.10012 20.1302ZM63.0001 17.4002C62.9301 24.4002 68.3601 28.7702 75.4601 28.8402C82.5601 28.9102 88.6401 24.6702 88.7101 17.6802C88.6605 14.327 87.3031 11.1259 84.9272 8.75919C82.5513 6.39251 79.3449 5.04754 75.9916 5.01102C72.6382 4.9745 69.4033 6.24932 66.9764 8.56369C64.5495 10.8781 63.1227 14.0489 63.0001 17.4002Z" fill="#333333"/>
<path d="M35.6401 21.6803C29.9901 31.3103 11.8601 31.4103 2.23011 25.6803C2.00011 24.7303 2.52011 22.4103 2.78011 21.0803C4.92011 10.0803 23.6701 -7.4597 35.6401 21.7203V21.6803ZM95.9101 19.0003C89.4001 28.9203 68.3401 29.5603 57.2401 23.6103C56.9763 22.4324 56.9969 21.2086 57.3001 20.0403C59.7801 8.68029 80.3001 -12.6797 95.9101 19.0403V19.0003Z" stroke="#999999" stroke-width="3" stroke-miterlimit="15.12"/>
<path d="M17.76 19.7401C17.76 21.3201 19.7 22.6201 22.13 22.6401C24.56 22.6601 26.54 21.4201 26.56 19.8501C26.58 18.2801 24.62 16.9801 22.19 16.9501C19.76 16.9201 17.77 18.1701 17.76 19.7401ZM76.3 17.3801C76.3 18.8401 78.3 20.0401 80.83 20.0701C83.36 20.1001 85.4 18.9401 85.41 17.4801C85.42 16.0201 83.41 14.8201 80.89 14.8001C78.37 14.7801 76.31 15.9301 76.3 17.3801V17.3801Z" fill="white"/>
</svg>
