<?xml version="1.0" encoding="UTF-8" standalone="no"?>
<svg
   inkscape:version="1.1.1 (3bf5ae0, 2021-09-20)"
   id="svg8"
   version="1.1"
   viewBox="0 0 97.895831 39.687502"
   height="150"
   width="370"
   xmlns:inkscape="http://www.inkscape.org/namespaces/inkscape"
   xmlns:sodipodi="http://sodipodi.sourceforge.net/DTD/sodipodi-0.dtd"
   xmlns="http://www.w3.org/2000/svg"
   xmlns:svg="http://www.w3.org/2000/svg"
   xmlns:rdf="http://www.w3.org/1999/02/22-rdf-syntax-ns#"
   xmlns:cc="http://creativecommons.org/ns#"
   xmlns:dc="http://purl.org/dc/elements/1.1/">
  <defs
     id="defs2" />
  <sodipodi:namedview
     borderlayer="true"
     units="px"
     showgrid="false"
     inkscape:document-rotation="0"
     inkscape:current-layer="layer1"
     inkscape:document-units="px"
     inkscape:cy="121.72338"
     inkscape:cx="245.97214"
     inkscape:zoom="0.98994949"
     inkscape:pageshadow="2"
     inkscape:pageopacity="0"
     borderopacity="1.0"
     bordercolor="#666666"
     pagecolor="#585858"
     id="base"
     inkscape:pagecheckerboard="1"
     inkscape:snap-global="false"
     fit-margin-top="0"
     fit-margin-left="0"
     fit-margin-right="0"
     fit-margin-bottom="0"
     inkscape:window-width="1280"
     inkscape:window-height="967"
     inkscape:window-x="0"
     inkscape:window-y="1"
     inkscape:window-maximized="1" />
  <metadata
     id="metadata5">
    <rdf:RDF>
      <cc:Work
         rdf:about="">
        <dc:format>image/svg+xml</dc:format>
        <dc:type
           rdf:resource="http://purl.org/dc/dcmitype/StillImage" />
      </cc:Work>
    </rdf:RDF>
  </metadata>
  <g
     id="layer1"
     inkscape:groupmode="layer"
     inkscape:label="Layer 1"
     transform="translate(-94.52741,-158.56634)">
    <g
       id="g300686"
       transform="translate(-525.60111,-203.35955)"
       inkscape:label="eyes7"
       style="display:inline">
      <path
         id="path258943"
         style="font-variation-settings:normal;vector-effect:none;fill:#1a1a1a;fill-opacity:1;stroke:none;stroke-width:4.37896;stroke-linecap:round;stroke-linejoin:round;stroke-miterlimit:4;stroke-dasharray:none;stroke-dashoffset:0;stroke-opacity:1;-inkscape-stroke:none;stop-color:#000000"
         d="m 2558.8926,1384.2305 c -27.4512,0 -51.2316,19.0379 -57.2461,45.8222 -7.4152,-3.9273 -24.811,-6.9297 -35.0742,-1.1894 -5.9379,-24.4286 -27.9536,-42.5663 -54.209,-42.5664 -30.8116,10e-5 -55.789,24.9775 -55.7891,55.789 1e-4,30.8116 24.9775,55.7892 55.7891,55.7891 0.4235,0 0.949,0.263 1.2676,-0.014 2.4867,-2.1526 8.9396,-5.9519 18.3261,-9.8379 5.726,-2.3704 17.8612,-11.7804 20.2188,-6.8554 8.4908,-8.6484 14.1818,-20.0526 15.6172,-32.7461 10.9787,-4.6519 22.3776,-3.8161 32.8125,0.8789 3.2587,29.7395 28.3696,52.2655 58.2871,52.2871 30.269,-0.016 55.5591,-23.0532 58.3906,-53.1895 l 13.0664,-0.8672 67.27,-6.7806 c 2.6596,-3.6693 5.5079,-7.2639 1.1067,-13.9779 l -68.6362,1.2258 -14.9768,-0.9204 c -7.0698,-25.2343 -30.0151,-42.7216 -56.2207,-42.8476 z m 0,6.957 c 28.5645,2e-4 51.7205,23.1562 51.7207,51.7207 -2e-4,28.5645 -23.1562,51.7205 -51.7207,51.7207 -28.5645,-2e-4 -51.7205,-23.1562 -51.7207,-51.7207 2e-4,-28.5645 23.1562,-51.7205 51.7207,-51.7207 z m -146.5293,1.7227 c 27.1585,4e-4 49.1743,22.0172 49.1738,49.1757 -4e-4,27.1579 -22.016,49.1734 -49.1738,49.1739 -27.1579,-4e-4 -49.1735,-22.016 -49.1738,-49.1739 -6e-4,-27.1585 22.0152,-49.1754 49.1738,-49.1757 z"
         transform="scale(0.26458333)"
         sodipodi:nodetypes="cccccsccccccccccccccccccccsccc" />
      <path
         id="circle261476"
         style="opacity:1;vector-effect:none;stroke-width:0.989082;stroke-linecap:round;stroke-linejoin:round;stop-color:#000000"
         d="m 651.52451,381.55417 a 13.253819,13.253819 0 0 1 -13.25382,13.25382 13.253819,13.253819 0 0 1 -13.25382,-13.25382 13.253819,13.253819 0 0 1 13.25382,-13.25382 13.253819,13.253819 0 0 1 13.25382,13.25382 z m 39.78068,0.28961 a 14.177195,14.177195 0 0 1 -14.1772,14.1772 14.177195,14.177195 0 0 1 -14.17719,-14.1772 14.177195,14.177195 0 0 1 14.17719,-14.17719 14.177195,14.177195 0 0 1 14.1772,14.17719 z" />
      <path
         id="path270272"
         style="font-variation-settings:normal;opacity:1;vector-effect:none;fill:#b3b3b3;fill-opacity:1;stroke:none;stroke-width:0.97141;stroke-linecap:round;stroke-linejoin:round;stroke-miterlimit:4;stroke-dasharray:none;stroke-dashoffset:0;stroke-opacity:1;-inkscape-stroke:none;stop-color:#000000"
         d="m 637.91159,368.58819 c -1.15716,0.003 -2.30863,0.16043 -3.42418,0.46787 l -6.98601,19.93018 c 1.33945,1.856 3.03522,3.40416 5.12404,4.33993 l 9.25479,-24.27861 c -1.27345,-0.40444 -2.63252,-0.45912 -3.96864,-0.45937 z m 5.59542,1.18045 -8.81846,24.21605 c 0.1259,0.17409 1.43957,0.53692 1.73036,0.45235 0.31213,0.0223 7.4196,-18.02396 7.94176,-18.54208 l -4.65316,18.09872 8.05785,-21.16215 c -1.08176,-1.39829 -2.71945,-2.4147 -4.25835,-3.06289 z m 33.19224,-1.37977 c -1.19502,0.003 -2.38416,0.16568 -3.53621,0.48318 l -7.21455,20.5822 c 1.38327,1.91672 3.13452,3.51552 5.29167,4.48191 l 9.55757,-25.07289 c -1.31512,-0.41767 -2.71865,-0.47414 -4.09848,-0.4744 z m 5.77847,1.21907 -9.10695,25.00828 c 0.13001,0.17979 1.48666,0.55449 1.78697,0.46715 0.32234,0.023 7.66233,-18.61362 8.20158,-19.14869 l -4.80539,18.69083 8.32146,-21.85448 c -1.11715,-1.44404 -2.80842,-2.4937 -4.39767,-3.16309 z" />
    </g>
  </g>
</svg>
