<?xml version="1.0" encoding="UTF-8" standalone="no"?>
<svg
   inkscape:version="1.1.1 (3bf5ae0, 2021-09-20)"
   id="svg8"
   version="1.1"
   viewBox="0 0 97.895831 39.687502"
   height="150"
   width="370"
   xmlns:inkscape="http://www.inkscape.org/namespaces/inkscape"
   xmlns:sodipodi="http://sodipodi.sourceforge.net/DTD/sodipodi-0.dtd"
   xmlns="http://www.w3.org/2000/svg"
   xmlns:svg="http://www.w3.org/2000/svg"
   xmlns:rdf="http://www.w3.org/1999/02/22-rdf-syntax-ns#"
   xmlns:cc="http://creativecommons.org/ns#"
   xmlns:dc="http://purl.org/dc/elements/1.1/">
  <defs
     id="defs2" />
  <sodipodi:namedview
     borderlayer="true"
     units="px"
     showgrid="false"
     inkscape:document-rotation="0"
     inkscape:current-layer="layer1"
     inkscape:document-units="px"
     inkscape:cy="121.72338"
     inkscape:cx="245.97214"
     inkscape:zoom="0.98994949"
     inkscape:pageshadow="2"
     inkscape:pageopacity="0"
     borderopacity="1.0"
     bordercolor="#666666"
     pagecolor="#585858"
     id="base"
     inkscape:pagecheckerboard="1"
     inkscape:snap-global="false"
     fit-margin-top="0"
     fit-margin-left="0"
     fit-margin-right="0"
     fit-margin-bottom="0"
     inkscape:window-width="1280"
     inkscape:window-height="967"
     inkscape:window-x="0"
     inkscape:window-y="1"
     inkscape:window-maximized="1" />
  <metadata
     id="metadata5">
    <rdf:RDF>
      <cc:Work
         rdf:about="">
        <dc:format>image/svg+xml</dc:format>
        <dc:type
           rdf:resource="http://purl.org/dc/dcmitype/StillImage" />
      </cc:Work>
    </rdf:RDF>
  </metadata>
  <g
     id="layer1"
     inkscape:groupmode="layer"
     inkscape:label="Layer 1"
     transform="translate(-94.52741,-158.56634)">
    <g
       id="g68370"
       transform="translate(14.244185,-473.40842)"
       inkscape:label="eyes6"
       style="display:inline">
      <path
         id="path60883"
         style="fill:#ffffff;fill-opacity:1;stroke:none;stroke-width:2.52961;stroke-linecap:butt;stroke-linejoin:miter;stroke-miterlimit:4;stroke-dasharray:none;stroke-dashoffset:0;stroke-opacity:1"
         d="m 110.53773,653.73174 c -5.2582,8.42099 -18.965601,7.92591 -26.031224,2.15385 -1.448282,-6.07807 15.127724,-26.37768 26.031224,-2.15385 z m 39.46014,0.32806 c -5.53049,8.85706 -19.94772,8.33635 -27.37923,2.26538 -1.52328,-6.39281 15.9111,-27.74362 27.37923,-2.26538 z" />
      <path
         id="path60885"
         style="vector-effect:none;fill:#333333;stroke-width:1.76052;stroke-linecap:round;stroke-linejoin:round;paint-order:stroke fill markers;stop-color:#000000"
         d="m 88.534947,651.86989 c -0.220074,4.67979 3.324751,8.2258 8.080584,8.44944 4.755839,0.22361 8.921759,-2.95977 9.141839,-7.63957 0.22006,-4.6798 -3.4569,-8.65485 -8.212732,-8.87849 -4.755871,-0.22365 -8.789627,3.38879 -9.009691,8.06862 z m 38.320743,0.23164 c -0.23147,4.92213 3.49692,8.65177 8.49903,8.88699 5.00212,0.23519 9.38377,-3.11304 9.61524,-8.03518 0.23146,-4.92214 -3.63591,-9.10303 -8.63802,-9.33825 -5.00215,-0.23523 -9.24479,3.56427 -9.47625,8.48644 z" />
      <path
         id="path60887"
         style="font-variation-settings:normal;opacity:1;vector-effect:none;fill:none;fill-opacity:1;stroke:#999999;stroke-width:2.11667;stroke-linecap:butt;stroke-linejoin:miter;stroke-miterlimit:4;stroke-dasharray:none;stroke-dashoffset:0;stroke-opacity:1;-inkscape-stroke:none;stop-color:#000000;stop-opacity:1"
         d="m 110.53773,653.73174 c -4.85008,8.96639 -19.103224,10.132 -26.031224,2.15385 -0.156277,-0.65608 -0.10273,-1.47791 0.131073,-2.39145 1.932868,-7.55019 16.173451,-21.37147 25.900011,0.2376 z m 39.46014,0.32806 c -5.10124,9.43071 -20.09247,10.65668 -27.37923,2.26538 -0.16437,-0.69005 -0.10805,-1.55444 0.13786,-2.51528 2.03296,-7.94118 17.01098,-22.47818 27.24122,0.2499 z" />
      <path
         id="circle59194"
         style="font-variation-settings:normal;vector-effect:none;fill:#333333;fill-opacity:1;stroke:none;stroke-width:4.37896;stroke-linecap:round;stroke-linejoin:round;stroke-miterlimit:4;stroke-dasharray:none;stroke-dashoffset:0;stroke-opacity:1;-inkscape-stroke:none;stop-color:#000000"
         d="m 514.8457,356.00781 a 58.678499,58.678499 0 0 0 -57.24414,45.82227 c -7.41352,-3.92808 -24.81158,-6.93237 -35.07617,-1.19141 -5.93789,-24.42853 -27.95358,-42.56631 -54.20898,-42.5664 -30.81154,7e-5 -55.78894,24.97947 -55.78907,55.79101 1.1e-4,30.81154 24.97751,55.78918 55.78907,55.78906 0.42351,0 0.94899,0.26104 1.26757,-0.0156 2.48676,-2.15267 8.93967,-5.95002 18.32618,-9.83594 5.72598,-2.37048 17.86115,-11.78237 20.21875,-6.85742 8.49102,-8.64856 14.18198,-20.05223 15.61718,-32.74609 10.97815,-4.65159 22.37609,-3.81546 32.81055,0.8789 a 58.678499,58.678499 0 0 0 58.28906,52.28711 58.678499,58.678499 0 0 0 58.38868,-53.1875 l 13.0664,-0.86719 77.55274,-1.93945 c 2.65965,-3.66928 3.93634,-7.93441 -0.46485,-14.64844 l -76.22656,-3.38086 -15.78516,-0.23242 A 58.678499,58.678499 0 0 0 514.8457,356.00781 Z m 0,6.95508 a 51.721126,51.721126 0 0 1 51.72071,51.72266 51.721126,51.721126 0 0 1 -51.72071,51.7207 51.721126,51.721126 0 0 1 -51.7207,-51.7207 51.721126,51.721126 0 0 1 51.7207,-51.72266 z m -146.52929,1.72461 c 27.15852,4.2e-4 49.17435,22.01727 49.17382,49.17578 -3.7e-4,27.15787 -22.01598,49.17341 -49.17382,49.17383 -27.15788,-3.8e-4 -49.17345,-22.01596 -49.17383,-49.17383 -5.3e-4,-27.15851 22.0153,-49.1754 49.17383,-49.17578 z"
         transform="matrix(0.26458333,0,0,0.26458333,-0.2565883,542.09963)" />
      <path
         id="ellipse60891"
         style="vector-effect:none;fill:#ffffff;stroke-width:1.62357;stroke-linecap:round;stroke-linejoin:round;paint-order:stroke fill markers;stop-color:#000000"
         transform="matrix(-0.99708468,-0.07630298,-0.02888429,0.99958276,0,0)"
         d="m -110.29362,645.90826 a 2.3096089,2.1701128 0 0 1 -2.30961,2.17012 2.3096089,2.1701128 0 0 1 -2.30961,-2.17012 2.3096089,2.1701128 0 0 1 2.30961,-2.17011 2.3096089,2.1701128 0 0 1 2.30961,2.17011 z m -5.4552,-5.44574 a 3.062063,2.87712 0 0 1 -3.06206,2.87712 3.062063,2.87712 0 0 1 -3.06207,-2.87712 3.062063,2.87712 0 0 1 3.06207,-2.87712 3.062063,2.87712 0 0 1 3.06206,2.87712 z m -33.04684,2.85157 a 2.4292099,2.2824903 0 0 1 -2.42921,2.28249 2.4292099,2.2824903 0 0 1 -2.42921,-2.28249 2.4292099,2.2824903 0 0 1 2.42921,-2.28249 2.4292099,2.2824903 0 0 1 2.42921,2.28249 z m -6.29465,-5.77021 a 3.2206292,3.0261092 0 0 1 -3.22063,3.02611 3.2206292,3.0261092 0 0 1 -3.22063,-3.02611 3.2206292,3.0261092 0 0 1 3.22063,-3.0261 3.2206292,3.0261092 0 0 1 3.22063,3.0261 z" />
      <path
         id="path60893"
         style="font-variation-settings:normal;opacity:1;vector-effect:none;fill:#ffffff;fill-opacity:1;stroke:none;stroke-width:0.907346;stroke-linecap:round;stroke-linejoin:round;stroke-miterlimit:4;stroke-dasharray:none;stroke-dashoffset:0;stroke-opacity:1;-inkscape-stroke:none;stop-color:#000000"
         d="m 97.068792,639.40291 a 12.158641,12.158641 0 0 0 -12.158816,12.15883 12.158641,12.158641 0 0 0 12.158816,12.15882 12.158641,12.158641 0 0 0 12.158378,-12.15882 12.158641,12.158641 0 0 0 -12.158378,-12.15883 z m 0,0.74034 A 11.418425,11.418425 0 0 1 108.48728,651.56174 11.418425,11.418425 0 0 1 97.068792,662.9802 11.418425,11.418425 0 0 1 85.650299,651.56174 11.418425,11.418425 0 0 1 97.068792,640.14325 Z m 38.771378,-1.14772 a 12.788266,12.788266 0 0 0 -12.78845,12.78846 12.788266,12.788266 0 0 0 12.78845,12.78845 12.788266,12.788266 0 0 0 12.78799,-12.78845 12.788266,12.788266 0 0 0 -12.78799,-12.78846 z m 0,0.77867 a 12.009718,12.009718 0 0 1 12.00978,12.00979 12.009718,12.009718 0 0 1 -12.00978,12.00976 12.009718,12.009718 0 0 1 -12.00979,-12.00976 12.009718,12.009718 0 0 1 12.00979,-12.00979 z" />
      <path
         id="circle60895"
         style="opacity:1;vector-effect:none;fill:#ffffff;fill-opacity:0.4;stroke-width:0.982445;stroke-linecap:round;stroke-linejoin:round;stop-color:#000000"
         d="M 110.27453,651.51828 A 13.164922,13.164922 0 0 1 97.109605,664.6832 13.164922,13.164922 0 0 1 83.944683,651.51828 13.164922,13.164922 0 0 1 97.109605,638.35336 13.164922,13.164922 0 0 1 110.27453,651.51828 Z m 39.45087,0.21771 a 13.846656,13.846656 0 0 1 -13.84666,13.84666 13.846656,13.846656 0 0 1 -13.84666,-13.84666 13.846656,13.846656 0 0 1 13.84666,-13.84666 13.846656,13.846656 0 0 1 13.84666,13.84666 z" />
    </g>
  </g>
</svg>
