<svg xmlns="http://www.w3.org/2000/svg" viewBox="0 0 512 512"><defs><style>.cls-1,.cls-2,.cls-5{fill:#fff;}.cls-1{stroke:#fff;stroke-miterlimit:10;stroke-width:5px;}.cls-3{fill:#333;}.cls-4{fill:none;}.cls-4,.cls-5{stroke:#999;stroke-linecap:round;stroke-linejoin:round;stroke-width:3px;}.cls-6{fill:#ccc;}</style></defs><g id="Rectangle"><rect class="cls-1" x="2.5" y="2.5" width="507" height="507"/></g><g id="Eyes"><g id="layer1"><g id="g95491"><path id="path95479" class="cls-2" d="M206.11,166c-5.68,8.82-24,7.94-33.32,4.45C170.43,165,189.4,155,206.11,166Zm59.82-2.66c-6.47,9.84-27.37,10.47-38.39,4.57C224.8,161.79,247.17,150.94,265.93,163.3Z"/><path id="path148801" class="cls-3" d="M237.53,164.84c-.06,5.14,4.11,7.8,9.33,7.86s9.51-2.51,9.57-7.65a9.45,9.45,0,0,0-18.9-.21Z"/><path id="path149038" class="cls-3" d="M180.66,165.83c0,4.59,3.68,7,8.35,7s8.53-2.25,8.58-6.85a8.47,8.47,0,0,0-16.93-.18Z"/><path id="path95483" class="cls-4" d="M203.45,170.11c-5.67,2.78-25.74,2.61-30.16,1a23.28,23.28,0,0,1,.2-5.76c-.32-3.4,13.87-31.86,31.32-2.47C204.9,164.39,205.65,168.67,203.45,170.11Zm63.14-.72c-14.26,3.24-32,2.11-38.76.84a20.29,20.29,0,0,1-.22-5.9c1.24-16.27,31.08-30.34,38.89-1.39Z"/><path id="path95485" class="cls-2" d="M249,164.19a3,3,0,0,0,3.14,2.68,2.9,2.9,0,0,0,3.19-2.58,3,3,0,0,0-3.15-2.68,2.91,2.91,0,0,0-3.18,2.58Z"/><path id="path149040" class="cls-2" d="M190.94,165.24a2.65,2.65,0,0,0,2.82,2.4,2.6,2.6,0,0,0,2.85-2.31,2.66,2.66,0,0,0-2.82-2.4,2.61,2.61,0,0,0-2.85,2.31Z"/><path id="path95487" class="cls-5" d="M174.19,163.43c11.5-.46,20.32-1.3,30.53-.93.44-.19-5.75-13.86-14.74-13.21C178.5,150.14,174.81,160.25,174.19,163.43Zm53.64-1c12.18-.1,29.7-.61,37.71-.93.15-3-4.29-15.45-16.87-15.42C233,146.15,228.14,161.18,227.83,162.48Z"/><path id="path95489" class="cls-6" d="M243.5,148.48c-10,2.53-14.57,12.79-13.52,12.37,4.63,0,7.54-.37,10.18-.22-.15.05-1.07-9.76,6.08-12.58a8,8,0,0,0-2.74.43Zm-67,13.11,9.14-.47c.19.07-1.7-8.17,4.66-10.1A14.92,14.92,0,0,0,176.53,161.59Zm79.22,11.16c-2.9,1.8-6,4.26-4.63,9.12-4.12,5.88-24.86-4-20.74-9.52a137.41,137.41,0,0,0,25.37.4Z"/><path id="path95611" class="cls-4" d="M184.3,183.85c-9.56-.78-10.11-10.12-10.62-13.27m76.94,12.81c-15.3,2.44-21.88-6.61-22.83-14.11"/></g></g></g></svg>