<svg id="Chip1" xmlns="http://www.w3.org/2000/svg" viewBox="0 0 177.61 366.41"><defs><style>.cls-1{fill:#fff;}.cls-2{fill:#ccc;}.cls-3{fill:#999;}</style></defs><g id="layer1"><g id="g1218"><g id="path1120-9"><path class="cls-1" d="M274.19,63.91c4.75,25.08,50,42.62,37.24,37.25-2.61-3.19,5.28-30.59,5.28-30.59s3.5-11.62,2.84-15.14,1.22-16.89-.48-19.49-3.56-11.36-4.17-12.43-2.06-3.92-4.7-2.56-4.42,4.09-5.38,5.64-7.67,13.07-9.07,14.73-8.13,7.55-8.13,7.55M208.08,60.45c-3-5,.32-.63-3.72-6.28,0,0-6.6-5.78-8.84-11s-4.53-10.13-8.58-9.07-4.81,2.49-5.7,11.42-.77,28.93-.77,28.93c.28-.06-2.59.06-.57,6.38C189.39,74.1,196.84,70.64,208.08,60.45ZM175.3,120.57c-5.07,14.39.23,30,.69,42.93-3.32,1,0,7.24.56,11.35-2.86,4.2-1.64,8.43.81,12.67-1.72,5.53-2.18,11.15,2.68,17.16-1.62,5-2.62,9.88,1.48,13.31.36,8.62.52,17.48,6.56,19.46-2.05,4.78-5.18,9-1,16.94-1.68,4.31-4.58,8.45.7,13.73-1.39,6.12-6.62,9.77.75,21.49l-.09,9.26c-1.92,5.23-4.19,10.56-3.13,14.84l.58,15.25c-6.12,2.43-10.78,14.86-14.81,27.83,50,38.83,126.94,33.79,173.82-.42,3.25-5.59-5.37-15.68-6.69-17.32-1.62-19.17-3.82-22.24-6.83-24.87-1.07-12.19-1.5-24.26-6.76-37.27,1.49-9.48-3.55-13.47-6.18-19.49,1.72-8.68-1.06-12.07-2.06-17.57l2.39-13.15c3.65-6.23,2.94-13-.48-20.07,7.05-6.35,3.51-13.46,2.87-20.36,2.22-6.58,0-12.71-1-19,4.17-3.3.42-9.08-.8-14.07,6.09-11.93,2.58-16,1.49-22,2.09-3.91,3.21-10.48.71-11.58L316.07,77c-23-12-84.82-46.24-132.27.81-8.2-2.5-5.67,28.52-8.5,42.78Z" transform="translate(-169.49 -19.1)"/><path class="cls-1" d="M272.74,64.31c1.81,9.26,8.43,17,15.35,23a111.09,111.09,0,0,0,20.29,13.82c1.49.81,3.08,1.47,4.54,2.31l1.15-2.74c.62.24.23.09,0,0l-1.05-.45a1.94,1.94,0,0,0-.36-.15c-.39-.11-.22-.28-.15.07.18.89.14-.1.07,0s.06.3,0-.07c0-.15-.07-.29-.1-.43s0,.24,0-.15,0-.73,0-1.1c0-4.38,1.12-8.82,2.08-13.07,1.46-6.44,3.38-12.73,5-19.13a58.27,58.27,0,0,0,1.55-8c.24-2.19-.15-3.71-.11-5.86,0-2.79.25-5.58.34-8.37a26.56,26.56,0,0,0-.35-7.45A16,16,0,0,0,319.75,34a33.34,33.34,0,0,1-1.29-3.76c-.69-2.29-1.15-4.71-2-6.93s-3-4.69-5.7-4.13c-3.23.67-5.62,4.07-7.24,6.69-2.41,3.91-4.67,7.92-7.11,11.81a17,17,0,0,1-2.95,3.87c-1.83,1.79-3.74,3.49-5.65,5.18l-1.23,1.08c-1.45,1.28.68,3.39,2.13,2.12s2.64-2.34,3.95-3.53a33.38,33.38,0,0,0,4.58-4.55,138.29,138.29,0,0,0,7.38-12,37.15,37.15,0,0,1,3.22-5c.77-.92,2.61-3.15,4-2.77.84.24,1.41,1.42,1.78,2.13,0,.09-.08-.26,0,.13l.15.45c.18.56.33,1.12.49,1.68.36,1.31.72,2.62,1.1,3.92s.84,2.8,1.38,4.15c.22.55.45,1.1.72,1.62.09.17.2.33.29.49.18.32,0,0,.12.24.75,2.08.43,4.73.36,6.89-.09,2.8-.3,5.59-.35,8.39,0,2.09.33,3.66.15,5.63a50,50,0,0,1-1.52,7.67c-1.57,6.23-3.44,12.36-4.86,18.62a76.44,76.44,0,0,0-2.26,13.5,7.63,7.63,0,0,0,.6,4.12c.51.86,1.74,1.15,2.62,1.54.21.09.42.19.64.27,1.6.63,2.59-1.91,1.15-2.74-1.1-.63-2.31-1.13-3.43-1.72q-4.37-2.3-8.54-4.94c-7.55-4.76-14.87-10.38-20.41-17.45a31.59,31.59,0,0,1-6.42-13.21c-.37-1.89-3.26-1.09-2.89.8Z" transform="translate(-169.49 -19.1)"/><path class="cls-1" d="M209.37,59.7c-.39-.65-.78-1.3-1.13-2,0-.07-.22-.51-.15-.29s0-.08,0-.13a5.19,5.19,0,0,0-.6-1.31,18.71,18.71,0,0,0-2.18-3c-.71-.72-1.48-1.38-2.2-2.1a29.9,29.9,0,0,1-6.27-8.43c-1.46-3.24-3-7.65-6.39-9.36-2.24-1.13-5.22-.45-7.16,1s-2.5,3.89-2.87,6.13A134.92,134.92,0,0,0,179.07,60c-.09,4.84-.13,9.7-.1,14.54a1.52,1.52,0,0,0,1.9,1.45,2.43,2.43,0,0,0,.37-.16,1.52,1.52,0,0,0-.35-2.74c-1.08-.31-2.17.63-2.65,1.49-1.12,2-.41,4.71.21,6.74a1.52,1.52,0,0,0,2.21.9c4.43-3.16,9.06-6,13.57-9a130.84,130.84,0,0,0,14.91-11.63c1.44-1.29-.69-3.41-2.12-2.12a127.07,127.07,0,0,1-14.59,11.36c-4.42,3-9,5.75-13.29,8.84l2.2.89a8.25,8.25,0,0,1-.53-4.38c-.07.25.14-.24.15-.26,0,.2.1,0-.14.13.2-.12.3,0-.08,0,.44-.07-.71,0-.65,0l-.36-2.74.34-.14L182,74.5c-.06-9.47-.15-19,.72-28.48.25-2.67.29-6,1.55-8.44a2.78,2.78,0,0,1,1.29-1.35,5.3,5.3,0,0,1,2.65-.72c1.41.11,2.42,1.49,3.13,2.59a36.94,36.94,0,0,1,2.58,5.1,31.09,31.09,0,0,0,5.94,8.61c.93,1,1.9,2,2.9,2.9a13.86,13.86,0,0,1,1.94,2.49c.13.21.26.42.4.62s.21.45.1.16,0,.09,0,.18a13.26,13.26,0,0,0,1.6,3.05C207.79,62.86,210.38,61.35,209.37,59.7Z" transform="translate(-169.49 -19.1)"/><path class="cls-1" d="M173.86,120.18c-4.93,14.32,0,28.8.63,43.32l1.11-1.44c-5.21,1.89-1.07,9.6-.5,13.19l.15-1.16c-3,4.67-1.76,9.65.81,14.19l-.15-1.16a22.53,22.53,0,0,0-1.13,9.21,18.62,18.62,0,0,0,4.2,9.41l-.39-1.46c-1.62,5.09-2.63,10.83,1.87,14.77L180,218c.28,6.81-.32,18.09,7.66,20.9l-.89-2.2c-1.14,2.61-2.57,5.15-3.06,8a16.68,16.68,0,0,0,2,10.47L185.6,254c-.94,2.36-2.15,4.64-2.34,7.22-.23,3.12,1.32,5.79,3.43,8l-.39-1.46c-.91,3.87-3.2,7.2-3.15,11.31a19.07,19.07,0,0,0,2.31,8.26,11,11,0,0,0,1.18,2.16s.53.85.36.21c0,.06,0,.14,0,.21a15.1,15.1,0,0,1,0,2.23l-.06,6a4.71,4.71,0,0,1-.5,1.87c-.72,1.92-1.45,3.85-2,5.83a22.24,22.24,0,0,0-.89,5,20.77,20.77,0,0,0,.27,3.18c.14,1.36.1,2.77.16,4.14l.41,10.87,1.11-1.44c-4.33,1.81-6.92,6.23-8.9,10.26a126.64,126.64,0,0,0-7,18.62,1.49,1.49,0,0,0,.38,1.46,128.47,128.47,0,0,0,38.16,20.2,149.71,149.71,0,0,0,42.44,7.37,164.1,164.1,0,0,0,42.76-4.32,151.81,151.81,0,0,0,39.15-15.05q4.42-2.47,8.63-5.27c1.42-.94,2.82-1.9,4.19-2.9a4.9,4.9,0,0,0,1.74-3.67c.51-5.28-3.36-10.57-6.43-14.5-.46-.59-.93-1.16-1.39-1.73l.44,1.06c-.54-6.34-1-13-3-19.14a14.85,14.85,0,0,0-4.29-6.79l.44,1.06c-.75-8.64-1.26-17.34-3.16-25.84-.49-2.18-1.06-4.35-1.74-6.49-.34-1.1-.72-2.2-1.12-3.29a15.05,15.05,0,0,1-.59-1.53,4.7,4.7,0,0,1,0-1.54,19.55,19.55,0,0,0-1.72-9.92c-1.4-3.09-3.47-5.81-4.85-8.91l.15,1.15a26.63,26.63,0,0,0-.54-12.79c-.47-1.6-.82-3.33-1.38-4.9-.23-.65-.21.52-.07-.22.08-.4.15-.81.22-1.21l1.48-8.18c.18-1,.29-2,.55-3,.39-1.48,1.36-2.86,1.81-4.38,1.73-5.86.18-11.89-2.37-17.25l-.23,1.82a14,14,0,0,0,4.65-8.76c.37-3.09-.28-6.18-.82-9.21-.14-.77-.28-1.54-.39-2.31a7.7,7.7,0,0,1,.38-2.81,22.4,22.4,0,0,0,.4-5.95c-.24-4-1.29-7.83-1.94-11.74l-.38,1.46c4.86-4.12.82-10.7-.41-15.53l-.15,1.15c2.15-4.26,4-9,3.65-13.84-.22-3.22-1.43-6.2-2-9.34l-.15,1.16a20.78,20.78,0,0,0,2.32-8c.15-2-.12-4.63-2.14-5.67l.74,1.29-3.21-24.91L318,80.14c-.13-1-.22-2-.39-3.06-.32-1.8-3.11-2.63-4.62-3.42a228.84,228.84,0,0,0-33.59-14.8c-14.28-4.77-29.48-7.58-44.57-6.43a81.51,81.51,0,0,0-46.54,19.24c-1.91,1.61-3.74,3.31-5.52,5.06l1.46-.38c-5.3-1.51-6.77,5.84-7.36,9.49-1.19,7.46-1.26,15.08-1.73,22.61a90.43,90.43,0,0,1-1.25,11.73l1.44-1.11h0a1.5,1.5,0,0,0,0,3h0a1.52,1.52,0,0,0,1.45-1.1c1.31-6.74,1.44-13.71,1.81-20.56.19-3.54.39-7.09.77-10.62a35.32,35.32,0,0,1,1.54-8,6.27,6.27,0,0,1,1.25-2.25c.45-.43.64-.46,1.28-.28a1.49,1.49,0,0,0,1.46-.39,77.92,77.92,0,0,1,58.36-23.66C261.31,55.5,279,61,295.4,68.36c6.76,3,13.34,6.47,19.91,9.91L314.57,77l4.88,37.89c.2,1.58.32,3.19.61,4.75.18.95.76,1.06,1.18,1.76.56.94.25,2.69.09,3.69a18.64,18.64,0,0,1-1.16,4.08,12.41,12.41,0,0,0-.77,1.66,4.73,4.73,0,0,0,.26,2c.93,4,2.2,7.53,1.37,11.67a25.8,25.8,0,0,1-1.26,4.21c-.62,1.64-2.18,3.52-1.75,5.3.71,3,2.45,5.83,2.55,8.93a4,4,0,0,1-.39,2.07c-.37.71-1.25,1.11-1.47,1.89a7,7,0,0,0,.35,2.77c.22,1.15.46,2.29.68,3.44a39.16,39.16,0,0,1,.84,6.28,20.21,20.21,0,0,1-.15,3.39c-.15,1.05-.58,2.05-.74,3.08-.25,1.56.35,3.49.63,5a44.45,44.45,0,0,1,.73,5,11.48,11.48,0,0,1-3.85,9.68,1.54,1.54,0,0,0-.24,1.82,23.87,23.87,0,0,1,2.69,11.22,15.63,15.63,0,0,1-1.08,5,24.3,24.3,0,0,0-1.33,2.9c-.81,3.34-1.23,6.82-1.84,10.19a13.08,13.08,0,0,0-.49,3.5c.24,2.31,1.27,4.57,1.85,6.8a21.52,21.52,0,0,1,.39,8.93,3.89,3.89,0,0,0,0,2.19A17,17,0,0,0,318,260c.6,1.11,1.27,2.2,1.91,3.29A23.9,23.9,0,0,1,323,270.2a16.12,16.12,0,0,1,.35,4.38,20.72,20.72,0,0,0-.25,2.33,15.39,15.39,0,0,0,1.21,3.47,94.82,94.82,0,0,1,4.56,22.25c.36,3.69.6,7.38.95,11.07a2.79,2.79,0,0,0,1,2,12.14,12.14,0,0,1,.93,1,6.68,6.68,0,0,1,.68,1,14.27,14.27,0,0,1,.85,1.65,28.59,28.59,0,0,1,1.38,4.64c.54,2.44.91,4.92,1.22,7.4.21,1.69.38,3.38.54,5.07.14,1.48,0,2.86,1,4,2.55,3.16,5.19,6.64,6.32,10.59a7.84,7.84,0,0,1,.35,3c-.18,1.42-.62,1.47-1.8,2.3q-3.4,2.4-7,4.57a137.44,137.44,0,0,1-15.73,8.22,158.11,158.11,0,0,1-70.8,13.18c-24.43-1.05-48.78-7.91-69.31-21.4q-3.76-2.47-7.34-5.23l.39,1.46a129,129,0,0,1,6.28-17.12c1.59-3.35,3.8-8.12,7.48-9.66a1.55,1.55,0,0,0,1.1-1.45l-.51-13.36c-.1-2.68-.5-5.17.14-7.85a70.28,70.28,0,0,1,2.59-7.74,7.23,7.23,0,0,0,.35-2.69c0-2.48.15-5,.07-7.45a2.68,2.68,0,0,0-.35-1.25c-.67-1.22-1.41-2.38-2-3.65a15.32,15.32,0,0,1-1.49-5.37c-.16-2.68.82-5.07,1.82-7.51a13.77,13.77,0,0,0,1.23-3.77c.1-1.2-1.14-1.94-1.76-2.84a6.68,6.68,0,0,1-1.2-3c-.23-1.9.57-3.78,1.3-5.48.38-.9,1.14-2.05.93-3a13.88,13.88,0,0,0-1-2.08,15.93,15.93,0,0,1-.67-2c-1.1-4.31.84-7.86,2.51-11.7a1.54,1.54,0,0,0-.9-2.2c-4.26-1.5-4.78-7.38-5.1-11.19-.1-1.23-.17-2.47-.23-3.7s.26-3.19-.57-4.18a6.73,6.73,0,0,1-2.38-6.58,23,23,0,0,1,.82-3.77,7.06,7.06,0,0,0,.52-1.9c0-.82-.73-1.41-1.17-2a14.47,14.47,0,0,1-2.71-7.94,16.85,16.85,0,0,1,.33-3.61c.21-1.11.9-2.45.87-3.57a5.78,5.78,0,0,0-1-2.12,18.11,18.11,0,0,1-.84-1.91,9.4,9.4,0,0,1-.59-4.63,7.54,7.54,0,0,1,.81-2.35,3.2,3.2,0,0,0,.7-2.06,22.21,22.21,0,0,0-1-3.92c-.23-.78-1.87-5.13-.64-5.58a1.54,1.54,0,0,0,1.1-1.45c-.57-14.21-5.56-28.52-.74-42.53C177.38,119.14,174.48,118.36,173.86,120.18Z" transform="translate(-169.49 -19.1)"/></g><g id="path621552-0"><path class="cls-2" d="M311.64,34.69l-8.47,20.36,1.78-10c-8.12,11-10.92,20-16.5,20-6.69,1.48-5.78-5.17-9.23-7.75l-5,6.42c5.8,19.45,19.55,28.42,35.84,36.84l1.44-2.27c-3.16-4-4.32-11.17-3.1-15.13C308.55,82,313,60.9,313,60.9s-3.67-7.95-3.51-12.09S311.64,34.69,311.64,34.69ZM184.13,36.76c-.07,0-.11.06-.13.17-3.72,8.5-3.4,43.66-3.19,42.81,4.12-4,9.7-5.15,13.88-9.13-.11.18-5.59-23.79-6.22-26.66-.52-2.4-3.71-7.21-4.34-7.19Zm17.12,282.09c2.86-2.27,3.87-10.12-.38-14.67-2.62-2.81,2.81-8.43,2.16-12.18-.61-3.53-2.82-7.52-2.64-11.31.17-3.64,3.07-6.77,3.51-10.13-.72-9.58-3.47-9.37-.72-14.2,1.54-7.74-2.46-14.66-1.77-19,4.88-5,10.58-8.67,2.11-18.67-.63-.6.9-4.72-1.74-6.35-5-3.07-7.42-24.37-4.87-29.37,1.3-2.54,10-12.1,14.31-15.95,1.31-1.16,1.31-2.47,2.17-3.58,6.52-3.43,16.36-2.07,20.36,3.57,1.45,1.33,10.35.23,12.37,0,2.56-.27,15.56-1.46,17.5-3.33,2.27-2.17-4.9-13-5.2-17.42s-3.07-3.2,3.91-6.37c5.16-1.19,21.3-2.48,20.63-8.49-.57.25,2.52-6.33-.71-11.8-11-18.85-108-42.09-106.35.16-3.11,3.35-2.12,22.88-2.1,20.86,0-2.53-2.27,10.39,3.5,19.29,1,1.62-2.15,3.56-2.46,5.46-.51,3.15,2.25,5.41,2.38,8.23.11,2.4-2.11,4.52-1.86,7,.21,2,3,3.25,3,5.2,0,3.63-1.71,6.78-2.06,10.61-.4,4.37,4.7,8.09,5,8,2.79-.55-2.69,5.17-2.3,8.25.34,2.64,2.75,4.4,3.09,6.9.38,2.81.15,9.14,1.2,11.87.94,2.45-.54,2.31,3.34,4.82s-1.9,8-1.57,12c.16,2.05,2.23,3.29,2.42,5.14.25,2.37-2.66,5.11-2.53,7.91.12,2.58,2.71,4.61,2.79,6.87.1,3.22-2.83,6.57-2.94,10-.15,4.82,2.69,8.33,3.75,12.75.73,3.09,1.73,6.11-.1,8.76s-4.27,5.27-3,8.72c0,0,.51,6.78-.69,11.09s.08,10.41.08,10.41l-4.79,3.6-1.4,7c-1.25-.27-8.07,10.51-7.58,16.09,8.17,7.48,31.08,20.71,56,24.58C217.81,376.82,209,368.6,201.63,358c0,0-10.81-8.61-2.19-18.92,3.35-4-3.3-16.21,1.81-20.27Z" transform="translate(-169.49 -19.1)"/><path class="cls-1" d="M310.2,34.29l-7.41,17.8-1.06,2.56,2.89.8,1.77-10a1.51,1.51,0,0,0-2.74-1.15c-2.25,3.08-4.31,6.3-6.31,9.55a60.65,60.65,0,0,1-4.61,7c-1.05,1.26-2.31,2.54-4,2.75-2.13.26-3.65.43-4.83-1.6s-1.78-4.24-3.64-5.7a1.52,1.52,0,0,0-2.12,0l-4.61,6a3.7,3.7,0,0,0-.74,1.12c-.29,1.06.61,2.77,1,3.77a52.41,52.41,0,0,0,3.13,7.07c4.34,8.13,11,14.56,18.57,19.68a136.06,136.06,0,0,0,13.85,8,1.52,1.52,0,0,0,2.05-.54l1.45-2.26a1.48,1.48,0,0,0,0-1.52,17.32,17.32,0,0,1-3.3-9.07,13.84,13.84,0,0,1,.18-4.26c.08-.35.14-.7.22-1,0-.16-.07.46,0,.23s.07-.39.1-.58c.71-3.87,1.54-7.73,2.34-11.58.68-3.28,1.46-6.56,2-9.85.22-1.24-.8-2.8-1.24-3.92a26.62,26.62,0,0,1-2.18-8A40.12,40.12,0,0,1,312,40.89q.5-2.91,1.08-5.8c.38-1.88-2.51-2.69-2.89-.8A114.9,114.9,0,0,0,308,47.93c-.37,4.67,1.74,9.56,3.65,13.72l-.15-1.15q-1.26,6-2.5,12.09c-.53,2.59-1.07,5.18-1.58,7.77a37,37,0,0,0-1,5.66,20.45,20.45,0,0,0,3.77,13.06V97.56l-1.45,2.27,2-.54c-11.71-6.06-23.4-13.13-30.31-24.77a50.51,50.51,0,0,1-4.83-11.17l-.39,1.46,5-6.42h-2.12c1.69,1.33,2.2,3.51,3.28,5.28a6.07,6.07,0,0,0,6,3.08,9.73,9.73,0,0,0,6.22-2.54,33.66,33.66,0,0,0,5-6.79c2.44-3.92,4.84-7.85,7.57-11.59l-2.74-1.15-1.77,10a1.5,1.5,0,0,0,2.89.8l7.4-17.8,1.07-2.56C313.83,33.31,310.93,32.53,310.2,34.29Z" transform="translate(-169.49 -19.1)"/><path class="cls-1" d="M183.07,35.7c-1.56,2-1.82,5.37-2.18,7.79-.53,3.64-.85,7.31-1.09,11-.45,7-.62,14-.6,21,0,1.07,0,2.13,0,3.2a3.79,3.79,0,0,0,.26,1.86,1.51,1.51,0,0,0,1.3.74c.66,0,.84-.34,1.3-.75.18-.48.2-.48.06,0l.31-.27a7.62,7.62,0,0,0,.94-.78,31.72,31.72,0,0,1,4.21-2.56,37.15,37.15,0,0,0,8.13-5.24c1.18-1.11-.09-2.75-1.46-2.51h0l1.7.69c.3.41.1.32,0,0s-.13-.53-.2-.8c-.23-.91-.44-1.82-.66-2.73-.66-2.77-1.3-5.54-1.94-8.32-1.1-4.77-2.14-9.57-3.27-14.34a16.87,16.87,0,0,0-2.23-4.86c-.66-1.06-1.79-3.27-3.19-3.51-1.55-.25-2.8,1.93-1.16,2.75h0c1.72.86,3.24-1.73,1.51-2.59h0l-1.15,2.74c-.37-.06-.43-.35-.08.06.15.18.31.35.45.54A21,21,0,0,1,185.52,41a12.72,12.72,0,0,1,1.57,3.63c.42,1.85.83,3.7,1.25,5.55q1.91,8.34,3.86,16.67c.24,1,.48,2,.73,3a4.53,4.53,0,0,0,.46,1.49,1.58,1.58,0,0,0,1.69.69h0l-1.46-2.5a34,34,0,0,1-7.51,4.77,37.7,37.7,0,0,0-3.73,2.21c-.59.42-1.17.86-1.73,1.33a7.82,7.82,0,0,0-.9.82c-.14.16-.72,1.13-.24.32l1.29-.74h0l1.29.74c.15.24.17,1,.17.41,0-.25,0-.5,0-.75,0-.87,0-1.74,0-2.61,0-2.88,0-5.76.07-8.64a211.38,211.38,0,0,1,1.31-21.64c.2-1.55.44-3.11.76-4.65.13-.65.29-1.31.47-1.95.09-.31.18-.62.28-.92s.48-.92.1-.43a1.55,1.55,0,0,0,0-2.12A1.51,1.51,0,0,0,183.07,35.7Z" transform="translate(-169.49 -19.1)"/><path class="cls-1" d="M202.31,319.91c3.85-3.23,3.52-10.11,1.45-14.18a10.49,10.49,0,0,0-1.15-1.79,5.07,5.07,0,0,1-.89-1.19,4.7,4.7,0,0,1,.52-2.88c.89-2.36,2.43-4.75,2.34-7.36-.12-3.32-2-6.41-2.55-9.67-.59-3.51,1.31-6.19,2.57-9.3a9.17,9.17,0,0,0,.63-4.83,41.18,41.18,0,0,0-.78-4.55c-.36-1.49-1-3.12-1-4.48a6.17,6.17,0,0,1,.6-1.85,10.57,10.57,0,0,0,.94-4.66,41.19,41.19,0,0,0-1.49-10.23,25.65,25.65,0,0,1-.67-3.58c0-.29,0-.58,0-.88s.24-.71-.16-.21a15.51,15.51,0,0,1,1.35-1.34,23.48,23.48,0,0,0,4-4.74c2.86-4.89.24-10.26-3.16-14.13-.93-1.07.09.05,0,.08v-.58c0-.5,0-1,0-1.48a6.85,6.85,0,0,0-.81-3.42,10.44,10.44,0,0,0-2-1.9,7.1,7.1,0,0,1-1.25-1.84c-2-3.79-2.69-8.41-3.15-12.61-.43-3.85-.88-8.31.28-12.08a14,14,0,0,1,2.34-3.45c1.65-2,3.39-3.95,5.15-5.86s3.7-3.92,5.66-5.77a11,11,0,0,0,2.36-2.64c.3-.56.47-1.53.94-2a10.39,10.39,0,0,1,1.82-.65c5-1.59,11.59-.92,15.39,3,.71.73,1.14,1.51,2.13,1.86a9.67,9.67,0,0,0,3,.42,51.46,51.46,0,0,0,7-.37c3.7-.36,7.41-.74,11.1-1.27a52.93,52.93,0,0,0,6.62-1.26c1.52-.43,3.36-1,3.88-2.68s-.2-3.68-.79-5.27c-.86-2.3-1.93-4.52-2.91-6.77a20.88,20.88,0,0,1-1.83-5.76,10.56,10.56,0,0,0-.5-2.28,2.76,2.76,0,0,0-.24-.7c-.11-.18-.08.16,0,0s-.13.56-.2.5a18.73,18.73,0,0,1,2-1.1,12.61,12.61,0,0,1,3.08-1.11c2.08-.39,4.17-.7,6.26-1.08,4.08-.76,8.92-1.57,12.2-4.31a5.1,5.1,0,0,0,2-4.29,1.53,1.53,0,0,0-1.9-1.45h0l1.15.15h0l.69.89c.12.34-.12.67,0,.29a4.09,4.09,0,0,0,.17-.69c.16-.69.3-1.38.41-2.08a17.11,17.11,0,0,0,0-5.8,12.78,12.78,0,0,0-3.16-6.19,33.08,33.08,0,0,0-8-6.2c-8.11-4.83-17.25-8-26.32-10.55a142.24,142.24,0,0,0-32.26-5.2c-9.28-.34-19.15.28-27.7,4.21-7.32,3.37-12.36,9.63-13.07,17.77a24.58,24.58,0,0,0-.07,3.21l.44-1.06a10.07,10.07,0,0,0-1.94,5,57.35,57.35,0,0,0-.69,7.4c-.09,2.25-.1,4.5-.05,6.74a11.33,11.33,0,0,0,.18,3.29,1.53,1.53,0,0,0,1.85,1.05h0a1.52,1.52,0,0,0,1.05-1.05,1.94,1.94,0,0,0-.71-2.15c-1.18-.69-2.11.29-2.35,1.35a25.44,25.44,0,0,0-.14,7.79,29.16,29.16,0,0,0,3.27,11.36c.45.82.88.89.42,1.64s-1.12,1.41-1.61,2.17a5.92,5.92,0,0,0-.41,5.25c.6,1.67,2,3.38,2,5.21,0,2-1.58,3.74-1.82,5.74s.79,3.43,2.09,4.89a2.5,2.5,0,0,1,.88,1.83,15.8,15.8,0,0,1-.68,3.79,29.31,29.31,0,0,0-1.4,6.73,8.79,8.79,0,0,0,1.71,5.12,14.67,14.67,0,0,0,3.18,3.35,3.67,3.67,0,0,0,1.11.66c.15,0,.71.15.87,0-.54.42-1.19-1-1.11-1.09a6.38,6.38,0,0,0-.58,1.2c-.39.71-.79,1.41-1.17,2.13a9.72,9.72,0,0,0-1.34,4.14c0,2,1.16,3.68,2.15,5.29a9.32,9.32,0,0,1,1.16,4.94c.09,2,.14,4,.36,5.93.18,1.59.7,3,1,4.56a4.61,4.61,0,0,0,1.16,2.68c.89.92,3,1.55,3.09,2.95s-.92,3.08-1.47,4.36a13.29,13.29,0,0,0-1.4,4.79c-.08,2.2,1.39,3.38,2.24,5.21.72,1.56-.87,3.48-1.48,4.86a7,7,0,0,0-.29,5.86c.72,1.69,2.42,3.33,2.19,5.27-.26,2.15-1.56,4.11-2.27,6.12a12,12,0,0,0-.28,6.67A38.77,38.77,0,0,0,185.9,288a32.13,32.13,0,0,1,1.92,6.73,6.66,6.66,0,0,1-.09,3.14,13.41,13.41,0,0,1-2,3.1,10.16,10.16,0,0,0-2.2,5.59c0,1.21.37,2.23.42,3.45a47.23,47.23,0,0,1-.09,5.32c-.15,2-.76,4-1,6a25.66,25.66,0,0,0,0,6.13c.11,1,.24,2,.44,3l.69-1.69-2.9,2.18c-.81.61-2.24,1.35-2.59,2.35a28.34,28.34,0,0,0-.71,3.58l-.67,3.36,1.44-1.1c-1.44-.13-2.63,1.75-3.34,2.72a34.61,34.61,0,0,0-3.45,6,23.58,23.58,0,0,0-2.25,7.17c-.11,1-.23,2.12.55,2.91a23.5,23.5,0,0,0,2.29,1.92c9.05,7.13,19.72,12.4,30.45,16.48a119.63,119.63,0,0,0,23.8,6.43c1.54.24,2.82-1.93,1.16-2.74a58.31,58.31,0,0,1-15.47-11.39,82.23,82.23,0,0,1-7.06-8.1,35.82,35.82,0,0,0-3.33-4.21c-2.58-2.48-4.56-5.9-4.34-9.58a9.9,9.9,0,0,1,1-3.69c.66-1.34,1.7-2.38,2.44-3.65a9.6,9.6,0,0,0,.77-5.65c-.24-2.6-.81-5.15-1-7.75-.17-2.11-.27-4.6,1.5-6.09l-1.06.44h0c1.93.08,1.93-2.92,0-3-1,0-2,1.3-2.44,2.09a8.61,8.61,0,0,0-1,3.21,27.56,27.56,0,0,0,.51,7.52c.32,2.12.86,4.45.49,6.59a6.34,6.34,0,0,1-1.53,2.68,15,15,0,0,0-2.16,4.32c-1.47,4.79.3,9.63,3.42,13.33.63.74,1.41,1.37,2,2.1,1.25,1.43,2.28,3.13,3.47,4.63s2.41,2.94,3.69,4.35a63.16,63.16,0,0,0,18.53,14.44l1.16-2.75a123.54,123.54,0,0,1-48.05-18.67,58,58,0,0,1-7.32-5.52l.44,1.06c-.22-3.18,1.35-6.47,2.79-9.21a35.22,35.22,0,0,1,2.4-3.95,10.19,10.19,0,0,1,1-1.19c.11-.12.38-.43.35-.35s-.05,0,.05,0c.26.05-.77.11-.47.13a1.5,1.5,0,0,0,1.45-1.1l1.39-7-.69.9,4.8-3.6a1.61,1.61,0,0,0,.69-1.7A22.51,22.51,0,0,1,186,321a36.78,36.78,0,0,0,1-10.83,29.61,29.61,0,0,0-.39-3c-.26-2,1.12-3.77,2.21-5.29a9.09,9.09,0,0,0,2.13-6,26.11,26.11,0,0,0-1.37-6.53c-1.24-3.85-4.13-7.95-3.12-12.16.94-3.93,4-7.37,2-11.49-.82-1.65-2.39-3.24-1.92-5.21s1.72-3.34,2.22-5.15a5.51,5.51,0,0,0-1.12-4.88,4.89,4.89,0,0,1-1.1-2.19,5.08,5.08,0,0,1,.38-2.1c.91-2.74,3.28-5.84,2.26-8.86-.58-1.72-2.22-2.28-3.47-3.39-.66-.59-.48-1-.75-2a26.49,26.49,0,0,1-.93-4.59c-.14-1.84-.18-3.69-.28-5.53a11.21,11.21,0,0,0-1.07-4.84c-.75-1.41-2.4-3-2.19-4.78.29-2.45,2.5-4.28,3-6.65a2,2,0,0,0-1.91-2.49c-1.23,0,.25.14.26.16s-.37-.25-.43-.29a10,10,0,0,1-1.23-1.13,8.1,8.1,0,0,1-2.33-4c-.37-2.08.59-4.44,1.13-6.42s1.26-4.29.79-6.26c-.4-1.71-2-2.52-2.72-4s.86-3.73,1.34-5.22a7.19,7.19,0,0,0-.54-5.34c-.64-1.42-2-3.26-1.5-4.91s2.09-2.46,2.53-4c.5-1.8-1-3.31-1.68-4.84a24.82,24.82,0,0,1-1.71-5.47,32.67,32.67,0,0,1-.53-9l.06-.62c0-.42,0-.08,0-.28a2.83,2.83,0,0,0,.07-.36s0-.07,0-.09c.06.17-.58.76-.63.78H173c-1-.7-.7-1.69-.71-1,0,.19-.08.27,0-.26l1-1h0l1.85,1.05c.11.3,0,.32,0-.07s0-.76-.05-1.14c0-1.22-.06-2.44-.07-3.66a80,80,0,0,1,.46-9.55,20.75,20.75,0,0,1,.79-3.9c.36-1.12,1-1.5,1-2.91a20.08,20.08,0,0,1,.92-6.67,17.38,17.38,0,0,1,7.06-9,34.83,34.83,0,0,1,13.11-4.86c11.4-2.11,23.44-1,34.76,1a133.19,133.19,0,0,1,33.25,10.24,52.27,52.27,0,0,1,11,6.64,22,22,0,0,1,1.86,1.75q.39.41.75.84c.06.08.35.45.14.17l.34.47c2.18,3.19,1.85,6.89,1,10.47-.3,1.31-.07,3,1.78,2.68l-1.9-1.45c.11,1.32-1,2.17-2.29,2.89a24.86,24.86,0,0,1-6,2c-2.23.52-4.48.92-6.74,1.3a22,22,0,0,0-5.68,1.34c-1.44.66-4,1.42-4.53,3.17-.36,1.24.52,2.54.68,3.76.57,4.42,2.87,8.28,4.51,12.38a21.74,21.74,0,0,1,1,2.95,5.52,5.52,0,0,1,.16,1c0,.36,0,.4-.08.51.08-.12.14-.12-.14,0a4.84,4.84,0,0,1-.78.32,24.8,24.8,0,0,1-3.08.78c-4,.81-8.08,1.22-12.13,1.64-1.8.18-3.6.39-5.4.51s-4.33.5-6.19-.14c.22.08-.31-.24.1.12a8.08,8.08,0,0,1-.63-.79,11.4,11.4,0,0,0-1.36-1.33,14.74,14.74,0,0,0-3.35-2.1,19.82,19.82,0,0,0-8.14-1.71,17.93,17.93,0,0,0-8.45,1.92c-1.29.71-1.42,2.16-2.18,3.3A19.92,19.92,0,0,1,208,168a123.27,123.27,0,0,0-10.44,11.47,13.24,13.24,0,0,0-2.44,3.95,18.92,18.92,0,0,0-.72,5.2,57.52,57.52,0,0,0,1.33,14c.74,3.47,1.76,8.12,4.62,10.53.71.59,1.29.9,1.48,1.91a25.51,25.51,0,0,1,0,3c.07,1.26.86,1.9,1.59,2.87a16.19,16.19,0,0,1,2.46,4.26c1.49,4.27-1.58,7.15-4.39,9.91-1,1-1.63,1.58-1.68,3a16.59,16.59,0,0,0,.42,3.78c.63,3.13,1.56,6.2,1.74,9.4.08,1.56.22,3.51-.5,4.93a8.93,8.93,0,0,0-.91,2.55,11.21,11.21,0,0,0,.64,4.83c.69,2.56,1.66,5.75.76,8.31-1.08,3.07-3.09,5.71-3.11,9.1s1.6,6.75,2.44,10.1c.64,2.53-.66,4.69-1.62,7-.85,2.05-1.68,4.54-.29,6.55a15.14,15.14,0,0,1,2.16,3.41,11.26,11.26,0,0,1,.66,3.9c0,2-.43,4.39-2,5.74S200.85,321.15,202.31,319.91Z" transform="translate(-169.49 -19.1)"/></g><g id="path737212"><path class="cls-3" d="M194.19,61.78a142,142,0,0,0-3.27-15.13c-.48-1.86-3.38-1.07-2.89.8a139.87,139.87,0,0,1,3.26,15.12,1.51,1.51,0,0,0,1.85,1,1.54,1.54,0,0,0,1.05-1.84Z" transform="translate(-169.49 -19.1)"/><path class="cls-3" d="M205.42,54.42c-2.86-4.52-6.45-8.54-9.11-13.19-1.92-3.37-3.71-9.51-8.61-9.1-4,.34-6.15,3.48-7.06,7.07-1.23,4.85-1.18,10-1.21,15-.05,6.92.08,13.85-.6,20.74-.19,1.92,2.81,1.91,3,0,.56-5.63.57-11.3.58-17A117.9,117.9,0,0,1,183,43c.36-2.68.81-6.09,3.49-7.4a2.77,2.77,0,0,1,4,1.16c1.13,1.76,2,3.7,3,5.52,2.71,4.85,6.43,9,9.39,13.7,1,1.63,3.63.12,2.59-1.51Z" transform="translate(-169.49 -19.1)"/><path class="cls-3" d="M302.38,90.83C305.79,88,307.56,83,309,79a82.61,82.61,0,0,0,4.11-16.62,38.15,38.15,0,0,0,.45-7.92c-.15-1.91-3.15-1.93-3,0,.35,4.72-.59,9.56-1.65,14.13a67.06,67.06,0,0,1-5.12,15.1,15.1,15.1,0,0,1-3.53,5c-1.49,1.23.64,3.35,2.12,2.12Z" transform="translate(-169.49 -19.1)"/><path class="cls-3" d="M310.35,31.19a161.27,161.27,0,0,0-6.36,15,50.06,50.06,0,0,0-2.16,10.27c-.72,5.64-1.29,11.3-2,17-.63,5.23-1.33,10.45-2.06,15.67A1.57,1.57,0,0,0,298.85,91a1.51,1.51,0,0,0,1.84-1q1.67-11.91,3-23.86c.29-2.57.58-5.15.89-7.72a55.46,55.46,0,0,1,1.6-9.24,126.28,126.28,0,0,1,6.74-16.39c.82-1.74-1.77-3.26-2.59-1.52Z" transform="translate(-169.49 -19.1)"/><path class="cls-3" d="M313.3,100.52c-.42-4.25.34-8.68,1-12.86.74-4.48,1.72-8.9,2.75-13.31.53-2.28.82-4.59,1.53-6.84.48-1.53,1.1-3,1.49-4.57a21.61,21.61,0,0,0,.57-5.61c0-1.37-.26-2.75-.26-4.12,0-1.74.32-3.53.41-5.28.32-5.64.24-11.64-2-16.93-1.38-3.23-1.65-7.53-4.21-10.13-3.08-3.15-7.37-.52-9.52,2.31-3.15,4.14-4.93,9.22-7.76,13.58-3.26,5-7.59,9-12.16,12.76a42.16,42.16,0,0,0-10.3,12.17,1.5,1.5,0,0,0,2.59,1.51,37.86,37.86,0,0,1,8.73-10.65,80.78,80.78,0,0,0,10.06-9.42c3.65-4.3,6.14-9.15,8.77-14.1A21.85,21.85,0,0,1,308.33,24c.84-.86,2.41-2,3.67-1.36s1.67,2.4,2.05,3.55c.55,1.7,1,3.46,1.63,5.12,2.05,5,2.44,10.16,2.2,15.55-.06,1.51-.17,3-.3,4.53a37.83,37.83,0,0,0,.05,4.88,20.68,20.68,0,0,1-.32,5.5c-.33,1.46-.89,2.85-1.36,4.27a40.56,40.56,0,0,0-1.52,6.24c-.35,2.18-1,4.34-1.44,6.51q-.84,3.85-1.49,7.76c-.76,4.54-1.65,9.39-1.2,14,.19,1.9,3.19,1.92,3,0Z" transform="translate(-169.49 -19.1)"/><path class="cls-3" d="M322,120.71c-.45,2.81-1.51,5.52-2.16,8.29a11.76,11.76,0,0,0-.43,3.77,30.26,30.26,0,0,0,1.37,5.71,17.07,17.07,0,0,1,1,5.78,7.53,7.53,0,0,1-2,4.17,11.24,11.24,0,0,0-2.19,3.84c-.35,1.53.36,2.83.82,4.25,1,3.24,2.22,7.81,0,10.8-1.16,1.55,1.44,3,2.59,1.52,2.1-2.79,1.8-6.7,1.16-9.92a32.52,32.52,0,0,0-1.4-4.83c-.5-1.35.27-2.27,1.07-3.37a17.26,17.26,0,0,0,2.53-4.08,11,11,0,0,0,.16-5.59c-.56-3.25-2.65-6.68-2.06-10s1.89-6.27,2.41-9.5c.3-1.89-2.59-2.7-2.89-.8Z" transform="translate(-169.49 -19.1)"/><path class="cls-3" d="M173.59,121.37c.18,2-.6,4.07-1.22,6a35,35,0,0,0-1.76,6.57,16.82,16.82,0,0,0,3.12,11.67l-.39-1.46c-.88,2.9-1.8,6.1-1.28,9.16a18.29,18.29,0,0,0,1.82,4.36,9.09,9.09,0,0,1,.64,2.32c.12,1-.41,1.26-.88,2.22a12.17,12.17,0,0,0-.93,2.55,9.25,9.25,0,0,0,2.53,8.65c1.36,1.38,3.48-.75,2.12-2.12a6.2,6.2,0,0,1-1.91-4.45,7.48,7.48,0,0,1,.78-3.11c.56-1.18,1.44-2,1.32-3.36-.2-2.42-1.18-4.19-2.16-6.32-1.11-2.42,0-5.89.71-8.65.33-1.29-.2-1.72-.8-2.77a12.48,12.48,0,0,1-1.13-3,15.7,15.7,0,0,1-.62-5.14c.33-4.47,3.43-8.55,3-13.12-.16-1.91-3.16-1.92-3,0Z" transform="translate(-169.49 -19.1)"/><path class="cls-3" d="M266.84,189.28a20.31,20.31,0,0,0,2.06,10.27,22.26,22.26,0,0,0,2.73,4.44,20.34,20.34,0,0,0,1.64,1.84,3.38,3.38,0,0,0,.86.74c.29.13,0,.36,0-.27l.74-1.3h1.5c.44.2.12.07-.12-.2s-.49-.59-.75-.88a7.77,7.77,0,0,0-1.85-1.63,2.13,2.13,0,0,0-2.64.26,15.26,15.26,0,0,0-2.62,3.87,14,14,0,0,0,1,14.11,25.88,25.88,0,0,0,3.25,4,4.91,4.91,0,0,0,.9.92c-.5-.26.4-.91.66-1.26.91-1.21,1.1-1.05.16-1.22a6.56,6.56,0,0,0-1.4-.11c-4.51.23-3.55,5.55-2.46,8.4a33.47,33.47,0,0,0,3.41,6.59,16.19,16.19,0,0,0,4.08,4.6c1.6,1.08,3.1-1.52,1.51-2.59a3.77,3.77,0,0,1-.65-.56c-.35-.35-.68-.73-1-1.11a24.59,24.59,0,0,1-1.87-2.67,26.7,26.7,0,0,1-3.09-6.55,7,7,0,0,1-.38-2.49,1.37,1.37,0,0,1,.2-.58c-.09.16,0,0,.2,0a.71.71,0,0,1,.3,0,4.8,4.8,0,0,1,.56.06c.59.08,1.11.28,1.67,0a1.61,1.61,0,0,0,.21-2.55c-.92-1.06-2-2-2.85-3.11a13.72,13.72,0,0,1-2.87-6.31,11.62,11.62,0,0,1,2.73-8.62,5.2,5.2,0,0,0,.51-.65c.26-.49-.43.2-.72.29s-.37-.21-.14.09c.08.11.62.58.87.84a14.89,14.89,0,0,0,1.34,1.51c1.53,1.29,3.08-.48,2.32-2a7.45,7.45,0,0,0-1.7-1.85,15.22,15.22,0,0,1-1.9-2.33,18.49,18.49,0,0,1-3.4-11.85c.19-1.92-2.81-1.91-3,0Z" transform="translate(-169.49 -19.1)"/><path class="cls-3" d="M285.59,165.91a22.87,22.87,0,0,0-11.18.09,27.16,27.16,0,0,0-3.93,1.59,12.78,12.78,0,0,0-3.3,1.77c-1.81,1.73.35,3.32,2,3.79a22,22,0,0,0,4.1.73c1.95.18,1.87-2.76,0-3-.21,0-.43,0-.64-.06l1.5,1.5c0-2.49-3.16-2.85-5-2.82a17.05,17.05,0,0,0-8.2,2.2,7.22,7.22,0,0,0-3.87,7.16c.43,3.74,3,6.66,6,8.74a20.66,20.66,0,0,0,11.11,3.87,1.5,1.5,0,0,0,0-3,16.66,16.66,0,0,1-7.49-2.18c-2.46-1.31-5-3.19-6.12-5.81-.91-2-.77-4.16,1-5.61a12.27,12.27,0,0,1,5.93-2.25,13.12,13.12,0,0,1,2.83-.08c.2,0,.39.08.59.12s.55.11.24.06c.29,0,.09.12.06,0,0,0-.13-.47-.13-.37a1.54,1.54,0,0,0,1.5,1.5c.21,0,.43,0,.64.06v-3a1,1,0,0,1-.24,0c-.4-.16,0,0-.35,0-.64-.1-1.27-.21-1.9-.35l-1-.24c-.14-.05-.29-.09-.42-.15s.1-.06-.12,0,0-.32,0,0a.66.66,0,0,1,.19.63.76.76,0,0,1-.2.9s0,0,.11-.06a3.43,3.43,0,0,0,.67-.32,30.33,30.33,0,0,1,6-2.51,20.19,20.19,0,0,1,8.75.14c1.88.38,2.69-2.52.8-2.89Z" transform="translate(-169.49 -19.1)"/><path class="cls-3" d="M188.86,300.18c.44-2.74,1.33-5.56,1.38-8.35s-2.3-4.41-3.29-6.76a11.91,11.91,0,0,1-.45-7.68c.52-1.91,1.44-3.67,2-5.56.7-2.25.84-4.28-.53-6.29a8.27,8.27,0,0,1-1.65-2.85,5.92,5.92,0,0,1,.44-3.42c.79-1.78,2.3-3.3,2.3-5.38,0-2.25-2-4.06-2.75-6.06s.41-3.75,1.09-5.49c.56-1.4,1.74-3.58,1.26-5.16-.31-1-1.87-1.93-2.57-2.75a10.46,10.46,0,0,1-1.68-2.67,18.38,18.38,0,0,1-1.24-6.23c-.09-1.25-.14-2.52-.2-3.78a17.63,17.63,0,0,0-.38-4.11c-.66-2.21-3.05-3.68-3-6.1a7,7,0,0,1,1.19-3.8c.66-1,1.81-1.75,1.16-3.06a10.69,10.69,0,0,0-1.1-1.5,24.32,24.32,0,0,1-2.07-3.14c-1.43-2.69-1.35-6.07-.67-9,.18-.75.4-1.49.65-2.21a8.3,8.3,0,0,0,.8-2.42c0-.84-.7-1.48-1.21-2.09a11.48,11.48,0,0,1-1.92-2.91,2.71,2.71,0,0,1,0-2.47c1.18-2.17,2.67-4.74,1.32-7.17-.94-1.69-3.53-.18-2.59,1.51s-1.35,3.76-1.82,5.16c-.71,2.14.33,4.52,1.55,6.25a15.59,15.59,0,0,0,1.75,2.21c.34.35,0,.06,0,.05l.06.09c-.16-.71-.3-.76-.42-.17a7.59,7.59,0,0,0-.78,2.28,20.43,20.43,0,0,0-.6,8.93,15.48,15.48,0,0,0,3.19,6.39c.24.32.86,1.49,1.23,1.65l0-1.4-.25.29a5.51,5.51,0,0,0-.69.9,10.22,10.22,0,0,0-1.06,2,8.12,8.12,0,0,0,.57,7.78,19.46,19.46,0,0,1,1.71,2.54c.51,1.1.33,2.72.39,3.93.22,4.5.28,9.36,3,13.18a16.14,16.14,0,0,0,2.1,2.42,7.74,7.74,0,0,0,.78.69l-.13-.59c0,.16,0,.19,0,.07a5.65,5.65,0,0,0-.35,1.27c-.63,1.92-1.55,3.75-2.12,5.69-.69,2.32.26,4.39,1.43,6.37.44.74,1.31,1.74,1.36,2.64a4.54,4.54,0,0,1-.91,2.16,10.6,10.6,0,0,0-1.89,6.13,6.64,6.64,0,0,0,1.15,3.52c.54.83,1.51,1.76,1.65,2.77.27,2-1.14,4.38-1.83,6.18a15.49,15.49,0,0,0-1.09,7.52,14.49,14.49,0,0,0,1.32,4.75c.73,1.42,2,2.57,2.58,4.05a6.75,6.75,0,0,1-.16,3.32c-.31,1.71-.68,3.41-.95,5.12-.3,1.89,2.59,2.71,2.89.8Z" transform="translate(-169.49 -19.1)"/><path class="cls-3" d="M318,168.65a17.91,17.91,0,0,0,1.17,3.75c.6,1.8,1.22,3.61,1.65,5.45a6,6,0,0,1,.06,2.67c-.24,1.71-.8,3.37-1,5.08a6.41,6.41,0,0,0-.09,2.05c.18.9.67,1.82.93,2.71a23.57,23.57,0,0,1,1,5,16.09,16.09,0,0,1-.32,4.8,8.62,8.62,0,0,1-2.07,3.58,13.8,13.8,0,0,0-2,2.94,2.2,2.2,0,0,0-.18,2c.22.61.56,1.21.83,1.82a20.48,20.48,0,0,1,2.07,6.18,11.74,11.74,0,0,1-1.5,6.67c-.62,1.19-2.22,2.8-2,4.19a34.19,34.19,0,0,1,.84,4.31,7.35,7.35,0,0,1-1.3,4.41,14.3,14.3,0,0,0-1.88,2.7c-.85,2.17.69,4.94,1.64,6.85a26.55,26.55,0,0,1,1.79,4,6.45,6.45,0,0,1-.11,4.05,17.53,17.53,0,0,0-.9,3.63,6.19,6.19,0,0,0,1.06,3.7c1.41,2.31,3.59,4,4.93,6.39,1,1.79.7,4.24.52,6.21-.1,1.12-.24,2.23-.36,3.35a6.9,6.9,0,0,0-.05,2.44c.25,1,1.29,1.9,1.85,2.71a28,28,0,0,1,1.75,2.93c2.85,5.51,3.2,11.8,2.6,17.88-.18,1.92,2.82,1.91,3,0,.63-6.44.12-13-2.75-18.88a27.69,27.69,0,0,0-1.93-3.33c-.34-.5-.69-1-1-1.46a8.52,8.52,0,0,0-.57-.74c-.4-.38.11.12,0,.28a3.8,3.8,0,0,0,0-1c0-.54.11-1.09.17-1.63.15-1.32.31-2.65.38-4,.15-2.76-.13-5.23-1.8-7.51-1-1.37-2.18-2.59-3.23-3.91-.82-1-1.76-2.24-1.56-3.61.24-1.59,1-3.08,1.22-4.69a9.22,9.22,0,0,0-.81-4.95c-.65-1.58-1.51-3.07-2.21-4.63a10.22,10.22,0,0,1-.78-2.34c0-.14-.14-1-.13-.5,0-.29,0,0,0-.12a13.93,13.93,0,0,1,1.08-1.47A11.33,11.33,0,0,0,319.5,236c1.27-3,.8-6.32-.16-9.34l-.15,1.16c2.24-3.25,4.14-7,3.79-11.09-.29-3.44-1.91-6.55-3.32-9.65l.15,1.16c.62-1.68,2.13-2.92,3.13-4.37a11.56,11.56,0,0,0,1.74-5.94,23,23,0,0,0-.7-7.05c-.3-1.22-.86-2.4-1.12-3.62a8.13,8.13,0,0,1,.4-3.41,15.7,15.7,0,0,0,.66-6,25.73,25.73,0,0,0-.9-3.45c-.42-1.36-.87-2.7-1.33-4-.16-.49-.33-1-.5-1.47-.07-.22-.24-1.08-.16-.31-.19-1.91-3.19-1.93-3,0Z" transform="translate(-169.49 -19.1)"/><path class="cls-3" d="M186.12,299c-1.22,2.45-2.67,4.88-3.31,7.57a11.7,11.7,0,0,0,1.23,8.45v-1.52c-1.44,2.45-1.12,5.38-.73,8.07.19,1.39.47,2.76.61,4.16a7.15,7.15,0,0,1-.18,3.38l1.3-.74a5.61,5.61,0,0,0-2.49,1,13.39,13.39,0,0,0-3.19,2.24c-1.12,1.15-1.33,2.69-1.86,4.15a17,17,0,0,1-1.63,3.45,35,35,0,0,0-3.58,6.52c-1.09,3-1.32,6.2-2,9.28-.42,1.88,2.47,2.68,2.89.8.63-2.83.87-5.77,1.75-8.54a23.92,23.92,0,0,1,3.24-6.09,17.3,17.3,0,0,0,1.34-2.42c.3-.67.57-1.34.82-2a17.84,17.84,0,0,1,.86-2.65,6.51,6.51,0,0,1,2.18-1.72c.43-.26.88-.5,1.34-.73-.05,0,.51-.27.32-.15.22-.14.55,0,0-.07a1.43,1.43,0,0,0,1.29-.74c1.95-4.51-1-9.29-.29-13.92.18-1.16,1-2,.59-3.21-.63-1.67-1.3-3-1.14-4.86.25-2.93,1.95-5.56,3.22-8.13.86-1.72-1.73-3.24-2.59-1.51Z" transform="translate(-169.49 -19.1)"/><path class="cls-3" d="M328.83,303c-.4,4.19-1.06,8.91,1.07,12.76,1.75,3.15,5.08,5.53,5.79,9.2s-.79,7.7-.19,11.53c.47,3,2.46,5.67,4.12,8.15a17.69,17.69,0,0,1,3.05,10.26,1.5,1.5,0,0,0,3,0,20.07,20.07,0,0,0-2.4-10.08c-1.38-2.43-3.21-4.56-4.31-7.15-1.49-3.48,0-7.54-.13-11.18-.1-4.12-2.39-6.92-4.82-10a10.46,10.46,0,0,1-2.49-5.45,42.2,42.2,0,0,1,.31-8c.19-1.92-2.81-1.91-3,0Z" transform="translate(-169.49 -19.1)"/></g></g></g></svg>