<svg width="151" height="137" viewBox="0 0 151 137" fill="none" xmlns="http://www.w3.org/2000/svg">
<path d="M28.223 121.003L19.62 113.582L12.4161 104.836L6.77982 94.9691L2.87986 84.1873L0.884766 72.696L0.96315 60.7005L1.32342 57.6751L1.81611 54.697L2.43765 51.7692L3.18442 48.8946L4.05277 46.0763L5.03912 43.3171L6.13982 40.62L7.35131 37.988L8.66992 35.424L9.46574 34.423L10.6116 32.5921L12.1616 30.0924L14.1701 27.0849L16.6914 23.7307L19.7795 20.1909L23.4889 16.6264L27.8737 13.1982L32.9881 10.0675L40.6985 6.45426L47.9751 3.91338L54.7152 2.27499L60.8165 1.36916L66.1764 1.026L70.6922 1.07556L74.2616 1.34796L76.7819 1.67329L78.1505 1.8816L63.4085 5.45805L51.2752 10.7021L41.4935 17.2522L33.806 24.7469L27.9553 32.8246L23.6841 41.1238L20.7351 49.283L18.8509 56.9407L17.7743 63.7353L17.4271 68.3517L17.4641 72.8504L17.8258 77.1818L18.4529 81.2964L19.2856 85.1444L20.2646 88.6762L21.3303 91.8422L22.4233 94.5928L23.4841 96.8784L25.4449 100.618L28.2172 105.233L31.8877 110.399L36.5431 115.794L42.2702 121.095L49.1559 125.978L57.2868 130.121L66.7497 133.2L77.6314 134.893L75.7547 134.711L73.8779 134.529L72.0011 134.347L70.1243 134.165L68.2476 133.984L66.3708 133.802L64.494 133.62L62.6172 133.438L60.7404 133.256L48.9518 131.045L38.0565 126.892L28.223 121.003Z" fill="#FED31A"/>
<path d="M85.0322 134.334L85.0632 134.507L85.0943 134.68L85.1253 134.853L85.1564 135.026L85.1874 135.199L85.2185 135.372L85.1874 135.199L85.1564 135.026L85.1253 134.853L85.0943 134.68L85.0632 134.507L85.0322 134.334L85.0011 134.161L84.97 133.988L84.939 133.815L84.97 133.988L85.0011 134.161L85.0322 134.334Z" fill="black"/>
<path d="M6.56965 49.1648L6.53083 49.1265L6.49756 49.0833L6.47057 49.0361L6.45045 48.986L6.43791 48.9339L6.43359 48.8808L6.44981 48.8292L6.4716 48.7811L6.49866 48.7374L6.53065 48.6986L6.56723 48.6653L6.60811 48.6383L6.65292 48.6182L6.70134 48.6056L6.75304 48.6013L8.20832 48.6901L9.6636 48.7788L11.1189 48.8675L12.5742 48.9563L14.0294 49.045L15.4847 49.1337L16.94 49.2225L18.3953 49.3112L19.8505 49.4L19.9922 49.4248L20.1234 49.4713L20.2425 49.5375L20.3477 49.6215L20.4375 49.7212L20.5101 49.8347L20.5641 49.9601L20.5977 50.0954L20.6092 50.2385L20.5844 50.3802L20.5379 50.5114L20.4717 50.6304L20.3877 50.7356L20.288 50.8254L20.1744 50.8981L20.049 50.9521L19.9138 50.9856L19.7707 50.9972L19.7411 50.9691L19.6908 50.9573L18.2489 50.7665L16.8069 50.5757L15.3649 50.3849L13.9229 50.1941L12.481 50.0034L11.039 49.8126L9.59704 49.6218L8.15508 49.431L6.71311 49.2402L6.66146 49.2226L6.61343 49.1972L6.56965 49.1648Z" fill="#EA9C00"/>
<path d="M4.49347 73.7228L4.45464 73.6845L4.4214 73.6413L4.3944 73.594L4.37429 73.5439L4.36175 73.4918L4.35742 73.4387L4.37364 73.387L4.39543 73.339L4.42249 73.2953L4.45449 73.2566L4.49107 73.2233L4.53193 73.1964L4.57674 73.1764L4.62516 73.1639L4.67687 73.1595L6.09222 73.2438L7.50757 73.3281L8.92291 73.4123L10.3383 73.4966L11.7536 73.5808L13.1689 73.6651L14.5843 73.7493L15.9996 73.8336L17.415 73.9178L17.5567 73.9428L17.6879 73.9893L17.8069 74.0556L17.9121 74.1396L18.0019 74.2393L18.0746 74.3529L18.1285 74.4783L18.1621 74.6136L18.1737 74.7568L18.1489 74.8984L18.1024 75.0295L18.0361 75.1484L17.9522 75.2536L17.8524 75.3434L17.7389 75.416L17.6135 75.47L17.4783 75.5035L17.3351 75.5151H17.2908H17.2553L15.8532 75.3243L14.4512 75.1335L13.0491 74.9427L11.6471 74.752L10.2451 74.5612L8.84304 74.3704L7.44101 74.1796L6.03897 73.9888L4.63694 73.7981L4.58529 73.7806L4.53725 73.7551L4.49347 73.7228Z" fill="#EA9C00"/>
<path d="M13.0784 99.3984L13.0396 99.3602L13.0064 99.317L12.9794 99.2699L12.9593 99.2198L12.9467 99.1678L12.9424 99.1149L12.9586 99.0631L12.9804 99.015L13.0074 98.9711L13.0394 98.9323L13.076 98.899L13.1169 98.8719L13.1617 98.8519L13.2101 98.8393L13.2618 98.835L14.5574 98.906L15.8529 98.977L17.1485 99.0479L18.444 99.119L19.7396 99.1899L21.0351 99.2609L22.3307 99.3319L23.6262 99.4029L24.9218 99.4739L25.0635 99.4987L25.1947 99.5452L25.3137 99.6114L25.4189 99.6954L25.5087 99.7951L25.5814 99.9087L25.6353 100.034L25.6689 100.169L25.6805 100.312L25.6557 100.454L25.6092 100.585L25.5429 100.704L25.459 100.81L25.3592 100.899L25.2457 100.972L25.1203 101.026L24.9851 101.06L24.8419 101.071H24.802L23.5153 100.894L22.2287 100.716L20.942 100.539L19.6553 100.361L18.3686 100.184L17.0819 100.006L15.7953 99.8288L14.5086 99.6513L13.2219 99.4739L13.1702 99.4563L13.1222 99.4308L13.0784 99.3984Z" fill="#EA9C00"/>
<path d="M38.0993 120.717L37.8197 120.677L37.5402 120.638L37.2607 120.598L36.9812 120.558L36.7017 120.518L36.4221 120.478L35.8632 120.4L35.3045 120.324L34.7465 120.25L34.1895 120.178L33.6338 120.109L33.0797 120.04L32.5277 119.972L31.9779 119.905L31.4307 119.839L31.3777 119.821L31.3264 119.796L31.2784 119.763L31.2353 119.725L31.1987 119.682L31.1704 119.635L31.152 119.585L31.145 119.533L31.1512 119.48L31.1675 119.428L31.1897 119.38L31.2177 119.336L31.2518 119.297L31.2917 119.264L31.3375 119.237L31.3893 119.217L31.447 119.205L31.5106 119.2L32.0696 119.24L32.6287 119.28L33.1877 119.318L33.7467 119.356L34.3058 119.393L34.8648 119.428L35.4239 119.461L35.9829 119.492L36.5419 119.52L36.8215 119.533L37.101 119.546L37.3805 119.559L37.66 119.573L37.9395 119.586L38.2191 119.599L38.4986 119.613L38.7781 119.626L39.0576 119.639L39.3371 119.654L39.6166 119.669L39.8962 119.685L40.1757 119.698L40.4552 119.708L40.7347 119.713L41.0143 119.711L41.2938 119.7L41.5733 119.679L41.7178 119.679L41.8567 119.703L41.9874 119.75L42.1073 119.818L42.2136 119.904L42.3039 120.007L42.3754 120.126L42.4256 120.256L42.4518 120.398L42.4521 120.543L42.4278 120.681L42.3808 120.812L42.3131 120.932L42.2266 121.038L42.1235 121.128L42.0055 121.2L41.8747 121.25L41.733 121.276L41.6932 121.287L41.6147 121.294L41.5402 121.29L41.4723 121.281L41.4136 121.277L41.1341 121.202L40.855 121.138L40.5765 121.083L40.299 121.034L40.0228 120.991L39.7483 120.951L39.4757 120.913L39.2055 120.876L38.9378 120.837L38.6583 120.797L38.3788 120.757L38.0993 120.717Z" fill="#EA9C00"/>
<path d="M57.5954 131.709L52.2502 129.379L47.1367 126.594L42.2796 123.368L37.7034 119.712L33.4328 115.641L29.4925 111.167L25.9533 106.367L22.8748 101.332L20.2654 96.0858L18.1331 90.6566L16.4863 85.0706L15.3331 79.3545L14.6818 73.5349L14.5405 67.6383L14.9175 61.6915L15.0063 61.7004L15.095 61.7093L15.1838 61.7182L15.2725 61.727L15.3612 61.7359L15.45 61.7448L15.5387 61.7536L15.6274 61.7625L15.7162 61.7714L15.6274 61.7625L15.5387 61.7536L15.45 61.7448L15.3612 61.7359L15.2725 61.727L15.1838 61.7182L15.095 61.7093L15.0063 61.7004L14.9175 61.6915L17.2856 49.7805L21.6139 38.7858L27.6911 28.8783L35.3065 20.2288L44.249 13.0084L54.3076 7.38778L65.2713 3.53799L76.9292 1.62988L89.0701 1.83437L100.981 4.20248L111.976 8.53067L121.883 14.608L130.533 22.2234L137.753 31.1658L143.374 41.2245L147.224 52.1882L149.132 63.846L148.927 75.9869L146.782 87.1505L142.91 97.5213L137.485 106.96L130.678 115.329L122.662 122.487L113.61 128.297L103.695 132.619L93.0879 135.314L81.9624 136.243L81.1637 136.239L80.3651 136.225L79.5665 136.202L78.7678 136.169L77.9692 136.126L77.1706 136.072L76.3719 136.007L75.5733 135.931L74.7747 135.844L68.8823 134.954L63.1476 133.572L57.5954 131.709Z" fill="#EA9C00"/>
<path d="M18.6826 79.124L19.8077 84.7048L21.4146 90.1577L23.495 95.4575L26.0408 100.579L29.0438 105.496L32.4957 110.185L36.3398 114.547L40.5083 118.519L44.9765 122.089L49.7198 125.241L54.7136 127.962L59.9332 130.239L65.3539 132.057L70.9511 133.403L76.7002 134.263L77.4854 134.339L78.2702 134.405L79.0544 134.463L79.8376 134.512L80.6196 134.552L81.3999 134.583L82.1782 134.605L82.9543 134.618L83.7277 134.623L94.5908 133.715L104.946 131.083L114.624 126.863L123.459 121.19L131.282 114.201L137.925 106.032L143.22 96.8186L147 86.6972L149.095 75.8038L149.289 63.9505L147.423 52.5672L143.665 41.8606L138.179 32.0375L131.131 23.3044L122.687 15.8683L113.013 9.93571L102.274 5.71343L90.6359 3.40821L89.8521 3.33278L89.0709 3.26623L88.292 3.20854L87.5151 3.15976L86.7397 3.11983L85.9656 3.08876L85.1925 3.06659L84.42 3.05328L83.6479 3.04883L72.7849 3.95642L62.4301 6.58842L52.7513 10.8088L43.9165 16.4816L36.0936 23.4705L29.4506 31.6397L24.1554 40.853L20.3759 50.9744L18.2802 61.8678L17.9106 67.6802L18.0475 73.4408L18.6826 79.124Z" fill="#EA9C00"/>
<path d="M83.6479 3.04883L72.7849 3.95642L62.4301 6.58842L52.7513 10.8088L43.9165 16.4816L36.0936 23.4705L29.4506 31.6397L24.1554 40.853L20.3759 50.9744L18.2802 61.8678L17.9106 67.6802L18.0475 73.4408L18.6826 79.124L19.8077 84.7048L21.4146 90.1577L23.495 95.4575L26.0408 100.579L29.0438 105.496L32.4957 110.185L36.3398 114.547L40.5083 118.519L44.9765 122.089L49.7198 125.241L54.7136 127.962L59.9331 130.239L65.3539 132.057L70.9511 133.403L76.7002 134.263L77.4854 134.339L78.2702 134.405L79.0544 134.463L79.8376 134.512L80.6196 134.552L81.3999 134.583L82.1782 134.605L82.9543 134.618L83.7277 134.623L94.5908 133.715L104.946 131.083L114.624 126.863L123.459 121.19L131.282 114.201L137.925 106.032L143.22 96.8186L147 86.6972L149.095 75.8038L149.289 63.9505L147.423 52.5672L143.665 41.8606L138.179 32.0375L131.131 23.3044L122.687 15.8683L113.013 9.93571L102.274 5.71343L90.6359 3.40821L89.8521 3.33278L89.0709 3.26623L88.292 3.20854L87.5151 3.15976L86.7397 3.11983L85.9656 3.08876L85.1925 3.06659L84.42 3.05328L83.6479 3.04883Z" stroke="#EA9C00" stroke-width="2" stroke-linecap="round"/>
<path d="M140.939 102.442L134.392 111.704L126.393 119.703L117.13 126.251L106.792 131.16L95.5638 134.242L83.6345 135.312L71.7051 134.242L60.4772 131.16L50.1383 126.251L40.8757 119.703L32.877 111.704L26.3294 102.442L21.4206 92.103L18.3378 80.8751L17.2686 68.9457L18.3378 57.0163L21.4206 45.7884L26.3294 35.4495L32.877 26.1869L40.8757 18.1881L50.1383 11.6406L60.4772 6.73171L71.7051 3.64895L83.6345 2.57971L95.5638 3.64895L106.792 6.73171L117.13 11.6406L126.393 18.1881L134.392 26.1869L140.939 35.4495L145.848 45.7884L148.931 57.0163L150 68.9457L148.931 80.8751L145.848 92.103L140.939 102.442Z" fill="#FEE88F"/>
<path d="M130.113 95.3522L124.869 102.77L118.463 109.176L111.046 114.419L102.766 118.351L93.7739 120.82L84.2204 121.676L74.6668 120.82L65.675 118.351L57.3951 114.419L49.9772 109.176L43.5714 102.77L38.3277 95.3522L34.3965 87.0723L31.9276 78.0806L31.0713 68.5272L31.9276 58.9737L34.3965 49.9819L38.3277 41.7021L43.5714 34.2842L49.9772 27.8785L57.3951 22.6349L65.675 18.7037L74.6668 16.2348L84.2204 15.3785L93.7739 16.2348L102.766 18.7037L111.046 22.6349L118.463 27.8785L124.869 34.2842L130.113 41.7021L134.044 49.9819L136.513 58.9737L137.369 68.5272L136.513 78.0806L134.044 87.0723L130.113 95.3522Z" fill="#FED31A"/>
<path d="M6.90078 37.1559L12.9781 27.2484L20.5935 18.5989L29.536 11.3785L39.5946 5.7579L50.5583 1.90811L62.2161 0L74.3571 0.20449L74.4987 0.230674L74.6295 0.280847L74.7475 0.352379L74.8507 0.442659L74.9371 0.549018L75.0048 0.668864L75.0518 0.799568L75.0762 0.938478L75.0758 1.08297L75.0497 1.22463L74.9995 1.35543L74.9279 1.47342L74.8377 1.57661L74.7313 1.66305L74.6115 1.73075L74.4808 1.77774L74.3418 1.80206L74.1973 1.80175L62.3441 1.60849L50.9608 3.47392L40.2542 7.2324L30.431 12.7183L21.698 19.7659L14.2618 28.2097L8.32922 37.8839L4.10696 48.623L1.80173 60.2613L1.60849 72.1147L3.47393 83.498L7.23239 94.2046L12.7183 104.028L19.7659 112.761L28.2097 120.197L37.8839 126.13L48.623 130.352L60.2613 132.657L60.4029 132.683L60.5337 132.733L60.6517 132.805L60.7549 132.895L60.8414 133.001L60.9091 133.121L60.956 133.252L60.9804 133.391L60.9801 133.535L60.9434 133.664L60.888 133.782L60.8159 133.889L60.729 133.983L60.6292 134.063L60.5186 134.127L60.3992 134.175L60.2728 134.204L60.1415 134.214H60.0971L48.1506 131.846L37.1559 127.518L27.2484 121.441L18.5989 113.825L11.3785 104.883L5.7579 94.8242L1.90811 83.8605L0 72.2026L0.20447 60.0616L2.5726 48.1506L6.90078 37.1559Z" fill="#EA9C00"/>
<path d="M116.551 111.946L116.334 112.11L116.116 112.274L115.899 112.438L115.681 112.602L115.464 112.767L115.247 112.931L115.02 113.089L114.794 113.245L114.568 113.4L114.342 113.553L114.115 113.706L113.889 113.86L113.663 114.014L113.436 114.17L113.21 114.328L112.982 114.485L112.752 114.637L112.519 114.784L112.285 114.927L112.049 115.067L111.811 115.204L111.572 115.339L111.333 115.473L111.094 115.606L110.856 115.741L110.619 115.877L110.384 116.014L110.149 116.152L109.912 116.288L109.674 116.423L109.433 116.554L109.188 116.682L108.937 116.804L107.96 117.311L106.972 117.795L105.974 118.256L104.967 118.695L103.952 119.111L102.93 119.505L101.902 119.877L100.87 120.228L99.8331 120.558L99.7 120.598L99.5669 120.638L99.4337 120.677L99.3007 120.717L99.1676 120.757L99.0345 120.797L98.9013 120.837L98.7682 120.877L98.6351 120.917L98.502 120.957L98.3689 120.996L98.2358 121.035L98.1027 121.073L97.9696 121.11L97.8365 121.145L97.7034 121.178L97.5703 121.208L97.4372 121.237L97.171 121.299L96.9048 121.361L96.6385 121.423L96.3724 121.485L96.1061 121.547L95.8399 121.609L95.5737 121.671L95.3075 121.733L95.0413 121.796L94.7737 121.847L94.5039 121.897L94.2324 121.945L93.96 121.992L93.6872 122.039L93.4148 122.086L93.1433 122.133L92.8735 122.183L92.6059 122.235L92.4727 122.261L92.3393 122.288L92.205 122.313L92.0699 122.338L91.9334 122.361L91.7953 122.383L91.6552 122.402L91.5127 122.42L91.3676 122.434L91.2301 122.452L91.0925 122.47L90.955 122.488L90.8174 122.505L90.6799 122.523L90.5424 122.541L90.4048 122.559L90.2673 122.576L90.1297 122.594L89.584 122.666L89.0378 122.722L88.4911 122.766L87.9433 122.8L87.3943 122.826L86.8435 122.849L86.2909 122.869L85.7359 122.89L85.1783 122.914L84.9001 122.914L84.6242 122.913L84.35 122.912L84.0768 122.91L83.8039 122.907L83.5307 122.902L83.2565 122.895L82.9806 122.886L82.7025 122.874L82.568 122.874L82.4313 122.874L82.2928 122.873L82.1534 122.871L82.0137 122.867L81.8743 122.862L81.7359 122.855L81.5991 122.846L81.4646 122.834L81.3271 122.825L81.1896 122.816L81.0521 122.807L80.9146 122.798L80.7772 122.789L80.6396 122.781L80.5021 122.772L80.3647 122.763L80.2272 122.754L79.6813 122.712L79.1355 122.667L78.5897 122.618L78.0439 122.564L77.4981 122.504L76.9524 122.438L76.4067 122.364L75.8609 122.284L75.3152 122.195L74.7709 122.1L74.2292 122.002L73.6898 121.899L73.1524 121.791L72.6167 121.678L72.0822 121.559L71.5488 121.433L71.016 121.299L70.4835 121.157L69.9525 121.019L69.4241 120.874L68.8981 120.72L68.374 120.56L67.8515 120.394L67.3304 120.222L66.8102 120.045L66.2907 119.864L65.7716 119.68L65.254 119.49L64.7393 119.295L64.2276 119.094L63.7188 118.887L63.213 118.674L62.7102 118.455L62.2103 118.23L61.7134 117.999L61.2194 117.762L60.2392 117.271L59.2698 116.756L58.3133 116.215L57.3715 115.649L56.4465 115.057L55.5403 114.438L54.6547 113.791L53.7918 113.116L52.9536 112.412L52.9049 112.356L52.8658 112.295L52.8368 112.231L52.8187 112.165L52.812 112.099L52.8175 112.033L52.8359 111.969L52.8677 111.909L52.9137 111.853L52.9565 111.804L53.0045 111.764L53.0571 111.734L53.1137 111.714L53.1736 111.704L53.2361 111.705L53.3006 111.716L53.3663 111.739L53.4328 111.773L53.8987 112.039L54.3645 112.305L54.8304 112.57L55.2963 112.834L55.7621 113.097L56.228 113.358L56.6939 113.617L57.1597 113.874L57.6256 114.129L58.1035 114.37L58.5793 114.612L59.0542 114.855L59.5292 115.097L60.005 115.336L60.4829 115.572L60.9637 115.803L61.4485 116.028L61.9382 116.245L62.9128 116.675L63.8933 117.088L64.8798 117.481L65.8722 117.857L66.8704 118.213L67.8746 118.549L68.8848 118.866L69.9008 119.163L70.9227 119.44L71.4419 119.57L71.961 119.694L72.4801 119.812L72.9992 119.925L73.5183 120.031L74.0374 120.132L74.5565 120.226L75.0756 120.315L75.5947 120.398L76.1152 120.487L76.6384 120.567L77.1639 120.639L77.6913 120.703L78.2204 120.76L78.7508 120.809L79.2822 120.852L79.8142 120.887L80.3465 120.917L80.4797 120.926L80.6128 120.935L80.7459 120.944L80.879 120.953L81.0121 120.961L81.1452 120.97L81.2783 120.979L81.4114 120.988L81.5445 120.997L81.6776 121.007L81.8107 121.013L81.9438 121.016L82.0769 121.017L82.21 121.017L82.3431 121.018L82.4762 121.02L82.6093 121.026L82.7424 121.037L83.0087 121.038L83.2749 121.042L83.541 121.047L83.8073 121.054L84.0735 121.06L84.3397 121.067L84.6059 121.072L84.8721 121.076L85.1383 121.077L85.6707 121.052L86.2027 121.027L86.7341 121.003L87.2645 120.977L87.7936 120.946L88.321 120.911L88.8465 120.869L89.3696 120.818L89.8902 120.757L90.0233 120.744L90.1564 120.731L90.2894 120.717L90.4226 120.704L90.5557 120.691L90.6888 120.677L90.8219 120.664L90.955 120.651L91.0881 120.638L91.2212 120.623L91.3543 120.605L91.4874 120.586L91.6205 120.564L91.7536 120.541L91.8867 120.516L92.0198 120.491L92.1529 120.464L92.286 120.438L92.5509 120.398L92.8134 120.358L93.0743 120.317L93.3343 120.275L93.5938 120.231L93.8537 120.186L94.1146 120.14L94.3772 120.09L94.642 120.039L94.8993 119.981L95.1567 119.923L95.414 119.866L95.6713 119.808L95.9287 119.75L96.186 119.692L96.4433 119.635L96.7007 119.577L96.958 119.519L97.0897 119.491L97.2192 119.461L97.347 119.428L97.4738 119.393L97.6003 119.356L97.7271 119.318L97.8548 119.279L97.9843 119.24L98.116 119.2L98.2447 119.165L98.3734 119.129L98.502 119.094L98.6307 119.058L98.7594 119.023L98.888 118.987L99.0167 118.952L99.1454 118.916L99.274 118.881L100.284 118.566L101.29 118.232L102.291 117.879L103.286 117.507L104.275 117.114L105.255 116.701L106.226 116.265L107.188 115.807L108.139 115.327L109.079 114.827L110.01 114.311L110.931 113.78L111.841 113.231L112.74 112.666L113.626 112.082L114.499 111.479L115.359 110.857L116.205 110.215L117.041 109.557L117.87 108.888L118.693 108.208L119.508 107.519L120.317 106.82L121.118 106.113L121.911 105.398L122.696 104.675L123.472 103.946L123.528 103.899L123.589 103.863L123.653 103.84L123.719 103.828L123.785 103.828L123.851 103.84L123.915 103.863L123.976 103.899L124.032 103.946L124.091 104.001L124.136 104.058L124.168 104.117L124.186 104.176L124.193 104.236L124.188 104.295L124.173 104.354L124.147 104.411L124.111 104.465L123.433 105.32L122.729 106.155L122.001 106.969L121.25 107.764L120.478 108.539L119.687 109.296L118.876 110.033L118.048 110.752L117.203 111.453L116.986 111.617L116.768 111.782L116.551 111.946Z" fill="#EA9C00"/>
<path d="M135.638 53.2452L135.761 53.6396L135.881 54.0355L135.998 54.4328L136.112 54.8311L136.223 55.23L136.331 55.6293L136.425 56.0286L136.522 56.4283L136.619 56.8287L136.716 57.23L136.813 57.6327L136.907 58.037L136.999 58.4433L137.087 58.8518L137.169 59.263L137.312 60.0764L137.448 60.8924L137.574 61.7107L137.69 62.531L137.793 63.3528L137.882 64.1761L137.955 65.0003L138.011 65.8251L138.048 66.6503L138.1 68.302L138.096 69.9551L138.039 71.6077L137.928 73.2585L137.765 74.9056L137.551 76.5474L137.286 78.1823L136.972 79.8088L136.61 81.425L136.196 83.0278L135.726 84.6135L135.199 86.1797L134.617 87.7244L133.978 89.245L133.283 90.7393L132.531 92.2051L131.724 93.6399L130.86 95.0416L130.816 95.1022L130.764 95.151L130.706 95.188L130.643 95.2131L130.577 95.2264L130.508 95.2279L130.438 95.2175L130.369 95.1954L130.301 95.1613L130.251 95.1186L130.207 95.0705L130.171 95.0179L130.142 94.9613L130.123 94.9014L130.112 94.8389L130.111 94.7745L130.121 94.7087L130.141 94.6422L130.805 93.1722L131.438 91.6907L132.039 90.198L132.606 88.6945L133.138 87.1805L133.634 85.6562L134.093 84.1221L134.513 82.5784L134.893 81.0256L135.061 80.2403L135.22 79.4546L135.369 78.6682L135.507 77.8809L135.633 77.0922L135.748 76.3019L135.849 75.5097L135.937 74.715L136.011 73.9179L136.084 73.1192L136.142 72.3206L136.187 71.5219L136.219 70.7233L136.239 69.9247L136.248 69.1261L136.245 68.3275L136.233 67.5288L136.211 66.7302L136.177 65.9317L136.129 65.1334L136.067 64.3358L135.993 63.5392L135.907 62.7439L135.809 61.9503L135.7 61.1586L135.581 60.3692L135.452 59.5825L135.383 59.1846L135.309 58.7893L135.23 58.3964L135.149 58.0054L135.066 57.616L134.982 57.228L134.898 56.841L134.815 56.4546L134.733 56.0685L134.628 55.6825L134.525 55.2965L134.421 54.9105L134.317 54.5245L134.21 54.1385L134.1 53.7525L133.985 53.3665L133.864 52.9805L133.735 52.5945L133.231 51.0726L132.68 49.5681L132.085 48.0808L131.448 46.6102L130.772 45.156L130.061 43.7179L129.318 42.2956L128.545 40.8887L127.745 39.497L127.713 39.4292L127.694 39.3597L127.689 39.2899L127.697 39.2212L127.717 39.1547L127.748 39.0918L127.79 39.0338L127.843 38.9821L127.905 38.938L127.937 38.8934L127.979 38.8652L128.028 38.8522L128.082 38.853L128.138 38.8662L128.195 38.8906L128.25 38.9249L128.3 38.9678L128.344 39.0178L129.318 40.3412L130.24 41.701L131.112 43.0953L131.932 44.5221L132.701 45.9795L133.417 47.4655L134.082 48.9781L134.694 50.5154L135.253 52.0754L135.384 52.4628L135.513 52.8529L135.638 53.2452Z" fill="#EA9C00"/>
<path d="M120.755 29.606L120.924 29.7474L121.09 29.8905L121.253 30.0349L121.412 30.1802L121.567 30.3263L121.716 30.4726L121.874 30.6205L122.029 30.7714L122.182 30.9252L122.331 31.0819L122.478 31.2417L122.621 31.4044L122.761 31.57L122.899 31.7386L123.033 31.9101L123.166 32.0833L123.298 32.2571L123.428 32.4322L123.555 32.6093L123.678 32.789L123.797 32.972L123.909 33.159L124.014 33.3505L124.112 33.5473L124.144 33.6152L124.162 33.6846L124.166 33.7544L124.157 33.8232L124.133 33.8897L124.097 33.9526L124.048 34.0105L123.986 34.0622L123.912 34.1064L123.871 34.1287L123.827 34.1428L123.782 34.1492L123.736 34.1489L123.689 34.1422L123.643 34.13L123.598 34.1129L123.554 34.0915L123.513 34.0664L123.329 33.9452L123.151 33.821L122.978 33.6938L122.808 33.5636L122.642 33.4305L122.478 33.2944L122.316 33.1554L122.156 33.0134L121.996 32.8685L121.836 32.7235L121.676 32.5807L121.518 32.4396L121.36 32.2995L121.204 32.1597L121.049 32.0196L120.896 31.8785L120.746 31.7358L120.598 31.5907L120.452 31.4429L120.305 31.2928L120.159 31.1411L120.012 30.9884L119.866 30.8353L119.719 30.6826L119.573 30.5309L119.427 30.3808L119.28 30.233L119.135 30.0733L118.993 29.9131L118.853 29.7524L118.715 29.5906L118.578 29.4276L118.443 29.2628L118.309 29.0962L118.175 28.9272L118.042 28.7556L118.008 28.6878L117.985 28.6183L117.974 28.5485L117.974 28.4797L117.984 28.4132L118.004 28.3504L118.034 28.2924L118.073 28.2407L118.122 28.1965L118.163 28.161L118.207 28.134L118.254 28.1152L118.302 28.1043L118.352 28.101L118.403 28.1048L118.455 28.1156L118.508 28.133L118.562 28.1566L118.76 28.254L118.955 28.3589L119.147 28.4701L119.336 28.5863L119.523 28.706L119.706 28.828L119.886 28.9511L120.064 29.0738L120.238 29.1948L120.411 29.3293L120.584 29.4665L120.755 29.606Z" fill="#EA9C00"/>
<path d="M73.925 1.72556L73.807 1.65403L73.7039 1.56377L73.6175 1.45737L73.5498 1.33752L73.5028 1.20684L73.4785 1.06793L73.4789 0.923423L73.505 0.781783L73.5552 0.65098L73.6267 0.532973L73.717 0.429799L73.8234 0.343355L73.9432 0.27566L74.0739 0.228651L74.2129 0.204346L74.3573 0.204662L76.2385 0.404327L78.1197 0.603991L80.0008 0.803636L81.882 1.0033L83.7632 1.20296L85.6444 1.40261L87.5255 1.60225L89.4067 1.80192L91.2879 2.00158L91.4296 2.02777L91.5605 2.07794L91.6786 2.14947L91.7818 2.23973L91.8683 2.34611L91.936 2.46596L91.983 2.59666L92.0073 2.73557L92.007 2.88006L91.9717 3.00989L91.92 3.13182L91.8532 3.24389L91.7726 3.34414L91.6794 3.43056L91.5752 3.50122L91.461 3.55414L91.3383 3.58733L91.2084 3.59884H91.164L89.2473 3.39918L87.366 3.19951L85.4848 2.99987L83.6035 2.8002L81.7222 2.60056L79.841 2.40089L77.9597 2.20123L76.0785 2.00158L74.1972 1.80192L74.0557 1.77573L73.925 1.72556Z" fill="#EA9C00"/>
<path d="M59.7889 134.138L59.6709 134.066L59.5678 133.976L59.4813 133.87L59.4136 133.75L59.3666 133.619L59.3423 133.48L59.3426 133.336L59.3688 133.194L59.419 133.063L59.4905 132.945L59.5808 132.842L59.6871 132.756L59.807 132.688L59.9377 132.641L60.0766 132.617L60.2211 132.617L62.1023 132.817L63.9835 133.016L65.8647 133.216L67.746 133.416L69.6272 133.615L71.5084 133.815L73.3896 134.014L75.2708 134.214L77.152 134.414L77.2937 134.44L77.4245 134.49L77.5424 134.562L77.6456 134.652L77.7321 134.759L77.7998 134.878L77.8468 135.009L77.8711 135.148L77.8708 135.292L77.846 135.433L77.7999 135.56L77.7347 135.674L77.6528 135.773L77.5563 135.856L77.4478 135.922L77.3294 135.971L77.2034 136.001L77.0721 136.011H77.0278L75.1111 135.811L73.2299 135.612L71.3486 135.412L69.4674 135.212L67.5862 135.013L65.705 134.813L63.8238 134.613L61.9426 134.414L60.0614 134.214L59.9197 134.188L59.7889 134.138Z" fill="#EA9C00"/>
<path d="M20.5871 25.2341L20.537 25.1875L20.4938 25.1343L20.4585 25.0758L20.432 25.0134L20.4154 24.9484L20.4097 24.8821L20.4274 24.8172L20.4536 24.7562L20.4881 24.7002L20.5304 24.6501L20.5803 24.6068L20.6374 24.5715L20.7015 24.5451L20.7721 24.5284L20.8489 24.5227L22.2066 24.6248L23.5643 24.7268L24.9219 24.8288L26.2796 24.9309L27.6373 25.0329L28.9949 25.135L30.3526 25.237L31.7103 25.3391L33.0679 25.4411L33.2096 25.4659L33.3404 25.5124L33.4584 25.5787L33.5616 25.6626L33.648 25.7624L33.7157 25.8759L33.7627 26.0013L33.787 26.1366L33.7867 26.2797L33.7619 26.4213L33.7154 26.5521L33.6491 26.6701L33.5652 26.7733L33.4654 26.8597L33.3519 26.9275L33.2265 26.9744L33.0913 26.9988L32.9481 26.9985H32.9082L31.5594 26.8121L30.2106 26.6257L28.8618 26.4394L27.513 26.2531L26.1642 26.0667L24.8154 25.8804L23.4666 25.694L22.1178 25.5077L20.769 25.3213L20.7041 25.3023L20.6432 25.2728L20.5871 25.2341Z" fill="#EA9C00"/>
<path d="M41.9918 8.8623L41.9438 8.81569L41.9039 8.76249L41.8735 8.70405L41.854 8.64168L41.8467 8.57665L41.8528 8.51032L41.8705 8.44541L41.8968 8.38444L41.9312 8.3284L41.9735 8.2783L42.0234 8.23507L42.0806 8.19973L42.1446 8.17329L42.2152 8.15669L42.2921 8.15094L43.5432 8.23968L44.7944 8.32842L46.0456 8.41713L47.2968 8.50589L48.548 8.59461L49.7992 8.68335L51.0504 8.77208L52.3015 8.86082L53.5527 8.94956L53.6944 8.97438L53.8256 9.02089L53.9446 9.0871L54.0499 9.17108L54.1396 9.27083L54.2123 9.38437L54.2663 9.50975L54.2999 9.645L54.3114 9.78813L54.2971 9.92982L54.2562 10.061L54.1916 10.18L54.1063 10.2853L54.0033 10.375L53.8855 10.4477L53.7558 10.5017L53.6173 10.5353L53.4728 10.5468H53.4196H53.3664H53.3531L52.1108 10.3693L50.8684 10.1919L49.6261 10.0144L48.3838 9.83693L47.1415 9.65946L45.8992 9.48198L44.6569 9.30451L43.4146 9.12703L42.1723 8.94956L42.1074 8.93055L42.0468 8.90105L41.9918 8.8623Z" fill="#EA9C00"/>
<path d="M96.7721 49.2669L96.8964 47.8116L97.0206 46.3563L97.1448 44.9011L97.269 43.4458L97.3933 41.9905L97.5175 40.5352L98.4404 40.3755L99.3632 40.2158L100.286 40.0561L101.209 39.8963L102.132 39.7366L103.055 39.5769L103.978 39.4171L104.9 39.2574L105.823 39.0977L105.53 42.4164L105.238 45.7352L104.945 49.0539L104.652 52.3727L104.359 55.6914L104.066 59.0102L103.773 62.3289L103.481 65.6476L103.188 68.9664L103.179 69.0152L103.17 69.064L103.161 69.1128L103.152 69.1616L103.143 69.2104L103.135 69.2592L103.126 69.308L103.117 69.3568L103.108 69.4056L102.363 67.6531L101.617 65.9006L100.872 64.148L100.126 62.3955L99.381 60.6429L98.6356 58.8904L97.8902 57.1378L97.1448 55.3853L96.3994 53.6327L96.5237 52.1774L96.6479 50.7222L96.7721 49.2669Z" fill="#FEB41D"/>
<path d="M103.135 69.2592L103.143 69.2104L103.152 69.1616L103.161 69.1128L103.17 69.064L103.179 69.0152L103.188 68.9664L103.481 65.6476L103.773 62.3289L104.066 59.0102L104.359 55.6914L104.652 52.3727L104.945 49.0539L105.238 45.7352L105.53 42.4164L105.823 39.0977L106.56 38.9735L107.296 38.8493L108.033 38.725L108.769 38.6008L109.506 38.4766L110.242 38.3523L110.979 38.2281L111.715 38.1039L112.451 37.9796L113.374 37.8244L114.297 37.6691L115.22 37.5138L116.143 37.3585L117.066 37.2032L117.989 37.0479L118.912 36.8926L119.835 36.7373L120.758 36.582L120.003 43.4147L119.249 50.2475L118.495 57.0802L117.741 63.9129L116.986 70.7456L116.232 77.5783L115.478 84.411L114.723 91.2437L113.969 98.0764L113.051 98.2316L112.132 98.387L111.214 98.5422L110.296 98.6975L109.377 98.8528L108.459 99.0081L107.54 99.1634L106.622 99.3187L105.703 99.474L105.189 99.5627L104.674 99.6514L104.159 99.7402L103.645 99.8289L103.13 99.9176L102.615 100.006L102.1 100.095L101.586 100.184L101.071 100.273L99.7533 97.1802L98.4356 94.0877L97.1179 90.9952L95.8002 87.9028L94.4825 84.8103L93.1648 81.7178L91.8471 78.6253L90.5294 75.5329L89.2118 72.4404L89.0254 74.3128L88.8391 76.1851L88.6527 78.0574L88.4664 79.9298L88.28 81.8021L88.0937 83.6744L87.9073 85.5468L87.721 87.4191L87.5346 89.2915L87.3838 90.7911L87.2329 92.2908L87.0819 93.7904L86.9311 95.2901L86.7802 96.7897L86.6293 98.2894L86.4784 99.789L86.3275 101.289L86.1766 102.788L85.2538 102.944L84.331 103.099L83.4081 103.254L82.4854 103.409L81.5625 103.565L80.6397 103.72L79.7169 103.875L78.7941 104.031L77.8712 104.186L77.361 104.27L76.8508 104.354L76.3405 104.439L75.8303 104.523L75.3201 104.607L74.8098 104.692L74.2996 104.776L73.7894 104.86L73.2791 104.945L70.5194 98.7109L67.7597 92.4771L64.9999 86.2434L62.2401 80.0097L59.4804 73.7759L56.7207 67.5422L53.9609 61.3084L51.2012 55.0747L48.4414 48.841L49.1957 48.7123L49.9499 48.5837L50.7042 48.455L51.4585 48.3263L52.2127 48.1976L52.967 48.0689L53.7212 47.9403L54.4755 47.8116L55.2298 47.683L56.1482 47.5277L57.0667 47.3724L57.9851 47.2171L58.9036 47.0618L59.8221 46.9065L60.7406 46.7512L61.659 46.5959L62.5775 46.4407L63.4959 46.2854L64.0816 47.6608L64.6673 49.0362L65.2529 50.4116L65.8386 51.787L66.4242 53.1625L67.0099 54.5378L67.5956 55.9133L68.1812 57.2887L68.7669 58.6641L69.4768 60.3545L70.1867 62.045L70.8966 63.7354L71.6065 65.4258L72.3163 67.1162L73.0262 68.8066L73.7361 70.4971L74.446 72.1875L75.1559 73.878L75.1914 73.9667L75.2269 74.0554L75.2624 74.1441L75.2979 74.2329L75.3334 74.3216L75.3689 74.4104L75.4044 74.4991L75.4399 74.5879L75.4754 74.6766L75.7859 71.2425L76.0965 67.8084L76.4071 64.3743L76.7177 60.9402L77.0283 57.5061L77.3388 54.072L77.6494 50.6379L77.96 47.2038L78.2706 43.7697L78.7897 43.681L79.3088 43.5922L79.8279 43.5035L80.347 43.4148L80.8661 43.326L81.3852 43.2373L81.9043 43.1485L82.4234 43.0598L82.9425 42.9711L83.8654 42.8158L84.7883 42.6605L85.7111 42.5052L86.634 42.3499L87.5568 42.1946L88.4797 42.0393L89.4025 41.884L90.3254 41.7288L91.2483 41.5734L91.8206 42.9134L92.393 44.2533L92.9653 45.5932L93.5377 46.9331L94.11 48.273L94.6824 49.613L95.2547 50.9529L95.8271 52.2928L96.3994 53.6327L97.1448 55.3853L97.8902 57.1378L98.6356 58.8904L99.381 60.6429L100.126 62.3955L100.872 64.148L101.617 65.9006L102.362 67.6531L103.108 69.4056L103.117 69.3568L103.126 69.308L103.135 69.2592Z" fill="#FEE88F"/>
<path d="M98.3159 100.738L97.3975 100.894L96.4791 101.049L95.5607 101.204L94.6424 101.36L93.724 101.515L92.8056 101.67L92.22 100.295L91.6343 98.9192L91.0486 97.5438L90.463 96.1684L89.8773 94.793L89.2916 93.4176L88.706 92.0422L88.1204 90.6668L87.5347 89.2913L87.721 87.419L87.9074 85.5467L88.0937 83.6743L88.2801 81.802L88.4664 79.9297L88.6528 78.0573L88.8391 76.185L89.0254 74.3126L89.2118 72.4403L90.5295 75.5328L91.8472 78.6252L93.1648 81.7177L94.4826 84.8102L95.8003 87.9026L97.1179 90.9951L98.4356 94.0876L99.7533 97.18L101.071 100.273L100.153 100.428L99.2343 100.583L98.3159 100.738Z" fill="#FEB41D"/>
<path d="M77.3385 54.0719L77.028 57.506L76.7174 60.9401L76.4068 64.3743L76.0962 67.8083L75.7857 71.2424L75.4751 74.6765L75.4396 74.5878L75.4041 74.4991L75.3686 74.4103L75.3331 74.3216L75.2976 74.2328L75.2621 74.1441L75.2266 74.0554L75.1911 73.9666L75.1556 73.8779L74.4457 72.1875L73.7358 70.497L73.0259 68.8066L72.3161 67.1162L71.6062 65.4258L70.8963 63.7353L70.1864 62.0449L69.4765 60.3545L68.7666 58.6641L68.8997 57.1644L69.0328 55.6648L69.1659 54.1651L69.299 52.6655L69.4321 51.1658L69.5652 49.6662L69.6983 48.1665L69.8314 46.6669L69.9645 45.1672L70.8874 45.012L71.8103 44.8567L72.7331 44.7014L73.656 44.5461L74.5788 44.3908L75.5017 44.2355L76.4245 44.0802L77.3474 43.9249L78.2703 43.7697L77.9597 47.2037L77.6491 50.6379L77.3385 54.0719Z" fill="#FEB41D"/>
<path d="M70.5102 105.41L69.5874 105.566L68.6645 105.721L67.7416 105.876L66.8188 106.032L65.8959 106.187L64.9731 106.342L62.2134 100.108L59.4537 93.8747L56.694 87.641L53.9343 81.4073L51.1745 75.1735L48.4149 68.9398L45.6552 62.7061L42.8954 56.4723L40.1357 50.2386L41.0586 50.0833L41.9815 49.928L42.9043 49.7727L43.8272 49.6174L44.75 49.4621L45.6729 49.3069L46.5957 49.1516L47.5186 48.9963L48.4415 48.841L51.2012 55.0747L53.9609 61.3085L56.7206 67.5422L59.4803 73.7759L62.24 80.0097L64.9997 86.2434L67.7594 92.4771L70.5191 98.7109L73.2788 104.945L72.3559 105.1L71.4331 105.255L70.5102 105.41Z" fill="#FEB41D"/>
<path d="M112.452 37.9796L113.375 37.8243L114.297 37.669L115.22 37.5137L116.143 37.3584L117.066 37.2031L117.989 37.0478L118.912 36.8926L119.835 36.7373L120.758 36.582L120.004 43.4147L119.249 50.2474L118.495 57.0801L117.741 63.9128L116.986 70.7455L116.232 77.5782L115.478 84.4109L114.724 91.2436L113.969 98.0763L113.051 98.2316L112.133 98.3869L111.214 98.5422L110.296 98.6975L109.377 98.8528L108.459 99.0081L107.54 99.1633L106.622 99.3186L105.704 99.4739" stroke="#EA9C00" stroke-width="4.87622" stroke-linecap="round"/>
<path d="M82.9424 42.971L83.8653 42.8157L84.7881 42.6604L85.7109 42.5051L86.6338 42.3498L87.5567 42.1946L88.4795 42.0393L89.4024 41.884L90.3253 41.7287L91.2481 41.5734L91.8205 42.9133L92.3928 44.2533L92.9651 45.5931L93.5375 46.9331L94.1099 48.273L94.6822 49.6129L95.2546 50.9529L95.8269 52.2928L96.3992 53.6327L97.1446 55.3852L97.89 57.1378L98.6354 58.8903L99.3808 60.6429L100.126 62.3954L100.872 64.148L101.617 65.9005L102.362 67.653L103.108 69.4056L103.117 69.3568L103.125 69.308L103.134 69.2591L103.143 69.2104L103.152 69.1615L103.161 69.1127L103.17 69.0639L103.179 69.0151L103.188 68.9663L103.48 65.6476L103.773 62.3289L104.066 59.0101L104.359 55.6914L104.652 52.3726L104.945 49.0539L105.237 45.7351L105.53 42.4164L105.823 39.0977" stroke="#EA9C00" stroke-width="4.8761" stroke-linecap="round"/>
<path d="M68.7666 58.6642L69.4765 60.3546L70.1864 62.045L70.8963 63.7354L71.6062 65.4259L72.3161 67.1163L73.0259 68.8067L73.7358 70.4971L74.4457 72.1876L75.1556 73.878L75.1911 73.9668L75.2266 74.0555L75.2621 74.1442L75.2976 74.233L75.3331 74.3217L75.3686 74.4104L75.4041 74.4992L75.4396 74.5879L75.4751 74.6767L75.7857 71.2425L76.0962 67.8085L76.4068 64.3743L76.7174 60.9403L77.028 57.5062L77.3385 54.0721L77.6491 50.638L77.9597 47.2039L78.2703 43.7698" stroke="#EA9C00" stroke-width="4.8761" stroke-linecap="round"/>
<path d="M55.2295 47.683L56.1479 47.5277L57.0663 47.3724L57.9847 47.2171L58.9032 47.0618L59.8216 46.9065L60.74 46.7513L61.6584 46.596L62.5769 46.4407L63.4953 46.2854L64.0809 47.6608L64.6666 49.0362L65.2523 50.4116L65.8379 51.7871L66.4236 53.1625L67.0092 54.5379L67.5949 55.9133L68.1806 57.2887L68.7662 58.6641" stroke="#EA9C00" stroke-width="4.8761" stroke-linecap="round"/>
<path d="M73.2788 104.945L70.519 98.7109L67.7593 92.4771L64.9996 86.2434L62.24 80.0097L59.4802 73.7759L56.7205 67.5422L53.9608 61.3085L51.2011 55.0747L48.4414 48.841" stroke="#EA9C00" stroke-width="4.8761" stroke-linecap="round"/>
<path d="M87.5345 89.2914L87.3836 90.791L87.2328 92.2907L87.0819 93.7903L86.9311 95.29L86.7802 96.7896L86.6294 98.2893L86.4785 99.7889L86.3277 101.289L86.1768 102.788L85.254 102.943L84.3311 103.099L83.4082 103.254L82.4854 103.409L81.5626 103.565L80.6397 103.72L79.7168 103.875L78.794 104.031L77.8711 104.186" stroke="#EA9C00" stroke-width="4.8761" stroke-linecap="round"/>
<path d="M101.071 100.273L99.7533 97.1801L98.4356 94.0876L97.1179 90.9951L95.8003 87.9027L94.4825 84.8102L93.1649 81.7178L91.8472 78.6253L90.5295 75.5328L89.2118 72.4404L89.0254 74.3127L88.8391 76.1851L88.6527 78.0574L88.4664 79.9297L88.28 81.8021L88.0937 83.6744L87.9073 85.5467L87.721 87.4191L87.5347 89.2914" stroke="#EA9C00" stroke-width="4.87622" stroke-linecap="round"/>
<path d="M68.7666 58.6641L68.8997 57.1645L69.0328 55.6648L69.1659 54.1652L69.299 52.6655L69.4321 51.1659L69.5652 49.6662L69.6983 48.1666L69.8314 46.6669L69.9645 45.1673L70.8874 45.012L71.8103 44.8567L72.7331 44.7014L73.656 44.5461L74.5788 44.3909L75.5017 44.2356L76.4245 44.0803L77.3474 43.925L78.2703 43.7697L78.7894 43.681L79.3085 43.5922L79.8276 43.5035L80.3467 43.4148L80.8658 43.326L81.3849 43.2373L81.904 43.1485L82.4231 43.0598L82.9422 42.9711" stroke="#EA9C00" stroke-width="4.8761" stroke-linecap="round"/>
<path d="M55.2298 47.683L54.4755 47.8116L53.7213 47.9403L52.967 48.069L52.2128 48.1977L51.4585 48.3263L50.7043 48.455L49.95 48.5836L49.1957 48.7123L48.4415 48.841L47.5186 48.9963L46.5957 49.1516L45.6729 49.3069L44.75 49.4621L43.8272 49.6174L42.9043 49.7727L41.9815 49.928L41.0586 50.0833L40.1357 50.2386L42.8954 56.4723L45.6552 62.7061L48.4148 68.9398L51.1746 75.1735L53.9342 81.4072L56.694 87.641L59.4537 93.8747L62.2134 100.108L64.9731 106.342L65.8959 106.187L66.8188 106.032L67.7416 105.876L68.6645 105.721L69.5874 105.566L70.5102 105.41L71.4331 105.255L72.3559 105.1L73.2788 104.945L73.789 104.86L74.2993 104.776L74.8095 104.692L75.3197 104.607L75.83 104.523L76.3402 104.439L76.8504 104.354L77.3607 104.27L77.8709 104.186" stroke="#EA9C00" stroke-width="4.8761" stroke-linecap="round"/>
<path d="M105.703 99.4739L105.188 99.5626L104.674 99.6514L104.159 99.7401L103.644 99.8288L103.129 99.9175L102.615 100.006L102.1 100.095L101.585 100.184L101.071 100.273L100.152 100.428L99.2338 100.583L98.3154 100.738L97.397 100.894L96.4786 101.049L95.5603 101.204L94.6419 101.36L93.7235 101.515L92.8051 101.67L92.2195 100.295L91.6338 98.9193L91.0481 97.5438L90.4625 96.1685L89.8768 94.793L89.2912 93.4176L88.7055 92.0422L88.1198 90.6668L87.5342 89.2914" stroke="#EA9C00" stroke-width="4.8761" stroke-linecap="round"/>
<path d="M96.3994 53.6327L96.5237 52.1774L96.6479 50.7222L96.7721 49.2669L96.8964 47.8116L97.0206 46.3563L97.1448 44.901L97.269 43.4458L97.3933 41.9905L97.5175 40.5352L98.4404 40.3755L99.3632 40.2158L100.286 40.056L101.209 39.8963L102.132 39.7366L103.055 39.5769L103.977 39.4171L104.9 39.2574L105.823 39.0977L106.56 38.9735L107.296 38.8492L108.033 38.725L108.769 38.6008L109.506 38.4765L110.242 38.3523L110.979 38.2281L111.715 38.1039L112.451 37.9796" stroke="#EA9C00" stroke-width="4.87598" stroke-linecap="round"/>
<path d="M40.8544 101.031L40.6947 100.818L40.5349 100.605L40.3752 100.392L40.2155 100.18L40.0558 99.9666L39.896 99.7536L39.8175 99.647L39.7414 99.5402L39.6668 99.4326L39.5932 99.3242L39.52 99.2143L39.4464 99.1029L39.3719 98.9894L39.2957 98.8737L39.2172 98.7553L39.1462 98.6444L39.0752 98.5335L39.0042 98.4225L38.9332 98.3116L38.8622 98.2007L38.7913 98.0898L38.7203 97.9789L38.6493 97.8679L38.5783 97.757L38.5104 97.6492L38.4402 97.539L38.3683 97.4272L38.2954 97.3145L38.2223 97.2013L38.1494 97.0885L38.0775 96.9767L38.0073 96.8666L37.9394 96.7587L37.8728 96.6434L37.8063 96.528L37.7397 96.4126L37.6732 96.2973L37.6066 96.182L37.5401 96.0666L37.4735 95.9512L37.407 95.8359L37.3404 95.7205L37.2739 95.6052L37.2073 95.4898L37.1408 95.3745L37.0742 95.2591L37.0077 95.1437L36.9411 95.0284L36.8746 94.913L36.808 94.7977L36.7414 94.6823L36.7104 94.6246L36.6793 94.567L36.6483 94.5093L36.6172 94.4516L36.5862 94.3939L36.5551 94.3362L36.524 94.2785L36.493 94.2209L36.4619 94.1632L36.4309 94.1055L36.3998 94.0478L36.3688 93.9901L36.3377 93.9325L36.3066 93.8748L36.2756 93.8171L36.2445 93.7595L36.2135 93.7018L36.1824 93.6441L35.248 91.7353L34.3887 89.7914L33.6061 87.8156L32.9014 85.8112L32.2758 83.7815L31.7308 81.7298L31.2676 79.6593L30.8876 77.5734L30.592 75.4753L30.2437 71.2396L30.2339 66.9887L30.558 62.749L31.2114 58.5468L32.1895 54.4083L33.4878 50.36L35.1015 46.4279L37.0262 42.6384L39.2571 39.0179L40.4769 37.2731L41.7653 35.5801L43.1201 33.9407L44.539 32.3566L46.0197 30.8293L47.5599 29.3605L49.1573 27.9518L50.8095 26.6049L52.5143 25.3215L54.2574 24.1073L56.0501 22.9674L57.8888 21.9022L59.7699 20.9118L61.6898 19.9967L63.6448 19.1573L65.6315 18.3937L67.646 17.7064L69.6848 17.0956L70.7126 16.8251L71.7456 16.573L72.7832 16.3399L73.8248 16.1265L74.8696 15.9335L75.9171 15.7616L76.9665 15.6113L78.0173 15.4835L79.0687 15.3786L80.1231 15.2957L81.182 15.2336L82.2442 15.1922L83.3083 15.1715H84.3731L85.4372 15.1922L86.4994 15.2336L87.5584 15.2957L88.6127 15.3786L89.6747 15.4715L90.731 15.5898L91.782 15.732L92.8281 15.897L93.8696 16.0832L94.9069 16.2896L95.9403 16.5147L96.9701 16.7572L97.9966 17.0158L98.5022 17.1638L99.0076 17.3154L99.5122 17.4712L100.016 17.6321L100.518 17.7985L101.019 17.9712L101.518 18.1507L102.015 18.3378L102.508 18.5331L103 18.7359L103.487 18.9452L103.971 19.1617L104.451 19.3861L104.927 19.6191L105.398 19.8612L105.865 20.1133L106.326 20.3758L106.782 20.6495L106.842 20.6937L106.891 20.7454L106.928 20.8033L106.953 20.8662L106.966 20.9327L106.968 21.0015L106.957 21.0713L106.935 21.1407L106.901 21.2086L106.869 21.2587L106.827 21.3023L106.777 21.3387L106.721 21.3672L106.661 21.3871L106.599 21.3979L106.538 21.3987L106.478 21.3891L106.422 21.3683L105.929 21.1953L105.437 21.0227L104.944 20.8506L104.452 20.6796L103.959 20.5099L103.467 20.3419L102.975 20.1758L102.482 20.012L101.99 19.8509L101.497 19.6926L101.005 19.5373L100.512 19.385L100.019 19.2356L99.5269 19.0892L99.0344 18.9458L98.5419 18.8053L98.0495 18.6677L97.557 18.5331L96.5571 18.2773L95.5541 18.0421L94.5473 17.8277L93.5367 17.634L92.5218 17.4609L91.5023 17.3086L90.4779 17.1769L89.4483 17.066L88.4131 16.9758L87.3867 16.9036L86.358 16.8474L85.3278 16.8087L84.2966 16.7887L83.2651 16.7888L82.2338 16.8102L81.2036 16.8543L80.175 16.9224L79.1486 17.0158L78.1252 17.1207L77.1047 17.2486L76.0872 17.3988L75.0726 17.5707L74.061 17.7637L73.0524 17.9771L72.0467 18.2101L71.044 18.4623L70.0442 18.7328L68.0732 19.3301L66.1286 20.0034L64.2128 20.7516L62.3286 21.5737L60.4785 22.4688L58.6653 23.4358L56.8915 24.4739L55.1597 25.5819L53.4727 26.759L51.8329 28.0024L50.2428 29.3086L48.7046 30.6753L47.2206 32.1001L45.7932 33.5807L44.4246 35.115L43.117 36.7006L41.873 38.3351L40.6947 40.0162L38.5257 43.5128L36.6535 47.171L35.0821 50.9663L33.8153 54.874L32.8571 58.8694L32.2114 62.9279L31.8823 67.0248L31.8736 71.1355L32.1893 75.2353L32.47 77.2788L32.8323 79.3076L33.2748 81.3185L33.7962 83.3087L34.3951 85.2752L35.0702 87.2151L35.8203 89.1254L36.6441 91.0032L37.5401 92.8455L38.0266 93.7579L38.528 94.6589L39.0442 95.5487L39.5751 96.4277L40.1208 97.2962L40.6813 98.1546L41.2567 99.0031L41.8468 99.8422L42.4516 100.672L43.0816 101.493L43.7201 102.306L44.3669 103.111L45.0215 103.909L45.6837 104.701L46.3531 105.487L47.0294 106.269L47.7123 107.046L48.4014 107.82L48.4474 107.876L48.4792 107.936L48.4975 108L48.5031 108.066L48.4965 108.132L48.4783 108.198L48.4493 108.262L48.4102 108.322L48.3615 108.378L48.3768 108.426L48.3497 108.487L48.2673 108.504L48.2136 108.497L48.156 108.48L48.0977 108.454L48.042 108.419L47.2257 107.753L46.427 107.063L45.6461 106.35L44.883 105.614L44.1376 104.859L43.41 104.085L42.7001 103.295L42.008 102.489L41.3335 101.67L41.1738 101.457L41.0141 101.244L40.8544 101.031Z" fill="#EA9C00"/>
</svg>
