<svg width="512" height="512" viewBox="0 0 512 512" fill="none" xmlns="http://www.w3.org/2000/svg">
<g id="Chip2">
<g id="Chip1">
<g id="g25582">
<path id="abColor_1" d="M466 256C466 372 372 466 256 466C140 466 46 372 46 256C46 140 140 46 256 46C372 46 466 140 466 256Z" fill="#29313D"/>
<path id="abColor_2" fill-rule="evenodd" clip-rule="evenodd" d="M256 127.35C223.139 127.31 191.527 139.939 167.74 162.61C116.36 211.4 114.16 292.98 162.84 344.47C174.418 356.732 188.302 366.588 203.696 373.473C219.091 380.358 235.693 384.137 252.551 384.593C269.409 385.049 286.191 382.174 301.935 376.131C317.679 370.089 332.076 360.998 344.3 349.38C395.68 300.6 397.87 219.01 349.2 167.52C337.258 154.781 322.819 144.64 306.784 137.728C290.748 130.817 273.461 127.284 256 127.35V127.35ZM256 391.7C237.582 391.77 219.347 388.044 202.432 380.754C185.518 373.464 170.287 362.767 157.69 349.33C106.35 295.01 108.69 208.96 162.86 157.49C175.754 145.236 190.941 135.647 207.548 129.273C224.156 122.9 241.858 119.867 259.64 120.348C277.422 120.829 294.935 124.815 311.173 132.078C327.412 139.34 342.057 149.736 354.27 162.67C405.61 216.99 403.27 303.04 349.1 354.5C324.012 378.422 290.665 391.746 256 391.7Z" fill="white"/>
<path id="abColor_2_2" d="M350 81L322.41 130.06C344.364 141.725 362.882 158.934 376.123 179.976C389.363 201.018 396.864 225.16 397.88 250L454.49 248.72C453.224 214.077 442.913 180.368 424.582 150.944C406.251 121.521 380.538 97.407 350 81ZM150.81 87.65C122.269 105.469 98.722 130.245 82.3766 159.655C66.0312 189.064 57.4232 222.143 57.36 255.79L114 255C114.166 230.99 120.379 207.41 132.067 186.436C143.754 165.463 160.539 147.772 180.87 135L150.81 87.65ZM328.08 378.83C306.587 391.445 282.158 398.193 257.238 398.4C232.317 398.607 207.779 392.266 186.08 380.01L160.14 429.87C190.197 446.499 224.061 455.03 258.409 454.627C292.757 454.224 326.411 444.9 356.07 427.57L328.08 378.83Z" fill="white"/>
<path id="abColor_2_3" d="M250.67 55.8201C236.042 55.7956 221.46 57.4497 207.21 60.7501L221 118.49C232.419 115.604 244.152 114.146 255.93 114.15C262.789 114.151 269.64 114.639 276.43 115.61L285.7 59.0901C274.157 56.9396 262.442 55.8451 250.7 55.8201H250.67ZM391.44 301.49C385.359 320.238 375.442 337.514 362.32 352.22L398.38 384.28C416.692 365.21 430.862 342.559 440 317.75L391.44 301.49ZM123.33 309.64L74.72 329.9C84.6736 354.384 99.5785 376.547 118.5 395L154.65 357.66C153.9 356.89 153.15 356.13 152.41 355.34C139.872 342.108 129.999 326.585 123.33 309.62V309.64Z" fill="white"/>
</g>
</g>
</g>
</svg>
