<svg width="512" height="512" viewBox="0 0 512 512" fill="none" xmlns="http://www.w3.org/2000/svg">
<g id="Frame">
<g id="Rectangle">
<path id="Vector" d="M509.5 2.5H2.5V509.5H509.5V2.5Z" stroke="white" stroke-width="5" stroke-miterlimit="10"/>
</g>
<g id="Chip1">
<g id="g35411">
<path id="abColor_1" d="M466 256C466 372 372 466 256 466C140 466 46 372 46 256C46 140 140 46 256 46C372 46 466 140 466 256Z" fill="#29313D"/>
<path id="abColor_2" fill-rule="evenodd" clip-rule="evenodd" d="M252.79 54.76C229.186 55.1387 205.832 59.6572 183.79 68.11L207.28 129.35C177.595 140.862 152.9 162.441 137.514 190.316C122.128 218.191 117.03 250.587 123.11 281.84L58.11 294.46C67.1852 341.15 92.4623 383.133 129.48 413L171 361.63C195.199 381.202 225.409 391.827 256.532 391.712C287.655 391.597 317.786 380.75 341.84 361L383.72 411.95C420.471 381.731 445.363 339.499 454 292.71L389.05 280.71C394.951 248.875 389.29 215.979 373.086 187.948C356.883 159.918 331.202 138.594 300.67 127.82L322.15 65.87C299.851 58.1384 276.368 54.3814 252.77 54.77L252.79 54.76ZM256 127.35C273.461 127.284 290.748 130.817 306.784 137.728C322.819 144.64 337.258 154.781 349.2 167.52C397.87 219.01 395.68 300.6 344.3 349.39C332.075 361.005 317.678 370.094 301.934 376.135C286.189 382.176 269.408 385.051 252.551 384.595C235.694 384.139 219.092 380.361 203.698 373.477C188.304 366.593 174.419 356.739 162.84 344.48C114.16 292.98 116.36 211.4 167.74 162.61C191.527 139.939 223.139 127.31 256 127.35Z" fill="white"/>
<path id="abColor_2_2" d="M138.43 92.4004C112.449 111.028 91.2718 135.569 76.6469 163.996C62.0221 192.423 54.3691 223.922 54.32 255.89L84.87 253.73C84.8748 226.731 91.2684 200.115 103.528 176.059C115.788 152.004 133.567 131.19 155.41 115.32L156.1 114.89L138.43 92.4004ZM176.26 405L162.26 433.81C190.529 448.725 221.941 456.702 253.901 457.083C285.861 457.464 317.453 450.238 346.07 436L332.68 406.7L330.25 408C327.37 409.387 324.45 410.694 321.49 411.92C318.53 413.147 315.53 414.29 312.49 415.35C309.47 416.41 306.423 417.38 303.35 418.26C300.277 419.14 297.177 419.94 294.05 420.66C290.93 421.37 287.79 422 284.63 422.53C281.47 423.06 278.31 423.53 275.13 423.88C271.95 424.23 268.76 424.5 265.57 424.68C262.38 424.86 259.17 424.95 255.97 424.95C228.964 424.956 202.341 418.565 178.28 406.3C177.59 405.89 176.91 405.47 176.23 405.05L176.26 405ZM427.13 253.73L457.43 255.89C457.381 223.922 449.728 192.423 435.103 163.996C420.478 135.569 399.301 111.028 373.32 92.4004L355.73 114.72C358.103 116.407 360.437 118.157 362.73 119.97C365.23 121.97 367.673 124.034 370.06 126.16C372.45 128.3 374.78 130.49 377.06 132.76C379.34 135.03 381.52 137.35 383.66 139.76C385.8 142.17 387.85 144.6 389.85 147.1C391.85 149.6 393.77 152.16 395.62 154.77C397.47 157.38 399.25 160.04 400.95 162.77C402.65 165.5 404.28 168.24 405.83 171.04C407.38 173.84 408.83 176.68 410.24 179.57C411.65 182.46 412.93 185.37 414.16 188.33C415.39 191.29 416.52 194.28 417.58 197.33C418.64 200.38 419.58 203.4 420.5 206.47C421.42 209.54 422.18 212.65 422.89 215.77C423.6 218.89 424.23 222.03 424.77 225.18C425.31 228.33 425.77 231.51 426.11 234.69C426.45 237.87 426.74 241.06 426.91 244.25C427.08 247.44 427.13 250.55 427.13 253.73Z" fill="white"/>
</g>
</g>
</g>
</svg>
