<svg width="512" height="512" viewBox="0 0 512 512" fill="none" xmlns="http://www.w3.org/2000/svg">
<g id="Chip5">
<g id="Chip1">
<g id="g34507">
<path id="abColor_1" d="M466 256C466 372 372 466 256 466C140 466 46 372 46 256C46 140 140 46 256 46C372 46 466 140 466 256Z" fill="#29313D"/>
<path id="abColor_2" fill-rule="evenodd" clip-rule="evenodd" d="M255.84 127.52C222.979 127.479 191.367 140.108 167.58 162.78C116.2 211.57 114 293.15 162.68 344.64C174.258 356.901 188.142 366.757 203.536 373.642C218.931 380.528 235.533 384.307 252.391 384.763C269.249 385.219 286.031 382.343 301.775 376.301C317.519 370.258 331.916 361.167 344.14 349.55C395.52 300.77 397.71 219.18 349.04 167.69C337.098 154.951 322.659 144.809 306.624 137.898C290.589 130.986 273.301 127.454 255.84 127.52V127.52ZM255.84 391.86C237.422 391.934 219.186 388.211 202.271 380.923C185.356 373.635 170.126 362.938 157.53 349.5C106.19 295.18 108.53 209.12 162.7 157.66C175.594 145.405 190.781 135.816 207.388 129.443C223.996 123.069 241.698 120.036 259.48 120.517C277.262 120.998 294.775 124.985 311.013 132.247C327.252 139.51 341.897 149.906 354.11 162.84C405.45 217.15 403.11 303.21 348.94 354.67C323.852 378.589 290.504 391.911 255.84 391.86" fill="white"/>
<path id="abColor_2_2" fill-rule="evenodd" clip-rule="evenodd" d="M352.49 79.6503L329.64 121.36C352.922 134.24 372.492 152.904 386.46 175.55L426.87 150.55C408.7 121.13 382.7 96.0903 352.49 79.6603V79.6503ZM426.93 150.65C413.51 159.02 399.78 167.31 386.56 175.72C400 167.33 413.78 159.06 426.93 150.63V150.65ZM427.05 150.84C413.62 159.19 399.87 167.47 386.65 175.84C400.05 167.5 413.94 159.21 427.05 150.82V150.84ZM456.68 253L409.19 253.75C409.621 280.357 403.165 306.624 390.45 330L432.11 352.85C438.72 341.32 443.31 329.01 447.16 316.4C452.864 299.065 455.922 280.968 456.23 262.72C456.28 259.43 456.12 255.63 456.68 253ZM390.41 330C404.04 337.65 418.3 345.55 432.05 352.88L390.41 330ZM390.33 330.15C403.95 337.82 418.19 345.72 431.94 353.08L390.33 330.15ZM333.88 388.52C311.03 402.039 285.056 409.383 258.51 409.83L259.32 457.42C294.109 456.842 328.147 447.209 358.08 429.47C350.027 415.824 341.96 402.187 333.88 388.56V388.52ZM258.42 409.83C258.54 425.49 258.77 441.83 259.2 457.42L258.42 409.83ZM258.25 409.83C258.36 425.48 258.54 441.83 258.98 457.41C258.74 441.584 258.497 425.74 258.25 409.88V409.83ZM123.86 334.56L83 358.87C100.796 388.788 125.986 413.626 156.15 431L179.72 389.69C156.652 376.428 137.408 357.422 123.86 334.52V334.56ZM123.77 334.41C110.23 342.55 96.24 350.57 82.98 358.78C96.53 350.64 110.43 342.59 123.77 334.41ZM123.68 334.26C110.13 342.38 96.14 350.4 82.86 358.58C96.42 350.46 110.32 342.43 123.68 334.26V334.26ZM81.26 156.53C72.26 172.07 65.9 189.08 61.08 206.27C57.76 222.53 54.79 239.13 55.08 255.87L102.57 255.94C102.579 229.333 109.469 203.179 122.57 180.02L81.26 156.53ZM81.37 156.33C94.78 164.24 108.97 172.33 122.6 179.95L81.37 156.33ZM81.48 156.13C94.9 164.06 109.07 172.13 122.68 179.79L81.48 156.13ZM255.81 54.8703C221.005 54.708 186.773 63.7206 156.56 81.0003L180.05 122.36C203.133 109.243 229.23 102.351 255.78 102.36C255.78 86.527 255.78 70.7003 255.78 54.8803L255.81 54.8703Z" fill="white"/>
</g>
</g>
</g>
</svg>
