<svg xmlns="http://www.w3.org/2000/svg" width="177" height="28" viewBox="0 0 177 28">
    <defs>
        <linearGradient id="jadwpc9moa" x1="15.34%" x2="84.66%" y1="85.203%" y2="36.878%">
            <stop offset="0%" stop-color="#F507EC"/>
            <stop offset="9%" stop-color="#EE0CEC"/>
            <stop offset="22%" stop-color="#DA19ED"/>
            <stop offset="38%" stop-color="#B92FEF"/>
            <stop offset="57%" stop-color="#8B4DF1"/>
            <stop offset="77%" stop-color="#5173F4"/>
            <stop offset="98%" stop-color="#0AA2F8"/>
            <stop offset="100%" stop-color="#02A7F8"/>
        </linearGradient>
    </defs>
    <g fill="none" fill-rule="evenodd">
        <g fill-rule="nonzero">
            <g>
                <g>
                    <path fill="#FFF" d="M58.973 8.822l4.518 10h-3.866l-.76-1.686h-4.97l-.76 1.685h-3.86l4.503-9.999h5.195zm-3.902 5.429h2.596l-1.307-2.63-1.29 2.63zM62.041 8.8L75.34 8.8 75.34 12.1 70.37 12.1 70.37 18.821 67.056 18.821 67.056 12.1 62.041 12.1zM85.785 18.821L83.023 18.821 80.538 14.421 80.538 18.821 77.196 18.821 77.196 8.8 81.189 8.8 84.448 14.35 87.704 8.8 91.708 8.8 91.708 18.821 88.369 18.821 88.369 14.394zM100.087 8.635c.805-.007 1.61.044 2.408.151.662.09 1.312.26 1.933.506.545.207 1.041.526 1.455.936.396.417.697.915.881 1.46.225.664.333 1.362.318 2.062.016.687-.077 1.372-.276 2.03-.165.533-.437 1.026-.801 1.45-.383.417-.855.745-1.381.956-.619.258-1.269.434-1.933.523-.831.112-1.67.164-2.508.156-2.375 0-4.1-.43-5.175-1.292-1.075-.862-1.613-2.198-1.613-4.01 0-1.675.553-2.916 1.657-3.72 1.105-.805 2.783-1.208 5.035-1.208zm.127 7.59c1.016 0 1.801-.204 2.355-.613.553-.412.829-1.034.829-1.873.04-.724-.289-1.419-.876-1.848-.582-.426-1.38-.638-2.352-.638-.46-.006-.917.048-1.362.163-.355.092-.686.261-.97.495-.249.212-.443.482-.565.786-.13.332-.194.686-.188 1.042-.027.69.264 1.356.79 1.807.527.465 1.309.68 2.339.68zM114.762 8.822c.9 0 1.67.02 2.31.063.574.034 1.144.113 1.705.237.418.085.822.226 1.201.42.298.165.553.398.743.68.198.286.338.609.411.949.085.422.124.851.116 1.281h-3.56c.007-.124-.02-.249-.077-.36-.093-.113-.215-.2-.353-.25-.277-.1-.567-.158-.862-.17-.389-.034-.908-.05-1.549-.05-.85 0-1.472.018-1.864.055-.255.009-.506.058-.746.146-.107.06-.168.177-.157.3 0 .123.14.206.392.25.252.044 1.016.115 2.29.22.015-.001.03.004.041.013 2.526.2 4.128.383 4.808.55.889.21 1.463.567 1.723 1.073.195.47.283.977.257 1.485.007.378-.024.756-.094 1.127-.06.3-.188.582-.373.825-.19.244-.438.438-.72.564-.396.166-.81.284-1.235.35-.595.103-1.197.167-1.8.192-.674.036-1.514.05-2.52.05-.687 0-1.283 0-1.783-.028s-.972-.052-1.406-.099c-.365-.037-.728-.098-1.085-.184-.27-.072-.53-.178-.773-.317-.419-.216-.73-.593-.862-1.045-.087-.253-.145-.516-.171-.783-.028-.275-.041-.605-.041-.988h3.454c-.007.13.02.257.08.372.095.115.23.192.379.214.27.069.549.108.828.116.36.019.87.03 1.527.03h.345c.663.016 1.326-.004 1.986-.06.237-.04.353-.163.353-.372 0-.12-.08-.203-.243-.242-.447-.066-.898-.108-1.35-.126-.536-.039-.978-.072-1.334-.102-.552-.047-.997-.085-1.298-.116-.3-.03-.674-.068-1.118-.118-.445-.05-.782-.107-1.014-.16-.232-.052-.5-.118-.814-.2-.251-.053-.492-.146-.713-.275-.157-.105-.328-.228-.516-.371-.17-.13-.305-.298-.392-.493-.09-.2-.161-.408-.216-.621-.064-.25-.095-.507-.094-.765-.002-.301.022-.602.072-.899.043-.244.11-.484.202-.715.084-.204.206-.39.359-.55.147-.158.31-.299.489-.42.203-.136.428-.238.665-.3.272-.083.549-.148.829-.196.276-.047.61-.085 1.013-.115.403-.03.793-.047 1.182-.055.39-.009.84-.017 1.373-.017zM123.441 8.778L134.247 8.778 134.247 11.825 126.791 11.825 126.791 12.796 132.629 12.796 132.629 15.739 126.796 15.739 126.796 18.821 123.441 18.821zM136.238 8.8L147.356 8.8 147.356 11.578 139.58 11.578 139.58 12.463 146.867 12.463 146.867 15.125 139.58 15.125 139.58 16.025 147.356 16.025 147.356 18.821 136.238 18.821zM149.49 8.8h7.404c.191 0 .373 0 .553.014.18.014.414.041.723.093.289.048.572.12.848.218.286.103.558.242.81.412.272.172.515.388.717.638.216.292.382.619.489.966.134.429.2.876.193 1.325 0 1.584-.616 2.713-1.85 3.388l2.066 2.956h-3.866l-1.72-2.36h-3.039v2.371h-3.327V8.801zm7.09 4.722c.83 0 1.245-.314 1.245-.943 0-.572-.434-.858-1.303-.858h-3.687v1.801h3.745zM171.942 8.822l4.52 10h-3.865l-.763-1.686h-4.97l-.763 1.685h-3.855l4.504-9.999h5.192zm-3.902 5.429h2.596l-1.304-2.63-1.292 2.63z" transform="translate(-47 -26) translate(47 26)"/>
                    <path fill="url(#jadwpc9moa)" d="M34.95 17.875l-1.63-3.621c-4.504-.253-9.052-.382-13.644-.385-4.592-.004-9.163.126-13.714.39L4.33 17.875c5.03-.319 10.145-.48 15.346-.486 5.17 0 10.261.162 15.274.486zM27.6 1.551l-.65-1.438C24.537.038 22.113 0 19.677 0s-4.883.039-7.343.116l-.649 1.435c2.646-.088 5.308-.143 7.992-.143s5.3.055 7.923.143zm4.388 9.746l-3.234-7.172c-3.008-.11-6.034-.167-9.077-.17-3.043-.004-6.092.053-9.146.17l-3.234 7.178c4.087-.215 8.214-.322 12.38-.322s8.27.105 12.311.316zm6.305 14.004c-3.62-.285-7.278-.484-10.975-.6l.942 2.14c3.719.132 7.393.35 11.021.654l-.988-2.194zm-2.165-4.813c-5.415-.367-10.898-.55-16.451-.55-5.553 0-11.06.185-16.52.556l-.985 2.2c5.733-.431 11.568-.65 17.505-.655 5.915 0 11.727.213 17.436.638l-.985-2.189zM0 27.501c3.623-.303 7.293-.522 11.01-.658l.953-2.14c-3.682.116-7.34.315-10.972.598L0 27.5z" transform="translate(-47 -26) translate(47 26)"/>
                </g>
            </g>
        </g>
    </g>
</svg>
