<svg width="170" height="32" fill="none" xmlns="http://www.w3.org/2000/svg">
<path fill-rule="evenodd" clip-rule="evenodd" d="M0 0h24.906v31.304H0V0zm6.032 26.551V5.667h6.124c2.148 0 3.839.457 5.027 1.416 1.188.96 1.828 2.377 1.828 4.25 0 .914-.229 1.828-.64 2.65a4.269 4.269 0 0 1-1.965 1.737 3.582 3.582 0 0 1 2.422 1.691 5.42 5.42 0 0 1 .777 3.016c0 2.011-.549 3.52-1.691 4.525-1.143 1.005-2.788 1.553-4.89 1.553l-6.992.046zm3.793-9.231v5.986h2.88a2.48 2.48 0 0 0 1.919-.73 3.236 3.236 0 0 0 .64-2.149 4.04 4.04 0 0 0-.549-2.285c-.411-.548-1.051-.868-1.736-.822H9.825zm0-2.833h2.24a2.48 2.48 0 0 0 1.919-.732c.457-.548.731-1.28.64-2.01.045-.777-.183-1.554-.686-2.148-.548-.503-1.325-.731-2.056-.686H9.825v5.576z" fill="#FFCD00"/><path d="M50.269 31.258h-1.462V0h1.462v31.258zM75.677 31.258h-1.462V0h1.462v31.258zM101.04 31.258h-1.462V0h1.462v31.258zM126.449 31.258h-1.417V0h1.417v31.258zM151.903 31.258h-1.462V0h1.462v31.258zM43.231 23.078c-.548.96-1.37 1.736-2.33 2.285-1.234.731-2.697 1.051-4.113 1.005-2.194 0-3.976-.685-5.301-2.01-1.326-1.326-2.011-3.2-2.011-5.667v-6.17c0-2.421.64-4.295 1.92-5.62 1.279-1.326 2.97-2.011 5.072-1.966 2.148 0 3.747.549 4.89 1.6 1.142 1.051 1.736 2.56 1.828 4.524l-.046.091h-2.742c-.046-1.325-.366-2.33-1.006-2.97-.64-.64-1.599-1.005-2.833-1.005a3.7 3.7 0 0 0-3.016 1.37c-.731.915-1.097 2.24-1.097 3.976v6.216c0 1.782.412 3.153 1.188 4.067a4.04 4.04 0 0 0 3.2 1.416c.822.046 1.599-.137 2.33-.502.503-.32.96-.777 1.234-1.28V17.64h-3.565v-2.102h6.49v7.54h-.092zM59.409 18.92h5.3l-2.558-9.14h-.092l-2.65 9.14zm5.986 2.284H58.77L57.26 26.46h-2.97L60.687 5.62h2.834l6.352 20.839h-2.97l-1.509-5.256zM82.715 5.621l4.89 17h.091l4.89-17h3.747V26.46h-2.879v-7.998l.229-7.997-.092-.046-4.98 16.04h-1.92l-5.027-15.994h-.046l.229 7.997v7.998h-2.88V5.62h3.748zM114.384 26.46h-2.879V5.62h2.879V26.46zM145.688 26.46h-2.925l-7.905-15.492h-.092V26.46h-2.879V5.62h2.879l7.906 15.446h.091V5.621h2.925V26.46zM170 23.215c-.594.96-1.371 1.737-2.331 2.285-1.234.731-2.696 1.051-4.113 1.005-2.193 0-3.93-.64-5.301-1.965-1.325-1.325-2.01-3.199-2.01-5.666v-6.261c0-2.422.639-4.296 1.919-5.621 1.28-1.325 2.97-2.01 5.027-2.01 2.148 0 3.747.548 4.89 1.599 1.142 1.05 1.736 2.559 1.828 4.524l-.046.091h-2.742c-.046-1.325-.366-2.285-1.005-2.97-.64-.686-1.6-1.006-2.834-1.006a3.7 3.7 0 0 0-3.016 1.371c-.731.914-1.097 2.24-1.097 3.976v6.215c0 1.782.412 3.154 1.189 4.067a4.037 4.037 0 0 0 3.198 1.417c.823.046 1.6-.137 2.331-.503.503-.32.96-.776 1.234-1.28v-4.752h-3.565V15.63H170v7.586z" fill="#FFCD01"/>
</svg>