<svg width="158" height="31" fill="none" xmlns="http://www.w3.org/2000/svg"><path d="M26.184 3.308h17.483V7.27H30.728v5.779h8.614v3.962h-8.614v6.47h13.34v3.963H26.185V3.308z" fill="#fff"/><path d="M42.809 10.286h4.652l4.07 11.959 3.78-11.959h4.508l-6.252 17.156h-4.18l-6.578-17.156zM59.107 18.9c0-5.233 3.635-8.94 8.832-8.94 5.162 0 8.797 3.707 8.797 8.94 0 5.162-3.708 8.869-8.905 8.869-5.163 0-8.724-3.635-8.724-8.869zm13.047.109v-.145c0-3.27-1.6-5.234-4.216-5.234-2.653 0-4.253 1.964-4.253 5.234v.145c0 3.198 1.562 5.089 4.18 5.089 2.653 0 4.29-1.89 4.29-5.09zM78.783 2.981h4.544v24.461h-4.544V2.982zM85.92 20.573V10.286h4.507v10.032c0 2.29 1.09 3.635 3.126 3.635 2.362 0 3.345-1.999 3.345-4.943v-8.722h4.507v17.156h-4.507v-2.435c-.909 1.781-2.473 2.764-4.689 2.764-3.891-.004-6.29-2.767-6.29-7.2zM105.524 22.898v-8.977h-2.436v-3.635h2.436V7.052l4.397-2.473v5.707h3.381v3.635h-3.417v8.542c0 .836.399 1.2 1.235 1.235h2v3.744h-3.489c-3.309-.182-4.035-1.708-4.107-4.544zM115.349 3.38h4.688v4.398h-4.688V3.38zm.074 6.906h4.544v17.156h-4.544V10.286zM122.014 18.9c0-5.233 3.635-8.94 8.833-8.94 5.161 0 8.796 3.707 8.796 8.94 0 5.162-3.707 8.869-8.905 8.869-5.161 0-8.724-3.635-8.724-8.869zm13.05.109v-.145c0-3.27-1.6-5.234-4.217-5.234-2.653 0-4.253 1.964-4.253 5.234v.145c0 3.198 1.562 5.089 4.179 5.089 2.654 0 4.291-1.89 4.291-5.09zM141.655 10.286h4.507v2.8c.909-2 2.581-3.163 5.017-3.163 3.744 0 5.961 2.508 5.961 7.233v10.286h-4.507V17.41c0-2.398-.909-3.635-3.016-3.635-2.146 0-3.453 1.745-3.453 4.943v8.723h-4.508l-.001-17.155zM19.78 30.606a1.402 1.402 0 1 1 .003-2.805 1.402 1.402 0 0 1-.004 2.805zm0-3.164a1.761 1.761 0 0 0 0 3.522 1.76 1.76 0 0 0 0-3.522zM16.906 14.536c1.4.044 2.937.006 4.633-.128-.244-3.415-1.355-6.252-3.02-8.45a13.883 13.883 0 0 1-1.612 8.578zM16.32 15.504c-2.498 3.76-6.77 6.24-11.624 6.24-.345 0-.688-.017-1.027-.041-1.238 1.9-2.038 4.008-2.921 5.992 8.705 4.649 19.947-.253 20.791-12.088-1.937-.153-3.666-.18-5.22-.103z" fill="#fff"/><path d="M.748 2.322c2.42 5.447 4.234 11.84 16.158 12.213a13.883 13.883 0 0 0 1.612-8.578C14.413.543 6.94-.985.748 2.322zM16.32 15.504c-7.176.354-10.547 2.971-12.65 6.199.338.024.68.041 1.026.041 4.854 0 9.126-2.48 11.624-6.24z" fill="#FFFFFF"/></svg>