<svg width="160" height="54" fill="none" xmlns="http://www.w3.org/2000/svg"><path d="M96.91 16.455c-.538-1.53-1.365-2.853-2.398-3.886-1.034-1.076-2.357-1.902-3.887-2.481-1.53-.579-3.266-.868-5.209-.868-.827 0-1.654.041-2.563.124-.868.082-1.737.165-2.605.29a37.37 37.37 0 0 0-2.44.412c-.785.166-1.488.331-2.066.497v28.733l6.697-.04v-6.368c.745.331 1.53.579 2.357.786.827.165 1.695.248 2.604.248 1.696 0 3.184-.29 4.466-.91 1.281-.579 2.356-1.447 3.224-2.522.869-1.075 1.53-2.356 1.985-3.886.455-1.488.661-3.183.661-5.003.042-1.86-.248-3.596-.826-5.126zM86.16 28.238a7.133 7.133 0 0 1-2.067-.29 6.248 6.248 0 0 1-1.654-.661V15.173c.331-.041.745-.124 1.24-.165a20.076 20.076 0 0 1 1.654-.083c1.82 0 3.225.62 4.135 1.86.91 1.24 1.405 2.895 1.405 4.962.042 4.34-1.57 6.49-4.713 6.49zM102.16 26.047c0 1.24.124 2.397.372 3.39.248.992.744 1.86 1.447 2.563.703.703 1.654 1.24 2.894 1.654.579.165 1.241.33 1.985.413V0h-6.698v26.047zM133.168 14.842a7.576 7.576 0 0 0-1.695-3.1c-.786-.827-1.861-1.489-3.184-1.944-1.323-.454-2.976-.661-4.961-.661-.785 0-1.571.041-2.315.124-.786.083-1.488.165-2.191.248-.703.124-1.323.207-1.902.372a19.39 19.39 0 0 0-1.488.372l.868 5.416c.827-.29 1.778-.537 2.894-.703a22.951 22.951 0 0 1 3.39-.248c1.736 0 2.935.331 3.638 1.034.538.537.868 1.24.992 2.108a3.621 3.621 0 0 0-.702-.082 22.607 22.607 0 0 0-2.481-.124c-1.406 0-2.729.124-4.052.413-1.281.29-2.439.703-3.431 1.323s-1.819 1.447-2.398 2.48c-.62 1.034-.91 2.275-.91 3.763 0 1.571.248 2.853.786 3.928a6.84 6.84 0 0 0 2.232 2.604 9.782 9.782 0 0 0 3.473 1.447c1.158.248 2.398.372 3.763.414h.702c.497 0 .993-.042 1.447-.042 1.53-.04 2.894-.206 4.052-.372 1.737-.289 3.06-.537 4.052-.744V18.894c-.083-1.488-.248-2.853-.579-4.052zm-5.954 13.602c-.165 0-.33.042-.537.042-.661.041-1.323.041-2.026.041-1.323 0-2.356-.207-3.142-.661-.744-.455-1.158-1.24-1.158-2.357 0-.579.124-1.075.373-1.447.248-.372.62-.703 1.074-.91a5.83 5.83 0 0 1 1.572-.454c.578-.083 1.24-.124 1.901-.124.496 0 1.034.041 1.613.082.082 0 .206 0 .289.042v5.746h.041zM160 9.757c-1.364 4.548-2.77 8.848-4.258 12.817a162.827 162.827 0 0 1-4.838 11.617 2.138 2.138 0 0 0-.124.29c-.951 2.067-1.777 3.638-2.48 4.795h-6.615c.868-1.488 1.984-3.638 3.349-6.697.041-.041.041-.124.082-.166-1.529-2.976-3.059-6.366-4.589-10.087-1.53-3.721-2.977-7.938-4.341-12.569h7.111c.29 1.158.662 2.44 1.075 3.804.414 1.364.827 2.77 1.282 4.134.455 1.406.909 2.77 1.364 4.093.414 1.158.827 2.233 1.199 3.225a149.475 149.475 0 0 0 3.68-11.039l.124-.372c.289-1.034.537-1.943.785-2.853.083-.33.166-.661.207-.91V9.8H160v-.042z" fill="#fff"/><path d="M0 21.788c0-2.108.33-3.928.95-5.499.662-1.57 1.49-2.894 2.564-3.927a10.726 10.726 0 0 1 3.638-2.398c1.365-.538 2.77-.827 4.218-.827 3.348 0 6.036 1.034 7.979 3.1 1.943 2.068 2.935 5.086 2.935 9.055 0 .372 0 .827-.041 1.282-.041.454-.041.868-.083 1.24H6.904c.166 1.364.786 2.48 1.944 3.307 1.157.827 2.687 1.2 4.589 1.2 1.24 0 2.439-.125 3.638-.331 1.199-.207 2.15-.496 2.894-.827l.91 5.457c-.373.166-.827.372-1.448.538-.62.165-1.281.33-1.984.454a35.95 35.95 0 0 1-2.357.331c-.826.083-1.695.124-2.521.124-2.15 0-3.97-.33-5.582-.95-1.571-.62-2.894-1.49-3.928-2.605a10.58 10.58 0 0 1-2.315-3.887C.248 25.137 0 23.525 0 21.788zm15.752-2.563a7.285 7.285 0 0 0-.29-1.654c-.165-.537-.413-1.034-.785-1.447a3.693 3.693 0 0 0-1.323-1.034c-.537-.289-1.199-.413-1.943-.413s-1.406.124-1.943.372a3.74 3.74 0 0 0-1.365 1.034c-.372.413-.62.91-.827 1.447-.206.537-.33 1.116-.413 1.695h8.889zM32.744 33.447c-1.53-3.018-3.1-6.532-4.672-10.543-1.57-4.01-3.1-8.392-4.506-13.147h7.111c.29 1.158.662 2.44 1.075 3.804.413 1.364.827 2.728 1.282 4.134.454 1.406.868 2.77 1.323 4.093.454 1.323.868 2.522 1.281 3.597.372-1.075.827-2.274 1.282-3.597.455-1.323.91-2.687 1.323-4.093.455-1.406.868-2.77 1.282-4.134.413-1.365.744-2.646 1.075-3.804h6.945c-1.406 4.755-2.894 9.137-4.506 13.147-1.571 4.01-3.142 7.525-4.672 10.543h-5.623zM71.69 21.54c0 1.86-.29 3.556-.827 5.127-.537 1.53-1.323 2.852-2.356 3.969-1.034 1.116-2.233 1.943-3.68 2.563-1.447.62-3.018.91-4.796.91-1.736 0-3.307-.29-4.755-.91-1.447-.62-2.646-1.447-3.68-2.563-1.033-1.117-1.818-2.398-2.397-3.97-.579-1.529-.868-3.265-.868-5.126 0-1.86.29-3.555.868-5.085.579-1.53 1.406-2.853 2.44-3.928 1.033-1.075 2.273-1.902 3.679-2.522 1.406-.62 2.977-.91 4.672-.91 1.695 0 3.266.29 4.713.91 1.406.62 2.646 1.447 3.68 2.522 1.033 1.075 1.819 2.398 2.397 3.928.62 1.53.91 3.225.91 5.085zm-6.822 0c0-2.067-.413-3.68-1.24-4.878-.827-1.2-1.985-1.778-3.556-1.778-1.53 0-2.728.579-3.555 1.777-.827 1.2-1.282 2.812-1.282 4.88 0 2.066.414 3.72 1.282 4.919.827 1.199 2.026 1.82 3.555 1.82 1.53 0 2.729-.621 3.556-1.82s1.24-2.811 1.24-4.92z" fill="#01A3FB"/><path d="M19.1 51.1h2.812v-.95h-2.811v-1.571h3.183v-1.034H17.82v6.408h4.672v-.992h-3.39v-1.86zm12.57.704c-.208-.331-.497-.703-.786-1.075-.29-.372-.58-.786-.91-1.158-.29-.372-.62-.744-.91-1.116a6.154 6.154 0 0 0-.868-.91h-1.033v6.408h1.24v-4.589c.29.29.579.662.868 1.034.29.372.62.785.91 1.199.29.413.579.827.868 1.199.29.413.538.785.744 1.116h1.075v-6.367h-1.24v4.259h.041zm5.787-3.225h2.109v5.416h1.24v-5.416h2.109v-1.034h-5.458v1.034zM48.703 51.1h2.811v-.951h-2.811v-1.571h3.183v-1.034h-4.424v6.408h4.672v-.992h-3.39v-1.86h-.041zm12.651 1.406a9.171 9.171 0 0 0-.496-.662c-.165-.207-.29-.372-.414-.496.91-.29 1.365-.91 1.365-1.778 0-.703-.248-1.199-.786-1.571-.537-.33-1.281-.496-2.274-.496-.29 0-.579 0-.91.041l-.992.124v6.326h1.24v-2.44h1.034c.124.166.248.331.414.497.165.206.29.372.455.62.165.207.29.413.454.661.166.207.29.455.414.662h1.406c-.125-.248-.248-.496-.414-.744a5.79 5.79 0 0 0-.496-.744zm-.95-2.44a.976.976 0 0 1-.373.33c-.165.084-.33.125-.579.166-.248.042-.496.042-.785.042h-.538v-2.067c.207 0 .455-.042.744-.042.248 0 .455 0 .662.041.207.042.372.083.537.166.166.082.248.207.331.33.083.125.124.29.124.497a5.394 5.394 0 0 1-.124.537zm5.663-1.488h2.109v5.416h1.24v-5.416h2.109v-1.034h-5.5v1.034h.042zm13.974 1.86c-.206-.537-.454-.992-.661-1.488-.207-.455-.455-.91-.662-1.406H77.52c-.248.455-.454.91-.661 1.406-.207.455-.455.95-.662 1.488-.206.538-.454 1.075-.661 1.654a30.72 30.72 0 0 0-.744 1.902h1.281c.083-.248.207-.496.29-.744.082-.248.207-.496.29-.744h2.893c.083.248.207.496.29.744.082.248.206.496.289.744h1.364a30.72 30.72 0 0 0-.744-1.902c-.248-.62-.496-1.158-.703-1.654zm-3.1 1.075c.206-.537.413-1.075.62-1.53.206-.454.372-.868.537-1.199.166.331.33.703.496 1.2.207.454.414.992.62 1.53h-2.273zm8.93 2.44h1.24v-6.409h-1.24v6.408zm10.956-2.15c-.207-.331-.496-.703-.786-1.075-.29-.372-.578-.786-.91-1.158-.289-.372-.62-.744-.909-1.116a6.154 6.154 0 0 0-.868-.91H92.32v6.408h1.24v-4.589c.29.29.58.662.869 1.034.29.372.62.785.91 1.199.289.413.578.827.868 1.199.29.413.537.785.744 1.116h1.075v-6.367h-1.24v4.259h.04zm13.561-1.158c-.042-.538-.083-1.075-.166-1.612-.041-.538-.124-1.034-.165-1.489h-1.116c-.166.248-.29.538-.497.868-.165.331-.372.703-.537 1.075-.165.373-.372.745-.537 1.117-.166.372-.331.744-.497 1.075-.165-.331-.33-.662-.496-1.075-.165-.372-.372-.744-.537-1.117-.166-.372-.372-.744-.538-1.075a7.95 7.95 0 0 0-.496-.868h-1.157c-.042.455-.124.91-.166 1.447-.041.538-.082 1.075-.165 1.613-.042.537-.083 1.116-.124 1.695-.042.579-.083 1.116-.083 1.654h1.24c.042-.745.042-1.53.083-2.316.041-.785.083-1.57.165-2.274.083.124.166.29.249.497.082.206.206.413.33.661.124.248.207.455.331.703.124.248.248.496.331.703.124.248.207.454.289.661.083.207.166.372.248.496h.951c.083-.124.166-.33.248-.496.083-.207.207-.413.29-.661.124-.248.206-.455.33-.703.124-.248.248-.496.331-.703.124-.248.207-.455.331-.661.083-.207.165-.373.248-.497.083.745.124 1.489.165 2.274.042.786.083 1.571.083 2.316h1.24c-.041-.538-.041-1.075-.082-1.613-.042-.579-.083-1.116-.124-1.695zm6.491.455h2.811v-.951h-2.811v-1.571h3.183v-1.034h-4.424v6.408h4.672v-.992h-3.39v-1.86h-.041zm12.609.703c-.206-.331-.496-.703-.785-1.075-.29-.372-.579-.786-.91-1.158-.289-.372-.62-.744-.909-1.116a6.157 6.157 0 0 0-.869-.91h-1.033v6.408h1.24v-4.589c.29.29.579.662.868 1.034.29.372.621.785.91 1.199.289.413.579.827.868 1.199.29.413.538.785.744 1.116h1.075v-6.367h-1.24v4.259h.041zm5.747-4.259v.992h2.109v5.416h1.24v-5.416h2.108v-.992h-5.457z" fill="gray"/></svg>