<?xml version="1.0" encoding="utf-8"?>
<!-- Generator: Adobe Illustrator 24.0.1, SVG Export Plug-In . SVG Version: 6.00 Build 0)  -->
<svg version="1.1" id="Layer_1" xmlns="http://www.w3.org/2000/svg" xmlns:xlink="http://www.w3.org/1999/xlink" x="0px" y="0px"
	 viewBox="0 0 2216 482" style="enable-background:new 0 0 2216 482;" xml:space="preserve">
<style type="text/css">
	.st0{fill:#661054;}
	.st1{fill:#FE7A1C;}
</style>
<path class="st0" d="M53.98,320.59c23.33-0.38,46.67-0.18,70-0.12c4.59,0.04,9.46-0.44,13.68,1.75c6.83,3.14,11.79,10.89,10.07,18.5
	c-8.58,39.03-17.36,78.03-26.07,117.04c-2.95,13.26-16.32,22.67-29.66,22.45c-24.66-0.06-49.33,0.03-73.99-0.05
	C9.05,480.18-0.63,473.33,0,463.61v-2.11c0.43-6.62,2.19-13.02,3.61-19.47c7.3-32.39,14.57-64.78,21.8-97.18
	C27.48,331.29,40.39,320.66,53.98,320.59 M2024.58,2.77c9.72-1.63,19.61-1.04,29.42-1.11c50-0.01,100,0.04,150-0.04
	c4.83-0.06,9.61,2.97,11.46,7.46c0.73,2.88,0.34,5.91-0.09,8.81c-21.4,95.62-43.26,191.16-64.96,286.71
	c-2,8.13-9.78,15.04-18.39,14.52c-9.68,0.01-19.36,0.08-29.03-0.03c-6.42,0.01-11.39-6.89-10.21-13
	c6.92-30.3,13.45-60.7,20.71-90.93c1.06-4.98,1.9-10.86-1.34-15.23c-2.47-3.58-7.04-4.78-11.16-4.73
	c-21.01-0.1-42.02,0.28-63.03-0.12c-8.16-0.13-13.01-10-9.93-17.06c7.62-18.19,21.71-33.69,39.34-42.6
	c16.49-8.6,35.43-9.82,53.67-9.99c7.27,0.17,14.07-5.43,15.59-12.5c4.09-18.97,9.12-37.76,12.35-56.92
	c1.56-7-5.26-13.43-12.03-13.17c-26.99-0.13-53.99-0.01-80.98-0.05c-7.04-0.26-13.95,3.68-17.43,9.77c-1.76,2.9-2.23,6.32-2.96,9.57
	c-17.71,79.39-36.04,158.65-53.93,238c-0.85,6.36-3.84,12.64-9.4,16.16c-3.84,2.78-8.7,3.08-13.25,2.86
	c-16.33-0.06-32.65-0.01-48.97-0.04c-5.96,0.33-11.19-5.29-11.1-11.11c0.16-2.32,0.81-4.56,1.32-6.81
	c14.91-66.86,30.45-133.58,45.5-200.41c4.65-18.86,6.96-38.83,17.08-55.82C1975.17,22.14,1998.92,6.19,2024.58,2.77 M1752.51,43.64
	c-6.73,1.54-12.55,6.86-14.37,13.56c-13.59,61.47-27.69,122.83-41.56,184.24c-2.16,9.07-4.97,18.14-4.96,27.54
	c0.44,5.62,6.11,9.53,11.44,9.71c25.97,0.14,51.94-0.04,77.91,0.09c3.31-0.02,6.75,0.33,9.96-0.78c6.29-1.97,11.5-7.4,12.76-13.93
	c3.87-18.01,8.27-35.9,11.94-53.95c1.15-6.15-2.71-14.06-9.59-14.29c-22.36-0.52-44.73-0.01-67.08-0.16
	c-6.6,0.16-13.24-5.75-12.42-12.6c1.61-10.63,8.1-19.65,14.88-27.67c15.39-18.67,39.71-28.3,63.53-29.03
	c8.45-0.19,17.52,0.9,25.29-3.2c3.68-1.93,6.44-5.5,7.22-9.61c3.9-16.47,7.7-32.98,11.41-49.5c0.89-5.04,2.85-10.92-0.42-15.52
	c-3.35-5.01-9.96-5.74-15.48-5.56C1806.16,43.54,1779.28,42.22,1752.51,43.64 M1725.96,3.51c13.28-1.88,26.73-1.22,40.1-1.69
	c46.63-0.05,93.25,0.04,139.87-0.05c5.81,0.18,11.33,5.3,11.29,11.25c-0.23,2.71-1.12,5.3-1.7,7.94
	c-5.53,22.93-10.23,46.04-15.53,69.02c-2.78,11.79-6.14,23.54-11.53,34.42c-7.3,15.87-21.77,27.41-37.51,34.29
	c12.67,8.96,19.9,24.09,21.12,39.34c1.05,9.79-1.13,19.5-2.92,29.07c-3.78,18.88-8.77,37.82-18.33,54.67
	c-13.19,23.13-39.5,37.19-65.81,37.99c-57.67,0.01-115.34,0-173.01,0.01c-5.47-0.03-10.53-4.42-11.33-9.81
	c-0.35-3.78,1.12-7.38,1.88-11.01c15.05-67.67,30.86-135.16,45.91-202.83c3.13-12.23,4.8-24.85,9.07-36.78
	c5.8-15.28,15.49-29.26,28.51-39.27C1697.52,11.05,1711.54,5.54,1725.96,3.51 M1427.45,2.72c9.78-1.49,19.69-1.07,29.56-1.16
	c49.64-0.1,99.28-0.02,148.92,0c4.97-0.05,10.2,2.65,12.28,7.32c1.2,2.57,0.66,5.49,0.3,8.19c-20.68,92.74-41.77,185.4-62.79,278.07
	c-1.48,7.49-2.81,16.24-9.76,20.75c-4.73,3.99-11.24,3.41-17,3.36c-8.31-0.31-16.65,0.5-24.93-0.39c-5.51-1.23-8.89-7.53-7.86-12.89
	c17.66-79.67,36.33-159.12,54-238.79c1.07-4.97,2.52-10,2.12-15.13c-0.27-2.82-1.5-5.83-4.07-7.26c-8.3-4.92-20.89-0.17-23.05,9.46
	c-9.83,42.17-19.03,84.48-28.8,126.66c-2.3,9.25-12.32,14.6-21.37,14.24c-8.68-0.55-17.39,0.26-26.05-0.56
	c-6.33-0.63-11.26-7.54-9.51-13.74c9.09-41.39,18.33-82.75,27.96-124.02c1.11-4.35-0.17-9.69-4.17-12.14
	c-7.48-3.93-18.12-1.43-22.35,6.1c-2.6,4.4-3.49,9.5-4.6,14.41c-17.77,79.75-36.12,159.37-54.01,239.09c-1.74,8.35-9.7,15.1-18.3,15
	c-17.68-0.21-35.37,0.01-53.05-0.08c-6.29-0.26-11.57-6.99-9.99-13.16c17.57-79.27,36.11-158.33,53.75-237.58
	c4.96-19.93,16.59-38.41,33.34-50.48C1399.53,9.53,1413.37,4.67,1427.45,2.72 M1128.18,2.21c12.25-1.06,24.58-0.29,36.86-0.51
	c46.29,0.02,92.58,0.01,138.86-0.02c4.66,0.16,9.19,3.2,10.89,7.57c1.15,5.68-0.81,11.35-2.02,16.84
	c-20.49,91.89-41.59,183.64-62.34,275.47c-1.01,8.4-7.62,16.49-16.3,17.35c-10.37,0.52-20.76,0.12-31.13,0.19
	c-7.06,0.5-12.6-7.32-10.74-13.9c6.03-26.4,11.87-52.83,17.89-79.23c1.67-6.84,4.05-13.72,3.42-20.86
	c-0.53-5.59-5.97-9.9-11.46-9.88c-21.71-0.24-43.43,0.3-65.14-0.21c-7.53-0.37-12.5-9.25-9.83-16.06
	c8.98-23.13,28.99-41.77,52.83-48.79c13.25-4.22,27.3-4.37,41.08-4.73c7-0.16,13.41-5.62,14.88-12.43
	c4.14-19.04,9.15-37.9,12.42-57.11c1.4-6.69-4.85-12.96-11.34-13.05c-27.33-0.22-54.65-0.06-81.97-0.08
	c-8.58-0.29-16.98,5.86-19.02,14.23c-18.43,82.39-37.39,164.66-55.95,247.02c-1.78,8.22-9.45,15.32-18.09,15.11
	c-17.35-0.03-34.69,0.03-52.03-0.02c-7.22,0.77-13.5-7.08-11.32-13.95c16.6-74.09,33.8-148.05,50.47-222.12
	c2.27-10.7,4.73-21.46,9.56-31.34c6.4-13.63,16.02-25.92,28.44-34.54C1099.15,8.62,1113.58,3.9,1128.18,2.21 M881.26,2.31
	c3.19-0.72,6.51-0.49,9.76-0.67c15.64-0.14,31.29,0.08,46.93-0.06c6.82-0.29,13.47,6.68,11.49,13.57
	c-15.58,71-32.07,141.8-47.93,212.74c-1.32,4.89-2.46,10.21-0.46,15.1c1.24,3.75,4.86,6.66,8.91,6.47c21.66,0.26,43.34-0.1,65,0.17
	c7.71-0.19,14.77,7.94,12.23,15.54c-5.85,15.29-16.41,28.73-29.72,38.25c-14.59,10.45-32.65,15.26-50.44,15.77
	c-31,0.24-62,0.26-93,0.18c-6.92,0.43-13.26-6.69-11.61-13.52c21.8-96.59,44.24-193.05,65.63-289.74
	C869.73,9.66,875.04,4.47,881.26,2.31 M626.52,2.73c8.09-1.39,16.33-0.99,24.5-1.04c51.67,0.04,103.34,0.01,155,0
	c5.16,0.14,10.62,3.92,11.22,9.3c0.53,4.22-0.74,8.36-1.67,12.42c-20.32,90.86-41.07,181.61-61.66,272.4
	c-1.31,6.05-2.18,12.75-6.64,17.43c-3.65,3.92-8.94,6.11-14.29,5.97c-9.66-0.12-19.34,0.19-28.99-0.15
	c-6.73-0.49-11.27-7.81-9.5-14.16c7.14-30.91,13.81-61.94,21.16-92.8c1.94-6.92-2.02-16.32-9.97-16.7
	c-22.23-0.63-44.47,0.26-66.7-0.39c-7.41-0.49-12.24-9.23-9.68-15.97c5.68-14.76,15.91-27.67,28.7-36.93
	c11.17-8.16,24.5-13.13,38.17-15.03c8.9-1.25,17.9-1.37,26.87-1.63c7.12-0.07,13.67-5.62,15.12-12.55
	c3.91-17.24,7.94-34.45,11.58-51.75c0.7-4.08,1.75-8.69-0.49-12.49c-2.65-4.55-8.26-6.2-13.24-5.93c-27,0.11-53.99-0.14-80.98,0.14
	c-8.14,0.64-15.52,7.06-17.05,15.12c-18.3,82.01-37.21,163.89-55.67,245.87c-1.73,8.36-9.55,15.56-18.31,15.27
	c-17.69-0.04-35.39,0.06-53.09-0.04c-6.35,0.01-11.65-6.78-10.27-12.94c16.61-74.75,34.16-149.28,50.8-224.02
	c2.31-10.34,4.83-20.74,9.32-30.39c5.3-11,12.39-21.29,21.76-29.23C594.85,11.81,610.35,4.91,626.52,2.73 M414.34,2.49
	c2.5-0.64,5.08-0.87,7.65-0.84c25.33,0.19,50.65-0.12,75.97,0.16c9.42-0.1,17.81,8.76,17.18,18.16c-0.32,2.91-1.13,5.74-1.73,8.6
	c-7.22,32.77-14.67,65.5-21.99,98.25c-4.26,19.21-15.34,36.61-30.18,49.42c-21.65,18.1-47.58,30.41-74.44,38.63
	c-21.74,6.77-44.08,11.33-66.39,15.73c-2.12,0.51-4.41,1.11-5.93,2.78c-1.02,1.96,0.59,4.24,2.63,4.56
	c6.16,1.6,12.56,1.87,18.82,2.85c19.94,3.18,39.59,9.16,57.29,19c9.93,5.63,19.57,12.13,27.09,20.82
	c14.23,16.12,22.12,38.33,18.98,59.83c-6.08,39.32-16.55,77.78-24.62,116.71c-2.01,9.65-9.44,17.75-18.56,21.25
	c-5.73,2.41-12.04,1.72-18.09,1.79c-23-0.03-46.01,0.07-69.02-0.06c-10.18,0.33-19.25-10.11-16.98-20.16
	c5.39-25.42,11.46-50.7,16.92-76.1c2.9-14.11,5.28-28.6,3.78-43.03c-2.29-12.82-6.04-26.46-16.03-35.5
	c-12.12-10.15-26.1-18.43-41.47-22.52c-14.13-4.07-29.14-5.16-42.63-11.33c-5.61-2.69-11.28-5.9-15.02-11.03
	c-8.12-10.96-8.63-26.83-1.68-38.5c3.53-6.18,9.74-10.17,16.01-13.14c11.62-5.35,24.47-6.85,36.97-8.94
	c24.62-3.83,49.97-7.07,72.52-18.38c15.16-7.11,29.98-16.6,39.29-30.87c3.11-4.82,5.5-10.13,6.86-15.71
	c8.55-36.96,16.58-74.03,25.03-111.01C394.96,13.37,404,5.07,414.34,2.49 M121.39,2.56c4.46-1.12,9.09-0.85,13.64-0.88
	c23.63,0.17,47.26-0.17,70.9,0.16c9.98-0.05,18.45,10.35,16.28,20.12c-8.63,39.06-17.49,78.07-26.14,117.12
	c-3.13,12.9-16.08,22.1-29.15,22.13c-24.3,0.07-48.59-0.03-72.89,0.05c-6.72,0.04-13.97-2.71-17.55-8.69
	c-2.84-4.33-2.74-9.83-1.65-14.71c8.19-36.43,16.32-72.87,24.46-109.31c0.79-3.48,1.38-7.05,2.98-10.28
	C106,10.61,113.25,4.89,121.39,2.56"/>
<path class="st1" d="M1686.96,368.91c25.57-0.24,51.15-0.03,76.72-0.13c-1.05,6-2.42,11.94-3.56,17.92
	c-18.67-0.11-37.34,0.01-56.01-0.07c-1.91,9.4-3.78,18.81-5.67,28.21c17.79-0.01,35.58,0,53.37,0c-1.25,6.12-2.43,12.26-3.58,18.4
	c-17.9-0.03-35.81-0.1-53.71,0.05c-1.89,9.85-3.93,19.67-5.85,29.51c19.11,0.01,38.23-0.02,57.34,0.02
	c-1.23,5.95-2.4,11.91-3.55,17.87c-25.9,0.21-51.8,0.09-77.69,0.06C1672.09,443.45,1679.8,406.24,1686.96,368.91 M1252.19,480.76
	c7.4-37.34,14.88-74.67,22.34-112c7.18,0.12,14.36-0.01,21.54,0.05c6.98,28.34,14.05,56.67,20.95,85.03
	c17.93-28.39,36.15-56.59,54.03-85.01c6.98-0.02,13.96-0.05,20.94-0.01c-7.61,37.29-14.95,74.64-22.42,111.96
	c-6.41,0.01-12.81,0.01-19.2,0c5.19-26,10.43-52,15.56-78.02c-15.38,26.01-30.51,52.16-46.04,78.07
	c-5.86-0.04-11.71-0.04-17.56-0.06c-5.14-25.98-10.32-51.95-15.41-77.94c-5.23,25.96-10.39,51.95-15.58,77.92
	C1264.96,480.83,1258.57,480.76,1252.19,480.76 M847.24,480.85c23.19-37.39,46.56-74.67,69.79-112.04c7.47,0,14.94,0.02,22.42-0.05
	c8.69,37.35,17.42,74.68,26.11,112.03c-7.18-0.01-14.35,0-21.52-0.01c-2.19-10.16-4.45-20.31-6.61-30.47
	c-12.39-0.12-24.79,0.01-37.18-0.07c3.46-5.96,7.11-11.81,10.43-17.85c7.6-0.26,15.21,0,22.82-0.18
	c-3.13-13.78-5.86-27.66-9.29-41.37c-5.73,8.22-10.56,17.07-15.9,25.56c-12.98,21.43-25.98,42.85-38.89,64.32
	C862.03,480.91,854.63,480.7,847.24,480.85 M2064.82,374.82c21.94-9.85,47.3-8.37,69.92-1.65c-1.14,6.31-2.4,12.6-3.64,18.89
	c-16.71-5.92-35.28-8.39-52.59-3.71c-7.14,2.37-13.51,8.74-13.56,16.63c-0.72,3.96,1.62,8.6,5.85,9.25
	c11.9,1.69,24.11-0.72,35.92,1.98c5.79,1.3,11.78,3.88,15.03,9.13c3.37,4.86,3.78,11.04,3.04,16.74
	c-0.99,9.59-4.78,19.15-11.77,25.94c-7.69,7.61-18.38,11.39-28.94,12.7c-16.81,2.49-34.03,0.26-50.27-4.38
	c1.1-6.31,2.28-12.6,3.63-18.86c12.3,4.4,25.45,6.4,38.51,5.89c6-0.3,12.37-0.51,17.67-3.73c6.03-3.29,10.26-9.8,10.25-16.74
	c-0.13-3.68-2.6-7.44-6.36-8.15c-12.33-2.75-25.16,0.75-37.45-2.34c-6.99-1.47-13.65-6.31-15.54-13.45
	C2040.65,402.01,2048.98,382.55,2064.82,374.82 M536.5,369.32c16.53-2.79,33.85-1.8,49.66,3.98c-1.36,6.21-2.58,12.46-3.78,18.72
	c-14.21-5.8-30.2-8.06-45.25-4.42c-8.05,1.96-16.04,5.54-21.57,11.92c-9.22,10.44-12.52,24.86-12.35,38.5
	c0.16,8.05,3.44,16.75,10.77,20.86c10.13,5.9,22.5,4.99,33.62,3.12c2.27-11.02,4.42-22.06,6.67-33.08c6.9-0.02,13.8,0,20.7,0.02
	c-3.18,15.66-6.12,31.36-9.52,46.96c-19.48,6.54-41.12,8.36-60.83,1.72c-14.98-4.48-24.34-20.39-23.4-35.62
	c-0.09-18.25,4.76-37.06,16.21-51.55C506.96,378.52,521.65,371.72,536.5,369.32 M102.62,195.81c14.33-2.6,29.49,2.66,39.9,12.66
	c8.42,7.86,13.26,19.11,14,30.53c0.76,14.08-5.39,28.25-15.88,37.62c-6.76,6.13-15.52,9.8-24.5,11.13
	c-17.82,2.35-36.62-6.81-45.58-22.42c-6.16-9.82-7.36-22.03-5.46-33.28C68.61,213.78,84.34,198.89,102.62,195.81"/>
</svg>
