<svg xmlns="http://www.w3.org/2000/svg" viewBox="0 0 759.3 212.31"><defs><style>.cls-1{fill:#ff7800;}</style></defs><title>quickspin-logo</title><g id="Layer_2" data-name="Layer 2"><g id="Layer_1-2" data-name="Layer 1"><path class="cls-1" d="M131.85,0H14.11A14.11,14.11,0,0,0,0,14.11V198.2a14.11,14.11,0,0,0,14.11,14.11H131.85A14.11,14.11,0,0,0,146,198.2V14.11A14.11,14.11,0,0,0,131.85,0ZM121.22,113.26a35.59,35.59,0,0,1-7,21.21L95.33,159.93l21.9,20.26a3.15,3.15,0,0,1-2.14,5.45H87.5A6.29,6.29,0,0,1,83.23,184l-3.39-3.14h0l-2.72-2.52L73,174.49h0L62.67,165a3.16,3.16,0,0,1-.39-4.18l29.26-39.45a25.15,25.15,0,0,0,4.95-15V73.2c0-10.65-4.09-15.21-5.63-16.42C89.08,55.4,85.31,52.1,73,52.1s-16.1,3.3-17.88,4.68C53.56,58,49.47,62.55,49.47,73.2h0v35.14a20.94,20.94,0,0,0,6.72,15.37L66,132.79A3.16,3.16,0,0,1,66.4,137L54.66,152.79a3.14,3.14,0,0,1-4.65.44L36.16,140.41a35.61,35.61,0,0,1-11.42-26.13V62.56c0-14.88,4.52-21.6,9.72-26.17,5.89-5.18,16.42-9.73,38.52-9.73s32.63,4.55,38.52,9.73c5.2,4.57,9.72,11.29,9.72,26.17Z"/><path class="cls-1" d="M747.39,112.81v63.8h0v7l-33.68-61.13c-4.08-7.28-6.89-9.65-12.2-9.65s-9.06,3.67-9.06,11V138h0v63.8h11.91V138h0v-7L738,192.13h0c4.08,7.28,6.89,9.65,12.2,9.65s9.07-3.67,9.07-11V176.61h0v-63.8Z"/><path class="cls-1" d="M510.13,112.86H493.82L461,147.91v-35h-11.9v89.05H461V165.32l3.51-3.75,30.21,40.34h15.44l-37.42-49.12Z"/><path class="cls-1" d="M634.14,118.2c-6.63-4.36-14.22-5.34-21.7-5.34H590.51v89.05h12.34v-31.3h9.59c7.48,0,15.07-1,21.7-5.34s12.1-11.79,12.1-23.53S640.72,122.54,634.14,118.2Zm-6.32,37.17c-3.31,2.62-8.45,4.24-15.38,4.24h-9.59V123.86h9.59c6.93,0,12.07,1.62,15.38,4.24a17.29,17.29,0,0,1,0,27.27Z"/><path class="cls-1" d="M244.32,191.43a34.71,34.71,0,0,0,4-6.34c3.21-6.61,3.19-14.2,3.18-19.22V148.35c0-5,0-12.61-3.18-19.22-5.69-11.72-15.86-17.6-27.93-17.62h-.15c-12.06,0-22.23,5.9-27.92,17.62-3.21,6.61-3.19,14.2-3.18,19.22v17.52c0,5,0,12.61,3.18,19.22,5.7,11.74,15.9,17.62,28,17.62h0a31.71,31.71,0,0,0,13.59-2.91l9.58,12.51h16.87Zm-4.78-25.05c0,4.07.05,9.63-2,13.82-2.15,4.42-7.28,11.11-17.29,11.11S205.13,184.62,203,180.2s-2-10.73-2-14.8V148.82c0-4.07-.16-10.38,2-14.8s7.28-11.11,17.29-11.11,15.14,6.69,17.29,11.11,2,10.73,2,14.8v17.56Z"/><path class="cls-1" d="M398.83,127.27c8.14-6.14,17.43-6.78,31.77-3.44V115.6s-7.1-4.09-18.37-4.09-17.84,2.91-23.07,7.57c-6,5.3-10.55,13.79-11.88,27h0a99.56,99.56,0,0,0-.54,11.36,99.32,99.32,0,0,0,.54,11.35h0c1.33,13.17,5.92,21.66,11.88,27,5.23,4.65,11.72,7.56,23.07,7.56s18.37-4.09,18.37-4.09V191c-14.34,3.34-23.63,2.7-31.77-3.43-8.3-6.25-9.95-17.9-10-30.13S390.53,133.52,398.83,127.27Z"/><path class="cls-1" d="M555.59,121.92a146.76,146.76,0,0,1,18.12,1.87V114.2a79.17,79.17,0,0,0-24.06-2.6,70.38,70.38,0,0,0-14,1.93c-6.54,1.69-10.17,4.8-12.2,7.87a14.66,14.66,0,0,0-1.58,13,1.89,1.89,0,0,1,.06.18c.14.39.29.78.46,1.18,2.3,5.94,5.8,10.49,10.76,15.87,5.32,5.76,16.36,16.07,21,21.61,2.89,3.55,6.29,8.28,4.6,12.36-1.86,4.47-10,7.57-19.73,7.29A162.18,162.18,0,0,1,520.9,191v9.54s7.54,3.32,24.05,2.66,23.07-5.08,26.19-9.8a18.15,18.15,0,0,0,2.55-8.64v-.25a13.22,13.22,0,0,0-.06-1.53c-.24-4.57-1.18-8-7-14.74-6.53-7.52-18.24-18.62-23.51-24.1l-1.45-1.52c-3.86-4.14-8.09-9.3-6.12-14.22C537.63,123.24,546.83,121.74,555.59,121.92Z"/><rect class="cls-1" x="348.12" y="112.86" width="12.34" height="89.05"/><rect class="cls-1" x="661.54" y="112.72" width="12.34" height="89.05"/><path class="cls-1" d="M280.15,112.86H268.24v58.36c0,10.44,3.52,32,30.29,32s30.3-21.6,30.3-32V112.86H316.92v58.36h0c0,18.61-12.74,20.95-18.39,20.95s-18.38-2.34-18.38-20.95Z"/></g></g></svg>