<svg width="221" height="56" viewBox="0 0 221 56" fill="none" xmlns="http://www.w3.org/2000/svg">
<path d="M18.8601 4.35381L35.1933 46.4269L27.7522 53.8769H9.99679L2.42633 46.4269L18.8601 4.35381ZM18.8601 0.391968L0.745605 46.8001L9.40781 55.3267H28.3555L36.8741 46.7857L18.8601 0.391968Z" fill="#BE0000"/>
<path d="M17.668 35.9912C15.2115 34.3978 7.43995 38.0152 7.43995 38.0152L4.39453 45.7522L8.04329 49.4126C8.9483 48.5801 21.5322 38.5176 17.668 35.9912Z" fill="#BE0000"/>
<path d="M19.5928 9.88028C19.5928 9.88028 17.6535 15.7656 15.8866 21.0194C13.4158 28.3115 14.1628 30.3785 17.4955 29.345C22.2791 27.8808 25.7124 25.4693 26.8329 30.8379C28.0252 37.039 22.3079 42.9674 17.395 47.3743C15.2545 49.2834 12.7837 51.1064 11.2754 52.2117H27.1777L33.5271 45.7235L19.5928 9.88028Z" fill="#BE0000"/>
<path d="M51.3288 35.5005C49.7902 35.5005 48.3594 35.2038 47.0367 34.6373C45.714 34.0708 44.5262 33.1267 43.5544 31.9129L45.3361 30.4023C46.0379 31.2925 46.9287 32.0478 47.9545 32.5873C49.0073 33.1267 50.1681 33.3965 51.4098 33.3965C52.1657 33.3965 52.8405 33.2616 53.4884 33.0188C54.1093 32.7761 54.6221 32.4524 55.0811 32.0208C55.513 31.6162 55.8369 31.1037 56.0798 30.5102C56.3228 29.9168 56.4308 29.3503 56.4308 28.676C56.4308 28.0825 56.3228 27.57 56.1068 27.0845C55.8909 26.6259 55.5939 26.2483 55.243 25.9246C54.8921 25.6009 54.4602 25.2772 53.9743 25.0344C53.4884 24.7917 52.9755 24.5489 52.4086 24.3331L49.6282 23.2541C48.9803 23.0114 48.3594 22.7147 47.7386 22.364C47.1447 22.0133 46.6318 21.6357 46.1459 21.1501C45.687 20.6646 45.3361 20.1251 45.0661 19.4508C44.7962 18.8304 44.6612 18.0751 44.6612 17.1849C44.6612 16.3487 44.8502 15.5125 45.2011 14.7842C45.552 14.0559 46.0379 13.4355 46.6588 12.869C47.2797 12.3295 47.9815 11.9249 48.8453 11.6012C49.6822 11.2775 50.6 11.1427 51.5718 11.1427C52.9485 11.1427 54.1362 11.3315 55.0811 11.7361C55.9989 12.1407 56.9167 12.6802 57.7265 13.4355L56.2148 15.1618C55.5939 14.5684 54.9191 14.1098 54.1362 13.7862C53.4074 13.4625 52.5166 13.3006 51.5448 13.3006C50.9239 13.3006 50.33 13.4085 49.7901 13.5704C49.2773 13.7592 48.8183 14.0289 48.4134 14.3796C48.0085 14.7303 47.7116 15.1349 47.4686 15.6204C47.2527 16.079 47.1177 16.5915 47.1177 17.1849C47.1177 17.6974 47.2257 18.156 47.4146 18.5606C47.6036 18.9652 47.8735 19.2889 48.1705 19.6126C48.4944 19.9093 48.8723 20.1791 49.3043 20.4218C49.7362 20.6646 50.2221 20.8534 50.708 21.0692L53.4074 22.1482C54.1093 22.4179 54.7571 22.7416 55.432 23.0923C56.0798 23.443 56.6467 23.8745 57.1866 24.3871C57.7265 24.8996 58.0774 25.493 58.3744 26.1943C58.6713 26.8687 58.8063 27.7049 58.8063 28.649C58.8063 29.5931 58.6173 30.5102 58.2394 31.3195C57.8615 32.1287 57.3216 32.884 56.6197 33.5044C55.9449 34.1248 55.162 34.5834 54.2172 34.934C53.3534 35.3386 52.3546 35.5005 51.3288 35.5005Z" fill="white"/>
<path d="M61.9915 11.4664H69.4959C70.2787 11.4664 71.0346 11.5203 71.7634 11.6552C72.4923 11.7901 73.1131 11.9789 73.68 12.2486C74.7328 12.8151 75.6236 13.6243 76.3525 14.7033C77.0813 15.7823 77.4322 17.104 77.4322 18.6415C77.4322 19.5317 77.3243 20.3949 77.0813 21.1502C76.8384 21.9054 76.5414 22.5798 76.1365 23.2002C75.7316 23.7936 75.2997 24.3062 74.7868 24.7377C74.2739 25.1424 73.734 25.466 73.1401 25.6818C72.6542 25.8437 72.1143 25.9516 71.4935 26.0325C70.9266 26.0865 70.2247 26.1134 69.3609 26.1134H64.4749V35.0689H62.0184L61.9915 11.4664ZM69.3609 24.0364C69.9818 24.0364 70.4947 24.0364 70.8996 24.0094C71.2775 23.9825 71.6824 23.9015 72.1144 23.7397C72.4923 23.6048 72.8702 23.389 73.1941 23.0923C73.5181 22.7956 73.815 22.4179 74.0849 22.0133C74.3549 21.5817 74.5438 21.0962 74.7058 20.5567C74.8678 20.0172 74.9218 19.4238 74.9218 18.7764C74.9218 17.6165 74.7058 16.6454 74.2469 15.9171C73.788 15.1888 73.2481 14.6224 72.5463 14.2447C71.7904 13.8131 70.7376 13.5973 69.4419 13.5973H64.421V24.0634L69.3609 24.0364Z" fill="white"/>
<path d="M80.5098 32.9919H95.0867V35.0959H80.5368L80.5098 32.9919ZM80.5368 11.4664H95.0867V13.5704H80.5368V11.4664ZM80.5368 21.9054H94.5199V24.0364H80.5368V21.9054Z" fill="white"/>
<path d="M107.45 10.3604L118.005 35.0689H115.305L107.45 16.2948L99.5136 35.0689H96.8142L107.45 10.3604Z" fill="white"/>
<path d="M122.918 35.0689H120.461V11.4394H128.884C129.64 11.4394 130.395 11.4933 131.097 11.6012C131.799 11.7091 132.447 11.9249 133.068 12.2217C134.175 12.7881 135.119 13.5973 135.821 14.7303C136.523 15.8362 136.874 17.158 136.874 18.6415C136.874 19.7205 136.712 20.6916 136.361 21.5548C136.01 22.4179 135.605 23.2002 135.065 23.8206C134.553 24.441 133.959 24.9266 133.257 25.2772C132.582 25.6279 131.934 25.8437 131.232 25.8976C132.231 27.4352 133.23 28.9457 134.202 30.4833C135.173 32.0208 136.145 33.5044 137.117 35.0419H134.175C133.23 33.5314 132.258 32.0748 131.34 30.5642C130.395 29.0536 129.451 27.57 128.506 26.0595V23.9555C129.208 23.9555 129.774 23.9555 130.233 23.9285C130.638 23.9015 131.097 23.8206 131.583 23.6588C131.988 23.5239 132.366 23.3081 132.717 23.0114C133.068 22.6877 133.338 22.337 133.608 21.9054C133.851 21.4738 134.04 20.9883 134.175 20.3949C134.31 19.8554 134.391 19.2889 134.391 18.6955C134.391 17.5895 134.175 16.6454 133.77 15.8902C133.365 15.1349 132.771 14.5684 132.042 14.1368C131.61 13.8941 131.124 13.7322 130.611 13.6513C130.071 13.5434 129.532 13.5164 128.911 13.5164H122.945L122.918 35.0689Z" fill="white"/>
<path d="M161.304 32.9919H175.881V35.0689H161.331L161.304 32.9919Z" fill="#BE0000"/>
<path d="M175.881 11.4664H161.331V13.5704H175.881V11.4664Z" fill="#BE0000"/>
<path d="M175.314 21.9054H161.331V24.0364H175.314V21.9054Z" fill="#BE0000"/>
<path d="M155.014 11.4664V21.9054H142.3V11.4664H139.871V35.0689H142.3V24.0364H155.014V35.0689H157.471V11.4664H155.014Z" fill="#BE0000"/>
<path d="M188.352 10.3604L198.907 35.0689H196.208L188.352 16.2948L180.443 35.0689H177.744L188.352 10.3604Z" fill="#BE0000"/>
<path d="M201.364 11.4664H208.031C208.463 11.4664 208.976 11.4933 209.624 11.5203C210.245 11.5473 210.812 11.6282 211.406 11.7361C212.701 11.9789 213.916 12.4105 215.05 13.0309C216.184 13.6513 217.182 14.4605 218.019 15.4586C218.856 16.4297 219.531 17.6165 220.017 18.8843C220.503 20.1521 220.746 21.6357 220.746 23.1732C220.746 24.6298 220.53 26.0055 220.098 27.2464C219.666 28.4872 219.045 29.6201 218.262 30.6182C217.506 31.6162 216.562 32.4794 215.482 33.1537C214.429 33.8281 213.241 34.3406 212.027 34.6643C211.46 34.8261 210.893 34.934 210.218 34.961C209.597 35.015 208.895 35.015 208.112 35.015H201.391L201.364 11.4664ZM207.977 32.9919C208.652 32.9919 209.273 32.9649 209.867 32.9379C210.434 32.884 210.974 32.8031 211.487 32.6682C212.485 32.4254 213.403 31.9938 214.24 31.4274C215.077 30.8609 215.806 30.1596 216.373 29.3234C216.967 28.5141 217.425 27.597 217.749 26.599C218.073 25.6009 218.235 24.495 218.235 23.3351C218.235 22.0673 218.073 20.8804 217.722 19.8284C217.371 18.7764 216.913 17.8323 216.292 17.0231C215.671 16.2139 214.915 15.5125 214.024 15C213.16 14.4605 212.162 14.0829 211.136 13.8401C210.677 13.7322 210.164 13.6783 209.57 13.6243C209.003 13.5973 208.463 13.5704 207.977 13.5704H203.847V32.9919H207.977Z" fill="#BE0000"/>
<path d="M167.761 55.3756C167.406 55.3555 167.054 55.2951 166.712 55.1955C166.312 55.0986 165.93 54.9383 165.581 54.7208C165.245 54.5219 164.937 54.2797 164.664 54.0005C164.422 53.7078 164.234 53.3754 164.107 53.0182C164.005 52.7384 163.939 52.4469 163.91 52.1506C163.885 51.8291 163.885 51.5062 163.91 51.1847V44.0636H165.073V51.2502C165.073 51.463 165.073 51.6922 165.073 51.905C165.094 52.126 165.133 52.3449 165.188 52.5599C165.38 53.0937 165.75 53.5449 166.237 53.8368C166.499 54.0071 166.787 54.1342 167.089 54.2133C167.317 54.2906 167.554 54.3401 167.794 54.3606V55.3756H167.761ZM168.351 54.377C168.58 54.3594 168.807 54.3098 169.023 54.2297C169.323 54.1443 169.61 54.0176 169.875 53.8531C170.117 53.7037 170.333 53.5157 170.514 53.2965C170.69 53.0861 170.818 52.8405 170.891 52.5762C170.952 52.3673 170.996 52.1538 171.022 51.9378C171.022 51.7086 171.022 51.4794 171.022 51.283V44.1127H172.153V51.1847C172.153 51.4958 172.153 51.8396 172.153 52.1506C172.137 52.4473 172.076 52.7399 171.972 53.0182C171.84 53.3766 171.646 53.709 171.399 54.0005C171.148 54.3055 170.842 54.5609 170.497 54.7535C170.144 54.9714 169.756 55.1265 169.35 55.2119C169.027 55.3155 168.69 55.3761 168.351 55.392V54.377Z" fill="white"/>
<path d="M154.864 45.0785H151.882V44.0799H158.994V45.0785H156.028V55.2446H154.864V45.0785Z" fill="white"/>
<path d="M177.085 44.0801H180.231C180.471 44.0648 180.712 44.0648 180.952 44.0801C181.233 44.1064 181.512 44.1502 181.788 44.211C182.365 44.326 182.919 44.5362 183.426 44.8331C183.957 45.126 184.43 45.5145 184.819 45.979C185.217 46.4737 185.537 47.0256 185.77 47.6161C185.989 48.2705 186.099 48.9561 186.097 49.646C186.098 50.3024 185.993 50.9547 185.786 51.5778C185.592 52.1691 185.299 52.7228 184.918 53.2148C184.56 53.6819 184.122 54.0812 183.623 54.3935C183.12 54.7223 182.567 54.9657 181.984 55.1138C181.706 55.1894 181.42 55.2387 181.132 55.2611C180.837 55.2611 180.509 55.2611 180.133 55.2611H176.855L177.085 44.0801ZM180.215 54.2625C180.509 54.2884 180.805 54.2884 181.099 54.2625C181.356 54.255 181.609 54.2109 181.853 54.1315C182.319 54.0053 182.758 53.7945 183.148 53.5095C183.532 53.2379 183.869 52.9062 184.147 52.5272C184.436 52.1414 184.658 51.7097 184.803 51.2503C184.948 50.75 185.025 50.2324 185.032 49.7115C185.033 49.1578 184.956 48.6068 184.803 48.0745C184.653 47.6039 184.426 47.1614 184.131 46.7648C183.829 46.3893 183.469 46.0634 183.066 45.799C182.633 45.555 182.17 45.3679 181.689 45.2424C181.445 45.1973 181.199 45.1645 180.952 45.1441H178.248V54.3116H180.215V54.2625Z" fill="white"/>
<path d="M191.031 44.0799H192.193V55.2446H191.031V44.0799Z" fill="white"/>
<path d="M143.541 55.3757C142.843 55.3826 142.151 55.2432 141.509 54.9664C140.863 54.6867 140.299 54.2472 139.871 53.6895L140.706 53.0019C141.032 53.4288 141.445 53.7806 141.919 54.0333C142.424 54.2973 142.987 54.4322 143.558 54.4262C143.893 54.4304 144.225 54.375 144.541 54.2625C144.807 54.1471 145.051 53.9864 145.262 53.7877C145.462 53.59 145.623 53.3569 145.737 53.1002C145.855 52.8259 145.916 52.5309 145.917 52.2325C145.921 51.9776 145.865 51.7253 145.754 51.4958C145.653 51.2816 145.514 51.0874 145.344 50.9229C145.158 50.7643 144.954 50.627 144.738 50.5136L144 50.2026L142.689 49.6951C142.386 49.5698 142.091 49.4277 141.804 49.2695C141.241 48.9656 140.797 48.4812 140.542 47.8943C140.395 47.5599 140.327 47.1954 140.346 46.8303C140.354 46.4484 140.432 46.0711 140.575 45.7171C140.732 45.3681 140.968 45.06 141.263 44.8167C141.578 44.5552 141.932 44.3452 142.312 44.1946C142.722 44.0485 143.155 43.9765 143.59 43.9818C144.149 43.9703 144.705 44.0647 145.229 44.2601C145.686 44.449 146.107 44.7148 146.475 45.0459L145.786 45.848C145.502 45.5743 145.169 45.3576 144.803 45.2096C144.415 45.0443 143.996 44.9661 143.574 44.9804C143.299 44.9756 143.026 45.0257 142.771 45.1277C142.528 45.2126 142.305 45.3463 142.116 45.5206C141.928 45.6798 141.782 45.882 141.69 46.11C141.581 46.3344 141.525 46.5808 141.526 46.8303C141.52 47.0574 141.571 47.2823 141.673 47.4851C141.762 47.6699 141.884 47.8365 142.034 47.9762C142.21 48.1148 142.396 48.2406 142.591 48.3527C142.803 48.4645 143.022 48.5629 143.246 48.6474L144.508 49.1549C144.827 49.2911 145.139 49.4441 145.442 49.6133C146.057 49.9373 146.546 50.4553 146.835 51.0866C146.982 51.4562 147.055 51.8512 147.048 52.2489C147.045 52.6823 146.956 53.1107 146.786 53.5094C146.603 53.8934 146.347 54.2382 146.032 54.5244C145.709 54.8203 145.33 55.0485 144.918 55.1956C144.468 55.3091 144.006 55.3695 143.541 55.3757V55.3757Z" fill="white"/>
<path d="M202.37 44.9478C201.871 44.9897 201.384 45.1171 200.928 45.3243C200.371 45.562 199.873 45.9197 199.47 46.372C198.654 47.2686 198.199 48.4346 198.191 49.6462C198.188 50.263 198.305 50.8746 198.536 51.4469C198.746 52.0048 199.063 52.5164 199.47 52.953C199.883 53.3854 200.379 53.7305 200.928 53.968C201.384 54.1718 201.872 54.2937 202.37 54.3281V55.3267C201.741 55.2839 201.122 55.1459 200.535 54.9175C199.848 54.6407 199.224 54.2287 198.699 53.706C198.175 53.196 197.762 52.5828 197.487 51.9053C197.184 51.1933 197.029 50.4278 197.029 49.6543C197.029 48.8809 197.184 48.1154 197.487 47.4034C198.077 46.0277 199.174 44.9316 200.551 44.3421C201.129 44.099 201.744 43.9551 202.37 43.9165V44.9478Z" fill="white"/>
<path d="M203.042 44.9475V43.9653C203.684 44.0039 204.315 44.1477 204.91 44.3909C205.974 44.8081 206.887 45.5357 207.531 46.4788C208.174 47.422 208.518 48.5371 208.518 49.6786C208.518 50.8201 208.174 51.9351 207.531 52.8783C206.887 53.8215 205.974 54.5491 204.91 54.9663C204.306 55.1947 203.671 55.3327 203.026 55.3755V54.3769C203.53 54.3171 204.025 54.1961 204.5 54.0168C208.269 52.7071 208.335 47.0593 204.5 45.324C204.041 45.113 203.547 44.9855 203.042 44.9475V44.9475Z" fill="white"/>
<path d="M217.053 55.3755C216.359 55.3826 215.673 55.2431 215.037 54.9662C214.391 54.6865 213.827 54.247 213.398 53.6893L214.218 53.0018C214.549 53.429 214.968 53.7806 215.447 54.0331C215.951 54.2997 216.515 54.4348 217.085 54.426C217.426 54.4304 217.764 54.375 218.085 54.2623C218.349 54.1429 218.592 53.9827 218.806 53.7875C219.001 53.5854 219.161 53.3532 219.281 53.1C219.399 52.8258 219.46 52.5307 219.462 52.2323C219.465 51.9774 219.409 51.7251 219.298 51.4957C219.197 51.2814 219.058 51.0873 218.888 50.9227C218.702 50.7641 218.499 50.6268 218.282 50.5134L217.544 50.2024L216.233 49.6949C215.929 49.5729 215.634 49.4307 215.348 49.2693C214.785 48.9654 214.341 48.481 214.087 47.8942C213.939 47.5597 213.872 47.1953 213.89 46.8301C213.898 46.4482 213.976 46.0709 214.119 45.7169C214.287 45.374 214.521 45.0679 214.808 44.8165C215.12 44.5527 215.475 44.3425 215.856 44.1944C216.266 44.047 216.699 43.9749 217.135 43.9816C217.693 43.9713 218.249 44.0657 218.773 44.2599C219.23 44.4488 219.652 44.7146 220.019 45.0457L219.33 45.8479C219.041 45.5736 218.702 45.357 218.331 45.2094C217.947 45.0503 217.534 44.9723 217.118 44.9802C216.843 44.9755 216.57 45.0255 216.315 45.1276C216.072 45.2124 215.849 45.3461 215.66 45.5205C215.472 45.6797 215.326 45.8818 215.234 46.1098C215.134 46.3253 215.082 46.5599 215.082 46.7974C215.082 47.0348 215.134 47.2694 215.234 47.4849C215.327 47.6711 215.455 47.8378 215.611 47.976C215.787 48.1146 215.973 48.2404 216.168 48.3525C216.374 48.4642 216.588 48.5626 216.807 48.6472L218.069 49.1547C218.395 49.2876 218.712 49.4407 219.019 49.6131C219.317 49.779 219.587 49.9887 219.822 50.2351C220.061 50.4838 220.255 50.7718 220.396 51.0864C220.551 51.4537 220.623 51.8504 220.609 52.2487C220.605 52.6804 220.521 53.1077 220.363 53.5092C220.174 53.8897 219.919 54.2334 219.609 54.5242C219.286 54.8201 218.907 55.0483 218.495 55.1954C218.023 55.3114 217.539 55.3719 217.053 55.3755V55.3755Z" fill="white"/>
</svg>
