<svg width="783" height="225" viewBox="0 0 783 225" fill="none" xmlns="http://www.w3.org/2000/svg">
<g clip-path="url(#clip0_168_1573)">
<path d="M276.2 87.4L230.3 88.8C228.7 88.9 227.4 90.2 227.4 91.9V92L228.2 104.5C228.3 106.1 229.6 107.3 231.2 107.3L243.7 107.1L246.5 165.9C246.5 166.7 246.9 167.4 247.5 168C248.1 168.5 248.9 168.8 249.7 168.7L263.9 167.8C265.4 167.6 266.6 166.3 266.5 164.7L264.9 106.8L277.3 106.6C278.9 106.6 280.2 105.2 280.2 103.6C280.2 103.5 280.2 103.5 280.2 103.4L279.3 90.1C279 88.6 277.7 87.4 276.2 87.4ZM329.7 91.2L315.9 90.4C314.3 90.4 313 91.6 312.9 93.2L312.7 123.9L306.7 125.2L305.2 90.4C305.1 88.8 303.8 87.6 302.3 87.6L288.6 87.9C287.8 87.9 287 88.2 286.5 88.8C285.9 89.4 285.6 90.1 285.6 90.9L288.2 168.2C288.2 169.8 289.5 171.1 291.1 171.1L304.8 170.8C306.4 170.8 307.7 169.5 307.8 167.9V167.8L306.3 141.9L311.7 142.3L312.6 165.5C312.5 166.3 312.8 167.1 313.4 167.7C314 168.3 314.7 168.6 315.5 168.6L329.8 169.6H330C331.5 169.5 332.8 168.3 332.8 166.8V94.3C332.8 93.5 332.5 92.7 332 92.2C331.3 91.6 330.5 91.2 329.7 91.2ZM381.2 84.7L368.6 85.7C367.1 85.9 366 87.1 366 88.6C366 88.6 366 136.9 366 143.2C366 146.9 366.4 153.2 362.3 153.4C359.5 153.4 358.5 149.4 358.4 143.5C358.4 136.9 358.9 92 358.9 91.5C358.9 90 357.8 88.7 356.3 88.5L341.7 87C340.1 86.8 338.6 88 338.5 89.6C338.5 89.7 338.5 89.8 338.5 90C338.5 90 339 146.7 339.1 148.7C339.4 160.1 348.8 169.1 360.1 168.8C360.3 168.8 360.6 168.8 360.8 168.8C378.7 168.3 381.9 157.7 383 145.4C383.5 140.2 384.3 93 384.4 87.8C384.4 86.2 383.1 84.8 381.4 84.8C381.3 84.7 381.2 84.7 381.2 84.7ZM436.7 87.8L423.7 88.4C422.1 88.5 420.8 89.9 420.9 91.5C420.9 91.5 420.9 91.5 420.9 91.6L423.1 128L409.5 90.5C409 89.2 407.8 88.5 406.4 88.6L393.3 90.1C391.8 90.3 390.7 91.6 390.7 93.1L392.9 164.7C392.9 166.2 394 167.4 395.5 167.6L408.7 168.6C410.3 168.7 411.7 167.5 411.8 165.9C411.8 165.8 411.8 165.6 411.8 165.5L409.7 134.3L421.1 166.8C421.5 167.9 422.5 168.7 423.7 168.7H437.9C439.5 168.7 440.8 167.3 440.8 165.7C440.8 165.6 440.8 165.5 440.8 165.5L440 90.8C440 90 439.6 89.2 439.1 88.7C438.4 88 437.5 87.7 436.7 87.8ZM454.3 86.3H451.5C449.9 86.3 448.7 87.6 448.6 89.1L446.2 163.4C446.1 164.9 447.3 166.2 448.8 166.4C448.8 166.4 450.5 166.5 453.1 166.5C462.3 166.5 484.3 164.8 489.5 149.3C493.7 136.3 493.1 118.8 492.1 110.4C490 94.2 477.6 86.3 454.3 86.3ZM473.9 135.3C472.3 147.9 468.4 148.6 464.1 150.1L466.1 103.4C468.5 103.7 470.6 105 471.9 107C475.5 111.7 475.5 123 473.9 135.3ZM535.2 153.5L518 154.9L517.2 138.8L528.4 138.2C529.8 138.1 531 137 531.1 135.6L532.1 125.7C532.2 124.8 531.9 124 531.3 123.4C530.7 122.8 529.9 122.4 529 122.5L516.9 123.1V105.6H534.8C536.4 105.6 537.7 104.3 537.8 102.7V102.6C537.8 102.4 537.8 102.2 537.8 101.9L536.8 91.5C536.6 90 535.3 88.9 533.8 88.9L501 89.8C499.4 89.8 498.1 91.2 498.1 92.8L499.1 166.3C499.1 167.9 500.4 169.2 502 169.2H535.1C536.7 169.2 538 167.9 538 166.3L538.3 156.7C538.3 155.9 538 155.1 537.4 154.5C536.9 153.8 536.1 153.4 535.2 153.5ZM588.7 110.4C588 100 584.4 86.4 561.9 86.4C556.3 86.5 550.6 87.1 545.1 88.3C543.7 88.6 542.7 89.8 542.7 91.2L543.7 163.1C543.7 164.6 544.8 165.8 546.3 166L556.7 166.8C557.5 166.9 558.3 166.6 558.9 166C559.5 165.4 559.8 164.7 559.8 163.8V140.6L565 140.3L570.8 165.1C571.1 166.5 572.3 167.5 573.7 167.5H573.9L584.3 166.7C585.1 166.6 585.9 166.2 586.4 165.6C586.9 164.9 587.1 164.1 587 163.3L579.7 135.7C585 131.7 589.7 124.6 588.7 110.4ZM570.1 120.5C567.3 122.9 563.7 124.3 560 124.4V103.2C560.9 103 561.9 102.9 562.8 102.9C566.7 102.9 571.6 104.7 572.2 113.1C572.6 115.8 571.8 118.5 570.1 120.5ZM628.1 131.4C637.9 119.9 642.9 105.1 642 90C641.9 88.4 640.5 87.1 638.9 87.2L626.6 88C625 88.1 623.8 89.5 623.9 91.1C624.3 97.6 620 111.3 613.9 120L614.8 92C614.8 90.4 613.6 89 611.9 89H611.8L596 89.2C594.4 89.2 593.1 90.5 593.1 92.1C593.1 92.1 593.1 92.1 593.1 92.2L594.7 166.6C594.7 168.2 596.1 169.5 597.7 169.5C597.8 169.5 597.9 169.5 598 169.5L610.3 167.9C611.8 167.7 612.9 166.5 612.9 165L613.1 143.2C615.7 144.7 622.9 155.3 624.2 165.8C624.4 167.3 625.6 168.4 627.1 168.4H640.1H640.3C641.9 168.3 643.1 167 643 165.4C642.9 162.7 638.5 139.8 628.1 131.4ZM664.8 85.6L650.8 87.4C649.3 87.6 648.2 88.8 648.2 90.3V163.2C648.2 164.8 649.5 166.1 651.1 166.1H651.2L666.5 165C668 164.8 669.1 163.5 669.1 162L668 88.4C668 87.6 667.6 86.8 667 86.2C666.4 85.7 665.6 85.5 664.8 85.6ZM694.7 87.7C690.4 88 676.5 90.5 675.3 111.1C675.1 113.7 675 116.2 674.9 118.6C674 132.6 673.4 142.7 675.2 151.4C676.3 156.6 680.7 168.8 698 168.8C699.1 168.8 700.2 168.8 701.3 168.6C708.5 168 713.9 165.7 717.2 161.7C722 156.1 721.3 148.7 721 144.9V144.1C720.8 142.6 719.5 141.4 717.9 141.5L707 142C705.4 142.1 704.1 143.5 704.2 145.1C704.2 145.2 704.2 145.3 704.2 145.4C704.7 148.3 704.2 151.3 702.8 153.8C701.9 154.8 700.7 155.3 699.4 155.2H699.2C697.8 155.3 696.5 154.7 695.5 153.7C693.9 152 692.1 147.9 692.6 137.9C692.6 135.6 692.8 132.9 692.9 130.1C693.2 122.6 693.5 114.1 694.2 108.7V108.5C694.7 104.4 695.5 102.7 698.9 102.6C700.7 102.3 702.6 102.8 703.9 104.1C704.7 105.4 705 107 704.8 108.6C704.5 110.2 705.5 111.7 707.1 112.1C707.3 112.1 707.5 112.2 707.7 112.2L720.9 112.4C722.5 112.4 723.8 111.2 723.9 109.6C723.9 104.2 721.8 98.9 718.1 94.9C712.9 89.5 705 87 694.7 87.7ZM782.2 162.3C782 161.4 776.3 139.1 764.8 128.5C770.5 123.3 782 112.6 778.1 88.7C777.8 87.2 776.4 86.1 774.9 86.2L759.7 87.9C758.9 88 758.2 88.4 757.7 89C757.2 89.6 757 90.4 757.2 91.2C757.2 91.4 760.3 108.8 748.6 119.2L748.9 89.7C748.9 88.1 747.6 86.8 746 86.7C745.9 86.7 745.8 86.7 745.6 86.7L730.4 88.4C728.9 88.6 727.8 89.9 727.8 91.4L729.6 165.4C729.6 166.2 730 167 730.6 167.6C731.2 168.1 731.9 168.4 732.6 168.3H732.8L745.7 166.9C747.1 166.7 748.2 165.6 748.3 164.1L749.4 141C753.5 145.2 760.3 156 761.4 165C761.6 166.6 763 167.8 764.6 167.6L779.8 165.9C780.6 165.8 781.4 165.4 781.9 164.7C782.2 164 782.4 163.1 782.2 162.3Z" fill="white"/>
<path d="M197.4 153.6L204.2 105.5L175.4 45.2L156 51.9L130.5 24.5L85.3 0L75.4 36.5L68.4 17.4L33.9 51.1L14.5 85L13.6 120.1L0 113.6L9.3 169.8L30.4 206L80.2 223L121 224.5L191.3 198.8L211.5 148.8L197.4 153.6ZM167 127L127.1 128L125.7 172.9L123.5 199.5L88.8 199V173.5L86 129.1L44.3 130.9L42.9 87.8L104.3 87.4L167.8 85.6L168.9 91.3L167 127Z" fill="white"/>
</g>
<defs>
<clipPath id="clip0_168_1573">
<rect width="782.2" height="224.5" fill="white"/>
</clipPath>
</defs>
</svg>