<svg width="187" height="45" viewBox="0 0 187 45" fill="none" xmlns="http://www.w3.org/2000/svg">
<g clip-path="url(#clip0_165_455)">
<path d="M175.46 12.952H178.999V25.876H186.506V29.107H175.46V12.952ZM168.97 29.107H172.508V12.952H168.97V29.107ZM153.57 26.646C155.449 28.3187 157.879 29.2389 160.395 29.23C163.865 29.23 166.301 27.43 166.301 24.223V24.177C166.301 21.361 164.463 20.185 161.201 19.33C158.422 18.615 157.731 18.268 157.731 17.208V17.162C157.731 16.376 158.443 15.754 159.799 15.754C161.322 15.8482 162.78 16.4034 163.981 17.346L165.819 14.669C164.128 13.3073 162.015 12.5805 159.845 12.615C156.558 12.615 154.214 14.554 154.214 17.485V17.531C154.214 20.739 156.306 21.638 159.545 22.47C162.234 23.162 162.786 23.623 162.786 24.523V24.569C162.786 25.515 161.913 26.092 160.464 26.092C158.679 26.042 156.973 25.3447 155.664 24.13L153.572 26.646H153.57ZM152.848 29.165L145.953 12.895H142.69L135.795 29.165H139.404L144.275 17.165L146.391 22.377H143.551L142.294 25.502H147.66L149.147 29.166L152.848 29.165ZM110.497 12.952C115.553 12.952 119.046 16.437 119.046 20.983V21.029C119.046 25.575 115.553 29.106 110.497 29.106H104.97V12.952H110.498H110.497ZM115.347 21.029C115.381 20.3823 115.279 19.7355 115.048 19.1306C114.816 18.5257 114.461 17.976 114.004 17.517C113.547 17.0581 112.999 16.7001 112.395 16.4662C111.791 16.2323 111.144 16.1276 110.498 16.159H108.508V25.899H110.498C111.142 25.9357 111.786 25.8362 112.39 25.6072C112.993 25.3781 113.541 25.0246 113.998 24.5696C114.456 24.1146 114.812 23.5683 115.045 22.9664C115.277 22.3645 115.38 21.7204 115.347 21.076V21.029ZM97.0666 20.696V23.476H98.7336V25.183C97.7528 25.849 96.5866 26.1881 95.4016 26.152C94.7384 26.1589 94.081 26.0291 93.4702 25.7707C92.8594 25.5124 92.3083 25.131 91.8513 24.6504C91.3944 24.1698 91.0413 23.6002 90.814 22.9772C90.5868 22.3541 90.4903 21.691 90.5306 21.029V20.983C90.4798 19.7044 90.9371 18.4576 91.8026 17.5149C92.668 16.5723 93.8713 16.0104 95.1496 15.952C96.7128 15.92 98.2249 16.509 99.3546 17.59L101.584 14.89C99.8506 13.3485 97.5797 12.5526 95.2636 12.675C94.157 12.6537 93.0573 12.8546 92.0297 13.2659C91.0021 13.6772 90.0675 14.2904 89.2812 15.0694C88.4948 15.8484 87.8728 16.7772 87.4519 17.8008C87.0309 18.8245 86.8197 19.9222 86.8306 21.029V21.075C86.7961 22.188 86.9925 23.2961 87.4073 24.3296C87.8221 25.363 88.4463 26.2993 89.2408 27.0797C90.0352 27.86 90.9825 28.4674 92.0232 28.8636C93.0639 29.2599 94.1753 29.4364 95.2876 29.382C97.8126 29.3894 100.254 28.4793 102.159 26.821V20.695L97.0666 20.696ZM79.3966 20.696V23.476H81.0636V25.183C80.0828 25.849 78.9166 26.1881 77.7316 26.152C77.0684 26.1589 76.411 26.0291 75.8002 25.7707C75.1894 25.5124 74.6383 25.131 74.1813 24.6504C73.7244 24.1698 73.3713 23.6002 73.144 22.9772C72.9168 22.3541 72.8203 21.691 72.8606 21.029V20.983C72.8098 19.7044 73.2671 18.4576 74.1326 17.5149C74.998 16.5723 76.2013 16.0104 77.4796 15.952C79.0427 15.9204 80.5547 16.5094 81.6846 17.59L83.9136 14.89C82.1805 13.3486 79.9097 12.5528 77.5936 12.675C76.4869 12.6535 75.3872 12.8544 74.3595 13.2656C73.3319 13.6768 72.3972 14.2901 71.6109 15.0691C70.8245 15.8481 70.2025 16.7769 69.7816 17.8007C69.3607 18.8244 69.1495 19.9222 69.1606 21.029V21.075C69.1261 22.188 69.3225 23.2961 69.7373 24.3296C70.1521 25.363 70.7763 26.2993 71.5708 27.0797C72.3652 27.86 73.3125 28.4674 74.3532 28.8636C75.3939 29.2599 76.5053 29.4364 77.6176 29.382C80.1426 29.3891 82.5842 28.479 84.4886 26.821V20.695L79.3966 20.696ZM59.8246 29.106H63.3636V23.894L69.5446 12.951H65.5236L61.6166 20.139L57.7796 12.951H53.6426L59.8246 23.963V29.106ZM130.762 23.336C131.805 22.9941 132.708 22.3191 133.331 21.4145C133.954 20.51 134.262 19.426 134.21 18.329V18.283C134.237 17.6068 134.129 16.9319 133.892 16.2979C133.656 15.6639 133.295 15.0836 132.831 14.591C132.198 14.0188 131.457 13.579 130.652 13.2976C129.846 13.0161 128.993 12.8986 128.142 12.952H121.32V29.107H124.859V16.16H127.843C129.567 16.16 130.624 16.946 130.624 18.468V18.514C130.624 19.875 129.635 20.799 127.911 20.799H126.17V23.938H127.11L130.557 29.107H134.694L130.762 23.336Z" fill="white"/>
<path d="M45.1019 23.81C44.9924 25.6062 44.6671 27.3826 44.1329 29.101C35.8822 28.6076 28.1453 24.9303 22.5529 18.844C16.9617 24.9297 9.22634 28.6074 0.976906 29.102C0.443597 27.3833 0.116961 25.6071 0.00390625 23.811C2.79075 23.7127 5.54477 23.1765 8.16491 22.222C5.8718 20.3171 3.23444 18.8699 0.395906 17.959C0.746387 16.2094 1.30398 14.5078 2.05691 12.89C6.28268 14.253 10.1342 16.5788 13.3079 19.684C15.2093 18.4745 16.9504 17.0297 18.4899 15.384C13.3402 14.4856 8.63613 11.8982 5.11991 8.03002C6.25294 6.65089 7.54641 5.41181 8.97291 4.33902C11.0206 6.62341 13.611 8.35475 16.5049 9.37302C15.4433 6.80132 14.7244 4.10117 14.3669 1.34202C16.0451 0.691414 17.7947 0.242924 19.5789 0.00602344C19.9359 3.40079 20.9458 6.69454 22.5529 9.70602C24.1613 6.69249 25.1715 3.39627 25.5279 -0.000976562C27.3127 0.234095 29.0626 0.683332 30.7399 1.33702C30.3818 4.09702 29.663 6.79808 28.6019 9.37102C31.4932 8.35238 34.0819 6.62302 36.1299 4.34202C37.5575 5.41228 38.8529 6.64826 39.9889 8.02402C36.4717 11.8936 31.7663 14.4821 26.6149 15.381C28.1554 17.0265 29.8971 18.4712 31.7989 19.681C34.9726 16.5758 38.8241 14.25 43.0499 12.887C43.7985 14.5063 44.354 16.208 44.7049 17.957C41.8689 18.8685 39.234 20.3152 36.9429 22.219C39.5623 23.1739 42.3156 23.7108 45.1019 23.81V23.81ZM25.2169 44.836V37.254L32.8769 27.268C31.2265 26.5417 29.6385 25.6811 28.1289 24.695L22.5509 31.968L16.9729 24.695C15.4635 25.6814 13.8754 26.542 12.2249 27.268L19.8839 37.254V44.84C21.6552 45.0482 23.4449 45.0469 25.2159 44.836H25.2169Z" fill="#FA6432"/>
</g>
<defs>
<clipPath id="clip0_165_455">
<rect width="186.504" height="44.995" fill="white"/>
</clipPath>
</defs>
</svg>