<svg width="90" height="29" viewBox="0 0 90 29" fill="none" xmlns="http://www.w3.org/2000/svg">
<path d="M66.77 28.019C66.0462 28.3902 65.225 27.7396 65.3712 26.909L66.9275 18.0403L60.3218 11.7478C59.705 11.159 60.0256 10.0828 60.8525 9.96654L70.0362 8.66154L74.1312 0.548436C74.5006 -0.182812 75.4999 -0.182812 75.8693 0.548436L79.9643 8.66154L89.148 9.96654C89.9749 10.0828 90.2955 11.159 89.6768 11.7478L83.073 18.0403L84.6293 26.909C84.7755 27.7396 83.9543 28.3902 83.2305 28.019L74.9974 23.789L66.7681 28.019H66.77Z" fill="white"/>
<path d="M6.76996 28.019C6.04621 28.3902 5.22496 27.7396 5.37121 26.909L6.92746 18.0403L0.321849 11.7478C-0.295024 11.159 0.0256001 10.0828 0.852473 9.96654L10.0362 8.66154L14.1312 0.548436C14.5006 -0.182812 15.4999 -0.182812 15.8693 0.548436L19.9643 8.66154L29.148 9.96654C29.9749 10.0828 30.2955 11.159 29.6768 11.7478L23.073 18.0403L24.6293 26.909C24.7755 27.7396 23.9543 28.3902 23.2305 28.019L14.9974 23.789L6.76808 28.019H6.76996Z" fill="white"/>
</svg>
