<svg width="90" height="72" viewBox="0 0 90 72" fill="none" xmlns="http://www.w3.org/2000/svg">
<path d="M66.77 71.019C66.0462 71.3902 65.225 70.7396 65.3712 69.909L66.9275 61.0403L60.3218 54.7478C59.705 54.159 60.0256 53.0828 60.8525 52.9665L70.0362 51.6615L74.1312 43.5484C74.5006 42.8172 75.4999 42.8172 75.8693 43.5484L79.9643 51.6615L89.148 52.9665C89.9749 53.0828 90.2955 54.159 89.6768 54.7478L83.073 61.0403L84.6293 69.909C84.7755 70.7396 83.9543 71.3902 83.2305 71.019L74.9974 66.789L66.7681 71.019H66.77Z" fill="black"/>
<path d="M6.76996 71.019C6.04621 71.3902 5.22496 70.7396 5.37121 69.909L6.92746 61.0403L0.321849 54.7478C-0.295024 54.159 0.0256001 53.0828 0.852473 52.9665L10.0362 51.6615L14.1312 43.5484C14.5006 42.8172 15.4999 42.8172 15.8693 43.5484L19.9643 51.6615L29.148 52.9665C29.9749 53.0828 30.2955 54.159 29.6768 54.7478L23.073 61.0403L24.6293 69.909C24.7755 70.7396 23.9543 71.3902 23.2305 71.019L14.9974 66.789L6.76808 71.019H6.76996Z" fill="black"/>
<path d="M36.77 28.019C36.0462 28.3902 35.225 27.7396 35.3712 26.909L36.9275 18.0403L30.3218 11.7478C29.705 11.159 30.0256 10.0828 30.8525 9.96654L40.0362 8.66154L44.1312 0.548436C44.5006 -0.182812 45.4999 -0.182812 45.8693 0.548436L49.9643 8.66154L59.148 9.96654C59.9749 10.0828 60.2955 11.159 59.6768 11.7478L53.073 18.0403L54.6293 26.909C54.7755 27.7396 53.9543 28.3902 53.2305 28.019L44.9974 23.789L36.7681 28.019H36.77Z" fill="black"/>
</svg>
