<svg id="Chip1" xmlns="http://www.w3.org/2000/svg" viewBox="0 0 420 420"><defs><style>.cls-1{fill:#29313d;}.cls-2{fill:#fff;fill-rule:evenodd;}</style></defs><g id="g34501"><path id="path31734" class="cls-1" d="M466,256c0,116-94,210-210,210S46,372,46,256,140,46,256,46,466,140,466,256Z" transform="translate(-46 -46)"/><path id="path31736" class="cls-2" d="M255.84,127.52a127.7,127.7,0,0,0-88.26,35.26c-51.38,48.79-53.58,130.37-4.9,181.86a128.15,128.15,0,0,0,181.46,4.91c51.38-48.78,53.57-130.37,4.9-181.86a127.09,127.09,0,0,0-93.2-40.17m0,264.34a134,134,0,0,1-98.31-42.36c-51.34-54.32-49-140.38,5.17-191.84a135.18,135.18,0,0,1,191.41,5.18c51.34,54.31,49,140.37-5.17,191.83a134.63,134.63,0,0,1-93.1,37.19" transform="translate(-46 -46)"/><path id="path31738" class="cls-2" d="M253,54.87c-33.68,0-67.22,9.54-96.46,26.08l23.49,41.36c9.53-6.28,20.48-12.56,22.18,2.69A140.2,140.2,0,0,1,274,115.57l3.54-27.72C265.9,86.53,251.18,90,255.8,73.93c-.49-6.07.92-14.05-.59-19.1-.72,0-1.49-.06-2.19,0Zm99.43,24.7c-7.44,13.93-15.23,27.86-22.81,41.79,9.85,6,28.37,12.85,13.56,23.48a141.5,141.5,0,0,1,43.49,57.83L412.9,192a241.89,241.89,0,0,0-11.47-25.23c8.48-5.31,17.41-10.53,25.62-15.91-8.57,5.21-17.21,10.76-25.72,15.75,8.48-5.32,17.37-10.55,25.6-15.94-8.56,5.21-17.2,10.79-25.71,15.78l25.65-15.88a203,203,0,0,0-74.42-71ZM427,150.82Zm-303.1-1.66a162.41,162.41,0,0,0-15.51,22.46c-9-5.08-18.09-10.56-27-15.38,8.93,5.19,18.21,10.29,26.91,15.54-9-5.06-18.1-10.54-27-15.34,9,5.14,18,10.28,27,15.43l-27-15.33c-9,15.58-15.39,32.65-20.18,49.9-3.29,16.22-6.22,32.76-5.92,49.44l47.49.06c.61-11.23-2.58-30.75,13.65-23A142.1,142.1,0,0,1,145.75,167l-21.81-17.88ZM456.68,253l-47.49.76c-.39,11.34,3.08,30.86-13.39,23.37a141.9,141.9,0,0,1-28.36,66.34l22.21,17.4c8.76-8.85,12.33-30.14,25.93-16.6,3.75,2,16.56,9.28,15.36,8.35-8.7-4.86-17.75-9.63-26.23-14.56,9.1,4.92,18.32,10.24,27.34,14.91-9-5-18.43-10-27.25-15.08l27.31,15c6.63-11.56,11.21-23.92,15.09-36.56a178.94,178.94,0,0,0,8.94-52.81c0-3.52-.21-7.68.54-10.5ZM124.2,307.36,97.8,317.58a138.7,138.7,0,0,0,11.82,25c-8.86,5.34-18.17,10.58-26.76,16,8.94-5.23,18-10.81,26.86-15.83-8.86,5.36-18.16,10.6-26.74,16,8.93-5.24,18-10.82,26.84-15.86L83,358.87A202.59,202.59,0,0,0,156.13,431q11.79-20.64,23.57-41.3c-9.89-6.24-28.42-13.52-13.28-24a141.42,141.42,0,0,1-42.22-58.33ZM307.28,388.2a139.81,139.81,0,0,1-71.92,8.13q-2,13.8-4,27.62a151,151,0,0,0,27,1.92c.23,10.49.16,21.29.58,31.6-.1-10.5-.46-21.26-.39-31.6.24,10.5.21,21.27.61,31.6-.11-10.5-.48-21.27-.42-31.6l.54,31.6a200.24,200.24,0,0,0,98.76-28l-24.21-40.95c-11.33,4.67-23.93,19.16-26.59-.37Z" transform="translate(-46 -46)"/></g></svg>