<svg id="Chip1" xmlns="http://www.w3.org/2000/svg" viewBox="0 0 420 420"><defs><style>.cls-1{fill:#29313d;}.cls-2{fill:#fff;fill-rule:evenodd;}</style></defs><g id="g34507"><path id="path26657" class="cls-1" d="M466,256c0,116-94,210-210,210S46,372,46,256,140,46,256,46,466,140,466,256Z" transform="translate(-46 -46)"/><path id="path26659" class="cls-2" d="M255.84,127.52a127.7,127.7,0,0,0-88.26,35.26c-51.38,48.79-53.58,130.37-4.9,181.86a128.15,128.15,0,0,0,181.46,4.91c51.38-48.78,53.57-130.37,4.9-181.86a127.09,127.09,0,0,0-93.2-40.17m0,264.34a134,134,0,0,1-98.31-42.36c-51.34-54.32-49-140.38,5.17-191.84a135.18,135.18,0,0,1,191.41,5.18c51.34,54.31,49,140.37-5.17,191.83a134.63,134.63,0,0,1-93.1,37.19" transform="translate(-46 -46)"/><path id="path26663" class="cls-2" d="M352.49,79.65l-22.85,41.71a154.8,154.8,0,0,1,56.82,54.19l40.41-25c-18.17-29.42-44.17-54.46-74.38-70.89Zm74.44,71c-13.42,8.37-27.15,16.66-40.37,25.07C400,167.33,413.78,159.06,426.93,150.63Zm.12.19c-13.43,8.35-27.18,16.63-40.4,25C400.05,167.5,413.94,159.21,427.05,150.82ZM456.68,253l-47.49.75A154.35,154.35,0,0,1,390.45,330l41.66,22.85c6.61-11.53,11.2-23.84,15.05-36.45a181.53,181.53,0,0,0,9.07-53.68C456.28,259.43,456.12,255.63,456.68,253ZM390.41,330c13.63,7.65,27.89,15.55,41.64,22.88Zm-.08.15c13.62,7.67,27.86,15.57,41.61,22.93Zm-56.45,58.37a153.09,153.09,0,0,1-75.37,21.31l.81,47.59a200.24,200.24,0,0,0,98.76-27.95Q346,409,333.88,388.56Zm-75.46,21.31c.12,15.66.35,32,.78,47.59Zm-.17,0c.11,15.65.29,32,.73,47.58Q258.62,433.67,258.25,409.88ZM123.86,334.56,83,358.87A203,203,0,0,0,156.15,431l23.57-41.31a154.2,154.2,0,0,1-55.86-55.17Zm-.09-.15c-13.54,8.14-27.53,16.16-40.79,24.37C96.53,350.64,110.43,342.59,123.77,334.41Zm-.09-.15c-13.55,8.12-27.54,16.14-40.82,24.32C96.42,350.46,110.32,342.43,123.68,334.26ZM81.26,156.53c-9,15.54-15.36,32.55-20.18,49.74-3.32,16.26-6.29,32.86-6,49.6l47.49.07a154.3,154.3,0,0,1,20-75.92Zm.11-.2c13.41,7.91,27.6,16,41.23,23.62Zm.11-.2c13.42,7.93,27.59,16,41.2,23.66ZM255.81,54.87A198.05,198.05,0,0,0,156.56,81l23.49,41.36a153.17,153.17,0,0,1,75.73-20q0-23.75,0-47.48Z" transform="translate(-46 -46)"/><path id="path26665" class="cls-2" d="M257.64,86.18h0c-1.71,0-3.42,0-5.12,0v.16l.54,28.18c.92,0,1.85,0,2.77,0,1.23,0,2.45,0,3.67.05s2.44.08,3.65.14,2.43.14,3.64.23,2.41.19,3.61.32,2.4.25,3.59.4,2.38.32,3.57.5,2.37.38,3.54.59,2.36.44,3.52.68,2.34.49,3.5.76,2.32.55,3.47.85,2.29.61,3.43.94,2.28.66,3.41,1,2.26.72,3.38,1.11,2.24.78,3.35,1.19,2.21.84,3.31,1.28,2.19.9,3.28,1.37,2.17,1,3.24,1.44,2.14,1,3.2,1.53,2.12,1.06,3.17,1.61c.69.36,1.37.74,2.05,1.11L336.71,107a170.67,170.67,0,0,0-32.1-13.39.38.38,0,0,0-.13,0,.33.33,0,0,0-.13,0s0,0,0,0l-.09,0s0,0,0,0l-.25-.07,0,0-.09,0a0,0,0,0,1,0,0,.28.28,0,0,0-.12,0l-.12,0a0,0,0,0,1,0,0l-.09,0s0,0,0,0a.28.28,0,0,0-.12,0l0,0a.3.3,0,0,0-.11,0l0,0-.09,0s0,0,0,0l-.12,0,0,0-.1,0s0,0,0,0a.32.32,0,0,1-.09,0s0,0,0,0a.27.27,0,0,0-.12,0h0a.14.14,0,0,0-.1,0,.06.06,0,0,1-.05,0l-.09,0s0,0,0,0a.53.53,0,0,0-.12,0h0a.12.12,0,0,0-.1,0s0,0,0,0a.29.29,0,0,1-.1,0s0,0,0,0a.53.53,0,0,0-.12,0l0,0a.15.15,0,0,0-.11,0s0,0,0,0a.29.29,0,0,0-.1,0s0,0,0,0a.7.7,0,0,0-.12,0s0,0,0,0a.29.29,0,0,1-.1,0s0,0,0,0a.29.29,0,0,0-.1,0s0,0,0,0a.61.61,0,0,0-.13,0s0,0,0,0l-.1,0s0,0,0,0a.29.29,0,0,0-.1,0s0,0,0,0a.61.61,0,0,0-.13,0h0l-.1,0,0,0-.09,0h0a.53.53,0,0,0-.12,0h0l-.09,0s0,0,0,0a.35.35,0,0,0-.11,0,.5.5,0,0,0-.13,0h0s-.07,0-.1,0h0a.53.53,0,0,0-.12,0,.28.28,0,0,0-.12,0s0,0,0,0l-.1,0h0a.34.34,0,0,0-.12,0l-.13,0s0,0,0,0-.07,0-.1,0,0,0,0,0l-.25-.06s0,0,0,0l-.1,0h0l-.25-.07s0,0,0,0l-.1,0s0,0,0,0l-.26-.06s0,0,0,0-.07,0-.11,0,0,0,0,0l-.26-.06h0a.17.17,0,0,0-.11,0l0,0a.53.53,0,0,0-.12,0,.19.19,0,0,0-.12,0s0,0,0,0a.15.15,0,0,0-.11,0l0,0-.25-.07h0a.53.53,0,0,0-.12,0l-.13,0a.22.22,0,0,0-.13,0l0,0-.12,0-.14,0a.56.56,0,0,1-.12,0l0,0-.26-.06a.65.65,0,0,1-.13,0l-.41-.09-.4-.1-.41-.1a169.16,169.16,0,0,0-36.2-4.42Zm-86.3,22.61-.09.06,0,0-.07,0h0l-.09,0,0,0-.07,0,0,0-.09.06,0,0-.08,0,0,0-.09.05,0,0-.07,0,0,0-.08,0,0,0-.08,0,0,0-.07,0,0,0-.09,0,0,0-.07,0,0,0-.09,0,0,0-.06,0,0,0-.08.05,0,0-.06,0,0,0-.08,0,0,0-.06,0,0,0s0,0-.06,0l0,0-.06,0,0,0-.06,0,0,0-.08,0,0,0-.06,0,0,0-.08,0,0,0-.06,0,0,0-.06,0-.06,0-.05,0,0,0,0,0-.08,0s0,0,0,0l-.05,0,0,0-.09,0,0,0-.06,0,0,0s0,0,0,0l-.08,0-.05,0,0,0,0,0,0,0-.1.06,0,0-.06,0,0,0-.1.06,0,0s0,0-.06,0l0,0-.12.07,0,0-.06,0,0,0-.12.07s0,0-.06,0l0,0a1.18,1.18,0,0,1-.19.11l0,0-.07,0-.12.08h0l-.06,0-.13.07h0l-.06,0h0a2.25,2.25,0,0,1-.21.12h0l-.2.12h0l-.21.12a2.2,2.2,0,0,0-.28.18l-.22.13a.9.9,0,0,0-.2.14,168.65,168.65,0,0,0-55,56.82l24.47,14.46.17-.29c.59-1,1.19-2,1.81-3s1.25-2,1.9-3,1.3-1.94,2-2.91,1.35-1.92,2.05-2.87,1.41-1.89,2.14-2.83,1.46-1.86,2.21-2.78,1.52-1.84,2.3-2.74,1.57-1.81,2.37-2.7,1.62-1.77,2.45-2.64,1.68-1.74,2.54-2.6,1.73-1.7,2.61-2.54,1.66-1.56,2.5-2.32,1.68-1.51,2.54-2.25,1.72-1.46,2.59-2.18,1.74-1.42,2.63-2.11,1.77-1.38,2.67-2,1.81-1.33,2.72-2,1.83-1.28,2.76-1.9,1.86-1.24,2.8-1.84,1.88-1.2,2.83-1.77,1.77-1.06,2.66-1.57Zm231.31,60.44-1.11.33-24.13,14.27.36.6c.59,1,1.17,2,1.74,3s1.11,2.05,1.65,3.08,1.06,2.07,1.57,3.12,1,2.09,1.49,3.14.95,2.11,1.41,3.17.9,2.12,1.33,3.19.84,2.14,1.24,3.22.79,2.16,1.17,3.25.74,2.17,1.08,3.26.68,2.19,1,3.28.63,2.2.92,3.31.58,2.21.84,3.32.52,2.22.76,3.33.47,2.23.68,3.35.41,2.24.59,3.36.36,2.25.52,3.37.3,2.26.43,3.39.25,2.25.36,3.38.19,2.27.27,3.4.14,2.26.19,3.39.09,2.27.11,3.4v.27l28.31-.53c0-1.52-.09-3-.16-4.56,0-.17,0-.34,0-.52a.74.74,0,0,0,0-.25,1.06,1.06,0,0,0,0-.25v-.26a.66.66,0,0,0,0-.24v0a1,1,0,0,0,0-.24v-6.66a.2.2,0,0,0,0-.11v-.67a.18.18,0,0,0,0-.12v-.13a.3.3,0,0,0,0-.13v-.1a.3.3,0,0,0,0-.16v-.12a.39.39,0,0,0,0-.15v0a2,2,0,0,0,0-.24c0-.08,0-.16,0-.23v-.11a.27.27,0,0,0,0-.15v-.12s0-.1,0-.14v-.11s0-.1,0-.15v-.12a.22.22,0,0,0,0-.14v-.13c0-.05,0-.1,0-.14v-.14a.21.21,0,0,0,0-.13v-.1a.47.47,0,0,0,0-.16v-.12s0-.09,0-.13v-.13a.27.27,0,0,0,0-.15v-.12a.3.3,0,0,0,0-.13V235s0-.1,0-.15v-.1s0-.1,0-.15v-.1c0-.06,0-.11,0-.16v-.11a.27.27,0,0,0,0-.15,2.13,2.13,0,0,0,0-.25v-.1a.22.22,0,0,0,0-.14v-.13c0-.05,0-.1,0-.15v-.13s0-.1,0-.14v-.08c0-.06,0-.11,0-.17v-.1s0-.1,0-.15v-.13s0-.1,0-.15v-.12a.26.26,0,0,0,0-.15v-.08c0-.08,0-.16,0-.24v0c0-.05,0-.1,0-.14v-.13s0-.1,0-.15v0a.07.07,0,0,0,0-.07v0c0-.05,0-.1,0-.14v-.12s0-.1,0-.14v-.13s0-.09,0-.14v-.13c0-.07,0-.15,0-.24v0c0-.08,0-.16,0-.24a2,2,0,0,0,0-.24v0s0-.1,0-.15a.12.12,0,0,0,0-.08v0a2,2,0,0,0,0-.24v0a.85.85,0,0,1,0-.23v0a2.23,2.23,0,0,0,0-.23v0a.85.85,0,0,0,0-.23v0a1.85,1.85,0,0,1,0-.23v0c0-.08,0-.15,0-.23v0a2.4,2.4,0,0,1,0-.24v0a2.4,2.4,0,0,1,0-.24v0a2.23,2.23,0,0,0,0-.23v0a.85.85,0,0,1,0-.23v0a1.85,1.85,0,0,1,0-.23v0a1.85,1.85,0,0,1,0-.23v0a.93.93,0,0,1,0-.23v0a1.89,1.89,0,0,1-.05-.23v0c0-.08,0-.16,0-.23v0a1.85,1.85,0,0,1,0-.23v0a1.7,1.7,0,0,1,0-.22v0a.85.85,0,0,1,0-.22v0a1.74,1.74,0,0,1-.05-.22v0a1.7,1.7,0,0,1,0-.22v0a1.42,1.42,0,0,1,0-.22v0c0-.08,0-.16,0-.23v0a1.57,1.57,0,0,1,0-.23v0c0-.07,0-.15,0-.23v0c0-.07,0-.14,0-.22v-.13a.89.89,0,0,0,0-.14v0a.08.08,0,0,0,0-.07v0a.61.61,0,0,0,0-.13v0a.08.08,0,0,0,0-.07v0s0-.08,0-.12v0a.08.08,0,0,0,0-.07v0a.61.61,0,0,0,0-.13v0a.07.07,0,0,0,0-.07.7.7,0,0,0,0-.14v0a.11.11,0,0,0,0-.07s0-.09,0-.14v0s0,0,0-.07v0s0-.07,0-.11v0a.07.07,0,0,0,0-.06v0s0-.07,0-.11v0a.11.11,0,0,0,0-.07v0s0-.08,0-.12v0a.07.07,0,0,0,0-.06v0s0-.07,0-.1v0a.07.07,0,0,0,0-.06.07.07,0,0,0,0-.06s0-.05,0-.08V220a.07.07,0,0,0,0-.06.1.1,0,0,0,0-.08v-.11a.1.1,0,0,0,0-.07s0,0,0-.08v0s0,0,0-.06v-.06s0-.05,0-.08v-.11s0-.05,0-.07a.08.08,0,0,0,0-.07V219a.07.07,0,0,0,0-.06v0s0-.06,0-.09v-.06s0,0,0-.05,0,0,0-.06a.15.15,0,0,0,0-.09.06.06,0,0,0,0-.05v-.06s0,0,0-.05a.15.15,0,0,0,0-.09v-.05s0,0,0-.06a.07.07,0,0,0,0-.06.11.11,0,0,0,0-.08.06.06,0,0,0,0-.06V218s0,0,0-.06a.08.08,0,0,0,0-.08v-.06a.07.07,0,0,0,0-.06v-.06s0-.05,0-.08,0,0,0,0a.08.08,0,0,0,0-.06s0,0,0-.05a.15.15,0,0,0,0-.09.06.06,0,0,0,0,0s0,0,0-.06a.1.1,0,0,0,0-.07v-.06s0-.05,0-.07v0a.08.08,0,0,0,0-.07.11.11,0,0,0,0-.07.06.06,0,0,0,0-.06v0a.11.11,0,0,0,0-.07.07.07,0,0,0,0-.06.08.08,0,0,0,0-.07.06.06,0,0,0,0,0,.07.07,0,0,0,0-.07v-.06a.11.11,0,0,0,0-.07s0,0,0,0a.09.09,0,0,0,0-.08.06.06,0,0,0,0,0s0-.05,0-.08v0s0-.05,0-.07v0s0-.06,0-.09v0s0,0,0-.07v-.06a.64.64,0,0,0,0-.07v-.05s0,0,0-.07,0,0,0-.06,0,0,0-.08v0s0-.06,0-.08v0s0-.05,0-.08v0a.08.08,0,0,0,0-.08v0s0-.06,0-.1v0s0-.06,0-.09v0s0-.07,0-.11v0s0-.06,0-.09v0s0-.07,0-.1v0s0-.05,0-.08v0s0-.06,0-.1,0,0,0,0a.09.09,0,0,0,0-.08v0s0-.07,0-.1v0a.31.31,0,0,0,0-.07v0s0-.06,0-.09,0,0,0,0,0-.05,0-.07v0s0-.06,0-.09v0s0-.05,0-.08v0s0-.07,0-.1v0s0-.05,0-.08v0s0-.07,0-.1v0s0-.05,0-.08v0a.14.14,0,0,1,0-.1s0,0,0,0,0-.05,0-.08v0a.45.45,0,0,0,0-.11v0s0-.06,0-.08v0a.29.29,0,0,0,0-.1v0s0-.07,0-.1v0a.45.45,0,0,0,0-.11v0s0-.06,0-.09v0a.45.45,0,0,1,0-.11s0,0,0,0,0-.06,0-.09v0s0-.07,0-.11v0s0-.06,0-.09v0a.61.61,0,0,0,0-.11v0a.47.47,0,0,0,0-.09v0a.35.35,0,0,1,0-.11v0a.54.54,0,0,1,0-.1.35.35,0,0,0,0-.11v0a.35.35,0,0,1,0-.11.45.45,0,0,1,0-.11v0s0-.07,0-.11a.2.2,0,0,1,0-.11v0a.14.14,0,0,1,0-.1s0-.08,0-.12v0a.61.61,0,0,1,0-.11.45.45,0,0,0,0-.11v0a.13.13,0,0,1,0-.1.3.3,0,0,1,0-.12c0-.09-.05-.16-.07-.24a.15.15,0,0,1,0-.11.56.56,0,0,0,0-.12.53.53,0,0,1,0-.12.25.25,0,0,0,0-.12.42.42,0,0,0,0-.12.53.53,0,0,0,0-.12s0-.07,0-.11a.53.53,0,0,1,0-.12.25.25,0,0,1,0-.11,2.17,2.17,0,0,1-.07-.24.28.28,0,0,1,0-.12.53.53,0,0,0,0-.12s0-.07,0-.12a2.17,2.17,0,0,0-.07-.24s0-.08,0-.12,0-.16-.07-.24l-.08-.24c0-.08-.05-.16-.07-.25s0-.07,0-.12a.45.45,0,0,1,0-.11c0-.08-.05-.16-.08-.24s0-.08,0-.12a.42.42,0,0,1,0-.12c0-.16-.1-.32-.16-.48s-.05-.16-.07-.24a171.73,171.73,0,0,0-9-22.61,2.4,2.4,0,0,1-.11-.23l-.23-.45a1837015909080.09,1837015909080.09,0,0,1-.22-.46c0-.07-.07-.14-.11-.22s-.07-.15-.11-.22l-.11-.22v0l-.11-.21v0l-.11-.21v0a1.17,1.17,0,0,0-.05-.11l-.05-.1v0a.19.19,0,0,1-.05-.1.53.53,0,0,1-.06-.1v0a.73.73,0,0,0,0-.09v0s0-.07-.05-.1v0l-.05-.09a.46.46,0,0,0-.05-.1v0A.73.73,0,0,1,408,179v0l0-.11v0l-.05-.09v0s0-.07-.05-.1l0,0a.18.18,0,0,1,0-.09v0a.19.19,0,0,1-.05-.1s0,0,0,0l0-.08,0,0-.05-.09s0,0,0,0a.15.15,0,0,1,0-.08s0,0,0,0a.2.2,0,0,1-.05-.09s0,0,0,0,0,0,0-.06,0,0,0,0a.36.36,0,0,1,0-.09l0,0a.21.21,0,0,1,0-.07s0,0,0,0a.36.36,0,0,1,0-.09s0,0,0,0,0,0,0-.06,0,0,0,0a.3.3,0,0,1,0-.08s0,0,0,0,0,0,0-.06,0,0,0,0a.18.18,0,0,1,0-.09s0,0,0,0,0,0,0-.05,0,0,0,0a.3.3,0,0,1,0-.08s0,0,0,0,0,0,0-.06,0,0,0-.05a.2.2,0,0,1,0-.08s0,0,0-.05,0,0,0,0,0,0,0,0l-.05-.08s0,0,0-.05,0,0,0,0,0,0,0,0a.59.59,0,0,1,0-.08s0,0,0-.06l0,0s0,0,0-.06l0,0s0-.07-.05-.1l0,0a1.74,1.74,0,0,1-.1-.19v0a2,2,0,0,1-.11-.2l0,0-.11-.2,0,0-.11-.2,0,0-.12-.21v0a2.12,2.12,0,0,0-.11-.21v0l-.12-.21c0-.07-.08-.14-.11-.21v0c-.82-1.65-1.72-3.22-2.65-4.78ZM86.22,256.45c0,1.24,0,2.47.06,3.7v2a1.06,1.06,0,0,0,0,.25v7.08c0,.08,0,.15,0,.23v0a.65.65,0,0,0,0,.24v0a.9.9,0,0,0,0,.23v0a.56.56,0,0,0,0,.22v0a.9.9,0,0,0,0,.23v0c0,.08,0,.16,0,.24v0c0,.08,0,.16,0,.24v0c0,.08,0,.16,0,.24v0c0,.07,0,.16,0,.23v0c0,.08,0,.16,0,.24s0,.17,0,.25v0c0,.09,0,.17,0,.25s0,.17,0,.25v0c0,.08,0,.17,0,.25s0,.16,0,.25c0,.34.08.68.11,1,0,.17,0,.34.06.51l.09.77c0,.09,0,.17,0,.26s0,.34.06.51,0,.34.07.51c.06.51.13,1,.2,1.53q.64,4.78,1.56,9.49v0c0,.08,0,.16,0,.24s0,.17,0,.25a.76.76,0,0,0,0,.16.11.11,0,0,0,0,.08v0A1,1,0,0,1,89,289v0a.7.7,0,0,0,0,.14.08.08,0,0,0,0,.07v0a1.89,1.89,0,0,1,0,.23v0a1.1,1.1,0,0,0,0,.16.12.12,0,0,0,0,.08v0a1.89,1.89,0,0,1,0,.23v0a1.55,1.55,0,0,1,.05.23v0a4499963941864.55,4499963941864.55,0,0,0,.1.48v0a.86.86,0,0,1,0,.23v0a1.06,1.06,0,0,1,0,.23v0a1,1,0,0,1,.05.23v0c0,.05,0,.1,0,.15s0,0,0,.07v0c0,.07,0,.15.05.22v0a.89.89,0,0,0,0,.14.1.1,0,0,0,0,.07v0c0,.07,0,.15,0,.22v0a.8.8,0,0,0,0,.15.08.08,0,0,0,0,.07v0c0,.07,0,.15,0,.22v0a.7.7,0,0,0,0,.14v0s0,0,0,.07v0c0,.07,0,.14,0,.21v0a.79.79,0,0,0,0,.13v0a.08.08,0,0,0,0,.07v0c0,.08,0,.15,0,.22v0s0,.09,0,.13v0a.08.08,0,0,0,0,.07v0c0,.07,0,.14.05.22v0s0,.06,0,.1a.06.06,0,0,0,0,.05v.11a.06.06,0,0,0,0,.06s0,.05,0,.08,0,0,0,.06v.05s0,.05,0,.08a.07.07,0,0,0,0,.06s0,0,0,.06a.06.06,0,0,0,0,.05v.05s0,.06,0,.09a.07.07,0,0,0,0,.06v0s0,0,0,.06,0,.06,0,.09,0,0,0,.05v.05s0,0,0,.06a.15.15,0,0,0,0,.09v.05s0,0,0,.06v.05s0,.06,0,.09,0,0,0,.05,0,0,0,.06,0,0,0,.05,0,.06,0,.09v.06s0,0,0,0,0,0,0,.06,0,.06,0,.09,0,0,0,.05,0,0,0,.05v.06s0,.06,0,.09a.06.06,0,0,0,0,.05v.06a.06.06,0,0,0,0,.05s0,.06,0,.09v.05a.07.07,0,0,0,0,.06v0s0,.07,0,.1a.06.06,0,0,0,0,.05.07.07,0,0,0,0,.06v0s0,.07,0,.1,0,0,0,0,0,0,0,.06,0,0,0,0,0,.06,0,.09V298a.06.06,0,0,0,0,.06v0s0,.05,0,.08,0,0,0,.06a.06.06,0,0,0,0,0s0,0,0,.05,0,.06,0,.09,0,0,0,.06,0,0,0,0v.05s0,.06,0,.09v0a.07.07,0,0,0,0,.06v0s0,.07,0,.1,0,0,0,0,0,.05,0,.07,0,0,0,0,0,.06,0,.1,0,0,0,0a.11.11,0,0,0,0,.07v0s0,.07,0,.1,0,0,0,0,0,.05,0,.07v0s0,.07,0,.09,0,0,0,0,0,.05,0,.07v0s0,.07,0,.1v0s0,.05,0,.08v0a.38.38,0,0,0,0,.1v0s0,.06,0,.08v0a.47.47,0,0,0,0,.09v0s0,.05,0,.07v0a.38.38,0,0,0,0,.1v0s0,.06,0,.08,0,0,0,0,0,.07,0,.1v0s0,.05,0,.08v0a.54.54,0,0,1,0,.1v0s0,.05,0,.08v0s0,.07,0,.1v0s0,.06,0,.08v0a.26.26,0,0,1,0,.1v0s0,.05,0,.08,0,0,0,0,0,.07,0,.1v0s0,.06,0,.08,0,0,0,0a.54.54,0,0,0,0,.1v0s0,.05,0,.08v0s0,.08,0,.11v0s0,.05,0,.08v0a.38.38,0,0,1,0,.1v0a.47.47,0,0,0,0,.09v0a.38.38,0,0,0,0,.1v0s0,.06,0,.09v0a.21.21,0,0,1,0,.1v0s0,.07,0,.1v0a.25.25,0,0,1,0,.11v0s0,.06,0,.09v0s0,.07,0,.11v0a.14.14,0,0,1,0,.1v0a.15.15,0,0,1,0,.11v0s0,.07,0,.1v0a.45.45,0,0,0,0,.11v0a.47.47,0,0,0,0,.09v0a.38.38,0,0,1,0,.1v0s0,.06,0,.09v0s0,.07,0,.11a.45.45,0,0,1,0,.11v0a.61.61,0,0,1,0,.11.3.3,0,0,1,0,.11v0c0,.07,0,.15.07.23v0a.45.45,0,0,1,0,.11.76.76,0,0,1,0,.11v0c0,.07,0,.16.06.22v0a.21.21,0,0,1,0,.11.45.45,0,0,1,0,.11v0a.36.36,0,0,0,0,.11.61.61,0,0,1,0,.11v0s0,.08,0,.11a.45.45,0,0,0,0,.11v0l.07.23v0a.56.56,0,0,1,0,.12.35.35,0,0,1,0,.11v0c0,.07,0,.16.08.23v0l.07.23v0l.08.23c0,.08,0,.15.07.23s0,.16.08.24l.08.23c0,.08,0,.15.07.24l.08.23c0,.08,0,.16.08.24s0,.16.08.24,0,.16.08.24l.08.24a171.12,171.12,0,0,0,13.62,30.35L133,326.14c-.24-.42-.49-.84-.72-1.26-.57-1-1.12-2.05-1.65-3.08s-1.06-2.07-1.58-3.11-1-2.09-1.49-3.14-1-2.11-1.4-3.17-.9-2.13-1.33-3.2-.85-2.14-1.25-3.22-.79-2.16-1.16-3.24-.74-2.18-1.09-3.27-.68-2.18-1-3.28-.62-2.2-.92-3.31-.57-2.21-.84-3.31-.52-2.23-.76-3.34-.46-2.23-.67-3.35-.41-2.24-.6-3.36-.36-2.25-.51-3.37-.31-2.26-.44-3.38-.25-2.26-.35-3.39-.2-2.26-.27-3.39-.14-2.27-.19-3.4-.09-2.27-.11-3.4c0-.9,0-1.79,0-2.69Zm292.56,69.68c-.44.78-.88,1.56-1.33,2.33-.59,1-1.2,2-1.82,3s-1.25,2-1.9,2.95-1.3,1.95-2,2.91-1.36,1.92-2.06,2.87-1.41,1.9-2.13,2.83-1.47,1.87-2.22,2.79-1.52,1.83-2.29,2.74-1.57,1.8-2.38,2.69-1.62,1.77-2.45,2.65-1.68,1.74-2.53,2.59-1.73,1.71-2.62,2.55-1.65,1.55-2.49,2.31-1.69,1.51-2.54,2.25-1.72,1.47-2.59,2.18-1.75,1.42-2.63,2.12-1.78,1.37-2.68,2-1.81,1.33-2.72,2-1.83,1.29-2.75,1.91-1.86,1.24-2.8,1.84-1.89,1.19-2.84,1.77l-.63.38L342.85,402a168.76,168.76,0,0,0,60.57-61.9ZM186.14,379.51h0l-13.7,24.32c1.15.65,2.31,1.29,3.49,1.92l.81.43.09.06,0,0,.09.05,0,0,.09,0s0,0,0,0l.08,0,0,0,.08,0,.05,0,.07,0,0,0a.2.2,0,0,0,.08,0l.18.1a.06.06,0,0,0,.05,0s0,0,.07,0l.06,0,.06,0s0,0,.06,0,0,0,.06,0l.06,0a.08.08,0,0,0,.06,0s0,0,.07,0l.05,0s0,0,.08,0a.06.06,0,0,0,.05,0s0,0,.07,0l.05,0,.09.05,0,0a.39.39,0,0,0,.11.06l0,0,.26.13,0,0,.12.06,0,0,.11.06,0,0a.19.19,0,0,0,.1.05l0,0,.1,0,0,0,.1,0s0,0,0,0a.39.39,0,0,1,.11.06l0,0,.65.32.12.07,0,0a.67.67,0,0,0,.12.06l0,0,.12.07a174.87,174.87,0,0,0,17,7.26l.13,0,0,0a.61.61,0,0,0,.12.05l.14,0,.84.3.13,0a.61.61,0,0,0,.12.05l0,0,.13.05.12,0,.71.25.13,0,0,0,.12,0s0,0,0,0l.12,0s0,0,0,0l.11,0s0,0,0,0a.28.28,0,0,0,.12,0s0,0,0,0a.61.61,0,0,0,.12.05l.57.19,0,0,.12,0,0,0,.11,0s0,0,0,0a.26.26,0,0,0,.1,0l0,0,.1,0a0,0,0,0,1,0,0,.38.38,0,0,0,.1,0s0,0,0,0l.11,0h0l.42.14,0,0,.12,0,0,0,.11,0s0,0,0,0l.1,0s0,0,0,0,.06,0,.09,0a.06.06,0,0,0,.05,0l.09,0s0,0,0,0l.1,0s0,0,0,0a.3.3,0,0,0,.11,0l0,0a.78.78,0,0,0,.14.05l.14,0a1.12,1.12,0,0,0,.13.05s0,0,0,0a.38.38,0,0,0,.1,0s0,0,.05,0l.09,0a.08.08,0,0,0,.06,0s0,0,.08,0l.05,0,.09,0s0,0,0,0l.09,0a.06.06,0,0,0,.05,0l.09,0a.06.06,0,0,0,0,0,.12.12,0,0,0,.1,0l0,0,.12,0,0,0,.14,0s0,0,0,0l.1,0a.06.06,0,0,0,.05,0,.18.18,0,0,0,.09,0l0,0a.19.19,0,0,1,.08,0l.06,0,.09,0s0,0,0,0l.08,0s0,0,.06,0l.08,0s0,0,.06,0l.08,0a.05.05,0,0,0,0,0,.29.29,0,0,1,.1,0s0,0,0,0a.43.43,0,0,0,.14,0l.12,0s0,0,0,0a.45.45,0,0,1,.11,0l0,0a.28.28,0,0,0,.12,0h0a.38.38,0,0,0,.1,0s0,0,0,0a292796720632.35,292796720632.35,0,0,0,.24.08s0,0,0,0l.25.07h0a.53.53,0,0,0,.12,0,.33.33,0,0,0,.13,0l.13,0,.27.08.41.11.27.08a170.92,170.92,0,0,0,21,4.6l.68.1a1.26,1.26,0,0,0,.27,0c.13,0,.27,0,.4.06a48.11,48.11,0,0,1,.53.08l.27,0,.13,0a2.48,2.48,0,0,0,.27,0,.18.18,0,0,1,.12,0l.13,0h0s.08,0,.11,0l.13,0,.12,0h0l.25,0h0l.12,0s.08,0,.13,0h0a.22.22,0,0,1,.11,0h0c.05,0,.09,0,.13,0a.27.27,0,0,1,.13,0l.25,0h0a.17.17,0,0,1,.11,0h0a.25.25,0,0,1,.12,0h0a.14.14,0,0,1,.1,0h0l.12,0,.12,0h0a.17.17,0,0,1,.12,0,.27.27,0,0,1,.12,0h0a.14.14,0,0,1,.1,0h0a.27.27,0,0,1,.13,0h0a.16.16,0,0,1,.1,0h0a.15.15,0,0,1,.11,0h0a.22.22,0,0,1,.11,0h0a.13.13,0,0,1,.1,0h0a.25.25,0,0,1,.12,0h0a.15.15,0,0,1,.09,0h0a.19.19,0,0,1,.12,0h0a.16.16,0,0,1,.1,0h0a.14.14,0,0,1,.1,0h0a.25.25,0,0,1,.12,0h.16a.25.25,0,0,1,.12,0h0s.07,0,.09,0h0a.25.25,0,0,1,.12,0h0a.11.11,0,0,1,.09,0h0a.13.13,0,0,1,.09,0h0a.17.17,0,0,1,.11,0h.17a.2.2,0,0,1,.11,0H239a.13.13,0,0,1,.09,0h.31a.17.17,0,0,1,.11,0h.85a.18.18,0,0,1,.1,0h13.62l2.06,0,0-28h-.26c-1.22,0-2.45,0-3.67-.05s-2.43-.07-3.65-.13-2.42-.14-3.63-.23-2.41-.2-3.61-.32-2.4-.26-3.59-.41-2.39-.32-3.57-.5-2.37-.37-3.55-.58-2.35-.44-3.52-.68-2.33-.49-3.5-.76-2.31-.55-3.46-.85-2.3-.61-3.44-.94-2.28-.67-3.41-1-2.26-.73-3.38-1.11-2.23-.78-3.34-1.2-2.22-.84-3.32-1.28-2.19-.89-3.27-1.36-2.17-.95-3.24-1.45-2.15-1-3.21-1.52-2.12-1.07-3.17-1.62-2.09-1.11-3.12-1.69l-1.1-.63Z" transform="translate(-46 -46)"/></g></svg>