<svg width="420" height="420" viewBox="0 0 420 420" fill="none" xmlns="http://www.w3.org/2000/svg">
<g id="Chip2">
<g id="g25582">
<path id="abColor_1" d="M420 210C420 326 326 420 210 420C94 420 0 326 0 210C0 94 94 0 210 0C326 0 420 94 420 210Z" fill="#29313D"/>
<path id="abColor_2" fill-rule="evenodd" clip-rule="evenodd" d="M210 81.3502C177.139 81.3098 145.528 93.9387 121.74 116.61C70.36 165.4 68.16 246.98 116.84 298.47C128.418 310.732 142.302 320.588 157.696 327.473C173.091 334.358 189.693 338.137 206.551 338.593C223.409 339.049 240.191 336.174 255.935 330.131C271.679 324.089 286.076 314.998 298.3 303.38C349.68 254.6 351.87 173.01 303.2 121.52C291.258 108.781 276.819 98.6397 260.784 91.7283C244.749 84.817 227.461 81.2842 210 81.3502V81.3502ZM210 345.7C191.582 345.77 173.347 342.044 156.432 334.754C139.518 327.464 124.287 316.767 111.69 303.33C60.35 249.01 62.69 162.96 116.86 111.49C129.755 99.2359 144.941 89.6471 161.548 83.2734C178.156 76.8998 195.858 73.8666 213.64 74.3478C231.422 74.829 248.935 78.8152 265.173 86.0777C281.412 93.3403 296.057 103.736 308.27 116.67C359.61 170.99 357.27 257.04 303.1 308.5C278.012 332.422 244.665 345.746 210 345.7Z" fill="white"/>
<path id="abColor_2_2" d="M304 35L276.41 84.06C298.364 95.7252 316.882 112.934 330.122 133.976C343.363 155.018 350.864 179.16 351.88 204L408.49 202.72C407.224 168.077 396.912 134.368 378.581 104.944C360.251 75.5206 334.538 51.407 304 35ZM104.81 41.65C76.2692 59.4691 52.7219 84.2453 36.3765 113.655C20.0311 143.064 11.4231 176.143 11.3599 209.79L67.9999 209C68.1656 184.99 74.3792 161.41 86.0668 140.436C97.7543 119.463 114.539 101.772 134.87 89L104.81 41.65ZM282.08 332.83C260.587 345.445 236.158 352.193 211.238 352.4C186.317 352.607 161.779 346.266 140.08 334.01L114.14 383.87C144.197 400.499 178.061 409.03 212.409 408.627C246.757 408.224 280.411 398.9 310.07 381.57L282.08 332.83Z" fill="white"/>
<path id="abColor_2_3" d="M204.67 9.82009C190.043 9.79558 175.461 11.4497 161.21 14.7501L175 72.4901C186.419 69.6039 198.152 68.1461 209.93 68.1501C216.789 68.1513 223.64 68.6392 230.43 69.6101L239.7 13.0901C228.157 10.9396 216.442 9.84509 204.7 9.82009H204.67ZM345.44 255.49C339.359 274.238 329.442 291.514 316.32 306.22L352.38 338.28C370.692 319.21 384.862 296.559 394 271.75L345.44 255.49ZM77.3302 263.64L28.7202 283.9C38.6738 308.384 53.5787 330.547 72.5002 349L108.65 311.66C107.9 310.89 107.15 310.13 106.41 309.34C93.8721 296.108 83.9991 280.585 77.3302 263.62V263.64Z" fill="white"/>
</g>
</g>
</svg>
