<svg xmlns="http://www.w3.org/2000/svg" viewBox="0 0 512 512"><defs>
<style>.cls-1,.cls-4{fill:#fff;}.cls-1{stroke:#fff;stroke-miterlimit:10;stroke-width:5px;}.cls-2{fill:currentColor;}.cls-3{fill-rule:evenodd;}</style></defs>
<g id="Rectangle">
  <rect class="cls-1" x="2.5" y="2.5" width="507" height="507"/>
</g>
<g id="Chip1" fill="currentColor"><g id="g25047">
  <path id="path25025" class="cls-2" fill="currentColor"  d="M466,256c0,116-94,210-210,210S46,372,46,256h0C46,140,140,46,256,46h0C372,46,466,140,466,256Z"/>
  <path id="path25027"  class="cls-3" fill="currentColor" d="M256,127.36a127.69,127.69,0,0,0-88.26,35.25c-51.38,48.79-53.58,130.37-4.9,181.87a128.16,128.16,0,0,0,181.46,4.9c51.38-48.78,53.57-130.37,4.9-181.86A127.09,127.09,0,0,0,256,127.35m0,264.35a134.06,134.06,0,0,1-98.31-42.37c-51.34-54.32-49-140.37,5.17-191.84a135.18,135.18,0,0,1,191.41,5.18c51.34,54.32,49,140.37-5.17,191.83A134.65,134.65,0,0,1,256,391.7"/>
  <path id="path25029" class="cls-4" d="M328,377.7l30.78,51.73a201.86,201.86,0,0,0,48.89-40.85l0,0c.65-.77,1.29-1.55,1.93-2.33q1.78-2.1,3.52-4.25c.92-1.16,1.83-2.34,2.73-3.52,1.15-1.5,2.29-3,3.4-4.56q1.25-1.72,2.43-3.48,1.69-2.43,3.31-4.92c.73-1.13,1.44-2.27,2.14-3.42,1.08-1.73,2.12-3.47,3.15-5.23.64-1.12,1.27-2.24,1.88-3.38,1-1.83,2-3.68,3-5.55.55-1.08,1.08-2.16,1.61-3.25q1.44-2.93,2.79-5.9c.47-1.06.93-2.12,1.38-3.19q1.32-3,2.53-6.13c.41-1.05.8-2.1,1.19-3.16.54-1.37,1.05-2.75,1.56-4.14l-.08,0a202,202,0,0,0,11.19-62.73l-60.29-1c0,.47,0,.93,0,1.39q-.09,3.4-.34,6.79t-.67,6.76q-.4,3.38-1,6.73c-.39,2.24-.82,4.46-1.31,6.68s-1,4.43-1.63,6.62-1.25,4.38-1.95,6.55-1.46,4.33-2.27,6.47-1.68,4.26-2.6,6.37-1.88,4.19-2.91,6.26-2.1,4.11-3.23,6.13-2.31,4-3.55,6-2.52,3.93-3.86,5.86-2.74,3.82-4.19,5.69-2.95,3.71-4.5,5.52-3.16,3.58-4.82,5.33-3.38,3.45-5.14,5.13-3.33,3.08-5,4.56-3.45,2.9-5.22,4.29-3.56,2.72-5.38,4-3.67,2.54-5.55,3.74c-1.29.83-2.61,1.6-3.92,2.39Z"/>
  <path id="path25031" class="cls-4" d="M115.06,261.8l-60.45,2.45a201.93,201.93,0,0,0,12.6,62.31h0l.54,1.36c1,2.53,2,5,3,7.53l.58,1.33c1.19,2.73,2.44,5.42,3.74,8.09l.29.58a202,202,0,0,0,31.89,46.75l.11-.1a202,202,0,0,0,49.76,39.61l29.53-52.39c-1.8-1-3.58-2.06-5.33-3.16q-3-1.89-5.94-3.95T169.63,368c-1.89-1.48-3.75-3-5.57-4.58s-3.62-3.21-5.38-4.89-3.47-3.41-5.15-5.19-3.3-3.57-4.86-5.4-3.07-3.69-4.53-5.59-2.85-3.8-4.2-5.75-2.63-3.91-3.87-5.91-2.42-4-3.55-6-2.2-4.1-3.22-6.18-2-4.19-2.89-6.31-1.77-4.25-2.57-6.4-1.55-4.32-2.25-6.5-1.33-4.38-1.92-6.58-1.11-4.42-1.59-6.65-.9-4.46-1.27-6.7-.69-4.49-1-6.74-.47-4.51-.63-6.77c-.09-1.32-.12-2.65-.17-4Z"/>
  <path id="path25033" class="cls-4" d="M257.88,54.68a200.32,200.32,0,0,0-32,2.27v0a201.78,201.78,0,0,0-72.15,25.63l30.41,51.66c.55-.33,1.09-.68,1.64-1q2.88-1.66,5.84-3.19c2-1,4-2,6-2.9s4-1.79,6.1-2.61,4.13-1.59,6.22-2.31,4.21-1.4,6.33-2,4.27-1.2,6.43-1.72,4.33-1,6.52-1.41,4.38-.79,6.59-1.11,4.43-.58,6.66-.8,4.48-.37,6.73-.48,4.51-.16,6.78-.16q3.66,0,7.31.19t7.23.54c2.4.24,4.78.55,7.15.91s4.72.78,7.06,1.26,4.65,1,6.95,1.61,4.58,1.25,6.84,2,4.5,1.48,6.71,2.3,4.41,1.7,6.58,2.64,4.32,1.92,6.44,3c1.33.66,2.64,1.38,3.95,2.08l27.89-52.91A201.78,201.78,0,0,0,289.8,57.65l0-.15a201,201,0,0,0-31.94-2.82Z"/>
  <path id="path25035" class="cls-4" d="M238.24,437a20.93,20.93,0,1,1,28.92,6.31A20.93,20.93,0,0,1,238.24,437Z"/>
  <path id="path25039" class="cls-4" d="M105.78,152.94a20.93,20.93,0,1,1-19.58,22.2,20.93,20.93,0,0,1,19.58-22.2Z"/>
  <path id="path25043" class="cls-4" d="M405.22,152.94a20.93,20.93,0,1,0,19.58,22.2,20.92,20.92,0,0,0-19.58-22.2Z"/></g></g></svg>
