<svg width="420" height="420" viewBox="0 0 420 420" fill="none" xmlns="http://www.w3.org/2000/svg">
<g id="Chip5">
<g id="g34507">
<path id="abColor_1" d="M420 210C420 326 326 420 210 420C94 420 0 326 0 210C0 94 94 0 210 0C326 0 420 94 420 210Z" fill="#29313D"/>
<path id="abColor_2" fill-rule="evenodd" clip-rule="evenodd" d="M209.84 81.5196C176.979 81.4792 145.367 94.1081 121.58 116.78C70.1999 165.57 67.9999 247.15 116.68 298.64C128.258 310.901 142.142 320.757 157.536 327.642C172.931 334.528 189.533 338.307 206.391 338.763C223.249 339.219 240.031 336.343 255.775 330.301C271.519 324.258 285.916 315.167 298.14 303.55C349.52 254.77 351.71 173.18 303.04 121.69C291.098 108.951 276.659 98.8091 260.624 91.8978C244.588 84.9865 227.301 81.4536 209.84 81.5196V81.5196ZM209.84 345.86C191.422 345.934 173.186 342.211 156.271 334.923C139.356 327.635 124.126 316.938 111.53 303.5C60.1899 249.18 62.5299 163.12 116.7 111.66C129.594 99.4053 144.781 89.8165 161.388 83.4428C177.996 77.0692 195.698 74.036 213.48 74.5173C231.262 74.9985 248.775 78.9846 265.013 86.2472C281.252 93.5097 295.897 103.906 308.11 116.84C359.45 171.15 357.11 257.21 302.94 308.67C277.852 332.589 244.504 345.911 209.84 345.86" fill="white"/>
<path id="abColor_2_2" fill-rule="evenodd" clip-rule="evenodd" d="M306.49 33.6503L283.64 75.3603C306.923 88.2403 326.492 106.904 340.46 129.55L380.87 104.55C362.7 75.1303 336.7 50.0903 306.49 33.6603V33.6503ZM380.93 104.65C367.51 113.02 353.78 121.31 340.56 129.72C354 121.33 367.78 113.06 380.93 104.63V104.65ZM381.05 104.84C367.62 113.19 353.87 121.47 340.65 129.84C354.05 121.5 367.94 113.21 381.05 104.82V104.84ZM410.68 207L363.19 207.75C363.621 234.357 357.165 260.624 344.45 284L386.11 306.85C392.72 295.32 397.31 283.01 401.16 270.4C406.865 253.065 409.922 234.968 410.23 216.72C410.28 213.43 410.12 209.63 410.68 207ZM344.41 284C358.04 291.65 372.3 299.55 386.05 306.88L344.41 284ZM344.33 284.15C357.95 291.82 372.19 299.72 385.94 307.08L344.33 284.15ZM287.88 342.52C265.03 356.039 239.056 363.383 212.51 363.83L213.32 411.42C248.109 410.842 282.148 401.209 312.08 383.47C304.027 369.824 295.96 356.187 287.88 342.56V342.52ZM212.42 363.83C212.54 379.49 212.77 395.83 213.2 411.42L212.42 363.83ZM212.25 363.83C212.36 379.48 212.54 395.83 212.98 411.41C212.74 395.584 212.497 379.74 212.25 363.88V363.83ZM77.8602 288.56L37.0002 312.87C54.7958 342.788 79.9858 367.626 110.15 385L133.72 343.69C110.652 330.428 91.4082 311.422 77.8602 288.52V288.56ZM77.7702 288.41C64.2302 296.55 50.2402 304.57 36.9802 312.78C50.5302 304.64 64.4302 296.59 77.7702 288.41ZM77.6802 288.26C64.1302 296.38 50.1402 304.4 36.8602 312.58C50.4202 304.46 64.3202 296.43 77.6802 288.26V288.26ZM35.2602 110.53C26.2602 126.07 19.9002 143.08 15.0802 160.27C11.7602 176.53 8.79016 193.13 9.08016 209.87L56.5702 209.94C56.5794 183.333 63.4691 157.179 76.5702 134.02L35.2602 110.53ZM35.3702 110.33C48.7802 118.24 62.9702 126.33 76.6002 133.95L35.3702 110.33ZM35.4802 110.13C48.9002 118.06 63.0702 126.13 76.6802 133.79L35.4802 110.13ZM209.81 8.87032C175.006 8.70799 140.773 17.7206 110.56 35.0003L134.05 76.3603C157.133 63.2429 183.23 56.3509 209.78 56.3603C209.78 40.527 209.78 24.7003 209.78 8.88032L209.81 8.87032Z" fill="white"/>
</g>
</g>
</svg>
