<svg xmlns="http://www.w3.org/2000/svg" viewBox="0 0 512 512"><defs><style>.cls-1,.cls-3,.cls-4{fill:#fff;}.cls-1{stroke:#fff;stroke-miterlimit:10;stroke-width:5px;}.cls-2{fill:#29313d;}.cls-3{fill-rule:evenodd;}</style></defs><g id="Rectangle"><rect class="cls-1" x="2.5" y="2.5" width="507" height="507"/></g><g id="Chip1"><g id="g25582"><path id="path13236" class="cls-2" d="M466,256c0,116-94,210-210,210S46,372,46,256,140,46,256,46s210,94,210,210Z"/><path id="path13238" class="cls-3" d="M256,127.35a127.7,127.7,0,0,0-88.26,35.26c-51.38,48.79-53.58,130.37-4.9,181.86a128.15,128.15,0,0,0,181.46,4.91c51.38-48.78,53.57-130.37,4.9-181.86A127.09,127.09,0,0,0,256,127.35m0,264.35a134.06,134.06,0,0,1-98.31-42.37c-51.34-54.32-49-140.37,5.17-191.84a135.18,135.18,0,0,1,191.41,5.18c51.34,54.32,49,140.37-5.17,191.83A134.65,134.65,0,0,1,256,391.7"/><path id="path13240" class="cls-4" d="M350,81l-27.59,49.06A142.41,142.41,0,0,1,397.88,250l56.61-1.28A198.63,198.63,0,0,0,350,81ZM150.81,87.65A198.66,198.66,0,0,0,57.36,255.79L114,255a142.88,142.88,0,0,1,66.87-120ZM328.08,378.83a142.29,142.29,0,0,1-142,1.18l-25.94,49.86a198.19,198.19,0,0,0,195.93-2.3Z"/><path id="path13242" class="cls-4" d="M250.67,55.82a191.2,191.2,0,0,0-43.46,4.93L221,118.49a142.35,142.35,0,0,1,34.93-4.34,145,145,0,0,1,20.5,1.46l9.27-56.52a193.35,193.35,0,0,0-35-3.27ZM391.44,301.49a142,142,0,0,1-29.12,50.73l36.06,32.06A191.73,191.73,0,0,0,440,317.75Zm-268.11,8.15L74.72,329.9A191.86,191.86,0,0,0,118.5,395l36.15-37.34c-.75-.77-1.5-1.53-2.24-2.32a142,142,0,0,1-29.08-45.72Z"/></g></g></svg>