<svg xmlns="http://www.w3.org/2000/svg" viewBox="0 0 512 512"><defs><style>.cls-1,.cls-3,.cls-4{fill:#fff;}.cls-1{stroke:#fff;stroke-miterlimit:10;stroke-width:5px;}.cls-2{fill:#29313d;}.cls-3{fill-rule:evenodd;}</style></defs><g id="Rectangle"><rect class="cls-1" x="2.5" y="2.5" width="507" height="507"/></g><g id="Chip1"><g id="g35411"><path id="path26226" class="cls-2" d="M466,256c0,116-94,210-210,210S46,372,46,256,140,46,256,46s210,94,210,210Z"/><path id="path26228" class="cls-3" d="M252.79,54.76a201.74,201.74,0,0,0-69,13.35l23.49,61.24a135.75,135.75,0,0,0-84.17,152.49l-65,12.62A201.78,201.78,0,0,0,129.48,413L171,361.63A135.22,135.22,0,0,0,341.84,361l41.88,50.95A201.8,201.8,0,0,0,454,292.71l-64.95-12a135.87,135.87,0,0,0-88.38-152.89l21.48-61.95a201.65,201.65,0,0,0-69.38-11.1ZM256,127.35a127.09,127.09,0,0,1,93.2,40.17c48.67,51.49,46.48,133.08-4.9,181.87a128.17,128.17,0,0,1-181.46-4.91c-48.68-51.5-46.48-133.08,4.9-181.87A127.7,127.7,0,0,1,256,127.35Z"/><path id="path26232" class="cls-4" d="M138.43,92.4A201.55,201.55,0,0,0,54.32,255.89l30.55-2.16a171.12,171.12,0,0,1,70.54-138.41l.69-.43ZM176.26,405l-14,28.81A201.53,201.53,0,0,0,346.07,436L332.68,406.7,330.25,408q-4.32,2.08-8.76,3.92t-9,3.43q-4.53,1.59-9.14,2.91t-9.3,2.4c-3.12.71-6.26,1.34-9.42,1.87s-6.32,1-9.5,1.35-6.37.62-9.56.8-6.4.27-9.6.27a171,171,0,0,1-77.69-18.65c-.69-.41-1.37-.83-2.05-1.25ZM427.13,253.73l30.3,2.16A201.55,201.55,0,0,0,373.32,92.4l-17.59,22.32q3.56,2.53,7,5.25,3.75,3,7.33,6.19c2.39,2.14,4.72,4.33,7,6.6s4.46,4.59,6.6,7,4.19,4.84,6.19,7.34,3.92,5.06,5.77,7.67,3.63,5.27,5.33,8,3.33,5.47,4.88,8.27,3,5.64,4.41,8.53,2.69,5.8,3.92,8.76,2.36,5.95,3.42,9,2,6.07,2.92,9.14,1.68,6.18,2.39,9.3,1.34,6.26,1.88,9.41,1,6.33,1.34,9.51.63,6.37.8,9.56S427.13,250.55,427.13,253.73Z"/></g></g></svg>