<svg width="420" height="420" viewBox="0 0 420 420" fill="none" xmlns="http://www.w3.org/2000/svg">
<path d="M420 210C420 326 326 420 210 420C94 420 0 326 0 210C0 94 94 0 210 0C326 0 420 94 420 210Z" fill="#29313D"/>
<path fill-rule="evenodd" clip-rule="evenodd" d="M206.79 8.76002C183.186 9.13866 159.832 13.6572 137.79 22.11L161.28 83.35C131.595 94.8618 106.9 116.441 91.5145 144.316C76.1284 172.191 71.0298 204.587 77.11 235.84L12.11 248.46C21.1852 295.15 46.4623 337.133 83.48 367L125 315.63C149.199 335.202 179.409 345.827 210.532 345.712C241.655 345.597 271.786 334.75 295.84 315L337.72 365.95C374.471 335.731 399.363 293.499 408 246.71L343.05 234.71C348.951 202.875 343.29 169.979 327.086 141.948C310.883 113.918 285.202 92.5944 254.67 81.82L276.15 19.87C253.851 12.1384 230.368 8.38137 206.77 8.77002L206.79 8.76002ZM210 81.35C227.461 81.284 244.748 84.8169 260.784 91.7282C276.819 98.6395 291.258 108.781 303.2 121.52C351.87 173.01 349.68 254.6 298.3 303.39C286.075 315.005 271.678 324.094 255.934 330.135C240.19 336.176 223.408 339.051 206.551 338.595C189.694 338.139 173.092 334.361 157.698 327.477C142.304 320.593 128.419 310.739 116.84 298.48C68.16 246.98 70.36 165.4 121.74 116.61C145.527 93.9385 177.139 81.3096 210 81.35V81.35Z" fill="white"/>
<path d="M92.43 46.4004C66.449 65.028 45.2718 89.5687 30.6469 117.996C16.0221 146.423 8.36911 177.922 8.32001 209.89L38.87 207.73C38.8748 180.731 45.2684 154.115 57.5284 130.059C69.7883 106.004 87.5665 85.1902 109.41 69.3204L110.1 68.8904L92.43 46.4004ZM130.26 359L116.26 387.81C144.529 402.725 175.941 410.702 207.901 411.083C239.861 411.464 271.453 404.238 300.07 390L286.68 360.7L284.25 362C281.37 363.387 278.45 364.694 275.49 365.92C272.53 367.147 269.53 368.29 266.49 369.35C263.47 370.41 260.423 371.38 257.35 372.26C254.277 373.14 251.177 373.94 248.05 374.66C244.93 375.37 241.79 376 238.63 376.53C235.47 377.06 232.31 377.53 229.13 377.88C225.95 378.23 222.76 378.5 219.57 378.68C216.38 378.86 213.17 378.95 209.97 378.95C182.964 378.956 156.341 372.565 132.28 360.3C131.59 359.89 130.91 359.47 130.23 359.05L130.26 359ZM381.13 207.73L411.43 209.89C411.381 177.922 403.728 146.423 389.103 117.996C374.478 89.5687 353.301 65.028 327.32 46.4004L309.73 68.7204C312.103 70.4071 314.437 72.1571 316.73 73.9704C319.23 75.9704 321.673 78.0337 324.06 80.1604C326.45 82.3004 328.78 84.4904 331.06 86.7604C333.34 89.0304 335.52 91.3504 337.66 93.7604C339.8 96.1704 341.85 98.6004 343.85 101.1C345.85 103.6 347.77 106.16 349.62 108.77C351.47 111.38 353.25 114.04 354.95 116.77C356.65 119.5 358.28 122.24 359.83 125.04C361.38 127.84 362.83 130.68 364.24 133.57C365.65 136.46 366.93 139.37 368.16 142.33C369.39 145.29 370.52 148.28 371.58 151.33C372.64 154.38 373.58 157.4 374.5 160.47C375.42 163.54 376.18 166.65 376.89 169.77C377.6 172.89 378.23 176.03 378.77 179.18C379.31 182.33 379.77 185.51 380.11 188.69C380.45 191.87 380.74 195.06 380.91 198.25C381.08 201.44 381.13 204.55 381.13 207.73Z" fill="white"/>
</svg>
