<svg width="420" height="420" viewBox="0 0 420 420" fill="none" xmlns="http://www.w3.org/2000/svg">
<g id="Chip1">
<g id="g25047">
<path id="abColor_1" d="M420 210C420 326 326 420 210 420C94 420 0 326 0 210C0 94 94 0 210 0C326 0 420 94 420 210Z" fill="#29313D"/>
<path id="abColor_2" fill-rule="evenodd" clip-rule="evenodd" d="M210 81.3602C177.14 81.3161 145.528 93.9415 121.74 116.61C70.36 165.4 68.16 246.98 116.84 298.48C128.419 310.74 142.304 320.594 157.699 327.478C173.094 334.361 189.695 338.139 206.553 338.594C223.41 339.049 240.192 336.173 255.936 330.13C271.68 324.088 286.076 314.997 298.3 303.38C349.68 254.6 351.87 173.01 303.2 121.52C291.258 108.781 276.819 98.6397 260.784 91.7283C244.748 84.817 227.461 81.2842 210 81.3502V81.3602ZM210 345.7C191.582 345.77 173.347 342.044 156.432 334.754C139.518 327.464 124.287 316.767 111.69 303.33C60.35 249.01 62.69 162.96 116.86 111.49C129.754 99.2359 144.941 89.6471 161.548 83.2734C178.156 76.8998 195.858 73.8666 213.64 74.3478C231.422 74.829 248.935 78.8152 265.173 86.0777C281.412 93.3403 296.057 103.736 308.27 116.67C359.61 170.99 357.27 257.04 303.1 308.5C278.012 332.422 244.665 345.746 210 345.7Z" fill="white"/>
<path id="abColor_2_2" d="M282 331.7L312.78 383.43C331.136 372.487 347.638 358.699 361.67 342.58V342.58C362.32 341.81 362.96 341.03 363.6 340.25C364.787 338.85 365.96 337.433 367.12 336C368.04 334.84 368.95 333.66 369.85 332.48C371 330.98 372.14 329.48 373.25 327.92C374.083 326.773 374.893 325.613 375.68 324.44C376.807 322.82 377.91 321.18 378.99 319.52C379.72 318.39 380.43 317.25 381.13 316.1C382.21 314.37 383.25 312.63 384.28 310.87C384.92 309.75 385.55 308.63 386.16 307.49C387.16 305.66 388.16 303.81 389.16 301.94C389.71 300.86 390.24 299.78 390.77 298.69C391.73 296.737 392.66 294.77 393.56 292.79C394.03 291.73 394.49 290.67 394.94 289.6C395.82 287.6 396.663 285.557 397.47 283.47C397.88 282.42 398.27 281.37 398.66 280.31C399.2 278.94 399.71 277.56 400.22 276.17H400.14C407.165 255.984 410.942 234.81 411.33 213.44L351.04 212.44C351.04 212.91 351.04 213.37 351.04 213.83C350.98 216.097 350.867 218.36 350.7 220.62C350.533 222.88 350.31 225.133 350.03 227.38C349.763 229.633 349.43 231.877 349.03 234.11C348.64 236.35 348.21 238.57 347.72 240.79C347.23 243.01 346.72 245.22 346.09 247.41C345.46 249.6 344.84 251.79 344.14 253.96C343.44 256.13 342.68 258.29 341.87 260.43C341.06 262.57 340.19 264.69 339.27 266.8C338.35 268.91 337.39 270.99 336.36 273.06C335.33 275.13 334.26 277.17 333.13 279.19C332 281.21 330.82 283.19 329.58 285.19C328.34 287.19 327.06 289.12 325.72 291.05C324.38 292.98 322.98 294.87 321.53 296.74C320.08 298.61 318.58 300.45 317.03 302.26C315.48 304.07 313.87 305.84 312.21 307.59C310.55 309.34 308.83 311.04 307.07 312.72C305.31 314.4 303.74 315.8 302.07 317.28C300.4 318.76 298.62 320.18 296.85 321.57C295.08 322.96 293.29 324.29 291.47 325.57C289.65 326.85 287.8 328.11 285.92 329.31C284.63 330.14 283.31 330.91 282 331.7V331.7Z" fill="white"/>
<path id="abColor_2_3" d="M69.06 215.8L8.60999 218.25C9.49375 239.555 13.7464 260.585 21.21 280.56V280.56L21.75 281.92C22.75 284.45 23.75 286.92 24.75 289.45L25.33 290.78C26.52 293.51 27.77 296.2 29.07 298.87L29.36 299.45C37.7436 316.452 48.479 332.19 61.25 346.2L61.36 346.1C75.751 361.848 92.5458 375.217 111.12 385.71L140.65 333.32C138.85 332.32 137.07 331.26 135.32 330.16C133.32 328.9 131.34 327.583 129.38 326.21C127.42 324.836 125.503 323.433 123.63 322C121.74 320.52 119.88 319 118.06 317.42C116.24 315.84 114.44 314.21 112.68 312.53C110.92 310.85 109.21 309.12 107.53 307.34C105.85 305.56 104.23 303.77 102.67 301.94C101.11 300.11 99.6 298.25 98.14 296.35C96.68 294.45 95.29 292.55 93.94 290.6C92.59 288.65 91.31 286.69 90.07 284.69C88.83 282.69 87.65 280.69 86.52 278.69C85.39 276.69 84.32 274.59 83.3 272.51C82.28 270.43 81.3 268.32 80.41 266.2C79.52 264.08 78.64 261.95 77.84 259.8C77.04 257.65 76.29 255.48 75.59 253.3C74.89 251.12 74.26 248.92 73.67 246.72C73.08 244.52 72.56 242.3 72.08 240.07C71.6 237.84 71.18 235.61 70.81 233.37C70.44 231.13 70.12 228.88 69.81 226.63C69.5 224.38 69.34 222.12 69.18 219.86C69.09 218.54 69.06 217.21 69.01 215.86L69.06 215.8Z" fill="white"/>
<path id="abColor_2_4" d="M211.88 8.68012C201.17 8.58009 190.469 9.33919 179.88 10.9501V10.9501C154.415 14.8104 129.924 23.5103 107.73 36.5801L138.14 88.2401C138.69 87.9101 139.23 87.5601 139.78 87.2401C141.7 86.1335 143.647 85.0701 145.62 84.0501C147.62 83.0501 149.62 82.0501 151.62 81.1501C153.62 80.2501 155.62 79.3601 157.72 78.5401C159.82 77.7201 161.85 76.9501 163.94 76.2301C166.03 75.5101 168.15 74.8301 170.27 74.2301C172.39 73.6301 174.54 73.0301 176.7 72.5101C178.86 71.9901 181.03 71.5101 183.22 71.1001C185.41 70.6901 187.6 70.3101 189.81 69.9901C192.02 69.6701 194.24 69.4101 196.47 69.1901C198.7 68.9701 200.95 68.8201 203.2 68.7101C205.45 68.6001 207.71 68.5501 209.98 68.5501C212.42 68.5501 214.857 68.6135 217.29 68.7401C219.723 68.8668 222.133 69.0468 224.52 69.2801C226.92 69.5201 229.3 69.8301 231.67 70.1901C234.04 70.5501 236.39 70.9701 238.73 71.4501C241.07 71.9301 243.38 72.4501 245.68 73.0601C247.98 73.6701 250.26 74.3101 252.52 75.0601C254.78 75.8101 257.02 76.5401 259.23 77.3601C261.44 78.1801 263.64 79.0601 265.81 80.0001C267.98 80.9401 270.13 81.9201 272.25 83.0001C273.58 83.6601 274.89 84.3801 276.2 85.0801L304.09 32.1701C285.206 22.1818 264.856 15.2555 243.8 11.6501V11.5001C233.245 9.71107 222.565 8.76807 211.86 8.68012H211.88Z" fill="white"/>
<path id="abColor_2_5" d="M192.24 391C190.004 387.516 188.852 383.447 188.928 379.309C189.005 375.17 190.307 371.147 192.67 367.748C195.033 364.349 198.351 361.727 202.204 360.214C206.057 358.701 210.272 358.364 214.317 359.247C218.361 360.129 222.053 362.191 224.925 365.172C227.798 368.152 229.722 371.918 230.454 375.992C231.187 380.066 230.695 384.266 229.041 388.061C227.386 391.855 224.644 395.074 221.16 397.31C218.847 398.794 216.264 399.809 213.558 400.295C210.853 400.782 208.079 400.73 205.393 400.145C202.708 399.559 200.164 398.449 197.907 396.88C195.65 395.311 193.725 393.313 192.24 391V391Z" fill="white"/>
<path id="abColor_2_6" d="M59.78 106.94C63.9113 106.681 68.0267 107.653 71.6057 109.733C75.1846 111.813 78.0664 114.908 79.8867 118.625C81.707 122.343 82.3839 126.517 81.832 130.62C81.2801 134.722 79.524 138.569 76.7859 141.673C74.0478 144.778 70.4505 147.001 66.4491 148.061C62.4477 149.121 58.2218 148.971 54.3057 147.629C50.3897 146.288 46.9594 143.815 44.4486 140.524C41.9378 137.233 40.4593 133.271 40.2 129.14C40.0278 126.397 40.3977 123.646 41.2885 121.046C42.1794 118.445 43.5737 116.046 45.3919 113.984C47.2101 111.923 49.4165 110.24 51.8853 109.031C54.354 107.822 57.0366 107.112 59.78 106.94V106.94Z" fill="white"/>
<path id="abColor_2_7" d="M359.22 106.94C355.089 106.681 350.973 107.653 347.394 109.733C343.815 111.813 340.934 114.908 339.113 118.625C337.293 122.343 336.616 126.517 337.168 130.62C337.72 134.722 339.476 138.569 342.214 141.673C344.952 144.778 348.549 147.001 352.551 148.061C356.552 149.121 360.778 148.971 364.694 147.629C368.61 146.288 372.041 143.815 374.551 140.524C377.062 137.233 378.541 133.271 378.8 129.14C378.974 126.396 378.605 123.645 377.714 121.044C376.824 118.443 375.43 116.043 373.611 113.982C371.793 111.92 369.586 110.237 367.116 109.029C364.647 107.82 361.964 107.111 359.22 106.94V106.94Z" fill="white"/>
</g>
</g>
</svg>
