<svg width="420" height="420" viewBox="0 0 420 420" fill="none" xmlns="http://www.w3.org/2000/svg">
<g id="Chip3">
<g id="g34501">
<path id="abColor_1" d="M420 210C420 326 326 420 210 420C94 420 0 326 0 210C0 94 94 0 210 0C326 0 420 94 420 210Z" fill="#29313D"/>
<path id="abColor_2" fill-rule="evenodd" clip-rule="evenodd" d="M209.84 81.5201C176.979 81.4797 145.367 94.1086 121.58 116.78C70.1999 165.57 67.9999 247.15 116.68 298.64C128.258 310.902 142.142 320.758 157.536 327.643C172.931 334.528 189.533 338.307 206.391 338.763C223.249 339.219 240.031 336.344 255.775 330.301C271.519 324.259 285.916 315.168 298.14 303.55C349.52 254.77 351.71 173.18 303.04 121.69C291.098 108.951 276.659 98.8096 260.624 91.8983C244.588 84.987 227.301 81.4541 209.84 81.5201V81.5201ZM209.84 345.86C191.422 345.935 173.186 342.212 156.271 334.923C139.356 327.635 124.126 316.938 111.53 303.5C60.1899 249.18 62.5299 163.12 116.7 111.66C129.594 99.4058 144.781 89.817 161.388 83.4433C177.996 77.0697 195.698 74.0365 213.48 74.5177C231.262 74.999 248.775 78.9851 265.013 86.2477C281.252 93.5102 295.897 103.906 308.11 116.84C359.45 171.15 357.11 257.21 302.94 308.67C277.852 332.59 244.504 345.911 209.84 345.86" fill="white"/>
<path id="abColor_2_2" fill-rule="evenodd" clip-rule="evenodd" d="M207 8.86989C173.32 8.86989 139.78 18.4099 110.54 34.9499L134.03 76.3099C143.56 70.0299 154.51 63.7499 156.21 78.9999C178.901 69.6248 203.657 66.373 228 69.5699L231.54 41.8499C219.9 40.5299 205.18 43.9999 209.8 27.9299C209.31 21.8599 210.72 13.8799 209.21 8.82989C208.49 8.82989 207.72 8.76989 207.02 8.82989L207 8.86989ZM306.43 33.5699C298.99 47.4999 291.2 61.4299 283.62 75.3599C293.47 81.3599 311.99 88.2099 297.18 98.8399C316.444 114.022 331.43 133.95 340.67 156.67L366.9 146C363.562 137.378 359.732 128.954 355.43 120.77C363.91 115.46 372.84 110.24 381.05 104.86C372.48 110.07 363.84 115.62 355.33 120.61C363.81 115.29 372.7 110.06 380.93 104.67C372.37 109.88 363.73 115.46 355.22 120.45L380.87 104.57C362.57 74.9069 336.94 50.4554 306.45 33.5699H306.43ZM77.8999 103.16C72.1088 110.198 66.9205 117.711 62.3899 125.62C53.3899 120.54 44.2999 115.06 35.3899 110.24C44.3199 115.43 53.5999 120.53 62.2999 125.78C53.2999 120.72 44.1999 115.24 35.2999 110.44C44.2999 115.58 53.2999 120.72 62.2999 125.87L35.2999 110.54C26.2999 126.12 19.9099 143.19 15.1199 160.44C11.8299 176.66 8.89991 193.2 9.19991 209.88L56.6899 209.94C57.2999 198.71 54.1099 179.19 70.3399 186.94C74.3026 162.794 84.4329 140.081 99.7499 121L77.9399 103.12L77.8999 103.16ZM410.68 207L363.19 207.76C362.8 219.1 366.27 238.62 349.8 231.13C346.22 255.317 336.451 278.169 321.44 297.47L343.65 314.87C352.41 306.02 355.98 284.73 369.58 298.27C373.33 300.27 386.14 307.55 384.94 306.62C376.24 301.76 367.19 296.99 358.71 292.06C367.81 296.98 377.03 302.3 386.05 306.97C377.05 301.97 367.62 296.97 358.8 291.89L386.11 306.89C392.74 295.33 397.32 282.97 401.2 270.33C406.813 253.275 409.826 235.472 410.14 217.52C410.14 214 409.93 209.84 410.68 207.02V207ZM78.1999 261.36L51.7999 271.58C54.8973 280.286 58.8569 288.661 63.6199 296.58C54.7599 301.92 45.4499 307.16 36.8599 312.58C45.7999 307.35 54.8599 301.77 63.7199 296.75C54.8599 302.11 45.5599 307.35 36.9799 312.75C45.9099 307.51 54.9799 301.93 63.8199 296.89L36.9999 312.87C54.7754 342.796 79.9616 367.638 110.13 385C117.99 371.24 125.847 357.473 133.7 343.7C123.81 337.46 105.28 330.18 120.42 319.7C101.549 304.225 87.0046 284.13 78.1999 261.37V261.36ZM261.28 342.2C238.436 351.176 213.631 353.98 189.36 350.33C188.027 359.53 186.693 368.737 185.36 377.95C194.284 379.397 203.321 380.039 212.36 379.87C212.59 390.36 212.52 401.16 212.94 411.47C212.84 400.97 212.48 390.21 212.55 379.87C212.79 390.37 212.76 401.14 213.16 411.47C213.05 400.97 212.68 390.2 212.74 379.87L213.28 411.47C248.074 410.877 282.112 401.226 312.04 383.47L287.83 342.52C276.5 347.19 263.9 361.68 261.24 342.15L261.28 342.2Z" fill="white"/>
</g>
</g>
</svg>
