<svg width="38" height="100" viewBox="0 0 38 100" fill="none" xmlns="http://www.w3.org/2000/svg">
<path d="M11.3161 29.5104C12.3395 31.1683 14.3215 33.1452 17.9623 33.1452C21.6032 33.1452 23.5852 31.1683 24.6078 29.5104C25.2261 28.5074 25.3753 27.2563 25.0223 25.9872C23.6782 21.126 18.8033 20.0318 17.9623 20.0318C17.1214 20.0318 12.2482 21.1302 10.9024 25.9872C10.551 27.2563 10.6977 28.5074 11.3161 29.5104ZM12.7958 26.0862C13.2938 26.6448 13.71 27.1249 14.2405 27.3851C14.771 27.6452 15.4055 27.5957 15.8925 27.3893C16.3794 27.1829 16.6993 26.7557 16.8997 26.209C17.0308 25.8454 17.1181 25.4675 17.1598 25.0832C16.9347 25.0199 16.7193 24.9263 16.5193 24.8052C16.0878 24.5331 15.6938 24.0768 15.7014 23.5302C16.1969 23.6794 16.5645 23.676 16.9184 23.6896H17.9623H19.0062C19.361 23.676 19.7286 23.6777 20.2224 23.5276C20.2284 24.0726 19.8352 24.528 19.4045 24.8009C19.2045 24.9221 18.9891 25.0156 18.764 25.0789C18.8062 25.4637 18.8935 25.8421 19.0241 26.2064C19.2254 26.7531 19.5521 27.1812 20.0314 27.3868C20.5107 27.5923 21.1648 27.6324 21.6833 27.3825C22.2019 27.1326 22.63 26.6422 23.1332 26.0836C23.1989 26.8512 22.7733 27.606 22.0893 28.0648C21.976 28.1393 21.8574 28.2054 21.7345 28.2627C21.7209 28.7181 21.5972 29.6366 20.8902 30.4016C20.2215 31.1257 19.2382 31.4924 17.9666 31.4924C16.695 31.4924 15.7117 31.1257 15.043 30.4016C14.336 29.634 14.2123 28.7189 14.1978 28.2627C14.0748 28.2058 13.9562 28.1396 13.8431 28.0648C13.1557 27.6085 12.7292 26.852 12.7958 26.0862Z" fill="#EFD9AB"/>
<path d="M6.94687 27.3484L7.36477 27.6682L7.26413 28.168C7.24772 28.2618 7.23832 28.3567 7.23598 28.452C7.23427 28.5632 7.24112 28.6744 7.25645 28.7846C7.28521 29.0006 7.35375 29.2093 7.45858 29.4003C7.56448 29.595 7.7036 29.7696 7.86965 29.9163C8.04921 30.0755 8.24738 30.2124 8.45983 30.324L9.13103 30.7044L8.83509 31.2075C8.70106 31.4686 8.60596 31.7479 8.55279 32.0365C8.49004 32.3451 8.47365 32.6613 8.50418 32.9747C8.53308 33.2992 8.62583 33.6148 8.77709 33.9034C8.91952 34.2113 9.15235 34.4723 9.40479 34.729C9.06456 34.5837 8.75139 34.3819 8.47859 34.132C8.18897 33.8669 7.95325 33.5483 7.78437 33.1938C7.63347 32.8769 7.52398 32.5418 7.45858 32.1969C7.44323 32.2463 7.42191 32.2932 7.40741 32.3427C7.26133 32.8524 7.18698 33.38 7.18652 33.9102C7.17877 34.4358 7.25125 34.9595 7.40144 35.4633C7.53192 35.975 7.77584 36.4509 8.03255 36.9191L8.27306 37.3575L8.21591 37.4376C9.11738 38.328 11.2598 40.27 13.6699 41.2635C13.7569 40.9228 13.8921 40.5963 14.0716 40.2939C14.7437 39.325 17.2127 39.2073 17.953 39.1945L17.9623 39.6969L17.9709 39.1945C18.7111 39.2073 21.1802 39.325 21.8531 40.2939C22.032 40.5964 22.167 40.9229 22.2539 41.2635C24.6666 40.2691 26.8081 38.3272 27.7079 37.4376L27.6516 37.3566L27.8913 36.9183C28.1471 36.45 28.3919 35.9733 28.5224 35.4624C28.6728 34.9587 28.7456 34.435 28.7381 33.9094C28.7372 33.3792 28.6629 32.8517 28.5173 32.3418C28.5028 32.2924 28.4806 32.2455 28.4652 32.196C28.4003 32.541 28.2908 32.8762 28.1394 33.193C27.9706 33.5475 27.7348 33.866 27.4452 34.1311C27.174 34.3989 26.8388 34.5746 26.519 34.7281C26.7749 34.4723 27.0043 34.2104 27.1476 33.9026C27.2981 33.6137 27.3909 33.2982 27.4205 32.9738C27.4502 32.6604 27.4338 32.3443 27.3719 32.0357C27.3184 31.747 27.223 31.4677 27.0887 31.2067L26.7928 30.7035L27.4648 30.3231C27.6772 30.2114 27.8753 30.0745 28.055 29.9155C28.2211 29.769 28.3599 29.5943 28.4652 29.3995C28.57 29.2084 28.6388 28.9997 28.6682 28.7837C28.6975 28.579 28.6949 28.371 28.6605 28.1671L28.5582 27.6716L28.9752 27.3518C29.1808 27.1949 29.3855 27.0396 29.5211 26.8247C29.6719 26.6114 29.7833 26.3728 29.8503 26.1203C29.9222 25.8466 29.9592 25.5649 29.9603 25.2819C29.9624 24.9985 29.9338 24.7157 29.875 24.4384L29.8093 24.151L29.9577 23.8653C30.1752 23.4466 30.3688 23.0125 30.4259 22.54C30.4914 22.0592 30.4784 21.571 30.3876 21.0944C30.2874 20.5945 30.1294 20.1079 29.9168 19.6445C29.7068 19.1804 29.4496 18.7392 29.1492 18.3277L28.9241 18.0258L29.0179 17.6523C29.1486 17.1856 29.2278 16.706 29.2541 16.222C29.3061 15.2613 29.1087 14.3036 28.681 13.4417C28.5743 13.2276 28.455 13.02 28.3237 12.82C28.201 12.6352 28.065 12.4597 27.9168 12.2946L27.4051 11.7471L27.9168 11.2294C29.2499 9.88107 30.4839 8.39625 31.1952 6.75024C31.5457 5.9315 31.7274 5.07182 31.6421 4.26076C31.6421 4.05351 31.5679 3.86247 31.5355 3.66376C31.4613 3.47528 31.4195 3.27571 31.3172 3.09746C31.1401 2.72204 30.9053 2.3767 30.6212 2.07404C30.5089 1.93558 30.3764 1.81483 30.2281 1.71584C30.098 1.63254 29.9533 1.57467 29.8017 1.54527C29.5555 1.49363 29.2997 1.51285 29.0639 1.6007C29.0165 1.65854 28.9742 1.72047 28.9377 1.78577C28.8118 2.035 28.7391 2.30774 28.7245 2.5866C28.7138 2.74704 28.7138 2.90802 28.7245 3.06846C28.7347 3.26206 28.7356 3.45737 28.7339 3.65097C28.7249 4.04008 28.6876 4.42802 28.6222 4.8117C28.4898 5.57161 28.2208 6.30122 27.8281 6.96516C27.443 7.60815 26.9583 8.18591 26.3919 8.67684C26.8166 8.08836 27.1666 7.44954 27.4341 6.77497C27.6776 6.11816 27.8186 5.4278 27.852 4.72812C27.8636 4.38281 27.8508 4.03711 27.8137 3.69361C27.8043 3.61856 27.7906 3.54436 27.7804 3.47016C27.736 3.56397 27.6951 3.65949 27.6499 3.75416C27.2219 4.66385 26.7482 5.55138 26.2308 6.41336C25.9612 6.85674 25.6683 7.28548 25.3532 7.69776C25.1336 7.97837 24.8927 8.24155 24.6325 8.48495C24.6726 8.59155 24.7178 8.6973 24.7502 8.80561C24.9762 9.60815 25.0359 10.444 24.8457 11.2175C24.6594 10.4896 24.357 9.79643 23.9502 9.16467C23.5693 8.58642 23.0854 8.08312 22.5225 7.67985C21.9648 7.29692 21.378 7.01036 20.891 6.99757C20.6523 6.98099 20.4131 7.02072 20.1925 7.11355C20.0733 7.16097 19.959 7.22011 19.8514 7.2901C19.7474 7.35321 19.6109 7.46663 19.5529 7.50075L19.4915 7.45725C19.534 7.72116 19.5429 7.98939 19.5179 8.25553C18.9815 7.71141 18.4945 7.2321 18.0135 6.90717C17.5376 6.56602 17.0754 6.46795 16.6873 6.50206C16.5116 6.53447 16.4673 6.54982 16.3743 6.64363C16.2814 6.73745 16.1935 6.9626 16.1577 7.22357L16.1449 7.32335C16.1325 7.45455 16.0985 7.58279 16.0443 7.70288C15.928 7.9575 15.7222 8.16055 15.466 8.27343C15.2901 8.35204 15.0976 8.38652 14.9053 8.37388C14.7129 8.36125 14.5266 8.30189 14.3624 8.20094L14.2405 8.1276C14.0317 7.99137 13.7976 7.89855 13.5522 7.85469C13.0695 7.75149 12.6021 7.90159 12.3966 8.16683C12.2783 8.31793 12.21 8.50217 12.2013 8.69389C12.1935 8.94077 12.2308 9.18701 12.3113 9.42053C12.378 9.65592 12.4914 9.87548 12.6448 10.0661C12.8017 10.2378 12.9914 10.3764 13.2026 10.4738C13.4463 10.5776 13.7058 10.6399 13.9701 10.658C14.244 10.6823 14.5198 10.6728 14.7914 10.6299L15.4737 10.5079L15.663 11.1254C15.7159 11.4978 15.842 11.8561 16.034 12.1795C16.1218 12.3159 16.2452 12.4256 16.3909 12.4969C16.5365 12.5682 16.6989 12.5982 16.8604 12.5838C17.2459 12.5693 17.6766 12.4004 18.0741 12.1795C18.4804 11.9485 18.8611 11.6752 19.2101 11.3642C18.9472 11.7673 18.6421 12.1412 18.3001 12.4797C17.9478 12.8209 17.5487 13.1407 17.0105 13.3223C16.7209 13.4192 16.4117 13.4427 16.1108 13.3906C15.7927 13.3295 15.4947 13.1906 15.2434 12.9863C14.9712 12.7527 14.7372 12.4779 14.5501 12.1718C14.3163 12.1872 14.0819 12.1872 13.8482 12.1718C13.4158 12.1449 12.9909 12.046 12.5911 11.8793C12.1636 11.6943 11.7819 11.4177 11.473 11.0691C11.1832 10.7204 10.9665 10.3169 10.8359 9.88277C10.6949 9.45939 10.635 9.01324 10.6593 8.56767C10.6751 8.35713 10.7172 8.14939 10.7847 7.94935C10.7105 7.86407 10.6372 7.77281 10.5655 7.68411C10.2504 7.27184 9.9575 6.8431 9.68794 6.39972C9.17049 5.53773 8.69684 4.65021 8.26879 3.74051C8.06865 3.31807 7.87449 2.8942 7.68629 2.46891C7.68629 2.49705 7.68629 2.5252 7.68629 2.55419C7.68228 2.7604 7.66232 2.96598 7.62659 3.1691C7.59504 3.33967 7.57116 3.51024 7.55069 3.68082C7.51272 4.02426 7.4999 4.37002 7.51231 4.71533C7.54537 5.41506 7.68633 6.10549 7.93021 6.76218C8.1971 7.43687 8.5469 8.07573 8.97155 8.66404C8.4057 8.17287 7.92124 7.59515 7.53619 6.95236C7.14329 6.28847 6.87399 5.55886 6.74133 4.79891C6.67663 4.41515 6.63958 4.02724 6.63046 3.63817C6.63046 3.44458 6.63046 3.24927 6.63899 3.05567C6.64968 2.89523 6.64968 2.73425 6.63899 2.57381C6.62447 2.29483 6.55154 2.022 6.42492 1.77298C6.37239 1.68121 6.31005 1.59542 6.239 1.51712C6.19696 1.52037 6.15511 1.52578 6.11363 1.53333C5.96191 1.56246 5.81716 1.62036 5.6872 1.7039C5.55245 1.78065 5.45266 1.89153 5.29403 2.0621C5.00972 2.36455 4.77486 2.70993 4.59811 3.08552C4.49576 3.26377 4.45312 3.46334 4.37978 3.65182C4.34737 3.85224 4.27487 4.04328 4.27232 4.24881C4.18703 5.05988 4.36869 5.91956 4.72006 6.7383C5.43049 8.38431 6.66542 9.86913 7.99758 11.2175L8.50929 11.7352L7.99758 12.2827C7.84993 12.4481 7.71399 12.6237 7.59077 12.8081C7.45975 13.0081 7.34071 13.2157 7.23428 13.4298C6.80687 14.2917 6.60917 15.2494 6.66031 16.2101C6.68737 16.694 6.76687 17.1736 6.8974 17.6403L6.99122 18.0139L6.76521 18.3158C6.46514 18.7274 6.20794 19.1687 5.99764 19.6326C5.78577 20.0963 5.62782 20.5828 5.52687 21.0825C5.43586 21.5591 5.42318 22.0473 5.48934 22.528C5.54648 23.0014 5.73922 23.4346 5.9567 23.8534L6.1051 24.1391L6.03943 24.4265C5.98062 24.7038 5.95202 24.9866 5.95415 25.27C5.95568 25.5529 5.99264 25.8346 6.06416 26.1083C6.13277 26.3635 6.24689 26.6042 6.40104 26.8188C6.53665 27.0362 6.74218 27.1915 6.94687 27.3484ZM23.6628 13.8426C24.1952 13.8424 24.7157 14.0001 25.1584 14.2958C25.6012 14.5914 25.9463 15.0117 26.1501 15.5036C26.354 15.9954 26.4074 16.5366 26.3037 17.0588C26.1999 17.5809 25.9436 18.0606 25.5672 18.4371C25.1908 18.8137 24.7112 19.0701 24.1891 19.174C23.6669 19.2779 23.1257 19.2247 22.6338 19.021C22.142 18.8173 21.7215 18.4723 21.4257 18.0296C21.1299 17.587 20.9721 17.0666 20.9721 16.5342C20.9721 16.1804 21.0418 15.8301 21.1773 15.5034C21.3127 15.1766 21.5113 14.8797 21.7616 14.6297C22.0119 14.3797 22.309 14.1815 22.636 14.0465C22.963 13.9114 23.3133 13.8421 23.6671 13.8426H23.6628ZM17.9581 19.0271C18.9738 19.0271 24.4551 20.1904 25.986 25.7194C26.4124 27.2605 26.2256 28.7897 25.4589 30.0374C24.3016 31.9137 22.0611 34.1499 17.9538 34.1499C13.8465 34.1499 11.6094 31.9137 10.4487 30.0374C9.68112 28.7931 9.49434 27.2597 9.92077 25.7194C11.4636 20.1904 16.9466 19.0271 17.9623 19.0271H17.9581ZM12.2533 13.8426C12.7857 13.8426 13.3061 14.0004 13.7487 14.2962C14.1913 14.592 14.5363 15.0123 14.7401 15.5042C14.9438 15.996 14.9971 16.5372 14.8932 17.0593C14.7894 17.5814 14.533 18.061 14.1566 18.4374C13.7802 18.8139 13.3006 19.0702 12.7784 19.1741C12.2563 19.2779 11.7151 19.2246 11.2233 19.0209C10.7315 18.8172 10.3111 18.4722 10.0153 18.0296C9.71958 17.5869 9.56172 17.0665 9.56172 16.5342C9.56172 16.1804 9.63148 15.83 9.76701 15.5032C9.90254 15.1763 10.1012 14.8794 10.3516 14.6294C10.602 14.3794 10.8992 14.1812 11.2262 14.0462C11.5533 13.9112 11.9038 13.842 12.2576 13.8426H12.2533Z" fill="white"/>
<path d="M21.3267 41.6926L21.302 41.6073H21.3063C21.2481 41.3503 21.1546 41.1025 21.0282 40.8713C20.7724 40.5003 19.2372 40.2265 17.9631 40.2035C16.6838 40.2274 15.1538 40.5011 14.8928 40.8713C14.7669 41.1026 14.6736 41.3503 14.6156 41.6073L14.5909 41.6926C14.4625 42.1962 14.4402 42.721 14.5252 43.2337L14.5764 43.2456L14.5525 43.3624C14.5932 43.5292 14.6533 43.6907 14.7316 43.8434C15.193 44.7261 16.2778 45.173 17.9554 45.173C19.633 45.173 20.717 44.7261 21.1783 43.8434C21.257 43.6908 21.3171 43.5293 21.3574 43.3624L21.3344 43.2456L21.3856 43.2337C21.4729 42.7214 21.4528 42.1966 21.3267 41.6926Z" fill="#EF5685"/>
<path d="M28.4727 39.5161C28.4594 39.252 28.4208 38.9899 28.3575 38.7332C28.323 38.6002 28.2803 38.4694 28.2296 38.3417C27.1593 39.3779 24.9529 41.2977 22.4404 42.2751C22.4578 42.5022 22.4578 42.7303 22.4404 42.9574C25.4374 42.0465 27.7964 40.1097 28.4727 39.5161Z" fill="#EF5685"/>
<path d="M13.1281 17.7376C13.3962 17.7376 13.6582 17.6581 13.881 17.5092C14.1039 17.3603 14.2776 17.1486 14.3802 16.901C14.4827 16.6534 14.5096 16.3809 14.4573 16.118C14.405 15.8551 14.2759 15.6136 14.0864 15.4241C13.8969 15.2346 13.6554 15.1055 13.3925 15.0532C13.1296 15.0009 12.8572 15.0278 12.6095 15.1303C12.3619 15.2329 12.1502 15.4066 12.0013 15.6295C11.8524 15.8523 11.7729 16.1143 11.7729 16.3824C11.7728 16.5604 11.8078 16.7367 11.8759 16.9011C11.9439 17.0656 12.0438 17.215 12.1696 17.3409C12.2955 17.4668 12.4449 17.5666 12.6094 17.6346C12.7739 17.7027 12.9501 17.7377 13.1281 17.7376Z" fill="white"/>
<path d="M10.7256 17.932C10.8268 17.932 10.9257 17.902 11.0099 17.8458C11.094 17.7895 11.1596 17.7096 11.1983 17.6161C11.2371 17.5226 11.2472 17.4197 11.2275 17.3205C11.2077 17.2212 11.159 17.13 11.0874 17.0585C11.0159 16.9869 10.9247 16.9381 10.8254 16.9184C10.7262 16.8987 10.6233 16.9088 10.5298 16.9475C10.4363 16.9863 10.3563 17.0518 10.3001 17.136C10.2439 17.2201 10.2139 17.3191 10.2139 17.4203C10.2139 17.556 10.2678 17.6862 10.3637 17.7821C10.4597 17.8781 10.5899 17.932 10.7256 17.932Z" fill="white"/>
<path d="M27.408 94.8587C26.5373 94.4646 25.4252 94.5286 24.3761 94.758C25.229 94.3145 26.2268 93.9512 27.3023 94.0757L28.0306 89.1181C27.0218 89.3362 25.9925 89.446 24.9604 89.4456C24.0679 89.4528 23.1777 89.3573 22.3071 89.1607C22.4777 90.9202 22.6483 92.6788 22.7881 94.4399L22.9246 96.0441L22.9928 96.8466L23.0099 97.0445C23.0167 97.0854 23.0184 97.1298 23.0269 97.1682C23.0421 97.2493 23.0653 97.3287 23.096 97.4053C23.2188 97.7181 23.4552 97.973 23.7578 98.1191C23.989 98.2504 24.5817 98.305 25.0704 98.369C26.0639 98.4845 27.0688 98.4592 28.0554 98.2939C28.1773 98.2743 28.2959 98.2453 28.4161 98.2223C28.4849 98.2059 28.5516 98.1816 28.6148 98.1498C28.74 98.0884 28.8464 97.9944 28.9227 97.8777C29.0024 97.7626 29.0524 97.6296 29.0685 97.4905C29.0754 97.4199 29.0754 97.3488 29.0685 97.2782L29.0523 97.1656L29.0037 96.995C28.7658 96.0842 28.2771 95.2535 27.408 94.8587Z" fill="#EFD9AB"/>
<path d="M33.3683 57.1275L33.1713 56.771L33.3615 56.4094C33.996 55.2154 33.115 53.1029 32.7218 52.3908L32.5845 52.1417L32.6459 51.8628C33.3461 48.7133 30.8746 45.7163 29.4648 44.3074C29.4597 44.5215 29.446 44.7338 29.423 44.9471C29.375 45.3945 29.2758 45.8349 29.1271 46.2596C28.9821 46.6723 28.7837 47.0643 28.5369 47.4254C28.6642 47.0235 28.7385 46.6066 28.7578 46.1854C28.7762 45.7769 28.7476 45.3677 28.6725 44.9658C28.5987 44.571 28.4903 44.1834 28.3484 43.8076C28.2159 43.4482 28.0485 43.1025 27.8486 42.7757L27.7224 42.4618L27.8691 42.1301C27.9544 41.9459 28.0397 41.7642 28.119 41.5791C28.1795 41.3898 28.2674 41.2056 28.3083 41.0137C28.3151 40.9915 28.3177 40.9676 28.3237 40.9446C27.0896 41.9066 24.8645 43.3906 22.1831 44.0797C22.1507 44.1573 22.1175 44.2349 22.0782 44.3108C21.8732 44.6969 21.5855 45.0329 21.2356 45.295C21.4915 47.0545 22.7392 55.6845 22.7707 58.4443V58.5023L22.7579 58.5586C22.717 58.7445 21.7064 63.1325 18.1653 64.6522L17.9675 64.7375L17.7696 64.6522C14.2277 63.1325 13.2171 58.7445 13.1761 58.5586L13.1633 58.5023V58.4443C13.1923 55.6845 14.4384 47.0536 14.6985 45.295C14.3483 45.0327 14.0603 44.6963 13.855 44.31C13.8158 44.2341 13.7834 44.1573 13.751 44.0797C11.0687 43.3906 8.84363 41.9066 7.6104 40.9446C7.61723 40.9676 7.61893 40.9915 7.62575 41.0137C7.66669 41.2056 7.75454 41.3898 7.81509 41.5791C7.89185 41.7642 7.98566 41.9459 8.06498 42.1301L8.21166 42.4618L8.08544 42.7757C7.88289 43.1022 7.71292 43.4479 7.57799 43.8076C7.43612 44.1834 7.32767 44.571 7.25391 44.9658C7.17882 45.3677 7.15021 45.7769 7.16862 46.1854C7.1879 46.6066 7.26216 47.0235 7.38951 47.4254C7.14305 47.0641 6.94466 46.6722 6.79934 46.2596C6.65105 45.8348 6.55176 45.3944 6.5034 44.9471C6.48037 44.7355 6.46757 44.5206 6.4616 44.3083C5.05184 45.7172 2.58112 48.7133 3.28131 51.8628L3.34357 52.1417L3.20455 52.3925C2.81224 53.1029 1.93124 55.212 2.56577 56.4094L2.75681 56.7719L2.55724 57.1292C2.53677 57.1667 0.434485 61.0609 2.27409 65.0608L2.38496 65.3013L2.321 65.5571C2.30394 65.6228 0.717633 72.2205 4.47019 78.1009L4.71496 78.4847L4.48981 78.8795C4.45143 78.9503 3.47406 80.8411 5.34266 83.9276L5.56099 84.2892L5.36825 84.6636C5.36825 84.6636 5.07913 85.2691 5.3094 85.9019C5.49447 86.4137 5.97463 86.8401 6.73623 87.1812C9.55065 88.4341 14.359 87.9966 15.0089 86.7633L15.0797 86.6303L15.1957 86.5339C15.327 86.4205 16.5108 85.3058 15.4311 83.1472L15.1701 82.6253L15.611 82.2423C15.611 82.2423 17.0796 80.7174 17.1973 74.9317C16.9764 74.9206 16.7556 74.907 16.5338 74.8865C16.0521 74.8406 15.5737 74.7657 15.101 74.6622C14.6161 74.5585 14.141 74.4132 13.681 74.2281C13.4433 74.1305 13.2115 74.0191 12.9868 73.8946C12.8717 73.8315 12.7574 73.7607 12.6457 73.6857C12.5388 73.6132 12.436 73.5349 12.3378 73.4511C11.8293 73.2441 11.3404 72.9921 10.8768 72.6981C10.333 72.3525 9.8258 71.9524 9.36302 71.5041C10.4959 71.9453 11.707 72.1503 12.922 72.1062L13.3254 72.3117C13.3254 72.3117 13.4277 72.391 13.4883 72.432C13.5642 72.4806 13.6409 72.53 13.7254 72.5753C13.897 72.6704 14.0738 72.7558 14.255 72.8311C14.6357 72.9839 15.0289 73.1034 15.4302 73.1884C15.8424 73.2785 16.2596 73.3437 16.6797 73.3838C17.1061 73.423 17.5325 73.4392 17.9649 73.4435C18.3913 73.4435 18.8246 73.423 19.2493 73.3838C19.6693 73.3437 20.0865 73.2785 20.4987 73.1884C20.9004 73.1035 21.2939 72.984 21.6748 72.8311C21.8559 72.7562 22.0324 72.6707 22.2036 72.5753C22.2889 72.53 22.3656 72.4806 22.4415 72.432C22.5021 72.391 22.6036 72.3117 22.6036 72.3117L23.0078 72.1062C24.2228 72.1501 25.4339 71.9452 26.5668 71.5041C26.104 71.9524 25.5968 72.3525 25.053 72.6981C24.5893 72.9919 24.1004 73.244 23.592 73.4511C23.4935 73.535 23.3905 73.6133 23.2833 73.6857C23.169 73.7607 23.0547 73.8315 22.9422 73.8946C22.7171 74.019 22.485 74.1303 22.2471 74.2281C21.7874 74.4132 21.3126 74.5584 20.8279 74.6622C20.355 74.7657 19.8762 74.8406 19.3943 74.8865C19.1734 74.907 18.9525 74.9206 18.7316 74.9308C18.8493 80.7174 20.3188 82.2415 20.3341 82.2568L20.7264 82.6415L20.497 83.1472C19.3789 85.3834 20.7188 86.5228 20.7324 86.5339L20.8493 86.6303L20.92 86.7633C21.5725 87.9966 26.3826 88.4341 29.1927 87.1812C29.9603 86.8401 30.4439 86.4026 30.6247 85.8857C30.8447 85.2597 30.5641 84.6687 30.5607 84.6627L30.3671 84.2883L30.5854 83.9267C32.454 80.8445 31.4767 78.9495 31.4383 78.8702L31.2293 78.4813L31.4622 78.1C35.2147 72.2153 33.6284 65.6228 33.6114 65.5563L33.5474 65.3004L33.6583 65.059C35.4928 61.0609 33.3896 57.1667 33.3683 57.1275Z" fill="white"/>
<path d="M7.69802 38.3409C7.64671 38.4686 7.60397 38.5997 7.57009 38.7332C7.50651 38.9895 7.46767 39.2514 7.4541 39.5152C8.12871 40.1122 10.492 42.0465 13.4821 42.9599C13.4647 42.7328 13.4647 42.5047 13.4821 42.2776C10.9738 41.2977 8.77176 39.3779 7.69802 38.3409Z" fill="#EF5685"/>
<path d="M17.9623 46.1786C17.0472 46.1786 16.2745 46.0498 15.6323 45.8084C15.2963 48.1282 14.2072 55.8235 14.1646 58.3932C14.2831 58.8631 15.2417 62.3291 17.9623 63.6382C20.6914 62.3257 21.6424 58.8622 21.7601 58.394C21.7166 55.8244 20.6275 48.1282 20.2923 45.8084C19.6493 46.0489 18.8774 46.1786 17.9623 46.1786Z" fill="#EF5685"/>
<path d="M7.89379 89.1172L8.62212 94.0749C9.69842 93.9513 10.692 94.3146 11.5491 94.7572C10.5001 94.5278 9.38713 94.4638 8.51722 94.8579C7.64731 95.2519 7.15948 96.0834 6.91471 96.99L6.8661 97.1606L6.84904 97.2732C6.84264 97.3438 6.84264 97.4149 6.84904 97.4855C6.86511 97.6248 6.91552 97.7578 6.99573 97.8727C7.07195 97.9892 7.17796 98.0831 7.30276 98.1448C7.36598 98.1766 7.43266 98.2009 7.50147 98.2173C7.62172 98.2403 7.74113 98.2693 7.86223 98.2889C8.84875 98.4541 9.85364 98.4794 10.8472 98.364C11.335 98.3 11.9278 98.2454 12.1598 98.1141C12.4621 97.9679 12.6982 97.713 12.8207 97.4002C12.8514 97.3237 12.8746 97.2443 12.8898 97.1632C12.8983 97.1222 12.9 97.0779 12.9077 97.0395L12.9248 96.8416L12.993 96.0391L13.1286 94.4348C13.271 92.6737 13.4433 90.9142 13.6096 89.1556C12.7391 89.3521 11.8488 89.4477 10.9564 89.4405C9.92694 89.4417 8.90029 89.3333 7.89379 89.1172Z" fill="#EFD9AB"/>
<path d="M15.1815 6.85513H15.1738C15.19 6.86196 15.202 6.86878 15.1815 6.85513Z" fill="white"/>
<path d="M24.5382 17.7376C24.8063 17.7381 25.0686 17.659 25.2918 17.5104C25.515 17.3618 25.689 17.1503 25.792 16.9028C25.895 16.6552 25.9222 16.3826 25.8702 16.1196C25.8182 15.8565 25.6893 15.6148 25.4999 15.425C25.3105 15.2352 25.069 15.1059 24.806 15.0534C24.5431 15.0009 24.2705 15.0276 24.0227 15.1301C23.7749 15.2326 23.5631 15.4063 23.4141 15.6292C23.2651 15.8521 23.1855 16.1142 23.1855 16.3824C23.1853 16.7414 23.3277 17.0859 23.5813 17.34C23.835 17.5941 24.1791 17.7371 24.5382 17.7376Z" fill="white"/>
<path d="M22.1352 17.932C22.2365 17.932 22.3354 17.902 22.4195 17.8458C22.5037 17.7895 22.5693 17.7096 22.608 17.6161C22.6467 17.5226 22.6569 17.4197 22.6371 17.3205C22.6174 17.2212 22.5686 17.13 22.4971 17.0585C22.4255 16.9869 22.3343 16.9381 22.2351 16.9184C22.1358 16.8987 22.0329 16.9088 21.9394 16.9475C21.8459 16.9863 21.766 17.0518 21.7098 17.136C21.6535 17.2201 21.6235 17.3191 21.6235 17.4203C21.6235 17.556 21.6774 17.6862 21.7734 17.7821C21.8694 17.8781 21.9995 17.932 22.1352 17.932Z" fill="white"/>
<path d="M17.9625 29.9888C18.7889 29.9888 19.397 29.7876 19.7689 29.3918C19.9869 29.15 20.1318 28.8513 20.1868 28.5305C20.0144 28.5166 19.8434 28.4898 19.675 28.4503C18.9314 28.2652 18.342 27.7023 17.9642 27.0959C17.5856 27.7023 16.9962 28.2652 16.2534 28.4503C16.0851 28.4898 15.914 28.5166 15.7417 28.5305C15.7972 28.8512 15.9421 29.1497 16.1596 29.3918C16.5272 29.7876 17.1353 29.9888 17.9625 29.9888Z" fill="#EFD9AB"/>
<path d="M22.0422 30.8698C21.7199 30.4434 22.4687 29.3629 22.4687 29.3629C23.9757 27.8559 23.1245 26.0862 23.1245 26.0862C23.1902 26.8538 22.7646 27.6085 22.0806 28.0674C21.9675 28.1422 21.8489 28.2083 21.7258 28.2652C21.7122 28.7207 21.5877 29.6392 20.8815 30.4042C20.2129 31.1283 19.2295 31.4958 17.9579 31.4958C16.6863 31.4958 15.703 31.1283 15.0344 30.4042C14.3273 29.6366 14.2037 28.7207 14.1892 28.2652C14.0661 28.2083 13.9475 28.1422 13.8344 28.0674C13.1521 27.6085 12.7257 26.852 12.7913 26.0862C12.7913 26.0862 11.9385 27.8559 13.4472 29.3629C13.4472 29.3629 14.2003 30.4392 13.8736 30.8698C13.547 31.3005 11.1957 29.4805 10.7181 27.1352C10.6728 27.9683 10.8787 28.7957 11.3091 29.5104C12.3325 31.1683 14.3145 33.1461 17.9554 33.1461C21.5962 33.1461 23.5791 31.1683 24.6008 29.5104C25.0315 28.7958 25.2377 27.9683 25.1927 27.1352C24.7202 29.4805 22.3638 31.298 22.0422 30.8698Z" fill="#D1B990"/>
<path d="M10.9039 26.4955C12.248 21.6343 17.123 20.5401 17.9639 20.5401C18.8048 20.5401 23.678 21.6385 25.0238 26.4955C25.1203 26.8462 25.1789 27.2061 25.1986 27.5693C25.2263 27.0359 25.1672 26.5017 25.0238 25.9872C23.6797 21.126 18.8048 20.0318 17.9639 20.0318C17.123 20.0318 12.2497 21.1302 10.9039 25.9872C10.7597 26.5015 10.7007 27.0359 10.7291 27.5693C10.7484 27.2061 10.807 26.8461 10.9039 26.4955Z" fill="white"/>
<path d="M19.6731 28.4512C18.9294 28.2661 18.3401 27.7032 17.9623 27.0969C17.5836 27.7032 16.9943 28.2661 16.2515 28.4512C16.0831 28.4907 15.9121 28.5175 15.7397 28.5313C15.7953 28.8521 15.9401 29.1506 16.1576 29.3927C16.5295 29.7876 17.1376 29.9897 17.9648 29.9897C18.7921 29.9897 19.3993 29.7884 19.7712 29.3927C19.9892 29.1509 20.1341 28.8522 20.1891 28.5313C20.0153 28.5178 19.8428 28.491 19.6731 28.4512ZM17.9623 29.4746C16.9474 29.4746 16.7879 28.829 16.7879 28.829C17.3261 28.9723 17.9623 28.5467 17.9623 28.5467C17.9623 28.5467 18.5977 28.9731 19.1358 28.829C19.1358 28.8247 18.9763 29.4703 17.9623 29.4703V29.4746Z" fill="#D1B990"/>
<path d="M8.51591 11.7471C8.51591 11.7471 2.34209 4.74092 6.75476 1.96915C6.75476 1.96915 5.86524 6.20101 8.97816 8.66832C8.97389 8.66832 9.36109 10.3911 8.51591 11.7471Z" fill="#D2C8DB"/>
<path d="M27.412 11.7471C27.412 11.7471 33.034 4.74092 28.6205 1.96915C28.6205 1.96915 29.5109 6.20101 26.3971 8.66832C26.3971 8.66832 26.1796 10.0951 27.412 11.7471Z" fill="#D2C8DB"/>
<path d="M13.1013 91.8343C14.1844 91.1896 14.6774 89.7074 14.1947 88.5424C11.8152 88.9313 9.68734 88.5645 7.34285 88.2985C7.12963 89.5385 7.40084 90.6122 8.51467 91.2578C9.85109 92.0331 11.6506 92.6974 13.1013 91.8343Z" fill="#D1B990"/>
<path d="M24.6264 91.7295C25.6319 91.999 26.7586 91.9769 27.6515 91.4353C28.5445 90.8937 29.1014 89.7552 28.7705 88.7676C26.4558 88.9151 24.1778 88.5774 21.8862 88.62C21.7216 89.3245 21.586 90.1424 22.2051 90.6345C22.7331 91.0541 23.9527 91.7295 24.6264 91.7295Z" fill="#D1B990"/>
<path d="M28.3067 40.3391C27.0258 41.7877 25.3946 42.8833 23.5691 43.5211C22.8971 43.7565 22.1721 43.9833 21.6417 44.4831C21.4191 44.6929 21.1982 44.9778 21.118 45.2771C20.9995 45.7197 21.1982 46.2519 21.2741 46.698C21.651 48.9316 21.9965 51.1712 22.2549 53.4219C22.3794 54.5096 22.4826 55.5986 22.5645 56.6892C22.6037 57.2358 22.6949 57.8243 22.5892 58.3667C22.4834 58.9091 22.1798 59.3833 21.9308 59.8584C21.0336 61.5641 20.011 64.4928 17.7748 64.7196C17.7053 64.653 17.6309 64.5918 17.5522 64.5363C16.9348 63.8645 16.3868 63.1322 15.9164 62.3504C15.8896 62.2976 15.8525 62.2506 15.8073 62.2121C15.7622 62.1737 15.7099 62.1445 15.6535 62.1264C15.597 62.1082 15.5376 62.1014 15.4785 62.1063C15.4194 62.1113 15.3619 62.1278 15.3092 62.1551C14.7291 61.171 14.3431 60.0847 14.1724 58.9552C14.0751 58.3181 13.1071 58.5885 13.2035 59.2221C13.5847 61.7201 14.957 63.929 16.9561 65.448L16.9782 65.4701C17.0132 65.4957 17.0439 65.5256 17.078 65.5512C17.078 65.5512 17.0849 65.5512 17.0883 65.5554C17.1224 65.5802 17.1573 65.6015 17.1923 65.622C17.2409 65.6706 17.2861 65.7226 17.3356 65.7712C17.571 66.0032 17.9079 65.917 18.0836 65.709C18.4341 65.6483 18.7738 65.5362 19.0916 65.3763C19.9871 64.938 20.6592 64.1704 21.1871 63.3414C21.7909 62.3931 22.2736 61.3602 22.7956 60.365C23.3175 59.3697 23.6757 58.5526 23.6152 57.4166C23.4881 55.0287 23.1887 52.6407 22.8476 50.2748C22.677 49.1116 22.4954 47.95 22.3018 46.7909C22.2216 46.3142 21.9231 45.6353 22.2958 45.249C22.596 44.9377 23.0403 44.7722 23.4378 44.6281C25.5912 43.8486 27.4752 42.7791 29.0155 41.0461C29.4453 40.5677 28.7374 39.8547 28.3067 40.3391Z" fill="#D2C8DB"/>
<path d="M36.5208 43.6661C35.8744 43.6661 35.8735 44.6707 36.5208 44.6707C37.1681 44.6707 37.1724 43.6661 36.5208 43.6661Z" fill="#D2C8DB"/>
<path d="M9.36101 71.5085C9.36101 71.5085 9.43265 73.5553 12.0697 74.3612C12.0697 74.3612 14.3297 80.0122 12.0697 81.7341C12.0697 81.7341 12.5882 85.9855 10.2301 85.9855C7.87193 85.9855 6.07411 86.0836 5.1735 83.6419L4.74707 85.9864L7.81735 88.2985L13.6739 88.6157L16.977 86.6039L16.16 83.2923L16.5864 81.7853L17.5015 78.2332L18.6315 81.5166L19.655 83.2923L19.2285 86.0904C19.2285 86.0904 20.7833 89.4165 23.8032 88.6132C26.8232 87.8098 22.5419 87.5437 22.3116 82.8616C22.3116 82.8616 19.3965 79.0408 20.5743 75.9194C20.5743 75.9194 25.3461 74.4696 26.5665 71.5059L23.857 73.0129L21.1756 73.8205L19.6592 74.0355L17.1305 74.1992L15.1937 73.8768L13.1997 72.6385L9.36101 71.5085Z" fill="#D2C8DB"/>
<path d="M13.8389 28.0674C13.952 28.1422 14.0706 28.2083 14.1937 28.2652C14.2082 28.7215 14.3319 29.6392 15.0389 30.4042C15.7075 31.1282 16.6908 31.495 17.9625 31.495C19.2341 31.495 20.2174 31.1283 20.8826 30.4008C21.5896 29.6332 21.7133 28.7172 21.7269 28.2618C21.8499 28.2046 21.9684 28.1385 22.0817 28.0639C22.764 27.6051 23.1904 26.8486 23.1256 26.0828C22.6267 26.6414 22.2114 27.1215 21.6758 27.3817C21.1402 27.6418 20.5108 27.5923 20.0238 27.3859C19.5368 27.1795 19.2179 26.7523 19.0166 26.2056C18.886 25.8413 18.7987 25.4628 18.7565 25.0781C18.9815 25.0148 19.197 24.9212 19.397 24.8001C19.8276 24.5272 20.2208 24.0717 20.2148 23.5268C19.721 23.6769 19.3535 23.6752 18.9987 23.6888H17.9625H16.9186C16.5646 23.6752 16.197 23.6786 15.7015 23.5293C15.6939 24.076 16.0879 24.5323 16.5194 24.8043C16.7194 24.9255 16.9349 25.019 17.1599 25.0824C17.1182 25.4666 17.0309 25.8445 16.8998 26.2081C16.6994 26.7548 16.3719 27.1829 15.8926 27.3885C15.4133 27.594 14.7591 27.6341 14.2406 27.3842C13.7221 27.1343 13.2922 26.6482 12.7959 26.0862C12.7293 26.852 13.1558 27.6085 13.8389 28.0674ZM16.2516 28.4511C16.9945 28.2661 17.5838 27.7032 17.9625 27.0968C18.3403 27.7032 18.9296 28.2661 19.6733 28.4511C19.8416 28.4907 20.0126 28.5175 20.185 28.5313C20.13 28.8522 19.9851 29.1509 19.7671 29.3927C19.3952 29.7876 18.7872 29.9897 17.9607 29.9897C17.1343 29.9897 16.5254 29.7884 16.1536 29.3927C15.936 29.1506 15.7912 28.852 15.7357 28.5313C15.9094 28.5177 16.0819 28.4909 16.2516 28.4511Z" fill="#3A2033"/>
<path d="M12.258 19.2284C12.7904 19.2284 13.3108 19.0705 13.7535 18.7747C14.1961 18.4789 14.5411 18.0585 14.7448 17.5666C14.9485 17.0747 15.0018 16.5335 14.8978 16.0113C14.7939 15.4892 14.5375 15.0096 14.161 14.6332C13.7844 14.2568 13.3048 14.0005 12.7826 13.8968C12.2604 13.793 11.7192 13.8464 11.2274 14.0503C10.7356 14.2541 10.3153 14.5992 10.0196 15.042C9.72395 15.4847 9.56624 16.0052 9.56641 16.5376C9.56663 17.2513 9.85031 17.9357 10.3551 18.4403C10.8598 18.9449 11.5443 19.2284 12.258 19.2284ZM13.1288 15.0306C13.3968 15.0306 13.6588 15.1101 13.8817 15.259C14.1045 15.4079 14.2782 15.6196 14.3808 15.8672C14.4834 16.1148 14.5102 16.3873 14.4579 16.6502C14.4056 16.9131 14.2766 17.1545 14.087 17.3441C13.8975 17.5336 13.656 17.6627 13.3932 17.7149C13.1303 17.7672 12.8578 17.7404 12.6102 17.6378C12.3625 17.5353 12.1509 17.3616 12.002 17.1387C11.8531 16.9158 11.7736 16.6538 11.7736 16.3858C11.773 16.2075 11.8077 16.0309 11.8755 15.866C11.9434 15.7011 12.0431 15.5513 12.1691 15.4251C12.295 15.2989 12.4446 15.1987 12.6092 15.1305C12.7739 15.0622 12.9505 15.0271 13.1288 15.0272V15.0306ZM10.7263 16.9137C10.8275 16.9137 10.9264 16.9437 11.0106 16.9999C11.0947 17.0562 11.1603 17.1361 11.199 17.2296C11.2378 17.3231 11.2479 17.426 11.2282 17.5253C11.2084 17.6245 11.1597 17.7157 11.0881 17.7873C11.0166 17.8588 10.9254 17.9076 10.8261 17.9273C10.7269 17.947 10.624 17.9369 10.5305 17.8982C10.437 17.8595 10.357 17.7939 10.3008 17.7097C10.2446 17.6256 10.2146 17.5266 10.2146 17.4254C10.2141 17.3579 10.227 17.291 10.2525 17.2286C10.2781 17.1661 10.3157 17.1093 10.3632 17.0614C10.4108 17.0135 10.4674 16.9755 10.5297 16.9496C10.592 16.9236 10.6588 16.9103 10.7263 16.9103V16.9137Z" fill="#3A2033"/>
<path d="M9.93354 25.7194C9.50712 27.2597 9.69475 28.7897 10.4615 30.0374C11.6179 31.9137 13.8575 34.1499 17.9666 34.1499C22.0756 34.1499 24.3101 31.9137 25.4717 30.0374C26.2393 28.794 26.4252 27.2605 25.9988 25.7194C24.4636 20.1904 18.9866 19.0271 17.9709 19.0271C16.9551 19.0271 11.4636 20.1904 9.93354 25.7194ZM17.9623 20.0317C18.8032 20.0317 23.6765 21.1302 25.0223 25.9872C25.3728 27.2563 25.2261 28.5074 24.6078 29.5104C23.5843 31.1683 21.6023 33.1452 17.9623 33.1452C14.3223 33.1452 12.3386 31.1683 11.316 29.5104C10.6977 28.5074 10.5485 27.2563 10.9024 25.9872C12.2465 21.1302 17.1214 20.0317 17.9623 20.0317Z" fill="#3A2033"/>
<path d="M23.6673 19.2283C24.1997 19.2285 24.7202 19.0708 25.163 18.7751C25.6058 18.4794 25.9509 18.059 26.1547 17.5672C26.3585 17.0753 26.4119 16.534 26.3081 16.0118C26.2043 15.4896 25.9479 15.01 25.5714 14.6335C25.1949 14.257 24.7153 14.0006 24.1931 13.8968C23.6709 13.793 23.1296 13.8464 22.6377 14.0502C22.1459 14.254 21.7255 14.5991 21.4298 15.0419C21.1341 15.4847 20.9764 16.0052 20.9766 16.5376C20.9768 17.2512 21.2604 17.9354 21.7649 18.44C22.2695 18.9446 22.9538 19.2281 23.6673 19.2283ZM24.5381 15.0306C24.8064 15.0301 25.0688 15.1092 25.292 15.258C25.5153 15.4067 25.6894 15.6184 25.7922 15.8662C25.8951 16.114 25.9221 16.3867 25.8698 16.6499C25.8176 16.913 25.6883 17.1547 25.4986 17.3443C25.3088 17.534 25.067 17.663 24.8039 17.7152C24.5407 17.7673 24.268 17.7401 24.0202 17.6371C23.7725 17.5341 23.561 17.3598 23.4124 17.1365C23.2637 16.9131 23.1848 16.6507 23.1854 16.3824C23.1852 16.0233 23.3276 15.6789 23.5812 15.4248C23.8349 15.1706 24.179 15.0276 24.5381 15.0272V15.0306ZM22.1356 16.9137C22.2368 16.9137 22.3357 16.9437 22.4199 16.9999C22.504 17.0562 22.5696 17.1361 22.6083 17.2296C22.6471 17.3231 22.6572 17.426 22.6375 17.5252C22.6177 17.6245 22.569 17.7157 22.4974 17.7872C22.4259 17.8588 22.3347 17.9075 22.2354 17.9273C22.1362 17.947 22.0333 17.9369 21.9398 17.8982C21.8463 17.8594 21.7663 17.7939 21.7101 17.7097C21.6539 17.6256 21.6239 17.5266 21.6239 17.4254C21.6234 17.3579 21.6363 17.291 21.6618 17.2285C21.6874 17.1661 21.725 17.1093 21.7725 17.0614C21.8201 17.0135 21.8767 16.9755 21.939 16.9496C22.0013 16.9236 22.0681 16.9103 22.1356 16.9103V16.9137Z" fill="#3A2033"/>
<path d="M34.8607 56.743C35.537 54.9375 34.5639 52.6936 34.1733 51.9132C35.0893 46.7884 29.7188 42.4713 29.4826 42.2871L29.3973 42.3945C29.4357 42.3092 29.4775 42.224 29.5133 42.1387C29.5935 41.899 29.6975 41.6696 29.7547 41.4206C29.8949 40.9254 29.9742 40.4151 29.9909 39.9008C30.0018 39.3777 29.9403 38.8557 29.8084 38.3494C29.7419 38.0938 29.6564 37.8435 29.5525 37.6006C29.5022 37.4915 29.4545 37.3908 29.4016 37.2893C29.6429 36.842 29.8337 36.3691 29.9704 35.8796C30.1601 35.238 30.2524 34.5716 30.2442 33.9026C30.2421 33.2391 30.1485 32.579 29.9662 31.9411C29.8764 31.6218 29.7668 31.3085 29.6378 31.0029C29.5798 30.8699 29.5227 30.7471 29.4604 30.6174C29.5828 30.4592 29.6934 30.2921 29.7913 30.1177C29.9801 29.7704 30.1046 29.3919 30.1589 29.0004C30.1859 28.8078 30.1976 28.6133 30.1939 28.4188C30.1939 28.3804 30.1939 28.3446 30.1888 28.3079C30.4036 28.1315 30.5927 27.9259 30.7508 27.6973C31.0029 27.3405 31.19 26.9421 31.3034 26.5203C31.4105 26.1202 31.4658 25.7081 31.468 25.2939C31.4705 24.9798 31.4466 24.6659 31.3964 24.3558C31.6584 23.857 31.8351 23.318 31.9192 22.7609C32.0101 22.1131 31.9943 21.4548 31.8723 20.8122C31.7485 20.1949 31.5539 19.5939 31.2924 19.0212C31.0841 18.5647 30.8387 18.126 30.5589 17.7095C30.674 17.2466 30.7432 16.7736 30.7653 16.2972C30.8289 15.0797 30.5781 13.8664 30.0369 12.774C29.902 12.502 29.7505 12.2385 29.5832 11.9851C29.5397 11.922 29.4979 11.8606 29.4545 11.8009C29.6463 11.5996 29.8391 11.4001 30.0259 11.1937C30.3474 10.7979 30.6979 10.4338 30.9939 10.0116C31.6371 9.19005 32.1736 8.29021 32.5904 7.33365C33.0066 6.35798 33.2659 5.24415 33.1465 4.10047C33.0484 2.95594 32.4881 1.86599 31.7418 1.05663C31.5401 0.818605 31.3048 0.611181 31.0433 0.440869C30.7611 0.25898 30.4477 0.130885 30.1188 0.0630544C29.461 -0.0771656 28.7747 0.0213961 28.1828 0.341086C27.886 0.498319 27.6211 0.709445 27.4016 0.963669C27.2915 1.08946 27.192 1.2241 27.104 1.36622C27.0323 1.50012 26.9334 1.68774 26.8967 1.779C26.7031 2.22163 26.501 2.65915 26.2946 3.09325C25.8801 3.9606 25.4418 4.81261 24.9497 5.61685C24.71 6.01043 24.4501 6.39132 24.171 6.75797C24.0806 6.87396 23.9851 6.98483 23.8896 7.09058C23.7581 6.91866 23.6157 6.75542 23.4632 6.6019C23.155 6.27785 22.8038 5.99776 22.4193 5.76951C21.9953 5.5104 21.5184 5.35008 21.024 5.30044C20.4957 5.24933 19.9636 5.34712 19.488 5.58273C19.2783 5.68697 19.0821 5.81643 18.9038 5.96823C18.6367 5.5981 18.281 5.30088 17.8694 5.10376C17.4577 4.90664 17.0032 4.81592 16.5474 4.83989C16.0356 4.85525 15.3926 5.17081 15.0753 5.64841C14.8824 5.92717 14.7456 6.24091 14.6728 6.57204C14.406 6.45005 14.1253 6.36099 13.837 6.30681C13.3775 6.21579 12.903 6.2342 12.452 6.36054C12.1908 6.43509 11.943 6.55021 11.7176 6.70168C11.4567 6.36054 11.2102 5.9904 10.9748 5.60917C10.4861 4.81516 10.0443 3.96231 9.62559 3.0924C9.4192 2.65829 9.21708 2.22078 9.02348 1.77815C8.9868 1.68689 8.88873 1.49926 8.81709 1.36536C8.72879 1.22323 8.62895 1.08859 8.51859 0.962816C8.2994 0.708617 8.03476 0.497487 7.73822 0.340232C7.1461 0.0205538 6.45954 -0.078002 5.80139 0.0622007C5.47256 0.130032 5.15912 0.258128 4.8769 0.440018C4.61545 0.61033 4.38016 0.817754 4.17841 1.05578C3.43216 1.86514 2.87269 2.95509 2.77376 4.09962C2.65521 5.2433 2.91363 6.35713 3.32982 7.33279C3.74664 8.28936 4.2831 9.18919 4.92637 10.0108C5.22316 10.4372 5.57283 10.7971 5.89435 11.1928C6.08113 11.3992 6.27473 11.5988 6.46577 11.8C6.42312 11.8597 6.38048 11.9212 6.33699 11.9843C6.16998 12.2377 6.01874 12.5011 5.88412 12.7732C5.3422 13.8653 5.09105 15.0788 5.15493 16.2963C5.17748 16.7727 5.24661 17.2457 5.36132 17.7086C5.08174 18.1251 4.83672 18.5638 4.62872 19.0203C4.3664 19.5927 4.17177 20.1938 4.04878 20.8113C3.9265 21.4539 3.91037 22.1122 4.00102 22.7601C4.08543 23.3172 4.26242 23.8562 4.52467 24.3549C4.4738 24.665 4.44955 24.9789 4.45218 25.2931C4.45479 25.7072 4.51011 26.1193 4.61678 26.5195C4.73057 26.9413 4.91795 27.3397 5.17028 27.6964C5.32809 27.9253 5.51728 28.1308 5.73231 28.3071C5.73231 28.3437 5.73231 28.3796 5.72719 28.4179C5.72306 28.6124 5.73475 28.807 5.76216 28.9996C5.81653 29.3909 5.94074 29.7694 6.12889 30.1168C6.22681 30.2915 6.33771 30.4585 6.46065 30.6166C6.39839 30.7437 6.3404 30.8724 6.28326 31.0021C6.15603 31.3065 6.04752 31.6183 5.95832 31.936C5.77623 32.574 5.68296 33.234 5.68114 33.8975C5.67267 34.5664 5.76466 35.2328 5.95406 35.8744C6.09079 36.364 6.28158 36.8368 6.52291 37.2842C6.47003 37.3857 6.42227 37.4863 6.37195 37.5955C6.26767 37.8382 6.18214 38.0885 6.11609 38.3443C5.98373 38.8505 5.92231 39.3726 5.93359 39.8957C5.95001 40.4099 6.02906 40.9203 6.16897 41.4154C6.22696 41.6645 6.33016 41.8939 6.41033 42.1335C6.44615 42.2188 6.48794 42.3041 6.52717 42.3894L6.44189 42.2828C6.20906 42.467 0.838632 46.7842 1.75119 51.909C1.36058 52.6893 0.386619 54.9332 1.06293 56.7387C0.534163 57.8653 -0.88584 61.5266 0.796842 65.4464C0.5154 66.7853 -0.482436 72.8398 2.98612 78.5675C2.67739 79.4391 2.25949 81.538 3.86115 84.3806C3.65173 85.0317 3.65771 85.733 3.87821 86.3805C4.20229 87.3042 4.95621 88.0351 6.11866 88.5536C6.1758 88.5792 6.23976 88.6014 6.29861 88.6252L7.17534 94.5952C6.99251 94.7118 6.82117 94.8454 6.66363 94.9944C6.21918 95.4244 5.86361 95.9376 5.61718 96.5048L5.52763 96.7129C5.49778 96.7982 5.46452 96.8945 5.44234 96.9883C5.39472 97.1804 5.37547 97.3784 5.3852 97.576C5.39861 97.9755 5.52004 98.364 5.73658 98.7C5.95273 99.0368 6.25243 99.3118 6.60649 99.4983C6.78204 99.5899 6.96785 99.6603 7.15999 99.7081C7.30242 99.7388 7.44399 99.7746 7.58642 99.8002C8.71651 100.007 9.87012 100.054 11.0132 99.9384C11.2955 99.9119 11.5761 99.8787 11.8558 99.8369C12.196 99.7978 12.5282 99.7069 12.8409 99.5674C13.2647 99.3743 13.6357 99.0817 13.9222 98.7145C14.2088 98.3473 14.4025 97.9163 14.4869 97.4583C14.5048 97.367 14.5133 97.2749 14.5244 97.1828L14.5423 96.9807L14.608 96.1781L14.741 94.5731C14.9158 92.574 15.0497 90.5715 15.1981 88.5698C15.6578 88.314 16.028 87.989 16.2702 87.5993C17.0053 86.9093 17.923 85.2113 16.9891 82.9248C17.2646 82.5256 17.6382 81.8323 17.9674 80.7073C18.2966 81.8323 18.6701 82.5265 18.9456 82.9248C18.0074 85.213 18.9285 86.9093 19.6637 87.5993C19.9059 87.989 20.2769 88.3097 20.7357 88.5698C20.885 90.5715 21.0189 92.5782 21.1929 94.5731L21.3259 96.1781L21.3924 96.9807L21.4095 97.1828C21.4214 97.2749 21.4291 97.367 21.447 97.4583C21.4804 97.6411 21.5315 97.8202 21.5997 97.993C21.8722 98.6902 22.4044 99.2545 23.0845 99.5674C23.399 99.7064 23.7329 99.7965 24.0746 99.8343C24.3544 99.8761 24.6358 99.9094 24.9181 99.9358C26.0609 100.051 27.2142 100.005 28.344 99.7976C28.4873 99.7721 28.6297 99.7362 28.7705 99.7055C28.9623 99.6577 29.1478 99.5873 29.3231 99.4957C29.6775 99.3098 29.9774 99.0346 30.193 98.6975C30.41 98.3616 30.5314 97.973 30.5444 97.5734C30.5544 97.3758 30.5354 97.1779 30.4881 96.9858C30.4642 96.892 30.4301 96.7956 30.4028 96.7103L30.3175 96.5022C30.0692 95.9378 29.7125 95.4275 29.2677 95.0003C29.1098 94.8518 28.9385 94.7182 28.756 94.6012L29.6327 88.6312C29.6915 88.6073 29.7547 88.5843 29.8118 88.5596C30.9751 88.041 31.729 87.3101 32.0522 86.3865C32.2732 85.7391 32.2791 85.0376 32.0693 84.3866C33.671 81.544 33.2531 79.4451 32.9452 78.5735C36.4129 72.8457 35.4185 66.7913 35.1336 65.4523C36.8095 61.53 35.3895 57.8696 34.8607 56.743ZM15.1819 6.85519C15.2024 6.86884 15.1905 6.86201 15.1743 6.85519H15.1819ZM6.4018 26.8188C6.25101 26.6055 6.13953 26.3669 6.0726 26.1144C6.00108 25.8406 5.96412 25.559 5.96258 25.276C5.96046 24.9926 5.98905 24.7098 6.04787 24.4325L6.11354 24.1451L5.96514 23.8594C5.74766 23.4407 5.55492 23.0066 5.49778 22.5341C5.43162 22.0534 5.44429 21.5651 5.5353 21.0885C5.63625 20.5888 5.79421 20.1023 6.00608 19.6386C6.21638 19.1747 6.47358 18.7335 6.77365 18.3218L6.99966 18.0199L6.90584 17.6464C6.7753 17.1796 6.69581 16.7001 6.66875 16.2161C6.61761 15.2554 6.81531 14.2978 7.24272 13.4358C7.34915 13.2217 7.46818 13.0141 7.59921 12.8141C7.72238 12.6318 7.85803 12.4583 8.00517 12.2947L8.51688 11.7472L8.00517 11.2295C6.67301 9.88113 5.43808 8.3963 4.72765 6.75029C4.37627 5.93155 4.19547 5.07187 4.2799 4.26081C4.2799 4.05356 4.35495 3.86252 4.38736 3.66381C4.46071 3.47533 4.50335 3.27576 4.60569 3.09751C4.78245 2.72192 5.0173 2.37654 5.30162 2.07409C5.46025 1.90351 5.55747 1.79265 5.69478 1.71589C5.82475 1.63235 5.96949 1.57445 6.12121 1.54532C6.1627 1.53777 6.20454 1.53236 6.24658 1.52911C6.31764 1.60741 6.37998 1.6932 6.43251 1.78497C6.55913 2.03399 6.63205 2.30681 6.64657 2.5858C6.65727 2.74624 6.65727 2.90722 6.64657 3.06766C6.63634 3.26126 6.63548 3.45657 6.63804 3.65016C6.64716 4.03923 6.68422 4.42714 6.74892 4.8109C6.88157 5.57085 7.15088 6.30047 7.54378 6.96436C7.92883 7.60714 8.41328 8.18486 8.97913 8.67604C8.55448 8.08773 8.20468 7.44886 7.9378 6.77417C7.69392 6.11748 7.55296 5.42705 7.51989 4.72732C7.50748 4.38201 7.52031 4.03625 7.55827 3.69281C7.57874 3.52224 7.60262 3.35166 7.63418 3.18109C7.66991 2.97797 7.68986 2.77239 7.69387 2.56618C7.69387 2.53889 7.69387 2.51075 7.69387 2.4809C7.8815 2.90733 8.07567 3.3312 8.27638 3.75251C8.70442 4.6622 9.17808 5.54972 9.69553 6.41171C9.96234 6.85139 10.2521 7.2767 10.5637 7.68587C10.6354 7.77116 10.7087 7.86327 10.7829 7.95111C10.7154 8.15116 10.6733 8.35889 10.6575 8.56943C10.6329 9.01585 10.6928 9.4629 10.8341 9.88709C10.9647 10.3213 11.1814 10.7247 11.4712 11.0734C11.7801 11.422 12.1618 11.6986 12.5893 11.8836C12.9891 12.0504 13.414 12.1492 13.8464 12.1762C14.0801 12.1915 14.3146 12.1915 14.5483 12.1762C14.7354 12.4822 14.9694 12.757 15.2416 12.9906C15.4929 13.1949 15.7909 13.3338 16.109 13.3949C16.4099 13.447 16.7191 13.4236 17.0088 13.3267C17.5469 13.145 17.9469 12.8226 18.2983 12.484C18.6403 12.1455 18.9454 11.7716 19.2083 11.3685C18.8593 11.6795 18.4786 11.9528 18.0723 12.1838C17.6748 12.4047 17.2441 12.5736 16.8587 12.5881C16.6971 12.6025 16.5347 12.5725 16.3891 12.5012C16.2434 12.43 16.12 12.3202 16.0322 12.1838C15.8407 11.8592 15.7154 11.4997 15.6638 11.1263L15.4745 10.5088L14.7922 10.6308C14.5206 10.6737 14.2448 10.6832 13.9709 10.6589C13.7065 10.6408 13.4471 10.5785 13.2033 10.4747C12.9921 10.3773 12.8025 10.2387 12.6455 10.067C12.4921 9.87614 12.3787 9.65628 12.3121 9.42058C12.2321 9.18351 12.1965 8.9337 12.2072 8.68371C12.2159 8.49199 12.2842 8.30775 12.4025 8.15665C12.608 7.89141 13.0754 7.74131 13.5581 7.84451C13.8035 7.88837 14.0376 7.98118 14.2464 8.11742L14.3683 8.19077C14.5325 8.29171 14.7188 8.35107 14.9111 8.36371C15.1034 8.37634 15.2959 8.34186 15.4719 8.26326C15.7281 8.15037 15.9338 7.94733 16.0501 7.6927C16.1044 7.57261 16.1384 7.44437 16.1508 7.31317L16.1636 7.21339C16.1994 6.95242 16.2898 6.73153 16.3802 6.63345C16.4706 6.53537 16.5175 6.52428 16.6932 6.49188C17.0838 6.45776 17.546 6.55499 18.0194 6.89698C18.5038 7.22362 18.9874 7.70122 19.5238 8.24535C19.5488 7.97921 19.5399 7.71098 19.4974 7.44707L19.5588 7.49057C19.6168 7.45646 19.7532 7.34303 19.8573 7.27992C19.9649 7.20993 20.0791 7.15079 20.1984 7.10338C20.419 7.01054 20.6582 6.9708 20.8969 6.98738C21.3839 6.99762 21.9707 7.28418 22.5284 7.66967C23.0902 8.07267 23.5733 8.57537 23.9535 9.15278C24.3603 9.78455 24.6627 10.4777 24.849 11.2056C25.0392 10.4321 24.9795 9.59627 24.7535 8.79374C24.7211 8.68542 24.6759 8.57967 24.6358 8.47306C24.896 8.22967 25.1369 7.96648 25.3565 7.68587C25.6716 7.2736 25.9645 6.84486 26.2341 6.40147C26.7515 5.53949 27.2252 4.65197 27.6532 3.74227C27.6984 3.64761 27.7385 3.55208 27.7837 3.45827C27.7939 3.53247 27.8076 3.60667 27.817 3.68172C27.8541 4.02522 27.8669 4.37092 27.8554 4.71624C27.8219 5.41592 27.6809 6.10628 27.4375 6.76309C27.1699 7.43766 26.8199 8.07648 26.3953 8.66495C26.9616 8.17402 27.4464 7.59627 27.8315 6.95327C28.2241 6.28933 28.4931 5.55972 28.6255 4.79981C28.6909 4.41613 28.7282 4.02819 28.7372 3.63908C28.7372 3.44548 28.7372 3.25017 28.7278 3.05658C28.7171 2.89614 28.7171 2.73516 28.7278 2.57471C28.7425 2.29585 28.8151 2.02311 28.941 1.77388C28.9775 1.70858 29.0198 1.64665 29.0673 1.58881C29.303 1.50096 29.5588 1.48174 29.805 1.53338C29.9566 1.56277 30.1013 1.62065 30.2314 1.70395C30.3797 1.80294 30.5122 1.92369 30.6246 2.06215C30.9086 2.36481 31.1434 2.71015 31.3205 3.08557C31.4228 3.26382 31.4646 3.46339 31.5388 3.65187C31.5712 3.85229 31.6437 4.04333 31.6454 4.24887C31.7307 5.05993 31.5491 5.91961 31.1985 6.73835C30.4873 8.38436 29.2532 9.86918 27.9202 11.2175L27.4085 11.7352L27.9202 12.2828C28.0683 12.4478 28.2043 12.6234 28.327 12.8081C28.4583 13.0081 28.5776 13.2157 28.6843 13.4299C29.112 14.2917 29.3094 15.2495 29.2574 16.2102C29.2311 16.6941 29.1519 17.1737 29.0212 17.6404L28.9274 18.014L29.1525 18.3159C29.4529 18.7273 29.7101 19.1685 29.9201 19.6327C30.1327 20.0961 30.2907 20.5826 30.3909 21.0825C30.4817 21.5591 30.4947 22.0473 30.4293 22.5281C30.3721 23.0014 30.1785 23.4347 29.961 23.8534L29.8126 24.1392L29.8783 24.4266C29.9371 24.7038 29.9657 24.9866 29.9636 25.27C29.9625 25.553 29.9255 25.8347 29.8536 26.1084C29.7867 26.3609 29.6752 26.5995 29.5244 26.8129C29.3888 27.0278 29.1833 27.183 28.9786 27.3399L28.559 27.6717L28.6596 28.1715C28.694 28.3754 28.6966 28.5834 28.6673 28.7881C28.6378 29.004 28.569 29.2127 28.4643 29.4038C28.359 29.5986 28.2201 29.7733 28.0541 29.9198C27.8744 30.0788 27.6762 30.2157 27.4639 30.3275L26.7918 30.7078L27.0878 31.211C27.2221 31.4721 27.3175 31.7513 27.3709 32.04C27.4328 32.3487 27.4492 32.6647 27.4195 32.9781C27.3899 33.3025 27.2972 33.618 27.1466 33.9069C27.0033 34.2148 26.7705 34.4758 26.5181 34.7325C26.8379 34.5815 27.1731 34.4058 27.4443 34.1355C27.7339 33.8703 27.9696 33.5518 28.1385 33.1973C28.2898 32.8805 28.3993 32.5454 28.4643 32.2003C28.4796 32.2498 28.5018 32.2967 28.5163 32.3462C28.662 32.856 28.7363 33.3835 28.7372 33.9137C28.7447 34.4394 28.6719 34.9631 28.5214 35.4668C28.3909 35.9785 28.147 36.4544 27.8903 36.9226L27.6507 37.361L27.707 37.442C26.8072 38.3315 24.6657 40.2735 22.253 41.2679C22.1661 40.9273 22.0311 40.6008 21.8521 40.2982C21.1792 39.3294 18.7102 39.2117 17.9699 39.1989L17.9614 39.7012L17.952 39.1989C17.2117 39.2117 14.7427 39.3294 14.0707 40.2982C13.8913 40.6003 13.756 40.9266 13.669 41.267C11.2588 40.2735 9.11644 38.3315 8.21497 37.4411L8.27211 37.361L8.03161 36.9226C7.77575 36.4544 7.53098 35.9776 7.40049 35.4668C7.2503 34.963 7.17783 34.4393 7.18558 33.9137C7.18628 33.3823 7.2612 32.8535 7.40817 32.3428C7.42267 32.2933 7.44399 32.2464 7.45934 32.1969C7.52474 32.5419 7.63423 32.8769 7.78513 33.1939C7.95401 33.5484 8.18973 33.8669 8.47936 34.1321C8.75215 34.3819 9.06532 34.5838 9.40555 34.7291C9.1497 34.4732 8.92028 34.2114 8.77785 33.9035C8.62659 33.6149 8.53385 33.2993 8.50494 32.9747C8.47441 32.6613 8.4908 32.3452 8.55355 32.0366C8.60672 31.748 8.70183 31.4687 8.83585 31.2076L9.13179 30.7044L8.4606 30.3241C8.24814 30.2125 8.04997 30.0756 7.87042 29.9164C7.70437 29.7697 7.56525 29.5951 7.45934 29.4004C7.35451 29.2094 7.28598 29.0006 7.25721 28.7847C7.24188 28.6745 7.23504 28.5633 7.23675 28.452C7.23908 28.3568 7.24849 28.2619 7.26489 28.168L7.36553 27.6717L6.94763 27.3519C6.74294 27.1915 6.53741 27.0363 6.4018 26.8188ZM22.4355 42.2726C24.948 41.2952 27.1543 39.3729 28.2246 38.3392C28.2753 38.4669 28.318 38.5977 28.3526 38.7307C28.4159 38.9874 28.4544 39.2495 28.4677 39.5136C27.7948 40.1106 25.4358 42.044 22.4397 42.9583C22.4565 42.7308 22.456 42.5025 22.438 42.2751L22.4355 42.2726ZM21.3651 43.3642C21.3248 43.5311 21.2647 43.6926 21.186 43.8452C20.7246 44.7279 19.6407 45.1748 17.9631 45.1748C16.2855 45.1748 15.2007 44.7288 14.7427 43.8435C14.6644 43.6907 14.6043 43.5293 14.5636 43.3625L14.5875 43.2457L14.5363 43.2337C14.4513 42.721 14.4736 42.1962 14.602 41.6926L14.6267 41.6073C14.6847 41.3504 14.778 41.1027 14.9039 40.8713C15.1598 40.5012 16.6949 40.2274 17.9742 40.2035C19.2535 40.2266 20.7818 40.5003 21.0393 40.8713C21.1657 41.1026 21.2592 41.3503 21.3174 41.6073H21.3131L21.3378 41.6926C21.4665 42.1962 21.4891 42.721 21.4044 43.2337L21.3532 43.2457L21.3651 43.3642ZM21.7609 58.3949C21.6432 58.864 20.6922 62.3266 17.9631 63.6391C15.2425 62.33 14.2839 58.8632 14.1653 58.3941C14.208 55.8244 15.2971 48.1291 15.6331 45.8094C16.2779 46.049 17.0454 46.1786 17.9631 46.1786C18.8808 46.1786 19.65 46.0499 20.2931 45.8085C20.6274 48.1274 21.7174 55.8236 21.7609 58.3932V58.3949ZM13.4831 42.9583C10.4929 42.0448 8.12968 40.1072 7.45508 39.5136C7.46864 39.2498 7.50748 38.9879 7.57106 38.7315C7.60494 38.598 7.64768 38.467 7.69899 38.3392C8.76847 39.3763 10.9748 41.296 13.4873 42.2734C13.4683 42.5018 13.4669 42.7313 13.4831 42.96V42.9583ZM13.1342 94.4375L12.9986 96.0417L12.9304 96.8442L12.9133 97.0421C12.9057 97.083 12.904 97.1274 12.8954 97.1657C12.8802 97.2468 12.8571 97.3263 12.8264 97.4028C12.7038 97.7156 12.4678 97.9705 12.1654 98.1167C11.9334 98.248 11.3407 98.3026 10.8529 98.3666C9.85927 98.482 8.85439 98.4567 7.86786 98.2915C7.74676 98.2719 7.62735 98.2429 7.5071 98.2199C7.43828 98.2035 7.3716 98.1791 7.30839 98.1474C7.18359 98.0857 7.07757 97.9918 7.00136 97.8753C6.92114 97.7604 6.87074 97.6273 6.85467 97.4881C6.84827 97.4175 6.84827 97.3464 6.85467 97.2758L6.87173 97.1632L6.92034 96.9926C7.16511 96.0826 7.65294 95.2519 8.52285 94.8605C9.39276 94.469 10.5057 94.5304 11.5547 94.7598C10.7019 94.3164 9.70405 93.953 8.62775 94.0776L7.89942 89.1199C8.90828 89.338 9.93753 89.4478 10.9697 89.4474C11.8621 89.4546 12.7524 89.3591 13.6229 89.1625C13.4489 90.9186 13.2767 92.678 13.1342 94.4392V94.4375ZM29.011 96.996L29.0596 97.1666L29.0758 97.2792C29.0826 97.3498 29.0826 97.4209 29.0758 97.4915C29.0597 97.6306 29.0096 97.7636 28.9299 97.8787C28.8536 97.9954 28.7473 98.0894 28.6221 98.1508C28.5589 98.1825 28.4922 98.2069 28.4234 98.2233C28.3031 98.2463 28.1846 98.2753 28.0626 98.2949C27.0761 98.4602 26.0712 98.4855 25.0776 98.37C24.5889 98.306 23.9962 98.2514 23.7651 98.1201C23.4624 97.974 23.2261 97.7191 23.1033 97.4062C23.0725 97.3297 23.0494 97.2503 23.0342 97.1692C23.0256 97.1282 23.0239 97.0839 23.0171 97.0455L23.0001 96.8476L22.9318 96.0451L22.7954 94.4409C22.6538 92.6797 22.4815 90.9211 22.3144 89.1617C23.1849 89.3582 24.0752 89.4538 24.9676 89.4465C25.9998 89.4469 27.029 89.3371 28.0379 89.119L27.3095 94.0767C26.2341 93.953 25.2396 94.3164 24.3834 94.759C25.4324 94.5296 26.5445 94.4656 27.4153 94.8596C28.286 95.2536 28.7662 96.0843 29.011 96.9943V96.996ZM33.6062 65.5581C33.6232 65.6246 35.2104 72.2214 31.457 78.1019L31.2241 78.4831L31.4331 78.872C31.4757 78.9513 32.4565 80.8464 30.5802 83.9286L30.3619 84.2902L30.5555 84.6646C30.5555 84.6706 30.8395 85.2616 30.6195 85.8876C30.4387 86.4044 29.9559 86.8402 29.1875 87.1831C26.3731 88.4359 21.5647 87.9984 20.9148 86.7652L20.844 86.6321L20.7272 86.5358C20.7135 86.5247 19.3737 85.3852 20.4918 83.1491L20.7212 82.6433L20.3289 82.2587C20.3136 82.2433 18.8441 80.7235 18.7264 74.9327C18.9473 74.9224 19.1682 74.9088 19.3891 74.8883C19.871 74.8424 20.3498 74.7675 20.8227 74.664C21.3073 74.5603 21.7821 74.415 22.2419 74.2299C22.4798 74.1322 22.7118 74.0208 22.9369 73.8964C23.0512 73.8333 23.1655 73.7625 23.2781 73.6875C23.3853 73.6151 23.4883 73.5368 23.5868 73.453C24.0952 73.2458 24.5841 72.9938 25.0478 72.6999C25.5916 72.3543 26.0988 71.9542 26.5616 71.5059C25.4287 71.947 24.2176 72.152 23.0026 72.108L22.5984 72.3135C22.5984 72.3135 22.4969 72.3929 22.4363 72.4338C22.3604 72.4824 22.2828 72.5319 22.1984 72.5771C22.0272 72.6725 21.8507 72.758 21.6696 72.8329C21.2886 72.9858 20.8951 73.1054 20.4935 73.1903C20.0813 73.2803 19.6641 73.3456 19.2441 73.3856C18.8177 73.4248 18.3912 73.441 17.9597 73.4453C17.5281 73.4453 17.0992 73.4248 16.6744 73.3856C16.2544 73.3455 15.8372 73.2803 15.425 73.1903C15.0237 73.1053 14.6305 72.9857 14.2498 72.8329C14.0686 72.7576 13.8918 72.6722 13.7201 72.5771C13.6349 72.5319 13.559 72.4824 13.4831 72.4338C13.4225 72.3929 13.3202 72.3135 13.3202 72.3135L12.9168 72.108C11.7031 72.1524 10.4932 71.9484 9.36121 71.5084C9.82399 71.9568 10.3312 72.3568 10.875 72.7024C11.3386 72.9965 11.8275 73.2485 12.336 73.4555C12.4342 73.5393 12.537 73.6176 12.6438 73.69C12.7581 73.7651 12.8724 73.8359 12.985 73.899C13.2097 74.0235 13.4415 74.1349 13.6792 74.2325C14.1392 74.4176 14.6143 74.5628 15.0992 74.6666C15.5719 74.7701 16.0503 74.845 16.532 74.8909C16.7537 74.9113 16.9746 74.925 17.1955 74.9361C17.0778 80.7218 15.6084 82.245 15.6092 82.2467L15.1683 82.6297L15.4293 83.1516C16.509 85.3102 15.3252 86.4249 15.1939 86.5383L15.0779 86.6347L15.0071 86.7677C14.3547 88.001 9.54372 88.4385 6.73441 87.1856C5.97281 86.8445 5.49266 86.4181 5.30759 85.9063C5.07732 85.2735 5.36644 84.668 5.36644 84.668L5.55918 84.2936L5.34085 83.932C3.47225 80.8498 4.44962 78.9547 4.488 78.8839L4.71315 78.4891L4.46838 78.1053C0.715825 72.2206 2.30213 65.6272 2.31919 65.5615L2.38315 65.3056L2.27228 65.0651C0.432677 61.0678 2.53496 57.1736 2.55543 57.1336L2.755 56.7762L2.56396 56.4129C1.92944 55.2189 2.81043 53.1064 3.20275 52.396L3.34176 52.1452L3.2795 51.8663C2.57931 48.7167 5.05003 45.7207 6.4598 44.3117C6.46577 44.5258 6.47856 44.7382 6.50159 44.9505C6.54995 45.3979 6.64924 45.8383 6.79753 46.2631C6.94285 46.6756 7.14124 47.0676 7.3877 47.4289C7.26035 47.027 7.18609 46.6101 7.16681 46.1889C7.14839 45.7804 7.17701 45.3712 7.2521 44.9693C7.32649 44.5732 7.4358 44.1845 7.57874 43.8077C7.71095 43.4483 7.87805 43.1026 8.07766 42.7757L8.20389 42.4619L8.05719 42.1301C7.97191 41.9459 7.88662 41.7643 7.80731 41.5792C7.74675 41.3899 7.65891 41.2056 7.61797 41.0137C7.61115 40.9916 7.60945 40.9677 7.60262 40.9447C8.8367 41.9067 11.0618 43.3907 13.7432 44.0798C13.7756 44.1574 13.808 44.2341 13.8472 44.31C14.0526 44.6964 14.3406 45.0327 14.6907 45.2951C14.4348 47.0537 13.1871 55.6846 13.1556 58.4444V58.5024L13.1683 58.5587C13.2093 58.7446 14.2199 63.1325 17.7618 64.6523L17.9597 64.7376L18.1575 64.6523C21.6986 63.1325 22.7092 58.7446 22.7502 58.5587L22.763 58.5024V58.4444C22.734 55.6846 21.4837 47.0545 21.2278 45.2951C21.5803 45.0335 21.8704 44.6971 22.0773 44.31C22.1165 44.2341 22.1498 44.1565 22.1822 44.0789C24.8635 43.3898 27.0886 41.9058 28.3227 40.9438C28.3167 40.9668 28.3142 40.9907 28.3074 41.0129C28.2664 41.2048 28.1786 41.389 28.118 41.5783C28.0421 41.7634 27.9475 41.9451 27.8681 42.1293L27.7215 42.461L27.8477 42.7749C28.0476 43.1017 28.215 43.4474 28.3475 43.8069C28.4893 44.1826 28.5978 44.5702 28.6715 44.965C28.7466 45.3669 28.7752 45.7762 28.7568 46.1846C28.7375 46.6058 28.6633 47.0227 28.5359 47.4247C28.7827 47.0635 28.9811 46.6715 29.1261 46.2588C29.2748 45.8341 29.3741 45.3937 29.422 44.9463C29.4451 44.7348 29.4587 44.5198 29.4638 44.3066C30.8736 45.7155 33.3452 48.7125 32.645 51.8621L32.5836 52.141L32.7209 52.39C33.1141 53.1021 33.9951 55.2112 33.3605 56.4086L33.1703 56.7702L33.3674 57.1267C33.3887 57.166 35.4918 61.0601 33.6513 65.0583L33.5405 65.2997L33.6062 65.5581Z" fill="#3A2033"/>
</svg>
