<?xml version="1.0" encoding="UTF-8" standalone="no"?>
<svg
   inkscape:version="1.1.1 (3bf5ae0, 2021-09-20)"
   id="svg8"
   version="1.1"
   viewBox="0 0 97.895831 79.375004"
   height="300"
   width="370"
   xmlns:inkscape="http://www.inkscape.org/namespaces/inkscape"
   xmlns:sodipodi="http://sodipodi.sourceforge.net/DTD/sodipodi-0.dtd"
   xmlns="http://www.w3.org/2000/svg"
   xmlns:svg="http://www.w3.org/2000/svg"
   xmlns:rdf="http://www.w3.org/1999/02/22-rdf-syntax-ns#"
   xmlns:cc="http://creativecommons.org/ns#"
   xmlns:dc="http://purl.org/dc/elements/1.1/">
  <defs
     id="defs2" />
  <sodipodi:namedview
     borderlayer="true"
     units="px"
     showgrid="false"
     inkscape:document-rotation="0"
     inkscape:current-layer="layer1"
     inkscape:document-units="px"
     inkscape:cy="121.72338"
     inkscape:cx="267.69042"
     inkscape:zoom="0.98994949"
     inkscape:pageshadow="2"
     inkscape:pageopacity="0"
     borderopacity="1.0"
     bordercolor="#666666"
     pagecolor="#585858"
     id="base"
     inkscape:pagecheckerboard="1"
     inkscape:snap-global="false"
     fit-margin-top="0"
     fit-margin-left="0"
     fit-margin-right="0"
     fit-margin-bottom="0"
     inkscape:window-width="1280"
     inkscape:window-height="967"
     inkscape:window-x="0"
     inkscape:window-y="1"
     inkscape:window-maximized="1"
     height="350px" />
  <metadata
     id="metadata5">
    <rdf:RDF>
      <cc:Work
         rdf:about="">
        <dc:format>image/svg+xml</dc:format>
        <dc:type
           rdf:resource="http://purl.org/dc/dcmitype/StillImage" />
      </cc:Work>
    </rdf:RDF>
  </metadata>
  <g
     id="layer1"
     inkscape:groupmode="layer"
     inkscape:label="Layer 1"
     transform="translate(-94.52741,-158.56634)">
    <g
       id="g300983"
       transform="translate(-243.40106,48.222459)"
       style="display:inline;stroke:#000000"
       inkscape:label="boca7">
      <path
         style="display:inline;opacity:1;vector-effect:none;fill:#ffffff;fill-opacity:1;stroke:none;stroke-width:0.132292;stroke-linecap:butt;stroke-linejoin:miter;stroke-miterlimit:4;stroke-dasharray:none;stroke-dashoffset:0;stroke-opacity:1"
         d="m 374.48972,147.02863 c 0,0 0.76085,6.87271 1.2894,6.86823 0.52855,-0.004 2.27871,0.18369 2.27871,0.18369 0,0 -4.5907,26.08715 -2.82024,27.64854 9.18787,8.10283 25.9177,-1.27258 29.34213,-17.38811 1.75245,-8.24707 10.22444,-24.43445 -3.50651,-40.71163 -2.45448,-2.49837 -10.1752,-8.07351 -20.6133,-5.29315 0,0 -11.60939,4.46015 -12.78105,9.67304 -2.54971,11.34403 -4.20635,18.94789 6.81084,19.01939 z"
         id="path492343"
         sodipodi:nodetypes="cccssccscc" />
      <path
         style="display:inline;vector-effect:none;fill:#fffff2;fill-opacity:1;stroke:none;stroke-width:0.132292;stroke-linecap:butt;stroke-linejoin:miter;stroke-miterlimit:4;stroke-dasharray:none;stroke-dashoffset:0;stroke-opacity:1"
         d="m 374.34921,148.01364 0.5298,5.20902 c 2.52414,-0.0191 5.37793,0.57606 6.8293,-1.44199 5.39695,2.95471 3.36854,1.80665 8.29935,1.4867 l 0.18631,-5.67106 -8.70691,-1.32647 c -1.94433,1.12325 -5.34047,1.78871 -7.13785,1.7438 z"
         id="path13904-2"
         sodipodi:nodetypes="ccccccc" />
      <path
         id="path505954"
         style="display:inline;opacity:1;vector-effect:none;fill:#cccccc;fill-opacity:1;stroke:none;stroke-width:0.500001;stroke-linecap:butt;stroke-linejoin:miter;stroke-miterlimit:4;stroke-dasharray:none;stroke-dashoffset:0;stroke-opacity:1"
         d="m 482.35547,547.78125 -29.22461,10.60937 2.03906,8.11915 c 18.70488,-4.06693 20.57308,-11.93369 27.18555,-18.72852 z m -92.73339,29.83848 c -1.30037,18.90561 0.0313,61.1062 0.15984,94.54135 -1.78354,15.9491 4.66443,20.69602 9.03146,11.88981 7.89677,-15.92403 -6.73221,-10.36552 10.25303,-33.04503 9.05979,-12.09702 -25.03485,-18.53778 10.92773,-44.14453 -11.08104,-1.53234 -12.04718,-4.15936 -17.10547,-16.42578 0,0 -10.57847,-12.75288 -13.26659,-12.81582 z"
         transform="matrix(0.26458333,0,0,0.26458333,270.55409,0.03746735)"
         sodipodi:nodetypes="ccccccssccc" />
      <path
         id="path295891-72"
         style="font-variation-settings:normal;display:inline;fill:none;fill-opacity:1;stroke:#999999;stroke-width:2.11667;stroke-linecap:round;stroke-linejoin:round;stroke-miterlimit:4;stroke-dasharray:none;stroke-dashoffset:0;stroke-opacity:1;stop-color:#000000"
         d="m 374.41034,170.54712 c 6.90117,-2.30346 9.40377,5.46069 8.65204,5.25503 4.53721,-3.50093 10.16231,-0.56304 10.89906,0.83652 3.44966,-3.19502 7.04069,-1.81969 7.53198,-1.17964 m -18.82765,-28.20946 c 0,0 -0.53466,6.58646 0.98269,6.60367 l 4.47133,0.0507 c 2.77599,0.0709 2.10777,-3.23249 2.09013,-6.66898 m -15.65659,0.57526 c 0.0591,0.78712 -0.61415,6.07769 1.45271,6.13978 l 2.73644,0.0822 c 2.74724,-0.23158 2.17106,-3.68905 2.12225,-7.04875 m 19.92552,-6.09077 c -2.25526,7.66076 -7.66153,9.08248 -9.38813,9.18562 m 9.15683,-15.71119 c 2.16405,-0.30535 3.0557,0.23679 4.80815,2.44447 m -28.32263,18.69623 c -0.0503,3.51437 1.76714,4.9517 7.81484,4.61012 m -5.16193,-23.91925 c 0.36621,4.45999 -0.30525,7.37309 1.92418,9.22236 12.97316,5.90546 20.43037,-4.19103 20.9487,-9.54834 m -28.31403,-2.4495 c -1.87378,-1.18431 -4.42652,-2.05261 -4.56918,-4.04266 l 9.91365,6.74321 c 4.90907,-2.78444 11.03377,-4.85895 15.83641,-8.30495 -2.1874,3.34809 -4.75881,3.981 -7.28907,4.90487 M 380.522,116.42421 c -3.3706,6.03632 -11.93666,7.13055 -13.95518,11.47019 -0.76577,6.67617 -1.37741,16.57437 3.38276,17.9921 5.92543,2.93302 10.79708,-0.22647 11.19613,-0.66643" />
    </g>
  </g>
</svg>
