<?xml version="1.0" encoding="UTF-8" standalone="no"?>
<svg
   inkscape:version="1.1.1 (3bf5ae0, 2021-09-20)"
   id="svg8"
   version="1.1"
   viewBox="0 0 97.895831 79.375004"
   height="300"
   width="370"
   xmlns:inkscape="http://www.inkscape.org/namespaces/inkscape"
   xmlns:sodipodi="http://sodipodi.sourceforge.net/DTD/sodipodi-0.dtd"
   xmlns="http://www.w3.org/2000/svg"
   xmlns:svg="http://www.w3.org/2000/svg"
   xmlns:rdf="http://www.w3.org/1999/02/22-rdf-syntax-ns#"
   xmlns:cc="http://creativecommons.org/ns#"
   xmlns:dc="http://purl.org/dc/elements/1.1/">
  <defs
     id="defs2" />
  <sodipodi:namedview
     borderlayer="true"
     units="px"
     showgrid="false"
     inkscape:document-rotation="0"
     inkscape:current-layer="layer1"
     inkscape:document-units="px"
     inkscape:cy="121.72338"
     inkscape:cx="267.69042"
     inkscape:zoom="0.98994949"
     inkscape:pageshadow="2"
     inkscape:pageopacity="0"
     borderopacity="1.0"
     bordercolor="#666666"
     pagecolor="#585858"
     id="base"
     inkscape:pagecheckerboard="1"
     inkscape:snap-global="false"
     fit-margin-top="0"
     fit-margin-left="0"
     fit-margin-right="0"
     fit-margin-bottom="0"
     inkscape:window-width="1280"
     inkscape:window-height="967"
     inkscape:window-x="0"
     inkscape:window-y="1"
     inkscape:window-maximized="1"
     height="350px" />
  <metadata
     id="metadata5">
    <rdf:RDF>
      <cc:Work
         rdf:about="">
        <dc:format>image/svg+xml</dc:format>
        <dc:type
           rdf:resource="http://purl.org/dc/dcmitype/StillImage" />
      </cc:Work>
    </rdf:RDF>
  </metadata>
  <g
     id="layer1"
     inkscape:groupmode="layer"
     inkscape:label="Layer 1"
     transform="translate(-94.52741,-158.56634)">
    <g
       id="g8786"
       transform="translate(133.92613,-189.36573)"
       style="display:inline"
       inkscape:label="boca4">
      <path
         style="display:inline;vector-effect:none;fill:#ffffff;fill-opacity:1;stroke:none;stroke-width:0.132292;stroke-linecap:butt;stroke-linejoin:miter;stroke-miterlimit:4;stroke-dasharray:none;stroke-dashoffset:0;stroke-opacity:1"
         d="m -2.0821535,387.3876 c -1.4558475,3.09513 2.55813204,4.31168 1.48687143,9.33827 -4.42015093,2.00461 -7.50689233,2.41308 5.02316487,8.08333 26.2585472,5.99537 27.6276612,-19.90413 25.7527832,-33.4849 -0.0591,-9.30621 -18.24564,-13.98314 -28.9703504,-13.14989 -2.7293,0.21205 -11.8946606,6.60712 -13.2512136,8.71269 -4.435537,6.88464 -1.268053,6.06474 -1.681274,8.20688 0.08642,8.37163 0.307932,12.37175 11.6400185,12.29362 z"
         id="path450069-5"
         sodipodi:nodetypes="ccccsscc" />
      <path
         style="font-variation-settings:normal;display:inline;opacity:1;vector-effect:none;fill:#fffff2;fill-opacity:1;stroke:none;stroke-width:0.132292;stroke-linecap:butt;stroke-linejoin:miter;stroke-miterlimit:4;stroke-dasharray:none;stroke-dashoffset:0;stroke-opacity:1;-inkscape-stroke:none;stop-color:#000000;stop-opacity:1"
         d="m -2.2884895,388.10162 -0.3146113,2.40912 c 7.5796372,2.52808 16.5470188,1.68298 22.6825158,-2.02778 l 0.888496,-3.6695 c -6.74718,3.48236 -14.8366589,3.87891 -19.9387689,2.18039 -1.94432996,1.12325 -1.52025157,1.15268 -3.3176316,1.10777 z"
         id="path13904-6"
         sodipodi:nodetypes="cccccc" />
      <path
         style="display:inline;vector-effect:none;fill:#d47575;fill-opacity:1;stroke:none;stroke-width:0.222429;stroke-linecap:butt;stroke-linejoin:miter;stroke-miterlimit:4;stroke-dasharray:none;stroke-dashoffset:0;stroke-opacity:1"
         d="m 25.690936,381.6065 c 0,0 -3.428608,12.17635 -11.665372,14.454 -8.2367466,2.27768 -15.3501164,1.1906 -15.3501164,1.1906 0,0 1.31553931,-4.21398 1.1762395,-5.4736 -2.2452302,1.24115 18.8087829,-1.70215 20.5666489,-3.78967 l 0.842592,-3.57305 z"
         id="path295871"
         sodipodi:nodetypes="csccccc" />
      <path
         style="font-variation-settings:normal;display:inline;vector-effect:none;fill:none;fill-opacity:1;stroke:#969696;stroke-width:1.33457;stroke-linecap:round;stroke-linejoin:round;stroke-miterlimit:4;stroke-dasharray:none;stroke-dashoffset:0;stroke-opacity:1;-inkscape-stroke:none;stop-color:#000000"
         d="m -1.1222357,391.05772 c 3.4351822,1.5557 14.6651007,0.61665 21.2047107,-2.90373 0.923363,-0.49706 0.772311,-2.6762 0.905104,-3.29721"
         id="path295883"
         sodipodi:nodetypes="csc" />
      <path
         id="path295891"
         style="font-variation-settings:normal;display:inline;opacity:1;vector-effect:none;fill:none;fill-opacity:1;stroke:#999999;stroke-width:2.11667;stroke-linecap:round;stroke-linejoin:round;stroke-miterlimit:4;stroke-dasharray:none;stroke-dashoffset:0;stroke-opacity:1;-inkscape-stroke:none;stop-color:#000000;stop-opacity:1"
         d="m -3.2655817,412.80718 c 5.2295056,-2.0005 7.3865824,6.36043 6.8528777,6.11526 4.3514348,-5.29504 12.602892,-1.70861 13.342282,-0.28356 3.758418,-4.69434 7.472607,-2.33992 7.924006,-1.95921 M -1.2865035,397.09753 c -0.9267767,-0.63876 -5.4765592,2.84408 -0.1334992,5.91349 3.9420082,2.26452 8.8430751,1.69382 8.8523729,1.85458 m -7.9295137,-27.72748 c 0.36621476,4.45999 -0.30524902,7.37309 1.9241869,9.22236 3.6817185,3.0539 10.8130456,1.23086 14.8450396,-0.21962 3.58647,-1.29022 11.954731,-5.39368 14.311244,-13.47825 m -36.5216204,1.70003 c -1.8737801,-1.18431 -4.4265126,-2.05261 -4.5691756,-4.04266 l 9.9136479,6.74321 c 4.9090701,-2.78444 11.0337731,-4.85895 15.8364131,-8.30495 -2.187402,3.34809 -4.758808,3.981 -7.2890706,4.90487 M 1.1043077,356.33608 c -3.469472,7.18421 -11.8624937,6.93922 -14.7320077,12.49776 -0.765851,6.67572 -1.582407,13.65945 3.561272,17.21252 5.9254358,2.93302 10.61856435,0.55311 11.01761586,0.11315 m -3.87056766,1.67319 c 0.6096237,0.055 -1.3977395,3.34562 2.16667116,3.75802 1.70270274,1.85481 -0.0354765,4.87408 -0.36221316,5.57187 4.5657889,2.10751 14.1107938,0.62205 18.1623078,-1.96847 4.991221,-3.19137 7.851819,-11.9858 9.44974,-15.27587 m 1.989373,-8.01548 c 2.164048,-0.30535 3.055702,0.23679 4.808155,2.44447"
         sodipodi:nodetypes="cccccsccsscccccccccccccsccc" />
    </g>
  </g>
</svg>
