<?xml version="1.0" encoding="UTF-8" standalone="no"?>
<svg
   inkscape:version="1.1.1 (3bf5ae0, 2021-09-20)"
   id="svg8"
   version="1.1"
   viewBox="0 0 97.895831 79.375004"
   height="300"
   width="370"
   xmlns:inkscape="http://www.inkscape.org/namespaces/inkscape"
   xmlns:sodipodi="http://sodipodi.sourceforge.net/DTD/sodipodi-0.dtd"
   xmlns="http://www.w3.org/2000/svg"
   xmlns:svg="http://www.w3.org/2000/svg"
   xmlns:rdf="http://www.w3.org/1999/02/22-rdf-syntax-ns#"
   xmlns:cc="http://creativecommons.org/ns#"
   xmlns:dc="http://purl.org/dc/elements/1.1/">
  <defs
     id="defs2" />
  <sodipodi:namedview
     borderlayer="true"
     units="px"
     showgrid="false"
     inkscape:document-rotation="0"
     inkscape:current-layer="layer1"
     inkscape:document-units="px"
     inkscape:cy="121.72338"
     inkscape:cx="267.69042"
     inkscape:zoom="0.98994949"
     inkscape:pageshadow="2"
     inkscape:pageopacity="0"
     borderopacity="1.0"
     bordercolor="#666666"
     pagecolor="#585858"
     id="base"
     inkscape:pagecheckerboard="1"
     inkscape:snap-global="false"
     fit-margin-top="0"
     fit-margin-left="0"
     fit-margin-right="0"
     fit-margin-bottom="0"
     inkscape:window-width="1280"
     inkscape:window-height="967"
     inkscape:window-x="0"
     inkscape:window-y="1"
     inkscape:window-maximized="1"
     height="350px" />
  <metadata
     id="metadata5">
    <rdf:RDF>
      <cc:Work
         rdf:about="">
        <dc:format>image/svg+xml</dc:format>
        <dc:type
           rdf:resource="http://purl.org/dc/dcmitype/StillImage" />
      </cc:Work>
    </rdf:RDF>
  </metadata>
  <g
     id="layer1"
     inkscape:groupmode="layer"
     inkscape:label="Layer 1"
     transform="translate(-94.52741,-158.56634)">
    <g
       id="g300826"
       transform="translate(-244.68702,-492.99386)"
       style="display:inline;stroke:#000000"
       inkscape:label="boca3">
      <path
         id="path450069-7"
         style="display:inline;vector-effect:none;fill:#ffffff;fill-opacity:1;stroke:none;stroke-width:0.500001;stroke-linecap:butt;stroke-linejoin:miter;stroke-miterlimit:4;stroke-dasharray:none;stroke-dashoffset:0;stroke-opacity:1"
         d="m 423.81836,443.87305 c -2.73011,0.0349 -5.37285,0.15082 -7.90625,0.34765 -10.31547,0.80145 -39.80644,22.83882 -44.93359,30.79688 -16.76421,26.02068 -9.94213,25.05411 -11.50391,33.15039 6.47138,18.66179 -6.66619,42.79134 33.87695,47.32617 -0.074,0.66613 -0.12127,1.36922 -0.15429,2.08984 -4.92431,0.32513 -9.88234,0.199 -14.90039,-0.71875 -0.67355,1.49677 -1.03947,20.07878 2.375,20.96485 3.41445,0.88603 14.25781,1.04297 14.25781,1.04297 0.68389,1.43223 1.56162,2.48039 2.59765,3.24609 3.2555,8.88071 8.23768,16.99304 14.63868,20.91602 -4.5756,-1.31539 -27.79817,20.49228 0.0957,26.10937 -14.80733,6.52201 -13.63299,17.25538 -7.91602,27.57813 -0.54807,-0.0228 -1.05709,-0.068 -1.63086,-0.0762 -4.37242,-0.0253 -13.07568,4.59283 -10.95117,17.13477 4.24801,25.07794 29.67022,18.48817 34.08037,20.21517 31.57268,3.8211 52.07941,-1.39336 74.5555,-27.20621 32.28163,-42.62945 30.21006,-134.01933 25.00671,-172.86833 -0.20941,-32.97476 -60.63619,-50.57295 -101.58789,-50.04883 z"
         transform="matrix(0.26458333,0,0,0.26458333,271.07796,542.33386)"
         sodipodi:nodetypes="sscccccsccccccscccs" />
      <path
         style="display:inline;opacity:1;vector-effect:none;fill:#a37070;fill-opacity:1;stroke:none;stroke-width:0.132292;stroke-linecap:butt;stroke-linejoin:miter;stroke-miterlimit:4;stroke-dasharray:none;stroke-dashoffset:0;stroke-opacity:1"
         d="m 380.98195,702.70883 c 0,0 9.17434,0.91846 13.1332,-1.83694 3.95887,-2.75539 6.85713,-6.62192 7.34018,-11.05745 0.48304,-4.43552 -0.30453,-3.44537 -0.30453,-3.44537 l -4.12723,2.23256 c -0.0845,0.0264 0.33459,4.75932 -0.2022,5.231 -1.83259,1.61031 -4.22023,1.27363 -4.5101,1.36728 -1.10296,0.35632 -5.67947,2.13581 -6.59097,1.94352 -3.33143,-0.70279 0.87312,-3.82176 -2.84359,-3.604 l -1.64974,4.11559 c -1.71936,0.92191 -0.52248,3.18932 -0.24502,5.05381 z"
         id="path434979"
         sodipodi:nodetypes="cssccsssccc" />
      <path
         id="path445115"
         style="display:inline;opacity:1;vector-effect:none;fill:#cccccc;fill-opacity:1;stroke:none;stroke-width:0.500001;stroke-linecap:butt;stroke-linejoin:miter;stroke-miterlimit:4;stroke-dasharray:none;stroke-dashoffset:0;stroke-opacity:1"
         d="m 385.39648,579.44727 c 0,0 6.78227,14.2497 6.84766,19.39843 0.0658,5.14874 -0.2791,18.87546 -0.21484,17.76953 0.0989,-1.69629 15.69907,-12.64444 19.39258,-12.52539 1.11828,-1.79818 0.67751,-14.69014 0.2246,-19.46875 z m 12.35352,48.67187 -6.02344,24.59375 c 0,0 15.81923,4.66254 13.8994,-0.64579 -4.06836,-11.24903 6.65218,-21.77949 7.52248,-20.71554 z"
         transform="matrix(0.26458333,0,0,0.26458333,271.07796,542.33386)"
         sodipodi:nodetypes="ccccccccscc" />
      <path
         style="font-variation-settings:normal;display:inline;opacity:1;vector-effect:none;fill:#fffff2;fill-opacity:1;stroke:none;stroke-width:0.132292;stroke-linecap:butt;stroke-linejoin:miter;stroke-miterlimit:4;stroke-dasharray:none;stroke-dashoffset:0;stroke-opacity:1;-inkscape-stroke:none;stop-color:#000000;stop-opacity:1"
         d="m 371.62732,690.18501 0.22415,4.6203 3.6941,1.26686 c 3.87756,1.8284 6.1868,-0.20103 7.43812,-3.00216 0.68974,6.30385 9.36462,2.97033 13.1429,0.3753 l 0.0699,-4.38185 c -8.33732,2.26387 -9.94597,0.6556 -14.40672,-0.55146 -1.94433,1.12325 -8.36503,1.71792 -10.16241,1.67301 z"
         id="path13904-3"
         sodipodi:nodetypes="cccccccc" />
      <path
         id="path295891-72-0"
         style="font-variation-settings:normal;display:inline;fill:none;fill-opacity:1;stroke:#999999;stroke-width:2.11667;stroke-linecap:round;stroke-linejoin:round;stroke-miterlimit:4;stroke-dasharray:none;stroke-dashoffset:0;stroke-opacity:1;stop-color:#000000"
         d="m 374.8502,715.50483 c 6.90117,-2.30346 8.59169,8.54316 7.83996,8.3375 5.84706,-6.05771 10.80576,-2.00115 11.50812,-0.53447 1.71185,-5.76157 7.71866,-6.67039 8.7641,-5.21193 m -23.57251,-15.55765 c 1.82377,-0.98986 1.32768,-3.49607 0.7112,-5.81655 m 22.35222,-12.33492 c -2.0155,15.94211 -7.85807,18.61122 -22.08395,18.15984 -6.27461,-0.19909 -6.67576,6.49612 0.27061,6.06223 m 22.65878,-32.67949 c 2.16405,-0.30535 3.0557,0.23679 4.80815,2.44447 m -27.95595,0.28366 c 0.36621,4.45999 -0.30525,7.37309 1.92418,9.22236 12.97316,5.90546 23.23109,-4.75706 24.01399,-10.83037 m -31.37932,-1.16747 c -1.87378,-1.18431 -4.42652,-2.05261 -4.56918,-4.04266 l 9.91365,6.74321 c 4.90907,-2.78444 11.03377,-4.85895 15.83641,-8.30495 -2.1874,3.34809 -4.75881,3.981 -7.28907,4.90487 m -6.93066,-17.8789 c -2.09762,5.5748 -13.92287,8.90093 -14.65056,13.04963 -0.76577,6.67617 -1.37741,16.57437 3.38276,17.9921 5.92543,2.93302 10.79708,-0.22647 11.19613,-0.66643 m -6.88722,7.37976 -2.88659,0.13098 c -0.84214,-0.0879 -0.65109,-4.12147 -0.40251,-5.38116 m 20.92133,4.77928 3.67289,-0.58212 c 1.67249,-0.6294 0.64515,-2.58778 0.27563,-5.24989 m -12.81273,0.58437 c 0,0 0.68376,7.73803 1.87911,7.61752 l 5.18697,-0.52296 c 2.05424,-0.52297 0.55773,-4.13674 0.14011,-6.85358 m -15.4148,0.83792 c 0.0591,0.78712 -0.76248,6.31626 1.3053,6.32362 l 4.44533,0.0158 c 1.70028,-0.30415 0.60958,-3.80647 0.56077,-7.16617" />
    </g>
  </g>
</svg>
