<?xml version="1.0" encoding="UTF-8" standalone="no"?>
<svg
   inkscape:version="1.1.1 (3bf5ae0, 2021-09-20)"
   id="svg8"
   version="1.1"
   viewBox="0 0 97.895831 79.375004"
   height="300"
   width="370"
   xmlns:inkscape="http://www.inkscape.org/namespaces/inkscape"
   xmlns:sodipodi="http://sodipodi.sourceforge.net/DTD/sodipodi-0.dtd"
   xmlns="http://www.w3.org/2000/svg"
   xmlns:svg="http://www.w3.org/2000/svg"
   xmlns:rdf="http://www.w3.org/1999/02/22-rdf-syntax-ns#"
   xmlns:cc="http://creativecommons.org/ns#"
   xmlns:dc="http://purl.org/dc/elements/1.1/">
  <defs
     id="defs2" />
  <sodipodi:namedview
     borderlayer="true"
     units="px"
     showgrid="false"
     inkscape:document-rotation="0"
     inkscape:current-layer="layer1"
     inkscape:document-units="px"
     inkscape:cy="121.72338"
     inkscape:cx="267.69042"
     inkscape:zoom="0.98994949"
     inkscape:pageshadow="2"
     inkscape:pageopacity="0"
     borderopacity="1.0"
     bordercolor="#666666"
     pagecolor="#585858"
     id="base"
     inkscape:pagecheckerboard="1"
     inkscape:snap-global="false"
     fit-margin-top="0"
     fit-margin-left="0"
     fit-margin-right="0"
     fit-margin-bottom="0"
     inkscape:window-width="1280"
     inkscape:window-height="967"
     inkscape:window-x="0"
     inkscape:window-y="1"
     inkscape:window-maximized="1"
     height="350px" />
  <metadata
     id="metadata5">
    <rdf:RDF>
      <cc:Work
         rdf:about="">
        <dc:format>image/svg+xml</dc:format>
        <dc:type
           rdf:resource="http://purl.org/dc/dcmitype/StillImage" />
      </cc:Work>
    </rdf:RDF>
  </metadata>
  <g
     id="layer1"
     inkscape:groupmode="layer"
     inkscape:label="Layer 1"
     transform="translate(-94.52741,-158.56634)">
    <g
       id="g298999"
       transform="translate(-513.09992,51.859148)"
       inkscape:label="boca6"
       style="display:inline">
      <path
         id="path481552"
         style="display:inline;opacity:1;vector-effect:none;fill:#ffffff;fill-opacity:1;stroke:none;stroke-width:0.500001;stroke-linecap:butt;stroke-linejoin:miter;stroke-miterlimit:4;stroke-dasharray:none;stroke-dashoffset:0;stroke-opacity:1"
         d="m 393.73633,625.91797 c -7.53275,7.3464 1.33352,21.05817 4.88455,19.81508 24.43584,-1.72789 86.90106,-5.67033 99.12277,-54.10302 52.44129,-144.76147 -31.81079,-150.85932 -81.02369,-150.54741 -17.23926,14.10816 -40.50517,20.61498 -51.71762,42.3247 -1.90115,35.75155 -8.83159,75.98062 28.38633,72.2958 0,0 -18.1892,20.96375 -12.92383,34.17188 5.26534,13.20816 5.75451,12.67231 9.89332,14.18009 -1.03275,1.99351 12.24238,13.21796 3.37817,21.86288 z"
         sodipodi:nodetypes="scccccscs"
         transform="matrix(0.26458333,0,0,0.26458333,541.28059,0.60575582)" />
      <path
         style="display:inline;vector-effect:none;fill:#fffff2;fill-opacity:1;stroke:none;stroke-width:0.132292;stroke-linecap:butt;stroke-linejoin:miter;stroke-miterlimit:4;stroke-dasharray:none;stroke-dashoffset:0;stroke-opacity:1"
         d="m 646.28085,148.68217 0.61373,3.14157 11.30406,-0.9842 4.27414,-4.11763 c -7.08502,2.62223 -6.09371,0.16732 -10.55035,0.11213 -1.94433,1.12325 -3.8442,1.89304 -5.64158,1.84813 z"
         id="path13904-1"
         sodipodi:nodetypes="cccccc" />
      <path
         id="path295891-72-2"
         style="font-variation-settings:normal;display:inline;fill:none;fill-opacity:1;stroke:#999999;stroke-width:2.11667;stroke-linecap:round;stroke-linejoin:round;stroke-miterlimit:4;stroke-dasharray:none;stroke-dashoffset:0;stroke-opacity:1;stop-color:#000000"
         d="m 645.13684,171.11541 c 6.90117,-2.30346 9.40377,5.46069 8.65204,5.25503 4.53721,-3.50093 10.16231,-0.56304 10.89906,0.83652 3.44966,-3.19502 7.04069,-1.81969 7.53198,-1.17964 m -14.62911,-25.0766 c -2.01968,0.6112 -4.899,1.16162 -5.73666,0.44104 l -0.20129,-4.23874 m -3.06135,4.60988 c -5.42235,3.9534 -1.80037,7.95371 13.84481,-4.12195 m -17.74148,1.24499 c -7.07672,10.71272 -0.35878,13.66859 9.19338,9.78315 m -3.38935,-21.73269 c 0.36621,4.45999 -0.30525,7.37309 1.92418,9.22236 8.47434,3.6888 18.3678,-0.17018 21.04428,-5.31048 m -28.40961,-6.68736 c -1.87378,-1.18431 -4.42652,-2.05261 -4.56918,-4.04266 l 9.91365,6.74321 c 4.90907,-2.78444 11.03377,-4.85895 15.83641,-8.30495 -2.1874,3.34809 -4.75881,3.981 -7.28907,4.90487 m -6.93066,-17.8789 c -2.09762,5.5748 -13.92287,8.90093 -14.65056,13.04963 -0.76577,6.67617 -1.37741,16.57437 3.38276,17.9921 5.92543,2.93302 10.79708,-0.22647 11.19613,-0.66643 m -0.69476,5.59313 c -1.1289,0.15448 -3.68445,0.43502 -4.45479,-0.1571 l -0.18976,-3.37818 m 24.41645,-8.49684 c 2.16405,-0.30535 3.0557,0.23679 4.80815,2.44447" />
    </g>
  </g>
</svg>
