<?xml version="1.0" encoding="UTF-8" standalone="no"?>
<svg
   inkscape:version="1.1.1 (3bf5ae0, 2021-09-20)"
   id="svg8"
   version="1.1"
   viewBox="0 0 97.895831 79.375004"
   height="300"
   width="370"
   xmlns:inkscape="http://www.inkscape.org/namespaces/inkscape"
   xmlns:sodipodi="http://sodipodi.sourceforge.net/DTD/sodipodi-0.dtd"
   xmlns="http://www.w3.org/2000/svg"
   xmlns:svg="http://www.w3.org/2000/svg"
   xmlns:rdf="http://www.w3.org/1999/02/22-rdf-syntax-ns#"
   xmlns:cc="http://creativecommons.org/ns#"
   xmlns:dc="http://purl.org/dc/elements/1.1/">
  <defs
     id="defs2" />
  <sodipodi:namedview
     borderlayer="true"
     units="px"
     showgrid="false"
     inkscape:document-rotation="0"
     inkscape:current-layer="layer1"
     inkscape:document-units="px"
     inkscape:cy="121.72338"
     inkscape:cx="267.69042"
     inkscape:zoom="0.98994949"
     inkscape:pageshadow="2"
     inkscape:pageopacity="0"
     borderopacity="1.0"
     bordercolor="#666666"
     pagecolor="#585858"
     id="base"
     inkscape:pagecheckerboard="1"
     inkscape:snap-global="false"
     fit-margin-top="0"
     fit-margin-left="0"
     fit-margin-right="0"
     fit-margin-bottom="0"
     inkscape:window-width="1280"
     inkscape:window-height="967"
     inkscape:window-x="0"
     inkscape:window-y="1"
     inkscape:window-maximized="1"
     height="350px" />
  <metadata
     id="metadata5">
    <rdf:RDF>
      <cc:Work
         rdf:about="">
        <dc:format>image/svg+xml</dc:format>
        <dc:type
           rdf:resource="http://purl.org/dc/dcmitype/StillImage" />
      </cc:Work>
    </rdf:RDF>
  </metadata>
  <g
     id="layer1"
     inkscape:groupmode="layer"
     inkscape:label="Layer 1"
     transform="translate(-94.52741,-158.56634)">
    <g
       id="g300907"
       transform="translate(-242.88386,-218.77171)"
       style="display:inline;stroke:#969696;stroke-opacity:1"
       inkscape:label="boca5">
      <path
         style="display:inline;opacity:1;vector-effect:none;fill:#ffffff;fill-opacity:1;stroke:none;stroke-width:0.132292;stroke-linecap:butt;stroke-linejoin:miter;stroke-miterlimit:4;stroke-dasharray:none;stroke-dashoffset:0;stroke-opacity:1"
         d="m 400.14114,427.41319 c 0.0175,0.87541 -28.6953,5.77202 -29.18566,-1.23902 -0.23314,-3.33337 -0.30803,-4.05471 1.45263,-4.42657 1.76066,-0.37186 3.15029,-0.93639 3.15029,-0.93639 l -0.0945,-2.49554 c -15.99036,-0.74777 -8.29483,-14.0142 -8.25968,-20.90035 22.78805,-18.02644 23.71513,-6.6384 37.09916,-1.39046 7.00117,19.65453 1.92952,29.70204 -4.16224,31.38833 z"
         id="path476892"
         sodipodi:nodetypes="cssccccc" />
      <path
         style="display:inline;vector-effect:none;fill:#fffff2;fill-opacity:1;stroke:none;stroke-width:0.132292;stroke-linecap:butt;stroke-linejoin:miter;stroke-miterlimit:4;stroke-dasharray:none;stroke-dashoffset:0;stroke-opacity:1"
         d="m 375.83165,419.51552 -0.0684,2.64178 15.11264,-1.43081 -0.21105,-1.55563 c -5.64997,-0.32175 -4.34359,-0.26131 -9.49726,-1.78106 -1.94433,1.12325 -3.53854,2.17063 -5.33592,2.12572 z"
         id="path13904-9"
         sodipodi:nodetypes="ccccccc" />
      <path
         id="path90947"
         style="font-variation-settings:normal;display:inline;fill:none;fill-opacity:1;stroke:#999999;stroke-width:1.32292;stroke-linecap:round;stroke-linejoin:bevel;stroke-miterlimit:4;stroke-dasharray:none;stroke-dashoffset:0;stroke-opacity:1;stop-color:#000000"
         d="m 396.23064,421.72523 c -2.67219,-1.92444 -4.84226,-1.54846 -6.84806,0.72102 m 0.009,0.43246 c -2.11903,-1.42777 -6.08723,-1.42182 -8.21275,0.93092 m -0.004,-1.24055 c -1.47198,-0.22841 -6.13502,-0.86397 -7.60611,1.2091 m 12.05135,-5.15579 c 0.0591,0.78712 -0.68617,3.17008 0.65032,3.0827 l 3.29467,-0.21539 c 1.69835,-0.48465 1.59611,0.15978 1.33285,-2.67506 m -11.0739,-0.62957 c 0.0741,0.76115 -0.76627,4.06027 0.90904,3.9604 l 2.82611,-0.16846 c 1.82491,0.10822 1.69783,-0.13558 1.6366,-3.38445 m -9.61615,0.41993 c 0.0591,0.78712 -0.33586,3.79537 0.97507,3.52096 0.63085,-0.13205 0.98081,-0.28255 1.96059,-0.19955 1.4546,0.11191 1.19078,-0.47886 1.14197,-3.83856"
         sodipodi:nodetypes="cccccccscccscccscc" />
      <path
         id="path295891-72-6"
         style="font-variation-settings:normal;display:inline;fill:none;fill-opacity:1;stroke:#999999;stroke-width:2.11667;stroke-linecap:round;stroke-linejoin:round;stroke-miterlimit:4;stroke-dasharray:none;stroke-dashoffset:0;stroke-opacity:1;stop-color:#000000"
         d="m 374.45521,441.86519 c 6.90117,-2.30346 9.40377,5.46069 8.65204,5.25503 4.53721,-3.50093 10.16231,-0.56304 10.89906,0.83652 3.44966,-3.19502 7.04069,-1.81969 7.53198,-1.17964 m -0.93657,-40.92904 c 2.16405,-0.30535 3.0557,0.23679 4.80815,2.44447 m -27.21918,20.82415 c -2.31673,0.15001 -6.60504,-0.53534 -7.26694,-2.97494 -1.28698,-4.74351 3.15368,-5.6166 3.99593,-4.6978 m 4.82047,-13.76431 c 0.36621,4.45999 -0.30525,7.37309 1.92418,9.22236 14.1945,6.61428 20.85504,-3.9809 20.9487,-9.54834 m -28.31403,-2.4495 c -1.87378,-1.18431 -4.42652,-2.05261 -4.56918,-4.04266 l 9.91365,6.74321 c 4.90907,-2.78444 11.03377,-4.85895 15.83641,-8.30495 -2.1874,3.34809 -4.75881,3.981 -7.28907,4.90487 m -6.14804,-18.1102 c -1.77053,5.61042 -14.71482,8.31399 -15.43318,13.28093 -0.76577,6.67617 -1.37741,16.57437 3.38276,17.9921 5.92543,2.93302 10.79708,-0.22647 11.19613,-0.66643" />
    </g>
  </g>
</svg>
