<?xml version="1.0" encoding="UTF-8" standalone="no"?>
<svg
   inkscape:version="1.1.1 (3bf5ae0, 2021-09-20)"
   id="svg8"
   version="1.1"
   viewBox="0 0 97.895831 79.375004"
   height="300"
   width="370"
   xmlns:inkscape="http://www.inkscape.org/namespaces/inkscape"
   xmlns:sodipodi="http://sodipodi.sourceforge.net/DTD/sodipodi-0.dtd"
   xmlns="http://www.w3.org/2000/svg"
   xmlns:svg="http://www.w3.org/2000/svg"
   xmlns:rdf="http://www.w3.org/1999/02/22-rdf-syntax-ns#"
   xmlns:cc="http://creativecommons.org/ns#"
   xmlns:dc="http://purl.org/dc/elements/1.1/">
  <defs
     id="defs2" />
  <sodipodi:namedview
     borderlayer="true"
     units="px"
     showgrid="false"
     inkscape:document-rotation="0"
     inkscape:current-layer="layer1"
     inkscape:document-units="px"
     inkscape:cy="121.72338"
     inkscape:cx="267.69042"
     inkscape:zoom="0.98994949"
     inkscape:pageshadow="2"
     inkscape:pageopacity="0"
     borderopacity="1.0"
     bordercolor="#666666"
     pagecolor="#585858"
     id="base"
     inkscape:pagecheckerboard="1"
     inkscape:snap-global="false"
     fit-margin-top="0"
     fit-margin-left="0"
     fit-margin-right="0"
     fit-margin-bottom="0"
     inkscape:window-width="1280"
     inkscape:window-height="967"
     inkscape:window-x="0"
     inkscape:window-y="1"
     inkscape:window-maximized="1"
     height="350px" />
  <metadata
     id="metadata5">
    <rdf:RDF>
      <cc:Work
         rdf:about="">
        <dc:format>image/svg+xml</dc:format>
        <dc:type
           rdf:resource="http://purl.org/dc/dcmitype/StillImage" />
      </cc:Work>
    </rdf:RDF>
  </metadata>
  <g
     id="layer1"
     inkscape:groupmode="layer"
     inkscape:label="Layer 1"
     transform="translate(-94.52741,-158.56634)">
    <g
       id="g300784"
       transform="translate(-516.25416,-489.89152)"
       inkscape:label="boca2"
       style="display:inline">
      <path
         id="path414317"
         style="opacity:1;vector-effect:none;fill:#ffffff;fill-opacity:1;stroke:none;stroke-width:0.500001;stroke-linecap:butt;stroke-linejoin:miter;stroke-miterlimit:4;stroke-dasharray:none;stroke-dashoffset:0;stroke-opacity:1"
         d="m 415.91211,444.2207 c -10.31547,0.80145 -39.80644,22.83882 -44.93359,30.79688 -16.76421,26.02068 -9.94213,25.05411 -11.50391,33.15039 6.47138,18.66179 -6.66619,42.79134 33.87695,47.32617 13.57838,6.87313 9.14803,28.14648 6.82423,30.5209 -5.01982,4.94717 -17.1151,6.08928 -9.94337,17.15098 C 502.66747,657.46332 546.6926,556.17693 525.40625,493.92188 509.95569,454.30109 450.3338,441.59262 415.91211,444.2207 Z"
         sodipodi:nodetypes="cccccccc"
         transform="matrix(0.26458333,0,0,0.26458333,542.10484,542.31629)" />
      <path
         style="opacity:1;vector-effect:none;fill:#a37070;fill-opacity:1;stroke:none;stroke-width:0.132292;stroke-linecap:butt;stroke-linejoin:miter;stroke-miterlimit:4;stroke-dasharray:none;stroke-dashoffset:0;stroke-opacity:1"
         d="m 674.05284,685.88633 c 0.34966,0.75299 -2.75029,9.0746 -3.69533,8.52527 l -0.01,-6.51037 z"
         id="path421838"
         sodipodi:nodetypes="cccc" />
      <path
         style="opacity:1;vector-effect:none;fill:#fffff2;fill-opacity:1;stroke:none;stroke-width:0.132292;stroke-linecap:butt;stroke-linejoin:miter;stroke-miterlimit:4;stroke-dasharray:none;stroke-dashoffset:0;stroke-opacity:1"
         d="m 647.04665,690.14179 1.09746,4.24025 -0.85293,3.99805 c 8.14252,1.20292 18.0557,0.0468 22.40332,-2.64549 l 0.131,-8.11163 c -6.74718,3.48236 -12.03516,2.36921 -17.13727,0.67069 -1.94433,1.12325 -3.8442,1.89304 -5.64158,1.84813 z"
         id="path13904"
         sodipodi:nodetypes="ccccccc" />
      <path
         id="path234945"
         style="font-variation-settings:normal;opacity:1;vector-effect:none;fill:none;fill-opacity:1;stroke:#999999;stroke-width:2.11667;stroke-linecap:round;stroke-linejoin:round;stroke-miterlimit:4;stroke-dasharray:none;stroke-dashoffset:0;stroke-opacity:1;-inkscape-stroke:none;stop-color:#000000;stop-opacity:1"
         d="m 669.81271,694.57798 c -0.39867,-2.30092 -0.8683,-2.78249 0.29543,-6.1552 m -22.71529,8.94204 1.13124,-3.04857 -1.09008,-4.72992 m 1.04819,4.09951 c 5.34987,0.61283 13.52463,0.60129 19.69782,-1.54603 m 6.99076,-7.98038 c -1.50232,6.5121 -3.25004,9.9286 -4.7281,11.01913 -4.11716,3.03765 -14.70538,3.54765 -23.4524,2.8447 -4.49142,-0.36095 -3.3186,6.20933 4.96871,6.49763 m -0.87455,-25.86337 c 0.36621,4.45999 -0.30525,7.37309 1.92418,9.22236 12.97316,5.90546 25.79369,-5.10055 26.57659,-11.17386 m -33.94192,-0.82398 c -1.87378,-1.18431 -4.42652,-2.05261 -4.56918,-4.04266 l 9.91365,6.74321 c 4.90907,-2.78444 11.03377,-4.85895 15.83641,-8.30495 -2.1874,3.34809 -4.75881,3.981 -7.28907,4.90487 m -6.93066,-17.8789 c -2.09762,5.5748 -13.92287,8.90093 -14.65056,13.04963 -0.76577,6.67617 -1.37741,16.57437 3.38276,17.9921 5.92543,2.93302 10.79708,-0.22647 11.19613,-0.66643 m 24.68962,-12.11081 c 2.16405,-0.30535 3.0557,0.23679 4.80815,2.44447 M 647.965,714.71032 c 5.77324,-2.62778 7.89559,4.50431 7.22113,4.2754 5.10078,-5.22834 12.51763,-3.48813 13.12827,-1.9831 -0.14289,-5.42137 6.52332,-7.39774 7.51062,-6.64772" />
    </g>
  </g>
</svg>
