<?xml version="1.0" encoding="UTF-8" standalone="no"?>
<svg
   inkscape:version="1.1.1 (3bf5ae0, 2021-09-20)"
   id="svg8"
   version="1.1"
   viewBox="0 0 97.895831 79.375004"
   height="300"
   width="370"
   xmlns:inkscape="http://www.inkscape.org/namespaces/inkscape"
   xmlns:sodipodi="http://sodipodi.sourceforge.net/DTD/sodipodi-0.dtd"
   xmlns:xlink="http://www.w3.org/1999/xlink"
   xmlns="http://www.w3.org/2000/svg"
   xmlns:svg="http://www.w3.org/2000/svg"
   xmlns:rdf="http://www.w3.org/1999/02/22-rdf-syntax-ns#"
   xmlns:cc="http://creativecommons.org/ns#"
   xmlns:dc="http://purl.org/dc/elements/1.1/">
  <defs
     id="defs2">
    <linearGradient
       inkscape:collect="always"
       xlink:href="#linearGradient976767"
       id="linearGradient622472"
       gradientUnits="userSpaceOnUse"
       gradientTransform="matrix(-0.40393316,0.07350973,0.07350973,0.40393316,667.79321,-155.98204)"
       x1="1580.7161"
       y1="511.56714"
       x2="1590.1422"
       y2="515.58392" />
    <linearGradient
       inkscape:collect="always"
       id="linearGradient976767">
      <stop
         style="stop-color:#4d4d4d;stop-opacity:1;"
         offset="0"
         id="stop976763" />
      <stop
         style="stop-color:#9f9f9f;stop-opacity:1"
         offset="1"
         id="stop976765" />
    </linearGradient>
  </defs>
  <sodipodi:namedview
     borderlayer="true"
     units="px"
     showgrid="false"
     inkscape:document-rotation="0"
     inkscape:current-layer="layer1"
     inkscape:document-units="px"
     inkscape:cy="121.72338"
     inkscape:cx="267.69042"
     inkscape:zoom="0.98994949"
     inkscape:pageshadow="2"
     inkscape:pageopacity="0"
     borderopacity="1.0"
     bordercolor="#666666"
     pagecolor="#585858"
     id="base"
     inkscape:pagecheckerboard="1"
     inkscape:snap-global="false"
     fit-margin-top="0"
     fit-margin-left="0"
     fit-margin-right="0"
     fit-margin-bottom="0"
     inkscape:window-width="1280"
     inkscape:window-height="967"
     inkscape:window-x="0"
     inkscape:window-y="1"
     inkscape:window-maximized="1"
     height="350px" />
  <metadata
     id="metadata5">
    <rdf:RDF>
      <cc:Work
         rdf:about="">
        <dc:format>image/svg+xml</dc:format>
        <dc:type
           rdf:resource="http://purl.org/dc/dcmitype/StillImage" />
      </cc:Work>
    </rdf:RDF>
  </metadata>
  <g
     id="layer1"
     inkscape:groupmode="layer"
     inkscape:label="Layer 1"
     transform="translate(-94.52741,-158.56634)">
    <g
       id="g7939"
       inkscape:label="boca8"
       style="display:inline"
       transform="translate(42.238591,51.87167)">
      <path
         style="opacity:1;vector-effect:none;fill:#ffffff;fill-opacity:1;stroke:none;stroke-width:0.132292;stroke-linecap:butt;stroke-linejoin:miter;stroke-miterlimit:4;stroke-dasharray:none;stroke-dashoffset:0;stroke-opacity:1"
         d="m 137.56526,132.98973 c -1.27622,-3.32501 -5.41377,-10.58162 -8.82831,-12.52463 -7.33088,-4.17157 -17.53101,-2.50597 -19.15797,-1.75731 -2.05628,0.94622 -12.378333,6.54854 -13.078195,8.30327 -0.69986,1.75471 -1.15271,19.30194 4.227985,19.72349 5.38069,0.42156 3.84923,0.35833 3.84923,0.35833 l 1.4944,14.05359 3.06704,2.37651 c 0,0 -1.58559,3.33231 0.32111,4.41053 1.81192,1.02462 17.66505,6.75206 25.36055,-10.45611 6.90506,-15.44062 2.48597,-23.21997 2.74416,-24.48767 z"
         id="path92560"
         sodipodi:nodetypes="csssscccssc" />
      <path
         style="font-variation-settings:normal;vector-effect:none;fill:#a37070;fill-opacity:1;stroke:none;stroke-width:0.408429;stroke-linecap:butt;stroke-linejoin:miter;stroke-miterlimit:4;stroke-dasharray:none;stroke-dashoffset:0;stroke-opacity:1;-inkscape-stroke:none;stop-color:#000000"
         d="m 127.74056,152.8145 c 1.21457,-2.0849 5.11743,-9.48635 5.64371,-11.20219 0.52624,-1.71588 -6.85,4.61478 -8.21716,4.74768 -1.76126,1.50426 1.33869,8.41415 2.57345,6.45451 z"
         id="path621340"
         sodipodi:nodetypes="cscc" />
      <path
         style="font-variation-settings:normal;vector-effect:none;fill:none;fill-opacity:1;stroke:#999999;stroke-width:1.63371;stroke-linecap:round;stroke-linejoin:round;stroke-miterlimit:4;stroke-dasharray:none;stroke-dashoffset:0;stroke-opacity:1;-inkscape-stroke:none;stop-color:#000000"
         d="m 111.74528,157.47413 c -4.26789,-0.79697 -9.34302,3.0818 -2.88695,5.63254 1.48399,0.55392 -1.35438,2.6166 1.23163,4.90648"
         id="path621342"
         sodipodi:nodetypes="ccc" />
      <path
         id="path621344"
         style="display:inline;vector-effect:none;fill:url(#linearGradient622472);fill-opacity:1;stroke:#4d4d4d;stroke-width:0.216095;stroke-linecap:butt;stroke-linejoin:miter;stroke-miterlimit:4;stroke-dasharray:none;stroke-dashoffset:0;stroke-opacity:1"
         d="m 65.414478,158.82585 c 0.391599,-0.0781 0.813504,0.1776 1.092304,1.25039 0.52429,0.32634 -0.03086,7.37581 2.240167,8.99974 0.331987,-0.37028 0.334026,2.94709 -1.867734,1.09057 -0.195345,0.67035 -0.804497,1.27493 -2.218991,-0.025 -1.601508,-1.42441 -2.115841,-9.74533 -2.115841,-9.74533 0.06236,-0.28709 1.232379,-1.77472 1.905665,-0.23271 -0.02007,-0.25251 -0.02934,-0.39891 -0.02934,-0.39891 0.03708,-0.18365 0.490449,-0.83808 0.993836,-0.93889 z" />
      <path
         style="display:inline;fill:#4c3321;fill-opacity:1;stroke:#3c281a;stroke-width:1.2317;stroke-linecap:butt;stroke-linejoin:miter;stroke-miterlimit:4;stroke-dasharray:none;stroke-dashoffset:0;stroke-opacity:1"
         d="m 111.39526,150.96663 c -14.783301,0.48568 -30.610544,4.15181 -44.385701,7.67935 -1.941943,4.82667 0.343968,7.9837 2.489327,10.99791 16.744725,-4.07128 35.725794,-8.83665 46.879844,-15.2435 l -0.19049,-2.5655 z"
         id="path621346"
         sodipodi:nodetypes="cccccc" />
      <path
         style="display:inline;vector-effect:none;fill:#3c281a;fill-opacity:1;stroke:none;stroke-width:0.205285;stroke-linecap:butt;stroke-linejoin:miter;stroke-miterlimit:4;stroke-dasharray:none;stroke-dashoffset:0;stroke-opacity:1"
         d="m 104.29166,151.83972 c 0,0 3.6349,0.3387 0.007,4.19789 -3.62829,3.85922 -36.108678,11.07879 -36.108678,11.07879 l 1.515117,2.7073 c 0,0 33.178011,-8.92838 35.349041,-10.23997 2.17101,-1.31156 7.0394,-2.53684 7.49,-2.74661 0.45063,-0.20991 4.17625,-3.49628 4.46625,-3.94563 0.29,-0.44933 -1.59314,-2.13348 -3.47609,-2.34161 -1.88302,-0.20807 -7.03126,0.16051 -7.9138,0.28577 -0.88252,0.1255 -1.32849,1.00407 -1.32849,1.00407 z"
         id="path621352"
         sodipodi:nodetypes="csccsssssc" />
      <path
         id="path621348"
         style="font-variation-settings:normal;display:inline;opacity:1;vector-effect:none;fill:#fffff2;fill-opacity:1;stroke:none;stroke-width:0.500001;stroke-linecap:butt;stroke-linejoin:miter;stroke-miterlimit:4;stroke-dasharray:none;stroke-dashoffset:0;stroke-opacity:1;-inkscape-stroke:none;stop-color:#000000;stop-opacity:1"
         d="m 416.88281,546.31055 c 0,0 -10.47715,6.86479 -13.08593,8.66797 -2.60867,1.80325 -14.8794,5.56455 -15.13868,6.44726 -0.26154,0.88256 -0.78927,6.95379 0.0781,8.04297 0.86748,1.08839 6.58259,0.79964 12.02148,0.14453 5.43916,-0.65393 6.44141,-2.39648 6.44141,-2.39648 0,0 3.24789,0.72864 8.57226,2.18164 5.32441,1.45307 12.48438,-1.36914 12.48438,-1.36914 0,0 4.6706,2.74011 7.97852,4.81836 3.92757,2.46761 36.20162,-4.31748 35.79101,-9.75391 l -0.63477,-10.54883 c -0.0218,0.004 -33.55104,6.28431 -38.86718,5.31446 -5.31761,-0.97021 -15.64063,-11.54883 -15.64063,-11.54883 z m 57.25977,25.43554 c 0,0 -23.76968,1.70824 -27.2832,3.41602 -3.51345,1.70789 -17.75196,6.87109 -17.75196,6.87109 l -1.5293,13.31641 c 6.37958,3.00865 54.16646,-8.74306 53.24415,-12.09766 l -0.002,0.002 z"
         transform="scale(0.26458333)" />
      <path
         id="path621372"
         style="font-variation-settings:normal;display:inline;fill:none;fill-opacity:1;stroke:#999999;stroke-width:1.48996;stroke-linecap:round;stroke-linejoin:round;stroke-miterlimit:4;stroke-dasharray:none;stroke-dashoffset:0;stroke-opacity:1;stop-color:#000000"
         d="m 122.21061,152.09491 c 1.60421,-1.79358 3.80182,-1.32681 4.11936,-0.4481 0.26031,0.72052 0.71178,2.00484 0.65718,1.97861 m -13.89151,3.40689 c 0.0979,-0.66217 -0.22601,-2.23773 -0.0279,-2.40881 1.57853,-1.36418 4.71738,-1.74346 4.82604,-1.26641 0.11665,0.51211 0.48457,3.17157 0.48457,3.17157 m 1.24785,-8.8047 c 0.24411,0.62325 0.037,2.5704 0.27101,2.68796 1.95348,0.9821 5.04719,-0.48267 5.1642,-1.24959 0.11549,-0.75732 -0.0958,-2.9374 -0.14312,-2.89957 m -22.25953,1.84087 c 0.24412,0.62326 0.12181,1.88088 0.36624,1.97598 1.46454,0.57372 4.17387,0.70385 4.76472,0.0628 0.35599,-0.38615 0.0722,-3.71052 0.0722,-3.71052 m 0.43529,3.52454 c 0.75016,1.20393 4.65486,0.6807 5.03908,0.1533 m 0.40679,-2.79834 c 0.24411,0.62325 -0.0647,3.83691 0.16681,3.95922 1.8447,0.97459 5.67256,0.40314 5.67126,-0.0861 -10e-4,-0.5252 -0.16845,-3.43821 -0.16845,-3.43821 m -7.11026,9.85998 c 2.80141,0.57157 8.06137,0.45588 13.11853,-2.50574 5.81729,-3.40662 7.88657,-13.65625 7.97498,-16.20017 M 118.58,152.64987 c 1.6829,-1.3959 3.64724,-0.48757 3.93359,0.23341 0.28271,0.71203 0.73267,2.70605 0.67804,2.67978" />
      <path
         id="path621380"
         style="font-variation-settings:normal;vector-effect:none;fill:none;fill-opacity:1;stroke:#999999;stroke-width:2.21653;stroke-linecap:round;stroke-linejoin:round;stroke-miterlimit:4;stroke-dasharray:none;stroke-dashoffset:0;stroke-opacity:1;-inkscape-stroke:none;stop-color:#000000"
         d="m 103.98051,170.59454 c 6.87709,-2.29543 9.37096,5.44163 8.62185,5.23668 4.52137,-3.4887 10.12685,-0.56106 10.86103,0.83361 3.43762,-3.18387 7.01612,-1.81334 7.5057,-1.17552 m -21.12005,-59.38973 c -2.19936,4.55982 -11.957553,7.53835 -13.969071,11.88051 -0.763098,6.65287 -1.372605,16.51654 3.370954,17.92933 5.904757,2.92277 10.759397,-0.22569 11.157057,-0.66412 m -1.37823,-8.4177 c -0.0455,0.73558 -1.03811,9.76692 5.90773,10.69722 11.21547,1.50215 19.66514,-8.09716 21.17535,-13.48245 m -1.97462,-1.79419 c 2.15649,-0.30428 3.04504,0.23596 4.79138,2.43594 m -35.38705,-1.19452 c -1.86724,-1.18018 -4.411062,-2.04545 -4.553227,-4.02855 l 9.879047,6.71968 c 4.89194,-2.77472 10.99528,-4.842 15.78116,-8.27597 -2.17977,3.33641 -4.74221,3.96711 -7.26364,4.88775" />
    </g>
  </g>
</svg>
