<svg xmlns="http://www.w3.org/2000/svg" viewBox="0 0 270.933 270.933" height="1024" width="1024" xmlns:v="https://vecta.io/nano"><style><![CDATA[.B{stroke-linecap:round}.C{stroke-linejoin:round}.D{stroke:#4b4633}.E{fill:none}.F{stroke-width:1.053}.G{stroke:#f9cf6e}.H{fill:#fff}.I{stroke-width:1.579}.J{stroke-width:.96}.K{fill:#4b4633}.L{stroke-width:1.44}.M{stroke-width:.526}]]></style><circle cx="135.467" cy="135.467" r="83.386" fill="#424991" paint-order="stroke fill markers"/><circle cx="135.467" cy="135.467" r="74.667" fill="#071051" paint-order="stroke fill markers"/><path d="M146.012 105.889s-.005 2.583 3.288 4.324 8.887 3.945 8.887 3.945 1.528 1.706.967 3.517-.279 2.493-.279 2.493 1.382 5.018.241 6.423-3.445 2.145-3.445 2.145l-3.315-1.349-.059 2.072.449 2.002c-.163-.728 2.826 1.809 2.805 2.088 0 0 2.338 5.155 2.105 5.706s-16.088 5.31-23.359.073-7.408-15.716-6.696-18.541 4.711-11.374 5.975-12.873 12.437-2.027 12.437-2.027z" fill="#f3e8cc"/><path d="M98.991 200.745l.886.495 1.598.843 1.621.806 1.643.767 1.665.729 1.685.688 1.706.649 1.725.607 1.744.566 1.763.525 1.781.482 1.798.439 1.814.395 1.831.35 1.846.306 1.861.26 1.876.214 1.889.168 1.902.12 1.915.073 1.928.024 1.927-.024 1.915-.073 1.903-.12 1.889-.168 1.875-.214 1.861-.26 1.846-.306 1.83-.35 1.815-.395 1.798-.439 1.78-.482 1.763-.525 1.745-.566 1.725-.607 1.705-.649 1.385-.566-.352-4.556-1.591-4.891.444-5.645-1.702-2.285-1.174-2.381.963-4.599-1.078-4.488s2.964-4.677.35-9.548c.035-4.61.99-4.788-.34-6.174-.735-1.328.848-5.89.848-5.89l-.077-5.905.658-3.16c.224-.778-.394-3.206-.394-3.206l.481-3.231.186-11.042.075-.153-.059-.757.01-.588-.027.025c-.006-.723.051-1.591.301-2.192.503-1.21-.297-4.042-.297-4.042s.135-1.202.497-1.733-.579-4.466-.308-6.526-1.201-8.982-.861-10.032-1.018-6.49-1.018-6.49l1.763-3.833c.094-.524 2.592-.468 2.054-1.527-.981-1.93.753-2.262.212-4.295-.068-1.715-.85-3.476-2.321-4.42-.129-1.684 1.18-3.435-.071-5.152-.683-2.608-4.409-2.459-4.056-5.489-.144-2.561-2.28-3.717-4.821-3.917-1.764-1.046-2.663-2.489-5.138-2.48l-4.667-.483h0c-3.264-3.078-4.741-2.21-11.124-1.454-2.11.172-3.177-.592-4.641-.396-.909.023-2.685.486-3.541 1.042l-6.588 2.865-5.375-6.918c-1.359-.63-2.946-2.602-3.199 3.294-1.301 2.322-1.002 8.197-.737 10.267l-1.947 2.94-.537 3.097-1.769 1.816-.413 2.694-1.231 1.744-.561 3.312 1.124 2.95-.173 4.382 1.698 1.816-.781 8.594 1.025 2.689s-.419 2.287-.274 3.474-.496 7.369-.496 7.369l-.226 5.198s.374 3.497.395 4.325.605 8.978.605 8.978l.837 3.096-.669 5.249.818 3.454-.543 4.7 1.327 3.612-.705 5.048.723 4.041.634 2.55-.326 4.366 1.29 2.987s-1.83 4.066-1.553 4.886.617 6.171.617 6.171c-2.499 2.467-1.804 1.572-1.456 3.5l1.018 2.359-3.628 1.209-.351 2.278-2.709 1.465zm45.689-93.516c.559.966 1.457 3.114 3.172 2.816l-.175-1.124a5.6 5.6 0 0 0 2.635 1.958c1.591.553 7.111 3.009 8.421 4.396s-.047 3.576-.047 3.576.059.838.444 2.277.334 3.901-.169 5.615-3.228 1.869-3.228 1.869l-.096 1.155-.967.483-2.399.16.298 1.427 1.468-.296 1.197.604-.272 1.438 1.201 2.66-1.461-.555-.556 2.662-.957-2.893-2.06 3.169-.677-3.53-2.977 3.707-.191-3.092-3.802 3.263-.246-2.496-3.652 1.389 1.034-2.669-3.739 1.005.706-3.232-4.831-.234 2.642-2.883-3.009-1.027 1.767-1.352-3.51-2.573 2.273-.601-1.828-2.522c1.28-1.98 4.818-2.5 1.969-5.832l2.426 1.427c-.951-1.553-2.126-3.102-3.057-3.798l2.748.617-.794-2.157 2.565.997-1.298-2.092 2.201.597-1.146-2.2 1.781.704 2.944 1.495-1.706-3.184 2.517 1.223-.02-2.236 2.438 2.348z" fill="#fff0be"/><g fill="#ffe99f"><path d="M128.82 123.927c.152-.031.478.18 1.055.729l-.917.406c-.217-.626-.331-1.096-.138-1.135zm-18.515-40.035c.671 1.809 1.468 5.181.812 6.596-.298.643-.344 2.354-1.184 1.674-.921-.745.54-2.549-.418-4.634-.213-.463.877-2.487.79-3.636z"/><path d="M110.066 83.301c.149.142.22.347.238.592l-.238-.592zm47.28 19.927l-6.714 3.423c-2.018 1.029.187 3.886-1.642 2.611-.512-.357-1.207-.187-1.702-.707-.548-.575-.359-1.988-1.144-2.409-.274-.147-.191 1.339-.204 1.333-.935-.413-1.443-2.016-1.63-1.753-.136.192-.243 1.664-.362 1.67-.776.036-1.47-1.824-2.424-1.57-.921.245-.037 1.874-.587 2.126-.16.073-2.163-.904-2.675-.88-.7.032.288 1.965-.506 1.506-1.2-.693-23.083 2.734-23.566 1.53-.092-.228 2.699-1.209 2.263-2.767-.381-1.359-1.481-3.051-.509-3.712 1.987-1.35-.916-5.963-.591-5.352.576 1.084 8.508-.638 8.134-1.46-.316-.693 5.768-.501 6.471-.192 1.626.715 5.966 2.323 7.578 1.673 3.205-1.292 1.904.102 4.874.444.496.057 2.729-.369 2.833-.319.823.394.81 1.524 2.111 1.618.662.048 2.574-.546 2.614-.474 3.373 6.039 7.246-1.839 7.624-2.698 1.561 1.501.478 4.849-.246 6.36zM110.091 62.04l3.904 7.991-.955-3.974c2.049.903 4.207 3.872 6.459 3.759 0 0 1.436-.396 2.95 1.231.724.778 1.386 1.366 1.891 1.78-.092-.204-.199-.497-.503-.827-.52-.565-1.344-1.253-1.599-1.991.268.084.538.237.829.238.643.001 1.187-.811 1.202-.797.607.531.55 1.006 1.538.919.177-.016 1.384-.56 1.441-.527.489.282-.034 1.462-.246 1.727-.524.654-.982 1.068-1.757 1.389-.242.1-.41.151-.531.16l.538.404-4.067 5.17s-.762.709-2.838 2.171-4.232 4.877-4.232 4.877l-2.446 1.91c.308-3.545.96-5.705.886-6.167s-2.361-8.863-2.361-8.863l-.558-6.376c-.168-1.664.458-4.204.458-4.204z"/><path d="M99.118 200.816l.758.424 1.598.843 1.621.806 1.643.767 1.665.729 1.685.688 1.533.583c.178-.999.418-1.988.921-2.931.372-.697 1.269-.876 1.577-1.423.624-1.109.318-2.713.994-3.927.213-.383 1.576-1.336 1.604-1.546.168-1.292-.435-3.205-.411-4.618.016-.959.636-2.22.556-3.092-.097-1.058-1.44-1.843-1.432-3.394.006-1.056.58-2.021.625-3.024.049-1.108-.325-2.22-.24-3.373.1-1.363.666-2.703.721-4.05.03-.733-2.158-4.431-2.33-6.418-.137-1.572.671-2.777.791-4.235.11-1.34-.513-2.699-.342-4.125.142-1.185.893-2.387.914-3.558.022-1.258-.846-2.91-.898-4.358-.075-2.101 2.887-3.334 1.151-4.342-.5-.29-1.801-3.512 1.97-3.583 3.949-.074 7.406-3.135 6.529-2.815-.945.345-6.488.841-6.643-3.17-2.795-2.991-3.237-2.52-2.98-6.126-3.724-3.731-1.716-2.891-1.111-7.552-2.99-1.551-.803-4.23.493-5.888-.71-4.014 1.49-6.206 4.034-6.502 1.235-1.003 1.53-3.074 1.844-4.305.15-1.026-.027-6.253-.027-6.253l-.403-.898.546-.763 2.847-1.685 12.613.471c2.081.427 4.334.583 5.257.196l2.671.1c1.704.571 4.156 1.5 7.042 1.687.618.04 1.629.162 2.103.615 1.07 1.024.987 3.299 3.171 2.752 3.406-.853 2.47-4.102 2.772-6.486-.075-1.224 1.814-7.521.16-4.616.316 2.26-2.068 4.09-2.453 4.921-.075.899.762 3.522-.719 3.851-2.263-.012-2.344-2.825-3.108-3.757l-.823.3c.213-1.572-2.076-1.791-2.594-2.619-.094-.151.044-2.641-.486-3.64-.696-1.312-1.73-2.142-3.224-2.333-.31-.04-.764.04-1.053-.096-.18-.085-.227-.983-.305-1.163-.303-.704-.835-1.285-1.427-1.759-1.429-1.143-2.704-.397-3.405-.807-.157-.092-.879-2.762-1.283-3.284-.732-.947-1.737-1.932-2.977-2.101-.277-.038-.787.077-1.032-.075-.437-.271-.751-2.072-1.037-2.538-1.046-1.706-2.992-2.75-4.938-2.752-.884-.001-1.768.214-2.567.679 0 0-2.646 3.982-5.286 5.706s-3.389 5.179-3.389 5.179-4.268-8.217-5.166-5.229c-1.198 1.397-4.203 2.662-3.178 6.203 0 0 .608 2.707-1.305 3.788s-.888 5.239-.813 5.889.521 3.318-.275 4.036-1.096 2.956-1.026 4.057 1.523 2.777 1.614 3.441-.31 1.97-.727 2.887-.021 3.79-.187 4.652-.775 2.155-.775 2.155l.839 2.757s-.887 3.695-.716 4.912 1.283 2.477.69 6.11.705 5.068.705 5.068.722 4.01-.165 6.151.962 3.304 1.042 4.638-.706 3.263-1.069 4.324 1.411 3.585 1.919 5.528-1.261 4.433-.454 7.492.812 4.258.176 7.117 1.186 3.948.908 5.74-.261 4.481-.261 4.481.443 3.708-.145 4.926-1.25 3.024-.695 4.159.417 2.162-.428 2.005-2.496.596-2.357 1.697-1.636 2.648-2.341 3.079c-.674.412-1.58 1.362-1.295 2.616z"/></g><path d="M123.213 100.557c2.401 1.201 2.915 1.021 4.999.576 2.643.331 2.504 2.203 5.335 1.559 1.889-.43 2.024-1.213 2.992-.529 4.438 3.136 4.649-.131 6.06.952 2.856 2.81 3.445.653 4.391.535 1.146-.143-1.052-.297 1.676.068 2.591.347 1.86-.54 4.146 1.713 2.031-1.15 2.915-.555 2.637-2.31-.325-2.393 1.599-2.896.178-5.059-2.113.645-.769-.488.432 2.039.274 2.591-2.862 4.612-4.875 2.665-1.601-.977-1.367-3.502-3.554-2.959-1.727-1.602-3.759-1.492-5.952-1.208-2.27-1.014-4.48-.382-6.753.054-2.541.523-4.305-2.563-6.722-1.49-2.212 1.602-4.68-1.691-6.535.769-1.326 1.309-3.668-.818-3.415 1.494.94 1.212 3.137 2.389 4.959 1.131z" fill="#f9cf6e"/><path d="M153.306 66.898s-3.052-1.056-2.2-2.446c.423-.69 3.968-4.767 4.645-7.387.324-1.254 2.621-.404 2.621-.404 3.262-.053.341 14.127 1.002 17.473" fill="#fff0be"/><path d="M148.812 128.25s.192 1.464 1.729 1.942 2.274 1.286 2.274 1.286.445-.756-1.351.611c-1.538 1.171-8.427 1.117-10.028.37-1.409-.657-4.433-5.307-4.837-6.39s4.933 2.725 5.818 2.758 6.396-.576 6.396-.576z" fill="#a37070"/><g class="E B C"><g class="D"><path d="M139.81 113.174c-2.36 2.118-2.284 2.376-1.911 5.242.127.972 2.092 1.709 2.645 2.039" class="F"/><path d="M142.975 119.172c.408-.768 2.147-.823 3.936.067 1.59.79-3.199-.009-3.199-.009 3.14.186 6.812 1.527 7.351 3.334" stroke-width="1.005"/></g><path d="M111.579 88.503c.11-2.381-1.365-7.899-2.138-10.298-.856-4.088-1.851-3.31-1.683-7.734-.498-3.165-.761-6.076.092-8.426.653-1.593.554-4.742 2.732-4.076 1.947.596 2.947 4.201 5.445 7.019 3.609 4.072 5.619 3.68 8.388 8.05" class="F G"/></g><path d="M110.375 62.96c.243.43.884 2.504 1.647 5.745s.483 4.975.483 4.975-.99-2.843-1.435-2.304.638 5.549 2.009 9.005 1.22 5.358 1.22 5.358l1.808-3.335-1.278-7.933c-.492-2.88-1.393-6.154-2.035-7.443s-2.417-4.066-2.417-4.066z" fill="#f9cf6e"/><path d="M114.712 84.625c-2.056-3.287-3.94-9.796-3.868-13.322m-.361-8.676c1.58 2.906 3.108 5.973 3.45 7.661.92 4.553.675 4.557 2.329 12.768" class="B C E F G"/><path d="M154.917 66.216c.037.075 1.476-2.424 1.779-3.513.28-1.005 1.47-2.294 1.521-1.835.585 3.413.756 13.372.696 13.041l-1.86-2.022z" fill="#ffe99f"/><g transform="matrix(-1.216943 .056035 .06517 1.415341 .4121 -38.443924)"><path d="M-116.095 108.443c-1.534 2.268-6.395 2.348-8.937.941-.545-2.08 5.001-9.19 8.938-.941z" class="H"/><ellipse cx="117.629" cy="110.558" rx="3.177" ry="2.957" transform="matrix(-.999728 -.023308 -.02605 .999661 0 0)" paint-order="stroke fill markers" class="K"/><path d="M-118.576 104.845c1.007.687 1.9 2.041 2.469 4.335-2.213.889-6.405 1.569-8.926.204-.461-1.721 1.208-4.092 3.276-4.862" stroke-width=".87" class="D E"/><ellipse cx="116.656" cy="110.553" rx="1.052" ry=".609" transform="matrix(-.999696 -.024641 -.024641 .999696 0 0)" paint-order="stroke fill markers" class="H"/></g><g class="B C E G"><path d="M116.204 98.408c2.493 1.78 6.742-.623 7.09-1.994 2.048 1.651 4.85 1.727 6.5-.472 1.072 1.08 2.487 2.735 4.479 2.67 1.828.636 3.538-.251 5.071-1.292 1.298 1.97 4.014 2.073 5.822.995.802 1.713 2.227 2.415 4.605 1.141.3 1.724 1.708 4.84 4.424 4.024 2.133-.641 1.939-3.333 1.584-5.29.494-1.054 2.91-3.964 1.307-7.085-.976-1.932 2.155-3.509 1.615-5.542-.068-1.715-.548-3.71-2.02-4.654-.129-1.684.623-3.106-.629-4.822m-2.475-3.641c-.235-3.122-2.274-4.038-4.803-4.164-.513-1.117-2.267-4.001-5.506-3.091-.341-.748-1.502-2.326-3.525-2.885m-36.194 68.374c-.485 2.403 1.371 4.952 2.874 5.008-.03 1.994 1.611 4.183 4.524 3.349.154.885 1.937 3.74 4.455 2.354" class="I"/><path d="M128.958 132.199c1.97-1.641 1.831-4.483-.315-6.358 1.081-.724 3.147-3.204.546-3.703 6.069-2.65 4.503-6.559 2.114-6.013" class="L"/></g><g transform="matrix(-1.678931 .077307 .077307 1.678931 -83.5077 -63.432791)"><path d="M-116.095 108.443c-1.534 2.268-6.395 2.348-8.937.941-.545-2.08 5.001-9.19 8.938-.941z" class="H"/><ellipse cx="118.014" cy="110.986" rx="2.966" ry="2.919" transform="matrix(-.999696 -.024641 -.024641 .999696 0 0)" paint-order="stroke fill markers" class="K"/><path d="M-116.095 108.443c-1.534 2.268-6.395 2.348-8.937.941-.059-.224-.047-.508.027-.824.607-2.612 5.399-7.476 8.911-.117z" stroke-width=".87" class="D E"/><ellipse cx="117.02" cy="110.399" rx="1.052" ry=".609" transform="matrix(-.999696 -.024641 -.024641 .999696 0 0)" paint-order="stroke fill markers" class="H"/></g><g class="C E"><g class="G"><path d="M122.087 112.254c-1.939-1.744-5.357-1.798-7.024-1.612m11 2.385c-3.121-1.036-6.037-.673-8.472 1.074m14.167-1.039c-5.831-.53-7.479.368-9.587 2.132" class="B L"/><g stroke-width="1.574"><path d="M103.766 100.396l3.644-27.23c-.718.344-2.98 2.006-2.314 5.413-2.228.978-2.228 2.057-2.101 5.029-3.603 1.463-.9 6.85-.684 6.879.317 1.567-1.212 3.87.524 5.464 1.22.914.868.554.931 4.446z"/><path d="M103.633 101.391c.084-.198.142-.368.14-.483l-.007-.513z"/><path d="M103.036 105.846l.596-4.455c-.437 1.033-1.704 3.03-.596 4.455z"/><path d="M98.684 199.99c.616-.902.974-1.812 3.27-2.568.633-.742.921-1.57.785-2.705-.164-1.364 2.994-.984 3.244-1.074.783-.284-1.409-2.903-.617-4.732.479-1.105 1.32-1.454 1.46-2.646.307-2.617-1.436-5.203-.008-7.776.926-1.669-.346-2.372-.732-4.158-.343-1.586-.174-3.455.248-5.007.114-.418.218-.655.142-1.165-.202-1.645-1.432-3.187-1.646-4.941-.271-2.223.822-3.822.764-5.24-.068-1.621-1.112-3.15-1.218-4.843-.133-2.138.777-4.22.704-6.314-.041-1.159-.974-2.252-.932-3.738.026-.912.608-1.814.571-2.698-.076-1.829-.973-4.728-1.189-6.552-.376-3.184.32-2.951.397-6.109-2.313-2.876-.053-5.076-.319-6.927-1.485-2.31-.05-4.373.101-5.604.264-2.156-.278-3.216.319-4.707.725-1.808-.027-1.858.071-3.813-.49-.237-.443.117-.681-.189" class="B"/></g><path d="M163.57 204.287c.001-.638.557-1.412.542-3.604-.017-2.499-1.804-3.308-1.944-5.598-.074-1.208 1.694-2.104.328-5.914-.573-1.6-2.391-2.981-2.547-4.606-.149-1.555.836-2.004.769-4.224-.05-1.655-1.403-3.938-1.283-5.484.181-2.339 1.266-2.573 1.112-5.044-.111-1.789-.222-2.153-.481-3.823-.357-2.301.592-2.559.293-4.852-.214-1.642-.584-1.765-.783-3.28-.086-.656.791-3.416.896-4.195.208-1.559-.416-2.686-.237-3.59 1.687-4.242.621-7.172.317-8.579 1.666-3.199 1.259-5.071.244-7.675-.504-1.294 2.731-3.389.319-7.828 1.557-3.887.992-4.927.022-6.79 1.57-2.875.631-3.608.013-5.001.483-2.165.655-3.75.089-5.457.744-3.006-.151-4.644-.916-6.39.642-2.009.748-5.076-.375-6.96m-33.352-23.4c-1.038 1.101-.683.697-3.26 2.256-1.13.684-1.758 3.059-2.031 4.227-.509 1.294-1.933 1.4-2.885 2.313-.78.45-3.411 3.312-3.646 5.266-3.242 2.431-2.892 2.297-3.712 5.248" class="I B"/><path d="M150.497 64.782l2.421-3.098c2.141-2.391 2.774-4.605 3.726-5.056 1.171-.554 2.304.683 2.304.683 1.655 2.333.103 10.562.364 16.435" class="B F"/></g><path d="M156.1 113.475l.286.552m-2.629.184l.399.865m-2.92-.679l.347 1.625" class="B D M"/><g class="G B"><path d="M156.853 96.683c2.052-.443 4.693-2.946 4.387-5.023.573-.202 3.441-1.521 2.208-5.202-.038-1.979.174-4.111-2.082-6.057.044-4.208-.381-4.336-1.825-6.28-3.831-5.879-2.383-5.285-6.758-6.893-1.717-1.591-2.493-3.852-9.949-3.099-3.94-3.681-10.704-2.69-11.1-1.561-4.132-2.15-6.927.214-8.34 1.048-.909-.453-5.277-.083-6.084 2.1" class="I"/><path d="M154.964 67.376s1.503-4.933 2.093-5.325" class="F"/><path d="M155.459 111.091c2.107-.55 3.566-.62 5.413.024m-8.555.193c1.701-.127 3.501-.516 5.227 1.024" stroke-width="1.107"/></g><g class="D B"><path d="M147.08 103.569s-1.566 4.828 1.93 6.644 8.629 3.322 9.579 4.737.424 3.386.424 3.386c-.523.922-.937 1.972-2.223 2.414" class="F"/><path d="M157.194 117.996c-.637-.554-2.329 0-3.82 1.303-1.324 1.158 3.37-1.253 3.37-1.253-2.257 1.066-5.302 2.899-5.537 4.482" stroke-width=".981"/><path d="M143.421 114.222l-.04.202m2.522.259l-.318.898m2.744-.718l.064.997" class="M"/></g></g><path d="M141.499 128.265l.055 1.519s5.301 1.124 5.94.936 1.504-.259 1.504-.259 1.247.407 2.139.106l1.437-.458s.188.286 1.121.342 1.908.047 2.045-.147-.015-1.222-.069-1.37-2.18-.663-2.642-.943l-2.315-1.342s-1.65 1.906-2.545 2.125-6.67-.509-6.67-.509z" class="H"/><g class="E B C"><g class="D F"><path d="M158.706 119.485s1.877 4.914.393 7.192c-2.443 3.749-7.559 1.063-8.037-.309m-.039-3.866s1.246 5.308-3.179 6.243c-7.138 1.508-12.523-3.847-12.462-5.688"/><path d="M152.226 130.285c-.076.957.119 1.663.783 1.363 1.484-.67 3.529 1.441.717 3.151-.933.413.493 1.49-1.083 3.062m.028-6.047c-1.099.694-7.121 2.595-11.325.459-3.873-1.968-5.552-6.733-5.707-8.366m.875-1.356c-1.103-.441-2.066.057-2.503 1.05"/></g><path d="M131.588 138.668c3.469-.885 3.826 3.889 3.772 3.118 4.182-1.852 4.085-.23 6.373 1.256-.513.488 4.842-4.116 8.425.53-.035-1.036 2.186-5.421 5.441-3.096" class="G I"/><path d="M148.605 128.561c-.133.41.157 1.784.013 1.871-1.149.698-3.634.478-3.652.163-.019-.338.008-1.536.008-1.536" class="D J"/></g><path d="M152.21 130.053c-.436.803-2.968.617-3.236.292" class="B C D H J"/><path d="M155.765 128.645c-.133.41-.006 1.215-.159 1.285-.92.425-2.658.613-3.063.224-.244-.235-.189-2.384-.189-2.384" class="B C D E J"/><path d="M149.976 127.978c.548-.406 1.093-.661 2.246-.034l-1.226-1.686z" class="K"/><path d="M144.836 129.053c-.133.41.108 1.237-.038 1.321-1.219.707-3.265-.116-3.37-.605-.103-.483-.084-1.475-.052-1.453" class="B C D E J"/></svg>