<?xml version="1.0" encoding="utf-8"?>
<!-- Generator: Adobe Illustrator 25.3.1, SVG Export Plug-In . SVG Version: 6.00 Build 0)  -->
<svg version="1.1"
	 id="svg8" inkscape:version="1.1.1 (3bf5ae0, 2021-09-20)" xmlns:cc="http://creativecommons.org/ns#" xmlns:dc="http://purl.org/dc/elements/1.1/" xmlns:inkscape="http://www.inkscape.org/namespaces/inkscape" xmlns:rdf="http://www.w3.org/1999/02/22-rdf-syntax-ns#" xmlns:sodipodi="http://sodipodi.sourceforge.net/DTD/sodipodi-0.dtd" xmlns:svg="http://www.w3.org/2000/svg"
	 xmlns="http://www.w3.org/2000/svg" xmlns:xlink="http://www.w3.org/1999/xlink" x="0px" y="0px" viewBox="0 0 1024 1024"
	 style="enable-background:new 0 0 1024 1024;" xml:space="preserve">
<style type="text/css">
	.st0{fill:#424991;}
	.st1{fill:#071051;}
	.st2{fill:#F3E8CC;}
	.st3{fill:#FFF0BE;}
	.st4{fill:#FFE99F;}
	.st5{fill:#F9CF6E;}
	.st6{fill:#A37070;}
	.st7{fill:none;stroke:#4B4633;stroke-width:3.9792;stroke-linecap:round;stroke-linejoin:round;stroke-miterlimit:15.1181;}
	.st8{fill:none;stroke:#4B4633;stroke-width:3.7996;stroke-linecap:round;stroke-linejoin:round;stroke-miterlimit:15.1181;}
	.st9{fill:none;stroke:#F9CF6E;stroke-width:3.9792;stroke-linecap:round;stroke-linejoin:round;stroke-miterlimit:15.1181;}
	.st10{fill:#FFFFFF;}
	.st11{fill:#4B4633;}
	.st12{fill:none;stroke:#4B4633;stroke-width:0.8703;}
	.st13{fill:none;stroke:#F9CF6E;stroke-width:5.9688;stroke-linecap:round;stroke-linejoin:round;stroke-miterlimit:15.1181;}
	.st14{fill:none;stroke:#F9CF6E;stroke-width:5.4435;stroke-linecap:round;stroke-linejoin:round;stroke-miterlimit:15.1181;}
	.st15{fill:none;stroke:#4B4633;stroke-width:5.5286;stroke-miterlimit:25.4092;}
	.st16{fill:none;stroke:#F9CF6E;stroke-width:5.9502;stroke-linecap:round;stroke-linejoin:round;stroke-miterlimit:15.1181;}
	.st17{fill:none;stroke:#4B4633;stroke-width:1.9896;stroke-linecap:round;stroke-linejoin:round;stroke-miterlimit:15.1181;}
	.st18{fill:none;stroke:#F9CF6E;stroke-width:4.1835;stroke-linecap:round;stroke-linejoin:round;stroke-miterlimit:15.1181;}
	.st19{fill:none;stroke:#4B4633;stroke-width:3.709;stroke-linecap:round;stroke-linejoin:round;stroke-miterlimit:15.1181;}
	.st20{fill:none;stroke:#4B4633;stroke-width:3.629;stroke-linecap:round;stroke-linejoin:round;stroke-miterlimit:15.1181;}
	.st21{fill:#FFFFFF;stroke:#4B4633;stroke-width:3.629;stroke-linecap:round;stroke-linejoin:round;stroke-miterlimit:15.1181;}
</style>
<sodipodi:namedview  bordercolor="#666666" borderlayer="true" borderopacity="1.0" id="base" inkscape:current-layer="layer1" inkscape:cx="602.85714" inkscape:cy="597.85714" inkscape:document-rotation="0" inkscape:document-units="px" inkscape:guide-bbox="true" inkscape:pagecheckerboard="1" inkscape:pageopacity="0" inkscape:pageshadow="2" inkscape:snap-global="false" inkscape:window-height="967" inkscape:window-maximized="1" inkscape:window-width="1280" inkscape:window-x="0" inkscape:window-y="1" inkscape:zoom="0.7" pagecolor="#585858" showgrid="false" showguides="true" units="px">
	<sodipodi:guide  id="guide1250844" orientation="0,-1" position="178.06115,60.704554"></sodipodi:guide>
	<sodipodi:guide  id="guide1250846" orientation="1,0" position="60.826371,51.358056"></sodipodi:guide>
</sodipodi:namedview>
<g id="layer1" inkscape:groupmode="layer" inkscape:label="Layer 1">
	<circle id="circle1248940" class="st0" cx="512" cy="512" r="315.16"/>
	<circle id="circle387154" class="st1" cx="512" cy="512" r="282.2"/>
	<g id="g1249135" transform="translate(0,-2.3603128)">
		<path id="path387176" sodipodi:nodetypes="cscscscccscsssscc" class="st2" d="M551.86,402.57c0,0-0.02,9.76,12.43,16.34
			c12.45,6.58,33.59,14.91,33.59,14.91s5.78,6.45,3.65,13.29c-2.12,6.85-1.05,9.42-1.05,9.42s5.22,18.97,0.91,24.28
			c-4.31,5.31-13.02,8.11-13.02,8.11l-12.53-5.1l-0.22,7.83l1.7,7.57c-0.62-2.75,10.68,6.84,10.6,7.89c0,0,8.84,19.48,7.96,21.57
			c-0.88,2.08-60.81,20.07-88.29,0.28c-27.48-19.79-28-59.4-25.31-70.08c2.69-10.68,17.8-42.99,22.58-48.65
			C509.63,404.57,551.86,402.57,551.86,402.57L551.86,402.57z"/>
		<path id="path387178" class="st3" d="M374.14,761.08c1.11,0.63,2.22,1.26,3.35,1.87c2,1.09,4.01,2.15,6.04,3.19
			c2.03,1.04,4.07,2.05,6.13,3.04c2.06,0.99,4.13,1.96,6.21,2.9c2.08,0.94,4.18,1.86,6.29,2.75c2.11,0.89,4.23,1.76,6.37,2.6
			s4.29,1.66,6.45,2.45c2.16,0.79,4.33,1.56,6.52,2.29c2.19,0.74,4.38,1.45,6.59,2.14c2.21,0.69,4.43,1.35,6.66,1.98
			c2.23,0.63,4.48,1.24,6.73,1.82c2.25,0.58,4.52,1.13,6.79,1.66s4.56,1.02,6.86,1.49c2.3,0.47,4.6,0.91,6.92,1.32
			c2.32,0.41,4.64,0.8,6.98,1.16c2.34,0.36,4.68,0.69,7.03,0.98c2.35,0.3,4.72,0.57,7.09,0.81c2.37,0.24,4.75,0.45,7.14,0.63
			c2.39,0.18,4.78,0.33,7.19,0.46c2.4,0.12,4.82,0.21,7.24,0.28c2.42,0.06,4.85,0.09,7.29,0.09c2.44,0,4.86-0.03,7.28-0.09
			c2.42-0.06,4.83-0.15,7.24-0.28c2.4-0.12,4.8-0.27,7.19-0.46c2.39-0.18,4.77-0.39,7.14-0.63c2.37-0.24,4.73-0.51,7.09-0.81
			c2.35-0.3,4.7-0.63,7.04-0.98c2.34-0.36,4.66-0.74,6.98-1.16s4.62-0.85,6.92-1.32c2.3-0.47,4.58-0.97,6.86-1.49
			c2.28-0.53,4.54-1.08,6.79-1.66c2.25-0.58,4.5-1.19,6.73-1.82c2.23-0.63,4.45-1.3,6.66-1.98c2.21-0.69,4.41-1.4,6.59-2.14
			c2.19-0.74,4.36-1.5,6.52-2.29s4.31-1.61,6.45-2.45c1.76-0.69,3.5-1.41,5.24-2.14l-1.33-17.22l-6.01-18.48l1.68-21.33l-6.43-8.64
			l-4.44-9l3.64-17.38l-4.08-16.96c0,0,11.2-17.68,1.32-36.09c0.13-17.42,3.74-18.1-1.28-23.34c-2.78-5.02,3.21-22.26,3.21-22.26
			l-0.29-22.32c0,0,1.64-9,2.49-11.94c0.85-2.94-1.49-12.12-1.49-12.12l1.82-12.21l0.7-41.73c0.1-0.21,0.28-0.58,0.28-0.58
			s-0.14-1.17-0.22-2.86l0.04-2.22l-0.1,0.09c-0.02-2.73,0.19-6.01,1.14-8.28c1.9-4.57-1.12-15.28-1.12-15.28s0.51-4.54,1.88-6.55
			c1.37-2.01-2.19-16.88-1.16-24.67c1.02-7.78-4.54-33.95-3.25-37.92c1.29-3.97-3.85-24.53-3.85-24.53L610.5,347
			c0.36-1.98,9.8-1.77,7.76-5.77c-3.71-7.29,2.85-8.55,0.8-16.23c-0.26-6.48-3.21-13.14-8.77-16.71
			c-0.49-6.37,4.46-12.98-0.27-19.47c-2.58-9.86-16.66-9.3-15.33-20.74c-0.55-9.68-8.62-14.05-18.22-14.8
			c-6.67-3.95-10.07-9.41-19.42-9.38c-1.73-0.21-15.92-2.11-17.64-1.83l0,0c-12.33-11.63-17.92-8.35-42.04-5.5
			c-7.98,0.65-12.01-2.24-17.54-1.5c-3.43,0.09-10.15,1.84-13.38,3.94l-24.9,10.83l-20.31-26.15c-5.14-2.38-11.13-9.84-12.09,12.45
			c-4.92,8.77-3.79,30.98-2.79,38.8l-7.36,11.11l-2.03,11.71l-6.69,6.87l-1.56,10.18l-4.65,6.59l-2.12,12.52l4.25,11.15l-0.65,16.56
			l6.42,6.87L389,400.98l3.87,10.16c0,0-1.58,8.65-1.04,13.13c0.54,4.48-1.88,27.85-1.88,27.85l-0.86,19.64
			c0,0,1.42,13.22,1.49,16.35c0.08,3.13,2.29,33.93,2.29,33.93l3.16,11.7l-2.53,19.84l3.09,13.05l-2.05,17.76l5.01,13.65
			l-2.67,19.08l2.73,15.27l2.39,9.64l-1.23,16.5l4.88,11.29c0,0-6.92,15.37-5.87,18.47c1.05,3.1,2.33,23.32,2.33,23.32
			c-9.44,9.32-6.82,5.94-5.5,13.23l3.85,8.92l-13.71,4.57l-1.33,8.61l-10.24,5.54L374.14,761.08z M546.82,407.63
			c2.11,3.65,5.51,11.77,11.99,10.64l-0.66-4.25c2.65,3.65,6.41,6.17,9.96,7.4c6.01,2.09,26.88,11.37,31.83,16.61
			c4.95,5.24-0.18,13.52-0.18,13.52s0.22,3.17,1.68,8.61c1.46,5.44,1.26,14.74-0.64,21.22c-1.9,6.48-12.2,7.06-12.2,7.06l-0.36,4.37
			l-3.65,1.82l-9.07,0.61l1.12,5.39l5.55-1.12l4.52,2.28l-1.03,5.43l4.54,10.05l-5.52-2.1l-2.1,10.06l-3.62-10.94l-7.79,11.98
			l-2.56-13.34l-11.25,14.01l-0.72-11.69l-14.37,12.33l-0.93-9.43l-13.8,5.25l3.91-10.09l-14.13,3.8l2.67-12.22l-18.26-0.88
			l9.98-10.9l-11.37-3.88l6.68-5.11l-13.27-9.72l8.59-2.27l-6.91-9.53c4.84-7.48,18.21-9.45,7.44-22.04l9.17,5.39
			c-3.59-5.87-8.04-11.72-11.55-14.36l10.38,2.33l-3-8.15l9.7,3.77l-4.91-7.91l8.32,2.26l-4.33-8.32l6.73,2.66l11.13,5.65
			l-6.45-12.04l9.51,4.62l-0.08-8.45l9.21,8.88L546.82,407.63z"/>
		<path id="path387180" class="st4" d="M486.88,470.75c0.57-0.12,1.81,0.68,3.99,2.75c-1.5,0.6-2.47,1.07-3.47,1.54
			C486.58,472.67,486.15,470.89,486.88,470.75z"/>
		<path id="path387182" class="st4" d="M416.9,319.43c2.54,6.84,5.55,19.58,3.07,24.93c-1.13,2.43-1.3,8.9-4.47,6.33
			c-3.48-2.82,2.04-9.64-1.58-17.51C413.11,331.43,417.23,323.78,416.9,319.43L416.9,319.43z"/>
		<path id="path387184" class="st4" d="M416,317.2c0.56,0.54,0.83,1.31,0.9,2.24C416.59,318.59,416.29,317.83,416,317.2z"/>
		<path id="path387186" sodipodi:nodetypes="csssscssssssssssssssssscc" class="st4" d="M594.7,392.51l-25.38,12.94
			c-7.63,3.89,0.71,14.69-6.2,9.87c-1.93-1.35-4.56-0.71-6.43-2.67c-2.07-2.17-1.36-7.51-4.33-9.11c-1.03-0.55-0.72,5.06-0.77,5.04
			c-3.53-1.56-5.45-7.62-6.16-6.62c-0.52,0.73-0.92,6.29-1.37,6.31c-2.93,0.13-5.55-6.9-9.16-5.94c-3.48,0.93-0.14,7.08-2.22,8.03
			c-0.6,0.28-8.18-3.42-10.11-3.33c-2.65,0.12,1.09,7.43-1.91,5.69c-4.54-2.62-87.24,10.33-89.07,5.78
			c-0.35-0.86,10.2-4.57,8.55-10.46c-1.44-5.14-5.6-11.53-1.92-14.03c7.51-5.1-3.46-22.54-2.23-20.23
			c2.18,4.1,32.16-2.41,30.74-5.52c-1.19-2.62,21.8-1.89,24.46-0.73c6.15,2.7,22.55,8.78,28.64,6.32c12.11-4.88,7.2,0.39,18.42,1.68
			c1.87,0.22,10.31-1.39,10.71-1.21c3.11,1.49,3.06,5.76,7.98,6.11c2.5,0.18,9.73-2.06,9.88-1.79c12.75,22.83,27.39-6.95,28.82-10.2
			C601.53,374.15,597.43,386.8,594.7,392.51L594.7,392.51z"/>
		<path id="path387188" class="st4" d="M416.09,236.84l14.76,30.2l-3.61-15.02c7.74,3.41,15.9,14.64,24.41,14.21
			c0,0,5.43-1.5,11.15,4.65c2.74,2.94,5.24,5.16,7.15,6.73c-0.35-0.77-0.75-1.88-1.9-3.13c-1.97-2.13-5.08-4.74-6.04-7.53
			c1.01,0.32,2.03,0.9,3.13,0.9c2.43,0.01,4.48-3.06,4.54-3.01c2.29,2.01,2.08,3.8,5.81,3.47c0.67-0.06,5.23-2.12,5.45-1.99
			c1.85,1.07-0.13,5.53-0.93,6.53c-1.98,2.47-3.71,4.04-6.64,5.25c-0.91,0.38-1.55,0.57-2.01,0.6c0.88,0.66,2.03,1.53,2.03,1.53
			l-15.37,19.54c0,0-2.88,2.68-10.73,8.21c-7.85,5.53-16,18.43-16,18.43l-9.24,7.22c1.16-13.4,3.63-21.56,3.35-23.31
			c-0.28-1.75-8.93-33.5-8.93-33.5s-1.48-17.81-2.11-24.1C413.73,246.44,416.09,236.84,416.09,236.84L416.09,236.84z"/>
		<path id="path387190" class="st4" d="M374.62,761.35c0.96,0.53,1.9,1.08,2.87,1.6c2,1.09,4.01,2.15,6.04,3.19
			c2.03,1.04,4.07,2.05,6.13,3.04c2.06,0.99,4.13,1.96,6.21,2.9c2.08,0.94,4.18,1.86,6.29,2.75c2.11,0.89,4.23,1.76,6.37,2.6
			c1.92,0.76,3.85,1.49,5.79,2.2c0.67-3.77,1.58-7.51,3.48-11.08c1.41-2.63,4.8-3.31,5.96-5.38c2.36-4.19,1.2-10.25,3.76-14.84
			c0.81-1.45,5.96-5.05,6.06-5.84c0.64-4.88-1.64-12.11-1.55-17.46c0.06-3.63,2.4-8.39,2.1-11.69c-0.37-4-5.44-6.97-5.41-12.83
			c0.02-3.99,2.19-7.64,2.36-11.43c0.19-4.19-1.23-8.39-0.91-12.75c0.38-5.15,2.52-10.21,2.73-15.31
			c0.11-2.77-8.15-16.75-8.81-24.26c-0.52-5.94,2.54-10.49,2.99-16.01c0.42-5.07-1.94-10.2-1.29-15.59
			c0.54-4.48,3.38-9.02,3.46-13.45c0.08-4.76-3.2-11-3.39-16.47c-0.28-7.94,10.91-12.6,4.35-16.41c-1.89-1.1-6.81-13.27,7.45-13.54
			c14.92-0.28,27.99-11.85,24.68-10.64c-3.57,1.31-24.52,3.18-25.11-11.98c-10.56-11.3-12.23-9.53-11.26-23.15
			c-14.08-14.1-6.49-10.93-4.2-28.54c-11.3-5.86-3.03-15.99,1.86-22.25c-2.68-15.17,5.63-23.46,15.25-24.57
			c4.67-3.79,5.78-11.62,6.97-16.27c0.57-3.88-0.1-23.63-0.1-23.63l-1.52-3.39c0.89-1.29,1.76-2.71,2.06-2.88
			c3.37-1.93,7-4.51,10.76-6.37l47.67,1.78c7.87,1.61,16.38,2.2,19.87,0.74l10.09,0.38c6.44,2.16,15.71,5.67,26.62,6.38
			c2.34,0.15,6.16,0.61,7.95,2.33c4.04,3.87,3.73,12.47,11.99,10.4c12.87-3.22,9.34-15.51,10.48-24.52
			c-0.28-4.63,6.86-28.43,0.61-17.45c1.19,8.54-7.81,15.46-9.27,18.6c-0.28,3.4,2.88,13.31-2.72,14.56
			c-8.55-0.05-8.86-10.68-11.75-14.2c-1.12,0.47-2.15,0.84-3.11,1.13c0.81-5.94-7.85-6.77-9.8-9.9c-0.36-0.57,0.17-9.98-1.84-13.76
			c-2.63-4.96-6.54-8.1-12.18-8.82c-1.17-0.15-2.89,0.15-3.98-0.36c-0.68-0.32-0.86-3.71-1.15-4.39c-1.15-2.66-3.16-4.86-5.39-6.65
			c-5.4-4.32-10.22-1.5-12.87-3.05c-0.59-0.35-3.32-10.44-4.85-12.41c-2.77-3.58-6.56-7.3-11.25-7.94c-1.05-0.14-2.97,0.29-3.9-0.28
			c-1.65-1.02-2.84-7.83-3.92-9.59c-3.95-6.45-11.31-10.4-18.66-10.4c-3.34,0-6.68,0.81-9.7,2.57c0,0-10,15.05-19.98,21.57
			s-12.81,19.57-12.81,19.57s-16.13-31.06-19.53-19.76c-4.53,5.28-15.88,10.06-12.01,23.45c0,0,2.3,10.23-4.93,14.32
			c-7.23,4.09-3.36,19.8-3.07,22.26c0.28,2.46,1.97,12.54-1.04,15.25c-3.01,2.72-4.14,11.17-3.88,15.33c0.26,4.16,5.76,10.5,6.1,13
			c0.34,2.51-1.17,7.45-2.75,10.91c-1.58,3.46-0.08,14.33-0.71,17.58c-0.63,3.26-2.93,8.14-2.93,8.14l3.17,10.42
			c0,0-3.35,13.96-2.71,18.57c0.65,4.6,4.85,9.36,2.61,23.09c-2.24,13.73,2.67,19.15,2.67,19.15s2.73,15.15-0.62,23.25
			s3.64,12.49,3.94,17.53c0.3,5.04-2.67,12.33-4.04,16.34c-1.37,4.01,5.33,13.55,7.25,20.89c1.92,7.34-4.77,16.76-1.72,28.31
			c3.05,11.56,3.07,16.09,0.67,26.9c-2.4,10.81,4.48,14.92,3.43,21.7c-1.05,6.78-0.99,16.94-0.99,16.94s1.68,14.02-0.55,18.62
			c-2.22,4.6-4.73,11.43-2.62,15.72c2.1,4.29,1.57,8.17-1.62,7.58s-9.43,2.25-8.91,6.41c0.53,4.16-6.18,10.01-8.85,11.64
			C376.97,753.02,373.54,756.61,374.62,761.35L374.62,761.35z"/>
		<path id="path387192" sodipodi:nodetypes="ccsscssssscccccsccc" class="st5" d="M465.69,382.42c9.07,4.54,11.02,3.86,18.89,2.18
			c9.99,1.25,9.46,8.33,20.17,5.89c7.14-1.62,7.65-4.59,11.31-2c16.77,11.85,17.57-0.49,22.9,3.6c10.8,10.62,13.02,2.47,16.6,2.02
			c4.33-0.54-3.97-1.12,6.33,0.26c9.79,1.31,7.03-2.04,15.67,6.47c7.68-4.35,11.02-2.1,9.97-8.73c-1.23-9.04,6.04-10.95,0.67-19.12
			c-7.99,2.44-2.91-1.85,1.63,7.71c1.04,9.79-10.82,17.43-18.42,10.07c-6.05-3.69-5.17-13.24-13.43-11.18
			c-6.53-6.06-14.21-5.64-22.49-4.56c-8.58-3.83-16.93-1.44-25.52,0.2c-9.61,1.98-16.27-9.69-25.41-5.63
			c-8.36,6.06-17.69-6.39-24.7,2.91c-5.01,4.95-13.86-3.09-12.91,5.65C450.49,382.72,458.8,387.17,465.69,382.42L465.69,382.42z"/>
		<path id="path387194" sodipodi:nodetypes="csscc" class="st3" d="M579.42,255.2c0,0-11.53-3.99-8.31-9.24
			c1.6-2.61,15-18.02,17.56-27.92c1.22-4.74,9.91-1.53,9.91-1.53c12.33-0.2,1.29,53.39,3.79,66.04"/>
		<path id="path387196" sodipodi:nodetypes="cccsssccc" class="st6" d="M562.44,487.08c0,0,0.72,5.53,6.53,7.34
			c5.81,1.81,8.59,4.86,8.59,4.86s1.68-2.86-5.11,2.31c-5.81,4.43-31.85,4.22-37.9,1.4c-5.33-2.48-16.75-20.06-18.28-24.15
			c-1.53-4.1,18.65,10.3,21.99,10.42C541.61,489.38,562.44,487.08,562.44,487.08L562.44,487.08z"/>
		<path id="path387198" sodipodi:nodetypes="csc" class="st7" d="M528.42,430.11c-8.92,8-8.63,8.98-7.22,19.81
			c0.48,3.67,7.91,6.46,10,7.71"/>
		<path id="path387200" sodipodi:nodetypes="cscc" class="st8" d="M540.38,452.77c1.54-2.9,8.11-3.11,14.88,0.25
			c6.01,2.99-12.09-0.03-12.09-0.03c11.87,0.7,25.75,5.77,27.78,12.6"/>
		<path id="path387202" sodipodi:nodetypes="ccccssc" class="st9" d="M421.72,336.86c0.41-9-5.16-29.85-8.08-38.92
			c-3.24-15.45-7-12.51-6.36-29.23c-1.88-11.96-2.88-22.97,0.35-31.85c2.47-6.02,2.09-17.92,10.33-15.4
			c7.36,2.25,11.14,15.88,20.58,26.53c13.64,15.39,21.24,13.91,31.7,30.43"/>
		<path id="path387204" sodipodi:nodetypes="cscscccssc" class="st5" d="M417.17,240.32c0.92,1.62,3.34,9.46,6.22,21.71
			c2.88,12.25,1.82,18.8,1.82,18.8s-3.74-10.75-5.42-8.71c-1.68,2.04,2.41,20.97,7.59,34.03c5.18,13.06,4.61,20.25,4.61,20.25
			l6.83-12.61c0,0-2.97-19.1-4.83-29.98c-1.86-10.89-5.26-23.26-7.69-28.13C423.87,250.82,417.17,240.32,417.17,240.32
			L417.17,240.32z"/>
		<path id="path387206" sodipodi:nodetypes="cccsc" class="st9" d="M433.56,322.2c-7.77-12.42-14.89-37.02-14.62-50.35
			 M417.57,239.06c5.97,10.98,11.75,22.57,13.04,28.95c3.48,17.21,2.55,17.22,8.8,48.26"/>
		<path id="path387208" sodipodi:nodetypes="cscccc" class="st4" d="M585.51,252.63c0.14,0.28,5.58-9.16,6.73-13.28
			c1.06-3.8,5.56-8.67,5.75-6.94c2.21,12.9,2.86,50.54,2.63,49.29l-7.03-7.64L585.51,252.63z"/>
		<g id="g387218" transform="matrix(-1.2169435,0.05603457,0.06516985,1.415341,0.4121,-36.083924)">
			<path id="path387210" sodipodi:nodetypes="ccc" class="st10" d="M-443.76,334.56c-5.8,8.57-24.17,8.88-33.78,3.56
				C-479.6,330.26-458.64,303.39-443.76,334.56z"/>
			
				<ellipse id="ellipse387212" transform="matrix(1 5.000748e-03 -5.000748e-03 1 1.6548 2.3061)" class="st11" cx="-460.32" cy="332.05" rx="12.01" ry="-11.18"/>
			<path id="path387214" sodipodi:nodetypes="cccc" class="st12" d="M-453.13,320.96c3.81,2.6,7.18,7.72,9.33,16.39
				c-8.37,3.36-24.21,5.93-33.74,0.77c-1.74-6.5,4.56-15.47,12.38-18.38"/>
			
				<ellipse id="ellipse387216" transform="matrix(0.9994 -0.0348 0.0348 0.9994 -11.8275 -15.6867)" class="st10" cx="-456.04" cy="331.54" rx="3.98" ry="-2.3"/>
		</g>
		<path id="path387220" sodipodi:nodetypes="cccccccsccccccccc" class="st13" d="M439.2,374.3c9.42,6.73,25.48-2.36,26.79-7.54
			c7.74,6.24,18.33,6.53,24.57-1.78c4.05,4.08,9.4,10.34,16.93,10.09c6.91,2.4,13.37-0.95,19.17-4.88c4.91,7.45,15.17,7.83,22,3.76
			c3.03,6.47,8.42,9.13,17.4,4.31c1.13,6.52,6.45,18.29,16.72,15.21c8.06-2.42,7.33-12.6,5.99-19.99c1.87-3.98,11-14.98,4.94-26.78
			c-3.69-7.3,8.15-13.26,6.1-20.95c-0.26-6.48-2.07-14.02-7.63-17.59c-0.49-6.37,2.35-11.74-2.38-18.23 M580.45,276.17
			c-0.89-11.8-8.6-15.26-18.15-15.74c-1.94-4.22-8.57-15.12-20.81-11.68c-1.29-2.83-5.68-8.79-13.32-10.9"/>
		<path id="path387222" sodipodi:nodetypes="cccc" class="st13" d="M391.37,496.27c-1.83,9.08,5.18,18.71,10.86,18.93
			c-0.11,7.54,6.09,15.81,17.1,12.66c0.58,3.34,7.32,14.14,16.84,8.9"/>
		<path id="path387224" sodipodi:nodetypes="cccc" class="st14" d="M487.4,502.01c7.44-6.2,6.92-16.94-1.19-24.03
			c4.09-2.74,11.89-12.11,2.06-13.99c22.94-10.02,17.02-24.79,7.99-22.73"/>
		<g id="g387234" transform="matrix(-1.6789314,0.07730695,0.07730695,1.6789314,-83.5077,-61.072791)">
			<path id="path387226" sodipodi:nodetypes="ccc" class="st10" d="M-305.65,298.72c-5.8,8.57-24.17,8.88-33.78,3.56
				C-341.49,294.41-320.53,267.54-305.65,298.72z"/>
			
				<ellipse id="ellipse387228" transform="matrix(0.9997 -0.0246 0.0246 0.9997 -7.4225 -7.8722)" class="st11" cx="-323.11" cy="297.21" rx="11.21" ry="-11.03"/>
			<path id="path387230" sodipodi:nodetypes="ccsc" class="st15" d="M-305.65,298.72c-5.8,8.57-24.17,8.88-33.78,3.56
				c-0.22-0.85-0.18-1.92,0.1-3.11C-337.04,289.29-318.93,270.91-305.65,298.72L-305.65,298.72z"/>
			
				<ellipse id="ellipse387232" transform="matrix(0.9997 -0.0246 0.0246 0.9997 -7.3689 -7.7789)" class="st10" cx="-319.29" cy="295.09" rx="3.97" ry="-2.3"/>
		</g>
		<path id="path387236" sodipodi:nodetypes="cccccc" class="st14" d="M461.43,426.63c-7.33-6.59-20.25-6.8-26.55-6.09
			 M476.46,429.55c-11.79-3.92-22.82-2.54-32.02,4.06 M497.98,429.68c-22.04-2-28.27,1.39-36.23,8.06"/>
		<path id="path387240" class="st16" d="M392.19,381.81l13.77-102.92c-2.71,1.3-11.26,7.58-8.74,20.46
			c-8.42,3.7-8.42,7.78-7.94,19.01c-13.62,5.53-3.4,25.89-2.58,26c1.2,5.92-4.58,14.63,1.98,20.65
			C393.28,368.46,391.95,367.1,392.19,381.81L392.19,381.81z"/>
		<path id="path387242" class="st16" d="M391.68,385.57c0.32-0.75,0.54-1.39,0.53-1.83c-0.02-0.74-0.02-1.26-0.03-1.94
			L391.68,385.57z"/>
		<path id="path387244" class="st16" d="M389.43,402.41l2.25-16.84C390.03,389.47,385.24,397.02,389.43,402.41z"/>
		<path id="path387246" sodipodi:nodetypes="ccscscssscsccsccsccsscc" class="st16" d="M372.98,758.23
			c2.33-3.41,3.68-6.85,12.36-9.71c2.39-2.8,3.48-5.93,2.97-10.22c-0.62-5.16,11.32-3.72,12.26-4.06
			c2.96-1.07-5.33-10.97-2.33-17.88c1.81-4.18,4.99-5.5,5.52-10c1.16-9.89-5.43-19.66-0.03-29.39c3.5-6.31-1.31-8.97-2.77-15.72
			c-1.3-5.99-0.66-13.06,0.94-18.93c0.43-1.58,0.82-2.47,0.54-4.4c-0.76-6.22-5.41-12.04-6.22-18.68
			c-1.02-8.4,3.11-14.45,2.89-19.81c-0.26-6.13-4.2-11.9-4.6-18.3c-0.5-8.08,2.94-15.95,2.66-23.87c-0.15-4.38-3.68-8.51-3.52-14.13
			c0.1-3.45,2.3-6.86,2.16-10.2c-0.29-6.91-3.68-17.87-4.49-24.76c-1.42-12.03,1.21-11.15,1.5-23.09
			c-8.74-10.87-0.2-19.18-1.21-26.18c-5.61-8.73-0.19-16.53,0.38-21.18c1-8.15-1.05-12.16,1.21-17.79c2.74-6.83-0.1-7.02,0.27-14.41
			c-1.85-0.89-1.68,0.44-2.57-0.71"/>
		<path id="path387248" sodipodi:nodetypes="cssscsscssscccscccccc" class="st13" d="M618.22,774.47c0-2.41,2.1-5.33,2.05-13.62
			c-0.06-9.45-6.82-12.5-7.35-21.16c-0.28-4.57,6.4-7.95,1.24-22.35c-2.17-6.05-9.04-11.27-9.63-17.41
			c-0.56-5.88,3.16-7.57,2.91-15.97c-0.19-6.26-5.3-14.88-4.85-20.73c0.68-8.84,4.78-9.73,4.2-19.06
			c-0.42-6.76-0.84-8.14-1.82-14.45c-1.35-8.7,2.24-9.67,1.11-18.34c-0.81-6.21-2.21-6.67-2.96-12.4
			c-0.33-2.48,2.99-12.91,3.38-15.85c0.79-5.89-1.57-10.15-0.89-13.57c6.38-16.03,2.35-27.11,1.2-32.43
			c6.3-12.09,4.76-19.17,0.92-29.01c-1.91-4.89,10.32-12.81,1.21-29.59c5.89-14.69,3.75-18.62,0.08-25.66
			c5.93-10.87,2.38-13.64,0.05-18.9c1.83-8.18,2.47-14.17,0.33-20.62c2.81-11.36-0.57-17.55-3.46-24.15
			c2.43-7.59,2.83-19.18-1.42-26.31"/>
		<path id="path387250" sodipodi:nodetypes="cscccc" class="st13" d="M478.47,274.46c-3.92,4.16-2.58,2.63-12.32,8.53
			c-4.27,2.59-6.65,11.56-7.67,15.98c-1.92,4.89-7.31,5.29-10.9,8.74c-2.95,1.7-12.89,12.52-13.78,19.9
			c-12.25,9.19-10.93,8.68-14.03,19.84"/>
		<path id="path387252" sodipodi:nodetypes="csscc" class="st9" d="M568.81,247.2c0,0,5.04-7.12,9.15-11.71
			c8.09-9.04,10.48-17.4,14.08-19.11c4.42-2.1,8.71,2.58,8.71,2.58c6.25,8.82,0.39,39.92,1.38,62.12"/>
		<path id="path387254" sodipodi:nodetypes="cccccc" class="st17" d="M589.99,431.24l1.08,2.09 M581.13,434.02l1.51,3.27
			 M571.6,434.73l1.31,6.14"/>
		<path id="path387256" sodipodi:nodetypes="cccccccccc" class="st13" d="M592.83,367.78c7.76-1.67,17.74-11.13,16.58-18.99
			c2.17-0.76,13-5.75,8.34-19.66c-0.15-7.48,0.66-15.54-7.87-22.89c0.17-15.91-1.44-16.39-6.9-23.74
			c-14.48-22.22-9.01-19.98-25.54-26.05c-6.49-6.01-9.42-14.56-37.6-11.71c-14.89-13.91-40.46-10.17-41.95-5.9
			c-15.62-8.12-26.18,0.81-31.52,3.96c-3.44-1.71-19.94-0.31-23,7.94"/>
		<path id="path387258" class="st9" d="M585.69,257.01c0,0,5.68-18.65,7.91-20.13"/>
		<path id="path387260" sodipodi:nodetypes="cccc" class="st18" d="M587.56,422.23c7.96-2.08,13.48-2.34,20.46,0.09 M575.68,423.05
			c6.43-0.48,13.23-1.95,19.76,3.87"/>
		<path id="path387262" sodipodi:nodetypes="csscc" class="st7" d="M555.89,393.8c0,0-5.92,18.25,7.29,25.11
			c13.21,6.86,32.61,12.56,36.21,17.9c3.59,5.35,1.6,12.8,1.6,12.8c-1.98,3.48-3.54,7.45-8.4,9.12"/>
		<path id="path387264" sodipodi:nodetypes="cscc" class="st19" d="M594.12,448.33c-2.41-2.09-8.8,0-14.44,4.93
			c-5,4.38,12.74-4.74,12.74-4.74c-8.53,4.03-20.04,10.96-20.93,16.94"/>
		<path id="path387266" sodipodi:nodetypes="cccccc" class="st17" d="M542.06,434.06l-0.15,0.76 M551.45,435.81l-1.2,3.39
			 M560.62,436.49l0.24,3.77"/>
		<path id="path387268" sodipodi:nodetypes="ccscsccccscscc" class="st10" d="M534.8,487.14l0.21,5.74c0,0,20.03,4.25,22.45,3.54
			c2.42-0.71,5.68-0.98,5.68-0.98s4.71,1.54,8.08,0.4c3.37-1.14,5.43-1.73,5.43-1.73s0.71,1.08,4.24,1.29
			c3.52,0.21,7.21,0.18,7.73-0.55c0.52-0.73-0.06-4.62-0.26-5.18c-0.2-0.56-8.24-2.51-9.99-3.56c-1.75-1.06-8.75-5.07-8.75-5.07
			s-6.23,7.2-9.62,8.03C556.62,489.89,534.8,487.14,534.8,487.14L534.8,487.14z"/>
		<path id="path387270" sodipodi:nodetypes="csc" class="st7" d="M599.83,453.96c0,0,7.1,18.57,1.49,27.18
			c-9.23,14.17-28.57,4.02-30.38-1.17"/>
		<path id="path387272" sodipodi:nodetypes="csc" class="st7" d="M570.8,465.36c0,0,4.71,20.06-12.01,23.59
			c-26.98,5.7-47.33-14.54-47.1-21.5"/>
		<path id="path387274" sodipodi:nodetypes="cscc" class="st7" d="M575.34,494.78c-0.29,3.62,0.45,6.29,2.96,5.15
			c5.61-2.53,13.34,5.45,2.71,11.91c-3.53,1.56,1.86,5.63-4.09,11.57"/>
		<path id="path387276" sodipodi:nodetypes="csc" class="st7" d="M577.02,500.55c-4.15,2.62-26.91,9.81-42.8,1.73
			c-14.64-7.44-20.98-25.45-21.57-31.62"/>
		<path id="path387278" sodipodi:nodetypes="cc" class="st7" d="M515.96,465.55c-4.17-1.67-7.81,0.21-9.46,3.97"/>
		<path id="path387280" sodipodi:nodetypes="ccccc" class="st13" d="M497.34,526.46c13.11-3.34,14.46,14.7,14.25,11.79
			c15.81-7,15.44-0.87,24.09,4.75c-1.94,1.84,18.3-15.56,31.84,2c-0.13-3.92,8.26-20.49,20.56-11.7"/>
		<path id="path387282" sodipodi:nodetypes="cssc" class="st20" d="M561.65,488.26c-0.5,1.55,0.59,6.74,0.05,7.07
			c-4.34,2.64-13.73,1.8-13.8,0.61c-0.07-1.28,0.03-5.81,0.03-5.81"/>
		<path id="path387284" sodipodi:nodetypes="cc" class="st21" d="M575.28,493.9c-1.65,3.04-11.22,2.33-12.23,1.11"/>
		<path id="path387286" sodipodi:nodetypes="cssc" class="st20" d="M588.72,488.58c-0.5,1.55-0.02,4.59-0.6,4.86
			c-3.48,1.61-10.05,2.32-11.58,0.85c-0.92-0.89-0.71-9.01-0.71-9.01"/>
		<path id="path387288" sodipodi:nodetypes="cccc" class="st11" d="M566.84,486.05c2.07-1.54,4.13-2.5,8.49-0.13l-4.64-6.37
			L566.84,486.05z"/>
		<path id="path387290" sodipodi:nodetypes="cssc" class="st20" d="M547.41,490.12c-0.5,1.55,0.41,4.67-0.14,4.99
			c-4.61,2.67-12.34-0.44-12.74-2.29c-0.39-1.82-0.32-5.58-0.2-5.49"/>
	</g>
</g>
</svg>
