<?xml version="1.0" encoding="UTF-8" standalone="no"?>
<svg
   inkscape:version="1.1.1 (3bf5ae0, 2021-09-20)"
   id="svg8"
   version="1.1"
   viewBox="0 0 270.93333 270.93334"
   height="1024"
   width="1024"
   xmlns:inkscape="http://www.inkscape.org/namespaces/inkscape"
   xmlns:sodipodi="http://sodipodi.sourceforge.net/DTD/sodipodi-0.dtd"
   xmlns="http://www.w3.org/2000/svg"
   xmlns:svg="http://www.w3.org/2000/svg"
   xmlns:rdf="http://www.w3.org/1999/02/22-rdf-syntax-ns#"
   xmlns:cc="http://creativecommons.org/ns#"
   xmlns:dc="http://purl.org/dc/elements/1.1/">
  <defs
     id="defs2" />
  <sodipodi:namedview
     borderlayer="true"
     units="px"
     showgrid="false"
     inkscape:document-rotation="0"
     inkscape:current-layer="layer1"
     inkscape:document-units="px"
     inkscape:cy="597.85714"
     inkscape:cx="602.85714"
     inkscape:zoom="0.7"
     inkscape:pageshadow="2"
     inkscape:pageopacity="0"
     borderopacity="1.0"
     bordercolor="#666666"
     pagecolor="#585858"
     id="base"
     inkscape:pagecheckerboard="1"
     inkscape:snap-global="false"
     showguides="true"
     inkscape:guide-bbox="true"
     inkscape:window-width="1280"
     inkscape:window-height="967"
     inkscape:window-x="0"
     inkscape:window-y="1"
     inkscape:window-maximized="1">
    <sodipodi:guide
       position="178.06115,60.704554"
       orientation="0,-1"
       id="guide1250844" />
    <sodipodi:guide
       position="60.826371,51.358056"
       orientation="1,0"
       id="guide1250846" />
  </sodipodi:namedview>
  <metadata
     id="metadata5">
    <rdf:RDF>
      <cc:Work
         rdf:about="">
        <dc:format>image/svg+xml</dc:format>
        <dc:type
           rdf:resource="http://purl.org/dc/dcmitype/StillImage" />
      </cc:Work>
    </rdf:RDF>
  </metadata>
  <g
     id="layer1"
     inkscape:groupmode="layer"
     inkscape:label="Layer 1">
    <circle
       style="fill:#444444;fill-opacity:1;stroke:none;stroke-width:0.950557;stroke-miterlimit:4;stroke-dasharray:none;paint-order:stroke fill markers;stop-color:#000000"
       id="circle1248940"
       cx="135.46667"
       cy="135.46667"
       r="83.385551" />
    <circle
       style="fill:#b40c0c;fill-opacity:1;stroke:none;stroke-width:0.851167;stroke-miterlimit:4;stroke-dasharray:none;paint-order:stroke fill markers;stop-color:#000000"
       id="circle387154"
       cx="135.46667"
       cy="135.46667"
       r="74.666733" />
    <g
       id="g1249135"
       transform="translate(0,-2.3603128)">
      <path
         style="vector-effect:none;fill:#f3e8cc;fill-opacity:1;stroke:none;stroke-width:0.240046;stroke-linecap:butt;stroke-linejoin:miter;stroke-miterlimit:4;stroke-dasharray:none;stroke-dashoffset:0;stroke-opacity:1"
         d="m 146.0123,108.24864 c 0,0 -0.005,2.58313 3.28792,4.32439 3.29282,1.74125 8.88713,3.94533 8.88713,3.94533 0,0 1.52825,1.70595 0.96695,3.51744 -0.5613,1.8115 -0.27859,2.49316 -0.27859,2.49316 0,0 1.38209,5.01821 0.24107,6.42281 -1.14099,1.40459 -3.44535,2.14476 -3.44535,2.14476 l -3.31482,-1.34862 -0.0586,2.07182 0.44856,2.00197 c -0.16322,-0.72821 2.82578,1.80857 2.80484,2.08834 0,0 2.33841,5.15482 2.10518,5.70639 -0.23321,0.55156 -16.08829,5.3098 -23.35935,0.0732 -7.27107,-5.2366 -7.40755,-15.71575 -6.69624,-18.54118 0.71131,-2.82546 4.71053,-11.37368 5.97463,-12.87254 1.26413,-1.49885 12.43672,-2.02728 12.43672,-2.02728 z"
         id="path387176"
         sodipodi:nodetypes="cscscscccscsssscc" />
      <path
         id="path387178"
         style="font-variation-settings:normal;display:inline;vector-effect:none;fill:#fff0be;fill-opacity:1;stroke:none;stroke-width:1.05282;stroke-linecap:round;stroke-linejoin:round;stroke-miterlimit:4;stroke-dasharray:none;stroke-dashoffset:0;stroke-opacity:1;-inkscape-stroke:none;stop-color:#000000"
         d="m 98.99051,203.10458 c 0.2949,0.16545 0.58835,0.33351 0.88572,0.49506 0.52898,0.28736 1.06174,0.5685 1.59834,0.84335 0.53663,0.27486 1.07707,0.54349 1.62111,0.80564 0.54403,0.26215 1.09151,0.51764 1.64279,0.76688 0.55126,0.24924 1.10617,0.49249 1.6645,0.72864 0.55829,0.23614 1.12,0.46547 1.68515,0.68833 0.56515,0.22285 1.13403,0.43917 1.70585,0.64854 0.57179,0.20936 1.14671,0.41151 1.72495,0.60719 0.57825,0.19568 1.15957,0.38458 1.74408,0.56638 0.58452,0.1818 1.17213,0.35679 1.76268,0.52451 0.59058,0.16773 1.18436,0.32817 1.78078,0.48163 0.59643,0.15345 1.19571,0.29974 1.79782,0.43873 0.60211,0.13899 1.20679,0.271 1.81435,0.39533 0.60759,0.12432 1.21807,0.24089 1.83092,0.35036 0.61285,0.10947 1.22846,0.21151 1.84639,0.30592 0.61794,0.0944 1.23804,0.18128 1.86087,0.26045 0.62283,0.0792 1.24833,0.15073 1.87585,0.21446 0.62753,0.0637 1.25727,0.11986 1.88928,0.16795 0.63204,0.0481 1.2659,0.0882 1.90222,0.12041 0.63632,0.0323 1.27471,0.0566 1.91513,0.0729 0.64043,0.0162 1.28321,0.0243 1.92752,0.0243 0.64434,0 1.28659,-0.008 1.92701,-0.0243 0.64043,-0.0162 1.27881,-0.0406 1.91514,-0.0729 0.63632,-0.0323 1.27071,-0.0723 1.90272,-0.12041 0.63204,-0.0481 1.26177,-0.10422 1.88931,-0.16795 0.62751,-0.0637 1.25251,-0.13528 1.87532,-0.21446 0.62282,-0.0792 1.24346,-0.16602 1.86139,-0.26045 0.61794,-0.0944 1.23354,-0.19645 1.8464,-0.30592 0.61285,-0.10947 1.2228,-0.22604 1.83038,-0.35036 0.60757,-0.12433 1.21278,-0.25634 1.81489,-0.39533 0.60208,-0.13899 1.20136,-0.28528 1.79781,-0.43873 0.59643,-0.15346 1.18968,-0.3139 1.78025,-0.48163 0.59058,-0.16772 1.17817,-0.34271 1.76268,-0.52451 0.58452,-0.1818 1.16634,-0.3707 1.74461,-0.56638 0.57825,-0.19568 1.15314,-0.39783 1.72495,-0.60719 0.5718,-0.20937 1.14017,-0.42569 1.70532,-0.64854 0.46464,-0.18322 0.92544,-0.37365 1.38544,-0.56586 l -0.35189,-4.55631 -1.59113,-4.89066 0.44389,-5.64462 -1.70222,-2.28513 -1.17409,-2.38073 0.96274,-4.59869 -1.07849,-4.48809 c 0,0 2.9638,-4.67697 0.34985,-9.54826 0.035,-4.60995 0.99021,-4.78775 -0.33951,-6.1743 -0.73475,-1.32784 0.84802,-5.88956 0.84802,-5.88956 l -0.0775,-5.90507 c 0,0 0.43448,-2.38188 0.65837,-3.16001 0.22381,-0.77816 -0.39378,-3.20601 -0.39378,-3.20601 l 0.48112,-3.23081 0.18602,-11.0417 c 0.0271,-0.0563 0.0749,-0.15348 0.0749,-0.15348 0,0 -0.0369,-0.30979 -0.0594,-0.75654 l 0.01,-0.58808 -0.0269,0.0248 c -0.006,-0.72318 0.0512,-1.59144 0.30075,-2.1916 0.50316,-1.20997 -0.29663,-4.04161 -0.29663,-4.04161 0,0 0.13526,-1.20228 0.49716,-1.73323 0.36234,-0.53097 -0.57889,-4.46648 -0.30801,-6.52621 0.27091,-2.05974 -1.20147,-8.98162 -0.86092,-10.03247 0.34049,-1.05085 -1.01751,-6.490038 -1.01751,-6.490038 l 1.76318,-3.832839 c 0.0942,-0.524251 2.5917,-0.468056 2.05364,-1.52704 -0.98059,-1.929857 0.75296,-2.262328 0.21239,-4.295344 -0.0681,-1.715243 -0.84985,-3.47627 -2.3213,-4.420401 -0.12922,-1.684499 1.17988,-3.434922 -0.0713,-5.151625 -0.68337,-2.607832 -4.40878,-2.459398 -4.05609,-5.488554 -0.14422,-2.560722 -2.28047,-3.71666 -4.8214,-3.917074 -1.76413,-1.046181 -2.66319,-2.489467 -5.13818,-2.480469 -0.45786,-0.05602 -4.21203,-0.557784 -4.66743,-0.483174 v 0 c -3.26353,-3.078425 -4.74126,-2.209737 -11.12438,-1.454174 -2.11037,0.172318 -3.17662,-0.591566 -4.64106,-0.396359 -0.90853,0.0227 -2.68515,0.485979 -3.54139,1.042313 l -6.58823,2.864942 -5.37488,-6.918441 c -1.35919,-0.629729 -2.94611,-2.602285 -3.19929,3.294372 -1.30056,2.321542 -1.00187,8.19671 -0.73742,10.267074 l -1.94665,2.940389 -0.53692,3.096969 -1.7694,1.816428 -0.41288,2.693892 -1.23145,1.744078 -0.5607,3.312459 1.12397,2.949691 -0.17261,4.382162 1.69809,1.816428 -0.78083,8.594305 1.02475,2.68872 c 0,0 -0.41867,2.28739 -0.2744,3.47369 0.14418,1.18634 -0.49609,7.36854 -0.49609,7.36854 l -0.22635,5.19762 c 0,0 0.37444,3.49697 0.39531,4.32532 0.0217,0.82831 0.60463,8.97826 0.60463,8.97826 l 0.83717,3.09594 -0.66871,5.24877 0.81804,3.45405 -0.54311,4.69998 1.32654,3.61166 -0.70541,5.04775 0.72348,4.04059 0.63354,2.55023 -0.32554,4.36562 1.28984,2.9869 c 0,0 -1.83007,4.06608 -1.55339,4.88601 0.2766,0.81992 0.61651,6.17068 0.61651,6.17068 -2.49894,2.46686 -1.80441,1.57158 -1.45574,3.49953 l 1.01751,2.35903 -3.62768,1.20871 -0.35142,2.27841 -2.70886,1.46451 z m 45.6892,-93.51626 c 0.55901,0.96603 1.45669,3.11435 3.17188,2.81637 l -0.17466,-1.12397 c 0.70062,0.9647 1.69487,1.63128 2.63499,1.95802 1.59144,0.5531 7.1107,3.00868 8.42118,4.3956 1.31041,1.38691 -0.0465,3.57601 -0.0465,3.57601 0,0 0.0588,0.83799 0.44442,2.27738 0.38563,1.43939 0.33364,3.90078 -0.16949,5.61516 -0.50316,1.71444 -3.22824,1.86914 -3.22824,1.86914 l -0.0961,1.15548 -0.96686,0.48266 -2.39882,0.1602 0.29765,1.4273 1.46762,-0.29559 1.19682,0.60358 -0.27181,1.43764 1.20094,2.6603 -1.46087,-0.555 -0.55604,2.66237 -0.95653,-2.89337 -2.05983,3.16932 -0.67696,-3.5295 -2.97657,3.70675 -0.19118,-3.09232 -3.80185,3.26337 -0.24599,-2.49597 -3.65249,1.38854 1.03354,-2.66857 -3.7393,1.00459 0.70641,-3.23236 -4.83071,-0.23358 2.6417,-2.88302 -3.0086,-1.02733 1.76681,-1.35237 -3.51039,-2.57297 2.27275,-0.601 -1.82833,-2.52181 c 1.28019,-1.97987 4.81823,-2.49962 1.9694,-5.83169 l 2.42568,1.42731 c -0.95057,-1.55338 -2.12609,-3.10178 -3.05665,-3.79822 l 2.74764,0.61702 -0.79375,-2.15698 2.56521,0.99684 -1.29812,-2.09238 2.20141,0.59686 -1.14564,-2.20038 1.78075,0.70383 2.94402,1.49501 -1.70585,-3.18431 2.51664,1.22267 -0.0201,-2.23604 2.43808,2.34818 z" />
      <path
         style="fill:#ffe99f;fill-opacity:1;stroke:none;stroke-width:0.48009px;stroke-linecap:butt;stroke-linejoin:miter;stroke-opacity:1"
         d="m 128.81989,126.28747 c 0.15173,-0.0305 0.47811,0.17992 1.05482,0.72864 -0.39745,0.15978 -0.65314,0.28204 -0.91714,0.40644 -0.21712,-0.62631 -0.33144,-1.09611 -0.13768,-1.13508 z"
         id="path387180" />
      <path
         style="fill:#ffe99f;fill-opacity:1;stroke:none;stroke-width:0.48009px;stroke-linecap:butt;stroke-linejoin:miter;stroke-opacity:1"
         d="m 110.30473,86.252449 c 0.67138,1.808873 1.46752,5.18126 0.81155,6.59622 -0.29826,0.643328 -0.34389,2.353585 -1.18357,1.673704 -0.92058,-0.745419 0.54018,-2.54936 -0.41799,-4.633743 -0.21291,-0.463154 0.87651,-2.486894 0.79001,-3.636181 z"
         id="path387182" />
      <path
         style="fill:#ffe99f;fill-opacity:1;stroke:none;stroke-width:0.48009px;stroke-linecap:butt;stroke-linejoin:miter;stroke-opacity:1"
         d="m 110.06629,85.660805 c 0.14876,0.141924 0.22004,0.347107 0.23844,0.591644 -0.0826,-0.222455 -0.16257,-0.423088 -0.23844,-0.591644 z"
         id="path387184" />
      <path
         style="fill:#ffe99f;fill-opacity:1;stroke:none;stroke-width:0.48009px;stroke-linecap:butt;stroke-linejoin:miter;stroke-opacity:1"
         d="m 157.34648,105.58771 -6.7145,3.42264 c -2.01777,1.02853 0.18725,3.88612 -1.64153,2.6109 -0.51153,-0.35668 -1.20713,-0.18707 -1.70246,-0.70727 -0.54766,-0.57517 -0.35854,-1.98777 -1.14442,-2.40944 -0.27352,-0.14671 -0.19122,1.33871 -0.20427,1.33293 -0.93508,-0.41295 -1.44272,-2.01571 -1.6295,-1.75256 -0.13629,0.19211 -0.24341,1.66421 -0.36242,1.66969 -0.7763,0.0357 -1.46959,-1.82434 -2.42368,-1.5705 -0.92123,0.24508 -0.0375,1.87366 -0.58735,2.12591 -0.15973,0.0733 -2.16341,-0.90382 -2.67538,-0.88025 -0.70037,0.0322 0.28815,1.96463 -0.50604,1.5064 -1.20046,-0.69262 -23.08275,2.73385 -23.56583,1.53045 -0.0917,-0.22831 2.69873,-1.2088 2.26253,-2.76674 -0.38059,-1.35929 -1.48136,-3.05084 -0.50853,-3.71179 1.98729,-1.3502 -0.91554,-5.96291 -0.59073,-5.35202 0.57611,1.08353 8.50843,-0.637726 8.13396,-1.459629 -0.31584,-0.693226 5.76794,-0.500734 6.47081,-0.191882 1.62641,0.714645 5.96577,2.322691 7.57795,1.672971 3.20499,-1.291694 1.90376,0.10195 4.8743,0.44389 0.49553,0.0571 2.72896,-0.36906 2.83323,-0.31913 0.82257,0.39393 0.80992,1.52361 2.11141,1.61773 0.66234,0.048 2.57392,-0.54591 2.61395,-0.47424 3.37306,6.03912 7.24634,-1.83856 7.6244,-2.698457 1.56119,1.501087 0.47803,4.848837 -0.2459,6.360397 z"
         id="path387186"
         sodipodi:nodetypes="csssscssssssssssssssssscc" />
      <path
         style="fill:#ffe99f;fill-opacity:1;stroke:none;stroke-width:0.48009px;stroke-linecap:butt;stroke-linejoin:miter;stroke-opacity:1"
         d="m 110.09075,64.399727 3.90394,7.991368 -0.95549,-3.973512 c 2.04865,0.903124 4.20726,3.872376 6.45935,3.758572 0,0 1.43588,-0.39574 2.94966,1.230886 0.72414,0.778129 1.38635,1.365938 1.89077,1.779956 -0.0919,-0.203671 -0.19872,-0.497406 -0.50273,-0.827291 -0.52048,-0.564778 -1.34432,-1.253285 -1.5992,-1.991437 0.26836,0.08419 0.53827,0.237161 0.82853,0.23782 0.64348,0.0015 1.18651,-0.810775 1.20235,-0.796913 0.60666,0.531065 0.55028,1.006316 1.5376,0.918558 0.17655,-0.01577 1.38372,-0.560265 1.44099,-0.527236 0.48896,0.28206 -0.0339,1.462094 -0.24619,1.727224 -0.5239,0.654482 -0.98229,1.068142 -1.75705,1.389412 -0.24203,0.100363 -0.40967,0.151043 -0.53144,0.15964 0.23222,0.173963 0.53769,0.404214 0.53769,0.404214 l -4.0667,5.169713 c 0,0 -0.76223,0.709018 -2.83806,2.171352 -2.07584,1.462331 -4.23224,4.876966 -4.23224,4.876966 l -2.44552,1.910157 c 0.30802,-3.545108 0.95995,-5.704682 0.88564,-6.166543 -0.0743,-0.461856 -2.36148,-8.863079 -2.36148,-8.863079 0,0 -0.39083,-4.711649 -0.55829,-6.37603 -0.16751,-1.664379 0.45787,-4.203797 0.45787,-4.203797 z"
         id="path387188" />
      <path
         id="path387190"
         style="fill:#ffe99f;fill-opacity:1;stroke:none;stroke-width:0.480089px;stroke-linecap:butt;stroke-linejoin:miter;stroke-opacity:1"
         d="m 99.11814,203.17589 c 0.25273,0.14113 0.50356,0.28548 0.75809,0.42375 0.52898,0.28736 1.06174,0.5685 1.59834,0.84335 0.53663,0.27486 1.07707,0.54349 1.62111,0.80564 0.54403,0.26215 1.09151,0.51764 1.64279,0.76688 0.55126,0.24924 1.10617,0.49249 1.6645,0.72864 0.55829,0.23614 1.12,0.46547 1.68515,0.68833 0.50798,0.2003 1.01989,0.39349 1.53324,0.58291 0.17825,-0.99867 0.41772,-1.98755 0.92141,-2.93057 0.37206,-0.69657 1.26942,-0.8765 1.57665,-1.42266 0.624,-1.10931 0.31824,-2.71268 0.99425,-3.9274 0.2132,-0.38313 1.57613,-1.33633 1.60351,-1.54616 0.16822,-1.29176 -0.43474,-3.2053 -0.41135,-4.61833 0.0159,-0.95915 0.63569,-2.21958 0.55552,-3.09231 -0.0972,-1.05807 -1.44044,-1.84285 -1.43245,-3.3936 0.006,-1.05612 0.58041,-2.02127 0.62529,-3.0241 0.0495,-1.10842 -0.3247,-2.21952 -0.24032,-3.37292 0.0998,-1.36281 0.66595,-2.70263 0.72141,-4.0504 0.0301,-0.73272 -2.1576,-4.43125 -2.33008,-6.4177 -0.13653,-1.57247 0.67072,-2.77668 0.79065,-4.23488 0.11012,-1.34032 -0.51289,-2.69925 -0.3421,-4.12533 0.14189,-1.18484 0.89342,-2.38694 0.91416,-3.55792 0.0222,-1.25811 -0.84598,-2.91005 -0.89815,-4.35839 -0.0746,-2.10116 2.88663,-3.33415 1.15083,-4.34185 -0.50009,-0.29033 -1.80107,-3.51204 1.97043,-3.58273 3.94872,-0.074 7.40619,-3.13545 6.5288,-2.81482 -0.94533,0.34546 -6.48821,0.84133 -6.643,-3.16983 -2.79527,-2.99075 -3.23696,-2.52039 -2.98018,-6.12572 -3.72404,-3.73103 -1.71598,-2.89066 -1.11054,-7.552 -2.99048,-1.55115 -0.80301,-4.23023 0.493,-5.88801 -0.70961,-4.0136 1.48955,-6.20602 4.03386,-6.50193 1.2351,-1.00274 1.52993,-3.07417 1.84383,-4.30516 0.14965,-1.02625 -0.0269,-6.25337 -0.0269,-6.25337 l -0.40256,-0.89761 c 0.23511,-0.34005 0.46611,-0.71696 0.54623,-0.76275 0.89268,-0.51016 1.85325,-1.19314 2.84684,-1.68465 l 12.61319,0.47129 c 2.08134,0.42721 4.33392,0.58253 5.25653,0.19637 l 2.67062,0.0997 c 1.70413,0.57137 4.15631,1.49984 7.04247,1.68723 0.61804,0.0402 1.62914,0.16165 2.10322,0.61547 1.07019,1.02441 0.98714,3.29942 3.17141,2.75228 3.406,-0.8532 2.4702,-4.10246 2.7719,-6.486419 -0.0751,-1.223801 1.81388,-7.521273 0.16021,-4.615738 0.31573,2.260364 -2.06761,4.089723 -2.45309,4.921147 -0.0752,0.89871 0.76198,3.52212 -0.71882,3.85144 -2.2634,-0.0122 -2.34428,-2.82463 -3.10832,-3.757389 -0.29628,0.12305 -0.56936,0.221709 -0.8227,0.299719 0.21334,-1.571886 -2.07616,-1.791363 -2.59363,-2.619474 -0.0943,-0.150839 0.0438,-2.640595 -0.48628,-3.639572 -0.69635,-1.312198 -1.73003,-2.142013 -3.22357,-2.333191 -0.31047,-0.03974 -0.76415,0.03993 -1.05265,-0.09612 -0.18021,-0.08501 -0.22741,-0.982707 -0.3049,-1.162719 -0.30327,-0.704458 -0.83495,-1.284684 -1.4273,-1.75855 -1.42936,-1.14349 -2.70391,-0.396981 -3.40495,-0.807186 -0.15703,-0.09183 -0.87884,-2.761827 -1.28262,-3.284037 -0.73215,-0.946926 -1.73662,-1.93175 -2.97709,-2.100647 -0.27681,-0.03769 -0.78661,0.07703 -1.03195,-0.07493 -0.43725,-0.270775 -0.75113,-2.072415 -1.03664,-2.538344 -1.04564,-1.706464 -2.99239,-2.750481 -4.93768,-2.752288 -0.88424,-7.94e-4 -1.76829,0.213603 -2.56731,0.679029 0,0 -2.64594,3.981992 -5.28648,5.70611 -2.64054,1.72412 -3.38894,5.179012 -3.38894,5.179012 0,0 -4.26807,-8.216929 -5.1661,-5.229137 -1.19811,1.397005 -4.20261,2.662023 -3.17809,6.203238 0,0 0.60825,2.707399 -1.30535,3.788399 -1.91352,1.080995 -0.88818,5.238546 -0.81338,5.88853 0.0748,0.649965 0.52102,3.317527 -0.27546,4.035927 -0.79645,0.71838 -1.09572,2.95558 -1.02629,4.05711 0.0695,1.10152 1.52302,2.77698 1.61385,3.44062 0.0909,0.66365 -0.31014,1.97035 -0.72707,2.88716 -0.41685,0.91678 -0.0214,3.79037 -0.18706,4.65243 -0.16571,0.86207 -0.77515,2.15491 -0.77515,2.15491 l 0.83923,2.75745 c 0,0 -0.88731,3.69454 -0.71626,4.91236 0.17106,1.21784 1.28323,2.47673 0.68991,6.10971 -0.59336,3.63297 0.70537,5.06791 0.70537,5.06791 0,0 0.72195,4.00956 -0.16536,6.15104 -0.88731,2.14146 0.96216,3.30432 1.0423,4.63848 0.0802,1.33413 -0.7057,3.26329 -1.06918,4.32377 -0.36346,1.06046 1.41092,3.58528 1.91876,5.52834 0.50778,1.94306 -1.26138,4.43326 -0.45424,7.49153 0.80706,3.05827 0.8123,4.25754 0.17621,7.1174 -0.63608,2.85985 1.18642,3.94768 0.90848,5.74022 -0.27806,1.79255 -0.26149,4.48138 -0.26149,4.48138 0,0 0.44325,3.70847 -0.1447,4.92631 -0.58799,1.21782 -1.25042,3.02372 -0.69453,4.15944 0.55589,1.13575 0.41666,2.16188 -0.42789,2.00453 -0.84455,-0.15736 -2.49594,0.59551 -2.35696,1.69705 0.13896,1.10152 -1.63589,2.64785 -2.34146,3.07888 -0.67434,0.41196 -1.57993,1.3624 -1.295,2.61638 z" />
      <path
         style="fill:#f9cf6e;fill-opacity:1;stroke:none;stroke-width:0.48009px;stroke-linecap:butt;stroke-linejoin:miter;stroke-opacity:1"
         d="m 123.21287,102.91707 c 2.40074,1.20054 2.91455,1.02083 4.99911,0.57633 2.64261,0.33087 2.50402,2.20278 5.33532,1.5586 1.8891,-0.4298 2.02379,-1.21333 2.99244,-0.52887 4.43808,3.136 4.64895,-0.13069 6.05975,0.95152 2.85619,2.81043 3.44543,0.65312 4.3909,0.53504 1.14635,-0.14324 -1.05165,-0.29744 1.67564,0.0676 2.59111,0.34682 1.85988,-0.54015 4.14637,1.71261 2.03141,-1.15005 2.91542,-0.55507 2.63748,-2.3099 -0.32515,-2.39268 1.59887,-2.89611 0.17773,-5.0587 -2.11296,0.6448 -0.76865,-0.488397 0.43235,2.03928 0.27387,2.59058 -2.86173,4.6125 -4.87481,2.66466 -1.60149,-0.97734 -1.36687,-3.50224 -3.55406,-2.95864 -1.72661,-1.60214 -3.75851,-1.49173 -5.95174,-1.20769 -2.27044,-1.013552 -4.48032,-0.38167 -6.75275,0.0541 -2.54138,0.52257 -4.30548,-2.562561 -6.72239,-1.490251 -2.21193,1.602241 -4.67996,-1.690698 -6.53538,0.769091 -1.32572,1.30859 -3.6683,-0.818397 -3.41531,1.49381 0.93953,1.21165 3.13696,2.3891 4.95935,1.13136 z"
         id="path387192"
         sodipodi:nodetypes="ccsscssssscccccsccc" />
      <path
         style="font-variation-settings:normal;vector-effect:none;fill:#fff0be;fill-opacity:1;stroke:none;stroke-width:1.05282;stroke-linecap:round;stroke-linejoin:round;stroke-miterlimit:4;stroke-dasharray:none;stroke-dashoffset:0;stroke-opacity:1;-inkscape-stroke:none;stop-color:#000000"
         d="m 153.30605,69.258165 c 0,0 -3.05171,-1.056465 -2.19984,-2.446063 0.42314,-0.690242 3.96817,-4.766522 4.64484,-7.387343 0.32381,-1.254174 2.6208,-0.403829 2.6208,-0.403829 3.26152,-0.05305 0.34114,14.127322 1.00238,17.473045"
         id="path387194"
         sodipodi:nodetypes="csscc" />
      <path
         style="font-variation-settings:normal;vector-effect:none;fill:#a37070;fill-opacity:1;stroke:none;stroke-width:0.263206;stroke-linecap:butt;stroke-linejoin:miter;stroke-miterlimit:4;stroke-dasharray:none;stroke-dashoffset:0;stroke-opacity:1;-inkscape-stroke:none;stop-color:#000000"
         d="m 148.81166,130.61012 c 0,0 0.19164,1.46366 1.72862,1.94169 1.53712,0.47798 2.27394,1.28556 2.27394,1.28556 0,0 0.44475,-0.75605 -1.35077,0.61076 -1.53804,1.1708 -8.42697,1.11683 -10.02848,0.36985 -1.40916,-0.65731 -4.43279,-5.30655 -4.83734,-6.3901 -0.40452,-1.08355 4.93336,2.72488 5.81794,2.75781 0.88452,0.0328 6.3961,-0.57555 6.3961,-0.57555 z"
         id="path387196"
         sodipodi:nodetypes="cccsssccc" />
      <path
         style="font-variation-settings:normal;vector-effect:none;fill:none;fill-opacity:1;stroke:#4b4633;stroke-width:1.05282;stroke-linecap:round;stroke-linejoin:round;stroke-miterlimit:4;stroke-dasharray:none;stroke-dashoffset:0;stroke-opacity:1;-inkscape-stroke:none;stop-color:#000000"
         d="m 139.81049,115.53443 c -2.36047,2.11787 -2.28429,2.37586 -1.91091,5.24152 0.12666,0.97168 2.09181,1.70893 2.6451,2.03893"
         id="path387198"
         sodipodi:nodetypes="csc" />
      <path
         style="font-variation-settings:normal;vector-effect:none;fill:none;fill-opacity:1;stroke:#4b4633;stroke-width:1.00531;stroke-linecap:round;stroke-linejoin:round;stroke-miterlimit:4;stroke-dasharray:none;stroke-dashoffset:0;stroke-opacity:1;-inkscape-stroke:none;stop-color:#000000"
         d="m 142.97485,121.53216 c 0.40808,-0.76838 2.14671,-0.82268 3.93608,0.0671 1.58967,0.7905 -3.19892,-0.009 -3.19892,-0.009 3.14046,0.1862 6.81238,1.52686 7.35066,3.33434"
         id="path387200"
         sodipodi:nodetypes="cscc" />
      <path
         style="font-variation-settings:normal;vector-effect:none;fill:none;fill-opacity:1;stroke:#f9cf6e;stroke-width:1.05282;stroke-linecap:round;stroke-linejoin:round;stroke-miterlimit:4;stroke-dasharray:none;stroke-dashoffset:0;stroke-opacity:1;-inkscape-stroke:none;stop-color:#000000"
         d="m 111.57944,90.863398 c 0.10961,-2.380981 -1.3647,-7.899031 -2.13792,-10.29783 -0.85609,-4.088055 -1.85113,-3.310044 -1.68327,-7.734265 -0.49821,-3.164888 -0.76147,-6.076217 0.0921,-8.426431 0.65296,-1.593215 0.55383,-4.74214 2.73211,-4.075795 1.94742,0.595725 2.94748,4.200725 5.44487,7.018536 3.60928,4.072392 5.61907,3.680418 8.38846,8.05035"
         id="path387202"
         sodipodi:nodetypes="ccccssc" />
      <path
         style="vector-effect:none;fill:#f9cf6e;fill-opacity:1;stroke:none;stroke-width:0.240046;stroke-linecap:butt;stroke-linejoin:miter;stroke-miterlimit:4;stroke-dasharray:none;stroke-dashoffset:0;stroke-opacity:1"
         d="m 110.37497,65.319701 c 0.24319,0.429845 0.88395,2.503784 1.6466,5.744996 0.76266,3.241215 0.48276,4.974659 0.48276,4.974659 0,0 -0.99044,-2.84299 -1.43515,-2.303922 -0.44471,0.539067 0.63803,5.549104 2.00874,9.004649 1.37079,3.455543 1.21981,5.357536 1.21981,5.357536 l 1.80784,-3.335342 c 0,0 -0.78549,-5.052807 -1.27784,-7.933273 -0.49234,-2.880467 -1.39281,-6.154109 -2.03528,-7.442813 -0.64245,-1.288702 -2.41748,-4.06649 -2.41748,-4.06649 z"
         id="path387204"
         sodipodi:nodetypes="cscscccssc" />
      <path
         style="font-variation-settings:normal;vector-effect:none;fill:none;fill-opacity:1;stroke:#f9cf6e;stroke-width:1.05282;stroke-linecap:round;stroke-linejoin:round;stroke-miterlimit:4;stroke-dasharray:none;stroke-dashoffset:0;stroke-opacity:1;-inkscape-stroke:none;stop-color:#000000"
         d="m 114.71186,86.984584 c -2.05641,-3.286896 -3.93961,-9.795771 -3.868,-13.321812 m -0.3606,-8.675684 c 1.57957,2.905738 3.10835,5.972582 3.44959,7.660777 0.92027,4.552634 0.67483,4.556899 2.32862,12.768466"
         id="path387206"
         sodipodi:nodetypes="cccsc" />
      <path
         style="vector-effect:none;fill:#ffe99f;fill-opacity:1;stroke:none;stroke-width:0.263206;stroke-linecap:butt;stroke-linejoin:miter;stroke-miterlimit:4;stroke-dasharray:none;stroke-dashoffset:0;stroke-opacity:1"
         d="m 154.91685,68.576193 c 0.037,0.07478 1.47638,-2.423872 1.77932,-3.512873 0.27966,-1.005163 1.46989,-2.294448 1.52126,-1.834911 0.58479,3.413338 0.75557,13.371762 0.69602,13.040954 l -1.85998,-2.021647 z"
         id="path387208"
         sodipodi:nodetypes="cscccc" />
      <g
         id="g387218"
         transform="matrix(-1.2169435,0.05603457,0.06516985,1.415341,0.4121,-36.083924)">
        <path
           style="fill:#ffffff;fill-opacity:1;stroke:none;stroke-width:0.870335;stroke-linecap:butt;stroke-linejoin:miter;stroke-miterlimit:4;stroke-dasharray:none;stroke-dashoffset:0;stroke-opacity:1"
           d="m -116.09536,108.44288 c -1.53445,2.26831 -6.39543,2.34819 -8.9375,0.94099 -0.5449,-2.07956 5.00075,-9.18953 8.9375,-0.94099 z"
           id="path387210"
           sodipodi:nodetypes="ccc" />
        <ellipse
           style="font-variation-settings:normal;vector-effect:none;fill:#4b4633;fill-opacity:1;stroke:none;stroke-width:0.631035;stroke-linecap:round;stroke-linejoin:round;stroke-miterlimit:4;stroke-dasharray:none;stroke-dashoffset:0;stroke-opacity:1;-inkscape-stroke:none;paint-order:stroke fill markers;stop-color:#000000"
           id="ellipse387212"
           cx="117.62867"
           cy="110.55845"
           rx="3.1770585"
           ry="2.9572332"
           transform="matrix(-0.99972833,-0.02330787,-0.02605024,0.99966063,0,0)" />
        <path
           style="fill:none;fill-opacity:1;stroke:#4b4633;stroke-width:0.870335;stroke-linecap:butt;stroke-linejoin:miter;stroke-miterlimit:4;stroke-dasharray:none;stroke-dashoffset:0;stroke-opacity:1"
           d="m -118.57595,104.84486 c 1.00701,0.68724 1.90005,2.04146 2.46933,4.33531 -2.21348,0.88866 -6.40495,1.56869 -8.92624,0.2037 -0.46146,-1.72098 1.20779,-4.0919 3.27609,-4.86222"
           id="path387214"
           sodipodi:nodetypes="cccc" />
        <ellipse
           style="font-variation-settings:normal;vector-effect:none;fill:#ffffff;fill-opacity:1;stroke:none;stroke-width:0.580223;stroke-linecap:round;stroke-linejoin:round;stroke-miterlimit:4;stroke-dasharray:none;stroke-dashoffset:0;stroke-opacity:1;-inkscape-stroke:none;paint-order:stroke fill markers;stop-color:#000000"
           id="ellipse387216"
           cx="116.65642"
           cy="110.55296"
           rx="1.051622"
           ry="0.6087051"
           transform="matrix(-0.99969636,-0.02464098,-0.02464098,0.99969636,0,0)" />
      </g>
      <path
         style="font-variation-settings:normal;fill:none;fill-opacity:1;stroke:#f9cf6e;stroke-width:1.57924;stroke-linecap:round;stroke-linejoin:round;stroke-miterlimit:4;stroke-dasharray:none;stroke-dashoffset:0;stroke-opacity:1;stop-color:#000000"
         d="m 116.20399,100.76807 c 2.49268,1.77995 6.74198,-0.62333 7.0895,-1.994161 2.04766,1.651471 4.84989,1.727381 6.50024,-0.471867 1.07203,1.079591 2.4867,2.735308 4.47868,2.670268 1.82814,0.6361 3.53812,-0.25119 5.07089,-1.291963 1.29806,1.970223 4.01408,2.072963 5.82153,0.994513 0.80236,1.71301 2.22702,2.41539 4.60475,1.1411 0.30013,1.72385 1.70768,4.83973 4.42387,4.02387 2.13291,-0.64067 1.93914,-3.33252 1.58414,-5.2896 0.49412,-1.05411 2.90951,-3.963914 1.30733,-7.084613 -0.97615,-1.932117 2.15547,-3.509121 1.61488,-5.542136 -0.0681,-1.715243 -0.5484,-3.709909 -2.01987,-4.654047 -0.12915,-1.684499 0.62276,-3.105628 -0.62856,-4.822331 m -2.47451,-3.641233 c -0.2353,-3.121961 -2.27428,-4.038268 -4.8031,-4.163964 -0.51274,-1.11741 -2.26714,-4.001328 -5.50558,-3.090977 -0.34092,-0.747838 -1.502,-2.325634 -3.52458,-2.885166"
         id="path387220"
         sodipodi:nodetypes="cccccccsccccccccc" />
      <path
         style="font-variation-settings:normal;fill:none;fill-opacity:1;stroke:#f9cf6e;stroke-width:1.57924;stroke-linecap:round;stroke-linejoin:round;stroke-miterlimit:4;stroke-dasharray:none;stroke-dashoffset:0;stroke-opacity:1;stop-color:#000000"
         d="m 103.54887,133.04024 c -0.48474,2.40276 1.37085,4.95165 2.87411,5.00795 -0.0297,1.99367 1.61141,4.18289 4.52401,3.34884 0.15446,0.88501 1.93702,3.73988 4.45529,2.35399"
         id="path387222"
         sodipodi:nodetypes="cccc" />
      <path
         style="font-variation-settings:normal;fill:none;fill-opacity:1;stroke:#f9cf6e;stroke-width:1.44027;stroke-linecap:round;stroke-linejoin:round;stroke-miterlimit:4;stroke-dasharray:none;stroke-dashoffset:0;stroke-opacity:1;stop-color:#000000"
         d="m 128.95774,134.55899 c 1.96954,-1.64109 1.83076,-4.48308 -0.31545,-6.35765 1.081,-0.72436 3.14687,-3.20364 0.54622,-3.70269 6.06925,-2.6499 4.50335,-6.55927 2.11366,-6.01325"
         id="path387224"
         sodipodi:nodetypes="cccc" />
      <g
         id="g387234"
         transform="matrix(-1.6789314,0.07730695,0.07730695,1.6789314,-83.5077,-61.072791)">
        <path
           style="fill:#ffffff;fill-opacity:1;stroke:none;stroke-width:0.870335;stroke-linecap:butt;stroke-linejoin:miter;stroke-miterlimit:4;stroke-dasharray:none;stroke-dashoffset:0;stroke-opacity:1"
           d="m -116.09536,108.44288 c -1.53445,2.26831 -6.39543,2.34819 -8.9375,0.94099 -0.5449,-2.07956 5.00075,-9.18953 8.9375,-0.94099 z"
           id="path387226"
           sodipodi:nodetypes="ccc" />
        <ellipse
           style="font-variation-settings:normal;vector-effect:none;fill:#4b4633;fill-opacity:1;stroke:none;stroke-width:0.605725;stroke-linecap:round;stroke-linejoin:round;stroke-miterlimit:4;stroke-dasharray:none;stroke-dashoffset:0;stroke-opacity:1;-inkscape-stroke:none;paint-order:stroke fill markers;stop-color:#000000"
           id="ellipse387228"
           cx="118.01393"
           cy="110.98637"
           rx="2.9660461"
           ry="2.9186234"
           transform="matrix(-0.99969636,-0.02464098,-0.02464098,0.99969636,0,0)" />
        <path
           style="fill:none;fill-opacity:1;stroke:#4b4633;stroke-width:0.870335;stroke-linecap:butt;stroke-linejoin:miter;stroke-miterlimit:4;stroke-dasharray:none;stroke-dashoffset:0;stroke-opacity:1"
           d="m -116.09536,108.44288 c -1.53445,2.26831 -6.39543,2.34819 -8.9375,0.94099 -0.0588,-0.22447 -0.0467,-0.50755 0.0267,-0.8236 0.60681,-2.61193 5.39894,-7.47557 8.91075,-0.11739 z"
           id="path387230"
           sodipodi:nodetypes="ccsc" />
        <ellipse
           style="font-variation-settings:normal;vector-effect:none;fill:#ffffff;fill-opacity:1;stroke:none;stroke-width:0.580223;stroke-linecap:round;stroke-linejoin:round;stroke-miterlimit:4;stroke-dasharray:none;stroke-dashoffset:0;stroke-opacity:1;-inkscape-stroke:none;paint-order:stroke fill markers;stop-color:#000000"
           id="ellipse387232"
           cx="117.01968"
           cy="110.39908"
           rx="1.051622"
           ry="0.6087051"
           transform="matrix(-0.99969636,-0.02464098,-0.02464098,0.99969636,0,0)" />
      </g>
      <path
         id="path387236"
         style="font-variation-settings:normal;fill:none;fill-opacity:1;stroke:#f9cf6e;stroke-width:1.44027;stroke-linecap:round;stroke-linejoin:round;stroke-miterlimit:4;stroke-dasharray:none;stroke-dashoffset:0;stroke-opacity:1;stop-color:#000000"
         d="m 122.08708,114.61412 c -1.93854,-1.74405 -5.35715,-1.79823 -7.02395,-1.61201 m 10.99966,2.38471 c -3.12073,-1.03618 -6.0367,-0.67262 -8.47228,1.07356 m 14.1671,-1.0393 c -5.83054,-0.5297 -7.47899,0.36835 -9.58714,2.13236"
         sodipodi:nodetypes="cccccc" />
      <path
         id="path387240"
         style="font-variation-settings:normal;fill:none;fill-opacity:1;stroke:#f9cf6e;stroke-width:1.57432;stroke-linecap:round;stroke-linejoin:round;stroke-miterlimit:4;stroke-dasharray:none;stroke-dashoffset:0;stroke-opacity:1;stop-color:#000000"
         d="m 103.76592,102.75566 3.64371,-27.229856 c -0.71806,0.344231 -2.98016,2.0061 -2.31357,5.412589 -2.22761,0.978062 -2.22806,2.057326 -2.10116,5.028634 -3.60313,1.463223 -0.90033,6.849983 -0.68369,6.878651 0.31721,1.566907 -1.21235,3.869886 0.52401,5.463749 1.21975,0.913564 0.86839,0.553603 0.9307,4.446233 z" />
      <path
         id="path387242"
         style="font-variation-settings:normal;fill:none;fill-opacity:1;stroke:#f9cf6e;stroke-width:1.57432;stroke-linecap:round;stroke-linejoin:round;stroke-miterlimit:4;stroke-dasharray:none;stroke-dashoffset:0;stroke-opacity:1;stop-color:#000000"
         d="m 103.63259,103.75147 c 0.0839,-0.19826 0.14177,-0.36784 0.14005,-0.48318 -0.005,-0.19666 -0.004,-0.33451 -0.007,-0.51263 z" />
      <path
         id="path387244"
         style="font-variation-settings:normal;fill:none;fill-opacity:1;stroke:#f9cf6e;stroke-width:1.57432;stroke-linecap:round;stroke-linejoin:round;stroke-miterlimit:4;stroke-dasharray:none;stroke-dashoffset:0;stroke-opacity:1;stop-color:#000000"
         d="m 103.03625,108.20598 0.59634,-4.45451 c -0.43664,1.03254 -1.7036,3.02972 -0.59634,4.45451 z" />
      <path
         id="path387246"
         style="font-variation-settings:normal;fill:none;fill-opacity:1;stroke:#f9cf6e;stroke-width:1.57432;stroke-linecap:round;stroke-linejoin:round;stroke-miterlimit:4;stroke-dasharray:none;stroke-dashoffset:0;stroke-opacity:1;stop-color:#000000"
         d="m 98.68438,202.34968 c 0.6164,-0.9016 0.97396,-1.812 3.26975,-2.56842 0.63272,-0.74197 0.92117,-1.56956 0.78497,-2.70526 -0.16362,-1.36408 2.99407,-0.98353 3.24373,-1.07383 0.7832,-0.28357 -1.40938,-2.90328 -0.6165,-4.7315 0.47913,-1.1049 1.31998,-1.45403 1.45986,-2.64635 0.30692,-2.6173 -1.43568,-5.20272 -0.008,-7.77575 0.92567,-1.66852 -0.34626,-2.37231 -0.73223,-4.1584 -0.34269,-1.58567 -0.17444,-3.45533 0.24752,-5.00745 0.11361,-0.41772 0.21762,-0.65458 0.1421,-1.16479 -0.20177,-1.64499 -1.43213,-3.18662 -1.64589,-4.9413 -0.27085,-2.22269 0.8218,-3.82223 0.76377,-5.2405 -0.0676,-1.62106 -1.11188,-3.14977 -1.21801,-4.84312 -0.13292,-2.13792 0.77745,-4.2199 0.70385,-6.31434 -0.0408,-1.15926 -0.97415,-2.25211 -0.93173,-3.73776 0.0262,-0.91238 0.60801,-1.81441 0.57102,-2.69751 -0.0763,-1.82945 -0.97322,-4.72767 -1.18856,-6.55205 -0.37579,-3.18355 0.31988,-2.95139 0.3974,-6.10919 -2.31346,-2.8759 -0.0527,-5.07561 -0.31937,-6.92671 -1.48461,-2.31025 -0.05,-4.37271 0.10078,-5.60431 0.264,-2.15592 -0.27837,-3.21643 0.31935,-4.7072 0.7248,-1.80769 -0.027,-1.85758 0.0708,-3.81321 -0.49027,-0.23672 -0.44326,0.11718 -0.68093,-0.18865"
         sodipodi:nodetypes="ccscscssscsccsccsccsscc" />
      <path
         style="font-variation-settings:normal;fill:none;fill-opacity:1;stroke:#f9cf6e;stroke-width:1.57924;stroke-linecap:round;stroke-linejoin:round;stroke-miterlimit:4;stroke-dasharray:none;stroke-dashoffset:0;stroke-opacity:1;stop-color:#000000"
         d="m 163.56985,206.64744 c 6e-4,-0.63789 0.55673,-1.41152 0.54213,-3.60444 -0.0166,-2.49916 -1.80374,-3.30811 -1.94367,-5.59793 -0.0738,-1.20835 1.69368,-2.1036 0.3276,-5.91412 -0.5735,-1.59962 -2.3913,-2.98092 -2.54672,-4.60589 -0.14861,-1.55491 0.83594,-2.00384 0.76874,-4.22423 -0.0501,-1.65529 -1.40282,-3.93809 -1.28344,-5.48373 0.18066,-2.3389 1.26597,-2.57319 1.11227,-5.0437 -0.1107,-1.78874 -0.22174,-2.15286 -0.48139,-3.82345 -0.3575,-2.30064 0.59206,-2.55874 0.29309,-4.85232 -0.21403,-1.64229 -0.58383,-1.76516 -0.78299,-3.28011 -0.0861,-0.65577 0.79144,-3.41629 0.89551,-4.1949 0.20825,-1.55865 -0.41649,-2.6857 -0.23669,-3.58996 1.68683,-4.24164 0.62132,-7.17246 0.31681,-8.57922 1.66589,-3.19931 1.25867,-5.07075 0.24369,-7.67538 -0.50421,-1.2939 2.73103,-3.38876 0.31922,-7.82778 1.55732,-3.88659 0.99216,-4.92678 0.0223,-6.79025 1.57015,-2.87494 0.63084,-3.60811 0.0135,-5.00081 0.48346,-2.16464 0.6545,-3.75038 0.0886,-5.45682 0.74436,-3.00602 -0.1508,-4.64381 -0.9156,-6.39042 0.64176,-2.0089 0.74754,-5.075956 -0.37534,-6.960104"
         id="path387248"
         sodipodi:nodetypes="cssscsscssscccscccccc" />
      <path
         style="font-variation-settings:normal;fill:none;fill-opacity:1;stroke:#f9cf6e;stroke-width:1.57924;stroke-linecap:round;stroke-linejoin:round;stroke-miterlimit:4;stroke-dasharray:none;stroke-dashoffset:0;stroke-opacity:1;stop-color:#000000"
         d="m 126.59611,74.352762 c -1.03762,1.100618 -0.68324,0.696578 -3.25989,2.256461 -1.13015,0.684184 -1.75821,3.059452 -2.03053,4.226893 -0.5091,1.294032 -1.93318,1.400012 -2.88523,2.312921 -0.77964,0.449602 -3.41117,3.312333 -3.64567,5.266177 -3.24234,2.43138 -2.892,2.297377 -3.71159,5.248261"
         id="path387250"
         sodipodi:nodetypes="cscccc" />
      <path
         style="font-variation-settings:normal;vector-effect:none;fill:none;fill-opacity:1;stroke:#f9cf6e;stroke-width:1.05282;stroke-linecap:round;stroke-linejoin:round;stroke-miterlimit:4;stroke-dasharray:none;stroke-dashoffset:0;stroke-opacity:1;-inkscape-stroke:none;stop-color:#000000"
         d="m 150.49726,67.14185 c 0,0 1.33367,-1.883564 2.42099,-3.097813 2.14109,-2.391034 2.77377,-4.605076 3.7258,-5.055843 1.17071,-0.554302 2.30354,0.682874 2.30354,0.682874 1.65494,2.332964 0.10256,10.5622 0.36416,16.434734"
         id="path387252"
         sodipodi:nodetypes="csscc" />
      <path
         id="path387254"
         style="font-variation-settings:normal;fill:none;fill-opacity:1;stroke:#4b4633;stroke-width:0.526411;stroke-linecap:round;stroke-linejoin:round;stroke-miterlimit:4;stroke-dasharray:none;stroke-dashoffset:0;stroke-opacity:1;stop-color:#000000"
         d="m 156.10034,115.83521 0.28574,0.55188 m -2.6291,0.18409 0.39904,0.86523 m -2.92006,-0.67949 0.34688,1.62525"
         sodipodi:nodetypes="cccccc" />
      <path
         style="font-variation-settings:normal;fill:none;fill-opacity:1;stroke:#f9cf6e;stroke-width:1.57924;stroke-linecap:round;stroke-linejoin:round;stroke-miterlimit:4;stroke-dasharray:none;stroke-dashoffset:0;stroke-opacity:1;stop-color:#000000"
         d="m 156.85324,99.043134 c 2.0521,-0.442719 4.69312,-2.945822 4.38723,-5.023239 0.57292,-0.201684 3.44087,-1.521059 2.20758,-5.201563 -0.0385,-1.979358 0.17426,-4.110772 -2.08187,-6.057356 0.0438,-4.208311 -0.38128,-4.335702 -1.82502,-6.280431 -3.83058,-5.879484 -2.38276,-5.285296 -6.75847,-6.893211 -1.71712,-1.590701 -2.49275,-3.852444 -9.94856,-3.09892 -3.94049,-3.680999 -10.70444,-2.689541 -11.10003,-1.560952 -4.13173,-2.149655 -6.92723,0.214467 -8.34028,1.048373 -0.90937,-0.453016 -5.2769,-0.08322 -6.08423,2.099592"
         id="path387256"
         sodipodi:nodetypes="cccccccccc" />
      <path
         style="font-variation-settings:normal;vector-effect:none;fill:none;fill-opacity:1;stroke:#f9cf6e;stroke-width:1.05282;stroke-linecap:round;stroke-linejoin:round;stroke-miterlimit:4;stroke-dasharray:none;stroke-dashoffset:0;stroke-opacity:1;-inkscape-stroke:none;stop-color:#000000"
         d="m 154.96367,69.735818 c 0,0 1.50296,-4.933177 2.09251,-5.325012"
         id="path387258" />
      <path
         id="path387260"
         style="font-variation-settings:normal;fill:none;fill-opacity:1;stroke:#f9cf6e;stroke-width:1.10688;stroke-linecap:round;stroke-linejoin:round;stroke-miterlimit:4;stroke-dasharray:none;stroke-dashoffset:0;stroke-opacity:1;stop-color:#000000"
         d="m 155.45863,113.45065 c 2.10704,-0.55049 3.56557,-0.6195 5.41319,0.0241 m -8.55547,0.19311 c 1.70083,-0.12681 3.50054,-0.51579 5.22687,1.02359"
         sodipodi:nodetypes="cccc" />
      <path
         style="font-variation-settings:normal;vector-effect:none;fill:none;fill-opacity:1;stroke:#4b4633;stroke-width:1.05282;stroke-linecap:round;stroke-linejoin:round;stroke-miterlimit:4;stroke-dasharray:none;stroke-dashoffset:0;stroke-opacity:1;-inkscape-stroke:none;stop-color:#000000"
         d="m 147.08031,105.92886 c 0,0 -1.56616,4.82815 1.92962,6.64442 3.49579,1.81624 8.62852,3.32236 9.57931,4.73733 0.95081,1.41496 0.42364,3.38571 0.42364,3.38571 -0.5227,0.92201 -0.93659,1.97215 -2.22312,2.41351"
         id="path387262"
         sodipodi:nodetypes="csscc" />
      <path
         style="font-variation-settings:normal;vector-effect:none;fill:none;fill-opacity:1;stroke:#4b4633;stroke-width:0.981347;stroke-linecap:round;stroke-linejoin:round;stroke-miterlimit:4;stroke-dasharray:none;stroke-dashoffset:0;stroke-opacity:1;-inkscape-stroke:none;stop-color:#000000"
         d="m 157.19417,120.35555 c -0.63699,-0.55395 -2.32945,-2.8e-4 -3.81994,1.30349 -1.32422,1.15827 3.36993,-1.25315 3.36993,-1.25315 -2.25695,1.06609 -5.30239,2.89864 -5.53742,4.48239"
         id="path387264"
         sodipodi:nodetypes="cscc" />
      <path
         id="path387266"
         style="font-variation-settings:normal;fill:none;fill-opacity:1;stroke:#4b4633;stroke-width:0.526411;stroke-linecap:round;stroke-linejoin:round;stroke-miterlimit:4;stroke-dasharray:none;stroke-dashoffset:0;stroke-opacity:1;stop-color:#000000"
         d="m 143.42069,116.58169 -0.0399,0.20219 m 2.52249,0.25884 -0.31784,0.89824 m 2.74412,-0.71841 0.0641,0.99679"
         sodipodi:nodetypes="cccccc" />
      <path
         style="vector-effect:none;fill:#ffffff;fill-opacity:1;stroke:none;stroke-width:0.240046;stroke-linecap:butt;stroke-linejoin:miter;stroke-miterlimit:4;stroke-dasharray:none;stroke-dashoffset:0;stroke-opacity:1"
         d="m 141.49898,130.62495 0.0554,1.51888 c 0,0 5.30085,1.12406 5.93997,0.93645 0.63912,-0.18764 1.50383,-0.2588 1.50383,-0.2588 0,0 1.24732,0.40739 2.13877,0.1059 0.89143,-0.30147 1.43667,-0.45845 1.43667,-0.45845 0,0 0.1883,0.2864 1.12071,0.34235 0.93238,0.0561 1.90813,0.0473 2.0447,-0.14683 0.13656,-0.1942 -0.015,-1.22237 -0.0685,-1.36992 -0.0531,-0.1476 -2.17986,-0.66281 -2.64221,-0.94318 -0.46237,-0.28036 -2.31546,-1.34228 -2.31546,-1.34228 0,0 -1.64952,1.90562 -2.54473,2.12487 -0.89524,0.21923 -6.6698,-0.50882 -6.6698,-0.50882 z"
         id="path387268"
         sodipodi:nodetypes="ccscsccccscscc" />
      <path
         style="font-variation-settings:normal;vector-effect:none;fill:none;fill-opacity:1;stroke:#4b4633;stroke-width:1.05282;stroke-linecap:round;stroke-linejoin:round;stroke-miterlimit:4;stroke-dasharray:none;stroke-dashoffset:0;stroke-opacity:1;-inkscape-stroke:none;stop-color:#000000"
         d="m 158.7057,121.84549 c 0,0 1.87734,4.91397 0.39293,7.1922 -2.44288,3.74921 -7.55903,1.06339 -8.03713,-0.30938"
         id="path387270"
         sodipodi:nodetypes="csc" />
      <path
         style="font-variation-settings:normal;vector-effect:none;fill:none;fill-opacity:1;stroke:#4b4633;stroke-width:1.05282;stroke-linecap:round;stroke-linejoin:round;stroke-miterlimit:4;stroke-dasharray:none;stroke-dashoffset:0;stroke-opacity:1;-inkscape-stroke:none;stop-color:#000000"
         d="m 151.02308,124.8619 c 6e-5,0 1.24568,5.3082 -3.17869,6.24275 -7.1383,1.50781 -12.52296,-3.84731 -12.46176,-5.6879"
         id="path387272"
         sodipodi:nodetypes="csc" />
      <path
         style="font-variation-settings:normal;vector-effect:none;fill:none;fill-opacity:1;stroke:#4b4633;stroke-width:1.05282;stroke-linecap:round;stroke-linejoin:round;stroke-miterlimit:4;stroke-dasharray:none;stroke-dashoffset:0;stroke-opacity:1;-inkscape-stroke:none;stop-color:#000000"
         d="m 152.22621,132.64548 c -0.0756,0.95735 0.11874,1.66348 0.7828,1.36349 1.4843,-0.67042 3.52929,1.44146 0.71698,3.15129 -0.93333,0.41339 0.49251,1.48998 -1.08296,3.06249"
         id="path387274"
         sodipodi:nodetypes="cscc" />
      <path
         style="font-variation-settings:normal;vector-effect:none;fill:none;fill-opacity:1;stroke:#4b4633;stroke-width:1.05282;stroke-linecap:round;stroke-linejoin:round;stroke-miterlimit:4;stroke-dasharray:none;stroke-dashoffset:0;stroke-opacity:1;-inkscape-stroke:none;stop-color:#000000"
         d="m 152.67054,134.17378 c -1.09853,0.69434 -7.12102,2.59471 -11.32533,0.45881 -3.87321,-1.96765 -5.55186,-6.73286 -5.70658,-8.36591"
         id="path387276"
         sodipodi:nodetypes="csc" />
      <path
         style="font-variation-settings:normal;vector-effect:none;fill:none;fill-opacity:1;stroke:#4b4633;stroke-width:1.05282;stroke-linecap:round;stroke-linejoin:round;stroke-miterlimit:4;stroke-dasharray:none;stroke-dashoffset:0;stroke-opacity:1;-inkscape-stroke:none;stop-color:#000000"
         d="m 136.51356,124.91141 c -1.10325,-0.44137 -2.06553,0.0566 -2.50273,1.05032"
         id="path387278"
         sodipodi:nodetypes="cc" />
      <path
         style="font-variation-settings:normal;fill:none;fill-opacity:1;stroke:#f9cf6e;stroke-width:1.57924;stroke-linecap:round;stroke-linejoin:round;stroke-miterlimit:4;stroke-dasharray:none;stroke-dashoffset:0;stroke-opacity:1;stop-color:#000000"
         d="m 131.58817,141.02846 c 3.46899,-0.8846 3.82615,3.88861 3.77159,3.11814 4.1824,-1.85167 4.0846,-0.2304 6.37336,1.25595 -0.51297,0.48811 4.84248,-4.11591 8.42515,0.52977 -0.035,-1.03645 2.1859,-5.42077 5.44104,-3.09592"
         id="path387280"
         sodipodi:nodetypes="ccccc" />
      <path
         style="font-variation-settings:normal;fill:none;fill-opacity:1;stroke:#4b4633;stroke-width:0.960182;stroke-linecap:round;stroke-linejoin:round;stroke-miterlimit:4;stroke-dasharray:none;stroke-dashoffset:0;stroke-opacity:1;stop-color:#000000"
         d="m 148.60452,130.92143 c -0.13314,0.4103 0.15733,1.78376 0.0131,1.87128 -1.14918,0.6979 -3.63356,0.47751 -3.65154,0.16269 -0.0192,-0.33793 0.008,-1.5362 0.008,-1.5362"
         id="path387282"
         sodipodi:nodetypes="cssc" />
      <path
         style="font-variation-settings:normal;fill:#ffffff;fill-opacity:1;stroke:#4b4633;stroke-width:0.960182;stroke-linecap:round;stroke-linejoin:round;stroke-miterlimit:4;stroke-dasharray:none;stroke-dashoffset:0;stroke-opacity:1;stop-color:#000000"
         d="m 152.2095,132.41348 c -0.43626,0.80333 -2.96823,0.6169 -3.23567,0.29248"
         id="path387284"
         sodipodi:nodetypes="cc" />
      <path
         style="font-variation-settings:normal;fill:none;fill-opacity:1;stroke:#4b4633;stroke-width:0.960182;stroke-linecap:round;stroke-linejoin:round;stroke-miterlimit:4;stroke-dasharray:none;stroke-dashoffset:0;stroke-opacity:1;stop-color:#000000"
         d="m 155.76536,131.00474 c -0.13314,0.41031 -0.006,1.21463 -0.15894,1.28528 -0.92003,0.42539 -2.65791,0.61331 -3.06264,0.22366 -0.24387,-0.23471 -0.18916,-2.38415 -0.18916,-2.38415"
         id="path387286"
         sodipodi:nodetypes="cssc" />
      <path
         style="vector-effect:none;fill:#4b4633;fill-opacity:1;stroke:none;stroke-width:0.240046;stroke-linecap:butt;stroke-linejoin:miter;stroke-miterlimit:4;stroke-dasharray:none;stroke-dashoffset:0;stroke-opacity:1"
         d="m 149.97632,130.33785 c 0.54757,-0.4063 1.0931,-0.66082 2.24565,-0.034 l -1.22635,-1.68586 z"
         id="path387288"
         sodipodi:nodetypes="cccc" />
      <path
         style="font-variation-settings:normal;fill:none;fill-opacity:1;stroke:#4b4633;stroke-width:0.960182;stroke-linecap:round;stroke-linejoin:round;stroke-miterlimit:4;stroke-dasharray:none;stroke-dashoffset:0;stroke-opacity:1;stop-color:#000000"
         d="m 144.83587,131.41309 c -0.13314,0.4103 0.10799,1.23681 -0.038,1.32144 -1.21888,0.7069 -3.26534,-0.11637 -3.37011,-0.60522 -0.10342,-0.48273 -0.0843,-1.47517 -0.0524,-1.45265"
         id="path387290"
         sodipodi:nodetypes="cssc" />
    </g>
  </g>
</svg>
