<?xml version="1.0" encoding="utf-8"?>
<!-- Generator: Adobe Illustrator 25.3.1, SVG Export Plug-In . SVG Version: 6.00 Build 0)  -->
<svg version="1.1"
	 id="svg8" inkscape:version="1.1.1 (3bf5ae0, 2021-09-20)" sodipodi:docname="2.svg" xmlns:cc="http://creativecommons.org/ns#" xmlns:dc="http://purl.org/dc/elements/1.1/" xmlns:inkscape="http://www.inkscape.org/namespaces/inkscape" xmlns:rdf="http://www.w3.org/1999/02/22-rdf-syntax-ns#" xmlns:sodipodi="http://sodipodi.sourceforge.net/DTD/sodipodi-0.dtd" xmlns:svg="http://www.w3.org/2000/svg"
	 xmlns="http://www.w3.org/2000/svg" xmlns:xlink="http://www.w3.org/1999/xlink" x="0px" y="0px" viewBox="0 0 1024 1024"
	 style="enable-background:new 0 0 1024 1024;" xml:space="preserve">
<style type="text/css">
	.st0{fill:#424991;}
	.st1{fill:#071051;}
	.st2{fill:url(#path147507_1_);stroke:#FFB41D;stroke-width:1.0893;stroke-miterlimit:15.1181;}
	.st3{fill:url(#path147509_1_);stroke:#FFB41D;stroke-width:1.0893;stroke-miterlimit:15.1181;}
	.st4{fill:url(#path147511_1_);stroke:#FFB41D;stroke-width:1.0893;stroke-miterlimit:15.1181;}
	.st5{fill:url(#path147513_1_);stroke:#FFB41D;stroke-width:1.0893;stroke-miterlimit:15.1181;}
	.st6{fill:url(#path147625_1_);stroke:#FFB41D;stroke-width:1.0893;stroke-miterlimit:15.1181;}
	.st7{fill:url(#path147627_1_);stroke:#FFB41D;stroke-width:1.0893;stroke-miterlimit:15.1181;}
	.st8{fill:url(#path147629_1_);stroke:#FFB41D;stroke-width:1.0893;stroke-miterlimit:15.1181;}
	.st9{fill:url(#path147631_1_);stroke:#FFB41D;stroke-width:1.0893;stroke-miterlimit:15.1181;}
	.st10{fill:#F3E8CC;}
	.st11{fill:#FFF0BE;}
	.st12{fill:#FFE99F;}
	.st13{fill:#F9CF6E;}
	.st14{fill:#A37070;}
	.st15{fill:none;stroke:#4B4633;stroke-width:3.9792;stroke-linecap:round;stroke-linejoin:round;stroke-miterlimit:15.1181;}
	.st16{fill:none;stroke:#4B4633;stroke-width:3.7996;stroke-linecap:round;stroke-linejoin:round;stroke-miterlimit:15.1181;}
	.st17{fill:none;stroke:#F9CF6E;stroke-width:3.9792;stroke-linecap:round;stroke-linejoin:round;stroke-miterlimit:15.1181;}
	.st18{fill:#FFFFFF;}
	.st19{fill:#4B4633;}
	.st20{fill:none;stroke:#4B4633;stroke-width:0.8703;}
	.st21{fill:none;stroke:#F9CF6E;stroke-width:5.9688;stroke-linecap:round;stroke-linejoin:round;stroke-miterlimit:15.1181;}
	.st22{fill:none;stroke:#F9CF6E;stroke-width:5.4435;stroke-linecap:round;stroke-linejoin:round;stroke-miterlimit:15.1181;}
	.st23{fill:none;stroke:#4B4633;stroke-width:5.5286;stroke-miterlimit:25.4092;}
	.st24{fill:#2C2A1E;stroke:#4B4633;stroke-width:3.9792;stroke-linecap:round;stroke-linejoin:round;stroke-miterlimit:15.1181;}
	.st25{fill:none;stroke:#F9CF6E;stroke-width:5.9502;stroke-linecap:round;stroke-linejoin:round;}
	.st26{fill:none;stroke:#4B4633;stroke-width:1.9896;stroke-linecap:round;stroke-linejoin:round;stroke-miterlimit:15.1181;}
	.st27{fill:none;stroke:#F9CF6E;stroke-width:4.1835;stroke-linecap:round;stroke-linejoin:round;stroke-miterlimit:15.1181;}
	.st28{fill:none;stroke:#4B4633;stroke-width:3.709;stroke-linecap:round;stroke-linejoin:round;stroke-miterlimit:15.1181;}
	.st29{fill:none;stroke:#4B4633;stroke-width:3.629;stroke-linecap:round;stroke-linejoin:round;stroke-miterlimit:15.1181;}
	.st30{fill:#FFFFFF;stroke:#4B4633;stroke-width:3.629;stroke-linecap:round;stroke-linejoin:round;stroke-miterlimit:15.1181;}
	.st31{fill:none;stroke:#F9CF6E;stroke-width:5.5775;stroke-linecap:round;stroke-linejoin:round;stroke-miterlimit:15.1181;}
	.st32{clip-path:url(#SVGID_2_);}
	.st33{fill:#FFD31A;}
	.st34{fill:#FFE98F;}
	.st35{fill:#EA9C00;}
	.st36{fill:#FFB41D;}
	.st37{fill:none;stroke:#EA9C00;stroke-width:0.8025;stroke-linecap:round;stroke-linejoin:round;stroke-miterlimit:1.9324;}
	.st38{fill:#FFD31A;stroke:#EA9C00;stroke-width:1;stroke-miterlimit:15.1181;}
	.st39{fill:url(#path101968_1_);stroke:#FFB41D;stroke-width:1.0893;stroke-miterlimit:15.1181;}
	.st40{fill:url(#path147363_1_);stroke:#FFB41D;stroke-width:1.0893;stroke-miterlimit:15.1181;}
	.st41{fill:url(#path147371_1_);stroke:#FFB41D;stroke-width:1.0893;stroke-miterlimit:15.1181;}
	.st42{fill:url(#path147373_1_);stroke:#FFB41D;stroke-width:1.0893;stroke-miterlimit:15.1181;}
	.st43{fill:url(#path147381_1_);stroke:#FFB41D;stroke-width:1.0893;stroke-miterlimit:15.1181;}
	.st44{fill:url(#path147383_1_);stroke:#FFB41D;stroke-width:1.0893;stroke-miterlimit:15.1181;}
	.st45{fill:url(#path147391_1_);stroke:#FFB41D;stroke-width:1.0893;stroke-miterlimit:15.1181;}
	.st46{fill:url(#path147395_1_);stroke:#FFB41D;stroke-width:1.0893;stroke-miterlimit:15.1181;}
	.st47{fill:url(#path147399_1_);stroke:#FFB41D;stroke-width:1.0893;stroke-miterlimit:15.1181;}
	.st48{fill:url(#path147403_1_);stroke:#FFB41D;stroke-width:1.0893;stroke-miterlimit:15.1181;}
	.st49{fill:url(#path147407_1_);stroke:#FFB41D;stroke-width:1.0893;stroke-miterlimit:15.1181;}
	.st50{fill:url(#path147495_1_);stroke:#FFB41D;stroke-width:1.0893;stroke-miterlimit:15.1181;}
	.st51{fill:url(#path147613_1_);stroke:#FFB41D;stroke-width:1.0893;stroke-miterlimit:15.1181;}
	.st52{fill:url(#path147615_1_);stroke:#FFB41D;stroke-width:1.0893;stroke-miterlimit:15.1181;}
	.st53{fill:url(#path147619_1_);stroke:#FFB41D;stroke-width:1.0893;stroke-miterlimit:15.1181;}
	.st54{fill:url(#path147621_1_);stroke:#FFB41D;stroke-width:1.0893;stroke-miterlimit:15.1181;}
	.st55{fill:url(#path147635_1_);stroke:#FFB41D;stroke-width:1.0893;stroke-miterlimit:15.1181;}
	.st56{fill:url(#path147637_1_);stroke:#FFB41D;stroke-width:1.0893;stroke-miterlimit:15.1181;}
	.st57{fill:url(#path147639_1_);stroke:#FFB41D;stroke-width:1.0893;stroke-miterlimit:15.1181;}
	.st58{fill:url(#path147641_1_);stroke:#FFB41D;stroke-width:1.0893;stroke-miterlimit:15.1181;}
	.st59{fill:url(#path147643_1_);stroke:#FFB41D;stroke-width:1.0893;stroke-miterlimit:15.1181;}
	.st60{fill:url(#path147645_1_);stroke:#FFB41D;stroke-width:1.0893;stroke-miterlimit:15.1181;}
	.st61{fill:url(#path147647_1_);stroke:#FFB41D;stroke-width:1.0893;stroke-miterlimit:15.1181;}
	.st62{fill:url(#path147649_1_);stroke:#FFB41D;stroke-width:1.0893;stroke-miterlimit:15.1181;}
	.st63{fill:url(#path147875_1_);stroke:#FFB41D;stroke-width:1.0893;stroke-miterlimit:15.1181;}
	.st64{fill:url(#path147877_1_);stroke:#FFB41D;stroke-width:1.0893;stroke-miterlimit:15.1181;}
</style>
<sodipodi:namedview  bordercolor="#666666" borderlayer="true" borderopacity="1.0" id="base" inkscape:current-layer="layer1" inkscape:cx="535.38085" inkscape:cy="599.52554" inkscape:document-rotation="0" inkscape:document-units="px" inkscape:guide-bbox="true" inkscape:pagecheckerboard="1" inkscape:pageopacity="0" inkscape:pageshadow="2" inkscape:snap-global="false" inkscape:window-height="967" inkscape:window-maximized="1" inkscape:window-width="1280" inkscape:window-x="0" inkscape:window-y="1" inkscape:zoom="0.98994949" pagecolor="#585858" showgrid="false" showguides="true" units="px">
	<sodipodi:guide  id="guide1250844" orientation="0,-1" position="178.06115,60.704554"></sodipodi:guide>
	<sodipodi:guide  id="guide1250846" orientation="1,0" position="60.826371,51.358056"></sodipodi:guide>
</sodipodi:namedview>
<g id="layer1" inkscape:groupmode="layer" inkscape:label="Layer 1">
	<circle id="circle1248940" class="st0" cx="512" cy="512" r="315.16"/>
	<g id="g387152" transform="translate(816.47277,1.4198197)">
		<circle id="circle159542" class="st1" cx="-304.47" cy="510.76" r="282.2"/>
		<g id="g147515" transform="rotate(31.976055,-636.81783,185.14088)">
			
				<linearGradient id="path147507_1_" gradientUnits="userSpaceOnUse" x1="-976.1022" y1="915.2409" x2="-974.0968" y2="913.4158" gradientTransform="matrix(2.3624 -2.9502 -2.9502 -2.3624 4964.999 -374.6183)">
				<stop  offset="0" style="stop-color:#FFD31A"/>
				<stop  offset="1" style="stop-color:#FFE98F"/>
			</linearGradient>
			<path id="path147507" sodipodi:nodetypes="cscsccccscscc" class="st2" d="M-42.02,341.08c0.15-0.16,0.3-0.31,0.46-0.46
				c3.88-3.81,8.61-5.29,10.56-3.3c1.95,1.99,0.38,6.68-3.5,10.49c-3.88,3.81-8.61,5.29-10.55,3.3c-1.43-1-0.71-3.55-0.41-4.39
				c-0.88,0.36-2.72,1.25-4.55,3.24c-0.32,2.07-0.02,3.75,1.12,4.92c3.01,3.07,10.32,0.79,16.32-5.1c6-5.89,8.42-13.15,5.41-16.22
				c-3.01-3.07-10.32-0.79-16.32,5.1c-1.69,1.66-3.67,4.04-4.24,5.03C-46.64,343.09-44.11,341.69-42.02,341.08L-42.02,341.08z"/>
			
				<linearGradient id="path147509_1_" gradientUnits="userSpaceOnUse" x1="-968.3567" y1="918.5605" x2="-966.3513" y2="916.7355" gradientTransform="matrix(2.1003 -3.1422 -3.1422 -2.1003 4886.7319 -780.0693)">
				<stop  offset="0" style="stop-color:#FFD31A"/>
				<stop  offset="1" style="stop-color:#FFE98F"/>
			</linearGradient>
			<path id="path147509" sodipodi:nodetypes="cscsccccscscc" class="st3" d="M-34.49,331.67c0.13-0.17,0.27-0.34,0.42-0.5
				c3.54-4.13,8.12-6.01,10.23-4.2c2.11,1.81,0.95,6.63-2.58,10.75c-3.54,4.13-8.12,6.01-10.23,4.2c-1.51-0.87-1.01-3.48-0.79-4.34
				c-0.84,0.44-2.6,1.48-4.26,3.62c-0.14,2.08,0.3,3.74,1.54,4.8c3.27,2.8,10.35-0.1,15.82-6.48c5.47-6.38,7.26-13.83,3.99-16.63
				c-3.27-2.8-10.35,0.1-15.82,6.49c-1.54,1.8-3.31,4.34-3.79,5.37C-38.92,334.08-36.52,332.46-34.49,331.67L-34.49,331.67z"/>
			
				<linearGradient id="path147511_1_" gradientUnits="userSpaceOnUse" x1="-953.2845" y1="922.924" x2="-951.2791" y2="921.0989" gradientTransform="matrix(1.5721 -3.437 -3.437 -1.5721 4644.0596 -1502.5288)">
				<stop  offset="0" style="stop-color:#FFD31A"/>
				<stop  offset="1" style="stop-color:#FFE98F"/>
			</linearGradient>
			<path id="path147511" sodipodi:nodetypes="cscsccccscscc" class="st4" d="M-28.05,321.46c0.11-0.19,0.22-0.37,0.33-0.56
				c2.83-4.64,7.06-7.22,9.43-5.77c2.37,1.45,2,6.39-0.83,11.03c-2.83,4.64-7.06,7.22-9.43,5.77c-1.63-0.62-1.56-3.27-1.47-4.16
				c-0.76,0.57-2.33,1.87-3.62,4.25c0.19,2.08,0.9,3.64,2.29,4.49c3.67,2.24,10.2-1.75,14.58-8.93c4.38-7.17,4.96-14.81,1.29-17.05
				c-3.67-2.24-10.2,1.75-14.59,8.93c-1.24,2.02-2.58,4.81-2.88,5.91C-32.05,324.54-29.93,322.56-28.05,321.46L-28.05,321.46z"/>
			
				<linearGradient id="path147513_1_" gradientUnits="userSpaceOnUse" x1="-967.5656" y1="918.8561" x2="-965.5602" y2="917.0311" gradientTransform="matrix(2.0732 -3.1602 -3.1602 -2.0732 4891.5361 -841.2744)">
				<stop  offset="0" style="stop-color:#FFD31A"/>
				<stop  offset="1" style="stop-color:#FFE98F"/>
			</linearGradient>
			<path id="path147513" sodipodi:nodetypes="cscsccccscscc" class="st5" d="M-19.22,309.71c0.13-0.17,0.27-0.34,0.41-0.51
				c3.5-4.16,8.07-6.08,10.2-4.28c2.13,1.79,1.01,6.62-2.49,10.78c-3.5,4.16-8.07,6.08-10.2,4.28c-1.51-0.86-1.04-3.47-0.82-4.33
				c-0.84,0.44-2.59,1.5-4.23,3.66c-0.12,2.09,0.34,3.74,1.58,4.79c3.29,2.77,10.35-0.19,15.77-6.62
				c5.42-6.43,7.14-13.89,3.85-16.66c-3.29-2.77-10.35,0.19-15.77,6.62c-1.53,1.81-3.27,4.37-3.74,5.41
				C-23.63,312.15-21.24,310.51-19.22,309.71L-19.22,309.71z"/>
		</g>
		<g id="g147633" transform="matrix(-0.77516927,0.6317536,0.6317536,0.77516927,-1336.351,447.05551)">
			
				<linearGradient id="path147625_1_" gradientUnits="userSpaceOnUse" x1="19.2438" y1="260.3784" x2="21.2492" y2="258.5534" gradientTransform="matrix(-3.5551 -1.2829 1.2829 -3.5551 -867.3543 1685.8368)">
				<stop  offset="0" style="stop-color:#FFD31A"/>
				<stop  offset="1" style="stop-color:#FFE98F"/>
			</linearGradient>
			<path id="path147625" sodipodi:nodetypes="cscsccccscscc" class="st6" d="M-602.62,733.65c0.15-0.16,0.3-0.31,0.46-0.46
				c3.88-3.81,8.61-5.29,10.56-3.3c1.95,1.99,0.38,6.68-3.5,10.49c-3.88,3.81-8.61,5.29-10.55,3.3c-1.43-1-0.71-3.55-0.41-4.39
				c-0.88,0.36-2.72,1.25-4.55,3.24c-0.32,2.07-0.02,3.75,1.12,4.92c3.01,3.07,10.32,0.79,16.32-5.1c6-5.89,8.42-13.15,5.41-16.22
				c-3.01-3.07-10.32-0.79-16.32,5.1c-1.69,1.66-3.67,4.04-4.24,5.03C-607.24,735.66-604.71,734.26-602.62,733.65L-602.62,733.65z"
				/>
			
				<linearGradient id="path147627_1_" gradientUnits="userSpaceOnUse" x1="10.9879" y1="262.0669" x2="12.9932" y2="260.2419" gradientTransform="matrix(-3.6522 -0.9728 0.9728 -3.6522 -808.8669 1693.7812)">
				<stop  offset="0" style="stop-color:#FFD31A"/>
				<stop  offset="1" style="stop-color:#FFE98F"/>
			</linearGradient>
			<path id="path147627" sodipodi:nodetypes="cscsccccscscc" class="st7" d="M-595.09,724.24c0.13-0.17,0.27-0.34,0.42-0.5
				c3.54-4.13,8.12-6.01,10.23-4.2c2.11,1.81,0.95,6.63-2.58,10.75c-3.54,4.13-8.12,6.01-10.23,4.2c-1.51-0.87-1.01-3.48-0.79-4.34
				c-0.84,0.44-2.6,1.48-4.26,3.62c-0.14,2.08,0.3,3.74,1.54,4.8c3.27,2.8,10.35-0.1,15.82-6.48c5.47-6.38,7.26-13.83,3.99-16.63
				c-3.27-2.8-10.35,0.1-15.82,6.49c-1.54,1.8-3.31,4.34-3.79,5.37C-599.52,726.64-597.12,725.03-595.09,724.24L-595.09,724.24z"/>
			
				<linearGradient id="path147629_1_" gradientUnits="userSpaceOnUse" x1="-4.6547" y1="263.2994" x2="-2.6494" y2="261.4744" gradientTransform="matrix(-3.7606 -0.3777 0.3777 -3.7606 -704.3035 1703.9794)">
				<stop  offset="0" style="stop-color:#FFD31A"/>
				<stop  offset="1" style="stop-color:#FFE98F"/>
			</linearGradient>
			<path id="path147629" sodipodi:nodetypes="cscsccccscscc" class="st8" d="M-588.66,714.02c0.11-0.19,0.22-0.37,0.33-0.56
				c2.83-4.64,7.06-7.22,9.43-5.77c2.37,1.45,2,6.39-0.83,11.03c-2.83,4.64-7.06,7.22-9.43,5.77c-1.63-0.62-1.56-3.27-1.47-4.16
				c-0.76,0.57-2.33,1.87-3.62,4.25c0.19,2.08,0.9,3.64,2.29,4.49c3.67,2.24,10.2-1.75,14.58-8.93c4.38-7.17,4.96-14.81,1.29-17.05
				c-3.67-2.24-10.2,1.75-14.58,8.93c-1.24,2.02-2.58,4.81-2.88,5.91C-592.65,717.1-590.54,715.13-588.66,714.02L-588.66,714.02z"/>
			
				<linearGradient id="path147631_1_" gradientUnits="userSpaceOnUse" x1="10.1534" y1="262.1968" x2="12.1588" y2="260.3718" gradientTransform="matrix(-3.6604 -0.9413 0.9413 -3.6604 -788.4146 1673.309)">
				<stop  offset="0" style="stop-color:#FFD31A"/>
				<stop  offset="1" style="stop-color:#FFE98F"/>
			</linearGradient>
			<path id="path147631" sodipodi:nodetypes="cscsccccscscc" class="st9" d="M-579.82,702.27c0.13-0.17,0.27-0.34,0.41-0.51
				c3.5-4.16,8.07-6.08,10.2-4.28c2.13,1.79,1.01,6.62-2.49,10.78c-3.5,4.16-8.07,6.08-10.2,4.28c-1.51-0.86-1.04-3.47-0.82-4.33
				c-0.84,0.44-2.59,1.5-4.23,3.66c-0.12,2.09,0.34,3.74,1.58,4.79c3.29,2.77,10.35-0.19,15.77-6.62
				c5.42-6.43,7.14-13.89,3.85-16.66c-3.29-2.77-10.35,0.19-15.77,6.62c-1.53,1.81-3.27,4.37-3.74,5.41
				C-584.23,704.71-581.85,703.08-579.82,702.27L-579.82,702.27z"/>
		</g>
		<path id="path1194058" sodipodi:nodetypes="cscscscccscsssscc" class="st10" d="M-264.62,398.52c0,0-0.02,9.76,12.43,16.34
			c12.45,6.58,33.59,14.91,33.59,14.91s5.78,6.45,3.65,13.29c-2.12,6.85-1.05,9.42-1.05,9.42s5.22,18.97,0.91,24.28
			c-4.31,5.31-13.02,8.11-13.02,8.11l-12.53-5.1l-0.22,7.83l1.7,7.57c-0.62-2.75,10.68,6.84,10.6,7.89c0,0,8.84,19.48,7.96,21.57
			c-0.88,2.08-60.81,20.07-88.29,0.28c-27.48-19.79-28-59.4-25.31-70.08c2.69-10.68,17.8-42.99,22.58-48.65
			C-306.84,400.52-264.62,398.52-264.62,398.52L-264.62,398.52z"/>
		<path id="path161506" class="st11" d="M-442.34,757.03c1.11,0.63,2.22,1.26,3.35,1.87c2,1.09,4.01,2.15,6.04,3.19
			c2.03,1.04,4.07,2.05,6.13,3.04s4.13,1.96,6.21,2.9s4.18,1.86,6.29,2.75s4.23,1.76,6.37,2.6s4.29,1.66,6.45,2.45
			s4.33,1.56,6.52,2.29s4.38,1.45,6.59,2.14s4.43,1.35,6.66,1.98c2.23,0.63,4.48,1.24,6.73,1.82s4.52,1.13,6.79,1.66
			s4.56,1.02,6.86,1.49s4.6,0.91,6.92,1.32c2.32,0.41,4.64,0.8,6.98,1.16s4.68,0.69,7.03,0.98s4.72,0.57,7.09,0.81
			s4.75,0.45,7.14,0.63c2.39,0.18,4.78,0.33,7.19,0.46s4.82,0.21,7.24,0.28c2.42,0.06,4.85,0.09,7.29,0.09s4.86-0.03,7.28-0.09
			s4.83-0.15,7.24-0.28s4.8-0.27,7.19-0.46c2.39-0.18,4.77-0.39,7.14-0.63c2.37-0.24,4.73-0.51,7.09-0.81s4.7-0.63,7.04-0.98
			s4.66-0.74,6.98-1.16s4.62-0.85,6.92-1.32s4.58-0.97,6.86-1.49s4.54-1.08,6.79-1.66c2.25-0.58,4.5-1.19,6.73-1.82
			s4.45-1.3,6.66-1.98s4.41-1.4,6.59-2.14s4.36-1.5,6.52-2.29s4.31-1.61,6.45-2.45c1.76-0.69,3.5-1.41,5.24-2.14l-1.33-17.22
			l-6.01-18.48l1.68-21.33l-6.43-8.64l-4.44-9l3.64-17.38l-4.08-16.96c0,0,11.2-17.68,1.32-36.09c0.13-17.42,3.74-18.1-1.28-23.34
			c-2.78-5.02,3.21-22.26,3.21-22.26l-0.29-22.32c0,0,1.64-9,2.49-11.94c0.85-2.94-1.49-12.12-1.49-12.12l1.82-12.21l0.7-41.73
			c0.1-0.21,0.28-0.58,0.28-0.58s-0.14-1.17-0.22-2.86l0.04-2.22l-0.1,0.09c-0.02-2.73,0.19-6.01,1.14-8.28
			c1.9-4.57-1.12-15.28-1.12-15.28s0.51-4.54,1.88-6.55c1.37-2.01-2.19-16.88-1.16-24.67c1.02-7.78-4.54-33.95-3.25-37.92
			c1.29-3.97-3.85-24.53-3.85-24.53l6.66-14.49c0.36-1.98,9.8-1.77,7.76-5.77c-3.71-7.29,2.85-8.55,0.8-16.23
			c-0.26-6.48-3.21-13.14-8.77-16.71c-0.49-6.37,4.46-12.98-0.27-19.47c-2.58-9.86-16.66-9.3-15.33-20.74
			c-0.55-9.68-8.62-14.05-18.22-14.8c-6.67-3.95-10.07-9.41-19.42-9.38c-1.73-0.21-15.92-2.11-17.64-1.83l0,0
			c-12.33-11.63-17.92-8.35-42.04-5.5c-7.98,0.65-12.01-2.24-17.54-1.5c-3.43,0.09-10.15,1.84-13.38,3.94l-24.9,10.83l-20.31-26.15
			c-5.14-2.38-11.14-9.84-12.09,12.45c-4.92,8.77-3.79,30.98-2.79,38.8l-7.36,11.11l-2.03,11.71l-6.69,6.87l-1.56,10.18l-4.65,6.59
			l-2.12,12.52l4.25,11.15l-0.65,16.56l6.42,6.87l-2.95,32.48l3.87,10.16c0,0-1.58,8.65-1.04,13.13c0.54,4.48-1.88,27.85-1.88,27.85
			l-0.86,19.64c0,0,1.42,13.22,1.49,16.35c0.08,3.13,2.29,33.93,2.29,33.93l3.16,11.7l-2.53,19.84l3.09,13.05l-2.05,17.76
			l5.01,13.65l-2.67,19.08l2.73,15.27l2.39,9.64l-1.23,16.5l4.88,11.29c0,0-6.92,15.37-5.87,18.47c1.05,3.1,2.33,23.32,2.33,23.32
			c-9.44,9.32-6.82,5.94-5.5,13.23l3.85,8.92l-13.71,4.57l-1.33,8.61l-10.24,5.54L-442.34,757.03z M-269.65,403.59
			c2.11,3.65,5.51,11.77,11.99,10.64l-0.66-4.25c2.65,3.65,6.41,6.17,9.96,7.4c6.01,2.09,26.88,11.37,31.83,16.61
			c4.95,5.24-0.18,13.52-0.18,13.52s0.22,3.17,1.68,8.61s1.26,14.74-0.64,21.22c-1.9,6.48-12.2,7.06-12.2,7.06l-0.36,4.37
			l-3.65,1.82l-9.07,0.61l1.12,5.39l5.55-1.12l4.52,2.28l-1.03,5.43l4.54,10.05l-5.52-2.1l-2.1,10.06l-3.62-10.94l-7.79,11.98
			l-2.56-13.34l-11.25,14.01l-0.72-11.69l-14.37,12.33l-0.93-9.43l-13.8,5.25l3.91-10.09l-14.13,3.8l2.67-12.22l-18.26-0.88
			l9.98-10.9l-11.37-3.88l6.68-5.11l-13.27-9.72l8.59-2.27l-6.91-9.53c4.84-7.48,18.21-9.45,7.44-22.04l9.17,5.39
			c-3.59-5.87-8.04-11.72-11.55-14.36l10.38,2.33l-3-8.15l9.7,3.77l-4.91-7.91l8.32,2.26l-4.33-8.32l6.73,2.66l11.13,5.65
			l-6.45-12.04l9.51,4.62l-0.08-8.45l9.21,8.88L-269.65,403.59z"/>
		<path id="path151857" class="st12" d="M-329.59,466.7c0.57-0.12,1.81,0.68,3.99,2.75c-1.5,0.6-2.47,1.07-3.47,1.54
			C-329.89,468.62-330.33,466.85-329.59,466.7z"/>
		<path id="path151855" class="st12" d="M-399.57,315.39c2.54,6.84,5.55,19.58,3.07,24.93c-1.13,2.43-1.3,8.9-4.47,6.33
			c-3.48-2.82,2.04-9.64-1.58-17.51C-403.36,327.38-399.25,319.73-399.57,315.39z"/>
		<path id="path151853" class="st12" d="M-400.47,313.15c0.56,0.54,0.83,1.31,0.9,2.24C-399.89,314.55-400.19,313.79-400.47,313.15z
			"/>
		<path id="path151851" sodipodi:nodetypes="csssscssssssssssssssssscc" class="st12" d="M-221.78,388.46l-25.38,12.94
			c-7.63,3.89,0.71,14.69-6.2,9.87c-1.93-1.35-4.56-0.71-6.43-2.67c-2.07-2.17-1.36-7.51-4.33-9.11c-1.03-0.55-0.72,5.06-0.77,5.04
			c-3.53-1.56-5.45-7.62-6.16-6.62c-0.52,0.73-0.92,6.29-1.37,6.31c-2.93,0.13-5.55-6.9-9.16-5.94c-3.48,0.93-0.14,7.08-2.22,8.03
			c-0.6,0.28-8.18-3.42-10.11-3.33c-2.65,0.12,1.09,7.43-1.91,5.69c-4.54-2.62-87.24,10.33-89.07,5.78
			c-0.35-0.86,10.2-4.57,8.55-10.46c-1.44-5.14-5.6-11.53-1.92-14.03c7.51-5.1-3.46-22.54-2.23-20.23
			c2.18,4.1,32.16-2.41,30.74-5.52c-1.19-2.62,21.8-1.89,24.46-0.73c6.15,2.7,22.55,8.78,28.64,6.32c12.11-4.88,7.2,0.39,18.42,1.68
			c1.87,0.22,10.31-1.39,10.71-1.21c3.11,1.49,3.06,5.76,7.98,6.11c2.5,0.18,9.73-2.06,9.88-1.79c12.75,22.83,27.39-6.95,28.82-10.2
			C-214.95,370.1-219.04,382.75-221.78,388.46L-221.78,388.46z"/>
		<path id="path1225200" class="st12" d="M-400.38,232.79l14.76,30.2l-3.61-15.02c7.74,3.41,15.9,14.64,24.41,14.21
			c0,0,5.43-1.5,11.15,4.65c2.74,2.94,5.24,5.16,7.15,6.73c-0.35-0.77-0.75-1.88-1.9-3.13c-1.97-2.13-5.08-4.74-6.04-7.53
			c1.01,0.32,2.03,0.9,3.13,0.9c2.43,0.01,4.48-3.06,4.54-3.01c2.29,2.01,2.08,3.8,5.81,3.47c0.67-0.06,5.23-2.12,5.45-1.99
			c1.85,1.07-0.13,5.53-0.93,6.53c-1.98,2.47-3.71,4.04-6.64,5.25c-0.91,0.38-1.55,0.57-2.01,0.6c0.88,0.66,2.03,1.53,2.03,1.53
			l-15.37,19.54c0,0-2.88,2.68-10.73,8.21c-7.85,5.53-16,18.43-16,18.43l-9.24,7.22c1.16-13.4,3.63-21.56,3.35-23.31
			c-0.28-1.75-8.93-33.5-8.93-33.5s-1.48-17.81-2.11-24.1S-400.38,232.79-400.38,232.79L-400.38,232.79z"/>
		<path id="path161547" class="st12" d="M-441.85,757.3c0.96,0.53,1.9,1.08,2.87,1.6c2,1.09,4.01,2.15,6.04,3.19
			c2.03,1.04,4.07,2.05,6.13,3.04s4.13,1.96,6.21,2.9s4.18,1.86,6.29,2.75s4.23,1.76,6.37,2.6c1.92,0.76,3.85,1.49,5.79,2.2
			c0.67-3.77,1.58-7.51,3.48-11.08c1.41-2.63,4.8-3.31,5.96-5.38c2.36-4.19,1.2-10.25,3.76-14.84c0.81-1.45,5.96-5.05,6.06-5.84
			c0.64-4.88-1.64-12.11-1.55-17.46c0.06-3.63,2.4-8.39,2.1-11.69c-0.37-4-5.44-6.97-5.41-12.83c0.02-3.99,2.19-7.64,2.36-11.43
			c0.19-4.19-1.23-8.39-0.91-12.75c0.38-5.15,2.52-10.21,2.73-15.31c0.11-2.77-8.15-16.75-8.81-24.26
			c-0.52-5.94,2.53-10.49,2.99-16.01c0.42-5.07-1.94-10.2-1.29-15.59c0.54-4.48,3.38-9.02,3.46-13.45c0.08-4.76-3.2-11-3.39-16.47
			c-0.28-7.94,10.91-12.6,4.35-16.41c-1.89-1.1-6.81-13.27,7.45-13.54c14.92-0.28,27.99-11.85,24.68-10.64
			c-3.57,1.31-24.52,3.18-25.11-11.98c-10.56-11.3-12.23-9.53-11.26-23.15c-14.08-14.1-6.49-10.93-4.2-28.54
			c-11.3-5.86-3.03-15.99,1.86-22.25c-2.68-15.17,5.63-23.46,15.25-24.57c4.67-3.79,5.78-11.62,6.97-16.27
			c0.57-3.88-0.1-23.63-0.1-23.63l-1.52-3.39c0.89-1.29,1.76-2.71,2.06-2.88c3.37-1.93,7-4.51,10.76-6.37l47.67,1.78
			c7.87,1.61,16.38,2.2,19.87,0.74l10.09,0.38c6.44,2.16,15.71,5.67,26.62,6.38c2.34,0.15,6.16,0.61,7.95,2.33
			c4.04,3.87,3.73,12.47,11.99,10.4c12.87-3.22,9.34-15.51,10.48-24.52c-0.28-4.63,6.86-28.43,0.61-17.45
			c1.19,8.54-7.81,15.46-9.27,18.6c-0.28,3.4,2.88,13.31-2.72,14.56c-8.55-0.05-8.86-10.68-11.75-14.2
			c-1.12,0.47-2.15,0.84-3.11,1.13c0.81-5.94-7.85-6.77-9.8-9.9c-0.36-0.57,0.17-9.98-1.84-13.76c-2.63-4.96-6.54-8.1-12.18-8.82
			c-1.17-0.15-2.89,0.15-3.98-0.36c-0.68-0.32-0.86-3.71-1.15-4.39c-1.15-2.66-3.16-4.86-5.39-6.65c-5.4-4.32-10.22-1.5-12.87-3.05
			c-0.59-0.35-3.32-10.44-4.85-12.41c-2.77-3.58-6.56-7.3-11.25-7.94c-1.05-0.14-2.97,0.29-3.9-0.28c-1.65-1.02-2.84-7.83-3.92-9.59
			c-3.95-6.45-11.31-10.4-18.66-10.4c-3.34,0-6.68,0.81-9.7,2.57c0,0-10,15.05-19.98,21.57s-12.81,19.57-12.81,19.57
			s-16.13-31.06-19.53-19.76c-4.53,5.28-15.88,10.06-12.01,23.45c0,0,2.3,10.23-4.93,14.32c-7.23,4.09-3.36,19.8-3.07,22.26
			c0.28,2.46,1.97,12.54-1.04,15.25c-3.01,2.72-4.14,11.17-3.88,15.33c0.26,4.16,5.76,10.5,6.1,13c0.34,2.51-1.17,7.45-2.75,10.91
			c-1.58,3.46-0.08,14.33-0.71,17.58c-0.63,3.26-2.93,8.14-2.93,8.14l3.17,10.42c0,0-3.35,13.96-2.71,18.57
			c0.65,4.6,4.85,9.36,2.61,23.09c-2.24,13.73,2.67,19.15,2.67,19.15s2.73,15.15-0.62,23.25c-3.35,8.09,3.64,12.49,3.94,17.53
			c0.3,5.04-2.67,12.33-4.04,16.34c-1.37,4.01,5.33,13.55,7.25,20.89c1.92,7.34-4.77,16.76-1.72,28.31
			c3.05,11.56,3.07,16.09,0.67,26.9s4.48,14.92,3.43,21.7c-1.05,6.77-0.99,16.94-0.99,16.94s1.68,14.02-0.55,18.62
			c-2.22,4.6-4.73,11.43-2.62,15.72c2.1,4.29,1.57,8.17-1.62,7.58s-9.43,2.25-8.91,6.41c0.53,4.16-6.18,10.01-8.85,11.64
			C-439.51,748.97-442.93,752.56-441.85,757.3z"/>
		<path id="path1246634" sodipodi:nodetypes="ccsscssssscccccsccc" class="st13" d="M-350.79,378.37
			c9.07,4.54,11.02,3.86,18.89,2.18c9.99,1.25,9.46,8.33,20.17,5.89c7.14-1.62,7.65-4.59,11.31-2c16.77,11.85,17.57-0.49,22.9,3.6
			c10.8,10.62,13.02,2.47,16.6,2.02c4.33-0.54-3.97-1.12,6.33,0.26c9.79,1.31,7.03-2.04,15.67,6.47c7.68-4.35,11.02-2.1,9.97-8.73
			c-1.23-9.04,6.04-10.95,0.67-19.12c-7.99,2.44-2.91-1.85,1.63,7.71c1.04,9.79-10.82,17.43-18.42,10.07
			c-6.05-3.69-5.17-13.24-13.43-11.18c-6.53-6.06-14.21-5.64-22.49-4.56c-8.58-3.83-16.93-1.44-25.52,0.2
			c-9.61,1.98-16.27-9.69-25.41-5.63c-8.36,6.06-17.69-6.39-24.7,2.91c-5.01,4.95-13.86-3.09-12.91,5.65
			C-365.98,378.67-357.67,383.12-350.79,378.37L-350.79,378.37z"/>
		<path id="path1041788" sodipodi:nodetypes="csscc" class="st11" d="M-237.05,251.16c0,0-11.53-3.99-8.31-9.24
			c1.6-2.61,15-18.02,17.56-27.92c1.22-4.74,9.91-1.53,9.91-1.53c12.33-0.2,1.29,53.39,3.79,66.04"/>
		<path id="path1041792" sodipodi:nodetypes="cccsssccc" class="st14" d="M-254.04,483.04c0,0,0.72,5.53,6.53,7.34
			c5.81,1.81,8.59,4.86,8.59,4.86s1.68-2.86-5.11,2.31c-5.81,4.43-31.85,4.22-37.9,1.4c-5.33-2.48-16.75-20.06-18.28-24.15
			c-1.53-4.1,18.65,10.3,21.99,10.42C-274.87,485.34-254.04,483.04-254.04,483.04L-254.04,483.04z"/>
		<path id="path1041798" sodipodi:nodetypes="csc" class="st15" d="M-288.06,426.06c-8.92,8-8.63,8.98-7.22,19.81
			c0.48,3.67,7.91,6.46,10,7.71"/>
		<path id="path1041800" sodipodi:nodetypes="cscc" class="st16" d="M-276.1,448.73c1.54-2.9,8.11-3.11,14.88,0.25
			c6.01,2.99-12.09-0.03-12.09-0.03c11.87,0.7,25.75,5.77,27.78,12.6"/>
		<path id="path1041808" sodipodi:nodetypes="ccccssc" class="st17" d="M-394.76,332.81c0.41-9-5.16-29.85-8.08-38.92
			c-3.24-15.45-7-12.51-6.36-29.23c-1.88-11.96-2.88-22.97,0.35-31.85c2.47-6.02,2.09-17.92,10.33-15.4
			c7.36,2.25,11.14,15.88,20.58,26.53c13.64,15.39,21.24,13.91,31.7,30.43"/>
		<path id="path1263684" sodipodi:nodetypes="cscscccssc" class="st13" d="M-399.31,236.27c0.92,1.62,3.34,9.46,6.22,21.71
			c2.88,12.25,1.82,18.8,1.82,18.8s-3.74-10.75-5.42-8.71c-1.68,2.04,2.41,20.97,7.59,34.03c5.18,13.06,4.61,20.25,4.61,20.25
			l6.83-12.61c0,0-2.97-19.1-4.83-29.98c-1.86-10.89-5.26-23.26-7.69-28.13C-392.6,246.77-399.31,236.27-399.31,236.27
			L-399.31,236.27z"/>
		<path id="path1041810" sodipodi:nodetypes="cccsc" class="st17" d="M-382.92,318.15c-7.77-12.42-14.89-37.02-14.62-50.35
			 M-398.9,235.01c5.97,10.98,11.75,22.57,13.04,28.95c3.48,17.21,2.55,17.22,8.8,48.26"/>
		<path id="path1041812" sodipodi:nodetypes="cscccc" class="st12" d="M-230.96,248.58c0.14,0.28,5.58-9.16,6.72-13.28
			c1.06-3.8,5.56-8.67,5.75-6.94c2.21,12.9,2.86,50.54,2.63,49.29l-7.03-7.64L-230.96,248.58z"/>
		<g id="g1088453" transform="matrix(-1.2169435,0.05603457,0.06516985,1.415341,-816.06064,-39.934517)">
			<path id="path1088445" sodipodi:nodetypes="ccc" class="st18" d="M-443.77,334.42c-5.8,8.57-24.17,8.88-33.78,3.56
				C-479.61,330.12-458.65,303.25-443.77,334.42z"/>
			
				<ellipse id="ellipse1088447" transform="matrix(1 5.000748e-03 -5.000748e-03 1 1.6541 2.3061)" class="st19" cx="-460.33" cy="331.91" rx="12.01" ry="-11.18"/>
			<path id="path1088449" sodipodi:nodetypes="cccc" class="st20" d="M-453.14,320.82c3.81,2.6,7.18,7.72,9.33,16.39
				c-8.37,3.36-24.21,5.93-33.74,0.77c-1.74-6.5,4.56-15.47,12.38-18.38"/>
			
				<ellipse id="ellipse1088451" transform="matrix(0.9994 -0.0348 0.0348 0.9994 -11.8227 -15.687)" class="st18" cx="-456.05" cy="331.41" rx="3.98" ry="-2.3"/>
		</g>
		<path id="path1052614" sodipodi:nodetypes="cccccccsccccccccc" class="st21" d="M-377.28,370.25c9.42,6.73,25.48-2.36,26.79-7.54
			c7.74,6.24,18.33,6.53,24.57-1.78c4.05,4.08,9.4,10.34,16.93,10.09c6.91,2.4,13.37-0.95,19.17-4.88c4.91,7.45,15.17,7.83,22,3.76
			c3.03,6.47,8.42,9.13,17.4,4.31c1.13,6.52,6.45,18.29,16.72,15.21c8.06-2.42,7.33-12.6,5.99-19.99c1.87-3.98,11-14.98,4.94-26.78
			c-3.69-7.3,8.15-13.26,6.1-20.95c-0.26-6.48-2.07-14.02-7.63-17.59c-0.49-6.37,2.35-11.74-2.38-18.23 M-236.02,272.12
			c-0.89-11.8-8.6-15.26-18.15-15.74c-1.94-4.22-8.57-15.12-20.81-11.68c-1.29-2.83-5.68-8.79-13.32-10.9"/>
		<path id="path1083145" sodipodi:nodetypes="cccc" class="st21" d="M-425.11,492.22c-1.83,9.08,5.18,18.71,10.86,18.93
			c-0.11,7.54,6.09,15.81,17.1,12.66c0.58,3.34,7.32,14.14,16.84,8.9"/>
		<path id="path1052602" sodipodi:nodetypes="cccc" class="st22" d="M-329.07,497.96c7.44-6.2,6.92-16.94-1.19-24.03
			c4.09-2.74,11.89-12.11,2.06-13.99c22.94-10.02,17.02-24.79,7.99-22.73"/>
		<g id="g1085157" transform="matrix(-1.6789314,0.07730695,0.07730695,1.6789314,-899.98048,-64.923384)">
			<path id="path1041782" sodipodi:nodetypes="ccc" class="st18" d="M-305.66,298.6c-5.8,8.57-24.17,8.88-33.78,3.56
				C-341.5,294.3-320.54,267.43-305.66,298.6z"/>
			
				<ellipse id="ellipse1041784" transform="matrix(0.9997 -0.0246 0.0246 0.9997 -7.4196 -7.8724)" class="st19" cx="-323.11" cy="297.1" rx="11.21" ry="-11.03"/>
			<path id="path1041786" sodipodi:nodetypes="ccsc" class="st23" d="M-305.66,298.6c-5.8,8.57-24.17,8.88-33.78,3.56
				c-0.22-0.85-0.18-1.92,0.1-3.11C-337.04,289.17-318.93,270.79-305.66,298.6L-305.66,298.6z"/>
			
				<ellipse id="ellipse1041820" transform="matrix(0.9997 -0.0246 0.0246 0.9997 -7.366 -7.7791)" class="st18" cx="-319.3" cy="294.97" rx="3.97" ry="-2.3"/>
		</g>
		<path id="path1052604" sodipodi:nodetypes="cccccc" class="st22" d="M-355.04,422.58c-7.33-6.59-20.25-6.8-26.55-6.09
			 M-340.01,425.5c-11.79-3.92-22.82-2.54-32.02,4.06 M-318.49,425.63c-22.04-2-28.27,1.39-36.23,8.06"/>
		<path id="path1120489" sodipodi:nodetypes="ccccccccccc" class="st24" d="M-145.76,664.5l-47.15-30.73
			c-0.48-4.4,1.2-9.32,4.6-11.56l46.46,14.7l-7.53-3.74l-25.17-34.97c0.95-14.18,14.29-19.24,23.7-15.55l33.46,45.13
			c-4.74-1.03-2.89,15.42-9.03,18.07c-0.39,7.55-2.65,8.62-8.54,8.54C-135.01,659.31-141.88,661.44-145.76,664.5L-145.76,664.5z"/>
		<path id="path1052590" sodipodi:nodetypes="cccccc" class="st25" d="M-410.52,274.84c-2.71,1.3-11.26,7.58-8.74,20.46
			c-8.42,3.7-8.42,7.78-7.94,19.01c-13.62,5.53-3.4,25.89-2.58,26c1.2,5.92-4.58,14.63,1.98,20.65c4.61,3.45,3.28,2.09,3.52,16.8"/>
		<path id="path166788" class="st25" d="M-424.79,381.52c0.32-0.75,0.54-1.39,0.53-1.83c-0.02-0.74-0.01-1.26-0.02-1.94
			L-424.79,381.52z"/>
		<path id="path166780" sodipodi:nodetypes="ccscscssscsccsccsccsscc" class="st25" d="M-443.49,754.18
			c2.33-3.41,3.68-6.85,12.36-9.71c2.39-2.8,3.48-5.93,2.97-10.22c-0.62-5.16,11.32-3.72,12.26-4.06
			c2.96-1.07-5.33-10.97-2.33-17.88c1.81-4.18,4.99-5.5,5.52-10c1.16-9.89-5.43-19.66-0.03-29.39c3.5-6.31-1.31-8.97-2.77-15.72
			c-1.3-5.99-0.66-13.06,0.94-18.93c0.43-1.58,0.82-2.47,0.54-4.4c-0.76-6.22-5.41-12.04-6.22-18.68
			c-1.02-8.4,3.11-14.45,2.89-19.81c-0.26-6.13-4.2-11.9-4.6-18.3c-0.5-8.08,2.94-15.95,2.66-23.87c-0.15-4.38-3.68-8.51-3.52-14.13
			c0.1-3.45,2.3-6.86,2.16-10.2c-0.29-6.91-3.68-17.87-4.49-24.76c-1.42-12.03,1.21-11.15,1.5-23.09
			c-8.74-10.87-0.2-19.18-1.21-26.18c-5.61-8.73-0.19-16.53,0.38-21.18c1-8.15-1.05-12.16,1.21-17.79c2.74-6.83-0.1-7.02,0.27-14.41
			c-4.39-9.04-3.1-15.08-2.15-18.65"/>
		<path id="path1052588" sodipodi:nodetypes="cssscsscssscccscccccc" class="st21" d="M-198.26,770.42c0-2.41,2.1-5.33,2.05-13.62
			c-0.06-9.45-6.82-12.5-7.35-21.16c-0.28-4.57,6.4-7.95,1.24-22.35c-2.17-6.05-9.04-11.27-9.63-17.41
			c-0.56-5.88,3.16-7.57,2.91-15.97c-0.19-6.26-5.3-14.88-4.85-20.73c0.68-8.84,4.78-9.73,4.2-19.06
			c-0.42-6.76-0.84-8.14-1.82-14.45c-1.35-8.7,2.24-9.67,1.11-18.34c-0.81-6.21-2.21-6.67-2.96-12.4
			c-0.33-2.48,2.99-12.91,3.38-15.85c0.79-5.89-1.57-10.15-0.89-13.57c6.38-16.03,2.35-27.11,1.2-32.43
			c6.3-12.09,4.76-19.17,0.92-29.01c-1.91-4.89,10.32-12.81,1.21-29.59c5.89-14.69,3.75-18.62,0.08-25.66
			c5.93-10.87,2.38-13.64,0.05-18.9c1.83-8.18,2.47-14.17,0.33-20.62c2.81-11.36-0.57-17.55-3.46-24.15
			c2.43-7.59,2.83-19.18-1.42-26.31"/>
		<path id="path1041814" sodipodi:nodetypes="cscccc" class="st21" d="M-338,270.41c-3.92,4.16-2.58,2.63-12.32,8.53
			c-4.27,2.59-6.65,11.56-7.67,15.98c-1.92,4.89-7.31,5.29-10.9,8.74c-2.95,1.7-12.89,12.52-13.78,19.9
			c-12.25,9.19-10.93,8.68-14.03,19.84"/>
		<path id="path1041816" sodipodi:nodetypes="csscc" class="st17" d="M-247.66,243.16c0,0,5.04-7.12,9.15-11.71
			c8.09-9.04,10.48-17.41,14.08-19.11c4.42-2.1,8.71,2.58,8.71,2.58c6.25,8.82,0.39,39.92,1.38,62.12"/>
		<path id="path1041818" sodipodi:nodetypes="cccccc" class="st26" d="M-226.49,427.2l1.08,2.09 M-235.34,429.98l1.51,3.27
			 M-244.87,430.68l1.31,6.14"/>
		<path id="path1060993" sodipodi:nodetypes="cccccccccc" class="st21" d="M-223.64,363.73c7.76-1.67,17.74-11.13,16.58-18.99
			c2.17-0.76,13-5.75,8.34-19.66c-0.15-7.48,0.66-15.54-7.87-22.89c0.17-15.91-1.44-16.39-6.9-23.74
			c-14.48-22.22-9.01-19.98-25.54-26.05c-6.49-6.01-9.42-14.56-37.6-11.71c-14.89-13.91-40.46-10.17-41.95-5.9
			c-15.62-8.12-26.18,0.81-31.52,3.96c-3.44-1.71-19.94-0.31-23,7.94"/>
		<path id="path1061967" class="st17" d="M-230.78,252.96c0,0,5.68-18.65,7.91-20.13"/>
		<path id="path1086573" sodipodi:nodetypes="cccc" class="st27" d="M-228.91,418.18c7.96-2.08,13.48-2.34,20.46,0.09 M-240.79,419
			c6.43-0.48,13.23-1.95,19.76,3.87"/>
		<path id="path1094060" sodipodi:nodetypes="csscc" class="st15" d="M-260.58,389.75c0,0-5.92,18.25,7.29,25.11
			c13.21,6.86,32.61,12.56,36.21,17.9c3.59,5.35,1.6,12.8,1.6,12.8c-1.98,3.48-3.54,7.45-8.4,9.12"/>
		<path id="path1095441" sodipodi:nodetypes="cscc" class="st28" d="M-222.35,444.28c-2.41-2.09-8.8,0-14.44,4.93
			c-5,4.38,12.74-4.74,12.74-4.74c-8.53,4.03-20.04,10.96-20.93,16.94"/>
		<path id="path1097173" sodipodi:nodetypes="cccccc" class="st26" d="M-274.41,430.02l-0.15,0.76 M-265.03,431.76l-1.2,3.39
			 M-255.86,432.44l0.24,3.77"/>
		<path id="path1111763" sodipodi:nodetypes="ccscsccccscscc" class="st18" d="M-281.67,483.09l0.21,5.74c0,0,20.03,4.25,22.45,3.54
			c2.42-0.71,5.68-0.98,5.68-0.98s4.71,1.54,8.08,0.4c3.37-1.14,5.43-1.73,5.43-1.73s0.71,1.08,4.24,1.29
			c3.52,0.21,7.21,0.18,7.73-0.55c0.52-0.73-0.06-4.62-0.26-5.18c-0.2-0.56-8.24-2.51-9.99-3.56c-1.75-1.06-8.75-5.07-8.75-5.07
			s-6.23,7.2-9.62,8.03C-259.85,485.85-281.68,483.09-281.67,483.09L-281.67,483.09z"/>
		<path id="path1097573" sodipodi:nodetypes="csc" class="st15" d="M-216.64,449.91c0,0,7.1,18.57,1.49,27.18
			c-9.23,14.17-28.57,4.02-30.38-1.17"/>
		<path id="path1097934" sodipodi:nodetypes="csc" class="st15" d="M-245.68,461.31c0,0,4.71,20.06-12.01,23.59
			c-26.98,5.7-47.33-14.54-47.1-21.5"/>
		<path id="path1099888" sodipodi:nodetypes="cscc" class="st15" d="M-241.13,490.73c-0.29,3.62,0.45,6.29,2.96,5.15
			c5.61-2.53,13.34,5.45,2.71,11.91c-3.53,1.56,1.86,5.63-4.09,11.57"/>
		<path id="path1100848" sodipodi:nodetypes="csc" class="st15" d="M-239.45,496.51c-4.15,2.62-26.91,9.81-42.8,1.73
			c-14.64-7.44-20.98-25.45-21.57-31.62"/>
		<path id="path1103828" sodipodi:nodetypes="cc" class="st15" d="M-300.52,461.5c-4.17-1.67-7.81,0.21-9.46,3.97"/>
		<path id="path1106229" sodipodi:nodetypes="ccccc" class="st21" d="M-319.13,522.41c13.11-3.34,14.46,14.7,14.25,11.79
			c15.81-7,15.44-0.87,24.09,4.75c-1.94,1.84,18.3-15.56,31.84,2c-0.13-3.92,8.26-20.49,20.56-11.7"/>
		<path id="path1107731" sodipodi:nodetypes="cssc" class="st29" d="M-254.82,484.21c-0.5,1.55,0.59,6.74,0.05,7.07
			c-4.34,2.64-13.73,1.8-13.8,0.61c-0.07-1.28,0.03-5.81,0.03-5.81"/>
		<path id="path1108864" sodipodi:nodetypes="cc" class="st30" d="M-241.19,489.85c-1.65,3.04-11.22,2.33-12.23,1.11"/>
		<path id="path1109290" sodipodi:nodetypes="cssc" class="st29" d="M-227.75,484.53c-0.5,1.55-0.02,4.59-0.6,4.86
			c-3.48,1.61-10.05,2.32-11.58,0.85c-0.92-0.89-0.71-9.01-0.71-9.01"/>
		<path id="path1112397" sodipodi:nodetypes="cccc" class="st19" d="M-249.63,482.01c2.07-1.54,4.13-2.5,8.49-0.13l-4.64-6.37
			L-249.63,482.01z"/>
		<path id="path1119055" sodipodi:nodetypes="cssc" class="st29" d="M-269.06,486.07c-0.5,1.55,0.41,4.67-0.14,4.99
			c-4.61,2.67-12.34-0.44-12.74-2.29c-0.39-1.82-0.32-5.58-0.2-5.49"/>
		<path id="path158621" sodipodi:nodetypes="ccccccccccc" class="st24" d="M-462.73,669.4l38.59-40.97
			c-0.57-4.39-3.36-8.78-7.19-10.15l-41.69,25.22l6.44-5.41l16.22-39.91c-4.26-13.56-18.42-15.33-26.69-9.53l-21.89,51.74
			c4.36-2.12,6.44,14.3,13.04,15.43c2.16,7.25,4.6,7.75,10.31,6.29C-474.4,666.89-467.23,667.34-462.73,669.4L-462.73,669.4z"/>
		<path id="path169899" class="st11" d="M-107.73,713.01c2.46-2.37,4.87-4.78,7.23-7.23c2.92-3.05,5.77-6.17,8.54-9.35
			c2.78-3.18,5.48-6.42,8.12-9.72c2.63-3.3,5.19-6.66,7.67-10.08c1.95-2.71,3.85-5.45,5.7-8.22c-0.24-0.2-0.42-0.39-0.47-0.53
			c-0.6-1.75-2.54-6.53-2.54-6.53l-11.33-5.18l-5.27-9.16l-14.25-5.73l-10.51-12.04c-3.91-3.41-7.96,9.31-11.88,9.29
			c-3.92-0.02-4.16,10.55-7.26,11.68c-3.1,1.13-5,9.33-8.01,11.67c-3.01,2.34,0.17,7.13,0.17,7.13l6.2,6.43l9.33,10.33
			c0,0,2.36,5.3,4.21,10.43c1.85,5.13,5.27,5.1,5.27,5.1s6.43,1.34,8.7,10.55C-108.01,712.26-107.86,712.64-107.73,713.01z"/>
		<path id="path169985" class="st12" d="M-106.61,711.92c0.56-0.53,1.12-1.07,1.68-1.61c2.9-2.9,5.74-5.87,8.51-8.89
			c0.09-0.1,0.18-0.2,0.27-0.3c-5.38-4.66-3.97-11.22-8.4-14.84c-15.77-4.71-7.98-14.46-17.04-16.69
			c-10.31-4.83-9.22-12.07-7.02-21.72c-8.19-3.14-7.71,6.88-11.42,11.23c-6.65,9.19,5.48,15.3,8.82,22.72
			c8.23,3.99,9.21,13.08,13.88,19.64C-110.69,701.77-108.83,706.85-106.61,711.92z"/>
		<path id="path158636" sodipodi:nodetypes="csccccccccc" class="st31" d="M-72.08,667.83c-2.64-14.21-11-7.16-14.81-14.62
			c-7.92-15.49-15.13-4.38-19.71-14.68c-1.65-5.42-16.82-14.91-15.03,0.18c-2.99-1.93-9.68,0.47-8.55,9.91
			c-6.35,0.91-10.25,4.6-7.77,10.05c-2.49,2.59-6.01,2.28-5.04,8.06c4.42,11.14,5.45,1.58,10.83,14.45
			c8.04,8.24,7.36,4.34,9.79,13.92c4.2,9.8,2.31,4.86,12.55,10.01c1.25,2.03,1.77,3.58,2.44,5.41"/>
		<g id="g148829">
			<g>
				<defs>
					<rect id="SVGID_1_" x="-383.43" y="671.8" width="193.24" height="193.24"/>
				</defs>
				<clipPath id="SVGID_2_">
					<use xlink:href="#SVGID_1_"  style="overflow:visible;"/>
				</clipPath>
				<g id="g832" transform="matrix(0.05112821,0,0,-0.05112821,-701.89645,227.83152)" class="st32">
					<g id="g846" transform="matrix(0.88039568,0,0,1,505.05589,335.9668)">
						<path id="path848" sodipodi:nodetypes="ccscccccc" class="st33" d="M8669.58-11529.21l-159.87,15.5
							c-315.24,31.2-598.81,299.54-570.95,672.26c6.48,86.67,39.17,181.92,78.1,253.73c18.14,15.12,99.31,148.62,255.4,231.78
							c224.13,119.43,380.69,88.35,402.24,85.71c-458.08-74.46-549.92-408.19-571.47-585.45c-15.88-132.28,24.94-255.88,54.04-313.7
							C8202.05-11260.1,8339.63-11503.88,8669.58-11529.21"/>
					</g>
					<g id="g838" transform="translate(521.4004,668.3667)">
						<path id="path840" class="st34" d="M7678.1-10605.29c346.92,0,628.16-281.24,628.16-628.16s-281.24-628.16-628.16-628.16
							c-346.92,0-628.16,281.24-628.16,628.16S7331.17-10605.29,7678.1-10605.29"/>
					</g>
					<g id="g842" transform="translate(521.4004,635.2666)">
						<path id="path844" class="st33" d="M7678.1-10697.29c277.83,0,503.06-225.23,503.06-503.06
							c0-277.83-225.23-503.06-503.06-503.06s-503.06,225.23-503.06,503.06C7175.03-10922.52,7400.26-10697.29,7678.1-10697.29"/>
					</g>
					<g id="g850" transform="translate(523.9004,334.7666)">
						<path id="path852" d="M7685.04-11532.54l-2.65,14.74L7685.04-11532.54z"/>
					</g>
					<g id="g854" transform="translate(359.7998,546.167)">
						<path id="path856" sodipodi:nodetypes="cccccccc" class="st35" d="M7228.92-10944.95l-79.53,13.12
							c-1.51,0.38-2.65,1.89-2.65,3.4c0.38,1.51,1.51,2.65,3.02,2.65l80.66-4.43c4.16-0.38,7.18-3.78,7.18-7.94
							c-0.38-4.16-3.78-7.18-7.94-7.18C7229.3-10944.95,7229.3-10944.95,7228.92-10944.95"/>
					</g>
					<g id="g858" transform="translate(353.7002,484.667)">
						<path id="path860" sodipodi:nodetypes="ccccccsc" class="st35" d="M7211.97-11115.89l-78.15,13.93
							c-1.51,0.37-2.65,1.89-2.65,3.4c0.38,1.51,1.51,2.64,3.02,2.64l79.29-4.85c4.16-0.38,7.18-3.78,7.18-7.94
							c-0.38-4.15-3.78-7.18-7.94-7.18H7211.97z"/>
					</g>
					<g id="g862" transform="translate(372.6001,420.667)">
						<path id="path864" sodipodi:nodetypes="ccccccsc" class="st35" d="M7264.5-11293.78l-79.08,14.31
							c-1.51,0.38-2.65,1.89-2.65,3.4c0.38,1.52,1.51,2.65,3.02,2.65l79.84-5.24c4.16-0.38,7.18-3.78,7.18-7.94
							c-0.38-4.16-3.78-7.18-7.94-7.18H7264.5z"/>
					</g>
					<g id="g866" transform="translate(414.2002,370.0664)">
						<path id="path868" sodipodi:nodetypes="ccscscsscscc" class="st35" d="M7380.13-11434.43c-7.94,2.27-15.87,3.03-23.43,4.16
							l-23.81,3.4c-15.87,2.27-14.84,5.32-30.34,7.21c-1.51,0.37-3.02,1.89-2.65,3.4c0.38,1.51,1.51,2.65,3.4,2.65
							c15.87-1.13,14.84-3.43,30.72-4.19l23.81-1.13c7.94-0.38,15.87-1.13,23.81-0.38c4.16,0.38,7.94-2.65,8.32-6.81
							c0.38-4.15-2.65-7.93-6.8-8.31C7382.02-11434.8,7380.88-11434.43,7380.13-11434.43"/>
					</g>
					<g id="g870" transform="translate(521.0996,665.7666)">
						<path id="path872" class="st35" d="M7677.26-10612.51c-314.08,0-584.7-237.73-618.71-556.73
							c-17.76-165.54,30.24-327.69,134.55-457.32c104.32-129.26,253.23-210.52,418.4-227.91c22.3-2.27,44.59-3.4,66.52-3.4
							c314.08,0,584.69,237.73,618.71,556.73c36.28,341.29-211.65,648.95-553.33,685.23
							C7721.11-10613.65,7699.18-10612.51,7677.26-10612.51 M7678.02-11873.37c-22.68,0-45.35,1.13-68.03,3.78
							c-169.32,18.14-321.64,100.92-428.6,233.58c-106.96,132.66-156.1,298.96-137.95,468.29l7.56-0.76l-7.56,0.76
							c37.42,349.61,352.25,603.97,701.86,566.55c349.61-37.42,603.97-352.25,566.55-701.86
							C8277.07-11629.97,7999.66-11873.37,7678.02-11873.37"/>
					</g>
					<g id="g874" transform="translate(481.87299,335.11222)">
						<path id="path876" sodipodi:nodetypes="ccscsccccc" class="st35" d="M7568.23-11531.58h-0.76
							c-349.61,37.41-603.97,352.25-566.55,701.86c37.42,349.61,352.25,603.97,701.86,566.55c4.16-0.38,7.18-4.16,6.8-8.31
							c-0.38-4.16-4.16-7.18-8.31-6.8c-341.29,36.28-648.95-211.65-685.23-553.33c-36.28-341.3,211.65-648.95,553.33-685.23
							c4.16-0.37,7.18-4.15,6.8-8.31C7575.41-11528.94,7572.01-11531.58,7568.23-11531.58"/>
					</g>
					<g id="g878" transform="translate(430.7998,402.2666)">
						<path id="path880" class="st35" d="M7426.27-11344.92c-23.43,18.52-44.6,40.44-63.5,63.87l-13.61,18.14
							c-2.27,3.02-4.16,6.05-6.43,9.45l-6.05,9.45c-1.89,3.02-4.16,6.42-6.05,9.45l-5.67,9.83l-5.67,9.83l-2.65,4.91l-2.65,4.91
							c-27.59,53.67-45.73,112.25-52.91,171.97c-14.74,119.81,14.36,244.91,82.02,345.07c33.64,50.27,76.35,94.11,125.48,129.64
							c48.76,35.53,104.32,61.61,162.52,77.86c29.1,7.94,58.96,13.61,88.82,16.25c29.86,2.65,60.47,2.65,90.33,0
							c30.24-2.27,59.71-7.94,88.82-15.5c14.36-4.16,28.72-8.69,42.71-14.36c13.99-5.67,27.59-12.09,40.44-20.03
							c1.89-1.13,2.26-3.4,1.13-5.29c-0.76-1.51-3.02-2.27-4.54-1.51c-13.98,4.91-27.97,9.83-41.95,14.36
							c-13.99,4.54-27.97,8.69-41.96,12.47c-28.35,7.56-57.07,12.47-86.55,14.74c-29.11,2.27-58.58,2.65-87.69-0.38
							c-29.1-2.65-57.83-8.32-86.17-16.25c-56.31-15.87-109.61-41.58-156.85-75.97c-47.24-34.39-88.44-77.1-120.95-125.48
							c-65.76-96.76-94.11-217.32-80.5-333.35c6.8-58.21,24.19-114.9,50.65-166.68c13.61-26.08,29.1-50.64,46.49-74.08
							c17.76-23.43,36.66-45.73,56.31-67.65c1.51-1.51,1.13-3.78-0.38-5.29C7430.05-11346.06,7427.78-11346.06,7426.27-11344.92"/>
					</g>
					<g id="g882" transform="translate(621.2998,412.167)">
						<path id="path884" class="st35" d="M7955.77-11317.41c-18.9-24.57-41.19-46.49-65.39-66.14l-18.52-13.98
							c-6.42-4.54-12.85-8.69-19.28-13.23c-6.43-4.54-13.23-8.32-20.03-12.09c-6.8-3.78-13.23-7.94-20.41-11.34
							c-27.59-14.74-56.69-26.46-86.17-35.53l-11.34-3.4c-3.78-1.13-7.56-2.27-11.34-3.02l-22.68-5.29
							c-7.56-1.51-15.49-2.65-23.05-4.16c-3.78-0.76-7.56-1.51-11.72-1.89l-11.72-1.51c-15.5-2.27-30.99-2.27-46.87-3.02
							c-7.94,0-15.5,0-23.43,0.37c-3.78,0-7.94,0-11.72,0.38l-11.71,0.76c-15.5,1.13-31,2.64-46.49,5.29
							c-15.5,2.65-30.61,5.67-45.73,9.83c-15.12,3.78-29.86,8.69-44.6,13.98c-14.74,5.29-29.1,11.34-43.09,18.15
							c-27.97,13.61-54.8,30.24-78.24,50.65c-1.51,1.51-1.89,3.78-0.38,5.29c1.13,1.51,3.02,1.89,4.91,0.76
							c13.23-7.56,26.46-15.12,39.69-22.3c13.61-6.8,26.83-13.98,40.82-20.03c27.59-12.47,55.94-22.68,85.04-30.24
							c14.74-3.78,29.48-6.8,44.22-9.07c14.74-2.65,29.86-4.16,44.98-4.91l11.34-0.76c3.78-0.38,7.56,0,11.34-0.38
							c7.56,0,15.12-0.38,22.68-0.38c15.12,0.76,30.24,1.14,44.98,3.03l11.34,1.13c3.78,0.38,7.56,1.13,11.34,1.89
							c7.56,1.13,14.74,2.27,22.3,3.78l21.92,4.91c3.78,0.76,7.18,1.89,10.96,3.02l10.96,3.02c28.72,8.7,57.07,19.66,83.91,33.64
							c26.84,13.98,52.54,29.86,76.35,48.38c23.81,18.52,46.87,38.55,68.79,59.34c1.51,1.51,3.78,1.51,5.29,0
							C7956.9-11314.01,7956.9-11315.9,7955.77-11317.41"/>
					</g>
					<g id="g886" transform="translate(631.9004,576.0669)">
						<path id="path888" class="st35" d="M7985.23-10861.84c28.35-37.04,50.27-78.99,65.39-123.59c3.78-10.96,7.18-22.3,10.21-33.64
							c2.64-11.34,5.67-22.68,7.94-34.39c4.15-23.06,7.56-46.49,8.31-69.92c2.26-46.87-2.65-94.11-13.61-139.84
							c-10.96-45.73-29.1-89.58-54.42-128.88c-1.13-1.89-3.41-2.27-5.3-1.13c-1.51,1.13-2.26,3.02-1.51,4.91
							c19.28,41.58,34.77,84.66,44.97,128.88c4.91,22.3,8.69,44.6,10.58,67.28c2.27,22.68,2.65,45.35,1.89,68.03
							c-0.75,22.68-3.4,45.35-7.18,67.65c-1.89,11.34-4.54,22.3-6.8,33.26c-3.03,10.96-5.67,21.92-9.45,32.88
							c-13.61,43.46-33.64,84.66-56.69,123.97c-1.14,1.89-0.38,4.16,1.51,5.29C7981.83-10859.57,7984.1-10860.33,7985.23-10861.84"
							/>
					</g>
					<g id="g890" transform="translate(607.4004,603.2666)">
						<path id="path892" class="st35" d="M7917.14-10786.24c5.67-2.65,10.96-6.43,15.87-9.83c4.92-3.78,9.83-7.94,13.98-12.09
							c4.54-4.16,8.69-8.69,12.47-13.61c3.78-4.91,7.56-9.83,10.2-15.5c1.13-1.89,0.38-4.16-1.89-5.29
							c-1.13-0.76-2.65-0.38-3.78,0.38c-5.29,3.4-9.82,7.18-14.36,11.34c-4.54,4.16-9.07,7.94-13.23,12.09
							c-4.16,4.16-8.32,8.69-12.47,12.85c-4.16,4.54-7.94,9.07-11.72,13.98c-1.13,1.89-0.75,4.16,0.76,5.29
							C7914.11-10785.48,7915.62-10785.48,7917.14-10786.24"/>
					</g>
					<g id="g894" transform="translate(538.9004,664.7666)">
						<path id="path896" sodipodi:nodetypes="cccscccc" class="st35" d="M7726.74-10615.29h-0.76l-152.43,12.81
							c-4.15,0.38-7.18,4.16-6.8,8.32s4.16,7.18,8.31,6.8l160.32-12.45c4.16-0.38-0.71-4.51-1.09-8.67
							C7733.54-10612.27,7730.52-10615.29,7726.74-10615.29"/>
					</g>
					<g id="g898" transform="translate(503.5,333.167)">
						<path id="path900" class="st35" d="M7628.34-11536.99h-0.76l-160.25,17.01c-4.16,0.38-7.18,4.16-6.8,8.32s4.16,7.18,8.31,6.8
							l160.25-17.01c4.16-0.38,7.18-4.16,6.8-8.31C7635.52-11534.34,7632.12-11536.99,7628.34-11536.99"/>
					</g>
					<g id="g902" transform="translate(392.8999,606.167)">
						<path id="path904" sodipodi:nodetypes="cccccscc" class="st35" d="M7320.92-10778.17l-85.21,10.24
							c-1.89,0.38-3.4,2.27-3.4,4.16c0.38,1.89,1.89,3.4,4.16,3.4l85.97-3.06c4.16-0.38,7.18-3.78,6.8-7.94
							c-0.38-4.16-3.78-7.18-7.94-6.8H7320.92z"/>
					</g>
					<g id="g906" transform="translate(444.1001,647.3667)">
						<path id="path908" sodipodi:nodetypes="ccsccssc" class="st35" d="M7463.24-10663.66l-80.33,11.18
							c-1.89,0.38-3.4,2.27-3.02,4.16c0.38,1.89,1.89,3.4,4.16,3.4l81.09-3.62c4.16-0.38,7.18-3.78,7.18-7.94s-3.78-7.18-7.94-7.18
							H7463.24z"/>
					</g>
					<g id="g910" transform="translate(568.7002,499.9668)">
						<path id="path912" class="st36" d="M7809.57-11073.36l-63.5,149.29l10.58,123.97l78.61,13.61l-24.95-282.71L7809.57-11073.36z
							"/>
					</g>
					<g id="g914" transform="translate(551.9004,539.4668)">
						<path id="path916" class="st34" d="M7762.87-10963.57l63.5-149.29l0.76,4.16l24.94,282.71l62.74,10.58l78.62,13.23
							l-64.25-582.05l-78.24-13.23l-43.85-7.56l-112.25,263.43l-15.87-159.5l-12.85-127.75l-78.61-13.23l-43.46-7.18l-235.09,531.03
							l64.25,10.96l78.24,13.23l49.89-117.17l60.47-144l3.02-7.56l26.46,292.54l44.22,7.56l78.61,13.23L7762.87-10963.57z"/>
					</g>
					<g id="g918" transform="translate(533.9004,492.3672)">
						<path id="path920" class="st36" d="M7712.84-11094.49l112.25-263.43l-78.23-13.23l-49.89,117.17L7712.84-11094.49z"/>
					</g>
					<g id="g922" transform="translate(485.7002,560.667)">
						<path id="path924" class="st36" d="M7578.86-10904.64l78.61,13.23l-26.46-292.54l-3.02,7.56l-60.47,144L7578.86-10904.64z"/>
					</g>
					<g id="g926" transform="translate(431.7998,551.4668)">
						<path id="path928" class="st36" d="M7429.05-10930.22l235.09-531.03l-78.61-13.23l-235.09,531.03L7429.05-10930.22z"/>
					</g>
					<g id="g930" transform="translate(592.0996,578.667)">
						<path id="path932" class="st37" d="M7874.61-10854.61l78.62,13.23l-64.25-582.05l-78.24-13.23"/>
					</g>
					<g id="g934" transform="translate(518.2002,566.167)">
						<path id="path936" class="st37" d="M7669.2-10889.36l78.61,13.23l48.76-114.14l63.5-149.29l0.76,4.16l24.95,282.71"/>
					</g>
					<g id="g938" transform="translate(482.7002,526.8667)">
						<path id="path940" class="st37" d="M7570.53-10998.59l60.47-144l3.02-7.56l26.46,292.54"/>
					</g>
					<g id="g942" transform="translate(448.7998,554.3667)">
						<path id="path944" class="st37" d="M7476.3-10922.16l78.24,13.23l49.89-117.17"/>
					</g>
					<g id="g946" transform="translate(494,410.9668)">
						<path id="path948" class="st37" d="M7601.93-11320.74l-235.09,531.03"/>
					</g>
					<g id="g950" transform="translate(529.7002,450.167)">
						<path id="path952" class="st37" d="M7701.16-11211.78l-12.85-127.75l-78.61-13.23"/>
					</g>
					<g id="g954" transform="translate(563.5996,422.667)">
						<path id="path956" class="st37" d="M7795.39-11288.22l-112.25,263.43l-15.87-159.5"/>
					</g>
					<g id="g958" transform="translate(482.7002,526.8667)">
						<path id="path960" class="st37" d="M7570.53-10998.59L7570.53-10998.59l11.34,127.75l78.61,13.23l44.22,7.56"/>
					</g>
					<g id="g962" transform="translate(448.7998,554.3667)">
						<path id="path964" class="st37" d="M7476.3-10922.16l-64.25-10.96l-78.61-13.23l235.09-531.03l78.61,13.23l43.46,7.18"/>
					</g>
					<g id="g966" transform="translate(575.2002,424.667)">
						<path id="path968" class="st37" d="M7827.63-11282.66l-43.85-7.56l-78.23-13.23l-49.89,117.17"/>
					</g>
					<g id="g970" transform="translate(551.9004,539.4668)">
						<path id="path972" class="st37" d="M7762.87-10963.57l10.58,123.97l78.61,13.61l62.74,10.58"/>
					</g>
				</g>
			</g>
			<path id="path80190" sodipodi:nodetypes="ccsscc" class="st38" d="M-294.67,736.38c0.81,1.63,7.43,0.02,8.88-0.66
				c-0.72-1.48-0.61-7.56-2.3-12.22c-1.59-4.4-6.54-3.16-7.25-0.76C-296.22,725.74-294.89,736.55-294.67,736.38L-294.67,736.38z"/>
			<path id="path98496" sodipodi:nodetypes="ccsscc" class="st36" d="M-293.01,721.65l2.01,14.78c-0.88,0.41-3.17,0.13-3.34-0.31
				c-0.78-2.05-1.1-9.88-0.84-12.61c0.19-1.94,1.98-2.24,1.98-2.24L-293.01,721.65z"/>
			<g id="g147369">
				
					<linearGradient id="path101968_1_" gradientUnits="userSpaceOnUse" x1="-1297.7714" y1="641.634" x2="-1295.766" y2="639.8089" gradientTransform="matrix(3.7795 0 0 -3.7795 4624.1035 3142.0063)">
					<stop  offset="0" style="stop-color:#FFD31A"/>
					<stop  offset="1" style="stop-color:#FFE98F"/>
				</linearGradient>
				<path id="path101968" sodipodi:nodetypes="cscsccccscsccc" class="st39" d="M-281.09,714.92c0.19-0.1,0.39-0.19,0.59-0.29
					c4.92-2.31,9.87-2.14,11.05,0.38c1.18,2.52-1.85,6.43-6.77,8.74c-4.92,2.31-9.87,2.14-11.05-0.38c-1.02-1.41,0.5-3.59,1.07-4.28
					c-0.95,0.05-2.98,0.28-5.37,1.55c-0.98,1.84-1.26,3.53-0.57,5.01c1.83,3.9,9.48,4.16,17.09,0.59
					c7.61-3.57,12.3-9.62,10.47-13.52c-1.83-3.9-9.07-3.1-17.09-0.59c-2.74,0.85-11.93,7.25-10.38,8.62c1.22-0.19,3.48-2.12,5.65-2
					L-281.09,714.92z"/>
				
					<linearGradient id="path147363_1_" gradientUnits="userSpaceOnUse" x1="-1297.7695" y1="641.636" x2="-1295.7642" y2="639.811" gradientTransform="matrix(3.7795 0 0 -3.7795 4635.1646 3136.4661)">
					<stop  offset="0" style="stop-color:#FFD31A"/>
					<stop  offset="1" style="stop-color:#FFE98F"/>
				</linearGradient>
				<path id="path147363" sodipodi:nodetypes="cscsccccscscc" class="st40" d="M-270.03,709.38c0.19-0.1,0.39-0.19,0.59-0.29
					c4.92-2.31,9.87-2.14,11.05,0.38c1.18,2.52-1.85,6.43-6.77,8.74c-4.92,2.31-9.87,2.14-11.05-0.38c-1.02-1.41,0.5-3.59,1.07-4.28
					c-0.95,0.05-2.98,0.28-5.37,1.55c-0.98,1.84-1.26,3.53-0.57,5.01c1.83,3.9,9.48,4.16,17.09,0.59
					c7.61-3.57,12.3-9.62,10.47-13.52c-1.83-3.9-9.48-4.16-17.09-0.59c-2.15,1.01-4.8,2.59-5.66,3.34
					C-275.06,709.74-272.21,709.26-270.03,709.38L-270.03,709.38z"/>
			</g>
			<g id="g147375" transform="translate(6.2987761,-3.0599427)">
				
					<linearGradient id="path147371_1_" gradientUnits="userSpaceOnUse" x1="-1304.0682" y1="644.696" x2="-1302.0629" y2="642.8709" gradientTransform="matrix(3.7795 0 0 -3.7795 4665.4175 3145.0662)">
					<stop  offset="0" style="stop-color:#FFD31A"/>
					<stop  offset="1" style="stop-color:#FFE98F"/>
				</linearGradient>
				<path id="path147371" sodipodi:nodetypes="cscsccccscscc" class="st41" d="M-263.58,706.41c0.19-0.1,0.39-0.19,0.59-0.29
					c4.92-2.31,9.87-2.14,11.05,0.38c1.18,2.52-1.85,6.43-6.77,8.74c-4.92,2.31-9.87,2.14-11.05-0.38c-1.02-1.41,0.5-3.59,1.07-4.28
					c-0.95,0.05-2.98,0.28-5.37,1.55c-0.98,1.84-1.26,3.53-0.57,5.01c1.83,3.9,9.48,4.16,17.09,0.59
					c7.61-3.57,12.3-9.62,10.47-13.52c-1.83-3.9-9.48-4.16-17.09-0.59c-2.15,1.01-4.8,2.59-5.66,3.34
					C-268.61,706.78-265.76,706.3-263.58,706.41L-263.58,706.41z"/>
				
					<linearGradient id="path147373_1_" gradientUnits="userSpaceOnUse" x1="-1304.0682" y1="644.696" x2="-1302.0629" y2="642.8709" gradientTransform="matrix(3.7795 0 0 -3.7795 4676.4785 3139.5261)">
					<stop  offset="0" style="stop-color:#FFD31A"/>
					<stop  offset="1" style="stop-color:#FFE98F"/>
				</linearGradient>
				<path id="path147373" sodipodi:nodetypes="cscsccccscscc" class="st42" d="M-252.52,700.87c0.19-0.1,0.39-0.19,0.59-0.29
					c4.92-2.31,9.87-2.14,11.05,0.38c1.18,2.52-1.85,6.43-6.77,8.74s-9.87,2.14-11.05-0.38c-1.02-1.41,0.5-3.59,1.07-4.28
					c-0.95,0.05-2.98,0.28-5.37,1.55c-0.98,1.84-1.26,3.53-0.57,5.01c1.83,3.9,9.48,4.16,17.09,0.59
					c7.61-3.57,12.3-9.62,10.47-13.52c-1.83-3.9-9.48-4.16-17.09-0.59c-2.15,1.01-4.8,2.59-5.66,3.34
					C-257.55,701.24-254.7,700.76-252.52,700.87L-252.52,700.87z"/>
			</g>
			<g id="g147385" transform="translate(12.49389,-6.077161)">
				
					<linearGradient id="path147381_1_" gradientUnits="userSpaceOnUse" x1="-1306.4727" y1="651.3071" x2="-1304.4673" y2="649.4821" gradientTransform="matrix(3.7742 -0.2013 -0.2013 -3.7742 4815.4482 2895.0146)">
					<stop  offset="0" style="stop-color:#FFD31A"/>
					<stop  offset="1" style="stop-color:#FFE98F"/>
				</linearGradient>
				<path id="path147381" sodipodi:nodetypes="cscsccccscscc" class="st43" d="M-246.85,697.9c0.19-0.11,0.38-0.21,0.57-0.32
					c4.79-2.57,9.74-2.66,11.06-0.21c1.31,2.45-1.51,6.52-6.3,9.09c-4.79,2.57-9.74,2.66-11.06,0.21c-1.09-1.36,0.31-3.61,0.84-4.33
					c-0.94,0.1-2.96,0.44-5.28,1.84c-0.88,1.89-1.07,3.6-0.3,5.03c2.03,3.79,9.69,3.65,17.1-0.32c7.41-3.97,11.77-10.26,9.74-14.06
					c-2.03-3.79-9.69-3.65-17.1,0.32c-2.09,1.12-4.66,2.85-5.48,3.64C-251.86,698.53-249.03,697.9-246.85,697.9L-246.85,697.9z"/>
				
					<linearGradient id="path147383_1_" gradientUnits="userSpaceOnUse" x1="-1301.1329" y1="655.7737" x2="-1299.1276" y2="653.9487" gradientTransform="matrix(3.7504 -0.4686 -0.4686 -3.7504 4950.9648 2542.9846)">
					<stop  offset="0" style="stop-color:#FFD31A"/>
					<stop  offset="1" style="stop-color:#FFE98F"/>
				</linearGradient>
				<path id="path147383" sodipodi:nodetypes="cscsccccscscc" class="st44" d="M-236.56,691.4c0.18-0.12,0.36-0.24,0.55-0.36
					c4.6-2.9,9.53-3.35,11.01-0.99c1.48,2.35-1.04,6.61-5.64,9.51c-4.6,2.9-9.53,3.35-11.01,0.99c-1.18-1.27,0.05-3.62,0.53-4.38
					c-0.93,0.17-2.92,0.65-5.14,2.21c-0.75,1.95-0.81,3.66,0.06,5.04c2.3,3.64,9.92,2.95,17.03-1.53
					c7.11-4.49,11.01-11.07,8.72-14.71c-2.3-3.64-9.92-2.95-17.03,1.53c-2.01,1.27-4.44,3.17-5.21,4.02
					C-241.51,692.39-238.74,691.56-236.56,691.4L-236.56,691.4z"/>
				
					<linearGradient id="path147391_1_" gradientUnits="userSpaceOnUse" x1="-1295.3727" y1="659.9283" x2="-1293.3673" y2="658.1033" gradientTransform="matrix(3.7066 -0.7389 -0.7389 -3.7066 5063.7056 2174.4316)">
					<stop  offset="0" style="stop-color:#FFD31A"/>
					<stop  offset="1" style="stop-color:#FFE98F"/>
				</linearGradient>
				<path id="path147391" sodipodi:nodetypes="cscsccccscscc" class="st45" d="M-225.98,683.62c0.17-0.13,0.34-0.27,0.52-0.4
					c4.38-3.23,9.26-4.03,10.91-1.79c1.65,2.24-0.56,6.67-4.93,9.9s-9.26,4.03-10.91,1.79c-1.27-1.19-0.21-3.61,0.21-4.41
					c-0.92,0.24-2.87,0.86-4.96,2.57c-0.6,2-0.54,3.71,0.42,5.02c2.55,3.46,10.11,2.23,16.87-2.76c6.77-4.99,10.18-11.84,7.63-15.3
					c-2.55-3.46-10.11-2.23-16.88,2.76c-1.91,1.41-4.2,3.48-4.9,4.38C-230.84,684.96-228.14,683.93-225.98,683.62L-225.98,683.62z"
					/>
				
					<linearGradient id="path147395_1_" gradientUnits="userSpaceOnUse" x1="-1295.3727" y1="659.9283" x2="-1293.3673" y2="658.1033" gradientTransform="matrix(3.7066 -0.7389 -0.7389 -3.7066 5074.9053 2166.2856)">
					<stop  offset="0" style="stop-color:#FFD31A"/>
					<stop  offset="1" style="stop-color:#FFE98F"/>
				</linearGradient>
				<path id="path147395" sodipodi:nodetypes="cscsccccscscc" class="st46" d="M-214.78,675.47c0.17-0.13,0.34-0.27,0.52-0.4
					c4.38-3.23,9.26-4.03,10.91-1.79c1.65,2.24-0.56,6.67-4.93,9.9c-4.38,3.23-9.26,4.03-10.91,1.79c-1.27-1.19-0.21-3.61,0.21-4.41
					c-0.92,0.24-2.87,0.86-4.96,2.57c-0.6,2-0.54,3.71,0.42,5.02c2.55,3.46,10.11,2.23,16.87-2.76c6.77-4.99,10.18-11.84,7.63-15.3
					c-2.55-3.46-10.11-2.23-16.88,2.76c-1.91,1.41-4.2,3.48-4.9,4.38C-219.64,676.82-216.94,675.79-214.78,675.47L-214.78,675.47z"
					/>
				
					<linearGradient id="path147399_1_" gradientUnits="userSpaceOnUse" x1="-1283.3984" y1="666.7567" x2="-1281.3931" y2="664.9316" gradientTransform="matrix(3.5663 -1.2515 -1.2515 -3.5663 5206.2075 1440.7969)">
					<stop  offset="0" style="stop-color:#FFD31A"/>
					<stop  offset="1" style="stop-color:#FFE98F"/>
				</linearGradient>
				<path id="path147399" sodipodi:nodetypes="cscsccccscscc" class="st47" d="M-206.13,667.31c0.15-0.16,0.3-0.31,0.46-0.46
					c3.88-3.81,8.61-5.29,10.56-3.3c1.95,1.99,0.38,6.68-3.5,10.49c-3.88,3.81-8.61,5.29-10.55,3.3c-1.43-1-0.71-3.55-0.41-4.39
					c-0.88,0.36-2.72,1.25-4.55,3.24c-0.32,2.07-0.02,3.75,1.12,4.92c3.01,3.07,10.32,0.79,16.32-5.1c6-5.89,8.42-13.15,5.41-16.22
					c-3.01-3.07-10.32-0.79-16.32,5.1c-1.69,1.66-3.67,4.04-4.24,5.03C-210.75,669.32-208.22,667.92-206.13,667.31L-206.13,667.31z"
					/>
				
					<linearGradient id="path147403_1_" gradientUnits="userSpaceOnUse" x1="-1275.6531" y1="670.0762" x2="-1273.6477" y2="668.2512" gradientTransform="matrix(3.4457 -1.5532 -1.5532 -3.4457 5238.6372 987.194)">
					<stop  offset="0" style="stop-color:#FFD31A"/>
					<stop  offset="1" style="stop-color:#FFE98F"/>
				</linearGradient>
				<path id="path147403" sodipodi:nodetypes="cscsccccscscc" class="st48" d="M-198.6,657.9c0.13-0.17,0.27-0.34,0.42-0.5
					c3.54-4.13,8.12-6.01,10.23-4.2c2.11,1.81,0.95,6.63-2.58,10.75c-3.54,4.13-8.12,6.01-10.23,4.2c-1.51-0.87-1.01-3.48-0.79-4.34
					c-0.84,0.44-2.6,1.48-4.26,3.62c-0.14,2.08,0.3,3.74,1.54,4.8c3.27,2.8,10.35-0.1,15.82-6.48c5.47-6.38,7.26-13.83,3.99-16.63
					c-3.27-2.8-10.35,0.1-15.82,6.49c-1.54,1.8-3.31,4.34-3.79,5.37C-203.03,660.31-200.63,658.69-198.6,657.9L-198.6,657.9z"/>
				
					<linearGradient id="path147407_1_" gradientUnits="userSpaceOnUse" x1="-1260.5808" y1="674.4397" x2="-1258.5754" y2="672.6147" gradientTransform="matrix(3.1537 -2.083 -2.083 -3.1537 5189.5161 150.4419)">
					<stop  offset="0" style="stop-color:#FFD31A"/>
					<stop  offset="1" style="stop-color:#FFE98F"/>
				</linearGradient>
				<path id="path147407" sodipodi:nodetypes="cscsccccscscc" class="st49" d="M-192.16,647.69c0.11-0.19,0.22-0.37,0.33-0.56
					c2.83-4.64,7.06-7.22,9.43-5.77c2.37,1.45,2,6.39-0.83,11.03c-2.83,4.64-7.06,7.22-9.43,5.77c-1.63-0.62-1.56-3.27-1.47-4.16
					c-0.76,0.57-2.33,1.87-3.62,4.25c0.19,2.08,0.9,3.64,2.29,4.49c3.67,2.24,10.2-1.75,14.58-8.93c4.38-7.17,4.96-14.81,1.29-17.05
					c-3.67-2.24-10.2,1.75-14.58,8.93c-1.24,2.02-2.58,4.81-2.88,5.91C-196.16,650.77-194.05,648.79-192.16,647.69L-192.16,647.69z"
					/>
				
					<linearGradient id="path147495_1_" gradientUnits="userSpaceOnUse" x1="-1247.1199" y1="676.2319" x2="-1245.1145" y2="674.4069" gradientTransform="matrix(2.8356 -2.4988 -2.4988 -2.8356 5040.8823 -561.5536)">
					<stop  offset="0" style="stop-color:#FFD31A"/>
					<stop  offset="1" style="stop-color:#FFE98F"/>
				</linearGradient>
				<path id="path147495" sodipodi:nodetypes="cscsccccscscc" class="st50" d="M-186.76,635.88c0.08-0.2,0.16-0.4,0.25-0.6
					c2.17-4.99,5.99-8.13,8.54-7.02c2.55,1.11,2.86,6.05,0.7,11.04c-2.17,4.99-5.99,8.13-8.54,7.02c-1.7-0.39-1.99-3.02-2.03-3.92
					c-0.68,0.67-2.05,2.18-3,4.71c0.48,2.03,1.39,3.48,2.89,4.13c3.95,1.71,9.86-3.15,13.21-10.86c3.35-7.71,2.87-15.35-1.08-17.07
					c-3.95-1.71-9.86,3.15-13.21,10.86c-0.95,2.18-1.89,5.12-2.04,6.25C-190.29,639.49-188.47,637.24-186.76,635.88L-186.76,635.88z
					"/>
			</g>
			<g id="g147617" transform="matrix(-0.9921069,0.12539494,0.12539494,0.9921069,-1380.753,84.433272)">
				
					<linearGradient id="path147613_1_" gradientUnits="userSpaceOnUse" x1="-139.8174" y1="587.5178" x2="-137.812" y2="585.6927" gradientTransform="matrix(-3.7497 -0.4739 0.4739 -3.7497 -1767.0013 2889.8013)">
					<stop  offset="0" style="stop-color:#FFD31A"/>
					<stop  offset="1" style="stop-color:#FFE98F"/>
				</linearGradient>
				<path id="path147613" sodipodi:nodetypes="cscsccccscscc" class="st51" d="M-964.52,751.04c0.19-0.1,0.39-0.19,0.59-0.29
					c4.92-2.31,9.87-2.14,11.05,0.38c1.18,2.52-1.85,6.43-6.77,8.74c-4.92,2.31-9.87,2.14-11.05-0.38c-1.02-1.41,0.5-3.59,1.07-4.28
					c-0.95,0.05-2.98,0.28-5.37,1.55c-0.98,1.84-1.26,3.53-0.57,5.01c1.83,3.9,9.48,4.16,17.09,0.59
					c7.61-3.57,12.3-9.62,10.47-13.52c-1.83-3.9-9.48-4.16-17.09-0.59c-2.15,1.01-4.8,2.59-5.66,3.34
					C-969.55,751.41-966.7,750.93-964.52,751.04L-964.52,751.04z"/>
				
					<linearGradient id="path147615_1_" gradientUnits="userSpaceOnUse" x1="-139.8174" y1="587.5178" x2="-137.812" y2="585.6927" gradientTransform="matrix(-3.7497 -0.4739 0.4739 -3.7497 -1755.9406 2884.261)">
					<stop  offset="0" style="stop-color:#FFD31A"/>
					<stop  offset="1" style="stop-color:#FFE98F"/>
				</linearGradient>
				<path id="path147615" sodipodi:nodetypes="cscsccccscscc" class="st52" d="M-953.46,745.5c0.19-0.1,0.39-0.19,0.59-0.29
					c4.92-2.31,9.87-2.14,11.05,0.38c1.18,2.52-1.85,6.43-6.77,8.74c-4.92,2.31-9.87,2.14-11.05-0.38c-1.02-1.41,0.5-3.59,1.07-4.28
					c-0.95,0.05-2.98,0.28-5.37,1.55c-0.98,1.84-1.26,3.53-0.57,5.01c1.83,3.9,9.48,4.16,17.09,0.59
					c7.61-3.57,12.3-9.62,10.47-13.52c-1.83-3.9-9.48-4.16-17.09-0.59c-2.15,1.01-4.8,2.59-5.66,3.34
					C-958.49,745.87-955.64,745.39-953.46,745.5L-953.46,745.5z"/>
			</g>
			<g id="g147623" transform="matrix(-0.9921069,0.12539494,0.12539494,0.9921069,-1387.3857,82.187307)">
				
					<linearGradient id="path147619_1_" gradientUnits="userSpaceOnUse" x1="-146.1161" y1="590.5777" x2="-144.1107" y2="588.7527" gradientTransform="matrix(-3.7497 -0.4739 0.4739 -3.7497 -1774.5624 2889.7847)">
					<stop  offset="0" style="stop-color:#FFD31A"/>
					<stop  offset="1" style="stop-color:#FFE98F"/>
				</linearGradient>
				<path id="path147619" sodipodi:nodetypes="cscsccccscscc" class="st53" d="M-947.01,742.54c0.19-0.1,0.39-0.19,0.59-0.29
					c4.92-2.31,9.87-2.14,11.05,0.38c1.18,2.52-1.85,6.43-6.77,8.74c-4.92,2.31-9.87,2.14-11.05-0.38c-1.02-1.41,0.5-3.59,1.07-4.28
					c-0.95,0.05-2.98,0.28-5.37,1.55c-0.98,1.84-1.26,3.53-0.57,5.01c1.83,3.9,9.48,4.16,17.09,0.59
					c7.61-3.57,12.3-9.62,10.47-13.52c-1.83-3.9-9.48-4.16-17.09-0.59c-2.15,1.01-4.8,2.59-5.66,3.34
					C-952.04,742.91-949.19,742.42-947.01,742.54L-947.01,742.54z"/>
				
					<linearGradient id="path147621_1_" gradientUnits="userSpaceOnUse" x1="-146.1161" y1="590.5777" x2="-144.1107" y2="588.7527" gradientTransform="matrix(-3.7497 -0.4739 0.4739 -3.7497 -1763.5015 2884.2446)">
					<stop  offset="0" style="stop-color:#FFD31A"/>
					<stop  offset="1" style="stop-color:#FFE98F"/>
				</linearGradient>
				<path id="path147621" sodipodi:nodetypes="cscsccccscscc" class="st54" d="M-935.95,737c0.19-0.1,0.39-0.19,0.59-0.29
					c4.92-2.31,9.87-2.14,11.05,0.38c1.18,2.52-1.85,6.43-6.77,8.74c-4.92,2.31-9.87,2.14-11.05-0.38c-1.02-1.41,0.5-3.59,1.07-4.28
					c-0.95,0.05-2.98,0.28-5.37,1.55c-0.98,1.84-1.26,3.53-0.57,5.01c1.83,3.9,9.48,4.16,17.09,0.59
					c7.61-3.57,12.3-9.62,10.47-13.52c-1.83-3.9-9.48-4.16-17.09-0.59c-2.15,1.01-4.8,2.59-5.66,3.34
					C-940.98,737.37-938.13,736.88-935.95,737L-935.95,737z"/>
			</g>
			<g id="g147651" transform="matrix(-0.9921069,0.12539494,0.12539494,0.9921069,-1393.9104,79.970751)">
				
					<linearGradient id="path147635_1_" gradientUnits="userSpaceOnUse" x1="-156.7354" y1="590.8175" x2="-154.7301" y2="588.9925" gradientTransform="matrix(-3.7696 -0.2735 0.2735 -3.7696 -1682.3833 2920.3025)">
					<stop  offset="0" style="stop-color:#FFD31A"/>
					<stop  offset="1" style="stop-color:#FFE98F"/>
				</linearGradient>
				<path id="path147635" sodipodi:nodetypes="cscsccccscscc" class="st55" d="M-930.29,734.03c0.19-0.11,0.38-0.21,0.57-0.32
					c4.79-2.57,9.74-2.66,11.06-0.21c1.31,2.45-1.51,6.52-6.3,9.09c-4.79,2.57-9.74,2.66-11.06,0.21c-1.09-1.36,0.31-3.61,0.84-4.33
					c-0.94,0.1-2.96,0.44-5.28,1.84c-0.88,1.89-1.07,3.6-0.3,5.03c2.03,3.79,9.69,3.65,17.1-0.32c7.41-3.97,11.77-10.26,9.74-14.06
					s-9.69-3.65-17.1,0.32c-2.09,1.12-4.66,2.85-5.48,3.64C-935.29,734.66-932.47,734.03-930.29,734.03L-930.29,734.03z"/>
				
					<linearGradient id="path147637_1_" gradientUnits="userSpaceOnUse" x1="-162.3901" y1="586.7571" x2="-160.3847" y2="584.9321" gradientTransform="matrix(-3.7795 -5.330482e-03 5.330482e-03 -3.7795 -1536.3942 2946.2908)">
					<stop  offset="0" style="stop-color:#FFD31A"/>
					<stop  offset="1" style="stop-color:#FFE98F"/>
				</linearGradient>
				<path id="path147637" sodipodi:nodetypes="cscsccccscscc" class="st56" d="M-919.99,727.53c0.18-0.12,0.36-0.24,0.55-0.36
					c4.6-2.9,9.53-3.35,11.01-0.99c1.48,2.35-1.04,6.61-5.64,9.51s-9.53,3.35-11.01,0.99c-1.18-1.27,0.05-3.62,0.53-4.38
					c-0.93,0.17-2.92,0.65-5.14,2.21c-0.75,1.95-0.81,3.66,0.06,5.04c2.3,3.64,9.92,2.95,17.03-1.53
					c7.11-4.49,11.01-11.07,8.72-14.71c-2.3-3.64-9.92-2.95-17.03,1.53c-2.01,1.27-4.44,3.17-5.21,4.02
					C-924.94,728.52-922.17,727.69-919.99,727.53L-919.99,727.53z"/>
				
					<linearGradient id="path147639_1_" gradientUnits="userSpaceOnUse" x1="-167.8472" y1="582.2117" x2="-165.8419" y2="580.3867" gradientTransform="matrix(-3.77 0.2683 -0.2683 -3.77 -1385.3522 2961.6416)">
					<stop  offset="0" style="stop-color:#FFD31A"/>
					<stop  offset="1" style="stop-color:#FFE98F"/>
				</linearGradient>
				<path id="path147639" sodipodi:nodetypes="cscsccccscscc" class="st57" d="M-909.41,719.75c0.17-0.13,0.34-0.27,0.52-0.4
					c4.38-3.23,9.26-4.03,10.91-1.79c1.65,2.24-0.56,6.67-4.93,9.9c-4.38,3.23-9.26,4.03-10.91,1.79c-1.27-1.19-0.21-3.61,0.21-4.41
					c-0.92,0.24-2.87,0.86-4.96,2.57c-0.6,2-0.54,3.71,0.42,5.02c2.55,3.46,10.11,2.23,16.87-2.76c6.77-4.99,10.18-11.84,7.63-15.3
					c-2.55-3.46-10.11-2.23-16.88,2.76c-1.91,1.41-4.2,3.48-4.9,4.38C-914.27,721.09-911.57,720.06-909.41,719.75L-909.41,719.75z"
					/>
				
					<linearGradient id="path147641_1_" gradientUnits="userSpaceOnUse" x1="-167.8472" y1="582.2117" x2="-165.8419" y2="580.3867" gradientTransform="matrix(-3.77 0.2683 -0.2683 -3.77 -1374.1525 2953.4956)">
					<stop  offset="0" style="stop-color:#FFD31A"/>
					<stop  offset="1" style="stop-color:#FFE98F"/>
				</linearGradient>
				<path id="path147641" sodipodi:nodetypes="cscsccccscscc" class="st58" d="M-898.21,711.6c0.17-0.13,0.34-0.27,0.52-0.4
					c4.38-3.23,9.26-4.03,10.91-1.79c1.65,2.24-0.56,6.67-4.93,9.9s-9.26,4.03-10.91,1.79c-1.27-1.19-0.21-3.61,0.21-4.41
					c-0.92,0.24-2.87,0.86-4.96,2.57c-0.6,2-0.54,3.71,0.42,5.02c2.55,3.46,10.11,2.23,16.87-2.76c6.77-4.99,10.18-11.84,7.63-15.3
					c-2.55-3.46-10.11-2.23-16.88,2.76c-1.91,1.41-4.2,3.48-4.9,4.38C-903.07,712.95-900.37,711.92-898.21,711.6L-898.21,711.6z"/>
				
					<linearGradient id="path147643_1_" gradientUnits="userSpaceOnUse" x1="-177.4402" y1="572.313" x2="-175.4348" y2="570.488" gradientTransform="matrix(-3.6951 0.7944 -0.7944 -3.6951 -1089.6625 2960.9705)">
					<stop  offset="0" style="stop-color:#FFD31A"/>
					<stop  offset="1" style="stop-color:#FFE98F"/>
				</linearGradient>
				<path id="path147643" sodipodi:nodetypes="cscsccccscscc" class="st59" d="M-889.56,703.44c0.15-0.16,0.3-0.31,0.46-0.46
					c3.88-3.81,8.61-5.29,10.56-3.3c1.95,1.99,0.38,6.68-3.5,10.49c-3.88,3.81-8.61,5.29-10.55,3.3c-1.43-1-0.71-3.55-0.41-4.39
					c-0.88,0.36-2.72,1.25-4.55,3.24c-0.32,2.07-0.02,3.75,1.12,4.92c3.01,3.07,10.32,0.79,16.32-5.1c6-5.89,8.42-13.15,5.41-16.22
					c-3.01-3.07-10.32-0.79-16.32,5.1c-1.69,1.66-3.67,4.04-4.24,5.03C-894.19,705.45-891.65,704.05-889.56,703.44L-889.56,703.44z"
					/>
				
					<linearGradient id="path147645_1_" gradientUnits="userSpaceOnUse" x1="-182.5825" y1="565.6371" x2="-180.5771" y2="563.8121" gradientTransform="matrix(-3.6132 1.1088 -1.1088 -3.6132 -913.5002 2941.9873)">
					<stop  offset="0" style="stop-color:#FFD31A"/>
					<stop  offset="1" style="stop-color:#FFE98F"/>
				</linearGradient>
				<path id="path147645" sodipodi:nodetypes="cscsccccscscc" class="st60" d="M-882.03,694.03c0.13-0.17,0.27-0.34,0.42-0.5
					c3.54-4.13,8.12-6.01,10.23-4.2c2.11,1.81,0.95,6.63-2.58,10.75c-3.54,4.13-8.12,6.01-10.23,4.2c-1.51-0.87-1.01-3.48-0.79-4.34
					c-0.84,0.44-2.6,1.48-4.26,3.62c-0.14,2.08,0.3,3.74,1.54,4.8c3.27,2.8,10.35-0.1,15.82-6.48c5.47-6.38,7.26-13.83,3.99-16.63
					c-3.27-2.8-10.35,0.1-15.82,6.49c-1.54,1.8-3.31,4.34-3.79,5.37C-886.46,696.43-884.06,694.82-882.03,694.03L-882.03,694.03z"/>
				
					<linearGradient id="path147647_1_" gradientUnits="userSpaceOnUse" x1="-190.5589" y1="552.1246" x2="-188.5535" y2="550.2996" gradientTransform="matrix(-3.39 1.6711 -1.6711 -3.39 -597.6387 2875.5188)">
					<stop  offset="0" style="stop-color:#FFD31A"/>
					<stop  offset="1" style="stop-color:#FFE98F"/>
				</linearGradient>
				<path id="path147647" sodipodi:nodetypes="cscsccccscscc" class="st61" d="M-875.6,683.81c0.11-0.19,0.22-0.37,0.33-0.56
					c2.83-4.64,7.06-7.22,9.43-5.77c2.37,1.45,2,6.39-0.83,11.03c-2.83,4.64-7.06,7.22-9.43,5.77c-1.63-0.62-1.56-3.27-1.47-4.16
					c-0.76,0.57-2.33,1.87-3.62,4.25c0.19,2.08,0.9,3.64,2.29,4.49c3.67,2.24,10.2-1.75,14.58-8.93c4.38-7.17,4.96-14.81,1.29-17.05
					c-3.67-2.24-10.2,1.75-14.59,8.93c-1.24,2.02-2.58,4.81-2.88,5.91C-879.59,686.89-877.48,684.92-875.6,683.81L-875.6,683.81z"/>
				
					<linearGradient id="path147649_1_" gradientUnits="userSpaceOnUse" x1="-195.644" y1="539.5329" x2="-193.6386" y2="537.7078" gradientTransform="matrix(-3.1266 2.1235 -2.1235 -3.1266 -334.6743 2775.7083)">
					<stop  offset="0" style="stop-color:#FFD31A"/>
					<stop  offset="1" style="stop-color:#FFE98F"/>
				</linearGradient>
				<path id="path147649" sodipodi:nodetypes="cscsccccscscc" class="st62" d="M-870.19,672.01c0.08-0.2,0.16-0.4,0.25-0.6
					c2.17-4.99,5.99-8.13,8.54-7.02c2.55,1.11,2.86,6.05,0.7,11.04c-2.17,4.99-5.99,8.13-8.54,7.02c-1.7-0.39-1.99-3.02-2.03-3.92
					c-0.68,0.67-2.05,2.18-3,4.71c0.48,2.03,1.39,3.48,2.89,4.13c3.95,1.71,9.86-3.15,13.21-10.86c3.35-7.71,2.87-15.35-1.08-17.07
					c-3.95-1.71-9.86,3.15-13.21,10.86c-0.95,2.18-1.89,5.12-2.04,6.25C-873.72,675.61-871.9,673.37-870.19,672.01L-870.19,672.01z"
					/>
			</g>
			<g id="g147879" transform="matrix(-0.9921069,0.12539494,0.12539494,0.9921069,-1373.9534,86.682875)">
				
					<linearGradient id="path147875_1_" gradientUnits="userSpaceOnUse" x1="-133.353" y1="584.4326" x2="-131.3476" y2="582.6075" gradientTransform="matrix(-3.7497 -0.4739 0.4739 -3.7497 -1759.2684 2889.8723)">
					<stop  offset="0" style="stop-color:#FFD31A"/>
					<stop  offset="1" style="stop-color:#FFE98F"/>
				</linearGradient>
				<path id="path147875" sodipodi:nodetypes="cscsccccscsccc" class="st63" d="M-982.49,759.62c0.19-0.1,0.39-0.19,0.59-0.29
					c4.92-2.31,9.87-2.14,11.05,0.38c1.18,2.52-1.85,6.43-6.77,8.74c-4.92,2.31-9.87,2.14-11.05-0.38c-1.02-1.41,0.5-3.59,1.07-4.28
					c-0.95,0.05-2.98,0.28-5.37,1.55c-0.98,1.84-1.26,3.53-0.57,5.01c1.83,3.9,9.48,4.16,17.09,0.59
					c7.61-3.57,12.3-9.62,10.47-13.52c-1.83-3.9-9.33-3.83-17.09-0.59c-3.01,1.26-11.57,8.44-10,8.48c1.22-0.19,3.13-1.62,5.31-1.51
					L-982.49,759.62z"/>
				
					<linearGradient id="path147877_1_" gradientUnits="userSpaceOnUse" x1="-133.3535" y1="584.4332" x2="-131.3481" y2="582.6082" gradientTransform="matrix(-3.7497 -0.4739 0.4739 -3.7497 -1748.2075 2884.332)">
					<stop  offset="0" style="stop-color:#FFD31A"/>
					<stop  offset="1" style="stop-color:#FFE98F"/>
				</linearGradient>
				<path id="path147877" sodipodi:nodetypes="cscsccccscscc" class="st64" d="M-971.43,754.08c0.19-0.1,0.39-0.19,0.59-0.29
					c4.92-2.31,9.87-2.14,11.05,0.38c1.18,2.52-1.85,6.43-6.77,8.74c-4.92,2.31-9.87,2.14-11.05-0.38c-1.02-1.41,0.5-3.59,1.07-4.28
					c-0.95,0.05-2.98,0.28-5.37,1.55c-0.98,1.84-1.26,3.53-0.57,5.01c1.83,3.9,9.48,4.16,17.09,0.59
					c7.61-3.57,12.3-9.62,10.47-13.52c-1.83-3.9-9.48-4.16-17.09-0.59c-2.15,1.01-4.8,2.59-5.66,3.34
					C-976.46,754.44-973.6,753.96-971.43,754.08L-971.43,754.08z"/>
			</g>
		</g>
		<path id="path168774" class="st11" d="M-531.19,678.47c1.98,2.78,4.01,5.53,6.08,8.24c4.39,5.5,8.98,10.84,13.77,16
			c4.79,5.16,9.76,10.14,14.92,14.92c1.41,1.24,2.83,2.46,4.26,3.67c1.65-6.29,5.98-8.1,5.98-8.1s3.37-0.61,4.23-5.99
			c0.87-5.38,2.2-11.03,2.2-11.03l7.24-11.88l4.9-7.47c0,0,2.23-5.3-1.16-7.04c-3.39-1.74-6.78-9.44-10.04-9.98
			c-3.26-0.54-5.46-10.87-9.3-10.12c-3.85,0.75-10.2-11-13.4-6.92l-8.09,13.78l-12.94,8.28l-3.47,9.98L-531.19,678.47z"/>
		<path id="path168859" class="st12" d="M-503.82,710.5c2.84,2.84,5.74,5.61,8.7,8.33c0.71,0.63,1.42,1.25,2.13,1.87
			c1.09-3.47,2.87-6.37,7.35-7.44c3.37-7.31,2.64-16.42,9.98-21.88c1.9-7.91,12.68-16.17,4.44-23.96
			c-4.45-3.59-5.85-13.53-13.31-8.91c3.96,9.07,6.38,15.98-2.85,22.64c-8.49,3.88,0.98,12-13.64,19.57
			C-503.34,703.46-503.18,706.92-503.82,710.5z"/>
		<path id="path159054" sodipodi:nodetypes="cscccccccc" class="st31" d="M-529.44,677.38c2.86-1.92,3.7-1.7,4.92-5.87
			c4.9-16.7,14.05-7.12,16.64-18.09c0.61-5.64,13.76-17.78,14.8-2.62c2.58-2.45,9.6-1.33,10.24,8.14c6.4-0.29,10.93,2.62,9.5,8.43
			c2.93,2.09,6.33,1.12,6.45,6.98c-2.27,11.77-5.06,2.57-7.96,16.21c-6.37,9.59-6.42,5.64-7.03,15.5
			c-2.3,10.41-1.36,5.21-10.47,12.17"/>
	</g>
</g>
</svg>
