<?xml version="1.0" encoding="utf-8"?>
<!-- Generator: Adobe Illustrator 25.3.1, SVG Export Plug-In . SVG Version: 6.00 Build 0)  -->
<svg version="1.1"
	 id="svg8" inkscape:version="1.1.1 (3bf5ae0, 2021-09-20)" sodipodi:docname="3.svg" xmlns:cc="http://creativecommons.org/ns#" xmlns:dc="http://purl.org/dc/elements/1.1/" xmlns:inkscape="http://www.inkscape.org/namespaces/inkscape" xmlns:rdf="http://www.w3.org/1999/02/22-rdf-syntax-ns#" xmlns:sodipodi="http://sodipodi.sourceforge.net/DTD/sodipodi-0.dtd" xmlns:svg="http://www.w3.org/2000/svg"
	 xmlns="http://www.w3.org/2000/svg" xmlns:xlink="http://www.w3.org/1999/xlink" x="0px" y="0px" viewBox="0 0 1024 1024"
	 style="enable-background:new 0 0 1024 1024;" xml:space="preserve">
<style type="text/css">
	.st0{fill:#424991;}
	.st1{fill:#071051;}
	.st2{fill:#F3E8CC;}
	.st3{fill:#FFF0BE;}
	.st4{fill:#FFE99F;}
	.st5{fill:#F9CF6E;}
	.st6{fill:none;stroke:#4B4633;stroke-width:3.9792;stroke-linecap:round;stroke-linejoin:round;stroke-miterlimit:15.1181;}
	.st7{fill:none;stroke:#4B4633;stroke-width:3.7996;stroke-linecap:round;stroke-linejoin:round;stroke-miterlimit:15.1181;}
	.st8{fill:none;stroke:#F9CF6E;stroke-width:3.9792;stroke-linecap:round;stroke-linejoin:round;stroke-miterlimit:15.1181;}
	.st9{fill:#FFFFFF;}
	.st10{fill:#4B4633;}
	.st11{fill:none;stroke:#4B4633;stroke-width:0.8703;}
	.st12{fill:none;stroke:#F9CF6E;stroke-width:5.9688;stroke-linecap:round;stroke-linejoin:round;stroke-miterlimit:15.1181;}
	.st13{fill:none;stroke:#F9CF6E;stroke-width:5.4435;stroke-linecap:round;stroke-linejoin:round;stroke-miterlimit:15.1181;}
	.st14{fill:none;stroke:#4B4633;stroke-width:5.5286;stroke-miterlimit:25.4092;}
	.st15{fill:none;stroke:#F9CF6E;stroke-width:5.9502;stroke-linecap:round;stroke-linejoin:round;stroke-miterlimit:15.1181;}
	.st16{fill:#1A1A1A;stroke:#000000;stroke-width:0.5292;stroke-linejoin:round;}
	.st17{fill:#1A1A1A;stroke:#000000;stroke-width:2;}
	.st18{fill:url(#path65243_1_);}
	.st19{fill:url(#path58311_1_);}
	.st20{fill:url(#path23735_1_);}
	.st21{fill:url(#path65582_1_);}
	.st22{fill:none;stroke:#4B4633;stroke-width:1.9896;stroke-linecap:round;stroke-linejoin:round;stroke-miterlimit:15.1181;}
	.st23{fill:none;stroke:#4B4633;stroke-width:3.709;stroke-linecap:round;stroke-linejoin:round;stroke-miterlimit:15.1181;}
	.st24{clip-path:url(#SVGID_2_);}
	.st25{fill:#FFD31A;}
	.st26{fill:#FFE98F;}
	.st27{fill:#EA9C00;}
	.st28{fill:#FFB41D;}
	.st29{fill:none;stroke:#EA9C00;stroke-width:0.8025;stroke-linecap:round;stroke-linejoin:round;stroke-miterlimit:1.9324;}
	.st30{fill:#FFD31A;stroke:#EA9C00;stroke-width:1;stroke-miterlimit:15.1181;}
	.st31{fill:url(#path388697_1_);stroke:#FFB41D;stroke-width:1.0893;stroke-miterlimit:15.1181;}
	.st32{fill:url(#path388699_1_);stroke:#FFB41D;stroke-width:1.0893;stroke-miterlimit:15.1181;}
	.st33{fill:url(#path388703_1_);stroke:#FFB41D;stroke-width:1.0893;stroke-miterlimit:15.1181;}
	.st34{fill:url(#path388705_1_);stroke:#FFB41D;stroke-width:1.0893;stroke-miterlimit:15.1181;}
	.st35{fill:url(#path388709_1_);stroke:#FFB41D;stroke-width:1.0893;stroke-miterlimit:15.1181;}
	.st36{fill:url(#path388711_1_);stroke:#FFB41D;stroke-width:1.0893;stroke-miterlimit:15.1181;}
	.st37{fill:url(#path388713_1_);stroke:#FFB41D;stroke-width:1.0893;stroke-miterlimit:15.1181;}
	.st38{fill:url(#path388715_1_);stroke:#FFB41D;stroke-width:0.9494;stroke-miterlimit:15.1181;}
	.st39{fill:url(#path388727_1_);stroke:#FFB41D;stroke-width:1.0893;stroke-miterlimit:15.1181;}
	.st40{fill:url(#path388729_1_);stroke:#FFB41D;stroke-width:1.0893;stroke-miterlimit:15.1181;}
	.st41{fill:url(#path388733_1_);stroke:#FFB41D;stroke-width:1.0893;stroke-miterlimit:15.1181;}
	.st42{fill:url(#path388735_1_);stroke:#FFB41D;stroke-width:1.0893;stroke-miterlimit:15.1181;}
	.st43{fill:url(#path388739_1_);stroke:#FFB41D;stroke-width:1.0893;stroke-miterlimit:15.1181;}
	.st44{fill:url(#path388741_1_);stroke:#FFB41D;stroke-width:1.0893;stroke-miterlimit:15.1181;}
	.st45{fill:url(#path388743_1_);stroke:#FFB41D;stroke-width:1.0893;stroke-miterlimit:15.1181;}
	.st46{fill:url(#path388745_1_);stroke:#FFB41D;stroke-width:1.0893;stroke-miterlimit:15.1181;}
	.st47{fill:url(#path388747_1_);stroke:#FFB41D;stroke-width:1.0893;stroke-miterlimit:15.1181;}
	.st48{fill:url(#path388749_1_);stroke:#FFB41D;stroke-width:1.0893;stroke-miterlimit:15.1181;}
	.st49{fill:url(#path388751_1_);stroke:#FFB41D;stroke-width:1.0893;stroke-miterlimit:15.1181;}
	.st50{fill:url(#path388753_1_);stroke:#FFB41D;stroke-width:1.0893;stroke-miterlimit:15.1181;}
	.st51{fill:url(#path390094_1_);stroke:#FFB41D;stroke-width:1.0893;stroke-miterlimit:15.1181;}
	.st52{fill:url(#path388757_1_);stroke:#FFB41D;stroke-width:1.0893;stroke-miterlimit:15.1181;}
	.st53{fill:url(#path388759_1_);stroke:#FFB41D;stroke-width:1.0893;stroke-miterlimit:15.1181;}
</style>
<sodipodi:namedview  bordercolor="#666666" borderlayer="true" borderopacity="1.0" id="base" inkscape:current-layer="layer1" inkscape:cx="521.23871" inkscape:cy="576.29203" inkscape:document-rotation="0" inkscape:document-units="px" inkscape:guide-bbox="true" inkscape:pagecheckerboard="1" inkscape:pageopacity="0" inkscape:pageshadow="2" inkscape:snap-global="false" inkscape:window-height="967" inkscape:window-maximized="1" inkscape:window-width="1280" inkscape:window-x="0" inkscape:window-y="1" inkscape:zoom="0.98994949" pagecolor="#585858" showgrid="false" showguides="true" units="px">
	<sodipodi:guide  id="guide1250844" orientation="0,-1" position="178.06115,60.704554"></sodipodi:guide>
	<sodipodi:guide  id="guide1250846" orientation="1,0" position="60.826371,51.358056"></sodipodi:guide>
</sodipodi:namedview>
<g id="layer1" inkscape:groupmode="layer" inkscape:label="Layer 1">
	<circle id="circle1248940" class="st0" cx="512" cy="512" r="315.16"/>
	<g id="g1254590" transform="translate(9.9836259,-33.31404)">
		<circle id="circle388409" class="st1" cx="502.52" cy="545.09" r="282.2"/>
		<g id="g414039" transform="translate(541.5102,34.626291)">
			<path id="path388431" sodipodi:nodetypes="cscscscccscsssscc" class="st2" d="M0.61,398.23c0,0-0.02,9.76,12.43,16.34
				c12.45,6.58,33.59,14.91,33.59,14.91s5.78,6.45,3.65,13.29c-2.12,6.85-1.05,9.42-1.05,9.42s5.22,18.97,0.91,24.28
				c-4.31,5.31-13.02,8.11-13.02,8.11l-0.9,6.52l-4.38,4.31l-5.78-0.53c-2.81-0.26,1.92,8.59,1.84,9.65
				c3.04,1.99-2.78,15.06-5.83,15.72c-2.21,0.48-38.25,24.16-65.74,4.37s-28-59.4-25.31-70.08c2.69-10.68,17.8-42.99,22.58-48.65
				C-41.61,400.23,0.61,398.23,0.61,398.23L0.61,398.23z"/>
			
				<path id="path388433" sodipodi:nodetypes="cssssssssssssssssssscscssssssssssssssccccccccccccccccccccsccssccsccccccsscccccccccccccccccccccccccccccccccsccccccccccsscssccccccccccccccccccccccccccccccccccccccccc" class="st3" d="
				M-176.85,756.73c1.11,0.63,2.22,1.26,3.35,1.87c2,1.09,4.01,2.15,6.04,3.19c2.03,1.04,4.07,2.05,6.13,3.04
				c2.06,0.99,4.13,1.96,6.21,2.9c2.08,0.94,4.18,1.86,6.29,2.75c2.11,0.89,4.23,1.76,6.37,2.6s4.29,1.66,6.45,2.45
				c2.16,0.79,4.33,1.56,6.52,2.29c2.19,0.74,4.38,1.45,6.59,2.14c2.21,0.69,4.43,1.35,6.66,1.98c2.23,0.63,4.48,1.24,6.73,1.82
				s4.52,1.13,6.79,1.66s4.56,1.02,6.86,1.49c2.3,0.47,4.6,0.91,6.92,1.32c2.32,0.41,4.64,0.8,6.98,1.16s4.68,0.69,7.03,0.98
				c2.35,0.3,4.72,0.57,7.09,0.81c2.37,0.24,4.75,0.45,7.14,0.63c2.39,0.18,4.78,0.33,7.19,0.46c2.4,0.12,4.82,0.21,7.24,0.28
				c2.42,0.06,4.85,0.09,7.29,0.09c2.44,0,4.86-0.03,7.28-0.09c2.42-0.06,4.83-0.15,7.24-0.28c2.4-0.12,4.8-0.27,7.19-0.46
				c2.39-0.18,4.77-0.39,7.14-0.63c2.37-0.24,4.73-0.51,7.09-0.81c2.35-0.3,4.7-0.63,7.04-0.98c2.34-0.36,4.66-0.74,6.98-1.16
				c2.32-0.41,4.62-0.85,6.92-1.32s4.58-0.97,6.86-1.49c2.28-0.53,4.54-1.08,6.79-1.66c2.25-0.58,4.5-1.19,6.73-1.82
				c2.23-0.63,4.45-1.3,6.66-1.98c2.21-0.69,4.41-1.4,6.59-2.14c2.19-0.74,4.36-1.5,6.52-2.29s4.31-1.61,6.45-2.45
				c1.76-0.69,3.5-1.41,5.24-2.14l-1.33-17.22l-6.01-18.48l1.68-21.33l-6.43-8.64l-4.44-9l3.64-17.38l-4.08-16.96
				c0,0,11.2-17.68,1.32-36.09c0.13-17.42,3.74-18.1-1.28-23.34c-2.78-5.02,3.21-22.26,3.21-22.26l-0.29-22.32
				c0,0,1.64-9,2.49-11.94c0.85-2.94-1.49-12.12-1.49-12.12l1.82-12.21l0.7-41.73c0.1-0.21,0.28-0.58,0.28-0.58
				s-0.14-1.17-0.22-2.86l0.04-2.22l-0.1,0.09c-0.02-2.73,0.19-6.01,1.14-8.28c1.9-4.57-1.12-15.28-1.12-15.28s0.51-4.54,1.88-6.55
				c1.37-2.01-2.19-16.88-1.16-24.67c1.02-7.78-4.54-33.95-3.25-37.92c1.29-3.97-3.85-24.53-3.85-24.53l6.66-14.49
				c0.36-1.98,9.8-1.77,7.76-5.77c-3.71-7.29,2.85-8.55,0.8-16.23c-0.26-6.48-3.21-13.14-8.77-16.71
				c-0.49-6.37,4.46-12.98-0.27-19.47c-2.58-9.86-16.66-9.3-15.33-20.74c-0.55-9.68-8.62-14.05-18.22-14.8
				c-6.67-3.95-10.07-9.41-19.42-9.38c-1.73-0.21-15.92-2.11-17.64-1.83l0,0c-12.33-11.63-17.92-8.35-42.04-5.5
				c-7.98,0.65-12.01-2.24-17.54-1.5c-3.43,0.09-10.15,1.84-13.38,3.94l-24.9,10.83l-20.31-26.15c-5.14-2.38-11.13-9.84-12.09,12.45
				c-4.92,8.77-3.79,30.98-2.79,38.8l-7.36,11.11l-2.03,11.71l-6.69,6.87l-1.56,10.18l-4.65,6.59l-2.12,12.52l4.25,11.15
				l-0.65,16.56l6.42,6.87l-2.95,32.48l3.87,10.16c0,0-1.58,8.65-1.04,13.13c0.54,4.48-1.88,27.85-1.88,27.85l-0.86,19.64
				c0,0,1.42,13.22,1.49,16.35c0.08,3.13,2.29,33.93,2.29,33.93l3.16,11.7l-2.53,19.84l3.09,13.05l-2.05,17.76l5.01,13.65
				l-2.67,19.08l2.73,15.27l2.39,9.64l-1.23,16.5l4.87,11.29c0,0-6.92,15.37-5.87,18.47c1.05,3.1,2.33,23.32,2.33,23.32
				c-9.44,9.32-6.82,5.94-5.5,13.23l3.85,8.92l-13.71,4.57l-1.33,8.61l-10.24,5.54L-176.85,756.73z M-4.17,403.29
				c2.11,3.65,5.51,11.77,11.99,10.64l-0.66-4.25c2.65,3.65,6.41,6.17,9.96,7.4c6.01,2.09,26.88,11.37,31.83,16.61
				c4.95,5.24-0.18,13.52-0.18,13.52s0.22,3.17,1.68,8.61s1.26,14.74-0.64,21.22c-1.9,6.48-12.2,7.06-12.2,7.06l-0.36,4.37
				l-3.3,4.01l-3.65,2.09l-4.64,1.72l5.55-1.12l-3.72,3.94l1.35,4.47c0.2,16.51-3.45,2.61-8.62,18.36l-2.56-13.34L6.4,522.63
				l-0.72-11.69l-14.37,12.33l-0.93-9.43l-13.8,5.25l3.91-10.09l-14.13,3.8l2.67-12.22l-18.26-0.88l9.98-10.9l-11.37-3.88l6.68-5.11
				l-13.27-9.72l8.59-2.27l-6.91-9.53c4.84-7.48,18.21-9.45,7.44-22.04l9.17,5.39c-3.59-5.87-8.04-11.72-11.55-14.36l10.38,2.33
				l-3-8.15l9.7,3.77l-4.91-7.91l8.32,2.26l-4.33-8.32l6.73,2.66l11.13,5.65l-6.45-12.04l9.51,4.62l-0.08-8.45l9.21,8.88
				L-4.17,403.29z"/>
			<path id="path388435" class="st4" d="M-64.11,466.4c0.57-0.12,1.81,0.68,3.99,2.75c-1.5,0.6-2.47,1.07-3.47,1.54
				C-64.41,468.32-64.84,466.55-64.11,466.4z"/>
			<path id="path388437" class="st4" d="M-134.09,315.09c2.54,6.84,5.55,19.58,3.07,24.93c-1.13,2.43-1.3,8.9-4.47,6.33
				c-3.48-2.82,2.04-9.64-1.58-17.51C-137.88,327.08-133.76,319.43-134.09,315.09z"/>
			<path id="path388439" class="st4" d="M-134.99,312.85c0.56,0.54,0.83,1.31,0.9,2.24C-134.4,314.25-134.7,313.49-134.99,312.85z"
				/>
			<path id="path388441" sodipodi:nodetypes="csssscssssssssssssssssscc" class="st4" d="M43.71,388.17L18.33,401.1
				c-7.63,3.89,0.71,14.69-6.2,9.87c-1.93-1.35-4.56-0.71-6.43-2.67c-2.07-2.17-1.36-7.51-4.33-9.11c-1.03-0.55-0.72,5.06-0.77,5.04
				c-3.53-1.56-5.45-7.62-6.16-6.62c-0.52,0.73-0.92,6.29-1.37,6.31c-2.93,0.13-5.55-6.9-9.16-5.94c-3.48,0.93-0.14,7.08-2.22,8.03
				c-0.6,0.28-8.18-3.42-10.11-3.33c-2.65,0.12,1.09,7.43-1.91,5.69c-4.54-2.62-87.24,10.33-89.07,5.78
				c-0.35-0.86,10.2-4.57,8.55-10.46c-1.44-5.14-5.6-11.53-1.92-14.03c7.51-5.1-3.46-22.54-2.23-20.23
				c2.18,4.1,32.16-2.41,30.74-5.52c-1.19-2.62,21.8-1.89,24.46-0.73c6.15,2.7,22.55,8.78,28.64,6.32
				c12.11-4.88,7.2,0.39,18.42,1.68c1.87,0.22,10.31-1.39,10.71-1.21c3.11,1.49,3.06,5.76,7.98,6.11c2.5,0.18,9.73-2.06,9.88-1.79
				c12.75,22.83,27.39-6.95,28.82-10.2C50.54,369.8,46.44,382.45,43.71,388.17L43.71,388.17z"/>
			<path id="path388443" class="st4" d="M-134.9,232.49l14.76,30.2l-3.61-15.02c7.74,3.41,15.9,14.64,24.41,14.21
				c0,0,5.43-1.5,11.15,4.65c2.74,2.94,5.24,5.16,7.15,6.73c-0.35-0.77-0.75-1.88-1.9-3.13c-1.97-2.13-5.08-4.74-6.04-7.53
				c1.01,0.32,2.03,0.9,3.13,0.9c2.43,0.01,4.48-3.06,4.54-3.01c2.29,2.01,2.08,3.8,5.81,3.47c0.67-0.06,5.23-2.12,5.45-1.99
				c1.85,1.07-0.13,5.53-0.93,6.53c-1.98,2.47-3.71,4.04-6.64,5.25c-0.91,0.38-1.55,0.57-2.01,0.6c0.88,0.66,2.03,1.53,2.03,1.53
				l-15.37,19.54c0,0-2.88,2.68-10.73,8.21c-7.85,5.53-16,18.43-16,18.43l-9.24,7.22c1.16-13.4,3.63-21.56,3.35-23.31
				c-0.28-1.75-8.93-33.5-8.93-33.5s-1.48-17.81-2.11-24.1C-137.26,242.09-134.9,232.49-134.9,232.49L-134.9,232.49z"/>
			<path id="path388447" sodipodi:nodetypes="ccsscssssscccccscccc" class="st5" d="M-85.3,378.07c9.07,4.54,11.02,3.86,18.89,2.18
				c9.99,1.25,9.46,8.33,20.17,5.89c7.14-1.62,7.65-4.59,11.31-2c16.77,11.85,17.57-0.49,22.9,3.6c10.8,10.62,13.02,2.47,16.6,2.02
				c4.33-0.54-3.97-1.12,6.33,0.26c9.79,1.31,7.03-2.04,15.67,6.47c7.68-4.35,11.02-2.1,9.97-8.73c-1.23-9.04,6.04-10.95,0.67-19.12
				c-7.99,2.44-2.91-1.85,1.63,7.71c1.04,9.79-10.82,17.43-18.42,10.07c-6.05-3.69-5.17-13.24-13.43-11.18
				c-6.53-6.06-14.21-5.64-22.49-4.56c-8.58-3.83-16.93-1.44-25.52,0.2c-9.61,1.98-16.27-9.69-25.41-5.63
				c-8.36,6.06-17.69-6.39-24.7,2.91c-5.01,4.95-13.86-3.09-12.91,5.65C-100.5,378.38-92.19,382.83-85.3,378.07L-85.3,378.07z"/>
			<path id="path388449" sodipodi:nodetypes="csscc" class="st3" d="M28.44,250.86c0,0-11.53-3.99-8.31-9.24
				c1.6-2.61,15-18.02,17.56-27.92c1.22-4.74,9.91-1.53,9.91-1.53c12.33-0.2,1.29,53.39,3.79,66.04"/>
			
				<path id="path388445" sodipodi:nodetypes="ssssssscssscsscccsscsscsssccccccccsccccsssccccccsssssssssssscscccsssssssccsscssssssccsssssss" class="st4" d="
				M-176.37,757c0.96,0.53,1.9,1.08,2.87,1.6c2,1.09,4.01,2.15,6.04,3.19c2.03,1.04,4.07,2.05,6.13,3.04
				c2.06,0.99,4.13,1.96,6.21,2.9c2.08,0.94,4.18,1.86,6.29,2.75c2.11,0.89,4.23,1.76,6.37,2.6c1.92,0.76,3.85,1.49,5.79,2.2
				c0.67-3.77,1.58-7.51,3.48-11.08c1.41-2.63,4.8-3.31,5.96-5.38c2.36-4.19,1.2-10.25,3.76-14.84c0.81-1.45,5.96-5.05,6.06-5.84
				c0.64-4.88-1.64-12.11-1.55-17.46c0.06-3.63,2.4-8.39,2.1-11.69c-0.37-4-5.44-6.97-5.41-12.83c0.02-3.99,2.19-7.64,2.36-11.43
				c0.19-4.19-1.23-8.39-0.91-12.75c0.38-5.15,2.52-10.21,2.73-15.31c0.11-2.77-8.15-16.75-8.81-24.26
				c-0.52-5.94,2.53-10.49,2.99-16.01c0.42-5.07-1.94-10.2-1.29-15.59c0.54-4.48,3.38-9.02,3.46-13.45c0.08-4.76-3.2-11-3.39-16.47
				c-0.28-7.94,10.91-12.6,4.35-16.41c-1.89-1.1-6.81-13.27,7.45-13.54c14.92-0.28,27.99-11.85,24.68-10.64
				c-3.57,1.31-24.52,3.18-25.11-11.98c-10.56-11.3-12.23-9.53-11.26-23.15c-14.08-14.1-6.49-10.93-4.2-28.54
				c-11.3-5.86-3.03-15.99,1.86-22.25c-2.68-15.17,5.63-23.46,15.25-24.57c4.67-3.79,5.78-11.62,6.97-16.27
				c0.57-3.88-0.1-23.63-0.1-23.63l-1.52-3.39c0.89-1.29,1.76-2.71,2.06-2.88c3.37-1.93,7-4.51,10.76-6.37
				c11.35-0.67,23.44,1.57,33.33-4.76c4.85,9.3,29.65,11.47,34.21,7.28l10.09,0.38c7.01-0.91,16.86-0.53,26.62,6.38
				c1.91,1.35,6.16,0.61,7.95,2.33c4.04,3.87,3.73,12.47,11.99,10.4c12.87-3.22,9.34-15.51,10.48-24.52
				c-0.28-4.63,6.86-28.43,0.61-17.45c1.19,8.54-7.81,15.46-9.27,18.6c-0.28,3.4,2.88,13.31-2.72,14.56
				c-8.55-0.05-8.86-10.68-11.75-14.2c-1.12,0.47-2.15,0.84-3.11,1.13c0.81-5.94-7.85-6.77-9.8-9.9c-0.36-0.57,0.17-9.98-1.84-13.76
				c-2.63-4.96-6.54-8.1-12.18-8.82c-1.17-0.15-2.89,0.15-3.98-0.36c-0.68-0.32-0.86-3.71-1.15-4.39c-1.15-2.66-3.16-4.86-5.39-6.65
				c-5.4-4.32-10.22-1.5-12.87-3.05c-0.59-0.35-3.32-10.44-4.85-12.41c-2.77-3.58-6.56-7.3-11.25-7.94
				c-1.05-0.14-2.97,0.29-3.9-0.28c-1.65-1.02-2.84-7.83-3.92-9.59c-3.95-6.45-11.31-10.4-18.66-10.4c-3.34,0-6.68,0.81-9.7,2.57
				c0,0-10,15.05-19.98,21.57c-9.98,6.52-12.81,19.57-12.81,19.57s-16.13-31.06-19.53-19.76c-4.53,5.28-15.88,10.06-12.01,23.45
				c0,0,2.3,10.23-4.93,14.32c-7.23,4.09-3.36,19.8-3.07,22.26c0.28,2.46,1.97,12.54-1.04,15.25c-3.01,2.72-4.14,11.17-3.88,15.33
				c0.26,4.16,5.76,10.5,6.1,13c0.34,2.51-1.17,7.45-2.75,10.91c-1.58,3.46-0.08,14.33-0.71,17.58c-0.63,3.26-2.93,8.14-2.93,8.14
				l3.17,10.42c0,0-3.35,13.96-2.71,18.57c0.65,4.6,4.85,9.36,2.61,23.09c-2.24,13.73,2.67,19.15,2.67,19.15s2.73,15.15-0.63,23.25
				c-3.35,8.09,3.64,12.49,3.94,17.53c0.3,5.04-2.67,12.33-4.04,16.34c-1.37,4.01,5.33,13.55,7.25,20.89
				c1.92,7.34-4.77,16.76-1.72,28.31c3.05,11.56,3.07,16.09,0.67,26.9s4.48,14.92,3.43,21.7c-1.05,6.78-0.99,16.94-0.99,16.94
				s1.68,14.02-0.55,18.62c-2.22,4.6-4.73,11.43-2.62,15.72c2.1,4.29,1.57,8.17-1.62,7.58c-3.19-0.59-9.43,2.25-8.91,6.41
				c0.53,4.16-6.18,10.01-8.85,11.64C-174.02,748.67-177.45,752.26-176.37,757z"/>
			<path id="path388453" sodipodi:nodetypes="csc" class="st6" d="M-20.51,425.39c-4.14,1.41-10.46,6.39-10.29,18.83
				c0.05,3.7,8.91,7.81,11,9.06"/>
			<path id="path388455" sodipodi:nodetypes="cscc" class="st7" d="M-10.61,448.43c1.54-2.9,8.11-3.11,14.88,0.25
				c6.01,2.99-12.09-0.03-12.09-0.03c11.87,0.7,25.75,5.77,27.78,12.6"/>
			<path id="path388457" sodipodi:nodetypes="ccccssc" class="st8" d="M-129.27,332.51c0.41-9-5.16-29.85-8.08-38.92
				c-3.24-15.45-7-12.51-6.36-29.23c-1.88-11.96-2.88-22.97,0.35-31.85c2.47-6.02,2.09-17.92,10.33-15.4
				c7.36,2.25,11.14,15.88,20.58,26.53c13.64,15.39,21.24,13.91,31.7,30.43"/>
			<path id="path388459" sodipodi:nodetypes="cscscccssc" class="st5" d="M-133.82,235.97c0.92,1.62,3.34,9.46,6.22,21.71
				c2.88,12.25,1.82,18.8,1.82,18.8s-3.74-10.75-5.42-8.71c-1.68,2.04,2.41,20.97,7.59,34.03c5.18,13.06,4.61,20.25,4.61,20.25
				l6.83-12.61c0,0-2.97-19.1-4.83-29.98c-1.86-10.89-5.26-23.26-7.69-28.13C-127.11,246.47-133.82,235.97-133.82,235.97z"/>
			<path id="path388461" sodipodi:nodetypes="cccsc" class="st8" d="M-117.43,317.85c-7.77-12.42-14.89-37.02-14.62-50.35
				 M-133.41,234.71c5.97,10.98,11.75,22.57,13.04,28.95c3.48,17.21,2.55,17.22,8.8,48.26"/>
			<path id="path388463" sodipodi:nodetypes="cscccc" class="st4" d="M34.52,248.28c0.14,0.28,5.58-9.16,6.73-13.28
				c1.06-3.8,5.56-8.67,5.75-6.94c2.21,12.9,2.86,50.54,2.63,49.29l-7.03-7.64L34.52,248.28z"/>
			<g id="g388473" transform="matrix(-1.2169435,0.05603457,0.06516985,1.415341,-550.94805,-39.934517)">
				<path id="path388465" sodipodi:nodetypes="ccc" class="st9" d="M-444.08,334.22c-5.8,8.57-24.17,8.88-33.78,3.56
					C-479.92,329.92-458.96,303.05-444.08,334.22z"/>
				
					<ellipse id="ellipse388467" transform="matrix(1 5.000748e-03 -5.000748e-03 1 1.6531 2.3077)" class="st10" cx="-460.64" cy="331.72" rx="12.01" ry="-11.18"/>
				<path id="path388469" sodipodi:nodetypes="cccc" class="st11" d="M-453.46,320.63c3.81,2.6,7.18,7.72,9.33,16.39
					c-8.37,3.36-24.21,5.93-33.74,0.77c-1.74-6.5,4.56-15.47,12.38-18.38"/>
				
					<ellipse id="ellipse388471" transform="matrix(0.9994 -0.0348 0.0348 0.9994 -11.8159 -15.6982)" class="st9" cx="-456.37" cy="331.21" rx="3.98" ry="-2.3"/>
			</g>
			<path id="path388477" sodipodi:nodetypes="cccc" class="st12" d="M-159.62,491.92c-1.83,9.08,5.18,18.71,10.86,18.93
				c-0.11,7.54,6.09,15.81,17.1,12.66c0.58,3.34,7.32,14.14,16.84,8.9"/>
			<path id="path388479" sodipodi:nodetypes="cccc" class="st13" d="M-63.59,497.66c7.44-6.2,6.92-16.94-1.19-24.03
				c4.09-2.74,11.89-12.11,2.06-13.99c22.94-10.02,17.02-24.79,7.99-22.73"/>
			<g id="g388489" transform="matrix(-1.6789314,0.07730695,0.07730695,1.6789314,-634.86789,-64.923384)">
				<path id="path388481" sodipodi:nodetypes="ccc" class="st9" d="M-305.89,298.43c-5.8,8.57-24.17,8.88-33.78,3.56
					C-341.73,294.13-320.77,267.26-305.89,298.43z"/>
				
					<ellipse id="ellipse388483" transform="matrix(0.9997 -0.0246 0.0246 0.9997 -7.4155 -7.878)" class="st10" cx="-323.34" cy="296.93" rx="11.21" ry="-11.03"/>
				<path id="path388485" sodipodi:nodetypes="ccsc" class="st14" d="M-305.89,298.43c-5.8,8.57-24.17,8.88-33.78,3.56
					c-0.22-0.85-0.18-1.92,0.1-3.11C-337.27,289.01-319.16,270.62-305.89,298.43L-305.89,298.43z"/>
				
					<ellipse id="ellipse388487" transform="matrix(0.9997 -0.0246 0.0246 0.9997 -7.362 -7.7848)" class="st9" cx="-319.53" cy="294.8" rx="3.97" ry="-2.3"/>
			</g>
			<path id="path388491" sodipodi:nodetypes="cccccc" class="st13" d="M-89.56,422.28c-7.33-6.59-20.25-6.8-26.55-6.09
				 M-74.53,425.2c-11.79-3.92-22.82-2.54-32.02,4.06 M-53.01,425.33c-22.04-2-28.27,1.39-36.23,8.06"/>
			<path id="path388495" sodipodi:nodetypes="cccccc" class="st15" d="M-145.03,274.55c-2.71,1.3-11.26,7.58-8.74,20.46
				c-8.42,3.7-8.42,7.78-7.94,19.01c-13.62,5.53-3.4,25.89-2.58,26c1.2,5.92-4.58,14.63,1.98,20.65c4.61,3.45,3.28,2.09,3.52,16.8"
				/>
			<path id="path388497" class="st15" d="M-159.31,381.23c0.32-0.75,0.54-1.39,0.53-1.83c-0.02-0.74-0.02-1.26-0.03-1.94
				L-159.31,381.23z"/>
			<path id="path388501" sodipodi:nodetypes="ccscscssscsccsccsccsscc" class="st15" d="M-178.01,753.88
				c2.33-3.41,3.68-6.85,12.36-9.71c2.39-2.8,3.48-5.93,2.97-10.22c-0.62-5.16,11.32-3.72,12.26-4.06
				c2.96-1.07-5.33-10.97-2.33-17.88c1.81-4.18,4.99-5.5,5.52-10c1.16-9.89-5.43-19.66-0.03-29.39c3.5-6.31-1.31-8.97-2.77-15.72
				c-1.3-5.99-0.66-13.06,0.94-18.93c0.43-1.58,0.82-2.47,0.54-4.4c-0.76-6.22-5.41-12.04-6.22-18.68
				c-1.02-8.4,3.11-14.45,2.89-19.81c-0.26-6.13-4.2-11.9-4.6-18.3c-0.5-8.08,2.94-15.95,2.66-23.87
				c-0.15-4.38-3.68-8.51-3.52-14.13c0.1-3.45,2.3-6.86,2.16-10.2c-0.29-6.91-3.68-17.87-4.49-24.76
				c-1.42-12.03,1.21-11.15,1.5-23.09c-8.74-10.87-0.2-19.18-1.21-26.18c-5.61-8.73-0.19-16.53,0.38-21.18
				c1-8.15-1.05-12.16,1.21-17.79c2.74-6.83-0.1-7.02,0.27-14.41c-3.62-3.43-3.63-10.66-1.97-19.2"/>
			<path id="path388503" sodipodi:nodetypes="cssscsscssscccscccccc" class="st12" d="M67.23,770.12c0-2.41,2.1-5.33,2.05-13.62
				c-0.06-9.45-6.82-12.5-7.35-21.16c-0.28-4.57,6.4-7.95,1.24-22.35c-2.17-6.05-9.04-11.27-9.63-17.41
				c-0.56-5.88,3.16-7.57,2.91-15.97c-0.19-6.26-5.3-14.88-4.85-20.73c0.68-8.84,4.78-9.73,4.2-19.06
				c-0.42-6.76-0.84-8.14-1.82-14.45c-1.35-8.7,2.24-9.67,1.11-18.34c-0.81-6.21-2.21-6.67-2.96-12.4
				c-0.33-2.48,2.99-12.91,3.38-15.85c0.79-5.89-1.57-10.15-0.89-13.57c6.38-16.03,2.35-27.11,1.2-32.43
				c6.3-12.09,4.76-19.17,0.92-29.01c-1.91-4.89,10.32-12.81,1.21-29.59c5.89-14.69,3.75-18.62,0.08-25.66
				c5.93-10.87,2.38-13.64,0.05-18.9c1.83-8.18,2.47-14.17,0.33-20.62c2.81-11.36-0.57-17.55-3.46-24.15
				c2.43-7.59,2.83-19.18-1.42-26.31"/>
			<g id="g70579" transform="matrix(0.95186227,0,0,1.0006767,-20.667919,-4.5416542)">
				<path id="path10322" sodipodi:nodetypes="ccccccc" class="st16" d="M-102.99,388.81l-34.34,12.98l-7.27,17.03l1.03,4.95
					l8.33-12.88l31.15-7.14L-102.99,388.81z"/>
				<path id="path58190" sodipodi:nodetypes="ccccccccccscccccccs" d="M63.95,386.48c0-0.02-20.2,0.55-27.96,1.86
					c-2.45,0.42-3.29,0.69-3.12,3.58c-0.38,10.15,0.46,19.58,3.48,28.26c21.71,14.25,26.36,4.85,37.55,19.27l9.06-0.37
					c10.78-2.01,13.63-32.18,15.13-48.04c0-0.08,0-0.16-0.01-0.25C97.13,387.91,81.72,386.51,63.95,386.48L63.95,386.48z
					 M-35.34,386.54c-22.27,0.06-46.12,2.02-53.05,5.07c-1.87,0.84-2.06,2.07-1.7,4.28c1.35,18.32,4.01,50.72,19.74,52.39
					l47.71-4.14c1.85-0.16,2.72-0.45,3.97-1.89c9.38-9.32,16.11-33.03,14.94-49.93c0.1-0.66-0.49-3.57-3.7-3.91
					C-15.03,387.08-22.68,386.5-35.34,386.54L-35.34,386.54z"/>
				<path id="path2493" sodipodi:nodetypes="ccccccscscccccssccccccccccccccccccccccccsscccc" class="st17" d="M75.12,442.83
					l9.04-0.42c11.53-0.98,16.18-40.44,16.18-40.44l6.27-2.79c0.59-0.73,1.17-9.82,0.15-11.19l-6.62-2.23
					c-7.93-2.67-22.11-3.62-35.86-3.66l0,0l0,0c-16.35-0.05-32.07,1.93-34.51,3.07l-0.03,0.33v-0.18
					c-6.59-1.59-22.27-1.4-25.89,0.24l0.04-0.18c-2.55-1.2-18.42-3.72-39.22-3.91l-0.01,0c-19.4-0.18-41.65,0.77-55.46,4.19
					l-12.22,3.02c-2.07,1.89-2.18,14.29-1.17,15.25l11.01,3.27c0,0,3.69,46.92,22.69,45.23l48.82-4.35c3-0.46,3.76-1.18,4.82-2.39
					c10.13-11.61,16.86-29.38,19.69-40.06c8.69-3.9,20.98-2.94,26.7,0.71c0.7,4.17,1.74,8.44,3.05,12.55
					C47.36,426.42,70.8,427.56,75.12,442.83L75.12,442.83z M-35.35,386.54c12.67-0.03,20.31,0.54,27.92,1.87
					c3.2,0.35,3.79,3.25,3.7,3.91c1.16,16.9-5.56,40.61-14.94,49.93c-1.26,1.44-2.12,1.73-3.97,1.89l-47.71,4.14
					c-15.73-1.67-18.39-34.07-19.74-52.39c-0.36-2.21-0.17-3.45,1.7-4.28C-81.46,388.55-57.62,386.6-35.35,386.54L-35.35,386.54z
					 M35.77,418.44c-2.55-8.2-3.26-17.04-2.9-26.52c-0.16-2.89,0.67-3.17,3.12-3.58c7.76-1.32,27.96-1.88,27.96-1.86v0
					c17.86,0.03,33.36,1.45,34.16,4.36c-1.51,15.82-4.33,46.23-15.16,48.25l-8.13,0.33C65.64,428.76,48.79,425.43,35.77,418.44
					L35.77,418.44z"/>
				
					<linearGradient id="path65243_1_" gradientUnits="userSpaceOnUse" x1="-775.838" y1="755.6689" x2="-806.6736" y2="717.13" gradientTransform="matrix(3.5976 0 0 -3.7821 2841.3472 3145.0574)">
					<stop  offset="0" style="stop-color:#1D1D1D"/>
					<stop  offset="1" style="stop-color:#FFFFFF;stop-opacity:0"/>
				</linearGradient>
				<path id="path65243" class="st18" d="M-35.34,386.54c-22.27,0.06-46.12,2.02-53.05,5.07c-1.87,0.84-2.06,2.07-1.7,4.28
					c1.35,18.32,4.01,50.72,19.74,52.39l47.71-4.14c1.85-0.16,2.72-0.45,3.97-1.89c9.38-9.32,16.11-33.03,14.94-49.93
					c0.1-0.66-0.49-3.57-3.7-3.91C-15.03,387.08-22.68,386.5-35.34,386.54L-35.34,386.54z"/>
				
					<linearGradient id="path58311_1_" gradientUnits="userSpaceOnUse" x1="-756.4841" y1="747.247" x2="-773.5773" y2="720.2072" gradientTransform="matrix(3.5976 0 0 -3.7821 2841.3472 3145.0574)">
					<stop  offset="0" style="stop-color:#FFFFFF"/>
					<stop  offset="1" style="stop-color:#FFFFFF;stop-opacity:0"/>
				</linearGradient>
				<path id="path58311" sodipodi:nodetypes="cccccccccc" class="st19" d="M63.95,386.48c0-0.02-20.2,0.55-27.96,1.86
					c-2.45,0.42-3.29,0.69-3.12,3.58c-0.39,10.28,0.48,19.8,3.58,28.57c12.18,22.46,14.19,14.32,37.55,18.95l8.95-0.36
					c10.78-2.01,13.63-32.18,15.13-48.04c0-0.08,0-0.16-0.01-0.25C97.13,387.91,81.72,386.51,63.95,386.48L63.95,386.48z"/>
				
					<linearGradient id="path23735_1_" gradientUnits="userSpaceOnUse" x1="-778.4249" y1="726.9976" x2="-784.9193" y2="727.2388" gradientTransform="matrix(3.5976 0 0 -3.7821 2841.3472 3145.0574)">
					<stop  offset="0" style="stop-color:#666666"/>
					<stop  offset="1" style="stop-color:#666666;stop-opacity:0"/>
				</linearGradient>
				<path id="path23735" sodipodi:nodetypes="ccccc" class="st20" d="M28.73,386.47l0.5,17.94c-2.72-1.79-7.16-2.48-12.33-2.71
					l-0.71-16.45C20.87,385.49,25.51,385.22,28.73,386.47z"/>
				
					<linearGradient id="path65582_1_" gradientUnits="userSpaceOnUse" x1="-2197.6094" y1="675.0233" x2="-2199.3545" y2="588.1522" gradientTransform="matrix(0.9519 0 0 -1.0007 2094.1379 1018.0817)">
					<stop  offset="0" style="stop-color:#646464"/>
					<stop  offset="1" style="stop-color:#1A1A1A;stop-opacity:0"/>
				</linearGradient>
				<path id="path65582" sodipodi:nodetypes="ccccccscscccccsscccccccccccccccccccccccssccc" class="st21" d="M75.43,442.82
					l8.74-0.41c11.53-0.98,16.18-40.44,16.18-40.44l6.27-2.79c0.59-0.73,1.17-9.82,0.15-11.19l-6.62-2.23
					c-7.93-2.67-22.11-3.62-35.86-3.66l0,0l0,0c-16.35-0.05-32.07,1.93-34.51,3.07l-0.03,0.33v-0.18
					c-6.59-1.59-22.27-1.4-25.89,0.24l0.04-0.18c-2.55-1.2-18.42-3.72-39.22-3.91l-0.01,0c-19.4-0.18-41.65,0.77-55.46,4.19
					l-12.22,3.02c-2.07,1.89-2.18,14.29-1.17,15.25l11.01,3.27c0,0,3.69,46.92,22.69,45.23l48.82-4.35c3-0.46,3.76-1.18,4.82-2.39
					c10.13-11.61,16.86-29.38,19.69-40.06c8.69-3.9,20.98-2.94,26.7,0.71c0.5,3,1.18,6.04,2.01,9.05 M-35.35,386.54
					c12.67-0.03,20.31,0.54,27.92,1.87c3.2,0.35,3.79,3.25,3.7,3.91c1.16,16.9-5.56,40.61-14.94,49.93
					c-1.26,1.44-2.12,1.73-3.97,1.89l-47.71,4.14c-15.73-1.67-18.39-34.07-19.74-52.39c-0.36-2.21-0.17-3.45,1.7-4.28
					C-81.46,388.55-57.62,386.6-35.35,386.54L-35.35,386.54z M35.23,417.71c-1.81-7.27-2.68-17.55-2.37-25.79
					c-0.16-2.89,0.67-3.17,3.12-3.58c7.76-1.32,27.96-1.88,27.96-1.86v0c17.86,0.03,33.36,1.45,34.16,4.36
					c-1.51,15.82-4.33,46.23-15.16,48.25l-8.88,0.36"/>
			</g>
			<path id="path408218" sodipodi:nodetypes="sssccsscs" class="st3" d="M16.58,375.31c0.22,1.64,3.14,12.75,9.32,13.2
				c6.18,0.45,10.06,0.6,11.05-4.98c0.99-5.58-0.75-13.68-0.75-13.68l-3.38,1.34c-0.11,0.09,0.53,4.15-5.1,3.45
				c-7.29-0.91-4.4,3.07-6,0.88C20.12,373.34,16.58,375.31,16.58,375.31L16.58,375.31z"/>
			<path id="path404103" sodipodi:nodetypes="sssccccs" class="st4" d="M16.58,375.31c0.22,1.64,3.14,12.75,9.32,13.2
				c6.18,0.45,10.06,0.6,11.05-4.98c0.99-5.58-0.75-13.68-0.75-13.68l-3.38,1.34c2.03,14.05-7.17,15.28-11.1,4.33
				C20.12,373.34,16.58,375.31,16.58,375.31L16.58,375.31z"/>
			<path id="path388475" sodipodi:nodetypes="cccccccsccccccccc" class="st12" d="M-111.79,369.95c9.42,6.73,25.48-2.36,26.79-7.54
				c7.74,6.24,18.33,6.53,24.57-1.78c4.05,4.08,9.4,10.34,16.93,10.09c6.91,2.4,13.37-0.95,19.17-4.88c4.91,7.45,15.17,7.83,22,3.76
				c3.03,6.47,8.42,9.13,17.4,4.31c1.13,6.52,6.45,18.29,16.72,15.21c8.06-2.42,7.33-12.6,5.99-19.99c1.87-3.98,11-14.98,4.94-26.78
				c-3.69-7.3,8.15-13.26,6.1-20.95c-0.26-6.48-2.07-14.02-7.63-17.59c-0.49-6.37,2.35-11.74-2.38-18.23 M29.46,271.82
				c-0.89-11.8-8.6-15.26-18.15-15.74c-1.94-4.22-8.57-15.12-20.81-11.68c-1.29-2.83-5.68-8.79-13.32-10.9"/>
			<path id="path388505" sodipodi:nodetypes="cscccc" class="st12" d="M-72.52,270.11c-3.92,4.16-2.58,2.63-12.32,8.53
				c-4.27,2.59-6.65,11.56-7.67,15.98c-1.92,4.89-7.31,5.29-10.9,8.74c-2.95,1.7-12.89,12.52-13.78,19.9
				c-12.25,9.19-10.93,8.68-14.03,19.84"/>
			<path id="path388507" sodipodi:nodetypes="csscc" class="st8" d="M17.82,242.86c0,0,5.04-7.12,9.15-11.71
				c8.09-9.04,10.48-17.41,14.08-19.11c4.42-2.1,8.71,2.58,8.71,2.58c6.25,8.82,0.39,39.92,1.38,62.12"/>
			<path id="path388509" sodipodi:nodetypes="cccccc" class="st22" d="M39,426.9l1.08,2.09 M30.14,429.68l1.51,3.27 M20.61,430.38
				l1.31,6.14"/>
			<path id="path388511" sodipodi:nodetypes="cccccccccc" class="st12" d="M41.84,363.43c7.76-1.67,17.74-11.13,16.58-18.99
				c2.17-0.76,13-5.75,8.34-19.66c-0.15-7.48,0.66-15.54-7.87-22.89c0.17-15.91-1.44-16.39-6.9-23.74
				C37.52,255.93,43,258.18,26.46,252.1c-6.49-6.01-9.42-14.56-37.6-11.71c-14.89-13.91-40.46-10.17-41.95-5.9
				c-15.62-8.12-26.18,0.81-31.52,3.96c-3.44-1.71-19.94-0.31-23,7.94"/>
			<path id="path388513" class="st8" d="M34.7,252.66c0,0,5.68-18.65,7.91-20.13"/>
			<path id="path388517" sodipodi:nodetypes="csscc" class="st6" d="M2.64,402.25c0.54,4.9,3.76,9.3,9.56,12.32
				c13.21,6.86,32.61,12.56,36.21,17.9c3.59,5.35,1.6,12.8,1.6,12.8c-1.98,3.48-3.54,7.45-8.4,9.12"/>
			<path id="path388519" sodipodi:nodetypes="cscc" class="st23" d="M43.13,443.98c-2.41-2.09-8.8,0-14.44,4.93
				c-5,4.38,12.74-4.74,12.74-4.74c-8.53,4.03-20.04,10.96-20.93,16.94"/>
			<path id="path388521" sodipodi:nodetypes="cccccc" class="st22" d="M-8.93,429.72l-0.15,0.76 M0.46,431.46l-1.2,3.39
				 M9.63,432.14l0.24,3.77"/>
			<path id="path388525" sodipodi:nodetypes="csc" class="st6" d="M48.84,449.61c0,0,7.1,18.57,1.49,27.18
				c-9.23,14.17-28.57,4.02-30.38-1.17"/>
			<path id="path388527" sodipodi:nodetypes="csc" class="st6" d="M19.81,461.01c0,0,4.19,18.16-12.01,23.59
				c-28.76,9.65-47.33-14.54-47.1-21.5"/>
			<path id="path388529" sodipodi:nodetypes="cc" class="st6" d="M37.21,485.64c-4.47,16.96-10.18,5.7-27.04,11.18"/>
			<path id="path388533" sodipodi:nodetypes="cc" class="st6" d="M-35.03,461.2c-4.17-1.67-7.81,0.21-9.46,3.97"/>
			<path id="path388535" sodipodi:nodetypes="ccccc" class="st12" d="M-53.65,522.11c13.11-3.34,14.46,14.7,14.25,11.79
				c15.81-7,15.44-0.87,24.09,4.75c-1.94,1.84,18.3-15.56,31.84,2c-0.13-3.92,8.26-20.49,20.56-11.7"/>
			<path id="path388543" sodipodi:nodetypes="cccc" class="st10" d="M15.85,481.71c2.07-1.54,4.13-2.5,8.49-0.13l-4.64-6.37
				L15.85,481.71z"/>
			<g id="g388763" transform="translate(272.03188,2.7219637)">
				<g>
					<defs>
						<rect id="SVGID_1_" x="-363.82" y="679.07" width="193.24" height="193.24"/>
					</defs>
					<clipPath id="SVGID_2_">
						<use xlink:href="#SVGID_1_"  style="overflow:visible;"/>
					</clipPath>
					<g id="g388691" transform="matrix(0.05112821,0,0,-0.05112821,-701.89645,227.83152)" class="st24">
						<g id="g388557" transform="matrix(0.88039568,0,0,1,505.05589,335.9668)">
							<path id="path388555" sodipodi:nodetypes="ccscccccc" class="st25" d="M9105.1-11671.34l-159.87,15.5
								c-315.24,31.2-598.81,299.54-570.95,672.26c6.48,86.67,39.17,181.92,78.1,253.73c18.14,15.12,99.31,148.62,255.4,231.78
								c224.13,119.43,380.69,88.35,402.24,85.71c-458.08-74.46-549.92-408.19-571.47-585.45
								c-15.88-132.28,24.95-255.88,54.04-313.7C8637.57-11402.23,8775.14-11646.01,9105.1-11671.34"/>
						</g>
						<g id="g388561" transform="translate(521.4004,668.3667)">
							<path id="path388559" class="st26" d="M8061.52-10747.42c346.92,0,628.16-281.24,628.16-628.16
								c0-346.92-281.24-628.16-628.16-628.16c-346.92,0-628.16,281.24-628.16,628.16
								C7433.36-11028.65,7714.6-10747.42,8061.52-10747.42"/>
						</g>
						<g id="g388565" transform="translate(521.4004,635.2666)">
							<path id="path388563" class="st25" d="M8061.52-10839.42c277.83,0,503.06-225.23,503.06-503.06
								c0-277.83-225.23-503.06-503.06-503.06c-277.83,0-503.06,225.23-503.06,503.06
								C7558.46-11064.65,7783.69-10839.42,8061.52-10839.42"/>
						</g>
						<g id="g388569" transform="translate(523.9004,334.7666)">
							<path id="path388567" d="M8068.47-11674.67l-2.65,14.74L8068.47-11674.67z"/>
						</g>
						<g id="g388573" transform="translate(359.7998,546.167)">
							<path id="path388571" sodipodi:nodetypes="cccccccc" class="st27" d="M7612.35-11087.08l-79.53,13.12
								c-1.51,0.38-2.65,1.89-2.65,3.4c0.38,1.51,1.51,2.65,3.02,2.65l80.66-4.43c4.16-0.38,7.18-3.78,7.18-7.94
								c-0.38-4.16-3.78-7.18-7.94-7.18C7612.72-11087.08,7612.72-11087.08,7612.35-11087.08"/>
						</g>
						<g id="g388577" transform="translate(353.7002,484.667)">
							<path id="path388575" sodipodi:nodetypes="ccccccsc" class="st27" d="M7595.39-11258.02l-78.15,13.93
								c-1.51,0.37-2.65,1.89-2.65,3.4c0.38,1.51,1.51,2.64,3.02,2.64l79.29-4.85c4.16-0.38,7.18-3.78,7.18-7.94
								c-0.38-4.15-3.78-7.18-7.94-7.18H7595.39z"/>
						</g>
						<g id="g388581" transform="translate(372.6001,420.667)">
							<path id="path388579" sodipodi:nodetypes="ccccccsc" class="st27" d="M7647.92-11435.91l-79.08,14.31
								c-1.51,0.38-2.65,1.89-2.65,3.4c0.38,1.52,1.51,2.65,3.02,2.65l79.84-5.24c4.16-0.38,7.18-3.78,7.18-7.94
								c-0.38-4.16-3.78-7.18-7.94-7.18H7647.92z"/>
						</g>
						<g id="g388585" transform="translate(414.2002,370.0664)">
							<path id="path388583" sodipodi:nodetypes="ccscscsscscc" class="st27" d="M7763.55-11576.55
								c-7.94,2.27-15.87,3.03-23.43,4.16l-23.81,3.4c-15.87,2.27-14.84,5.32-30.34,7.21c-1.51,0.37-3.02,1.89-2.65,3.4
								c0.38,1.51,1.51,2.65,3.4,2.65c15.87-1.13,14.84-3.43,30.72-4.19l23.81-1.13c7.94-0.38,15.87-1.13,23.81-0.38
								c4.16,0.38,7.94-2.65,8.32-6.81c0.38-4.15-2.65-7.93-6.8-8.31C7765.44-11576.93,7764.31-11576.55,7763.55-11576.55"/>
						</g>
						<g id="g388589" transform="translate(521.0996,665.7666)">
							<path id="path388587" class="st27" d="M8060.69-10754.64c-314.08,0-584.7-237.73-618.71-556.73
								c-17.76-165.54,30.24-327.69,134.55-457.32c104.32-129.26,253.23-210.52,418.4-227.91c22.3-2.27,44.6-3.4,66.52-3.4
								c314.08,0,584.7,237.73,618.71,556.73c36.28,341.29-211.65,648.95-553.33,685.23
								C8104.53-10755.78,8082.61-10754.64,8060.69-10754.64 M8061.44-12015.5c-22.68,0-45.35,1.13-68.03,3.78
								c-169.32,18.14-321.64,100.92-428.6,233.58c-106.96,132.66-156.09,298.96-137.95,468.29l7.56-0.76l-7.56,0.76
								c37.42,349.61,352.25,603.97,701.86,566.55c349.61-37.42,603.97-352.25,566.55-701.86
								C8660.5-11772.1,8383.08-12015.5,8061.44-12015.5"/>
						</g>
						<g id="g388593" transform="translate(481.87299,335.11222)">
							<path id="path388591" sodipodi:nodetypes="ccscsccccc" class="st27" d="M7951.65-11673.71h-0.76
								c-349.61,37.41-603.97,352.25-566.55,701.86c37.42,349.61,352.25,603.97,701.86,566.55c4.16-0.38,7.18-4.16,6.8-8.32
								c-0.38-4.16-4.16-7.18-8.31-6.8c-341.29,36.28-648.95-211.65-685.23-553.33c-36.28-341.3,211.65-648.95,553.33-685.23
								c4.16-0.38,7.18-4.15,6.8-8.31C7958.83-11671.07,7955.43-11673.71,7951.65-11673.71"/>
						</g>
						<g id="g388597" transform="translate(430.7998,402.2666)">
							<path id="path388595" class="st27" d="M7809.69-11487.05c-23.43,18.52-44.6,40.44-63.5,63.87l-13.61,18.14
								c-2.27,3.02-4.16,6.05-6.43,9.45l-6.05,9.45c-1.89,3.02-4.16,6.42-6.05,9.45l-5.67,9.83l-5.67,9.83l-2.65,4.91l-2.65,4.91
								c-27.59,53.67-45.73,112.25-52.91,171.97c-14.74,119.81,14.36,244.91,82.02,345.07c33.64,50.27,76.35,94.11,125.48,129.64
								c48.76,35.53,104.32,61.61,162.52,77.86c29.1,7.94,58.96,13.61,88.82,16.25c29.86,2.65,60.47,2.65,90.33,0
								c30.24-2.27,59.71-7.94,88.82-15.5c14.36-4.16,28.72-8.69,42.71-14.36c13.99-5.67,27.59-12.09,40.45-20.03
								c1.89-1.13,2.26-3.4,1.13-5.29c-0.76-1.51-3.02-2.27-4.54-1.51c-13.98,4.91-27.97,9.83-41.95,14.36
								c-13.99,4.54-27.97,8.69-41.96,12.47c-28.35,7.56-57.07,12.47-86.55,14.74c-29.11,2.27-58.58,2.65-87.69-0.38
								c-29.1-2.65-57.83-8.32-86.17-16.25c-56.31-15.87-109.61-41.57-156.85-75.97c-47.24-34.39-88.44-77.1-120.95-125.48
								c-65.76-96.76-94.11-217.32-80.5-333.35c6.8-58.21,24.19-114.9,50.65-166.68c13.61-26.08,29.1-50.64,46.49-74.08
								c17.76-23.43,36.66-45.73,56.31-67.65c1.51-1.51,1.13-3.78-0.38-5.29C7813.47-11488.19,7811.21-11488.19,7809.69-11487.05"/>
						</g>
						<g id="g388601" transform="translate(621.2998,412.167)">
							<path id="path388599" class="st27" d="M8339.2-11459.53c-18.9-24.57-41.19-46.49-65.39-66.14l-18.52-13.98
								c-6.42-4.54-12.85-8.69-19.28-13.23c-6.43-4.54-13.23-8.32-20.03-12.09c-6.8-3.78-13.23-7.94-20.41-11.34
								c-27.59-14.74-56.69-26.46-86.17-35.53l-11.34-3.4c-3.78-1.13-7.56-2.27-11.34-3.02l-22.68-5.29
								c-7.56-1.51-15.49-2.65-23.05-4.16c-3.78-0.76-7.56-1.51-11.72-1.89l-11.72-1.51c-15.5-2.27-30.99-2.27-46.87-3.02
								c-7.94,0-15.5,0-23.43,0.37c-3.78,0-7.94,0-11.72,0.38l-11.71,0.76c-15.5,1.13-31,2.64-46.49,5.29
								c-15.5,2.65-30.61,5.67-45.73,9.83c-15.12,3.78-29.86,8.69-44.6,13.98c-14.74,5.3-29.1,11.34-43.09,18.15
								c-27.97,13.61-54.8,30.24-78.24,50.65c-1.51,1.51-1.89,3.78-0.38,5.29c1.13,1.51,3.02,1.89,4.91,0.76
								c13.23-7.56,26.46-15.12,39.69-22.3c13.61-6.8,26.83-13.98,40.82-20.03c27.59-12.47,55.94-22.68,85.04-30.24
								c14.74-3.78,29.48-6.8,44.22-9.07c14.74-2.65,29.86-4.16,44.98-4.91l11.34-0.76c3.78-0.38,7.56,0,11.34-0.38
								c7.56,0,15.12-0.38,22.68-0.38c15.12,0.76,30.24,1.14,44.98,3.03l11.34,1.13c3.78,0.38,7.56,1.13,11.34,1.89
								c7.56,1.13,14.74,2.27,22.3,3.78l21.92,4.91c3.78,0.76,7.18,1.89,10.96,3.02l10.96,3.02c28.72,8.7,57.07,19.66,83.91,33.64
								c26.84,13.98,52.54,29.86,76.35,48.38c23.81,18.52,46.87,38.55,68.79,59.34c1.51,1.51,3.78,1.51,5.29,0
								C8340.33-11456.14,8340.33-11458.03,8339.2-11459.53"/>
						</g>
						<g id="g388605" transform="translate(631.9004,576.0669)">
							<path id="path388603" class="st27" d="M8368.66-11003.97c28.35-37.04,50.27-78.99,65.39-123.59
								c3.78-10.96,7.18-22.3,10.21-33.64c2.64-11.34,5.67-22.68,7.94-34.39c4.15-23.05,7.56-46.49,8.32-69.92
								c2.26-46.87-2.65-94.11-13.61-139.84c-10.96-45.73-29.1-89.57-54.42-128.88c-1.13-1.89-3.41-2.27-5.29-1.13
								c-1.51,1.13-2.26,3.02-1.51,4.91c19.28,41.58,34.77,84.66,44.97,128.88c4.91,22.3,8.69,44.6,10.58,67.28
								c2.27,22.68,2.65,45.35,1.89,68.03c-0.75,22.68-3.4,45.35-7.18,67.65c-1.89,11.34-4.54,22.3-6.8,33.26
								c-3.03,10.96-5.67,21.92-9.45,32.88c-13.61,43.46-33.64,84.66-56.69,123.97c-1.14,1.89-0.38,4.16,1.51,5.29
								C8365.26-11001.7,8367.52-11002.46,8368.66-11003.97"/>
						</g>
						<g id="g388609" transform="translate(607.4004,603.2666)">
							<path id="path388607" class="st27" d="M8300.56-10928.37c5.67-2.65,10.96-6.42,15.87-9.83c4.92-3.78,9.83-7.94,13.98-12.09
								c4.54-4.16,8.69-8.69,12.47-13.61c3.78-4.91,7.56-9.83,10.21-15.5c1.13-1.89,0.38-4.16-1.89-5.29
								c-1.13-0.76-2.65-0.38-3.78,0.38c-5.29,3.4-9.82,7.18-14.36,11.34c-4.54,4.16-9.08,7.94-13.23,12.09
								c-4.16,4.16-8.32,8.69-12.47,12.85c-4.16,4.54-7.94,9.07-11.72,13.98c-1.13,1.89-0.75,4.16,0.76,5.29
								C8297.53-10927.61,8299.05-10927.61,8300.56-10928.37"/>
						</g>
						<g id="g388613" transform="translate(538.9004,664.7666)">
							<path id="path388611" sodipodi:nodetypes="cccscccc" class="st27" d="M8110.16-10757.42h-0.76l-152.43,12.81
								c-4.15,0.38-7.18,4.16-6.8,8.32c0.38,4.16,4.16,7.18,8.31,6.8l160.32-12.45c4.16-0.38-0.71-4.51-1.09-8.67
								C8116.97-10754.4,8113.94-10757.42,8110.16-10757.42"/>
						</g>
						<g id="g388617" transform="translate(503.5,333.167)">
							<path id="path388615" class="st27" d="M8011.77-11679.12h-0.76l-160.25,17.01c-4.16,0.38-7.18,4.16-6.8,8.32
								c0.38,4.16,4.16,7.18,8.31,6.8l160.25-17.01c4.16-0.38,7.18-4.16,6.8-8.32
								C8018.95-11676.47,8015.55-11679.12,8011.77-11679.12"/>
						</g>
						<g id="g388621" transform="translate(392.8999,606.167)">
							<path id="path388619" sodipodi:nodetypes="cccccscc" class="st27" d="M7704.35-10920.3l-85.21,10.24
								c-1.89,0.38-3.4,2.27-3.4,4.16c0.38,1.89,1.89,3.4,4.16,3.4l85.97-3.06c4.16-0.38,7.18-3.78,6.8-7.94s-3.78-7.18-7.94-6.8
								H7704.35z"/>
						</g>
						<g id="g388625" transform="translate(444.1001,647.3667)">
							<path id="path388623" sodipodi:nodetypes="ccsccssc" class="st27" d="M7846.66-10805.79l-80.33,11.18
								c-1.89,0.38-3.4,2.27-3.02,4.16c0.38,1.89,1.89,3.4,4.16,3.4l81.09-3.63c4.16-0.38,7.18-3.78,7.18-7.94s-3.78-7.18-7.94-7.18
								H7846.66z"/>
						</g>
						<g id="g388629" transform="translate(568.7002,499.9668)">
							<path id="path388627" class="st28" d="M8192.99-11215.49l-63.5,149.29l10.58,123.97l78.61,13.61l-24.95-282.71
								L8192.99-11215.49z"/>
						</g>
						<g id="g388633" transform="translate(551.9004,539.4668)">
							<path id="path388631" class="st26" d="M8146.3-11105.7l63.5-149.29l0.76,4.16l24.95,282.71l62.74,10.58l78.62,13.23
								l-64.25-582.05l-78.24-13.23l-43.85-7.56l-112.25,263.43l-15.87-159.5l-12.85-127.75l-78.61-13.23l-43.46-7.18
								l-235.09,531.03l64.25,10.96l78.24,13.23l49.89-117.17l60.47-144l3.02-7.56l26.46,292.54l44.22,7.56l78.61,13.23
								L8146.3-11105.7z"/>
						</g>
						<g id="g388637" transform="translate(533.9004,492.3672)">
							<path id="path388635" class="st28" d="M8096.27-11236.61l112.25-263.43l-78.23-13.23l-49.89,117.17L8096.27-11236.61z"/>
						</g>
						<g id="g388641" transform="translate(485.7002,560.667)">
							<path id="path388639" class="st28" d="M7962.29-11046.77l78.61,13.23l-26.46-292.54l-3.02,7.56l-60.47,144L7962.29-11046.77z
								"/>
						</g>
						<g id="g388645" transform="translate(431.7998,551.4668)">
							<path id="path388643" class="st28" d="M7812.47-11072.34l235.09-531.03l-78.61-13.23l-235.09,531.03L7812.47-11072.34z"/>
						</g>
						<g id="g388649" transform="translate(592.0996,578.667)">
							<path id="path388647" class="st29" d="M8258.03-10996.74l78.62,13.23l-64.25-582.05l-78.24-13.23"/>
						</g>
						<g id="g388653" transform="translate(518.2002,566.167)">
							<path id="path388651" class="st29" d="M8052.63-11031.48l78.61,13.23l48.76-114.14l63.5-149.29l0.76,4.16l24.95,282.71"/>
						</g>
						<g id="g388657" transform="translate(482.7002,526.8667)">
							<path id="path388655" class="st29" d="M7953.95-11140.72l60.47-144l3.02-7.56l26.46,292.54"/>
						</g>
						<g id="g388661" transform="translate(448.7998,554.3667)">
							<path id="path388659" class="st29" d="M7859.73-11064.28l78.24,13.23l49.89-117.17"/>
						</g>
						<g id="g388665" transform="translate(494,410.9668)">
							<path id="path388663" class="st29" d="M7985.36-11462.87l-235.09,531.03"/>
						</g>
						<g id="g388669" transform="translate(529.7002,450.167)">
							<path id="path388667" class="st29" d="M8084.59-11353.91l-12.85-127.75l-78.61-13.23"/>
						</g>
						<g id="g388673" transform="translate(563.5996,422.667)">
							<path id="path388671" class="st29" d="M8178.82-11430.35l-112.25,263.43l-15.87-159.5"/>
						</g>
						<g id="g388677" transform="translate(482.7002,526.8667)">
							<path id="path388675" class="st29" d="M7953.95-11140.72L7953.95-11140.72l11.34,127.75l78.61,13.23l44.22,7.56"/>
						</g>
						<g id="g388681" transform="translate(448.7998,554.3667)">
							<path id="path388679" class="st29" d="M7859.73-11064.28l-64.25-10.96l-78.61-13.23l235.09-531.03l78.61,13.23l43.46,7.18"/>
						</g>
						<g id="g388685" transform="translate(575.2002,424.667)">
							<path id="path388683" class="st29" d="M8211.06-11424.79l-43.85-7.56l-78.23-13.23l-49.89,117.17"/>
						</g>
						<g id="g388689" transform="translate(551.9004,539.4668)">
							<path id="path388687" class="st29" d="M8146.3-11105.7l10.58,123.97l78.61,13.61l62.74,10.58"/>
						</g>
					</g>
				</g>
				<path id="path388693" sodipodi:nodetypes="ccsscc" class="st30" d="M-275.07,743.65c0.81,1.63,7.43,0.02,8.88-0.66
					c-0.72-1.48-0.61-7.56-2.3-12.22c-1.59-4.4-6.54-3.16-7.25-0.76C-276.62,733.01-275.29,743.81-275.07,743.65L-275.07,743.65z"/>
				<path id="path388695" sodipodi:nodetypes="ccsscc" class="st28" d="M-273.41,728.91l2.01,14.78c-0.88,0.41-3.17,0.13-3.34-0.31
					c-0.78-2.05-1.1-9.88-0.84-12.61c0.19-1.94,1.98-2.24,1.98-2.24L-273.41,728.91z"/>
				
					<g id="g388701" transform="rotate(-21.693265,-677.66413,190.60318)" inkscape:transform-center-x="-3.8133897" inkscape:transform-center-y="-3.8052311">
					
						<linearGradient id="path388697_1_" gradientUnits="userSpaceOnUse" x1="-1405.4438" y1="405.9715" x2="-1403.4385" y2="404.1465" gradientTransform="matrix(3.5118 1.3971 1.3971 -3.5118 3878.592 4224.9404)">
						<stop  offset="0" style="stop-color:#FFD31A"/>
						<stop  offset="1" style="stop-color:#FFE98F"/>
					</linearGradient>
					<path id="path388697" sodipodi:nodetypes="cscsccccscsccc" class="st31" d="M-490.17,833.73c0.19-0.1,0.39-0.19,0.59-0.29
						c4.92-2.31,9.87-2.14,11.05,0.38c1.18,2.52-1.85,6.43-6.77,8.74c-4.92,2.31-9.87,2.14-11.05-0.38
						c-1.02-1.41,0.5-3.59,1.07-4.28c-0.95,0.05-2.98,0.28-5.37,1.55c-0.98,1.84-1.26,3.53-0.57,5.01c1.83,3.9,9.48,4.16,17.09,0.59
						c7.61-3.57,12.3-9.62,10.47-13.52c-1.83-3.9-9.07-3.1-17.09-0.59c-2.74,0.85-11.93,7.25-10.38,8.62c1.22-0.19,3.48-2.12,5.65-2
						L-490.17,833.73z"/>
					
						<linearGradient id="path388699_1_" gradientUnits="userSpaceOnUse" x1="-1405.4429" y1="405.9741" x2="-1403.4375" y2="404.1491" gradientTransform="matrix(3.5118 1.3971 1.3971 -3.5118 3889.6528 4219.4004)">
						<stop  offset="0" style="stop-color:#FFD31A"/>
						<stop  offset="1" style="stop-color:#FFE98F"/>
					</linearGradient>
					<path id="path388699" sodipodi:nodetypes="cscsccccscscc" class="st32" d="M-479.11,828.19c0.19-0.1,0.39-0.19,0.59-0.29
						c4.92-2.31,9.87-2.14,11.05,0.38c1.18,2.52-1.85,6.43-6.77,8.74c-4.92,2.31-9.87,2.14-11.05-0.38
						c-1.02-1.41,0.5-3.59,1.07-4.28c-0.95,0.05-2.98,0.28-5.37,1.55c-0.98,1.84-1.26,3.53-0.57,5.01c1.83,3.9,9.48,4.16,17.09,0.59
						c7.61-3.57,12.3-9.62,10.47-13.52c-1.83-3.9-9.48-4.16-17.09-0.59c-2.15,1.01-4.8,2.59-5.66,3.34
						C-484.14,828.56-481.29,828.07-479.11,828.19L-479.11,828.19z"/>
				</g>
				
					<g id="g388707" transform="rotate(-21.693265,-688.79859,175.69618)" inkscape:transform-center-x="-8.628665" inkscape:transform-center-y="-8.9767184">
					
						<linearGradient id="path388703_1_" gradientUnits="userSpaceOnUse" x1="-1411.7416" y1="409.034" x2="-1409.7362" y2="407.209" gradientTransform="matrix(3.5118 1.3971 1.3971 -3.5118 3913.9451 4235.981)">
						<stop  offset="0" style="stop-color:#FFD31A"/>
						<stop  offset="1" style="stop-color:#FFE98F"/>
					</linearGradient>
					<path id="path388703" sodipodi:nodetypes="cscsccccscscc" class="st33" d="M-472.66,825.22c0.19-0.1,0.39-0.19,0.59-0.29
						c4.92-2.31,9.87-2.14,11.05,0.38c1.18,2.52-1.85,6.43-6.77,8.74c-4.92,2.31-9.87,2.14-11.05-0.38
						c-1.02-1.41,0.5-3.59,1.07-4.28c-0.95,0.05-2.98,0.28-5.37,1.55c-0.98,1.84-1.26,3.53-0.57,5.01c1.83,3.9,9.48,4.16,17.09,0.59
						c7.61-3.57,12.3-9.62,10.47-13.52c-1.83-3.9-9.48-4.16-17.09-0.59c-2.15,1.01-4.8,2.59-5.66,3.34
						C-477.7,825.59-474.84,825.11-472.66,825.22L-472.66,825.22z"/>
					
						<linearGradient id="path388705_1_" gradientUnits="userSpaceOnUse" x1="-1411.7416" y1="409.0341" x2="-1409.7362" y2="407.209" gradientTransform="matrix(3.5118 1.3971 1.3971 -3.5118 3925.0059 4230.4409)">
						<stop  offset="0" style="stop-color:#FFD31A"/>
						<stop  offset="1" style="stop-color:#FFE98F"/>
					</linearGradient>
					<path id="path388705" sodipodi:nodetypes="cscsccccscscc" class="st34" d="M-461.6,819.68c0.19-0.1,0.39-0.19,0.59-0.29
						c4.92-2.31,9.87-2.14,11.05,0.38c1.18,2.52-1.85,6.43-6.77,8.74c-4.92,2.31-9.87,2.14-11.05-0.38
						c-1.02-1.41,0.5-3.59,1.07-4.28c-0.95,0.05-2.98,0.28-5.37,1.55c-0.98,1.84-1.26,3.53-0.57,5.01c1.83,3.9,9.48,4.16,17.09,0.59
						c7.61-3.57,12.3-9.62,10.47-13.52c-1.83-3.9-9.48-4.16-17.09-0.59c-2.15,1.01-4.8,2.59-5.66,3.34
						C-466.63,820.05-463.78,819.57-461.6,819.68L-461.6,819.68z"/>
				</g>
				
					<g id="g388725" transform="rotate(-21.693265,-699.76973,161.03832)" inkscape:transform-center-x="-16.059874" inkscape:transform-center-y="-24.215302">
					
						<linearGradient id="path388709_1_" gradientUnits="userSpaceOnUse" x1="-1414.1459" y1="415.6452" x2="-1412.1405" y2="413.8202" gradientTransform="matrix(3.5813 1.208 1.208 -3.5813 4106.7437 4015.5532)">
						<stop  offset="0" style="stop-color:#FFD31A"/>
						<stop  offset="1" style="stop-color:#FFE98F"/>
					</linearGradient>
					<path id="path388709" sodipodi:nodetypes="cscsccccscscc" class="st35" d="M-455.94,816.71c0.19-0.11,0.38-0.21,0.57-0.32
						c4.79-2.57,9.74-2.66,11.06-0.21c1.31,2.45-1.51,6.52-6.3,9.09c-4.79,2.57-9.74,2.66-11.06,0.21
						c-1.09-1.36,0.31-3.61,0.84-4.33c-0.94,0.1-2.96,0.44-5.28,1.84c-0.88,1.89-1.07,3.6-0.3,5.03c2.03,3.79,9.69,3.65,17.1-0.32
						c7.41-3.97,11.77-10.26,9.74-14.06c-2.03-3.79-9.69-3.65-17.1,0.32c-2.09,1.12-4.66,2.85-5.48,3.64
						C-460.94,817.34-458.12,816.71-455.94,816.71L-455.94,816.71z"/>
					
						<linearGradient id="path388711_1_" gradientUnits="userSpaceOnUse" x1="-1408.8063" y1="420.1118" x2="-1406.8009" y2="418.2867" gradientTransform="matrix(3.658 0.9508 0.9508 -3.658 4308.7612 3688.4614)">
						<stop  offset="0" style="stop-color:#FFD31A"/>
						<stop  offset="1" style="stop-color:#FFE98F"/>
					</linearGradient>
					<path id="path388711" sodipodi:nodetypes="cscsccccscscc" class="st36" d="M-445.64,810.21c0.18-0.12,0.36-0.24,0.55-0.36
						c4.6-2.9,9.53-3.35,11.01-0.99c1.48,2.35-1.04,6.61-5.64,9.51c-4.6,2.9-9.53,3.35-11.01,0.99c-1.18-1.27,0.05-3.62,0.53-4.38
						c-0.93,0.17-2.92,0.65-5.14,2.21c-0.75,1.95-0.81,3.66,0.06,5.04c2.3,3.64,9.92,2.95,17.03-1.53
						c7.11-4.49,11.01-11.07,8.72-14.71c-2.3-3.64-9.92-2.95-17.03,1.53c-2.01,1.27-4.44,3.17-5.21,4.02
						C-450.59,811.2-447.82,810.37-445.64,810.21L-445.64,810.21z"/>
					
						<linearGradient id="path388713_1_" gradientUnits="userSpaceOnUse" x1="-1403.046" y1="424.2664" x2="-1401.0406" y2="422.4414" gradientTransform="matrix(3.7172 0.6835 0.6835 -3.7172 4490.9966 3340.4219)">
						<stop  offset="0" style="stop-color:#FFD31A"/>
						<stop  offset="1" style="stop-color:#FFE98F"/>
					</linearGradient>
					<path id="path388713" sodipodi:nodetypes="cscsccccscscc" class="st37" d="M-435.06,802.43c0.17-0.13,0.34-0.27,0.52-0.4
						c4.38-3.23,9.26-4.03,10.91-1.79c1.65,2.24-0.56,6.67-4.93,9.9c-4.38,3.23-9.26,4.03-10.91,1.79
						c-1.27-1.19-0.21-3.61,0.21-4.41c-0.92,0.24-2.87,0.86-4.96,2.57c-0.6,2-0.54,3.71,0.42,5.02c2.55,3.46,10.11,2.23,16.87-2.76
						c6.77-4.99,10.18-11.84,7.63-15.3c-2.55-3.46-10.11-2.23-16.88,2.76c-1.91,1.41-4.2,3.48-4.9,4.38
						C-439.92,803.78-437.22,802.74-435.06,802.43L-435.06,802.43z"/>
					
						<linearGradient id="path388715_1_" gradientUnits="userSpaceOnUse" x1="-1351.7833" y1="444.4354" x2="-1349.778" y2="442.6103" gradientTransform="matrix(3.2787 0.0823 -1.3393 -3.3431 4599.1475 2391.9207)">
						<stop  offset="0" style="stop-color:#FFD31A"/>
						<stop  offset="1" style="stop-color:#FFE98F"/>
					</linearGradient>
					<path id="path388715" sodipodi:nodetypes="cccccsccccscc" class="st38" d="M-433.46,797.12c0.7-0.53,1.82-1.03,3.36-1.6
						l0.14-2.41 M-427.01,789.79c1.67-1.08,3.8-1.1,5.31-0.03c2.43,1.73,2.93,5.91,1.11,9.33c-1.82,3.43-4.69,4.93-7.13,3.2
						c-1.6-0.86-1.66-1.61-1.73-2.36c-0.61,0.33-2.49,0.09-3.28,1.87c0.53,1.83,1.2,2.74,2.63,3.75c3.77,2.67,9.1,0.54,11.92-4.75
						c2.82-5.3,2.05-11.76-1.72-14.43c-1.31-0.93-3.06-1.24-4.58-1.07"/>
				</g>
				<g id="g388731" transform="matrix(-0.9921069,0.12539494,0.12539494,0.9921069,-1380.753,84.433272)">
					
						<linearGradient id="path388727_1_" gradientUnits="userSpaceOnUse" x1="-133.1479" y1="584.0396" x2="-131.1426" y2="582.2145" gradientTransform="matrix(-3.7497 -0.4739 0.4739 -3.7497 -1758.8824 2889.5876)">
						<stop  offset="0" style="stop-color:#FFD31A"/>
						<stop  offset="1" style="stop-color:#FFE98F"/>
					</linearGradient>
					<path id="path388727" sodipodi:nodetypes="cscsccccscscc" class="st39" d="M-983.06,760.71c0.19-0.1,0.39-0.19,0.59-0.29
						c4.92-2.31,9.87-2.14,11.05,0.38c1.18,2.52-1.85,6.43-6.77,8.74c-4.92,2.31-9.87,2.14-11.05-0.38
						c-1.02-1.41,0.5-3.59,1.07-4.28c-0.95,0.05-2.98,0.28-5.37,1.55c-0.98,1.84-1.26,3.53-0.57,5.01c1.83,3.9,9.48,4.16,17.09,0.59
						c7.61-3.57,12.3-9.62,10.47-13.52c-1.83-3.9-9.48-4.16-17.09-0.59c-2.15,1.01-4.8,2.59-5.66,3.34
						C-988.09,761.08-985.24,760.6-983.06,760.71L-983.06,760.71z"/>
					
						<linearGradient id="path388729_1_" gradientUnits="userSpaceOnUse" x1="-133.1479" y1="584.0396" x2="-131.1426" y2="582.2145" gradientTransform="matrix(-3.7497 -0.4739 0.4739 -3.7497 -1747.8217 2884.0476)">
						<stop  offset="0" style="stop-color:#FFD31A"/>
						<stop  offset="1" style="stop-color:#FFE98F"/>
					</linearGradient>
					<path id="path388729" sodipodi:nodetypes="cscsccccscscc" class="st40" d="M-972,755.17c0.19-0.1,0.39-0.19,0.59-0.29
						c4.92-2.31,9.87-2.14,11.05,0.38c1.18,2.52-1.85,6.43-6.77,8.74c-4.92,2.31-9.87,2.14-11.05-0.38
						c-1.02-1.41,0.5-3.59,1.07-4.28c-0.95,0.05-2.98,0.28-5.37,1.55c-0.98,1.84-1.26,3.53-0.57,5.01c1.83,3.9,9.48,4.16,17.09,0.59
						c7.61-3.57,12.3-9.62,10.47-13.52c-1.83-3.9-9.48-4.16-17.09-0.59c-2.15,1.01-4.8,2.59-5.66,3.34
						C-977.03,755.54-974.18,755.06-972,755.17L-972,755.17z"/>
				</g>
				<g id="g388737" transform="matrix(-0.9921069,0.12539494,0.12539494,0.9921069,-1387.3857,82.187307)">
					
						<linearGradient id="path388733_1_" gradientUnits="userSpaceOnUse" x1="-139.4467" y1="587.0995" x2="-137.4413" y2="585.2745" gradientTransform="matrix(-3.7497 -0.4739 0.4739 -3.7497 -1766.4435 2889.5713)">
						<stop  offset="0" style="stop-color:#FFD31A"/>
						<stop  offset="1" style="stop-color:#FFE98F"/>
					</linearGradient>
					<path id="path388733" sodipodi:nodetypes="cscsccccscscc" class="st41" d="M-965.55,752.21c0.19-0.1,0.39-0.19,0.59-0.29
						c4.92-2.31,9.87-2.14,11.05,0.38c1.18,2.52-1.85,6.43-6.77,8.74s-9.87,2.14-11.05-0.38c-1.02-1.41,0.5-3.59,1.07-4.28
						c-0.95,0.05-2.98,0.28-5.37,1.55c-0.98,1.84-1.26,3.53-0.57,5.01c1.83,3.9,9.48,4.16,17.09,0.59
						c7.61-3.57,12.3-9.62,10.47-13.52c-1.83-3.9-9.48-4.16-17.09-0.59c-2.15,1.01-4.8,2.59-5.66,3.34
						C-970.58,752.57-967.73,752.09-965.55,752.21L-965.55,752.21z"/>
					
						<linearGradient id="path388735_1_" gradientUnits="userSpaceOnUse" x1="-139.4467" y1="587.0995" x2="-137.4413" y2="585.2745" gradientTransform="matrix(-3.7497 -0.4739 0.4739 -3.7497 -1755.3826 2884.031)">
						<stop  offset="0" style="stop-color:#FFD31A"/>
						<stop  offset="1" style="stop-color:#FFE98F"/>
					</linearGradient>
					<path id="path388735" sodipodi:nodetypes="cscsccccscscc" class="st42" d="M-954.49,746.67c0.19-0.1,0.39-0.19,0.59-0.29
						c4.92-2.31,9.87-2.14,11.05,0.38c1.18,2.52-1.85,6.43-6.77,8.74s-9.87,2.14-11.05-0.38c-1.02-1.41,0.5-3.59,1.07-4.28
						c-0.95,0.05-2.98,0.28-5.37,1.55c-0.98,1.84-1.26,3.53-0.57,5.01c1.83,3.9,9.48,4.16,17.09,0.59
						c7.61-3.57,12.3-9.62,10.47-13.52c-1.83-3.9-9.48-4.16-17.09-0.59c-2.15,1.01-4.8,2.59-5.66,3.34
						C-959.52,747.03-956.67,746.55-954.49,746.67L-954.49,746.67z"/>
				</g>
				<g id="g388755" transform="matrix(-0.9921069,0.12539494,0.12539494,0.9921069,-1393.9104,79.970751)">
					
						<linearGradient id="path388739_1_" gradientUnits="userSpaceOnUse" x1="-150.066" y1="587.3394" x2="-148.0606" y2="585.5143" gradientTransform="matrix(-3.7696 -0.2735 0.2735 -3.7696 -1674.8286 2918.6831)">
						<stop  offset="0" style="stop-color:#FFD31A"/>
						<stop  offset="1" style="stop-color:#FFE98F"/>
					</linearGradient>
					<path id="path388739" sodipodi:nodetypes="cscsccccscscc" class="st43" d="M-948.82,743.69c0.19-0.11,0.38-0.21,0.57-0.32
						c4.79-2.57,9.74-2.66,11.06-0.21c1.31,2.45-1.51,6.52-6.3,9.09c-4.79,2.57-9.74,2.66-11.06,0.21
						c-1.09-1.36,0.31-3.61,0.84-4.33c-0.94,0.1-2.96,0.44-5.28,1.84c-0.88,1.89-1.07,3.6-0.3,5.03c2.03,3.79,9.69,3.65,17.1-0.32
						c7.41-3.97,11.77-10.26,9.74-14.06c-2.03-3.79-9.69-3.65-17.1,0.32c-2.09,1.12-4.66,2.85-5.48,3.64
						C-953.83,744.33-951.01,743.69-948.82,743.69L-948.82,743.69z"/>
					
						<linearGradient id="path388741_1_" gradientUnits="userSpaceOnUse" x1="-155.7206" y1="583.279" x2="-153.7153" y2="581.454" gradientTransform="matrix(-3.7795 -5.330482e-03 5.330482e-03 -3.7795 -1529.7063 2942.8481)">
						<stop  offset="0" style="stop-color:#FFD31A"/>
						<stop  offset="1" style="stop-color:#FFE98F"/>
					</linearGradient>
					<path id="path388741" sodipodi:nodetypes="cscsccccscscc" class="st44" d="M-938.53,737.2c0.18-0.12,0.36-0.24,0.55-0.36
						c4.6-2.9,9.53-3.35,11.01-0.99c1.48,2.35-1.04,6.61-5.64,9.51c-4.6,2.9-9.53,3.35-11.01,0.99c-1.18-1.27,0.05-3.62,0.53-4.38
						c-0.93,0.17-2.92,0.65-5.14,2.21c-0.75,1.95-0.81,3.66,0.06,5.04c2.3,3.64,9.92,2.95,17.03-1.53
						c7.11-4.49,11.01-11.07,8.72-14.71c-2.3-3.64-9.92-2.95-17.03,1.53c-2.01,1.27-4.44,3.17-5.21,4.02
						C-943.48,738.19-940.71,737.35-938.53,737.2L-938.53,737.2z"/>
					
						<linearGradient id="path388743_1_" gradientUnits="userSpaceOnUse" x1="-161.1778" y1="578.7336" x2="-159.1724" y2="576.9086" gradientTransform="matrix(-3.77 0.2683 -0.2683 -3.77 -1379.6796 2956.407)">
						<stop  offset="0" style="stop-color:#FFD31A"/>
						<stop  offset="1" style="stop-color:#FFE98F"/>
					</linearGradient>
					<path id="path388743" sodipodi:nodetypes="cscsccccscscc" class="st45" d="M-927.95,729.42c0.17-0.13,0.34-0.27,0.52-0.4
						c4.38-3.23,9.26-4.03,10.91-1.79c1.65,2.24-0.56,6.67-4.93,9.9s-9.26,4.03-10.91,1.79c-1.27-1.19-0.21-3.61,0.21-4.41
						c-0.92,0.24-2.87,0.86-4.96,2.57c-0.6,2-0.54,3.71,0.42,5.02c2.55,3.46,10.11,2.23,16.87-2.76c6.77-4.99,10.18-11.84,7.63-15.3
						c-2.55-3.46-10.11-2.23-16.88,2.76c-1.91,1.41-4.2,3.48-4.9,4.38C-932.81,730.76-930.11,729.73-927.95,729.42L-927.95,729.42z"
						/>
					
						<linearGradient id="path388745_1_" gradientUnits="userSpaceOnUse" x1="-161.1778" y1="578.7336" x2="-159.1724" y2="576.9086" gradientTransform="matrix(-3.77 0.2683 -0.2683 -3.77 -1368.4799 2948.2612)">
						<stop  offset="0" style="stop-color:#FFD31A"/>
						<stop  offset="1" style="stop-color:#FFE98F"/>
					</linearGradient>
					<path id="path388745" sodipodi:nodetypes="cscsccccscscc" class="st46" d="M-916.75,721.27c0.17-0.13,0.34-0.27,0.52-0.4
						c4.38-3.23,9.26-4.03,10.91-1.79c1.65,2.24-0.56,6.67-4.93,9.9c-4.38,3.23-9.26,4.03-10.91,1.79
						c-1.27-1.19-0.21-3.61,0.21-4.41c-0.92,0.24-2.87,0.86-4.96,2.57c-0.6,2-0.54,3.71,0.42,5.02c2.55,3.46,10.11,2.23,16.87-2.76
						c6.77-4.99,10.18-11.84,7.63-15.3c-2.55-3.46-10.11-2.23-16.88,2.76c-1.91,1.41-4.2,3.48-4.9,4.38
						C-921.61,722.61-918.91,721.58-916.75,721.27L-916.75,721.27z"/>
					
						<linearGradient id="path388747_1_" gradientUnits="userSpaceOnUse" x1="-170.7707" y1="568.8349" x2="-168.7654" y2="567.0099" gradientTransform="matrix(-3.6951 0.7944 -0.7944 -3.6951 -1086.3193 2952.4875)">
						<stop  offset="0" style="stop-color:#FFD31A"/>
						<stop  offset="1" style="stop-color:#FFE98F"/>
					</linearGradient>
					<path id="path388747" sodipodi:nodetypes="cscsccccscscc" class="st47" d="M-908.1,713.11c0.15-0.16,0.3-0.31,0.46-0.46
						c3.88-3.81,8.61-5.29,10.56-3.3c1.95,1.99,0.38,6.68-3.5,10.49c-3.88,3.81-8.61,5.29-10.55,3.3c-1.43-1-0.71-3.55-0.41-4.39
						c-0.88,0.36-2.72,1.25-4.55,3.24c-0.32,2.07-0.02,3.75,1.12,4.92c3.01,3.07,10.32,0.79,16.32-5.1c6-5.89,8.42-13.15,5.41-16.22
						c-3.01-3.07-10.32-0.79-16.32,5.1c-1.69,1.66-3.67,4.04-4.24,5.03C-912.72,715.12-910.19,713.72-908.1,713.11L-908.1,713.11z"
						/>
					
						<linearGradient id="path388749_1_" gradientUnits="userSpaceOnUse" x1="-175.9131" y1="562.1589" x2="-173.9077" y2="560.3339" gradientTransform="matrix(-3.6132 1.1088 -1.1088 -3.6132 -911.7968 2931.6924)">
						<stop  offset="0" style="stop-color:#FFD31A"/>
						<stop  offset="1" style="stop-color:#FFE98F"/>
					</linearGradient>
					<path id="path388749" sodipodi:nodetypes="cscsccccscscc" class="st48" d="M-900.57,703.7c0.13-0.17,0.27-0.34,0.42-0.5
						c3.54-4.13,8.12-6.01,10.23-4.2c2.11,1.81,0.95,6.63-2.58,10.75c-3.54,4.13-8.12,6.01-10.23,4.2
						c-1.51-0.87-1.01-3.48-0.79-4.34c-0.84,0.44-2.6,1.48-4.26,3.62c-0.14,2.08,0.3,3.74,1.54,4.8c3.27,2.8,10.35-0.1,15.82-6.48
						c5.47-6.38,7.26-13.83,3.99-16.63c-3.27-2.8-10.35,0.1-15.82,6.49c-1.54,1.8-3.31,4.34-3.79,5.37
						C-905,706.1-902.6,704.49-900.57,703.7L-900.57,703.7z"/>
					
						<linearGradient id="path388751_1_" gradientUnits="userSpaceOnUse" x1="-183.8894" y1="548.6465" x2="-181.884" y2="546.8214" gradientTransform="matrix(-3.39 1.6711 -1.6711 -3.39 -599.3794 2862.2502)">
						<stop  offset="0" style="stop-color:#FFD31A"/>
						<stop  offset="1" style="stop-color:#FFE98F"/>
					</linearGradient>
					<path id="path388751" sodipodi:nodetypes="cscsccccscscc" class="st49" d="M-894.13,693.48c0.11-0.19,0.22-0.37,0.33-0.56
						c2.83-4.64,7.06-7.22,9.43-5.77c2.37,1.45,2,6.39-0.83,11.03c-2.83,4.64-7.06,7.22-9.43,5.77c-1.63-0.62-1.56-3.27-1.47-4.16
						c-0.76,0.57-2.33,1.87-3.62,4.25c0.19,2.08,0.9,3.64,2.29,4.49c3.67,2.24,10.2-1.75,14.58-8.93
						c4.38-7.17,4.96-14.81,1.29-17.05c-3.67-2.24-10.2,1.75-14.59,8.93c-1.24,2.02-2.58,4.81-2.88,5.91
						C-898.13,696.56-896.02,694.59-894.13,693.48L-894.13,693.48z"/>
					
						<linearGradient id="path388753_1_" gradientUnits="userSpaceOnUse" x1="-188.9111" y1="535.9644" x2="-186.9057" y2="534.1393" gradientTransform="matrix(-3.1266 2.1235 -2.1235 -3.1266 -339.7456 2760.3384)">
						<stop  offset="0" style="stop-color:#FFD31A"/>
						<stop  offset="1" style="stop-color:#FFE98F"/>
					</linearGradient>
					<path id="path388753" sodipodi:nodetypes="cscsccccscsccc" class="st50" d="M-888.73,681.68c0.08-0.2,0.19-0.39,0.25-0.6
						c1.47-4.88,3.12-7.71,8.54-7.02c2.55,1.11,2.86,6.05,0.7,11.04c-2.17,4.99-5.99,8.13-8.54,7.02c-1.7-0.39-1.99-3.02-2.03-3.92
						c-0.68,0.67-2.05,2.18-3,4.71c0.48,2.03,1.39,3.48,2.89,4.13c3.95,1.71,9.86-3.15,13.21-10.86c3.35-7.71,0.72-14.87-3.23-16.58
						c-7.41,0.77-8.05,2.9-11.06,10.37c-0.89,2.2-1.89,5.12-2.04,6.25C-892.26,685.28-890.44,683.03-888.73,681.68L-888.73,681.68z"
						/>
					
						<linearGradient id="path390094_1_" gradientUnits="userSpaceOnUse" x1="-223.1594" y1="518.6516" x2="-221.154" y2="516.8266" gradientTransform="matrix(-2.1852 2.0045 -3.9726 -2.8929 681.9198 2617.5876)">
						<stop  offset="0" style="stop-color:#FFD31A"/>
						<stop  offset="1" style="stop-color:#FFE98F"/>
					</linearGradient>
					<path id="path390094" sodipodi:nodetypes="ccccccsccscc" class="st51" d="M-890.85,677.62l-0.05,1.09
						c0.32-0.89,0.08-2.14,1.17-3.42l-3.01-3.21 M-892.73,662.74c0.93-1.67,2.83-1.89,4.78-1.3c3.33,1.01,6.36,5.61,6.76,10.27
						c0.4,4.66-1.98,7.62-5.31,6.61c-0.29,0.51-2.73,3.31,0.4,4.61c5.15,1.56,8.83-3.02,8.21-10.22
						c-0.62-7.21-5.3-14.32-10.45-15.88c-0.87-0.26-1.7-0.35-2.47-0.28"/>
				</g>
				<g id="g388761" transform="matrix(-0.9921069,0.12539494,0.12539494,0.9921069,-1373.9534,86.682875)">
					
						<linearGradient id="path388757_1_" gradientUnits="userSpaceOnUse" x1="-126.6835" y1="580.9544" x2="-124.6782" y2="579.1294" gradientTransform="matrix(-3.7497 -0.4739 0.4739 -3.7497 -1751.1495 2889.6587)">
						<stop  offset="0" style="stop-color:#FFD31A"/>
						<stop  offset="1" style="stop-color:#FFE98F"/>
					</linearGradient>
					<path id="path388757" sodipodi:nodetypes="cscsccccscsccc" class="st52" d="M-1001.03,769.28c0.19-0.1,0.39-0.19,0.59-0.29
						c4.92-2.31,9.87-2.14,11.05,0.38c1.18,2.52-1.85,6.43-6.77,8.74c-4.92,2.31-9.87,2.14-11.05-0.38
						c-1.02-1.41,0.5-3.59,1.07-4.28c-0.95,0.05-2.98,0.28-5.37,1.55c-0.98,1.84-1.26,3.53-0.57,5.01c1.83,3.9,9.48,4.16,17.09,0.59
						c7.61-3.57,12.3-9.62,10.47-13.52c-1.83-3.9-9.33-3.83-17.09-0.59c-3.01,1.26-11.57,8.44-10,8.48
						c1.22-0.19,3.13-1.62,5.31-1.51L-1001.03,769.28z"/>
					
						<linearGradient id="path388759_1_" gradientUnits="userSpaceOnUse" x1="-126.684" y1="580.9551" x2="-124.6787" y2="579.1301" gradientTransform="matrix(-3.7497 -0.4739 0.4739 -3.7497 -1740.0886 2884.1187)">
						<stop  offset="0" style="stop-color:#FFD31A"/>
						<stop  offset="1" style="stop-color:#FFE98F"/>
					</linearGradient>
					<path id="path388759" sodipodi:nodetypes="cscsccccscscc" class="st53" d="M-989.96,763.74c0.19-0.1,0.39-0.19,0.59-0.29
						c4.92-2.31,9.87-2.14,11.05,0.38c1.18,2.52-1.85,6.43-6.77,8.74c-4.92,2.31-9.87,2.14-11.05-0.38
						c-1.02-1.41,0.5-3.59,1.07-4.28c-0.95,0.05-2.98,0.28-5.37,1.55c-0.98,1.84-1.26,3.53-0.57,5.01c1.83,3.9,9.48,4.16,17.09,0.59
						c7.61-3.57,12.3-9.62,10.47-13.52c-1.83-3.9-9.48-4.16-17.09-0.59c-2.15,1.01-4.8,2.59-5.66,3.34
						C-994.99,764.11-992.14,763.63-989.96,763.74L-989.96,763.74z"/>
				</g>
			</g>
			<path id="path417669" sodipodi:nodetypes="cc" class="st6" d="M28.16,497.43c-1.08,11.25,4.45,16.36-8.51,23.34"/>
		</g>
	</g>
</g>
</svg>
