<?xml version="1.0" encoding="utf-8"?>
<!-- Generator: Adobe Illustrator 25.3.1, SVG Export Plug-In . SVG Version: 6.00 Build 0)  -->
<svg version="1.1"
	 id="svg8" inkscape:version="1.1.1 (3bf5ae0, 2021-09-20)" sodipodi:docname="5.svg" xmlns:cc="http://creativecommons.org/ns#" xmlns:dc="http://purl.org/dc/elements/1.1/" xmlns:inkscape="http://www.inkscape.org/namespaces/inkscape" xmlns:rdf="http://www.w3.org/1999/02/22-rdf-syntax-ns#" xmlns:sodipodi="http://sodipodi.sourceforge.net/DTD/sodipodi-0.dtd" xmlns:svg="http://www.w3.org/2000/svg"
	 xmlns="http://www.w3.org/2000/svg" xmlns:xlink="http://www.w3.org/1999/xlink" x="0px" y="0px" viewBox="0 0 1024 1024"
	 style="enable-background:new 0 0 1024 1024;" xml:space="preserve">
<style type="text/css">
	.st0{fill:#424991;}
	.st1{fill:#071051;}
	.st2{fill:#F3E8CC;}
	.st3{fill:#FFF0BE;}
	.st4{fill:#FFE99F;}
	.st5{fill:#F9CF6E;}
	.st6{fill:#A37070;}
	.st7{fill:none;stroke:#4B4633;stroke-width:3.9792;stroke-linecap:round;stroke-linejoin:round;stroke-miterlimit:15.1181;}
	.st8{fill:none;stroke:#4B4633;stroke-width:3.7996;stroke-linecap:round;stroke-linejoin:round;stroke-miterlimit:15.1181;}
	.st9{fill:none;stroke:#F9CF6E;stroke-width:3.9792;stroke-linecap:round;stroke-linejoin:round;stroke-miterlimit:15.1181;}
	.st10{fill:#FFFFFF;}
	.st11{fill:#4B4633;}
	.st12{fill:none;stroke:#4B4633;stroke-width:0.8703;}
	.st13{fill:none;stroke:#F9CF6E;stroke-width:5.9688;stroke-linecap:round;stroke-linejoin:round;stroke-miterlimit:15.1181;}
	.st14{fill:none;stroke:#F9CF6E;stroke-width:5.4435;stroke-linecap:round;stroke-linejoin:round;stroke-miterlimit:15.1181;}
	.st15{fill:none;stroke:#4B4633;stroke-width:5.5286;stroke-miterlimit:25.4092;}
	.st16{fill:none;stroke:#F9CF6E;stroke-width:5.9502;stroke-linecap:round;stroke-linejoin:round;stroke-miterlimit:15.1181;}
	.st17{fill:#1A1A1A;stroke:#000000;stroke-width:0.5292;stroke-linejoin:round;}
	.st18{fill:#1A1A1A;stroke:#000000;stroke-width:2;}
	.st19{fill:url(#path564164_1_);}
	.st20{fill:url(#path564166_1_);}
	.st21{fill:url(#path564168_1_);}
	.st22{fill:url(#path564170_1_);}
	.st23{fill:none;stroke:#4B4633;stroke-width:1.9896;stroke-linecap:round;stroke-linejoin:round;stroke-miterlimit:15.1181;}
	.st24{fill:none;stroke:#4B4633;stroke-width:3.709;stroke-linecap:round;stroke-linejoin:round;stroke-miterlimit:15.1181;}
	.st25{fill:none;stroke:#4B4633;stroke-width:3.629;stroke-linecap:round;stroke-linejoin:round;stroke-miterlimit:15.1181;}
	.st26{fill:#FFFFFF;stroke:#4B4633;stroke-width:3.629;stroke-linecap:round;stroke-linejoin:round;stroke-miterlimit:15.1181;}
	.st27{clip-path:url(#SVGID_2_);}
	.st28{fill:#FFD31A;}
	.st29{fill:#FFE98F;}
	.st30{fill:#EA9C00;}
	.st31{fill:#FFB41D;}
	.st32{fill:none;stroke:#EA9C00;stroke-width:0.8025;stroke-linecap:round;stroke-linejoin:round;stroke-miterlimit:1.9324;}
	.st33{fill:#FFD31A;stroke:#EA9C00;stroke-width:1;stroke-miterlimit:15.1181;}
	.st34{fill:url(#path564362_1_);stroke:#FFB41D;stroke-width:1.0893;stroke-miterlimit:15.1181;}
	.st35{fill:url(#path564364_1_);stroke:#FFB41D;stroke-width:1.0893;stroke-miterlimit:15.1181;}
	.st36{fill:url(#path564368_1_);stroke:#FFB41D;stroke-width:1.0893;stroke-miterlimit:15.1181;}
	.st37{fill:url(#path564370_1_);stroke:#FFB41D;stroke-width:1.0893;stroke-miterlimit:15.1181;}
	.st38{fill:url(#path564374_1_);stroke:#FFB41D;stroke-width:1.0893;stroke-miterlimit:15.1181;}
	.st39{fill:url(#path564376_1_);stroke:#FFB41D;stroke-width:1.0893;stroke-miterlimit:15.1181;}
	.st40{fill:url(#path564378_1_);stroke:#FFB41D;stroke-width:1.0893;stroke-miterlimit:15.1181;}
	.st41{fill:url(#path564380_1_);stroke:#FFB41D;stroke-width:0.9494;stroke-miterlimit:15.1181;}
	.st42{fill:url(#path564384_1_);stroke:#FFB41D;stroke-width:1.0893;stroke-miterlimit:15.1181;}
	.st43{fill:url(#path564386_1_);stroke:#FFB41D;stroke-width:1.0893;stroke-miterlimit:15.1181;}
	.st44{fill:url(#path564390_1_);stroke:#FFB41D;stroke-width:1.0893;stroke-miterlimit:15.1181;}
	.st45{fill:url(#path564392_1_);stroke:#FFB41D;stroke-width:1.0893;stroke-miterlimit:15.1181;}
	.st46{fill:url(#path564396_1_);stroke:#FFB41D;stroke-width:1.0893;stroke-miterlimit:15.1181;}
	.st47{fill:url(#path564398_1_);stroke:#FFB41D;stroke-width:1.0893;stroke-miterlimit:15.1181;}
	.st48{fill:url(#path564400_1_);stroke:#FFB41D;stroke-width:1.0893;stroke-miterlimit:15.1181;}
	.st49{fill:url(#path564402_1_);stroke:#FFB41D;stroke-width:1.0893;stroke-miterlimit:15.1181;}
	.st50{fill:url(#path564404_1_);stroke:#FFB41D;stroke-width:1.0893;stroke-miterlimit:15.1181;}
	.st51{fill:url(#path564406_1_);stroke:#FFB41D;stroke-width:1.0893;stroke-miterlimit:15.1181;}
	.st52{fill:url(#path564408_1_);stroke:#FFB41D;stroke-width:1.0893;stroke-miterlimit:15.1181;}
	.st53{fill:url(#path564410_1_);stroke:#FFB41D;stroke-width:1.0893;stroke-miterlimit:15.1181;}
	.st54{fill:url(#path564412_1_);stroke:#FFB41D;stroke-width:1.0893;stroke-miterlimit:15.1181;}
	.st55{fill:url(#path564416_1_);stroke:#FFB41D;stroke-width:1.0893;stroke-miterlimit:15.1181;}
	.st56{fill:url(#path564418_1_);stroke:#FFB41D;stroke-width:1.0893;stroke-miterlimit:15.1181;}
	.st57{fill:none;stroke:#F9CF6E;stroke-width:5.5775;stroke-linecap:round;stroke-linejoin:round;stroke-miterlimit:15.1181;}
	.st58{fill:#2C2A1E;stroke:#4B4633;stroke-width:3.9792;stroke-linecap:round;stroke-linejoin:round;stroke-miterlimit:15.1181;}
	.st59{fill:#FFD31A;stroke:#EA9C00;stroke-width:2;stroke-linecap:round;stroke-linejoin:round;stroke-miterlimit:15.1181;}
	.st60{fill:#FFD31A;stroke:#EA9C00;stroke-width:1.8465;stroke-linecap:round;stroke-linejoin:round;stroke-miterlimit:15.1181;}
	.st61{fill:#EA9C00;stroke:#EA9C00;stroke-width:1.8465;stroke-linecap:round;stroke-linejoin:round;stroke-miterlimit:15.1181;}
	.st62{fill:#CCCCCC;stroke:#B3B3B3;stroke-width:1.8465;stroke-linecap:round;stroke-linejoin:round;stroke-miterlimit:15.1181;}
	.st63{fill:#B3B3B3;stroke:#B3B3B3;stroke-width:1.8465;stroke-linecap:round;stroke-linejoin:round;stroke-miterlimit:15.1181;}
	.st64{fill:#E6E6E6;}
	.st65{fill:#FFD31A;stroke:#EA9C00;stroke-width:3;stroke-linecap:round;stroke-linejoin:round;stroke-miterlimit:15.1181;}
	.st66{fill:#FFE98F;stroke:#EA9C00;stroke-width:2.9251;stroke-linecap:round;stroke-linejoin:round;stroke-miterlimit:15.1181;}
	
		.st67{fill:none;stroke:#EA9C00;stroke-width:1;stroke-linecap:round;stroke-linejoin:round;stroke-miterlimit:15.1181;stroke-dasharray:1,6;}
	.st68{fill:#FFFFFF;fill-opacity:0.3936;}
</style>
<sodipodi:namedview  bordercolor="#666666" borderlayer="true" borderopacity="1.0" id="base" inkscape:current-layer="g1255098" inkscape:cx="532.85714" inkscape:cy="742.14286" inkscape:document-rotation="0" inkscape:document-units="px" inkscape:guide-bbox="true" inkscape:pagecheckerboard="1" inkscape:pageopacity="0" inkscape:pageshadow="2" inkscape:snap-global="false" inkscape:window-height="967" inkscape:window-maximized="1" inkscape:window-width="1280" inkscape:window-x="0" inkscape:window-y="1" inkscape:zoom="0.7" pagecolor="#585858" showgrid="false" showguides="true" units="px">
	<sodipodi:guide  id="guide1250844" orientation="0,-1" position="178.06115,60.704554"></sodipodi:guide>
	<sodipodi:guide  id="guide1250846" orientation="1,0" position="60.826371,51.358056"></sodipodi:guide>
</sodipodi:namedview>
<g id="layer1" inkscape:groupmode="layer" inkscape:label="Layer 1">
	<circle id="circle1248940" class="st0" cx="512" cy="512" r="315.16"/>
	<g id="g1255098" transform="translate(283.73558,4.8303844)">
		<g id="g1263693" transform="translate(-264.71693,0.02418814)">
			<circle id="circle564088" class="st1" cx="492.98" cy="507.38" r="282.2"/>
			<g id="g564424" transform="translate(532.3419,-3.1696276)">
				<path id="path564090" sodipodi:nodetypes="cscscscccscsssscc" class="st2" d="M0.5,399.26c0,0-0.02,9.76,12.43,16.34
					c12.45,6.58,33.59,14.91,33.59,14.91s5.78,6.45,3.65,13.29c-2.12,6.85-1.05,9.42-1.05,9.42s5.22,18.97,0.91,24.28
					c-4.31,5.31-13.02,8.11-13.02,8.11l-12.53-5.1l-0.22,7.83l1.7,7.57c-0.62-2.75,10.68,6.84,10.6,7.89c0,0,8.84,19.48,7.96,21.57
					s-60.81,20.07-88.29,0.28c-27.48-19.79-28-59.4-25.31-70.08c2.69-10.68,17.8-42.99,22.58-48.65
					C-41.73,401.26,0.5,399.26,0.5,399.26L0.5,399.26z"/>
				<path id="path564092" class="st3" d="M-177.22,757.77c1.11,0.63,2.22,1.26,3.35,1.87c2,1.09,4.01,2.15,6.04,3.19
					c2.03,1.04,4.07,2.05,6.13,3.04c2.06,0.99,4.13,1.96,6.21,2.9c2.08,0.94,4.18,1.86,6.29,2.75c2.11,0.89,4.23,1.76,6.37,2.6
					c2.14,0.84,4.29,1.66,6.45,2.45c2.16,0.79,4.33,1.56,6.52,2.29c2.19,0.74,4.38,1.45,6.59,2.14c2.21,0.69,4.43,1.35,6.66,1.98
					c2.23,0.63,4.48,1.24,6.73,1.82c2.25,0.58,4.52,1.13,6.79,1.66s4.56,1.02,6.86,1.49c2.3,0.47,4.6,0.91,6.92,1.32
					c2.32,0.41,4.64,0.8,6.98,1.16s4.68,0.69,7.03,0.98c2.35,0.3,4.72,0.57,7.09,0.81c2.37,0.24,4.75,0.45,7.14,0.63
					c2.39,0.18,4.78,0.33,7.19,0.46c2.4,0.12,4.82,0.21,7.24,0.28c2.42,0.06,4.85,0.09,7.29,0.09c2.44,0,4.86-0.03,7.28-0.09
					c2.42-0.06,4.83-0.15,7.24-0.28s4.8-0.27,7.19-0.46c2.39-0.18,4.77-0.39,7.14-0.63c2.37-0.24,4.73-0.51,7.09-0.81
					c2.35-0.3,4.7-0.63,7.04-0.98c2.34-0.36,4.66-0.74,6.98-1.16c2.32-0.41,4.62-0.85,6.92-1.32c2.3-0.47,4.58-0.97,6.86-1.49
					c2.28-0.53,4.54-1.08,6.79-1.66c2.25-0.58,4.5-1.19,6.73-1.82c2.23-0.63,4.45-1.3,6.66-1.98c2.21-0.69,4.41-1.4,6.59-2.14
					s4.36-1.5,6.52-2.29c2.16-0.79,4.31-1.61,6.45-2.45c1.76-0.69,3.5-1.41,5.24-2.14l-1.33-17.22l-6.01-18.48l1.68-21.33
					l-6.43-8.64l-4.44-9l3.64-17.38l-4.08-16.96c0,0,11.2-17.68,1.32-36.09c0.13-17.42,3.74-18.1-1.28-23.34
					c-2.78-5.02,3.21-22.26,3.21-22.26l-0.29-22.32c0,0,1.64-9,2.49-11.94c0.85-2.94-1.49-12.12-1.49-12.12l1.82-12.21l0.7-41.73
					c0.1-0.21,0.28-0.58,0.28-0.58s-0.14-1.17-0.22-2.86l0.04-2.22l-0.1,0.09c-0.02-2.73,0.19-6.01,1.14-8.28
					c1.9-4.57-1.12-15.28-1.12-15.28s0.51-4.54,1.88-6.55c1.37-2.01-2.19-16.88-1.16-24.67c1.02-7.78-4.54-33.95-3.25-37.92
					c1.29-3.97-3.85-24.53-3.85-24.53l6.66-14.49c0.36-1.98,9.8-1.77,7.76-5.77c-3.71-7.29,2.85-8.55,0.8-16.23
					c-0.26-6.48-3.21-13.14-8.77-16.71c-0.49-6.37,4.46-12.98-0.27-19.47c-2.58-9.86-16.66-9.3-15.33-20.74
					c-0.55-9.68-8.62-14.05-18.22-14.8c-6.67-3.95-10.07-9.41-19.42-9.38c-1.73-0.21-15.92-2.11-17.64-1.83l0,0
					c-12.33-11.64-17.92-8.35-42.04-5.5c-7.98,0.65-12.01-2.24-17.54-1.5c-3.43,0.09-10.15,1.84-13.38,3.94l-24.9,10.83
					l-20.31-26.15c-5.14-2.38-11.13-9.84-12.09,12.45c-4.92,8.77-3.79,30.98-2.79,38.8l-7.36,11.11l-2.03,11.71l-6.69,6.87
					l-1.56,10.18l-4.65,6.59l-2.12,12.52l4.25,11.15l-0.65,16.56l6.42,6.87l-2.95,32.48l3.87,10.16c0,0-1.58,8.65-1.04,13.13
					c0.54,4.48-1.88,27.85-1.88,27.85l-0.86,19.64c0,0,1.42,13.22,1.49,16.35c0.08,3.13,2.29,33.93,2.29,33.93l3.16,11.7
					l-2.53,19.84l3.09,13.05l-2.05,17.76l5.01,13.65l-2.67,19.08l2.73,15.27l2.39,9.64l-1.23,16.5l4.87,11.29
					c0,0-6.92,15.37-5.87,18.47c1.05,3.1,2.33,23.32,2.33,23.32c-9.44,9.32-6.82,5.94-5.5,13.23l3.85,8.92l-13.71,4.57l-1.33,8.61
					l-10.24,5.54L-177.22,757.77z M-4.54,404.32c2.11,3.65,5.51,11.77,11.99,10.64l-0.66-4.25c2.65,3.65,6.41,6.17,9.96,7.4
					c6.01,2.09,26.88,11.37,31.83,16.61c4.95,5.24-0.18,13.52-0.18,13.52s0.22,3.17,1.68,8.61c1.46,5.44,1.26,14.74-0.64,21.22
					c-1.9,6.48-12.2,7.06-12.2,7.06l-0.36,4.37l-3.65,1.82l-9.07,0.61l1.12,5.39l5.55-1.12l4.52,2.28l-1.03,5.43l4.54,10.05
					l-5.52-2.1l-2.1,10.06l-3.62-10.94l-7.79,11.98l-2.56-13.34L6.03,523.66l-0.72-11.69l-14.37,12.33l-0.93-9.43l-13.8,5.25
					l3.91-10.09l-14.13,3.8l2.67-12.22l-18.26-0.88l9.98-10.9L-51,485.96l6.68-5.11l-13.27-9.72l8.59-2.27l-6.91-9.53
					c4.84-7.48,18.21-9.45,7.44-22.04l9.17,5.39c-3.59-5.87-8.04-11.72-11.55-14.36l10.38,2.33l-3-8.15l9.7,3.77l-4.91-7.91
					l8.32,2.26l-4.33-8.32l6.73,2.66l11.13,5.65l-6.45-12.04l9.51,4.62l-0.08-8.45l9.21,8.88L-4.54,404.32z"/>
				<path id="path564094" class="st4" d="M-64.48,467.44c0.57-0.12,1.81,0.68,3.99,2.75c-1.5,0.6-2.47,1.07-3.47,1.54
					C-64.78,469.36-65.21,467.58-64.48,467.44z"/>
				<path id="path564096" class="st4" d="M-134.46,316.12c2.54,6.84,5.55,19.58,3.07,24.93c-1.13,2.43-1.3,8.9-4.47,6.33
					c-3.48-2.82,2.04-9.64-1.58-17.51C-138.25,328.12-134.13,320.47-134.46,316.12z"/>
				<path id="path564098" class="st4" d="M-135.36,313.89c0.56,0.54,0.83,1.31,0.9,2.24C-134.77,315.28-135.07,314.52-135.36,313.89
					z"/>
				<path id="path564100" sodipodi:nodetypes="csssscssssssssssssssssscc" class="st4" d="M43.34,389.2l-25.38,12.94
					c-7.63,3.89,0.71,14.69-6.2,9.87c-1.93-1.35-4.56-0.71-6.43-2.67c-2.07-2.17-1.36-7.51-4.33-9.11
					c-1.03-0.55-0.72,5.06-0.77,5.04c-3.53-1.56-5.45-7.62-6.16-6.62c-0.52,0.73-0.92,6.29-1.37,6.31c-2.93,0.13-5.55-6.9-9.16-5.94
					c-3.48,0.93-0.14,7.08-2.22,8.03c-0.6,0.28-8.18-3.42-10.11-3.33c-2.65,0.12,1.09,7.43-1.91,5.69
					c-4.54-2.62-87.24,10.33-89.07,5.78c-0.35-0.86,10.2-4.57,8.55-10.46c-1.44-5.14-5.6-11.53-1.92-14.03
					c7.51-5.1-3.46-22.54-2.23-20.23c2.18,4.1,32.16-2.41,30.74-5.52c-1.19-2.62,21.8-1.89,24.46-0.73
					c6.15,2.7,22.55,8.78,28.64,6.32c12.11-4.88,7.2,0.39,18.42,1.68c1.87,0.22,10.31-1.39,10.71-1.21
					c3.11,1.49,3.06,5.76,7.98,6.11c2.5,0.18,9.73-2.06,9.88-1.79c12.75,22.83,27.39-6.95,28.82-10.2
					C50.17,370.84,46.07,383.49,43.34,389.2L43.34,389.2z"/>
				<path id="path564102" class="st4" d="M-135.27,233.53l14.76,30.2l-3.61-15.02c7.74,3.41,15.9,14.64,24.41,14.21
					c0,0,5.43-1.5,11.15,4.65c2.74,2.94,5.24,5.16,7.15,6.73c-0.35-0.77-0.75-1.88-1.9-3.13c-1.97-2.13-5.08-4.74-6.04-7.53
					c1.01,0.32,2.03,0.9,3.13,0.9c2.43,0.01,4.48-3.06,4.54-3.01c2.29,2.01,2.08,3.8,5.81,3.47c0.67-0.06,5.23-2.12,5.45-1.99
					c1.85,1.07-0.13,5.53-0.93,6.53c-1.98,2.47-3.71,4.04-6.64,5.25c-0.91,0.38-1.55,0.57-2.01,0.6c0.88,0.66,2.03,1.53,2.03,1.53
					l-15.37,19.54c0,0-2.88,2.68-10.73,8.21c-7.85,5.53-16,18.43-16,18.43l-9.24,7.22c1.16-13.4,3.63-21.56,3.35-23.31
					c-0.28-1.75-8.93-33.5-8.93-33.5s-1.48-17.81-2.11-24.1C-137.63,243.13-135.27,233.53-135.27,233.53L-135.27,233.53z"/>
				<path id="path564104" sodipodi:nodetypes="ccsscssssscccccscccc" class="st5" d="M-85.67,379.11
					c9.07,4.54,11.02,3.86,18.89,2.18c9.99,1.25,9.46,8.33,20.17,5.89c7.14-1.62,7.65-4.59,11.31-2c16.77,11.85,17.57-0.49,22.9,3.6
					c10.8,10.62,13.02,2.47,16.6,2.02c4.33-0.54-3.97-1.12,6.33,0.26c9.79,1.31,7.03-2.04,15.67,6.47c7.68-4.35,11.02-2.1,9.97-8.73
					c-1.23-9.04,6.04-10.95,0.67-19.12c-7.99,2.44-2.91-1.85,1.63,7.71c1.04,9.79-10.82,17.43-18.42,10.07
					c-6.05-3.69-5.17-13.24-13.43-11.18c-6.53-6.06-14.21-5.64-22.49-4.56c-8.58-3.83-16.93-1.44-25.52,0.2
					c-9.61,1.98-16.27-9.69-25.41-5.63c-8.36,6.06-17.69-6.39-24.7,2.91c-5.01,4.95-13.86-3.09-12.91,5.65
					C-100.87,379.41-92.56,383.86-85.67,379.11L-85.67,379.11z"/>
				<path id="path564106" sodipodi:nodetypes="csscc" class="st3" d="M28.07,251.89c0,0-11.53-3.99-8.31-9.24
					c1.6-2.61,15-18.02,17.56-27.92c1.22-4.74,9.91-1.53,9.91-1.53C59.54,213,48.5,266.6,51,279.24"/>
				<path id="path564108" sodipodi:nodetypes="cccsssccc" class="st6" d="M11.08,483.77c0,0,0.72,5.53,6.53,7.34
					c5.81,1.81,8.59,4.86,8.59,4.86s1.68-2.86-5.11,2.31c-5.81,4.43-31.85,4.22-37.9,1.4c-5.33-2.48-16.75-20.06-18.28-24.15
					c-1.53-4.1,18.65,10.3,21.99,10.42C-9.75,486.07,11.08,483.77,11.08,483.77L11.08,483.77z"/>
				
					<path id="path564110" sodipodi:nodetypes="ssssssscssscsscccsscsscsssccccccccsccccsssccccccsssssssssssscscccsssssssccsscssssssccsssssss" class="st4" d="
					M-176.74,758.04c0.96,0.53,1.9,1.08,2.87,1.6c2,1.09,4.01,2.15,6.04,3.19c2.03,1.04,4.07,2.05,6.13,3.04
					c2.06,0.99,4.13,1.96,6.21,2.9c2.08,0.94,4.18,1.86,6.29,2.75c2.11,0.89,4.23,1.76,6.37,2.6c1.92,0.76,3.85,1.49,5.79,2.2
					c0.67-3.77,1.58-7.51,3.48-11.08c1.41-2.63,4.8-3.31,5.96-5.38c2.36-4.19,1.2-10.25,3.76-14.84c0.81-1.45,5.96-5.05,6.06-5.84
					c0.64-4.88-1.64-12.11-1.55-17.46c0.06-3.63,2.4-8.39,2.1-11.69c-0.37-4-5.44-6.97-5.41-12.83c0.02-3.99,2.19-7.64,2.36-11.43
					c0.19-4.19-1.23-8.39-0.91-12.75c0.38-5.15,2.52-10.21,2.73-15.31c0.11-2.77-8.15-16.75-8.81-24.26
					c-0.52-5.94,2.53-10.49,2.99-16.01c0.42-5.07-1.94-10.2-1.29-15.59c0.54-4.48,3.38-9.02,3.46-13.45c0.08-4.76-3.2-11-3.39-16.47
					c-0.28-7.94,10.91-12.6,4.35-16.41c-1.89-1.1-6.81-13.27,7.45-13.54c14.92-0.28,27.99-11.85,24.68-10.64
					c-3.57,1.31-24.52,3.18-25.11-11.98c-10.56-11.3-12.23-9.53-11.26-23.15c-14.08-14.1-6.49-10.93-4.2-28.54
					c-11.3-5.86-3.03-15.99,1.86-22.25c-2.68-15.17,5.63-23.46,15.25-24.57c4.67-3.79,5.78-11.62,6.97-16.27
					c0.57-3.88-0.1-23.63-0.1-23.63l-1.52-3.39c0.89-1.29,1.76-2.71,2.06-2.88c3.37-1.93,7-4.51,10.76-6.37
					c11.35-0.67,23.44,1.57,33.33-4.76c4.85,9.3,29.65,11.47,34.21,7.28l10.09,0.38c7.01-0.91,16.86-0.53,26.62,6.38
					c1.91,1.35,6.16,0.61,7.95,2.33c4.04,3.87,3.73,12.47,11.99,10.4c12.87-3.22,9.34-15.51,10.48-24.52
					c-0.28-4.63,6.86-28.43,0.61-17.45c1.19,8.54-7.81,15.46-9.27,18.6c-0.28,3.4,2.88,13.31-2.72,14.56
					c-8.55-0.05-8.86-10.68-11.75-14.2c-1.12,0.47-2.15,0.84-3.11,1.13c0.81-5.94-7.85-6.77-9.8-9.9
					c-0.36-0.57,0.17-9.98-1.84-13.76c-2.63-4.96-6.54-8.1-12.18-8.82c-1.17-0.15-2.89,0.15-3.98-0.36
					c-0.68-0.32-0.86-3.71-1.15-4.39c-1.15-2.66-3.16-4.86-5.39-6.65c-5.4-4.32-10.22-1.5-12.87-3.05
					c-0.59-0.35-3.32-10.44-4.85-12.41c-2.77-3.58-6.56-7.3-11.25-7.94c-1.05-0.14-2.97,0.29-3.9-0.28
					c-1.65-1.02-2.84-7.83-3.92-9.59c-3.95-6.45-11.31-10.4-18.66-10.4c-3.34,0-6.68,0.81-9.7,2.57c0,0-10,15.05-19.98,21.57
					c-9.98,6.52-12.81,19.57-12.81,19.57s-16.13-31.06-19.53-19.76c-4.53,5.28-15.88,10.06-12.01,23.45c0,0,2.3,10.23-4.93,14.32
					c-7.23,4.09-3.36,19.8-3.07,22.26c0.28,2.46,1.97,12.54-1.04,15.25c-3.01,2.72-4.14,11.17-3.88,15.33
					c0.26,4.16,5.76,10.5,6.1,13c0.34,2.51-1.17,7.45-2.75,10.91c-1.58,3.46-0.08,14.33-0.71,17.58c-0.63,3.26-2.93,8.14-2.93,8.14
					l3.17,10.42c0,0-3.35,13.96-2.71,18.57c0.65,4.6,4.85,9.36,2.61,23.09c-2.24,13.73,2.67,19.15,2.67,19.15s2.73,15.15-0.63,23.25
					c-3.35,8.09,3.64,12.49,3.94,17.53c0.3,5.04-2.67,12.33-4.04,16.34c-1.37,4.01,5.33,13.55,7.25,20.89
					c1.92,7.34-4.77,16.76-1.72,28.31c3.05,11.56,3.07,16.09,0.67,26.9c-2.4,10.81,4.48,14.92,3.43,21.7
					c-1.05,6.78-0.99,16.94-0.99,16.94s1.68,14.02-0.55,18.62c-2.22,4.6-4.73,11.43-2.62,15.72c2.1,4.29,1.57,8.17-1.62,7.58
					s-9.43,2.25-8.91,6.41c0.53,4.16-6.18,10.01-8.85,11.64C-174.39,749.71-177.82,753.3-176.74,758.04z"/>
				<path id="path564112" sodipodi:nodetypes="csc" class="st7" d="M-20.88,426.42c-4.14,1.41-10.46,6.39-10.29,18.83
					c0.05,3.7,8.91,7.81,11,9.06"/>
				<path id="path564114" sodipodi:nodetypes="cscc" class="st8" d="M-10.98,449.46c1.54-2.9,8.11-3.11,14.88,0.25
					c6.01,2.99-12.09-0.03-12.09-0.03c11.87,0.7,25.75,5.77,27.78,12.6"/>
				<path id="path564116" sodipodi:nodetypes="ccccssc" class="st9" d="M-129.64,333.55c0.41-9-5.16-29.85-8.08-38.92
					c-3.24-15.45-7-12.51-6.36-29.23c-1.88-11.96-2.88-22.97,0.35-31.85c2.47-6.02,2.09-17.92,10.33-15.4
					c7.36,2.25,11.14,15.88,20.58,26.53c13.64,15.39,21.24,13.91,31.7,30.43"/>
				<path id="path564118" sodipodi:nodetypes="cscscccssc" class="st5" d="M-134.19,237.01c0.92,1.62,3.34,9.46,6.22,21.71
					c2.88,12.25,1.82,18.8,1.82,18.8s-3.74-10.75-5.42-8.71c-1.68,2.04,2.41,20.97,7.59,34.03c5.18,13.06,4.61,20.25,4.61,20.25
					l6.83-12.61c0,0-2.97-19.1-4.83-29.98c-1.86-10.89-5.26-23.26-7.69-28.13C-127.49,247.51-134.19,237.01-134.19,237.01z"/>
				<path id="path564120" sodipodi:nodetypes="cccsc" class="st9" d="M-117.8,318.89c-7.77-12.42-14.89-37.02-14.62-50.35
					 M-133.78,235.75c5.97,10.98,11.75,22.57,13.04,28.95c3.48,17.21,2.55,17.22,8.8,48.26"/>
				<path id="path564122" sodipodi:nodetypes="cscccc" class="st4" d="M34.15,249.32c0.14,0.28,5.58-9.16,6.73-13.28
					c1.06-3.8,5.56-8.67,5.75-6.94c2.21,12.9,2.86,50.54,2.63,49.29l-7.03-7.64L34.15,249.32z"/>
				<g id="g564132" transform="matrix(-1.2169435,0.05603457,0.06516985,1.415341,-550.94805,-39.934517)">
					<path id="path564124" sodipodi:nodetypes="ccc" class="st10" d="M-443.74,334.94c-5.8,8.57-24.17,8.88-33.78,3.56
						C-479.58,330.64-458.62,303.77-443.74,334.94z"/>
					
						<ellipse id="ellipse564126" transform="matrix(1 5.000748e-03 -5.000748e-03 1 1.6567 2.306)" class="st11" cx="-460.3" cy="332.43" rx="12.01" ry="-11.18"/>
					<path id="path564128" sodipodi:nodetypes="cccc" class="st12" d="M-453.12,321.34c3.81,2.6,7.18,7.72,9.33,16.39
						c-8.37,3.36-24.21,5.93-33.74,0.77c-1.74-6.5,4.56-15.47,12.38-18.38"/>
					
						<ellipse id="ellipse564130" transform="matrix(0.9994 -0.0348 0.0348 0.9994 -11.8408 -15.6858)" class="st10" cx="-456.02" cy="331.93" rx="3.98" ry="-2.3"/>
				</g>
				<path id="path564134" sodipodi:nodetypes="cccc" class="st13" d="M-159.99,492.96c-1.83,9.08,5.18,18.71,10.86,18.93
					c-0.11,7.54,6.09,15.81,17.1,12.66c0.58,3.34,7.32,14.13,16.84,8.9"/>
				<path id="path564136" sodipodi:nodetypes="cccc" class="st14" d="M-63.96,498.7c7.44-6.2,6.92-16.94-1.19-24.03
					c4.09-2.74,11.89-12.11,2.06-13.99c22.94-10.02,17.02-24.79,7.99-22.73"/>
				<g id="g564146" transform="matrix(-1.6789314,0.07730695,0.07730695,1.6789314,-634.86789,-64.923384)">
					<path id="path564138" sodipodi:nodetypes="ccc" class="st10" d="M-305.64,299.04c-5.8,8.57-24.17,8.88-33.78,3.56
						C-341.48,294.74-320.52,267.86-305.64,299.04z"/>
					
						<ellipse id="ellipse564140" transform="matrix(0.9997 -0.0246 0.0246 0.9997 -7.4304 -7.8717)" class="st11" cx="-323.09" cy="297.53" rx="11.21" ry="-11.03"/>
					<path id="path564142" sodipodi:nodetypes="ccsc" class="st15" d="M-305.64,299.04c-5.8,8.57-24.17,8.88-33.78,3.56
						c-0.22-0.85-0.18-1.92,0.1-3.11C-337.02,289.61-318.91,271.23-305.64,299.04L-305.64,299.04z"/>
					
						<ellipse id="ellipse564144" transform="matrix(0.9997 -0.0246 0.0246 0.9997 -7.3768 -7.7785)" class="st10" cx="-319.28" cy="295.41" rx="3.97" ry="-2.3"/>
				</g>
				<path id="path564148" sodipodi:nodetypes="cccccc" class="st14" d="M-89.93,423.32c-7.33-6.59-20.25-6.8-26.55-6.09
					 M-74.9,426.24c-11.79-3.92-22.82-2.54-32.02,4.06 M-53.38,426.37c-22.04-2-28.27,1.39-36.23,8.06"/>
				<path id="path564150" sodipodi:nodetypes="cccccc" class="st16" d="M-145.4,275.58c-2.71,1.3-11.26,7.58-8.74,20.46
					c-8.42,3.7-8.42,7.78-7.94,19.01c-13.62,5.53-3.4,25.89-2.58,26c1.2,5.92-4.58,14.63,1.98,20.65c4.61,3.45,3.28,2.09,3.52,16.8"
					/>
				<path id="path564152" class="st16" d="M-159.68,382.26c0.32-0.75,0.54-1.39,0.53-1.83c-0.02-0.74-0.02-1.26-0.03-1.94
					L-159.68,382.26z"/>
				<path id="path564154" sodipodi:nodetypes="ccscscssscsccsccsccsscc" class="st16" d="M-178.38,754.92
					c2.33-3.41,3.68-6.85,12.36-9.71c2.39-2.8,3.48-5.93,2.97-10.22c-0.62-5.16,11.32-3.72,12.26-4.06
					c2.96-1.07-5.33-10.97-2.33-17.88c1.81-4.18,4.99-5.5,5.52-10c1.16-9.89-5.43-19.66-0.03-29.39c3.5-6.31-1.31-8.97-2.77-15.72
					c-1.3-5.99-0.66-13.06,0.94-18.93c0.43-1.58,0.82-2.47,0.54-4.4c-0.76-6.22-5.41-12.04-6.22-18.68
					c-1.02-8.4,3.11-14.45,2.89-19.81c-0.26-6.13-4.2-11.9-4.6-18.3c-0.5-8.08,2.94-15.95,2.66-23.87
					c-0.15-4.38-3.68-8.51-3.52-14.13c0.1-3.45,2.3-6.86,2.16-10.2c-0.29-6.91-3.68-17.87-4.49-24.76
					c-1.42-12.03,1.21-11.15,1.5-23.09c-8.74-10.87-0.2-19.18-1.21-26.18c-5.61-8.73-0.19-16.53,0.38-21.18
					c1-8.15-1.05-12.16,1.21-17.79c2.74-6.83-0.1-7.02,0.27-14.41c-3.62-3.43-3.63-10.66-1.97-19.2"/>
				<path id="path564156" sodipodi:nodetypes="cssscsscssscccscccccc" class="st13" d="M67.44,770.28c0-2.41,1.53-4.46,1.47-12.75
					c-0.06-9.45-6.82-12.5-7.35-21.16c-0.28-4.57,6.4-7.95,1.24-22.35c-2.17-6.05-9.04-11.27-9.63-17.41
					c-0.56-5.88,3.16-7.57,2.91-15.97c-0.19-6.26-5.3-14.88-4.85-20.73c0.68-8.84,4.78-9.73,4.2-19.06
					c-0.42-6.76-0.84-8.14-1.82-14.45c-1.35-8.7,2.24-9.67,1.11-18.34c-0.81-6.21-2.21-6.67-2.96-12.4
					c-0.33-2.48,2.99-12.91,3.38-15.85c0.79-5.89-1.57-10.15-0.89-13.57c6.38-16.03,2.35-27.11,1.2-32.43
					c6.3-12.09,4.76-19.17,0.92-29.01c-1.91-4.89,10.32-12.81,1.21-29.59c5.89-14.69,3.75-18.62,0.08-25.66
					c5.93-10.87,2.38-13.64,0.05-18.9c1.83-8.18,2.47-14.17,0.33-20.62c2.81-11.36-0.57-17.55-3.46-24.15
					c2.43-7.59,2.83-19.18-1.42-26.31"/>
				<g id="g564172" transform="matrix(0.95186227,0,0,1.0006767,-20.667919,-4.5416542)">
					<path id="path564158" sodipodi:nodetypes="ccccccc" class="st17" d="M-103.37,389.84l-34.34,12.98l-7.27,17.03l1.03,4.95
						l8.33-12.88l31.15-7.14L-103.37,389.84z"/>
					<path id="path564160" sodipodi:nodetypes="ccccccccccscccccccs" d="M63.56,387.51c0-0.02-20.2,0.55-27.96,1.86
						c-2.45,0.42-3.29,0.69-3.12,3.58c-0.38,10.15,0.46,19.58,3.48,28.26c21.71,14.25,26.36,4.85,37.55,19.27l9.06-0.37
						c10.78-2.01,13.63-32.18,15.13-48.04c0-0.08,0-0.16-0.01-0.25C96.74,388.95,81.33,387.55,63.56,387.51L63.56,387.51z
						 M-35.73,387.57c-22.27,0.06-46.12,2.02-53.05,5.07c-1.87,0.84-2.06,2.07-1.7,4.28c1.35,18.32,4.01,50.72,19.74,52.39
						l47.71-4.14c1.85-0.16,2.72-0.45,3.97-1.89c9.38-9.32,16.11-33.03,14.94-49.93c0.1-0.66-0.49-3.57-3.7-3.91
						C-15.42,388.11-23.06,387.54-35.73,387.57L-35.73,387.57z"/>
					<path id="path564162" sodipodi:nodetypes="ccccccscscccccssccccccccccccccccccccccccsscccc" class="st18" d="M74.73,443.87
						l9.04-0.42c11.53-0.98,16.18-40.44,16.18-40.44l6.27-2.79c0.59-0.73,1.17-9.82,0.15-11.19l-6.62-2.23
						c-7.93-2.67-22.11-3.62-35.86-3.66l0,0l0,0c-16.35-0.05-32.07,1.93-34.51,3.07l-0.03,0.33v-0.18
						c-6.59-1.59-22.27-1.4-25.89,0.24l0.04-0.18c-2.55-1.2-18.42-3.72-39.22-3.91l-0.01,0c-19.4-0.18-41.65,0.77-55.46,4.19
						l-12.22,3.02c-2.07,1.89-2.18,14.29-1.17,15.25l11.01,3.27c0,0,3.69,46.92,22.69,45.23l48.82-4.35c3-0.46,3.76-1.18,4.82-2.39
						c10.13-11.61,16.86-29.38,19.69-40.06c8.69-3.9,20.98-2.94,26.7,0.71c0.7,4.17,1.74,8.44,3.05,12.55
						C46.97,427.46,70.41,428.59,74.73,443.87L74.73,443.87z M-35.73,387.57c12.67-0.03,20.31,0.54,27.92,1.87
						c3.2,0.35,3.79,3.25,3.7,3.91c1.16,16.9-5.56,40.61-14.94,49.93c-1.26,1.44-2.12,1.73-3.97,1.89l-47.71,4.14
						c-15.73-1.67-18.39-34.07-19.74-52.39c-0.36-2.21-0.17-3.45,1.7-4.28C-81.85,389.59-58.01,387.63-35.73,387.57L-35.73,387.57z
						 M35.38,419.48c-2.55-8.2-3.26-17.04-2.9-26.52c-0.16-2.89,0.67-3.17,3.12-3.58c7.76-1.32,27.96-1.88,27.96-1.86v0
						c17.86,0.03,33.36,1.45,34.16,4.36c-1.51,15.82-4.33,46.23-15.16,48.25l-8.13,0.33C65.25,429.8,48.4,426.46,35.38,419.48
						L35.38,419.48z"/>
					
						<linearGradient id="path564164_1_" gradientUnits="userSpaceOnUse" x1="-775.6979" y1="755.2964" x2="-806.5336" y2="716.7576" gradientTransform="matrix(3.5976 0 0 -3.7821 2840.4543 3144.6841)">
						<stop  offset="0" style="stop-color:#1D1D1D"/>
						<stop  offset="1" style="stop-color:#FFFFFF;stop-opacity:0"/>
					</linearGradient>
					<path id="path564164" class="st19" d="M-35.73,387.57c-22.27,0.06-46.12,2.02-53.05,5.07c-1.87,0.84-2.06,2.07-1.7,4.28
						c1.35,18.32,4.01,50.72,19.74,52.39l47.71-4.14c1.85-0.16,2.72-0.45,3.97-1.89c9.38-9.32,16.11-33.03,14.94-49.93
						c0.1-0.66-0.49-3.57-3.7-3.91C-15.42,388.11-23.06,387.54-35.73,387.57L-35.73,387.57z"/>
					
						<linearGradient id="path564166_1_" gradientUnits="userSpaceOnUse" x1="-756.3441" y1="746.8746" x2="-773.4374" y2="719.8348" gradientTransform="matrix(3.5976 0 0 -3.7821 2840.4543 3144.6841)">
						<stop  offset="0" style="stop-color:#FFFFFF"/>
						<stop  offset="1" style="stop-color:#FFFFFF;stop-opacity:0"/>
					</linearGradient>
					<path id="path564166" sodipodi:nodetypes="cccccccccc" class="st20" d="M63.56,387.51c0-0.02-20.2,0.55-27.96,1.86
						c-2.45,0.42-3.29,0.69-3.12,3.58c-0.39,10.28,0.48,19.8,3.58,28.57c12.18,22.46,14.19,14.32,37.55,18.95l8.95-0.36
						c10.78-2.01,13.63-32.18,15.13-48.04c0-0.08,0-0.16-0.01-0.25C96.74,388.95,81.33,387.55,63.56,387.51L63.56,387.51z"/>
					
						<linearGradient id="path564168_1_" gradientUnits="userSpaceOnUse" x1="-778.2849" y1="726.6252" x2="-784.7792" y2="726.8663" gradientTransform="matrix(3.5976 0 0 -3.7821 2840.4543 3144.6841)">
						<stop  offset="0" style="stop-color:#666666"/>
						<stop  offset="1" style="stop-color:#666666;stop-opacity:0"/>
					</linearGradient>
					<path id="path564168" sodipodi:nodetypes="ccccc" class="st21" d="M28.34,387.51l0.5,17.94c-2.72-1.79-7.16-2.48-12.33-2.71
						l-0.71-16.45C20.49,386.53,25.12,386.25,28.34,387.51z"/>
					
						<linearGradient id="path564170_1_" gradientUnits="userSpaceOnUse" x1="-2197.4692" y1="674.6509" x2="-2199.2144" y2="587.7798" gradientTransform="matrix(0.9519 0 0 -1.0007 2093.6157 1018.7443)">
						<stop  offset="0" style="stop-color:#646464"/>
						<stop  offset="1" style="stop-color:#1A1A1A;stop-opacity:0"/>
					</linearGradient>
					<path id="path564170" sodipodi:nodetypes="ccccccscscccccsscccccccccccccccccccccccssccc" class="st22" d="M75.04,443.85
						l8.74-0.41c11.53-0.98,16.18-40.44,16.18-40.44l6.27-2.79c0.59-0.73,1.17-9.82,0.15-11.19l-6.62-2.23
						c-7.93-2.67-22.11-3.62-35.86-3.66l0,0l0,0c-16.35-0.05-32.07,1.93-34.51,3.07l-0.03,0.33v-0.18
						c-6.59-1.59-22.27-1.4-25.89,0.24l0.04-0.18c-2.55-1.2-18.42-3.72-39.22-3.91l-0.01,0c-19.4-0.18-41.65,0.77-55.46,4.19
						l-12.22,3.02c-2.07,1.89-2.18,14.29-1.17,15.25l11.01,3.27c0,0,3.69,46.92,22.69,45.23l48.82-4.35c3-0.46,3.76-1.18,4.82-2.39
						c10.13-11.61,16.86-29.38,19.69-40.06c8.69-3.9,20.98-2.94,26.7,0.71c0.5,3,1.18,6.04,2.01,9.05 M-35.73,387.57
						c12.67-0.03,20.31,0.54,27.92,1.87c3.2,0.35,3.79,3.25,3.7,3.91c1.16,16.9-5.56,40.61-14.94,49.93
						c-1.26,1.44-2.12,1.73-3.97,1.89l-47.71,4.14c-15.73-1.67-18.39-34.07-19.74-52.39c-0.36-2.21-0.17-3.45,1.7-4.28
						C-81.85,389.59-58.01,387.63-35.73,387.57L-35.73,387.57z M34.84,418.75c-1.81-7.27-2.68-17.55-2.37-25.79
						c-0.16-2.89,0.67-3.17,3.12-3.58c7.76-1.32,27.96-1.88,27.96-1.86v0c17.86,0.03,33.36,1.45,34.16,4.36
						c-1.51,15.82-4.33,46.23-15.16,48.25l-8.88,0.36"/>
				</g>
				<path id="path564174" sodipodi:nodetypes="sssccsscs" class="st3" d="M16.21,376.34c0.22,1.64,3.14,12.75,9.32,13.2
					c6.18,0.45,10.06,0.6,11.05-4.98c0.99-5.58-0.75-13.68-0.75-13.68l-3.38,1.34c-0.11,0.09,0.53,4.15-5.1,3.45
					c-7.29-0.91-4.4,3.07-6,0.88C19.75,374.37,16.21,376.34,16.21,376.34L16.21,376.34z"/>
				<path id="path564176" sodipodi:nodetypes="sssccccs" class="st4" d="M16.21,376.34c0.22,1.64,3.14,12.75,9.32,13.2
					c6.18,0.45,10.06,0.6,11.05-4.98c0.99-5.58-0.75-13.68-0.75-13.68l-3.38,1.34c2.03,14.05-7.17,15.28-11.1,4.33
					C19.75,374.37,16.21,376.34,16.21,376.34L16.21,376.34z"/>
				<path id="path564178" sodipodi:nodetypes="cccccccsccccccccc" class="st13" d="M-112.16,370.99c9.42,6.73,25.48-2.36,26.79-7.54
					c7.74,6.24,18.33,6.53,24.57-1.78c4.05,4.08,9.4,10.34,16.93,10.09c6.91,2.4,13.37-0.95,19.17-4.88
					c4.91,7.45,15.17,7.83,22,3.76c3.03,6.47,8.42,9.13,17.4,4.31c1.13,6.52,6.45,18.29,16.72,15.21c8.06-2.42,7.33-12.6,5.99-19.99
					c1.87-3.98,11-14.98,4.94-26.78c-3.69-7.3,8.15-13.26,6.1-20.95c-0.26-6.48-2.07-14.02-7.63-17.59
					c-0.49-6.37,2.35-11.74-2.38-18.23 M29.09,272.86c-0.89-11.8-8.6-15.26-18.15-15.74C9,252.9,2.37,242-9.87,245.44
					c-1.29-2.83-5.68-8.79-13.32-10.9"/>
				<path id="path564180" sodipodi:nodetypes="cscccc" class="st13" d="M-72.89,271.15c-3.92,4.16-2.58,2.63-12.32,8.53
					c-4.27,2.59-6.65,11.56-7.67,15.98c-1.92,4.89-7.31,5.29-10.9,8.74c-2.95,1.7-12.89,12.52-13.78,19.9
					c-12.25,9.19-10.93,8.68-14.03,19.84"/>
				<path id="path564182" sodipodi:nodetypes="csscc" class="st9" d="M17.45,243.89c0,0,5.04-7.12,9.15-11.71
					c8.09-9.04,10.48-17.41,14.08-19.11c4.42-2.1,8.71,2.58,8.71,2.58c6.25,8.82,0.39,39.92,1.38,62.12"/>
				<path id="path564184" sodipodi:nodetypes="cccccc" class="st23" d="M38.63,427.93l1.08,2.09 M29.77,430.71l1.51,3.27
					 M20.24,431.42l1.31,6.14"/>
				<path id="path564186" sodipodi:nodetypes="cccccccccc" class="st13" d="M41.47,364.47c7.76-1.67,17.74-11.13,16.58-18.99
					c2.17-0.76,13-5.75,8.34-19.66c-0.15-7.48,0.66-15.54-7.87-22.89c0.17-15.91-1.44-16.39-6.9-23.74
					c-14.48-22.22-9.01-19.98-25.54-26.05c-6.49-6.01-9.42-14.56-37.6-11.71c-14.89-13.91-40.46-10.17-41.95-5.9
					c-15.62-8.12-26.18,0.81-31.52,3.96c-3.44-1.71-19.94-0.31-23,7.94"/>
				<path id="path564188" class="st9" d="M34.33,253.7c0,0,5.68-18.65,7.91-20.13"/>
				<path id="path564190" sodipodi:nodetypes="csscc" class="st7" d="M2.27,403.28c0.54,4.9,3.76,9.3,9.56,12.32
					c13.21,6.86,32.61,12.56,36.21,17.9c3.59,5.35,1.6,12.8,1.6,12.8c-1.98,3.48-3.54,7.45-8.4,9.12"/>
				<path id="path564192" sodipodi:nodetypes="cscc" class="st24" d="M42.76,445.02c-2.41-2.09-8.8,0-14.44,4.93
					c-5,4.38,12.74-4.74,12.74-4.74c-8.53,4.03-20.04,10.96-20.93,16.94"/>
				<path id="path564194" sodipodi:nodetypes="cccccc" class="st23" d="M-9.3,430.75l-0.15,0.76 M0.09,432.5l-1.2,3.39 M9.26,433.18
					l0.24,3.77"/>
				<path id="path564196" sodipodi:nodetypes="ccscsccccscscc" class="st10" d="M-16.56,483.83l0.21,5.74c0,0,20.03,4.25,22.45,3.54
					c2.42-0.71,5.68-0.98,5.68-0.98s4.71,1.54,8.08,0.4c3.37-1.14,5.43-1.73,5.43-1.73s0.71,1.08,4.24,1.29
					c3.52,0.21,7.21,0.18,7.73-0.55c0.52-0.73-0.06-4.62-0.26-5.18c-0.2-0.56-8.24-2.51-9.99-3.56c-1.75-1.06-8.75-5.07-8.75-5.07
					s-6.23,7.2-9.62,8.03C5.26,486.58-16.56,483.83-16.56,483.83L-16.56,483.83z"/>
				<path id="path564198" sodipodi:nodetypes="csc" class="st7" d="M48.47,450.65c0,0,7.1,18.57,1.49,27.18
					c-9.23,14.17-28.57,4.02-30.38-1.17"/>
				<path id="path564200" sodipodi:nodetypes="csc" class="st7" d="M19.44,462.05c0,0,4.71,20.06-12.01,23.59
					c-26.98,5.7-47.33-14.54-47.1-21.5"/>
				<path id="path564202" sodipodi:nodetypes="cscc" class="st7" d="M23.98,491.47c-0.29,3.62,0.45,6.29,2.96,5.15
					c5.61-2.53,13.34,5.45,2.71,11.91c-3.53,1.56,1.86,5.63-4.09,11.57"/>
				<path id="path564204" sodipodi:nodetypes="csc" class="st7" d="M25.66,497.24c-4.15,2.62-26.91,9.81-42.8,1.73
					c-14.64-7.44-20.98-25.45-21.57-31.62"/>
				<path id="path564206" sodipodi:nodetypes="cc" class="st7" d="M-35.4,462.24c-4.17-1.67-7.81,0.21-9.46,3.97"/>
				<path id="path564208" sodipodi:nodetypes="ccccc" class="st13" d="M-54.02,523.15c13.11-3.34,14.46,14.7,14.25,11.79
					c15.81-7,15.44-0.87,24.09,4.75c-1.94,1.84,18.3-15.56,31.84,2c-0.13-3.92,8.26-20.49,20.56-11.7"/>
				<path id="path564210" sodipodi:nodetypes="cssc" class="st25" d="M10.3,484.95c-0.5,1.55,0.59,6.74,0.05,7.07
					c-4.34,2.64-13.73,1.8-13.8,0.61c-0.07-1.28,0.03-5.81,0.03-5.81"/>
				<path id="path564212" sodipodi:nodetypes="cc" class="st26" d="M23.92,490.59c-1.65,3.04-11.22,2.33-12.23,1.11"/>
				<path id="path564214" sodipodi:nodetypes="cssc" class="st25" d="M37.36,485.27c-0.5,1.55-0.02,4.59-0.6,4.86
					c-3.48,1.61-10.05,2.32-11.58,0.85c-0.92-0.89-0.71-9.01-0.71-9.01"/>
				<path id="path564216" sodipodi:nodetypes="cccc" class="st11" d="M15.48,482.75c2.07-1.54,4.13-2.5,8.49-0.13l-4.64-6.37
					L15.48,482.75z"/>
				<path id="path564218" sodipodi:nodetypes="cssc" class="st25" d="M-3.95,486.81c-0.5,1.55,0.41,4.67-0.14,4.99
					c-4.61,2.67-12.34-0.44-12.74-2.29c-0.39-1.82-0.32-5.58-0.2-5.49"/>
				<g id="g564422" transform="translate(272.03188,2.7219637)">
					<g>
						<defs>
							<rect id="SVGID_1_" x="-364.19" y="680.1" width="193.24" height="193.24"/>
						</defs>
						<clipPath id="SVGID_2_">
							<use xlink:href="#SVGID_1_"  style="overflow:visible;"/>
						</clipPath>
						<g id="g564356" transform="matrix(0.05112821,0,0,-0.05112821,-701.89645,227.83152)" class="st27">
							<g id="g564222" transform="matrix(0.88039568,0,0,1,505.05589,335.9668)">
								<path id="path564220" sodipodi:nodetypes="ccscccccc" class="st28" d="M9096.87-11691.6l-159.88,15.5
									c-315.24,31.2-598.81,299.54-570.95,672.26c6.48,86.67,39.17,181.92,78.1,253.73c18.14,15.12,99.31,148.63,255.4,231.78
									c224.13,119.43,380.69,88.35,402.24,85.71c-458.08-74.46-549.92-408.19-571.47-585.45
									c-15.88-132.28,24.95-255.88,54.04-313.7C8629.34-11422.49,8766.92-11666.27,9096.87-11691.6"/>
							</g>
							<g id="g564226" transform="translate(521.4004,668.3667)">
								<path id="path564224" class="st29" d="M8054.28-10767.68c346.92,0,628.16-281.24,628.16-628.16
									c0-346.92-281.24-628.16-628.16-628.16c-346.92,0-628.16,281.24-628.16,628.16
									C7426.12-11048.91,7707.35-10767.68,8054.28-10767.68"/>
							</g>
							<g id="g564230" transform="translate(521.4004,635.2666)">
								<path id="path564228" class="st28" d="M8054.28-10859.68c277.83,0,503.06-225.23,503.06-503.06
									c0-277.83-225.23-503.06-503.06-503.06c-277.83,0-503.06,225.23-503.06,503.06
									C7551.22-11084.91,7776.45-10859.68,8054.28-10859.68"/>
							</g>
							<g id="g564234" transform="translate(523.9004,334.7666)">
								<path id="path564232" d="M8061.23-11694.93l-2.65,14.74L8061.23-11694.93z"/>
							</g>
							<g id="g564238" transform="translate(359.7998,546.167)">
								<path id="path564236" sodipodi:nodetypes="cccccccc" class="st30" d="M7605.1-11107.34l-79.53,13.12
									c-1.51,0.38-2.65,1.89-2.65,3.4c0.38,1.51,1.51,2.65,3.02,2.65l80.66-4.43c4.16-0.38,7.18-3.78,7.18-7.94
									c-0.38-4.16-3.78-7.18-7.94-7.18C7605.48-11107.34,7605.48-11107.34,7605.1-11107.34"/>
							</g>
							<g id="g564242" transform="translate(353.7002,484.667)">
								<path id="path564240" sodipodi:nodetypes="ccccccsc" class="st30" d="M7588.15-11278.28l-78.15,13.93
									c-1.51,0.37-2.65,1.89-2.65,3.4c0.38,1.51,1.51,2.64,3.02,2.64l79.29-4.85c4.16-0.38,7.18-3.78,7.18-7.94
									c-0.38-4.15-3.78-7.18-7.94-7.18H7588.15z"/>
							</g>
							<g id="g564246" transform="translate(372.6001,420.667)">
								<path id="path564244" sodipodi:nodetypes="ccccccsc" class="st30" d="M7640.68-11456.17l-79.08,14.31
									c-1.51,0.38-2.65,1.89-2.65,3.4c0.38,1.52,1.51,2.65,3.02,2.65l79.84-5.24c4.16-0.38,7.18-3.78,7.18-7.94
									c-0.38-4.16-3.78-7.18-7.94-7.18H7640.68z"/>
							</g>
							<g id="g564250" transform="translate(414.2002,370.0664)">
								<path id="path564248" sodipodi:nodetypes="ccscscsscscc" class="st30" d="M7756.31-11596.82
									c-7.94,2.27-15.87,3.03-23.43,4.16l-23.81,3.4c-15.87,2.27-14.84,5.32-30.34,7.21c-1.51,0.38-3.02,1.89-2.65,3.4
									c0.38,1.51,1.51,2.65,3.4,2.65c15.87-1.13,14.84-3.43,30.72-4.19l23.81-1.13c7.94-0.38,15.87-1.13,23.81-0.38
									c4.16,0.38,7.94-2.65,8.31-6.81c0.38-4.15-2.65-7.93-6.8-8.31C7758.2-11597.19,7757.07-11596.82,7756.31-11596.82"/>
							</g>
							<g id="g564254" transform="translate(521.0996,665.7666)">
								<path id="path564252" class="st30" d="M8053.44-10774.9c-314.08,0-584.7-237.73-618.71-556.73
									c-17.76-165.54,30.24-327.69,134.55-457.32c104.32-129.26,253.23-210.52,418.4-227.91c22.3-2.27,44.59-3.4,66.52-3.4
									c314.08,0,584.7,237.73,618.71,556.73c36.28,341.29-211.65,648.95-553.33,685.23
									C8097.29-10776.04,8075.37-10774.9,8053.44-10774.9 M8054.2-12035.76c-22.68,0-45.35,1.13-68.03,3.78
									c-169.32,18.14-321.64,100.92-428.6,233.58c-106.96,132.66-156.1,298.96-137.95,468.29l7.56-0.76l-7.56,0.76
									c37.42,349.61,352.25,603.97,701.86,566.55c349.61-37.42,603.97-352.25,566.55-701.86
									C8653.25-11792.36,8375.84-12035.76,8054.2-12035.76"/>
							</g>
							<g id="g564258" transform="translate(481.87299,335.11222)">
								<path id="path564256" sodipodi:nodetypes="ccscsccccc" class="st30" d="M7944.41-11693.97h-0.76
									c-349.61,37.41-603.97,352.25-566.55,701.86c37.42,349.61,352.25,603.97,701.86,566.55c4.16-0.38,7.18-4.16,6.8-8.31
									c-0.38-4.16-4.16-7.18-8.32-6.8c-341.29,36.28-648.95-211.65-685.23-553.32c-36.28-341.3,211.65-648.95,553.33-685.24
									c4.16-0.37,7.18-4.15,6.8-8.31C7951.59-11691.33,7948.19-11693.97,7944.41-11693.97"/>
							</g>
							<g id="g564262" transform="translate(430.7998,402.2666)">
								<path id="path564260" class="st30" d="M7802.45-11507.31c-23.43,18.52-44.6,40.44-63.5,63.87l-13.61,18.14
									c-2.27,3.02-4.16,6.05-6.43,9.45l-6.05,9.45c-1.89,3.02-4.16,6.42-6.05,9.45l-5.67,9.83l-5.67,9.83l-2.65,4.91l-2.65,4.91
									c-27.59,53.67-45.73,112.25-52.91,171.97c-14.74,119.81,14.36,244.91,82.02,345.07c33.64,50.27,76.35,94.11,125.48,129.64
									c48.76,35.53,104.32,61.61,162.52,77.86c29.1,7.94,58.96,13.61,88.82,16.25c29.86,2.65,60.47,2.65,90.33,0
									c30.24-2.27,59.71-7.94,88.82-15.5c14.36-4.16,28.72-8.69,42.71-14.36c13.99-5.67,27.59-12.09,40.45-20.03
									c1.89-1.13,2.26-3.4,1.13-5.29c-0.76-1.51-3.02-2.27-4.54-1.51c-13.98,4.91-27.97,9.83-41.95,14.36
									c-13.99,4.54-27.97,8.69-41.96,12.47c-28.35,7.56-57.07,12.47-86.55,14.74c-29.11,2.27-58.58,2.65-87.69-0.38
									c-29.1-2.65-57.83-8.32-86.17-16.25c-56.31-15.87-109.61-41.58-156.85-75.97c-47.24-34.39-88.44-77.1-120.95-125.48
									c-65.76-96.76-94.11-217.32-80.5-333.35c6.8-58.21,24.19-114.9,50.65-166.68c13.61-26.08,29.1-50.64,46.49-74.08
									c17.76-23.43,36.66-45.73,56.32-67.65c1.51-1.51,1.13-3.78-0.38-5.29C7806.23-11508.45,7803.96-11508.45,7802.45-11507.31"
									/>
							</g>
							<g id="g564266" transform="translate(621.2998,412.167)">
								<path id="path564264" class="st30" d="M8331.95-11479.8c-18.9-24.57-41.19-46.49-65.39-66.14l-18.52-13.98
									c-6.42-4.54-12.85-8.69-19.28-13.23c-6.43-4.54-13.23-8.32-20.03-12.09c-6.8-3.78-13.23-7.94-20.41-11.34
									c-27.59-14.74-56.69-26.46-86.17-35.53l-11.34-3.4c-3.78-1.13-7.56-2.27-11.34-3.02l-22.68-5.29
									c-7.56-1.51-15.49-2.65-23.05-4.16c-3.78-0.76-7.56-1.51-11.72-1.89l-11.72-1.51c-15.5-2.27-30.99-2.27-46.87-3.02
									c-7.94,0-15.5,0-23.43,0.37c-3.78,0-7.94,0-11.72,0.38l-11.71,0.76c-15.5,1.13-31,2.64-46.49,5.29
									c-15.5,2.65-30.61,5.67-45.73,9.83c-15.12,3.78-29.86,8.69-44.6,13.98c-14.74,5.29-29.1,11.34-43.09,18.15
									c-27.97,13.61-54.8,30.24-78.24,50.65c-1.51,1.51-1.89,3.78-0.38,5.29c1.13,1.51,3.02,1.89,4.91,0.76
									c13.23-7.56,26.46-15.12,39.69-22.3c13.61-6.8,26.83-13.98,40.82-20.03c27.59-12.47,55.94-22.68,85.04-30.24
									c14.74-3.78,29.48-6.8,44.22-9.07c14.74-2.65,29.86-4.16,44.98-4.91l11.34-0.76c3.78-0.38,7.56,0,11.34-0.38
									c7.56,0,15.12-0.38,22.68-0.38c15.12,0.76,30.24,1.14,44.98,3.03l11.34,1.13c3.78,0.38,7.56,1.13,11.34,1.89
									c7.56,1.13,14.74,2.27,22.3,3.78l21.92,4.91c3.78,0.76,7.18,1.89,10.96,3.02l10.96,3.02c28.72,8.7,57.07,19.66,83.91,33.64
									c26.84,13.98,52.54,29.86,76.35,48.38c23.81,18.52,46.87,38.55,68.79,59.34c1.51,1.51,3.78,1.51,5.29,0
									C8333.09-11476.4,8333.09-11478.29,8331.95-11479.8"/>
							</g>
							<g id="g564270" transform="translate(631.9004,576.0669)">
								<path id="path564268" class="st30" d="M8361.42-11024.23c28.35-37.04,50.27-78.99,65.39-123.59
									c3.78-10.96,7.18-22.3,10.21-33.64c2.64-11.34,5.67-22.68,7.94-34.39c4.15-23.06,7.56-46.49,8.32-69.92
									c2.26-46.87-2.65-94.11-13.61-139.84c-10.96-45.73-29.1-89.58-54.42-128.88c-1.13-1.89-3.41-2.27-5.29-1.13
									c-1.51,1.13-2.26,3.02-1.51,4.91c19.28,41.57,34.77,84.66,44.97,128.88c4.91,22.3,8.69,44.6,10.58,67.28
									c2.27,22.68,2.65,45.35,1.89,68.03c-0.75,22.68-3.4,45.35-7.18,67.65c-1.89,11.34-4.54,22.3-6.8,33.26
									c-3.03,10.96-5.67,21.92-9.45,32.88c-13.61,43.46-33.64,84.66-56.69,123.97c-1.14,1.89-0.38,4.16,1.51,5.29
									C8358.01-11021.96,8360.28-11022.72,8361.42-11024.23"/>
							</g>
							<g id="g564274" transform="translate(607.4004,603.2666)">
								<path id="path564272" class="st30" d="M8293.32-10948.63c5.67-2.65,10.96-6.43,15.87-9.83c4.92-3.78,9.83-7.94,13.98-12.09
									c4.54-4.16,8.69-8.69,12.47-13.61c3.78-4.91,7.56-9.83,10.21-15.5c1.13-1.89,0.38-4.16-1.89-5.29
									c-1.13-0.76-2.65-0.38-3.78,0.38c-5.29,3.4-9.82,7.18-14.36,11.34c-4.54,4.16-9.08,7.94-13.23,12.09
									c-4.16,4.16-8.32,8.69-12.47,12.85c-4.16,4.54-7.94,9.07-11.72,13.98c-1.13,1.89-0.75,4.16,0.76,5.29
									C8290.29-10947.87,8291.81-10947.87,8293.32-10948.63"/>
							</g>
							<g id="g564278" transform="translate(538.9004,664.7666)">
								<path id="path564276" sodipodi:nodetypes="cccscccc" class="st30" d="M8102.92-10777.68h-0.76l-152.43,12.81
									c-4.15,0.38-7.18,4.16-6.8,8.31s4.16,7.18,8.31,6.8l160.32-12.45c4.16-0.38-0.71-4.52-1.09-8.67
									C8109.72-10774.66,8106.7-10777.68,8102.92-10777.68"/>
							</g>
							<g id="g564282" transform="translate(503.5,333.167)">
								<path id="path564280" class="st30" d="M8004.52-11699.38h-0.76l-160.25,17.01c-4.16,0.38-7.18,4.16-6.8,8.32
									s4.16,7.18,8.31,6.8l160.25-17.01c4.16-0.38,7.18-4.16,6.8-8.31C8011.7-11696.73,8008.3-11699.38,8004.52-11699.38"/>
							</g>
							<g id="g564286" transform="translate(392.8999,606.167)">
								<path id="path564284" sodipodi:nodetypes="cccccscc" class="st30" d="M7697.1-10940.56l-85.21,10.24
									c-1.89,0.38-3.4,2.27-3.4,4.16c0.38,1.89,1.89,3.4,4.16,3.4l85.97-3.06c4.16-0.38,7.18-3.78,6.8-7.94
									c-0.38-4.16-3.78-7.18-7.94-6.8H7697.1z"/>
							</g>
							<g id="g564290" transform="translate(444.1001,647.3667)">
								<path id="path564288" sodipodi:nodetypes="ccsccssc" class="st30" d="M7839.42-10826.05l-80.33,11.18
									c-1.89,0.38-3.4,2.27-3.02,4.16c0.38,1.89,1.89,3.4,4.16,3.4l81.09-3.62c4.16-0.38,7.18-3.78,7.18-7.94
									c0-4.16-3.78-7.18-7.94-7.18H7839.42z"/>
							</g>
							<g id="g564294" transform="translate(568.7002,499.9668)">
								<path id="path564292" class="st31" d="M8185.75-11235.75l-63.5,149.29l10.58,123.97l78.61,13.61l-24.95-282.71
									L8185.75-11235.75z"/>
							</g>
							<g id="g564298" transform="translate(551.9004,539.4668)">
								<path id="path564296" class="st29" d="M8139.05-11125.96l63.5-149.29l0.76,4.16l24.94,282.71l62.74,10.58l78.62,13.23
									l-64.25-582.05l-78.24-13.23l-43.85-7.56l-112.25,263.43l-15.87-159.5l-12.85-127.75l-78.61-13.23l-43.46-7.18
									l-235.09,531.03l64.25,10.96l78.24,13.23l49.89-117.17l60.47-144l3.02-7.56l26.46,292.54l44.22,7.56l78.61,13.23
									L8139.05-11125.96z"/>
							</g>
							<g id="g564302" transform="translate(533.9004,492.3672)">
								<path id="path564300" class="st31" d="M8089.02-11256.88l112.25-263.43l-78.23-13.23l-49.89,117.17L8089.02-11256.88z"/>
							</g>
							<g id="g564306" transform="translate(485.7002,560.667)">
								<path id="path564304" class="st31" d="M7955.05-11067.03l78.61,13.23l-26.46-292.54l-3.02,7.56l-60.47,144L7955.05-11067.03
									z"/>
							</g>
							<g id="g564310" transform="translate(431.7998,551.4668)">
								<path id="path564308" class="st31" d="M7805.23-11092.61l235.09-531.03l-78.61-13.23l-235.09,531.03L7805.23-11092.61z"/>
							</g>
							<g id="g564314" transform="translate(592.0996,578.667)">
								<path id="path564312" class="st32" d="M8250.79-11017l78.62,13.23l-64.25-582.05l-78.24-13.23"/>
							</g>
							<g id="g564318" transform="translate(518.2002,566.167)">
								<path id="path564316" class="st32" d="M8045.38-11051.75l78.61,13.23l48.76-114.14l63.5-149.29l0.76,4.16l24.95,282.71"/>
							</g>
							<g id="g564322" transform="translate(482.7002,526.8667)">
								<path id="path564320" class="st32" d="M7946.71-11160.98l60.47-144l3.02-7.56l26.46,292.54"/>
							</g>
							<g id="g564326" transform="translate(448.7998,554.3667)">
								<path id="path564324" class="st32" d="M7852.48-11084.55l78.24,13.23l49.89-117.17"/>
							</g>
							<g id="g564330" transform="translate(494,410.9668)">
								<path id="path564328" class="st32" d="M7978.12-11483.13l-235.09,531.03"/>
							</g>
							<g id="g564334" transform="translate(529.7002,450.167)">
								<path id="path564332" class="st32" d="M8077.35-11374.17l-12.85-127.75l-78.61-13.23"/>
							</g>
							<g id="g564338" transform="translate(563.5996,422.667)">
								<path id="path564336" class="st32" d="M8171.57-11450.61l-112.25,263.43l-15.87-159.5"/>
							</g>
							<g id="g564342" transform="translate(482.7002,526.8667)">
								<path id="path564340" class="st32" d="M7946.71-11160.98L7946.71-11160.98l11.34,127.75l78.61,13.23l44.22,7.56"/>
							</g>
							<g id="g564346" transform="translate(448.7998,554.3667)">
								<path id="path564344" class="st32" d="M7852.48-11084.55l-64.25-10.96l-78.61-13.23l235.09-531.03l78.61,13.23l43.46,7.18"
									/>
							</g>
							<g id="g564350" transform="translate(575.2002,424.667)">
								<path id="path564348" class="st32" d="M8203.82-11445.05l-43.85-7.56l-78.23-13.23l-49.89,117.17"/>
							</g>
							<g id="g564354" transform="translate(551.9004,539.4668)">
								<path id="path564352" class="st32" d="M8139.05-11125.96l10.58,123.97l78.61,13.61l62.74,10.58"/>
							</g>
						</g>
					</g>
					<path id="path564358" sodipodi:nodetypes="ccsscc" class="st33" d="M-275.44,744.69c0.81,1.63,7.43,0.02,8.88-0.66
						c-0.72-1.48-0.61-7.56-2.3-12.22c-1.59-4.4-6.54-3.16-7.25-0.76C-276.99,734.04-275.66,744.85-275.44,744.69L-275.44,744.69z"
						/>
					<path id="path564360" sodipodi:nodetypes="ccsscc" class="st31" d="M-273.78,729.95l2.01,14.78c-0.88,0.42-3.17,0.13-3.34-0.31
						c-0.78-2.05-1.1-9.88-0.84-12.61c0.19-1.94,1.98-2.24,1.98-2.24L-273.78,729.95z"/>
					
						<g id="g564366" transform="rotate(-21.693265,-677.66413,190.60318)" inkscape:transform-center-x="-3.8133897" inkscape:transform-center-y="-3.8052311">
						
							<linearGradient id="path564362_1_" gradientUnits="userSpaceOnUse" x1="-1405.1823" y1="405.6745" x2="-1403.1769" y2="403.8494" gradientTransform="matrix(3.5118 1.3971 1.3971 -3.5118 3877.3613 4224.3574)">
							<stop  offset="0" style="stop-color:#FFD31A"/>
							<stop  offset="1" style="stop-color:#FFE98F"/>
						</linearGradient>
						<path id="path564362" sodipodi:nodetypes="cscsccccscsccc" class="st34" d="M-490.9,834.55c0.19-0.1,0.39-0.19,0.59-0.29
							c4.92-2.31,9.87-2.14,11.05,0.38c1.18,2.52-1.85,6.43-6.77,8.74c-4.92,2.31-9.87,2.14-11.05-0.38
							c-1.02-1.41,0.5-3.59,1.07-4.28c-0.95,0.05-2.98,0.28-5.37,1.55c-0.98,1.84-1.26,3.53-0.57,5.01
							c1.83,3.9,9.48,4.16,17.09,0.59c7.61-3.57,12.3-9.62,10.47-13.52c-1.83-3.9-9.07-3.1-17.09-0.59
							c-2.74,0.85-11.93,7.25-10.38,8.62c1.22-0.19,3.48-2.12,5.65-2L-490.9,834.55z"/>
						
							<linearGradient id="path564364_1_" gradientUnits="userSpaceOnUse" x1="-1405.1813" y1="405.6771" x2="-1403.1759" y2="403.8521" gradientTransform="matrix(3.5118 1.3971 1.3971 -3.5118 3888.4221 4218.8174)">
							<stop  offset="0" style="stop-color:#FFD31A"/>
							<stop  offset="1" style="stop-color:#FFE98F"/>
						</linearGradient>
						<path id="path564364" sodipodi:nodetypes="cscsccccscscc" class="st35" d="M-479.84,829.01c0.19-0.1,0.39-0.19,0.59-0.29
							c4.92-2.31,9.87-2.14,11.05,0.38c1.18,2.52-1.85,6.43-6.77,8.74c-4.92,2.31-9.87,2.14-11.05-0.38
							c-1.02-1.41,0.5-3.59,1.07-4.28c-0.95,0.05-2.98,0.28-5.37,1.55c-0.98,1.84-1.26,3.53-0.57,5.01
							c1.83,3.9,9.48,4.16,17.09,0.59c7.61-3.57,12.3-9.62,10.47-13.52c-1.83-3.9-9.48-4.16-17.09-0.59
							c-2.15,1.01-4.8,2.59-5.66,3.34C-484.87,829.38-482.02,828.9-479.84,829.01L-479.84,829.01z"/>
					</g>
					
						<g id="g564372" transform="rotate(-21.693265,-688.79859,175.69618)" inkscape:transform-center-x="-8.628665" inkscape:transform-center-y="-8.9767184">
						
							<linearGradient id="path564368_1_" gradientUnits="userSpaceOnUse" x1="-1411.4801" y1="408.737" x2="-1409.4747" y2="406.912" gradientTransform="matrix(3.5118 1.3971 1.3971 -3.5118 3912.7144 4235.3979)">
							<stop  offset="0" style="stop-color:#FFD31A"/>
							<stop  offset="1" style="stop-color:#FFE98F"/>
						</linearGradient>
						<path id="path564368" sodipodi:nodetypes="cscsccccscscc" class="st36" d="M-473.39,826.05c0.19-0.1,0.39-0.19,0.59-0.29
							c4.92-2.31,9.87-2.14,11.05,0.38c1.18,2.52-1.85,6.43-6.77,8.74c-4.92,2.31-9.87,2.14-11.05-0.38
							c-1.02-1.41,0.5-3.59,1.07-4.28c-0.95,0.05-2.98,0.28-5.37,1.55c-0.98,1.84-1.26,3.53-0.57,5.01
							c1.83,3.9,9.48,4.16,17.09,0.59c7.61-3.57,12.3-9.62,10.47-13.52c-1.83-3.9-9.48-4.16-17.09-0.59
							c-2.15,1.01-4.8,2.59-5.66,3.34C-478.42,826.42-475.57,825.93-473.39,826.05L-473.39,826.05z"/>
						
							<linearGradient id="path564370_1_" gradientUnits="userSpaceOnUse" x1="-1411.4801" y1="408.737" x2="-1409.4747" y2="406.912" gradientTransform="matrix(3.5118 1.3971 1.3971 -3.5118 3923.7751 4229.8579)">
							<stop  offset="0" style="stop-color:#FFD31A"/>
							<stop  offset="1" style="stop-color:#FFE98F"/>
						</linearGradient>
						<path id="path564370" sodipodi:nodetypes="cscsccccscscc" class="st37" d="M-462.33,820.51c0.19-0.1,0.39-0.19,0.59-0.29
							c4.92-2.31,9.87-2.14,11.05,0.38c1.18,2.52-1.85,6.43-6.77,8.74c-4.92,2.31-9.87,2.14-11.05-0.38
							c-1.02-1.41,0.5-3.59,1.07-4.28c-0.95,0.05-2.98,0.28-5.37,1.55c-0.98,1.84-1.26,3.53-0.57,5.01
							c1.83,3.9,9.48,4.16,17.09,0.59c7.61-3.57,12.3-9.62,10.47-13.52c-1.83-3.9-9.48-4.16-17.09-0.59
							c-2.15,1.01-4.8,2.59-5.66,3.34C-467.36,820.88-464.51,820.39-462.33,820.51L-462.33,820.51z"/>
					</g>
					
						<g id="g564382" transform="rotate(-21.693265,-699.76973,161.03832)" inkscape:transform-center-x="-16.059874" inkscape:transform-center-y="-24.215302">
						
							<linearGradient id="path564374_1_" gradientUnits="userSpaceOnUse" x1="-1413.8844" y1="415.3482" x2="-1411.879" y2="413.5232" gradientTransform="matrix(3.5813 1.208 1.208 -3.5813 4105.4385 4014.999)">
							<stop  offset="0" style="stop-color:#FFD31A"/>
							<stop  offset="1" style="stop-color:#FFE98F"/>
						</linearGradient>
						<path id="path564374" sodipodi:nodetypes="cscsccccscscc" class="st38" d="M-456.67,817.53c0.19-0.11,0.38-0.21,0.57-0.32
							c4.79-2.57,9.74-2.66,11.06-0.21c1.31,2.45-1.51,6.52-6.3,9.09c-4.79,2.57-9.74,2.66-11.06,0.21
							c-1.09-1.36,0.31-3.61,0.84-4.33c-0.94,0.1-2.96,0.44-5.28,1.84c-0.88,1.89-1.07,3.6-0.3,5.03c2.03,3.79,9.69,3.65,17.1-0.32
							c7.41-3.97,11.77-10.26,9.74-14.06s-9.69-3.65-17.1,0.32c-2.09,1.12-4.66,2.85-5.48,3.64
							C-461.67,818.17-458.85,817.54-456.67,817.53L-456.67,817.53z"/>
						
							<linearGradient id="path564376_1_" gradientUnits="userSpaceOnUse" x1="-1408.5447" y1="419.8147" x2="-1406.5393" y2="417.9897" gradientTransform="matrix(3.658 0.9508 0.9508 -3.658 4307.3594 3687.9517)">
							<stop  offset="0" style="stop-color:#FFD31A"/>
							<stop  offset="1" style="stop-color:#FFE98F"/>
						</linearGradient>
						<path id="path564376" sodipodi:nodetypes="cscsccccscscc" class="st39" d="M-446.37,811.04c0.18-0.12,0.36-0.24,0.55-0.36
							c4.6-2.9,9.53-3.35,11.01-0.99c1.48,2.35-1.04,6.61-5.64,9.51c-4.6,2.9-9.53,3.35-11.01,0.99c-1.18-1.27,0.05-3.62,0.53-4.38
							c-0.93,0.17-2.92,0.65-5.14,2.21c-0.75,1.95-0.81,3.66,0.06,5.04c2.3,3.64,9.92,2.95,17.03-1.53
							c7.11-4.49,11.01-11.07,8.72-14.71c-2.3-3.64-9.92-2.95-17.03,1.53c-2.01,1.27-4.44,3.17-5.21,4.02
							C-451.32,812.03-448.55,811.2-446.37,811.04L-446.37,811.04z"/>
						
							<linearGradient id="path564378_1_" gradientUnits="userSpaceOnUse" x1="-1402.7844" y1="423.9694" x2="-1400.7791" y2="422.1443" gradientTransform="matrix(3.7172 0.6835 0.6835 -3.7172 4489.5 3339.9646)">
							<stop  offset="0" style="stop-color:#FFD31A"/>
							<stop  offset="1" style="stop-color:#FFE98F"/>
						</linearGradient>
						<path id="path564378" sodipodi:nodetypes="cscsccccscscc" class="st40" d="M-435.79,803.26c0.17-0.13,0.34-0.27,0.52-0.4
							c4.38-3.23,9.26-4.03,10.91-1.79c1.65,2.24-0.56,6.67-4.93,9.9s-9.26,4.03-10.91,1.79c-1.27-1.19-0.21-3.61,0.21-4.41
							c-0.92,0.24-2.87,0.86-4.96,2.57c-0.6,2-0.54,3.71,0.42,5.02c2.55,3.46,10.11,2.23,16.87-2.76
							c6.77-4.99,10.18-11.84,7.63-15.3c-2.55-3.46-10.11-2.23-16.88,2.76c-1.91,1.41-4.2,3.48-4.9,4.38
							C-440.65,804.6-437.95,803.57-435.79,803.26L-435.79,803.26z"/>
						
							<linearGradient id="path564380_1_" gradientUnits="userSpaceOnUse" x1="-1351.5217" y1="444.1383" x2="-1349.5164" y2="442.3133" gradientTransform="matrix(3.2787 0.0823 -1.3393 -3.3431 4597.165 2391.7317)">
							<stop  offset="0" style="stop-color:#FFD31A"/>
							<stop  offset="1" style="stop-color:#FFE98F"/>
						</linearGradient>
						<path id="path564380" sodipodi:nodetypes="cccccsccccscc" class="st41" d="M-434.19,797.95c0.7-0.53,1.82-1.03,3.36-1.6
							l0.14-2.41 M-427.73,790.62c1.67-1.08,3.8-1.1,5.31-0.03c2.43,1.73,2.93,5.91,1.11,9.33c-1.82,3.43-4.69,4.93-7.13,3.2
							c-1.6-0.86-1.66-1.61-1.73-2.36c-0.61,0.33-2.49,0.09-3.28,1.87c0.53,1.83,1.2,2.74,2.63,3.75c3.77,2.67,9.1,0.54,11.92-4.75
							c2.82-5.3,2.05-11.76-1.72-14.43c-1.31-0.93-3.06-1.24-4.58-1.07"/>
					</g>
					<g id="g564388" transform="matrix(-0.9921069,0.12539494,0.12539494,0.9921069,-1380.753,84.433272)">
						
							<linearGradient id="path564384_1_" gradientUnits="userSpaceOnUse" x1="-133.3269" y1="583.6865" x2="-131.3215" y2="581.8615" gradientTransform="matrix(-3.7497 -0.4739 0.4739 -3.7497 -1758.8887 2889.1604)">
							<stop  offset="0" style="stop-color:#FFD31A"/>
							<stop  offset="1" style="stop-color:#FFE98F"/>
						</linearGradient>
						<path id="path564384" sodipodi:nodetypes="cscsccccscscc" class="st42" d="M-982.56,761.69c0.19-0.1,0.39-0.19,0.59-0.29
							c4.92-2.31,9.87-2.14,11.05,0.38c1.18,2.52-1.85,6.43-6.77,8.74c-4.92,2.31-9.87,2.14-11.05-0.38
							c-1.02-1.41,0.5-3.59,1.07-4.28c-0.95,0.05-2.98,0.28-5.37,1.55c-0.98,1.84-1.26,3.53-0.57,5.01
							c1.83,3.9,9.48,4.16,17.09,0.59c7.61-3.57,12.3-9.62,10.47-13.52c-1.83-3.9-9.48-4.16-17.09-0.59
							c-2.15,1.01-4.8,2.59-5.66,3.34C-987.59,762.06-984.74,761.58-982.56,761.69L-982.56,761.69z"/>
						
							<linearGradient id="path564386_1_" gradientUnits="userSpaceOnUse" x1="-133.3269" y1="583.6865" x2="-131.3215" y2="581.8615" gradientTransform="matrix(-3.7497 -0.4739 0.4739 -3.7497 -1747.8279 2883.6204)">
							<stop  offset="0" style="stop-color:#FFD31A"/>
							<stop  offset="1" style="stop-color:#FFE98F"/>
						</linearGradient>
						<path id="path564386" sodipodi:nodetypes="cscsccccscscc" class="st43" d="M-971.5,756.15c0.19-0.1,0.39-0.19,0.59-0.29
							c4.92-2.31,9.87-2.14,11.05,0.38c1.18,2.52-1.85,6.43-6.77,8.74s-9.87,2.14-11.05-0.38c-1.02-1.41,0.5-3.59,1.07-4.28
							c-0.95,0.05-2.98,0.28-5.37,1.55c-0.98,1.84-1.26,3.53-0.57,5.01c1.83,3.9,9.48,4.16,17.09,0.59
							c7.61-3.57,12.3-9.62,10.47-13.52c-1.83-3.9-9.48-4.16-17.09-0.59c-2.15,1.01-4.8,2.59-5.66,3.34
							C-976.53,756.52-973.68,756.04-971.5,756.15L-971.5,756.15z"/>
					</g>
					<g id="g564394" transform="matrix(-0.9921069,0.12539494,0.12539494,0.9921069,-1387.3857,82.187307)">
						
							<linearGradient id="path564390_1_" gradientUnits="userSpaceOnUse" x1="-139.6256" y1="586.7465" x2="-137.6202" y2="584.9214" gradientTransform="matrix(-3.7497 -0.4739 0.4739 -3.7497 -1766.4497 2889.144)">
							<stop  offset="0" style="stop-color:#FFD31A"/>
							<stop  offset="1" style="stop-color:#FFE98F"/>
						</linearGradient>
						<path id="path564390" sodipodi:nodetypes="cscsccccscscc" class="st44" d="M-965.05,753.19c0.19-0.1,0.39-0.19,0.59-0.29
							c4.92-2.31,9.87-2.14,11.05,0.38c1.18,2.52-1.85,6.43-6.77,8.74c-4.92,2.31-9.87,2.14-11.05-0.38
							c-1.02-1.41,0.5-3.59,1.07-4.28c-0.95,0.05-2.98,0.28-5.37,1.55c-0.98,1.84-1.26,3.53-0.57,5.01
							c1.83,3.9,9.48,4.16,17.09,0.59c7.61-3.57,12.3-9.62,10.47-13.52c-1.83-3.9-9.48-4.16-17.09-0.59
							c-2.15,1.01-4.8,2.59-5.66,3.34C-970.08,753.56-967.23,753.07-965.05,753.19L-965.05,753.19z"/>
						
							<linearGradient id="path564392_1_" gradientUnits="userSpaceOnUse" x1="-139.6256" y1="586.7465" x2="-137.6202" y2="584.9214" gradientTransform="matrix(-3.7497 -0.4739 0.4739 -3.7497 -1755.3889 2883.6038)">
							<stop  offset="0" style="stop-color:#FFD31A"/>
							<stop  offset="1" style="stop-color:#FFE98F"/>
						</linearGradient>
						<path id="path564392" sodipodi:nodetypes="cscsccccscscc" class="st45" d="M-953.99,747.65c0.19-0.1,0.39-0.19,0.59-0.29
							c4.92-2.31,9.87-2.14,11.05,0.38c1.18,2.52-1.85,6.43-6.77,8.74c-4.92,2.31-9.87,2.14-11.05-0.38
							c-1.02-1.41,0.5-3.59,1.07-4.28c-0.95,0.05-2.98,0.28-5.37,1.55c-0.98,1.84-1.26,3.53-0.57,5.01
							c1.83,3.9,9.48,4.16,17.09,0.59c7.61-3.57,12.3-9.62,10.47-13.52c-1.83-3.9-9.48-4.16-17.09-0.59
							c-2.15,1.01-4.8,2.59-5.66,3.34C-959.02,748.02-956.17,747.53-953.99,747.65L-953.99,747.65z"/>
					</g>
					<g id="g564414" transform="matrix(-0.9921069,0.12539494,0.12539494,0.9921069,-1393.9104,79.970751)">
						
							<linearGradient id="path564396_1_" gradientUnits="userSpaceOnUse" x1="-150.2449" y1="586.9863" x2="-148.2396" y2="585.1613" gradientTransform="matrix(-3.7696 -0.2735 0.2735 -3.7696 -1674.9092 2918.2847)">
							<stop  offset="0" style="stop-color:#FFD31A"/>
							<stop  offset="1" style="stop-color:#FFE98F"/>
						</linearGradient>
						<path id="path564396" sodipodi:nodetypes="cscsccccscscc" class="st46" d="M-948.33,744.67c0.19-0.11,0.38-0.21,0.57-0.32
							c4.79-2.57,9.74-2.66,11.06-0.21c1.31,2.45-1.51,6.52-6.3,9.09c-4.79,2.57-9.74,2.66-11.06,0.21
							c-1.09-1.36,0.31-3.61,0.84-4.33c-0.94,0.1-2.96,0.44-5.28,1.84c-0.88,1.89-1.07,3.6-0.3,5.03c2.03,3.79,9.69,3.65,17.1-0.32
							c7.41-3.97,11.77-10.26,9.74-14.06c-2.03-3.79-9.69-3.65-17.1,0.32c-2.09,1.12-4.66,2.85-5.48,3.64
							C-953.33,745.31-950.51,744.68-948.33,744.67L-948.33,744.67z"/>
						
							<linearGradient id="path564398_1_" gradientUnits="userSpaceOnUse" x1="-155.8996" y1="582.926" x2="-153.8942" y2="581.1009" gradientTransform="matrix(-3.7795 -5.330482e-03 5.330482e-03 -3.7795 -1529.8833 2942.4944)">
							<stop  offset="0" style="stop-color:#FFD31A"/>
							<stop  offset="1" style="stop-color:#FFE98F"/>
						</linearGradient>
						<path id="path564398" sodipodi:nodetypes="cscsccccscscc" class="st47" d="M-938.03,738.18c0.18-0.12,0.36-0.24,0.55-0.36
							c4.6-2.9,9.53-3.35,11.01-0.99c1.48,2.35-1.04,6.61-5.64,9.51c-4.6,2.9-9.53,3.35-11.01,0.99c-1.18-1.27,0.05-3.62,0.53-4.38
							c-0.93,0.17-2.92,0.65-5.14,2.21c-0.75,1.95-0.81,3.66,0.06,5.04c2.3,3.64,9.92,2.95,17.03-1.53
							c7.11-4.49,11.01-11.07,8.72-14.71c-2.3-3.64-9.92-2.95-17.03,1.53c-2.01,1.27-4.44,3.17-5.21,4.02
							C-942.98,739.17-940.21,738.33-938.03,738.18L-938.03,738.18z"/>
						
							<linearGradient id="path564400_1_" gradientUnits="userSpaceOnUse" x1="-161.3568" y1="578.3806" x2="-159.3514" y2="576.5555" gradientTransform="matrix(-3.77 0.2683 -0.2683 -3.77 -1379.9515 2956.1055)">
							<stop  offset="0" style="stop-color:#FFD31A"/>
							<stop  offset="1" style="stop-color:#FFE98F"/>
						</linearGradient>
						<path id="path564400" sodipodi:nodetypes="cscsccccscscc" class="st48" d="M-927.45,730.4c0.17-0.13,0.34-0.27,0.52-0.4
							c4.38-3.23,9.26-4.03,10.91-1.79c1.65,2.24-0.56,6.67-4.93,9.9c-4.38,3.23-9.26,4.03-10.91,1.79
							c-1.27-1.19-0.21-3.61,0.21-4.41c-0.92,0.24-2.87,0.86-4.96,2.57c-0.6,2-0.54,3.71,0.42,5.02c2.55,3.46,10.11,2.23,16.87-2.76
							c6.77-4.99,10.18-11.84,7.63-15.3c-2.55-3.46-10.11-2.23-16.88,2.76c-1.91,1.41-4.2,3.48-4.9,4.38
							C-932.31,731.74-929.61,730.71-927.45,730.4L-927.45,730.4z"/>
						
							<linearGradient id="path564402_1_" gradientUnits="userSpaceOnUse" x1="-161.3567" y1="578.3806" x2="-159.3514" y2="576.5555" gradientTransform="matrix(-3.77 0.2683 -0.2683 -3.77 -1368.7518 2947.9595)">
							<stop  offset="0" style="stop-color:#FFD31A"/>
							<stop  offset="1" style="stop-color:#FFE98F"/>
						</linearGradient>
						<path id="path564402" sodipodi:nodetypes="cscsccccscscc" class="st49" d="M-916.25,722.25c0.17-0.13,0.34-0.27,0.52-0.4
							c4.38-3.23,9.26-4.03,10.91-1.79c1.65,2.24-0.56,6.67-4.93,9.9s-9.26,4.03-10.91,1.79c-1.27-1.19-0.21-3.61,0.21-4.41
							c-0.92,0.24-2.87,0.86-4.96,2.57c-0.6,2-0.54,3.71,0.42,5.02c2.55,3.46,10.11,2.23,16.87-2.76
							c6.77-4.99,10.18-11.84,7.63-15.3c-2.55-3.46-10.11-2.23-16.88,2.76c-1.91,1.41-4.2,3.48-4.9,4.38
							C-921.11,723.6-918.41,722.56-916.25,722.25L-916.25,722.25z"/>
						
							<linearGradient id="path564404_1_" gradientUnits="userSpaceOnUse" x1="-170.9497" y1="568.4819" x2="-168.9443" y2="566.6569" gradientTransform="matrix(-3.6951 0.7944 -0.7944 -3.6951 -1086.7637 2952.3064)">
							<stop  offset="0" style="stop-color:#FFD31A"/>
							<stop  offset="1" style="stop-color:#FFE98F"/>
						</linearGradient>
						<path id="path564404" sodipodi:nodetypes="cscsccccscscc" class="st50" d="M-907.6,714.09c0.15-0.16,0.3-0.31,0.46-0.46
							c3.88-3.81,8.61-5.29,10.56-3.3c1.95,1.99,0.38,6.68-3.5,10.49c-3.88,3.81-8.61,5.29-10.55,3.3c-1.43-1-0.71-3.55-0.41-4.39
							c-0.88,0.36-2.72,1.25-4.55,3.24c-0.32,2.07-0.02,3.75,1.12,4.92c3.01,3.07,10.32,0.79,16.32-5.1
							c6-5.89,8.42-13.15,5.41-16.22c-3.01-3.07-10.32-0.79-16.32,5.1c-1.69,1.66-3.67,4.04-4.24,5.03
							C-912.23,716.1-909.7,714.7-907.6,714.09L-907.6,714.09z"/>
						
							<linearGradient id="path564406_1_" gradientUnits="userSpaceOnUse" x1="-176.092" y1="561.8058" x2="-174.0866" y2="559.9808" gradientTransform="matrix(-3.6132 1.1088 -1.1088 -3.6132 -912.3373 2931.5964)">
							<stop  offset="0" style="stop-color:#FFD31A"/>
							<stop  offset="1" style="stop-color:#FFE98F"/>
						</linearGradient>
						<path id="path564406" sodipodi:nodetypes="cscsccccscscc" class="st51" d="M-900.07,704.68c0.13-0.17,0.27-0.34,0.42-0.5
							c3.54-4.13,8.12-6.01,10.23-4.2c2.11,1.81,0.95,6.63-2.58,10.75c-3.54,4.13-8.12,6.01-10.23,4.2
							c-1.51-0.87-1.01-3.48-0.79-4.34c-0.84,0.44-2.6,1.48-4.26,3.62c-0.14,2.08,0.3,3.74,1.54,4.8c3.27,2.8,10.35-0.1,15.82-6.48
							c5.47-6.38,7.26-13.83,3.99-16.63c-3.27-2.8-10.35,0.1-15.82,6.49c-1.54,1.8-3.31,4.34-3.79,5.37
							C-904.51,707.08-902.1,705.47-900.07,704.68L-900.07,704.68z"/>
						
							<linearGradient id="path564408_1_" gradientUnits="userSpaceOnUse" x1="-184.0684" y1="548.2934" x2="-182.063" y2="546.4684" gradientTransform="matrix(-3.39 1.6711 -1.6711 -3.39 -600.0786 2862.3337)">
							<stop  offset="0" style="stop-color:#FFD31A"/>
							<stop  offset="1" style="stop-color:#FFE98F"/>
						</linearGradient>
						<path id="path564408" sodipodi:nodetypes="cscsccccscscc" class="st52" d="M-893.64,694.46c0.11-0.19,0.22-0.37,0.33-0.56
							c2.83-4.64,7.06-7.22,9.43-5.77c2.37,1.45,2,6.39-0.83,11.03c-2.83,4.64-7.06,7.22-9.43,5.77c-1.63-0.62-1.56-3.27-1.47-4.16
							c-0.76,0.57-2.33,1.87-3.62,4.25c0.19,2.08,0.9,3.64,2.29,4.49c3.67,2.24,10.2-1.75,14.58-8.93
							c4.38-7.17,4.96-14.81,1.29-17.05c-3.67-2.24-10.2,1.75-14.58,8.93c-1.24,2.02-2.58,4.81-2.88,5.91
							C-897.63,697.54-895.52,695.57-893.64,694.46L-893.64,694.46z"/>
						
							<linearGradient id="path564410_1_" gradientUnits="userSpaceOnUse" x1="-189.09" y1="535.6113" x2="-187.0846" y2="533.7863" gradientTransform="matrix(-3.1266 2.1235 -2.1235 -3.1266 -340.5574 2760.5959)">
							<stop  offset="0" style="stop-color:#FFD31A"/>
							<stop  offset="1" style="stop-color:#FFE98F"/>
						</linearGradient>
						<path id="path564410" sodipodi:nodetypes="cscsccccscsccc" class="st53" d="M-888.23,682.66c0.08-0.2,0.19-0.39,0.25-0.6
							c1.47-4.88,3.12-7.71,8.54-7.02c2.55,1.11,2.86,6.05,0.7,11.04c-2.17,4.99-5.99,8.13-8.54,7.02c-1.7-0.39-1.99-3.02-2.03-3.92
							c-0.68,0.67-2.05,2.18-3,4.71c0.48,2.03,1.39,3.48,2.89,4.13c3.95,1.71,9.86-3.15,13.21-10.86
							c3.35-7.71,0.72-14.87-3.23-16.58c-7.41,0.77-8.05,2.9-11.06,10.37c-0.89,2.2-1.89,5.12-2.04,6.25
							C-891.77,686.26-889.94,684.01-888.23,682.66L-888.23,682.66z"/>
						
							<linearGradient id="path564412_1_" gradientUnits="userSpaceOnUse" x1="-223.3383" y1="518.2986" x2="-221.3329" y2="516.4735" gradientTransform="matrix(-2.1852 2.0045 -3.9726 -2.8929 680.6236 2617.9065)">
							<stop  offset="0" style="stop-color:#FFD31A"/>
							<stop  offset="1" style="stop-color:#FFE98F"/>
						</linearGradient>
						<path id="path564412" sodipodi:nodetypes="ccccccsccscc" class="st54" d="M-890.35,678.6l-0.05,1.09
							c0.32-0.89,0.08-2.14,1.17-3.42l-3.01-3.21 M-892.23,663.73c0.93-1.67,2.83-1.89,4.78-1.3c3.33,1.01,6.36,5.61,6.76,10.27
							c0.4,4.66-1.98,7.62-5.31,6.61c-0.29,0.51-2.73,3.31,0.4,4.61c5.15,1.56,8.83-3.02,8.21-10.22
							c-0.62-7.21-5.3-14.32-10.45-15.88c-0.87-0.26-1.7-0.35-2.47-0.28"/>
					</g>
					<g id="g564420" transform="matrix(-0.9921069,0.12539494,0.12539494,0.9921069,-1373.9534,86.682875)">
						
							<linearGradient id="path564416_1_" gradientUnits="userSpaceOnUse" x1="-126.8625" y1="580.6014" x2="-124.8571" y2="578.7763" gradientTransform="matrix(-3.7497 -0.4739 0.4739 -3.7497 -1751.1558 2889.2314)">
							<stop  offset="0" style="stop-color:#FFD31A"/>
							<stop  offset="1" style="stop-color:#FFE98F"/>
						</linearGradient>
						<path id="path564416" sodipodi:nodetypes="cscsccccscsccc" class="st55" d="M-1000.53,770.27c0.19-0.1,0.39-0.19,0.59-0.29
							c4.92-2.31,9.87-2.14,11.05,0.38c1.18,2.52-1.85,6.43-6.77,8.74c-4.92,2.31-9.87,2.14-11.05-0.38
							c-1.02-1.41,0.5-3.59,1.07-4.28c-0.95,0.05-2.98,0.28-5.37,1.55c-0.98,1.84-1.26,3.53-0.57,5.01
							c1.83,3.9,9.48,4.16,17.09,0.59c7.61-3.57,12.3-9.62,10.47-13.52c-1.83-3.9-9.33-3.83-17.09-0.59
							c-3.01,1.26-11.57,8.44-10,8.48c1.22-0.19,3.13-1.62,5.31-1.51L-1000.53,770.27z"/>
						
							<linearGradient id="path564418_1_" gradientUnits="userSpaceOnUse" x1="-126.863" y1="580.6021" x2="-124.8576" y2="578.777" gradientTransform="matrix(-3.7497 -0.4739 0.4739 -3.7497 -1740.095 2883.6912)">
							<stop  offset="0" style="stop-color:#FFD31A"/>
							<stop  offset="1" style="stop-color:#FFE98F"/>
						</linearGradient>
						<path id="path564418" sodipodi:nodetypes="cscsccccscscc" class="st56" d="M-989.47,764.73c0.19-0.1,0.39-0.19,0.59-0.29
							c4.92-2.31,9.87-2.14,11.05,0.38c1.18,2.52-1.85,6.43-6.77,8.74c-4.92,2.31-9.87,2.14-11.05-0.38
							c-1.02-1.41,0.5-3.59,1.07-4.28c-0.95,0.05-2.98,0.28-5.37,1.55c-0.98,1.84-1.26,3.53-0.57,5.01
							c1.83,3.9,9.48,4.16,17.09,0.59c7.61-3.57,12.3-9.62,10.47-13.52c-1.83-3.9-9.48-4.16-17.09-0.59
							c-2.15,1.01-4.8,2.59-5.66,3.34C-994.5,765.09-991.65,764.61-989.47,764.73L-989.47,764.73z"/>
					</g>
				</g>
			</g>
			<path id="path564426" class="st3" d="M599.1,769.49c2.65-1.08,5.28-2.19,7.9-3.35c2.76-1.22,5.5-2.49,8.21-3.79
				c2.72-1.31,5.41-2.66,8.09-4.05c2.67-1.39,5.33-2.83,7.95-4.31c2.63-1.48,5.23-3,7.81-4.56c2.58-1.56,5.13-3.17,7.66-4.81
				c2.53-1.65,5.03-3.33,7.5-5.06c2.47-1.72,4.92-3.49,7.34-5.29c0.32-0.25,0.64-0.49,0.96-0.74c-0.3-3.37-5.58-5.22-11.69-3.69
				c-2.4-10.36-12.49-7.51-16.81-10.38c-17.44-11.59-25.7-6.55-25.42-5.49l-31.16,4.75l-26.74,15.93l-9.93,13.48
				c0,0,7.24,13.08,11.06,14.35c3.81,1.27,30.45,10.47,32.61,10.96C585.45,773.67,592.17,771.65,599.1,769.49L599.1,769.49z"/>
			<path id="path564430" sodipodi:nodetypes="csssccsscscc" class="st57" d="M557.25,734.02c7.89-13.85,15.09-3.83,17.28-5.39
				c1.98-1.41,11.02-9.39,14.55-8.3c5.5,1.7,8.3-5.98,10.69-6.52c3.11-0.7,7.8,1.01,9.83,0.49c3.97-4.36,9.87-4.77,15.14-3.06
				c3.02,1.01,7.11,3.66,8.97,6.44c0.49,0.72,0.46,1.89,1.18,2.48c1.46,1.2,5.49-0.65,7.41,0.03c5.47,1.95,6.34,5.41,9.69,8.99
				c0.35,0.38,3.52-0.22,4.33,0.1c2.55,1.03,3.11,0.91,2.82,3.71"/>
			<path id="path564432" sodipodi:nodetypes="cssccccccccc" class="st58" d="M419.09,614.86l33.71-46.67
				c0.55-0.77,12.6,2.92,8.97,9.16l-20.19,29.63l32.83-22.2c6.25-0.17,20.57,0.58,19.76,12.14l-38.22,41.72
				c0.11-11.32-5.63-6.14-6.7-9.59c0.66-4.54-2.63-7.52-10.88-8.54c-1.26-5.63-7.5-5.74-13.15-5.71c0.19-2.67-0.11,3.8-5.87,2.47
				L419.09,614.86z"/>
			<g id="g158630" transform="rotate(-31.961278,-333.9127,-991.39131)">
				<path id="path566902" sodipodi:nodetypes="cccsccccssscscscccssscccccsccccc" class="st3" d="M-695.1,801.86
					c1.37,4.13,3,12.11,5.37,17.87c1.56,4.06,3.21,8.08,4.95,12.06c1.74,3.98,3.58,7.92,5.5,11.82c1.92,3.9,3.94,7.75,6.04,11.55
					c2.1,3.8,4.29,7.56,6.56,11.26c2.28,3.7,4.64,7.35,7.08,10.95c0.34,0.47,0.67,0.95,1.01,1.42c1.36,0.31,9.77,2.05,16.12-1.08
					c6.91-3.4,16.24-4.66,19.66-8.64s16.12-2.34,21.12-7.51c4.99-5.16,7.93-9.92,7.93-9.92s12.84,0.43,17.93-7.58
					s11.62-7.21,11.62-7.21s3.23,1.12,6.63-3.14c3.4-4.26,7.33-8.53,7.33-8.53l12.15-6.8l7.93-4.1c0,0,4.55-3.52,2.44-6.7
					c-2.1-3.18-1.28-11.55-3.85-13.62s0.58-12.15-3.14-13.39c-3.72-1.24-3.48-14.59-8.28-12.61L-556.8,776l-15.34,0.87l-7.92,6.99
					l-12.39,1.28c0,0-3.37,3.91-4.5,5.37s-17.29,2.4-17.29,2.4l-7.61,9.3c-5.04-0.89-12.22-11.06-17.01-1.84
					c-12.14,0.05-23.81-3.39-32.8,4.53C-680,801.38-687.89,795.59-695.1,801.86L-695.1,801.86z"/>
				<path id="path1178365" sodipodi:nodetypes="ccccccccccccccsc" class="st4" d="M-652.9,852.4c6.78-2.16,15.58,2.76,20.26-4.63
					c7.81,1.57,16.75-2.64,20.13-9.01c8.38,2.11,14.6-2.11,20.27-7.62c15.12,1.01,14.15-9.8,21.23-12.45
					c16.45,0.59,12.19-11.14,21.49-10.35c11.32-1.27,12.6-8.48,13.6-18.33c8.77-0.36,5.1,8.99,7.22,14.3
					c3.35,10.83-10.09,12.74-15.64,18.7c-9.08,1.15-12.91,9.44-19.44,14.16c-10.77-3.08-13,11.04-22.77,12.75
					c-12.12-2.74-12.94,14.68-24.68,14.24c-9-0.79-12.69,5.98-17.86,11.49c-9.95-1.92-17.77,9.28-27.51,5.3l-18.14-29.36
					C-679.6,843.72-658.31,855.6-652.9,852.4L-652.9,852.4z"/>
				<path id="path1060165" sodipodi:nodetypes="csscscscccccccccscc" class="st57" d="M-692.39,800.84
					c8.14-5.07,17.6,7.41,22.24,3.49c3.12-2.63,10.37-6.14,14.52-4.52c6.94,2.7,7.84,0.68,14.26,0.94
					c7.32-11.65,18.19,3.28,21.71-2.34c6.23-9.96,18.93-6.02,22.78-6.71c7.05-12.61,13.73-4.13,19.73-9.97
					c12.47-12.14,15.73,0.7,23.38-7.59c3.3-4.61,20.71-8.73,14.18,4.99c3.45-0.87,9.02,3.55,4.92,12.12
					c5.72,2.89,8.23,7.64,4.14,12.01c1.53,3.26,4.97,4.09,2.19,9.25c-7.76,9.14-5.67-0.25-14.89,10.22
					c-10.26,5.23-8.36,1.76-13.73,10.05c-7.12,7.94-3.74,3.87-15.09,5.46c-6.87,5.69-6.27,12.35-21.92,12.81
					c-1.87,7.53-9.69,14.61-22.61,14.73c-11.48,0.1-6.26,10.33-22.53,9.5c-4.37,4.94-9.43,6.74-16.27,4.21"/>
			</g>
			<path id="path564440" sodipodi:nodetypes="cssccccccccc" class="st58" d="M445.76,757.44l-35.38,40.35
				c-0.62,0.71,5.76,9.22,10.22,3.54l22.31-23.6l-17.61,38.27c-0.01,6.25,0.87,17.99,12.4,16.9l40.74-39.25
				c-11.32,0.39-6.28-5.47-9.76-6.46c-4.52,0.77-7.59-2.44-8.81-10.66c-5.66-1.12-5.92-7.35-6.04-13.01
				c-2.66,0.26-3.4-2.97-4.88-8.69L445.76,757.44z"/>
			<path id="path564456" sodipodi:nodetypes="cssccccccc" class="st59" d="M435.96,582.35c-1.18,2.52-1.28,5.22,0.91,6.53
				c2.39,1.44,7.36,4.3,12.39,6.95c1.86,0.98,3.69,1.24,5.28-0.61c2.44-2.53,6.3-7.37,4.11-8.16l-2.15,2.15
				c-8.69-0.53-14.05-6.29-16.23-8.54l2.17-2.86C440.51,576.95,438.54,576.02,435.96,582.35L435.96,582.35z"/>
			<g id="g564482" transform="matrix(-0.37799666,0.92580696,0.92580696,0.37799666,-141.09578,231.50258)">
				<g id="g564478">
					<path id="path564458" sodipodi:nodetypes="cssccccc" class="st60" d="M162.86,659.15l5.46,0.58c2.24,0.24,4.35,1.12,8.31-1.18
						c1.46-0.85,5.7-2.98,4.76-5.34c0.09-2.46,0.93-2.91-3.59-3.11l-12.41,2.72l-3.67,2.66
						C160.47,659.25,161.58,657.37,162.86,659.15L162.86,659.15z"/>
					<path id="path564460" sodipodi:nodetypes="csscccccc" class="st60" d="M168.84,662.46c2.44,4.83,5.12,3.42,6.97,2.51
						c2.02-0.99,4.79-2.36,8.74-4.67c1.46-0.85,2.32-2.12,1.39-4.49c-2.75-5.85-1.69-2.94-6.21-3.14l-7.34,2.28l-4.42,2.04
						C166.35,661.4,166.82,659.59,168.84,662.46L168.84,662.46z"/>
					<path id="path564462" sodipodi:nodetypes="csscccccc" class="st60" d="M172.6,668.56c2.44,4.83,5.12,3.42,6.97,2.51
						c2.02-0.99,4.79-2.36,8.74-4.67c1.46-0.85,2.32-2.12,1.39-4.49c-1.18-3.45-3.74-9.41-5.17-8.19l0.98,2.99
						c-3.53,6.46-8.07,5.94-10.68,6.27l-3.61-2.24C169.59,665.14,170.57,665.68,172.6,668.56L172.6,668.56z"/>
					<path id="path564464" sodipodi:nodetypes="csscccccc" class="st60" d="M176.04,674.86c2.1,4.99,4.87,3.76,6.78,2.99
						c2.08-0.85,4.94-2.03,9.04-4.05c1.52-0.75,2.46-1.96,1.7-4.38c-0.94-3.52-3.09-9.65-4.59-8.52l0.77,3.05
						c-3.97,6.2-8.46,5.37-11.09,5.52l-3.44-2.49C173.28,671.24,174.21,671.85,176.04,674.86L176.04,674.86z"/>
					<path id="path564466" sodipodi:nodetypes="csscccccc" class="st60" d="M178.89,682.38c1.55,5.19,4.44,4.26,6.43,3.7
						c2.16-0.62,5.13-1.49,9.42-3.06c1.59-0.58,2.66-1.68,2.15-4.18c-0.56-3.6-2.04-9.92-3.65-8.96l0.44,3.11
						c-4.61,5.74-8.99,4.43-11.62,4.3l-3.16-2.84C176.53,678.49,177.4,679.19,178.89,682.38L178.89,682.38z"/>
					<path id="path564468" sodipodi:nodetypes="csscccccc" class="st60" d="M181.36,689.92c1.22,5.28,4.16,4.54,6.17,4.1
						c2.2-0.48,5.21-1.16,9.6-2.45c1.62-0.48,2.76-1.51,2.42-4.03c-0.33-3.63-1.39-10.03-3.07-9.18l0.24,3.13
						c-4.97,5.43-9.26,3.84-11.87,3.54l-2.97-3.04C179.25,685.88,180.07,686.64,181.36,689.92L181.36,689.92z"/>
					<path id="path564470" sodipodi:nodetypes="csscccccc" class="st60" d="M182.14,697.32c0.77,5.36,3.76,4.87,5.81,4.6
						c2.23-0.29,5.29-0.72,9.77-1.64c1.66-0.34,2.88-1.27,2.75-3.81c-0.02-3.64-0.55-10.11-2.29-9.41l-0.03,3.14
						c-5.4,4.99-9.54,3.05-12.12,2.54l-2.7-3.28C180.38,693.12,181.13,693.95,182.14,697.32L182.14,697.32z"/>
					<path id="path564472" sodipodi:nodetypes="csscccccc" class="st60" d="M181.92,703.96c0.28,5.41,3.3,5.2,5.37,5.11
						c2.25-0.09,5.33-0.23,9.88-0.74c1.68-0.19,2.98-1,3.08-3.55c0.31-3.63,0.37-10.12-1.42-9.57l-0.31,3.13
						c-5.84,4.48-9.78,2.17-12.3,1.43l-2.4-3.51C180.55,699.62,181.22,700.51,181.92,703.96L181.92,703.96z"/>
					<path id="path564474" sodipodi:nodetypes="csscccc" class="st61" d="M174.57,709.75c0.04,5.41,2.34,8.27,4.4,8.28
						c2.25,0.01,8.33,0.56,12.9,0.25c1.69-0.11,2.48-1.12,2.69-3.66c-0.5-4.17-4.57-2.53-9.9-4.74
						C179.39,709.66,176.19,709.68,174.57,709.75z"/>
					<path id="path564476" sodipodi:nodetypes="cssccccccc" class="st60" d="M181.01,711.03c-0.68,5.37,2.33,5.7,4.38,5.98
						c2.23,0.31,5.29,0.72,9.86,1.02c1.69,0.11,3.11-0.46,3.66-2.94c0.95-3.52,2.16-9.9,0.29-9.68l-0.86,3.02
						c-6.36,0.18-9.98-0.11-12.36-0.77l-1.74-3.88C180.43,706.52,180.93,707.51,181.01,711.03L181.01,711.03z"/>
				</g>
				<path id="path564480" class="st29" d="M181.69,654.21l-4.17,1.44l2.13,4.96c1.54-1.23,3.69-2.45,3.46-3.71L181.69,654.21z
					 M185.85,659.57l-3.17,2.86l1.34,4.76c1.54-1.23,3.69-2.45,3.46-3.71L185.85,659.57z M190.21,667l-3.63,2.89l0.67,4.23
					l3.96-1.88L190.21,667z M193.67,675.7l-3.63,2.89l0.68,4.23l3.96-1.88L193.67,675.7z M195.72,685.03l-3.93,1.73l0.67,4.23
					l3.82-1.33L195.72,685.03z M196.52,693.8l-3.85,1.33l-0.11,3.86l3.97-1.2L196.52,693.8z M197.25,701.67l-4.41,1.31l-0.37,3.73
					l3.93,0.07L197.25,701.67z M192.56,710.1l-0.74,5.97l3.93,0.07l1.24-5.82L192.56,710.1z"/>
			</g>
			<g id="g691457" transform="matrix(-0.94431003,0.32905708,0.32905708,0.94431003,-508.19643,181.20599)">
				<path id="path691445" class="st3" d="M-720.33,894.77c-0.05,0.62-0.06,1.21,0.04,1.72c0.69,3.75-4.87,5.22-4.87,5.22l-8.9,0.68
					l0.85-2.07c2.96-1.17,5.91-2.4,8.83-3.67C-723.03,896.03-721.68,895.41-720.33,894.77z"/>
				<path id="path691447" sodipodi:nodetypes="sccccccsccccsccsccccccccscccccssss" class="st3" d="M-720.33,894.77
					c-1.35,0.64-2.7,1.26-4.06,1.88c-2.92,1.27-5.86,2.5-8.83,3.67l0.02-0.06c0,0-1.85,0.52-4.09,1.63
					c-2.56,0.99-5.14,1.95-7.73,2.87c-3.49,1.22-7,2.36-10.53,3.44c-3.53,1.08-7.09,2.09-10.66,3.02c-3.57,0.94-5.84,4.16-9.45,4.96
					c-3.61,0.8-8.56-0.83-12.19-0.18c-3.64,0.66-7.28,1.24-10.94,1.75c-3.69,2.42-9.47,8.17-13.03,2.2c-3.68,0.37-5.51,1.82-9.02,0
					c-3.28-1.7-7.38,0.37-11.07,0.45c-3.69,0.08-7.39,0.09-11.08,0.02c-3.69-0.07-7.39-0.21-11.07-0.42
					c-3.69-0.21-7.37-0.5-11.05-0.85c-3.68-0.36-7.35-0.79-11.01-1.29c-3.66-0.5-7.31-1.07-10.95-1.72
					c-1.34-0.25-2.68-0.52-4.02-0.79c25.92-13.85,44.17,8.97,49.87-0.84c3.77,1.48,28.59-26.89,28.59-26.89l4.88-11.89l10.57-7.76
					c0,0,11.8-3.51,12.93-4.98c1.13-1.46,8.86-2.79,8.86-2.79l12.39-1.28l13.71-3.17l14.55,0.3l15.85-2.01
					c5.19,0.05-0.24,12.24,2.7,14.84s-3.9,10.64-2.34,13.55C-717.17,884.96-719.99,890.81-720.33,894.77z"/>
				<path id="path691449" class="st4" d="M-866.43,918.97c-2.16-0.2-4.31-0.43-6.47-0.68c-3.58-0.45-7.14-0.96-10.7-1.55
					c-0.34-0.06-0.67-0.12-1.01-0.19c-1.86-5.01-1.46-8.73,6.78-4.72C-873.33,908.94-869.86,913.89-866.43,918.97z"/>
				<path id="path691451" class="st4" d="M-719.52,894.4c0,0.13-0.02,0.26-0.01,0.38c-0.47,11.33-12.63,5.13-19.85,8.89
					c-0.74-0.16-1.32-0.25-1.85-0.31c2.13-0.76,4.25-1.55,6.36-2.36c3.36-1.32,6.69-2.7,9.99-4.14
					C-723.09,896.06-721.3,895.24-719.52,894.4z"/>
				<path id="path691453" sodipodi:nodetypes="scccccsccccccccccss" class="st4" d="M-719.52,894.4c-1.78,0.84-3.56,1.66-5.36,2.47
					c-3.3,1.44-6.63,2.82-9.99,4.14c-2.11,0.81-4.23,1.6-6.36,2.36c-1.9-0.22-2.52,0.18-2.68,0.99c-0.37,0.14-0.73,0.27-1.1,0.41
					c-3.4,1.19-6.83,2.31-10.27,3.36c-3.45,1.05-6.91,2.04-10.4,2.97c-3.48,0.92-7.03,4-10.55,4.78c-3.52,0.79-7-0.71-10.55-0.06
					c-3.54,0.65-7.1,1.24-10.67,1.75c-10.85,8.17-30.62,0.88-30.95,0.92c2.26,0.76,25.42-1.19,24.75-5.17
					c8.38,2.11,19.61-3.23,25.27-8.74c15.12,1.01,17.34-8.15,24.42-10.8c16.45,0.59,4.95-6.03,13.45-2.17
					c11.09,2.6,14.71-3.77,18.96-12.71C-713.35,881.44-719.45,888.74-719.52,894.4z"/>
				<path id="path691455" sodipodi:nodetypes="cccssssscccscc" class="st57" d="M-821.96,872.14c9.5-8.68,20.56-0.96,26.24-1.47
					c6.23-9.96,18.88-9.47,22.75-8.95c10.58-9.84,14.33,0.29,21.84-3.44c15.59-7.73,10.74,1.07,21.16-3.24
					c4.93-2.8,22.46,0.77,10.77,10.48c3.5,0.66,6.69,7.01-0.62,13.07c3.98,5.03,4.26,10.39-1.29,12.64c0.02,3.6,2.79,5.79-1.89,9.31
					c-10.88,5.03-12.04-1.05-24.8,4.58l-21.26,8.18c1.35,3.31-16.73,6.45-18.73,5.25c-4.82-2.87-16.41,10.19-24.63,3.14
					c-9.03,3.42-11.14-0.02-14.78-1.94"/>
			</g>
			<g id="g575603" transform="translate(263.85611,1.0045582)">
				<g id="g575599">
					<path id="path575579" sodipodi:nodetypes="cssccccc" class="st62" d="M212.64,741.25l5.46,0.58c2.24,0.24,4.35,1.12,8.31-1.18
						c1.46-0.85,5.7-2.98,4.76-5.34c0.09-2.46,0.93-2.91-3.59-3.11l-12.41,2.72l-3.67,2.66
						C210.25,741.35,211.36,739.47,212.64,741.25L212.64,741.25z"/>
					<path id="path575581" sodipodi:nodetypes="csscccccc" class="st62" d="M218.62,744.56c2.44,4.83,5.12,3.42,6.97,2.51
						c2.02-0.99,4.79-2.36,8.74-4.67c1.46-0.85,2.32-2.12,1.39-4.49c-2.75-5.85-1.69-2.94-6.21-3.14l-7.34,2.28l-4.42,2.04
						C216.13,743.5,216.59,741.69,218.62,744.56L218.62,744.56z"/>
					<path id="path575583" sodipodi:nodetypes="csscccccc" class="st62" d="M222.38,750.66c2.44,4.83,5.12,3.42,6.97,2.51
						c2.02-0.99,4.79-2.36,8.74-4.67c1.46-0.85,2.32-2.12,1.39-4.49c-1.18-3.45-3.74-9.41-5.17-8.19l0.98,2.99
						c-3.53,6.46-8.07,5.94-10.68,6.27l-3.61-2.24C219.37,747.24,220.35,747.78,222.38,750.66L222.38,750.66z"/>
					<path id="path575585" sodipodi:nodetypes="csscccccc" class="st62" d="M225.82,756.96c2.1,4.99,4.87,3.76,6.78,2.99
						c2.08-0.85,4.94-2.03,9.04-4.05c1.52-0.75,2.46-1.96,1.7-4.38c-0.94-3.52-3.09-9.65-4.59-8.52l0.77,3.05
						c-3.97,6.2-8.46,5.37-11.09,5.52l-3.44-2.49C223.06,753.34,223.99,753.95,225.82,756.96L225.82,756.96z"/>
					<path id="path575587" sodipodi:nodetypes="csscccccc" class="st62" d="M228.67,764.47c1.55,5.19,4.44,4.26,6.43,3.7
						c2.16-0.62,5.13-1.49,9.43-3.06c1.59-0.58,2.66-1.68,2.15-4.18c-0.56-3.6-2.04-9.92-3.65-8.96l0.44,3.11
						c-4.61,5.74-8.99,4.43-11.62,4.3l-3.16-2.84C226.31,760.59,227.18,761.29,228.67,764.47L228.67,764.47z"/>
					<path id="path575589" sodipodi:nodetypes="csscccccc" class="st62" d="M231.13,772.02c1.22,5.28,4.16,4.54,6.17,4.1
						c2.2-0.48,5.21-1.16,9.6-2.45c1.62-0.48,2.76-1.51,2.42-4.03c-0.33-3.63-1.39-10.03-3.07-9.18l0.24,3.13
						c-4.97,5.43-9.26,3.84-11.87,3.54l-2.97-3.04C229.03,767.98,229.85,768.74,231.13,772.02L231.13,772.02z"/>
					<path id="path575591" sodipodi:nodetypes="csscccccc" class="st62" d="M231.91,779.42c0.77,5.36,3.76,4.87,5.81,4.6
						c2.23-0.29,5.29-0.72,9.77-1.64c1.66-0.34,2.88-1.27,2.75-3.81c-0.02-3.64-0.55-10.11-2.29-9.41l-0.03,3.14
						c-5.4,4.99-9.54,3.05-12.12,2.54l-2.7-3.28C230.15,775.22,230.91,776.04,231.91,779.42L231.91,779.42z"/>
					<path id="path575593" sodipodi:nodetypes="csscccccc" class="st62" d="M231.7,786.05c0.28,5.41,3.3,5.2,5.37,5.11
						c2.25-0.09,5.33-0.23,9.88-0.74c1.68-0.19,2.98-1,3.08-3.55c0.31-3.63,0.37-10.12-1.43-9.57l-0.31,3.13
						c-5.84,4.48-9.78,2.17-12.3,1.43l-2.4-3.51C230.33,781.72,231,782.61,231.7,786.05L231.7,786.05z"/>
					<path id="path575595" sodipodi:nodetypes="csscccc" class="st63" d="M224.34,791.84c0.04,5.41,2.34,8.27,4.4,8.28
						c2.25,0.01,8.33,0.56,12.9,0.25c1.69-0.11,2.48-1.12,2.69-3.66c-0.5-4.17-4.57-2.53-9.9-4.74
						C229.17,791.76,225.97,791.78,224.34,791.84z"/>
					<path id="path575597" sodipodi:nodetypes="cssccccccc" class="st62" d="M230.79,793.13c-0.68,5.37,2.33,5.7,4.38,5.98
						c2.23,0.31,5.29,0.72,9.86,1.02c1.69,0.11,3.11-0.46,3.66-2.94c0.95-3.52,2.16-9.9,0.29-9.68l-0.86,3.02
						c-6.36,0.18-9.98-0.11-12.36-0.77l-1.74-3.88C230.2,788.62,230.71,789.61,230.79,793.13L230.79,793.13z"/>
				</g>
				<path id="path575601" class="st64" d="M231.47,736.31l-4.17,1.44l2.13,4.96c1.54-1.23,3.69-2.45,3.46-3.71L231.47,736.31z
					 M235.63,741.67l-3.17,2.86l1.34,4.76c1.54-1.23,3.69-2.45,3.46-3.71L235.63,741.67z M239.99,749.1l-3.63,2.89l0.67,4.23
					l3.96-1.88L239.99,749.1z M243.45,757.8l-3.63,2.89l0.68,4.23l3.96-1.88L243.45,757.8z M245.49,767.12l-3.93,1.73l0.67,4.23
					l3.82-1.33L245.49,767.12z M246.3,775.9l-3.85,1.33l-0.11,3.86l3.97-1.2L246.3,775.9z M247.03,783.77l-4.41,1.31l-0.37,3.73
					l3.93,0.07L247.03,783.77z M242.33,792.2l-0.74,5.97l3.93,0.07l1.24-5.82L242.33,792.2z"/>
			</g>
			<circle id="path575870" class="st65" cx="412.5" cy="659" r="18.24"/>
			<path id="path681326" sodipodi:nodetypes="cccccc" class="st29" d="M425.93,666.91l2.62,0.89c2.09-4.12,2.88-8.25,1.18-14.98
				l-2.83-0.03C427.5,661.03,427.92,659.2,425.93,666.91L425.93,666.91z"/>
			<circle id="circle576319" class="st66" cx="409.04" cy="658.16" r="17.78"/>
			<circle id="circle576321" class="st67" cx="409.04" cy="658.16" r="15.24"/>
			<circle id="circle663647" class="st30" cx="409.05" cy="658.12" r="1.94"/>
			<path id="path670059" sodipodi:nodetypes="cccc" class="st30" d="M409.23,656.35l6.61-8.76l-5.44,9.77L409.23,656.35z"/>
			
				<path id="path674234" inkscape:transform-center-x="-1.0528105" inkscape:transform-center-y="1.5873307" sodipodi:nodetypes="cccc" class="st30" d="
				M410.14,658.76l7.45,11.41l-8.17-10.86L410.14,658.76z"/>
			<path id="circle674677" class="st68" d="M426.14,653.41c-0.03-0.1-0.06-0.2-0.09-0.3c-0.04-0.14-0.09-0.28-0.13-0.42
				c-0.05-0.14-0.09-0.28-0.14-0.41c-0.05-0.14-0.1-0.27-0.15-0.41c-0.05-0.14-0.11-0.27-0.16-0.41c-0.06-0.13-0.11-0.27-0.17-0.4
				c-0.06-0.13-0.12-0.27-0.18-0.4c-0.06-0.13-0.13-0.26-0.19-0.39c-0.07-0.13-0.13-0.26-0.2-0.39c-0.07-0.13-0.14-0.26-0.21-0.38
				c-0.07-0.13-0.15-0.25-0.22-0.38c-0.07-0.13-0.15-0.25-0.23-0.37c-0.08-0.12-0.16-0.24-0.24-0.37c-0.08-0.12-0.16-0.24-0.25-0.36
				c-0.08-0.12-0.17-0.24-0.26-0.35c-0.09-0.12-0.18-0.23-0.27-0.35c-0.09-0.11-0.18-0.23-0.27-0.34c-0.09-0.11-0.19-0.22-0.28-0.33
				c-0.1-0.11-0.19-0.22-0.29-0.33c-0.1-0.11-0.2-0.21-0.3-0.32c-0.1-0.11-0.2-0.21-0.3-0.31c-0.1-0.1-0.21-0.2-0.31-0.3
				c-0.11-0.1-0.21-0.2-0.32-0.3c-0.11-0.1-0.22-0.19-0.33-0.29c-0.11-0.1-0.22-0.19-0.33-0.28c-0.11-0.09-0.23-0.18-0.34-0.27
				c-0.11-0.09-0.23-0.18-0.35-0.27c-0.12-0.09-0.23-0.17-0.35-0.26c-0.12-0.08-0.24-0.17-0.36-0.25c-0.12-0.08-0.24-0.16-0.37-0.24
				c-0.12-0.08-0.25-0.15-0.37-0.23c-0.12-0.08-0.25-0.15-0.38-0.22c-0.13-0.07-0.25-0.14-0.38-0.21c-0.13-0.07-0.26-0.14-0.39-0.2
				c-0.13-0.07-0.26-0.13-0.39-0.19c-0.13-0.06-0.26-0.12-0.4-0.18c-0.13-0.06-0.27-0.12-0.4-0.17c-0.13-0.06-0.27-0.11-0.4-0.16
				c-0.14-0.05-0.27-0.1-0.41-0.15c-0.14-0.05-0.28-0.1-0.41-0.14c-0.14-0.05-0.28-0.09-0.42-0.13c-0.14-0.04-0.28-0.08-0.42-0.12
				c-0.14-0.04-0.28-0.08-0.42-0.11c-0.14-0.04-0.28-0.07-0.42-0.1c-0.14-0.03-0.28-0.06-0.43-0.09c-0.14-0.03-0.28-0.06-0.43-0.08
				c-0.14-0.02-0.29-0.05-0.43-0.07c-0.14-0.02-0.29-0.04-0.43-0.06c-0.14-0.02-0.29-0.03-0.44-0.05c-0.14-0.01-0.29-0.03-0.43-0.04
				c-0.15-0.01-0.29-0.02-0.44-0.03c-0.15-0.01-0.29-0.01-0.44-0.02c-0.15,0-0.29-0.01-0.44-0.01c-0.42,0-0.85,0.02-1.27,0.05
				c-0.42,0.03-0.84,0.07-1.26,0.13c-0.42,0.06-0.84,0.13-1.25,0.22c-0.41,0.09-0.82,0.2-1.23,0.31c-0.41,0.12-0.81,0.25-1.21,0.4
				c-0.4,0.15-0.79,0.31-1.17,0.49c-0.38,0.18-0.76,0.37-1.13,0.57c-0.37,0.2-0.74,0.42-1.09,0.65c-0.36,0.23-0.7,0.47-1.04,0.72
				c-0.34,0.25-0.67,0.52-0.99,0.79c-0.32,0.28-0.63,0.57-0.93,0.87c-0.3,0.3-0.59,0.61-0.87,0.93c-0.28,0.32-0.54,0.65-0.79,0.99
				c-0.25,0.34-0.5,0.69-0.72,1.04c-0.1,0.16-0.2,0.32-0.29,0.49c0,0.03,0,0.05,0,0.08c0,9.09,7.37,16.45,16.45,16.46c0,0,0,0,0,0
				C417.7,665.68,424.24,660.64,426.14,653.41L426.14,653.41z"/>
			<circle id="circle681007" class="st68" cx="396.55" cy="657.06" r="5.26"/>
		</g>
	</g>
</g>
</svg>
