<svg xmlns="http://www.w3.org/2000/svg" xmlns:xlink="http://www.w3.org/1999/xlink" viewBox="0 0 270.933 270.933" height="1024" width="1024" xmlns:v="https://vecta.io/nano"><style><![CDATA[.B{stroke-linejoin:round}.C{stroke-linecap:round}.D{fill:none}.E{stroke:#f9cf6e}.F{stroke:#4b4633}.G{stroke-width:1.053}.H{stroke:#ea9c00}.I{fill:#fff}.J{fill:#ffd31a}.K{stroke:#ffb41d}.L{stroke-width:.288}.M{fill:#fff0be}.N{fill:#ffe99f}.O{stroke-width:.489}.P{stroke-width:1.579}.Q{stroke-width:.96}.R{fill:#ffe98f}.S{fill:#4b4633}.T{stroke-width:1.574}.U{stroke-width:.529}.V{fill:#ea9c00}.W{fill:#ffb41d}.X{stroke-width:1.476}.Y{stroke:#b3b3b3}.Z{stroke-width:1.44}.a{stroke-width:.526}.b{stroke-width:.265}.c{fill-opacity:.394}]]></style><defs><linearGradient id="A" x1="-394.699" y1="80.035" x2="-425.534" y2="118.574" xlink:href="#j"><stop offset="0" stop-color="#1d1d1d"/><stop offset="1" stop-color="#fff" stop-opacity="0"/></linearGradient><linearGradient id="B" x1="-377.3" y1="87.456" x2="-394.394" y2="114.495" xlink:href="#j"><stop offset="0" stop-color="#fff"/><stop offset="1" stop-color="#fff" stop-opacity="0"/></linearGradient><linearGradient id="C" x1="-399.293" y1="106.819" x2="-405.788" y2="106.577" xlink:href="#j"><stop offset="0" stop-color="#666"/><stop offset="1" stop-color="#666" stop-opacity="0"/></linearGradient><linearGradient id="D" x1="-1538.57" y1="351.756" x2="-1540.315" y2="438.627" xlink:href="#j"><stop offset="0" stop-color="#646464"/><stop offset="1" stop-color="#1a1a1a" stop-opacity="0"/></linearGradient><clipPath id="E"><path d="M0 1000h1000V0H0z"/></clipPath><linearGradient xlink:href="#G" id="F" x1="-674.167" y1="187.995" x2="-672.162" y2="189.82"/><linearGradient id="G" xlink:href="#j"><stop offset="0" stop-color="#ffd31a"/><stop offset="1" stop-color="#ffe98f"/></linearGradient><linearGradient xlink:href="#G" id="H" x1="-671.241" y1="186.529" x2="-669.235" y2="188.354"/><linearGradient xlink:href="#G" id="I" x1="-674.304" y1="187.927" x2="-672.205" y2="189.642"/><linearGradient xlink:href="#G" id="J" x1="-671.593" y1="186.163" x2="-669.377" y2="187.725"/><linearGradient xlink:href="#G" id="K" x1="-668.809" y1="184.058" x2="-666.486" y2="185.456"/><linearGradient xlink:href="#G" id="L" gradientTransform="matrix(0.67506139,-0.30672166,0.64991411,0.82993166,-334.97726,-180.67574)" x1="-673.387" y1="187.617" x2="-671.381" y2="189.442"/><linearGradient xlink:href="#G" id="M" x1="-668.809" y1="184.059" x2="-666.485" y2="185.457"/><linearGradient xlink:href="#G" id="N" x1="-663.597" y1="179.659" x2="-661.101" y2="180.717"/><linearGradient xlink:href="#G" id="O" x1="-661.635" y1="177.122" x2="-659.056" y2="177.962"/><linearGradient xlink:href="#G" id="P" x1="-659.999" y1="174.336" x2="-657.32" y2="174.754"/><linearGradient xlink:href="#G" id="Q" x1="-658.637" y1="171.151" x2="-655.926" y2="171.195"/><linearGradient xlink:href="#G" id="R" gradientTransform="matrix(0.44180427,-0.62215937,1.1152982,0.69285612,-571.8159,-381.2165)" x1="-673.387" y1="187.617" x2="-671.381" y2="189.442"/><linearGradient xlink:href="#G" id="S" x1="-671.24" y1="186.529" x2="-669.235" y2="188.354"/><path id="T" d="M-116.095 108.443c-1.534 2.268-6.395 2.348-8.937.941-.545-2.08 5.001-9.19 8.938-.941z"/><path id="U" d="M-671.892 186.645l.155-.076c1.302-.611 2.612-.566 2.924.101s-.49 1.702-1.792 2.313-2.612.566-2.924-.101c-.269-.373.133-.949.282-1.132a3.42 3.42 0 0 0-1.421.411c-.26.488-.333.935-.15 1.326.483 1.031 2.508 1.101 4.521.156s3.254-2.546 2.771-3.577-2.508-1.101-4.522-.156c-.568.267-1.27.686-1.499.884.322-.051 1.077-.179 1.653-.149z"/><path id="V" d="M-674.949 188.077l.151-.084c1.268-.679 2.578-.704 2.926-.055s-.398 1.726-1.666 2.405-2.578.704-2.926.055c-.288-.359.082-.954.222-1.146a3.42 3.42 0 0 0-1.397.486c-.234.501-.283.951-.079 1.332.538 1.004 2.563.965 4.523-.085s3.114-2.716 2.576-3.719-2.563-.965-4.524.085c-.553.296-1.232.753-1.449.963.319-.069 1.066-.236 1.643-.237z"/><path id="W" d="M-672.226 186.358l.144-.095c1.217-.768 2.521-.885 2.914-.263s-.275 1.75-1.491 2.517-2.521.885-2.914.263c-.313-.337.014-.958.14-1.159a3.42 3.42 0 0 0-1.359.584c-.198.516-.215.969.016 1.334.608.963 2.625.781 4.506-.406s2.914-2.93 2.306-3.893-2.625-.781-4.506.406c-.531.335-1.175.838-1.377 1.063.313-.091 1.046-.311 1.622-.353z"/><path id="X" d="M-669.426 184.3l.137-.105c1.158-.854 2.451-1.065 2.888-.473s-.148 1.765-1.305 2.619-2.451 1.065-2.888.473c-.337-.314-.055-.956.056-1.166a3.42 3.42 0 0 0-1.313.68c-.16.529-.144.982.112 1.329.676.916 2.675.589 4.465-.731s2.694-3.133 2.018-4.049-2.675-.589-4.465.731c-.505.373-1.112.921-1.297 1.16.306-.113 1.021-.386 1.592-.469z"/><path id="Y" d="M-151.769 191.813l1.446.153c.592.063 1.151.296 2.198-.312.387-.225 1.507-.788 1.26-1.414.023-.65.247-.77-.949-.822l-3.284.721-.972.703c-.33.997-.036.501.302.971z"/><path id="Z" d="M-150.187 192.69c.645 1.279 1.355.905 1.845.665l2.313-1.234c.387-.225.615-.562.367-1.187-.727-1.547-.447-.779-1.643-.831l-1.942.603-1.168.541c-.431 1.163-.308.683.228 1.443z"/><path id="a" d="M-149.194 194.302c.645 1.279 1.355.905 1.845.665l2.313-1.234c.387-.225.615-.562.367-1.187-.313-.912-.991-2.49-1.368-2.166l.259.79c-.934 1.708-2.136 1.571-2.826 1.659l-.954-.593c-.431 1.163-.173 1.306.363 2.066z"/><path id="b" d="M-148.284 195.969c.555 1.321 1.289.996 1.795.79l2.393-1.072c.401-.198.652-.518.448-1.159-.249-.931-.817-2.553-1.215-2.255l.204.806c-1.05 1.64-2.239 1.42-2.934 1.46l-.911-.658c-.51 1.13-.263 1.291.22 2.087z"/><path id="c" d="M-147.529 197.958c.411 1.372 1.175 1.128 1.7.978l2.494-.81c.42-.154.703-.445.57-1.105-.148-.953-.539-2.625-.967-2.372l.116.823c-1.219 1.518-2.378 1.172-3.073 1.138l-.836-.751c-.628 1.069-.399 1.255-.004 2.098z"/><path id="d" d="M-146.877 199.954c.322 1.396 1.1 1.202 1.633 1.086l2.541-.647c.429-.126.731-.399.64-1.066-.087-.96-.368-2.655-.811-2.429l.063.829c-1.315 1.436-2.449 1.016-3.14.937l-.785-.804c-.696 1.026-.479 1.227-.14 2.093z"/><path id="e" d="M-146.67 201.911c.204 1.418.996 1.289 1.537 1.218l2.586-.433c.438-.09.762-.336.727-1.008-.006-.964-.145-2.676-.606-2.489l-.007.832c-1.43 1.321-2.525.808-3.208.672l-.716-.867c-.779.965-.58 1.183-.314 2.074z"/><path id="f" d="M-146.727 203.668c.074 1.431.874 1.375 1.42 1.353l2.615-.196c.444-.049.789-.266.815-.938.082-.961.099-2.678-.377-2.533l-.083.828c-1.544 1.186-2.588.575-3.255.377l-.634-.928c-.863.89-.685 1.125-.502 2.037z"/><path id="g" d="M-148.673 205.2c.012 1.433.619 2.189 1.165 2.191l3.413.065c.446-.03.657-.297.713-.967-.131-1.104-1.209-.67-2.619-1.255l-2.671-.034z"/><path id="h" d="M-146.969 205.54c-.18 1.421.617 1.508 1.158 1.583l2.608.27c.446.03.824-.122.969-.779.251-.931.571-2.618.077-2.56l-.228.8c-1.682.048-2.641-.03-3.271-.205l-.46-1.026c-1.007.723-.874.986-.854 1.916z"/><path id="i" d="M-146.787 190.506l-1.102.381.565 1.313c.407-.325.978-.647.917-.983zm1.099 1.419l-.838.756.356 1.259c.407-.325.977-.647.916-.983zm1.154 1.965l-.96.764.178 1.119 1.049-.499zm.915 2.301l-.961.764.179 1.118 1.049-.498zm.542 2.468l-1.04.457.178 1.119 1.012-.353zm.214 2.322l-1.018.352-.028 1.021 1.05-.317zm.192 2.083l-1.168.346-.097.988 1.039.02zm-1.242 2.229l-.196 1.58 1.039.02.328-1.54z"/><linearGradient id="j" gradientUnits="userSpaceOnUse"/></defs><circle cx="135.467" cy="135.467" r="83.386" fill="#444" paint-order="stroke fill markers"/><g transform="translate(19.019 4.855)"><circle cx="116.448" cy="130.674" r="74.667" fill="#b40505" paint-order="stroke fill markers"/><g transform="translate(532.342 -3.17)"><path d="M-405.348 104.398s-.005 2.583 3.288 4.324 8.887 3.945 8.887 3.945 1.528 1.706.967 3.517-.279 2.493-.279 2.493 1.382 5.018.241 6.423-3.445 2.145-3.445 2.145l-3.315-1.349-.059 2.072.449 2.002c-.163-.728 2.826 1.809 2.805 2.088 0 0 2.338 5.155 2.105 5.706s-16.088 5.31-23.359.073-7.408-15.716-6.696-18.541 4.711-11.374 5.975-12.873 12.437-2.027 12.437-2.027z" fill="#f3e8cc"/><path d="M-452.37 199.254l.886.495 1.598.843 1.621.806 1.643.767 1.664.729 1.685.688 1.706.649 1.725.607 1.744.566 1.763.525 1.781.482 1.798.439 1.814.395 1.831.35 1.846.306 1.861.26 1.876.214 1.889.168 1.902.12 1.915.073 1.928.024 1.927-.024 1.915-.073 1.903-.12 1.889-.168 1.875-.214 1.861-.26 1.846-.306 1.83-.35 1.815-.395 1.798-.439 1.78-.482 1.763-.525 1.745-.566 1.725-.607 1.705-.649 1.385-.566-.352-4.556-1.591-4.891.444-5.645-1.702-2.285-1.174-2.381.963-4.599-1.078-4.488s2.964-4.677.35-9.548c.035-4.61.99-4.788-.34-6.174-.735-1.328.848-5.89.848-5.89l-.077-5.905.658-3.16c.224-.778-.394-3.206-.394-3.206l.481-3.231.186-11.042.075-.153-.059-.757.01-.588-.027.025c-.006-.723.051-1.591.301-2.192.503-1.21-.297-4.042-.297-4.042s.135-1.202.497-1.733-.579-4.466-.308-6.526-1.201-8.982-.861-10.032-1.018-6.49-1.018-6.49l1.763-3.833c.094-.524 2.592-.468 2.054-1.527-.981-1.93.753-2.262.212-4.295-.068-1.715-.85-3.476-2.321-4.42-.129-1.684 1.18-3.435-.071-5.152-.683-2.608-4.409-2.459-4.056-5.489-.144-2.561-2.28-3.717-4.821-3.917-1.764-1.046-2.663-2.489-5.138-2.48l-4.667-.483h0c-3.264-3.078-4.741-2.21-11.124-1.454-2.11.172-3.177-.592-4.641-.396-.909.023-2.685.486-3.541 1.042l-6.588 2.865-5.375-6.918c-1.359-.63-2.946-2.602-3.199 3.294-1.301 2.322-1.002 8.197-.737 10.267l-1.947 2.94-.537 3.097-1.769 1.816-.413 2.694-1.231 1.744-.561 3.312 1.124 2.95-.173 4.382 1.698 1.816-.781 8.594 1.025 2.689s-.419 2.287-.274 3.474-.496 7.369-.496 7.369l-.226 5.198s.374 3.497.395 4.325.605 8.978.605 8.978l.837 3.096-.669 5.249.818 3.454-.543 4.7 1.327 3.612-.705 5.048.723 4.041.634 2.55-.326 4.366 1.29 2.987s-1.83 4.066-1.553 4.886.617 6.171.617 6.171c-2.499 2.467-1.804 1.572-1.456 3.5l1.018 2.359-3.628 1.209-.351 2.278-2.709 1.465zm45.689-93.516c.559.966 1.457 3.114 3.172 2.816l-.175-1.124a5.6 5.6 0 0 0 2.635 1.958c1.591.553 7.111 3.009 8.421 4.396s-.046 3.576-.046 3.576.059.838.444 2.277.334 3.901-.169 5.615-3.228 1.869-3.228 1.869l-.096 1.155-.967.483-2.399.16.298 1.427 1.468-.296 1.197.604-.272 1.438 1.201 2.66-1.461-.555-.556 2.662-.957-2.893-2.06 3.169-.677-3.53-2.977 3.707-.191-3.092-3.802 3.263-.246-2.496-3.652 1.389 1.034-2.669-3.739 1.005.706-3.232-4.831-.234 2.642-2.883-3.009-1.027 1.767-1.352-3.51-2.573 2.273-.601-1.828-2.522c1.28-1.98 4.818-2.5 1.969-5.832l2.426 1.427c-.951-1.553-2.126-3.102-3.057-3.798l2.748.617-.794-2.157 2.565.997-1.298-2.092 2.201.597-1.146-2.2 1.781.704 2.944 1.495-1.706-3.184 2.517 1.223-.02-2.236 2.438 2.348z" class="M"/><g class="N"><path d="M-422.54 122.437c.152-.031.478.18 1.055.729l-.917.406c-.217-.626-.331-1.096-.138-1.135zm-18.515-40.035c.671 1.809 1.468 5.181.812 6.596-.298.643-.344 2.354-1.184 1.674-.921-.745.54-2.549-.418-4.634-.213-.463.877-2.487.79-3.636z"/><path d="M-441.294 81.81c.149.142.22.347.238.592l-.238-.592zm47.28 19.927l-6.714 3.423c-2.018 1.029.187 3.886-1.642 2.611-.512-.357-1.207-.187-1.702-.707-.548-.575-.359-1.988-1.144-2.409-.274-.147-.191 1.339-.204 1.333-.935-.413-1.443-2.016-1.63-1.753-.136.192-.243 1.664-.362 1.67-.776.036-1.47-1.824-2.424-1.57-.921.245-.038 1.874-.587 2.126-.16.073-2.163-.904-2.675-.88-.7.032.288 1.965-.506 1.506-1.2-.693-23.083 2.734-23.566 1.53-.092-.228 2.699-1.209 2.263-2.767-.381-1.359-1.481-3.051-.509-3.712 1.987-1.35-.916-5.963-.591-5.352.576 1.084 8.508-.638 8.134-1.46-.316-.693 5.768-.501 6.471-.192 1.626.715 5.966 2.323 7.578 1.673 3.205-1.292 1.904.102 4.874.444.496.057 2.729-.369 2.833-.319.823.394.81 1.524 2.111 1.618.662.048 2.574-.546 2.614-.474 3.373 6.039 7.246-1.839 7.624-2.698 1.561 1.501.478 4.849-.246 6.36zm-47.255-41.188l3.904 7.991-.955-3.974c2.049.903 4.207 3.872 6.459 3.759 0 0 1.436-.396 2.95 1.231.724.778 1.386 1.366 1.891 1.78-.092-.204-.199-.497-.503-.827-.52-.565-1.344-1.253-1.599-1.991.268.084.538.237.829.238.643.001 1.187-.811 1.202-.797.607.531.55 1.006 1.538.919.177-.016 1.384-.56 1.441-.527.489.282-.034 1.462-.246 1.727-.524.654-.982 1.068-1.757 1.389-.242.1-.41.151-.531.16l.538.404-4.067 5.17s-.762.709-2.838 2.171-4.232 4.877-4.232 4.877l-2.446 1.91c.308-3.545.96-5.705.886-6.167s-2.361-8.863-2.361-8.863l-.558-6.376c-.168-1.664.458-4.204.458-4.204z"/></g><path d="M-428.147 99.066c2.401 1.201 2.915 1.021 4.999.576 2.643.331 2.504 2.203 5.335 1.559 1.889-.43 2.024-1.213 2.992-.529 4.438 3.136 4.649-.131 6.06.952 2.856 2.81 3.445.653 4.391.535 1.146-.143-1.052-.297 1.676.068 2.591.347 1.86-.54 4.146 1.713 2.031-1.15 2.915-.555 2.637-2.31-.325-2.393 1.599-2.896.178-5.059-2.113.645-.769-.488.432 2.039.274 2.591-2.862 4.613-4.875 2.665-1.601-.977-1.367-3.502-3.554-2.959-1.727-1.602-3.759-1.492-5.952-1.208-2.27-1.014-4.48-.382-6.753.054-2.541.523-4.305-2.563-6.722-1.49-2.212 1.602-4.68-1.691-6.535.769-1.326 1.309-3.668-.818-3.415 1.494.94 1.212 3.137 2.389 4.959 1.131z" fill="#f9cf6e"/><path d="M-398.054 65.408s-3.052-1.056-2.2-2.446c.423-.69 3.968-4.767 4.645-7.387.324-1.254 2.621-.404 2.621-.404 3.262-.053.341 14.127 1.002 17.473" class="M"/><path d="M-402.549 126.76s.192 1.464 1.729 1.942 2.274 1.286 2.274 1.286.445-.756-1.351.611c-1.538 1.171-8.427 1.117-10.028.37-1.409-.657-4.433-5.307-4.837-6.39s4.933 2.725 5.818 2.758 6.396-.576 6.396-.576z" fill="#a37070"/><path d="M-452.242 199.325l.758.424 1.598.843 1.621.806 1.643.767 1.664.729 1.685.688 1.533.583c.178-.999.418-1.988.921-2.931.372-.697 1.269-.876 1.577-1.423.624-1.109.318-2.713.994-3.927.213-.383 1.576-1.336 1.604-1.546.168-1.292-.435-3.205-.411-4.618.016-.959.636-2.22.556-3.092-.097-1.058-1.44-1.843-1.432-3.394.006-1.056.58-2.021.625-3.024.05-1.108-.325-2.22-.24-3.373.1-1.363.666-2.703.721-4.05.03-.733-2.158-4.431-2.33-6.418-.137-1.572.671-2.777.791-4.235.11-1.34-.513-2.699-.342-4.125.142-1.185.893-2.387.914-3.558.022-1.258-.846-2.91-.898-4.358-.075-2.101 2.887-3.334 1.151-4.342-.5-.29-1.801-3.512 1.97-3.583 3.949-.074 7.406-3.135 6.529-2.815-.945.345-6.488.841-6.643-3.17-2.795-2.991-3.237-2.52-2.98-6.126-3.724-3.731-1.716-2.891-1.111-7.552-2.99-1.551-.803-4.23.493-5.888-.71-4.014 1.49-6.206 4.034-6.502 1.235-1.003 1.53-3.074 1.844-4.305.15-1.026-.027-6.253-.027-6.253l-.403-.898.546-.763 2.847-1.685c3.002-.176 6.202.415 8.818-1.258 1.283 2.46 7.845 3.035 9.052 1.926l2.671.1c1.854-.24 4.46-.141 7.042 1.687.505.358 1.629.162 2.103.615 1.07 1.024.987 3.299 3.171 2.752 3.406-.853 2.47-4.102 2.772-6.486-.075-1.224 1.814-7.521.16-4.616.316 2.26-2.068 4.09-2.453 4.921-.075.899.762 3.522-.719 3.851-2.263-.012-2.344-2.825-3.108-3.757l-.823.3c.213-1.572-2.076-1.791-2.594-2.619-.094-.151.044-2.641-.486-3.64-.696-1.312-1.73-2.142-3.224-2.333-.31-.04-.764.04-1.053-.096-.18-.085-.227-.983-.305-1.163-.303-.704-.835-1.285-1.427-1.759-1.429-1.143-2.704-.397-3.405-.807-.157-.092-.879-2.762-1.283-3.284-.732-.947-1.737-1.932-2.977-2.101-.277-.038-.787.077-1.032-.075-.437-.271-.751-2.072-1.037-2.538-1.046-1.706-2.992-2.75-4.938-2.752-.884-.001-1.768.214-2.567.679 0 0-2.646 3.982-5.286 5.706s-3.389 5.179-3.389 5.179-4.268-8.217-5.166-5.229c-1.198 1.397-4.203 2.662-3.178 6.203 0 0 .608 2.707-1.305 3.788s-.888 5.239-.813 5.889.521 3.318-.275 4.036-1.096 2.956-1.026 4.057 1.523 2.777 1.614 3.441-.31 1.97-.727 2.887-.021 3.79-.187 4.652-.775 2.155-.775 2.155l.839 2.757s-.887 3.695-.716 4.912 1.283 2.477.69 6.11.705 5.068.705 5.068.722 4.01-.165 6.151.962 3.304 1.042 4.638-.706 3.263-1.069 4.324 1.411 3.585 1.919 5.528-1.261 4.433-.454 7.492.812 4.258.176 7.117 1.186 3.948.908 5.74-.261 4.481-.261 4.481.443 3.708-.145 4.926-1.25 3.024-.695 4.159.417 2.162-.428 2.005-2.496.596-2.357 1.697-1.636 2.648-2.341 3.079c-.674.412-1.58 1.362-1.295 2.616z" class="N"/><g class="D B C"><g class="F"><path d="M-411.005 111.585c-1.095.372-2.767 1.69-2.722 4.983.013.98 2.358 2.066 2.911 2.396" class="G"/><path d="M-408.385 117.682c.408-.768 2.147-.823 3.936.067 1.59.79-3.199-.009-3.199-.009 3.14.186 6.812 1.527 7.351 3.334" stroke-width="1.005"/></g><path d="M-439.781 87.013c.11-2.381-1.365-7.899-2.138-10.298-.856-4.088-1.851-3.31-1.683-7.734-.498-3.165-.761-6.076.092-8.426.653-1.593.554-4.742 2.732-4.076 1.947.596 2.947 4.201 5.445 7.019 3.609 4.072 5.619 3.68 8.388 8.05" class="E G"/></g><path d="M-440.985 61.469c.243.43.884 2.504 1.647 5.745s.483 4.975.483 4.975-.99-2.843-1.435-2.304.638 5.549 2.009 9.005 1.22 5.358 1.22 5.358l1.808-3.335-1.278-7.933c-.492-2.88-1.393-6.154-2.035-7.443s-2.417-4.066-2.417-4.066z" fill="#f9cf6e"/><path d="M-436.648 83.134c-2.056-3.287-3.94-9.796-3.868-13.322m-.361-8.676c1.58 2.906 3.108 5.973 3.45 7.661.92 4.553.675 4.557 2.329 12.768" class="B C D E G"/><path d="M-396.443 64.726c.037.075 1.476-2.424 1.779-3.513.28-1.005 1.47-2.294 1.521-1.835.585 3.413.756 13.372.696 13.041l-1.86-2.022z" class="N"/><g transform="matrix(-1.216943 .056035 .06517 1.415341 -550.94805 -39.934517)"><use xlink:href="#T" class="I"/><ellipse cx="117.629" cy="110.558" rx="3.177" ry="2.957" transform="matrix(-.999728 -.023308 -.02605 .999661 0 0)" paint-order="stroke fill markers" class="S"/><path d="M-118.576 104.845c1.007.687 1.9 2.041 2.469 4.335-2.213.889-6.405 1.569-8.926.204-.461-1.721 1.208-4.092 3.276-4.862" stroke-width=".87" class="D F"/><ellipse cx="116.656" cy="110.553" rx="1.052" ry=".609" transform="matrix(-.999696 -.024641 -.024641 .999696 0 0)" paint-order="stroke fill markers" class="I"/></g><g class="B C D E"><path d="M-447.811 129.19c-.485 2.403 1.371 4.952 2.874 5.008-.03 1.994 1.611 4.183 4.524 3.349.154.885 1.937 3.74 4.455 2.354" class="P"/><path d="M-422.402 130.708c1.97-1.641 1.831-4.483-.315-6.358 1.081-.724 3.147-3.204.546-3.703 6.069-2.65 4.503-6.559 2.114-6.013" class="Z"/></g><g transform="matrix(-1.678931 .077307 .077307 1.678931 -634.86789 -64.923384)"><use xlink:href="#T" class="I"/><ellipse cx="118.014" cy="110.986" rx="2.966" ry="2.919" transform="matrix(-.999696 -.024641 -.024641 .999696 0 0)" paint-order="stroke fill markers" class="S"/><path d="M-116.095 108.443c-1.534 2.268-6.395 2.348-8.937.941-.059-.224-.047-.508.027-.824.607-2.612 5.399-7.476 8.911-.117z" stroke-width=".87" class="D F"/><ellipse cx="117.02" cy="110.399" rx="1.052" ry=".609" transform="matrix(-.999696 -.024641 -.024641 .999696 0 0)" paint-order="stroke fill markers" class="I"/></g><g class="D B E"><g class="C"><path d="M-429.273 110.764c-1.939-1.744-5.357-1.798-7.024-1.612m11 2.385c-3.121-1.036-6.037-.673-8.472 1.074m14.167-1.039c-5.831-.53-7.479.368-9.587 2.132" class="Z"/><path d="M-443.951 71.675c-.718.344-2.98 2.006-2.314 5.413-2.228.978-2.228 2.057-2.101 5.029-3.603 1.463-.9 6.85-.684 6.879.317 1.567-1.212 3.87.524 5.464 1.22.914.868.554.931 4.446" class="T"/></g><path d="M-447.728 99.901c.084-.198.142-.368.14-.483l-.007-.513z" class="T"/><g class="C"><path d="M-452.676 198.499c.616-.902.974-1.812 3.27-2.568.633-.742.921-1.57.785-2.705-.164-1.364 2.994-.984 3.244-1.074.783-.284-1.409-2.903-.616-4.732.479-1.105 1.32-1.454 1.46-2.646.307-2.617-1.436-5.203-.008-7.776.926-1.669-.346-2.372-.732-4.158-.343-1.586-.174-3.455.248-5.007.114-.418.218-.655.142-1.165-.202-1.645-1.432-3.187-1.646-4.941-.271-2.223.822-3.822.764-5.24-.068-1.621-1.112-3.15-1.218-4.843-.133-2.138.777-4.22.704-6.314-.041-1.159-.974-2.252-.932-3.738.026-.912.608-1.814.571-2.698-.076-1.829-.973-4.728-1.189-6.552-.376-3.184.32-2.951.397-6.109-2.313-2.876-.053-5.076-.319-6.927-1.485-2.31-.05-4.373.101-5.604.264-2.156-.278-3.216.319-4.707.725-1.808-.027-1.858.071-3.813-.959-.908-.96-2.82-.52-5.081" class="T"/><path d="M-387.638 202.565c.001-.638.404-1.18.389-3.373-.017-2.499-1.804-3.308-1.944-5.598-.074-1.208 1.694-2.104.328-5.914-.574-1.6-2.391-2.981-2.547-4.606-.149-1.555.836-2.004.769-4.224-.05-1.655-1.403-3.938-1.283-5.484.181-2.339 1.266-2.573 1.112-5.044-.111-1.789-.222-2.153-.481-3.823-.358-2.301.592-2.559.293-4.852-.214-1.642-.584-1.765-.783-3.28-.086-.656.791-3.416.896-4.195.208-1.559-.416-2.686-.237-3.59 1.687-4.242.621-7.172.317-8.579 1.666-3.199 1.259-5.071.244-7.675-.504-1.294 2.731-3.389.319-7.828 1.557-3.887.992-4.927.022-6.79 1.57-2.875.631-3.608.014-5.001.483-2.165.654-3.75.089-5.457.744-3.006-.151-4.644-.916-6.39.642-2.009.748-5.076-.375-6.96" class="P"/></g></g><g transform="matrix(.951862 0 0 1.000677 -20.667919 -4.541654)"><path d="M-437.369 105.245l-9.087 3.435-1.924 4.505.273 1.31 2.205-3.407 8.242-1.888z" fill="#1a1a1a" stroke="#000" class="B U"/><path d="M-393.201 104.629c0-.005-5.344.145-7.397.493-.648.11-.869.182-.826.948-.102 2.687.121 5.18.92 7.477 5.744 3.77 6.973 1.282 9.935 5.098l2.396-.097c2.853-.531 3.605-8.514 4.004-12.712 0-.022 0-.044-.003-.065-.249-.763-4.327-1.133-9.03-1.142zm-26.271.016c-5.893.016-12.201.534-14.037 1.342-.494.221-.545.549-.45 1.133.358 4.846 1.062 13.42 5.223 13.861l12.622-1.095c.489-.042.718-.119 1.052-.501 2.482-2.466 4.262-8.74 3.954-13.211a1.05 1.05 0 0 0-.978-1.036c-2.012-.35-4.035-.503-7.386-.493z"/><path d="M-390.244 119.539l2.392-.111c3.051-.259 4.28-10.699 4.28-10.699l1.658-.738c.157-.194.308-2.598.039-2.961l-1.753-.591c-2.099-.707-5.849-.958-9.487-.969h0 0c-4.326-.014-8.485.511-9.132.812l-.008.087v-.049c-1.743-.421-5.892-.37-6.851.063l.011-.048c-.674-.318-4.873-.983-10.377-1.034h-.003c-5.134-.048-11.02.205-14.673 1.109l-3.232.8c-.548.499-.577 3.781-.31 4.034l2.912.865s.976 12.415 6.004 11.967l12.917-1.151c.795-.122.994-.313 1.275-.633 2.68-3.072 4.462-7.774 5.21-10.6 2.299-1.032 5.552-.778 7.064.189.185 1.104.462 2.232.808 3.32 3.908 1.997 10.111 2.299 11.253 6.339zm-29.228-14.895c3.352-.009 5.374.144 7.386.494.847.092 1.004.86.978 1.035.308 4.471-1.472 10.745-3.954 13.211-.333.382-.562.458-1.051.501l-12.622 1.095c-4.162-.441-4.865-9.014-5.223-13.861-.095-.584-.044-.912.45-1.133 1.835-.808 8.144-1.326 14.037-1.342zm18.816 8.442c-.675-2.169-.863-4.509-.768-7.017-.043-.765.178-.837.826-.948 2.054-.348 7.398-.497 7.398-.493h0c4.727.009 8.826.383 9.037 1.153-.398 4.185-1.145 12.232-4.01 12.766l-2.151.087c-2.429-2.817-6.886-3.7-10.331-5.548z" fill="#1a1a1a" stroke="#000" class="U"/><path d="M-419.472 104.644c-5.893.016-12.201.534-14.037 1.342-.494.221-.545.549-.45 1.133.358 4.846 1.062 13.42 5.223 13.861l12.622-1.095c.489-.042.718-.119 1.052-.501 2.482-2.466 4.262-8.74 3.954-13.211a1.05 1.05 0 0 0-.978-1.036c-2.012-.35-4.035-.503-7.386-.493z" fill="url(#A)"/><path d="M-393.201 104.629c0-.005-5.344.145-7.397.493-.648.11-.869.182-.826.948-.103 2.719.126 5.24.948 7.559 3.222 5.943 3.755 3.788 9.934 5.015l2.368-.096c2.853-.531 3.605-8.514 4.004-12.712 0-.022 0-.044-.003-.065-.249-.763-4.327-1.133-9.03-1.142z" fill="url(#B)"/><path d="M-402.519 104.628l.132 4.746c-.718-.474-1.895-.656-3.263-.717l-.187-4.353c1.24.064 2.466-.009 3.318.323z" fill="url(#C)"/><path d="M-1474.634 451.787l8.736-.406c11.531-.98 16.177-40.436 16.177-40.436l6.267-2.788c.593-.732 1.166-9.819.148-11.193l-6.624-2.233c-7.934-2.673-22.107-3.621-35.856-3.664h0 0c-16.351-.051-32.071 1.932-34.514 3.07l-.029.329v-.184c-6.588-1.59-22.267-1.397-25.892.237l.042-.183c-2.546-1.202-18.418-3.716-39.22-3.909h-.01c-19.403-.18-41.649.774-55.456 4.19l-12.215 3.024c-2.07 1.887-2.18 14.289-1.17 15.247l11.005 3.271s3.69 46.921 22.692 45.228l48.819-4.351c3.003-.461 3.756-1.183 4.817-2.393 10.13-11.61 16.865-29.383 19.693-40.064 8.689-3.899 20.983-2.939 26.699.713.504 2.999 1.184 6.045 2.013 9.047m-66.896-28.834c12.667-.035 20.312.543 27.917 1.865 3.203.347 3.793 3.249 3.697 3.913 1.164 16.898-5.563 40.612-14.943 49.933-1.26 1.444-2.124 1.733-3.974 1.893l-47.707 4.137c-15.729-1.666-18.388-34.07-19.741-52.387-.361-2.208-.167-3.447 1.699-4.282 6.937-3.055 30.78-5.01 53.053-5.071zm70.576 31.176c-1.813-7.274-2.678-17.547-2.366-25.79-.164-2.892.673-3.165 3.122-3.582 7.763-1.316 27.959-1.88 27.959-1.862h0c17.865.034 33.359 1.446 34.155 4.359-1.505 15.817-4.329 46.232-15.155 48.248l-8.876.358" transform="scale(.26458333)" fill="url(#D)"/></g><path d="M-401.191 98.334c.058.435.83 3.373 2.466 3.492s2.661.16 2.924-1.317-.199-3.62-.199-3.62l-.894.356c-.03.024.14 1.098-1.349.913-1.929-.24-1.165.812-1.588.233s-1.359-.057-1.359-.057z" class="M"/><path d="M-401.191 98.334c.058.435.83 3.373 2.466 3.492s2.661.16 2.924-1.317-.199-3.62-.199-3.62l-.894.356c.537 3.717-1.896 4.043-2.938 1.146-.423-.579-1.359-.057-1.359-.057z" class="N"/><g class="B C D"><g class="E"><path d="M-435.156 96.917c2.493 1.78 6.742-.623 7.089-1.994 2.048 1.651 4.85 1.727 6.5-.472 1.072 1.08 2.487 2.735 4.479 2.67 1.828.636 3.538-.251 5.071-1.292 1.298 1.97 4.014 2.073 5.822.995.802 1.713 2.227 2.415 4.605 1.141.3 1.724 1.708 4.84 4.424 4.024 2.133-.641 1.939-3.333 1.584-5.29.494-1.054 2.91-3.964 1.307-7.085-.976-1.932 2.155-3.509 1.615-5.542-.068-1.715-.548-3.71-2.02-4.654-.129-1.684.623-3.106-.629-4.822m-2.475-3.641c-.235-3.122-2.274-4.038-4.803-4.164-.513-1.117-2.267-4.001-5.506-3.091-.341-.748-1.502-2.326-3.525-2.885m-13.146 9.687c-1.038 1.101-.683.697-3.26 2.256-1.13.684-1.758 3.059-2.031 4.227-.509 1.294-1.933 1.4-2.885 2.313-.78.45-3.411 3.312-3.646 5.266-3.242 2.431-2.892 2.297-3.712 5.248" class="P"/><path d="M-400.863 63.291l2.421-3.098c2.141-2.391 2.774-4.605 3.726-5.056 1.171-.554 2.304.683 2.304.683 1.655 2.333.103 10.562.364 16.435" class="G"/></g><path d="M-395.26 111.985l.286.552m-2.629.184l.399.865m-2.92-.679l.347 1.625" class="F a"/><g class="E"><path d="M-394.507 95.193c2.052-.443 4.693-2.946 4.387-5.023.573-.202 3.441-1.521 2.208-5.202-.038-1.979.174-4.111-2.082-6.057.044-4.208-.381-4.336-1.825-6.28-3.831-5.879-2.383-5.285-6.758-6.893-1.717-1.591-2.493-3.852-9.949-3.099-3.94-3.681-10.704-2.69-11.1-1.561-4.132-2.15-6.927.214-8.34 1.048-.909-.453-5.277-.083-6.084 2.1" class="P"/><path d="M-396.397 65.885s1.503-4.933 2.093-5.325" class="G"/></g><g class="F"><path d="M-404.88 105.463c.144 1.296.994 2.462 2.53 3.26 3.496 1.816 8.629 3.322 9.579 4.737s.424 3.386.424 3.386c-.523.922-.937 1.972-2.223 2.414" class="G"/><path d="M-394.166 116.505c-.637-.554-2.329 0-3.82 1.303-1.324 1.158 3.37-1.253 3.37-1.253-2.257 1.066-5.302 2.899-5.537 4.482" stroke-width=".981"/><path d="M-407.94 112.731l-.04.202m2.522.259l-.318.898m2.744-.718l.064.997" class="a"/></g></g><path d="M-409.861 126.774l.055 1.519s5.301 1.124 5.94.936 1.504-.259 1.504-.259 1.247.407 2.139.106l1.437-.458s.188.286 1.121.342 1.908.047 2.045-.147-.015-1.222-.068-1.37-2.18-.663-2.642-.943l-2.315-1.342s-1.65 1.906-2.545 2.125-6.67-.509-6.67-.509z" class="I"/><g class="D B C"><g class="F G"><path d="M-392.654 117.995s1.877 4.914.393 7.192c-2.443 3.749-7.559 1.063-8.037-.309m-.039-3.867s1.246 5.308-3.179 6.243c-7.138 1.508-12.523-3.847-12.462-5.688"/><path d="M-399.134 128.795c-.076.957.119 1.663.783 1.363 1.484-.67 3.529 1.441.717 3.151-.933.413.493 1.49-1.083 3.062m.027-6.048c-1.099.694-7.121 2.595-11.325.459-3.873-1.968-5.552-6.733-5.707-8.366m.875-1.355c-1.103-.441-2.066.057-2.503 1.05"/></g><path d="M-419.772 137.178c3.469-.885 3.826 3.889 3.772 3.118 4.182-1.852 4.085-.23 6.373 1.256-.513.488 4.842-4.116 8.425.53-.035-1.036 2.186-5.421 5.441-3.096" class="E P"/><path d="M-402.756 127.071c-.133.41.157 1.784.013 1.871-1.149.698-3.634.478-3.652.163-.019-.338.008-1.536.008-1.536" class="F Q"/></g><path d="M-399.151 128.563c-.436.803-2.968.617-3.236.292" class="B C F I Q"/><path d="M-395.595 127.154c-.133.41-.006 1.215-.159 1.285-.92.425-2.658.613-3.063.224-.244-.235-.189-2.384-.189-2.384" class="B C D F Q"/><path d="M-401.384 126.487c.548-.406 1.093-.661 2.246-.034l-1.226-1.686z" class="S"/><path d="M-406.524 127.563c-.133.41.108 1.237-.038 1.321-1.219.707-3.265-.116-3.37-.605-.103-.483-.084-1.475-.052-1.453" class="B C D F Q"/><g transform="translate(272.032 2.722)"><g clip-path="url(#E)" transform="matrix(.051128 0 0 -.051128 -701.89645 227.83152)"><path d="M505.056 335.967l-37.241 4.1c-73.431 8.256-139.485 79.254-132.997 177.868 1.509 22.932 9.125 48.132 18.193 67.132 4.226 4 23.132 39.324 59.493 61.324 52.207 31.6 88.677 23.376 93.696 22.676-106.704-19.7-128.098-108-133.116-154.9-3.699-35 5.811-67.7 12.589-83 10.478-24 42.524-88.5 119.383-95.2" class="J"/><path d="M521.4 668.367c91.789 0 166.199-74.41 166.199-166.2s-74.41-166.2-166.199-166.2-166.2 74.41-166.2 166.2 74.41 166.2 166.2 166.2" class="R"/><path d="M521.4 635.267c73.509 0 133.1-59.591 133.1-133.1s-59.591-133.1-133.1-133.1-133.101 59.592-133.101 133.1 59.592 133.1 133.101 133.1" class="J"/><path d="M523.9 334.767l-.7 3.9z"/><g class="V"><path d="M359.8 546.167l-21.042 3.472c-.4.1-.7.5-.7.9.1.4.4.7.8.7l21.342-1.172c1.1-.1 1.9-1 1.9-2.1-.1-1.1-1-1.9-2.1-1.9-.1.1-.1.1-.2.1m-6.1-61.5l-20.678 3.685a.96.96 0 0 0-.7.9c.1.4.4.699.8.699l20.978-1.284c1.1-.101 1.9-1 1.9-2.101-.1-1.099-1-1.899-2.1-1.899zm18.9-64l-20.924 3.787a.96.96 0 0 0-.7.899c.1.401.4.701.8.701l21.124-1.387c1.1-.1 1.9-1 1.9-2.1-.1-1.1-1-1.9-2.1-1.9zm41.6-50.601c-2.1.601-4.2.801-6.2 1.101l-6.3.899c-4.2.601-3.928 1.409-8.028 1.909-.4.099-.8.5-.7.899s.4.7.9.7c4.2-.3 3.928-.907 8.128-1.108l6.3-.299c2.1-.1 4.2-.3 6.3-.1 1.1.1 2.1-.7 2.2-1.801s-.7-2.099-1.8-2.199c-.3-.101-.6-.001-.8-.001"/><path d="M521.1 665.767c-83.1 0-154.7-62.9-163.7-147.3-4.699-43.8 8-86.7 35.6-121 27.6-34.2 67-55.7 110.701-60.3a174.32 174.32 0 0 1 17.599-.9c83.101 0 154.7 62.9 163.7 147.3 9.6 90.3-56 171.7-146.4 181.3-5.899.6-11.699.9-17.5.9m.2-333.6c-6 0-12 .3-18 1-44.8 4.8-85.099 26.701-113.4 61.8s-41.3 79.1-36.5 123.9l2-.2-2 .2c9.9 92.5 93.2 159.8 185.7 149.9s159.801-93.2 149.9-185.7c-9.2-86.5-82.599-150.9-167.7-150.9"/><path d="M481.873 335.112h-.2c-92.5 9.899-159.8 93.2-149.9 185.7s93.2 159.8 185.7 149.9c1.1-.1 1.9-1.1 1.8-2.2s-1.1-1.9-2.2-1.8c-90.3 9.6-171.7-56-181.3-146.4-9.6-90.301 56-171.7 146.4-181.301 1.1-.099 1.9-1.099 1.8-2.199-.2-1-1.1-1.7-2.1-1.7M430.8 402.267c-6.2 4.9-11.8 10.7-16.8 16.9l-3.6 4.8c-.6.8-1.1 1.6-1.7 2.5l-1.6 2.5-1.6 2.5-1.5 2.6-1.5 2.6-.7 1.3-.7 1.3c-7.3 14.2-12.1 29.7-14 45.5-3.9 31.7 3.8 64.8 21.7 91.3 8.9 13.3 20.2 24.9 33.2 34.3 12.9 9.4 27.6 16.3 43 20.6 7.7 2.1 15.6 3.6 23.5 4.3s16 .7 23.901 0c8-.6 15.799-2.1 23.5-4.1 3.799-1.1 7.599-2.3 11.299-3.8s7.3-3.2 10.701-5.3c.5-.3.599-.9.299-1.4-.2-.4-.799-.6-1.2-.4l-11.099 3.8c-3.701 1.2-7.401 2.3-11.101 3.3-7.5 2-15.1 3.3-22.899 3.9-7.701.6-15.5.7-23.201-.1-7.7-.7-15.3-2.2-22.8-4.3-14.9-4.2-29-11-41.5-20.1s-23.4-20.4-32-33.2c-17.4-25.6-24.9-57.5-21.3-88.199 1.8-15.401 6.4-30.401 13.4-44.101a146.76 146.76 0 0 1 12.3-19.6c4.7-6.2 9.7-12.1 14.9-17.9.4-.399.3-1-.1-1.399.2-.401-.4-.401-.8-.101m190.5 9.9c-5-6.5-10.899-12.3-17.3-17.5l-4.9-3.7-5.1-3.5c-1.7-1.2-3.5-2.2-5.3-3.2s-3.5-2.1-5.4-3c-7.3-3.9-15-7-22.8-9.4l-3-.9c-1-.3-2-.6-3-.8l-6-1.4c-2-.4-4.099-.701-6.099-1.1-1-.2-2-.4-3.101-.5l-3.1-.4c-4.1-.6-8.2-.6-12.4-.8-2.1 0-4.1 0-6.2.099-1 0-2.1 0-3.1.101l-3.099.2c-4.101.3-8.201.699-12.301 1.4s-8.1 1.5-12.1 2.6c-4 1-7.9 2.3-11.8 3.699a114.37 114.37 0 0 0-11.4 4.801c-7.4 3.6-14.5 8-20.7 13.4-.4.4-.5 1-.1 1.4.3.399.8.5 1.3.2l10.5-5.9c3.6-1.8 7.1-3.7 10.8-5.3 7.3-3.3 14.8-6 22.5-8a121.42 121.42 0 0 1 11.7-2.4c3.9-.701 7.9-1.1 11.9-1.3l3-.2c1-.1 2 0 3-.1 2 0 4-.101 6-.101 4 .201 8 .301 11.9.801l3 .3c1 .1 2 .3 3 .5 2 .3 3.9.6 5.9 1l5.8 1.3c1 .2 1.9.5 2.9.8l2.9.799c7.6 2.301 15.1 5.201 22.2 8.901s13.9 7.9 20.2 12.8 12.401 10.2 18.2 15.7c.4.4 1 .4 1.4 0 .5-.401.5-.901.2-1.3m10.6 163.9c7.5-9.8 13.3-20.9 17.3-32.7 1-2.9 1.899-5.9 2.7-8.9.699-3 1.5-6 2.1-9.1 1.099-6.1 2-12.3 2.2-18.5.599-12.4-.7-24.9-3.601-37s-7.699-23.7-14.399-34.1c-.3-.5-.901-.6-1.401-.3-.399.3-.599.8-.399 1.3 5.1 11 9.199 22.4 11.899 34.1 1.3 5.9 2.3 11.8 2.8 17.8.601 6 .7 12 .5 18s-.899 12-1.899 17.9c-.5 3-1.2 5.9-1.8 8.8-.801 2.9-1.5 5.8-2.5 8.7-3.601 11.5-8.9 22.4-15 32.8-.301.5-.101 1.1.399 1.4.201.4.8.2 1.101-.2"/><path d="M607.4 603.267c1.5-.7 2.899-1.7 4.199-2.6 1.301-1 2.601-2.1 3.7-3.2 1.201-1.1 2.3-2.3 3.3-3.6s2-2.6 2.7-4.1c.3-.5.101-1.1-.5-1.4-.299-.2-.7-.1-1 .1-1.399.9-2.599 1.9-3.799 3l-3.5 3.2-3.3 3.4-3.101 3.7c-.3.5-.199 1.1.2 1.4.3.3.701.3 1.101.1m-68.5 61.5h-.2l-40.331 3.388c-1.099.1-1.899 1.1-1.799 2.2s1.1 1.9 2.2 1.8l42.417-3.294c1.101-.1-.187-1.195-.287-2.295-.2-1-1-1.8-2-1.8m-35.4-331.599h-.2l-42.4 4.5c-1.1.1-1.9 1.1-1.8 2.2s1.1 1.9 2.2 1.8l42.4-4.5c1.1-.101 1.9-1.101 1.8-2.2s-1-1.8-2-1.8m-110.6 273l-22.545 2.71c-.5.1-.9.6-.9 1.1.1.5.5.9 1.1.9l22.745-.81c1.1-.1 1.9-1 1.8-2.1s-1-1.9-2.1-1.8zm51.2 41.2l-21.254 2.959c-.5.1-.9.6-.8 1.1s.5.9 1.1.9l21.454-.959c1.1-.1 1.9-1 1.9-2.1s-1-1.9-2.1-1.9z"/></g><path d="M568.7 499.967l-16.8 39.5 2.8 32.8 20.8 3.6-6.6-74.8z" class="W"/><path d="M551.9 539.467l16.8-39.5.2 1.1 6.6 74.8 16.599 2.8 20.801 3.5-17-154-20.7-3.5-11.601-2-29.699 69.7-4.2-42.2-3.401-33.8-20.799-3.5-11.5-1.9-62.201 140.5 17 2.9 20.701 3.5 13.2-31 16-38.1.8-2 7 77.4 11.7 2 20.8 3.5z" class="R"/><g class="W"><path d="M533.9 492.367l29.699-69.7-20.699-3.5-13.2 31zm-48.2 68.3l20.8 3.5-7-77.4-.8 2-16 38.1zm-53.9-9.2l62.2-140.5-20.8-3.5-62.2 140.5z"/></g><g stroke-width="4.153" stroke-miterlimit="10" class="B C D H"><path d="M592.1 578.667l20.801 3.5-17-154-20.7-3.5m-57.001 141.5l20.8 3.5 12.9-30.2 16.8-39.5.2 1.1 6.6 74.8m-92.8-49l16-38.1.8-2 7 77.4m-57.7-9.8l20.7 3.5 13.2-31"/><path d="M494 410.967l-62.2 140.5m97.9-101.3l-3.4-33.8-20.8-3.5m58.1 9.8l-29.699 69.7-4.2-42.2m-47.001 76.7h0l3 33.8 20.8 3.5 11.7 2"/><path d="M448.8 554.367l-17-2.9-20.8-3.5 62.2-140.5 20.8 3.5 11.5 1.9m69.7 11.8l-11.601-2-20.699-3.5-13.2 31m22.2 89.3l2.8 32.8 20.8 3.6 16.599 2.8"/></g></g><path d="M-678.413 193.79c.215.431 1.966.006 2.35-.174-.192-.391-.161-2-.608-3.233-.422-1.164-1.73-.837-1.918-.201-.235.792.117 3.651.176 3.607z" class="H J b"/><path d="M-677.974 189.892l.533 3.911c-.234.11-.84.035-.884-.082-.205-.542-.291-2.613-.222-3.336.049-.513.524-.594.524-.594z" class="W"/><g transform="rotate(338.307 -677.664 190.603)" class="K L"><path d="M-674.819 188.111l.155-.076c1.302-.611 2.612-.566 2.924.101s-.49 1.702-1.792 2.313-2.612.566-2.924-.101c-.269-.373.133-.949.282-1.132a3.42 3.42 0 0 0-1.421.411c-.26.488-.333.935-.15 1.326.483 1.031 2.508 1.101 4.521.156s3.254-2.546 2.771-3.577-2.399-.819-4.522-.156c-.724.226-3.156 1.917-2.747 2.281.322-.051.92-.56 1.496-.53z" fill="url(#F)" paint-order="stroke fill markers"/><use xlink:href="#U" fill="url(#H)" paint-order="stroke fill markers"/></g><g transform="rotate(338.307 -688.799 175.696)" class="K L"><use xlink:href="#U" x="-2.927" y="1.466" fill="url(#S)" paint-order="stroke fill markers"/><use xlink:href="#U" fill="url(#H)" paint-order="stroke fill markers"/></g><g transform="rotate(338.307 -699.77 161.038)" class="K"><g class="L"><use xlink:href="#V" fill="url(#I)" paint-order="stroke fill markers"/><use xlink:href="#W" fill="url(#J)" paint-order="stroke fill markers"/><use xlink:href="#X" fill="url(#K)" paint-order="stroke fill markers"/></g><path d="M-669.002 182.894c.184-.141.482-.273.89-.425l.038-.639m.779-.875c.441-.285 1.004-.292 1.405-.007.644.457.776 1.563.294 2.469s-1.242 1.304-1.886.847c-.424-.227-.44-.427-.459-.625-.161.088-.658.023-.867.496.141.485.318.724.696.992.996.707 2.408.144 3.154-1.257s.542-3.111-.454-3.818c-.348-.247-.809-.328-1.212-.284" fill="url(#L)" stroke-width=".251" paint-order="stroke fill markers"/></g><g transform="matrix(-.992107 .125395 .125395 .992107 -1380.753 84.433272)" class="K L"><use xlink:href="#U" x="-2.927" y="1.466" fill="url(#S)" paint-order="stroke fill markers"/><use xlink:href="#U" fill="url(#H)" paint-order="stroke fill markers"/></g><g transform="matrix(-.992107 .125395 .125395 .992107 -1387.3857 82.187307)" class="K L"><use xlink:href="#U" x="-2.927" y="1.466" fill="url(#S)" paint-order="stroke fill markers"/><use xlink:href="#U" fill="url(#H)" paint-order="stroke fill markers"/></g><g transform="matrix(-.992107 .125395 .125395 .992107 -1393.9104 79.970751)" class="K L"><use xlink:href="#V" fill="url(#I)" paint-order="stroke fill markers"/><use xlink:href="#W" fill="url(#J)" paint-order="stroke fill markers"/><use xlink:href="#X" fill="url(#K)" paint-order="stroke fill markers"/><use xlink:href="#X" x="2.963" y="-2.156" fill="url(#M)" paint-order="stroke fill markers"/><path d="M-664.174 179.984l.121-.123c1.027-1.008 2.277-1.399 2.793-.874s.101 1.768-.925 2.776-2.277 1.399-2.793.874c-.377-.263-.188-.939-.108-1.162-.232.096-.719.331-1.204.858-.084.546-.005.993.298 1.301.798.813 2.731.208 4.318-1.35s2.228-3.48 1.43-4.292-2.731-.208-4.318 1.35c-.448.44-.971 1.068-1.121 1.331.287-.155.957-.526 1.51-.688z" fill="url(#N)" paint-order="stroke fill markers"/><path d="M-662.181 177.495l.11-.133c.936-1.092 2.149-1.589 2.707-1.11s.253 1.753-.683 2.845-2.148 1.589-2.707 1.11c-.399-.23-.268-.919-.208-1.148a3.42 3.42 0 0 0-1.126.958c-.037.552.08.989.408 1.27.864.741 2.739-.027 4.186-1.716s1.921-3.658 1.056-4.399-2.739.027-4.186 1.716c-.409.477-.876 1.148-1.003 1.422.272-.179.908-.606 1.446-.815z" fill="url(#O)" paint-order="stroke fill markers"/><path d="M-660.479 174.792l.087-.149c.75-1.228 1.868-1.911 2.496-1.528s.529 1.69-.221 2.918-1.867 1.911-2.496 1.528c-.43-.163-.412-.865-.388-1.1-.202.15-.616.496-.959 1.126.052.55.237.964.606 1.189.971.594 2.699-.464 3.859-2.362s1.312-3.918.341-4.511-2.699.464-3.859 2.362c-.327.536-.682 1.273-.763 1.564.24-.22.8-.743 1.297-1.035z" fill="url(#P)" paint-order="stroke fill markers"/><path d="M-659.05 171.669c.021-.053.049-.104.066-.159.389-1.292.826-2.039 2.261-1.858.675.294.758 1.601.185 2.92s-1.585 2.151-2.26 1.858c-.449-.102-.527-.8-.537-1.036-.179.176-.542.576-.794 1.247.127.538.368.922.764 1.094 1.044.454 2.609-.832 3.495-2.872s.19-3.934-.855-4.388c-1.96.203-2.129.768-2.927 2.745-.235.582-.499 1.355-.54 1.654.208-.252.689-.846 1.141-1.205z" fill="url(#Q)" paint-order="stroke fill markers"/><path d="M-659.61 170.594l-.014.288c.085-.236.021-.567.309-.905l-.795-.849m.003-2.469c.246-.443.749-.5 1.265-.343.882.267 1.682 1.484 1.788 2.718s-.523 2.017-1.404 1.75c-.077.135-.723.876.105 1.22 1.363.413 2.335-.798 2.172-2.705s-1.402-3.789-2.765-4.202c-.23-.07-.449-.093-.654-.075" fill="url(#R)" paint-order="stroke fill markers"/></g><g transform="matrix(-.992107 .125395 .125395 .992107 -1373.9534 86.682875)" class="K L"><path d="M-674.819 188.111l.155-.076c1.302-.611 2.612-.566 2.924.101s-.49 1.702-1.792 2.313-2.612.566-2.924-.101c-.269-.373.133-.949.282-1.132a3.42 3.42 0 0 0-1.421.411c-.26.488-.333.935-.15 1.326.483 1.031 2.508 1.101 4.521.156s3.254-2.546 2.771-3.577-2.469-1.013-4.522-.156c-.797.333-3.061 2.232-2.646 2.243.322-.051.829-.429 1.405-.399z" fill="url(#F)" paint-order="stroke fill markers"/><use xlink:href="#U" fill="url(#H)" paint-order="stroke fill markers"/></g></g></g><path d="M144.525 200.025a74.667 74.667 0 0 0 4.263-1.89 74.667 74.667 0 0 0 4.244-2.214 74.667 74.667 0 0 0 4.093-2.481 74.667 74.667 0 0 0 3.926-2.738 74.667 74.667 0 0 0 .254-.196c-.08-.892-1.476-1.38-3.094-.975-.635-2.742-3.304-1.986-4.449-2.747-4.615-3.066-6.8-1.732-6.725-1.452l-8.244 1.256-7.075 4.216-2.627 3.567s1.917 3.461 2.926 3.797l8.627 2.9c.269.061 2.048-.473 3.881-1.043z" class="M"/><g class="B"><path d="M133.451 190.638c2.087-3.663 3.992-1.013 4.573-1.427.523-.372 2.916-2.484 3.851-2.195 1.456.451 2.196-1.583 2.829-1.724.822-.184 2.065.268 2.602.13 1.05-1.152 2.611-1.261 4.006-.81.798.268 1.882.968 2.374 1.703.129.192.121.499.312.656.386.318 1.453-.173 1.96.008 1.448.516 1.678 1.432 2.565 2.378.093.099.931-.058 1.145.028.675.271.823.24.745.981" class="C D E X"/><path d="M96.898 159.111l8.919-12.349c.146-.203 3.334.772 2.373 2.424l-5.343 7.84 8.686-5.875c1.653-.044 5.442.155 5.229 3.212L106.649 165.4c.028-2.996-1.489-1.624-1.773-2.539.175-1.202-.695-1.99-2.879-2.259-.333-1.491-1.985-1.518-3.48-1.51.051-.705-.03 1.006-1.553.654z" fill="#2c2a1e" class="F G"/></g><g transform="rotate(328.039 -333.913 -991.391)"><path d="M-617.054 221.191l1.42 4.728 1.309 3.191 1.455 3.127 1.598 3.057 1.737 2.98 1.874 2.896.268.375c.359.081 2.584.542 4.265-.286 1.827-.9 4.296-1.233 5.202-2.286s4.266-.62 5.587-1.987 2.097-2.624 2.097-2.624 3.396.114 4.745-2.004 3.074-1.909 3.074-1.909.855.297 1.754-.831l1.94-2.257 3.214-1.798 2.099-1.085s1.203-.932.647-1.773-.337-3.057-1.018-3.603.154-3.215-.83-3.542-.921-3.86-2.19-3.336l-3.654 2.127-4.058.229-2.097 1.849-3.277.337-1.191 1.421c-.299.387-4.574.635-4.574.635l-2.014 2.461c-1.334-.235-3.234-2.925-4.5-.486-3.211.012-6.3-.897-8.679 1.199-2.204-.931-4.292-2.463-6.2-.804z" class="M"/><path d="M-605.887 234.563c1.793-.572 4.121.731 5.362-1.226 2.067.416 4.431-.699 5.325-2.384 2.218.559 3.864-.56 5.362-2.015 4.001.268 3.744-2.593 5.616-3.294 4.353.155 3.226-2.947 5.686-2.738 2.994-.336 3.334-2.245 3.599-4.849 2.319-.094 1.35 2.379 1.91 3.783.887 2.866-2.671 3.37-4.137 4.947-2.401.303-3.416 2.498-5.142 3.746-2.85-.815-3.44 2.921-6.025 3.374-3.206-.726-3.423 3.883-6.529 3.767-2.382-.208-3.357 1.582-4.726 3.041-2.632-.508-4.701 2.455-7.28 1.402l-4.799-7.768c-1.287-2.083 4.345 1.059 5.778.214z" class="N"/><path d="M-616.336 220.919c2.152-1.34 4.656 1.959 5.883.924.826-.697 2.744-1.623 3.843-1.195 1.837.715 2.074.18 3.774.248 1.937-3.081 4.813.868 5.743-.619 1.648-2.635 5.009-1.593 6.027-1.776 1.866-3.337 3.632-1.092 5.22-2.639 3.298-3.212 4.162.184 6.185-2.008.873-1.22 5.48-2.31 3.751 1.319.914-.229 2.386.939 1.302 3.207 1.514.765 2.179 2.022 1.095 3.178.404.861 1.314 1.082.581 2.447-2.053 2.417-1.501-.065-3.939 2.703-2.714 1.383-2.213.465-3.633 2.66-1.883 2.101-.99 1.023-3.994 1.444-1.817 1.506-1.659 3.268-5.801 3.39-.495 1.991-2.564 3.866-5.981 3.896-3.036.027-1.656 2.733-5.962 2.514-1.155 1.306-2.496 1.783-4.306 1.114" class="B C D E X"/></g><g class="B"><path d="M103.955 196.835l-9.36 10.676c-.165.188 1.524 2.438 2.705.935l5.902-6.245-4.659 10.125c-.003 1.653.229 4.761 3.28 4.472l10.78-10.386c-2.994.103-1.661-1.448-2.582-1.709-1.197.205-2.007-.645-2.331-2.821-1.499-.296-1.567-1.946-1.597-3.441-.704.068-.9-.787-1.29-2.3z" fill="#2c2a1e" class="F G"/><path d="M101.36 150.511c-.313.668-.339 1.38.241 1.728l3.277 1.84c.491.26.975.327 1.396-.161.646-.669 1.667-1.95 1.088-2.159l-.569.568c-2.298-.139-3.717-1.664-4.295-2.259l.573-.755c-.506-.232-1.028-.477-1.711 1.199z" class="H J U"/></g><g transform="matrix(-.377997 .925807 .925807 .377997 -141.09578 231.50258)"><g class="B H J O"><use xlink:href="#Y"/><use xlink:href="#Z"/><use xlink:href="#a"/><use xlink:href="#b"/><use xlink:href="#c"/><use xlink:href="#d"/><use xlink:href="#e"/><use xlink:href="#f"/></g><use xlink:href="#g" class="B H O V"/><use xlink:href="#h" class="B H J O"/><use xlink:href="#i" class="R"/></g><g transform="matrix(-.94431 .329057 .329057 .94431 -508.19643 181.20599)"><g class="M"><path d="M-575.328 225.908a1.73 1.73 0 0 0 .01.455c.183.992-1.288 1.38-1.288 1.38l-2.356.18.226-.547 2.335-.971 1.073-.497z"/><path d="M-575.328 225.908l-1.073.497-2.335.971.006-.015s-.49.138-1.081.43l-2.046.758-2.787.91-2.821.8c-.945.248-1.545 1.101-2.499 1.312s-2.264-.22-3.226-.047l-2.895.463c-.977.641-2.505 2.161-3.447.583-.973.097-1.457.481-2.387 0-.868-.449-1.952.099-2.929.119l-2.932.005-2.93-.111-2.923-.226-2.912-.34-2.897-.454-1.063-.21c6.857-3.664 11.686 2.374 13.194-.222.998.392 7.564-7.114 7.564-7.114l1.29-3.147 2.797-2.052s3.123-.93 3.422-1.317 2.344-.739 2.344-.739l3.277-.338 3.629-.839 3.85.081 4.194-.532c1.373.012-.064 3.24.714 3.925s-1.032 2.816-.619 3.585c.357.665-.387 2.212-.479 3.261z"/></g><g class="N"><path d="M-613.984 232.311l-1.711-.181-2.831-.409-.267-.049c-.493-1.325-.387-2.311 1.793-1.248 1.191-.768 2.108.54 3.016 1.887zm38.87-6.501l-.003.101c-.125 2.998-3.343 1.358-5.253 2.353l-.489-.083 1.684-.623 2.643-1.095 1.418-.652z"/><path d="M-575.114 225.81l-1.418.652-2.643 1.095-1.684.623c-.502-.059-.667.048-.708.262l-.291.107-2.719.889-2.751.784c-.922.244-1.861 1.058-2.791 1.266s-1.852-.188-2.79-.015l-2.823.464c-2.87 2.162-8.102.232-8.188.243.598.2 6.726-.316 6.548-1.368 2.218.559 5.189-.855 6.687-2.311 4.001.268 4.589-2.157 6.462-2.858 4.353.155 1.31-1.596 3.558-.575 2.933.687 3.893-.997 5.016-3.362 2.168.674.554 2.605.534 4.103z"/></g><path d="M-602.217 219.919c2.515-2.296 5.441-.253 6.943-.389 1.648-2.635 4.995-2.506 6.02-2.368 2.8-2.602 3.792.076 5.778-.909 4.125-2.045 2.842.283 5.599-.858 1.305-.741 5.944.204 2.851 2.772.925.176 1.771 1.854-.165 3.458 1.053 1.33 1.128 2.75-.34 3.344.005.952.738 1.533-.5 2.464-2.878 1.332-3.186-.278-6.562 1.211l-5.625 2.165c.358.876-4.426 1.706-4.956 1.39-1.274-.759-4.341 2.697-6.517.83-2.389.904-2.947-.005-3.909-.513" class="B C D E X"/></g><g class="B O Y"><g fill="#ccc"><use xlink:href="#Y" x="263.856" y="1.005"/><use xlink:href="#Z" x="263.856" y="1.005"/><use xlink:href="#a" x="263.856" y="1.005"/><use xlink:href="#b" x="263.856" y="1.005"/><use xlink:href="#c" x="263.856" y="1.005"/><use xlink:href="#d" x="263.856" y="1.005"/><use xlink:href="#e" x="263.856" y="1.005"/><use xlink:href="#f" x="263.856" y="1.005"/></g><use xlink:href="#g" x="263.856" y="1.005" fill="#b3b3b3"/><use xlink:href="#h" x="263.856" y="1.005" fill="#ccc"/></g><use xlink:href="#i" x="263.856" y="1.005" fill="#e6e6e6"/><circle cx="95.154" cy="170.79" r="4.826" stroke-width=".794" paint-order="stroke fill markers" class="B H J"/><g class="R"><path d="M98.708 172.882l.693.235c.554-1.09.762-2.183.312-3.964l-.75-.007c.161 2.181.272 1.698-.255 3.737z"/><circle cx="94.238" cy="170.569" r="4.705" stroke-width=".774" paint-order="stroke fill markers" class="B H"/></g><circle cx="94.238" cy="170.569" r="4.032" stroke-dasharray="0.264583, 1.5875" paint-order="stroke fill markers" class="B C D H b"/><g class="V"><circle cx="94.242" cy="170.557" r=".513" paint-order="stroke fill markers"/><path d="M94.288 170.088l1.749-2.317-1.44 2.584zm.242.64l1.972 3.018-2.163-2.874z"/></g><g class="I c"><path d="M98.762 169.311a4.705 4.705 0 0 0-.058-.189 4.705 4.705 0 0 0-.078-.218 4.705 4.705 0 0 0-.088-.213 4.705 4.705 0 0 0-.099-.209 4.705 4.705 0 0 0-.109-.204 4.705 4.705 0 0 0-.119-.198 4.705 4.705 0 0 0-.128-.192 4.705 4.705 0 0 0-.138-.186 4.705 4.705 0 0 0-.146-.179 4.705 4.705 0 0 0-.155-.171 4.705 4.705 0 0 0-.163-.163 4.705 4.705 0 0 0-.172-.155 4.705 4.705 0 0 0-.178-.146 4.705 4.705 0 0 0-.186-.138 4.705 4.705 0 0 0-.192-.128 4.705 4.705 0 0 0-.198-.119 4.705 4.705 0 0 0-.204-.108 4.705 4.705 0 0 0-.209-.099 4.705 4.705 0 0 0-.213-.089 4.705 4.705 0 0 0-.218-.078 4.705 4.705 0 0 0-.221-.067 4.705 4.705 0 0 0-.224-.056 4.705 4.705 0 0 0-.226-.046 4.705 4.705 0 0 0-.228-.034 4.705 4.705 0 0 0-.23-.023 4.705 4.705 0 0 0-.231-.011 4.705 4.705 0 0 0-.115-.002 4.705 4.705 0 0 0-.67.048 4.705 4.705 0 0 0-.656.143 4.705 4.705 0 0 0-.629.235 4.705 4.705 0 0 0-.589.322 4.705 4.705 0 0 0-.537.402 4.705 4.705 0 0 0-.475.475 4.705 4.705 0 0 0-.402.537 4.705 4.705 0 0 0-.076.129 4.354 4.354 0 0 0-.001.021 4.354 4.354 0 0 0 8.562 1.107z" paint-order="stroke fill markers"/><circle cx="90.933" cy="170.277" r="1.39" paint-order="stroke fill markers"/></g></g></svg>