<svg xmlns="http://www.w3.org/2000/svg" xmlns:xlink="http://www.w3.org/1999/xlink" viewBox="0 0 270.933 270.933" height="1024" width="1024" xmlns:v="https://vecta.io/nano"><style><![CDATA[.B{fill:#769576}.C{fill:none}.D{stroke-linejoin:round}.E{stroke-linecap:round}.F{stroke:#458045}.G{fill:#458045}.H{fill:#2c512c}.I{stroke-width:.529}.J{stroke:#4b4633}.K{stroke-width:.439}.L{stroke-width:.999}.M{stroke:#f9cf6e}.N{fill:#fff}.O{fill:#ffe99f}.P{stroke-width:1.498}.Q{stroke-width:.753}.R{stroke-width:.911}.S{fill:#fff0be}.T{fill:#d9e8f2}.U{fill:#4b4633}.V{stroke-width:1.493}.W{stroke-width:.418}.X{stroke-width:.504}.Y{stroke-width:1.366}.Z{stroke-width:.499}]]></style><defs><linearGradient id="A" x1="461.971" y1="140.688" x2="442.741" y2="118.781" xlink:href="#N"><stop offset="0" stop-color="#769576"/><stop offset=".324" stop-color="#576e57"/><stop offset=".459" stop-color="#848484"/><stop offset=".557" stop-color="#babb7f"/><stop offset=".708" stop-color="#dc9e41"/><stop offset="1" stop-color="#ff3d3d"/></linearGradient><linearGradient id="B" x1="468.749" y1="143.485" x2="446.031" y2="118.2" xlink:href="#N"><stop offset="0" stop-color="#769576"/><stop offset=".324" stop-color="#576e57"/><stop offset=".459" stop-color="#848484"/><stop offset=".668" stop-color="#bbbba0"/><stop offset=".876" stop-color="#dcb578"/><stop offset="1" stop-color="#fff"/></linearGradient><linearGradient id="C" x1="-394.699" y1="80.035" x2="-425.534" y2="118.574" xlink:href="#N"><stop offset="0" stop-color="#1d1d1d"/><stop offset="1" stop-color="#fff" stop-opacity="0"/></linearGradient><linearGradient id="D" x1="-377.3" y1="87.456" x2="-394.394" y2="114.495" xlink:href="#N"><stop offset="0" stop-color="#fff"/><stop offset="1" stop-color="#fff" stop-opacity="0"/></linearGradient><linearGradient id="E" x1="-399.293" y1="106.819" x2="-405.788" y2="106.577" xlink:href="#N"><stop offset="0" stop-color="#666"/><stop offset="1" stop-color="#666" stop-opacity="0"/></linearGradient><linearGradient id="F" x1="-1538.57" y1="351.756" x2="-1540.315" y2="438.627" xlink:href="#N"><stop offset="0" stop-color="#646464"/><stop offset="1" stop-color="#1a1a1a" stop-opacity="0"/></linearGradient><linearGradient id="G" x1="417.631" y1="143.436" x2="419.997" y2="144.444" xlink:href="#N"><stop offset="0" stop-color="#4d4d4d"/><stop offset="1" stop-color="#9f9f9f"/></linearGradient><path id="H" d="M457.63 119.103c4.346 5.926 6.331 8.356 7.519 16.514.826 5.672 4.938 15.174 4.957 15.132l-15.736.64c-2.203-7.254-2.082-9.374-2.95-14.302-1.221-6.94-4.846-11.629-8.829-16.585z"/><path id="I" d="M453.888 143.109l-1.054-6.525c-1.013-5.758-4.675-11.339-7.98-15.451l9.697-.85m5.792 5.182c1.597 2.871 2.692 5.911 3.3 10.089.685 4.706 4.293 13.296 4.309 13.261l-9.881.518"/><path id="J" d="M454.578 133.756l.64-.083q-.021-.491.08-.814.106-.321.413-.587.308-.263.8-.363l.23.632q-.503.142-.712.362-.295.316-.27.7l2.037-.263q.008-.407.169-.851.119-.33.392-.537.274-.203.658-.253.682-.088 1.187.344.339.289.511.921l.306-.039.064.379-.306.039q.041.568-.177.933-.277.467-.87.631l-.212-.652q.367-.106.535-.314.172-.205.183-.528l-1.845.238q-.039.502-.08.668-.081.317-.237.531-.156.214-.399.347-.242.137-.544.176-.665.086-1.181-.283-.516-.368-.662-1.04l-.647.083zm5.602-.722q-.12-.368-.399-.555-.278-.183-.608-.141-.327.042-.517.253-.189.214-.246.671zm-4.358.949q.11.369.428.577.319.211.728.158.348-.045.528-.247.184-.199.264-.739z"/><path id="K" d="M442.411 137.231h-.31v-1.976q-.112.107-.295.214-.181.107-.326.16v-.3q.26-.122.455-.296.195-.174.276-.338h.2z"/><path id="L" d="M443.205 135.986q0-.448.091-.72.093-.274.274-.422.183-.148.458-.148.203 0 .357.083.153.081.253.236.1.153.157.376.057.22.057.596 0 .444-.091.718-.091.272-.274.422-.181.148-.458.148-.365 0-.574-.262-.25-.315-.25-1.027zm.319 0q0 .622.145.829.146.205.36.205.214 0 .358-.207.146-.207.146-.827 0-.624-.146-.829-.145-.205-.362-.205-.214 0-.341.181-.16.231-.16.853z"/><path id="M" d="M-116.095 108.443c-1.534 2.268-6.395 2.348-8.937.941-.545-2.08 5.001-9.19 8.938-.941z"/><linearGradient id="N" gradientUnits="userSpaceOnUse"/></defs><circle cx="135.467" cy="135.467" r="83.386" fill="#444" paint-order="stroke fill markers"/><g transform="matrix(.976362 0 0 .976362 -251.922121 -.090551)"><circle cx="396.768" cy="138.839" r="76.549" fill="#b40505" paint-order="stroke fill markers"/><g transform="matrix(.870619 .288022 -.713024 .803502 111.99525 -48.28872)"><g class="F"><use xlink:href="#H" class="B I"/><use xlink:href="#I" class="C K"/></g><ellipse cx="461.525" cy="76.125" rx="4.726" ry="4.978" transform="matrix(.992173 .124869 0 1 0 0)" paint-order="stroke fill markers" class="G"/><use xlink:href="#J" class="B"/><g class="H"><g transform="matrix(.523414 .871694 -.86556 .011416 342.67339 -266.57989)"><use xlink:href="#K"/><use xlink:href="#L"/><use xlink:href="#L" x="1.962"/></g><g transform="matrix(.257669 .993301 -.99291 .019366 476.3978 -296.47972)"><use xlink:href="#K"/><use xlink:href="#L"/><use xlink:href="#L" x="1.962"/></g></g></g><g transform="matrix(.663261 .270845 -.364643 .573074 153.91606 -43.388301)"><g class="F"><use xlink:href="#H" class="B I"/><use xlink:href="#I" class="C K"/></g><ellipse cx="461.525" cy="76.125" rx="4.726" ry="4.978" transform="matrix(.992173 .124869 0 1 0 0)" paint-order="stroke fill markers" class="G"/><use xlink:href="#J" class="B"/><g class="H"><g transform="matrix(.523414 .871694 -.86556 .011416 342.67339 -266.57989)"><use xlink:href="#K"/><use xlink:href="#L"/><use xlink:href="#L" x="1.962"/></g><g transform="matrix(.257669 .993301 -.99291 .019366 476.3978 -296.47972)"><use xlink:href="#K"/><use xlink:href="#L"/><use xlink:href="#L" x="1.962"/></g></g></g><g transform="matrix(.7181 -.084787 -.1462 .913425 90.166394 18.709526)"><g class="F"><use xlink:href="#H" class="B I"/><use xlink:href="#I" class="C K"/></g><ellipse cx="461.525" cy="76.125" rx="4.726" ry="4.978" transform="matrix(.992173 .124869 0 1 0 0)" paint-order="stroke fill markers" class="G"/><use xlink:href="#J" class="B"/><g class="H"><g transform="matrix(.523414 .871694 -.86556 .011416 342.67339 -266.57989)"><use xlink:href="#K"/><use xlink:href="#L"/><use xlink:href="#L" x="1.962"/></g><g transform="matrix(.257669 .993301 -.99291 .019366 476.3978 -296.47972)"><use xlink:href="#K"/><use xlink:href="#L"/><use xlink:href="#L" x="1.962"/></g></g></g><g transform="matrix(.580984 -.026139 .012289 .560927 181.05772 29.649058)"><g class="F"><use xlink:href="#H" class="B I"/><use xlink:href="#I" class="C K"/></g><ellipse cx="461.525" cy="76.125" rx="4.726" ry="4.978" transform="matrix(.992173 .124869 0 1 0 0)" paint-order="stroke fill markers" class="G"/><use xlink:href="#J" class="B"/><g class="H"><g transform="matrix(.523414 .871694 -.86556 .011416 342.67339 -266.57989)"><use xlink:href="#K"/><use xlink:href="#L"/><use xlink:href="#L" x="1.962"/></g><g transform="matrix(.257669 .993301 -.99291 .019366 476.3978 -296.47972)"><use xlink:href="#K"/><use xlink:href="#L"/><use xlink:href="#L" x="1.962"/></g></g></g><path d="M422.567 77.559l.647.12q.116-.42.304-.663.192-.239.565-.373.373-.131.88-.07l.049.601q-.529-.029-.795.095-.376.179-.458.511l2.058.381q.12-.341.401-.669.207-.243.531-.337.324-.091.712-.019.69.128 1.062.641.251.344.243.928l.309.057-.043.339-.309-.057q-.117.492-.431.735-.4.312-1.024.275l-.025-.613q.387.019.609-.107.225-.122.325-.391l-1.864-.345q-.177.412-.263.54-.167.244-.379.378-.212.134-.485.175-.274.044-.579-.012-.672-.124-1.073-.588-.401-.463-.357-1.074l-.654-.121zm5.661 1.047q-.015-.346-.235-.586-.22-.237-.554-.299-.33-.061-.574.061-.244.125-.426.494zm-4.511-.487q.004.344.257.613.252.272.665.349.352.065.584-.052.235-.114.462-.546z" class="B"/><path d="M460.122 170.407l1.923-6.404c1.621-5.653.734-11.177-.475-15.258l9.267-.667" class="C F W"/><g transform="matrix(.393824 .040553 -.089212 .413597 282.42491 69.237181)"><g class="F"><use xlink:href="#H" class="B I"/><use xlink:href="#I" class="C K"/></g><ellipse cx="461.525" cy="76.125" rx="4.726" ry="4.978" transform="matrix(.992173 .124869 0 1 0 0)" paint-order="stroke fill markers" class="G"/><use xlink:href="#J" class="B"/><g class="H"><g transform="matrix(.523414 .871694 -.86556 .011416 342.67339 -266.57989)"><use xlink:href="#K"/><use xlink:href="#L"/><use xlink:href="#L" x="1.962"/></g><g transform="matrix(.257669 .993301 -.99291 .019366 476.3978 -296.47972)"><use xlink:href="#K"/><use xlink:href="#L"/><use xlink:href="#L" x="1.962"/></g></g></g><g transform="matrix(.663261 .270845 -.364643 .573074 76.224051 -61.02259)"><g class="F"><use xlink:href="#H" class="B I"/><use xlink:href="#I" class="C K"/></g><ellipse cx="461.525" cy="76.125" rx="4.726" ry="4.978" transform="matrix(.992173 .124869 0 1 0 0)" paint-order="stroke fill markers" class="G"/><use xlink:href="#J" class="B"/><g class="H"><g transform="matrix(.523414 .871694 -.86556 .011416 342.67339 -266.57989)"><use xlink:href="#K"/><use xlink:href="#L"/><use xlink:href="#L" x="1.962"/></g><g transform="matrix(.257669 .993301 -.99291 .019366 476.3978 -296.47972)"><use xlink:href="#K"/><use xlink:href="#L"/><use xlink:href="#L" x="1.962"/></g></g></g><g transform="matrix(.353573 .104981 -.077095 .299691 187.08632 72.220408)"><g class="F"><use xlink:href="#H" class="B I"/><use xlink:href="#I" class="C K"/></g><ellipse cx="461.525" cy="76.125" rx="4.726" ry="4.978" transform="matrix(.992173 .124869 0 1 0 0)" paint-order="stroke fill markers" class="G"/><use xlink:href="#J" class="B"/><g class="H"><g transform="matrix(.523414 .871694 -.86556 .011416 342.67339 -266.57989)"><use xlink:href="#K"/><use xlink:href="#L"/><use xlink:href="#L" x="1.962"/></g><g transform="matrix(.257669 .993301 -.99291 .019366 476.3978 -296.47972)"><use xlink:href="#K"/><use xlink:href="#L"/><use xlink:href="#L" x="1.962"/></g></g></g><g transform="matrix(.322443 .033874 -.14104 .345482 289.36082 52.525564)"><g class="F"><use xlink:href="#H" class="B I"/><use xlink:href="#I" class="C K"/></g><ellipse cx="461.525" cy="76.125" rx="4.726" ry="4.978" transform="matrix(.992173 .124869 0 1 0 0)" paint-order="stroke fill markers" class="G"/><use xlink:href="#J" class="B"/><g class="H"><g transform="matrix(.523414 .871694 -.86556 .011416 342.67339 -266.57989)"><use xlink:href="#K"/><use xlink:href="#L"/><use xlink:href="#L" x="1.962"/></g><g transform="matrix(.257669 .993301 -.99291 .019366 476.3978 -296.47972)"><use xlink:href="#K"/><use xlink:href="#L"/><use xlink:href="#L" x="1.962"/></g></g></g><g transform="matrix(.336829 -.116619 -.027128 .34801 258.16447 98.772082)"><g class="F"><use xlink:href="#H" class="B I"/><use xlink:href="#I" class="C K"/></g><ellipse cx="461.525" cy="76.125" rx="4.726" ry="4.978" transform="matrix(.992173 .124869 0 1 0 0)" paint-order="stroke fill markers" class="G"/><use xlink:href="#J" class="B"/><g class="H"><g transform="matrix(.523414 .871694 -.86556 .011416 342.67339 -266.57989)"><use xlink:href="#K"/><use xlink:href="#L"/><use xlink:href="#L" x="1.962"/></g><g transform="matrix(.257669 .993301 -.99291 .019366 476.3978 -296.47972)"><use xlink:href="#K"/><use xlink:href="#L"/><use xlink:href="#L" x="1.962"/></g></g></g><g transform="matrix(.264443 .010181 -.079806 .267261 324.34519 65.459256)"><g class="F"><use xlink:href="#H" class="B I"/><use xlink:href="#I" class="C K"/></g><ellipse cx="461.525" cy="76.125" rx="4.726" ry="4.978" transform="matrix(.992173 .124869 0 1 0 0)" paint-order="stroke fill markers" class="G"/><use xlink:href="#J" class="B"/><g class="H"><g transform="matrix(.523414 .871694 -.86556 .011416 342.67339 -266.57989)"><use xlink:href="#K"/><use xlink:href="#L"/><use xlink:href="#L" x="1.962"/></g><g transform="matrix(.257669 .993301 -.99291 .019366 476.3978 -296.47972)"><use xlink:href="#K"/><use xlink:href="#L"/><use xlink:href="#L" x="1.962"/></g></g></g><path d="M398.019 62.639c-.169.795-.41 1.606-.744 2.442-1.222 3.059-2.075 4.241-3.259 8.995l10.67 3.895c-.028.019.71-6.54 2.23-10.014.785-1.794 1.228-3.19 1.446-4.458h0l-.022-.004" stroke-width=".366" class="B F"/><g transform="matrix(.353573 .104981 -.077095 .299691 294.02292 97.291943)"><g class="F"><use xlink:href="#H" class="B I"/><use xlink:href="#I" class="C K"/></g><ellipse cx="461.525" cy="76.125" rx="4.726" ry="4.978" transform="matrix(.992173 .124869 0 1 0 0)" paint-order="stroke fill markers" class="G"/><use xlink:href="#J" class="B"/><g class="H"><g transform="matrix(.523414 .871694 -.86556 .011416 342.67339 -266.57989)"><use xlink:href="#K"/><use xlink:href="#L"/><use xlink:href="#L" x="1.962"/></g><g transform="matrix(.257669 .993301 -.99291 .019366 476.3978 -296.47972)"><use xlink:href="#K"/><use xlink:href="#L"/><use xlink:href="#L" x="1.962"/></g></g></g><g transform="matrix(.826206 -.181929 -.03169 .801636 81.604044 95.548873)"><g class="F"><use xlink:href="#H" class="B I"/><use xlink:href="#I" class="C K"/></g><ellipse cx="461.525" cy="76.125" rx="4.726" ry="4.978" transform="matrix(.992173 .124869 0 1 0 0)" paint-order="stroke fill markers" class="G"/><use xlink:href="#J" class="B"/><g class="H"><g transform="matrix(.523414 .871694 -.86556 .011416 342.67339 -266.57989)"><use xlink:href="#K"/><use xlink:href="#L"/><use xlink:href="#L" x="1.962"/></g><g transform="matrix(.257669 .993301 -.99291 .019366 476.3978 -296.47972)"><use xlink:href="#K"/><use xlink:href="#L"/><use xlink:href="#L" x="1.962"/></g></g></g><g class="F"><path d="M415.579 65.042c2.049 4.564 3.62 9.039 2.986 14.396-.523 4.416-1.229 6.171-1.095 12.945l15.516 4.113c-.031.03-1.291-9.191-.632-14.239.687-5.262-.63-10.573-.726-11.048-5.372-2.676-10.986-4.706-16.05-6.167z" class="B X"/><path d="M417.437 65.544l-.192-.053c1.823 4.212 3.382 9.325 2.836 13.939-.246 2.079-.57 3.743-.783 5.82m2.35 6.492l9.775 2.485c-.025.025-1.157-8.294-.519-12.469.566-3.707.343-6.596-.417-9.492" class="C W"/></g><ellipse cx="430.654" cy="-95.582" rx="4.792" ry="4.423" transform="matrix(.919442 .393225 -.312358 .949965 0 0)" paint-order="stroke fill markers" class="G"/><path d="M422.444 77.582l.683.114q.134-.489.341-.776.21-.283.61-.451.4-.164.936-.113l.036.692q-.561-.014-.847.139-.404.22-.5.606l2.175.363q.137-.398.443-.786.226-.288.573-.408.346-.116.756-.048.729.122 1.111.701.257.388.233 1.062l.326.055-.055.392-.326-.055q-.138.572-.477.863-.433.375-1.094.355l-.01-.706q.411.008.649-.145.242-.149.356-.463l-1.97-.329q-.199.482-.294.633-.184.287-.412.45-.228.163-.52.22-.292.061-.615.007-.71-.119-1.123-.638-.413-.52-.35-1.225l-.691-.115zm5.982 1q-.007-.399-.233-.668-.227-.265-.58-.324-.349-.058-.611.091-.262.153-.466.585zm-4.777-.397q-.005.397.256.698.261.305.697.378.372.062.621-.082.252-.14.506-.647z" class="B"/><g transform="matrix(-.02454 .914685 -.973219 -.277257 563.25363 -279.17121)" class="H"><use xlink:href="#K"/><use xlink:href="#L"/><use xlink:href="#L" x="1.962"/></g><path d="M459.299 178.461l.289-.429 1.273-2.027 1.208-2.067 1.141-2.104 1.073-2.14 1.004-2.172.934-2.204.862-2.233.791-2.259.718-2.284.644-2.305.57-2.324.495-2.342.42-2.356.29-1.995-11.234.868c1.457 4.918 2.704 9.569.751 16.383-1.387 4.838-2.436 6.911-3.629 14.048z" class="B F X"/><path d="M465.852 166.204l.28-.667.535-1.346.509-1.356.482-1.365.455-1.375.429-1.383.402-1.391.235-.877c-2.055.215-4.232 1.961-5.261 4.219-1.217 2.691-.397 5.166 1.833 5.529l.103.011z" paint-order="stroke fill markers" class="G"/><path d="M467.274 162.633l.254-.721.11-.327c-.132.187-.258.342-.374.428a1.17 1.17 0 0 1-.594.233c-.265.03-.465-.026-.597-.167s-.179-.329-.136-.572l1.795-.202.126-.374-1.812.204c.098-.251.284-.478.558-.681.193-.142.465-.255.814-.342l.069-.622a2.48 2.48 0 0 0-.893.341 2.46 2.46 0 0 0-.639.567c-.158.21-.302.475-.434.795l-.623.07-.109.372.63-.071c-.109.44-.06.783.147 1.029s.525.345.957.297c.196-.022.389-.077.577-.163.061-.027.118-.063.176-.096z" class="B"/><g transform="matrix(-.203601 .97657 -.918943 .002056 675.41715 -259.4531)" class="H"><use xlink:href="#K"/><use xlink:href="#L"/><use xlink:href="#L" x="1.962"/></g><path d="M396.715 69.2l1.68-4.025a12.91 12.91 0 0 0 .7-2.463m8.139.631c-.215 1.283-.621 2.632-1.294 4.169-1.261 2.882-2.001 8.782-1.977 8.767L397.22 73.9" stroke-width=".304" class="C F"/><path d="M405.689 63.138l-.144-.017-.405-.045-.405-.043-.405-.041-.405-.039-.406-.037-.406-.035-.406-.032-.406-.03-.406-.028-.407-.025-.407-.023-.407-.021-.239-.011c-.202.184-.382.389-.535.612-1.002 1.576-.519 3.573 1.08 4.461.768.426 1.695.535 2.578.301a3.63 3.63 0 0 0 2.131-1.546c.663-1.074.663-2.385 0-3.4z" paint-order="stroke fill markers" class="G"/><path d="M400.583 64.027l.454.126q.165-.287.35-.445.187-.155.488-.224.3-.067.662.009l-.078.424q-.385-.055-.605.015-.311.101-.435.328l1.447.401q.153-.231.422-.442.199-.157.456-.201.256-.042.529.033.485.134.662.519.12.257.003.666l.217.06-.096.235-.217-.06q-.18.337-.457.487-.354.192-.807.126l.097-.431q.282.039.47-.035.189-.071.314-.253l-1.31-.363q-.209.277-.296.361-.169.16-.351.24-.182.08-.391.091-.21.013-.425-.046-.472-.131-.68-.482-.208-.351-.06-.775l-.459-.127zm3.979 1.103q.054-.244-.062-.426-.117-.18-.352-.245-.232-.064-.435.005-.204.072-.408.318zm-3.236-.636q-.062.241.073.446.135.207.425.288.247.069.441.001.195-.064.445-.352z" class="B"/><g transform="matrix(-.191299 .639023 -.665621 -.257826 571.93805 -176.61986)" class="H"><use xlink:href="#K"/><use xlink:href="#L"/><use xlink:href="#L" x="1.962"/></g><path d="M427.902 173.299l5.555-.604 6.237-13.207c1.487-.497 4.654.491 5.306 3.324l-4.701 16.414c-.802-2.726-3.082-1.367-3.592-2.118-.173-1.139-1.181-1.614-3.237-1.255-.714-1.261-2.22-.83-3.575-.409-2.158-1.581-.781 1.18-1.993-2.144z" fill="#2c2a1e" class="D J L"/><g transform="matrix(.947519 -.044741 .044741 .947519 16.711936 37.278012)"><use xlink:href="#H" x="-24.632" y="11.525" fill="url(#A)" stroke="url(#B)" class="I"/><use xlink:href="#I" x="-24.506" y="11.493" class="C F K"/><ellipse cx="436.826" cy="90.702" rx="4.726" ry="4.978" transform="matrix(.992173 .124869 0 1 0 0)" paint-order="stroke fill markers" class="G"/><use xlink:href="#J" x="-24.506" y="11.493" class="B"/><g class="H"><g transform="matrix(.523414 .871694 -.86556 .011416 318.16757 -255.0869)"><use xlink:href="#K"/><use xlink:href="#L"/><use xlink:href="#L" x="1.962"/></g><g transform="matrix(.257669 .993301 -.99291 .019366 451.89198 -284.98673)"><use xlink:href="#K"/><use xlink:href="#L"/><use xlink:href="#L" x="1.962"/></g></g></g><g transform="matrix(1.755976 .182604 -.182604 1.755976 -292.8401 -171.1345)" opacity=".739"><path d="M423.589 137.505c1.521-.759 2.584-2.284 3.328-3.471-.908-.031-3.236 2.656-3.748 2.081 1.354-1.277 1.87-1.49 2.506-3.216.295-.396.634-1.922-.297-2.642.161 1.127-1.015 3.204-2.238 2.905 1.57-2.049-.93-3.891 4.11-9.421-.335.037-2.32.562-3.018 1.454-2.229 2.436-2.926 4.296-3.976 7.422-.842-.472.235-2.755.283-2.838-1.517.525-2.36 3.421-1.852 4.339-.005 1.004.011 2.142.672 2.96 1.236.991 2.908 1.211 4.228.425z" fill="#ff2f2f" stroke="#f2e844" stroke-width=".142"/><path d="M423.366 137.061c.892-.391 2.097-.851 2.872-1.743-1.308.872-2.043 1.073-2.84 1.371-.694.274-2.995.054-.409-1.153.814-1.133 1.818-1.966 2.544-3.766-1.046 1.116-2.633 3.759-3.664 3.523-.815-.184.933-3.058.967-3.589-.231-2.422 2.634-6.874 3.44-7.255-.525-.003-1.341.728-2.083 1.626-2.188 2.805-2.869 6.834-3.523 9.458-.05.38-.639-.247-1.031-1.153-.223-.423-.253-1.385-.375-1.905-.401 1.311-.309 2.578.157 3.934.426 1.235 2.671 1.44 3.944.651z" fill="#ff6a00"/></g><path d="M438.891 178.682c-.802-2.726-3.082-1.367-3.592-2.118-.173-1.139-1.181-1.614-3.237-1.255-.714-1.261-2.22-.83-3.575-.409-2.158-1.581-.781 1.18-1.993-2.144l7.886-13.862c.117-.206 1.876.357 1.65 2.156l-1.504 11.966" fill="#2c2a1e" class="D E J L"/><g class="S"><path d="M428.241 174.382c-.196-.069-.375-.144-.522-.23-1.077-.636-2.077.381-2.077.381l-1.091 1.844.716.082 1.998-1.439.976-.637z"/><path d="M428.241 174.382l-.975.636-1.551 1.107 11.652 9.401 1.272-3.009 2.187-3.178c.501-1.132-3.765-1.533-4.266-2.507s-3.639-.531-4.372-1.247c-.634-.618-2.7-.765-3.946-1.203z"/></g><g class="O"><path d="M428.435 174.254l-.118-.047c-2.316-1.282-4.195.109-3.423 2.521l2.256-1.631 1.285-.844z"/><path d="M428.435 174.254l-1.285.844-1.438 1.025 1.985 1.601c.885-1.271 2.824-1.208 5.276-1.024.035-2.107-2.801-1.729-4.538-2.447z"/></g><path d="M437.084 185.299c2.721-1.914.164-2.106 2.343-3.682 1.345-.707 1.993-4.973-2.132-3.694.144-.845-1.478-2.36-4.055-1.557-1.141-1.514-2.753-2.271-3.99-1.357-.857-.367-1.287-.988-2.168-.975a2.65 2.65 0 0 0-.866.179c-1.009.658-1.196 1.021-1.216 1.336" stroke-width="1.569" class="C D E M"/><path d="M423.854 174.197l14.91 12.227-2.066 6.895-15.337-11.681z" class="N"/><path d="M382.294 115.753s.289 2.433 3.589 3.698 8.818 2.704 8.818 2.704 1.633 1.433 1.311 3.202.021 2.38.021 2.38 1.873 4.568.958 6.021-3 2.412-3 2.412l-3.275-.893.181 1.958.65 1.834c-.237-.667 2.867 1.381 2.879 1.647 0 0 2.789 4.588 2.632 5.134s-14.546 6.832-21.99 2.728-8.765-13.957-8.417-16.698 3.141-11.247 4.161-12.802 11.481-3.325 11.481-3.325z" fill="#f3e8cc"/><g class="S"><path d="M381.192 117.166c.636.846 1.726 2.767 3.308 2.291l-.293-1.038a5.31 5.31 0 0 0 2.704 1.544c1.562.34 7.039 2.024 8.431 3.181s.363 3.373.363 3.373.151.782.678 2.094.758 3.636.479 5.307-2.827 2.127-2.827 2.127l.041 1.099-.855.565-2.241.424.443 1.31 1.349-.446 1.196.432-.092 1.385 1.434 2.369-1.439-.356-.221 2.571-1.23-2.616-1.579 3.219-1.039-3.247-2.381 3.829-.532-2.89-3.209 3.506-.516-2.323-3.282 1.724.67-2.631-3.407 1.372.298-3.124-4.576.33 2.16-3.016-2.95-.625 1.51-1.475-3.599-2.023 2.072-.825-2.009-2.167c.98-2.01 4.253-2.903 1.191-5.716l2.447 1.068c-1.072-1.355-2.355-2.679-3.311-3.229l2.658.268-.993-1.941 2.529.647-1.461-1.823 2.141.311-1.329-1.942 1.757.46 2.943 1.073-1.969-2.804 2.509.865-.274-2.103 2.563 1.934z"/><path d="M342.583 74.542c-.67.059-1.107.902-.864 4.042-.96 2.334-.011 7.833.474 9.753l-1.498 2.991-.153 2.977-1.459 1.912-.082 2.584-.961 1.782-.151 3.183.974 1.852c14.265-12.806 32.518-50.229.041.33l.42.798.336 4.147 1.806 1.517.243 8.182 1.271 2.415s-.134 2.202.137 3.303.372 6.995.372 6.995l.378 4.921.865 4.028 1.591 8.386 1.141 2.821-.032 5.019 1.163 3.159.024 4.488 1.661 3.25-.09 4.834 1.141 3.723.887 2.329.191 4.148 1.554 2.666s-1.26 4.038-.906 4.778 1.283 5.741 1.283 5.741c-2.002 2.519-1.323 1.284-.796 2.829l3.386 2.568 4.044 2.652 4.216 2.37 4.368 2.077 4.499 1.774 4.61 1.463 4.698 1.145c.825.158 1.423.783 2.253.911l.479-.064 1.796-.287 1.778-.33 1.76-.373 1.742-.416 1.723-.457 1.704-.498 1.684-.538 1.664-.579 1.643-.618 1.622-.656 1.6-.695 1.578-.732 1.555-.769 1.532-.805 1.241-.69-.85-4.251-2.055-4.424-.224-5.366-1.863-1.958-1.376-2.108.383-4.44-1.526-4.104s2.259-4.742-.757-9.032c-.492-4.345.387-4.621-1.023-5.775-.843-1.167.128-5.643.128-5.643l-.745-5.552.26-3.051c.122-.758-.736-2.974-.736-2.974l.085-3.097-1.082-10.419.053-.153-.142-.706-.057-.555-.022.026c-.088-.68-.133-1.505.034-2.099.336-1.197-.74-3.772-.74-3.772s-.009-1.147.271-1.689-1.053-4.141-1.033-6.111-2.154-8.321-1.953-9.349-1.697-5.996-1.697-5.996l1.224-3.81c.029-.504 2.388-.736 1.76-1.672-1.143-1.706.451-2.216-.289-4.069-.259-1.608-1.196-3.177-2.689-3.898-.313-1.572.72-3.369-.653-4.843-.94-2.378-4.432-1.815-4.445-4.707-.427-2.395-2.571-3.24-4.986-3.14-1.017-.448-1.788-1.043-2.692-1.423l-.365.089c.022-.214.109-.371.324-.419-.679-.285-1.43-.453-2.429-.328-.438-.001-4.03-.046-4.45.076-3.424-2.528-4.716-1.541-10.642-.103-1.968.403-3.059-.196-4.416.155-.853.125-2.474.763-3.217 1.385l-5.878 3.448-5.849-5.903c-.591-.192-1.253-.621-1.774-.575z"/></g><g class="O"><path d="M368.157 134.698c.139-.046.471.115 1.076.566l-.817.487c-.276-.565-.437-.994-.259-1.053zm-21.993-35.594c.838 1.627 1.972 4.712 1.515 6.119-.208.64-.056 2.256-.924 1.711-.952-.597.219-2.462-.921-4.316-.253-.412.542-2.442.33-3.514z"/><path d="M345.872 98.574c.156.117.247.302.292.53l-.292-.53zm46.793 13.383l-5.934 3.988c-1.783 1.198.619 3.638-1.249 2.646-.522-.278-1.158-.039-1.684-.472-.581-.479-.564-1.831-1.352-2.139-.274-.107-.028 1.282-.041 1.279-.928-.282-1.588-1.734-1.734-1.465-.106.196-.04 1.595-.151 1.614-.727.122-1.592-1.551-2.461-1.203-.84.336.178 1.769-.311 2.069-.142.087-2.14-.605-2.62-.524-.656.11.495 1.817-.305 1.476-1.209-.516-21.426 5.202-22.018 4.124-.112-.205 2.404-1.446 1.816-2.863-.513-1.237-1.742-2.704-.901-3.438 1.718-1.498-1.541-5.511-1.166-4.973.666.955 7.94-1.569 7.494-2.301-.376-.617 5.375-1.128 6.072-.917 1.613.488 5.882 1.508 7.327.713 2.871-1.581 1.804-.121 4.641-.137.473-.003 2.528-.658 2.632-.623.819.277.936 1.343 2.173 1.283.629-.03 2.362-.807 2.408-.744 3.864 5.303 6.615-2.556 6.873-3.409 1.641 1.236 1.002 4.512.492 6.018zm-49.19-33.408l4.586 7.081-1.352-3.633c2.032.617 4.403 3.168 6.511 2.804 0 0 1.307-.536 2.918.823a18.38 18.38 0 0 0 1.983 1.461c-.11-.181-.244-.446-.568-.722-.554-.473-1.409-1.027-1.733-1.693.262.049.534.162.807.13.606-.072 1.025-.899 1.042-.887.632.431.633.885 1.553.69.164-.035 1.239-.685 1.297-.661.493.21.135 1.381-.035 1.655-.419.676-.803 1.118-1.496 1.508-.216.122-.369.189-.482.211l.552.319-3.241 5.331s-.637.754-2.425 2.368-3.43 5.075-3.43 5.075l-2.086 2.077c-.113-3.374.255-5.481.132-5.908s-3.233-8.078-3.233-8.078l-1.252-5.941c-.347-1.548-.047-4.011-.047-4.011z"/></g><path d="M360.217 113.328c2.397.857 2.861.63 4.773-.026 2.526.011 2.609 1.789 5.202.86 1.73-.62 1.768-1.373 2.758-.839 4.536 2.448 4.363-.652 5.815.206 3.01 2.322 3.319.223 4.196.004 1.063-.265-1.024-.16 1.586-.127 2.48.032 1.69-.72 4.1 1.141 1.782-1.314 2.682-.855 2.221-2.476-.579-2.216 1.176-2.909-.408-4.784-1.916.848-.779-.372.639 1.871.553 2.408-2.17 4.669-4.287 3.064-1.619-.738-1.686-3.143-3.684-2.382-1.808-1.312-3.709-.977-5.742-.46-2.253-.696-4.263.151-6.353.82-2.334.781-4.346-1.923-6.5-.638-1.901 1.761-4.6-1.059-6.067 1.468-1.099 1.383-3.548-.353-3.046 1.796 1.023 1.034 3.226 1.893 4.799.501z" fill="#f9cf6e"/><path d="M384.724 78.205s-2.994-.647-2.35-2.053c.32-.698 3.194-4.94 3.533-7.486.162-1.218 2.422-.679 2.422-.679 3.065-.421 1.929 13.265 2.933 16.341" class="S"/><path d="M386.633 136.793s-1.31 1.525.192 1.8c-.34.984-2.706 3.272-3.321 3.89-1.315 1.278-3.153.162-4.003-.831-.959-1.121-4.116-5.145-4.62-6.119s4.625 2.026 5.462 1.956l6.291-.695z" fill="#a37070"/><path d="M360.431 88.519a5.27 5.27 0 0 0-.691.037c-.833.1-1.641.403-2.34.932 0 0-2.038 4.051-4.329 5.975s-2.602 5.263-2.602 5.263-2.307-3.374-3.933-4.593a70.827 70.827 0 0 0-.664.664 70.827 70.827 0 0 0-2.943 3.338 70.827 70.827 0 0 0-.584.753c0 .512.109 1.076.377 1.705 0 0 .881 2.48-.798 3.716s-.24 5.034-.096 5.638.868 3.065.2 3.832-.695 2.908-.504 3.937 1.75 2.442 1.911 3.057-.068 1.891-.356 2.801.411 3.572.353 4.402-.485 2.118-.485 2.118l1.104 2.501s-.415 3.58-.115 4.707 1.49 2.187 1.345 5.675 1.241 4.692 1.241 4.692 1.136 3.694.545 5.812 1.282 3.002 1.509 4.249-.293 3.153-.515 4.193 1.737 3.216 2.436 4.988-.683 4.318.425 7.106 1.25 3.917.976 6.683 1.567 3.583 1.509 5.302.264 4.25.264 4.25.84 3.442.425 4.655-.833 2.99-.18 3.996c.063.096.113.192.164.287a70.827 70.827 0 0 0 1.791 1.389 70.827 70.827 0 0 0 3.68 2.501 70.827 70.827 0 0 0 2.007 1.187c.038-.211.087-.419.169-.618.157-.385 1.332-1.438 1.334-1.639.011-1.236-.774-2.969-.913-4.302-.094-.905.346-2.162.171-2.975-.212-.985-1.566-1.572-1.735-3.033-.115-.995.316-1.97.245-2.919-.035-.457-.148-.906-.266-1.357l.131.254s24.301 5.114 29.159 2.373 13.528-18.52 13.576-19.029-1.252-2.194-1.252-2.194l.092.53s-7.842 11.255-11.043 14.279-2.38 3.237-5.673 3.594-14.065.326-22.267-2.599l-2.929-1.086c.069-.609.129-1.216.081-1.811-.055-.693-2.536-3.927-2.924-5.778-.308-1.465.315-2.691.262-4.078-.049-1.275-.79-2.483-.792-3.846 0-1.132.57-2.35.456-3.455-.122-1.187-1.128-2.644-1.342-4.002-.309-1.97 2.339-3.469.59-4.22-.504-.216-2.096-3.102 1.448-3.598 3.71-.519 6.618-3.796 5.828-3.394-.851.433-6.014 1.531-6.617-2.229-2.973-2.498-3.335-2.005-3.504-5.429-3.932-3.09-1.945-2.527-1.905-6.986-2.993-1.12-1.238-3.892-.206-5.601-1.125-3.699.696-6.014 3.058-6.582 1.049-1.085 1.091-3.069 1.247-4.264.024-.983-.737-5.886-.737-5.886l-.481-.799.427-.78 2.489-1.911c2.807-.507 5.888-.315 8.161-2.189 1.488 2.171 7.733 1.966 8.743.783l2.526-.21c1.719-.437 4.184-.641 6.824.787.517.28 1.552-.033 2.05.34 1.124.843 1.305 2.995 3.3 2.231 3.11-1.191 1.859-4.145 1.872-6.424-.21-1.144.852-7.289-.375-4.365.555 2.093-1.482 4.086-1.75 4.913.031.855 1.118 3.231-.239 3.709-2.133.246-2.529-2.393-3.355-3.185l-.741.376c.022-1.505-2.159-1.451-2.741-2.172-.106-.131-.259-2.492-.872-3.372-.805-1.156-1.873-1.82-3.301-1.83-.297-.002-.715.125-1.002.029-.179-.059-.326-.9-.419-1.06-.366-.629-.933-1.115-1.545-1.494-1.476-.914-2.592-.066-3.298-.373-.158-.069-1.142-2.501-1.581-2.947-.797-.808-1.855-1.622-3.043-1.64-.265-.004-.732.162-.98.047-.443-.205-.943-1.866-1.265-2.273-1.032-1.302-2.655-2.048-4.273-2.067z" class="O"/><path d="M401.29 175.046s1.246 10.648-.745 15.428-2.72 6.243-2.72 6.243l.48 18.841-2.567.228-15.581-14.951c-8.407-2.306-15.13-6.827-19.651-14.246 7.227 2.575 14.916 4.518 24.496 3.874 1.513.07 3.141-.663 4.836-1.871 4.979-4.824 8.11-9.157 11.453-13.547z" class="N"/><path d="M385.056 192.383l-4.566 8.378 7.316 7.248s10.219-2.894 10.174-3.289-.557-8.439-.557-8.439l-7.296-7.087z" class="T"/><path d="M346.536 96.133c-.757-.567-1.367-.67-1.527.256-.78 1.168-2.666 2.391-2.664 4.499a70.827 70.827 0 0 1 .584-.753 70.827 70.827 0 0 1 2.943-3.338 70.827 70.827 0 0 1 .664-.664z" class="O"/><g class="C D E"><g class="J"><path d="M377.785 123.166c-.989.475-2.413 1.906-1.996 5.002.124.921 2.456 1.677 3.014 1.925" class="L"/><path d="M380.946 128.608c.297-.77 1.928-1.019 3.714-.385 1.587.563-3.014.356-3.014.356 2.979-.182 6.589.662 7.302 2.303" stroke-width=".954"/></g><path d="M347.889 103.301c-.168-2.255-2.184-7.283-3.186-9.454-1.272-3.752-2.12-2.906-2.466-7.092-.829-2.924-1.409-5.635-.873-7.946.434-1.575-.018-4.529 2.109-4.149 1.902.339 3.254 3.62 5.926 5.99 3.863 3.424 5.711 2.826 8.816 6.626" class="L M"/></g><path d="M343.847 79.383c.278.377 1.117 2.257 2.205 5.223s1.021 4.63 1.021 4.63-1.256-2.565-1.614-2.006 1.233 5.153 2.917 8.251 1.759 4.906 1.759 4.906l1.323-3.347-2.106-7.325c-.792-2.657-2.012-5.637-2.764-6.777s-2.74-3.554-2.74-3.554z" fill="#f9cf6e"/><path d="M350.398 99.292c-2.311-2.861-4.825-8.776-5.159-12.105m-1.327-8.129c1.818 2.557 3.607 5.271 4.121 6.822 1.385 4.183 1.154 4.214 3.646 11.759" class="C D E L M"/><path d="M386.164 77.379c.043.066 1.114-2.451 1.276-3.511.149-.978 1.123-2.328 1.224-1.901.939 3.148 2.234 12.506 2.14 12.202l-1.982-1.692z" class="O"/><g transform="matrix(-1.13964 .191301 .222489 1.325435 228.74967 -3.592984)"><use xlink:href="#M" class="N"/><ellipse cx="117.629" cy="110.558" rx="3.177" ry="2.957" transform="matrix(-.999728 -.023308 -.02605 .999661 0 0)" paint-order="stroke fill markers" class="U"/><path d="M-118.576 104.845c1.007.687 1.9 2.041 2.469 4.335-2.213.889-6.405 1.569-8.926.204-.461-1.721 1.208-4.092 3.276-4.862" stroke-width=".87" class="C J"/><ellipse cx="116.656" cy="110.553" rx="1.052" ry=".609" transform="matrix(-.999696 -.024641 -.024641 .999696 0 0)" paint-order="stroke fill markers" class="N"/></g><g class="C D E M"><path d="M345.128 143.934c-.183 2.318 1.855 4.507 3.277 4.389.199 1.881 1.994 3.756 4.642 2.639.246.816 2.25 3.301 4.464 1.71" class="P"/><path d="M369.229 142.472c1.668-1.77 1.214-4.43-1.021-5.951.936-.805 2.599-3.375.093-3.549 5.414-3.186 3.494-6.69 1.306-5.903" class="Y"/></g><g transform="matrix(-1.572281 .263925 .263925 1.572281 146.87613 -17.572359)"><use xlink:href="#M" class="N"/><ellipse cx="118.014" cy="110.986" rx="2.966" ry="2.919" transform="matrix(-.999696 -.024641 -.024641 .999696 0 0)" paint-order="stroke fill markers" class="U"/><path d="M-116.095 108.443c-1.534 2.268-6.395 2.348-8.937.941-.059-.224-.047-.508.027-.824.607-2.612 5.399-7.476 8.911-.117z" stroke-width=".87" class="C J"/><ellipse cx="117.02" cy="110.399" rx="1.052" ry=".609" transform="matrix(-.999696 -.024641 -.024641 .999696 0 0)" paint-order="stroke fill markers" class="N"/></g><g class="C D M"><g class="E"><path d="M360.488 124.471c-2.024-1.422-5.25-1.084-6.798-.718m10.63.994c-3.057-.621-5.761.054-7.856 1.975m13.223-2.591c-5.551.165-7.001 1.198-8.786 3.099" class="Y"/><path d="M342.216 89.332c-.637.406-2.578 2.228-1.563 5.361-1.986 1.175-1.864 2.191-1.406 4.975-3.227 1.788-.068 6.553.139 6.556.477 1.439-.701 3.782 1.115 5.086 1.253.721.881.422 1.383 4.081" class="V"/></g><path d="M341.873 116.342c.057-.196.092-.363.077-.471l-.065-.482z" class="V"/><path d="M353.777 200.174c-.36-.741-.537-.843-.309-1.611.325-1.095 1.078-1.52 1.074-2.658-.008-2.5-1.944-4.736-.893-7.322.682-1.677-.596-2.195-1.163-3.833-.503-1.454-.558-3.234-.337-4.744.059-.406.13-.641.001-1.113-.377-1.526-1.711-2.838-2.112-4.466-.508-2.062.339-3.693.123-5.022-.248-1.519-1.406-2.84-1.698-4.422-.369-1.998.252-4.062-.056-6.026-.17-1.087-1.174-2.01-1.303-3.414-.079-.862.366-1.778.231-2.605-.28-1.714-1.455-4.341-1.865-6.035-.716-2.955-.035-2.816-.321-5.798-2.506-2.445-.627-4.774-1.089-6.487-1.661-2.007-.545-4.112-.543-5.289.003-2.06-.628-2.997-.235-4.469.477-1.785-.237-1.746-.367-3.599-1.006-.746-1.225-2.546-1.068-4.726" class="E V"/></g><path d="M395.888 216.087l-7.927-7.553-1.433-10.547 2.149 1.076-5.298-2.957 2.346-4.969c.876.136 2.354.112 3.938-1.545l3.681 3.355-2.242 5.016 1.002-2.017 5.919 9.678.323 10.295" fill="#901e1e" stroke="#480000" stroke-linejoin="bevel" class="E Q"/><path d="M410.03 206.418c-.072-.601.364-1.393.1-3.456-.3-2.352-2.075-2.91-2.468-5.05-.207-1.13 1.356-2.174-.365-5.607-.722-1.441-2.591-2.535-2.923-4.048-.317-1.447.559-1.982.243-4.066-.236-1.553-1.769-3.549-1.833-5.018-.096-2.223.899-2.567.473-4.876-.308-1.672-.454-2.002-.889-3.546-.599-2.126.266-2.477-.276-4.603-.389-1.522-.751-1.596-1.111-3-.156-.608.356-3.307.366-4.052.019-1.492-.698-2.482-.632-3.354 1.106-4.186-.231-6.825-.678-8.115 1.205-3.202.608-4.918-.644-7.256-.622-1.161 2.186-3.502-.59-7.408 1.024-3.837.373-4.753-.752-6.397 1.151-2.886.183-3.47-.557-4.711.209-2.094.189-3.606-.538-5.149.359-2.916-.671-4.356-1.59-5.914.376-1.965.126-4.865-1.146-6.512" class="C D E M P"/><path d="M422.226 182.903l13.623 9.545-5.06 15.232c-27.777 12.775-58.694 11.929-85.269-14.041 0 0 2.407-1.769 2.963-4.137s.796-4.07.796-4.07l2.067-3.313 8.877 4.422c4.381 7.022 11.652 10.825 19.881 14.638l15.624 14.916 2.676-.147-.749-19.388c3.88-9.123 3.288-14.067 3.933-20.168l1.821-5.696 1.534 1.237-.058 5.322s6.705 14.878 7.027 17.059 2.178 7.113 2.178 7.113z" fill="#354f5e"/><path d="M351.491 182.26l-1.94 3.447s-.619 1.039-.955 3.036-3.9 6.41-3.9 6.41c11.999 12.352 30.035 20.182 48.312 20.914l-15.019-8.895-2.372-6.772-2.41 3.626s-5.195.301-8.263-2.937-4.806-14.042-4.624-14.571-8.829-4.259-8.829-4.259zm78.873 6.157l-14.542 20.568c-1.335 1.352-2.583.922-2.583.922l-7.864-14.828-2.856.817 3.159 5.537-.634 11.799-.513.11-.452-8.886-5.368 2.593-.351 9.155c14.439-.66 26.379-6.049 32.615-8.842l4.883-14.595z" fill="#2f4754"/><g transform="matrix(.896387 -.108356 .113913 .942356 732.15347 -30.627923)"><path d="M-437.369 105.245l-9.087 3.435-1.924 4.505.273 1.31 2.205-3.407 8.242-1.888z" fill="#1a1a1a" stroke="#000" class="D I"/><path d="M-393.201 104.629c0-.005-5.344.145-7.397.493-.648.11-.869.182-.826.948-.102 2.687.121 5.18.92 7.477 5.744 3.77 6.973 1.282 9.935 5.098l2.396-.097c2.853-.531 3.605-8.514 4.004-12.712 0-.022 0-.044-.003-.065-.249-.763-4.327-1.133-9.03-1.142zm-26.271.016c-5.893.016-12.201.534-14.037 1.342-.494.221-.545.549-.45 1.133.358 4.846 1.062 13.42 5.223 13.861l12.622-1.095c.489-.042.718-.119 1.052-.501 2.482-2.466 4.262-8.74 3.954-13.211a1.05 1.05 0 0 0-.978-1.036c-2.012-.35-4.035-.503-7.386-.493z"/><path d="M-390.244 119.539l2.392-.111c3.051-.259 4.28-10.699 4.28-10.699l1.658-.738c.157-.194.308-2.598.039-2.961l-1.753-.591c-2.099-.707-5.849-.958-9.487-.969h0 0c-4.326-.014-8.485.511-9.132.812l-.008.087v-.049c-1.743-.421-5.892-.37-6.851.063l.011-.048c-.674-.318-4.873-.983-10.377-1.034h-.003c-5.134-.048-11.02.205-14.673 1.109l-3.232.8c-.548.499-.577 3.781-.31 4.034l2.912.865s.976 12.415 6.004 11.967l12.917-1.151c.795-.122.994-.313 1.275-.633 2.68-3.072 4.462-7.774 5.21-10.6 2.299-1.032 5.552-.778 7.064.189.185 1.104.462 2.232.808 3.32 3.908 1.997 10.111 2.299 11.253 6.339zm-29.228-14.895c3.352-.009 5.374.144 7.386.494.847.092 1.004.86.978 1.035.308 4.471-1.472 10.745-3.954 13.211-.333.382-.562.458-1.051.501l-12.622 1.095c-4.162-.441-4.865-9.014-5.223-13.861-.095-.584-.044-.912.45-1.133 1.835-.808 8.144-1.326 14.037-1.342zm18.816 8.442c-.675-2.169-.863-4.509-.768-7.017-.043-.765.178-.837.826-.948 2.054-.348 7.398-.497 7.398-.493h0c4.727.009 8.826.383 9.037 1.153-.398 4.185-1.145 12.232-4.01 12.766l-2.151.087c-2.429-2.817-6.886-3.7-10.331-5.548z" fill="#1a1a1a" stroke="#000" class="I"/><path d="M-419.472 104.644c-5.893.016-12.201.534-14.037 1.342-.494.221-.545.549-.45 1.133.358 4.846 1.062 13.42 5.223 13.861l12.622-1.095c.489-.042.718-.119 1.052-.501 2.482-2.466 4.262-8.74 3.954-13.211a1.05 1.05 0 0 0-.978-1.036c-2.012-.35-4.035-.503-7.386-.493z" fill="url(#C)"/><path d="M-393.201 104.629c0-.005-5.344.145-7.397.493-.648.11-.869.182-.826.948-.103 2.719.126 5.24.948 7.559 3.222 5.943 3.755 3.788 9.934 5.015l2.368-.096c2.853-.531 3.605-8.514 4.004-12.712 0-.022 0-.044-.003-.065-.249-.763-4.327-1.133-9.03-1.142z" fill="url(#D)"/><path d="M-402.519 104.628l.132 4.746c-.718-.474-1.895-.656-3.263-.717l-.187-4.353c1.24.064 2.466-.009 3.318.323z" fill="url(#E)"/><path d="M-1474.634 451.787l8.736-.406c11.531-.98 16.177-40.436 16.177-40.436l6.267-2.788c.593-.732 1.166-9.819.148-11.193l-6.624-2.233c-7.934-2.673-22.107-3.621-35.856-3.664h0 0c-16.351-.051-32.071 1.932-34.514 3.07l-.029.329v-.184c-6.588-1.59-22.267-1.397-25.892.237l.042-.183c-2.546-1.202-18.418-3.716-39.22-3.909h-.01c-19.403-.18-41.649.774-55.456 4.19l-12.215 3.024c-2.07 1.887-2.18 14.289-1.17 15.247l11.005 3.271s3.69 46.921 22.692 45.228l48.819-4.351c3.003-.461 3.756-1.183 4.817-2.393 10.13-11.61 16.865-29.383 19.693-40.064 8.689-3.899 20.983-2.939 26.699.713.504 2.999 1.184 6.045 2.013 9.047m-66.896-28.834c12.667-.035 20.312.543 27.917 1.865 3.203.347 3.793 3.249 3.697 3.913 1.164 16.898-5.563 40.612-14.943 49.933-1.26 1.444-2.124 1.733-3.974 1.893l-47.707 4.137c-15.729-1.666-18.388-34.07-19.741-52.387-.361-2.208-.167-3.447 1.699-4.282 6.937-3.055 30.78-5.01 53.053-5.071zm70.576 31.176c-1.813-7.274-2.678-17.547-2.366-25.79-.164-2.892.673-3.165 3.122-3.582 7.763-1.316 27.959-1.88 27.959-1.862h0c17.865.034 33.359 1.446 34.155 4.359-1.505 15.817-4.329 46.232-15.155 48.248l-8.876.358" transform="scale(.26458333)" fill="url(#F)"/></g><path d="M385.519 109.57c.104.403 1.166 3.082 2.719 3.008s2.524-.152 2.604-1.573-.599-3.386-.599-3.386l-.801.437c-.026.026.257 1.018-1.167 1.014-1.844-.006-1.005.897-1.469.4s-1.287.101-1.287.101z" class="S"/><path d="M385.519 109.57c.104.403 1.166 3.082 2.719 3.008s2.524-.152 2.604-1.573-.599-3.386-.599-3.386l-.801.437c.928 3.439-1.325 4.023-2.636 1.414-.464-.497-1.287.101-1.287.101z" class="O"/><g class="C D E"><g class="M"><path d="M353.372 112.102c2.55 1.392 6.278-1.354 6.449-2.685 2.116 1.322 4.764 1.075 6.068-1.184 1.132.895 2.653 2.293 4.522 2.005 1.794.391 3.303-.639 4.628-1.794 1.447 1.708 4.016 1.495 5.595.274.951 1.522 2.372 2.021 4.466.55.479 1.589 2.159 4.363 4.624 3.286 1.936-.846 1.447-3.359.89-5.162.345-1.049 2.289-4.064.425-6.821-1.139-1.708 1.63-3.55.89-5.403-.259-1.608-.939-3.431-2.432-4.153-.313-1.572.233-2.996-1.141-4.47m-2.745-3.147c-.577-2.913-2.601-3.544-4.997-3.375-.61-.994-2.591-3.51-5.537-2.284a5.45 5.45 0 0 0-3.648-2.316m-11.278 10.62c-.852 1.155-.564.734-2.813 2.496-.986.773-1.307 3.081-1.431 4.212-.332 1.277-1.661 1.538-2.454 2.507-.683.512-2.835 3.508-2.834 5.374-2.777 2.659-2.462 2.493-2.898 5.365" class="P"/><path d="M381.838 76.532l1.927-3.193c1.744-2.495 2.088-4.652 2.933-5.185 1.039-.655 2.247.381 2.247.381 1.824 2.009 1.299 9.935 2.214 15.435" class="L"/></g><path d="M392.658 121.749l.332.487m-2.455.473l.474.769m-2.827-.307l.512 1.491" class="J Z"/><g class="M"><path d="M391.456 105.85c1.882-.651 4.084-3.308 3.56-5.23.517-.255 3.067-1.824 1.487-5.15-.262-1.86-.304-3.891-2.65-5.467-.438-3.968-.853-4.04-2.434-5.707-4.277-5.101-2.846-4.706-7.149-5.722-1.798-1.303-2.786-3.344-9.722-1.786-4.13-3.018-10.387-1.314-10.631-.206-4.136-1.554-6.499.991-7.735 1.937-.908-.323-4.979.522-5.491 2.67" class="P"/><path d="M386.34 78.466s.854-4.817 1.364-5.253" class="L"/></g><g class="J"><path d="M382.856 116.703c.283 1.204 1.217 2.205 2.754 2.781 3.499 1.312 8.504 2.146 9.56 3.371s.784 3.14.784 3.14c-.387.928-.657 1.964-1.819 2.526" class="L"/><path d="M394.203 125.882c-.663-.449-2.194.265-3.449 1.662-1.115 1.242 3.031-1.564 3.031-1.564-2.004 1.261-4.663 3.333-4.704 4.851" stroke-width=".931"/><path d="M380.802 123.896l-.014.195m2.405-.043l-.197.882m2.502-.989l.174.931" class="Z"/><path d="M389.63 142.703c2.179-.923 4.353.955 2.353 3.072-.832.496.633 1.347-.671 3.007" class="L"/></g></g><path d="M417.642 138.445c-.244-.004-.47.196-.52.872-.28.254.826 4.433-.362 5.658-.24-.186.122 1.809 1.243.451.191.382.623.679 1.332-.258.807-1.032.206-6.093.206-6.093-.069-.166-.935-.932-1.172.069l-.026-.243c-.042-.106-.387-.45-.7-.456z" fill="url(#G)" stroke="#4d4d4d" stroke-width=".132"/><path d="M389.129 138.751c8.944-1.326 18.864-.853 27.535-.239 1.696 2.69.667 4.839-.293 6.887-10.516-.616-22.453-1.404-29.863-4.037l-.166-1.564z" fill="#4c3321" stroke="#3c281a" class="Q"/><path d="M380.591 137.339l.204 1.697c.092.877 5.424 1.022 5.978.516l1.13-.998s1.221.242 2.026-.144l1.301-.595s.21.248 1.094.195 1.802-.173 1.909-.371-.153-1.149-.22-1.282-2.128-.376-2.596-.587l-2.333-1s-1.336 1.982-2.155 2.291-6.339.28-6.339.28z" class="N"/><path d="M395.796 127.113s2.327 4.414 1.189 6.728c-1.874 3.809-6.997 1.862-7.604.624m-.477-3.637s1.777 4.857-2.283 6.241c-6.551 2.233-12.231-2.198-12.383-3.938" class="C D E J L"/><path d="M393.496 138.498s-2.149.602.455 2.525 22.929 2.711 22.929 2.711l-.615 1.794s-20.931-1.738-22.38-2.29-4.511-.755-4.805-.832-2.894-1.646-3.118-1.884.725-1.457 1.834-1.789 4.246-.673 4.791-.694.909.458.909.458z" fill="#3c281a"/><path d="M379.98 142.499l.729-2.024s3.832-.417 4.44-.247 3.024.579 3.024.579l.629 2.075c-.928.663-8.873.177-8.823-.383z" class="N"/><g class="C D E"><path d="M389.31 142.843c-1.622.65-4.798 1.156-8.164-.071-3.871-1.412-6.238-7.35-6.569-8.87m.669-1.376c-1.089-.29-1.939.288-2.237 1.274" class="J L"/><path d="M372.442 148.265c3.166-1.228 4.046 3.226 3.907 2.507 3.728-2.22 3.82-.682 6.145.457-.428.518 4.092-4.427 7.994-.46-.151-.972 1.441-5.354 4.772-3.535" class="M P"/><path d="M387.316 136.809c-.079.402.459 2.3.333 2.399-1.003.788-3.367.863-3.42.569l-.275-2.086" class="J R"/></g><path d="M390.881 137.804c-.319.806-2.725.919-3.014.644" class="D E J N R"/><path d="M394.069 136.073c-.079.402.133 1.145-.004 1.228-.818.505-2.433.88-2.859.559-.256-.193-.45-2.224-.45-2.224" class="C D E J R"/><path d="M388.542 136.104c.469-.445.954-.747 2.111-.288l-1.347-1.448z" class="U"/><g class="C"><path d="M383.823 137.701c-.079.402.259 1.55.131 1.646-1.067.804-3.088.262-3.243-.186-.152-.443-.264-1.777-.231-1.76" class="D E J R"/><path d="M389.74 188.807l7.731 7.389c2.535-4.796 3.536-11.464 3.707-18.895l1.786-6.086s-.205 1.327-1.786 4.077c-.605 1.052-2.345 3.34-4.39 5.809-3.302 3.987-7.4 8.446-8.803 8.941-2.272.802-9.047 1.057-17.075-.172s-19.465-8.02-19.465-8.02l9.744 5.112c2.56 6.108 14.29 12.313 19.224 13.647l4.814-9.885" stroke="#d9e8f2" class="Q"/></g><path d="M430.094 188.228l4.162-5.093 4.026 3.103-1.677 6.77z" class="T"/><g class="C Q"><path d="M414.05 201.253l7.97-18.663 13.779 9.976-5.024 14.616m-26.111-31.223l7.191 17.936 1.874 7.285c-.896 6.622-.234 7.09-.105 9.669m-38.224-11.566l-.075 12.821m-25.767-26.505c5.51 7.437 10.845 15.069 17.565 21.163l8.364-1.654m-30.627-10.154c1.416-2.198 3.973-5.057 4.578-9.562l1.876-3.493 9.134 4.677c2.341 6.726 13.508 13.033 19.631 14.564l15.759 14.932m2.585.026l-.726-19.479c3.959-5.254 4.052-16.588 4.041-20.484l1.462-5.507 1.308 1.341 1.172 22.837-3.346.922m-2.021-3.487l5.312 8.867-.783 14.029" stroke="#162127"/><path d="M421.43 181.689l15.258 11.304 1.781-6.715-14.592-11.773z" stroke="#d9e8f2"/></g><circle cx="435.22" cy="188.122" r="1.743" fill="#ffe98f" stroke="#ffb41d" paint-order="stroke fill markers" class="Q"/><path d="M388.77 142.585c-.131-.388-.109-1.371-.247-1.452-1.099-.648-3.028-.532-3.041-.233-.014.321.056 1.96.056 1.96m-.546-2.311c-1.165-.655-2.247.106-2.34.571-.092.459-.144 1.708-.114 1.686m.21-2.193c-1.161-.903-2.432-.382-2.526.181l-.179 1.262" class="C D E J R"/><path d="M370.158 189.869c.341.627 3.02 7.706 3.02 7.706-4.891-1.934-8.869-5.475-11.839-10.785 4.366 2.707 5.981 2.223 8.82 3.079z" class="T"/><g transform="matrix(-.56983 -.758345 -.758345 .56983 763.97207 386.01501)" opacity=".557"><path d="M423.589 137.505c1.379-.786 2.637-1.776 3.766-2.89-1.074-.084-1.725.994-2.719 1.196-.397.128-1.294.755-1.467.304 1.354-1.277 2.214-2.972 2.851-4.697.283-.447.378-1.212-.208-.557-.503.524-.783 1.245-1.404 1.659-.525.507-.999 1.603-1.873 1.344-.446-.588.075-1.332.248-1.931.935-2.881 1.991-5.805 3.906-8.199.19-.362.882-.726.645-1.155-.527.373-.952.892-1.406 1.355-2.229 2.436-3.911 5.362-4.961 8.488-.204.468.048 1.901-.831 1.377-.54-.523-.322-1.256-.615-1.9.05-.675-.909-2.596-1.04-1.83-.063.821.256 3.221.208 4.05-.005 1.004.011 2.142.672 2.96 1.236.991 2.908 1.211 4.228.425z" fill="#ff2f2f"/><path d="M423.366 137.061c.892-.391 2.097-.851 2.872-1.743-1.308.872-2.043 1.073-2.84 1.371-.694.274-2.995.054-.409-1.153.814-1.133 1.818-1.966 2.544-3.766-1.046 1.116-2.633 3.759-3.664 3.523-.815-.184.294-2.692.328-3.223-.022-2.458 3.811-7.8 4.128-8.097-.756.605-.9 1.132-1.558 1.807-1.735 2.242-3.423 7.103-4.098 9.754-.05.38-.639-.247-1.031-1.153-.223-.423-.253-1.385-.375-1.905-.401 1.311-.309 2.578.157 3.934.426 1.235 2.671 1.44 3.944.651z" fill="#ff6a00"/><path d="M423.136 136.865c.892-.391 1.526-.198 2.301-1.09-1.308.872-1.745.885-2.542 1.184-1.103.437-3.347-.09-.033-1.587.798-1.13.156.053 1.489-1.854-1.097 1.333-2.78 2.839-3.071 2.566-.682.238.732-3.297.766-3.829-.022-2.458 2.317-5.519 2.634-5.817-.756.605.591-.78-.067-.106-1.735 2.242-3.204 7.48-3.879 10.13-1.118-.166-1.314-2.022-1.485-2.769-.075 1.645.155 1.232.447 2.409.426 1.235 2.167 1.551 3.44.762z" fill="#ffb989"/></g></g></svg>