<?xml version="1.0" encoding="utf-8"?>
<!-- Generator: Adobe Illustrator 25.3.1, SVG Export Plug-In . SVG Version: 6.00 Build 0)  -->
<svg version="1.1"
	 id="svg8" inkscape:version="1.1.1 (3bf5ae0, 2021-09-20)" sodipodi:docname="4.svg" xmlns:cc="http://creativecommons.org/ns#" xmlns:dc="http://purl.org/dc/elements/1.1/" xmlns:inkscape="http://www.inkscape.org/namespaces/inkscape" xmlns:rdf="http://www.w3.org/1999/02/22-rdf-syntax-ns#" xmlns:sodipodi="http://sodipodi.sourceforge.net/DTD/sodipodi-0.dtd" xmlns:svg="http://www.w3.org/2000/svg"
	 xmlns="http://www.w3.org/2000/svg" xmlns:xlink="http://www.w3.org/1999/xlink" x="0px" y="0px" viewBox="0 0 1024 1024"
	 style="enable-background:new 0 0 1024 1024;" xml:space="preserve">
<style type="text/css">
	.st0{fill:#424991;}
	.st1{fill:#071051;}
	.st2{fill:#F3E8CC;}
	.st3{fill:#FFF0BE;}
	.st4{fill:#FFE99F;}
	.st5{fill:#F9CF6E;}
	.st6{fill:none;stroke:#4B4633;stroke-width:3.9377;stroke-linecap:round;stroke-linejoin:round;stroke-miterlimit:14.9604;}
	.st7{fill:none;stroke:#4B4633;stroke-width:3.76;stroke-linecap:round;stroke-linejoin:round;stroke-miterlimit:14.9604;}
	.st8{fill:none;stroke:#F9CF6E;stroke-width:3.9377;stroke-linecap:round;stroke-linejoin:round;stroke-miterlimit:14.9604;}
	.st9{fill:#FFFFFF;}
	.st10{fill:#4B4633;}
	.st11{fill:none;stroke:#4B4633;stroke-width:0.8703;}
	.st12{fill:none;stroke:#F9CF6E;stroke-width:5.9065;stroke-linecap:round;stroke-linejoin:round;stroke-miterlimit:14.9604;}
	.st13{fill:none;stroke:#F9CF6E;stroke-width:5.3868;stroke-linecap:round;stroke-linejoin:round;stroke-miterlimit:14.9604;}
	.st14{fill:none;stroke:#4B4633;stroke-width:5.471;stroke-miterlimit:25.1441;}
	.st15{fill:none;stroke:#F9CF6E;stroke-width:5.8881;stroke-linecap:round;stroke-linejoin:round;stroke-miterlimit:14.9604;}
	.st16{fill:#1A1A1A;stroke:#000000;stroke-width:0.5292;stroke-linejoin:round;}
	.st17{fill:#1A1A1A;stroke:#000000;stroke-width:2;}
	.st18{fill:url(#path685905_1_);}
	.st19{fill:url(#path685907_1_);}
	.st20{fill:url(#path685909_1_);}
	.st21{fill:url(#path685911_1_);}
	.st22{fill:none;stroke:#4B4633;stroke-width:1.9688;stroke-linecap:round;stroke-linejoin:round;stroke-miterlimit:14.9604;}
	.st23{fill:none;stroke:#4B4633;stroke-width:3.6703;stroke-linecap:round;stroke-linejoin:round;stroke-miterlimit:14.9604;}
	.st24{clip-path:url(#SVGID_2_);}
	.st25{fill:#FFD31A;}
	.st26{fill:#FFE98F;}
	.st27{fill:#EA9C00;}
	.st28{fill:#FFB41D;}
	.st29{fill:none;stroke:#EA9C00;stroke-width:0.7942;stroke-linecap:round;stroke-linejoin:round;stroke-miterlimit:1.9122;}
	.st30{fill:#FFD31A;stroke:#EA9C00;stroke-width:0.9896;stroke-miterlimit:14.9604;}
	.st31{fill:url(#path686091_1_);stroke:#FFB41D;stroke-width:1.078;stroke-miterlimit:14.9604;}
	.st32{fill:url(#path686093_1_);stroke:#FFB41D;stroke-width:1.078;stroke-miterlimit:14.9604;}
	.st33{fill:url(#path686097_1_);stroke:#FFB41D;stroke-width:1.078;stroke-miterlimit:14.9604;}
	.st34{fill:url(#path686099_1_);stroke:#FFB41D;stroke-width:1.078;stroke-miterlimit:14.9604;}
	.st35{fill:url(#path686103_1_);stroke:#FFB41D;stroke-width:1.078;stroke-miterlimit:14.9604;}
	.st36{fill:url(#path686105_1_);stroke:#FFB41D;stroke-width:1.078;stroke-miterlimit:14.9604;}
	.st37{fill:url(#path686107_1_);stroke:#FFB41D;stroke-width:1.078;stroke-miterlimit:14.9604;}
	.st38{fill:url(#path686109_1_);stroke:#FFB41D;stroke-width:0.9395;stroke-miterlimit:14.9604;}
	.st39{fill:url(#path686113_1_);stroke:#FFB41D;stroke-width:1.078;stroke-miterlimit:14.9604;}
	.st40{fill:url(#path686115_1_);stroke:#FFB41D;stroke-width:1.078;stroke-miterlimit:14.9604;}
	.st41{fill:url(#path686119_1_);stroke:#FFB41D;stroke-width:1.078;stroke-miterlimit:14.9604;}
	.st42{fill:url(#path686121_1_);stroke:#FFB41D;stroke-width:1.078;stroke-miterlimit:14.9604;}
	.st43{fill:url(#path686125_1_);stroke:#FFB41D;stroke-width:1.078;stroke-miterlimit:14.9604;}
	.st44{fill:url(#path686127_1_);stroke:#FFB41D;stroke-width:1.078;stroke-miterlimit:14.9604;}
	.st45{fill:url(#path686129_1_);stroke:#FFB41D;stroke-width:1.078;stroke-miterlimit:14.9604;}
	.st46{fill:url(#path686131_1_);stroke:#FFB41D;stroke-width:1.078;stroke-miterlimit:14.9604;}
	.st47{fill:url(#path686133_1_);stroke:#FFB41D;stroke-width:1.078;stroke-miterlimit:14.9604;}
	.st48{fill:url(#path686135_1_);stroke:#FFB41D;stroke-width:1.078;stroke-miterlimit:14.9604;}
	.st49{fill:url(#path686137_1_);stroke:#FFB41D;stroke-width:1.078;stroke-miterlimit:14.9604;}
	.st50{fill:url(#path686139_1_);stroke:#FFB41D;stroke-width:1.078;stroke-miterlimit:14.9604;}
	.st51{fill:url(#path686141_1_);stroke:#FFB41D;stroke-width:1.078;stroke-miterlimit:14.9604;}
	.st52{fill:url(#path686145_1_);stroke:#FFB41D;stroke-width:1.078;stroke-miterlimit:14.9604;}
	.st53{fill:url(#path686147_1_);stroke:#FFB41D;stroke-width:1.078;stroke-miterlimit:14.9604;}
	.st54{fill:none;stroke:#F9CF6E;stroke-width:5.5775;stroke-linecap:round;stroke-linejoin:round;stroke-miterlimit:15.1181;}
	.st55{fill:#2C2A1E;stroke:#4B4633;stroke-width:3.9792;stroke-linecap:round;stroke-linejoin:round;stroke-miterlimit:15.1181;}
	.st56{fill:#FFD31A;stroke:#EA9C00;stroke-width:2;stroke-linecap:round;stroke-linejoin:round;stroke-miterlimit:15.1181;}
	.st57{fill:#CCCCCC;stroke:#B3B3B3;stroke-width:1.8465;stroke-linecap:round;stroke-linejoin:round;stroke-miterlimit:15.1181;}
	.st58{fill:#B3B3B3;stroke:#B3B3B3;stroke-width:1.8465;stroke-linecap:round;stroke-linejoin:round;stroke-miterlimit:15.1181;}
	.st59{fill:#E6E6E6;}
</style>
<sodipodi:namedview  bordercolor="#666666" borderlayer="true" borderopacity="1.0" id="base" inkscape:current-layer="g1255098" inkscape:cx="524.28571" inkscape:cy="580.71429" inkscape:document-rotation="0" inkscape:document-units="px" inkscape:guide-bbox="true" inkscape:pagecheckerboard="1" inkscape:pageopacity="0" inkscape:pageshadow="2" inkscape:snap-global="false" inkscape:window-height="967" inkscape:window-maximized="1" inkscape:window-width="1280" inkscape:window-x="0" inkscape:window-y="1" inkscape:zoom="0.7" pagecolor="#585858" showgrid="false" showguides="true" units="px">
	<sodipodi:guide  id="guide1250844" orientation="0,-1" position="178.06115,60.704554"></sodipodi:guide>
	<sodipodi:guide  id="guide1250846" orientation="1,0" position="60.826371,51.358056"></sodipodi:guide>
</sodipodi:namedview>
<g id="layer1" inkscape:groupmode="layer" inkscape:label="Layer 1">
	<circle id="circle1248940" class="st0" cx="512" cy="512" r="315.16"/>
	<g id="g1255098" transform="translate(283.73558,4.8303844)">
		<circle id="circle414041" class="st1" cx="228.26" cy="507.17" r="282.2"/>
		<g id="g686155" transform="matrix(0.98957013,0,0,0.98957013,261.50471,-2.3099968)">
			<path id="path685833" sodipodi:nodetypes="cscscscccscsssscc" class="st2" d="M-0.79,401.66c0,0-0.02,9.76,12.43,16.34
				c12.45,6.58,33.59,14.91,33.59,14.91s5.78,6.45,3.65,13.29c-2.12,6.85-1.05,9.42-1.05,9.42s5.22,18.97,0.91,24.28
				c-4.31,5.31-13.02,8.11-13.02,8.11l-0.9,6.52l-4.38,4.31l-5.78-0.53c-2.81-0.26,1.92,8.59,1.84,9.65
				c3.04,1.99-2.78,15.06-5.83,15.72c-2.21,0.48-38.25,24.16-65.74,4.37c-27.48-19.79-28-59.4-25.31-70.08
				c2.69-10.68,17.8-42.99,22.58-48.65C-43.02,403.66-0.79,401.66-0.79,401.66L-0.79,401.66z"/>
			
				<path id="path685835" sodipodi:nodetypes="cssssssssssssssssssscscssssssssssssssccccccccccccccccccccsccssccsccccccsscccccccccccccccccccccccccccccccccsccccccccccsscssccccccccccccccccccccccccccccccccccccccccc" class="st3" d="
				M-178.26,760.17c1.11,0.63,2.22,1.26,3.35,1.87c2,1.09,4.01,2.15,6.04,3.19c2.03,1.04,4.07,2.05,6.13,3.04
				c2.06,0.99,4.13,1.96,6.21,2.9c2.08,0.94,4.18,1.86,6.29,2.75c2.11,0.89,4.23,1.76,6.37,2.6c2.14,0.84,4.29,1.66,6.45,2.45
				c2.16,0.79,4.33,1.56,6.52,2.29c2.19,0.74,4.38,1.45,6.59,2.14c2.21,0.69,4.43,1.35,6.66,1.98c2.23,0.63,4.48,1.24,6.73,1.82
				c2.25,0.58,4.52,1.13,6.79,1.66c2.28,0.53,4.56,1.02,6.86,1.49c2.3,0.47,4.6,0.91,6.92,1.32c2.32,0.41,4.64,0.8,6.98,1.16
				s4.68,0.69,7.03,0.98c2.35,0.3,4.72,0.57,7.09,0.81c2.37,0.24,4.75,0.45,7.14,0.63c2.39,0.18,4.78,0.33,7.19,0.46
				c2.4,0.12,4.82,0.21,7.24,0.28c2.42,0.06,4.85,0.09,7.29,0.09c2.44,0,4.86-0.03,7.28-0.09c2.42-0.06,4.83-0.15,7.24-0.28
				c2.4-0.12,4.8-0.27,7.19-0.46c2.39-0.18,4.77-0.39,7.14-0.63c2.37-0.24,4.73-0.51,7.09-0.81c2.35-0.3,4.7-0.63,7.04-0.98
				c2.34-0.36,4.66-0.74,6.98-1.16c2.32-0.41,4.62-0.85,6.92-1.32c2.3-0.47,4.58-0.97,6.86-1.49c2.28-0.53,4.54-1.08,6.79-1.66
				c2.25-0.58,4.5-1.19,6.73-1.82c2.23-0.63,4.45-1.3,6.66-1.98c2.21-0.69,4.41-1.4,6.59-2.14c2.19-0.74,4.36-1.5,6.52-2.29
				c2.16-0.79,4.31-1.61,6.45-2.45c1.76-0.69,3.5-1.41,5.24-2.14l-1.33-17.22l-6.01-18.48l1.68-21.33l-6.43-8.64l-4.44-9l3.64-17.38
				l-4.08-16.96c0,0,11.2-17.68,1.32-36.09c0.13-17.42,3.74-18.1-1.28-23.34c-2.78-5.02,3.21-22.26,3.21-22.26l-0.29-22.32
				c0,0,1.64-9,2.49-11.94c0.85-2.94-1.49-12.12-1.49-12.12l1.82-12.21l0.7-41.73c0.1-0.21,0.28-0.58,0.28-0.58
				s-0.14-1.17-0.22-2.86l0.04-2.22l-0.1,0.09c-0.02-2.73,0.19-6.01,1.14-8.28c1.9-4.57-1.12-15.28-1.12-15.28s0.51-4.54,1.88-6.55
				c1.37-2.01-2.19-16.88-1.16-24.67c1.02-7.78-4.54-33.95-3.25-37.92c1.29-3.97-3.85-24.53-3.85-24.53l6.66-14.49
				c0.36-1.98,9.8-1.77,7.76-5.77c-3.71-7.29,2.85-8.55,0.8-16.23c-0.26-6.48-3.21-13.14-8.77-16.71
				c-0.49-6.37,4.46-12.98-0.27-19.47c-2.58-9.86-16.66-9.3-15.33-20.74c-0.55-9.68-8.62-14.05-18.22-14.8
				c-6.67-3.95-10.07-9.41-19.42-9.38c-1.73-0.21-15.92-2.11-17.64-1.83l0,0c-12.33-11.63-17.92-8.35-42.04-5.5
				c-7.98,0.65-12.01-2.24-17.54-1.5c-3.43,0.09-10.15,1.84-13.38,3.94l-24.9,10.83l-20.31-26.15c-5.14-2.38-11.13-9.84-12.09,12.45
				c-4.92,8.77-3.79,30.98-2.79,38.8l-7.36,11.11l-2.03,11.71l-6.69,6.87l-1.56,10.18l-4.65,6.59l-2.12,12.52l4.25,11.15
				l-0.65,16.56l6.42,6.87l-2.95,32.48l3.87,10.16c0,0-1.58,8.65-1.04,13.13c0.54,4.48-1.88,27.85-1.88,27.85l-0.86,19.64
				c0,0,1.42,13.22,1.49,16.35c0.08,3.13,2.29,33.93,2.29,33.93l3.16,11.7l-2.53,19.84l3.09,13.05l-2.05,17.76l5.01,13.65
				l-2.67,19.08l2.73,15.27l2.39,9.64l-1.23,16.5l4.87,11.29c0,0-6.92,15.37-5.87,18.47c1.05,3.1,2.33,23.32,2.33,23.32
				c-9.44,9.32-6.82,5.94-5.5,13.23l3.85,8.92l-13.71,4.57l-1.33,8.61l-10.24,5.54L-178.26,760.17z M-5.58,406.72
				c2.11,3.65,5.51,11.77,11.99,10.64l-0.66-4.25c2.65,3.65,6.41,6.17,9.96,7.4c6.01,2.09,26.88,11.37,31.83,16.61
				c4.95,5.24-0.18,13.52-0.18,13.52s0.22,3.17,1.68,8.61c1.46,5.44,1.26,14.74-0.64,21.22c-1.9,6.48-12.2,7.06-12.2,7.06
				l-0.36,4.37l-3.3,4.01l-3.65,2.09l-4.64,1.72l5.55-1.12l-3.72,3.94l1.35,4.47c0.2,16.51-3.45,2.61-8.62,18.36l-2.56-13.34
				L4.99,526.06l-0.72-11.69l-14.37,12.33l-0.93-9.43l-13.8,5.25l3.91-10.09l-14.13,3.8l2.67-12.22l-18.26-0.88l9.98-10.9
				l-11.37-3.88l6.68-5.11l-13.27-9.72l8.59-2.27l-6.91-9.53c4.84-7.48,18.21-9.45,7.44-22.04l9.17,5.39
				c-3.59-5.87-8.04-11.72-11.55-14.36l10.38,2.33l-3-8.15l9.7,3.77l-4.91-7.91l8.32,2.26l-4.33-8.32l6.73,2.66l11.13,5.65
				l-6.45-12.04l9.51,4.62l-0.08-8.45l9.21,8.88L-5.58,406.72z"/>
			<path id="path685837" class="st4" d="M-65.52,469.83c0.57-0.12,1.81,0.68,3.99,2.75c-1.5,0.6-2.47,1.07-3.47,1.54
				C-65.82,471.76-66.25,469.98-65.52,469.83z"/>
			<path id="path685839" class="st4" d="M-135.5,318.52c2.54,6.84,5.55,19.58,3.07,24.93c-1.13,2.43-1.3,8.9-4.47,6.33
				c-3.48-2.82,2.04-9.64-1.58-17.51C-139.29,330.51-135.17,322.86-135.5,318.52z"/>
			<path id="path685841" class="st4" d="M-136.4,316.28c0.56,0.54,0.83,1.31,0.9,2.24C-135.81,317.68-136.11,316.92-136.4,316.28z"
				/>
			<path id="path685843" sodipodi:nodetypes="csssscssssssssssssssssscc" class="st4" d="M42.3,391.6l-25.38,12.94
				c-7.63,3.89,0.71,14.69-6.2,9.87c-1.93-1.35-4.56-0.71-6.43-2.67c-2.07-2.17-1.36-7.51-4.33-9.11c-1.03-0.55-0.72,5.06-0.77,5.04
				c-3.53-1.56-5.45-7.62-6.16-6.62c-0.52,0.73-0.92,6.29-1.37,6.31c-2.93,0.13-5.55-6.9-9.16-5.94c-3.48,0.93-0.14,7.08-2.22,8.03
				c-0.6,0.28-8.18-3.42-10.11-3.33c-2.65,0.12,1.09,7.43-1.91,5.69c-4.54-2.62-87.24,10.33-89.07,5.78
				c-0.35-0.86,10.2-4.57,8.55-10.46c-1.44-5.14-5.6-11.53-1.92-14.03c7.51-5.1-3.46-22.54-2.23-20.23
				c2.18,4.1,32.16-2.41,30.74-5.52c-1.19-2.62,21.8-1.89,24.46-0.73c6.15,2.7,22.55,8.78,28.64,6.32
				c12.11-4.88,7.2,0.39,18.42,1.68c1.87,0.22,10.31-1.39,10.71-1.21c3.11,1.49,3.06,5.76,7.98,6.11c2.5,0.18,9.73-2.06,9.88-1.79
				c12.75,22.83,27.39-6.95,28.82-10.2C49.13,373.23,45.03,385.88,42.3,391.6L42.3,391.6z"/>
			<path id="path685845" class="st4" d="M-136.31,235.93l14.76,30.2l-3.61-15.02c7.74,3.41,15.9,14.64,24.41,14.21
				c0,0,5.43-1.5,11.15,4.65c2.74,2.94,5.24,5.16,7.15,6.73c-0.35-0.77-0.75-1.88-1.9-3.13c-1.97-2.13-5.08-4.74-6.04-7.53
				c1.01,0.32,2.03,0.9,3.13,0.9c2.43,0.01,4.48-3.06,4.54-3.01c2.29,2.01,2.08,3.8,5.81,3.47c0.67-0.06,5.23-2.12,5.45-1.99
				c1.85,1.07-0.13,5.53-0.93,6.53c-1.98,2.47-3.71,4.04-6.64,5.25c-0.91,0.38-1.55,0.57-2.01,0.6c0.88,0.66,2.03,1.53,2.03,1.53
				l-15.37,19.54c0,0-2.88,2.68-10.73,8.21c-7.85,5.53-16,18.43-16,18.43l-9.24,7.22c1.16-13.4,3.63-21.56,3.35-23.31
				s-8.93-33.5-8.93-33.5s-1.48-17.81-2.11-24.1C-138.67,245.52-136.31,235.93-136.31,235.93L-136.31,235.93z"/>
			<path id="path685847" sodipodi:nodetypes="ccsscssssscccccscccc" class="st5" d="M-86.71,381.5c9.07,4.54,11.02,3.86,18.89,2.18
				c9.99,1.25,9.46,8.33,20.17,5.89c7.14-1.62,7.65-4.59,11.31-2c16.77,11.85,17.57-0.49,22.9,3.6c10.8,10.62,13.02,2.47,16.6,2.02
				c4.33-0.54-3.97-1.12,6.33,0.26c9.79,1.31,7.03-2.04,15.67,6.47c7.68-4.35,11.02-2.1,9.97-8.73c-1.23-9.04,6.04-10.95,0.67-19.12
				c-7.99,2.44-2.91-1.85,1.63,7.71c1.04,9.79-10.82,17.43-18.42,10.07c-6.05-3.69-5.17-13.24-13.43-11.18
				c-6.53-6.06-14.21-5.64-22.49-4.56c-8.58-3.83-16.93-1.44-25.52,0.2c-9.61,1.98-16.27-9.69-25.41-5.63
				c-8.36,6.06-17.69-6.39-24.7,2.91c-5.01,4.95-13.86-3.09-12.91,5.65C-101.9,381.81-93.6,386.26-86.71,381.5L-86.71,381.5z"/>
			<path id="path685849" sodipodi:nodetypes="csscc" class="st3" d="M27.03,254.29c0,0-11.53-3.99-8.31-9.24
				c1.6-2.61,15-18.02,17.56-27.92c1.22-4.74,9.91-1.53,9.91-1.53c12.33-0.2,1.29,53.39,3.79,66.04"/>
			
				<path id="path685851" sodipodi:nodetypes="ccsssscssscsscccsscsscsssccccccccsccccsssccccccsssssssssssscscccsssssssccsscssssssccsssscc" class="st4" d="
				M-178.48,760.82c2.64,2.07,6.18,3.41,8.91,4.79c2.03,1.04,4.07,2.05,6.13,3.04c2.06,0.99,4.13,1.96,6.21,2.9s4.18,1.86,6.29,2.75
				c2.11,0.89,4.23,1.76,6.37,2.6c1.92,0.76,3.85,1.49,5.79,2.2c0.67-3.77,2.28-7.9,4.19-11.46c1.41-2.63,4.8-3.31,5.96-5.38
				c2.36-4.19,1.2-10.25,3.76-14.84c0.81-1.45,28.55-9.04,28.65-9.83c0.64-4.88-14.87-4.1-19.18-9.57c-2.25-2.85,1.1-11.4,0.8-14.7
				c-0.37-4-9.11-7.85-9.08-13.71c0.02-3.99,2.19-7.64,2.36-11.43c0.19-4.19-1.23-8.39-0.91-12.75c0.38-5.15,2.52-10.21,2.73-15.31
				c0.11-2.77-8.15-16.75-8.81-24.26c-0.52-5.94,2.53-10.49,2.99-16.01c0.42-5.07-1.94-10.2-1.29-15.59
				c0.54-4.48,3.38-9.02,3.46-13.45c0.08-4.76-3.2-11-3.39-16.47c-0.28-7.94,10.91-12.6,4.35-16.41c-1.89-1.1-6.81-13.27,7.45-13.54
				c14.92-0.28,27.99-11.85,24.68-10.64c-3.57,1.31-24.52,3.18-25.11-11.98c-10.56-11.3-12.23-9.53-11.26-23.15
				c-14.08-14.1-6.49-10.93-4.2-28.54c-11.3-5.86-3.04-15.99,1.86-22.25c-2.68-15.17,5.63-23.46,15.25-24.57
				c4.67-3.79,5.78-11.62,6.97-16.27c0.57-3.88-0.1-23.63-0.1-23.63l-1.52-3.39c0.89-1.29,1.76-2.71,2.06-2.88
				c3.37-1.93,7-4.51,10.76-6.37c11.35-0.67,23.44,1.57,33.33-4.76c4.85,9.3,29.65,11.47,34.21,7.28l10.09,0.38
				c7.01-0.91,16.86-0.53,26.62,6.38c1.91,1.35,6.16,0.61,7.95,2.33c4.04,3.87,3.73,12.47,11.99,10.4
				c12.87-3.22,9.34-15.51,10.48-24.52c-0.28-4.63,6.86-28.43,0.61-17.45c1.19,8.54-7.81,15.46-9.27,18.6
				c-0.28,3.4,2.88,13.31-2.72,14.56c-8.55-0.05-8.86-10.68-11.75-14.2c-1.12,0.47-2.15,0.84-3.11,1.13c0.81-5.94-7.85-6.77-9.8-9.9
				c-0.36-0.57,0.17-9.98-1.84-13.76c-2.63-4.96-6.54-8.1-12.18-8.82c-1.17-0.15-2.89,0.15-3.98-0.36
				c-0.68-0.32-0.86-3.71-1.15-4.39c-1.15-2.66-3.16-4.86-5.39-6.65c-5.4-4.32-10.22-1.5-12.87-3.05
				c-0.59-0.35-3.32-10.44-4.85-12.41c-2.77-3.58-6.56-7.3-11.25-7.94c-1.05-0.14-2.97,0.29-3.9-0.28
				c-1.65-1.02-2.84-7.83-3.92-9.59c-3.95-6.45-11.31-10.4-18.66-10.4c-3.34,0-6.68,0.81-9.7,2.57c0,0-10,15.05-19.98,21.57
				c-9.98,6.52-12.81,19.57-12.81,19.57s-16.13-31.06-19.53-19.76c-4.53,5.28-15.88,10.06-12.01,23.45c0,0,2.3,10.23-4.93,14.32
				c-7.23,4.09-3.36,19.8-3.07,22.26c0.28,2.46,1.97,12.54-1.04,15.25c-3.01,2.72-4.14,11.17-3.88,15.33c0.26,4.16,5.76,10.5,6.1,13
				c0.34,2.51-1.17,7.45-2.75,10.91c-1.58,3.46-0.08,14.33-0.71,17.58c-0.63,3.26-2.93,8.14-2.93,8.14l3.17,10.42
				c0,0-3.35,13.96-2.71,18.57c0.65,4.6,4.85,9.36,2.61,23.09c-2.24,13.73,2.67,19.15,2.67,19.15s2.73,15.15-0.63,23.25
				c-3.35,8.09,3.64,12.49,3.94,17.53c0.3,5.04-2.67,12.33-4.04,16.34c-1.37,4.01,5.33,13.55,7.25,20.89
				c1.92,7.34-4.77,16.76-1.72,28.31c3.05,11.56,3.07,16.09,0.67,26.9c-2.4,10.81,4.48,14.92,3.43,21.7
				c-1.05,6.78-0.99,16.94-0.99,16.94s1.68,14.02-0.55,18.62c-2.22,4.6-4.73,11.43-2.62,15.72c2.1,4.29,1.57,8.17-1.62,7.58
				c-3.19-0.59-9.43,2.25-8.91,6.41c0.53,4.16-6.18,10.01-8.85,11.64C-176.34,755.63-184.1,760.42-178.48,760.82L-178.48,760.82z"/>
			<path id="path685853" sodipodi:nodetypes="csc" class="st6" d="M-21.92,428.82c-4.14,1.41-10.46,6.39-10.29,18.83
				c0.05,3.7,8.91,7.81,11,9.06"/>
			<path id="path685855" sodipodi:nodetypes="cscc" class="st7" d="M-12.02,451.86c1.54-2.9,8.11-3.11,14.88,0.25
				c6.01,2.99-12.09-0.03-12.09-0.03c11.87,0.7,25.75,5.77,27.78,12.6"/>
			<path id="path685857" sodipodi:nodetypes="ccccssc" class="st8" d="M-130.68,335.95c0.41-9-5.16-29.85-8.08-38.92
				c-3.24-15.45-7-12.51-6.36-29.23c-1.88-11.96-2.88-22.97,0.35-31.85c2.47-6.02,2.09-17.92,10.33-15.4
				c7.36,2.25,11.14,15.88,20.58,26.53c13.64,15.39,21.24,13.91,31.7,30.43"/>
			<path id="path685859" sodipodi:nodetypes="cscscccssc" class="st5" d="M-135.23,239.4c0.92,1.62,3.34,9.46,6.22,21.71
				c2.88,12.25,1.82,18.8,1.82,18.8s-3.74-10.75-5.42-8.71c-1.68,2.04,2.41,20.97,7.59,34.03c5.18,13.06,4.61,20.25,4.61,20.25
				l6.83-12.61c0,0-2.97-19.1-4.83-29.98c-1.86-10.89-5.26-23.26-7.69-28.13C-128.52,249.9-135.23,239.4-135.23,239.4z"/>
			<path id="path685861" sodipodi:nodetypes="cccsc" class="st8" d="M-118.84,321.29c-7.77-12.42-14.89-37.02-14.62-50.35
				 M-134.82,238.15c5.97,10.98,11.75,22.57,13.04,28.95c3.48,17.21,2.55,17.22,8.8,48.26"/>
			<path id="path685863" sodipodi:nodetypes="cscccc" class="st4" d="M33.11,251.71c0.14,0.28,5.58-9.16,6.73-13.28
				c1.06-3.8,5.56-8.67,5.75-6.94c2.21,12.9,2.86,50.54,2.63,49.29l-7.03-7.64L33.11,251.71z"/>
			<g id="g685873" transform="matrix(-1.2169435,0.05603457,0.06516985,1.415341,-550.94805,-39.934517)">
				<path id="path685865" sodipodi:nodetypes="ccc" class="st9" d="M-442.8,336.6c-5.8,8.57-24.17,8.88-33.78,3.56
					C-478.64,332.29-457.68,305.42-442.8,336.6z"/>
				
					<ellipse id="ellipse685867" transform="matrix(1 5.000748e-03 -5.000748e-03 1 1.665 2.3013)" class="st10" cx="-459.36" cy="334.09" rx="12.01" ry="-11.18"/>
				<path id="path685869" sodipodi:nodetypes="cccc" class="st11" d="M-452.17,323c3.81,2.6,7.18,7.72,9.33,16.39
					c-8.37,3.36-24.21,5.93-33.74,0.77c-1.74-6.5,4.56-15.47,12.38-18.38"/>
				
					<ellipse id="ellipse685871" transform="matrix(0.9994 -0.0348 0.0348 0.9994 -11.8979 -15.652)" class="st9" cx="-455.08" cy="333.58" rx="3.98" ry="-2.3"/>
			</g>
			<path id="path685875" sodipodi:nodetypes="cccc" class="st12" d="M-161.03,495.36c-1.83,9.08,5.18,18.71,10.86,18.93
				c-0.11,7.54,6.09,15.81,17.1,12.66c0.58,3.34,7.32,14.14,16.84,8.9"/>
			<path id="path685877" sodipodi:nodetypes="cccc" class="st13" d="M-65,501.1c7.44-6.2,6.92-16.94-1.19-24.03
				c4.09-2.74,11.89-12.11,2.06-13.99c22.94-10.02,17.02-24.79,7.99-22.73"/>
			<g id="g685887" transform="matrix(-1.6789314,0.07730695,0.07730695,1.6789314,-634.86789,-64.923384)">
				<path id="path685879" sodipodi:nodetypes="ccc" class="st9" d="M-304.96,300.43c-5.8,8.57-24.17,8.88-33.78,3.56
					C-340.8,296.13-319.84,269.26-304.96,300.43z"/>
				
					<ellipse id="ellipse685881" transform="matrix(0.9997 -0.0246 0.0246 0.9997 -7.4646 -7.8545)" class="st10" cx="-322.41" cy="298.93" rx="11.21" ry="-11.03"/>
				<path id="path685883" sodipodi:nodetypes="ccsc" class="st14" d="M-304.96,300.43c-5.8,8.57-24.17,8.88-33.78,3.56
					c-0.22-0.85-0.18-1.92,0.1-3.11C-336.34,291.01-318.23,272.62-304.96,300.43L-304.96,300.43z"/>
				
					<ellipse id="ellipse685885" transform="matrix(0.9997 -0.0246 0.0246 0.9997 -7.411 -7.7612)" class="st9" cx="-318.6" cy="296.8" rx="3.97" ry="-2.3"/>
			</g>
			<path id="path685889" sodipodi:nodetypes="cccccc" class="st13" d="M-90.97,425.71c-7.33-6.59-20.25-6.8-26.55-6.09
				 M-75.94,428.63c-11.79-3.92-22.82-2.54-32.02,4.06 M-54.42,428.76c-22.04-2-28.27,1.39-36.23,8.06"/>
			<path id="path685891" sodipodi:nodetypes="cccccc" class="st15" d="M-146.44,277.98c-2.71,1.3-11.26,7.58-8.74,20.46
				c-8.42,3.7-8.42,7.78-7.94,19.01c-13.62,5.53-3.4,25.89-2.58,26c1.2,5.92-4.58,14.63,1.98,20.65c4.61,3.45,3.28,2.09,3.52,16.8"
				/>
			<path id="path685893" class="st15" d="M-160.72,384.66c0.32-0.75,0.54-1.39,0.53-1.83c-0.02-0.74-0.02-1.26-0.03-1.94
				L-160.72,384.66z"/>
			<path id="path685895" sodipodi:nodetypes="ccscscssscsccsccsccsscc" class="st15" d="M-179.42,757.31
				c2.33-3.41,3.68-6.85,12.36-9.71c2.39-2.8,3.48-5.93,2.97-10.22c-0.62-5.16,11.32-3.72,12.26-4.06
				c2.96-1.07-5.33-10.97-2.33-17.88c1.81-4.18,4.99-5.5,5.52-10c1.16-9.89-5.43-19.66-0.03-29.39c3.5-6.31-1.31-8.97-2.77-15.72
				c-1.3-5.99-0.66-13.06,0.94-18.93c0.43-1.58,0.82-2.47,0.54-4.4c-0.76-6.22-5.41-12.04-6.22-18.68
				c-1.02-8.4,3.11-14.45,2.89-19.81c-0.26-6.13-4.2-11.9-4.6-18.3c-0.5-8.08,2.94-15.95,2.66-23.87
				c-0.15-4.38-3.68-8.51-3.52-14.13c0.1-3.45,2.3-6.86,2.16-10.2c-0.29-6.91-3.68-17.87-4.49-24.76
				c-1.42-12.03,1.21-11.15,1.5-23.09c-8.74-10.87-0.2-19.18-1.21-26.18c-5.61-8.73-0.19-16.53,0.38-21.18
				c1-8.15-1.05-12.16,1.21-17.79c2.74-6.83-0.1-7.02,0.27-14.41c-3.62-3.43-3.63-10.66-1.97-19.2"/>
			<path id="path685897" sodipodi:nodetypes="cssscsscssscccscccccc" class="st12" d="M65.82,773.56c0-2.41,2.1-5.33,2.05-13.62
				c-0.06-9.45-6.82-12.5-7.35-21.16c-0.28-4.57,6.4-7.95,1.24-22.35c-2.17-6.05-9.04-11.27-9.63-17.41
				c-0.56-5.88,3.16-7.57,2.91-15.97c-0.19-6.26-5.3-14.88-4.85-20.73c0.68-8.84,4.78-9.73,4.2-19.06
				c-0.42-6.76-0.84-8.14-1.82-14.45c-1.35-8.7,2.24-9.67,1.11-18.34c-0.81-6.21-2.21-6.67-2.96-12.4
				c-0.33-2.48,2.99-12.91,3.38-15.85c0.79-5.89-1.57-10.15-0.89-13.57c6.38-16.03,2.35-27.11,1.2-32.43
				c6.3-12.09,4.76-19.17,0.92-29.01c-1.91-4.89,10.32-12.81,1.21-29.59c5.89-14.69,3.75-18.62,0.08-25.66
				c5.93-10.87,2.38-13.64,0.05-18.9c1.83-8.18,2.47-14.17,0.33-20.62c2.81-11.36-0.57-17.55-3.46-24.15
				c2.43-7.59,2.83-19.18-1.42-26.31"/>
			<g id="g685913" transform="matrix(0.95186227,0,0,1.0006767,-20.667919,-4.5416542)">
				<path id="path685899" sodipodi:nodetypes="ccccccc" class="st16" d="M-104.47,392.24l-34.34,12.98l-7.27,17.03l1.03,4.95
					l8.33-12.88l31.15-7.14L-104.47,392.24z"/>
				<path id="path685901" sodipodi:nodetypes="ccccccccccscccccccs" d="M62.47,389.91c0-0.02-20.2,0.55-27.96,1.86
					c-2.45,0.42-3.29,0.69-3.12,3.58c-0.38,10.15,0.46,19.58,3.48,28.26c21.71,14.25,26.36,4.85,37.55,19.27l9.06-0.37
					c10.78-2.01,13.63-32.18,15.13-48.04c0-0.08,0-0.16-0.01-0.25C95.65,391.34,80.24,389.94,62.47,389.91L62.47,389.91z
					 M-36.82,389.97c-22.27,0.06-46.12,2.02-53.05,5.07c-1.87,0.84-2.06,2.07-1.7,4.28c1.35,18.32,4.01,50.72,19.74,52.39
					l47.71-4.14c1.85-0.16,2.72-0.45,3.97-1.89c9.38-9.32,16.11-33.03,14.94-49.93c0.1-0.66-0.49-3.57-3.7-3.91
					C-16.51,390.51-24.16,389.93-36.82,389.97L-36.82,389.97z"/>
				<path id="path685903" sodipodi:nodetypes="ccccccscscccccssccccccccccccccccccccccccsscccc" class="st17" d="M73.64,446.26
					l9.04-0.42c11.53-0.98,16.18-40.44,16.18-40.44l6.27-2.79c0.59-0.73,1.17-9.82,0.15-11.19l-6.62-2.23
					c-7.93-2.67-22.11-3.62-35.86-3.66l0,0l0,0c-16.35-0.05-32.07,1.93-34.51,3.07l-0.03,0.33v-0.18
					c-6.59-1.59-22.27-1.4-25.89,0.24l0.04-0.18c-2.55-1.2-18.42-3.72-39.22-3.91l-0.01,0c-19.4-0.18-41.65,0.77-55.46,4.19
					l-12.22,3.02c-2.07,1.89-2.18,14.29-1.17,15.25l11.01,3.27c0,0,3.69,46.92,22.69,45.23l48.82-4.35c3-0.46,3.76-1.18,4.82-2.39
					c10.13-11.61,16.86-29.38,19.69-40.06c8.69-3.9,20.98-2.94,26.7,0.71c0.7,4.17,1.74,8.44,3.05,12.55
					C45.88,429.85,69.32,430.99,73.64,446.26L73.64,446.26z M-36.83,389.97c12.67-0.03,20.31,0.54,27.92,1.87
					c3.2,0.35,3.79,3.25,3.7,3.91c1.16,16.9-5.56,40.61-14.94,49.93c-1.26,1.44-2.12,1.73-3.97,1.89l-47.71,4.14
					c-15.73-1.67-18.39-34.07-19.74-52.39c-0.36-2.21-0.17-3.45,1.7-4.28C-82.94,391.98-59.1,390.03-36.83,389.97L-36.83,389.97z
					 M34.29,421.87c-2.55-8.2-3.26-17.04-2.9-26.52c-0.16-2.89,0.67-3.17,3.12-3.58c7.76-1.32,27.96-1.88,27.96-1.86v0
					c17.86,0.03,33.36,1.45,34.16,4.36c-1.51,15.82-4.33,46.23-15.16,48.25l-8.13,0.33C64.16,432.19,47.31,428.86,34.29,421.87
					L34.29,421.87z"/>
				
					<linearGradient id="path685905_1_" gradientUnits="userSpaceOnUse" x1="-778.4199" y1="763.103" x2="-809.2556" y2="724.5641" gradientTransform="matrix(3.5601 0 0 -3.7426 2819.948 3146.5017)">
					<stop  offset="0" style="stop-color:#1D1D1D"/>
					<stop  offset="1" style="stop-color:#FFFFFF;stop-opacity:0"/>
				</linearGradient>
				<path id="path685905" class="st18" d="M-36.82,389.97c-22.27,0.06-46.12,2.02-53.05,5.07c-1.87,0.84-2.06,2.07-1.7,4.28
					c1.35,18.32,4.01,50.72,19.74,52.39l47.71-4.14c1.85-0.16,2.72-0.45,3.97-1.89c9.38-9.32,16.11-33.03,14.94-49.93
					c0.1-0.66-0.49-3.57-3.7-3.91C-16.51,390.51-24.16,389.93-36.82,389.97L-36.82,389.97z"/>
				
					<linearGradient id="path685907_1_" gradientUnits="userSpaceOnUse" x1="-758.8621" y1="754.5923" x2="-775.9553" y2="727.5526" gradientTransform="matrix(3.5601 0 0 -3.7426 2819.948 3146.5017)">
					<stop  offset="0" style="stop-color:#FFFFFF"/>
					<stop  offset="1" style="stop-color:#FFFFFF;stop-opacity:0"/>
				</linearGradient>
				<path id="path685907" sodipodi:nodetypes="cccccccccc" class="st19" d="M62.47,389.91c0-0.02-20.2,0.55-27.96,1.86
					c-2.45,0.42-3.29,0.69-3.12,3.58c-0.39,10.28,0.48,19.8,3.58,28.57c12.18,22.46,14.19,14.32,37.55,18.95l8.95-0.36
					c10.78-2.01,13.63-32.18,15.13-48.04c0-0.08,0-0.16-0.01-0.25C95.65,391.34,80.24,389.94,62.47,389.91L62.47,389.91z"/>
				
					<linearGradient id="path685909_1_" gradientUnits="userSpaceOnUse" x1="-781.0341" y1="734.1296" x2="-787.5285" y2="734.3707" gradientTransform="matrix(3.5601 0 0 -3.7426 2819.948 3146.5017)">
					<stop  offset="0" style="stop-color:#666666"/>
					<stop  offset="1" style="stop-color:#666666;stop-opacity:0"/>
				</linearGradient>
				<path id="path685909" sodipodi:nodetypes="ccccc" class="st20" d="M27.25,389.9l0.5,17.94c-2.72-1.79-7.16-2.48-12.33-2.71
					l-0.71-16.45C19.39,388.92,24.03,388.65,27.25,389.9z"/>
				
					<linearGradient id="path685911_1_" gradientUnits="userSpaceOnUse" x1="-2217.4417" y1="683.6569" x2="-2219.1868" y2="596.7858" gradientTransform="matrix(0.9419 0 0 -0.9902 2089.5215 1023.0155)">
					<stop  offset="0" style="stop-color:#646464"/>
					<stop  offset="1" style="stop-color:#1A1A1A;stop-opacity:0"/>
				</linearGradient>
				<path id="path685911" sodipodi:nodetypes="ccccccscscccccsscccccccccccccccccccccccssccc" class="st21" d="M73.95,446.25
					l8.74-0.41c11.53-0.98,16.18-40.44,16.18-40.44l6.27-2.79c0.59-0.73,1.17-9.82,0.15-11.19l-6.62-2.23
					c-7.93-2.67-22.11-3.62-35.86-3.66l0,0l0,0c-16.35-0.05-32.07,1.93-34.51,3.07l-0.03,0.33v-0.18
					c-6.59-1.59-22.27-1.4-25.89,0.24l0.04-0.18c-2.55-1.2-18.42-3.72-39.22-3.91l-0.01,0c-19.4-0.18-41.65,0.77-55.46,4.19
					l-12.22,3.02c-2.07,1.89-2.18,14.29-1.17,15.25l11.01,3.27c0,0,3.69,46.92,22.69,45.23l48.82-4.35c3-0.46,3.76-1.18,4.82-2.39
					c10.13-11.61,16.86-29.38,19.69-40.06c8.69-3.9,20.98-2.94,26.7,0.71c0.5,3,1.18,6.04,2.01,9.05 M-36.83,389.97
					c12.67-0.03,20.31,0.54,27.92,1.87c3.2,0.35,3.79,3.25,3.7,3.91c1.16,16.9-5.56,40.61-14.94,49.93
					c-1.26,1.44-2.12,1.73-3.97,1.89l-47.71,4.14c-15.73-1.67-18.39-34.07-19.74-52.39c-0.36-2.21-0.17-3.45,1.7-4.28
					C-82.94,391.98-59.1,390.03-36.83,389.97L-36.83,389.97z M33.75,421.14c-1.81-7.27-2.68-17.55-2.37-25.79
					c-0.16-2.89,0.67-3.17,3.12-3.58c7.76-1.32,27.96-1.88,27.96-1.86v0c17.86,0.03,33.36,1.45,34.16,4.36
					c-1.51,15.82-4.33,46.23-15.16,48.25l-8.88,0.36"/>
			</g>
			<path id="path685915" sodipodi:nodetypes="sssccsscs" class="st3" d="M15.17,378.74c0.22,1.64,3.14,12.75,9.32,13.2
				c6.18,0.45,10.06,0.6,11.05-4.98c0.99-5.58-0.75-13.68-0.75-13.68l-3.38,1.34c-0.11,0.09,0.53,4.15-5.1,3.45
				c-7.29-0.91-4.4,3.07-6,0.88C18.71,376.77,15.17,378.74,15.17,378.74L15.17,378.74z"/>
			<path id="path685917" sodipodi:nodetypes="sssccccs" class="st4" d="M15.17,378.74c0.22,1.64,3.14,12.75,9.32,13.2
				c6.18,0.45,10.06,0.6,11.05-4.98c0.99-5.58-0.75-13.68-0.75-13.68l-3.38,1.34c2.03,14.05-7.17,15.28-11.1,4.33
				C18.71,376.77,15.17,378.74,15.17,378.74L15.17,378.74z"/>
			<path id="path685919" sodipodi:nodetypes="cccccccsccccccccc" class="st12" d="M-113.2,373.38c9.42,6.73,25.48-2.36,26.79-7.54
				c7.74,6.24,18.33,6.53,24.57-1.78c4.05,4.08,9.4,10.34,16.93,10.09c6.91,2.4,13.37-0.95,19.17-4.88c4.91,7.45,15.17,7.83,22,3.76
				c3.03,6.47,8.42,9.13,17.4,4.31c1.13,6.52,6.45,18.29,16.72,15.21c8.06-2.42,7.33-12.6,5.99-19.99c1.87-3.98,11-14.98,4.94-26.78
				c-3.69-7.3,8.15-13.26,6.1-20.95c-0.26-6.48-2.07-14.02-7.63-17.59c-0.49-6.37,2.35-11.74-2.38-18.23 M28.05,275.26
				c-0.89-11.8-8.6-15.26-18.15-15.74c-1.94-4.22-8.57-15.12-20.81-11.68c-1.29-2.83-5.68-8.79-13.32-10.9"/>
			<path id="path685921" sodipodi:nodetypes="cscccc" class="st12" d="M-73.92,273.54c-3.92,4.16-2.58,2.63-12.32,8.53
				c-4.27,2.59-6.65,11.56-7.67,15.98c-1.92,4.89-7.31,5.29-10.9,8.74c-2.95,1.7-12.89,12.52-13.78,19.9
				c-12.25,9.19-10.93,8.68-14.03,19.84"/>
			<path id="path685923" sodipodi:nodetypes="csscc" class="st8" d="M16.41,246.29c0,0,5.04-7.12,9.15-11.71
				c8.09-9.04,10.48-17.41,14.08-19.11c4.42-2.1,8.71,2.58,8.71,2.58c6.25,8.82,0.39,39.92,1.38,62.12"/>
			<path id="path685925" sodipodi:nodetypes="cccccc" class="st22" d="M37.59,430.33l1.08,2.09 M28.73,433.11l1.51,3.27
				 M19.2,433.81l1.31,6.14"/>
			<path id="path685927" sodipodi:nodetypes="cccccccccc" class="st12" d="M40.43,366.86c7.76-1.67,17.74-11.13,16.58-18.99
				c2.17-0.76,13-5.75,8.34-19.66c-0.15-7.48,0.66-15.54-7.87-22.89c0.17-15.91-1.44-16.39-6.9-23.74
				c-14.48-22.22-9.01-19.98-25.54-26.05c-6.49-6.01-9.42-14.56-37.6-11.71c-14.89-13.91-40.46-10.17-41.95-5.9
				c-15.62-8.12-26.18,0.81-31.52,3.96c-3.44-1.71-19.94-0.31-23,7.94"/>
			<path id="path685929" class="st8" d="M33.29,256.09c0,0,5.68-18.65,7.91-20.13"/>
			<path id="path685931" sodipodi:nodetypes="csscc" class="st6" d="M1.23,405.68c0.54,4.9,3.76,9.3,9.56,12.32
				C24,424.86,43.4,430.56,47,435.9c3.59,5.35,1.6,12.8,1.6,12.8c-1.98,3.48-3.54,7.45-8.4,9.12"/>
			<path id="path685933" sodipodi:nodetypes="cscc" class="st23" d="M41.72,447.41c-2.41-2.09-8.8,0-14.44,4.93
				c-5,4.38,12.74-4.74,12.74-4.74c-8.53,4.03-20.04,10.96-20.93,16.94"/>
			<path id="path685935" sodipodi:nodetypes="cccccc" class="st22" d="M-10.34,433.15l-0.15,0.76 M-0.95,434.89l-1.2,3.39
				 M8.22,435.57l0.24,3.77"/>
			<path id="path685937" sodipodi:nodetypes="csc" class="st6" d="M47.43,453.04c0,0,7.1,18.57,1.49,27.18
				c-9.23,14.17-28.57,4.02-30.38-1.17"/>
			<path id="path685939" sodipodi:nodetypes="csc" class="st6" d="M18.4,464.44c0,0,4.19,18.16-12.01,23.59
				c-28.76,9.65-47.33-14.54-47.1-21.5"/>
			<path id="path685941" sodipodi:nodetypes="cc" class="st6" d="M35.8,489.07c-4.47,16.96-10.18,5.7-27.04,11.18"/>
			<path id="path685943" sodipodi:nodetypes="cc" class="st6" d="M-36.44,464.63c-4.17-1.67-7.81,0.21-9.46,3.97"/>
			<path id="path685945" sodipodi:nodetypes="ccccc" class="st12" d="M-55.06,525.55c13.11-3.34,14.46,14.7,14.25,11.79
				c15.81-7,15.44-0.87,24.09,4.75c-1.94,1.84,18.3-15.56,31.84,2c-0.13-3.92,8.26-20.49,20.56-11.7"/>
			<path id="path685947" sodipodi:nodetypes="cccc" class="st10" d="M14.44,485.14c2.07-1.54,4.13-2.5,8.49-0.13l-4.64-6.37
				L14.44,485.14z"/>
			<g id="g686151" transform="translate(272.03188,2.7219637)">
				<g>
					<defs>
						<rect id="SVGID_1_" x="-364.23" y="683.51" width="191.22" height="191.22"/>
					</defs>
					<clipPath id="SVGID_2_">
						<use xlink:href="#SVGID_1_"  style="overflow:visible;"/>
					</clipPath>
					<g id="g686085" transform="matrix(0.05112821,0,0,-0.05112821,-701.89645,227.83152)" class="st24">
						<g id="g685951" transform="matrix(0.88039568,0,0,1,505.05589,335.9668)">
							<path id="path685949" sodipodi:nodetypes="ccscccccc" class="st25" d="M9073.8-11738.46l-159.87,15.5
								c-315.24,31.2-598.81,299.54-570.96,672.26c6.48,86.67,39.17,181.92,78.1,253.73c18.14,15.12,99.31,148.63,255.4,231.78
								c224.13,119.43,380.69,88.35,402.24,85.71c-458.08-74.46-549.92-408.19-571.47-585.45
								c-15.88-132.28,24.94-255.88,54.04-313.7C8606.27-11469.36,8743.85-11713.14,9073.8-11738.46"/>
						</g>
						<g id="g685955" transform="translate(521.4004,668.3667)">
							<path id="path685953" class="st26" d="M8033.97-10814.54c346.92,0,628.16-281.24,628.16-628.16
								c0-346.92-281.24-628.16-628.16-628.16c-346.92,0-628.16,281.24-628.16,628.16
								C7405.81-11095.78,7687.04-10814.54,8033.97-10814.54"/>
						</g>
						<g id="g685959" transform="translate(521.4004,635.2666)">
							<path id="path685957" class="st25" d="M8033.97-10906.54c277.83,0,503.06-225.23,503.06-503.06
								c0-277.83-225.23-503.06-503.06-503.06c-277.83,0-503.06,225.23-503.06,503.06
								C7530.91-11131.77,7756.14-10906.54,8033.97-10906.54"/>
						</g>
						<g id="g685963" transform="translate(523.9004,334.7666)">
							<path id="path685961" d="M8040.92-11741.8l-2.65,14.74L8040.92-11741.8z"/>
						</g>
						<g id="g685967" transform="translate(359.7998,546.167)">
							<path id="path685965" sodipodi:nodetypes="cccccccc" class="st27" d="M7584.79-11154.2l-79.53,13.12
								c-1.51,0.38-2.65,1.89-2.65,3.4c0.38,1.51,1.51,2.65,3.02,2.65l80.66-4.43c4.16-0.38,7.18-3.78,7.18-7.94
								c-0.38-4.16-3.78-7.18-7.94-7.18C7585.17-11154.2,7585.17-11154.2,7584.79-11154.2"/>
						</g>
						<g id="g685971" transform="translate(353.7002,484.667)">
							<path id="path685969" sodipodi:nodetypes="ccccccsc" class="st27" d="M7567.84-11325.14l-78.15,13.93
								c-1.51,0.37-2.65,1.89-2.65,3.4c0.38,1.51,1.51,2.64,3.02,2.64l79.29-4.85c4.16-0.38,7.18-3.78,7.18-7.94
								c-0.38-4.15-3.78-7.18-7.94-7.18H7567.84z"/>
						</g>
						<g id="g685975" transform="translate(372.6001,420.667)">
							<path id="path685973" sodipodi:nodetypes="ccccccsc" class="st27" d="M7620.37-11503.03l-79.08,14.31
								c-1.51,0.38-2.65,1.89-2.65,3.4c0.38,1.52,1.51,2.65,3.02,2.65l79.84-5.24c4.16-0.38,7.18-3.78,7.18-7.94
								c-0.38-4.16-3.78-7.18-7.94-7.18H7620.37z"/>
						</g>
						<g id="g685979" transform="translate(414.2002,370.0664)">
							<path id="path685977" sodipodi:nodetypes="ccscscsscscc" class="st27" d="M7736-11643.68c-7.94,2.27-15.87,3.03-23.43,4.16
								l-23.81,3.4c-15.87,2.27-14.84,5.32-30.34,7.21c-1.51,0.37-3.02,1.89-2.65,3.4c0.38,1.51,1.51,2.65,3.4,2.65
								c15.87-1.13,14.84-3.43,30.72-4.19l23.81-1.13c7.94-0.38,15.87-1.13,23.81-0.38c4.16,0.38,7.94-2.65,8.31-6.81
								c0.38-4.15-2.65-7.93-6.8-8.31C7737.89-11644.06,7736.76-11643.68,7736-11643.68"/>
						</g>
						<g id="g685983" transform="translate(521.0996,665.7666)">
							<path id="path685981" class="st27" d="M8033.13-10821.77c-314.08,0-584.7-237.73-618.71-556.73
								c-17.76-165.54,30.24-327.69,134.55-457.32c104.32-129.26,253.23-210.52,418.4-227.91c22.3-2.27,44.6-3.4,66.52-3.4
								c314.08,0,584.7,237.73,618.71,556.73c36.28,341.29-211.65,648.95-553.33,685.23
								C8076.98-10822.9,8055.06-10821.77,8033.13-10821.77 M8033.89-12082.62c-22.68,0-45.35,1.13-68.03,3.78
								c-169.32,18.14-321.64,100.92-428.6,233.58c-106.96,132.66-156.1,298.96-137.95,468.29l7.56-0.76l-7.56,0.76
								c37.42,349.61,352.25,603.97,701.86,566.55c349.61-37.42,603.97-352.25,566.55-701.86
								C8632.95-11839.22,8355.53-12082.62,8033.89-12082.62"/>
						</g>
						<g id="g685987" transform="translate(481.87299,335.11222)">
							<path id="path685985" sodipodi:nodetypes="ccscsccccc" class="st27" d="M7924.1-11740.84h-0.76
								c-349.61,37.41-603.97,352.25-566.55,701.86c37.42,349.61,352.25,603.97,701.86,566.55c4.16-0.38,7.18-4.16,6.8-8.31
								c-0.38-4.16-4.16-7.18-8.31-6.8c-341.29,36.28-648.95-211.65-685.23-553.33c-36.28-341.3,211.65-648.95,553.33-685.23
								c4.16-0.37,7.18-4.15,6.8-8.31C7931.28-11738.19,7927.88-11740.84,7924.1-11740.84"/>
						</g>
						<g id="g685991" transform="translate(430.7998,402.2666)">
							<path id="path685989" class="st27" d="M7782.14-11554.18c-23.43,18.52-44.6,40.44-63.5,63.87l-13.61,18.14
								c-2.27,3.02-4.16,6.05-6.43,9.45l-6.05,9.45c-1.89,3.02-4.16,6.42-6.05,9.45l-5.67,9.83l-5.67,9.83l-2.65,4.91l-2.65,4.91
								c-27.59,53.67-45.73,112.25-52.91,171.97c-14.74,119.81,14.36,244.91,82.02,345.07c33.64,50.27,76.35,94.11,125.48,129.64
								c48.76,35.53,104.32,61.61,162.52,77.86c29.1,7.94,58.96,13.61,88.82,16.25c29.86,2.65,60.47,2.65,90.33,0
								c30.24-2.27,59.71-7.94,88.82-15.5c14.36-4.16,28.72-8.69,42.71-14.36c13.99-5.67,27.59-12.09,40.45-20.03
								c1.89-1.13,2.26-3.4,1.13-5.29c-0.76-1.51-3.02-2.27-4.54-1.51c-13.98,4.91-27.97,9.83-41.95,14.36
								c-13.99,4.54-27.97,8.69-41.96,12.47c-28.35,7.56-57.07,12.47-86.55,14.74c-29.11,2.27-58.58,2.65-87.69-0.38
								c-29.1-2.65-57.83-8.32-86.17-16.25c-56.31-15.87-109.61-41.58-156.85-75.97c-47.24-34.39-88.44-77.1-120.95-125.48
								c-65.76-96.76-94.11-217.32-80.5-333.35c6.8-58.21,24.19-114.9,50.65-166.68c13.61-26.08,29.1-50.64,46.49-74.08
								c17.76-23.43,36.66-45.73,56.32-67.65c1.51-1.51,1.13-3.78-0.38-5.29C7785.92-11555.31,7783.65-11555.31,7782.14-11554.18"/>
						</g>
						<g id="g685995" transform="translate(621.2998,412.167)">
							<path id="path685993" class="st27" d="M8311.64-11526.66c-18.9-24.57-41.19-46.49-65.39-66.14l-18.52-13.98
								c-6.42-4.54-12.85-8.69-19.28-13.23c-6.43-4.54-13.23-8.32-20.03-12.09c-6.8-3.78-13.23-7.94-20.41-11.34
								c-27.59-14.74-56.69-26.46-86.17-35.53l-11.34-3.4c-3.78-1.13-7.56-2.27-11.34-3.02l-22.68-5.29
								c-7.56-1.51-15.49-2.65-23.05-4.16c-3.78-0.76-7.56-1.51-11.72-1.89l-11.72-1.51c-15.5-2.27-30.99-2.27-46.87-3.02
								c-7.94,0-15.5,0-23.43,0.38c-3.78,0-7.94,0-11.72,0.38l-11.71,0.76c-15.5,1.13-31,2.64-46.49,5.29
								c-15.5,2.65-30.61,5.67-45.73,9.83c-15.12,3.78-29.86,8.69-44.6,13.98c-14.74,5.29-29.1,11.34-43.09,18.15
								c-27.97,13.61-54.8,30.24-78.24,50.65c-1.51,1.51-1.89,3.78-0.38,5.29c1.13,1.51,3.02,1.89,4.91,0.76
								c13.23-7.56,26.46-15.12,39.69-22.3c13.61-6.8,26.83-13.98,40.82-20.03c27.59-12.47,55.94-22.68,85.04-30.24
								c14.74-3.78,29.48-6.8,44.22-9.07c14.74-2.65,29.86-4.16,44.98-4.91l11.34-0.76c3.78-0.38,7.56,0,11.34-0.38
								c7.56,0,15.12-0.38,22.68-0.38c15.12,0.76,30.24,1.14,44.98,3.03l11.34,1.13c3.78,0.38,7.56,1.13,11.34,1.89
								c7.56,1.13,14.74,2.27,22.3,3.78l21.92,4.91c3.78,0.76,7.18,1.89,10.96,3.02l10.96,3.02c28.72,8.7,57.07,19.66,83.91,33.64
								c26.84,13.98,52.54,29.86,76.35,48.38c23.81,18.52,46.87,38.55,68.79,59.34c1.51,1.51,3.78,1.51,5.29,0
								C8312.78-11523.26,8312.78-11525.15,8311.64-11526.66"/>
						</g>
						<g id="g685999" transform="translate(631.9004,576.0669)">
							<path id="path685997" class="st27" d="M8341.11-11071.09c28.35-37.04,50.27-78.99,65.39-123.59
								c3.78-10.96,7.18-22.3,10.21-33.64c2.64-11.34,5.67-22.68,7.94-34.39c4.15-23.06,7.56-46.49,8.32-69.92
								c2.26-46.87-2.65-94.11-13.61-139.84c-10.96-45.73-29.1-89.58-54.42-128.88c-1.13-1.89-3.41-2.27-5.29-1.13
								c-1.51,1.13-2.26,3.02-1.51,4.91c19.28,41.58,34.77,84.66,44.97,128.88c4.91,22.3,8.69,44.6,10.58,67.28
								c2.27,22.68,2.65,45.35,1.89,68.03c-0.75,22.68-3.4,45.35-7.18,67.65c-1.89,11.34-4.54,22.3-6.8,33.26
								c-3.03,10.96-5.67,21.92-9.45,32.88c-13.61,43.46-33.64,84.66-56.69,123.97c-1.14,1.89-0.38,4.16,1.51,5.29
								C8337.71-11068.83,8339.97-11069.58,8341.11-11071.09"/>
						</g>
						<g id="g686003" transform="translate(607.4004,603.2666)">
							<path id="path686001" class="st27" d="M8273.01-10995.49c5.67-2.65,10.96-6.43,15.87-9.83c4.92-3.78,9.83-7.94,13.98-12.09
								c4.54-4.16,8.69-8.69,12.47-13.61c3.78-4.91,7.56-9.83,10.2-15.5c1.13-1.89,0.38-4.16-1.89-5.29
								c-1.13-0.76-2.65-0.38-3.78,0.38c-5.29,3.4-9.82,7.18-14.36,11.34c-4.54,4.16-9.08,7.94-13.23,12.09
								c-4.16,4.16-8.32,8.69-12.47,12.85c-4.16,4.54-7.94,9.07-11.72,13.98c-1.13,1.89-0.75,4.16,0.76,5.29
								C8269.98-10994.73,8271.5-10994.73,8273.01-10995.49"/>
						</g>
						<g id="g686007" transform="translate(538.9004,664.7666)">
							<path id="path686005" sodipodi:nodetypes="cccscccc" class="st27" d="M8082.61-10824.55h-0.76l-152.43,12.81
								c-4.15,0.38-7.18,4.16-6.8,8.32s4.16,7.18,8.31,6.8l160.32-12.45c4.16-0.38-0.71-4.52-1.09-8.67
								C8089.41-10821.53,8086.39-10824.55,8082.61-10824.55"/>
						</g>
						<g id="g686011" transform="translate(503.5,333.167)">
							<path id="path686009" class="st27" d="M7984.21-11746.24h-0.76l-160.25,17.01c-4.16,0.38-7.18,4.16-6.8,8.32
								s4.16,7.18,8.31,6.8l160.25-17.01c4.16-0.38,7.18-4.16,6.8-8.31C7991.39-11743.6,7987.99-11746.24,7984.21-11746.24"/>
						</g>
						<g id="g686015" transform="translate(392.8999,606.167)">
							<path id="path686013" sodipodi:nodetypes="cccccscc" class="st27" d="M7676.79-10987.43l-85.21,10.24
								c-1.89,0.38-3.4,2.27-3.4,4.16c0.38,1.89,1.89,3.4,4.16,3.4l85.97-3.06c4.16-0.38,7.18-3.78,6.8-7.94
								c-0.38-4.16-3.78-7.18-7.94-6.8H7676.79z"/>
						</g>
						<g id="g686019" transform="translate(444.1001,647.3667)">
							<path id="path686017" sodipodi:nodetypes="ccsccssc" class="st27" d="M7819.11-10872.91l-80.33,11.18
								c-1.89,0.38-3.4,2.27-3.02,4.16c0.38,1.89,1.89,3.4,4.16,3.4l81.09-3.62c4.16-0.38,7.18-3.78,7.18-7.94
								c0-4.16-3.78-7.18-7.94-7.18H7819.11z"/>
						</g>
						<g id="g686023" transform="translate(568.7002,499.9668)">
							<path id="path686021" class="st28" d="M8165.44-11282.62l-63.5,149.29l10.58,123.97l78.61,13.61l-24.94-282.71
								L8165.44-11282.62z"/>
						</g>
						<g id="g686027" transform="translate(551.9004,539.4668)">
							<path id="path686025" class="st26" d="M8118.74-11172.83l63.5-149.29l0.76,4.16l24.94,282.71l62.74,10.58l78.62,13.23
								l-64.25-582.05l-78.24-13.23l-43.85-7.56l-112.25,263.43l-15.87-159.5l-12.85-127.75l-78.61-13.23l-43.46-7.18
								l-235.09,531.03l64.25,10.96l78.24,13.23l49.89-117.17l60.47-144l3.02-7.56l26.46,292.54l44.22,7.56l78.61,13.23
								L8118.74-11172.83z"/>
						</g>
						<g id="g686031" transform="translate(533.9004,492.3672)">
							<path id="path686029" class="st28" d="M8068.71-11303.74l112.25-263.43l-78.23-13.23l-49.89,117.17L8068.71-11303.74z"/>
						</g>
						<g id="g686035" transform="translate(485.7002,560.667)">
							<path id="path686033" class="st28" d="M7934.74-11113.9l78.61,13.23l-26.46-292.54l-3.02,7.56l-60.47,144L7934.74-11113.9z"
								/>
						</g>
						<g id="g686039" transform="translate(431.7998,551.4668)">
							<path id="path686037" class="st28" d="M7784.92-11139.47l235.09-531.03l-78.61-13.23l-235.09,531.03L7784.92-11139.47z"/>
						</g>
						<g id="g686043" transform="translate(592.0996,578.667)">
							<path id="path686041" class="st29" d="M8230.48-11063.87l78.62,13.23l-64.25-582.05l-78.24-13.23"/>
						</g>
						<g id="g686047" transform="translate(518.2002,566.167)">
							<path id="path686045" class="st29" d="M8025.07-11098.61l78.61,13.23l48.76-114.14l63.5-149.29l0.76,4.16l24.95,282.71"/>
						</g>
						<g id="g686051" transform="translate(482.7002,526.8667)">
							<path id="path686049" class="st29" d="M7926.4-11207.85l60.47-144l3.02-7.56l26.46,292.54"/>
						</g>
						<g id="g686055" transform="translate(448.7998,554.3667)">
							<path id="path686053" class="st29" d="M7832.17-11131.41l78.24,13.23l49.89-117.17"/>
						</g>
						<g id="g686059" transform="translate(494,410.9668)">
							<path id="path686057" class="st29" d="M7957.81-11530l-235.09,531.03"/>
						</g>
						<g id="g686063" transform="translate(529.7002,450.167)">
							<path id="path686061" class="st29" d="M8057.04-11421.04l-12.85-127.75l-78.61-13.23"/>
						</g>
						<g id="g686067" transform="translate(563.5996,422.667)">
							<path id="path686065" class="st29" d="M8151.26-11497.47l-112.25,263.43l-15.87-159.5"/>
						</g>
						<g id="g686071" transform="translate(482.7002,526.8667)">
							<path id="path686069" class="st29" d="M7926.4-11207.85L7926.4-11207.85l11.34,127.75l78.61,13.23l44.22,7.56"/>
						</g>
						<g id="g686075" transform="translate(448.7998,554.3667)">
							<path id="path686073" class="st29" d="M7832.17-11131.41l-64.25-10.96l-78.61-13.23l235.09-531.03l78.61,13.23l43.46,7.18"/>
						</g>
						<g id="g686079" transform="translate(575.2002,424.667)">
							<path id="path686077" class="st29" d="M8183.51-11491.92l-43.85-7.56l-78.23-13.23l-49.89,117.17"/>
						</g>
						<g id="g686083" transform="translate(551.9004,539.4668)">
							<path id="path686081" class="st29" d="M8118.74-11172.83l10.58,123.97l78.61,13.61l62.74,10.58"/>
						</g>
					</g>
				</g>
				<path id="path686087" sodipodi:nodetypes="ccsscc" class="st30" d="M-276.48,747.08c0.81,1.63,7.43,0.02,8.88-0.66
					c-0.72-1.48-0.61-7.56-2.3-12.22c-1.59-4.4-6.54-3.16-7.25-0.76C-278.03,736.44-276.7,747.25-276.48,747.08L-276.48,747.08z"/>
				<path id="path686089" sodipodi:nodetypes="ccsscc" class="st28" d="M-274.82,732.35l2.01,14.78c-0.88,0.41-3.17,0.13-3.34-0.31
					c-0.78-2.05-1.1-9.88-0.84-12.61c0.19-1.94,1.98-2.24,1.98-2.24L-274.82,732.35z"/>
				
					<g id="g686095" transform="rotate(-21.693265,-677.66413,190.60318)" inkscape:transform-center-x="-3.8133897" inkscape:transform-center-y="-3.8052311">
					
						<linearGradient id="path686091_1_" gradientUnits="userSpaceOnUse" x1="-1412.2555" y1="410.4943" x2="-1410.2501" y2="408.6693" gradientTransform="matrix(3.4752 1.3825 1.3825 -3.4752 3847.8704 4217.3945)">
						<stop  offset="0" style="stop-color:#FFD31A"/>
						<stop  offset="1" style="stop-color:#FFE98F"/>
					</linearGradient>
					<path id="path686091" sodipodi:nodetypes="cscsccccscsccc" class="st31" d="M-492.75,836.4c0.19-0.1,0.39-0.19,0.59-0.29
						c4.92-2.31,9.87-2.14,11.05,0.38c1.18,2.52-1.85,6.43-6.77,8.74c-4.92,2.31-9.87,2.14-11.05-0.38
						c-1.02-1.41,0.5-3.59,1.07-4.28c-0.95,0.05-2.98,0.28-5.37,1.55c-0.98,1.84-1.26,3.53-0.57,5.01c1.83,3.9,9.48,4.16,17.09,0.59
						c7.61-3.57,12.3-9.62,10.47-13.52c-1.83-3.9-9.07-3.1-17.09-0.59c-2.74,0.85-11.93,7.25-10.38,8.62c1.22-0.19,3.48-2.12,5.65-2
						L-492.75,836.4z"/>
					
						<linearGradient id="path686093_1_" gradientUnits="userSpaceOnUse" x1="-1412.2544" y1="410.4969" x2="-1410.249" y2="408.6719" gradientTransform="matrix(3.4752 1.3825 1.3825 -3.4752 3858.9312 4211.8545)">
						<stop  offset="0" style="stop-color:#FFD31A"/>
						<stop  offset="1" style="stop-color:#FFE98F"/>
					</linearGradient>
					<path id="path686093" sodipodi:nodetypes="cscsccccscscc" class="st32" d="M-481.69,830.86c0.19-0.1,0.39-0.19,0.59-0.29
						c4.92-2.31,9.87-2.14,11.05,0.38c1.18,2.52-1.85,6.43-6.77,8.74c-4.92,2.31-9.87,2.14-11.05-0.38
						c-1.02-1.41,0.5-3.59,1.07-4.28c-0.95,0.05-2.98,0.28-5.37,1.55c-0.98,1.84-1.26,3.53-0.57,5.01c1.83,3.9,9.48,4.16,17.09,0.59
						c7.61-3.57,12.3-9.62,10.47-13.52c-1.83-3.9-9.48-4.16-17.09-0.59c-2.15,1.01-4.8,2.59-5.66,3.34
						C-486.72,831.22-483.87,830.74-481.69,830.86L-481.69,830.86z"/>
				</g>
				
					<g id="g686101" transform="rotate(-21.693265,-688.79859,175.69618)" inkscape:transform-center-x="-8.628665" inkscape:transform-center-y="-8.9767184">
					
						<linearGradient id="path686097_1_" gradientUnits="userSpaceOnUse" x1="-1418.5532" y1="413.5569" x2="-1416.5479" y2="411.7318" gradientTransform="matrix(3.4752 1.3825 1.3825 -3.4752 3883.0374 4228.2314)">
						<stop  offset="0" style="stop-color:#FFD31A"/>
						<stop  offset="1" style="stop-color:#FFE98F"/>
					</linearGradient>
					<path id="path686097" sodipodi:nodetypes="cscsccccscscc" class="st33" d="M-475.24,827.89c0.19-0.1,0.39-0.19,0.59-0.29
						c4.92-2.31,9.87-2.14,11.05,0.38c1.18,2.52-1.85,6.43-6.77,8.74c-4.92,2.31-9.87,2.14-11.05-0.38
						c-1.02-1.41,0.5-3.59,1.07-4.28c-0.95,0.05-2.98,0.28-5.37,1.55c-0.98,1.84-1.26,3.53-0.57,5.01c1.83,3.9,9.48,4.16,17.09,0.59
						c7.61-3.57,12.3-9.62,10.47-13.52c-1.83-3.9-9.48-4.16-17.09-0.59c-2.15,1.01-4.8,2.59-5.66,3.34
						C-480.27,828.26-477.42,827.78-475.24,827.89L-475.24,827.89z"/>
					
						<linearGradient id="path686099_1_" gradientUnits="userSpaceOnUse" x1="-1418.5532" y1="413.5569" x2="-1416.5479" y2="411.7318" gradientTransform="matrix(3.4752 1.3825 1.3825 -3.4752 3894.0981 4222.6909)">
						<stop  offset="0" style="stop-color:#FFD31A"/>
						<stop  offset="1" style="stop-color:#FFE98F"/>
					</linearGradient>
					<path id="path686099" sodipodi:nodetypes="cscsccccscscc" class="st34" d="M-464.18,822.35c0.19-0.1,0.39-0.19,0.59-0.29
						c4.92-2.31,9.87-2.14,11.05,0.38c1.18,2.52-1.85,6.43-6.77,8.74c-4.92,2.31-9.87,2.14-11.05-0.38
						c-1.02-1.41,0.5-3.59,1.07-4.28c-0.95,0.05-2.98,0.28-5.37,1.55c-0.98,1.84-1.26,3.53-0.57,5.01c1.83,3.9,9.48,4.16,17.09,0.59
						c7.61-3.57,12.3-9.62,10.47-13.52c-1.83-3.9-9.48-4.16-17.09-0.59c-2.15,1.01-4.8,2.59-5.66,3.34
						C-469.21,822.72-466.36,822.24-464.18,822.35L-464.18,822.35z"/>
				</g>
				
					<g id="g686111" transform="rotate(-21.693265,-699.76973,161.03832)" inkscape:transform-center-x="-16.059874" inkscape:transform-center-y="-24.215302">
					
						<linearGradient id="path686103_1_" gradientUnits="userSpaceOnUse" x1="-1420.8772" y1="420.2442" x2="-1418.8718" y2="418.4192" gradientTransform="matrix(3.5439 1.1954 1.1954 -3.5439 4074.939 4009.2239)">
						<stop  offset="0" style="stop-color:#FFD31A"/>
						<stop  offset="1" style="stop-color:#FFE98F"/>
					</linearGradient>
					<path id="path686103" sodipodi:nodetypes="cscsccccscscc" class="st35" d="M-458.52,819.38c0.19-0.11,0.38-0.21,0.57-0.32
						c4.79-2.57,9.74-2.66,11.06-0.21c1.31,2.45-1.51,6.52-6.3,9.09c-4.79,2.57-9.74,2.66-11.06,0.21
						c-1.09-1.36,0.31-3.61,0.84-4.33c-0.94,0.1-2.96,0.44-5.28,1.84c-0.88,1.89-1.07,3.6-0.3,5.03c2.03,3.79,9.69,3.65,17.1-0.32
						c7.41-3.97,11.77-10.26,9.74-14.06c-2.03-3.79-9.69-3.65-17.1,0.32c-2.09,1.12-4.66,2.85-5.48,3.64
						C-463.52,820.01-460.7,819.38-458.52,819.38L-458.52,819.38z"/>
					
						<linearGradient id="path686105_1_" gradientUnits="userSpaceOnUse" x1="-1415.4244" y1="424.8054" x2="-1413.4191" y2="422.9804" gradientTransform="matrix(3.6198 0.9409 0.9409 -3.6198 4276.1411 3684.3474)">
						<stop  offset="0" style="stop-color:#FFD31A"/>
						<stop  offset="1" style="stop-color:#FFE98F"/>
					</linearGradient>
					<path id="path686105" sodipodi:nodetypes="cscsccccscscc" class="st36" d="M-448.22,812.88c0.18-0.12,0.36-0.24,0.55-0.36
						c4.6-2.9,9.53-3.35,11.01-0.99c1.48,2.35-1.04,6.61-5.64,9.51c-4.6,2.9-9.53,3.35-11.01,0.99c-1.18-1.27,0.05-3.62,0.53-4.38
						c-0.93,0.17-2.92,0.65-5.14,2.21c-0.75,1.95-0.81,3.66,0.06,5.04c2.3,3.64,9.92,2.95,17.03-1.53
						c7.11-4.49,11.01-11.07,8.72-14.71c-2.3-3.64-9.92-2.95-17.03,1.53c-2.01,1.27-4.44,3.17-5.21,4.02
						C-453.17,813.87-450.4,813.04-448.22,812.88L-448.22,812.88z"/>
					
						<linearGradient id="path686107_1_" gradientUnits="userSpaceOnUse" x1="-1409.5421" y1="429.0481" x2="-1407.5367" y2="427.2231" gradientTransform="matrix(3.6784 0.6764 0.6764 -3.6784 4457.7085 3338.6221)">
						<stop  offset="0" style="stop-color:#FFD31A"/>
						<stop  offset="1" style="stop-color:#FFE98F"/>
					</linearGradient>
					<path id="path686107" sodipodi:nodetypes="cscsccccscscc" class="st37" d="M-437.64,805.1c0.17-0.13,0.34-0.27,0.52-0.4
						c4.38-3.23,9.26-4.03,10.91-1.79c1.65,2.24-0.56,6.67-4.93,9.9s-9.26,4.03-10.91,1.79c-1.27-1.19-0.21-3.61,0.21-4.41
						c-0.92,0.24-2.87,0.86-4.96,2.57c-0.6,2-0.54,3.71,0.42,5.02c2.55,3.46,10.11,2.23,16.87-2.76c6.77-4.99,10.18-11.84,7.63-15.3
						c-2.55-3.46-10.11-2.23-16.88,2.76c-1.91,1.41-4.2,3.48-4.9,4.38C-442.5,806.44-439.8,805.41-437.64,805.1L-437.64,805.1z"/>
					
						<linearGradient id="path686109_1_" gradientUnits="userSpaceOnUse" x1="-1357.1931" y1="449.6445" x2="-1355.1877" y2="447.8195" gradientTransform="matrix(3.2445 0.0814 -1.3253 -3.3082 4568.5913 2395.6055)">
						<stop  offset="0" style="stop-color:#FFD31A"/>
						<stop  offset="1" style="stop-color:#FFE98F"/>
					</linearGradient>
					<path id="path686109" sodipodi:nodetypes="cccccsccccscc" class="st38" d="M-436.04,799.79c0.7-0.53,1.82-1.03,3.36-1.6
						l0.14-2.41 M-429.58,792.46c1.67-1.08,3.8-1.1,5.31-0.03c2.43,1.73,2.93,5.91,1.11,9.33c-1.82,3.43-4.69,4.93-7.13,3.2
						c-1.6-0.86-1.66-1.61-1.73-2.36c-0.61,0.33-2.49,0.09-3.28,1.87c0.53,1.83,1.2,2.74,2.63,3.75c3.77,2.67,9.1,0.54,11.92-4.75
						c2.82-5.3,2.05-11.76-1.72-14.43c-1.31-0.93-3.06-1.24-4.58-1.07"/>
				</g>
				<g id="g686117" transform="matrix(-0.9921069,0.12539494,0.12539494,0.9921069,-1380.753,84.433272)">
					
						<linearGradient id="path686113_1_" gradientUnits="userSpaceOnUse" x1="-129.7966" y1="590.1213" x2="-127.7912" y2="588.2963" gradientTransform="matrix(-3.7106 -0.469 0.469 -3.7106 -1739.3771 2894.7717)">
						<stop  offset="0" style="stop-color:#FFD31A"/>
						<stop  offset="1" style="stop-color:#FFE98F"/>
					</linearGradient>
					<path id="path686113" sodipodi:nodetypes="cscsccccscscc" class="st39" d="M-981.23,763.94c0.19-0.1,0.39-0.19,0.59-0.29
						c4.92-2.31,9.87-2.14,11.05,0.38c1.18,2.52-1.85,6.43-6.77,8.74c-4.92,2.31-9.87,2.14-11.05-0.38
						c-1.02-1.41,0.5-3.59,1.07-4.28c-0.95,0.05-2.98,0.28-5.37,1.55c-0.98,1.84-1.26,3.53-0.57,5.01c1.83,3.9,9.48,4.16,17.09,0.59
						c7.61-3.57,12.3-9.62,10.47-13.52c-1.83-3.9-9.48-4.16-17.09-0.59c-2.15,1.01-4.8,2.59-5.66,3.34
						C-986.26,764.31-983.41,763.82-981.23,763.94L-981.23,763.94z"/>
					
						<linearGradient id="path686115_1_" gradientUnits="userSpaceOnUse" x1="-129.7966" y1="590.1213" x2="-127.7912" y2="588.2963" gradientTransform="matrix(-3.7106 -0.469 0.469 -3.7106 -1728.3163 2889.2314)">
						<stop  offset="0" style="stop-color:#FFD31A"/>
						<stop  offset="1" style="stop-color:#FFE98F"/>
					</linearGradient>
					<path id="path686115" sodipodi:nodetypes="cscsccccscscc" class="st40" d="M-970.17,758.4c0.19-0.1,0.39-0.19,0.59-0.29
						c4.92-2.31,9.87-2.14,11.05,0.38c1.18,2.52-1.85,6.43-6.77,8.74c-4.92,2.31-9.87,2.14-11.05-0.38
						c-1.02-1.41,0.5-3.59,1.07-4.28c-0.95,0.05-2.98,0.28-5.37,1.55c-0.98,1.84-1.26,3.53-0.57,5.01c1.83,3.9,9.48,4.16,17.09,0.59
						c7.61-3.57,12.3-9.62,10.47-13.52c-1.83-3.9-9.48-4.16-17.09-0.59c-2.15,1.01-4.8,2.59-5.66,3.34
						C-975.2,758.77-972.35,758.28-970.17,758.4L-970.17,758.4z"/>
				</g>
				<g id="g686123" transform="matrix(-0.9921069,0.12539494,0.12539494,0.9921069,-1387.3857,82.187307)">
					
						<linearGradient id="path686119_1_" gradientUnits="userSpaceOnUse" x1="-136.0953" y1="593.1813" x2="-134.0899" y2="591.3563" gradientTransform="matrix(-3.7106 -0.469 0.469 -3.7106 -1746.6766 2894.6667)">
						<stop  offset="0" style="stop-color:#FFD31A"/>
						<stop  offset="1" style="stop-color:#FFE98F"/>
					</linearGradient>
					<path id="path686119" sodipodi:nodetypes="cscsccccscscc" class="st41" d="M-963.72,755.43c0.19-0.1,0.39-0.19,0.59-0.29
						c4.92-2.31,9.87-2.14,11.05,0.38c1.18,2.52-1.85,6.43-6.77,8.74c-4.92,2.31-9.87,2.14-11.05-0.38
						c-1.02-1.41,0.5-3.59,1.07-4.28c-0.95,0.05-2.98,0.28-5.37,1.55c-0.98,1.84-1.26,3.53-0.57,5.01c1.83,3.9,9.48,4.16,17.09,0.59
						c7.61-3.57,12.3-9.62,10.47-13.52c-1.83-3.9-9.48-4.16-17.09-0.59c-2.15,1.01-4.8,2.59-5.66,3.34
						C-968.75,755.8-965.9,755.32-963.72,755.43L-963.72,755.43z"/>
					
						<linearGradient id="path686121_1_" gradientUnits="userSpaceOnUse" x1="-136.0953" y1="593.1813" x2="-134.0899" y2="591.3563" gradientTransform="matrix(-3.7106 -0.469 0.469 -3.7106 -1735.6157 2889.1265)">
						<stop  offset="0" style="stop-color:#FFD31A"/>
						<stop  offset="1" style="stop-color:#FFE98F"/>
					</linearGradient>
					<path id="path686121" sodipodi:nodetypes="cscsccccscscc" class="st42" d="M-952.66,749.89c0.19-0.1,0.39-0.19,0.59-0.29
						c4.92-2.31,9.87-2.14,11.05,0.38c1.18,2.52-1.85,6.43-6.77,8.74c-4.92,2.31-9.87,2.14-11.05-0.38
						c-1.02-1.41,0.5-3.59,1.07-4.28c-0.95,0.05-2.98,0.28-5.37,1.55c-0.98,1.84-1.26,3.53-0.57,5.01c1.83,3.9,9.48,4.16,17.09,0.59
						c7.61-3.57,12.3-9.62,10.47-13.52c-1.83-3.9-9.48-4.16-17.09-0.59c-2.15,1.01-4.8,2.59-5.66,3.34
						C-957.69,750.26-954.84,749.78-952.66,749.89L-952.66,749.89z"/>
				</g>
				<g id="g686143" transform="matrix(-0.9921069,0.12539494,0.12539494,0.9921069,-1393.9104,79.970751)">
					
						<linearGradient id="path686125_1_" gradientUnits="userSpaceOnUse" x1="-146.8084" y1="593.3622" x2="-144.803" y2="591.5372" gradientTransform="matrix(-3.7303 -0.2707 0.2707 -3.7303 -1654.9033 2922.5964)">
						<stop  offset="0" style="stop-color:#FFD31A"/>
						<stop  offset="1" style="stop-color:#FFE98F"/>
					</linearGradient>
					<path id="path686125" sodipodi:nodetypes="cscsccccscscc" class="st43" d="M-947,746.92c0.19-0.11,0.38-0.21,0.57-0.32
						c4.79-2.57,9.74-2.66,11.06-0.21c1.31,2.45-1.51,6.52-6.3,9.09c-4.79,2.57-9.74,2.66-11.06,0.21
						c-1.09-1.36,0.31-3.61,0.84-4.33c-0.94,0.1-2.96,0.44-5.28,1.84c-0.88,1.89-1.07,3.6-0.3,5.03c2.03,3.79,9.69,3.65,17.1-0.32
						c7.41-3.97,11.77-10.26,9.74-14.06c-2.03-3.79-9.69-3.65-17.1,0.32c-2.09,1.12-4.66,2.85-5.48,3.64
						C-952,747.56-949.18,746.92-947,746.92L-947,746.92z"/>
					
						<linearGradient id="path686127_1_" gradientUnits="userSpaceOnUse" x1="-152.5829" y1="589.2158" x2="-150.5775" y2="587.3908" gradientTransform="matrix(-3.7401 -5.274885e-03 5.274885e-03 -3.7401 -1510.0031 2945.3135)">
						<stop  offset="0" style="stop-color:#FFD31A"/>
						<stop  offset="1" style="stop-color:#FFE98F"/>
					</linearGradient>
					<path id="path686127" sodipodi:nodetypes="cscsccccscscc" class="st44" d="M-936.7,740.43c0.18-0.12,0.36-0.24,0.55-0.36
						c4.6-2.9,9.53-3.35,11.01-0.99c1.48,2.35-1.04,6.61-5.64,9.51s-9.53,3.35-11.01,0.99c-1.18-1.27,0.05-3.62,0.53-4.38
						c-0.93,0.17-2.92,0.65-5.14,2.21c-0.75,1.95-0.81,3.66,0.06,5.04c2.3,3.64,9.92,2.95,17.03-1.53
						c7.11-4.49,11.01-11.07,8.72-14.71c-2.3-3.64-9.92-2.95-17.03,1.53c-2.01,1.27-4.44,3.17-5.21,4.02
						C-941.65,741.41-938.88,740.58-936.7,740.43L-936.7,740.43z"/>
					
						<linearGradient id="path686129_1_" gradientUnits="userSpaceOnUse" x1="-158.1557" y1="584.5742" x2="-156.1503" y2="582.7491" gradientTransform="matrix(-3.7307 0.2655 -0.2655 -3.7307 -1360.3082 2957.4148)">
						<stop  offset="0" style="stop-color:#FFD31A"/>
						<stop  offset="1" style="stop-color:#FFE98F"/>
					</linearGradient>
					<path id="path686129" sodipodi:nodetypes="cscsccccscscc" class="st45" d="M-926.12,732.64c0.17-0.13,0.34-0.27,0.52-0.4
						c4.38-3.23,9.26-4.03,10.91-1.79c1.65,2.24-0.56,6.67-4.93,9.9c-4.38,3.23-9.26,4.03-10.91,1.79
						c-1.27-1.19-0.21-3.61,0.21-4.41c-0.92,0.24-2.87,0.86-4.96,2.57c-0.6,2-0.54,3.71,0.42,5.02c2.55,3.46,10.11,2.23,16.87-2.76
						c6.77-4.99,10.18-11.84,7.63-15.3c-2.55-3.46-10.11-2.23-16.88,2.76c-1.91,1.41-4.2,3.48-4.9,4.38
						C-930.98,733.99-928.28,732.96-926.12,732.64L-926.12,732.64z"/>
					
						<linearGradient id="path686131_1_" gradientUnits="userSpaceOnUse" x1="-158.1557" y1="584.5741" x2="-156.1503" y2="582.7491" gradientTransform="matrix(-3.7307 0.2655 -0.2655 -3.7307 -1349.1085 2949.269)">
						<stop  offset="0" style="stop-color:#FFD31A"/>
						<stop  offset="1" style="stop-color:#FFE98F"/>
					</linearGradient>
					<path id="path686131" sodipodi:nodetypes="cscsccccscscc" class="st46" d="M-914.92,724.5c0.17-0.13,0.34-0.27,0.52-0.4
						c4.38-3.23,9.26-4.03,10.91-1.79c1.65,2.24-0.56,6.67-4.93,9.9s-9.26,4.03-10.91,1.79c-1.27-1.19-0.21-3.61,0.21-4.41
						c-0.92,0.24-2.87,0.86-4.96,2.57c-0.6,2-0.54,3.71,0.42,5.02c2.55,3.46,10.11,2.23,16.87-2.76c6.77-4.99,10.18-11.84,7.63-15.3
						c-2.55-3.46-10.11-2.23-16.88,2.76c-1.91,1.41-4.2,3.48-4.9,4.38C-919.78,725.84-917.08,724.81-914.92,724.5L-914.92,724.5z"/>
					
						<linearGradient id="path686133_1_" gradientUnits="userSpaceOnUse" x1="-167.9519" y1="574.4657" x2="-165.9465" y2="572.6407" gradientTransform="matrix(-3.6566 0.7862 -0.7862 -3.6566 -1067.8893 2950.7515)">
						<stop  offset="0" style="stop-color:#FFD31A"/>
						<stop  offset="1" style="stop-color:#FFE98F"/>
					</linearGradient>
					<path id="path686133" sodipodi:nodetypes="cscsccccscscc" class="st47" d="M-906.27,716.33c0.15-0.16,0.3-0.31,0.46-0.46
						c3.88-3.81,8.61-5.29,10.56-3.3c1.95,1.99,0.38,6.68-3.5,10.49c-3.88,3.81-8.61,5.29-10.55,3.3c-1.43-1-0.71-3.55-0.41-4.39
						c-0.88,0.36-2.72,1.25-4.55,3.24c-0.32,2.07-0.02,3.75,1.12,4.92c3.01,3.07,10.32,0.79,16.32-5.1c6-5.89,8.42-13.15,5.41-16.22
						c-3.01-3.07-10.32-0.79-16.32,5.1c-1.69,1.66-3.67,4.04-4.24,5.03C-910.9,718.35-908.36,716.95-906.27,716.33L-906.27,716.33z"
						/>
					
						<linearGradient id="path686135_1_" gradientUnits="userSpaceOnUse" x1="-173.2032" y1="567.6482" x2="-171.1978" y2="565.8232" gradientTransform="matrix(-3.5755 1.0973 -1.0973 -3.5755 -894.1282 2928.3547)">
						<stop  offset="0" style="stop-color:#FFD31A"/>
						<stop  offset="1" style="stop-color:#FFE98F"/>
					</linearGradient>
					<path id="path686135" sodipodi:nodetypes="cscsccccscscc" class="st48" d="M-898.74,706.93c0.13-0.17,0.27-0.34,0.42-0.5
						c3.54-4.13,8.12-6.01,10.23-4.2c2.11,1.81,0.95,6.63-2.58,10.75c-3.54,4.13-8.12,6.01-10.23,4.2
						c-1.51-0.87-1.01-3.48-0.79-4.34c-0.84,0.44-2.6,1.48-4.26,3.62c-0.14,2.08,0.3,3.74,1.54,4.8c3.27,2.8,10.35-0.1,15.82-6.48
						c5.47-6.38,7.26-13.83,3.99-16.63c-3.27-2.8-10.35,0.1-15.82,6.49c-1.54,1.8-3.31,4.34-3.79,5.37
						C-903.17,709.33-900.77,707.72-898.74,706.93L-898.74,706.93z"/>
					
						<linearGradient id="path686137_1_" gradientUnits="userSpaceOnUse" x1="-181.3486" y1="553.8494" x2="-179.3432" y2="552.0244" gradientTransform="matrix(-3.3547 1.6537 -1.6537 -3.3547 -583.4843 2856.1272)">
						<stop  offset="0" style="stop-color:#FFD31A"/>
						<stop  offset="1" style="stop-color:#FFE98F"/>
					</linearGradient>
					<path id="path686137" sodipodi:nodetypes="cscsccccscscc" class="st49" d="M-892.31,696.71c0.11-0.19,0.22-0.37,0.33-0.56
						c2.83-4.64,7.06-7.22,9.43-5.77c2.37,1.45,2,6.39-0.83,11.03c-2.83,4.64-7.06,7.22-9.43,5.77c-1.63-0.62-1.56-3.27-1.47-4.16
						c-0.76,0.57-2.33,1.87-3.62,4.25c0.19,2.08,0.9,3.64,2.29,4.49c3.67,2.24,10.2-1.75,14.58-8.93
						c4.38-7.17,4.96-14.81,1.29-17.05c-3.67-2.24-10.2,1.75-14.59,8.93c-1.24,2.02-2.58,4.81-2.88,5.91
						C-896.3,699.79-894.19,697.81-892.31,696.71L-892.31,696.71z"/>
					
						<linearGradient id="path686139_1_" gradientUnits="userSpaceOnUse" x1="-186.4773" y1="540.8996" x2="-184.472" y2="539.0745" gradientTransform="matrix(-3.094 2.1014 -2.1014 -3.094 -325.7272 2752.0601)">
						<stop  offset="0" style="stop-color:#FFD31A"/>
						<stop  offset="1" style="stop-color:#FFE98F"/>
					</linearGradient>
					<path id="path686139" sodipodi:nodetypes="cscsccccscsccc" class="st50" d="M-886.9,684.91c0.08-0.2,0.19-0.39,0.25-0.6
						c1.47-4.88,3.12-7.71,8.54-7.02c2.55,1.11,2.86,6.05,0.7,11.04c-2.17,4.99-5.99,8.13-8.54,7.02c-1.7-0.39-1.99-3.02-2.03-3.92
						c-0.68,0.67-2.05,2.18-3,4.71c0.48,2.03,1.39,3.48,2.89,4.13c3.95,1.71,9.86-3.15,13.21-10.86c3.35-7.71,0.72-14.87-3.23-16.58
						c-7.41,0.77-8.05,2.9-11.06,10.37c-0.89,2.2-1.89,5.12-2.04,6.25C-890.43,688.51-888.61,686.26-886.9,684.91L-886.9,684.91z"/>
					
						<linearGradient id="path686141_1_" gradientUnits="userSpaceOnUse" x1="-221.4507" y1="523.2189" x2="-219.4453" y2="521.3939" gradientTransform="matrix(-2.1624 1.9836 -3.9312 -2.8627 688.9941 2610.187)">
						<stop  offset="0" style="stop-color:#FFD31A"/>
						<stop  offset="1" style="stop-color:#FFE98F"/>
					</linearGradient>
					<path id="path686141" sodipodi:nodetypes="ccccccsccscc" class="st51" d="M-889.02,680.84l-0.05,1.09
						c0.32-0.89,0.08-2.14,1.17-3.42l-3.01-3.21 M-890.9,665.97c0.93-1.67,2.83-1.89,4.78-1.3c3.33,1.01,6.36,5.61,6.76,10.27
						c0.4,4.66-1.98,7.62-5.31,6.61c-0.29,0.51-2.73,3.31,0.4,4.61c5.15,1.56,8.83-3.02,8.21-10.22
						c-0.62-7.21-5.3-14.32-10.45-15.88c-0.87-0.26-1.7-0.35-2.47-0.28"/>
				</g>
				<g id="g686149" transform="matrix(-0.9921069,0.12539494,0.12539494,0.9921069,-1373.9534,86.682875)">
					
						<linearGradient id="path686145_1_" gradientUnits="userSpaceOnUse" x1="-123.3322" y1="587.0361" x2="-121.3268" y2="585.2111" gradientTransform="matrix(-3.7106 -0.469 0.469 -3.7106 -1731.9121 2894.9314)">
						<stop  offset="0" style="stop-color:#FFD31A"/>
						<stop  offset="1" style="stop-color:#FFE98F"/>
					</linearGradient>
					<path id="path686145" sodipodi:nodetypes="cscsccccscsccc" class="st52" d="M-999.2,772.51c0.19-0.1,0.39-0.19,0.59-0.29
						c4.92-2.31,9.87-2.14,11.05,0.38c1.18,2.52-1.85,6.43-6.77,8.74s-9.87,2.14-11.05-0.38c-1.02-1.41,0.5-3.59,1.07-4.28
						c-0.95,0.05-2.98,0.28-5.37,1.55c-0.98,1.84-1.26,3.53-0.57,5.01c1.83,3.9,9.48,4.16,17.09,0.59
						c7.61-3.57,12.3-9.62,10.47-13.52c-1.83-3.9-9.33-3.83-17.09-0.59c-3.01,1.26-11.57,8.44-10,8.48
						c1.22-0.19,3.13-1.62,5.31-1.51L-999.2,772.51z"/>
					
						<linearGradient id="path686147_1_" gradientUnits="userSpaceOnUse" x1="-123.3327" y1="587.0369" x2="-121.3273" y2="585.2119" gradientTransform="matrix(-3.7106 -0.469 0.469 -3.7106 -1720.8513 2889.3911)">
						<stop  offset="0" style="stop-color:#FFD31A"/>
						<stop  offset="1" style="stop-color:#FFE98F"/>
					</linearGradient>
					<path id="path686147" sodipodi:nodetypes="cscsccccscscc" class="st53" d="M-988.14,766.97c0.19-0.1,0.39-0.19,0.59-0.29
						c4.92-2.31,9.87-2.14,11.05,0.38c1.18,2.52-1.85,6.43-6.77,8.74s-9.87,2.14-11.05-0.38c-1.02-1.41,0.5-3.59,1.07-4.28
						c-0.95,0.05-2.98,0.28-5.37,1.55c-0.98,1.84-1.26,3.53-0.57,5.01c1.83,3.9,9.48,4.16,17.09,0.59
						c7.61-3.57,12.3-9.62,10.47-13.52c-1.83-3.9-9.48-4.16-17.09-0.59c-2.15,1.01-4.8,2.59-5.66,3.34
						C-993.17,767.34-990.31,766.86-988.14,766.97L-988.14,766.97z"/>
				</g>
			</g>
			<path id="path686153" sodipodi:nodetypes="cc" class="st6" d="M26.75,500.86c-1.08,11.25,4.45,16.36-8.51,23.34"/>
		</g>
		<path id="path443624" sodipodi:nodetypes="cccsscsccccsccccssc" class="st3" d="M335.1,769.15c2.65-1.08,5.28-2.19,7.9-3.35
			c2.76-1.22,5.5-2.49,8.21-3.79c2.72-1.31,5.41-2.66,8.09-4.05c2.67-1.39,5.33-2.83,7.95-4.31c2.63-1.48,5.23-3,7.81-4.56
			c2.58-1.56,5.13-3.17,7.66-4.81c2.53-1.65,5.03-3.33,7.5-5.06c2.47-1.73,4.92-3.49,7.34-5.29c0.32-0.25,0.64-0.49,0.96-0.74
			c-0.3-3.37-5.58-5.22-11.69-3.69c-2.4-10.36-13.04-6.81-16.81-10.38c-16.26-15.38-25.7-6.55-25.42-5.49l-31.16,4.75l-26.74,15.93
			l-9.93,13.48c0,0,7.24,13.08,11.06,14.35s30.45,10.47,32.61,10.96C321.45,773.33,328.17,771.31,335.1,769.15L335.1,769.15z"/>
		<path id="path436999" sodipodi:nodetypes="cccssccssssc" class="st4" d="M331.46,768.18c2.58-7.15-0.32-12.31,6.17-15.17
			c-3.72-4.23-3.37-9.34-3.75-14.4c-0.8-0.06,12.28-11.75,11.17-10.45c-2.33,2.72-3.87-11.46,2.46-12.85
			c0.89-0.19-3.71,0.4-3.71,0.4l-8.68-0.74c0,0-3.56-2.94-7.13,0.74c-3.57,3.67-7.35-2.65-13.97,3.84
			c-6.62,6.49-33.72,26.06-33.48,27.31c0.24,1.26,12.46,11.62,19.45,15.11C301.59,762.76,333.03,770.7,331.46,768.18L331.46,768.18z
			"/>
		<path id="path435566" sodipodi:nodetypes="cssccsscscc" class="st54" d="M310.22,726.6c-0.33-12.18,11.56-3.98,13.75-5.54
			c3.87-2.75,6.7-6.73,11.58-7.82c3.11-0.7,7.8,1.01,9.83,0.49c3.97-4.36,9.87-4.77,15.14-3.06c3.02,1.01,7.11,3.66,8.97,6.44
			c0.49,0.72,0.46,1.89,1.18,2.48c1.46,1.2,5.49-0.65,7.41,0.03c5.47,1.95,6.34,5.41,9.69,8.99c0.35,0.38,3.52-0.22,4.33,0.1
			c2.55,1.03,3.11,0.91,2.82,3.71"/>
		<path id="path427731" sodipodi:nodetypes="cssccccccccc" class="st55" d="M282.25,698.2l54.98,17.1
			c0.9,0.28,1.24,12.87-5.83,11.42L296.87,717l31.5,24.06c2.15,5.87,5.99,19.68-5.22,22.6l-51.71-22.96
			c10.77-3.5,4.03-7.29,6.96-9.41c4.52-0.82,6.29-4.89,4.63-13.03c4.94-2.99,3.05-8.94,1.22-14.29c2.59-0.67-3.64,1.1-4.21-4.78
			L282.25,698.2z"/>
		<g id="g427739" transform="rotate(-0.78377305,-2830.4758,-32034.236)">
			<path id="path443958" class="st3" d="M-360.24,789.48c2.98,1.77,5.99,3.48,9.03,5.13c3.33,1.81,6.7,3.55,10.1,5.22
				c3.4,1.67,6.84,3.27,10.3,4.81c3.46,1.53,6.96,3,10.48,4.39c3.52,1.39,7.08,2.71,10.65,3.96c3.58,1.25,7.18,2.43,10.8,3.53
				c3.62,1.1,7.27,2.13,10.94,3.09c3.67,0.96,7.35,1.84,11.05,2.65c3.7,0.81,7.42,1.54,11.15,2.2c3.73,0.66,7.48,1.24,11.23,1.75
				c1.3,0.16,2.61,0.31,3.91,0.45c4.97-2.16,14.7-1.67,18.93-6.04c4.99-5.16,7.93-9.92,7.93-9.92s7.13-2.53,12.23-10.54
				c5.1-8.01,17.32-4.25,17.32-4.25s0.57-1.34,3.97-5.6c3.4-4.26,9.99-6.07,9.99-6.07l-0.88,2.12l8.9-0.68c0,0,5.56-1.47,4.87-5.22
				c-0.69-3.75,3.34-11.13,1.77-14.04c-1.56-2.91,5.28-10.96,2.34-13.55c-2.94-2.59,2.49-14.79-2.7-14.84l-15.85,2.01l-14.55-0.3
				l-13.71,3.17l-12.39,1.28c0,0-7.73,1.33-8.86,2.79c-1.13,1.46-14.16,7.08-14.16,7.08l-11.59,1.93l-20.13,7.19
				c-7.67,4.53-12.63,3.11-20.03,6.82c-26.01,13.05-57.52-2.18-62.95,18.91C-360.18,789.09-360.2,789.29-360.24,789.48z"/>
			<path id="path427737" sodipodi:nodetypes="ccccccsccssssssssc" class="st54" d="M-170.02,784.51c4.68-3.52,1.91-5.72,1.89-9.31
				c5.55-2.24,5.27-7.61,1.29-12.64c7.32-6.06,4.12-12.4,0.62-13.07c11.66-9.92-6.32-16.39-10.77-10.48
				c-10.42,4.31-5.57-4.49-21.16,3.24c-7.51,3.72-11.26-6.4-21.84,3.44c-3.87-0.52-16.46-0.27-22.69,9.69
				c-2.16,6.05-10.22-10.74-25.44,7.61c-1.79,0.36-1.83,0.59-3.03,0.46c-1.69-0.19-3.38-1.58-5.12-1.23
				c-3.9,0.78-4.89,6.44-8.22,7.03c-5.2,0.91-9.59-1.86-14.87,0.42c-3.39,1.47-5.72,5.46-9.42,5.99c-4.13,0.59-8.62-0.72-12.83-0.5
				c-3.97,0.21-7.05,1.91-10.81,2.51c-6.83,1.1-15-1.37-21.07,3.06c-3.06,2.23-3.19,4.2-5.1,7.06"/>
		</g>
		<path id="path1259083" sodipodi:nodetypes="cssssscsssssssccccc" class="st4" d="M94.13,749.32c0,0,10.29-2.57,14.58,0.83
			c4.28,3.4,10.01-4.72,17.31-1.16c7.3,3.56,18.91,6.3,27.4,1.41c8.5-4.89,25.61-5.56,28.32-4.38c2.72,1.18,5.17-4.77,9.73-5.16
			c4.56-0.39,11.42,0.48,11.42,0.48s4.08-6.26,6.51-6.68c2.42-0.43,17.15-7.6,22.28-4.38c5.13,3.22,17.89,1.09,20.57-0.37
			c2.68-1.46,3.62-4.67,8.35-2.92c4.74,1.75,7.52,3.59,11.53,1.97c4.01-1.63,5.88-8.33,8.68-4.4c2.8,3.93,4.01,6.75,2.09,8.74
			c-1.92,1.99-3.28,6.79-3.28,6.79l-90.17,19.57l-15.69,24.69c-34.57-6.28-60.57-18.66-82.72-30.49L94.13,749.32z"/>
		<path id="path424351" sodipodi:nodetypes="cssccccccccc" class="st55" d="M188.5,755.67l-47.67,15.3
			c-0.9,0.29,5.71,8.55,12.73,6.84l39.58-9.67l-37.39,21.04c-0.01,6.25,4.82,18.44,16.35,17.35l49.09-14.65
			c-11.32,0.39-6.28-5.47-9.76-6.46c-4.52,0.77-7.59-2.44-8.81-10.66c-5.66-1.12-5.92-7.35-6.04-13.01
			c-2.66,0.26-2.38-1.96-3.85-7.68L188.5,755.67z"/>
		<g id="g425213" transform="matrix(-0.94431003,0.32905708,0.32905708,0.94431003,-772.7799,181.07236)">
			<path id="path443075" sodipodi:nodetypes="sccccccsccccsccsccccccccscccccssss" class="st3" d="M-725.06,897.73
				c1.07,1.04-2.7,1.26-4.06,1.88c-2.92,1.27-1.63-0.75-4.59,0.43l0.02-0.06c0,0-1.85,0.52-4.09,1.63
				c-2.56,0.99-5.14,1.95-7.73,2.87c-3.49,1.22-7,2.36-10.53,3.44c-3.53,1.08-7.09,2.09-10.66,3.02c-3.57,0.94-5.84,4.16-9.45,4.96
				c-3.61,0.8-8.56-0.83-12.19-0.18c-3.64,0.66-7.28,1.24-10.94,1.75c-3.69,2.42-9.47,8.17-13.03,2.2c-3.68,0.37-5.51,1.82-9.02,0
				c-3.28-1.7-7.38,0.37-11.07,0.45c-3.69,0.08-7.39,0.09-11.08,0.02c-3.69-0.07-7.39-0.21-11.07-0.42
				c-3.69-0.21-7.37-0.5-11.05-0.85c-3.68-0.36-7.35-0.79-11.01-1.29c-3.66-0.5-7.31-1.07-10.95-1.72
				c-1.34-0.25-2.68-0.52-4.02-0.79c25.92-13.85,44.17,8.97,49.87-0.84c3.77,1.48,28.59-26.89,28.59-26.89l4.88-11.89l10.57-7.76
				c0,0,11.8-3.51,12.93-4.98c1.13-1.46,8.86-2.79,8.86-2.79l12.39-1.28l13.71-3.17l10.32,3.55l15.85-2.01
				c5.19,0.05-0.24,12.24,2.7,14.84c2.94,2.59-3.9,10.64-2.34,13.55C-721.9,887.91-727.91,894.95-725.06,897.73z"/>
			<path id="path425209" sodipodi:nodetypes="cccccc" class="st4" d="M-830.34,919.97c-2.16-0.2-40.9-1.72-43.06-1.97
				c-3.58-0.45-7.14-0.96-10.7-1.55c-3.88-0.63-19.58-4.04-24.02-5.2c-1.86-5.01,21.55-3.72,29.79,0.3
				C-875.12,907.27-833.77,914.88-830.34,919.97z"/>
			<path id="path442851" sodipodi:nodetypes="scccccsccccccccccss" class="st4" d="M-726.73,899.17c0.65,1.86-3.56,1.66-5.36,2.47
				c-3.3,1.44,0.08-2.24-3.28-0.92c-2.11,0.81-4.23,1.6-6.36,2.36c-1.9-0.22-2.52,0.18-2.68,0.99c-0.37,0.14-0.73,0.27-1.1,0.41
				c-3.4,1.19-6.83,2.31-10.27,3.36c-3.45,1.05-6.91,2.04-10.4,2.97c-3.48,0.92-7.03,4-10.55,4.78c-3.52,0.79-7-0.71-10.55-0.06
				c-3.54,0.65-7.1,1.24-10.67,1.75c-10.85,8.17-30.62,0.88-30.95,0.92c2.26,0.76,25.42-1.19,24.75-5.17
				c8.38,2.11,19.61-3.23,25.27-8.74c15.12,1.01,17.34-8.15,24.42-10.8c16.45,0.59,4.95-6.03,13.45-2.17
				c11.09,2.6,8,1.29,12.25-7.65C-720.55,886.21-728.59,893.82-726.73,899.17z"/>
			<path id="path425211" sodipodi:nodetypes="cccssssscccscc" class="st54" d="M-811.78,883.42c3.95-14.08,9.89-12.53,15.57-13.05
				c6.23-9.96,18.88-9.47,22.75-8.95c10.58-9.84,14.33,0.29,21.84-3.44c15.59-7.73,4.78,2.21,15.2-2.1
				c4.93-2.8,22.46,0.77,10.77,10.48c3.5,0.66,6.69,7.01-0.62,13.07c3.98,5.03,4.26,10.39-1.29,12.64c0.02,3.6,2.79,5.79-1.89,9.31
				c-10.88,5.03-6.08-2.19-18.84,3.43l-21.26,8.18c1.35,3.31-16.73,6.45-18.73,5.25c-4.82-2.87-16.41,10.19-24.63,3.14
				c-9.03,3.42-11.14-0.02-14.78-1.94"/>
		</g>
		<path id="path444770" sodipodi:nodetypes="cssccccccc" class="st56" d="M318.43,703.84c-2.77-0.32-5.35,0.45-5.9,2.94
			c-0.6,2.72-1.73,8.35-2.65,13.95c-0.34,2.07,0,3.89,2.26,4.81c3.17,1.51,8.99,3.63,9.05,1.3l-2.72-1.35
			c-2.27-8.4,1.49-15.32,2.93-18.11l3.4,1.15C325.01,706.44,325.26,704.27,318.43,703.84L318.43,703.84z"/>
		<g id="g563746" transform="translate(0,0.93007095)">
			<g id="g548561">
				<path id="path521116" sodipodi:nodetypes="cssccccc" class="st57" d="M215.03,740.97l5.46,0.58c2.24,0.24,4.35,1.12,8.31-1.18
					c1.46-0.85,5.7-2.98,4.76-5.34c0.09-2.46,0.93-2.91-3.59-3.11l-12.41,2.72l-3.67,2.66
					C212.65,741.07,213.75,739.19,215.03,740.97L215.03,740.97z"/>
				<path id="path520407" sodipodi:nodetypes="csscccccc" class="st57" d="M221.01,744.29c2.44,4.83,5.12,3.42,6.97,2.51
					c2.02-0.99,4.79-2.36,8.74-4.67c1.46-0.85,2.32-2.12,1.39-4.49c-2.75-5.85-1.69-2.94-6.21-3.14l-7.34,2.28l-4.42,2.04
					C218.52,743.23,218.99,741.41,221.01,744.29L221.01,744.29z"/>
				<path id="path520237" sodipodi:nodetypes="csscccccc" class="st57" d="M224.77,750.38c2.44,4.83,5.12,3.42,6.97,2.51
					c2.02-0.99,4.79-2.36,8.74-4.67c1.46-0.85,2.32-2.12,1.39-4.49c-1.18-3.45-3.74-9.41-5.17-8.19l0.98,2.99
					c-3.53,6.46-8.07,5.94-10.68,6.27l-3.61-2.24C221.77,746.96,222.74,747.51,224.77,750.38L224.77,750.38z"/>
				<path id="path520239" sodipodi:nodetypes="csscccccc" class="st57" d="M228.21,756.68c2.1,4.99,4.87,3.76,6.78,2.99
					c2.08-0.85,4.94-2.03,9.04-4.05c1.52-0.75,2.46-1.96,1.7-4.38c-0.94-3.52-3.09-9.65-4.59-8.52l0.77,3.05
					c-3.97,6.2-8.46,5.37-11.09,5.52l-3.44-2.49C225.45,753.07,226.38,753.67,228.21,756.68L228.21,756.68z"/>
				<path id="path520241" sodipodi:nodetypes="csscccccc" class="st57" d="M231.06,764.2c1.55,5.19,4.44,4.26,6.43,3.7
					c2.16-0.62,5.13-1.49,9.43-3.06c1.59-0.58,2.66-1.68,2.15-4.18c-0.56-3.6-2.04-9.92-3.65-8.96l0.44,3.11
					c-4.61,5.74-8.99,4.43-11.62,4.3l-3.16-2.84C228.7,760.31,229.57,761.02,231.06,764.2L231.06,764.2z"/>
				<path id="path520243" sodipodi:nodetypes="csscccccc" class="st57" d="M233.53,771.74c1.22,5.28,4.16,4.54,6.17,4.1
					c2.2-0.48,5.21-1.16,9.6-2.45c1.62-0.48,2.76-1.51,2.42-4.03c-0.33-3.63-1.39-10.03-3.07-9.18l0.24,3.13
					c-4.97,5.43-9.26,3.84-11.87,3.54l-2.97-3.04C231.43,767.71,232.24,768.47,233.53,771.74L233.53,771.74z"/>
				<path id="path520245" sodipodi:nodetypes="csscccccc" class="st57" d="M234.31,779.14c0.77,5.36,3.76,4.87,5.81,4.6
					c2.23-0.29,5.29-0.72,9.77-1.64c1.66-0.34,2.88-1.27,2.75-3.81c-0.02-3.64-0.55-10.11-2.29-9.41l-0.03,3.14
					c-5.4,4.99-9.54,3.05-12.12,2.54l-2.7-3.28C232.55,774.95,233.3,775.77,234.31,779.14L234.31,779.14z"/>
				<path id="path522623" sodipodi:nodetypes="csscccccc" class="st57" d="M234.09,785.78c0.28,5.41,3.3,5.2,5.37,5.11
					c2.25-0.09,5.33-0.23,9.88-0.74c1.68-0.19,2.98-1,3.08-3.55c0.31-3.63,0.37-10.12-1.42-9.57l-0.31,3.13
					c-5.84,4.48-9.78,2.17-12.3,1.43l-2.4-3.51C232.72,781.44,233.39,782.33,234.09,785.78L234.09,785.78z"/>
				<path id="path522627" sodipodi:nodetypes="csscccc" class="st58" d="M226.74,791.57c0.04,5.41,2.34,8.27,4.4,8.28
					c2.25,0.01,8.33,0.56,12.9,0.25c1.69-0.11,2.48-1.12,2.69-3.66c-0.5-4.17-4.57-2.53-9.9-4.74
					C231.56,791.49,228.37,791.51,226.74,791.57z"/>
				<path id="path522625" sodipodi:nodetypes="cssccccccc" class="st57" d="M233.18,792.86c-0.68,5.37,2.33,5.7,4.38,5.98
					c2.23,0.31,5.29,0.72,9.86,1.02c1.69,0.11,3.11-0.46,3.66-2.94c0.95-3.52,2.16-9.9,0.29-9.68l-0.86,3.02
					c-6.36,0.18-9.98-0.11-12.36-0.77l-1.74-3.88C232.6,788.34,233.1,789.34,233.18,792.86L233.18,792.86z"/>
			</g>
			<path id="path555799" class="st59" d="M233.86,736.03l-4.17,1.44l2.13,4.96c1.54-1.23,3.69-2.45,3.46-3.71L233.86,736.03z
				 M238.02,741.4l-3.17,2.86l1.34,4.76c1.54-1.23,3.69-2.45,3.46-3.71L238.02,741.4z M242.38,748.83l-3.63,2.89l0.67,4.23
				l3.96-1.88L242.38,748.83z M245.84,757.52l-3.63,2.89l0.68,4.23l3.96-1.88L245.84,757.52z M247.89,766.85l-3.93,1.73l0.67,4.23
				l3.82-1.33L247.89,766.85z M248.7,775.62l-3.85,1.33l-0.11,3.86l3.97-1.2L248.7,775.62z M249.42,783.5l-4.41,1.31l-0.37,3.73
				l3.93,0.07L249.42,783.5z M244.73,791.92l-0.74,5.97l3.93,0.07l1.24-5.82L244.73,791.92z"/>
		</g>
	</g>
</g>
</svg>
