<svg width="384" height="475" viewBox="0 0 384 475" fill="none" xmlns="http://www.w3.org/2000/svg">
<path d="M84.9044 367.238C83.4949 372.736 68.651 393.43 89.5174 396.048C93.8943 391.173 97.9262 369.397 97.8927 364.84C97.9743 349.235 84.9044 367.238 84.9044 367.238Z" fill="#FBBB7B"/>
<path d="M79.3319 380.972C77.4154 387.777 78.1315 394.632 89.5416 396.058C91.1081 394.303 92.6293 390.38 93.9329 385.85C88.8146 385.105 83.8703 383.453 79.3319 380.972Z" fill="#CB423A"/>
<path d="M148.051 318.314C149.697 333.151 136.245 347.876 129.712 344.37C125.818 349.363 115.299 362.997 112.131 355.057C109.842 366.482 103.868 373.243 86.7502 366.814C84.8914 366.115 78.1437 354.778 86.8399 354.13C87.4696 347.378 87.0305 329.854 93.9506 325.96C100.871 322.067 123.807 301.349 123.807 301.349L148.051 318.314Z" fill="#56CDF5"/>
<path d="M212.775 400.118C208.73 402.633 199.919 402.576 194.864 408.942C189.036 416.277 190.305 426.547 192.671 426.896C195.037 427.246 218.163 414.479 223.278 409.576C228.393 404.674 212.775 400.118 212.775 400.118Z" fill="#FBBB7B"/>
<path d="M204.183 403.062C200.57 404.04 197.331 406.075 194.882 408.906C189.053 416.241 190.322 426.51 192.688 426.86C193.354 426.959 195.666 426.022 198.767 424.499C197.87 417.084 200.157 409.75 204.183 403.062Z" fill="#CB423A"/>
<path d="M247.106 321.399C254.717 328.47 270.002 352.029 254.935 358.17C259.23 366.985 256.897 387.226 245.018 383.991C247.76 394.625 240.908 404.15 232.388 400.642C238.34 410.601 219.284 415.974 211.782 411.855C204.28 407.735 212.175 399.845 214.771 398.122C201.252 394.504 209.705 379.859 217.132 378.619C210.798 374.291 204.317 342.471 211.41 335.579C218.502 328.688 247.106 321.399 247.106 321.399Z" fill="#64E1FD"/>
<path d="M116.107 206.87C115.119 201.285 101.599 193.517 94.8897 202.918C86.6259 200.252 65.9495 216.57 79.8286 219.364C75.9982 223.036 70.4898 235.16 83.1185 233.584C83.0991 241.962 91.646 237.459 95.9126 233.434C100.179 229.408 116.107 206.87 116.107 206.87Z" fill="#64E1FD"/>
<path d="M235.727 172.418C227.97 171.607 218.35 179.686 217.896 185.444C217.442 191.201 221.167 196.129 224.047 196.944C217.765 200.039 202.549 206.127 202.912 216.028C194.264 215.901 190.36 220.628 188.382 226.578C186.404 232.528 123.963 193.159 107.762 208.536C91.5615 223.912 87.2487 232.255 92.3556 238.9C76.0268 239.069 65.0158 251.392 72.562 258.608C60.7558 261.949 83.83 300.554 106.308 311.855C128.787 323.157 150.293 331.84 166.657 332.774C183.021 333.709 211.759 337.204 216.551 337.93C219.252 343.133 230.869 342.984 232.759 334.832C241.452 338.056 260.208 329.253 254.595 315.515C265.618 319.072 263.656 309.881 261.42 305.252C271.103 308.564 282.251 291.979 272.711 284.394C284.897 283.793 301.433 265.667 289.083 253.918C296.661 252.312 305.476 236.104 301.525 228.896C309.477 228.896 314.631 212.825 307.537 204.552C300.442 196.278 235.727 172.418 235.727 172.418Z" fill="url(#paint0_radial_314_2353)"/>
<path d="M272.619 284.31C284.805 283.709 301.341 265.582 288.991 253.833C296.569 252.227 305.384 236.019 301.433 228.812C309.385 228.811 314.539 212.74 307.444 204.467C306.06 202.851 302.478 200.643 297.62 198.146C298.891 211.028 297.269 225.425 280.335 226.8C281.564 229.467 282.124 232.393 281.965 235.325C281.806 238.257 280.934 241.106 279.423 243.624C281.075 249.569 277.493 255.922 272.644 258.928C270.177 261.607 266.828 263.31 263.21 263.725C264.936 270.241 262.313 275.855 252.372 277.998C256.123 288.902 239.287 301.654 230.022 289.855C232.763 316.015 215.068 328.739 190.376 317.52C162.917 305.044 136.784 304.532 108.003 291.455C92.3362 282.886 79.7662 269.514 70.1993 254.067C70.4371 255.802 71.2795 257.397 72.5781 258.572C60.7718 261.914 83.8461 300.518 106.324 311.82C128.803 323.121 150.309 331.804 166.673 332.739C183.037 333.673 211.775 337.168 216.567 337.894C219.268 343.097 230.885 342.949 232.775 334.797C241.468 338.021 260.225 329.218 254.611 315.48C265.634 319.037 263.672 309.846 261.436 305.217C271.011 308.479 282.159 291.895 272.619 284.31Z" fill="#56CDF5"/>
<path d="M285.253 192.279C264.05 182.834 235.728 172.418 235.728 172.418C231.045 171.93 225.703 174.682 222.085 178.205C237.052 197.353 263.732 200.972 285.253 192.279Z" fill="#56CDF5"/>
<path d="M214.852 279.712C211.304 278.1 207.1 275.537 206.624 272.274C206.485 271.351 206.658 270.408 207.116 269.595C203.614 269.861 199.034 269.754 197.229 266.22C196.828 265.174 196.653 264.054 196.716 262.934C196.78 261.815 197.08 260.722 197.597 259.727C198.149 258.407 198.915 257.186 199.862 256.113C196.069 255.841 194.179 254.155 193.242 252.641C191.552 249.972 191.858 246.106 194 242.828C194.951 241.172 196.353 239.819 198.042 238.927C199.732 238.035 201.639 237.641 203.544 237.791C203.804 237.823 204.042 237.957 204.204 238.164C204.365 238.371 204.438 238.633 204.407 238.894C204.392 239.021 204.352 239.145 204.289 239.257C204.226 239.369 204.142 239.467 204.041 239.547C203.94 239.626 203.825 239.685 203.701 239.72C203.578 239.755 203.449 239.765 203.321 239.75C201.784 239.656 200.251 239.993 198.894 240.722C197.537 241.451 196.411 242.545 195.641 243.879C193.938 246.573 193.644 249.617 194.883 251.616C196.122 253.616 198.923 254.54 202.874 254.115C203.115 254.096 203.354 254.165 203.547 254.31C203.74 254.454 203.874 254.664 203.923 254.9C203.973 255.136 203.934 255.382 203.815 255.592C203.696 255.802 203.505 255.961 203.277 256.04C201.927 256.456 200.316 258.308 199.382 260.524C198.995 261.257 198.761 262.062 198.692 262.888C198.623 263.714 198.722 264.546 198.982 265.333C200.535 268.303 205.376 267.803 208.616 267.505L209.27 267.44C209.48 267.42 209.69 267.468 209.87 267.576C210.051 267.684 210.192 267.847 210.274 268.041C210.358 268.232 210.377 268.446 210.329 268.649C210.281 268.852 210.169 269.034 210.008 269.168C209.546 269.47 209.171 269.887 208.92 270.379C208.668 270.87 208.55 271.419 208.576 271.971C208.846 273.835 211.569 276.145 215.901 278.012C216.109 278.138 216.264 278.335 216.336 278.567C216.408 278.799 216.392 279.05 216.292 279.271C216.191 279.492 216.013 279.669 215.791 279.767C215.568 279.865 215.318 279.879 215.086 279.804L214.852 279.712Z" fill="#6CD4FE"/>
<path d="M184.648 293.878C183.594 293.354 182.673 292.598 181.952 291.668C181.232 290.738 180.731 289.656 180.487 288.505C180.323 287.772 180.279 287.017 180.356 286.269C179.219 286.916 177.955 287.309 176.651 287.423C175.347 287.537 174.034 287.368 172.802 286.929C171.565 286.407 170.496 285.555 169.711 284.466C168.926 283.378 168.455 282.094 168.351 280.756C167.996 276.939 170.228 273.208 174.472 270.478C174.692 270.363 174.948 270.335 175.188 270.4C175.428 270.464 175.635 270.617 175.768 270.827C175.901 271.037 175.95 271.29 175.905 271.534C175.861 271.779 175.726 271.998 175.527 272.148C171.94 274.421 170.044 277.477 170.275 280.513C170.339 281.507 170.683 282.462 171.266 283.269C171.849 284.075 172.649 284.701 173.572 285.073C176.027 286.058 179.199 285.207 182.228 282.694C182.277 282.586 182.422 282.521 182.531 282.44C182.631 282.358 182.746 282.296 182.869 282.257C182.992 282.219 183.122 282.206 183.251 282.218C183.379 282.23 183.504 282.267 183.619 282.327C183.733 282.387 183.834 282.47 183.917 282.569C183.999 282.668 184.061 282.783 184.1 282.906C184.138 283.03 184.151 283.16 184.139 283.288C184.127 283.417 184.09 283.542 184.03 283.656C183.97 283.77 183.887 283.872 183.788 283.954L183.525 284.183C183.02 284.677 182.657 285.296 182.472 285.978C182.288 286.659 182.288 287.378 182.474 288.059C182.662 289.021 183.101 289.918 183.746 290.657C184.391 291.395 185.22 291.951 186.149 292.267C187.647 292.643 189.183 291.977 190.535 290.342C190.614 290.23 190.715 290.135 190.832 290.064C190.95 289.993 191.081 289.947 191.217 289.929C191.353 289.911 191.491 289.922 191.623 289.96C191.755 289.999 191.877 290.064 191.982 290.152C192.087 290.24 192.173 290.349 192.234 290.472C192.295 290.595 192.329 290.73 192.336 290.867C192.342 291.004 192.319 291.141 192.27 291.269C192.22 291.397 192.145 291.513 192.048 291.61C189.528 294.601 186.977 294.501 185.67 294.183C185.32 294.117 184.977 294.014 184.648 293.878Z" fill="#6CD4FE"/>
<path d="M116.403 279.225C115.176 278.645 114.11 277.771 113.302 276.68C112.494 275.589 111.968 274.314 111.772 272.971C111.593 271.612 111.808 270.231 112.392 268.991C112.976 267.751 113.904 266.706 115.065 265.978C115.279 265.844 115.535 265.794 115.783 265.84C116.031 265.885 116.253 266.022 116.405 266.224C116.543 266.437 116.594 266.694 116.548 266.943C116.503 267.192 116.363 267.414 116.159 267.564C115.296 268.084 114.605 268.844 114.169 269.752C113.733 270.66 113.572 271.676 113.706 272.674C113.865 273.775 114.315 274.812 115.011 275.68C115.707 276.547 116.622 277.212 117.662 277.605C118.714 277.92 119.836 277.922 120.89 277.614C121.944 277.305 122.887 276.697 123.604 275.865C123.798 275.68 124.058 275.579 124.326 275.584C124.458 275.586 124.588 275.616 124.708 275.67C124.828 275.725 124.935 275.803 125.024 275.901C125.159 276.063 125.286 276.232 125.403 276.407C125.47 276.526 125.552 276.636 125.646 276.735C125.757 276.802 125.854 276.89 125.931 276.994C126.007 277.098 126.063 277.217 126.093 277.343C126.124 277.469 126.129 277.6 126.109 277.728C126.088 277.856 126.042 277.978 125.974 278.089C125.839 278.314 125.62 278.476 125.365 278.54C125.11 278.604 124.841 278.564 124.615 278.429C124.439 278.319 124.281 278.183 124.145 278.026C123.189 278.873 122.026 279.453 120.775 279.707C119.523 279.961 118.226 279.881 117.016 279.474L116.403 279.225Z" fill="#6CD4FE"/>
<path d="M232.15 235.958C231.372 235.585 230.772 234.921 230.479 234.11C230.105 233.076 230.063 231.951 230.359 230.893C229.265 231.043 228.151 230.911 227.123 230.51C226.531 230.274 225.994 229.918 225.546 229.465C225.098 229.011 224.748 228.471 224.518 227.876C223.449 225.214 224.867 223.275 226.443 221.786C225.506 221.78 224.58 221.576 223.726 221.188C222.872 220.801 222.109 220.237 221.488 219.534C220.816 218.715 220.386 217.724 220.246 216.674C220.106 215.623 220.261 214.554 220.693 213.587C221.321 212.306 222.296 211.226 223.506 210.471C224.716 209.715 226.113 209.314 227.54 209.312C227.676 209.292 227.815 209.3 227.948 209.336C228.08 209.372 228.204 209.435 228.311 209.521C228.418 209.608 228.506 209.716 228.569 209.838C228.632 209.96 228.668 210.094 228.677 210.231C228.685 210.368 228.665 210.506 228.617 210.635C228.57 210.764 228.496 210.882 228.4 210.98C228.305 211.079 228.19 211.157 228.062 211.209C227.935 211.261 227.798 211.286 227.661 211.282C226.6 211.257 225.554 211.533 224.642 212.076C223.73 212.619 222.991 213.408 222.507 214.353C222.219 214.987 222.113 215.689 222.202 216.381C222.29 217.072 222.569 217.725 223.008 218.266C224.202 219.694 226.49 220.182 229.192 219.538C229.403 219.489 229.625 219.511 229.823 219.601C230.021 219.691 230.183 219.843 230.286 220.035C230.384 220.228 230.418 220.447 230.381 220.661C230.344 220.874 230.239 221.07 230.082 221.219C229.733 221.539 229.349 221.873 228.97 222.165C226.849 223.958 225.612 225.181 226.374 227.08C226.502 227.434 226.705 227.757 226.967 228.026C227.23 228.296 227.548 228.506 227.899 228.643C229.265 229.084 230.749 228.984 232.044 228.365C232.269 228.265 232.522 228.252 232.756 228.329C232.989 228.405 233.186 228.565 233.307 228.779C233.434 228.979 233.482 229.219 233.443 229.453C233.403 229.687 233.279 229.898 233.094 230.046C232.678 230.478 232.39 231.017 232.265 231.604C232.139 232.191 232.181 232.801 232.384 233.365C232.454 233.629 232.615 233.86 232.838 234.017C233.061 234.174 233.333 234.247 233.605 234.225C233.733 234.215 233.862 234.232 233.984 234.273C234.107 234.315 234.219 234.38 234.315 234.466C234.412 234.552 234.49 234.656 234.545 234.772C234.601 234.889 234.632 235.015 234.638 235.144C234.65 235.402 234.56 235.654 234.388 235.847C234.217 236.04 233.976 236.159 233.719 236.177C233.185 236.235 232.646 236.159 232.15 235.958Z" fill="#6CD4FE"/>
<path d="M252.725 233.627C251.38 232.94 250.32 231.801 249.732 230.41C249.658 230.292 249.61 230.161 249.591 230.025C249.571 229.888 249.58 229.749 249.618 229.616C249.655 229.483 249.72 229.359 249.808 229.252C249.896 229.146 250.005 229.059 250.129 228.997C250.252 228.935 250.387 228.9 250.525 228.894C250.663 228.887 250.801 228.91 250.93 228.96C251.059 229.01 251.176 229.086 251.273 229.184C251.371 229.282 251.447 229.399 251.496 229.528C252.148 230.84 253.28 232.341 254.941 232.007C256.601 231.673 258.468 229.257 258.666 226.619C258.682 226.381 258.783 226.158 258.95 225.989C259.118 225.82 259.34 225.716 259.577 225.698C259.827 225.674 260.076 225.744 260.276 225.894C260.476 226.044 260.613 226.263 260.66 226.509C260.88 227.181 261.253 227.792 261.75 228.295C262.247 228.798 262.854 229.178 263.523 229.406C264.266 229.781 265.083 229.985 265.916 230.004C266.748 230.023 267.574 229.857 268.333 229.517C271.11 227.876 270.962 221.816 270.865 218.58L270.848 217.977C270.841 217.716 270.938 217.463 271.117 217.272C271.296 217.082 271.543 216.97 271.804 216.96C272.065 216.958 272.317 217.058 272.506 217.239C272.695 217.419 272.806 217.667 272.815 217.928L272.832 218.53C272.941 222.41 273.13 228.924 269.354 231.199C268.329 231.715 267.198 231.985 266.051 231.987C264.904 231.99 263.772 231.725 262.745 231.214C261.748 230.792 260.844 230.179 260.082 229.41C259.728 230.493 259.116 231.475 258.298 232.268C257.479 233.062 256.48 233.645 255.386 233.965C254.485 234.139 253.553 234.02 252.725 233.627Z" fill="#6CD4FE"/>
<path d="M50.2857 361.26C38.187 387.888 39.8508 400.194 56.0892 402.523C62.1005 390.091 63.4618 371.222 65.5056 366.724C69.0183 358.961 50.2857 361.26 50.2857 361.26Z" fill="#FBD094"/>
<path d="M42.6439 384.53C41.2801 395.388 45.6522 401.031 56.0893 402.523C58.1841 397.92 59.7867 393.108 60.8702 388.168C54.5863 388.497 48.3202 387.246 42.6439 384.53Z" fill="#CB423A"/>
<path d="M76.8574 261.066C70.8219 258.861 61.234 262.079 62.9094 271.517C48.22 268.079 47.2011 288.206 57.6491 296.189C44.7616 299.547 50.8847 315.868 61.8569 320.301C43.3273 320.589 48.6033 331.619 55.9067 338.188C40.0592 339.694 47.5778 351.729 50.3949 356.259C37.381 362.259 39.4377 370.347 53.4011 373.499C72.3961 377.777 82.1417 349.556 86.9533 342.543C91.1176 347.685 103.929 342.13 104.176 336.83C114.798 342.193 141.132 322.207 137.261 312.873C147.545 316.458 154.837 299.195 148.026 293.939C141.215 288.682 76.8574 261.066 76.8574 261.066Z" fill="url(#paint1_radial_314_2353)"/>
<path d="M96.8277 311.292C95.9768 310.852 95.2355 310.227 94.6586 309.463C94.0817 308.698 93.6839 307.814 93.4945 306.875C93.2943 305.854 93.3546 304.798 93.67 303.806C89.9265 304.253 87.9748 303.119 86.9753 301.998C86.2712 301.075 85.8329 299.977 85.7076 298.823C85.5824 297.669 85.775 296.503 86.2647 295.45C87.2101 292.995 88.8774 290.884 91.0469 289.396C89.6164 289.294 88.2402 288.807 87.0649 287.985C85.8897 287.163 84.9593 286.038 84.3731 284.729C83.7868 283.421 83.5666 281.977 83.7359 280.553C83.9052 279.129 84.4577 277.778 85.3344 276.643C87.8648 272.67 92.6292 270.743 98.049 271.494C98.3091 271.531 98.5437 271.67 98.7012 271.88C98.8587 272.091 98.9262 272.355 98.8888 272.615C98.8514 272.875 98.7123 273.11 98.5019 273.267C98.2916 273.425 98.0273 273.492 97.7672 273.455C93.1434 272.805 89.1115 274.398 86.9997 277.704C86.2675 278.722 85.8399 279.927 85.7671 281.179C85.6944 282.43 85.9793 283.677 86.5887 284.773C88.1384 287.174 91.5026 288.137 96.066 287.483C96.3171 287.454 96.5696 287.524 96.7705 287.677C96.9713 287.831 97.1048 288.056 97.1431 288.306C97.1702 288.555 97.1016 288.806 96.9511 289.007C96.8005 289.208 96.5793 289.344 96.3321 289.388C94.4852 289.707 92.7523 290.498 91.3024 291.685C89.8525 292.873 88.735 294.416 88.0589 296.164C87.7117 296.88 87.5618 297.676 87.6246 298.47C87.6873 299.263 87.9606 300.026 88.4161 300.679C89.5577 301.967 92.0243 302.318 95.2932 301.511C95.495 301.46 95.7076 301.476 95.9001 301.554C96.0927 301.633 96.2552 301.771 96.364 301.948C96.4728 302.125 96.5223 302.333 96.5051 302.54C96.488 302.747 96.4052 302.944 96.2687 303.101C95.8773 303.562 95.5966 304.107 95.4483 304.693C95.3001 305.28 95.288 305.893 95.4132 306.485C95.5439 307.132 95.8185 307.743 96.2168 308.27C96.615 308.798 97.1268 309.229 97.7141 309.532C97.9222 309.658 98.077 309.855 98.1491 310.087C98.2212 310.319 98.2055 310.57 98.105 310.791C98.0045 311.012 97.8261 311.189 97.6039 311.287C97.3817 311.385 97.1312 311.399 96.8998 311.324L96.8277 311.292Z" fill="#6CD4FE"/>
<path d="M143.839 400.878C141.899 404.35 133.332 430.392 135.169 435.928C137.007 441.464 147.027 446.365 148.114 443.972C149.202 441.578 149.606 432.737 151.709 426.48C153.811 420.224 160.135 403.944 159.364 403.245C158.593 402.547 143.839 400.878 143.839 400.878Z" fill="#FBD094"/>
<path d="M136.223 424.828C135.083 429.795 134.498 434.085 135.135 435.942C136.978 441.466 146.992 446.379 148.08 443.985C148.998 441.965 149.438 435.345 150.836 429.552C145.618 429.384 140.552 427.746 136.223 424.828Z" fill="#CB423A"/>
<path d="M182.834 311.38C170.842 315.131 161.134 321.008 164.396 337.653C149.257 334.025 142.639 350.984 148.612 364.058C136.857 368.468 137.232 378.375 141.841 383.719C133.405 388.012 138.702 394.206 147.065 393.682C136.948 400.461 133.161 411.19 146.943 413.113C160.725 415.036 169.51 402.791 169.053 390.671C178.473 400.915 190.84 383.245 189.462 374.493C198.962 380.986 201.209 364.13 197.009 357.883C210.837 362.004 236.089 327.567 229.026 311.24C217.88 285.6 182.834 311.38 182.834 311.38Z" fill="url(#paint2_radial_314_2353)"/>
<path d="M174.846 360.452C170.733 358.583 171.232 355.632 171.625 354.447C172.49 351.937 175.282 349.593 178.161 348.333C177.153 347.747 176.343 346.873 175.833 345.824C174.704 343.614 175.193 340.846 177.027 338.183C180.2 333.69 186.439 331.519 189.877 330.628C190.12 330.589 190.369 330.642 190.575 330.777C190.781 330.912 190.93 331.119 190.992 331.357C191.054 331.595 191.025 331.848 190.91 332.066C190.796 332.284 190.605 332.452 190.373 332.537C187.82 333.205 181.563 335.194 178.588 339.313C177.15 341.329 176.747 343.366 177.507 344.887C177.938 345.601 178.536 346.2 179.249 346.632C179.962 347.065 180.769 347.319 181.602 347.371C182.099 347.344 182.598 347.385 183.084 347.494C183.342 347.524 183.577 347.655 183.737 347.859C183.898 348.063 183.971 348.322 183.941 348.579C183.91 348.837 183.779 349.071 183.575 349.232C183.372 349.393 183.113 349.466 182.855 349.435C182.385 349.431 181.916 349.397 181.45 349.334C178.46 349.528 174.284 352.332 173.425 354.989C173.184 355.518 172.662 357.21 175.591 358.556C175.8 358.681 175.954 358.879 176.026 359.111C176.099 359.343 176.083 359.593 175.982 359.814C175.882 360.036 175.703 360.212 175.481 360.311C175.259 360.409 175.009 360.422 174.777 360.348L174.846 360.452Z" fill="#6CD4FE"/>
<path d="M102.151 241.291L100.929 239.734C102.391 238.374 103.748 236.904 104.986 235.338C107.264 232.688 110.37 229.078 114.423 225.043L115.806 226.44C111.816 230.431 108.744 233.998 106.489 236.63C105.165 238.293 103.715 239.851 102.151 241.291Z" fill="#C43259"/>
<path d="M115.369 256.176L113.565 255.356C115.967 250.198 118.828 245.268 122.116 240.624L123.725 241.776C120.503 246.309 117.706 251.129 115.369 256.176Z" fill="#C43259"/>
<path d="M137.286 266.831C137.82 262.111 140.158 257.093 142.264 252.681C142.608 251.923 142.947 251.178 143.28 250.444L145.072 251.258C144.739 251.992 144.4 252.738 144.05 253.507C142.089 257.825 139.786 262.67 139.329 267.092L137.286 266.831Z" fill="#C43259"/>
<path d="M167.859 261.306C167.116 259.263 166.542 257.163 166.141 255.027C165.723 252.805 165.106 250.626 164.297 248.515L166.095 247.751C166.953 249.967 167.603 252.259 168.035 254.596C168.424 256.629 168.971 258.628 169.67 260.577L167.859 261.306Z" fill="#C43259"/>
<path d="M117.462 254.702C117.397 254.203 117.218 253.726 116.94 253.308C116.662 252.889 116.292 252.54 115.858 252.286C115.424 252.033 114.937 251.883 114.436 251.847C113.934 251.811 113.432 251.89 112.966 252.079L112.769 252.192C112.089 252.377 111.46 252.713 110.929 253.175C110.397 253.637 109.977 254.213 109.699 254.86C109.524 255.246 109.428 255.663 109.417 256.087C109.406 256.51 109.48 256.931 109.636 257.326C109.791 257.72 110.024 258.079 110.321 258.381C110.618 258.683 110.973 258.922 111.364 259.085C111.731 259.414 112.145 259.686 112.594 259.89C113.268 260.2 114.025 260.278 114.748 260.113C115.471 259.948 116.119 259.55 116.592 258.979C117.055 258.38 117.374 257.683 117.525 256.942C117.676 256.2 117.654 255.434 117.462 254.702Z" fill="#EA2D77"/>
<path d="M142.297 266.786C142.044 266.068 141.6 265.432 141.013 264.945C140.427 264.459 139.719 264.141 138.967 264.025C138.526 263.954 138.076 263.971 137.642 264.074C137.208 264.177 136.798 264.365 136.437 264.627C136.075 264.888 135.769 265.219 135.535 265.599C135.302 265.979 135.145 266.401 135.075 266.842C134.988 267.563 135.045 268.295 135.244 268.994C135.227 269.682 135.412 270.36 135.775 270.945C136.138 271.53 136.663 271.997 137.287 272.287C138.124 272.66 139.074 272.688 139.931 272.367C140.789 272.045 141.485 271.399 141.87 270.568C142.493 269.409 142.646 268.055 142.297 266.786Z" fill="#EA2D77"/>
<path d="M172.703 264.697C172.939 263.572 172.833 262.403 172.401 261.338C172.029 260.363 171.287 259.574 170.337 259.142C169.387 258.71 168.304 258.671 167.325 259.032C165.662 259.689 164.287 260.916 163.445 262.493C163.182 263.111 163.061 263.78 163.091 264.451C163.121 265.122 163.302 265.778 163.62 266.369C163.937 266.961 164.384 267.473 164.927 267.869C165.47 268.265 166.094 268.533 166.755 268.655C167.407 268.811 168.084 268.831 168.744 268.714C169.405 268.596 170.034 268.344 170.592 267.973C171.15 267.601 171.626 267.119 171.989 266.555C172.352 265.991 172.595 265.359 172.703 264.697Z" fill="#EA2D77"/>
<path d="M105.966 240.179C106.095 239.382 105.958 238.564 105.576 237.853C105.193 237.142 104.587 236.576 103.851 236.244C103.082 235.873 102.237 235.688 101.384 235.707C100.53 235.725 99.6935 235.945 98.9417 236.35C98.4799 236.682 98.0935 237.108 97.8077 237.6C97.522 238.092 97.3433 238.639 97.2834 239.205C97.2236 239.771 97.2839 240.343 97.4603 240.884C97.6368 241.425 97.9255 241.923 98.3075 242.344C98.9549 243.192 99.9003 243.761 100.952 243.937C102.004 244.113 103.083 243.883 103.971 243.292C104.411 242.967 104.768 242.543 105.013 242.054C105.519 241.544 105.853 240.889 105.966 240.179Z" fill="#EA2D77"/>
<path d="M121.335 204.022C113.871 205.376 102.169 239.817 130.769 251.985C167.983 267.804 183.378 241.585 191.495 227.585C178.744 216.017 140.672 200.489 121.335 204.022Z" fill="#FB7397"/>
<path d="M118.758 224.864C120.264 240.711 136.392 248.039 151.393 248.398C166.241 247.207 179.3 237.019 186.311 223.634C171.899 213.836 144.496 203.185 126.674 203.575C121.312 210.077 118.479 217.525 118.758 224.864Z" fill="#F6E14F"/>
<path d="M137.663 223.89L123.223 238.998L124.646 240.358L139.086 225.25L137.663 223.89Z" fill="#FB7397"/>
<path d="M147.247 228.261L145.385 227.625L138.82 246.839L140.682 247.475L147.247 228.261Z" fill="#FB7397"/>
<path d="M157.792 228.015L155.829 228.165L157.546 250.61L159.509 250.46L157.792 228.015Z" fill="#FB7397"/>
<path d="M163.058 222.318L161.64 223.683L176.906 239.555L178.325 238.19L163.058 222.318Z" fill="#FB7397"/>
<path d="M136.457 216.977L115.577 223.188L116.138 225.074L137.019 218.863L136.457 216.977Z" fill="#FB7397"/>
<path d="M136.681 209.582L119.55 208.568L119.434 210.533L136.564 211.547L136.681 209.582Z" fill="#FB7397"/>
<path d="M169.744 219.395L168.52 220.936L185.233 234.218L186.458 232.677L169.744 219.395Z" fill="#FB7397"/>
<path d="M136.551 228.623C150.112 239.399 165.137 230.09 174.999 217.072C162.92 211.018 147.681 205.69 134.951 204.071C131.585 212.916 129.815 222.371 136.551 228.623Z" fill="#0BEBAC"/>
<path d="M159.105 210.314C155.515 213.457 151.69 216 147.889 212.836C146.26 211.472 145.887 208.938 146.001 206.261C144.887 205.987 143.784 205.733 142.691 205.497C141.607 209.576 142.046 213.911 145.627 216.887C149.209 219.864 154.326 218.852 158.049 216.727C160.298 215.503 162.398 214.023 164.305 212.314C162.641 211.602 160.913 210.933 159.105 210.314Z" fill="#009ACF"/>
<g style="mix-blend-mode:hard-light" opacity="0.3">
<path d="M168.332 213.927C152.442 206.969 133.303 201.857 121.371 204.039C114.371 205.299 103.634 235.637 125.881 249.459C132.969 231.814 150.458 219.765 168.332 213.927Z" fill="#FBFBB7"/>
</g>
<path d="M263.046 113.891C257.555 116.141 245.717 130.569 245.717 130.569C245.717 130.569 224.477 120.918 222.837 124.526C221.945 126.559 220.826 128.484 219.504 130.267C219.504 130.267 213.784 131.136 213.297 142.523C212.837 153.69 221.04 175.366 264.237 194.688C307.434 214.01 317.009 177.862 316.648 164.349C316.287 150.835 284.773 105.001 263.046 113.891Z" fill="url(#paint3_radial_314_2353)"/>
<g style="mix-blend-mode:color-dodge" opacity="0.2">
<g style="mix-blend-mode:color-dodge" opacity="0.2">
<path d="M261.18 155.427C260.849 147.818 271.665 137.714 279.857 143.062C288.049 148.409 282.701 164.523 276.696 165.988C270.69 167.453 261.572 164.079 261.18 155.427Z" fill="#FBB8A4"/>
</g>
</g>
<g style="mix-blend-mode:multiply" opacity="0.4">
<path d="M273.958 129.411C271.277 141.252 299.781 152.926 310.35 147.933C299.969 129.998 278.892 107.406 263.046 113.89C260.42 114.975 256.343 118.839 252.799 122.583C256.354 130.598 264.71 131.753 273.958 129.411Z" fill="#F78875"/>
</g>
<path d="M262.971 169.271C261.799 163.515 277.844 162.374 279.884 169.381C282.078 176.878 264.332 175.984 262.971 169.271Z" fill="#FB889A"/>
<path d="M227.721 135.204C226.858 135.098 225.982 135.152 225.138 135.365C224.177 134.386 223.387 133.252 222.802 132.011C222.448 131.071 222.296 130.068 222.355 129.066C222.308 128.298 222.299 127.529 222.329 126.761C222.333 126.73 222.327 126.699 222.311 126.672C222.296 126.645 222.273 126.624 222.245 126.611C222.216 126.598 222.185 126.594 222.155 126.601C222.124 126.607 222.097 126.623 222.076 126.646C221.851 126.95 221.168 127.336 221.029 127.738C220.852 128.228 220.707 128.729 220.594 129.238C220.373 130.333 220.353 131.46 220.534 132.562C220.745 134.204 221.438 135.746 222.526 136.993C221.846 137.774 221.348 138.695 221.066 139.691C220.784 140.686 220.726 141.732 220.896 142.753C222.456 140.761 224.632 139.341 227.083 138.716C230.878 137.901 238.753 142.03 238.753 142.03C238.753 142.03 233.709 135.951 227.721 135.204Z" fill="#EC916E"/>
<path d="M268.688 146.693L268.383 147.875C268.285 148.092 268.371 148.189 268.359 148.343L268.358 148.793C268.401 149.12 268.478 149.442 268.589 149.754C268.608 149.936 268.737 150.067 268.808 150.23L269.062 150.694C269.161 150.846 269.277 150.986 269.408 151.112L269.767 151.537C270.031 151.787 270.347 152.018 270.628 152.261L271.619 152.857L272.678 153.338L272.335 153.806C271.568 152.772 270.985 151.614 270.611 150.382C270.518 150.065 270.447 149.741 270.398 149.414C270.347 149.073 270.315 148.728 270.3 148.383C270.334 148.021 270.35 147.666 270.396 147.31L270.728 146.227C270.826 145.999 271.005 145.814 271.23 145.71C271.455 145.606 271.712 145.589 271.949 145.662C272.186 145.736 272.388 145.895 272.515 146.108C272.642 146.322 272.685 146.575 272.636 146.818C272.617 146.877 272.591 146.934 272.56 146.987L272.188 147.805C272.084 148.033 272.058 148.282 271.985 148.539C271.912 148.796 271.939 149.055 271.902 149.329C271.865 149.602 271.928 149.878 271.933 150.155C272.071 151.317 272.4 152.447 272.908 153.501C272.953 153.569 272.969 153.651 272.954 153.731C272.94 153.81 272.895 153.881 272.83 153.929C272.75 153.976 272.655 153.99 272.565 153.969C272.192 153.799 271.747 153.757 271.281 153.603C270.814 153.449 270.511 153.253 270.078 153.056C269.645 152.859 269.329 152.629 268.946 152.353L268.445 151.923C268.274 151.784 268.115 151.63 267.973 151.461L267.551 150.921C267.398 150.748 267.272 150.554 267.175 150.344C266.953 149.921 266.781 149.473 266.664 149.009L266.559 148.251C266.518 148.011 266.507 147.767 266.526 147.525L266.658 146.308C266.662 146.171 266.695 146.037 266.753 145.914C266.812 145.791 266.895 145.681 266.998 145.592C267.101 145.502 267.221 145.435 267.351 145.394C267.481 145.353 267.618 145.339 267.754 145.354C267.889 145.368 268.021 145.411 268.139 145.478C268.257 145.546 268.361 145.637 268.442 145.747C268.524 145.856 268.582 145.981 268.613 146.114C268.644 146.246 268.647 146.384 268.623 146.518L268.688 146.693Z" fill="#DC7069"/>
<path d="M277.745 151.447C277.597 151.379 277.468 151.275 277.37 151.144C277.272 151.014 277.209 150.861 277.185 150.699C277.094 150.165 275.667 149.473 275.185 149.544C274.961 149.648 274.704 149.661 274.47 149.579C274.237 149.497 274.044 149.327 273.933 149.106C273.823 148.862 273.812 148.586 273.902 148.334C273.992 148.083 274.176 147.876 274.415 147.757C274.872 147.623 275.352 147.583 275.825 147.64C276.298 147.698 276.754 147.852 277.165 148.093C277.652 148.305 278.083 148.627 278.424 149.034C278.766 149.441 279.008 149.921 279.132 150.438C279.166 150.686 279.104 150.938 278.957 151.141C278.811 151.345 278.592 151.484 278.345 151.531C278.141 151.56 277.933 151.531 277.745 151.447Z" fill="#F58570"/>
<g style="mix-blend-mode:color-dodge" opacity="0.3">
<path d="M221.214 137.485C227.622 123.797 237.181 135.715 245.99 135.393C251.712 135.99 252.573 127.037 255.226 120.015C250.374 124.819 245.668 130.545 245.668 130.545C245.668 130.545 224.427 120.895 222.788 124.503C221.895 126.535 220.777 128.461 219.454 130.243C219.454 130.243 213.734 131.112 213.247 142.499C213.221 148.33 214.829 154.052 217.888 159.016C218.524 152.123 217.217 143.853 221.214 137.485Z" fill="#F7ED57"/>
</g>
<path d="M277.819 133.56C277.123 133.023 276.276 132.72 275.398 132.692C274.683 132.573 273.95 132.688 273.305 133.018C273.119 133.061 272.936 133.113 272.755 133.175C272.25 133.39 271.847 133.792 271.631 134.296C271.415 134.801 271.403 135.37 271.597 135.884C271.791 136.398 272.177 136.816 272.672 137.053C273.168 137.289 273.736 137.324 274.257 137.151C274.457 137.126 274.527 137.1 274.538 137.076C274.739 137.113 274.944 137.123 275.148 137.106C275.659 137.209 276.181 137.251 276.702 137.232C277.102 137.176 277.477 137.008 277.784 136.746C278.091 136.484 278.317 136.139 278.434 135.753C278.552 135.367 278.556 134.955 278.447 134.566C278.338 134.178 278.12 133.829 277.819 133.56Z" fill="#EE6249"/>
<path d="M277.142 158.747C276.74 159.638 276.081 160.391 275.251 160.908C274.421 161.426 273.456 161.685 272.478 161.653C271.5 161.621 270.554 161.3 269.759 160.73C268.964 160.16 268.356 159.366 268.012 158.45C267.669 157.534 267.605 156.537 267.828 155.585C268.052 154.632 268.554 153.768 269.269 153.101C269.985 152.434 270.882 151.994 271.848 151.838C272.814 151.681 273.804 151.815 274.694 152.222C275.283 152.49 275.814 152.871 276.256 153.344C276.697 153.816 277.042 154.372 277.269 154.977C277.496 155.583 277.602 156.228 277.58 156.875C277.558 157.521 277.409 158.158 277.142 158.747Z" fill="#C6436D"/>
<g style="mix-blend-mode:color-dodge" opacity="0.3">
<path d="M251.589 136.007C250.968 134.854 250.115 133.842 249.082 133.036C248.05 132.229 246.861 131.646 245.592 131.323C243.051 130.88 240.94 134.695 243.368 136.218C245.389 137.292 247.195 138.728 248.698 140.454C249.175 141.034 251.359 143.317 252.306 142.094C253.546 140.292 252.564 137.727 251.589 136.007Z" fill="#F7D157"/>
</g>
<path d="M257.146 165.36C257.146 165.36 239.027 169.215 239.819 170.344C240.612 171.474 243.196 177.508 252.213 175.003C261.23 172.498 258.487 166.783 257.146 165.36Z" fill="white"/>
<path d="M251.009 171.105C255.169 169.934 255.6 169.114 256.457 168.313C257.081 165.695 244.818 169.946 240.304 171.131C240.102 170.807 239.944 170.518 239.814 170.357C239.021 169.228 257.14 165.373 257.14 165.373C258.129 166.389 259.751 169.462 257.551 172.133C256.589 171.217 252.619 171.619 251.009 171.105Z" fill="#D9D3B1"/>
<path d="M257.146 165.36C258.135 166.376 259.757 169.449 257.557 172.12C257.434 172.041 257.3 171.98 257.16 171.94C257.248 171.458 257.36 170.957 257.43 170.452C257.119 170.529 256.81 170.635 256.505 170.699C256.031 170.732 255.561 170.805 255.1 170.917C255.04 171.049 254.864 170.926 254.956 170.851C255.047 170.777 255.141 170.443 255.301 170.283C255.501 170.072 255.752 169.917 256.029 169.83C256.509 169.575 257.004 169.349 257.511 169.154C257.557 168.868 257.543 168.575 257.469 168.294C257.395 168.013 257.263 167.751 257.082 167.524C256.901 167.297 256.675 167.111 256.418 166.976C256.161 166.841 255.878 166.762 255.589 166.743C253.574 166.774 251.571 167.053 249.625 167.573C246.276 168.037 243.039 169.103 240.07 170.719C239.997 170.588 239.913 170.462 239.819 170.344C239.027 169.215 257.146 165.36 257.146 165.36Z" fill="#CE7A65"/>
<path d="M302.086 119.715C300.117 114.468 292.362 98.6105 310 87.2241C321.944 79.4902 328.255 91.3397 318.171 101.399C305.801 113.742 309.191 120.781 309.191 120.781L302.086 119.715Z" fill="#FBD094"/>
<path d="M275.418 94.611C269.613 93.207 255.851 96.7341 254.051 107.466C252.251 118.199 258.909 121.398 262.879 123.39C266.849 125.383 274.794 125.365 277.264 124.688C276.254 130.904 283.441 142.295 292.908 137.745C291.222 144.234 292.16 151.306 297.684 153.453C289.914 156.249 287.816 170.096 291.147 177.965C282.849 178.664 248.65 182.076 260.122 205.339C271.594 228.602 295.669 216.078 305.631 210.853C308.697 214.422 348.949 197.335 329.692 169.81C336.304 169.564 342.619 160.52 329.288 158.787C336.627 154.547 340.278 137.792 328.709 127.486C331.924 119.196 318.931 105.893 305.548 109.926C300.482 104.374 290.402 98.1685 285.155 103.359C282.674 100.07 283.871 96.6378 275.418 94.611Z" fill="url(#paint4_radial_314_2353)"/>
<g style="mix-blend-mode:hard-light" opacity="0.2">
<path d="M272.911 105.08C273.785 104.563 277.052 103.088 277.013 101.865C276.94 100.827 276.572 99.8318 275.951 98.9967C275.33 98.1616 274.482 97.522 273.509 97.1538C270.935 95.9844 268.006 96.8737 265.626 98.056C259.746 100.971 257.165 105.82 258.648 112.298C259.341 115.21 263.184 116.462 265.72 115.511C267.043 114.995 268.118 113.992 268.725 112.709C269.333 111.425 269.426 109.958 268.987 108.608C269.055 108.304 269.185 108.017 269.369 107.766C270.354 106.638 271.559 105.724 272.911 105.08Z" fill="#FBFBB7"/>
</g>
<g style="mix-blend-mode:hard-light" opacity="0.2">
<path d="M288.531 111.742C289.292 110.767 291.081 107.981 292.417 107.819C292.504 107.804 292.586 107.765 292.652 107.706C292.719 107.647 292.767 107.57 292.793 107.485C292.818 107.4 292.818 107.309 292.795 107.223C292.771 107.138 292.724 107.06 292.658 107C290.338 105.665 287.597 105.26 284.989 105.867C283.753 106.139 282.583 106.657 281.551 107.391C280.519 108.125 279.646 109.06 278.984 110.139C278.321 111.219 277.883 112.42 277.696 113.673C277.509 114.925 277.576 116.203 277.893 117.429C277.995 118.126 278.24 118.796 278.614 119.394C278.988 119.992 279.482 120.505 280.065 120.902C280.648 121.299 281.307 121.57 282.001 121.699C282.694 121.827 283.407 121.81 284.093 121.648C284.779 121.486 285.425 121.184 285.988 120.759C286.551 120.335 287.02 119.798 287.364 119.182C287.709 118.567 287.922 117.887 287.989 117.185C288.057 116.483 287.978 115.774 287.757 115.105C287.574 113.926 287.851 112.722 288.531 111.742Z" fill="#FBFBB7"/>
</g>
<g style="mix-blend-mode:hard-light" opacity="0.2">
<path d="M309.597 177.469C309.473 175.251 307.575 173.489 307.646 171.257C307.795 167.32 310.166 163.986 311.65 160.496C311.972 159.786 313.8 156.946 313.347 156.218C310.457 151.465 300.041 156.76 297.479 159.397C294.226 162.639 292.226 166.927 291.834 171.502C291.448 176.376 293.337 183.46 298.196 185.667C301.805 187.307 307.107 186.814 308.943 182.773C309.594 181.086 309.818 179.264 309.597 177.469Z" fill="#FBFBB7"/>
</g>
<g style="mix-blend-mode:multiply" opacity="0.3">
<path d="M278.2 121.863C271.717 118.917 261.955 123.188 255.255 117.242C257.166 120.635 260.49 122.261 262.852 123.45C266.828 125.431 274.767 125.425 277.237 124.748C276.227 130.964 283.414 142.355 292.881 137.805C291.806 141.96 291.805 146.371 293.353 149.541C292.343 143.046 295.732 139.1 297.861 130.869C285.233 138.959 282.762 126.098 278.2 121.863Z" fill="#F6AD9A"/>
</g>
<path d="M329.691 169.81C336.304 169.564 342.618 160.521 329.287 158.788C336.626 154.548 340.277 137.793 328.708 127.487C329.115 126.212 329.25 124.866 329.105 123.535C328.96 122.204 328.537 120.919 327.865 119.762C327.159 119.693 326.449 119.676 325.741 119.711C325.893 118.648 325.894 117.569 325.745 116.506C321.384 111.318 313.57 107.535 305.523 109.916C304.338 108.635 303.05 107.453 301.673 106.382C300.904 106.81 300.225 107.384 299.673 108.07C298.408 109.672 296.605 113.162 299.159 114.598C301.713 116.034 305.486 113.831 308.414 114.189C310.19 114.423 311.925 114.903 313.569 115.617C315.626 116.552 315.587 120.118 316.37 121.939C316.733 122.887 317.398 123.69 318.261 124.224C319.125 124.758 320.14 124.994 321.151 124.895C321.154 126.393 321.599 127.857 322.43 129.104C325.137 132.361 326.979 136.247 327.787 140.404C328.757 145.807 328.058 151.177 324.704 155.588C322.76 158.144 320.284 159.601 319.235 162.709C319.208 162.774 319.195 162.843 319.198 162.914C319.201 162.984 319.22 163.052 319.253 163.114C319.286 163.177 319.332 163.231 319.388 163.273C319.444 163.315 319.509 163.344 319.578 163.358C321.182 163.795 322.867 163.847 324.495 163.51C326.123 163.173 327.648 162.457 328.948 161.419C328.923 162.077 328.695 162.712 328.294 163.234C327.893 163.757 327.339 164.141 326.709 164.334C325.995 164.616 325.353 165.056 324.832 165.62C324.311 166.184 323.924 166.858 323.699 167.592C323.474 168.326 323.417 169.102 323.533 169.861C323.649 170.62 323.935 171.343 324.368 171.977C331.705 181.666 328.673 194.247 319.212 201.658C312.864 206.653 293.185 206.055 303.414 195.612C303.474 195.48 303.445 195.322 303.33 195.255C298.71 192.648 292.431 198.356 292.874 203.418C293.279 207.955 304.099 211.638 305.647 210.818C308.69 214.435 348.948 197.336 329.691 169.81Z" fill="#56CDF5"/>
<path d="M264.477 115.339C264.146 115.19 263.828 115.016 263.523 114.819C260.476 112.839 258.259 108.074 259.988 104.332C262.409 99.004 269.857 98.325 272.899 98.2709C273.028 98.2685 273.156 98.2914 273.276 98.3384C273.396 98.3854 273.505 98.4556 273.598 98.5449C273.691 98.6342 273.765 98.741 273.817 98.859C273.868 98.977 273.896 99.1041 273.899 99.2329C273.901 99.3617 273.878 99.4897 273.831 99.6096C273.784 99.7295 273.714 99.839 273.625 99.9318C273.535 100.025 273.429 100.099 273.311 100.15C273.193 100.202 273.065 100.23 272.937 100.232C270.828 100.275 263.803 100.726 261.763 105.153C260.544 107.835 262.252 111.644 264.567 113.16C266.882 114.676 270.743 114.515 272.371 112.208C273.23 110.987 273.464 109.802 272.806 109.111C272.342 108.7 271.757 108.45 271.139 108.4C270.521 108.349 269.903 108.5 269.378 108.831C269.137 108.934 268.866 108.938 268.621 108.843C268.377 108.749 268.179 108.562 268.071 108.324C268.018 108.206 267.989 108.079 267.986 107.949C267.982 107.82 268.004 107.692 268.051 107.571C268.098 107.451 268.168 107.341 268.257 107.247C268.347 107.154 268.454 107.08 268.572 107.028C269.491 106.518 270.552 106.324 271.592 106.474C272.632 106.624 273.595 107.111 274.332 107.86C275.515 109.312 275.384 111.356 273.986 113.348C271.938 116.291 267.556 116.738 264.477 115.339Z" fill="#6CD4FE"/>
<path d="M284.671 120.553C283.768 120.128 282.963 119.521 282.305 118.77C281.648 118.02 281.152 117.141 280.849 116.19C280.506 115.207 280.405 114.155 280.555 113.125C280.705 112.094 281.102 111.115 281.711 110.27C283.932 107.042 288.71 105.15 292.086 105.001C292.216 104.995 292.346 105.015 292.468 105.06C292.591 105.104 292.703 105.173 292.799 105.261C292.896 105.349 292.973 105.455 293.028 105.573C293.083 105.691 293.115 105.819 293.12 105.95C293.126 106.08 293.106 106.21 293.061 106.332C293.016 106.455 292.948 106.567 292.86 106.663C292.772 106.759 292.666 106.837 292.548 106.892C292.429 106.947 292.302 106.978 292.171 106.984C289.219 107.094 285.126 108.789 283.331 111.398C282.895 111.988 282.611 112.676 282.504 113.402C282.397 114.128 282.47 114.869 282.718 115.559C282.975 116.418 283.454 117.194 284.109 117.808C284.763 118.421 285.568 118.85 286.442 119.051C287.222 119.187 287.874 119.092 288.136 118.804C288.397 118.517 288.275 117.954 288.187 117.638C288.109 117.385 288.135 117.112 288.259 116.878C288.383 116.645 288.594 116.47 288.847 116.392C289.1 116.315 289.373 116.341 289.606 116.465C289.84 116.588 290.015 116.8 290.092 117.053C290.291 117.557 290.35 118.106 290.265 118.641C290.18 119.176 289.954 119.679 289.609 120.098C289.151 120.532 288.59 120.841 287.978 120.995C287.367 121.149 286.726 121.144 286.118 120.978C285.621 120.892 285.136 120.75 284.671 120.553Z" fill="#6CD4FE"/>
<path d="M303.569 184.001C303.068 183.776 302.588 183.509 302.132 183.203C299.87 181.706 298.05 179.63 296.862 177.192C295.673 174.753 295.159 172.041 295.373 169.337C295.555 166.519 296.48 163.801 298.055 161.457C299.629 159.114 301.797 157.23 304.336 155.997C304.562 155.899 304.816 155.89 305.048 155.971C305.28 156.052 305.473 156.218 305.588 156.435C305.686 156.661 305.695 156.915 305.614 157.147C305.533 157.379 305.367 157.572 305.15 157.687C302.931 158.762 301.036 160.405 299.656 162.449C298.277 164.492 297.462 166.864 297.294 169.324C297.103 171.684 297.549 174.051 298.586 176.179C299.623 178.307 301.213 180.117 303.189 181.42C304.164 182.081 305.268 182.526 306.429 182.725C307.59 182.925 308.779 182.874 309.919 182.577C310.73 182.353 311.482 181.95 312.117 181.397C312.752 180.845 313.256 180.157 313.59 179.384C313.911 178.481 314.022 177.517 313.913 176.565C313.805 175.613 313.481 174.698 312.965 173.891C312.565 173.144 311.999 172.499 311.31 172.005C310.621 171.511 309.829 171.181 308.993 171.041C308.102 170.929 307.2 171.136 306.447 171.625C305.693 172.114 305.137 172.853 304.877 173.713C304.567 174.907 305.188 175.871 306.605 176.457C306.821 176.571 306.988 176.761 307.073 176.991C307.157 177.22 307.154 177.473 307.063 177.7C306.973 177.928 306.801 178.113 306.582 178.222C306.362 178.33 306.11 178.353 305.875 178.287C304.828 177.985 303.939 177.288 303.397 176.343C302.854 175.398 302.7 174.279 302.967 173.222C303.358 171.911 304.196 170.779 305.335 170.021C306.475 169.264 307.843 168.93 309.204 169.076C310.36 169.256 311.458 169.706 312.408 170.39C313.358 171.073 314.134 171.972 314.671 173.012C315.341 174.088 315.755 175.304 315.878 176.565C316.002 177.827 315.833 179.101 315.385 180.286C314.949 181.322 314.286 182.247 313.445 182.993C312.604 183.738 311.607 184.285 310.526 184.594C308.21 185.227 305.744 185.017 303.569 184.001Z" fill="#6CD4FE"/>
<path d="M272.792 212.838C271.435 212.216 270.243 211.287 269.309 210.123C268.032 208.707 267.071 207.035 266.488 205.219C265.904 203.404 265.713 201.485 265.926 199.59C266.499 195.613 269.13 191.803 273.354 188.861C273.563 188.714 273.822 188.655 274.074 188.696C274.327 188.738 274.553 188.876 274.704 189.083C274.842 189.295 274.894 189.552 274.851 189.801C274.808 190.05 274.672 190.274 274.471 190.428C270.702 193.069 268.377 196.365 267.867 199.819C267.698 201.447 267.875 203.093 268.386 204.648C268.897 206.203 269.731 207.633 270.834 208.843C273.82 212.521 278.703 212.186 281.979 210.308C283.182 209.557 284.196 208.539 284.943 207.334C285.689 206.128 286.148 204.767 286.285 203.355C286.299 202.73 286.13 202.113 285.8 201.582C285.469 201.05 284.991 200.626 284.424 200.362C282.909 199.543 279.963 199.96 278.979 201.487C278.381 202.42 278.488 203.237 280.802 204.884C280.907 204.958 280.997 205.053 281.066 205.162C281.134 205.271 281.181 205.392 281.203 205.519C281.225 205.647 281.221 205.777 281.192 205.902C281.164 206.028 281.111 206.147 281.036 206.252C280.962 206.358 280.867 206.447 280.758 206.516C280.649 206.585 280.528 206.631 280.401 206.653C280.273 206.675 280.143 206.671 280.017 206.643C279.892 206.614 279.773 206.561 279.668 206.487C278.381 205.583 275.375 203.448 277.314 200.426C278.895 197.966 283.053 197.374 285.377 198.648C286.254 199.077 286.992 199.747 287.505 200.578C288.019 201.41 288.286 202.369 288.277 203.346C288.311 206.815 285.554 210.554 282.983 212.027C281.472 212.963 279.758 213.525 277.986 213.666C276.213 213.807 274.432 213.523 272.792 212.838Z" fill="#6CD4FE"/>
<path d="M306.394 150.286C303.663 149.046 301.413 145.121 301.046 142.894C300.361 139.419 303.13 136.455 304.68 134.896C304.859 134.706 305.106 134.594 305.366 134.586C305.627 134.578 305.881 134.674 306.071 134.853C306.261 135.032 306.372 135.279 306.38 135.539C306.388 135.8 306.292 136.053 306.114 136.244C304.391 138.087 302.585 140.241 303.031 142.548C303.478 144.855 306.027 148.538 308.003 148.725C308.265 148.749 308.506 148.877 308.674 149.08C308.842 149.283 308.922 149.544 308.897 149.806C308.872 150.068 308.745 150.309 308.542 150.477C308.339 150.645 308.078 150.725 307.816 150.7C307.321 150.647 306.84 150.507 306.394 150.286Z" fill="#6CD4FE"/>
<path d="M311.642 124.361C316.76 123.988 325.14 116.115 328.045 109.178C330.95 102.242 335.455 96.9897 339.587 100.318C343.719 103.647 350.255 129.31 317.618 134.81C308.868 129.573 311.642 124.361 311.642 124.361Z" fill="#FBD094"/>
<path d="M340.408 101.287C337.343 115.188 324.915 124.24 311.393 127.847C311.854 129.769 313.379 132.29 317.606 134.835C348.087 129.704 344.392 106.986 340.408 101.287Z" fill="#F26C71"/>
<path d="M304.109 107.342L290.26 53.7031L279.691 110.976C281.515 112.372 283.617 113.362 285.855 113.878C288.093 114.395 290.416 114.426 292.667 113.97C297.1 113.063 301.117 110.736 304.109 107.342Z" fill="#F79042"/>
<path d="M283.721 88.9812L290.26 53.7031L300.924 94.9982C294.304 96.7934 288.068 93.626 283.721 88.9812Z" fill="#F7C442"/>
<path d="M286.253 75.3311L290.272 53.709L296.387 77.4254C294.693 78.1939 292.8 78.4051 290.979 78.0288C289.158 77.6524 287.503 76.7079 286.253 75.3311Z" fill="#F7E984"/>
<g style="mix-blend-mode:multiply" opacity="0.4">
<path d="M287.715 67.7676C289.505 82.9896 292.821 96.8009 301.683 109.679C299.054 111.835 295.936 113.313 292.603 113.984C290.352 114.44 288.029 114.408 285.791 113.892C283.553 113.376 281.451 112.386 279.627 110.99L287.715 67.7676Z" fill="#FBAA94"/>
</g>
<path d="M305.905 114.761C304.101 115.538 303.69 117.528 303.839 119.308C303.812 120.005 303.859 120.703 303.982 121.389C304.555 124.407 307.926 125.866 310.513 126.751C310.94 126.926 311.407 126.974 311.86 126.889C312.313 126.804 312.732 126.59 313.066 126.273C313.4 125.956 313.636 125.548 313.744 125.101C313.852 124.653 313.829 124.183 313.677 123.748C312.728 120.502 311.035 112.637 305.905 114.761Z" fill="#04D6A9"/>
<path d="M301.995 114.9C300.681 113.417 298.664 113.705 297.029 114.428C296.38 114.646 295.753 114.924 295.157 115.261C292.488 116.791 292.216 120.454 292.224 123.185C292.197 123.646 292.305 124.105 292.533 124.506C292.762 124.907 293.101 125.233 293.511 125.445C293.921 125.658 294.383 125.747 294.843 125.702C295.302 125.657 295.739 125.481 296.1 125.193C298.793 123.225 305.685 119.043 301.995 114.9Z" fill="#04D6A9"/>
<path d="M293.02 113.579C294.489 114.914 296.456 114.415 298.008 113.524C298.647 113.246 299.258 112.906 299.832 112.51C302.308 110.733 302.201 107.042 301.898 104.322C301.876 103.86 301.721 103.416 301.451 103.041C301.182 102.666 300.809 102.377 300.379 102.21C299.949 102.042 299.48 102.002 299.027 102.095C298.575 102.188 298.16 102.411 297.831 102.735C295.276 104.94 288.909 109.854 293.02 113.579Z" fill="#04D6A9"/>
<path d="M283.097 100.509C283.183 99.7931 283.045 99.0682 282.701 98.434C282.358 97.7999 281.827 97.2878 281.18 96.9682C280.588 96.1274 279.829 95.4171 278.951 94.8814C276.547 93.3686 274.063 93.9813 271.471 94.3851C270.527 94.532 269.678 95.0437 269.107 95.8102C268.536 96.5767 268.289 97.5366 268.419 98.4834C268.993 101.341 272.209 103.107 274.738 104.024C277.946 105.235 282.487 104.599 283.097 100.509Z" fill="#04D6A9"/>
<path d="M284.853 104.311C284.351 103.781 283.697 103.421 282.981 103.28C282.264 103.14 281.522 103.225 280.857 103.526C279.815 103.439 278.767 103.571 277.779 103.912C275.197 104.901 274.063 107.142 272.722 109.391C272.252 110.216 272.121 111.19 272.356 112.108C272.591 113.027 273.174 113.819 273.981 114.317C276.556 115.675 279.938 114.266 282.266 112.944C285.255 111.284 287.617 107.395 284.853 104.311Z" fill="#04D6A9"/>
<path d="M314.888 106.262C314.849 105.876 314.712 105.507 314.489 105.19C314.267 104.873 313.966 104.618 313.617 104.451C313.267 104.283 312.881 104.208 312.494 104.233C312.107 104.259 311.734 104.383 311.409 104.594C311.131 104.758 310.105 105.452 309.768 105.619C308.74 106.01 307.749 106.492 306.806 107.059C306.083 107.558 305.584 108.321 305.417 109.184C305.25 110.047 305.428 110.941 305.914 111.674C306.421 112.391 307.185 112.884 308.047 113.052C308.909 113.219 309.802 113.047 310.541 112.572L311.818 111.933C312.415 111.497 312.978 111.015 313.502 110.493C314.047 109.945 314.457 109.277 314.697 108.542C314.938 107.807 315.003 107.026 314.888 106.262Z" fill="#04D6A9"/>
<path d="M308.294 122.245C308.827 122.114 309.324 121.864 309.747 121.513C310.17 121.162 310.507 120.72 310.734 120.22C310.962 119.72 311.073 119.175 311.059 118.626C311.045 118.076 310.907 117.537 310.654 117.049L310.175 116.092C310.699 116.025 311.235 115.964 311.733 115.856C315.485 115.167 314.217 109.208 310.489 110.068C309.215 110.315 307.967 110.686 306.764 111.176C306.39 110.179 305.929 109.214 305.483 108.185C305.097 107.446 304.433 106.89 303.638 106.64C302.843 106.391 301.981 106.467 301.241 106.852C300.513 107.248 299.966 107.912 299.718 108.704C299.469 109.495 299.538 110.352 299.909 111.094C300.038 111.427 300.199 111.748 300.388 112.051C299.546 112.286 298.772 112.718 298.13 113.313C297.489 113.908 296.999 114.647 296.702 115.47C296.522 116.05 296.495 116.667 296.625 117.261C296.755 117.854 297.038 118.404 297.445 118.855C297.851 119.306 298.369 119.644 298.946 119.835C299.523 120.025 300.139 120.063 300.735 119.943C299.749 120.133 303.163 119.74 302.189 119.936L303.687 119.673C303.801 119.651 303.912 119.619 304.021 119.578C304.244 120.492 304.816 121.283 305.614 121.781C306.413 122.28 307.374 122.446 308.294 122.245Z" fill="#FEFE9F"/>
<path d="M288.159 95.8885C288.073 95.0796 287.679 94.3349 287.058 93.8095C286.437 93.2841 285.638 93.0186 284.826 93.0683C284.01 93.1298 283.252 93.5121 282.718 94.1315C282.183 94.7509 281.916 95.5568 281.975 96.3727C281.976 96.5742 281.94 96.7742 281.867 96.9621C281.271 96.5236 280.701 96.0513 280.159 95.5476C279.307 94.7397 277.645 93.9266 276.67 95.0507C275.695 96.1748 276.082 97.6857 276.559 98.9035C276.679 99.2253 276.817 99.54 276.973 99.8459L275.675 100.083C273.996 100.394 272.716 102.7 274.412 103.95C276.405 105.407 280.289 105.256 282.612 104.585C285.929 103.639 288.857 99.398 288.159 95.8885Z" fill="#FECB6C"/>
<path d="M296.318 117.69L296.449 117.401C296.573 117.192 296.673 116.971 296.749 116.74C296.79 116.666 296.824 116.59 296.853 116.511C297.014 115.899 296.984 115.253 296.766 114.658C296.302 113.513 295.589 112.486 294.68 111.65C295.28 111.438 295.856 111.165 296.4 110.835C296.905 110.502 297.334 110.065 297.657 109.553C297.981 109.041 298.191 108.466 298.274 107.866C298.357 107.267 298.311 106.656 298.14 106.075C297.968 105.495 297.674 104.958 297.278 104.5C296.882 104.042 296.393 103.673 295.844 103.42C295.294 103.166 294.696 103.032 294.091 103.028C293.486 103.024 292.886 103.149 292.333 103.395C291.78 103.641 291.285 104.002 290.883 104.454L290.52 104.71L289.701 105.267C289.375 104.7 289.119 104.096 288.936 103.468C288.778 102.978 288.517 102.528 288.171 102.147C287.824 101.766 287.4 101.464 286.927 101.261C286.453 101.058 285.942 100.958 285.427 100.969C284.913 100.98 284.406 101.101 283.942 101.324C283.478 101.547 283.067 101.867 282.737 102.262C282.406 102.657 282.165 103.118 282.028 103.615C281.891 104.111 281.861 104.631 281.942 105.14C282.023 105.648 282.211 106.134 282.495 106.563C282.958 107.365 283.518 108.106 284.162 108.772C282.4 109.326 280.885 110.473 279.872 112.017C279.603 112.56 279.48 113.164 279.514 113.769C279.549 114.374 279.74 114.96 280.069 115.469C280.397 115.979 280.853 116.394 281.39 116.674C281.928 116.954 282.529 117.09 283.134 117.069C285.294 116.947 286.006 115.762 287.496 114.494L287.551 114.374C288.425 115.888 289.436 117.319 290.571 118.649C292.355 120.504 295.11 119.55 296.318 117.69Z" fill="white"/>
<path d="M244.205 129.996C244.266 129.864 248.68 121.713 256.541 134.048C256.541 134.048 283.205 149.646 286.038 151.586C291.317 155.203 272.52 167.543 261.407 161.087C250.295 154.63 253.349 140.883 252.989 136.947C252.753 133.444 243.872 131.688 244.205 129.996Z" fill="#9C2356"/>
<path d="M272.536 160.354L270.428 143.565L266.305 141.431L268.989 160.657L272.536 160.354Z" fill="#E07F7F"/>
<path d="M276.614 159.493L273.569 145.66L272.093 144.438L274.333 160.329L276.614 159.493Z" fill="#E07F7F"/>
<defs>
<radialGradient id="paint0_radial_314_2353" cx="0" cy="0" r="1" gradientUnits="userSpaceOnUse" gradientTransform="translate(186.741 248.106) rotate(24.4347) scale(144.485 144.484)">
<stop stop-color="#89F5FE"/>
<stop offset="0.54" stop-color="#86F2FE"/>
<stop offset="0.93" stop-color="#7EE9FE"/>
<stop offset="1" stop-color="#7BE6FE"/>
</radialGradient>
<radialGradient id="paint1_radial_314_2353" cx="0" cy="0" r="1" gradientUnits="userSpaceOnUse" gradientTransform="translate(44361.9 42359.5) rotate(24.4347) scale(11079.4 12405.4)">
<stop stop-color="#89F5FE"/>
<stop offset="0.54" stop-color="#86F2FE"/>
<stop offset="0.93" stop-color="#7EE9FE"/>
<stop offset="1" stop-color="#7BE6FE"/>
</radialGradient>
<radialGradient id="paint2_radial_314_2353" cx="0" cy="0" r="1" gradientUnits="userSpaceOnUse" gradientTransform="translate(24800.9 37098.1) rotate(24.4347) scale(7311.62 14712.6)">
<stop stop-color="#89F5FE"/>
<stop offset="0.54" stop-color="#86F2FE"/>
<stop offset="0.93" stop-color="#7EE9FE"/>
<stop offset="1" stop-color="#7BE6FE"/>
</radialGradient>
<radialGradient id="paint3_radial_314_2353" cx="0" cy="0" r="1" gradientUnits="userSpaceOnUse" gradientTransform="translate(246.367 135.174) rotate(24.4347) scale(84.6012 84.6006)">
<stop stop-color="#F7CB7D"/>
<stop offset="0.21" stop-color="#F7C57C"/>
<stop offset="0.49" stop-color="#F7B57A"/>
<stop offset="0.8" stop-color="#F79B76"/>
<stop offset="1" stop-color="#F78673"/>
</radialGradient>
<radialGradient id="paint4_radial_314_2353" cx="0" cy="0" r="1" gradientUnits="userSpaceOnUse" gradientTransform="translate(47562.3 44005.1) rotate(24.4347) scale(11776.7 12702.7)">
<stop stop-color="#89F5FE"/>
<stop offset="0.54" stop-color="#86F2FE"/>
<stop offset="0.93" stop-color="#7EE9FE"/>
<stop offset="1" stop-color="#7BE6FE"/>
</radialGradient>
</defs>
</svg>
