<svg width="177" height="373" viewBox="0 0 177 373" fill="none" xmlns="http://www.w3.org/2000/svg">
<path d="M28.1943 303.784C31.1829 316 39.6575 339.602 39.2378 350.053C38.7363 362.599 46.8834 365.453 50.6089 355.813C53.4133 348.524 53.7305 297.788 49.6468 295.478C45.563 293.168 28.1943 303.784 28.1943 303.784Z" fill="#F7A366"/>
<path d="M50.608 355.814C51.3597 352.163 51.8725 348.466 52.1433 344.747C47.2612 355.249 43.3105 350.907 39.237 350.701C36.2382 358.709 39.3291 365.505 41.6218 359.941C43.7097 368.39 49.6153 360.783 50.608 355.814Z" fill="#CB423A"/>
<path d="M17.4062 251.96C9.88347 257.257 4.04954 299.564 22.8614 288.076C17.4369 303.26 25.0619 313.998 33.4443 307.582C32.0728 319.83 47.7733 317.396 49.4313 307.479C57.8956 312.961 63.2997 294.852 59.175 285.849C68.4786 286.372 65.3979 258.407 56.647 253.51C47.8961 248.613 17.4062 251.96 17.4062 251.96Z" fill="#FBCE4F"/>
<path d="M37.0991 282.359C36.0556 282.314 35.0327 282.054 34.094 281.595C33.1554 281.136 32.3213 280.487 31.6438 279.69C31.2392 280.605 30.5096 281.337 29.5968 281.743C28.4382 282.173 27.1813 282.262 25.9738 282C24.7663 281.739 23.6584 281.136 22.7804 280.265C21.9518 279.43 21.4068 278.355 21.2231 277.192C21.0393 276.029 21.2261 274.837 21.7569 273.787C21.8635 273.596 22.0367 273.452 22.2431 273.382C22.4495 273.312 22.6744 273.322 22.8743 273.409C23.0741 273.496 23.2348 273.654 23.3252 273.852C23.4156 274.051 23.4294 274.276 23.3637 274.485C22.9652 275.209 22.8135 276.045 22.9317 276.864C23.05 277.683 23.4317 278.441 24.0188 279.022C24.6505 279.649 25.444 280.087 26.31 280.286C27.176 280.486 28.0803 280.439 28.9213 280.152C29.4395 279.899 29.8633 279.487 30.1304 278.975C30.3975 278.463 30.4939 277.879 30.4054 277.308C30.3946 277.098 30.4604 276.892 30.5904 276.728C30.7204 276.563 30.9057 276.452 31.1116 276.415C31.3227 276.37 31.5428 276.404 31.7311 276.509C31.9193 276.615 32.0629 276.786 32.1351 276.99C32.9334 279.361 35.963 280.953 37.7746 280.552C38.8902 280.306 39.3712 279.31 39.187 277.616C39.1742 277.502 39.1839 277.387 39.2155 277.277C39.2472 277.166 39.3001 277.064 39.3714 276.974C39.4427 276.884 39.5309 276.81 39.631 276.754C39.731 276.699 39.841 276.664 39.9546 276.651C40.1834 276.636 40.4096 276.707 40.588 276.852C40.7663 276.997 40.8837 277.204 40.9167 277.431C41.193 280.008 40.1593 281.805 38.1533 282.256C37.8076 282.335 37.4534 282.37 37.0991 282.359Z" fill="#FBF597"/>
<path d="M37.5377 299.811H37.2614C34.9687 299.605 32.3998 296.813 32.6352 293.651C32.656 293.42 32.7664 293.207 32.9426 293.057C33.1187 292.907 33.3465 292.833 33.5768 292.85C33.6907 292.858 33.802 292.888 33.9041 292.94C34.0061 292.991 34.097 293.062 34.1713 293.149C34.2456 293.236 34.3019 293.337 34.3369 293.446C34.3719 293.555 34.3849 293.67 34.3751 293.784C34.2114 295.981 36.0946 297.952 37.4456 298.076C38.162 298.137 38.6533 297.521 38.7864 296.217C38.8122 295.987 38.9276 295.775 39.1077 295.629C39.2878 295.483 39.518 295.414 39.7485 295.437C39.9778 295.46 40.1885 295.574 40.3343 295.753C40.4801 295.932 40.5492 296.162 40.5263 296.392C40.2295 298.897 38.8478 299.811 37.5377 299.811Z" fill="#FBF597"/>
<path d="M107.524 303.917C109.623 312.643 112.069 338.822 112.069 344.407C112.069 352.62 118.711 353.811 122.304 347.251C128.762 335.557 128.138 305.529 124.013 296.228C119.888 286.927 107.524 303.917 107.524 303.917Z" fill="#F7A366"/>
<path d="M111.936 340.936C109.787 346.069 109.889 361.089 117.125 351.972C123.061 360.021 126.122 343.277 125.313 338.462C121.312 340.916 116.547 341.797 111.936 340.936Z" fill="#CB423A"/>
<path d="M92.0803 249.508C87.5053 262.946 84.1175 278.119 94.0249 282.719C89.4704 297.327 96.5223 310.694 105.509 305.674C108.753 313.527 120.421 321.073 127.299 305.828C141.239 303.99 146.929 285.295 139.325 277.185C142.211 273.674 134.023 251.366 125.16 249.795C116.296 248.224 92.0803 249.508 92.0803 249.508Z" fill="#EEB839"/>
<path d="M139.775 185.858C140.021 178.867 146.94 172.697 154.851 180.52C162.395 177.85 174.144 198.999 167.788 204.635C178.576 209.224 177 233.719 162.743 233.226C148.485 232.733 139.775 185.858 139.775 185.858Z" fill="#FBB43A"/>
<path d="M19.9547 100.956C14.4585 105.36 1.22469 127.34 11.4187 130.419C3.90625 138.047 4.83764 147.081 12.1045 147.03C5.19586 157.563 -0.525483 172.182 12.2989 177.634C-1.73321 187.633 -4.07701 210.824 6.91533 224.304C5.02418 227.732 4.31309 231.691 4.89225 235.566C5.47141 239.442 7.30848 243.017 10.1189 245.739C-0.760885 249.312 18.1431 274.988 32.8814 261.344C47.3946 282.677 121.547 266.477 134.914 265.799C148.281 265.122 160.44 259.229 162.118 248.717C163.797 238.204 161.873 209.079 153.664 197.468C145.456 185.857 134.903 174.277 101.21 173.322C101.732 162.819 93.022 159.976 88.928 159.401C93.2677 156.167 93.8203 152.081 87.1062 147.174C94.6391 143.334 92.2237 134.023 85.2434 127.668C93.0937 127.904 83.9641 109.312 75.8068 104.99C63.0336 98.235 19.9547 100.956 19.9547 100.956Z" fill="url(#paint0_radial_314_2159)"/>
<g style="mix-blend-mode:multiply" opacity="0.6">
<path d="M153.654 197.468C145.466 185.867 134.904 174.277 101.19 173.322C101.712 162.82 93.0018 159.976 88.9078 159.401C93.2475 156.167 93.8001 152.081 87.086 147.174C94.6189 143.335 92.2035 134.023 85.2233 127.669C93.0735 127.905 83.9439 109.313 75.7866 104.991C63.0441 98.2457 19.9652 100.966 19.9652 100.966C19.6724 101.205 19.3922 101.458 19.1259 101.726L18.9724 101.87C18.6858 102.157 18.3788 102.475 18.0717 102.835L17.9182 103.009C17.2427 103.779 16.5262 104.683 15.7996 105.699L15.7381 105.771C15.3595 106.294 14.9808 106.797 14.6123 107.393C14.6123 107.393 88.4575 84.0784 80.0239 132.032C78.939 132.032 77.8541 133.397 76.7692 134.003C82.7055 135.122 86.7073 141.189 83.5959 145.994C81.9625 147.555 80.0251 148.761 77.9053 149.535H78.3863C83.6368 153.005 83.7187 165.243 74.9985 165.304C81.9788 166.567 94.445 170.858 86.8711 182.274C93.5545 185.056 103.953 196.647 94.1993 203.217C106.839 204.244 97.9658 214.13 96.2463 215.886C103.227 215.886 108.528 221.019 106.788 228.061C106.788 231.562 101.579 231.593 99.8592 235.104C108.559 233.297 108.692 253.409 96.5124 258.716C98.7232 264.137 109.316 264.66 105.519 269.373C117.269 265.8 158.741 269.249 162.129 248.676C163.858 238.215 161.863 209.079 153.654 197.468Z" fill="#FBE37C"/>
</g>
<path d="M44.9177 168.568C44.7948 168.568 44.673 168.544 44.5595 168.496C42.5739 167.613 36.5353 164.944 37.5793 160.396C37.7104 159.672 38.0332 158.996 38.514 158.44C38.9948 157.884 39.6158 157.467 40.312 157.234C41.2699 156.945 42.2873 156.917 43.2597 157.152C42.039 155.224 41.3862 152.989 41.3765 150.705C41.3965 150.099 41.5557 149.506 41.8415 148.972C42.1273 148.438 42.532 147.977 43.0243 147.625C43.7601 147.173 44.5938 146.906 45.4546 146.847C46.3153 146.788 47.1775 146.939 47.9678 147.286C50.3934 148.169 52.5428 150.192 53.0852 152.091C53.1161 152.201 53.1251 152.317 53.1114 152.431C53.0978 152.545 53.062 152.655 53.0059 152.755C52.9498 152.855 52.8746 152.943 52.7846 153.014C52.6946 153.085 52.5916 153.138 52.4814 153.169C52.3712 153.2 52.2559 153.209 52.1423 153.195C52.0286 153.181 51.9188 153.145 51.819 153.089C51.7192 153.033 51.6314 152.958 51.5607 152.867C51.4899 152.777 51.4376 152.674 51.4067 152.563C51.0382 151.208 49.2778 149.617 47.3946 148.939C46.8633 148.699 46.284 148.586 45.7017 148.607C45.1194 148.628 44.55 148.784 44.0375 149.062C43.7603 149.266 43.5339 149.532 43.3759 149.838C43.2179 150.145 43.1326 150.483 43.1266 150.828C42.9219 153.374 45.0815 157.255 46.6679 158.795C46.8389 158.951 46.9409 159.17 46.9515 159.402C46.9621 159.634 46.8803 159.86 46.7242 160.032C46.5681 160.203 46.3505 160.306 46.1192 160.316C45.8879 160.327 45.6619 160.245 45.4909 160.088C44.8718 159.538 44.1323 159.142 43.3322 158.931C42.5321 158.721 41.6938 158.702 40.8852 158.877C40.4707 159.014 40.1026 159.264 39.8223 159.6C39.542 159.935 39.3607 160.343 39.2988 160.776C38.8177 162.829 40.7726 164.883 45.2862 166.874C45.47 166.954 45.6207 167.095 45.7129 167.273C45.805 167.452 45.833 167.656 45.7921 167.853C45.7512 168.05 45.644 168.226 45.4884 168.353C45.3328 168.479 45.1385 168.548 44.9382 168.548L44.9177 168.568Z" fill="#F2B445"/>
<path d="M54.9791 242.454C54.2017 242.465 53.4323 242.295 52.7323 241.955C52.0322 241.616 51.4208 241.117 50.9467 240.499C50.4726 239.881 50.1489 239.161 50.0014 238.395C49.8539 237.629 49.8866 236.839 50.097 236.089C47.3643 237.331 45.6755 236.838 44.6725 236.089C41.8476 233.871 42.5129 228.019 44.3245 223.513C44.41 223.298 44.5772 223.125 44.7893 223.034C45.0014 222.942 45.241 222.939 45.4555 223.025C45.6699 223.111 45.8416 223.278 45.9328 223.491C46.0239 223.704 46.0271 223.944 45.9416 224.159C44.1096 228.728 44.0277 233.399 45.7472 234.703C46.9447 235.637 49.1656 235.011 52.0007 232.937C52.1744 232.785 52.4015 232.708 52.6318 232.723C52.8621 232.738 53.0769 232.845 53.2289 233.019C53.3809 233.193 53.4577 233.421 53.4423 233.652C53.427 233.883 53.3208 234.099 53.147 234.251C52.551 234.766 52.1113 235.438 51.8778 236.191C51.6444 236.945 51.6267 237.749 51.8267 238.512C52.0145 239.075 52.352 239.577 52.8029 239.962C53.2538 240.347 53.801 240.602 54.3855 240.698C55.8798 240.945 57.456 240.164 58.6432 238.563C58.7282 238.449 58.8401 238.359 58.9688 238.3C59.0975 238.24 59.2389 238.214 59.3801 238.224C59.5233 238.23 59.6627 238.272 59.7859 238.346C59.9091 238.419 60.0123 238.522 60.0863 238.645C60.3922 239.189 60.839 239.641 61.3794 239.952C61.9198 240.262 62.5339 240.421 63.1568 240.411C63.8559 240.401 64.5408 240.212 65.1464 239.862C65.752 239.511 66.258 239.011 66.6162 238.409C66.6743 238.309 66.7515 238.222 66.8433 238.153C66.935 238.084 67.0396 238.033 67.151 238.004C67.2623 237.976 67.3782 237.97 67.492 237.986C67.6057 238.003 67.7151 238.042 67.8137 238.101C68.0103 238.222 68.1515 238.416 68.207 238.641C68.2626 238.865 68.2279 239.103 68.1105 239.302C67.6015 240.159 66.8834 240.871 66.0238 241.372C65.1643 241.873 64.1917 242.147 63.1978 242.166C62.4792 242.17 61.768 242.022 61.1102 241.732C60.4524 241.442 59.863 241.016 59.3801 240.483C58.817 241.092 58.1368 241.581 57.3805 241.919C56.6241 242.258 55.8073 242.44 54.9791 242.454Z" fill="#F2B445"/>
<path d="M26.1876 214.314C24.2635 214.314 22.9022 213.072 22.2881 210.772C19.5554 213.052 17.5596 211.799 16.9455 211.275C14.8985 209.53 14.1616 205.198 15.8196 201.759C13.179 201.985 10.7021 202.18 9.31019 200.588C8.2867 199.377 8.13317 197.406 8.85985 194.429C9.95499 189.912 15.2158 183.978 19.801 183.495C20.0275 183.476 20.2525 183.547 20.4277 183.692C20.6029 183.837 20.7144 184.046 20.7385 184.272C20.7626 184.499 20.6972 184.726 20.5565 184.905C20.4157 185.084 20.2107 185.201 19.9853 185.23C16.229 185.631 11.4902 190.979 10.5589 194.839C9.9857 197.201 10.0164 198.761 10.6407 199.49C11.4288 200.424 13.5372 200.239 15.7582 200.044C16.3007 200.044 16.8534 199.952 17.4163 199.921C17.5849 199.913 17.7523 199.953 17.8991 200.037C18.0459 200.12 18.166 200.244 18.2453 200.393C18.3212 200.543 18.3528 200.712 18.3365 200.879C18.3202 201.046 18.2566 201.206 18.1532 201.338C15.8503 204.233 16.444 208.637 18.0508 209.972C19.4837 211.163 21.2646 209.52 22.1448 208.432C22.2565 208.302 22.4038 208.208 22.5684 208.162C22.7329 208.116 22.9074 208.119 23.0701 208.171C23.2327 208.224 23.3763 208.323 23.483 208.457C23.5897 208.591 23.6547 208.754 23.6698 208.925C23.8336 210.69 24.4067 212.774 26.3309 212.6C26.5606 212.585 26.787 212.661 26.9625 212.81C27.1381 212.959 27.2492 213.171 27.2725 213.401C27.2823 213.515 27.2694 213.631 27.2346 213.74C27.1997 213.85 27.1435 213.952 27.0693 214.039C26.9951 214.127 26.9043 214.199 26.8022 214.252C26.7001 214.304 26.5886 214.336 26.4742 214.345L26.1876 214.314Z" fill="#F2B445"/>
<path d="M32.8001 237.587C29.8012 237.587 27.8873 234.938 26.9457 233.162C24.7861 235.082 23.1894 234.908 22.1762 234.364C19.7403 233.029 19.0136 228.306 19.8835 224.908C19.9406 224.684 20.0842 224.491 20.2828 224.373C20.4815 224.254 20.7189 224.22 20.9429 224.277C21.1668 224.334 21.3589 224.478 21.477 224.678C21.595 224.877 21.6293 225.115 21.5723 225.34C20.8252 228.255 21.5723 232.023 23.0154 232.824C24.1515 233.44 25.7277 231.992 26.567 231.078C26.6662 230.972 26.7901 230.892 26.9276 230.846C27.0651 230.799 27.2119 230.787 27.3551 230.811C27.4997 230.835 27.6358 230.896 27.7504 230.988C27.8651 231.079 27.9545 231.199 28.0101 231.335C28.4604 232.433 30.1901 235.986 32.9536 235.832C33.0685 235.822 33.1842 235.835 33.2936 235.872C33.403 235.908 33.5039 235.967 33.5901 236.044C33.6762 236.121 33.7459 236.214 33.7949 236.319C33.8438 236.424 33.871 236.537 33.8747 236.653C33.8831 236.768 33.8683 236.883 33.8314 236.992C33.7945 237.102 33.7362 237.202 33.6598 237.288C33.5835 237.374 33.4907 237.444 33.387 237.494C33.2833 237.543 33.1707 237.572 33.0559 237.577L32.8001 237.587Z" fill="#F2B445"/>
<path d="M24.6631 165.325C24.0926 165.343 23.526 165.225 23.01 164.981C22.494 164.736 22.0432 164.372 21.6949 163.919C20.7778 162.504 20.3865 160.81 20.5895 159.135C20.2759 159.358 19.918 159.512 19.5401 159.584C19.1622 159.657 18.7731 159.647 18.3993 159.556C17.0278 159.196 16.1066 157.636 15.8712 155.285C15.4823 151.343 17.1199 146.353 20.9887 144.434C21.0918 144.372 21.2065 144.333 21.3254 144.318C21.4444 144.303 21.5651 144.313 21.6801 144.348C21.795 144.382 21.9016 144.439 21.9933 144.517C22.085 144.595 22.1597 144.69 22.2127 144.798C22.2657 144.906 22.296 145.024 22.3016 145.144C22.3071 145.264 22.2879 145.384 22.245 145.496C22.2022 145.608 22.1366 145.711 22.0525 145.796C21.9684 145.882 21.8676 145.949 21.7563 145.994C18.6142 147.555 17.2632 151.856 17.5907 155.11C17.7647 156.825 18.3481 157.739 18.8189 157.872C19.2897 158.006 20.129 157.544 21.2548 155.942C21.3776 155.773 21.5569 155.653 21.7602 155.605C21.9634 155.558 22.177 155.585 22.3619 155.682C22.5469 155.779 22.6908 155.94 22.7676 156.134C22.8443 156.329 22.8486 156.545 22.7798 156.743C22.1043 158.642 22.0531 161.547 23.0562 162.851C23.2702 163.126 23.5547 163.337 23.8793 163.462C24.2039 163.587 24.5562 163.62 24.8985 163.559C25.1283 163.542 25.3558 163.615 25.5334 163.762C25.7109 163.91 25.8245 164.12 25.8503 164.35C25.8703 164.581 25.7989 164.811 25.6514 164.989C25.5039 165.168 25.2923 165.281 25.0622 165.305L24.6631 165.325Z" fill="#F2B445"/>
<path d="M72.0211 169.933C69.8513 169.933 67.6405 168.26 66.617 165.694C66.5589 165.484 66.5803 165.259 66.677 165.064C66.7737 164.869 66.939 164.717 67.1409 164.637C67.3429 164.556 67.5674 164.554 67.7711 164.63C67.9748 164.705 68.1434 164.854 68.2444 165.047C69.1655 167.387 71.1307 168.445 72.5124 168.127C73.8941 167.808 74.3649 166.474 74.2011 164.4C74.1896 164.213 74.2379 164.027 74.3389 163.869C74.44 163.711 74.5885 163.589 74.763 163.522C74.9375 163.454 75.1289 163.444 75.3094 163.493C75.49 163.542 75.6503 163.648 75.7671 163.794C76.2993 164.503 77.3023 165.622 78.029 165.211C79.4312 164.421 80.2295 159.708 79.3596 157.44C79.3066 157.331 79.2767 157.212 79.2718 157.092C79.2669 156.971 79.2872 156.85 79.3312 156.738C79.3752 156.625 79.4421 156.523 79.5276 156.438C79.6131 156.352 79.7153 156.286 79.8278 156.242C79.9402 156.199 80.0605 156.179 80.181 156.185C80.3014 156.19 80.4194 156.221 80.5274 156.274C80.6354 156.328 80.7312 156.404 80.8085 156.496C80.8859 156.589 80.9431 156.697 80.9767 156.813C82.0002 159.513 81.3963 165.314 78.9297 166.73C78.4471 167.006 77.8896 167.121 77.3377 167.058C76.7858 166.996 76.268 166.758 75.8592 166.381C75.7827 167.191 75.4583 167.957 74.9306 168.575C74.4029 169.192 73.6976 169.631 72.9115 169.831C72.6198 169.9 72.3209 169.935 72.0211 169.933Z" fill="#F2B445"/>
<path d="M78.7955 224.508C78.5622 224.508 78.3293 224.488 78.0995 224.447C74.7322 223.872 74.0055 219.817 73.4631 217.127C73.4017 216.809 73.3403 216.501 73.2891 216.223C73.2416 215.996 73.2861 215.759 73.4127 215.565C73.5394 215.37 73.7379 215.234 73.9646 215.187C74.1912 215.139 74.4275 215.184 74.6214 215.311C74.8152 215.438 74.9508 215.637 74.9983 215.864C75.0495 216.152 75.1109 216.47 75.1723 216.798C75.6124 219.149 76.1958 222.352 78.3963 222.722C78.8546 222.761 79.3158 222.698 79.7473 222.538C80.1789 222.379 80.5702 222.126 80.8936 221.798C81.5564 221.216 82.0975 220.508 82.4857 219.715C82.874 218.922 83.1017 218.06 83.1556 217.178C83.1515 217.064 83.1699 216.949 83.2099 216.842C83.2499 216.734 83.3106 216.636 83.3885 216.552C83.4665 216.468 83.5601 216.4 83.6642 216.353C83.7682 216.305 83.8806 216.279 83.9948 216.275C84.1109 216.265 84.2278 216.279 84.3381 216.317C84.4483 216.355 84.5495 216.415 84.6352 216.494C84.7209 216.574 84.7892 216.67 84.8357 216.777C84.8823 216.884 84.9062 217 84.9058 217.117C84.8596 218.258 84.5827 219.378 84.0918 220.409C83.601 221.439 82.9063 222.359 82.0502 223.112C81.17 223.958 80.0133 224.454 78.7955 224.508Z" fill="#F2B445"/>
<path d="M24.5712 49.039C17.8059 54.1721 8.19523 75.382 19.249 81.1413C30.3027 86.9006 61.6626 79.7041 61.6626 79.7041C61.6626 79.7041 74.7531 82.2501 77.0151 75.5257C79.277 68.8014 75.4082 51.0512 63.7608 47.92C52.1134 44.7888 26.8843 47.263 24.5712 49.039Z" fill="#FBEA64"/>
<path d="M25.1226 60.5173C20.7011 59.6653 12.0731 54.1626 10.067 43.65C6.39266 24.3804 21.2641 9.19675 29.8717 14.6173C39.5028 20.6743 25.01 27.4705 25.1636 39.328C25.2557 47.1405 28.1215 51.4318 28.1215 51.4318L25.1226 60.5173Z" fill="#FBD570"/>
<path d="M32.0823 16.4653C31.4518 15.7258 30.705 15.0947 29.8716 14.5968C23.8739 10.8394 14.8671 17.0607 11.1416 27.6759C12.0937 38.6131 16.5004 48.9602 23.7204 57.2117C15.7371 42.952 20.701 27.1831 32.0823 16.4653Z" fill="#FB5991"/>
<path d="M62.3176 52.6734C63.8017 49.3882 63.2286 34.6152 59.3802 26.5152C55.5319 18.4152 60.1171 11.1159 65.9306 12.4505C71.744 13.7851 86.7178 26.4639 77.6701 47.0373C68.6224 67.6107 65.8897 62.3647 65.8897 62.3647L62.3176 52.6734Z" fill="#FBD570"/>
<g style="mix-blend-mode:multiply" opacity="0.4">
<path d="M63.0553 45.2725C63.1269 48.6911 62.8608 51.4322 62.3184 52.6744L65.8801 62.3656C65.8801 62.3656 67.6508 65.7329 73.0446 56.401C70.3455 52.1673 66.9707 48.4077 63.0553 45.2725Z" fill="#FBC97F"/>
</g>
<path d="M69.0415 51.678C74.6602 46.6133 78.6235 39.965 80.4125 32.6034C79.5016 20.633 70.1776 13.4467 65.9301 12.4509C62.2864 11.5988 59.1341 14.1551 58.2334 18.1692C58.8168 19.5551 59.564 20.8692 60.1473 21.9984C67.1685 30.7042 74.2102 41.1551 69.0415 51.678Z" fill="#FB5991"/>
<path d="M42.4197 46.1658C49.9731 45.7756 66.871 51.9148 73.1246 70.6711C79.3782 89.4274 87.6173 126.622 52.1327 129.034C19.0226 131.283 13.3832 102.096 17.4055 81.738C21.4278 61.3802 27.6097 46.9152 42.4197 46.1658Z" fill="url(#paint1_radial_314_2159)"/>
<g style="mix-blend-mode:multiply" opacity="0.4">
<path d="M69.9629 63.6893C62.389 50.3433 48.9403 45.857 42.4206 46.2368C31.7968 46.7707 25.5944 54.3882 21.4492 66.1532C22.231 66.0683 23.0169 66.0271 23.8033 66.03C37.385 65.8658 58.8682 74.8897 69.9629 63.6893Z" fill="#FBB47F"/>
</g>
<path d="M58.2229 99.5489C53.4534 97.8344 50.5978 103.152 49.7892 104.887C49.2587 103.997 48.6416 103.161 47.947 102.393C47.2382 101.54 46.3104 100.898 45.2641 100.536C44.2178 100.174 43.0928 100.106 42.0107 100.339C40.4243 100.699 38.9402 101.951 39.1961 103.635C39.2677 104.087 41.7036 101.366 44.6308 103.163C45.9094 104.014 46.8592 105.278 47.3226 106.745C48.0493 108.912 50.2601 116.149 44.0884 116.755C37.3333 117.422 37.016 112.649 37.5789 110.421C33.485 111.324 34.795 116.96 39.0835 118.326C41.3966 119.055 44.6513 120.03 49.1035 116.509C50.6285 118.182 54.5485 119.065 55.8586 117.248C55.9916 117.053 53.7092 116.827 53.1156 116.488C49.9632 114.753 50.6899 109.302 51.4371 107.095C52.9825 102.567 54.2722 102.136 56.094 101.376C57.445 100.822 59.8809 102.064 59.9321 101.941C60.5052 100.781 59.2463 99.9082 58.2229 99.5489Z" fill="#EB6849"/>
<g style="mix-blend-mode:color-dodge" opacity="0.3">
<path d="M55.1538 88.0408C53.3575 87.59 51.5308 87.2709 49.6883 87.086C47.6761 87.0787 45.6825 87.4731 43.8237 88.2461C42.395 88.6974 41.1703 89.6387 40.3643 90.9051C40.2317 91.1349 40.1484 91.3899 40.1197 91.6538C40.0909 91.9178 40.1173 92.1848 40.1973 92.438C40.2772 92.6911 40.4089 92.9247 40.5839 93.1239C40.759 93.3231 40.9735 93.4834 41.2138 93.5948C42.8616 94.2005 44.8063 92.7016 46.4848 92.5682C49.1357 92.291 51.1212 93.3895 53.4957 94.2518C57.3748 95.607 59.2478 88.78 55.1538 88.0408Z" fill="#FBE55A"/>
</g>
<g style="mix-blend-mode:color-dodge" opacity="0.2">
<path d="M61.0682 76.6464C60.362 79.8597 59.2976 85.3316 61.6618 89.9924C64.0261 94.6532 71.6921 95.916 78.1811 92.5897C77.5793 87.6294 76.6041 82.7219 75.2641 77.9091C74.4654 76.6104 73.5507 75.3871 72.5314 74.2544C68.4579 69.9015 61.9177 72.776 61.0682 76.6464Z" fill="#FB584D"/>
</g>
<g style="mix-blend-mode:color-dodge" opacity="0.2">
<path d="M31.8794 80.1879C28.4302 71.975 20.099 74.6442 18.0929 78.2373C17.8371 79.3871 17.6017 80.5472 17.3662 81.7381C16.5505 85.9096 16.18 90.1563 16.2609 94.4065C18.9527 97.6506 24.7149 97.2605 28.5428 95.5153C32.9848 93.462 35.4207 88.6164 31.8794 80.1879Z" fill="#FB584D"/>
</g>
<path d="M31.1412 67.0158C30.8364 66.6111 30.4244 66.3003 29.9521 66.1189C29.4799 65.9374 28.9663 65.8925 28.4699 65.9892C27.7294 66.153 27.0206 66.4373 26.3717 66.8311C26.2891 66.8632 26.2148 66.9137 26.1545 66.979C26.0943 67.0442 26.0496 67.1223 26.024 67.2074C25.9983 67.2925 25.9924 67.3824 26.0065 67.4701C26.0206 67.5579 26.0546 67.6413 26.1056 67.7139C26.4666 68.1528 26.9359 68.4891 27.4669 68.6892C27.7535 68.8022 28.04 68.8946 28.3164 69.028C28.4862 69.1399 28.6783 69.2135 28.8793 69.2436C29.2785 69.3565 28.8793 69.2436 28.8793 69.2436C30.2201 70.3421 32.308 68.4531 31.1412 67.0158Z" fill="#EE5337"/>
<path d="M65.879 67.1811C65.6217 66.8173 65.2573 66.5434 64.8369 66.398C64.4166 66.2525 63.9613 66.2428 63.5352 66.37C63.0724 66.4358 62.6321 66.6119 62.251 66.8833C61.8699 67.1548 61.5593 67.5139 61.3449 67.9305C61.2046 68.26 61.2001 68.6319 61.3325 68.9647C61.4648 69.2976 61.7232 69.5643 62.0511 69.7065C62.5037 69.8955 62.9985 69.9593 63.484 69.8913C63.9343 69.7989 64.3028 69.8913 64.7634 69.7989C65.0446 69.7564 65.3103 69.6425 65.5352 69.468C65.7602 69.2935 65.937 69.0643 66.0488 68.802C66.1605 68.5397 66.2036 68.2531 66.1739 67.9694C66.1442 67.6857 66.0427 67.4143 65.879 67.1811Z" fill="#EE5337"/>
<path d="M28.6125 82.7744C27.1592 83.8832 26.5655 85.6592 24.7233 86.3368C22.6763 87.0965 20.8647 84.8276 19.8412 83.3698C19.7112 83.1715 19.5216 83.0198 19.3 82.9367C19.0784 82.8535 18.8362 82.8432 18.6083 82.9072C18.3804 82.9712 18.1788 83.1062 18.0324 83.2927C17.8861 83.4792 17.8026 83.7076 17.7942 83.9448C17.7557 84.7286 17.8743 85.5123 18.1429 86.2495C18.4115 86.9866 18.8247 87.6622 19.3581 88.2365C19.8914 88.8107 20.5341 89.2719 21.2482 89.5927C21.9623 89.9136 22.7333 90.0876 23.5155 90.1045C26.586 90.0018 30.5674 87.3634 30.7926 84.0371C30.7926 83.7812 30.7255 83.5298 30.598 83.3082C30.4704 83.0865 30.287 82.9024 30.066 82.7745C29.8451 82.6465 29.5944 82.5791 29.3393 82.5791C29.0841 82.5791 28.8335 82.6464 28.6125 82.7744Z" fill="#D6406D"/>
<path d="M75.4281 80.9772C75.3623 80.7654 75.2436 80.5739 75.0834 80.4209C74.9231 80.2679 74.7266 80.1585 74.5124 80.103C74.2982 80.0475 74.0734 80.0477 73.8593 80.1037C73.6452 80.1597 73.4489 80.2695 73.289 80.4229C71.5286 81.8293 71.5798 84.3651 68.8163 84.632C67.0252 84.8065 65.0908 82.281 63.9445 81.2134C63.933 81.1984 63.9183 81.1864 63.9014 81.1781C63.8846 81.1697 63.8661 81.1654 63.8473 81.1654C63.8285 81.1654 63.81 81.1697 63.7931 81.1781C63.7763 81.1864 63.7615 81.1984 63.75 81.2134C61.703 84.016 65.9608 87.3731 68.4172 87.7324C71.7435 88.3278 76.3083 84.5191 75.4281 80.9772Z" fill="#D6406D"/>
<path d="M22.3391 93.0298C22.2243 93.0258 22.1115 92.9989 22.0073 92.9506C21.9031 92.9023 21.8096 92.8335 21.7324 92.7483C21.6551 92.6632 21.5956 92.5633 21.5574 92.4548C21.5192 92.3462 21.5031 92.231 21.51 92.1161V91.5412C21.4624 90.4355 21.6257 89.331 21.9911 88.2868C22.0384 88.182 22.1061 88.0878 22.1902 88.0097C22.2743 87.9316 22.3732 87.8712 22.481 87.832C22.5887 87.7928 22.7032 87.7756 22.8177 87.7814C22.9322 87.7872 23.0444 87.8159 23.1476 87.8659C23.3548 87.966 23.5146 88.1434 23.5931 88.3602C23.6715 88.5769 23.6622 88.8159 23.5672 89.0259C23.323 89.8584 23.2158 90.7254 23.25 91.5925V92.1982C23.2461 92.3133 23.2192 92.4264 23.171 92.5309C23.1229 92.6354 23.0543 92.7292 22.9694 92.8067C22.8845 92.8842 22.785 92.9439 22.6767 92.9822C22.5685 93.0205 22.4536 93.0367 22.3391 93.0298Z" fill="#D6406D"/>
<path d="M27.129 91.9838C27.0311 92.0042 26.9301 92.0042 26.8322 91.9838C26.63 91.9112 26.4617 91.7663 26.3596 91.5767C26.2576 91.3872 26.229 91.1665 26.2795 90.9572C26.1796 90.4235 26.0182 89.9032 25.7984 89.407C25.6337 89.0158 25.4935 88.6146 25.3788 88.2058C25.3245 87.9798 25.362 87.7415 25.4829 87.5432C25.6038 87.3449 25.7983 87.2029 26.0236 87.1484C26.2489 87.094 26.4866 87.1315 26.6843 87.2528C26.882 87.3741 27.0235 87.5692 27.0778 87.7952C27.1691 88.1441 27.2819 88.487 27.4156 88.8218C27.8884 89.6444 28.0722 90.6024 27.9376 91.5423C27.8593 91.6861 27.7414 91.8041 27.598 91.8824C27.4546 91.9607 27.2918 91.9959 27.129 91.9838Z" fill="#D6406D"/>
<path d="M17.6938 90.444H17.6221C17.4134 90.4384 17.2136 90.3577 17.0593 90.2166C16.905 90.0755 16.8064 89.8835 16.7816 89.6755C16.7567 89.4675 16.8073 89.2576 16.924 89.0839C17.0408 88.9102 17.2159 88.7845 17.4174 88.7296C17.5223 88.5888 17.618 88.4413 17.704 88.2882C18.0023 87.7006 18.46 87.2095 19.0243 86.8714C19.2333 86.772 19.4731 86.76 19.691 86.838C19.9088 86.916 20.0869 87.0776 20.186 87.2872C20.2851 87.4969 20.297 87.7374 20.2193 87.9559C20.1416 88.1744 19.9805 88.353 19.7715 88.4524C19.5329 88.6722 19.3353 88.933 19.1881 89.2224C18.8298 89.787 18.4204 90.4338 17.6938 90.444Z" fill="#D6406D"/>
<path d="M65.4996 89.4468C65.3496 89.4457 65.2023 89.4061 65.0719 89.3319C64.9414 89.2576 64.832 89.1512 64.7541 89.0226C64.6762 88.894 64.6323 88.7476 64.6266 88.5973C64.6209 88.4469 64.6537 88.2976 64.7217 88.1635C64.903 87.7874 65.0503 87.3957 65.1618 86.9932C65.2729 86.6173 65.4027 86.2473 65.5507 85.8844C65.647 85.673 65.8217 85.5075 66.0376 85.4232C66.2536 85.3388 66.4938 85.3423 66.7073 85.4327C66.9173 85.527 67.0816 85.701 67.1641 85.9165C67.2466 86.132 67.2406 86.3715 67.1474 86.5825C67.0246 86.8803 66.9222 87.1985 66.8199 87.527C66.6822 88.0294 66.4971 88.5176 66.2672 88.9848C66.1921 89.1236 66.0813 89.2397 65.9463 89.321C65.8113 89.4023 65.657 89.4457 65.4996 89.4468Z" fill="#D6406D"/>
<path d="M72.2341 90.0627C72.1663 90.0735 72.0973 90.0735 72.0294 90.0627C71.8768 90.0068 71.7397 89.9153 71.6293 89.7957C71.519 89.6761 71.4386 89.5318 71.3949 89.3749C71.3437 89.2547 71.3159 89.1257 71.313 88.995C71.1629 88.6871 70.9991 88.3791 70.8217 88.0711C70.6068 87.681 70.3918 87.2909 70.2178 86.8905C70.1604 86.7855 70.125 86.6698 70.114 86.5505C70.1031 86.4313 70.1167 86.311 70.154 86.1973C70.1914 86.0835 70.2517 85.9787 70.3312 85.8893C70.4107 85.8 70.5076 85.728 70.6161 85.6778C70.7245 85.6277 70.8421 85.6005 70.9615 85.5979C71.0808 85.5953 71.1995 85.6173 71.31 85.6627C71.4205 85.7081 71.5204 85.7758 71.6037 85.8616C71.687 85.9475 71.7518 86.0496 71.794 86.1616C71.968 86.5209 72.1625 86.8699 72.357 87.1882C72.6515 87.7073 72.918 88.2419 73.1553 88.7897C73.2157 88.9398 73.2334 89.1037 73.2063 89.2633C73.1792 89.4228 73.1084 89.5717 73.0018 89.6931C72.9053 89.8035 72.7875 89.8931 72.6556 89.9566C72.5237 90.0201 72.3803 90.0562 72.2341 90.0627Z" fill="#D6406D"/>
<path d="M76.3903 87.4861C76.1713 87.4875 75.9597 87.407 75.7967 87.2602C75.4747 86.9881 75.1326 86.741 74.7732 86.521C74.2207 86.189 73.7118 85.789 73.2584 85.3302C73.0996 85.1614 73.0142 84.9362 73.0209 84.7042C73.0242 84.5893 73.0501 84.4762 73.097 84.3714C73.1439 84.2665 73.2109 84.172 73.2942 84.0931C73.3776 84.0142 73.4756 83.9526 73.5826 83.9117C73.6897 83.8708 73.8038 83.8515 73.9183 83.8549C74.1496 83.8616 74.3687 83.9602 74.5275 84.129C74.8908 84.4885 75.2964 84.8022 75.7353 85.0633C76.1625 85.3307 76.5695 85.6292 76.9532 85.9564C77.0866 86.0733 77.1812 86.2282 77.2244 86.4005C77.2676 86.5728 77.2574 86.7542 77.1951 86.9204C77.1328 87.0867 77.0214 87.23 76.8757 87.331C76.7301 87.4321 76.5572 87.4862 76.3801 87.4861H76.3903Z" fill="#D6406D"/>
<path d="M18.2355 93.1019C17.5464 93.1014 16.8595 93.1806 16.1885 93.3381C16.1936 96.1052 16.4091 98.868 16.8333 101.602C17.3222 101.661 17.8148 101.685 18.3071 101.674C21.8791 101.674 24.7551 99.7133 24.7449 97.3316C24.7347 94.9498 21.7972 93.0711 18.2355 93.1019Z" fill="#FB738A"/>
<path d="M77.7722 89.498C77.1705 89.5265 76.5734 89.6195 75.9914 89.7752C72.5319 90.6889 70.2291 93.2965 70.8739 95.5859C71.5187 97.8752 74.7734 99.0045 78.2226 98.0806C78.3557 98.0469 78.4858 98.0023 78.6115 97.9471C78.5004 95.1165 78.2202 92.295 77.7722 89.498Z" fill="#FB738A"/>
<path d="M44.3545 40.8985C30.1381 33.7737 12.36 57.8684 19.8827 61.7388C27.4054 65.6091 31.1412 58.0327 33.7408 52.8483C31.8371 62.1905 40.588 66.5023 42.502 59.203C44.0986 66.0198 54.4973 70.3932 53.392 58.1148C55.8381 65.7529 68.2531 64.3669 65.1519 56.9445C67.9563 56.9445 74.0666 63.4224 72.8895 55.7125C71.7125 48.0027 63.4734 31.5973 44.3545 40.8985Z" fill="#FBEA64"/>
<g style="mix-blend-mode:multiply" opacity="0.6">
<path d="M72.8892 55.7121C72.211 51.7902 70.5955 48.0916 68.1811 44.9326C67.7548 46.5768 67.4571 48.2518 67.2907 49.9425C63.8415 55.2091 58.5705 49.9425 55.0702 48.2691C58.591 52.622 43.5968 59.49 34.1397 46.6471C32.4305 51.9033 27.2209 55.4349 23.7205 53.7102C23.0448 53.7011 22.3863 53.4954 21.8249 53.1182C21.2635 52.741 20.8234 52.2084 20.5579 51.5851C17.7945 56.0098 17.0678 60.2908 19.8824 61.7383C27.4051 65.6189 31.1409 58.0323 33.7405 52.8478C31.8368 62.1901 40.5877 66.5018 42.5016 59.2026C44.0983 66.0193 54.497 70.3927 53.3916 58.1144C55.8378 65.7524 68.2528 64.3665 65.1516 56.944C67.956 56.9748 74.0662 63.422 72.8892 55.7121Z" fill="#F5D291"/>
</g>
<path d="M58.6931 58.7509C58.2796 58.7442 57.8759 58.6234 57.5263 58.4018C57.3268 58.2847 57.1818 58.093 57.1233 57.8687C57.0647 57.6444 57.0974 57.4059 57.2141 57.2058C57.3309 57.0057 57.5221 56.8603 57.7457 56.8015C57.9693 56.7428 58.207 56.7756 58.4065 56.8927C58.6522 57.0364 58.7033 56.9953 58.734 56.9645C59.3891 56.3486 59.5017 53.5664 59.1434 52.8581C59.0556 52.6904 59.0246 52.4987 59.0549 52.3118C59.0853 52.1249 59.1755 51.9529 59.3119 51.822C59.4482 51.691 59.6234 51.608 59.8109 51.5857C59.9983 51.5633 60.188 51.6027 60.3512 51.698C61.8966 52.5912 63.2988 52.6322 64.179 51.8109C65.0592 50.9896 65.5096 49.1315 64.4349 46.8934C63.7867 45.6797 62.8852 44.6203 61.7919 43.7877C60.6986 42.955 59.4392 42.3686 58.0995 42.0683C56.698 41.6307 55.2199 41.4959 53.7627 41.6728C52.3055 41.8498 50.9023 42.3345 49.6454 43.095C49.454 43.2311 49.2166 43.2854 48.9853 43.2459C48.754 43.2065 48.5478 43.0765 48.4121 42.8845C48.2764 42.6925 48.2222 42.4544 48.2616 42.2224C48.3009 41.9904 48.4305 41.7836 48.6219 41.6474C50.0841 40.7409 51.7215 40.1559 53.4259 39.9311C55.1302 39.7064 56.8627 39.847 58.5089 40.3436C60.092 40.7097 61.5779 41.4137 62.8654 42.4075C64.1529 43.4013 65.2119 44.6617 65.9702 46.1029C67.2291 48.7413 66.9936 51.544 65.3254 53.0634C64.7478 53.5738 64.0442 53.9193 63.288 54.0638C62.5318 54.2082 61.7509 54.1464 61.0267 53.8847C61.1086 55.4246 60.8117 57.3341 59.8906 58.2068C59.5758 58.5355 59.1471 58.7304 58.6931 58.7509Z" fill="#F2B445"/>
<path d="M27.9993 55.188C27.8222 55.2032 27.6441 55.2032 27.4671 55.188C25.5122 54.8389 24.5194 52.6419 24.8265 50.8043C25.5429 46.3693 32.8711 42.3142 36.4124 41.883C36.526 41.8695 36.6411 41.8786 36.7512 41.9098C36.8612 41.9409 36.9641 41.9935 37.0539 42.0645C37.1437 42.1355 37.2187 42.2236 37.2746 42.3237C37.3305 42.4238 37.3662 42.5339 37.3796 42.6478C37.3931 42.7618 37.384 42.8772 37.353 42.9876C37.3219 43.098 37.2695 43.2012 37.1987 43.2913C37.1279 43.3814 37.0401 43.4566 36.9403 43.5127C36.8405 43.5687 36.7307 43.6045 36.6171 43.618C33.301 44.0184 27.0679 47.8579 26.5459 51.0815C26.4026 51.9644 26.8018 53.299 27.7741 53.4735C28.7464 53.648 30.0565 52.2108 30.8446 51.2457L31.0902 50.9583C31.2409 50.7827 31.4549 50.6743 31.6853 50.657C31.9156 50.6396 32.1434 50.7148 32.3184 50.8659C32.4935 51.017 32.6016 51.2317 32.6189 51.4627C32.6361 51.6938 32.5612 51.9222 32.4105 52.0978L32.1751 52.375C31.2233 53.4838 29.7904 55.1777 27.9993 55.188Z" fill="#F2B445"/>
<path d="M46.0435 58.2278C45.6567 58.2306 45.2735 58.1537 44.9176 58.0019C43.8695 57.4811 43.0601 56.5774 42.6557 55.4765C42.0543 55.8799 41.3234 56.0412 40.6087 55.9282C40.0351 55.8139 39.5047 55.5409 39.0778 55.1399C38.651 54.7389 38.3445 54.226 38.1933 53.6593C37.9521 52.6826 37.9499 51.6618 38.1869 50.684C38.4239 49.7062 38.8931 48.8004 39.5545 48.0437C39.6271 47.9548 39.7164 47.881 39.8174 47.8266C39.9184 47.7723 40.0291 47.7384 40.1432 47.727C40.2572 47.7156 40.3724 47.7268 40.4821 47.76C40.5919 47.7932 40.694 47.8477 40.7827 47.9205C40.8714 47.9934 40.945 48.083 40.9991 48.1843C41.0533 48.2856 41.0871 48.3966 41.0985 48.511C41.1099 48.6254 41.0987 48.7409 41.0656 48.851C41.0325 48.9611 40.9781 49.0635 40.9055 49.1525C40.4399 49.6817 40.1047 50.3132 39.9269 50.9962C39.7491 51.6791 39.7337 52.3944 39.882 53.0844C40.1072 53.7415 40.4757 54.1111 40.9055 54.2035C41.2054 54.2086 41.5014 54.1344 41.7637 53.9884C42.026 53.8425 42.2454 53.6298 42.3998 53.3719C42.4997 53.2355 42.6374 53.1317 42.7958 53.0733C42.9541 53.0149 43.1261 53.0045 43.2903 53.0434C43.4549 53.0828 43.6048 53.1684 43.7227 53.2902C43.8405 53.412 43.9213 53.565 43.9555 53.7312C44.02 54.271 44.2008 54.7903 44.4853 55.2529C44.7698 55.7156 45.1514 56.1107 45.6034 56.4107C45.8428 56.5011 46.1026 56.5231 46.3538 56.4742C46.605 56.4252 46.8377 56.3073 47.026 56.1335C47.1208 56.0694 47.2272 56.0247 47.3392 56.0019C47.4511 55.9791 47.5665 55.9787 47.6787 56.0006C47.7908 56.0225 47.8976 56.0664 47.9928 56.1297C48.088 56.193 48.1699 56.2746 48.2338 56.3696C48.3437 56.5591 48.3794 56.7828 48.334 56.9972C48.2886 57.2116 48.1653 57.4014 47.9881 57.5297C47.4244 57.9527 46.7468 58.196 46.0435 58.2278Z" fill="#F2B445"/>
<path d="M73.5752 305.827C75.3663 313.978 77.9046 341.902 75.3561 358.574C73.1249 373.163 83.4724 368.122 85.9902 363.605C91.4352 353.852 95.0891 333.207 93.3798 313.301C90.8416 284.145 73.5752 305.827 73.5752 305.827Z" fill="#FBA068"/>
<path d="M75.326 358.574C71.0478 371.14 75.6228 375.78 78.6933 368.902C82.3779 378.203 88.1708 359.96 89.5219 354.816C85.3153 359.826 79.072 361.027 75.4283 357.578C75.4212 357.912 75.387 358.245 75.326 358.574Z" fill="#CB423A"/>
<path d="M55.9404 255.945C48.9499 264.158 45.7975 284.146 61.4672 281.128C53.9855 291.959 59.0415 311.752 69.4505 302.061C66.0423 315.786 72.4493 317.203 78.2321 312.214C81.5277 327.613 107.033 317.86 105.764 300.675C115.078 302.656 118.742 285.142 111.127 276.149C121.884 275.502 120.769 236.111 95.2733 249.138C92.2028 244.529 75.919 244.457 74.6601 252.331C68.7443 247.342 59.3281 251.992 55.9404 255.945Z" fill="#FBEA64"/>
<g style="mix-blend-mode:multiply" opacity="0.6">
<path d="M104.71 246.539C111.199 255.696 103.441 268.591 93.0829 270.151C98.313 270.151 100.073 273.601 101.844 277.091C105.385 285.817 96.7265 294.616 87.9859 292.922C89.7463 294.657 91.5067 298.147 89.777 299.903C84.5777 305.179 75.8779 306.986 70.6069 301.771C70.6069 300.026 67.0964 298.301 68.8261 294.79C66.2159 297.569 62.7668 299.409 59.0107 300.026C60.7712 304.615 64.4967 306.678 69.4504 302.079C66.0422 315.805 72.4492 317.222 78.232 312.232C81.5276 327.632 107.033 317.879 105.764 300.693C115.078 302.675 118.742 285.16 111.127 276.167C120.349 275.592 120.82 246.621 104.71 246.539Z" fill="#F5D291"/>
</g>
<path d="M72.0918 276.95C71.1636 276.909 70.2887 276.503 69.6559 275.821C68.7524 274.91 68.1518 273.741 67.9364 272.474C67.3684 273.014 66.6809 273.412 65.9303 273.635C65.1796 273.858 64.3871 273.9 63.6172 273.757C61.2223 273.254 59.2367 270.852 58.6738 267.782C58.336 266.12 58.5197 264.394 59.1996 262.84C59.8795 261.287 61.0223 259.983 62.4709 259.108C62.6668 258.984 62.9033 258.942 63.1294 258.992C63.3554 259.042 63.5528 259.18 63.6787 259.374C63.8005 259.571 63.8399 259.807 63.7881 260.032C63.7363 260.257 63.5975 260.453 63.4023 260.576C62.2507 261.269 61.3424 262.305 60.8033 263.539C60.2642 264.773 60.1209 266.145 60.3932 267.464C60.8231 269.805 62.2867 271.694 63.9755 272.043C65.4288 272.351 66.8924 271.468 68.2127 269.507C68.3298 269.332 68.5057 269.204 68.7085 269.148C68.9113 269.091 69.1276 269.109 69.3181 269.199C69.5029 269.288 69.6498 269.441 69.7324 269.629C69.815 269.817 69.8278 270.029 69.7684 270.226C69.5512 270.98 69.5391 271.778 69.7335 272.538C69.9279 273.298 70.3216 273.992 70.8738 274.548C71.0357 274.759 71.2483 274.925 71.4918 275.031C71.7353 275.137 72.0016 275.179 72.2658 275.154C72.6342 275.03 72.931 274.466 73.0641 273.603C73.0827 273.488 73.124 273.377 73.1857 273.277C73.2474 273.178 73.3283 273.092 73.4236 273.024C73.5188 272.956 73.6266 272.908 73.7406 272.882C73.8546 272.856 73.9726 272.854 74.0876 272.874C74.3193 272.915 74.5258 273.045 74.662 273.237C74.7981 273.43 74.8529 273.668 74.8143 273.901C74.5072 275.882 73.5758 276.591 72.8492 276.837C72.6041 276.914 72.3486 276.952 72.0918 276.95Z" fill="#F2B445"/>
<path d="M87.0555 289.709C86.3001 289.703 85.5619 289.483 84.9266 289.073C83.0946 287.913 82.1018 285.408 82.2656 282.4C82.2664 282.284 82.2913 282.17 82.3386 282.064C82.3859 281.959 82.4546 281.865 82.5403 281.787C82.6261 281.71 82.7269 281.652 82.8364 281.616C82.946 281.58 83.0618 281.567 83.1765 281.578C83.2908 281.584 83.4029 281.611 83.5064 281.66C83.61 281.709 83.7029 281.778 83.7799 281.863C83.8569 281.948 83.9165 282.047 83.9552 282.155C83.9939 282.263 84.011 282.377 84.0055 282.492C83.8724 284.864 84.5684 286.773 85.858 287.625C86.1573 287.826 86.5042 287.944 86.8636 287.968C87.2231 287.991 87.5823 287.919 87.905 287.759C89.0206 287.153 89.6859 285.572 89.7166 283.416C89.7166 283.221 89.7815 283.032 89.9009 282.879C90.0203 282.726 90.1873 282.617 90.3756 282.569C90.5638 282.522 90.7624 282.54 90.9397 282.619C91.117 282.698 91.2629 282.834 91.3542 283.005C92.4698 285.059 93.9539 285.993 94.7317 285.777C95.2742 285.623 95.8269 284.658 95.7552 282.43C95.7483 282.316 95.7644 282.2 95.8026 282.092C95.8408 281.983 95.9003 281.883 95.9776 281.798C96.0548 281.713 96.1483 281.644 96.2525 281.596C96.3567 281.548 96.4695 281.521 96.5842 281.517C96.7007 281.505 96.8182 281.518 96.9292 281.556C97.0401 281.593 97.142 281.653 97.228 281.733C97.314 281.812 97.3823 281.909 97.4284 282.017C97.4744 282.125 97.4972 282.241 97.4952 282.359C97.6692 286.188 96.1441 287.194 95.223 287.492C93.9436 287.841 92.4698 287.184 91.1904 285.788C91.0546 286.516 90.7676 287.208 90.3479 287.818C89.9283 288.428 89.3854 288.943 88.7545 289.329C88.2251 289.586 87.6435 289.716 87.0555 289.709Z" fill="#F2B445"/>
<path d="M139.007 294.77C139.478 300.458 137.82 343.545 135.855 348.575C130.922 361.172 142.477 354.683 146.868 349.817C156.386 339.264 158.761 317.828 159.508 296.834C160.757 261.343 139.007 294.77 139.007 294.77Z" fill="#FBA068"/>
<path d="M136.714 343.957C127.103 362.005 134.299 362.077 139.713 356.677C144.462 366.492 149.671 348.084 151.626 342.849C149.365 344.093 146.863 344.836 144.29 345.027C141.718 345.219 139.134 344.854 136.714 343.957Z" fill="#CB423A"/>
<path d="M165.874 247.824C174.001 245.771 175.822 257.382 169.159 261.797C176.754 267.576 182.096 284.742 167.256 281.631C176.314 290.029 167.716 308.446 155.506 308.518C143.296 308.59 128.179 306.064 128.138 299.361C122.631 302.605 114.106 287.503 123.092 283.366C118.998 280.769 113.696 267.967 125.016 265.575C123.819 260.329 127.268 254.775 133.685 257.649C133.92 248.902 142.027 244.18 148.423 244.149C153.858 231.286 168.76 242.845 165.874 247.824Z" fill="#FBD354"/>
<g style="mix-blend-mode:color-dodge" opacity="0.3">
<path d="M131.823 285.932C124.515 278.11 130.011 274.28 131.751 274.27C129.991 270.79 127.944 269.045 129.704 265.544C133.164 260.277 136.674 263.747 140.164 265.472C137.585 259.107 135.948 252.629 139.305 247.26C137.626 248.43 136.246 249.98 135.277 251.785C134.308 253.59 133.776 255.599 133.727 257.649C127.309 254.775 123.86 260.329 125.058 265.575C113.738 267.977 119.05 280.769 123.133 283.366C114.147 287.472 122.673 302.605 128.179 299.361C128.179 302.266 131.035 304.381 135.241 305.839C135.415 302.605 124.003 289.772 131.823 285.932Z" fill="#FBE115"/>
</g>
<path d="M147.206 279.536C146.426 279.535 145.651 279.425 144.903 279.207C143.289 278.745 141.847 277.818 140.755 276.54C139.663 275.262 138.97 273.691 138.762 272.021C138.741 271.906 138.744 271.787 138.769 271.673C138.795 271.559 138.843 271.45 138.911 271.355C138.978 271.259 139.064 271.178 139.163 271.116C139.263 271.054 139.373 271.013 139.488 270.994C139.72 270.956 139.958 271.011 140.15 271.147C140.342 271.284 140.472 271.491 140.512 271.723C140.676 273.064 141.23 274.326 142.106 275.353C142.982 276.379 144.14 277.123 145.435 277.493C147.328 278.037 149.232 277.708 150.082 276.713C150.357 276.28 150.503 275.778 150.503 275.265C150.503 274.752 150.357 274.25 150.082 273.818C150.007 273.64 149.993 273.443 150.043 273.256C150.093 273.07 150.204 272.906 150.358 272.791C150.52 272.671 150.718 272.611 150.92 272.621C151.121 272.63 151.313 272.708 151.463 272.842C151.903 273.347 152.48 273.713 153.123 273.895C153.766 274.077 154.448 274.068 155.086 273.869C155.806 273.553 156.43 273.055 156.899 272.423C157.367 271.791 157.663 271.047 157.758 270.265C157.854 269.704 157.788 269.127 157.569 268.601C157.35 268.076 156.985 267.624 156.519 267.299C156.425 267.231 156.344 267.146 156.282 267.047C156.22 266.948 156.179 266.838 156.159 266.724C156.14 266.609 156.143 266.491 156.169 266.378C156.194 266.264 156.242 266.157 156.31 266.061C156.377 265.966 156.462 265.886 156.56 265.824C156.659 265.762 156.768 265.72 156.883 265.7C156.997 265.681 157.114 265.684 157.228 265.71C157.341 265.736 157.448 265.784 157.543 265.851C158.276 266.353 158.852 267.054 159.203 267.872C159.555 268.69 159.668 269.591 159.528 270.471C159.394 271.57 158.973 272.615 158.308 273.5C157.643 274.385 156.758 275.078 155.741 275.511C154.621 275.93 153.384 275.904 152.282 275.44C152.301 276.343 151.991 277.222 151.412 277.914C150.868 278.471 150.211 278.905 149.485 279.185C148.759 279.465 147.982 279.584 147.206 279.536Z" fill="#F2B445"/>
<path d="M147.81 258.048C147.13 258.039 146.464 257.843 145.887 257.481C145.309 257.119 144.842 256.605 144.535 255.995C144.479 255.895 144.443 255.784 144.43 255.67C144.416 255.556 144.426 255.44 144.457 255.329C144.488 255.218 144.541 255.115 144.613 255.025C144.684 254.935 144.773 254.86 144.873 254.804C145.076 254.693 145.314 254.666 145.536 254.73C145.758 254.793 145.946 254.941 146.06 255.143C146.153 255.38 146.293 255.597 146.471 255.778C146.65 255.96 146.864 256.103 147.099 256.199C147.335 256.295 147.587 256.342 147.842 256.337C148.096 256.332 148.346 256.275 148.578 256.17C149.207 255.907 149.721 255.427 150.027 254.817C150.334 254.206 150.411 253.506 150.246 252.843C150.187 252.619 150.218 252.38 150.333 252.178C150.448 251.976 150.637 251.828 150.86 251.765C151.077 251.718 151.304 251.755 151.494 251.869C151.684 251.984 151.824 252.167 151.884 252.381C152.158 253.456 152.036 254.593 151.542 255.585C151.048 256.577 150.213 257.357 149.192 257.781C148.754 257.962 148.284 258.053 147.81 258.048Z" fill="#F2B445"/>
<path d="M143.02 299.463C142.822 299.473 142.624 299.473 142.426 299.463C139.919 299.186 137.994 297.091 137.135 293.724C137.076 293.499 137.109 293.261 137.226 293.06C137.343 292.86 137.535 292.715 137.759 292.656C137.983 292.598 138.221 292.631 138.421 292.748C138.62 292.866 138.765 293.058 138.823 293.282C139.499 295.952 140.87 297.533 142.621 297.717C144.668 297.933 146.899 296.29 148.25 293.611C148.353 293.404 148.534 293.247 148.753 293.174C148.971 293.101 149.21 293.117 149.417 293.221C149.624 293.326 149.781 293.51 149.853 293.731C149.926 293.952 149.909 294.193 149.806 294.401C148.219 297.512 145.609 299.442 143.02 299.463Z" fill="#F2B445"/>
<path d="M45.1434 186.35C24.9191 186.473 7.69366 179.061 3.49733 173.856C3.35351 173.678 3.24619 173.472 3.18147 173.252C3.11675 173.032 3.09591 172.801 3.12015 172.573C3.14438 172.344 3.21321 172.123 3.32271 171.921C3.43221 171.72 3.58024 171.542 3.75833 171.397C3.93642 171.253 4.14108 171.146 4.36065 171.081C4.58022 171.016 4.81039 170.995 5.03801 171.019C5.26563 171.043 5.48625 171.113 5.68727 171.222C5.88829 171.332 6.06578 171.481 6.20959 171.659C9.42337 175.643 25.6048 182.952 45.1024 182.849H45.256C59.6975 182.726 80.1879 178.394 95.7859 158.416C96.0817 158.083 96.4925 157.876 96.9351 157.836C97.3776 157.796 97.8187 157.927 98.1689 158.201C98.5191 158.475 98.7523 158.873 98.821 159.313C98.8898 159.753 98.789 160.203 98.5391 160.572C82.0813 181.648 60.4958 186.237 45.3174 186.35H45.1434Z" fill="#E5A748"/>
<path d="M48.6633 180.23C47.6398 179.132 41.0178 172.018 37.8143 174.553C35.7059 176.206 37.6301 192.807 39.9841 193.618C42.3381 194.429 48.1721 190.199 48.8885 188.32C49.605 186.442 48.6633 180.23 48.6633 180.23Z" fill="#FB6299"/>
<g style="mix-blend-mode:multiply" opacity="0.6">
<path d="M38.0205 189.193C38.563 191.585 39.2589 193.372 39.9856 193.618C42.3499 194.439 48.1736 190.199 48.89 188.321C49.1482 187.4 49.2417 186.441 49.1664 185.487C48.8586 185.487 48.5511 185.504 48.2452 185.539C44.8268 185.344 41.787 189.584 38.0205 189.193Z" fill="#EE83C6"/>
</g>
<path d="M54.232 180.067C54.713 178.486 61.7035 171.956 63.5765 174.153C65.4494 176.35 65.6234 190.435 64.1394 191.975C62.6553 193.515 54.2115 188.844 54.0477 187.705C53.884 186.565 54.232 180.067 54.232 180.067Z" fill="#FB6299"/>
<g style="mix-blend-mode:multiply" opacity="0.6">
<path d="M54.0164 185.106C53.9685 185.971 53.9685 186.839 54.0164 187.704C54.1802 188.843 62.665 193.514 64.1081 191.974C64.538 191.512 64.8246 189.921 64.9678 187.868C60.7613 188.063 57.4656 184.213 54.0164 185.106Z" fill="#EE83C6"/>
</g>
<g style="mix-blend-mode:multiply" opacity="0.7">
<path d="M47.1488 182.972C47.0743 182.973 47.0018 182.948 46.9441 182.9C46.3709 182.459 44.3751 181.052 42.5328 181.525C42.4446 181.546 42.3514 181.532 42.2737 181.485C42.1959 181.438 42.14 181.362 42.1183 181.273C42.0966 181.185 42.1108 181.091 42.1579 181.013C42.2049 180.935 42.2809 180.879 42.3691 180.857C44.4161 180.334 46.5552 181.73 47.3637 182.356C47.4346 182.413 47.4806 182.495 47.492 182.585C47.5035 182.675 47.4795 182.766 47.4252 182.839C47.3909 182.879 47.3486 182.912 47.3011 182.935C47.2535 182.958 47.2016 182.97 47.1488 182.972Z" fill="#EE83C6"/>
</g>
<g style="mix-blend-mode:multiply" opacity="0.7">
<path d="M47.5068 185.179C47.4374 185.178 47.3698 185.156 47.3123 185.117C46.6909 184.75 45.9863 184.549 45.2653 184.532C44.8074 184.535 44.3511 184.586 43.9041 184.686C43.7859 184.712 43.6696 184.747 43.5561 184.789C43.2887 184.894 43.0042 184.95 42.7168 184.953C42.672 184.953 42.6277 184.944 42.5866 184.926C42.5454 184.908 42.5084 184.882 42.4777 184.85C42.447 184.817 42.4233 184.778 42.4081 184.736C42.3929 184.694 42.3865 184.649 42.3893 184.604C42.3893 184.56 42.3981 184.516 42.4152 184.476C42.4323 184.435 42.4573 184.399 42.4888 184.368C42.5203 184.337 42.5577 184.313 42.5986 184.297C42.6395 184.282 42.6832 184.274 42.7271 184.275C42.9275 184.257 43.1241 184.208 43.3105 184.132C43.448 184.086 43.5881 184.048 43.7301 184.019C44.2317 183.893 44.7485 183.838 45.2653 183.855C46.1281 183.865 46.9725 184.106 47.7115 184.553C47.7751 184.592 47.8237 184.652 47.8499 184.722C47.876 184.793 47.8781 184.87 47.8559 184.941C47.8336 185.013 47.7883 185.075 47.7269 185.118C47.6656 185.161 47.5918 185.183 47.517 185.179H47.5068Z" fill="#EE83C6"/>
</g>
<g style="mix-blend-mode:multiply" opacity="0.7">
<path d="M55.3068 182.622H55.1942C55.1505 182.608 55.1101 182.586 55.0754 182.556C55.0406 182.526 55.0124 182.489 54.9923 182.447C54.9722 182.406 54.9606 182.361 54.9584 182.315C54.9562 182.269 54.9633 182.224 54.9793 182.18C55.4808 180.743 58.7765 179.573 59.9842 179.48C60.065 179.495 60.1382 179.537 60.191 179.6C60.2438 179.663 60.2727 179.742 60.2727 179.824C60.2727 179.907 60.2438 179.986 60.191 180.049C60.1382 180.112 60.065 180.154 59.9842 180.168C58.8174 180.25 55.8902 181.39 55.5729 182.406C55.5517 182.463 55.5159 182.513 55.4691 182.55C55.4223 182.588 55.3663 182.613 55.3068 182.622Z" fill="#EE83C6"/>
</g>
<g style="mix-blend-mode:multiply" opacity="0.7">
<path d="M55.501 184.285C55.4572 184.294 55.4118 184.294 55.368 184.285C55.3201 184.271 55.2759 184.246 55.2383 184.213C55.2008 184.18 55.1708 184.139 55.1504 184.093C55.13 184.047 55.1197 183.998 55.1201 183.948C55.1206 183.897 55.1318 183.848 55.1531 183.803C55.3782 183.217 56.5245 183.115 58.7251 183.146C58.8989 183.156 59.0732 183.156 59.247 183.146C59.4108 183.146 59.595 183.289 59.6053 183.474C59.608 183.519 59.6017 183.565 59.5866 183.608C59.5715 183.65 59.548 183.69 59.5174 183.723C59.4868 183.757 59.4499 183.784 59.4087 183.803C59.3675 183.822 59.323 183.832 59.2777 183.833H58.7148C56.9442 183.833 55.9616 183.895 55.7672 184.09C55.7449 184.144 55.7083 184.19 55.6613 184.225C55.6144 184.259 55.559 184.28 55.501 184.285Z" fill="#EE83C6"/>
</g>
<path d="M48.4893 188.434C47.6705 187.798 47.2202 181.915 47.3839 179.975C47.5477 178.034 54.6712 177.316 54.9169 179.626C55.1625 181.936 56.0529 187.233 54.8452 187.982C53.6375 188.732 49.4002 189.142 48.4893 188.434Z" fill="#FB9F91"/>
<g style="mix-blend-mode:multiply" opacity="0.6">
<path d="M48.2455 185.539C48.0582 185.523 47.8699 185.523 47.6826 185.539C47.7142 186.552 47.9917 187.542 48.4912 188.424C49.4021 189.132 53.6087 188.732 54.8471 187.972C55.3793 187.643 55.5021 186.432 55.4509 184.984C54.2535 184.902 48.8187 185.488 48.2455 185.539Z" fill="#EE83C6"/>
</g>
<path d="M43.8944 178.538C43.8447 178.538 43.7956 178.528 43.7498 178.509C43.7041 178.489 43.6628 178.461 43.6283 178.425C42.8714 177.719 41.9312 177.242 40.916 177.049C40.8307 177.023 40.7591 176.964 40.7169 176.885C40.6747 176.807 40.6653 176.714 40.6909 176.628C40.7027 176.585 40.7229 176.545 40.7505 176.509C40.7781 176.474 40.8124 176.444 40.8514 176.422C40.8905 176.4 40.9335 176.386 40.9779 176.381C41.0224 176.376 41.0675 176.38 41.1105 176.392C42.2636 176.614 43.3292 177.163 44.181 177.973C44.2128 178.005 44.2382 178.042 44.2554 178.084C44.2727 178.125 44.2816 178.17 44.2816 178.214C44.2816 178.259 44.2727 178.304 44.2554 178.345C44.2382 178.387 44.2128 178.424 44.181 178.456C44.1447 178.494 44.099 178.521 44.0487 178.536C43.9984 178.55 43.9451 178.551 43.8944 178.538Z" fill="white"/>
<path d="M39.2374 176.875H38.7359C38.6454 176.87 38.5605 176.829 38.4994 176.762C38.4382 176.695 38.4056 176.606 38.4084 176.516C38.4082 176.47 38.4175 176.424 38.4359 176.382C38.4542 176.34 38.4811 176.303 38.5149 176.272C38.5486 176.241 38.5885 176.217 38.6318 176.203C38.6752 176.188 38.7211 176.183 38.7666 176.187H39.309C39.3978 176.2 39.4782 176.246 39.5334 176.317C39.5887 176.388 39.6147 176.477 39.6059 176.567C39.602 176.611 39.5894 176.655 39.5687 176.694C39.5481 176.734 39.5198 176.769 39.4856 176.798C39.4513 176.826 39.4118 176.848 39.3692 176.861C39.3266 176.874 39.2818 176.879 39.2374 176.875Z" fill="white"/>
<path d="M57.077 178.793C57.0287 178.794 56.9807 178.785 56.9364 178.765C56.8922 178.746 56.8528 178.716 56.8211 178.68C56.7592 178.615 56.7246 178.528 56.7246 178.439C56.7246 178.349 56.7592 178.262 56.8211 178.197C57.6257 177.423 58.6343 176.896 59.7278 176.678C59.7726 176.669 59.8188 176.67 59.8633 176.681C59.9077 176.691 59.9493 176.711 59.9853 176.74C60.0213 176.768 60.0507 176.804 60.0716 176.844C60.0925 176.885 60.1044 176.93 60.1065 176.976C60.1122 177.021 60.1087 177.067 60.0962 177.111C60.0837 177.155 60.0624 177.196 60.0338 177.231C60.0051 177.267 59.9695 177.296 59.9293 177.317C59.889 177.339 59.8448 177.352 59.7995 177.356C58.862 177.554 57.9977 178.009 57.3022 178.67C57.2752 178.705 57.2413 178.734 57.2025 178.755C57.1638 178.776 57.121 178.789 57.077 178.793Z" fill="white"/>
<path d="M61.6211 176.771C61.5575 176.78 61.4925 176.771 61.4343 176.743C61.376 176.716 61.3271 176.672 61.2936 176.617C61.2719 176.578 61.2582 176.535 61.2531 176.491C61.2481 176.446 61.2519 176.401 61.2642 176.358C61.2766 176.315 61.2973 176.275 61.3252 176.24C61.3531 176.205 61.3876 176.176 61.4267 176.155C61.6631 176.031 61.9276 175.971 62.1943 175.981C62.2386 175.982 62.2823 175.992 62.3228 176.01C62.3633 176.028 62.3997 176.055 62.4302 176.087C62.4606 176.119 62.4843 176.157 62.5 176.199C62.5158 176.241 62.5232 176.285 62.5218 176.33C62.5191 176.42 62.4813 176.507 62.4163 176.57C62.3514 176.633 62.2644 176.668 62.1738 176.668C62.0281 176.66 61.883 176.692 61.7542 176.761C61.7112 176.774 61.6657 176.778 61.6211 176.771Z" fill="white"/>
<path d="M101.21 173.321C104.751 181.308 110.043 190.897 111.445 204.007C112.591 214.909 106.717 240.595 129.111 241.93C155.721 243.511 156.458 223.4 151.546 204.623C146.633 185.846 139.581 173.219 119.52 171.596C100.729 170.077 101.21 173.321 101.21 173.321Z" fill="#FB6089"/>
<path d="M139.142 179.544C137.473 177.966 135.609 176.609 133.595 175.509C140.534 190.364 119.839 188.968 111.446 171.197C109.543 171.197 107.977 171.197 106.718 171.341C115.643 187.767 114.906 224.099 119.276 230.341C124.394 237.619 137.341 237.363 140.769 230.341C150.073 216.173 146.624 195.662 139.142 179.544Z" fill="#FBDA59"/>
<path d="M138.844 223.36C145.62 203.259 140.533 190.364 133.594 175.509C129.222 173.217 124.414 171.884 119.49 171.598C116.266 171.341 113.636 171.218 111.445 171.197C119.838 188.968 115.693 205.579 122.878 225.793C124.945 231.614 136.009 231.829 138.844 223.36Z" fill="#8CE17B"/>
<path d="M130.891 219.181C139.171 218.483 135.609 187.941 129.765 173.804C126.471 172.599 123.027 171.856 119.53 171.597C118.067 171.484 116.736 171.392 115.508 171.33C124.668 185.354 117.084 220.372 130.891 219.181Z" fill="#71F3FB"/>
<path d="M125.62 172.573C123.832 172.145 122.016 171.846 120.186 171.68C125.395 183.116 126.183 207.344 129.315 208.699C134.77 211.071 129.305 184.615 125.62 172.573Z" fill="#70A5FB"/>
<path d="M117.36 244.374C117.504 244.98 117.657 244.918 117.36 244.374V244.374Z" fill="#55D0CE"/>
<path d="M154.042 242.003C154.236 242.33 154.339 242.31 154.042 242.003V242.003Z" fill="#55D0CE"/>
<path d="M37.8662 45.0461L45.5731 0.716797L53.9556 44.8613C51.3937 46.8635 48.1902 47.8567 44.9488 47.6537C42.3903 47.4707 39.9352 46.5668 37.8662 45.0461Z" fill="#FB5A80"/>
<path d="M39.6777 34.6157C41.7677 34.8278 43.8789 34.6074 45.8806 33.9681C47.8822 33.3289 49.7318 32.2844 51.3149 30.8993L45.5731 0.716797L39.6777 34.6157Z" fill="#FB9777"/>
<path d="M45.5732 0.716797L42.1445 20.4484C44.616 20.232 46.9439 19.191 48.7563 17.4917L45.5732 0.716797Z" fill="#FBC958"/>
<g style="mix-blend-mode:multiply" opacity="0.4">
<path d="M47.3026 9.85352C47.1184 22.7786 49.1142 35.5189 45.3887 47.6125C48.4798 47.7119 51.5089 46.7282 53.9553 44.8304L47.3026 9.85352Z" fill="#FB5A80"/>
</g>
<path d="M13.6912 81.4492C8.85006 82.1575 17.6317 97.0024 27.3856 96.2838C37.1395 95.5651 39.6675 85.0731 41.2744 82.4758C42.8813 79.8784 49.6671 79.9503 51.6526 83.0507C53.6382 86.1511 60.9665 95.5343 69.9323 93.5324C78.8981 91.5305 84.2612 78.9339 83.2377 76.9012C82.2142 74.8685 51.0795 77.9279 51.0795 77.9279C48.2546 75.7925 42.3593 76.0902 39.821 79.2727C39.8517 79.283 16.2602 81.0693 13.6912 81.4492Z" fill="#9C2356"/>
<path d="M20.0264 92.0443L27.109 81.193L30.6605 81.1006L22.3599 93.4508L20.0264 92.0443Z" fill="#E07F7F"/>
<path d="M17.5186 90.0848L24.2532 81.5741L25.6758 81.2354L18.7979 91.4296L17.5186 90.0848Z" fill="#E07F7F"/>
<path d="M57.5078 87.1488L58.6848 88.7811L65.1431 78.2891L63.6693 78.5355L57.5078 87.1488Z" fill="#E07F7F"/>
<path d="M59.6768 89.8482L61.7442 91.1315L69.8401 77.9395L66.4318 78.0421L59.6768 89.8482Z" fill="#E07F7F"/>
<defs>
<radialGradient id="paint0_radial_314_2159" cx="0" cy="0" r="1" gradientUnits="userSpaceOnUse" gradientTransform="translate(42.4912 143.328) rotate(-0.361098) scale(156.191 156.667)">
<stop stop-color="#FBEA64"/>
<stop offset="0.33" stop-color="#FBE564"/>
<stop offset="0.71" stop-color="#FBD864"/>
<stop offset="0.75" stop-color="#FBD664"/>
<stop offset="0.92" stop-color="#FBD36B"/>
<stop offset="1" stop-color="#FBD070"/>
</radialGradient>
<radialGradient id="paint1_radial_314_2159" cx="0" cy="0" r="1" gradientUnits="userSpaceOnUse" gradientTransform="translate(46.7658 74.8359) rotate(-0.361098) scale(65.1265 65.3251)">
<stop stop-color="#FBDF88"/>
<stop offset="0.21" stop-color="#FBD987"/>
<stop offset="0.48" stop-color="#FBC984"/>
<stop offset="0.79" stop-color="#FBAF80"/>
<stop offset="1" stop-color="#FB987C"/>
</radialGradient>
</defs>
</svg>
