<svg width="343" height="476" viewBox="0 0 343 476" fill="none" xmlns="http://www.w3.org/2000/svg">
<path d="M166.647 261.392C150.199 248.609 138.487 275.661 145.298 290.911C128.236 296.885 128.353 317.215 137.231 326.774C119.384 335.786 121.174 354.051 133.351 363.558C121.976 371.949 149.218 413.628 168.857 414.454C188.495 415.279 232.472 400.438 248.866 393.596C265.26 386.753 288.995 374.046 290.538 354.782C292.082 335.518 285.971 322.785 280.96 316.28C293.197 307.042 284.756 292.376 274.986 289.741C287.717 280.317 277.504 257.468 264.306 257.68C270.74 246.066 261.36 235.035 255.572 234.3C249.784 233.564 166.647 261.392 166.647 261.392Z" fill="#FB7E94"/>
<g style="mix-blend-mode:multiply" opacity="0.5">
<path d="M133.445 363.526C121.267 354.019 119.478 335.754 137.325 326.743C128.4 317.199 128.317 296.858 145.345 290.896C140.038 279.009 145.994 259.937 156.678 258.193C168.601 263.665 167.906 271.118 175.831 285.355C179.865 290.556 160.298 306.212 165.007 313.38C173.069 323.77 187.647 327.496 197.391 317.458C194.914 329.334 210.85 336.979 218.732 334.219C234.485 328.703 248.447 337.027 261.449 323.657C263.419 322.967 267.96 316.982 265.897 311.091C269.904 311.211 273.878 310.306 277.439 308.462C281 306.618 284.031 303.897 286.242 300.557C288.042 305.697 287.085 311.659 280.972 316.276C286.018 322.769 292.129 335.502 290.551 354.779C288.973 374.055 265.307 386.737 248.878 393.592C232.45 400.447 188.5 415.292 168.869 414.451C149.238 413.609 121.977 371.95 133.445 363.526Z" fill="#EB6AB7"/>
</g>
<g style="mix-blend-mode:multiply" opacity="0.5">
<path d="M243.283 260.633C242.222 256.674 244.533 251.715 249.254 251.67C255.135 251.634 259.295 248.686 259.254 242.399C259.252 242.023 259.25 241.57 259.243 241.106C257.982 240.527 256.95 239.548 256.306 238.322C255.663 237.095 255.444 235.69 255.685 234.325C255.978 234.373 256.267 234.44 256.55 234.528C256.721 234.577 256.889 234.635 257.053 234.702L257.432 234.855C257.929 235.084 258.409 235.35 258.868 235.648C262.418 237.947 264.96 241.505 265.98 245.604C267 249.704 266.422 254.039 264.365 257.738C265.193 257.728 266.019 257.808 266.829 257.977C273.028 259.217 278.216 265.374 280.098 272.236C280.963 275.226 281.086 278.382 280.456 281.434C279.955 283.692 278.903 285.793 277.393 287.55C277.08 286.722 276.849 285.864 276.705 284.99C275.908 279.188 273.777 273.65 270.48 268.81C268.452 265.694 265.77 263.573 264.288 260.306C261.773 262.319 258.862 263.78 255.744 264.595C253.17 272.109 244.255 275.931 235.377 273.84C235.097 273.777 234.837 273.644 234.623 273.454C234.409 273.263 234.247 273.022 234.152 272.752C234.058 272.481 234.034 272.191 234.082 271.909C234.131 271.626 234.251 271.361 234.43 271.137C235.962 269.045 243.835 262.58 243.283 260.633Z" fill="#FBA0C7"/>
</g>
<path d="M159.027 323.796C160.564 323.259 161.865 322.202 162.704 320.81C163.243 320.041 163.559 319.139 163.617 318.204C163.675 317.268 163.473 316.335 163.034 315.508C162.59 314.823 161.961 314.277 161.219 313.934C160.477 313.59 159.653 313.463 158.841 313.566C158.577 313.591 158.333 313.717 158.16 313.918C157.987 314.118 157.9 314.378 157.916 314.642C157.932 314.917 158.056 315.174 158.262 315.357C158.467 315.54 158.737 315.635 159.013 315.619C159.444 315.549 159.885 315.599 160.288 315.765C160.691 315.931 161.039 316.206 161.294 316.558C161.521 317.057 161.611 317.607 161.552 318.152C161.493 318.697 161.289 319.217 160.96 319.657C160.59 320.279 160.087 320.811 159.486 321.217C158.886 321.622 158.203 321.89 157.487 322.002C156.326 322.156 155.145 322.077 154.016 321.768C152.887 321.46 151.831 320.929 150.912 320.206C149.151 318.779 147.857 316.861 147.196 314.695C146.535 312.529 146.537 310.215 147.201 308.047C147.948 305.425 150.082 301.151 153.364 301.791C153.498 301.819 153.636 301.819 153.771 301.793C153.905 301.767 154.033 301.714 154.147 301.638C154.261 301.562 154.359 301.464 154.434 301.35C154.51 301.236 154.562 301.108 154.587 300.974C154.64 300.704 154.584 300.424 154.431 300.196C154.278 299.968 154.041 299.81 153.771 299.756C149.305 298.895 146.359 303.375 145.197 307.49C144.422 310.053 144.428 312.786 145.216 315.341C146.004 317.897 147.538 320.158 149.623 321.838C150.769 322.748 152.091 323.413 153.507 323.794C154.922 324.175 156.402 324.262 157.854 324.052C158.25 323.994 158.642 323.909 159.027 323.796Z" fill="#E03E60"/>
<path d="M145.739 344.866C145.943 344.799 146.121 344.671 146.249 344.498C146.377 344.326 146.447 344.118 146.451 343.904C146.455 343.69 146.392 343.481 146.27 343.304C146.149 343.128 145.975 342.994 145.774 342.921C145.341 342.773 144.945 342.534 144.611 342.222C144.278 341.91 144.014 341.531 143.838 341.11C143.354 339.737 143.423 338.23 144.031 336.906C144.693 335.524 145.742 334.364 147.052 333.566C147.681 333.118 148.286 332.638 148.864 332.127C149.068 331.939 149.188 331.678 149.199 331.402C149.209 331.126 149.11 330.857 148.921 330.655C148.733 330.453 148.472 330.333 148.195 330.323C147.918 330.313 147.648 330.413 147.445 330.601C146.926 331.062 146.382 331.494 145.817 331.898C144.189 332.905 142.891 334.365 142.083 336.097C141.664 337.009 141.431 337.995 141.398 338.998C141.365 340 141.531 340.998 141.889 341.935C142.166 342.611 142.582 343.222 143.109 343.729C143.636 344.237 144.263 344.629 144.951 344.882C145.076 344.932 145.211 344.956 145.346 344.953C145.481 344.95 145.615 344.92 145.739 344.866Z" fill="#E03E60"/>
<path d="M216.949 136.597C223.258 124.105 216.845 93.6748 194.323 98.812C200.656 91.6282 185.136 57.4112 154.689 70.8341C142.04 76.4044 137.466 81.1051 121.717 80.7201C114.454 80.5662 98.426 89.9777 102.578 103.396C94.0547 107.483 90.5409 127.437 99.701 133.047C82.1481 139.738 98.1867 177.664 112.029 177.731C99.0656 192.734 113.243 217.503 128.481 210.52C118.825 223.82 126.231 237.241 139.104 239.295C138.608 250.477 158.484 270.189 168.034 275.611C188.542 287.244 224.294 274.258 239.793 265.901C255.292 257.543 279.948 229.071 255.419 220.038C259.179 205.509 252.58 205.615 246.415 204.843C260.535 192.547 255.645 174.382 235.257 177.177C242.552 164.34 237.512 149.948 222.547 149.314C239.118 142.047 228.827 129.494 216.949 136.597Z" fill="#FB7E94"/>
<g style="mix-blend-mode:multiply" opacity="0.6">
<path d="M155.276 166.154C167.345 169.332 177.575 171.753 188.648 163.986C198.495 157.102 201.177 145.4 204.405 134.662C204.428 134.571 204.477 134.488 204.546 134.423C204.614 134.359 204.7 134.314 204.792 134.295C204.884 134.277 204.98 134.284 205.069 134.317C205.157 134.35 205.234 134.407 205.291 134.481C212.456 142.605 202.934 160.228 204.276 168.744C191.276 174.761 189.591 183.624 192.473 189.215C180.335 202.192 140.099 197.466 126.204 155.146C123.893 148.176 149.142 164.541 155.276 166.154Z" fill="#FBAFDB"/>
</g>
<path d="M118.766 164.675C119.673 164.36 120.498 163.846 121.18 163.172C121.863 162.498 122.386 161.68 122.711 160.779C123.778 157.954 123.283 154.199 121.409 150.744C119.536 147.29 116.668 144.897 113.74 144.263C113.601 144.219 113.456 144.204 113.311 144.22C113.167 144.236 113.027 144.281 112.902 144.353C112.776 144.426 112.666 144.524 112.581 144.64C112.495 144.757 112.434 144.891 112.403 145.032C112.371 145.173 112.37 145.319 112.398 145.461C112.427 145.603 112.485 145.737 112.568 145.856C112.652 145.974 112.759 146.073 112.884 146.147C113.008 146.222 113.146 146.269 113.29 146.287C115.981 147.311 118.211 149.265 119.574 151.794C120.937 154.322 121.342 157.257 120.717 160.064C120.391 160.958 119.789 161.726 118.997 162.257C118.205 162.789 117.265 163.055 116.313 163.019C113.934 163.1 111.887 161.975 111.518 161.145C111.47 161.006 111.433 160.902 111.644 160.686C111.831 160.483 111.932 160.215 111.925 159.939C111.918 159.663 111.805 159.401 111.608 159.208C111.408 159.019 111.141 158.916 110.866 158.923C110.59 158.929 110.328 159.045 110.137 159.243C109.773 159.596 109.527 160.052 109.433 160.549C109.339 161.047 109.402 161.56 109.613 162.02C110.426 163.823 113.451 165.214 116.385 165.12C117.197 165.098 118.001 164.948 118.766 164.675Z" fill="#F54284"/>
<g style="mix-blend-mode:multiply" opacity="0.5">
<path d="M239.296 266.154C241.513 263.938 243.554 261.667 243.284 260.634C242.222 256.675 244.533 251.716 249.254 251.671C255.136 251.634 259.295 248.686 259.254 242.399C259.248 242.012 259.25 241.571 259.243 241.106C256.238 239.954 254.556 235.746 256.194 232.955C256.682 232.091 257.122 231.201 257.512 230.289C257.428 230.086 257.325 229.892 257.205 229.709C257.053 229.49 256.978 229.227 256.99 228.96C257.003 228.694 257.102 228.438 257.273 228.233L257.6 227.755C257.852 227.443 258.204 227.228 258.598 227.147C259.228 224.488 258.857 222.129 255.011 223.035C250.034 224.207 245.93 220.03 247.895 215.088C248.986 212.333 247.934 210.147 246.948 207.925C246.773 207.87 246.594 207.842 246.414 207.775C245.759 207.47 245.199 206.992 244.795 206.394C244.39 205.796 244.157 205.099 244.118 204.378C243.74 198.688 251.308 195.961 250.056 190.045C248.851 184.373 242.796 185.326 238.31 184.446C235.042 185.37 231.006 182.167 231.726 178.427C232.759 173.164 234.668 168.917 231.752 163.895C228.999 159.154 222.975 157.892 219.512 153.801C218.873 153.34 218.349 152.737 217.984 152.039C217.618 151.341 217.42 150.567 217.406 149.78C217.391 148.992 217.56 148.211 217.899 147.498C218.238 146.786 218.738 146.161 219.359 145.673L219.983 145.26L219.542 145.414C214.797 147.582 210.969 141.816 212.687 137.766C217.228 127.099 217.604 120.147 211.323 109.937C209.984 107.877 208.24 106.109 206.195 104.741C204.151 103.373 201.848 102.434 199.427 101.979C198.081 101.883 196.814 101.31 195.856 100.364C195.76 100.28 195.685 100.175 195.636 100.058C195.586 99.9408 195.564 99.814 195.571 99.6869C195.578 99.5599 195.614 99.4359 195.675 99.3243C195.737 99.2128 195.823 99.1164 195.927 99.0425L196.884 98.3573C217.389 95.9358 223.101 124.55 217.03 136.569C228.863 129.482 239.199 142.019 222.594 149.299C237.559 149.933 242.602 164.336 235.304 177.161C255.708 174.412 260.582 192.532 246.462 204.828C252.627 205.6 259.242 205.539 255.465 220.023C262.428 222.59 265.413 226.731 265.776 231.519C265.776 231.612 265.783 231.705 265.795 231.797C265.815 232.374 265.811 232.958 265.773 233.555C265.768 233.726 265.758 233.885 265.737 234.048C265.669 234.757 265.559 235.462 265.41 236.159C265.371 236.28 265.34 236.404 265.318 236.529C265.163 237.127 264.985 237.734 264.792 238.334L264.557 238.999C264.317 239.654 264.047 240.332 263.746 240.995L263.554 241.412C263.32 241.896 263.097 242.376 262.836 242.856C257.87 252.272 247.693 261.67 239.848 265.908L239.296 266.154Z" fill="#FBA0C7"/>
</g>
<g style="mix-blend-mode:multiply" opacity="0.5">
<path d="M111.996 177.743C98.1412 177.641 82.1147 139.75 99.6676 133.059C90.5075 127.449 94.0213 107.495 102.545 103.408C99.6205 93.9423 106.742 86.4826 113.732 82.9588C114.552 98.0497 117.478 100.124 107.528 117.638C104.958 122.934 103.109 133.449 111.1 137.316C92.1359 149.454 109.311 174.832 123.151 173.292C112.923 183.512 121.496 208.739 134.06 207.866C137.301 206.635 140.08 204.429 142.013 201.555C143.254 199.564 143.685 197.598 141.473 196.298C140.444 195.733 139.278 195.463 138.104 195.52C136.598 195.567 136.771 197.698 135.949 197.726C138.991 197.646 140.22 202.234 137.061 203.133C131.349 204.77 129.127 197.198 131.801 193.24C135.141 188.284 141.737 189.359 145.939 192.478C150.976 196.199 148.193 202.892 144.919 206.696C143.151 208.843 140.765 210.397 138.086 211.151C137.295 211.368 136.472 211.446 135.654 211.38C130.821 221.137 135.717 233.855 164.57 233.126C160.325 236.61 158.683 239.428 158.625 241.938C159.1 242.998 159.632 244.033 160.218 245.036C162.176 248.16 164.602 250.966 167.413 253.357C167.942 253.796 168.498 254.204 169.076 254.577C173.227 253.538 177.474 254.035 181.798 253.377C187.207 252.546 196.228 249.621 198.415 243.902C198.677 243.201 199.574 243.496 199.712 244.148C200.991 252.336 193.385 259.525 184.744 262.421C184.429 262.674 184.137 262.918 183.884 263.162C182.217 264.887 181.122 267.082 180.75 269.447C180.439 270.536 180.401 271.683 180.638 272.789C180.876 273.895 181.382 274.926 182.112 275.79C182.419 276.225 182.602 276.735 182.644 277.265C182.685 277.796 182.583 278.328 182.349 278.806C182.349 278.806 182.056 279.272 181.923 279.448C181.544 279.903 181.034 280.23 180.462 280.386C179.89 280.543 179.285 280.52 178.728 280.32C178.658 280.345 178.612 280.361 178.542 280.385C176.224 281.197 173.698 279.67 171.885 278.282C171.272 277.794 170.707 277.25 170.197 276.656C169.45 276.308 168.653 275.964 167.999 275.545C158.449 270.124 138.574 250.411 139.069 239.229C126.18 237.129 118.744 223.771 128.447 210.454C113.213 217.526 99.0091 192.754 111.996 177.743Z" fill="#EB6AB7"/>
</g>
<path d="M198.075 208.557C198.928 208.282 199.693 207.786 200.291 207.12C200.708 206.615 201.003 206.023 201.155 205.387C201.307 204.752 201.311 204.091 201.168 203.454C203.717 203.859 207.039 203.461 208.802 201.806C211.518 199.234 210.501 195.882 209.223 193.087C213.792 193.614 216.327 191.08 217.141 188.461C218.351 184.484 216.193 179.249 210.401 177.387C210.271 177.344 210.133 177.326 209.996 177.336C209.859 177.347 209.726 177.384 209.603 177.446C209.481 177.508 209.372 177.594 209.283 177.699C209.194 177.803 209.127 177.925 209.086 178.055C209.001 178.317 209.023 178.603 209.148 178.848C209.273 179.094 209.49 179.279 209.753 179.365C214.316 180.84 216.081 184.838 215.144 187.85C214.473 190.056 212.154 191.944 207.667 190.65C207.472 190.601 207.267 190.61 207.077 190.676C206.888 190.742 206.722 190.863 206.6 191.023C206.471 191.176 206.388 191.362 206.36 191.56C206.333 191.758 206.362 191.959 206.445 192.141L206.591 192.557C208.21 195.88 209.276 198.515 207.322 200.366C205.911 201.69 202.039 201.892 199.974 201.124C199.785 201.054 199.578 201.041 199.381 201.086C199.183 201.131 199.003 201.233 198.862 201.379C198.721 201.524 198.626 201.707 198.588 201.906C198.549 202.104 198.57 202.309 198.646 202.496C199.277 204 199.277 205.115 198.67 205.833C197.478 207.223 193.993 207.341 191.235 206.673C190.965 206.614 190.683 206.66 190.447 206.803C190.211 206.946 190.039 207.175 189.968 207.441C189.904 207.708 189.948 207.989 190.091 208.223C190.234 208.457 190.464 208.625 190.731 208.691C193.146 209.295 195.681 209.249 198.075 208.557Z" fill="#F54284"/>
<path d="M230.226 215.167C230.541 215.058 230.846 214.921 231.137 214.757C232.22 214.092 233.105 213.15 233.702 212.029C234.298 210.908 234.582 209.65 234.526 208.384C234.51 207.298 234.184 206.24 233.588 205.334C232.992 204.427 232.149 203.708 231.158 203.261C230.909 203.146 230.624 203.132 230.364 203.223C230.104 203.314 229.89 203.502 229.767 203.748C229.647 203.997 229.631 204.282 229.722 204.542C229.813 204.802 230.004 205.015 230.252 205.134C230.896 205.423 231.442 205.889 231.826 206.479C232.21 207.069 232.416 207.756 232.419 208.46C232.46 209.346 232.267 210.227 231.857 211.015C231.447 211.803 230.836 212.469 230.086 212.947C229.374 213.306 228.573 213.452 227.78 213.365C226.988 213.279 226.238 212.965 225.622 212.461C225.391 212.31 225.11 212.256 224.839 212.312C224.568 212.368 224.33 212.529 224.178 212.759C224.029 212.991 223.977 213.271 224.032 213.539C224.087 213.808 224.246 214.045 224.474 214.199C225.288 214.799 226.233 215.2 227.232 215.368C228.232 215.536 229.257 215.467 230.226 215.167Z" fill="#F54284"/>
<path d="M202.767 231.136C203.906 230.738 204.949 230.105 205.828 229.279C206.706 228.453 207.401 227.452 207.867 226.342C208.366 225.062 208.446 223.658 208.096 222.332C207.746 221.006 206.984 219.825 205.92 218.958C205.716 218.772 205.447 218.673 205.17 218.685C204.893 218.697 204.633 218.818 204.445 219.021C204.257 219.224 204.158 219.493 204.169 219.769C204.181 220.045 204.301 220.305 204.504 220.491C205.265 221.069 205.815 221.879 206.071 222.798C206.327 223.717 206.275 224.695 205.923 225.583C205.461 226.68 204.7 227.627 203.727 228.316C202.754 229.005 201.608 229.409 200.418 229.482C198.585 229.488 197.168 228.376 196.335 226.257C196.25 226.037 196.092 225.853 195.888 225.736C195.683 225.619 195.444 225.575 195.211 225.613C194.978 225.652 194.764 225.768 194.604 225.941C194.443 226.115 194.345 226.337 194.324 226.572C194.134 229.335 192.871 231.23 190.9 231.881C188.65 232.591 185.882 231.486 184.008 229.107C183.893 228.964 183.742 228.853 183.57 228.785C183.398 228.718 183.211 228.697 183.028 228.724C182.847 228.754 182.677 228.83 182.535 228.946C182.393 229.062 182.283 229.213 182.218 229.384C182.097 229.795 181.894 230.177 181.622 230.509C181.351 230.841 181.016 231.115 180.637 231.317C180.258 231.518 179.843 231.643 179.416 231.682C178.988 231.722 178.558 231.676 178.149 231.548C175.855 231.055 173.426 228.69 173.683 226.227C173.697 226.091 173.684 225.954 173.644 225.823C173.605 225.692 173.54 225.57 173.454 225.464C173.367 225.359 173.26 225.271 173.14 225.206C173.019 225.142 172.887 225.102 172.75 225.088C172.614 225.074 172.476 225.088 172.345 225.127C172.214 225.167 172.092 225.232 171.985 225.318C171.879 225.405 171.791 225.511 171.726 225.632C171.661 225.752 171.62 225.884 171.607 226.02C171.249 229.607 174.462 232.8 177.688 233.577C178.744 233.89 179.873 233.863 180.913 233.499C181.954 233.134 182.854 232.451 183.483 231.547C184.502 232.614 185.789 233.388 187.211 233.789C188.633 234.19 190.138 234.202 191.568 233.825C192.592 233.496 193.522 232.926 194.279 232.162C195.035 231.398 195.596 230.464 195.913 229.438C196.473 230.096 197.171 230.622 197.957 230.981C198.744 231.339 199.6 231.521 200.466 231.514C201.248 231.512 202.025 231.385 202.767 231.136Z" fill="#F54284"/>
<path d="M164.884 215.927C165.508 215.715 166.087 215.39 166.591 214.966C167.16 214.474 167.579 213.832 167.802 213.115C168.025 212.398 168.041 211.633 167.85 210.907C167.79 210.638 167.625 210.403 167.392 210.255C167.158 210.107 166.875 210.058 166.604 210.118C166.334 210.179 166.098 210.343 165.949 210.577C165.8 210.81 165.75 211.093 165.81 211.362C165.924 211.721 165.929 212.106 165.824 212.468C165.719 212.83 165.51 213.153 165.222 213.397C164.543 213.854 163.762 214.138 162.948 214.224C162.134 214.31 161.312 214.195 160.554 213.89C159.84 213.656 159.206 213.23 158.721 212.658C158.236 212.086 157.919 211.392 157.806 210.651C157.766 210.378 157.618 210.132 157.396 209.968C157.174 209.804 156.895 209.735 156.621 209.776C156.347 209.817 156.101 209.964 155.936 210.186C155.771 210.408 155.7 210.686 155.741 210.959C155.909 212.061 156.375 213.096 157.09 213.952C157.804 214.807 158.74 215.452 159.796 215.815C161.428 216.431 163.224 216.471 164.884 215.927Z" fill="#F54284"/>
<path d="M301.655 356.387C315.729 360.276 333.366 371.216 326.429 386.262C321.062 391.447 316.121 391.531 313.606 389.105C311.091 386.679 295.051 370.823 286.384 376.062C282.135 363.779 301.655 356.387 301.655 356.387Z" fill="#F7A366"/>
<path d="M277.8 313.535C287.263 305.813 308.393 307.776 300.038 325.017C313.394 325.293 330.354 346.896 311.8 352.29C315.264 365.34 303.801 370.508 292.539 366.737C295.589 386.597 281.294 386.649 269.766 377.473C258.238 368.297 280.949 316.284 280.949 316.284L277.8 313.535Z" fill="#EB5D79"/>
<path d="M324.089 368.915C331.905 377.563 342.368 398.821 326.147 390.588C328.271 400.852 321.561 395.215 308.327 384.808C310.476 373.034 324.089 368.915 324.089 368.915Z" fill="#CB423A"/>
<path d="M115.415 96.5034C111.91 89.6525 112.083 71.2313 110.659 62.9259C109.234 54.6205 92.4119 51.6935 90.2297 71.9205C88.0476 92.1474 100.694 104.965 110.276 106.018C119.858 107.072 115.415 96.5034 115.415 96.5034Z" fill="#FBDD9D"/>
<path d="M90.2344 71.9319C91.7833 57.7746 100.406 54.9756 105.949 57.3526C100.592 73.7899 103.678 92.8594 114.238 105.513C112.979 106.053 111.591 106.22 110.241 105.991C100.699 104.976 88.0946 92.131 90.2344 71.9319Z" fill="#FB708C"/>
<path d="M156.858 72.8241C153.47 66.3082 141.935 58.5994 140.476 49.1911C139.016 39.7828 147.472 38.663 155.431 43.5913C163.39 48.5197 174.708 66.5736 168.313 80.9368C166.055 86.0841 156.858 72.8241 156.858 72.8241Z" fill="#FBDD9D"/>
<path d="M155.442 43.5865C163.42 48.4952 174.719 66.5688 168.324 80.932C168.191 81.346 167.904 81.6935 167.521 81.9022C167.139 82.111 166.691 82.165 166.27 82.0531C165.915 66.1764 154.132 52.5904 140.524 45.2054C141.855 39.6046 148.783 39.4348 155.442 43.5865Z" fill="#FB708C"/>
<path d="M171.057 83.6453C180.179 91.8228 201.056 111.457 205.031 128.646C208.643 144.238 206.218 166.78 179.783 174.935C160.337 180.94 134.089 183.051 122.066 141.359C110.044 99.6674 127.877 102.435 131.287 95.3407C134.698 88.2467 171.057 83.6453 171.057 83.6453Z" fill="url(#paint0_radial_314_2443)"/>
<g style="mix-blend-mode:multiply" opacity="0.4">
<path d="M135.691 123.374C128.806 125.267 125.23 137.683 127.723 143.242C130.216 148.8 137.824 149.793 141.956 147.062C146.087 144.332 152.251 138.115 149.464 129.56C146.921 121.776 140.568 122.03 135.691 123.374Z" fill="#F7B075"/>
</g>
<g style="mix-blend-mode:multiply" opacity="0.4">
<path d="M181.252 107.786C175.553 110.352 174.648 118.358 178.232 123.353C181.816 128.348 190.252 130.217 195.039 126.09C199.827 121.963 200.281 116.942 194.822 110.606C189.507 104.532 184.917 106.139 181.252 107.786Z" fill="#F7B075"/>
</g>
<g style="mix-blend-mode:multiply" opacity="0.4">
<path d="M118.565 111.517C119.294 107.277 121.629 103.475 125.086 100.896C127.671 98.8761 130.22 97.6076 131.318 95.3558C134.737 88.2849 171.056 83.6455 171.056 83.6455C175.726 87.6821 180.172 91.9688 184.375 96.4866C180.434 104.778 172.103 113.465 155.31 105.121C154.668 111.388 145.283 118.552 139.498 114.146C137.161 118.621 124.197 128.048 118.421 112.631C118.459 112.293 118.492 111.867 118.565 111.517Z" fill="#F79A57"/>
</g>
<path d="M146.548 135.173C150.085 132.936 141.892 128.453 136.239 131.262C130.587 134.071 131.272 140.898 132.661 140.775C134.049 140.652 133.998 135.898 138.587 134.809C143.177 133.721 145.07 136.118 146.548 135.173Z" fill="#D65077"/>
<path d="M188.153 117.493C184.676 118.71 185.185 123.213 182.725 123.284C180.264 123.354 181.419 115.209 187.31 113.898C193.202 112.587 197.99 117.938 196.506 118.458C195.636 118.723 191.34 116.377 188.153 117.493Z" fill="#D65077"/>
<g style="mix-blend-mode:multiply" opacity="0.4">
<path d="M177.018 130.921C182.575 130.142 164.481 115.109 158.501 132.218C155.79 139.936 160.218 133.666 167.265 131.458C174.896 129.058 174.809 131.228 177.018 130.921Z" fill="#F7B075"/>
</g>
<path d="M164.57 145.018C164.734 140.319 169.69 141.06 172.838 142.616C173.941 143.182 174.929 143.949 175.75 144.876C175.671 143.056 176.147 141.253 177.115 139.705C178.923 136.842 184.277 136.86 184.575 140.684C184.572 140.721 184.557 140.757 184.534 140.786C184.511 140.815 184.48 140.837 184.445 140.85C184.409 140.862 184.371 140.864 184.335 140.856C184.298 140.847 184.265 140.829 184.239 140.802C183.509 140.2 182.584 139.884 181.637 139.913C180.689 139.942 179.783 140.313 179.089 140.959C178.039 142.189 177.495 143.769 177.567 145.381C177.738 151.221 178.766 152.521 178.88 153.998C179.005 154.356 179.065 154.75 179.148 155.136C179.152 155.18 179.141 155.223 179.117 155.26C179.093 155.296 179.058 155.324 179.017 155.338C178.976 155.353 178.931 155.353 178.89 155.339C178.848 155.325 178.813 155.298 178.789 155.262C178.611 154.754 178.429 154.234 178.247 153.714C177.421 151.515 176.396 149.396 175.184 147.383C173.72 145.172 166.234 140.144 166.167 146.456C166.136 146.998 164.444 147.332 164.57 145.018Z" fill="#DD7658"/>
<path d="M190.412 128.591C190.572 130.908 193.745 132.611 197.464 132.307C201.183 132.003 204.106 129.981 203.929 127.618C203.752 125.256 200.596 123.599 196.877 123.903C193.157 124.207 190.267 126.282 190.412 128.591Z" fill="#F7886C"/>
<path d="M132.075 153.297C133.31 155.263 136.886 155.256 140.058 153.277C143.229 151.297 144.753 148.106 143.572 146.107C142.391 144.109 138.761 144.148 135.578 146.132C132.395 148.115 130.836 151.319 132.075 153.297Z" fill="#F7886C"/>
<path d="M179.857 101.27C179.939 101.433 179.976 101.615 179.964 101.797C179.952 101.978 179.892 102.154 179.79 102.305C179.317 102.925 178.631 103.009 178.151 103.385C177.676 103.81 177.249 104.285 176.878 104.803C176.084 105.73 174.965 106.77 173.963 105.655C171.773 103.193 177.877 98.2165 179.857 101.27Z" fill="#EE6249"/>
<path d="M131.252 117.241C132.393 114.961 138.758 113.705 138.924 117.264C138.949 117.891 138.262 118.494 137.693 118.02C136.726 117.23 135.219 117.978 134.258 118.393C133.551 118.64 132.856 119.48 132.031 119.056C131.688 118.916 131.414 118.648 131.268 118.308C131.122 117.969 131.117 117.585 131.252 117.241Z" fill="#EE6249"/>
<path d="M189.684 112.91C189.857 112.853 190.012 112.752 190.133 112.617C190.254 112.482 190.337 112.317 190.374 112.14C190.411 111.962 190.4 111.778 190.343 111.607C190.286 111.435 190.184 111.281 190.048 111.162C189.658 110.847 189.207 110.616 188.724 110.482C188.241 110.348 187.735 110.314 187.238 110.382C186.642 110.419 186.059 110.575 185.524 110.84C184.989 111.106 184.512 111.475 184.122 111.927C184.027 112.035 183.954 112.161 183.91 112.297C183.865 112.434 183.849 112.578 183.864 112.721C183.878 112.864 183.921 113.003 183.992 113.128C184.062 113.253 184.158 113.362 184.273 113.448C184.388 113.535 184.52 113.596 184.66 113.629C184.8 113.662 184.945 113.666 185.087 113.64C185.229 113.615 185.364 113.56 185.483 113.48C185.603 113.399 185.705 113.295 185.782 113.174C186.221 112.735 186.81 112.478 187.43 112.454C187.638 112.414 187.852 112.416 188.059 112.459C188.266 112.502 188.463 112.586 188.637 112.706C188.778 112.829 188.949 112.912 189.133 112.948C189.317 112.984 189.507 112.97 189.684 112.91Z" fill="#F58570"/>
<path d="M140.392 129.445C140.637 129.368 140.844 129.205 140.976 128.986C141.108 128.767 141.154 128.507 141.106 128.256C141.059 128.006 140.92 127.782 140.718 127.626C140.515 127.471 140.262 127.396 140.007 127.414L139.168 127.436C137.351 127.45 134.863 127.478 133.629 129.492C133.502 129.727 133.471 130.002 133.541 130.259C133.611 130.516 133.778 130.737 134.006 130.875C134.235 131.013 134.508 131.058 134.77 131C135.031 130.943 135.261 130.788 135.411 130.567C136.041 129.542 137.657 129.547 139.182 129.519L140.098 129.496C140.198 129.491 140.297 129.474 140.392 129.445Z" fill="#F58570"/>
<path d="M186.487 151.387C185.403 148.291 183.671 154.123 175.475 153.868C170.686 153.717 164.546 150.265 162.548 154.816C160.55 159.366 165.163 170.199 177.711 166.57C179.316 166.198 180.828 165.501 182.153 164.521C183.477 163.541 184.585 162.3 185.409 160.876C186.232 159.451 186.753 157.874 186.938 156.241C187.124 154.608 186.97 152.956 186.487 151.387Z" fill="#C63B72"/>
<path d="M184.521 162.267C182.777 164.399 180.388 165.909 177.713 166.57C168.981 169.096 164.096 164.621 162.6 160.127C170.48 157.731 178.702 156.538 184.521 162.267Z" fill="#DD3E73"/>
<path d="M183.108 163.733C181.542 165.066 179.699 166.035 177.712 166.569C170.446 168.672 165.853 165.924 163.672 162.409C164.967 161.722 175.748 165.791 183.108 163.733Z" fill="#E77372"/>
<path d="M167.564 152.527C170.037 152.789 172.947 153.78 175.488 153.863C178.597 154.003 181.662 153.067 184.163 151.214C184.357 153.095 183.8 154.978 182.612 156.455C181.424 157.931 179.701 158.883 177.817 159.103C172.348 160.097 169.356 157.644 167.564 152.527Z" fill="white"/>
<path d="M175.476 153.868C178.585 154.008 181.65 153.072 184.151 151.219C184.215 152.463 184.002 153.707 183.527 154.861C178.143 156.616 173.35 157.05 168.933 155.51C168.365 154.571 167.902 153.572 167.552 152.532C170.025 152.794 172.935 153.785 175.476 153.868Z" fill="#DBE6E3"/>
<path d="M166.428 163.143C166.05 161.097 168.383 161.668 175.839 162C181.134 162.26 181.287 163.179 181.236 164C180.379 164.433 179.483 164.786 178.561 165.054C172.992 166.654 168.991 165.41 166.428 163.143Z" fill="white"/>
<path d="M133.444 363.526C114.991 364.49 102.612 411.225 135.781 412.824C130.533 426.227 148.111 433.843 157.887 425.453C165.841 440.29 193.554 440.505 192.656 423.743C202.327 419.812 210.043 405.544 204.975 397.386C216.5 395.555 213.721 362.387 193.858 368.797C187.778 357.713 168.828 347.817 159.624 360.959C148.046 350.153 131.76 352.549 133.444 363.526Z" fill="#FB7E94"/>
<g style="mix-blend-mode:multiply" opacity="0.5">
<path d="M133.444 363.525C132.5 357.113 137.643 353.665 144.423 354.001L143.096 356.048C139.601 361.486 137.972 369.097 145.061 374.33C131.48 376.609 129.913 385.288 130.861 390.596C131.696 395.322 136.682 404.507 145.456 403.107C143.156 407.128 143.085 409.824 146.211 413.436C151.495 419.535 157.671 413.054 158.534 412.285C164.113 407.297 169.128 407.499 171.607 413.128C178.068 427.864 188.402 416.09 199.039 412.689C200.866 412.067 202.759 411.66 204.679 411.479C202.231 416.823 197.752 421.685 192.702 423.726C193.601 440.488 165.887 440.273 157.933 425.436C148.158 433.825 130.579 426.21 135.827 412.806C129.789 412.509 125.284 410.715 122.023 407.98C122 407.21 122.001 406.432 122.045 405.664C120.709 404.865 119.461 403.928 118.321 402.871C117.979 402.563 117.683 402.238 117.372 401.906C110.431 387.623 120.389 364.219 133.444 363.525Z" fill="#FBA0C7"/>
</g>
<path d="M186.612 398.603C194.714 393.834 218.207 392.959 220.644 426.338C217.923 432.802 208.668 435.952 204.805 431.236C200.942 426.52 197.578 412.566 184.914 419.023C179.407 405.898 181.724 403.076 186.612 398.603Z" fill="#F7A366"/>
<g style="mix-blend-mode:color-dodge" opacity="0.2">
<path d="M157.85 379.267L157.203 378.197C154.192 372.573 161.522 367.271 165.196 365.09C169.408 362.59 175.84 363.269 180.132 365.046C182.9 366.106 185.269 367.993 186.917 370.45C190.497 370.207 194.051 371.185 196.996 373.223C201.601 376.304 205.426 381.318 204.447 387.068C203.427 393.26 193.714 392.24 194.737 386.021C195.595 381.039 187.748 382.97 186.137 385.207C180.619 392.896 169.249 385.584 171.143 378.619C168.211 378.829 165.568 380.869 162.536 381.166C161.656 381.284 160.761 381.171 159.939 380.838C159.117 380.505 158.397 379.963 157.85 379.267Z" fill="#FBD670"/>
</g>
<path d="M219.046 415.603C224.707 427.573 230.327 445.703 215.523 436.572C209.274 449.496 205.246 435.762 201.357 427.036C197.04 417.344 219.046 415.603 219.046 415.603Z" fill="#CB423A"/>
<path d="M174.848 408.933C175.472 408.085 176.226 407.339 177.081 406.724C177.989 406.16 178.139 406.03 177.553 406.326L177.691 406.161C177.804 405.369 177.901 404.57 177.971 403.767C178.221 401.32 175.925 397.923 174.781 395.808C174.709 395.696 174.663 395.569 174.646 395.436C174.629 395.304 174.641 395.169 174.682 395.042C174.724 394.914 174.793 394.798 174.884 394.7C174.976 394.603 175.088 394.526 175.213 394.477C189.943 387.789 200.049 417.095 183.968 422.194C182.244 422.731 180.394 422.704 178.69 422.117C176.985 421.53 175.515 420.412 174.495 418.929C173.475 417.447 172.959 415.676 173.023 413.877C173.086 412.078 173.726 410.345 174.848 408.933Z" fill="#FB7E94"/>
<path d="M164.241 401.457C165.412 401.009 166.458 400.286 167.29 399.349C168.122 398.412 168.715 397.289 169.019 396.075C169.351 394.826 169.239 393.501 168.699 392.327C168.16 391.153 167.228 390.204 166.063 389.642C165.943 389.575 165.811 389.533 165.675 389.518C165.538 389.502 165.4 389.515 165.268 389.554C165.136 389.593 165.013 389.657 164.907 389.744C164.8 389.831 164.712 389.938 164.648 390.059C164.513 390.301 164.48 390.585 164.556 390.851C164.632 391.116 164.81 391.34 165.052 391.474C165.823 391.806 166.446 392.407 166.804 393.164C167.163 393.921 167.233 394.783 167.001 395.589C166.756 396.653 166.196 397.62 165.393 398.364C164.591 399.107 163.583 399.593 162.501 399.758C160.723 399.81 159.257 398.223 158.346 395.326C158.277 395.087 158.123 394.882 157.914 394.748C157.704 394.614 157.453 394.561 157.206 394.597C156.95 394.615 156.711 394.729 156.535 394.916C156.359 395.102 156.26 395.348 156.258 395.604C156.212 397.072 155.846 398.963 154.374 399.699C153.517 399.984 152.602 400.044 151.716 399.876C150.83 399.707 150.002 399.314 149.313 398.736C147.846 397.706 146.372 395.875 146.624 393.881C146.657 393.606 146.579 393.33 146.408 393.113C146.237 392.896 145.986 392.755 145.711 392.723C145.435 392.69 145.158 392.768 144.94 392.939C144.722 393.111 144.58 393.361 144.547 393.636C144.477 394.985 144.771 396.328 145.399 397.525C146.026 398.721 146.963 399.727 148.113 400.439C149.105 401.244 150.294 401.773 151.559 401.97C152.823 402.167 154.118 402.026 155.312 401.562C156.367 401.015 157.194 400.115 157.649 399.019C158.12 399.884 158.817 400.605 159.666 401.106C160.515 401.608 161.484 401.871 162.472 401.869C163.08 401.825 163.676 401.686 164.241 401.457Z" fill="#F54284"/>
<path d="M182.058 381.772C183.028 381.436 183.849 380.772 184.381 379.895C185.838 377.479 184.381 374.099 183.113 372.559C182.941 372.345 182.69 372.208 182.417 372.177C182.143 372.147 181.867 372.226 181.651 372.397C181.543 372.481 181.453 372.586 181.386 372.706C181.319 372.825 181.277 372.956 181.262 373.092C181.246 373.228 181.258 373.365 181.296 373.497C181.335 373.628 181.399 373.75 181.485 373.856C182.461 375.083 183.384 377.495 182.573 378.856C182.336 379.254 181.982 379.569 181.56 379.759C181.137 379.949 180.666 380.004 180.211 379.916C179.844 379.835 179.514 379.633 179.275 379.343C179.037 379.053 178.903 378.691 178.896 378.315C178.844 378.06 178.699 377.834 178.489 377.682C178.278 377.529 178.018 377.46 177.759 377.489C177.5 377.518 177.261 377.642 177.089 377.838C176.917 378.033 176.824 378.286 176.83 378.546C176.883 379.355 177.198 380.124 177.727 380.739C178.257 381.353 178.972 381.779 179.766 381.952C180.532 382.106 181.325 382.044 182.058 381.772Z" fill="#F54284"/>
<path d="M167.998 102.52C156.25 105.35 150.407 99.8102 150.407 99.8102C150.407 99.8102 153.257 114.787 138.575 106.897C131.798 120.654 116.579 113.497 115.846 106.686C107.694 112.575 97.8479 71.0418 133.294 74.4235C144.222 61.0403 161.216 67.3949 163.834 77.9926C180.252 67.0183 195.004 95.9937 167.998 102.52Z" fill="#FB6D9E"/>
<g style="mix-blend-mode:multiply" opacity="0.6">
<path d="M110.23 84.405C110.467 93.5543 118.978 109.946 127.02 108.608C133.032 107.605 129.683 98.8587 128.995 96.8951C141.86 108.365 148.143 99.5522 145.312 91.467C153.629 97.0864 167.26 98.9265 177.708 90.8595C179.426 89.0778 181.701 87.1013 182.463 84.6691C184.22 91.2113 180.849 99.4198 167.974 102.527C156.25 105.349 150.406 99.81 150.406 99.81C150.406 99.81 153.256 114.787 138.574 106.897C131.797 120.654 116.578 113.497 115.846 106.686C110.707 110.443 104.896 95.2587 110.23 84.405Z" fill="#FBAFDB"/>
</g>
<g style="mix-blend-mode:color-dodge" opacity="0.2">
<path d="M141.668 73.3714C141.998 72.405 142.593 71.5498 143.386 70.9031C144.178 70.2565 145.137 69.8444 146.151 69.7138C149.33 69.0546 151.979 70.2664 154.585 71.9474C156.675 73.3818 158.199 75.4983 158.893 77.9335C159.742 81.1374 159.164 85.6187 155.875 87.3017C151.47 89.5836 147.094 86.8238 147.455 81.8349C147.549 81.1477 147.755 80.4801 148.064 79.8582C148.016 79.7196 147.967 79.581 147.814 79.4789L147.641 79.3191C147.259 78.9699 146.848 78.654 146.413 78.3748C145.417 77.6862 144.448 77.001 143.373 76.1975C143.201 76.0553 143.042 75.8985 142.897 75.7289L142.575 75.5173C142.244 75.2747 141.985 74.9473 141.825 74.5696C141.665 74.1918 141.611 73.7779 141.668 73.3714Z" fill="#FBD670"/>
</g>
<g style="mix-blend-mode:color-dodge" opacity="0.2">
<path d="M166.052 79.4599C167.253 78.7166 168.612 78.264 170.018 78.1385C171.425 78.0129 172.841 78.2179 174.153 78.7369C175.465 79.4025 176.517 80.4847 177.143 81.8133C177.691 82.6045 177.913 83.5765 177.761 84.5277C177.61 85.4789 177.097 86.3362 176.329 86.9218C175.963 87.181 175.534 87.3356 175.086 87.3688C174.639 87.4019 174.192 87.3124 173.793 87.1098C173.689 87.0394 173.574 86.9876 173.453 86.9566C173.808 87.0786 173.22 86.7396 172.856 86.517C172.567 86.4682 172.288 86.3734 172.029 86.2361L171.543 86.1472L171.726 86.1868L171.446 86.1681L171.226 86.2452C170.405 86.5804 169.546 86.8115 168.669 86.933C164.554 87.2588 162.765 81.778 166.052 79.4599Z" fill="#FBD670"/>
</g>
<g style="mix-blend-mode:color-dodge" opacity="0.2">
<path d="M132.084 86.283C132.117 85.8178 132.128 85.5157 132.14 85.2909C132.153 85.0661 132.133 84.4895 132.12 84.0793C132.115 83.4137 131.99 82.7546 131.751 82.1339C131.359 81.3116 132.015 80.5112 132.702 80.1671C134.772 79.1309 138.645 80.6791 140.27 82.1591C144.333 85.9229 146.187 92.963 140.919 96.6488C140.151 97.1509 139.279 97.475 138.369 97.5972C137.46 97.7194 136.534 97.6367 135.662 97.3551C134.789 97.0734 133.991 96.6001 133.327 95.9698C132.663 95.3396 132.149 94.5686 131.824 93.7134C130.762 91.1286 132.05 88.2659 132.084 86.283Z" fill="#FBD670"/>
</g>
<path d="M139.897 98.0445C140.048 97.9902 140.185 97.9031 140.299 97.7894C140.412 97.6758 140.499 97.5384 140.552 97.3873C141.304 95.114 139.828 91.1576 137.501 89.1585C137.053 88.728 136.522 88.3909 135.941 88.167C135.36 87.943 134.74 87.8367 134.117 87.854C133.646 85.3025 132.536 82.9124 130.89 80.9057C128.346 77.7641 123.976 77.064 118.96 78.7556C118.698 78.8471 118.484 79.0383 118.364 79.2871C118.243 79.5359 118.227 79.822 118.318 80.0824C118.409 80.3428 118.601 80.5561 118.85 80.6756C119.099 80.795 119.386 80.8107 119.647 80.7192C121.629 80.0251 126.462 78.8128 129.278 82.2095C130.967 84.1402 131.967 86.5762 132.12 89.1368C132.111 89.3163 132.149 89.4948 132.231 89.6549C132.312 89.8151 132.433 89.9515 132.583 90.0509C132.735 90.1498 132.911 90.2068 133.092 90.2161C133.274 90.2254 133.455 90.1867 133.616 90.1039C134.391 89.7158 135.249 89.9343 136.149 90.7213C138 92.2905 139.079 95.3745 138.59 96.7259C138.502 96.9871 138.522 97.272 138.645 97.5182C138.768 97.7644 138.984 97.9518 139.245 98.0395C139.456 98.1098 139.685 98.1116 139.897 98.0445Z" fill="#F54284"/>
<path d="M174.528 86.4623C174.597 86.4514 174.664 86.428 174.725 86.3933C174.843 86.3241 174.946 86.2322 175.029 86.1228C175.111 86.0135 175.171 85.889 175.204 85.7566C175.238 85.6241 175.245 85.4864 175.224 85.3514C175.204 85.2164 175.157 85.0869 175.086 84.9704C174.202 83.6312 173.012 82.5207 171.613 81.7302C170.214 80.9397 168.647 80.4917 167.039 80.4229C165.625 80.3605 160.556 80.7868 157.85 82.4218C157.789 82.2485 157.724 82.0637 157.655 81.8674C157.512 81.3648 157.339 80.8711 157.138 80.3889C156.318 78.3171 155.043 76.4553 153.408 74.9394C150.832 72.5998 145.209 69.2135 140.404 71.2463C140.277 71.3004 140.163 71.3789 140.067 71.4772C139.971 71.5756 139.895 71.6918 139.844 71.8192C139.793 71.9467 139.768 72.0829 139.77 72.22C139.772 72.357 139.801 72.4923 139.856 72.618C139.97 72.8681 140.177 73.0643 140.433 73.1655C140.689 73.2667 140.975 73.2652 141.23 73.1611C144.514 71.7259 149.099 73.8938 151.962 76.496C153.434 77.7577 154.6 79.335 155.373 81.1105C155.532 81.5142 155.656 81.9305 155.744 82.3551C155.897 83.1611 156.17 83.9397 156.553 84.6652C156.643 84.8092 156.767 84.9292 156.914 85.015C157.061 85.1008 157.227 85.1497 157.397 85.1576C157.568 85.1655 157.737 85.1322 157.892 85.0604C158.047 84.9887 158.182 84.8807 158.286 84.7456C159.334 83.3155 164.698 82.3966 166.983 82.4914C168.234 82.5575 169.452 82.9122 170.541 83.5275C171.63 84.1428 172.561 85.002 173.26 86.0375C173.386 86.2472 173.583 86.4052 173.815 86.483C174.047 86.5609 174.3 86.5535 174.528 86.4623Z" fill="#F54284"/>
<path d="M134.615 171.845C140.583 170.494 150.945 170.173 158.54 181.271C164.36 176.302 174.417 178.304 177.032 186.18C181.626 178.788 190.421 181.31 193.13 190.087C187.65 198.891 163.058 199.489 154.749 196.459C136.895 189.952 134.615 171.845 134.615 171.845Z" fill="#FB778E"/>
<g style="mix-blend-mode:color-dodge" opacity="0.2">
<path d="M163.439 182.888C165.553 181.94 167.763 182.787 169.538 183.993C170.993 184.988 172.492 186.966 171.92 188.826C171.814 189.302 171.529 189.72 171.122 189.992C170.716 190.265 170.221 190.371 169.739 190.29C169.311 190.219 168.897 190.079 168.514 189.876C168.303 189.75 168.085 189.636 167.861 189.534L167.301 189.16C167.493 189.3 167.446 189.277 167.168 189.115C166.924 188.989 166.672 188.878 166.414 188.783C166.777 188.928 166.52 188.863 166.31 188.819C166.31 188.819 166.31 188.819 166.217 188.852C165.818 189.085 165.376 189.232 164.917 189.285C164.458 189.337 163.994 189.294 163.554 189.157C163.113 189.02 162.707 188.793 162.36 188.49C162.013 188.188 161.733 187.816 161.539 187.399C161.345 186.982 161.24 186.529 161.232 186.069C161.223 185.608 161.311 185.151 161.49 184.727C161.669 184.302 161.935 183.919 162.27 183.602C162.606 183.286 163.004 183.042 163.439 182.888Z" fill="#FBD670"/>
</g>
<g style="mix-blend-mode:color-dodge" opacity="0.2">
<path d="M138.232 174.261C142.254 173.967 146.349 174.44 149.744 176.778C152.426 178.639 156.742 182.678 155.205 186.315C155.04 186.63 154.781 186.885 154.464 187.046C154.146 187.206 153.786 187.262 153.435 187.207C150.687 187.015 148.591 184.521 146.306 183.311C143.953 182.212 141.333 181.807 138.754 182.143C133.669 182.562 133.115 174.587 138.232 174.261Z" fill="#FBD670"/>
</g>
<path d="M243.442 388.545C248.839 403.512 260.564 429.229 254.029 431.116C247.494 433.002 244.089 429.41 244.089 429.41C244.089 429.41 224.47 398.987 223.087 389.721C221.703 380.455 243.442 388.545 243.442 388.545Z" fill="#FBD094"/>
<path d="M232.682 302.298C242.771 309.411 261.89 330.193 235.916 341.971C252.723 347.679 252.396 359.787 242.064 364.767C255.884 373.205 251.707 380.451 243.441 388.545C256.133 391.569 258.241 401.749 241.903 405.149C225.566 408.548 210.874 392.492 216.515 378.575C202.598 376.511 194.526 371.817 197.587 359.153C182.444 358.05 157.149 325.09 178.304 307.244C199.459 289.399 221.039 294.096 232.682 302.298Z" fill="url(#paint1_linear_314_2443)"/>
<path d="M208.247 325.273C208.719 325.109 209.172 324.894 209.597 324.632C213.886 322.015 214.193 315.722 212.685 311.154C213.999 311.31 215.331 311.123 216.552 310.614C217.774 310.104 218.843 309.289 219.656 308.246C221.106 306.144 220.584 303.759 218.278 301.857C218.172 301.771 218.049 301.706 217.918 301.667C217.787 301.628 217.649 301.615 217.512 301.629C217.376 301.643 217.243 301.684 217.123 301.749C217.002 301.814 216.895 301.902 216.808 302.008C216.72 302.112 216.654 302.233 216.613 302.364C216.572 302.494 216.558 302.631 216.572 302.766C216.585 302.902 216.626 303.033 216.691 303.153C216.757 303.272 216.846 303.377 216.953 303.462C218.418 304.673 218.754 305.891 217.943 307.07C217.175 308.024 216.106 308.693 214.911 308.968C213.716 309.243 212.463 309.108 211.356 308.585C211.159 308.475 210.931 308.432 210.707 308.464C210.483 308.495 210.275 308.6 210.116 308.76C209.958 308.92 209.854 309.125 209.82 309.347C209.785 309.569 209.822 309.795 209.924 309.995C211.924 313.664 212.308 320.519 208.497 322.865C207.662 323.342 206.715 323.587 205.753 323.575C204.792 323.563 203.853 323.293 203.033 322.794C202.003 322.262 201.127 321.475 200.488 320.51C199.85 319.545 199.469 318.432 199.383 317.277C199.381 317.019 199.283 316.771 199.108 316.582C198.932 316.392 198.692 316.275 198.435 316.252C198.177 316.229 197.92 316.302 197.713 316.458C197.506 316.614 197.364 316.84 197.315 317.094C197.161 318.052 196.764 318.956 196.161 319.719C195.558 320.481 194.769 321.078 193.87 321.451C192.893 321.818 191.838 321.934 190.805 321.788C189.772 321.642 188.792 321.24 187.957 320.617C183.769 317.649 183.643 311.417 183.782 308.879C183.789 308.609 183.69 308.346 183.507 308.147C183.323 307.949 183.069 307.829 182.798 307.814C182.527 307.8 182.261 307.891 182.056 308.068C181.85 308.246 181.723 308.496 181.699 308.766C181.538 311.649 181.711 318.759 186.746 322.325C187.872 323.14 189.183 323.663 190.562 323.848C191.942 324.032 193.347 323.872 194.651 323.382C196.06 322.817 197.265 321.839 198.106 320.577C198.972 322.293 200.342 323.704 202.033 324.622C202.962 325.165 203.997 325.504 205.068 325.616C206.14 325.729 207.224 325.612 208.247 325.273Z" fill="#F54284"/>
<path d="M210.761 347.5C210.967 347.446 211.169 347.376 211.364 347.289C212.1 346.845 212.731 346.248 213.215 345.54C213.699 344.831 214.024 344.027 214.168 343.182C214.489 342.048 214.582 340.864 214.443 339.695C214.304 338.527 213.935 337.398 213.358 336.373C213.187 336.173 212.946 336.047 212.684 336.017C212.422 335.988 212.159 336.059 211.947 336.215C211.735 336.372 211.589 336.602 211.54 336.86C211.491 337.119 211.542 337.386 211.682 337.608C212.45 339.168 212.613 340.958 212.141 342.634C212.066 343.176 211.881 343.697 211.598 344.166C211.315 344.635 210.939 345.042 210.494 345.363C208.057 346.54 205.173 343.582 203.081 341.397C202.691 340.989 202.34 340.62 202.006 340.296C201.83 340.128 201.6 340.026 201.356 340.01C201.113 339.993 200.871 340.062 200.673 340.205C200.466 340.364 200.325 340.594 200.278 340.85C200.23 341.106 200.28 341.37 200.416 341.591C201.193 342.953 200.641 343.458 200.434 343.647C199.693 344.127 198.835 344.394 197.953 344.419C197.071 344.444 196.2 344.226 195.435 343.79C193.709 342.578 190.69 337.114 191.246 336.063C191.344 335.969 191.422 335.856 191.477 335.731C191.531 335.607 191.56 335.473 191.562 335.337C191.564 335.201 191.539 335.067 191.489 334.941C191.438 334.815 191.363 334.7 191.268 334.603C191.072 334.406 190.806 334.294 190.527 334.292C190.249 334.29 189.98 334.398 189.781 334.592C189.516 334.871 189.32 335.208 189.209 335.575C189.098 335.943 189.075 336.331 189.143 336.709C189.371 339.404 192.397 344.257 194.271 345.52C195.423 346.216 196.758 346.556 198.106 346.495C199.453 346.434 200.753 345.975 201.841 345.177C202.219 344.837 202.517 344.419 202.713 343.951C204.763 346.164 207.678 348.579 210.761 347.5Z" fill="#F54284"/>
<g style="mix-blend-mode:multiply" opacity="0.5">
<path d="M176.456 308.955C177.407 312.785 173.782 315.364 178.868 317.33C171.752 319.822 172.791 324.425 182.421 330.596C180.394 330.644 182.18 338.123 182.491 339.194C184.393 345.556 188.826 349.112 193.265 353.575C194.845 354.729 196.606 355.615 198.477 356.197C200.062 353.208 202.759 350.956 205.987 349.924C206.319 349.814 206.681 349.837 206.996 349.988C207.311 350.139 207.555 350.406 207.676 350.733C210.88 358.843 205.806 371.11 219.982 368.299C225.139 367.271 229.495 374.212 226.912 378.54C222.523 385.886 229.056 393.842 233.314 400.131C233.521 400.418 233.647 400.756 233.678 401.109C233.709 401.463 233.643 401.818 233.489 402.137C233.334 402.457 233.096 402.729 232.8 402.925C232.504 403.122 232.16 403.235 231.805 403.253C230.585 403.485 229.554 403.626 228.507 403.72C218.709 399.371 212.48 388.495 216.48 378.627C202.563 376.563 194.491 371.869 197.552 359.205C182.927 358.128 158.719 327.122 176.456 308.955Z" fill="#FBA0C7"/>
</g>
<path d="M253.878 417.087C256.825 422.383 267.456 437.915 254.028 431.116C255.218 437.637 247.647 439.276 240.334 423.671C250.568 423.018 253.878 417.087 253.878 417.087Z" fill="#CB423A"/>
<path d="M287.261 376.858C289.486 388.267 295.196 410.035 290.879 416.176C286.562 422.317 285.593 422.708 281.163 419.98C276.734 417.252 267.05 385.322 266.613 379.912C266.176 374.503 287.261 376.858 287.261 376.858Z" fill="#FBD094"/>
<path d="M277.451 275.225C287.978 284.22 291.099 292.204 286.014 297.822C296.518 301.808 297.176 322.751 291.898 327.893C304.098 339.026 302.154 356.252 289.669 360.844C294.103 368.601 307.249 381.321 285.339 391.288C263.429 401.255 258.886 377.354 264.45 371.542C256.661 370.963 246.519 357.904 253.638 348.098C244.378 344.468 226.523 327.445 236.562 313.751C246.601 300.057 277.451 275.225 277.451 275.225Z" fill="url(#paint2_linear_314_2443)"/>
<path d="M249.602 309.185C250.266 308.943 250.881 308.583 251.416 308.122C252.402 307.288 253.163 306.22 253.629 305.017C254.094 303.814 254.249 302.514 254.08 301.237C256.22 302.047 258.591 302.018 260.714 301.158C261.788 300.653 262.707 299.87 263.374 298.891C264.04 297.911 264.431 296.771 264.504 295.591C265.297 289.569 259.117 283.291 254.473 280.768C254.231 280.637 253.947 280.607 253.683 280.684C253.418 280.761 253.195 280.939 253.061 281.179C252.927 281.419 252.894 281.702 252.968 281.966C253.042 282.23 253.218 282.454 253.458 282.589C257.636 284.86 263.062 290.546 262.434 295.33C262.398 296.148 262.145 296.942 261.7 297.631C261.256 298.319 260.635 298.878 259.903 299.25C257.936 300.172 254.978 299.678 252.604 298.175C252.396 298.042 252.146 297.987 251.901 298.021C251.655 298.054 251.429 298.174 251.263 298.358C251.097 298.543 251.003 298.78 250.997 299.027C250.99 299.274 251.072 299.516 251.228 299.708C252.918 301.709 252.016 304.93 250.135 306.509C249.853 306.801 249.509 307.027 249.128 307.169C248.746 307.312 248.338 307.367 247.933 307.331C247.528 307.294 247.137 307.168 246.788 306.96C246.439 306.753 246.141 306.469 245.917 306.131C245.829 306.027 245.72 305.941 245.598 305.879C245.476 305.816 245.343 305.778 245.206 305.767C245.069 305.756 244.932 305.772 244.801 305.814C244.67 305.856 244.549 305.923 244.444 306.012C244.339 306.101 244.253 306.209 244.19 306.331C244.127 306.452 244.089 306.585 244.078 306.722C244.066 306.858 244.082 306.996 244.124 307.126C244.165 307.256 244.232 307.377 244.321 307.481C244.911 308.281 245.738 308.875 246.685 309.181C247.632 309.486 248.653 309.488 249.602 309.185Z" fill="#F54284"/>
<path d="M261.371 327.522C262.527 327.022 263.549 326.257 264.352 325.288C265.155 324.319 265.717 323.175 265.991 321.95C266.254 321.07 266.247 320.133 265.971 319.259C265.695 318.385 265.163 317.614 264.443 317.046C264.334 316.962 264.209 316.902 264.076 316.867C263.943 316.833 263.804 316.826 263.668 316.845C263.532 316.865 263.401 316.912 263.284 316.983C263.166 317.054 263.063 317.148 262.982 317.259C262.899 317.367 262.838 317.49 262.803 317.622C262.768 317.753 262.76 317.891 262.779 318.026C262.798 318.16 262.844 318.29 262.915 318.406C262.985 318.523 263.079 318.624 263.189 318.704C263.58 319.04 263.861 319.485 263.998 319.982C264.135 320.479 264.121 321.005 263.958 321.494C263.764 322.431 263.335 323.303 262.711 324.03C262.086 324.756 261.288 325.313 260.39 325.648C259.657 325.743 258.912 325.691 258.2 325.495C257.488 325.3 256.822 324.964 256.243 324.507C254.543 323.404 253.327 321.699 252.841 319.734C252.825 319.595 252.781 319.46 252.712 319.338C252.643 319.216 252.55 319.109 252.438 319.024C252.327 318.939 252.199 318.877 252.063 318.842C251.926 318.808 251.784 318.801 251.645 318.823C251.506 318.844 251.373 318.894 251.253 318.968C251.134 319.042 251.031 319.14 250.95 319.255C250.869 319.37 250.812 319.5 250.783 319.637C250.754 319.774 250.752 319.916 250.779 320.054C251.353 322.584 252.887 324.793 255.059 326.218C255.862 326.839 256.784 327.29 257.768 327.545C258.752 327.8 259.778 327.853 260.784 327.702C260.983 327.656 261.18 327.596 261.371 327.522Z" fill="#F54284"/>
<g style="mix-blend-mode:multiply" opacity="0.5">
<path d="M241.313 325.314C241.474 325.211 241.662 325.157 241.853 325.157C242.044 325.158 242.231 325.214 242.391 325.318C242.551 325.422 242.678 325.57 242.756 325.744C242.833 325.918 242.859 326.111 242.829 326.3C242.291 331.675 255.042 338.88 259.32 338.834C267.478 338.869 269.011 348.822 262.059 352.229C258.661 353.899 260.3 365.306 265.288 365.167C270.776 365.009 276.121 372.396 271.194 376.87C267.621 380.118 277.844 388.428 281.306 392.779C262.912 398.182 259.237 376.946 264.441 371.519C256.652 370.94 246.51 357.881 253.629 348.075C249.737 346.547 244.324 342.646 240.111 337.638C239.269 334.081 236.942 327.622 241.313 325.314Z" fill="#FBA0C7"/>
</g>
<path d="M292.718 404.408C293.924 412.051 295.524 430.409 285.99 421.352C282.152 430.125 278 419.196 275.493 410.44C282.663 412.519 292.718 404.408 292.718 404.408Z" fill="#CB423A"/>
<path d="M280.262 354.308C282.105 353.662 283.246 351.681 283.928 349.614C284.448 350.165 285.089 350.588 285.802 350.849C286.514 351.11 287.278 351.203 288.033 351.12C289.893 350.857 291.288 349.267 291.768 346.921C292.114 344.517 291.898 342.067 291.139 339.762C290.379 337.458 289.096 335.36 287.388 333.633C287.189 333.45 286.925 333.352 286.653 333.359C286.381 333.367 286.122 333.481 285.933 333.676C285.743 333.871 285.637 334.132 285.637 334.403C285.638 334.674 285.744 334.934 285.934 335.128C287.39 336.617 288.489 338.417 289.146 340.392C289.804 342.367 290.004 344.466 289.732 346.531C289.418 347.938 288.728 348.905 287.764 349.049C287.056 349.046 286.365 348.833 285.78 348.438C285.194 348.043 284.74 347.483 284.475 346.829C284.378 346.644 284.227 346.493 284.042 346.395C283.857 346.298 283.646 346.259 283.438 346.284C283.228 346.307 283.03 346.393 282.872 346.532C282.713 346.672 282.601 346.856 282.552 347.061C281.727 350.203 280.761 351.942 279.614 352.344C278.675 352.672 277.351 352.163 275.71 350.858C275.602 350.773 275.479 350.71 275.347 350.672C275.215 350.635 275.077 350.624 274.941 350.64C274.804 350.656 274.672 350.698 274.552 350.765C274.432 350.832 274.326 350.921 274.241 351.029C274.155 351.136 274.092 351.259 274.054 351.391C274.016 351.522 274.005 351.66 274.021 351.796C274.036 351.932 274.079 352.064 274.145 352.183C274.212 352.303 274.301 352.408 274.409 352.493C276.678 354.292 278.601 354.915 280.259 354.335L280.262 354.308Z" fill="#F54284"/>
<path d="M215.852 244.979C231.929 239.35 252.46 226.896 260.07 209.164C260.264 208.661 260.255 208.103 260.045 207.607C259.834 207.111 259.439 206.717 258.942 206.506C258.446 206.296 257.886 206.285 257.381 206.478C256.876 206.67 256.465 207.05 256.235 207.538C248.884 224.673 228.182 236.603 212.695 241.65C196.244 246.928 178.719 247.908 161.798 244.496C151.151 242.22 142.253 239.553 133.458 233.945C133.227 233.797 132.969 233.697 132.699 233.649C132.429 233.601 132.152 233.606 131.884 233.665C131.615 233.724 131.361 233.835 131.136 233.992C130.911 234.149 130.719 234.349 130.571 234.58C130.277 235.048 130.179 235.611 130.297 236.149C130.414 236.687 130.739 237.157 131.201 237.458C141.077 243.738 151.293 246.528 160.919 248.564C178.558 252.12 196.826 251.103 213.977 245.61L215.852 244.979Z" fill="#E85072"/>
<path d="M217.126 254.194C238.5 246.71 253.645 231.915 260.733 210.723C260.908 210.199 260.868 209.627 260.621 209.134C260.374 208.64 259.94 208.265 259.415 208.092C258.89 207.918 258.317 207.959 257.821 208.207C257.326 208.454 256.949 208.888 256.774 209.412C240.598 257.866 186.324 257.2 163.785 254.667C154.365 253.502 145.191 250.859 136.605 246.835C136.107 246.643 135.554 246.648 135.06 246.851C134.565 247.053 134.166 247.437 133.946 247.923C133.726 248.409 133.701 248.96 133.876 249.463C134.051 249.966 134.413 250.382 134.888 250.626C143.868 254.847 153.468 257.613 163.327 258.821C183.917 261.103 202.069 259.467 217.126 254.194Z" fill="#E85072"/>
<path d="M179.393 262.118C179.36 262.025 179.328 261.932 179.396 261.829C179.393 261.903 179.392 261.977 179.396 262.051L179.393 262.118Z" fill="#11E3CB"/>
<path d="M169.525 293.437L169.775 293.219C169.697 293.297 169.613 293.37 169.525 293.437Z" fill="#ED1E8E"/>
<path d="M219.089 273.293C220.249 274.896 220.799 284.234 225.354 283.975C229.711 283.746 230.018 274.328 231.461 273.655C232.903 272.981 243.213 276.113 244.152 271.363C244.848 267.813 236.794 264.396 236.263 262.287C235.733 260.177 241.607 253.206 238.621 250.738C234.94 247.657 228.771 255.419 227.111 255.027C224.711 254.454 220.119 246.208 216.199 249.357C212.279 252.506 218.061 260.284 217.041 261.795C215.691 263.811 206.961 265.079 207.707 269.81C208.36 274.015 218.095 271.903 219.089 273.293Z" fill="#FBDF53"/>
<g style="mix-blend-mode:color-dodge" opacity="0.6">
<path d="M216.997 260.255C216.192 257.399 213.101 251.843 216.211 249.353C220.155 246.196 224.724 254.451 227.123 255.024C228.795 255.411 234.953 247.653 238.634 250.734C241.619 253.203 235.757 260.17 236.276 262.283C236.795 264.396 243.591 267.268 244.152 270.508C235.587 265.481 226.955 260.749 216.997 260.255Z" fill="#FBFB0D"/>
</g>
<g style="mix-blend-mode:multiply" opacity="0.5">
<path d="M207.696 269.814C207.601 269.224 207.667 268.618 207.889 268.061C207.96 268.17 208.054 268.263 208.164 268.334C208.274 268.405 208.398 268.452 208.527 268.473C226.988 266.456 220.784 280.623 224.821 281.076C230.755 281.747 223.738 266.168 243.921 272.041C242.164 275.794 232.822 273.01 231.473 273.651C230.123 274.293 229.719 283.731 225.366 283.972C220.823 284.266 220.261 274.893 219.101 273.289C218.095 271.904 208.36 274.016 207.696 269.814Z" fill="#FBC571"/>
</g>
<path d="M148.56 77.7785C147.303 79.601 145.691 81.1531 143.821 82.3423C139.603 79.2965 134.521 77.6662 129.308 77.6862L121.917 27.6299L148.56 77.7785Z" fill="#FBFE79"/>
<path d="M142.295 65.981C139.972 67.01 137.456 67.5327 134.916 67.5142C132.376 67.4958 129.87 66.9365 127.567 65.8738L121.926 27.6527L142.295 65.981Z" fill="#FBE957"/>
<path d="M121.917 27.6295L133.776 49.9415C130.824 50.5952 127.738 50.2042 125.048 48.8355L121.917 27.6295Z" fill="#FBCA54"/>
<g style="mix-blend-mode:multiply" opacity="0.4">
<path d="M138.351 79.3943C135.488 78.2033 132.407 77.6175 129.303 77.6739L123.631 39.1784C128.504 53.0191 131.32 67.2299 138.351 79.3943Z" fill="#FB5A80"/>
</g>
<path d="M200.901 102.992C207.141 101.04 205.127 123.867 192.971 128.655C180.816 133.443 171.688 122.388 168.303 120.19C164.917 117.991 156.743 122.033 156.151 126.883C155.559 131.732 152.098 147.194 140.184 150.069C128.269 152.944 114.492 140.912 114.57 137.902C114.648 134.893 153.868 120.511 153.868 120.511C156.045 116.326 163.318 113.312 168.184 115.615C168.188 115.627 197.55 104.049 200.901 102.992Z" fill="#9C2356"/>
<path d="M199.38 119.343L184.603 110.475L180.285 112.414L197.384 122.376L199.38 119.343Z" fill="#E07F7F"/>
<path d="M201.275 115.542L188.266 109.27L186.358 109.692L200.508 117.885L201.275 115.542Z" fill="#E07F7F"/>
<path d="M151.449 135.193L150.977 137.822L137.16 129.019L139.074 128.466L151.449 135.193Z" fill="#E07F7F"/>
<path d="M150.393 139.686L148.653 142.409L131.294 131.333L135.461 129.485L150.393 139.686Z" fill="#E07F7F"/>
<defs>
<radialGradient id="paint0_radial_314_2443" cx="0" cy="0" r="1" gradientUnits="userSpaceOnUse" gradientTransform="translate(157.553 113.568) rotate(160.702) scale(87.5158 87.208)">
<stop stop-color="#F7DC9A"/>
<stop offset="0.2" stop-color="#F7D697"/>
<stop offset="0.46" stop-color="#F7C68D"/>
<stop offset="0.74" stop-color="#F7AC7C"/>
<stop offset="1" stop-color="#F78E6A"/>
</radialGradient>
<linearGradient id="paint1_linear_314_2443" x1="240.099" y1="411.656" x2="197.92" y2="293.723" gradientUnits="userSpaceOnUse">
<stop stop-color="#FB6C99"/>
<stop offset="0.09" stop-color="#FB6F98"/>
<stop offset="0.52" stop-color="#FB7A95"/>
<stop offset="1" stop-color="#FB7E94"/>
</linearGradient>
<linearGradient id="paint2_linear_314_2443" x1="-37505.8" y1="56264.9" x2="-38543" y2="46645.7" gradientUnits="userSpaceOnUse">
<stop stop-color="#FB6C99"/>
<stop offset="0.09" stop-color="#FB6F98"/>
<stop offset="0.52" stop-color="#FB7A95"/>
<stop offset="1" stop-color="#FB7E94"/>
</linearGradient>
</defs>
</svg>
