<svg width="152" height="193" viewBox="0 0 152 193" fill="none" xmlns="http://www.w3.org/2000/svg">
<path d="M100.187 83.6936C98.1161 83.3326 96.3471 83.5516 96.2381 84.1806L80.4021 175.008C80.2921 175.636 81.8821 176.441 83.9531 176.802C86.0241 177.163 87.7921 176.945 87.9021 176.316L103.739 85.4935C103.845 84.8605 102.258 84.0566 100.187 83.6936Z" fill="url(#paint0_linear_635_17696)"/>
<path style="mix-blend-mode:multiply" opacity="0.5" d="M100.187 83.6936C98.1161 83.3326 96.3471 83.5516 96.2381 84.1806L80.4021 175.008C80.2921 175.636 81.8821 176.441 83.9531 176.802C86.0241 177.163 87.7921 176.945 87.9021 176.316L103.739 85.4935C103.845 84.8605 102.258 84.0566 100.187 83.6936Z" fill="url(#paint1_linear_635_17696)"/>
<g style="mix-blend-mode:multiply" opacity="0.2">
<path d="M95.6171 87.7402L94.3911 94.7653C94.6261 94.8103 94.8561 94.8653 95.0911 94.9053C97.4201 95.3123 101.305 93.4683 102.607 91.9783L103.124 89.0162C101.817 88.9403 100.515 88.7904 99.2241 88.5673C98.0081 88.3552 96.8041 88.0791 95.6171 87.7402Z" fill="#727272"/>
</g>
<g style="mix-blend-mode:multiply" opacity="0.2">
<path d="M103.118 89.0522V89.0192C101.811 88.9422 100.509 88.7913 99.2181 88.5673C98.0044 88.355 96.8027 88.0789 95.6181 87.7402L94.9041 91.8292C95.1391 91.8752 95.37 91.9293 95.604 91.9703C97.931 92.3763 101.852 91.2942 103.118 89.0522Z" fill="#727272"/>
</g>
<path d="M151.333 53.5368C149.863 61.9711 145.924 69.7801 140.016 75.9761C134.107 82.1721 126.494 86.477 118.139 88.3462C109.784 90.2154 101.062 89.5651 93.0769 86.4775C85.0915 83.3899 78.201 78.0036 73.2767 70.9999C68.3524 63.9961 65.6156 55.6895 65.4124 47.1303C65.2091 38.5711 67.5485 30.1439 72.1347 22.9143C76.7209 15.6846 83.3479 9.97734 91.1778 6.51411C99.0076 3.05087 107.689 1.98726 116.123 3.45774C127.433 5.42957 137.496 11.8135 144.1 21.2051C150.703 30.5967 153.305 42.2267 151.333 53.5368Z" fill="url(#paint2_radial_635_17696)"/>
<path opacity="0.7" d="M81.7851 12.362C65.0281 25.517 59.6711 51.3029 71.9561 69.8199C83.0061 85.5379 103.335 92.5299 121.815 85.4079C129.111 82.4816 135.431 77.5535 140.047 71.1914C144.664 64.8293 147.389 57.2923 147.908 49.449C148.34 42.4122 146.804 35.3942 143.473 29.1808C140.142 22.9675 135.147 17.8041 129.047 14.269C120.815 9.58454 111.103 8.22342 101.9 10.4642C92.6966 12.705 84.6977 18.3783 79.5401 26.323C65.2721 48.831 82.3531 79.3909 109.305 78.0569C124.105 77.1899 135.498 66.2469 137.977 52.0259C140.456 37.8049 130.243 22.2349 115.187 19.6089C105.84 18.8419 95.0741 21.2739 89.2871 29.7469C84.4871 37.5269 82.7331 47.5659 87.2751 56.1139C93.8901 67.6139 109.491 72.055 120.588 62.785C126.628 57.805 129.759 49.733 127.581 42.456C125.648 37.6305 122.067 33.6469 117.473 31.214C110.383 27.393 103.945 29.714 98.7411 34.842C91.4281 42.187 95.2411 54.9189 105.133 57.5039C110.989 58.5259 117.033 53.545 117.212 47.545C117.251 42.38 112.125 37.1769 107.212 40.6299C105.246 42.0119 104.079 48.702 108.7 46.923C108.847 46.086 107.318 44.957 108.447 43.43C109.43 42.739 111.54 40.522 114.303 44.451C116.228 48.234 113.68 52.9619 110.045 54.0509C108.461 54.3988 106.819 54.376 105.246 53.9842C103.672 53.5925 102.211 52.8425 100.975 51.7927C99.7396 50.743 98.7633 49.4219 98.1225 47.9325C97.4817 46.4432 97.1937 44.8259 97.2811 43.207C97.8557 39.9381 99.5951 36.9881 102.177 34.9029C104.759 32.8177 108.01 31.7385 111.326 31.865C124.854 33.365 130.303 51.5509 120.188 60.1299C117.849 62.1433 115.093 63.614 112.118 64.4364C109.143 65.2589 106.023 65.4128 102.982 64.8869C91.4171 62.0099 84.9481 49.6759 87.8261 38.1119C88.966 34.4642 90.9863 31.1532 93.7087 28.4711C96.431 25.789 99.7718 23.8183 103.436 22.733C111.548 20.699 120.059 21.321 126.712 27.652C136.273 37.077 138.268 50.3519 132.044 61.3349C125.82 72.3179 113.78 77.1119 102.068 75.0699C95.2704 73.8459 89.0848 70.3635 84.5127 65.1864C79.9405 60.0094 77.2494 53.4408 76.8751 46.5439C76.9921 31.0499 86.3081 17.16 101.695 12.944C110.464 10.6733 119.771 11.8785 127.672 16.3078C135.573 20.737 141.457 28.0478 144.095 36.7129C145.64 42.0625 146.019 47.6811 145.207 53.1896C144.395 58.6982 142.411 63.9685 139.389 68.6449C133.603 77.1179 124.073 82.351 114.141 84.928C92.7531 88.957 72.9011 74.2919 67.8901 53.5929C65.6031 41.9929 67.7901 29.442 75.4501 19.805C77.3875 17.1808 79.5042 14.6938 81.7851 12.362Z" fill="url(#paint3_linear_635_17696)"/>
<path style="mix-blend-mode:screen" opacity="0.5" d="M132.729 76.8069C114.562 88.8139 89.972 83.6299 77.814 65.2319C65.656 46.8339 70.526 22.1789 88.697 10.1699C106.868 -1.83909 131.453 3.34789 143.614 21.7489C155.775 40.1499 150.9 64.7999 132.729 76.8069Z" fill="url(#paint4_linear_635_17696)"/>
<path style="mix-blend-mode:screen" opacity="0.5" d="M145.505 53.6687C137.167 62.0557 120.817 59.3187 108.989 47.5587C97.161 35.7987 94.338 19.4647 102.68 11.0777C111.022 2.69067 127.368 5.42371 139.196 17.1857C151.024 28.9477 153.845 45.2797 145.505 53.6687Z" fill="url(#paint5_radial_635_17696)"/>
<path style="mix-blend-mode:screen" opacity="0.4" d="M145.345 51.4198C137.762 59.6938 122.358 57.9147 110.935 47.4527C99.512 36.9907 96.398 21.7927 103.978 13.5217C111.558 5.25075 126.962 7.02177 138.385 17.4898C149.808 27.9578 152.925 43.1458 145.345 51.4198Z" fill="url(#paint6_linear_635_17696)"/>
<g style="mix-blend-mode:screen" opacity="0.5">
<path d="M137.301 36.3983C134.562 39.3883 129.001 38.7453 124.868 34.9663C120.735 31.1873 119.617 25.6944 122.354 22.7054C125.091 19.7164 130.661 20.3584 134.788 24.1404C138.915 27.9224 140.045 33.4093 137.301 36.3983Z" fill="white"/>
</g>
<path style="mix-blend-mode:multiply" d="M112.959 53.8093C114.795 28.1329 95.4697 5.82898 69.7933 3.99208C44.117 2.15518 21.8131 21.4809 19.9762 47.1573C18.1392 72.8336 37.465 95.1375 63.1413 96.9744C88.8177 98.8113 111.122 79.4856 112.959 53.8093Z" fill="url(#paint7_radial_635_17696)"/>
<path d="M53.835 86.6175C51.475 87.0095 49.658 87.9175 49.777 88.6305L67.057 192.201C67.178 192.92 69.189 193.184 71.551 192.788C73.913 192.392 75.731 191.488 75.611 190.775L58.33 87.2035C58.211 86.4845 56.198 86.2225 53.835 86.6175Z" fill="url(#paint8_linear_635_17696)"/>
<path style="mix-blend-mode:multiply" opacity="0.5" d="M53.835 86.6175C51.475 87.0095 49.658 87.9175 49.777 88.6305L67.057 192.201C67.178 192.92 69.189 193.184 71.551 192.788C73.913 192.392 75.731 191.488 75.611 190.775L58.33 87.2035C58.211 86.4845 56.198 86.2225 53.835 86.6175Z" fill="url(#paint9_linear_635_17696)"/>
<g style="mix-blend-mode:multiply" opacity="0.2">
<path d="M50.4539 92.6935L51.7899 100.701C52.0579 100.663 52.3249 100.633 52.5899 100.589C55.2459 100.146 58.7259 96.6984 59.5619 94.6064L58.9979 91.2305C56.2119 92.033 53.3453 92.5236 50.4509 92.6935H50.4539Z" fill="#727272"/>
</g>
<g style="mix-blend-mode:multiply" opacity="0.2">
<path d="M59.0081 91.2665L59.0011 91.2285C57.5663 91.6404 56.1093 91.9705 54.6371 92.2175C53.2519 92.4469 51.8557 92.6045 50.4541 92.6895L51.2321 97.3515C51.5001 97.3125 51.7671 97.2825 52.0321 97.2375C54.6901 96.7945 58.4951 94.1525 59.0081 91.2665Z" fill="#727272"/>
</g>
<path d="M27.8801 63.5187C34.6952 67.7237 41.5742 67.1987 48.5061 64.8117C53.4981 63.0907 56.1251 56.9177 55.0481 53.5047C54.6851 50.1527 52.3821 47.0207 47.1931 46.6927C47.1601 52.6507 39.7351 57.8397 34.0281 55.0807C25.0421 50.4047 24.6031 39.8567 27.2601 31.7987C35.5331 10.4137 64.4602 10.0987 79.0002 26.8847C89.5932 39.8607 92.7321 55.7677 85.1741 70.7167C84.1151 72.8768 82.8449 74.9268 81.3821 76.8367C79.3961 78.9637 80.1692 78.7937 82.3212 76.1077C83.8867 74.1498 85.2827 72.0623 86.4941 69.8677C94.2051 56.3127 94.7832 42.1237 89.7762 28.5397C86.2677 19.9101 80.2351 12.5411 72.4682 7.39771C73.2682 7.98671 72.5111 8.3597 68.5681 6.9787C48.4301 -0.878297 22.5821 8.28767 16.4801 30.1427C12.8861 42.5427 15.7982 56.3547 27.8801 63.5187Z" fill="url(#paint10_radial_635_17696)"/>
<g style="mix-blend-mode:multiply" opacity="0.15">
<g style="mix-blend-mode:multiply" opacity="0.15">
<path d="M34.0282 55.0811C25.0422 50.4051 24.6032 39.857 27.2602 31.799C35.5332 10.414 64.4602 10.099 79.0002 26.885C89.5932 39.861 92.7322 55.7681 85.1742 70.7171C96.7382 52.7481 91.1472 33.554 79.4332 21.578C60.3332 2.05102 31.2122 8.67007 22.9402 30.0551C18.7052 42.6281 22.5212 55.021 32.0222 58.531C41.1502 61.903 53.7852 55.6121 47.1932 46.6931C47.1602 52.6511 39.7352 57.8401 34.0282 55.0811Z" fill="#E54D39"/>
</g>
<g style="mix-blend-mode:multiply" opacity="0.15">
<path d="M89.7762 28.5397C86.2677 19.9101 80.2351 12.5411 72.4682 7.39771C73.2682 7.98671 72.5112 8.3597 68.5681 6.9787C48.4301 -0.878297 22.5822 8.28767 16.4802 30.1427C12.8802 42.5427 15.7942 56.3547 27.8802 63.5187C34.6952 67.7237 41.5742 67.1987 48.5062 64.8117C53.4982 63.0907 56.1251 56.9177 55.0481 53.5047C54.6851 50.1527 52.3821 47.0207 47.1931 46.6927C51.2731 49.5627 51.6102 55.4857 49.2592 58.3547C45.2592 63.2397 37.5701 65.1107 27.0001 58.6547C20.6391 54.7687 16.0232 42.4117 19.6212 30.0137C25.7212 8.15771 50.6312 3.9887 67.6492 9.9787C71.5892 11.3607 83.0351 18.0167 86.6581 26.9227C91.6651 40.5057 94.2051 56.3107 86.4941 69.8657C94.2051 56.3127 94.7832 42.1237 89.7762 28.5397Z" fill="#E54D39"/>
</g>
</g>
<g style="mix-blend-mode:multiply" opacity="0.2">
<g style="mix-blend-mode:multiply" opacity="0.2">
<path d="M34.0282 55.0814C25.0422 50.4054 24.6032 39.8574 27.2602 31.7994C35.5332 10.4144 64.4603 10.0994 79.0003 26.8854C89.5933 39.8614 92.7323 55.7684 85.1743 70.7174C95.1673 55.0274 91.6093 36.3244 79.8963 24.3494C60.7962 4.82043 32.8292 9.82441 24.5572 31.2094C21.8992 39.2674 22.4633 53.6094 31.9643 57.1174C41.0923 60.4894 51.7692 54.9104 47.1932 46.6934C47.1602 52.6514 39.7352 57.8404 34.0282 55.0814Z" fill="#E54D39"/>
</g>
<g style="mix-blend-mode:multiply" opacity="0.2">
<path d="M89.7762 28.5397C86.2677 19.9101 80.2351 12.5411 72.4682 7.39771C73.2682 7.98671 72.5112 8.3597 68.5681 6.9787C48.4301 -0.878297 22.5822 8.28767 16.4802 30.1427C12.8802 42.5427 15.7942 56.3547 27.8802 63.5187C34.6952 67.7237 41.5742 67.1987 48.5062 64.8117C53.4982 63.0907 56.1251 56.9177 55.0481 53.5047C54.6851 50.1527 52.3821 47.0207 47.1931 46.6927C51.6272 47.9687 55.6931 53.8677 51.8931 59.2847C49.1641 63.1767 38.8142 68.1367 27.4642 61.4287C21.0472 57.6347 13.4922 46.1707 18.3442 29.5287C24.6982 7.74472 51.7861 2.3707 68.8051 8.3617C72.7441 9.7447 84.4211 17.7857 88.0441 26.6897C93.0521 40.2737 94.2061 56.3107 86.4951 69.8657C94.2051 56.3127 94.7832 42.1237 89.7762 28.5397Z" fill="#E54D39"/>
</g>
</g>
<path d="M22.8881 86.1427C23.5681 86.5427 24.2534 86.9261 24.9441 87.2927C27.0441 88.4017 26.7501 87.2617 29.7021 88.0747C53.8611 94.6037 81.9871 73.8877 77.0111 47.5867C74.4761 37.2657 66.3581 27.5507 54.9591 26.6697C46.4291 26.1837 37.7321 30.6597 37.9441 39.1127C37.7041 43.3297 42.3141 47.6977 46.9941 45.9377C48.3341 44.0237 52.5791 39.2257 59.3391 43.1477C67.8841 48.1057 68.5251 60.5167 60.2821 69.1827C52.0391 77.8487 39.5501 79.9107 28.5461 76.1607C15.2971 71.2437 6.25209 59.5097 4.03709 45.6237C3.25437 40.2299 3.59452 34.7325 5.03621 29.4763C6.4779 24.2201 8.99004 19.3184 12.4151 15.0787C13.0151 14.3387 12.3571 14.9667 11.6621 15.7277C4.11417 24.5813 -0.021801 35.8405 8.64265e-05 47.4747C0.345086 63.6837 9.62009 77.5107 22.8881 86.1427Z" fill="url(#paint11_radial_635_17696)"/>
<g style="mix-blend-mode:multiply" opacity="0.15">
<g style="mix-blend-mode:multiply" opacity="0.15">
<path d="M77.0111 47.5884C74.4761 37.2674 66.3581 27.5524 54.9591 26.6714C46.4291 26.1854 37.7321 30.6614 37.9441 39.1144C37.7041 43.3314 42.3141 47.6994 46.9941 45.9394C43.0941 45.9334 41.7811 41.2713 42.4411 38.1393C43.5901 35.9313 45.9731 28.0854 59.6541 31.0554C64.2351 32.0494 71.0041 37.4034 73.5381 47.7244C78.5141 74.0244 53.3931 91.0364 29.2381 84.5094C26.6153 83.704 24.0714 82.6609 21.6381 81.3934C8.37112 72.7614 3.67512 58.3984 2.08612 47.1344C0.880123 38.5794 4.25412 24.3494 11.6711 15.7344C4.12321 24.5879 -0.0127677 35.8471 0.00911963 47.4814C0.35612 63.6904 9.62912 77.5174 22.8971 86.1494C23.5771 86.5494 24.2625 86.9327 24.9531 87.2994C27.0531 88.4084 26.7591 87.2684 29.7111 88.0814C53.8611 94.6054 81.9871 73.8894 77.0111 47.5884Z" fill="#E54D39"/>
</g>
<g style="mix-blend-mode:multiply" opacity="0.15">
<path d="M59.3391 43.149C67.8841 48.107 68.5251 60.5181 60.2821 69.1841C52.0391 77.8501 39.5501 79.912 28.5461 76.162C15.2971 71.245 6.25214 59.5111 4.03714 45.6251C3.25442 40.2312 3.59457 34.7339 5.03626 29.4777C6.47795 24.2215 8.99008 19.3198 12.4151 15.0801C5.70814 23.3981 0.996134 34.604 1.95913 45.972C3.44713 63.523 14.1841 74.2531 27.1991 79.7621C39.7111 85.0621 57.1481 80.304 64.9331 71.2271C77.4491 56.634 70.2961 42.538 62.0791 37.053C54.8691 32.239 43.7731 37.0221 46.9941 45.9391C48.3341 44.0251 52.5791 39.227 59.3391 43.149Z" fill="#E54D39"/>
</g>
</g>
<g style="mix-blend-mode:multiply" opacity="0.2">
<g style="mix-blend-mode:multiply" opacity="0.2">
<path d="M77.011 47.5886C74.476 37.2676 66.358 27.5526 54.959 26.6716C46.429 26.1856 37.732 30.6616 37.944 39.1146C37.704 43.3316 42.314 47.6996 46.994 45.9396C43.094 45.9336 39.702 41.6176 40.363 38.4816C40.278 32.1356 46.669 28.3996 55.199 28.8816C66.599 29.7626 73.091 37.4926 75.624 47.8126C80.601 74.1126 53.515 92.5226 29.355 85.9936C26.7315 85.1896 24.1875 84.1462 21.755 82.8766C8.48799 74.2466 1.73699 63.4496 1.38899 47.2396C1.41899 35.3526 4.24899 24.3396 11.666 15.7246C4.11807 24.5782 -0.0178947 35.8374 0.00399268 47.4716C0.350993 63.6806 9.62399 77.5076 22.892 86.1396C23.572 86.5396 24.2573 86.9229 24.948 87.2896C27.048 88.3986 26.754 87.2586 29.706 88.0716C53.861 94.6056 81.987 73.8896 77.011 47.5886Z" fill="#E54D39"/>
</g>
<g style="mix-blend-mode:multiply" opacity="0.2">
<path d="M59.339 43.149C67.884 48.107 68.525 60.5181 60.282 69.1841C52.039 77.8501 39.55 79.912 28.546 76.162C15.297 71.245 6.25201 59.5111 4.03701 45.6251C3.25429 40.2312 3.59444 34.7339 5.03613 29.4777C6.47782 24.2215 8.98996 19.3198 12.415 15.0801C5.70801 23.3981 0.651007 34.6241 2.65201 45.8561C5.81501 63.6161 15.644 73.3231 28.893 78.2401C39.893 81.9901 55.945 79.7901 63.375 70.4181C74.109 56.8801 70.547 45.106 62.33 39.618C55.119 34.805 45.601 40.4521 46.994 45.9361C48.334 44.0251 52.579 39.227 59.339 43.149Z" fill="#E54D39"/>
</g>
</g>
<path d="M26.2551 87.8765C46.7971 97.3325 74.6451 92.1555 85.1741 70.7125C92.7321 55.7635 89.5921 39.8585 78.9991 26.8795C64.4611 10.0935 35.5321 10.4085 27.2591 31.7935C24.6031 39.8535 25.0421 50.4015 34.0271 55.0765C39.9921 57.9615 47.8371 52.1635 47.1551 45.8765C42.4201 47.8045 37.7001 43.3765 37.9441 39.1065C37.7321 30.6525 46.4291 26.1765 54.9581 26.6625C66.3581 27.5445 74.4761 37.2625 77.0101 47.5785C81.9861 73.8785 53.8611 94.5975 29.7021 88.0675C26.7451 87.2595 25.3521 87.4615 26.2551 87.8765Z" fill="url(#paint12_radial_635_17696)"/>
<g style="mix-blend-mode:multiply" opacity="0.15">
<g style="mix-blend-mode:multiply" opacity="0.15">
<path d="M37.9452 39.1098C37.7332 30.6558 46.4302 26.1799 54.9592 26.6659C66.3592 27.5479 74.4772 37.2659 77.0112 47.5819C81.9872 73.8819 53.8622 94.6008 29.7032 88.0708C26.9872 87.3228 25.5922 87.4368 26.0882 87.7818C26.4612 87.8558 27.8162 88.2128 29.8192 88.7638C55.8762 95.8768 86.1302 76.5889 81.1672 46.8899C78.6332 36.5679 71.3332 22.1009 54.1512 21.8169C45.6082 21.6769 31.8512 27.6168 34.5972 40.3808C35.9572 46.6958 43.7742 51.0808 47.1562 45.8808C42.4202 47.8078 37.7002 43.3758 37.9452 39.1098Z" fill="#9E001D"/>
</g>
<g style="mix-blend-mode:multiply" opacity="0.15">
<path d="M78.9991 26.8795C64.4611 10.0935 35.5321 10.4085 27.2591 31.7935C24.6031 39.8535 25.0421 50.4015 34.0271 55.0765C39.9921 57.9615 47.8371 52.1635 47.1551 45.8765C47.8371 52.1605 37.9441 53.4765 33.9101 50.1085C31.5476 48.1619 29.8182 45.5559 28.9423 42.6227C28.0664 39.6895 28.0838 36.5618 28.9921 33.6385C34.2141 15.1185 61.5751 9.85954 76.1131 26.6465C86.7051 39.6245 87.7591 55.4865 81.7131 67.0175C70.6131 88.1695 47.3641 94.9805 26.2591 87.8735C46.8011 97.3295 74.6491 92.1525 85.1781 70.7095C92.7321 55.7635 89.5921 39.8585 78.9991 26.8795Z" fill="#9E001D"/>
</g>
</g>
<g style="mix-blend-mode:multiply" opacity="0.2">
<g style="mix-blend-mode:multiply" opacity="0.2">
<path d="M37.9452 39.1089C37.7332 30.6549 46.4302 26.1789 54.9592 26.6649C66.3592 27.5469 74.4772 37.2649 77.0112 47.5809C81.9872 73.8809 53.8622 94.5999 29.7032 88.0699C26.9872 87.3219 25.5922 87.4359 26.0882 87.7809C26.4612 87.8549 27.8162 88.2119 29.8192 88.7629C55.8762 95.8759 84.0651 73.5369 79.0891 47.2339C76.5551 36.9139 70.3532 24.0419 54.3812 23.2019C45.8492 22.7539 36.7282 29.1189 36.5592 39.3409C36.4832 43.9979 43.3092 49.3579 47.1592 45.8789C42.4202 47.8069 37.7002 43.3749 37.9452 39.1089Z" fill="#9E001D"/>
</g>
<g style="mix-blend-mode:multiply" opacity="0.2">
<path d="M78.9991 26.8795C64.4611 10.0935 35.5321 10.4085 27.2591 31.7935C24.6031 39.8535 25.0421 50.4015 34.0271 55.0765C39.9921 57.9615 47.8371 52.1635 47.1551 45.8765C47.8371 52.1605 38.0431 55.8095 31.8321 50.4555C28.1321 47.2625 26.3421 39.7275 28.6451 31.5605C33.8671 13.0405 62.9601 9.62853 77.4981 26.4155C88.0911 39.3925 89.2601 55.9485 83.2101 67.4795C72.1101 88.6315 47.3601 94.9795 26.2551 87.8735C46.7971 97.3295 74.6451 92.1525 85.1741 70.7095C92.7321 55.7635 89.5921 39.8585 78.9991 26.8795Z" fill="#9E001D"/>
</g>
</g>
<path d="M72.456 7.38466C70.4932 6.05908 68.4121 4.91789 66.2391 3.97566C56.2621 -0.682336 44.504 -0.838353 33.848 1.40865C24.2777 3.76293 15.9253 9.59285 10.4153 17.7644C4.90536 25.9359 2.63186 35.8647 4.03705 45.6196C6.25105 59.5076 15.2971 71.2386 28.5461 76.1586C39.5461 79.9066 52.0401 77.8447 60.2821 69.1787C68.524 60.5127 67.882 48.1026 59.339 43.1456C51.039 38.3296 46.533 46.6547 46.533 46.6547C52.195 46.7447 54.668 50.0086 55.048 53.4996C56.125 56.9156 53.498 63.0867 48.505 64.8067C41.573 67.1937 34.6941 67.7197 27.8791 63.5147C15.7991 56.3517 12.8861 42.5387 16.4791 30.1397C22.5791 8.28366 48.429 -0.882343 68.568 6.97466C72.534 8.36566 73.276 7.98066 72.456 7.38466Z" fill="url(#paint13_radial_635_17696)"/>
<g style="mix-blend-mode:multiply" opacity="0.15">
<g style="mix-blend-mode:multiply" opacity="0.15">
<path d="M59.339 43.1456C52.574 39.2186 48.328 44.0267 46.992 45.9367C48.243 44.1817 51.627 41.5827 58.3 45.4547C66.844 50.4117 64.2851 64.3137 56.0111 69.1807C47.6111 74.1157 38.8551 75.7497 27.8531 72.0037C14.6031 67.0847 10.407 58.8137 8.19305 44.9257C5.29305 24.7547 14.136 7.78666 34.0791 2.79466C44.7351 0.547664 56.2621 -0.682336 66.2391 3.97566C56.2621 -0.682336 44.504 -0.838353 33.848 1.40865C24.2777 3.76293 15.9253 9.59285 10.4153 17.7644C4.90536 25.9359 2.63186 35.8647 4.03705 45.6196C6.25105 59.5076 15.2971 71.2386 28.5461 76.1586C39.5461 79.9066 52.0401 77.8447 60.2821 69.1787C68.524 60.5127 67.883 48.1026 59.339 43.1456Z" fill="#9E0000"/>
</g>
<g style="mix-blend-mode:multiply" opacity="0.15">
<path d="M72.722 7.65488C72.775 7.89388 71.455 6.85489 68.34 5.59089C43.013 -4.68011 19.123 8.8619 13.019 30.7179C9.41902 43.1179 10.666 55.7639 22.219 63.7469C31.06 69.8539 42.254 70.9469 49.078 68.2699C55.808 65.6289 60.984 59.2769 59.2 52.8059C56.978 44.7519 48.708 43.9879 46.529 46.6549C52.191 46.7449 54.664 50.0089 55.044 53.4999C56.121 56.9159 53.494 63.0869 48.501 64.8069C41.569 67.1939 34.69 67.7199 27.875 63.5149C15.795 56.3519 12.882 42.5389 16.475 30.1399C22.575 8.2839 48.425 -0.882111 68.564 6.97489C71.879 8.13589 72.938 8.05688 72.722 7.65488Z" fill="#9E0000"/>
</g>
</g>
<g style="mix-blend-mode:multiply" opacity="0.2">
<g style="mix-blend-mode:multiply" opacity="0.2">
<path d="M59.339 43.1456C52.574 39.2186 48.328 44.0267 46.992 45.9367C48.243 44.1817 52.092 40.0807 58.762 43.9527C67.305 48.9107 66.0871 62.4897 58.7821 68.7177C51.264 75.1247 39.2021 77.8286 28.2001 74.0806C14.9501 69.1616 9.02205 59.0436 6.80705 45.1566C3.90705 24.9856 14.0211 7.09465 33.9641 2.10265C44.6191 -0.144352 56.2641 -0.682336 66.2391 3.97566C56.2621 -0.682336 44.504 -0.838353 33.848 1.40865C24.2777 3.76293 15.9253 9.59285 10.4153 17.7644C4.90536 25.9359 2.63186 35.8647 4.03705 45.6196C6.25105 59.5076 15.2971 71.2386 28.5461 76.1586C39.5461 79.9066 52.0401 77.8447 60.2821 69.1787C68.524 60.5127 67.883 48.1026 59.339 43.1456Z" fill="#9E0000"/>
</g>
<g style="mix-blend-mode:multiply" opacity="0.2">
<path d="M72.7221 7.6554C72.7751 7.8944 71.5501 7.59842 68.4561 6.28242C45.6671 -3.40058 20.5091 8.6314 14.4051 30.4824C10.8051 42.8824 13.8361 57.3884 25.9171 64.5524C32.7311 68.7574 41.9171 69.2694 48.8511 66.8834C53.8441 65.1614 59.1981 59.6034 57.8181 53.0354C56.4381 46.4674 48.7121 43.9854 46.5331 46.6524C52.1951 46.7424 54.6681 50.0064 55.0481 53.4974C56.1251 56.9134 53.4981 63.0844 48.5051 64.8044C41.5731 67.1914 34.6941 67.7174 27.8791 63.5124C15.7991 56.3494 12.8861 42.5364 16.4791 30.1374C22.5791 8.28143 48.4291 -0.884579 68.5681 6.97242C71.8791 8.13642 72.9381 8.0574 72.7221 7.6554Z" fill="#9E0000"/>
</g>
</g>
<path style="mix-blend-mode:screen" opacity="0.3" d="M67.915 5.50133C81.388 13.2503 91.245 26.3323 92.506 42.2503C93.543 61.0123 83.941 78.7433 67.201 87.1503C61.7789 89.8575 55.8706 91.454 49.8229 91.8461C43.7753 92.2383 37.7102 91.4182 31.9839 89.434C26.2576 87.4498 20.9854 84.3416 16.477 80.2916C11.9685 76.2417 8.31471 71.3319 5.73002 65.8504C0.0590219 52.7724 -0.179981 38.7853 6.59602 25.0323C16.422 4.4593 39.496 -3.59768 59.419 2.09932C62.3578 2.94605 65.204 4.08578 67.915 5.50133Z" fill="url(#paint14_linear_635_17696)"/>
<path style="mix-blend-mode:screen" opacity="0.7" d="M67.915 5.50033C65.2029 4.08282 62.3553 2.94141 59.415 2.09332C39.658 -3.55868 16.803 4.32932 6.84399 24.5283C17.689 7.25332 38.801 0.750347 57.222 6.01935C60.1624 6.86726 63.01 8.00865 65.722 9.42633C79.195 17.1753 89.053 30.2584 90.313 46.1754C90.7973 54.5915 89.0878 62.9892 85.352 70.5463C90.5913 62.0736 93.0896 52.191 92.506 42.2463C91.245 26.3313 81.388 13.2493 67.915 5.50033Z" fill="url(#paint15_linear_635_17696)"/>
<g style="mix-blend-mode:screen" opacity="0.2">
<path d="M45.8901 49.7141C40.4551 53.5951 35.9551 49.6221 34.6991 47.7481C32.4731 44.4281 29.7491 39.5721 32.4451 32.2671C35.2521 24.6671 42.2821 22.7491 45.2231 21.4721C50.5501 19.1581 59.6711 19.7721 62.5661 20.7621C69.1661 23.0271 72.9781 28.7671 74.7661 29.8921C76.5541 31.0171 73.4551 24.2512 67.7891 20.5682C62.1231 16.8852 52.1461 14.4681 44.3061 18.1081C40.8801 19.6981 32.3921 23.4311 29.5061 31.9881C28.8601 33.9011 27.9641 39.7942 29.7541 44.1072C32.8781 51.6272 40.4551 53.5932 45.8901 49.7141Z" fill="white"/>
</g>
<g style="mix-blend-mode:screen" opacity="0.3">
<path d="M44.9511 20.806C54.3891 17.629 59.6712 19.7709 62.5662 20.7629C69.1662 23.0279 72.9781 28.7679 74.7661 29.8929C76.5541 31.0179 73.4552 24.252 67.7892 20.569C62.1232 16.886 52.2612 15.159 44.4222 18.801C43.1372 19.401 37.3032 22.8899 39.1472 22.8419C40.5202 22.8059 43.0521 21.445 44.9511 20.806Z" fill="white"/>
</g>
<g style="mix-blend-mode:screen" opacity="0.7">
<path d="M22.2111 29.1645C23.6451 29.9155 25.4051 20.6485 34.7681 14.3645C38.7301 11.7075 42.3831 10.5995 47.8521 9.68649C54.7361 8.53849 63.6671 11.8265 65.7111 12.3675C67.7551 12.9085 64.8371 10.6005 58.3321 8.77447C51.8271 6.94847 39.1521 9.31947 32.4111 13.8865C24.3901 19.3245 20.8731 28.4645 22.2111 29.1645Z" fill="white"/>
</g>
<g style="mix-blend-mode:screen" opacity="0.7">
<path d="M44.2232 37.42C45.2832 33.976 46.8072 33.0079 49.5082 31.8819C51.488 31.097 53.6224 30.7798 55.745 30.9552C57.8676 31.1305 59.921 31.7937 61.7452 32.8929C64.2232 34.4079 64.6532 37.518 62.6722 36.313C60.6912 35.108 56.9652 33.042 52.6312 33.998C50.8079 34.4505 49.1318 35.3648 47.7644 36.653C46.3971 37.9413 45.3845 39.5598 44.8242 41.3529C44.5842 42.2459 43.4162 40.047 44.2232 37.42Z" fill="white"/>
</g>
<defs>
<linearGradient id="paint0_linear_635_17696" x1="162.93" y1="185.761" x2="170.541" y2="185.761" gradientUnits="userSpaceOnUse">
<stop offset="0.005" stop-color="#D9BDA4"/>
<stop offset="0.061" stop-color="#C4AA91"/>
<stop offset="0.127" stop-color="#B09980"/>
<stop offset="0.211" stop-color="#BEAC97"/>
<stop offset="0.385" stop-color="#DACFC4"/>
<stop offset="0.542" stop-color="#EEE9E4"/>
<stop offset="0.673" stop-color="#FAF9F7"/>
<stop offset="0.762" stop-color="white"/>
<stop offset="0.815" stop-color="#F8F3EE"/>
<stop offset="0.919" stop-color="#E9D5C4"/>
<stop offset="1" stop-color="#DBBB9F"/>
</linearGradient>
<linearGradient id="paint1_linear_635_17696" x1="155.412" y1="139.874" x2="171.566" y2="143.954" gradientUnits="userSpaceOnUse">
<stop offset="0.033"/>
<stop offset="0.082" stop-color="#151515"/>
<stop offset="0.228" stop-color="#525252"/>
<stop offset="0.374" stop-color="#878787"/>
<stop offset="0.515" stop-color="#B2B2B2"/>
<stop offset="0.651" stop-color="#D3D3D3"/>
<stop offset="0.78" stop-color="#EBEBEB"/>
<stop offset="0.899" stop-color="#FAFAFA"/>
<stop offset="1" stop-color="white"/>
</linearGradient>
<radialGradient id="paint2_radial_635_17696" cx="0" cy="0" r="1" gradientUnits="userSpaceOnUse" gradientTransform="translate(113.71 40.5616) scale(50.5605)">
<stop stop-color="#FFBEBB"/>
<stop offset="0.182" stop-color="#FFB9B6"/>
<stop offset="0.381" stop-color="#FFACAA"/>
<stop offset="0.588" stop-color="#FF9695"/>
<stop offset="0.8" stop-color="#FF7878"/>
<stop offset="1" stop-color="#FF5456"/>
</radialGradient>
<linearGradient id="paint3_linear_635_17696" x1="193.233" y1="69.2092" x2="144.227" y2="132.612" gradientUnits="userSpaceOnUse">
<stop stop-color="white"/>
<stop offset="1" stop-color="#FFCEC9"/>
</linearGradient>
<linearGradient id="paint4_linear_635_17696" x1="207.634" y1="60.9953" x2="150.524" y2="155.282" gradientUnits="userSpaceOnUse">
<stop stop-color="white"/>
<stop offset="1"/>
</linearGradient>
<radialGradient id="paint5_radial_635_17696" cx="0" cy="0" r="1" gradientUnits="userSpaceOnUse" gradientTransform="translate(124.092 32.3726) scale(30.2416 30.186)">
<stop stop-color="white"/>
<stop offset="0.082" stop-color="#E0E0E0"/>
<stop offset="0.277" stop-color="#9D9D9D"/>
<stop offset="0.462" stop-color="#656565"/>
<stop offset="0.632" stop-color="#393939"/>
<stop offset="0.784" stop-color="#1A1A1A"/>
<stop offset="0.911" stop-color="#060606"/>
<stop offset="1"/>
</radialGradient>
<linearGradient id="paint6_linear_635_17696" x1="192.683" y1="66.8208" x2="166.786" y2="110.64" gradientUnits="userSpaceOnUse">
<stop stop-color="white"/>
<stop offset="1"/>
</linearGradient>
<radialGradient id="paint7_radial_635_17696" cx="0" cy="0" r="1" gradientUnits="userSpaceOnUse" gradientTransform="translate(66.4673 50.4833) rotate(-85.908) scale(46.61)">
<stop offset="0.498" stop-color="#CA4054"/>
<stop offset="0.54" stop-color="#D56B7A"/>
<stop offset="0.587" stop-color="#E0929D"/>
<stop offset="0.637" stop-color="#EAB3BB"/>
<stop offset="0.69" stop-color="#F1CFD4"/>
<stop offset="0.747" stop-color="#F7E4E7"/>
<stop offset="0.811" stop-color="#FBF3F4"/>
<stop offset="0.886" stop-color="#FEFCFC"/>
<stop offset="1" stop-color="white"/>
</radialGradient>
<linearGradient id="paint8_linear_635_17696" x1="-7.4755" y1="106.463" x2="1.20846" y2="106.463" gradientUnits="userSpaceOnUse">
<stop offset="0.005" stop-color="#D9BDA4"/>
<stop offset="0.061" stop-color="#C4AA91"/>
<stop offset="0.127" stop-color="#B09980"/>
<stop offset="0.211" stop-color="#BEAC97"/>
<stop offset="0.385" stop-color="#DACFC4"/>
<stop offset="0.542" stop-color="#EEE9E4"/>
<stop offset="0.673" stop-color="#FAF9F7"/>
<stop offset="0.762" stop-color="white"/>
<stop offset="0.815" stop-color="#F8F3EE"/>
<stop offset="0.919" stop-color="#E9D5C4"/>
<stop offset="1" stop-color="#DBBB9F"/>
</linearGradient>
<linearGradient id="paint9_linear_635_17696" x1="-16.0561" y1="54.2591" x2="1.90619" y2="58.5236" gradientUnits="userSpaceOnUse">
<stop offset="0.033"/>
<stop offset="0.082" stop-color="#151515"/>
<stop offset="0.228" stop-color="#525252"/>
<stop offset="0.374" stop-color="#878787"/>
<stop offset="0.515" stop-color="#B2B2B2"/>
<stop offset="0.651" stop-color="#D3D3D3"/>
<stop offset="0.78" stop-color="#EBEBEB"/>
<stop offset="0.899" stop-color="#FAFAFA"/>
<stop offset="1" stop-color="white"/>
</linearGradient>
<radialGradient id="paint10_radial_635_17696" cx="0" cy="0" r="1" gradientUnits="userSpaceOnUse" gradientTransform="translate(41.9433 42.2111) scale(48.8104 46.3802)">
<stop stop-color="#FFDDCE"/>
<stop offset="0.365" stop-color="#FEDBCA"/>
<stop offset="0.692" stop-color="#FED5BF"/>
<stop offset="0.995" stop-color="#FECCAE"/>
</radialGradient>
<radialGradient id="paint11_radial_635_17696" cx="0" cy="0" r="1" gradientUnits="userSpaceOnUse" gradientTransform="translate(41.7428 36.5138) scale(48.1827 46.2895)">
<stop stop-color="#FFDDCE"/>
<stop offset="0.365" stop-color="#FEDBCA"/>
<stop offset="0.692" stop-color="#FED5BF"/>
<stop offset="0.995" stop-color="#FECCAE"/>
</radialGradient>
<radialGradient id="paint12_radial_635_17696" cx="0" cy="0" r="1" gradientUnits="userSpaceOnUse" gradientTransform="translate(42.0287 38.7325) scale(37.8449 46.1606)">
<stop stop-color="#FD7279"/>
<stop offset="0.857" stop-color="#FD476A"/>
<stop offset="1" stop-color="#FE4068"/>
</radialGradient>
<radialGradient id="paint13_radial_635_17696" cx="0" cy="0" r="1" gradientUnits="userSpaceOnUse" gradientTransform="translate(47.0403 43.5719) scale(42.5794 48.0149)">
<stop stop-color="#FD7279"/>
<stop offset="0.857" stop-color="#FD476A"/>
<stop offset="1" stop-color="#FE4068"/>
</radialGradient>
<linearGradient id="paint14_linear_635_17696" x1="23.7183" y1="-23.0455" x2="-31.6061" y2="47.0073" gradientUnits="userSpaceOnUse">
<stop stop-color="white"/>
<stop offset="0.117" stop-color="#D2D2D2"/>
<stop offset="0.299" stop-color="#939393"/>
<stop offset="0.474" stop-color="#5E5E5E"/>
<stop offset="0.636" stop-color="#353535"/>
<stop offset="0.783" stop-color="#181818"/>
<stop offset="0.909" stop-color="#060606"/>
<stop offset="1"/>
</linearGradient>
<linearGradient id="paint15_linear_635_17696" x1="23.65" y1="-30.0285" x2="-14.4138" y2="57.7656" gradientUnits="userSpaceOnUse">
<stop stop-color="white"/>
<stop offset="1"/>
</linearGradient>
</defs>
</svg>
