<svg width="127" height="99" viewBox="0 0 127 99" fill="none" xmlns="http://www.w3.org/2000/svg">
<path d="M68.1894 7.71474C78.4594 19.7517 72.6564 41.5637 55.2314 56.4387C37.8064 71.3137 15.3484 73.6067 5.07836 61.5727C-5.19165 49.5387 0.607359 27.7187 18.0324 12.8487C35.4574 -2.02127 57.9144 -4.32126 68.1894 7.71474Z" fill="url(#paint0_radial_776_1568)"/>
<g style="mix-blend-mode:multiply" opacity="0.15">
<path d="M53.2132 49.9641C37.1382 61.1211 23.2472 57.1901 36.2182 40.7431L9.63818 62.4221C20.3772 69.8221 38.7382 66.7131 53.3512 54.2371C61.0942 47.6261 66.4082 39.5711 68.8622 31.7051C65.3979 39.0978 59.9886 45.4093 53.2132 49.9641Z" fill="#9E0000"/>
</g>
<g style="mix-blend-mode:multiply" opacity="0.15">
<path d="M54.0772 50.9752C39.6882 63.2632 22.0352 67.0852 10.9922 61.2632L9.63818 62.4182C20.3772 69.8182 38.7382 66.7092 53.3512 54.2332C61.0942 47.6222 66.4082 39.5672 68.8622 31.7012C65.4145 39.137 60.3657 45.7187 54.0772 50.9752Z" fill="#9E0000"/>
</g>
<path style="mix-blend-mode:screen" opacity="0.5" d="M21.7892 17.1483C28.1342 13.9283 34.2692 13.2593 35.4742 15.5703C38.5742 21.5273 16.8152 38.1223 21.4312 36.9263C22.9102 36.5423 38.0092 23.4563 40.2452 21.5473C48.8162 14.2323 60.8612 3.52933 59.0812 2.53133C47.8152 -1.77767 31.6652 2.09434 18.4652 13.3583C11.3925 19.2298 5.99672 26.8659 2.82422 35.4933C6.00122 28.3633 12.9042 21.6603 21.7892 17.1483Z" fill="url(#paint1_linear_776_1568)"/>
<g style="mix-blend-mode:multiply" opacity="0.15">
<path d="M9.24756 65.265C10.0939 65.83 10.9791 66.3345 11.8966 66.7749C17.1186 63.6959 28.3036 55.504 43.4216 42.603C59.1106 29.217 68.4956 19.614 72.1916 15.086C71.8928 14.1163 71.5252 13.1692 71.0916 12.252C67.9246 16.37 58.3676 26.3339 41.6846 40.5719C25.6126 54.2909 13.9886 62.676 9.24756 65.265Z" fill="#9E0000"/>
</g>
<g style="mix-blend-mode:multiply" opacity="0.15">
<path d="M0.878418 53.5461C1.05142 54.1801 1.25142 54.8081 1.47842 55.4201C5.60442 53.4911 19.2044 43.5001 33.6594 31.1621C48.8594 18.1861 60.3274 6.92413 62.7044 3.21313C62.1424 2.89313 61.5604 2.59813 60.9664 2.32812C57.8254 6.57312 46.7724 17.3391 32.3584 29.6361C18.6434 41.3451 5.69142 50.9431 0.878418 53.5461Z" fill="#9E0000"/>
</g>
<g style="mix-blend-mode:multiply" opacity="0.15">
<path d="M1.26758 54.8052C1.33758 55.0142 1.40358 55.2152 1.48058 55.4202C5.60658 53.4912 19.2066 43.5002 33.6616 31.1622C48.8616 18.1862 60.3296 6.9242 62.7066 3.2132C62.5226 3.1082 62.3336 3.0132 62.1426 2.9082C59.4916 6.8172 48.1616 17.9082 33.2276 30.6552C19.0286 42.7712 5.65058 52.6352 1.26758 54.8052Z" fill="#9E0000"/>
</g>
<g style="mix-blend-mode:multiply" opacity="0.15">
<path d="M1.06348 54.1842C1.19348 54.6012 1.32948 55.0162 1.48048 55.4222C5.60648 53.4932 19.2065 43.5022 33.6615 31.1642C48.8615 18.1882 60.3295 6.92623 62.7065 3.21523C62.3355 3.00423 61.9495 2.80223 61.5625 2.61523C58.6625 6.69723 47.4735 17.6262 32.7945 30.1522C18.8265 42.0662 5.65948 51.7982 1.06348 54.1842Z" fill="#9E0000"/>
</g>
<g style="mix-blend-mode:multiply" opacity="0.15">
<path d="M9.24756 65.2639C9.45356 65.3999 9.66256 65.5299 9.87556 65.6639C14.7376 62.9639 26.2646 54.6149 42.1246 41.0819C58.5946 27.0279 68.1136 17.1399 71.3996 12.9259C71.2996 12.6979 71.1996 12.4759 71.0996 12.2539C67.9326 16.3719 58.3756 26.3359 41.6926 40.5739C25.6126 54.2899 13.9886 62.6749 9.24756 65.2639Z" fill="#9E0000"/>
</g>
<g style="mix-blend-mode:multiply" opacity="0.15">
<path d="M9.24756 65.265C9.87823 65.683 10.5301 66.0682 11.2006 66.4189C16.3006 63.4649 27.6096 55.2189 42.9906 42.0959C58.9556 28.4699 68.3906 18.7619 71.9476 14.3439C71.7019 13.6316 71.4175 12.9332 71.0956 12.252C67.9286 16.37 58.3716 26.3339 41.6886 40.5719C25.6126 54.2909 13.9886 62.676 9.24756 65.265Z" fill="#9E0000"/>
</g>
<path d="M0.624244 55.7462C3.26224 55.1992 17.9592 44.5612 33.6612 31.1642C50.2212 17.0312 62.3522 4.92425 63.1312 2.40025C64.0162 -0.470754 73.9382 8.19225 71.6602 11.4822C69.2113 15.0202 59.5202 25.3563 41.6892 40.5732C23.7012 55.9212 11.2832 64.5992 7.84325 65.9392C4.92225 67.0822 -1.83176 56.2442 0.624244 55.7462Z" fill="url(#paint2_linear_776_1568)"/>
<path style="mix-blend-mode:screen" opacity="0.35" d="M52.5523 3.0488C54.9183 7.3658 47.9743 15.7238 37.0343 21.7158C26.0943 27.7078 15.3183 29.0728 12.9503 24.7538C10.5823 20.4348 17.5313 12.0808 28.4683 6.0868C39.4053 0.0928049 50.1863 -1.2662 52.5523 3.0488Z" fill="url(#paint3_radial_776_1568)"/>
<g style="mix-blend-mode:multiply" opacity="0.15">
<path d="M2.07135 56.8519C0.513349 56.9639 2.22535 60.3289 3.30935 61.6019C4.39335 62.8749 6.42635 65.0019 7.59335 64.9709C11.2154 64.8789 22.0793 55.9439 24.9433 53.6429C27.8074 51.3419 55.3184 29.8199 55.5434 26.8699C55.6574 25.3579 20.3333 53.2169 15.9323 55.9449C11.5313 58.6729 8.18235 59.1669 6.03235 58.3619C3.88235 57.5569 3.06735 56.7819 2.07135 56.8519Z" fill="#9E0000"/>
</g>
<g style="mix-blend-mode:multiply" opacity="0.15">
<path d="M1.44957 57.7641C1.74401 59.1766 2.38257 60.4946 3.30857 61.6011C4.39257 62.8701 6.42557 65.0011 7.59257 64.9701C11.2146 64.8781 22.0786 55.9431 24.9426 53.6421C27.8066 51.3411 55.3176 29.8191 55.5426 26.8691C53.9426 30.2601 22.1276 55.0621 17.7276 57.7921C13.3276 60.5221 10.0146 62.2321 7.79757 61.6321C4.30957 60.6741 1.41257 57.2481 1.44957 57.7641Z" fill="#9E0000"/>
</g>
<path style="mix-blend-mode:screen" opacity="0.4" d="M34.5095 32.0491C32.6985 32.7601 47.6255 19.3911 51.8735 15.6201C56.0657 11.8582 60.0074 7.82632 63.6735 3.55014C65.0075 1.61614 70.6045 6.85813 71.3485 9.97413C71.8905 12.2371 67.1485 8.74513 62.4815 11.3331C60.8985 12.2041 56.1515 17.0571 49.6875 22.3181C45.0322 26.1525 39.937 29.4192 34.5095 32.0491Z" fill="url(#paint4_linear_776_1568)"/>
<path opacity="0.35" d="M34.5095 32.0491C32.6985 32.7601 47.6255 19.3911 51.8735 15.6201C56.0657 11.8582 60.0074 7.82632 63.6735 3.55014C65.0075 1.61614 70.6045 6.85813 71.3485 9.97413C69.6125 7.72613 67.8825 4.78514 63.2145 7.36914C61.6315 8.24514 54.1235 15.7121 47.6595 20.9691C41.1135 26.3031 35.8675 30.3021 34.5095 32.0491Z" fill="white"/>
<path opacity="0.4" d="M18.4302 15.1414C31.7372 3.78538 47.6572 -0.71262 59.0812 2.52938C47.8152 -1.77962 31.6652 2.09239 18.4652 13.3564C11.3925 19.2279 5.99672 26.8639 2.82422 35.4914C6.46251 27.6406 11.7917 20.6914 18.4302 15.1414Z" fill="white"/>
<path d="M58.0782 36.7147C47.8082 48.7517 53.6112 70.5637 71.0362 85.4387C88.4612 100.314 110.919 102.607 121.189 90.5727C131.459 78.5387 125.66 56.7187 108.235 41.8487C90.8102 26.9787 68.3532 24.6787 58.0782 36.7147Z" fill="url(#paint5_radial_776_1568)"/>
<g style="mix-blend-mode:multiply" opacity="0.15">
<path d="M73.0544 78.9641C89.1294 90.1211 103.02 86.1901 90.0494 69.7431L116.629 91.4221C105.89 98.8221 87.5294 95.7131 72.9164 83.2371C65.1734 76.6261 59.8594 68.5711 57.4054 60.7051C60.8697 68.0978 66.279 74.4093 73.0544 78.9641Z" fill="#9E0000"/>
</g>
<g style="mix-blend-mode:multiply" opacity="0.15">
<path d="M72.1904 79.9752C86.5794 92.2632 104.232 96.0852 115.275 90.2632L116.629 91.4182C105.89 98.8182 87.5294 95.7092 72.9164 83.2332C65.1734 76.6222 59.8594 68.5672 57.4054 60.7012C60.853 68.137 65.9018 74.7187 72.1904 79.9752Z" fill="#9E0000"/>
</g>
<path style="mix-blend-mode:screen" opacity="0.5" d="M104.478 46.1483C98.1334 42.9283 91.9984 42.2593 90.7934 44.5703C87.6934 50.5273 109.452 67.1223 104.836 65.9263C103.357 65.5423 88.2584 52.4563 86.0224 50.5473C77.4514 43.2323 65.4064 32.5293 67.1864 31.5313C78.4524 27.2223 94.6024 31.0943 107.802 42.3583C114.875 48.2298 120.271 55.8659 123.443 64.4933C120.266 57.3633 113.363 50.6603 104.478 46.1483Z" fill="url(#paint6_linear_776_1568)"/>
<g style="mix-blend-mode:multiply" opacity="0.15">
<path d="M117.02 94.265C116.174 94.83 115.288 95.3345 114.371 95.7749C109.149 92.6959 97.964 84.504 82.846 71.603C67.157 58.217 57.772 48.614 54.076 44.086C54.3748 43.1163 54.7424 42.1692 55.176 41.252C58.343 45.37 67.9 55.3339 84.583 69.5719C100.655 83.2909 112.279 91.676 117.02 94.265Z" fill="#9E0000"/>
</g>
<g style="mix-blend-mode:multiply" opacity="0.15">
<path d="M125.389 82.5461C125.216 83.1801 125.016 83.8081 124.789 84.4201C120.663 82.4911 107.063 72.5001 92.6082 60.1621C77.4082 47.1861 65.9402 35.9241 63.5632 32.2131C64.1252 31.8931 64.7072 31.5981 65.3012 31.3281C68.4422 35.5731 79.4952 46.3391 93.9092 58.6361C107.624 70.3451 120.576 79.9431 125.389 82.5461Z" fill="#9E0000"/>
</g>
<g style="mix-blend-mode:multiply" opacity="0.15">
<path d="M125 83.8052C124.93 84.0142 124.864 84.2152 124.787 84.4202C120.661 82.4912 107.061 72.5002 92.606 60.1622C77.406 47.1862 65.938 35.9242 63.561 32.2132C63.745 32.1082 63.934 32.0132 64.125 31.9082C66.776 35.8172 78.106 46.9082 93.04 59.6552C107.239 71.7712 120.617 81.6352 125 83.8052Z" fill="#9E0000"/>
</g>
<g style="mix-blend-mode:multiply" opacity="0.15">
<path d="M125.204 83.1842C125.074 83.6012 124.938 84.0162 124.787 84.4222C120.661 82.4932 107.061 72.5022 92.6061 60.1642C77.4061 47.1882 65.9381 35.9262 63.5611 32.2152C63.9321 32.0042 64.3181 31.8022 64.7051 31.6152C67.6051 35.6972 78.7941 46.6262 93.4731 59.1522C107.441 71.0662 120.608 80.7982 125.204 83.1842Z" fill="#9E0000"/>
</g>
<g style="mix-blend-mode:multiply" opacity="0.15">
<path d="M117.02 94.2639C116.814 94.3999 116.605 94.5299 116.392 94.6639C111.53 91.9639 100.003 83.6149 84.143 70.0819C67.673 56.0279 58.154 46.1399 54.868 41.9259C54.968 41.6979 55.068 41.4759 55.168 41.2539C58.335 45.3719 67.892 55.3359 84.575 69.5739C100.655 83.2899 112.279 91.6749 117.02 94.2639Z" fill="#9E0000"/>
</g>
<g style="mix-blend-mode:multiply" opacity="0.15">
<path d="M117.02 94.265C116.389 94.683 115.737 95.0682 115.067 95.4189C109.967 92.4649 98.658 84.2189 83.277 71.0959C67.312 57.4699 57.877 47.7619 54.32 43.3439C54.5657 42.6316 54.8501 41.9332 55.172 41.252C58.339 45.37 67.896 55.3339 84.579 69.5719C100.655 83.2909 112.279 91.676 117.02 94.265Z" fill="#9E0000"/>
</g>
<path d="M125.643 84.7462C123.005 84.1992 108.308 73.5612 92.6063 60.1642C76.0463 46.0312 63.9153 33.9242 63.1363 31.4002C62.2513 28.5292 52.3293 37.1922 54.6073 40.4822C57.0563 44.0202 66.7473 54.3563 84.5783 69.5732C102.566 84.9212 114.984 93.5992 118.424 94.9392C121.345 96.0822 128.099 85.2442 125.643 84.7462Z" fill="url(#paint7_linear_776_1568)"/>
<path style="mix-blend-mode:screen" opacity="0.35" d="M73.7153 32.0488C71.3493 36.3658 78.2933 44.7238 89.2333 50.7158C100.173 56.7078 110.949 58.0728 113.317 53.7538C115.685 49.4348 108.736 41.0808 97.7993 35.0868C86.8623 29.0928 76.0813 27.7338 73.7153 32.0488Z" fill="url(#paint8_radial_776_1568)"/>
<g style="mix-blend-mode:multiply" opacity="0.15">
<path d="M124.196 85.8519C125.754 85.9639 124.042 89.3289 122.958 90.6019C121.874 91.8749 119.841 94.0019 118.674 93.9709C115.052 93.8789 104.188 84.9439 101.324 82.6429C98.4602 80.3419 70.9492 58.8199 70.7242 55.8699C70.6102 54.3579 105.934 82.2169 110.335 84.9449C114.736 87.6729 118.085 88.1669 120.235 87.3619C122.385 86.5569 123.2 85.7819 124.196 85.8519Z" fill="#9E0000"/>
</g>
<g style="mix-blend-mode:multiply" opacity="0.15">
<path d="M124.818 86.7641C124.524 88.1766 123.885 89.4946 122.959 90.6011C121.875 91.8701 119.842 94.0011 118.675 93.9701C115.053 93.8781 104.189 84.9431 101.325 82.6421C98.461 80.3411 70.95 58.8191 70.725 55.8691C72.325 59.2601 104.14 84.0621 108.54 86.7921C112.94 89.5221 116.253 91.2321 118.47 90.6321C121.958 89.6741 124.855 86.2481 124.818 86.7641Z" fill="#9E0000"/>
</g>
<path style="mix-blend-mode:screen" opacity="0.4" d="M91.7581 61.0491C93.5691 61.7601 78.6421 48.3911 74.3941 44.6201C70.2019 40.8582 66.2601 36.8263 62.594 32.5501C61.26 30.6161 55.663 35.8581 54.919 38.9741C54.377 41.2371 59.119 37.7451 63.7861 40.3331C65.3691 41.2041 70.1161 46.0571 76.5801 51.3181C81.2354 55.1525 86.3305 58.4192 91.7581 61.0491Z" fill="url(#paint9_linear_776_1568)"/>
<path opacity="0.35" d="M91.7581 61.0491C93.5691 61.7601 78.6421 48.3911 74.3941 44.6201C70.2019 40.8582 66.2601 36.8263 62.594 32.5501C61.26 30.6161 55.663 35.8581 54.919 38.9741C56.655 36.7261 58.385 33.7851 63.053 36.3691C64.636 37.2451 72.1441 44.7121 78.6081 49.9691C85.1541 55.3031 90.4001 59.3021 91.7581 61.0491Z" fill="white"/>
<path opacity="0.4" d="M107.837 44.1414C94.5304 32.7854 78.6104 28.2874 67.1864 31.5294C78.4524 27.2204 94.6024 31.0924 107.802 42.3564C114.875 48.2279 120.271 55.8639 123.443 64.4914C119.805 56.6406 114.476 49.6914 107.837 44.1414Z" fill="white"/>
<defs>
<radialGradient id="paint0_radial_776_1568" cx="0" cy="0" r="1" gradientUnits="userSpaceOnUse" gradientTransform="translate(36.7066 25.7752) scale(54.6569 51.689)">
<stop stop-color="#FC779F"/>
<stop offset="0.263" stop-color="#FC749C"/>
<stop offset="0.432" stop-color="#FC6B93"/>
<stop offset="0.575" stop-color="#FC5D84"/>
<stop offset="0.703" stop-color="#FD496F"/>
<stop offset="0.82" stop-color="#FD2E55"/>
<stop offset="0.843" stop-color="#FE294F"/>
<stop offset="0.891" stop-color="#FD2B51"/>
<stop offset="0.923" stop-color="#FD345A"/>
<stop offset="0.95" stop-color="#FD4269"/>
<stop offset="0.974" stop-color="#FC577E"/>
<stop offset="0.996" stop-color="#FC7299"/>
<stop offset="1" stop-color="#FC779F"/>
</radialGradient>
<linearGradient id="paint1_linear_776_1568" x1="113.378" y1="124.491" x2="102.917" y2="174.947" gradientUnits="userSpaceOnUse">
<stop stop-color="white"/>
<stop offset="0.152" stop-color="#CCCCCC"/>
<stop offset="0.385" stop-color="#848484"/>
<stop offset="0.596" stop-color="#4B4B4B"/>
<stop offset="0.775" stop-color="#222222"/>
<stop offset="0.915" stop-color="#090909"/>
<stop offset="1"/>
</linearGradient>
<linearGradient id="paint2_linear_776_1568" x1="56.8996" y1="153.846" x2="144.477" y2="153.846" gradientUnits="userSpaceOnUse">
<stop stop-color="#FE294F"/>
<stop offset="0.121" stop-color="#FD345B"/>
<stop offset="0.324" stop-color="#FD4369"/>
<stop offset="0.493" stop-color="#FD486F"/>
<stop offset="0.908" stop-color="#FC779F"/>
<stop offset="0.926" stop-color="#FC6D95"/>
<stop offset="0.957" stop-color="#FC547C"/>
<stop offset="0.997" stop-color="#FD2C52"/>
<stop offset="1" stop-color="#FE294F"/>
</linearGradient>
<radialGradient id="paint3_radial_776_1568" cx="0" cy="0" r="1" gradientUnits="userSpaceOnUse" gradientTransform="translate(32.751 13.9019) scale(34.2052 22.5762)">
<stop stop-color="white"/>
<stop offset="0.122" stop-color="#D0D0D0"/>
<stop offset="0.303" stop-color="#919191"/>
<stop offset="0.476" stop-color="#5D5D5D"/>
<stop offset="0.637" stop-color="#353535"/>
<stop offset="0.783" stop-color="#181818"/>
<stop offset="0.909" stop-color="#060606"/>
<stop offset="1"/>
</radialGradient>
<linearGradient id="paint4_linear_776_1568" x1="128.311" y1="140.876" x2="117.669" y2="175.558" gradientUnits="userSpaceOnUse">
<stop stop-color="white"/>
<stop offset="1"/>
</linearGradient>
<radialGradient id="paint5_radial_776_1568" cx="0" cy="0" r="1" gradientUnits="userSpaceOnUse" gradientTransform="translate(89.561 54.7752) rotate(180) scale(54.6569 51.689)">
<stop stop-color="#FC779F"/>
<stop offset="0.263" stop-color="#FC749C"/>
<stop offset="0.432" stop-color="#FC6B93"/>
<stop offset="0.575" stop-color="#FC5D84"/>
<stop offset="0.703" stop-color="#FD496F"/>
<stop offset="0.82" stop-color="#FD2E55"/>
<stop offset="0.843" stop-color="#FE294F"/>
<stop offset="0.891" stop-color="#FD2B51"/>
<stop offset="0.923" stop-color="#FD345A"/>
<stop offset="0.95" stop-color="#FD4269"/>
<stop offset="0.974" stop-color="#FC577E"/>
<stop offset="0.996" stop-color="#FC7299"/>
<stop offset="1" stop-color="#FC779F"/>
</radialGradient>
<linearGradient id="paint6_linear_776_1568" x1="12.8895" y1="153.491" x2="23.3508" y2="203.947" gradientUnits="userSpaceOnUse">
<stop stop-color="white"/>
<stop offset="0.152" stop-color="#CCCCCC"/>
<stop offset="0.385" stop-color="#848484"/>
<stop offset="0.596" stop-color="#4B4B4B"/>
<stop offset="0.775" stop-color="#222222"/>
<stop offset="0.915" stop-color="#090909"/>
<stop offset="1"/>
</linearGradient>
<linearGradient id="paint7_linear_776_1568" x1="69.368" y1="182.846" x2="-18.2091" y2="182.846" gradientUnits="userSpaceOnUse">
<stop stop-color="#FE294F"/>
<stop offset="0.121" stop-color="#FD345B"/>
<stop offset="0.324" stop-color="#FD4369"/>
<stop offset="0.493" stop-color="#FD486F"/>
<stop offset="0.908" stop-color="#FC779F"/>
<stop offset="0.926" stop-color="#FC6D95"/>
<stop offset="0.957" stop-color="#FC547C"/>
<stop offset="0.997" stop-color="#FD2C52"/>
<stop offset="1" stop-color="#FE294F"/>
</linearGradient>
<radialGradient id="paint8_radial_776_1568" cx="0" cy="0" r="1" gradientUnits="userSpaceOnUse" gradientTransform="translate(93.5165 42.9019) rotate(180) scale(34.2052 22.5762)">
<stop stop-color="white"/>
<stop offset="0.122" stop-color="#D0D0D0"/>
<stop offset="0.303" stop-color="#919191"/>
<stop offset="0.476" stop-color="#5D5D5D"/>
<stop offset="0.637" stop-color="#353535"/>
<stop offset="0.783" stop-color="#181818"/>
<stop offset="0.909" stop-color="#060606"/>
<stop offset="1"/>
</radialGradient>
<linearGradient id="paint9_linear_776_1568" x1="-2.04323" y1="169.876" x2="8.59896" y2="204.558" gradientUnits="userSpaceOnUse">
<stop stop-color="white"/>
<stop offset="1"/>
</linearGradient>
</defs>
</svg>
