<svg xmlns="http://www.w3.org/2000/svg" viewBox="0 0 512 512"><defs><style>.cls-1,.cls-2,.cls-5{fill:#fff;}.cls-1{stroke:#fff;stroke-miterlimit:10;stroke-width:5px;}.cls-3{fill:#333;}.cls-4{fill:none;stroke:#999;stroke-miterlimit:15.12;stroke-width:3px;}.cls-5{fill-opacity:0.4;}</style></defs><g id="Rectangle"><rect class="cls-1" x="2.5" y="2.5" width="507" height="507"/></g><g id="Glasses"><g id="layer1"><g id="g68370"><path id="path60883" class="cls-2" d="M206.57,159.85c-9.55,15.29-34.45,14.4-47.28,3.91-2.63-11,27.48-47.91,47.28-3.91Zm71.67.6c-10,16.08-36.23,15.14-49.73,4.11C225.75,153,257.41,114.17,278.24,160.45Z"/><path id="path60885" class="cls-3" d="M166.61,156.47c-.4,8.5,6,14.94,14.68,15.34s16.2-5.37,16.6-13.87a15.66,15.66,0,0,0-31.28-1.47Zm69.6.42c-.42,8.94,6.35,15.71,15.44,16.14s17-5.65,17.46-14.59a16.47,16.47,0,0,0-32.9-1.55Z"/><path id="path60887" class="cls-4" d="M206.57,159.85c-8.81,16.29-34.7,18.4-47.28,3.91a9.28,9.28,0,0,1,.24-4.34c3.51-13.72,29.38-38.82,47,.43Zm71.67.6c-9.26,17.12-36.49,19.35-49.73,4.11a9.89,9.89,0,0,1,.26-4.57c3.69-14.42,30.89-40.83,49.47.46Z"/><path id="circle59194" class="cls-3" d="M252.75,128.18a28.2,28.2,0,0,0-27.51,22c-3.56-1.89-11.92-3.33-16.85-.58a26.81,26.81,0,1,0-26,33.17c.2,0,.45.13.6,0a37.75,37.75,0,0,1,8.81-4.72c2.75-1.14,8.58-5.67,9.72-3.3A26.74,26.74,0,0,0,209,159a19.3,19.3,0,0,1,15.77.43,28.18,28.18,0,0,0,56.07-.44l6.28-.41,37.27-.94c1.28-1.76,1.89-3.81-.22-7L287.51,149l-7.59-.11A28.2,28.2,0,0,0,252.75,128.18Zm0,3.34a24.86,24.86,0,0,1,24.86,24.85h0a24.86,24.86,0,1,1-24.86-24.85Zm-70.41.83A23.63,23.63,0,1,1,158.7,156,23.63,23.63,0,0,1,182.34,132.35Z"/><path id="ellipse60891" class="cls-2" d="M171.66,160.44a4.32,4.32,0,0,0,4.07,4.26,3.85,3.85,0,0,0,4.29-3.62,4.29,4.29,0,0,0-4.06-4.26A3.84,3.84,0,0,0,171.66,160.44Zm10.16-9.14a5.72,5.72,0,0,0,5.4,5.65h0a5.09,5.09,0,0,0,5.69-4.8h0a5.71,5.71,0,0,0-5.39-5.64h0a5.1,5.1,0,0,0-5.7,4.79Zm59.7,9.76a4.54,4.54,0,0,0,4.28,4.48,4,4,0,0,0,4.52-3.8,4.55,4.55,0,0,0-4.28-4.49A4.05,4.05,0,0,0,241.52,161.06Zm11.7-9.6a6,6,0,0,0,5.68,5.94h0a5.36,5.36,0,0,0,6-5.05h0a6,6,0,0,0-5.67-5.94h0a5.37,5.37,0,0,0-6,5.05Z"/><path id="path60893" class="cls-2" d="M182.11,133.82A22.09,22.09,0,0,0,160,155.91h0A22.09,22.09,0,0,0,182.11,178h0a22.09,22.09,0,0,0,0-44.17Zm0,1.35a20.74,20.74,0,0,1,20.74,20.74h0a20.75,20.75,0,0,1-20.74,20.74h0a20.74,20.74,0,0,1-20.74-20.74h0a20.73,20.73,0,0,1,20.74-20.74Zm70.42-2.09a23.23,23.23,0,0,0-23.23,23.23h0a23.23,23.23,0,0,0,23.23,23.23h0a23.23,23.23,0,0,0,0-46.46Zm0,1.42a21.8,21.8,0,0,1,21.81,21.81h0a21.81,21.81,0,0,1-21.81,21.82h0a21.81,21.81,0,0,1-21.81-21.82h0a21.8,21.8,0,0,1,21.81-21.81Z"/><path id="circle60895" class="cls-5" d="M206.09,155.83a23.9,23.9,0,0,1-23.91,23.91h0a23.91,23.91,0,0,1-23.91-23.91h0a23.91,23.91,0,1,1,47.82,0Zm71.66.39a25.15,25.15,0,0,1-25.15,25.15h0a25.15,25.15,0,0,1-25.15-25.15h0a25.15,25.15,0,0,1,25.15-25.15h0a25.15,25.15,0,0,1,25.15,25.15Z"/></g></g></g></svg>