<svg width="173" height="66" viewBox="0 0 173 66" fill="none" xmlns="http://www.w3.org/2000/svg">
<path d="M53.78 37.6202C47.61 48.1202 27.69 48.7902 17.19 42.5002C14.84 33.0002 37.18 0.000156403 53.78 37.6202ZM119.45 34.6902C112.35 45.5002 89.45 46.1902 77.31 39.6902C74.6 29.9302 100.33 -3.99984 119.45 34.6902Z" fill="white"/>
<path d="M122.89 6.43028C122.89 6.43028 132.22 2.94028 132 19.7903C131.78 36.6403 129.75 56.7103 129.75 56.7103L86.46 57.3003L80.46 42.8803C80.46 42.8803 98.08 44.7703 104.14 43.2303C110.2 41.6903 121.04 38.0203 121.04 38.0203C121.04 38.0203 117.04 24.7703 110.73 21.8603C106.656 19.9153 102.902 17.3591 99.6 14.2803C99.6 14.2803 108.1 7.17029 114.14 7.17029C117.059 7.27321 119.98 7.02475 122.84 6.43028H122.89Z" fill="#CCCCCC"/>
<path d="M22.6699 35.9303C22.5999 43.3303 27.8699 47.4103 34.5799 47.4903C41.2899 47.5703 46.9099 43.6203 46.9799 36.2303C47.0499 28.8403 41.6699 22.7803 34.9799 22.7003C28.2899 22.6203 22.7399 28.5403 22.6699 35.9303ZM83.6099 32.9303C83.5299 40.5503 89.4499 45.3203 97.1799 45.4103C104.91 45.5003 111.55 40.8503 111.63 33.2403C111.671 29.5273 110.235 25.95 107.639 23.2954C105.043 20.6409 101.498 19.1264 97.7849 19.0853C94.0719 19.0442 90.4946 20.4798 87.84 23.0762C85.1854 25.6727 83.671 29.2173 83.6299 32.9303H83.6099Z" fill="#333333"/>
<path d="M34.5498 33.3799C34.5498 34.9199 36.4498 36.1999 38.8298 36.2199C41.2098 36.2399 43.1498 35.0299 43.1698 33.4899C43.1698 31.9399 41.2598 30.6699 38.8798 30.6399C36.4998 30.6099 34.5598 31.8399 34.5498 33.3799V33.3799ZM97.8098 30.1599C97.8098 31.7499 99.9998 33.0599 102.74 33.0899C105.48 33.1199 107.74 31.8599 107.74 30.2699C107.74 28.6799 105.55 27.3699 102.81 27.3399C100.07 27.3099 97.8098 28.5699 97.8098 30.1599Z" fill="white"/>
<path d="M53.78 37.62C47.61 48.12 27.86 48.23 17.36 41.93C17.11 40.93 17.68 38.38 17.96 36.93C20.3 24.93 40.73 5.82997 53.78 37.63V37.62ZM119.45 34.69C112.35 45.5 89.45 46.19 77.31 39.69C77.0197 38.4066 77.0437 37.0721 77.38 35.8C80.08 23.43 102.38 0.149965 119.45 34.67V34.69Z" stroke="#999999" stroke-width="3" stroke-miterlimit="15.12"/>
<path d="M126.05 2.1001L11.4499 4.00009C5.73992 4.81009 1.34992 7.0001 1.44992 14.0701L2.21992 54.0701C3.26992 61.4201 6.91991 63.1401 12.7899 63.9301L23.6099 64.1601C23.6327 61.5186 24.6053 58.9736 26.3499 56.9901C25.4799 56.9901 15.9399 57.3901 10.4799 56.2901C4.74992 55.1401 6.57992 51.9101 6.57992 51.9101H33.0799L29.2399 54.9101C30.8017 54.1171 32.4537 53.5161 34.1599 53.1201L43.4399 46.5301C61.7899 40.2401 75.8399 40.9201 81.1699 56.1301L89.0599 64.3301L128.35 64.2601C131.17 62.5101 134.29 61.7201 135.96 56.1501L137.08 20.9601L171.45 17.8001L171.24 10.2201L135.53 8.7401C133.255 5.48112 129.888 3.14361 126.04 2.15009L126.05 2.1001ZM122.12 9.22009C129.28 9.55009 129.12 12.8701 129.59 15.9301L7.09993 15.6101C6.86993 13.5001 7.29993 12.7601 10.7099 11.1201L122.12 9.22009ZM129.33 20.7801L129.59 26.3601L7.10992 26.0001L7.29992 20.9301L129.33 20.7801ZM129.38 30.6001L129.78 35.6001L7.14991 36.3401V31.0001L129.38 30.6001ZM129.56 40.4001L129.51 46.3401L83.8999 46.4001L80.2999 40.6801L129.56 40.4001ZM46.1999 40.7901L44.5599 45.2701L41.5599 45.8401L6.46992 45.9401L6.97992 41.0701L46.1999 40.7901ZM86.1999 51.3701L129.62 51.5101C129.62 51.5101 128.13 55.2001 126.21 56.2101C124.29 57.2201 88.2099 56.3601 88.2099 56.3601L86.1999 51.3701Z" fill="#008080"/>
<path d="M136.19 8.80997L171.07 9.99997V17.78L136 21.18L136.19 8.80997ZM25.84 57L12.1301 56.9C6.69005 56.9 6.13005 53.79 6.13005 48.52V16.13C6.13005 10.86 10.51 10.66 15.94 10.57L119.86 8.75996C125.3 8.66996 129.68 10.26 129.68 15.53V48.3C129.68 53.56 128.41 56.48 122.97 56.5L87.33 56.6C82.33 40.46 79.5601 36.88 58.8801 37.27C51.4001 37.42 45.77 39.88 45.22 44.53L25.84 57ZM6.77005 51.37H34.11H6.77005ZM86 51L129.15 50.73C129.77 52.34 129.89 56.73 120.56 56.64L87.67 56.79L86 51ZM41.67 46.57L6.16005 46.73L6.32005 41.08L45.87 40.83L41.67 46.57ZM79.42 40.61L129.42 40.3V46.16L83.61 46.38L79.42 40.61ZM6.61005 30.9L129.69 30.12V36L6.45004 36.57L6.61005 30.9ZM6.61005 20.98L129.68 20.2V26.07L6.45004 26.64L6.61005 20.98ZM14.9 10.52L121.81 8.78996C122.55 8.96996 129.72 8.07997 129.72 15.66L6.49005 16.23C6.56005 12 8.43004 10.53 14.9 10.53V10.52ZM11.9 4.18997L126 2.27997C127.323 2.272 128.635 2.52678 129.859 3.02952C131.083 3.53227 132.196 4.27298 133.131 5.20872C134.067 6.14447 134.808 7.25664 135.311 8.48077C135.813 9.7049 136.068 11.0166 136.06 12.34V54.09C136.068 55.4133 135.813 56.725 135.311 57.9492C134.808 59.1733 134.067 60.2855 133.131 61.2212C132.196 62.157 131.083 62.8977 129.859 63.4004C128.635 63.9032 127.323 64.1579 126 64.15L90.55 63.84C86.81 63.6 84.03 61.45 82.01 57.72C80.46 54.86 81.01 40.91 55.81 42.44C45.67 43.05 39.81 48.64 33.92 51.96C28.03 55.28 24.26 57.19 23.92 63.29L11.8501 63.19C6.27005 63.19 1.79004 59.91 1.79004 54.34V14.25C1.79796 11.5852 2.86072 9.03208 4.74591 7.14877C6.6311 5.26546 9.18533 4.20524 11.8501 4.19996L11.9 4.18997Z" stroke="black" stroke-width="3" stroke-linecap="round" stroke-linejoin="round"/>
</svg>
