<svg width="171" height="57" viewBox="0 0 171 57" fill="none" xmlns="http://www.w3.org/2000/svg">
<path d="M51.57 31.85C42.02 47.14 17.12 46.25 4.29002 35.76C1.66002 24.76 31.77 -12.15 51.57 31.85ZM123.24 32.45C113.24 48.53 87.01 47.59 73.51 36.56C70.75 25 102.41 -13.83 123.24 32.45Z" fill="white"/>
<path d="M11.61 28.47C11.21 36.97 17.61 43.41 26.29 43.81C34.97 44.21 42.49 38.44 42.89 29.94C43.006 25.8391 41.5079 21.8564 38.7181 18.8484C35.9283 15.8405 32.0695 14.0474 27.9714 13.8548C23.8734 13.6622 19.8634 15.0855 16.8038 17.8186C13.7442 20.5517 11.8792 24.3763 11.61 28.47V28.47ZM81.2101 28.89C80.7901 37.83 87.56 44.6 96.65 45.03C105.74 45.46 113.65 39.38 114.11 30.44C114.251 26.1158 112.684 21.9099 109.749 18.7314C106.814 15.5529 102.746 13.6569 98.4238 13.4533C94.1021 13.2497 89.8739 14.7548 86.6528 17.6433C83.4318 20.5318 81.4767 24.5717 81.2101 28.89V28.89Z" fill="#333333"/>
<path d="M51.57 31.8503C42.76 48.1403 16.87 50.2503 4.29002 35.7603C4.02532 34.315 4.10758 32.8276 4.53003 31.4203C8.04003 17.7003 33.91 -7.39968 51.53 31.8503H51.57ZM123.24 32.4503C113.98 49.5703 86.75 51.8003 73.51 36.5603C73.2381 35.0376 73.3272 33.4724 73.77 31.9903C77.46 17.5703 104.66 -8.83969 123.24 32.4503V32.4503Z" stroke="#999999" stroke-width="3" stroke-miterlimit="15.12"/>
<path d="M97.7501 0.180176C91.3484 0.180175 85.1372 2.35833 80.1376 6.35655C75.138 10.3548 71.6476 15.9351 70.2401 22.1802C66.6801 20.2902 58.3201 18.8502 53.3901 21.6002C52.1966 16.7125 49.6518 12.2594 46.0467 8.7498C42.4415 5.24025 37.9216 2.81598 33.0037 1.75412C28.0858 0.692264 22.9683 1.03569 18.2363 2.74515C13.5043 4.4546 9.34887 7.4611 6.24503 11.4209C3.14119 15.3807 1.21423 20.1339 0.684454 25.1372C0.154681 30.1405 1.04348 35.192 3.24923 39.7139C5.45498 44.2359 8.88867 48.046 13.1577 50.7085C17.4267 53.371 22.3588 54.7786 27.3901 54.7702C27.5901 54.7702 27.8401 54.9002 27.9901 54.7702C30.7046 52.8133 33.6672 51.2261 36.8001 50.0502C39.5501 48.9102 45.3801 44.3802 46.5201 46.7502C50.7031 42.4834 53.3365 36.9385 54.0001 31.0002C56.5107 29.9571 59.2134 29.4562 61.9311 29.5303C64.6487 29.6044 67.3201 30.2518 69.7701 31.4302C70.5298 38.3697 73.8382 44.7803 79.0543 49.4198C84.2705 54.0594 91.0232 56.5976 98.0039 56.5429C104.985 56.4881 111.697 53.8442 116.839 49.1233C121.982 44.4025 125.189 37.9408 125.84 30.9902L132.12 30.5802L169.39 29.6402C170.67 27.8802 171.28 25.8302 169.17 22.6402L132.51 21.0002L124.92 20.8902C123.281 14.9409 119.736 9.69348 114.828 5.95261C109.92 2.21173 103.921 0.183924 97.7501 0.180176V0.180176ZM97.7501 3.52019C104.342 3.52019 110.663 6.13798 115.325 10.798C119.987 15.458 122.607 21.7786 122.61 28.3702V28.3702C122.612 33.2874 121.156 38.0949 118.425 42.1844C115.695 46.2739 111.813 49.4618 107.271 51.345C102.728 53.2281 97.7293 53.7218 92.9063 52.7637C88.0833 51.8056 83.6527 49.4387 80.175 45.9624C76.6972 42.4861 74.3286 38.0565 73.3685 33.2338C72.4085 28.4112 72.9002 23.4121 74.7815 18.869C76.6628 14.3258 79.8492 10.4426 83.9376 7.71054C88.026 4.97845 92.8328 3.52019 97.7501 3.52019V3.52019ZM27.3401 4.35019C32.0124 4.35217 36.5792 5.73921 40.4634 8.33603C44.3476 10.9328 47.3748 14.6229 49.1623 18.9397C50.9499 23.2565 51.4176 28.0064 50.5063 32.5889C49.595 37.1715 47.3457 41.3811 44.0426 44.6856C40.7395 47.9901 36.5309 50.2412 31.9487 51.1544C27.3665 52.0677 22.6164 51.602 18.2988 49.8162C13.9813 48.0305 10.29 45.0049 7.6915 41.1218C5.09304 37.2387 3.70406 32.6725 3.70011 28.0002C3.69748 24.8945 4.30709 21.8188 5.49405 18.9489C6.68102 16.079 8.42207 13.4713 10.6176 11.2748C12.8132 9.07828 15.4202 7.33613 18.2896 6.14795C21.159 4.95977 24.2344 4.34887 27.3401 4.35019V4.35019Z" fill="#333333"/>
<path d="M16.6602 32.44C16.6735 33.5333 17.1009 34.5809 17.8563 35.3715C18.6116 36.1621 19.6386 36.6368 20.7301 36.7C21.2526 36.7609 21.782 36.714 22.2856 36.5624C22.7892 36.4107 23.2565 36.1575 23.6584 35.8183C24.0604 35.4791 24.3886 35.0611 24.6228 34.5902C24.857 34.1192 24.9923 33.6053 25.0202 33.08C25.0141 31.9862 24.5904 30.936 23.8357 30.1442C23.0811 29.3523 22.0524 28.8787 20.9602 28.82C20.4367 28.7562 19.9057 28.8009 19.4002 28.9513C18.8948 29.1017 18.4257 29.3546 18.0223 29.6942C17.6189 30.0338 17.2897 30.4529 17.0554 30.9253C16.821 31.3977 16.6865 31.9133 16.6602 32.44ZM26.8202 23.3C26.8357 24.7511 27.4021 26.142 28.4047 27.1911C29.4074 28.2402 30.7713 28.8689 32.2202 28.95V28.95C32.9134 29.0332 33.6163 28.9729 34.2853 28.7728C34.9542 28.5726 35.5748 28.237 36.1085 27.7868C36.6422 27.3366 37.0775 26.7814 37.3875 26.1558C37.6974 25.5301 37.8753 24.8474 37.9102 24.15V24.15C37.8947 22.7016 37.3293 21.3132 36.3285 20.266C35.3277 19.2188 33.9664 18.5911 32.5202 18.51V18.51C31.8272 18.4269 31.1245 18.4869 30.4557 18.6863C29.7868 18.8857 29.166 19.2203 28.6317 19.6693C28.0974 20.1183 27.6609 20.6722 27.3493 21.2968C27.0377 21.9213 26.8576 22.6031 26.8202 23.3V23.3ZM86.5202 33.06C86.5335 34.21 86.9827 35.3121 87.7771 36.1436C88.5716 36.9752 89.652 37.4742 90.8002 37.54C91.3509 37.6127 91.9108 37.5699 92.4441 37.4143C92.9774 37.2587 93.4724 36.9937 93.8976 36.6362C94.3229 36.2787 94.6689 35.8365 94.9139 35.3379C95.1588 34.8393 95.2972 34.2951 95.3202 33.74C95.307 32.589 94.8581 31.4858 94.0639 30.6526C93.2697 29.8195 92.1892 29.3183 91.0401 29.25C90.4899 29.185 89.9321 29.2335 89.4013 29.3927C88.8705 29.5518 88.3781 29.8182 87.9544 30.1754C87.5307 30.5325 87.1848 30.9728 86.9381 31.469C86.6914 31.9651 86.5492 32.5067 86.5202 33.06V33.06ZM98.2202 23.46C98.2333 24.987 98.8281 26.4516 99.8835 27.5552C100.939 28.6589 102.375 29.3186 103.9 29.4C104.63 29.4888 105.371 29.4263 106.076 29.2164C106.781 29.0065 107.436 28.6537 107.999 28.18C108.561 27.7063 109.021 27.1218 109.348 26.4629C109.675 25.804 109.863 25.0848 109.9 24.35C109.887 22.8247 109.294 21.3615 108.241 20.2581C107.187 19.1547 105.753 18.4939 104.23 18.41C103.5 18.3228 102.76 18.3863 102.055 18.5968C101.351 18.8073 100.697 19.1602 100.135 19.6336C99.5723 20.107 99.113 20.691 98.7854 21.3492C98.4577 22.0074 98.2688 22.7258 98.2301 23.46H98.2202Z" fill="white"/>
<path d="M27.11 5.82008C24.2074 5.81746 21.3328 6.38688 18.6504 7.49583C15.968 8.60478 13.5304 10.2315 11.4771 12.283C9.42372 14.3345 7.79479 16.7706 6.68341 19.452C5.57203 22.1334 5 25.0075 5 27.9101V27.9101C5 30.8127 5.57203 33.6868 6.68341 36.3682C7.79479 39.0496 9.42372 41.4856 11.4771 43.5371C13.5304 45.5886 15.968 47.2154 18.6504 48.3243C21.3328 49.4333 24.2074 50.0027 27.11 50.0001C32.8859 49.8772 38.3839 47.4964 42.4253 43.368C46.4667 39.2397 48.73 33.6923 48.73 27.9151C48.73 22.1378 46.4667 16.5905 42.4253 12.4621C38.3839 8.33379 32.8859 5.95299 27.11 5.83008V5.82008ZM27.11 7.17007C32.6106 7.17007 37.8859 9.35517 41.7754 13.2447C45.6649 17.1342 47.85 22.4095 47.85 27.9101V27.9101C47.8474 33.4099 45.6614 38.6836 41.7725 42.5725C37.8835 46.4615 32.6098 48.6474 27.11 48.6501V48.6501C24.3864 48.6501 21.6894 48.1136 19.1731 47.0713C16.6568 46.0291 14.3705 44.5014 12.4446 42.5755C10.5187 40.6496 8.99103 38.3632 7.94875 35.8469C6.90646 33.3306 6.37 30.6337 6.37 27.9101C6.36868 25.1861 6.90424 22.4886 7.94606 19.9717C8.98788 17.4548 10.5155 15.1679 12.4417 13.2417C14.3678 11.3156 16.6547 9.78796 19.1716 8.74614C21.6885 7.70432 24.386 7.16876 27.11 7.17007V7.17007ZM97.53 5.08008C91.369 5.08008 85.4604 7.52752 81.1039 11.884C76.7474 16.2405 74.3 22.1491 74.3 28.3101V28.3101C74.3 34.4711 76.7474 40.3797 81.1039 44.7362C85.4604 49.0926 91.369 51.5401 97.53 51.5401V51.5401C103.691 51.5401 109.6 49.0926 113.956 44.7362C118.313 40.3797 120.76 34.4711 120.76 28.3101C120.76 22.1491 118.313 16.2405 113.956 11.884C109.6 7.52752 103.691 5.08008 97.53 5.08008V5.08008ZM97.53 6.50008C100.394 6.49876 103.231 7.062 105.878 8.15759C108.525 9.25318 110.929 10.8596 112.955 12.8851C114.98 14.9107 116.587 17.3155 117.682 19.9622C118.778 22.6089 119.341 25.4456 119.34 28.3101V28.3101C119.341 31.175 118.778 34.0122 117.683 36.6595C116.587 39.3067 114.981 41.7122 112.956 43.7385C110.93 45.7648 108.525 47.3723 105.879 48.4689C103.232 49.5656 100.395 50.1301 97.53 50.1301V50.1301C94.665 50.1301 91.8281 49.5656 89.1814 48.4689C86.5346 47.3723 84.1298 45.7648 82.1045 43.7385C80.0791 41.7122 78.4728 39.3067 77.3773 36.6595C76.2819 34.0122 75.7187 31.175 75.72 28.3101V28.3101C75.7187 25.4456 76.2819 22.6089 77.3775 19.9622C78.4731 17.3155 80.0796 14.9107 82.1051 12.8851C84.1306 10.8596 86.5354 9.25318 89.1821 8.15759C91.8288 7.062 94.6655 6.49876 97.53 6.50008V6.50008Z" fill="white"/>
<path d="M51.09 27.8303C51.0913 30.9706 50.4738 34.0803 49.2726 36.9818C48.0715 39.8833 46.3104 42.5196 44.0899 44.7402C41.8694 46.9607 39.233 48.7218 36.3315 49.9229C33.43 51.1241 30.3203 51.7416 27.18 51.7403C20.8387 51.7403 14.7571 49.2212 10.2731 44.7372C5.78909 40.2532 3.27002 34.1716 3.27002 27.8303V27.8303C3.27002 21.489 5.78909 15.4074 10.2731 10.9234C14.7571 6.43939 20.8387 3.9203 27.18 3.9203C33.5213 3.9203 39.6029 6.43939 44.0869 10.9234C48.5709 15.4074 51.09 21.489 51.09 27.8303V27.8303ZM122.75 28.2203C122.75 34.8905 120.1 41.2875 115.384 46.004C110.667 50.7206 104.27 53.3703 97.6 53.3703C94.2973 53.3703 91.0269 52.7198 87.9755 51.4559C84.9242 50.192 82.1517 48.3394 79.8163 46.004C77.4809 43.6687 75.6283 40.8961 74.3644 37.8448C73.1005 34.7934 72.45 31.5231 72.45 28.2203V28.2203C72.45 24.9176 73.1005 21.6471 74.3644 18.5958C75.6283 15.5445 77.4809 12.772 79.8163 10.4366C82.1517 8.10118 84.9242 6.24865 87.9755 4.98474C91.0269 3.72084 94.2973 3.07031 97.6 3.07031V3.07031C104.27 3.07031 110.667 5.72003 115.384 10.4366C120.1 15.1531 122.75 21.5501 122.75 28.2203Z" fill="white" fill-opacity="0.4"/>
</svg>
