<svg width="174" height="44" viewBox="0 0 174 44" fill="none" xmlns="http://www.w3.org/2000/svg">
<path d="M130 1.61035L2.12988 5.18034L2.27988 18.0903C3.74988 26.8003 9.16989 39.7404 17.5699 42.3904L36.9299 42.2704C60.8199 4.07035 73.5999 43.2104 80.6099 42.2704H98.5299C118.86 40.4404 123.3 24.4304 130.03 18.2204L130 1.61035ZM133.85 1.97035V17.2603L169.14 15.8304C174.63 13.6104 171.14 10.5404 169.72 9.00035L133.85 1.97035Z" fill="black" stroke="black" stroke-width="3"/>
<path d="M101.39 2.29004L86.1098 39.84L82.9298 39.7101L98.2398 2.34004L101.39 2.29004ZM117.17 2.29004L101.89 39.84L89.9398 39.7101L105.25 2.34004L117.17 2.29004ZM37.2398 4.42004L22.9998 39.84L19.8198 39.7101L34.0898 4.47005L37.2398 4.42004ZM51.2398 4.42004L36.9998 39.84L26.7998 39.7101L41.0698 4.47005L51.2398 4.42004Z" fill="#F2F2F2"/>
</svg>
