<svg xmlns="http://www.w3.org/2000/svg" viewBox="0 0 512 512"><defs><style>.cls-1,.cls-2{fill:#fff;}.cls-1{stroke:#fff;stroke-miterlimit:10;stroke-width:5px;}.cls-2,.cls-4,.cls-5{stroke:#000;stroke-linecap:round;stroke-linejoin:round;}.cls-3{fill:#f1f1f1;}.cls-4{fill:red;}.cls-5{fill:blue;}.cls-6{fill:#ff8f8f;}.cls-7{fill:#8f8fff;}</style></defs><g id="Rectangle"><rect class="cls-1" x="2.5" y="2.5" width="507" height="507"/></g><g id="Glasses"><g id="layer1"><g id="g679499"><path id="rect679888" class="cls-2" d="M186.72,182.8H162.21a6.91,6.91,0,0,1-6.93-6.92V148.06a6.91,6.91,0,0,1,6.93-6.93h39.25c3.84,0,6.93,5,6.9,8.82,1.42-2.5,23.14-3.23,23.83,0,.07-3.79,3.16-8.78,7-8.78h39.26a6.91,6.91,0,0,1,6.93,6.93v3.27l3.8.32,32.31,4.07,3.8,10.7c-1.27,2.86-5.2,2.4-7.81-.66l-28.3,3.94-3.8.12v6.06a6.91,6.91,0,0,1-6.93,6.92H239.18a6.9,6.9,0,0,1-6.92-6.92l0-8.4c1-7-24.57-8.53-23.8.2C204.58,174.55,191.33,177.74,186.72,182.8Z"/><path id="path695542" class="cls-3" d="M162.61,142.52c-3.83,0-6.06,1.44-6.06,5.27V175.2L273,142.37l-33.29-.15c-3.84,0-7.06,5.19-7.13,9-.69-3.19-23.45-2-24.86.49,0-3.83-2.86-8.73-6.7-8.77Zm159,17L280.72,156,234.5,178.38a6.93,6.93,0,0,0,5.86,3.25l36.9-.13c3.83,0,6-3.2,6.92-6.92l.16-4.76.26-1.27,33.72-4.65c1.6,2.48,2.29,3.94,5.62,2.27ZM207.7,167.34c1-5.19,5-5.22,8.3-6.46l-.29-4.06c-19.5,6.06-36.72,17.69-51.35,25h22.18C191.06,176.91,203.52,173.93,207.7,167.34Z"/><rect id="rect680113" class="cls-4" x="237.65" y="145.36" width="42.32" height="33.21" rx="5.52"/><path id="rect680153" class="cls-5" d="M166.19,145.36h31.29a5.51,5.51,0,0,1,5.52,5.52v22c-1.41,1.18-4.37,2.74-10.82,5.73h-26a5.51,5.51,0,0,1-5.52-5.52V150.88A5.51,5.51,0,0,1,166.19,145.36Z"/><path id="path686886" class="cls-6" d="M250.73,177.48l20-31-19.18-.06-13,21.44c-.06,11.56,1.93,9.8,12.15,9.65Z"/><path id="path693730" class="cls-7" d="M173.76,177.48l20-31-19.18-.06-13,21.44c-.06,11.56,1.93,9.8,12.16,9.65Z"/></g></g></g></svg>