<svg xmlns="http://www.w3.org/2000/svg" viewBox="0 0 512 512"><defs><style>.cls-1{fill:#fff;stroke:#fff;stroke-width:5px;}.cls-1,.cls-2,.cls-3,.cls-4{stroke-miterlimit:10;}.cls-2{fill:#1a1a1a;}.cls-2,.cls-3,.cls-4{stroke:#000;stroke-width:3px;}.cls-4{fill:#b3b3b3;}</style></defs><g id="Rectangle"><rect class="cls-1" x="2.5" y="2.5" width="507" height="507"/></g><g id="Glasses"><g id="layer1"><g id="g300686"><path id="path258943" class="cls-2" d="M254.71,127a27.47,27.47,0,0,0-26.8,21.45c-3.47-1.84-11.61-3.25-16.41-.56a26.12,26.12,0,1,0-25.37,32.3c.19,0,.44.12.59,0a36.82,36.82,0,0,1,8.58-4.6c2.68-1.11,8.36-5.51,9.46-3.21A26.06,26.06,0,0,0,212.07,157a18.81,18.81,0,0,1,15.36.42A27.44,27.44,0,0,0,282,157l6.11-.4,31.49-3.18c1.24-1.71,2.57-3.4.51-6.54l-32.12.58-7-.44A27.46,27.46,0,0,0,254.71,127Zm0,3.26a24.21,24.21,0,1,1-24.21,24.2A24.19,24.19,0,0,1,254.71,130.26Zm-68.58.8a23,23,0,1,1-23,23A23,23,0,0,1,186.13,131.06Z"/><path id="circle261476" class="cls-3" d="M209.57,154.08a23.45,23.45,0,0,1-23.45,23.45h0a23.45,23.45,0,0,1-23.44-23.45h0a23.44,23.44,0,0,1,23.44-23.44h0a23.44,23.44,0,0,1,23.45,23.44Zm70.37.51a25.08,25.08,0,0,1-25.08,25.08h0a25.08,25.08,0,1,1,25.08-25.07Z"/><path id="path270272" class="cls-4" d="M185.49,131.15a23,23,0,0,0-6.06.82l-12.36,35.26a22.86,22.86,0,0,0,9.07,7.68L192.51,132a23,23,0,0,0-7-.81Zm9.9,2.08-15.6,42.84a6.49,6.49,0,0,0,3.06.8c.55,0,13.12-31.88,14.05-32.8l-8.23,32,14.25-37.44A18.86,18.86,0,0,0,195.39,133.23Zm58.71-2.44a24,24,0,0,0-6.25.86l-12.76,36.41a23.48,23.48,0,0,0,9.36,7.93l16.9-44.36a23.85,23.85,0,0,0-7.25-.84ZM264.32,133l-16.1,44.24a6.73,6.73,0,0,0,3.16.83c.57,0,13.55-32.93,14.5-33.88l-8.5,33.07,14.72-38.66a19.25,19.25,0,0,0-7.78-5.6Z"/></g></g></g></svg>