<svg width="172" height="44" viewBox="0 0 172 44" fill="none" xmlns="http://www.w3.org/2000/svg">
<path d="M32.7201 42.7999H8.21007C7.30011 42.8025 6.39859 42.6254 5.55726 42.2787C4.71594 41.932 3.95138 41.4225 3.30748 40.7796C2.66357 40.1366 2.153 39.3728 1.80508 38.532C1.45716 37.6911 1.27874 36.7899 1.28006 35.8799V8.0599C1.27742 7.1491 1.45487 6.24676 1.8022 5.40478C2.14953 4.56281 2.65989 3.79781 3.30392 3.15378C3.94796 2.50974 4.71297 1.99937 5.55495 1.65204C6.39692 1.30471 7.29927 1.12727 8.21007 1.12991H47.4601C51.3001 1.12991 54.3901 6.1299 54.3601 9.9499C55.7801 7.4499 77.5001 6.7199 78.1901 9.9499C78.2601 6.1599 81.3501 1.16991 85.1901 1.16991H124.45C125.361 1.16727 126.263 1.34472 127.105 1.69205C127.947 2.03938 128.712 2.54973 129.356 3.19377C130 3.83781 130.511 4.60281 130.858 5.44479C131.205 6.28677 131.383 7.18911 131.38 8.09991V11.3699L135.18 11.6899L167.49 15.7599L171.29 26.4599C170.02 29.3199 166.09 28.8599 163.48 25.7999L135.18 29.7399L131.38 29.8599V35.9199C131.381 36.8299 131.203 37.7311 130.855 38.5719C130.507 39.4128 129.997 40.1766 129.353 40.8196C128.709 41.4625 127.944 41.972 127.103 42.3187C126.262 42.6654 125.36 42.8425 124.45 42.8399H85.1801C84.2706 42.8425 83.3695 42.6654 82.5288 42.3185C81.688 41.9717 80.9241 41.4621 80.281 40.819C79.6379 40.1759 79.1283 39.412 78.7814 38.5712C78.4346 37.7304 78.2574 36.8294 78.2601 35.9199V27.5199C79.2601 20.5199 53.6901 18.9899 54.4601 27.7199C50.5801 34.5499 37.3301 37.7399 32.7201 42.7999Z" fill="white" stroke="black" stroke-linecap="round" stroke-linejoin="round"/>
<path d="M8.61005 2.51973C4.78005 2.51973 2.55005 3.95972 2.55005 7.78972V35.1997L119 2.36972L85.7101 2.21973C81.8701 2.21973 78.65 7.40973 78.58 11.2197C77.89 8.02973 55.13 9.21973 53.72 11.7097C53.72 7.87973 50.86 2.97973 47.0201 2.93973L8.61005 2.51973ZM167.61 19.5197L126.72 15.9997L80.5 38.3797C81.1223 39.3727 81.9863 40.1917 83.0111 40.7601C84.0359 41.3285 85.1882 41.6277 86.36 41.6297L123.26 41.4997C127.09 41.4997 129.26 38.2997 130.18 34.5797L130.34 29.8197L130.6 28.5497L164.32 23.8997C165.92 26.3797 166.61 27.8397 169.94 26.1697L167.61 19.5197ZM53.7 27.3397C54.7 22.1497 58.7 22.1197 62 20.8797L61.7101 16.8197C42.2101 22.8797 24.99 34.5097 10.36 41.8197H32.54C37.06 36.9097 49.52 33.9297 53.7 27.3397Z" fill="#F1F1F1"/>
<path d="M120.45 5.36035H89.1702C86.1215 5.36035 83.6501 7.83174 83.6501 10.8804V33.0504C83.6501 36.099 86.1215 38.5704 89.1702 38.5704H120.45C123.499 38.5704 125.97 36.099 125.97 33.0504V10.8804C125.97 7.83174 123.499 5.36035 120.45 5.36035Z" fill="#FF0000" stroke="black" stroke-linecap="round" stroke-linejoin="round"/>
<path d="M12.1902 5.36039H43.4802C44.2054 5.35907 44.9238 5.50094 45.5941 5.77788C46.2644 6.05482 46.8735 6.46138 47.3863 6.97422C47.8992 7.48706 48.3057 8.09611 48.5827 8.76642C48.8596 9.43674 49.0015 10.1551 49.0002 10.8804V32.8804C47.5902 34.0604 44.6302 35.6204 38.1802 38.6104H12.1802C11.4549 38.6117 10.7365 38.4698 10.0662 38.1929C9.39587 37.916 8.78684 37.5094 8.274 36.9966C7.76115 36.4837 7.3546 35.8747 7.07766 35.2044C6.80072 34.534 6.65885 33.8157 6.66017 33.0904V10.8804C6.65884 10.1543 6.80104 9.43507 7.07861 8.7641C7.35617 8.09314 7.76362 7.48364 8.27752 6.97066C8.79142 6.45769 9.40165 6.05135 10.0731 5.775C10.7446 5.49865 11.4641 5.35775 12.1902 5.36039Z" fill="#0000FF" stroke="black" stroke-linecap="round" stroke-linejoin="round"/>
<path d="M96.7301 37.4799L116.73 6.47992L97.5501 6.41992L84.5501 27.8599C84.4901 39.4199 86.4801 37.6599 96.7001 37.5099L96.7301 37.4799Z" fill="#FF8F8F"/>
<path d="M19.7601 37.4799L39.7601 6.47992L20.5802 6.41992L7.58016 27.8599C7.52016 39.4199 9.51016 37.6599 19.7402 37.5099L19.7601 37.4799Z" fill="#8F8FFF"/>
</svg>
