<svg xmlns="http://www.w3.org/2000/svg" viewBox="0 0 512 512"><defs><style>.cls-1{fill:#fff;stroke:#fff;stroke-miterlimit:10;stroke-width:5px;}.cls-2{stroke:#000;stroke-width:3px;}.cls-3{fill:#f2f2f2;}</style></defs><g id="Rectangle"><rect class="cls-1" x="2.5" y="2.5" width="507" height="507"/></g><g id="Glasses"><g id="layer1"><g id="g8806"><path id="path363125" class="cls-2" d="M283,139.61l-127.87,3.57.15,12.91c1.47,8.71,6.89,21.65,15.29,24.3l19.36-.12c23.89-38.2,36.67.94,43.68,0h17.92c20.33-1.83,24.77-17.84,31.5-24.05Zm3.85.36v15.29l35.29-1.43c5.49-2.22,2-5.29.58-6.83Z"/><path id="path296043" class="cls-3" d="M254.39,140.29l-15.28,37.55-3.18-.13,15.31-37.37Zm15.78,0-15.28,37.55-11.95-.13,15.31-37.37Zm-79.93,2.13L176,177.84l-3.18-.13,14.27-35.24Zm14,0L190,177.84l-10.2-.13,14.27-35.24Z"/></g></g></g></svg>