<svg xmlns="http://www.w3.org/2000/svg" viewBox="0 0 512 512"><defs><style>.cls-1,.cls-2{fill:#fff;}.cls-1{stroke:#fff;stroke-miterlimit:10;stroke-width:5px;}.cls-3{fill:#ccc;}.cls-4{fill:#333;}.cls-5,.cls-7{fill:none;stroke-width:3px;}.cls-5{stroke:#999;stroke-miterlimit:15.12;}.cls-6{fill:teal;}.cls-7{stroke:#000;stroke-linecap:round;stroke-linejoin:round;}</style></defs><g id="Rectangle"><rect class="cls-1" x="2.5" y="2.5" width="507" height="507"/></g><g id="Glasses"><g id="layer1"><g id="g1849"><path id="path621540-2" class="cls-2" d="M207.78,166.62c-6.17,10.5-26.09,11.17-36.59,4.88C168.84,162,191.18,129,207.78,166.62Zm65.67-2.93c-7.1,10.81-30,11.5-42.14,5C228.6,158.93,254.33,125,273.45,163.69Z"/><path id="path530256" class="cls-3" d="M276.89,135.43s9.33-3.49,9.11,13.36-2.25,36.92-2.25,36.92l-43.29.59-6-14.42s17.62,1.89,23.68.35,16.9-5.21,16.9-5.21-4-13.25-10.31-16.16a44.32,44.32,0,0,1-11.13-7.58s8.5-7.11,14.54-7.11a36.44,36.44,0,0,0,8.7-.74Z"/><path id="path621542-7" class="cls-4" d="M176.67,164.93c-.07,7.4,5.2,11.48,11.91,11.56s12.33-3.87,12.4-11.26-5.31-13.45-12-13.53S176.74,157.54,176.67,164.93Zm60.94-3c-.08,7.62,5.84,12.39,13.57,12.48s14.37-4.56,14.45-12.17a14,14,0,0,0-28-.31Z"/><path id="ellipse621546-0" class="cls-2" d="M188.55,162.38c0,1.54,1.9,2.82,4.28,2.84s4.32-1.19,4.34-2.73h0c0-1.55-1.91-2.82-4.29-2.85s-4.32,1.2-4.33,2.74Zm63.26-3.22c0,1.59,2.19,2.9,4.93,2.93s5-1.23,5-2.82h0c0-1.59-2.19-2.9-4.93-2.93s-5,1.23-5,2.82Z"/><path id="path621544-3" class="cls-5" d="M207.78,166.62c-6.17,10.5-25.92,10.61-36.42,4.31-.25-1,.32-3.55.6-5,2.34-12,22.77-31.1,35.82.7Zm65.67-2.93c-7.1,10.81-30,11.5-42.14,5a8.17,8.17,0,0,1,.07-3.89c2.7-12.37,25-35.65,42.07-1.13Z"/><path id="path1569" class="cls-6" d="M280.05,131.1,165.45,133c-5.71.81-10.1,3-10,10.07l.77,40c1.05,7.35,4.7,9.07,10.57,9.86l10.82.23a11,11,0,0,1,2.74-7.17c-.87,0-10.41.4-15.87-.7-5.73-1.15-3.9-4.38-3.9-4.38l26.5,0-3.84,3a21.71,21.71,0,0,1,4.92-1.79l9.28-6.59c18.35-6.29,32.4-5.61,37.73,9.6l7.89,8.2,39.29-.07c2.82-1.75,5.94-2.54,7.61-8.11l1.12-35.19,34.37-3.16-.21-7.58-35.71-1.48a16.65,16.65,0,0,0-9.49-6.59Zm-3.93,7.12c7.16.33,7,3.65,7.47,6.71l-122.49-.32c-.23-2.11.2-2.85,3.61-4.49Zm7.21,11.56.26,5.58L161.11,155l.19-5.07Zm.05,9.82.4,5-122.63.74V160Zm.18,9.8-.05,5.94-45.61.06-3.6-5.72Zm-83.36.39-1.64,4.48-3,.57-35.09.1.51-4.87Zm40,10.58,43.42.14s-1.49,3.69-3.41,4.7-38,.15-38,.15Z"/><path id="path28071" class="cls-7" d="M290.19,137.81,325.07,139v7.78L290,150.18ZM179.84,186l-13.71-.1c-5.44,0-6-3.11-6-8.38V145.13c0-5.27,4.38-5.47,9.81-5.56l103.92-1.81c5.44-.09,9.82,1.5,9.82,6.77V177.3c0,5.26-1.27,8.18-6.71,8.2l-35.64.1c-5-16.14-7.77-19.72-28.45-19.33-7.48.15-13.11,2.61-13.66,7.26m-38.45,6.84h27.34M240,180l43.15-.27c.62,1.61.74,6-8.59,5.91l-32.89.15m-46-10.22-35.51.16.16-5.65,39.55-.25m33.55-.22,50-.31v5.86l-45.81.22m-77-15.48,123.08-.78V165l-123.24.57Zm0-9.92,123.07-.78v5.87l-123.23.57Zm8.29-10.46,106.91-1.73c.74.18,7.91-.71,7.91,6.87l-123.23.57C160.56,141,162.43,139.53,168.9,139.53Zm-3-6.33L280,131.28a10,10,0,0,1,10.06,10.06v41.75A10,10,0,0,1,280,193.15l-35.45-.31c-3.74-.24-6.52-2.39-8.54-6.12-1.55-2.86-1-16.81-26.2-15.28-10.14.61-16,6.2-21.89,9.52s-9.66,5.23-10,11.33l-12.07-.1c-5.58,0-10.06-3.28-10.06-8.85V143.25a10.08,10.08,0,0,1,10.06-10.05Z"/></g></g></g></svg>