<svg xmlns="http://www.w3.org/2000/svg" xmlns:xlink="http://www.w3.org/1999/xlink" viewBox="0 0 512 512"><defs><style>.cls-1,.cls-6{fill:#fff;}.cls-1{stroke:#fff;stroke-miterlimit:10;stroke-width:5px;}.cls-2{fill:#1a1a1a;isolation:isolate;opacity:0.94;}.cls-3{fill:#010100;}.cls-4{fill:none;stroke:#ea9c00;stroke-linecap:round;stroke-linejoin:round;stroke-width:3px;}.cls-5{fill:url(#Unbenannter_Verlauf_3);}.cls-6{fill-opacity:0.31;}</style><linearGradient id="Unbenannter_Verlauf_3" x1="142.59" y1="398.37" x2="139.5" y2="375.62" gradientTransform="matrix(3.78, 0, 0, -3.78, -300.58, 1591.37)" gradientUnits="userSpaceOnUse"><stop offset="0" stop-color="#ffbd07"/><stop offset="1" stop-color="#fff" stop-opacity="0"/></linearGradient></defs><g id="Rectangle"><rect class="cls-1" x="2.5" y="2.5" width="507" height="507"/></g><g id="Glasses"><g id="layer1"><g id="g621425"><path id="path640547" class="cls-2" d="M195.42,138.47c-16.73-5.16-39.88-4.94-40.67,24.92C154,191,171.62,189.17,181.9,188.82c4.27-6.43,11.47-7.83,20.54-14.35,1.21-2.93,3.58-4.89,9.25-6.13,6.5-.46,17.49-2.53,22.85,3.63,15.47,31.33,50.69,17.9,60.74,7,14.76-16-.56-51.19-38-42.1-20.1,4.88-40,8.33-61.9,1.57Z"/><path id="path643041" class="cls-3" d="M298.94,180.81,323,170.33c1.93-4.4.89-7.67.23-11.09l-21.57-10.7c-11.19-12.34-22.78-15.76-30.57-15.79-15.33,1.57-24.78,5.26-32.94,6.38-20.51,4.65-44-4.56-44-4.56-15.07-2.59-27.92-2.39-32.82,7.76,9.69-7.13,21.09-7.16,33.22-4.18,0,0,13.63,4,23.71,4.62s24.72-1.11,38.89-5.17a39.83,39.83,0,0,1,25.54,1.15c-.16-.24,16.3,5.33,18.57,21.6,2.53,18.11-17.55,27.25-25.65,29.08C250.72,195,237.73,181.11,238,177c0,0-.65-2.65-4.52-6.19s-17.84-2.58-21.61-2.75-9.36,5.62-9.36,5.62c12.38-1.68,30.06-6,41.3,12.86,4.31,7.7,26.5,8.44,31.7,6.82,8.56-2.66,16.28-4.38,23.45-12.54ZM159.53,184.6c4.94,8.59,12.84,8.13,20.46,8.54l.53-3.74C169.93,190,164.26,187.73,159.53,184.6Z"/><path id="path629665" class="cls-4" d="M180.48,189.37C156,190.67,155,178.21,155,163.25s6.78-27.16,25-27.16a53.46,53.46,0,0,1,13.46,1.71c24.77,8.57,45.54,4.42,65.06-.64a40,40,0,0,1,9.65-1.18c18.26,0,33.06,12.13,33.06,27.09s-14.8,26.84-33.06,27.18c-17.24.33-21.85,0-34-18.94-2.66-3.15-15.27-3.58-20.51-3.06a12.72,12.72,0,0,0-11.19,6m0,.15a31.51,31.51,0,0,1,9.05-1.85c23.63-.65,28.34,7.06,29.54,10,2.12,5.28,10.39,11.09,16.91,11,23.91,2.81,46.47-8,46.79-30.32-.23-16.82-15.12-30.45-33.78-30.45a37.21,37.21,0,0,0-9.86,1.33c-20,5.68-41.33,10.34-66.65.72a49.24,49.24,0,0,0-13.7-1.93c-18.66,0-27.14,14.92-26.45,31.72.91,22.38,7.55,28.57,25.8,28.39a8.88,8.88,0,0,1,.89-3.81M300.3,147.7l22.87,11.65c1.54,6.47,1.46,10.12-.12,11.17L298.7,181.13c8.52-12.35,5.76-25.62,1.6-33.43Z"/><path id="path647615" class="cls-5" d="M195,141c-15.91-5.12-38.95-4.17-38,23.38.86,24.94,14.56,22.07,24,21.78,3.77-4.85,13.42-8.32,20.23-12.46a11.56,11.56,0,0,1,8.63-6.92c6.29-1.22,22.31-2.69,26.62,3.5,16.45,24.54,48.35,16.37,57.45,6.83,13.46-14.14-2.32-46.37-35.81-36.95-18.89,5.3-41.27,7.88-63.15.84Z"/><ellipse id="ellipse656345" class="cls-6" cx="279.24" cy="153.41" rx="20.7" ry="19.2"/></g></g></g></svg>