<svg width="174" height="65" viewBox="0 0 174 65" fill="none" xmlns="http://www.w3.org/2000/svg">
<path opacity="0.94" d="M43.4202 7.46967C26.6902 2.30967 3.54024 2.52967 2.75024 32.3897C2.00024 59.9997 19.6202 58.1697 29.9002 57.8197C34.1702 51.3897 41.3702 49.9897 50.4402 43.4697C51.6502 40.5397 54.0202 38.5797 59.6902 37.3397C66.1902 36.8797 77.1802 34.8097 82.5402 40.9697C98.0102 72.2997 133.23 58.8697 143.28 47.9697C158.04 31.9697 142.72 -3.22034 105.28 5.86967C85.1802 10.7497 65.2802 14.1997 43.3802 7.43967L43.4202 7.46967Z" fill="#1A1A1A"/>
<path d="M146.94 49.81L171 39.33C172.93 34.93 171.89 31.66 171.23 28.24L149.66 17.54C138.47 5.19999 126.88 1.78 119.09 1.75C103.76 3.32 94.31 7.01 86.15 8.13C65.64 12.78 42.15 3.57001 42.15 3.57001C27.08 0.980007 14.23 1.18 9.33003 11.33C19.02 4.2 30.42 4.16999 42.55 7.14999C42.55 7.14999 56.18 11.15 66.26 11.77C76.34 12.39 90.98 10.66 105.15 6.60001C113.558 4.16645 122.534 4.5706 130.69 7.75C130.53 7.51 146.99 13.08 149.26 29.35C151.79 47.46 131.71 56.6 123.61 58.43C98.72 64 85.73 50.11 86 46C86 46 85.35 43.35 81.48 39.81C77.61 36.27 63.64 37.23 59.87 37.06C56.1 36.89 50.51 42.68 50.51 42.68C62.89 41 80.57 36.68 91.81 55.54C96.12 63.24 118.31 63.98 123.51 62.36C132.07 59.7 139.79 57.98 146.96 49.82L146.94 49.81ZM7.53003 53.6C12.47 62.19 20.37 61.73 27.99 62.14L28.52 58.4C17.93 59 12.26 56.73 7.53003 53.6Z" fill="#010100"/>
<path d="M28.4801 58.3703C4.00012 59.6703 3.00013 47.2103 3.00013 32.2503C3.00013 17.2903 9.78013 5.09027 28.0001 5.09027C32.5412 5.08629 37.0643 5.66092 41.4601 6.80028C66.2301 15.3703 87.0001 11.2203 106.52 6.16028C109.677 5.37605 112.917 4.97979 116.17 4.98027C134.43 4.98027 149.23 17.1103 149.23 32.0703C149.23 47.0303 134.43 58.9103 116.17 59.2503C98.9301 59.5803 94.3201 59.2503 82.1701 40.3103C79.5101 37.1603 66.9001 36.7303 61.6601 37.2503C59.4328 37.1826 57.2268 37.7012 55.2629 38.7542C53.2991 39.8072 51.6463 41.3576 50.4701 43.2503L28.4801 58.3703ZM50.4701 43.4003C53.3795 42.3424 56.429 41.719 59.5201 41.5503C83.1501 40.9003 87.8601 48.6103 89.0601 51.5503C91.1801 56.8303 99.4501 62.6403 105.97 62.5503C129.88 65.3603 152.44 54.5503 152.76 32.2303C152.53 15.4103 137.64 1.78027 118.98 1.78027C115.649 1.78023 112.332 2.22756 109.12 3.11028C89.1201 8.79028 67.7901 13.4503 42.4701 3.83028C38.0171 2.54539 33.4049 1.89564 28.7701 1.90027C10.1101 1.90027 1.63014 16.8203 2.32014 33.6203C3.23014 56.0003 9.87012 62.1903 28.1201 62.0103C28.1298 60.6899 28.4339 59.3883 29.0101 58.2003L50.4701 43.4003ZM148.3 16.7003L171.17 28.3503C172.71 34.8203 172.63 38.4703 171.05 39.5203L146.7 50.1303C155.22 37.7803 152.46 24.5103 148.3 16.7003Z" stroke="#EA9C00" stroke-width="3" stroke-linecap="round" stroke-linejoin="round"/>
<path d="M43.0001 9.9998C27.0901 4.8798 4.05014 5.82981 5.00014 33.3798C5.86014 58.3198 19.5601 55.4498 29.0001 55.1598C32.7701 50.3098 42.4201 46.8398 49.2301 42.6998C49.9756 40.9169 51.1561 39.3494 52.6637 38.1405C54.1713 36.9317 55.9579 36.12 57.8601 35.7798C64.1501 34.5598 80.1701 33.0898 84.4801 39.2798C100.93 63.8198 132.83 55.6498 141.93 46.1098C155.39 31.9698 139.61 -0.260197 106.12 9.1598C87.2301 14.4598 64.8501 17.0398 42.9701 9.9998H43.0001Z" fill="url(#paint0_linear_104_375)"/>
<path d="M127.24 41.61C138.672 41.61 147.94 33.0138 147.94 22.41C147.94 11.8061 138.672 3.20996 127.24 3.20996C115.808 3.20996 106.54 11.8061 106.54 22.41C106.54 33.0138 115.808 41.61 127.24 41.61Z" fill="white" fill-opacity="0.31"/>
<defs>
<linearGradient id="paint0_linear_104_375" x1="86.4103" y1="-45.4688" x2="74.7301" y2="40.5262" gradientUnits="userSpaceOnUse">
<stop stop-color="#FFBD07"/>
<stop offset="1" stop-color="white" stop-opacity="0"/>
</linearGradient>
</defs>
</svg>
