<svg xmlns="http://www.w3.org/2000/svg" xmlns:xlink="http://www.w3.org/1999/xlink" viewBox="0 0 512 512"><defs><style>.cls-1,.cls-8{fill:#fff;}.cls-1{stroke:#fff;stroke-miterlimit:10;stroke-width:5px;}.cls-2{fill:#6f6f6f;}.cls-2,.cls-3,.cls-6,.cls-7{stroke:#000;}.cls-2,.cls-3,.cls-4,.cls-5,.cls-6,.cls-7{stroke-linecap:round;stroke-linejoin:round;}.cls-3{fill:#ccc;}.cls-4,.cls-5{stroke:#999;}.cls-4{fill:url(#Unbenannter_Verlauf_2);}.cls-5{fill:url(#Unbenannter_Verlauf_2-2);}.cls-6{fill:none;}.cls-7{fill:#333;}</style><linearGradient id="Unbenannter_Verlauf_2" x1="137.42" y1="379.33" x2="143.17" y2="379.34" gradientTransform="matrix(3.78, 0, 0, -3.78, -282.1, 1594.94)" gradientUnits="userSpaceOnUse"><stop offset="0" stop-color="#fff"/><stop offset="1" stop-color="#ffbfbf"/></linearGradient><linearGradient id="Unbenannter_Verlauf_2-2" x1="119.88" y1="378.74" x2="125.83" y2="379.1" xlink:href="#Unbenannter_Verlauf_2"/></defs><g id="Rectangle"><rect class="cls-1" x="2.5" y="2.5" width="507" height="507"/></g><g id="Glasses"><g id="layer1"><g id="g700125"><path id="path708824" class="cls-2" d="M276.31,175.89l44.51-6L321,155.1l-46.65-9.83"/><path id="rect706623" class="cls-2" d="M207.4,153.39h12.79v12.38H207.4Zm-18-12.16c-12.68-1.69-31.08,2.16-28.7,21.83-2.62,14.79,10.22,21.17,22.17,21.79,4.05-.06,18.2-10.85,27.16-14.36l.78-4.64-3.37-.1c-.21-6.84-.08-13.37,1.19-12.67-3.89-9-11-11.85-19.23-11.85Zm66.26-2.87c-14.25-2-32.91,6.42-33.16,22.77,0,18,18.75,25.88,33.16,22.9,14.39,0,26.05-10.22,26.05-22.83S270.06,138.36,255.67,138.36Z"/><path id="path703129" class="cls-3" d="M243.74,138.23a23.26,23.26,0,1,0,19.85,11.15l15.35,1.18c-2.23-3.18-3.91-6.34-11.49-9.72l-13.77-.37A23.22,23.22,0,0,0,243.74,138.23Zm-65.15,2.87c-10.85,0-19.65,9.89-19.65,22.09s8.8,22.1,19.65,22.1,19.65-9.89,19.65-22.1S189.44,141.1,178.59,141.1Zm63.73,1.32a19.07,19.07,0,1,1-19.07,19.07A19.06,19.06,0,0,1,242.32,142.42Zm-64.93,2.66c8.89,0,16.11,8.11,16.11,18.11s-7.22,18.12-16.11,18.12-16.11-8.11-16.11-18.12S168.49,145.08,177.39,145.08Zm76.58-4.5c3.16,1.29,6.23,5.48,9.56,8.7"/><path id="path715595" class="cls-4" d="M260.14,162.62c-.87,11.43-8.68,14.58-10.61,15a38.87,38.87,0,0,1-23.09-2.33c-6.37-2.89-11.33-6-11.68-13.18-.3-6.08,4.13-10.52,11-13.43,8.73-3.71,19.86-6.33,24.52-3.54,6.28,3.76,10.51,9.51,9.9,17.44Z"/><path id="circle703127" class="cls-5" d="M192.54,163.06c-.63,9.88-5,15.83-14.3,15.86a48.38,48.38,0,0,1-14.9-1.9c-7.92-2.52-14.41-4.87-14.29-12.65.1-7.09,5.42-9.9,13.55-13.47s17.33-4.86,21.65-2.7c7.68,3.84,8.43,12.64,8.29,14.86Z"/><path id="path716511" class="cls-6" d="M274.7,158l11.38.87L285.8,164l-11.05-.31Zm-22-19.76c12.26,0,22.19,10.24,22.19,22.88a22.67,22.67,0,0,1-19.21,22.68m-69-42.7c10.36,0,18.75,9.74,18.75,21.74a24.34,24.34,0,0,1-2.68,11.21"/><path id="path709706" class="cls-7" d="M223.17,153.32c-3.55,0-6.44,3.93-6.44,8.78h0c0,4.85,2.89,8.78,6.44,8.78h0c3.55,0,6.44-3.93,6.44-8.78S226.72,153.32,223.17,153.32Zm-65.91,2.61c-3.39,0-6.13,3.65-6.13,8.14h0c0,4.5,2.74,8.14,6.13,8.14s6.13-3.64,6.13-8.14-2.75-8.14-6.13-8.14Z"/><path id="ellipse710061" class="cls-8" d="M225.44,153.6a2.83,2.83,0,0,0-2.59,3h0a2.83,2.83,0,0,0,2.59,3h0a2.83,2.83,0,0,0,2.6-3h0a2.83,2.83,0,0,0-2.6-3Zm-65.38,3.76a3.07,3.07,0,1,0,2.59,3h0A2.84,2.84,0,0,0,160.06,157.36Z"/></g></g></g></svg>