<svg width="174" height="49" viewBox="0 0 174 49" fill="none" xmlns="http://www.w3.org/2000/svg">
<path d="M128.31 38.8905L172.82 32.8905L173 18.1005L126.35 8.27051" fill="#6F6F6F"/>
<path d="M128.31 38.8905L172.82 32.8905L173 18.1005L126.35 8.27051" stroke="black" stroke-linecap="round" stroke-linejoin="round"/>
<path d="M59.3999 16.3905H72.1899V28.7705H59.3999V16.3905ZM41.3999 4.23045C28.7199 2.54045 10.3199 6.39046 12.6999 26.0605C10.0799 40.8505 22.9199 47.2305 34.8699 47.8505C38.9199 47.7905 53.0699 37.0005 62.0299 33.4905L62.8099 28.8505L59.4399 28.7505C59.2299 21.9105 59.3599 15.3805 60.6299 16.0805C56.7399 7.08046 49.6299 4.23045 41.3999 4.23045V4.23045ZM107.66 1.36046C93.4099 -0.63954 74.7499 7.78046 74.4999 24.1305C74.4999 42.1305 93.2499 50.0105 107.66 47.0305C122.05 47.0305 133.71 36.8105 133.71 24.2005C133.71 11.5905 122.06 1.36046 107.67 1.36046H107.66Z" fill="#6F6F6F" stroke="black" stroke-linecap="round" stroke-linejoin="round"/>
<path d="M95.7399 1.23047C90.5953 1.2285 85.5952 2.93218 81.5221 6.07488C77.449 9.21758 74.5327 13.622 73.2296 18.5988C71.9265 23.5756 72.3101 28.844 74.3204 33.5796C76.3307 38.3151 79.8543 42.2506 84.3397 44.7701C88.8251 47.2897 94.0193 48.251 99.1093 47.5038C104.199 46.7566 108.898 44.343 112.47 40.6407C116.042 36.9384 118.286 32.1563 118.851 27.0428C119.415 21.9292 118.268 16.7728 115.59 12.3805L130.94 13.5605C128.71 10.3805 127.03 7.22047 119.45 3.84047L105.68 3.47048C102.573 1.99708 99.1783 1.23199 95.7399 1.23047ZM30.5899 4.10048C19.7399 4.10048 10.9399 13.9905 10.9399 26.1905C10.9399 38.3905 19.7399 48.2905 30.5899 48.2905C41.4399 48.2905 50.2399 38.4005 50.2399 26.1905C50.2399 13.9805 41.4399 4.10048 30.5899 4.10048ZM94.3199 5.42047C98.0916 5.42047 101.779 6.53892 104.915 8.63436C108.051 10.7298 110.495 13.7081 111.938 17.1927C113.382 20.6773 113.759 24.5116 113.024 28.2108C112.288 31.9101 110.471 35.308 107.804 37.975C105.137 40.642 101.74 42.4582 98.0403 43.194C94.3411 43.9299 90.5068 43.5522 87.0222 42.1089C83.5376 40.6655 80.5592 38.2212 78.4638 35.0852C76.3684 31.9491 75.2499 28.2622 75.2499 24.4905C75.2486 21.9858 75.741 19.5054 76.6989 17.1911C77.6568 14.8769 79.0614 12.7741 80.8325 11.003C82.6035 9.23195 84.7063 7.82731 87.0206 6.86942C89.3349 5.91153 91.8153 5.41916 94.3199 5.42047V5.42047ZM29.3899 8.08048C38.2799 8.08048 45.4999 16.1905 45.4999 26.1905C45.4999 36.1905 38.2799 44.3105 29.3899 44.3105C20.4999 44.3105 13.2799 36.2005 13.2799 26.1905C13.2799 16.1805 20.4899 8.08048 29.3899 8.08048V8.08048ZM105.97 3.58048C109.13 4.87048 112.2 9.06047 115.53 12.2805Z" fill="#CCCCCC"/>
<path d="M105.97 3.58048C109.13 4.87048 112.2 9.06047 115.53 12.2805M95.7399 1.23047C90.5953 1.2285 85.5952 2.93218 81.5221 6.07488C77.449 9.21758 74.5327 13.622 73.2296 18.5988C71.9265 23.5756 72.3101 28.844 74.3204 33.5796C76.3307 38.3151 79.8543 42.2506 84.3397 44.7701C88.8251 47.2897 94.0193 48.251 99.1093 47.5038C104.199 46.7566 108.898 44.343 112.47 40.6407C116.042 36.9384 118.286 32.1563 118.851 27.0428C119.415 21.9292 118.268 16.7728 115.59 12.3805L130.94 13.5605C128.71 10.3805 127.03 7.22047 119.45 3.84047L105.68 3.47048C102.573 1.99708 99.1783 1.23199 95.7399 1.23047ZM30.5899 4.10048C19.7399 4.10048 10.9399 13.9905 10.9399 26.1905C10.9399 38.3905 19.7399 48.2905 30.5899 48.2905C41.4399 48.2905 50.2399 38.4005 50.2399 26.1905C50.2399 13.9805 41.4399 4.10048 30.5899 4.10048ZM94.3199 5.42047C98.0916 5.42047 101.779 6.53892 104.915 8.63436C108.051 10.7298 110.495 13.7081 111.938 17.1927C113.382 20.6773 113.759 24.5116 113.024 28.2108C112.288 31.9101 110.471 35.308 107.804 37.975C105.137 40.642 101.74 42.4582 98.0403 43.194C94.3411 43.9299 90.5068 43.5522 87.0222 42.1089C83.5376 40.6655 80.5592 38.2212 78.4638 35.0852C76.3684 31.9491 75.2499 28.2622 75.2499 24.4905C75.2486 21.9858 75.741 19.5054 76.6989 17.1911C77.6568 14.8769 79.0614 12.7741 80.8325 11.003C82.6035 9.23195 84.7063 7.82731 87.0206 6.86942C89.3349 5.91153 91.8153 5.41916 94.3199 5.42047V5.42047ZM29.3899 8.08048C38.2799 8.08048 45.4999 16.1905 45.4999 26.1905C45.4999 36.1905 38.2799 44.3105 29.3899 44.3105C20.4999 44.3105 13.2799 36.2005 13.2799 26.1905C13.2799 16.1805 20.4899 8.08048 29.3899 8.08048V8.08048Z" stroke="black" stroke-linecap="round" stroke-linejoin="round"/>
<path d="M112.14 25.6204C111.27 37.0504 103.46 40.2004 101.53 40.6204C93.7756 42.2131 85.7198 41.4002 78.44 38.2904C72.07 35.4004 67.1099 32.2904 66.7599 25.1104C66.4599 19.0304 70.8899 14.5904 77.7599 11.6804C86.4899 7.97041 97.62 5.35042 102.28 8.14042C108.56 11.9004 112.79 17.6504 112.18 25.5804L112.14 25.6204Z" fill="url(#paint0_linear_104_361)" stroke="#999999" stroke-linecap="round" stroke-linejoin="round"/>
<path d="M44.54 26.0608C43.91 35.9408 39.54 41.8908 30.24 41.9208C25.2047 42.0671 20.1774 41.426 15.34 40.0208C7.41997 37.5008 0.929978 35.1508 1.04998 27.3708C1.14998 20.2808 6.46998 17.4708 14.6 13.9008C22.73 10.3308 31.93 9.04082 36.25 11.2008C43.93 15.0408 44.68 23.8408 44.54 26.0608Z" fill="url(#paint1_linear_104_361)" stroke="#999999" stroke-linecap="round" stroke-linejoin="round"/>
<path d="M38.6799 4.10023C49.0399 4.10023 57.4299 13.8402 57.4299 25.8402C57.447 29.7376 56.5279 33.582 54.7499 37.0502M126.7 21.0002L138.08 21.8702L137.8 27.0002L126.75 26.6902L126.7 21.0002ZM104.7 1.24023C116.96 1.24023 126.89 11.4802 126.89 24.1202C126.956 29.5803 125.05 34.8809 121.52 39.0476C117.991 43.2144 113.077 45.9672 107.68 46.8002L104.7 1.24023Z" stroke="black" stroke-linecap="round" stroke-linejoin="round"/>
<path d="M75.1699 16.3203C71.6199 16.3203 68.7299 20.2503 68.7299 25.1003C68.7299 29.9503 71.6199 33.8803 75.1699 33.8803C78.7199 33.8803 81.6099 29.9503 81.6099 25.1003C81.6099 20.2503 78.7199 16.3203 75.1699 16.3203ZM9.25987 18.9303C5.86987 18.9303 3.12988 22.5803 3.12988 27.0703C3.12988 31.5703 5.86987 35.2103 9.25987 35.2103C12.6499 35.2103 15.3899 31.5703 15.3899 27.0703C15.3899 22.5703 12.6399 18.9303 9.25987 18.9303Z" fill="#333333" stroke="black" stroke-linecap="round" stroke-linejoin="round"/>
<path d="M77.4401 16.6006C76.7016 16.6619 76.0165 17.0105 75.5322 17.5715C75.048 18.1324 74.803 18.861 74.8501 19.6006V19.6006C74.803 20.3402 75.048 21.0687 75.5322 21.6297C76.0165 22.1906 76.7016 22.5392 77.4401 22.6006V22.6006C78.1804 22.5417 78.868 22.1942 79.3544 21.6329C79.8408 21.0717 80.087 20.3418 80.0401 19.6006V19.6006C80.087 18.8594 79.8408 18.1295 79.3544 17.5682C78.868 17.007 78.1804 16.6595 77.4401 16.6006V16.6006ZM12.0601 20.3606C11.4387 20.2623 10.8022 20.3572 10.2365 20.6326C9.67089 20.9079 9.2035 21.3504 8.89761 21.9001C8.59172 22.4498 8.46209 23.0803 8.52628 23.7061C8.59046 24.3319 8.84536 24.9229 9.25647 25.3991C9.66758 25.8752 10.215 26.2136 10.8248 26.3685C11.4346 26.5233 12.0771 26.487 12.6656 26.2646C13.2541 26.0422 13.76 25.6444 14.115 25.125C14.4699 24.6055 14.6567 23.9896 14.6501 23.3606V23.3606C14.6946 22.6216 14.4487 21.8945 13.9649 21.3341C13.4811 20.7737 12.7976 20.4244 12.0601 20.3606V20.3606Z" fill="white"/>
<defs>
<linearGradient id="paint0_linear_104_361" x1="89.3475" y1="24.073" x2="111.083" y2="24.0352" gradientUnits="userSpaceOnUse">
<stop stop-color="white"/>
<stop offset="1" stop-color="#FFBFBF"/>
</linearGradient>
<linearGradient id="paint1_linear_104_361" x1="5216.55" y1="12051.7" x2="5474.59" y2="12073.1" gradientUnits="userSpaceOnUse">
<stop stop-color="white"/>
<stop offset="1" stop-color="#FFBFBF"/>
</linearGradient>
</defs>
</svg>
