<svg width="165" height="59" viewBox="0 0 165 59" fill="none" xmlns="http://www.w3.org/2000/svg">
<path d="M96.7101 2C90.4711 2.00051 84.4181 4.12484 79.5471 8.02344C74.6761 11.922 71.2774 17.3626 69.9101 23.45C66.4401 21.61 58.3001 20.2 53.5001 22.89C52.3405 18.1281 49.8646 13.7886 46.3554 10.3673C42.8461 6.94609 38.4451 4.58117 33.6553 3.54288C28.8655 2.50459 23.8803 2.83482 19.2693 4.49583C14.6584 6.15685 10.6077 9.08162 7.58043 12.9359C4.55312 16.7901 2.67126 21.4183 2.14992 26.2915C1.62859 31.1647 2.48881 36.0863 4.6323 40.4937C6.77578 44.9011 10.116 48.6166 14.2713 51.2154C18.4265 53.8142 23.2291 55.1916 28.1301 55.19C28.3201 55.19 28.5701 55.31 28.7201 55.19C31.3639 53.2837 34.2491 51.7368 37.3001 50.59C39.9801 49.48 45.6601 45.08 46.7601 47.38C50.8503 43.2166 53.4244 37.8006 54.0701 32C56.5157 30.985 59.148 30.4977 61.7949 30.5701C64.4418 30.6424 67.0436 31.2728 69.4301 32.42C70.1991 39.1508 73.4308 45.3592 78.5031 49.85C83.5753 54.3408 90.1295 56.7965 96.9039 56.7444C103.678 56.6923 110.194 54.136 115.197 49.5676C120.199 44.9993 123.335 38.7418 124 32L130.11 31.6L161.6 28.42C162.84 26.71 164.17 25.02 162.11 21.88L129.99 22.46L122.99 22.02C121.375 16.2832 117.938 11.2274 113.198 7.61588C108.457 4.00437 102.67 2.03321 96.7101 2V2ZM96.7101 5.25999C101.499 5.25999 106.18 6.68015 110.161 9.34082C114.143 12.0015 117.246 15.7832 119.078 20.2076C120.91 24.6319 121.389 29.5003 120.454 34.1968C119.519 38.8934 117.212 43.2072 113.826 46.5926C110.439 49.978 106.124 52.283 101.427 53.216C96.7302 54.1491 91.862 53.6682 87.4384 51.8343C83.0148 50.0003 79.2344 46.8957 76.5753 42.9131C73.9163 38.9305 72.4981 34.2487 72.5001 29.46C72.4988 26.2808 73.1242 23.1325 74.3405 20.1952C75.5568 17.2579 77.3402 14.5891 79.5887 12.3416C81.8372 10.094 84.5067 8.31168 87.4445 7.09657C90.3823 5.88146 93.5309 5.25737 96.7101 5.25999V5.25999ZM28.1301 6.06C32.6791 6.06 37.1259 7.40893 40.9082 9.9362C44.6905 12.4635 47.6385 16.0556 49.3793 20.2583C51.1201 24.461 51.5756 29.0855 50.6882 33.5471C49.8007 38.0086 47.6102 42.1068 44.3936 45.3235C41.177 48.5401 37.0787 50.7306 32.6172 51.6181C28.1556 52.5055 23.5311 52.0501 19.3284 50.3092C15.1257 48.5684 11.5336 45.6205 9.00629 41.8381C6.47902 38.0558 5.1301 33.609 5.1301 29.06C5.1301 22.96 7.5533 17.1099 11.8666 12.7965C16.18 8.4832 22.0301 6.06 28.1301 6.06Z" fill="#1A1A1A" stroke="black" stroke-width="3" stroke-miterlimit="10"/>
<path d="M51.5702 29.0798C51.5702 35.2991 49.0996 41.2637 44.7018 45.6614C40.3041 50.0592 34.3395 52.5298 28.1202 52.5298V52.5298C21.9026 52.5271 15.9406 50.0553 11.545 45.6579C7.14943 41.2605 4.68018 35.2974 4.68018 29.0798V29.0798C4.68018 22.8631 7.14974 16.901 11.5456 12.5052C15.9414 8.10934 21.9035 5.63977 28.1202 5.63977V5.63977C31.1992 5.63846 34.2483 6.24378 37.0934 7.42116C39.9384 8.59854 42.5236 10.3249 44.7012 12.5017C46.8789 14.6784 48.6064 17.2628 49.785 20.1074C50.9636 22.9519 51.5702 26.0008 51.5702 29.0798V29.0798ZM121.94 29.5898C121.94 32.8833 121.291 36.1446 120.031 39.1875C118.771 42.2303 116.923 44.9951 114.594 47.324C112.266 49.6529 109.501 51.5003 106.458 52.7607C103.415 54.0211 100.154 54.6698 96.8602 54.6698V54.6698C91.8994 54.6698 87.05 53.1986 82.9254 50.4423C78.8008 47.6861 75.5863 43.7685 73.6883 39.1852C71.7904 34.6018 71.2943 29.5585 72.2628 24.6932C73.2313 19.8279 75.621 15.3591 79.1295 11.852C82.638 8.34489 87.1077 5.95705 91.9734 4.99047C96.8392 4.02388 101.882 4.52196 106.465 6.42174C111.047 8.32152 114.964 11.5376 117.718 15.6633C120.473 19.789 121.942 24.639 121.94 29.5998V29.5898Z" fill="black" stroke="black" stroke-width="3" stroke-miterlimit="10"/>
<path d="M27.4901 6.14992C25.4426 6.1523 23.4046 6.42808 21.4301 6.96993L9.07007 42.2299C11.3634 45.5448 14.4925 48.1943 18.1401 49.9099L34.5101 6.99993C32.2322 6.37196 29.8711 6.09876 27.5101 6.18993L27.4901 6.14992ZM37.3901 8.22992L21.7901 51.0699C22.7285 51.5849 23.7797 51.8597 24.8501 51.8699C25.4001 51.8699 37.9701 19.9899 38.9001 19.0699L30.6701 51.0699L44.9201 13.6299C42.8982 11.2317 40.3101 9.37572 37.3901 8.22992V8.22992ZM96.1001 5.78992C93.988 5.80032 91.8865 6.08948 89.8501 6.64992L77.0901 43.0599C79.4522 46.486 82.6825 49.2228 86.4501 50.9899L103.35 6.62993C100.991 5.97963 98.5455 5.6963 96.1001 5.78992V5.78992ZM106.32 7.99993L90.2201 52.2399C91.1892 52.772 92.2745 53.057 93.3801 53.0699C93.9501 53.0699 106.93 20.1399 107.88 19.1899L99.3801 52.2599L114.1 13.5999C112.02 11.1071 109.344 9.1807 106.32 7.99993V7.99993Z" fill="#B3B3B3" stroke="black" stroke-width="3" stroke-miterlimit="10"/>
</svg>
