<svg width="218" height="76" viewBox="0 0 218 76" fill="none" xmlns="http://www.w3.org/2000/svg">
<path d="M102.5 0L86 15.6143L141.5 16L156 0H102.5ZM189 0L180.127 16H209L217.5 0.5L215 0.25H212.5H203.25L189 0ZM65 0L48.7333 15.6143H74.5333L89.5 0H65ZM46 19L7.04578 61.8872H33.2813L72 19H46ZM83.5 19L45.6218 61.7771H100.548L139.778 19H83.5ZM179 19L158 63H188L208 19H179ZM3.82222 61.7771L0 66.6508C1.84368 68.4556 5.38913 72.1865 11.4667 73.0429L23.0844 73.4068L29.6067 66.6508H10.1303C8.10094 66.8278 5.16973 63.0132 3.82222 61.7771ZM42.1282 66.1642L35.0306 74H89.9565L97.0553 66.1642H42.1282ZM156.949 66.1642L152 76H181.5L186.776 66.1642H156.949Z" fill="url(#paint0_linear_431_1215)"/>
<defs>
<linearGradient id="paint0_linear_431_1215" x1="167.94" y1="-51.4071" x2="116.792" y2="111.747" gradientUnits="userSpaceOnUse">
<stop stop-color="white" stop-opacity="0.67"/>
<stop offset="1" stop-color="#FFE98F" stop-opacity="0"/>
</linearGradient>
</defs>
</svg>
