<svg width="215" height="67" viewBox="0 0 215 67" fill="none" xmlns="http://www.w3.org/2000/svg">
<path d="M94.1084 0L86 8.61429H141.422L149.03 0H94.1084ZM185.175 0L180.127 8.61429H209.952L215 0H185.175ZM55.7902 0.1194L48.7333 8.61429H74.5333L82.0245 0.1194H55.7902ZM46.5405 11.0384L7.04578 54.8872H33.2813L72.7748 11.0384H46.5405ZM82.0245 13.4L45.6218 54.7771H100.548L139.511 13.4H82.0245ZM180.127 11.718L158.846 54.8671H188.673L209.952 11.718H180.127ZM3.82222 54.7771L0 59.6508C1.84368 61.4555 5.38913 65.1865 11.4667 66.0429L23.0844 66.4068L29.6067 59.6508H10.1303C8.10094 59.8278 5.16973 56.0132 3.82222 54.7771ZM42.1282 59.1642L35.0306 67H89.9565L97.0553 59.1642H42.1282ZM156.949 59.1642L153.094 67H182.922L186.776 59.1642H156.949Z" fill="url(#paint0_linear_326_13132)"/>
<defs>
<linearGradient id="paint0_linear_326_13132" x1="167.94" y1="-58.4072" x2="116.792" y2="104.747" gradientUnits="userSpaceOnUse">
<stop stop-color="#FFE98F"/>
<stop offset="1" stop-color="#FFE98F" stop-opacity="0"/>
</linearGradient>
</defs>
</svg>
