<svg height="60" fill="none" xmlns="http://www.w3.org/2000/svg">
<g style="mix-blend-mode:multiply">
<path fill-rule="evenodd" clip-rule="evenodd" d="M60.1141 18.6922C49.877 16.5606 -18.6961 21.7446 -23.1075 21.2778C-27.2527 20.5035 -21.9199 3.7267 -18.2906 1.12518C-17.0052 0.204375 -15.4682 -0.0361814 -11.8929 0.260133C-8.12417 0.572379 31.2789 -1.46359 66.5159 -3.2144C66.5159 -3.2144 182.799 -6.87214 200.684 -7.3198C206.79 -7.47433 201.98 -6.40058 209.163 -6.87692C224.469 -7.89172 257.874 -7.36281 269.457 -8.31866C278.745 -9.08653 280.744 -9.12636 289.671 -8.56559C297.427 -8.0797 347.183 -8.64206 352.786 -9.8321C354.149 -10.122 355.176 -10.0201 355.176 -9.65208C355.176 -9.65208 379.579 -9.20442 387.957 -8.85394C388.905 -8.81412 389.454 -8.76632 389.473 -8.73127C389.731 -8.36008 390.758 -8.18644 391.732 -8.41903C393.506 -8.84279 429.889 -9.69669 430.461 -8.61657C432.11 -5.51164 426.805 7.39559 422.574 10.5451C418.167 13.8237 394.954 9.74381 375.621 11.6157C275.472 11.1123 287.377 11.5137 268.257 12.871C266.081 11.7734 257.778 14.5358 252.689 12.6608C250.559 11.8754 235.501 11.9088 232.175 12.7436C229.742 13.3538 152.918 12.742 144.401 15.2846C128.675 13.5911 67.8762 18.2175 60.1141 18.6922Z" fill="#e82e89"/>
</g>
<g style="mix-blend-mode:multiply">
<path fill-rule="evenodd" clip-rule="evenodd" d="M75.3045 34.1154C65.3014 31.7382 -7.93935 34.3873 -13.2757 33.6758C-17.6159 32.7184 -10.6762 15.7993 -6.64165 13.3032C-5.21918 12.4093 -3.57834 12.2709 0.187884 12.6796C6.14813 13.453 83.3361 11.9339 83.3361 11.9339C84.3592 12.4598 87.4101 10.6899 87.9799 11.3298C89.758 12.818 214.834 10.7925 225.498 10.7046C231.968 10.6508 226.848 11.6734 234.463 11.2598C250.691 10.4473 286.045 11.2272 298.325 10.2943C308.164 9.52247 310.283 9.50619 319.729 10.12C329.378 10.6704 380.681 9.87092 386.548 8.69044C387.978 8.36479 389.074 8.4804 389.078 8.85815C389.081 8.93631 425.237 9.20985 425.401 9.50456C425.68 9.87906 426.776 10.0598 427.799 9.79764C429.683 9.4085 468.184 7.98216 468.799 9.08448C470.688 12.214 465.395 25.5313 460.926 28.7764C456.357 32.238 431.227 28.3514 411.025 30.4437L316.994 30.6505L296.836 31.9482C294.536 30.8215 285.641 33.6562 280.284 31.6421C278.015 30.8443 262.012 30.7238 258.467 31.5721C255.393 32.2266 173.47 30.5789 165.066 32.8421C150.109 30.9468 89.3857 33.6546 75.3045 34.1154Z" fill="#e82e89"/>
</g>
<g style="mix-blend-mode:multiply">
<path fill-rule="evenodd" clip-rule="evenodd" d="M67.682 46.8732C57.8088 44.3489 -15.203 45.357 -20.49 44.5515C-24.7745 43.5275 -17.2599 27.2392 -13.1522 24.8985C-11.7025 24.0628 -10.0657 23.9616 -6.33022 24.4395C-0.42547 25.3179 76.4757 25.4935 76.4757 25.4935C77.474 26.0269 80.5751 24.3715 81.1179 25.0077C82.8359 26.489 207.429 27.1964 218.048 27.3389C224.492 27.4275 219.357 28.3106 226.956 28.0716C243.14 27.6301 278.308 29.1431 290.567 28.5005C300.388 27.9593 302.499 27.9878 311.882 28.787C321.47 29.5276 372.572 29.8489 378.454 28.8281C379.891 28.5417 380.977 28.6778 380.969 29.0449C380.967 29.1209 416.953 30.1591 417.107 30.4487C417.371 30.8191 418.456 31.0169 419.484 30.7874C421.372 30.4487 459.752 29.8869 460.326 30.9694C462.094 34.0508 456.347 46.8779 451.78 49.9356C447.107 53.1989 422.229 48.8863 402.04 50.4879L308.421 48.6774L288.308 49.5067C286.058 48.3608 277.1 50.9263 271.838 48.8562C269.608 48.0301 253.681 47.5711 250.12 48.3197C247.035 48.8894 165.538 45.5374 157.089 47.5553C142.266 45.3934 81.7149 46.726 67.682 46.8732Z" fill="#e82e89"/>
</g>
<g style="mix-blend-mode:multiply">
<path fill-rule="evenodd" clip-rule="evenodd" d="M51.9792 62.8294C41.3056 60.5245 -30.0108 64.4846 -34.5389 63.9496C-38.8196 63.1158 -32.7073 46.6397 -28.8487 44.1302C-27.4807 43.2428 -25.8757 43.032 -22.173 43.3844C-18.4848 43.7353 17.8231 42.5663 59.3909 41.3155C59.3909 41.3155 166.658 39.9577 198.905 39.8082C205.255 39.7799 200.217 40.7428 207.697 40.4171C223.631 39.7233 258.311 40.9332 270.378 40.2362C280.053 39.6761 282.132 39.6745 291.382 40.4203C299.245 41.0527 351.112 41.5971 356.987 40.5493C358.416 40.2944 359.478 40.4155 359.465 40.7806C360.418 40.8451 364.041 40.9867 365.004 41.026C365.382 41.0402 394.921 42.1981 395.054 42.4656C395.308 42.8353 396.368 43.0336 397.389 42.8243C399.247 42.4436 437.067 42.4467 437.622 43.5276C439.216 46.6303 433.216 59.2469 428.701 62.2599C424.004 65.3908 400.087 60.8265 379.9 62.2347C379.9 62.2347 374.164 62.0821 365.557 61.8555C279.261 59.5742 285.719 60.3121 268.353 61.1302C266.134 60.0005 257.409 62.5509 252.195 60.5968C250.01 59.7787 234.369 59.4971 230.885 60.2538C228.4 60.7951 148.327 58.6632 139.637 61.0264C123.082 59.0235 58.6217 62.5619 51.9792 62.8294Z" fill="#e82e89"/>
</g>
</svg>
