<svg width="109" height="80" xmlns="http://www.w3.org/2000/svg" xmlns:xlink="http://www.w3.org/1999/xlink"><defs><rect id="a" x="0" y="0" width="109" height="80" rx="8"/></defs><g fill="none" fill-rule="evenodd"><mask id="b" fill="#fff"><use xlink:href="#a"/></mask><path d="M14.762 51.956c-2.664-1.365-18.566 2.313-19.675 2.028-1.073-.477-1.404-11.304-.757-12.999.23-.602.585-.74 1.485-.594 1.064.23 14.611-1.977 18.878-2.623.276.31.827-.874 1.01-.482.266.449 7.495-.311 14.983-1.053 4.686-.463 11.275-1.112 16.468-1.491 1.481-.108.35.597 2.08.279 3.686-.679 11.826-.36 14.615-.979 2.244-.497 2.728-.53 4.908-.16 1.823.31 13.962-.065 15.332-.769.33-.2.58-.12.58.121.218.03 8.294.463 8.33.662.059.242.304.361.546.209.427-.272 9.291-.739 9.409-.03.334 2.015-1.216 10.425-2.27 12.448-1.114 2.14-6.543-.595-11.177.59-23.343-.482-20.78-.202-25.499.717-.543-.714-2.438 1.094-3.705-.136-.52-.504-4.107-.487-4.878.062-.328.233-5.087.2-9.985.392-1.53.06-9.693.364-10.801 1.37-3.927-1.083-18.33 2.16-19.877 2.438" fill="#EFFF54" style="mix-blend-mode:multiply" mask="url(#b)"/><path d="M11.114 40.891C8.862 39.563-3.557 43.25-4.568 42.986c-.891-.445-1.753-10.8-1.314-12.43.157-.58.438-.716 1.177-.587.745.177 8.734-1.454 15.224-2.683.236.296.64-.842.803-.467.232.428 6.073-.347 12.13-1.063 2.79-.33 6.517-.852 13.329-1.415 1.198-.1.29.575 1.689.277 2.983-.637 9.58-.281 11.84-.849 1.82-.458 2.212-.489 3.976-.11 1.405.3 11.303.102 12.433-.555.271-.188.473-.107.47.125 0 0 6.704.574 6.733.765.037.235.239.354.437.209.353-.256 7.549-.542 7.622.142.207 1.941-1.313 9.996-2.214 11.92-.957 2.038-5.206-.692-8.955.376-18.76-.81-17.357-.293-20.39.384-.434-.692-1.945 1.03-2.963-.161-.416-.488-3.293-.505-3.9.024-.133.098-1.15.151-2.624.182-1.621.036-12.812.124-13.984 1.44-2.993-.98-12.845 1.637-15.837 2.381" fill="#EFFF54" style="mix-blend-mode:multiply" mask="url(#b)"/><path d="M19.08 31.895C17.032 30.5 7.192 34.292 6.163 33.982c-.785-.443-2.384-10.768-2.137-12.399.087-.578.315-.715.956-.59.663.179 6.497-1.294 12.757-2.73.218.297.495-.846.655-.47.222.43 5.132-.358 10.23-1.08 5.036-.715 9.952-1.297 11.223-1.422 1.011-.098.26.58 1.434.28 2.507-.638 8.086-.272 9.984-.837 1.534-.459 1.866-.489 3.358-.104 1.147.297 9.53.138 10.502-.526.23-.188.4-.106.394.127-.002.116 5.644.49 5.677.795.024.236.193.358.364.212.3-.256 6.391-.514 6.434.175.117 1.954-1.402 10.057-2.202 11.99-.85 2.051-4.297-.714-7.426.351-5.54-.31-6.68-.38-13.907-.463l-2.959.796c-.37-.697-1.593 1.037-2.454-.17-.35-.49-2.738-.515-3.23.016-.108.098-.948.15-2.168.178-1.643.039-10.628.103-11.543 1.419-2.527-.99-10.553 1.614-13.025 2.365M10.015 62.342c-2.157-1.355-10.278 1.405-16.58.454-2.297-.346-4.02-1.089-4.35-1.351-.647-.667 2.527-5.188 4.456-8.828 1.098-2.073 1.273-3.094 1.893-2.408 1.002.954 6.73-.285 14.864-1.36.239.301.75-.813.905-.436.39.753 22.185-1.671 27.743-2.177 1.3-.118.319.56 1.835.23 3.227-.702 10.388-.609 12.809-1.325 1.942-.575 2.363-.597 4.294-.357 1.966.244 12.246-.864 13.333-1.687.275-.21.495-.16.517.069.149.008 7.267-.244 7.307-.104.077.222.307.315.496.143.36-.252 7.96-1.686 8.155-1.038.557 1.862.315 9.958-.378 11.989-.736 2.155-6.03.2-9.993 1.737-22.26 1.6-17.32.897-22.972 2.34-.519-.654-2.153 1.143-3.35.008-.488-.464-3.723-.344-4.394.209-.594.423-17.14.4-18.7 1.882-3.105-.967-15.12 1.495-17.89 2.01" fill="#EFFF54" style="mix-blend-mode:multiply" mask="url(#b)"/></g></svg>