<svg width="136" height="80" xmlns="http://www.w3.org/2000/svg" xmlns:xlink="http://www.w3.org/1999/xlink"><defs><rect id="a" x="0" y="0" width="136" height="80" rx="8"/></defs><g fill="none" fill-rule="evenodd"><mask id="b" fill="#fff"><use xlink:href="#a"/></mask><g mask="url(#b)" fill="#F1FF54"><path d="M-64.717 34.599c-3.718-1.721-40.599-4.204-44.688-5.726-2.056-1.077 4.104-13.755 6.068-15.234 1.444-1.087 1.306.143 10.409 1.27 9.962 1.23 21.211 2.1 32.071 2.492.495.447 1.933-.85 2.211-.326.56.797 18.679 1.51 19.875 1.555 16.795.652 29.514.536 46.117.415 3.11-.022.752.763 4.382.477 7.16-.56 24.787.044 30.665-.78 4.64-.65 5.65-.645 10.294-.239 4.731.413 29.392-.646 32.012-1.716.648-.265 1.188-.193 1.249.106.28.011 17.575-.076 17.668.096.196.293.755.423 1.21.205 1.04-.41 19.448-1.843 19.91-.985 1.33 2.469.672 13.037-.923 15.658-1.672 2.744-14.33-.04-23.808 1.86-56.273 1.449-41.405.552-55.39 2.168-1.279-.89-5.217 1.38-8.142-.182-1.205-.646-9.065-.716-10.7-.046-.705.288-11.17.075-21.95-.12-2.724-.05-21.675-.533-23.92.415-6.584-1.52-38.677-1.09-44.62-1.363" style="mix-blend-mode:multiply"/><path d="M-75.611 30.952c-3.731 1.765-40.583 4.667-44.682 6.238-2.065 1.102 3.954 13.73 5.9 15.19 1.43 1.072 1.305-.159 10.407-1.389 9.96-1.345 21.202-2.342 32.05-2.858.499-.453 1.921.83 2.205.302.566-.804 18.666-1.722 19.862-1.781 16.777-.843 29.476-.87 46.053-.936 3.106-.013.76-.772 4.381-.527 7.144.48 24.75-.323 30.612.437 4.627.598 5.635.581 10.276.122 4.729-.466 29.343.316 31.948 1.358.644.259 1.184.18 1.247-.12.281-.014 17.55-.122 17.644-.295.198-.295.758-.432 1.21-.218 1.034.398 19.4 1.626 19.871.762 1.354-2.488.807-13.066-.758-15.673-1.642-2.73-14.31.201-23.755-1.594-56.175-.818-41.338-.086-55.287-1.547-1.285.904-5.194-1.325-8.13.273-1.211.66-9.06.82-10.687.166-.7-.28-11.152.051-21.917.369-2.721.08-21.65.777-23.882-.147-6.59 1.596-38.631 1.528-44.568 1.868" style="mix-blend-mode:multiply"/><path d="M56.097 61.355c10.425 0 24.047-1.657 25.657-1.834.948-.262 1.383-4.022 1.384-8.02-.002-10.605-1.516-10.532-4.024-10.411 0 0-21.974-3.051-35.91-4.184-.463.427-1.711-1.133-1.985-.6-.104.152-1.038.232-2.603.226-14.673-.071-42.049-.546-56.665.603-2.773.217-.517.852-3.802.824-6.681-.058-14.644 1.187-21.809 1.861-9.682.91-7.709-.456-14.642 1.511-2.602.74-25.738 4.179-28.47 3.787-.656-.147-1.1.047-1.041.36-.331.097-15.135 3.502-15.156 3.85-.048.339-.474.594-.95.477-.425-.049-4.746.494-8.943 1.36-4.196.863-8.295 1.821-8.313 2.305-.098 2.774 4.852 13.138 7.28 15.368 1.282 1.178 4.228.301 7.966-.867 11.07-3.46 6.705-1.455 18.562-3.866 32.901-6.689 35.5-5.721 41.074-5.767.837-1.084 4.767.757 6.812-1.143.854-.792 7.492-1.657 9.03-1.113 1.394.35 18.197 8.531 39.415 6.628C30.182 60.807 32.055 61.355 39 61.355" style="mix-blend-mode:multiply"/></g></g></svg>