<svg preserveAspectRatio="xMidYMid meet" viewBox="0 0 355 62"
  xmlns="http://www.w3.org/2000/svg">
  <g fill="#e82e89" fill-rule="evenodd">
    <path d="M67.54 24.149c-7.194-1.794-55.38 2.569-58.48 2.176-2.913-.652.834-14.772 3.384-16.962.904-.775 1.984-.977 4.496-.728 2.648.263 30.337-1.45 55.098-2.924 0 0 81.713-3.079 94.28-3.456 4.291-.13.91.774 5.959.373 10.755-.854 34.229-.409 42.368-1.213 6.527-.647 7.932-.68 14.205-.208 5.45.409 40.414-.065 44.351-1.066.957-.244 1.68-.158 1.68.151 0 0 17.148.377 23.035.672.666.034 1.052.074 1.065.103.181.313.903.459 1.587.263 1.247-.356 26.813-1.075 27.215-.166 1.16 2.613-2.569 13.477-5.542 16.128-3.097 2.759-19.409-.675-32.994.9-70.375-.423-62.01-.085-75.445 1.057-1.529-.924-7.363 1.401-10.94-.177-1.496-.66-12.078-.633-14.415.07-1.71.513-55.694-.001-61.68 2.139-11.05-1.426-53.773 2.468-59.227 2.868" style="mix-blend-mode:multiply"/>
    <path d="M78.214 37.2c-7.03-2.014-58.496.23-62.246-.373-3.05-.81 1.827-15.143 4.662-17.258 1-.757 2.153-.874 4.8-.528 4.188.655 58.428-.632 58.428-.632.719.446 2.863-1.054 3.263-.512 1.25 1.261 89.14-.455 96.634-.53 4.547-.045.949.821 6.3.471 11.403-.688 36.247-.028 44.876-.818 6.914-.654 8.403-.668 15.04-.148 6.781.467 42.832-.21 46.954-1.21 1.006-.276 1.776-.179 1.779.141.001.067 25.409.298 25.524.548.196.317.966.47 1.685.248 1.324-.33 28.378-1.538 28.81-.604 1.328 2.651-2.391 13.933-5.532 16.682-3.21 2.932-20.87-.36-35.065 1.412l-66.076.176-14.165 1.099c-1.617-.955-7.867 1.447-11.631-.26-1.595-.675-12.84-.777-15.331-.059-2.16.555-59.728-.841-65.633 1.076-10.51-1.605-53.181.688-63.076 1.079" style="mix-blend-mode:multiply"/>
    <path d="M72.857 47.986c-6.937-2.17-58.243-1.304-61.958-1.997-3.011-.88 2.27-14.886 5.156-16.899 1.019-.718 2.169-.805 4.794-.394 4.15.755 58.188.906 58.188.906.701.459 2.88-.965 3.262-.418 1.207 1.274 88.759 1.882 96.221 2.005 4.528.076.92.835 6.26.63 11.372-.38 36.085.921 44.7.369 6.9-.466 8.384-.441 14.977.246 6.738.637 42.648.913 46.781.035 1.01-.246 1.773-.129 1.767.187-.001.065 25.286.958 25.394 1.207.186.318.949.488 1.67.291 1.328-.291 28.297-.774 28.7.157 1.243 2.65-2.795 13.679-6.005 16.308-3.284 2.806-20.765-.902-34.952.475l-65.787-1.557-14.133.713c-1.581-.985-7.876 1.22-11.574-.56-1.566-.71-12.759-1.104-15.26-.46-2.168.49-59.437-2.393-65.374-.658-10.416-1.859-52.966-.713-62.827-.586" style="mix-blend-mode:multiply"/>
    <path d="M61.823 61.025c-7.5-1.92-57.614 1.378-60.796.933-3.008-.695 1.287-14.418 3.998-16.508.962-.739 2.09-.915 4.691-.621 2.592.292 28.106-.681 57.315-1.723 0 0 75.377-1.131 98.038-1.256 4.461-.023.921.779 6.178.507 11.196-.577 35.566.43 44.045-.15 6.8-.467 8.26-.468 14.76.153 5.525.527 41.973.98 46.101.108 1.004-.213 1.75-.112 1.742.192.669.054 3.215.172 3.892.205.265.011 21.022.976 21.116 1.199.178.308.923.473 1.64.298 1.307-.317 27.882-.314 28.272.586 1.12 2.584-3.095 13.093-6.268 15.602-3.3 2.608-20.107-1.194-34.293-.02 0 0-4.03-.128-10.079-.317-60.64-1.9-56.102-1.285-68.306-.604-1.558-.94-7.69 1.184-11.354-.444-1.535-.681-12.526-.916-14.974-.286-1.746.451-58.014-1.324-64.12.644-11.634-1.668-56.93 1.279-61.598 1.502" style="mix-blend-mode:multiply"/>
  </g>
</svg>
