<svg width="163" height="80" xmlns="http://www.w3.org/2000/svg" xmlns:xlink="http://www.w3.org/1999/xlink"><defs><rect id="a" x="0" y="0" width="163" height="80" rx="8"/></defs><g fill="none" fill-rule="evenodd"><mask id="b" fill="#fff"><use xlink:href="#a"/></mask><path d="M69.896 14.715c3.922 1.186 40.79-1.488 45.05-.55 2.186.78-2.15 14.193-3.889 15.93-1.278 1.278-1.312.04-10.483.192-10.037.168-21.298.873-32.107 1.995-.552-.374-1.795 1.11-2.144.631-.664-.711-18.707 1.105-19.898 1.226C29.703 35.83 17.125 37.715.7 40.146c-3.078.455-.852-.65-4.407.138-7.012 1.55-24.551 3.406-30.258 5.04-4.504 1.29-5.505 1.425-10.16 1.669-4.742.25-29.016 4.73-31.462 6.154-.604.353-1.149.357-1.25.07-.28.028-17.395 2.52-17.51 2.363-.235-.263-.807-.314-1.226-.034-.974.55-19.003 4.531-19.58 3.746-1.662-2.26-2.48-12.816-1.266-15.634 1.275-2.95 14.197-1.955 23.318-5.155 55.523-9.267 40.925-6.309 54.55-9.856 1.389.703 4.973-2.093 8.087-.952 1.284.471 9.076-.553 10.603-1.445.658-.383 11.05-1.628 21.752-2.935 2.705-.33 21.54-2.489 23.63-3.74 6.731.588 38.453-4.303 44.375-4.86" fill="#e82e89" style="mix-blend-mode:multiply" mask="url(#b)"/><path d="M61.035 62.94c3.73-1.766 40.583-4.668 44.682-6.239 2.064-1.102-3.955-13.73-5.9-15.19-1.43-1.072-1.306.159-10.407 1.39-9.96 1.345-21.203 2.342-32.05 2.857-.499.454-1.921-.829-2.205-.302-.567.805-18.667 1.722-19.862 1.782-16.777.843-29.476.87-46.053.935-3.106.013-.76.772-4.382.527-7.143-.48-24.75.323-30.612-.437-4.626-.598-5.634-.581-10.276-.122-4.728.466-29.342-.316-31.947-1.358-.644-.258-1.184-.18-1.248.12-.28.014-17.549.122-17.644.295-.198.296-.758.433-1.209.219-1.034-.399-19.4-1.627-19.871-.762-1.355 2.487-.807 13.065.758 15.672 1.642 2.73 14.31-.2 23.755 1.594 56.174.818 41.338.087 55.286 1.548 1.285-.905 5.194 1.324 8.131-.274 1.21-.66 9.06-.819 10.686-.166.7.28 11.152-.05 21.918-.368 2.721-.081 21.65-.778 23.882.147 6.59-1.597 38.631-1.528 44.568-1.868" fill="#e82e89" style="mix-blend-mode:multiply" mask="url(#b)"/><path d="M-66.204 52.068c-8.124-1.73-45.503 6.194-47.662 6.161-1.29-.16-2.305-3.504-2.77-7.096-1.23-9.529.789-9.582 4.134-9.67 0 0 28.833-4.47 47.213-6.583.664.348 2.14-1.152 2.566-.694.155.128 1.405.127 3.484-.002 19.481-1.218 55.788-3.796 75.336-3.913 3.709-.022.786.725 5.145.442 8.868-.577 19.59-.084 29.184-.042 12.967.056 10.187-1.016 19.624.207 3.542.46 34.673 1.73 38.257 1.164.853-.184 1.465-.045 1.424.242.45.06 20.51 1.956 20.578 2.268.103.3.7.495 1.317.353.56-.077 6.362.071 12.037.518 5.674.446 11.23.986 11.31 1.419.453 2.485-4.919 12.185-7.885 14.38-1.565 1.159-5.58.602-10.681-.154-15.106-2.238-9.075-.78-25.104-2.014-44.478-3.423-47.818-2.35-55.227-1.952-1.238-.908-6.244 1.054-9.181-.492-1.226-.644-10.144-.9-12.123-.29-1.811.423-45.713-.89-51.795 1.554-10.185-1.59-47.37 3.955-49.181 4.194" fill="#e82e89" style="mix-blend-mode:multiply" mask="url(#b)"/></g></svg>