<svg width="139" height="69" viewBox="0 0 139 69" fill="none" xmlns="http://www.w3.org/2000/svg" preserveAspectRatio="none">
<g fill="#e82e89" fill-rule="evenodd">
<path fill-rule="evenodd" clip-rule="evenodd" d="M108.281 3.24176C111.021 5.83423 129.625 0.328268 130.812 0.914519C131.922 1.85983 130.262 21.5301 129.247 24.5564C128.887 25.6275 128.469 25.8971 127.506 25.5183C126.491 25.1191 115.813 27.175 106.265 28.9313C106.265 28.9313 74.7837 32.236 69.9433 32.6092C68.2905 32.7386 69.605 31.5179 67.6568 32.0162C63.5061 33.078 54.483 32.1709 51.3395 33.1952C48.8185 34.0182 48.2777 34.048 45.8719 33.3126C43.7817 32.6753 30.3241 32.9109 28.7939 34.2616C28.4219 34.5907 28.1455 34.4621 28.1503 34.0296C28.1503 34.0296 21.5594 33.2949 19.2993 32.8115C19.0435 32.7565 18.8956 32.6957 18.8911 32.6543C18.8262 32.2159 18.5507 32.0031 18.2845 32.2681C17.7994 32.7509 7.95317 33.4434 7.81264 32.1692C7.40726 28.5062 9.00977 13.3832 10.1944 9.71809C11.4285 5.90282 17.6504 10.8959 22.9008 8.8613C49.9668 10.3089 46.7538 9.73535 51.9401 8.30368C52.5139 9.6122 54.7943 6.43681 56.1457 8.68387C56.7112 9.62505 60.7822 9.71444 61.6921 8.76185C62.3578 8.0656 83.117 9.44114 85.4525 6.52594C89.6815 8.65047 106.177 3.73332 108.281 3.24176Z" style="mix-blend-mode:multiply"/>
<path fill-rule="evenodd" clip-rule="evenodd" d="M26.144 47.121C23.0748 44.7819 2.28885 49.5773 0.961003 49.0444C-0.282797 48.1907 1.52465 30.6011 2.65192 27.9003C3.05115 26.9444 3.5185 26.7061 4.59563 27.0519C5.73104 27.4162 17.6639 25.652 28.3343 24.1478C28.3343 24.1478 63.5223 21.4129 68.933 21.1132C70.7804 21.009 69.3139 22.0921 71.4907 21.6599C76.1285 20.7391 86.2185 21.6144 89.7304 20.7201C92.5468 20.0014 93.1513 19.9787 95.8428 20.6536C98.1812 21.2386 113.226 21.1228 114.934 19.925C115.349 19.6332 115.658 19.7502 115.654 20.1372C115.654 20.1372 123.024 20.8411 125.552 21.2896C125.838 21.3406 126.004 21.3961 126.009 21.4331C126.082 21.8259 126.391 22.0183 126.688 21.783C127.229 21.3544 138.235 20.8042 138.396 21.9454C138.858 25.226 137.104 38.747 135.788 42.0182C134.418 45.4235 127.45 40.9117 121.585 42.6952C91.3217 41.2088 94.9152 41.7447 89.1205 42.9892C88.4758 41.8142 85.9342 44.6395 84.4178 42.6193C83.7833 41.7731 79.2317 41.6644 78.2168 42.5104C77.4742 43.1287 54.2622 41.7513 51.6583 44.3434C46.9251 42.4125 28.4955 46.696 26.144 47.121Z" style="mix-blend-mode:multiply"/>
<path fill-rule="evenodd" clip-rule="evenodd" d="M29.3687 66.4323C26.5096 63.968 7.11809 69.1283 5.88049 68.5693C4.72172 67.6704 6.43196 49.0397 7.48704 46.1757C7.86069 45.162 8.29687 44.9078 9.30092 45.2696C10.3593 45.6508 21.4903 43.7352 31.4436 42.1C31.4436 42.1 64.2635 39.064 69.3099 38.725C71.0329 38.6074 69.6638 39.76 71.6944 39.2937C76.0209 38.3002 85.4296 39.1868 88.706 38.2258C91.3336 37.4537 91.8974 37.4272 94.4065 38.1311C96.5865 38.7411 110.618 38.5584 112.211 37.2835C112.599 36.9728 112.887 37.0955 112.883 37.5052C112.883 37.5052 119.755 38.2211 122.112 38.6859C122.379 38.7387 122.533 38.7968 122.538 38.836C122.606 39.2516 122.894 39.454 123.171 39.2038C123.676 38.7478 133.941 38.1213 134.089 39.329C134.516 42.8005 132.861 57.1233 131.63 60.592C130.347 64.2029 123.855 59.4538 118.383 61.3655C90.1614 59.9125 93.512 60.4656 88.1061 61.8063C87.5065 60.5649 85.1322 63.5664 83.7209 61.4335C83.1303 60.5401 78.8857 60.4431 77.938 61.3429C77.2446 62.0005 55.5991 60.6348 53.1672 63.3896C48.7557 61.3641 31.5623 65.973 29.3687 66.4323Z" style="mix-blend-mode:multiply"/>
</g>
</svg>
