<svg width="150" height="80" xmlns="http://www.w3.org/2000/svg" xmlns:xlink="http://www.w3.org/1999/xlink"><defs><rect id="a" x="0" y="0" width="150" height="80" rx="8"/></defs><g fill="none" fill-rule="evenodd"><mask id="b" fill="#fff"><use xlink:href="#a"/></mask><path d="M94.727-1.286c3.921 1.187 40.788-1.488 45.05-.549 2.186.78-2.15 14.192-3.89 15.93-1.278 1.277-1.312.04-10.483.192-10.037.167-21.298.872-32.106 1.995-.552-.374-1.796 1.11-2.145.63-.664-.71-18.706 1.106-19.897 1.227-16.723 1.69-29.301 3.576-45.726 6.006-3.077.455-.851-.65-4.406.138-7.013 1.55-24.552 3.407-30.258 5.041-4.505 1.289-5.505 1.424-10.16 1.668-4.743.25-29.017 4.731-31.462 6.155-.605.353-1.15.356-1.251.069-.28.028-17.394 2.521-17.51 2.364-.235-.263-.807-.314-1.226-.034-.973.55-19.003 4.531-19.58 3.746-1.662-2.26-2.48-12.817-1.266-15.634 1.275-2.95 14.197-1.956 23.319-5.155 55.522-9.267 40.925-6.31 54.55-9.856 1.388.702 4.972-2.093 8.086-.953 1.284.472 9.077-.553 10.604-1.444.657-.383 11.05-1.629 21.751-2.935 2.706-.33 21.54-2.49 23.631-3.741 6.73.589 38.452-4.303 44.375-4.86" fill="#e82e89" style="mix-blend-mode:multiply" mask="url(#b)" transform="rotate(-172 24.105 20.677)"/><path d="M84.865 47.94c3.731-1.766 40.583-4.668 44.682-6.24 2.065-1.101-3.954-13.73-5.9-15.189-1.43-1.072-1.306.159-10.407 1.389-9.96 1.345-21.202 2.342-32.05 2.858-.499.453-1.921-.829-2.205-.302-.566.804-18.667 1.722-19.862 1.781-16.777.843-29.476.87-46.053.936-3.106.013-.76.772-4.381.527-7.144-.48-24.751.323-30.612-.437-4.627-.598-5.635-.581-10.277-.122-4.728.466-29.342-.316-31.947-1.358-.644-.259-1.184-.18-1.248.12-.28.014-17.549.122-17.643.295-.199.295-.758.432-1.21.218-1.034-.398-19.4-1.626-19.871-.761-1.355 2.487-.807 13.065.758 15.672 1.642 2.73 14.31-.201 23.755 1.594 56.175.818 41.338.086 55.287 1.547 1.285-.904 5.194 1.325 8.13-.273 1.21-.66 9.06-.82 10.686-.166.7.28 11.153-.051 21.918-.369 2.721-.08 21.65-.777 23.882.147 6.59-1.596 38.631-1.528 44.568-1.868" fill="#e82e89" style="mix-blend-mode:multiply" mask="url(#b)" transform="rotate(180 12.542 38.445)"/><path d="M-76.961 65.856c-10.386.908-24.1.444-25.72.408-.966-.178-1.728-3.886-2.077-7.868-.922-10.565.592-10.625 3.1-10.723 0 0 21.625-4.954 35.41-7.298.499.386 1.606-1.277 1.925-.77.117.142 1.054.14 2.613-.001 14.61-1.351 41.841-4.21 56.502-4.34 2.782-.024.59.804 3.859.491 6.651-.64 14.692-.094 21.888-.047 9.725.062 7.64-1.127 14.718.23 2.657.509 26.005 1.919 28.693 1.29.64-.204 1.099-.05 1.067.268.339.068 15.383 2.17 15.434 2.515.078.333.524.55.988.392.42-.086 4.771.079 9.028.574 4.255.495 8.422 1.093 8.482 1.573.34 2.755-3.689 13.51-5.914 15.944-1.173 1.286-4.184.668-8.01-.17-11.33-2.481-6.807-.864-18.829-2.233-33.358-3.796-35.863-2.606-41.42-2.165-.928-1.007-4.683 1.17-6.886-.545-.92-.714-7.607-.997-9.092-.322-1.358.47-17.384 10.085-38.687 10.038-21.303-.046-23.122.663-30.04 1.268" fill="#e82e89" style="mix-blend-mode:multiply" mask="url(#b)" transform="rotate(-175 -3.03 50.84)"/></g></svg>