<svg width="324" height="14" viewBox="0 0 324 14" fill="none" xmlns="http://www.w3.org/2000/svg">
<path fill-rule="evenodd" clip-rule="evenodd" d="M60.2392 14C53.5408 12.7007 4.49623 14.1486 0.922825 13.7597C-1.98353 13.2365 2.66357 3.98942 5.36521 2.6252C6.31775 2.13664 7.41651 2.06099 9.93851 2.28436C13.9297 2.70707 65.6174 1.87678 65.6174 1.87678C66.3025 2.16422 68.3455 1.19689 68.727 1.54663C69.9177 2.36 153.673 1.25296 160.814 1.2049C165.146 1.17553 161.718 1.7344 166.817 1.50836C177.684 1.0643 201.358 1.49056 209.581 0.980645C216.17 0.558829 217.589 0.549929 223.914 0.885425C230.376 1.18621 264.73 0.749269 268.658 0.104086C269.616 -0.0738961 270.35 -0.0107126 270.353 0.195746C270.354 0.238462 294.566 0.387966 294.676 0.54904C294.863 0.753718 295.597 0.852498 296.282 0.709223C297.543 0.496535 323.325 -0.283024 323.737 0.319443C325.001 2.02985 321.457 9.3084 318.464 11.082C315.405 12.9739 298.577 10.8497 285.049 11.9933L222.083 12.1063L208.584 12.8155C207.044 12.1997 201.088 13.749 197.501 12.6482C195.981 12.2122 185.265 12.1463 182.891 12.61C180.833 12.9677 125.974 12.0671 120.346 13.3041C110.331 12.2682 69.6684 13.7482 60.2392 14Z" fill="#e73089"/>
</svg>
