<svg width="318" height="5" viewBox="0 0 318 5" fill="none" xmlns="http://www.w3.org/2000/svg">
<path fill-rule="evenodd" clip-rule="evenodd" d="M211.954 1.01377C210.304 1.00718 208.65 0.997534 207.003 1.00058C205.295 1.00362 203.591 1.01073 201.887 1.02139C199.484 1.03509 197.084 1.07163 194.687 1.1036C192.098 1.1371 189.512 1.17161 186.923 1.20257C185.638 1.2183 184.359 1.23505 183.077 1.2518C181.789 1.26905 180.529 1.30661 179.278 1.36447C177.139 1.46343 174.935 1.51114 172.749 1.56138C172.065 1.57458 171.385 1.58727 170.695 1.59589C169.756 1.60604 168.818 1.6101 167.873 1.61315C166.206 1.61822 164.524 1.60097 162.858 1.59031C159.582 1.5695 156.313 1.55275 153.037 1.5492C146.378 1.5426 139.729 1.5827 133.074 1.59945C126.484 1.61619 119.863 1.52992 113.287 1.61061C109.932 1.65223 106.581 1.69486 103.22 1.7248C101.629 1.738 100.042 1.75119 98.4479 1.75982C96.7785 1.76845 95.1092 1.75271 93.4398 1.72835C91.8365 1.7045 90.2427 1.66136 88.6332 1.6639C87.0709 1.66694 85.5086 1.67608 83.9463 1.68572C80.6768 1.70552 77.401 1.72379 74.1283 1.71262C70.7896 1.70146 67.4476 1.6771 64.1088 1.66035C60.8173 1.6436 57.5163 1.61569 54.2216 1.60452C47.5629 1.58321 40.9137 1.64715 34.2834 1.738C31.121 1.78114 27.9554 1.82478 24.793 1.87249C21.5204 1.9207 18.2603 1.9882 15.0003 2.05722C13.7498 2.08412 12.4993 2.11254 11.252 2.14604C10.1685 2.17446 9.11645 2.22217 8.07387 2.28205C7.79669 2.29778 7.5321 2.32316 7.26437 2.34346C6.92419 2.36884 6.59346 2.39472 6.27218 2.42619C5.78081 2.47491 5.29574 2.52667 4.85162 2.59011C4.45475 2.64645 4.06102 2.70278 3.66415 2.76064C2.91135 2.86823 2.0987 2.95705 1.29235 3.0484C1.00572 3.08088 0.920672 3.15041 1.07816 3.20827C1.07816 3.20827 1.07816 3.20877 1.08131 3.20877C1.21675 3.25952 1.50653 3.27526 1.76167 3.2646C1.75852 3.2646 1.75537 3.26561 1.75537 3.26612C1.95066 3.25496 2.14909 3.24481 2.34438 3.23567C2.76961 3.22704 3.22633 3.21436 3.6484 3.22146C3.94763 3.22603 4.25001 3.23161 4.54609 3.23618C4.91462 3.24227 5.28 3.25445 5.64222 3.26612C7.29902 3.31992 8.94321 3.36915 10.6158 3.3859C12.1686 3.40112 13.7341 3.39199 15.2869 3.37625C18.5155 3.34682 21.7314 3.28947 24.9537 3.24734L34.4975 3.12351C37.7135 3.08189 40.9294 3.04231 44.1548 3.02404C50.8954 2.98394 57.6391 2.96314 64.3734 2.91797C67.6492 2.89564 70.9124 2.85605 74.185 2.8322C77.464 2.80733 80.7461 2.78652 84.025 2.75861C86.3338 2.73881 88.6489 2.7241 90.9451 2.68299C92.3594 2.65812 93.7642 2.61295 95.169 2.57337C96.3439 2.54088 97.5219 2.51297 98.7031 2.48658C98.596 2.48912 98.4889 2.49166 98.3755 2.49419C101.604 2.43177 104.842 2.39777 108.077 2.35361C111.375 2.30895 114.66 2.25921 117.967 2.25109C119.618 2.24653 121.268 2.24348 122.922 2.24856C124.569 2.25312 126.22 2.26175 127.87 2.26429C131.174 2.27038 134.479 2.26023 137.783 2.2516C140.973 2.24247 144.167 2.23333 147.364 2.23384C150.791 2.23485 154.225 2.23485 157.655 2.25668C161.012 2.2785 164.364 2.30692 167.718 2.3394C170.988 2.36985 174.248 2.40589 177.514 2.3932C178.289 2.38964 179.067 2.38914 179.839 2.39523C180.57 2.40132 181.291 2.41096 182.018 2.40893C183.748 2.40386 185.48 2.39066 187.212 2.37696C190.567 2.35006 193.925 2.3125 197.282 2.28053C200.574 2.25008 203.865 2.23232 207.163 2.23181C208.795 2.2313 210.43 2.24044 212.055 2.25059C213.746 2.26023 215.438 2.26936 217.129 2.28662C223.775 2.3526 230.409 2.48455 237.042 2.59164C240.397 2.64645 243.755 2.70278 247.112 2.75303C250.319 2.80073 253.532 2.83676 256.738 2.8865C258.486 2.91289 260.228 2.94588 261.973 2.98242C263.715 3.01845 265.447 3.07124 267.176 3.12199C270.408 3.22603 273.627 3.3458 276.853 3.46101C280.343 3.58535 283.845 3.68736 287.364 3.7645C290.608 3.83555 293.858 3.88224 297.112 3.91777C298.7 3.93503 300.278 3.96243 301.865 3.98425C303.531 4.00709 305.198 4.00049 306.861 3.99288C308.259 3.9873 309.661 3.98476 311.05 3.96395C311.913 3.95025 312.776 3.93198 313.623 3.90001C314.549 3.86397 315.416 3.78379 316.244 3.70208C316.713 3.65539 317 3.54881 317 3.4473C317 3.32296 316.54 3.18137 315.882 3.15396C315.038 3.11894 314.162 3.07783 313.299 3.0621C312.549 3.04891 311.803 3.03926 311.05 3.02861C309.573 3.0083 308.096 2.99359 306.618 2.97126C305.213 2.95045 303.818 2.90832 302.416 2.87381C301.021 2.8393 299.629 2.80073 298.237 2.76419C295.32 2.68857 292.397 2.63427 289.477 2.57184C286.655 2.51246 283.848 2.44446 281.042 2.36224C274.339 2.1435 267.684 1.86792 260.937 1.72429C257.799 1.6573 254.656 1.61619 251.509 1.57407C248.243 1.53042 244.983 1.47612 241.723 1.42385C235.017 1.31625 228.317 1.20003 221.611 1.09954C218.78 1.05742 215.945 1.03255 213.107 1.01885C212.723 1.01733 212.338 1.0153 211.954 1.01377Z" fill="#E2FF54"/>
<path d="M211.954 1.01377C210.304 1.00718 208.65 0.997534 207.003 1.00058C205.295 1.00362 203.591 1.01073 201.887 1.02139C199.484 1.03509 197.084 1.07163 194.687 1.1036C192.098 1.1371 189.512 1.17161 186.923 1.20257C185.638 1.2183 184.359 1.23505 183.077 1.2518C181.789 1.26905 180.529 1.30661 179.278 1.36447C177.139 1.46343 174.935 1.51114 172.749 1.56138C172.065 1.57458 171.385 1.58727 170.695 1.59589C169.756 1.60604 168.818 1.6101 167.873 1.61315C166.206 1.61822 164.524 1.60097 162.858 1.59031C159.582 1.5695 156.313 1.55275 153.037 1.5492C146.378 1.5426 139.729 1.5827 133.074 1.59945C126.484 1.61619 119.863 1.52992 113.287 1.61061C109.932 1.65223 106.581 1.69486 103.22 1.7248C101.629 1.738 100.042 1.75119 98.4479 1.75982C96.7785 1.76845 95.1092 1.75271 93.4398 1.72835C91.8365 1.7045 90.2427 1.66136 88.6332 1.6639C87.0709 1.66694 85.5086 1.67608 83.9463 1.68572C80.6768 1.70552 77.401 1.72379 74.1283 1.71262C70.7895 1.70146 67.4476 1.6771 64.1088 1.66035C60.8173 1.6436 57.5163 1.61569 54.2216 1.60452C47.5629 1.58321 40.9137 1.64715 34.2834 1.738C31.121 1.78114 27.9554 1.82478 24.793 1.87249C21.5204 1.9207 18.2603 1.9882 15.0003 2.05722C13.7498 2.08412 12.4993 2.11254 11.252 2.14604C10.1685 2.17446 9.11645 2.22217 8.07387 2.28205C7.79669 2.29778 7.5321 2.32316 7.26437 2.34346C6.92419 2.36884 6.59346 2.39472 6.27218 2.42619C5.78081 2.47491 5.29574 2.52667 4.85162 2.59011C4.45475 2.64645 4.06102 2.70278 3.66415 2.76064C2.91135 2.86823 2.0987 2.95705 1.29235 3.0484C1.00572 3.08088 0.920672 3.15041 1.07816 3.20827C1.07816 3.20827 1.07816 3.20877 1.08131 3.20877C1.21675 3.25952 1.50653 3.27526 1.76167 3.2646C1.75852 3.2646 1.75537 3.26561 1.75537 3.26612C1.95066 3.25496 2.14909 3.24481 2.34438 3.23567C2.76961 3.22704 3.22633 3.21436 3.6484 3.22146C3.94763 3.22603 4.25001 3.23161 4.54609 3.23618C4.91462 3.24227 5.28 3.25445 5.64222 3.26612C7.29902 3.31992 8.94321 3.36915 10.6158 3.3859C12.1686 3.40112 13.7341 3.39199 15.2869 3.37625C18.5155 3.34682 21.7314 3.28947 24.9537 3.24734L34.4975 3.12351C37.7135 3.08189 40.9294 3.04231 44.1548 3.02404C50.8954 2.98394 57.6391 2.96314 64.3734 2.91797C67.6492 2.89564 70.9124 2.85605 74.185 2.8322C77.464 2.80733 80.7461 2.78652 84.025 2.75861C86.3338 2.73881 88.6489 2.7241 90.9451 2.68299C92.3594 2.65812 93.7642 2.61295 95.169 2.57337C96.3439 2.54088 97.5219 2.51297 98.7031 2.48658C98.596 2.48912 98.4889 2.49166 98.3755 2.49419C101.604 2.43177 104.842 2.39777 108.077 2.35361C111.375 2.30895 114.66 2.25921 117.967 2.25109C119.618 2.24653 121.268 2.24348 122.922 2.24856C124.569 2.25312 126.22 2.26175 127.87 2.26429C131.174 2.27038 134.479 2.26023 137.783 2.2516C140.973 2.24247 144.167 2.23333 147.364 2.23384C150.791 2.23485 154.225 2.23485 157.655 2.25668C161.012 2.2785 164.364 2.30692 167.718 2.3394C170.988 2.36985 174.248 2.40589 177.514 2.3932C178.289 2.38964 179.067 2.38914 179.839 2.39523C180.57 2.40132 181.291 2.41096 182.018 2.40893C183.748 2.40386 185.48 2.39066 187.212 2.37696C190.567 2.35006 193.925 2.3125 197.282 2.28053C200.574 2.25008 203.865 2.23232 207.163 2.23181C208.795 2.2313 210.43 2.24044 212.055 2.25059C213.746 2.26023 215.438 2.26936 217.129 2.28662C223.775 2.3526 230.409 2.48455 237.042 2.59164C240.397 2.64645 243.755 2.70278 247.112 2.75303C250.319 2.80073 253.532 2.83676 256.738 2.8865C258.486 2.91289 260.228 2.94588 261.973 2.98242C263.715 3.01845 265.447 3.07124 267.176 3.12199C270.408 3.22603 273.627 3.3458 276.853 3.46101C280.343 3.58535 283.845 3.68736 287.364 3.7645C290.608 3.83555 293.858 3.88224 297.112 3.91777C298.7 3.93503 300.278 3.96243 301.865 3.98425C303.531 4.00709 305.198 4.00049 306.861 3.99288C308.259 3.9873 309.661 3.98476 311.05 3.96395C311.913 3.95025 312.776 3.93198 313.623 3.90001C314.549 3.86397 315.416 3.78379 316.244 3.70208C316.713 3.65539 317 3.54881 317 3.4473C317 3.32296 316.54 3.18137 315.882 3.15396C315.038 3.11894 314.162 3.07783 313.299 3.0621C312.549 3.04891 311.803 3.03926 311.05 3.02861C309.573 3.0083 308.096 2.99359 306.618 2.97126C305.213 2.95045 303.818 2.90832 302.416 2.87381C301.021 2.8393 299.629 2.80073 298.237 2.76419C295.32 2.68857 292.397 2.63427 289.477 2.57184C286.655 2.51246 283.848 2.44446 281.042 2.36224C274.339 2.1435 267.684 1.86792 260.937 1.72429C257.8 1.6573 254.656 1.61619 251.509 1.57407C248.243 1.53042 244.983 1.47612 241.723 1.42385C235.017 1.31625 228.317 1.20003 221.611 1.09954C218.78 1.05742 215.945 1.03255 213.107 1.01885C212.723 1.01733 212.338 1.0153 211.954 1.01377" stroke="#DAFF0C" stroke-width="2"/>
</svg>
