
<svg width="492px" height="34px" viewBox="0 0 492 34" version="1.1" xmlns="http://www.w3.org/2000/svg" xmlns:xlink="http://www.w3.org/1999/xlink">
    <g id="Crash-Game" stroke="none" stroke-width="1" fill="none" fill-rule="evenodd" opacity="0.3">
        <g id="wallfair-2.0-crash-game-01b-02" transform="translate(-990.000000, -343.000000)" fill="#e82e89">
            <g id="Group-38" transform="translate(1108.000000, 119.000000)">
                <g id="Group-6-Copy" transform="translate(40.000000, 215.000000)">
                    <g id="Group-6" transform="translate(-157.332152, 7.304545)">
                        <g id="Group-30" transform="translate(0.000000, 1.843576)">
                            <path d="M86.2972285,19.4476979 C75.8707006,18.020619 6.02863967,21.4912578 1.53561536,21.178751 C-2.6862599,20.660395 2.74519428,9.4282813 6.44171828,7.68656241 C7.75085974,7.07008138 9.31632176,6.90902838 12.9577686,7.10741155 C16.7962222,7.31646048 56.9283983,5.95337612 92.8175156,4.78120891 C92.8175156,4.78120891 211.25245,2.33235001 229.468158,2.0326421 C235.687639,1.92918422 230.787891,2.64805656 238.104678,2.32915028 C253.69363,1.64974126 287.716479,2.00384455 299.51358,1.36389884 C308.97414,0.849809126 311.009876,0.823144722 320.101842,1.19857954 C328.001176,1.52388527 378.678508,1.14738388 384.385348,0.350651476 C385.772868,0.156534612 386.819334,0.224795487 386.819334,0.471174584 C386.819334,0.471174584 411.673957,0.770882489 420.206678,1.00552925 C421.172646,1.03219365 421.731891,1.06419094 421.750956,1.08765561 C422.013632,1.33616786 423.060098,1.45242466 424.051487,1.29670454 C425.858441,1.01299528 462.91477,0.441310451 463.497317,1.1644491 C465.17717,3.24320606 459.773254,11.8846062 455.464526,13.9932273 C450.975739,16.1882411 427.332814,13.4567395 407.642733,14.7099665 C305.639854,14.3729284 317.7653,14.6417056 298.291291,15.5504285 C296.075495,14.8155576 287.619035,16.6650006 282.435428,15.4096405 C280.266235,14.8838184 264.929368,14.9062165 261.542123,15.4651025 C259.063652,15.8736011 180.818089,15.4640359 172.143438,17.1662915 C156.126579,16.032521 94.2029177,19.1298582 86.2972285,19.4476979" id="Fill-1" style="mix-blend-mode: multiply;"></path>
                            <path d="M68.6606306,17.2611799 C61.78695,15.6592613 11.4590325,17.444413 7.79211686,16.9649346 C4.80971117,16.3197784 9.57841639,4.91872627 12.3507533,3.23671175 C13.3282164,2.63434647 14.4557286,2.54108409 17.0437194,2.81648242 C21.1393469,3.33765457 74.1795816,2.31396275 74.1795816,2.31396275 C74.8826691,2.66835981 76.9790702,1.4756985 77.3706271,1.90689988 C78.592456,2.90974481 164.539186,1.54482239 171.867301,1.48557335 C176.313043,1.4493656 172.794748,2.13841003 178.027891,1.85972008 C189.178687,1.31221503 213.472361,1.83777599 221.91084,1.20907781 C228.671626,0.689002868 230.127818,0.678030823 236.618516,1.09167692 C243.249259,1.46253205 278.502238,0.923804634 282.533559,0.128331361 C283.516738,-0.0911095421 284.269842,-0.0132080216 284.2727,0.241343426 C284.274129,0.294009242 309.119412,0.478339601 309.232306,0.676933618 C309.423797,0.929290656 310.176901,1.05108036 310.879989,0.874430431 C312.174699,0.612198552 338.630509,-0.348952603 339.053505,0.393854853 C340.351073,2.50268193 336.714167,11.4767177 333.643161,13.6634463 C330.503561,15.9961031 313.235046,13.3770759 299.353355,14.7869837 L234.739328,14.9263286 L220.887647,15.8008006 C219.30713,15.0415351 213.195127,16.9517682 209.513921,15.5945262 C207.954839,15.056896 196.958379,14.9757029 194.521866,15.5473464 C192.409746,15.9884226 136.115588,14.8780517 130.340839,16.4031659 C120.063186,15.1260199 78.3366579,16.950671 68.6606306,17.2611799" id="Fill-4" style="mix-blend-mode: multiply;"></path>
                            <path d="M92.3323056,31.8837376 C82.1552486,30.511804 7.94822335,33.8056048 2.52765761,33.444017 C-1.88493826,32.8974776 4.88714666,21.503497 8.93999668,19.7580983 C10.3697821,19.1355935 12.0292287,19.0080022 15.8541456,19.2011824 C21.9068947,19.5904557 100.133127,16.9664777 100.133127,16.9664777 C101.177068,17.2951586 104.242684,16.0537604 104.828841,16.4689603 C106.655424,17.4194937 233.41748,13.4570218 244.226611,13.1753792 C250.785031,13.0060028 245.609198,13.7924446 253.326291,13.3580345 C269.763035,12.4789747 305.614176,12.2575522 318.048307,11.381244 C328.008541,10.6610992 330.157252,10.6052308 339.74281,10.8163681 C349.534667,10.9801606 401.528581,9.37618102 407.456499,8.46904793 C408.902959,8.22210195 410.014506,8.27633012 410.025679,8.52742337 C410.027626,8.5793865 446.684751,8.00449242 446.856782,8.19682709 C447.14525,8.4403604 448.260096,8.53674831 449.292859,8.34333908 C451.195581,8.04461514 490.20203,6.29139113 490.843785,7.01032515 C492.806704,9.05198755 487.647661,18.0186981 483.165635,20.2701997 C478.586723,22.6660186 453.053136,20.6079099 432.604063,22.4222919 L337.286375,24.5261056 L316.874272,25.8102044 C314.524074,25.1078457 305.550001,27.1798151 300.087198,25.9536026 C297.775251,25.4688676 281.550552,25.7236993 277.968924,26.3620748 C274.862173,26.8613003 191.790923,27.4796852 183.305853,29.1594397 C168.113394,28.2116876 106.59741,31.2824841 92.3323056,31.8837376" id="Fill-6" style="mix-blend-mode: multiply;"></path>
                        </g>
                    </g>
                </g>
            </g>
        </g>
    </g>
</svg>
