<svg width="160" height="42" viewBox="0 0 160 42" fill="none" xmlns="http://www.w3.org/2000/svg">
<path fill-rule="evenodd" clip-rule="evenodd" d="M34.8551 38.5346C31.6689 37.0952 10.0311 40.1521 8.65121 39.8267C7.35972 39.3018 9.29069 28.3807 10.4712 26.7005C10.8893 26.1058 11.3761 25.9561 12.4957 26.1665C13.6759 26.3881 26.0949 25.2466 37.1999 24.2715C37.1999 24.2715 73.8146 22.4367 79.4443 22.2295C81.3665 22.1577 79.8377 22.8354 82.1035 22.5587C86.931 21.9692 97.4253 22.4729 101.081 21.9042C104.013 21.4472 104.642 21.4307 107.44 21.839C109.872 22.1928 125.523 22.062 127.303 21.3121C127.736 21.1294 128.057 21.2008 128.052 21.4409C128.052 21.4409 135.717 21.8488 138.346 22.1172C138.643 22.1477 138.815 22.1815 138.821 22.2045C138.896 22.4479 139.216 22.5661 139.526 22.4189C140.09 22.1508 151.542 21.7664 151.705 22.4738C152.177 24.5075 150.313 32.9039 148.935 34.9388C147.5 37.0571 140.264 34.2849 134.157 35.4145C102.678 34.6108 106.415 34.9293 100.383 35.7241C99.7155 34.9976 97.0632 36.7606 95.4916 35.5131C94.8339 34.9905 90.0991 34.9409 89.0409 35.4698C88.2665 35.8563 64.1225 35.0926 61.4062 36.7112C56.4877 35.5316 37.3027 38.2616 34.8551 38.5346" fill="#E82E89"/>
<path fill-rule="evenodd" clip-rule="evenodd" d="M130.274 14.1738C133.832 15.4723 157.932 12.8087 159.471 13.1045C160.913 13.5784 158.817 23.3444 157.51 24.8439C157.047 25.3747 156.505 25.507 155.256 25.3151C153.94 25.1129 140.105 26.0931 127.733 26.9288C127.733 26.9288 86.9359 28.4491 80.6627 28.6159C78.5207 28.6738 80.2211 28.0724 77.6973 28.3125C72.3201 28.8239 60.6216 28.3385 56.5498 28.8352C53.2845 29.2344 52.5836 29.2471 49.4631 28.8725C46.7519 28.5478 29.3086 28.6129 27.329 29.278C26.8477 29.4401 26.489 29.3751 26.494 29.1603C26.494 29.1603 17.9488 28.7699 15.0179 28.521C14.6861 28.4927 14.4943 28.4619 14.4882 28.4413C14.4029 28.2233 14.0452 28.1165 13.7009 28.2471C13.0735 28.4851 0.312612 28.7912 0.126838 28.1576C-0.409 26.3362 1.62531 18.8292 3.15046 17.0129C4.73931 15.1222 12.8184 17.6268 19.6182 16.6362C54.7057 17.4598 50.5393 17.1625 57.2578 16.4712C58.0053 17.1235 60.9522 15.5548 62.7102 16.6763C63.4459 17.1461 68.723 17.2062 69.8997 16.7365C70.7607 16.3931 97.673 17.1566 100.692 15.7173C106.18 16.7891 127.547 14.4099 130.274 14.1738" fill="#E82E89"/>
<path fill-rule="evenodd" clip-rule="evenodd" d="M127.052 3.45065C130.377 4.81888 152.93 1.95383 154.37 2.26418C155.717 2.76328 153.728 13.1072 152.501 14.6973C152.067 15.2601 151.559 15.4012 150.392 15.2004C149.161 14.9887 136.215 16.0522 124.639 16.9601C124.639 16.9601 86.4673 18.6457 80.5981 18.834C78.5941 18.8993 80.1866 18.2594 77.8248 18.5183C72.7929 19.0698 61.8501 18.5776 58.0394 19.1111C54.9835 19.5398 54.3277 19.5545 51.4095 19.1637C48.874 18.825 32.5553 18.9264 30.7014 19.6343C30.2507 19.8068 29.9153 19.7387 29.9206 19.5112C29.9206 19.5112 21.9275 19.1138 19.1862 18.8557C18.8759 18.8264 18.6966 18.7941 18.691 18.7723C18.6118 18.5416 18.2774 18.4292 17.955 18.5682C17.3674 18.8213 5.4284 19.1691 5.25642 18.4986C4.76035 16.5712 6.685 8.61912 8.11702 6.69322C9.60884 4.68843 17.1598 7.3252 23.524 6.26379C56.3467 7.07049 52.4499 6.76343 58.7372 6.01903C59.4346 6.70828 62.196 5.04183 63.8374 6.22605C64.5243 6.72206 69.461 6.77589 70.5632 6.27634C71.3696 5.91122 96.5445 6.66948 99.3729 5.13997C104.504 6.26456 124.5 3.7057 127.052 3.45065" fill="#E82E89"/>
</svg>
