<svg width="169" height="68" viewBox="0 0 169 68" fill="none" xmlns="http://www.w3.org/2000/svg">
<g style="mix-blend-mode:multiply">
<path fill-rule="evenodd" clip-rule="evenodd" d="M31.9616 26.3658C28.5573 24.4071 5.75354 29.1707 4.28654 28.7418C2.90808 28.0303 4.68148 12.6137 5.88841 10.2231C6.31585 9.37699 6.82698 9.15594 8.01593 9.42823C9.2692 9.71516 22.3725 7.84427 34.0905 6.23542C34.0905 6.23542 72.7601 2.87425 78.7076 2.46289C80.7383 2.32089 79.1385 3.30757 81.5275 2.86986C86.6173 1.93734 97.7259 2.42337 101.578 1.54501C104.667 0.839402 105.331 0.802803 108.3 1.3181C110.879 1.7646 127.425 1.24784 129.289 0.154286C129.742 -0.112148 130.083 -0.0184567 130.083 0.319709C130.083 0.319709 138.199 0.731071 140.985 1.05313C141.3 1.08973 141.483 1.13365 141.489 1.16586C141.575 1.50695 141.916 1.66652 142.24 1.45278C142.83 1.06338 154.929 0.278719 155.119 1.27126C155.668 4.12444 153.903 15.9851 152.496 18.8793C151.031 21.8921 143.311 18.143 136.882 19.8631C103.578 19.4005 107.537 19.7694 101.179 21.0166C100.455 20.008 97.6941 22.5464 96.0016 20.8234C95.2934 20.1017 90.2858 20.1324 89.1799 20.8995C88.3707 21.4602 62.8231 20.8981 59.9908 23.2345C54.7612 21.6783 34.5429 25.9296 31.9616 26.3658Z" fill="#F1F1F1"/>
</g>
<g style="mix-blend-mode:multiply">
<path fill-rule="evenodd" clip-rule="evenodd" d="M37.0149 40.5385C33.6884 38.354 9.33248 40.7883 7.55789 40.1345C6.11457 39.2547 8.42236 23.7075 9.76402 21.4138C10.2371 20.5924 10.7827 20.4652 12.0352 20.8407C14.0172 21.5514 39.6858 20.1555 39.6858 20.1555C40.0261 20.6387 41.0406 19.0124 41.2301 19.6004C41.8214 20.9679 83.4149 19.1066 86.9613 19.0258C89.1128 18.9764 87.4102 19.9161 89.9427 19.536C95.3391 18.7894 107.096 19.5061 111.18 18.6488C114.452 17.9396 115.156 17.9246 118.297 18.4887C121.506 18.9944 138.567 18.2598 140.518 17.175C140.994 16.8758 141.358 16.982 141.359 17.3291C141.36 17.4009 153.384 17.6523 153.438 17.9231C153.531 18.2672 153.896 18.4333 154.236 18.1924C154.862 17.8348 167.666 16.5241 167.87 17.5371C168.498 20.4128 166.738 32.6504 165.252 35.6324C163.733 38.8133 155.376 35.2418 148.658 37.1645L117.388 37.3545L110.684 38.547C109.92 37.5116 106.962 40.1165 105.18 38.2657C104.426 37.5326 99.104 37.4218 97.9249 38.2014C96.9027 38.8028 69.6594 37.2887 66.8648 39.3684C61.891 37.6268 41.6976 40.115 37.0149 40.5385Z" fill="#F1F1F1"/>
</g>
<g style="mix-blend-mode:multiply">
<path fill-rule="evenodd" clip-rule="evenodd" d="M34.4791 52.262C31.1958 49.9424 6.91595 50.8688 5.15777 50.1286C3.73296 49.1876 6.23191 34.22 7.59792 32.0691C8.08001 31.3012 8.62434 31.2081 9.86655 31.6473C11.8302 32.4544 37.4034 32.6159 37.4034 32.6159C37.7354 33.106 38.7666 31.5848 38.9471 32.1694C39.5184 33.5306 80.9513 34.1807 84.4829 34.3116C86.6256 34.393 84.9179 35.2045 87.4452 34.9849C92.827 34.5792 104.522 35.9695 108.599 35.379C111.865 34.8817 112.567 34.9078 115.687 35.6423C118.875 36.3229 135.869 36.6181 137.825 35.6801C138.303 35.4169 138.664 35.5419 138.661 35.8793C138.661 35.9491 150.628 36.9031 150.679 37.1693C150.767 37.5096 151.128 37.6914 151.47 37.4805C152.098 37.1693 164.861 36.653 165.052 37.6478C165.639 40.4793 163.728 52.2664 162.21 55.0761C160.655 58.0749 152.383 54.1119 145.669 55.5836L114.536 53.9199L107.848 54.682C107.099 53.6291 104.12 55.9865 102.37 54.0843C101.629 53.3251 96.3323 52.9034 95.1482 53.5913C94.1225 54.1148 67.0207 51.0346 64.2112 52.8888C59.2818 50.9023 39.1456 52.1268 34.4791 52.262Z" fill="#F1F1F1"/>
</g>
<g style="mix-blend-mode:multiply">
<path fill-rule="evenodd" clip-rule="evenodd" d="M29.2572 66.9242C25.7077 64.8061 1.99167 68.4452 0.48587 67.9536C-0.937659 67.1873 1.09497 52.0472 2.37815 49.7412C2.83307 48.9257 3.3668 48.732 4.59813 49.0559C5.82462 49.3783 17.8987 48.3041 31.7219 47.1547C31.7219 47.1547 67.3931 45.907 78.1169 45.7696C80.2284 45.7436 78.5532 46.6284 81.0407 46.3291C86.3394 45.6915 97.8721 46.8033 101.885 46.1629C105.102 45.6482 105.794 45.6467 108.87 46.332C111.484 46.9132 128.733 47.4135 130.687 46.4506C131.162 46.2164 131.515 46.3277 131.511 46.6631C131.827 46.7224 133.032 46.8525 133.352 46.8886C133.478 46.9016 143.301 47.9657 143.346 48.2115C143.43 48.5513 143.782 48.7334 144.122 48.5412C144.74 48.1913 157.317 48.1942 157.501 49.1874C158.032 52.0385 156.036 63.6322 154.535 66.4008C152.973 69.2779 145.019 65.0837 138.306 66.3777C138.306 66.3777 136.399 66.2375 133.536 66.0293C104.839 63.9329 106.986 64.611 101.211 65.3628C100.474 64.3247 97.5721 66.6683 95.8381 64.8726C95.1115 64.1208 89.9103 63.862 88.7516 64.5575C87.9254 65.0548 61.2973 63.0958 58.4074 65.2673C52.902 63.4269 31.4661 66.6784 29.2572 66.9242Z" fill="#F1F1F1"/>
</g>
</svg>
