<svg width="515" height="60" viewBox="0 0 515 60" fill="none" xmlns="http://www.w3.org/2000/svg">
<g fill="#F1FF54" fill-rule="evenodd">
<path fill-rule="evenodd" clip-rule="evenodd" d="M76.1171 38.7605C63.7407 35.901 -19.1623 42.8554 -24.4956 42.2292C-29.507 41.1905 -23.0598 18.684 -18.672 15.194C-17.118 13.9587 -15.2598 13.636 -10.9374 14.0335C-6.38112 14.4524 41.2561 11.7211 83.8567 9.37233C83.8567 9.37233 224.44 4.46539 246.062 3.86484C253.445 3.65754 247.629 5.09799 256.314 4.45898C274.818 3.0976 315.203 3.80714 329.207 2.52484C340.436 1.49472 342.853 1.44129 353.645 2.19358C363.021 2.84541 423.176 2.09099 429.95 0.494528C431.597 0.105564 432.839 0.242342 432.839 0.736028C432.839 0.736028 462.342 1.33657 472.47 1.80675C473.617 1.86018 474.281 1.92429 474.303 1.97131C474.615 2.46927 475.857 2.70222 477.034 2.3902C479.179 1.82171 523.165 0.676188 523.856 2.12519C525.85 6.29053 519.436 23.6059 514.321 27.8311C508.993 32.2294 480.929 26.7561 457.557 29.2672C336.478 28.5919 350.871 29.1305 327.756 30.9513C325.125 29.4788 315.088 33.1847 308.935 30.6692C306.36 29.6156 288.155 29.6605 284.134 30.7804C281.192 31.5989 188.314 30.7782 178.017 34.1891C159.005 31.9173 85.5012 38.1237 76.1171 38.7605Z" style="mix-blend-mode:multiply"/>
<path fill-rule="evenodd" clip-rule="evenodd" d="M94.4822 52.2692C82.3888 49.4671 -6.1573 52.5897 -12.6088 51.751C-17.856 50.6225 -9.46603 30.6796 -4.58843 27.7374C-2.86869 26.6837 -0.88497 26.5206 3.6683 27.0023C10.8741 27.914 104.192 26.1233 104.192 26.1233C105.429 26.7432 109.118 24.657 109.806 25.4113C111.956 27.1655 263.169 24.7779 276.062 24.6743C283.884 24.6109 277.694 25.8162 286.901 25.3287C306.52 24.371 349.261 25.2904 364.108 24.1906C376.003 23.2809 378.565 23.2617 389.984 23.9853C401.65 24.634 463.674 23.6916 470.767 22.3002C472.496 21.9163 473.821 22.0526 473.826 22.4978C473.829 22.59 517.541 22.9124 517.74 23.2598C518.077 23.7012 519.402 23.9143 520.639 23.6053C522.917 23.1466 569.463 21.4653 570.207 22.7646C572.49 26.4534 566.091 42.151 560.688 45.976C555.164 50.0563 524.782 45.4751 500.359 47.9413L386.678 48.1851L362.308 49.7147C359.527 48.3866 348.774 51.728 342.297 49.3539C339.554 48.4135 320.207 48.2714 315.92 49.2714C312.204 50.0429 213.161 48.1006 203.001 50.7684C184.919 48.5344 111.506 51.7261 94.4822 52.2692Z" style="mix-blend-mode:multiply"/>
</g>
</svg>
