<svg width="288" height="23" viewBox="0 0 288 23" fill="none" xmlns="http://www.w3.org/2000/svg">
<g style="mix-blend-mode:multiply">
<path fill-rule="evenodd" clip-rule="evenodd" d="M0.927395 22.0203C-1.67369 21.347 1.92411 7.80492 4.24793 5.73583C5.07092 5.00348 6.04286 4.82537 8.2916 5.10491C10.662 5.3995 35.5203 4.18236 57.7493 3.15058C57.7493 3.15058 131.076 1.46432 142.352 1.29812C146.202 1.24001 143.156 2.05757 147.689 1.75043C157.348 1.09609 178.39 1.89229 185.703 1.24479C191.567 0.724458 192.827 0.714156 198.444 1.26695C203.324 1.74616 234.686 1.83755 238.234 0.934426C239.096 0.714357 239.742 0.808314 239.737 1.10665C239.737 1.10665 255.108 1.73797 260.382 2.11425C260.979 2.15697 261.325 2.20175 261.336 2.23037C261.493 2.53413 262.138 2.6862 262.755 2.50835C263.879 2.18433 286.817 1.89227 287.162 2.77419C288.158 5.30947 284.632 15.7148 281.921 18.2216C279.098 20.831 264.528 17.2682 252.319 18.573C189.218 17.0634 196.714 17.5198 184.647 18.4098C183.291 17.496 178.02 19.6442 174.84 18.0681C173.509 17.408 164.02 17.2695 161.912 17.9096C160.37 18.3775 111.969 17.0366 106.566 19.0041C96.6803 17.4583 58.3032 20.5401 53.4053 20.8396C46.9847 18.9989 3.70059 22.4472 0.927395 22.0203Z" fill="#EFFF54"/>
</g>
</svg>
