<?xml version="1.0" encoding="UTF-8"?>
<svg width="203px" height="41px" viewBox="0 0 203 41" version="1.1" xmlns="http://www.w3.org/2000/svg" xmlns:xlink="http://www.w3.org/1999/xlink">
    <title>Group 4</title>
    <g id="Page-1" stroke="none" stroke-width="1" fill="none" fill-rule="evenodd">
        <g id="Desktop-HD" transform="translate(-1122.000000, -282.000000)">
            <g id="Group-4" transform="translate(1122.000000, 282.000000)">
                <g id="Group-3" fill-rule="nonzero">
                    <path d="M137.333908,0.454027697 C140.405863,0.921442361 160.458904,1.15514969 162.677539,0.337174031 C163.189531,0.1034667 163.616192,0.220320365 163.616192,0.454027697 C163.786856,0.454027697 177.354659,1.38885702 177.354659,1.50571069 C177.439991,1.73941802 177.866651,1.97312535 178.293312,1.73941802 C178.975968,1.50571069 193.653088,1.27200336 193.823752,2.08997902 C194.272128,3.8442791 193.085742,9.54912122 191.744353,13.2242139 C196.808685,13.6241847 202.795272,14.5402839 202.954286,15.4112969 C203.210282,16.5798336 202.356962,19.3843216 201.247644,22.1888095 C198.261021,29.6674442 197.151704,29.3168832 195.018402,28.9663222 C192.202443,28.6157612 190.239805,28.2652002 190.239805,28.2652002 C188.458664,27.9665358 186.95237,27.7791935 185.651664,27.6693011 C185.160709,31.1748804 184.143197,35.3032283 183.157241,36.7955178 C181.535931,39.2494448 172.149401,36.7955178 164.810841,38.4314691 C120.950146,39.2494448 135.712598,38.1977618 122.827452,39.7168594 C121.974131,38.8988838 118.731512,40.8853961 116.768874,39.4831521 C115.915553,38.8988838 110.11297,38.7820301 108.747657,39.3662984 C108.150332,39.6000058 100.385112,39.2494448 92.3638953,39.0157374 C84.3426786,38.7820301 76.0654657,38.5483228 74.444156,39.2494448 C69.9215551,37.8472008 51.9164838,38.3146154 41.5913007,38.4314691 C38.178017,36.5618104 11.4690723,36.5618104 9.07977371,35.7438348 C8.38909655,35.3760188 8.63014182,32.7635647 9.24429079,29.8507757 C4.674776,30.3875423 1.25711222,30.7930587 0.717228721,30.7191272 C-1.1600773,30.2517125 1.05855709,17.8652239 2.67986683,15.8787116 C3.27719147,15.1775896 3.95984821,14.9438823 5.49582586,15.1775896 C6.07602764,15.2194068 7.88015931,15.0666828 10.9707916,14.7622596 C11.2826301,10.8185039 12.5906058,5.07435289 13.6023746,3.84278401 C14.1143671,3.14166201 14.7116918,3.02480835 16.1623373,3.25851568 C17.8689792,3.60907668 40.8233118,1.97312535 47.6498792,1.62256436 C47.6498792,1.62256436 93.8145408,0.337174031 101.579761,0.220320365 C104.054392,0.220320365 102.091754,0.921442361 104.993045,0.687735029 C111.136955,0.1034667 124.534094,0.921442361 129.227359,0.337174031 C132.981971,-0.130240632 133.74996,-0.130240632 137.333908,0.454027697 Z" id="Combined-Shape" fill="#FFFFFF"></path>
                    <g id="Group-2" fill="#f7ffa8" opacity="0.7">
                        <path d="M44.8992625,17.6751513 C40.8051448,16.0351513 13.2551448,19.0808656 11.4639684,18.6122942 C9.84338013,18.0265799 12.0610272,5.7265799 13.5963213,3.85229419 C14.108086,3.14943705 14.7051448,3.03229419 16.1551448,3.2665799 C17.8610272,3.61800847 40.8051448,1.97800847 47.6286742,1.6265799 C47.6286742,1.6265799 93.7727919,0.338008475 101.534557,0.220865618 C104.008086,0.220865618 102.046321,0.923722761 104.946321,0.689437046 C111.087498,0.103722761 124.478674,0.923722761 129.169851,0.338008475 C132.922792,-0.130562954 133.690439,-0.130562954 137.272792,0.455151332 C140.34338,0.923722761 160.387498,1.15800847 162.605145,0.338008475 C163.11691,0.103722761 163.54338,0.220865618 163.54338,0.455151332 C163.713968,0.455151332 177.275733,1.39229419 177.275733,1.50943705 C177.361027,1.74372276 177.787498,1.97800847 178.213968,1.74372276 C178.896321,1.50943705 193.56691,1.27515133 193.737498,2.09515133 C194.334557,4.43800847 192.031615,13.809437 190.325733,16.0351513 C189.387498,17.2065799 186.658086,16.9722942 183.075733,16.6208656 C171.987498,15.3322942 177.105145,16.5037228 165.931615,16.0351513 C131.813968,14.7465799 137.613968,14.9808656 128.402204,15.9180085 C127.549262,15.0980085 124.222792,16.9722942 122.175733,15.5665799 C121.322792,14.9808656 115.26691,14.8637228 113.902204,15.3322942 C112.963968,15.8008656 82.0874978,14.3951513 78.6757331,16.1522942 C72.4492625,14.7465799 47.8845566,17.4408656 44.8992625,17.6751513 Z" id="Path-Copy-6"></path>
                        <path d="M37.5639684,28.1008656 C32.8727919,26.4608656 2.4227919,31.029437 0.716909543,30.7951513 C-1.15956105,30.3265799 1.05808601,17.909437 2.67867425,15.9180085 C3.27573307,15.2151513 3.95808601,14.9808656 5.49338013,15.2151513 C7.11396837,15.3322942 18.2874978,13.9265799 40.3786742,11.9351513 C40.3786742,11.9351513 72.3639684,9.8265799 100.340439,11.2322942 C103.069851,11.349437 100.852204,11.9351513 104.09338,11.9351513 C112.281615,11.8180085 125.587498,14.0437228 130.875733,13.809437 C139.149262,13.3408656 136.590439,14.5122942 145.290439,14.629437 C152.113968,14.7465799 165.419851,13.4580085 167.296321,12.6380085 C167.89338,12.4037228 168.319851,12.4037228 168.405145,12.7551513 C168.746321,12.7551513 183.758086,12.5208656 183.928674,12.989437 C184.013968,13.2237228 184.525733,13.4580085 184.952204,13.2237228 C187.255145,12.5208656 202.608086,14.0437228 202.863968,15.449437 C203.119851,16.6208656 202.26691,19.4322942 201.158086,22.2437228 C198.172792,29.7408656 197.063968,29.389437 194.931615,29.0380085 C192.11691,28.6865799 190.155145,28.3351513 190.155145,28.3351513 C181.796321,26.929437 179.49338,27.9837228 176.081615,27.9837228 C175.058086,27.9837228 173.522792,28.1008656 171.731615,28.1008656 C124.563968,29.9751513 155.013968,28.569437 129.596321,29.2722942 C128.658086,28.3351513 124.819851,29.9751513 122.602204,28.3351513 C121.663968,27.6322942 115.011027,26.929437 113.475733,27.3980085 C112.622792,27.6322942 79.358086,24.1180085 74.7522037,26.2265799 C67.5022037,24.5865799 44.8992625,27.2808656 37.5639684,28.1008656 Z" id="Path-Copy-7"></path>
                        <path d="M41.4449035,38.7119867 C38.0331388,36.837701 11.3360799,36.837701 8.94784464,36.017701 C7.41255052,35.197701 10.4831388,23.2491296 12.0184329,21.6091296 C12.5301976,21.0234153 13.2125505,20.9062724 14.4919623,21.3748438 C16.9654917,22.1948438 42.2125505,22.897701 44.8566682,23.0148438 C45.1978446,23.3662724 46.3919623,22.1948438 46.5625505,22.6634153 C47.2449035,23.9519867 86.4801976,24.3034153 87.3331388,24.3034153 C92.1949035,24.3034153 95.7772564,24.3034153 96.7154917,24.3034153 C99.103727,24.3034153 97.2272564,25.0062724 99.9566682,24.7719867 C105.927256,24.3034153 118.806668,25.1234153 123.327256,24.4205581 C126.909609,23.8348438 127.677256,23.9519867 131.174315,24.3034153 C135.183139,24.7719867 153.43608,24.0691296 155.568433,23.1319867 C156.080198,22.897701 156.506668,23.0148438 156.506668,23.2491296 C156.591962,23.2491296 169.727256,23.3662724 169.812551,23.4834153 C169.897845,23.717701 170.324315,23.8348438 170.665492,23.717701 C171.347845,23.4834153 185.421374,22.077701 185.591962,22.7805581 C186.274315,25.0062724 184.568433,34.6119867 182.947845,37.0719867 C181.327256,39.5319867 171.944903,37.0719867 164.609609,38.7119867 C120.768433,39.5319867 135.524315,38.477701 122.644903,40.0005581 C121.791962,39.1805581 118.550786,41.1719867 116.589021,39.7662724 C115.73608,39.1805581 109.93608,39.0634153 108.571374,39.6491296 C107.974315,39.8834153 100.212551,39.5319867 92.1949035,39.297701 C84.1772564,39.0634153 75.903727,38.8291296 74.2831388,39.5319867 C69.7625505,38.1262724 51.7654917,38.5948438 41.4449035,38.7119867 Z" id="Path-Copy-8"></path>
                    </g>
                </g>
                <g id="Group" transform="translate(43.000000, 8.000000)" fill="#000000" fill-opacity="0.5">
                    <g id="party" transform="translate(97.000000, 0.000000)" fill-rule="nonzero">
                        <path d="M16.195809,8.75633528 C16.2909844,8.85151072 16.415692,8.89907407 16.5403996,8.89907407 C16.6651072,8.89907407 16.7898635,8.85151072 16.8849903,8.75633528 L18.6617446,6.9795809 C18.8520468,6.78927875 18.8520468,6.48070175 18.6617446,6.29035088 C18.4714425,6.10004873 18.1628655,6.10004873 17.9725146,6.29035088 L16.1957602,8.06710526 C16.0055068,8.25745614 16.0055068,8.56603314 16.195809,8.75633528 Z" id="XMLID_18_"></path>
                        <path d="M14.4458577,14.8253899 C13.9896199,14.1452729 13.4438109,13.4653996 12.8277778,12.8136452 L14.881384,10.760039 C15.0716862,10.5697368 15.0716862,10.2611598 14.881384,10.070809 C14.6910819,9.88050682 14.3825049,9.88050682 14.192154,10.070809 L12.1385478,12.1244152 C11.4867934,11.5083821 10.8068713,10.9625244 10.1268031,10.5063353 C10.4647661,8.65136452 9.91851852,6.66549708 8.48732943,5.23430799 C8.29702729,5.04400585 7.98845029,5.04400585 7.79809942,5.23430799 C7.60779727,5.42461014 7.60779727,5.73318713 7.79809942,5.92353801 C8.89780702,7.02324561 9.37241715,8.51471735 9.22251462,9.95282651 C8.86169591,9.7535575 8.50448343,9.58235867 8.15506823,9.44239766 C6.61169591,8.82412281 5.36564327,8.87967836 4.64639376,9.59892788 C4.43294347,9.81237817 4.2794347,10.0716862 4.18367446,10.3692982 C4.18269981,10.3673489 4.18211501,10.3661793 4.18211501,10.3661793 L0.0588693957,23.3456628 C-0.0811403509,23.7863548 0.0350389864,24.2632554 0.361988304,24.5902047 C0.597319688,24.8255361 0.910331384,24.9516569 1.23162768,24.9516569 C1.35672515,24.9516569 1.48304094,24.9325049 1.60653021,24.8933236 L14.5860624,20.770078 L14.5852339,20.7673977 C14.8818226,20.6715887 15.1404971,20.5185673 15.3533626,20.3057505 C16.0725634,19.5865497 16.1281189,18.3404971 15.5098441,16.797076 C15.369883,16.4477096 15.1986842,16.0904483 14.9994152,15.7296784 C16.4375244,15.5798246 17.9289961,16.054386 19.0287037,17.1540936 C19.1238791,17.249269 19.2485867,17.2968324 19.3732943,17.2968324 C19.4980019,17.2968324 19.6227583,17.249269 19.717885,17.1540936 C19.9081871,16.9637914 19.9081871,16.6552144 19.717885,16.4648635 C18.2866472,15.0336745 16.3007797,14.4874756 14.4458577,14.8253899 Z M14.6641326,19.6165205 C14.3367934,19.9438109 13.7046784,20.0037524 12.8841131,19.7851365 C11.9676901,19.5410331 10.8727583,18.9602339 9.80107212,18.1498051 C9.58640351,17.9874269 9.28075049,18.0298733 9.11842105,18.2445419 C8.95604288,18.4592105 8.99853801,18.7648635 9.21315789,18.927193 C10.2122807,19.6827485 11.1830897,20.2276316 12.0640838,20.5484893 L1.31145224,23.9643762 C1.17660819,24.0072612 1.08450292,23.934308 1.05116959,23.9009747 C1.01783626,23.8676413 0.944931774,23.7755848 0.987768031,23.6407407 L4.40389864,12.8871345 C4.7247076,13.7684698 5.26905458,14.739425 6.02490253,15.7389376 C6.18723197,15.9536062 6.49288499,15.9960039 6.70755361,15.8336745 C6.92222222,15.671345 6.96461988,15.365692 6.80229045,15.1510234 C5.9918616,14.0793372 5.41111111,12.9844055 5.16695906,12.0679825 C4.94839181,11.2474659 5.0082846,10.6153021 5.33557505,10.2880117 C5.89434698,9.72923977 7.3210039,9.95453216 9.01310916,10.9534113 C8.78011696,11.6819688 8.37519493,12.3670565 7.79809942,12.944152 C7.60779727,13.1344542 7.60779727,13.4430312 7.79809942,13.6333821 C7.89327485,13.7285575 8.01798246,13.7761209 8.14269006,13.7761209 C8.26739766,13.7761209 8.392154,13.7285575 8.4872807,13.6333821 C9.11154971,13.0090643 9.56725146,12.2791423 9.85492203,11.5006823 C10.3768519,11.8707602 10.9134503,12.3086257 11.4491715,12.8137914 L9.56159844,14.7013645 C9.3712963,14.8916667 9.3712963,15.2002437 9.56159844,15.3905945 C9.65677388,15.48577 9.78148148,15.5333333 9.90618908,15.5333333 C10.0308967,15.5333333 10.155653,15.48577 10.2507797,15.3905945 L12.1383041,13.5030702 C12.6435185,14.0387914 13.081384,14.5753899 13.4514133,15.0973197 C12.6729532,15.3849903 11.9429825,15.8406433 11.3187135,16.464961 C11.1284113,16.6552632 11.1284113,16.9638402 11.3187135,17.154191 C11.5090156,17.3444932 11.8175926,17.3444932 12.0079435,17.154191 C12.585039,16.5770955 13.270078,16.1721248 13.9986842,15.9391813 C14.9975634,17.6311404 15.2229045,19.0577973 14.6641326,19.6165205 Z" id="XMLID_41_"></path>
                        <path d="M24.854386,13.1309942 L23.932115,11.8951267 L24.4273392,10.4347466 C24.4869396,10.2591131 24.4415692,10.0648148 24.3104288,9.93362573 C24.1792885,9.80248538 23.985039,9.75721248 23.809308,9.8167154 L22.3489279,10.3119396 L21.1130604,9.38966862 C20.9643762,9.27875244 20.7656433,9.26184211 20.6003411,9.3460039 C20.435039,9.43021442 20.3319201,9.60097466 20.334308,9.78645224 L20.3539961,11.3284113 L19.0949805,12.2188109 C18.9435185,12.3259259 18.8660331,12.5096979 18.8950292,12.6929337 C18.9240741,12.8761209 19.0545322,13.0269981 19.2317251,13.0820663 L20.7042885,13.5398148 L21.162037,15.0123782 C21.2171053,15.1895224 21.3679825,15.3200292 21.5511696,15.3490741 C21.5766569,15.3531189 21.602193,15.355117 21.6274854,15.355117 C21.7840643,15.355117 21.9330897,15.2795322 22.0252924,15.1491228 L22.915692,13.8901072 L24.4576511,13.9097953 C24.6418129,13.9114035 24.8138889,13.8090156 24.8980994,13.6437622 C24.9822125,13.4784113 24.9653021,13.2796296 24.854386,13.1309942 L24.854386,13.1309942 Z M22.6719298,12.9121832 C22.5106725,12.9103801 22.3603801,12.9871345 22.2678363,13.1180799 L21.7996589,13.7800682 L21.5589669,13.0057992 C21.5113548,12.8526316 21.391423,12.7326998 21.2382554,12.6850877 L20.4639864,12.4443957 L21.1259747,11.9762183 C21.2569688,11.8836257 21.3339181,11.7325049 21.3318713,11.5721248 L21.32154,10.7613548 L21.971345,11.2462963 C22.0999025,11.342154 22.2674464,11.3687135 22.4192982,11.3172515 L23.1871832,11.0568713 L22.9268031,11.8247563 C22.8752924,11.9766569 22.9018031,12.144152 22.9977583,12.2727096 L23.4826998,12.9225146 L22.6719298,12.9121832 Z" id="XMLID_44_"></path>
                        <path d="M3.40657895,3.48576998 L4.69546784,3.88640351 L5.09610136,5.1752924 C5.15116959,5.35243665 5.30204678,5.48294347 5.48523392,5.5119883 C5.51072125,5.51603314 5.53625731,5.51803119 5.56154971,5.51803119 C5.71812865,5.51803119 5.867154,5.44244639 5.95935673,5.31203704 L6.73869396,4.21003899 L8.08830409,4.22729045 C8.27261209,4.22875244 8.44454191,4.12651072 8.52875244,3.96125731 C8.61296296,3.79595517 8.59605263,3.59722222 8.48508772,3.44853801 L7.67787524,2.36681287 L8.11135478,1.08859649 C8.17095517,0.912962963 8.1255848,0.718664717 7.99444444,0.587524366 C7.86330409,0.456384016 7.66910331,0.411013645 7.49332359,0.470614035 L6.21510721,0.904093567 L5.13338207,0.0967836257 C4.98469786,-0.0141325536 4.78596491,-0.0310916179 4.62066277,0.0531189084 C4.45536062,0.137329435 4.35224172,0.308089669 4.35462963,0.493567251 L4.37188109,1.84317739 L3.26983431,2.62251462 C3.11837232,2.72962963 3.04088694,2.91340156 3.06988304,3.09663743 C3.09892788,3.27982456 3.2294347,3.43070175 3.40657895,3.48576998 Z M5.14381092,2.49098441 C5.27480507,2.39839181 5.35180312,2.24727096 5.3497076,2.08689084 L5.34181287,1.46846979 L5.83747563,1.83835283 C5.96603314,1.93425926 6.13352827,1.96086745 6.28542885,1.90930799 L6.87119883,1.71067251 L6.67256335,2.29639376 C6.62105263,2.44829435 6.64756335,2.61578947 6.74351852,2.74434698 L7.11345029,3.24000975 L6.49502924,3.23211501 C6.33445419,3.23075049 6.18352827,3.30706628 6.09093567,3.4380117 L5.73382066,3.94298246 L5.55024366,3.35238791 C5.50263158,3.19922027 5.38269981,3.0792885 5.22953216,3.03167641 L4.63888889,2.84809942 L5.14381092,2.49098441 Z" id="XMLID_47_"></path>
                        <path d="M21.587963,4.72495127 C22.6206628,4.72495127 23.4608187,3.88479532 23.4608187,2.85209552 C23.4608187,1.81939571 22.6206628,0.979239766 21.587963,0.979239766 C20.5552632,0.979239766 19.7151072,1.81939571 19.7151072,2.85209552 C19.7151072,3.88479532 20.5552632,4.72495127 21.587963,4.72495127 Z M21.587963,1.95389864 C22.0832359,1.95389864 22.4861598,2.35682261 22.4861598,2.85209552 C22.4861598,3.34736842 22.0832359,3.7502924 21.587963,3.7502924 C21.0926901,3.7502924 20.6897661,3.34736842 20.6897661,2.85209552 C20.6897661,2.35682261 21.0927388,1.95389864 21.587963,1.95389864 Z" id="XMLID_1698_"></path>
                        <path d="M21.597807,19.0336745 C21.6884503,18.9430312 21.7401072,18.8173002 21.7401072,18.6891326 C21.7401072,18.5609649 21.6884503,18.4352339 21.597807,18.3445906 C21.5071637,18.2539474 21.3814327,18.2018031 21.2527778,18.2018031 C21.1246101,18.2018031 20.9988791,18.2539474 20.9082359,18.3445906 C20.8175926,18.4352339 20.7654483,18.5609649 20.7654483,18.6891326 C20.7654483,18.8173002 20.8175926,18.9430312 20.9082359,19.0336745 C20.9993665,19.1243177 21.1246101,19.176462 21.2527778,19.176462 C21.3814327,19.1764133 21.5066764,19.124269 21.597807,19.0336745 Z" id="XMLID_1699_"></path>
                        <path d="M23.911501,20.504386 L23.241423,20.504386 L23.241423,19.834308 C23.241423,19.5651559 23.0232456,19.3469786 22.7540936,19.3469786 C22.4849415,19.3469786 22.2667641,19.5651559 22.2667641,19.834308 L22.2667641,20.504386 L21.5966862,20.504386 C21.3275341,20.504386 21.1093567,20.7225634 21.1093567,20.9917154 C21.1093567,21.2608674 21.3275341,21.4790448 21.5966862,21.4790448 L22.2667641,21.4790448 L22.2667641,22.1491228 C22.2667641,22.4182749 22.4849415,22.6364522 22.7540936,22.6364522 C23.0232456,22.6364522 23.241423,22.4182749 23.241423,22.1491228 L23.241423,21.4790448 L23.911501,21.4790448 C24.180653,21.4790448 24.3988304,21.2608674 24.3988304,20.9917154 C24.3988304,20.7225634 24.180653,20.504386 23.911501,20.504386 Z" id="XMLID_1804_"></path>
                        <path d="M13.536306,4.90882066 L14.206384,4.90882066 L14.206384,5.57889864 C14.206384,5.84805068 14.4245614,6.06622807 14.6937135,6.06622807 C14.9628655,6.06622807 15.1810429,5.84805068 15.1810429,5.57889864 L15.1810429,4.90882066 L15.8511209,4.90882066 C16.1202729,4.90882066 16.3384503,4.69064327 16.3384503,4.42149123 C16.3384503,4.15233918 16.1202729,3.93416179 15.8511209,3.93416179 L15.1810429,3.93416179 L15.1810429,3.26408382 C15.1810429,2.99493177 14.9628655,2.77675439 14.6937135,2.77675439 C14.4245614,2.77675439 14.206384,2.99493177 14.206384,3.26408382 L14.206384,3.93416179 L13.536306,3.93416179 C13.267154,3.93416179 13.0489766,4.15233918 13.0489766,4.42149123 C13.0489766,4.69064327 13.267154,4.90882066 13.536306,4.90882066 Z" id="XMLID_1805_"></path>
                        <path d="M7.85609162,16.6086745 C7.72792398,16.6086745 7.60219298,16.6608187 7.51154971,16.751462 C7.42090643,16.8421053 7.36876218,16.9678363 7.36876218,17.0960039 C7.36876218,17.2241715 7.42090643,17.3499025 7.51154971,17.4405458 C7.60219298,17.5311891 7.72792398,17.5833333 7.85609162,17.5833333 C7.98425926,17.5833333 8.10999025,17.5311891 8.20063353,17.4405458 C8.2912768,17.3499025 8.34342105,17.2241715 8.34342105,17.0960039 C8.34342105,16.9678363 8.2912768,16.8421053 8.20063353,16.751462 C8.10999025,16.6608187 7.98425926,16.6086745 7.85609162,16.6086745 Z" id="XMLID_1807_"></path>
                    </g>
                </g>
            </g>
        </g>
    </g>
</svg>
