<svg width="173" height="80" xmlns="http://www.w3.org/2000/svg" xmlns:xlink="http://www.w3.org/1999/xlink"><defs><rect id="a" x="0" y="0" width="173" height="80" rx="8"/></defs><g fill="none" fill-rule="evenodd"><mask id="b" fill="#fff"><use xlink:href="#a"/></mask><path d="M-99.907 39.122c-7.132-1.937-44.06 4.254-46.423 4.074-2.619-.498-4.965-14.158-3.486-16.537.499-.804 1.368-1.028 3.608-.958.9.076 4.228-.344 8.737-.83 10.071-1.09 18.047-2.135 37.748-3.932.666.387 2.068-1.152 2.505-.655.158.142 1.392.16 3.438.112 7.283-.177 14.951-.649 20.004-.846 17.286-.674 36.663-1.537 54.053-1.55 3.646-.003.747.78 5.04.526 10.854-.644 29.967.743 35.96.338 5.6-.377 6.815-.359 12.033.48 5.354.683 34.137 2.115 37.663 1.668.87-.185 1.455-.033 1.377.27.589.093 20.032 2.305 20.046 2.653.052.317.61.53 1.248.389 1.158-.32 22.875 1.454 22.851 2.37-.068 2.615-7.49 12.758-10.813 15.032-1.768 1.206-5.544.596-10.327-.273-4.776-.869-10.641-1.851-16.187-1.64-3.145-.353-18.662-1.809-24.836-2.25-27.436-1.96-24.565-1.727-35.964-1.145-1.134-.972-6.064 1.084-8.824-.655-1.125-.71-9.75-1.048-11.69-.42-.423.136-3.474.005-7.898-.078-2.365-.045-37.788-1.087-42.197.852-8.838-1.627-38.821 1.933-47.666 3.005" fill="#F1FF54" style="mix-blend-mode:multiply" mask="url(#b)"/><path d="M54.553 27.176c5.09 1.222 52.935-1.533 58.466-.566 2.837.804-2.79 14.62-5.048 16.41-1.658 1.315-1.703.04-13.605.197-13.026.172-27.64.899-41.667 2.055-.717-.385-2.33 1.143-2.783.65-.863-.733-24.278 1.138-25.823 1.263-21.702 1.742-38.027 3.684-59.343 6.187-3.994.469-1.105-.67-5.719.142-9.1 1.598-31.862 3.51-39.268 5.193-5.846 1.328-7.145 1.467-13.186 1.718-6.155.258-37.657 4.873-40.831 6.34-.785.363-1.492.367-1.624.071-.362.03-22.573 2.597-22.724 2.436-.304-.271-1.046-.324-1.59-.036-1.264.567-24.662 4.668-25.412 3.859-2.156-2.328-3.218-13.203-1.642-16.105 1.654-3.039 18.424-2.014 30.263-5.31 72.057-9.546 53.112-6.499 70.794-10.152 1.802.723 6.454-2.156 10.495-.982 1.666.486 11.78-.57 13.761-1.488.853-.394 14.34-1.677 28.229-3.023 3.511-.34 27.953-2.564 30.668-3.853 8.735.606 49.903-4.433 57.589-5.006" fill="#F1FF54" style="mix-blend-mode:multiply" mask="url(#b)"/><path d="M-122.077 65.653c-10.544-1.781-59.054 6.38-61.856 6.347-1.673-.166-2.991-3.61-3.595-7.31-1.596-9.815 1.024-9.87 5.365-9.962 0 0 37.42-4.602 61.273-6.78.862.358 2.778-1.186 3.33-.715.202.132 1.824.13 4.522-.002 25.282-1.254 72.401-3.91 97.77-4.03 4.814-.024 1.02.746 6.677.455 11.51-.595 25.424-.087 37.876-.044 16.828.058 13.22-1.047 25.467.213 4.598.474 45 1.783 49.65 1.2 1.108-.19 1.902-.046 1.848.249.585.063 26.617 2.015 26.706 2.336.134.309.908.51 1.709.364.726-.08 8.257.073 15.622.534 7.364.46 14.575 1.015 14.678 1.461.588 2.56-6.383 12.552-10.233 14.812-2.03 1.194-7.241.621-13.862-.158-19.604-2.305-11.778-.803-32.58-2.074-57.724-3.527-62.057-2.42-71.673-2.012-1.607-.935-8.103 1.087-11.916-.506-1.59-.664-13.164-.927-15.732-.3-2.35.437-59.327-.915-67.22 1.602-13.217-1.637-61.476 4.074-63.826 4.32" fill="#F1FF54" style="mix-blend-mode:multiply" mask="url(#b)"/></g></svg>