<svg width="176" height="123" viewBox="0 0 176 123" xmlns="http://www.w3.org/2000/svg">
    <g fill="none" fill-rule="evenodd">
        <g transform="translate(68.175 71.759)">
            <path d="M61.5 21.025c0 3.86-11.526 4.405-30.607 4.624-17.436.2-30.801-1.679-30.74-4.556.08-3.857 13.379-6.994 30.576-6.994 17.196 0 30.772 3.067 30.772 6.926z" fill-opacity=".46" fill="#482F00" fill-rule="nonzero"/>
            <path d="M.857 4.135c-.17 0-.308.352-.308.79v15.041c0 .438.137.79.308.79h.046c2.104 2.032 14.876 3.542 29.952 3.543 15.076 0 27.848-1.511 29.952-3.543h.017c.172 0 .31-.352.31-.79V4.925c0-.438-.138-.79-.31-.79H.857z" stroke="#EA9C00" stroke-width=".5" fill="#FFD31A" fill-rule="nonzero" stroke-linecap="square" stroke-linejoin="round"/>
            <path d="m1.17 5.689 4.202 1.267c.173 5.374.087 10.122 4.228 12.716 7.633 4.78 31.693 4.879 46.533 1.953l4.03-.769c-6.56 3.3-19.445 3.043-29.893 2.993-12.898-.063-24.447-.39-29.092-3.499L1.17 5.69z" fill="#EA9C00" fill-rule="nonzero"/>
            <ellipse stroke="#EA9C00" stroke-width=".5" fill="#FFE98F" fill-rule="nonzero" cx="30.855" cy="4.395" rx="30.259" ry="4.118"/>
            <ellipse stroke="#EA9C00" stroke-width=".5" fill="#FFD31A" fill-rule="nonzero" cx="30.707" cy="4.189" rx="25.441" ry="1.654"/>
            <path stroke="#EA9C00" stroke-width=".648" d="m1.242 5.254-.044 15.77"/>
            <path stroke="#EA9C00" stroke-width=".5" d="M4.272 6.481 4.228 22.25M5.347 6.896l-.043 15.77M9.983 7.514l-.044 15.769M15.699 7.993l-.044 15.769M25.051 8.634l-.044 15.769M32.406 8.634l-.044 15.769"/>
            <path stroke="#EA9C00" stroke-width=".648" d="m60.438 5.518.044 15.769"/>
            <path stroke="#EA9C00" stroke-width=".5" d="m56.417 6.58.043 15.769M57.397 6.69l.044 15.769M52.834 7.362l-.044 15.769M55.06 6.917l-.043 15.77M49.909 7.705l-.044 15.769M46.347 7.808l-.044 15.769M42.669 7.808l-.044 15.769M37.397 8.597l-.043 15.77M34.96 8.689l-.044 15.769M33.738 8.52l-.043 15.769"/>
            <path stroke="#EA9C00" stroke-width=".648" d="m31.292 8.6-.044 15.769"/>
            <path stroke="#EA9C00" stroke-width=".5" d="m19.491 8.169-.044 15.769M12.508 7.93l-.044 15.769"/>
            <path stroke="#EA9C00" stroke-width=".648" d="m29.943 8.6-.044 15.769M28.717 8.6l-.044 15.769M2.039 5.703l-.044 15.769M3.177 6.238l-.044 15.769M25.999 8.474l-.044 15.769"/>
            <path stroke="#EA9C00" stroke-width=".5" d="m6.495 7.097-.043 15.769M7.963 7.202l-.044 15.77"/>
            <path stroke="#EA9C00" stroke-width=".648" d="m59.59 5.809.044 15.769M58.428 6.167l.044 15.769"/>
            <path fill="#FFE98F" fill-rule="nonzero" d="m37.845 9.149 3.437-.19.06 14.512-3.497-.037zM43.038 8.576l1.021.037V23.2l-1.021-.037zM46.818 8.425l.625.036v14.251l-.625-.036zM35.685 9.092l1.022.036v14.251l-1.022-.036zM44.58 8.608l.626.036v14.251l-.625-.036zM18.002 8.748l.855.036-.005 12.892-.851-.217zM22.197 9.176l1.667.036-.003 13.539-1.695-.344zM33.978 1.59 18.15 6.177l5.754.817 17.007-5.033z"/>
        </g>
        <g transform="translate(57.446 54.27)">
            <path d="M61.5 21.025c0 3.86-11.526 4.405-30.607 4.624-17.436.2-30.801-1.679-30.74-4.556.08-3.857 13.379-6.994 30.576-6.994 17.196 0 30.772 3.067 30.772 6.926z" fill-opacity=".46" fill="#482F00" fill-rule="nonzero"/>
            <path d="M.857 4.135c-.17 0-.308.352-.308.79v15.041c0 .438.137.79.308.79h.046c2.104 2.032 14.876 3.542 29.952 3.543 15.076 0 27.848-1.511 29.952-3.543h.017c.172 0 .31-.352.31-.79V4.925c0-.438-.138-.79-.31-.79H.857z" stroke="#EA9C00" stroke-width=".5" fill="#FFD31A" fill-rule="nonzero" stroke-linecap="square" stroke-linejoin="round"/>
            <path d="m1.17 5.689 4.202 1.267c.173 5.374.087 10.122 4.228 12.716 7.633 4.78 31.693 4.879 46.533 1.953l4.03-.769c-6.56 3.3-19.445 3.043-29.893 2.993-12.898-.063-24.447-.39-29.092-3.499L1.17 5.69z" fill="#EA9C00" fill-rule="nonzero"/>
            <ellipse stroke="#EA9C00" stroke-width=".5" fill="#FFE98F" fill-rule="nonzero" cx="30.855" cy="4.395" rx="30.259" ry="4.118"/>
            <ellipse stroke="#EA9C00" stroke-width=".5" fill="#FFD31A" fill-rule="nonzero" cx="30.707" cy="4.189" rx="25.441" ry="1.654"/>
            <path stroke="#EA9C00" stroke-width=".648" d="m1.242 5.254-.044 15.77"/>
            <path stroke="#EA9C00" stroke-width=".5" d="M4.272 6.481 4.228 22.25M5.347 6.896l-.043 15.77M9.983 7.514l-.044 15.769M15.699 7.993l-.044 15.769M25.051 8.634l-.044 15.769M32.406 8.634l-.044 15.769"/>
            <path stroke="#EA9C00" stroke-width=".648" d="m60.438 5.518.044 15.769"/>
            <path stroke="#EA9C00" stroke-width=".5" d="m56.417 6.58.043 15.769M57.397 6.69l.044 15.769M52.834 7.362l-.044 15.769M55.06 6.917l-.043 15.77M49.909 7.705l-.044 15.769M46.347 7.808l-.044 15.769M42.669 7.808l-.044 15.769M37.397 8.597l-.043 15.77M34.96 8.689l-.044 15.769M33.738 8.52l-.043 15.769"/>
            <path stroke="#EA9C00" stroke-width=".648" d="m31.292 8.6-.044 15.769"/>
            <path stroke="#EA9C00" stroke-width=".5" d="m19.491 8.169-.044 15.769M12.508 7.93l-.044 15.769"/>
            <path stroke="#EA9C00" stroke-width=".648" d="m29.943 8.6-.044 15.769M28.717 8.6l-.044 15.769M2.039 5.703l-.044 15.769M3.177 6.238l-.044 15.769M25.999 8.474l-.044 15.769"/>
            <path stroke="#EA9C00" stroke-width=".5" d="m6.495 7.097-.043 15.769M7.963 7.202l-.044 15.77"/>
            <path stroke="#EA9C00" stroke-width=".648" d="m59.59 5.809.044 15.769M58.428 6.167l.044 15.769"/>
            <path fill="#FFE98F" fill-rule="nonzero" d="m37.845 9.149 3.437-.19.06 14.512-3.497-.037zM43.038 8.576l1.021.037V23.2l-1.021-.037zM46.818 8.425l.625.036v14.251l-.625-.036zM35.685 9.092l1.022.036v14.251l-1.022-.036zM44.58 8.608l.626.036v14.251l-.625-.036zM18.002 8.748l.855.036-.005 12.892-.851-.217zM22.197 9.176l1.667.036-.003 13.539-1.695-.344zM33.978 1.59 18.15 6.177l5.754.817 17.007-5.033z"/>
        </g>
        <g transform="translate(55.17 37.208)">
            <path d="M61.5 21.025c0 3.86-11.526 4.405-30.607 4.624-17.436.2-30.801-1.679-30.74-4.556.08-3.857 13.379-6.994 30.576-6.994 17.196 0 30.772 3.067 30.772 6.926z" fill-opacity=".46" fill="#482F00" fill-rule="nonzero"/>
            <path d="M.857 4.135c-.17 0-.308.352-.308.79v15.041c0 .438.137.79.308.79h.046c2.104 2.032 14.876 3.542 29.952 3.543 15.076 0 27.848-1.511 29.952-3.543h.017c.172 0 .31-.352.31-.79V4.925c0-.438-.138-.79-.31-.79H.857z" stroke="#EA9C00" stroke-width=".5" fill="#FFD31A" fill-rule="nonzero" stroke-linecap="square" stroke-linejoin="round"/>
            <path d="m1.17 5.689 4.202 1.267c.173 5.374.087 10.122 4.228 12.716 7.633 4.78 31.693 4.879 46.533 1.953l4.03-.769c-6.56 3.3-19.445 3.043-29.893 2.993-12.898-.063-24.447-.39-29.092-3.499L1.17 5.69z" fill="#EA9C00" fill-rule="nonzero"/>
            <ellipse stroke="#EA9C00" stroke-width=".5" fill="#FFE98F" fill-rule="nonzero" cx="30.855" cy="4.395" rx="30.259" ry="4.118"/>
            <ellipse stroke="#EA9C00" stroke-width=".5" fill="#FFD31A" fill-rule="nonzero" cx="30.707" cy="4.189" rx="25.441" ry="1.654"/>
            <path stroke="#EA9C00" stroke-width=".648" d="m1.242 5.254-.044 15.77"/>
            <path stroke="#EA9C00" stroke-width=".5" d="M4.272 6.481 4.228 22.25M5.347 6.896l-.043 15.77M9.983 7.514l-.044 15.769M15.699 7.993l-.044 15.769M25.051 8.634l-.044 15.769M32.406 8.634l-.044 15.769"/>
            <path stroke="#EA9C00" stroke-width=".648" d="m60.438 5.518.044 15.769"/>
            <path stroke="#EA9C00" stroke-width=".5" d="m56.417 6.58.043 15.769M57.397 6.69l.044 15.769M52.834 7.362l-.044 15.769M55.06 6.917l-.043 15.77M49.909 7.705l-.044 15.769M46.347 7.808l-.044 15.769M42.669 7.808l-.044 15.769M37.397 8.597l-.043 15.77M34.96 8.689l-.044 15.769M33.738 8.52l-.043 15.769"/>
            <path stroke="#EA9C00" stroke-width=".648" d="m31.292 8.6-.044 15.769"/>
            <path stroke="#EA9C00" stroke-width=".5" d="m19.491 8.169-.044 15.769M12.508 7.93l-.044 15.769"/>
            <path stroke="#EA9C00" stroke-width=".648" d="m29.943 8.6-.044 15.769M28.717 8.6l-.044 15.769M2.039 5.703l-.044 15.769M3.177 6.238l-.044 15.769M25.999 8.474l-.044 15.769"/>
            <path stroke="#EA9C00" stroke-width=".5" d="m6.495 7.097-.043 15.769M7.963 7.202l-.044 15.77"/>
            <path stroke="#EA9C00" stroke-width=".648" d="m59.59 5.809.044 15.769M58.428 6.167l.044 15.769"/>
            <path fill="#FFE98F" fill-rule="nonzero" d="m37.845 9.149 3.437-.19.06 14.512-3.497-.037zM43.038 8.576l1.021.037V23.2l-1.021-.037zM46.818 8.425l.625.036v14.251l-.625-.036zM35.685 9.092l1.022.036v14.251l-1.022-.036zM44.58 8.608l.626.036v14.251l-.625-.036zM18.002 8.748l.855.036-.005 12.892-.851-.217zM22.197 9.176l1.667.036-.003 13.539-1.695-.344zM33.978 1.59 18.15 6.177l5.754.817 17.007-5.033z"/>
        </g>
        <g transform="translate(60.373 18.984)">
            <path d="M61.5 21.025c0 3.86-11.526 4.405-30.607 4.624-17.436.2-30.801-1.679-30.74-4.556.08-3.857 13.379-6.994 30.576-6.994 17.196 0 30.772 3.067 30.772 6.926z" fill-opacity=".46" fill="#482F00" fill-rule="nonzero"/>
            <path d="M.857 4.135c-.17 0-.308.352-.308.79v15.041c0 .438.137.79.308.79h.046c2.104 2.032 14.876 3.542 29.952 3.543 15.076 0 27.848-1.511 29.952-3.543h.017c.172 0 .31-.352.31-.79V4.925c0-.438-.138-.79-.31-.79H.857z" stroke="#EA9C00" stroke-width=".5" fill="#FFD31A" fill-rule="nonzero" stroke-linecap="square" stroke-linejoin="round"/>
            <path d="m1.17 5.689 4.202 1.267c.173 5.374.087 10.122 4.228 12.716 7.633 4.78 31.693 4.879 46.533 1.953l4.03-.769c-6.56 3.3-19.445 3.043-29.893 2.993-12.898-.063-24.447-.39-29.092-3.499L1.17 5.69z" fill="#EA9C00" fill-rule="nonzero"/>
            <ellipse stroke="#EA9C00" stroke-width=".5" fill="#FFE98F" fill-rule="nonzero" cx="30.855" cy="4.395" rx="30.259" ry="4.118"/>
            <ellipse stroke="#EA9C00" stroke-width=".5" fill="#FFD31A" fill-rule="nonzero" cx="30.707" cy="4.189" rx="25.441" ry="1.654"/>
            <path stroke="#EA9C00" stroke-width=".648" d="m1.242 5.254-.044 15.77"/>
            <path stroke="#EA9C00" stroke-width=".5" d="M4.272 6.481 4.228 22.25M5.347 6.896l-.043 15.77M9.983 7.514l-.044 15.769M15.699 7.993l-.044 15.769M25.051 8.634l-.044 15.769M32.406 8.634l-.044 15.769"/>
            <path stroke="#EA9C00" stroke-width=".648" d="m60.438 5.518.044 15.769"/>
            <path stroke="#EA9C00" stroke-width=".5" d="m56.417 6.58.043 15.769M57.397 6.69l.044 15.769M52.834 7.362l-.044 15.769M55.06 6.917l-.043 15.77M49.909 7.705l-.044 15.769M46.347 7.808l-.044 15.769M42.669 7.808l-.044 15.769M37.397 8.597l-.043 15.77M34.96 8.689l-.044 15.769M33.738 8.52l-.043 15.769"/>
            <path stroke="#EA9C00" stroke-width=".648" d="m31.292 8.6-.044 15.769"/>
            <path stroke="#EA9C00" stroke-width=".5" d="m19.491 8.169-.044 15.769M12.508 7.93l-.044 15.769"/>
            <path stroke="#EA9C00" stroke-width=".648" d="m29.943 8.6-.044 15.769M28.717 8.6l-.044 15.769M2.039 5.703l-.044 15.769M3.177 6.238l-.044 15.769M25.999 8.474l-.044 15.769"/>
            <path stroke="#EA9C00" stroke-width=".5" d="m6.495 7.097-.043 15.769M7.963 7.202l-.044 15.77"/>
            <path stroke="#EA9C00" stroke-width=".648" d="m59.59 5.809.044 15.769M58.428 6.167l.044 15.769"/>
            <path fill="#FFE98F" fill-rule="nonzero" d="m37.845 9.149 3.437-.19.06 14.512-3.497-.037zM43.038 8.576l1.021.037V23.2l-1.021-.037zM46.818 8.425l.625.036v14.251l-.625-.036zM35.685 9.092l1.022.036v14.251l-1.022-.036zM44.58 8.608l.626.036v14.251l-.625-.036zM18.002 8.748l.855.036-.005 12.892-.851-.217zM22.197 9.176l1.667.036-.003 13.539-1.695-.344zM33.978 1.59 18.15 6.177l5.754.817 17.007-5.033z"/>
        </g>
        <g transform="translate(53.435 .76)">
            <path d="M61.5 21.025c0 3.86-11.526 4.405-30.607 4.624-17.436.2-30.801-1.679-30.74-4.556.08-3.857 13.379-6.994 30.576-6.994 17.196 0 30.772 3.067 30.772 6.926z" fill-opacity=".46" fill="#482F00" fill-rule="nonzero"/>
            <path d="M.857 4.135c-.17 0-.308.352-.308.79v15.041c0 .438.137.79.308.79h.046c2.104 2.032 14.876 3.542 29.952 3.543 15.076 0 27.848-1.511 29.952-3.543h.017c.172 0 .31-.352.31-.79V4.925c0-.438-.138-.79-.31-.79H.857z" stroke="#EA9C00" stroke-width=".5" fill="#FFD31A" fill-rule="nonzero" stroke-linecap="square" stroke-linejoin="round"/>
            <path d="m1.17 5.689 4.202 1.267c.173 5.374.087 10.122 4.228 12.716 7.633 4.78 31.693 4.879 46.533 1.953l4.03-.769c-6.56 3.3-19.445 3.043-29.893 2.993-12.898-.063-24.447-.39-29.092-3.499L1.17 5.69z" fill="#EA9C00" fill-rule="nonzero"/>
            <ellipse stroke="#EA9C00" stroke-width=".5" fill="#FFE98F" fill-rule="nonzero" cx="30.855" cy="4.395" rx="30.259" ry="4.118"/>
            <ellipse stroke="#EA9C00" stroke-width=".5" fill="#FFD31A" fill-rule="nonzero" cx="30.707" cy="4.189" rx="25.441" ry="1.654"/>
            <path stroke="#EA9C00" stroke-width=".648" d="m1.242 5.254-.044 15.77"/>
            <path stroke="#EA9C00" stroke-width=".5" d="M4.272 6.481 4.228 22.25M5.347 6.896l-.043 15.77M9.983 7.514l-.044 15.769M15.699 7.993l-.044 15.769M25.051 8.634l-.044 15.769M32.406 8.634l-.044 15.769"/>
            <path stroke="#EA9C00" stroke-width=".648" d="m60.438 5.518.044 15.769"/>
            <path stroke="#EA9C00" stroke-width=".5" d="m56.417 6.58.043 15.769M57.397 6.69l.044 15.769M52.834 7.362l-.044 15.769M55.06 6.917l-.043 15.77M49.909 7.705l-.044 15.769M46.347 7.808l-.044 15.769M42.669 7.808l-.044 15.769M37.397 8.597l-.043 15.77M34.96 8.689l-.044 15.769M33.738 8.52l-.043 15.769"/>
            <path stroke="#EA9C00" stroke-width=".648" d="m31.292 8.6-.044 15.769"/>
            <path stroke="#EA9C00" stroke-width=".5" d="m19.491 8.169-.044 15.769M12.508 7.93l-.044 15.769"/>
            <path stroke="#EA9C00" stroke-width=".648" d="m29.943 8.6-.044 15.769M28.717 8.6l-.044 15.769M2.039 5.703l-.044 15.769M3.177 6.238l-.044 15.769M25.999 8.474l-.044 15.769"/>
            <path stroke="#EA9C00" stroke-width=".5" d="m6.495 7.097-.043 15.769M7.963 7.202l-.044 15.77"/>
            <path stroke="#EA9C00" stroke-width=".648" d="m59.59 5.809.044 15.769M58.428 6.167l.044 15.769"/>
            <path fill="#FFE98F" fill-rule="nonzero" d="m37.845 9.149 3.437-.19.06 14.512-3.497-.037zM43.038 8.576l1.021.037V23.2l-1.021-.037zM46.818 8.425l.625.036v14.251l-.625-.036zM35.685 9.092l1.022.036v14.251l-1.022-.036zM44.58 8.608l.626.036v14.251l-.625-.036zM18.002 8.748l.855.036-.005 12.892-.851-.217zM22.197 9.176l1.667.036-.003 13.539-1.695-.344zM33.978 1.59 18.15 6.177l5.754.817 17.007-5.033z"/>
        </g>
        <g transform="translate(108.109 82.82)">
            <path d="M61.5 21.025c0 3.86-11.526 4.405-30.607 4.624-17.436.2-30.801-1.679-30.74-4.556.08-3.857 13.379-6.994 30.576-6.994 17.196 0 30.772 3.067 30.772 6.926z" fill-opacity=".46" fill="#482F00" fill-rule="nonzero"/>
            <path d="M.857 4.135c-.17 0-.308.352-.308.79v15.041c0 .438.137.79.308.79h.046c2.104 2.032 14.876 3.542 29.952 3.543 15.076 0 27.848-1.511 29.952-3.543h.017c.172 0 .31-.352.31-.79V4.925c0-.438-.138-.79-.31-.79H.857z" stroke="#EA9C00" stroke-width=".5" fill="#FFD31A" fill-rule="nonzero" stroke-linecap="square" stroke-linejoin="round"/>
            <path d="m1.17 5.689 4.202 1.267c.173 5.374.087 10.122 4.228 12.716 7.633 4.78 31.693 4.879 46.533 1.953l4.03-.769c-6.56 3.3-19.445 3.043-29.893 2.993-12.898-.063-24.447-.39-29.092-3.499L1.17 5.69z" fill="#EA9C00" fill-rule="nonzero"/>
            <ellipse stroke="#EA9C00" stroke-width=".5" fill="#FFE98F" fill-rule="nonzero" cx="30.855" cy="4.395" rx="30.259" ry="4.118"/>
            <ellipse stroke="#EA9C00" stroke-width=".5" fill="#FFD31A" fill-rule="nonzero" cx="30.707" cy="4.189" rx="25.441" ry="1.654"/>
            <path stroke="#EA9C00" stroke-width=".648" d="m1.242 5.254-.044 15.77"/>
            <path stroke="#EA9C00" stroke-width=".5" d="M4.272 6.481 4.228 22.25M5.347 6.896l-.043 15.77M9.983 7.514l-.044 15.769M15.699 7.993l-.044 15.769M25.051 8.634l-.044 15.769M32.406 8.634l-.044 15.769"/>
            <path stroke="#EA9C00" stroke-width=".648" d="m60.438 5.518.044 15.769"/>
            <path stroke="#EA9C00" stroke-width=".5" d="m56.417 6.58.043 15.769M57.397 6.69l.044 15.769M52.834 7.362l-.044 15.769M55.06 6.917l-.043 15.77M49.909 7.705l-.044 15.769M46.347 7.808l-.044 15.769M42.669 7.808l-.044 15.769M37.397 8.597l-.043 15.77M34.96 8.689l-.044 15.769M33.738 8.52l-.043 15.769"/>
            <path stroke="#EA9C00" stroke-width=".648" d="m31.292 8.6-.044 15.769"/>
            <path stroke="#EA9C00" stroke-width=".5" d="m19.491 8.169-.044 15.769M12.508 7.93l-.044 15.769"/>
            <path stroke="#EA9C00" stroke-width=".648" d="m29.943 8.6-.044 15.769M28.717 8.6l-.044 15.769M2.039 5.703l-.044 15.769M3.177 6.238l-.044 15.769M25.999 8.474l-.044 15.769"/>
            <path stroke="#EA9C00" stroke-width=".5" d="m6.495 7.097-.043 15.769M7.963 7.202l-.044 15.77"/>
            <path stroke="#EA9C00" stroke-width=".648" d="m59.59 5.809.044 15.769M58.428 6.167l.044 15.769"/>
            <path fill="#FFE98F" fill-rule="nonzero" d="m37.845 9.149 3.437-.19.06 14.512-3.497-.037zM43.038 8.576l1.021.037V23.2l-1.021-.037zM46.818 8.425l.625.036v14.251l-.625-.036zM35.685 9.092l1.022.036v14.251l-1.022-.036zM44.58 8.608l.626.036v14.251l-.625-.036zM18.002 8.748l.855.036-.005 12.892-.851-.217zM22.197 9.176l1.667.036-.003 13.539-1.695-.344zM33.978 1.59 18.15 6.177l5.754.817 17.007-5.033z"/>
        </g>
        <g transform="translate(105.746 64.771)">
            <path d="M61.5 21.025c0 3.86-11.526 4.405-30.607 4.624-17.436.2-30.801-1.679-30.74-4.556.08-3.857 13.379-6.994 30.576-6.994 17.196 0 30.772 3.067 30.772 6.926z" fill-opacity=".46" fill="#482F00" fill-rule="nonzero"/>
            <path d="M.857 4.135c-.17 0-.308.352-.308.79v15.041c0 .438.137.79.308.79h.046c2.104 2.032 14.876 3.542 29.952 3.543 15.076 0 27.848-1.511 29.952-3.543h.017c.172 0 .31-.352.31-.79V4.925c0-.438-.138-.79-.31-.79H.857z" stroke="#EA9C00" stroke-width=".5" fill="#FFD31A" fill-rule="nonzero" stroke-linecap="square" stroke-linejoin="round"/>
            <path d="m1.17 5.689 4.202 1.267c.173 5.374.087 10.122 4.228 12.716 7.633 4.78 31.693 4.879 46.533 1.953l4.03-.769c-6.56 3.3-19.445 3.043-29.893 2.993-12.898-.063-24.447-.39-29.092-3.499L1.17 5.69z" fill="#EA9C00" fill-rule="nonzero"/>
            <ellipse stroke="#EA9C00" stroke-width=".5" fill="#FFE98F" fill-rule="nonzero" cx="30.855" cy="4.395" rx="30.259" ry="4.118"/>
            <ellipse stroke="#EA9C00" stroke-width=".5" fill="#FFD31A" fill-rule="nonzero" cx="30.707" cy="4.189" rx="25.441" ry="1.654"/>
            <path stroke="#EA9C00" stroke-width=".648" d="m1.242 5.254-.044 15.77"/>
            <path stroke="#EA9C00" stroke-width=".5" d="M4.272 6.481 4.228 22.25M5.347 6.896l-.043 15.77M9.983 7.514l-.044 15.769M15.699 7.993l-.044 15.769M25.051 8.634l-.044 15.769M32.406 8.634l-.044 15.769"/>
            <path stroke="#EA9C00" stroke-width=".648" d="m60.438 5.518.044 15.769"/>
            <path stroke="#EA9C00" stroke-width=".5" d="m56.417 6.58.043 15.769M57.397 6.69l.044 15.769M52.834 7.362l-.044 15.769M55.06 6.917l-.043 15.77M49.909 7.705l-.044 15.769M46.347 7.808l-.044 15.769M42.669 7.808l-.044 15.769M37.397 8.597l-.043 15.77M34.96 8.689l-.044 15.769M33.738 8.52l-.043 15.769"/>
            <path stroke="#EA9C00" stroke-width=".648" d="m31.292 8.6-.044 15.769"/>
            <path stroke="#EA9C00" stroke-width=".5" d="m19.491 8.169-.044 15.769M12.508 7.93l-.044 15.769"/>
            <path stroke="#EA9C00" stroke-width=".648" d="m29.943 8.6-.044 15.769M28.717 8.6l-.044 15.769M2.039 5.703l-.044 15.769M3.177 6.238l-.044 15.769M25.999 8.474l-.044 15.769"/>
            <path stroke="#EA9C00" stroke-width=".5" d="m6.495 7.097-.043 15.769M7.963 7.202l-.044 15.77"/>
            <path stroke="#EA9C00" stroke-width=".648" d="m59.59 5.809.044 15.769M58.428 6.167l.044 15.769"/>
            <path fill="#FFE98F" fill-rule="nonzero" d="m37.845 9.149 3.437-.19.06 14.512-3.497-.037zM43.038 8.576l1.021.037V23.2l-1.021-.037zM46.818 8.425l.625.036v14.251l-.625-.036zM35.685 9.092l1.022.036v14.251l-1.022-.036zM44.58 8.608l.626.036v14.251l-.625-.036zM18.002 8.748l.855.036-.005 12.892-.851-.217zM22.197 9.176l1.667.036-.003 13.539-1.695-.344zM33.978 1.59 18.15 6.177l5.754.817 17.007-5.033z"/>
        </g>
        <g transform="translate(113.242 46.766)">
            <path d="M61.5 21.025c0 3.86-11.526 4.405-30.607 4.624-17.436.2-30.801-1.679-30.74-4.556.08-3.857 13.379-6.994 30.576-6.994 17.196 0 30.772 3.067 30.772 6.926z" fill-opacity=".46" fill="#482F00" fill-rule="nonzero"/>
            <path d="M.857 4.135c-.17 0-.308.352-.308.79v15.041c0 .438.137.79.308.79h.046c2.104 2.032 14.876 3.542 29.952 3.543 15.076 0 27.848-1.511 29.952-3.543h.017c.172 0 .31-.352.31-.79V4.925c0-.438-.138-.79-.31-.79H.857z" stroke="#EA9C00" stroke-width=".5" fill="#FFD31A" fill-rule="nonzero" stroke-linecap="square" stroke-linejoin="round"/>
            <path d="m1.17 5.689 4.202 1.267c.173 5.374.087 10.122 4.228 12.716 7.633 4.78 31.693 4.879 46.533 1.953l4.03-.769c-6.56 3.3-19.445 3.043-29.893 2.993-12.898-.063-24.447-.39-29.092-3.499L1.17 5.69z" fill="#EA9C00" fill-rule="nonzero"/>
            <ellipse stroke="#EA9C00" stroke-width=".5" fill="#FFE98F" fill-rule="nonzero" cx="30.855" cy="4.395" rx="30.259" ry="4.118"/>
            <ellipse stroke="#EA9C00" stroke-width=".5" fill="#FFD31A" fill-rule="nonzero" cx="30.707" cy="4.189" rx="25.441" ry="1.654"/>
            <path stroke="#EA9C00" stroke-width=".648" d="m1.242 5.254-.044 15.77"/>
            <path stroke="#EA9C00" stroke-width=".5" d="M4.272 6.481 4.228 22.25M5.347 6.896l-.043 15.77M9.983 7.514l-.044 15.769M15.699 7.993l-.044 15.769M25.051 8.634l-.044 15.769M32.406 8.634l-.044 15.769"/>
            <path stroke="#EA9C00" stroke-width=".648" d="m60.438 5.518.044 15.769"/>
            <path stroke="#EA9C00" stroke-width=".5" d="m56.417 6.58.043 15.769M57.397 6.69l.044 15.769M52.834 7.362l-.044 15.769M55.06 6.917l-.043 15.77M49.909 7.705l-.044 15.769M46.347 7.808l-.044 15.769M42.669 7.808l-.044 15.769M37.397 8.597l-.043 15.77M34.96 8.689l-.044 15.769M33.738 8.52l-.043 15.769"/>
            <path stroke="#EA9C00" stroke-width=".648" d="m31.292 8.6-.044 15.769"/>
            <path stroke="#EA9C00" stroke-width=".5" d="m19.491 8.169-.044 15.769M12.508 7.93l-.044 15.769"/>
            <path stroke="#EA9C00" stroke-width=".648" d="m29.943 8.6-.044 15.769M28.717 8.6l-.044 15.769M2.039 5.703l-.044 15.769M3.177 6.238l-.044 15.769M25.999 8.474l-.044 15.769"/>
            <path stroke="#EA9C00" stroke-width=".5" d="m6.495 7.097-.043 15.769M7.963 7.202l-.044 15.77"/>
            <path stroke="#EA9C00" stroke-width=".648" d="m59.59 5.809.044 15.769M58.428 6.167l.044 15.769"/>
            <path fill="#FFE98F" fill-rule="nonzero" d="m37.845 9.149 3.437-.19.06 14.512-3.497-.037zM43.038 8.576l1.021.037V23.2l-1.021-.037zM46.818 8.425l.625.036v14.251l-.625-.036zM35.685 9.092l1.022.036v14.251l-1.022-.036zM44.58 8.608l.626.036v14.251l-.625-.036zM18.002 8.748l.855.036-.005 12.892-.851-.217zM22.197 9.176l1.667.036-.003 13.539-1.695-.344zM33.978 1.59 18.15 6.177l5.754.817 17.007-5.033z"/>
        </g>
        <g transform="translate(15.894 76.072)">
            <path d="M61.5 21.025c0 3.86-11.526 4.405-30.607 4.624-17.436.2-30.801-1.679-30.74-4.556.08-3.857 13.379-6.994 30.576-6.994 17.196 0 30.772 3.067 30.772 6.926z" fill-opacity=".46" fill="#482F00" fill-rule="nonzero"/>
            <path d="M.857 4.135c-.17 0-.308.352-.308.79v15.041c0 .438.137.79.308.79h.046c2.104 2.032 14.876 3.542 29.952 3.543 15.076 0 27.848-1.511 29.952-3.543h.017c.172 0 .31-.352.31-.79V4.925c0-.438-.138-.79-.31-.79H.857z" stroke="#EA9C00" stroke-width=".5" fill="#FFD31A" fill-rule="nonzero" stroke-linecap="square" stroke-linejoin="round"/>
            <path d="m1.17 5.689 4.202 1.267c.173 5.374.087 10.122 4.228 12.716 7.633 4.78 31.693 4.879 46.533 1.953l4.03-.769c-6.56 3.3-19.445 3.043-29.893 2.993-12.898-.063-24.447-.39-29.092-3.499L1.17 5.69z" fill="#EA9C00" fill-rule="nonzero"/>
            <ellipse stroke="#EA9C00" stroke-width=".5" fill="#FFE98F" fill-rule="nonzero" cx="30.855" cy="4.395" rx="30.259" ry="4.118"/>
            <ellipse stroke="#EA9C00" stroke-width=".5" fill="#FFD31A" fill-rule="nonzero" cx="30.707" cy="4.189" rx="25.441" ry="1.654"/>
            <path stroke="#EA9C00" stroke-width=".648" d="m1.242 5.254-.044 15.77"/>
            <path stroke="#EA9C00" stroke-width=".5" d="M4.272 6.481 4.228 22.25M5.347 6.896l-.043 15.77M9.983 7.514l-.044 15.769M15.699 7.993l-.044 15.769M25.051 8.634l-.044 15.769M32.406 8.634l-.044 15.769"/>
            <path stroke="#EA9C00" stroke-width=".648" d="m60.438 5.518.044 15.769"/>
            <path stroke="#EA9C00" stroke-width=".5" d="m56.417 6.58.043 15.769M57.397 6.69l.044 15.769M52.834 7.362l-.044 15.769M55.06 6.917l-.043 15.77M49.909 7.705l-.044 15.769M46.347 7.808l-.044 15.769M42.669 7.808l-.044 15.769M37.397 8.597l-.043 15.77M34.96 8.689l-.044 15.769M33.738 8.52l-.043 15.769"/>
            <path stroke="#EA9C00" stroke-width=".648" d="m31.292 8.6-.044 15.769"/>
            <path stroke="#EA9C00" stroke-width=".5" d="m19.491 8.169-.044 15.769M12.508 7.93l-.044 15.769"/>
            <path stroke="#EA9C00" stroke-width=".648" d="m29.943 8.6-.044 15.769M28.717 8.6l-.044 15.769M2.039 5.703l-.044 15.769M3.177 6.238l-.044 15.769M25.999 8.474l-.044 15.769"/>
            <path stroke="#EA9C00" stroke-width=".5" d="m6.495 7.097-.043 15.769M7.963 7.202l-.044 15.77"/>
            <path stroke="#EA9C00" stroke-width=".648" d="m59.59 5.809.044 15.769M58.428 6.167l.044 15.769"/>
            <path fill="#FFE98F" fill-rule="nonzero" d="m37.845 9.149 3.437-.19.06 14.512-3.497-.037zM43.038 8.576l1.021.037V23.2l-1.021-.037zM46.818 8.425l.625.036v14.251l-.625-.036zM35.685 9.092l1.022.036v14.251l-1.022-.036zM44.58 8.608l.626.036v14.251l-.625-.036zM18.002 8.748l.855.036-.005 12.892-.851-.217zM22.197 9.176l1.667.036-.003 13.539-1.695-.344zM33.978 1.59 18.15 6.177l5.754.817 17.007-5.033z"/>
        </g>
        <g transform="translate(.535 92.197)">
            <path d="M61.5 21.025c0 3.86-11.526 4.405-30.607 4.624-17.436.2-30.801-1.679-30.74-4.556.08-3.857 13.379-6.994 30.576-6.994 17.196 0 30.772 3.067 30.772 6.926z" fill-opacity=".46" fill="#482F00" fill-rule="nonzero"/>
            <path d="M.857 4.135c-.17 0-.308.352-.308.79v15.041c0 .438.137.79.308.79h.046c2.104 2.032 14.876 3.542 29.952 3.543 15.076 0 27.848-1.511 29.952-3.543h.017c.172 0 .31-.352.31-.79V4.925c0-.438-.138-.79-.31-.79H.857z" stroke="#EA9C00" stroke-width=".5" fill="#FFD31A" fill-rule="nonzero" stroke-linecap="square" stroke-linejoin="round"/>
            <path d="m1.17 5.689 4.202 1.267c.173 5.374.087 10.122 4.228 12.716 7.633 4.78 31.693 4.879 46.533 1.953l4.03-.769c-6.56 3.3-19.445 3.043-29.893 2.993-12.898-.063-24.447-.39-29.092-3.499L1.17 5.69z" fill="#EA9C00" fill-rule="nonzero"/>
            <ellipse stroke="#EA9C00" stroke-width=".5" fill="#FFE98F" fill-rule="nonzero" cx="30.855" cy="4.395" rx="30.259" ry="4.118"/>
            <ellipse stroke="#EA9C00" stroke-width=".5" fill="#FFD31A" fill-rule="nonzero" cx="30.707" cy="4.189" rx="25.441" ry="1.654"/>
            <path stroke="#EA9C00" stroke-width=".648" d="m1.242 5.254-.044 15.77"/>
            <path stroke="#EA9C00" stroke-width=".5" d="M4.272 6.481 4.228 22.25M5.347 6.896l-.043 15.77M9.983 7.514l-.044 15.769M15.699 7.993l-.044 15.769M25.051 8.634l-.044 15.769M32.406 8.634l-.044 15.769"/>
            <path stroke="#EA9C00" stroke-width=".648" d="m60.438 5.518.044 15.769"/>
            <path stroke="#EA9C00" stroke-width=".5" d="m56.417 6.58.043 15.769M57.397 6.69l.044 15.769M52.834 7.362l-.044 15.769M55.06 6.917l-.043 15.77M49.909 7.705l-.044 15.769M46.347 7.808l-.044 15.769M42.669 7.808l-.044 15.769M37.397 8.597l-.043 15.77M34.96 8.689l-.044 15.769M33.738 8.52l-.043 15.769"/>
            <path stroke="#EA9C00" stroke-width=".648" d="m31.292 8.6-.044 15.769"/>
            <path stroke="#EA9C00" stroke-width=".5" d="m19.491 8.169-.044 15.769M12.508 7.93l-.044 15.769"/>
            <path stroke="#EA9C00" stroke-width=".648" d="m29.943 8.6-.044 15.769M28.717 8.6l-.044 15.769M2.039 5.703l-.044 15.769M3.177 6.238l-.044 15.769M25.999 8.474l-.044 15.769"/>
            <path stroke="#EA9C00" stroke-width=".5" d="m6.495 7.097-.043 15.769M7.963 7.202l-.044 15.77"/>
            <path stroke="#EA9C00" stroke-width=".648" d="m59.59 5.809.044 15.769M58.428 6.167l.044 15.769"/>
            <path fill="#FFE98F" fill-rule="nonzero" d="m37.845 9.149 3.437-.19.06 14.512-3.497-.037zM43.038 8.576l1.021.037V23.2l-1.021-.037zM46.818 8.425l.625.036v14.251l-.625-.036zM35.685 9.092l1.022.036v14.251l-1.022-.036zM44.58 8.608l.626.036v14.251l-.625-.036zM18.002 8.748l.855.036-.005 12.892-.851-.217zM22.197 9.176l1.667.036-.003 13.539-1.695-.344zM33.978 1.59 18.15 6.177l5.754.817 17.007-5.033z"/>
        </g>
        <g transform="translate(113.106 89.515)">
            <path d="M61.5 21.025c0 3.86-11.526 4.405-30.607 4.624-17.436.2-30.801-1.679-30.74-4.556.08-3.857 13.379-6.994 30.576-6.994 17.196 0 30.772 3.067 30.772 6.926z" fill-opacity=".46" fill="#482F00" fill-rule="nonzero"/>
            <path d="M.857 4.135c-.17 0-.308.352-.308.79v15.041c0 .438.137.79.308.79h.046c2.104 2.032 14.876 3.542 29.952 3.543 15.076 0 27.848-1.511 29.952-3.543h.017c.172 0 .31-.352.31-.79V4.925c0-.438-.138-.79-.31-.79H.857z" stroke="#EA9C00" stroke-width=".5" fill="#FFD31A" fill-rule="nonzero" stroke-linecap="square" stroke-linejoin="round"/>
            <path d="m1.17 5.689 4.202 1.267c.173 5.374.087 10.122 4.228 12.716 7.633 4.78 31.693 4.879 46.533 1.953l4.03-.769c-6.56 3.3-19.445 3.043-29.893 2.993-12.898-.063-24.447-.39-29.092-3.499L1.17 5.69z" fill="#EA9C00" fill-rule="nonzero"/>
            <ellipse stroke="#EA9C00" stroke-width=".5" fill="#FFE98F" fill-rule="nonzero" cx="30.855" cy="4.395" rx="30.259" ry="4.118"/>
            <ellipse stroke="#EA9C00" stroke-width=".5" fill="#FFD31A" fill-rule="nonzero" cx="30.707" cy="4.189" rx="25.441" ry="1.654"/>
            <path stroke="#EA9C00" stroke-width=".648" d="m1.242 5.254-.044 15.77"/>
            <path stroke="#EA9C00" stroke-width=".5" d="M4.272 6.481 4.228 22.25M5.347 6.896l-.043 15.77M9.983 7.514l-.044 15.769M15.699 7.993l-.044 15.769M25.051 8.634l-.044 15.769M32.406 8.634l-.044 15.769"/>
            <path stroke="#EA9C00" stroke-width=".648" d="m60.438 5.518.044 15.769"/>
            <path stroke="#EA9C00" stroke-width=".5" d="m56.417 6.58.043 15.769M57.397 6.69l.044 15.769M52.834 7.362l-.044 15.769M55.06 6.917l-.043 15.77M49.909 7.705l-.044 15.769M46.347 7.808l-.044 15.769M42.669 7.808l-.044 15.769M37.397 8.597l-.043 15.77M34.96 8.689l-.044 15.769M33.738 8.52l-.043 15.769"/>
            <path stroke="#EA9C00" stroke-width=".648" d="m31.292 8.6-.044 15.769"/>
            <path stroke="#EA9C00" stroke-width=".5" d="m19.491 8.169-.044 15.769M12.508 7.93l-.044 15.769"/>
            <path stroke="#EA9C00" stroke-width=".648" d="m29.943 8.6-.044 15.769M28.717 8.6l-.044 15.769M2.039 5.703l-.044 15.769M3.177 6.238l-.044 15.769M25.999 8.474l-.044 15.769"/>
            <path stroke="#EA9C00" stroke-width=".5" d="m6.495 7.097-.043 15.769M7.963 7.202l-.044 15.77"/>
            <path stroke="#EA9C00" stroke-width=".648" d="m59.59 5.809.044 15.769M58.428 6.167l.044 15.769"/>
            <path fill="#FFE98F" fill-rule="nonzero" d="m37.845 9.149 3.437-.19.06 14.512-3.497-.037zM43.038 8.576l1.021.037V23.2l-1.021-.037zM46.818 8.425l.625.036v14.251l-.625-.036zM35.685 9.092l1.022.036v14.251l-1.022-.036zM44.58 8.608l.626.036v14.251l-.625-.036zM18.002 8.748l.855.036-.005 12.892-.851-.217zM22.197 9.176l1.667.036-.003 13.539-1.695-.344zM33.978 1.59 18.15 6.177l5.754.817 17.007-5.033z"/>
        </g>
        <g transform="translate(58.124 96.347)">
            <path d="M61.5 21.025c0 3.86-11.526 4.405-30.607 4.624-17.436.2-30.801-1.679-30.74-4.556.08-3.857 13.379-6.994 30.576-6.994 17.196 0 30.772 3.067 30.772 6.926z" fill-opacity=".46" fill="#482F00" fill-rule="nonzero"/>
            <path d="M.857 4.135c-.17 0-.308.352-.308.79v15.041c0 .438.137.79.308.79h.046c2.104 2.032 14.876 3.542 29.952 3.543 15.076 0 27.848-1.511 29.952-3.543h.017c.172 0 .31-.352.31-.79V4.925c0-.438-.138-.79-.31-.79H.857z" stroke="#EA9C00" stroke-width=".5" fill="#FFD31A" fill-rule="nonzero" stroke-linecap="square" stroke-linejoin="round"/>
            <path d="m1.17 5.689 4.202 1.267c.173 5.374.087 10.122 4.228 12.716 7.633 4.78 31.693 4.879 46.533 1.953l4.03-.769c-6.56 3.3-19.445 3.043-29.893 2.993-12.898-.063-24.447-.39-29.092-3.499L1.17 5.69z" fill="#EA9C00" fill-rule="nonzero"/>
            <ellipse stroke="#EA9C00" stroke-width=".5" fill="#FFE98F" fill-rule="nonzero" cx="30.855" cy="4.395" rx="30.259" ry="4.118"/>
            <ellipse stroke="#EA9C00" stroke-width=".5" fill="#FFD31A" fill-rule="nonzero" cx="30.707" cy="4.189" rx="25.441" ry="1.654"/>
            <path stroke="#EA9C00" stroke-width=".648" d="m1.242 5.254-.044 15.77"/>
            <path stroke="#EA9C00" stroke-width=".5" d="M4.272 6.481 4.228 22.25M5.347 6.896l-.043 15.77M9.983 7.514l-.044 15.769M15.699 7.993l-.044 15.769M25.051 8.634l-.044 15.769M32.406 8.634l-.044 15.769"/>
            <path stroke="#EA9C00" stroke-width=".648" d="m60.438 5.518.044 15.769"/>
            <path stroke="#EA9C00" stroke-width=".5" d="m56.417 6.58.043 15.769M57.397 6.69l.044 15.769M52.834 7.362l-.044 15.769M55.06 6.917l-.043 15.77M49.909 7.705l-.044 15.769M46.347 7.808l-.044 15.769M42.669 7.808l-.044 15.769M37.397 8.597l-.043 15.77M34.96 8.689l-.044 15.769M33.738 8.52l-.043 15.769"/>
            <path stroke="#EA9C00" stroke-width=".648" d="m31.292 8.6-.044 15.769"/>
            <path stroke="#EA9C00" stroke-width=".5" d="m19.491 8.169-.044 15.769M12.508 7.93l-.044 15.769"/>
            <path stroke="#EA9C00" stroke-width=".648" d="m29.943 8.6-.044 15.769M28.717 8.6l-.044 15.769M2.039 5.703l-.044 15.769M3.177 6.238l-.044 15.769M25.999 8.474l-.044 15.769"/>
            <path stroke="#EA9C00" stroke-width=".5" d="m6.495 7.097-.043 15.769M7.963 7.202l-.044 15.77"/>
            <path stroke="#EA9C00" stroke-width=".648" d="m59.59 5.809.044 15.769M58.428 6.167l.044 15.769"/>
            <path fill="#FFE98F" fill-rule="nonzero" d="m37.845 9.149 3.437-.19.06 14.512-3.497-.037zM43.038 8.576l1.021.037V23.2l-1.021-.037zM46.818 8.425l.625.036v14.251l-.625-.036zM35.685 9.092l1.022.036v14.251l-1.022-.036zM44.58 8.608l.626.036v14.251l-.625-.036zM18.002 8.748l.855.036-.005 12.892-.851-.217zM22.197 9.176l1.667.036-.003 13.539-1.695-.344zM33.978 1.59 18.15 6.177l5.754.817 17.007-5.033z"/>
        </g>
        <g transform="translate(3.137 73.973)">
            <path d="M61.5 21.025c0 3.86-11.526 4.405-30.607 4.624-17.436.2-30.801-1.679-30.74-4.556.08-3.857 13.379-6.994 30.576-6.994 17.196 0 30.772 3.067 30.772 6.926z" fill-opacity=".46" fill="#482F00" fill-rule="nonzero"/>
            <path d="M.857 4.135c-.17 0-.308.352-.308.79v15.041c0 .438.137.79.308.79h.046c2.104 2.032 14.876 3.542 29.952 3.543 15.076 0 27.848-1.511 29.952-3.543h.017c.172 0 .31-.352.31-.79V4.925c0-.438-.138-.79-.31-.79H.857z" stroke="#EA9C00" stroke-width=".5" fill="#FFD31A" fill-rule="nonzero" stroke-linecap="square" stroke-linejoin="round"/>
            <path d="m1.17 5.689 4.202 1.267c.173 5.374.087 10.122 4.228 12.716 7.633 4.78 31.693 4.879 46.533 1.953l4.03-.769c-6.56 3.3-19.445 3.043-29.893 2.993-12.898-.063-24.447-.39-29.092-3.499L1.17 5.69z" fill="#EA9C00" fill-rule="nonzero"/>
            <ellipse stroke="#EA9C00" stroke-width=".5" fill="#FFE98F" fill-rule="nonzero" cx="30.855" cy="4.395" rx="30.259" ry="4.118"/>
            <ellipse stroke="#EA9C00" stroke-width=".5" fill="#FFD31A" fill-rule="nonzero" cx="30.707" cy="4.189" rx="25.441" ry="1.654"/>
            <path stroke="#EA9C00" stroke-width=".648" d="m1.242 5.254-.044 15.77"/>
            <path stroke="#EA9C00" stroke-width=".5" d="M4.272 6.481 4.228 22.25M5.347 6.896l-.043 15.77M9.983 7.514l-.044 15.769M15.699 7.993l-.044 15.769M25.051 8.634l-.044 15.769M32.406 8.634l-.044 15.769"/>
            <path stroke="#EA9C00" stroke-width=".648" d="m60.438 5.518.044 15.769"/>
            <path stroke="#EA9C00" stroke-width=".5" d="m56.417 6.58.043 15.769M57.397 6.69l.044 15.769M52.834 7.362l-.044 15.769M55.06 6.917l-.043 15.77M49.909 7.705l-.044 15.769M46.347 7.808l-.044 15.769M42.669 7.808l-.044 15.769M37.397 8.597l-.043 15.77M34.96 8.689l-.044 15.769M33.738 8.52l-.043 15.769"/>
            <path stroke="#EA9C00" stroke-width=".648" d="m31.292 8.6-.044 15.769"/>
            <path stroke="#EA9C00" stroke-width=".5" d="m19.491 8.169-.044 15.769M12.508 7.93l-.044 15.769"/>
            <path stroke="#EA9C00" stroke-width=".648" d="m29.943 8.6-.044 15.769M28.717 8.6l-.044 15.769M2.039 5.703l-.044 15.769M3.177 6.238l-.044 15.769M25.999 8.474l-.044 15.769"/>
            <path stroke="#EA9C00" stroke-width=".5" d="m6.495 7.097-.043 15.769M7.963 7.202l-.044 15.77"/>
            <path stroke="#EA9C00" stroke-width=".648" d="m59.59 5.809.044 15.769M58.428 6.167l.044 15.769"/>
            <path fill="#FFE98F" fill-rule="nonzero" d="m37.845 9.149 3.437-.19.06 14.512-3.497-.037zM43.038 8.576l1.021.037V23.2l-1.021-.037zM46.818 8.425l.625.036v14.251l-.625-.036zM35.685 9.092l1.022.036v14.251l-1.022-.036zM44.58 8.608l.626.036v14.251l-.625-.036zM18.002 8.748l.855.036-.005 12.892-.851-.217zM22.197 9.176l1.667.036-.003 13.539-1.695-.344zM33.978 1.59 18.15 6.177l5.754.817 17.007-5.033z"/>
        </g>
        <path d="m90.39 103.182-7.061-.62c-15.276-1.331-26.609-15.129-25.32-30.799a28.923 28.923 0 0 1 3.094-10.866c.793-.693 3.187-7.137 10.031-10.98 9.827-5.519 17.869-3.831 18.82-3.723-24.108 5.02-26.634 18.572-27.146 26.482-.632 5.995 1.833 13.139 3.147 15.742 2.031 4.083 9.88 14.496 24.435 14.764" fill="#FFD31A" fill-rule="nonzero"/>
        <path d="M83.126 103.046h-.033c-15.425-1.53-26.787-15.675-25.307-31.532 1.48-15.856 15.231-27.529 30.656-25.998a.343.343 0 0 1 .304.374.339.339 0 0 1-.363.312c-15.058-1.483-28.497 9.894-29.93 25.39-1.434 15.48 9.641 29.302 24.716 30.785a.343.343 0 0 1 .304.374.359.359 0 0 1-.347.295" fill="#EA9C00" fill-rule="nonzero"/>
        <path d="M89.139 45.897c15.97-.332 29.186 12.356 29.518 28.337.331 15.982-12.347 29.207-28.318 29.538-15.97.331-29.186-12.356-29.518-28.338-.332-15.982 12.347-29.206 28.318-29.537" fill="#FFE98F" fill-rule="nonzero"/>
        <path d="M89.258 51.66c12.79-.265 23.374 9.895 23.64 22.694.265 12.799-9.888 23.39-22.678 23.655-12.79.265-23.374-9.896-23.64-22.694-.266-12.799 9.888-23.39 22.678-23.655" fill="#FFD31A" fill-rule="nonzero"/>
        <path d="m90.817 103.971-.166-.825.166.825z" fill="#000" fill-rule="nonzero"/>
        <path d="m61.555 67.736-2.646-.429c-.055-.014.003-.265.004-.323.014-.059.055-.102.11-.102l2.588.287a.297.297 0 0 1 .263.306.293.293 0 0 1-.292.276c-.014-.015-.014-.015-.027-.015M60.61 78.067l-2.245-.09c-.07-.019-.18-.316-.18-.396.015-.08.066-.141.135-.143l2.342-.172c.192.016.335.193.34.413-.013.22-.167.383-.358.387l-.035.001zM64.143 89.562l-1.981-.142c-.07-.02-.32-.29-.323-.375.016-.085.067-.15.137-.152l2.201-.182c.192.017.335.206.34.44-.012.233-.165.406-.357.41h-.017zM71.564 98.222c-.368-.097-.734-.125-1.083-.17l-1.1-.133c-.732-.09.732-.011.017-.084-.07-.015-.14-.084-.125-.154a.152.152 0 0 1 .154-.125c.732.037-.733-.076-.002-.056l1.097.029c.366.01.732.037 1.097-.005a.351.351 0 0 1 .39.305.351.351 0 0 1-.306.39c-.052.018-.104.002-.14.003" fill="#EA9C00" fill-rule="nonzero"/>
        <path d="M89.096 46.35c-14.46.3-26.69 11.51-27.951 26.238-.66 7.643 1.705 15.067 6.631 20.94 4.926 5.854 11.859 9.456 19.48 10.099 1.028.083 2.055.114 3.065.093 14.459-.3 26.69-11.51 27.95-26.238 1.345-15.757-10.363-29.693-26.127-31.038a29.977 29.977 0 0 0-3.048-.093m1.24 58.083a26.98 26.98 0 0 1-3.136-.11c-7.812-.673-14.903-4.341-19.954-10.35-5.051-6.01-7.472-13.623-6.799-21.44l.349.027-.349-.028c1.389-16.141 15.64-28.16 31.77-26.77 16.13 1.39 28.14 15.65 26.752 31.792-1.288 15.094-13.826 26.572-28.634 26.879" fill="#EA9C00" fill-rule="nonzero"/>
        <path d="M74.336 92.555c-1.097-.83-2.092-1.82-2.984-2.882l-.644-.822c-.107-.137-.197-.275-.305-.43l-.287-.429c-.09-.137-.198-.292-.288-.43l-.27-.447-.27-.447-.127-.224-.127-.224a23.555 23.555 0 0 1-2.6-7.871c-.793-5.506.427-11.296 3.446-15.975a23.555 23.555 0 0 1 5.653-6.092c2.21-1.683 4.743-2.938 7.407-3.742a23.461 23.461 0 0 1 4.073-.833 23.7 23.7 0 0 1 4.16-.087c1.393.076 2.756.309 4.103.63.665.177 1.33.372 1.98.62.649.248 1.281.53 1.88.884.089.05.108.155.058.243a.167.167 0 0 1-.208.074c-.648-.213-1.297-.426-1.945-.622a40.63 40.63 0 0 0-1.943-.534 21.917 21.917 0 0 0-3.998-.596c-1.343-.077-2.7-.066-4.037.1-1.337.15-2.654.439-3.952.832a22.778 22.778 0 0 0-7.148 3.65 23.129 23.129 0 0 0-5.448 5.895c-2.935 4.52-4.124 10.102-3.387 15.434a22.736 22.736 0 0 0 2.49 7.63 25.56 25.56 0 0 0 2.212 3.368 49.198 49.198 0 0 0 2.657 3.063c.07.068.056.173-.012.244.036.069-.069.071-.14.02M107.446 90.144c-.847 1.15-1.852 2.18-2.947 3.11l-.84.661c-.29.215-.582.413-.874.628-.291.215-.601.396-.91.576-.31.18-.602.378-.93.542a22.41 22.41 0 0 1-3.932 1.719l-.52.168c-.172.055-.345.111-.518.15l-1.04.265c-.346.077-.71.137-1.056.214a4.984 4.984 0 0 1-.538.098l-.538.08c-.711.12-1.425.135-2.155.185-.365.007-.713.015-1.079.005a5.528 5.528 0 0 1-.54-.006l-.54-.024a22.309 22.309 0 0 1-2.145-.2 21.563 21.563 0 0 1-2.115-.408c-.7-.16-1.382-.372-2.066-.602-.684-.23-1.35-.494-2.001-.795-1.3-.6-2.552-1.34-3.65-2.258-.071-.068-.09-.172-.023-.243.051-.071.138-.09.226-.04.616.336 1.232.671 1.848.99.633.3 1.249.618 1.899.883 1.282.548 2.596.991 3.943 1.312.682.16 1.364.285 2.045.375.68.108 1.378.163 2.075.184l.523.024c.174.014.348-.007.522.006.348-.007.696.004 1.044-.004.696-.05 1.391-.08 2.068-.182l.52-.063c.174-.021.348-.06.521-.098.347-.06.676-.119 1.023-.195l1.004-.248c.174-.038.33-.094.502-.15l.502-.149a22.393 22.393 0 0 0 3.83-1.63 23.045 23.045 0 0 0 3.469-2.301 42.915 42.915 0 0 0 3.11-2.8.168.168 0 0 1 .243-.005c.089.068.09.155.04.226M108.698 61.569c1.34 1.679 2.39 3.59 3.129 5.63.184.502.351 1.02.501 1.54.133.52.283 1.04.399 1.577.213 1.058.392 2.135.45 3.213a22.968 22.968 0 0 1-.494 6.456c-.46 2.117-1.254 4.154-2.382 5.989-.05.088-.154.107-.242.057-.07-.05-.108-.137-.075-.225.848-1.934 1.52-3.933 1.948-5.98a23.43 23.43 0 0 0 .423-3.11 23.55 23.55 0 0 0-.374-6.245c-.097-.52-.23-1.023-.345-1.526-.15-.502-.281-1.004-.466-1.505-.668-1.99-1.63-3.868-2.728-5.657-.055-.086-.022-.191.064-.245.034-.07.138-.038.192.03M104.337 56.921c.264.117.51.286.74.438.23.17.46.356.656.543.212.188.408.393.587.615.178.223.357.446.484.704.054.086.022.192-.082.246-.05.036-.121.02-.174-.014a4.86 4.86 0 0 1-.672-.508c-.213-.188-.425-.357-.62-.545-.196-.187-.392-.392-.587-.58a9.555 9.555 0 0 1-.553-.633c-.054-.086-.038-.19.03-.244.051-.054.12-.055.191-.022M92.196 46.46l-.034.001-7.394-.63a.351.351 0 0 1-.321-.377.351.351 0 0 1 .376-.321l7.394.63a.351.351 0 0 1 .32.377c-.03.175-.167.317-.34.32M67.03 57.293l-2.846-.694c-.08-.018-.018-.223-.016-.308.017-.086.082-.154.177-.152l2.759.486c.175.02.3.176.281.364-.018.19-.164.324-.34.305h-.015zM75.765 49.832l-2.943-.784c-.087-.016-.159-.101-.143-.189a.19.19 0 0 1 .188-.16l2.97.435a.362.362 0 0 1 .338.359c.004.191-.167.334-.358.338l-.052.001z" fill="#EA9C00" fill-rule="nonzero"/>
        <path d="M97.977 75.047 94.91 68.23l.369-5.721 3.606-.702-.878 13.047z" fill="#FFB41D" fill-rule="nonzero"/>
        <path d="m94.911 68.23 3.066 6.817.03-.193.879-13.047 2.878-.547 3.606-.685-2.401 26.875-3.59.684-2.01.39-5.42-12.028-.578 7.362-.47 5.897-3.606.685-1.994.372-11.33-24.238 2.947-.566 3.59-.684 2.408 5.35 2.922 6.575.146.346.938-13.502 2.029-.39 3.606-.685z" fill="#FFE98F" fill-rule="nonzero"/>
        <path d="m91.95 76.495 5.418 12.029-3.588.684-2.41-5.35zM83.316 64.778l3.606-.685-.938 13.502-.146-.346-2.922-6.576zM73.97 66.574 85.3 90.812l-3.606.685-11.33-24.239z" fill="#FFB41D" fill-rule="nonzero"/>
        <path d="m101.764 61.26 3.606-.685-2.401 26.875-3.59.684M88.95 63.703l3.607-.685 2.354 5.212 3.066 6.817.03-.193.879-13.047M82.916 70.673l2.922 6.576.146.346.938-13.502M76.918 66.008l3.59-.684 2.408 5.35M85.3 90.812 73.97 66.574M91.37 83.858l-.469 5.897-3.606.685M97.368 88.524 91.95 76.495l-.578 7.363" stroke="#EA9C00" stroke-linecap="round" stroke-linejoin="round" stroke-width=".5"/>
        <path d="M82.916 70.673h0l.4-5.895 3.606-.685 2.029-.39M76.918 66.008l-2.947.566-3.607.685 11.33 24.238 3.607-.685 1.994-.372M99.38 88.134l-2.012.39-3.588.684-2.41-5.35M94.911 68.23l.369-5.721 3.606-.702 2.878-.547" stroke="#EA9C00" stroke-linecap="round" stroke-linejoin="round" stroke-width=".5"/>
    </g>
</svg>
