<?xml version="1.0" encoding="UTF-8"?>
<svg width="22px" height="14px" viewBox="0 0 22 14" version="1.1" xmlns="http://www.w3.org/2000/svg" xmlns:xlink="http://www.w3.org/1999/xlink">
    <title>apple-pay-3 2</title>
    <g id="Screens-+-UI-Kit" stroke="none" stroke-width="1" fill="none" fill-rule="evenodd">
        <g id="Deposit-Popup" transform="translate(-858.000000, -616.000000)" fill="#000000" fill-rule="nonzero">
            <g id="Group-13" transform="translate(838.000000, 301.000000)">
                <g id="apple-pay-3" transform="translate(20.000000, 315.000000)">
                    <path d="M5.13233842,5.08828198 C5.09383074,4.77563527 5.24289273,4.44304161 5.41141559,4.23966948 C5.59898526,4.001607 5.9231951,3.83205796 6.18902231,3.81818182 C6.22131908,4.14427104 6.09834293,4.46342218 5.91657012,4.70105103 C5.72858638,4.93217543 5.43087646,5.11516699 5.13233842,5.08828198 Z" id="Path"></path>
                    <path d="M7.47572816,7.71042343 C7.46878619,7.73007105 7.36075182,8.08916268 7.09652319,8.46121337 C6.86613665,8.78769831 6.62924202,9.10749469 6.25003705,9.11418324 C5.88428215,9.1208718 5.76236385,8.905166 5.34237483,8.905166 C4.92238581,8.905166 4.78701745,9.10749469 4.44165457,9.1208718 C4.07589967,9.13383086 3.79865485,8.7743212 3.56826831,8.4482543 C3.09404517,7.78859588 2.73523224,6.58758279 3.22290544,5.77784999 C3.45980008,5.3731926 3.89323916,5.1186096 4.36052033,5.11192105 C4.71933327,5.10565053 5.05124608,5.34058591 5.26818256,5.34058591 C5.48468516,5.34058591 5.87039822,5.06635529 6.32422933,5.09269146 C6.50038175,5.10565053 7.00844698,5.15790484 7.33341783,5.62108705 C7.3065177,5.64115271 6.73076829,5.96094909 6.73771026,6.63314855 C6.74421835,7.43619281 7.46878619,7.70373488 7.47572816,7.71042343 Z" id="Path"></path>
                    <path d="M10.2636144,4.03030303 L8.33009709,4.03030303 L8.33009709,9.12121212 L9.13044645,9.12121212 L9.13044645,7.38208978 L10.2385209,7.38208978 C11.2501836,7.38208978 11.961165,6.69765258 11.961165,5.70250262 C11.961165,4.71126373 11.2647114,4.03030303 10.2636144,4.03030303 Z M10.0492193,6.71851162 L9.13044645,6.71851162 L9.13044645,4.69692314 L10.0527412,4.69692314 C10.7461132,4.69692314 11.142766,5.06412913 11.142766,5.70597913 C11.142766,6.34826369 10.7461132,6.71851162 10.0492193,6.71851162 Z" id="Shape"></path>
                    <path d="M13.6668423,5.51515152 C12.7349881,5.51515152 12.1545105,6.00613463 12.111692,6.6720062 L12.8426965,6.6720062 C12.9106764,6.342525 13.1901002,6.13222704 13.6381495,6.13222704 C14.1113602,6.13222704 14.3943155,6.37750269 14.3943155,6.78773485 L14.3943155,7.07187459 L13.3622571,7.13146621 C12.4661585,7.18069407 11.961165,7.57667606 11.961165,8.2218201 C11.961165,8.88423708 12.4771942,9.33333333 13.2152616,9.33333333 C13.7101023,9.33333333 14.1868444,9.07380752 14.4053512,8.66357536 L14.4230083,8.66357536 L14.4230083,9.2698553 L15.1650485,9.2698553 L15.1650485,6.72814323 C15.1650485,5.98842988 14.5810395,5.51515152 13.6668423,5.51515152 Z M14.3943155,7.88888432 C14.3943155,8.36907185 13.9714276,8.73353074 13.430237,8.73353074 C13.0148534,8.73353074 12.7424924,8.52323278 12.7424924,8.20066076 C12.7424924,7.88542973 13.0038177,7.68549553 13.4659927,7.65397243 L14.3943155,7.5978354 L14.3943155,7.88888432 L14.3943155,7.88888432 Z" id="Shape"></path>
                    <path d="M18.2290414,5.51515152 L19.0097087,5.51515152 L17.6605165,9.41800813 C17.352214,10.3168636 16.9962533,10.6060606 16.2497481,10.6060606 C16.1881719,10.6060606 16.0030218,10.5991129 15.9486155,10.5886914 L15.9486155,9.971651 C16.0030218,9.98554635 16.1261741,9.98554635 16.1881719,9.98554635 C16.5306365,9.98554635 16.7153649,9.83747402 16.8283951,9.45665457 C16.8283951,9.44970689 16.8933453,9.23128935 16.8933453,9.22781551 L15.592233,5.51515152 L16.3935663,5.51515152 L17.3045558,8.53304798 L17.3180519,8.53304798 L18.2290414,5.51515152 Z" id="Path"></path>
                    <path d="M21.9995702,1.73464985 C21.9976791,1.39989564 21.9879659,1.048267 21.8306625,0.74397217 C21.7037024,0.498289231 21.5001106,0.294557369 21.2525942,0.168960457 C20.9439186,0.0123060774 20.5946279,0.00303582911 20.2554801,0.00107070735 C20.1802668,0.000643506971 20.1050534,0.000643506971 20.0298401,0.000643506971 C20.0298401,0.000643506971 1.97090043,0.000643506971 1.97090043,0.000643506971 C1.69497489,0.000643506971 1.41406378,-0.008284981 1.14140465,0.0403731424 C0.867885941,0.0892875861 0.610269481,0.215397139 0.412909656,0.410755873 C0.215420895,0.606242767 0.0892773665,0.863716437 0.0402812429,1.13486052 C-0.00875785975,1.4060046 0.000740511577,1.68496645 0.000740511577,1.95935725 C0.000740511577,1.95935725 0.000740511577,12.0417135 0.000740511577,12.0417135 C0.000740511577,12.1164735 0.000310721019,12.1912336 0.000740511577,12.2659937 C0.00267456909,12.6022004 0.0126886891,12.950924 0.169648201,13.2566713 C0.295834709,13.5025252 0.500372035,13.7068124 0.748146291,13.831683 C1.05677889,13.987184 1.40688628,13.9952581 1.74526039,13.9991456 C1.82004394,14 1.89568708,14 1.97090043,14 L20.0298401,14 C20.1050534,14 20.1802668,14 20.2554801,13.9991456 C20.5911036,13.9953435 20.9426293,13.9883374 21.2525942,13.831683 C21.4997668,13.7067697 21.7052926,13.5024397 21.8306625,13.2566713 C21.9865476,12.9510095 21.9976362,12.6015596 21.9995702,12.2659937 C22,12.1912336 22,12.1164735 22,12.0417135 L22,1.95935725 C22,1.88416999 22,1.80940992 21.9995702,1.73464985 Z M21.5307117,12.0417135 C21.5307117,12.1151919 21.5307117,12.1886704 21.5302389,12.2638577 C21.5287347,12.5244926 21.534193,12.8070002 21.4124763,13.0452071 C21.3314178,13.2038266 21.1983976,13.3354898 21.0389883,13.4160171 C20.7990792,13.5372138 20.5144289,13.5311476 20.2520418,13.5326428 C20.1781178,13.53307 20.1037641,13.53307 20.0298401,13.53307 L1.96789189,13.53307 C1.8948275,13.53307 1.8217631,13.53307 1.74740934,13.5326428 C1.48459241,13.5307631 1.20062979,13.5370002 0.960462827,13.4151627 C0.801053509,13.3342509 0.669064829,13.2041257 0.588264204,13.0452071 C0.466762413,12.806274 0.47239267,12.5245353 0.470501591,12.2634305 C0.470501591,12.2634305 0.470071801,12.0878511 0.470071801,12.0878511 L0.470071801,1.91279241 L0.470501591,1.73806746 C0.470931382,1.6782594 0.471361172,1.61845135 0.473080335,1.5586433 C0.478925486,1.35521048 0.494011135,1.13943156 0.588264204,0.955009159 C0.668935892,0.797201338 0.801999048,0.66489738 0.960849639,0.585053628 C1.14832428,0.490855944 1.3615004,0.476373852 1.56779986,0.470521206 C1.62797054,0.468812405 1.68814122,0.468385204 1.74788211,0.467958004 L1.97094341,0.467530804 L20.0298831,0.467530804 C20.0298831,0.467530804 20.2520848,0.467958004 20.2520848,0.467958004 C20.514343,0.468470644 20.8003256,0.4638996 21.0398909,0.585010908 C21.19973,0.665751781 21.330988,0.797201338 21.4125193,0.955820839 C21.5348377,1.19381417 21.5287776,1.47785971 21.5302819,1.73845194 C21.5307117,1.8119304 21.5307117,1.88540887 21.5307117,1.95931453 L21.5307117,12.0417135 L21.5307117,12.0417135 Z" id="Shape"></path>
                    <path d="M5.13233842,5.08828198 C5.09383074,4.77563527 5.24289273,4.44304161 5.41141559,4.23966948 C5.59898526,4.001607 5.9231951,3.83205796 6.18902231,3.81818182 C6.22131908,4.14427104 6.09834293,4.46342218 5.91657012,4.70105103 C5.72858638,4.93217543 5.43087646,5.11516699 5.13233842,5.08828198 Z" id="Path"></path>
                    <path d="M7.47572816,7.71042343 C7.46878619,7.73007105 7.36075182,8.08916268 7.09652319,8.46121337 C6.86613665,8.78769831 6.62924202,9.10749469 6.25003705,9.11418324 C5.88428215,9.1208718 5.76236385,8.905166 5.34237483,8.905166 C4.92238581,8.905166 4.78701745,9.10749469 4.44165457,9.1208718 C4.07589967,9.13383086 3.79865485,8.7743212 3.56826831,8.4482543 C3.09404517,7.78859588 2.73523224,6.58758279 3.22290544,5.77784999 C3.45980008,5.3731926 3.89323916,5.1186096 4.36052033,5.11192105 C4.71933327,5.10565053 5.05124608,5.34058591 5.26818256,5.34058591 C5.48468516,5.34058591 5.87039822,5.06635529 6.32422933,5.09269146 C6.50038175,5.10565053 7.00844698,5.15790484 7.33341783,5.62108705 C7.3065177,5.64115271 6.73076829,5.96094909 6.73771026,6.63314855 C6.74421835,7.43619281 7.46878619,7.70373488 7.47572816,7.71042343 Z" id="Path"></path>
                    <path d="M10.2636144,4.03030303 L8.33009709,4.03030303 L8.33009709,9.12121212 L9.13044645,9.12121212 L9.13044645,7.38208978 L10.2385209,7.38208978 C11.2501836,7.38208978 11.961165,6.69765258 11.961165,5.70250262 C11.961165,4.71126373 11.2647114,4.03030303 10.2636144,4.03030303 Z M10.0492193,6.71851162 L9.13044645,6.71851162 L9.13044645,4.69692314 L10.0527412,4.69692314 C10.7461132,4.69692314 11.142766,5.06412913 11.142766,5.70597913 C11.142766,6.34826369 10.7461132,6.71851162 10.0492193,6.71851162 Z" id="Shape"></path>
                    <path d="M13.6668423,5.51515152 C12.7349881,5.51515152 12.1545105,6.00613463 12.111692,6.6720062 L12.8426965,6.6720062 C12.9106764,6.342525 13.1901002,6.13222704 13.6381495,6.13222704 C14.1113602,6.13222704 14.3943155,6.37750269 14.3943155,6.78773485 L14.3943155,7.07187459 L13.3622571,7.13146621 C12.4661585,7.18069407 11.961165,7.57667606 11.961165,8.2218201 C11.961165,8.88423708 12.4771942,9.33333333 13.2152616,9.33333333 C13.7101023,9.33333333 14.1868444,9.07380752 14.4053512,8.66357536 L14.4230083,8.66357536 L14.4230083,9.2698553 L15.1650485,9.2698553 L15.1650485,6.72814323 C15.1650485,5.98842988 14.5810395,5.51515152 13.6668423,5.51515152 Z M14.3943155,7.88888432 C14.3943155,8.36907185 13.9714276,8.73353074 13.430237,8.73353074 C13.0148534,8.73353074 12.7424924,8.52323278 12.7424924,8.20066076 C12.7424924,7.88542973 13.0038177,7.68549553 13.4659927,7.65397243 L14.3943155,7.5978354 L14.3943155,7.88888432 L14.3943155,7.88888432 Z" id="Shape"></path>
                    <path d="M19.0097087,5.51515152 L17.6605165,9.41800813 C17.352214,10.3168636 16.9962533,10.6060606 16.2497481,10.6060606 C16.1881719,10.6060606 16.0030218,10.5991129 15.9486155,10.5886914 L15.9486155,9.971651 C16.0030218,9.98554635 16.1261741,9.98554635 16.1881719,9.98554635 C16.5306365,9.98554635 16.7153649,9.83747402 16.8283951,9.45665457 C16.8283951,9.44970689 16.8933453,9.23128935 16.8933453,9.22781551 L15.592233,5.51515152 L16.3935663,5.51515152 L17.3045558,8.53304798 L17.3180519,8.53304798 L18.2290414,5.51515152 L19.0097087,5.51515152 L19.0097087,5.51515152 Z" id="Path"></path>
                    <g id="Group" transform="translate(2.990291, 3.818182)">
                        <g id="Path">
                            <path d="M3.02740952,0.875189742 C2.83204098,1.10430376 2.52263574,1.28570359 2.21236984,1.25905243 C2.17234941,0.949125221 2.3272672,0.619424567 2.50241036,0.417821429 C2.69734858,0.181829696 3.03429476,0.013755438 3.31056481,0 C3.34413033,0.323252793 3.21632316,0.639627866 3.02740952,0.875189742 Z"></path>
                            <path d="M4.44878021,4.0114296 C4.44189497,4.0316329 4.3347435,4.40088044 4.07267425,4.78345356 C3.84417052,5.11917222 3.60921187,5.44801316 3.23310592,5.45489088 C2.8703401,5.46176859 2.74941816,5.23996216 2.33286145,5.23996216 C1.91630474,5.23996216 1.78204266,5.44801316 1.43950222,5.46176859 C1.07673641,5.47509418 0.801757339,5.10541678 0.573253605,4.77012798 C0.102905996,4.09181294 -0.252974584,2.85683253 0.230713169,2.02419867 C0.46567181,1.60809667 0.895568665,1.34631349 1.35903104,1.33943577 C1.71491162,1.33298791 2.04411191,1.57456779 2.2592755,1.57456779 C2.47400877,1.57456779 2.85656963,1.29258131 3.30669187,1.31966233 C3.4814047,1.33298791 3.98531783,1.38672009 4.30763289,1.86300213 C4.28095261,1.88363529 3.70990843,2.21247623 3.71679367,2.90368699 C3.72324858,3.72944312 4.44189497,4.00455188 4.44878021,4.0114296 Z"></path>
                        </g>
                        <g transform="translate(5.335685, 0.383863)">
                            <path d="M1.88999698,0 L0,0 L0,5.03577987 L0.782334817,5.03577987 L0.782334817,3.31549041 L1.86546833,3.31549041 C2.8543602,3.31549041 3.5493386,2.63846495 3.5493386,1.65409142 C3.5493386,0.673586604 2.868561,0 1.88999698,0 Z M1.68042765,2.65909811 L0.782334817,2.65909811 L0.782334817,0.659401308 L1.68387026,0.659401308 C2.36163557,0.659401308 2.74936037,1.02263084 2.74936037,1.65753028 C2.74936037,2.29285957 2.36163557,2.65909811 1.68042765,2.65909811 Z" id="Shape"></path>
                            <path d="M5.41695857,1.29816946 C4.50853789,1.29816946 3.94265764,1.78691737 3.9009159,2.44975753 L4.61353772,2.44975753 C4.6798081,2.12177631 4.95220521,1.91243574 5.3889873,1.91243574 C5.85029804,1.91243574 6.12613776,2.15659476 6.12613776,2.56495933 L6.12613776,2.84780552 L5.12003281,2.90712585 C4.24646863,2.95612959 3.75417434,3.35030886 3.75417434,3.99251587 C3.75417434,4.65191718 4.25722681,5.09896892 4.97673386,5.09896892 C5.45913063,5.09896892 5.92388399,4.8406246 6.13689594,4.43226003 L6.15410903,4.43226003 L6.15410903,5.03577987 L6.87748902,5.03577987 L6.87748902,2.505639 C6.87748902,1.76929321 6.30816616,1.29816946 5.41695857,1.29816946 Z M6.12613776,3.66109579 C6.12613776,4.13909726 5.71388432,4.50189694 5.1863032,4.50189694 C4.78136532,4.50189694 4.51585345,4.29255637 4.51585345,3.97145286 C4.51585345,3.65765693 4.77060714,3.45863294 5.2211597,3.42725335 L6.12613776,3.37137188 L6.12613776,3.66109579 L6.12613776,3.66109579 Z" id="Shape"></path>
                            <path d="M9.88719733,1.36436751 L8.95769062,4.35187669 L8.94392015,4.35187669 L8.01441344,1.36436751 L7.19679179,1.36436751 L8.52435115,5.03964859 C8.52435115,5.04308745 8.45808076,5.25930574 8.45808076,5.26618346 C8.34275308,5.64316843 8.15426977,5.78974982 7.8048441,5.78974982 C7.741586,5.78974982 7.61593047,5.78974982 7.56041826,5.77599438 L7.56041826,6.3868218 C7.61593047,6.39713838 7.8048441,6.4040161 7.86767187,6.4040161 C8.62935098,6.4040161 8.99254712,6.11773104 9.30711629,5.22792615 L10.6837329,1.36436751 L9.88719733,1.36436751 L9.88719733,1.36436751 Z" id="Path"></path>
                        </g>
                    </g>
                </g>
            </g>
        </g>
    </g>
</svg>