<?xml version="1.0" encoding="UTF-8"?>
<svg width="22px" height="14px" viewBox="0 0 22 14" version="1.1" xmlns="http://www.w3.org/2000/svg" xmlns:xlink="http://www.w3.org/1999/xlink">
    <title>card-3</title>
    <g id="Screens-+-UI-Kit" stroke="none" stroke-width="1" fill="none" fill-rule="evenodd">
        <g id="Deposit-Popup" transform="translate(-549.000000, -397.000000)" fill="#0E0927" fill-rule="nonzero">
            <g id="Group-10" transform="translate(229.000000, 185.000000)">
                <g id="Group-9" transform="translate(33.000000, 112.000000)">
                    <g id="Group-3" transform="translate(244.000000, 82.000000)">
                        <g id="card-3" transform="translate(43.000000, 18.000000)">
                            <path d="M19.3018868,0 L2.69811321,0 C1.21,0 0,1.15056338 0,2.56338028 L0,11.4366197 C0,12.8504225 1.21103774,14 2.69811321,14 L19.3018868,14 C20.79,14 22,12.8494366 22,11.4366197 L22,2.56338028 C22,1.14957746 20.79,0 19.3018868,0 Z M20.754717,11.4366197 C20.754717,12.1977465 20.1019811,12.8169014 19.3018868,12.8169014 L2.69811321,12.8169014 C1.89698113,12.8169014 1.24528302,12.1977465 1.24528302,11.4366197 L1.24528302,4.96309859 L20.754717,4.96309859 L20.754717,11.4366197 Z M20.754717,3.77901408 L1.24528302,3.77901408 L1.24528302,2.56338028 C1.24528302,1.80225352 1.89698113,1.18309859 2.69811321,1.18309859 L19.3018868,1.18309859 C20.1019811,1.18309859 20.754717,1.80225352 20.754717,2.56338028 L20.754717,3.77901408 Z M14.5283019,10.3895775 C14.5283019,10.0622535 14.8074528,9.79802817 15.1509434,9.79802817 L17.2264151,9.79802817 C17.5699057,9.79802817 17.8490566,10.0632394 17.8490566,10.3895775 C17.8490566,10.7159155 17.5699057,10.9811268 17.2264151,10.9811268 L15.1509434,10.9811268 C14.8074528,10.9811268 14.5283019,10.7159155 14.5283019,10.3895775 L14.5283019,10.3895775 Z" id="Shape"></path>
                        </g>
                    </g>
                </g>
            </g>
        </g>
    </g>
</svg>