<?xml version="1.0" encoding="UTF-8"?>
<svg width="19px" height="20px" viewBox="0 0 19 20" version="1.1" xmlns="http://www.w3.org/2000/svg" xmlns:xlink="http://www.w3.org/1999/xlink">
    <title>bitcoin icon</title>
    <g id="Screens-+-UI-Kit" stroke="none" stroke-width="1" fill="none" fill-rule="evenodd">
        <g id="Deposit-Popup" transform="translate(-859.000000, -361.000000)">
            <g id="Group-13" transform="translate(838.000000, 301.000000)">
                <g id="bitcoin-icon" transform="translate(21.000000, 60.000000)">
                    <circle id="Oval" fill="#FFFFFF" cx="9.5" cy="9.5" r="8.5"></circle>
                    <path d="M8.6693554,9.76974139 L8.11559234,12.1004934 C8.82757342,12.2612349 11.0030712,12.9845717 11.3195072,11.6584542 C11.6359432,10.2921513 9.38133649,9.97066829 8.6693554,9.76974139 Z" id="Path" fill="#ED6C0C" fill-rule="nonzero"></path>
                    <path d="M11.3195072,11.6986396 C11.6754978,10.3323367 9.38133649,9.97066829 8.6693554,9.80992677 L8.11559234,12.1004934" id="Path" fill="#E05A00" fill-rule="nonzero"></path>
                    <path d="M9.4604455,6.59509646 L8.94623694,8.72492154 C9.5395545,8.88566306 11.3590617,9.48844374 11.6359432,8.28288237 C11.9128248,7.03713563 10.0537631,6.75583797 9.4604455,6.59509646 Z" id="Path" fill="#ED6C0C" fill-rule="nonzero"></path>
                    <path d="M11.6359432,8.28288237 C11.9523793,7.03713563 10.0537631,6.75583797 9.4604455,6.59509646 L8.94623694,8.72492154" id="Path" fill="#E05A00" fill-rule="nonzero"></path>
                    <path d="M11.7941613,0.28599197 C6.69163017,-0.999940155 1.54954457,2.17470478 0.283800427,7.31843328 C-0.98194372,12.5023472 2.10330764,17.7264464 7.20583873,19.0123785 C12.3083698,20.2983107 17.4504554,17.1638511 18.7161996,11.9799372 C19.9819437,6.83620873 16.8966924,1.61210947 11.7941613,0.28599197 Z M13.6927775,8.28288237 C13.574114,9.20714609 13.0599054,9.68937064 12.3479243,9.85011215 C13.2972324,10.3323367 13.7718865,11.0958589 13.2972324,12.4219764 C12.7434694,14.0695769 11.3986162,14.1901331 9.61866351,13.86865 L9.18356396,15.6368067 L8.15514684,15.3153237 L8.59024639,13.5873524 C8.31336486,13.5069816 8.03648333,13.4266109 7.7596018,13.3864255 L7.32450225,15.1143968 L6.29608513,14.8330991 L6.73118468,13.0649425 C6.49385765,12.9845717 6.25653062,12.9443863 5.97964909,12.8640156 L4.63479593,12.5023472 L5.14900449,11.2967858 L5.90054008,11.4977127 C6.17742161,11.5780834 6.33563963,11.3771565 6.37519414,11.2566004 L7.04762071,8.48380927 C7.08717522,8.48380927 7.12672972,8.48380927 7.16628423,8.52399465 C7.12672972,8.52399465 7.08717522,8.48380927 7.04762071,8.48380927 L7.52227477,6.5147257 C7.52227477,6.27361343 7.44316576,5.99231578 7.04762071,5.91194502 L6.29608513,5.71101812 L6.57296666,4.58582751 L7.99692883,4.94749592 L7.99692883,4.94749592 C8.19470135,4.9876813 8.43202838,5.06805206 8.6693554,5.10823744 L9.10445495,3.38026615 L10.1328721,3.6615638 L9.69777252,5.34934971 C9.97465406,5.42972047 10.2515356,5.46990585 10.5284171,5.55027661 L10.9239622,3.86249069 L11.9523793,4.14378835 L11.5172797,5.87175964 C12.9016874,6.31379881 13.89055,6.99695025 13.6927775,8.28288237 Z" id="Shape" fill="#FFB600" fill-rule="nonzero"></path>
                    <path d="M0.283800427,7.31843328 C-0.98194372,12.5023472 2.10330764,17.7264464 7.20583873,19.0123785 C12.3083698,20.2983107 17.4504554,17.1638511 18.7161996,11.9799372 C19.9819437,6.79602335 16.8966924,1.5719241 11.7941613,0.28599197 M13.6927775,8.28288237 C13.574114,9.20714609 13.0599054,9.68937064 12.3479243,9.85011215 C13.2972324,10.3323367 13.7718865,11.0958589 13.2972324,12.4219764 C12.7434694,14.0695769 11.3986162,14.1901331 9.61866351,13.86865 L9.18356396,15.6368067 L8.15514684,15.3153237 L8.59024639,13.5873524 C8.31336486,13.5069816 8.03648333,13.4266109 7.7596018,13.3864255 L7.32450225,15.1143968 L6.29608513,14.8330991 L6.73118468,13.0649425 C6.49385765,12.9845717 6.25653062,12.9443863 5.97964909,12.8640156 L4.63479593,12.5023472 L5.14900449,11.2967858 L5.90054008,11.4977127 C6.17742161,11.5780834 6.33563963,11.3771565 6.37519414,11.2566004 L7.04762071,8.48380927 C7.08717522,8.48380927 7.12672972,8.48380927 7.16628423,8.52399465 C7.12672972,8.52399465 7.08717522,8.48380927 7.04762071,8.48380927 L7.52227477,6.5147257 C7.52227477,6.27361343 7.44316576,5.99231578 7.04762071,5.91194502 L6.29608513,5.71101812 L6.57296666,4.58582751 L7.99692883,4.94749592 L7.99692883,4.94749592 C8.19470135,4.9876813 8.43202838,5.06805206 8.6693554,5.10823744 L9.10445495,3.38026615 L10.1328721,3.6615638 L9.69777252,5.34934971 C9.97465406,5.42972047 10.2515356,5.46990585 10.5284171,5.55027661 L10.9239622,3.86249069 L11.9523793,4.14378835 L11.5172797,5.87175964 C12.9016874,6.31379881 13.89055,6.99695025 13.6927775,8.28288237 Z" id="Shape" fill="#F6921E" fill-rule="nonzero"></path>
                    <path d="M18.6370906,12.3416056 L13.495005,7.11750638 C13.6927775,7.43898942 13.811441,7.84084321 13.732332,8.32306775 C13.6136685,9.24733147 13.0994599,9.72955601 12.3874788,9.89029753 C13.3367869,10.3725221 13.811441,11.1360443 13.3367869,12.4621618 C12.7830239,14.1097623 11.4381707,14.2303185 9.65821802,13.9088354 L9.22311847,15.6769921 L8.15514684,15.3153237 L8.59024639,13.5873524 C8.31336486,13.5069816 8.03648333,13.4266109 7.7596018,13.3864255 L7.32450225,15.1143968 L7.08717522,15.034026 L11.1217347,19.1329347 C14.6025311,18.530154 17.6086734,15.9582897 18.6370906,12.3416056 Z" id="Path" fill="#D85107" fill-rule="nonzero"></path>
                    <g id="Group" transform="translate(4.634796, 5.349350)" fill="#E26600" fill-rule="nonzero">
                        <path d="M0,7.19318282 L0,7.19318282 L1.77995271,9.00152488 L2.09638874,7.71559275 C1.85906172,7.63522199 1.62173469,7.59503661 1.34485316,7.51466586 L0,7.19318282 Z" id="Path"></path>
                        <path d="M7.11981083,0 L7.11981083,0 L6.96159281,0.522409926 C7.43624687,0.683151441 7.87134642,0.884078336 8.22733696,1.12519061 L7.11981083,0 Z" id="Path"></path>
                    </g>
                    <g id="Group" transform="translate(6.256531, 3.661564)" fill="#ED6C0C" fill-rule="nonzero">
                        <path d="M3.91589596,0 L3.91589596,0 L3.48079641,1.68778591 C3.75767794,1.76815667 4.03455947,1.80834205 4.311441,1.88871281 L4.58832253,0.683151441 L3.91589596,0 Z" id="Path"></path>
                        <path d="M5.77495767,0.442039168 L5.77495767,0.442039168 L5.33985812,2.17001046 L5.37941263,2.21019584 C6.56604776,2.61204963 7.47580137,3.25501569 7.47580137,4.34002092 L12.2223419,9.16226639 C12.3014509,8.88096874 12.3805599,8.59967109 12.459669,8.35855881 C12.538778,8.03707578 12.5783325,7.75577813 12.617887,7.4342951 L5.77495767,0.442039168 Z" id="Path"></path>
                        <path d="M6.68471128,14.9891463 L3.08525136,11.3322769 L2.92703334,11.9350575 L1.89861622,11.6537599 L2.21505226,10.4080131 L1.50307117,9.68467632 L1.50307117,9.68467632 L1.06797162,11.4126476 L0.0395545046,11.13135 L0.0395545046,11.0911646 L0,11.13135 L4.311441,15.5115563 C5.1420856,15.4713709 5.93317569,15.270444 6.68471128,14.9891463 Z" id="Path"></path>
                    </g>
                    <path d="M13.9301045,18.1684856 L9.65821802,13.8284647 C9.65821802,13.8284647 9.65821802,13.8284647 9.61866351,13.8284647 L9.18356396,15.5966213 L8.19470135,15.3555091 L11.7941613,19.0123785 C12.5456969,18.8114516 13.2576779,18.530154 13.9301045,18.1684856 Z" id="Path" fill="#E05A00" fill-rule="nonzero"></path>
                </g>
            </g>
        </g>
    </g>
</svg>