<svg width="30" height="30" viewBox="0 0 30 30" fill="none" xmlns="http://www.w3.org/2000/svg">
<path d="M15 0C6.71652 0 0 6.71652 0 15C0 23.2835 6.71652 30 15 30C23.2835 30 30 23.2835 30 15C30 6.71652 23.2835 0 15 0ZM17.1261 12.5826C17.2734 12.5826 17.394 12.7031 17.394 12.8504V13.7612C17.394 13.9085 17.2734 14.029 17.1261 14.029H12.5725C12.5625 14.1763 12.5625 14.3337 12.5625 14.4911V15.6964H17.1228C17.2701 15.6964 17.3906 15.817 17.3906 15.9643V16.875C17.3906 17.0223 17.2701 17.1429 17.1228 17.1429H12.7533C13.2656 19.2187 14.8058 20.4442 17.0993 20.4442C17.7656 20.4442 18.3415 20.404 18.8337 20.3069C18.9978 20.2734 19.1518 20.4007 19.1518 20.5681V22.0011C19.1518 22.1283 19.0614 22.2355 18.9375 22.2623C18.4051 22.3761 17.7891 22.433 17.0859 22.433C13.4096 22.433 10.9587 20.4643 10.3828 17.1429H9.375C9.22768 17.1429 9.10714 17.0223 9.10714 16.875V15.9643C9.10714 15.817 9.22768 15.6964 9.375 15.6964H10.2489V14.4609C10.2489 14.3136 10.2489 14.1663 10.2589 14.0324H9.375C9.22768 14.0324 9.10714 13.9118 9.10714 13.7645V12.8538C9.10714 12.7065 9.22768 12.5859 9.375 12.5859H10.4364C11.096 9.43192 13.5167 7.56696 17.0859 7.56696C17.7857 7.56696 18.4051 7.63058 18.9375 7.74777C19.0614 7.77455 19.1484 7.8817 19.1484 8.00893V9.44196H19.1518C19.1518 9.61272 18.9978 9.73661 18.8304 9.70312C18.3382 9.60603 17.7656 9.5558 17.0993 9.5558C14.9096 9.5558 13.4029 10.6775 12.827 12.5826H17.1261Z" fill="#EA9C00"/>
</svg>
