<?xml version="1.0" encoding="UTF-8"?>
<svg width="17px" height="17px" viewBox="0 0 17 17" version="1.1" xmlns="http://www.w3.org/2000/svg" xmlns:xlink="http://www.w3.org/1999/xlink">
    <title>search-7</title>
    <g id="Screens-+-UI-Kit" stroke="none" stroke-width="1" fill="none" fill-rule="evenodd">
        <g id="Deposit-Popup" transform="translate(-862.000000, -665.000000)" fill-rule="nonzero">
            <g id="Group-13" transform="translate(838.000000, 301.000000)">
                <g id="search-7" transform="translate(24.000000, 364.000000)">
                    <path d="M3.76755859,10.2733125 L3.1758125,12.4823828 L1.01299414,12.5281367 C0.366628906,11.3292715 0,9.95761719 0,8.5 C0,7.09049414 0.342789062,5.76130664 0.95040625,4.59092969 L0.950871094,4.59092969 L2.87638672,4.94394531 L3.71987891,6.85790625 C3.54333789,7.37258789 3.44711523,7.92508789 3.44711523,8.5 C3.44718164,9.12395313 3.56020508,9.72177539 3.76755859,10.2733125 Z" id="Path" fill="#FBBB00"></path>
                    <path d="M16.8514824,6.91209375 C16.9490996,7.42627734 17,7.95729492 17,8.5 C17,9.10854687 16.9360176,9.70215234 16.8141289,10.2747402 C16.4003516,12.2231992 15.3191582,13.9245937 13.8213984,15.1286055 L13.8209336,15.1281406 L11.3956445,15.0043926 L11.0523906,12.8616289 C12.0462266,12.2787812 12.8229141,11.3666582 13.232043,10.2747402 L8.68686719,10.2747402 L8.68686719,6.91209375 L13.2983496,6.91209375 L16.8514824,6.91209375 L16.8514824,6.91209375 Z" id="Path" fill="#518EF8"></path>
                    <path d="M13.8209004,15.1281406 L13.8213652,15.1286055 C12.3647109,16.2994473 10.5143008,17 8.5,17 C5.26299414,17 2.44866406,15.1907285 1.01299414,12.5281699 L3.76755859,10.2733457 C4.48537695,12.1890996 6.33342969,13.5528516 8.5,13.5528516 C9.43124805,13.5528516 10.3036934,13.3011055 11.0523242,12.8616289 L13.8209004,15.1281406 Z" id="Path" fill="#28B446"></path>
                    <path d="M13.9255234,1.95685938 L11.1718887,4.21121875 C10.3970938,3.72691797 9.48121875,3.44714844 8.5,3.44714844 C6.28438867,3.44714844 4.40177148,4.87345508 3.71991211,6.85790625 L0.950871094,4.59092969 L0.95040625,4.59092969 C2.36505859,1.86345898 5.21488281,0 8.5,0 C10.5624121,0 12.4534297,0.734652344 13.9255234,1.95685938 Z" id="Path" fill="#F14336"></path>
                </g>
            </g>
        </g>
    </g>
</svg>