<?xml version="1.0" encoding="UTF-8"?>
<svg width="24px" height="23px" viewBox="0 0 21 20" version="1.1" xmlns="http://www.w3.org/2000/svg" xmlns:xlink="http://www.w3.org/1999/xlink">
    <title>metamask-logo</title>
    <g id="Screens-+-UI-Kit" stroke="none" stroke-width="1" fill="none" fill-rule="evenodd" stroke-linecap="round" stroke-linejoin="round">
        <g id="Deposit-Popup" transform="translate(-858.000000, -313.000000)" fill-rule="nonzero" stroke-width="0.5">
            <g id="Group-13" transform="translate(838.000000, 301.000000)">
                <g id="metamask-logo" transform="translate(21.000000, 13.000000)">
                    <polygon id="Path" stroke="#E17726" fill="#E17726" points="18.0603163 0 10.6379565 5.62499276 12.0182088 2.31000174"></polygon>
                    <polygon id="Path" stroke="#E27625" fill="#E27625" points="0.939706315 0 8.2959808 5.67749031 6.98184771 2.30999595"></polygon>
                    <polygon id="Path" stroke="#E27625" fill="#E27625" points="15.3878011 13.0424263 13.4129282 16.1324304 17.6416744 17.3249407 18.8530685 13.1099728"></polygon>
                    <polygon id="Path" stroke="#E27625" fill="#E27625" points="0.154114232 13.1099728 1.35812778 17.3249407 5.5795557 16.1324304 3.61199544 13.0424263"></polygon>
                    <polygon id="Path" stroke="#E27625" fill="#E27625" points="5.35192483 7.82248075 4.17729194 9.63749494 8.36198697 9.83249407 8.22251503 5.22000347"></polygon>
                    <polygon id="Path" stroke="#E27625" fill="#E27625" points="13.6478491 7.82253864 10.7332925 5.16755224 10.6378435 9.83255195 14.8225103 9.63755282"></polygon>
                    <polygon id="Path" stroke="#E27625" fill="#E27625" points="5.57961221 16.1324304 8.1124294 14.879956 5.93202186 13.1399549"></polygon>
                    <polygon id="Path" stroke="#E27625" fill="#E27625" points="10.8875706 14.879956 13.4130412 16.1324304 13.0679781 13.1399549"></polygon>
                    <polygon id="Path" stroke="#D5BFB2" fill="#D5BFB2" points="13.4130412 16.1325462 10.8875706 14.8800718 11.0931052 16.5600509 11.0710655 17.2725589"></polygon>
                    <polygon id="Path" stroke="#D5BFB2" fill="#D5BFB2" points="5.57961221 16.1325462 7.92893451 17.2725589 7.91424135 16.5600509 8.1124294 14.8800718"></polygon>
                    <polygon id="Path" stroke="#233447" fill="#233447" points="7.97290095 12.0299821 5.87319273 11.4000116 7.35618406 10.7024946"></polygon>
                    <polygon id="Path" stroke="#233447" fill="#233447" points="11.0270425 12.0299821 11.6437594 10.7024946 13.1340973 11.4000116"></polygon>
                    <polygon id="Path" stroke="#CC6228" fill="#CC6228" points="5.5795557 16.1324304 5.9466585 13.0424263 3.61202935 13.1099728"></polygon>
                    <polygon id="Path" stroke="#CC6228" fill="#CC6228" points="13.0532285 13.0424263 13.4129847 16.1324304 15.3878576 13.1099728"></polygon>
                    <polygon id="Path" stroke="#CC6228" fill="#CC6228" points="14.8225103 9.63743706 10.6378435 9.83243619 11.0269295 12.0299821 11.6436464 10.7024368 13.1339843 11.3999537"></polygon>
                    <polygon id="Path" stroke="#CC6228" fill="#CC6228" points="5.87319273 11.3999537 7.35618406 10.7024368 7.97290095 12.0299821 8.36198697 9.83243619 4.17729194 9.63743706"></polygon>
                    <polygon id="Path" stroke="#E27525" fill="#E27525" points="4.17742757 9.63743706 5.93207837 13.1399549 5.87330575 11.3999537"></polygon>
                    <polygon id="Path" stroke="#E27525" fill="#E27525" points="13.1340973 11.3999537 13.0680347 13.1399549 14.8226798 9.63743706"></polygon>
                    <polygon id="Path" stroke="#E27525" fill="#E27525" points="8.36221302 9.83243619 7.97307048 12.0299821 8.46495207 14.6249349 8.57509421 11.2049546"></polygon>
                    <polygon id="Path" stroke="#E27525" fill="#E27525" points="10.6379565 9.83243619 10.4323654 11.197488 10.535161 14.6249349 11.0270425 12.0299821"></polygon>
                    <polygon id="Path" stroke="#F5841F" fill="#F5841F" points="11.0270425 12.0300399 10.535161 14.6249928 10.8875706 14.8800139 13.0680347 13.1400127 13.1340973 11.4000116"></polygon>
                    <polygon id="Path" stroke="#F5841F" fill="#F5841F" points="5.87319273 11.4000116 5.93196534 13.1400127 8.11237288 14.8800139 8.46478253 14.6249928 7.97290095 12.0300399"></polygon>
                    <polygon id="Path" stroke="#C0AC9D" fill="#C0AC9D" points="11.071122 17.272501 11.0931052 16.5599931 10.9022638 16.394976 8.09779276 16.394976 7.91424135 16.5599931 7.92893451 17.272501 5.57961221 16.1324883 6.40186371 16.8224808 8.06840645 18 10.924247 18 12.5981363 16.8224808 13.4130412 16.1324883"></polygon>
                    <polygon id="Path" stroke="#161616" fill="#161616" points="10.8875141 14.879956 10.5351044 14.6249928 8.46478253 14.6249928 8.1124294 14.879956 7.91418484 16.5599931 8.09773624 16.394976 10.9022072 16.394976 11.0931052 16.5599931"></polygon>
                    <polygon id="Path" stroke="#763E1A" fill="#763E1A" points="18.3759365 5.99247555 19 2.88749783 18.0602598 0 10.8875706 5.43751809 13.6479621 7.82248075 17.5463385 8.98500897 18.4053228 7.95751577 18.03093 7.67997916 18.6255506 7.12502171 18.1704019 6.7650055 18.7650791 6.29999421"></polygon>
                    <polygon id="Path" stroke="#763E1A" fill="#763E1A" points="0 2.88749783 0.63137613 5.99247555 0.227591304 6.29999421 0.82959808 6.7650055 0.374421122 7.12502171 0.969086972 7.67997916 0.59466585 7.95751577 1.45363328 8.98500897 5.35203786 7.82248075 8.1124294 5.43751809 0.939723269 0"></polygon>
                    <polygon id="Path" stroke="#F5841F" fill="#F5841F" points="17.546395 8.98495109 13.6480187 7.82248075 14.8226798 9.63749494 13.0680347 13.1399549 15.3879706 13.1099728 18.8531815 13.1099728"></polygon>
                    <polygon id="Path" stroke="#F5841F" fill="#F5841F" points="5.35192483 7.82248075 1.45357112 8.98495109 0.154114232 13.1099728 3.61199544 13.1099728 5.93190883 13.1399549 4.17729759 9.63749494"></polygon>
                    <polygon id="Path" stroke="#F5841F" fill="#F5841F" points="10.6379 9.83249407 10.8875141 5.43746021 12.0180958 2.30999016 6.9817912 2.30999016 8.11237288 5.43746021 8.36198697 9.83249407 8.45743596 11.212479 8.46478253 14.6249928 10.5351044 14.6249928 10.542451 11.212479"></polygon>
                </g>
            </g>
        </g>
    </g>
</svg>