<svg width="30" height="26" viewBox="0 0 30 26" fill="none" xmlns="http://www.w3.org/2000/svg">
<path d="M29.5634 4.43222C29.4247 4.29221 29.2595 4.18118 29.0775 4.1056C28.8954 4.03001 28.7002 3.99137 28.5031 3.99192H27.4445V1.49697C27.444 1.10009 27.2861 0.719585 27.0055 0.438945C26.7249 0.158305 26.3444 0.000445743 25.9475 0H4.40527C3.23693 1.65421e-05 2.11644 0.464147 1.29029 1.29029C0.464147 2.11644 1.65421e-05 3.23693 0 4.40527V21.5422C1.65421e-05 22.7106 0.464147 23.831 1.29029 24.6572C2.11644 25.4833 3.23693 25.9475 4.40527 25.9475H28.4441C28.8401 25.9467 29.2197 25.7894 29.5001 25.5099C29.7805 25.2303 29.939 24.8513 29.9411 24.4553L30 5.49401C30.0012 5.29692 29.9633 5.10156 29.8883 4.91928C29.8134 4.73699 29.7029 4.57143 29.5634 4.43222ZM27.9468 23.9515H4.40527C3.76628 23.9515 3.15346 23.6977 2.70163 23.2459C2.2498 22.794 1.99596 22.1812 1.99596 21.5422V4.40527C1.99596 3.76628 2.2498 3.15346 2.70163 2.70163C3.15346 2.2498 3.76628 1.99596 4.40527 1.99596H25.4485V3.99192H4.49091V5.98788H28.0025L27.9468 23.9515Z" fill="#EA9C00"/>
</svg>
