<?xml version="1.0" encoding="UTF-8" standalone="no"?>
<svg
   inkscape:version="1.1.1 (3bf5ae0, 2021-09-20)"
   id="svg8"
   version="1.1"
   viewBox="0 0 30.034197 26.440481"
   height="99.932526"
   width="113.51508"
   sodipodi:docname="slider.svg"
   xmlns:inkscape="http://www.inkscape.org/namespaces/inkscape"
   xmlns:sodipodi="http://sodipodi.sourceforge.net/DTD/sodipodi-0.dtd"
   xmlns:xlink="http://www.w3.org/1999/xlink"
   xmlns="http://www.w3.org/2000/svg"
   xmlns:svg="http://www.w3.org/2000/svg"
   xmlns:rdf="http://www.w3.org/1999/02/22-rdf-syntax-ns#"
   xmlns:cc="http://creativecommons.org/ns#"
   xmlns:dc="http://purl.org/dc/elements/1.1/">
  <defs
     id="defs2">
    <linearGradient
       inkscape:collect="always"
       xlink:href="#linearGradient2195076"
       id="linearGradient2195078"
       x1="358.24353"
       y1="135.16376"
       x2="359.83618"
       y2="127.63557"
       gradientUnits="userSpaceOnUse" />
    <linearGradient
       inkscape:collect="always"
       id="linearGradient2195076">
      <stop
         style="stop-color:#3d557e;stop-opacity:1;"
         offset="0"
         id="stop2195072" />
      <stop
         style="stop-color:#4c699b;stop-opacity:1"
         offset="1"
         id="stop2195074" />
    </linearGradient>
  </defs>
  <sodipodi:namedview
     borderlayer="true"
     units="px"
     showgrid="false"
     inkscape:document-rotation="0"
     inkscape:current-layer="layer1"
     inkscape:document-units="px"
     inkscape:cy="45.709403"
     inkscape:cx="47.982246"
     inkscape:zoom="1.979899"
     inkscape:pageshadow="2"
     inkscape:pageopacity="0"
     borderopacity="1.0"
     bordercolor="#666666"
     pagecolor="#585858"
     id="base"
     inkscape:pagecheckerboard="1"
     inkscape:snap-global="false"
     fit-margin-top="0"
     fit-margin-left="0"
     fit-margin-right="0"
     fit-margin-bottom="0"
     inkscape:window-width="1280"
     inkscape:window-height="967"
     inkscape:window-x="0"
     inkscape:window-y="1"
     inkscape:window-maximized="1" />
  <metadata
     id="metadata5">
    <rdf:RDF>
      <cc:Work
         rdf:about="">
        <dc:format>image/svg+xml</dc:format>
        <dc:type
           rdf:resource="http://purl.org/dc/dcmitype/StillImage" />
      </cc:Work>
    </rdf:RDF>
  </metadata>
  <g
     id="layer1"
     inkscape:groupmode="layer"
     inkscape:label="Layer 1"
     transform="translate(-92.636003,-125.91201)">
    <g
       id="g2209038"
       transform="translate(-250.60347,8.7527906)">
      <path
         id="path2143057"
         style="vector-effect:none;fill:#333333;fill-opacity:1;stroke:none;stroke-width:0.132292;stroke-linecap:butt;stroke-linejoin:miter;stroke-miterlimit:4;stroke-dasharray:none;stroke-dashoffset:0;stroke-opacity:1"
         d="m 358.89877,120.12862 0.0299,-1.22928 1.10716,-0.0386 0.17884,1.16831 c -0.16735,0.12282 -0.56809,0.50688 -1.31593,0.0996 z m -11.47714,16.11187 c 0.1409,-0.0495 0.0833,0.30898 0.092,0.5176 l -1.3597,0.67123 -0.69183,-0.95697 1.29133,-1.1369 c 0.22103,0.30447 0.24544,1.05361 0.66812,0.90505 z m 24.33861,-8.10202 1.51343,1.16455 -0.54544,1.04717 -2.20934,-0.71985 c 0.23085,-0.44537 0.51122,-1.08636 1.24135,-1.49187 z m -10.47709,13.58524 1.38697,0.92687 -1.0275,0.94912 -1.6542,-0.83023 c 0.30041,-0.40173 0.50823,-0.76482 1.29473,-1.04576 z"
         sodipodi:nodetypes="sccccsccccssccccccccccc" />
      <path
         style="vector-effect:none;fill:#3d557e;fill-opacity:1;stroke:none;stroke-width:0.132292;stroke-linecap:butt;stroke-linejoin:miter;stroke-miterlimit:4;stroke-dasharray:none;stroke-dashoffset:0;stroke-opacity:1"
         d="m 359.048,138.49997 c 1.34601,-0.2029 1.46861,1.148 1.37558,1.73798 0.60663,0.59455 0.18158,1.11702 1.21446,1.69589 l -1.28883,1.32677 c -0.28817,-0.91526 -1.42981,-0.71547 -1.96849,-1.61235 -0.81763,-0.55011 -2.30993,-0.64157 -2.37047,-1.94867 -1.68615,-1.42268 -0.79757,-0.98511 -0.79456,-1.82953 -0.0969,-0.26826 -0.65347,-1.26248 0.66311,-1.8763 -0.92706,-1.00574 0.38448,-2.21716 0.53149,-2.09143 0,0 -0.66351,-2.05655 1.25152,-1.66691 2.03304,0.41367 7.18206,1.95526 5.49572,3.6529 -1.17461,1.18249 -2.84217,0.80061 -2.83673,0.76228 -0.30001,1.76994 -0.91345,1.68865 -1.2728,1.84937 z"
         id="path2143063"
         sodipodi:nodetypes="cccccccccsscc" />
      <path
         style="vector-effect:none;fill:#ff0008;fill-opacity:1;stroke:none;stroke-width:0.132292;stroke-linecap:butt;stroke-linejoin:miter;stroke-miterlimit:4;stroke-dasharray:none;stroke-dashoffset:0;stroke-opacity:1"
         d="m 344.99465,119.67555 c -0.43161,0.61046 4.91179,4.36675 6.38097,4.07769 0.35308,-0.0695 1.42135,-0.61669 1.42135,-0.61669 0,0 0.82388,-4.14015 -2.41821,-5.57417 -3.63432,-1.60749 -5.38427,2.11089 -5.38411,2.11317 z"
         id="path2143059"
         sodipodi:nodetypes="cscsc" />
      <path
         style="vector-effect:none;fill:#4c699b;fill-opacity:1;stroke:none;stroke-width:0.132292;stroke-linecap:butt;stroke-linejoin:miter;stroke-miterlimit:4;stroke-dasharray:none;stroke-dashoffset:0;stroke-opacity:1"
         d="m 359.46473,130.46636 c 0.25804,-0.97247 1.13908,-1.34553 2.13313,-1.60984 0.25489,-0.2092 0.47847,-1.01545 1.46684,-1.05626 0.63597,-1.02267 1.49157,-1.7325 2.16387,-1.31885 1.00207,-1.09609 1.96269,-0.71786 2.07069,-0.4235 0.61275,-0.81824 1.36377,-0.16938 1.44709,0.27696 1.08401,-0.64524 1.92833,0.72383 2.36237,1.29635 0.67881,0.0113 0.84191,0.43941 1.21341,0.71069 l -0.59651,1.49263 c -0.74366,0.29092 -1.39723,0.26208 -2.34159,-0.1515 -1.25035,0.97972 -3.01092,0.51602 -2.63855,0.18087 0.0492,0.0187 0.72327,1.84695 -0.92871,2.07279 0.43888,0.3895 -0.43773,1.65066 -1.47683,1.2978 -3.74711,-1.27244 -4.87521,-2.76814 -4.87521,-2.76814 z"
         id="path2143061"
         sodipodi:nodetypes="ccccccccccccsc" />
      <path
         style="vector-effect:none;fill:#4c699b;fill-opacity:1;stroke:none;stroke-width:0.132292;stroke-linecap:butt;stroke-linejoin:miter;stroke-miterlimit:4;stroke-dasharray:none;stroke-dashoffset:0;stroke-opacity:1"
         d="m 360.67895,121.94414 c 0.43087,-0.50576 -0.3843,-1.64709 -0.37995,-1.75418 l -0.0253,-0.97454 -1.40868,0.16715 -0.23539,0.61878 c -0.68096,0.35871 -0.74845,1.15407 -0.83035,1.89999 -0.49936,0.27977 -1.45398,0.79301 -1.46252,1.66727 -0.44057,0.72181 -1.34942,1.2567 -1.20105,2.23179 -0.73307,0.7577 3.69921,1.34516 3.78239,2.13726 -0.34993,0.4922 1.5919,-0.0525 1.35663,-1.37258 -0.0626,-0.35146 1.06538,-0.8778 0.24421,-2.16544 0.35487,-0.9062 0.4429,-1.68759 0.15996,-2.4555 z"
         id="path2143065"
         sodipodi:nodetypes="cccccccccsccc" />
      <path
         id="path2143067"
         style="display:inline;vector-effect:none;fill:url(#linearGradient2195078);fill-opacity:1;stroke:none;stroke-width:0.132292;stroke-linecap:butt;stroke-linejoin:miter;stroke-miterlimit:4;stroke-dasharray:none;stroke-dashoffset:0;stroke-opacity:1"
         d="m 353.26206,134.30003 c -0.18856,1.02012 -2.46845,1.57328 -3.24155,1.53166 -0.44224,1.36445 -1.04903,-0.24444 -2.58886,1.002 l -0.95253,-1.4556 c 0.84429,-0.59821 0.82965,-1.36218 2.15388,-1.6498 0.60495,-0.97047 1.0842,-1.60848 1.75005,-1.78292 -0.20248,-1.81676 0.25635,-1.52681 0.46241,-1.9625 -0.36773,-1.00675 -0.80857,0.0247 -1.01222,-0.73161 -1.49628,0.0459 -2.44522,-2.58087 -2.02798,-2.24186 -0.41693,-0.002 -2.13301,-0.29722 -2.17011,-1.97193 0,0 -2.16857,-1.97817 -2.34619,-2.80811 -0.32098,-1.49979 1.02378,-1.37343 1.04305,-1.35239 0.34637,0.36777 1.80888,-0.39422 1.6371,-0.11397 -0.0699,0.11404 5.67081,2.61802 6.09777,2.55311 1.90511,0.78112 2.14424,1.2671 2.39939,1.50059 0.81594,0.0855 1.2184,0.0186 2.03921,1.03208 0.86751,-0.70177 2.75289,-0.1483 3.13363,0.43582 1.57094,0.19537 3.22334,1.82552 3.17025,2.07218 1.57479,-0.0436 2.53487,1.79122 2.27854,2.6756 1.20668,0.84566 0.51942,1.73146 0.0957,1.80507 0.25483,0.66695 0.0299,1.15629 -0.93167,1.78126 -0.21993,-0.24468 -0.65845,1.66604 -1.79935,0.80533 -0.0817,0.80858 -1.82781,1.07889 -2.48401,0.20494 -1.89516,0.9571 -1.91797,-0.0995 -3.57486,-0.64191 -0.97082,0.35323 -2.07391,-0.50203 -2.37967,-1.53473 0.16931,1.12985 -0.23938,0.84818 -0.75202,0.84769 z"
         sodipodi:nodetypes="ccccccccccscsccccccccccccc" />
      <path
         style="vector-effect:none;fill:#ea9c00;fill-opacity:1;stroke:none;stroke-width:0.118919;stroke-linecap:butt;stroke-linejoin:miter;stroke-miterlimit:4;stroke-dasharray:none;stroke-dashoffset:0;stroke-opacity:1"
         d="m 345.22176,120.22707 c 0,0 -0.56585,0.50157 -0.86003,1.03023 -0.29508,0.53029 0.20682,1.9463 0.97277,1.70651 0.40834,-0.12784 0.90582,-0.86948 0.73297,-1.66419 -0.17288,-0.79471 -0.84571,-1.07255 -0.84571,-1.07255 z"
         id="path2143069"
         sodipodi:nodetypes="csssc" />
      <path
         style="vector-effect:none;fill:#ab0000;fill-opacity:1;stroke:none;stroke-width:0.132292;stroke-linecap:butt;stroke-linejoin:miter;stroke-miterlimit:4;stroke-dasharray:none;stroke-dashoffset:0;stroke-opacity:1"
         d="m 344.9563,119.70608 c -0.0834,1.19072 5.85531,3.97383 7.32632,3.66329 0.35207,-0.0743 0.51435,-0.23282 0.51435,-0.23282 0,0 0.52852,-2.65591 -0.92685,-4.45009 -0.36172,-0.44593 -1.07188,1.96018 -1.20392,2.65341 -0.23386,1.22781 -4.49939,-0.18046 -5.44398,-2.05785 -0.29037,0.37346 -0.18797,0.36055 -0.26592,0.42406 z"
         id="path2143071"
         sodipodi:nodetypes="cscsscc" />
      <path
         style="vector-effect:none;fill:#ffd31a;fill-opacity:1;stroke:none;stroke-width:0.118919;stroke-linecap:butt;stroke-linejoin:miter;stroke-miterlimit:4;stroke-dasharray:none;stroke-dashoffset:0;stroke-opacity:1"
         d="m 344.97013,120.02411 c -0.10106,-0.0825 -0.44422,0.42605 -0.59577,1.07095 -0.1384,0.58894 -0.0147,1.16727 0.20152,1.53649 0.21627,0.36921 1.14715,-0.55219 0.97993,-1.3481 -0.16723,-0.79593 -0.46608,-1.28508 -0.58568,-1.25934 z"
         id="path2143073"
         sodipodi:nodetypes="csssc" />
      <path
         style="vector-effect:none;fill:#ffffff;fill-opacity:1;stroke:none;stroke-width:0.118919;stroke-linecap:butt;stroke-linejoin:miter;stroke-miterlimit:4;stroke-dasharray:none;stroke-dashoffset:0;stroke-opacity:1"
         d="m 344.91074,120.07141 c -0.0538,-0.0575 -0.23955,0.21155 -0.44517,0.83447 -0.18964,0.5745 -0.15178,1.10621 0.0645,1.47543 0.21627,0.36921 1.02462,-0.52525 0.85177,-1.31996 -0.17288,-0.79471 -0.47108,-0.98994 -0.47108,-0.98994 z"
         id="path2143075"
         sodipodi:nodetypes="csssc" />
      <path
         style="vector-effect:none;fill:#333333;fill-opacity:1;stroke:none;stroke-width:0.132292;stroke-linecap:butt;stroke-linejoin:miter;stroke-miterlimit:4;stroke-dasharray:none;stroke-dashoffset:0;stroke-opacity:1"
         d="m 345.85429,121.52359 c 1.27392,1.26063 3.18713,2.03756 3.89774,1.95234 1.04028,-0.12476 1.91342,0.12449 2.53671,-0.0918 l 0.45104,0.24462 c -1.13365,-0.073 -2.30497,0.25382 -2.936,0.32283 -0.8583,0.0939 -2.9925,-0.48937 -4.40276,-1.2262 0.25563,-0.23768 0.4004,-0.64812 0.45324,-1.20181 z"
         id="path2143077"
         sodipodi:nodetypes="csccsccc" />
      <path
         style="vector-effect:none;fill:#ab0000;fill-opacity:1;stroke:none;stroke-width:0.132292;stroke-linecap:butt;stroke-linejoin:miter;stroke-miterlimit:4;stroke-dasharray:none;stroke-dashoffset:0;stroke-opacity:1"
         d="m 344.51144,123.78223 c 0,0 -0.34131,0.11006 -0.1647,0.61211 0.17661,0.50205 0.8601,0.70475 0.94679,0.71938 0.41444,0.0699 0.20244,-0.73451 -0.19672,-1.03179 -0.33571,-0.25002 -0.58537,-0.2997 -0.58537,-0.2997 z"
         id="path2143079"
         sodipodi:nodetypes="csssc" />
      <path
         style="vector-effect:none;fill:#1a1a1a;fill-opacity:1;stroke:none;stroke-width:0.132292;stroke-linecap:butt;stroke-linejoin:miter;stroke-miterlimit:4;stroke-dasharray:none;stroke-dashoffset:0;stroke-opacity:1"
         d="m 346.89267,121.52807 -0.18191,1.85666 c -0.61515,0.29786 -1.0933,0.79885 -1.84868,0.88881 l 0.16902,0.38844 c 0.69178,-0.20556 1.31139,-0.62548 1.9396,-1.01988 l 2.69933,-0.78059 -0.54965,-0.31325 -1.71312,0.52237 0.0212,-1.23946 z"
         id="path2143081"
         sodipodi:nodetypes="cccccccccc" />
    </g>
  </g>
</svg>
