<?xml version="1.0" encoding="UTF-8" standalone="no"?>
<svg
   inkscape:version="1.1.1 (3bf5ae0, 2021-09-20)"
   id="svg8"
   version="1.1"
   viewBox="0 0 135.6383 87.822967"
   height="331.92932"
   width="512.64874"
   sodipodi:docname="slider.svg"
   xmlns:inkscape="http://www.inkscape.org/namespaces/inkscape"
   xmlns:sodipodi="http://sodipodi.sourceforge.net/DTD/sodipodi-0.dtd"
   xmlns:xlink="http://www.w3.org/1999/xlink"
   xmlns="http://www.w3.org/2000/svg"
   xmlns:svg="http://www.w3.org/2000/svg"
   xmlns:rdf="http://www.w3.org/1999/02/22-rdf-syntax-ns#"
   xmlns:cc="http://creativecommons.org/ns#"
   xmlns:dc="http://purl.org/dc/elements/1.1/">
  <defs
     id="defs2">
    <linearGradient
       inkscape:collect="always"
       xlink:href="#linearGradient2273606"
       id="linearGradient2273608"
       x1="311.4624"
       y1="236.84818"
       x2="314.12228"
       y2="178.89848"
       gradientUnits="userSpaceOnUse"
       gradientTransform="translate(-204.89412,-56.170858)" />
    <linearGradient
       inkscape:collect="always"
       id="linearGradient2273606">
      <stop
         style="stop-color:#6b6b6b;stop-opacity:1"
         offset="0"
         id="stop2273602" />
      <stop
         style="stop-color:#808080;stop-opacity:1"
         offset="1"
         id="stop2273604" />
    </linearGradient>
    <linearGradient
       inkscape:collect="always"
       xlink:href="#linearGradient2276950"
       id="linearGradient2276952"
       x1="310.31049"
       y1="221.95473"
       x2="307.9339"
       y2="195.39491"
       gradientUnits="userSpaceOnUse"
       gradientTransform="translate(-204.89412,-56.170858)" />
    <linearGradient
       inkscape:collect="always"
       id="linearGradient2276950">
      <stop
         style="stop-color:#ef2727;stop-opacity:1"
         offset="0"
         id="stop2276946" />
      <stop
         style="stop-color:#efb027;stop-opacity:0.99798721"
         offset="1"
         id="stop2276948" />
    </linearGradient>
  </defs>
  <sodipodi:namedview
     borderlayer="true"
     units="px"
     showgrid="false"
     inkscape:document-rotation="0"
     inkscape:current-layer="layer1"
     inkscape:document-units="px"
     inkscape:cy="206.42857"
     inkscape:cx="231.42857"
     inkscape:zoom="0.7"
     inkscape:pageshadow="2"
     inkscape:pageopacity="0"
     borderopacity="1.0"
     bordercolor="#666666"
     pagecolor="#585858"
     id="base"
     inkscape:pagecheckerboard="1"
     inkscape:snap-global="false"
     fit-margin-top="0"
     fit-margin-left="0"
     fit-margin-right="0"
     fit-margin-bottom="0"
     inkscape:window-width="1280"
     inkscape:window-height="967"
     inkscape:window-x="0"
     inkscape:window-y="1"
     inkscape:window-maximized="1" />
  <metadata
     id="metadata5">
    <rdf:RDF>
      <cc:Work
         rdf:about="">
        <dc:format>image/svg+xml</dc:format>
        <dc:type
           rdf:resource="http://purl.org/dc/dcmitype/StillImage" />
      </cc:Work>
    </rdf:RDF>
  </metadata>
  <g
     id="layer1"
     inkscape:groupmode="layer"
     inkscape:label="Layer 1"
     transform="translate(-41.68797,-97.187638)">
    <path
       style="display:inline;vector-effect:none;fill:url(#linearGradient2273608);fill-opacity:1;stroke:none;stroke-width:0.132292;stroke-linecap:butt;stroke-linejoin:miter;stroke-miterlimit:4;stroke-dasharray:none;stroke-dashoffset:0;stroke-opacity:1"
       d="m 136.26616,180.61144 c 24.93689,11.77363 19.18803,-3.61667 14.06385,-5.37526 12.45257,-4.8729 21.46725,-10.46593 11.38825,-17.28718 10.6092,-1.20735 14.07029,-8.41854 7.46761,-12.29801 11.49188,-9.27675 11.95802,-27.79815 -6.01705,-28.83812 0.95634,-8.56566 -11.94101,-17.463948 -17.6002,-7.64299 -2.43804,-7.69639 -13.46784,-16.422258 -23.47466,-2.52959 -2.67992,-2.16502 -6.28008,-12.300138 -22.38149,-6.695228 -1.62278,-5.45377 -13.248,-3.08992 -13.77908,9.536378 -1.54924,-11.052268 -28.37598,-3.74752 -22.75577,8.27428 -4.55923,-3.95429 -6.38989,-0.62362 -4.07796,3.62919 -6.95637,-9.64986 -20.23906,10.67725 -9.38954,13.71504 -13.91117,-1.06335 -7.33288,22.71061 1.69839,15.06795 -4.89899,0.32121 -5.94188,13.89255 5.42163,14.75727 -8.02762,9.93517 6.94367,10.27148 10.79466,9.19773 -9.11541,9.04101 -3.83465,12.56913 5.7889,6.32598 z"
       id="path2228805"
       sodipodi:nodetypes="ccccccccccccccccc" />
    <path
       id="path2232583"
       style="vector-effect:none;fill:#666666;fill-opacity:1;stroke:none;stroke-width:0.132292;stroke-linecap:butt;stroke-linejoin:miter;stroke-miterlimit:4;stroke-dasharray:none;stroke-dashoffset:0;stroke-opacity:1"
       d="m 145.66329,108.93327 c -1.08196,3.84462 -3.30229,11.02563 -8.24757,9.39581 3.2062,1.14681 5.83539,1.98414 4.82296,8.70025 2.00824,-8.25907 5.47433,-7.15324 9.08524,-7.32824 -7.60844,-2.23558 -6.15016,-6.48179 -5.66063,-10.76782 z m -59.343662,1.25626 c 0,0 0.406797,2.3594 1.111038,6.82439 0.704215,4.46499 -4.429707,10.85308 -4.429707,10.85308 0.0209,-0.0138 3.492976,-4.31106 6.241495,-5.50819 3.21429,-1.40001 10.324147,2.20209 10.628788,2.04949 0,0 -1.758156,-1.272 -6.607863,-3.48764 -4.84968,-2.21565 -6.943751,-10.73113 -6.943751,-10.73113 z m 50.791722,8.03 v 5.3e-4 c 0.0135,0.005 0.0268,0.01 0.0403,0.0145 -0.0135,-0.005 -0.0267,-0.01 -0.0403,-0.015 z m -78.613281,21.54494 c 0.517509,0.59129 0.972873,1.10097 1.378731,1.54254 -0.661107,-0.91071 -1.378731,-1.54254 -1.378731,-1.54254 z m 1.378731,1.54254 c 0.841719,1.15954 1.591706,2.77156 0.65061,4.10879 -1.680271,2.3875 -1.656239,3.34657 -1.656239,3.34657 0.613521,-1.46905 2.472981,-4.05234 3.525891,-4.02301 2.84771,0.0793 4.398168,0.28008 4.398168,0.28008 -3.763618,-1.54675 -3.075093,0.46927 -6.91843,-3.71243 z m 93.51005,-0.0868 c -0.0442,0.46388 1.87674,3.53528 2.68303,4.62659 1.23537,1.67198 0.68871,5.76182 0.39431,6.71019 2.39014,-5.42374 5.33016,-5.84901 8.20002,-6.91586 0,0 -5.06249,0.79491 -7.03059,-0.28267 -1.9681,-1.07758 -4.24677,-4.13825 -4.24677,-4.13825 z m -110.72554,6.10867 c 0.0013,0.003 0.0082,0.0102 0.02016,0.0227 -0.0026,-0.005 -0.0052,-0.01 -0.0078,-0.0145 -0.0097,-0.008 -0.01378,-0.0109 -0.01241,-0.008 z m 0.02119,0.0238 c 1.124939,2.02952 3.857106,6.31478 8.211383,3.3879 l 0.849045,-1.47329 c -3.674488,3.09129 -8.695166,-1.53353 -9.060428,-1.91461 z m 5.131985,8.13697 c 0.178681,5.98547 4.425323,9.40294 9.021672,9.42785 l 3.304694,-0.20619 c -4.469998,-0.3308 -10.430256,-2.95443 -12.326366,-9.22166 z m 114.178035,2.50631 c 0,0 2.56895,4.26776 1.52705,6.52311 -2.48381,5.37649 -13.72836,10.54096 -13.72836,10.54096 0,0 11.03032,-3.69721 14.96653,-7.94525 3.93623,-4.24805 -2.76522,-9.11882 -2.76522,-9.11882 z M 55.190264,171.39252 c -0.343569,0.0129 -0.216487,0.40115 0.303342,0.89194 3.700772,3.49404 11.825182,1.87617 12.321725,1.81487 -5.721244,0.26237 -10.39686,-2.1892 -10.638107,-2.30735 0.01886,0.0221 -1.374296,-0.4225 -1.98696,-0.39946 z m 78.952796,4.61523 c -0.23733,0.0112 0.9679,3.71708 0.9679,3.71708 -0.14554,0.0429 6.7927,4.03124 13.92733,5.18831 4.89905,0.79452 8.6211,-3.74087 3.09798,-7.9344 5.85176,11.20607 -17.63271,-0.83647 -17.9808,-0.96893 -0.004,-0.002 -0.009,-0.002 -0.0124,-0.002 z m -61.032437,1.60352 c -8.682593,7.02892 -10.192173,3.70972 -9.045972,0.60461 0.02916,0.0324 -1.381151,2.06501 -0.984435,4.04368 0.76999,3.84042 9.295553,-1.05059 9.295553,-1.05058 z" />
    <path
       style="display:inline;vector-effect:none;fill:#ffff00;fill-opacity:1;stroke:none;stroke-width:0.132292;stroke-linecap:butt;stroke-linejoin:miter;stroke-miterlimit:4;stroke-dasharray:none;stroke-dashoffset:0;stroke-opacity:1"
       d="m 134.22733,164.99595 13.31283,1.65706 -6.83024,-6.17814 11.86075,-4.90023 -11.8094,-0.73556 17.03902,-28.32524 -25.7581,22.98416 3.34505,-21.76227 -11.41919,15.37464 4.43432,-21.73047 -8.16765,21.50396 -3.97511,-33.68847 -11.21766,32.36439 -8.40745,-12.06422 -1.53428,12.16402 -19.07836,-21.84168 11.87393,26.29049 -14.72731,-12.23056 5.88585,14.11261 -24.00821,-17.02322 17.55212,17.6485 -12.83769,-0.56759 14.48775,8.57022 -14.62987,-0.42147 c 0,0 15.63265,4.57853 14.30809,5.39269 -1.32453,0.81416 -11.09028,3.07468 -11.09028,3.07468 l 12.55702,-0.0479 z"
       id="path2211614"
       sodipodi:nodetypes="ccccccccccccccccccccccccsccc" />
    <path
       id="path2211762"
       style="display:inline;vector-effect:none;fill:url(#linearGradient2276952);fill-opacity:1;stroke:none;stroke-width:0.132292;stroke-linecap:butt;stroke-linejoin:miter;stroke-miterlimit:4;stroke-dasharray:none;stroke-dashoffset:0;stroke-opacity:1"
       d="m 132.77746,163.25529 7.13002,0.59853 -8.05368,-2.13839 10.95357,-5.33382 -12.57434,4.53937 16.39691,-20.9018 -21.67836,20.00406 6.80039,-21.47781 -11.75929,18.79703 1.33999,-9.09192 -6.91838,7.25254 0.008,-31.87854 -7.41695,30.32983 -7.86771,-15.20013 1.27022,14.4533 -14.68642,-18.39423 8.11696,20.22867 -11.03914,-9.1624 3.49411,11.38309 -1.14893,0.3292 -0.25907,1.21041 -13.09168,-7.68599 10.08521,9.12561 -12.39156,-2.33145 c 0,0 11.45236,3.94189 10.1278,4.75605 -1.32453,0.81416 -7.28569,0.82602 -7.28569,0.82602 l 4.818579,1.16544 c 9.701386,-11.25354 32.182731,-22.694 55.629441,-1.40267 z m -57.505,2.38154 c 18.88651,-22.56147 46.42997,-17.48274 59.23834,-0.0135 l 2.36532,15.30696 -64.32877,-0.35897 z"
       sodipodi:nodetypes="ccccccccccccccccccccccccccccccccc" />
  </g>
</svg>
