<svg width="180" height="371" viewBox="0 0 180 371" fill="none" xmlns="http://www.w3.org/2000/svg">
<path d="M106.19 44.9098C110.94 69.9898 156.19 87.5298 143.43 82.1598C140.82 78.9698 148.71 51.5698 148.71 51.5698C148.71 51.5698 152.21 39.9498 151.55 36.4298C150.89 32.9098 152.77 19.5398 151.07 16.9398C149.37 14.3398 147.51 5.57983 146.9 4.50983C146.29 3.43983 144.84 0.589833 142.2 1.94983C139.56 3.30983 137.78 6.03983 136.82 7.58983C135.86 9.13983 129.15 20.6598 127.75 22.3198C126.35 23.9798 119.62 29.8698 119.62 29.8698L106.19 44.9098ZM40.0801 41.4498C37.0801 36.4498 40.4001 40.8198 36.3601 35.1698C36.3601 35.1698 29.7601 29.3898 27.5201 24.1698C25.2801 18.9498 22.9901 14.0398 18.9401 15.0998C14.8901 16.1598 14.1301 17.5898 13.2401 26.5198C12.3501 35.4498 12.4701 55.4498 12.4701 55.4498C12.7501 55.3898 9.88007 55.5098 11.9001 61.8298C21.3901 55.0998 28.8401 51.6398 40.0801 41.4498ZM7.30008 101.57C2.23008 115.96 7.53008 131.57 7.99008 144.5C4.67008 145.5 7.99008 151.74 8.55008 155.85C5.69008 160.05 6.91008 164.28 9.36008 168.52C7.64008 174.05 7.18007 179.67 12.0401 185.68C10.4201 190.68 9.42008 195.56 13.5201 198.99C13.8801 207.61 14.0401 216.47 20.0801 218.45C18.0301 223.23 14.9001 227.45 19.0801 235.39C17.4001 239.7 14.5001 243.84 19.7801 249.12C18.3901 255.24 13.1601 258.89 20.5301 270.61L20.4401 279.87C18.5201 285.1 16.2501 290.43 17.3101 294.71L17.8901 309.96C11.7701 312.39 7.11008 324.82 3.08008 337.79C11.7001 344.79 44.3901 369.48 92.5301 368.5C137.62 367.58 167.92 344.7 176.9 337.37C180.15 331.78 171.53 321.69 170.21 320.05C168.59 300.88 166.39 297.81 163.38 295.18C162.31 282.99 161.88 270.92 156.62 257.91C158.11 248.43 153.07 244.44 150.44 238.42C152.16 229.74 149.38 226.35 148.38 220.85L150.77 207.7C154.42 201.47 153.71 194.7 150.29 187.63C157.34 181.28 153.8 174.17 153.16 167.27C155.38 160.69 153.16 154.56 152.16 148.27C156.33 144.97 152.58 139.19 151.36 134.2C157.45 122.27 153.94 118.2 152.85 112.2C154.94 108.29 156.06 101.72 153.56 100.62L148.07 57.9998C125.07 45.9998 63.2501 11.7598 15.8001 58.8098C15.3117 58.674 14.799 58.6501 14.3001 58.7398C6.94008 60.1898 7.00008 89.6198 7.30008 101.57Z" fill="white"/>
<path d="M104.74 45.31C106.55 54.57 113.17 62.31 120.09 68.31C126.322 73.6522 133.127 78.2871 140.38 82.13C141.87 82.94 143.46 83.6 144.92 84.44L146.07 81.7C146.69 81.94 146.3 81.79 146.07 81.7L145 81.21C144.885 81.1481 144.765 81.0978 144.64 81.06C144.25 80.95 144.42 80.78 144.49 81.13C144.67 82.02 144.63 81.03 144.56 81.13C144.49 81.23 144.62 81.43 144.56 81.06C144.56 80.91 144.49 80.77 144.46 80.63C144.43 80.49 144.46 80.87 144.46 80.48C144.46 80.09 144.46 79.75 144.46 79.38C144.46 75 145.58 70.56 146.54 66.31C148 59.87 149.92 53.58 151.54 47.18C152.243 44.5528 152.761 41.8796 153.09 39.18C153.33 36.99 152.94 35.47 152.98 33.32C152.98 30.53 153.23 27.74 153.32 24.95C153.554 22.4626 153.437 19.9545 152.97 17.5C152.637 16.6329 152.228 15.7964 151.75 15C151.246 13.7735 150.815 12.5179 150.46 11.24C149.77 8.95004 149.31 6.53004 148.46 4.31004C147.61 2.09004 145.46 -0.379962 142.76 0.180038C139.53 0.850038 137.14 4.25004 135.52 6.87004C133.11 10.78 130.85 14.79 128.41 18.68C127.617 20.1048 126.624 21.4082 125.46 22.55C123.63 24.34 121.72 26.04 119.81 27.73L118.58 28.81C117.13 30.09 119.26 32.2 120.71 30.93C122.16 29.66 123.35 28.59 124.66 27.4C126.33 26.0349 127.864 24.5111 129.24 22.85C131.902 18.978 134.365 14.9728 136.62 10.85C137.558 9.1 138.635 7.42798 139.84 5.85004C140.61 4.93004 142.45 2.70004 143.84 3.08004C144.68 3.32004 145.25 4.50004 145.62 5.21004C145.62 5.30004 145.54 4.95004 145.62 5.34004L145.77 5.79004C145.95 6.35004 146.1 6.91004 146.26 7.47004C146.62 8.78004 146.98 10.09 147.36 11.39C147.74 12.69 148.2 14.19 148.74 15.54C148.96 16.09 149.19 16.64 149.46 17.16C149.55 17.33 149.66 17.49 149.75 17.65C149.93 17.97 149.75 17.65 149.87 17.89C150.62 19.97 150.3 22.62 150.23 24.78C150.14 27.58 149.93 30.37 149.88 33.17C149.88 35.26 150.21 36.83 150.03 38.8C149.724 41.3925 149.216 43.957 148.51 46.47C146.94 52.7 145.07 58.83 143.65 65.09C142.494 69.5134 141.738 74.0315 141.39 78.59C141.204 79.9924 141.412 81.4189 141.99 82.71C142.5 83.57 143.73 83.86 144.61 84.25C144.82 84.34 145.03 84.44 145.25 84.52C146.85 85.15 147.84 82.61 146.4 81.78C145.3 81.15 144.09 80.65 142.97 80.06C140.057 78.5267 137.21 76.88 134.43 75.12C126.88 70.36 119.56 64.74 114.02 57.67C110.872 53.8323 108.672 49.3066 107.6 44.46C107.23 42.57 104.34 43.37 104.71 45.26L104.74 45.31Z" fill="white"/>
<path d="M41.3701 40.7001C40.9801 40.0501 40.5901 39.4001 40.2401 38.7001C40.2401 38.6301 40.0201 38.1901 40.0901 38.4101C40.1601 38.6301 40.0901 38.3301 40.0901 38.2801C39.9519 37.8177 39.75 37.3768 39.4901 36.9701C38.8645 35.9004 38.1343 34.8955 37.3101 33.9701C36.6001 33.2501 35.8301 32.5901 35.1101 31.8701C32.5389 29.4522 30.4161 26.5982 28.8401 23.4401C27.3801 20.2001 25.8401 15.7901 22.4501 14.0801C20.2101 12.9501 17.2301 13.6301 15.2901 15.0801C13.3501 16.5301 12.7901 18.9701 12.4201 21.2101C11.4851 27.7647 11.0339 34.3793 11.0701 41.0001C10.9801 45.8401 10.9401 50.7001 10.9701 55.5401C10.9733 55.7703 11.0288 55.9966 11.1324 56.2022C11.2359 56.4078 11.3848 56.5871 11.5678 56.7268C11.7507 56.8664 11.963 56.9626 12.1886 57.0083C12.4142 57.0539 12.6472 57.0477 12.8701 56.9901C12.9976 56.9471 13.1214 56.8936 13.2401 56.8301C13.4868 56.6762 13.6841 56.4548 13.8088 56.192C13.9334 55.9293 13.98 55.6364 13.9432 55.348C13.9064 55.0595 13.7876 54.7877 13.6009 54.5648C13.4142 54.3418 13.1675 54.1771 12.8901 54.0901C11.8101 53.7801 10.7201 54.7201 10.2401 55.5801C9.12006 57.5801 9.83006 60.2901 10.4501 62.3201C10.5138 62.5407 10.6268 62.744 10.7804 62.9147C10.934 63.0854 11.1243 63.2191 11.337 63.3057C11.5496 63.3923 11.7792 63.4296 12.0083 63.4148C12.2375 63.3999 12.4603 63.3334 12.6601 63.2201C17.0901 60.0601 21.7201 57.2201 26.2301 54.2201C31.4741 50.7081 36.4571 46.8213 41.1401 42.5901C42.5801 41.3001 40.4501 39.1801 39.0201 40.4701C34.4391 44.6061 29.5628 48.4028 24.4301 51.8301C20.0101 54.8301 15.4301 57.5801 11.1401 60.6701L13.3401 61.5601C12.769 60.1753 12.5858 58.6612 12.8101 57.1801C12.7401 57.4301 12.9501 56.9401 12.9601 56.9201C12.9601 57.1201 13.0601 56.9201 12.8201 57.0501C13.0201 56.9301 13.1201 57.0501 12.7401 57.0501C13.1801 56.9801 12.0301 57.0501 12.0901 57.0501L11.7301 54.3101L12.0701 54.1701L14.0001 55.5001C13.9401 46.0301 13.8501 36.5001 14.7201 27.0201C14.9701 24.3501 15.0101 21.0201 16.2701 18.5801C16.5316 17.9949 16.9873 17.5179 17.5601 17.2301C18.3648 16.7615 19.2788 16.5131 20.2101 16.5101C21.6201 16.6201 22.6301 18.0001 23.3401 19.1001C24.3305 20.7309 25.1931 22.436 25.9201 24.2001C27.3996 27.385 29.408 30.2962 31.8601 32.8101C32.7901 33.8101 33.7601 34.8101 34.7601 35.7101C35.4994 36.4635 36.1503 37.299 36.7001 38.2001C36.8301 38.4101 36.9601 38.6201 37.1001 38.8201C37.2401 39.0201 37.3101 39.2701 37.2001 38.9801C37.0901 38.6901 37.2001 39.0701 37.2001 39.1601C37.5985 40.242 38.1364 41.2673 38.8001 42.2101C39.7901 43.8601 42.3801 42.3501 41.3701 40.7001Z" fill="white"/>
<path d="M5.86008 101.18C0.94008 115.5 5.86009 129.98 6.49009 144.5L7.60009 143.06C2.40009 144.98 6.52009 152.64 7.10009 156.25L7.25008 155.09C4.25008 159.77 5.49008 164.73 8.06008 169.28L7.91008 168.12C6.89891 171.092 6.51416 174.242 6.78008 177.37C7.27626 180.825 8.73136 184.071 10.9801 186.74L10.5901 185.28C8.97008 190.38 7.97009 196.1 12.4601 200.05L12.0001 199C12.2801 205.84 11.6801 217.07 19.6601 219.9L18.7701 217.7C17.6301 220.32 16.1901 222.87 15.7101 225.7C15.2121 229.305 15.915 232.974 17.7101 236.14L17.6001 235C16.6601 237.37 15.4401 239.66 15.2501 242.26C15.0301 245.36 16.6001 248.02 18.6901 250.18L18.3001 248.72C17.3901 252.58 15.1101 255.91 15.1501 260C15.2683 262.775 15.9991 265.49 17.2901 267.95C17.6158 268.799 18.0494 269.602 18.5801 270.34C18.3901 270.13 19.1801 271.26 19.0001 270.67C19.0001 270.73 19.0001 270.81 19.0001 270.87C19.0551 271.582 19.0551 272.298 19.0001 273.01L18.9401 278.91C18.9331 279.604 18.769 280.288 18.4601 280.91C17.7401 282.83 17.0101 284.76 16.4601 286.74C15.7001 289.42 15.4825 292.225 15.8201 294.99C15.9501 296.38 15.9301 297.81 15.9801 299.21L16.3901 309.99L17.5001 308.55C13.1901 310.36 10.6001 314.75 8.62007 318.77C5.79802 324.796 3.45738 331.035 1.62007 337.43C1.54448 337.685 1.53992 337.956 1.60689 338.213C1.67386 338.47 1.80981 338.704 2.00008 338.89C9.50578 344.93 17.6155 350.178 26.2001 354.55C40.8564 362.057 56.7113 366.948 73.0501 369C92.3111 371.364 111.855 369.616 130.39 363.87C143.824 359.704 156.569 353.574 168.21 345.68C170.11 344.39 171.97 343.05 173.81 341.68C175.275 340.722 176.654 339.638 177.93 338.44C180.04 336.13 178.99 331.96 177.93 329.44C176.64 326.482 174.959 323.71 172.93 321.2C172.36 320.45 171.77 319.73 171.18 319L171.62 320.06C171.08 313.71 170.62 307.01 168.62 300.91C167.841 298.299 166.356 295.953 164.33 294.13L164.77 295.19C163.77 283.94 163.12 272.6 159.53 261.8C159.31 261.13 159.08 260.47 158.84 259.8C158.508 259.162 158.24 258.492 158.04 257.8C157.88 256.61 158.32 255.17 158.27 253.93C158.185 251.874 157.759 249.847 157.01 247.93C155.6 244.32 153.2 241.25 151.62 237.73L151.77 238.88C152.628 234.678 152.453 230.33 151.26 226.21C151.02 225.37 150.75 224.53 150.5 223.7C150.375 222.804 150.15 221.926 149.83 221.08C149.69 220.88 149.67 221.59 149.83 220.95L150.04 219.76L151.56 211.4C151.73 210.46 151.82 209.46 152.08 208.54C152.5 207.01 153.48 205.6 153.93 204.02C155.58 198.2 154.03 192.26 151.51 186.94L151.28 188.76C153.866 186.511 155.544 183.397 156 180C156.187 176.958 155.921 173.904 155.21 170.94C155.07 170.16 154.93 169.39 154.82 168.61C154.733 167.723 154.828 166.828 155.1 165.98C155.538 163.995 155.702 161.96 155.59 159.93C155.38 155.93 154.29 151.93 153.59 147.93L153.21 149.39C158.06 145.26 154.04 138.71 152.8 133.86L152.65 135.01C154.8 130.75 156.65 126.01 156.3 121.19C156.08 117.96 154.88 114.98 154.3 111.83L154.15 112.99C155.458 110.508 156.248 107.786 156.47 104.99C156.61 102.99 156.33 100.4 154.33 99.36L155.07 100.65L151.85 75.65L150 61.11C149.87 60.11 149.78 59.11 149.61 58.11C149.31 56.32 146.46 55.47 144.97 54.69C134.219 48.8811 123.024 43.9355 111.49 39.9C97.1601 35.1 81.9001 32.26 66.7501 33.44C49.626 34.7874 33.3654 41.5107 20.2901 52.65C18.3701 54.27 16.5201 55.97 14.7401 57.73L16.2001 57.35C10.2001 56.17 8.37008 63.98 7.52008 68.35C6.26735 75.7193 5.67168 83.1853 5.74009 90.66C5.69009 94.29 5.74008 97.92 5.80008 101.55C5.80008 103.48 8.80008 103.49 8.80008 101.55C8.68008 96 8.67008 90.44 8.88008 84.89C8.95404 78.8786 9.62398 72.8893 10.8801 67.01C11.2465 64.955 12.0255 62.9956 13.1701 61.25C13.4625 60.8432 13.8373 60.5025 14.2701 60.25C14.9201 60.03 15.5601 60.38 16.2101 60.2C17.1101 59.95 17.9101 58.79 18.5801 58.2C24.5169 52.55 31.2564 47.8088 38.5801 44.13C51.3201 37.79 65.5801 35.47 79.7201 36.37C92.6601 37.19 105.33 40.57 117.4 45.18C126.805 48.9158 135.984 53.1964 144.89 58C145.69 58.43 146.5 58.85 147.31 59.27L146.57 58L151.46 95.94C151.66 97.5 151.77 99.1 152.06 100.64C152.23 101.53 152.83 101.64 153.22 102.35C153.78 103.35 153.5 105 153.34 106.01C153.111 107.437 152.719 108.833 152.17 110.17C151.871 110.703 151.614 111.258 151.4 111.83C151.337 112.469 151.416 113.115 151.63 113.72C152.55 117.72 153.87 121.35 153.02 125.55C152.719 126.997 152.294 128.416 151.75 129.79C151.11 131.45 149.58 133.29 150.03 135.09C150.75 137.99 152.38 140.77 152.57 143.79C152.644 144.553 152.517 145.322 152.2 146.02C151.83 146.74 150.93 147.14 150.71 147.93C150.49 148.72 150.94 150.06 151.1 150.93C151.26 151.8 151.47 152.76 151.65 153.68C152.145 155.914 152.456 158.185 152.58 160.47C152.625 161.656 152.565 162.844 152.4 164.02C152.24 165.02 151.76 166.07 151.66 167.09C151.672 168.725 151.894 170.352 152.32 171.93C152.654 173.548 152.895 175.184 153.04 176.83C153.219 178.645 152.964 180.476 152.296 182.173C151.629 183.87 150.568 185.384 149.2 186.59C148.97 186.827 148.822 187.133 148.779 187.46C148.736 187.788 148.799 188.121 148.96 188.41C150.78 192.25 152.08 196.52 151.56 200.81C151.293 202.8 150.666 204.725 149.71 206.49C149.442 206.961 149.26 207.476 149.17 208.01L147.09 219.47C146.882 221.271 147.123 223.095 147.79 224.78C148.735 227.437 149.294 230.215 149.45 233.03C149.46 233.912 149.42 234.793 149.33 235.67C149.126 236.582 148.986 237.508 148.91 238.44C148.91 239.75 150.18 241.38 150.83 242.5C152.388 244.831 153.67 247.334 154.65 249.96C155.1 251.391 155.34 252.88 155.36 254.38C155.36 255.45 155.23 256.48 155.15 257.54C155.214 258.617 155.511 259.668 156.02 260.62C157.496 264.703 158.633 268.901 159.42 273.17C160.18 277.26 160.66 281.39 161.04 285.53C161.22 287.53 161.38 289.47 161.54 291.44C161.66 292.96 161.39 295.22 162.44 296.39C163.102 297.031 163.721 297.716 164.29 298.44C165.038 299.635 165.611 300.932 165.99 302.29C166.628 304.511 167.113 306.773 167.44 309.06C167.69 310.69 167.9 312.33 168.09 313.97C168.18 314.85 168.28 315.72 168.36 316.59C168.346 317.893 168.47 319.193 168.73 320.47C169.035 321.07 169.429 321.62 169.9 322.1C170.56 322.92 171.2 323.76 171.81 324.63C173.432 326.789 174.714 329.183 175.61 331.73C176.13 333.38 176.61 335.73 175.11 336.9C174.037 337.76 172.957 338.6 171.87 339.42C164.511 344.922 156.63 349.688 148.34 353.65C121.916 366.334 92.0927 370.113 63.3401 364.42C42.7623 360.225 23.3953 351.444 6.68007 338.73C5.89007 338.13 5.01008 337.44 4.16008 336.73L4.55008 338.19C6.23308 332.357 8.32492 326.649 10.8101 321.11C12.4101 317.74 14.6201 312.97 18.3101 311.41C18.6229 311.315 18.8977 311.124 19.0953 310.863C19.2929 310.603 19.4031 310.287 19.4101 309.96L18.9101 296.76C18.8001 293.97 18.4001 291.37 19.0801 288.59C19.7601 285.81 20.8501 283.43 21.7001 280.83C21.9389 279.948 22.0334 279.033 21.9801 278.12C21.9801 275.71 22.2001 273.23 22.0501 270.82C21.9401 269.17 20.4101 267.49 19.7101 265.98C18.8706 264.257 18.3618 262.391 18.2101 260.48C18.0801 257.76 19.1201 255.35 20.1201 252.88C20.7485 251.713 21.149 250.437 21.3001 249.12C21.3001 247.99 19.9601 247.12 19.3801 246.28C18.7811 245.413 18.4097 244.408 18.3001 243.36C18.1201 241.36 18.9901 239.48 19.7401 237.72C20.1301 236.8 20.7401 235.82 20.4701 234.82C20.0501 233.44 19.2501 232.22 18.9001 230.82C17.8401 226.55 19.7801 223.02 21.4301 219.23C21.5395 219.03 21.603 218.809 21.6158 218.581C21.6287 218.354 21.5906 218.126 21.5044 217.916C21.4181 217.705 21.2859 217.516 21.1173 217.363C20.9488 217.209 20.7482 217.096 20.5301 217.03C16.2201 215.5 15.7301 209.51 15.4201 205.66C15.3101 204.36 15.2401 203.05 15.1901 201.75C15.1401 200.45 15.4101 198.75 14.4501 197.75C13.5759 196.92 12.9197 195.887 12.5395 194.743C12.1593 193.599 12.0667 192.378 12.2701 191.19C12.4457 189.933 12.7233 188.692 13.1001 187.48C13.3502 186.904 13.5152 186.294 13.5901 185.67C13.5901 184.82 12.7801 184.16 12.3301 183.5C10.728 181.238 9.81777 178.56 9.71009 175.79C9.68444 174.586 9.78498 173.383 10.0101 172.2C10.2301 171.06 10.9401 169.66 10.9101 168.51C10.8801 167.36 9.59007 165.76 9.15007 164.51C8.5362 162.996 8.32601 161.349 8.54007 159.73C8.82007 158.13 10.2301 156.82 10.0201 155.21C9.79987 153.959 9.48904 152.726 9.09008 151.52C8.86008 150.72 7.19008 146.35 8.44008 145.89C8.75371 145.797 9.02942 145.606 9.22721 145.345C9.425 145.084 9.53458 144.767 9.54007 144.44C8.97007 130.22 3.99008 115.93 8.80008 101.91C9.38008 100.14 6.48008 99.36 5.86008 101.18Z" fill="white"/>
<path d="M143.64 15.6899L135.17 36.0499L136.95 26.0499C128.83 37.0499 126.03 46.0499 120.45 46.0499C113.76 47.5299 114.67 40.8799 111.22 38.2999L106.22 44.7199C112.02 64.1699 125.77 73.1399 142.06 81.5599L143.5 79.2899C140.34 75.2899 139.18 68.1199 140.4 64.1599C140.55 62.9999 145 41.8999 145 41.8999C145 41.8999 141.33 33.9499 141.49 29.8099C141.65 25.6699 143.64 15.6899 143.64 15.6899ZM16.1301 17.7599C16.0601 17.7599 16.0201 17.8199 16.0001 17.9299C12.2801 26.4299 12.6001 61.5899 12.8101 60.7399C16.9301 56.7399 22.5101 55.5899 26.6901 51.6099C26.5801 51.7899 21.1001 27.8199 20.4701 24.9499C19.9501 22.5499 16.7601 17.7399 16.1301 17.7599V17.7599ZM33.2501 299.85C36.1101 297.58 37.1201 289.73 32.8701 285.18C30.2501 282.37 35.6801 276.75 35.0301 273C34.4201 269.47 32.2101 265.48 32.3901 261.69C32.5601 258.05 35.4601 254.92 35.9001 251.56C35.1801 241.98 32.43 242.19 35.18 237.36C36.72 229.62 32.7201 222.7 33.4101 218.36C38.2901 213.36 43.9901 209.69 35.5201 199.69C34.8901 199.09 36.4201 194.97 33.7801 193.34C28.7801 190.27 26.3601 168.97 28.9101 163.97C30.2101 161.43 38.9101 151.87 43.2201 148.02C44.5301 146.86 44.5301 145.55 45.3901 144.44C51.9101 141.01 61.7501 142.37 65.7501 148.01C67.2001 149.34 76.1 148.24 78.12 148.01C80.68 147.74 93.68 146.55 95.62 144.68C97.89 142.51 90.7201 131.68 90.4201 127.26C90.1201 122.84 87.35 124.06 94.33 120.89C99.49 119.7 115.63 118.41 114.96 112.4C114.39 112.65 117.48 106.07 114.25 100.6C103.25 81.7499 6.25005 58.5099 7.90005 100.76C4.79005 104.11 5.78006 123.64 5.80006 121.62C5.80006 119.09 3.53006 132.01 9.30006 140.91C10.3001 142.53 7.15005 144.47 6.84005 146.37C6.33005 149.52 9.09006 151.78 9.22006 154.6C9.33006 157 7.11006 159.12 7.36006 161.6C7.57006 163.6 10.3601 164.85 10.3601 166.8C10.3601 170.43 8.65006 173.58 8.30006 177.41C7.90006 181.78 13.0001 185.5 13.3001 185.41C16.0901 184.86 10.6101 190.58 11.0001 193.66C11.3401 196.3 13.7501 198.06 14.0901 200.56C14.4701 203.37 14.24 209.7 15.29 212.43C16.23 214.88 14.7501 214.74 18.6301 217.25C22.5101 219.76 16.7301 225.25 17.0601 229.25C17.2201 231.3 19.2901 232.54 19.4801 234.39C19.7301 236.76 16.8201 239.5 16.9501 242.3C17.0701 244.88 19.6601 246.91 19.7401 249.17C19.8401 252.39 16.9101 255.74 16.8001 259.17C16.6501 263.99 19.4901 267.5 20.5501 271.92C21.2801 275.01 22.2801 278.03 20.4501 280.68C18.6201 283.33 16.1801 285.95 17.4501 289.4C17.4501 289.4 17.9601 296.18 16.7601 300.49C15.5601 304.8 16.8401 310.9 16.8401 310.9L12.0501 314.5L10.6501 321.5C9.40005 321.23 2.58006 332.01 3.07006 337.59C11.2401 345.07 34.1501 358.3 59.0701 362.17C49.8101 357.82 41.0001 349.6 33.6301 339C33.6301 339 22.8201 330.39 31.4401 320.08C34.7901 316.08 28.1401 303.87 33.2501 299.81V299.85Z" fill="#999999"/>
<path d="M15.0701 16.6997C13.5101 18.6997 13.25 22.0697 12.89 24.4897C12.36 28.1297 12.0401 31.7997 11.8001 35.4897C11.3501 42.4897 11.18 49.4897 11.2 56.4897C11.2 57.5597 11.2 58.6197 11.2 59.6897C11.1293 60.3217 11.2187 60.9613 11.4601 61.5497C11.5938 61.7753 11.784 61.9622 12.012 62.092C12.2399 62.2218 12.4977 62.2899 12.76 62.2897C13.42 62.2897 13.6 61.9497 14.06 61.5397C14.24 61.0597 14.26 61.0597 14.12 61.5397L14.43 61.2697C14.7637 61.0353 15.0781 60.7744 15.37 60.4897C16.7049 59.5285 18.1125 58.6726 19.58 57.9297C22.5068 56.5448 25.24 54.7832 27.7101 52.6897C28.8901 51.5797 27.62 49.9397 26.25 50.1797L27.95 50.8697C28.25 51.2797 28.05 51.1897 27.95 50.8697C27.85 50.5497 27.82 50.3397 27.75 50.0697C27.52 49.1597 27.31 48.2497 27.09 47.3397C26.43 44.5697 25.79 41.7997 25.15 39.0197C24.05 34.2497 23.0101 29.4497 21.8801 24.6797C21.3998 22.9515 20.647 21.3109 19.65 19.8197C18.99 18.7597 17.8601 16.5497 16.4601 16.3097C14.9101 16.0597 13.6601 18.2397 15.3001 19.0597C17.0201 19.9197 18.54 17.3297 16.81 16.4697L15.6601 19.2097C15.2901 19.1497 15.23 18.8597 15.58 19.2697C15.73 19.4497 15.89 19.6197 16.03 19.8097C16.5723 20.5076 17.07 21.2391 17.5201 21.9997C18.2294 23.1205 18.7592 24.3453 19.09 25.6297C19.51 27.4797 19.92 29.3297 20.34 31.1797C21.6134 36.7397 22.9 42.2964 24.2 47.8497C24.44 48.8497 24.68 49.8497 24.93 50.8497C24.9961 51.3692 25.1517 51.8734 25.39 52.3397C25.5657 52.6154 25.8226 52.8299 26.1253 52.9535C26.428 53.077 26.7616 53.1037 27.08 53.0297L25.62 50.5297C23.3364 52.4418 20.8115 54.0455 18.11 55.2997C16.8254 55.9642 15.58 56.7021 14.3801 57.5097C13.7901 57.9297 13.21 58.3697 12.65 58.8397C12.3292 59.0892 12.0283 59.3634 11.75 59.6597C11.61 59.8197 11.03 60.7897 11.51 59.9797L12.8001 59.2397L14.09 59.9797C14.24 60.2197 14.26 60.9797 14.26 60.3897C14.26 60.1397 14.26 59.8897 14.26 59.6397C14.26 58.7697 14.26 57.8997 14.26 57.0297C14.26 54.1497 14.26 51.2697 14.33 48.3897C14.3963 41.1587 14.8335 33.9359 15.64 26.7497C15.84 25.1997 16.08 23.6397 16.4 22.0997C16.53 21.4497 16.69 20.7897 16.87 20.1497C16.96 19.8397 17.05 19.5297 17.15 19.2297C17.25 18.9297 17.63 18.3097 17.25 18.7997C17.5193 18.5124 17.6692 18.1335 17.6692 17.7397C17.6692 17.346 17.5193 16.967 17.25 16.6797C17.1078 16.534 16.9375 16.4186 16.7494 16.3404C16.5614 16.2622 16.3594 16.2228 16.1558 16.2247C15.9521 16.2265 15.751 16.2696 15.5644 16.3512C15.3778 16.4329 15.2096 16.5514 15.0701 16.6997V16.6997Z" fill="white"/>
<path d="M26.19 42.7799C25.3759 37.6808 24.2843 32.63 22.92 27.6499C22.44 25.7899 19.54 26.5799 20.03 28.4499C21.3948 33.4259 22.4831 38.4736 23.29 43.5699C23.4079 43.9443 23.667 44.2582 24.0123 44.4449C24.3577 44.6315 24.7622 44.6764 25.14 44.5699C25.5172 44.4558 25.8364 44.2014 26.0317 43.8591C26.227 43.5168 26.2837 43.1127 26.19 42.7299V42.7799Z" fill="#999999"/>
<path d="M37.4201 35.4199C34.5601 30.8999 30.9701 26.8799 28.3101 22.2299C26.3901 18.8599 24.6001 12.7199 19.7001 13.1299C15.7001 13.4699 13.5501 16.6099 12.6401 20.1999C11.4101 25.0499 11.4601 30.1999 11.4301 35.1999C11.3801 42.1199 11.5101 49.0499 10.8301 55.9399C10.6401 57.8599 13.6401 57.8499 13.8301 55.9399C14.3901 50.3099 14.4001 44.6399 14.4101 38.9399C14.2904 33.9524 14.4875 28.9624 15.0001 23.9999C15.3601 21.3199 15.8101 17.9099 18.4901 16.5999C18.8223 16.3877 19.196 16.2488 19.5862 16.1925C19.9764 16.1363 20.3742 16.164 20.7528 16.2738C21.1315 16.3836 21.4823 16.573 21.7819 16.8293C22.0815 17.0856 22.3229 17.4028 22.4901 17.7599C23.6201 19.5199 24.4901 21.4599 25.4901 23.2799C28.2001 28.1299 31.9201 32.2799 34.8801 36.9799C35.8801 38.6099 38.5101 37.0999 37.4701 35.4699L37.4201 35.4199Z" fill="#999999"/>
<path d="M134.38 71.83C137.79 69 139.56 64 141 60C142.942 54.6173 144.319 49.0474 145.11 43.38C145.535 40.7628 145.686 38.1085 145.56 35.46C145.41 33.55 142.41 33.53 142.56 35.46C142.91 40.18 141.97 45.02 140.91 49.59C139.81 54.8091 138.091 59.8782 135.79 64.69C134.967 66.5802 133.766 68.2818 132.26 69.69C130.77 70.92 132.9 73.04 134.38 71.81V71.83Z" fill="#999999"/>
<path d="M142.35 12.1899C139.979 17.0796 137.856 22.086 135.99 27.1899C134.912 30.5281 134.188 33.9704 133.83 37.4599C133.11 43.0999 132.54 48.7599 131.83 54.4599C131.2 59.6899 130.5 64.9099 129.77 70.1299C129.677 70.5206 129.737 70.9322 129.938 71.2801C130.138 71.6279 130.465 71.8856 130.85 71.9999C131.227 72.1035 131.629 72.0572 131.972 71.8707C132.315 71.6843 132.572 71.3722 132.69 70.9999C133.803 63.0599 134.803 55.1066 135.69 47.1399C135.98 44.5699 136.27 41.9899 136.58 39.4199C136.852 36.3003 137.387 33.2092 138.18 30.1799C140.04 24.5655 142.292 19.0887 144.92 13.7899C145.74 12.0499 143.15 10.5299 142.33 12.2699L142.35 12.1899Z" fill="#999999"/>
<path d="M145.3 81.5198C144.88 77.2698 145.64 72.8398 146.3 68.6598C147.04 64.1798 148.02 59.7598 149.05 55.3498C149.58 53.0698 149.87 50.7598 150.58 48.5098C151.06 46.9798 151.68 45.5098 152.07 43.9398C152.504 42.1027 152.696 40.2167 152.64 38.3298C152.64 36.9598 152.38 35.5798 152.38 34.2098C152.38 32.4698 152.7 30.6798 152.79 28.9298C153.11 23.2898 153.03 17.2898 150.79 11.9998C149.41 8.7698 149.14 4.4698 146.58 1.8698C143.5 -1.2802 139.21 1.3498 137.06 4.1798C133.91 8.3198 132.13 13.3998 129.3 17.7598C126.04 22.7598 121.71 26.7598 117.14 30.5198C112.964 33.8844 109.468 38.015 106.84 42.6898C106.657 43.0322 106.613 43.4324 106.719 43.8062C106.825 44.1799 107.071 44.4981 107.407 44.6937C107.742 44.8894 108.141 44.9472 108.518 44.8551C108.895 44.763 109.222 44.5281 109.43 44.1998C111.664 40.146 114.623 36.5363 118.16 33.5498C121.776 30.7021 125.141 27.5506 128.22 24.1298C131.87 19.8298 134.36 14.9798 136.99 10.0298C137.865 8.20664 138.989 6.51382 140.33 4.9998C141.17 4.1398 142.74 2.9998 144 3.6398C145.26 4.2798 145.67 6.0398 146.05 7.1898C146.6 8.8898 147.05 10.6498 147.68 12.3098C149.73 17.3098 150.12 22.4698 149.88 27.8598C149.82 29.3698 149.71 30.8598 149.58 32.3898C149.492 34.0158 149.508 35.6459 149.63 37.2698C149.769 39.1092 149.661 40.9589 149.31 42.7698C148.98 44.2298 148.42 45.6198 147.95 47.0398C147.279 49.0764 146.771 51.1629 146.43 53.2798C146.08 55.4598 145.43 57.6198 144.99 59.7898C144.43 62.3565 143.933 64.9431 143.5 67.5498C142.74 72.0898 141.85 76.9398 142.3 81.5498C142.49 83.4498 145.49 83.4698 145.3 81.5498V81.5198Z" fill="#999999"/>
<path d="M154 101.71C153.55 104.52 152.49 107.23 151.84 110C151.494 111.225 151.348 112.498 151.41 113.77C151.681 115.713 152.139 117.625 152.78 119.48C153.444 121.334 153.783 123.29 153.78 125.26C153.567 126.825 152.868 128.284 151.78 129.43C150.803 130.552 150.059 131.857 149.59 133.27C149.24 134.8 149.95 136.1 150.41 137.52C151.41 140.76 152.63 145.33 150.41 148.32C149.25 149.87 151.85 151.32 153 149.84C155.1 147.05 154.8 143.14 154.16 139.92C153.819 138.276 153.351 136.661 152.76 135.09C152.26 133.74 153.03 132.82 153.83 131.72C154.859 130.484 155.711 129.111 156.36 127.64C156.894 125.821 156.949 123.896 156.52 122.05C155.96 118.8 153.87 115.37 154.46 112.05C155.05 108.73 156.35 105.78 156.87 102.55C157.17 100.66 154.28 99.8496 153.98 101.75L154 101.71Z" fill="#999999"/>
<path d="M5.59004 102.37C5.77004 104.37 4.99004 106.44 4.37004 108.37C3.57146 110.498 2.98202 112.698 2.61004 114.94C2.1691 119.082 3.28086 123.24 5.73004 126.61L5.34004 125.15C4.46004 128.05 3.54004 131.25 4.06004 134.31C4.47566 135.836 5.08743 137.301 5.88005 138.67C6.19526 139.411 6.41048 140.192 6.52005 140.99C6.64005 141.99 6.11004 142.25 5.64004 143.21C5.23593 144.023 4.92399 144.878 4.71005 145.76C4.35922 147.298 4.40751 148.9 4.85032 150.414C5.29314 151.928 6.11578 153.303 7.24005 154.41C8.60005 155.79 10.72 153.66 9.36004 152.29C8.7594 151.714 8.28076 151.024 7.95262 150.259C7.62448 149.495 7.45356 148.672 7.45004 147.84C7.48219 146.759 7.7483 145.698 8.23004 144.73C8.79004 143.55 9.67005 142.73 9.55005 141.37C9.35005 138.95 8.37004 137.18 7.39004 135.05C6.28004 132.63 7.39005 129.16 8.10005 126.4C8.43005 125.11 7.90005 124.68 7.30005 123.63C6.79598 122.683 6.41617 121.674 6.17004 120.63C5.68036 118.963 5.47085 117.226 5.55005 115.49C5.88005 111.02 8.98005 106.94 8.55005 102.37C8.39005 100.46 5.39005 100.45 5.55005 102.37H5.59004Z" fill="#999999"/>
<path d="M98.84 170.28C98.6169 173.824 99.3272 177.365 100.9 180.55C101.633 182.131 102.549 183.622 103.63 184.99C104.139 185.636 104.687 186.25 105.27 186.83C105.513 187.123 105.804 187.373 106.13 187.57C106.42 187.7 106.13 187.93 106.13 187.3L106.87 186H108.37C108.81 186.2 108.49 186.07 108.25 185.8C108.01 185.53 107.76 185.21 107.5 184.92C106.974 184.281 106.35 183.731 105.65 183.29C105.245 183.028 104.764 182.911 104.285 182.958C103.805 183.006 103.356 183.214 103.01 183.55C101.943 184.697 101.06 186.003 100.39 187.42C99.2889 189.649 98.8012 192.13 98.9769 194.61C99.1527 197.09 99.9856 199.478 101.39 201.53C102.338 202.968 103.426 204.308 104.64 205.53C104.898 205.874 105.201 206.184 105.54 206.45C105.04 206.19 105.94 205.54 106.2 205.19C107.11 203.98 107.3 204.14 106.36 203.97C105.899 203.883 105.429 203.846 104.96 203.86C100.45 204.09 101.41 209.41 102.5 212.26C103.389 214.576 104.533 216.786 105.91 218.85C106.964 220.63 108.349 222.191 109.99 223.45C111.59 224.53 113.09 221.93 111.5 220.86C111.263 220.698 111.045 220.51 110.85 220.3C110.5 219.95 110.17 219.57 109.85 219.19C109.168 218.342 108.544 217.45 107.98 216.52C106.657 214.487 105.618 212.283 104.89 209.97C104.614 209.169 104.485 208.326 104.51 207.48C104.532 207.274 104.6 207.075 104.71 206.9C104.62 207.06 104.71 206.9 104.91 206.9C105.009 206.878 105.111 206.878 105.21 206.9C105.398 206.909 105.585 206.929 105.77 206.96C106.36 207.04 106.88 207.24 107.44 206.96C107.648 206.826 107.823 206.646 107.951 206.434C108.078 206.222 108.155 205.983 108.175 205.737C108.196 205.49 108.159 205.242 108.068 205.012C107.977 204.782 107.834 204.576 107.65 204.41C106.73 203.35 105.65 202.41 104.8 201.3C103.319 199.477 102.331 197.304 101.93 194.99C101.786 193.443 101.953 191.884 102.422 190.403C102.891 188.923 103.652 187.551 104.66 186.37C104.847 186.167 105.018 185.95 105.17 185.72C105.43 185.23 104.74 185.92 104.45 186.01C104.16 186.1 104.08 185.8 104.31 186.1C104.39 186.21 104.93 186.68 105.18 186.94C105.592 187.473 106.04 187.977 106.52 188.45C108.05 189.74 109.6 187.97 108.84 186.45C108.382 185.741 107.807 185.116 107.14 184.6C106.431 183.888 105.795 183.107 105.24 182.27C102.784 178.825 101.584 174.642 101.84 170.42C102.03 168.5 99.03 168.51 98.84 170.42V170.28Z" fill="#999999"/>
<path d="M117.59 146.91C113.913 146.014 110.072 146.045 106.41 147C105.061 147.426 103.747 147.958 102.48 148.59C101.299 149.014 100.187 149.611 99.1801 150.36C97.3701 152.09 99.5301 153.68 101.18 154.15C102.521 154.522 103.893 154.767 105.28 154.88C107.23 155.06 107.15 152.12 105.28 151.88C105.07 151.88 104.85 151.88 104.64 151.82L106.14 153.32C106.14 150.83 102.98 150.47 101.14 150.5C98.265 150.53 95.4442 151.287 92.9401 152.7C91.6499 153.366 90.5904 154.405 89.9 155.682C89.2097 156.96 88.9204 158.416 89.0701 159.86C89.5001 163.6 92.0701 166.52 95.0701 168.6C98.3201 170.939 102.18 172.284 106.18 172.47C106.578 172.47 106.959 172.312 107.241 172.03C107.522 171.749 107.68 171.368 107.68 170.97C107.68 170.572 107.522 170.19 107.241 169.909C106.959 169.628 106.578 169.47 106.18 169.47C103.546 169.346 100.979 168.599 98.6901 167.29C96.2301 165.98 93.6901 164.1 92.5701 161.48C91.6601 159.48 91.8001 157.32 93.5701 155.87C95.3154 154.613 97.3604 153.837 99.5001 153.62C100.438 153.491 101.387 153.464 102.33 153.54C102.53 153.54 102.72 153.62 102.92 153.66C103.12 153.7 103.47 153.77 103.16 153.72C103.45 153.72 103.25 153.84 103.22 153.72C103.22 153.72 103.09 153.25 103.09 153.35C103.1 153.744 103.261 154.12 103.541 154.399C103.82 154.678 104.195 154.84 104.59 154.85C104.8 154.85 105.02 154.85 105.23 154.91V151.91C105.15 151.919 105.07 151.919 104.99 151.91C104.59 151.75 104.99 151.91 104.64 151.91C104 151.81 103.37 151.7 102.74 151.56L101.74 151.32C101.6 151.27 101.45 151.23 101.32 151.17C101.19 151.11 101.42 151.11 101.2 151.17C100.98 151.23 101.2 150.85 101.2 151.17C101.284 151.249 101.346 151.349 101.379 151.459C101.413 151.57 101.416 151.687 101.39 151.8C101.46 151.951 101.478 152.121 101.442 152.283C101.406 152.446 101.317 152.592 101.19 152.7C101.19 152.7 101.19 152.7 101.3 152.64C101.534 152.558 101.759 152.45 101.97 152.32C103.874 151.27 105.886 150.429 107.97 149.81C110.862 149.216 113.849 149.264 116.72 149.95C118.6 150.33 119.41 147.43 117.52 147.06L117.59 146.91Z" fill="#999999"/>
<path d="M20.8601 281.18C21.3001 278.44 22.1901 275.62 22.2401 272.83C22.2901 270.04 19.9401 268.42 18.9501 266.07C17.9547 263.63 17.7964 260.929 18.5001 258.39C19.0201 256.48 19.9401 254.72 20.5001 252.83C21.2001 250.58 21.3401 248.55 19.9701 246.54C19.2346 245.71 18.6735 244.741 18.3201 243.69C18.1242 242.531 18.2773 241.341 18.7601 240.27C19.5501 238.49 21.0601 236.97 21.0601 234.89C21.0601 232.64 19.0601 230.83 18.3101 228.83C17.5601 226.83 18.7201 225.08 19.4001 223.34C19.9601 221.94 21.1401 219.76 20.6601 218.18C20.3501 217.18 18.7901 216.25 18.0901 215.43C17.3983 214.63 16.8319 213.73 16.4101 212.76C15.6383 210.771 15.2187 208.663 15.1701 206.53C15.0801 205.28 15.0301 204.01 14.9701 202.75C15.0048 201.37 14.8773 199.99 14.5901 198.64C13.9301 196.43 11.5401 194.96 11.5901 192.54C11.6105 191.185 12.0239 189.865 12.7801 188.74C13.4401 187.74 14.5901 186.99 13.9401 185.68C13.6177 185.149 13.2497 184.647 12.8401 184.18C12.0701 183.188 11.378 182.138 10.7701 181.04C9.34011 178.35 9.42011 174.97 10.1001 172.04C10.2801 171.29 10.5001 170.55 10.7501 169.83C11.1398 169.069 11.4096 168.253 11.5501 167.41C11.5501 166.57 10.8501 165.93 10.3401 165.32C9.55569 164.453 8.90823 163.472 8.4201 162.41C8.2244 162.028 8.12234 161.604 8.12234 161.175C8.12234 160.745 8.2244 160.322 8.4201 159.94C9.6001 157.77 11.0901 155.2 9.74011 152.77C8.80011 151.08 6.2101 152.59 7.1501 154.28C8.0901 155.97 5.80011 158.04 5.33011 159.44C4.62011 161.58 5.66011 163.96 6.88011 165.69C7.39551 166.478 7.98124 167.218 8.63011 167.9C8.97011 168.25 8.63011 167.96 8.63011 167.95L8.69011 168.04C8.53011 167.33 8.39011 167.28 8.27011 167.87C7.89035 168.583 7.62704 169.353 7.49011 170.15C6.63254 173.046 6.42761 176.095 6.89011 179.08C7.44083 181.429 8.53324 183.618 10.0801 185.47C10.3201 185.79 10.9401 186.96 11.3101 187.12V185.72L11.0601 186.01C10.7998 186.285 10.5685 186.587 10.3701 186.91C9.9438 187.535 9.58829 188.206 9.3101 188.91C8.74436 190.15 8.50004 191.513 8.59966 192.873C8.69927 194.232 9.13962 195.545 9.88011 196.69C10.5159 197.49 11.0877 198.34 11.5901 199.23C12.1001 200.33 11.9201 201.95 11.9801 203.16C12.2001 207.66 12.2601 212.52 14.9801 216.34C15.5981 217.214 16.3016 218.025 17.0801 218.76C17.3243 219.007 17.5849 219.238 17.8601 219.45L17.7301 218.86C17.7301 219.02 17.7301 219.05 17.7301 218.93C17.5643 219.338 17.4469 219.764 17.3801 220.2C16.7501 222.12 15.8301 223.95 15.2601 225.89C14.5701 228.21 15.5201 230.28 16.6901 232.26C17.1301 233 18.0001 234 18.0501 234.9C17.9411 235.687 17.6273 236.432 17.1401 237.06C15.8921 238.859 15.2319 241 15.2501 243.19C15.2919 244.449 15.6907 245.669 16.4001 246.71C16.9401 247.54 17.9101 248.47 18.0501 249.48C18.3201 251.48 16.9101 253.86 16.2201 255.66C15.2381 258.037 14.8635 260.622 15.1301 263.18C15.2956 264.827 15.742 266.434 16.4501 267.93C17.1801 269.35 18.4501 270.5 19.0301 271.98C19.2543 273.083 19.1993 274.224 18.8701 275.3C18.5601 277.01 18.1901 278.71 17.9201 280.42C17.6201 282.31 20.5101 283.13 20.8101 281.22L20.8601 281.18Z" fill="#999999"/>
<path d="M150 149.65C150.251 150.939 150.644 152.196 151.17 153.4C151.77 155.2 152.39 157.01 152.82 158.85C153.04 159.724 153.061 160.637 152.88 161.52C152.64 163.23 152.08 164.89 151.88 166.6C151.74 167.274 151.71 167.966 151.79 168.65C151.97 169.55 152.46 170.47 152.72 171.36C153.233 172.985 153.568 174.662 153.72 176.36C153.854 177.967 153.747 179.585 153.4 181.16C153.011 182.503 152.3 183.732 151.33 184.74C150.539 185.629 149.867 186.618 149.33 187.68C149.143 187.975 149.03 188.31 148.999 188.658C148.967 189.006 149.019 189.356 149.15 189.68C149.37 190.29 149.71 190.89 149.98 191.5C150.995 193.436 151.694 195.522 152.05 197.68C152.223 200.003 151.701 202.324 150.55 204.35C149.93 205.54 148.33 207.15 148.55 208.54C148.922 209.957 149.203 211.397 149.39 212.85C149.439 214.421 148.984 215.967 148.09 217.26C147.362 218.084 146.731 218.99 146.21 219.96C145.36 222.13 146.9 224.9 147.85 226.81C148.556 228.091 149.155 229.429 149.64 230.81C150.039 232.136 150.001 233.557 149.53 234.86C149.101 236.034 148.8 237.251 148.63 238.49C148.581 239.804 148.952 241.1 149.69 242.19C151.1 244.5 153.28 246.19 154.62 248.58C155.62 250.37 155.32 252.82 155.14 254.79C155.04 255.91 154.9 257.02 154.78 258.14C154.618 258.944 154.602 259.77 154.73 260.58C154.98 261.58 156.02 262.48 156.58 263.29C157.222 264.23 157.807 265.208 158.33 266.22C161.18 271.73 161.53 278.02 160.93 284.1C160.75 286.02 163.75 286.01 163.93 284.1C164.56 277.66 164.05 271.1 161.18 265.22C160.615 264.066 159.97 262.954 159.25 261.89C158.91 261.39 158.56 260.89 158.25 260.43C158.074 260.173 157.883 259.926 157.68 259.69C157.28 259.31 157.79 259.81 157.68 259.97C157.724 259.638 157.724 259.302 157.68 258.97C157.68 258.43 157.79 257.88 157.85 257.34C158 256.02 158.16 254.69 158.23 253.34C158.38 250.58 158.1 248.11 156.43 245.83C155.43 244.46 154.25 243.24 153.2 241.92C152.38 240.92 151.44 239.68 151.64 238.31C151.88 236.72 152.64 235.23 152.86 233.62C153.053 231.927 152.772 230.213 152.05 228.67C151.4 227.09 150.54 225.6 149.84 224.04C149.486 223.294 149.225 222.508 149.06 221.7C149.06 221.56 148.92 220.7 148.93 221.2C148.93 220.91 148.93 221.2 148.93 221.08C149.258 220.567 149.618 220.076 150.01 219.61C150.62 218.81 151.121 217.932 151.5 217C152.77 214 152.3 210.68 151.34 207.66L151.19 208.82C153.43 205.57 155.33 201.82 154.98 197.73C154.69 194.29 153.07 191.18 151.66 188.08L151.81 189.24C152.43 187.56 153.94 186.32 154.94 184.87C156.049 183.085 156.651 181.031 156.68 178.93C156.812 176.558 156.576 174.179 155.98 171.88C155.68 170.66 155.12 169.48 154.86 168.26C154.749 167.108 154.885 165.945 155.26 164.85C155.866 162.911 156.09 160.874 155.92 158.85C155.7 157.68 155.399 156.528 155.02 155.4C154.6 154.04 154.15 152.7 153.69 151.4C153.53 150.91 153.36 150.4 153.19 149.93C153.12 149.71 152.95 148.85 153.03 149.62C152.84 147.71 149.84 147.69 150.03 149.62L150 149.65Z" fill="#999999"/>
<path d="M18.1201 280C16.7701 282.33 15.1901 284.63 14.4601 287.26C14.0945 288.633 14.0258 290.069 14.2586 291.47C14.4914 292.872 15.0203 294.209 15.8101 295.39V293.88C14.2501 296.17 14.5901 299.07 15.0101 301.65C15.3501 303.72 16.4901 306.8 15.4801 308.82L16.7801 308.07C15.8445 308.178 14.9437 308.489 14.1401 308.98C12.964 309.506 11.8587 310.178 10.8501 310.98C9.68006 311.98 9.37006 313.15 8.85006 314.52C8.356 315.835 7.70816 317.087 6.92006 318.25C5.36695 320.191 4.02599 322.293 2.92006 324.52C1.69006 327.41 1.39006 330.58 0.610058 333.61C0.130058 335.48 3.03005 336.28 3.51005 334.41C4.20005 331.71 4.51006 328.86 5.44006 326.24C6.37924 324.057 7.651 322.033 9.21006 320.24C9.84355 319.389 10.3928 318.478 10.8501 317.52C11.1901 316.8 11.5001 316.06 11.7901 315.32C11.9672 314.738 12.1878 314.169 12.4501 313.62C13.2161 312.867 14.1281 312.278 15.1301 311.89C15.5401 311.69 15.9501 311.49 16.3801 311.32C16.5301 311.26 16.7001 311.22 16.8401 311.15C16.9801 311.08 17.3501 311.15 16.8401 311.15C17.1021 311.156 17.3607 311.09 17.588 310.959C17.8153 310.829 18.0027 310.639 18.1301 310.41C19.3201 308.03 18.7601 305.33 18.3101 302.83C17.8901 300.53 17.0301 297.57 18.4601 295.47C18.5977 295.242 18.6704 294.981 18.6704 294.715C18.6704 294.449 18.5977 294.188 18.4601 293.96C17.8104 293.019 17.3959 291.935 17.2515 290.801C17.1071 289.666 17.2369 288.514 17.6301 287.44C18.4934 285.397 19.5445 283.439 20.7701 281.59C20.9534 281.248 20.9968 280.847 20.8911 280.474C20.7853 280.1 20.5388 279.782 20.2032 279.586C19.8676 279.39 19.4693 279.333 19.0919 279.425C18.7146 279.517 18.3877 279.752 18.18 280.08L18.1201 280Z" fill="#999999"/>
<path d="M160.88 284C160.43 287.67 159.75 292 162.07 295.16C163.92 297.74 167.24 299.52 168.44 302.54C169.06 304.1 168.76 305.93 168.56 307.54C168.252 309.242 168.178 310.978 168.34 312.7C168.78 315.63 171.11 318.04 172.99 320.17C173.93 321.17 174.74 322.286 175.4 323.49C176.183 325.208 176.56 327.083 176.5 328.97C176.5 329.368 176.658 329.749 176.939 330.03C177.221 330.312 177.602 330.47 178 330.47C178.398 330.47 178.78 330.312 179.061 330.03C179.342 329.749 179.5 329.368 179.5 328.97C179.584 325.828 178.655 322.743 176.85 320.17C175.22 317.96 173.12 316.17 171.85 313.69C170.26 310.69 172.09 306.92 171.78 303.69C171.44 300.11 168.87 297.85 166.44 295.48C165.119 294.41 164.15 292.967 163.66 291.34C163.15 288.96 163.66 286.34 163.92 283.95C164.16 282.04 161.16 282.05 160.92 283.95L160.88 284Z" fill="#999999"/>
</svg>
