<svg xmlns="http://www.w3.org/2000/svg" viewBox="0 0 512 512"><defs><style>.cls-1,.cls-2{fill:#fff;}.cls-1{stroke:#fff;stroke-miterlimit:10;stroke-width:5px;}.cls-3{fill:#ccc;}.cls-4{fill:#999;}</style></defs><g id="Rectangle"><rect class="cls-1" x="2.5" y="2.5" width="507" height="507"/></g><g id="Body"><g id="layer1"><g id="g1218"><g id="path1120-9"><path class="cls-2" d="M274.19,60.91c4.75,25.08,50,42.62,37.24,37.25-2.61-3.19,5.28-30.59,5.28-30.59s3.5-11.62,2.84-15.14,1.22-16.89-.48-19.49-3.56-11.36-4.17-12.43-2.06-3.92-4.7-2.56-4.42,4.09-5.38,5.64-7.67,13.07-9.07,14.73-8.13,7.55-8.13,7.55M208.08,57.45c-3-5,.32-.63-3.72-6.28,0,0-6.6-5.78-8.84-11s-4.53-10.13-8.58-9.07-4.81,2.49-5.7,11.42-.77,28.93-.77,28.93c.28-.06-2.59.06-.57,6.38C189.39,71.1,196.84,67.64,208.08,57.45ZM175.3,117.57c-5.07,14.39.23,30,.69,42.93-3.32,1,0,7.24.56,11.35-2.86,4.2-1.64,8.43.81,12.67-1.72,5.53-2.18,11.15,2.68,17.16-1.62,5-2.62,9.88,1.48,13.31.36,8.62.52,17.48,6.56,19.46-2.05,4.78-5.18,9-1,16.94-1.68,4.31-4.58,8.45.7,13.73-1.39,6.12-6.62,9.77.75,21.49l-.09,9.26c-1.92,5.23-4.19,10.56-3.13,14.84l.58,15.25c-6.12,2.43-10.78,14.86-14.81,27.83,8.62,7,41.31,31.69,89.45,30.71,45.09-.92,75.39-23.8,84.37-31.13,3.25-5.59-5.37-15.68-6.69-17.32-1.62-19.17-3.82-22.24-6.83-24.87-1.07-12.19-1.5-24.26-6.76-37.27,1.49-9.48-3.55-13.47-6.18-19.49,1.72-8.68-1.06-12.07-2.06-17.57l2.39-13.15c3.65-6.23,2.94-13-.48-20.07,7.05-6.35,3.51-13.46,2.87-20.36,2.22-6.58,0-12.71-1-19,4.17-3.3.42-9.08-.8-14.07,6.09-11.93,2.58-16,1.49-22,2.09-3.91,3.21-10.48.71-11.58L316.07,74c-23-12-84.82-46.24-132.27.81a3.37,3.37,0,0,0-1.5-.07C174.94,76.19,175,105.62,175.3,117.57Z"/><path class="cls-2" d="M272.74,61.31c1.81,9.26,8.43,17,15.35,23a111.09,111.09,0,0,0,20.29,13.82c1.49.81,3.08,1.47,4.54,2.31l1.15-2.74c.62.24.23.09,0,0L313,97.21a1.94,1.94,0,0,0-.36-.15c-.39-.11-.22-.28-.15.07.18.89.14-.1.07,0s.06.3,0-.07c0-.15-.07-.29-.1-.43s0,.24,0-.15,0-.73,0-1.1c0-4.38,1.12-8.82,2.08-13.07,1.46-6.44,3.38-12.73,5-19.13a58.27,58.27,0,0,0,1.55-8c.24-2.19-.15-3.71-.11-5.86,0-2.79.25-5.58.34-8.37a26.56,26.56,0,0,0-.35-7.45A16,16,0,0,0,319.75,31a33.34,33.34,0,0,1-1.29-3.76c-.69-2.29-1.15-4.71-2-6.93s-3-4.69-5.7-4.13c-3.23.67-5.62,4.07-7.24,6.69-2.41,3.91-4.67,7.92-7.11,11.81a17,17,0,0,1-2.95,3.87c-1.83,1.79-3.74,3.49-5.65,5.18l-1.23,1.08c-1.45,1.28.68,3.39,2.13,2.12s2.64-2.34,3.95-3.53a33.38,33.38,0,0,0,4.58-4.55,138.29,138.29,0,0,0,7.38-12,37.15,37.15,0,0,1,3.22-5c.77-.92,2.61-3.15,4-2.77.84.24,1.41,1.42,1.78,2.13,0,.09-.08-.26,0,.13l.15.45c.18.56.33,1.12.49,1.68.36,1.31.72,2.62,1.1,3.92s.84,2.8,1.38,4.15c.22.55.45,1.1.72,1.62.09.17.2.33.29.49.18.32,0,0,.12.24.75,2.08.43,4.73.36,6.89-.09,2.8-.3,5.59-.35,8.39,0,2.09.33,3.66.15,5.63a50,50,0,0,1-1.52,7.67c-1.57,6.23-3.44,12.36-4.86,18.62a76.44,76.44,0,0,0-2.26,13.5,7.63,7.63,0,0,0,.6,4.12c.51.86,1.74,1.15,2.62,1.54.21.09.42.19.64.27,1.6.63,2.59-1.91,1.15-2.74-1.1-.63-2.31-1.13-3.43-1.72q-4.37-2.3-8.54-4.94c-7.55-4.76-14.87-10.38-20.41-17.45a31.59,31.59,0,0,1-6.42-13.21c-.37-1.89-3.26-1.09-2.89.8Z"/><path class="cls-2" d="M209.37,56.7c-.39-.65-.78-1.3-1.13-2,0-.07-.22-.51-.15-.29s0-.08,0-.13a5.19,5.19,0,0,0-.6-1.31,18.71,18.71,0,0,0-2.18-3c-.71-.72-1.48-1.38-2.2-2.1a29.9,29.9,0,0,1-6.27-8.43c-1.46-3.24-3-7.65-6.39-9.36-2.24-1.13-5.22-.45-7.16,1s-2.5,3.89-2.87,6.13A134.92,134.92,0,0,0,179.07,57c-.09,4.84-.13,9.7-.1,14.54a1.52,1.52,0,0,0,1.9,1.45,2.43,2.43,0,0,0,.37-.16,1.52,1.52,0,0,0-.35-2.74c-1.08-.31-2.17.63-2.65,1.49-1.12,2-.41,4.71.21,6.74a1.52,1.52,0,0,0,2.21.9c4.43-3.16,9.06-6,13.57-9a130.84,130.84,0,0,0,14.91-11.63c1.44-1.29-.69-3.41-2.12-2.12a127.07,127.07,0,0,1-14.59,11.36c-4.42,3-9,5.75-13.29,8.84l2.2.89a8.25,8.25,0,0,1-.53-4.38c-.07.25.14-.24.15-.26,0,.2.1,0-.14.13.2-.12.3,0-.08,0,.44-.07-.71,0-.65,0l-.36-2.74.34-.14L182,71.5c-.06-9.47-.15-19,.72-28.48.25-2.67.29-6,1.55-8.44a2.78,2.78,0,0,1,1.29-1.35,5.3,5.3,0,0,1,2.65-.72c1.41.11,2.42,1.49,3.13,2.59a36.94,36.94,0,0,1,2.58,5.1,31.09,31.09,0,0,0,5.94,8.61c.93,1,1.9,2,2.9,2.9a13.86,13.86,0,0,1,1.94,2.49c.13.21.26.42.4.62s.21.45.1.16,0,.09,0,.18a13.26,13.26,0,0,0,1.6,3.05C207.79,59.86,210.38,58.35,209.37,56.7Z"/><path class="cls-2" d="M173.86,117.18c-4.92,14.32,0,28.8.63,43.32l1.11-1.44c-5.2,1.92-1.08,9.58-.5,13.19l.15-1.16c-3,4.68-1.76,9.64.81,14.19l-.15-1.16a22.74,22.74,0,0,0-1.13,9.25,18.66,18.66,0,0,0,4.2,9.37l-.39-1.46c-1.62,5.1-2.62,10.82,1.87,14.77L180,215c.28,6.84-.32,18.07,7.66,20.9l-.89-2.2c-1.14,2.62-2.58,5.17-3.06,8a16.57,16.57,0,0,0,2,10.44L185.6,251c-.94,2.37-2.16,4.66-2.35,7.26-.22,3.1,1.35,5.76,3.44,7.92l-.39-1.46c-.91,3.86-3.19,7.19-3.15,11.28a18.83,18.83,0,0,0,2.14,7.95,10.6,10.6,0,0,0,1.29,2.39c-.19-.21.6.92.42.33,0,.06,0,.14,0,.2a13.9,13.9,0,0,1,0,2.14l-.06,5.9a4.6,4.6,0,0,1-.48,2c-.72,1.92-1.45,3.85-2,5.83a20.94,20.94,0,0,0-.64,8.25c.13,1.39.11,2.82.16,4.22l.41,10.78,1.11-1.44c-4.31,1.81-6.9,6.2-8.88,10.22a126.08,126.08,0,0,0-7,18.66,1.46,1.46,0,0,0,.38,1.46,139.84,139.84,0,0,0,24.2,15.66A141.43,141.43,0,0,0,241.05,385a137.2,137.2,0,0,0,57.34-5.13,142.68,142.68,0,0,0,37.82-18.19c1.9-1.29,3.76-2.63,5.6-4a30,30,0,0,0,4.12-3.24c2.11-2.31,1.06-6.48,0-9a36,36,0,0,0-5-8.24c-.57-.75-1.16-1.47-1.75-2.2l.44,1.06c-.54-6.35-1-13.05-3-19.15a14.82,14.82,0,0,0-4.29-6.78l.44,1.06c-1-11.25-1.65-22.59-5.24-33.39-.22-.67-.45-1.33-.69-2a10.83,10.83,0,0,1-.8-2c-.16-1.19.28-2.63.23-3.87a18.61,18.61,0,0,0-1.26-6c-1.41-3.61-3.81-6.68-5.39-10.2l.15,1.15a26.5,26.5,0,0,0-.51-12.67c-.24-.84-.51-1.68-.76-2.51a12.12,12.12,0,0,0-.67-2.62c-.14-.2-.16.51,0-.13l.21-1.19,1.52-8.36c.17-.94.26-1.94.52-2.86.42-1.53,1.4-2.94,1.85-4.52,1.65-5.82.1-11.76-2.42-17.08l-.23,1.82A14.1,14.1,0,0,0,324,196a30.74,30.74,0,0,0-.79-9.06c-.14-.78-.28-1.55-.39-2.33a6.52,6.52,0,0,1,.28-2.63,22.37,22.37,0,0,0,.49-6.05c-.21-4-1.3-8-2-12l-.38,1.46c4.85-4.13.83-10.68-.41-15.53l-.15,1.15c2.15-4.26,4-9,3.65-13.82-.22-3.23-1.42-6.21-2-9.36l-.15,1.16a20.67,20.67,0,0,0,2.32-8c.14-2-.14-4.59-2.14-5.63l.74,1.29-3.22-25L318,77.11c-.13-1-.22-2-.39-3-.3-1.79-3.15-2.64-4.64-3.42A230.68,230.68,0,0,0,279.49,55.9c-14.33-4.8-29.59-7.64-44.74-6.46a81.5,81.5,0,0,0-46.46,19.21c-1.92,1.62-3.77,3.32-5.55,5.08l1.46-.38c-6-1.18-7.83,6.63-8.68,11a126.23,126.23,0,0,0-1.78,22.31c-.05,3.63,0,7.26.06,10.89,0,1.93,3,1.94,3,0-.12-5.55-.13-11.11.08-16.66a90.93,90.93,0,0,1,2-17.88,15.45,15.45,0,0,1,2.29-5.76,3.57,3.57,0,0,1,1.1-1c.65-.22,1.29.13,1.94-.05.9-.25,1.7-1.41,2.37-2a83.15,83.15,0,0,1,20-14.07c12.74-6.34,27-8.66,41.14-7.76,12.94.82,25.61,4.2,37.68,8.81A260.51,260.51,0,0,1,312.89,74c.8.43,1.61.85,2.42,1.27L314.57,74l4.89,37.94c.2,1.56.31,3.16.6,4.7.17.89.77,1,1.16,1.71.56,1,.28,2.65.12,3.66a18.79,18.79,0,0,1-1.17,4.16,11.86,11.86,0,0,0-.77,1.66,4.38,4.38,0,0,0,.23,1.89c.92,4,2.24,7.63,1.39,11.83a25.87,25.87,0,0,1-1.27,4.24c-.64,1.66-2.17,3.5-1.72,5.3.72,2.9,2.35,5.68,2.54,8.7a4.37,4.37,0,0,1-.37,2.23c-.37.72-1.27,1.12-1.49,1.91s.23,2.13.39,3,.37,1.83.55,2.75a41.85,41.85,0,0,1,.93,6.79,20.12,20.12,0,0,1-.18,3.55c-.16,1-.64,2.05-.74,3.07a19.07,19.07,0,0,0,.66,4.84,42.87,42.87,0,0,1,.72,4.9,11.51,11.51,0,0,1-3.84,9.76,1.54,1.54,0,0,0-.24,1.82c1.82,3.84,3.12,8.11,2.6,12.4a16.56,16.56,0,0,1-1.85,5.68,4.62,4.62,0,0,0-.54,1.52l-2.08,11.46a11,11,0,0,0,.7,5.31,29.51,29.51,0,0,1,1.66,8.25,23.22,23.22,0,0,1-.12,2.64,20.15,20.15,0,0,0-.42,2.77c0,1.31,1.27,2.94,1.92,4.06a36.23,36.23,0,0,1,3.82,7.46,15.42,15.42,0,0,1,.71,4.42c0,1.07-.13,2.1-.21,3.16a7.48,7.48,0,0,0,.87,3.08,79.17,79.17,0,0,1,3.4,12.55c.76,4.09,1.24,8.22,1.62,12.36.18,2,.34,3.94.5,5.91.12,1.52-.15,3.78.9,4.95a20.35,20.35,0,0,1,1.85,2.05,14.72,14.72,0,0,1,1.7,3.85,50.34,50.34,0,0,1,1.45,6.77c.25,1.63.46,3.27.65,4.91.09.88.19,1.75.27,2.62a18.5,18.5,0,0,0,.37,3.88,6.6,6.6,0,0,0,1.17,1.63c.66.82,1.3,1.66,1.91,2.53a26.42,26.42,0,0,1,3.8,7.1c.52,1.65,1,4-.5,5.17q-1.61,1.29-3.24,2.52a140.44,140.44,0,0,1-23.53,14.23,135.57,135.57,0,0,1-85,10.77,139.68,139.68,0,0,1-56.66-25.69c-.79-.6-1.67-1.29-2.52-2l.39,1.46a129.27,129.27,0,0,1,6.26-17.08c1.6-3.37,3.81-8.14,7.5-9.7a1.55,1.55,0,0,0,1.1-1.45l-.5-13.2c-.11-2.79-.51-5.39.17-8.17s1.77-5.16,2.62-7.76a8.48,8.48,0,0,0,.28-2.71c0-2.41.22-4.89.07-7.3-.11-1.65-1.64-3.33-2.34-4.84a15.33,15.33,0,0,1-1.5-5.5c-.13-2.72.91-5.13,1.91-7.6a10.44,10.44,0,0,0,1.18-3.76c0-1.13-1.34-2-1.92-2.84a6.29,6.29,0,0,1-1.08-2.92c-.18-2,.69-3.88,1.44-5.64.39-.92,1-1.9.73-2.9-.42-1.38-1.22-2.6-1.57-4-1.06-4.27.88-7.8,2.53-11.59a1.53,1.53,0,0,0-.9-2.2c-4.31-1.53-4.8-7.52-5.11-11.37-.11-1.3-.18-2.61-.23-3.91s.22-3-.74-4a7.34,7.34,0,0,1-2.18-6.56,23.41,23.41,0,0,1,.83-3.71,6.49,6.49,0,0,0,.49-1.81c0-.85-.81-1.51-1.26-2.17a14.3,14.3,0,0,1-2.62-7.71,17.24,17.24,0,0,1,.3-3.59c.22-1.14.93-2.54.9-3.69s-1.32-2.75-1.76-4a9.43,9.43,0,0,1-.61-4.78c.28-1.6,1.69-2.91,1.48-4.52a26.22,26.22,0,0,0-.93-3.69c-.23-.8-1.9-5.17-.65-5.63a1.54,1.54,0,0,0,1.1-1.45c-.57-14.22-5.55-28.51-.74-42.53C177.38,116.14,174.48,115.36,173.86,117.18Z"/></g><g id="path621552-0"><path class="cls-3" d="M311.64,31.69l-8.47,20.36,1.78-10c-8.12,11-10.92,20-16.5,20-6.69,1.48-5.78-5.17-9.23-7.75l-5,6.42c5.8,19.45,19.55,28.42,35.84,36.84l1.44-2.27c-3.16-4-4.32-11.17-3.1-15.13C308.55,79,313,57.9,313,57.9s-3.67-7.95-3.51-12.09S311.64,31.69,311.64,31.69ZM184.13,33.76c-.07,0-.11.06-.13.17-3.72,8.5-3.4,43.66-3.19,42.81,4.12-4,9.7-5.15,13.88-9.13-.11.18-5.59-23.79-6.22-26.66-.52-2.4-3.71-7.21-4.34-7.19Zm17.12,282.09c2.86-2.27,3.87-10.12-.38-14.67-2.62-2.81,2.81-8.43,2.16-12.18-.61-3.53-2.82-7.52-2.64-11.31.17-3.64,3.07-6.77,3.51-10.13-.72-9.58-3.47-9.37-.72-14.2,1.54-7.74-2.46-14.66-1.77-19,4.88-5,10.58-8.67,2.11-18.67-.63-.6.9-4.72-1.74-6.35-5-3.07-7.42-24.37-4.87-29.37,1.3-2.54,10-12.1,14.31-15.95,1.31-1.16,1.31-2.47,2.17-3.58,6.52-3.43,16.36-2.07,20.36,3.57,1.45,1.33,10.35.23,12.37,0,2.56-.27,15.56-1.46,17.5-3.33,2.27-2.17-4.9-13-5.2-17.42s-3.07-3.2,3.91-6.37c5.16-1.19,21.3-2.48,20.63-8.49-.57.25,2.52-6.33-.71-11.8-11-18.85-108-42.09-106.35.16-3.11,3.35-2.12,22.88-2.1,20.86,0-2.53-2.27,10.39,3.5,19.29,1,1.62-2.15,3.56-2.46,5.46-.51,3.15,2.25,5.41,2.38,8.23.11,2.4-2.11,4.52-1.86,7,.21,2,3,3.25,3,5.2,0,3.63-1.71,6.78-2.06,10.61-.4,4.37,4.7,8.09,5,8,2.79-.55-2.69,5.17-2.3,8.25.34,2.64,2.75,4.4,3.09,6.9.38,2.81.15,9.14,1.2,11.87.94,2.45-.54,2.31,3.34,4.82s-1.9,8-1.57,12c.16,2.05,2.23,3.29,2.42,5.14.25,2.37-2.66,5.11-2.53,7.91.12,2.58,2.71,4.61,2.79,6.87.1,3.22-2.83,6.57-2.94,10-.15,4.82,2.69,8.33,3.75,12.75.73,3.09,1.73,6.11-.1,8.76s-4.27,5.27-3,8.72c0,0,.51,6.78-.69,11.09s.08,10.41.08,10.41l-4.79,3.6-1.4,7c-1.25-.27-8.07,10.51-7.58,16.09,8.17,7.48,31.08,20.71,56,24.58C217.81,373.82,209,365.6,201.63,355c0,0-10.81-8.61-2.19-18.92,3.35-4-3.3-16.21,1.81-20.27Z"/><path class="cls-2" d="M310.2,31.29l-7.41,17.8-1.06,2.56,2.89.8,1.77-10a1.51,1.51,0,0,0-2.74-1.15c-2.25,3.08-4.31,6.3-6.31,9.55a60.65,60.65,0,0,1-4.61,7c-1.05,1.26-2.31,2.54-4,2.75-2.13.26-3.65.43-4.83-1.6s-1.78-4.24-3.64-5.7a1.52,1.52,0,0,0-2.12,0l-4.61,6a3.7,3.7,0,0,0-.74,1.12c-.29,1.06.61,2.77,1,3.77a52.41,52.41,0,0,0,3.13,7.07c4.34,8.13,11,14.56,18.57,19.68a136.06,136.06,0,0,0,13.85,8,1.52,1.52,0,0,0,2.05-.54l1.45-2.26a1.48,1.48,0,0,0,0-1.52,17.32,17.32,0,0,1-3.3-9.07,13.84,13.84,0,0,1,.18-4.26c.08-.35.14-.7.22-1,0-.16-.07.46,0,.23s.07-.39.1-.58c.71-3.87,1.54-7.73,2.34-11.58.68-3.28,1.46-6.56,2-9.85.22-1.24-.8-2.8-1.24-3.92a26.62,26.62,0,0,1-2.18-8A40.12,40.12,0,0,1,312,37.89q.5-2.91,1.08-5.8c.38-1.88-2.51-2.69-2.89-.8A114.9,114.9,0,0,0,308,44.93c-.37,4.67,1.74,9.56,3.65,13.72l-.15-1.15q-1.26,6-2.5,12.09c-.53,2.59-1.07,5.18-1.58,7.77a37,37,0,0,0-1,5.66,20.45,20.45,0,0,0,3.77,13.06V94.56l-1.45,2.27,2-.54c-11.71-6.06-23.4-13.13-30.31-24.77a50.51,50.51,0,0,1-4.83-11.17l-.39,1.46,5-6.42h-2.12c1.69,1.33,2.2,3.51,3.28,5.28a6.07,6.07,0,0,0,6,3.08,9.73,9.73,0,0,0,6.22-2.54,33.66,33.66,0,0,0,5-6.79c2.44-3.92,4.84-7.85,7.57-11.59l-2.74-1.15-1.77,10a1.5,1.5,0,0,0,2.89.8l7.4-17.8,1.07-2.56C313.83,30.31,310.93,29.53,310.2,31.29Z"/><path class="cls-2" d="M183.07,32.7c-1.56,2-1.82,5.37-2.18,7.79-.53,3.64-.85,7.31-1.09,11-.45,7-.62,14-.6,21,0,1.07,0,2.13,0,3.2a3.79,3.79,0,0,0,.26,1.86,1.51,1.51,0,0,0,1.3.74c.66,0,.84-.34,1.3-.75.18-.48.2-.48.06,0l.31-.27a7.62,7.62,0,0,0,.94-.78,31.72,31.72,0,0,1,4.21-2.56,37.15,37.15,0,0,0,8.13-5.24c1.18-1.11-.09-2.75-1.46-2.51h0l1.7.69c.3.41.1.32,0,0s-.13-.53-.2-.8c-.23-.91-.44-1.82-.66-2.73-.66-2.77-1.3-5.54-1.94-8.32-1.1-4.77-2.14-9.57-3.27-14.34a16.87,16.87,0,0,0-2.23-4.86c-.66-1.06-1.79-3.27-3.19-3.51-1.55-.25-2.8,1.93-1.16,2.75h0c1.72.86,3.24-1.73,1.51-2.59h0l-1.15,2.74c-.37-.06-.43-.35-.08.06.15.18.31.35.45.54A21,21,0,0,1,185.52,38a12.72,12.72,0,0,1,1.57,3.63c.42,1.85.83,3.7,1.25,5.55q1.91,8.34,3.86,16.67c.24,1,.48,2,.73,3a4.53,4.53,0,0,0,.46,1.49,1.58,1.58,0,0,0,1.69.69h0l-1.46-2.5a34,34,0,0,1-7.51,4.77,37.7,37.7,0,0,0-3.73,2.21c-.59.42-1.17.86-1.73,1.33a7.82,7.82,0,0,0-.9.82c-.14.16-.72,1.13-.24.32l1.29-.74h0l1.29.74c.15.24.17,1,.17.41,0-.25,0-.5,0-.75,0-.87,0-1.74,0-2.61,0-2.88,0-5.76.07-8.64a211.38,211.38,0,0,1,1.31-21.64c.2-1.55.44-3.11.76-4.65.13-.65.29-1.31.47-1.95.09-.31.18-.62.28-.92s.48-.92.1-.43a1.55,1.55,0,0,0,0-2.12A1.51,1.51,0,0,0,183.07,32.7Z"/><path class="cls-2" d="M202.31,316.91c3.85-3.23,3.52-10.11,1.45-14.18a10.49,10.49,0,0,0-1.15-1.79,5.07,5.07,0,0,1-.89-1.19,4.7,4.7,0,0,1,.52-2.88c.89-2.36,2.43-4.75,2.34-7.36-.12-3.32-2-6.41-2.55-9.67-.59-3.51,1.31-6.19,2.57-9.3a9.17,9.17,0,0,0,.63-4.83,41.18,41.18,0,0,0-.78-4.55c-.36-1.49-1-3.12-1-4.48a6.17,6.17,0,0,1,.6-1.85,10.57,10.57,0,0,0,.94-4.66,41.19,41.19,0,0,0-1.49-10.23,25.65,25.65,0,0,1-.67-3.58c0-.29,0-.58,0-.88s.24-.71-.16-.21a15.51,15.51,0,0,1,1.35-1.34,23.48,23.48,0,0,0,4-4.74c2.86-4.89.24-10.26-3.16-14.13-.93-1.07.09.05,0,.08v-.58c0-.5,0-1,0-1.48a6.85,6.85,0,0,0-.81-3.42,10.44,10.44,0,0,0-2-1.9,7.1,7.1,0,0,1-1.25-1.84c-2-3.79-2.69-8.41-3.15-12.61-.43-3.85-.88-8.31.28-12.08a14,14,0,0,1,2.34-3.45c1.65-2,3.39-3.95,5.15-5.86s3.7-3.92,5.66-5.77a11,11,0,0,0,2.36-2.64c.3-.56.47-1.53.94-2a10.39,10.39,0,0,1,1.82-.65c5-1.59,11.59-.92,15.39,3,.71.73,1.14,1.51,2.13,1.86a9.67,9.67,0,0,0,3,.42,51.46,51.46,0,0,0,7-.37c3.7-.36,7.41-.74,11.1-1.27a52.93,52.93,0,0,0,6.62-1.26c1.52-.43,3.36-1,3.88-2.68s-.2-3.68-.79-5.27c-.86-2.3-1.93-4.52-2.91-6.77a20.88,20.88,0,0,1-1.83-5.76,10.56,10.56,0,0,0-.5-2.28,2.76,2.76,0,0,0-.24-.7c-.11-.18-.08.16,0,0s-.13.56-.2.5a18.73,18.73,0,0,1,2-1.1,12.61,12.61,0,0,1,3.08-1.11c2.08-.39,4.17-.7,6.26-1.08,4.08-.76,8.92-1.57,12.2-4.31a5.1,5.1,0,0,0,2-4.29,1.53,1.53,0,0,0-1.9-1.45h0l1.15.15h0l.69.89c.12.34-.12.67,0,.29a4.09,4.09,0,0,0,.17-.69c.16-.69.3-1.38.41-2.08a17.11,17.11,0,0,0,0-5.8,12.78,12.78,0,0,0-3.16-6.19,33.08,33.08,0,0,0-8-6.2c-8.11-4.83-17.25-8-26.32-10.55a142.24,142.24,0,0,0-32.26-5.2c-9.28-.34-19.15.28-27.7,4.21-7.32,3.37-12.36,9.63-13.07,17.77a24.58,24.58,0,0,0-.07,3.21l.44-1.06a10.07,10.07,0,0,0-1.94,5,57.35,57.35,0,0,0-.69,7.4c-.09,2.25-.1,4.5-.05,6.74a11.33,11.33,0,0,0,.18,3.29,1.53,1.53,0,0,0,1.85,1.05h0a1.52,1.52,0,0,0,1.05-1.05,1.94,1.94,0,0,0-.71-2.15c-1.18-.69-2.11.29-2.35,1.35a25.44,25.44,0,0,0-.14,7.79,29.16,29.16,0,0,0,3.27,11.36c.45.82.88.89.42,1.64s-1.12,1.41-1.61,2.17a5.92,5.92,0,0,0-.41,5.25c.6,1.67,2,3.38,2,5.21,0,2-1.58,3.74-1.82,5.74s.79,3.43,2.09,4.89a2.5,2.5,0,0,1,.88,1.83,15.8,15.8,0,0,1-.68,3.79,29.31,29.31,0,0,0-1.4,6.73,8.79,8.79,0,0,0,1.71,5.12,14.67,14.67,0,0,0,3.18,3.35,3.67,3.67,0,0,0,1.11.66c.15,0,.71.15.87,0-.54.42-1.19-1-1.11-1.09a6.38,6.38,0,0,0-.58,1.2c-.39.71-.79,1.41-1.17,2.13a9.72,9.72,0,0,0-1.34,4.14c0,2,1.16,3.68,2.15,5.29a9.32,9.32,0,0,1,1.16,4.94c.09,2,.14,4,.36,5.93.18,1.59.7,3,1,4.56a4.61,4.61,0,0,0,1.16,2.68c.89.92,3,1.55,3.09,2.95s-.92,3.08-1.47,4.36a13.29,13.29,0,0,0-1.4,4.79c-.08,2.2,1.39,3.38,2.24,5.21.72,1.56-.87,3.48-1.48,4.86a7,7,0,0,0-.29,5.86c.72,1.69,2.42,3.33,2.19,5.27-.26,2.15-1.56,4.11-2.27,6.12a12,12,0,0,0-.28,6.67A38.77,38.77,0,0,0,185.9,285a32.13,32.13,0,0,1,1.92,6.73,6.66,6.66,0,0,1-.09,3.14,13.41,13.41,0,0,1-2,3.1,10.16,10.16,0,0,0-2.2,5.59c0,1.21.37,2.23.42,3.45a47.23,47.23,0,0,1-.09,5.32c-.15,2-.76,4-1,6a25.66,25.66,0,0,0,0,6.13c.11,1,.24,2,.44,3l.69-1.69-2.9,2.18c-.81.61-2.24,1.35-2.59,2.35a28.34,28.34,0,0,0-.71,3.58l-.67,3.36,1.44-1.1c-1.44-.13-2.63,1.75-3.34,2.72a34.61,34.61,0,0,0-3.45,6,23.58,23.58,0,0,0-2.25,7.17c-.11,1-.23,2.12.55,2.91a23.5,23.5,0,0,0,2.29,1.92c9.05,7.13,19.72,12.4,30.45,16.48a119.63,119.63,0,0,0,23.8,6.43c1.54.24,2.82-1.93,1.16-2.74a58.31,58.31,0,0,1-15.47-11.39,82.23,82.23,0,0,1-7.06-8.1,35.82,35.82,0,0,0-3.33-4.21c-2.58-2.48-4.56-5.9-4.34-9.58a9.9,9.9,0,0,1,1-3.69c.66-1.34,1.7-2.38,2.44-3.65a9.6,9.6,0,0,0,.77-5.65c-.24-2.6-.81-5.15-1-7.75-.17-2.11-.27-4.6,1.5-6.09l-1.06.44h0c1.93.08,1.93-2.92,0-3-1,0-2,1.3-2.44,2.09a8.61,8.61,0,0,0-1,3.21,27.56,27.56,0,0,0,.51,7.52c.32,2.12.86,4.45.49,6.59a6.34,6.34,0,0,1-1.53,2.68,15,15,0,0,0-2.16,4.32c-1.47,4.79.3,9.63,3.42,13.33.63.74,1.41,1.37,2,2.1,1.25,1.43,2.28,3.13,3.47,4.63s2.41,2.94,3.69,4.35a63.16,63.16,0,0,0,18.53,14.44l1.16-2.75a123.54,123.54,0,0,1-48.05-18.67,58,58,0,0,1-7.32-5.52l.44,1.06c-.22-3.18,1.35-6.47,2.79-9.21a35.22,35.22,0,0,1,2.4-3.95,10.19,10.19,0,0,1,1-1.19c.11-.12.38-.43.35-.35s-.05,0,.05,0c.26.05-.77.11-.47.13a1.5,1.5,0,0,0,1.45-1.1l1.39-7-.69.9,4.8-3.6a1.61,1.61,0,0,0,.69-1.7A22.51,22.51,0,0,1,186,318a36.78,36.78,0,0,0,1-10.83,29.61,29.61,0,0,0-.39-3c-.26-2,1.12-3.77,2.21-5.29a9.09,9.09,0,0,0,2.13-6,26.11,26.11,0,0,0-1.37-6.53c-1.24-3.85-4.13-7.95-3.12-12.16.94-3.93,4-7.37,2-11.49-.82-1.65-2.39-3.24-1.92-5.21s1.72-3.34,2.22-5.15a5.51,5.51,0,0,0-1.12-4.88,4.89,4.89,0,0,1-1.1-2.19,5.08,5.08,0,0,1,.38-2.1c.91-2.74,3.28-5.84,2.26-8.86-.58-1.72-2.22-2.28-3.47-3.39-.66-.59-.48-1-.75-2a26.49,26.49,0,0,1-.93-4.59c-.14-1.84-.18-3.69-.28-5.53a11.21,11.21,0,0,0-1.07-4.84c-.75-1.41-2.4-3-2.19-4.78.29-2.45,2.5-4.28,3-6.65a2,2,0,0,0-1.91-2.49c-1.23,0,.25.14.26.16s-.37-.25-.43-.29a10,10,0,0,1-1.23-1.13,8.1,8.1,0,0,1-2.33-4c-.37-2.08.59-4.44,1.13-6.42s1.26-4.29.79-6.26c-.4-1.71-2-2.52-2.72-4s.86-3.73,1.34-5.22a7.19,7.19,0,0,0-.54-5.34c-.64-1.42-2-3.26-1.5-4.91s2.09-2.46,2.53-4c.5-1.8-1-3.31-1.68-4.84a24.82,24.82,0,0,1-1.71-5.47,32.67,32.67,0,0,1-.53-9l.06-.62c0-.42,0-.08,0-.28a2.83,2.83,0,0,0,.07-.36s0-.07,0-.09c.06.17-.58.76-.63.78H173c-1-.7-.7-1.69-.71-1,0,.19-.08.27,0-.26l1-1h0l1.85,1.05c.11.3,0,.32,0-.07s0-.76-.05-1.14c0-1.22-.06-2.44-.07-3.66a80,80,0,0,1,.46-9.55,20.75,20.75,0,0,1,.79-3.9c.36-1.12,1-1.5,1-2.91a20.08,20.08,0,0,1,.92-6.67,17.38,17.38,0,0,1,7.06-9,34.83,34.83,0,0,1,13.11-4.86c11.4-2.11,23.44-1,34.76,1a133.19,133.19,0,0,1,33.25,10.24,52.27,52.27,0,0,1,11,6.64,22,22,0,0,1,1.86,1.75q.39.41.75.84c.06.08.35.45.14.17l.34.47c2.18,3.19,1.85,6.89,1,10.47-.3,1.31-.07,3,1.78,2.68l-1.9-1.45c.11,1.32-1,2.17-2.29,2.89a24.86,24.86,0,0,1-6,2c-2.23.52-4.48.92-6.74,1.3a22,22,0,0,0-5.68,1.34c-1.44.66-4,1.42-4.53,3.17-.36,1.24.52,2.54.68,3.76.57,4.42,2.87,8.28,4.51,12.38a21.74,21.74,0,0,1,1,2.95,5.52,5.52,0,0,1,.16,1c0,.36,0,.4-.08.51.08-.12.14-.12-.14,0a4.84,4.84,0,0,1-.78.32,24.8,24.8,0,0,1-3.08.78c-4,.81-8.08,1.22-12.13,1.64-1.8.18-3.6.39-5.4.51s-4.33.5-6.19-.14c.22.08-.31-.24.1.12a8.08,8.08,0,0,1-.63-.79,11.4,11.4,0,0,0-1.36-1.33,14.74,14.74,0,0,0-3.35-2.1,19.82,19.82,0,0,0-8.14-1.71,17.93,17.93,0,0,0-8.45,1.92c-1.29.71-1.42,2.16-2.18,3.3A19.92,19.92,0,0,1,208,165a123.27,123.27,0,0,0-10.44,11.47,13.24,13.24,0,0,0-2.44,3.95,18.92,18.92,0,0,0-.72,5.2,57.52,57.52,0,0,0,1.33,14c.74,3.47,1.76,8.12,4.62,10.53.71.59,1.29.9,1.48,1.91a25.51,25.51,0,0,1,0,3c.07,1.26.86,1.9,1.59,2.87a16.19,16.19,0,0,1,2.46,4.26c1.49,4.27-1.58,7.15-4.39,9.91-1,1-1.63,1.58-1.68,3a16.59,16.59,0,0,0,.42,3.78c.63,3.13,1.56,6.2,1.74,9.4.08,1.56.22,3.51-.5,4.93a8.93,8.93,0,0,0-.91,2.55,11.21,11.21,0,0,0,.64,4.83c.69,2.56,1.66,5.75.76,8.31-1.08,3.07-3.09,5.71-3.11,9.1s1.6,6.75,2.44,10.1c.64,2.53-.66,4.69-1.62,7-.85,2.05-1.68,4.54-.29,6.55a15.14,15.14,0,0,1,2.16,3.41,11.26,11.26,0,0,1,.66,3.9c0,2-.43,4.39-2,5.74S200.85,318.15,202.31,316.91Z"/></g><g id="path737212"><path class="cls-4" d="M194.19,58.78a142,142,0,0,0-3.27-15.13c-.48-1.86-3.38-1.07-2.89.8a139.87,139.87,0,0,1,3.26,15.12,1.51,1.51,0,0,0,1.85,1,1.54,1.54,0,0,0,1.05-1.84Z"/><path class="cls-4" d="M205.42,51.42c-2.86-4.52-6.45-8.54-9.11-13.19-1.92-3.37-3.71-9.51-8.61-9.1-4,.34-6.15,3.48-7.06,7.07-1.23,4.85-1.18,10-1.21,15-.05,6.92.08,13.85-.6,20.74-.19,1.92,2.81,1.91,3,0,.56-5.63.57-11.3.58-17A117.9,117.9,0,0,1,183,40c.36-2.68.81-6.09,3.49-7.4a2.77,2.77,0,0,1,4,1.16c1.13,1.76,2,3.7,3,5.52,2.71,4.85,6.43,9,9.39,13.7,1,1.63,3.63.12,2.59-1.51Z"/><path class="cls-4" d="M302.38,87.83C305.79,85,307.56,80,309,76a82.61,82.61,0,0,0,4.11-16.62,38.15,38.15,0,0,0,.45-7.92c-.15-1.91-3.15-1.93-3,0,.35,4.72-.59,9.56-1.65,14.13a67.06,67.06,0,0,1-5.12,15.1,15.1,15.1,0,0,1-3.53,5c-1.49,1.23.64,3.35,2.12,2.12Z"/><path class="cls-4" d="M310.35,28.19a161.27,161.27,0,0,0-6.36,15,50.06,50.06,0,0,0-2.16,10.27c-.72,5.64-1.29,11.3-2,17-.63,5.23-1.33,10.45-2.06,15.67A1.57,1.57,0,0,0,298.85,88a1.51,1.51,0,0,0,1.84-1q1.67-11.91,3-23.86c.29-2.57.58-5.15.89-7.72a55.46,55.46,0,0,1,1.6-9.24,126.28,126.28,0,0,1,6.74-16.39c.82-1.74-1.77-3.26-2.59-1.52Z"/><path class="cls-4" d="M313.3,97.52c-.42-4.25.34-8.68,1-12.86.74-4.48,1.72-8.9,2.75-13.31.53-2.28.82-4.59,1.53-6.84.48-1.53,1.1-3,1.49-4.57a21.61,21.61,0,0,0,.57-5.61c0-1.37-.26-2.75-.26-4.12,0-1.74.32-3.53.41-5.28.32-5.64.24-11.64-2-16.93-1.38-3.23-1.65-7.53-4.21-10.13-3.08-3.15-7.37-.52-9.52,2.31-3.15,4.14-4.93,9.22-7.76,13.58-3.26,5-7.59,9-12.16,12.76a42.16,42.16,0,0,0-10.3,12.17,1.5,1.5,0,0,0,2.59,1.51,37.86,37.86,0,0,1,8.73-10.65,80.78,80.78,0,0,0,10.06-9.42c3.65-4.3,6.14-9.15,8.77-14.1A21.85,21.85,0,0,1,308.33,21c.84-.86,2.41-2,3.67-1.36s1.67,2.4,2.05,3.55c.55,1.7,1,3.46,1.63,5.12,2.05,5,2.44,10.16,2.2,15.55-.06,1.51-.17,3-.3,4.53a37.83,37.83,0,0,0,.05,4.88,20.68,20.68,0,0,1-.32,5.5c-.33,1.46-.89,2.85-1.36,4.27a40.56,40.56,0,0,0-1.52,6.24c-.35,2.18-1,4.34-1.44,6.51q-.84,3.85-1.49,7.76c-.76,4.54-1.65,9.39-1.2,14,.19,1.9,3.19,1.92,3,0Z"/><path class="cls-4" d="M322,117.71c-.45,2.81-1.51,5.52-2.16,8.29a11.76,11.76,0,0,0-.43,3.77,30.26,30.26,0,0,0,1.37,5.71,17.07,17.07,0,0,1,1,5.78,7.53,7.53,0,0,1-2,4.17,11.24,11.24,0,0,0-2.19,3.84c-.35,1.53.36,2.83.82,4.25,1,3.24,2.22,7.81,0,10.8-1.16,1.55,1.44,3,2.59,1.52,2.1-2.79,1.8-6.7,1.16-9.92a32.52,32.52,0,0,0-1.4-4.83c-.5-1.35.27-2.27,1.07-3.37a17.26,17.26,0,0,0,2.53-4.08,11,11,0,0,0,.16-5.59c-.56-3.25-2.65-6.68-2.06-10s1.89-6.27,2.41-9.5c.3-1.89-2.59-2.7-2.89-.8Z"/><path class="cls-4" d="M173.59,118.37c.18,2-.6,4.07-1.22,6a35,35,0,0,0-1.76,6.57,16.82,16.82,0,0,0,3.12,11.67l-.39-1.46c-.88,2.9-1.8,6.1-1.28,9.16a18.29,18.29,0,0,0,1.82,4.36,9.09,9.09,0,0,1,.64,2.32c.12,1-.41,1.26-.88,2.22a12.17,12.17,0,0,0-.93,2.55,9.25,9.25,0,0,0,2.53,8.65c1.36,1.38,3.48-.75,2.12-2.12a6.2,6.2,0,0,1-1.91-4.45,7.48,7.48,0,0,1,.78-3.11c.56-1.18,1.44-2,1.32-3.36-.2-2.42-1.18-4.19-2.16-6.32-1.11-2.42,0-5.89.71-8.65.33-1.29-.2-1.72-.8-2.77a12.48,12.48,0,0,1-1.13-3,15.7,15.7,0,0,1-.62-5.14c.33-4.47,3.43-8.55,3-13.12-.16-1.91-3.16-1.92-3,0Z"/><path class="cls-4" d="M266.84,186.28a20.31,20.31,0,0,0,2.06,10.27,22.26,22.26,0,0,0,2.73,4.44,20.34,20.34,0,0,0,1.64,1.84,3.38,3.38,0,0,0,.86.74c.29.13,0,.36,0-.27l.74-1.3h1.5c.44.2.12.07-.12-.2s-.49-.59-.75-.88a7.77,7.77,0,0,0-1.85-1.63,2.13,2.13,0,0,0-2.64.26,15.26,15.26,0,0,0-2.62,3.87,14,14,0,0,0,1,14.11,25.88,25.88,0,0,0,3.25,4,4.91,4.91,0,0,0,.9.92c-.5-.26.4-.91.66-1.26.91-1.21,1.1-1.05.16-1.22a6.56,6.56,0,0,0-1.4-.11c-4.51.23-3.55,5.55-2.46,8.4a33.47,33.47,0,0,0,3.41,6.59,16.19,16.19,0,0,0,4.08,4.6c1.6,1.08,3.1-1.52,1.51-2.59a3.77,3.77,0,0,1-.65-.56c-.35-.35-.68-.73-1-1.11a24.59,24.59,0,0,1-1.87-2.67,26.7,26.7,0,0,1-3.09-6.55,7,7,0,0,1-.38-2.49,1.37,1.37,0,0,1,.2-.58c-.09.16,0,0,.2,0a.71.71,0,0,1,.3,0,4.8,4.8,0,0,1,.56.06c.59.08,1.11.28,1.67,0a1.61,1.61,0,0,0,.21-2.55c-.92-1.06-2-2-2.85-3.11a13.72,13.72,0,0,1-2.87-6.31,11.62,11.62,0,0,1,2.73-8.62,5.2,5.2,0,0,0,.51-.65c.26-.49-.43.2-.72.29s-.37-.21-.14.09c.08.11.62.58.87.84a14.89,14.89,0,0,0,1.34,1.51c1.53,1.29,3.08-.48,2.32-2a7.45,7.45,0,0,0-1.7-1.85,15.22,15.22,0,0,1-1.9-2.33,18.49,18.49,0,0,1-3.4-11.85c.19-1.92-2.81-1.91-3,0Z"/><path class="cls-4" d="M285.59,162.91a22.87,22.87,0,0,0-11.18.09,27.16,27.16,0,0,0-3.93,1.59,12.78,12.78,0,0,0-3.3,1.77c-1.81,1.73.35,3.32,2,3.79a22,22,0,0,0,4.1.73c1.95.18,1.87-2.76,0-3-.21,0-.43,0-.64-.06l1.5,1.5c0-2.49-3.16-2.85-5-2.82a17.05,17.05,0,0,0-8.2,2.2,7.22,7.22,0,0,0-3.87,7.16c.43,3.74,3,6.66,6,8.74a20.66,20.66,0,0,0,11.11,3.87,1.5,1.5,0,0,0,0-3,16.66,16.66,0,0,1-7.49-2.18c-2.46-1.31-5-3.19-6.12-5.81-.91-2-.77-4.16,1-5.61a12.27,12.27,0,0,1,5.93-2.25,13.12,13.12,0,0,1,2.83-.08c.2,0,.39.08.59.12s.55.11.24.06c.29,0,.09.12.06,0,0,0-.13-.47-.13-.37a1.54,1.54,0,0,0,1.5,1.5c.21,0,.43,0,.64.06v-3a1,1,0,0,1-.24,0c-.4-.16,0,0-.35,0-.64-.1-1.27-.21-1.9-.35l-1-.24c-.14-.05-.29-.09-.42-.15s.1-.06-.12,0,0-.32,0,0a.66.66,0,0,1,.19.63.76.76,0,0,1-.2.9s0,0,.11-.06a3.43,3.43,0,0,0,.67-.32,30.33,30.33,0,0,1,6-2.51,20.19,20.19,0,0,1,8.75.14c1.88.38,2.69-2.52.8-2.89Z"/><path class="cls-4" d="M188.86,297.18c.44-2.74,1.33-5.56,1.38-8.35s-2.3-4.41-3.29-6.76a11.91,11.91,0,0,1-.45-7.68c.52-1.91,1.44-3.67,2-5.56.7-2.25.84-4.28-.53-6.29a8.27,8.27,0,0,1-1.65-2.85,5.92,5.92,0,0,1,.44-3.42c.79-1.78,2.3-3.3,2.3-5.38,0-2.25-2-4.06-2.75-6.06s.41-3.75,1.09-5.49c.56-1.4,1.74-3.58,1.26-5.16-.31-1-1.87-1.93-2.57-2.75a10.46,10.46,0,0,1-1.68-2.67,18.38,18.38,0,0,1-1.24-6.23c-.09-1.25-.14-2.52-.2-3.78a17.63,17.63,0,0,0-.38-4.11c-.66-2.21-3.05-3.68-3-6.1a7,7,0,0,1,1.19-3.8c.66-1,1.81-1.75,1.16-3.06a10.69,10.69,0,0,0-1.1-1.5,24.32,24.32,0,0,1-2.07-3.14c-1.43-2.69-1.35-6.07-.67-9,.18-.75.4-1.49.65-2.21a8.3,8.3,0,0,0,.8-2.42c0-.84-.7-1.48-1.21-2.09a11.48,11.48,0,0,1-1.92-2.91,2.71,2.71,0,0,1,0-2.47c1.18-2.17,2.67-4.74,1.32-7.17-.94-1.69-3.53-.18-2.59,1.51s-1.35,3.76-1.82,5.16c-.71,2.14.33,4.52,1.55,6.25a15.59,15.59,0,0,0,1.75,2.21c.34.35,0,.06,0,.05l.06.09c-.16-.71-.3-.76-.42-.17a7.59,7.59,0,0,0-.78,2.28,20.43,20.43,0,0,0-.6,8.93,15.48,15.48,0,0,0,3.19,6.39c.24.32.86,1.49,1.23,1.65l0-1.4-.25.29a5.51,5.51,0,0,0-.69.9,10.22,10.22,0,0,0-1.06,2,8.12,8.12,0,0,0,.57,7.78,19.46,19.46,0,0,1,1.71,2.54c.51,1.1.33,2.72.39,3.93.22,4.5.28,9.36,3,13.18a16.14,16.14,0,0,0,2.1,2.42,7.74,7.74,0,0,0,.78.69l-.13-.59c0,.16,0,.19,0,.07a5.65,5.65,0,0,0-.35,1.27c-.63,1.92-1.55,3.75-2.12,5.69-.69,2.32.26,4.39,1.43,6.37.44.74,1.31,1.74,1.36,2.64a4.54,4.54,0,0,1-.91,2.16,10.6,10.6,0,0,0-1.89,6.13,6.64,6.64,0,0,0,1.15,3.52c.54.83,1.51,1.76,1.65,2.77.27,2-1.14,4.38-1.83,6.18a15.49,15.49,0,0,0-1.09,7.52,14.49,14.49,0,0,0,1.32,4.75c.73,1.42,2,2.57,2.58,4.05a6.75,6.75,0,0,1-.16,3.32c-.31,1.71-.68,3.41-.95,5.12-.3,1.89,2.59,2.71,2.89.8Z"/><path class="cls-4" d="M318,165.65a17.91,17.91,0,0,0,1.17,3.75c.6,1.8,1.22,3.61,1.65,5.45a6,6,0,0,1,.06,2.67c-.24,1.71-.8,3.37-1,5.08a6.41,6.41,0,0,0-.09,2.05c.18.9.67,1.82.93,2.71a23.57,23.57,0,0,1,1,5,16.09,16.09,0,0,1-.32,4.8,8.62,8.62,0,0,1-2.07,3.58,13.8,13.8,0,0,0-2,2.94,2.2,2.2,0,0,0-.18,2c.22.61.56,1.21.83,1.82a20.48,20.48,0,0,1,2.07,6.18,11.74,11.74,0,0,1-1.5,6.67c-.62,1.19-2.22,2.8-2,4.19a34.19,34.19,0,0,1,.84,4.31,7.35,7.35,0,0,1-1.3,4.41,14.3,14.3,0,0,0-1.88,2.7c-.85,2.17.69,4.94,1.64,6.85a26.55,26.55,0,0,1,1.79,4,6.45,6.45,0,0,1-.11,4.05,17.53,17.53,0,0,0-.9,3.63,6.19,6.19,0,0,0,1.06,3.7c1.41,2.31,3.59,4,4.93,6.39,1,1.79.7,4.24.52,6.21-.1,1.12-.24,2.23-.36,3.35a6.9,6.9,0,0,0-.05,2.44c.25,1,1.29,1.9,1.85,2.71a28,28,0,0,1,1.75,2.93c2.85,5.51,3.2,11.8,2.6,17.88-.18,1.92,2.82,1.91,3,0,.63-6.44.12-13-2.75-18.88a27.69,27.69,0,0,0-1.93-3.33c-.34-.5-.69-1-1-1.46a8.52,8.52,0,0,0-.57-.74c-.4-.38.11.12,0,.28a3.8,3.8,0,0,0,0-1c0-.54.11-1.09.17-1.63.15-1.32.31-2.65.38-4,.15-2.76-.13-5.23-1.8-7.51-1-1.37-2.18-2.59-3.23-3.91-.82-1-1.76-2.24-1.56-3.61.24-1.59,1-3.08,1.22-4.69a9.22,9.22,0,0,0-.81-4.95c-.65-1.58-1.51-3.07-2.21-4.63a10.22,10.22,0,0,1-.78-2.34c0-.14-.14-1-.13-.5,0-.29,0,0,0-.12a13.93,13.93,0,0,1,1.08-1.47A11.33,11.33,0,0,0,319.5,233c1.27-3,.8-6.32-.16-9.34l-.15,1.16c2.24-3.25,4.14-7,3.79-11.09-.29-3.44-1.91-6.55-3.32-9.65l.15,1.16c.62-1.68,2.13-2.92,3.13-4.37a11.56,11.56,0,0,0,1.74-5.94,23,23,0,0,0-.7-7.05c-.3-1.22-.86-2.4-1.12-3.62a8.13,8.13,0,0,1,.4-3.41,15.7,15.7,0,0,0,.66-6,25.73,25.73,0,0,0-.9-3.45c-.42-1.36-.87-2.7-1.33-4-.16-.49-.33-1-.5-1.47-.07-.22-.24-1.08-.16-.31-.19-1.91-3.19-1.93-3,0Z"/><path class="cls-4" d="M186.12,296c-1.35,2.33-2.93,4.63-3.66,7.26a10,10,0,0,0,1.35,8.13v-1.51c-1.56,2.29-1.22,5.19-.8,7.77.34,2.07,1.48,5.15.47,7.17l1.3-.75a6.5,6.5,0,0,0-2.64.91,15.39,15.39,0,0,0-3.29,2c-1.17,1-1.48,2.17-2,3.54a17.82,17.82,0,0,1-1.93,3.73,34.86,34.86,0,0,0-4,6.27c-1.23,2.89-1.53,6.06-2.31,9.09-.48,1.87,2.42,2.67,2.9.8.69-2.7,1-5.55,1.93-8.17a23,23,0,0,1,3.77-6,16.38,16.38,0,0,0,1.64-2.72c.34-.72.65-1.46.94-2.2a12.17,12.17,0,0,1,.66-1.7,7.88,7.88,0,0,1,2.68-1.73c.41-.2.82-.4,1.25-.57.15-.06.32-.1.46-.17s.51,0,0,0a1.44,1.44,0,0,0,1.29-.74c1.19-2.38.63-5.08.18-7.58-.42-2.3-1.28-5.26.15-7.36a1.46,1.46,0,0,0,0-1.51,7.15,7.15,0,0,1-.83-6.52,35.82,35.82,0,0,1,3.14-5.85,1.5,1.5,0,0,0-2.59-1.51Z"/><path class="cls-4" d="M328.88,300c-.45,3.67-1.13,8,1.19,11.16,1.85,2.58,5.17,4.36,6.37,7.38.62,1.56.32,3.39.12,5a19,19,0,0,0-.22,5.16c.44,2.93,2.77,5.34,4.65,7.47a16.27,16.27,0,0,1,2.41,3.32,12.28,12.28,0,0,1,1.1,5.48,1.5,1.5,0,0,0,3,0,14.64,14.64,0,0,0-2.65-8.8c-1.63-2.21-3.73-4-5-6.48-1.59-3,.24-6.77-.07-10-.34-3.58-2.91-5.84-5.34-8.21a8.47,8.47,0,0,1-2.78-4.14c-.51-2.38,0-5,.26-7.39.24-1.91-2.76-1.9-3,0Z"/></g></g></g></g></svg>