<svg width="180" height="366" viewBox="0 0 180 366" fill="none" xmlns="http://www.w3.org/2000/svg">
<g id="Body1">
<g id="Body">
<g id="layer1">
<g id="g1218">
<g id="path1120-9">
<path id="abColor_1" d="M107.797 44.2749C112.443 69.0552 156.704 86.3856 144.223 81.0798C141.67 77.9279 149.388 50.8553 149.388 50.8553C149.388 50.8553 152.811 39.3742 152.166 35.8963C151.52 32.4183 153.359 19.2081 151.696 16.6392C150.033 14.0703 148.214 5.41496 147.617 4.35774C147.021 3.30053 145.602 0.484591 143.02 1.82834C140.438 3.17208 138.697 5.86946 137.758 7.40093C136.819 8.93241 130.255 20.3147 128.886 21.9549C127.517 23.5951 120.934 29.4147 120.934 29.4147L107.797 44.2749ZM43.1322 40.8563C40.1978 35.916 43.4452 40.2338 39.4935 34.6513C39.4935 34.6513 33.0378 28.9404 30.8467 23.7828C28.6557 18.6252 26.4157 13.7739 22.4543 14.8212C18.4928 15.8685 17.7494 17.2814 16.8789 26.1047C16.0083 34.928 16.1257 54.689 16.1257 54.689C16.3996 54.6297 13.5923 54.7482 15.5681 60.9927C24.8507 54.3431 32.1379 50.9245 43.1322 40.8563ZM11.0687 100.258C6.1095 114.476 11.2937 129.899 11.7436 142.675C8.49617 143.663 11.7436 149.828 12.2914 153.889C9.49387 158.039 10.6872 162.218 13.0837 166.408C11.4012 171.872 10.9513 177.424 15.7051 183.363C14.1205 188.303 13.1423 193.125 17.1527 196.514C17.5049 205.031 17.6614 213.785 23.5694 215.741C21.5642 220.464 18.5026 224.633 22.5912 232.479C20.9479 236.737 18.1113 240.828 23.2759 246.044C21.9163 252.091 16.8006 255.698 24.0095 267.278L23.9215 276.427C22.0434 281.594 19.8231 286.861 20.8599 291.09L21.4272 306.157C15.441 308.558 10.8828 320.84 6.94092 333.655C15.3725 340.571 47.348 364.966 94.4358 363.998C138.54 363.089 168.178 340.482 176.962 333.24C180.141 327.717 171.709 317.747 170.418 316.127C168.833 297.186 166.681 294.153 163.737 291.554C162.691 279.51 162.27 267.584 157.125 254.729C158.582 245.363 153.653 241.42 151.08 235.472C152.762 226.896 150.043 223.547 149.065 218.112L151.403 205.119C154.973 198.964 154.279 192.275 150.933 185.289C157.829 179.015 154.367 171.99 153.741 165.173C155.912 158.671 153.741 152.615 152.762 146.4C156.841 143.139 153.173 137.428 151.98 132.498C157.937 120.71 154.504 116.689 153.437 110.761C155.482 106.897 156.577 100.406 154.132 99.3191L148.762 57.2085C126.265 45.3519 65.7958 11.5211 19.3829 58.0088C18.9052 57.8746 18.4037 57.8509 17.9157 57.9396C10.7166 59.3723 10.7752 88.4506 11.0687 100.258Z" fill="white"/>
<path id="Vector" d="M106.379 44.6701C108.149 53.8195 114.625 61.467 121.393 67.3952C127.489 72.6735 134.145 77.2531 141.24 81.0501C142.697 81.8504 144.253 82.5025 145.681 83.3325L146.806 80.6252C147.031 80.7141 147.412 80.8624 146.806 80.6252L145.759 80.1411C145.647 80.0799 145.529 80.0302 145.407 79.9929C145.025 79.8842 145.192 79.7162 145.26 80.062C145.436 80.9414 145.397 79.9632 145.329 80.062C145.26 80.1608 145.387 80.3585 145.329 79.9929C145.329 79.8447 145.26 79.7063 145.231 79.568C145.201 79.4297 145.231 79.8051 145.231 79.4198C145.231 79.0345 145.231 78.6985 145.231 78.3329C145.231 74.0053 146.326 69.6184 147.265 65.4192C148.693 59.0561 150.571 52.8413 152.156 46.5178C152.843 43.9219 153.35 41.2807 153.672 38.6134C153.907 36.4496 153.525 34.9477 153.565 32.8234C153.565 30.0668 153.809 27.3101 153.897 24.5534C154.126 22.0957 154.011 19.6177 153.555 17.1925C153.229 16.3357 152.829 15.5092 152.361 14.7224C151.868 13.5105 151.447 12.2699 151.1 11.0073C150.425 8.74466 149.975 6.35358 149.143 4.16011C148.312 1.96664 146.209 -0.47384 143.568 0.0794671C140.409 0.74146 138.071 4.10083 136.486 6.68952C134.129 10.5528 131.918 14.5149 129.532 18.3584C128.756 19.7661 127.784 21.0539 126.646 22.1821C124.856 23.9507 122.988 25.6304 121.12 27.3002L119.916 28.3673C118.498 29.632 120.582 31.7168 122 30.462C123.418 29.2072 124.582 28.1499 125.864 26.9742C127.497 25.6254 128.997 24.1198 130.343 22.4785C132.948 18.6528 135.357 14.6955 137.562 10.622C138.48 8.89283 139.533 7.24079 140.712 5.6817C141.465 4.7727 143.265 2.56935 144.624 2.94481C145.446 3.18194 146.003 4.34784 146.365 5.04935C146.365 5.13828 146.287 4.79246 146.365 5.1778L146.512 5.62242C146.688 6.17573 146.835 6.72904 146.991 7.28234C147.344 8.57669 147.696 9.87103 148.067 11.1555C148.439 12.44 148.889 13.922 149.417 15.2559C149.632 15.7993 149.857 16.3428 150.121 16.8565C150.21 17.0245 150.317 17.1826 150.405 17.3407C150.581 17.6569 150.405 17.3407 150.523 17.5778C151.256 19.633 150.943 22.2513 150.875 24.3855C150.787 27.152 150.581 29.9087 150.532 32.6752C150.532 34.7402 150.855 36.2915 150.679 38.2379C150.38 40.7994 149.883 43.3332 149.192 45.8163C147.657 51.9718 145.827 58.0285 144.438 64.2137C143.308 68.5842 142.568 73.0483 142.228 77.5524C142.046 78.938 142.249 80.3474 142.815 81.6232C143.314 82.4729 144.517 82.7594 145.377 83.1448C145.583 83.2337 145.788 83.3325 146.003 83.4115C147.569 84.034 148.537 81.5244 147.128 80.7043C146.052 80.0818 144.869 79.5878 143.773 79.0048C140.924 77.4898 138.139 75.8628 135.42 74.1239C128.035 69.4207 120.875 63.8679 115.456 56.8824C112.377 53.0905 110.225 48.6189 109.176 43.8303C108.814 41.9629 105.988 42.7533 106.35 44.6207L106.379 44.6701Z" fill="black"/>
<path id="Vector_2" d="M44.394 40.1155C44.0125 39.4732 43.6311 38.831 43.2887 38.1394C43.2887 38.0702 43.0735 37.6355 43.142 37.8528C43.2104 38.0702 43.142 37.7738 43.142 37.7244C43.0069 37.2675 42.8093 36.8318 42.5551 36.43C41.9432 35.3731 41.2289 34.3802 40.4227 33.4659C39.7283 32.7545 38.9751 32.1024 38.2708 31.391C35.7559 29.002 33.6795 26.182 32.1379 23.0617C30.7098 19.8605 29.2034 15.5032 25.8875 13.8136C23.6965 12.6971 20.7816 13.369 18.884 14.8016C16.9864 16.2343 16.4387 18.6452 16.0768 20.8584C15.1622 27.3347 14.7209 33.8701 14.7563 40.4119C14.6682 45.194 14.6291 49.9959 14.6584 54.7781C14.6617 55.0055 14.7159 55.2292 14.8172 55.4323C14.9185 55.6354 15.0641 55.8126 15.2431 55.9506C15.4221 56.0885 15.6297 56.1836 15.8504 56.2287C16.071 56.2738 16.2989 56.2676 16.5169 56.2108C16.6417 56.1683 16.7627 56.1154 16.8788 56.0527C17.1201 55.9006 17.3132 55.6818 17.4351 55.4222C17.557 55.1627 17.6026 54.8732 17.5666 54.5882C17.5306 54.3033 17.4144 54.0347 17.2318 53.8144C17.0492 53.5941 16.8079 53.4314 16.5365 53.3454C15.4801 53.0391 15.2943 53.3644 14.8248 54.2141C13.7293 56.1902 13.5434 59.4713 14.1498 61.4771C14.2122 61.695 14.3227 61.8959 14.4729 62.0645C14.6232 62.2332 14.8093 62.3653 15.0173 62.4508C15.2254 62.5364 15.4499 62.5733 15.674 62.5586C15.8982 62.544 16.1161 62.4782 16.3115 62.3663C20.6447 59.2441 25.1735 56.438 29.5849 53.4739C34.7143 50.0039 39.5884 46.1635 44.169 41.9829C45.5776 40.7083 43.4941 38.6136 42.0954 39.8882C37.6145 43.9747 32.8448 47.7261 27.8243 51.1124C23.5009 54.0766 19.021 56.7937 14.8247 59.8468L16.9766 60.7262C16.4181 59.3579 16.2389 57.8618 16.4582 56.3985C16.3898 56.6455 16.5952 56.1614 16.605 56.1416C16.605 56.3392 16.7028 56.1416 16.468 56.2701C16.6636 56.1515 16.7615 56.2701 16.3898 56.2701C16.8201 56.2009 15.6953 56.2701 15.754 56.2701L15.4018 53.5628L15.7344 53.4245L17.6222 54.7386C17.5635 45.3818 17.4755 35.9657 18.3265 26.5989C18.571 23.9609 18.6101 20.6707 19.8426 18.2598C20.0984 17.6815 20.5441 17.2103 21.1044 16.9259C21.8916 16.4629 22.7856 16.2175 23.6965 16.2146C25.0757 16.3232 26.0636 17.6867 26.7581 18.7736C27.7269 20.3849 28.5706 22.0697 29.2817 23.8127C30.7289 26.9595 32.6934 29.8359 35.0919 32.3198C36.0015 33.3078 36.9503 34.2958 37.9285 35.1851C38.6517 35.9295 39.2883 36.7549 39.8261 37.6453C39.9532 37.8528 40.0804 38.0603 40.2173 38.2579C40.3543 38.4555 40.4227 38.7025 40.3151 38.416C40.2075 38.1295 40.3151 38.5049 40.3151 38.5939C40.7049 39.6628 41.231 40.6759 41.8802 41.6074C42.8485 43.2377 45.3819 41.7457 44.394 40.1155Z" fill="black"/>
</g>
<g id="path621552-0">
<path id="Shadow" d="M144.429 15.4038L136.144 35.5205L137.885 25.64C129.942 36.5085 127.204 45.401 121.746 45.401C115.202 46.8633 116.092 40.2928 112.717 37.7436L107.827 44.0869C113.5 63.3044 126.949 72.1672 142.883 80.4866L144.292 78.2437C141.201 74.2915 140.066 67.2072 141.259 63.2945C141.406 62.1484 145.759 41.3006 145.759 41.3006C145.759 41.3006 142.169 33.4456 142.326 29.3551C142.482 25.2645 144.429 15.4038 144.429 15.4038ZM19.7056 17.4491C19.6372 17.4491 19.598 17.5084 19.5785 17.617C15.9398 26.0155 16.2528 60.7553 16.4582 59.9154C17.6513 58.7453 18.9696 57.8221 20.3404 57C21.8619 56.0876 23.4482 54.3622 25 53.5C26.7726 52.5151 29.4653 50.476 31 49C29.9652 45.1055 24.567 27.3888 23.9508 24.5531C23.4421 22.1818 20.3219 17.4293 19.7056 17.4491ZM36.4514 296.168C39.2489 293.925 40.2368 286.169 36.0797 281.673C33.517 278.897 38.8283 273.344 38.1925 269.639C37.5959 266.151 35.4342 262.209 35.6102 258.464C35.7765 254.867 38.6131 251.775 39.0435 248.455C38.3393 238.989 35.6494 239.197 38.3393 234.425C39.8456 226.777 35.933 219.94 36.6079 215.652C41.3813 210.711 46.9567 207.085 38.6718 197.205C38.0556 196.612 39.5522 192.541 36.9699 190.931C32.0791 187.897 29.712 166.852 32.2063 161.912C33.4779 159.402 41.9877 149.956 46.2035 146.152C47.4849 145.006 47.4849 143.712 48.3261 142.615C54.7036 139.226 64.3285 140.57 68.2411 146.142C69.6594 147.457 78.3649 146.37 80.3407 146.142C82.8448 145.876 95.5606 144.7 97.4582 142.852C99.6786 140.708 92.6653 130.008 92.3719 125.64C92.0785 121.273 89.369 122.479 96.1964 119.347C101.244 118.171 117.031 116.896 116.376 110.958C115.818 111.205 118.84 104.704 115.681 99.299C104.921 80.6743 10.0416 57.7121 11.6555 99.4571C8.61348 102.767 9.58185 122.064 9.60141 120.068C9.60141 117.568 7.38103 130.334 13.0249 139.127C14.0031 140.728 10.9219 142.645 10.6187 144.522C10.1198 147.634 12.8195 149.867 12.9467 152.654C13.0543 155.025 10.8828 157.12 11.1273 159.57C11.3327 161.546 14.0617 162.781 14.0617 164.708C14.0617 168.295 12.3891 171.407 12.0468 175.191C11.6555 179.509 16.644 183.184 16.9375 183.095C19.6665 182.552 14.3063 188.204 14.6878 191.247C15.0203 193.855 17.3776 195.594 17.7102 198.064C18.0819 200.841 17.8569 207.095 18.884 209.793C19.8034 212.213 18.3558 212.075 22.151 214.555C25.9462 217.035 20.2925 222.459 20.6153 226.412C20.7718 228.437 22.7966 229.662 22.9824 231.49C23.2269 233.832 20.3805 236.539 20.5077 239.306C20.6251 241.855 23.1585 243.861 23.2367 246.094C23.3345 249.275 20.4686 252.585 20.361 255.974C20.2143 260.736 22.9922 264.204 24.029 268.572C24.7431 271.625 25.7212 274.609 23.9312 277.227C22.1412 279.845 23.5 278.5 20.9968 285C20.9968 285 20.5 293.843 21.5 304C20.3262 308.258 20.4001 307.086 20.4001 307.086L15.7148 310.643L14.3454 317.559C13.1227 317.292 6.4518 327.943 6.93109 333.457C14.9225 340.847 37.3318 353.919 61.7071 357.743C52.6495 353.445 44.0321 345.323 36.8231 334.85C36.8231 334.85 26.2494 326.343 34.681 316.156C37.9578 312.204 31.4531 300.14 36.4514 296.128V296.168Z" fill="black" fill-opacity="0.2"/>
</g>
<g id="path737212">
<path id="Vector_3" d="M29.5457 42.1704C28.7493 37.1323 27.6816 32.1418 26.3471 27.2212C25.8776 25.3834 23.041 26.164 23.5203 28.0116C24.8552 32.9282 25.9197 37.9156 26.709 42.9509C26.8243 43.3209 27.0777 43.631 27.4155 43.8155C27.7533 43.9999 28.149 44.0442 28.5186 43.939C28.8876 43.8262 29.1997 43.5749 29.3908 43.2367C29.5818 42.8985 29.6373 42.4992 29.5457 42.121V42.1704Z" fill="black"/>
<path id="Vector_4" d="M40.5302 34.8984C37.7327 30.4324 34.2212 26.4605 31.6193 21.866C29.7413 18.5363 27.9904 12.4697 23.1975 12.8748C19.285 13.2107 17.182 16.3132 16.2918 19.8603C15.0887 24.6523 15.1376 29.7408 15.1083 34.681C15.0594 41.5183 15.1865 48.3655 14.5214 55.1732C14.3356 57.0702 17.27 57.0603 17.4558 55.1732C18.0036 49.6104 18.0134 44.0082 18.0232 38.3763C17.9062 33.4485 18.0989 28.5181 18.6003 23.6149C18.9524 20.9669 19.3926 17.5977 22.014 16.3033C22.339 16.0936 22.7045 15.9564 23.0862 15.9008C23.4679 15.8453 23.8569 15.8727 24.2273 15.9811C24.5977 16.0896 24.9408 16.2767 25.2339 16.53C25.5269 16.7832 25.7631 17.0966 25.9266 17.4494C27.0319 19.1884 27.8828 21.1052 28.861 22.9035C31.5118 27.6955 35.1505 31.7959 38.0458 36.4397C39.0239 38.0503 41.5964 36.5583 40.5791 34.9478L40.5302 34.8984Z" fill="black"/>
<path id="Vector_5" d="M135.371 70.8733C138.706 68.0771 140.438 63.1369 141.846 59.1847C143.746 53.8663 145.093 48.363 145.866 42.7633C146.282 40.1774 146.43 37.5547 146.307 34.9379C146.16 33.0508 143.226 33.031 143.372 34.9379C143.715 39.6015 142.795 44.3837 141.758 48.8991C140.682 54.0557 139.001 59.0643 136.75 63.8186C135.945 65.6862 134.77 67.3675 133.297 68.7589C131.84 69.9742 133.923 72.0688 135.371 70.8535V70.8733Z" fill="black"/>
<path id="Vector_6" d="M85.1756 33.0693C80.9707 31.2222 75.1582 31.7937 70.499 32.2293C64.2277 32.8117 57.9785 33.984 51.852 35.7274C49.0001 36.4787 46.2141 37.4931 43.5392 38.7541C41.6327 39.717 42.7521 42.4297 44.6791 41.4581C49.3983 39.0971 54.731 37.8468 59.8317 36.8218C65.6149 35.5515 71.4791 34.9039 77.3 34.8927C79.5558 34.8154 82.9802 34.7529 85 35.4997C86.8306 36.3097 86.9819 33.8789 85.1551 33.078L85.1756 33.0693Z" fill="black"/>
<path id="Vector_7" d="M113.077 41.7588C109.754 38.5285 104.018 36.9807 99.4283 35.7191C93.2519 34.0172 86.8806 32.8741 80.417 32.3082C77.4302 31.9885 74.4098 31.938 71.4049 32.1576C69.2396 32.3741 69.3112 35.3077 71.4992 35.0905C76.8506 34.5759 82.3789 35.3181 87.6042 36.1874C93.5682 37.0722 99.3814 38.5674 104.92 40.6412C107.094 41.3768 107.853 41.0791 109.5 42.4997C110.944 43.9114 112.444 40.9016 111 39.4996L113.077 41.7588Z" fill="black"/>
<path id="Vector_8" d="M146.052 80.4483C145.641 76.2491 146.385 71.872 147.03 67.742C147.754 63.3155 148.713 58.9483 149.72 54.591C150.239 52.3383 150.522 50.0559 151.217 47.8328C151.686 46.321 152.293 44.8686 152.674 43.3174C153.099 41.5023 153.287 39.6387 153.232 37.7744C153.232 36.4208 152.978 35.0573 152.978 33.7037C152.978 31.9845 153.291 30.2158 153.379 28.4868C153.692 22.9142 153.613 16.9859 151.422 11.7591C150.072 8.56769 149.808 4.31908 147.304 1.75015C144.292 -1.3622 140.095 1.23637 137.992 4.03255C134.911 8.12307 133.17 13.1424 130.402 17.4503C127.213 22.3905 122.978 26.3427 118.508 30.0578C114.423 33.3822 111.004 37.4633 108.433 42.0823C108.254 42.4206 108.211 42.8161 108.315 43.1853C108.418 43.5546 108.659 43.869 108.987 44.0623C109.316 44.2556 109.705 44.3127 110.074 44.2217C110.443 44.1307 110.763 43.8986 110.966 43.5743C113.152 39.5689 116.046 36.0023 119.506 33.0515C123.042 30.2379 126.334 27.1241 129.346 23.7441C132.916 19.4955 135.351 14.7035 137.924 9.81263C138.78 8.01127 139.879 6.33867 141.191 4.84275C142.013 3.99302 143.548 2.86665 144.781 3.499C146.013 4.13135 146.414 5.87032 146.786 7.00657C147.324 8.68626 147.764 10.4252 148.38 12.0654C150.385 17.0056 150.767 22.104 150.532 27.4296C150.474 28.9215 150.366 30.3937 150.239 31.9054C150.152 33.512 150.169 35.1226 150.288 36.7271C150.424 38.5445 150.318 40.3721 149.975 42.1614C149.652 43.6039 149.104 44.9773 148.644 46.3803C147.988 48.3925 147.491 50.4541 147.158 52.5458C146.815 54.6997 146.179 56.8339 145.749 58.978C145.201 61.514 144.716 64.0697 144.292 66.6452C143.548 71.131 142.678 75.923 143.118 80.4779C143.304 82.3552 146.238 82.375 146.052 80.4779V80.4483Z" fill="black"/>
<path id="Vector_9" d="M9.39601 101.048C9.57208 103.024 8.80912 105.069 8.20267 106.976C7.42155 109.079 6.84499 111.253 6.48115 113.468C6.04984 117.56 7.1373 121.669 9.53295 124.998L9.15147 123.556C8.29071 126.421 7.39082 129.583 7.89945 132.606C8.30598 134.114 8.90439 135.562 9.67968 136.914C9.98801 137.647 10.1985 138.418 10.3057 139.206C10.4231 140.194 9.90465 140.451 9.44492 141.4C9.04964 142.203 8.74452 143.048 8.53525 143.919C8.19209 145.439 8.23932 147.022 8.67246 148.518C9.1056 150.014 9.91026 151.373 11.01 152.466C12.3402 153.83 14.4139 151.725 13.0836 150.371C12.4961 149.803 12.0279 149.12 11.707 148.365C11.386 147.609 11.2188 146.797 11.2154 145.975C11.2468 144.907 11.5071 143.858 11.9783 142.902C12.5261 141.736 13.3868 140.926 13.2695 139.582C13.0738 137.191 12.1153 135.442 11.1567 133.337C10.0709 130.946 11.1567 127.518 11.8512 124.791C12.1739 123.516 11.6555 123.091 11.0686 122.054C10.5756 121.118 10.2041 120.122 9.96333 119.09C9.48435 117.442 9.42253 115.715 9.5 114C9.82279 109.583 12.7119 105.563 12.2913 101.048C12.1348 99.1608 9.20039 99.1509 9.35689 101.048H9.39601Z" fill="black"/>
<path id="Vector_10" d="M15.6913 53.8509C15.5713 55.8312 14.5125 57.7402 13.629 59.5356C12.5438 61.4982 11.6501 63.5623 10.9606 65.6986C9.92508 69.6815 10.389 73.9063 12.2625 77.5549L12.1 76.0717C10.8224 78.777 9.46199 81.7696 9.51503 84.8351C9.69267 86.3865 10.0689 87.9074 10.6344 89.3599C10.8302 90.1303 10.9237 90.9239 10.9123 91.7199C10.8813 92.7144 10.3304 92.8913 9.73465 93.7608C9.22428 94.496 8.7968 95.2863 8.46017 96.1169C7.8947 97.5684 7.70584 99.1408 7.91154 100.684C8.11725 102.228 8.71068 103.692 9.63544 104.937C10.748 106.483 13.1118 104.71 11.9977 103.174C11.5014 102.524 11.14 101.78 10.935 100.985C10.73 100.19 12.1664 101.498 12.2853 100.684C11 98 11.408 96.4987 12.0163 95.6229C12.7315 94.5515 13.7033 93.8784 13.7872 92.5322C13.9495 90.1386 13.2619 88.2666 12.6272 86.0428C11.9094 83.5168 13.4932 80.288 14.5858 77.6947C15.0947 76.4824 14.6453 75.9851 14.2193 74.8719C13.871 73.873 13.6519 72.8325 13.5674 71.7762C13.3389 70.076 13.5348 68.3587 13.8667 66.6742C14.3205 64.6668 15.7835 63.6089 16 62.5C16.2493 61.223 15.2324 59.9087 15.5 57.5C15.5001 55.0004 15.7802 51.9459 15.6526 53.8451L15.6913 53.8509Z" fill="black"/>
<path id="Vector_11" d="M100.608 168.146C100.39 171.649 101.084 175.147 102.623 178.294C103.34 179.857 104.236 181.329 105.293 182.681C105.791 183.319 106.327 183.926 106.897 184.499C107.135 184.789 107.419 185.036 107.739 185.23C108.022 185.358 107.739 185.586 107.739 184.963L108.462 183.679H109.93C110.36 183.876 110.047 183.748 109.812 183.481C109.577 183.214 109.333 182.898 109.079 182.612C108.564 181.981 107.953 181.437 107.269 181.001C106.873 180.742 106.402 180.627 105.933 180.674C105.464 180.72 105.025 180.926 104.687 181.258C103.643 182.392 102.779 183.682 102.124 185.082C101.047 187.284 100.57 189.736 100.742 192.186C100.914 194.636 101.728 196.996 103.102 199.023C104.029 200.444 105.094 201.768 106.281 202.975C106.534 203.316 106.83 203.622 107.161 203.884C106.672 203.627 107.553 202.985 107.807 202.639C108.697 201.444 108.883 201.602 107.963 201.434C107.512 201.348 107.053 201.312 106.594 201.325C102.183 201.552 103.122 206.809 104.188 209.625C105.057 211.913 106.176 214.097 107.523 216.136C108.554 217.895 109.909 219.437 111.514 220.681C113.079 221.748 114.546 219.179 112.991 218.122C112.759 217.963 112.546 217.777 112.355 217.569C112.013 217.223 111.69 216.847 111.377 216.472C110.71 215.634 110.099 214.753 109.548 213.834C108.254 211.825 107.237 209.648 106.526 207.362C106.255 206.572 106.13 205.738 106.154 204.902C106.175 204.698 106.242 204.502 106.35 204.329C106.262 204.487 106.35 204.329 106.545 204.329C106.642 204.308 106.742 204.308 106.839 204.329C107.022 204.338 107.205 204.358 107.386 204.388C107.963 204.467 108.472 204.665 109.02 204.388C109.224 204.256 109.395 204.078 109.519 203.869C109.644 203.659 109.719 203.423 109.739 203.18C109.759 202.936 109.723 202.691 109.634 202.463C109.545 202.236 109.405 202.033 109.225 201.869C108.325 200.821 107.269 199.893 106.438 198.796C104.989 196.995 104.022 194.848 103.63 192.561C103.489 191.033 103.653 189.492 104.112 188.03C104.57 186.567 105.315 185.212 106.301 184.044C106.484 183.844 106.65 183.629 106.8 183.402C107.054 182.918 106.379 183.6 106.095 183.688C105.812 183.777 105.733 183.481 105.958 183.777C106.037 183.886 106.565 184.35 106.809 184.607C107.212 185.134 107.65 185.633 108.12 186.099C109.617 187.374 111.133 185.625 110.389 184.123C109.941 183.423 109.379 182.805 108.726 182.295C108.033 181.592 107.411 180.821 106.868 179.993C104.466 176.59 103.292 172.457 103.542 168.285C103.728 166.388 100.794 166.398 100.608 168.285V168.146Z" fill="black"/>
<path id="Vector_12" d="M118.948 145.056C115.352 144.171 111.594 144.202 108.012 145.145C106.692 145.566 105.407 146.092 104.168 146.716C103.013 147.135 101.926 147.725 100.94 148.465C99.17 150.174 101.283 151.745 102.897 152.209C104.208 152.577 105.551 152.819 106.907 152.931C108.814 153.108 108.736 150.203 106.907 149.966C106.702 149.966 106.487 149.966 106.281 149.907L107.748 151.389C107.748 148.929 104.657 148.573 102.858 148.603C100.045 148.633 97.2862 149.38 94.8368 150.777C93.5748 151.435 92.5385 152.462 91.8632 153.724C91.1879 154.986 90.905 156.424 91.0514 157.851C91.472 161.546 93.9858 164.431 96.9203 166.487C100.099 168.798 103.875 170.126 107.787 170.31C108.177 170.31 108.55 170.154 108.825 169.876C109.1 169.598 109.255 169.221 109.255 168.828C109.255 168.435 109.1 168.058 108.825 167.78C108.55 167.502 108.177 167.346 107.787 167.346C105.211 167.224 102.7 166.486 100.461 165.192C98.0549 163.898 95.5704 162.04 94.4749 159.452C93.5848 157.476 93.7217 155.341 95.4531 153.909C97.1602 152.667 99.1605 151.9 101.253 151.686C102.171 151.558 103.099 151.532 104.022 151.607C104.217 151.607 104.403 151.686 104.599 151.725C104.794 151.765 105.137 151.834 104.833 151.784C105.117 151.784 104.921 151.903 104.892 151.784C104.892 151.784 104.765 151.32 104.765 151.419C104.775 151.809 104.933 152.18 105.206 152.456C105.479 152.731 105.846 152.891 106.232 152.901C106.438 152.901 106.653 152.901 106.858 152.96V149.996C106.78 150.006 106.701 150.006 106.623 149.996C106.232 149.838 106.623 149.996 106.281 149.996C105.655 149.897 105.039 149.789 104.423 149.65L103.444 149.413C103.308 149.364 103.161 149.324 103.034 149.265C102.907 149.206 103.131 149.206 102.916 149.265C102.701 149.324 102.916 148.949 102.916 149.265C102.998 149.343 103.059 149.442 103.091 149.551C103.124 149.66 103.128 149.776 103.102 149.887C103.171 150.037 103.188 150.205 103.153 150.365C103.118 150.526 103.031 150.67 102.907 150.777C102.907 150.777 102.906 150.777 103.014 150.717C103.243 150.636 103.463 150.53 103.669 150.401C105.532 149.364 107.5 148.533 109.538 147.921C112.367 147.335 115.288 147.382 118.097 148.059C119.936 148.435 120.728 145.57 118.88 145.204L118.948 145.056Z" fill="black"/>
<path id="Vector_13" d="M25.3323 277.721C25.7626 275.014 26.6332 272.228 26.6821 269.471C26.731 266.715 24.4324 265.114 23.464 262.792C22.4903 260.381 22.3355 257.713 23.0238 255.204C23.5325 253.317 24.4324 251.578 24.9801 249.71C25.6648 247.487 25.8018 245.481 24.4617 243.495C23.7423 242.676 23.1934 241.718 22.8478 240.679C22.6561 239.535 22.8059 238.359 23.2781 237.3C24.0509 235.542 25.5279 234.04 25.5279 231.985C25.5279 229.761 23.5716 227.973 22.838 225.997C22.1044 224.021 23.239 222.292 23.9042 220.573C24.4519 219.189 25.6061 217.035 25.1366 215.474C24.8334 214.486 23.3075 213.567 22.6228 212.757C21.9462 211.967 21.3921 211.077 20.9795 210.119C20.2246 208.154 19.8142 206.071 19.7666 203.964C19.6786 202.728 19.6297 201.474 19.571 200.229C19.6049 198.865 19.4802 197.502 19.1993 196.168C18.5537 193.984 16.216 192.532 16.2649 190.141C16.2849 188.802 16.6892 187.497 17.4289 186.386C18.0744 185.398 19.1993 184.657 18.5635 183.363C18.2482 182.838 17.8881 182.342 17.4875 181.881C16.7344 180.901 16.0574 179.864 15.4628 178.778C14.0641 176.12 14.1423 172.781 14.8074 169.886C14.9835 169.145 15.1987 168.414 15.4432 167.702C15.8244 166.951 16.0883 166.144 16.2257 165.311C16.2257 164.481 15.541 163.849 15.0422 163.246C14.2749 162.39 13.6416 161.42 13.1642 160.371C12.9727 159.993 12.8729 159.575 12.8729 159.151C12.8729 158.726 12.9727 158.308 13.1642 157.93C14.3184 155.786 15.7758 153.247 14.4553 150.846C13.5359 149.176 11.0025 150.668 11.9219 152.338C12.8414 154.008 10.6014 156.053 10.1417 157.436C9.44722 159.551 10.4645 161.902 11.6578 163.612C12.162 164.39 12.7349 165.121 13.3696 165.795C13.7021 166.141 13.3696 165.854 13.3696 165.845L13.4283 165.934C13.2718 165.232 13.1348 165.183 13.0174 165.766C12.646 166.471 12.3884 167.231 12.2545 168.018C11.4157 170.879 11.2152 173.893 11.6676 176.842C12.2063 179.163 13.2748 181.325 14.7879 183.155C15.0226 183.471 15.6291 184.627 15.991 184.785V183.402L15.7465 183.689C15.4918 183.961 15.2656 184.259 15.0715 184.578C14.6546 185.196 14.3068 185.859 14.0347 186.554C13.4813 187.78 13.2423 189.126 13.3398 190.47C13.4372 191.813 13.868 193.11 14.5923 194.241C15.2142 195.032 15.7734 195.871 16.2649 196.751C16.7637 197.838 16.5877 199.438 16.6463 200.634C16.8615 205.08 16.9202 209.882 19.5808 213.656C20.1853 214.52 20.8734 215.321 21.6349 216.047C21.8738 216.292 22.1286 216.519 22.3978 216.729L22.2707 216.146C22.2707 216.304 22.2707 216.334 22.2707 216.215C22.1085 216.619 21.9936 217.04 21.9283 217.47C21.3121 219.367 20.4122 221.175 19.8546 223.092C19.1797 225.384 20.109 227.43 21.2534 229.386C21.6838 230.117 22.5348 231.105 22.5837 231.994C22.477 232.772 22.1701 233.508 21.6936 234.129C20.4728 235.906 19.827 238.022 19.8449 240.185C19.8857 241.429 20.2759 242.635 20.9697 243.663C21.4979 244.483 22.4467 245.402 22.5837 246.4C22.8478 248.376 21.4686 250.728 20.7937 252.506C19.8331 254.855 19.4667 257.409 19.7275 259.937C19.8893 261.564 20.326 263.151 21.0186 264.63C21.7327 266.033 22.9749 267.169 23.5422 268.631C23.7616 269.721 23.7078 270.848 23.3857 271.912C23.0825 273.601 22.7206 275.281 22.4565 276.97C22.1631 278.838 24.9899 279.648 25.2833 277.761L25.3323 277.721Z" fill="black"/>
<path id="Vector_14" d="M150.65 147.763C150.896 149.037 151.279 150.279 151.794 151.468C152.381 153.247 152.987 155.035 153.408 156.853C153.624 157.717 153.644 158.618 153.467 159.491C153.232 161.181 152.684 162.821 152.489 164.51C152.352 165.176 152.322 165.86 152.401 166.536C152.577 167.425 153.056 168.334 153.31 169.214C153.812 170.82 154.14 172.476 154.288 174.154C154.42 175.742 154.314 177.34 153.975 178.896C153.595 180.224 152.9 181.438 151.951 182.434C151.177 183.313 150.52 184.289 149.994 185.338C149.812 185.63 149.701 185.961 149.67 186.305C149.639 186.649 149.69 186.995 149.818 187.315C150.033 187.917 150.366 188.51 150.63 189.113C151.623 191.026 152.307 193.087 152.655 195.219C152.824 197.514 152.313 199.808 151.188 201.809C150.581 202.985 149.016 204.576 149.231 205.949C149.595 207.349 149.87 208.772 150.053 210.208C150.101 211.76 149.656 213.287 148.781 214.565C148.069 215.38 147.452 216.275 146.943 217.233C146.111 219.377 147.617 222.114 148.547 224.001C149.237 225.267 149.823 226.589 150.298 227.953C150.688 229.264 150.65 230.667 150.19 231.955C149.771 233.115 149.476 234.317 149.31 235.541C149.262 236.84 149.625 238.121 150.346 239.197C151.726 241.479 153.858 243.149 155.169 245.511C156.147 247.279 155.853 249.7 155.677 251.646C155.58 252.753 155.443 253.85 155.325 254.956C155.167 255.751 155.151 256.567 155.276 257.367C155.521 258.355 156.538 259.245 157.086 260.045C157.714 260.974 158.286 261.941 158.798 262.94C161.585 268.384 161.928 274.599 161.341 280.606C161.165 282.503 164.099 282.493 164.275 280.606C164.891 274.243 164.393 267.762 161.585 261.952C161.032 260.812 160.402 259.713 159.698 258.662C159.365 258.168 159.023 257.674 158.719 257.219C158.547 256.965 158.361 256.721 158.162 256.488C157.771 256.112 158.269 256.606 158.162 256.765C158.205 256.437 158.205 256.104 158.162 255.777C158.162 255.243 158.269 254.7 158.328 254.166C158.475 252.862 158.631 251.548 158.7 250.214C158.847 247.487 158.573 245.046 156.939 242.794C155.961 241.44 154.807 240.235 153.78 238.93C152.978 237.942 152.058 236.717 152.254 235.363C152.489 233.792 153.232 232.32 153.447 230.729C153.636 229.057 153.361 227.364 152.655 225.839C152.019 224.278 151.178 222.805 150.493 221.264C150.147 220.527 149.891 219.751 149.73 218.952C149.73 218.814 149.593 217.964 149.603 218.458C149.603 218.171 149.603 218.458 149.603 218.339C149.923 217.832 150.276 217.347 150.659 216.887C151.256 216.096 151.747 215.229 152.117 214.308C153.359 211.344 152.899 208.064 151.96 205.08L151.814 206.226C154.005 203.015 155.863 199.31 155.521 195.268C155.237 191.87 153.653 188.797 152.273 185.734L152.42 186.88C153.027 185.22 154.504 183.995 155.482 182.562C156.567 180.798 157.155 178.769 157.184 176.693C157.313 174.349 157.082 172 156.499 169.727C156.206 168.522 155.658 167.356 155.403 166.151C155.295 165.012 155.428 163.863 155.795 162.781C156.388 160.866 156.607 158.853 156.44 156.853C156.225 155.698 155.931 154.559 155.56 153.444C155.149 152.101 154.709 150.777 154.259 149.492C154.103 149.008 153.936 148.504 153.77 148.04C153.701 147.822 153.535 146.973 153.613 147.733C153.428 145.846 150.493 145.826 150.679 147.733L150.65 147.763Z" fill="#229AC0"/>
<path id="Vector_15" d="M22.5 277.5C23 280 21.7862 281.13 21.0721 283.729C20.7145 285.086 20.4367 288.964 20.6644 290.349C20.8921 291.734 20.2275 295.333 21 296.5V299.5C21 302.5 21.0892 303.451 21.5 306C21.8326 308.045 23.0577 303.035 22.0698 305.031L23.3414 304.29C20 299.113 21.5 303.5 20.7591 305.189C19.6087 305.709 18.5276 306.373 17.541 307.165C16.3966 308.153 16.0934 309.309 15.5847 310.663C15.1015 311.962 14.4678 313.199 13.6969 314.348C12.1778 316.267 10.8661 318.343 9.78434 320.543C8.58122 323.399 7.26295 329.506 6.5 332.5C6.50004 334 8.49996 334.5 8.49996 335C9.17488 332.332 11.3396 324.832 12.2493 322.243C13.1679 320.086 14.4119 318.086 15.9369 316.315C16.5565 315.473 17.0938 314.573 17.541 313.627C17.8736 312.916 18.1768 312.185 18.4605 311.453C18.6338 310.878 18.8496 310.317 19.106 309.774C19.8554 309.029 20.7474 308.448 21.7275 308.064C22.1285 307.867 22.5296 307.669 22.9502 307.501C23.0969 307.442 23.2632 307.402 23.4001 307.333C23.8989 307.333 23.537 307.264 23.4001 307.333C23.6564 307.339 23.9093 307.274 24.1317 307.145C24.354 307.016 24.5374 306.828 24.6619 306.602C25.8259 304.251 25.2781 301.583 24.838 299.113C24.4271 296.84 23.586 293.916 24.9847 291.841C25.1193 291.616 25.1905 291.358 25.1905 291.095C25.1905 290.832 25.1193 290.574 24.9847 290.349C24.3492 289.419 23.9438 288.348 23.8025 287.227C23.6613 286.107 23.7883 284.968 24.1728 283.907C25.0173 281.888 24.6031 279.5 25.315 277.694C25 276 24.2763 278.063 24.1728 277.694C24.0694 277.324 25.039 275.551 24.7108 275.358C24.3826 275.164 25.9719 275.896 25.6028 275.987C25.2337 276.078 24.9139 276.31 24.7108 276.635L22.5 277.5Z" fill="black"/>
<g id="Group 40">
<path id="Vector_16" d="M153 99C152.98 101.604 153.085 104.85 152.449 107.587C152.111 108.797 151.969 110.055 152.029 111.312C152.293 113.232 152.742 115.121 153.369 116.953C154.019 118.786 154.35 120.718 154.347 122.664C154.139 124.211 153.455 125.652 152.391 126.784C151.435 127.893 150.707 129.183 150.249 130.579C149.906 132.09 150.601 133.375 151.051 134.778C152.029 137.979 153.222 142.494 151.051 145.449C149.916 146.98 152.459 148.413 153.584 146.951C155.638 144.194 155.345 140.331 154.719 137.149C154.385 135.525 153.927 133.929 153.349 132.377C152.86 131.043 153.613 130.134 154.396 129.047C155.403 127.826 156.236 126.469 156.871 125.016C157.393 123.219 157.447 121.317 157.027 119.493C156.479 116.281 154 112.5 155 109.5C156.5 106.5 154.991 104.691 155.5 101.5C153.5 95 150.457 96.0647 152 98L153 99Z" fill="black"/>
<path id="Vector_17" d="M147.602 53.9601C148.032 57.0179 146.748 60.6245 146.447 63.9498C146.244 65.4309 146.289 66.9321 146.582 68.3948C147.239 70.5989 148.116 72.7337 149.2 74.7691C150.312 76.8006 151.053 79.0068 151.388 81.2901C151.403 83.1419 150.818 84.9565 149.716 86.477C148.742 87.9508 150.317 90.2802 150 91.9999C149.845 93.835 148.689 94.5 149.47 96.0949C151.221 99.6724 154 104.5 152.5 108.5C154.173 111.889 153.562 111.832 154.682 109.913C156.711 106.308 155.68 101.83 154.362 98.2117C153.672 96.3673 153.476 88.7164 152.5 87C152.311 82.6847 151.733 89.9165 152.5 88.5C153.517 86.8858 154.357 85.411 154.879 83.591C155.204 81.3891 154.939 79.1479 154.109 77.0847C152.882 73.4176 149.196 69.4315 149.895 65.7317C151.205 61.9413 150.652 58.0576 150.718 54.2223C149.639 51.3854 147.617 51.755 147.585 54.01L147.602 53.9601Z" fill="black"/>
<path id="Vector_18" d="M150.65 147.763C150.896 149.037 151.279 150.279 151.794 151.468C152.381 153.247 152.987 155.035 153.408 156.853C153.624 157.717 153.644 158.618 153.467 159.491C153.232 161.181 152.684 162.821 152.489 164.51C152.352 165.176 152.322 165.86 152.401 166.536C152.577 167.425 153.056 168.334 153.31 169.214C153.812 170.82 154.14 172.476 154.288 174.154C154.42 175.742 154.314 177.34 153.975 178.896C153.595 180.224 152.9 181.438 151.951 182.434C151.177 183.313 150.52 184.289 149.994 185.338C149.812 185.63 149.701 185.961 149.67 186.305C149.639 186.649 149.69 186.995 149.818 187.315C150.033 187.917 150.366 188.51 150.63 189.113C151.623 191.026 152.307 193.087 152.655 195.219C152.824 197.514 152.313 199.808 151.188 201.809C150.581 202.985 149.016 204.576 149.231 205.949C149.595 207.349 149.87 208.772 150.053 210.208C150.101 211.76 149.656 213.287 148.781 214.565C148.069 215.38 147.452 216.275 146.943 217.233C146.111 219.377 147.617 222.114 148.547 224.001C149.237 225.267 149.823 226.589 150.298 227.953C150.688 229.264 150.65 230.667 150.19 231.955C149.771 233.115 149.476 234.317 149.31 235.541C149.262 236.84 149.625 238.121 150.346 239.197C151.726 241.479 153.858 243.149 155.169 245.511C156.147 247.279 155.853 249.7 155.677 251.646C155.58 252.753 155.443 253.85 155.325 254.956C155.167 255.751 155.151 256.567 155.276 257.367C155.521 258.355 156.538 259.245 157.086 260.045C157.714 260.974 158.286 261.941 158.798 262.94C161.585 268.384 161.928 274.599 161.341 280.606C161.165 282.503 164.099 282.493 164.275 280.606C164.891 274.243 164.393 267.762 161.585 261.952C161.032 260.812 160.402 259.713 159.698 258.662C159.365 258.168 159.023 257.674 158.719 257.219C158.547 256.965 158.361 256.721 158.162 256.488C157.771 256.112 158.269 256.606 158.162 256.765C158.205 256.437 158.205 256.104 158.162 255.777C158.162 255.243 158.269 254.7 158.328 254.166C158.475 252.862 158.631 251.548 158.7 250.214C158.847 247.487 158.573 245.046 156.939 242.794C155.961 241.44 154.807 240.235 153.78 238.93C152.978 237.942 152.058 236.717 152.254 235.363C152.489 233.792 153.232 232.32 153.447 230.729C153.636 229.057 153.361 227.364 152.655 225.839C152.019 224.278 151.178 222.805 150.493 221.264C150.147 220.527 149.891 219.751 149.73 218.952C149.73 218.814 149.593 217.964 149.603 218.458C149.603 218.171 149.603 218.458 149.603 218.339C149.923 217.832 150.276 217.347 150.659 216.887C151.256 216.096 151.747 215.229 152.117 214.308C153.359 211.344 152.899 208.064 151.96 205.08L151.814 206.226C154.005 203.015 155.863 199.31 155.521 195.268C155.237 191.87 153.653 188.797 152.273 185.734L152.42 186.88C153.027 185.22 154.504 183.995 155.482 182.562C156.567 180.798 157.155 178.769 157.184 176.693C157.313 174.349 157.082 172 156.499 169.727C156.206 168.522 155.658 167.356 155.403 166.151C155.295 165.012 155.428 163.863 155.795 162.781C156.388 160.866 156.607 158.853 156.44 156.853C156.225 155.698 155.931 154.559 155.56 153.444C155.149 152.101 154.709 150.777 154.259 149.492C154.103 149.008 153.936 148.504 153.77 148.04C153.701 147.822 153.535 146.973 153.613 147.733C153.428 145.846 150.493 145.826 150.679 147.733L150.65 147.763Z" fill="black"/>
<path id="Vector_19" d="M161.404 281.604C161.003 285.584 160.397 290.28 162.464 293.707C164.112 296.505 167.071 298.435 168.14 301.71C168.693 303.402 168.425 305.387 168.247 307.133C167.973 308.978 167.907 310.861 168.051 312.729C168.443 315.906 170.519 318.52 172.194 320.83C173.032 321.915 173.754 323.125 174.342 324.43C175.04 326.293 175.375 328.327 175.322 330.373C175.322 330.805 175.463 331.218 175.714 331.524C175.964 331.829 176.304 332 176.659 332C177.013 332 177.353 331.829 177.604 331.524C177.855 331.218 177.995 330.805 177.995 330.373C178.07 326.966 177.242 323.62 175.634 320.83C174.182 318.433 172.31 316.492 171.179 313.802C169.762 310.549 171.392 306.46 171.116 302.957C170.813 299.075 168.523 296.624 166.358 294.054C165.181 292.894 164.318 291.329 163.881 289.564C163.426 286.983 163.881 284.141 164.112 281.549C164.326 279.478 161.653 279.489 161.439 281.549L161.404 281.604Z" fill="black"/>
</g>
</g>
</g>
</g>
</g>
</g>
</svg>
