<svg width="420" height="416" viewBox="0 0 420 416" fill="none" xmlns="http://www.w3.org/2000/svg">
<g id="Chip5">
<g id="g34507">
<path id="abColor_1" d="M420 207.529C420 322.143 326 415.02 210 415.02C94 415.02 0 322.143 0 207.529C0 92.9157 94 0.0390625 210 0.0390625C326 0.0390625 420 92.9157 420 207.529Z" fill="#29313D"/>
<path id="abColor_2" fill-rule="evenodd" clip-rule="evenodd" d="M209.84 80.5847C176.979 80.5448 145.367 93.0228 121.58 115.423C70.2 163.63 68 244.235 116.68 295.11C128.258 307.225 142.142 316.963 157.536 323.766C172.931 330.569 189.533 334.303 206.391 334.754C223.249 335.204 240.031 332.363 255.775 326.393C271.519 320.422 285.916 311.44 298.14 299.961C349.52 251.764 351.71 171.149 303.04 120.275C291.098 107.688 276.659 97.6676 260.624 90.8389C244.589 84.0102 227.301 80.5195 209.84 80.5847ZM209.84 341.766C191.422 341.839 173.186 338.161 156.271 330.96C139.356 323.758 124.126 313.189 111.53 299.912C60.19 246.241 62.53 161.21 116.7 110.365C129.594 98.2567 144.781 88.7825 161.388 82.485C177.996 76.1875 195.698 73.1906 213.48 73.6661C231.262 74.1415 248.775 78.0801 265.013 85.2558C281.252 92.4316 295.897 102.703 308.11 115.483C359.45 169.144 357.11 254.175 302.94 305.02C277.852 328.654 244.504 341.816 209.84 341.766Z" fill="white"/>
<path id="abColor_2_2" fill-rule="evenodd" clip-rule="evenodd" d="M306.49 33.2868L283.64 74.4983C306.922 87.2243 326.492 105.665 340.46 128.041L380.87 103.339C362.7 74.271 336.7 49.5303 306.49 33.2966V33.2868ZM380.93 103.438C367.51 111.708 353.78 119.899 340.56 128.209C354 119.919 367.78 111.748 380.93 103.418V103.438ZM381.05 103.626C367.62 111.876 353.87 120.057 340.65 128.327C354.05 120.087 367.94 111.896 381.05 103.606V103.626ZM410.68 204.565L363.19 205.306C363.621 231.595 357.165 257.548 344.45 280.645L386.11 303.222C392.72 291.83 397.31 279.667 401.16 267.207C406.865 250.079 409.922 232.198 410.23 214.169C410.28 210.918 410.12 207.164 410.68 204.565ZM344.41 280.645C358.04 288.203 372.3 296.009 386.05 303.251L344.41 280.645ZM344.33 280.793C357.95 288.371 372.19 296.177 385.94 303.449L344.33 280.793ZM287.88 338.465C265.03 351.823 239.056 359.079 212.51 359.521L213.32 406.542C248.109 405.971 282.147 396.453 312.08 378.926C304.027 365.442 295.96 351.969 287.88 338.505V338.465ZM212.42 359.521C212.54 374.994 212.77 391.138 213.2 406.542L212.42 359.521ZM212.25 359.521C212.36 374.984 212.54 391.138 212.98 406.532C212.74 390.895 212.497 375.241 212.25 359.57V359.521ZM77.86 285.15L37 309.17C54.7957 338.73 79.9856 363.272 110.15 380.438L133.72 339.621C110.652 326.518 91.408 307.739 77.86 285.111V285.15ZM77.77 285.002C64.23 293.045 50.24 300.969 36.98 309.081C50.53 301.038 64.43 293.084 77.77 285.002ZM77.68 284.854C64.13 292.877 50.14 300.801 36.86 308.883C50.42 300.86 64.32 292.926 77.68 284.854ZM35.26 109.248C26.26 124.602 19.9 141.409 15.08 158.394C11.76 174.459 8.79001 190.861 9.08001 207.401L56.57 207.47C56.5793 181.18 63.469 155.339 76.57 132.457L35.26 109.248ZM35.37 109.05C48.78 116.866 62.97 124.859 76.6 132.388L35.37 109.05ZM35.48 108.853C48.9 116.688 63.07 124.662 76.68 132.23L35.48 108.853ZM209.81 8.80291C175.005 8.64252 140.773 17.5474 110.56 34.6206L134.05 75.4863C157.133 62.5257 183.23 55.716 209.78 55.7254C209.78 40.0812 209.78 24.4437 209.78 8.81279L209.81 8.80291Z" fill="white"/>
</g>
</g>
</svg>
