<svg width="420" height="416" viewBox="0 0 420 416" fill="none" xmlns="http://www.w3.org/2000/svg">
<g id="Chip2">
<g id="g25582">
<path id="abColor_1" d="M420 208.157C420 322.771 326 415.648 210 415.648C94 415.648 0 322.771 0 208.157C0 93.5436 94 0.666992 210 0.666992C326 0.666992 420 93.5436 420 208.157Z" fill="#29313D"/>
<path id="abColor_2" fill-rule="evenodd" clip-rule="evenodd" d="M210 81.0447C177.139 81.0048 145.527 93.4828 121.74 115.883C70.36 164.09 68.16 244.695 116.84 295.57C128.418 307.685 142.302 317.423 157.696 324.226C173.091 331.029 189.693 334.763 206.551 335.214C223.409 335.664 240.191 332.823 255.935 326.853C271.679 320.882 286.076 311.9 298.3 300.421C349.68 252.224 351.87 171.609 303.2 120.735C291.258 108.148 276.819 98.1276 260.784 91.2989C244.748 84.4701 227.461 80.9795 210 81.0447ZM210 342.236C191.582 342.304 173.347 338.623 156.432 331.42C139.518 324.217 124.287 313.648 111.69 300.372C60.35 246.701 62.69 161.679 116.86 110.825C129.754 98.7167 144.941 89.2424 161.548 82.945C178.156 76.6475 195.858 73.6506 213.64 74.126C231.422 74.6015 248.935 78.54 265.173 85.7158C281.412 92.8915 296.057 103.163 308.27 115.943C359.61 169.613 357.27 254.635 303.1 305.48C278.012 329.116 244.665 342.281 210 342.236Z" fill="white"/>
<path id="abColor_2_2" d="M304 35.2485L276.41 83.7222C298.364 95.248 316.882 112.252 330.123 133.042C343.363 153.833 350.864 177.685 351.88 202.229L408.49 200.964C407.224 166.735 396.913 133.429 378.582 104.357C360.251 75.2849 334.538 51.4594 304 35.2485ZM104.81 41.8191C76.2693 59.4252 52.722 83.9053 36.3766 112.963C20.0312 142.021 11.4232 174.705 11.36 207.95L68 207.169C68.1657 183.446 74.3794 160.148 86.0669 139.425C97.7544 118.702 114.539 101.223 134.87 88.6032L104.81 41.8191ZM282.08 329.519C260.587 341.983 236.158 348.651 211.238 348.856C186.317 349.06 161.779 342.794 140.08 330.685L114.14 379.949C144.197 396.379 178.061 404.809 212.409 404.41C246.757 404.012 280.411 394.8 310.07 377.677L282.08 329.519Z" fill="white"/>
<path id="abColor_2_3" d="M204.67 10.3694C190.042 10.3452 175.46 11.9796 161.21 15.2405L175 72.2904C186.419 69.4388 198.152 67.9984 209.93 68.0023C216.789 68.0035 223.64 68.4855 230.43 69.4449L239.7 13.6003C228.157 11.4755 216.442 10.3941 204.7 10.3694H204.67ZM345.44 253.103C339.359 271.627 329.442 288.697 316.32 303.227L352.38 334.904C370.692 316.062 384.862 293.682 394 269.169L345.44 253.103ZM77.33 261.156L28.72 281.174C38.6736 305.365 53.5785 327.264 72.5 345.496L108.65 308.602C107.9 307.841 107.15 307.09 106.41 306.31C93.8719 293.236 83.9989 277.899 77.33 261.136V261.156Z" fill="white"/>
</g>
</g>
</svg>
