<svg width="420" height="416" viewBox="0 0 420 416" fill="none" xmlns="http://www.w3.org/2000/svg">
<g id="Chip3">
<g id="g34501">
<path id="abColor_1" d="M420 208.281C420 322.895 326 415.772 210 415.772C94 415.772 0 322.895 0 208.281C0 93.6676 94 0.791016 210 0.791016C326 0.791016 420 93.6676 420 208.281Z" fill="#29313D"/>
<path id="abColor_2" fill-rule="evenodd" clip-rule="evenodd" d="M209.84 81.3367C176.979 81.2968 145.367 93.7748 121.58 116.175C70.2 164.382 68 244.987 116.68 295.862C128.258 307.977 142.142 317.715 157.536 324.518C172.931 331.321 189.533 335.055 206.391 335.506C223.249 335.956 240.031 333.115 255.775 327.145C271.519 321.174 285.916 312.192 298.14 300.713C349.52 252.516 351.71 171.901 303.04 121.027C291.098 108.44 276.659 98.4196 260.624 91.5908C244.589 84.7621 227.301 81.2715 209.84 81.3367ZM209.84 342.518C191.422 342.591 173.186 338.913 156.271 331.712C139.356 324.51 124.126 313.941 111.53 300.664C60.19 246.993 62.53 161.961 116.7 111.116C129.594 99.0087 144.781 89.5344 161.388 83.2369C177.996 76.9395 195.698 73.9426 213.48 74.418C231.262 74.8935 248.775 78.832 265.013 86.0078C281.252 93.1835 295.897 103.455 308.11 116.235C359.45 169.896 357.11 254.927 302.94 305.772C277.852 329.406 244.504 342.568 209.84 342.518Z" fill="white"/>
<path id="abColor_2_2" fill-rule="evenodd" clip-rule="evenodd" d="M207 9.55512C173.32 9.55512 139.78 18.9811 110.54 35.3234L134.03 76.1892C143.56 69.9842 154.51 63.7793 156.21 78.847C178.902 69.584 203.657 66.3711 228 69.5297L231.54 42.141C219.9 40.8368 205.18 44.2653 209.8 28.3873C209.31 22.3899 210.72 14.5053 209.21 9.51561C208.49 9.51561 207.72 9.45632 207.02 9.51561L207 9.55512ZM306.43 33.9599C298.99 47.7235 291.2 61.487 283.62 75.2505C293.47 81.1788 311.99 87.9469 297.18 98.4499C316.444 113.45 331.43 133.14 340.67 155.589L366.9 145.046C363.562 136.527 359.732 128.204 355.43 120.118C363.91 114.871 372.84 109.714 381.05 104.398C372.48 109.546 363.84 115.029 355.33 119.96C363.81 114.703 372.7 109.536 380.93 104.21C372.37 109.358 363.73 114.871 355.22 119.802L380.87 104.111C362.57 74.803 336.94 50.6437 306.45 33.9599H306.43ZM77.9 102.718C72.1089 109.672 66.9206 117.096 62.39 124.91C53.39 119.891 44.3 114.476 35.39 109.714C44.32 114.842 53.6 119.881 62.3 125.068C53.3 120.068 44.2 114.654 35.3 109.911C44.3 114.99 53.3 120.068 62.3 125.157L35.3 110.01C26.3 125.404 19.91 142.27 15.12 159.314C11.83 175.34 8.9 191.682 9.2 208.163L56.69 208.222C57.3 197.126 54.11 177.84 70.34 185.497C74.3027 161.64 84.433 139.198 99.75 120.345L77.94 102.679L77.9 102.718ZM410.68 205.317L363.19 206.068C362.8 217.273 366.27 236.559 349.8 229.159C346.22 253.057 336.451 275.636 321.44 294.706L343.65 311.898C352.41 303.154 355.98 282.118 369.58 295.497C373.33 297.473 386.14 304.666 384.94 303.747C376.24 298.945 367.19 294.232 358.71 289.361C367.81 294.222 377.03 299.478 386.05 304.093C377.05 299.152 367.62 294.212 358.8 289.193L386.11 304.014C392.74 292.592 397.32 280.379 401.2 267.89C406.813 251.039 409.826 233.449 410.14 215.712C410.14 212.234 409.93 208.123 410.68 205.337V205.317ZM78.2 259.028L51.8 269.125C54.8974 277.728 58.857 286.003 63.62 293.827C54.76 299.103 45.45 304.28 36.86 309.635C45.8 304.468 54.86 298.955 63.72 293.995C54.86 299.291 45.56 304.468 36.98 309.803C45.91 304.626 54.98 299.113 63.82 294.133L37 309.922C54.7755 339.491 79.9617 364.036 110.13 381.19C117.99 367.594 125.847 353.992 133.7 340.384C123.81 334.218 105.28 327.025 120.42 316.67C101.55 301.381 87.0047 281.526 78.2 259.038V259.028ZM261.28 338.902C238.436 347.77 213.631 350.541 189.36 346.934C188.027 356.024 186.693 365.121 185.36 374.224C194.284 375.654 203.321 376.289 212.36 376.121C212.59 386.486 212.52 397.157 212.94 407.344C212.84 396.969 212.48 386.338 212.55 376.121C212.79 386.496 212.76 397.137 213.16 407.344C213.05 396.969 212.68 386.328 212.74 376.121L213.28 407.344C248.074 406.758 282.112 397.222 312.04 379.678L287.83 339.218C276.5 343.832 263.9 358.149 261.24 338.852L261.28 338.902Z" fill="white"/>
</g>
</g>
</svg>
