<svg width="420" height="416" viewBox="0 0 420 416" fill="none" xmlns="http://www.w3.org/2000/svg">
<g id="Chip4">
<g id="g35411">
<path id="abColor_1" d="M420 208.406C420 323.02 326 415.897 210 415.897C94 415.897 0 323.02 0 208.406C0 93.7926 94 0.916016 210 0.916016C326 0.916016 420 93.7926 420 208.406Z" fill="#29313D"/>
<path id="abColor_2" fill-rule="evenodd" clip-rule="evenodd" d="M206.79 9.57085C183.186 9.94497 159.832 14.4095 137.79 22.7613L161.28 83.2694C131.595 94.6436 106.9 115.965 91.5145 143.507C76.1284 171.049 71.0298 203.057 77.11 233.937L12.11 246.406C21.1852 292.538 46.4623 334.02 83.48 363.53L125 312.773C149.199 332.111 179.409 342.61 210.532 342.496C241.655 342.383 271.786 331.665 295.84 312.151L337.72 362.492C374.471 332.635 399.363 290.907 408 244.677L343.05 232.82C348.951 201.366 343.29 168.863 327.086 141.167C310.883 113.472 285.202 92.4033 254.67 81.7577L276.15 20.5481C253.851 12.9088 230.368 9.19672 206.77 9.58073L206.79 9.57085ZM210 81.2933C227.461 81.2281 244.749 84.7188 260.784 91.5475C276.819 98.3762 291.258 108.396 303.2 120.983C351.87 171.858 349.68 252.473 298.3 300.68C286.075 312.156 271.678 321.136 255.934 327.105C240.19 333.074 223.408 335.915 206.551 335.464C189.694 335.013 173.092 331.28 157.698 324.479C142.304 317.677 128.419 307.941 116.84 295.828C68.16 244.944 70.36 164.339 121.74 116.132C145.527 93.7314 177.139 81.2534 210 81.2933Z" fill="white"/>
<path id="abColor_2_2" d="M92.43 46.7617C66.449 65.1667 45.2718 89.4141 30.6469 117.502C16.0221 145.589 8.36911 176.711 8.32001 208.298L38.87 206.164C38.8748 179.487 45.2684 153.189 57.5284 129.421C69.7883 105.653 87.5665 85.0879 109.41 69.4078L110.1 68.9829L92.43 46.7617ZM130.26 355.626L116.26 384.092C144.529 398.828 175.941 406.71 207.901 407.086C239.861 407.463 271.453 400.322 300.07 386.255L286.68 357.306L284.25 358.59C281.37 359.96 278.45 361.251 275.49 362.463C272.53 363.675 269.53 364.805 266.49 365.852C263.47 366.9 260.423 367.858 257.35 368.727C254.277 369.597 251.177 370.387 248.05 371.099C244.93 371.8 241.79 372.423 238.63 372.946C235.47 373.47 232.31 373.934 229.13 374.28C225.95 374.626 222.76 374.893 219.57 375.071C216.38 375.249 213.17 375.337 209.97 375.337C182.964 375.343 156.341 369.028 132.28 356.91C131.59 356.505 130.91 356.09 130.23 355.675L130.26 355.626ZM381.13 206.164L411.43 208.298C411.381 176.711 403.728 145.589 389.103 117.502C374.478 89.4141 353.301 65.1667 327.32 46.7617L309.73 68.815C312.103 70.4815 314.437 72.2106 316.73 74.0022C319.23 75.9783 321.673 78.017 324.06 80.1183C326.45 82.2327 328.78 84.3965 331.06 86.6394C333.34 88.8822 335.52 91.1745 337.66 93.5557C339.8 95.9369 341.85 98.3379 343.85 100.808C345.85 103.278 347.77 105.808 349.62 108.386C351.47 110.965 353.25 113.593 354.95 116.291C356.65 118.988 358.28 121.695 359.83 124.462C361.38 127.228 362.83 130.035 364.24 132.89C365.65 135.745 366.93 138.621 368.16 141.545C369.39 144.47 370.52 147.424 371.58 150.438C372.64 153.451 373.58 156.435 374.5 159.468C375.42 162.502 376.18 165.575 376.89 168.657C377.6 171.74 378.23 174.843 378.77 177.955C379.31 181.067 379.77 184.209 380.11 187.351C380.45 190.493 380.74 193.645 380.91 196.797C381.08 199.949 381.13 203.022 381.13 206.164Z" fill="white"/>
</g>
</g>
</svg>
