<svg width="420" height="416" viewBox="0 0 420 416" fill="none" xmlns="http://www.w3.org/2000/svg">
<g id="Chip1">
<g id="g25047">
<path id="abColor_1" d="M420 208.033C420 322.646 326 415.523 210 415.523C94 415.523 0 322.646 0 208.033C0 93.4191 94 0.54248 210 0.54248C326 0.54248 420 93.4191 420 208.033Z" fill="#29313D"/>
<path id="abColor_2" fill-rule="evenodd" clip-rule="evenodd" d="M210 80.9301C177.14 80.8865 145.528 93.361 121.74 115.759C70.36 163.966 68.16 244.571 116.84 295.455C128.419 307.569 142.304 317.305 157.699 324.106C173.094 330.908 189.695 334.64 206.553 335.09C223.41 335.54 240.192 332.698 255.936 326.727C271.68 320.757 286.076 311.775 298.3 300.297C349.68 252.1 351.87 171.485 303.2 120.61C291.258 108.023 276.819 98.0031 260.784 91.1743C244.748 84.3456 227.461 80.855 210 80.9202V80.9301ZM210 342.111C191.582 342.18 173.347 338.498 156.432 331.296C139.518 324.093 124.287 313.524 111.69 300.247C60.35 246.576 62.69 161.555 116.86 110.7C129.754 98.5922 144.941 89.1179 161.548 82.8204C178.156 76.523 195.858 73.526 213.64 74.0015C231.422 74.477 248.935 78.4155 265.173 85.5913C281.412 92.767 296.057 103.039 308.27 115.818C359.61 169.489 357.27 254.511 303.1 305.356C278.012 328.991 244.665 342.157 210 342.111Z" fill="white"/>
<path id="abColor_2_2" d="M282 328.279L312.78 379.39C331.136 368.578 347.638 354.955 361.67 339.029C362.32 338.268 362.96 337.497 363.6 336.726C364.787 335.343 365.96 333.943 367.12 332.527C368.04 331.381 368.95 330.215 369.85 329.049C371 327.567 372.14 326.085 373.25 324.544C374.083 323.411 374.893 322.265 375.68 321.105C376.807 319.505 377.91 317.884 378.99 316.244C379.72 315.128 380.43 314.001 381.13 312.865C382.21 311.156 383.25 309.436 384.28 307.698C384.92 306.591 385.55 305.484 386.16 304.358C387.16 302.55 388.16 300.722 389.16 298.874C389.71 297.807 390.24 296.74 390.77 295.663C391.73 293.733 392.66 291.79 393.56 289.834C394.03 288.786 394.49 287.739 394.94 286.682C395.82 284.706 396.663 282.687 397.47 280.625C397.88 279.588 398.27 278.55 398.66 277.503C399.2 276.149 399.71 274.786 400.22 273.412H400.14C407.165 253.467 410.942 232.547 411.33 211.432L351.04 210.444C351.04 210.908 351.04 211.363 351.04 211.817C350.98 214.057 350.867 216.293 350.7 218.526C350.533 220.759 350.31 222.985 350.03 225.205C349.763 227.432 349.43 229.648 349.03 231.855C348.64 234.068 348.21 236.262 347.72 238.455C347.23 240.649 346.72 242.832 346.09 244.996C345.46 247.16 344.84 249.324 344.14 251.468C343.44 253.612 342.68 255.746 341.87 257.86C341.06 259.975 340.19 262.069 339.27 264.154C338.35 266.239 337.39 268.294 336.36 270.339C335.33 272.385 334.26 274.4 333.13 276.396C332 278.392 330.82 280.348 329.58 282.324C328.34 284.301 327.06 286.207 325.72 288.114C324.38 290.021 322.98 291.889 321.53 293.736C320.08 295.584 318.58 297.402 317.03 299.19C315.48 300.979 313.87 302.728 312.21 304.457C310.55 306.186 308.83 307.865 307.07 309.525C305.31 311.185 303.74 312.569 302.07 314.031C300.4 315.493 298.62 316.896 296.85 318.27C295.08 319.643 293.29 320.957 291.47 322.222C289.65 323.487 287.8 324.731 285.92 325.917C284.63 326.737 283.31 327.498 282 328.279Z" fill="white"/>
<path id="abColor_2_3" d="M69.06 213.764L8.61 216.184C9.49377 237.235 13.7465 258.014 21.21 277.75L21.75 279.093C22.75 281.593 23.75 284.034 24.75 286.534L25.33 287.848C26.52 290.545 27.77 293.203 29.07 295.841L29.36 296.414C37.7437 313.213 48.479 328.763 61.25 342.605L61.36 342.506C75.751 358.066 92.5458 371.276 111.12 381.643L140.65 329.879C138.85 328.891 137.07 327.844 135.32 326.757C133.32 325.512 131.34 324.211 129.38 322.854C127.42 321.497 125.503 320.111 123.63 318.694C121.74 317.232 119.88 315.73 118.06 314.169C116.24 312.608 114.44 310.998 112.68 309.338C110.92 307.678 109.21 305.968 107.53 304.21C105.85 302.451 104.23 300.682 102.67 298.874C101.11 297.066 99.6 295.228 98.14 293.351C96.68 291.474 95.29 289.596 93.94 287.67C92.59 285.743 91.31 283.806 90.07 281.83C88.83 279.854 87.65 277.878 86.52 275.902C85.39 273.926 84.32 271.851 83.3 269.796C82.28 267.741 81.3 265.656 80.41 263.561C79.52 261.467 78.64 259.362 77.84 257.238C77.04 255.114 76.29 252.969 75.59 250.816C74.89 248.662 74.26 246.488 73.67 244.314C73.08 242.14 72.56 239.947 72.08 237.744C71.6 235.54 71.18 233.337 70.81 231.124C70.44 228.91 70.12 226.687 69.81 224.464C69.5 222.241 69.34 220.008 69.18 217.775C69.09 216.471 69.06 215.157 69.01 213.823L69.06 213.764Z" fill="white"/>
<path id="abColor_2_4" d="M211.88 9.11898C201.17 9.02015 190.469 9.77017 179.88 11.3619C154.415 15.176 129.924 23.7719 107.73 36.6856L138.14 87.7282C138.69 87.4021 139.23 87.0563 139.78 86.7401C141.7 85.6467 143.647 84.5961 145.62 83.5882C147.62 82.6002 149.62 81.6122 151.62 80.7229C153.62 79.8337 155.62 78.9543 157.72 78.1441C159.82 77.3339 161.85 76.5731 163.94 75.8617C166.03 75.1503 168.15 74.4784 170.27 73.8856C172.39 73.2928 174.54 72.6999 176.7 72.1862C178.86 71.6724 181.03 71.1981 183.22 70.793C185.41 70.3879 187.6 70.0125 189.81 69.6963C192.02 69.3801 194.24 69.1232 196.47 68.9058C198.7 68.6885 200.95 68.5403 203.2 68.4316C205.45 68.3229 207.71 68.2735 209.98 68.2735C212.42 68.2735 214.857 68.3361 217.29 68.4612C219.723 68.5864 222.133 68.7642 224.52 68.9948C226.92 69.2319 229.3 69.5382 231.67 69.8939C234.04 70.2496 236.39 70.6646 238.73 71.1388C241.07 71.6131 243.38 72.1269 245.68 72.7296C247.98 73.3323 250.26 73.9646 252.52 74.7057C254.78 75.4467 257.02 76.168 259.23 76.9782C261.44 77.7884 263.64 78.6579 265.81 79.5866C267.98 80.5154 270.13 81.4837 272.25 82.5508C273.58 83.2029 274.89 83.9143 276.2 84.6059L304.09 32.3283C285.206 22.4593 264.856 15.6158 243.8 12.0535V11.9053C233.245 10.1376 222.565 9.20588 211.86 9.11898H211.88Z" fill="white"/>
<path id="abColor_2_5" d="M192.24 386.869C190.004 383.427 188.852 379.407 188.928 375.318C189.005 371.229 190.307 367.254 192.67 363.895C195.033 360.537 198.351 357.947 202.204 356.452C206.057 354.957 210.272 354.624 214.317 355.496C218.361 356.368 222.053 358.405 224.925 361.35C227.798 364.295 229.722 368.015 230.455 372.041C231.187 376.066 230.695 380.216 229.041 383.965C227.386 387.715 224.644 390.895 221.16 393.104C218.847 394.571 216.264 395.573 213.559 396.054C210.853 396.534 208.079 396.484 205.393 395.905C202.708 395.326 200.164 394.23 197.907 392.68C195.65 391.129 193.725 389.155 192.24 386.869Z" fill="white"/>
<path id="abColor_2_6" d="M59.78 106.205C63.9114 105.949 68.0267 106.909 71.6057 108.964C75.1847 111.019 78.0665 114.077 79.8867 117.75C81.707 121.424 82.384 125.548 81.832 129.601C81.2801 133.655 79.524 137.456 76.7859 140.523C74.0478 143.59 70.4506 145.787 66.4492 146.834C62.4477 147.882 58.2218 147.733 54.3058 146.408C50.3897 145.082 46.9594 142.639 44.4486 139.387C41.9378 136.136 40.4593 132.221 40.2 128.139C40.0278 125.429 40.3977 122.711 41.2886 120.142C42.1794 117.573 43.5737 115.202 45.3919 113.165C47.2101 111.128 49.4166 109.465 51.8853 108.271C54.354 107.076 57.0366 106.374 59.78 106.205Z" fill="white"/>
<path id="abColor_2_7" d="M359.22 106.205C355.089 105.949 350.973 106.909 347.394 108.964C343.815 111.019 340.934 114.077 339.113 117.75C337.293 121.424 336.616 125.548 337.168 129.601C337.72 133.655 339.476 137.456 342.214 140.523C344.952 143.59 348.549 145.787 352.551 146.834C356.552 147.882 360.778 147.733 364.694 146.408C368.61 145.082 372.041 142.639 374.551 139.387C377.062 136.136 378.541 132.221 378.8 128.139C378.973 125.428 378.605 122.71 377.714 120.14C376.824 117.571 375.43 115.199 373.611 113.162C371.793 111.125 369.586 109.462 367.116 108.268C364.647 107.074 361.964 106.373 359.22 106.205Z" fill="white"/>
</g>
</g>
</svg>
