<svg width="180" height="129" viewBox="0 0 180 129" fill="none" xmlns="http://www.w3.org/2000/svg">
<path d="M177.495 89.1709C156.071 115.184 117.129 129.236 81.8135 128.222C50.1209 127.313 22.0064 113.678 1.10645 95.5619C2.91533 76.6158 5.24327 57.6389 13.8016 38.2931C6.62026 34.3488 5.44975 28.8209 9.15795 22.0076C4.66199 7.95599 8.65661 3.32003 16.4043 2.84604C21.1192 18.6832 45.8473 56.3218 57.9258 80.9301C86.0633 50.3566 112.925 17.0523 147.756 0.808868C157.186 0.101802 185.231 5.56296 174.509 22.3869L178.071 47.9277C181.477 65.7535 176.298 66.034 170.273 64.5847C172.68 72.7801 177.606 83.8536 177.495 89.1709Z" fill="#0274A4"/>
<path d="M15.786 1.81543C7.44534 3.05996 5.88565 10.2436 9.44704 21.9115C4.06239 31.3943 8.92703 35.5002 14.128 39.4305C3.6265 63.0665 5.75151 76.5261 1.15723 94.9008C4.49514 99.0085 8.19737 100.992 11.7312 103.955C13.1019 85.1392 12.4838 70.447 19.5203 52.2354C22.3682 42.6413 39.5118 67.8026 39.4361 67.5784C37.5144 57.3868 29.5442 45.8632 23.0383 34.852C16.5574 23.8833 20.476 20.6269 23.8564 20.2695L15.786 1.81543ZM129.305 18.2549C106.977 36.4301 90.1322 54.4745 71.8118 76.2607C71.9051 76.0061 72.0126 75.7483 72.073 75.5017C72.5408 73.5925 71.6216 72.8954 70.4468 72.8928C69.4102 72.8906 68.1751 73.4296 67.519 74.1554C65.8466 76.0053 63.1977 79.6407 63.2161 79.6285L66.8754 82.5433L62.105 88.7466L62.4629 92.8648L63.8193 96.618C64.4042 98.0484 108.722 49.3297 109.366 47.5905C116.498 39.9924 131.282 37.1353 143.79 40.6243C159.845 42.9711 170.959 62.5729 169.979 62.7488C171.875 64.0616 173.602 66.3932 176.149 63.7488C181.995 53.0392 163.863 31.7644 152.469 29.4986L161.393 30.7102C145.017 15.5198 159.497 14.7761 168.828 18.5767C173.493 21.0239 173.738 20.3925 174.819 16.043C172.303 8.27622 149.24 2.45291 129.305 18.2549ZM47.6624 72.2781C46.4884 72.2883 45.5122 72.9959 45.7649 74.887C46.2095 78.2142 49.4907 82.8175 49.4907 82.8175L54.2048 79.6257C54.2218 79.6397 52.1007 75.7109 50.6364 73.6922C50.0427 72.8739 48.7653 72.2685 47.6624 72.2781ZM131.842 74.6676C123.694 74.7961 112.426 96.3716 112.596 101.012C112.775 105.915 107.016 126.382 107.016 126.382C123.174 124.442 140.059 117.071 154.825 108.57C155.279 103.309 150.537 92.5825 147.967 81.7006L142.989 91.6051C138.758 90.8035 136.852 78.5455 136.594 78.073C135.261 75.6396 133.627 74.6395 131.842 74.6676Z" fill="#02597D"/>
<path d="M32.0308 34.1309C53.2381 41.2841 78.4989 38.6583 105.978 30.6797C86.2166 47.8696 72.0295 64.9687 57.6599 82.0707L32.0308 34.1309Z" fill="white"/>
<path d="M100.801 32.2597C100.801 32.2597 98.8278 33.7251 95.9397 36.5752C94.0199 38.4698 76.1731 38.7805 74.4203 40.5391C73.3467 41.6163 89.2504 43.8112 86.1159 46.502C83.6325 48.6339 61.0205 73.4228 59.6723 74.0519C58.3241 74.681 51.0356 67.8145 51.0356 67.8145L58.1322 80.9484C74.2539 62.672 90.2838 44.8519 105.496 31.0913L100.801 32.2597Z" fill="#CDCDCD"/>
<path d="M106.683 29.6079C94.7636 34.4363 79.2443 37.008 65.1312 37.554C51.0181 38.0999 38.2816 36.5934 32.049 33.4255L31.7163 34.0854C38.223 37.3926 50.977 38.8388 65.1585 38.2902C79.34 37.7416 94.9196 35.1729 106.961 30.2951L106.683 29.6079ZM101.469 34.6417C89.2538 38.7725 74.501 40.6828 61.6899 40.8807C55.2843 40.9796 49.3609 40.6501 44.4889 39.9645C39.6169 39.279 35.7877 38.2198 33.6142 36.9268L33.2379 37.5649C35.5398 38.9343 39.3863 39.9429 44.178 40.6353C44.326 42.6219 44.3941 44.1725 44.5489 46.0836C43.1288 45.8169 41.6395 45.5869 40.4422 45.2382C40.4057 43.4744 40.3367 41.9693 40.1368 39.5282L39.4006 39.5882C39.5941 41.951 39.6564 43.4034 39.6951 45.0856C39.2578 44.9474 38.5341 44.9147 38.1353 44.7638L37.879 45.4564C38.3617 45.6391 39.2003 45.6795 39.7332 45.8437C39.7339 45.8975 39.7444 45.9581 39.7444 46.0128L40.4861 46.0017C40.4861 45.9999 40.4862 45.9989 40.4861 45.9961C41.7118 46.3445 43.1727 46.5884 44.6037 46.8523C50.3023 47.9033 56.9002 48.5429 64.0243 48.5103C68.4515 48.4907 71.3477 47.8172 75.3953 47.4959C75.3951 47.5015 75.3956 47.507 75.3953 47.5126L76.1316 47.5509C76.1334 47.5171 76.1298 47.4654 76.1316 47.4308C78.1663 47.2588 80.1318 47.1502 81.918 46.9182C81.9165 46.9293 81.9195 46.9461 81.918 46.9564L82.6488 47.0544C82.6571 46.9938 82.6464 46.9145 82.6544 46.8525C84.8208 46.5564 88.2201 46.5817 89.826 46.2145L89.6624 45.4946C89.4309 45.5476 88.8608 45.5356 88.6153 45.5873C88.799 43.5113 88.7331 40.7191 88.8934 38.8247L88.1571 38.7646C87.9865 40.7837 88.0688 43.6597 87.879 45.6527C86.6127 45.9048 84.2412 45.9012 82.6816 46.1163C82.8511 44.0563 82.7883 41.6032 82.8888 39.7791L82.7578 39.7735C89.3103 38.7536 95.8066 37.3394 101.704 35.345L101.469 34.6417ZM82.1468 39.9154C82.0549 41.8364 82.1172 44.2453 81.9449 46.1817C80.1603 46.4157 78.1761 46.5256 76.1312 46.6998C76.2178 44.8187 76.3192 42.4478 76.1536 40.7226L75.4173 40.7935C75.5776 42.4579 75.4827 44.8832 75.395 46.7653C73.0252 46.9549 71.2958 47.262 68.7414 47.3543C68.7423 45.4432 68.7442 43.0676 68.8668 41.3007L68.1306 41.2463C68.0046 43.077 68.0058 45.4984 68.0052 47.4198C66.4678 47.4678 65.5735 47.7672 64.0185 47.7743C63.1687 47.7771 62.4015 47.6691 61.5535 47.6599C61.4515 45.7994 61.6523 43.5582 61.559 41.6117C61.6118 41.6109 61.6481 41.6173 61.7009 41.6173C68.2149 41.5168 75.2158 40.9626 82.1468 39.9157L82.1468 39.9154ZM44.9252 40.7226C46.1563 40.8879 47.8543 40.8318 49.2009 40.9515L49.0537 40.9571C49.1381 43.0238 49.3579 45.0702 49.5337 47.109C47.8636 46.9297 46.7998 46.5013 45.3016 46.2418C45.1368 44.2815 45.071 42.7213 44.9253 40.7227L44.9252 40.7226ZM49.7954 40.9842C53.3063 41.2764 56.7551 41.6036 60.8228 41.5678C60.9197 43.412 60.7181 45.6622 60.8172 47.6268C58.9295 47.5967 57.1485 47.4771 55.3198 47.3761C55.3059 45.4283 55.2249 43.2935 55.1453 41.3988L54.4036 41.4315C54.4829 43.3159 54.5633 45.4247 54.5781 47.3433C53.1564 47.2562 51.6238 47.276 50.2752 47.1414C50.099 45.0809 49.881 43.0305 49.7952 40.9842L49.7954 40.9842Z" fill="#4D4D4D"/>
<path d="M148.704 0.0925402C146.687 0.263708 144.895 0.674291 143.463 1.36871C140.521 2.7951 133.449 7.62668 124.533 14.4794C115.617 21.3321 104.946 30.169 95.1483 39.4738C84.6226 49.47 75.0229 59.9144 68.1306 67.844C64.6845 71.8088 61.9174 75.1442 60.0482 77.4861C59.1473 78.6149 58.4774 79.482 58.014 80.1148L17.5802 6.60972L16.4567 2.63397C16.4438 2.58312 16.4256 2.53378 16.4023 2.4868C16.2325 2.16642 16.0888 2.15954 15.9932 2.11595C15.8974 2.07239 15.8165 2.04502 15.7316 2.02324C15.5615 1.97968 15.3725 1.95147 15.148 1.93053C14.6991 1.88864 14.1209 1.88753 13.4574 1.96879C12.1303 2.13102 10.4655 2.63141 9.07805 3.89395C7.69061 5.15648 6.63281 7.17807 6.49844 10.1548C6.37139 12.9679 7.22126 16.8308 9.10534 21.6949C8.95651 21.7789 8.75554 21.7479 8.63086 21.8585C8.25374 22.1924 7.9377 22.6372 7.64917 23.1674C7.07215 24.2275 6.61815 25.6505 6.41666 27.2304C6.01364 30.3901 6.66154 34.2684 9.84702 36.5889C10.742 37.2409 11.9636 38.2327 12.9938 38.9886C8.93662 45.6354 6.4053 56.0051 4.51877 66.4807C2.61171 77.0702 1.36477 87.7171 0.0139805 94.371C-0.0238303 94.5626 0.0157695 94.7614 0.124099 94.9239C0.232428 95.0864 0.400674 95.1994 0.592074 95.2381C0.7837 95.2777 0.983207 95.2396 1.1468 95.1323C1.31039 95.0249 1.4247 94.857 1.46467 94.6655C2.84122 87.8847 4.07321 77.2719 5.96943 66.7425C7.83374 56.3903 10.393 46.2013 14.1882 39.9048C18.7894 43.3406 23.9064 47.4354 27.5498 52.8792C27.6038 52.9598 27.6732 53.0289 27.754 53.0827C27.8348 53.1364 27.9254 53.1738 28.0206 53.1925C28.1158 53.2113 28.2138 53.211 28.3089 53.1919C28.404 53.1728 28.4945 53.1351 28.5751 53.081C28.6557 53.027 28.7248 52.9576 28.7786 52.8768C28.8323 52.796 28.8696 52.7054 28.8884 52.6102C28.9071 52.515 28.907 52.417 28.8878 52.3219C28.8687 52.2267 28.831 52.1363 28.7769 52.0557C23.7501 44.5447 15.782 39.0863 10.7142 35.3947C8.08714 33.481 7.52428 30.2345 7.88379 27.4159C8.06361 26.0066 8.48346 24.7231 8.94726 23.871C9.1793 23.4449 9.42743 23.1296 9.61262 22.9657C9.79775 22.8017 9.86335 22.8246 9.82538 22.8185C9.9505 22.8291 10.0763 22.8076 10.1908 22.756C10.3053 22.7045 10.4048 22.6246 10.4798 22.524C10.4397 22.6263 10.423 22.7362 10.4307 22.8458C27.0767 45.7758 36.2731 56.0594 44.9799 81.4404C45.011 81.5325 45.0599 81.6176 45.1239 81.6908C45.1878 81.764 45.2656 81.8238 45.3528 81.8669C45.4399 81.9099 45.5347 81.9354 45.6317 81.9417C45.7287 81.9481 45.826 81.9353 45.918 81.904C46.103 81.8402 46.2552 81.7056 46.3411 81.5297C46.4269 81.3539 46.4395 81.1511 46.3761 80.966C37.6052 55.3981 28.248 44.8694 11.6305 21.9786C11.5168 21.8272 11.3493 21.7252 11.1625 21.6937C10.9758 21.6622 10.7841 21.7036 10.627 21.8094C8.53269 16.642 7.85609 12.8886 7.97652 10.2203C8.09687 7.55197 8.97784 5.97924 10.0707 4.98473C11.1637 3.99023 12.5226 3.57147 13.632 3.43588C14.1867 3.36802 14.6789 3.3722 15.0118 3.4032C15.0757 3.40878 15.097 3.41715 15.1481 3.42552L16.1788 7.09591C16.1948 7.14912 16.2167 7.20032 16.2442 7.24862L57.3051 81.8881C57.3247 81.9361 57.3484 81.9912 57.3487 81.9917C57.3497 81.9931 57.6254 82.2363 57.6268 82.2371C57.6284 82.2379 57.9247 82.3134 57.9268 82.3134C57.9288 82.3135 58.0778 82.3078 58.1287 82.2966C58.2536 82.2636 58.3677 82.1984 58.4596 82.1075C58.5514 82.0166 58.6179 81.9031 58.6522 81.7785C58.653 81.7763 58.6578 81.7701 58.6578 81.7673C58.6522 81.7841 58.6563 81.7813 58.6857 81.7347C58.7594 81.614 58.913 81.3877 59.1329 81.0857C59.5726 80.4816 60.2737 79.5683 61.1999 78.4079C63.0522 76.0872 65.8102 72.7656 69.2441 68.8148C76.1119 60.9134 85.6905 50.4996 96.169 40.5482C105.917 31.2905 116.553 22.4777 125.434 15.6521C134.314 8.8264 141.526 3.95087 144.107 2.6995C146.492 1.54307 150.626 1.2164 155.14 1.72328C159.654 2.23017 164.568 3.53437 168.627 5.44272C172.686 7.35108 175.848 9.87637 177.015 12.6253C177.598 13.9997 177.721 15.4218 177.244 16.9828C176.818 18.3763 175.679 19.925 174.113 21.5257C168.671 16.2003 163.156 13.2718 157.621 12.5053C151.794 11.6981 145.992 13.0802 140.251 15.7775C128.769 21.1722 117.433 31.817 106.133 41.3554C106.038 41.4573 105.974 41.584 105.947 41.7208C105.191 42.295 104.518 42.7472 103.477 43.7223C101.884 45.2146 99.9729 47.1369 97.8705 49.3396C93.6659 53.7452 88.6831 59.2678 83.9363 64.6646C79.1895 70.0613 74.6786 75.3309 71.42 79.2205C69.7907 81.1653 68.4766 82.7632 67.597 83.8671C67.1572 84.419 66.8299 84.8459 66.6153 85.1432C66.5081 85.2918 66.4344 85.3973 66.3646 85.525C66.3478 85.5568 66.3252 85.5887 66.3045 85.6395C66.2934 85.6646 66.2822 85.6959 66.2719 85.7378C66.2607 85.7797 66.2439 85.9148 66.2439 85.9176C66.2438 85.9204 66.3358 86.3085 66.3366 86.3103C66.3376 86.312 66.809 86.6752 66.8111 86.6757C66.8132 86.6762 67.0954 86.6924 67.1711 86.6757C67.2467 86.6589 67.2875 86.6385 67.3238 86.6212C67.4174 86.5756 67.5002 86.5107 67.5669 86.4308C67.6337 86.3509 67.6828 86.2579 67.711 86.1577C67.7361 86.1183 67.7537 86.0948 67.8146 86.0105C67.9997 85.7539 68.3198 85.332 68.7526 84.7889C69.6182 83.7026 70.9292 82.1088 72.5539 80.1696C75.8032 76.291 80.3099 71.0281 85.0483 65.6409C89.7868 60.2536 94.7578 54.7405 98.9389 50.3596C101.029 48.1692 102.925 46.2637 104.485 44.8022C106.046 43.3407 107.31 42.3152 107.97 41.95C111.855 39.8007 119.023 36.3816 126.693 34.3802C134.362 32.3787 142.493 31.8288 148.355 35.1492C154.575 38.6728 166.152 47.4509 168.986 63.0394C169.004 63.1409 169.043 63.2375 169.101 63.3231C169.164 63.4169 169.27 63.3865 169.335 63.4758C171.595 70.6881 175.36 80.8642 176.534 89.2719C176.562 89.4656 176.665 89.6404 176.822 89.758C176.978 89.8756 177.175 89.9263 177.369 89.899C177.562 89.8714 177.737 89.768 177.855 89.6115C177.972 89.4551 178.023 89.2584 177.996 89.0646C176.868 80.9903 173.57 71.7825 171.299 64.752C172.044 65.2307 172.678 66.1158 173.491 66.1754C175.12 66.2949 176.727 65.5408 177.925 64.1194C180.14 61.4914 180.785 56.4477 178.858 49.8743C178.945 49.7629 178.999 49.6285 179.013 49.4873C179.026 49.3461 178.999 49.2041 178.934 49.078C178.851 48.9286 178.766 48.8817 178.683 48.7344C178.694 48.6269 178.697 48.5582 178.694 48.4834C178.686 48.2983 178.66 48.0532 178.623 47.7199C178.549 47.0534 178.427 46.0664 178.263 44.8622C177.936 42.4536 177.458 39.1713 176.971 35.8581C176.04 29.5264 175.147 23.6502 175.062 23.0909C175.168 22.9281 175.205 22.7302 175.166 22.5401C176.86 20.8099 178.143 19.0927 178.656 17.4137C179.229 15.536 179.081 13.7038 178.378 12.0472C176.971 8.73393 173.492 6.09911 169.254 4.10656C165.016 2.11403 159.978 0.781176 155.303 0.256279C152.966 -0.00619684 150.721 -0.078375 148.704 0.0926254L148.704 0.0925402ZM157.419 13.9668C162.765 14.7073 168.122 17.4848 173.545 22.949C173.58 23.1738 174.552 29.5629 175.509 36.0707C175.995 39.3813 176.47 42.6663 176.796 45.0638C176.872 45.6227 176.907 45.9269 176.965 46.3782C171.678 37.9006 166.418 32.8783 160.375 30.6006C153.585 28.0419 145.944 28.1308 136.22 27.7756C136.025 27.7689 135.835 27.8397 135.692 27.9725C135.549 28.1054 135.464 28.2895 135.457 28.4846C135.45 28.6797 135.521 28.8695 135.653 29.0126C135.786 29.1557 135.97 29.2403 136.165 29.2481C145.924 29.6045 153.424 29.5561 159.856 31.9804C166.161 34.3565 171.568 39.2309 177.297 49.3177C179.582 56.1588 178.656 60.9623 176.796 63.1702C175.844 64.2992 174.715 64.7844 173.6 64.7026C172.592 64.6286 171.561 63.8931 170.638 62.7066C170.59 62.5522 170.51 62.3178 170.464 62.1667C170.433 62.072 170.383 61.9845 170.318 61.9095C170.252 61.8345 170.172 61.7736 170.082 61.7304C166.793 46.2688 155.381 37.4337 149.085 33.8674C142.662 30.2287 134.17 30.9029 126.322 32.9511C120.748 34.4057 115.95 36.4674 111.94 38.3885C121.649 30.0523 131.33 21.5991 140.877 17.1136C146.448 14.4964 151.95 13.2093 157.419 13.9668H157.419ZM178.159 48.0197C178.266 48.0555 178.373 48.0912 178.372 48.0907C178.371 48.0898 178.491 48.1918 178.519 48.2269C178.575 48.2976 178.585 48.3306 178.595 48.3523C178.514 48.3007 178.423 48.2655 178.328 48.2487C178.273 48.1521 178.215 48.1152 178.159 48.0197ZM58.6412 81.331C58.6579 81.369 58.6794 81.4189 58.6794 81.4181C58.679 81.4162 58.6906 81.5259 58.6906 81.5762C58.6883 81.4922 58.6716 81.4091 58.6414 81.3307L58.6412 81.331ZM66.8217 85.2413C66.891 85.2246 67.1674 85.2418 67.1653 85.2413C67.1652 85.2413 67.1904 85.2609 67.1932 85.2637C67.0285 85.2123 66.851 85.2202 66.6915 85.286C66.7194 85.272 66.7532 85.2581 66.8224 85.2425L66.8217 85.2413ZM111.924 95.2161C111.729 95.2294 111.547 95.3195 111.418 95.4668C111.289 95.614 111.224 95.8063 111.237 96.0015C111.268 96.4695 111.462 98.3653 111.744 101.084C112.026 103.803 112.395 107.283 112.758 110.716C113.485 117.581 114.198 124.257 114.198 124.257C114.219 124.452 114.317 124.63 114.469 124.752C114.621 124.875 114.816 124.932 115.011 124.912C115.205 124.89 115.383 124.793 115.506 124.641C115.629 124.488 115.686 124.293 115.665 124.099C115.665 124.099 114.952 117.427 114.225 110.563C113.862 107.131 113.498 103.649 113.216 100.932C112.935 98.2145 112.729 96.2022 112.709 95.9033C112.696 95.7081 112.606 95.5262 112.459 95.3974C112.311 95.2685 112.119 95.2034 111.924 95.2161Z" fill="#02425C"/>
<path d="M136.978 31.5442C136.788 31.5794 136.618 31.7143 136.52 31.866L137.142 32.2641C137.158 32.239 137.13 32.2697 137.109 32.2753C137.087 32.2781 137.11 32.2641 137.174 32.2976C137.303 32.361 137.557 32.5763 137.85 32.9193C138.438 33.6055 139.22 34.7918 140.108 36.3279C141.884 39.4002 144.102 43.8821 146.293 48.7351C148.483 53.5881 150.648 58.8153 152.325 63.4001C154.001 67.9849 155.186 71.9488 155.422 74.1657L156.088 74.0895C155.43 74.4929 154.798 75.0009 154.157 75.4911C154.331 75.2046 154.354 74.9065 154.315 74.4931C154.271 74.0254 154.153 73.4346 153.977 72.7261C153.625 71.309 153.032 69.4215 152.264 67.2287C150.729 62.8432 148.5 57.2313 146.162 51.773C143.823 46.3146 141.374 41.0117 139.388 37.2388C138.395 35.3524 137.523 33.8519 136.82 32.8868C136.468 32.4042 136.166 32.0548 135.86 31.8396C135.707 31.7321 135.544 31.6484 135.336 31.6486C135.128 31.6489 134.913 31.7841 134.807 31.9486L135.429 32.3522C135.437 32.3382 135.366 32.3848 135.336 32.3848C135.306 32.3849 135.35 32.3859 135.434 32.4449C135.602 32.5627 135.89 32.8705 136.22 33.3229C136.879 34.2277 137.749 35.7113 138.734 37.5823C140.704 41.3242 143.153 46.6214 145.486 52.0673C147.819 57.5132 150.039 63.1132 151.567 67.4741C152.33 69.6545 152.921 71.524 153.263 72.9005C153.434 73.5888 153.54 74.1543 153.579 74.5584C153.617 74.9626 153.522 75.2025 153.568 75.1474L154.07 75.5674C152.775 76.5675 151.48 77.5683 150.263 78.9378C143.798 86.2138 138.464 98.7805 134.878 118.03L135.609 118.166C139.181 98.9897 144.496 86.539 150.814 79.4285C157.132 72.318 164.404 70.4949 172.138 72.5078L172.323 71.7933C166.666 70.3209 161.185 70.9978 156.153 74.0621C155.896 71.6812 154.698 67.7474 153.017 63.1492C151.333 58.5419 149.161 53.2977 146.963 48.4296C144.766 43.5616 142.544 39.0731 140.746 35.9624C139.847 34.4071 139.062 33.1976 138.412 32.4393C138.087 32.0602 137.805 31.7894 137.496 31.6376C137.341 31.5617 137.168 31.5098 136.978 31.5449L136.978 31.5442ZM5.22171 69.213L4.87267 69.862C9.07584 72.106 12.5315 76.2618 15.0875 82.7436C17.6435 89.2255 19.2871 98.0267 19.8595 109.489L20.6012 109.45C20.0262 97.9369 18.3745 89.0641 15.7746 82.4709C13.1747 75.8776 9.61106 71.5563 5.22171 69.2129V69.213ZM4.7636 71.2745L4.38184 71.9071C12.0559 76.5259 17.1199 87.9608 18.4797 108.632L19.2159 108.583C17.8495 87.81 12.7743 76.0958 4.7636 71.2744V71.2745ZM167.251 73.0797C161.679 73.1238 156.448 75.558 151.839 80.7694C145.694 87.718 140.603 99.5671 136.967 117.337L137.692 117.484C141.314 99.7841 146.393 88.0421 152.396 81.2547C158.398 74.4673 165.272 72.5913 172.743 74.5357L172.929 73.8158C171.005 73.3152 169.109 73.0649 167.251 73.0796V73.0797Z" fill="#02425C"/>
<path d="M57.0464 85.1103C54.4836 81.2461 49.2527 72.0761 48.4144 77.5727C47.9432 80.6625 53.5402 87.7107 53.5402 87.7107L51.8503 92.6599C51.1282 99.2572 49.3577 106.693 51.326 111.138C51.6961 113.265 51.7115 115.576 53.0534 117.196L55.0896 116.165C54.1473 114.729 53.5819 113.544 53.2453 110.533L54.0364 110.204C54.1749 104.92 52.9441 101.145 54.5747 93.9091C54.68 95.193 56.5163 94.1046 57.6268 93.7801C60.779 96.9378 61.1834 104.072 62.6122 109.724L63.5531 110.869L63.4571 115.168L65.2289 115.932L66.0153 109.455C66.7554 102.293 63.5532 98.4226 62.13 93.0671C64.6457 93.4176 62.6571 90.1089 62.5045 88.2917L70.0551 77.98C69.2545 72.6108 66.0178 77.9418 63.5905 79.7176L59.7426 84.8046L57.0464 85.1103Z" fill="white"/>
<path d="M65.1378 78.528C63.4105 80.0858 60.1899 84.7139 60.1899 84.7139C60.1899 84.7139 61.6243 87.7039 61.9402 87.8538C62.2556 88.0036 62.2303 87.6763 62.2303 87.6763L60.8479 84.5004C60.8479 84.5004 65.9547 78.1883 66.6241 78.0624C67.8321 77.0959 68.945 77.9234 69.1219 78.9017C69.1219 78.9017 70.9494 76.4189 69.1682 75.8706C66.8454 75.8959 66.1051 77.6293 65.1378 78.528ZM48.8425 76.6117C48.0573 76.6276 48.3697 77.6518 48.8151 79.0676C49.1811 81.5241 51.1982 85.4174 53.4066 87.6561C53.1909 88.2977 52.2724 88.9663 52.2291 89.8653C51.9294 90.9717 51.6862 92.2476 52.3171 93.2866C52.4326 94.2821 51.8206 95.229 51.9463 96.236C51.99 97.1239 53.1043 97.7518 53.8856 97.3817C54.5385 96.8136 54.4346 95.8356 54.5061 95.0513C54.904 93.965 53.7361 93.7296 55.8019 94.174C56.9754 94.4221 56.8737 94.3086 57.7023 93.2967C57.7332 93.2595 57.7598 93.2248 57.7845 93.1913C58.0077 93.5755 59.4729 96.1407 60.0803 98.3153C60.738 100.67 62.9633 109.439 62.9633 109.439L63.78 110.612L63.4698 115.233L64.4683 115.23L64.6977 109.142C64.6977 109.142 62.2087 102.937 61.4597 98.5692C60.7108 94.2012 62.1509 93.5073 62.1509 93.5073L62.112 93.1292C62.112 93.1292 60.4553 92.8987 58.6835 92.4583C57.9307 92.2711 57.6479 92.3617 57.571 92.5276C57.3245 92.4647 57.0092 92.4239 56.7774 92.2995C56.161 91.8603 55.5473 91.1541 55.7154 90.3458C55.3213 90.836 54.7464 90.6009 54.5437 90.0529C54.2001 88.8986 54.7608 87.7412 54.7991 86.584C54.3779 86.9766 53.9978 86.3845 53.7602 86.0948C52.4507 84.6824 51.1624 83.1927 50.4024 81.3994C49.6915 79.8975 49.5786 78.2167 49.1225 76.6405C49.0167 76.6199 48.9238 76.61 48.8425 76.6117L48.8425 76.6117Z" fill="#CDCDCD"/>
<path d="M69.3251 75.2175C68.9379 75.1374 68.5488 75.2471 68.1471 75.4303C67.7453 75.6135 67.3212 75.8845 66.8927 76.2047C66.0358 76.8451 65.1488 77.6892 64.4222 78.4407C63.6955 79.1922 63.1457 79.8282 62.9279 80.1314C61.7527 81.7663 60.8457 82.9214 59.7265 84.4671C59.6844 84.4587 59.6754 84.4179 59.6229 84.4179C57.6954 84.4179 55.5108 85.5826 53.8638 87.1938C53.8041 87.2522 53.7803 87.3304 53.722 87.3902C52.74 86.3167 51.1559 84.2531 49.9698 81.9965C49.318 80.7564 48.8102 79.5225 48.6337 78.5442C48.5454 78.0551 48.5404 77.6325 48.6169 77.3117C48.694 76.9908 48.8392 76.7786 49.0859 76.6191C49.7062 76.2183 50.1556 76.2734 50.722 76.647C51.2885 77.0199 51.902 77.7665 52.5218 78.7139C53.7614 80.6089 55.043 83.266 56.6011 85.2529L57.1847 84.8003C55.7037 82.9117 54.4272 80.2727 53.1435 78.3104C52.5016 77.3292 51.8624 76.5122 51.1311 76.0307C50.3997 75.5493 49.5061 75.4657 48.6824 75.9981C48.2706 76.2642 48.0139 76.6789 47.9025 77.1433C47.7911 77.6077 47.8078 78.1264 47.9081 78.6813C48.1083 79.7911 48.6434 81.0627 49.3151 82.3407C50.5625 84.7139 52.2 86.8725 53.269 88.0126C52.0232 89.4943 51.1471 91.2087 51.5239 92.8882L51.5565 93.0354L51.6875 93.1172C51.7796 93.1739 51.7782 93.1889 51.862 93.2425C51.1513 95.7856 50.4151 99.1094 50.0568 102.317C49.6963 105.545 49.6964 108.637 50.5476 110.738V110.744C50.6222 110.916 50.8065 110.943 50.9458 111.033C51.1237 113.316 51.3048 115.757 52.8001 117.446L52.9799 117.653L53.2306 117.533C53.9066 117.21 54.7155 116.898 55.3194 116.666L55.7393 116.503L55.4995 116.121C54.5235 114.562 54.0193 113.284 53.787 112.352C53.6709 111.886 53.6251 111.505 53.6178 111.229C53.6172 111.204 53.6234 111.209 53.6234 111.185C53.7169 111.141 53.8152 111.104 53.8959 111.033C54.0202 110.923 54.1274 110.748 54.1358 110.547C54.4208 103.812 53.8376 98.3009 55.0575 94.5842C55.2367 94.6841 55.4055 94.8249 55.5974 94.8405C55.9193 94.8656 56.2317 94.7804 56.5191 94.6386C56.8215 94.4895 57.0805 94.1926 57.3589 93.9515C60.3476 98.0562 60.8489 103.921 62.36 109.685L62.3823 109.756L62.4259 109.816C62.5878 110.031 62.9243 109.947 63.1567 110.078C63.3044 111.92 63.2399 113.3 63.0475 115.412L63.0196 115.717L63.3141 115.799C63.6168 115.886 64.125 115.988 64.5466 116.061C64.7574 116.097 64.9417 116.126 65.0647 116.142C65.1261 116.151 65.1384 116.156 65.2392 116.154C65.2532 116.153 65.2925 116.148 65.2937 116.148C65.2943 116.148 65.3531 116.131 65.3537 116.131C65.3541 116.131 65.4626 116.071 65.4629 116.071C65.463 116.071 65.5391 115.984 65.5391 115.984C65.5392 115.984 65.5936 115.837 65.5936 115.837C65.5936 115.837 65.588 115.684 65.588 115.684C65.588 115.684 65.5824 115.667 65.5768 115.656C66.0846 114.489 66.2846 113.154 66.3021 111.97C66.3217 110.698 66.2078 109.571 66.2259 109.248L66.1332 109.243C66.2552 109.045 66.5278 109.073 66.5968 108.823C66.9387 107.582 66.6867 105.645 66.3077 103.74C65.9289 101.835 65.3983 100.008 65.0697 99.1096C64.3828 97.2312 63.4613 95.4681 62.4356 93.7486C62.4607 93.7514 62.4934 93.7569 62.5174 93.7597C62.5995 93.7653 62.678 93.7653 62.7628 93.7541C62.8477 93.743 62.9533 93.729 63.0683 93.6232C63.5009 93.2204 63.7023 92.6556 63.75 92.0689C63.7977 91.4821 63.6994 90.8596 63.5045 90.2746C63.3096 89.6896 63.0197 89.1445 62.6592 88.7094C62.6249 88.6678 62.5696 88.6672 62.5339 88.6276C63.5752 87.3592 65.2924 85.2961 66.8805 83.2066C67.7167 82.1064 68.4994 81.025 69.0947 80.0925C69.6899 79.16 70.1093 78.4176 70.1963 77.8074C70.3033 77.0567 70.2952 76.4994 70.1636 76.0622C70.0318 75.6251 69.711 75.297 69.3237 75.2169L69.3251 75.2175ZM69.1723 75.9428C69.3075 75.9708 69.3823 76.0129 69.4613 76.2755C69.5404 76.538 69.5602 77.012 69.4613 77.7044C69.4164 78.0192 69.0509 78.7916 68.4742 79.695C67.8975 80.5983 67.122 81.6689 66.2928 82.76C64.6996 84.8562 62.9578 86.9588 61.9189 88.2246C61.8658 88.1922 61.8158 88.1534 61.7608 88.1263C61.7918 87.9909 61.8049 87.8691 61.7832 87.7555C61.7538 87.6066 61.7058 87.4459 61.6413 87.2701C61.5126 86.9184 61.3246 86.5073 61.1123 86.1084C60.9001 85.7096 60.667 85.3239 60.4415 85.0231C60.4035 84.9726 60.3644 84.938 60.327 84.8922C61.4373 83.3588 62.3418 82.2127 63.5283 80.5619C63.6813 80.3488 64.2481 79.6864 64.9572 78.9531C65.6663 78.2197 66.5372 77.3992 67.3405 76.7989C67.7421 76.4987 68.1262 76.2552 68.453 76.1062C68.7799 75.9574 69.0379 75.9147 69.1729 75.9426L69.1723 75.9428ZM59.6228 85.1596C59.5103 85.1596 59.5469 85.1345 59.6061 85.1875C59.6656 85.2411 59.7513 85.3392 59.8459 85.4657C60.0355 85.7184 60.2579 86.0846 60.4568 86.4582C60.6556 86.8319 60.8359 87.2167 60.9476 87.5217C60.9881 87.632 61.0032 87.7144 61.0238 87.7945C59.7908 88.0277 58.6874 88.1767 57.7789 88.5035C56.7787 88.8632 55.9521 89.482 55.4011 90.6195C54.7041 91.6574 54.3143 92.4719 54.0976 93.0464C53.987 93.3396 53.9183 93.574 53.8686 93.7445C53.8547 93.7333 53.8575 93.7417 53.8407 93.7278C53.5676 93.5142 53.0128 93.1024 52.2592 92.6206C51.961 91.0454 52.8758 89.19 54.3806 87.7177C55.917 86.2148 58.0024 85.16 59.6216 85.16L59.6228 85.1596ZM61.2426 88.5027L61.2314 88.5845C61.4878 88.6256 61.8046 88.8308 62.0931 89.179C62.3816 89.5273 62.6335 90.0039 62.8021 90.5097C62.9708 91.0155 63.052 91.5505 63.0149 92.0095C62.9797 92.4425 62.8314 92.7792 62.595 93.0239C62.5894 93.0235 62.5894 93.0244 62.5838 93.0239C62.4793 93.0155 62.3132 92.9836 62.1147 92.942C62.0924 92.9364 62.0556 92.9309 62.0329 92.9253C61.9986 92.8722 61.9857 92.8091 61.9511 92.7561L61.7822 92.8652C61.4326 92.7862 61.0612 92.7027 60.6314 92.6145C60.0772 92.5006 59.5005 92.4023 58.9735 92.3964C58.461 92.3908 57.9749 92.4701 57.6265 92.8054C57.6153 92.8138 57.598 92.8065 57.5882 92.8166C57.0996 93.3204 56.6049 93.7745 56.1921 93.9782C55.9857 94.0801 55.8068 94.1159 55.6576 94.1036C55.5085 94.0924 55.3722 94.0413 55.2049 93.8799L55.0687 94.0218L54.6105 93.8473C54.656 93.6945 54.7057 93.5319 54.7906 93.3074C54.9922 92.7726 55.3448 92.0089 56.0395 90.9841L56.0563 90.9617L56.0674 90.9394C56.5434 89.9567 57.1508 89.5107 58.0307 89.1942C58.8469 88.9007 59.9552 88.749 61.243 88.5016L61.2426 88.5027ZM58.963 93.1329C59.4027 93.1385 59.9506 93.2248 60.4846 93.3348C60.8628 93.4127 61.1968 93.4931 61.5317 93.5694C62.6831 95.397 63.632 97.32 64.3785 99.3612C64.6829 100.194 65.213 102.024 65.5838 103.888C65.9545 105.752 66.1411 107.694 65.8837 108.627C65.6642 109.423 65.1209 109.778 64.5203 109.87C63.9327 109.961 63.3343 109.733 63.0478 109.38C61.5866 103.739 61.0954 97.8009 57.9322 93.4876C57.9914 93.4278 58.0587 93.3954 58.1176 93.3348C58.2218 93.2273 58.5232 93.1282 58.963 93.1329ZM52.5221 93.7001C52.8037 93.9037 53.2243 94.1862 53.3838 94.3109C53.5405 94.4335 53.6351 94.5201 53.7983 94.589C53.8798 94.6237 54.0088 94.655 54.1473 94.6114C54.2479 94.5793 54.2937 94.5092 54.3436 94.4478C53.0648 98.4275 53.6759 103.882 53.4001 110.482C53.3806 110.498 53.3197 110.529 53.253 110.558L53.0022 110.433C52.9771 110.482 52.9911 110.56 52.9743 110.612C52.8012 110.651 52.6326 110.699 52.418 110.705C52.1441 110.713 51.8766 110.674 51.6545 110.623C51.6522 110.594 51.635 110.576 51.6322 110.547L51.4468 110.558C51.3488 110.508 51.2259 110.448 51.2287 110.455C50.4768 108.595 50.4382 105.57 50.7924 102.399C51.1345 99.3362 51.8392 96.1809 52.5212 93.7008L52.5221 93.7001ZM65.5074 109.81C65.5242 110.376 65.5761 111.008 65.5619 111.959C65.5451 113.1 65.3524 114.349 64.9074 115.368C64.8262 115.354 64.7717 115.345 64.6729 115.329C64.3606 115.276 64.0507 115.205 63.7894 115.144C63.9466 113.344 63.9982 111.956 63.8876 110.334C64.1632 110.38 64.346 110.645 64.6293 110.601C65.0038 110.544 65.1832 110.051 65.5074 109.81L65.5074 109.81ZM52.893 111.365C52.9097 111.691 52.9516 112.062 53.0675 112.526C53.2968 113.447 53.8681 114.711 54.6981 116.12C54.2559 116.292 53.7751 116.495 53.2856 116.715C52.2301 115.383 52.0292 113.388 51.8568 111.381C52.0522 111.403 52.2402 111.447 52.4403 111.441C52.6023 111.435 52.7387 111.387 52.893 111.365V111.365Z" fill="#333333"/>
</svg>
