<svg width="202" height="158" viewBox="0 0 202 158" fill="none" xmlns="http://www.w3.org/2000/svg">
<path d="M52.7491 47.5775C61.9387 69.576 83.6474 97.5974 88.4161 102.499C107.881 82.0393 136.066 62.0446 165.076 17.876L166.052 19.2851C149.716 49.8219 116.195 77.2507 88.9797 105.792C75.4112 92.8184 62.4072 73.0587 49.7808 51.5174L52.7491 47.5775Z" fill="#CCCCCC"/>
<path d="M86.98 108.046C104.551 88.4801 182.862 23.9195 165.332 1.98387C166.915 1.74115 167.996 1.43862 168.856 1.38835C172.614 1.04307 177.349 0.307944 179.633 2.90343C193.716 18.9071 195.01 48.6166 201 53.7043C194.394 56.1836 188.553 57.5672 183.177 58.2832C183.877 74.5335 188.047 89.9183 193.849 118.868C151.146 161.599 78.2728 174.945 21.0903 123.659C20.8236 111.645 31.4869 94.0882 34.0836 60.1976C16.2534 59.6128 20.5843 63.0181 1 56.0374C15.982 46.1112 15.525 28.8281 27.1061 15.8042C29.4972 14.0892 35.5118 10.6452 37.7315 13.0555C35.2039 21.1313 34.0049 29.5958 55.8385 62.0633C75.4798 92.9599 81.6549 97.0614 104.24 124.834L95.4836 155.228" fill="#333333"/>
<path d="M167.33 1.78245C166.242 1.7754 165.352 1.93657 165.352 1.93657C177.743 19.5009 131.511 63.4746 131.379 64.0295L140.516 57.48C140.516 57.48 165.657 30.0524 168.126 27.3581C173.487 20.7487 176.812 15.1096 170.496 2.63543C169.704 1.96469 168.418 1.7895 167.33 1.78245ZM35.6022 12.7926C27.288 12.6969 21.4476 16.4726 18.6638 28.3497C18.6638 28.3497 22.8791 22.36 27.374 22.4544C36.8913 22.6544 41.4425 57.3785 41.4344 57.3772C47.9475 56.4649 54.3592 56.4451 59.5342 67.3203C50.6948 48.8019 30.4896 40.1304 37.7711 12.9768C37.03 12.8615 36.3068 12.8007 35.6022 12.7926ZM191.72 38.8792C190.585 39.5105 186.65 42.2924 182.186 42.8591C175.9 43.6572 173.649 46.1204 172.858 47.0077C167.573 52.934 193.872 51.7067 195.195 50.502L191.72 38.8792ZM16.6726 39.578L8.15283 52.2991C8.15283 52.2991 23.1658 52.786 26.911 52.2758C30.6562 51.7657 28.8131 49.3503 26.5445 48.3938C24.2758 47.4373 16.6726 39.578 16.6726 39.578ZM141.537 57.9103C143.743 62.0251 142.713 62.268 147.501 69.7736C155.613 70.1053 167.702 71.1076 178.681 69.7881C181.827 89.637 190.234 115.929 184.871 126.947C184.871 126.947 194.049 120.517 193.904 119.581C193.76 118.65 183.495 66.9682 183.385 66.4198L182.617 58.8796L141.537 57.9103ZM48.5837 60.13L34.5082 60.48C33.5335 83.4459 23.3053 108.019 20.9192 123.368C30.3823 131.628 39.9155 139.174 50.4885 143.032C41.8563 133.883 39.5355 128.923 40.8591 107.15C51.8616 112.259 75.1965 115.983 99.1297 127.093C100.638 127.793 90.909 155.022 84.0854 154.407L95.0609 156.128L103.104 129.721L104.193 125.786C72.3123 107.49 46.9524 108.925 32.5657 97.2153C32.5781 96.7773 32.5584 96.3513 32.4466 96.0231C40.5371 94.6244 37.5167 75.0417 48.5837 60.13ZM145.299 72.5865C146.833 75.8512 132.122 84.5638 129.357 85.0361C129.357 85.0361 124.325 90.6998 132.774 89.3243C136.658 88.6919 153.466 86.6912 153.046 84.8898C152.638 83.1427 145.729 73.2043 145.299 72.5865ZM42.8301 78.7279C40.4839 83.9109 43.1877 92.458 35.2706 95.1527C35.2706 95.1527 46.4193 96.4037 50.9842 97.5197C55.5491 98.6357 62.576 94.566 62.957 93.1569C63.3381 91.7478 53.103 86.1449 50.0775 84.9838C47.052 83.8227 43.1959 79.7313 42.8301 78.7279ZM104.548 90.7133C100.194 94.6108 89.6061 105.402 89.1228 105.447C88.73 105.483 81.3311 96.3851 77.228 93.09C80.3198 96.1711 96.794 118.863 83.2383 112.467L104.233 124.519L109.329 107.464L117.419 105.469L105.026 156.384C111.246 155.642 116.724 157.268 125.295 154.691C117.04 143.926 119.406 119.366 121.471 103.468C121.471 103.468 153.567 97.6172 154.213 97.5294C154.819 97.4472 156.468 93.9179 157.173 93.6018C139.443 96.0784 121.689 98.7999 110.769 102.902L110.562 103.343L110.758 102.686C110.758 102.686 104.633 104.022 100.587 108.034C100.247 108.37 99.7093 107.552 99.2211 106.143C99.0187 105.558 114.265 99.7489 114.098 99.0008C97.4664 102.016 97.5631 99.5577 104.548 90.7133ZM157.24 93.5815C157.219 93.5844 157.198 93.5908 157.175 93.6009C157.217 93.595 157.259 93.5893 157.301 93.5835C157.282 93.5785 157.262 93.5785 157.24 93.5815ZM153.746 102.912L148.31 148.219C154.444 147.757 172.998 135.828 172.998 135.828C172.998 135.828 164.744 136.325 162.068 131.67C156.302 121.641 153.516 102.467 153.746 102.912Z" fill="#1A1A1A" stroke="#1A1A1A" stroke-width="0.320599"/>
<path d="M183.638 40.1213C182.567 40.1318 181.564 40.5493 180.793 41.3056C180.021 42.062 179.527 43.1122 179.391 44.2844C179.232 45.6567 179.576 47.0921 180.346 48.2751C181.117 49.4581 182.251 50.2917 183.5 50.5926C184.749 50.8935 186.01 50.6368 187.006 49.8792C188.002 49.1215 188.651 47.9249 188.81 46.5526C188.889 45.8731 188.845 45.1709 188.682 44.4861C188.518 43.8012 188.237 43.1472 187.856 42.5613C187.474 41.9755 186.999 41.4693 186.458 41.0716C185.917 40.6739 185.32 40.3925 184.701 40.2434C184.349 40.1587 183.992 40.1177 183.638 40.1213ZM20.36 42.4942C19.1728 42.5264 17.9821 43.0663 17.0267 44.0058C16.0714 44.9452 15.4219 46.2147 15.2086 47.5597C14.9842 48.9736 15.2596 50.3581 15.974 51.4087C16.6884 52.4594 17.7834 53.0902 19.0181 53.1622C19.6295 53.1979 20.2568 53.0954 20.8642 52.8604C21.4716 52.6254 22.0472 52.2627 22.5581 51.7928C23.069 51.323 23.5053 50.7553 23.8419 50.1221C24.1786 49.4889 24.409 48.8026 24.5201 48.1025C24.7445 46.6887 24.4691 45.3041 23.7547 44.2535C23.0403 43.2028 21.9453 42.572 20.7106 42.5C20.5944 42.493 20.4775 42.4911 20.36 42.4942ZM140.26 78.4047C139.19 78.4149 138.187 78.8322 137.415 79.5884C136.644 80.3445 136.149 81.3947 136.013 82.5668C135.934 83.2464 135.978 83.9487 136.142 84.6336C136.306 85.3184 136.586 85.9725 136.968 86.5584C137.35 87.1442 137.825 87.6504 138.366 88.0481C138.907 88.4458 139.504 88.7271 140.123 88.876C141.372 89.1768 142.633 88.9202 143.629 88.1625C144.625 87.4049 145.274 86.2083 145.433 84.836C145.512 84.1564 145.468 83.4541 145.304 82.7692C145.14 82.0844 144.86 81.4303 144.478 80.8444C144.096 80.2585 143.621 79.7523 143.08 79.3547C142.539 78.957 141.942 78.6757 141.323 78.5268C140.971 78.4421 140.614 78.4011 140.26 78.4047ZM49.2198 85.4447C48.0327 85.4769 46.8421 86.0167 45.8868 86.9559C44.9315 87.8951 44.2819 89.1644 44.0684 90.5092C43.9573 91.2094 43.9677 91.9097 44.0991 92.5702C44.2305 93.2307 44.4802 93.8384 44.834 94.3586C45.1879 94.8789 45.6389 95.3015 46.1613 95.6023C46.6837 95.9031 47.2673 96.0762 47.8787 96.1118C49.1134 96.1836 50.3866 95.6909 51.4183 94.742C52.4499 93.7932 53.1556 92.4659 53.3799 91.0521C53.6043 89.6382 53.3289 88.2537 52.6145 87.203C51.9001 86.1523 50.8051 85.5216 49.5704 85.4495C49.4542 85.4429 49.3373 85.4412 49.2198 85.4445V85.4447Z" fill="#E6E6E6" stroke="#CCCCCC" stroke-width="1.28239" stroke-linecap="round" stroke-linejoin="round"/>
<path d="M34.1074 94.3887L32.0928 95.4801C40.5867 110.238 83.6063 108.855 103.478 126.234C104.133 126.807 104.509 128.324 104.509 128.324L104.613 129.646L106.344 130.301L100.586 150.563L99.2456 155.311L101.916 155.295L116.122 100.868L114.119 101.268L106.653 129.056C105.019 120.521 85.8224 114.095 68.0214 108.914C51.5586 104.122 36.4323 100.518 34.1074 94.3897V94.3887ZM153.111 102.002C152.838 101.998 152.685 102.059 152.06 102.167L146.428 149.939L148.65 149.178L153.863 102.083C153.483 102.03 153.275 102.004 153.111 102.002ZM150.767 102.177C150.493 102.173 150.342 102.235 149.717 102.343L144.084 150.114L146.306 149.354L151.518 102.257C151.139 102.205 150.931 102.179 150.767 102.177ZM54.132 108.132C53.8585 108.128 53.7066 108.189 53.082 108.297L49.1911 142.696L50.7956 143.627L54.8844 108.213C54.5044 108.16 54.2962 108.135 54.132 108.132ZM56.015 109.093C55.7414 109.089 55.5896 109.149 54.9649 109.258L51.0749 143.657L52.6785 144.588L56.7673 109.173C56.3873 109.121 56.1791 109.095 56.015 109.093Z" fill="#E6E6E6" stroke="#999999" stroke-width="0.320599"/>
<path d="M104.186 124.653L110.904 103.407M34.0844 60.1983C31.4877 94.0888 20.9156 111.071 21.1823 123.086C79.2436 175.949 154.231 160.641 193.722 119.376C187.76 89.624 183.624 75.2176 183.137 58.6655M103.597 127.263L95.4845 155.229M94.2889 112.496C109.543 98.0542 135.158 97.9048 156.872 93.0646C156.523 79.5749 147.028 74.4943 141.504 57.7043C161.217 56.5413 175.392 63.3156 201 53.7046C195.01 48.617 193.716 18.9075 179.633 2.90392C176.822 -0.29054 170.753 1.41202 165.941 1.80433L165.949 3.14934C179.738 25.4333 106.356 86.6491 88.7848 106.215L94.2889 112.496ZM103.503 127.056C86.7689 110.078 39.922 111.302 31.9179 96.2289C41.5173 91.9368 37.4604 74.7322 48.8756 60.0935C25.165 58.6837 22.8784 63.5269 1.00098 56.038C15.983 46.1119 13.9903 29.0715 25.5714 16.0475C28.0696 13.2381 33.8834 12.3426 37.6148 13.0614C35.1979 21.4054 33.8043 29.943 55.8394 62.0636C72.4195 88.145 79.4039 95.1325 94.764 113.383C97.5999 116.752 100.783 119.884 104.303 124.213L103.503 127.056Z" stroke="black" stroke-width="1.92359" stroke-linecap="round" stroke-linejoin="round"/>
<path d="M153.781 101.692L148.249 101.75L148.312 108.14L150.111 108.119L147.84 119.073C146.443 124.951 155.988 125.229 155.475 119.672L152.738 108.051L154.184 108.059L153.781 101.692ZM51.4065 108.686L51.2656 115.075L53.0638 115.131L50.4461 125.98C48.8632 131.795 58.392 132.479 58.0559 126.904L55.6916 115.174L57.1367 115.243L56.9362 108.865L51.4065 108.686ZM151.817 117.946C152.619 117.943 153.374 118.169 153.939 118.58C154.504 118.99 154.839 119.557 154.88 120.171C154.901 120.499 154.839 120.832 154.695 121.15C154.551 121.467 154.329 121.764 154.041 122.023C153.754 122.282 153.406 122.498 153.019 122.659C152.631 122.819 152.211 122.922 151.783 122.96C150.918 123.037 150.071 122.847 149.428 122.433C148.785 122.018 148.399 121.413 148.355 120.751C148.321 120.235 148.496 119.713 148.856 119.257C149.217 118.801 149.745 118.433 150.368 118.203C150.712 118.077 151.079 117.995 151.451 117.962C151.573 117.951 151.695 117.946 151.817 117.946ZM54.0896 125.024C54.5189 125.004 54.9463 125.05 55.3473 125.157C55.7483 125.265 56.1151 125.432 56.4267 125.651C56.7383 125.87 56.9887 126.135 57.1634 126.431C57.3382 126.727 57.434 127.049 57.4453 127.378C57.4566 127.707 57.3833 128.036 57.2294 128.348C57.0756 128.659 56.8443 128.946 56.5487 129.193C56.2531 129.439 55.8991 129.64 55.5068 129.784C55.1145 129.929 54.6917 130.013 54.2624 130.033C53.3954 130.073 52.5549 129.847 51.9258 129.406C51.2966 128.964 50.9303 128.343 50.9074 127.679C50.8895 127.162 51.0809 126.648 51.4555 126.208C51.83 125.767 52.3693 125.422 52.9992 125.219C53.3476 125.107 53.7164 125.041 54.0896 125.024ZM104.309 129.23L102.396 135.935L104.282 136.657L98.5187 147.165C95.2393 152.73 105.127 156.968 106.311 150.948L107.049 137.672L108.558 138.278L110.107 131.459L104.309 129.23ZM101.429 147.302C101.828 147.312 102.237 147.378 102.636 147.497C103.095 147.635 103.535 147.84 103.929 148.102C104.324 148.363 104.665 148.676 104.934 149.022C105.203 149.368 105.395 149.74 105.498 150.118C105.601 150.496 105.613 150.871 105.535 151.223C105.456 151.575 105.287 151.897 105.039 152.17C104.79 152.442 104.466 152.661 104.086 152.812C103.705 152.964 103.275 153.046 102.82 153.054C102.366 153.062 101.895 152.995 101.436 152.858C100.976 152.72 100.537 152.515 100.143 152.253C99.7483 151.992 99.4068 151.679 99.1376 151.333C98.8684 150.987 98.6769 150.615 98.5739 150.237C98.4708 149.859 98.4584 149.484 98.5372 149.132C98.661 148.578 99.0055 148.105 99.5233 147.777C100.041 147.45 100.707 147.284 101.429 147.302Z" fill="#CCCCCC" stroke="#4D4D4D" stroke-width="0.641195"/>
<path d="M36.3088 15.8396C36.1272 14.9184 27.0054 11.8082 21.4805 26.6071C15.5002 42.6256 13.3646 47.7216 6.0249 55.1159C21.2625 59.3591 33.7729 55.6079 52.6537 57.9138L53.8728 60.5504C41.03 67.5215 43.6915 92.2312 35.992 96.4379C44.774 106.622 78.6913 105.963 101.945 122.509L104.219 124.884M166.73 3.47711C170.42 2.87533 179.635 0.885529 187.197 22.8726C191.851 36.4059 193.107 44.7887 196.038 52.4555C182.831 59.0756 163.112 56.0152 141.22 54.6108L139.144 57.2699C143.948 75.1502 154.268 80.273 154.392 91.1678C151.639 93.0682 112.647 93.8164 93.0005 110.708M118.452 100.987C113.564 119.685 109.156 138.125 105.374 156.228L118.452 100.987Z" stroke="black" stroke-width="1.28239"/>
</svg>
