<svg width="180" height="124" viewBox="0 0 180 124" fill="none" xmlns="http://www.w3.org/2000/svg">
<path d="M149.334 5.45801C118.682 40.2577 97.013 80.2806 75.2631 120.257C101.488 128.626 147.33 116.881 179.981 76.2185L160.172 25.6835L161.66 23.2462C158.419 15.2938 155.01 7.73043 149.334 5.45801ZM22.3605 29.6314L14.1152 60.2274L12.856 96.2932C22.1814 106.014 29.8189 107.935 37.7489 111.865C34.543 87.4889 31.7009 61.2263 22.3605 29.6314Z" fill="#4D4D4D"/>
<path d="M145.821 0.574219L81.3318 28.3004L47.2111 42.8813L30.2505 59.2072L37.2102 110.243L76.2658 122C74.6051 114.611 124.581 31.6183 148.175 5.46755C148.845 4.72473 145.821 0.574219 145.821 0.574219ZM131.095 89.3157L123.497 97.4231L126.635 101.027L130.11 98.9631L133.242 105.253L144.533 105.303L131.095 89.3157Z" fill="#F7FBFF"/>
<path d="M19.0672 19.1953L8.82253 36.0662L11.9937 51.4814L1.04102 84.9148C6.18408 90.808 11.2341 96.2946 18.0346 101.026C17.2874 94.0517 15.6117 85.4562 16.9299 73.2228L20.405 81.9315C19.3157 62.4671 19.3199 42.4257 23.2816 33.5191L19.0672 19.1953ZM145.184 51.4641C145.184 51.4641 96.2955 104.865 89.4487 106.355C82.6019 107.846 86.1824 101.34 86.1824 101.34L74.8111 121.515C90.6135 125 107.413 121.741 118.549 118.473C119.033 109.576 124.214 93.9722 128.239 87.0871C131.872 80.873 145.184 51.4641 145.184 51.4641Z" fill="#333333"/>
<path d="M146.698 1.86328C146.698 1.86328 138.514 7.9132 137.193 8.9475C135.872 9.9818 117.2 28.8096 109.78 37.6178C102.36 46.426 88.1271 50.0069 89.248 50.1404C90.3688 50.2739 107.99 48.5174 107.504 50.3413C107.017 52.1652 102.481 61.5074 101.708 62.9643C100.934 64.4212 83.8962 89.7562 79.9863 102.59C76.8591 112.855 69.4147 116.431 66.5544 117.455L60.8361 114.804L49.0514 108.606C49.2187 105.125 49.6108 91.976 50.3559 84.9452C51.774 71.5641 56.2491 51.0537 56.7184 49.7252L72.1481 55.2025L77.3173 54.9132L32.2234 24.0185L21.5877 12.9302L18.6509 18.3351C18.6509 18.3351 28.3917 52.9789 30.4075 62.6657C32.4233 72.3525 36.8462 111.195 36.8462 111.195C45.1904 116.971 68.0734 122.215 74.1702 121.601L74.572 121.774C74.572 121.774 74.7171 121.501 74.7206 121.494C74.8407 121.467 75.0046 121.457 75.1023 121.42L74.8278 121.293C75.6143 119.812 105.623 63.2968 110.58 56.4693C115.602 49.5518 148.106 5.85535 148.106 5.85535L146.698 1.86328ZM47.202 50.4645L51.4086 51.0576C48.4688 70.2016 45.6386 89.263 45.1558 106.557L44.7004 106.317L44.6736 104.449C44.6736 104.449 40.0512 103.803 38.4438 96.919C36.8364 90.0348 35.8927 59.4052 35.898 57.3934C35.9066 54.1677 47.1582 50.1844 47.202 50.4645H47.202ZM132.024 94.6772L125.677 98.8581L123.906 96.844L113.847 105.958L137.336 105.597L130.378 98.1443L132.024 94.6772Z" fill="#E2E6EA"/>
<path d="M145.921 0.0368537C145.83 0.00569827 145.734 -0.00589923 145.638 0.00280765C145.542 0.0115145 145.449 0.0403323 145.365 0.087389C122.482 13.0035 100.48 23.8446 81.6462 27.4444C81.4719 27.4783 81.3175 27.5785 81.2155 27.7239C81.1136 27.8692 81.072 28.0485 81.0996 28.2239C82.6454 38.4394 81.9072 46.2814 79.0244 51.7748C78.9619 51.8921 78.9348 52.025 78.9464 52.1574C78.9581 52.2898 79.008 52.4159 79.09 52.5205C79.1721 52.6251 79.2828 52.7035 79.4086 52.7464C79.5344 52.7892 79.67 52.7945 79.7988 52.7617C93.5612 49.3617 111.194 39.7344 129.811 29.9499C129.897 29.9055 129.973 29.8435 130.033 29.7677L148.533 6.31805C148.609 6.22027 148.657 6.10367 148.672 5.98068C148.688 5.85769 148.669 5.73291 148.619 5.61958L146.331 0.41136C146.293 0.323794 146.236 0.245212 146.166 0.180709C146.095 0.116206 146.012 0.0672057 145.921 0.0368142L145.921 0.0368537ZM145.37 1.63121L147.197 5.7917L129.047 28.801C110.957 38.3097 93.8753 47.515 80.6086 51.0561C83.1461 45.4196 83.8287 38.0226 82.4864 28.634C101.301 24.91 122.918 14.2733 145.37 1.63121ZM21.7644 12.3108C21.652 12.3275 21.5455 12.3719 21.4545 12.4399C21.3635 12.5079 21.2908 12.5975 21.243 12.7006L18.0442 19.6044C17.9982 19.7035 17.9765 19.8121 17.9811 19.9213C17.9856 20.0305 18.0161 20.137 18.0701 20.232L29.5191 40.498C29.5897 40.6225 29.6976 40.7218 29.8276 40.782C29.9575 40.8421 30.1031 40.86 30.2437 40.8332C30.3844 40.8064 30.5132 40.7363 30.612 40.6326C30.7107 40.5289 30.7746 40.3969 30.7945 40.2551L33.0317 24.8076C33.0463 24.7083 33.0389 24.6069 33.0101 24.5107C32.9812 24.4145 32.9315 24.3258 32.8646 24.2509L22.3773 12.5337C22.3017 12.4487 22.2061 12.3838 22.0992 12.345C21.9923 12.3061 21.8774 12.2944 21.7649 12.311L21.7644 12.3108ZM22.0478 14.2241L31.6291 24.929L29.726 38.0735L19.4361 19.8625L22.0478 14.2241ZM55.5849 48.7177C55.4961 48.7005 55.4048 48.7009 55.3162 48.7191C55.2276 48.7373 55.1435 48.7728 55.0687 48.8236C54.9939 48.8744 54.9299 48.9395 54.8804 49.0151C54.8309 49.0908 54.7968 49.1755 54.7801 49.2644C50.0282 73.9893 48.5455 96.561 47.1626 115.195C47.1493 115.376 47.2085 115.555 47.3271 115.692C47.4458 115.83 47.6141 115.915 47.7953 115.929C47.9765 115.942 48.1556 115.883 48.2932 115.764C48.4308 115.645 48.5157 115.477 48.5292 115.296C49.9127 96.653 51.3937 74.1474 56.1265 49.5225C56.1438 49.4341 56.1435 49.3431 56.1256 49.2548C56.1078 49.1665 56.0727 49.0826 56.0224 49.0079C55.9721 48.9332 55.9076 48.8691 55.8325 48.8193C55.7574 48.7695 55.6733 48.735 55.5849 48.7177ZM52.057 48.7481C51.9693 48.7257 51.878 48.721 51.7884 48.7341C51.6988 48.7472 51.6127 48.778 51.535 48.8246C51.4574 48.8712 51.3898 48.9326 51.336 49.0055C51.2823 49.0784 51.2435 49.1612 51.2219 49.2491C46.1705 69.4491 45.0713 93.7333 43.8676 113.651C43.8618 113.741 43.8738 113.831 43.903 113.917C43.9321 114.002 43.9779 114.081 44.0376 114.149C44.0973 114.217 44.1699 114.272 44.251 114.311C44.3321 114.351 44.4203 114.374 44.5104 114.38C44.6916 114.39 44.8695 114.328 45.0051 114.208C45.1408 114.087 45.2232 113.918 45.2342 113.737C46.4389 93.8029 47.5532 69.5722 52.5531 49.5782C52.5968 49.4023 52.5693 49.2163 52.4763 49.0608C52.3834 48.9052 52.2326 48.7928 52.057 48.7481ZM65.9102 52.4885C65.8208 52.4775 65.7301 52.4842 65.6433 52.5083C65.5565 52.5323 65.4753 52.5733 65.4043 52.6287C65.3333 52.6842 65.274 52.7531 65.2296 52.8315C65.1853 52.9099 65.1569 52.9963 65.1459 53.0857C61.7635 79.7982 60.8524 99.6014 60.0794 118.738C60.0757 118.828 60.0897 118.918 60.1208 119.002C60.1518 119.087 60.1993 119.165 60.2604 119.231C60.3215 119.297 60.3951 119.351 60.477 119.389C60.5588 119.426 60.6473 119.448 60.7374 119.451C60.8275 119.455 60.9174 119.441 61.0021 119.41C61.0867 119.379 61.1644 119.331 61.2307 119.27C61.297 119.209 61.3506 119.136 61.3884 119.054C61.4262 118.972 61.4475 118.883 61.4511 118.793C62.2238 99.6622 63.1267 79.9169 66.5024 53.2578C66.5141 53.1684 66.5081 53.0775 66.4847 52.9905C66.4613 52.9034 66.4209 52.8217 66.3659 52.7503C66.3109 52.6788 66.2423 52.6189 66.1641 52.574C66.0859 52.5291 65.9997 52.5 65.9102 52.4885ZM131.349 88.8245C131.255 88.8191 131.16 88.8335 131.071 88.8666C130.982 88.8997 130.901 88.9509 130.833 89.0169L114.034 105.107C113.969 105.17 113.917 105.244 113.88 105.327C113.844 105.409 113.824 105.498 113.822 105.589C113.82 105.679 113.836 105.769 113.869 105.853C113.902 105.937 113.951 106.014 114.014 106.079C114.076 106.144 114.151 106.197 114.233 106.233C114.316 106.27 114.405 106.289 114.495 106.291C114.585 106.293 114.675 106.277 114.759 106.244C114.844 106.212 114.92 106.162 114.985 106.1L131.253 90.5155L137.833 98.4418L133.409 94.5141C133.284 94.4039 133.123 94.3432 132.956 94.3432C132.789 94.3432 132.628 94.4039 132.503 94.5141L120.548 104.941C120.411 105.06 120.327 105.229 120.315 105.41C120.303 105.592 120.363 105.77 120.482 105.907C120.602 106.044 120.771 106.128 120.952 106.14C121.133 106.153 121.312 106.093 121.449 105.973L132.948 95.9414L143.608 105.406L143.684 105.477C143.813 105.591 143.981 105.653 144.154 105.649C144.326 105.645 144.491 105.576 144.615 105.456C144.739 105.335 144.813 105.173 144.823 105C144.832 104.828 144.776 104.658 144.666 104.526L131.835 89.0729C131.775 89.0006 131.701 88.9412 131.618 88.8985C131.534 88.8559 131.443 88.8308 131.349 88.8249L131.349 88.8245Z" fill="#E9F5FF"/>
<path d="M49.0504 33.5587C49.0504 33.5587 35.0229 20.7637 31.8596 25.5604C30.0616 28.2868 30.0301 40.5813 30.5418 44.441C31.1353 48.9171 32.4049 52.6824 36.6745 51.7078C38.8457 51.2122 49.3279 47.496 49.3279 47.496C48.2992 42.8713 48.2225 38.2252 49.0504 33.5587ZM60.203 33.843C60.203 33.843 76.7644 22.0542 81.0527 26.4372C83.6486 29.0905 85.0777 42.9208 82.7843 46.9626C80.4911 51.0041 80.144 55.7062 75.1817 54.7364C72.6582 54.2432 59.8805 47.7123 59.8805 47.7123C61.0761 43.1101 61.1652 38.4867 60.203 33.843ZM49.1908 35.6166C49.1908 35.6166 47.5299 45.0004 49.8903 47.2976C51.9673 49.6265 54.4613 48.328 58.1341 48.4969C60.4064 48.6013 60.2939 45.8102 60.5859 42.1658C60.878 38.5213 59.9836 34.908 59.9836 34.908C60.0479 32.7411 50.0094 29.7089 49.1908 35.6166Z" fill="#00FFFF" stroke="#008080" stroke-width="2.78957" stroke-linecap="round" stroke-linejoin="round"/>
<path d="M150.031 4.27348C149.643 4.16697 149.055 4.19287 148.639 4.53157L148.579 4.58211L148.523 4.64276C115.15 41.926 94.4003 82.2704 74.6209 120.261L74.0743 121.319L75.1928 121.709C76.8166 122.278 79.0547 122.445 81.6209 122.564C84.1871 122.684 87.0508 122.726 89.709 122.898L90.2 122.928L90.534 122.564C115.897 95.0136 140.805 69.8735 159.42 27.2167L178.077 76.4341L180 75.7053L160.68 24.7265C160.712 24.6521 160.75 24.5985 160.782 24.5241L160.655 24.6607L160.645 24.6451C160.857 24.4342 161.116 24.2525 161.212 23.9973C161.366 23.5878 161.396 23.175 161.379 22.7521C161.346 21.9064 161.107 20.9824 160.741 19.9481C160.01 17.8795 158.752 15.4004 157.335 13.0139C155.918 10.6275 154.346 8.34915 152.967 6.71752C152.277 5.90173 151.646 5.24892 151.028 4.79417C150.72 4.5669 150.419 4.37943 150.031 4.27284L150.031 4.27348ZM149.738 6.4094C149.773 6.43273 149.767 6.41975 149.809 6.44982C150.187 6.7285 150.766 7.29653 151.398 8.04417C152.662 9.53946 154.194 11.7561 155.563 14.0622C156.933 16.3684 158.149 18.7814 158.803 20.632C159.13 21.5572 159.305 22.3517 159.324 22.8337C159.334 23.0635 159.306 23.1992 159.289 23.2487L159.03 23.3853L158.884 23.7295C140.374 67.6604 115.212 92.7441 89.3447 120.823C86.7653 120.672 84.0798 120.619 81.7171 120.509C79.7389 120.417 78.3441 120.185 77.1214 119.927C96.635 82.4402 117.146 42.9371 149.738 6.40924L149.738 6.4094ZM19.1779 17.4079L18.0593 18.9111C18.0593 18.9111 15.6926 22.0989 13.2459 25.9212C12.0225 27.8324 10.777 29.903 9.78895 31.838C8.80092 33.7731 8.05325 35.5375 7.87571 37.0513C7.81409 37.5768 7.87287 38.1235 7.97694 38.8937C8.08104 39.6639 8.24753 40.613 8.4679 41.7281C8.90865 43.9583 9.5672 46.8453 10.371 50.1655C10.441 50.455 10.562 50.8819 10.6342 51.1778C10.6109 51.2255 10.5655 51.2988 10.543 51.3498C10.4935 51.4628 10.4393 51.5864 10.381 51.7396C10.2644 52.0456 10.1205 52.4513 9.9508 52.9442C9.61127 53.9301 9.16833 55.2731 8.65505 56.8617C7.6285 60.0391 6.3288 64.1841 5.04625 68.3006C2.48115 76.5336 0 84.6541 0 84.6541L1.96384 85.2564C1.96384 85.2564 4.44719 77.1389 7.01009 68.913C8.29154 64.8001 9.59157 60.6585 10.6138 57.4944C10.9829 56.352 11.2588 55.529 11.5401 54.6904C13.0013 60.5223 14.6022 66.7787 16.3839 73.3924C20.8092 89.8195 25.3072 105.619 25.3072 105.619L25.4287 106.049L38.0823 112.452L37.9255 110.614C35.1288 77.9743 29.8288 45.2607 19.8461 19.1592L19.1779 17.4079ZM18.5503 21.8367C27.7863 46.8284 32.9172 77.7867 35.6782 108.929L27.1699 104.627C27.0535 104.218 22.7353 89.0484 18.3731 72.8559C16.1629 64.6514 13.9701 56.2932 12.3703 49.6847C11.5703 46.3804 10.9182 43.508 10.4874 41.3282C10.2721 40.2384 10.1118 39.3237 10.0167 38.6204C9.92159 37.917 9.90891 37.3873 9.92057 37.2892C10.0356 36.3086 10.6814 34.6151 11.6212 32.7744C12.561 30.9338 13.7761 28.9056 14.9769 27.0297C16.7877 24.2009 17.7882 22.8861 18.5503 21.8367H18.5503Z" fill="#1A1A1A"/>
<path d="M66.1082 31.1387C64.2847 32.2214 62.1776 33.3207 61.1211 34.3594L61.788 38.7987C62.6992 37.9497 63.8107 37.3136 64.9779 36.7351C64.9779 36.7351 63.7563 36.133 63.6026 35.4803C62.8259 34.2921 66.1082 31.1387 66.1082 31.1387ZM45.4511 31.5704C45.4511 31.5704 46.5479 33.8903 46.4719 34.6299C46.396 35.3695 45.5224 36.3119 45.5224 36.3119C45.6 36.5926 45.6819 36.8737 45.7648 37.1556C44.8477 36.3155 43.9006 35.4819 43.5458 35.3102C42.7704 34.9348 38.7385 32.3712 36.9638 32.2823C36.936 32.281 36.9088 32.2796 36.8821 32.2796C35.1998 32.3013 35.5362 35.7132 35.5362 35.7132C38.2524 33.3534 41.3894 35.8716 43.7949 37.4756C46.1977 39.1869 46.2463 40.6462 45.9389 41.8265C45.6291 43.0163 43.1387 44.8718 43.1387 44.8718L45.8197 43.4643C45.5781 43.7951 45.268 44.1104 44.877 44.4071C44.877 44.4071 45.9279 45.5499 45.7367 46.1199C45.5455 46.6899 42.125 48.9978 42.125 48.9978C42.125 48.9978 48.4694 47.1878 48.3521 46.9181C47.3328 43.2021 47.3956 37.831 48.0401 33.8866L45.4511 31.5704ZM75.7087 33.4675C74.0068 33.5263 63.8229 36.6968 62.3036 38.634C61.3821 39.809 61.2543 40.6704 61.3796 41.1463C61.5408 41.7589 61.9601 42.3208 62.4831 42.8162L61.6862 42.2337L60.8627 47.2663C63.3634 48.6433 66.1313 49.6991 68.7289 50.9865C68.7262 50.9879 64.1456 48.2838 63.6736 46.8913C63.1157 45.2455 63.9124 44.4048 64.3405 44.1742L64.1222 44.0148C65.1605 44.6176 66.1044 44.9503 66.1685 44.8906C66.1685 44.8906 63.6647 44.2338 64.4449 41.8038C65.2252 39.3738 71.7016 37.557 74.1499 37.7261C76.5983 37.8953 79.3968 40.6749 79.3968 40.6749C79.2677 38.8662 76.6283 33.4918 75.931 33.4996C75.898 33.4746 75.8222 33.4636 75.7087 33.4675V33.4675Z" fill="#00A0A0"/>
<path d="M75.4459 33.1338C68.3993 35.2003 63.7754 36.5104 61.1473 39.4049L61.0359 39.5213L61.4003 41.8951L61.4262 41.9456C61.7142 42.5191 62.2925 43.0919 63.056 43.6868C63.8195 44.2816 64.7709 44.8835 65.7942 45.433C67.8408 46.5319 70.1679 47.4268 71.9337 47.5689L71.9895 46.8855C70.4102 46.7586 68.1079 45.899 66.1182 44.8306C65.1233 44.2964 64.2041 43.7084 63.4812 43.1451C62.7682 42.5897 62.262 42.0484 62.0589 41.6571L61.7704 39.7945C64.2134 37.1828 68.6739 35.8356 75.6438 33.7917L75.4459 33.1338ZM40.2486 33.1597L39.9095 33.7519C46.1389 37.3058 45.9409 37.3256 48.3166 39.9521L48.0686 41.4042C47.882 41.7631 47.2929 42.3063 46.4438 42.8416C45.5864 43.3822 44.4796 43.9369 43.3007 44.441C40.9429 45.4493 38.2672 46.2515 36.6753 46.3796L36.731 47.0629C38.4842 46.9219 41.1663 46.0983 43.5741 45.0687C44.7779 44.5539 45.9059 43.9876 46.8083 43.4186C47.7107 42.8497 48.3914 42.3047 48.6962 41.6977L48.7222 41.6521L49.0512 39.7237L48.9397 39.6022C46.4212 36.8284 46.6094 36.7875 40.2492 33.159L40.2486 33.1597Z" fill="#008080"/>
<path d="M108.566 110.251L108.635 105.372L148.551 104.993L139.927 109.713L108.566 110.251Z" fill="#1A1A1A"/>
<path d="M57.0927 64.9717C56.2201 64.9719 55.3833 65.3186 54.7663 65.9356C54.1493 66.5526 53.8025 67.3894 53.8024 68.262C53.8022 69.1349 54.1488 69.972 54.7658 70.5893C55.3829 71.2066 56.2199 71.5535 57.0927 71.5537C57.525 71.5538 57.9531 71.4687 58.3525 71.3033C58.7519 71.1379 59.1148 70.8955 59.4205 70.5898C59.7261 70.2841 59.9686 69.9212 60.134 69.5218C60.2994 69.1224 60.3845 68.6943 60.3844 68.262C60.3842 67.3892 60.0373 66.5522 59.42 65.9351C58.8027 65.3181 57.9655 64.9715 57.0927 64.9717ZM54.3688 100.639C53.496 100.639 52.6588 100.986 52.0415 101.603C51.4242 102.22 51.0773 103.057 51.0771 103.93C51.0771 104.362 51.1622 104.79 51.3276 105.189C51.4929 105.589 51.7354 105.952 52.0411 106.257C52.3468 106.563 52.7097 106.805 53.1091 106.971C53.5085 107.136 53.9365 107.221 54.3688 107.221C55.2417 107.221 56.0787 106.874 56.6957 106.257C57.3128 105.639 57.6593 104.802 57.6592 103.93C57.659 103.057 57.3123 102.22 56.6952 101.603C56.0782 100.986 55.2414 100.639 54.3688 100.639Z" fill="#CCCCCC"/>
<path d="M57.0929 65.6914C56.4112 65.6916 55.7575 65.9627 55.2755 66.4448C54.7936 66.927 54.5229 67.5809 54.5231 68.2626C54.5229 68.9444 54.7936 69.5982 55.2755 70.0804C55.7575 70.5626 56.4112 70.8336 57.0929 70.8338C57.4306 70.8339 57.765 70.7674 58.077 70.6382C58.389 70.509 58.6724 70.3196 58.9112 70.0809C59.15 69.8421 59.3394 69.5586 59.4686 69.2467C59.5978 68.9347 59.6642 68.6003 59.6641 68.2626C59.6642 67.9249 59.5978 67.5906 59.4686 67.2786C59.3394 66.9666 59.15 66.6831 58.9112 66.4444C58.6724 66.2056 58.389 66.0162 58.077 65.887C57.765 65.7578 57.4306 65.6913 57.0929 65.6914ZM54.3691 101.36C53.6873 101.36 53.0334 101.631 52.5513 102.113C52.0691 102.595 51.7981 103.248 51.7979 103.93C51.7978 104.268 51.8642 104.602 51.9934 104.914C52.1226 105.226 52.312 105.51 52.5508 105.748C52.7896 105.987 53.073 106.177 53.385 106.306C53.697 106.435 54.0314 106.501 54.3691 106.501C54.7067 106.501 55.0411 106.435 55.3531 106.306C55.6651 106.177 55.9485 105.987 56.1873 105.748C56.4261 105.51 56.6155 105.226 56.7447 104.914C56.8739 104.602 56.9403 104.268 56.9403 103.93C56.94 103.248 56.669 102.595 56.1868 102.113C55.7047 101.631 55.0508 101.36 54.3691 101.36Z" fill="#F2F2F2"/>
</svg>
