<svg width="180" height="132" viewBox="0 0 180 132" fill="none" xmlns="http://www.w3.org/2000/svg">
<path d="M147.013 0.805664L144.026 9.25135C144.197 31.9134 133.726 47.5078 125.263 64.4369L82.7016 129.662C95.0092 130.987 103.989 131.915 114.432 129.963C139.347 125.303 161.709 110.588 178.961 91.5058L165.881 62.6866L179.421 53.4476C175.266 32.482 159.32 17.6465 147.013 0.805664ZM33.7334 6.85351C26.8223 25.574 10.2472 30.0992 0.539551 48.2347C11.8952 48.7374 17.2776 58.1998 34.8742 64.35C25.5708 69.1507 14.3947 70.8526 7.77466 80.0932C13.1861 89.357 18.0143 99.8227 24.218 107.452L54.8022 123.498C54.7091 123.636 44.9481 91.8959 39.2108 72.3281C34.1017 54.9027 35.0236 10.1476 35.6049 9.94412L33.7334 6.85351Z" fill="#FF00FF"/>
<path d="M35.4336 46.6718C35.9937 72.8328 48.3459 97.9239 54.8074 123.549C64.5332 127.449 69.5304 128.718 82.261 130.24C95.7686 105.8 122.017 72.4449 134.878 46.2783C110.069 56.6722 63.5513 69.589 35.4336 46.6718Z" fill="#F2F2F2"/>
<path d="M146.99 1.60352L143.79 10.7836C146.559 24.9137 138.105 42.1097 129.442 56.45C114.194 80.7691 94.9797 107.427 83.7 129.407L89.1395 129.457C97.5003 116.695 98.7445 105.981 109.397 99.5828C110.63 103.046 107.634 108.496 107.086 113.523C112.134 99.7294 114.996 89.5456 128.057 68.99C128.079 68.9988 128.753 67.5019 129.269 66.3731L132.684 68.1834C144.163 71.1766 156.117 71.4672 164.352 68.4111C167.38 78.1999 171.789 85.1688 172.671 98.6979L178.515 91.6305L166.404 63.1099C151.861 67.9954 140.73 66.6517 130.573 63.5297C134.093 55.7465 140.345 41.9412 142.498 38.9419C149.231 29.5574 147.308 51.8928 147.004 54.6092C153.302 41.3065 153.944 35.3431 160.027 39.4278C156.632 25.7217 152.303 13.0951 146.99 1.60353V1.60352ZM147.004 54.6091C146.997 54.6256 146.99 54.6404 146.982 54.6569C146.949 55.0328 146.966 54.9488 147.004 54.6091ZM34.2378 7.11889C28.0546 20.4312 20.371 24.4419 13.229 32.6896C13.229 32.6896 20.6687 26.3889 26.4189 26.6822C30.3156 26.8809 25.2841 45.1036 25.2842 45.1035C25.293 44.8214 30.7789 35.6552 31.5903 39.1242C32.476 42.911 31.8647 62.4245 34.1056 63.6276L24.9488 60.4305L22.7628 69.6399C26.2206 68.3993 29.6373 67.3261 33.3113 65.2237L28.015 72.8689C30.9811 75.9073 32.7146 74.0695 37.4509 103.553L38.6589 95.3539C42.0364 93.3224 47.2388 115.926 46.9051 119.811L55.1855 123.391C55.1855 123.391 39.1316 74.2658 36.785 62.6925C34.4383 51.1192 35.244 8.8986 35.244 8.8986L34.2378 7.11889ZM17.2327 34.7655C13.6 37.4783 10.6172 40.5908 9.2583 44.702L19.595 49.0583C22.1086 52.0256 25.368 52.8495 28.7653 53.7842C28.7653 53.7842 27.3586 52.0331 26.2353 51.2786C25.112 50.5241 24.0994 45.8403 24.0994 45.8403C24.0994 45.8403 20.4581 42.6591 19.218 41.4633C17.978 40.2675 17.2327 34.7655 17.2327 34.7655ZM170.167 42.374L168.138 47.3704L160.113 45.669L162.549 52.2664C160.231 55.5799 155.854 55.6067 152.418 57.1355C161.746 57.8881 169.524 55.5259 173.888 52.8294C173.888 52.8294 170.612 43.2352 170.167 42.374ZM24.0382 76.3242L22.1532 80.481L19.8288 76.3597C19.8288 76.3597 16.315 78.4806 15.5754 80.8151C14.8358 83.1497 20.8631 90.5386 20.8631 90.5386C20.8631 90.5386 21.2686 88.5449 22.0749 88.6304C22.8812 88.7158 24.939 94.6097 24.939 94.6097C26.4487 94.5807 26.6729 76.9008 24.0382 76.3242ZM143.489 85.2142C144.19 86.7883 143.866 92.0807 138.654 94.901C133.24 97.8313 125.631 99.7982 125.631 99.7982L138.427 99.0712L130.185 109.093C139.242 103.584 144.67 98.5338 149.587 93.5485L143.489 85.2142ZM155.504 93.568C142.317 106.871 123.476 118.936 105.38 131.163C120.953 130.387 134.663 124.458 147.93 117.305C145.726 114.97 146.247 112.193 146.651 109.434C149.955 104 155.268 97.7434 155.504 93.568Z" fill="#800080"/>
<path d="M35.4497 46.1152C35.4497 46.1152 35.7402 54.2991 37.085 62.3015C38.4298 70.3039 55.1097 123.482 55.1097 123.482L60.8564 126.203C57.6736 120.45 44.7807 74.6478 46.8599 75.91C47.7827 76.4702 57.9704 80.7539 58.6165 79.5135C58.6165 79.5135 48.0478 70.9586 48.5747 67.3248C49.1016 63.6911 54.2529 65.1999 54.2529 65.1999L52.0742 56.1509C45.1063 53.589 39.8642 50.0778 35.4497 46.1152ZM60.8564 126.203C61.2114 126.845 61.448 126.997 61.5272 126.521L60.8564 126.203ZM135.025 46.502L123.563 51.2629L118.677 60.5708C118.677 60.5708 122.743 59.3257 121.854 60.282C121.84 59.5205 112.174 69.0565 104.14 73.0779C105.871 72.6133 122.822 61.8159 119.371 69.0952C116.185 75.816 87.7368 119.943 87.7368 119.943C87.2057 121.636 126.805 62.8506 129.226 57.2956C130.353 54.7099 135.025 46.502 135.025 46.502Z" fill="#E6E6E6"/>
<path d="M16.6551 38.6799C15.7634 38.6881 14.937 38.9212 14.2806 39.4021C12.371 40.801 13.2935 43.2409 15.5119 45.494C17.7303 47.747 20.4042 48.9602 22.3137 47.5613C24.2232 46.1624 23.9728 43.2022 21.7543 40.9492C20.2985 39.4707 18.3576 38.6643 16.6551 38.6799ZM167.956 45.5111C167.092 45.5253 166.153 45.7446 165.215 46.1892C162.358 47.5441 160.605 50.4769 161.298 52.7401C161.992 55.0032 164.6 54.9334 167.456 53.5785C170.313 52.2236 172.338 50.0974 171.644 47.8343C171.178 46.3137 169.725 45.482 167.956 45.5111ZM20.9698 78.7355C20.0109 78.7387 19.0888 79.1067 18.3675 79.8604C16.6578 81.6468 17.1095 84.4312 18.8975 86.6916C20.6855 88.952 23.1328 89.8318 24.8425 88.0453C26.5522 86.2589 26.4898 82.9788 24.7018 80.7184C23.6681 79.4117 22.2837 78.7313 20.9698 78.7355ZM143.134 90.2449C142.237 90.2392 141.252 90.4584 140.27 90.9242C137.413 92.2791 135.659 95.2119 136.353 97.4751C137.047 99.7382 139.654 99.6684 142.511 98.3135C145.368 96.9586 147.392 94.8312 146.699 92.568C146.243 91.0828 144.848 90.2554 143.134 90.2449Z" fill="#F2F2F2" stroke="#B3B3B3" stroke-width="1.03273"/>
<path d="M146.377 0.0106594C146.261 0.0323184 146.153 0.0863578 146.067 0.166576C145.98 0.246794 145.918 0.349913 145.887 0.464024L143.495 9.36014C143.469 9.4552 143.466 9.55505 143.486 9.65159C146.477 23.9939 136.976 43.9849 123.769 65.3044C110.562 86.6239 93.7421 109.281 82.4342 129.28C82.3813 129.373 82.3534 129.479 82.3532 129.587C82.3529 129.694 82.3804 129.8 82.4329 129.894C82.4854 129.988 82.5612 130.066 82.653 130.123C82.7448 130.179 82.8494 130.21 82.9569 130.214L105.917 131.149C106.053 131.154 106.188 131.115 106.301 131.038C122.688 119.656 142.454 109.814 155.773 93.4083C155.862 93.2987 155.911 93.1624 155.913 93.0213C155.914 92.8803 155.868 92.7428 155.782 92.6311C148.733 83.3574 141.467 74.053 129.7 65.6189L130.01 64.0367C140.045 67.6161 153.113 68.3254 165.363 63.1902L177.988 91.7799C178.057 91.9283 178.182 92.0438 178.335 92.1016C178.488 92.1593 178.658 92.1548 178.808 92.0888C178.958 92.0229 179.076 91.9009 179.137 91.7489C179.199 91.5969 179.198 91.427 179.135 91.2756L166.57 62.8293C171.204 60.7257 175.703 57.8522 179.815 53.7759C179.887 53.705 179.94 53.618 179.97 53.5221C180.001 53.4263 180.008 53.3246 179.991 53.2254C177.917 41.5002 171.203 30.3594 164.248 21.0874C157.293 11.8155 150.06 4.37492 146.997 0.25581C146.927 0.160761 146.832 0.0873197 146.722 0.0439461C146.613 0.000572531 146.493 -0.0109995 146.377 0.0105871L146.377 0.0106594ZM146.784 1.9629C150.17 6.32475 156.665 13.0658 163.244 21.8369C170.074 30.9418 176.578 41.829 178.663 53.1098C163.572 67.8415 143.486 67.8185 129.742 62.6906C129.656 62.6591 129.565 62.6464 129.475 62.6535C129.384 62.6606 129.296 62.6873 129.217 62.7318C129.138 62.7762 129.069 62.8373 129.016 62.9109C128.963 62.9845 128.926 63.0687 128.909 63.1578L128.395 65.7439C128.372 65.8628 128.383 65.986 128.429 66.0984C128.474 66.2109 128.551 66.3079 128.65 66.3776C140.293 74.6397 147.433 83.7566 154.445 92.9735C141.405 108.808 122.098 118.575 105.773 129.886L84.0905 129.007C95.3303 109.325 111.773 87.0438 124.833 65.9613C138.014 44.6846 147.714 24.6997 144.716 9.64697L146.784 1.9629ZM33.8226 5.89514C33.6982 5.90287 33.579 5.94749 33.4801 6.0233C33.3813 6.09911 33.3072 6.20267 33.2675 6.32075C30.3289 14.9985 25.8381 19.2792 20.1291 24.497C14.4202 29.7148 7.52725 35.8225 0.0932119 47.947C0.0372251 48.0378 0.0053477 48.1415 0.000616298 48.2481C-0.00411511 48.3547 0.0184588 48.4607 0.0661778 48.5561C0.113897 48.6516 0.18519 48.7332 0.273307 48.7934C0.361425 48.8536 0.463446 48.8903 0.569707 48.9C0.569707 48.9 10.8431 49.8788 16.6086 55.5756C18.7409 57.6824 21.548 59.2349 24.3575 60.5579L21.9426 69.5466C21.9437 69.5605 21.9453 69.5744 21.9473 69.5882C16.9792 71.4619 11.8521 73.7651 7.38416 79.7612C7.31695 79.851 7.27506 79.9571 7.26285 80.0686C7.25064 80.1801 7.26858 80.2928 7.31477 80.395C14.0521 95.1501 17.3455 101.132 24.1262 107.574C24.1586 107.605 24.1942 107.633 24.2326 107.657C34.0199 113.543 45.116 120.157 54.4137 123.539C54.5244 123.579 54.6443 123.587 54.7595 123.563C54.8748 123.538 54.9807 123.482 55.0652 123.399C55.1498 123.317 55.2094 123.213 55.2374 123.099C55.2653 122.984 55.2605 122.864 55.2233 122.752C55.2233 122.752 51.3348 111.069 47.1414 97.5535C42.948 84.0384 38.4472 68.6542 37.246 61.4278C34.824 46.8573 35.8535 32.1395 35.8535 32.1395C35.8541 32.1241 35.8541 32.1087 35.8535 32.0933L35.7841 9.19385C35.7842 9.10106 35.7636 9.00939 35.724 8.9255L34.424 6.24699C34.3698 6.13546 34.2837 6.04252 34.1766 5.97993C34.0696 5.91735 33.9464 5.88793 33.8226 5.8954V5.89514ZM33.8273 7.89365L34.5305 9.34164L34.5999 32.0978L34.6046 32.0516C34.6046 32.0516 33.5572 46.8698 36.011 61.6313C37.2476 69.0708 41.7455 84.3988 45.9434 97.9282C49.9126 110.721 53.2042 120.599 53.5951 121.776C44.7474 118.356 34.3126 112.252 24.9637 106.63C18.4119 100.396 15.2036 94.5862 8.63796 80.2331C13.6383 73.7029 19.3734 71.6524 25.0285 69.6253C28.7345 68.2969 32.4039 66.9684 35.664 64.333C35.7549 64.2586 35.8231 64.1601 35.8607 64.0489C35.8984 63.9377 35.904 63.8181 35.877 63.7038C35.85 63.5895 35.7914 63.4851 35.708 63.4025C35.6245 63.3199 35.5195 63.2624 35.405 63.2366C35.405 63.2366 32.3916 62.5497 28.6276 61.127C24.8636 59.7043 20.3716 57.5322 17.4878 54.6828C11.7855 49.0485 3.26989 48.025 1.71721 47.8592C8.84373 36.4905 15.4064 30.5127 20.9759 25.4223C26.3846 20.479 30.7943 15.8981 33.8274 7.89372L33.8273 7.89365ZM25.5141 61.0853C26.4123 61.4788 27.3403 61.9769 28.188 62.2974C31.2801 63.4661 32.8636 63.8082 33.7672 64.0322C30.965 66.0027 27.8871 67.2683 24.6027 68.4455C24.2098 68.5865 23.7969 68.82 23.3999 68.9637L25.5141 61.0853Z" fill="#1A1A1A"/>
<path d="M14.6175 39.1895C14.5 39.2545 14.3877 39.3255 14.2809 39.4024C12.3707 40.8013 13.1781 43.2092 15.3972 45.4625C17.6157 47.7151 20.4047 48.9605 22.3141 47.5617C22.8032 47.2032 23.1662 46.7264 23.379 46.1626C21.4101 47.2714 18.8031 46.1537 16.7277 44.0475C15.1473 42.4424 14.0257 40.757 14.6175 39.1895ZM170.673 46.3695C171.074 48.5934 169.16 50.6887 166.49 51.9571C164.455 52.9222 162.494 53.4265 161.208 52.3524C161.232 52.4848 161.261 52.6143 161.299 52.7404C161.992 55.0042 164.531 55.0335 167.388 53.678C170.245 52.3229 172.338 50.0975 171.644 47.8346C171.466 47.2549 171.136 46.7557 170.673 46.3695ZM19.8391 78.9244C19.2853 79.1082 18.7849 79.4267 18.3679 79.8608C16.6585 81.6472 16.9522 84.7157 18.74 86.9759C20.528 89.2361 23.1332 89.832 24.8429 88.0457C24.8681 88.018 25.0007 87.5296 25.0252 87.501C23.4916 88.4973 20.9969 87.9848 19.4829 85.3149C17.7304 82.5689 18.074 80.5437 19.8391 78.9244ZM145.727 91.1033C146.127 93.3272 144.215 95.4225 141.545 96.6908C139.509 97.656 137.549 98.1615 136.263 97.0874C136.287 97.2198 136.316 97.3493 136.354 97.4754C137.047 99.7392 139.586 99.7685 142.443 98.413C145.299 97.0579 147.393 94.8326 146.699 92.5696C146.521 91.9899 146.19 91.4895 145.727 91.1033Z" fill="#B3B3B3"/>
<path d="M146.211 8.25879L145.739 8.67052C149.691 13.2036 155.928 20.5227 161.556 28.5492C167.131 36.5003 172.06 45.139 173.63 52.4202C156.951 62.2941 144.006 62.2972 128.918 58.4851L128.765 59.0957C144.009 62.9473 157.261 62.9424 174.18 52.8504L174.375 52.7348L174.328 52.5174C172.773 45.0234 167.719 36.2464 162.069 28.1884C156.419 20.1303 150.168 12.7976 146.211 8.25886L146.211 8.25879ZM35.2984 13.2967C32.2412 21.1548 26.9049 26.0213 21.6374 30.3857C16.3698 34.7503 11.1619 38.6064 8.49904 44.4771L8.32324 44.8564L8.7396 44.9166C14.887 45.7976 18.0801 48.8417 21.4477 51.8882C24.8153 54.9347 28.3594 57.9788 35.0116 58.61L35.0718 57.9855C28.5858 57.37 25.229 54.4609 21.8687 51.421C18.6062 48.4696 15.2419 45.4644 9.27162 44.4586C11.8935 38.9487 16.8503 35.163 22.0352 30.8669C27.3188 26.4891 32.7663 21.5346 35.8813 13.528L35.2984 13.2967ZM34.933 28.0125C34.8202 28.0649 34.7591 28.1246 34.66 28.2115C34.561 28.2984 34.4431 28.4083 34.3084 28.5446C34.0391 28.817 33.7 29.1867 33.3092 29.6364C32.5275 30.5356 31.5473 31.7485 30.5705 33.1014C28.6168 35.8071 26.6622 39.037 26.3653 41.5163L26.9852 41.595C27.25 39.3838 29.1502 36.1432 31.0794 33.4715C32.0439 32.1356 33.0125 30.9322 33.781 30.0481C34.1653 29.606 34.4972 29.2424 34.7525 28.9841C34.8802 28.855 34.9902 28.7548 35.0718 28.6834C35.1532 28.6118 35.2231 28.5692 35.1966 28.5815L34.933 28.0125ZM135.312 45.9436C127.564 49.9529 107.571 55.9023 87.1022 57.8744C66.6339 59.8466 45.7047 57.8207 35.9183 46.1795L35.4372 46.582C45.4821 58.5308 66.6135 60.4789 87.1624 58.499C107.711 56.5191 127.691 50.5932 135.603 46.4987L135.312 45.9436ZM35.5806 54.5575L35.0995 54.9599C44.2381 65.8307 62.3874 68.4869 80.9124 67.4506C99.4375 66.4143 118.367 61.6614 129.173 57.5136L128.951 56.9307C118.224 61.0481 99.3175 65.7944 80.8755 66.8261C62.4336 67.8577 44.4876 65.1525 35.5807 54.5575H35.5806ZM127.984 57.8837C119.08 63.7067 115.32 68.3061 102.84 73.1454L103.067 73.7283C115.632 68.8559 119.481 64.1955 128.326 58.4111L127.984 57.8837ZM36.108 58.7025L35.6269 59.1004C42.6885 67.6167 49.9495 75.8226 59.3822 79.8857L59.6321 79.3075C50.374 75.3196 43.1609 67.2083 36.108 58.7025ZM124.954 66.2663L124.528 66.7243C132.636 74.2383 143.378 83.7262 149 93.0379C136.129 106.789 119.645 115.648 99.6438 129.797L100.005 130.311C120.063 116.121 136.66 107.247 149.648 93.2924L149.805 93.1211L149.685 92.9177C144.011 83.3952 133.11 73.8257 124.953 66.2663L124.954 66.2663ZM37.4265 68.695C36.7378 69.1772 34.9876 69.9468 32.8095 70.837C30.6314 71.7271 28.0035 72.7595 25.4586 73.844C22.9136 74.9285 20.4541 76.0666 18.598 77.1841C17.6699 77.7428 16.8939 78.2928 16.3265 78.8448C15.7591 79.3969 15.383 79.955 15.3458 80.5565C15.3301 80.8102 15.416 81.0318 15.5447 81.3846C15.6734 81.7374 15.8588 82.1848 16.0998 82.717C16.5818 83.7813 17.2739 85.1834 18.1122 86.8065C19.7887 90.0526 22.0495 94.1754 24.3529 98.1869C26.6563 102.198 29.0019 106.097 30.8619 108.896C31.7919 110.296 32.5966 111.421 33.2259 112.158C33.5406 112.526 33.8083 112.795 34.054 112.967C34.1769 113.054 34.2958 113.124 34.4472 113.148C34.5988 113.172 34.8044 113.106 34.9098 112.972L34.4195 112.584C34.4432 112.554 34.5374 112.527 34.5443 112.528C34.5514 112.529 34.4946 112.514 34.4147 112.459C34.2551 112.346 34.0004 112.1 33.7023 111.751C33.1062 111.053 32.3076 109.939 31.3846 108.55C29.5385 105.771 27.1932 101.881 24.8941 97.8771C22.595 93.8731 20.3424 89.7544 18.6719 86.5199C17.8366 84.9026 17.1476 83.5054 16.6734 82.4581C16.4363 81.9345 16.2517 81.4998 16.1321 81.172C16.0125 80.8443 15.9709 80.5879 15.9702 80.5984C15.992 80.2462 16.2501 79.7912 16.7613 79.2938C17.2724 78.7964 18.0181 78.2649 18.9217 77.7209C20.7289 76.6329 23.1702 75.4974 25.7037 74.4178C28.237 73.3382 30.8652 72.3129 33.05 71.4201C35.2348 70.5272 36.9587 69.7888 37.7872 69.2088L37.4265 68.695ZM38.9623 71.2949L38.3332 71.3187C38.671 80.1765 39.0558 90.311 37.5005 99.7418L38.1158 99.8437C39.6855 90.3256 39.3002 80.1535 38.9623 71.2956V71.2949ZM113.615 81.306C109.134 93.9332 108.748 104.774 107.43 114.86L108.054 114.943C109.378 104.816 109.756 94.0501 114.202 81.5189L113.615 81.306Z" fill="#1A1A1A"/>
</svg>
