<svg width="180" height="135" viewBox="0 0 180 135" fill="none" xmlns="http://www.w3.org/2000/svg">
<path d="M178.945 95.5096C143.328 136.797 58.0871 155.149 0.870117 100.415C3.31227 89.4055 1.85102 74.2946 8.30701 67.5017C5.20574 61.963 11.266 58.7328 13.8674 54.6309C15.6964 45.3976 13.5365 38.8673 13.1104 31.1621C8.55356 31.0643 3.58678 16.2779 15.5402 17.0473C55.6137 32.439 102.327 27.9842 154.038 1.30337C162.255 -2.46194 161.884 9.16318 156.001 12.6909C157.895 24.5435 158.779 37.5008 163.879 45.8488C166.031 48.1533 171.284 46.5306 167.019 56.9612C173.467 63.2189 170.282 84.2888 178.945 95.5096Z" fill="#666666"/>
<path d="M156.777 13.1265L123.31 29.0416L151.758 21.2184C151.666 21.6207 158.548 49.1821 157.894 49.8373C154.663 53.0696 145.08 60.477 145.08 60.477C145.08 60.477 157.07 53.1746 159.659 54.1794C162.247 55.1842 160.15 61.8887 160.15 61.8887C160.15 61.8887 145.422 76.4462 146.693 75.4654C147.964 74.4845 154.001 70.3104 156.852 69.7602C159.702 69.2099 158.402 63.8028 161.551 71.853C164.701 79.9032 169.364 106.326 169.364 106.326L179.102 96.0997C169.12 79.3191 172.546 62.4914 166.73 56.5652C170.288 48.688 166.744 48.1202 164.496 46.2192C160.703 39.3413 158.631 26.1462 156.777 13.1265ZM15.6245 16.2485C5.42768 17.3862 6.91694 26.3072 13.101 31.1892L13.9047 54.1915C11.6848 57.8282 7.19857 58.713 8.4746 66.5957C2.85539 67.2166 3.1718 89.4998 0.522461 100.961C21.2462 121.191 47.5163 132.217 72.1911 134.041C71.593 133.804 71.0907 133.084 65.0801 125.363C54.628 111.938 49.7204 97.1758 50.851 97.3442C50.7698 96.0887 61.6603 90.1867 69.3594 90.926C65.0713 91.146 58.4532 87.1684 61.1451 80.8176C61.8772 79.0905 42.4741 70.8977 38.646 63.8323C34.7992 56.7323 34.9366 38.0553 34.9366 38.0553L53.857 39.6397C49.4525 38.7635 29.1403 26.4936 36.2862 23.2759L15.6245 16.2485ZM53.857 39.6397C54.0914 39.6863 54.2925 39.7083 54.4302 39.6873L53.857 39.6397Z" fill="#575757"/>
<path d="M147.995 4.06796C147.898 4.07843 147.804 4.10792 147.719 4.15468C147.634 4.20143 147.559 4.26457 147.498 4.34045C147.437 4.41633 147.392 4.50344 147.365 4.59682C147.338 4.69019 147.33 4.78798 147.341 4.88453C147.352 4.98114 147.381 5.07472 147.428 5.15991C147.475 5.2451 147.538 5.32023 147.614 5.38094C147.69 5.44165 147.777 5.48675 147.87 5.51367C147.964 5.5406 148.061 5.54878 148.158 5.53779C149.108 5.43383 149.773 5.70863 150.33 6.26182C150.887 6.81486 151.305 7.69052 151.506 8.73331C151.907 10.8189 151.406 13.5139 149.982 15.3258C149.895 15.4373 149.842 15.5715 149.829 15.7123C149 24.3459 152.653 38.233 154.424 51.0372C154.508 51.6486 154.834 52.1427 155.24 52.6541C155.647 53.1655 156.159 53.6907 156.715 54.2382C157.829 55.3332 159.127 56.5256 160.053 57.7114C160.978 58.8972 161.474 60.0074 161.288 60.945C161.103 61.8826 160.216 62.9603 157.728 64.0262C157.591 64.0851 157.475 64.1842 157.395 64.3106C157.315 64.437 157.276 64.5846 157.282 64.7339C157.771 75.8178 157.681 82.2989 168.235 106.428C168.274 106.517 168.33 106.597 168.4 106.664C168.471 106.731 168.553 106.783 168.644 106.818C168.734 106.853 168.831 106.87 168.928 106.867C169.025 106.865 169.12 106.843 169.209 106.804C169.388 106.726 169.528 106.58 169.6 106.398C169.671 106.216 169.668 106.014 169.59 105.835C159.214 82.1113 159.27 75.9271 158.8 65.0823C161.106 63.981 162.446 62.7058 162.736 61.2335C163.052 59.6355 162.255 58.1366 161.218 56.8077C160.18 55.4787 158.835 54.2549 157.75 53.1875C157.207 52.6539 156.733 52.1591 156.4 51.7395C156.066 51.32 155.9 50.9638 155.883 50.8358C154.097 37.9223 150.542 23.9548 151.304 15.8919C152.865 13.7033 153.417 10.8613 152.954 8.45568C152.711 7.19465 152.205 6.04508 151.37 5.2166C150.535 4.3881 149.342 3.9206 147.995 4.06796H147.995ZM142.191 8.25426C141.078 7.61091 139.602 7.65544 138.065 8.51012C137.98 8.55697 137.904 8.62029 137.844 8.6964C137.783 8.7725 137.738 8.8599 137.711 8.95353C137.684 9.04717 137.676 9.14518 137.687 9.24193C137.699 9.33868 137.729 9.43226 137.777 9.51722C137.824 9.60216 137.887 9.6769 137.964 9.73714C138.04 9.79739 138.128 9.84195 138.221 9.86826C138.315 9.89457 138.413 9.90212 138.509 9.89046C138.606 9.8788 138.699 9.84814 138.784 9.8003C140.021 9.11233 140.817 9.16177 141.451 9.52798C142.085 9.89431 142.626 10.7187 142.926 11.8416C143.527 14.0874 143.091 17.3658 141.609 19.3487C141.527 19.4563 141.476 19.5843 141.462 19.7188C140.637 28.3083 143.298 44.5384 145.088 57.3901C145.254 58.584 146.208 59.4735 147.254 60.5856C148.3 61.6976 149.514 62.9329 150.363 64.2003C151.212 65.4676 151.671 66.7059 151.43 67.9184C151.189 69.1309 150.222 70.4892 147.766 71.925C147.636 72.001 147.533 72.1146 147.47 72.2508C147.407 72.387 147.387 72.5393 147.412 72.6872C149.662 85.4188 151.796 93.762 157.804 113.712C157.832 113.805 157.878 113.892 157.939 113.967C158.001 114.042 158.076 114.105 158.162 114.151C158.247 114.197 158.341 114.225 158.437 114.235C158.534 114.245 158.631 114.235 158.724 114.207C158.817 114.179 158.904 114.134 158.979 114.072C159.055 114.011 159.117 113.936 159.163 113.85C159.209 113.765 159.238 113.671 159.248 113.574C159.257 113.478 159.248 113.38 159.22 113.287C153.287 93.5894 151.165 85.2821 148.953 72.8505C151.251 71.3893 152.555 69.8312 152.878 68.2069C153.226 66.4565 152.548 64.8111 151.588 63.3783C150.627 61.9454 149.36 60.6656 148.332 59.573C147.304 58.4805 146.586 57.471 146.547 57.1886C144.754 44.3185 142.159 27.9898 142.932 19.8821C144.59 17.4338 145.048 14.0801 144.347 11.4605C143.982 10.0953 143.305 8.89748 142.192 8.25413L142.191 8.25426ZM128.576 11.7873C128.382 11.8085 128.205 11.9058 128.082 12.0578C127.96 12.2099 127.903 12.4043 127.923 12.5984C127.944 12.7925 128.042 12.9702 128.194 13.0927C128.346 13.2152 128.54 13.2723 128.734 13.2517C130.077 13.1067 130.939 13.5459 131.647 14.3677C132.355 15.1894 132.844 16.4482 133.106 17.8082C133.367 19.1682 133.409 20.6195 133.302 21.7985C133.248 22.388 133.154 22.9114 133.046 23.3064C132.937 23.7015 132.784 23.9723 132.752 24.0087C132.652 24.1251 132.591 24.2697 132.578 24.4224C132.163 28.7355 132.74 35.4409 133.639 42.7245C134.538 50.0082 135.769 57.8402 136.704 64.2603C136.868 65.3849 137.725 66.1616 138.615 67.0421C139.505 67.9226 140.506 68.8682 141.206 69.9436C141.906 71.0191 142.318 72.1814 142.11 73.6291C141.901 75.0768 141.036 76.8672 138.974 79.0784C138.896 79.1621 138.839 79.2627 138.807 79.3723C138.775 79.4819 138.769 79.5974 138.789 79.7098C141.035 92.4212 142.272 98.802 148.283 118.758C148.311 118.851 148.357 118.938 148.418 119.013C148.479 119.089 148.555 119.151 148.64 119.197C148.726 119.243 148.819 119.272 148.916 119.282C149.013 119.291 149.11 119.282 149.203 119.254C149.39 119.197 149.547 119.068 149.638 118.895C149.73 118.723 149.75 118.521 149.693 118.334C143.73 98.5365 142.503 92.2098 140.286 79.6717C142.194 77.5129 143.321 75.5572 143.569 73.836C143.834 71.9925 143.272 70.4184 142.442 69.1434C141.612 67.8683 140.524 66.8514 139.655 65.9914C138.785 65.1315 138.212 64.3844 138.163 64.048C137.226 57.6145 135.998 49.7935 135.104 42.5449C134.21 35.3072 133.664 28.6259 134.047 24.5912C134.206 24.3152 134.369 24.0529 134.467 23.6984C134.606 23.1907 134.706 22.5934 134.766 21.9346C134.886 20.6169 134.847 19.047 134.554 17.5251C134.261 16.0032 133.724 14.5201 132.763 13.4041C131.801 12.2881 130.348 11.5962 128.576 11.7873H128.576ZM120.982 15.4564C120.886 15.4663 120.792 15.4951 120.707 15.5412C120.621 15.5873 120.546 15.6499 120.485 15.7252C120.423 15.8006 120.378 15.8873 120.35 15.9804C120.322 16.0734 120.313 16.171 120.324 16.2676C120.333 16.3647 120.362 16.4588 120.409 16.5446C120.455 16.6305 120.518 16.7062 120.594 16.7675C120.67 16.8287 120.758 16.8743 120.851 16.9016C120.945 16.9289 121.043 16.9372 121.14 16.9263C122.483 16.7813 123.339 17.215 124.047 18.0368C124.755 18.8586 125.244 20.1173 125.506 21.4773C125.768 22.8373 125.81 24.2941 125.702 25.4731C125.648 26.0626 125.555 26.5805 125.446 26.9756C125.338 27.3706 125.189 27.6414 125.158 27.6778C125.056 27.7936 124.993 27.9382 124.978 28.0915C124.563 32.407 125.163 39.1122 126.072 46.3937C126.981 53.6752 128.21 61.5073 129.104 67.9294C129.25 68.9734 129.928 69.9435 130.683 71.0977C131.438 72.252 132.302 73.5359 132.931 74.8594C133.561 76.1829 133.945 77.5269 133.808 78.8116C133.67 80.0963 133.048 81.3729 131.451 82.6822C131.348 82.7652 131.27 82.8742 131.224 82.9977C131.178 83.1212 131.166 83.2547 131.189 83.3844C133.436 96.0957 134.673 102.477 140.683 122.433C140.741 122.62 140.87 122.776 141.042 122.868C141.215 122.96 141.416 122.98 141.603 122.923C141.79 122.867 141.947 122.739 142.04 122.568C142.133 122.396 142.154 122.195 142.099 122.008C136.132 102.198 134.901 95.8738 132.681 83.3191C134.144 81.9443 135.112 80.468 135.272 78.9695C135.451 77.2969 134.96 75.69 134.265 74.2279C133.57 72.7659 132.657 71.4298 131.914 70.292C131.17 69.1543 130.629 68.1603 130.569 67.728C129.671 61.285 128.442 53.4565 127.537 46.2086C126.633 38.9715 126.064 32.2927 126.448 28.2603C126.607 27.9844 126.775 27.7222 126.872 27.3675C127.012 26.8598 127.112 26.2625 127.172 25.6037C127.292 24.286 127.247 22.7216 126.954 21.1997C126.661 19.6777 126.124 18.1947 125.163 17.0787C124.202 15.9627 122.754 15.2654 120.982 15.4564H120.982ZM16.1997 17.5033C12.6015 19.5045 11.575 22.4879 11.997 25.2607C12.4003 27.9104 13.9903 30.3246 15.4266 32.1526C16.2168 40.4705 16.8932 48.2689 17.1632 61.5601C17.1772 62.2075 16.8389 63.063 16.2977 64.0425C15.7565 65.0221 15.0379 66.1139 14.4468 67.3088C13.8556 68.5037 13.3824 69.818 13.3907 71.2501C13.399 72.5383 13.9906 73.9033 14.9802 75.2514C14.4859 86.2387 10.9547 100.585 8.6763 106.907C8.64301 106.999 8.62816 107.096 8.63261 107.193C8.63705 107.29 8.66071 107.386 8.70221 107.474C8.74371 107.562 8.80222 107.641 8.87439 107.706C8.94656 107.771 9.03095 107.822 9.1227 107.854C9.30679 107.92 9.50936 107.91 9.68594 107.826C9.86252 107.742 9.99867 107.592 10.0645 107.408C12.4217 100.867 15.9704 86.5081 16.4664 75.2568C16.4738 75.0722 16.4117 74.8915 16.2922 74.7505C15.2268 73.4705 14.8723 72.3376 14.8659 71.2393C14.8604 70.1409 15.2315 69.0497 15.7696 67.9621C16.3077 66.8745 17.007 65.8071 17.5878 64.7557C18.1687 63.7043 18.6614 62.6559 18.6385 61.5275C18.367 48.166 17.6844 40.2886 16.891 31.9403C16.8778 31.7971 16.823 31.6608 16.7333 31.5484C15.3346 29.8133 13.8093 27.3578 13.4561 25.0376C13.1029 22.7173 13.7234 20.5674 16.9129 18.7935C16.9983 18.7466 17.0736 18.6833 17.1344 18.6072C17.1952 18.5311 17.2403 18.4437 17.2671 18.3501C17.2939 18.2564 17.3019 18.1584 17.2907 18.0617C17.2794 17.9649 17.2491 17.8714 17.2015 17.7864C17.1059 17.6163 16.9468 17.491 16.7591 17.4379C16.5713 17.3849 16.3702 17.4084 16.1998 17.5033H16.1997ZM21.3985 18.2219C17.772 20.2389 16.7748 23.5151 17.185 26.5618C17.5777 29.4791 19.1497 32.1665 20.6092 34.0471C21.4024 42.3817 22.3819 50.3014 22.0191 63.5635C22.0052 64.1143 21.5821 64.8871 20.9086 65.79C20.235 66.6929 19.3589 67.7127 18.644 68.8875C17.929 70.0623 17.3737 71.4188 17.43 72.9704C17.4815 74.394 18.2311 75.9605 19.5204 77.5868C19.0274 88.624 17.4077 101.3 14.9204 112.4C14.8991 112.495 14.8967 112.593 14.9134 112.688C14.93 112.784 14.9655 112.875 15.0175 112.957C15.0696 113.039 15.1374 113.11 15.2169 113.166C15.2965 113.222 15.3863 113.261 15.4811 113.282C15.6716 113.323 15.8708 113.288 16.0351 113.182C16.1993 113.077 16.3152 112.912 16.3575 112.721C18.8748 101.488 20.5147 88.7032 21.0066 77.5486C21.0152 77.3596 20.9508 77.1744 20.8268 77.0315C19.4358 75.4216 18.9421 74.0907 18.8997 72.9214C18.8573 71.7521 19.2713 70.685 19.9013 69.6497C20.5314 68.6143 21.3754 67.6367 22.0952 66.6719C22.8149 65.7071 23.463 64.7445 23.4942 63.6016C23.8604 50.2169 22.8651 42.1765 22.0734 33.8457C22.0586 33.7018 22.0018 33.5655 21.9101 33.4537C20.5368 31.7502 19.0044 29.0042 18.6492 26.3658C18.294 23.7274 18.9558 21.2702 22.1169 19.5121C22.2019 19.4648 22.2766 19.4011 22.3368 19.3248C22.3971 19.2485 22.4417 19.161 22.468 19.0674C22.4943 18.9738 22.5018 18.8759 22.4901 18.7794C22.4785 18.6828 22.4479 18.5896 22.4 18.505C22.3044 18.3349 22.1454 18.2096 21.9577 18.1566C21.7699 18.1035 21.5688 18.127 21.3984 18.2219H21.3985ZM113.089 18.3796C112.997 18.3473 112.9 18.3334 112.803 18.3386C112.706 18.3438 112.612 18.3681 112.524 18.4101C112.437 18.4521 112.358 18.5109 112.294 18.5832C112.229 18.6555 112.179 18.7399 112.147 18.8315C112.084 19.0163 112.096 19.2187 112.182 19.3942C112.268 19.5698 112.42 19.7041 112.604 19.7678C113.3 20.0106 113.922 20.6305 114.417 21.5589C114.912 22.4872 115.255 23.6998 115.402 24.983C115.697 27.5494 115.159 30.3728 113.976 31.766C113.878 31.881 113.817 32.0235 113.802 32.1743C113.387 36.4986 114.114 42.6692 115.152 49.4094C116.19 56.1496 117.553 63.4386 118.445 69.8456C118.588 70.8652 119.213 71.838 119.91 72.992C120.607 74.1461 121.4 75.4302 121.957 76.7537C122.514 78.0773 122.83 79.4209 122.643 80.7169C122.455 82.0128 121.789 83.3077 120.188 84.6201C120.099 84.6931 120.029 84.7858 119.983 84.8907C119.936 84.9955 119.915 85.1098 119.921 85.2243C120.415 96.3952 122.26 102.33 128.484 126.211C128.533 126.4 128.655 126.562 128.824 126.661C128.992 126.76 129.193 126.788 129.382 126.739C129.476 126.715 129.565 126.672 129.642 126.613C129.72 126.554 129.785 126.481 129.834 126.397C129.883 126.313 129.915 126.22 129.928 126.124C129.941 126.027 129.935 125.929 129.91 125.835C123.712 102.052 121.905 96.2357 121.407 85.3006C122.901 83.9198 123.884 82.4358 124.102 80.9292C124.343 79.2634 123.936 77.6501 123.318 76.1821C122.7 74.7141 121.863 73.3723 121.173 72.2299C120.483 71.0876 119.968 70.0954 119.904 69.6387C119.005 63.1806 117.644 55.893 116.611 49.1863C115.579 42.486 114.888 36.3539 115.272 32.3321C116.699 30.3951 117.178 27.5264 116.867 24.8143C116.702 23.3812 116.328 22.0061 115.718 20.8621C115.108 19.718 114.247 18.7836 113.089 18.3796H113.089ZM28.2196 20.911C24.3364 22.4135 22.4986 25.5593 22.3403 28.6957C22.1898 31.6764 23.5387 34.5971 25.8026 36.3878C26.6285 44.7866 29.3596 52.9358 27.6752 65.9368C27.5741 66.7173 27.047 67.8616 26.3905 69.1215C25.734 70.3814 24.9653 71.7768 24.4416 73.237C23.9179 74.6972 23.6299 76.249 24.0606 77.7772C24.4443 79.1386 25.6508 80.3482 27.3105 81.4191C26.8155 92.4592 25.576 105.945 23.1024 116.984C23.0812 117.078 23.0788 117.176 23.0954 117.272C23.1121 117.368 23.1475 117.459 23.1996 117.541C23.2517 117.623 23.3195 117.694 23.399 117.749C23.4786 117.805 23.5683 117.845 23.6631 117.865C23.8537 117.909 24.0536 117.874 24.219 117.77C24.3843 117.666 24.5016 117.501 24.545 117.31C27.0676 106.053 28.3111 92.3862 28.8021 81.2503C28.808 81.1141 28.7761 80.9788 28.7098 80.8597C28.6434 80.7405 28.5454 80.6421 28.4265 80.5753C26.6043 79.561 25.794 78.4889 25.4814 77.3798C25.1688 76.2707 25.3621 75.0367 25.8298 73.7324C26.2976 72.4281 27.0347 71.0836 27.7025 69.802C28.3702 68.5204 28.9857 67.3154 29.1396 66.1274C30.8725 52.7517 28.027 44.2878 27.2452 36.0612C27.2351 35.9551 27.2021 35.8525 27.1485 35.7604C27.0949 35.6683 27.0221 35.5889 26.9349 35.5277C24.9229 34.1151 23.6825 31.4077 23.8155 28.7719C23.9485 26.1361 25.3502 23.5974 28.7477 22.2829C28.8381 22.2482 28.9208 22.196 28.9911 22.1294C29.0614 22.0628 29.1179 21.9829 29.1573 21.8945C29.1967 21.806 29.2183 21.7107 29.2209 21.6139C29.2235 21.517 29.207 21.4207 29.1723 21.3302C29.1012 21.1486 28.9611 21.0024 28.7825 20.9239C28.604 20.8453 28.4016 20.8407 28.2196 20.911ZM100.312 21.1017C100.127 21.0383 99.9249 21.0509 99.7494 21.1366C99.5738 21.2224 99.4395 21.3742 99.3758 21.559C99.3122 21.7431 99.324 21.9448 99.4087 22.1203C99.4933 22.2957 99.6439 22.4305 99.8276 22.4953C100.523 22.7381 101.151 23.3579 101.646 24.2863C102.141 25.2147 102.484 26.4273 102.631 27.7105C102.925 30.2769 102.382 33.1003 101.199 34.4935C101.101 34.6085 101.04 34.751 101.025 34.9018C100.61 39.2261 101.343 45.3967 102.381 52.1369C103.419 58.8771 104.776 66.1661 105.669 72.573C105.811 73.5926 106.437 74.5654 107.133 75.7195C107.83 76.8736 108.623 78.1576 109.18 79.4812C109.737 80.8047 110.054 82.1484 109.866 83.4443C109.678 84.7402 109.012 86.0351 107.411 87.3475C107.322 87.4206 107.252 87.5132 107.206 87.6181C107.16 87.723 107.139 87.8373 107.144 87.9518C107.639 99.1399 109.941 106.578 116.165 130.457C116.214 130.646 116.336 130.808 116.504 130.907C116.673 131.006 116.874 131.034 117.063 130.985C117.157 130.961 117.245 130.918 117.323 130.859C117.401 130.801 117.466 130.727 117.515 130.643C117.564 130.559 117.596 130.466 117.609 130.37C117.622 130.274 117.616 130.176 117.591 130.082C111.389 106.284 109.135 98.959 108.636 88.0171C110.123 86.639 111.107 85.1597 111.325 83.6566C111.566 81.9908 111.159 80.3776 110.541 78.9096C109.923 77.4416 109.086 76.0997 108.396 74.9574C107.707 73.8151 107.191 72.8228 107.128 72.3661C106.228 65.908 104.867 58.6204 103.834 51.9137C102.803 45.2156 102.112 39.0869 102.495 35.0651C103.926 33.1281 104.407 30.2565 104.096 27.5417C103.931 26.1087 103.557 24.7335 102.947 23.5895C102.337 22.4455 101.47 21.5056 100.312 21.1017ZM36.0968 22.1632C32.2095 23.6673 30.3392 26.8661 30.1358 30.0513C29.943 33.0724 31.2463 36.0377 33.5056 37.8414C34.3113 46.2242 36.2122 57.8681 34.5236 70.9017C34.4218 71.6875 33.904 72.844 33.2606 74.1245C32.6172 75.405 31.8642 76.8253 31.3607 78.3108C30.8573 79.7963 30.5949 81.3738 31.0395 82.9163C31.4372 84.2958 32.6482 85.52 34.3222 86.5963C33.8433 97.5795 34.1064 103.448 33.5056 122.591C33.5023 122.688 33.5181 122.784 33.5522 122.875C33.5862 122.966 33.6379 123.049 33.7041 123.12C33.7704 123.191 33.8499 123.248 33.9382 123.288C34.0265 123.328 34.1218 123.35 34.2187 123.353C34.3156 123.356 34.4122 123.34 34.5029 123.306C34.5937 123.272 34.6768 123.221 34.7476 123.154C34.8184 123.088 34.8755 123.009 34.9155 122.92C34.9555 122.832 34.9777 122.737 34.9808 122.64C35.5865 103.346 35.3128 97.5003 35.8029 86.4221C35.8093 86.2844 35.777 86.1476 35.7096 86.0274C35.6423 85.9071 35.5426 85.8081 35.4218 85.7416C33.6009 84.728 32.787 83.6409 32.4604 82.508C32.1337 81.375 32.309 80.1142 32.7598 78.7844C33.2104 77.4546 33.9252 76.0878 34.578 74.7886C35.2308 73.4895 35.8347 72.275 35.9879 71.0923C37.7189 57.7314 35.7421 45.827 34.9536 37.5311C34.9435 37.4251 34.9105 37.3224 34.857 37.2304C34.8034 37.1383 34.7305 37.0589 34.6433 36.9976C32.6414 35.592 31.4391 32.8385 31.6111 30.1439C31.7831 27.4492 33.2315 24.8535 36.6249 23.5405C36.7153 23.5058 36.798 23.4537 36.8683 23.3871C36.9386 23.3204 36.9951 23.2406 37.0345 23.1521C37.0739 23.0637 37.0956 22.9683 37.0981 22.8715C37.1007 22.7746 37.0842 22.6783 37.0495 22.5878C37.0148 22.4974 36.9627 22.4147 36.896 22.3444C36.8294 22.2741 36.7496 22.2176 36.6611 22.1782C36.5726 22.1388 36.4773 22.1171 36.3805 22.1146C36.2836 22.112 36.1872 22.1285 36.0968 22.1632ZM91.6347 23.2302C91.541 23.2051 91.4434 23.1987 91.3472 23.2114C91.2511 23.224 91.1584 23.2556 91.0745 23.3041C90.9905 23.3527 90.917 23.4173 90.858 23.4943C90.7991 23.5713 90.756 23.6591 90.731 23.7528C90.7059 23.8465 90.6995 23.9441 90.7122 24.0403C90.7249 24.1364 90.7564 24.2291 90.8049 24.313C90.8535 24.3969 90.9181 24.4705 90.9951 24.5294C91.0721 24.5884 91.1599 24.6315 91.2536 24.6565C93.9013 25.3627 95.0761 27.4579 95.2875 29.8989C95.4988 32.3399 94.5976 35.0365 93.1372 36.4532C93.0109 36.5744 92.9318 36.7364 92.9139 36.9105C92.0997 45.4785 94.5077 60.8407 95.3201 74.1081C95.3945 75.3237 95.9758 76.5796 96.6702 77.9352C97.3646 79.2907 98.1945 80.7259 98.8422 82.1323C99.4899 83.5388 99.9437 84.912 99.9582 86.0791C99.9721 87.2462 99.6266 88.2011 98.5156 89.0895C98.4245 89.162 98.3519 89.2551 98.3036 89.3611C98.2554 89.467 98.2329 89.5829 98.238 89.6992C98.7306 100.834 99.826 108.324 106.055 132.226C106.105 132.415 106.227 132.577 106.395 132.676C106.564 132.775 106.764 132.803 106.954 132.754C107.143 132.705 107.304 132.583 107.403 132.415C107.502 132.246 107.531 132.045 107.482 131.856C101.265 108.002 100.203 100.712 99.7133 89.6557C100.743 88.5895 101.45 87.3699 101.434 86.0628C101.414 84.5424 100.868 83.0089 100.181 81.5172C99.4945 80.0255 98.6517 78.5728 97.9821 77.2656C97.3125 75.9584 96.8369 74.7813 96.7899 74.0156C95.9731 60.6758 93.6349 45.2706 94.3893 37.1337C96.0781 35.2825 96.9925 32.4899 96.7573 29.7737C96.5087 26.9021 94.9051 24.1025 91.6347 23.2302ZM43.6855 23.5841C43.4932 23.5559 43.2976 23.6048 43.1411 23.7201C40.4522 25.6937 39.6175 29.4569 39.6244 32.6697C39.6272 34.2761 39.8474 35.7555 40.2287 36.8887C40.4193 37.4553 40.6441 37.9387 40.9582 38.3258C41.0964 38.4964 41.3693 38.4981 41.5679 38.6198C42.3981 47.066 45.129 60.2176 43.4514 73.1663C43.3497 73.9521 42.8265 75.103 42.183 76.3836C41.5396 77.6641 40.7866 79.0898 40.2831 80.5753C39.7797 82.0609 39.5227 83.6384 39.9674 85.1808C40.365 86.5601 41.5712 87.7793 43.2446 88.8554C42.7658 99.8704 43.1052 107.283 42.5042 126.429C42.5009 126.526 42.5167 126.622 42.5508 126.713C42.5849 126.804 42.6365 126.887 42.7028 126.958C42.769 127.028 42.8485 127.085 42.9368 127.125C43.0251 127.165 43.1205 127.188 43.2173 127.191C43.3142 127.194 43.4108 127.178 43.5016 127.144C43.5923 127.11 43.6755 127.058 43.7463 126.992C43.8171 126.926 43.8741 126.846 43.9141 126.758C43.9541 126.67 43.9763 126.575 43.9795 126.478C44.5852 107.18 44.2356 99.753 44.7253 88.6812C44.7312 88.5449 44.6992 88.4097 44.6329 88.2905C44.5666 88.1714 44.4686 88.0729 44.3497 88.0061C42.5288 86.9925 41.7094 85.9055 41.3828 84.7725C41.0561 83.6395 41.2314 82.3787 41.6822 81.0489C42.1329 79.7191 42.8531 78.3469 43.5059 77.0477C44.1586 75.7486 44.7572 74.534 44.9104 73.3514C46.6465 59.9511 43.7839 46.4434 42.9996 38.1897C42.981 37.9958 42.8864 37.817 42.7365 37.6926C42.5865 37.5682 42.3934 37.5081 42.1993 37.5256C42.2554 37.52 42.2459 37.5663 42.1068 37.3949C41.9677 37.2234 41.7824 36.8799 41.6278 36.4204C41.3185 35.5013 41.1029 34.1342 41.0997 32.6642C41.0942 29.7241 41.9564 26.4156 44.0122 24.9067C44.1692 24.791 44.274 24.6177 44.3036 24.4249C44.3331 24.232 44.2851 24.0353 44.1699 23.8778C44.1125 23.7993 44.0402 23.7329 43.957 23.6825C43.8739 23.632 43.7816 23.5985 43.6854 23.5839L43.6855 23.5841ZM81.2261 24.4006C81.1484 24.4588 81.083 24.5317 81.0335 24.6152C80.9841 24.6987 80.9516 24.7912 80.9379 24.8873C80.9243 24.9834 80.9297 25.0812 80.954 25.1752C80.9782 25.2692 81.0208 25.3575 81.0792 25.435C82.3387 27.125 82.934 30.2149 83.0226 32.9692C83.067 34.3463 82.9948 35.6421 82.8649 36.6329C82.7991 37.1283 82.7135 37.5438 82.6307 37.8469C82.548 38.1499 82.4281 38.3514 82.473 38.2987C82.3744 38.4137 82.3136 38.5562 82.2988 38.707C81.4795 47.328 84.7973 62.631 84.6995 75.8502C84.6828 77.9227 85.4951 80.162 86.1693 82.9326C86.8435 85.7032 87.4116 88.9875 87.024 93.0526C87.0213 93.0889 87.0213 93.1254 87.024 93.1617C87.5992 104.606 88.4452 113.822 90.9817 133.734C90.9934 133.831 91.024 133.923 91.0717 134.008C91.1194 134.092 91.1832 134.166 91.2596 134.226C91.3359 134.286 91.4233 134.33 91.5166 134.355C91.61 134.381 91.7075 134.389 91.8037 134.377C91.9004 134.365 91.9938 134.334 92.0785 134.286C92.1632 134.238 92.2376 134.174 92.2973 134.097C92.3571 134.02 92.4009 133.932 92.4265 133.838C92.452 133.744 92.4587 133.646 92.4461 133.549C89.9116 113.652 89.0729 104.498 88.4993 93.0854L88.4937 93.1944C88.9015 88.9176 88.2936 85.4309 87.6009 82.5844C86.9083 79.7379 86.1623 77.5136 86.1747 75.8613C86.2742 62.3998 83.0076 46.9373 83.7685 38.8651C83.8663 38.6663 83.9901 38.4843 84.0571 38.239C84.1652 37.843 84.2518 37.3672 84.3238 36.8236C84.4679 35.7364 84.5395 34.3768 84.4927 32.9204C84.3988 30.0076 83.8756 26.7203 82.2607 24.5533C82.2029 24.4752 82.1303 24.4092 82.047 24.3592C81.9637 24.3093 81.8713 24.2763 81.7752 24.2621C81.6791 24.2479 81.5811 24.2529 81.487 24.2767C81.3928 24.3005 81.3042 24.3427 81.2264 24.4008L81.2261 24.4006ZM52.3412 25.1628C52.2437 25.1585 52.1464 25.1737 52.0548 25.2073C51.9632 25.2409 51.8792 25.2924 51.8077 25.3587C50.0573 26.9702 49.7976 29.9668 49.886 32.8712C49.9744 35.7756 50.5076 38.591 50.9693 39.9808L50.9415 39.8665C52.2423 48.0676 53.1332 62.2204 51.6274 75.3875C51.0976 80.0199 49.3752 85.7704 52.1772 91.6264L52.1064 91.3161C52.2483 102.808 53.4934 109.559 52.2098 129.543C52.2035 129.639 52.2164 129.737 52.2478 129.829C52.2792 129.92 52.3284 130.005 52.3926 130.078C52.4569 130.151 52.5349 130.21 52.6222 130.253C52.7094 130.296 52.8043 130.321 52.9012 130.326C53.0961 130.339 53.288 130.274 53.435 130.146C53.5819 130.017 53.6719 129.835 53.6851 129.641C54.974 109.575 53.7225 102.692 53.5817 91.2997C53.581 91.1924 53.5568 91.0865 53.5109 90.9894C50.9744 85.6883 52.5438 80.3953 53.0972 75.5562C54.624 62.2059 53.7203 47.9883 52.3949 39.6324C52.3887 39.5937 52.3794 39.5554 52.367 39.5182C51.9929 38.3922 51.4435 35.5739 51.3599 32.8277C51.2763 30.0815 51.7538 27.4126 52.808 26.4421C52.9513 26.3098 53.0363 26.1261 53.0444 25.9312C53.0526 25.7363 52.9832 25.5461 52.8515 25.4023C52.7861 25.3307 52.7073 25.2727 52.6195 25.2317C52.5317 25.1906 52.4366 25.1672 52.3398 25.1629L52.3412 25.1628ZM71.9389 25.2606C71.7951 25.1289 71.6049 25.0595 71.4101 25.0677C71.2152 25.0758 71.0315 25.1608 70.8992 25.3041C70.7675 25.4479 70.6981 25.6381 70.7062 25.8329C70.7144 26.0278 70.7994 26.2115 70.9426 26.3439C71.9968 27.3144 72.4743 29.9833 72.3907 32.7295C72.3071 35.4756 71.7577 38.294 71.3836 39.4199C71.3694 39.4589 71.3584 39.499 71.351 39.5398C69.9992 48.0619 71.8272 63.5555 73.3434 76.8136C73.8968 81.6527 75.4662 86.9457 72.9297 92.2468C72.8838 92.3438 72.8596 92.4498 72.8589 92.5571C72.7173 104.016 72.9821 113.266 74.2689 133.299C74.2747 133.396 74.2997 133.49 74.3423 133.578C74.3849 133.665 74.4443 133.743 74.5172 133.807C74.59 133.871 74.6748 133.921 74.7667 133.952C74.8586 133.983 74.9558 133.996 75.0528 133.99C75.1497 133.984 75.2445 133.959 75.3318 133.917C75.4191 133.874 75.4971 133.815 75.5613 133.742C75.6255 133.669 75.6748 133.584 75.7061 133.492C75.7375 133.4 75.7504 133.303 75.7441 133.206C74.4584 113.19 74.1931 103.999 74.3342 92.5735L74.2634 92.8838C77.0653 87.0278 75.343 81.2773 74.8132 76.6448C73.2968 63.3855 71.5354 47.8032 72.8099 39.7684L72.782 39.8883C73.2438 38.4985 73.7715 35.6776 73.8599 32.7731C73.9482 29.8687 73.6887 26.8723 71.9382 25.2607L71.9389 25.2606ZM62.7117 25.6308C62.5174 25.6222 62.3276 25.6907 62.1836 25.8214C60.4332 27.433 60.1735 30.4349 60.2619 33.3393C60.3503 36.2437 60.8781 39.0592 61.3398 40.449L61.312 40.3291C62.6062 48.489 63.0762 64.4707 62.4388 77.7554C62.0857 85.1153 61.2933 85.3428 63.0322 94.0597C63.1769 105.492 64.0796 111.699 62.7981 131.649C62.7918 131.746 62.8047 131.843 62.8361 131.935C62.8675 132.027 62.9167 132.112 62.9809 132.185C63.0452 132.258 63.1231 132.317 63.2104 132.36C63.2977 132.402 63.3925 132.427 63.4895 132.433C63.5864 132.439 63.6836 132.426 63.7755 132.395C63.8674 132.364 63.9522 132.315 64.0251 132.25C64.0979 132.186 64.1573 132.108 64.1999 132.021C64.2425 131.934 64.2675 131.839 64.2734 131.742C65.5616 111.685 64.6483 105.384 64.5075 93.978C64.5062 93.9322 64.5006 93.8867 64.4908 93.842C62.7409 85.1038 63.5541 85.3228 63.9137 77.8263C64.5554 64.4514 64.1024 48.4976 62.7705 40.1006C62.7646 40.0599 62.7553 40.0198 62.7427 39.9807C62.3686 38.8548 61.8137 36.0419 61.7301 33.2957C61.6465 30.5495 62.1241 27.8806 63.1782 26.9101C63.2499 26.8445 63.308 26.7653 63.349 26.6772C63.3901 26.5891 63.4133 26.4937 63.4173 26.3966C63.4214 26.2994 63.4062 26.2024 63.3726 26.1112C63.339 26.0199 63.2877 25.9362 63.2217 25.8649C63.0887 25.7223 62.9047 25.6381 62.7099 25.6308H62.7117Z" fill="#4D4D4D"/>
<path d="M155.371 0.0234074C153.971 0.157473 152.62 0.845004 151.74 2.08117L152.012 1.84704C106.564 24.2786 61.7343 33.1842 17.7891 17.0407L17.8435 17.063C15.1233 15.8156 12.8811 15.6169 11.1475 16.2465C9.41397 16.876 8.29451 18.3344 7.81051 20.0462C6.84685 23.4545 8.12591 27.9678 11.3272 30.8087C11.3417 30.9389 11.3905 31.0629 11.4688 31.168C11.4911 31.1763 11.5126 31.1819 11.534 31.1903C11.6873 31.4065 11.8602 31.6314 12.0621 32.1702C12.3325 32.8916 12.5992 33.8515 12.8406 34.9574C13.3232 37.1692 13.7102 39.9797 13.9293 42.8074C14.1484 45.635 14.1997 48.4839 14.0219 50.7772C13.9329 51.9238 13.7869 52.9329 13.5864 53.7113C13.3857 54.4898 13.1092 55.0318 12.9113 55.2357C11.1062 57.0947 9.74474 58.105 8.75226 59.2804C7.75979 60.4558 7.23553 61.8359 7.27155 63.9784C7.28269 64.7224 8.20036 65.5454 8.66516 66.3083C6.83378 67.0854 5.52745 68.8114 4.68027 71.1806C3.72963 73.8391 3.18131 77.2031 2.76404 80.7835C1.92951 87.9443 1.5953 96.0107 0.0421313 100.414C0.00980314 100.505 -0.00415419 100.602 0.00106873 100.699C0.00629165 100.796 0.030607 100.891 0.0725827 100.979C0.114558 101.066 0.173388 101.144 0.2457 101.209C0.318013 101.274 0.402371 101.324 0.493968 101.356C0.585464 101.388 0.682445 101.402 0.779344 101.397C0.876242 101.392 0.971167 101.367 1.05866 101.325C1.14615 101.283 1.22448 101.224 1.28919 101.152C1.3539 101.08 1.40371 100.995 1.43575 100.904C3.14841 96.0485 3.40942 88.032 4.23387 80.9577C4.64609 77.4205 5.19162 74.1281 6.06846 71.676C6.89295 69.3703 7.98782 67.9899 9.38373 67.506C9.7937 68.0129 9.76143 68.4563 10.2765 68.9976C12.0099 70.8193 14.3208 72.7891 16.7438 74.6646C19.1667 76.5402 21.6975 78.3185 23.8752 79.7274C26.0529 81.1363 27.8345 82.1661 28.9162 82.6017C29.0974 82.6744 29.3 82.6721 29.4796 82.5956C29.6592 82.5191 29.8011 82.3744 29.8743 82.1934C29.9469 82.0122 29.9447 81.8096 29.8682 81.63C29.7916 81.4504 29.647 81.3084 29.466 81.2353C28.634 80.9002 26.8222 79.8716 24.6809 78.4862C22.5395 77.1008 20.0274 75.3461 17.642 73.4996C15.2566 71.6532 12.9916 69.7117 11.3435 67.9796C9.6954 66.2475 8.75837 64.6431 8.7468 63.9566C8.71447 62.0352 9.05819 61.1999 9.87911 60.2276C10.7001 59.2554 12.0942 58.1882 13.9674 56.2591C14.4875 55.7235 14.7796 54.9861 15.0126 54.0816C15.2456 53.177 15.3984 52.0953 15.4917 50.8914C15.6782 48.4838 15.6227 45.5789 15.3992 42.6931C15.1756 39.8072 14.7807 36.9462 14.2778 34.6417C14.0411 33.5566 13.781 32.623 13.4939 31.8272C61.908 51.0857 117.509 36.8607 155.948 13.7429C155.939 13.9725 155.918 14.1609 155.92 14.4287C155.931 15.5173 156.039 16.9275 156.219 18.5606C156.581 21.8268 157.25 25.9882 158.119 30.1396C158.989 34.291 160.056 38.4288 161.228 41.6587C161.813 43.2737 162.42 44.6607 163.068 45.7307C163.715 46.8007 164.379 47.6055 165.316 47.8919C167.098 48.4366 167.799 49.188 168.005 50.1239C168.211 51.0597 167.861 52.3994 166.927 53.9836C165.059 57.1519 161.032 61.142 156.513 64.9692C151.994 68.7964 146.98 72.4932 143.1 75.2253C139.22 77.9575 136.48 79.7219 136.48 79.7219C136.366 79.7945 136.275 79.8968 136.215 80.0178C136.156 80.1387 136.131 80.2736 136.142 80.4079C136.151 80.5044 136.178 80.5983 136.223 80.6842C136.268 80.7701 136.329 80.8463 136.404 80.9085C136.478 80.9707 136.564 81.0176 136.656 81.0466C136.749 81.0756 136.846 81.0861 136.943 81.0774C136.943 81.0774 140.047 79.1763 143.949 76.4284C147.851 73.6805 152.894 69.9685 157.466 66.096C161.184 62.9468 163.943 59.8282 166.192 56.8525C169.926 60.5519 171.215 68.5044 172.284 76.5264C172.836 80.6697 173.369 84.7952 174.298 88.3286C175.227 91.862 176.54 94.8443 178.811 96.5978C178.966 96.7175 179.161 96.771 179.355 96.7465C179.549 96.722 179.726 96.6215 179.845 96.4671C179.965 96.3125 180.019 96.1168 179.994 95.9228C179.97 95.7288 179.869 95.5526 179.715 95.4327C177.878 94.0149 176.617 91.3467 175.724 87.9529C174.832 84.5591 174.296 80.4818 173.743 76.3358C172.672 68.3033 171.572 60.0635 167.199 55.7854C167.425 55.4529 168.004 55.0535 168.196 54.7293C169.225 52.984 169.783 51.3301 169.448 49.808C169.112 48.286 167.82 47.1159 165.746 46.4819C165.464 46.3957 164.896 45.8977 164.33 44.9631C163.765 44.0285 163.176 42.7121 162.61 41.1524C161.479 38.0329 160.422 33.9411 159.562 29.8347C158.702 25.7283 158.038 21.6014 157.684 18.3972C157.506 16.7952 157.406 15.4245 157.395 14.4178C157.389 13.9144 157.409 13.5005 157.444 13.2147C157.479 12.9289 157.583 12.7608 157.504 12.8663C159.582 10.0859 160.567 7.73987 160.77 5.78931C160.973 3.83874 160.343 2.27504 159.279 1.29271C158.214 0.310405 156.769 -0.109738 155.37 0.0243005L155.371 0.0234074ZM155.528 1.52046C156.531 1.42764 157.564 1.71139 158.283 2.37514C159.002 3.03889 159.465 4.05841 159.301 5.63599C159.141 7.17136 158.266 9.27293 156.405 11.8147C117.826 35.4094 61.0988 50.109 12.4321 29.9318C12.3873 29.886 12.3717 29.7946 12.3232 29.7522C9.54782 27.3162 8.45686 23.1869 9.23104 20.4487C9.61816 19.0797 10.4022 18.0888 11.6535 17.6343C12.9049 17.1798 14.732 17.2627 17.228 18.4073C17.2458 18.4155 17.264 18.4229 17.2824 18.4296C61.6975 34.7458 107.01 25.7041 152.665 3.17062C152.775 3.11693 152.871 3.03645 152.942 2.93649C153.551 2.08206 154.525 1.61384 155.528 1.52105L155.528 1.52046ZM124.412 83.5588C95.6018 90.4629 67.3251 93.7783 40.4188 87.0647C40.229 87.0177 40.0282 87.0482 39.8608 87.1492C39.6934 87.2503 39.5729 87.4137 39.526 87.6036C39.4789 87.7927 39.5086 87.9928 39.6086 88.16C39.7085 88.3273 39.8707 88.4482 40.0595 88.4964C67.3118 95.2963 95.8364 91.9261 124.755 84.996C124.849 84.9734 124.938 84.9322 125.017 84.875C125.095 84.8179 125.162 84.7457 125.212 84.6628C125.263 84.5798 125.297 84.4877 125.311 84.3916C125.326 84.2956 125.322 84.1976 125.299 84.1032C125.253 83.9135 125.134 83.7497 124.968 83.6477C124.801 83.5457 124.601 83.5137 124.412 83.5588Z" fill="#1A1A1A"/>
</svg>
