<svg width="180" height="135" viewBox="0 0 180 135" fill="none" xmlns="http://www.w3.org/2000/svg">
<path d="M146.818 1.54248C142.41 22.3328 128.88 33.5376 113.294 42.5822C87.0414 64.439 63.0222 88.2337 60.7367 130.886C77.5783 138.427 138.514 136.878 180 89.6845C171.33 73.7158 162.634 57.8407 155.688 35.6738C154.529 19.3788 151.466 8.29083 146.818 1.54248ZM15.7874 12.7096C15.7874 12.7096 -1.07047 35.7651 3.83862 43.5502C8.74774 51.3353 11.3742 52.4558 11.3742 52.4558L7.73715 59.0859L10.9403 63.4281L0.328125 102.343C11.0139 113.277 22.3956 118.058 33.2939 122.009C37.4021 95.0053 34.1514 69.106 20.7777 48.535C16.3698 40.5029 16.2963 26.2966 15.7874 12.7096Z" fill="#FFB669"/>
<path d="M138.696 22.9932L113.868 42.7585L115.017 58.2358L118.686 58.514C120.797 43.9411 132.153 35.9587 139.016 24.7734L138.696 22.9932ZM103.103 51.6279L95.3186 59.0689C98.8441 64.5595 98.8656 70.5231 98.0753 76.5963L109.011 72.2833C107.975 65.6688 106.656 58.9723 103.103 51.6279ZM11.5494 63.5071C11.5494 63.5071 6.55479 80.4518 5.37265 83.634C4.19049 86.8162 0.92334 101.711 0.92334 101.711L1.86633 102.248C5.55078 91.9242 8.25359 83.8512 16.5092 68.318L11.5494 63.5071ZM148.77 90.8442L144.025 96.3769C150.582 100.464 157.554 104.577 159.41 108.366L168.488 101.02C163.386 97.0437 158.607 92.9395 148.77 90.8442ZM79.3475 91.0987L74.5561 98.1684C74.9246 110.641 76.6418 128.845 75.2153 133.686C80.5154 134.519 85.8533 134.841 91.3325 133.259C89.7137 126.945 86.4395 112.74 79.3475 91.0987Z" fill="#67673D"/>
<path d="M28.028 63.2944C27.9844 63.2508 36.6308 57.4896 47.6732 61.826C55.9602 65.0803 102.937 45.9438 102.937 45.9438L103.406 49.051C103.406 49.051 79.9885 67.3818 72.9678 83.7491C65.947 100.116 58.457 131.534 58.457 131.534L38.0716 122.79C38.0716 122.79 35.5809 80.1222 34.3266 73.469C33.0722 66.8158 28.028 63.2944 28.028 63.2944Z" fill="white"/>
<path d="M13.2144 16.2671C8.74532 20.1259 4.08426 32.1333 9.3173 43.6487L12.0434 46.2106L9.36876 41.0992L12.9335 42.7377L9.48976 35.9948L13.8195 38.6486C12.121 37.1474 10.7945 34.6706 9.79714 31.3341C11.4942 32.6201 13.2661 34.3372 14.8111 34.7431L10.7888 29.0726L15.1728 31.049C14.2257 29.0558 12.8306 29.1869 12.3827 24.825C12.3827 24.825 15.5084 26.729 16.1742 27.099C16.8399 27.4689 13.5118 21.7743 13.0823 21.4188C12.6528 21.0633 15.8306 22.9821 15.8306 22.9821L13.736 19.3409C13.736 19.3409 15.6294 20.4321 16.1297 20.6983C16.6299 20.9645 15.081 17.5508 15.081 17.5508L13.2144 16.2671ZM142.424 20.4466L139.933 21.4911C139.933 21.4911 134.64 27.0167 135.288 26.8278C135.935 26.6385 141.016 23.8987 141.016 23.8987L135.537 28.4203C135.537 28.4203 141.818 26.1667 141.229 26.4773C140.64 26.7877 134.825 33.1357 135.691 32.8654C136.557 32.5959 141.146 30.6137 141.146 30.6137C139.488 35.5856 137.911 35.0954 136.296 37.1882L141.877 35.9462L135.749 41.5777C137.64 41.478 140.136 39.9065 142.432 38.8183C140.408 42.4629 138.229 45.0279 135.874 46.3664L141.569 44.3204L135.827 51.3428L140.374 50.2941L135.947 55.6002L139.766 53.2761C148.822 41.1277 146.578 26.019 142.424 20.4466ZM10.7582 53.176L9.73177 55.1955C9.73177 55.1955 9.38303 61.575 9.6956 61.1024C10.0082 60.6298 11.7666 56.1259 11.7666 56.1259L10.7401 61.9717C10.7401 61.9717 13.5404 57.1232 13.3326 57.6406C13.1249 58.158 12.8949 65.3405 13.3035 64.6977C13.7119 64.0548 15.5733 60.2999 15.5733 60.2999C17.2614 64.3468 15.9717 64.8976 16.0907 67.1011L19.0017 63.2721L18.1728 70.1735C19.3369 69.0795 20.0741 66.7267 20.9517 64.7867C21.6675 68.1947 21.6848 71.0034 20.9086 73.1332L23.4455 68.7353L23.6375 76.3043L25.988 73.1638L26.077 78.9302L27.2509 75.3794C26.3541 62.7626 16.5271 54.4342 10.7582 53.176H10.7582ZM141.065 55.2567L137.584 58.062C130.201 71.2938 134.409 85.9778 139.258 90.9569L141.591 89.5952C141.591 89.5952 142.075 88.9311 142.69 88.0737L143.793 88.6203C143.793 88.6203 150.175 88.9074 149.7 88.5994C149.224 88.2915 144.704 86.5771 144.704 86.5771L150.559 87.5465C150.559 87.5465 145.684 84.7931 146.203 84.9957C146.722 85.1984 153.907 85.359 153.26 84.9568C152.613 84.5546 148.84 82.73 148.84 82.73C152.87 81.0026 153.433 82.2864 155.636 82.1459L151.779 79.2724L158.689 80.0346C157.583 78.8812 155.221 78.1672 153.273 77.3085C156.673 76.5594 159.483 76.5142 161.62 77.2696L157.198 74.7758L164.765 74.5101L161.601 72.1902L167.367 72.0455L163.804 70.9064C154.345 71.6715 147.349 77.4387 143.937 82.7133C142.255 83.5751 139.257 85.1018 139.652 84.8218C140.195 84.4368 145.126 77.3804 144.303 77.7619C143.48 78.1428 139.19 80.7105 139.19 80.7105C140.181 75.564 141.81 75.8426 143.136 73.556L137.765 75.5199L143.101 69.1317C141.24 69.4787 138.972 71.365 136.838 72.7451C138.367 68.8663 140.19 66.0387 142.349 64.4028L136.972 67.1776L141.744 59.4626L137.374 61.0982L141.065 55.2567ZM114.251 78.5547C111.861 78.5365 109.379 78.7902 106.843 79.3851L103.188 81.9623L109.82 80.0179L107.045 83.7704L115.775 81.3044L111.628 85.7106C113.794 84.0851 117.015 83.1099 121.165 82.7064C119.251 84.3787 116.814 86.0399 115.969 87.7343L123.578 84.3601L120.212 88.9833C122.775 88.3366 122.956 86.6949 128.176 87.1571C128.176 87.1571 124.529 90.576 123.937 91.2629C123.344 91.9491 131.483 89.1479 132.002 88.7315C132.362 88.4438 130.328 90.6334 129.013 92.0404C121.853 91.6372 110.035 95.4954 103.472 106.297L102.813 110.494L105.898 104.714L106.64 109.109L110.767 101.561L111.045 107.322C111.368 104.767 112.844 101.939 115.337 98.868C115.216 101.284 114.738 104.046 115.346 105.755L118.094 98.352L119.045 103.732C120.31 101.568 119.293 100.343 123.101 97.1322C123.101 97.1322 123.083 98.415 123.076 99.7693C118.909 103.446 115.204 108.689 113.638 115.414L114.321 119.607L115.45 113.153L117.526 117.096L119.093 108.64L121.154 114.025C120.664 111.498 121.185 108.35 122.596 104.655C123.234 106.988 123.64 109.761 124.751 111.196L125.054 103.306L127.635 108.12C128.162 105.669 126.814 104.822 129.431 100.584C129.431 100.584 130.848 105.128 131.192 105.922C131.535 106.716 132.56 98.619 132.42 98.0015C132.279 97.3841 134.555 103.323 134.555 103.323L134.448 96.5829C134.448 96.5829 135.614 101.947 135.88 102.533C136.146 103.119 136.895 95.9013 136.895 95.9013L136.104 93.4535C134.804 93.5274 133.285 93.8743 131.657 94.4855L131.662 93.459C133.613 92.8102 136.058 91.9082 136.058 91.9082L138.01 90.0403C135.149 85.0456 125.769 78.6424 114.251 78.5547H114.251ZM142.978 84.3643C142.715 84.8715 142.49 85.3677 142.302 85.8483C141.194 86.6333 140.2 87.349 140.2 87.349L142.978 84.3643ZM86.7874 84.9735C82.1505 84.977 78.2166 86.8511 76.3171 90.5605L74.79 93.3547C74.79 93.3547 80.2002 96.9365 80.0877 96.3812C79.9748 95.8259 78.9444 91.5883 78.9444 91.5883L82.3395 95.3005C82.3395 95.3005 80.5879 91.2634 80.829 90.7608C81.0918 90.2128 87.1556 95.4042 85.5245 93.5105C85.9717 92.6022 83.804 89.1816 83.4925 88.9596C87.514 90.624 86.9985 91.921 88.6358 93.3923L87.9891 88.6258L92.2798 94.0946C92.3303 92.498 91.1884 90.3113 90.4384 88.3185C93.3533 90.2237 95.3504 92.1992 96.3063 94.2546L94.9948 89.3505L100.479 94.5703C100.154 93.3354 99.7834 92.09 98.3245 90.5883L104.06 94.7052L102.382 91.363C97.4568 87.0864 91.7235 84.9699 86.7874 84.9735ZM134.282 89.9541C134.282 89.9541 132.681 91.2143 131.289 92.3463C130.888 92.2555 130.462 92.1808 130.012 92.1266L134.282 89.9541ZM129.116 94.8944C129.116 94.8944 129.08 95.2353 129.038 95.6566C128.975 95.6895 128.912 95.7231 128.848 95.7567L129.116 94.8944ZM126.758 95.5661C126.782 95.5647 126.826 96.141 126.874 96.9041C126.583 97.0898 126.291 97.2838 126 97.4841C126.424 96.5404 126.729 95.791 126.746 95.6093C126.749 95.5797 126.754 95.5664 126.757 95.5661L126.758 95.5661ZM10.697 100.39L5.8374 104.739L12.195 102.26L8.09892 107.696L15.0963 103.744L12.4523 109.555L18.6888 105.137L15.9586 111.963L21.0213 105.945L20.4705 113.379L23.9003 108.002C23.9003 108.002 24.1523 113.62 23.8364 114.313C23.5205 115.006 27.9514 109.717 28.2718 109.26C28.5921 108.804 27.2606 115.128 27.2606 115.128L30.7405 109.959C30.7405 109.959 31.891 113.967 31.6654 114.487C31.4399 115.007 33.3706 111.859 33.3706 111.859L33.3567 106.783C27.095 103.306 20.0888 100.87 10.6971 100.39H10.697Z" fill="#2A972A"/>
<path d="M143.482 8.90234C143.482 8.90234 131.87 25.745 127.762 29.1737C102.605 46.3265 82.2593 60.6957 69.701 86.0375C67.815 90.4845 62.0702 104.185 61.5612 106.575C52.1635 150.685 42.7517 114.26 47.3393 111.98C43.1705 110.555 36.6154 103.699 45.2908 93.5917L52.8259 90.4614C48.7109 90.1672 44.801 88.9625 43.6394 86.5342C37.7337 94.7193 35.404 83.3495 37.4579 83.0459L37.3136 77.8597C36.2386 67.6927 33.7286 64.9563 31.6826 59.8176L28.0278 63.2944C32.1961 72.5389 35.8389 98.5928 33.0723 122.064L60.3792 131.304C60.3792 131.304 65.4508 96.2483 73.1212 85.102C80.7917 73.9556 104.724 49.5953 104.724 49.5953C104.724 49.5953 122.456 35.6191 129.007 31.2298C135.559 26.8406 141.055 18.6974 143.482 8.90247L143.482 8.90234Z" fill="#CCCCCC"/>
<path d="M143.153 14.501L141.235 16.4037C141.235 16.4037 138.398 23.51 138.927 23.0922C139.457 22.6741 143.142 18.2298 143.142 18.2298L139.756 24.4747C139.756 24.4747 144.735 20.0313 144.306 20.54C143.876 21.0486 140.863 29.1124 141.564 28.5374C142.266 27.9629 145.779 24.4066 145.779 24.4066C146.105 29.6374 144.46 29.7736 143.747 32.3191L148.456 29.0756L144.884 36.5946C146.6 35.7935 148.324 33.4001 150.046 31.5305C149.534 35.6683 148.475 38.8622 146.794 40.9855L151.307 36.9548L148.616 45.617L152.438 42.9424L150.322 49.5211L152.993 45.9341C156.836 31.2772 149.092 18.1106 143.153 14.501ZM12.2602 51.5225C11.7876 51.5268 11.3422 51.5593 10.9278 51.6171L10.6621 53.8661C10.6621 53.8661 12.5422 59.9713 12.6719 59.4197C12.8016 58.8682 12.893 54.0358 12.893 54.0358L13.9528 59.8759C13.9528 59.8759 14.9036 54.3575 14.8875 54.9148C14.8715 55.4721 17.1397 62.2907 17.3006 61.5463C17.4615 60.8018 17.9084 56.6353 17.9084 56.6353C20.8924 59.8483 19.8732 60.8108 20.7471 62.837L22.1533 58.2375L23.7639 64.9998C24.4776 63.5707 24.3556 61.1068 24.508 58.983C26.3586 61.9328 27.3456 64.5634 27.3536 66.8301L28.2132 61.8259L24.508 55.6172C20.186 52.7794 15.5683 51.4905 12.2602 51.5225ZM129.641 55.2528L127.108 58.9371C123.82 73.7284 132.053 86.5933 138.125 89.9766L139.97 88.003C139.97 88.003 142.536 80.7947 142.023 81.2324C141.51 81.6702 137.995 86.2505 137.995 86.2505L141.144 79.8818C141.144 79.8818 136.336 84.5093 136.746 83.9848C137.157 83.4605 139.862 75.2891 139.183 75.8901C138.503 76.4906 135.127 80.1767 135.127 80.1767C134.604 74.9618 136.244 74.7638 136.86 72.1932L132.278 75.6119L135.563 67.9651C133.878 68.8302 132.246 71.2852 130.596 73.2183C130.951 69.0641 131.889 65.833 133.489 63.6479L129.13 67.8455L131.495 59.0873L127.775 61.9052L129.641 55.2528ZM160.618 77.3324C151.71 77.263 144.185 81.7582 141.588 85.5704L143.076 87.277C143.076 87.277 148.862 89.987 148.541 89.5204C148.219 89.0538 144.701 85.7387 144.701 85.7387L149.737 88.8764C149.737 88.8764 146.289 84.4666 146.691 84.8527C147.093 85.2389 153.668 88.1383 153.225 87.519C152.782 86.8997 149.996 83.7693 149.996 83.7693C154.38 83.7173 154.408 85.1181 156.496 85.8319L154.033 81.7011L160.125 85.0516C159.546 83.5629 157.638 81.9986 156.167 80.459C159.595 81.0697 162.207 82.104 163.892 83.6204L160.762 79.6218L167.854 82.2769L165.821 78.9208L171.202 80.9973L168.348 78.5786C165.715 77.7283 163.112 77.3519 160.618 77.3324ZM123.19 86.697C117.095 86.7642 110.022 88.6548 104.027 93.7333L102.074 97.5066L106.829 93.0003L106.144 97.4037L112.446 91.551L110.886 97.1033C112.001 94.7821 114.297 92.5664 117.633 90.4425C116.754 92.6956 115.427 95.1639 115.462 96.9781L120.412 90.825L119.611 96.2298C121.496 94.5775 120.919 93.0943 125.547 91.2534C125.547 91.2534 123.974 95.7448 123.777 96.5873C123.579 97.4294 129.232 91.5408 129.488 90.9613C129.743 90.382 128.027 96.5066 128.027 96.5066L131.962 91.0322C131.962 91.0322 129.699 96.0347 129.563 96.6638C129.427 97.2929 134.333 91.946 134.333 91.946L135.157 89.5093C132.618 87.838 128.24 86.6413 123.19 86.697Z" fill="#1C801C"/>
<path d="M42.9202 75.4499C41.4972 75.1754 40.1007 75.602 38.9461 76.3541C36.6369 77.8583 34.9704 80.7124 35.2822 83.7924C35.3205 84.1681 35.5066 84.5131 35.7993 84.7517C36.0921 84.9903 36.4677 85.1028 36.8434 85.0645C37.0299 85.0461 37.2109 84.9911 37.3761 84.9027C37.5414 84.8142 37.6875 84.694 37.8061 84.549C37.9248 84.404 38.0137 84.2369 38.0677 84.0575C38.1217 83.878 38.1397 83.6897 38.1208 83.5032C37.9389 81.7047 39.1166 79.6397 40.4968 78.7406C41.187 78.291 41.8465 78.1438 42.3788 78.2465C42.7791 78.3237 43.1985 78.8053 43.6193 79.3346C41.3258 82.4055 40.9136 87.0402 43.8454 91.9403C39.5984 97.4462 38.0051 101.889 38.4415 105.382C38.901 109.06 41.432 111.43 43.9085 112.694C44.2452 112.864 44.6359 112.894 44.9947 112.777C45.3535 112.66 45.651 112.405 45.822 112.068C45.9929 111.732 46.0237 111.342 45.9074 110.983C45.7911 110.625 45.5373 110.327 45.2017 110.155C43.268 109.168 41.5859 107.603 41.2644 105.03C40.9429 102.456 42.0315 98.5241 46.5579 92.9286C46.7502 92.6905 46.8607 92.3967 46.873 92.0909C46.8853 91.7851 46.7988 91.4834 46.6263 91.2306C42.9994 85.9151 44.2839 81.8384 46.847 79.8235C49.3039 77.8921 53.0532 77.9408 56.1514 81.6003C55.3506 82.9397 54.4846 84.3079 54.5902 85.9213C54.7315 88.0826 56.078 90.2414 58.6536 91.6039C58.9875 91.7801 59.3778 91.8165 59.7386 91.7051C60.0994 91.5938 60.4011 91.3437 60.5776 91.0099C60.7542 90.6766 60.7914 90.2868 60.6811 89.9261C60.5707 89.5654 60.3217 89.2632 59.9888 89.0859C58.0784 88.0753 57.5133 86.9447 57.434 85.7321C57.3547 84.5195 57.9185 83.0954 58.8692 81.9578C59.8198 80.8201 61.1297 80.0358 62.1546 79.8919C63.1795 79.7479 63.9045 79.9465 64.6568 81.3007C64.8405 81.63 65.1473 81.8731 65.5099 81.9766C65.8726 82.0801 66.2615 82.0355 66.5913 81.8526C66.7551 81.7617 66.8993 81.6393 67.0157 81.4925C67.1321 81.3458 67.2185 81.1775 67.2697 80.9973C67.321 80.8171 67.3362 80.6285 67.3145 80.4425C67.2928 80.2564 67.2346 80.0764 67.1432 79.9129C65.9338 77.7359 63.7334 76.7911 61.7551 77.069C60.2775 77.2765 59.1121 78.3431 57.965 79.3557C54.1518 75.2318 48.925 74.9005 45.4119 77.4264C44.6441 76.5892 43.9051 75.64 42.9202 75.4499Z" fill="#999999"/>
<path d="M130.34 29.1758C132.217 30.6746 131.16 30.9816 133.713 31.8768L134.773 30.8253C132.568 31.5407 132.789 29.8883 130.34 29.1758ZM128.531 30.9811L126.769 32.4178C128.926 34.767 129.276 33.9558 131.772 35.2913C130.655 33.3417 129.259 33.9234 128.531 30.9811ZM123.486 35.2913C125.363 36.7901 125.421 38.1709 127.975 39.0661L129.417 36.9005C127.212 37.6159 125.935 36.0039 123.486 35.2913ZM121.712 36.3929L119.589 38.418C121.746 40.7671 122.422 40.0713 124.917 41.4069C123.007 39.0867 121.964 39.1133 121.712 36.3929ZM117.328 41.1816C119.204 42.6803 120.67 44.5479 123.223 45.4431L124.666 43.2762C122.461 43.9915 119.776 41.8941 117.328 41.1816ZM114.706 41.7894L112.785 44.2984C114.942 46.6476 117.643 47.3663 120.138 48.7019C118.228 46.3816 114.959 44.5097 114.706 41.7894ZM112.055 49.2137C114.104 51.1654 115.633 53.5052 118.539 54.8188L120.456 52.4265C117.793 53.0382 114.857 50.3021 112.055 49.2137ZM104.195 54.3737C103.516 57.0199 99.7352 58.371 97.4816 60.3599C100.157 59.4357 102.937 59.1534 105.439 57.1749L104.195 54.3737ZM106.069 62.7174C103.086 63.0895 99.5712 65.0269 97.1381 63.7842L98.4135 66.5714C101.552 66.0066 103.605 64.1102 106.069 62.7174ZM107.859 66.2669C106.553 68.6668 102.558 69.0543 99.8864 70.4324C102.706 70.1897 105.471 70.5936 108.38 69.2864L107.859 66.2669ZM152.716 91.8028C153.948 94.2416 151.994 97.7484 151.608 100.729C153.012 98.272 154.918 96.2284 155.498 93.0921L152.716 91.8028ZM159.622 96.8474C157.622 99.0916 156.253 102.865 153.604 103.532L156.399 104.789C158.389 102.297 158.685 99.518 159.622 96.8474ZM163.306 98.3398C163.904 101.006 161.153 103.929 160.05 106.725C162.012 104.686 164.36 103.168 165.689 100.269L163.306 98.3398ZM74.6787 106.468L74.9833 109.518C78.0721 109.99 80.1376 107.751 82.836 107.17C78.2817 108.082 76.4687 108.484 74.6787 106.468ZM84.5217 108.357C83.2163 110.757 80.3444 110.924 77.6732 112.302C80.4929 112.06 82.3066 112.108 85.2158 110.8L84.5217 108.357ZM75.4576 114.144L75.7636 117.194C78.8671 117.668 80.9377 115.406 83.6552 114.839C79.0715 115.757 77.2528 116.166 75.4576 114.144ZM86.6275 115.799C85.4321 118.256 81.4572 118.823 78.8512 120.321C81.6571 119.95 84.4385 120.23 87.2853 118.792L86.6275 115.799ZM75.6022 122.115L75.9068 125.165C79.0596 125.647 84.2197 123.748 87.0016 123.228C82.3193 124.164 77.4148 124.156 75.6022 122.115ZM89.3952 126.445C88.0898 128.845 81.6573 128.966 78.9862 130.345C81.8059 130.102 87.0077 130.773 89.9168 129.465L89.3952 126.445Z" fill="#4F3E1A"/>
<path d="M11.4019 65.9398C12.0981 67.3843 9.33312 68.3357 10.0081 69.7366C10.2813 70.304 10.7427 70.7605 11.3187 71.0333C11.1085 71.0827 10.904 71.1549 10.709 71.2484C9.26463 71.9451 8.64144 73.6453 9.31714 75.0459C9.9923 76.4461 11.71 77.0171 13.1542 76.3214C13.8634 75.9789 14.4072 75.3719 14.661 74.6394C15.5208 75.3208 16.7166 75.4441 17.7301 74.9557C19.1748 74.2597 19.7988 72.5598 19.1238 71.1589C18.4489 69.7574 16.7298 69.1859 15.2849 69.8828C15.1809 69.9337 15.0799 69.9906 14.9825 70.0531C15.58 69.2086 15.6779 68.1255 15.2389 67.2152C14.5638 65.815 10.7058 64.4956 11.4018 65.9397L11.4019 65.9398ZM13.2362 71.2284C13.1422 71.0335 13.6517 71.1066 13.8471 71.0127C13.9515 70.9617 14.0529 70.9046 14.1506 70.8417C13.9926 71.0654 13.8674 71.3093 13.7787 71.5661C13.6119 71.4336 13.3293 71.4216 13.2362 71.2285L13.2362 71.2284ZM145.993 86.2489C144.389 86.2494 143.09 87.5104 143.09 89.0654C143.09 89.4222 143.16 89.7757 143.296 90.1072C143.018 90.0235 142.729 89.9808 142.438 89.9806C141.799 89.9808 141.177 90.1857 140.67 90.5633C140.195 89.567 139.167 88.9291 138.035 88.9291C136.431 88.9288 135.131 90.1892 135.131 91.7442C135.13 93.2997 136.43 94.561 138.035 94.5606C138.675 94.5599 139.297 94.354 139.804 93.9751C140.117 94.635 140.682 95.1518 141.38 95.4174C141.264 95.725 141.205 96.0497 141.204 96.3771C141.205 97.9316 142.504 99.1917 144.107 99.1922C145.711 99.1925 147.011 97.9321 147.011 96.3771C147.011 96.1324 146.978 95.8888 146.912 95.6525C147.398 95.9791 147.975 96.1543 148.566 96.1545C150.17 96.1541 151.469 94.8931 151.469 93.3381C151.469 91.7836 150.169 90.5234 148.566 90.523C148.535 90.5237 148.504 90.5252 148.473 90.5273C148.75 90.0869 148.896 89.5812 148.897 89.0655C148.898 87.51 147.597 86.2487 145.993 86.2491V86.2489ZM145.136 91.7553H145.138C145.415 91.8382 145.703 91.8804 145.993 91.8805C146.024 91.8798 146.055 91.8783 146.086 91.8762C145.809 92.3166 145.663 92.8223 145.662 93.338C145.663 93.5827 145.696 93.8263 145.762 94.0626C145.576 93.938 145.376 93.8348 145.166 93.7552C145.282 93.4477 145.341 93.123 145.342 92.7956C145.342 92.4393 145.272 92.0862 145.136 91.7552L145.136 91.7553ZM82.0851 92.0418C80.4815 92.0415 79.1813 93.3019 79.181 94.8569C79.1818 95.5527 79.4485 96.2236 79.9293 96.7401C79.4948 96.5036 79.0048 96.3796 78.5065 96.3799C78.2779 96.3798 78.05 96.406 77.8278 96.4578C77.86 96.2917 77.8767 96.1232 77.8778 95.9543C77.8776 94.3993 76.5773 93.1389 74.9737 93.1392C73.3706 93.1396 72.0712 94.3998 72.071 95.9543C72.0704 97.5093 73.3701 98.7703 74.9737 98.7707C75.2024 98.7703 75.4302 98.7437 75.6525 98.6914C75.6207 98.8575 75.6044 99.026 75.6037 99.1949C75.6039 99.6393 75.7126 100.077 75.9209 100.473C75.3879 100.009 74.6969 99.7525 73.9806 99.7527C72.3775 99.7531 71.0782 101.013 71.0779 102.568C71.0782 104.122 72.3775 105.382 73.9806 105.383C75.5843 105.383 76.8845 104.123 76.8847 102.568C76.8849 102.123 76.7767 101.685 76.569 101.29C77.1012 101.753 77.7911 102.009 78.5064 102.01C79.3205 102.01 80.0971 101.678 80.6469 101.096C81.197 101.685 81.978 102.021 82.7972 102.021C84.4008 102.021 85.7011 100.761 85.7013 99.2061C85.7012 98.1912 85.138 97.2549 84.227 96.7554C84.716 96.2368 84.9874 95.5596 84.9878 94.8569C84.9876 93.3024 83.6882 92.0423 82.0851 92.0418H82.0851ZM138.242 94.6232C136.638 94.6229 135.337 95.8841 135.338 97.4397C135.338 98.9947 136.638 100.255 138.242 100.255C139.846 100.255 141.146 98.9947 141.146 97.4397C141.147 95.8841 139.846 94.6229 138.242 94.6232Z" fill="#008000"/>
<path d="M145.952 0L145.721 1.44035C145.721 1.44035 142.066 23.3353 126.938 31.7349C119.025 36.129 106.983 46.3576 96.0394 57.2249C85.0953 68.0921 75.3071 79.5043 71.9793 86.5259C68.7033 93.4381 65.684 104.539 63.4528 113.95C61.2217 123.361 59.7942 131.066 59.7942 131.066L61.1977 131.324C61.1977 131.324 62.6131 123.65 64.8354 114.276C67.0576 104.903 70.0999 93.8186 73.2672 87.1357C76.3826 80.5622 86.1537 69.0526 97.0434 58.2394C102.133 53.1852 107.451 48.3668 112.482 44.125L115.51 69.5098C108.655 72.4386 97.9916 74.8088 88.4329 79.8551C78.6862 85.0006 70.1255 93.0535 68.3258 107.295L69.7399 107.474C71.4781 93.7187 79.5869 86.1391 89.1005 81.1167C98.614 76.0943 109.483 73.7633 116.572 70.64L117.056 70.4244L113.797 43.1157L113.56 43.1426C118.892 38.7094 123.819 35.0984 127.632 32.9813C142.602 24.6694 146.226 5.65224 146.667 3.18612C152.596 10.4444 154.567 22.1564 154.478 33.7803C154.388 45.6989 152.303 57.2033 150.809 63.339C150.343 63.3578 149.753 63.3672 148.754 63.2811C147.515 63.1743 145.947 62.9918 144.181 62.7554C140.647 62.2827 136.309 61.5962 132.111 60.8998C127.913 60.2034 123.853 59.4946 120.872 58.9653C119.382 58.7008 118.163 58.479 117.329 58.3293C116.912 58.2544 116.588 58.1985 116.378 58.1611C116.272 58.1422 116.198 58.1277 116.146 58.119C116.12 58.1137 116.102 58.1137 116.073 58.1083C116.065 58.1073 116.062 58.1101 116.041 58.1083C116.022 58.1064 115.684 58.1661 115.684 58.1661C115.684 58.1662 115.756 59.4959 115.757 59.4961C115.758 59.4964 115.801 59.5042 115.81 59.5069L116.146 58.1244C116.152 58.1257 116.189 58.1351 116.188 58.1351C116.187 58.1349 116.262 59.4651 116.262 59.4651C116.262 59.465 115.927 59.5246 115.909 59.523C115.893 59.5213 115.885 59.5234 115.882 59.523C115.869 59.5212 115.888 59.5247 115.909 59.5283C115.951 59.5364 116.026 59.5472 116.13 59.5652C116.337 59.6018 116.659 59.6586 117.076 59.7334C117.91 59.8831 119.133 60.1046 120.625 60.3695C123.608 60.8993 127.668 61.6115 131.874 62.3092C136.08 63.007 140.431 63.6886 143.991 64.1649C145.771 64.4031 147.351 64.591 148.627 64.701C149.903 64.8111 150.839 64.8582 151.492 64.7694L151.971 64.701L152.086 64.2332C153.459 58.7179 155.191 48.3052 155.629 37.3187C162.695 60.1695 170.582 73.3215 178.17 89.3236L179.458 88.7138C171.44 71.8052 163.178 58.6092 155.887 33.6127C155.96 21.325 153.996 8.6547 146.945 1.06823L145.952 0ZM15.8793 10.7132C15.7172 10.7733 15.6225 10.8618 15.5534 10.9339L15.5165 10.9708L15.485 11.0182C12.014 16.0062 7.95005 22.364 5.11345 28.1341C3.69514 31.0192 2.58122 33.7521 2.00672 36.1296C1.43221 38.5072 1.35342 40.5698 2.28007 42.0802L2.29594 42.1072L2.31181 42.1341C7.0076 48.4935 7.81752 48.6926 10.3651 51.5962L10.8014 51.2125L7.12701 59.7179L7.4529 60.0596C8.48569 61.143 9.49169 62.2382 10.5386 63.2609C6.13198 82.844 1.93502 88.8345 0.0356445 101.472L1.44445 101.682C3.27027 89.5342 7.34856 83.2353 11.6846 64.4489C19.2259 71.7522 26.8017 78.6648 31.0977 96.1102L32.4802 95.7685C27.3437 74.9099 17.4377 68.3685 8.80916 59.4129L17.4933 39.3112C18.2995 44.092 19.5024 48.6425 21.4674 52.1639C32.7233 72.3354 35.1493 86.3799 32.3909 121.584L33.8102 121.7C36.5761 86.3999 34.0653 71.8139 22.7132 51.4701C19.2085 45.1895 17.9928 34.7978 17.5616 26.1904C17.346 21.8867 17.3153 18.0293 17.2567 15.3142C17.2274 13.9567 17.19 12.8904 17.1149 12.1602C17.0775 11.795 17.0508 11.533 16.9362 11.2455C16.8789 11.1018 16.8175 10.8821 16.4631 10.7303C16.2857 10.6544 16.0417 10.6544 15.8796 10.7142L15.8793 10.7132ZM15.7426 13.3363C15.7746 13.9341 15.8125 14.4489 15.8319 15.3392C15.8903 18.0356 15.9194 21.9232 16.1368 26.2627C16.3335 30.1885 16.7577 34.4852 17.4195 38.637L16.4207 38.2007L11.1744 50.3438C8.76579 47.642 7.94294 47.3455 3.49435 41.3285C2.91486 40.3769 2.86167 38.6709 3.3945 36.466C3.92843 34.2563 5.00008 31.5938 6.39084 28.7649C8.92513 23.6098 12.5216 18.0541 15.7426 13.3363H15.7426Z" fill="#E9902E"/>
<path opacity="0.391776" d="M16.7444 9.75227C15.3953 9.81971 9.08213 20.6004 4.82623 28.7415C0.997936 36.0645 0.557144 42.3511 1.77194 41.7946C4.63529 45.2459 7.0557 48.88 10.3618 52.148L6.94171 59.6572C8.48264 61.5284 9.32253 62.1287 10.4731 63.0606C6.82819 80.6755 2.12209 87.0755 0 101.568L4.94446 106.789C4.94446 106.789 11.0695 85.7063 11.5983 83.6423C12.39 80.5518 17.6529 77.5594 20.6332 79.6742C23.4852 81.6981 30.6814 94.6972 31.084 96.0528C26.8845 76.8191 18.9834 72.3111 11.8472 64.215C11.8323 63.9936 11.4285 57.977 11.7652 56.1286C12.1081 54.2459 15.8945 49.9722 17.3925 51.3121C18.7487 52.5251 25.703 58.4184 27.5234 60.4236C25.8933 57.9522 19.7633 46.7029 19.1019 40.5289C18.1227 31.3884 16.9245 9.76172 16.9461 9.88579C16.9023 9.7911 16.8343 9.74778 16.7444 9.75227ZM156.053 33.9601C156.053 42.655 154.099 53.1403 152.047 65.062L119.52 60.0369L113.92 42.6652L117.047 69.7074C114.897 70.3948 84.2972 80.2031 77.4269 89.232C71.2473 97.3532 68.9016 108.761 68.9016 108.761L65.545 132.945L88.1281 134.097C88.1281 134.097 81.868 102.938 88.5106 92.9081C95.1532 82.8784 117.378 71.8271 117.378 71.8271L117.454 69.5642C117.454 69.5642 117.327 69.6083 117.318 69.6115L118.271 64.5877L152.819 69.1567C154.623 66.0024 155.477 63.2876 155.721 60.7127C160.997 75.1797 165.21 85.3354 172.162 97.8883L179.892 89.5202C171.87 74.6052 159.063 46.741 156.053 33.9601ZM27.529 60.4305C27.7444 60.7565 27.8817 60.9334 27.9143 60.9159C27.8491 60.8022 27.7164 60.6373 27.529 60.4305Z" fill="black"/>
</svg>
