<svg width="98" height="31" viewBox="0 0 98 31" fill="none" xmlns="http://www.w3.org/2000/svg">
<g id="Eyes1">
<g id="layer1">
<g id="g1088">
<path id="path1076" d="M35.6403 20.8159C29.9903 30.3308 11.7103 30.9434 2.07032 25.2325C-0.0796808 16.6167 20.4103 -13.2619 35.6403 20.8159ZM95.9103 18.1679C89.4003 27.9694 68.3403 28.6017 57.2403 22.7228C54.7503 13.8403 78.3603 -16.9276 95.9103 18.1679Z" fill="white"/>
<path id="path1078" d="M7.10036 19.2844C7.03036 25.9933 11.8704 29.6886 18.0304 29.7676C24.1904 29.8467 29.3404 26.2601 29.4104 19.5611C29.4804 12.8621 24.5404 7.35869 18.4104 7.28952C12.2804 7.22036 7.16036 12.5855 7.10036 19.2844ZM63.0004 16.5871C62.9304 23.5034 68.3604 27.8212 75.4604 27.8903C82.5604 27.9595 88.6403 23.7702 88.7103 16.8637C88.6608 13.5506 87.3034 10.3877 84.9274 8.04934C82.5515 5.71095 79.3451 4.38205 75.9918 4.34597C72.6385 4.30989 69.4035 5.56947 66.9767 7.85619C64.5498 10.1429 63.1229 13.2758 63.0004 16.5871Z" fill="#333333"/>
<path id="path1080" d="M35.6404 20.8162C29.9904 30.3311 11.8604 30.4299 2.23036 24.7684C2.00036 23.8297 2.52036 21.5375 2.78036 20.2233C4.92036 9.3548 23.6704 -7.97559 35.6404 20.8557V20.8162ZM95.9104 18.1682C89.4004 27.9697 68.3404 28.602 57.2404 22.7231C56.9766 21.5593 56.9972 20.3502 57.3004 19.1958C59.7804 7.97152 80.3004 -13.1332 95.9104 18.2077V18.1682Z" stroke="black" stroke-width="3" stroke-miterlimit="15.12"/>
<path id="ellipse1082" d="M17.7603 18.8993C17.7603 20.4604 19.7003 21.7449 22.1303 21.7646C24.5603 21.7844 26.5403 20.5592 26.5603 19.008C26.5803 17.4567 24.6203 16.1723 22.1903 16.1426C19.7603 16.113 17.7703 17.3481 17.7603 18.8993ZM76.3003 16.5675C76.3003 18.01 78.3003 19.1957 80.8303 19.2253C83.3603 19.255 85.4003 18.1088 85.4103 16.6663C85.4203 15.2237 83.4102 14.0381 80.8903 14.0183C78.3703 13.9986 76.3103 15.1348 76.3003 16.5675Z" fill="white"/>
</g>
</g>
</g>
</svg>
