<svg width="98" height="31" viewBox="0 0 98 31" fill="none" xmlns="http://www.w3.org/2000/svg">
<g id="Eyes2">
<g id="layer1">
<g id="g1062">
<path id="path621540" d="M35.4102 21.5339C29.7602 31.0488 11.4702 31.6614 1.8402 25.9505C-0.319796 17.3051 20.1802 -12.5439 35.4102 21.5339ZM95.6802 18.8761C89.1702 28.6775 68.1102 29.3099 57.0002 23.431C54.5202 14.5583 78.1302 -16.2095 95.6802 18.8761Z" fill="white"/>
<path id="path621542" d="M6.86017 20.0017C6.80017 26.7106 11.6402 30.4059 17.8002 30.4849C23.9602 30.564 29.1102 26.9773 29.1802 20.2685C29.2502 13.5596 24.3002 8.07596 18.1802 7.99692C12.0602 7.91787 6.93017 13.3521 6.86017 20.0017ZM62.7902 17.3043C62.7202 24.2207 68.1402 28.5385 75.2402 28.6076C82.3402 28.6768 88.4302 24.4776 88.5002 17.581C88.4506 14.2679 87.0931 11.105 84.7172 8.76663C82.3413 6.42824 79.1349 5.09934 75.7816 5.06325C72.4283 5.02717 69.1934 6.28676 66.7665 8.57347C64.3396 10.8602 62.9128 13.9931 62.7902 17.3043Z" fill="#333333"/>
<path id="ellipse621546" d="M18.0002 20.2093C18.0002 21.6024 19.7502 22.7585 21.9302 22.7881C24.1202 22.7881 25.9302 21.7012 25.9302 20.2982C25.9302 18.9051 24.1902 17.749 22.0002 17.7194C19.8102 17.6898 18.0002 18.8063 18.0002 20.2093ZM76.0602 17.2451C76.0602 18.6877 78.0602 19.8734 80.5902 19.903C83.1002 19.903 85.1603 18.7865 85.1703 17.3439C85.1703 15.9113 83.1702 14.7157 80.6402 14.6861C78.1102 14.6565 76.0702 15.8125 76.0602 17.2451Z" fill="white"/>
<path id="abColor_1" d="M3.36011 18.1543C16.0601 13.797 25.2701 13.9353 32.5401 16.1782C32.6201 16.1782 27.6001 5.15158 19.2101 5.61596C7.56011 6.21867 4.80011 16.4647 3.36011 18.1543ZM59.0901 14.8937C71.7901 10.5364 82.3101 12.058 92.4301 13.0263C92.5101 13.0263 86.0701 2.24672 77.1501 2.28624C64.4301 2.34552 59.5301 15.0024 59.0901 14.8937Z" fill="#FF1515" stroke="black" stroke-width="3" stroke-linecap="round" stroke-linejoin="round"/>
<path id="shadow" d="M75.2003 3.68945C66.0303 3.68945 61.0703 12.5819 61.0703 12.5819C64.4103 11.7717 67.9103 10.9714 70.8703 10.6058C70.8703 10.6058 71.4703 6.51527 77.8703 4.01551C76.9919 3.82803 76.0983 3.7189 75.2003 3.68945ZM19.1403 6.88085C9.96026 6.88085 5.01025 15.7733 5.01025 15.7733C8.33025 14.973 11.7603 13.9256 15.2003 13.4415C15.2003 13.3229 14.9003 8.59017 22.3803 7.76021C21.3207 7.398 20.2384 7.10426 19.1403 6.88085Z" fill="black" fill-opacity="0.3"/>
<path id="path621544" d="M35.4102 21.534C29.7602 31.049 11.6302 31.1478 2.00015 25.4862C1.76015 24.4982 2.28015 22.2553 2.54015 20.9412C4.69015 10.0727 23.4402 -7.2577 35.4102 21.5736V21.534ZM95.6801 18.8762C89.1701 28.6776 68.1102 29.31 57.0002 23.4311C56.7453 22.266 56.7693 21.0581 57.0702 19.9038C59.5502 8.67953 80.0701 -12.4252 95.6801 18.9157V18.8762Z" stroke="black" stroke-width="3" stroke-miterlimit="15.12"/>
</g>
</g>
</g>
</svg>
