<svg width="98" height="31" viewBox="0 0 98 31" fill="none" xmlns="http://www.w3.org/2000/svg">
<g id="Eyes6">
<g id="layer1">
<g id="g21813">
<path id="path21805" d="M35.5197 21.0032C29.8597 30.5182 11.5897 31.1308 1.95973 25.4297C-0.420267 20.0547 18.6897 10.0556 35.5197 21.0032ZM95.7597 18.3553C89.2497 28.1468 68.1897 28.7792 57.0997 22.9003C54.3397 16.8534 76.8697 6.05405 95.7597 18.3553Z" fill="#FFC6C6"/>
<path id="path21807" d="M13.5898 19.5113C13.5898 22.179 15.4898 23.6512 17.9398 23.6809C20.3898 23.7105 22.4398 22.2877 22.4698 19.62C22.5357 19.0099 22.4719 18.393 22.2825 17.8086C22.0932 17.2243 21.7824 16.6855 21.3702 16.2267C20.9579 15.7679 20.4532 15.3992 19.8884 15.1442C19.3236 14.8893 18.7111 14.7536 18.0902 14.746C17.4693 14.7384 16.8536 14.859 16.2826 15.1001C15.7116 15.3412 15.1978 15.6974 14.7741 16.146C14.3505 16.5945 14.0263 17.1256 13.8224 17.7051C13.6184 18.2846 13.5392 18.8998 13.5898 19.5113ZM71.0498 17.7526C71.0498 20.4006 73.0498 22.0605 75.8198 22.0901C78.5898 22.1198 80.8798 20.5092 80.9098 17.8613C80.9244 16.5694 80.4189 15.3247 79.5047 14.401C78.5905 13.4773 77.3423 12.9503 76.0348 12.9359C74.7273 12.9214 73.4675 13.4208 72.5326 14.3241C71.5978 15.2274 71.0644 16.4607 71.0498 17.7526Z" fill="#333333"/>
<path id="path30400" d="M35.5198 21.0032C29.8598 30.5181 11.7498 30.6169 2.11978 24.9554C1.87978 24.0266 2.39979 21.7343 2.65979 20.4202C4.80979 9.55168 23.5498 -7.76881 35.5198 21.0427V21.0032ZM95.7598 18.3552C89.2498 28.1468 68.1898 28.7791 57.0998 22.9002C56.8397 21.7356 56.8637 20.5265 57.1698 19.3729C59.6398 8.15853 80.1098 -12.9363 95.7598 18.3848V18.3552Z" stroke="black" stroke-width="3" stroke-linecap="round" stroke-linejoin="round"/>
<path id="path22627-2" d="M19.1497 20.6474C19.1497 20.9094 19.255 21.1607 19.4426 21.346C19.6301 21.5313 19.8844 21.6354 20.1497 21.6354C20.281 21.6434 20.4127 21.6258 20.5372 21.5834C20.6616 21.541 20.7764 21.4748 20.8748 21.3885C20.9733 21.3022 21.0536 21.1976 21.1111 21.0806C21.1685 20.9636 21.202 20.8365 21.2097 20.7067C21.2097 20.4446 21.1043 20.1933 20.9168 20.008C20.7292 19.8227 20.4749 19.7186 20.2097 19.7186C20.0783 19.7106 19.9466 19.7283 19.8222 19.7706C19.6977 19.813 19.583 19.8793 19.4845 19.9655C19.386 20.0518 19.3057 20.1565 19.2483 20.2735C19.1908 20.3905 19.1573 20.5175 19.1497 20.6474ZM77.6697 18.7899C77.6949 19.0277 77.8141 19.2462 78.0013 19.3978C78.1885 19.5495 78.4286 19.6221 78.6697 19.6C78.7872 19.6138 78.9064 19.6045 79.0203 19.5728C79.1342 19.541 79.2407 19.4873 79.3336 19.4148C79.4265 19.3423 79.504 19.2524 79.5616 19.1502C79.6193 19.0481 79.656 18.9357 79.6697 18.8195C79.6468 18.5798 79.5287 18.3589 79.3413 18.2052C79.1538 18.0514 78.9123 17.9774 78.6697 17.9994C78.5511 17.9843 78.4307 17.9929 78.3156 18.0248C78.2006 18.0567 78.0932 18.1111 77.9998 18.1849C77.9065 18.2586 77.8292 18.3502 77.7724 18.4542C77.7157 18.5581 77.6808 18.6723 77.6697 18.7899Z" fill="white"/>
<path id="path621572-5" d="M2.64966 20.717C13.0197 17.8616 26.6497 18.405 34.9097 19.9365C35.3497 19.7389 28.4297 4.41423 19.3797 5.11574C7.80967 5.8963 3.26966 17.5355 2.64966 20.717ZM57.3697 19.3733C72.8597 15.4211 87.7197 17.1601 95.0297 17.3379C95.9197 17.4367 87.6997 2.14171 77.0297 1.96386C63.5997 1.81565 56.3597 18.6718 57.3397 19.3733H57.3697Z" fill="white" stroke="black" stroke-width="3" stroke-linecap="round" stroke-linejoin="round"/>
<path id="path526843-6" d="M73.6598 3.91991C64.5098 6.16278 59.4398 17.2882 59.6598 17.1005C63.0063 16.3971 66.3875 15.8662 69.7898 15.5097C69.6398 15.5097 69.3898 6.53824 76.5898 3.73218C75.6093 3.63885 74.62 3.70224 73.6598 3.91991ZM19.1298 6.72596C9.12984 7.57569 4.86984 18.5826 5.12984 18.3356C8.45984 17.5352 11.6598 17.7032 15.1298 17.2191C15.1298 17.3574 14.5198 9.15658 21.5298 6.95323C20.7469 6.77328 19.9432 6.69685 19.1398 6.72596H19.1298Z" fill="#CCCCCC"/>
</g>
</g>
</g>
</svg>
