<svg width="125" height="30" viewBox="0 0 125 30" fill="none" xmlns="http://www.w3.org/2000/svg">
<g id="Eyes8">
<g id="layer1">
<g id="g64290">
<path id="path64282" d="M49.89 19.6583C44.01 29.5387 24.98 30.2007 14.95 24.2626C12.52 15.6073 33.4 -11.3764 49.89 19.6583ZM112.63 16.8917C105.85 27.0983 83.92 27.7603 72.37 21.6344C69.74 12.4257 93.41 -19.0239 112.63 16.8917Z" fill="white"/>
<path id="path64284" d="M20.18 18.0679C20.24 25.0435 25.18 28.9364 31.56 28.9364C37.94 28.9364 43.34 25.2905 43.41 18.3149C43.48 11.3393 38.11 9.31376 31.76 10.2228C25.15 11.2108 20.12 11.695 20.18 18.0284V18.0679ZM78.39 15.2618C77.82 22.4153 83.96 26.9504 91.39 27.0295C98.82 27.1085 105.11 22.7315 105.19 15.5484C105.27 8.36524 100.47 8.90867 93.09 9.1952C85.71 9.48174 78.81 10.0746 78.39 15.2618Z" fill="#333333"/>
<path id="path64288" d="M31.28 17.6628C31.28 19.2832 33.28 20.6269 35.83 20.6269C38.38 20.6269 40.42 19.3622 40.44 17.7517C40.46 16.1412 38.44 14.7876 35.88 14.7876C33.32 14.7876 31.29 16.0523 31.28 17.6628ZM92.21 15.2421C92.21 16.7439 94.3 17.979 96.92 18.0086C99.54 18.0383 101.68 16.8427 101.7 15.3409C101.72 13.8391 99.6 12.604 96.98 12.5842C94.36 12.5645 92.23 13.7402 92.21 15.2421Z" fill="white"/>
<path id="path77245" d="M88.0001 3.94824C85.9201 5.57852 87.1201 8.96753 87.1401 8.99717C81.1401 10.2421 76.3701 13.4137 72.8601 15.3898C75.5801 8.65136 79.7001 7.01119 88.0001 3.94824ZM31.8301 5.1339C29.1001 7.10999 28.7101 10.3212 29.5001 9.93581C23.5001 11.1808 21.1301 13.226 17.6201 15.1922C20.3201 9.95557 22.5201 6.11207 31.8301 5.1339Z" fill="#CCCCCC"/>
<path id="path70740" d="M16.4901 13.8185C22.9801 4.3431 31.6601 -1.00224 45.8201 10.8543L16.4901 13.8185ZM75.8201 10.1331C86.1101 -0.290842 96.29 -1.931 108.08 10.3208L75.8201 10.1331ZM17.33 15.5476C11.52 16.4171 7.18005 12.2475 5.89005 9.61929L17.33 15.5476ZM15.4601 19.3417C8.56005 19.8061 4.32004 16.4368 3.84004 14.8065L15.4601 19.3417ZM14 22.8592C7.49005 24.3412 4.87004 23.0271 2.29004 21.1301L14 22.8592ZM102 10.7753C108.9 11.2397 112.83 7.27762 113.31 5.65722L102 10.7753ZM108.31 13.8877C115.21 14.352 119.14 10.3801 119.62 8.75969L108.31 13.8877ZM111.57 17.7905C118.07 19.2824 120.43 17.2866 123.01 15.3796L111.57 17.7905ZM49.9 19.6579C42.32 29.5384 23.67 29.6273 15.12 23.7286C14.9604 22.7358 15.0427 21.7196 15.36 20.7645C19.87 12.5736 37.28 5.10391 49.9 19.6678V19.6579ZM112.64 16.8913C105.86 27.0979 83.9301 27.7599 72.3801 21.634C72.1001 20.6459 71.62 20.2211 71.93 18.8081C75.74 14.0853 95.8001 2.81163 112.64 16.8913Z" stroke="#FF9696" stroke-width="3" stroke-linecap="round" stroke-linejoin="round"/>
</g>
</g>
</g>
</svg>
