<svg width="98" height="28" viewBox="0 0 98 28" fill="none" xmlns="http://www.w3.org/2000/svg">
<g id="Eyes9">
<g id="layer1">
<g id="g78998">
<path id="path78990" d="M36.36 18.397C30.73 27.8625 12.56 28.4652 2.97998 22.7938C0.779985 14.257 9.31999 -8.42855 36.36 18.397ZM96.28 15.7589C89.8 25.501 68.86 26.1235 57.83 20.2841C57.44 13.1504 91 -9.16959 96.28 15.7589Z" fill="white"/>
<path id="path78992" d="M8.00007 16.8753C7.94007 23.5446 12.7501 27.2202 18.8801 27.2992C25.0101 27.3783 30.1201 23.8114 30.1901 17.1421C29.6501 11.3916 22.5101 10.7692 19.1201 6.56007C13.0001 6.49091 8.00007 10.1862 8.00007 16.8753ZM63.6101 14.1878C63.5301 21.0547 68.9301 25.3626 75.9901 25.4318C83.0501 25.501 89.1001 21.3314 89.1701 14.4645C89.2401 7.59752 84.4701 2.81537 77.4101 2.73633C72.9901 7.48884 65.4101 10.4233 63.6101 14.1878Z" fill="#333333"/>
<path id="path78996" d="M18.5701 16.4907C18.5701 18.0419 20.5101 19.3165 22.9201 19.3462C25.3301 19.3758 27.3101 18.1408 27.3201 16.5994C27.3301 15.058 25.3901 13.7736 22.9801 13.7439C20.5701 13.7143 18.5901 14.9494 18.5701 16.4907ZM76.7801 14.1392C76.7801 15.5718 78.7801 16.7476 81.2801 16.7772C83.7801 16.8069 85.83 15.6706 85.84 14.238C85.8501 12.8053 83.84 11.6196 81.34 11.5999C78.84 11.5801 76.7901 12.746 76.7801 14.1392Z" fill="white"/>
<path id="path83219" d="M40.0001 9.64313C42.0001 17.5475 35.8101 18.5356 23.0601 9.98895C19.0601 7.3311 12.9901 3.01332 2.33008 6.83707L40.0001 9.64313ZM52.3301 9.06018C50.9101 16.4113 55.8201 19.7015 67.9501 9.28743C71.3401 6.32328 84.3301 -0.928997 94.3501 3.5271L52.3301 9.06018ZM2.80008 20.235C9.16008 29.2361 26.5401 27.1513 35.6401 20.7389C35.9023 19.3512 35.9023 17.9275 35.6401 16.5397C19.8201 12.4591 12.4701 -5.39497 2.77008 20.235H2.80008ZM96.3601 15.7592C89.8801 25.5013 68.9401 26.1238 57.9101 20.2844C57.6514 19.1268 57.672 17.9252 57.9701 16.7768C67.6901 12.6666 81.2001 -10.7107 96.3601 15.7888V15.7592Z" stroke="black" stroke-width="3" stroke-linecap="round" stroke-linejoin="round"/>
</g>
</g>
</g>
</svg>
