<svg width="98" height="41" viewBox="0 0 98 41" fill="none" xmlns="http://www.w3.org/2000/svg">
<g id="Eyes4">
<g id="layer1">
<g id="g95491">
<path id="path95479" d="M35.1099 21.4809C29.4299 30.1955 11.1099 29.326 1.78987 25.8777C-0.57013 20.4929 18.3999 10.6124 35.1099 21.4809ZM94.9299 18.8527C88.4599 28.5751 67.5599 29.1976 56.5399 23.3681C53.7999 17.3212 76.1699 6.6009 94.9299 18.8132V18.8527Z" fill="white"/>
<path id="path148801" d="M66.5299 20.3345C66.4699 25.4131 70.6399 28.0413 75.8599 28.1006C81.0799 28.1598 85.3699 25.6206 85.4299 20.542C85.4578 18.0656 84.4889 15.6798 82.7363 13.9093C80.9838 12.1388 78.5912 11.1287 76.0849 11.1012C73.5786 11.0736 71.1639 12.031 69.372 13.7626C67.5801 15.4942 66.5578 17.8581 66.5299 20.3345Z" fill="#333333"/>
<path id="path149038" d="M9.65991 21.3125C9.65991 25.8476 13.3399 28.2288 18.0099 28.2288C22.6799 28.2288 26.5399 26.0057 26.5899 21.4607C26.5414 19.289 25.6403 17.221 24.0769 15.6938C22.5135 14.1667 20.4104 13.2999 18.212 13.2768C16.0137 13.2537 13.8924 14.0761 12.2965 15.5701C10.7006 17.0641 9.75509 19.1127 9.65991 21.2828V21.3125Z" fill="#333333"/>
<path id="path95483" d="M32.45 25.5423C26.78 28.289 6.70998 28.1211 2.28998 26.5303C2.1178 24.6324 2.185 22.7207 2.48999 20.8392C2.16999 17.4798 16.36 -10.6401 33.81 18.3987C33.9 19.8906 34.65 24.1195 32.45 25.5423ZM95.59 24.8309C81.33 28.0322 63.59 26.9157 56.83 25.6608C56.4694 23.7387 56.3953 21.7747 56.61 19.8313C57.85 3.75578 87.69 -10.1461 95.5 18.458L95.59 24.8309Z" stroke="black" stroke-width="3" stroke-linecap="round" stroke-linejoin="round"/>
<path id="path95485" d="M78 19.6921C78.0809 20.4467 78.4516 21.142 79.0357 21.6346C79.6199 22.1272 80.373 22.3797 81.14 22.3401C81.5189 22.3798 81.902 22.3454 82.2674 22.2387C82.6328 22.1321 82.9734 21.9554 83.2696 21.7186C83.5659 21.4819 83.812 21.1898 83.9939 20.859C84.1759 20.5283 84.2901 20.1653 84.33 19.7909C84.2491 19.0345 83.8769 18.3378 83.2906 17.8449C82.7043 17.352 81.9486 17.1007 81.18 17.143C80.4169 17.0682 79.6549 17.294 79.0594 17.7714C78.4639 18.2487 78.0832 18.939 78 19.6921Z" fill="white"/>
<path id="path149040" d="M19.9399 20.7304C20.0036 21.4112 20.3342 22.0403 20.8612 22.4835C21.3881 22.9266 22.0696 23.1484 22.7599 23.1017C23.4439 23.1709 24.1277 22.9696 24.6618 22.5418C25.1959 22.1141 25.5368 21.4948 25.6099 20.8193C25.5438 20.1395 25.2125 19.5118 24.6861 19.0692C24.1598 18.6266 23.4797 18.4038 22.7899 18.448C22.1065 18.3815 21.4241 18.5838 20.8906 19.011C20.3571 19.4382 20.0156 20.056 19.9399 20.7304Z" fill="white"/>
<path id="path95487" d="M3.18994 18.9415C14.6899 18.487 23.5099 17.6571 33.7199 18.0226C34.1599 17.8349 27.9699 4.32828 18.9799 4.97051C7.49994 5.81035 3.80994 15.7995 3.18994 18.9415ZM56.8299 17.9535C69.0099 17.8547 86.5299 17.3508 94.5399 17.0346C94.6899 14.0705 90.2499 1.76924 77.6699 1.79888C61.9999 1.86805 57.1399 16.7184 56.8299 18.0029V17.9535Z" fill="white" stroke="black" stroke-width="3" stroke-linecap="round" stroke-linejoin="round"/>
<path id="path95489" d="M72.5 4.17036C62.5 6.67012 57.93 16.8075 58.98 16.3925C63.61 16.3925 66.52 16.027 69.16 16.1752C69.01 16.2246 68.09 6.5318 75.24 3.7455C74.3086 3.72842 73.3813 3.87219 72.5 4.17036ZM5.5 17.1237L14.64 16.6593C14.83 16.7285 12.94 8.58694 19.3 6.68001C16.189 6.78398 13.1888 7.84676 10.7195 9.71951C8.25033 11.5923 6.43577 14.1812 5.53 17.1237H5.5ZM84.72 28.1503C81.82 29.9288 78.72 32.3594 80.09 37.1613C75.97 42.971 55.23 33.2091 59.35 27.7551C67.7762 28.6597 76.2691 28.792 84.72 28.1503Z" fill="#CCCCCC"/>
<path id="path95611" d="M79.6199 38.663C64.3199 41.0739 57.7399 32.132 56.7899 24.7217M13.2999 39.1176C3.73994 38.3469 3.18993 29.1185 2.67993 26.0061L13.2999 39.1176Z" stroke="black" stroke-width="3" stroke-linecap="round" stroke-linejoin="round"/>
</g>
</g>
</g>
</svg>
