<svg width="97" height="31" viewBox="0 0 97 31" fill="none" xmlns="http://www.w3.org/2000/svg">
<g id="Eyes7">
<g id="layer1">
<g id="g22629">
<path id="path22621" d="M34.9996 21.4934C29.3496 31.0083 11.0696 31.6209 1.42957 25.91C-0.74043 17.2942 19.7496 -12.5844 34.9996 21.4934ZM95.2496 18.8553C88.7396 28.6568 67.6796 29.2891 56.5796 23.4102C54.0896 14.5178 77.6996 -16.2501 95.2496 18.8553Z" fill="white"/>
<path id="path22623" d="M4.65967 20.5152C4.65967 24.0722 7.19967 26.0384 10.4697 26.0779C13.7397 26.1175 16.4697 24.2105 16.4697 20.6536C16.4697 17.0966 13.8797 14.1818 10.6097 14.1423C7.33966 14.1028 4.69967 16.9582 4.65967 20.5152ZM77.0497 17.0175C77.0497 20.5449 79.7897 22.7581 83.4197 22.7976C87.0497 22.8371 90.1696 20.6931 90.2096 17.1559C90.2282 15.4316 89.5528 13.7706 88.3319 12.5384C87.111 11.3062 85.4448 10.6037 83.6997 10.5853C81.9545 10.567 80.2735 11.2343 79.0264 12.4406C77.7793 13.6469 77.0682 15.2933 77.0497 17.0175Z" fill="black"/>
<path id="path22625" d="M34.9995 21.4938C29.3495 31.0087 11.2195 31.1075 1.58949 25.446C1.35949 24.5073 1.87949 22.2151 2.13949 20.901C4.27949 10.0324 23.0295 -7.29796 34.9995 21.5333V21.4938ZM95.2495 18.8557C88.7395 28.6571 67.6795 29.2895 56.5795 23.4106C56.3157 22.2468 56.3363 21.0376 56.6395 19.8833C59.1195 8.65902 79.6395 -12.4457 95.2495 18.8952V18.8557Z" stroke="black" stroke-width="3" stroke-miterlimit="15.12"/>
<path id="path22627" d="M5.39966 18.569C5.39966 19.4879 6.55966 20.2586 8.00966 20.2783C9.45966 20.2981 10.6397 19.5571 10.6397 18.6283C10.6397 17.6995 9.48966 16.9387 8.03966 16.919C6.58966 16.8992 5.40966 17.6403 5.39966 18.569ZM84.0697 15.6049C84.0697 16.4151 85.2097 17.0968 86.6397 17.1067C88.0697 17.1166 89.2397 16.4744 89.2497 15.6543C89.2597 14.8342 88.1097 14.1623 86.6697 14.1525C85.2297 14.1426 84.0797 14.7848 84.0697 15.6049Z" fill="white"/>
</g>
</g>
</g>
</svg>
