<svg width="96" height="35" viewBox="0 0 96 35" fill="none" xmlns="http://www.w3.org/2000/svg">
<g id="Eyes5">
<g id="layer1">
<g id="g89773">
<path id="path89765" d="M35.6903 22.0708C30.1003 32.0007 13.3803 38.512 1.94025 26.517C-0.769746 17.427 19.3503 -15.4652 35.6903 22.0708ZM95.5502 18.8893C89.0202 28.7698 71.6902 42.4839 57.3902 23.9778C54.9002 15.0557 77.6802 -20.0102 95.5502 18.8893Z" fill="white"/>
<path id="path89769" d="M35.6903 22.0708C29.1203 34.5203 8.93032 37.8796 2.09032 24.7089C-2.68968 9.42382 25.5903 -12.827 35.6903 22.0708ZM94.2303 18.2471C91.7803 37.02 65.3603 38.2748 57.2303 22.0412C58.0003 -0.268931 91.0003 -8.32152 94.2303 18.2471Z" stroke="black" stroke-width="3" stroke-miterlimit="15.12"/>
<path id="path94063" d="M6.31029 19.5017C6.24029 26.0426 11.9603 30.7951 18.6903 30.8643C21.8861 30.8643 24.9511 29.6099 27.2109 27.3771C29.4707 25.1443 30.7403 22.116 30.7403 18.9583C30.7403 15.8006 29.4707 12.7723 27.2109 10.5395C24.9511 8.30669 21.8861 7.05232 18.6903 7.05232C11.9603 6.97328 6.37029 12.9806 6.30029 19.5017H6.31029ZM63.0503 18.652C62.9703 25.5683 69.0503 30.6173 76.1603 30.6963C77.8347 30.7094 79.4951 30.3946 81.0457 29.7702C82.5964 29.1458 84.0065 28.2242 85.1947 27.0585C86.3829 25.8927 87.3256 24.506 87.9685 22.9784C88.6114 21.4508 88.9417 19.8124 88.9403 18.158C88.9482 14.8029 87.6076 11.5819 85.2131 9.20299C82.8185 6.82408 79.566 5.4819 76.1703 5.47144C69.0403 5.39239 63.1703 11.7258 63.0503 18.652Z" fill="black"/>
<path id="path94065" d="M20.9404 14.4823C20.9796 15.6495 21.4799 16.7551 22.3341 17.5622C23.1883 18.3693 24.3286 18.8137 25.5104 18.8001C26.0908 18.8307 26.6716 18.7473 27.2192 18.5549C27.7669 18.3624 28.2705 18.0647 28.701 17.6788C29.1315 17.293 29.4803 16.8267 29.7274 16.3069C29.9744 15.787 30.1148 15.224 30.1404 14.6503C30.1038 13.4823 29.6043 12.3752 28.7495 11.5676C27.8947 10.7599 26.753 10.3164 25.5704 10.3325C24.99 10.3019 24.4092 10.3853 23.8616 10.5777C23.314 10.7702 22.8104 11.0679 22.3799 11.4538C21.9494 11.8396 21.6006 12.3059 21.3535 12.8257C21.1064 13.3456 20.966 13.9086 20.9404 14.4823ZM78.5504 13.3461C78.5871 14.5831 79.1157 15.756 80.0217 16.6105C80.9277 17.4649 82.1381 17.9322 83.3904 17.9108C84.0053 17.9441 84.6207 17.8563 85.201 17.6527C85.7812 17.449 86.3148 17.1335 86.7706 16.7244C87.2265 16.3154 87.5956 15.821 87.8564 15.2699C88.1173 14.7188 88.2649 14.1219 88.2904 13.514C88.2487 12.2787 87.7184 11.1088 86.8136 10.2554C85.9087 9.40197 84.7013 8.93304 83.4504 8.94924C82.8356 8.91601 82.2201 9.00376 81.6399 9.20743C81.0596 9.41109 80.5261 9.7266 80.0702 10.1356C79.6144 10.5447 79.2453 11.0391 78.9844 11.5902C78.7235 12.1413 78.576 12.7382 78.5504 13.3461Z" fill="white"/>
</g>
</g>
</g>
</svg>
