<svg width="97" height="30" viewBox="0 0 97 30" fill="none" xmlns="http://www.w3.org/2000/svg">
<g id="Eyes10">
<g id="layer1">
<g id="g84670">
<path id="path84660" d="M35.8 21.6878C19.12 31.924 11.43 27.3196 2.26001 23.1599C4.05001 15.4532 17.86 2.04535 28.12 4.77236C34.12 6.373 35.8 21.6878 35.8 21.6878ZM96.05 18.7236C79.61 30.3826 66.75 27.1023 57.52 22.5177C54.52 23.3576 60.64 3.63611 74.9 2.4801C83.33 1.80822 89.48 9.7719 96.05 18.7236Z" fill="white"/>
<path id="path84662" d="M71.5899 3.27021C62.4599 1.58065 60.2599 14.4352 60.2699 14.6229C63.5899 13.8226 65.3699 17.1424 68.2699 16.7472C68.5899 17.6068 67.2699 8.02272 73.0499 3.50734C72.1199 3.33937 72.3999 3.4283 71.5499 3.27021H71.5899ZM19.4499 6.80742C14.5699 9.79605 10.3106 13.6758 6.8999 18.2391C8.6499 20.0078 14.8499 19.2272 18.2999 18.743C18.2999 18.6245 19.8999 6.43197 27.2999 5.60201C26.9399 4.61396 20.8399 5.99722 19.4199 6.84695L19.4499 6.80742Z" fill="#CCCCCC"/>
<path id="path84664" d="M7.99994 18.8519C7.93994 25.7682 11.9099 28.0605 18.1599 28.1396C24.4099 28.2186 29.7699 24.0194 29.8399 17.1129L7.99994 18.8519ZM63.5199 15.6309C63.4399 22.4879 68.0799 27.9815 75.1299 28.0506C82.1799 28.1198 88.2199 23.9502 88.2999 17.0932L63.5199 15.6309Z" fill="#333333"/>
<path id="path84666" d="M18.9399 20.2153C18.9399 21.6578 20.7099 22.8435 22.9399 22.8731C25.1699 22.9028 26.9399 21.7566 26.9399 20.3141C26.9399 18.8715 25.1599 17.6859 22.9399 17.6562C20.7199 17.6266 18.9999 18.7925 18.9399 20.2153ZM76.9999 18.5158C76.9999 19.9485 78.9999 21.1243 81.4999 21.1539C83.9999 21.1836 86.0399 20.0473 86.0599 18.6146C86.0799 17.182 84.0599 16.0062 81.5599 15.9766C79.0599 15.9766 77.0199 17.0832 76.9999 18.5158Z" fill="white"/>
<path id="path84668" d="M55.4999 12.6268C63.4999 19.2664 80.5699 18.555 93.6499 15.7095M3.67993 19.0886C11.6799 18.7922 25.1599 20.0272 37.3799 13.348L3.67993 19.0886ZM36.1199 20.709C28.2299 30.0658 12.3399 29.8089 2.56994 23.9399C2.33994 22.9519 1.85994 23.0902 2.12994 21.7366C8.85994 13.1603 33.4399 -13.5763 36.1299 20.7485L36.1199 20.709ZM95.3799 18.3871C88.9099 28.1194 67.9999 28.7418 56.9999 22.9025C56.74 21.7478 56.764 20.5484 57.0699 19.4048C66.0699 -8.26061 81.35 2.1633 95.42 18.4167L95.3799 18.3871Z" stroke="black" stroke-width="3" stroke-linecap="round" stroke-linejoin="round"/>
</g>
</g>
</g>
</svg>
