<svg width="97" height="38" viewBox="0 0 97 38" fill="none" xmlns="http://www.w3.org/2000/svg">
<g id="Eyes3">
<g id="layer1">
<g id="g144220">
<path id="path344263" d="M35.5002 21.7448C18.8202 31.9809 11.1302 27.3668 1.96021 23.2169C3.75021 15.5102 9.7502 5.24434 17.8902 4.87876C26.0302 4.51318 35.5002 21.7448 35.5002 21.7448ZM95.7502 18.7806C79.3102 30.4396 66.4502 27.1593 57.2102 22.5747C54.2702 23.4146 60.5002 4.92817 74.6002 2.53709C83.4002 1.05502 89.2802 9.6214 95.7502 18.7806Z" fill="white"/>
<path id="path526843-9" d="M73.8202 3.58375C64.7002 3.58375 59.6602 15.7071 59.6602 15.7071C62.9802 14.8969 68.0402 15.7071 70.9802 15.2724C71.0302 15.2724 71.3102 5.89579 77.7002 3.41578C76.4043 3.38933 75.1081 3.44874 73.8202 3.59362V3.58375ZM17.6502 6.05387C8.53022 6.05387 3.98022 17.5844 3.98022 17.5844C7.28022 16.7841 11.5502 16.8335 14.9802 16.3493C14.9302 16.2308 16.7802 7.29881 24.2102 6.46885C23.2802 6.30088 18.5202 6.05387 17.6602 6.05387H17.6502Z" fill="#CCCCCC"/>
<path id="path135005" d="M6.85012 16.8931C6.78012 23.8094 11.5601 28.1173 17.8501 28.1964C24.1401 28.2754 29.4601 24.0663 29.5301 17.1697L6.85012 16.8931ZM62.4101 16.8931C62.3301 23.7501 67.7301 28.0481 74.7801 28.1272C81.8301 28.2062 87.8701 24.0268 87.9501 17.1697L62.4101 16.8931Z" fill="#333333"/>
<path id="ellipse135009" d="M18.6401 20.2917C18.6401 21.7342 20.4101 22.9199 22.6401 22.9495C24.8701 22.9792 26.6401 21.833 26.6401 20.3905C26.6401 18.9479 24.8601 17.7623 22.6401 17.7326C20.4201 17.703 18.6501 18.8491 18.6401 20.2917ZM76.7301 18.5725C76.7301 19.9953 78.7301 21.1809 81.2301 21.2106C83.7301 21.2402 85.7702 20.0941 85.7902 18.6713C85.8102 17.2485 83.7901 16.053 81.2901 16.0332C78.7901 16.0332 76.7501 17.1398 76.7301 18.5725Z" fill="white"/>
<path id="path135011" d="M57.6401 17.2092C69.6401 16.0433 81.8401 16.2211 92.5601 15.5295M3.77014 18.2763C11.2401 17.6834 24.0201 18.2763 33.5301 17.5945L3.77014 18.2763ZM35.8201 20.7661C27.9301 30.123 12.0401 29.8661 2.27014 23.9872C2.04014 22.9991 1.56014 23.1473 1.83014 21.7937C4.00014 10.5794 22.0301 -10.5254 35.8301 20.8057L35.8201 20.7661ZM95.0801 18.4047C88.6101 28.137 67.6901 28.7595 56.6601 22.9201C56.4002 21.7654 56.4242 20.566 56.7301 19.4224C59.1901 8.27721 79.5301 -12.6892 95.0801 18.4344V18.4047Z" stroke="black" stroke-width="3" stroke-miterlimit="15.12"/>
</g>
</g>
</g>
</svg>
