<svg width="173" height="65" viewBox="0 0 173 65" fill="none" xmlns="http://www.w3.org/2000/svg">
<g id="Glasses1">
<g id="layer1">
<g id="g1849">
<path id="path621540-2" d="M53.78 36.721C47.61 47.0955 27.69 47.7575 17.19 41.5427C14.84 32.1562 37.18 -0.449389 53.78 36.721ZM119.45 33.826C112.35 44.5069 89.45 45.1886 77.31 38.7663C74.6 29.1229 100.33 -4.40158 119.45 33.826Z" fill="white"/>
<path id="path530256" d="M122.89 5.90376C122.89 5.90376 132.22 2.45547 132 19.1041C131.78 35.7527 129.75 55.5829 129.75 55.5829L86.46 56.1658L80.46 41.9182C80.46 41.9182 98.08 43.7856 104.14 42.264C110.2 40.7424 121.04 37.1162 121.04 37.1162C121.04 37.1162 117.04 24.0246 110.73 21.1494C106.656 19.2276 102.902 16.702 99.6 13.6599C99.6 13.6599 108.1 6.63492 114.14 6.63492C117.059 6.7366 119.98 6.49112 122.84 5.90376H122.89Z" fill="#CCCCCC"/>
<path id="path621542-7" d="M22.6699 35.0513C22.5999 42.3628 27.8699 46.3941 34.5799 46.4731C41.2899 46.5522 46.9099 42.6494 46.9799 35.3477C47.0499 28.046 41.6699 22.0584 34.9799 21.9794C28.2899 21.9003 22.7399 27.7496 22.6699 35.0513ZM83.6099 32.0871C83.5299 39.6161 89.4499 44.3291 97.1799 44.418C104.91 44.5069 111.55 39.9125 111.63 32.3934C111.671 28.7248 110.235 25.1902 107.639 22.5674C105.043 19.9445 101.498 18.4482 97.7849 18.4076C94.0718 18.367 90.4946 19.7854 87.84 22.3508C85.1854 24.9162 83.671 28.4185 83.6299 32.0871H83.6099Z" fill="#333333"/>
<path id="ellipse621546-0" d="M34.5498 32.5318C34.5498 34.0534 36.4498 35.3181 38.8298 35.3379C41.2098 35.3576 43.1498 34.1621 43.1698 32.6405C43.1698 31.109 41.2598 29.8542 38.8798 29.8246C36.4998 29.7949 34.5598 31.0102 34.5498 32.5318ZM97.8098 29.3503C97.8098 30.9213 99.9998 32.2156 102.74 32.2453C105.48 32.2749 107.74 31.03 107.74 29.459C107.74 27.888 105.55 26.5936 102.81 26.564C100.07 26.5344 97.8098 27.7793 97.8098 29.3503Z" fill="white"/>
<path id="path621544-3" d="M53.78 36.7211C47.61 47.0956 27.86 47.2043 17.36 40.9796C17.11 39.9915 17.68 37.472 17.96 36.0393C20.3 24.1827 40.73 5.31097 53.78 36.731V36.7211ZM119.45 33.8261C112.35 44.5069 89.45 45.1887 77.31 38.7663C77.0197 37.4983 77.0437 36.1797 77.38 34.9228C80.08 22.7006 102.38 -0.301155 119.45 33.8063V33.8261Z" stroke="#999999" stroke-width="3" stroke-miterlimit="15.12"/>
<path id="path1569" d="M126.05 1.62549L11.4499 3.50278C5.73992 4.30309 1.34992 6.46693 1.44992 13.4524L2.21992 52.9744C3.26992 60.2366 6.91991 61.936 12.7899 62.7165L23.6099 62.9438C23.6327 60.3339 24.6053 57.8193 26.3499 55.8595C25.4799 55.8595 15.9399 56.2547 10.4799 55.1679C4.74992 54.0316 6.57992 50.8402 6.57992 50.8402H33.0799L29.2399 53.8044C30.8017 53.0209 32.4537 52.427 34.1599 52.0357L43.4399 45.5245C61.7899 39.3097 75.8399 39.9815 81.1699 55.0098L89.0599 63.1118L128.35 63.0426C131.17 61.3135 134.29 60.533 135.96 55.0295L137.08 20.2601L171.45 17.1379L171.24 9.64844L135.53 8.18613C133.255 4.9661 129.888 2.65653 126.04 1.67488L126.05 1.62549ZM122.12 8.66039C129.28 8.98645 129.12 12.2668 129.59 15.2902L7.09993 14.974C6.86993 12.8892 7.29993 12.1581 10.7099 10.5377L122.12 8.66039ZM129.33 20.0822L129.59 25.5956L7.10992 25.2399L7.29992 20.2304L129.33 20.0822ZM129.38 29.7849L129.78 34.7251L7.14991 35.4563V30.1801L129.38 29.7849ZM129.56 39.4678L129.51 45.3368L83.8999 45.396L80.2999 39.7444L129.56 39.4678ZM46.1999 39.8531L44.5599 44.2796L41.5599 44.8427L6.46992 44.9416L6.97992 40.1298L46.1999 39.8531ZM86.1999 50.3067L129.62 50.445C129.62 50.445 128.13 54.0909 126.21 55.0888C124.29 56.0868 88.2099 55.237 88.2099 55.237L86.1999 50.3067Z" fill="#008080"/>
<path id="path28071" d="M136.19 8.25585L171.07 9.43163V17.1187L136 20.478L136.19 8.25585ZM25.84 55.8699L12.1301 55.7711C6.69005 55.7711 6.13005 52.6983 6.13005 47.4913V15.4884C6.13005 10.2814 10.51 10.0837 15.94 9.99483L119.86 8.20644C125.3 8.11752 129.68 9.68852 129.68 14.8955V47.2739C129.68 52.471 128.41 55.3561 122.97 55.3759L87.33 55.4747C82.33 39.5276 79.5601 35.9904 58.8801 36.3757C51.4001 36.5239 45.77 38.9545 45.22 43.549L25.84 55.8699ZM6.77005 50.3072H34.11H6.77005ZM86 49.9416L129.15 49.6749C129.77 51.2656 129.89 55.6032 120.56 55.5142L87.67 55.6624L86 49.9416ZM41.67 45.5646L6.16005 45.7227L6.32005 40.1402L45.87 39.8932L41.67 45.5646ZM79.42 39.6758L129.42 39.3695V45.1595L83.61 45.3769L79.42 39.6758ZM6.61005 30.0819L129.69 29.3112V35.1209L6.45004 35.6841L6.61005 30.0819ZM6.61005 20.2804L129.68 19.5097V25.3096L6.45004 25.8728L6.61005 20.2804ZM14.9 9.94542L121.81 8.23608C122.55 8.41393 129.72 7.53458 129.72 15.024L6.49005 15.5872C6.56005 11.4077 8.43004 9.95529 14.9 9.95529V9.94542ZM11.9 3.69107L126 1.80389C127.323 1.79602 128.635 2.04776 129.859 2.54449C131.083 3.04122 132.196 3.77308 133.131 4.69765C134.067 5.62221 134.808 6.72109 135.311 7.93059C135.813 9.14009 136.068 10.4362 136.06 11.7437V52.9947C136.068 54.3022 135.813 55.5983 135.311 56.8078C134.808 58.0173 134.067 59.1162 133.131 60.0407C132.196 60.9653 131.083 61.6972 129.859 62.1939C128.635 62.6906 127.323 62.9423 126 62.9345L90.55 62.6282C86.81 62.3911 84.03 60.2668 82.01 56.5813C80.46 53.7555 81.01 39.9722 55.81 41.4839C45.67 42.0867 39.81 47.6099 33.92 50.8902C28.03 54.1705 24.26 56.0577 23.92 62.0848L11.8501 61.986C6.27005 61.986 1.79004 58.7452 1.79004 53.2417V13.6308C1.79796 10.998 2.86072 8.47531 4.74591 6.61451C6.6311 4.7537 9.18533 3.70615 11.8501 3.70094L11.9 3.69107Z" stroke="black" stroke-width="3" stroke-linecap="round" stroke-linejoin="round"/>
</g>
</g>
</g>
</svg>
