<svg width="172" height="43" viewBox="0 0 172 43" fill="none" xmlns="http://www.w3.org/2000/svg">
<g id="Glasses5">
<g id="layer1">
<g id="g679499">
<path id="rect679888" d="M32.7203 42.2052H8.21031C7.30035 42.2078 6.39883 42.0328 5.55751 41.6903C4.71619 41.3477 3.95163 40.8443 3.30772 40.209C2.66382 39.5738 2.15325 38.8191 1.80533 37.9883C1.45741 37.1575 1.27898 36.267 1.2803 35.3679V7.88041C1.27766 6.98049 1.45511 6.08893 1.80244 5.25702C2.14977 4.4251 2.66013 3.66925 3.30417 3.03291C3.9482 2.39657 4.71321 1.8923 5.55519 1.54912C6.39717 1.20594 7.29951 1.03062 8.21031 1.03323H47.4603C51.3003 1.03323 54.3903 5.97347 54.3603 9.74782C55.7803 7.27769 77.5003 6.55642 78.1903 9.74782C78.2603 6.00311 81.3503 1.07275 85.1903 1.07275H124.45C125.361 1.07014 126.263 1.24547 127.105 1.58865C127.947 1.93183 128.712 2.43609 129.356 3.07243C130 3.70876 130.511 4.46463 130.858 5.29655C131.205 6.12846 131.383 7.02002 131.38 7.91994V11.1508L135.18 11.467L167.49 15.4884L171.29 26.0605C170.02 28.8863 166.09 28.4318 163.48 25.4084L135.18 29.3013L131.38 29.4199V35.4075C131.382 36.3065 131.203 37.197 130.855 38.0278C130.507 38.8586 129.997 39.6133 129.353 40.2486C128.709 40.8839 127.944 41.3872 127.103 41.7298C126.262 42.0724 125.36 42.2474 124.45 42.2448H85.1803C84.2708 42.2474 83.3698 42.0723 82.529 41.7296C81.6883 41.3869 80.9243 40.8834 80.2812 40.248C79.6381 39.6125 79.1285 38.8578 78.7817 38.0271C78.4349 37.1963 78.2577 36.3061 78.2603 35.4075V27.1078C79.2603 20.1915 53.6903 18.6798 54.4603 27.3055C50.5803 34.0538 37.3303 37.2057 32.7203 42.2052Z" fill="white" stroke="black" stroke-linecap="round" stroke-linejoin="round"/>
<path id="path695542" d="M8.61029 2.40677C4.78029 2.40677 2.55029 3.82955 2.55029 7.61378V34.6962L119 2.25855L85.7103 2.11035C81.8703 2.11035 78.6503 7.23833 78.5803 11.0028C77.8903 7.85092 55.1303 9.0267 53.7203 11.4869C53.7203 7.70271 50.8603 2.86127 47.0203 2.82175L8.61029 2.40677ZM167.61 19.2036L126.72 15.7257L80.5003 37.8382C81.1226 38.8193 81.9865 39.6285 83.0114 40.1901C84.0362 40.7517 85.1884 41.0473 86.3603 41.0494L123.26 40.9209C127.09 40.9209 129.26 37.7592 130.18 34.0836L130.34 29.3805L130.6 28.1257L164.32 23.5312C165.92 25.9816 166.61 27.4242 169.94 25.7741L167.61 19.2036ZM53.7003 26.9301C54.7003 21.8022 58.7003 21.7725 62.0003 20.5473L61.7103 16.5359C42.2103 22.5234 24.9903 34.0145 10.3603 41.2371H32.5403C37.0603 36.3858 49.5203 33.4414 53.7003 26.9301Z" fill="#F1F1F1"/>
<path id="rect680113" d="M120.45 5.21289H89.1704C86.1218 5.21289 83.6504 7.65475 83.6504 10.6669V32.572C83.6504 35.5841 86.1218 38.026 89.1704 38.026H120.45C123.499 38.026 125.97 35.5841 125.97 32.572V10.6669C125.97 7.65475 123.499 5.21289 120.45 5.21289Z" fill="#FF0000" stroke="black" stroke-linecap="round" stroke-linejoin="round"/>
<path id="rect680153" d="M12.1904 5.21293H43.4804C44.2057 5.21162 44.9241 5.3518 45.5944 5.62543C46.2647 5.89906 46.8737 6.30076 47.3866 6.80747C47.8994 7.31418 48.306 7.91596 48.5829 8.57826C48.8598 9.24056 49.0017 9.95036 49.0004 10.667V32.404C47.5904 33.5699 44.6304 35.1113 38.1804 38.0656H12.1804C11.4551 38.0669 10.7367 37.9267 10.0664 37.6531C9.39612 37.3794 8.78708 36.9777 8.27424 36.471C7.7614 35.9643 7.35484 35.3625 7.07791 34.7002C6.80097 34.0379 6.65909 33.3281 6.66041 32.6115V10.667C6.65909 9.94953 6.80129 9.23891 7.07885 8.57597C7.35641 7.91302 7.76386 7.3108 8.27776 6.80396C8.79167 6.29711 9.40189 5.89563 10.0734 5.62258C10.7448 5.34954 11.4643 5.21032 12.1904 5.21293Z" fill="#0000FF" stroke="black" stroke-linecap="round" stroke-linejoin="round"/>
<path id="path686886" d="M96.7304 36.9486L116.73 6.31905L97.5504 6.25977L84.5504 27.4435C84.4904 38.8654 86.4804 37.1264 96.7004 36.9782L96.7304 36.9486Z" fill="#FF8F8F"/>
<path id="path693730" d="M19.7604 36.9486L39.7604 6.31905L20.5804 6.25977L7.5804 27.4435C7.5204 38.8654 9.5104 37.1264 19.7404 36.9782L19.7604 36.9486Z" fill="#8F8FFF"/>
</g>
</g>
</g>
</svg>
