<svg width="174" height="45" viewBox="0 0 174 45" fill="none" xmlns="http://www.w3.org/2000/svg">
<g id="Glasses4">
<g id="layer1">
<g id="g8806">
<path id="path363125" d="M130 2.40625L2.12988 5.93358L2.27988 18.6893C3.74988 27.2952 9.16989 40.0806 17.5699 42.6989L36.9299 42.5803C60.8199 4.83685 73.5999 43.5091 80.6099 42.5803H98.5299C118.86 40.7722 123.3 24.9535 130.03 18.8177L130 2.40625ZM133.85 2.76195V17.8692L169.14 16.4563C174.63 14.2628 171.14 11.2295 169.72 9.70793L133.85 2.76195Z" fill="black" stroke="black" stroke-width="3"/>
<path id="path296043" d="M101.39 3.07812L86.1098 40.1794L82.9298 40.0509L98.2398 3.12753L101.39 3.07812ZM117.17 3.07812L101.89 40.1794L89.9398 40.0509L105.25 3.12753L117.17 3.07812ZM37.2398 5.18267L22.9998 40.1794L19.8198 40.0509L34.0898 5.23208L37.2398 5.18267ZM51.2398 5.18267L36.9998 40.1794L26.7998 40.0509L41.0698 5.23208L51.2398 5.18267Z" fill="#F2F2F2"/>
</g>
</g>
</g>
</svg>
