<svg width="171" height="57" viewBox="0 0 171 57" fill="none" xmlns="http://www.w3.org/2000/svg">
<g id="Glasses2">
<g id="layer1">
<g id="g68370">
<path id="path60883" d="M51.5698 32.1561C42.0198 47.2634 17.1198 46.384 4.28977 36.0194C1.65977 25.1508 31.7698 -11.3181 51.5698 32.1561ZM123.24 32.7489C113.24 48.6367 87.0098 47.708 73.5098 36.8098C70.7498 25.3879 102.41 -12.978 123.24 32.7489Z" fill="white"/>
<path id="path60885" d="M11.6098 28.8167C11.2098 37.2151 17.6098 43.5781 26.2898 43.9733C34.9698 44.3686 42.4898 38.6675 42.8898 30.2691C43.0057 26.2172 41.5077 22.2821 38.7179 19.3101C35.928 16.3381 32.0692 14.5664 27.9712 14.3761C23.8731 14.1859 19.8632 15.5921 16.8035 18.2926C13.7439 20.993 11.879 24.7719 11.6098 28.8167ZM81.2098 29.2317C80.7898 38.0648 87.5598 44.7539 96.6498 45.1788C105.74 45.6036 113.65 39.5963 114.11 30.7631C114.25 26.4906 112.684 22.335 109.748 19.1945C106.813 16.0539 102.745 14.1806 98.4236 13.9795C94.1019 13.7783 89.8736 15.2654 86.6526 18.1194C83.4316 20.9734 81.4765 24.965 81.2098 29.2317Z" fill="#333333"/>
<path id="path60887" d="M51.5698 32.1562C42.7598 48.2515 16.8698 50.3363 4.28978 36.0195C4.02507 34.5915 4.10733 33.1218 4.52978 31.7313C8.03978 18.1753 33.9098 -6.6247 51.5298 32.1562H51.5698ZM123.24 32.749C113.98 49.6644 86.7498 51.8678 73.5098 36.8099C73.2379 35.3054 73.3269 33.7589 73.7698 32.2945C77.4598 18.0469 104.66 -8.0475 123.24 32.749V32.749Z" stroke="#999999" stroke-width="3" stroke-miterlimit="15.12"/>
<path id="circle59194" d="M97.7499 0.864746C91.3482 0.864746 85.137 3.01687 80.1374 6.96731C75.1378 10.9178 71.6473 16.4314 70.2399 22.6018C66.6799 20.7344 58.3199 19.3116 53.3899 22.0288C52.1963 17.1995 49.6515 12.7996 46.0464 9.33196C42.4413 5.86435 37.9214 3.46905 33.0035 2.41988C28.0855 1.37071 22.968 1.71004 18.236 3.39906C13.5041 5.08809 9.34863 8.05865 6.24479 11.9711C3.14095 15.8836 1.21398 20.58 0.68421 25.5235C0.154437 30.4671 1.04323 35.4581 3.24898 39.926C5.45473 44.394 8.88842 48.1585 13.1575 50.7892C17.4265 53.4199 22.3586 54.8106 27.3899 54.8024C27.5899 54.8024 27.8399 54.9308 27.9899 54.8024C30.7044 52.8689 33.667 51.3006 36.7999 50.1388C39.5499 49.0124 45.3799 44.5365 46.5199 46.8782C50.7029 42.6624 53.3363 37.1837 53.9999 31.3164C56.5105 30.2858 59.2131 29.7909 61.9308 29.8641C64.6485 29.9373 67.3198 30.577 69.7699 31.7413C70.5295 38.5979 73.8379 44.9318 79.0541 49.5159C84.2703 54.1 91.0229 56.608 98.0037 56.5538C104.984 56.4997 111.696 53.8874 116.839 49.223C121.982 44.5585 125.189 38.1741 125.84 31.3065L132.12 30.9014L169.39 29.9727C170.67 28.2337 171.28 26.2082 169.17 23.0563L132.51 21.4359L124.92 21.3272C123.281 15.4491 119.736 10.2644 114.828 6.56819C109.92 2.87202 103.921 0.86845 97.7499 0.864746ZM97.7499 4.16484C104.341 4.16484 110.663 6.75135 115.325 11.3557C119.987 15.96 122.607 22.2051 122.61 28.7178C122.612 33.5764 121.156 38.3263 118.425 42.367C115.695 46.4076 111.813 49.5574 107.27 51.4181C102.728 53.2787 97.7291 53.7665 92.9061 52.8199C88.083 51.8732 83.6525 49.5346 80.1747 46.0998C76.697 42.665 74.3283 38.2884 73.3683 33.5234C72.4082 28.7584 72.9 23.8191 74.7813 19.3302C76.6626 14.8414 79.8489 11.0046 83.9373 8.30512C88.0258 5.60567 92.8326 4.16484 97.7499 4.16484ZM27.3399 4.98492C32.0122 4.98688 36.579 6.35735 40.4632 8.92313C44.3474 11.4889 47.3745 15.1348 49.1621 19.4001C50.9496 23.6653 51.4173 28.3584 50.5061 32.8862C49.5948 37.414 47.3454 41.5732 44.0423 44.8383C40.7392 48.1033 36.5306 50.3275 31.9484 51.2298C27.3662 52.1321 22.6162 51.672 18.2986 49.9076C13.981 48.1432 10.2897 45.1538 7.69126 41.3171C5.0928 37.4804 3.70382 32.9687 3.69986 28.3523C3.69724 25.2837 4.30684 22.2448 5.49381 19.4092C6.68078 16.5736 8.42182 13.997 10.6174 11.8268C12.813 9.65651 15.42 7.93518 18.2894 6.7612C21.1587 5.58722 24.2342 4.98362 27.3399 4.98492Z" fill="#333333"/>
<path id="ellipse60891" d="M16.6599 32.7392C16.6733 33.8194 17.1007 34.8545 17.856 35.6356C18.6113 36.4167 19.6383 36.8858 20.7299 36.9483C21.2523 37.0084 21.7817 36.9621 22.2854 36.8123C22.789 36.6624 23.2562 36.4122 23.6582 36.0771C24.0602 35.7419 24.3884 35.3289 24.6226 34.8636C24.8568 34.3983 24.992 33.8905 25.0199 33.3715C25.0138 32.2908 24.5901 31.2531 23.8355 30.4707C23.0808 29.6884 22.0522 29.2204 20.9599 29.1625C20.4364 29.0994 19.9054 29.1435 19.4 29.2921C18.8945 29.4407 18.4255 29.6906 18.0221 30.0262C17.6186 30.3617 17.2895 30.7758 17.0551 31.2426C16.8208 31.7093 16.6862 32.2188 16.6599 32.7392ZM26.8199 23.7084C26.8354 25.1421 27.4018 26.5165 28.4045 27.553C29.4071 28.5895 30.771 29.2108 32.2199 29.2909C32.9132 29.3731 33.6161 29.3135 34.285 29.1157C34.954 28.918 35.5746 28.5864 36.1083 28.1416C36.6419 27.6968 37.0773 27.1482 37.3872 26.53C37.6972 25.9119 37.8751 25.2373 37.9099 24.5483C37.8944 23.1171 37.329 21.7453 36.3283 20.7107C35.3275 19.676 33.9661 19.0558 32.5199 18.9757C31.8269 18.8935 31.1243 18.9528 30.4554 19.1499C29.7866 19.3469 29.1658 19.6774 28.6315 20.1211C28.0971 20.5647 27.6607 21.112 27.3491 21.7291C27.0375 22.3461 26.8574 23.0198 26.8199 23.7084ZM86.5199 33.3518C86.5332 34.488 86.9825 35.5769 87.7769 36.3985C88.5713 37.2201 89.6517 37.7132 90.7999 37.7782C91.3507 37.85 91.9105 37.8078 92.4438 37.654C92.9771 37.5002 93.4722 37.2384 93.8974 36.8852C94.3226 36.532 94.6687 36.0951 94.9136 35.6024C95.1585 35.1098 95.2969 34.5721 95.3199 34.0237C95.3068 32.8864 94.8579 31.7964 94.0636 30.9731C93.2694 30.1499 92.1889 29.6547 91.0399 29.5873C90.4896 29.523 89.9318 29.571 89.4011 29.7283C88.8703 29.8855 88.3778 30.1487 87.9541 30.5016C87.5304 30.8545 87.1845 31.2895 86.9379 31.7797C86.6912 32.27 86.5489 32.805 86.5199 33.3518ZM98.2199 23.8665C98.233 25.3753 98.8279 26.8223 99.8832 27.9128C100.939 29.0032 102.375 29.6551 103.9 29.7355C104.63 29.8232 105.371 29.7615 106.076 29.5541C106.781 29.3467 107.435 28.9981 107.998 28.5301C108.561 28.062 109.02 27.4845 109.348 26.8335C109.675 26.1824 109.863 25.4718 109.9 24.7459C109.887 23.2388 109.294 21.7931 108.24 20.7028C107.187 19.6126 105.753 18.9597 104.23 18.8769C103.5 18.7906 102.76 18.8534 102.055 19.0614C101.351 19.2694 100.697 19.618 100.135 20.0858C99.572 20.5536 99.1127 21.1305 98.7851 21.7809C98.4575 22.4312 98.2685 23.1411 98.2299 23.8665H98.2199Z" fill="white"/>
<path id="path60893" d="M27.1098 6.43722C24.2072 6.43462 21.3325 6.99724 18.6501 8.09294C15.9677 9.18864 13.5302 10.7959 11.4768 12.8229C9.42347 14.8499 7.79454 17.2569 6.68317 19.9062C5.57179 22.5555 4.99975 25.3953 4.99976 28.2632C4.99975 31.1311 5.57179 33.9709 6.68317 36.6202C7.79454 39.2696 9.42347 41.6765 11.4768 43.7035C13.5302 45.7305 15.9677 47.3378 18.6501 48.4335C21.3325 49.5292 24.2072 50.0918 27.1098 50.0892C32.8857 49.9678 38.3836 47.6154 42.4251 43.5364C46.4665 39.4574 48.7298 33.9763 48.7298 28.2681C48.7298 22.5599 46.4665 17.0789 42.4251 12.9999C38.3836 8.92088 32.8857 6.56854 27.1098 6.44709V6.43722ZM27.1098 7.77107C32.6103 7.77107 37.8856 9.93006 41.7751 13.7731C45.6646 17.6161 47.8498 22.8284 47.8498 28.2632C47.8471 33.6973 45.6611 38.908 41.7722 42.7505C37.8833 46.5929 32.6095 48.7527 27.1098 48.7553C24.3861 48.7553 21.6892 48.2253 19.1729 47.1955C16.6566 46.1657 14.3703 44.6562 12.4444 42.7533C10.5185 40.8505 8.99078 38.5914 7.9485 36.1052C6.90622 33.619 6.36975 30.9543 6.36975 28.2632C6.36844 25.5718 6.904 22.9065 7.94582 20.4197C8.98763 17.9329 10.5153 15.6733 12.4414 13.7702C14.3676 11.8671 16.6545 10.3577 19.1713 9.3283C21.6882 8.29894 24.3858 7.76978 27.1098 7.77107ZM97.5298 5.70605C91.3688 5.70605 85.4601 8.12424 81.1037 12.4287C76.7472 16.7331 74.2998 22.5711 74.2998 28.6584C74.2998 34.7458 76.7472 40.5838 81.1037 44.8882C85.4601 49.1926 91.3688 51.6108 97.5298 51.6108C103.691 51.6108 109.599 49.1926 113.956 44.8882C118.312 40.5838 120.76 34.7458 120.76 28.6584C120.76 22.5711 118.312 16.7331 113.956 12.4287C109.599 8.12424 103.691 5.70605 97.5298 5.70605ZM97.5298 7.10908C100.394 7.10778 103.231 7.66429 105.878 8.74679C108.524 9.82929 110.929 11.4165 112.955 13.4178C114.98 15.4191 116.587 17.7952 117.682 20.4103C118.778 23.0254 119.341 25.8282 119.34 28.6584C119.341 31.4892 118.778 34.2924 117.682 36.908C116.587 39.5237 114.981 41.9004 112.955 43.9025C110.93 45.9046 108.525 47.4928 105.878 48.5764C103.232 49.66 100.395 50.2177 97.5298 50.2177C94.6648 50.2177 91.8279 49.66 89.1811 48.5764C86.5344 47.4928 84.1296 45.9046 82.1042 43.9025C80.0788 41.9004 78.4725 39.5237 77.3771 36.908C76.2816 34.2924 75.7184 31.4892 75.7198 28.6584C75.7184 25.8282 76.2817 23.0254 77.3773 20.4103C78.4729 17.7952 80.0793 15.4191 82.1048 13.4178C84.1303 11.4165 86.5352 9.82929 89.1819 8.74679C91.8286 7.66429 94.6653 7.10778 97.5298 7.10908Z" fill="white"/>
<path id="circle60895" d="M51.0898 28.1843C51.0911 31.287 50.4735 34.3596 49.2724 37.2265C48.0713 40.0933 46.3101 42.6981 44.0896 44.8921C41.8691 47.086 39.2328 48.8261 36.3313 50.0129C33.4298 51.1997 30.32 51.8099 27.1798 51.8086C20.8384 51.8086 14.7568 49.3196 10.2728 44.8892C5.78885 40.4588 3.26978 34.4498 3.26978 28.1843C3.26978 21.9188 5.78885 15.9098 10.2728 11.4794C14.7568 7.04903 20.8384 4.56005 27.1798 4.56005C33.5211 4.56005 39.6027 7.04903 44.0867 11.4794C48.5707 15.9098 51.0898 21.9188 51.0898 28.1843ZM122.75 28.5696C122.75 35.1601 120.1 41.4807 115.383 46.1408C110.667 50.801 104.27 53.4191 97.5998 53.4191C94.297 53.4191 91.0266 52.7763 87.9753 51.5275C84.9239 50.2787 82.1514 48.4483 79.816 46.1408C77.4806 43.8334 75.6281 41.094 74.3642 38.0791C73.1003 35.0642 72.4498 31.8329 72.4498 28.5696C72.4498 25.3064 73.1003 22.075 74.3642 19.0602C75.6281 16.0453 77.4806 13.3059 79.816 10.9984C82.1514 8.69095 84.9239 6.86056 87.9753 5.61176C91.0266 4.36296 94.297 3.72021 97.5998 3.72021C104.27 3.72021 110.667 6.33826 115.383 10.9984C120.1 15.6586 122.75 21.9792 122.75 28.5696Z" fill="white" fill-opacity="0.4"/>
</g>
</g>
</g>
</svg>
