<svg width="165" height="58" viewBox="0 0 165 58" fill="none" xmlns="http://www.w3.org/2000/svg">
<g id="Glasses3">
<g id="layer1">
<g id="g300686">
<path id="path258943" d="M96.7103 1.82324C90.4713 1.82375 84.4183 3.92269 79.5473 7.77469C74.6764 11.6267 71.2776 17.0023 69.9103 23.0169C66.4403 21.1989 58.3003 19.8057 53.5003 22.4636C52.3408 17.7586 49.8649 13.471 46.3556 10.0906C42.8463 6.71022 38.4453 4.37356 33.6556 3.34768C28.8658 2.3218 23.8805 2.64809 19.2696 4.28925C14.6586 5.93041 10.608 8.82023 7.58068 12.6284C4.55336 16.4366 2.6715 21.0095 2.15016 25.8245C1.62883 30.6394 2.48906 35.5022 4.63254 39.8569C6.77602 44.2117 10.1163 47.8827 14.2715 50.4505C18.4268 53.0183 23.2293 54.3791 28.1303 54.3776C28.3203 54.3776 28.5703 54.4961 28.7203 54.3776C31.3641 52.494 34.2493 50.9656 37.3003 49.8325C39.9803 48.7358 45.6603 44.3884 46.7603 46.6609C50.8505 42.5472 53.4247 37.196 54.0703 31.4647C56.5159 30.4618 59.1483 29.9803 61.7952 30.0519C64.4421 30.1234 67.0439 30.7462 69.4303 31.8797C70.1993 38.5301 73.431 44.6643 78.5033 49.1014C83.5756 53.5385 90.1298 55.9649 96.9042 55.9134C103.679 55.8619 110.194 53.3361 115.197 48.8224C120.199 44.3086 123.335 38.126 124 31.4647L130.11 31.0695L161.6 27.9275C162.84 26.2379 164.17 24.5681 162.11 21.4657L129.99 22.0387L122.99 21.604C121.376 15.9357 117.939 10.9404 113.198 7.372C108.457 3.80365 102.67 1.85605 96.7103 1.82324ZM96.7103 5.04428C101.499 5.04428 106.18 6.44746 110.162 9.07633C114.143 11.7052 117.246 15.4417 119.078 19.8132C120.91 24.1847 121.389 28.9949 120.454 33.6353C119.519 38.2757 117.213 42.5379 113.826 45.8829C110.439 49.2279 106.124 51.5053 101.427 52.4272C96.7304 53.3491 91.8623 52.874 87.4386 51.0619C83.015 49.2499 79.2346 46.1824 76.5756 42.2474C73.9166 38.3123 72.4984 33.6866 72.5003 28.9551C72.499 25.8139 73.1244 22.7032 74.3407 19.801C75.5571 16.8988 77.3405 14.2619 79.589 12.0412C81.8375 9.82049 84.5069 8.05949 87.4448 6.85891C90.3826 5.65832 93.5311 5.04168 96.7103 5.04428ZM28.1303 5.83472C32.6793 5.83472 37.1261 7.16753 40.9085 9.6646C44.6908 12.1617 47.6388 15.7108 49.3796 19.8633C51.1204 24.0158 51.5759 28.5851 50.6884 32.9933C49.8009 37.4015 47.6104 41.4508 44.3938 44.6289C41.1772 47.8071 37.079 49.9715 32.6174 50.8483C28.1559 51.7252 23.5313 51.2752 19.3286 49.5551C15.1259 47.8351 11.5338 44.9224 9.00653 41.1853C6.47926 37.4481 5.13034 33.0545 5.13034 28.5598C5.13034 22.5328 7.55355 16.7525 11.8669 12.4908C16.1802 8.22896 22.0304 5.83472 28.1303 5.83472Z" fill="#1A1A1A" stroke="black" stroke-width="3" stroke-miterlimit="10"/>
<path id="circle261476" d="M51.5704 28.5796C51.5704 34.7246 49.0998 40.6179 44.7021 44.9631C40.3044 49.3082 34.3397 51.7493 28.1204 51.7493C21.9028 51.7467 15.9408 49.3045 11.5452 44.9596C7.14968 40.6147 4.68042 34.7229 4.68042 28.5796C4.68042 22.4372 7.14998 16.5464 11.5458 12.2031C15.9417 7.85978 21.9037 5.41973 28.1204 5.41973C31.1994 5.41843 34.2486 6.01651 37.0936 7.17982C39.9386 8.34313 42.5238 10.0489 44.7015 12.1996C46.8791 14.3503 48.6066 16.9039 49.7852 19.7144C50.9638 22.5249 51.5704 25.5374 51.5704 28.5796ZM121.94 29.0835C121.94 32.3377 121.292 35.56 120.031 38.5665C118.771 41.573 116.924 44.3047 114.595 46.6058C112.266 48.9068 109.501 50.7321 106.458 51.9775C103.415 53.2228 100.154 53.8638 96.8604 53.8638C91.8996 53.8638 87.0503 52.4102 82.9257 49.6869C78.8011 46.9635 75.5865 43.0928 73.6886 38.5642C71.7906 34.0356 71.2945 29.0526 72.2631 24.2455C73.2316 19.4383 75.6212 15.0229 79.1297 11.5577C82.6382 8.09251 87.108 5.73321 91.9737 4.77818C96.8394 3.82314 101.882 4.31527 106.465 6.19235C111.048 8.06942 114.964 11.2471 117.719 15.3235C120.473 19.3999 121.942 24.1919 121.94 29.0934V29.0835Z" fill="black" stroke="black" stroke-width="3" stroke-miterlimit="10"/>
<path id="path270272" d="M27.4903 5.92373C25.4428 5.92608 23.4048 6.19856 21.4303 6.73394L9.07031 41.5725C11.3637 44.8478 14.4927 47.4657 18.1403 49.1608L34.5103 6.76358C32.2324 6.14312 29.8714 5.87318 27.5103 5.96326L27.4903 5.92373ZM37.3903 7.97887L21.7903 50.3069C22.7287 50.8157 23.7799 51.0872 24.8503 51.0973C25.4003 51.0973 37.9703 19.5983 38.9003 18.6893L30.6703 50.3069L44.9203 13.3143C42.8984 10.9448 40.3103 9.11098 37.3903 7.97887ZM96.1003 5.56803C93.9882 5.57831 91.8867 5.86402 89.8503 6.41775L77.0903 42.3926C79.4524 45.7777 82.6827 48.4818 86.4503 50.2278L103.35 6.398C100.991 5.75547 98.5458 5.47553 96.1003 5.56803ZM106.32 7.75162L90.2203 51.4629C91.1895 51.9886 92.2748 52.2702 93.3803 52.283C93.9503 52.283 106.93 19.7465 107.88 18.8079L99.3803 51.4827L114.1 13.2847C112.021 10.8217 109.344 8.91829 106.32 7.75162Z" fill="#B3B3B3" stroke="black" stroke-width="3" stroke-miterlimit="10"/>
</g>
</g>
</g>
</svg>
