<svg width="174" height="49" viewBox="0 0 174 49" fill="none" xmlns="http://www.w3.org/2000/svg">
<g id="Glasses6">
<g id="layer1">
<g id="g700125">
<g id="path708824">
<path d="M128.311 38.5011L172.821 32.5728L173.001 17.9596L126.351 8.24707" fill="#6F6F6F"/>
<path d="M128.311 38.5011L172.821 32.5728L173.001 17.9596L126.351 8.24707" stroke="black" stroke-linecap="round" stroke-linejoin="round"/>
</g>
<path id="rect706623" d="M59.4004 16.2699H72.1904V28.5019H59.4004V16.2699ZM41.4004 4.25519C28.7204 2.58539 10.3204 6.38938 12.7004 25.8243C10.0804 40.4375 22.9204 46.7413 34.8704 47.3539C38.9204 47.2946 53.0704 36.6336 62.0304 33.1655L62.8104 28.581L59.4404 28.4822C59.2304 21.7239 59.3604 15.2719 60.6304 15.9636C56.7404 7.07113 49.6304 4.25519 41.4004 4.25519ZM107.66 1.41949C93.4104 -0.556606 74.7504 7.76277 74.5004 23.9174C74.5004 41.7023 93.2504 49.4881 107.66 46.5437C122.05 46.5437 133.71 36.4458 133.71 23.9865C133.71 11.5272 122.06 1.41949 107.67 1.41949H107.66Z" fill="#6F6F6F" stroke="black" stroke-linecap="round" stroke-linejoin="round"/>
<g id="path703129">
<path d="M95.7404 1.29102C90.5958 1.28907 85.5957 2.97239 81.5226 6.07753C77.4495 9.18267 74.5332 13.5344 73.2301 18.4518C71.927 23.3691 72.3106 28.5746 74.3209 33.2535C76.3312 37.9325 79.8548 41.8209 84.3402 44.3103C88.8256 46.7998 94.0198 47.7496 99.1098 47.0114C104.2 46.2731 108.899 43.8883 112.471 40.2303C116.043 36.5722 118.287 31.8472 118.851 26.7948C119.416 21.7424 118.269 16.6476 115.59 12.3078L130.94 13.4737C128.71 10.3317 127.03 7.20943 119.45 3.86983L105.68 3.50425C102.574 2.04847 99.1787 1.29252 95.7404 1.29102ZM30.5904 4.12673C19.7404 4.12673 10.9404 13.8985 10.9404 25.9527C10.9404 38.0069 19.7404 47.7886 30.5904 47.7886C41.4404 47.7886 50.2404 38.0168 50.2404 25.9527C50.2404 13.8886 41.4404 4.12673 30.5904 4.12673ZM94.3204 5.43095C98.0921 5.43095 101.779 6.53602 104.915 8.60642C108.051 10.6768 110.495 13.6195 111.939 17.0625C113.382 20.5054 113.76 24.2939 113.024 27.949C112.288 31.604 110.472 34.9613 107.805 37.5964C105.138 40.2315 101.74 42.0261 98.0408 42.7531C94.3416 43.4801 90.5072 43.107 87.0227 41.6809C83.5381 40.2548 80.5597 37.8397 78.4643 34.7411C76.3689 31.6426 75.2504 27.9997 75.2504 24.273C75.2491 21.7983 75.7415 19.3476 76.6994 17.061C77.6573 14.7743 79.0619 12.6967 80.833 10.9468C82.604 9.19687 84.7068 7.80902 87.0211 6.86257C89.3354 5.91613 91.8158 5.42965 94.3204 5.43095ZM29.3904 8.05916C38.2804 8.05916 45.5004 16.0722 45.5004 25.9527C45.5004 35.8332 38.2804 43.8562 29.3904 43.8562C20.5004 43.8562 13.2804 35.8431 13.2804 25.9527C13.2804 16.0624 20.4904 8.05916 29.3904 8.05916ZM105.97 3.61294C109.13 4.88752 112.2 9.02744 115.53 12.209L105.97 3.61294Z" fill="#CCCCCC"/>
<path d="M105.97 3.61294C109.13 4.88752 112.2 9.02744 115.53 12.209M95.7404 1.29102C90.5958 1.28907 85.5957 2.97239 81.5226 6.07753C77.4495 9.18267 74.5332 13.5344 73.2301 18.4518C71.927 23.3691 72.3106 28.5746 74.3209 33.2535C76.3312 37.9325 79.8548 41.8209 84.3402 44.3103C88.8256 46.7998 94.0198 47.7496 99.1098 47.0114C104.2 46.2731 108.899 43.8883 112.471 40.2303C116.043 36.5722 118.287 31.8472 118.851 26.7948C119.416 21.7424 118.269 16.6476 115.59 12.3078L130.94 13.4737C128.71 10.3317 127.03 7.20943 119.45 3.86983L105.68 3.50425C102.574 2.04847 99.1787 1.29252 95.7404 1.29102ZM30.5904 4.12673C19.7404 4.12673 10.9404 13.8985 10.9404 25.9527C10.9404 38.0069 19.7404 47.7886 30.5904 47.7886C41.4404 47.7886 50.2404 38.0168 50.2404 25.9527C50.2404 13.8887 41.4404 4.12673 30.5904 4.12673ZM94.3204 5.43095C98.0921 5.43095 101.779 6.53602 104.915 8.60642C108.051 10.6768 110.495 13.6195 111.939 17.0625C113.382 20.5054 113.76 24.2939 113.024 27.949C112.288 31.604 110.472 34.9613 107.805 37.5964C105.138 40.2315 101.74 42.0261 98.0408 42.7531C94.3416 43.4801 90.5072 43.107 87.0227 41.6809C83.5381 40.2548 80.5597 37.8397 78.4643 34.7411C76.3689 31.6426 75.2504 27.9997 75.2504 24.273C75.2491 21.7983 75.7415 19.3476 76.6994 17.061C77.6573 14.7743 79.0619 12.6967 80.833 10.9468C82.604 9.19687 84.7068 7.80902 87.0211 6.86257C89.3354 5.91613 91.8158 5.42965 94.3204 5.43095V5.43095ZM29.3904 8.05916C38.2804 8.05916 45.5004 16.0722 45.5004 25.9527C45.5004 35.8332 38.2804 43.8562 29.3904 43.8562C20.5004 43.8562 13.2804 35.8431 13.2804 25.9527C13.2804 16.0624 20.4904 8.05916 29.3904 8.05916V8.05916Z" stroke="black" stroke-linecap="round" stroke-linejoin="round"/>
</g>
<path id="path715595" d="M112.14 25.3897C111.27 36.6831 103.46 39.7955 101.53 40.2105C93.7761 41.7841 85.7203 40.9809 78.4404 37.9083C72.0704 35.0529 67.1104 31.98 66.7604 24.8858C66.4604 18.8785 70.8904 14.4916 77.7604 11.6163C86.4904 7.95068 97.6204 5.36199 102.28 8.11865C108.56 11.8337 112.79 17.515 112.18 25.3502L112.14 25.3897Z" fill="url(#paint0_linear_179_953)" stroke="#999999" stroke-linecap="round" stroke-linejoin="round"/>
<path id="circle703127" d="M44.5404 25.8247C43.9104 35.5867 39.5405 41.4656 30.2405 41.4952C25.2052 41.6397 20.1779 41.0063 15.3405 39.6179C7.42046 37.128 0.930466 34.8061 1.05047 27.1191C1.15047 20.1138 6.47047 17.3374 14.6005 13.8101C22.7305 10.2827 31.9305 9.00815 36.2505 11.1423C43.9305 14.9364 44.6804 23.6313 44.5404 25.8247Z" fill="url(#paint1_linear_179_953)" stroke="#999999" stroke-linecap="round" stroke-linejoin="round"/>
<path id="path716511" d="M38.6804 4.12758C49.0404 4.12758 57.4304 13.7512 57.4304 25.6078C57.4475 29.4585 56.5284 33.257 54.7504 36.6838M126.7 20.8256L138.08 21.6852L137.8 26.7539L126.75 26.4476L126.7 20.8256ZM104.7 1.30176C116.96 1.30176 126.89 11.4194 126.89 23.9083C126.957 29.3031 125.05 34.5404 121.521 38.6573C117.992 42.7742 113.077 45.4942 107.68 46.3173L104.7 1.30176Z" stroke="black" stroke-linecap="round" stroke-linejoin="round"/>
<path id="path709706" d="M75.1704 16.2012C71.6204 16.2012 68.7304 20.0842 68.7304 24.8762C68.7304 29.6683 71.6204 33.5513 75.1704 33.5513C78.7204 33.5513 81.6104 29.6683 81.6104 24.8762C81.6104 20.0842 78.7204 16.2012 75.1704 16.2012ZM9.26036 18.78C5.87036 18.78 3.13037 22.3864 3.13037 26.8227C3.13037 31.2689 5.87036 34.8654 9.26036 34.8654C12.6504 34.8654 15.3904 31.2689 15.3904 26.8227C15.3904 22.3765 12.6404 18.78 9.26036 18.78Z" fill="#333333" stroke="black" stroke-linecap="round" stroke-linejoin="round"/>
<path id="ellipse710061" d="M77.4406 16.4775C76.702 16.5382 76.017 16.8826 75.5327 17.4368C75.0484 17.9911 74.8035 18.7109 74.8506 19.4417C74.8035 20.1724 75.0484 20.8923 75.5327 21.4465C76.017 22.0008 76.702 22.3452 77.4406 22.4058C78.1809 22.3477 78.8684 22.0043 79.3548 21.4497C79.8412 20.8952 80.0875 20.174 80.0406 19.4417C80.0875 18.7094 79.8412 17.9881 79.3548 17.4336C78.8684 16.8791 78.1809 16.5357 77.4406 16.4775ZM12.0606 20.1926C11.4392 20.0954 10.8026 20.1893 10.237 20.4613C9.67138 20.7334 9.20399 21.1706 8.8981 21.7137C8.59221 22.2569 8.46258 22.8798 8.52676 23.4981C8.59095 24.1164 8.84585 24.7004 9.25696 25.1709C9.66807 25.6414 10.2155 25.9757 10.8253 26.1287C11.435 26.2816 12.0776 26.2458 12.6661 26.026C13.2546 25.8063 13.7605 25.4132 14.1154 24.9C14.4704 24.3868 14.6572 23.7783 14.6506 23.1567C14.695 22.4266 14.4492 21.7081 13.9654 21.1545C13.4816 20.6008 12.7981 20.2557 12.0606 20.1926Z" fill="white"/>
</g>
</g>
</g>
<defs>
<linearGradient id="paint0_linear_179_953" x1="89.348" y1="23.8608" x2="111.083" y2="23.8226" gradientUnits="userSpaceOnUse">
<stop stop-color="white"/>
<stop offset="1" stop-color="#FFBFBF"/>
</linearGradient>
<linearGradient id="paint1_linear_179_953" x1="5216.55" y1="11907.8" x2="5474.54" y2="11929.4" gradientUnits="userSpaceOnUse">
<stop stop-color="white"/>
<stop offset="1" stop-color="#FFBFBF"/>
</linearGradient>
</defs>
</svg>
