<svg width="174" height="65" viewBox="0 0 174 65" fill="none" xmlns="http://www.w3.org/2000/svg">
<g id="Glasses7">
<g id="layer1">
<g id="g621425">
<path id="path640547" opacity="0.94" d="M43.4202 7.6536C26.6902 2.55527 3.54024 2.77264 2.75024 32.2758C2.00024 59.5558 19.6202 57.7477 29.9002 57.4019C34.1702 51.0487 41.3702 49.6654 50.4402 43.2234C51.6502 40.3284 54.0202 38.3918 59.6902 37.1666C66.1902 36.7121 77.1802 34.6669 82.5402 40.7532C98.0102 71.7088 133.23 58.4393 143.28 47.6696C158.04 31.8608 142.72 -2.90865 105.28 6.07272C85.1802 10.8944 65.2802 14.3032 43.3802 7.62396L43.4202 7.6536Z" fill="#1A1A1A"/>
<path id="path643041" d="M146.94 49.4876L171 39.1328C172.93 34.7854 171.89 31.5545 171.23 28.1754L149.66 17.6032C138.47 5.41072 126.88 2.03159 119.09 2.00195C103.76 3.55319 94.31 7.1991 86.15 8.30571C65.64 12.9001 42.15 3.80021 42.15 3.80021C27.08 1.24116 14.23 1.43877 9.33003 11.4675C19.02 4.42267 30.42 4.39303 42.55 7.33741C42.55 7.33741 56.18 11.2896 66.26 11.9022C76.34 12.5148 90.98 10.8055 105.15 6.794C113.558 4.38952 122.534 4.78885 130.69 7.93025C130.53 7.69312 146.99 13.1966 149.26 29.2721C151.79 47.1657 131.71 56.1964 123.61 58.0046C98.72 63.508 85.73 49.784 86 45.7231C86 45.7231 85.35 43.1048 81.48 39.6071C77.61 36.1094 63.64 37.0579 59.87 36.89C56.1 36.722 50.51 42.4428 50.51 42.4428C62.89 40.7829 80.57 36.5145 91.81 55.1491C96.12 62.7571 118.31 63.4882 123.51 61.8876C132.07 59.2594 139.79 57.56 146.96 49.4975L146.94 49.4876ZM7.53003 53.2323C12.47 61.7196 20.37 61.2651 27.99 61.6702L28.52 57.9749C17.93 58.5677 12.26 56.3249 7.53003 53.2323Z" fill="#010100"/>
<path id="path629665" d="M28.4801 57.9459C4.00012 59.2304 3.00013 46.9193 3.00013 32.1381C3.00013 17.3569 9.78013 5.30267 28.0001 5.30267C32.5412 5.29873 37.0643 5.8665 41.4601 6.99224C66.2301 15.4598 87.0001 11.3594 106.52 6.35989C109.677 5.58503 112.917 5.1935 116.17 5.19398C134.43 5.19398 149.23 17.179 149.23 31.9602C149.23 46.7414 134.43 58.4795 116.17 58.8154C98.9301 59.1415 94.3201 58.8154 82.1701 40.1017C79.5101 36.9894 66.9001 36.5645 61.6601 37.0783C59.4328 37.0114 57.2268 37.5239 55.2629 38.5643C53.2991 39.6047 51.6463 41.1366 50.4701 43.0066L28.4801 57.9459ZM50.4701 43.1548C53.3795 42.1096 56.429 41.4937 59.5201 41.3269C83.1501 40.6847 87.8601 48.3026 89.0601 51.2074C91.1801 56.4243 99.4501 62.1649 105.97 62.076C129.88 64.8524 152.44 54.1716 152.76 32.1183C152.53 15.4993 137.64 2.03223 118.98 2.03223C115.649 2.03218 112.332 2.47417 109.12 3.34633C89.1201 8.95845 67.7901 13.5628 42.4701 4.05773C38.017 2.7882 33.4049 2.14621 28.7701 2.15079C10.1101 2.15079 1.63014 16.8925 2.32014 33.4917C3.23014 55.6042 9.87012 61.7203 28.1201 61.5424C28.1298 60.2378 28.4339 58.9518 29.0101 57.7779L50.4701 43.1548ZM148.3 16.7739L171.17 28.2847C172.71 34.6774 172.63 38.2837 171.05 39.3212L146.7 49.8044C155.22 37.602 152.46 24.4906 148.3 16.7739Z" stroke="#EA9C00" stroke-width="3" stroke-linecap="round" stroke-linejoin="round"/>
<path id="path647615" d="M43.0001 10.1531C27.0901 5.09426 4.05014 6.03292 5.00014 33.2537C5.86014 57.8956 19.5601 55.0599 29.0001 54.7734C32.7701 49.9813 42.4201 46.5528 49.2301 42.4623C49.9756 40.7007 51.1561 39.1519 52.6637 37.9575C54.1713 36.7631 55.9579 35.9611 57.8601 35.625C64.1502 34.4196 80.1701 32.9671 84.4801 39.0832C100.93 63.3299 132.83 55.2575 141.93 45.8315C155.39 31.8605 139.61 0.0156946 106.12 9.32312C87.2301 14.5598 64.8501 17.1089 42.9701 10.1531H43.0001Z" fill="url(#paint0_linear_179_954)"/>
<path id="ellipse656345" d="M127.24 41.3854C138.672 41.3854 147.94 32.892 147.94 22.4149C147.94 11.9377 138.672 3.44434 127.24 3.44434C115.808 3.44434 106.54 11.9377 106.54 22.4149C106.54 32.892 115.808 41.3854 127.24 41.3854Z" fill="white" fill-opacity="0.31"/>
</g>
</g>
</g>
<defs>
<linearGradient id="paint0_linear_179_954" x1="86.4103" y1="-44.6526" x2="75.0027" y2="40.3512" gradientUnits="userSpaceOnUse">
<stop stop-color="#FFBD07"/>
<stop offset="1" stop-color="white" stop-opacity="0"/>
</linearGradient>
</defs>
</svg>
