<svg width="213" height="156" viewBox="0 0 213 156" fill="none" xmlns="http://www.w3.org/2000/svg">
<g id="Hair3">
<g id="layer1">
<g id="g154583">
<path id="abColor_3" d="M212.017 139.669L207.747 128.454L208.857 110.758L204.467 102.281C203.537 92.1434 203.787 79.9015 198.977 76.6805C197.977 62.8478 194.797 56.4551 190.267 54.6371C189.757 35.133 185.667 36.0717 182.367 29.8568C179.267 38.107 175.547 58.115 173.607 67.8671C172.327 59.8342 165.827 56.2279 158.257 53.7676C147.917 41.4664 134.077 28.602 135.417 26.4777C140.997 17.4272 146.677 16.4589 153.147 8.88055C148.517 7.4874 142.737 3.94031 140.557 7.22063L123.377 1.93457L116.697 3.75258L100.777 6.55864L86.9367 4.08852L57.6667 12.2004L54.9567 17.4371L49.2767 23.3654C33.9167 29.2936 42.0767 35.4986 30.2067 36.9411C30.2067 36.9411 23.2067 42.4248 21.9667 49.1238C20.9631 53.5893 18.9533 57.7738 16.0867 61.3657L17.8167 67.294C17.8167 67.294 17.9567 79.7731 15.3467 85.2963C12.7367 90.8195 7.75674 102.893 7.75674 102.893C7.64674 108.051 9.93674 112.171 5.75674 119.097C5.18674 125.026 6.75673 130.954 2.30673 136.882C2.24673 146.951 6.89673 148.403 13.4667 146.368C16.3467 156.91 22.1667 152.918 28.2267 152.573C30.9467 150.26 28.5867 141.625 31.8867 141.18C39.5867 140.192 36.6567 127.98 36.2467 127.852C36.2467 127.852 37.9967 125.401 41.1267 117.862C44.2567 110.324 41.1867 102.557 43.7467 100.769C46.3067 98.9808 49.3867 87.5885 49.3867 87.5885C49.3867 87.5885 54.0167 85.1876 51.0867 94.2085C48.1567 103.229 53.6667 112.675 53.6667 112.675C53.6667 112.675 54.1567 124.463 56.2167 127.308C58.2767 130.154 56.9667 143.927 62.6867 145.478C69.4767 147.336 76.9767 154.539 75.8167 149.608C76.8167 149.796 86.5467 137.752 83.1467 131.181C81.4667 127.931 78.0267 128.82 81.8867 119.967C86.1067 110.304 82.7367 110.64 82.2267 104.504C81.7167 98.3682 88.0167 90.9677 88.0167 90.9677L85.8167 84.8615L88.3767 77.8266C88.3767 77.8266 90.0267 80.3066 91.5667 86.7191C93.1067 93.1315 103.487 97.311 104.277 98.7041C105.067 100.097 102.277 105.284 106.277 108.99L116.957 118.989C115.097 120.313 120.857 127.259 126.367 130.035C126.757 136.497 138.597 142.811 138.597 142.811C142.527 148.265 142.967 154.282 152.857 148.601C160.857 144.006 151.327 138.058 152.317 136.803L153.527 129.887C153.527 129.887 162.527 132.96 164.977 140.637C167.427 148.314 175.327 150.517 179.427 146.565C183.527 142.613 184.207 147.198 184.207 147.198C184.207 147.198 187.207 152.019 191.847 148.64C196.487 145.261 197.367 142.712 197.367 142.712C197.367 142.712 200.667 151.604 212.837 140.667" fill="white"/>
<path id="shadow" d="M174.417 62.6997C174.527 62.6997 173.737 64.7746 173.797 64.7549C172.797 67.4522 172.667 68.3316 174.357 69.6951C185.917 78.9235 181.627 81.937 185.297 92.6376C187.037 97.7063 191.057 102.449 193.177 107.389C194.707 111.865 189.567 119.157 196.807 127.723C196.807 130.332 191.887 141.862 200.457 143.878C211.117 146.387 196.457 123.514 196.997 118.07C197.457 113.614 195.947 105.403 193.997 100.858C190.907 93.9418 187.327 91.3334 187.997 82.3323C187.677 77.8169 184.807 69.9817 178.857 67.1064C177.957 62.8973 179.277 60.5853 175.447 57.9571L174.417 62.6997ZM158.797 53.4318C144.797 35.726 137.427 29.7187 136.217 25.223L132.707 23.9386C127.957 27.7821 135.287 40.0042 142.137 55.5561C143.287 58.1646 150.497 59.9727 151.237 60.9015C148.927 66.9582 152.637 73.924 156.307 76.1174C160.537 76.2854 168.217 85.7509 169.837 85.0099C168.927 77.6983 155.707 74.6255 157.487 63.9743C158.557 59.1922 164.627 60.4173 171.107 64.3498C172.107 56.1984 164.257 55.8921 158.797 53.4812V53.4318ZM32.0867 36.2398C30.0101 37.6689 27.831 38.9468 25.5667 40.0635C22.9067 41.2294 21.3167 51.8411 19.5167 56.3861C17.7167 60.9311 14.7867 61.6129 14.7867 61.6129L16.8967 72.0368C16.8967 72.0368 15.9667 85.1581 12.2867 91.4717C8.60668 97.7853 9.58669 107.626 9.75669 110.966C9.92669 114.306 7.26669 116.894 4.75669 121.449C2.24669 126.004 4.05667 133.76 4.05667 133.76C4.05667 133.76 2.31668 136.635 2.87668 142.969C3.43668 149.302 14.1867 147.751 14.1867 147.751C9.80668 147.988 17.5967 124.561 17.4867 126.251C17.3767 127.941 11.4267 109.069 24.1367 95.9673C24.4367 91.1753 29.1367 69.6951 36.4467 72.2542C39.1067 64.992 40.8567 55.5561 46.1467 54.6175L40.6367 55.1214C33.6367 48.5212 43.2067 45.9622 46.1967 41.4073C31.7567 43.2747 42.7267 30.4795 49.0167 27.1596C51.1267 25.7269 41.7867 29.6989 41.7867 29.6989C41.1467 26.2506 33.3467 37.9293 32.0867 36.2398ZM96.5567 4.48389C95.3423 4.53052 94.1435 4.77074 93.0067 5.19528C88.0067 8.41632 87.1767 14.5027 80.6467 15.5698C73.9667 18.5339 73.4867 28.5429 65.7167 30.4498C59.5467 36.7832 63.4567 40.0339 58.5067 44.4603C56.5667 48.6892 55.6767 49.1931 52.8967 53.1651C50.7567 56.9987 52.3167 63.3914 52.8967 67.1361C50.9667 72.7778 46.7167 75.6629 47.0067 82.0359C46.6167 95.4437 41.0067 95.9673 39.0867 100.987C37.4767 105.561 37.0867 105.848 37.8867 110.926C38.5467 115.373 36.4867 121.192 32.6267 123.218C29.2467 129.966 34.7767 135.628 30.0867 142.356C28.8167 148.887 37.9167 139.56 36.7567 137.08C35.1667 131.211 38.3867 125.223 40.9467 120.481C42.8267 117.704 46.8767 98.1312 49.4967 97.9632L51.8167 93.4182C55.3167 90.5133 56.0367 77.4315 57.6767 73.5189C60.7467 68.6577 58.6767 66.6025 57.1667 60.9212C56.5867 54.41 65.1667 46.229 64.9267 39.7375C64.9267 34.3032 70.8167 30.598 75.9267 31.922C78.2667 27.8809 76.4967 21.3795 82.0367 19.1564C86.9667 18.1684 93.1167 18.5636 94.1067 12.1116C94.4067 9.26604 103.347 5.136 96.6367 4.48389H96.5567ZM112.287 48.4619C112.177 48.4619 112.117 48.4619 112.097 48.4619C113.417 51.8905 114.097 64.4486 114.017 67.1262C126.797 73.4991 125.727 75.574 128.527 86.571C130.157 92.1634 139.627 95.7895 140.057 97.0542C141.057 100.878 141.267 106.638 143.257 110.116C158.327 120.145 149.877 121.696 153.937 128.484C163.017 131.735 163.657 139.353 167.117 145.281C168.987 148.245 174.387 150.715 177.347 147.425C167.457 144.609 170.157 136.22 166.237 131.004C156.807 125.806 156.917 123.652 153.887 112.823C152.887 109.148 146.237 113.594 142.707 98.7635C142.177 96.5404 138.047 88.4285 132.387 85.5237C128.307 83.4389 134.777 77.0758 126.257 69.8334C123.117 67.1756 120.557 67.1756 118.717 60.5655C115.907 50.4973 113.047 48.6299 112.287 48.4323V48.4619ZM89.8267 74.8132C87.1867 82.1841 84.5067 85.8892 86.9767 91.7681C90.2767 95.4536 95.9767 93.4577 96.1167 99.8306L106.167 110.462C108.857 124.166 114.037 112.912 115.987 119.582C118.917 129.63 122.787 132.426 127.257 130.51C127.767 140.39 133.257 139.491 139.347 142.722C140.887 148.65 142.347 155.27 150.547 148.324C142.047 148.947 144.687 140.153 141.797 139.6C135.927 136.072 129.187 133.82 128.577 128.593C128.577 128.593 118.977 123.82 118.757 115.877C118.557 108.229 112.977 120.599 110.757 107.745C109.297 99.2081 104.357 100.285 101.447 96.5305C98.5367 92.7759 101.327 91.5903 89.7867 74.7935L89.8267 74.8132ZM55.4767 76.7893C50.8667 82.0161 55.7767 81.7295 50.5467 95.1868C49.5467 97.647 49.4067 105.215 52.3867 110.008C54.8867 114.009 53.2167 116.519 53.4767 120.925C53.6867 124.364 56.6167 126.241 57.5367 129.284C60.5367 139.165 52.5367 141.141 64.5367 145.409C67.0967 146.328 73.3367 150.853 74.5367 149.233C69.1867 147 70.2267 142.386 68.4367 141.803C59.9867 139.027 64.6467 130.836 60.4367 126.636C54.2367 120.52 61.0167 114.859 57.1567 107.715C53.2967 100.572 63.0167 90.701 55.4767 76.7794V76.7893ZM173.017 92.7265C171.607 92.8056 171.647 99.8504 171.737 100.957C172.227 105.621 175.087 107.182 177.837 110.749C180.267 113.851 180.217 116.539 179.927 120.431C179.799 124.5 180.772 128.528 182.747 132.1C184.987 136.863 183.457 143.068 187.667 146.921C188.667 148.126 190.457 147.623 191.317 146.516C186.907 143.67 186.317 141.576 187.157 136.22C188.367 128.869 180.347 129.986 183.797 117.201C185.857 109.563 173.977 104.978 173.497 92.9143C173.367 92.7927 173.195 92.7254 173.017 92.7265Z" fill="black" fill-opacity="0.2"/>
<path id="outline" d="M195.797 142.159C203.587 150.735 216.497 143.888 209.067 132.703C203.447 125.056 213.497 111.539 205.217 104.158C200.657 95.0484 206.697 84.1602 197.917 75.9791C198.077 64.9525 197.917 58.7377 189.627 53.1453C190.557 44.0454 188.307 34.6391 183.037 30.5684M153.287 129.502C160.717 131.379 164.997 134.61 165.877 142.929C169.487 155.655 186.027 149.559 183.347 135.292C181.667 127.565 177.437 131.251 179.987 119.384C182.057 109.78 169.987 108.041 171.557 99.2971C172.407 94.6829 170.067 82.2532 160.667 77.6193C156.257 77.392 152.157 75.574 151.147 66.7507C151.427 56.8702 139.487 63.7075 139.237 47.9778C138.537 44.5987 136.117 41.8815 133.727 39.5003M86.3768 86.1362C85.9868 93.9221 94.7068 88.5965 95.8668 98.2991C96.3068 107.863 107.177 100.749 106.867 113.841C106.627 123.119 116.007 112.725 116.457 119.898C117.227 132.041 126.897 126.814 127.097 132.881C127.437 143.008 139.677 138.355 139.727 144.915C139.817 156.278 159.787 152.177 154.727 140.706C149.047 134.906 156.427 126.962 152.727 118.9C149.317 112.596 139.517 111.875 141.837 102.745C141.077 94.3568 131.447 91.363 127.617 86.9366C128.957 77.4513 121.487 68.4897 113.387 67.4424C115.277 59.3799 112.977 47.6814 103.997 44.7765M45.7968 54.0642C38.1868 56.7517 38.3067 66.4741 36.6967 71.3847C20.9367 74.8626 27.8468 90.701 22.3668 97.3012C16.1368 104.573 13.5567 111.401 15.9467 119.177C18.9967 129.057 11.8568 133.424 12.4568 139.698C12.6068 147.208 18.7368 157.888 27.4568 152.543C33.1368 150.063 25.7268 146.121 35.1868 140.064C41.1268 137.357 32.4968 128.731 38.8768 124.828C45.4268 116.924 39.0667 106.47 47.7767 100.591M43.3668 42.6226C34.4568 43.3241 27.1368 51.2976 26.1168 57.4433C26.4768 65.071 15.2567 65.4564 16.0567 79.8029C17.4967 93.0427 10.5267 91.3136 8.55675 101.006C7.60675 108.091 11.0368 113.604 5.34676 120.678C1.42676 125.55 7.46675 132.298 2.43675 137.594C0.196753 144.718 6.96675 149.727 13.7668 147.405M67.7668 15.2339C60.5968 15.2339 51.9568 17.8522 49.7668 25.4404C39.2068 25.9641 38.4768 38.7198 28.1268 38.8384C19.6268 43.3142 25.2768 53.086 16.8968 59.7059C14.6368 61.2967 15.8967 70.0607 17.5267 71.1673M101.527 8.20883C94.0067 -0.555169 80.5267 7.98158 72.5267 8.92022C66.2867 10.1256 56.7568 9.98732 54.4568 17.9213M183.587 142.445C187.007 155.191 199.477 147.306 194.777 134.768C202.087 126.933 189.777 122.911 193.197 115.857C196.627 105.364 185.807 99.1983 184.317 90.7406C185.637 80.366 180.527 70.5152 174.047 69.9026C174.337 60.1407 163.927 54.657 157.717 54.0938C154.397 39.6979 149.807 41.6938 144.627 39.2731C143.547 36.1706 138.437 29.3926 135.087 27.3572M85.6468 66.0986C89.1568 72.5308 89.9568 80.2475 84.5668 85.7806C93.2868 93.5861 77.8568 100.167 83.7868 108.17C89.3668 115.709 74.4868 123.494 82.7268 131.3C88.6768 136.952 80.0968 148.206 75.7868 150.201C68.8668 153.413 67.8868 145.577 64.3468 145.785C52.9968 142.949 62.2867 132.298 54.5567 124.868C50.0867 120.56 56.9968 116.173 52.4868 110.205C46.4868 102.301 50.0568 98.6252 50.1468 91.5409C44.4668 85.1284 55.5368 71.0389 58.5468 66.8397C49.8968 49.6772 65.1968 51.3964 63.8268 42.1384C64.5868 36.7338 70.8268 28.4935 76.2268 32.2579C73.8268 23.8793 84.8868 14.9671 90.2268 18.5636C91.3268 13.7715 96.3768 3.565 101.907 9.02891C107.167 0.749057 113.577 5.66954 116.987 4.48388C127.437 -2.11628 128.877 8.7819 142.987 5.56086C150.347 4.49376 149.257 6.26237 153.127 8.525" stroke="black" stroke-width="3" stroke-linecap="round" stroke-linejoin="round"/>
</g>
</g>
</g>
</svg>
