<svg width="224" height="159" viewBox="0 0 224 159" fill="none" xmlns="http://www.w3.org/2000/svg">
<g id="Hair8">
<g id="layer1">
<g id="g359841">
<path id="path388505" d="M171.21 112.376C183.31 127.898 180.21 136.889 171.5 145.713C170.44 142.255 169.64 139.152 167.99 134.943C171.28 129.568 168.86 122.098 167.22 117.879L171.21 112.376Z" fill="#FF0000"/>
<path id="abColor_3" d="M159 67.6469C158.55 67.6469 148.24 54.6145 148.32 54.0217C148.68 51.5121 130.24 35.7724 130.16 35.8416C130.6 35.2883 118.71 19.855 117.52 20.1316C119.89 15.2803 127.49 8.36395 129 6.98069C128 4.64889 120.28 2.26769 117.39 5.84443C115.02 8.80858 105.56 2.25781 105.56 2.25781L92.0002 5.07375C82.8002 3.77941 74.0002 0.943707 62.0002 11.664C55.1102 9.93495 48.2202 8.69989 41.3602 12.2766C41.3602 12.2766 30.9402 29.6465 28.5102 24.1332C27.9702 27.6606 21.0802 25.9018 15.5102 34.0137C15.5102 34.0137 7.7802 40.2878 12.0502 46.6311C9.5402 50.8105 4.30019 55.0493 9.59019 64.2085C8.6583 68.1655 7.51335 72.0706 6.1602 75.907C6.1602 75.907 -2.33981 88.0798 1.48019 91.9134C5.30019 95.747 13.1402 99.3929 13.1402 99.3929C13.1402 99.3929 17.8302 93.4646 27.3602 96.4288C36.2802 99.1558 41.8202 91.864 41.8202 91.864L48.6602 82.7147C57.1502 86.2519 72.5202 103.019 80.6602 93.9784C91.4202 104.274 97.1202 96.8141 112.93 95.7569C118.31 95.5099 117.74 105.558 136.63 98.889C147.06 103.721 154.46 113.216 169.08 111.595C175.44 96.1324 170.62 79.6912 170.27 72.0734C170.27 72.0734 173.65 58.1419 172.2 53.7451C170.81 60.0093 171.81 49.5162 163.58 31.4645C161.58 43.2618 159.8 48.6368 159.07 67.6667L159 67.6469ZM202.87 105.005C198.46 95.9545 193.65 100.253 188.74 108.019C183.74 99.3534 178.88 104.195 174 112.287C180.6 123.808 182.43 135.674 171.32 148.499C172.52 155.237 178.89 154.684 187.25 151.335C192.56 154.16 196.62 161.215 206.66 148.272C219.5 155.188 218.66 136.692 214.58 133.51C224.7 128.125 222.46 110.291 209.44 116.773C218.2 100.46 208.79 104.748 202.9 105.045L202.87 105.005Z" fill="white"/>
<path id="Grey" d="M15.3702 35.3377C5.63025 42.0268 6.70025 56.6203 8.97025 66.5304C5.97025 77.5768 -3.21974 91.5775 5.27026 99.9858C1.13026 106.793 14.9702 108.108 25.9002 97.0908C43.2102 96.6857 46.5102 87.7142 47.3402 84.0683L41.0003 79.0786C39.1503 82.0428 20.1402 93.0595 13.1502 89.6508C1.32025 83.8806 15.5403 65.5621 21.7703 57.47C13.9703 53.5178 15.8903 39.2405 32.5203 32.5712C32.3403 11.7629 65.8402 11.2392 62.6802 10.3697C48.0002 7.18819 36.4702 15.0827 28.2803 24.321C21.3503 28.5399 20.1402 31.1879 15.3702 35.3377ZM57.8903 51.1465C52.1555 51.1346 46.4317 51.6406 40.7902 52.6582L42.8402 57.8257C58.5002 53.7352 73.8403 53.1325 87.2103 62.5486L110.86 64.5247C104.05 60.1377 97.8603 58.2802 88.9603 58.1814C85.1703 54.6936 72.9003 51.186 57.8903 51.1663V51.1465ZM41.2803 68.0619C38.3903 74.9782 43.0402 77.0433 51.2302 82.7739C61.9802 95.7569 70.7802 98.9088 78.1502 94.759C90.4702 98.0689 98.3003 100.885 110.89 96.1324C112.69 101.29 122.89 106.675 136.36 103.513C152.55 115.103 161.82 115.37 165.2 115.202C163.35 114.421 168.64 111.576 166.9 110.884C156.43 106.695 146.33 103.73 138.21 96.6264C129.04 96.2806 119.63 97.2489 111.64 90.5104C101.93 93.0003 95.3103 96.2411 82.1303 87.7142C73.0403 90.6783 62.4302 85.7381 54.9802 79.8888C54.2402 81.5586 40.1603 72.2907 41.2803 68.0323V68.0619ZM179.73 107.722C174.46 109.432 175.54 109.046 174.05 112.919C176.94 123.323 184.51 132.789 170.98 146.513C172.59 154.842 179.45 154.289 187.37 151.918C196.93 158.399 202.22 154.012 206.43 147.748C201.43 149.665 196.9 150.06 192.95 143.993C183.95 147.669 182.21 137.512 187.38 132.305C185.95 129.104 180.16 129.153 185.46 117.366C182.26 119.747 176.96 111.378 179.73 107.752V107.722Z" fill="black" fill-opacity="0.2"/>
<path id="abColor_4" d="M4.0001 78.516C5.8201 75.957 11.0501 52.9453 41.3901 55.7909M8.3401 50.238C9.0501 47.1059 19.7901 28.4417 46.5701 33.1349M48.1901 33.6388C49.0601 30.3585 69.8201 20.4286 87.6601 32.3247M152.92 76.6684C170.15 87.2108 168.38 95.214 171.38 104.521M43.2601 59.8616C44.1201 56.5714 69.6601 50.8012 87.4901 62.6973C96.4301 61.7093 106.39 63.7447 115.76 67.3017M135.54 77.3995C139.54 78.0121 145.72 83.3278 148.45 90.0663C163.13 95.9946 164.63 100.144 169.14 111.803M163.59 31.1391C176.72 61.8871 170.65 66.0172 169.97 72.4691C175.03 82.2212 175.48 98.0003 170.28 109.027M130.28 7.46541C127.22 1.16165 119.28 4.04676 116.67 7.21839C112.57 5.13361 103.51 -1.25906 92.2701 5.3905C90.9801 2.32755 76.1001 0.163725 65.6601 11.0323C52.0001 7.91991 34.5401 13.2159 28.1401 24.6673C15.2201 28.086 2.4801 53.1429 8.8601 65.2564M112.86 18.6007C115.96 21.4759 114.86 20.4187 122.39 24.3116C125.68 26.021 127.84 32.5026 128.8 35.694C130.44 39.2015 134.46 39.2608 137.28 41.6223C139.55 42.7388 147.41 50.238 148.4 55.6229C157.91 61.8279 156.9 61.5512 159.7 69.5643M167.89 112.05C166.89 115.015 141.64 106.409 136.79 98.6426C133.7 100.866 126.06 103.78 110.88 95.1251C105.88 102.13 85.7301 100.787 79.9801 94.7101C70.5201 98.4647 58.1901 94.6508 52.0901 83.8416C35.6101 79.4942 37.6801 65.9875 43.3301 60.079C41.8001 51.8387 35.7301 43.8651 48.0001 34.5478C46.6401 17.8893 56.8501 16.2887 64.7501 11.8227M6.6801 105.421C15.3901 107.061 23.3101 98.4252 25.8101 96.8246C43.4201 95.2832 43.9101 88.2088 47.9501 82.8041M9.1901 65.0193C1.07011 82.2014 -1.4499 97.9904 5.9701 104.245M169.92 146.751C174.31 159.813 183.34 153.084 187.49 150.703C194.23 163.103 206.17 152.481 206.41 149.112C219.54 158.894 221.41 132.908 213.7 133.867C231.29 121.229 216.79 114.244 208.7 117.504C215.57 115.4 217.83 95.3622 201.97 105.984C198.47 92.0918 189.19 105.361 188.17 107.831C181.49 99.0279 177.38 105.223 174.06 113.542L169.92 146.751Z" stroke="black" stroke-width="3" stroke-linecap="round" stroke-linejoin="round"/>
<path id="path360322" d="M171.94 113.038C180.65 122.059 181.78 138.144 172.58 146.197" stroke="#800000" stroke-width="3" stroke-linecap="round" stroke-linejoin="round"/>
</g>
</g>
</g>
</svg>
