<svg width="160" height="104" viewBox="0 0 160 104" fill="none" xmlns="http://www.w3.org/2000/svg">
<g id="Hair1">
<g id="layer1">
<g id="g15053">
<path id="abColor_3" d="M35.8397 11.4829C33.5997 12.876 32.5797 16.7393 30.7497 17.7175C22.3697 22.1835 17.1897 17.7768 14.2297 30.0977C14.2297 30.0977 4.50968 37.6168 8.47968 43.5253C6.13968 47.4775 1.25969 51.4297 6.18969 59.9072C5.62839 61.9244 5.65841 64.0577 6.27625 66.0587C6.89409 68.0597 8.07434 69.8463 9.67968 71.2105C9.67968 71.2105 8.85969 79.1149 12.4097 82.6718C15.9597 86.2288 17.9097 86.624 17.9097 86.624C17.9097 86.624 14.9097 98.866 23.7397 101.593C32.0597 104.132 36.3597 100.16 36.3597 100.16L47.1997 93.1254C55.1197 96.4156 60.6797 102.393 68.2897 93.9652C68.2897 93.9652 72.6397 99.2513 82.4697 96.3168C92.2997 93.3823 95.9997 88.7582 95.9997 88.7582C95.9997 88.7582 97.4597 94.3703 107.19 92.0583C116.92 89.7463 119.29 86.8513 119.29 86.8513L153.39 90.4181C159.32 76.0124 154.77 76.7732 154.45 69.6691C154.45 69.6691 159.09 54.2259 157.75 50.1255C156.41 46.0251 156.41 35.6308 153.75 32.4592C152.401 30.7684 150.883 29.2159 149.22 27.8252C149.79 27.8252 144.06 57.605 144.76 58.7709C143.44 53.4651 137.76 54.1172 136.29 50.4713C132.22 40.0375 121.84 37.6761 118.85 33.9314C114.3 28.2402 113.29 23.8533 106.99 18.9822C107.62 15.7513 120.08 2.18535 119.84 6.13754C118.91 3.95395 109.37 2.08654 106.68 5.42615C104.47 8.15316 95.6797 2.07666 95.6797 2.07666L83.0097 4.70487C74.4397 3.49945 66.1997 0.861361 55.0097 10.8505C48.5897 9.23014 42.1697 8.084 35.7797 11.4137L35.8397 11.4829Z" fill="white"/>
<path id="shadow" d="M45.8798 8.75576C44.2223 8.73794 42.5733 8.99168 40.9998 9.50668C36.4398 10.4947 34.4598 14.8026 31.4698 17.5198C27.3998 18.8141 22.7398 19.2291 19.7098 22.5884C16.1398 24.7325 16.6298 29.6332 13.6198 31.7674C11.8552 32.2908 10.3222 33.3894 9.27072 34.8841C8.21923 36.3787 7.7113 38.1813 7.82977 39.9979C9.62978 44.5923 4.31977 47.181 4.05977 51.5778C2.53977 55.3028 4.90977 58.5633 5.64977 62.0511C5.88977 65.5587 0.759773 71.4771 3.74977 73.6607C5.02977 78.5318 2.74977 82.4445 6.74977 86.0706C4.11977 90.6156 17.0598 84.302 17.9398 87.5626C14.3298 96.7811 21.6298 103.371 27.3398 101.79C32.1049 101.681 36.7094 100.067 40.4798 97.1862C36.9222 98.0555 33.2289 98.2433 29.5998 97.7395C24.9198 97.4332 21.0698 92.7992 22.4698 88.1751C25.0998 84.3119 16.4698 72.3664 21.3798 63.9383C17.5898 57.0812 18.0198 46.2325 24.5298 40.2251C27.8598 34.9983 30.9298 26.6592 37.5298 25.2463C39.9398 18.1817 47.5298 14.2987 54.5298 13.1427C54.6647 12.9428 54.754 12.7163 54.7916 12.4789C54.8293 12.2415 54.8143 11.9988 54.7477 11.7677C54.6812 11.5366 54.5646 11.3225 54.4061 11.1403C54.2476 10.958 54.051 10.8119 53.8298 10.7121C51.3537 9.50067 48.6416 8.83327 45.8798 8.75576Z" fill="black" fill-opacity="0.2"/>
<path id="Outline" d="M29.8696 22.5991C21.0796 25.9585 21.4297 33.8925 22.2097 39.0798C13.9797 45.2946 12.3297 57.497 18.4897 65.1248C13.7197 73.9184 17.6497 78.3745 19.2997 84.2731M149.78 29.0511C156.59 33.9913 156.24 39.4552 156.14 46.836C157.93 52.5667 160.08 54.8095 155.5 65.3915M8.70966 43.358C3.40966 35.6216 16.0096 28.8238 15.0096 29.8811C16.7396 22.0359 25.7997 17.3328 31.7997 18.5481C30.2397 16.7104 39.5497 5.24899 54.2397 11.1773C63.9697 1.0893 82.1197 2.18604 83.3297 5.0415C93.7997 -1.16345 102.25 4.76485 106.07 6.74094C108.54 3.79656 115.9 1.09918 118.75 6.97807L105.174 20.3759C103.677 17.7319 105.206 22.8852 105.666 19.8902M102.45 17.4119C105.34 20.0994 104.35 19.1113 111.33 22.7473C114.4 24.3381 116.41 30.3751 117.33 33.359C118.86 36.6195 122.6 36.669 125.23 38.8822C127.34 39.9295 134.68 46.915 135.59 51.9343C144.46 57.7144 143.52 57.418 146.12 64.9271M115.19 87.9487C114.19 90.6955 100.81 96.4163 96.2897 89.1739C93.4097 91.2488 81.9097 101.831 67.7697 93.7683C63.1397 100.289 53.3897 97.8588 48.0297 92.1874C29.9497 110.466 11.2197 100.942 18.1397 86.5654C14.8097 85.8935 8.54965 79.5602 9.80965 70.8258C6.02965 69.324 6.44965 64.364 6.44965 60.5204M9.26966 42.9925C5.19966 49.0294 3.04966 55.1356 6.48966 61.1627C4.34966 63.2376 1.60966 69.7982 2.06966 72.7031C2.68966 76.5861 5.73964 77.5841 6.14964 81.2003C7.32964 80.9928 5.65965 83.7198 4.44965 87.4349M155.35 65.0951C152.98 73.869 157.26 75.2424 156.44 80.7755C156.09 83.1171 153.32 87.3065 153.5 89.4802L155.35 65.0951Z" stroke="black" stroke-width="3" stroke-linecap="round" stroke-linejoin="round"/>
</g>
</g>
</g>
</svg>
