<svg width="179" height="124" viewBox="0 0 179 124" fill="none" xmlns="http://www.w3.org/2000/svg">
<g id="Hair9">
<g id="layer1">
<g id="g419608">
<path id="abColor_3" d="M3.56012 120.906L11.0201 120.56C8.19012 107.281 10.0201 93.7051 14.1601 79.9712C14.9101 94.6833 14.4101 110.67 18.8301 121.667L29.4401 121.173C28.9301 107.518 32.3001 93.3198 42.4401 78.1631C42.5301 93.883 41.3901 110.877 46.4401 121.351L66.6701 120.6C70.3801 104.919 72.2901 88.2313 82.2001 75.9795C94.7201 93.5372 93.6801 105.374 95.3101 118.327L110.52 116.559L111.7 78.3508C116.37 90.9188 121.56 103.615 120.39 114.741L133.85 115.146L135.71 84.8028C139.09 95.5034 142.98 106.461 142.28 115.007L177.11 113.377C177.02 67.9269 169.05 40.6568 157.62 21.3898C154.44 32.12 151.26 42.8404 150.85 54.9044L114 16.8547C117.48 12.5073 120.28 9.43442 123.42 5.71936C90.4201 -4.29946 63.3101 5.19569 40.6301 15.669C4.32012 32.4263 -0.459882 76.5822 3.56012 120.906Z" fill="url(#paint0_linear_179_1025)"/>
<path id="Grey" d="M67.75 6.13477C57.42 7.95278 38.44 14.8691 25.13 24.7101C-6.86996 63.8764 7.92003 88.2219 3.03003 118.802L10.65 119.909C9.47002 105.444 11.92 90.939 15.53 76.0886C15.64 92.7175 15.74 109.751 18.32 119.563L27.9 120.64C27.74 120.877 28.13 78.46 34.61 50.7057C40.19 26.8047 61.37 7.5378 67.75 6.13477Z" fill="black" fill-opacity="0.2"/>
<path id="abColor_4" d="M168.82 113.802C173.44 113.219 176.23 114.197 176.94 113.179C177.14 52.6612 169.52 38.8087 157.63 21.1226M108.87 14.8189C124.25 27.3473 144.14 46.4364 153.55 61.8698M124.55 6.41058C106.12 1.38141 74.3601 -2.79804 38.3601 16.7258C0.580082 31.26 1.10008 90.8295 2.75008 120.184L10.7501 120.313C11.6201 111.638 6.44008 87.3219 18.5801 68.1933C13.7061 85.1469 13.3273 103.054 17.4801 120.194L28.8801 120.678C26.1701 112.458 33.8801 83.1326 44.4201 73.6868C41.2101 89.8513 40.6201 103.98 46.5401 122.101L67.1901 121.34C70.4301 93.7739 73.4801 85.7707 81.7401 73.9141C92.4101 87.0453 96.6701 101.115 95.5101 118.149L110.68 117.24C111.84 96.8368 110.68 93.0328 109.78 73.3707C122.67 95.8982 119.84 109.681 122.18 115.738L135.18 115.224C136.28 86.571 136.24 77.0264 125.28 56.4059M133.57 76.8585C135.29 80.366 144.27 101.253 143.29 114.691L167.94 113.772C168.58 97.0344 166.87 77.7971 160.21 55.0325" stroke="black" stroke-width="3" stroke-linecap="round" stroke-linejoin="round"/>
</g>
</g>
</g>
<defs>
<linearGradient id="paint0_linear_179_1025" x1="89.5825" y1="79.7392" x2="90.0991" y2="134.641" gradientUnits="userSpaceOnUse">
<stop stop-color="white"/>
<stop offset="1" stop-color="white" stop-opacity="0"/>
</linearGradient>
</defs>
</svg>
