<svg width="184" height="138" viewBox="0 0 184 138" fill="none" xmlns="http://www.w3.org/2000/svg">
<g id="Hair5">
<g id="layer1">
<g id="g45110">
<path id="abColor_3" d="M82.5601 100.729C84.6101 101.717 77.1901 127.771 66.4401 133.186C64.4401 134.174 55.2901 135.834 54.0401 132.998C58.3201 131.072 58.6101 114.383 54.6101 116.458C53.5101 121.32 44.1901 128.315 41.8801 125.469C40.8801 123.78 44.3101 115.856 44.1901 113.83C42.0801 108.781 36.6201 101.559 31.8601 99.0094C24.3501 105.491 13.2201 106.064 8.70006 100.333C19.1601 93.9802 21.1901 102.892 16.4201 66.8879C11.2701 66.1172 3.72006 65.8999 2.81006 58.5784C21.0901 60.8411 20.2101 44.8445 26.5401 30.3301C33.0401 22.5344 44.7601 24.6883 42.9201 24.9452C48.3001 26.6249 48.0501 30.1523 48.9201 16.2504C53.3101 13.9483 65.2101 12.7231 68.1901 10.9149C78.3401 0.0464034 83.8301 4.62107 98.6101 6.14267C114.55 -1.68268 122.67 6.45884 132.2 13.7605C130.97 13.3851 119.2 24.3228 119.9 27.8205C131.38 35.5865 124.34 46.6626 157.9 67.5993C154.9 68.7356 162.14 33.146 161.9 35.9817C164.9 39.6178 168.59 43.1155 169.59 47.4925C171.39 56.2368 166.39 64.3486 170.76 72.8854C172.19 75.6815 179.01 74.7429 179.46 77.0154C178.07 84.2479 170.32 80.9676 166.62 79.5547C165.77 93.0515 182.83 86.7675 180.81 91.5496C175.57 98.8612 166.59 97.4779 159.16 96.1243C156.5 95.571 153.16 91.3322 150.16 88.5361C145.23 92.5673 138.37 92.0338 132.39 88.5361C127.209 90.9233 121.304 91.2765 115.87 89.5241C107.73 102.142 95.9701 107.309 82.5601 100.659V100.729Z" fill="white"/>
<path id="shadow" d="M132.23 45.3777C130.79 41.7417 123.73 29.7666 122.79 30.389L119.79 28.4722L115.79 28.0474C123.55 33.4223 121.34 41.2576 126.73 48.1838C137.35 54.2998 141.9 57.0762 144.99 67.0555C149.99 66.2355 153.81 68.1819 157.99 69.3774C157.99 69.3774 160.1 66.8876 154.24 64.3285C138.6 59.25 148.4 47.7491 132.23 45.3777ZM53.8 16.1611C53.8 16.1611 46.04 20.805 44.47 23.285C42.9 25.765 35.94 27.5336 35.94 27.5336C35.94 27.5336 43.94 26.8222 46.08 31.1894C51.47 43.3226 39.51 43.4807 41.97 54.8037L49 44.9924L45.19 51.6321C51.55 44.943 58.19 48.1146 59 45.5754C60.2 41.6232 51.47 47.3934 56.12 30.7052L51.8 40.1016C50.8 35.3293 52.64 30.8139 59.24 25.597C56.34 26.7629 52.5 28.1462 49.62 24.5398C46.74 20.9334 53.77 16.1611 53.77 16.1611H53.8ZM23.26 40.7043C19.44 57.4122 2.59 60.4652 2.53 58.7263C2.53 58.7263 1.36 62.0362 5.86 63.2614C10.36 64.4866 17.25 67.2136 17.25 67.2136C15.82 74.2584 23.08 93.0017 17.48 96.3314C14.48 97.8431 8.25 101.094 8.25 101.094C15.6 107.101 22.41 103.9 31.84 99.1177L31.73 96.4895C32.2668 99.474 33.7028 102.229 35.85 104.394C42.42 110.569 46.4 114.185 44.13 118.889C41.86 123.592 39.54 127.445 42.37 127.06C45.2 126.674 55.06 117.456 55.06 117.456C55.06 117.456 57.06 129.816 58.06 124.58C59.24 118.266 55.19 96.6081 54 90.7292C52.721 84.4329 50.3204 78.4111 46.91 72.9443C43.69 68.1127 41.48 60.0997 41.48 60.0997C41.48 60.0997 45.82 78.1316 44.38 84.6724C42.94 91.2133 38.69 97.1317 35.27 90.1956C31.85 83.2595 31.55 86.1249 31.55 86.1249C31.55 86.1249 31.46 86.8758 31.38 87.518V86.5991C30.75 85.9174 28.38 88.4863 24.88 85.7692C20.44 82.3011 22.88 69.4367 24.45 64.7237C26.02 60.0107 30.2 54.3196 30.2 54.3196C31.48 51.4839 29.46 49.6362 23.39 55.1001C21.1 54.2899 20.48 51.2566 23.26 40.7043ZM116.56 51.0096C118.04 63.7851 118.72 83.5362 133.01 76.8076C129.15 73.7841 124.59 73.9916 124.23 66.6109C123.8 57.7086 117 50.7428 116.56 50.9997V51.0096ZM106.4 86.6881C109.094 86.1113 111.641 85.0022 113.89 83.4275C105.81 81.5601 101.89 75.3947 101.6 70.4248C92.74 72.47 100 86.8659 106.4 86.6881ZM113.89 83.4275C114.388 83.717 114.902 83.9776 115.43 84.2081L114.98 82.6173C114.98 82.6173 114.57 82.9631 113.89 83.4275ZM115.43 84.2081L116.95 89.5929C116.95 89.5929 133.57 92.7349 133.86 81.2143C126.2 85.9964 120.09 86.2138 115.43 84.1784V84.2081ZM136.56 79.6828C137.09 83.5658 136.11 82.6469 133.56 87.2809L126.67 90.7687L126.6 94.0293C136.06 95.8473 145.32 94.2961 149.69 91.984C149.69 91.984 152.98 96.9934 157.33 98.1494C160.147 98.8324 163.071 98.9666 165.94 98.5446C165.48 98.3075 165.01 98.0704 164.56 97.8234C171.68 99.4734 178.02 96.8353 180.1 94.2071C168.99 95.8967 160.64 92.9325 154.1 82.1727L151.33 87.7848L150.73 87.192H148.2C150.72 85.9371 151.74 84.5144 149.12 84.1685C143.65 85.6309 138.74 84.0895 136.56 79.6828ZM80.72 86.7968C78.55 86.7968 79.17 93.0709 79.11 94.4047C78.87 98.9399 73.28 124.234 73.28 124.234L83.45 101.282C83.45 101.282 104.96 106.281 111.92 94.5431C111.92 94.5431 104.86 98.3273 97.34 98.1692C87.43 97.9617 80.34 87.4686 81.19 86.8758C81.0391 86.8231 80.8801 86.7964 80.72 86.7968Z" fill="black" fill-opacity="0.2"/>
<path id="outline" d="M159.49 70.3461C155.36 62.6492 148.65 67.8957 145.78 58.8155C143.39 51.2471 136.34 49.7354 130.38 46.1784C129.61 34.223 119.71 28.5417 115.46 27.2671M166.78 79.5547C167.71 82.4003 179.45 85.2854 179.34 76.304C179.34 73.6659 165.34 81.758 169.08 56.7406C171.69 44.1134 166.77 41.0109 160.78 33.8969M131.78 12.8021C120.38 3.35633 111.29 -2.26567 98.25 6.63665C88.39 7.18996 81.96 -2.18662 67.59 11.3892C55.69 14.0865 49.2 13.8296 43.53 25.6467C35.61 26.1605 23.97 28.4034 22.01 39.9833C16.95 69.8915 -1.07003 52.8279 2.00997 59.8727C5.08997 66.9175 17.19 68.2218 18.09 65.5046M166.72 79.0607C168.91 97.3198 182.46 86.965 182.03 90.1466C180.55 101.242 162.93 99.5824 157.38 93.3182M83 99.9875C94.25 109.868 118.86 98.9995 115.74 82.7757C115 79.2385 100.83 98.9995 97.76 74.2983M117.11 89.5933C124.53 93.1799 139.18 86.8564 134.93 76.1459C133.65 72.9446 120.8 89.4253 119.35 63.7656C118.74 52.986 114.35 49.1228 108.61 47.1664M52.17 96.4404C53.17 87.8642 49.57 78.3888 45.34 70.2571C37.98 56.1182 45.22 46.544 51.18 43.0067C52 31.0118 56.44 28.354 61 25.8838M32.12 97.0234C31.61 104.108 16.03 108.337 8.62998 101.736C2.91998 96.6479 26.05 106.854 17.22 76.8573C15.15 64.645 21.72 59.0724 27.22 54.3397M55.36 109.325C56.36 117.229 48.51 128.552 41.25 126.576C36.95 125.41 53.59 116.29 36.92 105.728C31.29 101.114 31.26 91.4014 31.64 87.5776M82.75 100.076C80.7 111.508 69.54 141.574 55.28 134.5C49.59 131.674 62.94 128.819 55.13 117.644M138.07 89.2573C142.15 91.9053 153.6 89.6723 153.67 78.1022C153.67 75.8396 141.32 89.0498 140.42 64.7833" stroke="black" stroke-width="3" stroke-linecap="round" stroke-linejoin="round"/>
</g>
</g>
</g>
</svg>
