<svg width="184" height="156" viewBox="0 0 184 156" fill="none" xmlns="http://www.w3.org/2000/svg">
<g id="Hair6">
<g id="layer1">
<g id="g53230">
<path id="abColor_3" d="M26.4898 133.72C14.4198 135.696 8.15982 141.466 20.4898 110.451C-7.28018 115.391 13.8098 84.0899 16.0498 80.0982C-17.6902 73.8933 15.8998 54.3101 23.8998 43.3132C-3.18019 39.361 19.4298 26.8325 51.3198 19.6C27.3298 7.23948 61.9998 4.35438 79.2298 9.19582C93.4998 -3.78714 105.14 3.97892 110.51 7.78291C124.42 -6.11894 141.83 14.9067 138.61 14.6993C137.9 13.5432 155.34 13.6025 154.37 17.6634C148.85 22.5345 146.37 31.3084 141.44 36.8513C135 44.0542 126 48.7178 126.61 51.3559C128.31 51.6819 122.8 57.9363 125.61 62.8271C127.7 66.4533 132.17 74.2786 134.61 78.7742C142.71 81.8174 153.37 94.583 159.11 96.4208C159.32 100.185 163.38 68.4985 166.51 61.2561C168.25 56.385 167.97 53.3517 167.72 49.8639C169.12 37.4441 166.39 31.3182 166.72 30.2314C169.72 21.2698 183.48 47.374 177.51 53.4901C184.23 66.7497 179.51 72.5199 175.4 83.0031C179.66 95.2252 174.4 102.823 170.82 107.704C170.68 112.645 170.68 125.835 167.43 127.712C158.16 131.526 141.08 128.019 132.43 122.772C122.02 125.054 125.16 125.736 113.73 121.784C103.61 123.632 106.61 124.017 96.8898 120.964C92.1298 138.423 80.7198 128.453 79.4398 129.58C76.5398 140.211 65.6098 150.329 60.2498 136.496C44.9998 162.432 24.7198 156.109 26.4898 133.72Z" fill="white"/>
<path id="Grey" d="M57.2398 7.25879C46.4298 7.37735 38.2398 9.81784 47.6498 18.6411C23.3598 27.9881 -6.53022 37.7401 24.2798 43.0854C3.79978 60.5344 -12.2702 79.6433 16.9498 78.0426C10.7298 87.9231 -6.18022 120.035 21.6398 109.127C10.4698 133.166 11.0798 142.414 28.2398 130.864C25.8098 165.238 48.2398 155.743 60.2398 136.634C68.5998 148.975 78.1298 134.193 77.9298 128.038C78.0398 131.595 64.4998 139.084 61.6198 129.125C41.9398 145.171 28.8698 144.034 31.3098 127.741C32.9798 116.557 12.4298 139.46 27.4798 106.992C33.0998 94.879 0.659788 111.281 22.1598 78.4378C30.4998 65.7019 -3.63021 77.0645 29.9398 45.1011C36.0698 39.2716 4.27979 33.8077 55.9398 22.0795C63.9398 20.2813 32.2298 10.9047 80.2198 9.29417C72.6296 7.99185 64.9434 7.31107 57.2398 7.25879ZM97.6198 112.832C93.6198 119.975 87.9998 127.653 81.7398 120.054L79.5598 128.048C79.3298 128.967 91.2098 134.065 96.6898 121.744C98.8098 123.868 110.15 125.459 114.45 121.527C121.66 124.185 126 125.321 132 124.086C136.64 127.376 155.33 131.328 169.38 126.003L171.38 121.062C164.86 124.817 154.83 126.595 153.85 117.841C152.04 119.896 136.94 124.876 137.75 115.47C121.75 125.163 116.18 117.13 117.03 114.274C107.62 120.904 100.1 116.043 97.6198 112.832Z" fill="black" fill-opacity="0.2"/>
<path id="abColor_4" d="M125.3 47.7389C126.81 53.0546 126.59 59.6844 123.18 63.5477C128.6 64.7136 134.85 74.9597 132.74 79.6232C141.63 80.6113 149.45 86.4013 149.74 92.6655C157.91 94.7108 156.81 94.0389 160.26 100.886M61.5799 132.8C61.2499 153.816 82.2299 137.197 78.9999 124.5C83.6199 120.034 85.9999 106.291 79.4499 93.3868M61.6899 128.393C60.0399 152.936 22.5799 169.654 28.3899 130.241C4.90986 150.338 14.4799 118.75 22.7999 108.287C1.16987 121.032 -0.350134 96.509 17.6099 78.2103C4.37987 82.4491 -13.6401 72.282 25.2599 42.9567C-7.22014 42.7789 21.2599 22.3065 52.2599 20.0834C21.1899 7.30794 73.5099 3.84977 79.8099 8.74061C96.3799 -3.60012 103.21 2.93088 110.81 7.93041C125.73 -2.52315 133.26 6.48786 139.05 14.1452C144.673 13.9951 150.235 15.3322 155.16 18.0184M166.42 28.8869C180.2 32.0882 179.9 43.7472 176.82 54.0328C181.38 57.2044 185.6 73.1614 175.01 84.3264C178.01 91.9739 178.25 99.8684 170.51 108.435C172.82 116.616 171.8 122.811 168.03 126.457M155.72 116.774C152.72 121.27 146.42 126.249 136.3 124.787M113.26 120.884C123.76 128.68 134.05 123.206 137.57 116.418L113.26 120.884ZM96.4099 120.588C113.21 129.628 119.29 114.659 116.93 105.688L96.4099 120.588ZM80.3999 129.253C94.8499 137.76 99.1899 113.286 95.8199 105.372L80.3999 129.253Z" stroke="black" stroke-width="3" stroke-linecap="round" stroke-linejoin="round"/>
</g>
</g>
</g>
</svg>
