<svg width="222" height="152" viewBox="0 0 222 152" fill="none" xmlns="http://www.w3.org/2000/svg">
<g id="Hair4">
<g id="layer1">
<g id="g39595">
<path id="abColor_3" d="M69.7502 9.32202C58.6902 7.7115 55.1302 12.1874 46.3702 14.7958C31.3702 12.8197 26.9302 23.1349 25.6502 29.5177C12.1702 32.1756 13.9502 36.0487 14.5102 47.2433C6.08016 53.0531 5.44016 57.4104 10.2502 66.0163C-2.13984 77.3393 1.98017 81.2619 11.5502 88.0102C1.40017 101.576 9.75016 111.802 22.5502 107.534C10.2802 116.515 25.6502 125.319 37.5502 120.586C40.8402 121.574 45.9602 126.149 49.4902 125.655C63.6402 133.174 71.2902 135.031 81.2302 125.843C90.1202 131.069 95.3902 127.522 103.61 126.455C114.61 130.654 122.72 120.902 132.16 119.45C140.67 128.51 150.44 127.256 158.22 128.115C159.66 130.417 167.34 131.02 168.38 131.682C168.84 131.998 172.84 137.195 175.03 138.994C175.59 142.689 176.26 148.993 183.03 150.03C198.71 142.778 198.54 135.111 198.75 130.694C214.63 127.532 214.3 121.475 206.42 112.326C222.87 107.504 213.68 100.134 211.16 92.1502C227.59 84.5323 217.16 74.138 214.16 66.9944C223.85 52.7369 196.95 36.1673 198.72 36.4934C205.2 18.2737 179.79 9.07501 169.62 10.8634C154.19 -8.37394 138.49 4.46082 131.23 6.08122C103.78 -3.72023 106.41 5.99229 96.5602 7.0001C93.0602 7.0001 70.1202 3.24552 69.8202 9.2825L69.7502 9.32202Z" fill="white"/>
<path id="shadow" d="M17.7402 47.7471C17.7402 47.7471 17.5902 47.7471 17.3902 47.9348C5.18024 46.8776 4.46024 59.4357 8.47024 64.4846C5.97024 69.83 2.23024 76.1436 3.70024 80.9258C14.3502 88.6721 7.50024 89.2846 7.70024 100.993C8.23024 109.885 19.5102 105.933 20.1802 107.119C20.7002 108.107 16.1802 115.172 22.1102 119.045C25.3302 121.169 35.1903 120.517 36.8003 121.732C40.7403 125.684 46.9203 123.323 49.9603 124.548C60.5603 131.366 68.4202 133.006 78.4802 128.224C80.3302 127.334 81.3203 126.248 80.3402 123.985C79.9171 122.979 79.3911 122.019 78.7703 121.12C86.7703 127.473 92.1103 131.87 104.38 124.943C109.46 124.4 116.26 128.994 123.56 124.42C126.56 123.244 130.42 117.177 134.33 114.016C125.63 126.712 152.07 127.137 158.73 127.66C161.629 129.684 164.911 131.109 168.38 131.85C174.05 138.707 175.77 149.714 184.52 147.995C198.68 145.682 195.65 132.393 198.72 131.356C209.54 127.69 211.25 122.582 210.15 119.944C207.63 124.884 199.75 128.718 196.61 123.896C195.31 121.92 183.03 132.561 182.11 127.483C181.19 122.404 191.34 118.116 182.48 122.197C162.34 132.364 166.87 115.666 160.48 119.321C147.67 118.976 148.76 108.799 150.54 106.477C155.68 99.7777 149.45 99.1553 153.14 93.9581C158.82 85.945 154.42 83.6725 153.2 77.4577C153.2 77.4577 153.36 85.036 151.94 89.6206C150.52 94.2051 145.26 94.047 145.26 94.047C147.9 105.252 137.26 121.712 146.33 106.447C138.66 111.328 131.26 104.125 128.45 110.3C121.5 125.536 110.13 114.806 103.39 117.81C88.1003 124.637 85.2403 113.225 77.8303 114.608C65.2403 116.98 68.2903 101.181 65.2103 104.985C62.1303 108.789 66.5202 120.547 76.6702 120.112C72.5403 121.337 71.3503 120.448 66.1903 117.721C57.2503 127.374 51.8103 115.922 48.8003 116.16C35.9703 117.148 43.6603 102.9 38.4903 103.918C33.1703 104.975 26.6302 95.3611 30.9302 89.5613C32.4302 87.5852 23.6402 97.604 22.9302 98.019C16.1502 106.081 12.4002 98.1079 12.4502 92.0018C12.4502 90.905 13.8602 88.593 13.4502 87.4963C7.14024 81.647 5.53025 74.5232 12.5502 65.4035C7.26025 56.9952 18.0602 47.836 17.6902 47.7866L17.7402 47.7471Z" fill="black" fill-opacity="0.2"/>
<path id="outline" d="M170.37 12.2863C175.87 13.0471 188.55 22.068 184.51 32.5314C190.19 33.6479 193.77 45.9293 189.61 52.3813M132.72 119.499C138.84 127.937 154.65 129.252 158.21 127.631C167.27 135.862 179.64 130.99 185.56 122.345M169.06 133.164C168.47 137.768 180.84 142.383 188.44 135.931M64.2802 110.498C63.5602 113.779 68.8002 121.663 77.9702 120.586C83.7002 131.336 97.4102 130.467 104.3 125.052C119.85 130.408 133.08 119.855 134.05 112.395C148.97 113.443 148.69 102.732 143.35 94.6994C154.58 93.7114 155.53 82.5464 150.66 76.302M81.6602 126.584C69.0402 135.012 56.4002 132.166 50.5202 125.062C36.1802 126.544 35.6302 115.271 36.8002 108.196C22.8502 103.78 22.3002 94.8476 29.8802 89.4233M38.7902 45.297C38.9202 36.1773 42.7102 29.9921 51.2502 27.6405C53.7202 19.1631 58.7702 16.357 65.0902 16.3471C72.4102 0.666812 90.1502 4.78698 96.6902 7.60292C108.51 -2.37638 127.48 2.96897 130.97 6.61487C141.97 -0.726337 164.29 -0.0742248 169.49 11.7231C189.94 11.4267 205.69 24.8543 198.39 36.8492C203.26 39.7046 221.55 50.1285 212.84 67.9529C219.24 72.6067 221.2 78.0212 220.26 82.6156C219.32 87.21 215.26 91.2215 209.79 92.5653C214.79 97.9699 222.32 110.35 206.58 112.139C219.15 124.983 203.87 132.888 197.96 130.536C198.18 140.328 191.69 147.866 182.22 149.842M37.4102 120.972C28.6602 124.173 9.4102 118.166 22.4102 108.265C13.4102 109.945 0.330196 105.538 12.2202 88.3957C5.2202 85.4908 -5.71981 76.0253 11.6802 64.9098C11.0902 67.8739 -3.3198 55.5529 14.9702 47.4015C13.5202 37.5902 14.1802 30.7035 25.0202 30.328C24.4102 19.9239 38.5602 14.4402 46.7002 16.1199C52.8602 7.02985 65.2402 6.78283 69.4302 9.67782" stroke="black" stroke-width="3" stroke-linecap="round" stroke-linejoin="round"/>
</g>
</g>
</g>
</svg>
