<svg width="204" height="118" viewBox="0 0 204 118" fill="none" xmlns="http://www.w3.org/2000/svg">
<g id="Hair2">
<g id="layer1">
<g id="g473477">
<path id="abColor_3" d="M18.9101 32.8797L15.9101 42.0587C14.1101 49.3011 3.81007 27.5146 3.81007 27.5146C-4.18993 103.96 46.8101 131.853 108.26 106.885C117.35 113.337 135.47 105.383 135.57 104.069C135.57 104.069 138 109.266 147.66 106.964C157.32 104.661 158.77 102.023 158.77 102.023L199.47 107.616C189.41 93.1408 199.56 86.9161 201.1 78.9623C206.54 50.9313 190.38 48.1253 184.64 44.2126C184.4 44.5683 179.24 68.9138 180.21 75.8302C176.3 67.5108 159 59.7349 157.9 52.8778C157.12 47.8289 142.32 30.8542 142.11 34.5495C142.84 27.6331 156.11 20.5686 154.76 18.9186C148.38 11.2217 142.31 5.7281 121.98 2.70467C73.6901 -4.47845 56.2501 78.0632 18.9101 32.8797Z" fill="white"/>
<path id="shadow" d="M4.57001 29.8457C3.74001 29.3418 6.85 93.0809 49.92 103.791C81.92 111.755 121.06 93.2983 121.06 93.2983C121.06 93.2983 111.85 98.5349 118.22 102.082C124.59 105.629 137.39 98.7226 137.39 98.7226C142.17 102.596 148.9 102.813 158.83 98.3867C161.71 102.24 172.17 103.544 180.05 98.0508C185.05 103.613 190.18 106.795 197.97 107.526C189.97 112.891 178.16 109.868 173.91 104.078C166.64 105.797 163.11 106.42 158.25 102.606C150.34 104.997 142.25 108.613 135.33 104.256C123.42 108.692 114.53 109.779 109.33 106.795C46.48 132.119 -2.68999 104.582 4.57001 29.8457Z" fill="black" fill-opacity="0.2"/>
<path id="Outline" d="M156.69 19.8566C98.6901 -34.16 67.3301 52.4622 37.5601 47.4627M137.16 32.7507C152.08 38.7382 151.16 46.3166 159.72 54.7347C169.78 61.9574 178.13 71.5316 181.85 82.2223M157.6 101.796C156.6 104.523 140.08 110.974 135.6 103.772C133.1 104.957 121.6 113.158 107 106.518C93.2211 113.844 77.5991 117.096 62.0001 115.885C-0.949936 111.054 6.77109e-05 42.6805 3.52007 27.6128C4.61007 23.0381 9.79006 37.266 15.1801 42.7991C17.7701 45.4767 15.8501 32.306 18.5201 30.6165C36.6801 59.2007 76.0001 55.871 83.7901 41.2874M184.16 44.38C208.16 48.0259 201.77 81.1947 197.16 90.7491C194.68 95.9166 192.1 100.798 199.16 107.151C194.08 111.765 178.46 104.473 178.73 99.9775M107.23 106.459C112.491 103.296 116.984 99.0294 120.39 93.9603L107.23 106.459Z" stroke="black" stroke-width="3" stroke-linecap="round" stroke-linejoin="round"/>
</g>
</g>
</g>
</svg>
