<svg width="205" height="113" viewBox="0 0 205 113" fill="none" xmlns="http://www.w3.org/2000/svg">
<g id="Hair7">
<g id="layer1">
<g id="g165544">
<path id="abColor_3" d="M56.9999 8.76136L35.8799 21.4775C30.4099 18.958 21.4699 52.8283 24.3599 54.6365C25.3599 82.7465 13.1299 82.1042 2.1499 84.1594C5.6899 89.9988 10.5699 94.6426 24.6399 91.0757C27.1499 93.0518 11.0499 104.572 7.37991 102.3C10.9299 105.867 33.0799 103.436 33.0799 103.436L27.2799 109.7C70.7799 114.967 75.5899 67.57 73.2099 74.5852C80.4499 94.7809 126.51 117.071 143.82 108.821L143.26 100.245C141.54 104.266 156.56 113.336 168.84 107.033C157.16 103.644 151.04 86.7579 154.11 86.7777C165.22 96.4507 175.84 108.88 192.67 95.6702L178.33 88.1709C185.96 86.1058 202.54 90.5718 202.22 81.798C197.56 82.9737 175.34 80.4147 182.22 58.7665C183.99 46.5641 176.89 39.2822 172.94 28.6409C172.94 28.6409 168.11 61.2465 167.45 57.7093C166.79 54.1721 155.52 38.225 153.8 35.6363L140.06 20.8946C139.06 22.5446 132.27 18.9185 132.56 16.7547C132.93 14.0573 143.44 5.42175 143.44 5.42175C128.96 -1.87005 90.8199 2.4576 82.3399 9.78892C73.6399 9.23562 63.9899 5.48103 56.9999 8.80087V8.76136Z" fill="white"/>
<path id="Grey" d="M134.17 18.6221L152.11 37.1677C157.39 43.8964 163.31 50.0124 167.11 57.6895L175.11 85.2857C175.11 85.2857 175.92 85.8193 182.01 86.7085C186.156 87.1574 190.351 86.7846 194.35 85.6118C194.35 85.8094 177.09 82.6476 174.68 73.7552C173.25 68.4593 169.37 49.054 169.68 47.8288L167.8 57.0769C165.04 53.1247 161.16 45.0326 155.73 38.4226L134.17 18.6221ZM68.8498 21.853C65.1998 24.995 58.5998 45.5662 63.6398 63.0151C71.6398 90.6805 50.3598 102.399 37.6398 109.809C35.7098 112.526 63.7898 104.019 70.1098 85.9675C74.9998 72.2731 68.3398 61.4836 66.9998 60.6438L68.8498 21.853ZM98.4798 41.2583C113.23 51.1388 136.27 87.8547 142.42 99.1876L143.04 105.551C144.81 110.698 155.72 112.615 165.95 110.115C164.332 109.99 162.722 109.772 161.13 109.463C164.72 108.752 167.13 107.171 166.92 106.964C150.65 108.268 136.41 77.3221 135.72 76.0969C124 54.7155 98.4798 41.2583 98.4798 41.2583ZM25.7198 41.8709C22.5698 64.4379 31.9198 79.4167 3.24976 85.7995C5.38943 87.9442 7.98559 89.5913 10.8498 90.6212C16.0598 92.6961 25.0198 87.8349 25.0198 87.8349L33.0198 46.4653C29.7298 50.0816 26.7598 51.6525 25.7198 41.8709ZM44.8298 49.7753C34.9198 60.0411 37.4998 73.3205 38.0298 79.4958C40.0298 102.557 21.3598 100.601 17.9398 104.819C16.8598 105.936 46.9398 104.049 43.6497 88.9218C40.8997 76.0969 44.5398 50.7633 44.8298 49.716V49.7753ZM147.57 55.9209L152.93 84.0112C152.93 84.0112 152.84 87.1235 166.93 96.9546C181.02 106.786 190.75 96.8854 190.75 96.8854C190.75 96.8854 175.67 105.254 160.95 86.3825C154.46 78.0236 156 68.9928 147.57 55.8616V55.9209ZM154.11 88.7242C155.88 94.0893 157.73 99.3259 161.47 101.51C167.72 104.652 173.59 107.102 179.95 102.745C168.54 100.927 159.18 95.7294 154.11 88.6649V88.7242Z" fill="black" fill-opacity="0.2"/>
<path id="abColor_3_2" d="M71.6198 71.8294C76.5198 107.468 29.8498 114.049 25.3598 110.255C40.7298 97.825 46.0698 98.7043 41.7598 78.0541C40.6246 72.9943 40.55 67.7585 41.5406 62.6692C42.5312 57.5798 44.5661 52.7448 47.5198 48.462M70.3398 21.1227C41.3398 18.0795 29.4898 42.3164 27.2398 83.0833C26.1298 103.131 4.9998 101.263 6.7698 102.439C22.1498 108.743 35.8498 104.761 43.0598 92.3018M25.3698 89.7921C19.5998 91.867 8.3698 96.1058 1.9698 85.0198C0.629796 82.6782 24.7798 87.1343 24.2898 67.1757C23.5498 37.4552 24.6298 24.6896 49.6998 11.8449C56.3898 8.43617 69.1998 4.55313 83.0198 8.37688M143.02 108.17C134.63 69.7051 101.26 40.696 82.1698 34.8467M111.27 24.1956C128.84 31.5664 149.65 46.1204 153.51 85.2965C153.63 105.324 172.09 106.046 170.29 107.202C149.96 115.541 141.01 98.3091 132.22 79.7437M177.51 86.3339C182.51 87.5097 194.25 90.7901 202.88 82.3818C204.82 80.4946 182.24 85.7905 182.24 65.8319C182.24 50.0231 178.78 37.8306 172.77 28.4936M144.31 6.50947C130.61 0.482373 97.0198 -0.83173 81.3798 10.185M153.72 85.2767C156.5 91.373 177.62 111.025 192.57 96.3034C196.25 92.6772 174.06 94.8806 171.1 75.8013C162.71 37.3267 139.1 18.8206 120.01 12.9713M81.5298 10.2542C67.8298 17.9116 66.3698 35.5779 66.4598 40.1525C62.2198 79.7634 102.35 115.936 142.56 109.316C128.01 102.261 111.62 98.8822 103.11 78.973" stroke="black" stroke-width="3" stroke-linecap="round" stroke-linejoin="round"/>
</g>
</g>
</g>
</svg>
