<svg width="69" height="105" viewBox="0 0 69 105" fill="none" xmlns="http://www.w3.org/2000/svg">
<g id="Mouth4">
<g id="layer1">
<g id="g300826">
<path id="abColor_3" d="M27.3098 5.31049C26.2198 5.31049 25.1698 5.36978 24.1598 5.44882C20.0398 5.765 8.28979 14.4499 6.23979 17.5821C-0.440214 27.8281 2.23978 27.4625 1.65978 30.6342C4.23978 37.9853 -1.00022 47.4903 15.1598 49.2787C15.1598 49.5356 15.1598 49.8122 15.0998 50.0987C13.1155 50.2491 11.1199 50.1528 9.15978 49.8122C8.88978 50.405 8.74978 57.7166 10.1598 58.0723C12.0415 58.3352 13.9393 58.4705 15.8398 58.4774C16.0576 58.9823 16.4017 59.4243 16.8398 59.7619C18.1298 63.2596 20.1198 66.451 22.6698 68.0022C20.8498 67.4785 11.5898 76.0647 22.6698 78.2779C16.7698 80.8468 17.2398 85.0757 19.5098 89.1464C19.2998 89.1464 19.0898 89.1464 18.8598 89.1464C17.1198 89.1464 13.6498 90.9546 14.4998 95.8948C16.1898 105.775 26.3298 103.177 28.0798 103.849C40.6698 105.36 48.8398 103.305 57.7998 93.1381C70.6698 76.3413 69.7998 40.3566 67.7998 25.0517C67.7198 12.0687 43.6298 5.13264 27.3098 5.29073V5.31049Z" fill="white"/>
<path id="path434979" d="M23.9997 69.2177C23.9997 69.2177 37.8197 70.5911 43.7797 66.4907C49.7397 62.3903 54.1097 56.6102 54.8397 50.0298C55.5697 43.4494 54.3797 44.9018 54.3797 44.9018L48.1597 48.2217C48.0397 48.2217 48.6697 55.306 47.8597 56.0075C45.0997 58.4085 41.4997 57.9046 41.0597 58.0429C39.3997 58.5764 32.5097 61.2244 31.1297 60.9379C26.1297 59.8905 32.4497 55.2467 26.8497 55.5728L24.3597 61.6987C21.7697 63.0721 23.5797 66.4512 23.9997 69.2177Z" fill="#A37070"/>
<path id="path445115" d="M11.9998 58.7041C11.9998 58.7041 14.7098 64.3162 14.7298 66.3516C14.7498 68.387 14.6197 73.7817 14.6497 73.347C14.6497 72.6751 20.8998 68.4067 22.3798 68.4067C22.8198 67.6954 22.6498 62.6168 22.4598 60.7395L11.9998 58.7041ZM16.9297 77.8722L14.5198 87.565C14.5198 87.565 20.8298 89.4028 20.0698 87.3081C18.4398 82.8817 22.7198 78.7319 23.0698 79.1468L16.9297 77.8722Z" fill="#CCCCCC"/>
<path id="path13904-3" d="M9.84985 50.5832L10.1898 57.4995L15.7598 59.3867C21.5998 62.1038 25.0799 59.0804 26.9599 54.9108C27.9599 64.2973 41.0698 59.3373 46.7598 55.474L46.8698 48.9529C34.3098 52.3221 31.8699 49.9409 25.1599 48.1328C22.2299 49.8026 12.5599 50.682 9.84985 50.6227V50.5832Z" fill="#FFFFF2"/>
<path id="abColor_4" d="M14.7098 88.2669C25.0998 84.8384 27.6498 100.983 26.5198 100.677C35.3298 91.6658 42.7998 97.7127 43.8598 99.8864C46.4398 91.3101 55.4798 90.0059 57.0598 92.1302M21.5498 68.9703C24.2898 67.4981 23.5498 63.7633 22.6198 60.3051M56.2898 41.9472C53.2898 65.6603 44.4498 69.6125 23.0198 68.9802C13.5698 68.6838 12.9598 78.6532 23.4298 78.0011M22.6898 33.4203C23.2398 40.06 22.2298 44.3975 25.5898 47.1443C45.1398 55.938 60.5898 40.0699 61.7698 31.0292M14.4998 29.2903C11.6698 27.5216 7.82983 26.2372 7.60983 23.273L22.5498 33.3116C29.9398 29.1618 39.1698 26.0791 46.4098 20.9511C43.1098 25.8914 39.2398 26.8794 35.4098 28.2429M24.9998 1.63477C21.8398 9.93438 3.99982 14.8845 2.92982 21.0598C1.77982 30.9996 0.85983 45.761 8.02983 47.8359C16.9498 52.2031 24.2898 47.5 24.8998 46.8479M14.4998 57.8251L10.1498 58.0227C8.87983 57.8844 9.14982 51.8869 9.53982 50.0096M41.0598 57.1236L46.5998 56.2541C49.1198 55.3155 47.5998 52.4007 47.0098 48.4387M15.3398 50.9088C15.4298 52.0747 14.1898 60.3051 17.3398 60.3249H24.0398C26.5998 59.8704 24.9498 54.6535 24.8798 49.654M57.5698 29.3594C60.8298 28.9049 62.1698 29.7151 64.8098 32.9954L57.5698 29.3594ZM27.7098 49.3081C27.7098 49.3081 28.7098 60.8288 30.5398 60.6509L38.3498 59.8704C41.4498 59.0898 39.1898 53.7148 38.5598 49.6737L27.7098 49.3081Z" stroke="black" stroke-width="3" stroke-linecap="round" stroke-linejoin="round"/>
</g>
</g>
</g>
</svg>
