<svg width="69" height="104" viewBox="0 0 69 104" fill="none" xmlns="http://www.w3.org/2000/svg">
<g id="Mouth7">
<g id="layer1">
<g id="g298999">
<path id="abColor_3" d="M16.4698 84.166C13.1898 87.3278 17.0498 93.2363 18.5998 92.6929C29.2398 91.9519 56.4498 90.2524 61.7698 69.4145C84.6098 7.1081 47.9198 4.48977 26.4798 4.61822C18.9698 10.6947 8.83977 13.5107 3.94977 22.8378C3.11977 38.2218 0.109778 55.5324 16.3198 53.9515C16.3198 53.9515 8.38977 62.9724 10.6898 68.6537C12.9898 74.3349 13.1898 74.1077 14.9998 74.7598C14.5498 75.6194 20.3298 80.451 16.4698 84.166Z" fill="white"/>
<path id="path13904-1" d="M17.8197 55.6505L18.8197 60.7587L37.4497 59.1482L44.4497 52.4492C32.7897 56.7176 34.4497 52.7259 27.0797 52.637C23.9097 54.4747 20.7797 55.7295 17.8197 55.6505Z" fill="#FFFFF2"/>
<path id="abColor_4" d="M15.9397 92.1396C27.2997 88.3949 31.4197 101.032 30.1897 100.686C37.6497 94.9951 46.9197 99.7772 48.1297 102.05C53.8097 96.8526 59.7197 99.0856 60.5297 100.133M36.4397 59.3462C33.1197 60.3343 28.3797 61.2334 26.9997 60.0576L26.6697 53.1413M21.6697 60.6406C12.7397 67.0728 18.6697 73.584 44.4597 53.9416M15.2497 55.9671C3.59974 73.3864 14.6597 78.1982 30.3897 71.8747M24.8097 36.5223C25.4097 43.7845 24.3097 48.5172 27.9797 51.5308C41.9297 57.5282 58.2197 51.2541 62.6197 42.8952M27.2697 1.8418C23.8197 10.9121 4.34973 16.3167 3.14973 23.0651C1.88973 33.9336 0.879742 50.029 8.71974 52.3311C18.4797 57.1034 26.4997 51.9655 27.1497 51.2541M26.0097 60.3442C24.1497 60.6011 19.9397 61.0556 18.6797 60.0972L18.3597 54.5937M58.5597 40.761C62.1197 40.2571 63.5597 41.1464 66.4797 44.7132M15.8497 32.0267C12.7697 30.1 8.55974 28.6871 8.32974 25.4463L24.6097 36.4235C32.6897 31.8982 42.7697 28.5191 50.6797 22.9169C47.0797 28.361 42.8497 29.3886 38.6797 30.8904L15.8497 32.0267Z" stroke="black" stroke-width="3" stroke-linecap="round" stroke-linejoin="round"/>
</g>
</g>
</g>
</svg>
