<svg width="78" height="105" viewBox="0 0 78 105" fill="none" xmlns="http://www.w3.org/2000/svg">
<g id="Mouth3">
<g id="layer1">
<g id="g300784">
<path id="abColor_3" d="M26.6697 6.54051C22.1597 6.88633 9.25968 16.421 7.01968 19.8495C-0.320318 31.1034 2.66968 30.7181 2.01968 34.1861C4.85968 42.2486 -0.890326 52.6824 16.8397 54.6387C22.7897 57.6029 20.8397 66.8016 19.8397 67.8292C17.6397 69.9733 12.3497 70.4673 15.4897 75.2494C64.6797 98.7156 83.9397 54.9351 74.6297 28.0207C67.8197 10.8978 41.7297 5.40426 26.6697 6.54051Z" fill="white"/>
<path id="path421838" d="M62.8897 49.0762C63.4697 50.3112 58.3497 63.8969 56.7797 63.0077V52.3664L62.8897 49.0762Z" fill="#A37070"/>
<path id="path13904" d="M18.2397 56.0319L20.0497 62.9483L18.6397 69.4793C32.1097 71.4554 48.4997 69.5583 55.6897 65.1615L55.8997 51.9019C44.7497 57.593 35.9997 55.775 27.5697 52.9986C24.3497 54.8462 21.2097 56.1011 18.2397 56.0319Z" fill="#FFFFF2"/>
<path id="abColor_4" d="M55.8797 63.2743C55.2197 59.5197 54.4497 58.7293 56.3697 53.2259M18.8097 67.8292L20.6797 62.889L18.8797 55.1624M20.6097 61.8614C29.4597 62.8494 42.9797 62.8495 53.1797 59.332M64.7397 46.2996C62.2597 56.931 59.3697 62.5135 56.9197 64.3019C50.1197 69.2421 32.6097 70.0918 18.1497 68.9457C10.7197 68.3529 12.6597 79.093 26.3597 79.5574M24.9197 37.3084C25.5197 44.5903 24.4097 49.3527 28.0997 52.3761C49.5497 62.0195 70.7497 44.037 72.0397 34.117M15.9197 32.7732C12.8197 30.7971 8.59967 29.4238 8.35967 26.1632L24.7597 37.1799C32.8697 32.6349 42.9997 29.2756 50.9397 23.614C47.3197 29.0878 43.0697 30.1253 38.8897 31.6271M27.4297 2.38086C23.9597 11.4907 4.42967 16.9249 3.19967 23.703C1.93967 34.5715 0.929674 50.7755 8.79967 53.0974C18.5997 57.8894 26.6497 52.7219 27.3097 52.0106M19.7997 96.1566C29.3397 91.8685 32.8497 103.518 31.7397 103.142C40.1697 94.6054 52.4397 97.4411 53.4497 99.9013C53.2097 91.0089 64.2297 87.8174 65.8597 89.0327M68.1297 32.2496C71.7097 31.7555 73.1897 32.6349 76.1297 36.2018L68.1297 32.2496Z" stroke="black" stroke-width="3" stroke-linecap="round" stroke-linejoin="round"/>
</g>
</g>
</g>
</svg>
