<svg width="74" height="92" viewBox="0 0 74 92" fill="none" xmlns="http://www.w3.org/2000/svg">
<g id="Mouth2">
<g id="layer1">
<g id="g300868">
<path id="abColor_3" d="M14.5999 47.1016C13.9899 52.4568 13.8399 53.8005 19.1199 56.7845C15.8499 66.0721 13.1199 64.8766 18.4199 73.8283C10.2899 77.3754 12.2199 85.4972 16.3499 90.5164C26.1299 94.4687 48.4999 88.5404 53.1299 83.4124C67.8799 72.1783 68.3499 38.308 66.3199 23.2797C66.2299 9.66441 39.3199 2.82711 23.4299 4.04241C19.4299 4.35859 7.83991 12.9348 5.82991 15.9583C-0.730088 26.0265 1.93991 25.6609 1.32991 28.8029C3.85991 36.0256 -1.28008 45.3626 14.5999 47.1115V47.1016Z" fill="white"/>
<path id="abColor_4" d="M14.6899 75.35C24.8999 71.9807 28.6099 83.3433 27.4899 83.037C34.2099 77.9189 42.4899 82.2169 43.6299 84.2622M19.5599 56.2905C12.3499 67.159 20.5599 74.6583 19.4399 74.352M13.6699 48.7319C13.5999 53.8797 16.9699 57.0118 25.9199 56.5178M21.9999 31.5201C22.5399 38.0412 21.5499 42.3096 24.8499 45.007C30.2999 49.473 40.8499 46.8052 46.8499 44.6908C52.1599 42.8036 64.5499 36.7864 68.0399 24.9298M13.9799 27.4098C11.1999 25.6808 7.41994 24.4457 7.20994 21.4815L21.8899 31.362C29.1499 27.2913 38.2199 24.258 45.3299 19.2189C42.0899 24.1592 38.2799 25.0385 34.5399 26.3921M23.7099 1.85889C17.2199 11.4924 5.75993 10.9885 2.58993 19.3276C1.45993 29.0895 0.58993 43.5644 7.58993 45.6393C16.3599 49.9275 23.5899 45.3133 24.1599 44.6513M64.9199 23.7936C68.1299 23.349 69.4499 24.1394 72.0399 27.3703" stroke="black" stroke-width="3" stroke-linecap="round" stroke-linejoin="round"/>
</g>
</g>
</g>
</svg>
