<svg width="71" height="107" viewBox="0 0 71 107" fill="none" xmlns="http://www.w3.org/2000/svg">
<g id="Mouth1">
<g id="layer1">
<g id="g298999">
<path id="abColor_2" d="M16.5191 86.3498C13.1591 89.5906 17.1091 95.6276 18.6991 95.0842C29.5991 94.3234 57.4591 92.5844 62.9091 71.2426C86.2991 7.44424 48.7191 4.75674 26.7691 4.89507C19.0791 11.1099 8.7091 13.9851 3.6991 23.5494C2.8591 39.3088 -0.230893 57.0344 16.3591 55.4041C16.3591 55.4041 8.2491 64.6424 10.5991 70.4719C12.9491 76.3014 13.1691 76.0544 15.0091 76.7164C14.5491 77.5957 20.4691 82.5458 16.5191 86.3498Z" fill="white"/>
<path id="path13904-1" d="M17.9092 57.2022L18.9092 62.4289L37.9692 60.7987L45.1692 53.8823C33.2292 58.2495 34.8992 54.1689 27.3892 54.0701C24.1392 55.9473 20.9392 57.2022 17.9092 57.2022Z" fill="#FFFFF2"/>
<path id="abColor_2_2" d="M15.9792 94.511C27.6092 90.6774 31.8292 103.611 30.5692 103.265C38.2092 97.4357 47.6992 102.326 48.9392 104.658C54.7492 99.3426 60.8092 101.635 61.6392 102.682M36.9692 60.9174C33.5692 61.9054 28.7192 62.8935 27.2992 61.6584L26.9692 54.5938M21.7992 62.271C12.6592 68.8613 18.7992 75.5207 45.1392 55.404M15.2392 57.479C3.30916 75.3231 14.6292 80.2041 30.7292 73.7719M25.0192 37.5796C25.6392 45.0098 24.5092 49.8611 28.2592 52.9339C42.5492 59.0796 59.2592 52.6573 63.7392 44.0909M15.8492 32.9556C12.6892 30.9795 8.38916 29.5369 8.14916 26.227L24.8592 37.4413C33.1292 32.8074 43.4592 29.3492 51.5492 23.6086C47.8692 29.1911 43.5492 30.2384 39.2692 31.7798M27.5792 2C24.0492 11.2877 4.10917 16.8207 2.88917 23.7371C1.58917 34.8526 0.559163 51.3432 8.58916 53.7046C18.5892 58.5856 26.7892 53.3291 27.4592 52.598M26.3092 61.9252C24.4092 62.1821 20.0992 62.6563 18.7992 61.6683L18.4792 56.0364M59.6392 41.8875C63.2892 41.3836 64.7892 42.2828 67.7492 45.9583" stroke="#999999" stroke-width="3" stroke-linecap="round" stroke-linejoin="round"/>
</g>
</g>
<g id="layer1_2">
<g id="g298999_2">
<path id="abColor_2_3" d="M16.5191 86.3498C13.1591 89.5906 17.1091 95.6276 18.6991 95.0842C29.5991 94.3234 57.4591 92.5844 62.9091 71.2426C86.2991 7.44424 48.7191 4.75674 26.7691 4.89507C19.0791 11.1099 8.7091 13.9851 3.6991 23.5494C2.8591 39.3088 -0.230893 57.0344 16.3591 55.4041C16.3591 55.4041 8.2491 64.6424 10.5991 70.4719C12.9491 76.3014 13.1691 76.0544 15.0091 76.7164C14.5491 77.5957 20.4691 82.5458 16.5191 86.3498Z" fill="white"/>
<path id="path13904-1_2" d="M17.9092 57.2022L18.9092 62.4289L37.9692 60.7987L45.1692 53.8823C33.2292 58.2495 34.8992 54.1689 27.3892 54.0701C24.1392 55.9473 20.9392 57.2022 17.9092 57.2022Z" fill="#FFFFF2"/>
<path id="Outlines" d="M15.9792 94.511C27.6092 90.6774 31.8292 103.611 30.5692 103.265C38.2092 97.4357 47.6992 102.326 48.9392 104.658C54.7492 99.3426 60.8092 101.635 61.6392 102.682M36.9692 60.9174C33.5692 61.9054 28.7192 62.8935 27.2992 61.6584L26.9692 54.5938M21.7992 62.271C12.6592 68.8613 18.7992 75.5207 45.1392 55.404M15.2392 57.479C3.30916 75.3231 14.6292 80.2041 30.7292 73.7719M25.0192 37.5796C25.6392 45.0098 24.5092 49.8611 28.2592 52.9339C42.5492 59.0796 59.2592 52.6573 63.7392 44.0909M15.8492 32.9556C12.6892 30.9795 8.38916 29.5369 8.14916 26.227L24.8592 37.4413C33.1292 32.8074 43.4592 29.3492 51.5492 23.6086C47.8692 29.1911 43.5492 30.2384 39.2692 31.7798M27.5792 2C24.0492 11.2877 4.10917 16.8207 2.88917 23.7371C1.58917 34.8526 0.559163 51.3432 8.58916 53.7046C18.5892 58.5856 26.7892 53.3291 27.4592 52.598M26.3092 61.9252C24.4092 62.1821 20.0992 62.6563 18.7992 61.6683L18.4792 56.0364M59.6392 41.8875C63.2892 41.3836 64.7892 42.2828 67.7492 45.9583" stroke="black" stroke-width="3" stroke-linecap="round" stroke-linejoin="round"/>
</g>
</g>
</g>
</svg>
