<svg width="66" height="98" viewBox="0 0 66 98" fill="none" xmlns="http://www.w3.org/2000/svg">
<g id="Mouth6">
<g id="layer1">
<g id="g300907">
<path id="abColor_3" d="M54.4697 64.6683C54.4697 65.9824 10.6797 73.3631 9.92969 62.791C9.56969 57.7717 9.45969 56.6848 12.1497 56.1216C13.7877 55.7749 15.396 55.3025 16.9597 54.7087L16.8097 50.9443C-7.5903 49.8179 4.14969 29.8099 4.19969 19.4255C38.9797 -7.75573 40.3997 9.41656 60.8297 17.3308C71.5097 46.9723 63.7697 62.1191 54.4697 64.6683Z" fill="white"/>
<path id="path13904-9" d="M17.3696 52.7524L17.2697 56.7046L40.3297 54.5507L40.0096 52.209C31.3896 51.7149 33.3797 51.8138 25.5197 49.5215C22.5197 51.211 20.1196 52.7919 17.3696 52.7228V52.7524Z" fill="#FFFFF2"/>
<path id="path90947" d="M16.9097 51.991C16.9997 53.1767 16.3897 57.7217 18.3997 57.3067C19.371 57.0176 20.389 56.9137 21.3997 57.0004C23.6197 57.1684 23.2197 56.2792 23.1397 51.2105M48.5097 56.1211C44.4297 53.2261 41.1197 53.7893 38.0497 57.2079L48.5097 56.1211ZM38.0497 57.86C34.8097 55.716 28.7597 55.716 25.5097 59.2729L38.0497 57.86ZM25.5097 57.3956C23.2597 57.0498 16.1397 56.0914 13.8997 59.2235L25.5097 57.3956ZM32.2897 51.4476C32.3797 52.6333 31.2397 56.2298 33.2897 56.0914L38.2897 55.7654C40.8897 55.0342 40.7297 56.0124 40.2897 51.7341L32.2897 51.4476ZM23.3897 50.7461C23.4997 51.8922 22.2197 56.872 24.7697 56.7238L29.0897 56.4669C31.8697 56.625 31.6797 56.2594 31.5797 51.3587L23.3897 50.7461Z" stroke="black" stroke-width="3" stroke-linecap="round" stroke-linejoin="bevel"/>
<path id="abColor_4" d="M15.2697 86.4543C25.7997 82.9862 29.6197 94.6946 28.4797 94.3587C35.3997 89.0825 43.9897 93.509 45.1097 95.6234C50.3797 90.8017 55.8597 92.8766 56.6097 93.8449M20.9997 67.2367C17.4697 67.4541 10.9197 66.4265 9.9097 62.7411C7.9097 55.5876 14.7197 54.2735 16.0097 55.6568M23.3697 34.9078C23.9297 41.6265 22.8997 46.0233 26.2997 48.8096C47.9697 58.7889 58.1297 42.8122 58.2997 34.4138M14.9997 30.7184C12.1397 28.9301 8.2497 27.6259 7.9997 24.6222L23.1297 34.7892C30.6197 30.59 39.9697 27.4678 47.2997 22.2706C43.9597 27.3196 40.0397 28.2681 36.1797 29.6612M26.7897 2.35156C24.0897 10.8191 4.3297 14.8899 3.2397 22.3793C2.0697 32.4475 1.12969 47.377 8.39969 49.5111C17.3997 53.9376 24.8797 49.1752 25.4897 48.5231M55.1797 32.1215C58.4797 31.667 59.8397 32.4772 62.5197 35.8069L55.1797 32.1215Z" stroke="black" stroke-width="3" stroke-linecap="round" stroke-linejoin="round"/>
</g>
</g>
</g>
</svg>
