<svg width="83" height="107" viewBox="0 0 83 107" fill="none" xmlns="http://www.w3.org/2000/svg">
<g id="Mouth5">
<g id="layer1">
<g id="g8786">
<path id="abColor_3" d="M22.3999 53.0206C19.9899 58.0794 26.6399 60.0753 24.8699 68.2958C17.5399 71.5861 12.4299 72.248 33.1899 81.5258C76.6799 91.3372 78.9499 48.9202 75.8399 26.7286C75.7399 11.5028 45.6199 3.84541 27.8399 5.20891C23.3199 5.55473 8.12992 16.0182 5.83992 19.4665C-1.51008 30.7302 3.73993 29.347 3.04993 32.8941C3.19993 46.5983 3.55993 53.1491 22.3299 53.0206H22.3999Z" fill="white"/>
<path id="path13904-6" d="M22.0599 54.1963L21.5399 58.1485C34.0899 62.2884 48.9499 60.9051 59.1099 54.8286L60.5799 48.8213C49.4099 54.5223 36.0099 55.1744 27.5799 52.398C24.3399 54.2259 24.9999 54.2654 22.0599 54.1963Z" fill="#FFFFF2"/>
<path id="path295871" d="M68.4099 43.5645C68.4099 43.5645 62.7299 63.4934 49.0799 67.2183C40.8113 69.4706 32.1833 70.1413 23.6599 69.1944C23.6599 69.1944 25.8399 62.2781 25.6599 60.2328C21.9399 62.2583 56.8099 57.4466 59.7199 54.0279L61.1199 48.1787L68.4099 43.5645Z" fill="#D47575"/>
<path id="path295883" d="M23.9999 59.0379C29.6899 61.5772 48.2899 60.0259 59.1299 54.2854C60.6599 53.4653 60.3999 49.8984 60.6199 48.8906" stroke="black" stroke-width="3" stroke-linecap="round" stroke-linejoin="round"/>
<path id="abColor_4" d="M20.44 94.6272C29.1 91.3567 32.6799 105.041 31.7899 104.636C38.9999 95.9709 52.67 101.84 53.89 104.172C60.12 96.4946 66.27 100.348 67.02 100.97M23.72 68.9181C22.19 67.8708 14.65 73.5719 23.5 78.601C30.03 82.3062 38.15 81.3676 38.16 81.6343M25 36.2236C25.6 43.5253 24.49 48.2877 28.19 51.321C34.28 56.3106 46.1 53.2971 52.77 50.9554C58.71 48.8509 72.5799 42.1321 76.4799 28.9022M16 31.7082C12.89 29.7321 8.65995 28.3489 8.42995 25.0982L24.85 36.1347C32.98 31.5699 43.12 28.2303 51.08 22.5391C47.46 28.0228 43.1999 29.0504 39.0099 30.5621M27.66 2.20508C21.91 13.9629 8.00995 13.5676 3.25995 22.6676C1.98995 33.5855 0.639959 45.0172 9.15996 50.8368C18.97 55.6289 26.75 51.736 27.41 51.0147M21 53.7516C22 53.8504 18.68 59.2353 24.58 59.9071C27.41 62.9405 24.58 67.8807 23.98 69.0268C31.55 72.4751 47.36 70.0149 54.07 65.8058C62.34 60.579 67.07 46.1831 69.72 40.8082M73.02 27.6869C76.6 27.183 78.0799 28.0722 81.0199 31.6391" stroke="black" stroke-width="3" stroke-linecap="round" stroke-linejoin="round"/>
</g>
</g>
</g>
</svg>
