<svg width="72" height="111" viewBox="0 0 72 111" fill="none" xmlns="http://www.w3.org/2000/svg">
<g id="Mouth8">
<g id="layer1">
<g id="g300983">
<path id="abColor_3" d="M16.1096 50.8203C16.1096 50.8203 17.3396 61.7877 18.1996 61.7778C19.0596 61.7679 21.8796 62.0742 21.8796 62.0742C21.8796 62.0742 14.4596 103.711 17.3196 106.2C32.1596 119.134 59.1896 104.165 64.7196 78.4462C67.5496 65.2854 81.2296 39.4479 59.0496 13.4721C54.708 9.34877 49.3614 6.40423 43.5286 4.92408C37.6959 3.44393 31.5749 3.47844 25.7596 5.02426C25.7596 5.02426 6.99961 12.1382 5.10961 20.4576C0.999609 38.5685 -1.68039 50.7018 16.1096 50.8203Z" fill="white"/>
<path id="path13904-2" d="M15.8896 52.3918L16.7396 60.7013C20.8196 60.7013 25.4296 61.6201 27.7396 58.3991C36.4596 63.1121 33.1796 61.2842 41.1496 60.7704L41.4496 51.7199L27.3896 49.6055C23.805 51.3731 19.8653 52.3252 15.8596 52.3918H15.8896Z" fill="#FFFFF2"/>
<path id="path505954" d="M54.3796 47.5303L41.8896 52.016L42.7596 55.4446C50.7496 53.7254 51.5496 50.4055 54.3796 47.5303ZM14.7396 60.1378C14.1896 68.1212 14.7396 85.9357 14.8096 100.055C14.0496 106.793 16.8096 108.799 18.6696 105.074C22.0496 98.3555 15.7896 100.697 23.0496 91.123C26.9296 86.0148 12.3496 83.2976 27.7196 72.4785C22.9896 71.8363 22.5796 70.7297 20.4096 65.5622C20.4096 65.5622 15.8896 60.1773 14.7396 60.1575V60.1378Z" fill="#CCCCCC"/>
<path id="abColor_4" d="M15.9996 88.3563C27.1396 84.6709 31.1896 97.0709 29.9996 96.735C37.3296 91.1525 46.4196 95.8358 47.6096 98.0787C53.1796 92.9705 58.9796 95.1738 59.7696 96.1915M58.6396 41.0189C54.9896 53.2509 46.2596 55.5234 43.4696 55.6815M20.2396 64.3269C20.1596 69.939 23.0896 72.2313 32.8596 71.6879M24.5296 33.5492C25.1196 40.673 24.0296 45.3169 27.6296 48.2711C48.6296 57.6971 60.6296 41.582 61.4696 33.0354M15.7396 29.0832C12.7396 27.1961 8.58963 25.8029 8.35963 22.6313L24.3596 33.3911C32.2896 28.9449 42.1796 25.6349 49.9396 20.1414C46.4096 25.4768 42.2496 26.4945 38.1696 27.9667M25.8596 1.93164C20.4096 11.5651 6.57964 13.314 3.31964 20.2402C2.07964 30.8914 1.08963 46.6903 8.77963 48.9529C18.3496 53.6362 26.2196 48.5972 26.8596 47.8858M29.3596 51.1661C29.3596 51.1661 28.4996 61.679 30.9496 61.7086L38.1696 61.7877C42.6496 61.9062 41.5696 56.63 41.5496 51.1464L29.3596 51.1661ZM16.2596 52.0653C16.3496 53.3201 15.2596 61.7679 18.5996 61.8667L23.0196 61.9951C27.4596 61.6296 26.5296 56.0668 26.4496 50.7413L16.2596 52.0653ZM58.2196 30.5851C61.7196 30.1009 63.1596 30.9704 65.9896 34.4879L58.2196 30.5851Z" stroke="black" stroke-width="3" stroke-linecap="round" stroke-linejoin="round"/>
</g>
</g>
</g>
</svg>
