<svg width="85" height="180" viewBox="0 0 85 180" fill="none" xmlns="http://www.w3.org/2000/svg">
<path d="M22.642 83.7139C17.9109 85.2923 14.4415 92.5528 15.7031 96.0252C16.9647 99.4977 20.4341 101.392 22.3266 101.076C19.4879 104.548 12.2336 112.125 15.0723 117.807C13.1746 118.549 11.5619 119.875 10.4674 121.595C9.50032 123.513 9.12693 125.676 9.39502 127.808C9.97536 133.161 31.9905 153.668 63.8463 179.162C69.738 178.732 78.3548 168.631 71.4159 162.115C78.7838 161.269 75.2008 156.433 72.6776 154.324C79.2001 153.693 81.307 141.066 73.7373 139.172C80.6762 135.598 85.5082 120.648 75.2008 117.075C79.2001 114.132 80.0454 102.339 75.8316 99.182C80.4617 97.0859 79.2001 86.3529 72.892 83.3982C66.584 80.4435 22.642 83.7139 22.642 83.7139Z" fill="url(#paint0_radial_21_1838)"/>
<path d="M73.7384 139.172C80.6772 135.598 85.5092 120.648 75.2018 117.075C79.2012 114.132 80.0464 102.339 75.8327 99.182C80.4628 97.0859 79.2012 86.3529 72.8931 83.3982C70.4972 82.6667 68.0049 82.3006 65.5 82.3123C69.6381 89.4971 72.5146 98.3234 62.9768 103.601C64.4063 104.836 65.5115 106.402 66.1955 108.163C66.8796 109.924 67.1216 111.827 66.9004 113.703C69.4237 116.734 69.0199 121.393 67.0014 124.423C66.2843 126.633 64.7977 128.51 62.8128 129.714C65.5505 133.06 65.5 137.025 60.2896 140.902C65.336 146.268 58.927 158.163 50.4111 153.743C54.8857 162.229 59.3686 170.718 63.8599 179.212C69.7517 178.783 78.3685 168.681 71.4296 162.166C78.7974 161.32 75.2145 156.484 72.6912 154.375C79.2012 153.693 81.3081 141.066 73.7384 139.172Z" fill="#56CDF5"/>
<path d="M56.744 82.1733C41.8948 82.287 22.6804 83.7138 22.6804 83.7138C19.8165 84.6735 17.4321 87.6914 16.2588 90.7092C30.0104 97.8561 46.5123 92.9442 56.744 82.1733Z" fill="#56CDF5"/>
<path d="M38.8786 151.799C36.3554 151.799 33.2518 151.408 32.1037 149.64C31.79 149.143 31.644 148.559 31.6874 147.973C29.7193 149.046 27.0194 150.195 25.0387 148.617C24.5273 148.117 24.1279 147.514 23.8669 146.848C23.6059 146.182 23.4893 145.468 23.5247 144.753C23.4936 143.838 23.6173 142.924 23.8906 142.051C23.133 142.405 22.2994 142.564 21.4648 142.516C20.6302 142.467 19.8207 142.212 19.1091 141.773C18.237 141.08 17.5738 140.158 17.193 139.111C16.8122 138.063 16.7287 136.93 16.9517 135.838C17.0714 134.621 17.5314 133.463 18.2789 132.496C19.0265 131.529 20.0313 130.792 21.1781 130.371C21.3454 130.319 21.5265 130.336 21.6815 130.417C21.8364 130.499 21.9526 130.639 22.0045 130.806C22.0564 130.974 22.0396 131.155 21.958 131.31C21.8764 131.465 21.7365 131.582 21.5692 131.634C20.6492 131.982 19.8455 132.582 19.2499 133.366C18.6543 134.15 18.2908 135.085 18.2007 136.066C18.015 136.922 18.066 137.813 18.3483 138.643C18.6306 139.473 19.1335 140.21 19.803 140.776C21.0646 141.634 22.9318 141.407 25.127 140.119C25.2613 140.038 25.4211 140.01 25.575 140.04C25.729 140.07 25.8661 140.157 25.9597 140.283C26.0502 140.411 26.0912 140.567 26.0749 140.723C26.0587 140.878 25.9863 141.023 25.8713 141.129C25.0562 142.162 24.6679 143.468 24.7864 144.778C24.7553 145.309 24.8308 145.841 25.0085 146.342C25.1862 146.843 25.4624 147.303 25.8209 147.695C27.4736 148.958 30.1987 147.443 32.0028 146.432L32.3813 146.23C32.4958 146.165 32.628 146.137 32.7593 146.15C32.8906 146.164 33.0143 146.219 33.113 146.306C33.2113 146.397 33.2787 146.517 33.3058 146.648C33.333 146.779 33.3185 146.916 33.2644 147.039C33.074 147.338 32.9647 147.681 32.947 148.035C32.9293 148.39 33.0039 148.742 33.1635 149.059C33.8195 150.069 36.0147 150.688 39.0426 150.637C39.2099 150.637 39.3703 150.704 39.4886 150.822C39.6069 150.941 39.6734 151.101 39.6734 151.269C39.6734 151.436 39.6069 151.597 39.4886 151.715C39.3703 151.833 39.2099 151.9 39.0426 151.9L38.8786 151.799Z" fill="#6CD4FE"/>
<path d="M37.3643 121.696C36.8192 121.684 36.2996 121.463 35.9135 121.077C35.4134 120.573 35.0864 119.923 34.9799 119.221C34.3848 119.6 33.7032 119.822 32.9992 119.865C32.5902 119.88 32.1824 119.812 31.8007 119.664C31.419 119.517 31.0712 119.293 30.7787 119.006C30.2652 118.477 29.94 117.794 29.8533 117.061C29.7667 116.328 29.9234 115.588 30.2993 114.953C29.7512 115.197 29.1581 115.323 28.5583 115.323C27.9585 115.323 27.3654 115.197 26.8173 114.953C26.2149 114.658 25.7053 114.203 25.3448 113.637C24.9842 113.071 24.7865 112.417 24.7734 111.746C24.8022 110.834 25.0843 109.948 25.5879 109.188C26.0915 108.427 26.7968 107.822 27.6247 107.44C27.6976 107.4 27.7776 107.375 27.8602 107.366C27.9427 107.358 28.0262 107.365 28.1059 107.389C28.1856 107.412 28.2598 107.451 28.3245 107.503C28.3891 107.555 28.4428 107.62 28.4826 107.693C28.5223 107.766 28.5474 107.846 28.5562 107.928C28.565 108.011 28.5575 108.095 28.5341 108.174C28.5107 108.254 28.4718 108.328 28.4196 108.393C28.3675 108.458 28.3032 108.511 28.2303 108.551C27.5996 108.821 27.0585 109.264 26.6699 109.83C26.2813 110.396 26.0611 111.06 26.0351 111.746C26.033 112.184 26.1492 112.615 26.3712 112.993C26.5932 113.37 26.9129 113.681 27.2967 113.892C27.9732 114.115 28.6977 114.148 29.3916 113.988C30.0855 113.828 30.7224 113.48 31.2329 112.983C31.344 112.9 31.479 112.855 31.6177 112.855C31.7564 112.855 31.8913 112.9 32.0025 112.983C32.1127 113.066 32.1924 113.182 32.2289 113.315C32.2655 113.448 32.2568 113.589 32.2043 113.716C32.0782 114.006 31.9394 114.297 31.8006 114.6C31.0437 116.203 30.6526 117.239 31.5862 118.148C31.7523 118.312 31.9495 118.441 32.1661 118.528C32.3827 118.614 32.6145 118.657 32.8478 118.653C33.7638 118.552 34.6051 118.099 35.1944 117.39C35.2977 117.279 35.4374 117.209 35.588 117.193C35.7385 117.177 35.8899 117.216 36.0144 117.302C36.1415 117.385 36.2336 117.512 36.2732 117.659C36.3128 117.805 36.297 117.961 36.2289 118.097C36.1012 118.458 36.076 118.848 36.1562 119.222C36.2364 119.597 36.4188 119.942 36.6831 120.219C36.7943 120.355 36.9505 120.448 37.1238 120.481C37.2971 120.513 37.4762 120.483 37.6293 120.395C37.7736 120.341 37.933 120.341 38.0773 120.395C38.2216 120.45 38.3408 120.556 38.4123 120.693C38.4839 120.83 38.5027 120.988 38.4654 121.138C38.428 121.288 38.337 121.419 38.2096 121.507C37.9451 121.631 37.6566 121.696 37.3643 121.696Z" fill="#6CD4FE"/>
<path d="M48.7438 114.903C47.7775 114.855 46.8583 114.471 46.1449 113.817C46.0722 113.768 46.0102 113.705 45.9631 113.632C45.9159 113.558 45.8846 113.476 45.871 113.389C45.8574 113.303 45.8618 113.215 45.8841 113.13C45.9064 113.046 45.9459 112.967 46.0003 112.898C46.0546 112.83 46.1226 112.773 46.1999 112.733C46.2771 112.692 46.362 112.667 46.4491 112.661C46.5363 112.655 46.6237 112.667 46.706 112.696C46.7883 112.726 46.8636 112.772 46.9271 112.832C47.6588 113.425 48.7186 114.006 49.6017 113.362C50.1164 112.823 50.4603 112.143 50.5905 111.408C50.7207 110.674 50.6313 109.917 50.3335 109.233C50.2818 109.091 50.2826 108.936 50.3359 108.794C50.3891 108.653 50.4912 108.535 50.6236 108.463C50.7588 108.389 50.9159 108.367 51.0664 108.399C51.2168 108.432 51.3507 108.517 51.4437 108.64C51.7491 108.974 52.1282 109.232 52.5509 109.395C52.9735 109.557 53.4281 109.618 53.8786 109.574C54.4144 109.591 54.947 109.486 55.4365 109.268C55.926 109.049 56.3596 108.722 56.7046 108.311C57.8905 106.594 56.2 103.134 55.2916 101.278L55.115 100.925C55.0414 100.774 55.0306 100.6 55.085 100.441C55.1394 100.283 55.2546 100.152 55.4051 100.079C55.5557 100.005 55.7294 99.9941 55.8879 100.049C56.0464 100.103 56.1768 100.218 56.2504 100.369L56.4144 100.723C57.512 102.958 59.3414 106.695 57.7517 109.031C57.2968 109.594 56.7191 110.044 56.063 110.349C55.4069 110.653 54.6898 110.803 53.9669 110.786C53.2638 110.828 52.5596 110.725 51.8979 110.483C51.9798 111.21 51.8823 111.946 51.614 112.626C51.3456 113.306 50.9146 113.91 50.3587 114.385C49.8912 114.729 49.3241 114.911 48.7438 114.903Z" fill="#6CD4FE"/>
<path d="M23.0588 42.3603C20.4599 45.1256 17.3815 56.6793 17.3815 56.6793C17.3815 56.6793 2.45666 56.6793 2.45666 59.2047C2.47312 60.6181 2.32922 62.0287 2.02772 63.4096C2.02772 63.4096 -1.07586 65.4299 1.66185 72.2485C4.39955 79.0671 14.8583 89.3455 45.1371 89.1308C75.4158 88.9162 71.4165 65.3541 67.6316 57.5632C63.8468 49.7723 33.3662 31.4252 23.0588 42.3603Z" fill="url(#paint1_radial_21_1838)"/>
<g style="mix-blend-mode:color-dodge" opacity="0.2">
<g style="mix-blend-mode:color-dodge" opacity="0.2">
<path d="M32.9736 67.0714C30.7658 62.7277 34.3993 53.9646 40.5433 54.9116C46.6874 55.8586 47.8859 66.6674 44.8076 69.117C41.7292 71.5667 35.4969 72.0086 32.9736 67.0714Z" fill="#FBB8A4"/>
</g>
</g>
<g style="mix-blend-mode:multiply" opacity="0.4">
<path d="M33.5181 48.5223C35.0951 56.1743 54.7889 55.3914 59.6209 49.6714C48.8341 41.9689 30.6038 34.38 23.0341 42.3603C21.7725 43.6861 20.4352 47.0197 19.3628 50.1386C23.5766 53.8762 28.7618 52.3988 33.5181 48.5223Z" fill="#F78875"/>
</g>
<path d="M25.998 83.7139C25.0518 83.2088 28.597 76.1376 30.4137 76.769C33.1514 77.8297 34.413 80.2414 32.6215 82.7668C30.83 85.2922 27.5751 84.5599 25.998 83.7139Z" fill="#C63B72"/>
<path d="M37.669 74.6729C35.4612 71.6172 44.5069 66.7053 47.56 70.2535C50.815 74.0416 40.2427 78.2211 37.669 74.6729Z" fill="#FB889A"/>
<path d="M8.13387 64.142C7.59915 64.3036 7.10174 64.5697 6.6704 64.9249C5.84551 64.6137 5.08126 64.1608 4.41211 63.5864C3.96068 63.1288 3.60849 62.5829 3.37759 61.9828C3.14439 61.5478 2.93384 61.101 2.74678 60.6443C2.74678 60.5685 2.59539 60.5559 2.58278 60.6443C2.57016 60.7327 2.22952 61.2883 2.25475 61.5661C2.2825 61.8967 2.32884 62.2255 2.39353 62.551C2.54917 63.2488 2.83139 63.9122 3.22619 64.5082C3.78045 65.4098 4.594 66.1229 5.56017 66.5537C5.37107 67.1881 5.32391 67.8565 5.42203 68.5112C5.52015 69.1659 5.76116 69.7909 6.12791 70.3419C6.50933 68.7675 7.39561 67.3615 8.65113 66.3391C10.6571 64.8744 16.3344 65.19 16.3344 65.19C16.3344 65.19 11.8052 62.9929 8.13387 64.142Z" fill="#EC916E"/>
<path d="M35.0183 59.9751L35.1571 60.7453C35.1571 60.8968 35.2328 60.9347 35.2706 61.0231L35.3968 61.2883C35.5065 61.4684 35.6333 61.6375 35.7753 61.7934C35.8507 61.8746 35.9354 61.9466 36.0276 62.008L36.3051 62.2101C36.4027 62.275 36.5089 62.326 36.6206 62.3616L36.936 62.5131C37.163 62.5889 37.4028 62.6394 37.6298 62.7025L38.3616 62.7909H39.1059L39.0302 63.1571C38.3137 62.7537 37.6697 62.233 37.1252 61.6166C36.999 61.4524 36.8476 61.2883 36.7341 61.1115C36.6206 60.9347 36.507 60.7327 36.4187 60.5307C36.3304 60.3286 36.2547 60.1013 36.1916 59.874L36.0907 59.1543C36.0967 59.0013 36.157 58.8554 36.2608 58.7429C36.3646 58.6303 36.505 58.5585 36.6569 58.5402C36.8089 58.522 36.9623 58.5585 37.0898 58.6433C37.2172 58.7281 37.3103 58.8555 37.3523 59.0028V59.1164V59.6973C37.3523 59.8488 37.3523 60.0129 37.428 60.1771C37.5037 60.3413 37.5415 60.4928 37.592 60.6569C37.6566 60.8241 37.7369 60.9847 37.8317 61.1368C38.2124 61.7779 38.7036 62.3465 39.2826 62.8162C39.3155 62.8549 39.3335 62.9042 39.3335 62.955C39.3335 63.0059 39.3155 63.0552 39.2826 63.0939C39.2676 63.1182 39.2473 63.1387 39.2233 63.154C39.1992 63.1693 39.1721 63.179 39.1438 63.1823C38.8788 63.1823 38.6139 63.2834 38.3363 63.3086H37.5289L36.7593 63.2202L36.3556 63.1066C36.2171 63.0672 36.0821 63.0166 35.9519 62.955L35.4977 62.753C35.3601 62.6928 35.2325 62.6119 35.1192 62.5131C34.8804 62.329 34.6644 62.1171 34.4758 61.8817L34.2361 61.4524C34.143 61.3304 34.0705 61.1939 34.0216 61.0484L33.7693 60.3034C33.7158 60.1359 33.7309 59.9541 33.8113 59.7978C33.8918 59.6415 34.031 59.5236 34.1983 59.47C34.3656 59.4164 34.5473 59.4315 34.7034 59.512C34.8596 59.5926 34.9774 59.7319 35.0309 59.8993L35.0183 59.9751Z" fill="#DC7069"/>
<path d="M41.566 60.3539C41.462 60.3529 41.3597 60.3272 41.2676 60.2789C41.1755 60.2306 41.0961 60.1611 41.0361 60.0761C40.8469 59.7857 39.7745 59.7604 39.5727 59.9246C39.5215 59.9882 39.4579 60.0408 39.3859 60.0792C39.3139 60.1176 39.2348 60.1411 39.1535 60.1481C39.0722 60.1552 38.9903 60.1458 38.9128 60.1204C38.8352 60.095 38.7636 60.0541 38.7021 60.0003C38.5743 59.8881 38.4949 59.7307 38.4808 59.5611C38.4667 59.3915 38.5189 59.223 38.6265 59.0912C38.8568 58.8914 39.1258 58.7412 39.4166 58.6499C39.7074 58.5587 40.0139 58.5284 40.317 58.5608C40.6552 58.5485 40.9916 58.6164 41.2986 58.759C41.6056 58.9017 41.8745 59.115 42.0833 59.3816C42.1302 59.45 42.1628 59.5271 42.1793 59.6084C42.1958 59.6896 42.1959 59.7734 42.1794 59.8547C42.1629 59.936 42.1303 60.0131 42.0834 60.0815C42.0366 60.1499 41.9765 60.2082 41.9066 60.2529C41.8068 60.3221 41.6874 60.3575 41.566 60.3539Z" fill="#F58570"/>
<path d="M26.6655 81.4411C27.2444 81.6401 27.8757 81.6217 28.4421 81.3894C29.0084 81.1571 29.471 80.7267 29.7439 80.1784C30.3239 79.2695 30.598 78.1987 30.5261 77.1226C29.1888 76.9332 27.4099 79.4207 26.6655 81.4411Z" fill="#FBF5E9"/>
<path d="M32.6204 82.7668C33.2127 82.0856 33.512 81.1975 33.4529 80.2964C33.3938 79.3952 32.9812 78.5539 32.3049 77.9559C31.0433 79.5091 28.722 82.7921 29.706 84.3957C30.2808 84.352 30.8391 84.1836 31.3423 83.9024C31.8456 83.6211 32.2817 83.2336 32.6204 82.7668Z" fill="#E9408F"/>
<g style="mix-blend-mode:color-dodge" opacity="0.3">
<path d="M4.97965 67.1977C5.08058 57.5128 13.8109 61.9322 18.8574 59.4068C22.3395 58.2451 20.4723 52.8029 20.119 48.0425C18.5672 52.121 17.3435 56.7173 17.3435 56.7173C17.3435 56.7173 2.41857 56.7173 2.41857 59.2427C2.43503 60.656 2.29113 62.0666 1.98963 63.4475C1.98963 63.4475 -1.11394 65.4678 1.62376 72.2864C3.1548 75.691 5.60627 78.5994 8.70141 80.6834C7.23794 76.3902 4.29838 71.9329 4.97965 67.1977Z" fill="#F7ED57"/>
</g>
<path d="M36.8743 49.8733C36.3269 49.7415 35.7516 49.7902 35.2342 50.0122C34.7835 50.1275 34.3841 50.3896 34.0987 50.7572C34.0001 50.8298 33.9073 50.9101 33.8212 50.9972C32.5596 52.2599 34.5025 54.1539 35.7388 52.9165C35.8524 52.8407 35.8902 52.8154 35.8902 52.7902C36.0187 52.7632 36.1421 52.7164 36.2561 52.6513C36.5803 52.5771 36.8939 52.4625 37.1897 52.3104C37.4091 52.1733 37.5847 51.9761 37.6953 51.7421C37.806 51.5081 37.8472 51.2472 37.8139 50.9905C37.7807 50.7337 37.6745 50.492 37.5079 50.2939C37.3413 50.0959 37.1214 49.9499 36.8743 49.8733Z" fill="#EE6249"/>
<path d="M39.99 67.9301C41.7319 67.9301 43.144 66.5168 43.144 64.7733C43.144 63.0299 41.7319 61.6166 39.99 61.6166C38.248 61.6166 36.8359 63.0299 36.8359 64.7733C36.8359 66.5168 38.248 67.9301 39.99 67.9301Z" fill="#C6436D"/>
<g style="mix-blend-mode:color-dodge" opacity="0.3">
<path d="M22.2512 58.283C21.5817 57.7761 20.8146 57.4134 19.9982 57.2179C19.1818 57.0223 18.3337 56.998 17.5075 57.1465C15.9052 57.5632 15.6908 60.3412 17.5075 60.5937C18.9727 60.6801 20.4096 61.0353 21.7465 61.6418C22.1755 61.8564 24.0553 62.6014 24.2697 61.6418C24.5095 60.2654 23.2605 59.028 22.2512 58.283Z" fill="#F7D157"/>
</g>
<path d="M47.3445 35.4154C44.8213 32.89 36.0909 25.6799 43.3452 14.3787C48.2655 6.71411 55.0782 11.9417 51.8611 20.4776C47.9249 30.9454 51.7602 34.1527 51.7602 34.1527L47.3445 35.4154Z" fill="#FBD094"/>
<path d="M25.166 27.8391C21.3812 28.5589 14.3288 34.2663 16.1203 40.9965C17.9118 47.7267 22.6428 47.8404 25.4814 47.9414C28.6188 47.7166 31.6403 46.6621 34.237 44.8856C35.2968 48.7874 42.5006 53.5225 46.8532 48.3581C47.5975 52.5755 50.0072 56.4646 53.7921 56.25C50.0072 59.9371 52.4547 68.5614 56.4793 72.2737C51.7356 74.8749 32.7357 85.9235 45.5916 96.4545C58.4474 106.985 69.1459 93.2977 73.5615 87.6156C76.2992 88.8783 95.2234 68.2457 76.7156 57.3107C80.5004 55.4166 81.762 48.4717 73.5615 50.9971C76.7156 46.5777 74.4068 35.8447 64.9447 32.8899C64.6293 27.2078 53.5902 22.9019 46.8027 28.7862C42.3871 26.8921 34.8678 25.9451 33.1899 30.3645C30.8433 29.1018 30.6288 26.7911 25.166 27.8391Z" fill="url(#paint2_radial_21_1838)"/>
<g style="mix-blend-mode:hard-light" opacity="0.2">
<path d="M26.4777 34.6073C26.8436 34.077 28.3575 32.3471 28.0169 31.6526C27.6983 31.0669 27.2191 30.5845 26.6357 30.2623C26.0523 29.9402 25.389 29.7917 24.724 29.8343C23.849 29.9212 23.0039 30.2005 22.2493 30.6524C21.4946 31.1042 20.8491 31.7174 20.3589 32.4481C17.7095 35.7059 17.4824 39.2415 20.0687 42.5497C21.242 44.065 23.8535 43.8124 25.0395 42.5497C25.6622 41.8889 26.0091 41.0148 26.0091 40.1064C26.0091 39.198 25.6622 38.3239 25.0395 37.6631C25.0106 37.4663 25.0106 37.2664 25.0395 37.0696C25.353 36.1624 25.8417 35.3258 26.4777 34.6073Z" fill="#FBFBB7"/>
</g>
<g style="mix-blend-mode:hard-light" opacity="0.2">
<path d="M37.3402 34.3548C37.5294 33.5846 37.8196 31.4885 38.6018 31.0465C38.6498 31.0151 38.688 30.9706 38.7117 30.9183C38.7355 30.8659 38.7439 30.8079 38.7359 30.751C38.728 30.6941 38.704 30.6406 38.6669 30.5968C38.6297 30.553 38.5809 30.5206 38.5261 30.5036C36.8194 30.3382 35.1139 30.8304 33.7572 31.8799C33.109 32.3653 32.5654 32.9766 32.1588 33.6773C31.7522 34.3779 31.491 35.1534 31.3909 35.9574C31.2908 36.7615 31.3538 37.5774 31.5761 38.3565C31.7984 39.1356 32.1755 39.8617 32.6848 40.4915C32.9284 40.8718 33.2483 41.1972 33.6242 41.4471C34.0002 41.697 34.4239 41.8659 34.8686 41.9431C35.3132 42.0203 35.7691 42.0041 36.2071 41.8956C36.6452 41.7871 37.0559 41.5885 37.4132 41.3126C37.7706 41.0367 38.0666 40.6895 38.2827 40.2929C38.4987 39.8964 38.63 39.4592 38.6683 39.0091C38.7065 38.559 38.6508 38.1059 38.5047 37.6786C38.3586 37.2512 38.1252 36.8589 37.8196 36.5267C37.5997 36.2146 37.4442 35.8618 37.3618 35.4889C37.2795 35.1161 37.2722 34.7305 37.3402 34.3548Z" fill="#FBFBB7"/>
</g>
<g style="mix-blend-mode:hard-light" opacity="0.2">
<path d="M67.0385 67.0968C66.3825 65.8341 64.8055 65.3164 64.263 63.9905C63.3042 61.6545 63.8088 59.0786 63.7457 56.6542C63.7457 56.1491 64.0611 54.0151 63.6069 53.7121C60.6548 51.7044 56.0373 57.5002 55.2046 59.7731C54.1603 62.5214 54.129 65.5523 55.1163 68.3216C56.176 71.2637 59.1534 74.8877 62.5724 74.8877C65.0956 74.8877 68.0604 73.2209 68.0604 70.3672C67.9954 69.2092 67.6443 68.0855 67.0385 67.0968Z" fill="#FBFBB7"/>
</g>
<g style="mix-blend-mode:multiply" opacity="0.3">
<path d="M33.9964 42.9917C29.4419 42.9917 24.8875 48.1057 19.4121 46.3379C21.2232 47.4816 23.3414 48.0414 25.4805 47.9415C28.6178 47.7167 31.6393 46.6622 34.2361 44.8858C35.2958 48.7875 42.4996 53.5227 46.8522 48.3582C47.1851 50.9246 48.3927 53.2974 50.2712 55.0758C47.9624 51.5655 48.9086 48.3582 47.9624 42.9917C42.6132 51.1361 37.7812 44.2544 33.9964 42.9917Z" fill="#F6AD9A"/>
</g>
<path d="M76.6763 57.3107C80.4612 55.4166 81.7228 48.4718 73.5223 50.9972C76.6763 46.5777 74.3676 35.8447 64.9055 32.89C64.8079 32.0394 64.5329 31.2188 64.0982 30.4814C63.6636 29.744 63.0789 29.1062 62.3822 28.6094C61.9507 28.7587 61.5293 28.9359 61.1206 29.1397C60.919 28.4809 60.6214 27.8555 60.2375 27.2836C58.0862 26.206 55.6694 25.7745 53.2785 26.0411C50.8877 26.3077 48.625 27.2611 46.7635 28.7862C45.7337 28.3547 44.6704 28.0084 43.5842 27.7508C43.25 28.2053 43.0059 28.7196 42.8651 29.266C42.5623 30.5287 42.4235 33.0541 44.2907 33.2057C46.1579 33.3572 47.7854 31.0843 49.5769 30.5161C50.6868 30.183 51.8373 30.0046 52.9958 29.9858C54.4467 29.9858 55.3677 32.0692 56.3013 32.9279C56.7622 33.3841 57.3603 33.6757 58.0033 33.7579C58.6463 33.84 59.2984 33.7081 59.859 33.3824C60.267 34.253 60.9147 34.989 61.7262 35.5038C64.145 36.6906 66.2273 38.4664 67.7819 40.6682C68.8158 42.031 69.5494 43.5977 69.9343 45.2648C70.3192 46.932 70.3467 48.662 70.015 50.3406C69.5608 52.3483 68.5011 53.8383 68.7534 55.9343C68.7561 55.9795 68.7685 56.0236 68.7897 56.0636C68.8109 56.1036 68.8404 56.1386 68.8763 56.1661C68.9122 56.1937 68.9536 56.2132 68.9977 56.2233C69.0418 56.2334 69.0876 56.2339 69.1319 56.2248C70.1823 56.0555 71.1778 55.6401 72.0372 55.0125C72.8967 54.3849 73.5958 53.5629 74.0774 52.6134C74.2373 53.0053 74.271 53.4374 74.1737 53.8494C74.0765 54.2614 73.8531 54.6327 73.5349 54.9116C73.1952 55.2635 72.9391 55.6875 72.7856 56.152C72.6321 56.6166 72.5851 57.1098 72.6481 57.595C72.7111 58.0803 72.8826 58.5451 73.1497 58.9549C73.4168 59.3647 73.7727 59.7091 74.191 59.9624C81.0415 63.6747 82.6059 71.7813 79.0482 78.6378C76.6763 83.2214 65.0569 88.0954 68.2488 79.2944C68.2488 79.206 68.2488 79.1176 68.11 79.1176C64.7288 78.8146 62.5841 83.8022 64.1737 86.6938C65.612 89.2193 72.8915 88.5121 73.5728 87.6282C76.26 88.8783 95.1842 68.2457 76.6763 57.3107Z" fill="#56CDF5"/>
<path d="M24.2698 42.8275C24.0431 42.8468 23.8152 42.8468 23.5885 42.8275C21.2798 42.4739 18.7313 40.3021 18.7565 37.6504C18.7565 33.8623 22.9072 31.5389 24.6861 30.6929C24.8328 30.6443 24.9923 30.6512 25.1342 30.7125C25.2761 30.7738 25.3907 30.8851 25.456 31.0253C25.5214 31.1654 25.533 31.3248 25.4888 31.473C25.4446 31.6212 25.3475 31.748 25.216 31.8293C23.9544 32.4102 20.0308 34.5315 20.0181 37.663C20.1439 38.6363 20.5802 39.543 21.2621 40.2483C21.944 40.9535 22.8352 41.4197 23.803 41.5774C25.4809 41.8299 27.7645 40.7188 28.1051 38.9636C28.2817 38.0166 28.1051 37.2968 27.5374 37.0443C26.9696 36.7918 26.2757 36.9306 25.4557 37.7767C25.4051 37.8509 25.3394 37.9134 25.2627 37.9602C25.1861 38.0069 25.1004 38.0368 25.0113 38.0477C24.9222 38.0586 24.8318 38.0504 24.7462 38.0236C24.6605 37.9968 24.5816 37.952 24.5146 37.8922C24.4476 37.8324 24.3942 37.759 24.3578 37.6769C24.3214 37.5948 24.303 37.5059 24.3037 37.416C24.3044 37.3262 24.3242 37.2376 24.3619 37.1561C24.3996 37.0745 24.4542 37.002 24.5221 36.9433C24.9231 36.4048 25.489 36.0122 26.1335 35.8253C26.778 35.6384 27.4659 35.6674 28.0925 35.9079C28.6449 36.2327 29.0706 36.7358 29.2999 37.3346C29.5291 37.9334 29.5482 38.5924 29.3541 39.2035C29.0356 40.2908 28.361 41.2393 27.4389 41.8966C26.5167 42.5539 25.4006 42.8817 24.2698 42.8275Z" fill="#6CD4FE"/>
<path d="M37.416 40.5168C36.7821 40.505 36.1572 40.3633 35.5801 40.1005C35.0029 39.8378 34.4856 39.4595 34.0601 38.9889C33.5979 38.5086 33.258 37.9239 33.0691 37.2844C32.8803 36.6448 32.848 35.9691 32.9752 35.3145C33.3025 34.0729 33.8859 32.9135 34.6876 31.911C35.4893 30.9085 36.4918 30.085 37.6305 29.4934C37.7039 29.4546 37.7844 29.431 37.8672 29.424C37.9499 29.417 38.0332 29.4267 38.1121 29.4526C38.191 29.4786 38.2638 29.5201 38.3263 29.5749C38.3888 29.6296 38.4397 29.6964 38.4758 29.7712C38.5473 29.9208 38.5584 30.0923 38.5067 30.2499C38.4549 30.4075 38.3445 30.5391 38.1982 30.6172C37.2375 31.1214 36.3904 31.8175 35.709 32.6623C35.0276 33.5072 34.5266 34.4828 34.2368 35.5291C34.1512 35.979 34.1741 36.4428 34.3036 36.882C34.433 37.3212 34.6653 37.7232 34.9811 38.0545C35.3589 38.4892 35.8455 38.8154 36.391 38.9996C36.9364 39.1838 37.521 39.2193 38.0847 39.1026C38.2718 39.0807 38.4516 39.0172 38.611 38.9167C38.7704 38.8162 38.9052 38.6812 39.0057 38.5217C39.0057 38.2818 38.8543 37.9788 38.7155 37.8146C38.6617 37.7516 38.6207 37.6786 38.5951 37.5997C38.5694 37.5209 38.5595 37.4378 38.566 37.3551C38.5724 37.2725 38.5951 37.1919 38.6326 37.118C38.6702 37.0441 38.7219 36.9783 38.7849 36.9244C38.8478 36.8705 38.9208 36.8296 38.9996 36.8039C39.0783 36.7782 39.1614 36.7683 39.244 36.7748C39.3266 36.7812 39.4071 36.8039 39.4809 36.8415C39.5548 36.8791 39.6205 36.9308 39.6743 36.9938C39.9262 37.2343 40.1084 37.5385 40.2017 37.8741C40.295 38.2098 40.2959 38.5644 40.2042 38.9005C40.0521 39.274 39.806 39.6017 39.4899 39.8517C39.1737 40.1018 38.7983 40.2657 38.4001 40.3274C38.0819 40.4339 37.751 40.4976 37.416 40.5168Z" fill="#6CD4FE"/>
<path d="M65.2095 72.501C64.8627 72.503 64.5164 72.4734 64.175 72.4127C62.4644 72.1341 60.8598 71.4013 59.5284 70.2909C58.197 69.1804 57.1875 67.7329 56.6053 66.0991C55.9797 64.4129 55.8088 62.5914 56.1101 60.8181C56.4113 59.0448 57.1738 57.3821 58.3211 55.9975C58.427 55.8693 58.5791 55.7881 58.7445 55.7716C58.9098 55.755 59.075 55.8044 59.2042 55.9091C59.3304 56.0191 59.4098 56.1732 59.4262 56.3398C59.4426 56.5065 59.3948 56.6731 59.2925 56.8056C58.2857 58.0155 57.6165 59.4705 57.3528 61.0228C57.0891 62.5751 57.2404 64.1696 57.7912 65.6446C58.3059 67.0689 59.1932 68.3289 60.3605 69.2928C61.5278 70.2568 62.9323 70.8895 64.4273 71.1247C65.1634 71.2487 65.9174 71.2149 66.6394 71.0255C67.3615 70.8362 68.0351 70.4955 68.6158 70.0261C69.0229 69.6754 69.3471 69.2386 69.5653 68.7474C69.7834 68.2561 69.8901 67.7225 69.8774 67.1851C69.828 66.5756 69.6397 65.9855 69.3269 65.4602C69.0142 64.9349 68.5854 64.4882 68.0733 64.1546C67.6431 63.8101 67.1389 63.5704 66.6003 63.4543C66.0617 63.3381 65.5035 63.3488 64.9698 63.4853C64.4123 63.6542 63.9333 64.0166 63.6188 64.5072C63.3043 64.9979 63.175 65.5847 63.254 66.1623C63.4054 66.9452 64.0109 67.3366 64.995 67.2987C65.1606 67.2982 65.3202 67.3604 65.4419 67.4728C65.5636 67.5853 65.6383 67.7396 65.651 67.9048C65.6544 67.9877 65.6414 68.0705 65.6128 68.1484C65.5842 68.2263 65.5405 68.2978 65.4843 68.3588C65.428 68.4198 65.3603 68.4691 65.285 68.5038C65.2097 68.5386 65.1283 68.5582 65.0455 68.5614C64.3582 68.6611 63.659 68.4907 63.0945 68.0858C62.53 67.6809 62.1441 67.073 62.0176 66.3896C61.9064 65.5247 62.0966 64.6479 62.5563 63.9072C63.016 63.1665 63.7169 62.6072 64.5408 62.3237C65.262 62.1206 66.021 62.0914 66.7556 62.2385C67.4902 62.3855 68.1796 62.7046 68.7672 63.1697C69.4414 63.6203 70.0026 64.2204 70.4074 64.9234C70.8122 65.6263 71.0496 66.4132 71.1012 67.2229C71.1151 67.9436 70.9669 68.6582 70.6678 69.3139C70.3686 69.9696 69.926 70.5496 69.3728 71.0111C68.2023 71.9805 66.7288 72.5079 65.2095 72.501Z" fill="#6CD4FE"/>
<path d="M54.927 97.4521C53.9725 97.4556 53.0306 97.235 52.1767 96.8081C51.0582 96.3151 50.0563 95.5912 49.2367 94.6838C48.417 93.7764 47.7981 92.706 47.4204 91.5427C47.0926 90.1442 47.0544 88.6934 47.3083 87.2796C47.5622 85.8659 48.1027 84.5191 48.8965 83.3225C48.9831 83.1782 49.1227 83.0737 49.2854 83.0312C49.4481 82.9888 49.621 83.0117 49.767 83.0952C49.8398 83.1367 49.9035 83.1927 49.9541 83.2597C50.0046 83.3266 50.0411 83.4032 50.0611 83.4847C50.0812 83.5662 50.0845 83.651 50.0708 83.7338C50.0571 83.8166 50.0267 83.8958 49.9815 83.9664C49.2764 85.0147 48.7929 86.1961 48.5608 87.4382C48.3286 88.6802 48.3527 89.9567 48.6315 91.1891C48.9626 92.1827 49.5003 93.0948 50.2092 93.8653C50.9182 94.6358 51.7822 95.2472 52.7444 95.6591C53.9507 96.1958 55.31 96.2794 56.5728 95.8944C57.8357 95.5094 58.9176 94.6817 59.6202 93.563C60.125 92.8086 60.448 91.9473 60.5641 91.0468C60.6801 90.1463 60.5859 89.2312 60.2888 88.3733C60.1342 88.0038 59.8751 87.6875 59.5434 87.4632C59.2118 87.2389 58.8219 87.1163 58.4217 87.1106C57.782 87.1094 57.1587 87.3119 56.6416 87.6887C56.1245 88.0655 55.7405 88.5971 55.5452 89.2067C55.4316 89.9138 55.7218 90.3557 57.5007 90.6967C57.668 90.7285 57.8158 90.8255 57.9116 90.9664C58.0074 91.1073 58.0434 91.2805 58.0116 91.448C57.9798 91.6154 57.8829 91.7634 57.7421 91.8593C57.6013 91.9552 57.4283 91.9912 57.261 91.9594C56.2769 91.7573 53.9555 91.3154 54.2962 89.0425C54.5416 88.1167 55.0902 87.3001 55.8541 86.7232C56.618 86.1464 57.5532 85.8426 58.51 85.8605C59.1349 85.8813 59.7412 86.0785 60.2591 86.4292C60.777 86.78 61.1852 87.27 61.4369 87.8429C61.8283 88.9071 61.9606 90.0493 61.8229 91.1748C61.6851 92.3003 61.2813 93.3768 60.6449 94.3149C60.0085 95.253 59.1579 96.0258 58.1635 96.5692C57.1691 97.1126 56.0596 97.411 54.927 97.4395V97.4521Z" fill="#6CD4FE"/>
<path d="M57.9428 52.0958C56.9429 51.9738 55.977 51.6556 55.1002 51.1594C54.2234 50.6632 53.4531 49.9988 52.8332 49.2042C51.5716 47.3606 52.3412 44.8984 52.8332 43.5851C52.8879 43.4281 53.0012 43.2983 53.1494 43.223C53.2975 43.1477 53.4691 43.1327 53.6281 43.1811C53.7859 43.2385 53.9158 43.3542 53.9909 43.5046C54.066 43.6549 54.0806 43.8284 54.0318 43.9892C53.5145 45.5171 53.0351 47.247 53.893 48.4718C54.7509 49.6966 57.2237 51.174 58.4348 50.7573C58.5937 50.7055 58.7667 50.719 58.9157 50.7947C59.0648 50.8705 59.1777 51.0024 59.2296 51.1614C59.2819 51.3188 59.2702 51.4905 59.1971 51.6394C59.1239 51.7883 58.9951 51.9023 58.8385 51.9569C58.5493 52.0509 58.2469 52.0978 57.9428 52.0958Z" fill="#6CD4FE"/>
<path d="M54.1313 35.6175C57.0204 34.0391 59.8212 27.2205 59.6698 22.4222C59.5184 17.6239 60.7674 13.3434 64.0476 14.1894C67.3278 15.0354 77.9254 28.2685 60.389 40.1127C53.9043 39.3677 54.1313 35.6175 54.1313 35.6175Z" fill="#FBD094"/>
<path d="M64.7925 14.5177C66.6849 23.445 61.8403 32.0062 54.9141 37.6883C55.6963 38.6859 57.2481 39.7592 60.3895 40.1127C76.7778 29.0514 68.6152 16.7906 64.7925 14.5177Z" fill="#F26C71"/>
<path d="M45.2504 27.6624L22.9829 0.0596924L31.953 36.2488C33.3824 36.586 34.8674 36.6129 36.308 36.3276C37.7487 36.0422 39.1115 35.4514 40.3049 34.5947C42.6663 32.8872 44.4035 30.4522 45.2504 27.6624Z" fill="#F79042"/>
<path d="M28.5088 22.3591L22.9829 0.0596924L40.1282 21.311C36.7597 24.1142 32.2684 23.9122 28.5088 22.3591Z" fill="#F7C442"/>
<path d="M26.3766 13.7348L22.9829 0.0596924L32.8361 12.27C32.0525 13.1665 31.0052 13.7912 29.8445 14.0544C28.6839 14.3176 27.4697 14.2057 26.3766 13.7348Z" fill="#F7E984"/>
<g style="mix-blend-mode:multiply" opacity="0.4">
<path d="M25.1787 8.93652C30.3009 17.3335 35.8898 24.5183 44.4435 29.6828C43.4892 31.636 42.0677 33.3232 40.3055 34.5947C39.1121 35.4514 37.7493 36.0423 36.3086 36.3276C34.868 36.6129 33.383 36.5861 31.9536 36.2488L25.1787 8.93652Z" fill="#FBAA94"/>
</g>
<path d="M48.2531 31.5136C47.9089 31.9773 47.7231 32.5396 47.7231 33.1172C47.7231 33.6949 47.9089 34.2571 48.2531 34.7209C48.4212 35.132 48.6372 35.522 48.8965 35.8826C50.0193 37.4988 52.3659 37.4483 54.1196 37.2842C54.4137 37.272 54.698 37.175 54.9383 37.0048C55.1786 36.8347 55.3646 36.5986 55.4739 36.325C55.5833 36.0515 55.6112 35.7521 55.5545 35.463C55.4977 35.1739 55.3587 34.9074 55.1541 34.6956C53.7537 33.0794 50.6375 28.9124 48.2531 31.5136Z" fill="#04D6A9"/>
<path d="M46.019 32.6249C45.4686 32.4532 44.8778 32.4623 44.333 32.6508C43.7881 32.8394 43.3179 33.1976 42.9911 33.673C42.6565 33.9665 42.356 34.2969 42.0954 34.6579C40.9473 36.2489 41.7547 38.446 42.4865 40.0496C42.5913 40.3265 42.7741 40.5669 43.0129 40.7416C43.2516 40.9164 43.5359 41.018 43.8313 41.034C44.1266 41.0501 44.4202 40.9799 44.6765 40.832C44.9327 40.6842 45.1405 40.465 45.2746 40.2012C46.3344 38.3323 49.2613 34.077 46.019 32.6249Z" fill="#04D6A9"/>
<path d="M40.3917 34.2411C40.956 34.3593 41.5433 34.2901 42.0647 34.044C42.5861 33.7979 43.0131 33.3883 43.2808 32.8773C43.5876 32.5526 43.8544 32.1922 44.0757 31.804C45.0471 30.0994 44.0756 28.0159 43.1168 26.4881C42.9827 26.2242 42.7749 26.005 42.5187 25.8572C42.2624 25.7093 41.9688 25.6392 41.6734 25.6552C41.3781 25.6713 41.0938 25.7728 40.855 25.9476C40.6163 26.1223 40.4334 26.3627 40.3287 26.6396C39.4708 28.6094 37.0106 33.1551 40.3917 34.2411Z" fill="#04D6A9"/>
<path d="M31.2076 29.2534C31.0684 28.819 30.801 28.4369 30.4407 28.1575C30.0804 27.878 29.6441 27.7142 29.1891 27.6876C28.618 27.3602 27.9876 27.1499 27.3345 27.0689C25.5304 26.8164 24.2561 27.8265 22.8431 28.7483C22.3329 29.0841 21.9745 29.6066 21.8448 30.2039C21.7151 30.8011 21.8244 31.4254 22.1493 31.9429C23.2469 33.4582 25.5808 33.6097 27.2966 33.5087C29.4792 33.3698 31.9268 31.7914 31.2076 29.2534Z" fill="#04D6A9"/>
<path d="M33.2267 30.996C32.7947 30.827 32.3212 30.7945 31.8701 30.9028C31.419 31.0112 31.0119 31.2552 30.7035 31.6021C30.0893 31.8338 29.5274 32.1858 29.0508 32.6375C27.7135 33.9003 27.6883 35.5039 27.499 37.1707C27.4452 37.7729 27.6268 38.3725 28.0056 38.8434C28.3844 39.3144 28.9309 39.62 29.5302 39.6961C31.3848 39.8097 32.987 38.0924 33.9963 36.7035C35.3084 34.9609 35.649 32.0567 33.2267 30.996Z" fill="#04D6A9"/>
<path d="M51.244 24.1773C51.1174 23.9541 50.9339 23.7685 50.7123 23.6394C50.4906 23.5103 50.2388 23.4423 49.9824 23.4423C49.7259 23.4423 49.4741 23.5103 49.2525 23.6394C49.0309 23.7685 48.8474 23.9541 48.7208 24.1773C48.5946 24.3541 48.1909 25.0486 48.0395 25.2127C47.5389 25.7116 47.0869 26.257 46.6896 26.8416C46.5256 27.0805 46.412 27.3503 46.3557 27.6346C46.2993 27.9188 46.3015 28.2116 46.3619 28.495C46.4223 28.7785 46.5398 29.0466 46.7071 29.2831C46.8745 29.5196 47.0882 29.7195 47.3353 29.8706C47.5824 30.0217 47.8576 30.1209 48.1442 30.1621C48.4308 30.2033 48.7228 30.1856 49.0024 30.1101C49.282 30.0346 49.5432 29.9029 49.7703 29.7231C49.9973 29.5432 50.1854 29.3189 50.323 29.064L50.9033 28.3442C51.1374 27.9396 51.3399 27.5174 51.5089 27.0815C51.6993 26.6113 51.7745 26.1024 51.7284 25.5972C51.6824 25.092 51.5163 24.6052 51.244 24.1773Z" fill="#04D6A9"/>
<path d="M51.6202 35.2386C51.8958 35.0212 52.1186 34.744 52.2717 34.428C52.4249 34.112 52.5045 33.7653 52.5045 33.414C52.5045 33.0628 52.4249 32.7161 52.2717 32.4001C52.1186 32.084 51.8958 31.8069 51.6202 31.5894L51.0903 31.1601C51.3805 30.9833 51.6707 30.8066 51.9482 30.6045C53.9542 29.2155 51.6328 26.0714 49.6899 27.5614C49.0136 28.0488 48.3843 28.5983 47.8101 29.2029C47.3307 28.7105 46.8135 28.2811 46.271 27.7887C45.8477 27.4649 45.3143 27.3206 44.7857 27.3867C44.2571 27.4528 43.7756 27.7242 43.445 28.1422C43.1308 28.5693 42.9923 29.1007 43.058 29.627C43.1237 30.1532 43.3887 30.6342 43.7982 30.9707C43.9748 31.1349 44.1515 31.2611 44.3281 31.4C43.8937 31.7556 43.552 32.2114 43.3322 32.7282C43.1125 33.2451 43.0213 33.8075 43.0665 34.3674C43.1163 34.7526 43.265 35.1184 43.4981 35.429C43.7312 35.7396 44.0408 35.9844 44.3966 36.1395C44.7524 36.2947 45.1423 36.3549 45.5283 36.3143C45.9143 36.2737 46.2832 36.1337 46.599 35.9079C46.0691 36.2741 47.9615 35.1503 47.419 35.5164L48.2265 34.9735L48.3905 34.822C48.5736 35.0637 48.803 35.2665 49.0653 35.4186C49.3276 35.5707 49.6175 35.669 49.9181 35.7078C50.2187 35.7465 50.5241 35.725 50.8163 35.6445C51.1085 35.564 51.3818 35.426 51.6202 35.2386Z" fill="#FEFE9F"/>
<path d="M32.9747 25.2128C32.7105 24.7645 32.2845 24.4348 31.7845 24.2915C31.2846 24.1482 30.7488 24.2022 30.2875 24.4426C29.8321 24.7 29.4969 25.1273 29.3551 25.6312C29.2133 26.135 29.2763 26.6746 29.5305 27.1321C29.582 27.2522 29.6119 27.3804 29.6188 27.5109C29.1564 27.4167 28.7011 27.2901 28.2563 27.1321C27.5372 26.8922 26.3639 26.8543 26.0863 27.7635C26.0217 28.1958 26.0769 28.6375 26.246 29.0406C26.4151 29.4436 26.6915 29.7924 27.0451 30.049C27.1999 30.2063 27.3642 30.3539 27.5372 30.4909L26.7928 30.9329C25.8971 31.5642 25.7583 33.2562 27.083 33.534C28.6222 33.8497 30.8678 32.7385 32.0159 31.7284C32.8745 30.9022 33.4345 29.8139 33.608 28.6346C33.7816 27.4553 33.5588 26.2517 32.9747 25.2128Z" fill="#FECB6C"/>
<path d="M43.4453 35.7564C43.4453 35.7564 43.4453 35.6302 43.4453 35.5544C43.4642 35.4035 43.4642 35.2508 43.4453 35.0998C43.4453 35.0998 43.4453 34.9862 43.4453 34.9357C43.3665 34.5358 43.1737 34.1674 42.8902 33.875C42.318 33.3321 41.633 32.9224 40.8842 32.6754C41.1822 32.3937 41.4487 32.0804 41.679 31.741C41.8786 31.4122 42.0064 31.0449 42.0541 30.6631C42.1017 30.2814 42.0681 29.8938 41.9555 29.526C41.8429 29.1581 41.6538 28.8183 41.4007 28.5288C41.1476 28.2393 40.8361 28.0066 40.4867 27.8462C40.1374 27.6857 39.7581 27.601 39.3737 27.5976C38.9893 27.5943 38.6086 27.6724 38.2565 27.8268C37.9044 27.9811 37.5889 28.2083 37.3308 28.4934C37.0727 28.7784 36.8777 29.1149 36.7587 29.4808L36.6073 29.7333L36.2793 30.2763C35.9424 30.0193 35.6336 29.7273 35.3583 29.405C34.9461 28.954 34.3722 28.6849 33.7621 28.6565C33.1521 28.6281 32.5556 28.8427 32.1034 29.2535C31.8477 29.4973 31.6504 29.7956 31.526 30.1263C31.4016 30.4571 31.3533 30.8116 31.3849 31.1636C31.4164 31.5156 31.5269 31.8559 31.7081 32.1592C31.8893 32.4625 32.1365 32.721 32.4314 32.9153C32.9104 33.2659 33.4318 33.5544 33.9832 33.774C33.1059 34.5664 32.5269 35.6361 32.3431 36.8045C32.3322 37.191 32.421 37.5738 32.6012 37.9159C32.7813 38.258 33.0465 38.5478 33.3713 38.7572C33.696 38.9667 34.0692 39.0888 34.4549 39.1117C34.8406 39.1346 35.2256 39.0575 35.5728 38.8879C36.8344 38.2313 36.9101 37.3601 37.44 36.2236C37.4424 36.1942 37.4424 36.1646 37.44 36.1352C38.3412 36.7989 39.3096 37.366 40.3291 37.8273C40.6712 37.9442 41.0355 37.9809 41.394 37.9346C41.7525 37.8882 42.0956 37.76 42.3967 37.5599C42.6979 37.3598 42.949 37.0931 43.1308 36.7804C43.3127 36.4677 43.4202 36.1173 43.4453 35.7564Z" fill="white"/>
<defs>
<radialGradient id="paint0_radial_21_1838" cx="0" cy="0" r="1" gradientUnits="userSpaceOnUse" gradientTransform="translate(45.2375 130.661) scale(62.6265 62.6807)">
<stop stop-color="#89F5FE"/>
<stop offset="0.54" stop-color="#86F2FE"/>
<stop offset="0.93" stop-color="#7EE9FE"/>
<stop offset="1" stop-color="#7BE6FE"/>
</radialGradient>
<radialGradient id="paint1_radial_21_1838" cx="0" cy="0" r="1" gradientUnits="userSpaceOnUse" gradientTransform="translate(18.9712 59.1795) scale(54.1232 54.17)">
<stop stop-color="#F7CB7D"/>
<stop offset="0.21" stop-color="#F7C57C"/>
<stop offset="0.49" stop-color="#F7B57A"/>
<stop offset="0.8" stop-color="#F79B76"/>
<stop offset="1" stop-color="#F78673"/>
</radialGradient>
<radialGradient id="paint2_radial_21_1838" cx="0" cy="0" r="1" gradientUnits="userSpaceOnUse" gradientTransform="translate(5416.08 8924.47) scale(5050.2 5449.29)">
<stop stop-color="#89F5FE"/>
<stop offset="0.54" stop-color="#86F2FE"/>
<stop offset="0.93" stop-color="#7EE9FE"/>
<stop offset="1" stop-color="#7BE6FE"/>
</radialGradient>
</defs>
</svg>
