<svg width="110" height="84" viewBox="0 0 110 84" fill="none" xmlns="http://www.w3.org/2000/svg">
<path d="M17.4067 33.6112C11.8099 34.1893 6.17047 34.2274 0.566406 33.7249L47.3554 81.7073L17.4067 33.6112Z" fill="#6CEAFC"/>
<path d="M17.823 34.2174L27.0104 13.2097C14.3754 17.2256 7.70752 11.8647 7.70752 11.8647L17.823 34.2174Z" fill="#A6F4FF"/>
<path d="M7.7079 11.8647L0.566406 33.7248C6.25794 34.7872 12.0806 34.9534 17.8234 34.2174L7.7079 11.8647Z" fill="#50BAEB"/>
<path d="M32.4484 30.9971C27.5012 32.2148 22.4756 33.0882 17.4077 33.6111L47.3565 81.7073L46.523 25.049C41.9765 27.3586 37.2734 29.3462 32.4484 30.9971Z" fill="#50BAEB"/>
<path d="M46.5225 25.0489C51.5371 22.5041 56.3003 19.4914 60.7486 16.051L47.3559 81.7072L46.5225 25.0489Z" fill="#6CEAFC"/>
<path d="M46.4832 25.7878L27.3887 13.096C40.1941 9.62946 42.9029 1.52185 42.9029 1.52185L46.4832 25.7878Z" fill="#A6F4FF"/>
<path d="M42.9038 1.52185L60.748 16.0511C56.5253 20.0145 51.7135 23.2991 46.484 25.7878L42.9038 1.52185Z" fill="#50BAEB"/>
<path d="M27.388 13.0959H27.1985H27.0091L17.8218 34.1037C27.7194 32.6337 37.365 29.7967 46.4824 25.674L27.388 13.0959Z" fill="#6CEAFC"/>
<path d="M24.2831 3.32145C14.2813 6.27655 8.71207 9.70524 7.63232 11.8647C11.9513 16.9225 20.0399 15.2176 27.1246 13.1339C34.2092 11.0502 41.938 8.09505 42.8283 1.52185C40.8203 0.290558 34.3797 0.385296 24.2831 3.32145Z" fill="#6CEAFC"/>
<g style="mix-blend-mode:color-dodge" opacity="0.4">
<path d="M25.3059 5.84082C16.4217 8.45494 11.4776 11.5237 10.5115 13.418L4.18457 32.8156L45.7075 75.3804C45.7075 75.3804 13.3908 29.3111 25.3059 5.84082Z" fill="#F4F4F4"/>
</g>
<path d="M80.7143 46.8902C78.2256 43.7965 76.0373 40.4728 74.179 36.9641L63.5142 83.7342L80.7143 46.8902Z" fill="#6D90ED"/>
<path d="M80.5239 47.3827L96.6065 44.4465C89.3513 38.5553 89.9764 32.4935 89.9764 32.4935L80.5239 47.3827Z" fill="#6D90ED"/>
<path d="M89.9771 32.4935L74.1787 36.8883C75.7267 40.6764 77.8689 44.1935 80.5246 47.3069L89.9771 32.4935Z" fill="#5A6EE0"/>
<path d="M88.0642 54.7514C85.4387 52.3008 82.9831 49.6743 80.7143 46.8901L63.5142 83.7342L97.0242 60.6996C93.903 58.9274 90.9091 56.9398 88.0642 54.7514Z" fill="#5A6EE0"/>
<path d="M97.0242 60.6996C100.483 62.6453 104.117 64.2625 107.879 65.53L63.5142 83.7342L97.0242 60.6996Z" fill="#6D90ED"/>
<path d="M96.5879 60.9648L96.8152 44.6171C103.805 50.8114 109.696 49.2013 109.696 49.2013L96.5879 60.9648Z" fill="#5A6EE0"/>
<path d="M109.697 49.2012L107.802 65.53C103.794 64.6259 99.9566 63.0845 96.4365 60.9647L109.697 49.2012Z" fill="#80BAED"/>
<path d="M96.8148 44.617L96.7012 44.5223L80.6187 47.4585C82.9509 50.1061 85.4842 52.5697 88.1958 54.8273C90.861 57.13 93.7122 59.2082 96.7201 61.0406L96.8148 44.617Z" fill="#80BAED"/>
<path d="M101.495 38.953C95.8123 34.1983 91.6827 32.2661 89.9779 32.4934C88.614 37.0587 92.7436 41.1693 96.7216 44.5412C100.7 47.913 105.416 51.2848 109.697 49.2011C109.641 47.4773 107.083 43.6887 101.495 38.953Z" fill="#6D90ED"/>
<g style="mix-blend-mode:color-dodge" opacity="0.4">
<path d="M74.9539 39.1615L65.4824 81.0821L67.6419 80.1918C75.3896 64.6776 84.3307 47.8562 98.2916 39.9381C93.8968 36.4147 90.6197 34.9561 89.199 35.1455L74.9539 39.1615Z" fill="#9FFC37"/>
</g>
</svg>
