<svg width="63" height="123" viewBox="0 0 63 123" fill="none" xmlns="http://www.w3.org/2000/svg">
<path d="M12.4065 122.051C10.8173 121.822 9.28525 74.3291 9.47961 72.7285C9.67398 71.1278 36.1989 77.8962 36.1989 77.8962C36.1989 77.8962 15.9736 122.554 12.4065 122.051Z" fill="#F7AC5B"/>
<path d="M32.0499 86.8026L26.2419 91.1358L24.5726 85.4192L34.9653 77.5989L33.5591 77.2445L24.2411 84.2644L22.6747 78.868L26.985 75.6553L25.5559 75.3237L22.3546 77.6561L21.3942 74.329L20.148 74.0546L21.3942 78.3764L16.2493 82.2065L13.5968 73.0599C13.5584 72.943 13.482 72.8423 13.3796 72.7741L12.8765 72.6941C12.8088 72.7149 12.7459 72.749 12.6914 72.7942C12.637 72.8394 12.592 72.895 12.559 72.9577C12.5261 73.0204 12.5059 73.0889 12.4995 73.1595C12.4932 73.23 12.5009 73.3011 12.5221 73.3686L15.2889 82.9382L10.7156 86.3681L9.65234 82.7095C9.70951 84.4702 9.76666 86.391 9.84669 88.4261L10.0754 88.2546L11.6989 93.6625L10.144 94.8058C10.144 95.2517 10.144 95.709 10.2011 96.1663L12.0304 94.7829L13.6882 100.5L10.5213 102.866L10.5899 104.204L14.0198 101.654L15.6319 107.222L11.0014 110.972C11.0014 111.441 11.0586 111.887 11.0929 112.333L15.9749 108.4L17.8613 114.917C18.1129 114.482 18.3758 114.025 18.6274 113.556L16.9124 107.634L21.3942 104.009L22.2288 106.868L22.972 105.427L22.3431 103.243L25.2586 100.888L26.4019 98.4873L21.9544 102.077L20.4338 96.8295L25.5787 92.9879L26.8935 97.4926L27.6138 95.9948L26.5391 92.2676L30.998 88.952L32.0499 86.8026ZM21.76 79.5311L23.3264 84.939L18.1929 88.8034L16.5808 83.3727L21.76 79.5311ZM12.6135 92.9765L11.0243 87.5114L15.5976 84.0815L17.1753 89.5237L12.6135 92.9765ZM12.9451 94.1198L17.5184 90.6899L19.1761 96.4064L14.6029 99.8364L12.9451 94.1198ZM16.5351 106.49L14.9345 100.968L19.5077 97.5383L21.0398 102.832L16.5351 106.49ZM20.1022 95.709L18.4444 89.9924L23.5779 86.128L25.2471 91.8446L20.1022 95.709Z" fill="#E48124"/>
<path d="M12.4079 122.051C13.6427 122.223 16.8668 116.998 20.5483 110.092C15.5749 106.994 12.385 101.083 10.167 95.4575C10.7272 108.343 11.5619 121.925 12.4079 122.051Z" fill="#CB423A"/>
<g style="mix-blend-mode:multiply" opacity="0.5">
<path d="M36.1997 77.8962C36.1997 77.8962 9.6862 71.1278 9.4804 72.7285C9.42324 73.1743 9.48039 77.1759 9.68619 82.721C15.0483 86.9856 20.9821 87.7402 27.1217 88.0717C21.9311 99.5849 17.9752 110.275 12.8303 121.937C17.3464 119.524 36.1997 77.8962 36.1997 77.8962Z" fill="#E38B48"/>
</g>
<path d="M6.42822 56.0588L7.28571 76.1697C12.1201 79.1328 17.4557 81.1865 23.0291 82.2293C31.0324 83.8986 36.9205 81.5319 37.5264 81.086C38.1324 80.6401 46.57 62.793 46.57 62.793L6.42822 56.0588Z" fill="#F7AC5B"/>
<path d="M10.4639 77.9761L11.6072 78.5021L12.3846 57.0763L11.2413 56.882L10.4639 77.9761Z" fill="#E48124"/>
<path d="M21.6574 58.6428L20.5141 58.4598L16.9927 80.6516L18.0674 80.9946L21.6574 58.6428Z" fill="#E48124"/>
<path d="M41.1957 61.9469L40.0524 61.7526L31.2603 82.721L32.5408 82.5609L41.1957 61.9469Z" fill="#E48124"/>
<path d="M32.4157 60.5063L31.2723 60.3234L24.7783 82.618L25.9216 82.7552L32.4157 60.5063Z" fill="#E48124"/>
<g style="mix-blend-mode:multiply" opacity="0.5">
<path d="M41.3336 73.7231C41.6766 73.0371 46.57 62.8501 46.57 62.8501L6.42822 56.0588L6.89699 66.9775C14.9688 67.5949 19.9194 75.9983 27.0193 73.6202C28.9745 73.0983 31.0323 73.0983 32.9874 73.6202C31.7069 76.73 30.3578 79.7712 29.1459 82.8238C32.0348 82.8846 34.8999 82.2905 37.5264 81.086C37.7665 80.9031 39.4815 77.5189 41.3336 73.7231Z" fill="#E38B48"/>
</g>
<path d="M5.95926 49.7478C5.95926 41.7446 7.68567 36.1538 10.3953 32.7582C13.105 29.3625 21.7142 22.9828 31.4095 24.7549C41.1048 26.5271 53.1324 33.5127 52.3664 46.6837C51.9205 54.9156 49.5081 59.3745 47.9761 60.4035C52.3207 60.4035 55.1333 68.4067 45.4837 66.9547C44.0888 71.7452 37.7549 73.5516 32.5871 66.9547C32.4956 71.7566 13.9968 69.0698 15.3573 62.8159C9.6979 65.7542 2.36926 63.2389 5.53624 58.2426C2.32353 57.7396 -3.99901 49.3705 5.95926 49.7478Z" fill="#FCC254"/>
<g style="mix-blend-mode:color-dodge" opacity="0.2">
<path d="M11.4697 47.9299C17.1862 41.5159 19.7587 33.7757 21.4622 25.5323C17.1983 26.9183 13.379 29.4119 10.3949 32.7581C7.89107 35.8908 6.21039 40.8985 5.99316 47.9871C6.84716 48.4055 7.78724 48.6183 8.73819 48.6084C9.68915 48.5984 10.6246 48.3661 11.4697 47.9299Z" fill="#F7C085"/>
</g>
<g style="mix-blend-mode:multiply" opacity="0.5">
<path d="M47.9763 60.3234C49.5083 59.3287 51.9207 54.8698 52.3666 46.6036C52.5478 43.6985 52.0371 40.7919 50.8763 38.1226C49.7156 35.4533 47.938 33.0975 45.6897 31.2489C48.3536 44.1341 44.0319 59.8318 31.4097 61.9926C20.914 64.0963 10.5556 58.7685 5.04481 49.702C-3.58721 49.8621 2.43805 57.7052 5.53643 58.1054C2.36945 63.1474 9.69809 65.6627 15.3575 62.6786C13.997 68.9326 32.5072 71.6194 32.5873 66.8174C37.7551 73.3915 44.089 71.5851 45.4839 66.8174C55.1334 68.3495 52.3209 60.3691 47.9763 60.3234Z" fill="#FCAA79"/>
</g>
<path d="M17.5061 44.4999C15.1166 48.1128 18.9352 51.4856 21.1418 52.0801C25.3378 52.2516 27.1328 50.8453 28.5162 47.4382C29.1336 50.4337 28.7449 53.635 32.152 55.0184C35.3533 55.3957 37.9371 52.7318 39.3205 49.3819C38.7374 51.577 41.1499 53.1662 42.5561 54.9612C43.6677 55.9329 45.0582 56.5281 46.5286 56.6616C47.999 56.7951 49.4739 56.46 50.7423 55.7044C51.7037 52.7688 52.2501 49.7133 52.3658 46.6265C53.0975 33.4555 41.1041 26.4241 31.4088 24.6977C21.7135 22.9713 13.1158 29.351 10.3947 32.7009C8.3352 35.5008 7.00693 38.7703 6.53027 42.2133C6.67644 42.6367 6.7986 43.068 6.89614 43.5052C9.51433 46.1463 13.5045 45.3345 17.5061 44.4999Z" fill="#F35173"/>
<g style="mix-blend-mode:color-dodge" opacity="0.2">
<path d="M30.7571 24.6291C21.3362 23.2914 13.0357 29.4425 10.3947 32.7581C8.3352 35.558 7.00693 38.8275 6.53027 42.2705C6.67644 42.6939 6.7986 43.1252 6.89614 43.5624C8.69115 45.346 11.1378 45.506 13.756 45.1745C16.4314 36.4967 22.9025 29.1795 30.7571 24.6291Z" fill="#F7C085"/>
</g>
<g style="mix-blend-mode:multiply" opacity="0.5">
<path d="M52.3657 46.638C52.5494 43.6931 52.0221 40.7472 50.8282 38.049C49.6343 35.3507 47.8088 32.9792 45.5058 31.1346C45.6685 32.94 45.4664 34.7597 44.9113 36.4854C45.7238 42.6699 44.8344 48.9588 42.3389 54.6755L42.579 54.9728C43.6905 55.9445 45.081 56.5396 46.5514 56.6731C48.0218 56.8066 49.4967 56.4715 50.7651 55.7159C51.7187 52.7792 52.2575 49.7237 52.3657 46.638Z" fill="#DB9049"/>
</g>
<path d="M23.6687 23.0056C18.238 23.463 10.2805 25.8296 12.3728 29.8655C14.465 33.9014 19.7929 32.2779 21.2334 31.7291C15.7112 38.589 28.0933 44.1227 31.5233 34.8389C31.9349 45.5861 41.6302 44.0998 41.9732 36.2338C43.6767 41.8017 49.7935 42.4306 52.0344 40.4298C53.6236 39.012 52.5488 31.8092 45.0372 27.8533C39.012 24.6863 34.2672 22.1138 23.6687 23.0056Z" fill="#CB423A"/>
<g style="mix-blend-mode:color-dodge" opacity="0.2">
<path d="M34.1986 23.4515C30.7294 22.7881 27.1816 22.6379 23.6687 23.0056C18.238 23.4629 10.2805 25.8296 12.3728 29.8655C14.465 33.9014 19.7929 32.2779 21.2334 31.7291C19.4156 34.0157 19.5527 36.0965 20.6732 37.5828C22.7312 30.883 27.1215 25.418 34.1986 23.4515Z" fill="#F7C085"/>
</g>
<g style="mix-blend-mode:multiply" opacity="0.5">
<path d="M45.0945 27.8533C43.1051 26.8129 41.2529 25.8411 39.2979 25.0408C42.8227 29.542 45.0168 34.9402 45.6318 40.6242C47.9756 41.8361 50.7424 41.6074 52.0915 40.3955C53.6808 38.9778 52.6289 31.7749 45.0945 27.8533Z" fill="#C7704C"/>
</g>
<path d="M17.2553 28.585C17.1117 28.5861 16.9729 28.533 16.8666 28.4364C16.7611 28.3276 16.7021 28.182 16.7021 28.0305C16.7021 27.879 16.7611 27.7334 16.8666 27.6246C18.371 26.2636 20.2949 25.4569 22.3202 25.338C22.4702 25.3185 22.6219 25.3593 22.7419 25.4515C22.8619 25.5437 22.9405 25.6796 22.9604 25.8296C22.9769 25.9792 22.935 26.1293 22.8433 26.2486C22.7517 26.3679 22.6175 26.4472 22.4688 26.4699C20.7114 26.5519 19.0341 27.2292 17.7126 28.3907C17.6565 28.4561 17.586 28.5076 17.5067 28.5413C17.4274 28.575 17.3414 28.59 17.2553 28.585Z" fill="white"/>
<path d="M23.7257 35.9365H23.6114C23.4631 35.9087 23.3317 35.8234 23.2461 35.6992C23.1604 35.575 23.1273 35.4219 23.1541 35.2734C23.2856 33.8842 23.9006 32.5854 24.8919 31.6033C25.01 31.5252 25.1529 31.4937 25.2929 31.5149C25.4329 31.5361 25.5601 31.6085 25.6498 31.7181C25.7395 31.8277 25.7853 31.9667 25.7783 32.1081C25.7714 32.2496 25.7122 32.3834 25.6122 32.4837C24.8422 33.3022 24.3744 34.3589 24.2859 35.4792C24.2576 35.6073 24.187 35.7222 24.0853 35.8052C23.9836 35.8882 23.8569 35.9344 23.7257 35.9365Z" fill="white"/>
<path d="M36.0851 39.0921H35.9822C35.8329 39.0616 35.7015 38.974 35.6161 38.8479C35.5306 38.7219 35.4979 38.5674 35.5248 38.4175L35.662 37.7429C35.6924 37.5913 35.7817 37.458 35.9103 37.3722C36.039 37.2864 36.1964 37.2553 36.348 37.2856C36.4996 37.3159 36.633 37.4052 36.7187 37.5339C36.8045 37.6625 36.8357 37.82 36.8053 37.9716L36.6682 38.6347C36.6433 38.7689 36.5704 38.8894 36.463 38.9736C36.3557 39.0578 36.2213 39.0999 36.0851 39.0921Z" fill="white"/>
<path d="M11.3443 40.0181H11.2299C11.1564 40.0031 11.0865 39.9738 11.0242 39.9318C10.962 39.8897 10.9087 39.8359 10.8672 39.7732C10.8258 39.7106 10.7972 39.6404 10.7829 39.5667C10.7686 39.493 10.769 39.4172 10.784 39.3436C11.0906 37.5169 11.9115 35.8154 13.1507 34.4388C13.2038 34.3852 13.2671 34.3427 13.3367 34.3136C13.4064 34.2846 13.4811 34.2697 13.5566 34.2697C13.6321 34.2697 13.7068 34.2846 13.7764 34.3136C13.8461 34.3427 13.9093 34.3852 13.9624 34.4388C14.0157 34.4909 14.058 34.5532 14.0869 34.6219C14.1157 34.6906 14.1306 34.7644 14.1306 34.8389C14.1306 34.9135 14.1157 34.9872 14.0869 35.0559C14.058 35.1247 14.0157 35.1869 13.9624 35.2391C12.8671 36.4626 12.145 37.9742 11.8816 39.5951C11.848 39.7132 11.778 39.8177 11.6815 39.8937C11.585 39.9696 11.467 40.0132 11.3443 40.0181Z" fill="white"/>
<path d="M20.0912 48.9017C19.9458 48.9008 19.8064 48.8434 19.7025 48.7416C19.0623 48.1128 19.3024 46.878 19.4853 45.8833C19.5133 45.7297 19.5984 45.5924 19.7236 45.4991C19.8487 45.4057 20.0046 45.3633 20.1598 45.3803C20.2322 45.39 20.302 45.4142 20.3649 45.4512C20.4278 45.4883 20.4828 45.5375 20.5264 45.5961C20.5701 45.6547 20.6016 45.7214 20.6192 45.7923C20.6367 45.8632 20.6399 45.9369 20.6286 46.0091V46.1005C20.56 46.5007 20.3199 47.7126 20.5257 47.9298C20.5793 47.983 20.6218 48.0462 20.6508 48.1159C20.6799 48.1855 20.6948 48.2602 20.6948 48.3357C20.6948 48.4112 20.6799 48.4859 20.6508 48.5556C20.6218 48.6252 20.5793 48.6885 20.5257 48.7416C20.4677 48.796 20.3993 48.8382 20.3247 48.8657C20.2501 48.8932 20.1707 48.9054 20.0912 48.9017Z" fill="white"/>
<path d="M32.7014 52.629H32.5871C32.5128 52.6154 32.442 52.5869 32.379 52.5453C32.316 52.5037 32.262 52.4498 32.2203 52.3868C32.1787 52.3237 32.1502 52.253 32.1366 52.1787C32.123 52.1044 32.1246 52.0281 32.1412 51.9544L32.2784 51.2913C32.2921 51.2182 32.3202 51.1485 32.3611 51.0863C32.4019 51.0242 32.4548 50.9708 32.5165 50.9293C32.5782 50.8878 32.6476 50.859 32.7206 50.8446C32.7935 50.8302 32.8687 50.8305 32.9415 50.8454C33.0908 50.8758 33.2222 50.9634 33.3076 51.0895C33.3931 51.2156 33.4258 51.37 33.3989 51.5199L33.2617 52.1831C33.233 52.3101 33.1619 52.4235 33.06 52.5046C32.9582 52.5857 32.8316 52.6295 32.7014 52.629Z" fill="white"/>
<path d="M32.9533 29.3967C29.6263 29.008 23.8982 24.8235 26.2878 18.4209C28.6773 12.0183 34.5882 14.8766 35.4343 16.443C37.0349 14.9109 42.2942 15.4254 42.42 20.2616C42.5457 25.0979 38.99 30.117 32.9533 29.3967Z" fill="#F7385F"/>
<g style="mix-blend-mode:color-dodge" opacity="0.2">
<path d="M30.9065 23.9203C34.1193 22.5826 35.194 18.4667 34.6566 15.6427C32.7701 14.2136 28.2883 13.0702 26.2875 18.421C25.9727 19.2449 25.7876 20.1127 25.7388 20.9934C26.3333 21.9652 27.4766 25.3494 30.9065 23.9203Z" fill="#F7BE55"/>
</g>
<g style="mix-blend-mode:multiply" opacity="0.5">
<path d="M42.408 20.2616C42.4521 19.3231 42.1892 18.3957 41.659 17.62C41.1288 16.8443 40.3602 16.2625 39.4697 15.9628C39.4697 20.536 37.709 25.2236 33.3758 26.0239C31.4044 26.5689 29.322 26.5689 27.3506 26.0239C28.7236 27.8273 30.7223 29.051 32.9528 29.4539C38.9895 30.117 42.4995 25.0636 42.408 20.2616Z" fill="#DB9049"/>
</g>
<path d="M32.8613 1.70566L38.0177 0.68811C38.0177 0.68811 36.8744 15.1167 35.4224 16.443C34.3072 11.5796 33.4523 6.66016 32.8613 1.70566Z" fill="#2FCE6B"/>
<path d="M29.6949 19.69H29.6034C29.4546 19.6647 29.3214 19.5826 29.2318 19.4611C29.1423 19.3395 29.1034 19.188 29.1233 19.0383C29.186 18.6479 29.3331 18.2759 29.5542 17.9481C29.7753 17.6204 30.0652 17.3447 30.4038 17.1404C30.8098 16.8902 31.2635 16.7274 31.736 16.6625C32.2084 16.5975 32.6892 16.6318 33.1477 16.7631C33.2228 16.7856 33.2927 16.8227 33.3534 16.8723C33.4142 16.9218 33.4646 16.9828 33.5017 17.0518C33.5389 17.1208 33.5621 17.1965 33.57 17.2744C33.5779 17.3524 33.5704 17.4312 33.5479 17.5063C33.5254 17.5813 33.4883 17.6512 33.4387 17.712C33.3892 17.7727 33.3282 17.8231 33.2592 17.8603C33.1902 17.8974 33.1145 17.9206 33.0365 17.9285C32.9586 17.9365 32.8798 17.9289 32.8047 17.9064C32.5034 17.8255 32.1887 17.8071 31.88 17.8523C31.5713 17.8975 31.2751 18.0054 31.0097 18.1694C30.8066 18.2916 30.6335 18.4577 30.5029 18.6556C30.3724 18.8534 30.2877 19.0779 30.2551 19.3127C30.2139 19.4269 30.1374 19.5251 30.0367 19.5929C29.936 19.6608 29.8163 19.6948 29.6949 19.69Z" fill="white"/>
<path d="M29.2143 23.0399C29.0939 23.0397 28.9765 23.0022 28.8783 22.9326C28.78 22.863 28.7057 22.7647 28.6656 22.6511C28.6141 22.507 28.6141 22.3494 28.6656 22.2053C28.6544 22.053 28.6544 21.9002 28.6656 21.7479C28.6944 21.5963 28.7822 21.4624 28.9098 21.3755C29.0374 21.2887 29.1942 21.2561 29.3458 21.2849C29.4974 21.3137 29.6314 21.4016 29.7182 21.5291C29.8051 21.6567 29.8377 21.8135 29.8089 21.9652C29.8031 22.0222 29.8031 22.0796 29.8089 22.1367C29.8089 22.3425 29.8089 22.8684 29.363 23.0399H29.2143Z" fill="white"/>
<path d="M9.3544 24.9949C8.21108 24.5376 3.63785 20.1473 5.66151 18.318C7.68518 16.4887 9.3544 24.9949 9.3544 24.9949Z" fill="#CB423A"/>
<path d="M5.22745 31.6148C3.08945 31.3861 -0.626328 30.2771 0.539853 28.4592C1.70603 26.6413 5.22745 31.6148 5.22745 31.6148Z" fill="#CB423A"/>
<path d="M55.9224 33.9471C55.9224 33.9471 57.443 26.4927 60.0497 28.8822C62.6565 31.2718 55.9224 33.9471 55.9224 33.9471Z" fill="#CB423A"/>
<path d="M56.7676 40.9328C56.7676 40.9328 63.2044 38.509 62.6899 41.7445C62.1754 44.9801 56.7676 40.9328 56.7676 40.9328Z" fill="#CB423A"/>
<path d="M56.9964 48.7988C56.8363 49.7021 58.5399 52.5146 59.283 51.4285C61.1581 48.7646 56.9964 48.7988 56.9964 48.7988Z" fill="#CB423A"/>
</svg>
