<svg width="81" height="183" viewBox="0 0 81 183" fill="none" xmlns="http://www.w3.org/2000/svg">
<path d="M71.8574 81.0513C76.4433 82.7113 75.8319 92.3173 74.609 95.9668C74.3172 97.2166 73.5441 98.3016 72.457 98.9869C71.3699 99.6721 70.0562 99.9026 68.8001 99.6285C74.3032 100.629 76.4433 105.927 73.6918 111.834C77.1292 115.484 79.3874 120.081 80.1732 125.029C84.0621 154.189 25.8758 189.146 18.2203 180.944C16.7528 179.357 16.8384 175.829 19.2231 169.592C12.0813 168.713 15.5544 163.636 18.0002 161.427C11.6777 160.755 9.63545 147.512 16.9729 145.559C10.2469 141.8 11.1152 123.906 21.1064 120.147C17.2298 117.058 17.6333 109.222 21.7179 105.902C17.7189 104.401 20.8007 94.4167 26.5117 92.476C22.4271 85.4088 29.9847 82.5526 32.6262 81.21C38.7408 78.0731 71.8574 81.0513 71.8574 81.0513Z" fill="#FB7E94"/>
<g style="mix-blend-mode:multiply" opacity="0.5">
<path d="M78.7553 129.692C78.8776 128.581 79.2078 126.811 79.4157 124.748L79.1344 124.467L79.4891 124.052C79.8926 119.011 79.3546 112.555 73.1055 109.65C73.7187 108.585 74.1018 107.404 74.2303 106.183C74.3588 104.961 74.2297 103.727 73.8515 102.558C73.4563 102.035 73.023 101.541 72.5551 101.081C72.6774 101.02 72.7753 100.935 72.8853 100.874C71.6971 99.4831 70.0308 98.5862 68.2138 98.3592C69.4283 98.6447 70.7062 98.4562 71.786 97.8322C72.8658 97.2082 73.6659 96.196 74.0226 95.0026C75.2456 91.646 75.857 82.7968 71.2711 81.2711C71.2711 81.2711 68.7274 81.0636 64.9241 80.8195C64.9241 81.088 64.9242 81.3687 64.8141 81.6861C64.6062 83.1386 64.1659 84.1273 64.0559 85.3478C64.0559 85.177 63.9703 85.0183 63.9213 84.8352C63.6448 83.8696 63.1369 82.9857 62.4416 82.2598L61.6345 81.6495C61.4755 81.5152 60.6317 80.8683 61.1209 81.442C60.9258 81.2333 60.6635 81.0995 60.3798 81.0638C60.096 81.0281 59.8087 81.0928 59.5678 81.2467C57.6967 82.5771 58.6995 85.5187 59.0297 87.3496C59.4577 89.7175 55.0185 91.4019 53.8323 92.8422C53.649 93.0331 53.5108 93.2627 53.4281 93.5139C53.3453 93.7651 53.32 94.0317 53.354 94.294C53.3881 94.5563 53.4805 94.8076 53.6247 95.0295C53.7688 95.2514 53.9609 95.4382 54.187 95.5763C57.9168 98.1639 62.3316 94.0628 63.7746 90.694C64.0019 90.1595 64.174 89.6033 64.2882 89.034C66.2327 90.8527 67.639 92.1709 67.1621 95.1369C66.9471 96.0694 66.4623 96.9183 65.768 97.5781C65.4555 97.5399 65.1411 97.5195 64.8263 97.517C61.769 97.2729 60.4727 101.569 62.8697 103.168C65.3155 105.719 71.0387 108.917 65.1321 111.249C64.5883 111.409 64.1202 111.759 63.8125 112.234C63.5048 112.71 63.3779 113.279 63.4548 113.84C63.5316 114.401 63.8072 114.916 64.2316 115.291C64.6559 115.667 65.201 115.878 65.768 115.887C66.1248 115.869 66.4809 115.934 66.8078 116.078C67.1347 116.222 67.4232 116.44 67.6503 116.716C67.8774 116.991 68.0367 117.315 68.1155 117.663C68.1942 118.011 68.1902 118.373 68.1037 118.719C67.7369 120.818 65.5968 120.94 63.9825 121.038C63.276 121.058 62.5741 121.16 61.8913 121.343C61.2745 121.428 60.7163 121.752 60.3382 122.246L60.2282 122.344C60.0692 122.478 75.857 129.399 64.753 140.03C64.1904 140.567 65.4867 141.25 66.1715 141.531C66.3078 141.848 66.5173 142.128 66.783 142.349C69.5468 144.619 77.9604 144.863 77.9604 139.774C77.8829 139.07 77.6024 138.403 77.1531 137.855C76.7038 137.307 76.1049 136.901 75.429 136.685C76.1627 134.806 77.0432 132.67 78.7309 131.803C79.301 131.51 79.7982 131.093 80.1861 130.583C79.2445 130.4 78.7186 130.107 78.7553 129.692Z" fill="#FBA0C7"/>
</g>
<g style="mix-blend-mode:multiply" opacity="0.5">
<path d="M40.3681 80.1725C37.9356 80.7737 35.5356 81.4989 33.1774 82.3452C31.7418 82.7727 30.2483 82.9745 28.7504 82.9433C25.8888 84.5544 23.0761 87.2031 25.9255 91.7436C24.8797 92.0918 23.9178 92.6529 23.1006 93.3914C32.6271 96.9067 48.4761 92.9154 47.0819 81.5762C47.0624 81.2765 46.9725 80.9856 46.8195 80.7269C46.6666 80.4682 46.4549 80.2491 46.2014 80.0871C44.1469 80.0749 42.1781 80.0993 40.3681 80.1725Z" fill="#FBA0C7"/>
</g>
<g style="mix-blend-mode:color-dodge" opacity="0.2">
<path d="M24.0043 116.961C25.105 114.385 27.0494 112.249 28.1622 109.332C29.0672 106.977 27.5875 104.096 25.533 102.9C24.3101 102.155 23.882 102.021 24.3101 100.678C24.4201 100.288 25.8754 97.5536 25.7653 97.5414C25.8914 97.5422 26.0154 97.5094 26.1246 97.4465C26.2338 97.3835 26.3242 97.2926 26.3865 97.1832C26.4487 97.0738 26.4807 96.9498 26.479 96.824C26.4773 96.6981 26.442 96.575 26.3768 96.4673C25.8672 95.7409 25.1343 95.2002 24.289 94.9271C23.4438 94.654 22.5324 94.6633 21.693 94.9538C19.0515 98.3714 18.3667 103.181 21.1794 104.157C17.0949 107.208 16.6913 114.434 20.5679 117.278C10.5767 120.732 9.70844 137.21 16.4345 140.677C9.09698 142.508 11.1392 154.713 17.4495 155.324C15.0036 157.35 11.5428 162.037 18.6724 162.843C17.755 163.641 17.0511 164.655 16.6241 165.793C16.1972 166.931 16.0605 168.157 16.2266 169.36C20.3845 161.366 22.2433 164.393 22.6836 162.44C23.5885 158.387 19.0148 158.387 19.4551 158.094C23.4051 155.385 20.9959 147.805 15.9698 149.843C15.9086 149.843 16.5812 144.192 17.6085 143.032C19.6263 140.762 24.946 136.795 24.6402 136.673C23.1247 136.068 21.5316 135.678 19.9076 135.514C19.5105 133.597 19.6037 131.612 20.1787 129.741C20.7537 127.87 21.7918 126.174 23.1972 124.809C28.7737 118.889 33.4085 120.72 33.1517 120.232C31.3418 116.79 27.6119 116.277 24.0043 116.961Z" fill="#FBB223"/>
</g>
<path d="M39.7939 154.701H39.6349C39.4727 154.701 39.3172 154.637 39.2025 154.522C39.0879 154.408 39.0234 154.253 39.0234 154.091C39.0234 153.929 39.0879 153.774 39.2025 153.659C39.3172 153.545 39.4727 153.481 39.6349 153.481H39.7939C42.6433 153.481 44.6855 152.907 45.3214 151.955C45.4791 151.65 45.5542 151.31 45.5392 150.967C45.5242 150.624 45.4196 150.292 45.2358 150.002C45.1834 149.883 45.1694 149.751 45.1957 149.625C45.222 149.498 45.2873 149.382 45.3826 149.294C45.4783 149.209 45.5982 149.157 45.7254 149.144C45.8527 149.13 45.9808 149.157 46.0919 149.221L46.4465 149.416C48.1953 150.429 50.849 151.943 52.4388 150.637C52.7908 150.26 53.0623 149.816 53.2368 149.331C53.4113 148.846 53.4851 148.331 53.4538 147.817C53.5687 146.55 53.1923 145.288 52.4021 144.29C52.2914 144.188 52.2222 144.049 52.2079 143.899C52.1936 143.749 52.2351 143.6 52.3245 143.479C52.4139 143.358 52.5449 143.274 52.6923 143.243C52.8398 143.213 52.9934 143.238 53.1237 143.313C55.2515 144.534 57.0247 144.778 58.2721 143.948C58.9254 143.405 59.4168 142.693 59.6928 141.89C59.9688 141.087 60.0188 140.224 59.8375 139.395C59.746 138.449 59.3921 137.546 58.8153 136.79C58.2385 136.033 57.4618 135.451 56.5723 135.111C56.492 135.087 56.4172 135.047 56.3522 134.994C56.2873 134.941 56.2334 134.876 56.1936 134.803C56.1539 134.729 56.1291 134.648 56.1206 134.565C56.1121 134.482 56.1202 134.398 56.1443 134.317C56.1683 134.237 56.208 134.163 56.261 134.098C56.314 134.033 56.3792 133.979 56.453 133.94C56.5269 133.9 56.6078 133.875 56.6912 133.867C56.7746 133.858 56.8588 133.866 56.9391 133.89C58.0538 134.295 59.0312 135.005 59.7583 135.941C60.4854 136.876 60.9326 137.997 61.0482 139.175C61.2597 140.233 61.1766 141.328 60.8079 142.342C60.4392 143.355 59.799 144.249 58.9569 144.924C58.2661 145.347 57.4809 145.591 56.6719 145.636C55.8629 145.681 55.0555 145.524 54.3221 145.181C54.5824 146.03 54.7022 146.917 54.6767 147.805C54.7112 148.496 54.5981 149.186 54.3451 149.83C54.0921 150.474 53.705 151.057 53.2093 151.54C51.2771 153.066 48.6722 151.955 46.7645 150.917C46.8092 151.486 46.6629 152.053 46.3487 152.529C45.1869 154.42 41.8117 154.701 39.7939 154.701Z" fill="#F54284"/>
<path d="M45.2479 115.569C44.4598 115.559 43.6867 115.353 42.9977 114.971C42.0992 114.479 41.3959 113.695 41.0044 112.75C40.6513 113.225 40.1976 113.617 39.6755 113.898C39.1534 114.178 38.5758 114.341 37.9838 114.373C37.1987 114.366 36.4298 114.15 35.7568 113.746C35.0838 113.343 34.5311 112.767 34.156 112.079C33.6816 111.23 33.45 110.268 33.4867 109.297C33.5233 108.326 33.8268 107.384 34.3639 106.574C34.4518 106.438 34.5889 106.342 34.7463 106.306C34.9037 106.27 35.0691 106.296 35.2077 106.378C35.2774 106.42 35.3379 106.475 35.3857 106.54C35.4335 106.605 35.4676 106.679 35.4859 106.758C35.5042 106.837 35.5063 106.918 35.4921 106.998C35.478 107.077 35.4478 107.153 35.4034 107.221C34.979 107.841 34.7369 108.568 34.7044 109.318C34.672 110.069 34.8506 110.814 35.2199 111.468C35.4881 111.962 35.8808 112.377 36.3592 112.672C36.8375 112.968 37.3849 113.133 37.9471 113.153C38.5815 113.064 39.1793 112.803 39.6753 112.398C40.1713 111.994 40.5464 111.461 40.7598 110.858C40.8199 110.734 40.9203 110.634 41.0446 110.574C41.169 110.514 41.31 110.498 41.4446 110.528C41.5815 110.561 41.7031 110.64 41.7896 110.751C41.8762 110.861 41.9227 110.998 41.9215 111.139C41.923 111.707 42.0798 112.264 42.375 112.75C42.6702 113.236 43.0927 113.633 43.5969 113.897C44.0237 114.171 44.5153 114.327 45.0219 114.351C45.5286 114.374 46.0326 114.264 46.483 114.032C46.852 113.75 47.1385 113.376 47.3127 112.946C47.487 112.517 47.5425 112.048 47.4736 111.59C47.4678 111.468 47.4992 111.346 47.5636 111.242C47.6281 111.137 47.7226 111.055 47.8348 111.005C47.947 110.954 48.0718 110.939 48.1928 110.961C48.3138 110.983 48.4254 111.04 48.5131 111.127C48.6536 111.308 48.8295 111.459 49.0303 111.571C49.231 111.683 49.4524 111.753 49.681 111.777C49.9096 111.801 50.1408 111.778 50.3604 111.711C50.5801 111.643 50.7837 111.531 50.9589 111.383C51.0173 111.323 51.0871 111.277 51.1643 111.245C51.2415 111.214 51.3243 111.198 51.4076 111.2C51.4909 111.202 51.573 111.22 51.6489 111.255C51.7247 111.289 51.7927 111.339 51.8487 111.401C51.9046 111.462 51.9473 111.535 51.9742 111.613C52.001 111.692 52.0115 111.776 52.0049 111.858C51.9983 111.941 51.9748 112.022 51.9358 112.096C51.8969 112.169 51.8432 112.234 51.7782 112.286C51.3654 112.686 50.8351 112.943 50.265 113.02C49.695 113.097 49.1152 112.989 48.6109 112.713C48.5554 113.206 48.3918 113.68 48.1318 114.101C47.8718 114.523 47.5218 114.883 47.1067 115.154C46.5373 115.461 45.894 115.605 45.2479 115.569Z" fill="#F54284"/>
<path d="M21.9401 40.6868C19.4209 43.3477 16.437 54.516 16.437 54.516C16.437 54.516 1.9699 54.516 1.9699 56.9571C1.98557 58.3227 1.85024 59.6857 1.56635 61.0217C1.56635 61.0217 -1.44203 62.9746 1.2117 69.5657C3.86542 76.1569 13.9912 86.0924 43.3412 85.8971C72.6911 85.7018 68.79 62.8526 65.1213 55.3338C61.4525 47.815 31.9314 30.1044 21.9401 40.6868Z" fill="url(#paint0_radial_21_1950)"/>
<g style="mix-blend-mode:multiply" opacity="0.2">
<path d="M32.3089 65.013C31.3306 60.4114 33.6908 52.3556 39.6464 53.271C45.602 54.1865 47.2407 64.5614 44.3669 67.9912C39.5486 73.7402 33.8131 72.1168 32.3089 65.013Z" fill="#F78875"/>
</g>
<g style="mix-blend-mode:multiply" opacity="0.4">
<g style="mix-blend-mode:multiply" opacity="0.4">
<path d="M32.101 46.6187C33.6296 54.0155 52.7193 53.2587 57.4031 47.7417C46.9349 40.2839 29.276 32.9604 21.9385 40.6745C20.7156 41.8951 19.4316 45.1785 18.3921 48.1933C22.4522 51.8062 27.4661 50.2805 32.101 46.6187Z" fill="#FBAA94"/>
</g>
</g>
<path d="M37.3367 73.4716C35.1966 70.5178 43.9649 65.7819 46.9121 69.1995C50.0672 72.8247 39.8192 76.8648 37.3367 73.4716Z" fill="#FB827E"/>
<path d="M7.47247 61.7418C6.95498 61.894 6.47287 62.147 6.05392 62.4863C5.26149 62.1839 4.52564 61.7506 3.87713 61.2047C3.44112 60.7587 3.09634 60.2321 2.86209 59.6545C2.70311 59.2395 2.37293 58.7757 2.26287 58.3607C2.26287 58.3381 2.25384 58.3163 2.23779 58.3003C2.22174 58.2843 2.19996 58.2753 2.17726 58.2753C2.15455 58.2753 2.13278 58.2843 2.11672 58.3003C2.10067 58.3163 2.09164 58.3381 2.09164 58.3607C2.09164 58.5926 1.74925 58.971 1.77371 59.2395C1.79969 59.5633 1.84459 59.8853 1.90821 60.2038C2.06452 60.8728 2.33775 61.5091 2.71534 62.0835C3.25536 62.9557 4.0428 63.6482 4.97774 64.073C4.79189 64.6866 4.74594 65.3339 4.84328 65.9675C4.94062 66.6011 5.17877 67.205 5.54027 67.7348C5.90218 66.213 6.76301 64.8555 7.98611 63.8778C9.91831 62.4497 15.4214 62.7548 15.4214 62.7548C15.4214 62.7548 11.0434 60.6188 7.47247 61.7418Z" fill="#EC916E"/>
<path d="M39.8788 58.0801C39.7782 58.0801 39.6792 58.0544 39.5914 58.0052C39.5036 57.956 39.4299 57.8851 39.3775 57.7994C39.1818 57.5186 38.1545 57.4942 37.9466 57.6651C37.8444 57.7864 37.6981 57.8623 37.5399 57.876C37.3817 57.8897 37.2245 57.8402 37.1028 57.7383C36.9815 57.6282 36.9065 57.4764 36.8929 57.3133C36.8792 57.1503 36.9281 56.9881 37.0295 56.8595C37.2546 56.6654 37.5174 56.5197 37.8014 56.4315C38.0855 56.3433 38.3847 56.3145 38.6804 56.3469C39.007 56.3354 39.3317 56.4 39.6289 56.5356C39.926 56.6712 40.1875 56.874 40.3925 57.128C40.481 57.2626 40.5126 57.4266 40.4806 57.5843C40.4485 57.742 40.3553 57.8807 40.2213 57.9702C40.1211 58.041 40.0016 58.0793 39.8788 58.0801Z" fill="#F58570"/>
<g style="mix-blend-mode:color-dodge" opacity="0.3">
<path d="M4.41482 64.6834C4.51266 55.3338 12.9752 59.6058 17.8669 57.1647C21.2421 56.0417 19.4445 50.7688 19.0898 46.1794C17.5734 50.1341 16.3872 54.5648 16.3872 54.5648C16.3872 54.5648 1.9201 54.5648 1.9201 57.006C1.93577 58.3715 1.80041 59.7346 1.51652 61.0705C1.51652 61.0705 -1.49183 63.0234 1.1619 69.6146C2.63309 72.91 5.00698 75.7237 8.0102 77.7314C6.61607 73.6303 3.76668 69.2606 4.41482 64.6834Z" fill="#F7ED57"/>
</g>
<path d="M35.3319 47.9858C34.8021 47.8612 34.2466 47.9039 33.7421 48.1078C33.3116 48.2258 32.9302 48.4781 32.6537 48.828C32.5546 48.8986 32.4606 48.9761 32.3724 49.0599C31.1495 50.2805 33.0328 52.1113 34.2435 50.9152C34.2992 50.8886 34.3491 50.8513 34.3902 50.8053C34.5105 50.7721 34.6257 50.7229 34.7326 50.6589C35.0449 50.586 35.3483 50.4796 35.6376 50.3415C35.8504 50.209 36.0205 50.0184 36.1277 49.7922C36.235 49.566 36.2749 49.3138 36.2427 49.0657C36.2105 48.8175 36.1075 48.5838 35.946 48.3923C35.7846 48.2009 35.5714 48.0598 35.3319 47.9858Z" fill="#EE6249"/>
<g style="mix-blend-mode:color-dodge" opacity="0.3">
<path d="M22.1847 55.407C21.1886 54.6555 20.0475 54.118 18.8331 53.8281C17.6188 53.5382 16.3574 53.5023 15.1285 53.7225C12.756 54.3328 12.4381 58.4584 15.1285 58.8246C17.3122 58.9663 19.4532 59.4954 21.451 60.3869C22.0869 60.7165 24.8751 61.8272 25.1197 60.3869C25.5722 58.3485 23.7134 56.5055 22.1847 55.407Z" fill="#F7D157"/>
</g>
<path d="M36.2112 65.4036C35.0984 65.1961 34.8905 61.6442 36.7249 60.4236C38.5593 59.203 41.1029 58.5927 43.0474 61.1315C44.9918 63.6704 44.1602 64.6956 43.1452 63.7802C43.5488 65.4036 43.3408 66.319 41.4086 63.8778C39.4764 61.4367 37.1284 63.1699 37.1284 64.183C37.1372 64.4602 37.0512 64.7321 36.8845 64.9539C36.7178 65.1758 36.4803 65.3344 36.2112 65.4036Z" fill="#C6436D"/>
<path d="M25.9866 80.197C25.1961 80.1665 24.4235 79.9533 23.7296 79.5741C23.0357 79.195 22.4394 78.6603 21.9877 78.0121C21.9463 77.9435 21.9192 77.8673 21.9078 77.788C21.8965 77.7088 21.9013 77.6281 21.9218 77.5507C21.9423 77.4733 21.9783 77.4007 22.0274 77.3374C22.0765 77.2741 22.1379 77.2213 22.2078 77.1822C22.3494 77.1015 22.5169 77.0793 22.6746 77.1203C22.8323 77.1614 22.9676 77.2624 23.0516 77.4018C23.5775 78.3295 25.6075 79.3059 26.537 78.8787C26.8084 78.7904 27.0506 78.6302 27.238 78.4153C27.4254 78.2003 27.5508 77.9386 27.6009 77.6582C27.6052 77.254 27.5198 76.8539 27.3506 76.4866C27.1814 76.1194 26.9328 75.7942 26.6225 75.5344C26.4944 75.434 26.4115 75.287 26.392 75.1256C26.3725 74.9642 26.4181 74.8017 26.5186 74.6738C26.6191 74.546 26.7665 74.4632 26.9282 74.4437C27.0898 74.4243 27.2527 74.4697 27.3808 74.5701C27.8588 74.9576 28.2379 75.453 28.4866 76.0153C28.7354 76.5777 28.8467 77.1909 28.8116 77.8046C28.7399 78.2928 28.5372 78.7524 28.225 79.1349C27.9129 79.5174 27.5028 79.8085 27.0383 79.9773C26.7084 80.1274 26.3492 80.2025 25.9866 80.197Z" fill="#E65879"/>
<path d="M47.1192 33.7661C44.6734 31.3249 36.2108 24.3554 43.2426 13.419C48.0119 6.01003 54.6157 11.0754 51.4973 19.3266C47.6818 29.4452 51.3994 32.5455 51.3994 32.5455L47.1192 33.7661Z" fill="#F7AF75"/>
<path d="M29.9991 33.1924C24.0925 30.7513 14.1012 39.7104 18.785 43.7749C23.4688 47.8394 27.9569 43.5674 29.5956 42.1515C27.3454 46.216 32.2371 46.8263 38.7675 42.5543C36.7252 49.6703 46.3006 48.8647 49.5658 48.0469C47.7314 53.9423 52.4152 64.1098 58.1262 61.8761C53.0266 66.9659 54.4575 71.238 58.3341 73.0689C50.9966 73.2763 49.5658 75.7175 51.4002 80.3923C43.2433 78.1587 39.5746 82.0157 43.4512 87.9233C35.2944 90.9748 67.7016 94.8318 69.7439 85.0672C74.8435 85.8849 78.7078 75.7175 72.5933 71.238C77.9007 71.238 77.4849 57.6041 70.9668 57.4088C74.8435 54.7601 70.3554 44.5805 66.2831 47.8394C69.1325 41.944 67.7016 36.8542 61.0734 38.4775C57.7838 32.753 52.2195 24.6484 48.5508 30.7513C46.5085 26.0764 38.7674 24.8559 36.5173 29.9457C34.8908 24.4164 27.2109 29.5307 29.9991 33.1924Z" fill="#FB7E94"/>
<g style="mix-blend-mode:multiply" opacity="0.5">
<path d="M72.5905 71.2012C77.8979 71.2012 77.4822 57.5673 70.964 57.372C74.8407 54.7234 70.3526 44.5437 66.2803 47.8027C69.1297 41.9073 67.6988 36.8174 61.0706 38.4408C60.4347 37.3545 59.7132 36.1705 58.9428 35.0232C58.4169 35.0232 57.8544 35.426 57.9277 36.0119C58.2946 38.7582 67.2219 42.8837 62.9784 45.7765C60.5325 47.4365 61.0951 52.27 64.6415 51.8794C65.798 51.57 67.0265 51.6736 68.1146 52.1723C69.9123 53.1366 70.267 55.3825 68.1146 56.0782C64.825 57.1645 64.7883 62.1811 67.7844 63.0722C68.0779 64.1463 68.457 65.2082 68.7383 66.2945C68.9924 68.3581 68.7406 70.4524 68.0045 72.3974C67.4956 72.4376 66.9918 72.5276 66.5004 72.6659C65.6675 72.8968 64.9604 73.4479 64.534 74.1984C64.1076 74.9489 63.9967 75.8375 64.2257 76.6694C64.8899 78.2367 65.077 79.9645 64.7638 81.6372C64.5559 83.0897 64.1157 84.0784 64.0056 85.299C64.0056 85.1281 63.92 84.9694 63.8711 84.7863C63.5946 83.8207 63.0867 82.9368 62.3914 82.2109L61.5842 81.6006C61.4253 81.4663 60.5815 80.8194 61.0706 81.3931C60.8755 81.1844 60.6132 81.0506 60.3295 81.0149C60.0457 80.9792 59.7584 81.0439 59.5175 81.1978C57.6465 82.5282 58.6493 85.4698 58.9795 87.3007C59.2485 88.7898 57.5853 90.0104 56.0322 91.0723C58.7535 90.9756 61.4505 90.5242 64.0546 89.7297C64.1279 89.4855 64.1891 89.2414 64.238 88.9973L64.7516 89.4978C67.3564 88.5091 69.2397 87.0566 69.6433 84.8961C74.9018 85.8482 78.7051 75.6808 72.5905 71.2012Z" fill="#FBA0C7"/>
</g>
<path d="M43.4138 35.9874C43.517 35.8729 43.573 35.7236 43.5706 35.5696C43.5681 35.4156 43.5074 35.2683 43.4007 35.1571C43.2939 35.0459 43.1489 34.9791 42.9949 34.9701C42.8408 34.9611 42.6891 35.0106 42.57 35.1086C42.2486 35.4767 41.8386 35.7572 41.3787 35.9238C40.9188 36.0903 40.424 36.1374 39.9408 36.0607C39.5405 35.9144 39.1855 35.6662 38.9109 35.3408C38.6363 35.0153 38.4518 34.6239 38.3754 34.2053C38.3384 34.0786 38.2612 33.9672 38.1553 33.888C38.0495 33.8088 37.9207 33.766 37.7884 33.766C37.6535 33.7624 37.5214 33.8053 37.4145 33.8876C37.3076 33.9699 37.2323 34.0864 37.2015 34.2176C36.7123 35.9752 34.0586 37.0005 32.2242 36.6587C31.9794 36.6372 31.7424 36.5621 31.53 36.439C31.3175 36.3158 31.1348 36.1476 30.9948 35.9461C30.8547 35.7446 30.7608 35.5148 30.7197 35.2731C30.6785 35.0313 30.6912 34.7834 30.7567 34.5471C30.7764 34.4102 30.749 34.2707 30.6789 34.1514C30.6089 34.0322 30.5003 33.9402 30.371 33.8905C30.2416 33.8409 30.0993 33.8365 29.9672 33.8782C29.835 33.9199 29.721 34.0051 29.6438 34.1199C29.1632 34.8095 28.5234 35.3735 27.7784 35.7644C27.0335 36.1553 26.2052 36.3616 25.3636 36.3658C24.9941 36.3231 24.6468 36.1677 24.3689 35.9209C24.091 35.6741 23.896 35.3479 23.8105 34.9865C23.704 34.614 23.6667 34.2251 23.7005 33.8392C23.28 34.0343 22.8716 34.2544 22.4775 34.4983C22.4975 34.7923 22.5509 35.083 22.6365 35.3649C22.794 35.9473 23.1229 36.4692 23.5807 36.8631C24.0386 37.2569 24.6042 37.5046 25.2046 37.5742C26.0226 37.6031 26.8381 37.4679 27.6028 37.1765C28.3674 36.885 29.0656 36.4433 29.656 35.8776C29.8335 36.3768 30.1434 36.8187 30.5525 37.1562C30.9617 37.4936 31.4549 37.714 31.9796 37.7939C32.3458 37.8684 32.7187 37.9052 33.0924 37.9037C33.9779 37.9103 34.8541 37.7249 35.6607 37.3604C36.4673 36.9958 37.1849 36.4607 37.764 35.7921C38.1742 36.4986 38.8462 37.0159 39.635 37.2324C40.319 37.3672 41.0263 37.3235 41.6883 37.1054C42.3503 36.8873 42.9447 36.5022 43.4138 35.9874Z" fill="#F54284"/>
<path d="M57.2339 56.237C56.6663 56.2457 56.1035 56.1334 55.583 55.9075C54.7866 55.5272 54.1637 54.8605 53.8393 54.0409C53.515 53.2214 53.5131 52.3098 53.8342 51.489C53.8964 51.3405 54.0148 51.2227 54.1637 51.1609C54.3126 51.0992 54.4798 51.0987 54.6291 51.1594C54.7048 51.1876 54.7741 51.2309 54.8327 51.2865C54.8912 51.3421 54.9379 51.409 54.9699 51.4831C55.0019 51.5573 55.0186 51.6371 55.0188 51.7178C55.0191 51.7985 55.003 51.8785 54.9715 51.9528C54.7695 52.4801 54.7716 53.0635 54.9774 53.5894C55.1832 54.1152 55.5778 54.5457 56.0843 54.7968C57.5518 55.4437 59.8998 54.5526 61.3673 53.3809C61.4949 53.2962 61.6497 53.2625 61.801 53.2863C61.9523 53.3101 62.0892 53.3897 62.1845 53.5094C62.2798 53.629 62.3266 53.7801 62.3157 53.9326C62.3048 54.0851 62.2369 54.228 62.1255 54.3329C60.7402 55.4722 59.0262 56.1394 57.2339 56.237Z" fill="#F54284"/>
<path d="M64.4356 80.0139C63.4061 80.0257 62.3869 79.8089 61.4517 79.3792C60.3789 78.8488 59.5511 77.9274 59.1392 76.8054C58.7273 75.6833 58.7627 74.4463 59.2382 73.3496C60.3388 70.7864 63.2127 69.5658 65.5362 69.2728C65.6165 69.2624 65.6981 69.2679 65.7763 69.2889C65.8544 69.31 65.9277 69.3462 65.9919 69.3955C66.056 69.4448 66.1098 69.5062 66.1502 69.5763C66.1906 69.6463 66.2167 69.7236 66.2272 69.8038C66.2376 69.8839 66.2321 69.9653 66.211 70.0434C66.19 70.1214 66.1537 70.1945 66.1043 70.2586C66.0549 70.3226 65.9933 70.3763 65.9231 70.4166C65.853 70.4569 65.7755 70.483 65.6952 70.4934C63.7018 70.7375 61.2682 71.714 60.3633 73.85C60.0145 74.661 59.99 75.5745 60.2947 76.4029C60.5994 77.2314 61.2103 77.912 62.002 78.3051C63.3961 79.0131 65.8052 79.0619 66.8325 78.061C67.1014 77.8092 67.2875 77.4819 67.3661 77.1223C67.4447 76.7627 67.4122 76.3878 67.2728 76.047C67.19 75.872 67.0582 75.7246 66.8932 75.6228C66.7283 75.521 66.5372 75.4691 66.3433 75.4734C66.2164 75.5162 66.0789 75.5162 65.952 75.4734C65.8332 75.4921 65.7116 75.4767 65.6012 75.4292C65.4908 75.3817 65.3962 75.3039 65.3283 75.2049C65.2568 75.0984 65.2187 74.973 65.2187 74.8448C65.2187 74.7166 65.2568 74.5912 65.3283 74.4847C65.4193 74.3608 65.5555 74.2775 65.7074 74.2528C66.2159 74.1324 66.7503 74.1875 67.2234 74.4092C67.6964 74.6308 68.0802 75.006 68.3122 75.4734C68.5719 76.0458 68.6467 76.6847 68.5262 77.3015C68.4057 77.9183 68.0958 78.4823 67.6396 78.9154C66.7488 79.672 65.6042 80.0644 64.4356 80.0139Z" fill="#F54284"/>
<g style="mix-blend-mode:multiply" opacity="0.5">
<path d="M49.5647 48.0103C49.3233 48.8023 49.1916 49.6237 49.1734 50.4514C50.9576 49.93 52.5402 48.8783 53.7104 47.4366C56.0095 44.6292 52.0228 40.6013 49.6993 43.4331C47.9627 45.5447 42.2884 46.2404 42.1172 41.6144C42.1072 41.0971 41.9464 40.5939 41.6543 40.1665C41.3623 39.739 40.9517 39.4058 40.4728 39.2077C39.994 39.0095 39.4677 38.955 38.9582 39.0507C38.4488 39.1465 37.9784 39.3884 37.6046 39.7469C36.1861 41.1262 31.7469 44.8001 30.8664 40.882C30.7641 40.5125 30.5662 40.1763 30.2925 39.9073C30.0188 39.6383 29.679 39.4458 29.3073 39.3494C28.9355 39.2529 28.5448 39.2558 28.1745 39.3577C27.8042 39.4596 27.4673 39.657 27.1976 39.93C24.6295 42.603 21.8168 42.7984 18.6372 43.4575L18.784 43.6039L19.6522 44.3607C24.0181 47.2413 28.0659 43.4086 29.5946 42.0782C27.3444 46.1427 32.2361 46.753 38.7664 42.481C36.7242 49.6336 46.2996 48.828 49.5647 48.0103Z" fill="#FBA0C7"/>
</g>
<path d="M57.0499 37.6842C59.0922 35.243 59.19 28.127 57.3556 23.855C55.5213 19.583 55.1177 15.3109 58.3829 14.8959C61.6481 14.4809 75.9073 22.6344 64.2896 39.5151C58.175 41.1384 57.0499 37.6842 57.0499 37.6842Z" fill="#F7AF75"/>
<path d="M59.1633 14.8837C64.055 22.2072 62.722 31.6545 58.4907 39.2221C59.5547 39.8446 61.3279 40.2474 64.2874 39.4662C75.1346 23.7451 63.4191 15.616 59.1633 14.8837Z" fill="#F26C71"/>
<path d="M39.4394 129.106C38.779 129.106 38.1309 129.106 37.4828 129.106C24.6055 128.581 15.5314 122.856 13.6848 120.842C13.5756 120.723 13.4912 120.584 13.4363 120.432C13.3815 120.28 13.3573 120.119 13.3653 119.958C13.3732 119.797 13.4131 119.639 13.4827 119.493C13.5522 119.347 13.65 119.217 13.7704 119.109C14.0107 118.893 14.3271 118.78 14.6503 118.796C14.9735 118.812 15.2771 118.955 15.4948 119.195C16.4609 120.256 24.6544 126.14 37.5806 126.664C51.0327 127.202 64.1301 121.721 76.3837 110.321C76.6128 110.094 76.9228 109.966 77.2459 109.966C77.5689 109.966 77.8789 110.094 78.108 110.321C78.3278 110.558 78.4448 110.871 78.4334 111.194C78.4219 111.517 78.283 111.821 78.0469 112.042C65.94 123.381 52.9526 129.106 39.4394 129.106Z" fill="#EF377A"/>
<path d="M72.4576 122.295C72.5187 122.148 72.5799 122.002 72.6288 121.843L72.7388 121.904C72.9627 122.064 73.2183 122.173 73.4884 122.226C73.7584 122.278 74.0366 122.272 74.304 122.207C74.5714 122.143 74.8218 122.022 75.0384 121.853C75.2549 121.684 75.4325 121.47 75.559 121.226C75.6855 120.982 75.7581 120.714 75.7718 120.44C75.7855 120.166 75.7401 119.892 75.6385 119.637C75.5369 119.382 75.3816 119.151 75.183 118.961C74.9844 118.771 74.7473 118.626 74.4876 118.535C74.176 118.398 73.8576 118.275 73.5337 118.169C73.698 117.934 73.8058 117.664 73.8488 117.381C73.8918 117.097 73.8688 116.808 73.7816 116.535C73.6945 116.261 73.5454 116.012 73.3461 115.805C73.1467 115.599 72.9024 115.441 72.6321 115.344C72.3618 115.247 72.0727 115.213 71.7873 115.246C71.5019 115.278 71.2278 115.376 70.9862 115.531C70.7447 115.686 70.5422 115.895 70.3944 116.14C70.2466 116.386 70.1575 116.663 70.134 116.949C70.134 117.181 70.134 117.412 70.134 117.657C69.9139 117.657 69.6938 117.657 69.4614 117.559C69.229 117.461 69.0334 117.486 69.1435 117.486C68.7 117.465 68.2644 117.608 67.9206 117.889C67.6429 118.125 67.4559 118.45 67.3912 118.808C67.3265 119.166 67.3883 119.536 67.5659 119.854C67.7719 120.211 68.079 120.501 68.4487 120.685C68.8185 120.87 69.2345 120.941 69.6449 120.891C69.5814 121.021 69.5282 121.156 69.4859 121.294C69.4025 121.673 69.4622 122.069 69.6534 122.407C69.8447 122.744 70.1541 123 70.5223 123.124C70.8905 123.248 71.2917 123.232 71.6488 123.079C72.0059 122.926 72.2939 122.647 72.4576 122.295Z" fill="#FEFE7F"/>
<path d="M61.1703 122.991C61.0502 123.098 60.9359 123.212 60.8279 123.332L60.7545 123.222C60.6156 122.987 60.428 122.785 60.2043 122.628C59.9805 122.471 59.7257 122.363 59.457 122.313C59.1883 122.262 58.9118 122.269 58.6461 122.334C58.3804 122.399 58.1316 122.519 57.9164 122.687C57.7011 122.856 57.5244 123.068 57.398 123.31C57.2716 123.552 57.1985 123.818 57.1835 124.091C57.1686 124.363 57.2121 124.636 57.3113 124.89C57.4104 125.145 57.5629 125.375 57.7584 125.566C57.9908 125.822 58.2354 126.066 58.4799 126.298C58.2371 126.445 58.0312 126.646 57.8781 126.885C57.725 127.123 57.6287 127.394 57.5967 127.676C57.5647 127.957 57.5977 128.243 57.6934 128.509C57.789 128.776 57.9446 129.018 58.1483 129.215C58.3521 129.413 58.5984 129.561 58.8685 129.649C59.1386 129.737 59.4252 129.761 59.7064 129.721C59.9875 129.681 60.2558 129.578 60.4905 129.418C60.7252 129.258 60.9201 129.047 61.0603 128.8L61.3171 128.129C61.5005 128.251 61.7084 128.361 61.8918 128.495C62.0753 128.63 62.2465 128.739 62.1487 128.691C62.5281 128.876 62.9591 128.927 63.3716 128.837C63.7074 128.743 64.0031 128.542 64.213 128.264C64.423 127.986 64.5355 127.647 64.5333 127.299C64.4945 126.888 64.3361 126.496 64.0776 126.173C63.819 125.85 63.4717 125.609 63.0781 125.48C63.1897 125.389 63.2959 125.291 63.396 125.188C63.63 124.883 63.7446 124.504 63.7184 124.122C63.6922 123.739 63.5271 123.379 63.2539 123.109C62.9807 122.84 62.6182 122.679 62.2346 122.657C61.851 122.635 61.4726 122.754 61.1703 122.991Z" fill="#FEFE7F"/>
<path d="M47.8045 131.73L47.4621 131.388L47.5599 131.315C47.8033 131.182 48.0149 130.999 48.1804 130.777C48.3458 130.555 48.4612 130.3 48.5184 130.029C48.5756 129.758 48.5734 129.478 48.5119 129.208C48.4505 128.938 48.3312 128.685 48.1623 128.466C47.9934 128.246 47.7788 128.066 47.5334 127.937C47.288 127.808 47.0176 127.734 46.7408 127.719C46.4639 127.705 46.1872 127.75 45.9296 127.853C45.672 127.955 45.4397 128.112 45.2486 128.312C44.9882 128.536 44.7392 128.772 44.5026 129.02C44.3587 128.774 44.1599 128.565 43.9216 128.408C43.6834 128.251 43.4121 128.15 43.1288 128.115C42.8456 128.079 42.5579 128.11 42.2882 128.203C42.0185 128.296 41.7739 128.451 41.5735 128.653C41.3731 128.856 41.2223 129.103 41.1326 129.373C41.0429 129.644 41.0169 129.931 41.0566 130.213C41.0962 130.496 41.2004 130.765 41.3612 131C41.5219 131.236 41.7348 131.431 41.9834 131.571L42.6438 131.828C42.5215 132.023 42.4114 132.218 42.2891 132.401C42.1668 132.584 42.0201 132.755 42.0813 132.658C41.8846 133.033 41.8324 133.467 41.9345 133.878C42.0124 134.225 42.2062 134.535 42.484 134.756C42.7619 134.978 43.1073 135.099 43.4632 135.099C43.8751 135.064 44.2676 134.909 44.5916 134.653C44.9157 134.397 45.157 134.051 45.2853 133.659C45.3735 133.773 45.4717 133.879 45.5788 133.976C45.8772 134.27 46.2806 134.435 46.7003 134.432C47.12 134.43 47.5216 134.262 47.8167 133.964C48.1119 133.666 48.2764 133.263 48.2741 132.844C48.2718 132.425 48.1029 132.025 47.8045 131.73Z" fill="#FEFE7F"/>
<path d="M29.9856 126.603C29.8456 126.684 29.7108 126.774 29.5821 126.872C29.5772 126.831 29.5772 126.79 29.5821 126.75C29.4122 126.27 29.0623 125.874 28.6061 125.647C28.1498 125.419 27.6229 125.377 27.1362 125.529C26.8588 125.626 26.607 125.784 26.4002 125.993C26.1933 126.201 26.0368 126.453 25.9424 126.731C25.8481 127.009 25.8185 127.305 25.8558 127.595C25.8931 127.886 25.9965 128.165 26.1579 128.41C26.3242 128.709 26.5079 128.999 26.7082 129.277C26.4412 129.373 26.1998 129.528 26.0024 129.732C25.8051 129.935 25.657 130.181 25.5697 130.451C25.4824 130.721 25.458 131.006 25.4985 131.287C25.539 131.567 25.6434 131.835 25.8035 132.068C25.9636 132.302 26.1752 132.497 26.4221 132.636C26.6691 132.776 26.9448 132.857 27.2281 132.874C27.5114 132.891 27.7948 132.843 28.0566 132.733C28.3184 132.624 28.5515 132.456 28.7382 132.243C28.8605 132.047 28.9951 131.852 29.1173 131.644L29.6065 132.108C29.741 132.255 29.9 132.426 29.8267 132.365C30.1738 132.638 30.6081 132.776 31.0496 132.755C31.3894 132.733 31.7129 132.602 31.9727 132.382C32.2325 132.163 32.4148 131.865 32.4926 131.535C32.5391 131.126 32.4642 130.712 32.2773 130.345C32.0903 129.979 31.7994 129.675 31.4409 129.472C31.5702 129.406 31.693 129.329 31.8078 129.24C31.9812 129.12 32.1294 128.968 32.2438 128.792C32.3583 128.615 32.4368 128.418 32.4748 128.211C32.5129 128.004 32.5097 127.792 32.4655 127.586C32.4214 127.38 32.3371 127.185 32.2174 127.012C32.0978 126.839 31.9452 126.691 31.7682 126.577C31.5913 126.463 31.3936 126.384 31.1864 126.347C30.9791 126.309 30.7664 126.312 30.5604 126.356C30.3544 126.4 30.159 126.484 29.9856 126.603Z" fill="#FEFE7F"/>
<path d="M16.5702 119.988L16.1177 120.183C16.112 120.143 16.112 120.102 16.1177 120.061C16.0333 119.563 15.7602 119.117 15.3549 118.815C14.9496 118.512 14.4432 118.377 13.9409 118.438C13.6515 118.485 13.3766 118.598 13.1368 118.766C12.897 118.935 12.6985 119.155 12.5562 119.411C12.4138 119.667 12.3314 119.952 12.3149 120.244C12.2985 120.536 12.3485 120.828 12.4612 121.099C12.5713 121.416 12.7058 121.746 12.8403 122.051C12.5599 122.096 12.2937 122.205 12.0621 122.37C11.8305 122.534 11.6396 122.749 11.5043 122.998C11.369 123.247 11.2926 123.524 11.2813 123.808C11.2699 124.091 11.3238 124.373 11.4387 124.633C11.5536 124.892 11.7266 125.121 11.9443 125.304C12.162 125.486 12.4186 125.616 12.6945 125.684C12.9704 125.751 13.2582 125.755 13.5357 125.694C13.8133 125.634 14.0732 125.511 14.2956 125.334L14.7725 124.809C14.907 124.992 15.0538 125.175 15.1761 125.359C15.2984 125.542 15.4084 125.725 15.3351 125.639C15.6251 125.97 16.0242 126.187 16.4601 126.25C16.806 126.29 17.1556 126.215 17.4542 126.036C17.7529 125.857 17.9838 125.584 18.1111 125.261C18.2316 124.867 18.2332 124.446 18.1158 124.051C17.9983 123.656 17.767 123.304 17.4507 123.039L17.8543 122.881C18.0446 122.797 18.2164 122.676 18.36 122.525C18.5035 122.375 18.616 122.198 18.6909 122.004C18.7659 121.81 18.8018 121.604 18.7968 121.396C18.7917 121.188 18.7457 120.983 18.6614 120.794C18.5771 120.604 18.4561 120.432 18.3054 120.289C18.1547 120.146 17.9771 120.033 17.7829 119.958C17.5888 119.884 17.3817 119.848 17.1736 119.853C16.9656 119.858 16.7605 119.904 16.5702 119.988Z" fill="#FEFE7F"/>
<path d="M28.4325 33.7783L24.4458 0.163452L42.6917 30.3118C42.0095 31.5038 41.079 32.5358 39.9629 33.338C38.8469 34.1403 37.5714 34.6942 36.2225 34.9622C33.5663 35.4494 30.8231 35.0325 28.4325 33.7783Z" fill="#FBFE79"/>
<path d="M35.6976 18.7407L24.459 0.163452L27.5285 26.0398C31.5641 25.576 34.3157 22.3658 35.6976 18.7407Z" fill="#FBE957"/>
<path d="M31.3562 11.5515L24.459 0.163452L26.22 15.0301C27.3363 15.075 28.4377 14.7613 29.3622 14.1352C30.2867 13.509 30.9856 12.6035 31.3562 11.5515Z" fill="#FBCA54"/>
<g style="mix-blend-mode:multiply" opacity="0.4">
<path d="M28.9336 7.56018C31.2204 16.6535 32.3822 25.2464 30.3033 34.5594C32.2141 35.1935 34.2551 35.3321 36.2344 34.9623C37.5833 34.6942 38.8588 34.1403 39.9748 33.338C41.0909 32.5358 42.0214 31.5038 42.7036 30.3118L28.9336 7.56018Z" fill="#FBAA94"/>
</g>
<path d="M44.0744 32.5211C43.7381 32.9659 43.5562 33.5079 43.5562 34.0651C43.5562 34.6223 43.7381 35.1644 44.0744 35.6091C44.236 36.0087 44.4411 36.3893 44.6858 36.7443C45.7865 38.2944 48.0611 38.2456 49.7487 38.0869C50.0348 38.0774 50.312 37.9853 50.5468 37.8216C50.7815 37.658 50.9636 37.4299 51.071 37.1651C51.1785 36.9002 51.2066 36.6099 51.1521 36.3294C51.0975 36.0489 50.9626 35.7902 50.7637 35.5847C49.3941 34.0224 46.4224 30.0067 44.0744 32.5211Z" fill="#04D6A9"/>
<path d="M41.8843 33.5951C41.3543 33.4227 40.7825 33.4272 40.2552 33.6077C39.728 33.7883 39.2739 34.1352 38.9615 34.596C38.6391 34.8855 38.3444 35.2042 38.0811 35.548C36.9682 37.0982 37.7631 39.2098 38.4602 40.7721C38.563 41.0391 38.7413 41.2705 38.9734 41.4383C39.2055 41.606 39.4815 41.7028 39.7677 41.7171C40.0539 41.7313 40.3381 41.6622 40.5858 41.5183C40.8334 41.3744 41.0339 41.1619 41.1628 40.9064C42.2145 39.1122 45.0394 34.9866 41.8843 33.5951Z" fill="#04D6A9"/>
<path d="M36.4559 35.1453C37.0014 35.2606 37.5698 35.1956 38.075 34.9599C38.5802 34.7243 38.9949 34.331 39.2563 33.8393C39.5433 33.5197 39.7973 33.1721 40.0145 32.8018C40.9684 31.1418 39.9534 29.1401 39.0851 27.651C38.9541 27.3963 38.7517 27.1851 38.5025 27.0432C38.2534 26.9012 37.9684 26.8346 37.682 26.8514C37.3957 26.8682 37.1204 26.9678 36.8897 27.1379C36.659 27.308 36.4827 27.5414 36.3825 27.8096C35.5509 29.7015 33.1662 34.0956 36.4559 35.1453Z" fill="#04D6A9"/>
<path d="M27.5407 30.324C27.405 29.8975 27.1408 29.5233 26.784 29.2524C26.4272 28.9815 25.9954 28.8272 25.5474 28.8105C24.9947 28.4922 24.3832 28.2887 23.7497 28.2124C22.0009 27.9682 20.7658 28.9569 19.4083 29.8357C18.9078 30.1583 18.556 30.6659 18.4299 31.2471C18.3038 31.8283 18.4138 32.4357 18.7358 32.936C19.7875 34.3885 22.0621 34.535 23.713 34.4373C25.8654 34.303 28.2378 32.7895 27.5407 30.324Z" fill="#04D6A9"/>
<path d="M29.4966 31.9718C29.0795 31.8034 28.6204 31.7681 28.1824 31.8708C27.7444 31.9736 27.349 32.2093 27.0507 32.5454C26.4556 32.7756 25.9114 33.1197 25.4487 33.5585C24.1524 34.7791 24.128 36.3293 23.9445 37.9404C23.8924 38.5225 24.0685 39.1021 24.4356 39.5574C24.8028 40.0126 25.3325 40.3081 25.9134 40.3816C27.7234 40.4914 29.2642 38.8314 30.2426 37.4888C31.5144 35.841 31.8446 33.0459 29.4966 31.9718Z" fill="#04D6A9"/>
<path d="M46.9606 25.4173C46.8378 25.2016 46.66 25.0221 46.4452 24.8973C46.2304 24.7725 45.9862 24.7068 45.7377 24.7068C45.4891 24.7068 45.245 24.7725 45.0301 24.8973C44.8153 25.0221 44.6375 25.2016 44.5147 25.4173C44.4047 25.576 44.0011 26.2473 43.8544 26.406C43.3795 26.8942 42.9459 27.4208 42.5581 27.9805C42.4167 28.2105 42.3222 28.4661 42.2798 28.7325C42.2375 28.999 42.2481 29.2712 42.3111 29.5336C42.3741 29.796 42.4883 30.0434 42.6472 30.2618C42.806 30.4801 43.0064 30.6651 43.2368 30.8062C43.4673 30.9472 43.7233 31.0416 43.9903 31.0839C44.2573 31.1262 44.53 31.1156 44.7929 31.0527C45.0558 30.9897 45.3037 30.8758 45.5224 30.7173C45.7412 30.5587 45.9265 30.3588 46.0679 30.1287C45.9578 30.2752 46.6549 29.4208 46.6304 29.4452C46.8545 29.0526 47.0506 28.6447 47.2174 28.2246C47.4019 27.7701 47.4748 27.2782 47.4302 26.7899C47.3855 26.3015 47.2245 25.8309 46.9606 25.4173Z" fill="#04D6A9"/>
<path d="M48.6112 30.9831C48.5592 30.6472 48.4315 30.3273 48.2376 30.0478C48.0438 29.7683 47.7888 29.5364 47.4921 29.3695C47.1954 29.2026 46.8645 29.1051 46.5246 29.0844C46.1846 29.0637 45.8444 29.1203 45.5295 29.2499L44.918 29.5062C44.918 29.1766 44.918 28.8471 44.8447 28.5175C44.5879 26.174 40.8457 26.6867 41.1759 29.0302C41.2807 29.8255 41.4567 30.6098 41.7018 31.3737C41.0658 31.5568 40.4789 31.8009 39.794 32.0328C39.3174 32.2369 38.9414 32.6216 38.7488 33.1022C38.5562 33.5829 38.5627 34.1201 38.7668 34.596C38.9833 35.0611 39.3705 35.4255 39.8483 35.614C40.3262 35.8025 40.8583 35.8008 41.3349 35.6091C41.5478 35.5364 41.7561 35.4507 41.9586 35.3528C42.0596 35.8867 42.2894 36.3881 42.6282 36.8134C42.967 37.2388 43.4046 37.5753 43.903 37.7939C44.2531 37.933 44.6335 37.9784 45.0066 37.9257C45.3797 37.873 45.7325 37.724 46.0302 37.4935C46.3279 37.2629 46.5602 36.9588 46.704 36.6112C46.8478 36.2636 46.8982 35.8845 46.8502 35.5115C46.9236 36.1218 46.8502 33.9979 46.8502 34.6326C46.8502 34.3153 46.7891 33.998 46.7524 33.6928C46.7583 33.6238 46.7583 33.5543 46.7524 33.4853C47.3277 33.3919 47.8438 33.0783 48.1909 32.611C48.5381 32.1437 48.6889 31.5597 48.6112 30.9831Z" fill="#FEFE9F"/>
<path d="M29.2031 26.4182C28.9471 25.9846 28.5333 25.6665 28.048 25.5301C27.5627 25.3936 27.0434 25.4494 26.5983 25.6858C26.1569 25.9347 25.832 26.3477 25.6945 26.8348C25.5571 27.3218 25.6182 27.8434 25.8645 28.2856C25.922 28.3947 25.9514 28.5164 25.9502 28.6396C25.5038 28.5456 25.0629 28.4274 24.6294 28.2856C23.9446 28.0415 22.7951 28.0049 22.526 28.8837C22.4661 29.3015 22.5209 29.7276 22.6846 30.1167C22.8483 30.5057 23.1147 30.8432 23.4554 31.093C23.6144 31.2517 23.7734 31.3859 23.9324 31.5202L23.2597 31.984C22.3915 32.5821 22.257 34.2177 23.541 34.4862C25.033 34.7914 27.2098 33.7172 28.3349 32.7408C29.1667 31.9354 29.7042 30.875 29.8616 29.7289C30.019 28.5829 29.7872 27.4173 29.2031 26.4182Z" fill="#FECB6C"/>
<path d="M39.4405 36.6099C39.4465 36.549 39.4465 36.4877 39.4405 36.4268C39.4529 36.2766 39.4529 36.1255 39.4405 35.9752V35.8166C39.3709 35.4339 39.1877 35.081 38.9147 34.8035C38.3642 34.2531 37.6949 33.8356 36.958 33.5829C37.2498 33.3134 37.5084 33.0102 37.7284 32.6797C37.932 32.3618 38.0649 32.0041 38.1181 31.6306C38.1713 31.2571 38.1436 30.8766 38.0368 30.5147C37.9301 30.1528 37.7467 29.818 37.4992 29.5329C37.2517 29.2478 36.9457 29.0191 36.602 28.8621C36.2584 28.7051 35.8849 28.6236 35.5069 28.623C35.129 28.6225 34.7553 28.7029 34.4111 28.8588C34.0669 29.0147 33.7603 29.2426 33.5119 29.5269C33.2635 29.8112 33.0792 30.1455 32.9713 30.507L32.8368 30.739L32.5188 31.2638C32.1854 31.0191 31.8818 30.7364 31.6139 30.4216C31.2126 29.9874 30.6554 29.7294 30.0641 29.7043C29.4728 29.6791 28.8955 29.8888 28.4587 30.2873C28.2111 30.5218 28.0198 30.8092 27.8993 31.1279C27.7787 31.4467 27.7319 31.7885 27.7625 32.1279C27.7931 32.4672 27.9002 32.7952 28.0759 33.0874C28.2515 33.3795 28.4911 33.6282 28.7767 33.8148C29.2422 34.1552 29.7473 34.438 30.2809 34.657C29.4257 35.4141 28.8632 36.4463 28.6911 37.5742C28.6794 37.9495 28.7653 38.3214 28.9405 38.6536C29.1157 38.9859 29.3742 39.2672 29.6908 39.47C30.0073 39.6729 30.3712 39.7904 30.7468 39.8111C31.1224 39.8318 31.497 39.755 31.834 39.5881C33.0569 38.9657 33.0569 38.1113 33.6439 37.025V36.9395C34.5234 37.572 35.4611 38.1196 36.4444 38.5751C36.7717 38.6832 37.1194 38.716 37.4612 38.671C37.8031 38.6261 38.1303 38.5046 38.4185 38.3156C38.7067 38.1266 38.9483 37.875 39.1253 37.5796C39.3023 37.2842 39.41 36.9527 39.4405 36.6099Z" fill="white"/>
<path d="M27.2101 88.2162C26.0727 86.7881 18.8086 77.5727 14.6752 80.2824C11.9725 82.0522 12.584 102.192 15.36 103.412C18.136 104.633 25.5591 100.141 26.6475 97.9564C27.7359 95.7716 27.2101 88.2162 27.2101 88.2162Z" fill="#F74E79"/>
<g style="mix-blend-mode:color-dodge" opacity="0.3">
<path d="M27.3209 90.7916C27.3209 89.3147 27.2109 88.2162 27.2109 88.2162C26.0735 86.7881 18.8094 77.5727 14.676 80.2824C13.9667 80.7462 13.4531 82.4916 13.2207 84.8229C18.2713 83.8343 23.2119 87.789 27.3209 90.7916Z" fill="#F79A4F"/>
</g>
<g style="mix-blend-mode:multiply" opacity="0.6">
<path d="M13.4282 97.8832C13.844 100.813 14.4921 103.022 15.3604 103.4C18.1242 104.621 25.5595 100.129 26.6479 97.9442C27.0492 96.8657 27.2602 95.7259 27.2716 94.5755C26.7824 94.5755 26.3667 94.5755 26.1588 94.5755C22.0498 93.9652 17.9408 98.7498 13.4282 97.8832Z" fill="#DE67A3"/>
</g>
<path d="M33.948 88.5823C34.6818 86.7392 43.8047 79.611 45.8348 82.4794C47.8648 85.3478 46.5807 102.253 44.6852 103.949C42.7897 105.646 33.0308 99.177 32.9452 97.7855C32.8596 96.3941 33.948 88.5823 33.948 88.5823Z" fill="#F74E79"/>
<g style="mix-blend-mode:color-dodge" opacity="0.3">
<path d="M33.9474 88.5824C33.9474 88.5824 33.7884 89.6931 33.605 91.1456C36.9925 87.252 42.9236 84.9817 46.8125 87.2519C46.8538 85.5958 46.5194 83.9517 45.8341 82.4429C43.8041 79.5745 34.6811 86.7393 33.9474 88.5824Z" fill="#F79A4F"/>
</g>
<g style="mix-blend-mode:multiply" opacity="0.6">
<path d="M33.1786 94.6243C33.0349 95.6599 32.9573 96.7036 32.9463 97.749C33.0319 99.1405 42.7908 105.622 44.6863 103.913C45.2611 103.412 45.7747 101.472 46.166 99.0306C41.0175 98.8719 37.4344 93.9041 33.1786 94.6243Z" fill="#DE67A3"/>
</g>
<g style="mix-blend-mode:multiply" opacity="0.6">
<path d="M25.1314 91.3531C25.0274 91.3518 24.9274 91.3127 24.8501 91.2432C24.2142 90.6573 21.9518 88.802 19.6772 89.1438C19.569 89.1583 19.4594 89.1309 19.3708 89.0674C19.2821 89.0039 19.2211 88.909 19.2003 88.802C19.1898 88.7482 19.1904 88.6928 19.2022 88.6392C19.2139 88.5856 19.2366 88.5349 19.2686 88.4903C19.3007 88.4457 19.3415 88.4082 19.3886 88.3799C19.4358 88.3517 19.4882 88.3333 19.5427 88.326C22.1108 87.8988 24.5077 89.8029 25.4127 90.6329C25.4903 90.7107 25.534 90.816 25.534 90.9258C25.534 91.0357 25.4903 91.141 25.4127 91.2188C25.3399 91.2983 25.2391 91.3464 25.1314 91.3531Z" fill="#DE67A3"/>
</g>
<g style="mix-blend-mode:multiply" opacity="0.6">
<path d="M25.3386 94.0384C25.2457 94.0402 25.155 94.01 25.0818 93.9529C24.3647 93.4321 23.5193 93.1157 22.636 93.0375C22.0837 92.9695 21.5251 92.9695 20.9728 93.0375C20.8243 93.0564 20.6773 93.085 20.5326 93.1229C20.2031 93.2182 19.8602 93.2594 19.5175 93.245C19.4628 93.2389 19.4098 93.2221 19.3616 93.1954C19.3134 93.1687 19.271 93.1328 19.2369 93.0897C19.2028 93.0465 19.1776 92.997 19.1628 92.944C19.1479 92.8911 19.1438 92.8357 19.1507 92.7812C19.1567 92.7281 19.1733 92.6768 19.1994 92.6301C19.2255 92.5835 19.2606 92.5426 19.3027 92.5096C19.3448 92.4767 19.393 92.4525 19.4446 92.4383C19.4962 92.4242 19.5501 92.4204 19.6031 92.4272C19.8555 92.4223 20.1062 92.3854 20.3491 92.3173C20.5225 92.2752 20.698 92.2426 20.875 92.2197C21.496 92.139 22.125 92.139 22.746 92.2197C23.7849 92.3153 24.7782 92.6908 25.6199 93.306C25.7053 93.3755 25.7606 93.4751 25.7743 93.5842C25.788 93.6934 25.7589 93.8036 25.6933 93.8919C25.6491 93.9414 25.5942 93.9804 25.5328 94.0057C25.4713 94.0311 25.405 94.0422 25.3386 94.0384Z" fill="#DE67A3"/>
</g>
<g style="mix-blend-mode:multiply" opacity="0.6">
<path d="M35.0132 91.7803C34.9567 91.7918 34.8985 91.7918 34.842 91.7803C34.7922 91.7579 34.7473 91.7259 34.7099 91.6861C34.6725 91.6464 34.6433 91.5997 34.624 91.5487C34.6047 91.4977 34.5956 91.4433 34.5974 91.3888C34.5991 91.3343 34.6116 91.2807 34.6341 91.231C35.3801 89.571 39.4402 88.5092 40.9321 88.5092C40.9918 88.4988 41.0531 88.5016 41.1116 88.5174C41.1701 88.5332 41.2245 88.5616 41.2709 88.6005C41.3172 88.6395 41.3545 88.6881 41.3801 88.7429C41.4057 88.7978 41.419 88.8575 41.419 88.918C41.419 88.9785 41.4057 89.0383 41.3801 89.0931C41.3545 89.148 41.3172 89.1966 41.2709 89.2356C41.2245 89.2745 41.1701 89.3029 41.1116 89.3187C41.0531 89.3344 40.9918 89.3373 40.9321 89.3269C39.5013 89.3269 35.9304 90.401 35.4045 91.5728C35.3645 91.6397 35.3069 91.6944 35.2379 91.731C35.1689 91.7676 35.0912 91.7846 35.0132 91.7803Z" fill="#DE67A3"/>
</g>
<g style="mix-blend-mode:multiply" opacity="0.6">
<path d="M35.0862 93.782C35.0216 93.7948 34.9551 93.7948 34.8905 93.782C34.7925 93.7277 34.719 93.6381 34.6849 93.5314C34.6508 93.4248 34.6588 93.3093 34.7071 93.2084C35.0495 92.5126 36.4559 92.5248 39.1096 92.7811H39.7333C39.793 92.7708 39.8543 92.7736 39.9128 92.7894C39.9713 92.8052 40.0257 92.8336 40.072 92.8725C40.1184 92.9115 40.1557 92.9601 40.1813 93.0149C40.2069 93.0698 40.2201 93.1295 40.2201 93.19C40.2201 93.2505 40.2069 93.3103 40.1813 93.3651C40.1557 93.42 40.1184 93.4686 40.072 93.5076C40.0257 93.5465 39.9713 93.5749 39.9128 93.5906C39.8543 93.6064 39.793 93.6092 39.7333 93.5989H39.0607C36.9206 93.3914 35.7099 93.3792 35.4653 93.5989C35.4262 93.6623 35.3697 93.7133 35.3026 93.7457C35.2354 93.7781 35.1603 93.7908 35.0862 93.782Z" fill="#DE67A3"/>
</g>
<path d="M26.1592 98.0541C25.242 97.1997 25.2909 90.0837 25.6945 87.7768C26.098 85.4699 34.7563 85.3356 34.8174 88.1186C34.8785 90.9015 35.4044 97.3828 33.8758 98.164C32.3471 98.9451 27.2109 99.0062 26.1592 98.0541Z" fill="#F7C442"/>
<g style="mix-blend-mode:multiply" opacity="0.6">
<path d="M26.1583 94.551C25.9303 94.5333 25.7013 94.5333 25.4734 94.551C25.4005 95.7735 25.636 96.9947 26.1583 98.1029C27.1855 99.055 32.3462 98.9939 33.8749 98.2128C34.5475 97.871 34.8287 96.4307 34.9143 94.6853C33.4713 94.4045 26.8553 94.551 26.1583 94.551Z" fill="#DE67A3"/>
</g>
<path d="M21.6942 85.6775C21.6263 85.6782 21.5594 85.6617 21.4995 85.6297C21.4396 85.5977 21.3889 85.5512 21.3518 85.4944C20.5091 84.581 19.4299 83.9178 18.2334 83.5781L18.5269 82.8091L18.3801 83.1875L18.5391 82.8091C19.8932 83.1952 21.1074 83.9622 22.0366 85.0183C22.099 85.1077 22.1237 85.2178 22.1054 85.3252C22.0871 85.4325 22.0273 85.5283 21.9388 85.592C21.8699 85.6483 21.7833 85.6785 21.6942 85.6775Z" fill="white"/>
<path d="M16.2044 83.2362H16.1187C15.9209 83.1928 15.7209 83.1602 15.5195 83.1386C15.4115 83.1178 15.3152 83.0574 15.2496 82.9693C15.1839 82.8812 15.1537 82.7718 15.1649 82.6625C15.183 82.5534 15.2428 82.4555 15.3318 82.3895C15.4207 82.3234 15.5319 82.2944 15.6418 82.3086L16.2777 82.4184C16.3316 82.4286 16.3829 82.4494 16.4288 82.4796C16.4746 82.5097 16.5139 82.5485 16.5446 82.5939C16.5753 82.6393 16.5967 82.6903 16.6076 82.744C16.6185 82.7977 16.6185 82.853 16.6079 82.9067C16.5906 83.0004 16.5405 83.0849 16.4666 83.1452C16.3927 83.2055 16.2998 83.2378 16.2044 83.2362Z" fill="white"/>
<path d="M37.5551 87.3496C37.4911 87.3532 37.4273 87.3405 37.3695 87.3127C37.3118 87.285 37.262 87.2431 37.2249 87.1909C37.1912 87.1488 37.1663 87.1003 37.1517 87.0484C37.1371 86.9964 37.1331 86.9421 37.14 86.8886C37.1468 86.8351 37.1644 86.7835 37.1915 86.7369C37.2187 86.6903 37.255 86.6496 37.2983 86.6173C38.3459 85.7603 39.6206 85.226 40.967 85.0793C41.0752 85.0793 41.1792 85.1213 41.2568 85.1965C41.3344 85.2717 41.3796 85.3742 41.3828 85.4821C41.3844 85.5366 41.3753 85.5909 41.3559 85.6419C41.3365 85.6929 41.3072 85.7395 41.2697 85.7792C41.2323 85.8189 41.1873 85.8508 41.1375 85.8731C41.0876 85.8955 41.0339 85.9078 40.9793 85.9093C39.8109 86.0463 38.7069 86.5167 37.7997 87.2642C37.7307 87.3204 37.6441 87.3507 37.5551 87.3496Z" fill="white"/>
<path d="M43.2546 85.3845C43.1725 85.3869 43.0915 85.365 43.0219 85.3216C42.9522 85.2781 42.897 85.2151 42.8632 85.1404C42.8218 85.0382 42.8216 84.9239 42.8626 84.8215C42.9037 84.7192 42.9828 84.6366 43.0834 84.5911C43.3809 84.4677 43.7048 84.4215 44.025 84.4568C44.1343 84.4721 44.2334 84.5288 44.3018 84.6152C44.3701 84.7016 44.4024 84.8111 44.3919 84.9207C44.3766 85.0297 44.3198 85.1286 44.2332 85.1969C44.1466 85.2651 44.037 85.2973 43.9272 85.2868C43.7525 85.2614 43.5741 85.2868 43.4136 85.3601L43.2546 85.3845Z" fill="white"/>
<defs>
<radialGradient id="paint0_radial_21_1950" cx="0" cy="0" r="1" gradientUnits="userSpaceOnUse" gradientTransform="translate(17.9901 56.9449) scale(43.9149 43.8311)">
<stop stop-color="#F7DC9A"/>
<stop offset="0.2" stop-color="#F7D697"/>
<stop offset="0.46" stop-color="#F7C68D"/>
<stop offset="0.74" stop-color="#F7AC7C"/>
<stop offset="1" stop-color="#F78E6A"/>
</radialGradient>
</defs>
</svg>
