<svg width="76" height="134" viewBox="0 0 76 134" fill="none" xmlns="http://www.w3.org/2000/svg">
<path d="M68.6817 57.3595C65.5941 61.8132 57.0673 74.5619 42.4258 68.4756C40.4358 71.1406 43.7283 73.8416 43.7283 73.8416C43.7283 73.8416 54.9929 81.3925 64.6534 76.0145C74.314 70.6364 75.6647 62.6655 75.6647 62.6655C73.9675 62.6007 72.3014 62.1923 70.7681 61.465C68.9591 60.3486 68.6817 57.3595 68.6817 57.3595Z" fill="#F789B3"/>
<g style="mix-blend-mode:multiply" opacity="0.5">
<path d="M75.6636 62.6654C74.7242 62.6089 73.7917 62.4682 72.8776 62.2452C66.775 73.0493 53.5807 79.3156 42.4487 72.341C42.7993 72.9004 43.23 73.4059 43.7272 73.8416C43.7272 73.8416 54.9917 81.3924 64.6523 76.0144C74.3128 70.6364 75.6636 62.6654 75.6636 62.6654Z" fill="#F75E59"/>
</g>
<path d="M40.0972 81.5005C36.5755 81.5005 20.8002 80.6842 19.0876 96.1579C17.375 111.632 24.539 113.192 20.8123 120.419C24.3581 116.95 28.3501 114.417 29.2547 118.162C29.8388 120.097 29.8051 122.165 29.1582 124.08C29.1582 124.08 36.2619 121.679 33.488 113C30.714 104.321 25.4435 96.194 28.8446 91.1881C32.2457 86.1822 41.3153 84.7057 41.3153 84.7057L40.0972 81.5005Z" fill="#F789B3"/>
<g style="mix-blend-mode:multiply" opacity="0.5">
<path d="M33.4898 112.976C30.7159 104.261 25.4454 96.1699 28.8465 91.1641C32.2476 86.1582 41.3171 84.6817 41.3171 84.6817L40.7744 83.2651C34.4546 82.785 29.0515 87.5027 25.8916 92.1004C21.4774 99.3631 24.6856 107.238 27.8454 115.113C27.8454 115.545 27.9058 115.977 27.9178 116.398C28.2774 116.541 28.5914 116.779 28.8269 117.085C29.0625 117.391 29.2109 117.755 29.2565 118.138C29.8406 120.073 29.8069 122.141 29.1601 124.056C29.1601 124.056 36.2758 121.704 33.4898 112.976Z" fill="#F75E59"/>
</g>
<path d="M51.2415 130.323C51.3247 130.96 51.1503 131.603 50.7568 132.112C50.3632 132.621 49.7827 132.953 49.143 133.036C48.5033 133.119 47.8567 132.945 47.3455 132.553C46.8344 132.162 46.5005 131.584 46.4173 130.947L35.804 49.0883C35.7628 48.7731 35.7844 48.4528 35.8676 48.1458C35.9508 47.8388 36.0939 47.5512 36.2887 47.2992C36.6823 46.7905 37.2628 46.4581 37.9025 46.3753C38.5423 46.2925 39.1888 46.4661 39.7 46.8578C40.2112 47.2496 40.5451 47.8274 40.6282 48.4641L51.2415 130.323Z" fill="#E06475"/>
<g style="mix-blend-mode:multiply" opacity="0.5">
<path d="M41.907 58.6919L40.5804 48.5001C40.5392 48.1848 40.436 47.8807 40.2768 47.6051C40.1175 47.3295 39.9053 47.0878 39.6521 46.8938C39.399 46.6999 39.11 46.5574 38.8016 46.4747C38.4932 46.3919 38.1714 46.3703 37.8547 46.4113C37.5379 46.4523 37.2324 46.555 36.9555 46.7135C36.6786 46.872 36.4358 47.0833 36.2409 47.3352C36.046 47.5872 35.9029 47.8748 35.8197 48.1818C35.7366 48.4888 35.715 48.809 35.7561 49.1243L37.131 59.7483C38.5675 58.8941 40.2423 58.5236 41.907 58.6919Z" fill="#C26556"/>
</g>
<path d="M44.2581 76.6986L42.8711 65.9786C41.3878 66.7528 39.668 66.9496 38.0469 66.5308L39.4338 77.1308C41.0518 77.4193 42.7179 77.2701 44.2581 76.6986Z" fill="#F789B3"/>
<path d="M45.8508 88.9313L44.2588 76.6987C42.7186 77.2702 41.0525 77.4194 39.4346 77.1309L41.0989 89.9037C42.6668 90.864 44.2709 89.9997 45.8508 88.9313Z" fill="#F789B3"/>
<path d="M49.1676 39.5567C49.3968 41.8736 56.1507 50.5649 51.9175 53.8541C47.8772 56.9993 40.291 48.9202 38.494 49.4364C36.697 49.9526 30.0516 60.6966 25.4927 57.2153C22.1157 54.5983 26.6023 45.3669 25.4203 43.0861C24.2384 40.8052 13.6492 39.1846 14.3728 34.6829C15.2774 29.1008 26.7229 31.2256 27.8928 29.581C29.5812 27.1801 27.2174 16.376 33.1632 16.136C39.1091 15.8959 40.0016 27.2401 42.064 27.7923C44.8258 28.5366 53.5336 22.9065 56.5366 27.6723C59.19 31.9099 48.9867 37.6 49.1676 39.5567Z" fill="#F7C442"/>
<path d="M33.2248 34.6109C33.5746 33.4104 34.1776 27.5042 35.3354 27.5762C36.6742 27.6602 38.5194 32.7502 39.0863 33.8065C40.6059 33.9746 46.3226 31.6938 46.7568 33.2304C47.191 34.7669 41.812 37.684 41.7275 38.8364C41.6431 39.9889 46.5518 44.9467 45.4543 46.6514C44.5859 48.0319 38.7365 42.7979 37.6028 43.05C36.4691 43.3021 33.1766 49.1123 31.4157 48.5001C29.6549 47.8878 32.6942 41.7175 32.3685 40.7451C31.6811 40.0489 25.494 38.6323 25.5905 36.6156C25.687 34.5988 33.2248 34.6109 33.2248 34.6109Z" fill="#F7E984"/>
<path d="M33.4524 10.674C33.4524 10.674 27.591 1.0704 31.8725 0.0620269C36.154 -0.94635 33.4524 10.674 33.4524 10.674Z" fill="#F79042"/>
<path d="M10.4292 34.875C10.4292 34.875 -0.883664 35.0791 0.41888 30.9015C1.72142 26.724 10.4292 34.875 10.4292 34.875Z" fill="#F79042"/>
<path d="M60.397 25.6916C60.397 25.6916 67.7298 17.0964 70.0454 20.8298C72.3611 24.5632 60.397 25.6916 60.397 25.6916Z" fill="#F79042"/>
<path d="M46.2495 18.4289C46.2495 18.4289 47.9621 8.71725 51.3391 10.5299C54.716 12.3426 46.2495 18.4289 46.2495 18.4289Z" fill="#F79042"/>
<path d="M22.5152 22.7385C22.5152 22.7385 13.1441 19.5573 15.4598 16.5201C17.7754 13.483 22.5152 22.7385 22.5152 22.7385Z" fill="#F79042"/>
<path d="M19.6911 45.9072C19.6911 45.9072 11.9362 52.0415 10.6095 48.4401C9.28286 44.8388 19.6911 45.9072 19.6911 45.9072Z" fill="#F79042"/>
<path d="M55.6431 40.3611C55.6431 40.3611 65.4363 38.9086 64.785 42.678C64.1337 46.4474 55.6431 40.3611 55.6431 40.3611Z" fill="#F79042"/>
<g style="mix-blend-mode:color-dodge" opacity="0.6">
<path d="M39.2914 28.4766C38.0854 25.9677 36.8793 20.1575 33.1164 20.3256C28.3766 20.5297 30.2581 29.1489 28.9193 31.0096C27.9786 32.3181 18.8729 30.6374 18.1613 35.0791C17.5824 38.6804 26.0127 39.9529 26.9414 41.7656C27.8701 43.5783 24.879 49.7606 26.4831 52.3896C29.4018 43.6023 32.5616 34.959 39.2914 28.4766Z" fill="#F7F737"/>
</g>
<g style="mix-blend-mode:multiply" opacity="0.5">
<path d="M56.5482 27.6724C56.1758 27.077 55.6459 26.5952 55.0165 26.2799C55.0482 26.5842 54.9619 26.8891 54.7753 27.1322C36.8774 39.6049 53.3521 47.3478 50.132 50.8771C45.4042 56.051 39.5307 36.8439 26.2158 57.6356C30.6903 59.5924 36.7929 49.9168 38.4935 49.4366C40.194 48.9564 47.8766 56.9994 51.9169 53.8542C56.1502 50.565 49.3963 41.8497 49.1671 39.5569C48.9862 37.6001 59.1895 31.91 56.5482 27.6724Z" fill="#F7A259"/>
</g>
</svg>
