<svg width="69" height="183" viewBox="0 0 69 183" fill="none" xmlns="http://www.w3.org/2000/svg">
<path d="M5.74453 66.2306C-3.52126 65.8364 1.01105 59.8637 4.56116 57.4746C-0.172318 51.5018 -0.172315 47.9182 6.53739 46.3295C4.56116 40.7509 9.69699 32.7833 16.3949 34.384C12.0637 30 28.6309 16.4657 32.181 31.1945C36.9145 22.8327 48.3459 24.4214 49.1387 33.9778C55.0556 31.5887 67.2798 46.3295 61.3629 52.6964C68.4632 55.0855 67.2798 69.0259 62.5463 70.2204C69.6465 77.3877 64.913 80.9714 61.7653 80.9714C68.0726 85.3434 72.0133 94.8998 64.132 97.2889C68.0726 105.257 60.5819 104.062 60.5819 104.062C64.913 112.424 63.7297 116.007 57.4223 119.591C57.4223 119.591 66.8893 129.243 59.4932 137.904C66.0017 142.192 63.9308 156.228 59.9902 158.617C70.0489 163.395 67.4809 175.341 61.7653 178.124C68.2738 184.3 6.14688 184.897 3.37779 176.535C0.608706 168.173 1.80391 162.989 5.35402 159.011C-0.95334 155.428 3.18846 152.441 6.53739 149.658C1.60274 146.468 0.230028 136.518 6.14688 132.528C1.80391 129.147 2.3956 117.596 7.12908 115.016C-0.764001 111.623 1.01105 107.849 4.56116 104.659C-1.15452 104.456 -0.764003 95.7001 2.78611 93.1079C-1.94737 90.5277 0.62054 82.9543 3.37779 80.171C-1.92371 80.3741 0.443034 68.0224 5.74453 66.2306Z" fill="#FEE369"/>
<g style="mix-blend-mode:multiply" opacity="0.6">
<path d="M7.82698 162.237L8.45417 161.771C8.87906 161.513 9.21008 161.124 9.39778 160.661C9.58547 160.198 9.61977 159.687 9.49553 159.202C9.12996 157.92 8.31923 156.813 7.21163 156.085C4.84489 154.185 8.58434 150.004 8.82101 147.914C9.32986 143.398 1.48412 138.644 7.46013 135.299C7.90645 135.031 8.28666 134.664 8.57211 134.226C8.85756 133.788 9.04081 133.291 9.10803 132.771C9.17525 132.251 9.12471 131.723 8.9602 131.225C8.79569 130.728 8.52151 130.275 8.15832 129.9C5.15256 126.938 7.29446 122.864 8.15832 119.4C8.54104 119.211 8.87852 118.94 9.14748 118.606C9.41645 118.272 9.6105 117.884 9.71624 117.467C9.82199 117.05 9.83692 116.615 9.76 116.192C9.68307 115.769 9.51613 115.368 9.27069 115.016C8.84701 114.576 8.57905 114.008 8.50843 113.399C8.43781 112.79 8.5685 112.174 8.88018 111.647C9.23292 111.273 9.49842 110.823 9.65734 110.332C9.81626 109.84 9.86461 109.319 9.79886 108.807C9.73311 108.294 9.55492 107.803 9.27726 107.368C8.99961 106.934 8.62947 106.568 8.19382 106.296C6.69094 105.328 3.10533 104.301 5.82708 100.98C6.13236 100.654 6.36183 100.263 6.49883 99.8362C6.63584 99.4092 6.67693 98.9569 6.61914 98.5119C6.56135 98.067 6.40613 97.6406 6.16473 97.2638C5.92334 96.8869 5.60183 96.5691 5.22357 96.3333C-0.101599 92.7496 4.73838 89.4646 6.95129 86.5858C7.53723 85.9404 7.91093 85.1277 8.02111 84.2594C8.13129 83.391 7.97253 82.5095 7.56664 81.7359C6.80054 80.2076 5.8932 78.7558 4.85672 77.3997C3.82719 75.8707 4.85672 72.9799 5.38924 71.4269C6.11533 69.4913 6.23512 67.3772 5.73242 65.3706C5.71218 65.3103 5.67931 65.2553 5.63604 65.209C5.59278 65.1628 5.54014 65.1266 5.48172 65.1027C5.42331 65.0789 5.36049 65.0681 5.29755 65.071C5.23462 65.074 5.17305 65.0906 5.11706 65.1197C4.48988 65.3945 3.93369 65.6931 3.3065 65.9918C4.08606 66.1541 4.87776 66.25 5.67324 66.2784C0.348078 68.0703 -2.01866 80.4219 3.3065 80.2188C0.549251 83.0021 -2.01866 90.5756 2.71482 93.1558C-0.835292 95.748 -1.2258 104.504 4.48987 104.707C0.939763 107.897 -0.83529 111.671 7.05779 115.064C2.32431 117.644 1.73262 129.195 6.07559 132.576C0.158739 136.566 1.53145 146.516 6.4661 149.706C3.11717 152.489 -1.02463 155.475 5.28273 159.059C4.02929 160.432 3.07348 162.053 2.47644 163.82C1.87939 165.587 1.65427 167.46 1.81546 169.32L2.01663 169.141C4.44973 167.317 6.43721 164.955 7.82698 162.237Z" fill="#FBE382"/>
</g>
<g style="mix-blend-mode:multiply" opacity="0.6">
<path d="M61.7643 80.9714C64.912 80.9714 69.6455 77.3877 62.5453 70.2204C67.2788 69.0259 68.4622 55.0855 61.3619 52.6964C67.2788 46.3294 55.0546 31.5887 49.1377 33.9778C48.6644 42.483 44.5226 40.6673 46.1438 42.8294C47.5402 44.681 47.3272 44.024 49.5874 43.6775C52.5932 43.1997 54.5457 44.5376 57.4095 44.9677C57.6696 45.7534 57.7397 46.5906 57.6142 47.4093C57.4886 48.228 57.1709 49.0046 56.6876 49.6742C56.4444 50.0837 56.2848 50.5382 56.2181 51.0109C56.1513 51.4837 56.1789 51.965 56.299 52.4269C56.4192 52.8887 56.6296 53.3216 56.9178 53.7002C57.206 54.0788 57.5663 54.3955 57.9775 54.6315C63.6577 57.2596 63.2553 63.8535 59.5277 67.9627C59.0248 68.4623 58.6808 69.1019 58.5395 69.7997C58.3983 70.4976 58.4663 71.2222 58.7349 71.8808C58.5219 72.287 58.3443 72.7051 58.1668 73.0754C61.6223 79.7171 59.5277 86.3588 58.4272 93.0004C57.5752 97.2769 53.6937 97.8742 49.3981 97.8742C49.9543 98.4476 50.5814 99.0688 51.1258 99.7736C59.4094 101.159 58.0367 113.511 54.6759 112.304C54.2144 115.195 54.2026 117.847 51.3861 120.595C48.262 123.629 50.8181 128.335 54.6877 128.634C53.7174 128.55 54.9481 129.972 55.1729 130.784C55.3978 131.596 54.8179 133.448 54.4037 134.893C53.528 135.013 52.8298 135.371 51.9186 135.455C51.829 135.455 51.7418 135.485 51.6696 135.538C51.5973 135.592 51.5437 135.667 51.5163 135.753C50.1436 139.851 52.6997 142.216 55.6936 144.76C56.4702 145.269 57.1178 145.954 57.5844 146.761C58.0509 147.568 58.3234 148.474 58.3798 149.407C58.3917 149.49 58.3917 149.575 58.3798 149.658C57.5136 151.151 56.229 152.352 54.6877 153.11C49.9543 155.248 50.972 163.861 56.1906 164.661C57.445 164.853 57.0545 164.375 58.0248 165.856C58.8178 167.259 59.4 168.772 59.7526 170.347C60.6519 173.573 62.356 177.897 60.1194 180.573C62.0956 179.892 62.8412 179.032 61.7998 178.04C67.5155 175.257 70.0834 163.312 60.0247 158.533C63.9654 156.144 66.0363 142.108 59.5277 137.82C66.9238 129.159 57.4568 119.507 57.4568 119.507C63.7642 115.924 64.9475 112.34 60.6164 103.978C60.6164 103.978 66.7108 104.934 64.9712 99.2002L64.77 99.0449H64.9121C64.7017 98.4205 64.4527 97.81 64.1665 97.2172C72.0123 94.8998 68.0716 85.3434 61.7643 80.9714Z" fill="#FBE382"/>
</g>
<path d="M29.9309 119.46C29.4103 119.46 28.9606 119.078 28.6056 118.349C28.5408 118.206 28.5342 118.043 28.5874 117.896C28.6405 117.748 28.7491 117.628 28.8896 117.56C28.9586 117.526 29.0337 117.506 29.1106 117.501C29.1874 117.496 29.2645 117.507 29.3372 117.533C29.4099 117.558 29.4768 117.598 29.534 117.65C29.5913 117.702 29.6377 117.765 29.6706 117.835C29.8481 118.206 29.9783 118.265 29.9783 118.265C30.1045 118.012 30.2075 117.749 30.286 117.477C30.3835 117.115 30.4076 116.737 30.3568 116.365C30.3059 115.994 30.1812 115.636 29.9901 115.315C29.9178 115.212 29.8789 115.089 29.8789 114.962C29.8789 114.836 29.9178 114.713 29.9901 114.61C30.0646 114.506 30.1705 114.428 30.292 114.389C30.4136 114.351 30.5443 114.353 30.6646 114.395C31.2225 114.661 31.843 114.764 32.4558 114.692C33.0686 114.62 33.6493 114.377 34.1319 113.989C34.4797 113.596 34.7134 113.113 34.8073 112.595C34.9012 112.077 34.8518 111.542 34.6644 111.05C34.4959 110.501 34.1806 110.009 33.7532 109.629C33.0453 109.403 32.3661 109.094 31.7297 108.709C31.6149 108.637 31.5282 108.527 31.4838 108.398C31.4394 108.269 31.4401 108.129 31.4857 108C31.5314 107.872 31.6192 107.763 31.7347 107.692C31.8501 107.621 31.9862 107.592 32.1202 107.61C32.9231 107.724 33.6822 108.05 34.3213 108.554C35.8575 109.071 37.5185 109.071 39.0547 108.554C39.5158 108.373 39.9245 108.078 40.243 107.696C40.5615 107.314 40.7795 106.857 40.8771 106.368C41.0176 105.63 40.9837 104.868 40.7781 104.146C40.5725 103.424 40.201 102.761 39.6938 102.211C38.9816 101.374 38.0966 100.705 37.101 100.251C36.1053 99.7974 35.0232 99.5691 33.9307 99.5825C33.7738 99.5936 33.619 99.5413 33.5002 99.4371C33.3815 99.333 33.3086 99.1855 33.2976 99.027C33.2867 98.8686 33.3385 98.7123 33.4417 98.5925C33.5448 98.4726 33.691 98.399 33.8479 98.388C35.1254 98.3605 36.3931 98.6195 37.5594 99.1462C38.7258 99.673 39.762 100.454 40.5931 101.434C41.2275 102.121 41.6896 102.951 41.9408 103.855C42.1919 104.759 42.2249 105.711 42.0368 106.63C41.8957 107.308 41.5891 107.94 41.1448 108.467C40.7004 108.995 40.1325 109.403 39.4926 109.653C38.2167 110.137 36.836 110.268 35.4928 110.035C35.5988 110.241 35.6859 110.457 35.7531 110.68C36.0053 111.382 36.0626 112.141 35.9187 112.873C35.7747 113.606 35.4352 114.285 34.9366 114.837C34.4702 115.282 33.9023 115.604 33.283 115.775C32.6638 115.946 32.0124 115.96 31.3865 115.816C31.5741 116.73 31.4662 117.681 31.0788 118.528C30.9891 118.774 30.8348 118.99 30.6327 119.154C30.4305 119.318 30.188 119.424 29.9309 119.46Z" fill="#F2B649"/>
<path d="M16.1232 115.864C15.8993 115.866 15.679 115.808 15.4842 115.697C14.1351 114.944 13.9694 111.731 14.0996 110.059C13.568 110.12 13.0309 110.009 12.5653 109.743C12.0997 109.477 11.7296 109.069 11.508 108.577C10.8335 106.977 11.7329 104.504 13.4133 103.286C13.5404 103.192 13.6991 103.153 13.8544 103.178C14.0098 103.203 14.149 103.289 14.2416 103.417C14.3342 103.545 14.3725 103.705 14.3481 103.862C14.3237 104.019 14.2386 104.16 14.1115 104.253C13.5145 104.681 13.0534 105.274 12.7845 105.961C12.5156 106.648 12.4503 107.4 12.5967 108.123C12.9399 108.936 13.9221 108.948 14.6913 108.804C14.791 108.789 14.893 108.798 14.9879 108.833C15.0829 108.867 15.1678 108.925 15.2349 109.001C15.302 109.077 15.3491 109.169 15.372 109.268C15.3949 109.367 15.3927 109.471 15.3658 109.569C15.0345 110.763 15.3658 114.251 16.0522 114.658C16.1823 114.729 16.5255 114.526 16.8687 114.12C16.9738 114.001 17.1214 113.93 17.279 113.921C17.4366 113.912 17.5912 113.966 17.7089 114.072C17.8266 114.178 17.8977 114.327 17.9066 114.486C17.9155 114.646 17.8614 114.802 17.7562 114.92C17.5655 115.185 17.3214 115.406 17.0399 115.569C16.7584 115.732 16.446 115.832 16.1232 115.864Z" fill="#F2B649"/>
<path d="M51.4681 116.712H51.1959C51.04 116.7 50.8949 116.627 50.7911 116.509C50.6874 116.391 50.6331 116.237 50.6397 116.079C50.6442 116.001 50.6641 115.924 50.698 115.853C50.732 115.782 50.7795 115.719 50.8378 115.667C50.8961 115.615 50.964 115.575 51.0376 115.549C51.1112 115.524 51.1892 115.513 51.2669 115.518C51.7546 115.597 52.2545 115.507 52.6846 115.261C53.1146 115.016 53.4493 114.63 53.6336 114.168C53.8268 113.558 53.8269 112.902 53.6339 112.292C53.441 111.682 53.0644 111.148 52.5568 110.763C52.4512 110.674 52.3786 110.55 52.3507 110.414C52.3228 110.277 52.3412 110.135 52.4029 110.011C52.4681 109.889 52.5735 109.793 52.7009 109.741C52.8284 109.688 52.9699 109.683 53.1011 109.724C53.4152 109.862 53.7629 109.903 54.1 109.842C54.4371 109.78 54.7485 109.618 54.9945 109.378C55.2984 108.952 55.4857 108.453 55.5376 107.931C55.5896 107.408 55.5043 106.882 55.2903 106.403C55.1309 105.951 54.8446 105.556 54.4663 105.265C54.0881 104.975 53.6343 104.801 53.1603 104.767C53.0054 104.754 52.8614 104.681 52.7596 104.563C52.6577 104.444 52.6061 104.29 52.6159 104.134C52.6189 104.055 52.6376 103.977 52.6711 103.905C52.7046 103.834 52.752 103.77 52.8106 103.718C52.8693 103.665 52.9378 103.625 53.0121 103.6C53.0865 103.575 53.165 103.566 53.2431 103.572C53.9428 103.612 54.6151 103.861 55.1753 104.286C55.7354 104.711 56.1584 105.294 56.3909 105.961C56.6889 106.648 56.7978 107.404 56.7062 108.148C56.6146 108.892 56.3257 109.598 55.8702 110.19C55.47 110.633 54.9311 110.924 54.3437 111.014C54.6768 111.541 54.8853 112.139 54.9531 112.76C55.0208 113.381 54.9459 114.01 54.7342 114.598C54.4805 115.253 54.0279 115.811 53.4413 116.19C52.8546 116.57 52.1639 116.753 51.4681 116.712Z" fill="#F2B649"/>
<path d="M58.1075 94.8998C57.59 94.9058 57.0748 94.8292 56.5809 94.6728C56.1225 94.5403 55.7029 94.297 55.3586 93.964C55.0142 93.631 54.7555 93.2183 54.6047 92.7616C54.4359 92.3072 54.3974 91.814 54.4937 91.3386C54.59 90.8632 54.8171 90.4248 55.1491 90.0738C55.4447 89.7772 55.8127 89.5647 56.2158 89.4577C56.6189 89.3507 57.0429 89.3531 57.4448 89.4646C57.8376 89.6019 58.1839 89.8486 58.4436 90.1763C58.7033 90.5039 58.8657 90.8991 58.9122 91.3161C58.9254 91.3946 58.9231 91.4749 58.9056 91.5524C58.8881 91.63 58.8556 91.7033 58.81 91.7682C58.7644 91.8331 58.7066 91.8883 58.6398 91.9307C58.5731 91.973 58.4988 92.0016 58.4211 92.015C58.3434 92.0283 58.2638 92.026 58.187 92.0083C58.1101 91.9906 58.0375 91.9578 57.9732 91.9118C57.9089 91.8658 57.8543 91.8074 57.8123 91.7401C57.7704 91.6727 57.742 91.5977 57.7288 91.5192C57.7166 91.3196 57.6476 91.1277 57.53 90.9667C57.4125 90.8056 57.2514 90.6823 57.0661 90.6114C56.8716 90.5651 56.6687 90.5694 56.4762 90.6237C56.2838 90.678 56.1081 90.7806 55.9656 90.922C55.7903 91.1177 55.673 91.3592 55.6269 91.619C55.5809 91.8787 55.608 92.1463 55.7052 92.3913C55.7909 92.6728 55.9435 92.9288 56.1498 93.137C56.3561 93.3452 56.6097 93.4993 56.8886 93.5858C57.5029 93.7514 58.1444 93.7881 58.7733 93.6936C59.4023 93.5991 60.0053 93.3754 60.5452 93.0363C61.2041 92.546 61.7072 91.8725 61.993 91.0981C62.2789 90.3238 62.335 89.4822 62.1546 88.6762C61.885 87.2268 61.2656 85.8669 60.3512 84.7167C59.4368 83.5666 58.2557 82.6618 56.9123 82.0823C56.7553 82.0348 56.6235 81.9263 56.5459 81.7806C56.4682 81.635 56.451 81.4643 56.4981 81.3059C56.5452 81.1474 56.6527 81.0144 56.7969 80.936C56.9412 80.8576 57.1104 80.8402 57.2673 80.8878C60.0719 81.7598 62.7818 85.1523 63.3261 88.4373C63.5477 89.4632 63.4676 90.532 63.0954 91.5125C62.7233 92.493 62.0755 93.3423 61.2316 93.9561C60.3058 94.576 59.2184 94.9045 58.1075 94.8998Z" fill="#F2B649"/>
<path d="M8.72706 90.4322C7.51645 90.4109 6.35795 89.9313 5.48122 89.0883C4.60449 88.2453 4.07353 87.1006 3.99358 85.881C3.88395 85.3331 3.88365 84.7686 3.9927 84.2205C4.10174 83.6725 4.31795 83.1519 4.62867 82.6892C4.9394 82.2265 5.33841 81.8309 5.80235 81.5257C6.2663 81.2205 6.78587 81.0118 7.33069 80.9117C7.40695 80.898 7.48514 80.9 7.56065 80.9174C7.63616 80.9347 7.70746 80.9672 7.77033 81.0129C7.83321 81.0585 7.88638 81.1164 7.92672 81.1831C7.96706 81.2499 7.99375 81.3241 8.00521 81.4014C8.0187 81.4784 8.01679 81.5574 7.99957 81.6336C7.98235 81.7098 7.95018 81.7818 7.90496 81.8452C7.85973 81.9087 7.80237 81.9624 7.73626 82.0031C7.67014 82.0438 7.59662 82.0708 7.52003 82.0823C7.12297 82.1602 6.74547 82.3178 6.40997 82.5459C6.07446 82.7739 5.78779 83.0677 5.56701 83.4098C5.34622 83.7519 5.19583 84.1354 5.12476 84.5373C5.05368 84.9393 5.06338 85.3515 5.15329 85.7496C5.17148 86.2329 5.28451 86.7077 5.48582 87.1466C5.68713 87.5855 5.97272 87.9797 6.32604 88.3064C6.67936 88.633 7.09339 88.8856 7.54414 89.0496C7.99488 89.2136 8.47338 89.2856 8.9519 89.2615C9.10883 89.2505 9.26369 89.3028 9.38242 89.4069C9.50115 89.5111 9.57402 89.6586 9.585 89.817C9.59599 89.9755 9.54419 90.1318 9.44099 90.2516C9.3378 90.3715 9.19166 90.445 9.03474 90.4561L8.72706 90.4322Z" fill="#F2B649"/>
<path d="M32.2287 181.675H31.9921C31.1835 181.62 30.4011 181.363 29.7153 180.927C29.0294 180.492 28.4617 179.89 28.0633 179.178C27.838 179.566 27.5337 179.9 27.1706 180.16C26.8074 180.419 26.3937 180.598 25.9569 180.683C25.1204 180.753 24.2809 180.593 23.5269 180.221C22.773 179.849 22.1325 179.278 21.6731 178.569C20.5607 177.124 20.0992 174.985 20.2767 172.035C20.278 171.956 20.2953 171.879 20.3275 171.807C20.3597 171.736 20.4061 171.672 20.4637 171.619C20.5214 171.567 20.5892 171.527 20.6629 171.501C20.7366 171.476 20.8146 171.467 20.892 171.473C20.9703 171.476 21.0472 171.495 21.1181 171.529C21.1889 171.563 21.2522 171.611 21.3042 171.67C21.3562 171.729 21.3957 171.798 21.4205 171.873C21.4452 171.948 21.4547 172.028 21.4482 172.106C21.3062 174.758 21.6849 176.634 22.6316 177.84C22.9632 178.372 23.4275 178.807 23.9779 179.1C24.5283 179.394 25.1455 179.536 25.7675 179.513C26.2145 179.397 26.6184 179.153 26.9296 178.809C27.2408 178.465 27.4456 178.037 27.5189 177.577C27.5567 177.459 27.631 177.355 27.7311 177.282C27.8311 177.209 27.9516 177.17 28.0751 177.171C28.2003 177.161 28.3253 177.194 28.4288 177.266C28.5323 177.338 28.6081 177.444 28.6431 177.566C28.8567 178.344 29.2989 179.04 29.9114 179.56C30.524 180.08 31.2782 180.401 32.0749 180.48C32.7983 180.504 33.5106 180.297 34.1115 179.89C34.7124 179.483 35.1714 178.895 35.4238 178.211C35.4635 178.124 35.523 178.049 35.5974 177.99C35.6718 177.932 35.7589 177.893 35.8515 177.875C35.9441 177.857 36.0395 177.863 36.1298 177.89C36.2201 177.917 36.3026 177.966 36.3705 178.031C37.3291 178.927 38.2639 178.712 39.8023 177.207C39.8573 177.151 39.9227 177.107 39.9949 177.076C40.067 177.046 40.1443 177.03 40.2224 177.03C40.3005 177.03 40.3778 177.046 40.4499 177.076C40.522 177.107 40.5875 177.151 40.6425 177.207C40.6976 177.262 40.7414 177.327 40.7713 177.398C40.8011 177.47 40.8165 177.547 40.8165 177.625C40.8165 177.703 40.8011 177.78 40.7713 177.852C40.7414 177.924 40.6976 177.989 40.6425 178.043C39.9206 178.748 38.0982 180.516 36.1812 179.345C35.7826 180.049 35.2076 180.635 34.5139 181.044C33.8201 181.453 33.0321 181.671 32.2287 181.675Z" fill="#F29649"/>
<path d="M16.2987 44.8841C3.57751 36.0683 7.86131 17.4095 19.8488 17.8515C24.2865 18.0187 16.0147 31.4096 19.553 37.9677C18.721 40.3859 17.6298 42.7051 16.2987 44.8841Z" fill="#FBC270"/>
<path d="M16.9038 18.162C7.24753 20.5511 4.69146 36.8447 16.3003 44.884C16.8901 43.9353 17.4274 42.9542 17.9097 41.9455C13.3537 34.5154 11.5905 24.6364 16.9038 18.162Z" fill="#FB607F"/>
<path d="M46.1812 39.2099C50.5241 33.5836 45.8853 22.1876 47.5065 18.9026C49.1277 15.6176 62.3578 22.6296 57.222 35.3755C53.3405 45.0274 48.0982 44.4301 48.0982 44.4301L46.1812 39.2099Z" fill="#FBC270"/>
<path d="M52.4046 19.1654C57.0198 26.4402 53.588 37.2628 47.4463 42.6502L48.0971 44.4301C48.0971 44.4301 53.3395 45.0274 57.2209 35.3754C60.4989 27.2406 56.2979 21.435 52.4046 19.1654Z" fill="#FB607F"/>
<path d="M18.3698 48.611C16.5947 52.4933 8.3111 75.787 16.5947 87.1352C24.8783 98.4834 44.6997 100.275 52.3916 88.0311C60.0835 75.787 55.3501 59.362 51.5041 52.1947C43.8122 36.3669 18.3698 48.611 18.3698 48.611Z" fill="url(#paint0_radial_21_1888)"/>
<g style="mix-blend-mode:color-dodge" opacity="0.3">
<path d="M36.3219 70.6147C44.0139 70.8177 49.5284 76.7905 48.345 84.7462C47.1616 92.7019 43.8127 94.7087 36.3219 94.8998C28.8312 95.091 20.9381 88.3298 23.1037 80.1711C25.2693 72.0123 30.2039 70.4594 36.3219 70.6147Z" fill="#FBC432"/>
</g>
<path d="M37.1258 77.5909C36.6903 78.3648 36.3788 79.2034 36.2027 80.0755C35.7187 78.8297 34.8989 77.7455 33.836 76.9458C33.5108 76.6842 33.136 76.4927 32.7346 76.3831C32.3333 76.2735 31.9139 76.2481 31.5025 76.3086C31.091 76.3691 30.6962 76.514 30.3424 76.7346C29.9887 76.9551 29.6835 77.2466 29.4457 77.5909C29.2718 77.8144 29.1535 78.0767 29.1007 78.3559C29.0478 78.635 29.062 78.9229 29.1419 79.1954C29.2219 79.4679 29.3653 79.7171 29.5602 79.9222C29.7551 80.1273 29.9958 80.2823 30.2622 80.3742C30.5344 80.4817 30.7474 80.1591 30.7001 79.8963C30.7001 79.8247 30.7001 79.7172 30.5936 79.6813C30.8539 79.8247 30.5107 79.3468 30.5936 79.0721C31.3746 77.2325 33.197 78.8929 33.9543 79.741C35.469 81.4254 35.4335 84.3401 35.469 86.4903C35.463 86.6146 35.4941 86.7378 35.5583 86.844C35.6225 86.9502 35.7168 87.0346 35.829 87.0861C35.9412 87.1375 36.0662 87.1538 36.1877 87.1328C36.3092 87.1118 36.4216 87.0544 36.5104 86.9681C37.4334 86.0483 35.8596 83.8503 37.5991 80.1591C37.9309 79.293 38.5278 78.5565 39.3032 78.0568C40.1315 77.567 41.2912 78.2957 42.0486 78.7257C42.0801 78.7428 42.1156 78.751 42.1514 78.7496C42.1871 78.7482 42.2219 78.7372 42.252 78.7178C42.2822 78.6983 42.3067 78.671 42.3229 78.6388C42.3391 78.6066 42.3466 78.5706 42.3444 78.5346C42.1433 75.3571 38.5221 75.1301 37.1258 77.5909Z" fill="#EF7B5E"/>
<path d="M35.5169 87.9117C35.2566 87.9117 34.9962 87.9117 34.7477 87.9117C32.4875 87.7086 30.0853 86.5618 29.7894 84.4714C29.7777 84.3944 29.7814 84.3158 29.8001 84.2403C29.8189 84.1648 29.8524 84.0938 29.8987 84.0315C29.945 83.9692 30.0031 83.9168 30.0697 83.8775C30.1363 83.8381 30.2099 83.8126 30.2864 83.8024C30.3634 83.7905 30.4419 83.7941 30.5174 83.8129C30.593 83.8317 30.6642 83.8654 30.7268 83.912C30.7895 83.9586 30.8424 84.0172 30.8826 84.0845C30.9228 84.1518 30.9494 84.2264 30.9609 84.3041C31.1384 85.4986 32.7715 86.5379 34.8542 86.6932C36.937 86.8485 39.6705 86.2034 40.5107 83.671C40.5594 83.5126 40.6684 83.3802 40.8137 83.3029C40.9591 83.2256 41.1289 83.2098 41.2858 83.2589C41.4428 83.308 41.5739 83.418 41.6505 83.5647C41.7271 83.7115 41.7428 83.8829 41.6941 84.0413C40.6764 86.9202 37.8955 87.9117 35.5169 87.9117Z" fill="#E6496E"/>
<path d="M35.5885 90.3127C35.2893 90.3203 34.9916 90.2675 34.7129 90.1574C34.5669 90.0972 34.4506 89.981 34.3896 89.8342C34.3286 89.6875 34.3278 89.5223 34.3874 89.375C34.4471 89.2276 34.5622 89.1103 34.7076 89.0487C34.8529 88.9871 35.0166 88.9863 35.1625 89.0465C35.6383 89.1526 36.1339 89.1236 36.5944 88.9628L37.0441 88.8673C37.1992 88.8391 37.3591 88.8733 37.4896 88.9626C37.6201 89.0519 37.7108 89.1892 37.7423 89.3451C37.7558 89.4228 37.754 89.5024 37.737 89.5794C37.7199 89.6564 37.6879 89.7292 37.6427 89.7936C37.5976 89.858 37.5403 89.9128 37.4741 89.9547C37.4079 89.9967 37.3342 90.025 37.2571 90.038L36.8547 90.1335C36.4403 90.2392 36.0158 90.2993 35.5885 90.3127Z" fill="#F57961"/>
<g style="mix-blend-mode:multiply" opacity="0.4">
<path d="M54.4403 59.4814C53.8165 58.8445 53.0664 58.3478 52.2392 58.024C45.7307 55.4796 42.9024 63.5548 43.8136 68.0224C44.8431 73.0992 47.9554 73.8518 53.2806 73.5532C53.9915 73.4736 54.6656 73.1924 55.2248 72.7421C55.7839 72.2918 56.2053 71.6908 56.4402 71.0088C56.2598 67.0963 55.5878 63.2228 54.4403 59.4814Z" fill="#FBCB83"/>
</g>
<g style="mix-blend-mode:multiply" opacity="0.4">
<path d="M16.5952 58.4661C16.0104 58.6082 15.4514 58.842 14.9385 59.159C13.9875 62.8949 13.3658 66.7084 13.0806 70.555C13.4608 71.1868 13.9497 71.745 14.5243 72.2034C18.8081 75.6437 25.2811 73.5891 26.0621 66.6846C26.1867 65.4532 26.0146 64.2096 25.5604 63.0598C25.1063 61.91 24.3835 60.888 23.4538 60.0809C22.5241 59.2738 21.4149 58.7054 20.2207 58.4243C19.0265 58.1431 17.7827 58.1575 16.5952 58.4661Z" fill="#FBCB83"/>
</g>
<path d="M21.9932 67.9628C21.1089 67.7568 20.2024 67.6645 19.2952 67.6881C18.242 67.6044 17.3426 67.3894 16.4906 68.1539C16.2498 68.4056 16.1152 68.7418 16.1152 69.0917C16.1152 69.4415 16.2498 69.7777 16.4906 70.0294C17.0823 70.7342 18.029 70.6983 18.8573 70.8297C19.8697 71.1187 20.9339 71.1718 21.9696 70.985C22.2928 70.8906 22.5771 70.6934 22.7803 70.4227C22.9835 70.1521 23.0947 69.8224 23.0974 69.4828C23.1 69.1432 22.994 68.8118 22.7951 68.538C22.5961 68.2641 22.3149 68.0624 21.9932 67.9628Z" fill="#BB3760"/>
<path d="M52.6062 67.8194C51.7778 67.1027 50.9849 67.3058 50.0027 67.461L49.3519 67.5447C49.0899 67.5542 48.829 67.5821 48.5709 67.6283C48.5709 67.6283 48.0502 67.7 48.3815 67.6283C48.0655 67.6334 47.7595 67.7405 47.5082 67.934C47.2569 68.1275 47.0736 68.3971 46.9852 68.7034C46.9029 69.0148 46.9244 69.3449 47.0463 69.6428C47.1682 69.9406 47.3837 70.1898 47.6597 70.3519C48.4674 70.6241 49.3206 70.7315 50.1697 70.6679C51.0189 70.6044 51.8471 70.371 52.6062 69.9816C52.8791 69.689 53.0311 69.3023 53.0311 68.9005C53.0311 68.4987 52.8791 68.112 52.6062 67.8194Z" fill="#BB3760"/>
<path d="M18.809 75.2734C18.809 73.9116 16.8327 72.8007 14.3713 72.8007C13.9064 72.8045 13.4428 72.8526 12.9868 72.944C12.9599 74.5122 13.035 76.0804 13.2116 77.6386C13.6029 77.7023 13.9986 77.7343 14.395 77.7342C16.8327 77.7342 18.809 76.6232 18.809 75.2734Z" fill="#FB7B8E"/>
<path d="M53.6935 72.5021C51.2439 72.5021 49.2559 73.613 49.2559 74.9748C49.2559 76.3366 51.3268 77.4356 53.6935 77.4356C54.5396 77.4428 55.3805 77.3014 56.1786 77.0175C56.3415 75.7017 56.4284 74.3775 56.4389 73.0516C55.5705 72.6813 54.6362 72.4943 53.6935 72.5021Z" fill="#FB7B8E"/>
<path d="M20.5595 66.6129H18.4413C18.2853 66.6098 18.1366 66.5459 18.0263 66.4346C17.916 66.3232 17.8526 66.1731 17.8496 66.0156C17.8496 65.8572 17.9119 65.7053 18.0229 65.5933C18.1339 65.4813 18.2844 65.4183 18.4413 65.4183H20.5595C20.7165 65.4183 20.867 65.4813 20.9779 65.5933C21.0889 65.7053 21.1512 65.8572 21.1512 66.0156C21.1512 66.174 21.0889 66.3259 20.9779 66.4379C20.867 66.5499 20.7165 66.6129 20.5595 66.6129Z" fill="#F57961"/>
<path d="M48.9599 66.5891C48.7689 66.5953 48.5789 66.5585 48.4037 66.4816C48.2611 66.4162 48.1492 66.2973 48.0918 66.1502C48.0344 66.0031 48.0359 65.8392 48.096 65.6932C48.1606 65.5492 48.279 65.437 48.4254 65.381C48.5718 65.325 48.7342 65.3299 48.877 65.3945C49.1345 65.389 49.3898 65.3447 49.6344 65.2631C49.8443 65.202 50.0577 65.1542 50.2734 65.1198C50.3511 65.1103 50.4299 65.1165 50.5052 65.1378C50.5806 65.1591 50.651 65.1952 50.7126 65.244C50.7741 65.2928 50.8255 65.3534 50.8639 65.4223C50.9022 65.4911 50.9268 65.5669 50.9361 65.6454C50.9454 65.7238 50.9393 65.8033 50.9182 65.8794C50.8971 65.9555 50.8613 66.0266 50.813 66.0887C50.7646 66.1508 50.7046 66.2027 50.6364 66.2414C50.5682 66.2801 50.4931 66.3049 50.4154 66.3143L49.9421 66.4218C49.6245 66.5255 49.2936 66.5818 48.9599 66.5891Z" fill="#F57961"/>
<path d="M21.839 54.7511C21.5357 54.3329 21.0822 54.0513 20.5757 53.9665C20.0692 53.8816 19.55 54.0003 19.1291 54.2971C18.9263 54.3974 18.7561 54.5541 18.6387 54.7489C18.5212 54.9436 18.4615 55.1682 18.4664 55.3961C18.4599 55.5471 18.5061 55.6955 18.597 55.8155C18.6878 55.9356 18.8175 56.0197 18.9634 56.0531C19.2538 56.0964 19.5488 56.0964 19.8391 56.0531C20.1113 55.9695 20.419 56.2681 20.6557 56.3637C21.5669 56.6504 22.265 55.5036 21.839 54.7511Z" fill="#EE573A"/>
<path d="M47.0072 56.4946H46.9246C46.7358 56.4474 46.7476 56.4474 47.0072 56.4946Z" fill="#EE573A"/>
<path d="M49.445 53.879C49.0268 53.7013 48.5741 53.6218 48.121 53.6467C47.6679 53.6715 47.2264 53.7999 46.8297 54.0223C46.5757 54.1297 46.3562 54.3059 46.1953 54.5315C46.0345 54.7571 45.9387 55.0233 45.9185 55.3005C45.9153 55.5886 46.0153 55.8681 46.2002 56.0877C46.385 56.3072 46.6422 56.4518 46.9244 56.495H47.1019C47.2642 56.4933 47.4248 56.4609 47.5753 56.3995H47.7764L48.1906 56.4712C48.6279 56.5694 49.0857 56.5058 49.4805 56.292C49.6845 56.1634 49.8521 55.9839 49.9671 55.7708C50.0822 55.5576 50.1408 55.3181 50.1372 55.0754C50.1336 54.8327 50.068 54.595 49.9468 54.3854C49.8255 54.1758 49.6526 54.0014 49.445 53.879Z" fill="#EE573A"/>
<g style="mix-blend-mode:multiply" opacity="0.4">
<path d="M53.0083 55.4199C52.5113 54.2254 52.0024 53.1264 51.5054 52.1946C50.1791 49.3574 47.9096 47.0791 45.0915 45.756L44.4407 45.8755C44.1557 45.8614 43.8706 45.9019 43.6005 45.9949C40.2161 47.1895 37.305 48.6946 33.5537 48.181C31.5183 47.9062 30.6071 46.0188 29.0214 45.0393C25.3604 45.8673 21.792 47.068 18.3711 48.623C17.2971 51.1635 16.3918 53.7734 15.6611 56.4353C17.732 56.4353 20.8798 55.5394 22.217 53.4011C25.3174 58.478 37.7428 60.4251 42.0384 54.5957C44.5472 58.478 49.7777 57.0445 52.3929 55.7902C52.6101 55.6885 52.8163 55.5644 53.0083 55.4199Z" fill="#FBB65E"/>
</g>
<g style="mix-blend-mode:multiply" opacity="0.4">
<path d="M34.0497 67.1265C32.2037 67.3535 29.2571 68.1658 28.5234 69.5156C27.6122 71.2119 33.5764 69.874 35.0319 69.7187C37.1045 69.5393 39.1911 69.8123 41.1499 70.5191C42.6528 71.2358 41.3511 66.2664 34.0497 67.1265Z" fill="#FBCB83"/>
</g>
<path d="M30.713 134.201C29.5296 134.201 28.3462 134.201 27.1629 134.057C16.7019 133.149 7.04559 126.388 3.57832 117.62C3.55854 117.365 3.62041 117.11 3.75483 116.893C3.88925 116.677 4.08911 116.509 4.32499 116.415C4.56087 116.322 4.8203 116.307 5.06508 116.373C5.30987 116.44 5.52707 116.584 5.68471 116.784C8.80881 124.776 17.7196 130.939 27.3522 131.776C34.46 132.246 41.5838 131.145 48.2269 128.55C53.4311 126.626 57.8555 123.013 60.8061 118.277C61.0028 118.114 61.2466 118.019 61.5011 118.006C61.7556 117.994 62.0073 118.065 62.2186 118.209C62.43 118.352 62.5899 118.561 62.6744 118.803C62.7589 119.046 62.7635 119.31 62.6876 119.555C59.4715 124.685 54.6666 128.599 49.0197 130.689C43.1705 132.94 36.9727 134.129 30.713 134.201Z" fill="#E95DA7"/>
<path d="M16.736 132.125C16.291 131.279 15.5412 130.637 14.6414 130.333C14.4217 130.205 14.1872 130.105 13.9432 130.034C13.4416 129.909 12.9165 129.917 12.4188 130.057C11.9211 130.197 11.4679 130.465 11.1031 130.835C10.7663 131.176 10.5012 131.583 10.3237 132.03C10.1461 132.477 10.0597 132.956 10.0696 133.438C10.0796 133.919 10.1856 134.394 10.3815 134.834C10.5774 135.273 10.8591 135.668 11.2096 135.995C11.9454 136.681 12.8861 137.102 13.8841 137.19C14.4495 137.207 15.0092 137.072 15.5061 136.799C16.003 136.526 16.4193 136.125 16.7123 135.637C17.0224 135.105 17.1879 134.501 17.1921 133.884C17.1963 133.267 17.0389 132.66 16.736 132.125Z" fill="#ED1187"/>
<path d="M56.0827 132.375C56.0913 131.765 55.8964 131.169 55.5295 130.684C55.1625 130.199 54.6447 129.852 54.0591 129.7C53.5308 129.604 52.9899 129.604 52.4616 129.7C51.6813 129.776 50.9444 130.098 50.3552 130.62C50.0579 130.881 49.83 131.214 49.6925 131.587C49.5473 131.831 49.432 132.092 49.3493 132.364C49.1795 132.932 49.174 133.537 49.3333 134.109C49.4926 134.68 49.8102 135.193 50.2487 135.589C50.7141 135.993 51.2684 136.278 51.8654 136.422C52.4624 136.565 53.0848 136.562 53.6804 136.413C54.1178 136.297 54.5264 136.09 54.8808 135.806C55.2352 135.523 55.5275 135.168 55.7395 134.765C56.1242 134.032 56.2455 133.188 56.0827 132.375Z" fill="#ED1187"/>
<path d="M13.8386 46.3295C13.2469 50.3073 18.2762 54.3927 23.4002 49.2083C24.3824 55.5872 39.0798 55.9814 42.0383 49.8056C44.2038 55.7783 50.9136 53.4967 51.7064 48.9097C52.4993 44.3226 44.2867 33.7389 37.8965 32.4847C20.5601 29.1041 15.0219 38.3618 13.8386 46.3295Z" fill="#FBEA69"/>
<g style="mix-blend-mode:multiply" opacity="0.4">
<path d="M40.8436 33.6433C40.6344 33.9586 40.5411 34.338 40.58 34.7155C40.6189 35.093 40.7875 35.4448 41.0566 35.7099C42.7725 37.4539 47.1864 42.7219 45.7901 45.6724L45.151 45.7441C44.9075 45.7694 44.6662 45.8134 44.4292 45.8755C44.1442 45.8614 43.8591 45.9019 43.589 45.9949C40.2046 47.1895 37.2935 48.6946 33.5422 48.181C30.5128 47.7629 29.9921 43.785 25.9805 44.5376C23.4125 45.0274 17.8507 51.2629 17.8507 43.6775C17.8953 42.982 17.6752 42.2955 17.2353 41.7583C16.7955 41.221 16.169 40.8735 15.484 40.7867C14.6927 42.5481 14.1548 44.4145 13.8864 46.3294C13.2947 50.3073 18.3241 54.3926 23.448 49.2083C24.4302 55.5871 39.1277 55.9813 42.0861 49.8055C44.2517 55.7783 50.9614 53.4967 51.7543 48.9096C52.3696 45.0154 46.5948 36.785 40.8436 33.6433Z" fill="#FBE89F"/>
</g>
<path d="M26.8794 38.8635L35.305 0.757446L40.5355 39.5922C38.2784 41.1929 35.5063 41.8754 32.7726 41.5035C30.6019 41.1985 28.5598 40.2837 26.8794 38.8635Z" fill="#FB607F"/>
<path d="M28.8418 29.8924C30.5977 30.2039 32.3989 30.1383 34.1279 29.6999C35.857 29.2615 37.4751 28.4601 38.8768 27.348L35.3267 0.769287L28.8418 29.8924Z" fill="#FB7397"/>
<g style="mix-blend-mode:color-dodge" opacity="0.2">
<path d="M35.3035 0.757446L31.5522 17.7081C33.6572 17.6624 35.6813 16.8815 37.2798 15.4982L35.3035 0.757446Z" fill="#FBD670"/>
</g>
<g style="mix-blend-mode:multiply" opacity="0.4">
<path d="M36.381 8.79675C35.671 20.0375 36.8188 31.2662 33.1504 41.5154C35.7604 41.7864 38.3803 41.1041 40.5346 39.5922L36.381 8.79675Z" fill="#FB5AEE"/>
</g>
<path d="M40.8658 39.2935C40.5983 39.6888 40.4653 40.1611 40.4866 40.6394C40.5079 41.1176 40.6826 41.576 40.9842 41.9454C41.1367 42.2811 41.3273 42.5977 41.5522 42.8891C42.5462 44.1792 44.4633 44.0836 45.8952 43.8447C46.1374 43.8251 46.3687 43.7349 46.5611 43.585C46.7534 43.4351 46.8985 43.2321 46.9788 43.0006C47.059 42.769 47.0708 42.519 47.0129 42.2808C46.955 42.0425 46.8298 41.8264 46.6525 41.6587C45.41 40.3925 42.7592 37.0716 40.8658 39.2935Z" fill="#87EBAC"/>
<path d="M39.067 40.3329C38.6105 40.2064 38.1255 40.2336 37.6856 40.4104C37.2457 40.5871 36.8749 40.9038 36.6293 41.3124C36.3635 41.5657 36.1291 41.8504 35.9311 42.1605C35.0436 43.5223 35.8009 45.3141 36.4518 46.6042C36.5499 46.829 36.7107 47.0201 36.9145 47.1543C37.1183 47.2884 37.3563 47.3599 37.5997 47.3599C37.843 47.3599 38.081 47.2884 38.2848 47.1543C38.4887 47.0201 38.6494 46.829 38.7475 46.6042C39.5522 45.0394 41.7888 41.396 39.067 40.3329Z" fill="#87EBAC"/>
<path d="M34.5127 41.8857C34.9824 41.9766 35.4687 41.9089 35.8965 41.693C36.3242 41.4771 36.6697 41.125 36.8794 40.6912C37.1193 40.4098 37.3258 40.1011 37.4948 39.7714C38.2285 38.326 37.2936 36.6178 36.5008 35.3993C36.377 35.1903 36.1967 35.0213 35.981 34.9123C35.7653 34.8032 35.5233 34.7586 35.2833 34.7837C35.0434 34.8088 34.8156 34.9025 34.6266 35.0539C34.4377 35.2053 34.2955 35.4081 34.2169 35.6383C33.5778 37.2509 31.6963 41.1093 34.5127 41.8857Z" fill="#B5FE85"/>
<path d="M26.7848 38.099C26.6492 37.7428 26.4085 37.4373 26.0952 37.2237C25.782 37.01 25.4114 36.8986 25.0334 36.9045C24.5534 36.6483 24.0251 36.4977 23.4832 36.4625C22.004 36.3191 20.9863 37.215 19.9331 38.0154C19.5254 38.3127 19.2498 38.7598 19.1657 39.2604C19.0816 39.7609 19.1957 40.2748 19.4834 40.6912C20.4301 41.8857 22.359 41.8857 23.7672 41.7902C25.5186 41.5751 27.4712 40.1775 26.7848 38.099Z" fill="#87EBAC"/>
<path d="M28.5117 39.4728C28.151 39.3483 27.7611 39.3388 27.3948 39.4457C27.0286 39.5525 26.7038 39.7705 26.4645 40.0701C25.9695 40.2837 25.5226 40.5967 25.151 40.9899C24.0978 42.065 24.1333 43.379 24.0504 44.8005C24.0178 45.3082 24.1845 45.8084 24.5145 46.1929C24.8445 46.5775 25.3112 46.8153 25.8136 46.8551C27.3402 46.8551 28.5946 45.3978 29.3638 44.2032C30.3696 42.6622 30.5353 40.2612 28.5117 39.4728Z" fill="#B5FE85"/>
<path d="M43.0453 33.1297C42.9398 32.9542 42.7913 32.809 42.614 32.7083C42.4368 32.6076 42.2369 32.5547 42.0335 32.5547C41.8301 32.5547 41.6302 32.6076 41.4529 32.7083C41.2757 32.809 41.1272 32.9542 41.0217 33.1297C40.927 33.2731 40.6194 33.8584 40.501 34.0017C40.1103 34.4328 39.7615 34.9008 39.4597 35.3994C39.2424 35.8092 39.1925 36.2886 39.3208 36.735C39.449 37.1815 39.7452 37.5596 40.146 37.7885C40.5546 38.0007 41.0285 38.0459 41.4692 37.9147C41.91 37.7834 42.2837 37.4858 42.5128 37.0837C42.4181 37.227 42.9743 36.4625 42.9624 36.4864C43.1306 36.1336 43.2768 35.7705 43.4003 35.3994C43.5152 35.0186 43.543 34.6165 43.4815 34.2233C43.42 33.8301 43.2709 33.4562 43.0453 33.1297Z" fill="#B5FE85"/>
<path d="M44.6526 37.8244C44.594 37.5386 44.4721 37.2699 44.296 37.0384C44.1199 36.8069 43.8942 36.6186 43.6358 36.4876C43.3774 36.3566 43.093 36.2863 42.8039 36.282C42.5148 36.2777 42.2285 36.3394 41.9664 36.4626L41.4575 36.7134C41.4575 36.4267 41.4575 36.152 41.3629 35.8653C41.267 35.474 41.0264 35.1346 40.6904 34.9169C40.3543 34.6991 39.9485 34.6196 39.5561 34.6945C39.1638 34.7694 38.8148 34.9932 38.5808 35.3198C38.3468 35.6464 38.2456 36.051 38.2979 36.4506C38.415 37.1305 38.5932 37.7983 38.8305 38.4455C38.2979 38.6127 37.7891 38.8517 37.2447 39.0786C36.8515 39.2743 36.5504 39.6183 36.4065 40.0363C36.2625 40.4543 36.2873 40.9127 36.4755 41.3124C36.676 41.7029 37.0179 42.0003 37.4301 42.1427C37.8423 42.2851 38.293 42.2616 38.6885 42.0769C38.8661 42.0068 39.04 41.9271 39.2091 41.838C39.3181 42.2876 39.5332 42.7039 39.8361 43.0512C40.139 43.3986 40.5208 43.6668 40.9487 43.8329C41.2477 43.9257 41.5652 43.9403 41.8714 43.8752C42.1775 43.8102 42.4622 43.6677 42.6989 43.4611C42.9355 43.2545 43.1162 42.9906 43.224 42.6941C43.3319 42.3977 43.3633 42.0784 43.3154 41.7664C43.3983 42.28 43.2326 40.4762 43.3154 41.0138C43.3154 40.739 43.2444 40.4762 43.1971 40.2015C43.2023 40.1459 43.2023 40.0899 43.1971 40.0343C43.6745 39.9252 44.092 39.6348 44.363 39.2233C44.634 38.8119 44.7377 38.3109 44.6526 37.8244Z" fill="white"/>
<path d="M28.0389 34.6946C27.8056 34.3322 27.4424 34.0751 27.0255 33.9772C26.6085 33.8792 26.1702 33.9479 25.8024 34.169C25.4395 34.3981 25.181 34.7628 25.0835 35.1835C24.986 35.6042 25.0572 36.0468 25.2817 36.4147C25.3311 36.511 25.3594 36.617 25.3645 36.7253C24.965 36.6629 24.5697 36.5752 24.1811 36.4625C23.5895 36.2953 22.6191 36.3072 22.4298 37.0717C22.3959 37.4315 22.4595 37.7937 22.6137 38.1199C22.768 38.446 23.007 38.7237 23.3054 38.9233C23.4416 39.0459 23.5838 39.1615 23.7315 39.2697L23.1753 39.6878C22.4653 40.2373 22.4179 41.6468 23.5066 41.826C25.0031 41.8133 26.435 41.2085 27.4946 40.1417C28.1747 39.4254 28.5978 38.5 28.6965 37.5128C28.7951 36.5256 28.5636 35.5335 28.0389 34.6946Z" fill="white"/>
<path d="M37.1286 43.0205C37.1286 42.9608 37.1286 42.913 37.1286 42.8533C37.1403 42.7261 37.1403 42.5982 37.1286 42.471V42.3396C37.0545 42.0109 36.8856 41.7116 36.6434 41.4796C36.154 41.0499 35.5759 40.7357 34.9512 40.5598C35.1845 40.3193 35.3872 40.0505 35.5547 39.7594C35.7156 39.4796 35.815 39.1681 35.8462 38.8461C35.8774 38.5241 35.8397 38.199 35.7356 37.893C35.6315 37.587 35.4635 37.3072 35.2429 37.0724C35.0223 36.8377 34.7543 36.6536 34.4571 36.5325C34.1598 36.4115 33.8403 36.3563 33.5201 36.3708C33.1999 36.3853 32.8865 36.4691 32.6012 36.6165C32.3159 36.7639 32.0653 36.9715 31.8664 37.2252C31.6675 37.479 31.5249 37.7729 31.4484 38.087L31.3419 38.2901C31.2472 38.4454 31.1644 38.6007 31.0815 38.756C30.7968 38.5547 30.5349 38.3223 30.3005 38.0632C30.1083 37.8744 29.8786 37.729 29.6265 37.6366C29.3744 37.5442 29.1058 37.507 28.8384 37.5273C28.571 37.5476 28.3109 37.6249 28.0754 37.7543C27.8398 37.8837 27.6342 38.0621 27.4721 38.2777C27.3099 38.4934 27.1951 38.7413 27.135 39.0051C27.075 39.2689 27.0711 39.5426 27.1237 39.8081C27.1763 40.0735 27.2842 40.3246 27.4401 40.5448C27.5961 40.765 27.7966 40.9493 28.0284 41.0854C28.4347 41.3562 28.8718 41.5767 29.3302 41.7424C28.6517 42.4334 28.2332 43.3416 28.1468 44.3106C28.1524 44.6314 28.24 44.9453 28.4011 45.2219C28.5622 45.4985 28.7913 45.7284 29.0663 45.8894C29.3412 46.0504 29.6526 46.137 29.9705 46.1409C30.2883 46.1447 30.6017 46.0656 30.8804 45.9113C31.8744 45.326 31.9217 44.5973 32.3123 43.6417V43.5581C33.0786 44.0718 33.8955 44.5041 34.75 44.8482C35.0281 44.9134 35.317 44.916 35.5961 44.8556C35.8753 44.7952 36.1378 44.6734 36.3649 44.4988C36.5921 44.3243 36.7783 44.1013 36.9103 43.8458C37.0423 43.5902 37.1168 43.3085 37.1286 43.0205Z" fill="white"/>
<path d="M20.1572 78.4389C26.7647 78.4389 32.1211 73.0319 32.1211 66.362C32.1211 59.6922 26.7647 54.2852 20.1572 54.2852C13.5498 54.2852 8.19336 59.6922 8.19336 66.362C8.19336 73.0319 13.5498 78.4389 20.1572 78.4389Z" fill="white" fill-opacity="0.4" stroke="black" stroke-miterlimit="10"/>
<path d="M48.8311 78.3075C55.4385 78.3075 60.7949 72.9005 60.7949 66.2306C60.7949 59.5607 55.4385 54.1537 48.8311 54.1537C42.2236 54.1537 36.8672 59.5607 36.8672 66.2306C36.8672 72.9005 42.2236 78.3075 48.8311 78.3075Z" fill="white" fill-opacity="0.4" stroke="black" stroke-miterlimit="10"/>
<ellipse cx="55.8525" cy="62.1149" rx="1.25733" ry="2.3891" fill="white"/>
<line x1="31.6064" y1="66.5424" x2="36.3399" y2="66.5424" stroke="black"/>
<ellipse cx="14.4346" cy="60.995" rx="1.25733" ry="1.26921" fill="white"/>
<ellipse cx="12.0679" cy="65.7731" rx="1.25733" ry="1.26921" fill="white"/>
<circle cx="30.9801" cy="148.294" r="12.7452" fill="#E1A400"/>
<path d="M30.8325 159.641C37.5885 159.641 43.0654 154.164 43.0654 147.408C43.0654 140.652 37.5885 135.175 30.8325 135.175C24.0765 135.175 18.5996 140.652 18.5996 147.408C18.5996 154.164 24.0765 159.641 30.8325 159.641Z" fill="#FFD31D" stroke="#EA9C06" stroke-miterlimit="10"/>
<path d="M30.8527 156.891C36.0974 156.891 40.349 152.64 40.349 147.395C40.349 142.15 36.0974 137.899 30.8527 137.899C25.6081 137.899 21.3564 142.15 21.3564 147.395C21.3564 152.64 25.6081 156.891 30.8527 156.891Z" fill="#FFD31D"/>
<path d="M23.6994 153.715C22.069 151.875 21.2134 149.477 21.3118 147.021C21.4102 144.565 22.455 142.242 24.2273 140.539C25.9997 138.836 28.3621 137.885 30.82 137.885C33.2778 137.885 35.6405 138.835 37.4132 140.538" stroke="#EA9C06" stroke-miterlimit="10"/>
<path d="M37.9911 153.681C36.4256 155.467 34.2493 156.604 31.8891 156.868C29.5289 157.132 27.1553 156.504 25.2339 155.109" stroke="#EA9C06" stroke-miterlimit="10"/>
<path d="M39.1395 142.761C39.9589 144.227 40.3758 145.885 40.3479 147.565C40.3201 149.245 39.8485 150.887 38.981 152.326" stroke="#EA9C06" stroke-miterlimit="10"/>
<path d="M37.0525 151.848C37.9042 151.848 38.5947 151.157 38.5947 150.305C38.5947 149.454 37.9042 148.763 37.0525 148.763C36.2007 148.763 35.5103 149.454 35.5103 150.305C35.5103 151.157 36.2007 151.848 37.0525 151.848Z" fill="#EA9C06"/>
<path d="M23.5357 143.229H25.1597C25.1839 143.231 25.2069 143.24 25.2257 143.256C25.2444 143.271 25.258 143.292 25.2646 143.316L26.9449 149.932C26.947 149.936 26.9503 149.94 26.9543 149.943C26.9584 149.945 26.9631 149.946 26.9679 149.946C26.9727 149.946 26.9774 149.945 26.9815 149.943C26.9856 149.94 26.9889 149.936 26.9909 149.932L28.9526 143.282C28.9574 143.269 28.9665 143.257 28.9784 143.249C28.9903 143.24 29.0046 143.236 29.0191 143.236H30.8299C30.8444 143.236 30.8586 143.24 30.8706 143.249C30.8825 143.257 30.8915 143.269 30.8964 143.282L32.8248 149.932C32.8269 149.936 32.8301 149.94 32.8342 149.943C32.8383 149.945 32.843 149.946 32.8478 149.946C32.8526 149.946 32.8573 149.945 32.8614 149.943C32.8654 149.94 32.8687 149.936 32.8708 149.932L34.5435 143.282C34.5479 143.268 34.5567 143.256 34.5687 143.247C34.5807 143.238 34.5951 143.234 34.61 143.234H36.3466C36.3577 143.234 36.3688 143.236 36.3788 143.241C36.3888 143.246 36.3974 143.253 36.4039 143.262C36.4105 143.271 36.4147 143.282 36.4163 143.293C36.4179 143.304 36.4168 143.315 36.4131 143.326L33.8555 151.689C33.8454 151.705 33.8319 151.718 33.816 151.728C33.8 151.738 33.782 151.744 33.7634 151.745H31.858C31.8166 151.737 31.78 151.713 31.7557 151.679L29.9347 145.832C29.9307 145.818 29.922 145.805 29.9099 145.796C29.8979 145.787 29.8833 145.782 29.8682 145.782C29.8531 145.782 29.8385 145.787 29.8265 145.796C29.8145 145.805 29.8058 145.818 29.8017 145.832L27.9628 151.689C27.9538 151.705 27.9409 151.719 27.9253 151.729C27.9096 151.739 27.8918 151.744 27.8733 151.745H25.973C25.9533 151.743 25.9345 151.736 25.918 151.725C25.9016 151.714 25.888 151.699 25.8784 151.681L23.4257 143.372C23.4219 143.355 23.4219 143.338 23.4256 143.321C23.4293 143.304 23.4367 143.288 23.4472 143.275C23.4577 143.261 23.471 143.25 23.4863 143.242C23.5016 143.234 23.5185 143.229 23.5357 143.229Z" fill="#FFD31D" stroke="#EA9C06" stroke-width="0.5" stroke-miterlimit="10"/>
<defs>
<radialGradient id="paint0_radial_21_1888" cx="0" cy="0" r="1" gradientUnits="userSpaceOnUse" gradientTransform="translate(33.9311 56.6026) scale(43.0628 43.4696)">
<stop stop-color="#FBE08D"/>
<stop offset="0.22" stop-color="#FBDA8C"/>
<stop offset="0.5" stop-color="#FBCA89"/>
<stop offset="0.81" stop-color="#FBB085"/>
<stop offset="1" stop-color="#FB9C82"/>
</radialGradient>
</defs>
</svg>
